<?xml version="1.0" encoding="utf-8" standalone="no"?>
<!DOCTYPE svg PUBLIC "-//W3C//DTD SVG 1.1//EN"
  "http://www.w3.org/Graphics/SVG/1.1/DTD/svg11.dtd">
<svg xmlns:xlink="http://www.w3.org/1999/xlink" width="576pt" height="360pt" viewBox="0 0 576 360" xmlns="http://www.w3.org/2000/svg" version="1.1">
 <metadata>
  <rdf:RDF xmlns:dc="http://purl.org/dc/elements/1.1/" xmlns:cc="http://creativecommons.org/ns#" xmlns:rdf="http://www.w3.org/1999/02/22-rdf-syntax-ns#">
   <cc:Work>
    <dc:type rdf:resource="http://purl.org/dc/dcmitype/StillImage"/>
    <dc:date>2023-11-23T07:32:44.566095</dc:date>
    <dc:format>image/svg+xml</dc:format>
    <dc:creator>
     <cc:Agent>
      <dc:title>Matplotlib v3.8.2, https://matplotlib.org/</dc:title>
     </cc:Agent>
    </dc:creator>
   </cc:Work>
  </rdf:RDF>
 </metadata>
 <defs>
  <style type="text/css">*{stroke-linejoin: round; stroke-linecap: butt}</style>
 </defs>
 <g id="figure_1">
  <g id="patch_1">
   <path d="M 0 360 
L 576 360 
L 576 0 
L 0 0 
z
" style="fill: #ffffff"/>
  </g>
  <g id="axes_1">
   <g id="patch_2">
    <path d="M 72 320.4 
L 518.4 320.4 
L 518.4 43.2 
L 72 43.2 
z
" style="fill: #ffffff"/>
   </g>
   <g id="matplotlib.axis_1">
    <g id="xtick_1">
     <g id="line2d_1">
      <defs>
       <path id="mdebb339cbf" d="M 0 0 
L 0 3.5 
" style="stroke: #000000; stroke-width: 0.8"/>
      </defs>
      <g>
       <use xlink:href="#mdebb339cbf" x="129.874161" y="320.4" style="stroke: #000000; stroke-width: 0.8"/>
      </g>
     </g>
     <g id="text_1">
      <!-- 2020-05-15 -->
      <g transform="translate(100.816349 334.998438) scale(0.1 -0.1)">
       <defs>
        <path id="DejaVuSans-32" d="M 1228 531 
L 3431 531 
L 3431 0 
L 469 0 
L 469 531 
Q 828 903 1448 1529 
Q 2069 2156 2228 2338 
Q 2531 2678 2651 2914 
Q 2772 3150 2772 3378 
Q 2772 3750 2511 3984 
Q 2250 4219 1831 4219 
Q 1534 4219 1204 4116 
Q 875 4013 500 3803 
L 500 4441 
Q 881 4594 1212 4672 
Q 1544 4750 1819 4750 
Q 2544 4750 2975 4387 
Q 3406 4025 3406 3419 
Q 3406 3131 3298 2873 
Q 3191 2616 2906 2266 
Q 2828 2175 2409 1742 
Q 1991 1309 1228 531 
z
" transform="scale(0.015625)"/>
        <path id="DejaVuSans-30" d="M 2034 4250 
Q 1547 4250 1301 3770 
Q 1056 3291 1056 2328 
Q 1056 1369 1301 889 
Q 1547 409 2034 409 
Q 2525 409 2770 889 
Q 3016 1369 3016 2328 
Q 3016 3291 2770 3770 
Q 2525 4250 2034 4250 
z
M 2034 4750 
Q 2819 4750 3233 4129 
Q 3647 3509 3647 2328 
Q 3647 1150 3233 529 
Q 2819 -91 2034 -91 
Q 1250 -91 836 529 
Q 422 1150 422 2328 
Q 422 3509 836 4129 
Q 1250 4750 2034 4750 
z
" transform="scale(0.015625)"/>
        <path id="DejaVuSans-2d" d="M 313 2009 
L 1997 2009 
L 1997 1497 
L 313 1497 
L 313 2009 
z
" transform="scale(0.015625)"/>
        <path id="DejaVuSans-35" d="M 691 4666 
L 3169 4666 
L 3169 4134 
L 1269 4134 
L 1269 2991 
Q 1406 3038 1543 3061 
Q 1681 3084 1819 3084 
Q 2600 3084 3056 2656 
Q 3513 2228 3513 1497 
Q 3513 744 3044 326 
Q 2575 -91 1722 -91 
Q 1428 -91 1123 -41 
Q 819 9 494 109 
L 494 744 
Q 775 591 1075 516 
Q 1375 441 1709 441 
Q 2250 441 2565 725 
Q 2881 1009 2881 1497 
Q 2881 1984 2565 2268 
Q 2250 2553 1709 2553 
Q 1456 2553 1204 2497 
Q 953 2441 691 2322 
L 691 4666 
z
" transform="scale(0.015625)"/>
        <path id="DejaVuSans-31" d="M 794 531 
L 1825 531 
L 1825 4091 
L 703 3866 
L 703 4441 
L 1819 4666 
L 2450 4666 
L 2450 531 
L 3481 531 
L 3481 0 
L 794 0 
L 794 531 
z
" transform="scale(0.015625)"/>
       </defs>
       <use xlink:href="#DejaVuSans-32"/>
       <use xlink:href="#DejaVuSans-30" x="63.623047"/>
       <use xlink:href="#DejaVuSans-32" x="127.246094"/>
       <use xlink:href="#DejaVuSans-30" x="190.869141"/>
       <use xlink:href="#DejaVuSans-2d" x="254.492188"/>
       <use xlink:href="#DejaVuSans-30" x="290.576172"/>
       <use xlink:href="#DejaVuSans-35" x="354.199219"/>
       <use xlink:href="#DejaVuSans-2d" x="417.822266"/>
       <use xlink:href="#DejaVuSans-31" x="453.90625"/>
       <use xlink:href="#DejaVuSans-35" x="517.529297"/>
      </g>
     </g>
    </g>
    <g id="xtick_2">
     <g id="line2d_2">
      <g>
       <use xlink:href="#mdebb339cbf" x="212.435902" y="320.4" style="stroke: #000000; stroke-width: 0.8"/>
      </g>
     </g>
     <g id="text_2">
      <!-- 2020-06-01 -->
      <g transform="translate(183.37809 334.998438) scale(0.1 -0.1)">
       <defs>
        <path id="DejaVuSans-36" d="M 2113 2584 
Q 1688 2584 1439 2293 
Q 1191 2003 1191 1497 
Q 1191 994 1439 701 
Q 1688 409 2113 409 
Q 2538 409 2786 701 
Q 3034 994 3034 1497 
Q 3034 2003 2786 2293 
Q 2538 2584 2113 2584 
z
M 3366 4563 
L 3366 3988 
Q 3128 4100 2886 4159 
Q 2644 4219 2406 4219 
Q 1781 4219 1451 3797 
Q 1122 3375 1075 2522 
Q 1259 2794 1537 2939 
Q 1816 3084 2150 3084 
Q 2853 3084 3261 2657 
Q 3669 2231 3669 1497 
Q 3669 778 3244 343 
Q 2819 -91 2113 -91 
Q 1303 -91 875 529 
Q 447 1150 447 2328 
Q 447 3434 972 4092 
Q 1497 4750 2381 4750 
Q 2619 4750 2861 4703 
Q 3103 4656 3366 4563 
z
" transform="scale(0.015625)"/>
       </defs>
       <use xlink:href="#DejaVuSans-32"/>
       <use xlink:href="#DejaVuSans-30" x="63.623047"/>
       <use xlink:href="#DejaVuSans-32" x="127.246094"/>
       <use xlink:href="#DejaVuSans-30" x="190.869141"/>
       <use xlink:href="#DejaVuSans-2d" x="254.492188"/>
       <use xlink:href="#DejaVuSans-30" x="290.576172"/>
       <use xlink:href="#DejaVuSans-36" x="354.199219"/>
       <use xlink:href="#DejaVuSans-2d" x="417.822266"/>
       <use xlink:href="#DejaVuSans-30" x="453.90625"/>
       <use xlink:href="#DejaVuSans-31" x="517.529297"/>
      </g>
     </g>
    </g>
    <g id="xtick_3">
     <g id="line2d_3">
      <g>
       <use xlink:href="#mdebb339cbf" x="280.427924" y="320.4" style="stroke: #000000; stroke-width: 0.8"/>
      </g>
     </g>
     <g id="text_3">
      <!-- 2020-06-15 -->
      <g transform="translate(251.370111 334.998438) scale(0.1 -0.1)">
       <use xlink:href="#DejaVuSans-32"/>
       <use xlink:href="#DejaVuSans-30" x="63.623047"/>
       <use xlink:href="#DejaVuSans-32" x="127.246094"/>
       <use xlink:href="#DejaVuSans-30" x="190.869141"/>
       <use xlink:href="#DejaVuSans-2d" x="254.492188"/>
       <use xlink:href="#DejaVuSans-30" x="290.576172"/>
       <use xlink:href="#DejaVuSans-36" x="354.199219"/>
       <use xlink:href="#DejaVuSans-2d" x="417.822266"/>
       <use xlink:href="#DejaVuSans-31" x="453.90625"/>
       <use xlink:href="#DejaVuSans-35" x="517.529297"/>
      </g>
     </g>
    </g>
    <g id="xtick_4">
     <g id="line2d_4">
      <g>
       <use xlink:href="#mdebb339cbf" x="358.133092" y="320.4" style="stroke: #000000; stroke-width: 0.8"/>
      </g>
     </g>
     <g id="text_4">
      <!-- 2020-07-01 -->
      <g transform="translate(329.075279 334.998438) scale(0.1 -0.1)">
       <defs>
        <path id="DejaVuSans-37" d="M 525 4666 
L 3525 4666 
L 3525 4397 
L 1831 0 
L 1172 0 
L 2766 4134 
L 525 4134 
L 525 4666 
z
" transform="scale(0.015625)"/>
       </defs>
       <use xlink:href="#DejaVuSans-32"/>
       <use xlink:href="#DejaVuSans-30" x="63.623047"/>
       <use xlink:href="#DejaVuSans-32" x="127.246094"/>
       <use xlink:href="#DejaVuSans-30" x="190.869141"/>
       <use xlink:href="#DejaVuSans-2d" x="254.492188"/>
       <use xlink:href="#DejaVuSans-30" x="290.576172"/>
       <use xlink:href="#DejaVuSans-37" x="354.199219"/>
       <use xlink:href="#DejaVuSans-2d" x="417.822266"/>
       <use xlink:href="#DejaVuSans-30" x="453.90625"/>
       <use xlink:href="#DejaVuSans-31" x="517.529297"/>
      </g>
     </g>
    </g>
    <g id="xtick_5">
     <g id="line2d_5">
      <g>
       <use xlink:href="#mdebb339cbf" x="426.125113" y="320.4" style="stroke: #000000; stroke-width: 0.8"/>
      </g>
     </g>
     <g id="text_5">
      <!-- 2020-07-15 -->
      <g transform="translate(397.067301 334.998438) scale(0.1 -0.1)">
       <use xlink:href="#DejaVuSans-32"/>
       <use xlink:href="#DejaVuSans-30" x="63.623047"/>
       <use xlink:href="#DejaVuSans-32" x="127.246094"/>
       <use xlink:href="#DejaVuSans-30" x="190.869141"/>
       <use xlink:href="#DejaVuSans-2d" x="254.492188"/>
       <use xlink:href="#DejaVuSans-30" x="290.576172"/>
       <use xlink:href="#DejaVuSans-37" x="354.199219"/>
       <use xlink:href="#DejaVuSans-2d" x="417.822266"/>
       <use xlink:href="#DejaVuSans-31" x="453.90625"/>
       <use xlink:href="#DejaVuSans-35" x="517.529297"/>
      </g>
     </g>
    </g>
    <g id="xtick_6">
     <g id="line2d_6">
      <g>
       <use xlink:href="#mdebb339cbf" x="508.686854" y="320.4" style="stroke: #000000; stroke-width: 0.8"/>
      </g>
     </g>
     <g id="text_6">
      <!-- 2020-08-01 -->
      <g transform="translate(479.629042 334.998438) scale(0.1 -0.1)">
       <defs>
        <path id="DejaVuSans-38" d="M 2034 2216 
Q 1584 2216 1326 1975 
Q 1069 1734 1069 1313 
Q 1069 891 1326 650 
Q 1584 409 2034 409 
Q 2484 409 2743 651 
Q 3003 894 3003 1313 
Q 3003 1734 2745 1975 
Q 2488 2216 2034 2216 
z
M 1403 2484 
Q 997 2584 770 2862 
Q 544 3141 544 3541 
Q 544 4100 942 4425 
Q 1341 4750 2034 4750 
Q 2731 4750 3128 4425 
Q 3525 4100 3525 3541 
Q 3525 3141 3298 2862 
Q 3072 2584 2669 2484 
Q 3125 2378 3379 2068 
Q 3634 1759 3634 1313 
Q 3634 634 3220 271 
Q 2806 -91 2034 -91 
Q 1263 -91 848 271 
Q 434 634 434 1313 
Q 434 1759 690 2068 
Q 947 2378 1403 2484 
z
M 1172 3481 
Q 1172 3119 1398 2916 
Q 1625 2713 2034 2713 
Q 2441 2713 2670 2916 
Q 2900 3119 2900 3481 
Q 2900 3844 2670 4047 
Q 2441 4250 2034 4250 
Q 1625 4250 1398 4047 
Q 1172 3844 1172 3481 
z
" transform="scale(0.015625)"/>
       </defs>
       <use xlink:href="#DejaVuSans-32"/>
       <use xlink:href="#DejaVuSans-30" x="63.623047"/>
       <use xlink:href="#DejaVuSans-32" x="127.246094"/>
       <use xlink:href="#DejaVuSans-30" x="190.869141"/>
       <use xlink:href="#DejaVuSans-2d" x="254.492188"/>
       <use xlink:href="#DejaVuSans-30" x="290.576172"/>
       <use xlink:href="#DejaVuSans-38" x="354.199219"/>
       <use xlink:href="#DejaVuSans-2d" x="417.822266"/>
       <use xlink:href="#DejaVuSans-30" x="453.90625"/>
       <use xlink:href="#DejaVuSans-31" x="517.529297"/>
      </g>
     </g>
    </g>
   </g>
   <g id="matplotlib.axis_2">
    <g id="ytick_1">
     <g id="line2d_7">
      <defs>
       <path id="mc133b89ec3" d="M 0 0 
L -3.5 0 
" style="stroke: #000000; stroke-width: 0.8"/>
      </defs>
      <g>
       <use xlink:href="#mc133b89ec3" x="72" y="313.085691" style="stroke: #000000; stroke-width: 0.8"/>
      </g>
     </g>
     <g id="text_7">
      <!-- −2 -->
      <g transform="translate(50.257812 316.884909) scale(0.1 -0.1)">
       <defs>
        <path id="DejaVuSans-2212" d="M 678 2272 
L 4684 2272 
L 4684 1741 
L 678 1741 
L 678 2272 
z
" transform="scale(0.015625)"/>
       </defs>
       <use xlink:href="#DejaVuSans-2212"/>
       <use xlink:href="#DejaVuSans-32" x="83.789062"/>
      </g>
     </g>
    </g>
    <g id="ytick_2">
     <g id="line2d_8">
      <g>
       <use xlink:href="#mc133b89ec3" x="72" y="259.940301" style="stroke: #000000; stroke-width: 0.8"/>
      </g>
     </g>
     <g id="text_8">
      <!-- −1 -->
      <g transform="translate(50.257812 263.73952) scale(0.1 -0.1)">
       <use xlink:href="#DejaVuSans-2212"/>
       <use xlink:href="#DejaVuSans-31" x="83.789062"/>
      </g>
     </g>
    </g>
    <g id="ytick_3">
     <g id="line2d_9">
      <g>
       <use xlink:href="#mc133b89ec3" x="72" y="206.794912" style="stroke: #000000; stroke-width: 0.8"/>
      </g>
     </g>
     <g id="text_9">
      <!-- 0 -->
      <g transform="translate(58.6375 210.594131) scale(0.1 -0.1)">
       <use xlink:href="#DejaVuSans-30"/>
      </g>
     </g>
    </g>
    <g id="ytick_4">
     <g id="line2d_10">
      <g>
       <use xlink:href="#mc133b89ec3" x="72" y="153.649523" style="stroke: #000000; stroke-width: 0.8"/>
      </g>
     </g>
     <g id="text_10">
      <!-- 1 -->
      <g transform="translate(58.6375 157.448742) scale(0.1 -0.1)">
       <use xlink:href="#DejaVuSans-31"/>
      </g>
     </g>
    </g>
    <g id="ytick_5">
     <g id="line2d_11">
      <g>
       <use xlink:href="#mc133b89ec3" x="72" y="100.504134" style="stroke: #000000; stroke-width: 0.8"/>
      </g>
     </g>
     <g id="text_11">
      <!-- 2 -->
      <g transform="translate(58.6375 104.303352) scale(0.1 -0.1)">
       <use xlink:href="#DejaVuSans-32"/>
      </g>
     </g>
    </g>
    <g id="ytick_6">
     <g id="line2d_12">
      <g>
       <use xlink:href="#mc133b89ec3" x="72" y="47.358744" style="stroke: #000000; stroke-width: 0.8"/>
      </g>
     </g>
     <g id="text_12">
      <!-- 3 -->
      <g transform="translate(58.6375 51.157963) scale(0.1 -0.1)">
       <defs>
        <path id="DejaVuSans-33" d="M 2597 2516 
Q 3050 2419 3304 2112 
Q 3559 1806 3559 1356 
Q 3559 666 3084 287 
Q 2609 -91 1734 -91 
Q 1441 -91 1130 -33 
Q 819 25 488 141 
L 488 750 
Q 750 597 1062 519 
Q 1375 441 1716 441 
Q 2309 441 2620 675 
Q 2931 909 2931 1356 
Q 2931 1769 2642 2001 
Q 2353 2234 1838 2234 
L 1294 2234 
L 1294 2753 
L 1863 2753 
Q 2328 2753 2575 2939 
Q 2822 3125 2822 3475 
Q 2822 3834 2567 4026 
Q 2313 4219 1838 4219 
Q 1578 4219 1281 4162 
Q 984 4106 628 3988 
L 628 4550 
Q 988 4650 1302 4700 
Q 1616 4750 1894 4750 
Q 2613 4750 3031 4423 
Q 3450 4097 3450 3541 
Q 3450 3153 3228 2886 
Q 3006 2619 2597 2516 
z
" transform="scale(0.015625)"/>
       </defs>
       <use xlink:href="#DejaVuSans-33"/>
      </g>
     </g>
    </g>
   </g>
   <g id="line2d_13">
    <path d="M 72 284.411434 
L 72.404714 295.674108 
L 72.607072 293.963848 
L 72.809429 283.368592 
L 73.214143 252.667377 
L 73.618858 240.320149 
L 75.035358 157.93577 
L 75.237715 154.994961 
L 75.440073 160.021448 
L 75.64243 168.17646 
L 75.844787 171.450978 
L 76.047144 186.593019 
L 76.654216 256.379888 
L 77.05893 280.281783 
L 77.261287 284.620003 
L 77.463645 284.244578 
L 77.666002 273.60761 
L 78.070716 245.304924 
L 78.475431 232.915983 
L 78.677788 223.843272 
L 79.487217 167.237905 
L 79.891931 151.073882 
L 80.094288 153.01356 
L 80.903717 195.144309 
L 81.713146 269.978527 
L 82.11786 284.536572 
L 82.320218 286.559682 
L 82.522575 286.267688 
L 82.724932 283.764873 
L 82.927289 276.986412 
L 83.332004 254.14821 
L 83.736718 239.923868 
L 83.939075 236.899631 
L 84.141432 237.170771 
L 84.546147 243.532095 
L 84.748504 245.617776 
L 84.950861 245.638633 
L 85.355576 249.809993 
L 85.557933 246.493763 
L 85.76029 252.583949 
L 86.569719 297.259225 
L 86.772076 303.307698 
L 86.974433 304.892815 
L 87.176791 304.955384 
L 87.379148 303.620548 
L 87.581505 299.90804 
L 87.783862 293.192149 
L 88.188577 271.271645 
L 88.390934 266.120013 
L 89.200363 258.090145 
L 89.40272 253.981357 
L 89.807434 239.277309 
L 90.212149 236.837062 
L 90.414506 234.146534 
L 90.616863 242.051262 
L 91.223935 292.337018 
L 91.628649 303.307698 
L 91.831006 303.370267 
L 92.033364 300.888308 
L 92.842792 255.00334 
L 93.04515 252.875946 
L 93.449864 244.324656 
L 93.652221 243.803235 
L 93.854578 240.883282 
L 94.056936 240.257577 
L 94.259293 237.650477 
L 94.46165 231.289152 
L 94.664007 228.452626 
L 94.866364 229.370326 
L 95.068722 232.498846 
L 95.271079 228.682051 
L 95.473436 238.735032 
L 96.080508 292.712443 
L 96.485222 301.868582 
L 96.687579 303.766548 
L 96.889937 299.449191 
L 97.699365 254.27335 
L 98.306437 243.824091 
L 98.508794 243.44867 
L 99.52058 222.341582 
L 99.722937 223.592991 
L 99.925295 227.931206 
L 100.127652 226.116665 
L 100.330009 236.211357 
L 100.937081 290.25134 
L 101.341795 302.452568 
L 101.544152 303.432842 
L 101.74651 299.741184 
L 101.948867 287.852805 
L 102.353581 257.985861 
L 102.555938 256.44246 
L 103.567724 238.755888 
L 104.377153 216.772815 
L 104.57951 218.045081 
L 104.781868 223.405279 
L 104.984225 223.384423 
L 105.186582 232.227709 
L 105.793654 287.122819 
L 106.198368 299.803753 
L 106.400725 301.555726 
L 106.603083 297.551218 
L 107.412511 251.874819 
L 107.614869 250.164561 
L 107.817226 246.514619 
L 108.22194 232.060854 
L 108.626655 210.474061 
L 108.829012 204.571585 
L 109.031369 202.694472 
L 109.638441 211.32919 
L 109.840798 216.731102 
L 110.043155 227.076078 
L 110.650227 281.825188 
L 111.054941 296.00782 
L 111.257298 297.905786 
L 111.459655 296.17467 
L 111.662013 284.828571 
L 112.066727 255.733326 
L 112.471442 240.820711 
L 113.887942 172.785814 
L 114.090299 170.428995 
L 114.292656 177.207458 
L 114.495014 188.574416 
L 114.697371 193.142056 
L 115.102085 226.971793 
L 115.709157 276.068714 
L 116.113871 289.938484 
L 116.316228 290.10534 
L 116.518586 288.457654 
L 116.720943 284.849428 
L 117.125657 257.756436 
L 118.542158 153.660125 
L 118.744515 143.607147 
L 118.946872 139.748633 
L 119.149229 143.398579 
L 119.756301 181.065966 
L 120.56573 259.988115 
L 120.970444 279.697797 
L 121.172801 283.764873 
L 121.375159 285.391702 
L 121.577516 283.952585 
L 121.779873 276.068714 
L 122.589302 225.344963 
L 123.196374 200.024801 
L 123.398731 195.478018 
L 123.601088 195.686586 
L 123.803445 195.123453 
L 124.410517 208.450951 
L 124.612874 219.359059 
L 125.219946 275.338721 
L 125.62466 289.79249 
L 125.827017 291.773888 
L 126.029374 289.25021 
L 127.04116 233.166264 
L 127.648232 195.957724 
L 128.255304 153.806122 
L 128.457661 146.297675 
L 128.660018 145.963963 
L 129.26709 190.055249 
L 130.278876 280.406927 
L 130.481233 288.186517 
L 130.68359 289.563066 
L 130.885947 286.997675 
L 132.504805 178.667435 
L 133.111877 136.223837 
L 133.314234 126.85913 
L 133.516591 128.548535 
L 133.921306 143.836572 
L 134.123663 151.219881 
L 135.135449 260.509533 
L 135.540163 273.06533 
L 135.74252 272.126775 
L 135.944878 261.594088 
L 136.349592 230.350595 
L 136.551949 223.613848 
L 136.754306 211.808896 
L 136.956664 216.355679 
L 137.159021 205.113862 
L 137.766092 196.333147 
L 137.96845 196.729426 
L 138.373164 191.34837 
L 138.777879 198.856821 
L 138.980236 199.691093 
L 139.182593 211.433474 
L 139.789665 267.767705 
L 140.194379 283.055742 
L 140.396736 285.120565 
L 140.599093 282.117187 
L 141.003808 252.062531 
L 141.408522 230.997157 
L 142.015594 217.669658 
L 142.622665 208.576091 
L 142.825023 208.304953 
L 143.02738 207.095258 
L 143.229737 207.783533 
L 143.634451 213.039447 
L 143.836809 211.808896 
L 144.039166 221.945303 
L 144.646238 271.04222 
L 145.050952 283.076599 
L 145.253309 284.369722 
L 145.455666 281.241201 
L 145.860381 251.728822 
L 146.062738 235.35623 
L 146.66981 218.96278 
L 146.872167 216.293109 
L 147.074524 215.208556 
L 147.479238 204.154449 
L 147.681596 212.580598 
L 147.883953 213.560868 
L 148.08631 216.167969 
L 148.491024 225.449247 
L 148.693382 224.093555 
L 149.098096 247.640886 
L 149.502811 275.693289 
L 149.907525 288.770504 
L 150.109882 290.835326 
L 150.312239 290.25134 
L 150.514597 287.414812 
L 150.716954 281.679194 
L 151.121668 260.697245 
L 151.526383 240.090724 
L 151.931097 234.250819 
L 152.133454 233.812826 
L 152.335811 235.794223 
L 152.538169 236.315641 
L 152.740526 234.250819 
L 152.942883 234.542812 
L 153.14524 233.562545 
L 153.347597 233.604257 
L 153.549955 230.663448 
L 153.752312 232.874269 
L 154.764098 284.640859 
L 154.966455 288.624511 
L 155.168812 290.021915 
L 155.573527 286.05912 
L 155.775884 274.92159 
L 156.78767 196.520859 
L 157.799456 153.639266 
L 158.001813 155.662379 
L 158.406528 168.948162 
L 158.608885 182.588513 
L 159.215956 251.645394 
L 159.620671 273.378186 
L 159.823028 276.610988 
L 160.025385 275.693289 
L 160.227743 265.82802 
L 160.632457 233.166264 
L 161.8466 182.546799 
L 162.251315 172.431249 
L 162.453672 172.577245 
L 162.656029 175.455486 
L 163.465458 207.470681 
L 164.072529 267.70513 
L 164.477244 286.434544 
L 164.679601 286.76825 
L 164.881958 283.514592 
L 165.084316 273.294755 
L 165.48903 241.321276 
L 166.500816 206.010704 
L 167.310245 162.816261 
L 167.512602 166.195063 
L 167.917316 186.905871 
L 168.119674 191.390084 
L 168.322031 202.819613 
L 168.929102 262.616074 
L 169.333817 277.904111 
L 169.536174 281.449769 
L 169.738531 277.758111 
L 170.143246 250.289702 
L 170.54796 219.776195 
L 171.357389 174.913208 
L 171.559746 168.843878 
L 172.166818 144.483127 
L 172.369175 146.109963 
L 172.571532 154.077259 
L 173.178604 193.30891 
L 173.785675 264.868609 
L 174.19039 284.390578 
L 174.392747 287.393956 
L 174.595104 285.558558 
L 174.999819 261.197807 
L 175.404533 236.023648 
L 177.023391 157.247496 
L 177.225748 157.768914 
L 177.428105 161.71085 
L 177.630462 178.417151 
L 177.83282 180.878255 
L 178.237534 225.303249 
L 178.642248 268.518548 
L 179.046963 287.852805 
L 179.24932 291.607032 
L 179.451677 289.062504 
L 179.654034 280.302646 
L 180.261106 240.153293 
L 181.879964 142.460017 
L 182.082321 139.164646 
L 182.284678 144.879408 
L 183.094107 201.651632 
L 183.498821 240.96671 
L 183.903536 262.595218 
L 184.30825 270.499946 
L 184.510607 271.876494 
L 184.712965 268.205698 
L 184.915322 254.711343 
L 185.724751 172.014112 
L 186.129465 150.448176 
L 186.331822 144.337134 
L 186.53418 143.565428 
L 186.736537 146.130819 
L 187.748323 186.926728 
L 188.557752 251.687106 
L 188.962466 265.994876 
L 189.164823 268.059699 
L 189.36718 268.143123 
L 189.569538 267.392281 
L 189.771895 256.505029 
L 190.986038 159.625171 
L 191.188395 154.264971 
L 191.390752 154.223259 
L 191.795467 163.462822 
L 192.604896 195.081738 
L 193.414325 259.04956 
L 193.819039 272.89848 
L 194.021396 273.983029 
L 194.426111 269.978527 
L 194.628468 260.92667 
L 195.437897 199.37824 
L 195.640254 194.310037 
L 195.842611 195.540589 
L 196.247325 201.672489 
L 196.449683 202.25648 
L 196.65204 201.8602 
L 197.056754 210.161208 
L 197.259112 211.016337 
L 197.461469 219.525914 
L 198.06854 268.414267 
L 198.473255 282.763749 
L 198.675612 282.86803 
L 198.877969 279.176379 
L 199.282684 248.037167 
L 199.687398 224.948683 
L 201.306256 157.768914 
L 201.508613 156.600934 
L 202.115684 176.018619 
L 202.318042 187.302151 
L 202.925113 252.1251 
L 203.329828 269.978527 
L 203.532185 272.105919 
L 203.734542 269.081685 
L 203.936899 257.422727 
L 204.341614 223.029858 
L 205.758114 167.717611 
L 205.960471 165.193939 
L 206.162829 165.339936 
L 206.365186 166.779056 
L 206.7699 178.771716 
L 206.972257 182.004523 
L 207.174615 192.975201 
L 207.781686 252.729946 
L 208.186401 269.081685 
L 208.388758 272.168487 
L 208.591115 268.789685 
L 208.793472 256.776166 
L 209.198187 222.571007 
L 209.805258 200.024801 
L 210.209973 179.897986 
L 210.817044 137.704667 
L 211.019402 129.111665 
L 211.221759 132.115043 
L 211.626473 156.892931 
L 211.82883 162.169702 
L 212.031188 177.082315 
L 212.638259 242.927249 
L 213.042974 261.740088 
L 213.245331 265.786308 
L 213.447688 264.055191 
L 213.650045 253.209655 
L 214.257117 209.410364 
L 214.661831 182.734511 
L 215.47126 122.646054 
L 215.875975 105.710332 
L 216.078332 105.230626 
L 216.280689 110.841107 
L 217.090118 175.413773 
L 217.697189 238.109326 
L 218.101904 256.797025 
L 218.304261 260.196683 
L 218.506618 261.573232 
L 218.708976 260.300964 
L 218.911333 247.411462 
L 219.518404 191.93236 
L 220.125476 156.288081 
L 220.327833 154.098118 
L 220.53019 156.350653 
L 221.541976 199.190529 
L 221.744334 204.40473 
L 222.553762 262.011225 
L 222.958477 273.023617 
L 223.160834 274.754734 
L 223.363191 275.109296 
L 223.565549 273.524179 
L 223.767906 264.701753 
L 224.374977 226.012381 
L 224.779692 218.337076 
L 225.386763 220.422756 
L 225.589121 223.989271 
L 225.791478 224.886113 
L 226.196192 233.374832 
L 226.398549 233.020267 
L 226.600907 239.52759 
L 227.410335 293.817854 
L 227.612693 297.905786 
L 227.81505 299.616047 
L 228.017407 296.383238 
L 228.826836 253.251367 
L 229.029193 250.894548 
L 229.23155 245.075499 
L 230.648051 180.857398 
L 230.850408 181.441389 
L 231.255122 196.041151 
L 231.45748 207.074401 
L 232.064551 271.563644 
L 232.469266 288.958216 
L 232.671623 291.711313 
L 232.87398 290.480764 
L 233.278694 264.868609 
L 233.683409 242.051262 
L 235.302267 176.644325 
L 235.504624 176.039475 
L 236.111695 195.39459 
L 236.314053 205.885564 
L 236.921124 268.810541 
L 237.325839 284.89114 
L 237.528196 288.061374 
L 237.730553 285.913126 
L 238.135267 261.656656 
L 238.539982 239.590159 
L 239.349411 208.263239 
L 239.754125 198.126832 
L 240.15884 187.781858 
L 240.361197 187.531575 
L 240.563554 193.058629 
L 240.968268 210.891197 
L 241.170626 218.566501 
L 241.777697 274.817303 
L 242.182412 290.877045 
L 242.384769 293.400717 
L 242.587126 290.376477 
L 242.99184 265.348314 
L 243.396555 247.161181 
L 245.21777 171.555262 
L 245.420127 175.851763 
L 246.027199 202.986468 
L 246.836627 277.403549 
L 247.038985 285.871408 
L 247.241342 289.08336 
L 247.443699 286.517969 
L 247.848413 262.657787 
L 249.467271 149.238484 
L 249.669628 141.062613 
L 249.871985 139.102078 
L 250.074343 139.268927 
L 250.2767 146.297675 
L 250.883772 178.813431 
L 251.6932 254.732199 
L 252.097915 269.436247 
L 252.300272 272.543912 
L 252.502629 272.815049 
L 252.704986 268.893973 
L 253.109701 235.731651 
L 253.91913 161.606568 
L 254.323844 145.609401 
L 254.728558 136.682687 
L 254.930916 135.41042 
L 255.133273 143.002298 
L 255.740345 180.940826 
L 256.549773 257.089018 
L 256.954488 272.75248 
L 257.156845 276.610988 
L 257.359202 278.300392 
L 257.561559 277.320118 
L 257.966274 248.07888 
L 258.573345 197.063135 
L 258.97806 175.121777 
L 259.382774 163.963387 
L 259.585131 160.480301 
L 259.787489 160.042308 
L 259.989846 162.69112 
L 260.39456 178.876 
L 260.596917 192.391211 
L 261.203989 255.149336 
L 261.608704 274.087316 
L 261.811061 277.048981 
L 262.013418 276.256426 
L 262.418132 251.999959 
L 262.62049 239.840443 
L 263.025204 230.0586 
L 263.227561 227.222074 
L 263.429918 226.200091 
L 263.834633 227.493213 
L 264.03699 227.180362 
L 264.239347 228.139775 
L 264.441704 228.223201 
L 264.644062 227.952062 
L 264.846419 230.016886 
L 265.048776 234.104822 
L 265.251133 234.104822 
L 265.45349 238.171898 
L 266.060562 281.15777 
L 266.465277 294.15156 
L 266.667634 295.71582 
L 266.869991 291.481888 
L 267.072348 283.431161 
L 267.477063 256.609313 
L 268.084134 234.167391 
L 268.488849 223.759846 
L 269.09592 212.37203 
L 269.500635 208.367523 
L 269.702992 210.578345 
L 269.905349 214.228286 
L 270.107706 214.91656 
L 270.310063 221.298743 
L 270.917135 270.750226 
L 271.32185 282.86803 
L 271.524207 285.03714 
L 271.726564 283.306023 
L 274.15485 139.99892 
L 274.357208 132.740748 
L 274.559565 136.11955 
L 275.166636 161.585709 
L 275.976065 244.1578 
L 276.38078 256.88045 
L 276.583137 256.17132 
L 276.987851 234.063106 
L 277.392566 204.80101 
L 278.404352 147.152799 
L 278.606709 144.065996 
L 279.011423 130.675926 
L 279.213781 129.049096 
L 279.416138 133.366454 
L 280.023209 175.601482 
L 280.630281 247.828599 
L 281.034995 270.896226 
L 281.237353 275.839289 
L 281.43971 274.275028 
L 281.642067 268.309979 
L 282.249139 226.033237 
L 282.85621 191.974074 
L 283.867996 148.654491 
L 284.070354 147.444799 
L 284.272711 155.704091 
L 285.284497 239.819584 
L 285.689211 272.397912 
L 286.093926 287.331387 
L 286.296283 289.64649 
L 286.49864 287.811093 
L 286.700997 284.828571 
L 287.105712 253.418223 
L 287.712783 201.213639 
L 288.522212 157.226639 
L 288.724569 150.010183 
L 288.926927 148.049641 
L 289.129284 151.678731 
L 289.736355 185.925601 
L 290.545784 256.901309 
L 290.950499 272.377056 
L 291.152856 275.192727 
L 291.355213 275.276152 
L 291.55757 273.77446 
L 291.759927 261.135238 
L 292.771714 161.189431 
L 293.176428 138.914365 
L 293.581142 127.526548 
L 293.7835 125.774575 
L 293.985857 129.34109 
L 294.592928 155.203526 
L 295.402357 239.569303 
L 295.807072 254.461062 
L 296.009429 254.294206 
L 296.414143 233.729397 
L 297.830644 96.82533 
L 298.235358 83.330978 
L 298.437715 80.703019 
L 298.640073 80.974162 
L 298.84243 83.059835 
L 299.044787 91.214856 
L 299.449501 118.578978 
L 300.056573 198.731679 
L 300.461287 224.343836 
L 300.663645 230.45488 
L 300.866002 231.184868 
L 301.068359 224.260409 
L 301.473073 193.76776 
L 302.484859 86.918349 
L 302.687217 75.426244 
L 302.889574 75.530538 
L 303.091931 83.748115 
L 303.496646 92.528836 
L 303.90136 115.116751 
L 304.306074 143.482003 
L 304.913146 213.748579 
L 305.31786 239.485875 
L 305.520218 245.138071 
L 305.722575 243.323529 
L 305.924932 236.086216 
L 306.532004 195.519732 
L 307.54379 124.43974 
L 307.746147 114.073909 
L 307.948504 113.177066 
L 308.757933 145.943107 
L 309.162647 172.410392 
L 309.769719 236.378213 
L 310.174433 256.5676 
L 310.376791 261.030957 
L 310.579148 260.446964 
L 310.983862 236.670206 
L 312.198005 131.030494 
L 312.60272 119.22554 
L 312.805077 114.783039 
L 313.007434 115.346176 
L 313.209791 119.100396 
L 313.816863 147.111086 
L 314.01922 161.001719 
L 314.626292 224.552404 
L 315.031006 245.367496 
L 315.233364 250.018562 
L 315.435721 249.351144 
L 315.840435 230.288025 
L 316.24515 211.287476 
L 316.649864 199.086245 
L 317.054578 183.547925 
L 317.66165 175.914335 
L 317.864007 175.455486 
L 318.066364 174.537787 
L 318.268722 179.293137 
L 318.875793 201.776773 
L 319.685222 261.281238 
L 320.089937 274.254172 
L 320.292294 275.922714 
L 320.697008 267.871986 
L 321.101723 241.237848 
L 322.315866 162.10713 
L 322.72058 151.699587 
L 322.922937 149.342765 
L 323.125295 153.534985 
L 323.732366 181.587386 
L 324.541795 251.186545 
L 324.94651 265.702883 
L 325.148867 268.643692 
L 325.351224 268.70626 
L 325.553581 266.412013 
L 325.755938 253.897929 
L 326.970082 139.748633 
L 327.172439 133.324741 
L 327.374796 131.718768 
L 327.77951 126.066569 
L 327.981868 131.134775 
L 328.184225 140.061489 
L 328.791296 192.516352 
L 329.196011 236.92049 
L 329.398368 252.396237 
L 329.803083 262.657787 
L 330.00544 261.698375 
L 330.207797 256.004467 
L 330.814869 206.740693 
L 331.42194 167.926179 
L 331.826655 144.900264 
L 332.029012 141.959455 
L 332.231369 141.980312 
L 332.433726 142.168024 
L 332.636083 144.295421 
L 332.838441 148.904772 
L 333.243155 172.180968 
L 333.445512 181.337105 
L 334.052584 248.07888 
L 334.457298 270.207952 
L 334.659655 275.714145 
L 334.862013 273.273898 
L 335.266727 253.126226 
L 335.671442 228.390056 
L 336.48087 187.656716 
L 336.683228 182.505086 
L 336.885585 181.378817 
L 337.087942 175.10092 
L 337.290299 173.223807 
L 337.695014 179.793702 
L 338.099728 194.476892 
L 338.302085 200.441938 
L 339.111514 267.288 
L 339.313871 273.586754 
L 339.516228 275.860145 
L 339.718586 271.730494 
L 340.1233 248.016308 
L 340.932729 202.861327 
L 342.349229 140.144914 
L 342.551587 140.061489 
L 343.158658 165.131367 
L 343.76573 228.869763 
L 344.170444 247.161181 
L 344.372801 251.999959 
L 344.575159 249.830852 
L 344.777516 242.802108 
L 345.18223 211.433474 
L 346.194016 127.505692 
L 346.598731 112.509648 
L 347.003445 105.793757 
L 347.205802 104.938626 
L 347.40816 108.171435 
L 347.610517 116.138731 
L 348.015231 142.647729 
L 348.82466 235.189374 
L 349.229374 252.563093 
L 349.431732 251.791391 
L 349.634089 245.909773 
L 349.836446 234.605384 
L 351.050589 128.548535 
L 351.455304 109.902545 
L 351.860018 100.913263 
L 352.062375 99.995564 
L 352.264733 103.687222 
L 352.46709 114.949895 
L 353.276519 199.336527 
L 353.681233 237.859045 
L 354.085947 258.361286 
L 354.288305 263.721485 
L 354.490662 264.305472 
L 354.693019 262.032081 
L 355.097733 219.338203 
L 355.704805 144.35799 
L 356.109519 119.267252 
L 356.716591 100.788125 
L 356.918948 99.682708 
L 357.121306 104.563208 
L 357.52602 130.592501 
L 357.728377 143.482003 
L 358.740163 240.466145 
L 359.144878 253.647648 
L 359.347235 255.545617 
L 359.549592 255.211908 
L 359.751949 240.987567 
L 360.763735 118.453841 
L 361.16845 99.077865 
L 361.573164 87.794335 
L 361.775521 85.458376 
L 361.977879 88.795459 
L 362.180236 95.907631 
L 362.58495 122.10378 
L 363.394379 212.267746 
L 363.799093 230.204597 
L 364.001451 231.03887 
L 364.203808 225.052968 
L 364.406165 214.833133 
L 365.013237 144.128565 
L 365.620308 78.513053 
L 366.025023 62.077898 
L 366.429737 55.8 
L 366.632094 56.300562 
L 366.834451 58.99109 
L 367.036809 67.855235 
L 367.441523 97.534467 
L 368.048595 178.500579 
L 368.453309 209.535504 
L 368.655666 218.211936 
L 368.858024 220.631325 
L 369.060381 216.668532 
L 369.262738 206.636409 
L 369.86981 142.02203 
L 370.476881 82.851273 
L 370.881596 65.9364 
L 371.083953 65.47755 
L 371.28631 66.207543 
L 371.488667 70.212051 
L 371.691024 76.552518 
L 372.298096 116.222162 
L 373.107525 202.736186 
L 373.512239 225.365819 
L 373.714597 229.808318 
L 374.119311 229.099188 
L 374.321668 216.126255 
L 375.333454 110.42397 
L 375.738169 96.929611 
L 375.940526 94.176515 
L 376.142883 93.050254 
L 376.34524 98.327016 
L 376.749955 125.044589 
L 377.559383 185.028758 
L 377.964098 220.318472 
L 378.368812 234.375959 
L 378.57117 234.605384 
L 378.773527 228.55691 
L 378.975884 217.127381 
L 380.392384 98.30616 
L 380.797099 88.190616 
L 381.201813 80.452744 
L 381.40417 84.290389 
L 382.011242 122.020349 
L 382.820671 206.469554 
L 383.225385 222.883859 
L 383.427743 223.551277 
L 383.6301 218.107651 
L 384.034814 195.436304 
L 385.0466 120.581232 
L 385.451315 103.562078 
L 385.653672 103.082372 
L 385.856029 106.94088 
L 386.058386 114.72047 
L 387.070172 186.071599 
L 387.474887 226.971793 
L 387.879601 249.288575 
L 388.284316 258.611567 
L 388.68903 261.176951 
L 388.891387 255.316189 
L 389.700816 210.912054 
L 390.307888 199.482524 
L 390.914959 186.488734 
L 391.117316 191.369227 
L 391.926745 231.727145 
L 392.533817 276.7987 
L 392.938531 289.417066 
L 393.140888 291.315038 
L 393.343246 290.856189 
L 393.545603 291.335895 
L 393.74796 282.200612 
L 394.355032 240.215864 
L 395.569175 182.609369 
L 395.771532 176.477469 
L 395.973889 177.70802 
L 396.176247 186.196739 
L 396.783318 229.07833 
L 397.188033 268.372548 
L 397.592747 286.559682 
L 397.795104 289.39621 
L 397.997461 286.809969 
L 398.402176 268.309979 
L 400.628105 138.121804 
L 400.830462 141.0209 
L 401.03282 151.178163 
L 401.639891 209.36865 
L 402.044606 254.607059 
L 402.44932 275.338721 
L 402.651677 279.426659 
L 402.854034 277.737255 
L 403.258749 259.1747 
L 403.663463 230.183741 
L 404.877607 121.999493 
L 405.282321 101.059262 
L 405.484678 96.762762 
L 405.687035 97.868166 
L 405.889393 108.588572 
L 406.294107 146.714806 
L 406.901179 225.699528 
L 407.305893 250.247986 
L 407.50825 255.962751 
L 407.710607 255.420474 
L 408.115322 233.750254 
L 409.73418 98.785865 
L 409.936537 93.759378 
L 410.138894 93.613384 
L 410.341251 98.30616 
L 410.948323 135.139283 
L 411.15068 151.365875 
L 411.757752 223.384423 
L 412.162466 247.932883 
L 412.364823 254.54449 
L 412.56718 256.359032 
L 412.971895 237.942474 
L 414.388395 137.871523 
L 414.79311 124.064321 
L 415.197824 117.264999 
L 415.400181 124.168602 
L 416.20961 187.969568 
L 416.614325 234.104822 
L 417.019039 257.631296 
L 417.221396 261.969512 
L 417.423753 261.406376 
L 417.828468 244.929502 
L 419.244968 145.254832 
L 419.649683 131.385056 
L 419.85204 127.484836 
L 420.054397 128.944809 
L 420.256754 137.767242 
L 421.066183 204.27959 
L 421.673255 260.384396 
L 422.077969 276.756988 
L 422.280326 279.28066 
L 422.482684 278.613242 
L 422.685041 278.446386 
L 423.089755 247.140325 
L 423.899184 176.85289 
L 424.708613 136.849537 
L 424.91097 133.616734 
L 425.113327 137.683811 
L 425.518042 164.255381 
L 425.720399 176.248044 
L 426.529828 252.104243 
L 426.934542 270.979651 
L 427.136899 275.526433 
L 427.339257 276.339851 
L 427.541614 276.569275 
L 427.743971 267.830274 
L 428.148685 226.825795 
L 428.755757 163.942528 
L 429.160471 137.892379 
L 429.565186 129.507946 
L 429.9699 133.491597 
L 430.374615 149.96847 
L 430.576972 161.794278 
L 431.386401 238.985313 
L 431.791115 251.415969 
L 431.993472 249.351144 
L 432.398187 228.723765 
L 433.207616 162.607692 
L 434.017044 91.131418 
L 434.219402 86.1675 
L 435.02883 114.01134 
L 435.433545 139.394071 
L 436.040617 211.704612 
L 436.445331 234.584528 
L 436.647688 239.798727 
L 436.850045 239.110453 
L 437.25476 218.191079 
L 437.659474 182.734511 
L 438.468903 108.129722 
L 438.67126 98.243591 
L 438.873617 99.223858 
L 439.075975 106.440318 
L 439.278332 105.981469 
L 439.480689 108.25486 
L 439.885403 127.088555 
L 440.290118 152.221005 
L 440.897189 226.763225 
L 441.301904 249.413715 
L 441.504261 254.919912 
L 441.706618 255.462189 
L 442.111333 240.507861 
L 442.920762 187.69843 
L 443.527833 152.30443 
L 444.134905 129.215946 
L 444.337262 126.587993 
L 444.539619 133.095316 
L 445.146691 178.834288 
L 445.753762 249.05915 
L 446.158477 270.58337 
L 446.360834 275.609864 
L 446.563191 273.586754 
L 446.967906 254.398491 
L 448.586763 142.960585 
L 448.991478 129.570514 
L 449.193835 127.213699 
L 449.396192 133.971303 
L 450.003264 174.954921 
L 450.812693 256.192176 
L 451.217407 269.686528 
L 451.419764 269.811671 
L 451.824479 252.375381 
L 452.43155 201.213639 
L 453.038622 158.686616 
L 453.443336 141.396325 
L 453.848051 133.408166 
L 454.050408 136.82868 
L 454.252765 146.965093 
L 454.65748 175.789195 
L 454.859837 184.361342 
L 455.669266 250.039418 
L 456.07398 263.784054 
L 456.276337 265.327458 
L 456.478694 263.304348 
L 456.681052 260.154971 
L 456.883409 252.041672 
L 457.288123 224.635831 
L 457.692838 213.519154 
L 457.895195 214.228286 
L 458.299909 220.068191 
L 458.502267 219.922194 
L 458.906981 216.042827 
L 459.109338 216.585105 
L 459.514053 220.798179 
L 459.71641 225.157252 
L 460.728196 283.702304 
L 461.13291 288.186517 
L 461.537625 284.828571 
L 461.739982 275.776714 
L 462.144696 240.778998 
L 463.561197 170.616707 
L 463.763554 163.254254 
L 463.965911 164.443093 
L 464.572983 184.194487 
L 465.382412 252.1251 
L 465.584769 259.132985 
L 465.787126 261.886088 
L 465.989483 259.424981 
L 467.608341 165.56936 
L 468.620127 144.086853 
L 468.822484 147.257086 
L 469.429556 173.870369 
L 470.036627 231.393436 
L 470.441342 249.434572 
L 470.643699 252.104243 
L 470.846056 249.497144 
L 471.857842 197.855694 
L 472.869628 167.175333 
L 473.071985 167.675898 
L 473.274343 165.861354 
L 473.4767 167.133621 
L 473.679057 170.971272 
L 473.881414 177.645448 
L 474.083772 178.813431 
L 474.286129 186.593019 
L 474.8932 239.444162 
L 475.297915 255.921039 
L 475.500272 257.61044 
L 475.702629 255.545617 
L 476.107344 230.830303 
L 476.512058 208.513521 
L 477.321487 176.581753 
L 477.726201 156.142085 
L 477.928558 152.533855 
L 478.333273 157.289208 
L 478.53563 161.815134 
L 479.142702 187.093582 
L 479.952131 255.816754 
L 480.356845 265.807164 
L 480.559202 265.390027 
L 480.963917 242.98982 
L 482.785131 112.801642 
L 482.987489 106.815743 
L 483.189846 104.146071 
L 483.392203 109.860833 
L 483.999275 150.28132 
L 484.606346 222.383296 
L 485.011061 245.930629 
L 485.213418 250.393986 
L 485.415775 251.353397 
L 485.82049 231.310008 
L 486.225204 199.670236 
L 487.23699 108.442572 
L 487.439347 105.314051 
L 487.844062 111.967374 
L 488.248776 130.842782 
L 489.260562 209.452077 
L 489.665277 242.051262 
L 490.069991 257.360159 
L 490.272348 259.737834 
L 490.474705 258.59071 
L 490.677063 256.797025 
L 490.87942 246.931756 
L 491.891206 166.111638 
L 492.29592 148.153929 
L 492.498277 140.666332 
L 492.700635 138.622366 
L 492.902992 140.270057 
L 493.105349 145.150545 
L 493.712421 179.126284 
L 494.52185 252.104243 
L 495.128921 270.625083 
L 495.331278 270.771083 
L 495.533636 270.145377 
L 495.735993 262.49093 
L 496.950136 169.740721 
L 497.557208 145.046264 
L 497.759565 141.646606 
L 497.961922 144.900264 
L 498.568994 176.832034 
L 499.378422 251.645394 
L 499.58078 258.569851 
L 499.783137 261.093526 
L 499.985494 257.73558 
L 500.187851 249.100863 
L 500.794923 211.683755 
L 500.99728 206.511268 
L 501.401995 193.24634 
L 501.806709 181.837668 
L 502.009066 181.378817 
L 502.211423 183.464499 
L 502.413781 184.111059 
L 502.616138 182.421658 
L 503.020852 192.266069 
L 503.223209 192.829203 
L 503.425567 200.441938 
L 504.032638 251.812247 
L 504.437353 265.056321 
L 504.63971 266.704006 
L 504.842067 264.305472 
L 505.246782 239.611018 
L 505.651496 215.479694 
L 507.270354 141.354612 
L 507.472711 138.205235 
L 507.675068 141.646606 
L 508.28214 170.053574 
L 508.889211 228.848905 
L 509.293926 246.201766 
L 509.496283 249.768281 
L 509.69864 247.912027 
L 510.103354 224.051841 
L 511.722212 116.263875 
L 512.126927 98.264447 
L 512.329284 99.870426 
L 512.936355 134.701289 
L 513.34107 174.162362 
L 513.745784 218.211936 
L 514.150499 241.237848 
L 514.352856 246.89004 
L 514.555213 247.390606 
L 514.75757 238.380467 
L 516.174071 140.332626 
L 516.376428 139.227215 
L 516.781142 148.675347 
L 516.9835 145.901394 
L 517.185857 146.443668 
L 517.590571 164.380521 
L 517.792928 168.677025 
L 517.995286 179.522562 
L 518.4 219.713625 
L 518.4 219.713625 
" clip-path="url(#p987386f948)" style="fill: none; stroke: #1f77b4; stroke-width: 1.5; stroke-linecap: square"/>
   </g>
   <g id="line2d_14">
    <path d="M 72 202.859313 
L 72.202357 282.930291 
L 72.404714 293.773692 
L 72.607072 297.003418 
L 72.809429 288.307704 
L 73.4165 240.969273 
L 73.618858 242.829741 
L 75.035358 159.326409 
L 75.237715 157.998772 
L 75.440073 158.881151 
L 75.844787 179.914328 
L 76.047144 178.009803 
L 76.654216 255.845591 
L 76.856573 271.168799 
L 77.05893 276.603689 
L 77.261287 288.75173 
L 77.666002 279.7703 
L 78.070716 239.18148 
L 78.475431 231.374508 
L 78.880145 212.110649 
L 79.284859 181.960925 
L 79.689574 158.190328 
L 79.891931 152.78432 
L 80.094288 150.487113 
L 80.296646 159.835479 
L 80.70136 181.795288 
L 80.903717 189.468489 
L 81.510789 254.704701 
L 81.915503 280.343331 
L 82.11786 281.785313 
L 82.320218 287.645961 
L 82.927289 276.566573 
L 83.129646 265.09472 
L 83.332004 244.843132 
L 83.534361 244.472055 
L 83.939075 228.878474 
L 84.34379 233.974407 
L 84.546147 241.038556 
L 84.950861 246.294701 
L 85.153218 246.011715 
L 85.355576 251.644859 
L 85.557933 252.82744 
L 85.76029 245.345517 
L 86.367362 287.957871 
L 86.569719 299.726574 
L 86.772076 301.818224 
L 86.974433 307.8 
L 87.176791 304.898894 
L 87.379148 303.60561 
L 87.581505 301.111492 
L 87.986219 285.513337 
L 88.188577 268.09385 
L 88.593291 261.136462 
L 88.795648 260.685906 
L 88.998005 257.362878 
L 89.200363 259.507363 
L 89.605077 250.774244 
L 90.009791 235.091615 
L 90.212149 240.659961 
L 90.616863 233.98757 
L 91.426292 302.000256 
L 91.628649 302.582452 
L 91.831006 306.271411 
L 92.235721 297.236489 
L 92.640435 253.699061 
L 92.842792 250.537012 
L 93.04515 252.422842 
L 93.652221 240.275257 
L 93.854578 243.475075 
L 94.056936 237.762229 
L 94.259293 240.68531 
L 94.46165 236.507704 
L 94.664007 227.287983 
L 95.271079 236.645236 
L 95.473436 226.83694 
L 96.080508 289.053869 
L 96.282865 302.027727 
L 96.485222 300.343254 
L 96.687579 302.838735 
L 96.889937 303.471546 
L 97.092294 292.160901 
L 97.497008 252.867328 
L 97.699365 248.501886 
L 97.901723 251.138555 
L 98.10408 243.750574 
L 98.306437 242.854981 
L 98.508794 240.280509 
L 98.711151 242.703968 
L 98.913509 234.821764 
L 99.115866 235.448541 
L 99.52058 223.14846 
L 99.722937 223.905725 
L 100.127652 233.973903 
L 100.330009 226.175505 
L 100.937081 286.287503 
L 101.139438 299.809541 
L 101.544152 303.885723 
L 101.74651 301.891917 
L 101.948867 293.412269 
L 102.353581 250.154145 
L 102.555938 251.221831 
L 102.758296 253.331398 
L 102.960653 245.240208 
L 103.16301 243.319824 
L 103.365367 244.889521 
L 104.377153 217.818606 
L 104.57951 218.017607 
L 104.781868 222.852788 
L 104.984225 230.646927 
L 105.186582 225.023829 
L 105.996011 296.717146 
L 106.198368 300.3129 
L 106.400725 301.330177 
L 106.603083 300.95734 
L 106.80544 291.051726 
L 107.210154 251.983203 
L 107.412511 245.863341 
L 107.614869 247.620091 
L 107.817226 244.871659 
L 108.22194 234.482911 
L 108.829012 204.958119 
L 109.031369 203.368456 
L 109.233726 204.390279 
L 109.436083 210.532744 
L 109.638441 210.172767 
L 110.245512 238.38766 
L 110.650227 281.358918 
L 111.054941 297.272522 
L 111.257298 297.400368 
L 111.459655 296.848704 
L 111.662013 291.468309 
L 112.066727 250.902836 
L 112.471442 240.835544 
L 112.876156 220.047597 
L 113.078513 216.701786 
L 113.28087 201.345924 
L 113.483228 195.841211 
L 114.090299 172.02716 
L 114.292656 174.438949 
L 114.697371 201.576568 
L 114.899728 198.99902 
L 115.304442 245.12432 
L 115.709157 279.093388 
L 115.911514 282.299346 
L 116.316228 292.147779 
L 116.518586 285.120886 
L 116.720943 282.907566 
L 116.9233 276.985707 
L 117.732729 208.718903 
L 118.542158 155.395194 
L 118.946872 140.936203 
L 119.149229 143.593786 
L 119.351587 153.703726 
L 119.553944 171.877631 
L 119.756301 177.400022 
L 120.56573 262.888842 
L 121.172801 282.606044 
L 121.375159 282.616971 
L 121.577516 281.685358 
L 121.779873 276.261663 
L 122.791659 212.332549 
L 123.196374 198.535647 
L 123.398731 192.972701 
L 123.601088 192.219152 
L 123.803445 197.596518 
L 124.005802 196.084795 
L 124.20816 208.414761 
L 124.410517 212.618354 
L 124.612874 214.031855 
L 125.422303 286.431128 
L 125.62466 293.18512 
L 126.029374 292.448836 
L 126.231732 285.307552 
L 126.636446 245.053259 
L 127.243518 225.058861 
L 128.457661 146.747801 
L 128.660018 146.059309 
L 128.862375 151.891807 
L 129.26709 189.485407 
L 129.671804 227.234211 
L 130.076519 271.468309 
L 130.481233 286.048918 
L 130.68359 291.784433 
L 131.088305 280.311084 
L 131.493019 239.063538 
L 132.302448 196.59443 
L 133.111877 140.208493 
L 133.516591 125.426151 
L 133.921306 145.946742 
L 134.32602 163.508268 
L 134.730734 230.525706 
L 135.135449 265.387475 
L 135.337806 267.981413 
L 135.540163 273.952916 
L 135.74252 272.99497 
L 135.944878 266.163569 
L 136.551949 215.687504 
L 136.754306 213.776505 
L 136.956664 195.037528 
L 137.159021 217.378965 
L 137.361378 187.849934 
L 137.563735 197.725807 
L 137.766092 193.92509 
L 137.96845 192.459473 
L 138.170807 198.440275 
L 138.373164 191.12594 
L 138.575521 192.607762 
L 138.777879 203.073385 
L 138.980236 203.879394 
L 139.182593 203.592949 
L 139.789665 267.838382 
L 140.194379 284.057847 
L 140.396736 286.430711 
L 140.599093 284.849742 
L 140.801451 277.085158 
L 141.408522 226.698152 
L 141.610879 224.353249 
L 142.015594 212.686629 
L 142.217951 214.677964 
L 142.622665 208.584376 
L 142.825023 206.90187 
L 143.02738 209.654858 
L 143.229737 207.475567 
L 143.432094 210.83506 
L 143.634451 217.172735 
L 143.836809 215.956613 
L 144.039166 213.400252 
L 144.646238 269.523964 
L 144.848595 279.642738 
L 145.050952 283.590728 
L 145.253309 284.078807 
L 145.455666 283.263386 
L 145.658024 275.732115 
L 146.265095 222.404578 
L 146.467452 223.530153 
L 146.66981 219.108042 
L 146.872167 211.755793 
L 147.074524 214.339572 
L 147.276881 213.938383 
L 147.479238 201.717647 
L 147.681596 204.121387 
L 147.883953 223.031185 
L 148.08631 212.86385 
L 148.491024 229.383182 
L 148.693382 229.209166 
L 148.895739 224.966251 
L 149.300453 257.970092 
L 149.705168 284.290167 
L 149.907525 285.887814 
L 150.109882 290.5697 
L 150.312239 289.237084 
L 150.716954 281.597633 
L 151.121668 261.754236 
L 151.526383 236.067109 
L 151.72874 233.25152 
L 151.931097 232.561705 
L 152.133454 230.94472 
L 152.335811 233.324228 
L 152.538169 237.83095 
L 152.740526 236.986311 
L 152.942883 234.116382 
L 153.14524 238.092407 
L 153.347597 235.185202 
L 153.549955 236.740878 
L 153.752312 231.369276 
L 153.954669 238.638753 
L 154.359383 268.069999 
L 154.764098 284.420708 
L 155.168812 290.199949 
L 155.37117 288.654005 
L 155.573527 282.413849 
L 155.775884 282.88271 
L 156.585313 208.730571 
L 156.990027 188.918571 
L 157.192384 182.760497 
L 157.394742 168.9255 
L 157.597099 166.047413 
L 158.001813 154.335544 
L 158.406528 174.356073 
L 158.608885 177.414227 
L 159.418314 265.640734 
L 159.823028 277.907563 
L 160.025385 275.9854 
L 160.227743 271.049177 
L 160.834814 220.02378 
L 161.037171 213.434616 
L 161.239529 199.631532 
L 162.251315 172.870371 
L 162.453672 171.46343 
L 162.858386 181.054712 
L 163.263101 200.433182 
L 163.465458 200.28366 
L 164.274887 279.814635 
L 164.679601 290.423364 
L 165.084316 277.446014 
L 165.286673 261.33734 
L 165.48903 235.737012 
L 166.096102 219.423879 
L 166.298459 218.172849 
L 166.90553 185.891928 
L 167.107888 167.238232 
L 167.310245 162.977139 
L 167.512602 165.270428 
L 167.714959 173.186083 
L 167.917316 191.496754 
L 168.119674 196.535222 
L 168.322031 198.266934 
L 169.13146 273.671336 
L 169.333817 278.625191 
L 169.738531 281.722008 
L 170.143246 254.25573 
L 170.54796 215.888888 
L 170.750317 208.196769 
L 171.357389 174.936356 
L 171.559746 167.929718 
L 171.762103 165.324057 
L 171.964461 153.557521 
L 172.369175 145.118677 
L 172.773889 165.849655 
L 173.380961 209.149618 
L 173.785675 265.528791 
L 174.19039 285.678337 
L 174.392747 286.153206 
L 174.595104 285.471501 
L 174.797461 279.053446 
L 175.404533 227.140547 
L 175.60689 225.702776 
L 176.213962 193.553298 
L 176.416319 187.64586 
L 176.821034 170.414054 
L 177.225748 154.232906 
L 177.428105 165.600368 
L 177.630462 170.050259 
L 177.83282 197.617999 
L 178.035177 184.672067 
L 178.439891 249.010499 
L 178.844606 282.647228 
L 179.24932 291.965417 
L 179.451677 291.471725 
L 179.856392 268.749123 
L 180.261106 235.99182 
L 180.463463 228.227628 
L 181.070535 186.525037 
L 181.879964 146.105095 
L 182.082321 141.31473 
L 182.284678 143.267298 
L 183.094107 198.12331 
L 183.498821 241.926954 
L 183.903536 262.374558 
L 184.105893 268.800706 
L 184.30825 269.160567 
L 184.510607 268.861571 
L 184.712965 268.354139 
L 184.915322 258.888602 
L 185.927108 157.899546 
L 186.129465 145.542899 
L 186.331822 145.670191 
L 186.53418 140.38305 
L 186.938894 151.86269 
L 187.141251 163.624529 
L 187.343608 168.168303 
L 187.545966 184.709483 
L 187.748323 186.519215 
L 187.95068 199.402679 
L 188.355394 238.108714 
L 188.557752 253.323751 
L 188.962466 264.909263 
L 189.164823 267.837867 
L 189.771895 261.482958 
L 190.783681 168.760818 
L 190.986038 156.224718 
L 191.390752 151.31207 
L 191.795467 164.541758 
L 191.997824 170.670397 
L 192.402539 191.241978 
L 192.604896 193.830449 
L 192.807253 207.930509 
L 193.211967 245.118967 
L 193.616682 267.491531 
L 193.819039 272.151514 
L 194.021396 274.083457 
L 194.223753 270.757983 
L 194.426111 265.069574 
L 194.628468 264.377587 
L 195.437897 197.048418 
L 195.640254 188.237687 
L 195.842611 189.307797 
L 196.247325 200.217742 
L 196.449683 203.544957 
L 196.854397 204.130014 
L 197.056754 214.39648 
L 197.259112 215.46172 
L 197.461469 214.495823 
L 198.270898 278.093669 
L 198.473255 280.476909 
L 198.675612 287.120601 
L 199.080326 273.721498 
L 199.687398 220.684153 
L 199.889755 218.336484 
L 200.29447 199.307121 
L 200.901541 176.074995 
L 201.306256 160.363107 
L 201.508613 158.835328 
L 201.71097 160.87292 
L 202.115684 181.35019 
L 202.318042 182.854381 
L 202.520399 201.587417 
L 202.925113 252.097592 
L 203.329828 271.035612 
L 203.532185 272.10114 
L 203.734542 270.365781 
L 203.936899 262.62792 
L 204.543971 208.851415 
L 204.746328 206.522592 
L 205.758114 168.039916 
L 205.960471 165.254707 
L 206.162829 166.262355 
L 206.567543 171.713619 
L 206.7699 183.086695 
L 206.972257 186.660124 
L 207.174615 188.224084 
L 207.984044 263.915869 
L 208.186401 269.327956 
L 208.388758 271.532475 
L 208.591115 271.781976 
L 208.793472 261.836685 
L 209.400544 209.085342 
L 209.602901 208.497781 
L 209.805258 195.616311 
L 210.007616 191.916324 
L 210.614687 154.318929 
L 211.019402 133.154774 
L 211.221759 128.052338 
L 211.82883 169.450727 
L 212.031188 169.913065 
L 212.638259 242.93963 
L 213.042974 263.34644 
L 213.245331 264.203204 
L 213.447688 265.969252 
L 213.650045 258.00013 
L 214.257117 205.790076 
L 214.661831 184.736351 
L 215.268903 140.828416 
L 215.673617 115.864104 
L 216.078332 106.016821 
L 216.280689 112.278036 
L 216.483046 122.417376 
L 216.685403 143.688463 
L 216.887761 151.236665 
L 217.090118 166.3832 
L 217.494832 219.492779 
L 217.899547 249.777719 
L 218.304261 259.197862 
L 218.708976 256.559333 
L 218.911333 252.144307 
L 219.518404 189.915918 
L 219.923119 164.101045 
L 220.327833 146.406713 
L 220.732548 158.922671 
L 221.339619 196.090239 
L 221.541976 204.547789 
L 221.744334 206.536356 
L 221.946691 213.328923 
L 222.351405 249.644919 
L 222.75612 269.643818 
L 223.160834 274.319007 
L 223.565549 271.34925 
L 223.767906 267.566965 
L 224.374977 219.921413 
L 224.982049 212.200635 
L 225.184406 218.573836 
L 225.386763 218.264449 
L 225.589121 220.509877 
L 225.791478 228.056237 
L 225.993835 225.855764 
L 226.398549 239.229847 
L 226.600907 233.645702 
L 227.410335 293.275162 
L 227.612693 298.737237 
L 227.81505 299.468502 
L 228.017407 298.933314 
L 228.219764 291.115304 
L 228.624479 256.498495 
L 229.029193 246.748479 
L 229.23155 246.678098 
L 230.648051 183.396951 
L 230.850408 181.432916 
L 231.255122 197.126928 
L 231.659837 219.330446 
L 232.064551 272.877558 
L 232.469266 289.545108 
L 232.671623 292.355696 
L 232.87398 290.87761 
L 233.076337 285.985518 
L 233.683409 236.691753 
L 233.885766 233.001824 
L 234.492838 207.105004 
L 235.302267 176.475252 
L 235.504624 177.423089 
L 235.706981 180.413535 
L 236.111695 200.672168 
L 236.314053 202.757446 
L 236.51641 219.225862 
L 236.921124 268.329266 
L 237.325839 286.74582 
L 237.528196 286.91648 
L 237.730553 288.321137 
L 237.93291 280.327639 
L 238.539982 234.398617 
L 238.742339 230.359126 
L 239.147053 212.166595 
L 239.349411 209.25838 
L 239.551768 200.250494 
L 240.15884 191.339208 
L 240.361197 186.051806 
L 240.765911 201.552169 
L 240.968268 216.240646 
L 241.170626 217.956199 
L 241.372983 228.103229 
L 241.777697 273.419019 
L 242.182412 290.77594 
L 242.384769 293.607867 
L 242.587126 292.536466 
L 242.789483 284.166372 
L 243.396555 243.778703 
L 243.598912 238.574755 
L 244.205984 208.55014 
L 244.610698 193.325949 
L 245.21777 170.680074 
L 245.420127 175.798663 
L 246.229556 214.317724 
L 246.63427 265.025611 
L 247.038985 286.833916 
L 247.241342 290.129604 
L 247.443699 288.184742 
L 247.646056 280.870388 
L 249.264914 161.091509 
L 249.669628 144.057621 
L 249.871985 138.843105 
L 250.074343 143.494377 
L 250.2767 144.752417 
L 251.086129 192.204702 
L 251.490843 240.735784 
L 251.895558 265.721723 
L 252.300272 270.614306 
L 252.502629 270.829328 
L 252.704986 267.152526 
L 252.907344 259.378505 
L 253.91913 157.329619 
L 254.526201 141.580957 
L 254.930916 137.932443 
L 255.133273 140.177736 
L 256.752131 268.271647 
L 257.359202 275.396068 
L 257.561559 273.80699 
L 257.763917 270.038911 
L 258.370988 210.050097 
L 258.97806 172.86521 
L 259.382774 162.121167 
L 259.585131 163.092481 
L 259.787489 160.436494 
L 259.989846 164.179224 
L 260.192203 170.195671 
L 260.596917 191.484249 
L 260.799275 208.073463 
L 261.203989 256.308755 
L 261.406346 268.34132 
L 261.608704 270.845076 
L 261.811061 281.946905 
L 262.215775 272.331786 
L 262.822847 228.269401 
L 263.025204 226.766463 
L 263.227561 221.268014 
L 263.429918 220.404121 
L 263.632276 221.583532 
L 263.834633 224.034291 
L 264.03699 224.68368 
L 264.239347 224.91284 
L 264.441704 228.276021 
L 264.644062 227.862904 
L 264.846419 228.333025 
L 265.251133 238.764226 
L 265.45349 234.84472 
L 265.655848 244.451712 
L 265.858205 268.371062 
L 266.262919 289.334221 
L 266.667634 297.135843 
L 266.869991 295.184221 
L 267.274705 275.721543 
L 267.477063 253.999912 
L 268.084134 234.275926 
L 268.488849 222.773243 
L 268.691206 221.098003 
L 269.09592 214.435934 
L 269.500635 210.65344 
L 269.702992 210.380711 
L 270.107706 219.867565 
L 270.310063 217.503869 
L 270.512421 230.278724 
L 270.917135 268.332889 
L 271.119492 279.74464 
L 271.524207 284.53652 
L 271.726564 284.483619 
L 271.928921 278.485643 
L 272.333636 244.81985 
L 272.535993 232.575124 
L 272.73835 227.951001 
L 272.940707 209.627371 
L 273.143064 201.993157 
L 273.750136 155.492099 
L 273.952493 155.467199 
L 274.15485 148.364262 
L 274.357208 136.637967 
L 274.559565 134.889494 
L 274.964279 156.044102 
L 275.166636 161.375824 
L 275.368994 175.863639 
L 275.773708 223.512332 
L 275.976065 250.716648 
L 276.178422 251.475601 
L 276.583137 258.757004 
L 276.785494 250.709465 
L 277.79728 178.348989 
L 277.999637 169.399614 
L 278.201995 155.29799 
L 278.404352 154.044406 
L 278.606709 135.636907 
L 278.809066 144.825008 
L 279.011423 130.960434 
L 279.213781 130.379542 
L 279.416138 134.297257 
L 279.618495 141.813632 
L 280.023209 179.524384 
L 280.225567 188.155062 
L 280.630281 247.210489 
L 281.034995 271.735165 
L 281.237353 274.689263 
L 281.43971 275.950575 
L 281.844424 258.366936 
L 282.653853 197.032883 
L 283.260925 173.690295 
L 283.867996 150.431781 
L 284.070354 149.355351 
L 284.272711 151.738948 
L 285.891568 280.887603 
L 286.093926 284.16311 
L 286.296283 289.933935 
L 286.49864 286.294549 
L 286.903354 277.086804 
L 287.510426 216.886822 
L 288.117498 178.258753 
L 288.724569 153.119066 
L 288.926927 149.297604 
L 289.129284 152.736679 
L 289.331641 161.035128 
L 289.736355 192.125119 
L 289.938713 197.721298 
L 290.343427 244.784188 
L 290.748141 267.835667 
L 290.950499 272.808271 
L 291.152856 274.578149 
L 291.355213 274.057945 
L 291.759927 267.234106 
L 292.771714 162.49265 
L 293.176428 136.64305 
L 293.378785 135.2738 
L 293.581142 129.961798 
L 293.7835 127.761939 
L 293.985857 130.617127 
L 294.188214 138.762496 
L 294.592928 159.265208 
L 294.795286 167.640754 
L 295.2 225.342123 
L 295.604714 250.471137 
L 295.807072 256.138058 
L 296.009429 256.043465 
L 296.211786 250.610213 
L 297.021215 175.773945 
L 297.830644 97.867603 
L 298.033001 86.671742 
L 298.235358 86.773025 
L 298.437715 83.056577 
L 298.640073 84.085189 
L 299.044787 91.79812 
L 299.651859 134.577249 
L 300.056573 198.458655 
L 300.461287 225.978259 
L 300.866002 231.993185 
L 301.068359 226.758848 
L 301.473073 196.696607 
L 302.484859 88.441784 
L 302.687217 74.105679 
L 302.889574 67.782043 
L 303.294288 92.944294 
L 303.496646 91.91065 
L 304.103717 130.355451 
L 304.508432 160.296044 
L 304.913146 212.673706 
L 305.31786 240.821744 
L 305.722575 244.865605 
L 306.127289 223.996602 
L 307.341432 134.373466 
L 307.948504 107.974189 
L 308.96029 158.404596 
L 309.365005 189.797496 
L 309.769719 238.162309 
L 310.174433 256.553115 
L 310.376791 260.354367 
L 310.579148 260.545546 
L 310.781505 254.963253 
L 312.400363 120.060831 
L 312.60272 119.321436 
L 312.805077 119.101039 
L 313.007434 114.382683 
L 313.412149 128.070895 
L 313.816863 155.07212 
L 314.01922 156.966571 
L 314.828649 238.480611 
L 315.031006 245.950729 
L 315.435721 250.272444 
L 315.638078 243.615366 
L 316.24515 205.207793 
L 316.649864 197.344329 
L 317.054578 181.14286 
L 317.256936 175.21113 
L 317.459293 176.995467 
L 317.66165 172.624881 
L 317.864007 176.222983 
L 318.066364 176.79016 
L 318.268722 175.974782 
L 318.673436 196.425742 
L 318.875793 197.594623 
L 319.685222 262.816681 
L 320.089937 274.842559 
L 320.292294 275.516306 
L 320.494651 273.944891 
L 320.697008 264.883972 
L 320.899365 261.524162 
L 321.506437 216.191975 
L 322.113509 171.68989 
L 322.315866 168.061891 
L 322.518223 154.225174 
L 322.72058 154.50553 
L 323.125295 151.676193 
L 323.732366 186.768552 
L 323.934723 191.086302 
L 324.339438 234.333551 
L 324.744152 260.77351 
L 324.94651 262.354822 
L 325.148867 269.386099 
L 325.553581 263.84417 
L 325.755938 259.704103 
L 326.767724 150.203498 
L 327.172439 130.452493 
L 327.374796 130.784211 
L 327.577153 133.950599 
L 327.77951 130.022485 
L 327.981868 129.38088 
L 328.791296 186.293285 
L 329.196011 238.23332 
L 329.600725 263.481498 
L 329.803083 261.235137 
L 330.00544 262.856396 
L 330.207797 256.996265 
L 330.410154 246.071286 
L 331.017226 191.374376 
L 331.42194 166.548208 
L 332.029012 139.127099 
L 332.433726 143.724353 
L 332.636083 145.407406 
L 333.040798 157.661345 
L 333.243155 178.863855 
L 333.445512 182.592196 
L 333.647869 192.370603 
L 333.850227 230.632976 
L 334.457298 271.17462 
L 334.659655 273.294846 
L 334.862013 276.611581 
L 335.469084 239.448797 
L 335.671442 221.446457 
L 335.873799 217.449483 
L 336.278513 192.113248 
L 336.48087 188.220947 
L 336.683228 178.35171 
L 336.885585 178.487967 
L 337.087942 181.583178 
L 337.290299 170.21709 
L 337.695014 184.275741 
L 337.897371 184.734069 
L 338.099728 201.97934 
L 338.302085 201.545722 
L 338.504442 208.977496 
L 338.909157 256.116291 
L 339.313871 274.768051 
L 339.516228 276.625838 
L 339.718586 275.240641 
L 340.1233 251.478116 
L 340.528015 222.533003 
L 340.932729 204.901639 
L 341.135086 190.081721 
L 341.539801 179.950426 
L 341.742158 160.282698 
L 342.146872 148.056665 
L 342.349229 141.489276 
L 342.753944 145.715025 
L 342.956301 162.891941 
L 343.158658 166.596708 
L 343.361015 176.258214 
L 343.563373 212.657317 
L 344.170444 249.148437 
L 344.372801 250.359857 
L 344.575159 254.491811 
L 344.979873 233.589706 
L 346.194016 127.985876 
L 346.598731 110.868492 
L 346.801088 112.152185 
L 347.003445 108.247353 
L 347.205802 108.727278 
L 347.40816 110.487168 
L 347.610517 117.278892 
L 348.217588 156.770155 
L 348.622303 216.746245 
L 349.027017 245.420403 
L 349.229374 248.866598 
L 349.431732 255.07613 
L 350.038803 220.102169 
L 350.443518 174.889711 
L 350.645875 162.623788 
L 350.848232 139.772164 
L 351.657661 105.72466 
L 351.860018 105.130278 
L 352.062375 102.882485 
L 352.264733 105.888896 
L 352.46709 114.199669 
L 353.074161 163.759177 
L 353.478876 222.124728 
L 353.88359 248.001181 
L 354.288305 261.662035 
L 354.490662 261.945683 
L 354.895376 252.917155 
L 355.704805 140.07366 
L 356.109519 116.382816 
L 356.716591 103.267862 
L 356.918948 102.527952 
L 357.121306 106.197515 
L 357.52602 130.833076 
L 358.740163 241.213837 
L 358.94252 248.631441 
L 359.144878 250.093353 
L 359.347235 254.278126 
L 359.751949 247.836921 
L 360.763735 116.781773 
L 361.16845 95.261372 
L 361.370807 96.355641 
L 361.775521 88.334541 
L 361.977879 90.990275 
L 362.382593 109.208224 
L 362.989665 173.059735 
L 363.394379 214.321425 
L 363.799093 230.869107 
L 364.001451 233.377933 
L 364.203808 227.530031 
L 364.608522 202.003933 
L 365.417951 94.467467 
L 365.822665 66.128122 
L 366.025023 60.289694 
L 366.22738 60.793405 
L 366.429737 59.203056 
L 366.632094 58.97283 
L 367.036809 68.645167 
L 367.64388 114.049236 
L 368.048595 177.954757 
L 368.453309 209.416953 
L 368.655666 217.373732 
L 368.858024 220.810003 
L 369.060381 216.908539 
L 369.465095 192.061373 
L 370.274524 95.459175 
L 370.476881 78.228765 
L 371.083953 63.301031 
L 371.28631 69.186802 
L 371.488667 70.685126 
L 371.893382 88.399839 
L 372.500453 131.37239 
L 372.905168 186.881562 
L 373.512239 226.189475 
L 373.916954 228.030463 
L 374.119311 222.856334 
L 374.321668 221.93917 
L 375.333454 105.710682 
L 375.738169 94.865854 
L 375.940526 93.57462 
L 376.34524 96.045308 
L 376.749955 123.774872 
L 377.154669 154.60386 
L 377.559383 181.2502 
L 377.964098 221.608978 
L 378.368812 234.637864 
L 378.57117 235.25354 
L 378.773527 230.587835 
L 379.178241 203.293747 
L 379.98767 121.673371 
L 380.594742 92.04628 
L 380.797099 89.815986 
L 380.999456 88.960851 
L 381.201813 84.455201 
L 381.40417 84.953911 
L 381.606528 95.460745 
L 382.011242 126.477774 
L 382.213599 135.924184 
L 382.618314 191.451507 
L 383.023028 218.011827 
L 383.427743 224.25453 
L 383.6301 219.423851 
L 384.237171 179.664026 
L 384.237171 179.664026 
" clip-path="url(#p987386f948)" style="fill: none; stroke: #ff7f0e; stroke-width: 1.5; stroke-linecap: square"/>
   </g>
   <g id="line2d_15">
    <path d="M 384.439529 161.77566 
L 385.248957 96.732223 
L 385.653672 82.716404 
L 385.856029 82.660451 
L 386.058386 87.342445 
L 386.463101 109.32363 
L 387.879601 217.67223 
L 388.081958 223.00901 
L 388.284316 223.787257 
L 388.486673 220.006682 
L 388.891387 200.289666 
L 390.307888 100.580138 
L 390.510245 96.023485 
L 390.712602 95.840558 
L 390.914959 100.035168 
L 391.319674 120.109209 
L 392.736174 220.090651 
L 392.938531 225.08668 
L 393.140888 225.878129 
L 393.343246 222.457998 
L 393.74796 204.36157 
L 395.164461 112.001518 
L 395.366818 107.679315 
L 395.569175 107.3915 
L 395.771532 111.148059 
L 396.176247 129.481971 
L 397.592747 221.753971 
L 397.795104 226.432027 
L 397.997461 227.232106 
L 398.199819 224.141528 
L 398.604533 207.537749 
L 400.021034 122.003332 
L 400.223391 117.9085 
L 400.425748 117.534891 
L 400.628105 120.897698 
L 401.03282 137.643462 
L 402.44932 222.809984 
L 402.651677 227.191041 
L 402.854034 227.995478 
L 403.056392 225.205849 
L 403.461106 209.976191 
L 404.877607 130.778298 
L 405.079964 126.903156 
L 405.282321 126.460241 
L 405.484678 129.46909 
L 405.889393 144.765081 
L 407.305893 223.38106 
L 407.50825 227.484483 
L 407.710607 228.289339 
L 407.912965 225.774224 
L 408.317679 211.808974 
L 409.73418 138.491332 
L 409.936537 134.82778 
L 410.138894 134.329772 
L 410.341251 137.020436 
L 410.745966 150.992697 
L 412.162466 223.568297 
L 412.364823 227.412004 
L 412.56718 228.21369 
L 412.769538 225.948701 
L 413.174252 213.1464 
L 414.590752 145.283715 
L 414.79311 141.823381 
L 414.995467 141.28251 
L 415.197824 143.687152 
L 415.602539 156.45055 
L 417.221396 227.05562 
L 417.423753 227.850899 
L 417.626111 225.813574 
L 418.030825 214.080469 
L 418.840254 174.27525 
L 419.244968 157.02225 
L 419.649683 148.010973 
L 419.85204 147.43774 
L 420.054397 149.585294 
L 420.459112 161.244551 
L 421.26854 200.324725 
L 421.875612 223.109665 
L 422.077969 226.482617 
L 422.280326 227.268607 
L 422.482684 225.438288 
L 422.887398 214.687807 
L 423.696827 177.948029 
L 424.101541 161.936531 
L 424.506256 153.494543 
L 424.708613 152.897939 
L 424.91097 154.814443 
L 425.315684 165.465068 
L 426.125113 201.467254 
L 426.732185 222.58834 
L 426.934542 225.748006 
L 427.136899 226.522165 
L 427.339257 224.87988 
L 427.743971 215.032137 
L 428.5534 181.125863 
L 429.160471 161.265475 
L 429.362829 158.363566 
L 429.565186 157.751265 
L 429.767543 159.460155 
L 430.172257 169.189285 
L 430.981686 202.357167 
L 431.588758 221.936791 
L 431.791115 224.896566 
L 431.993472 225.656684 
L 432.19583 224.185031 
L 432.600544 215.166354 
L 433.409973 183.878645 
L 434.017044 165.42788 
L 434.219402 162.695133 
L 434.421759 162.073663 
L 434.624116 163.596039 
L 435.02883 172.483197 
L 435.838259 203.040869 
L 436.445331 221.192189 
L 436.647688 223.964578 
L 436.850045 224.708753 
L 437.052403 223.391791 
L 437.457117 215.134279 
L 438.266546 186.266029 
L 438.873617 169.127635 
L 439.075975 166.555765 
L 439.278332 165.930655 
L 439.480689 167.285516 
L 439.885403 175.403299 
L 440.694832 203.556892 
L 441.301904 220.38457 
L 441.504261 222.981257 
L 441.706618 223.707881 
L 441.908976 222.531024 
L 442.31369 214.972123 
L 442.920762 195.340298 
L 443.527833 176.479775 
L 443.932548 170.002951 
L 444.134905 169.378856 
L 444.337262 170.583316 
L 444.741976 177.99801 
L 445.349048 197.115755 
L 445.95612 215.53349 
L 446.360834 221.969972 
L 446.563191 222.677708 
L 446.765549 221.627621 
L 447.170263 214.709737 
L 447.777335 196.6152 
L 448.384406 179.142883 
L 448.789121 173.086449 
L 448.991478 172.467269 
L 449.193835 173.536739 
L 449.598549 180.308887 
L 450.205621 197.907776 
L 450.812693 214.947215 
L 451.217407 220.94925 
L 451.419764 221.637011 
L 451.622121 220.701519 
L 452.026836 214.371646 
L 452.633908 197.695609 
L 453.240979 181.511016 
L 453.645694 175.849399 
L 453.848051 175.238372 
L 454.050408 176.186738 
L 454.455122 182.371643 
L 455.062194 198.57246 
L 455.669266 214.33693 
L 456.07398 219.93363 
L 456.276337 220.600558 
L 456.478694 219.768555 
L 456.681052 217.506033 
L 457.085766 209.43387 
L 458.299909 180.336184 
L 458.502267 178.329268 
L 458.704624 177.729062 
L 458.906981 178.568829 
L 459.311695 184.217021 
L 459.918767 199.13087 
L 460.525839 213.715871 
L 460.930553 218.934365 
L 461.13291 219.57981 
L 461.335267 218.841175 
L 461.537625 216.779457 
L 461.942339 209.366439 
L 463.156482 182.442699 
L 463.35884 180.558651 
L 463.561197 179.971436 
L 463.763554 180.713869 
L 463.965911 182.72838 
L 464.370626 189.924268 
L 465.584769 216.091072 
L 465.787126 217.960017 
L 465.989483 218.583517 
L 466.19184 217.929033 
L 466.394198 216.050883 
L 466.798912 209.244006 
L 468.013055 184.333933 
L 468.215413 182.565959 
L 468.41777 181.993475 
L 468.620127 182.64872 
L 468.822484 184.480463 
L 469.227199 191.080723 
L 470.441342 215.267615 
L 470.643699 217.016948 
L 470.846056 217.618208 
L 471.048413 217.039491 
L 471.250771 215.329098 
L 471.655485 209.079536 
L 472.869628 186.034406 
L 473.071985 184.375998 
L 473.274343 183.819614 
L 473.4767 184.396808 
L 473.679057 186.062057 
L 474.083772 192.115799 
L 475.297915 214.472579 
L 475.500272 216.109727 
L 475.702629 216.688605 
L 475.904986 216.178035 
L 476.107344 214.620904 
L 476.512058 208.883684 
L 477.726201 187.565532 
L 477.928558 186.010473 
L 478.130916 185.471235 
L 478.333273 185.978605 
L 478.53563 187.492196 
L 478.940345 193.044472 
L 480.154488 213.70954 
L 480.356845 215.241478 
L 480.559202 215.797962 
L 480.761559 215.348618 
L 480.963917 213.931466 
L 481.368631 208.665176 
L 482.582774 188.94605 
L 482.785131 187.488404 
L 482.987489 186.967085 
L 483.189846 187.41204 
L 483.392203 188.787497 
L 483.796917 193.879641 
L 485.011061 212.980877 
L 485.213418 214.414158 
L 485.415775 214.948353 
L 485.618132 214.553955 
L 485.82049 213.26461 
L 486.225204 208.431127 
L 487.439347 190.192384 
L 487.641704 188.826501 
L 487.844062 188.323635 
L 488.046419 188.712842 
L 488.248776 189.962495 
L 488.65349 194.632435 
L 489.867634 212.288015 
L 490.069991 213.62879 
L 490.272348 214.140902 
L 490.474705 213.795758 
L 490.677063 212.623074 
L 491.081777 208.187309 
L 492.29592 191.318961 
L 492.498277 190.039465 
L 492.700635 189.555384 
L 492.902992 189.894842 
L 493.105349 191.029933 
L 493.510063 195.312471 
L 494.724207 211.631613 
L 494.926564 212.885663 
L 495.128921 213.375986 
L 495.331278 213.074938 
L 495.533636 212.00871 
L 495.93835 207.93837 
L 497.152493 192.338472 
L 497.35485 191.140258 
L 497.557208 190.675123 
L 497.759565 190.970228 
L 497.961922 192.001007 
L 498.366636 195.92808 
L 499.58078 211.011731 
L 499.783137 212.184485 
L 499.985494 212.653389 
L 500.187851 212.391769 
L 500.390209 211.422658 
L 500.794923 207.688032 
L 502.009066 193.262109 
L 502.211423 192.140333 
L 502.413781 191.694157 
L 502.616138 191.949763 
L 502.818495 192.885574 
L 503.223209 196.486492 
L 504.437353 210.427961 
L 504.63971 211.524521 
L 504.842067 211.972437 
L 505.044424 211.746024 
L 505.246782 210.865483 
L 505.651496 207.439239 
L 506.865639 194.099754 
L 507.067996 193.049827 
L 507.270354 192.622502 
L 507.472711 192.842971 
L 507.675068 193.692333 
L 508.079782 196.993996 
L 509.293926 209.879538 
L 509.496283 210.904694 
L 509.69864 211.332109 
L 509.900997 211.137087 
L 510.103354 210.337301 
L 510.508069 207.194299 
L 511.722212 194.860156 
L 511.924569 193.877731 
L 512.126927 193.469045 
L 512.329284 193.658296 
L 512.531641 194.428977 
L 512.936355 197.456071 
L 514.150499 209.365427 
L 514.352856 210.323681 
L 514.555213 210.731121 
L 514.75757 210.564048 
L 514.959927 209.837868 
L 515.364642 206.954988 
L 516.578785 195.551067 
L 516.781142 194.632035 
L 516.9835 194.241692 
L 517.185857 194.403245 
L 517.388214 195.102325 
L 517.792928 197.87751 
L 518.4 203.877093 
L 518.4 203.877093 
" clip-path="url(#p987386f948)" style="fill: none; stroke: #2ca02c; stroke-width: 1.5; stroke-linecap: square"/>
   </g>
   <g id="patch_3">
    <path d="M 72 320.4 
L 72 43.2 
" style="fill: none; stroke: #000000; stroke-width: 0.8; stroke-linejoin: miter; stroke-linecap: square"/>
   </g>
   <g id="patch_4">
    <path d="M 518.4 320.4 
L 518.4 43.2 
" style="fill: none; stroke: #000000; stroke-width: 0.8; stroke-linejoin: miter; stroke-linecap: square"/>
   </g>
   <g id="patch_5">
    <path d="M 72 320.4 
L 518.4 320.4 
" style="fill: none; stroke: #000000; stroke-width: 0.8; stroke-linejoin: miter; stroke-linecap: square"/>
   </g>
   <g id="patch_6">
    <path d="M 72 43.2 
L 518.4 43.2 
" style="fill: none; stroke: #000000; stroke-width: 0.8; stroke-linejoin: miter; stroke-linecap: square"/>
   </g>
   <g id="text_13">
    <!-- ARIMAX(3,0,4) -->
    <g transform="translate(251.817187 37.2) scale(0.12 -0.12)">
     <defs>
      <path id="DejaVuSans-41" d="M 2188 4044 
L 1331 1722 
L 3047 1722 
L 2188 4044 
z
M 1831 4666 
L 2547 4666 
L 4325 0 
L 3669 0 
L 3244 1197 
L 1141 1197 
L 716 0 
L 50 0 
L 1831 4666 
z
" transform="scale(0.015625)"/>
      <path id="DejaVuSans-52" d="M 2841 2188 
Q 3044 2119 3236 1894 
Q 3428 1669 3622 1275 
L 4263 0 
L 3584 0 
L 2988 1197 
Q 2756 1666 2539 1819 
Q 2322 1972 1947 1972 
L 1259 1972 
L 1259 0 
L 628 0 
L 628 4666 
L 2053 4666 
Q 2853 4666 3247 4331 
Q 3641 3997 3641 3322 
Q 3641 2881 3436 2590 
Q 3231 2300 2841 2188 
z
M 1259 4147 
L 1259 2491 
L 2053 2491 
Q 2509 2491 2742 2702 
Q 2975 2913 2975 3322 
Q 2975 3731 2742 3939 
Q 2509 4147 2053 4147 
L 1259 4147 
z
" transform="scale(0.015625)"/>
      <path id="DejaVuSans-49" d="M 628 4666 
L 1259 4666 
L 1259 0 
L 628 0 
L 628 4666 
z
" transform="scale(0.015625)"/>
      <path id="DejaVuSans-4d" d="M 628 4666 
L 1569 4666 
L 2759 1491 
L 3956 4666 
L 4897 4666 
L 4897 0 
L 4281 0 
L 4281 4097 
L 3078 897 
L 2444 897 
L 1241 4097 
L 1241 0 
L 628 0 
L 628 4666 
z
" transform="scale(0.015625)"/>
      <path id="DejaVuSans-58" d="M 403 4666 
L 1081 4666 
L 2241 2931 
L 3406 4666 
L 4084 4666 
L 2584 2425 
L 4184 0 
L 3506 0 
L 2194 1984 
L 872 0 
L 191 0 
L 1856 2491 
L 403 4666 
z
" transform="scale(0.015625)"/>
      <path id="DejaVuSans-28" d="M 1984 4856 
Q 1566 4138 1362 3434 
Q 1159 2731 1159 2009 
Q 1159 1288 1364 580 
Q 1569 -128 1984 -844 
L 1484 -844 
Q 1016 -109 783 600 
Q 550 1309 550 2009 
Q 550 2706 781 3412 
Q 1013 4119 1484 4856 
L 1984 4856 
z
" transform="scale(0.015625)"/>
      <path id="DejaVuSans-2c" d="M 750 794 
L 1409 794 
L 1409 256 
L 897 -744 
L 494 -744 
L 750 256 
L 750 794 
z
" transform="scale(0.015625)"/>
      <path id="DejaVuSans-34" d="M 2419 4116 
L 825 1625 
L 2419 1625 
L 2419 4116 
z
M 2253 4666 
L 3047 4666 
L 3047 1625 
L 3713 1625 
L 3713 1100 
L 3047 1100 
L 3047 0 
L 2419 0 
L 2419 1100 
L 313 1100 
L 313 1709 
L 2253 4666 
z
" transform="scale(0.015625)"/>
      <path id="DejaVuSans-29" d="M 513 4856 
L 1013 4856 
Q 1481 4119 1714 3412 
Q 1947 2706 1947 2009 
Q 1947 1309 1714 600 
Q 1481 -109 1013 -844 
L 513 -844 
Q 928 -128 1133 580 
Q 1338 1288 1338 2009 
Q 1338 2731 1133 3434 
Q 928 4138 513 4856 
z
" transform="scale(0.015625)"/>
     </defs>
     <use xlink:href="#DejaVuSans-41"/>
     <use xlink:href="#DejaVuSans-52" x="68.408203"/>
     <use xlink:href="#DejaVuSans-49" x="137.890625"/>
     <use xlink:href="#DejaVuSans-4d" x="167.382812"/>
     <use xlink:href="#DejaVuSans-41" x="253.662109"/>
     <use xlink:href="#DejaVuSans-58" x="322.070312"/>
     <use xlink:href="#DejaVuSans-28" x="390.576172"/>
     <use xlink:href="#DejaVuSans-33" x="429.589844"/>
     <use xlink:href="#DejaVuSans-2c" x="493.212891"/>
     <use xlink:href="#DejaVuSans-30" x="525"/>
     <use xlink:href="#DejaVuSans-2c" x="588.623047"/>
     <use xlink:href="#DejaVuSans-34" x="620.410156"/>
     <use xlink:href="#DejaVuSans-29" x="684.033203"/>
    </g>
   </g>
   <g id="legend_1">
    <g id="patch_7">
     <path d="M 79 95.234375 
L 161.517188 95.234375 
Q 163.517188 95.234375 163.517188 93.234375 
L 163.517188 50.2 
Q 163.517188 48.2 161.517188 48.2 
L 79 48.2 
Q 77 48.2 77 50.2 
L 77 93.234375 
Q 77 95.234375 79 95.234375 
z
" style="fill: #ffffff; opacity: 0.8; stroke: #cccccc; stroke-linejoin: miter"/>
    </g>
    <g id="line2d_16">
     <path d="M 81 56.298437 
L 91 56.298437 
L 101 56.298437 
" style="fill: none; stroke: #1f77b4; stroke-width: 1.5; stroke-linecap: square"/>
    </g>
    <g id="text_14">
     <!-- Measured -->
     <g transform="translate(109 59.798437) scale(0.1 -0.1)">
      <defs>
       <path id="DejaVuSans-65" d="M 3597 1894 
L 3597 1613 
L 953 1613 
Q 991 1019 1311 708 
Q 1631 397 2203 397 
Q 2534 397 2845 478 
Q 3156 559 3463 722 
L 3463 178 
Q 3153 47 2828 -22 
Q 2503 -91 2169 -91 
Q 1331 -91 842 396 
Q 353 884 353 1716 
Q 353 2575 817 3079 
Q 1281 3584 2069 3584 
Q 2775 3584 3186 3129 
Q 3597 2675 3597 1894 
z
M 3022 2063 
Q 3016 2534 2758 2815 
Q 2500 3097 2075 3097 
Q 1594 3097 1305 2825 
Q 1016 2553 972 2059 
L 3022 2063 
z
" transform="scale(0.015625)"/>
       <path id="DejaVuSans-61" d="M 2194 1759 
Q 1497 1759 1228 1600 
Q 959 1441 959 1056 
Q 959 750 1161 570 
Q 1363 391 1709 391 
Q 2188 391 2477 730 
Q 2766 1069 2766 1631 
L 2766 1759 
L 2194 1759 
z
M 3341 1997 
L 3341 0 
L 2766 0 
L 2766 531 
Q 2569 213 2275 61 
Q 1981 -91 1556 -91 
Q 1019 -91 701 211 
Q 384 513 384 1019 
Q 384 1609 779 1909 
Q 1175 2209 1959 2209 
L 2766 2209 
L 2766 2266 
Q 2766 2663 2505 2880 
Q 2244 3097 1772 3097 
Q 1472 3097 1187 3025 
Q 903 2953 641 2809 
L 641 3341 
Q 956 3463 1253 3523 
Q 1550 3584 1831 3584 
Q 2591 3584 2966 3190 
Q 3341 2797 3341 1997 
z
" transform="scale(0.015625)"/>
       <path id="DejaVuSans-73" d="M 2834 3397 
L 2834 2853 
Q 2591 2978 2328 3040 
Q 2066 3103 1784 3103 
Q 1356 3103 1142 2972 
Q 928 2841 928 2578 
Q 928 2378 1081 2264 
Q 1234 2150 1697 2047 
L 1894 2003 
Q 2506 1872 2764 1633 
Q 3022 1394 3022 966 
Q 3022 478 2636 193 
Q 2250 -91 1575 -91 
Q 1294 -91 989 -36 
Q 684 19 347 128 
L 347 722 
Q 666 556 975 473 
Q 1284 391 1588 391 
Q 1994 391 2212 530 
Q 2431 669 2431 922 
Q 2431 1156 2273 1281 
Q 2116 1406 1581 1522 
L 1381 1569 
Q 847 1681 609 1914 
Q 372 2147 372 2553 
Q 372 3047 722 3315 
Q 1072 3584 1716 3584 
Q 2034 3584 2315 3537 
Q 2597 3491 2834 3397 
z
" transform="scale(0.015625)"/>
       <path id="DejaVuSans-75" d="M 544 1381 
L 544 3500 
L 1119 3500 
L 1119 1403 
Q 1119 906 1312 657 
Q 1506 409 1894 409 
Q 2359 409 2629 706 
Q 2900 1003 2900 1516 
L 2900 3500 
L 3475 3500 
L 3475 0 
L 2900 0 
L 2900 538 
Q 2691 219 2414 64 
Q 2138 -91 1772 -91 
Q 1169 -91 856 284 
Q 544 659 544 1381 
z
M 1991 3584 
L 1991 3584 
z
" transform="scale(0.015625)"/>
       <path id="DejaVuSans-72" d="M 2631 2963 
Q 2534 3019 2420 3045 
Q 2306 3072 2169 3072 
Q 1681 3072 1420 2755 
Q 1159 2438 1159 1844 
L 1159 0 
L 581 0 
L 581 3500 
L 1159 3500 
L 1159 2956 
Q 1341 3275 1631 3429 
Q 1922 3584 2338 3584 
Q 2397 3584 2469 3576 
Q 2541 3569 2628 3553 
L 2631 2963 
z
" transform="scale(0.015625)"/>
       <path id="DejaVuSans-64" d="M 2906 2969 
L 2906 4863 
L 3481 4863 
L 3481 0 
L 2906 0 
L 2906 525 
Q 2725 213 2448 61 
Q 2172 -91 1784 -91 
Q 1150 -91 751 415 
Q 353 922 353 1747 
Q 353 2572 751 3078 
Q 1150 3584 1784 3584 
Q 2172 3584 2448 3432 
Q 2725 3281 2906 2969 
z
M 947 1747 
Q 947 1113 1208 752 
Q 1469 391 1925 391 
Q 2381 391 2643 752 
Q 2906 1113 2906 1747 
Q 2906 2381 2643 2742 
Q 2381 3103 1925 3103 
Q 1469 3103 1208 2742 
Q 947 2381 947 1747 
z
" transform="scale(0.015625)"/>
      </defs>
      <use xlink:href="#DejaVuSans-4d"/>
      <use xlink:href="#DejaVuSans-65" x="86.279297"/>
      <use xlink:href="#DejaVuSans-61" x="147.802734"/>
      <use xlink:href="#DejaVuSans-73" x="209.082031"/>
      <use xlink:href="#DejaVuSans-75" x="261.181641"/>
      <use xlink:href="#DejaVuSans-72" x="324.560547"/>
      <use xlink:href="#DejaVuSans-65" x="363.423828"/>
      <use xlink:href="#DejaVuSans-64" x="424.947266"/>
     </g>
    </g>
    <g id="line2d_17">
     <path d="M 81 70.976562 
L 91 70.976562 
L 101 70.976562 
" style="fill: none; stroke: #ff7f0e; stroke-width: 1.5; stroke-linecap: square"/>
    </g>
    <g id="text_15">
     <!-- Fitted -->
     <g transform="translate(109 74.476562) scale(0.1 -0.1)">
      <defs>
       <path id="DejaVuSans-46" d="M 628 4666 
L 3309 4666 
L 3309 4134 
L 1259 4134 
L 1259 2759 
L 3109 2759 
L 3109 2228 
L 1259 2228 
L 1259 0 
L 628 0 
L 628 4666 
z
" transform="scale(0.015625)"/>
       <path id="DejaVuSans-69" d="M 603 3500 
L 1178 3500 
L 1178 0 
L 603 0 
L 603 3500 
z
M 603 4863 
L 1178 4863 
L 1178 4134 
L 603 4134 
L 603 4863 
z
" transform="scale(0.015625)"/>
       <path id="DejaVuSans-74" d="M 1172 4494 
L 1172 3500 
L 2356 3500 
L 2356 3053 
L 1172 3053 
L 1172 1153 
Q 1172 725 1289 603 
Q 1406 481 1766 481 
L 2356 481 
L 2356 0 
L 1766 0 
Q 1100 0 847 248 
Q 594 497 594 1153 
L 594 3053 
L 172 3053 
L 172 3500 
L 594 3500 
L 594 4494 
L 1172 4494 
z
" transform="scale(0.015625)"/>
      </defs>
      <use xlink:href="#DejaVuSans-46"/>
      <use xlink:href="#DejaVuSans-69" x="50.269531"/>
      <use xlink:href="#DejaVuSans-74" x="78.052734"/>
      <use xlink:href="#DejaVuSans-74" x="117.261719"/>
      <use xlink:href="#DejaVuSans-65" x="156.470703"/>
      <use xlink:href="#DejaVuSans-64" x="217.994141"/>
     </g>
    </g>
    <g id="line2d_18">
     <path d="M 81 85.654687 
L 91 85.654687 
L 101 85.654687 
" style="fill: none; stroke: #2ca02c; stroke-width: 1.5; stroke-linecap: square"/>
    </g>
    <g id="text_16">
     <!-- Estimated -->
     <g transform="translate(109 89.154687) scale(0.1 -0.1)">
      <defs>
       <path id="DejaVuSans-45" d="M 628 4666 
L 3578 4666 
L 3578 4134 
L 1259 4134 
L 1259 2753 
L 3481 2753 
L 3481 2222 
L 1259 2222 
L 1259 531 
L 3634 531 
L 3634 0 
L 628 0 
L 628 4666 
z
" transform="scale(0.015625)"/>
       <path id="DejaVuSans-6d" d="M 3328 2828 
Q 3544 3216 3844 3400 
Q 4144 3584 4550 3584 
Q 5097 3584 5394 3201 
Q 5691 2819 5691 2113 
L 5691 0 
L 5113 0 
L 5113 2094 
Q 5113 2597 4934 2840 
Q 4756 3084 4391 3084 
Q 3944 3084 3684 2787 
Q 3425 2491 3425 1978 
L 3425 0 
L 2847 0 
L 2847 2094 
Q 2847 2600 2669 2842 
Q 2491 3084 2119 3084 
Q 1678 3084 1418 2786 
Q 1159 2488 1159 1978 
L 1159 0 
L 581 0 
L 581 3500 
L 1159 3500 
L 1159 2956 
Q 1356 3278 1631 3431 
Q 1906 3584 2284 3584 
Q 2666 3584 2933 3390 
Q 3200 3197 3328 2828 
z
" transform="scale(0.015625)"/>
      </defs>
      <use xlink:href="#DejaVuSans-45"/>
      <use xlink:href="#DejaVuSans-73" x="63.183594"/>
      <use xlink:href="#DejaVuSans-74" x="115.283203"/>
      <use xlink:href="#DejaVuSans-69" x="154.492188"/>
      <use xlink:href="#DejaVuSans-6d" x="182.275391"/>
      <use xlink:href="#DejaVuSans-61" x="279.6875"/>
      <use xlink:href="#DejaVuSans-74" x="340.966797"/>
      <use xlink:href="#DejaVuSans-65" x="380.175781"/>
      <use xlink:href="#DejaVuSans-64" x="441.699219"/>
     </g>
    </g>
   </g>
  </g>
 </g>
 <defs>
  <clipPath id="p987386f948">
   <rect x="72" y="43.2" width="446.4" height="277.2"/>
  </clipPath>
 </defs>
</svg>
