<?xml version="1.0" encoding="utf-8" standalone="no"?>
<!DOCTYPE svg PUBLIC "-//W3C//DTD SVG 1.1//EN"
  "http://www.w3.org/Graphics/SVG/1.1/DTD/svg11.dtd">
<svg xmlns:xlink="http://www.w3.org/1999/xlink" width="576pt" height="360pt" viewBox="0 0 576 360" xmlns="http://www.w3.org/2000/svg" version="1.1">
 <metadata>
  <rdf:RDF xmlns:dc="http://purl.org/dc/elements/1.1/" xmlns:cc="http://creativecommons.org/ns#" xmlns:rdf="http://www.w3.org/1999/02/22-rdf-syntax-ns#">
   <cc:Work>
    <dc:type rdf:resource="http://purl.org/dc/dcmitype/StillImage"/>
    <dc:date>2023-11-27T10:15:48.235612</dc:date>
    <dc:format>image/svg+xml</dc:format>
    <dc:creator>
     <cc:Agent>
      <dc:title>Matplotlib v3.8.1, https://matplotlib.org/</dc:title>
     </cc:Agent>
    </dc:creator>
   </cc:Work>
  </rdf:RDF>
 </metadata>
 <defs>
  <style type="text/css">*{stroke-linejoin: round; stroke-linecap: butt}</style>
 </defs>
 <g id="figure_1">
  <g id="patch_1">
   <path d="M 0 360 
L 576 360 
L 576 0 
L 0 0 
z
" style="fill: #ffffff"/>
  </g>
  <g id="axes_1">
   <g id="patch_2">
    <path d="M 72 320.4 
L 518.4 320.4 
L 518.4 43.2 
L 72 43.2 
z
" style="fill: #ffffff"/>
   </g>
   <g id="matplotlib.axis_1">
    <g id="xtick_1">
     <g id="line2d_1">
      <defs>
       <path id="m96578f1cf2" d="M 0 0 
L 0 3.5 
" style="stroke: #000000; stroke-width: 0.8"/>
      </defs>
      <g>
       <use xlink:href="#m96578f1cf2" x="129.874161" y="320.4" style="stroke: #000000; stroke-width: 0.8"/>
      </g>
     </g>
     <g id="text_1">
      <!-- 2020-05-15 -->
      <g transform="translate(100.816349 334.998438) scale(0.1 -0.1)">
       <defs>
        <path id="DejaVuSans-32" d="M 1228 531 
L 3431 531 
L 3431 0 
L 469 0 
L 469 531 
Q 828 903 1448 1529 
Q 2069 2156 2228 2338 
Q 2531 2678 2651 2914 
Q 2772 3150 2772 3378 
Q 2772 3750 2511 3984 
Q 2250 4219 1831 4219 
Q 1534 4219 1204 4116 
Q 875 4013 500 3803 
L 500 4441 
Q 881 4594 1212 4672 
Q 1544 4750 1819 4750 
Q 2544 4750 2975 4387 
Q 3406 4025 3406 3419 
Q 3406 3131 3298 2873 
Q 3191 2616 2906 2266 
Q 2828 2175 2409 1742 
Q 1991 1309 1228 531 
z
" transform="scale(0.015625)"/>
        <path id="DejaVuSans-30" d="M 2034 4250 
Q 1547 4250 1301 3770 
Q 1056 3291 1056 2328 
Q 1056 1369 1301 889 
Q 1547 409 2034 409 
Q 2525 409 2770 889 
Q 3016 1369 3016 2328 
Q 3016 3291 2770 3770 
Q 2525 4250 2034 4250 
z
M 2034 4750 
Q 2819 4750 3233 4129 
Q 3647 3509 3647 2328 
Q 3647 1150 3233 529 
Q 2819 -91 2034 -91 
Q 1250 -91 836 529 
Q 422 1150 422 2328 
Q 422 3509 836 4129 
Q 1250 4750 2034 4750 
z
" transform="scale(0.015625)"/>
        <path id="DejaVuSans-2d" d="M 313 2009 
L 1997 2009 
L 1997 1497 
L 313 1497 
L 313 2009 
z
" transform="scale(0.015625)"/>
        <path id="DejaVuSans-35" d="M 691 4666 
L 3169 4666 
L 3169 4134 
L 1269 4134 
L 1269 2991 
Q 1406 3038 1543 3061 
Q 1681 3084 1819 3084 
Q 2600 3084 3056 2656 
Q 3513 2228 3513 1497 
Q 3513 744 3044 326 
Q 2575 -91 1722 -91 
Q 1428 -91 1123 -41 
Q 819 9 494 109 
L 494 744 
Q 775 591 1075 516 
Q 1375 441 1709 441 
Q 2250 441 2565 725 
Q 2881 1009 2881 1497 
Q 2881 1984 2565 2268 
Q 2250 2553 1709 2553 
Q 1456 2553 1204 2497 
Q 953 2441 691 2322 
L 691 4666 
z
" transform="scale(0.015625)"/>
        <path id="DejaVuSans-31" d="M 794 531 
L 1825 531 
L 1825 4091 
L 703 3866 
L 703 4441 
L 1819 4666 
L 2450 4666 
L 2450 531 
L 3481 531 
L 3481 0 
L 794 0 
L 794 531 
z
" transform="scale(0.015625)"/>
       </defs>
       <use xlink:href="#DejaVuSans-32"/>
       <use xlink:href="#DejaVuSans-30" x="63.623047"/>
       <use xlink:href="#DejaVuSans-32" x="127.246094"/>
       <use xlink:href="#DejaVuSans-30" x="190.869141"/>
       <use xlink:href="#DejaVuSans-2d" x="254.492188"/>
       <use xlink:href="#DejaVuSans-30" x="290.576172"/>
       <use xlink:href="#DejaVuSans-35" x="354.199219"/>
       <use xlink:href="#DejaVuSans-2d" x="417.822266"/>
       <use xlink:href="#DejaVuSans-31" x="453.90625"/>
       <use xlink:href="#DejaVuSans-35" x="517.529297"/>
      </g>
     </g>
    </g>
    <g id="xtick_2">
     <g id="line2d_2">
      <g>
       <use xlink:href="#m96578f1cf2" x="212.435902" y="320.4" style="stroke: #000000; stroke-width: 0.8"/>
      </g>
     </g>
     <g id="text_2">
      <!-- 2020-06-01 -->
      <g transform="translate(183.37809 334.998438) scale(0.1 -0.1)">
       <defs>
        <path id="DejaVuSans-36" d="M 2113 2584 
Q 1688 2584 1439 2293 
Q 1191 2003 1191 1497 
Q 1191 994 1439 701 
Q 1688 409 2113 409 
Q 2538 409 2786 701 
Q 3034 994 3034 1497 
Q 3034 2003 2786 2293 
Q 2538 2584 2113 2584 
z
M 3366 4563 
L 3366 3988 
Q 3128 4100 2886 4159 
Q 2644 4219 2406 4219 
Q 1781 4219 1451 3797 
Q 1122 3375 1075 2522 
Q 1259 2794 1537 2939 
Q 1816 3084 2150 3084 
Q 2853 3084 3261 2657 
Q 3669 2231 3669 1497 
Q 3669 778 3244 343 
Q 2819 -91 2113 -91 
Q 1303 -91 875 529 
Q 447 1150 447 2328 
Q 447 3434 972 4092 
Q 1497 4750 2381 4750 
Q 2619 4750 2861 4703 
Q 3103 4656 3366 4563 
z
" transform="scale(0.015625)"/>
       </defs>
       <use xlink:href="#DejaVuSans-32"/>
       <use xlink:href="#DejaVuSans-30" x="63.623047"/>
       <use xlink:href="#DejaVuSans-32" x="127.246094"/>
       <use xlink:href="#DejaVuSans-30" x="190.869141"/>
       <use xlink:href="#DejaVuSans-2d" x="254.492188"/>
       <use xlink:href="#DejaVuSans-30" x="290.576172"/>
       <use xlink:href="#DejaVuSans-36" x="354.199219"/>
       <use xlink:href="#DejaVuSans-2d" x="417.822266"/>
       <use xlink:href="#DejaVuSans-30" x="453.90625"/>
       <use xlink:href="#DejaVuSans-31" x="517.529297"/>
      </g>
     </g>
    </g>
    <g id="xtick_3">
     <g id="line2d_3">
      <g>
       <use xlink:href="#m96578f1cf2" x="280.427924" y="320.4" style="stroke: #000000; stroke-width: 0.8"/>
      </g>
     </g>
     <g id="text_3">
      <!-- 2020-06-15 -->
      <g transform="translate(251.370111 334.998438) scale(0.1 -0.1)">
       <use xlink:href="#DejaVuSans-32"/>
       <use xlink:href="#DejaVuSans-30" x="63.623047"/>
       <use xlink:href="#DejaVuSans-32" x="127.246094"/>
       <use xlink:href="#DejaVuSans-30" x="190.869141"/>
       <use xlink:href="#DejaVuSans-2d" x="254.492188"/>
       <use xlink:href="#DejaVuSans-30" x="290.576172"/>
       <use xlink:href="#DejaVuSans-36" x="354.199219"/>
       <use xlink:href="#DejaVuSans-2d" x="417.822266"/>
       <use xlink:href="#DejaVuSans-31" x="453.90625"/>
       <use xlink:href="#DejaVuSans-35" x="517.529297"/>
      </g>
     </g>
    </g>
    <g id="xtick_4">
     <g id="line2d_4">
      <g>
       <use xlink:href="#m96578f1cf2" x="358.133092" y="320.4" style="stroke: #000000; stroke-width: 0.8"/>
      </g>
     </g>
     <g id="text_4">
      <!-- 2020-07-01 -->
      <g transform="translate(329.075279 334.998438) scale(0.1 -0.1)">
       <defs>
        <path id="DejaVuSans-37" d="M 525 4666 
L 3525 4666 
L 3525 4397 
L 1831 0 
L 1172 0 
L 2766 4134 
L 525 4134 
L 525 4666 
z
" transform="scale(0.015625)"/>
       </defs>
       <use xlink:href="#DejaVuSans-32"/>
       <use xlink:href="#DejaVuSans-30" x="63.623047"/>
       <use xlink:href="#DejaVuSans-32" x="127.246094"/>
       <use xlink:href="#DejaVuSans-30" x="190.869141"/>
       <use xlink:href="#DejaVuSans-2d" x="254.492188"/>
       <use xlink:href="#DejaVuSans-30" x="290.576172"/>
       <use xlink:href="#DejaVuSans-37" x="354.199219"/>
       <use xlink:href="#DejaVuSans-2d" x="417.822266"/>
       <use xlink:href="#DejaVuSans-30" x="453.90625"/>
       <use xlink:href="#DejaVuSans-31" x="517.529297"/>
      </g>
     </g>
    </g>
    <g id="xtick_5">
     <g id="line2d_5">
      <g>
       <use xlink:href="#m96578f1cf2" x="426.125113" y="320.4" style="stroke: #000000; stroke-width: 0.8"/>
      </g>
     </g>
     <g id="text_5">
      <!-- 2020-07-15 -->
      <g transform="translate(397.067301 334.998438) scale(0.1 -0.1)">
       <use xlink:href="#DejaVuSans-32"/>
       <use xlink:href="#DejaVuSans-30" x="63.623047"/>
       <use xlink:href="#DejaVuSans-32" x="127.246094"/>
       <use xlink:href="#DejaVuSans-30" x="190.869141"/>
       <use xlink:href="#DejaVuSans-2d" x="254.492188"/>
       <use xlink:href="#DejaVuSans-30" x="290.576172"/>
       <use xlink:href="#DejaVuSans-37" x="354.199219"/>
       <use xlink:href="#DejaVuSans-2d" x="417.822266"/>
       <use xlink:href="#DejaVuSans-31" x="453.90625"/>
       <use xlink:href="#DejaVuSans-35" x="517.529297"/>
      </g>
     </g>
    </g>
    <g id="xtick_6">
     <g id="line2d_6">
      <g>
       <use xlink:href="#m96578f1cf2" x="508.686854" y="320.4" style="stroke: #000000; stroke-width: 0.8"/>
      </g>
     </g>
     <g id="text_6">
      <!-- 2020-08-01 -->
      <g transform="translate(479.629042 334.998438) scale(0.1 -0.1)">
       <defs>
        <path id="DejaVuSans-38" d="M 2034 2216 
Q 1584 2216 1326 1975 
Q 1069 1734 1069 1313 
Q 1069 891 1326 650 
Q 1584 409 2034 409 
Q 2484 409 2743 651 
Q 3003 894 3003 1313 
Q 3003 1734 2745 1975 
Q 2488 2216 2034 2216 
z
M 1403 2484 
Q 997 2584 770 2862 
Q 544 3141 544 3541 
Q 544 4100 942 4425 
Q 1341 4750 2034 4750 
Q 2731 4750 3128 4425 
Q 3525 4100 3525 3541 
Q 3525 3141 3298 2862 
Q 3072 2584 2669 2484 
Q 3125 2378 3379 2068 
Q 3634 1759 3634 1313 
Q 3634 634 3220 271 
Q 2806 -91 2034 -91 
Q 1263 -91 848 271 
Q 434 634 434 1313 
Q 434 1759 690 2068 
Q 947 2378 1403 2484 
z
M 1172 3481 
Q 1172 3119 1398 2916 
Q 1625 2713 2034 2713 
Q 2441 2713 2670 2916 
Q 2900 3119 2900 3481 
Q 2900 3844 2670 4047 
Q 2441 4250 2034 4250 
Q 1625 4250 1398 4047 
Q 1172 3844 1172 3481 
z
" transform="scale(0.015625)"/>
       </defs>
       <use xlink:href="#DejaVuSans-32"/>
       <use xlink:href="#DejaVuSans-30" x="63.623047"/>
       <use xlink:href="#DejaVuSans-32" x="127.246094"/>
       <use xlink:href="#DejaVuSans-30" x="190.869141"/>
       <use xlink:href="#DejaVuSans-2d" x="254.492188"/>
       <use xlink:href="#DejaVuSans-30" x="290.576172"/>
       <use xlink:href="#DejaVuSans-38" x="354.199219"/>
       <use xlink:href="#DejaVuSans-2d" x="417.822266"/>
       <use xlink:href="#DejaVuSans-30" x="453.90625"/>
       <use xlink:href="#DejaVuSans-31" x="517.529297"/>
      </g>
     </g>
    </g>
   </g>
   <g id="matplotlib.axis_2">
    <g id="ytick_1">
     <g id="line2d_7">
      <defs>
       <path id="m9561e0a06a" d="M 0 0 
L -3.5 0 
" style="stroke: #000000; stroke-width: 0.8"/>
      </defs>
      <g>
       <use xlink:href="#m9561e0a06a" x="72" y="316.023131" style="stroke: #000000; stroke-width: 0.8"/>
      </g>
     </g>
     <g id="text_7">
      <!-- −2 -->
      <g transform="translate(50.257812 319.82235) scale(0.1 -0.1)">
       <defs>
        <path id="DejaVuSans-2212" d="M 678 2272 
L 4684 2272 
L 4684 1741 
L 678 1741 
L 678 2272 
z
" transform="scale(0.015625)"/>
       </defs>
       <use xlink:href="#DejaVuSans-2212"/>
       <use xlink:href="#DejaVuSans-32" x="83.789062"/>
      </g>
     </g>
    </g>
    <g id="ytick_2">
     <g id="line2d_8">
      <g>
       <use xlink:href="#m9561e0a06a" x="72" y="262.270979" style="stroke: #000000; stroke-width: 0.8"/>
      </g>
     </g>
     <g id="text_8">
      <!-- −1 -->
      <g transform="translate(50.257812 266.070197) scale(0.1 -0.1)">
       <use xlink:href="#DejaVuSans-2212"/>
       <use xlink:href="#DejaVuSans-31" x="83.789062"/>
      </g>
     </g>
    </g>
    <g id="ytick_3">
     <g id="line2d_9">
      <g>
       <use xlink:href="#m9561e0a06a" x="72" y="208.518827" style="stroke: #000000; stroke-width: 0.8"/>
      </g>
     </g>
     <g id="text_9">
      <!-- 0 -->
      <g transform="translate(58.6375 212.318045) scale(0.1 -0.1)">
       <use xlink:href="#DejaVuSans-30"/>
      </g>
     </g>
    </g>
    <g id="ytick_4">
     <g id="line2d_10">
      <g>
       <use xlink:href="#m9561e0a06a" x="72" y="154.766674" style="stroke: #000000; stroke-width: 0.8"/>
      </g>
     </g>
     <g id="text_10">
      <!-- 1 -->
      <g transform="translate(58.6375 158.565893) scale(0.1 -0.1)">
       <use xlink:href="#DejaVuSans-31"/>
      </g>
     </g>
    </g>
    <g id="ytick_5">
     <g id="line2d_11">
      <g>
       <use xlink:href="#m9561e0a06a" x="72" y="101.014522" style="stroke: #000000; stroke-width: 0.8"/>
      </g>
     </g>
     <g id="text_11">
      <!-- 2 -->
      <g transform="translate(58.6375 104.813741) scale(0.1 -0.1)">
       <use xlink:href="#DejaVuSans-32"/>
      </g>
     </g>
    </g>
    <g id="ytick_6">
     <g id="line2d_12">
      <g>
       <use xlink:href="#m9561e0a06a" x="72" y="47.26237" style="stroke: #000000; stroke-width: 0.8"/>
      </g>
     </g>
     <g id="text_12">
      <!-- 3 -->
      <g transform="translate(58.6375 51.061589) scale(0.1 -0.1)">
       <defs>
        <path id="DejaVuSans-33" d="M 2597 2516 
Q 3050 2419 3304 2112 
Q 3559 1806 3559 1356 
Q 3559 666 3084 287 
Q 2609 -91 1734 -91 
Q 1441 -91 1130 -33 
Q 819 25 488 141 
L 488 750 
Q 750 597 1062 519 
Q 1375 441 1716 441 
Q 2309 441 2620 675 
Q 2931 909 2931 1356 
Q 2931 1769 2642 2001 
Q 2353 2234 1838 2234 
L 1294 2234 
L 1294 2753 
L 1863 2753 
Q 2328 2753 2575 2939 
Q 2822 3125 2822 3475 
Q 2822 3834 2567 4026 
Q 2313 4219 1838 4219 
Q 1578 4219 1281 4162 
Q 984 4106 628 3988 
L 628 4550 
Q 988 4650 1302 4700 
Q 1616 4750 1894 4750 
Q 2613 4750 3031 4423 
Q 3450 4097 3450 3541 
Q 3450 3153 3228 2886 
Q 3006 2619 2597 2516 
z
" transform="scale(0.015625)"/>
       </defs>
       <use xlink:href="#DejaVuSans-33"/>
      </g>
     </g>
    </g>
   </g>
   <g id="line2d_13">
    <path d="M 72 287.0215 
L 72.404714 298.412759 
L 72.607072 296.682973 
L 72.809429 285.966751 
L 73.214143 254.915019 
L 73.618858 242.426822 
L 75.035358 159.101858 
L 75.237715 156.127473 
L 75.440073 161.211349 
L 75.64243 169.459466 
L 75.844787 172.771369 
L 76.047144 188.086287 
L 76.654216 258.669916 
L 77.05893 282.8447 
L 77.261287 287.232449 
L 77.463645 286.852739 
L 77.666002 276.094328 
L 78.070716 247.468508 
L 78.475431 234.938123 
L 78.677788 225.761828 
L 79.487217 168.510196 
L 79.891931 152.161627 
L 80.094288 154.123451 
L 80.903717 196.735208 
L 81.713146 272.423812 
L 82.11786 287.148066 
L 82.320218 289.194273 
L 82.522575 288.898946 
L 82.724932 286.367556 
L 82.927289 279.511706 
L 83.332004 256.412758 
L 83.736718 242.026017 
L 83.939075 238.967252 
L 84.141432 239.241488 
L 84.546147 245.675439 
L 84.748504 247.784933 
L 84.950861 247.806027 
L 85.355576 252.025012 
L 85.557933 248.670921 
L 85.76029 254.830639 
L 86.569719 300.015974 
L 86.772076 306.133503 
L 86.974433 307.736717 
L 87.176791 307.8 
L 87.379148 306.449924 
L 87.581505 302.695031 
L 87.783862 295.902463 
L 88.188577 273.731692 
L 88.390934 268.521245 
L 89.200363 260.399699 
L 89.40272 256.244 
L 89.807434 241.372076 
L 90.212149 238.903969 
L 90.414506 236.182723 
L 90.616863 244.1777 
L 91.223935 295.03757 
L 91.628649 306.133503 
L 91.831006 306.196786 
L 92.033364 303.68649 
L 92.842792 257.277652 
L 93.04515 255.125969 
L 93.449864 246.477049 
L 93.652221 245.949675 
L 93.854578 242.996385 
L 94.056936 242.363536 
L 94.259293 239.726671 
L 94.46165 233.292718 
L 94.664007 230.423807 
L 94.866364 231.351985 
L 95.068722 234.516223 
L 95.271079 230.655851 
L 95.473436 240.823608 
L 96.080508 295.417281 
L 96.485222 304.677956 
L 96.687579 306.597591 
L 96.889937 302.230942 
L 97.699365 256.539328 
L 98.306437 245.970769 
L 98.508794 245.591061 
L 99.52058 224.242993 
L 99.722937 225.50869 
L 99.925295 229.896435 
L 100.127652 228.061176 
L 100.330009 238.27112 
L 100.937081 292.928079 
L 101.341795 305.26861 
L 101.544152 306.260075 
L 101.74651 302.52627 
L 101.948867 290.502161 
L 102.353581 260.294224 
L 102.555938 258.733202 
L 103.567724 240.844702 
L 104.377153 218.610648 
L 104.57951 219.897439 
L 104.781868 225.318835 
L 104.984225 225.29774 
L 105.186582 234.24199 
L 105.793654 289.76384 
L 106.198368 302.589553 
L 106.400725 304.361528 
L 106.603083 300.311301 
L 107.412511 254.113412 
L 107.614869 252.383629 
L 107.817226 248.692015 
L 108.22194 234.073231 
L 108.626655 212.23998 
L 108.829012 206.270116 
L 109.031369 204.371572 
L 109.638441 213.104872 
L 109.840798 218.568458 
L 110.043155 229.031543 
L 110.650227 284.405725 
L 111.054941 298.750282 
L 111.257298 300.669917 
L 111.459655 298.919036 
L 111.662013 287.443399 
L 112.066727 258.015972 
L 112.471442 242.933099 
L 113.887942 174.121445 
L 114.090299 171.737718 
L 114.292656 178.593572 
L 114.495014 190.090306 
L 114.697371 194.710095 
L 115.102085 228.926068 
L 115.709157 278.58353 
L 116.113871 292.611651 
L 116.316228 292.780412 
L 116.518586 291.113915 
L 116.720943 287.464493 
L 117.125657 260.06218 
L 118.542158 154.777398 
L 118.744515 144.609644 
L 118.946872 140.707078 
L 119.149229 144.398695 
L 119.756301 182.496132 
L 120.56573 262.319338 
L 120.970444 282.254046 
L 121.172801 286.367556 
L 121.375159 288.012959 
L 121.577516 286.557411 
L 121.779873 278.58353 
L 122.589302 227.280664 
L 123.196374 201.671421 
L 123.398731 197.072727 
L 123.601088 197.283676 
L 123.803445 196.714113 
L 124.410517 210.193772 
L 124.612874 221.226419 
L 125.219946 277.845202 
L 125.62466 292.463991 
L 125.827017 294.46801 
L 126.029374 291.915519 
L 127.04116 235.191261 
L 127.648232 197.55791 
L 128.255304 154.925061 
L 128.457661 147.33089 
L 128.660018 146.993368 
L 129.26709 191.588046 
L 130.278876 282.971272 
L 130.481233 290.839683 
L 130.68359 292.231947 
L 130.885947 289.637267 
L 132.504805 180.070217 
L 133.111877 137.142039 
L 133.314234 127.670415 
L 133.516591 129.379107 
L 133.921306 144.841689 
L 134.123663 152.309294 
L 135.135449 262.846709 
L 135.540163 275.545856 
L 135.74252 274.596585 
L 135.944878 263.943646 
L 136.349592 232.343446 
L 136.551949 225.529784 
L 136.754306 213.590055 
L 136.956664 218.188749 
L 137.159021 206.818584 
L 137.766092 197.937619 
L 137.96845 198.338423 
L 138.373164 192.895931 
L 138.777879 200.490105 
L 138.980236 201.333903 
L 139.182593 213.210347 
L 139.789665 270.187748 
L 140.194379 285.65033 
L 140.396736 287.738726 
L 140.599093 284.701059 
L 141.003808 254.303267 
L 141.408522 232.997389 
L 142.015594 219.51773 
L 142.622665 210.320342 
L 142.825023 210.046108 
L 143.02738 208.822602 
L 143.229737 209.518734 
L 143.634451 214.834656 
L 143.836809 213.590055 
L 144.039166 223.84219 
L 144.646238 273.499648 
L 145.050952 285.671424 
L 145.253309 286.979311 
L 145.455666 283.815071 
L 145.860381 253.965749 
L 146.062738 237.40623 
L 146.66981 220.825615 
L 146.872167 218.125465 
L 147.074524 217.028529 
L 147.479238 205.848217 
L 147.681596 214.370568 
L 147.883953 215.362029 
L 148.08631 217.998895 
L 148.491024 227.386138 
L 148.693382 226.014968 
L 149.098096 249.831141 
L 149.502811 278.203819 
L 149.907525 291.430337 
L 150.109882 293.518733 
L 150.312239 292.928079 
L 150.514597 290.059167 
L 150.716954 284.258065 
L 151.121668 263.036565 
L 151.526383 242.194778 
L 151.931097 236.288198 
L 152.133454 235.845204 
L 152.335811 237.849224 
L 152.538169 238.376595 
L 152.740526 236.288198 
L 152.942883 236.583525 
L 153.14524 235.592066 
L 153.347597 235.634255 
L 153.549955 232.659871 
L 153.752312 234.895932 
L 154.764098 287.253544 
L 154.966455 291.282676 
L 155.168812 292.696035 
L 155.573527 288.687997 
L 155.775884 277.423309 
L 156.78767 198.127474 
L 157.799456 154.7563 
L 158.001813 156.802511 
L 158.406528 170.239979 
L 158.608885 184.036062 
L 159.215956 253.881368 
L 159.620671 275.862284 
L 159.823028 279.131995 
L 160.025385 278.203819 
L 160.227743 268.225918 
L 160.632457 235.191261 
L 161.8466 183.993871 
L 162.251315 173.762832 
L 162.453672 173.910495 
L 162.656029 176.821597 
L 163.465458 209.20231 
L 164.072529 270.124459 
L 164.477244 289.067707 
L 164.679601 289.405223 
L 164.881958 286.114418 
L 165.084316 275.7779 
L 165.48903 243.439379 
L 166.500816 207.725665 
L 167.310245 164.038069 
L 167.512602 167.455447 
L 167.917316 188.402712 
L 168.119674 192.938121 
L 168.322031 204.498142 
L 168.929102 264.977301 
L 169.333817 280.439882 
L 169.536174 284.026021 
L 169.738531 280.292215 
L 170.143246 252.510198 
L 170.54796 221.648317 
L 171.357389 176.273128 
L 171.559746 170.134504 
L 172.166818 145.495626 
L 172.369175 147.141035 
L 172.571532 155.199294 
L 173.178604 194.878854 
L 173.785675 267.255553 
L 174.19039 287.000405 
L 174.392747 290.038072 
L 174.595104 288.18172 
L 174.999819 263.542841 
L 175.404533 238.081268 
L 177.023391 158.405725 
L 177.225748 158.933097 
L 177.428105 162.920038 
L 177.630462 179.817075 
L 177.83282 182.306278 
L 178.237534 227.238473 
L 178.642248 270.947163 
L 179.046963 290.502161 
L 179.24932 294.299249 
L 179.451677 291.72567 
L 179.654034 282.865801 
L 180.261106 242.258061 
L 181.879964 143.449418 
L 182.082321 140.116424 
L 182.284678 145.896431 
L 183.094107 203.316826 
L 183.498821 243.080765 
L 183.903536 264.956206 
L 184.30825 272.951183 
L 184.510607 274.343447 
L 184.712965 270.630742 
L 184.915322 256.982321 
L 185.724751 173.340932 
L 186.129465 151.528778 
L 186.331822 145.347965 
L 186.53418 144.567449 
L 186.736537 147.162129 
L 187.748323 188.423806 
L 188.557752 253.923557 
L 188.962466 268.394679 
L 189.164823 270.483075 
L 189.36718 270.567453 
L 189.569538 269.808037 
L 189.771895 258.796485 
L 190.986038 160.810547 
L 191.188395 155.389149 
L 191.390752 155.346961 
L 191.795467 164.692013 
L 192.604896 196.671923 
L 193.414325 261.370067 
L 193.819039 275.377101 
L 194.021396 276.474032 
L 194.426111 272.423812 
L 194.628468 263.268609 
L 195.437897 201.017478 
L 195.640254 195.891411 
L 195.842611 197.136012 
L 196.247325 203.33792 
L 196.449683 203.928579 
L 196.65204 203.527775 
L 197.056754 211.923556 
L 197.259112 212.788448 
L 197.461469 221.395178 
L 198.06854 270.841692 
L 198.473255 285.355002 
L 198.675612 285.460474 
L 198.877969 281.726675 
L 199.282684 250.231946 
L 199.687398 226.87986 
L 201.306256 158.933097 
L 201.508613 157.751782 
L 202.115684 177.39116 
L 202.318042 188.803515 
L 202.925113 254.36655 
L 203.329828 272.423812 
L 203.532185 274.575491 
L 203.734542 271.51673 
L 203.936899 259.724661 
L 204.341614 224.939127 
L 205.758114 168.995378 
L 205.960471 166.442894 
L 206.162829 166.590557 
L 206.365186 168.046108 
L 206.7699 180.175688 
L 206.972257 183.445404 
L 207.174615 194.541336 
L 207.781686 254.978302 
L 208.186401 271.51673 
L 208.388758 274.638774 
L 208.591115 271.221396 
L 208.793472 259.070718 
L 209.198187 224.475037 
L 209.805258 201.671421 
L 210.209973 181.314818 
L 210.817044 138.639775 
L 211.019402 129.948667 
L 211.221759 132.986334 
L 211.626473 158.047112 
L 211.82883 163.384129 
L 212.031188 178.466999 
L 212.638259 245.063687 
L 213.042974 264.091313 
L 213.245331 268.183729 
L 213.447688 266.432848 
L 213.650045 255.463488 
L 214.257117 211.164139 
L 214.661831 184.183727 
L 215.47126 123.409238 
L 215.875975 106.28016 
L 216.078332 105.794977 
L 216.280689 111.469513 
L 217.090118 176.779408 
L 217.697189 240.190759 
L 218.101904 259.091815 
L 218.304261 262.530288 
L 218.506618 263.922552 
L 218.708976 262.635759 
L 218.911333 249.599097 
L 219.518404 193.486588 
L 220.125476 157.435357 
L 220.327833 155.220392 
L 220.53019 157.498644 
L 221.541976 200.827624 
L 221.744334 206.101356 
L 222.553762 264.365546 
L 222.958477 275.503667 
L 223.160834 277.254548 
L 223.363191 277.613158 
L 223.565549 276.009944 
L 223.767906 267.086792 
L 224.374977 227.955701 
L 224.779692 220.192768 
L 225.386763 222.30226 
L 225.589121 225.909494 
L 225.791478 226.816575 
L 226.196192 235.402211 
L 226.398549 235.043597 
L 226.600907 241.625215 
L 227.410335 296.535313 
L 227.612693 300.669917 
L 227.81505 302.399704 
L 228.017407 299.129986 
L 228.826836 255.505676 
L 229.029193 253.12195 
L 229.23155 247.236464 
L 230.648051 182.285182 
L 230.850408 182.875841 
L 231.255122 197.64229 
L 231.45748 208.801507 
L 232.064551 274.027026 
L 232.469266 291.620192 
L 232.671623 294.404721 
L 232.87398 293.160123 
L 233.278694 267.255553 
L 233.683409 244.1777 
L 235.302267 178.024009 
L 235.504624 177.412254 
L 236.111695 196.988347 
L 236.314053 207.599096 
L 236.921124 271.24249 
L 237.325839 287.506682 
L 237.528196 290.71311 
L 237.730553 288.540336 
L 238.135267 264.006929 
L 238.539982 241.688498 
L 239.349411 210.003918 
L 239.754125 199.751783 
L 240.15884 189.288699 
L 240.361197 189.035559 
L 240.563554 194.625716 
L 240.968268 212.661878 
L 241.170626 220.424812 
L 241.777697 277.317831 
L 242.182412 293.560928 
L 242.384769 296.113413 
L 242.587126 293.054645 
L 242.99184 267.740735 
L 243.396555 249.345958 
L 245.21777 172.876844 
L 245.420127 177.222399 
L 246.027199 204.666901 
L 246.836627 279.933605 
L 247.038985 288.498141 
L 247.241342 291.746765 
L 247.443699 289.152085 
L 247.848413 265.019489 
L 249.467271 150.305274 
L 249.669628 142.036059 
L 249.871985 140.053141 
L 250.074343 140.221895 
L 250.2767 147.33089 
L 250.883772 180.21788 
L 251.6932 257.003416 
L 252.097915 271.87534 
L 252.300272 275.018485 
L 252.502629 275.292718 
L 252.704986 271.326874 
L 253.109701 237.785937 
L 253.91913 162.814566 
L 254.323844 146.634758 
L 254.728558 137.606127 
L 254.930916 136.319335 
L 255.133273 143.99789 
L 255.740345 182.369563 
L 256.549773 259.387142 
L 256.954488 275.229435 
L 257.156845 279.131995 
L 257.359202 280.840687 
L 257.561559 279.849222 
L 257.966274 250.274135 
L 258.573345 198.675942 
L 258.97806 176.484078 
L 259.382774 165.198293 
L 259.585131 161.67544 
L 259.787489 161.232446 
L 259.989846 163.9115 
L 260.39456 180.281163 
L 260.596917 193.950678 
L 261.203989 257.425315 
L 261.608704 276.57951 
L 261.811061 279.574989 
L 262.013418 278.773385 
L 262.418132 254.239981 
L 262.62049 241.941639 
L 263.025204 232.048117 
L 263.227561 229.179206 
L 263.429918 228.145555 
L 263.834633 229.453441 
L 264.03699 229.137018 
L 264.239347 230.107384 
L 264.441704 230.191763 
L 264.644062 229.917529 
L 264.846419 232.005927 
L 265.048776 236.140535 
L 265.251133 236.140535 
L 265.45349 240.254045 
L 266.060562 283.730688 
L 266.465277 296.872828 
L 266.667634 298.454948 
L 266.869991 294.172677 
L 267.072348 286.030034 
L 267.477063 258.90196 
L 268.084134 236.203818 
L 268.488849 225.67745 
L 269.09592 214.159618 
L 269.500635 210.109392 
L 269.702992 212.345455 
L 269.905349 216.037067 
L 270.107706 216.7332 
L 270.310063 223.188248 
L 270.917135 273.204321 
L 271.32185 285.460474 
L 271.524207 287.654349 
L 271.726564 285.903468 
L 274.15485 140.960222 
L 274.357208 133.619183 
L 274.559565 137.036561 
L 275.166636 162.793468 
L 275.976065 246.308288 
L 276.38078 259.176193 
L 276.583137 258.458966 
L 276.987851 236.098343 
L 277.392566 206.50216 
L 278.404352 148.195777 
L 278.606709 145.073733 
L 279.011423 131.530787 
L 279.213781 129.885384 
L 279.416138 134.252033 
L 280.023209 176.96926 
L 280.630281 250.020996 
L 281.034995 273.351988 
L 281.237353 278.351485 
L 281.43971 276.769366 
L 281.642067 270.736214 
L 282.249139 227.976796 
L 282.85621 193.528779 
L 283.867996 149.714614 
L 284.070354 148.491111 
L 284.272711 156.8447 
L 285.284497 241.920542 
L 285.689211 274.870818 
L 286.093926 289.974789 
L 286.296283 292.316324 
L 286.49864 290.459972 
L 286.700997 287.443399 
L 287.105712 255.674437 
L 287.712783 202.873832 
L 288.522212 158.384631 
L 288.724569 151.085784 
L 288.926927 149.102859 
L 289.129284 152.773382 
L 289.736355 187.411249 
L 290.545784 259.19729 
L 290.950499 274.849724 
L 291.152856 277.697542 
L 291.355213 277.781919 
L 291.55757 276.263083 
L 291.759927 263.479558 
L 292.771714 162.392666 
L 293.176428 139.863285 
L 293.581142 128.345453 
L 293.7835 126.573478 
L 293.985857 130.180711 
L 294.592928 156.33842 
L 295.402357 241.667404 
L 295.807072 256.729183 
L 296.009429 256.560422 
L 296.414143 235.760824 
L 297.830644 97.293718 
L 298.235358 83.6453 
L 298.437715 80.987338 
L 298.640073 81.261577 
L 298.84243 83.371061 
L 299.044787 91.619189 
L 299.449501 119.295728 
L 300.056573 200.363535 
L 300.461287 226.268107 
L 300.663645 232.448921 
L 300.866002 233.187243 
L 301.068359 226.183728 
L 301.473073 195.342943 
L 302.484859 87.273628 
L 302.687217 75.650318 
L 302.889574 75.755802 
L 303.091931 84.0672 
L 303.496646 92.94817 
L 303.90136 115.793973 
L 304.306074 144.483072 
L 304.913146 215.551884 
L 305.31786 241.583023 
L 305.520218 247.29975 
L 305.722575 245.464492 
L 305.924932 238.144551 
L 306.532004 197.114917 
L 307.54379 125.223402 
L 307.746147 114.739224 
L 307.948504 113.832142 
L 308.757933 146.972274 
L 309.162647 173.741738 
L 309.769719 238.439881 
L 310.174433 258.859771 
L 310.376791 263.374087 
L 310.579148 262.783426 
L 310.983862 238.735208 
L 312.198005 131.889403 
L 312.60272 119.949672 
L 312.805077 115.456451 
L 313.007434 116.026017 
L 313.209791 119.823099 
L 313.816863 148.153588 
L 314.01922 162.202811 
L 314.626292 226.479057 
L 315.031006 247.531795 
L 315.233364 252.235962 
L 315.435721 251.560924 
L 315.840435 232.280161 
L 316.24515 213.062682 
L 316.649864 200.72215 
L 317.054578 185.006428 
L 317.66165 177.285685 
L 317.864007 176.821597 
L 318.066364 175.89342 
L 318.268722 180.703063 
L 318.875793 203.443395 
L 319.685222 263.627225 
L 320.089937 276.748271 
L 320.292294 278.435863 
L 320.697008 270.29322 
L 321.101723 243.354998 
L 322.315866 163.320843 
L 322.72058 152.794476 
L 322.922937 150.410746 
L 323.125295 154.650829 
L 323.732366 183.023505 
L 324.541795 253.41728 
L 324.94651 268.099352 
L 325.148867 271.073736 
L 325.351224 271.137019 
L 325.553581 268.816578 
L 325.755938 256.15962 
L 326.970082 140.707078 
L 327.172439 134.209844 
L 327.374796 132.585535 
L 327.77951 126.868805 
L 327.981868 131.994875 
L 328.184225 141.023505 
L 328.791296 194.077247 
L 329.196011 238.98835 
L 329.398368 254.640783 
L 329.803083 265.019489 
L 330.00544 264.049124 
L 330.207797 258.290208 
L 330.814869 208.463988 
L 331.42194 169.206328 
L 331.826655 145.917525 
L 332.029012 142.943141 
L 332.231369 142.964235 
L 332.433726 143.154091 
L 332.636083 145.305777 
L 332.838441 149.967752 
L 333.243155 173.509694 
L 333.445512 182.770367 
L 334.052584 250.274135 
L 334.457298 272.655856 
L 334.659655 278.224913 
L 334.862013 275.756806 
L 335.266727 255.379107 
L 335.671442 230.360523 
L 336.48087 189.162129 
L 336.683228 183.951683 
L 336.885585 182.812555 
L 337.087942 176.462983 
L 337.290299 174.564439 
L 337.695014 181.209343 
L 338.099728 196.060171 
L 338.302085 202.09332 
L 339.111514 269.702566 
L 339.313871 276.073234 
L 339.516228 278.37258 
L 339.718586 274.19578 
L 340.1233 250.210848 
L 340.932729 204.540331 
L 342.349229 141.107883 
L 342.551587 141.023505 
L 343.158658 166.379607 
L 343.76573 230.845707 
L 344.170444 249.345958 
L 344.372801 254.239981 
L 344.575159 252.04611 
L 344.777516 244.937118 
L 345.18223 213.210347 
L 346.194016 128.324359 
L 346.598731 113.157104 
L 347.003445 106.364537 
L 347.205802 105.499644 
L 347.40816 108.769361 
L 347.610517 116.827621 
L 348.015231 143.639273 
L 348.82466 237.237469 
L 349.229374 254.809544 
L 349.431732 254.029032 
L 349.634089 248.080263 
L 349.836446 236.646811 
L 351.050589 129.379107 
L 351.455304 110.520236 
L 351.860018 101.428322 
L 352.062375 100.500146 
L 352.264733 104.233952 
L 352.46709 115.625212 
L 353.276519 200.975289 
L 353.681233 239.93762 
L 354.085947 260.673935 
L 354.288305 266.095332 
L 354.490662 266.685987 
L 354.693019 264.38664 
L 355.097733 221.205325 
L 355.704805 145.36906 
L 356.109519 119.99186 
L 356.716591 101.301756 
L 356.918948 100.183718 
L 357.121306 105.119939 
L 357.52602 131.446409 
L 357.728377 144.483072 
L 358.740163 242.574485 
L 359.144878 255.906482 
L 359.347235 257.82612 
L 359.549592 257.488601 
L 359.751949 243.10186 
L 360.763735 119.169162 
L 361.16845 99.57197 
L 361.573164 88.159616 
L 361.775521 85.796986 
L 361.977879 89.172169 
L 362.180236 96.365542 
L 362.58495 122.860773 
L 363.394379 214.054144 
L 363.799093 232.195781 
L 364.001451 233.039578 
L 364.203808 226.985335 
L 364.406165 216.64882 
L 365.013237 145.137016 
L 365.620308 78.772369 
L 366.025023 62.149573 
L 366.429737 55.8 
L 366.632094 56.306277 
L 366.834451 59.027523 
L 367.036809 67.99287 
L 367.441523 98.010951 
L 368.048595 179.901456 
L 368.453309 211.290708 
L 368.655666 220.066199 
L 368.858024 222.51321 
L 369.060381 218.505174 
L 369.262738 208.358513 
L 369.86981 143.00643 
L 370.476881 83.160118 
L 370.881596 66.052127 
L 371.083953 65.588039 
L 371.28631 66.326367 
L 371.488667 70.376594 
L 371.691024 76.78945 
L 372.298096 116.912004 
L 373.107525 204.413762 
L 373.512239 227.301758 
L 373.714597 231.794977 
L 374.119311 231.077751 
L 374.321668 217.956705 
L 375.333454 111.047613 
L 375.738169 97.39919 
L 375.940526 94.614661 
L 376.142883 93.475541 
L 376.34524 98.812548 
L 376.749955 125.835157 
L 377.559383 186.504167 
L 377.964098 222.196785 
L 378.368812 236.414767 
L 378.57117 236.646811 
L 378.773527 230.529282 
L 378.975884 218.969262 
L 380.392384 98.791454 
L 380.797099 88.560421 
L 381.201813 80.734206 
L 381.40417 84.615665 
L 382.011242 122.776389 
L 382.820671 208.189754 
L 383.225385 224.791462 
L 383.427743 225.4665 
L 383.6301 219.960724 
L 384.034814 197.030537 
L 385.0466 121.320842 
L 385.451315 104.107379 
L 385.653672 103.622197 
L 385.856029 107.524757 
L 386.058386 115.393168 
L 387.070172 187.558915 
L 387.474887 228.926068 
L 387.879601 251.497641 
L 388.284316 260.927074 
L 388.68903 263.521747 
L 388.891387 257.594073 
L 389.700816 212.682974 
L 390.307888 201.122953 
L 390.914959 187.980812 
L 391.117316 192.917026 
L 391.926745 233.735712 
L 392.533817 279.32185 
L 392.938531 292.08428 
L 393.140888 294.003922 
L 393.343246 293.539834 
L 393.545603 294.025017 
L 393.74796 284.785436 
L 394.355032 242.321347 
L 395.569175 184.057156 
L 395.771532 177.855248 
L 395.973889 179.099849 
L 396.176247 187.685484 
L 396.783318 231.056655 
L 397.188033 270.799497 
L 397.592747 289.194273 
L 397.795104 292.063186 
L 397.997461 289.447418 
L 398.402176 270.736214 
L 400.628105 139.061675 
L 400.830462 141.99387 
L 401.03282 152.267099 
L 401.639891 211.121949 
L 402.044606 256.876846 
L 402.44932 277.845202 
L 402.651677 281.979813 
L 402.854034 280.271121 
L 403.258749 261.496637 
L 403.663463 232.174686 
L 404.877607 122.755295 
L 405.282321 101.575989 
L 405.484678 97.230435 
L 405.687035 98.34846 
L 405.889393 109.191261 
L 406.294107 147.752783 
L 406.901179 227.639277 
L 407.305893 252.468006 
L 407.50825 258.248017 
L 407.710607 257.699548 
L 408.115322 235.781918 
L 409.73418 99.276636 
L 409.936537 94.192761 
L 410.138894 94.045101 
L 410.341251 98.791454 
L 410.948323 136.045102 
L 411.15068 152.456954 
L 411.757752 225.29774 
L 412.162466 250.126471 
L 412.364823 256.813563 
L 412.56718 258.648822 
L 412.971895 240.022001 
L 414.388395 138.808536 
L 414.79311 124.843698 
L 415.197824 117.966747 
L 415.400181 124.949169 
L 416.20961 189.478553 
L 416.614325 236.140535 
L 417.019039 259.935611 
L 417.221396 264.323357 
L 417.423753 263.753791 
L 417.828468 247.088801 
L 419.244968 146.276142 
L 419.649683 132.248013 
L 419.85204 128.303264 
L 420.054397 129.779906 
L 420.256754 138.703065 
L 421.066183 205.974786 
L 421.673255 262.720143 
L 422.077969 279.279662 
L 422.280326 281.832146 
L 422.482684 281.157109 
L 422.685041 280.988348 
L 423.089755 249.324864 
L 423.899184 178.234955 
L 424.708613 137.774882 
L 424.91097 134.505171 
L 425.113327 138.618681 
L 425.518042 165.49362 
L 425.720399 177.623204 
L 426.529828 254.345456 
L 426.934542 273.436365 
L 427.136899 278.035058 
L 427.339257 278.857762 
L 427.541614 279.089806 
L 427.743971 270.251031 
L 428.148685 228.778403 
L 428.755757 165.177195 
L 429.160471 138.829631 
L 429.565186 130.349472 
L 429.9699 134.378605 
L 430.374615 151.043595 
L 430.576972 163.004418 
L 431.386401 241.076746 
L 431.791115 253.649324 
L 431.993472 251.560924 
L 432.398187 230.698042 
L 433.207616 163.827119 
L 434.017044 91.534799 
L 434.219402 86.514206 
L 435.02883 114.675941 
L 435.433545 140.348468 
L 436.040617 213.484581 
L 436.445331 236.625717 
L 436.647688 241.899448 
L 436.850045 241.203315 
L 437.25476 220.045103 
L 437.659474 184.183727 
L 438.468903 108.727173 
L 438.67126 98.728171 
L 438.873617 99.71963 
L 439.075975 107.018481 
L 439.278332 106.554392 
L 439.480689 108.853739 
L 439.885403 127.902459 
L 440.290118 153.321847 
L 440.897189 228.715118 
L 441.301904 251.62421 
L 441.504261 257.193271 
L 441.706618 257.74174 
L 442.111333 242.616677 
L 442.920762 189.204319 
L 443.527833 153.406225 
L 444.134905 130.054139 
L 444.337262 127.396182 
L 444.539619 133.9778 
L 445.146691 180.238975 
L 445.753762 251.265597 
L 446.158477 273.03556 
L 446.360834 278.119441 
L 446.563191 276.073234 
L 446.967906 256.665897 
L 448.586763 143.955701 
L 448.991478 130.412755 
L 449.193835 128.029032 
L 449.396192 134.863787 
L 450.003264 176.315317 
L 450.812693 258.480061 
L 451.217407 272.128478 
L 451.419764 272.25505 
L 451.824479 254.619689 
L 452.43155 202.873832 
L 453.038622 159.861276 
L 453.443336 142.373581 
L 453.848051 134.294221 
L 454.050408 137.753788 
L 454.252765 148.005928 
L 454.65748 177.159116 
L 454.859837 185.829131 
L 455.669266 252.257056 
L 456.07398 266.158615 
L 456.276337 267.719641 
L 456.478694 265.673433 
L 456.681052 262.488099 
L 456.883409 254.28217 
L 457.288123 226.563435 
L 457.692838 215.319839 
L 457.895195 216.037067 
L 458.299909 221.943647 
L 458.502267 221.795983 
L 458.906981 217.872325 
L 459.109338 218.420794 
L 459.514053 222.681969 
L 459.71641 227.09081 
L 460.728196 286.304273 
L 461.13291 290.839683 
L 461.537625 287.443399 
L 461.739982 278.288196 
L 462.144696 242.89091 
L 463.561197 171.927574 
L 463.763554 164.481063 
L 463.965911 165.683475 
L 464.572983 185.660372 
L 465.382412 254.36655 
L 465.584769 261.454445 
L 465.787126 264.23898 
L 465.989483 261.749775 
L 467.608341 166.822601 
L 468.620127 145.094827 
L 468.822484 148.301255 
L 469.429556 175.218382 
L 470.036627 233.398193 
L 470.441342 251.645305 
L 470.643699 254.345456 
L 470.846056 251.708591 
L 471.857842 199.477549 
L 472.869628 168.44691 
L 473.071985 168.95319 
L 473.274343 167.117928 
L 473.4767 168.404721 
L 473.679057 172.286187 
L 473.881414 179.036562 
L 474.083772 180.21788 
L 474.286129 188.086287 
L 474.8932 241.540834 
L 475.297915 258.205828 
L 475.500272 259.914517 
L 475.702629 257.82612 
L 476.107344 232.82863 
L 476.512058 210.257057 
L 477.321487 177.960723 
L 477.726201 157.287694 
L 477.928558 153.638269 
L 478.333273 158.447914 
L 478.53563 163.025512 
L 479.142702 188.592566 
L 479.952131 258.100353 
L 480.356845 268.204823 
L 480.559202 267.782924 
L 480.963917 245.126973 
L 482.785131 113.452431 
L 482.987489 107.398191 
L 483.189846 104.69804 
L 483.392203 110.478047 
L 483.999275 151.360017 
L 484.606346 224.285184 
L 485.011061 248.101358 
L 485.213418 252.615673 
L 485.415775 253.586038 
L 485.82049 233.313812 
L 486.225204 201.312808 
L 487.23699 109.043594 
L 487.439347 105.879355 
L 487.844062 112.608639 
L 488.248776 131.699548 
L 489.260562 211.206329 
L 489.665277 244.1777 
L 490.069991 259.661378 
L 490.272348 262.0662 
L 490.474705 260.905979 
L 490.677063 259.091815 
L 490.87942 249.113914 
L 491.891206 167.37107 
L 492.29592 149.208337 
L 492.498277 141.635254 
L 492.700635 139.567952 
L 492.902992 141.234455 
L 493.105349 146.170664 
L 493.712421 180.534305 
L 494.52185 254.345456 
L 495.128921 273.077749 
L 495.331278 273.225415 
L 495.533636 272.592566 
L 495.735993 264.850728 
L 496.950136 171.041586 
L 497.557208 146.065192 
L 497.759565 142.62672 
L 497.961922 145.917525 
L 498.568994 178.213861 
L 499.378422 253.881368 
L 499.58078 260.884882 
L 499.783137 263.43737 
L 499.985494 260.041086 
L 500.187851 251.307786 
L 500.794923 213.463486 
L 500.99728 208.231944 
L 501.401995 194.81557 
L 501.806709 183.276645 
L 502.009066 182.812555 
L 502.211423 184.922049 
L 502.413781 185.575991 
L 502.616138 183.867302 
L 503.020852 193.824107 
L 503.223209 194.39367 
L 503.425567 202.09332 
L 504.032638 254.050126 
L 504.437353 267.445408 
L 504.63971 269.111905 
L 504.842067 266.685987 
L 505.246782 241.709595 
L 505.651496 217.302762 
L 507.270354 142.331392 
L 507.472711 139.146059 
L 507.675068 142.62672 
L 508.28214 171.358011 
L 508.889211 230.824611 
L 509.293926 248.37559 
L 509.496283 251.982824 
L 509.69864 250.105377 
L 510.103354 225.972778 
L 511.722212 116.954193 
L 512.126927 98.749265 
L 512.329284 100.37358 
L 512.936355 135.602108 
L 513.34107 175.51371 
L 513.745784 220.066199 
L 514.150499 243.354998 
L 514.352856 249.071722 
L 514.555213 249.578002 
L 514.75757 240.464995 
L 516.174071 141.297738 
L 516.376428 140.179707 
L 516.781142 149.735708 
L 516.9835 146.930085 
L 517.185857 147.478551 
L 517.590571 165.620189 
L 517.792928 169.965746 
L 517.995286 180.935107 
L 518.4 221.585033 
L 518.4 221.585033 
" clip-path="url(#p25bc09aa55)" style="fill: none; stroke: #1f77b4; stroke-width: 1.5; stroke-linecap: square"/>
   </g>
   <g id="line2d_14">
    <path d="M 72 281.897781 
L 72.202357 281.896922 
L 72.404714 294.842787 
L 72.607072 294.912478 
L 72.809429 287.622419 
L 73.4165 242.641177 
L 73.618858 242.796668 
L 75.035358 158.130951 
L 75.237715 156.362097 
L 75.440073 157.747928 
L 75.844787 179.597427 
L 76.047144 184.183631 
L 76.654216 253.455963 
L 77.05893 276.127411 
L 77.261287 285.548805 
L 77.463645 285.013706 
L 77.666002 278.840211 
L 78.070716 236.501173 
L 78.273073 237.039562 
L 78.677788 222.209948 
L 78.880145 212.000212 
L 79.284859 177.258167 
L 79.689574 153.836339 
L 79.891931 148.756449 
L 80.094288 149.642193 
L 80.903717 189.245886 
L 81.510789 253.730552 
L 81.915503 276.829599 
L 82.320218 287.007486 
L 82.522575 284.125931 
L 82.927289 273.155898 
L 83.129646 264.363963 
L 83.332004 244.858232 
L 83.534361 245.78405 
L 83.939075 228.178094 
L 84.141432 229.481329 
L 84.34379 233.50753 
L 84.546147 240.789019 
L 84.950861 244.96454 
L 85.153218 243.61523 
L 85.355576 248.278663 
L 85.557933 250.214337 
L 85.76029 245.394571 
L 86.165005 276.194314 
L 86.569719 297.672837 
L 86.772076 299.397721 
L 86.974433 302.760697 
L 87.176791 298.565757 
L 87.379148 297.43994 
L 87.581505 295.596865 
L 87.986219 282.546188 
L 88.188577 265.597757 
L 88.593291 259.290498 
L 88.795648 259.06861 
L 88.998005 255.409711 
L 89.200363 257.034993 
L 89.605077 247.599989 
L 90.009791 230.620948 
L 90.212149 236.508247 
L 90.414506 234.599662 
L 90.616863 231.298946 
L 91.426292 301.454451 
L 91.831006 303.802374 
L 92.235721 290.662559 
L 92.640435 250.713944 
L 92.842792 248.155795 
L 93.04515 248.969157 
L 93.247507 246.06718 
L 93.652221 236.35053 
L 93.854578 240.011441 
L 94.056936 235.393144 
L 94.259293 237.238577 
L 94.46165 233.577634 
L 94.664007 224.290265 
L 94.866364 225.461359 
L 95.271079 236.429172 
L 95.473436 228.634188 
L 95.87815 276.617495 
L 96.282865 301.215185 
L 96.687579 300.38788 
L 96.889937 298.416681 
L 97.294651 268.931873 
L 97.497008 250.702211 
L 97.699365 246.778156 
L 97.901723 248.419682 
L 98.306437 239.411409 
L 98.508794 236.987342 
L 98.711151 239.610655 
L 98.913509 232.015058 
L 99.115866 231.267648 
L 99.52058 219.216206 
L 99.722937 219.090298 
L 100.127652 233.029957 
L 100.330009 228.202905 
L 100.734723 276.621968 
L 101.139438 298.899614 
L 101.341795 301.108989 
L 101.544152 301.959215 
L 101.74651 297.460484 
L 101.948867 287.875577 
L 102.353581 247.940641 
L 102.758296 251.209106 
L 103.16301 240.332694 
L 103.365367 241.782762 
L 103.770082 230.777003 
L 104.377153 213.286529 
L 104.57951 213.500106 
L 104.781868 219.122599 
L 104.984225 228.5095 
L 105.186582 226.090873 
L 105.793654 285.844869 
L 105.996011 296.210459 
L 106.198368 299.815661 
L 106.400725 300.027757 
L 106.603083 297.053117 
L 106.80544 285.438239 
L 107.210154 250.100613 
L 107.412511 244.429169 
L 107.614869 245.212161 
L 107.817226 243.658107 
L 108.22194 231.215546 
L 108.829012 198.53126 
L 109.031369 197.691458 
L 109.233726 200.567776 
L 109.436083 207.433621 
L 109.638441 208.315996 
L 110.043155 225.14743 
L 110.852584 290.46447 
L 111.054941 296.681019 
L 111.257298 297.309594 
L 111.459655 294.737726 
L 111.662013 286.791955 
L 112.066727 248.782178 
L 112.269084 245.921349 
L 112.673799 229.076625 
L 112.876156 216.168068 
L 113.078513 210.401881 
L 113.483228 188.632862 
L 114.090299 167.183637 
L 114.292656 172.152275 
L 114.697371 199.66892 
L 114.899728 201.951089 
L 115.709157 274.599174 
L 116.113871 288.752657 
L 116.316228 291.67635 
L 116.9233 273.322326 
L 118.137443 174.410608 
L 118.744515 141.395937 
L 118.946872 138.286663 
L 119.149229 141.790431 
L 119.351587 150.486595 
L 120.161015 220.566091 
L 120.56573 258.755287 
L 121.172801 284.019697 
L 121.375159 284.109655 
L 121.577516 281.175967 
L 121.779873 274.352418 
L 122.791659 212.346105 
L 123.196374 194.906193 
L 123.398731 189.726916 
L 123.601088 187.82051 
L 123.803445 193.527267 
L 124.005802 194.3226 
L 124.410517 210.488214 
L 124.612874 213.177157 
L 125.422303 285.911208 
L 125.62466 292.339162 
L 125.827017 293.22943 
L 126.029374 290.809573 
L 126.231732 281.0481 
L 126.636446 242.178339 
L 126.838803 238.117629 
L 127.648232 193.43669 
L 128.457661 143.728546 
L 128.660018 144.443786 
L 128.862375 151.278061 
L 130.278876 276.866206 
L 130.68359 292.064974 
L 130.885947 289.048574 
L 131.088305 280.058364 
L 131.493019 236.88831 
L 131.695376 231.770266 
L 132.302448 194.442118 
L 133.111877 131.439624 
L 133.516591 125.897684 
L 134.32602 159.369023 
L 134.933092 246.85494 
L 135.337806 268.427525 
L 135.540163 274.841977 
L 135.74252 274.224385 
L 135.944878 266.590261 
L 136.349592 224.923918 
L 136.754306 214.348767 
L 136.956664 198.050438 
L 137.159021 215.924799 
L 137.361378 196.276374 
L 137.563735 192.610214 
L 137.766092 194.048765 
L 137.96845 192.948329 
L 138.170807 196.424472 
L 138.373164 191.238894 
L 138.575521 191.30183 
L 138.777879 201.822894 
L 139.182593 208.03677 
L 139.789665 268.280223 
L 140.194379 283.91477 
L 140.396736 285.648106 
L 140.599093 282.693528 
L 140.801451 272.641214 
L 141.206165 233.885572 
L 141.408522 225.312324 
L 141.813237 217.69062 
L 142.015594 210.506971 
L 142.217951 211.072735 
L 142.420308 210.049161 
L 142.825023 203.914131 
L 143.02738 207.063482 
L 143.229737 205.879267 
L 143.432094 209.074451 
L 143.634451 216.199366 
L 144.039166 219.833502 
L 144.44388 258.96764 
L 144.848595 280.666018 
L 145.050952 284.588212 
L 145.253309 283.590973 
L 145.455666 280.474132 
L 145.658024 271.686106 
L 146.265095 220.376412 
L 146.467452 219.902507 
L 146.66981 217.801263 
L 146.872167 209.353744 
L 147.074524 209.927186 
L 147.276881 212.024535 
L 147.479238 200.204213 
L 147.681596 198.630062 
L 147.883953 219.476752 
L 148.08631 213.386184 
L 148.288667 219.022032 
L 148.693382 234.014643 
L 148.895739 232.414684 
L 149.300453 261.99358 
L 149.705168 284.325808 
L 150.109882 289.102675 
L 150.514597 282.801896 
L 150.716954 278.722008 
L 151.121668 260.718216 
L 151.526383 234.240667 
L 151.72874 229.348999 
L 151.931097 229.400674 
L 152.133454 228.617602 
L 152.335811 230.41384 
L 152.538169 235.245419 
L 152.740526 234.710846 
L 152.942883 230.888363 
L 153.14524 233.83438 
L 153.347597 232.602313 
L 153.549955 236.789179 
L 153.752312 233.290378 
L 153.954669 242.738793 
L 154.561741 280.253698 
L 154.966455 287.010453 
L 155.168812 287.899516 
L 155.37117 285.685861 
L 155.573527 279.036833 
L 155.775884 281.144671 
L 156.382956 224.825011 
L 156.78767 190.130499 
L 157.597099 160.476824 
L 158.001813 154.752039 
L 158.608885 178.782043 
L 159.620671 272.089577 
L 159.823028 279.298404 
L 160.025385 278.640046 
L 160.227743 271.19581 
L 160.632457 225.076083 
L 160.834814 222.702474 
L 161.644243 186.773232 
L 162.251315 169.256613 
L 162.453672 168.721581 
L 162.858386 180.307771 
L 163.263101 200.833979 
L 163.465458 204.66461 
L 164.072529 265.331227 
L 164.477244 284.922652 
L 164.679601 290.232215 
L 164.881958 284.416446 
L 165.084316 274.371468 
L 165.48903 234.275054 
L 165.893744 225.815394 
L 166.500816 206.897492 
L 167.310245 155.692903 
L 167.512602 161.911072 
L 167.714959 172.135473 
L 168.119674 196.524479 
L 168.322031 201.094467 
L 169.13146 271.780069 
L 169.333817 279.13402 
L 169.536174 282.222392 
L 169.738531 281.454089 
L 169.940888 269.143745 
L 170.54796 216.297958 
L 171.559746 163.87734 
L 171.762103 160.101439 
L 172.166818 144.816865 
L 172.369175 143.50357 
L 172.773889 162.706089 
L 173.380961 213.250843 
L 173.785675 261.098231 
L 174.19039 283.934634 
L 174.392747 288.100931 
L 174.595104 286.828408 
L 174.797461 278.446346 
L 175.202176 244.734469 
L 175.404533 229.217794 
L 175.60689 225.248932 
L 176.821034 164.09323 
L 177.225748 152.76591 
L 177.630462 168.976821 
L 177.83282 192.097962 
L 178.035177 188.87644 
L 178.642248 263.930684 
L 179.046963 285.480441 
L 179.24932 292.146942 
L 179.451677 292.323668 
L 179.654034 283.218452 
L 180.058749 243.542153 
L 180.261106 238.928876 
L 180.66582 212.131498 
L 181.475249 158.984035 
L 181.879964 141.302333 
L 182.082321 139.466376 
L 182.284678 142.231995 
L 182.89175 180.65131 
L 183.296464 222.114162 
L 183.701179 255.393733 
L 184.105893 269.439598 
L 184.30825 270.91301 
L 184.712965 266.976943 
L 184.915322 258.012647 
L 185.927108 156.751182 
L 186.129465 143.934895 
L 186.331822 139.547197 
L 186.53418 138.084422 
L 186.736537 141.902316 
L 186.938894 148.250262 
L 187.141251 160.732821 
L 187.343608 165.625754 
L 187.545966 185.305952 
L 187.748323 188.714321 
L 188.557752 254.718586 
L 188.962466 266.427261 
L 189.164823 268.511704 
L 189.771895 263.289664 
L 190.581324 183.161232 
L 190.986038 153.625133 
L 191.188395 148.603509 
L 191.390752 148.72871 
L 191.795467 161.99083 
L 191.997824 168.595682 
L 192.807253 214.248736 
L 193.211967 247.627526 
L 193.616682 268.218497 
L 193.819039 272.999504 
L 194.021396 274.046044 
L 194.223753 270.34586 
L 194.426111 263.933157 
L 194.628468 265.02334 
L 195.437897 194.673675 
L 195.640254 186.082198 
L 195.842611 186.509438 
L 196.247325 200.262967 
L 196.449683 202.692458 
L 196.65204 202.329651 
L 196.854397 202.365289 
L 197.056754 212.813776 
L 197.461469 219.155801 
L 198.06854 269.27192 
L 198.270898 278.665331 
L 198.675612 285.447543 
L 199.080326 269.391424 
L 199.485041 230.381122 
L 199.687398 218.61801 
L 199.889755 215.34365 
L 201.103898 162.868016 
L 201.306256 157.983573 
L 201.508613 158.011107 
L 201.71097 161.120951 
L 202.115684 181.670451 
L 202.318042 187.829657 
L 203.127471 263.007685 
L 203.329828 271.609033 
L 203.532185 274.884447 
L 203.734542 271.53478 
L 203.936899 260.949238 
L 204.341614 219.934277 
L 204.543971 209.379522 
L 204.948685 199.635382 
L 205.555757 172.32597 
L 205.758114 164.572223 
L 205.960471 161.638131 
L 206.567543 171.280076 
L 206.972257 188.801726 
L 207.174615 194.535886 
L 207.984044 264.249956 
L 208.186401 271.250225 
L 208.388758 273.143857 
L 208.591115 271.406221 
L 208.793472 260.262339 
L 209.198187 219.672004 
L 209.400544 209.145721 
L 209.602901 207.382596 
L 210.41233 168.489976 
L 210.817044 137.621884 
L 211.221759 128.412132 
L 211.626473 153.907228 
L 212.031188 173.484649 
L 212.638259 244.07068 
L 213.042974 264.63373 
L 213.245331 266.658446 
L 213.447688 266.075526 
L 213.650045 257.693259 
L 214.05476 217.121211 
L 214.661831 186.470639 
L 215.47126 123.635528 
L 215.875975 108.354626 
L 216.078332 103.948307 
L 216.280689 108.168224 
L 216.483046 117.027767 
L 216.685403 140.383736 
L 216.887761 149.207485 
L 217.899547 252.726447 
L 218.101904 259.124854 
L 218.304261 261.838974 
L 218.506618 261.249163 
L 218.708976 261.388861 
L 218.911333 257.862545 
L 219.518404 194.399785 
L 219.923119 166.395406 
L 220.327833 146.744388 
L 220.53019 151.741323 
L 220.732548 159.941709 
L 221.339619 197.240885 
L 221.541976 205.68099 
L 221.744334 209.18803 
L 221.946691 216.29372 
L 222.351405 250.968767 
L 222.75612 270.625462 
L 223.160834 274.735454 
L 223.565549 271.545283 
L 223.767906 267.857805 
L 224.374977 220.177178 
L 224.577335 216.155153 
L 224.779692 215.699484 
L 224.982049 212.285822 
L 225.184406 217.419992 
L 225.589121 219.534497 
L 225.791478 225.965403 
L 225.993835 224.486038 
L 226.398549 239.059597 
L 226.600907 237.622841 
L 227.410335 293.508648 
L 227.612693 297.63926 
L 227.81505 296.754624 
L 228.017407 294.424713 
L 228.219764 285.452971 
L 228.624479 254.186082 
L 229.029193 244.448466 
L 229.23155 244.368907 
L 229.838622 214.328519 
L 230.648051 179.266223 
L 230.850408 178.174501 
L 231.255122 195.964039 
L 231.659837 222.279774 
L 232.064551 269.7169 
L 232.469266 288.479975 
L 232.671623 292.809222 
L 232.87398 291.261762 
L 233.076337 284.10137 
L 233.481052 246.316874 
L 235.302267 172.224311 
L 235.504624 172.425354 
L 235.706981 178.285817 
L 236.51641 220.134138 
L 236.921124 266.942111 
L 237.325839 285.975581 
L 237.528196 289.267617 
L 237.730553 288.393637 
L 237.93291 279.298744 
L 238.337625 244.129968 
L 239.349411 205.28565 
L 239.754125 192.993776 
L 239.956482 191.681157 
L 240.15884 188.29964 
L 240.361197 182.914809 
L 240.563554 189.013333 
L 241.372983 232.323457 
L 241.777697 273.510778 
L 242.182412 290.713552 
L 242.384769 293.776062 
L 242.587126 291.722646 
L 242.789483 281.095229 
L 243.194198 248.808034 
L 243.598912 236.949866 
L 244.813055 180.219424 
L 245.21777 167.891101 
L 245.420127 172.920798 
L 246.229556 216.822952 
L 246.63427 263.463859 
L 247.241342 290.755767 
L 247.443699 290.05331 
L 247.646056 280.672099 
L 248.050771 243.230636 
L 248.455485 223.436803 
L 249.669628 136.626849 
L 249.871985 135.680763 
L 250.074343 140.792993 
L 250.2767 142.684511 
L 250.883772 179.79814 
L 251.086129 195.523005 
L 251.490843 242.546346 
L 252.097915 270.276694 
L 252.300272 271.915414 
L 252.502629 270.691186 
L 252.704986 266.932563 
L 252.907344 258.929885 
L 253.91913 155.437425 
L 254.323844 141.348789 
L 254.728558 135.842425 
L 254.930916 134.569274 
L 255.133273 136.369648 
L 255.942702 200.84657 
L 256.347416 241.679607 
L 256.752131 267.755024 
L 257.156845 274.926111 
L 257.359202 275.437719 
L 257.561559 274.433521 
L 257.763917 270.640117 
L 258.370988 211.512901 
L 258.97806 170.577203 
L 259.382774 158.469438 
L 259.585131 159.599875 
L 259.787489 158.996223 
L 259.989846 162.145603 
L 260.192203 168.11378 
L 260.596917 191.043037 
L 261.406346 266.229857 
L 261.811061 279.608232 
L 262.013418 277.284408 
L 262.215775 270.445321 
L 262.62049 235.221147 
L 263.025204 226.047563 
L 263.429918 220.788904 
L 263.632276 221.817205 
L 263.834633 225.228975 
L 264.03699 225.952863 
L 264.239347 225.156686 
L 264.441704 227.612638 
L 264.644062 227.043947 
L 264.846419 227.053228 
L 265.251133 240.593195 
L 265.45349 239.085783 
L 265.655848 249.010166 
L 266.060562 280.059063 
L 266.262919 289.891271 
L 266.667634 294.608789 
L 266.869991 290.867723 
L 267.274705 271.259413 
L 267.477063 250.389212 
L 267.67942 246.279607 
L 268.488849 218.166695 
L 268.691206 216.896423 
L 269.298277 208.341037 
L 269.500635 207.514296 
L 269.702992 207.76216 
L 270.107706 221.561787 
L 270.310063 223.751898 
L 271.119492 280.875001 
L 271.32185 283.462228 
L 271.524207 283.910592 
L 271.726564 281.919715 
L 271.928921 275.109039 
L 272.131278 252.392503 
L 272.73835 225.416691 
L 273.345422 183.179503 
L 273.547779 173.926512 
L 273.750136 152.634744 
L 273.952493 146.346121 
L 274.15485 146.757313 
L 274.357208 139.559673 
L 274.559565 136.459504 
L 275.368994 176.337789 
L 275.773708 228.952865 
L 275.976065 248.468519 
L 276.38078 260.026028 
L 276.583137 260.137753 
L 276.785494 252.28385 
L 277.392566 200.065661 
L 277.594923 193.716167 
L 278.201995 156.881939 
L 278.404352 152.019612 
L 278.606709 137.490897 
L 278.809066 141.044581 
L 279.011423 132.235935 
L 279.213781 130.01789 
L 279.416138 132.843134 
L 279.618495 141.840014 
L 281.034995 272.57456 
L 281.237353 276.143905 
L 281.43971 276.831995 
L 281.844424 258.158298 
L 282.653853 198.067456 
L 283.058568 182.555599 
L 283.867996 147.596351 
L 284.070354 147.855532 
L 284.272711 150.230047 
L 285.08214 216.04586 
L 285.486854 256.039853 
L 285.891568 279.749844 
L 286.296283 288.514603 
L 286.49864 285.968071 
L 286.700997 278.196796 
L 286.903354 274.896917 
L 287.712783 199.278257 
L 288.117498 172.591869 
L 288.724569 147.074856 
L 288.926927 146.172727 
L 289.129284 150.678891 
L 289.331641 158.376721 
L 289.938713 198.802824 
L 290.343427 245.490956 
L 290.748141 266.142743 
L 290.950499 273.244895 
L 291.152856 275.849488 
L 291.355213 273.821939 
L 291.759927 265.595463 
L 292.771714 161.272603 
L 293.176428 130.266505 
L 293.378785 128.203906 
L 293.581142 127.892232 
L 293.7835 123.167435 
L 293.985857 125.625572 
L 294.188214 133.215533 
L 294.795286 170.312441 
L 295.2 225.509648 
L 295.604714 252.352747 
L 295.807072 258.201612 
L 296.009429 257.551731 
L 296.211786 251.527107 
L 297.223572 156.932252 
L 297.628286 116.14128 
L 298.033001 86.899402 
L 298.437715 82.36876 
L 298.640073 83.195989 
L 299.044787 91.537836 
L 299.449501 122.257816 
L 299.651859 137.915616 
L 300.056573 203.000752 
L 300.461287 229.684384 
L 300.663645 235.209209 
L 300.866002 237.136137 
L 301.068359 232.402308 
L 301.473073 201.151039 
L 302.484859 96.556352 
L 302.687217 83.631652 
L 302.889574 77.926955 
L 303.091931 83.788001 
L 303.294288 95.141763 
L 303.496646 98.059022 
L 303.90136 120.83068 
L 304.508432 166.529981 
L 304.913146 217.895662 
L 305.31786 245.379859 
L 305.520218 249.615651 
L 305.722575 250.235576 
L 306.127289 229.541286 
L 307.341432 139.802681 
L 307.948504 113.824177 
L 308.150861 120.436885 
L 308.555576 140.921532 
L 309.365005 192.219056 
L 309.972076 252.630241 
L 310.174433 259.838857 
L 310.579148 264.113266 
L 310.781505 260.193052 
L 312.400363 120.854222 
L 312.60272 117.829864 
L 312.805077 118.574804 
L 313.007434 113.779528 
L 313.412149 127.212312 
L 313.816863 156.214055 
L 314.01922 161.177237 
L 315.031006 250.469869 
L 315.435721 253.980813 
L 315.638078 248.810859 
L 316.24515 212.233825 
L 316.649864 204.277403 
L 317.054578 186.407266 
L 317.256936 179.232592 
L 317.459293 180.476151 
L 317.66165 175.630898 
L 317.864007 178.214236 
L 318.066364 178.760119 
L 318.268722 177.715597 
L 318.673436 198.807359 
L 318.875793 200.960334 
L 319.685222 264.055795 
L 320.089937 275.865654 
L 320.292294 276.679145 
L 320.494651 274.827675 
L 320.697008 264.000893 
L 320.899365 261.683522 
L 321.30408 226.148043 
L 321.506437 215.882183 
L 322.113509 168.183144 
L 322.315866 161.936127 
L 322.518223 151.605145 
L 322.72058 150.194721 
L 322.922937 151.536749 
L 323.125295 151.270404 
L 323.530009 173.352287 
L 323.934723 197.487278 
L 324.339438 239.100671 
L 324.744152 261.502529 
L 325.148867 268.809126 
L 325.351224 267.050569 
L 325.755938 259.088032 
L 326.970082 135.012467 
L 327.172439 125.970912 
L 327.374796 126.204205 
L 327.577153 130.001646 
L 327.77951 125.768497 
L 327.981868 125.488215 
L 328.386582 149.247706 
L 328.993654 217.821579 
L 329.398368 252.726101 
L 329.600725 264.58159 
L 330.00544 263.564301 
L 330.207797 257.783922 
L 330.410154 247.703045 
L 331.017226 193.344142 
L 331.42194 167.565154 
L 331.624297 158.331162 
L 331.826655 142.14599 
L 332.029012 135.586294 
L 332.231369 141.260118 
L 332.636083 143.893046 
L 333.040798 158.048612 
L 333.243155 181.456153 
L 333.445512 185.582171 
L 333.647869 199.305397 
L 334.052584 246.838081 
L 334.457298 271.926832 
L 334.862013 277.407719 
L 335.266727 252.885052 
L 336.278513 192.732647 
L 336.885585 175.172013 
L 337.087942 179.610319 
L 337.290299 170.357372 
L 337.492656 173.319005 
L 337.695014 182.89918 
L 337.897371 185.451729 
L 338.099728 202.161515 
L 338.302085 206.830539 
L 338.504442 217.429611 
L 338.909157 256.995621 
L 339.313871 275.161705 
L 339.516228 277.338227 
L 339.718586 274.348291 
L 341.337443 181.159891 
L 341.539801 176.930669 
L 341.944515 148.572912 
L 342.349229 142.436864 
L 342.551587 143.428734 
L 342.753944 145.607242 
L 343.361015 181.278957 
L 343.76573 230.858625 
L 344.170444 252.213586 
L 344.372801 254.198638 
L 344.575159 254.765203 
L 344.979873 232.572517 
L 346.396374 118.374408 
L 346.598731 110.636171 
L 346.801088 109.949862 
L 347.003445 107.448825 
L 347.205802 108.232584 
L 347.40816 110.24706 
L 347.610517 117.887547 
L 348.015231 148.330942 
L 348.217588 162.106515 
L 348.622303 220.451568 
L 349.027017 250.772491 
L 349.431732 258.756882 
L 349.836446 240.674861 
L 350.038803 225.181097 
L 350.443518 180.083599 
L 350.645875 167.13158 
L 351.050589 132.217685 
L 351.455304 113.503386 
L 351.657661 108.146053 
L 352.062375 105.010431 
L 352.264733 107.484504 
L 352.46709 115.127066 
L 353.074161 169.296556 
L 353.681233 242.293409 
L 354.085947 259.604183 
L 354.288305 265.020758 
L 354.490662 266.821812 
L 354.895376 260.440228 
L 355.704805 141.81116 
L 356.109519 118.465693 
L 356.311877 111.19726 
L 356.514234 108.038185 
L 356.716591 102.365822 
L 356.918948 99.978683 
L 357.121306 103.244191 
L 357.323663 112.96953 
L 357.930734 161.327076 
L 358.537806 229.607757 
L 358.94252 252.659101 
L 359.144878 254.343784 
L 359.347235 258.211486 
L 359.751949 255.5899 
L 360.763735 117.955174 
L 361.16845 97.644081 
L 361.370807 96.372385 
L 361.775521 89.521238 
L 361.977879 90.868905 
L 362.382593 108.631018 
L 362.989665 171.777209 
L 363.394379 217.815363 
L 363.799093 234.783161 
L 364.001451 237.896279 
L 364.203808 232.511662 
L 364.608522 206.160874 
L 365.417951 103.427971 
L 365.822665 76.471497 
L 366.025023 70.368315 
L 366.429737 67.791064 
L 366.632094 67.70925 
L 367.036809 74.558757 
L 367.239166 85.406113 
L 367.64388 119.070854 
L 368.048595 184.503262 
L 368.453309 214.193984 
L 368.858024 227.971489 
L 369.060381 224.417071 
L 369.465095 198.286055 
L 370.072167 127.052829 
L 370.476881 91.933617 
L 370.881596 75.284473 
L 371.083953 73.502169 
L 371.488667 77.328471 
L 371.893382 92.169141 
L 372.500453 139.154402 
L 373.107525 209.44857 
L 373.714597 235.022663 
L 373.916954 234.747341 
L 374.119311 229.798035 
L 374.321668 229.205305 
L 375.333454 112.828316 
L 375.738169 101.990097 
L 375.940526 100.744564 
L 376.142883 101.184828 
L 376.34524 102.874053 
L 376.749955 127.567167 
L 377.154669 161.453273 
L 377.761741 205.087637 
L 378.166455 235.498189 
L 378.368812 239.918141 
L 378.57117 239.899805 
L 378.773527 235.323956 
L 379.178241 208.071531 
L 379.98767 128.340833 
L 380.594742 100.492354 
L 380.797099 97.745964 
L 380.999456 97.087068 
L 381.201813 94.141345 
L 381.40417 93.426714 
L 381.606528 100.152705 
L 382.213599 144.171822 
L 382.618314 198.024707 
L 383.023028 221.990592 
L 383.225385 228.392811 
L 383.427743 230.335992 
L 383.6301 225.504455 
L 384.237171 185.204015 
L 384.237171 185.204015 
" clip-path="url(#p25bc09aa55)" style="fill: none; stroke: #ff7f0e; stroke-width: 1.5; stroke-linecap: square"/>
   </g>
   <g id="line2d_15">
    <path d="M 384.439529 153.213742 
L 384.641886 154.801783 
L 385.0466 168.264814 
L 385.451315 195.313255 
L 386.058386 250.510597 
L 386.463101 264.372345 
L 386.665458 264.949344 
L 386.867815 259.43522 
L 387.272529 228.25583 
L 388.68903 102.351744 
L 389.093744 85.672445 
L 389.296102 82.706167 
L 389.498459 83.209124 
L 389.700816 87.294274 
L 390.10553 106.320593 
L 390.510245 140.620009 
L 391.522031 241.04126 
L 391.926745 260.272313 
L 392.129102 263.379873 
L 392.33146 262.583511 
L 392.736174 255.549909 
L 393.343246 240.722407 
L 393.950317 219.133582 
L 394.759746 182.238057 
L 395.366818 156.095194 
L 395.569175 152.56224 
L 395.771532 153.075097 
L 395.973889 158.003168 
L 396.378604 183.102309 
L 397.188033 252.226966 
L 397.592747 264.926628 
L 397.795104 264.112132 
L 397.997461 258.332769 
L 398.402176 234.337866 
L 400.021034 118.991315 
L 400.223391 112.129986 
L 400.425748 109.107845 
L 400.628105 109.124646 
L 400.830462 112.280075 
L 401.03282 119.240455 
L 401.437534 145.633014 
L 402.651677 255.487594 
L 402.854034 262.853642 
L 403.056392 265.278613 
L 403.258749 263.69086 
L 403.663463 252.79888 
L 404.270535 225.34758 
L 405.282321 167.708739 
L 405.889393 137.175187 
L 406.09175 133.743314 
L 406.294107 134.125902 
L 406.496464 137.998596 
L 406.698821 145.978841 
L 407.103536 176.61487 
L 407.912965 249.264538 
L 408.317679 263.500351 
L 408.520036 263.307209 
L 408.722393 258.527548 
L 409.127108 238.146335 
L 410.948323 122.491545 
L 411.15068 118.885471 
L 411.353037 118.697474 
L 411.555394 121.374237 
L 411.757752 127.594355 
L 412.162466 153.406148 
L 413.376609 258.295655 
L 413.578966 263.960883 
L 413.781324 264.866389 
L 413.983681 261.944446 
L 414.388395 247.747454 
L 415.197824 204.183886 
L 416.411967 133.740104 
L 416.614325 129.890914 
L 416.816682 129.846156 
L 417.019039 132.995408 
L 417.221396 139.882983 
L 417.626111 168.231817 
L 418.435539 244.224303 
L 418.840254 262.252351 
L 419.042611 264.065368 
L 419.244968 261.220017 
L 419.649683 244.206797 
L 420.661469 179.513485 
L 421.470898 128.781815 
L 421.673255 122.926093 
L 421.875612 121.163787 
L 422.077969 122.464094 
L 422.280326 126.841482 
L 422.482684 135.278042 
L 422.887398 165.987606 
L 423.696827 243.30555 
L 424.101541 262.475309 
L 424.303898 264.865979 
L 424.506256 262.985847 
L 424.91097 249.673965 
L 425.720399 205.418542 
L 426.934542 133.134648 
L 427.136899 128.703589 
L 427.339257 128.184118 
L 427.541614 130.795458 
L 427.743971 136.919024 
L 428.148685 163.39787 
L 429.160471 253.084067 
L 429.362829 261.100807 
L 429.565186 264.179465 
L 429.767543 262.526885 
L 429.9699 256.773627 
L 430.374615 236.334097 
L 431.588758 157.600283 
L 431.993472 132.909691 
L 432.19583 125.543252 
L 432.398187 122.568579 
L 432.600544 122.979746 
L 432.802901 126.327644 
L 433.005258 133.397187 
L 433.409973 161.48116 
L 434.421759 252.599666 
L 434.624116 261.081411 
L 434.826473 264.620318 
L 435.02883 263.628231 
L 435.231188 258.958291 
L 435.635902 241.432108 
L 436.647688 181.471747 
L 437.457117 133.31914 
L 437.659474 128.248158 
L 437.861831 127.220187 
L 438.064189 129.341321 
L 438.266546 134.806617 
L 438.67126 159.592109 
L 439.683046 250.868768 
L 440.087761 264.014452 
L 440.290118 263.344681 
L 440.492475 258.502821 
L 440.897189 239.384442 
L 442.111333 161.862165 
L 442.718404 127.768614 
L 442.920762 123.7136 
L 443.123119 123.35663 
L 443.325476 125.938559 
L 443.527833 131.970865 
L 443.932548 157.809394 
L 444.944334 250.221556 
L 445.349048 264.223909 
L 445.551405 264.073846 
L 445.753762 260.018793 
L 446.158477 243.096987 
L 447.170263 182.993156 
L 447.979692 133.885515 
L 448.182049 128.150913 
L 448.384406 126.590599 
L 448.586763 128.242801 
L 448.789121 133.105929 
L 449.193835 156.282429 
L 450.407978 258.560247 
L 450.610335 263.658046 
L 450.812693 263.886291 
L 451.01505 259.854178 
L 451.419764 241.952036 
L 452.43155 178.943419 
L 453.240979 129.846072 
L 453.443336 124.781972 
L 453.645694 123.689911 
L 453.848051 125.624047 
L 454.050408 130.800911 
L 454.455122 154.595273 
L 455.669266 258.182798 
L 455.871623 263.692847 
L 456.07398 264.373286 
L 456.276337 260.952115 
L 456.681052 244.751623 
L 457.692838 184.674708 
L 458.502267 134.736049 
L 458.704624 128.317143 
L 458.906981 126.19246 
L 459.109338 127.379631 
L 459.311695 131.675192 
L 459.514053 140.020839 
L 459.918767 171.170968 
L 460.728196 246.44956 
L 461.13291 263.13807 
L 461.335267 264.229074 
L 461.537625 260.95916 
L 461.942339 244.224627 
L 462.954125 182.037478 
L 463.763554 131.864137 
L 463.965911 125.843634 
L 464.168268 124.01761 
L 464.370626 125.36097 
L 464.572983 129.799411 
L 464.77534 138.320861 
L 465.180054 169.557694 
L 465.989483 245.540886 
L 466.394198 263.028497 
L 466.596555 264.542208 
L 466.798912 261.778805 
L 467.203626 246.400323 
L 468.013055 199.445666 
L 469.227199 128.709683 
L 469.429556 125.982151 
L 469.631913 126.696417 
L 469.83427 130.448876 
L 470.036627 138.063289 
L 470.441342 167.697724 
L 471.250771 244.155795 
L 471.655485 262.463506 
L 471.857842 264.405972 
L 472.060199 261.879747 
L 472.464914 246.295277 
L 473.4767 184.873881 
L 474.286129 133.869733 
L 474.488486 126.939572 
L 474.690843 124.366736 
L 474.8932 125.143196 
L 475.095558 128.923907 
L 475.297915 136.570032 
L 475.702629 166.090883 
L 476.512058 243.14285 
L 476.916772 262.227912 
L 477.11913 264.583531 
L 477.321487 262.503997 
L 477.726201 248.035758 
L 478.53563 201.360573 
L 479.749773 129.307962 
L 479.952131 125.93688 
L 480.154488 126.161843 
L 480.356845 129.390366 
L 480.559202 136.295632 
L 480.963917 164.377815 
L 481.773345 241.778536 
L 482.17806 261.636733 
L 482.380417 264.430911 
L 482.582774 262.646986 
L 482.785131 257.008923 
L 483.189846 237.367133 
L 484.201632 174.224351 
L 484.808704 135.891611 
L 485.011061 128.098402 
L 485.213418 124.760224 
L 485.415775 124.97284 
L 485.618132 128.152945 
L 485.82049 134.988309 
L 486.225204 162.793991 
L 487.23699 253.134361 
L 487.439347 261.287516 
L 487.641704 264.494963 
L 487.844062 263.126081 
L 488.046419 257.949646 
L 488.451133 239.194548 
L 489.462919 177.258167 
L 490.272348 130.098448 
L 490.474705 126.04455 
L 490.677063 125.75686 
L 490.87942 128.476524 
L 491.081777 134.696494 
L 491.486491 161.194378 
L 492.498277 252.082592 
L 492.700635 260.658416 
L 492.902992 264.308959 
L 493.105349 263.276247 
L 493.307706 258.281651 
L 493.712421 239.45749 
L 494.724207 176.813891 
L 495.533636 129.340257 
L 495.735993 125.217776 
L 495.93835 124.855424 
L 496.140707 127.475087 
L 496.343064 133.5564 
L 496.747779 159.647795 
L 497.759565 251.229079 
L 498.164279 264.272384 
L 498.366636 263.640745 
L 498.568994 259.059886 
L 498.973708 241.011993 
L 499.985494 179.332162 
L 500.794923 131.070377 
L 500.99728 126.299021 
L 501.199637 125.46962 
L 501.401995 127.691227 
L 501.604352 133.25232 
L 502.009066 158.142312 
L 503.020852 250.15183 
L 503.425567 264.041019 
L 503.627924 263.774328 
L 503.830281 259.429395 
L 504.234995 241.470022 
L 505.246782 179.314037 
L 506.05621 130.67894 
L 506.258568 125.756579 
L 506.460925 124.798171 
L 506.663282 126.883927 
L 506.865639 132.262251 
L 507.270354 156.644816 
L 508.28214 249.212251 
L 508.686854 263.911415 
L 508.889211 264.042621 
L 509.091568 260.082986 
L 509.496283 242.825548 
L 510.508069 181.45631 
L 511.317498 132.213828 
L 511.519855 126.697839 
L 511.722212 125.293195 
L 511.924569 127.022431 
L 512.126927 131.953122 
L 512.531641 155.222442 
L 513.745784 258.251672 
L 513.948141 263.626277 
L 514.150499 264.143421 
L 514.352856 260.459339 
L 514.75757 243.414376 
L 515.769356 181.749577 
L 516.578785 132.122191 
L 516.781142 126.390748 
L 516.9835 124.808442 
L 517.185857 126.375132 
L 517.388214 131.096719 
L 517.590571 139.994067 
L 517.995286 172.043061 
L 518.4 214.600201 
L 518.4 214.600201 
" clip-path="url(#p25bc09aa55)" style="fill: none; stroke: #2ca02c; stroke-width: 1.5; stroke-linecap: square"/>
   </g>
   <g id="patch_3">
    <path d="M 72 320.4 
L 72 43.2 
" style="fill: none; stroke: #000000; stroke-width: 0.8; stroke-linejoin: miter; stroke-linecap: square"/>
   </g>
   <g id="patch_4">
    <path d="M 518.4 320.4 
L 518.4 43.2 
" style="fill: none; stroke: #000000; stroke-width: 0.8; stroke-linejoin: miter; stroke-linecap: square"/>
   </g>
   <g id="patch_5">
    <path d="M 72 320.4 
L 518.4 320.4 
" style="fill: none; stroke: #000000; stroke-width: 0.8; stroke-linejoin: miter; stroke-linecap: square"/>
   </g>
   <g id="patch_6">
    <path d="M 72 43.2 
L 518.4 43.2 
" style="fill: none; stroke: #000000; stroke-width: 0.8; stroke-linejoin: miter; stroke-linecap: square"/>
   </g>
   <g id="text_13">
    <!-- LSTM -->
    <g transform="translate(279.20625 37.2) scale(0.12 -0.12)">
     <defs>
      <path id="DejaVuSans-4c" d="M 628 4666 
L 1259 4666 
L 1259 531 
L 3531 531 
L 3531 0 
L 628 0 
L 628 4666 
z
" transform="scale(0.015625)"/>
      <path id="DejaVuSans-53" d="M 3425 4513 
L 3425 3897 
Q 3066 4069 2747 4153 
Q 2428 4238 2131 4238 
Q 1616 4238 1336 4038 
Q 1056 3838 1056 3469 
Q 1056 3159 1242 3001 
Q 1428 2844 1947 2747 
L 2328 2669 
Q 3034 2534 3370 2195 
Q 3706 1856 3706 1288 
Q 3706 609 3251 259 
Q 2797 -91 1919 -91 
Q 1588 -91 1214 -16 
Q 841 59 441 206 
L 441 856 
Q 825 641 1194 531 
Q 1563 422 1919 422 
Q 2459 422 2753 634 
Q 3047 847 3047 1241 
Q 3047 1584 2836 1778 
Q 2625 1972 2144 2069 
L 1759 2144 
Q 1053 2284 737 2584 
Q 422 2884 422 3419 
Q 422 4038 858 4394 
Q 1294 4750 2059 4750 
Q 2388 4750 2728 4690 
Q 3069 4631 3425 4513 
z
" transform="scale(0.015625)"/>
      <path id="DejaVuSans-54" d="M -19 4666 
L 3928 4666 
L 3928 4134 
L 2272 4134 
L 2272 0 
L 1638 0 
L 1638 4134 
L -19 4134 
L -19 4666 
z
" transform="scale(0.015625)"/>
      <path id="DejaVuSans-4d" d="M 628 4666 
L 1569 4666 
L 2759 1491 
L 3956 4666 
L 4897 4666 
L 4897 0 
L 4281 0 
L 4281 4097 
L 3078 897 
L 2444 897 
L 1241 4097 
L 1241 0 
L 628 0 
L 628 4666 
z
" transform="scale(0.015625)"/>
     </defs>
     <use xlink:href="#DejaVuSans-4c"/>
     <use xlink:href="#DejaVuSans-53" x="55.712891"/>
     <use xlink:href="#DejaVuSans-54" x="119.189453"/>
     <use xlink:href="#DejaVuSans-4d" x="180.273438"/>
    </g>
   </g>
   <g id="legend_1">
    <g id="patch_7">
     <path d="M 79 95.234375 
L 161.517188 95.234375 
Q 163.517188 95.234375 163.517188 93.234375 
L 163.517188 50.2 
Q 163.517188 48.2 161.517188 48.2 
L 79 48.2 
Q 77 48.2 77 50.2 
L 77 93.234375 
Q 77 95.234375 79 95.234375 
z
" style="fill: #ffffff; opacity: 0.8; stroke: #cccccc; stroke-linejoin: miter"/>
    </g>
    <g id="line2d_16">
     <path d="M 81 56.298437 
L 91 56.298437 
L 101 56.298437 
" style="fill: none; stroke: #1f77b4; stroke-width: 1.5; stroke-linecap: square"/>
    </g>
    <g id="text_14">
     <!-- Measured -->
     <g transform="translate(109 59.798437) scale(0.1 -0.1)">
      <defs>
       <path id="DejaVuSans-65" d="M 3597 1894 
L 3597 1613 
L 953 1613 
Q 991 1019 1311 708 
Q 1631 397 2203 397 
Q 2534 397 2845 478 
Q 3156 559 3463 722 
L 3463 178 
Q 3153 47 2828 -22 
Q 2503 -91 2169 -91 
Q 1331 -91 842 396 
Q 353 884 353 1716 
Q 353 2575 817 3079 
Q 1281 3584 2069 3584 
Q 2775 3584 3186 3129 
Q 3597 2675 3597 1894 
z
M 3022 2063 
Q 3016 2534 2758 2815 
Q 2500 3097 2075 3097 
Q 1594 3097 1305 2825 
Q 1016 2553 972 2059 
L 3022 2063 
z
" transform="scale(0.015625)"/>
       <path id="DejaVuSans-61" d="M 2194 1759 
Q 1497 1759 1228 1600 
Q 959 1441 959 1056 
Q 959 750 1161 570 
Q 1363 391 1709 391 
Q 2188 391 2477 730 
Q 2766 1069 2766 1631 
L 2766 1759 
L 2194 1759 
z
M 3341 1997 
L 3341 0 
L 2766 0 
L 2766 531 
Q 2569 213 2275 61 
Q 1981 -91 1556 -91 
Q 1019 -91 701 211 
Q 384 513 384 1019 
Q 384 1609 779 1909 
Q 1175 2209 1959 2209 
L 2766 2209 
L 2766 2266 
Q 2766 2663 2505 2880 
Q 2244 3097 1772 3097 
Q 1472 3097 1187 3025 
Q 903 2953 641 2809 
L 641 3341 
Q 956 3463 1253 3523 
Q 1550 3584 1831 3584 
Q 2591 3584 2966 3190 
Q 3341 2797 3341 1997 
z
" transform="scale(0.015625)"/>
       <path id="DejaVuSans-73" d="M 2834 3397 
L 2834 2853 
Q 2591 2978 2328 3040 
Q 2066 3103 1784 3103 
Q 1356 3103 1142 2972 
Q 928 2841 928 2578 
Q 928 2378 1081 2264 
Q 1234 2150 1697 2047 
L 1894 2003 
Q 2506 1872 2764 1633 
Q 3022 1394 3022 966 
Q 3022 478 2636 193 
Q 2250 -91 1575 -91 
Q 1294 -91 989 -36 
Q 684 19 347 128 
L 347 722 
Q 666 556 975 473 
Q 1284 391 1588 391 
Q 1994 391 2212 530 
Q 2431 669 2431 922 
Q 2431 1156 2273 1281 
Q 2116 1406 1581 1522 
L 1381 1569 
Q 847 1681 609 1914 
Q 372 2147 372 2553 
Q 372 3047 722 3315 
Q 1072 3584 1716 3584 
Q 2034 3584 2315 3537 
Q 2597 3491 2834 3397 
z
" transform="scale(0.015625)"/>
       <path id="DejaVuSans-75" d="M 544 1381 
L 544 3500 
L 1119 3500 
L 1119 1403 
Q 1119 906 1312 657 
Q 1506 409 1894 409 
Q 2359 409 2629 706 
Q 2900 1003 2900 1516 
L 2900 3500 
L 3475 3500 
L 3475 0 
L 2900 0 
L 2900 538 
Q 2691 219 2414 64 
Q 2138 -91 1772 -91 
Q 1169 -91 856 284 
Q 544 659 544 1381 
z
M 1991 3584 
L 1991 3584 
z
" transform="scale(0.015625)"/>
       <path id="DejaVuSans-72" d="M 2631 2963 
Q 2534 3019 2420 3045 
Q 2306 3072 2169 3072 
Q 1681 3072 1420 2755 
Q 1159 2438 1159 1844 
L 1159 0 
L 581 0 
L 581 3500 
L 1159 3500 
L 1159 2956 
Q 1341 3275 1631 3429 
Q 1922 3584 2338 3584 
Q 2397 3584 2469 3576 
Q 2541 3569 2628 3553 
L 2631 2963 
z
" transform="scale(0.015625)"/>
       <path id="DejaVuSans-64" d="M 2906 2969 
L 2906 4863 
L 3481 4863 
L 3481 0 
L 2906 0 
L 2906 525 
Q 2725 213 2448 61 
Q 2172 -91 1784 -91 
Q 1150 -91 751 415 
Q 353 922 353 1747 
Q 353 2572 751 3078 
Q 1150 3584 1784 3584 
Q 2172 3584 2448 3432 
Q 2725 3281 2906 2969 
z
M 947 1747 
Q 947 1113 1208 752 
Q 1469 391 1925 391 
Q 2381 391 2643 752 
Q 2906 1113 2906 1747 
Q 2906 2381 2643 2742 
Q 2381 3103 1925 3103 
Q 1469 3103 1208 2742 
Q 947 2381 947 1747 
z
" transform="scale(0.015625)"/>
      </defs>
      <use xlink:href="#DejaVuSans-4d"/>
      <use xlink:href="#DejaVuSans-65" x="86.279297"/>
      <use xlink:href="#DejaVuSans-61" x="147.802734"/>
      <use xlink:href="#DejaVuSans-73" x="209.082031"/>
      <use xlink:href="#DejaVuSans-75" x="261.181641"/>
      <use xlink:href="#DejaVuSans-72" x="324.560547"/>
      <use xlink:href="#DejaVuSans-65" x="363.423828"/>
      <use xlink:href="#DejaVuSans-64" x="424.947266"/>
     </g>
    </g>
    <g id="line2d_17">
     <path d="M 81 70.976562 
L 91 70.976562 
L 101 70.976562 
" style="fill: none; stroke: #ff7f0e; stroke-width: 1.5; stroke-linecap: square"/>
    </g>
    <g id="text_15">
     <!-- Fitted -->
     <g transform="translate(109 74.476562) scale(0.1 -0.1)">
      <defs>
       <path id="DejaVuSans-46" d="M 628 4666 
L 3309 4666 
L 3309 4134 
L 1259 4134 
L 1259 2759 
L 3109 2759 
L 3109 2228 
L 1259 2228 
L 1259 0 
L 628 0 
L 628 4666 
z
" transform="scale(0.015625)"/>
       <path id="DejaVuSans-69" d="M 603 3500 
L 1178 3500 
L 1178 0 
L 603 0 
L 603 3500 
z
M 603 4863 
L 1178 4863 
L 1178 4134 
L 603 4134 
L 603 4863 
z
" transform="scale(0.015625)"/>
       <path id="DejaVuSans-74" d="M 1172 4494 
L 1172 3500 
L 2356 3500 
L 2356 3053 
L 1172 3053 
L 1172 1153 
Q 1172 725 1289 603 
Q 1406 481 1766 481 
L 2356 481 
L 2356 0 
L 1766 0 
Q 1100 0 847 248 
Q 594 497 594 1153 
L 594 3053 
L 172 3053 
L 172 3500 
L 594 3500 
L 594 4494 
L 1172 4494 
z
" transform="scale(0.015625)"/>
      </defs>
      <use xlink:href="#DejaVuSans-46"/>
      <use xlink:href="#DejaVuSans-69" x="50.269531"/>
      <use xlink:href="#DejaVuSans-74" x="78.052734"/>
      <use xlink:href="#DejaVuSans-74" x="117.261719"/>
      <use xlink:href="#DejaVuSans-65" x="156.470703"/>
      <use xlink:href="#DejaVuSans-64" x="217.994141"/>
     </g>
    </g>
    <g id="line2d_18">
     <path d="M 81 85.654687 
L 91 85.654687 
L 101 85.654687 
" style="fill: none; stroke: #2ca02c; stroke-width: 1.5; stroke-linecap: square"/>
    </g>
    <g id="text_16">
     <!-- Estimated -->
     <g transform="translate(109 89.154687) scale(0.1 -0.1)">
      <defs>
       <path id="DejaVuSans-45" d="M 628 4666 
L 3578 4666 
L 3578 4134 
L 1259 4134 
L 1259 2753 
L 3481 2753 
L 3481 2222 
L 1259 2222 
L 1259 531 
L 3634 531 
L 3634 0 
L 628 0 
L 628 4666 
z
" transform="scale(0.015625)"/>
       <path id="DejaVuSans-6d" d="M 3328 2828 
Q 3544 3216 3844 3400 
Q 4144 3584 4550 3584 
Q 5097 3584 5394 3201 
Q 5691 2819 5691 2113 
L 5691 0 
L 5113 0 
L 5113 2094 
Q 5113 2597 4934 2840 
Q 4756 3084 4391 3084 
Q 3944 3084 3684 2787 
Q 3425 2491 3425 1978 
L 3425 0 
L 2847 0 
L 2847 2094 
Q 2847 2600 2669 2842 
Q 2491 3084 2119 3084 
Q 1678 3084 1418 2786 
Q 1159 2488 1159 1978 
L 1159 0 
L 581 0 
L 581 3500 
L 1159 3500 
L 1159 2956 
Q 1356 3278 1631 3431 
Q 1906 3584 2284 3584 
Q 2666 3584 2933 3390 
Q 3200 3197 3328 2828 
z
" transform="scale(0.015625)"/>
      </defs>
      <use xlink:href="#DejaVuSans-45"/>
      <use xlink:href="#DejaVuSans-73" x="63.183594"/>
      <use xlink:href="#DejaVuSans-74" x="115.283203"/>
      <use xlink:href="#DejaVuSans-69" x="154.492188"/>
      <use xlink:href="#DejaVuSans-6d" x="182.275391"/>
      <use xlink:href="#DejaVuSans-61" x="279.6875"/>
      <use xlink:href="#DejaVuSans-74" x="340.966797"/>
      <use xlink:href="#DejaVuSans-65" x="380.175781"/>
      <use xlink:href="#DejaVuSans-64" x="441.699219"/>
     </g>
    </g>
   </g>
  </g>
 </g>
 <defs>
  <clipPath id="p25bc09aa55">
   <rect x="72" y="43.2" width="446.4" height="277.2"/>
  </clipPath>
 </defs>
</svg>
