<?xml version="1.0" encoding="utf-8" standalone="no"?>
<!DOCTYPE svg PUBLIC "-//W3C//DTD SVG 1.1//EN"
  "http://www.w3.org/Graphics/SVG/1.1/DTD/svg11.dtd">
<svg xmlns:xlink="http://www.w3.org/1999/xlink" width="576pt" height="360pt" viewBox="0 0 576 360" xmlns="http://www.w3.org/2000/svg" version="1.1">
 <metadata>
  <rdf:RDF xmlns:dc="http://purl.org/dc/elements/1.1/" xmlns:cc="http://creativecommons.org/ns#" xmlns:rdf="http://www.w3.org/1999/02/22-rdf-syntax-ns#">
   <cc:Work>
    <dc:type rdf:resource="http://purl.org/dc/dcmitype/StillImage"/>
    <dc:date>2023-11-17T10:49:53.418436</dc:date>
    <dc:format>image/svg+xml</dc:format>
    <dc:creator>
     <cc:Agent>
      <dc:title>Matplotlib v3.8.1, https://matplotlib.org/</dc:title>
     </cc:Agent>
    </dc:creator>
   </cc:Work>
  </rdf:RDF>
 </metadata>
 <defs>
  <style type="text/css">*{stroke-linejoin: round; stroke-linecap: butt}</style>
 </defs>
 <g id="figure_1">
  <g id="patch_1">
   <path d="M 0 360 
L 576 360 
L 576 0 
L 0 0 
z
" style="fill: #ffffff"/>
  </g>
  <g id="axes_1">
   <g id="patch_2">
    <path d="M 72 320.4 
L 518.4 320.4 
L 518.4 43.2 
L 72 43.2 
z
" style="fill: #ffffff"/>
   </g>
   <g id="matplotlib.axis_1">
    <g id="xtick_1">
     <g id="line2d_1">
      <defs>
       <path id="m7f86170880" d="M 0 0 
L 0 3.5 
" style="stroke: #000000; stroke-width: 0.8"/>
      </defs>
      <g>
       <use xlink:href="#m7f86170880" x="129.874161" y="320.4" style="stroke: #000000; stroke-width: 0.8"/>
      </g>
     </g>
     <g id="text_1">
      <!-- 2020-05-15 -->
      <g transform="translate(100.816349 334.998438) scale(0.1 -0.1)">
       <defs>
        <path id="DejaVuSans-32" d="M 1228 531 
L 3431 531 
L 3431 0 
L 469 0 
L 469 531 
Q 828 903 1448 1529 
Q 2069 2156 2228 2338 
Q 2531 2678 2651 2914 
Q 2772 3150 2772 3378 
Q 2772 3750 2511 3984 
Q 2250 4219 1831 4219 
Q 1534 4219 1204 4116 
Q 875 4013 500 3803 
L 500 4441 
Q 881 4594 1212 4672 
Q 1544 4750 1819 4750 
Q 2544 4750 2975 4387 
Q 3406 4025 3406 3419 
Q 3406 3131 3298 2873 
Q 3191 2616 2906 2266 
Q 2828 2175 2409 1742 
Q 1991 1309 1228 531 
z
" transform="scale(0.015625)"/>
        <path id="DejaVuSans-30" d="M 2034 4250 
Q 1547 4250 1301 3770 
Q 1056 3291 1056 2328 
Q 1056 1369 1301 889 
Q 1547 409 2034 409 
Q 2525 409 2770 889 
Q 3016 1369 3016 2328 
Q 3016 3291 2770 3770 
Q 2525 4250 2034 4250 
z
M 2034 4750 
Q 2819 4750 3233 4129 
Q 3647 3509 3647 2328 
Q 3647 1150 3233 529 
Q 2819 -91 2034 -91 
Q 1250 -91 836 529 
Q 422 1150 422 2328 
Q 422 3509 836 4129 
Q 1250 4750 2034 4750 
z
" transform="scale(0.015625)"/>
        <path id="DejaVuSans-2d" d="M 313 2009 
L 1997 2009 
L 1997 1497 
L 313 1497 
L 313 2009 
z
" transform="scale(0.015625)"/>
        <path id="DejaVuSans-35" d="M 691 4666 
L 3169 4666 
L 3169 4134 
L 1269 4134 
L 1269 2991 
Q 1406 3038 1543 3061 
Q 1681 3084 1819 3084 
Q 2600 3084 3056 2656 
Q 3513 2228 3513 1497 
Q 3513 744 3044 326 
Q 2575 -91 1722 -91 
Q 1428 -91 1123 -41 
Q 819 9 494 109 
L 494 744 
Q 775 591 1075 516 
Q 1375 441 1709 441 
Q 2250 441 2565 725 
Q 2881 1009 2881 1497 
Q 2881 1984 2565 2268 
Q 2250 2553 1709 2553 
Q 1456 2553 1204 2497 
Q 953 2441 691 2322 
L 691 4666 
z
" transform="scale(0.015625)"/>
        <path id="DejaVuSans-31" d="M 794 531 
L 1825 531 
L 1825 4091 
L 703 3866 
L 703 4441 
L 1819 4666 
L 2450 4666 
L 2450 531 
L 3481 531 
L 3481 0 
L 794 0 
L 794 531 
z
" transform="scale(0.015625)"/>
       </defs>
       <use xlink:href="#DejaVuSans-32"/>
       <use xlink:href="#DejaVuSans-30" x="63.623047"/>
       <use xlink:href="#DejaVuSans-32" x="127.246094"/>
       <use xlink:href="#DejaVuSans-30" x="190.869141"/>
       <use xlink:href="#DejaVuSans-2d" x="254.492188"/>
       <use xlink:href="#DejaVuSans-30" x="290.576172"/>
       <use xlink:href="#DejaVuSans-35" x="354.199219"/>
       <use xlink:href="#DejaVuSans-2d" x="417.822266"/>
       <use xlink:href="#DejaVuSans-31" x="453.90625"/>
       <use xlink:href="#DejaVuSans-35" x="517.529297"/>
      </g>
     </g>
    </g>
    <g id="xtick_2">
     <g id="line2d_2">
      <g>
       <use xlink:href="#m7f86170880" x="212.435902" y="320.4" style="stroke: #000000; stroke-width: 0.8"/>
      </g>
     </g>
     <g id="text_2">
      <!-- 2020-06-01 -->
      <g transform="translate(183.37809 334.998438) scale(0.1 -0.1)">
       <defs>
        <path id="DejaVuSans-36" d="M 2113 2584 
Q 1688 2584 1439 2293 
Q 1191 2003 1191 1497 
Q 1191 994 1439 701 
Q 1688 409 2113 409 
Q 2538 409 2786 701 
Q 3034 994 3034 1497 
Q 3034 2003 2786 2293 
Q 2538 2584 2113 2584 
z
M 3366 4563 
L 3366 3988 
Q 3128 4100 2886 4159 
Q 2644 4219 2406 4219 
Q 1781 4219 1451 3797 
Q 1122 3375 1075 2522 
Q 1259 2794 1537 2939 
Q 1816 3084 2150 3084 
Q 2853 3084 3261 2657 
Q 3669 2231 3669 1497 
Q 3669 778 3244 343 
Q 2819 -91 2113 -91 
Q 1303 -91 875 529 
Q 447 1150 447 2328 
Q 447 3434 972 4092 
Q 1497 4750 2381 4750 
Q 2619 4750 2861 4703 
Q 3103 4656 3366 4563 
z
" transform="scale(0.015625)"/>
       </defs>
       <use xlink:href="#DejaVuSans-32"/>
       <use xlink:href="#DejaVuSans-30" x="63.623047"/>
       <use xlink:href="#DejaVuSans-32" x="127.246094"/>
       <use xlink:href="#DejaVuSans-30" x="190.869141"/>
       <use xlink:href="#DejaVuSans-2d" x="254.492188"/>
       <use xlink:href="#DejaVuSans-30" x="290.576172"/>
       <use xlink:href="#DejaVuSans-36" x="354.199219"/>
       <use xlink:href="#DejaVuSans-2d" x="417.822266"/>
       <use xlink:href="#DejaVuSans-30" x="453.90625"/>
       <use xlink:href="#DejaVuSans-31" x="517.529297"/>
      </g>
     </g>
    </g>
    <g id="xtick_3">
     <g id="line2d_3">
      <g>
       <use xlink:href="#m7f86170880" x="280.427924" y="320.4" style="stroke: #000000; stroke-width: 0.8"/>
      </g>
     </g>
     <g id="text_3">
      <!-- 2020-06-15 -->
      <g transform="translate(251.370111 334.998438) scale(0.1 -0.1)">
       <use xlink:href="#DejaVuSans-32"/>
       <use xlink:href="#DejaVuSans-30" x="63.623047"/>
       <use xlink:href="#DejaVuSans-32" x="127.246094"/>
       <use xlink:href="#DejaVuSans-30" x="190.869141"/>
       <use xlink:href="#DejaVuSans-2d" x="254.492188"/>
       <use xlink:href="#DejaVuSans-30" x="290.576172"/>
       <use xlink:href="#DejaVuSans-36" x="354.199219"/>
       <use xlink:href="#DejaVuSans-2d" x="417.822266"/>
       <use xlink:href="#DejaVuSans-31" x="453.90625"/>
       <use xlink:href="#DejaVuSans-35" x="517.529297"/>
      </g>
     </g>
    </g>
    <g id="xtick_4">
     <g id="line2d_4">
      <g>
       <use xlink:href="#m7f86170880" x="358.133092" y="320.4" style="stroke: #000000; stroke-width: 0.8"/>
      </g>
     </g>
     <g id="text_4">
      <!-- 2020-07-01 -->
      <g transform="translate(329.075279 334.998438) scale(0.1 -0.1)">
       <defs>
        <path id="DejaVuSans-37" d="M 525 4666 
L 3525 4666 
L 3525 4397 
L 1831 0 
L 1172 0 
L 2766 4134 
L 525 4134 
L 525 4666 
z
" transform="scale(0.015625)"/>
       </defs>
       <use xlink:href="#DejaVuSans-32"/>
       <use xlink:href="#DejaVuSans-30" x="63.623047"/>
       <use xlink:href="#DejaVuSans-32" x="127.246094"/>
       <use xlink:href="#DejaVuSans-30" x="190.869141"/>
       <use xlink:href="#DejaVuSans-2d" x="254.492188"/>
       <use xlink:href="#DejaVuSans-30" x="290.576172"/>
       <use xlink:href="#DejaVuSans-37" x="354.199219"/>
       <use xlink:href="#DejaVuSans-2d" x="417.822266"/>
       <use xlink:href="#DejaVuSans-30" x="453.90625"/>
       <use xlink:href="#DejaVuSans-31" x="517.529297"/>
      </g>
     </g>
    </g>
    <g id="xtick_5">
     <g id="line2d_5">
      <g>
       <use xlink:href="#m7f86170880" x="426.125113" y="320.4" style="stroke: #000000; stroke-width: 0.8"/>
      </g>
     </g>
     <g id="text_5">
      <!-- 2020-07-15 -->
      <g transform="translate(397.067301 334.998438) scale(0.1 -0.1)">
       <use xlink:href="#DejaVuSans-32"/>
       <use xlink:href="#DejaVuSans-30" x="63.623047"/>
       <use xlink:href="#DejaVuSans-32" x="127.246094"/>
       <use xlink:href="#DejaVuSans-30" x="190.869141"/>
       <use xlink:href="#DejaVuSans-2d" x="254.492188"/>
       <use xlink:href="#DejaVuSans-30" x="290.576172"/>
       <use xlink:href="#DejaVuSans-37" x="354.199219"/>
       <use xlink:href="#DejaVuSans-2d" x="417.822266"/>
       <use xlink:href="#DejaVuSans-31" x="453.90625"/>
       <use xlink:href="#DejaVuSans-35" x="517.529297"/>
      </g>
     </g>
    </g>
    <g id="xtick_6">
     <g id="line2d_6">
      <g>
       <use xlink:href="#m7f86170880" x="508.686854" y="320.4" style="stroke: #000000; stroke-width: 0.8"/>
      </g>
     </g>
     <g id="text_6">
      <!-- 2020-08-01 -->
      <g transform="translate(479.629042 334.998438) scale(0.1 -0.1)">
       <defs>
        <path id="DejaVuSans-38" d="M 2034 2216 
Q 1584 2216 1326 1975 
Q 1069 1734 1069 1313 
Q 1069 891 1326 650 
Q 1584 409 2034 409 
Q 2484 409 2743 651 
Q 3003 894 3003 1313 
Q 3003 1734 2745 1975 
Q 2488 2216 2034 2216 
z
M 1403 2484 
Q 997 2584 770 2862 
Q 544 3141 544 3541 
Q 544 4100 942 4425 
Q 1341 4750 2034 4750 
Q 2731 4750 3128 4425 
Q 3525 4100 3525 3541 
Q 3525 3141 3298 2862 
Q 3072 2584 2669 2484 
Q 3125 2378 3379 2068 
Q 3634 1759 3634 1313 
Q 3634 634 3220 271 
Q 2806 -91 2034 -91 
Q 1263 -91 848 271 
Q 434 634 434 1313 
Q 434 1759 690 2068 
Q 947 2378 1403 2484 
z
M 1172 3481 
Q 1172 3119 1398 2916 
Q 1625 2713 2034 2713 
Q 2441 2713 2670 2916 
Q 2900 3119 2900 3481 
Q 2900 3844 2670 4047 
Q 2441 4250 2034 4250 
Q 1625 4250 1398 4047 
Q 1172 3844 1172 3481 
z
" transform="scale(0.015625)"/>
       </defs>
       <use xlink:href="#DejaVuSans-32"/>
       <use xlink:href="#DejaVuSans-30" x="63.623047"/>
       <use xlink:href="#DejaVuSans-32" x="127.246094"/>
       <use xlink:href="#DejaVuSans-30" x="190.869141"/>
       <use xlink:href="#DejaVuSans-2d" x="254.492188"/>
       <use xlink:href="#DejaVuSans-30" x="290.576172"/>
       <use xlink:href="#DejaVuSans-38" x="354.199219"/>
       <use xlink:href="#DejaVuSans-2d" x="417.822266"/>
       <use xlink:href="#DejaVuSans-30" x="453.90625"/>
       <use xlink:href="#DejaVuSans-31" x="517.529297"/>
      </g>
     </g>
    </g>
   </g>
   <g id="matplotlib.axis_2">
    <g id="ytick_1">
     <g id="line2d_7">
      <defs>
       <path id="m273f87efd2" d="M 0 0 
L -3.5 0 
" style="stroke: #000000; stroke-width: 0.8"/>
      </defs>
      <g>
       <use xlink:href="#m273f87efd2" x="72" y="305.032295" style="stroke: #000000; stroke-width: 0.8"/>
      </g>
     </g>
     <g id="text_7">
      <!-- −2 -->
      <g transform="translate(50.257812 308.831514) scale(0.1 -0.1)">
       <defs>
        <path id="DejaVuSans-2212" d="M 678 2272 
L 4684 2272 
L 4684 1741 
L 678 1741 
L 678 2272 
z
" transform="scale(0.015625)"/>
       </defs>
       <use xlink:href="#DejaVuSans-2212"/>
       <use xlink:href="#DejaVuSans-32" x="83.789062"/>
      </g>
     </g>
    </g>
    <g id="ytick_2">
     <g id="line2d_8">
      <g>
       <use xlink:href="#m273f87efd2" x="72" y="253.55043" style="stroke: #000000; stroke-width: 0.8"/>
      </g>
     </g>
     <g id="text_8">
      <!-- −1 -->
      <g transform="translate(50.257812 257.349649) scale(0.1 -0.1)">
       <use xlink:href="#DejaVuSans-2212"/>
       <use xlink:href="#DejaVuSans-31" x="83.789062"/>
      </g>
     </g>
    </g>
    <g id="ytick_3">
     <g id="line2d_9">
      <g>
       <use xlink:href="#m273f87efd2" x="72" y="202.068564" style="stroke: #000000; stroke-width: 0.8"/>
      </g>
     </g>
     <g id="text_9">
      <!-- 0 -->
      <g transform="translate(58.6375 205.867783) scale(0.1 -0.1)">
       <use xlink:href="#DejaVuSans-30"/>
      </g>
     </g>
    </g>
    <g id="ytick_4">
     <g id="line2d_10">
      <g>
       <use xlink:href="#m273f87efd2" x="72" y="150.586698" style="stroke: #000000; stroke-width: 0.8"/>
      </g>
     </g>
     <g id="text_10">
      <!-- 1 -->
      <g transform="translate(58.6375 154.385917) scale(0.1 -0.1)">
       <use xlink:href="#DejaVuSans-31"/>
      </g>
     </g>
    </g>
    <g id="ytick_5">
     <g id="line2d_11">
      <g>
       <use xlink:href="#m273f87efd2" x="72" y="99.104833" style="stroke: #000000; stroke-width: 0.8"/>
      </g>
     </g>
     <g id="text_11">
      <!-- 2 -->
      <g transform="translate(58.6375 102.904052) scale(0.1 -0.1)">
       <use xlink:href="#DejaVuSans-32"/>
      </g>
     </g>
    </g>
    <g id="ytick_6">
     <g id="line2d_12">
      <g>
       <use xlink:href="#m273f87efd2" x="72" y="47.622967" style="stroke: #000000; stroke-width: 0.8"/>
      </g>
     </g>
     <g id="text_12">
      <!-- 3 -->
      <g transform="translate(58.6375 51.422186) scale(0.1 -0.1)">
       <defs>
        <path id="DejaVuSans-33" d="M 2597 2516 
Q 3050 2419 3304 2112 
Q 3559 1806 3559 1356 
Q 3559 666 3084 287 
Q 2609 -91 1734 -91 
Q 1441 -91 1130 -33 
Q 819 25 488 141 
L 488 750 
Q 750 597 1062 519 
Q 1375 441 1716 441 
Q 2309 441 2620 675 
Q 2931 909 2931 1356 
Q 2931 1769 2642 2001 
Q 2353 2234 1838 2234 
L 1294 2234 
L 1294 2753 
L 1863 2753 
Q 2328 2753 2575 2939 
Q 2822 3125 2822 3475 
Q 2822 3834 2567 4026 
Q 2313 4219 1838 4219 
Q 1578 4219 1281 4162 
Q 984 4106 628 3988 
L 628 4550 
Q 988 4650 1302 4700 
Q 1616 4750 1894 4750 
Q 2613 4750 3031 4423 
Q 3450 4097 3450 3541 
Q 3450 3153 3228 2886 
Q 3006 2619 2597 2516 
z
" transform="scale(0.015625)"/>
       </defs>
       <use xlink:href="#DejaVuSans-33"/>
      </g>
     </g>
    </g>
   </g>
   <g id="line2d_13">
    <path d="M 72 277.255583 
L 72.404714 288.165719 
L 72.607072 286.508992 
L 72.809429 276.245383 
L 73.214143 246.505158 
L 73.618858 234.544415 
L 75.035358 154.73878 
L 75.237715 151.890023 
L 75.440073 156.759174 
L 75.64243 164.658923 
L 75.844787 167.830944 
L 76.047144 182.499018 
L 76.654216 250.101462 
L 77.05893 273.255195 
L 77.261287 277.457623 
L 77.463645 277.09395 
L 77.666002 266.789933 
L 78.070716 239.373159 
L 78.475431 227.37201 
L 78.677788 218.583287 
L 79.487217 163.749746 
L 79.891931 148.091678 
L 80.094288 149.970642 
L 80.903717 190.782641 
L 81.713146 263.274446 
L 82.11786 277.376803 
L 82.320218 279.336587 
L 82.522575 279.053733 
L 82.724932 276.629259 
L 82.927289 270.062974 
L 83.332004 247.939638 
L 83.736718 234.160538 
L 83.939075 231.230964 
L 84.141432 231.493617 
L 84.546147 237.655822 
L 84.748504 239.67622 
L 84.950861 239.696423 
L 85.355576 243.737214 
L 85.557933 240.524786 
L 85.76029 246.424341 
L 86.569719 289.70122 
L 86.772076 295.560368 
L 86.974433 297.095868 
L 87.176791 297.156478 
L 87.379148 295.863425 
L 87.581505 292.267124 
L 87.783862 285.761448 
L 88.188577 264.527086 
L 88.390934 259.536708 
L 89.200363 251.758186 
L 89.40272 247.778008 
L 89.807434 233.534218 
L 90.212149 231.170354 
L 90.414506 228.564043 
L 90.616863 236.221342 
L 91.223935 284.933085 
L 91.628649 295.560368 
L 91.831006 295.620978 
L 92.033364 293.216707 
L 92.842792 248.768002 
L 93.04515 246.707198 
L 93.449864 238.423576 
L 93.652221 237.918476 
L 93.854578 235.089922 
L 94.056936 234.483802 
L 94.259293 231.958307 
L 94.46165 225.796101 
L 94.664007 223.048362 
L 94.866364 223.937337 
L 95.068722 226.967929 
L 95.271079 223.270605 
L 95.473436 233.008914 
L 96.080508 285.296758 
L 96.485222 294.166297 
L 96.687579 296.004855 
L 96.889937 291.822637 
L 97.699365 248.060862 
L 98.306437 237.938679 
L 98.508794 237.575009 
L 99.52058 217.128602 
L 99.722937 218.34084 
L 99.925295 222.543263 
L 100.127652 220.785519 
L 100.330009 230.564234 
L 100.937081 282.912691 
L 101.341795 294.732004 
L 101.544152 295.681594 
L 101.74651 292.10549 
L 101.948867 280.589234 
L 102.353581 251.657166 
L 102.555938 250.162076 
L 103.567724 233.029118 
L 104.377153 211.734145 
L 104.57951 212.966587 
L 104.781868 218.159004 
L 104.984225 218.1388 
L 105.186582 226.705279 
L 105.793654 279.882097 
L 106.198368 292.1661 
L 106.400725 293.863234 
L 106.603083 289.984073 
L 107.412511 245.737408 
L 107.614869 244.080684 
L 107.817226 240.54499 
L 108.22194 226.543648 
L 108.626655 205.63255 
L 108.829012 199.91483 
L 109.031369 198.096474 
L 109.638441 206.460913 
L 109.840798 211.693738 
L 110.043155 221.714901 
L 110.650227 274.750289 
L 111.054941 288.488986 
L 111.257298 290.327543 
L 111.459655 288.650613 
L 111.662013 277.659663 
L 112.066727 249.475139 
L 112.471442 235.029308 
L 113.887942 169.123997 
L 114.090299 166.84095 
L 114.292656 173.407238 
L 114.495014 184.418395 
L 114.697371 188.843061 
L 115.102085 221.613881 
L 115.709157 269.174001 
L 116.113871 282.609628 
L 116.316228 282.771261 
L 116.518586 281.175151 
L 116.720943 277.679866 
L 117.125657 251.434923 
L 118.542158 150.596969 
L 118.744515 140.858663 
L 118.946872 137.120926 
L 119.149229 140.656623 
L 119.756301 177.144969 
L 120.56573 253.596747 
L 120.970444 272.689488 
L 121.172801 276.629259 
L 121.375159 278.205167 
L 121.577516 276.811096 
L 121.779873 269.174001 
L 122.589302 220.037973 
L 123.196374 195.510367 
L 123.398731 191.105904 
L 123.601088 191.307944 
L 123.803445 190.762437 
L 124.410517 203.672766 
L 124.612874 214.239436 
L 125.219946 268.466857 
L 125.62466 282.468204 
L 125.827017 284.387581 
L 126.029374 281.942898 
L 127.04116 227.614456 
L 127.648232 191.570595 
L 128.255304 150.738396 
L 128.457661 143.464974 
L 128.660018 143.141707 
L 129.26709 185.852875 
L 130.278876 273.376422 
L 130.481233 280.9125 
L 130.68359 282.245961 
L 130.885947 279.76087 
L 132.504805 174.821515 
L 133.111877 133.706461 
L 133.314234 124.634882 
L 133.516591 126.271406 
L 133.921306 141.080906 
L 134.123663 148.233108 
L 135.135449 254.101844 
L 135.540163 266.264627 
L 135.74252 265.35545 
L 135.944878 255.15245 
L 136.349592 224.886922 
L 136.551949 218.361044 
L 136.754306 206.925604 
L 136.956664 211.330066 
L 137.159021 200.440133 
L 137.766092 191.934267 
L 137.96845 192.318142 
L 138.373164 187.10552 
L 138.777879 194.378946 
L 138.980236 195.187104 
L 139.182593 206.561932 
L 139.789665 261.132825 
L 140.194379 275.942326 
L 140.396736 277.942516 
L 140.599093 275.033149 
L 141.003808 245.919244 
L 141.408522 225.513246 
L 142.015594 212.602916 
L 142.622665 203.79399 
L 142.825023 203.531339 
L 143.02738 202.359509 
L 143.229737 203.02624 
L 143.634451 208.117637 
L 143.836809 206.925604 
L 144.039166 216.744727 
L 144.646238 264.304843 
L 145.050952 275.962529 
L 145.253309 277.215176 
L 145.455666 274.184582 
L 145.860381 245.595981 
L 146.062738 229.735873 
L 146.66981 213.855561 
L 146.872167 211.269454 
L 147.074524 210.218849 
L 147.479238 199.510751 
L 147.681596 207.67315 
L 147.883953 208.622736 
L 148.08631 211.148231 
L 148.491024 220.138993 
L 148.693382 218.825736 
L 149.098096 241.636003 
L 149.502811 268.810327 
L 149.907525 281.478207 
L 150.109882 283.478398 
L 150.312239 282.912691 
L 150.514597 280.16495 
L 150.716954 274.608865 
L 151.121668 254.28368 
L 151.526383 234.322171 
L 151.931097 228.665063 
L 152.133454 228.24078 
L 152.335811 230.160157 
L 152.538169 230.665254 
L 152.740526 228.665063 
L 152.942883 228.947917 
L 153.14524 227.998333 
L 153.347597 228.03874 
L 153.549955 225.189982 
L 153.752312 227.331601 
L 154.764098 277.477826 
L 154.966455 281.336784 
L 155.168812 282.690448 
L 155.573527 278.851693 
L 155.775884 268.062784 
L 156.78767 192.116103 
L 157.799456 150.576762 
L 158.001813 152.536549 
L 158.406528 165.40647 
L 158.608885 178.619858 
L 159.215956 245.515164 
L 159.620671 266.56769 
L 159.823028 269.699301 
L 160.025385 268.810327 
L 160.227743 259.253855 
L 160.632457 227.614456 
L 161.8466 178.57945 
L 162.251315 168.780531 
L 162.453672 168.921957 
L 162.656029 171.710105 
L 163.465458 202.72318 
L 164.072529 261.072209 
L 164.477244 279.215367 
L 164.679601 279.538627 
L 164.881958 276.386813 
L 165.084316 266.48687 
L 165.48903 235.514205 
L 166.500816 201.308903 
L 167.310245 159.466505 
L 167.512602 162.739546 
L 167.917316 182.802078 
L 168.119674 187.145929 
L 168.322031 198.217698 
L 168.929102 256.142447 
L 169.333817 270.951948 
L 169.536174 274.386622 
L 169.738531 270.810518 
L 170.143246 244.201907 
L 170.54796 214.643515 
L 171.357389 171.184801 
L 171.559746 165.30545 
L 172.166818 141.707224 
L 172.369175 143.283137 
L 172.571532 151.001046 
L 173.178604 189.004693 
L 173.785675 258.324474 
L 174.19039 277.235379 
L 174.392747 280.144747 
L 174.595104 278.3668 
L 174.999819 254.768574 
L 175.404533 230.3824 
L 177.023391 154.07205 
L 177.225748 154.577147 
L 177.428105 158.395695 
L 177.630462 174.579066 
L 177.83282 176.963134 
L 178.237534 219.997564 
L 178.642248 261.860165 
L 179.046963 280.589234 
L 179.24932 284.225948 
L 179.451677 281.761067 
L 179.654034 273.275405 
L 180.261106 234.382782 
L 181.879964 139.74744 
L 182.082321 136.555218 
L 182.284678 142.0911 
L 183.094107 197.086276 
L 183.498821 235.170738 
L 183.903536 256.122244 
L 184.30825 263.779543 
L 184.510607 265.113003 
L 184.712965 261.557109 
L 184.915322 248.485145 
L 185.724751 168.376451 
L 186.129465 147.485558 
L 186.331822 141.5658 
L 186.53418 140.81825 
L 186.736537 143.30334 
L 187.748323 182.822281 
L 188.557752 245.555571 
L 188.962466 259.415488 
L 189.164823 261.415679 
L 189.36718 261.496492 
L 189.569538 260.769152 
L 189.771895 250.222686 
L 190.986038 156.375301 
L 191.188395 151.182883 
L 191.390752 151.142476 
L 191.795467 160.092828 
L 192.604896 190.722029 
L 193.414325 252.68757 
L 193.819039 266.103 
L 194.021396 267.1536 
L 194.426111 263.274446 
L 194.628468 254.505924 
L 195.437897 194.884044 
L 195.640254 189.974483 
L 195.842611 191.166516 
L 196.247325 197.10648 
L 196.449683 197.672191 
L 196.65204 197.288316 
L 197.056754 205.329491 
L 197.259112 206.157853 
L 197.461469 214.401068 
L 198.06854 261.759149 
L 198.473255 275.659472 
L 198.675612 275.760489 
L 198.877969 272.184391 
L 199.282684 242.01988 
L 199.687398 219.654097 
L 201.306256 154.577147 
L 201.508613 153.445726 
L 202.115684 172.255611 
L 202.318042 183.185953 
L 202.925113 245.979855 
L 203.329828 263.274446 
L 203.532185 265.335246 
L 203.734542 262.405675 
L 203.936899 251.111659 
L 204.341614 217.795334 
L 205.758114 164.214436 
L 205.960471 161.769759 
L 206.162829 161.911185 
L 206.365186 163.305259 
L 206.7699 174.922532 
L 206.972257 178.054148 
L 207.174615 188.681429 
L 207.781686 246.565768 
L 208.186401 262.405675 
L 208.388758 265.395857 
L 208.591115 262.122816 
L 208.793472 250.485336 
L 209.198187 217.350845 
L 209.805258 195.510367 
L 210.209973 176.013549 
L 210.817044 135.140938 
L 211.019402 126.816909 
L 211.221759 129.726277 
L 211.626473 153.728583 
L 211.82883 158.840184 
L 212.031188 173.286012 
L 212.638259 237.069909 
L 213.042974 255.29388 
L 213.245331 259.213448 
L 213.447688 257.536518 
L 213.650045 247.030461 
L 214.257117 204.602148 
L 214.661831 178.761286 
L 215.47126 120.553681 
L 215.875975 104.14807 
L 216.078332 103.68338 
L 216.280689 109.118244 
L 217.090118 171.669698 
L 217.697189 232.402794 
L 218.101904 250.505542 
L 218.304261 253.798787 
L 218.506618 255.132247 
L 218.708976 253.899804 
L 218.911333 241.41376 
L 219.518404 187.671231 
L 220.125476 153.142666 
L 220.327833 151.021252 
L 220.53019 153.20328 
L 221.541976 194.702209 
L 221.744334 199.753198 
L 222.553762 255.55653 
L 222.958477 266.22422 
L 223.160834 267.90115 
L 223.363191 268.244614 
L 223.565549 266.709114 
L 223.767906 258.162841 
L 224.374977 220.684499 
L 224.779692 213.249442 
L 225.386763 215.269838 
L 225.589121 218.724716 
L 225.791478 219.593486 
L 226.196192 227.816496 
L 226.398549 227.47303 
L 226.600907 233.776665 
L 227.410335 286.367569 
L 227.612693 290.327543 
L 227.81505 291.98427 
L 228.017407 288.852653 
L 228.826836 247.070868 
L 229.029193 244.787821 
L 229.23155 239.150916 
L 230.648051 176.942929 
L 230.850408 177.508641 
L 231.255122 191.651411 
L 231.45748 202.339305 
L 232.064551 264.809946 
L 232.469266 281.660044 
L 232.671623 284.326965 
L 232.87398 283.134934 
L 233.278694 258.324474 
L 233.683409 236.221342 
L 235.302267 172.861732 
L 235.504624 172.275815 
L 236.111695 191.025088 
L 236.314053 201.187679 
L 236.921124 262.143019 
L 237.325839 277.720273 
L 237.528196 280.791274 
L 237.730553 278.71027 
L 238.135267 255.213061 
L 238.539982 233.837275 
L 239.349411 203.490931 
L 239.754125 193.671807 
L 240.15884 183.650644 
L 240.361197 183.408196 
L 240.563554 188.762246 
L 240.968268 206.036629 
L 241.170626 213.471686 
L 241.777697 267.96176 
L 242.182412 283.518811 
L 242.384769 285.963489 
L 242.587126 283.033911 
L 242.99184 258.789165 
L 243.396555 241.171313 
L 245.21777 167.931964 
L 245.420127 172.093978 
L 246.027199 198.379329 
L 246.836627 270.467054 
L 247.038985 278.669857 
L 247.241342 281.781271 
L 247.443699 279.29618 
L 247.848413 256.182854 
L 249.467271 146.313731 
L 249.669628 138.393776 
L 249.871985 136.494608 
L 250.074343 136.656235 
L 250.2767 143.464974 
L 250.883772 174.962942 
L 251.6932 248.505349 
L 252.097915 262.749139 
L 252.300272 265.75953 
L 252.502629 266.02218 
L 252.704986 262.223839 
L 253.109701 230.099544 
L 253.91913 158.294678 
L 254.323844 142.798243 
L 254.728558 134.150948 
L 254.930916 132.918504 
L 255.133273 140.272746 
L 255.740345 177.023746 
L 256.549773 250.788396 
L 256.954488 265.96157 
L 257.156845 269.699301 
L 257.359202 271.335824 
L 257.561559 270.386235 
L 257.966274 242.060287 
L 258.573345 192.641405 
L 258.97806 171.386841 
L 259.382774 160.577725 
L 259.585131 157.203664 
L 259.787489 156.779381 
L 259.989846 159.345281 
L 260.39456 175.023552 
L 260.596917 188.115719 
L 261.203989 248.909429 
L 261.608704 267.254623 
L 261.811061 270.123584 
L 262.013418 269.355837 
L 262.418132 245.858631 
L 262.62049 234.079725 
L 263.025204 224.604067 
L 263.227561 221.856328 
L 263.429918 220.866334 
L 263.834633 222.11898 
L 264.03699 221.815921 
L 264.239347 222.745303 
L 264.441704 222.826118 
L 264.644062 222.563467 
L 264.846419 224.563659 
L 265.048776 228.523636 
L 265.251133 228.523636 
L 265.45349 232.463408 
L 266.060562 274.103762 
L 266.465277 286.690829 
L 266.667634 288.206126 
L 266.869991 284.104722 
L 267.072348 276.305993 
L 267.477063 250.323706 
L 268.084134 228.584247 
L 268.488849 218.502472 
L 269.09592 207.47111 
L 269.500635 203.59195 
L 269.702992 205.73357 
L 269.905349 209.269263 
L 270.107706 209.935993 
L 270.310063 216.118405 
L 270.917135 264.021989 
L 271.32185 275.760489 
L 271.524207 277.861703 
L 271.726564 276.184773 
L 274.15485 137.363379 
L 274.357208 130.332397 
L 274.559565 133.605438 
L 275.166636 158.274471 
L 275.976065 238.261942 
L 276.38078 250.586356 
L 276.583137 249.899422 
L 276.987851 228.483227 
L 277.392566 200.137074 
L 278.404352 144.293331 
L 278.606709 141.30315 
L 279.011423 128.332206 
L 279.213781 126.756299 
L 279.416138 130.938517 
L 280.023209 171.851531 
L 280.630281 241.81784 
L 281.034995 264.163419 
L 281.237353 268.951757 
L 281.43971 267.43646 
L 281.642067 261.658125 
L 282.249139 220.704703 
L 282.85621 187.711639 
L 283.867996 145.748018 
L 284.070354 144.576191 
L 284.272711 152.576956 
L 285.284497 234.059518 
L 285.689211 265.6181 
L 286.093926 280.084137 
L 286.296283 282.326774 
L 286.49864 280.548827 
L 286.700997 277.659663 
L 287.105712 247.232501 
L 287.712783 196.661993 
L 288.522212 154.051846 
L 288.724569 147.061275 
L 288.926927 145.162101 
L 289.129284 148.677595 
L 289.736355 181.852491 
L 290.545784 250.606562 
L 290.950499 265.597897 
L 291.152856 268.325434 
L 291.355213 268.406247 
L 291.55757 266.95156 
L 291.759927 254.707964 
L 292.771714 157.890598 
L 293.176428 136.312772 
L 293.581142 125.281409 
L 293.7835 123.584275 
L 293.985857 127.039153 
L 294.592928 152.09206 
L 295.402357 233.817071 
L 295.807072 248.242698 
L 296.009429 248.081065 
L 296.414143 228.159963 
L 297.830644 95.541181 
L 298.235358 82.469221 
L 298.437715 79.92352 
L 298.640073 80.186177 
L 298.84243 82.206564 
L 299.044787 90.106322 
L 299.449501 116.61391 
L 300.056573 194.257722 
L 300.461287 219.068182 
L 300.663645 224.987942 
L 300.866002 225.695081 
L 301.068359 218.987367 
L 301.473073 189.449179 
L 302.484859 85.944302 
L 302.687217 74.811916 
L 302.889574 74.912945 
L 303.091931 82.873301 
L 303.496646 91.379173 
L 303.90136 113.260056 
L 304.306074 140.737436 
L 304.913146 208.804572 
L 305.31786 233.736255 
L 305.520218 239.211529 
L 305.722575 237.453785 
L 305.924932 230.44301 
L 306.532004 191.146312 
L 307.54379 122.291222 
L 307.746147 112.249855 
L 307.948504 111.381085 
L 308.757933 143.121504 
L 309.162647 168.760327 
L 309.769719 230.725867 
L 310.174433 250.283299 
L 310.376791 254.606947 
L 310.579148 254.041233 
L 310.983862 231.008721 
L 312.198005 128.675676 
L 312.60272 117.240233 
L 312.805077 112.936789 
L 313.007434 113.482299 
L 313.209791 117.119007 
L 313.816863 144.252924 
L 314.01922 157.708761 
L 314.626292 219.270222 
L 315.031006 239.433773 
L 315.233364 243.939254 
L 315.435721 243.292727 
L 315.840435 224.826311 
L 316.24515 206.420505 
L 316.649864 194.601189 
L 317.054578 179.54924 
L 317.66165 172.154591 
L 317.864007 171.710105 
L 318.066364 170.821131 
L 318.268722 175.427632 
L 318.875793 197.2075 
L 319.685222 254.849393 
L 320.089937 267.416257 
L 320.292294 269.032571 
L 320.697008 261.233842 
L 321.101723 235.433388 
L 322.315866 158.779571 
L 322.72058 148.697798 
L 322.922937 146.414748 
L 323.125295 150.475746 
L 323.732366 177.650068 
L 324.541795 245.070678 
L 324.94651 259.132634 
L 325.148867 261.981392 
L 325.351224 262.042002 
L 325.553581 259.819568 
L 325.755938 247.697192 
L 326.970082 137.120926 
L 327.172439 130.89811 
L 327.374796 129.342406 
L 327.77951 123.867129 
L 327.981868 128.776693 
L 328.184225 137.423989 
L 328.791296 188.236942 
L 329.196011 231.25117 
L 329.398368 246.242505 
L 329.803083 256.182854 
L 330.00544 255.253473 
L 330.207797 249.737792 
L 330.814869 202.016042 
L 331.42194 164.416476 
L 331.826655 142.111304 
L 332.029012 139.262546 
L 332.231369 139.282749 
L 332.433726 139.464586 
L 332.636083 141.525393 
L 332.838441 145.990465 
L 333.243155 168.538084 
L 333.445512 177.407621 
L 334.052584 242.060287 
L 334.457298 263.496689 
L 334.659655 268.830531 
L 334.862013 266.466667 
L 335.266727 246.949645 
L 335.671442 222.98775 
L 336.48087 183.52942 
L 336.683228 178.539043 
L 336.885585 177.448028 
L 337.087942 171.366638 
L 337.290299 169.548281 
L 337.695014 175.912529 
L 338.099728 190.136115 
L 338.302085 195.914447 
L 339.111514 260.668135 
L 339.313871 266.76973 
L 339.516228 268.971961 
L 339.718586 264.971573 
L 340.1233 241.999674 
L 340.932729 198.258106 
L 342.349229 137.504802 
L 342.551587 137.423989 
L 343.158658 161.709145 
L 343.76573 223.452442 
L 344.170444 241.171313 
L 344.372801 245.858631 
L 344.575159 243.75742 
L 344.777516 236.948685 
L 345.18223 206.561932 
L 346.194016 125.261205 
L 346.598731 110.734558 
L 347.003445 104.228883 
L 347.205802 103.40052 
L 347.40816 106.532137 
L 347.610517 114.250046 
L 348.015231 139.929276 
L 348.82466 229.57424 
L 349.229374 246.404138 
L 349.431732 245.656591 
L 349.634089 239.959076 
L 349.836446 229.00853 
L 351.050589 126.271406 
L 351.455304 108.209061 
L 351.860018 99.501156 
L 352.062375 98.612182 
L 352.264733 102.188286 
L 352.46709 113.098422 
L 353.276519 194.843637 
L 353.681233 232.160347 
L 354.085947 252.020839 
L 354.288305 257.213257 
L 354.490662 257.778964 
L 354.693019 255.576734 
L 355.097733 214.219233 
L 355.704805 141.586003 
L 356.109519 117.28064 
L 356.716591 99.379935 
L 356.918948 98.309119 
L 357.121306 103.036853 
L 357.52602 128.251393 
L 357.728377 140.737436 
L 358.740163 234.685842 
L 359.144878 247.454745 
L 359.347235 249.293305 
L 359.549592 248.970042 
L 359.751949 235.190942 
L 360.763735 116.49269 
L 361.16845 97.723208 
L 361.573164 86.792869 
L 361.775521 84.530028 
L 361.977879 87.762656 
L 362.180236 94.652207 
L 362.58495 120.028381 
L 363.394379 207.37009 
L 363.799093 224.745494 
L 364.001451 225.553652 
L 364.203808 219.755117 
L 364.406165 209.855177 
L 365.013237 141.36376 
L 365.620308 77.802103 
L 366.025023 61.881392 
L 366.429737 55.8 
L 366.632094 56.284894 
L 366.834451 58.891204 
L 367.036809 67.47789 
L 367.441523 96.228121 
L 368.048595 174.659882 
L 368.453309 204.723372 
L 368.655666 213.128219 
L 368.858024 215.471878 
L 369.060381 211.633126 
L 369.262738 201.915022 
L 369.86981 139.323162 
L 370.476881 82.004531 
L 370.881596 65.619117 
L 371.083953 65.17463 
L 371.28631 65.881773 
L 371.488667 69.760934 
L 371.691024 75.902936 
L 372.298096 114.330866 
L 373.107525 198.136882 
L 373.512239 220.058176 
L 373.714597 224.361619 
L 374.119311 223.674685 
L 374.321668 211.107823 
L 375.333454 108.714164 
L 375.738169 95.642198 
L 375.940526 92.975277 
L 376.142883 91.88427 
L 376.34524 96.995862 
L 376.749955 122.877138 
L 377.559383 180.983721 
L 377.964098 215.168818 
L 378.368812 228.786287 
L 378.57117 229.00853 
L 378.773527 223.149382 
L 378.975884 212.077613 
L 380.392384 96.975658 
L 380.797099 87.176745 
L 381.201813 79.68108 
L 381.40417 83.398601 
L 382.011242 119.947561 
L 382.820671 201.75339 
L 383.225385 217.653905 
L 383.427743 218.300432 
L 383.6301 213.027199 
L 384.034814 191.065496 
L 385.0466 118.55349 
L 385.451315 102.067059 
L 385.653672 101.602369 
L 385.856029 105.3401 
L 386.058386 112.876179 
L 387.070172 181.993919 
L 387.474887 221.613881 
L 387.879601 243.232117 
L 388.284316 252.263286 
L 388.68903 254.74837 
L 388.891387 249.071059 
L 389.700816 206.056833 
L 390.307888 194.985064 
L 390.914959 182.397998 
L 391.117316 187.125724 
L 391.926745 226.220384 
L 392.533817 269.881138 
L 392.938531 282.104531 
L 393.140888 283.943094 
L 393.343246 283.498608 
L 393.545603 283.963298 
L 393.74796 275.113962 
L 394.355032 234.443395 
L 395.569175 178.640062 
L 395.771532 172.700098 
L 395.973889 173.892132 
L 396.176247 182.115142 
L 396.783318 223.65448 
L 397.188033 261.718736 
L 397.592747 279.336587 
L 397.795104 282.084328 
L 397.997461 279.57904 
L 398.402176 261.658125 
L 400.628105 135.545018 
L 400.830462 138.353369 
L 401.03282 148.192695 
L 401.639891 204.561741 
L 402.044606 248.384125 
L 402.44932 268.466857 
L 402.651677 272.426838 
L 402.854034 270.790315 
L 403.258749 252.808793 
L 403.663463 224.725291 
L 404.877607 119.927358 
L 405.282321 99.642585 
L 405.484678 95.480571 
L 405.687035 96.551375 
L 405.889393 106.936217 
L 406.294107 143.869047 
L 406.901179 220.381439 
L 407.305893 244.161497 
L 407.50825 249.697382 
L 407.710607 249.172079 
L 408.115322 228.180167 
L 409.73418 97.440349 
L 409.936537 92.571197 
L 410.138894 92.429773 
L 410.341251 96.975658 
L 410.948323 132.655854 
L 411.15068 148.374532 
L 411.757752 218.1388 
L 412.162466 241.91886 
L 412.364823 248.323515 
L 412.56718 250.081259 
L 412.971895 232.241164 
L 414.388395 135.302572 
L 414.79311 121.927554 
L 415.197824 115.34106 
L 415.400181 122.028571 
L 416.20961 183.83248 
L 416.614325 228.523636 
L 417.019039 251.313699 
L 417.221396 255.516124 
L 417.423753 254.970614 
L 417.828468 239.009489 
L 419.244968 142.454773 
L 419.649683 129.01914 
L 419.85204 125.241002 
L 420.054397 126.655276 
L 420.256754 135.201555 
L 421.066183 199.631975 
L 421.673255 253.980623 
L 422.077969 269.840731 
L 422.280326 272.285408 
L 422.482684 271.638881 
L 422.685041 271.477248 
L 423.089755 241.15111 
L 423.899184 173.063768 
L 424.708613 134.312575 
L 424.91097 131.180964 
L 425.113327 135.120735 
L 425.518042 160.860578 
L 425.720399 172.477855 
L 426.529828 245.959651 
L 426.934542 264.244233 
L 427.136899 268.648694 
L 427.339257 269.436651 
L 427.541614 269.658894 
L 427.743971 261.193435 
L 428.148685 221.472453 
L 428.755757 160.557518 
L 429.160471 135.322775 
L 429.565186 127.200786 
L 429.9699 131.059744 
L 430.374615 147.020868 
L 430.576972 158.476511 
L 431.386401 233.251361 
L 431.791115 245.292921 
L 431.993472 243.292727 
L 432.398187 223.311013 
L 433.207616 159.264465 
L 434.017044 90.025497 
L 434.219402 85.216955 
L 435.02883 112.189245 
L 435.433545 136.777462 
L 436.040617 206.824584 
L 436.445331 228.988327 
L 436.647688 234.039315 
L 436.850045 233.372585 
L 437.25476 213.108015 
L 437.659474 178.761286 
L 438.468903 106.49173 
L 438.67126 96.915048 
L 438.873617 97.864632 
L 439.075975 104.855207 
L 439.278332 104.41072 
L 439.480689 106.612951 
L 439.885403 124.857125 
L 440.290118 149.202895 
L 440.897189 221.411841 
L 441.301904 243.35334 
L 441.504261 248.687185 
L 441.706618 249.212489 
L 442.111333 234.726251 
L 442.920762 183.569828 
L 443.527833 149.283709 
L 444.134905 126.917926 
L 444.337262 124.372232 
L 444.539619 130.675867 
L 445.146691 174.983146 
L 445.753762 243.009874 
L 446.158477 263.860356 
L 446.360834 268.729514 
L 446.563191 266.76973 
L 446.967906 248.182085 
L 448.586763 140.232339 
L 448.991478 127.261396 
L 449.193835 124.978352 
L 449.396192 131.524434 
L 450.003264 171.225208 
L 450.812693 249.919626 
L 451.217407 262.991586 
L 451.419764 263.112812 
L 451.824479 246.222301 
L 452.43155 196.661993 
L 453.038622 155.466124 
L 453.443336 138.717042 
L 453.848051 130.978924 
L 454.050408 134.292372 
L 454.252765 144.1115 
L 454.65748 172.033368 
L 454.859837 180.337195 
L 455.669266 243.959457 
L 456.07398 257.273868 
L 456.276337 258.768961 
L 456.478694 256.809177 
L 456.681052 253.75838 
L 456.883409 245.899038 
L 457.288123 219.351037 
L 457.692838 208.582328 
L 457.895195 209.269263 
L 458.299909 214.926371 
L 458.502267 214.784944 
L 458.906981 211.027007 
L 459.109338 211.55231 
L 459.514053 215.63351 
L 459.71641 219.856137 
L 460.728196 276.568649 
L 461.13291 280.9125 
L 461.537625 277.659663 
L 461.739982 268.891141 
L 462.144696 234.988902 
L 463.561197 167.022787 
L 463.763554 159.890788 
L 463.965911 161.042415 
L 464.572983 180.175564 
L 465.382412 245.979855 
L 465.584769 252.768383 
L 465.787126 255.43531 
L 465.989483 253.05124 
L 467.608341 162.133429 
L 468.620127 141.323353 
L 468.822484 144.394354 
L 469.429556 170.174604 
L 470.036627 225.897121 
L 470.441342 243.373544 
L 470.643699 245.959651 
L 470.846056 243.434157 
L 471.857842 193.409155 
L 472.869628 163.689133 
L 473.071985 164.174029 
L 473.274343 162.416282 
L 473.4767 163.648726 
L 473.679057 167.366253 
L 473.881414 173.831519 
L 474.083772 174.962942 
L 474.286129 182.499018 
L 474.8932 233.695848 
L 475.297915 249.656975 
L 475.500272 251.293496 
L 475.702629 249.293305 
L 476.107344 225.351614 
L 476.512058 203.733378 
L 477.321487 172.801118 
L 477.726201 153.00124 
L 477.928558 149.505952 
L 478.333273 154.112457 
L 478.53563 158.496715 
L 479.142702 182.983913 
L 479.952131 249.555955 
L 480.356845 259.233651 
L 480.559202 258.829571 
L 480.963917 237.130522 
L 482.785131 111.017412 
L 482.987489 105.21888 
L 483.189846 102.632773 
L 483.392203 108.168654 
L 483.999275 147.323925 
L 484.606346 217.16901 
L 485.011061 239.97928 
L 485.213418 244.302927 
L 485.415775 245.232308 
L 485.82049 225.816304 
L 486.225204 195.1669 
L 487.23699 106.794787 
L 487.439347 103.764193 
L 487.844062 110.209258 
L 488.248776 128.49384 
L 489.260562 204.642556 
L 489.665277 236.221342 
L 490.069991 251.051049 
L 490.272348 253.3543 
L 490.474705 252.243083 
L 490.677063 250.505542 
L 490.87942 240.94907 
L 491.891206 162.658732 
L 492.29592 145.263124 
L 492.498277 138.009899 
L 492.700635 136.029912 
L 492.902992 137.626029 
L 493.105349 142.35375 
L 493.712421 175.266002 
L 494.52185 245.959651 
L 495.128921 263.900763 
L 495.331278 264.042193 
L 495.533636 263.436073 
L 495.735993 256.021221 
L 496.950136 166.17422 
L 497.557208 142.252733 
L 497.759565 138.959489 
L 497.961922 142.111304 
L 498.568994 173.043565 
L 499.378422 245.515164 
L 499.58078 252.222876 
L 499.783137 254.667557 
L 499.985494 251.414719 
L 500.187851 243.05028 
L 500.794923 206.80438 
L 500.99728 201.793798 
L 501.401995 188.944081 
L 501.806709 177.892516 
L 502.009066 177.448028 
L 502.211423 179.468425 
L 502.413781 180.094747 
L 502.616138 178.458226 
L 503.020852 187.994494 
L 503.223209 188.540001 
L 503.425567 195.914447 
L 504.032638 245.676795 
L 504.437353 258.506311 
L 504.63971 260.102422 
L 504.842067 257.778964 
L 505.246782 233.857481 
L 505.651496 210.4815 
L 507.270354 138.676636 
L 507.472711 135.625838 
L 507.675068 138.959489 
L 508.28214 166.47728 
L 508.889211 223.432237 
L 509.293926 240.24193 
L 509.496283 243.696807 
L 509.69864 241.898657 
L 510.103354 218.785327 
L 511.722212 114.371273 
L 512.126927 96.935252 
L 512.329284 98.490962 
L 512.936355 132.231571 
L 513.34107 170.457458 
L 513.745784 213.128219 
L 514.150499 235.433388 
L 514.352856 240.90866 
L 514.555213 241.393557 
L 514.75757 232.665448 
L 516.174071 137.686639 
L 516.376428 136.615829 
L 516.781142 145.768221 
L 516.9835 143.081097 
L 517.185857 143.606397 
L 517.590571 160.981802 
L 517.792928 165.143819 
L 517.995286 175.649876 
L 518.4 214.582904 
L 518.4 214.582904 
" clip-path="url(#p189a746bbd)" style="fill: none; stroke: #1f77b4; stroke-width: 1.5; stroke-linecap: square"/>
   </g>
   <g id="line2d_14">
    <path d="M 72 253.966618 
L 72.202357 263.575637 
L 72.404714 262.182892 
L 72.607072 265.7258 
L 73.011786 252.930271 
L 73.4165 232.556919 
L 73.618858 226.551189 
L 73.821215 227.44643 
L 74.023572 233.328305 
L 74.225929 233.269291 
L 74.428286 232.870924 
L 75.035358 201.947396 
L 75.237715 190.349102 
L 75.440073 185.491287 
L 75.64243 185.370739 
L 76.047144 204.426814 
L 76.249501 217.587973 
L 76.451859 222.590347 
L 76.654216 222.914717 
L 77.05893 234.140516 
L 77.261287 235.877326 
L 77.666002 213.950499 
L 77.868359 212.866209 
L 78.070716 212.773062 
L 78.273073 208.783375 
L 78.475431 207.262939 
L 78.677788 203.154404 
L 78.880145 204.942796 
L 79.284859 197.901086 
L 79.487217 189.240405 
L 80.296646 137.694961 
L 80.499003 147.077342 
L 81.510789 241.405386 
L 81.713146 267.112997 
L 82.11786 278.365953 
L 82.320218 273.793562 
L 82.522575 274.276123 
L 82.927289 261.132782 
L 83.332004 247.041726 
L 83.534361 250.289307 
L 83.736718 256.904419 
L 83.939075 253.981519 
L 84.34379 235.225481 
L 84.546147 237.281351 
L 84.748504 236.156335 
L 84.950861 236.598864 
L 85.153218 255.97785 
L 85.557933 264.259465 
L 85.76029 262.856226 
L 85.962647 262.724468 
L 86.165005 260.09151 
L 86.367362 266.330883 
L 86.772076 262.280797 
L 86.974433 262.292059 
L 87.581505 255.215024 
L 87.783862 255.925641 
L 87.986219 263.2219 
L 88.188577 262.8923 
L 88.795648 269.298817 
L 89.200363 278.410183 
L 89.40272 276.63679 
L 89.807434 236.311199 
L 90.009791 234.541963 
L 90.212149 235.12838 
L 90.81922 254.93945 
L 91.021578 251.355324 
L 91.223935 257.890415 
L 91.426292 259.152881 
L 92.033364 276.317752 
L 92.640435 244.854547 
L 92.842792 245.442265 
L 93.247507 263.023302 
L 93.449864 264.794738 
L 93.652221 262.6711 
L 93.854578 256.811657 
L 94.056936 254.515013 
L 94.259293 257.044573 
L 94.46165 254.320589 
L 94.664007 245.766731 
L 94.866364 242.854304 
L 95.068722 245.880258 
L 95.271079 242.322357 
L 95.473436 245.077741 
L 95.87815 265.24632 
L 96.282865 259.192318 
L 96.485222 258.592004 
L 96.687579 264.195185 
L 96.889937 264.999012 
L 97.092294 259.682845 
L 97.497008 238.061526 
L 98.10408 225.708754 
L 98.306437 220.031068 
L 98.711151 235.977794 
L 98.913509 239.3256 
L 99.115866 236.173485 
L 99.318223 214.664419 
L 99.52058 207.367889 
L 99.722937 213.060008 
L 99.925295 223.733592 
L 100.127652 219.498216 
L 100.330009 219.595588 
L 100.734723 240.574718 
L 100.937081 256.447149 
L 101.139438 256.051716 
L 101.544152 259.54951 
L 101.948867 250.476529 
L 102.151224 250.79885 
L 102.353581 251.953254 
L 102.555938 256.526643 
L 102.758296 257.709167 
L 103.16301 271.251807 
L 103.365367 272.831624 
L 103.567724 264.726383 
L 104.377153 218.817162 
L 104.57951 222.403171 
L 105.591296 255.646992 
L 105.996011 285.821021 
L 106.198368 285.07233 
L 106.400725 284.954123 
L 106.603083 277.636784 
L 106.80544 275.937662 
L 107.007797 270.595277 
L 107.210154 272.418485 
L 107.412511 273.165072 
L 108.019583 255.643334 
L 108.22194 256.347261 
L 108.424297 257.522942 
L 108.626655 254.321982 
L 109.031369 232.922571 
L 109.233726 214.805927 
L 109.638441 196.600364 
L 109.840798 203.205344 
L 110.043155 231.38793 
L 110.245512 227.827868 
L 110.650227 274.524284 
L 110.852584 278.713344 
L 111.054941 272.028907 
L 111.257298 271.611215 
L 111.86437 249.344065 
L 112.066727 232.167325 
L 112.269084 224.663137 
L 112.471442 240.387511 
L 112.876156 211.278638 
L 113.078513 215.087716 
L 113.483228 196.700078 
L 113.685585 197.344649 
L 113.887942 189.567649 
L 114.090299 192.759038 
L 114.292656 191.067944 
L 114.495014 196.542393 
L 114.697371 206.946433 
L 114.899728 205.801621 
L 115.102085 203.929504 
L 115.304442 219.132525 
L 115.709157 263.698839 
L 115.911514 266.654254 
L 116.113871 264.849972 
L 116.316228 260.468175 
L 116.518586 258.514522 
L 116.720943 258.027008 
L 117.125657 245.343411 
L 117.328015 224.469183 
L 117.732729 206.122963 
L 118.137443 171.684725 
L 118.339801 148.268397 
L 118.542158 150.082007 
L 118.946872 145.802276 
L 119.149229 154.890241 
L 119.351587 169.432519 
L 119.553944 166.698833 
L 120.970444 285.843993 
L 121.172801 280.019102 
L 121.375159 270.9909 
L 121.577516 268.671033 
L 121.779873 264.119852 
L 121.98223 262.089215 
L 122.184587 251.057168 
L 122.386945 216.325761 
L 122.589302 218.49439 
L 122.791659 215.424234 
L 123.196374 194.74794 
L 123.398731 191.201584 
L 123.601088 174.179769 
L 123.803445 180.467167 
L 124.005802 201.140155 
L 124.20816 207.346049 
L 124.410517 205.788595 
L 124.612874 211.108456 
L 125.219946 239.809011 
L 125.62466 269.464771 
L 125.827017 271.673777 
L 126.029374 271.396907 
L 126.636446 253.990246 
L 127.04116 231.274657 
L 127.243518 196.607694 
L 127.445875 193.641019 
L 127.648232 185.111439 
L 127.850589 185.915701 
L 128.052947 177.930978 
L 128.255304 164.060493 
L 128.457661 164.894714 
L 128.660018 161.11912 
L 128.862375 162.070407 
L 129.064733 171.662241 
L 129.469447 233.759938 
L 129.874161 242.991361 
L 130.278876 250.695621 
L 130.481233 247.751496 
L 130.68359 249.388787 
L 130.885947 249.88326 
L 131.088305 248.402828 
L 131.290662 237.250343 
L 131.695376 226.395768 
L 132.100091 210.972138 
L 132.707162 164.946235 
L 132.909519 159.138531 
L 133.111877 160.20866 
L 133.516591 169.80418 
L 133.718948 164.923792 
L 134.123663 145.298216 
L 134.32602 145.931223 
L 134.528377 152.992599 
L 134.730734 171.88999 
L 135.135449 234.50283 
L 135.540163 255.132493 
L 135.74252 258.547442 
L 135.944878 255.269774 
L 136.147235 219.897574 
L 136.349592 226.856171 
L 136.754306 198.61402 
L 136.956664 184.361981 
L 137.159021 184.393114 
L 137.563735 194.704699 
L 137.766092 197.315716 
L 137.96845 198.007284 
L 138.373164 202.364353 
L 138.575521 197.475937 
L 138.777879 198.187837 
L 139.182593 201.468114 
L 139.38495 216.295395 
L 139.789665 259.986221 
L 140.194379 268.387455 
L 140.396736 264.130248 
L 140.599093 263.064507 
L 140.801451 263.306058 
L 141.003808 260.274948 
L 141.206165 263.001025 
L 141.408522 225.8704 
L 141.610879 219.202717 
L 141.813237 226.488303 
L 142.015594 222.87248 
L 142.217951 214.123714 
L 142.420308 210.299406 
L 142.825023 220.721758 
L 143.02738 218.877606 
L 143.229737 224.754117 
L 143.634451 220.563601 
L 143.836809 228.184742 
L 144.039166 243.36231 
L 144.241523 249.586687 
L 144.44388 248.59422 
L 144.646238 252.485563 
L 144.848595 252.269503 
L 145.050952 253.573014 
L 145.253309 260.915498 
L 145.455666 262.724707 
L 145.658024 259.778327 
L 146.265095 229.489662 
L 146.467452 213.912359 
L 146.66981 212.331316 
L 146.872167 212.112305 
L 147.074524 199.409911 
L 147.276881 199.63648 
L 147.479238 197.709579 
L 147.681596 207.653475 
L 147.883953 226.722224 
L 148.288667 231.106328 
L 148.491024 224.814322 
L 148.693382 226.61746 
L 148.895739 225.537685 
L 149.098096 229.44301 
L 149.502811 248.285462 
L 149.705168 253.827619 
L 149.907525 255.462185 
L 150.109882 256.037742 
L 150.312239 266.130991 
L 150.514597 264.646631 
L 150.919311 254.801929 
L 151.526383 225.531698 
L 151.72874 216.565778 
L 151.931097 214.661619 
L 152.133454 214.630561 
L 152.335811 207.762368 
L 152.538169 216.749141 
L 152.740526 220.125936 
L 153.14524 234.604046 
L 153.347597 229.974693 
L 153.549955 227.986433 
L 153.752312 232.195381 
L 153.954669 245.367886 
L 154.157026 248.980101 
L 154.359383 250.310827 
L 154.561741 259.746868 
L 154.764098 263.942888 
L 155.573527 252.541482 
L 156.585313 170.734963 
L 156.78767 174.345051 
L 157.192384 209.216656 
L 157.394742 223.482945 
L 157.799456 193.209451 
L 158.001813 170.813208 
L 158.20417 161.383482 
L 158.406528 159.765898 
L 158.811242 200.732761 
L 159.013599 212.455562 
L 159.620671 281.665782 
L 159.823028 287.903044 
L 160.025385 278.459599 
L 160.4301 217.108233 
L 160.834814 196.441388 
L 161.037171 194.383923 
L 161.239529 206.865942 
L 161.644243 217.52478 
L 162.453672 165.552186 
L 162.656029 162.367867 
L 162.858386 170.943204 
L 163.263101 210.609075 
L 163.465458 218.000523 
L 163.870172 248.811916 
L 164.072529 257.213325 
L 164.477244 286.794933 
L 164.679601 280.389759 
L 164.881958 278.831245 
L 165.286673 257.680218 
L 165.48903 247.879357 
L 165.691387 222.812936 
L 165.893744 215.828027 
L 166.096102 213.195597 
L 166.298459 208.868654 
L 166.90553 172.397314 
L 167.107888 157.768254 
L 167.310245 156.138782 
L 167.714959 175.976545 
L 167.917316 175.740588 
L 168.119674 186.760989 
L 168.524388 239.390883 
L 168.726745 238.126825 
L 169.13146 264.997515 
L 169.333817 255.937455 
L 169.536174 262.035877 
L 169.738531 258.991794 
L 169.940888 248.927143 
L 170.143246 253.528192 
L 170.345603 253.496868 
L 170.750317 179.335897 
L 170.952675 191.106135 
L 171.155032 186.487326 
L 171.559746 169.189284 
L 171.762103 175.51752 
L 172.166818 156.428052 
L 172.369175 147.467362 
L 172.976247 149.722862 
L 173.178604 190.495679 
L 173.380961 254.068807 
L 173.583318 254.761528 
L 173.785675 262.903396 
L 174.19039 290.390062 
L 174.392747 295.354781 
L 174.595104 296.497929 
L 174.999819 268.831678 
L 175.404533 251.956728 
L 175.60689 241.455373 
L 175.809248 211.294152 
L 176.011605 209.2739 
L 176.213962 199.532832 
L 176.416319 196.503841 
L 176.618676 163.962744 
L 176.821034 167.056799 
L 177.225748 182.611365 
L 177.630462 154.156684 
L 178.035177 186.52977 
L 178.237534 200.33965 
L 178.642248 279.103825 
L 178.844606 272.948211 
L 179.046963 273.351978 
L 179.451677 287.595753 
L 180.261106 214.764232 
L 180.463463 209.444214 
L 180.66582 200.123934 
L 181.475249 148.823137 
L 181.677607 146.66243 
L 182.082321 145.830378 
L 182.284678 140.895117 
L 182.689393 164.134061 
L 182.89175 172.708773 
L 183.498821 228.903809 
L 183.701179 258.122005 
L 183.903536 270.008961 
L 184.105893 273.947732 
L 184.30825 269.329564 
L 184.915322 246.754555 
L 185.522393 191.04291 
L 186.331822 142.800735 
L 186.53418 143.086786 
L 186.938894 171.353471 
L 187.141251 171.186731 
L 187.343608 168.789224 
L 187.748323 187.963689 
L 188.153037 206.907304 
L 188.557752 255.903971 
L 188.760109 251.923578 
L 188.962466 245.713267 
L 189.164823 253.112543 
L 189.36718 252.624468 
L 189.771895 244.160684 
L 189.974252 243.696703 
L 190.176609 223.130618 
L 190.581324 211.360786 
L 190.986038 207.469196 
L 191.188395 199.335431 
L 191.390752 175.78229 
L 191.59311 166.803465 
L 191.795467 176.259101 
L 191.997824 179.947906 
L 192.200181 181.205853 
L 192.402539 178.578092 
L 192.604896 178.252816 
L 193.00961 194.54462 
L 193.414325 250.463003 
L 193.616682 262.322321 
L 193.819039 257.619657 
L 194.223753 244.306653 
L 194.426111 242.468509 
L 194.628468 231.964561 
L 195.033182 204.243078 
L 195.437897 212.37813 
L 195.640254 207.076137 
L 195.842611 209.011572 
L 196.044968 209.073981 
L 196.449683 198.80447 
L 196.65204 211.454361 
L 196.854397 215.77327 
L 197.056754 206.826813 
L 197.259112 205.001997 
L 197.461469 208.735035 
L 197.663826 216.32087 
L 198.06854 279.161194 
L 198.270898 288.423048 
L 198.675612 281.558303 
L 199.282684 246.928631 
L 199.687398 208.047851 
L 199.889755 202.069205 
L 200.092112 208.555666 
L 200.29447 207.146021 
L 200.496827 209.337798 
L 200.699184 187.855212 
L 200.901541 152.273298 
L 201.103898 145.506903 
L 201.71097 164.888509 
L 201.913327 162.946158 
L 202.115684 165.349766 
L 202.722756 235.780942 
L 203.127471 244.732869 
L 203.532185 273.034769 
L 204.543971 221.903464 
L 204.746328 192.921377 
L 205.151043 207.080583 
L 205.960471 161.46641 
L 206.162829 162.989685 
L 206.365186 175.824652 
L 206.567543 201.344662 
L 206.7699 190.22494 
L 206.972257 196.665354 
L 207.174615 199.101439 
L 207.376972 210.006244 
L 207.781686 243.920358 
L 207.984044 252.332025 
L 208.186401 252.7678 
L 208.388758 243.162326 
L 208.591115 213.937119 
L 208.793472 207.428875 
L 208.99583 207.032014 
L 209.400544 187.693594 
L 209.602901 176.811755 
L 209.805258 173.308986 
L 210.209973 192.529552 
L 210.41233 174.237161 
L 210.817044 166.62044 
L 211.221759 128.303258 
L 211.82883 144.07828 
L 212.840617 255.559593 
L 213.042974 253.4615 
L 213.447688 259.773748 
L 213.650045 255.665986 
L 213.852403 243.663655 
L 214.257117 183.17612 
L 214.459474 180.301818 
L 214.661831 170.230863 
L 214.864189 167.449872 
L 215.066546 160.886925 
L 215.268903 139.966596 
L 215.47126 133.753557 
L 215.673617 117.910333 
L 215.875975 112.079458 
L 216.078332 124.760644 
L 216.280689 155.426395 
L 216.483046 131.377536 
L 216.685403 127.435696 
L 217.292475 173.492698 
L 217.494832 209.073475 
L 218.101904 250.904679 
L 218.304261 248.971585 
L 218.911333 236.776423 
L 219.316047 180.781277 
L 219.518404 177.132743 
L 219.720762 163.547519 
L 219.923119 157.8913 
L 220.125476 168.343252 
L 220.327833 185.359827 
L 220.53019 185.787047 
L 220.732548 158.249137 
L 220.934905 164.689151 
L 221.744334 231.662548 
L 221.946691 238.748576 
L 222.351405 228.938444 
L 222.553762 236.163975 
L 222.75612 250.859829 
L 222.958477 250.558923 
L 223.160834 247.25025 
L 223.363191 241.111219 
L 223.565549 241.572137 
L 223.767906 240.124536 
L 223.970263 244.223083 
L 224.17262 220.816552 
L 224.577335 209.818621 
L 224.779692 209.31604 
L 224.982049 210.810683 
L 225.184406 211.101424 
L 225.386763 224.069547 
L 225.589121 222.276455 
L 225.791478 235.527814 
L 225.993835 237.048156 
L 226.196192 243.933534 
L 226.600907 225.205382 
L 227.005621 242.896122 
L 227.612693 280.778177 
L 228.624479 263.098003 
L 228.826836 264.6874 
L 229.029193 265.094579 
L 229.23155 253.381165 
L 229.433908 226.33349 
L 229.636265 218.122255 
L 229.838622 215.034974 
L 230.445694 184.639329 
L 230.648051 169.108114 
L 230.850408 169.361455 
L 231.45748 206.39227 
L 231.659837 241.055423 
L 231.862194 245.45653 
L 232.064551 234.810996 
L 232.469266 270.974514 
L 232.671623 269.413232 
L 232.87398 270.384516 
L 233.076337 268.388775 
L 233.481052 241.104793 
L 233.683409 234.694019 
L 233.885766 187.844589 
L 234.088123 202.686543 
L 234.290481 192.188016 
L 234.492838 202.03703 
L 234.695195 218.94919 
L 234.897552 209.338695 
L 235.099909 185.227271 
L 235.504624 178.061445 
L 235.706981 180.94069 
L 235.909338 179.480148 
L 236.111695 182.01266 
L 237.325839 277.621011 
L 237.730553 260.093922 
L 238.135267 252.442732 
L 238.337625 230.830183 
L 238.742339 259.443056 
L 238.944696 253.760368 
L 239.147053 212.691961 
L 239.349411 222.183947 
L 239.551768 215.549233 
L 239.754125 204.405153 
L 239.956482 200.833008 
L 240.15884 208.298187 
L 240.361197 238.248668 
L 240.968268 249.464893 
L 241.170626 244.632951 
L 241.372983 245.725781 
L 241.57534 248.411199 
L 241.777697 247.224008 
L 241.980054 244.961259 
L 242.182412 244.404883 
L 242.384769 249.772857 
L 242.789483 241.294421 
L 242.99184 244.683306 
L 243.194198 244.013397 
L 243.396555 238.965864 
L 244.003626 204.313024 
L 244.205984 195.286774 
L 244.408341 194.203978 
L 244.610698 196.574481 
L 244.813055 192.994227 
L 245.21777 169.69308 
L 245.420127 177.43155 
L 245.622484 177.589943 
L 245.824841 183.16481 
L 246.431913 243.995421 
L 247.038985 270.995797 
L 247.241342 272.129568 
L 247.443699 275.187154 
L 247.646056 274.923325 
L 248.253128 215.205717 
L 249.669628 133.103029 
L 249.871985 138.96891 
L 250.074343 139.720271 
L 250.2767 166.1901 
L 250.479057 165.46291 
L 250.681414 167.986391 
L 250.883772 182.766771 
L 251.086129 206.209432 
L 251.288486 213.315502 
L 251.6932 240.875918 
L 251.895558 238.353438 
L 252.097915 238.61587 
L 252.300272 239.174575 
L 252.502629 251.59098 
L 252.704986 254.328088 
L 252.907344 252.494524 
L 253.109701 241.095501 
L 253.514415 189.046 
L 253.91913 156.340512 
L 254.323844 132.801758 
L 254.728558 116.294645 
L 254.930916 132.565596 
L 255.133273 159.452481 
L 255.33563 161.856982 
L 255.537987 168.930255 
L 255.942702 208.842422 
L 256.549773 269.614326 
L 256.752131 263.980128 
L 256.954488 252.681202 
L 257.156845 251.929528 
L 257.359202 262.760523 
L 257.561559 254.263894 
L 257.966274 219.717465 
L 258.168631 224.083673 
L 258.573345 197.833228 
L 258.97806 162.27557 
L 259.180417 153.502774 
L 259.382774 151.926428 
L 259.585131 165.947591 
L 259.787489 162.020334 
L 260.39456 181.826508 
L 260.596917 194.641317 
L 261.001632 229.494804 
L 261.406346 256.519014 
L 261.608704 278.271926 
L 261.811061 263.541079 
L 262.013418 257.551437 
L 262.215775 256.488998 
L 262.418132 259.117083 
L 262.62049 251.546397 
L 263.025204 220.029733 
L 263.227561 219.516695 
L 263.632276 209.42197 
L 263.834633 214.868083 
L 264.03699 228.561392 
L 264.239347 230.338729 
L 264.441704 222.572649 
L 264.644062 225.141771 
L 264.846419 219.931569 
L 265.048776 222.261076 
L 265.45349 242.350505 
L 265.655848 264.427548 
L 265.858205 272.604514 
L 266.060562 270.883175 
L 266.262919 271.788725 
L 266.465277 261.76396 
L 266.667634 268.331 
L 266.869991 237.570477 
L 267.072348 224.936257 
L 267.477063 256.611366 
L 267.67942 253.832596 
L 267.881777 242.991364 
L 268.084134 224.619566 
L 268.286491 228.313934 
L 268.488849 226.248767 
L 268.691206 217.994794 
L 268.893563 227.445291 
L 269.298277 184.643048 
L 269.500635 188.825543 
L 269.702992 224.249334 
L 269.905349 225.361309 
L 270.107706 224.200641 
L 270.310063 232.072501 
L 270.512421 233.511431 
L 270.714778 233.9125 
L 271.32185 274.698664 
L 271.524207 275.808979 
L 271.928921 265.536206 
L 272.131278 263.508497 
L 272.333636 265.158209 
L 272.940707 223.032841 
L 273.143064 216.496476 
L 273.345422 196.932126 
L 273.547779 166.329796 
L 273.750136 165.973852 
L 274.15485 126.560323 
L 274.357208 159.109677 
L 274.559565 160.672325 
L 274.964279 152.356434 
L 275.166636 152.93718 
L 275.368994 164.500134 
L 275.571351 166.346323 
L 275.773708 178.627677 
L 275.976065 206.503067 
L 276.178422 217.734839 
L 276.38078 201.733616 
L 276.785494 218.876284 
L 276.987851 218.509818 
L 277.190209 217.10318 
L 277.392566 219.248934 
L 277.594923 219.877021 
L 277.79728 219.207162 
L 278.404352 169.379891 
L 278.606709 144.58736 
L 278.809066 136.394948 
L 279.011423 121.980831 
L 279.213781 129.768273 
L 279.416138 125.706687 
L 279.820852 176.348935 
L 280.225567 186.698053 
L 280.630281 257.385078 
L 280.832638 256.43968 
L 281.237353 252.640452 
L 281.642067 270.311681 
L 281.844424 252.28982 
L 282.046782 205.571492 
L 282.249139 215.072904 
L 282.451496 212.644338 
L 282.653853 196.261175 
L 283.260925 173.257658 
L 283.463282 162.831317 
L 283.665639 158.336619 
L 283.867996 144.797409 
L 284.070354 149.068167 
L 284.272711 144.847242 
L 284.475068 153.744948 
L 284.677425 167.69617 
L 284.879782 195.611868 
L 285.08214 202.739923 
L 285.689211 266.142983 
L 285.891568 269.068485 
L 286.093926 268.762599 
L 286.296283 267.855472 
L 286.700997 258.64099 
L 286.903354 261.950774 
L 287.105712 268.499851 
L 287.308069 260.217634 
L 287.712783 192.699886 
L 287.915141 187.701198 
L 288.117498 186.097959 
L 288.319855 185.963599 
L 288.522212 194.597099 
L 288.926927 183.283269 
L 289.129284 184.548 
L 289.331641 184.163635 
L 289.938713 203.500478 
L 290.545784 242.023231 
L 290.748141 233.502022 
L 290.950499 241.126632 
L 291.152856 238.216519 
L 291.355213 232.953106 
L 291.55757 233.939086 
L 291.759927 236.46103 
L 292.164642 211.680444 
L 292.569356 186.84166 
L 292.771714 166.001021 
L 292.974071 160.866636 
L 293.176428 144.447379 
L 293.378785 162.443264 
L 293.581142 141.349338 
L 293.7835 139.681809 
L 293.985857 143.324783 
L 294.188214 152.047096 
L 294.390571 145.716921 
L 294.592928 130.695948 
L 294.795286 196.766177 
L 294.997643 196.36059 
L 295.2 257.701109 
L 295.402357 246.415022 
L 295.807072 256.27472 
L 296.009429 251.958293 
L 296.6165 213.532841 
L 296.818858 201.164283 
L 297.223572 135.160105 
L 297.425929 119.308908 
L 297.628286 84.505541 
L 297.830644 82.436485 
L 298.235358 103.175828 
L 298.437715 102.166088 
L 298.640073 93.533718 
L 298.84243 97.743129 
L 299.044787 117.274675 
L 299.247144 106.241827 
L 299.449501 114.441223 
L 299.651859 186.115676 
L 300.056573 192.715141 
L 300.461287 224.849727 
L 300.663645 227.84844 
L 300.866002 217.412266 
L 301.068359 221.492592 
L 301.270716 207.43626 
L 301.473073 126.526593 
L 301.877788 107.136932 
L 302.080145 107.751398 
L 302.282502 109.865991 
L 302.484859 116.262971 
L 302.687217 107.745279 
L 302.889574 118.337709 
L 303.091931 109.097059 
L 303.294288 91.077779 
L 303.496646 87.534269 
L 303.699003 93.884098 
L 304.306074 127.899754 
L 304.508432 152.23793 
L 304.913146 236.058236 
L 305.115503 230.333239 
L 305.31786 232.70876 
L 305.520218 222.723826 
L 305.722575 234.799461 
L 305.924932 225.178406 
L 306.127289 225.34297 
L 306.329646 208.938911 
L 306.734361 152.99088 
L 306.936718 143.232444 
L 307.139075 149.513176 
L 307.341432 166.346311 
L 307.54379 154.55362 
L 307.746147 150.720368 
L 308.353218 121.160771 
L 308.555576 123.37894 
L 308.96029 130.659174 
L 309.162647 144.052437 
L 309.769719 214.220965 
L 310.376791 236.050647 
L 310.579148 235.152321 
L 311.590934 200.092976 
L 311.995648 136.640518 
L 312.400363 134.607304 
L 312.60272 134.344408 
L 312.805077 132.710585 
L 313.007434 136.583732 
L 313.209791 134.768336 
L 313.412149 138.370541 
L 313.614506 146.126715 
L 313.816863 147.151392 
L 314.01922 163.659496 
L 314.221578 207.162876 
L 314.423935 223.813775 
L 314.626292 226.918003 
L 314.828649 226.287437 
L 315.031006 227.004478 
L 315.233364 226.742725 
L 315.435721 229.056237 
L 315.840435 217.616678 
L 316.447507 211.925723 
L 316.852221 194.637768 
L 317.054578 190.535389 
L 317.256936 183.372849 
L 317.66165 177.814027 
L 318.066364 152.598995 
L 319.685222 262.098562 
L 319.887579 249.182739 
L 320.089937 272.025692 
L 320.292294 274.323919 
L 320.697008 263.790884 
L 321.101723 224.991342 
L 321.30408 224.493516 
L 321.506437 233.762064 
L 321.708794 210.805745 
L 322.113509 198.680675 
L 322.315866 213.515267 
L 322.72058 260.069496 
L 322.922937 248.505701 
L 323.125295 213.294266 
L 323.327652 198.180601 
L 323.732366 143.764244 
L 324.137081 121.330928 
L 324.339438 129.176692 
L 324.744152 234.074959 
L 325.351224 207.048188 
L 325.553581 225.095214 
L 325.755938 211.101768 
L 325.958296 151.540953 
L 326.160653 144.081251 
L 326.36301 143.48028 
L 326.565367 147.108991 
L 326.767724 154.707238 
L 326.970082 153.70312 
L 327.374796 169.879191 
L 327.577153 162.380797 
L 327.77951 160.931867 
L 327.981868 164.527751 
L 328.386582 182.181864 
L 328.993654 153.586104 
L 329.398368 161.549237 
L 329.600725 167.167147 
L 329.803083 180.329846 
L 330.00544 182.161235 
L 330.207797 188.014855 
L 330.410154 186.280508 
L 330.612511 146.996841 
L 330.814869 137.262441 
L 331.017226 151.814843 
L 331.219583 174.419767 
L 331.624297 177.725929 
L 331.826655 183.047792 
L 332.029012 180.137748 
L 332.433726 211.727043 
L 332.636083 220.369095 
L 333.040798 190.089003 
L 333.445512 161.85369 
L 333.850227 145.352161 
L 334.052584 152.172401 
L 334.254941 194.295753 
L 335.266727 243.040796 
L 335.469084 261.577956 
L 335.671442 269.343207 
L 335.873799 285.003987 
L 336.076156 279.642424 
L 336.683228 243.527573 
L 337.290299 230.006907 
L 337.492656 228.62036 
L 337.897371 250.970045 
L 338.099728 268.759825 
L 338.302085 272.175621 
L 338.504442 272.987856 
L 338.7068 263.469133 
L 338.909157 245.316423 
L 339.111514 211.540186 
L 339.313871 210.537504 
L 339.516228 237.126699 
L 339.718586 243.59394 
L 339.920943 227.332203 
L 340.325657 233.481159 
L 340.528015 253.010097 
L 340.730372 253.785524 
L 341.337443 235.242969 
L 341.539801 216.195367 
L 341.742158 211.716698 
L 341.944515 210.804056 
L 342.349229 197.552436 
L 342.551587 197.096718 
L 342.753944 191.856697 
L 343.158658 175.105259 
L 343.361015 143.459628 
L 343.563373 139.083502 
L 343.76573 143.105504 
L 343.968087 131.232761 
L 344.170444 130.597625 
L 344.372801 143.751178 
L 344.979873 207.279077 
L 345.384587 229.614601 
L 345.586945 223.942831 
L 345.789302 221.481201 
L 345.991659 226.358887 
L 346.194016 214.167415 
L 346.801088 148.039629 
L 347.003445 140.342587 
L 347.205802 137.020013 
L 347.610517 123.475114 
L 347.812874 127.122139 
L 348.015231 134.852113 
L 348.419946 158.042494 
L 348.622303 153.764562 
L 348.82466 198.260473 
L 349.229374 147.950138 
L 349.431732 173.096952 
L 349.634089 224.782441 
L 349.836446 242.098368 
L 350.038803 238.305448 
L 350.24116 202.775646 
L 350.443518 192.365465 
L 350.848232 144.919599 
L 351.050589 141.006334 
L 351.252947 148.502049 
L 352.062375 228.589831 
L 352.264733 236.478392 
L 352.46709 231.797908 
L 352.669447 219.75159 
L 352.871804 218.653553 
L 353.074161 215.138186 
L 353.276519 220.716916 
L 353.681233 269.582726 
L 353.88359 280.037084 
L 354.085947 279.27219 
L 354.288305 248.324411 
L 354.490662 252.477941 
L 354.693019 252.59075 
L 354.895376 245.25515 
L 355.097733 253.197432 
L 355.300091 233.521517 
L 355.502448 231.019562 
L 355.704805 219.713448 
L 355.907162 238.592402 
L 356.311877 201.284554 
L 356.716591 202.15508 
L 357.121306 216.035258 
L 357.323663 214.740834 
L 357.52602 214.609515 
L 357.728377 208.179138 
L 358.740163 135.077284 
L 358.94252 133.491723 
L 359.347235 107.020296 
L 359.549592 115.70048 
L 359.954306 225.012185 
L 360.156664 248.324242 
L 360.359021 258.481799 
L 360.561378 257.023387 
L 360.763735 254.004994 
L 360.966092 248.94878 
L 361.16845 250.987039 
L 361.370807 250.393638 
L 361.573164 254.6659 
L 362.180236 211.914354 
L 362.787307 224.188633 
L 363.192022 221.148916 
L 363.596736 182.000342 
L 363.799093 173.436018 
L 364.001451 180.793034 
L 364.203808 170.168746 
L 364.406165 188.577713 
L 364.608522 182.954513 
L 364.810879 169.582167 
L 365.013237 165.52413 
L 365.215594 172.081357 
L 365.417951 171.721197 
L 365.620308 172.840442 
L 365.822665 195.740616 
L 366.025023 264.590704 
L 366.22738 277.666033 
L 366.632094 234.486204 
L 366.834451 230.229282 
L 367.239166 200.904358 
L 367.441523 186.798345 
L 367.64388 242.598263 
L 367.846238 244.936778 
L 368.250952 254.09192 
L 368.655666 222.817875 
L 368.858024 280.739704 
L 369.060381 291.433832 
L 369.262738 285.550522 
L 369.465095 267.234132 
L 369.86981 131.930797 
L 370.072167 134.934909 
L 370.274524 131.363531 
L 370.476881 132.812688 
L 370.881596 164.039906 
L 371.083953 115.442537 
L 371.28631 110.085313 
L 371.488667 110.572723 
L 371.893382 201.811617 
L 372.500453 233.380023 
L 372.702811 223.414898 
L 373.107525 156.63819 
L 373.512239 130.495202 
L 373.916954 131.717612 
L 374.119311 146.928609 
L 374.321668 134.454821 
L 374.524025 136.022498 
L 374.726383 149.656097 
L 374.92874 145.686002 
L 375.131097 144.230524 
L 375.333454 139.055805 
L 375.535811 138.15333 
L 375.940526 156.263043 
L 376.34524 134.652142 
L 376.547597 134.192232 
L 376.749955 138.681748 
L 376.952312 135.525551 
L 377.154669 140.407358 
L 377.559383 172.941259 
L 377.964098 230.837489 
L 378.166455 236.114194 
L 378.57117 238.591315 
L 378.773527 244.913844 
L 379.178241 281.625394 
L 379.582956 307.686365 
L 379.785313 306.191094 
L 379.98767 307.8 
L 380.190027 301.412624 
L 380.392384 301.648326 
L 380.797099 288.97653 
L 381.201813 273.428109 
L 381.40417 273.505995 
L 382.011242 270.977398 
L 382.415956 275.165575 
L 382.618314 275.593738 
L 382.820671 276.743207 
L 383.023028 278.83675 
L 383.427743 272.600408 
L 383.6301 269.069516 
L 383.832457 274.540866 
L 384.034814 273.000431 
L 384.237171 266.939532 
L 384.237171 266.939532 
" clip-path="url(#p189a746bbd)" style="fill: none; stroke: #ff7f0e; stroke-width: 1.5; stroke-linecap: square"/>
   </g>
   <g id="line2d_15">
    <path d="M 384.439529 281.983654 
L 384.641886 298.183899 
L 384.844243 298.603347 
L 385.0466 287.888892 
L 385.248957 266.614283 
L 385.451315 263.847787 
L 385.653672 254.225089 
L 385.856029 257.358032 
L 386.058386 251.604795 
L 386.463101 231.389562 
L 386.665458 227.05235 
L 386.867815 230.136069 
L 387.272529 245.511856 
L 387.474887 244.49478 
L 387.677244 251.118023 
L 387.879601 236.0746 
L 388.081958 205.651479 
L 388.284316 201.471866 
L 388.68903 161.949542 
L 388.891387 154.822911 
L 389.296102 128.609776 
L 389.498459 118.857143 
L 389.700816 121.433038 
L 389.903173 122.235533 
L 390.10553 125.071513 
L 390.307888 120.900305 
L 390.510245 112.57983 
L 390.712602 121.80901 
L 391.117316 154.340552 
L 391.319674 152.760763 
L 391.522031 143.429642 
L 391.926745 172.674948 
L 392.129102 172.961803 
L 392.33146 157.378332 
L 392.533817 150.84624 
L 392.736174 152.792387 
L 392.938531 150.833776 
L 393.343246 121.645493 
L 393.545603 114.000652 
L 393.74796 111.803791 
L 393.950317 114.275202 
L 394.152675 119.272687 
L 394.355032 120.242063 
L 394.557389 134.128253 
L 394.962103 126.314703 
L 395.164461 133.78428 
L 395.771532 178.681131 
L 396.378604 199.680497 
L 396.580961 199.438641 
L 396.783318 209.765361 
L 396.985675 206.809224 
L 397.188033 200.769809 
L 397.795104 221.482728 
L 397.997461 221.485152 
L 398.199819 217.357722 
L 398.402176 221.079926 
L 398.604533 222.710448 
L 398.80689 208.603171 
L 399.009248 185.307074 
L 399.211605 201.376219 
L 399.413962 194.90084 
L 399.818676 157.742371 
L 400.021034 156.043497 
L 400.223391 158.647709 
L 400.425748 142.29365 
L 400.628105 138.221943 
L 400.830462 138.535856 
L 401.03282 123.887614 
L 401.235177 125.876408 
L 401.437534 115.589834 
L 401.639891 122.82976 
L 401.842248 124.661229 
L 402.044606 152.411849 
L 402.246963 157.913698 
L 402.44932 167.728392 
L 402.854034 208.671413 
L 403.056392 199.076006 
L 403.258749 198.332778 
L 403.461106 188.987275 
L 403.663463 198.268834 
L 403.86582 202.112988 
L 404.270535 176.409422 
L 404.472892 180.922725 
L 405.079964 250.119729 
L 405.282321 233.526571 
L 405.484678 236.858534 
L 405.889393 261.943557 
L 406.09175 265.942115 
L 406.496464 257.603578 
L 406.901179 198.303613 
L 407.103536 199.071781 
L 407.305893 201.842671 
L 407.50825 196.108318 
L 407.710607 186.893351 
L 407.912965 195.872158 
L 408.520036 245.721387 
L 408.722393 246.976329 
L 408.924751 228.217192 
L 409.127108 227.777368 
L 409.329465 221.729864 
L 409.936537 149.243578 
L 410.138894 143.196677 
L 410.341251 148.15942 
L 410.543608 158.713471 
L 410.745966 138.520446 
L 410.948323 152.02793 
L 411.15068 149.512169 
L 411.353037 136.449212 
L 411.555394 135.127394 
L 411.757752 125.035421 
L 411.960109 126.818376 
L 412.364823 118.896248 
L 412.56718 122.013947 
L 412.769538 123.324565 
L 412.971895 116.776519 
L 413.174252 125.588516 
L 413.781324 218.379932 
L 414.186038 239.673507 
L 414.388395 237.138958 
L 414.590752 216.935787 
L 414.79311 220.699416 
L 414.995467 213.724392 
L 415.197824 219.801816 
L 415.400181 250.523997 
L 415.602539 264.010028 
L 415.804896 258.59444 
L 416.614325 190.734167 
L 416.816682 184.998843 
L 417.019039 184.99334 
L 417.221396 197.737587 
L 417.423753 202.256064 
L 417.626111 218.275442 
L 417.828468 224.309728 
L 418.030825 236.552979 
L 418.233182 233.601962 
L 418.435539 253.954583 
L 418.637897 260.035619 
L 419.244968 238.874095 
L 419.447325 224.822625 
L 419.85204 185.357438 
L 420.054397 179.899178 
L 420.256754 179.673228 
L 420.459112 182.828136 
L 420.661469 190.611453 
L 420.863826 189.314009 
L 421.066183 191.585111 
L 421.26854 192.167287 
L 421.470898 222.119391 
L 421.673255 210.455721 
L 422.077969 207.563392 
L 422.685041 199.185448 
L 422.887398 206.947108 
L 423.292112 232.024963 
L 423.49447 231.726045 
L 423.696827 230.461667 
L 423.899184 226.487959 
L 424.101541 235.136855 
L 424.506256 259.579687 
L 424.708613 260.681772 
L 424.91097 266.023825 
L 425.315684 253.406168 
L 426.125113 160.309628 
L 426.327471 157.661646 
L 426.732185 169.897642 
L 426.934542 164.015173 
L 427.136899 146.865666 
L 427.339257 147.534993 
L 427.541614 159.780311 
L 427.946328 214.297741 
L 428.148685 213.279034 
L 428.351043 205.315585 
L 428.755757 162.86493 
L 428.958114 154.385417 
L 429.160471 160.187944 
L 429.362829 191.032893 
L 429.565186 176.249046 
L 429.767543 176.649181 
L 429.9699 182.786698 
L 430.172257 185.334623 
L 430.576972 140.809167 
L 430.779329 147.274306 
L 430.981686 141.684252 
L 431.184044 130.164976 
L 431.386401 169.655116 
L 431.588758 170.131322 
L 431.791115 172.150891 
L 431.993472 164.748595 
L 432.398187 184.016087 
L 432.802901 239.164405 
L 433.005258 251.464611 
L 433.207616 238.510796 
L 433.409973 245.435465 
L 433.61233 245.8192 
L 433.814687 247.69478 
L 434.017044 246.554727 
L 434.219402 247.30256 
L 434.421759 246.379593 
L 434.624116 232.45948 
L 434.826473 184.70974 
L 435.02883 189.648656 
L 435.231188 174.601214 
L 435.433545 171.761656 
L 435.635902 166.656935 
L 435.838259 154.185513 
L 436.040617 153.382818 
L 436.445331 190.839135 
L 436.850045 149.238883 
L 437.052403 139.79132 
L 437.25476 141.666989 
L 437.457117 140.570495 
L 437.861831 206.895597 
L 438.266546 232.029857 
L 438.468903 234.74048 
L 438.67126 229.445005 
L 438.873617 229.999883 
L 439.075975 234.752644 
L 439.278332 234.66658 
L 439.683046 251.998261 
L 439.885403 240.436728 
L 440.087761 207.446521 
L 440.290118 196.150289 
L 440.897189 251.184209 
L 441.099547 252.927917 
L 441.301904 250.875371 
L 441.706618 206.268327 
L 441.908976 206.506513 
L 442.111333 209.007983 
L 442.31369 205.876432 
L 442.516047 179.966001 
L 443.123119 157.770513 
L 443.325476 156.49332 
L 443.527833 163.834395 
L 443.73019 164.749608 
L 443.932548 154.66762 
L 444.134905 159.182853 
L 444.337262 229.637996 
L 444.539619 228.823585 
L 444.741976 237.616023 
L 444.944334 236.156783 
L 445.146691 225.76605 
L 445.349048 230.845878 
L 445.551405 232.098329 
L 445.753762 242.132778 
L 445.95612 244.381713 
L 446.158477 228.893603 
L 446.360834 230.228181 
L 446.563191 229.003967 
L 446.765549 232.466676 
L 447.170263 258.244299 
L 447.37262 264.031177 
L 447.574977 249.630383 
L 447.777335 244.315094 
L 448.182049 249.915928 
L 448.384406 247.204906 
L 448.586763 249.412488 
L 448.991478 214.748702 
L 449.193835 175.404032 
L 449.800907 142.800686 
L 450.003264 144.292779 
L 450.205621 150.848572 
L 450.407978 135.948215 
L 450.812693 184.718026 
L 451.419764 212.339601 
L 451.622121 206.115452 
L 451.824479 205.204381 
L 452.026836 199.56606 
L 452.229193 206.38335 
L 452.43155 194.341411 
L 454.050408 285.708068 
L 454.455122 281.935613 
L 454.65748 284.917705 
L 454.859837 283.532669 
L 455.062194 280.045872 
L 455.264551 272.857185 
L 455.669266 254.615312 
L 455.871623 253.296875 
L 456.07398 254.079253 
L 456.276337 252.798882 
L 456.883409 261.613355 
L 457.085766 263.347115 
L 457.288123 252.116133 
L 457.692838 247.000426 
L 458.097552 202.976818 
L 458.299909 176.068099 
L 458.502267 169.960535 
L 458.704624 169.710743 
L 459.109338 184.022897 
L 459.311695 187.997808 
L 459.71641 172.06672 
L 459.918767 173.996687 
L 460.121124 190.96041 
L 460.525839 242.678282 
L 460.728196 253.150523 
L 461.335267 207.211242 
L 461.537625 199.717182 
L 461.739982 209.39329 
L 462.347053 257.069176 
L 462.549411 263.526816 
L 462.751768 215.159161 
L 462.954125 208.654961 
L 463.35884 206.20402 
L 463.561197 213.514362 
L 463.763554 213.686553 
L 464.168268 233.733956 
L 464.370626 226.453275 
L 464.77534 205.866137 
L 464.977697 212.487064 
L 465.180054 206.804857 
L 465.382412 204.756762 
L 465.584769 205.693895 
L 465.787126 199.98827 
L 465.989483 190.994253 
L 466.19184 188.496869 
L 466.596555 208.925175 
L 467.001269 248.476722 
L 467.203626 247.75033 
L 467.405984 245.19435 
L 467.608341 251.539398 
L 467.810698 249.382189 
L 468.215413 257.434838 
L 468.41777 256.742025 
L 468.822484 245.1393 
L 469.024841 246.210659 
L 469.227199 249.62018 
L 469.429556 250.584803 
L 469.631913 254.677855 
L 469.83427 254.330212 
L 470.036627 246.50062 
L 470.238985 249.805484 
L 470.846056 229.131091 
L 471.048413 196.292535 
L 472.060199 276.109366 
L 472.464914 264.150488 
L 472.869628 277.572203 
L 473.071985 276.852785 
L 473.4767 260.76647 
L 473.881414 253.314829 
L 474.083772 243.823698 
L 474.488486 209.770465 
L 474.690843 202.244454 
L 475.095558 181.856578 
L 475.297915 192.646102 
L 475.500272 191.483973 
L 475.702629 185.380328 
L 476.107344 198.921428 
L 476.714415 254.261728 
L 477.11913 267.810364 
L 477.321487 264.072756 
L 477.523844 249.620171 
L 478.130916 186.016333 
L 478.333273 178.569746 
L 478.940345 237.96104 
L 479.142702 225.911604 
L 479.345059 222.370445 
L 479.749773 243.337485 
L 480.154488 261.09534 
L 480.356845 263.09758 
L 480.559202 259.49057 
L 480.761559 250.689653 
L 480.963917 247.69567 
L 481.166274 242.314698 
L 481.368631 240.042415 
L 481.570988 242.547433 
L 481.773345 249.450142 
L 481.975703 244.75407 
L 482.17806 235.556683 
L 482.380417 232.58298 
L 482.582774 227.734612 
L 482.987489 246.70119 
L 483.189846 259.244839 
L 483.392203 261.396776 
L 483.59456 260.172219 
L 483.796917 256.968669 
L 484.201632 260.280956 
L 484.403989 255.599926 
L 484.606346 259.202825 
L 484.808704 259.156146 
L 485.011061 263.8478 
L 485.213418 265.776695 
L 485.415775 259.882774 
L 486.225204 178.445386 
L 486.427561 174.698251 
L 486.629918 178.099734 
L 487.034633 166.640202 
L 487.23699 167.624951 
L 488.046419 212.174881 
L 488.248776 210.670566 
L 488.451133 217.016205 
L 489.058205 271.234071 
L 489.260562 276.434093 
L 489.462919 277.653231 
L 489.665277 276.171277 
L 489.867634 262.962557 
L 490.069991 234.088151 
L 490.474705 228.542345 
L 490.87942 215.167874 
L 491.081777 205.571453 
L 491.284134 204.757266 
L 491.486491 210.320698 
L 491.891206 202.634613 
L 492.093563 198.21668 
L 492.29592 197.017987 
L 492.498277 193.751024 
L 492.700635 197.354737 
L 492.902992 205.644364 
L 493.307706 245.998861 
L 493.510063 246.599627 
L 494.117135 220.028469 
L 494.319492 207.458589 
L 494.52185 208.390281 
L 494.926564 220.958262 
L 495.93835 178.788465 
L 496.140707 178.598704 
L 496.545422 192.727128 
L 496.747779 195.076968 
L 496.950136 199.118134 
L 497.152493 199.359836 
L 497.35485 195.274592 
L 497.557208 195.912218 
L 497.759565 194.418885 
L 497.961922 195.135363 
L 498.366636 229.359865 
L 498.771351 240.259519 
L 499.176065 248.738476 
L 499.58078 259.427118 
L 499.783137 263.775437 
L 500.794923 214.523678 
L 500.99728 211.379478 
L 501.401995 239.355313 
L 501.604352 243.516643 
L 502.009066 226.819964 
L 502.211423 220.427324 
L 502.413781 205.186405 
L 502.616138 202.206017 
L 502.818495 204.97594 
L 503.020852 215.268693 
L 503.223209 218.669607 
L 504.234995 265.342605 
L 504.437353 262.26721 
L 504.63971 267.421713 
L 504.842067 268.449238 
L 505.044424 263.406774 
L 505.246782 265.440608 
L 505.449139 261.64927 
L 505.651496 262.143798 
L 505.853853 260.895319 
L 506.05621 261.844927 
L 506.258568 257.785691 
L 506.460925 257.307094 
L 506.663282 254.029462 
L 506.865639 254.102163 
L 507.067996 260.200658 
L 507.270354 246.210994 
L 507.472711 246.119652 
L 508.079782 267.015853 
L 508.28214 266.566714 
L 508.484497 263.880345 
L 508.686854 258.551824 
L 509.091568 222.369535 
L 509.293926 222.091673 
L 509.496283 230.860782 
L 509.69864 228.99037 
L 510.103354 241.011763 
L 510.305712 246.454159 
L 510.508069 248.349831 
L 510.710426 247.631242 
L 511.115141 253.617895 
L 511.317498 251.147749 
L 511.519855 250.702117 
L 511.722212 247.63772 
L 512.126927 250.773384 
L 512.329284 249.023487 
L 512.531641 250.610736 
L 512.733998 251.199779 
L 512.936355 247.675436 
L 513.138713 247.592201 
L 513.34107 246.445576 
L 513.543427 248.554163 
L 513.745784 247.979419 
L 513.948141 248.795152 
L 514.352856 254.99504 
L 514.555213 254.350624 
L 514.75757 254.846442 
L 514.959927 253.400466 
L 515.364642 256.173016 
L 515.769356 256.967012 
L 515.971714 259.711524 
L 516.174071 258.126068 
L 516.578785 248.049741 
L 516.781142 248.639914 
L 516.9835 247.868733 
L 517.185857 248.707573 
L 517.388214 253.545305 
L 517.590571 254.379082 
L 517.792928 244.727963 
L 517.995286 245.239341 
L 518.4 257.425516 
L 518.4 257.425516 
" clip-path="url(#p189a746bbd)" style="fill: none; stroke: #2ca02c; stroke-width: 1.5; stroke-linecap: square"/>
   </g>
   <g id="patch_3">
    <path d="M 72 320.4 
L 72 43.2 
" style="fill: none; stroke: #000000; stroke-width: 0.8; stroke-linejoin: miter; stroke-linecap: square"/>
   </g>
   <g id="patch_4">
    <path d="M 518.4 320.4 
L 518.4 43.2 
" style="fill: none; stroke: #000000; stroke-width: 0.8; stroke-linejoin: miter; stroke-linecap: square"/>
   </g>
   <g id="patch_5">
    <path d="M 72 320.4 
L 518.4 320.4 
" style="fill: none; stroke: #000000; stroke-width: 0.8; stroke-linejoin: miter; stroke-linecap: square"/>
   </g>
   <g id="patch_6">
    <path d="M 72 43.2 
L 518.4 43.2 
" style="fill: none; stroke: #000000; stroke-width: 0.8; stroke-linejoin: miter; stroke-linecap: square"/>
   </g>
   <g id="text_13">
    <!-- LSTM -->
    <g transform="translate(279.20625 37.2) scale(0.12 -0.12)">
     <defs>
      <path id="DejaVuSans-4c" d="M 628 4666 
L 1259 4666 
L 1259 531 
L 3531 531 
L 3531 0 
L 628 0 
L 628 4666 
z
" transform="scale(0.015625)"/>
      <path id="DejaVuSans-53" d="M 3425 4513 
L 3425 3897 
Q 3066 4069 2747 4153 
Q 2428 4238 2131 4238 
Q 1616 4238 1336 4038 
Q 1056 3838 1056 3469 
Q 1056 3159 1242 3001 
Q 1428 2844 1947 2747 
L 2328 2669 
Q 3034 2534 3370 2195 
Q 3706 1856 3706 1288 
Q 3706 609 3251 259 
Q 2797 -91 1919 -91 
Q 1588 -91 1214 -16 
Q 841 59 441 206 
L 441 856 
Q 825 641 1194 531 
Q 1563 422 1919 422 
Q 2459 422 2753 634 
Q 3047 847 3047 1241 
Q 3047 1584 2836 1778 
Q 2625 1972 2144 2069 
L 1759 2144 
Q 1053 2284 737 2584 
Q 422 2884 422 3419 
Q 422 4038 858 4394 
Q 1294 4750 2059 4750 
Q 2388 4750 2728 4690 
Q 3069 4631 3425 4513 
z
" transform="scale(0.015625)"/>
      <path id="DejaVuSans-54" d="M -19 4666 
L 3928 4666 
L 3928 4134 
L 2272 4134 
L 2272 0 
L 1638 0 
L 1638 4134 
L -19 4134 
L -19 4666 
z
" transform="scale(0.015625)"/>
      <path id="DejaVuSans-4d" d="M 628 4666 
L 1569 4666 
L 2759 1491 
L 3956 4666 
L 4897 4666 
L 4897 0 
L 4281 0 
L 4281 4097 
L 3078 897 
L 2444 897 
L 1241 4097 
L 1241 0 
L 628 0 
L 628 4666 
z
" transform="scale(0.015625)"/>
     </defs>
     <use xlink:href="#DejaVuSans-4c"/>
     <use xlink:href="#DejaVuSans-53" x="55.712891"/>
     <use xlink:href="#DejaVuSans-54" x="119.189453"/>
     <use xlink:href="#DejaVuSans-4d" x="180.273438"/>
    </g>
   </g>
   <g id="legend_1">
    <g id="patch_7">
     <path d="M 79 95.234375 
L 161.517188 95.234375 
Q 163.517188 95.234375 163.517188 93.234375 
L 163.517188 50.2 
Q 163.517188 48.2 161.517188 48.2 
L 79 48.2 
Q 77 48.2 77 50.2 
L 77 93.234375 
Q 77 95.234375 79 95.234375 
z
" style="fill: #ffffff; opacity: 0.8; stroke: #cccccc; stroke-linejoin: miter"/>
    </g>
    <g id="line2d_16">
     <path d="M 81 56.298437 
L 91 56.298437 
L 101 56.298437 
" style="fill: none; stroke: #1f77b4; stroke-width: 1.5; stroke-linecap: square"/>
    </g>
    <g id="text_14">
     <!-- Measured -->
     <g transform="translate(109 59.798437) scale(0.1 -0.1)">
      <defs>
       <path id="DejaVuSans-65" d="M 3597 1894 
L 3597 1613 
L 953 1613 
Q 991 1019 1311 708 
Q 1631 397 2203 397 
Q 2534 397 2845 478 
Q 3156 559 3463 722 
L 3463 178 
Q 3153 47 2828 -22 
Q 2503 -91 2169 -91 
Q 1331 -91 842 396 
Q 353 884 353 1716 
Q 353 2575 817 3079 
Q 1281 3584 2069 3584 
Q 2775 3584 3186 3129 
Q 3597 2675 3597 1894 
z
M 3022 2063 
Q 3016 2534 2758 2815 
Q 2500 3097 2075 3097 
Q 1594 3097 1305 2825 
Q 1016 2553 972 2059 
L 3022 2063 
z
" transform="scale(0.015625)"/>
       <path id="DejaVuSans-61" d="M 2194 1759 
Q 1497 1759 1228 1600 
Q 959 1441 959 1056 
Q 959 750 1161 570 
Q 1363 391 1709 391 
Q 2188 391 2477 730 
Q 2766 1069 2766 1631 
L 2766 1759 
L 2194 1759 
z
M 3341 1997 
L 3341 0 
L 2766 0 
L 2766 531 
Q 2569 213 2275 61 
Q 1981 -91 1556 -91 
Q 1019 -91 701 211 
Q 384 513 384 1019 
Q 384 1609 779 1909 
Q 1175 2209 1959 2209 
L 2766 2209 
L 2766 2266 
Q 2766 2663 2505 2880 
Q 2244 3097 1772 3097 
Q 1472 3097 1187 3025 
Q 903 2953 641 2809 
L 641 3341 
Q 956 3463 1253 3523 
Q 1550 3584 1831 3584 
Q 2591 3584 2966 3190 
Q 3341 2797 3341 1997 
z
" transform="scale(0.015625)"/>
       <path id="DejaVuSans-73" d="M 2834 3397 
L 2834 2853 
Q 2591 2978 2328 3040 
Q 2066 3103 1784 3103 
Q 1356 3103 1142 2972 
Q 928 2841 928 2578 
Q 928 2378 1081 2264 
Q 1234 2150 1697 2047 
L 1894 2003 
Q 2506 1872 2764 1633 
Q 3022 1394 3022 966 
Q 3022 478 2636 193 
Q 2250 -91 1575 -91 
Q 1294 -91 989 -36 
Q 684 19 347 128 
L 347 722 
Q 666 556 975 473 
Q 1284 391 1588 391 
Q 1994 391 2212 530 
Q 2431 669 2431 922 
Q 2431 1156 2273 1281 
Q 2116 1406 1581 1522 
L 1381 1569 
Q 847 1681 609 1914 
Q 372 2147 372 2553 
Q 372 3047 722 3315 
Q 1072 3584 1716 3584 
Q 2034 3584 2315 3537 
Q 2597 3491 2834 3397 
z
" transform="scale(0.015625)"/>
       <path id="DejaVuSans-75" d="M 544 1381 
L 544 3500 
L 1119 3500 
L 1119 1403 
Q 1119 906 1312 657 
Q 1506 409 1894 409 
Q 2359 409 2629 706 
Q 2900 1003 2900 1516 
L 2900 3500 
L 3475 3500 
L 3475 0 
L 2900 0 
L 2900 538 
Q 2691 219 2414 64 
Q 2138 -91 1772 -91 
Q 1169 -91 856 284 
Q 544 659 544 1381 
z
M 1991 3584 
L 1991 3584 
z
" transform="scale(0.015625)"/>
       <path id="DejaVuSans-72" d="M 2631 2963 
Q 2534 3019 2420 3045 
Q 2306 3072 2169 3072 
Q 1681 3072 1420 2755 
Q 1159 2438 1159 1844 
L 1159 0 
L 581 0 
L 581 3500 
L 1159 3500 
L 1159 2956 
Q 1341 3275 1631 3429 
Q 1922 3584 2338 3584 
Q 2397 3584 2469 3576 
Q 2541 3569 2628 3553 
L 2631 2963 
z
" transform="scale(0.015625)"/>
       <path id="DejaVuSans-64" d="M 2906 2969 
L 2906 4863 
L 3481 4863 
L 3481 0 
L 2906 0 
L 2906 525 
Q 2725 213 2448 61 
Q 2172 -91 1784 -91 
Q 1150 -91 751 415 
Q 353 922 353 1747 
Q 353 2572 751 3078 
Q 1150 3584 1784 3584 
Q 2172 3584 2448 3432 
Q 2725 3281 2906 2969 
z
M 947 1747 
Q 947 1113 1208 752 
Q 1469 391 1925 391 
Q 2381 391 2643 752 
Q 2906 1113 2906 1747 
Q 2906 2381 2643 2742 
Q 2381 3103 1925 3103 
Q 1469 3103 1208 2742 
Q 947 2381 947 1747 
z
" transform="scale(0.015625)"/>
      </defs>
      <use xlink:href="#DejaVuSans-4d"/>
      <use xlink:href="#DejaVuSans-65" x="86.279297"/>
      <use xlink:href="#DejaVuSans-61" x="147.802734"/>
      <use xlink:href="#DejaVuSans-73" x="209.082031"/>
      <use xlink:href="#DejaVuSans-75" x="261.181641"/>
      <use xlink:href="#DejaVuSans-72" x="324.560547"/>
      <use xlink:href="#DejaVuSans-65" x="363.423828"/>
      <use xlink:href="#DejaVuSans-64" x="424.947266"/>
     </g>
    </g>
    <g id="line2d_17">
     <path d="M 81 70.976562 
L 91 70.976562 
L 101 70.976562 
" style="fill: none; stroke: #ff7f0e; stroke-width: 1.5; stroke-linecap: square"/>
    </g>
    <g id="text_15">
     <!-- Fitted -->
     <g transform="translate(109 74.476562) scale(0.1 -0.1)">
      <defs>
       <path id="DejaVuSans-46" d="M 628 4666 
L 3309 4666 
L 3309 4134 
L 1259 4134 
L 1259 2759 
L 3109 2759 
L 3109 2228 
L 1259 2228 
L 1259 0 
L 628 0 
L 628 4666 
z
" transform="scale(0.015625)"/>
       <path id="DejaVuSans-69" d="M 603 3500 
L 1178 3500 
L 1178 0 
L 603 0 
L 603 3500 
z
M 603 4863 
L 1178 4863 
L 1178 4134 
L 603 4134 
L 603 4863 
z
" transform="scale(0.015625)"/>
       <path id="DejaVuSans-74" d="M 1172 4494 
L 1172 3500 
L 2356 3500 
L 2356 3053 
L 1172 3053 
L 1172 1153 
Q 1172 725 1289 603 
Q 1406 481 1766 481 
L 2356 481 
L 2356 0 
L 1766 0 
Q 1100 0 847 248 
Q 594 497 594 1153 
L 594 3053 
L 172 3053 
L 172 3500 
L 594 3500 
L 594 4494 
L 1172 4494 
z
" transform="scale(0.015625)"/>
      </defs>
      <use xlink:href="#DejaVuSans-46"/>
      <use xlink:href="#DejaVuSans-69" x="50.269531"/>
      <use xlink:href="#DejaVuSans-74" x="78.052734"/>
      <use xlink:href="#DejaVuSans-74" x="117.261719"/>
      <use xlink:href="#DejaVuSans-65" x="156.470703"/>
      <use xlink:href="#DejaVuSans-64" x="217.994141"/>
     </g>
    </g>
    <g id="line2d_18">
     <path d="M 81 85.654687 
L 91 85.654687 
L 101 85.654687 
" style="fill: none; stroke: #2ca02c; stroke-width: 1.5; stroke-linecap: square"/>
    </g>
    <g id="text_16">
     <!-- Estimated -->
     <g transform="translate(109 89.154687) scale(0.1 -0.1)">
      <defs>
       <path id="DejaVuSans-45" d="M 628 4666 
L 3578 4666 
L 3578 4134 
L 1259 4134 
L 1259 2753 
L 3481 2753 
L 3481 2222 
L 1259 2222 
L 1259 531 
L 3634 531 
L 3634 0 
L 628 0 
L 628 4666 
z
" transform="scale(0.015625)"/>
       <path id="DejaVuSans-6d" d="M 3328 2828 
Q 3544 3216 3844 3400 
Q 4144 3584 4550 3584 
Q 5097 3584 5394 3201 
Q 5691 2819 5691 2113 
L 5691 0 
L 5113 0 
L 5113 2094 
Q 5113 2597 4934 2840 
Q 4756 3084 4391 3084 
Q 3944 3084 3684 2787 
Q 3425 2491 3425 1978 
L 3425 0 
L 2847 0 
L 2847 2094 
Q 2847 2600 2669 2842 
Q 2491 3084 2119 3084 
Q 1678 3084 1418 2786 
Q 1159 2488 1159 1978 
L 1159 0 
L 581 0 
L 581 3500 
L 1159 3500 
L 1159 2956 
Q 1356 3278 1631 3431 
Q 1906 3584 2284 3584 
Q 2666 3584 2933 3390 
Q 3200 3197 3328 2828 
z
" transform="scale(0.015625)"/>
      </defs>
      <use xlink:href="#DejaVuSans-45"/>
      <use xlink:href="#DejaVuSans-73" x="63.183594"/>
      <use xlink:href="#DejaVuSans-74" x="115.283203"/>
      <use xlink:href="#DejaVuSans-69" x="154.492188"/>
      <use xlink:href="#DejaVuSans-6d" x="182.275391"/>
      <use xlink:href="#DejaVuSans-61" x="279.6875"/>
      <use xlink:href="#DejaVuSans-74" x="340.966797"/>
      <use xlink:href="#DejaVuSans-65" x="380.175781"/>
      <use xlink:href="#DejaVuSans-64" x="441.699219"/>
     </g>
    </g>
   </g>
  </g>
 </g>
 <defs>
  <clipPath id="p189a746bbd">
   <rect x="72" y="43.2" width="446.4" height="277.2"/>
  </clipPath>
 </defs>
</svg>
