<?xml version="1.0" encoding="utf-8" standalone="no"?>
<!DOCTYPE svg PUBLIC "-//W3C//DTD SVG 1.1//EN"
  "http://www.w3.org/Graphics/SVG/1.1/DTD/svg11.dtd">
<svg xmlns:xlink="http://www.w3.org/1999/xlink" width="576pt" height="360pt" viewBox="0 0 576 360" xmlns="http://www.w3.org/2000/svg" version="1.1">
 <metadata>
  <rdf:RDF xmlns:dc="http://purl.org/dc/elements/1.1/" xmlns:cc="http://creativecommons.org/ns#" xmlns:rdf="http://www.w3.org/1999/02/22-rdf-syntax-ns#">
   <cc:Work>
    <dc:type rdf:resource="http://purl.org/dc/dcmitype/StillImage"/>
    <dc:date>2023-11-17T07:32:07.213057</dc:date>
    <dc:format>image/svg+xml</dc:format>
    <dc:creator>
     <cc:Agent>
      <dc:title>Matplotlib v3.8.1, https://matplotlib.org/</dc:title>
     </cc:Agent>
    </dc:creator>
   </cc:Work>
  </rdf:RDF>
 </metadata>
 <defs>
  <style type="text/css">*{stroke-linejoin: round; stroke-linecap: butt}</style>
 </defs>
 <g id="figure_1">
  <g id="patch_1">
   <path d="M 0 360 
L 576 360 
L 576 0 
L 0 0 
z
" style="fill: #ffffff"/>
  </g>
  <g id="axes_1">
   <g id="patch_2">
    <path d="M 72 320.4 
L 518.4 320.4 
L 518.4 43.2 
L 72 43.2 
z
" style="fill: #ffffff"/>
   </g>
   <g id="matplotlib.axis_1">
    <g id="xtick_1">
     <g id="line2d_1">
      <defs>
       <path id="ma9f7b88bc8" d="M 0 0 
L 0 3.5 
" style="stroke: #000000; stroke-width: 0.8"/>
      </defs>
      <g>
       <use xlink:href="#ma9f7b88bc8" x="129.874161" y="320.4" style="stroke: #000000; stroke-width: 0.8"/>
      </g>
     </g>
     <g id="text_1">
      <!-- 2020-05-15 -->
      <g transform="translate(100.816349 334.998438) scale(0.1 -0.1)">
       <defs>
        <path id="DejaVuSans-32" d="M 1228 531 
L 3431 531 
L 3431 0 
L 469 0 
L 469 531 
Q 828 903 1448 1529 
Q 2069 2156 2228 2338 
Q 2531 2678 2651 2914 
Q 2772 3150 2772 3378 
Q 2772 3750 2511 3984 
Q 2250 4219 1831 4219 
Q 1534 4219 1204 4116 
Q 875 4013 500 3803 
L 500 4441 
Q 881 4594 1212 4672 
Q 1544 4750 1819 4750 
Q 2544 4750 2975 4387 
Q 3406 4025 3406 3419 
Q 3406 3131 3298 2873 
Q 3191 2616 2906 2266 
Q 2828 2175 2409 1742 
Q 1991 1309 1228 531 
z
" transform="scale(0.015625)"/>
        <path id="DejaVuSans-30" d="M 2034 4250 
Q 1547 4250 1301 3770 
Q 1056 3291 1056 2328 
Q 1056 1369 1301 889 
Q 1547 409 2034 409 
Q 2525 409 2770 889 
Q 3016 1369 3016 2328 
Q 3016 3291 2770 3770 
Q 2525 4250 2034 4250 
z
M 2034 4750 
Q 2819 4750 3233 4129 
Q 3647 3509 3647 2328 
Q 3647 1150 3233 529 
Q 2819 -91 2034 -91 
Q 1250 -91 836 529 
Q 422 1150 422 2328 
Q 422 3509 836 4129 
Q 1250 4750 2034 4750 
z
" transform="scale(0.015625)"/>
        <path id="DejaVuSans-2d" d="M 313 2009 
L 1997 2009 
L 1997 1497 
L 313 1497 
L 313 2009 
z
" transform="scale(0.015625)"/>
        <path id="DejaVuSans-35" d="M 691 4666 
L 3169 4666 
L 3169 4134 
L 1269 4134 
L 1269 2991 
Q 1406 3038 1543 3061 
Q 1681 3084 1819 3084 
Q 2600 3084 3056 2656 
Q 3513 2228 3513 1497 
Q 3513 744 3044 326 
Q 2575 -91 1722 -91 
Q 1428 -91 1123 -41 
Q 819 9 494 109 
L 494 744 
Q 775 591 1075 516 
Q 1375 441 1709 441 
Q 2250 441 2565 725 
Q 2881 1009 2881 1497 
Q 2881 1984 2565 2268 
Q 2250 2553 1709 2553 
Q 1456 2553 1204 2497 
Q 953 2441 691 2322 
L 691 4666 
z
" transform="scale(0.015625)"/>
        <path id="DejaVuSans-31" d="M 794 531 
L 1825 531 
L 1825 4091 
L 703 3866 
L 703 4441 
L 1819 4666 
L 2450 4666 
L 2450 531 
L 3481 531 
L 3481 0 
L 794 0 
L 794 531 
z
" transform="scale(0.015625)"/>
       </defs>
       <use xlink:href="#DejaVuSans-32"/>
       <use xlink:href="#DejaVuSans-30" x="63.623047"/>
       <use xlink:href="#DejaVuSans-32" x="127.246094"/>
       <use xlink:href="#DejaVuSans-30" x="190.869141"/>
       <use xlink:href="#DejaVuSans-2d" x="254.492188"/>
       <use xlink:href="#DejaVuSans-30" x="290.576172"/>
       <use xlink:href="#DejaVuSans-35" x="354.199219"/>
       <use xlink:href="#DejaVuSans-2d" x="417.822266"/>
       <use xlink:href="#DejaVuSans-31" x="453.90625"/>
       <use xlink:href="#DejaVuSans-35" x="517.529297"/>
      </g>
     </g>
    </g>
    <g id="xtick_2">
     <g id="line2d_2">
      <g>
       <use xlink:href="#ma9f7b88bc8" x="212.435902" y="320.4" style="stroke: #000000; stroke-width: 0.8"/>
      </g>
     </g>
     <g id="text_2">
      <!-- 2020-06-01 -->
      <g transform="translate(183.37809 334.998438) scale(0.1 -0.1)">
       <defs>
        <path id="DejaVuSans-36" d="M 2113 2584 
Q 1688 2584 1439 2293 
Q 1191 2003 1191 1497 
Q 1191 994 1439 701 
Q 1688 409 2113 409 
Q 2538 409 2786 701 
Q 3034 994 3034 1497 
Q 3034 2003 2786 2293 
Q 2538 2584 2113 2584 
z
M 3366 4563 
L 3366 3988 
Q 3128 4100 2886 4159 
Q 2644 4219 2406 4219 
Q 1781 4219 1451 3797 
Q 1122 3375 1075 2522 
Q 1259 2794 1537 2939 
Q 1816 3084 2150 3084 
Q 2853 3084 3261 2657 
Q 3669 2231 3669 1497 
Q 3669 778 3244 343 
Q 2819 -91 2113 -91 
Q 1303 -91 875 529 
Q 447 1150 447 2328 
Q 447 3434 972 4092 
Q 1497 4750 2381 4750 
Q 2619 4750 2861 4703 
Q 3103 4656 3366 4563 
z
" transform="scale(0.015625)"/>
       </defs>
       <use xlink:href="#DejaVuSans-32"/>
       <use xlink:href="#DejaVuSans-30" x="63.623047"/>
       <use xlink:href="#DejaVuSans-32" x="127.246094"/>
       <use xlink:href="#DejaVuSans-30" x="190.869141"/>
       <use xlink:href="#DejaVuSans-2d" x="254.492188"/>
       <use xlink:href="#DejaVuSans-30" x="290.576172"/>
       <use xlink:href="#DejaVuSans-36" x="354.199219"/>
       <use xlink:href="#DejaVuSans-2d" x="417.822266"/>
       <use xlink:href="#DejaVuSans-30" x="453.90625"/>
       <use xlink:href="#DejaVuSans-31" x="517.529297"/>
      </g>
     </g>
    </g>
    <g id="xtick_3">
     <g id="line2d_3">
      <g>
       <use xlink:href="#ma9f7b88bc8" x="280.427924" y="320.4" style="stroke: #000000; stroke-width: 0.8"/>
      </g>
     </g>
     <g id="text_3">
      <!-- 2020-06-15 -->
      <g transform="translate(251.370111 334.998438) scale(0.1 -0.1)">
       <use xlink:href="#DejaVuSans-32"/>
       <use xlink:href="#DejaVuSans-30" x="63.623047"/>
       <use xlink:href="#DejaVuSans-32" x="127.246094"/>
       <use xlink:href="#DejaVuSans-30" x="190.869141"/>
       <use xlink:href="#DejaVuSans-2d" x="254.492188"/>
       <use xlink:href="#DejaVuSans-30" x="290.576172"/>
       <use xlink:href="#DejaVuSans-36" x="354.199219"/>
       <use xlink:href="#DejaVuSans-2d" x="417.822266"/>
       <use xlink:href="#DejaVuSans-31" x="453.90625"/>
       <use xlink:href="#DejaVuSans-35" x="517.529297"/>
      </g>
     </g>
    </g>
    <g id="xtick_4">
     <g id="line2d_4">
      <g>
       <use xlink:href="#ma9f7b88bc8" x="358.133092" y="320.4" style="stroke: #000000; stroke-width: 0.8"/>
      </g>
     </g>
     <g id="text_4">
      <!-- 2020-07-01 -->
      <g transform="translate(329.075279 334.998438) scale(0.1 -0.1)">
       <defs>
        <path id="DejaVuSans-37" d="M 525 4666 
L 3525 4666 
L 3525 4397 
L 1831 0 
L 1172 0 
L 2766 4134 
L 525 4134 
L 525 4666 
z
" transform="scale(0.015625)"/>
       </defs>
       <use xlink:href="#DejaVuSans-32"/>
       <use xlink:href="#DejaVuSans-30" x="63.623047"/>
       <use xlink:href="#DejaVuSans-32" x="127.246094"/>
       <use xlink:href="#DejaVuSans-30" x="190.869141"/>
       <use xlink:href="#DejaVuSans-2d" x="254.492188"/>
       <use xlink:href="#DejaVuSans-30" x="290.576172"/>
       <use xlink:href="#DejaVuSans-37" x="354.199219"/>
       <use xlink:href="#DejaVuSans-2d" x="417.822266"/>
       <use xlink:href="#DejaVuSans-30" x="453.90625"/>
       <use xlink:href="#DejaVuSans-31" x="517.529297"/>
      </g>
     </g>
    </g>
    <g id="xtick_5">
     <g id="line2d_5">
      <g>
       <use xlink:href="#ma9f7b88bc8" x="426.125113" y="320.4" style="stroke: #000000; stroke-width: 0.8"/>
      </g>
     </g>
     <g id="text_5">
      <!-- 2020-07-15 -->
      <g transform="translate(397.067301 334.998438) scale(0.1 -0.1)">
       <use xlink:href="#DejaVuSans-32"/>
       <use xlink:href="#DejaVuSans-30" x="63.623047"/>
       <use xlink:href="#DejaVuSans-32" x="127.246094"/>
       <use xlink:href="#DejaVuSans-30" x="190.869141"/>
       <use xlink:href="#DejaVuSans-2d" x="254.492188"/>
       <use xlink:href="#DejaVuSans-30" x="290.576172"/>
       <use xlink:href="#DejaVuSans-37" x="354.199219"/>
       <use xlink:href="#DejaVuSans-2d" x="417.822266"/>
       <use xlink:href="#DejaVuSans-31" x="453.90625"/>
       <use xlink:href="#DejaVuSans-35" x="517.529297"/>
      </g>
     </g>
    </g>
    <g id="xtick_6">
     <g id="line2d_6">
      <g>
       <use xlink:href="#ma9f7b88bc8" x="508.686854" y="320.4" style="stroke: #000000; stroke-width: 0.8"/>
      </g>
     </g>
     <g id="text_6">
      <!-- 2020-08-01 -->
      <g transform="translate(479.629042 334.998438) scale(0.1 -0.1)">
       <defs>
        <path id="DejaVuSans-38" d="M 2034 2216 
Q 1584 2216 1326 1975 
Q 1069 1734 1069 1313 
Q 1069 891 1326 650 
Q 1584 409 2034 409 
Q 2484 409 2743 651 
Q 3003 894 3003 1313 
Q 3003 1734 2745 1975 
Q 2488 2216 2034 2216 
z
M 1403 2484 
Q 997 2584 770 2862 
Q 544 3141 544 3541 
Q 544 4100 942 4425 
Q 1341 4750 2034 4750 
Q 2731 4750 3128 4425 
Q 3525 4100 3525 3541 
Q 3525 3141 3298 2862 
Q 3072 2584 2669 2484 
Q 3125 2378 3379 2068 
Q 3634 1759 3634 1313 
Q 3634 634 3220 271 
Q 2806 -91 2034 -91 
Q 1263 -91 848 271 
Q 434 634 434 1313 
Q 434 1759 690 2068 
Q 947 2378 1403 2484 
z
M 1172 3481 
Q 1172 3119 1398 2916 
Q 1625 2713 2034 2713 
Q 2441 2713 2670 2916 
Q 2900 3119 2900 3481 
Q 2900 3844 2670 4047 
Q 2441 4250 2034 4250 
Q 1625 4250 1398 4047 
Q 1172 3844 1172 3481 
z
" transform="scale(0.015625)"/>
       </defs>
       <use xlink:href="#DejaVuSans-32"/>
       <use xlink:href="#DejaVuSans-30" x="63.623047"/>
       <use xlink:href="#DejaVuSans-32" x="127.246094"/>
       <use xlink:href="#DejaVuSans-30" x="190.869141"/>
       <use xlink:href="#DejaVuSans-2d" x="254.492188"/>
       <use xlink:href="#DejaVuSans-30" x="290.576172"/>
       <use xlink:href="#DejaVuSans-38" x="354.199219"/>
       <use xlink:href="#DejaVuSans-2d" x="417.822266"/>
       <use xlink:href="#DejaVuSans-30" x="453.90625"/>
       <use xlink:href="#DejaVuSans-31" x="517.529297"/>
      </g>
     </g>
    </g>
   </g>
   <g id="matplotlib.axis_2">
    <g id="ytick_1">
     <g id="line2d_7">
      <defs>
       <path id="m9f96eda7f1" d="M 0 0 
L -3.5 0 
" style="stroke: #000000; stroke-width: 0.8"/>
      </defs>
      <g>
       <use xlink:href="#m9f96eda7f1" x="72" y="318.830373" style="stroke: #000000; stroke-width: 0.8"/>
      </g>
     </g>
     <g id="text_7">
      <!-- −3 -->
      <g transform="translate(50.257812 322.629591) scale(0.1 -0.1)">
       <defs>
        <path id="DejaVuSans-2212" d="M 678 2272 
L 4684 2272 
L 4684 1741 
L 678 1741 
L 678 2272 
z
" transform="scale(0.015625)"/>
        <path id="DejaVuSans-33" d="M 2597 2516 
Q 3050 2419 3304 2112 
Q 3559 1806 3559 1356 
Q 3559 666 3084 287 
Q 2609 -91 1734 -91 
Q 1441 -91 1130 -33 
Q 819 25 488 141 
L 488 750 
Q 750 597 1062 519 
Q 1375 441 1716 441 
Q 2309 441 2620 675 
Q 2931 909 2931 1356 
Q 2931 1769 2642 2001 
Q 2353 2234 1838 2234 
L 1294 2234 
L 1294 2753 
L 1863 2753 
Q 2328 2753 2575 2939 
Q 2822 3125 2822 3475 
Q 2822 3834 2567 4026 
Q 2313 4219 1838 4219 
Q 1578 4219 1281 4162 
Q 984 4106 628 3988 
L 628 4550 
Q 988 4650 1302 4700 
Q 1616 4750 1894 4750 
Q 2613 4750 3031 4423 
Q 3450 4097 3450 3541 
Q 3450 3153 3228 2886 
Q 3006 2619 2597 2516 
z
" transform="scale(0.015625)"/>
       </defs>
       <use xlink:href="#DejaVuSans-2212"/>
       <use xlink:href="#DejaVuSans-33" x="83.789062"/>
      </g>
     </g>
    </g>
    <g id="ytick_2">
     <g id="line2d_8">
      <g>
       <use xlink:href="#m9f96eda7f1" x="72" y="273.799922" style="stroke: #000000; stroke-width: 0.8"/>
      </g>
     </g>
     <g id="text_8">
      <!-- −2 -->
      <g transform="translate(50.257812 277.59914) scale(0.1 -0.1)">
       <use xlink:href="#DejaVuSans-2212"/>
       <use xlink:href="#DejaVuSans-32" x="83.789062"/>
      </g>
     </g>
    </g>
    <g id="ytick_3">
     <g id="line2d_9">
      <g>
       <use xlink:href="#m9f96eda7f1" x="72" y="228.769471" style="stroke: #000000; stroke-width: 0.8"/>
      </g>
     </g>
     <g id="text_9">
      <!-- −1 -->
      <g transform="translate(50.257812 232.568689) scale(0.1 -0.1)">
       <use xlink:href="#DejaVuSans-2212"/>
       <use xlink:href="#DejaVuSans-31" x="83.789062"/>
      </g>
     </g>
    </g>
    <g id="ytick_4">
     <g id="line2d_10">
      <g>
       <use xlink:href="#m9f96eda7f1" x="72" y="183.739019" style="stroke: #000000; stroke-width: 0.8"/>
      </g>
     </g>
     <g id="text_10">
      <!-- 0 -->
      <g transform="translate(58.6375 187.538238) scale(0.1 -0.1)">
       <use xlink:href="#DejaVuSans-30"/>
      </g>
     </g>
    </g>
    <g id="ytick_5">
     <g id="line2d_11">
      <g>
       <use xlink:href="#m9f96eda7f1" x="72" y="138.708568" style="stroke: #000000; stroke-width: 0.8"/>
      </g>
     </g>
     <g id="text_11">
      <!-- 1 -->
      <g transform="translate(58.6375 142.507787) scale(0.1 -0.1)">
       <use xlink:href="#DejaVuSans-31"/>
      </g>
     </g>
    </g>
    <g id="ytick_6">
     <g id="line2d_12">
      <g>
       <use xlink:href="#m9f96eda7f1" x="72" y="93.678117" style="stroke: #000000; stroke-width: 0.8"/>
      </g>
     </g>
     <g id="text_12">
      <!-- 2 -->
      <g transform="translate(58.6375 97.477336) scale(0.1 -0.1)">
       <use xlink:href="#DejaVuSans-32"/>
      </g>
     </g>
    </g>
    <g id="ytick_7">
     <g id="line2d_13">
      <g>
       <use xlink:href="#m9f96eda7f1" x="72" y="48.647666" style="stroke: #000000; stroke-width: 0.8"/>
      </g>
     </g>
     <g id="text_13">
      <!-- 3 -->
      <g transform="translate(58.6375 52.446885) scale(0.1 -0.1)">
       <use xlink:href="#DejaVuSans-33"/>
      </g>
     </g>
    </g>
   </g>
   <g id="line2d_14">
    <path d="M 72 249.504029 
L 72.404714 259.046969 
L 72.607072 257.597853 
L 72.809429 248.620421 
L 73.214143 222.607072 
L 73.618858 212.145181 
L 75.035358 142.340335 
L 75.237715 139.848567 
L 75.440073 144.107545 
L 75.64243 151.017342 
L 75.844787 153.791863 
L 76.047144 166.621817 
L 76.654216 225.752708 
L 77.05893 246.004947 
L 77.261287 249.68075 
L 77.463645 249.36265 
L 77.666002 240.349875 
L 78.070716 216.368815 
L 78.475431 205.871581 
L 78.677788 198.184211 
L 79.487217 150.222098 
L 79.891931 136.52621 
L 80.094288 138.169713 
L 80.903717 173.867384 
L 81.713146 237.274928 
L 82.11786 249.610058 
L 82.320218 251.324253 
L 82.522575 251.076845 
L 82.724932 248.956192 
L 82.927289 243.212757 
L 83.332004 223.861792 
L 83.736718 211.80941 
L 83.939075 209.246953 
L 84.141432 209.476692 
L 84.546147 214.866685 
L 84.748504 216.633897 
L 84.950861 216.651569 
L 85.355576 220.185991 
L 85.557933 217.376127 
L 85.76029 222.536383 
L 86.569719 260.390049 
L 86.772076 265.514962 
L 86.974433 266.858042 
L 87.176791 266.911057 
L 87.379148 265.780042 
L 87.581505 262.634408 
L 87.783862 256.943988 
L 88.188577 238.370595 
L 88.390934 234.005583 
L 89.200363 227.201821 
L 89.40272 223.720416 
L 89.807434 211.261576 
L 90.212149 209.193938 
L 90.414506 206.914236 
L 90.616863 213.611965 
L 91.223935 256.21943 
L 91.628649 265.514962 
L 91.831006 265.567977 
L 92.033364 263.464996 
L 92.842792 224.586349 
L 93.04515 222.783794 
L 93.449864 215.538228 
L 93.652221 215.096424 
L 93.854578 212.622328 
L 94.056936 212.092164 
L 94.259293 209.88315 
L 94.46165 204.493156 
L 94.664007 202.089748 
L 94.866364 202.867322 
L 95.068722 205.518138 
L 95.271079 202.284141 
L 95.473436 210.802101 
L 96.080508 256.53753 
L 96.485222 264.295588 
L 96.687579 265.903748 
L 96.889937 262.245622 
L 97.699365 223.967824 
L 98.306437 215.114096 
L 98.508794 214.795999 
L 99.52058 196.911819 
L 99.722937 197.972147 
L 99.925295 201.647946 
L 100.127652 200.110472 
L 100.330009 208.663774 
L 100.937081 254.45222 
L 101.341795 264.790404 
L 101.544152 265.620997 
L 101.74651 262.49303 
L 101.948867 252.419925 
L 102.353581 227.11346 
L 102.555938 225.805726 
L 103.567724 210.819773 
L 104.377153 192.193365 
L 104.57951 193.271364 
L 104.781868 197.813097 
L 104.984225 197.795425 
L 105.186582 205.288402 
L 105.793654 251.801403 
L 106.198368 262.546045 
L 106.400725 264.030503 
L 106.603083 260.637457 
L 107.412511 221.935532 
L 107.614869 220.486419 
L 107.817226 217.393798 
L 108.22194 205.147025 
L 108.626655 186.856387 
L 108.829012 181.855179 
L 109.031369 180.264689 
L 109.638441 187.580944 
L 109.840798 192.158021 
L 110.043155 200.923389 
L 110.650227 247.312684 
L 111.054941 259.329725 
L 111.257298 260.937885 
L 111.459655 259.471098 
L 111.662013 249.857472 
L 112.066727 225.204872 
L 112.471442 212.569311 
L 113.887942 154.922878 
L 114.090299 152.92593 
L 114.292656 158.669368 
L 114.495014 168.300669 
L 114.697371 172.170861 
L 115.102085 200.835029 
L 115.709157 242.435184 
L 116.113871 254.187135 
L 116.316228 254.328513 
L 116.518586 252.932418 
L 116.720943 249.875143 
L 117.125657 226.919067 
L 118.542158 138.717552 
L 118.744515 130.199595 
L 118.946872 126.93025 
L 119.149229 130.022873 
L 119.756301 161.938708 
L 120.56573 228.809983 
L 120.970444 245.510131 
L 121.172801 248.956192 
L 121.375159 250.334616 
L 121.577516 249.115242 
L 121.779873 242.435184 
L 122.589302 199.456604 
L 123.196374 178.002658 
L 123.398731 174.150138 
L 123.601088 174.326859 
L 123.803445 173.849712 
L 124.410517 185.142192 
L 124.612874 194.384707 
L 125.219946 241.816656 
L 125.62466 254.063434 
L 125.827017 255.742286 
L 126.029374 253.603956 
L 127.04116 206.083646 
L 127.648232 174.556596 
L 128.255304 138.841256 
L 128.457661 132.479298 
L 128.660018 132.196541 
L 129.26709 169.555388 
L 130.278876 246.110982 
L 130.481233 252.702682 
L 130.68359 253.869041 
L 130.885947 251.695368 
L 132.504805 159.906416 
L 133.111877 123.943666 
L 133.314234 116.008886 
L 133.516591 117.44033 
L 133.921306 130.393988 
L 134.123663 136.649917 
L 135.135449 229.251784 
L 135.540163 239.890397 
L 135.74252 239.095153 
L 135.944878 230.170735 
L 136.349592 203.697911 
L 136.551949 197.989818 
L 136.754306 187.987402 
L 136.956664 191.839923 
L 137.159021 182.314654 
L 137.766092 174.874695 
L 137.96845 175.210465 
L 138.373164 170.651059 
L 138.777879 177.01302 
L 138.980236 177.719905 
L 139.182593 187.669304 
L 139.789665 235.401683 
L 140.194379 248.355341 
L 140.396736 250.10488 
L 140.599093 247.560097 
L 141.003808 222.094582 
L 141.408522 204.245747 
L 142.015594 192.953266 
L 142.622665 185.248225 
L 142.825023 185.018487 
L 143.02738 183.993505 
L 143.229737 184.576685 
L 143.634451 189.030057 
L 143.836809 187.987402 
L 144.039166 196.576049 
L 144.646238 238.176202 
L 145.050952 248.373013 
L 145.253309 249.468685 
L 145.455666 246.817868 
L 145.860381 221.811828 
L 146.062738 207.939219 
L 146.66981 194.048937 
L 146.872167 191.786907 
L 147.074524 190.867957 
L 147.479238 181.501737 
L 147.681596 188.641271 
L 147.883953 189.47186 
L 148.08631 191.680874 
L 148.491024 199.544965 
L 148.693382 198.396277 
L 149.098096 218.348092 
L 149.502811 242.117084 
L 149.907525 253.197498 
L 150.109882 254.947036 
L 150.312239 254.45222 
L 150.514597 252.048811 
L 150.716954 247.188983 
L 151.121668 229.410834 
L 151.526383 211.950788 
L 151.931097 207.002597 
L 152.133454 206.631482 
L 152.335811 208.310334 
L 152.538169 208.752135 
L 152.740526 207.002597 
L 152.942883 207.250004 
L 153.14524 206.419417 
L 153.347597 206.45476 
L 153.549955 203.962993 
L 153.752312 205.836236 
L 154.764098 249.698422 
L 154.966455 253.073797 
L 155.168812 254.257827 
L 155.573527 250.900124 
L 155.775884 241.463219 
L 156.78767 175.033744 
L 157.799456 138.699878 
L 158.001813 140.414075 
L 158.406528 151.67121 
L 158.608885 163.228772 
L 159.215956 221.741139 
L 159.620671 240.155482 
L 159.823028 242.894657 
L 160.025385 242.117084 
L 160.227743 233.758175 
L 160.632457 206.083646 
L 161.8466 163.193427 
L 162.251315 154.622453 
L 162.453672 154.746157 
L 162.656029 157.184909 
L 163.465458 184.311603 
L 164.072529 235.348663 
L 164.477244 251.218223 
L 164.679601 251.500975 
L 164.881958 248.744128 
L 165.084316 240.08479 
L 165.48903 212.993443 
L 166.500816 183.074555 
L 167.310245 146.475608 
L 167.512602 149.33849 
L 167.917316 166.886899 
L 168.119674 170.686404 
L 168.322031 180.370722 
L 168.929102 231.036671 
L 169.333817 243.990329 
L 169.536174 246.99459 
L 169.738531 243.866623 
L 170.143246 220.592452 
L 170.54796 194.738149 
L 171.357389 156.725434 
L 171.559746 151.582849 
L 172.166818 130.941819 
L 172.369175 132.320248 
L 172.571532 139.070992 
L 173.178604 172.312238 
L 173.785675 232.945259 
L 174.19039 249.486357 
L 174.392747 252.031139 
L 174.595104 250.475994 
L 174.999819 229.834964 
L 175.404533 208.504727 
L 177.023391 141.757155 
L 177.225748 142.198957 
L 177.428105 145.538986 
L 177.630462 159.694349 
L 177.83282 161.779659 
L 178.237534 199.421259 
L 178.642248 236.037877 
L 179.046963 252.419925 
L 179.24932 255.600907 
L 179.451677 253.444911 
L 179.654034 246.022624 
L 180.261106 212.003803 
L 181.879964 129.227624 
L 182.082321 126.435434 
L 182.284678 131.27759 
L 183.094107 179.381083 
L 183.498821 212.693017 
L 183.903536 231.018999 
L 184.30825 237.716729 
L 184.510607 238.883088 
L 184.712965 235.772798 
L 184.915322 224.338939 
L 185.724751 154.26901 
L 186.129465 135.996045 
L 186.331822 130.818118 
L 186.53418 130.164246 
L 186.736537 132.337919 
L 187.748323 166.904571 
L 188.557752 221.776482 
L 188.962466 233.899553 
L 189.164823 235.649091 
L 189.36718 235.719778 
L 189.569538 235.083583 
L 189.771895 225.85874 
L 190.986038 143.771776 
L 191.188395 139.230042 
L 191.390752 139.194699 
L 191.795467 147.023444 
L 192.604896 173.814368 
L 193.414325 228.014739 
L 193.819039 239.749024 
L 194.021396 240.667969 
L 194.426111 237.274928 
L 194.628468 229.605227 
L 195.437897 177.454823 
L 195.640254 173.1605 
L 195.842611 174.203154 
L 196.247325 179.398755 
L 196.449683 179.893575 
L 196.65204 179.557805 
L 197.056754 186.591305 
L 197.259112 187.315862 
L 197.461469 194.526084 
L 198.06854 235.949519 
L 198.473255 248.107933 
L 198.675612 248.196292 
L 198.877969 245.06833 
L 199.282684 218.683864 
L 199.687398 199.120834 
L 201.306256 142.198957 
L 201.508613 141.209319 
L 202.115684 157.662057 
L 202.318042 167.22267 
L 202.925113 222.147597 
L 203.329828 237.274928 
L 203.532185 239.077481 
L 203.734542 236.515027 
L 203.936899 226.636313 
L 204.341614 197.495 
L 205.758114 150.628555 
L 205.960471 148.490231 
L 206.162829 148.613935 
L 206.365186 149.833311 
L 206.7699 159.994774 
L 206.972257 162.733953 
L 207.174615 172.029484 
L 207.781686 222.660087 
L 208.186401 236.515027 
L 208.388758 239.130496 
L 208.591115 236.267614 
L 208.793472 226.088477 
L 209.198187 197.106212 
L 209.805258 178.002658 
L 210.209973 160.949071 
L 210.817044 125.198383 
L 211.019402 117.917474 
L 211.221759 120.462256 
L 211.626473 141.45673 
L 211.82883 145.927774 
L 212.031188 158.563333 
L 212.638259 214.354195 
L 213.042974 230.294442 
L 213.245331 233.722831 
L 213.447688 232.256045 
L 213.650045 223.066547 
L 214.257117 185.955109 
L 214.661831 163.352477 
L 215.47126 112.439118 
L 215.875975 98.089365 
L 216.078332 97.682907 
L 216.280689 102.436705 
L 217.090118 157.149566 
L 217.697189 210.271936 
L 218.101904 226.106151 
L 218.304261 228.986705 
L 218.506618 230.153063 
L 218.708976 229.075063 
L 218.911333 218.153699 
L 219.518404 171.145878 
L 220.125476 140.944237 
L 220.327833 139.088667 
L 220.53019 140.997255 
L 221.541976 177.295774 
L 221.744334 181.713802 
L 222.553762 230.524178 
L 222.958477 239.855053 
L 223.160834 241.32184 
L 223.363191 241.622263 
L 223.565549 240.279183 
L 223.767906 232.803881 
L 224.374977 200.022112 
L 224.779692 193.518774 
L 225.386763 195.285985 
L 225.589121 198.307917 
L 225.791478 199.067818 
L 226.196192 206.260367 
L 226.398549 205.959942 
L 226.600907 211.473641 
L 227.410335 257.474152 
L 227.612693 260.937885 
L 227.81505 262.387 
L 228.017407 259.64782 
L 228.826836 223.101891 
L 229.029193 221.104942 
L 229.23155 216.174422 
L 230.648051 161.761986 
L 230.850408 162.256806 
L 231.255122 174.627285 
L 231.45748 183.975833 
L 232.064551 238.618008 
L 232.469266 253.356548 
L 232.671623 255.689265 
L 232.87398 254.646613 
L 233.278694 232.945259 
L 233.683409 213.611965 
L 235.302267 158.192221 
L 235.504624 157.679728 
L 236.111695 174.079449 
L 236.314053 182.968522 
L 236.921124 236.285285 
L 237.325839 249.910486 
L 237.528196 252.596647 
L 237.730553 250.776422 
L 238.135267 230.22375 
L 238.539982 211.526656 
L 239.349411 184.983143 
L 239.754125 176.394496 
L 240.15884 167.629129 
L 240.361197 167.417063 
L 240.563554 172.100173 
L 240.968268 187.209829 
L 241.170626 193.713167 
L 241.777697 241.374855 
L 242.182412 254.982385 
L 242.384769 257.120709 
L 242.587126 254.55825 
L 242.99184 233.351717 
L 243.396555 217.941634 
L 245.21777 153.880224 
L 245.420127 157.520678 
L 246.027199 180.512099 
L 246.836627 243.5662 
L 247.038985 250.741074 
L 247.241342 253.462583 
L 247.443699 251.28891 
L 247.848413 231.072014 
L 249.467271 134.971065 
L 249.669628 128.043594 
L 249.871985 126.382419 
L 250.074343 126.523792 
L 250.2767 132.479298 
L 250.883772 160.03012 
L 251.6932 224.35661 
L 252.097915 236.81545 
L 252.300272 239.448596 
L 252.502629 239.678332 
L 252.704986 236.355977 
L 253.109701 208.257316 
L 253.91913 145.450627 
L 254.323844 131.896118 
L 254.728558 124.332453 
L 254.930916 123.254452 
L 255.133273 129.687102 
L 255.740345 161.832676 
L 256.549773 226.353559 
L 256.954488 239.625317 
L 257.156845 242.894657 
L 257.359202 244.326101 
L 257.561559 243.495508 
L 257.966274 218.719207 
L 258.573345 175.493219 
L 258.97806 156.902156 
L 259.382774 147.447576 
L 259.585131 144.496333 
L 259.787489 144.125219 
L 259.989846 146.369576 
L 260.39456 160.083135 
L 260.596917 171.534666 
L 261.203989 224.710053 
L 261.608704 240.756333 
L 261.811061 243.265772 
L 262.013418 242.594234 
L 262.418132 222.041564 
L 262.62049 211.738723 
L 263.025204 203.450501 
L 263.227561 201.047093 
L 263.429918 200.18116 
L 263.834633 201.276831 
L 264.03699 201.01175 
L 264.239347 201.824667 
L 264.441704 201.895355 
L 264.644062 201.665617 
L 264.846419 203.415157 
L 265.048776 206.878893 
L 265.251133 206.878893 
L 265.45349 210.324954 
L 266.060562 246.747176 
L 266.465277 257.756903 
L 266.667634 259.082312 
L 266.869991 255.494872 
L 267.072348 248.673436 
L 267.477063 225.947101 
L 268.084134 206.931907 
L 268.488849 198.113524 
L 269.09592 188.464549 
L 269.500635 185.071504 
L 269.702992 186.944748 
L 269.905349 190.037368 
L 270.107706 190.620547 
L 270.310063 196.028214 
L 270.917135 237.928794 
L 271.32185 248.196292 
L 271.524207 250.034193 
L 271.726564 248.567406 
L 274.15485 127.14232 
L 274.357208 120.992421 
L 274.559565 123.855303 
L 275.166636 145.432953 
L 275.976065 215.396849 
L 276.38078 226.176837 
L 276.583137 225.575986 
L 276.987851 206.843547 
L 277.392566 182.049572 
L 278.404352 133.20385 
L 278.606709 130.588381 
L 279.011423 119.242883 
L 279.213781 117.864459 
L 279.416138 121.522585 
L 280.023209 157.308613 
L 280.630281 218.507142 
L 281.034995 238.0525 
L 281.237353 242.240791 
L 281.43971 240.915382 
L 281.642067 235.861156 
L 282.249139 200.039783 
L 282.85621 171.181223 
L 283.867996 134.476244 
L 284.070354 133.451263 
L 284.272711 140.449418 
L 285.284497 211.721049 
L 285.689211 239.324889 
L 286.093926 251.978124 
L 286.296283 253.939727 
L 286.49864 252.384582 
L 286.700997 249.857472 
L 287.105712 223.243269 
L 287.712783 179.009969 
L 288.522212 141.739484 
L 288.724569 135.624931 
L 288.926927 133.963751 
L 289.129284 137.038703 
L 289.736355 166.056309 
L 290.545784 226.194512 
L 290.950499 239.307217 
L 291.152856 241.692955 
L 291.355213 241.763641 
L 291.55757 240.491248 
L 291.759927 229.781949 
L 292.771714 145.097184 
L 293.176428 126.223369 
L 293.581142 116.574394 
L 293.7835 115.089935 
L 293.985857 118.111867 
L 294.592928 140.025286 
L 295.402357 211.508984 
L 295.807072 224.126874 
L 296.009429 223.985496 
L 296.414143 206.560793 
L 297.830644 90.561042 
L 298.235358 79.127186 
L 298.437715 76.900498 
L 298.640073 77.13024 
L 298.84243 78.897444 
L 299.044787 85.807249 
L 299.449501 108.993057 
L 300.056573 176.906987 
L 300.461287 198.608342 
L 300.663645 203.786271 
L 300.866002 204.404795 
L 301.068359 198.537654 
L 301.473073 172.701024 
L 302.484859 82.166789 
L 302.687217 72.429451 
L 302.889574 72.517819 
L 303.091931 79.480629 
L 303.496646 86.920593 
L 303.90136 106.059488 
L 304.306074 130.09356 
L 304.913146 189.630909 
L 305.31786 211.438295 
L 305.520218 216.22744 
L 305.722575 214.689966 
L 305.924932 208.557742 
L 306.532004 174.185482 
L 307.54379 113.95892 
L 307.746147 105.175881 
L 307.948504 104.41598 
L 308.757933 132.178869 
L 309.162647 154.604781 
L 309.769719 208.805152 
L 310.174433 225.911758 
L 310.376791 229.693591 
L 310.579148 229.198769 
L 310.983862 209.05256 
L 312.198005 119.543311 
L 312.60272 109.540893 
L 312.805077 105.776732 
L 313.007434 106.253881 
L 313.209791 109.434858 
L 313.816863 133.168507 
L 314.01922 144.938135 
L 314.626292 198.785064 
L 315.031006 216.421833 
L 315.233364 220.362713 
L 315.435721 219.797205 
L 315.840435 203.644895 
L 316.24515 187.5456 
L 316.649864 177.207413 
L 317.054578 164.041689 
L 317.66165 157.573696 
L 317.864007 157.184909 
L 318.066364 156.407337 
L 318.268722 160.436578 
L 318.875793 179.487116 
L 319.685222 229.905655 
L 320.089937 240.897711 
L 320.292294 242.311478 
L 320.697008 235.490041 
L 321.101723 212.922754 
L 322.315866 145.874757 
L 322.72058 137.056375 
L 322.922937 135.059423 
L 323.125295 138.61152 
L 323.732366 162.38051 
L 324.541795 221.352353 
L 324.94651 233.652145 
L 325.148867 236.143912 
L 325.351224 236.196927 
L 325.553581 234.252996 
L 325.755938 223.649727 
L 326.970082 126.93025 
L 327.172439 121.487242 
L 327.374796 120.12649 
L 327.77951 115.337343 
L 327.981868 119.631669 
L 328.184225 127.195335 
L 328.791296 171.640698 
L 329.196011 209.264628 
L 329.398368 222.377333 
L 329.803083 231.072014 
L 330.00544 230.259098 
L 330.207797 225.434611 
L 330.814869 183.693079 
L 331.42194 150.805277 
L 331.826655 131.295262 
L 332.029012 128.803494 
L 332.231369 128.821166 
L 332.433726 128.980216 
L 332.636083 130.782774 
L 332.838441 134.688308 
L 333.243155 154.410388 
L 333.445512 162.168446 
L 334.052584 218.719207 
L 334.457298 237.469321 
L 334.659655 242.134756 
L 334.862013 240.067118 
L 335.266727 222.995858 
L 335.671442 202.036732 
L 336.48087 167.523095 
L 336.683228 163.158084 
L 336.885585 162.203789 
L 337.087942 156.884484 
L 337.290299 155.293993 
L 337.695014 160.86071 
L 338.099728 173.301877 
L 338.302085 178.356101 
L 339.111514 234.995225 
L 339.313871 240.332203 
L 339.516228 242.258463 
L 339.718586 238.759381 
L 340.1233 218.666189 
L 340.932729 180.406066 
L 342.349229 127.266021 
L 342.551587 127.195335 
L 343.158658 148.437214 
L 343.76573 202.443191 
L 344.170444 217.941634 
L 344.372801 222.041564 
L 344.575159 220.203665 
L 344.777516 214.248162 
L 345.18223 187.669304 
L 346.194016 116.556722 
L 346.598731 103.850472 
L 347.003445 98.160051 
L 347.205802 97.435493 
L 347.40816 100.174674 
L 347.610517 106.925419 
L 348.015231 129.386674 
L 348.82466 207.797841 
L 349.229374 222.518711 
L 349.431732 221.864843 
L 349.634089 216.881308 
L 349.836446 207.303022 
L 351.050589 117.44033 
L 351.455304 101.641456 
L 351.860018 94.024775 
L 352.062375 93.247203 
L 352.264733 96.37517 
L 352.46709 105.91811 
L 353.276519 177.419479 
L 353.681233 210.059872 
L 354.085947 227.43156 
L 354.288305 231.973293 
L 354.490662 232.468109 
L 354.693019 230.54185 
L 355.097733 194.367035 
L 355.704805 130.835789 
L 356.109519 109.576236 
L 356.716591 93.918746 
L 356.918948 92.982118 
L 357.121306 97.117399 
L 357.52602 119.172196 
L 357.728377 130.09356 
L 358.740163 212.268885 
L 359.144878 223.437662 
L 359.347235 225.045825 
L 359.549592 224.763071 
L 359.751949 212.710689 
L 360.763735 108.887027 
L 361.16845 92.46963 
L 361.573164 82.909019 
L 361.775521 80.929744 
L 361.977879 83.757277 
L 362.180236 89.78347 
L 362.58495 111.979645 
L 363.394379 188.376189 
L 363.799093 203.574205 
L 364.001451 204.28109 
L 364.203808 199.209195 
L 364.406165 190.549859 
L 365.013237 130.641396 
L 365.620308 75.044925 
L 366.025023 61.119306 
L 366.429737 55.8 
L 366.632094 56.224129 
L 366.834451 58.503832 
L 367.036809 66.014483 
L 367.441523 91.161899 
L 368.048595 159.765038 
L 368.453309 186.061142 
L 368.655666 193.412741 
L 368.858024 195.462706 
L 369.060381 192.105005 
L 369.262738 183.604718 
L 369.86981 128.856515 
L 370.476881 78.720728 
L 370.881596 64.388641 
L 371.083953 63.999854 
L 371.28631 64.618382 
L 371.488667 68.011429 
L 371.691024 73.38375 
L 372.298096 106.996111 
L 373.107525 180.300033 
L 373.512239 199.474275 
L 373.714597 203.238435 
L 374.119311 202.637584 
L 374.321668 191.64553 
L 375.333454 102.083262 
L 375.738169 90.6494 
L 375.940526 88.316683 
L 376.142883 87.362394 
L 376.34524 91.833431 
L 376.749955 114.471413 
L 377.559383 165.296409 
L 377.964098 195.197624 
L 378.368812 207.108629 
L 378.57117 207.303022 
L 378.773527 202.178109 
L 378.975884 192.493791 
L 380.392384 91.815759 
L 380.797099 83.24479 
L 381.201813 76.688439 
L 381.40417 79.940101 
L 382.011242 111.908953 
L 382.820671 183.463341 
L 383.225385 197.371294 
L 383.427743 197.936802 
L 383.6301 193.324381 
L 384.034814 174.114794 
L 385.0466 110.68958 
L 385.451315 96.269135 
L 385.653672 95.862677 
L 385.856029 99.132017 
L 386.058386 105.723717 
L 387.070172 166.180015 
L 387.474887 200.835029 
L 387.879601 219.74419 
L 388.284316 227.643624 
L 388.68903 229.817292 
L 388.891387 224.851429 
L 389.700816 187.227502 
L 390.307888 177.543184 
L 390.914959 166.533456 
L 391.117316 170.668731 
L 391.926745 204.864271 
L 392.533817 243.053707 
L 392.938531 253.745334 
L 393.140888 255.353499 
L 393.343246 254.964713 
L 393.545603 255.371171 
L 393.74796 247.630784 
L 394.355032 212.05682 
L 395.569175 163.246444 
L 395.771532 158.050843 
L 395.973889 159.093498 
L 396.176247 166.286047 
L 396.783318 202.619911 
L 397.188033 235.914171 
L 397.592747 251.324253 
L 397.795104 253.727662 
L 397.997461 251.536323 
L 398.402176 235.861156 
L 400.628105 125.551826 
L 400.830462 128.00825 
L 401.03282 136.614568 
L 401.639891 185.919765 
L 402.044606 224.250578 
L 402.44932 241.816656 
L 402.651677 245.280395 
L 402.854034 243.848951 
L 403.258749 228.120771 
L 403.663463 203.556534 
L 404.877607 111.891282 
L 405.282321 94.148482 
L 405.484678 90.508027 
L 405.687035 91.444644 
L 405.889393 100.528117 
L 406.294107 132.832735 
L 406.901179 199.757029 
L 407.305893 220.557106 
L 407.50825 225.399265 
L 407.710607 224.93979 
L 408.115322 206.578464 
L 409.73418 92.222217 
L 409.936537 87.96324 
L 410.138894 87.839538 
L 410.341251 91.815759 
L 410.948323 123.024716 
L 411.15068 136.773618 
L 411.757752 197.795425 
L 412.162466 218.595503 
L 412.364823 224.197563 
L 412.56718 225.735036 
L 412.971895 210.130561 
L 414.388395 125.339761 
L 414.79311 113.640825 
L 415.197824 107.879713 
L 415.400181 113.729183 
L 416.20961 167.788177 
L 416.614325 206.878893 
L 417.019039 226.813034 
L 417.221396 230.488835 
L 417.423753 230.011685 
L 417.828468 216.050718 
L 419.244968 131.59569 
L 419.649683 119.843734 
L 419.85204 116.539051 
L 420.054397 117.776096 
L 420.256754 125.251403 
L 421.066183 181.60777 
L 421.673255 229.145755 
L 422.077969 243.018364 
L 422.280326 245.156688 
L 422.482684 244.59118 
L 422.685041 244.449802 
L 423.089755 217.923963 
L 423.899184 158.36894 
L 424.708613 124.473826 
L 424.91097 121.73465 
L 425.113327 125.180712 
L 425.518042 147.694984 
L 425.720399 157.85645 
L 426.529828 222.129925 
L 426.934542 238.123187 
L 427.136899 241.975706 
L 427.339257 242.664921 
L 427.541614 242.859314 
L 427.743971 235.454698 
L 428.148685 200.711323 
L 428.755757 147.429902 
L 429.160471 125.357433 
L 429.565186 118.253246 
L 429.9699 121.62862 
L 430.374615 135.589588 
L 430.576972 145.609675 
L 431.386401 211.014166 
L 431.791115 221.546746 
L 431.993472 219.797205 
L 432.398187 202.319486 
L 433.207616 146.298886 
L 434.017044 85.736552 
L 434.219402 81.53059 
L 435.02883 105.122866 
L 435.433545 126.629827 
L 436.040617 187.899042 
L 436.445331 207.28535 
L 436.647688 211.703377 
L 436.850045 211.120198 
L 437.25476 193.395069 
L 437.659474 163.352477 
L 438.468903 100.139331 
L 438.67126 91.762744 
L 438.873617 92.593332 
L 439.075975 98.707887 
L 439.278332 98.319101 
L 439.480689 100.245361 
L 439.885403 116.203279 
L 440.290118 137.498176 
L 440.897189 200.658307 
L 441.301904 219.850222 
L 441.504261 224.51566 
L 441.706618 224.975136 
L 442.111333 212.304231 
L 442.920762 167.55844 
L 443.527833 137.568862 
L 444.134905 118.005832 
L 444.337262 115.77915 
L 444.539619 121.292849 
L 445.146691 160.047792 
L 445.753762 219.549797 
L 446.158477 237.787416 
L 446.360834 242.046398 
L 446.563191 240.332203 
L 446.967906 224.073856 
L 448.586763 129.651759 
L 448.991478 118.30626 
L 449.193835 116.309314 
L 449.396192 122.035078 
L 450.003264 156.760777 
L 450.812693 225.593658 
L 451.217407 237.027515 
L 451.419764 237.13355 
L 451.824479 222.359661 
L 452.43155 179.009969 
L 453.038622 142.976532 
L 453.443336 128.32635 
L 453.848051 121.557929 
L 454.050408 124.456154 
L 454.252765 133.044805 
L 454.65748 157.467663 
L 454.859837 164.730902 
L 455.669266 220.380384 
L 456.07398 232.026308 
L 456.276337 233.334045 
L 456.478694 231.61985 
L 456.681052 228.951361 
L 456.883409 222.076908 
L 457.288123 198.855752 
L 457.692838 189.436515 
L 457.895195 190.037368 
L 458.299909 194.985559 
L 458.502267 194.861855 
L 458.906981 191.574841 
L 459.109338 192.034317 
L 459.514053 195.604083 
L 459.71641 199.297555 
L 460.728196 248.903178 
L 461.13291 252.702682 
L 461.537625 249.857472 
L 461.739982 242.187771 
L 462.144696 212.533967 
L 463.561197 153.08498 
L 463.763554 146.846723 
L 463.965911 147.854034 
L 464.572983 164.589525 
L 465.382412 222.147597 
L 465.584769 228.085426 
L 465.787126 230.418148 
L 465.989483 228.332836 
L 467.608341 148.808328 
L 468.620127 130.606053 
L 468.822484 133.292213 
L 469.429556 155.841829 
L 470.036627 204.581517 
L 470.441342 219.867894 
L 470.643699 222.129925 
L 470.846056 219.920912 
L 471.857842 176.164759 
L 472.869628 150.16908 
L 473.071985 150.593212 
L 473.274343 149.055736 
L 473.4767 150.133737 
L 473.679057 153.385405 
L 473.881414 159.04048 
L 474.083772 160.03012 
L 474.286129 166.621817 
L 474.8932 211.402952 
L 475.297915 225.363922 
L 475.500272 226.795363 
L 475.702629 225.045825 
L 476.107344 204.10437 
L 476.512058 185.195209 
L 477.321487 158.139204 
L 477.726201 140.820533 
L 477.928558 137.763255 
L 478.333273 141.792499 
L 478.53563 145.627346 
L 479.142702 167.045948 
L 479.952131 225.275561 
L 480.356845 233.740503 
L 480.559202 233.38706 
L 480.963917 214.407212 
L 482.785131 104.09788 
L 482.987489 99.025987 
L 483.189846 96.763956 
L 483.392203 101.606112 
L 483.999275 135.854667 
L 484.606346 196.947164 
L 485.011061 216.89898 
L 485.213418 220.680812 
L 485.415775 221.493728 
L 485.82049 204.510828 
L 486.225204 177.702233 
L 487.23699 100.404411 
L 487.439347 97.753593 
L 487.844062 103.390999 
L 488.248776 119.384261 
L 489.260562 185.990454 
L 489.665277 213.611965 
L 490.069991 226.583298 
L 490.272348 228.597918 
L 490.474705 227.625953 
L 490.677063 226.106151 
L 490.87942 217.747241 
L 491.891206 149.267804 
L 492.29592 134.052114 
L 492.498277 127.707822 
L 492.700635 125.975956 
L 492.902992 127.372056 
L 493.105349 131.507327 
L 493.712421 160.295202 
L 494.52185 222.129925 
L 495.128921 237.822759 
L 495.331278 237.946465 
L 495.533636 237.416301 
L 495.735993 230.930636 
L 496.950136 152.34275 
L 497.557208 131.418969 
L 497.759565 128.538415 
L 497.961922 131.295262 
L 498.568994 158.351268 
L 499.378422 221.741139 
L 499.58078 227.608279 
L 499.783137 229.746606 
L 499.985494 226.901395 
L 500.187851 219.58514 
L 500.794923 187.88137 
L 500.99728 183.498686 
L 501.401995 172.259222 
L 501.806709 162.592576 
L 502.009066 162.203789 
L 502.211423 163.971001 
L 502.413781 164.518836 
L 502.616138 163.087395 
L 503.020852 171.428632 
L 503.223209 171.905779 
L 503.425567 178.356101 
L 504.032638 221.882514 
L 504.437353 233.104309 
L 504.63971 234.500404 
L 504.842067 232.468109 
L 505.246782 211.54433 
L 505.651496 191.097694 
L 507.270354 128.291007 
L 507.472711 125.622518 
L 507.675068 128.538415 
L 508.28214 152.607833 
L 508.889211 202.425518 
L 509.293926 217.128716 
L 509.496283 220.150648 
L 509.69864 218.577831 
L 510.103354 198.360933 
L 511.722212 107.031454 
L 512.126927 91.780416 
L 512.329284 93.141173 
L 512.936355 122.653601 
L 513.34107 156.089237 
L 513.745784 193.412741 
L 514.150499 212.922754 
L 514.352856 217.711895 
L 514.555213 218.136028 
L 514.75757 210.501675 
L 516.174071 127.425071 
L 516.376428 126.488449 
L 516.781142 134.493915 
L 516.9835 132.143526 
L 517.185857 132.602999 
L 517.590571 147.801017 
L 517.792928 151.441474 
L 517.995286 160.630971 
L 518.4 194.685133 
L 518.4 194.685133 
" clip-path="url(#p047f0d15f6)" style="fill: none; stroke: #1f77b4; stroke-width: 1.5; stroke-linecap: square"/>
   </g>
   <g id="line2d_15">
    <path d="M 72 237.185566 
L 72.202357 223.979153 
L 72.607072 237.042347 
L 72.809429 235.710169 
L 73.011786 229.417662 
L 73.214143 230.560938 
L 73.618858 211.853371 
L 73.821215 227.184573 
L 74.023572 199.163182 
L 74.225929 229.055834 
L 74.428286 167.644975 
L 74.630644 219.425325 
L 74.833001 163.473194 
L 75.237715 155.46894 
L 75.440073 184.002113 
L 75.64243 178.077377 
L 75.844787 203.819798 
L 76.047144 165.417147 
L 76.249501 171.149632 
L 76.654216 194.397099 
L 76.856573 215.721504 
L 77.05893 213.501829 
L 77.463645 231.110315 
L 77.868359 217.026358 
L 78.070716 237.215439 
L 78.273073 209.786276 
L 78.475431 228.21727 
L 78.677788 193.542723 
L 78.880145 186.675696 
L 79.082502 154.011902 
L 79.284859 174.880704 
L 79.487217 158.998368 
L 79.689574 152.908698 
L 79.891931 162.432775 
L 80.094288 161.455382 
L 80.296646 162.205084 
L 80.499003 151.431095 
L 80.70136 149.005048 
L 80.903717 178.082224 
L 81.106074 234.706897 
L 81.308432 227.664952 
L 81.510789 226.051432 
L 81.713146 230.813774 
L 81.915503 252.052687 
L 82.11786 238.515618 
L 82.320218 238.623323 
L 82.522575 235.398457 
L 82.724932 225.883452 
L 82.927289 226.643018 
L 83.129646 238.444658 
L 83.332004 243.03078 
L 83.534361 216.74639 
L 83.736718 238.974538 
L 83.939075 194.174964 
L 84.141432 228.224418 
L 84.34379 225.447304 
L 84.546147 200.997103 
L 84.748504 223.157807 
L 84.950861 216.305759 
L 85.355576 234.482373 
L 85.557933 228.031718 
L 85.76029 229.45861 
L 85.962647 231.854778 
L 86.165005 214.707912 
L 86.367362 228.481735 
L 86.569719 216.479102 
L 86.974433 231.75367 
L 87.176791 251.250394 
L 87.379148 231.112645 
L 87.581505 244.244726 
L 87.783862 235.970449 
L 87.986219 214.575337 
L 88.188577 226.039539 
L 88.390934 208.037081 
L 88.593291 228.588841 
L 88.795648 230.958883 
L 88.998005 235.683157 
L 89.200363 207.695158 
L 89.40272 224.042904 
L 89.605077 201.542423 
L 89.807434 229.003517 
L 90.009791 171.175903 
L 90.212149 217.500209 
L 90.414506 204.115601 
L 90.81922 224.839163 
L 91.021578 215.806751 
L 91.223935 262.615985 
L 91.426292 211.577583 
L 91.628649 244.265415 
L 91.831006 251.454917 
L 92.033364 251.610467 
L 92.235721 232.817516 
L 92.438078 228.555583 
L 92.640435 208.225956 
L 92.842792 238.293537 
L 93.04515 223.171034 
L 93.247507 220.889723 
L 93.449864 246.320883 
L 93.652221 216.9835 
L 93.854578 222.608374 
L 94.056936 225.010659 
L 94.259293 235.188239 
L 94.46165 178.381826 
L 94.664007 209.851288 
L 94.866364 208.246521 
L 95.271079 184.002974 
L 95.473436 191.793345 
L 95.87815 238.60586 
L 96.282865 224.820149 
L 96.485222 230.067937 
L 96.687579 224.528796 
L 96.889937 225.343043 
L 97.092294 223.700809 
L 97.294651 220.741114 
L 97.699365 218.191595 
L 97.901723 202.174072 
L 98.10408 207.528679 
L 98.306437 217.835594 
L 98.508794 210.745004 
L 98.711151 217.272848 
L 98.913509 210.070637 
L 99.115866 220.756709 
L 99.318223 201.532089 
L 99.52058 211.994041 
L 99.722937 205.601317 
L 99.925295 203.507334 
L 100.127652 228.594279 
L 100.330009 220.389937 
L 100.734723 230.977268 
L 100.937081 224.810795 
L 101.139438 227.791646 
L 101.341795 243.528768 
L 101.544152 242.267669 
L 101.74651 242.801387 
L 101.948867 248.750924 
L 102.353581 212.377159 
L 102.555938 228.343545 
L 102.758296 221.998607 
L 102.960653 221.920437 
L 103.16301 239.405737 
L 103.365367 221.382993 
L 103.770082 214.177299 
L 103.972439 189.966374 
L 104.174796 221.17299 
L 104.377153 222.233824 
L 104.57951 231.739 
L 104.781868 227.62788 
L 104.984225 190.933193 
L 105.186582 205.648058 
L 105.388939 231.179338 
L 105.591296 233.361589 
L 105.793654 229.116402 
L 105.996011 228.286255 
L 106.198368 256.901022 
L 106.400725 231.354846 
L 106.603083 248.764038 
L 106.80544 247.247596 
L 107.007797 250.733999 
L 107.210154 238.616972 
L 107.412511 237.957405 
L 107.614869 235.201085 
L 107.817226 189.017033 
L 108.019583 233.59483 
L 108.424297 223.205363 
L 108.626655 228.87739 
L 108.829012 211.688202 
L 109.233726 152.945657 
L 109.436083 163.39065 
L 110.245512 244.996489 
L 110.447869 224.074237 
L 110.650227 233.202254 
L 110.852584 233.491506 
L 111.054941 243.967714 
L 111.257298 240.011999 
L 111.459655 210.163309 
L 111.662013 226.08057 
L 111.86437 232.137207 
L 112.066727 219.962645 
L 112.269084 227.759121 
L 112.471442 226.855246 
L 112.673799 198.853261 
L 112.876156 202.287354 
L 113.078513 176.502244 
L 113.28087 221.902747 
L 113.483228 216.646802 
L 113.685585 216.787493 
L 113.887942 226.545545 
L 114.090299 177.886078 
L 114.292656 187.570295 
L 114.495014 166.600039 
L 114.697371 186.607549 
L 114.899728 195.441363 
L 115.102085 228.976801 
L 115.5068 238.435682 
L 115.709157 229.877865 
L 115.911514 233.273376 
L 116.113871 215.058161 
L 116.720943 260.873044 
L 117.328015 203.322335 
L 117.530372 163.082481 
L 118.137443 174.384299 
L 118.339801 183.942544 
L 118.542158 162.830773 
L 118.744515 155.468194 
L 118.946872 160.89987 
L 119.149229 157.699236 
L 119.553944 167.501632 
L 119.756301 162.322961 
L 119.958658 177.134667 
L 120.56573 242.203172 
L 120.768087 215.223934 
L 120.970444 233.226083 
L 121.172801 229.50171 
L 121.375159 213.941558 
L 121.779873 239.542542 
L 121.98223 219.805668 
L 122.184587 213.360043 
L 122.386945 194.879978 
L 122.589302 196.818781 
L 122.791659 163.833033 
L 122.994016 166.710801 
L 123.196374 180.267787 
L 123.398731 163.984578 
L 123.601088 186.620365 
L 123.803445 182.928726 
L 124.005802 161.890532 
L 124.20816 164.938679 
L 124.410517 154.799556 
L 124.612874 192.893791 
L 125.219946 238.044282 
L 125.422303 231.172225 
L 125.62466 232.439363 
L 125.827017 267.74676 
L 126.029374 239.933384 
L 126.231732 250.959586 
L 126.434089 187.971904 
L 126.636446 208.630911 
L 126.838803 213.435877 
L 127.243518 217.999859 
L 127.445875 194.271938 
L 127.648232 184.210714 
L 127.850589 142.003004 
L 128.052947 153.534763 
L 128.457661 156.577485 
L 128.660018 141.772929 
L 128.862375 146.940331 
L 129.064733 175.429689 
L 129.26709 221.533183 
L 129.469447 228.660843 
L 129.671804 227.105628 
L 129.874161 177.043799 
L 130.076519 162.352767 
L 130.278876 210.296122 
L 130.68359 217.571336 
L 130.885947 241.511397 
L 131.088305 221.472715 
L 131.290662 229.26346 
L 131.493019 183.1666 
L 131.695376 175.563316 
L 131.897733 220.076437 
L 132.100091 223.401884 
L 132.302448 215.576542 
L 132.504805 169.930618 
L 132.707162 198.406202 
L 132.909519 156.388106 
L 133.111877 143.995779 
L 133.314234 163.624498 
L 133.516591 152.605774 
L 133.921306 177.643166 
L 134.32602 157.011943 
L 134.528377 196.176983 
L 134.933092 220.569031 
L 135.135449 217.06 
L 135.337806 215.914869 
L 135.540163 213.863029 
L 135.74252 208.123273 
L 135.944878 210.58619 
L 136.147235 209.570276 
L 136.349592 220.344051 
L 136.551949 197.200727 
L 136.956664 213.848385 
L 137.563735 163.286458 
L 137.766092 158.451396 
L 137.96845 221.421799 
L 138.170807 186.27129 
L 138.373164 173.360532 
L 138.575521 175.470798 
L 138.777879 163.710255 
L 138.980236 162.85057 
L 139.182593 176.356778 
L 139.38495 219.952543 
L 139.587307 199.463121 
L 139.789665 225.438951 
L 139.992022 208.622673 
L 140.599093 229.608368 
L 140.801451 217.332554 
L 141.003808 231.681765 
L 141.206165 212.86137 
L 141.408522 239.526234 
L 141.610879 191.653305 
L 141.813237 188.593952 
L 142.015594 249.770676 
L 142.420308 231.701928 
L 143.02738 173.44291 
L 143.229737 200.445923 
L 143.432094 202.526074 
L 143.634451 190.07118 
L 143.836809 221.689708 
L 144.039166 182.872206 
L 144.241523 239.197591 
L 144.44388 228.247224 
L 144.646238 237.356506 
L 144.848595 231.680375 
L 145.050952 239.430634 
L 145.253309 256.930557 
L 145.455666 242.883969 
L 145.658024 246.979908 
L 145.860381 224.410307 
L 146.062738 236.71284 
L 146.265095 185.473632 
L 146.467452 164.370469 
L 146.66981 167.278335 
L 146.872167 157.955614 
L 147.074524 188.296749 
L 147.276881 179.712162 
L 147.479238 155.222193 
L 147.681596 183.85903 
L 147.883953 157.140078 
L 148.08631 164.680777 
L 148.288667 200.817604 
L 148.491024 211.556604 
L 148.693382 164.771698 
L 149.098096 204.66794 
L 149.300453 222.437944 
L 149.502811 218.761537 
L 149.705168 235.687983 
L 149.907525 229.896814 
L 150.109882 215.298547 
L 150.312239 264.547339 
L 150.919311 199.514145 
L 151.121668 235.210452 
L 151.324025 229.014608 
L 151.526383 209.292155 
L 151.72874 206.987901 
L 151.931097 210.850276 
L 152.133454 206.004733 
L 152.335811 217.694296 
L 152.538169 195.610941 
L 152.740526 221.327284 
L 152.942883 195.345012 
L 153.14524 217.162197 
L 153.347597 183.400204 
L 153.549955 172.435781 
L 153.752312 214.968793 
L 153.954669 200.591276 
L 154.157026 234.025402 
L 154.359383 217.388887 
L 154.561741 209.956786 
L 154.966455 236.282623 
L 155.168812 228.116066 
L 155.37117 248.387158 
L 155.775884 236.665955 
L 155.978241 239.368982 
L 156.180598 238.969932 
L 156.382956 220.657915 
L 156.585313 162.550145 
L 156.990027 170.981459 
L 157.192384 161.785576 
L 157.394742 159.485384 
L 157.597099 155.557449 
L 157.799456 168.361929 
L 158.001813 147.982687 
L 158.406528 185.021741 
L 158.608885 174.007886 
L 158.811242 189.449208 
L 159.013599 236.363917 
L 159.215956 209.161505 
L 159.418314 219.226023 
L 159.620671 251.168091 
L 160.025385 216.798543 
L 160.227743 209.951059 
L 160.4301 197.071088 
L 160.632457 209.446816 
L 161.037171 176.890891 
L 161.239529 199.082533 
L 161.441886 182.947442 
L 161.644243 206.197172 
L 161.8466 213.288272 
L 162.048957 154.203552 
L 162.251315 130.313677 
L 162.453672 160.911374 
L 162.656029 134.80136 
L 163.060743 190.608814 
L 163.263101 175.489575 
L 163.870172 219.706458 
L 164.072529 234.463767 
L 164.274887 236.046332 
L 164.477244 243.214308 
L 164.679601 234.642942 
L 164.881958 234.840668 
L 165.084316 223.785224 
L 165.286673 226.938996 
L 165.48903 233.69911 
L 165.691387 225.932656 
L 166.096102 189.107105 
L 166.298459 184.004853 
L 166.500816 164.562145 
L 166.703173 198.567498 
L 166.90553 175.031493 
L 167.107888 170.435869 
L 167.310245 134.930375 
L 167.512602 155.939096 
L 167.714959 157.763067 
L 167.917316 164.15116 
L 168.119674 183.492376 
L 168.524388 230.407654 
L 168.726745 210.928838 
L 168.929102 229.322836 
L 169.13146 210.655427 
L 169.333817 236.660415 
L 169.536174 208.611634 
L 169.738531 236.063177 
L 169.940888 236.283165 
L 170.143246 217.210334 
L 170.345603 159.177483 
L 170.54796 206.370691 
L 170.750317 205.753701 
L 170.952675 153.950368 
L 171.357389 179.141756 
L 171.559746 163.276495 
L 171.762103 168.164082 
L 171.964461 163.187794 
L 172.166818 154.137267 
L 172.369175 150.057647 
L 172.571532 139.367239 
L 172.773889 174.623757 
L 172.976247 142.864119 
L 173.380961 216.029144 
L 173.583318 242.977706 
L 173.785675 211.413127 
L 173.988033 231.536538 
L 174.19039 234.446632 
L 174.392747 228.498918 
L 174.595104 230.925558 
L 174.797461 230.437371 
L 174.999819 243.282305 
L 175.202176 228.851838 
L 175.404533 192.114001 
L 175.60689 191.060072 
L 175.809248 192.514007 
L 176.011605 187.622851 
L 176.213962 170.195869 
L 176.618676 162.911178 
L 176.821034 178.069711 
L 177.023391 154.735225 
L 177.225748 151.888624 
L 177.428105 143.795921 
L 177.630462 166.485297 
L 177.83282 172.426419 
L 178.035177 158.585457 
L 178.237534 182.94701 
L 178.439891 220.751604 
L 178.844606 229.50747 
L 179.046963 235.830918 
L 179.24932 234.832938 
L 179.451677 235.406251 
L 179.856392 233.661641 
L 180.058749 173.763981 
L 180.261106 209.879226 
L 180.463463 205.694919 
L 180.66582 206.483842 
L 180.868178 194.997491 
L 181.070535 165.839607 
L 181.475249 144.541522 
L 181.677607 157.162909 
L 181.879964 148.224813 
L 182.284678 164.616945 
L 182.487035 167.005933 
L 182.689393 149.816853 
L 182.89175 153.315054 
L 183.094107 189.317853 
L 183.296464 151.871602 
L 183.498821 203.748628 
L 183.701179 221.108026 
L 183.903536 227.300507 
L 184.105893 228.075731 
L 184.30825 234.328567 
L 184.510607 236.408863 
L 184.712965 231.820519 
L 184.915322 240.883609 
L 185.117679 229.931996 
L 185.320036 184.817333 
L 185.522393 173.988204 
L 185.927108 167.594577 
L 186.129465 175.295311 
L 186.331822 169.191029 
L 186.736537 136.644184 
L 186.938894 163.953492 
L 187.141251 150.55949 
L 187.343608 163.121163 
L 187.545966 145.815397 
L 187.748323 180.371149 
L 187.95068 142.198455 
L 188.153037 225.50516 
L 188.355394 194.958484 
L 188.557752 202.371067 
L 188.760109 215.697208 
L 188.962466 217.082613 
L 189.36718 223.981381 
L 189.771895 228.985245 
L 189.974252 200.219803 
L 190.176609 188.057171 
L 190.378966 203.488462 
L 190.581324 200.876326 
L 190.783681 136.081193 
L 190.986038 163.993103 
L 191.188395 141.586137 
L 191.390752 156.626045 
L 191.795467 147.586434 
L 191.997824 149.280923 
L 192.200181 173.720835 
L 192.402539 162.706602 
L 192.807253 231.623146 
L 193.00961 171.077834 
L 193.211967 218.568027 
L 193.414325 200.324817 
L 193.616682 230.64512 
L 193.819039 231.046371 
L 194.021396 224.092118 
L 194.223753 229.862319 
L 194.426111 211.269636 
L 194.628468 227.959263 
L 194.830825 221.945146 
L 195.033182 174.132495 
L 195.235539 170.788201 
L 195.437897 185.188154 
L 195.842611 191.45003 
L 196.044968 176.335298 
L 196.247325 183.785005 
L 196.854397 174.01931 
L 197.056754 186.586678 
L 197.259112 180.426767 
L 197.663826 221.150954 
L 197.866183 215.439802 
L 198.06854 233.517144 
L 198.270898 231.501163 
L 198.473255 239.876558 
L 198.675612 228.453529 
L 198.877969 234.795663 
L 199.080326 236.140466 
L 199.282684 205.868323 
L 199.889755 167.317382 
L 200.092112 186.166711 
L 200.496827 173.149906 
L 200.699184 170.817521 
L 200.901541 163.758729 
L 201.103898 160.598218 
L 201.508613 166.442229 
L 201.71097 155.513694 
L 201.913327 162.881898 
L 202.318042 138.23267 
L 202.722756 224.893742 
L 203.127471 211.425039 
L 203.329828 233.372201 
L 203.532185 213.380713 
L 203.734542 206.498164 
L 203.936899 218.658956 
L 204.139257 189.883601 
L 204.341614 227.224232 
L 204.543971 164.27342 
L 204.746328 170.26498 
L 204.948685 158.533645 
L 205.555757 184.151508 
L 205.960471 142.545644 
L 206.162829 163.542834 
L 206.365186 161.721637 
L 206.567543 127.665415 
L 206.972257 181.483291 
L 207.174615 170.318811 
L 207.376972 167.702051 
L 207.579329 213.17498 
L 207.781686 220.222518 
L 207.984044 221.490005 
L 208.186401 226.85836 
L 208.388758 239.789311 
L 208.591115 197.737504 
L 208.793472 186.976978 
L 208.99583 231.169793 
L 209.198187 163.163106 
L 209.400544 173.844327 
L 209.602901 177.298452 
L 209.805258 173.852138 
L 210.007616 162.509221 
L 210.209973 194.242019 
L 210.41233 136.683429 
L 210.614687 175.499898 
L 210.817044 126.487386 
L 211.019402 111.321254 
L 211.221759 118.15814 
L 211.424116 204.175103 
L 211.626473 205.635569 
L 211.82883 175.805726 
L 212.031188 164.755739 
L 212.233545 162.649687 
L 212.435902 200.454274 
L 212.638259 194.432466 
L 212.840617 209.406532 
L 213.042974 173.273231 
L 213.245331 238.209591 
L 213.447688 219.005463 
L 213.650045 225.562625 
L 213.852403 164.776368 
L 214.05476 167.414699 
L 214.257117 179.436948 
L 214.459474 171.157909 
L 214.661831 155.991456 
L 214.864189 119.122805 
L 215.066546 146.421214 
L 215.268903 87.760875 
L 215.47126 162.319439 
L 215.673617 94.860639 
L 215.875975 87.748271 
L 216.078332 92.052372 
L 216.483046 144.391125 
L 216.887761 176.297627 
L 217.090118 150.342701 
L 217.292475 182.943789 
L 217.494832 181.599444 
L 217.899547 155.065564 
L 218.101904 255.958951 
L 218.304261 227.546567 
L 218.708976 218.638783 
L 219.11369 184.444427 
L 219.316047 183.625727 
L 219.518404 139.037404 
L 219.720762 142.169043 
L 220.125476 189.733164 
L 220.327833 126.397245 
L 220.53019 171.255495 
L 220.732548 148.505487 
L 221.137262 163.823934 
L 221.339619 190.187636 
L 221.541976 232.861995 
L 221.744334 222.883068 
L 221.946691 231.553727 
L 222.149048 231.879954 
L 222.351405 214.100415 
L 222.553762 229.964113 
L 222.75612 223.451061 
L 222.958477 226.89892 
L 223.160834 215.913892 
L 223.363191 223.5313 
L 223.565549 241.581278 
L 223.970263 211.07209 
L 224.374977 195.303856 
L 224.577335 201.677854 
L 224.779692 196.909579 
L 224.982049 174.672714 
L 225.184406 189.21518 
L 225.386763 194.700625 
L 225.589121 195.429168 
L 225.791478 188.610448 
L 225.993835 202.180192 
L 226.398549 210.506826 
L 226.600907 193.843307 
L 227.005621 233.028185 
L 227.207978 218.839972 
L 227.410335 215.570798 
L 227.612693 246.01338 
L 227.81505 219.361703 
L 228.017407 211.891807 
L 228.219764 232.59297 
L 228.422121 219.281762 
L 228.624479 217.142099 
L 228.826836 216.451341 
L 229.029193 214.106701 
L 229.23155 218.227088 
L 229.433908 195.231596 
L 229.838622 227.975354 
L 230.040979 172.112939 
L 230.243336 176.503801 
L 230.445694 186.498944 
L 230.648051 142.717185 
L 230.850408 185.851601 
L 231.052765 147.93985 
L 231.255122 180.691906 
L 231.45748 182.844123 
L 231.659837 193.085693 
L 231.862194 216.308433 
L 232.064551 225.926697 
L 232.266908 218.445316 
L 232.469266 253.374499 
L 232.671623 239.571239 
L 232.87398 250.900349 
L 233.076337 225.011182 
L 233.278694 222.788823 
L 233.481052 229.988909 
L 233.885766 187.669282 
L 234.088123 195.852015 
L 234.290481 231.703635 
L 234.492838 197.395801 
L 234.695195 195.135061 
L 234.897552 189.278212 
L 235.099909 171.931794 
L 235.302267 169.931785 
L 235.504624 150.087279 
L 235.909338 171.679407 
L 236.111695 184.340657 
L 236.314053 167.647595 
L 236.718767 213.503789 
L 236.921124 212.966082 
L 237.123481 251.418457 
L 237.325839 246.080105 
L 237.528196 265.093248 
L 238.337625 202.817406 
L 238.539982 204.567798 
L 238.742339 242.913885 
L 238.944696 181.609987 
L 239.147053 217.911713 
L 239.349411 212.629629 
L 239.754125 192.643854 
L 239.956482 199.575507 
L 240.15884 219.181144 
L 240.361197 181.946958 
L 240.563554 209.137853 
L 240.765911 214.437394 
L 240.968268 199.0076 
L 241.170626 198.401682 
L 241.372983 195.877754 
L 241.57534 202.17907 
L 241.777697 214.540257 
L 241.980054 214.772978 
L 242.384769 201.801578 
L 242.587126 222.89805 
L 242.789483 221.411251 
L 242.99184 222.861453 
L 243.396555 189.780478 
L 243.598912 217.52743 
L 243.801269 190.666083 
L 244.003626 184.410756 
L 244.205984 205.880948 
L 244.610698 152.81203 
L 244.813055 167.349368 
L 245.015413 164.832652 
L 245.21777 156.870441 
L 245.420127 177.401781 
L 245.622484 184.025026 
L 245.824841 159.409141 
L 246.027199 171.841025 
L 246.229556 209.514459 
L 246.431913 195.174929 
L 246.836627 238.579981 
L 247.038985 248.724261 
L 247.241342 245.696155 
L 247.443699 230.737859 
L 247.848413 223.027106 
L 248.050771 200.353746 
L 248.253128 195.537326 
L 248.455485 201.01732 
L 248.657842 185.479111 
L 248.860199 189.838421 
L 249.062557 149.158419 
L 249.264914 153.229251 
L 249.467271 145.167796 
L 249.669628 132.598275 
L 249.871985 152.955636 
L 250.2767 137.965319 
L 250.479057 143.755838 
L 250.681414 174.682231 
L 250.883772 174.055179 
L 251.086129 207.999848 
L 251.288486 197.095432 
L 251.490843 217.072349 
L 251.6932 189.390876 
L 251.895558 120.892731 
L 252.097915 173.496633 
L 252.502629 194.619993 
L 252.704986 177.730695 
L 252.907344 221.092539 
L 253.312058 138.421297 
L 253.514415 140.85509 
L 253.716772 118.914562 
L 253.91913 125.228643 
L 254.121487 119.762649 
L 254.323844 127.339692 
L 254.728558 114.196016 
L 254.930916 114.077607 
L 255.133273 122.794813 
L 255.33563 116.234768 
L 255.537987 162.416786 
L 255.740345 144.526942 
L 256.145059 175.161555 
L 256.549773 244.196715 
L 257.156845 198.715847 
L 257.359202 223.255865 
L 257.561559 216.322304 
L 257.763917 216.372033 
L 257.966274 228.294994 
L 258.168631 178.573363 
L 258.573345 186.048758 
L 258.775703 173.086901 
L 258.97806 196.940274 
L 259.382774 142.431632 
L 259.585131 145.60862 
L 259.787489 143.2421 
L 259.989846 135.029217 
L 260.39456 201.293111 
L 260.596917 193.095699 
L 260.799275 208.456943 
L 261.001632 195.760661 
L 261.203989 198.783288 
L 261.406346 223.262462 
L 261.608704 204.091271 
L 261.811061 235.828271 
L 262.013418 227.38803 
L 262.215775 231.414963 
L 262.418132 223.396709 
L 262.62049 205.914172 
L 262.822847 226.554206 
L 263.025204 227.29961 
L 263.227561 187.595286 
L 263.429918 177.756953 
L 263.632276 177.843142 
L 263.834633 187.313418 
L 264.03699 206.708854 
L 264.441704 215.23347 
L 264.644062 189.680139 
L 264.846419 208.786165 
L 265.048776 197.037961 
L 265.251133 221.904285 
L 265.45349 211.064548 
L 265.655848 167.249033 
L 265.858205 201.780919 
L 266.060562 211.969345 
L 266.262919 244.235526 
L 266.465277 230.38156 
L 266.667634 231.538057 
L 266.869991 252.357001 
L 267.072348 225.064122 
L 267.274705 221.783544 
L 267.477063 232.03253 
L 267.67942 207.768644 
L 267.881777 198.457182 
L 268.084134 208.234062 
L 268.286491 223.839423 
L 268.488849 198.783855 
L 268.691206 200.858503 
L 268.893563 182.280556 
L 269.09592 188.887906 
L 269.298277 175.439802 
L 269.500635 209.695158 
L 269.702992 198.823272 
L 269.905349 200.549593 
L 270.512421 209.589843 
L 270.714778 213.906832 
L 270.917135 236.226087 
L 271.119492 195.502506 
L 271.32185 241.416914 
L 271.524207 225.125111 
L 271.726564 222.881766 
L 271.928921 194.075083 
L 272.131278 222.951811 
L 272.535993 187.843612 
L 272.73835 200.649536 
L 272.940707 186.86864 
L 273.143064 158.935631 
L 273.345422 175.899463 
L 273.547779 226.283688 
L 273.750136 160.217167 
L 273.952493 165.449495 
L 274.15485 128.402324 
L 274.357208 126.644433 
L 274.559565 129.027401 
L 274.761922 148.320611 
L 274.964279 138.720877 
L 275.166636 142.234372 
L 275.368994 133.097734 
L 275.571351 189.507207 
L 275.773708 202.468638 
L 275.976065 224.314318 
L 276.178422 220.531444 
L 276.583137 205.751468 
L 276.785494 204.973611 
L 276.987851 199.90517 
L 277.190209 213.148993 
L 277.392566 170.786268 
L 277.594923 167.359747 
L 277.79728 152.998586 
L 277.999637 149.14925 
L 278.201995 125.64253 
L 278.404352 148.984542 
L 278.606709 143.339551 
L 278.809066 155.882114 
L 279.011423 157.889259 
L 279.416138 139.727531 
L 279.618495 136.961752 
L 280.023209 207.707891 
L 280.225567 212.775656 
L 280.427924 204.371826 
L 280.630281 205.050943 
L 280.832638 214.308416 
L 281.034995 212.56613 
L 281.237353 224.03803 
L 281.43971 225.207824 
L 281.642067 217.856052 
L 282.046782 175.124124 
L 282.249139 181.435279 
L 282.451496 200.191231 
L 283.058568 146.183688 
L 283.260925 154.673686 
L 283.463282 155.657058 
L 283.665639 123.720817 
L 283.867996 122.685723 
L 284.070354 136.365861 
L 284.272711 131.926496 
L 284.475068 141.284292 
L 284.677425 178.452622 
L 285.08214 166.937901 
L 285.486854 237.803235 
L 285.689211 249.321585 
L 285.891568 223.424996 
L 286.093926 233.844992 
L 286.700997 213.075767 
L 286.903354 247.895004 
L 287.105712 217.397164 
L 287.308069 212.061212 
L 287.510426 220.176702 
L 287.915141 167.40639 
L 288.117498 179.15451 
L 288.319855 156.199328 
L 288.522212 153.159719 
L 288.724569 145.91433 
L 288.926927 117.442225 
L 289.129284 145.514164 
L 289.331641 140.374086 
L 289.533998 162.638446 
L 289.736355 153.480551 
L 290.14107 190.941024 
L 290.343427 196.103025 
L 290.748141 224.697154 
L 290.950499 226.292621 
L 291.152856 221.645059 
L 291.355213 204.080851 
L 291.55757 205.455855 
L 291.759927 209.945583 
L 291.962285 228.109912 
L 292.164642 206.393503 
L 292.366999 157.079554 
L 292.569356 166.282414 
L 292.771714 166.280994 
L 292.974071 159.53674 
L 293.176428 129.958682 
L 293.581142 117.726452 
L 293.985857 124.817504 
L 294.188214 186.796418 
L 294.390571 177.938637 
L 294.592928 183.853837 
L 294.795286 167.754172 
L 294.997643 200.309824 
L 295.2 208.853899 
L 295.402357 222.710345 
L 295.604714 216.529983 
L 295.807072 223.834855 
L 296.211786 208.044897 
L 296.414143 215.018735 
L 296.6165 201.306043 
L 296.818858 139.660275 
L 297.021215 137.562979 
L 297.223572 130.31818 
L 297.425929 107.50075 
L 297.628286 107.765524 
L 297.830644 85.505329 
L 298.033001 77.441232 
L 298.235358 94.129941 
L 298.437715 65.382943 
L 298.640073 74.464864 
L 299.044787 131.204928 
L 299.247144 120.344079 
L 299.449501 121.036224 
L 299.651859 118.799138 
L 299.854216 159.341874 
L 300.056573 173.032126 
L 300.25893 163.289046 
L 300.663645 213.783 
L 300.866002 178.454343 
L 301.068359 204.761945 
L 301.675431 116.637592 
L 301.877788 114.457472 
L 302.484859 67.168742 
L 302.687217 73.7615 
L 302.889574 89.170052 
L 303.091931 116.347905 
L 303.294288 79.44695 
L 303.496646 78.060147 
L 303.90136 138.924466 
L 304.103717 136.845534 
L 304.306074 133.368037 
L 304.508432 163.601002 
L 304.710789 158.64114 
L 305.115503 200.764815 
L 305.31786 197.421452 
L 305.520218 216.463188 
L 305.722575 207.735708 
L 305.924932 179.952468 
L 306.127289 221.6415 
L 306.329646 169.865836 
L 306.532004 182.668593 
L 306.734361 155.634615 
L 306.936718 151.921423 
L 307.139075 156.503653 
L 307.341432 143.79051 
L 307.54379 146.377523 
L 307.746147 117.842166 
L 308.150861 99.312147 
L 308.96029 149.669538 
L 309.162647 195.798876 
L 309.365005 172.42468 
L 309.769719 218.406062 
L 309.972076 214.190893 
L 310.174433 224.245838 
L 310.579148 200.155439 
L 310.781505 215.38063 
L 310.983862 160.713491 
L 311.186219 150.125725 
L 311.388577 184.043919 
L 311.590934 158.864387 
L 311.793291 148.341085 
L 311.995648 123.995259 
L 312.198005 135.471877 
L 312.400363 133.214897 
L 312.805077 120.118594 
L 313.007434 121.137025 
L 313.209791 115.440565 
L 313.412149 120.196049 
L 313.816863 154.585354 
L 314.01922 172.059639 
L 314.221578 169.596953 
L 314.423935 209.017995 
L 314.626292 212.777892 
L 314.828649 182.608229 
L 315.031006 218.744399 
L 315.233364 215.145488 
L 315.435721 217.057614 
L 315.638078 221.811659 
L 315.840435 213.421512 
L 316.042792 174.152883 
L 316.24515 179.338648 
L 316.447507 219.884299 
L 316.649864 192.410676 
L 316.852221 202.666247 
L 317.054578 165.406483 
L 317.256936 174.712486 
L 317.459293 177.296146 
L 317.66165 198.206156 
L 317.864007 158.015483 
L 318.066364 175.918882 
L 318.268722 146.257386 
L 318.471079 186.821396 
L 318.673436 181.220954 
L 318.875793 171.005975 
L 319.07815 178.96833 
L 319.280508 230.255121 
L 319.482865 235.906666 
L 319.685222 227.064817 
L 319.887579 212.546317 
L 320.089937 218.27994 
L 320.292294 199.503388 
L 320.494651 192.951387 
L 320.697008 232.111172 
L 320.899365 211.298025 
L 321.101723 218.295587 
L 321.30408 210.453481 
L 321.506437 182.503681 
L 321.708794 174.454108 
L 321.911151 153.268926 
L 322.113509 156.716024 
L 322.315866 154.011832 
L 322.518223 154.970673 
L 322.72058 152.533681 
L 322.922937 137.695913 
L 323.125295 133.259415 
L 323.327652 124.245984 
L 323.530009 172.12572 
L 323.732366 160.678492 
L 323.934723 159.781346 
L 324.339438 209.771149 
L 324.541795 171.109854 
L 324.744152 198.701579 
L 324.94651 209.642943 
L 325.148867 228.491347 
L 325.351224 221.027733 
L 325.553581 243.080418 
L 325.755938 233.243653 
L 325.958296 190.847193 
L 326.160653 184.383373 
L 326.36301 161.816059 
L 326.565367 157.940368 
L 326.767724 164.497474 
L 326.970082 141.869565 
L 327.172439 148.338326 
L 327.374796 131.836844 
L 327.577153 144.734852 
L 327.77951 125.502628 
L 327.981868 159.89313 
L 328.184225 160.7818 
L 328.386582 144.389944 
L 328.588939 168.700747 
L 328.791296 164.673248 
L 328.993654 209.792116 
L 329.196011 159.365526 
L 329.398368 151.440639 
L 329.600725 222.283612 
L 329.803083 220.174324 
L 330.00544 242.993445 
L 330.207797 215.028287 
L 330.410154 220.068466 
L 330.612511 220.547851 
L 331.017226 170.836758 
L 331.219583 164.622829 
L 331.42194 165.973585 
L 331.624297 127.328655 
L 331.826655 146.468055 
L 332.029012 139.243027 
L 332.231369 151.451697 
L 332.433726 183.20134 
L 332.838441 124.735309 
L 333.040798 142.146079 
L 333.243155 146.515804 
L 333.647869 186.9278 
L 333.850227 186.309756 
L 334.052584 217.024874 
L 334.254941 230.709403 
L 334.457298 228.879483 
L 334.659655 205.964548 
L 335.06437 216.876074 
L 335.266727 188.653285 
L 335.469084 208.004457 
L 335.671442 215.029951 
L 335.873799 198.028487 
L 336.076156 208.1816 
L 336.48087 154.801091 
L 336.683228 157.588461 
L 336.885585 140.409547 
L 337.087942 139.592375 
L 337.290299 141.701899 
L 337.492656 155.767919 
L 337.695014 213.726342 
L 337.897371 183.850079 
L 338.099728 181.825509 
L 338.302085 205.192332 
L 338.504442 205.651413 
L 338.7068 219.876472 
L 338.909157 148.526975 
L 339.111514 159.755225 
L 339.313871 225.564604 
L 339.516228 201.829309 
L 339.920943 204.686066 
L 340.1233 195.231162 
L 340.325657 141.585268 
L 340.528015 154.220783 
L 340.730372 152.365656 
L 341.135086 163.670934 
L 341.337443 139.625082 
L 341.539801 140.713701 
L 341.742158 161.196991 
L 341.944515 134.965611 
L 342.146872 139.669739 
L 342.349229 117.49772 
L 342.753944 115.538565 
L 342.956301 124.757317 
L 343.76573 218.487318 
L 343.968087 216.066924 
L 344.170444 219.487018 
L 344.372801 213.73995 
L 344.575159 194.338182 
L 344.979873 208.972463 
L 345.18223 208.481292 
L 345.384587 162.38472 
L 345.586945 175.770211 
L 345.991659 124.253945 
L 346.194016 115.186303 
L 346.396374 116.707629 
L 346.598731 120.098174 
L 346.801088 109.138488 
L 347.003445 109.537334 
L 347.205802 111.103408 
L 347.40816 133.890735 
L 347.610517 123.275543 
L 347.812874 138.066029 
L 348.015231 164.947024 
L 348.217588 173.512684 
L 348.419946 169.637898 
L 348.622303 205.129344 
L 348.82466 194.643994 
L 349.027017 173.488334 
L 349.229374 215.564512 
L 349.431732 219.394134 
L 349.634089 208.829426 
L 350.038803 172.647988 
L 350.24116 214.556039 
L 350.645875 202.111771 
L 351.252947 145.1039 
L 351.455304 143.161327 
L 351.657661 144.524875 
L 351.860018 142.383051 
L 352.062375 105.270433 
L 352.264733 113.700974 
L 352.46709 129.162397 
L 352.669447 113.569124 
L 352.871804 175.060802 
L 353.074161 200.177862 
L 353.276519 174.77038 
L 353.478876 208.768472 
L 353.681233 213.79259 
L 353.88359 215.812253 
L 354.085947 221.394476 
L 354.288305 218.998313 
L 354.490662 222.992366 
L 354.693019 201.267017 
L 354.895376 221.65142 
L 355.300091 151.494475 
L 355.502448 164.793299 
L 355.704805 138.221327 
L 355.907162 154.759558 
L 356.109519 122.228838 
L 356.311877 144.985255 
L 356.514234 135.925144 
L 356.716591 117.039675 
L 356.918948 114.020116 
L 357.121306 112.936231 
L 357.323663 124.45799 
L 357.52602 127.806439 
L 358.133092 164.559185 
L 358.335449 219.537593 
L 358.537806 193.09145 
L 359.144878 221.971181 
L 359.347235 202.765161 
L 359.751949 229.207584 
L 359.954306 182.896834 
L 360.156664 181.430904 
L 360.561378 149.204203 
L 360.763735 118.28211 
L 360.966092 139.445462 
L 361.16845 119.485873 
L 361.370807 121.07109 
L 361.573164 109.150212 
L 362.382593 144.239021 
L 362.58495 136.865063 
L 362.787307 137.058259 
L 362.989665 160.341185 
L 363.192022 143.888944 
L 363.394379 140.845127 
L 363.799093 203.340307 
L 364.001451 217.403611 
L 364.203808 184.507327 
L 364.406165 132.910969 
L 364.608522 128.592858 
L 364.810879 167.308895 
L 365.215594 110.461239 
L 365.417951 113.759776 
L 365.620308 92.84607 
L 365.822665 88.262143 
L 366.025023 66.912665 
L 366.22738 67.369185 
L 366.429737 77.447309 
L 366.834451 64.47031 
L 367.036809 69.746479 
L 367.239166 70.359768 
L 367.441523 94.434567 
L 367.64388 99.195156 
L 367.846238 118.573799 
L 368.048595 125.036129 
L 368.250952 183.24543 
L 368.453309 197.399199 
L 368.655666 197.800949 
L 368.858024 193.72756 
L 369.060381 192.733581 
L 369.262738 157.932391 
L 369.465095 163.02523 
L 370.072167 85.701112 
L 370.881596 68.114657 
L 371.083953 68.832944 
L 371.28631 71.911584 
L 371.488667 67.153368 
L 371.691024 80.335727 
L 371.893382 103.012461 
L 372.095739 100.727508 
L 372.298096 79.318589 
L 372.702811 178.314 
L 372.905168 175.424952 
L 373.107525 202.826279 
L 373.309882 192.65137 
L 373.512239 202.74002 
L 373.916954 237.754069 
L 374.119311 200.494002 
L 374.321668 205.499895 
L 374.524025 216.36046 
L 374.92874 142.551833 
L 375.333454 133.79361 
L 375.535811 146.872946 
L 375.738169 141.512219 
L 375.940526 142.314302 
L 376.142883 96.820084 
L 376.34524 120.807808 
L 376.547597 109.8265 
L 376.749955 160.023917 
L 376.952312 108.767835 
L 377.357026 176.515924 
L 377.559383 171.161304 
L 377.761741 152.589944 
L 378.166455 220.352924 
L 378.368812 217.066127 
L 378.57117 218.174704 
L 378.773527 189.235383 
L 378.975884 216.217833 
L 379.785313 98.382562 
L 379.98767 99.658064 
L 380.190027 95.164084 
L 380.392384 96.311988 
L 380.594742 98.309353 
L 380.797099 90.509316 
L 380.999456 110.941336 
L 381.40417 96.15566 
L 381.606528 93.056433 
L 381.808885 134.558751 
L 382.011242 115.241196 
L 382.415956 169.212024 
L 382.618314 153.579602 
L 383.023028 213.221177 
L 383.225385 213.853125 
L 383.427743 206.379068 
L 383.6301 132.325616 
L 383.832457 175.978671 
L 384.034814 187.056967 
L 384.237171 164.414103 
L 384.237171 164.414103 
" clip-path="url(#p047f0d15f6)" style="fill: none; stroke: #ff7f0e; stroke-width: 1.5; stroke-linecap: square"/>
   </g>
   <g id="line2d_16">
    <path d="M 384.439529 239.699509 
L 384.641886 239.854211 
L 384.844243 195.580837 
L 385.0466 228.648448 
L 385.248957 198.671109 
L 385.451315 148.417145 
L 385.653672 153.920806 
L 385.856029 146.003869 
L 386.058386 226.688684 
L 386.260743 145.022359 
L 386.463101 221.156188 
L 386.867815 239.829786 
L 387.070172 151.556954 
L 387.272529 145.637854 
L 387.474887 219.894922 
L 387.677244 223.236014 
L 387.879601 229.358335 
L 388.081958 227.996568 
L 388.284316 245.857471 
L 388.486673 229.626222 
L 388.68903 240.631848 
L 388.891387 143.877704 
L 389.093744 153.204859 
L 389.296102 150.914522 
L 389.498459 66.927566 
L 389.700816 67.707737 
L 389.903173 66.016136 
L 390.10553 66.663652 
L 390.307888 66.735219 
L 390.510245 70.181097 
L 390.712602 68.370176 
L 390.914959 199.235603 
L 391.319674 243.301265 
L 391.522031 198.463382 
L 391.724388 276.130664 
L 391.926745 149.372448 
L 392.129102 163.988301 
L 392.33146 159.515805 
L 392.533817 186.515798 
L 392.736174 267.629527 
L 392.938531 192.340581 
L 393.140888 264.636674 
L 393.545603 141.818826 
L 393.74796 134.553034 
L 393.950317 262.200434 
L 394.152675 213.758357 
L 394.355032 222.358792 
L 394.557389 188.893825 
L 394.759746 186.756179 
L 394.962103 163.330063 
L 395.164461 162.644663 
L 395.366818 224.630563 
L 395.569175 249.793866 
L 395.771532 186.85129 
L 395.973889 183.552695 
L 396.378604 253.913365 
L 396.580961 228.123399 
L 396.985675 284.19592 
L 397.39039 233.854912 
L 397.592747 264.474731 
L 397.795104 227.841845 
L 398.199819 199.676136 
L 398.402176 204.215976 
L 398.604533 221.867873 
L 399.009248 164.731126 
L 399.211605 164.198476 
L 399.413962 220.780132 
L 399.616319 167.009535 
L 399.818676 184.142984 
L 400.021034 155.685944 
L 400.223391 223.57495 
L 400.425748 177.182936 
L 400.628105 225.2793 
L 400.830462 235.463985 
L 401.03282 229.678549 
L 401.235177 212.235885 
L 401.437534 224.705625 
L 401.639891 223.20693 
L 401.842248 203.98705 
L 402.044606 264.038717 
L 402.246963 204.49644 
L 402.44932 237.802468 
L 402.651677 211.495443 
L 402.854034 210.689901 
L 403.056392 197.506988 
L 403.258749 147.596505 
L 403.461106 165.374428 
L 403.663463 153.644223 
L 403.86582 162.0882 
L 404.068178 164.049967 
L 404.270535 130.004584 
L 404.472892 161.046616 
L 404.675249 136.415108 
L 405.079964 228.482006 
L 405.687035 126.28347 
L 405.889393 228.661957 
L 406.09175 200.998649 
L 406.294107 227.018005 
L 406.496464 203.21732 
L 406.901179 241.005018 
L 407.103536 220.929205 
L 407.305893 214.080596 
L 407.50825 216.449591 
L 407.710607 222.486127 
L 407.912965 216.127803 
L 408.317679 165.485686 
L 408.520036 148.560767 
L 408.722393 182.669406 
L 408.924751 184.030933 
L 409.127108 206.70361 
L 409.329465 169.356349 
L 409.531822 164.676917 
L 409.73418 180.161935 
L 409.936537 242.072191 
L 410.138894 211.445784 
L 410.341251 200.109907 
L 410.543608 218.712432 
L 410.948323 143.771561 
L 411.15068 187.862259 
L 411.353037 197.01145 
L 411.555394 211.600214 
L 411.757752 119.157198 
L 411.960109 128.896673 
L 412.162466 119.982943 
L 412.56718 176.562873 
L 412.769538 137.611205 
L 412.971895 214.870316 
L 413.174252 167.064619 
L 413.376609 215.49378 
L 413.578966 232.156811 
L 413.781324 229.238466 
L 413.983681 170.289896 
L 414.186038 174.778003 
L 414.388395 182.449545 
L 414.590752 157.564589 
L 414.79311 163.794437 
L 414.995467 216.821897 
L 415.197824 237.602953 
L 415.400181 212.142097 
L 415.602539 227.852119 
L 415.804896 175.638071 
L 416.007253 248.716278 
L 416.20961 201.468018 
L 416.411967 200.282623 
L 416.614325 163.443401 
L 416.816682 149.772642 
L 417.019039 164.666441 
L 417.221396 164.356509 
L 417.423753 161.146215 
L 417.626111 161.661319 
L 417.828468 235.591691 
L 418.030825 240.186874 
L 418.233182 237.000309 
L 418.435539 215.992786 
L 418.637897 216.080108 
L 418.840254 227.760022 
L 419.042611 205.773488 
L 419.244968 232.956623 
L 419.447325 230.646661 
L 419.649683 169.101085 
L 419.85204 154.372549 
L 420.256754 239.217957 
L 420.459112 229.605442 
L 420.661469 233.753531 
L 420.863826 241.022416 
L 421.066183 229.457998 
L 421.26854 230.221055 
L 421.470898 234.8509 
L 421.673255 206.956566 
L 421.875612 236.916246 
L 422.077969 248.350682 
L 422.482684 234.370513 
L 422.685041 243.344569 
L 422.887398 239.817837 
L 423.089755 233.59862 
L 423.292112 223.025203 
L 423.49447 239.994585 
L 423.899184 174.900346 
L 424.101541 158.08778 
L 424.303898 201.201669 
L 424.506256 209.56946 
L 424.708613 140.719804 
L 424.91097 222.300857 
L 425.113327 243.461963 
L 425.315684 234.513905 
L 425.720399 152.302356 
L 425.922756 162.958371 
L 426.327471 168.045292 
L 426.529828 224.205513 
L 426.732185 215.111774 
L 426.934542 174.135128 
L 427.136899 231.826295 
L 427.339257 254.415664 
L 427.541614 222.16675 
L 427.743971 164.994813 
L 427.946328 213.220216 
L 428.148685 185.042147 
L 428.351043 236.55438 
L 428.5534 203.192681 
L 428.755757 227.546758 
L 428.958114 236.083173 
L 429.160471 225.464006 
L 429.362829 234.415766 
L 429.565186 212.318419 
L 429.767543 154.181312 
L 429.9699 214.861873 
L 430.172257 203.838159 
L 430.374615 275.590037 
L 430.576972 249.827835 
L 430.779329 260.615163 
L 430.981686 183.097701 
L 431.184044 272.35735 
L 431.386401 247.316324 
L 431.588758 248.48206 
L 431.993472 212.742138 
L 432.19583 226.963713 
L 432.398187 221.211028 
L 432.600544 224.673883 
L 432.802901 232.906969 
L 433.005258 221.101794 
L 433.207616 178.071877 
L 433.409973 249.798842 
L 433.61233 252.882447 
L 433.814687 240.646159 
L 434.017044 243.637418 
L 434.219402 210.521532 
L 434.421759 232.809324 
L 434.624116 218.503744 
L 435.02883 307.8 
L 435.231188 111.52422 
L 435.433545 80.723815 
L 435.635902 185.235484 
L 435.838259 179.476373 
L 436.242974 241.115289 
L 436.445331 289.566351 
L 436.647688 172.753569 
L 436.850045 194.658677 
L 437.052403 229.069115 
L 437.25476 239.606808 
L 437.457117 293.923725 
L 437.659474 166.066718 
L 437.861831 162.746559 
L 438.064189 157.252652 
L 438.266546 231.457553 
L 438.468903 145.068879 
L 438.67126 166.020456 
L 438.873617 171.366756 
L 439.075975 157.531071 
L 439.278332 167.68566 
L 439.480689 162.833457 
L 439.683046 166.897053 
L 440.087761 180.02852 
L 440.290118 182.078561 
L 440.492475 204.584938 
L 440.694832 168.423922 
L 440.897189 180.918859 
L 441.099547 154.024109 
L 441.301904 165.646319 
L 441.504261 167.07247 
L 441.706618 166.591474 
L 441.908976 139.326103 
L 442.111333 184.165063 
L 442.31369 167.411844 
L 442.516047 175.359035 
L 442.718404 210.847313 
L 442.920762 198.171038 
L 443.123119 219.777335 
L 443.325476 206.739334 
L 443.527833 202.091007 
L 443.73019 235.584261 
L 443.932548 235.083111 
L 444.134905 237.980504 
L 444.337262 198.502007 
L 444.539619 255.140914 
L 444.741976 254.179947 
L 444.944334 213.585581 
L 445.146691 228.521075 
L 445.349048 222.827777 
L 445.551405 240.772319 
L 445.753762 245.264892 
L 446.158477 223.570924 
L 446.360834 232.467293 
L 446.563191 231.13956 
L 446.967906 205.551992 
L 447.170263 218.017571 
L 447.37262 209.135131 
L 447.574977 191.811026 
L 447.777335 153.079085 
L 447.979692 154.871944 
L 448.182049 169.158166 
L 448.384406 214.352077 
L 448.586763 181.615715 
L 448.789121 234.196331 
L 448.991478 173.563726 
L 449.193835 232.723618 
L 449.396192 185.444564 
L 449.598549 235.066008 
L 449.800907 240.758947 
L 450.003264 205.202049 
L 450.205621 240.020137 
L 450.407978 215.411174 
L 450.610335 155.753318 
L 450.812693 180.422366 
L 451.01505 239.788871 
L 451.217407 138.257518 
L 451.419764 150.726453 
L 451.622121 225.952399 
L 451.824479 213.088022 
L 452.026836 255.619964 
L 452.229193 179.618549 
L 452.43155 181.460313 
L 452.633908 213.161989 
L 452.836265 216.012578 
L 453.038622 231.287053 
L 453.240979 228.257726 
L 453.443336 249.98427 
L 453.645694 243.940981 
L 453.848051 232.741901 
L 454.050408 257.677499 
L 454.252765 223.908765 
L 454.455122 238.528437 
L 454.65748 222.130618 
L 454.859837 226.381843 
L 455.062194 246.010857 
L 455.264551 242.266944 
L 455.466908 212.941679 
L 455.669266 238.828516 
L 455.871623 217.221248 
L 456.07398 179.916862 
L 456.276337 208.823522 
L 456.478694 215.386312 
L 456.681052 230.828321 
L 456.883409 234.556887 
L 457.085766 186.513364 
L 457.288123 225.023985 
L 457.490481 177.958158 
L 457.692838 172.179945 
L 457.895195 231.488537 
L 458.097552 235.896177 
L 458.299909 224.518572 
L 458.502267 219.900623 
L 458.704624 231.193091 
L 458.906981 235.043065 
L 459.109338 193.729091 
L 459.311695 188.286398 
L 459.514053 190.803779 
L 459.71641 247.131566 
L 459.918767 233.540194 
L 460.121124 229.982649 
L 460.323481 213.251786 
L 460.525839 236.795207 
L 460.728196 201.369608 
L 461.13291 232.010542 
L 461.335267 229.770837 
L 461.537625 219.300411 
L 461.739982 230.894691 
L 461.942339 206.815984 
L 462.144696 157.129723 
L 462.347053 165.143918 
L 462.549411 182.564034 
L 462.751768 186.070843 
L 462.954125 234.526219 
L 463.156482 238.548014 
L 463.561197 181.894617 
L 463.763554 172.164405 
L 463.965911 183.157177 
L 464.168268 179.934727 
L 464.370626 199.7378 
L 464.572983 233.844112 
L 464.77534 221.659869 
L 464.977697 162.139183 
L 465.180054 224.283656 
L 465.382412 237.334803 
L 465.584769 238.306753 
L 465.787126 238.723077 
L 465.989483 238.614014 
L 466.19184 229.834588 
L 466.394198 212.533772 
L 466.596555 228.549909 
L 466.798912 232.776912 
L 467.203626 228.137785 
L 467.608341 234.936155 
L 467.810698 227.070991 
L 468.013055 214.425842 
L 468.215413 228.433288 
L 468.41777 165.00465 
L 468.620127 185.208394 
L 468.822484 219.177254 
L 469.024841 205.709784 
L 469.227199 203.009132 
L 469.429556 193.987767 
L 469.631913 242.334464 
L 469.83427 229.264523 
L 470.036627 226.633559 
L 470.238985 236.217852 
L 470.441342 217.016424 
L 470.643699 212.008911 
L 470.846056 245.081519 
L 471.048413 200.83811 
L 471.250771 235.606979 
L 471.453128 213.100793 
L 471.655485 222.48136 
L 471.857842 202.198681 
L 472.060199 217.839642 
L 472.262557 221.023162 
L 472.464914 213.075633 
L 472.667271 218.879422 
L 472.869628 216.384181 
L 473.071985 237.840667 
L 473.4767 223.444823 
L 473.881414 182.727725 
L 474.083772 186.253472 
L 474.286129 237.61683 
L 474.690843 214.990673 
L 474.8932 195.707925 
L 475.095558 237.918707 
L 475.500272 231.802504 
L 475.702629 220.137386 
L 475.904986 237.676104 
L 476.107344 236.285806 
L 476.714415 207.29785 
L 476.916772 231.122801 
L 477.321487 228.22376 
L 477.523844 221.743031 
L 477.726201 232.179877 
L 478.130916 205.050146 
L 478.333273 220.94659 
L 478.53563 186.920977 
L 478.737987 231.103111 
L 478.940345 219.659265 
L 479.142702 226.330509 
L 479.345059 226.427359 
L 479.547416 237.248297 
L 479.749773 234.550042 
L 479.952131 201.801201 
L 480.154488 237.507928 
L 480.356845 217.278289 
L 480.559202 218.015134 
L 480.761559 231.306297 
L 480.963917 229.888188 
L 481.166274 221.448148 
L 481.368631 198.881083 
L 481.773345 229.746767 
L 481.975703 220.279639 
L 482.17806 231.339327 
L 482.380417 208.289948 
L 482.582774 233.90141 
L 482.785131 233.596414 
L 482.987489 234.985359 
L 483.189846 233.798865 
L 483.392203 220.133135 
L 483.59456 245.34851 
L 483.796917 229.922914 
L 483.999275 202.723121 
L 484.201632 222.338871 
L 484.403989 222.011232 
L 484.606346 225.157351 
L 485.011061 152.934229 
L 485.213418 145.832747 
L 485.415775 193.48744 
L 485.618132 186.753209 
L 485.82049 194.812167 
L 486.022847 164.105475 
L 486.225204 192.78745 
L 486.427561 179.585664 
L 486.629918 188.71444 
L 486.832276 184.049344 
L 487.23699 190.15877 
L 487.439347 184.468212 
L 487.641704 159.743512 
L 487.844062 226.955784 
L 488.248776 207.264839 
L 488.451133 221.731927 
L 488.855848 209.768915 
L 489.058205 192.291845 
L 489.260562 197.469096 
L 489.462919 198.3034 
L 489.665277 154.021344 
L 489.867634 156.683998 
L 490.069991 166.145951 
L 490.272348 165.047127 
L 490.677063 238.90894 
L 490.87942 163.872904 
L 491.081777 150.982095 
L 491.284134 155.327321 
L 491.688849 166.705857 
L 491.891206 163.50942 
L 492.093563 223.989573 
L 492.29592 168.395517 
L 492.498277 150.633762 
L 492.902992 149.222325 
L 493.105349 227.835728 
L 493.307706 202.117104 
L 493.510063 209.950801 
L 493.712421 232.438515 
L 493.914778 235.986747 
L 494.117135 229.879712 
L 494.319492 176.877484 
L 494.52185 158.81791 
L 494.724207 216.613094 
L 494.926564 175.801636 
L 495.128921 203.419932 
L 495.331278 191.690996 
L 495.533636 223.246925 
L 495.735993 191.492863 
L 495.93835 178.153804 
L 496.140707 188.03669 
L 496.343064 231.025457 
L 496.545422 227.041609 
L 496.950136 165.659764 
L 497.152493 182.393846 
L 497.557208 194.56428 
L 497.759565 223.925602 
L 497.961922 227.413053 
L 498.164279 242.83046 
L 498.366636 208.643569 
L 498.568994 218.510572 
L 498.771351 218.046043 
L 498.973708 221.951652 
L 499.176065 232.184419 
L 499.378422 158.382137 
L 499.58078 218.520525 
L 499.783137 233.897035 
L 499.985494 216.743932 
L 500.187851 224.2614 
L 500.390209 226.735871 
L 500.592566 185.280948 
L 500.794923 166.684672 
L 500.99728 221.668633 
L 501.199637 196.156007 
L 501.401995 243.512611 
L 501.604352 199.471707 
L 501.806709 211.778326 
L 502.009066 235.530753 
L 502.211423 219.080278 
L 502.413781 225.721769 
L 502.616138 227.121939 
L 502.818495 224.316616 
L 503.020852 235.249547 
L 503.223209 231.628912 
L 503.425567 224.797241 
L 503.627924 222.343407 
L 503.830281 225.273693 
L 504.032638 202.421735 
L 504.234995 211.054576 
L 504.63971 257.610925 
L 504.842067 207.400508 
L 505.044424 223.54064 
L 505.449139 208.824222 
L 505.651496 213.01717 
L 505.853853 234.516514 
L 506.05621 228.864582 
L 506.258568 187.550323 
L 506.460925 220.132759 
L 506.663282 234.031693 
L 506.865639 257.369577 
L 507.067996 260.507878 
L 507.270354 251.613119 
L 507.472711 175.03029 
L 507.675068 175.426661 
L 507.877425 254.698807 
L 508.28214 186.96882 
L 508.484497 224.730546 
L 508.686854 213.121626 
L 508.889211 223.482526 
L 509.091568 216.897485 
L 509.293926 225.80813 
L 509.496283 214.548277 
L 509.69864 224.532599 
L 509.900997 225.977922 
L 510.103354 201.360083 
L 510.305712 229.553565 
L 510.508069 201.203208 
L 510.710426 224.949192 
L 510.912783 212.87708 
L 511.115141 231.547296 
L 511.317498 219.158995 
L 511.519855 218.090649 
L 511.722212 213.992984 
L 511.924569 223.614969 
L 512.126927 203.947101 
L 512.531641 233.124772 
L 512.733998 234.43668 
L 512.936355 228.706493 
L 513.138713 218.200973 
L 513.34107 224.687923 
L 513.543427 227.57436 
L 513.745784 226.969687 
L 513.948141 227.052192 
L 514.150499 215.066266 
L 514.352856 226.225638 
L 514.555213 220.369552 
L 514.75757 223.087902 
L 514.959927 216.027855 
L 515.162285 230.5506 
L 515.364642 202.487729 
L 515.566999 204.568855 
L 515.769356 231.352108 
L 515.971714 239.514547 
L 516.174071 240.235755 
L 516.376428 235.870443 
L 516.781142 209.359247 
L 516.9835 214.361691 
L 517.185857 222.395939 
L 517.388214 239.39112 
L 517.590571 234.287394 
L 517.792928 239.761961 
L 517.995286 242.173406 
L 518.197643 240.057381 
L 518.4 219.869437 
L 518.4 219.869437 
" clip-path="url(#p047f0d15f6)" style="fill: none; stroke: #2ca02c; stroke-width: 1.5; stroke-linecap: square"/>
   </g>
   <g id="patch_3">
    <path d="M 72 320.4 
L 72 43.2 
" style="fill: none; stroke: #000000; stroke-width: 0.8; stroke-linejoin: miter; stroke-linecap: square"/>
   </g>
   <g id="patch_4">
    <path d="M 518.4 320.4 
L 518.4 43.2 
" style="fill: none; stroke: #000000; stroke-width: 0.8; stroke-linejoin: miter; stroke-linecap: square"/>
   </g>
   <g id="patch_5">
    <path d="M 72 320.4 
L 518.4 320.4 
" style="fill: none; stroke: #000000; stroke-width: 0.8; stroke-linejoin: miter; stroke-linecap: square"/>
   </g>
   <g id="patch_6">
    <path d="M 72 43.2 
L 518.4 43.2 
" style="fill: none; stroke: #000000; stroke-width: 0.8; stroke-linejoin: miter; stroke-linecap: square"/>
   </g>
   <g id="text_14">
    <!-- LSTM -->
    <g transform="translate(279.20625 37.2) scale(0.12 -0.12)">
     <defs>
      <path id="DejaVuSans-4c" d="M 628 4666 
L 1259 4666 
L 1259 531 
L 3531 531 
L 3531 0 
L 628 0 
L 628 4666 
z
" transform="scale(0.015625)"/>
      <path id="DejaVuSans-53" d="M 3425 4513 
L 3425 3897 
Q 3066 4069 2747 4153 
Q 2428 4238 2131 4238 
Q 1616 4238 1336 4038 
Q 1056 3838 1056 3469 
Q 1056 3159 1242 3001 
Q 1428 2844 1947 2747 
L 2328 2669 
Q 3034 2534 3370 2195 
Q 3706 1856 3706 1288 
Q 3706 609 3251 259 
Q 2797 -91 1919 -91 
Q 1588 -91 1214 -16 
Q 841 59 441 206 
L 441 856 
Q 825 641 1194 531 
Q 1563 422 1919 422 
Q 2459 422 2753 634 
Q 3047 847 3047 1241 
Q 3047 1584 2836 1778 
Q 2625 1972 2144 2069 
L 1759 2144 
Q 1053 2284 737 2584 
Q 422 2884 422 3419 
Q 422 4038 858 4394 
Q 1294 4750 2059 4750 
Q 2388 4750 2728 4690 
Q 3069 4631 3425 4513 
z
" transform="scale(0.015625)"/>
      <path id="DejaVuSans-54" d="M -19 4666 
L 3928 4666 
L 3928 4134 
L 2272 4134 
L 2272 0 
L 1638 0 
L 1638 4134 
L -19 4134 
L -19 4666 
z
" transform="scale(0.015625)"/>
      <path id="DejaVuSans-4d" d="M 628 4666 
L 1569 4666 
L 2759 1491 
L 3956 4666 
L 4897 4666 
L 4897 0 
L 4281 0 
L 4281 4097 
L 3078 897 
L 2444 897 
L 1241 4097 
L 1241 0 
L 628 0 
L 628 4666 
z
" transform="scale(0.015625)"/>
     </defs>
     <use xlink:href="#DejaVuSans-4c"/>
     <use xlink:href="#DejaVuSans-53" x="55.712891"/>
     <use xlink:href="#DejaVuSans-54" x="119.189453"/>
     <use xlink:href="#DejaVuSans-4d" x="180.273438"/>
    </g>
   </g>
   <g id="legend_1">
    <g id="patch_7">
     <path d="M 79 95.234375 
L 161.517188 95.234375 
Q 163.517188 95.234375 163.517188 93.234375 
L 163.517188 50.2 
Q 163.517188 48.2 161.517188 48.2 
L 79 48.2 
Q 77 48.2 77 50.2 
L 77 93.234375 
Q 77 95.234375 79 95.234375 
z
" style="fill: #ffffff; opacity: 0.8; stroke: #cccccc; stroke-linejoin: miter"/>
    </g>
    <g id="line2d_17">
     <path d="M 81 56.298437 
L 91 56.298437 
L 101 56.298437 
" style="fill: none; stroke: #1f77b4; stroke-width: 1.5; stroke-linecap: square"/>
    </g>
    <g id="text_15">
     <!-- Measured -->
     <g transform="translate(109 59.798437) scale(0.1 -0.1)">
      <defs>
       <path id="DejaVuSans-65" d="M 3597 1894 
L 3597 1613 
L 953 1613 
Q 991 1019 1311 708 
Q 1631 397 2203 397 
Q 2534 397 2845 478 
Q 3156 559 3463 722 
L 3463 178 
Q 3153 47 2828 -22 
Q 2503 -91 2169 -91 
Q 1331 -91 842 396 
Q 353 884 353 1716 
Q 353 2575 817 3079 
Q 1281 3584 2069 3584 
Q 2775 3584 3186 3129 
Q 3597 2675 3597 1894 
z
M 3022 2063 
Q 3016 2534 2758 2815 
Q 2500 3097 2075 3097 
Q 1594 3097 1305 2825 
Q 1016 2553 972 2059 
L 3022 2063 
z
" transform="scale(0.015625)"/>
       <path id="DejaVuSans-61" d="M 2194 1759 
Q 1497 1759 1228 1600 
Q 959 1441 959 1056 
Q 959 750 1161 570 
Q 1363 391 1709 391 
Q 2188 391 2477 730 
Q 2766 1069 2766 1631 
L 2766 1759 
L 2194 1759 
z
M 3341 1997 
L 3341 0 
L 2766 0 
L 2766 531 
Q 2569 213 2275 61 
Q 1981 -91 1556 -91 
Q 1019 -91 701 211 
Q 384 513 384 1019 
Q 384 1609 779 1909 
Q 1175 2209 1959 2209 
L 2766 2209 
L 2766 2266 
Q 2766 2663 2505 2880 
Q 2244 3097 1772 3097 
Q 1472 3097 1187 3025 
Q 903 2953 641 2809 
L 641 3341 
Q 956 3463 1253 3523 
Q 1550 3584 1831 3584 
Q 2591 3584 2966 3190 
Q 3341 2797 3341 1997 
z
" transform="scale(0.015625)"/>
       <path id="DejaVuSans-73" d="M 2834 3397 
L 2834 2853 
Q 2591 2978 2328 3040 
Q 2066 3103 1784 3103 
Q 1356 3103 1142 2972 
Q 928 2841 928 2578 
Q 928 2378 1081 2264 
Q 1234 2150 1697 2047 
L 1894 2003 
Q 2506 1872 2764 1633 
Q 3022 1394 3022 966 
Q 3022 478 2636 193 
Q 2250 -91 1575 -91 
Q 1294 -91 989 -36 
Q 684 19 347 128 
L 347 722 
Q 666 556 975 473 
Q 1284 391 1588 391 
Q 1994 391 2212 530 
Q 2431 669 2431 922 
Q 2431 1156 2273 1281 
Q 2116 1406 1581 1522 
L 1381 1569 
Q 847 1681 609 1914 
Q 372 2147 372 2553 
Q 372 3047 722 3315 
Q 1072 3584 1716 3584 
Q 2034 3584 2315 3537 
Q 2597 3491 2834 3397 
z
" transform="scale(0.015625)"/>
       <path id="DejaVuSans-75" d="M 544 1381 
L 544 3500 
L 1119 3500 
L 1119 1403 
Q 1119 906 1312 657 
Q 1506 409 1894 409 
Q 2359 409 2629 706 
Q 2900 1003 2900 1516 
L 2900 3500 
L 3475 3500 
L 3475 0 
L 2900 0 
L 2900 538 
Q 2691 219 2414 64 
Q 2138 -91 1772 -91 
Q 1169 -91 856 284 
Q 544 659 544 1381 
z
M 1991 3584 
L 1991 3584 
z
" transform="scale(0.015625)"/>
       <path id="DejaVuSans-72" d="M 2631 2963 
Q 2534 3019 2420 3045 
Q 2306 3072 2169 3072 
Q 1681 3072 1420 2755 
Q 1159 2438 1159 1844 
L 1159 0 
L 581 0 
L 581 3500 
L 1159 3500 
L 1159 2956 
Q 1341 3275 1631 3429 
Q 1922 3584 2338 3584 
Q 2397 3584 2469 3576 
Q 2541 3569 2628 3553 
L 2631 2963 
z
" transform="scale(0.015625)"/>
       <path id="DejaVuSans-64" d="M 2906 2969 
L 2906 4863 
L 3481 4863 
L 3481 0 
L 2906 0 
L 2906 525 
Q 2725 213 2448 61 
Q 2172 -91 1784 -91 
Q 1150 -91 751 415 
Q 353 922 353 1747 
Q 353 2572 751 3078 
Q 1150 3584 1784 3584 
Q 2172 3584 2448 3432 
Q 2725 3281 2906 2969 
z
M 947 1747 
Q 947 1113 1208 752 
Q 1469 391 1925 391 
Q 2381 391 2643 752 
Q 2906 1113 2906 1747 
Q 2906 2381 2643 2742 
Q 2381 3103 1925 3103 
Q 1469 3103 1208 2742 
Q 947 2381 947 1747 
z
" transform="scale(0.015625)"/>
      </defs>
      <use xlink:href="#DejaVuSans-4d"/>
      <use xlink:href="#DejaVuSans-65" x="86.279297"/>
      <use xlink:href="#DejaVuSans-61" x="147.802734"/>
      <use xlink:href="#DejaVuSans-73" x="209.082031"/>
      <use xlink:href="#DejaVuSans-75" x="261.181641"/>
      <use xlink:href="#DejaVuSans-72" x="324.560547"/>
      <use xlink:href="#DejaVuSans-65" x="363.423828"/>
      <use xlink:href="#DejaVuSans-64" x="424.947266"/>
     </g>
    </g>
    <g id="line2d_18">
     <path d="M 81 70.976562 
L 91 70.976562 
L 101 70.976562 
" style="fill: none; stroke: #ff7f0e; stroke-width: 1.5; stroke-linecap: square"/>
    </g>
    <g id="text_16">
     <!-- Fitted -->
     <g transform="translate(109 74.476562) scale(0.1 -0.1)">
      <defs>
       <path id="DejaVuSans-46" d="M 628 4666 
L 3309 4666 
L 3309 4134 
L 1259 4134 
L 1259 2759 
L 3109 2759 
L 3109 2228 
L 1259 2228 
L 1259 0 
L 628 0 
L 628 4666 
z
" transform="scale(0.015625)"/>
       <path id="DejaVuSans-69" d="M 603 3500 
L 1178 3500 
L 1178 0 
L 603 0 
L 603 3500 
z
M 603 4863 
L 1178 4863 
L 1178 4134 
L 603 4134 
L 603 4863 
z
" transform="scale(0.015625)"/>
       <path id="DejaVuSans-74" d="M 1172 4494 
L 1172 3500 
L 2356 3500 
L 2356 3053 
L 1172 3053 
L 1172 1153 
Q 1172 725 1289 603 
Q 1406 481 1766 481 
L 2356 481 
L 2356 0 
L 1766 0 
Q 1100 0 847 248 
Q 594 497 594 1153 
L 594 3053 
L 172 3053 
L 172 3500 
L 594 3500 
L 594 4494 
L 1172 4494 
z
" transform="scale(0.015625)"/>
      </defs>
      <use xlink:href="#DejaVuSans-46"/>
      <use xlink:href="#DejaVuSans-69" x="50.269531"/>
      <use xlink:href="#DejaVuSans-74" x="78.052734"/>
      <use xlink:href="#DejaVuSans-74" x="117.261719"/>
      <use xlink:href="#DejaVuSans-65" x="156.470703"/>
      <use xlink:href="#DejaVuSans-64" x="217.994141"/>
     </g>
    </g>
    <g id="line2d_19">
     <path d="M 81 85.654687 
L 91 85.654687 
L 101 85.654687 
" style="fill: none; stroke: #2ca02c; stroke-width: 1.5; stroke-linecap: square"/>
    </g>
    <g id="text_17">
     <!-- Estimated -->
     <g transform="translate(109 89.154687) scale(0.1 -0.1)">
      <defs>
       <path id="DejaVuSans-45" d="M 628 4666 
L 3578 4666 
L 3578 4134 
L 1259 4134 
L 1259 2753 
L 3481 2753 
L 3481 2222 
L 1259 2222 
L 1259 531 
L 3634 531 
L 3634 0 
L 628 0 
L 628 4666 
z
" transform="scale(0.015625)"/>
       <path id="DejaVuSans-6d" d="M 3328 2828 
Q 3544 3216 3844 3400 
Q 4144 3584 4550 3584 
Q 5097 3584 5394 3201 
Q 5691 2819 5691 2113 
L 5691 0 
L 5113 0 
L 5113 2094 
Q 5113 2597 4934 2840 
Q 4756 3084 4391 3084 
Q 3944 3084 3684 2787 
Q 3425 2491 3425 1978 
L 3425 0 
L 2847 0 
L 2847 2094 
Q 2847 2600 2669 2842 
Q 2491 3084 2119 3084 
Q 1678 3084 1418 2786 
Q 1159 2488 1159 1978 
L 1159 0 
L 581 0 
L 581 3500 
L 1159 3500 
L 1159 2956 
Q 1356 3278 1631 3431 
Q 1906 3584 2284 3584 
Q 2666 3584 2933 3390 
Q 3200 3197 3328 2828 
z
" transform="scale(0.015625)"/>
      </defs>
      <use xlink:href="#DejaVuSans-45"/>
      <use xlink:href="#DejaVuSans-73" x="63.183594"/>
      <use xlink:href="#DejaVuSans-74" x="115.283203"/>
      <use xlink:href="#DejaVuSans-69" x="154.492188"/>
      <use xlink:href="#DejaVuSans-6d" x="182.275391"/>
      <use xlink:href="#DejaVuSans-61" x="279.6875"/>
      <use xlink:href="#DejaVuSans-74" x="340.966797"/>
      <use xlink:href="#DejaVuSans-65" x="380.175781"/>
      <use xlink:href="#DejaVuSans-64" x="441.699219"/>
     </g>
    </g>
   </g>
  </g>
 </g>
 <defs>
  <clipPath id="p047f0d15f6">
   <rect x="72" y="43.2" width="446.4" height="277.2"/>
  </clipPath>
 </defs>
</svg>
