<?xml version="1.0" encoding="utf-8" standalone="no"?>
<!DOCTYPE svg PUBLIC "-//W3C//DTD SVG 1.1//EN"
  "http://www.w3.org/Graphics/SVG/1.1/DTD/svg11.dtd">
<svg xmlns:xlink="http://www.w3.org/1999/xlink" width="576pt" height="360pt" viewBox="0 0 576 360" xmlns="http://www.w3.org/2000/svg" version="1.1">
 <metadata>
  <rdf:RDF xmlns:dc="http://purl.org/dc/elements/1.1/" xmlns:cc="http://creativecommons.org/ns#" xmlns:rdf="http://www.w3.org/1999/02/22-rdf-syntax-ns#">
   <cc:Work>
    <dc:type rdf:resource="http://purl.org/dc/dcmitype/StillImage"/>
    <dc:date>2023-11-23T07:48:16.869954</dc:date>
    <dc:format>image/svg+xml</dc:format>
    <dc:creator>
     <cc:Agent>
      <dc:title>Matplotlib v3.8.2, https://matplotlib.org/</dc:title>
     </cc:Agent>
    </dc:creator>
   </cc:Work>
  </rdf:RDF>
 </metadata>
 <defs>
  <style type="text/css">*{stroke-linejoin: round; stroke-linecap: butt}</style>
 </defs>
 <g id="figure_1">
  <g id="patch_1">
   <path d="M 0 360 
L 576 360 
L 576 0 
L 0 0 
z
" style="fill: #ffffff"/>
  </g>
  <g id="axes_1">
   <g id="patch_2">
    <path d="M 72 320.4 
L 518.4 320.4 
L 518.4 43.2 
L 72 43.2 
z
" style="fill: #ffffff"/>
   </g>
   <g id="matplotlib.axis_1">
    <g id="xtick_1">
     <g id="line2d_1">
      <defs>
       <path id="m3a3f723941" d="M 0 0 
L 0 3.5 
" style="stroke: #000000; stroke-width: 0.8"/>
      </defs>
      <g>
       <use xlink:href="#m3a3f723941" x="129.874161" y="320.4" style="stroke: #000000; stroke-width: 0.8"/>
      </g>
     </g>
     <g id="text_1">
      <!-- 2020-05-15 -->
      <g transform="translate(100.816349 334.998438) scale(0.1 -0.1)">
       <defs>
        <path id="DejaVuSans-32" d="M 1228 531 
L 3431 531 
L 3431 0 
L 469 0 
L 469 531 
Q 828 903 1448 1529 
Q 2069 2156 2228 2338 
Q 2531 2678 2651 2914 
Q 2772 3150 2772 3378 
Q 2772 3750 2511 3984 
Q 2250 4219 1831 4219 
Q 1534 4219 1204 4116 
Q 875 4013 500 3803 
L 500 4441 
Q 881 4594 1212 4672 
Q 1544 4750 1819 4750 
Q 2544 4750 2975 4387 
Q 3406 4025 3406 3419 
Q 3406 3131 3298 2873 
Q 3191 2616 2906 2266 
Q 2828 2175 2409 1742 
Q 1991 1309 1228 531 
z
" transform="scale(0.015625)"/>
        <path id="DejaVuSans-30" d="M 2034 4250 
Q 1547 4250 1301 3770 
Q 1056 3291 1056 2328 
Q 1056 1369 1301 889 
Q 1547 409 2034 409 
Q 2525 409 2770 889 
Q 3016 1369 3016 2328 
Q 3016 3291 2770 3770 
Q 2525 4250 2034 4250 
z
M 2034 4750 
Q 2819 4750 3233 4129 
Q 3647 3509 3647 2328 
Q 3647 1150 3233 529 
Q 2819 -91 2034 -91 
Q 1250 -91 836 529 
Q 422 1150 422 2328 
Q 422 3509 836 4129 
Q 1250 4750 2034 4750 
z
" transform="scale(0.015625)"/>
        <path id="DejaVuSans-2d" d="M 313 2009 
L 1997 2009 
L 1997 1497 
L 313 1497 
L 313 2009 
z
" transform="scale(0.015625)"/>
        <path id="DejaVuSans-35" d="M 691 4666 
L 3169 4666 
L 3169 4134 
L 1269 4134 
L 1269 2991 
Q 1406 3038 1543 3061 
Q 1681 3084 1819 3084 
Q 2600 3084 3056 2656 
Q 3513 2228 3513 1497 
Q 3513 744 3044 326 
Q 2575 -91 1722 -91 
Q 1428 -91 1123 -41 
Q 819 9 494 109 
L 494 744 
Q 775 591 1075 516 
Q 1375 441 1709 441 
Q 2250 441 2565 725 
Q 2881 1009 2881 1497 
Q 2881 1984 2565 2268 
Q 2250 2553 1709 2553 
Q 1456 2553 1204 2497 
Q 953 2441 691 2322 
L 691 4666 
z
" transform="scale(0.015625)"/>
        <path id="DejaVuSans-31" d="M 794 531 
L 1825 531 
L 1825 4091 
L 703 3866 
L 703 4441 
L 1819 4666 
L 2450 4666 
L 2450 531 
L 3481 531 
L 3481 0 
L 794 0 
L 794 531 
z
" transform="scale(0.015625)"/>
       </defs>
       <use xlink:href="#DejaVuSans-32"/>
       <use xlink:href="#DejaVuSans-30" x="63.623047"/>
       <use xlink:href="#DejaVuSans-32" x="127.246094"/>
       <use xlink:href="#DejaVuSans-30" x="190.869141"/>
       <use xlink:href="#DejaVuSans-2d" x="254.492188"/>
       <use xlink:href="#DejaVuSans-30" x="290.576172"/>
       <use xlink:href="#DejaVuSans-35" x="354.199219"/>
       <use xlink:href="#DejaVuSans-2d" x="417.822266"/>
       <use xlink:href="#DejaVuSans-31" x="453.90625"/>
       <use xlink:href="#DejaVuSans-35" x="517.529297"/>
      </g>
     </g>
    </g>
    <g id="xtick_2">
     <g id="line2d_2">
      <g>
       <use xlink:href="#m3a3f723941" x="212.435902" y="320.4" style="stroke: #000000; stroke-width: 0.8"/>
      </g>
     </g>
     <g id="text_2">
      <!-- 2020-06-01 -->
      <g transform="translate(183.37809 334.998438) scale(0.1 -0.1)">
       <defs>
        <path id="DejaVuSans-36" d="M 2113 2584 
Q 1688 2584 1439 2293 
Q 1191 2003 1191 1497 
Q 1191 994 1439 701 
Q 1688 409 2113 409 
Q 2538 409 2786 701 
Q 3034 994 3034 1497 
Q 3034 2003 2786 2293 
Q 2538 2584 2113 2584 
z
M 3366 4563 
L 3366 3988 
Q 3128 4100 2886 4159 
Q 2644 4219 2406 4219 
Q 1781 4219 1451 3797 
Q 1122 3375 1075 2522 
Q 1259 2794 1537 2939 
Q 1816 3084 2150 3084 
Q 2853 3084 3261 2657 
Q 3669 2231 3669 1497 
Q 3669 778 3244 343 
Q 2819 -91 2113 -91 
Q 1303 -91 875 529 
Q 447 1150 447 2328 
Q 447 3434 972 4092 
Q 1497 4750 2381 4750 
Q 2619 4750 2861 4703 
Q 3103 4656 3366 4563 
z
" transform="scale(0.015625)"/>
       </defs>
       <use xlink:href="#DejaVuSans-32"/>
       <use xlink:href="#DejaVuSans-30" x="63.623047"/>
       <use xlink:href="#DejaVuSans-32" x="127.246094"/>
       <use xlink:href="#DejaVuSans-30" x="190.869141"/>
       <use xlink:href="#DejaVuSans-2d" x="254.492188"/>
       <use xlink:href="#DejaVuSans-30" x="290.576172"/>
       <use xlink:href="#DejaVuSans-36" x="354.199219"/>
       <use xlink:href="#DejaVuSans-2d" x="417.822266"/>
       <use xlink:href="#DejaVuSans-30" x="453.90625"/>
       <use xlink:href="#DejaVuSans-31" x="517.529297"/>
      </g>
     </g>
    </g>
    <g id="xtick_3">
     <g id="line2d_3">
      <g>
       <use xlink:href="#m3a3f723941" x="280.427924" y="320.4" style="stroke: #000000; stroke-width: 0.8"/>
      </g>
     </g>
     <g id="text_3">
      <!-- 2020-06-15 -->
      <g transform="translate(251.370111 334.998438) scale(0.1 -0.1)">
       <use xlink:href="#DejaVuSans-32"/>
       <use xlink:href="#DejaVuSans-30" x="63.623047"/>
       <use xlink:href="#DejaVuSans-32" x="127.246094"/>
       <use xlink:href="#DejaVuSans-30" x="190.869141"/>
       <use xlink:href="#DejaVuSans-2d" x="254.492188"/>
       <use xlink:href="#DejaVuSans-30" x="290.576172"/>
       <use xlink:href="#DejaVuSans-36" x="354.199219"/>
       <use xlink:href="#DejaVuSans-2d" x="417.822266"/>
       <use xlink:href="#DejaVuSans-31" x="453.90625"/>
       <use xlink:href="#DejaVuSans-35" x="517.529297"/>
      </g>
     </g>
    </g>
    <g id="xtick_4">
     <g id="line2d_4">
      <g>
       <use xlink:href="#m3a3f723941" x="358.133092" y="320.4" style="stroke: #000000; stroke-width: 0.8"/>
      </g>
     </g>
     <g id="text_4">
      <!-- 2020-07-01 -->
      <g transform="translate(329.075279 334.998438) scale(0.1 -0.1)">
       <defs>
        <path id="DejaVuSans-37" d="M 525 4666 
L 3525 4666 
L 3525 4397 
L 1831 0 
L 1172 0 
L 2766 4134 
L 525 4134 
L 525 4666 
z
" transform="scale(0.015625)"/>
       </defs>
       <use xlink:href="#DejaVuSans-32"/>
       <use xlink:href="#DejaVuSans-30" x="63.623047"/>
       <use xlink:href="#DejaVuSans-32" x="127.246094"/>
       <use xlink:href="#DejaVuSans-30" x="190.869141"/>
       <use xlink:href="#DejaVuSans-2d" x="254.492188"/>
       <use xlink:href="#DejaVuSans-30" x="290.576172"/>
       <use xlink:href="#DejaVuSans-37" x="354.199219"/>
       <use xlink:href="#DejaVuSans-2d" x="417.822266"/>
       <use xlink:href="#DejaVuSans-30" x="453.90625"/>
       <use xlink:href="#DejaVuSans-31" x="517.529297"/>
      </g>
     </g>
    </g>
    <g id="xtick_5">
     <g id="line2d_5">
      <g>
       <use xlink:href="#m3a3f723941" x="426.125113" y="320.4" style="stroke: #000000; stroke-width: 0.8"/>
      </g>
     </g>
     <g id="text_5">
      <!-- 2020-07-15 -->
      <g transform="translate(397.067301 334.998438) scale(0.1 -0.1)">
       <use xlink:href="#DejaVuSans-32"/>
       <use xlink:href="#DejaVuSans-30" x="63.623047"/>
       <use xlink:href="#DejaVuSans-32" x="127.246094"/>
       <use xlink:href="#DejaVuSans-30" x="190.869141"/>
       <use xlink:href="#DejaVuSans-2d" x="254.492188"/>
       <use xlink:href="#DejaVuSans-30" x="290.576172"/>
       <use xlink:href="#DejaVuSans-37" x="354.199219"/>
       <use xlink:href="#DejaVuSans-2d" x="417.822266"/>
       <use xlink:href="#DejaVuSans-31" x="453.90625"/>
       <use xlink:href="#DejaVuSans-35" x="517.529297"/>
      </g>
     </g>
    </g>
    <g id="xtick_6">
     <g id="line2d_6">
      <g>
       <use xlink:href="#m3a3f723941" x="508.686854" y="320.4" style="stroke: #000000; stroke-width: 0.8"/>
      </g>
     </g>
     <g id="text_6">
      <!-- 2020-08-01 -->
      <g transform="translate(479.629042 334.998438) scale(0.1 -0.1)">
       <defs>
        <path id="DejaVuSans-38" d="M 2034 2216 
Q 1584 2216 1326 1975 
Q 1069 1734 1069 1313 
Q 1069 891 1326 650 
Q 1584 409 2034 409 
Q 2484 409 2743 651 
Q 3003 894 3003 1313 
Q 3003 1734 2745 1975 
Q 2488 2216 2034 2216 
z
M 1403 2484 
Q 997 2584 770 2862 
Q 544 3141 544 3541 
Q 544 4100 942 4425 
Q 1341 4750 2034 4750 
Q 2731 4750 3128 4425 
Q 3525 4100 3525 3541 
Q 3525 3141 3298 2862 
Q 3072 2584 2669 2484 
Q 3125 2378 3379 2068 
Q 3634 1759 3634 1313 
Q 3634 634 3220 271 
Q 2806 -91 2034 -91 
Q 1263 -91 848 271 
Q 434 634 434 1313 
Q 434 1759 690 2068 
Q 947 2378 1403 2484 
z
M 1172 3481 
Q 1172 3119 1398 2916 
Q 1625 2713 2034 2713 
Q 2441 2713 2670 2916 
Q 2900 3119 2900 3481 
Q 2900 3844 2670 4047 
Q 2441 4250 2034 4250 
Q 1625 4250 1398 4047 
Q 1172 3844 1172 3481 
z
" transform="scale(0.015625)"/>
       </defs>
       <use xlink:href="#DejaVuSans-32"/>
       <use xlink:href="#DejaVuSans-30" x="63.623047"/>
       <use xlink:href="#DejaVuSans-32" x="127.246094"/>
       <use xlink:href="#DejaVuSans-30" x="190.869141"/>
       <use xlink:href="#DejaVuSans-2d" x="254.492188"/>
       <use xlink:href="#DejaVuSans-30" x="290.576172"/>
       <use xlink:href="#DejaVuSans-38" x="354.199219"/>
       <use xlink:href="#DejaVuSans-2d" x="417.822266"/>
       <use xlink:href="#DejaVuSans-30" x="453.90625"/>
       <use xlink:href="#DejaVuSans-31" x="517.529297"/>
      </g>
     </g>
    </g>
   </g>
   <g id="matplotlib.axis_2">
    <g id="ytick_1">
     <g id="line2d_7">
      <defs>
       <path id="m999d397713" d="M 0 0 
L -3.5 0 
" style="stroke: #000000; stroke-width: 0.8"/>
      </defs>
      <g>
       <use xlink:href="#m999d397713" x="72" y="316.023131" style="stroke: #000000; stroke-width: 0.8"/>
      </g>
     </g>
     <g id="text_7">
      <!-- −2 -->
      <g transform="translate(50.257812 319.82235) scale(0.1 -0.1)">
       <defs>
        <path id="DejaVuSans-2212" d="M 678 2272 
L 4684 2272 
L 4684 1741 
L 678 1741 
L 678 2272 
z
" transform="scale(0.015625)"/>
       </defs>
       <use xlink:href="#DejaVuSans-2212"/>
       <use xlink:href="#DejaVuSans-32" x="83.789062"/>
      </g>
     </g>
    </g>
    <g id="ytick_2">
     <g id="line2d_8">
      <g>
       <use xlink:href="#m999d397713" x="72" y="262.270979" style="stroke: #000000; stroke-width: 0.8"/>
      </g>
     </g>
     <g id="text_8">
      <!-- −1 -->
      <g transform="translate(50.257812 266.070197) scale(0.1 -0.1)">
       <use xlink:href="#DejaVuSans-2212"/>
       <use xlink:href="#DejaVuSans-31" x="83.789062"/>
      </g>
     </g>
    </g>
    <g id="ytick_3">
     <g id="line2d_9">
      <g>
       <use xlink:href="#m999d397713" x="72" y="208.518827" style="stroke: #000000; stroke-width: 0.8"/>
      </g>
     </g>
     <g id="text_9">
      <!-- 0 -->
      <g transform="translate(58.6375 212.318045) scale(0.1 -0.1)">
       <use xlink:href="#DejaVuSans-30"/>
      </g>
     </g>
    </g>
    <g id="ytick_4">
     <g id="line2d_10">
      <g>
       <use xlink:href="#m999d397713" x="72" y="154.766674" style="stroke: #000000; stroke-width: 0.8"/>
      </g>
     </g>
     <g id="text_10">
      <!-- 1 -->
      <g transform="translate(58.6375 158.565893) scale(0.1 -0.1)">
       <use xlink:href="#DejaVuSans-31"/>
      </g>
     </g>
    </g>
    <g id="ytick_5">
     <g id="line2d_11">
      <g>
       <use xlink:href="#m999d397713" x="72" y="101.014522" style="stroke: #000000; stroke-width: 0.8"/>
      </g>
     </g>
     <g id="text_11">
      <!-- 2 -->
      <g transform="translate(58.6375 104.813741) scale(0.1 -0.1)">
       <use xlink:href="#DejaVuSans-32"/>
      </g>
     </g>
    </g>
    <g id="ytick_6">
     <g id="line2d_12">
      <g>
       <use xlink:href="#m999d397713" x="72" y="47.26237" style="stroke: #000000; stroke-width: 0.8"/>
      </g>
     </g>
     <g id="text_12">
      <!-- 3 -->
      <g transform="translate(58.6375 51.061589) scale(0.1 -0.1)">
       <defs>
        <path id="DejaVuSans-33" d="M 2597 2516 
Q 3050 2419 3304 2112 
Q 3559 1806 3559 1356 
Q 3559 666 3084 287 
Q 2609 -91 1734 -91 
Q 1441 -91 1130 -33 
Q 819 25 488 141 
L 488 750 
Q 750 597 1062 519 
Q 1375 441 1716 441 
Q 2309 441 2620 675 
Q 2931 909 2931 1356 
Q 2931 1769 2642 2001 
Q 2353 2234 1838 2234 
L 1294 2234 
L 1294 2753 
L 1863 2753 
Q 2328 2753 2575 2939 
Q 2822 3125 2822 3475 
Q 2822 3834 2567 4026 
Q 2313 4219 1838 4219 
Q 1578 4219 1281 4162 
Q 984 4106 628 3988 
L 628 4550 
Q 988 4650 1302 4700 
Q 1616 4750 1894 4750 
Q 2613 4750 3031 4423 
Q 3450 4097 3450 3541 
Q 3450 3153 3228 2886 
Q 3006 2619 2597 2516 
z
" transform="scale(0.015625)"/>
       </defs>
       <use xlink:href="#DejaVuSans-33"/>
      </g>
     </g>
    </g>
   </g>
   <g id="line2d_13">
    <path d="M 72 287.0215 
L 72.404714 298.412759 
L 72.607072 296.682973 
L 72.809429 285.966751 
L 73.214143 254.915019 
L 73.618858 242.426822 
L 75.035358 159.101858 
L 75.237715 156.127473 
L 75.440073 161.211349 
L 75.64243 169.459466 
L 75.844787 172.771369 
L 76.047144 188.086287 
L 76.654216 258.669916 
L 77.05893 282.8447 
L 77.261287 287.232449 
L 77.463645 286.852739 
L 77.666002 276.094328 
L 78.070716 247.468508 
L 78.475431 234.938123 
L 78.677788 225.761828 
L 79.487217 168.510196 
L 79.891931 152.161627 
L 80.094288 154.123451 
L 80.903717 196.735208 
L 81.713146 272.423812 
L 82.11786 287.148066 
L 82.320218 289.194273 
L 82.522575 288.898946 
L 82.724932 286.367556 
L 82.927289 279.511706 
L 83.332004 256.412758 
L 83.736718 242.026017 
L 83.939075 238.967252 
L 84.141432 239.241488 
L 84.546147 245.675439 
L 84.748504 247.784933 
L 84.950861 247.806027 
L 85.355576 252.025012 
L 85.557933 248.670921 
L 85.76029 254.830639 
L 86.569719 300.015974 
L 86.772076 306.133503 
L 86.974433 307.736717 
L 87.176791 307.8 
L 87.379148 306.449924 
L 87.581505 302.695031 
L 87.783862 295.902463 
L 88.188577 273.731692 
L 88.390934 268.521245 
L 89.200363 260.399699 
L 89.40272 256.244 
L 89.807434 241.372076 
L 90.212149 238.903969 
L 90.414506 236.182723 
L 90.616863 244.1777 
L 91.223935 295.03757 
L 91.628649 306.133503 
L 91.831006 306.196786 
L 92.033364 303.68649 
L 92.842792 257.277652 
L 93.04515 255.125969 
L 93.449864 246.477049 
L 93.652221 245.949675 
L 93.854578 242.996385 
L 94.056936 242.363536 
L 94.259293 239.726671 
L 94.46165 233.292718 
L 94.664007 230.423807 
L 94.866364 231.351985 
L 95.068722 234.516223 
L 95.271079 230.655851 
L 95.473436 240.823608 
L 96.080508 295.417281 
L 96.485222 304.677956 
L 96.687579 306.597591 
L 96.889937 302.230942 
L 97.699365 256.539328 
L 98.306437 245.970769 
L 98.508794 245.591061 
L 99.52058 224.242993 
L 99.722937 225.50869 
L 99.925295 229.896435 
L 100.127652 228.061176 
L 100.330009 238.27112 
L 100.937081 292.928079 
L 101.341795 305.26861 
L 101.544152 306.260075 
L 101.74651 302.52627 
L 101.948867 290.502161 
L 102.353581 260.294224 
L 102.555938 258.733202 
L 103.567724 240.844702 
L 104.377153 218.610648 
L 104.57951 219.897439 
L 104.781868 225.318835 
L 104.984225 225.29774 
L 105.186582 234.24199 
L 105.793654 289.76384 
L 106.198368 302.589553 
L 106.400725 304.361528 
L 106.603083 300.311301 
L 107.412511 254.113412 
L 107.614869 252.383629 
L 107.817226 248.692015 
L 108.22194 234.073231 
L 108.626655 212.23998 
L 108.829012 206.270116 
L 109.031369 204.371572 
L 109.638441 213.104872 
L 109.840798 218.568458 
L 110.043155 229.031543 
L 110.650227 284.405725 
L 111.054941 298.750282 
L 111.257298 300.669917 
L 111.459655 298.919036 
L 111.662013 287.443399 
L 112.066727 258.015972 
L 112.471442 242.933099 
L 113.887942 174.121445 
L 114.090299 171.737718 
L 114.292656 178.593572 
L 114.495014 190.090306 
L 114.697371 194.710095 
L 115.102085 228.926068 
L 115.709157 278.58353 
L 116.113871 292.611651 
L 116.316228 292.780412 
L 116.518586 291.113915 
L 116.720943 287.464493 
L 117.125657 260.06218 
L 118.542158 154.777398 
L 118.744515 144.609644 
L 118.946872 140.707078 
L 119.149229 144.398695 
L 119.756301 182.496132 
L 120.56573 262.319338 
L 120.970444 282.254046 
L 121.172801 286.367556 
L 121.375159 288.012959 
L 121.577516 286.557411 
L 121.779873 278.58353 
L 122.589302 227.280664 
L 123.196374 201.671421 
L 123.398731 197.072727 
L 123.601088 197.283676 
L 123.803445 196.714113 
L 124.410517 210.193772 
L 124.612874 221.226419 
L 125.219946 277.845202 
L 125.62466 292.463991 
L 125.827017 294.46801 
L 126.029374 291.915519 
L 127.04116 235.191261 
L 127.648232 197.55791 
L 128.255304 154.925061 
L 128.457661 147.33089 
L 128.660018 146.993368 
L 129.26709 191.588046 
L 130.278876 282.971272 
L 130.481233 290.839683 
L 130.68359 292.231947 
L 130.885947 289.637267 
L 132.504805 180.070217 
L 133.111877 137.142039 
L 133.314234 127.670415 
L 133.516591 129.379107 
L 133.921306 144.841689 
L 134.123663 152.309294 
L 135.135449 262.846709 
L 135.540163 275.545856 
L 135.74252 274.596585 
L 135.944878 263.943646 
L 136.349592 232.343446 
L 136.551949 225.529784 
L 136.754306 213.590055 
L 136.956664 218.188749 
L 137.159021 206.818584 
L 137.766092 197.937619 
L 137.96845 198.338423 
L 138.373164 192.895931 
L 138.777879 200.490105 
L 138.980236 201.333903 
L 139.182593 213.210347 
L 139.789665 270.187748 
L 140.194379 285.65033 
L 140.396736 287.738726 
L 140.599093 284.701059 
L 141.003808 254.303267 
L 141.408522 232.997389 
L 142.015594 219.51773 
L 142.622665 210.320342 
L 142.825023 210.046108 
L 143.02738 208.822602 
L 143.229737 209.518734 
L 143.634451 214.834656 
L 143.836809 213.590055 
L 144.039166 223.84219 
L 144.646238 273.499648 
L 145.050952 285.671424 
L 145.253309 286.979311 
L 145.455666 283.815071 
L 145.860381 253.965749 
L 146.062738 237.40623 
L 146.66981 220.825615 
L 146.872167 218.125465 
L 147.074524 217.028529 
L 147.479238 205.848217 
L 147.681596 214.370568 
L 147.883953 215.362029 
L 148.08631 217.998895 
L 148.491024 227.386138 
L 148.693382 226.014968 
L 149.098096 249.831141 
L 149.502811 278.203819 
L 149.907525 291.430337 
L 150.109882 293.518733 
L 150.312239 292.928079 
L 150.514597 290.059167 
L 150.716954 284.258065 
L 151.121668 263.036565 
L 151.526383 242.194778 
L 151.931097 236.288198 
L 152.133454 235.845204 
L 152.335811 237.849224 
L 152.538169 238.376595 
L 152.740526 236.288198 
L 152.942883 236.583525 
L 153.14524 235.592066 
L 153.347597 235.634255 
L 153.549955 232.659871 
L 153.752312 234.895932 
L 154.764098 287.253544 
L 154.966455 291.282676 
L 155.168812 292.696035 
L 155.573527 288.687997 
L 155.775884 277.423309 
L 156.78767 198.127474 
L 157.799456 154.7563 
L 158.001813 156.802511 
L 158.406528 170.239979 
L 158.608885 184.036062 
L 159.215956 253.881368 
L 159.620671 275.862284 
L 159.823028 279.131995 
L 160.025385 278.203819 
L 160.227743 268.225918 
L 160.632457 235.191261 
L 161.8466 183.993871 
L 162.251315 173.762832 
L 162.453672 173.910495 
L 162.656029 176.821597 
L 163.465458 209.20231 
L 164.072529 270.124459 
L 164.477244 289.067707 
L 164.679601 289.405223 
L 164.881958 286.114418 
L 165.084316 275.7779 
L 165.48903 243.439379 
L 166.500816 207.725665 
L 167.310245 164.038069 
L 167.512602 167.455447 
L 167.917316 188.402712 
L 168.119674 192.938121 
L 168.322031 204.498142 
L 168.929102 264.977301 
L 169.333817 280.439882 
L 169.536174 284.026021 
L 169.738531 280.292215 
L 170.143246 252.510198 
L 170.54796 221.648317 
L 171.357389 176.273128 
L 171.559746 170.134504 
L 172.166818 145.495626 
L 172.369175 147.141035 
L 172.571532 155.199294 
L 173.178604 194.878854 
L 173.785675 267.255553 
L 174.19039 287.000405 
L 174.392747 290.038072 
L 174.595104 288.18172 
L 174.999819 263.542841 
L 175.404533 238.081268 
L 177.023391 158.405725 
L 177.225748 158.933097 
L 177.428105 162.920038 
L 177.630462 179.817075 
L 177.83282 182.306278 
L 178.237534 227.238473 
L 178.642248 270.947163 
L 179.046963 290.502161 
L 179.24932 294.299249 
L 179.451677 291.72567 
L 179.654034 282.865801 
L 180.261106 242.258061 
L 181.879964 143.449418 
L 182.082321 140.116424 
L 182.284678 145.896431 
L 183.094107 203.316826 
L 183.498821 243.080765 
L 183.903536 264.956206 
L 184.30825 272.951183 
L 184.510607 274.343447 
L 184.712965 270.630742 
L 184.915322 256.982321 
L 185.724751 173.340932 
L 186.129465 151.528778 
L 186.331822 145.347965 
L 186.53418 144.567449 
L 186.736537 147.162129 
L 187.748323 188.423806 
L 188.557752 253.923557 
L 188.962466 268.394679 
L 189.164823 270.483075 
L 189.36718 270.567453 
L 189.569538 269.808037 
L 189.771895 258.796485 
L 190.986038 160.810547 
L 191.188395 155.389149 
L 191.390752 155.346961 
L 191.795467 164.692013 
L 192.604896 196.671923 
L 193.414325 261.370067 
L 193.819039 275.377101 
L 194.021396 276.474032 
L 194.426111 272.423812 
L 194.628468 263.268609 
L 195.437897 201.017478 
L 195.640254 195.891411 
L 195.842611 197.136012 
L 196.247325 203.33792 
L 196.449683 203.928579 
L 196.65204 203.527775 
L 197.056754 211.923556 
L 197.259112 212.788448 
L 197.461469 221.395178 
L 198.06854 270.841692 
L 198.473255 285.355002 
L 198.675612 285.460474 
L 198.877969 281.726675 
L 199.282684 250.231946 
L 199.687398 226.87986 
L 201.306256 158.933097 
L 201.508613 157.751782 
L 202.115684 177.39116 
L 202.318042 188.803515 
L 202.925113 254.36655 
L 203.329828 272.423812 
L 203.532185 274.575491 
L 203.734542 271.51673 
L 203.936899 259.724661 
L 204.341614 224.939127 
L 205.758114 168.995378 
L 205.960471 166.442894 
L 206.162829 166.590557 
L 206.365186 168.046108 
L 206.7699 180.175688 
L 206.972257 183.445404 
L 207.174615 194.541336 
L 207.781686 254.978302 
L 208.186401 271.51673 
L 208.388758 274.638774 
L 208.591115 271.221396 
L 208.793472 259.070718 
L 209.198187 224.475037 
L 209.805258 201.671421 
L 210.209973 181.314818 
L 210.817044 138.639775 
L 211.019402 129.948667 
L 211.221759 132.986334 
L 211.626473 158.047112 
L 211.82883 163.384129 
L 212.031188 178.466999 
L 212.638259 245.063687 
L 213.042974 264.091313 
L 213.245331 268.183729 
L 213.447688 266.432848 
L 213.650045 255.463488 
L 214.257117 211.164139 
L 214.661831 184.183727 
L 215.47126 123.409238 
L 215.875975 106.28016 
L 216.078332 105.794977 
L 216.280689 111.469513 
L 217.090118 176.779408 
L 217.697189 240.190759 
L 218.101904 259.091815 
L 218.304261 262.530288 
L 218.506618 263.922552 
L 218.708976 262.635759 
L 218.911333 249.599097 
L 219.518404 193.486588 
L 220.125476 157.435357 
L 220.327833 155.220392 
L 220.53019 157.498644 
L 221.541976 200.827624 
L 221.744334 206.101356 
L 222.553762 264.365546 
L 222.958477 275.503667 
L 223.160834 277.254548 
L 223.363191 277.613158 
L 223.565549 276.009944 
L 223.767906 267.086792 
L 224.374977 227.955701 
L 224.779692 220.192768 
L 225.386763 222.30226 
L 225.589121 225.909494 
L 225.791478 226.816575 
L 226.196192 235.402211 
L 226.398549 235.043597 
L 226.600907 241.625215 
L 227.410335 296.535313 
L 227.612693 300.669917 
L 227.81505 302.399704 
L 228.017407 299.129986 
L 228.826836 255.505676 
L 229.029193 253.12195 
L 229.23155 247.236464 
L 230.648051 182.285182 
L 230.850408 182.875841 
L 231.255122 197.64229 
L 231.45748 208.801507 
L 232.064551 274.027026 
L 232.469266 291.620192 
L 232.671623 294.404721 
L 232.87398 293.160123 
L 233.278694 267.255553 
L 233.683409 244.1777 
L 235.302267 178.024009 
L 235.504624 177.412254 
L 236.111695 196.988347 
L 236.314053 207.599096 
L 236.921124 271.24249 
L 237.325839 287.506682 
L 237.528196 290.71311 
L 237.730553 288.540336 
L 238.135267 264.006929 
L 238.539982 241.688498 
L 239.349411 210.003918 
L 239.754125 199.751783 
L 240.15884 189.288699 
L 240.361197 189.035559 
L 240.563554 194.625716 
L 240.968268 212.661878 
L 241.170626 220.424812 
L 241.777697 277.317831 
L 242.182412 293.560928 
L 242.384769 296.113413 
L 242.587126 293.054645 
L 242.99184 267.740735 
L 243.396555 249.345958 
L 245.21777 172.876844 
L 245.420127 177.222399 
L 246.027199 204.666901 
L 246.836627 279.933605 
L 247.038985 288.498141 
L 247.241342 291.746765 
L 247.443699 289.152085 
L 247.848413 265.019489 
L 249.467271 150.305274 
L 249.669628 142.036059 
L 249.871985 140.053141 
L 250.074343 140.221895 
L 250.2767 147.33089 
L 250.883772 180.21788 
L 251.6932 257.003416 
L 252.097915 271.87534 
L 252.300272 275.018485 
L 252.502629 275.292718 
L 252.704986 271.326874 
L 253.109701 237.785937 
L 253.91913 162.814566 
L 254.323844 146.634758 
L 254.728558 137.606127 
L 254.930916 136.319335 
L 255.133273 143.99789 
L 255.740345 182.369563 
L 256.549773 259.387142 
L 256.954488 275.229435 
L 257.156845 279.131995 
L 257.359202 280.840687 
L 257.561559 279.849222 
L 257.966274 250.274135 
L 258.573345 198.675942 
L 258.97806 176.484078 
L 259.382774 165.198293 
L 259.585131 161.67544 
L 259.787489 161.232446 
L 259.989846 163.9115 
L 260.39456 180.281163 
L 260.596917 193.950678 
L 261.203989 257.425315 
L 261.608704 276.57951 
L 261.811061 279.574989 
L 262.013418 278.773385 
L 262.418132 254.239981 
L 262.62049 241.941639 
L 263.025204 232.048117 
L 263.227561 229.179206 
L 263.429918 228.145555 
L 263.834633 229.453441 
L 264.03699 229.137018 
L 264.239347 230.107384 
L 264.441704 230.191763 
L 264.644062 229.917529 
L 264.846419 232.005927 
L 265.048776 236.140535 
L 265.251133 236.140535 
L 265.45349 240.254045 
L 266.060562 283.730688 
L 266.465277 296.872828 
L 266.667634 298.454948 
L 266.869991 294.172677 
L 267.072348 286.030034 
L 267.477063 258.90196 
L 268.084134 236.203818 
L 268.488849 225.67745 
L 269.09592 214.159618 
L 269.500635 210.109392 
L 269.702992 212.345455 
L 269.905349 216.037067 
L 270.107706 216.7332 
L 270.310063 223.188248 
L 270.917135 273.204321 
L 271.32185 285.460474 
L 271.524207 287.654349 
L 271.726564 285.903468 
L 274.15485 140.960222 
L 274.357208 133.619183 
L 274.559565 137.036561 
L 275.166636 162.793468 
L 275.976065 246.308288 
L 276.38078 259.176193 
L 276.583137 258.458966 
L 276.987851 236.098343 
L 277.392566 206.50216 
L 278.404352 148.195777 
L 278.606709 145.073733 
L 279.011423 131.530787 
L 279.213781 129.885384 
L 279.416138 134.252033 
L 280.023209 176.96926 
L 280.630281 250.020996 
L 281.034995 273.351988 
L 281.237353 278.351485 
L 281.43971 276.769366 
L 281.642067 270.736214 
L 282.249139 227.976796 
L 282.85621 193.528779 
L 283.867996 149.714614 
L 284.070354 148.491111 
L 284.272711 156.8447 
L 285.284497 241.920542 
L 285.689211 274.870818 
L 286.093926 289.974789 
L 286.296283 292.316324 
L 286.49864 290.459972 
L 286.700997 287.443399 
L 287.105712 255.674437 
L 287.712783 202.873832 
L 288.522212 158.384631 
L 288.724569 151.085784 
L 288.926927 149.102859 
L 289.129284 152.773382 
L 289.736355 187.411249 
L 290.545784 259.19729 
L 290.950499 274.849724 
L 291.152856 277.697542 
L 291.355213 277.781919 
L 291.55757 276.263083 
L 291.759927 263.479558 
L 292.771714 162.392666 
L 293.176428 139.863285 
L 293.581142 128.345453 
L 293.7835 126.573478 
L 293.985857 130.180711 
L 294.592928 156.33842 
L 295.402357 241.667404 
L 295.807072 256.729183 
L 296.009429 256.560422 
L 296.414143 235.760824 
L 297.830644 97.293718 
L 298.235358 83.6453 
L 298.437715 80.987338 
L 298.640073 81.261577 
L 298.84243 83.371061 
L 299.044787 91.619189 
L 299.449501 119.295728 
L 300.056573 200.363535 
L 300.461287 226.268107 
L 300.663645 232.448921 
L 300.866002 233.187243 
L 301.068359 226.183728 
L 301.473073 195.342943 
L 302.484859 87.273628 
L 302.687217 75.650318 
L 302.889574 75.755802 
L 303.091931 84.0672 
L 303.496646 92.94817 
L 303.90136 115.793973 
L 304.306074 144.483072 
L 304.913146 215.551884 
L 305.31786 241.583023 
L 305.520218 247.29975 
L 305.722575 245.464492 
L 305.924932 238.144551 
L 306.532004 197.114917 
L 307.54379 125.223402 
L 307.746147 114.739224 
L 307.948504 113.832142 
L 308.757933 146.972274 
L 309.162647 173.741738 
L 309.769719 238.439881 
L 310.174433 258.859771 
L 310.376791 263.374087 
L 310.579148 262.783426 
L 310.983862 238.735208 
L 312.198005 131.889403 
L 312.60272 119.949672 
L 312.805077 115.456451 
L 313.007434 116.026017 
L 313.209791 119.823099 
L 313.816863 148.153588 
L 314.01922 162.202811 
L 314.626292 226.479057 
L 315.031006 247.531795 
L 315.233364 252.235962 
L 315.435721 251.560924 
L 315.840435 232.280161 
L 316.24515 213.062682 
L 316.649864 200.72215 
L 317.054578 185.006428 
L 317.66165 177.285685 
L 317.864007 176.821597 
L 318.066364 175.89342 
L 318.268722 180.703063 
L 318.875793 203.443395 
L 319.685222 263.627225 
L 320.089937 276.748271 
L 320.292294 278.435863 
L 320.697008 270.29322 
L 321.101723 243.354998 
L 322.315866 163.320843 
L 322.72058 152.794476 
L 322.922937 150.410746 
L 323.125295 154.650829 
L 323.732366 183.023505 
L 324.541795 253.41728 
L 324.94651 268.099352 
L 325.148867 271.073736 
L 325.351224 271.137019 
L 325.553581 268.816578 
L 325.755938 256.15962 
L 326.970082 140.707078 
L 327.172439 134.209844 
L 327.374796 132.585535 
L 327.77951 126.868805 
L 327.981868 131.994875 
L 328.184225 141.023505 
L 328.791296 194.077247 
L 329.196011 238.98835 
L 329.398368 254.640783 
L 329.803083 265.019489 
L 330.00544 264.049124 
L 330.207797 258.290208 
L 330.814869 208.463988 
L 331.42194 169.206328 
L 331.826655 145.917525 
L 332.029012 142.943141 
L 332.231369 142.964235 
L 332.433726 143.154091 
L 332.636083 145.305777 
L 332.838441 149.967752 
L 333.243155 173.509694 
L 333.445512 182.770367 
L 334.052584 250.274135 
L 334.457298 272.655856 
L 334.659655 278.224913 
L 334.862013 275.756806 
L 335.266727 255.379107 
L 335.671442 230.360523 
L 336.48087 189.162129 
L 336.683228 183.951683 
L 336.885585 182.812555 
L 337.087942 176.462983 
L 337.290299 174.564439 
L 337.695014 181.209343 
L 338.099728 196.060171 
L 338.302085 202.09332 
L 339.111514 269.702566 
L 339.313871 276.073234 
L 339.516228 278.37258 
L 339.718586 274.19578 
L 340.1233 250.210848 
L 340.932729 204.540331 
L 342.349229 141.107883 
L 342.551587 141.023505 
L 343.158658 166.379607 
L 343.76573 230.845707 
L 344.170444 249.345958 
L 344.372801 254.239981 
L 344.575159 252.04611 
L 344.777516 244.937118 
L 345.18223 213.210347 
L 346.194016 128.324359 
L 346.598731 113.157104 
L 347.003445 106.364537 
L 347.205802 105.499644 
L 347.40816 108.769361 
L 347.610517 116.827621 
L 348.015231 143.639273 
L 348.82466 237.237469 
L 349.229374 254.809544 
L 349.431732 254.029032 
L 349.634089 248.080263 
L 349.836446 236.646811 
L 351.050589 129.379107 
L 351.455304 110.520236 
L 351.860018 101.428322 
L 352.062375 100.500146 
L 352.264733 104.233952 
L 352.46709 115.625212 
L 353.276519 200.975289 
L 353.681233 239.93762 
L 354.085947 260.673935 
L 354.288305 266.095332 
L 354.490662 266.685987 
L 354.693019 264.38664 
L 355.097733 221.205325 
L 355.704805 145.36906 
L 356.109519 119.99186 
L 356.716591 101.301756 
L 356.918948 100.183718 
L 357.121306 105.119939 
L 357.52602 131.446409 
L 357.728377 144.483072 
L 358.740163 242.574485 
L 359.144878 255.906482 
L 359.347235 257.82612 
L 359.549592 257.488601 
L 359.751949 243.10186 
L 360.763735 119.169162 
L 361.16845 99.57197 
L 361.573164 88.159616 
L 361.775521 85.796986 
L 361.977879 89.172169 
L 362.180236 96.365542 
L 362.58495 122.860773 
L 363.394379 214.054144 
L 363.799093 232.195781 
L 364.001451 233.039578 
L 364.203808 226.985335 
L 364.406165 216.64882 
L 365.013237 145.137016 
L 365.620308 78.772369 
L 366.025023 62.149573 
L 366.429737 55.8 
L 366.632094 56.306277 
L 366.834451 59.027523 
L 367.036809 67.99287 
L 367.441523 98.010951 
L 368.048595 179.901456 
L 368.453309 211.290708 
L 368.655666 220.066199 
L 368.858024 222.51321 
L 369.060381 218.505174 
L 369.262738 208.358513 
L 369.86981 143.00643 
L 370.476881 83.160118 
L 370.881596 66.052127 
L 371.083953 65.588039 
L 371.28631 66.326367 
L 371.488667 70.376594 
L 371.691024 76.78945 
L 372.298096 116.912004 
L 373.107525 204.413762 
L 373.512239 227.301758 
L 373.714597 231.794977 
L 374.119311 231.077751 
L 374.321668 217.956705 
L 375.333454 111.047613 
L 375.738169 97.39919 
L 375.940526 94.614661 
L 376.142883 93.475541 
L 376.34524 98.812548 
L 376.749955 125.835157 
L 377.559383 186.504167 
L 377.964098 222.196785 
L 378.368812 236.414767 
L 378.57117 236.646811 
L 378.773527 230.529282 
L 378.975884 218.969262 
L 380.392384 98.791454 
L 380.797099 88.560421 
L 381.201813 80.734206 
L 381.40417 84.615665 
L 382.011242 122.776389 
L 382.820671 208.189754 
L 383.225385 224.791462 
L 383.427743 225.4665 
L 383.6301 219.960724 
L 384.034814 197.030537 
L 385.0466 121.320842 
L 385.451315 104.107379 
L 385.653672 103.622197 
L 385.856029 107.524757 
L 386.058386 115.393168 
L 387.070172 187.558915 
L 387.474887 228.926068 
L 387.879601 251.497641 
L 388.284316 260.927074 
L 388.68903 263.521747 
L 388.891387 257.594073 
L 389.700816 212.682974 
L 390.307888 201.122953 
L 390.914959 187.980812 
L 391.117316 192.917026 
L 391.926745 233.735712 
L 392.533817 279.32185 
L 392.938531 292.08428 
L 393.140888 294.003922 
L 393.343246 293.539834 
L 393.545603 294.025017 
L 393.74796 284.785436 
L 394.355032 242.321347 
L 395.569175 184.057156 
L 395.771532 177.855248 
L 395.973889 179.099849 
L 396.176247 187.685484 
L 396.783318 231.056655 
L 397.188033 270.799497 
L 397.592747 289.194273 
L 397.795104 292.063186 
L 397.997461 289.447418 
L 398.402176 270.736214 
L 400.628105 139.061675 
L 400.830462 141.99387 
L 401.03282 152.267099 
L 401.639891 211.121949 
L 402.044606 256.876846 
L 402.44932 277.845202 
L 402.651677 281.979813 
L 402.854034 280.271121 
L 403.258749 261.496637 
L 403.663463 232.174686 
L 404.877607 122.755295 
L 405.282321 101.575989 
L 405.484678 97.230435 
L 405.687035 98.34846 
L 405.889393 109.191261 
L 406.294107 147.752783 
L 406.901179 227.639277 
L 407.305893 252.468006 
L 407.50825 258.248017 
L 407.710607 257.699548 
L 408.115322 235.781918 
L 409.73418 99.276636 
L 409.936537 94.192761 
L 410.138894 94.045101 
L 410.341251 98.791454 
L 410.948323 136.045102 
L 411.15068 152.456954 
L 411.757752 225.29774 
L 412.162466 250.126471 
L 412.364823 256.813563 
L 412.56718 258.648822 
L 412.971895 240.022001 
L 414.388395 138.808536 
L 414.79311 124.843698 
L 415.197824 117.966747 
L 415.400181 124.949169 
L 416.20961 189.478553 
L 416.614325 236.140535 
L 417.019039 259.935611 
L 417.221396 264.323357 
L 417.423753 263.753791 
L 417.828468 247.088801 
L 419.244968 146.276142 
L 419.649683 132.248013 
L 419.85204 128.303264 
L 420.054397 129.779906 
L 420.256754 138.703065 
L 421.066183 205.974786 
L 421.673255 262.720143 
L 422.077969 279.279662 
L 422.280326 281.832146 
L 422.482684 281.157109 
L 422.685041 280.988348 
L 423.089755 249.324864 
L 423.899184 178.234955 
L 424.708613 137.774882 
L 424.91097 134.505171 
L 425.113327 138.618681 
L 425.518042 165.49362 
L 425.720399 177.623204 
L 426.529828 254.345456 
L 426.934542 273.436365 
L 427.136899 278.035058 
L 427.339257 278.857762 
L 427.541614 279.089806 
L 427.743971 270.251031 
L 428.148685 228.778403 
L 428.755757 165.177195 
L 429.160471 138.829631 
L 429.565186 130.349472 
L 429.9699 134.378605 
L 430.374615 151.043595 
L 430.576972 163.004418 
L 431.386401 241.076746 
L 431.791115 253.649324 
L 431.993472 251.560924 
L 432.398187 230.698042 
L 433.207616 163.827119 
L 434.017044 91.534799 
L 434.219402 86.514206 
L 435.02883 114.675941 
L 435.433545 140.348468 
L 436.040617 213.484581 
L 436.445331 236.625717 
L 436.647688 241.899448 
L 436.850045 241.203315 
L 437.25476 220.045103 
L 437.659474 184.183727 
L 438.468903 108.727173 
L 438.67126 98.728171 
L 438.873617 99.71963 
L 439.075975 107.018481 
L 439.278332 106.554392 
L 439.480689 108.853739 
L 439.885403 127.902459 
L 440.290118 153.321847 
L 440.897189 228.715118 
L 441.301904 251.62421 
L 441.504261 257.193271 
L 441.706618 257.74174 
L 442.111333 242.616677 
L 442.920762 189.204319 
L 443.527833 153.406225 
L 444.134905 130.054139 
L 444.337262 127.396182 
L 444.539619 133.9778 
L 445.146691 180.238975 
L 445.753762 251.265597 
L 446.158477 273.03556 
L 446.360834 278.119441 
L 446.563191 276.073234 
L 446.967906 256.665897 
L 448.586763 143.955701 
L 448.991478 130.412755 
L 449.193835 128.029032 
L 449.396192 134.863787 
L 450.003264 176.315317 
L 450.812693 258.480061 
L 451.217407 272.128478 
L 451.419764 272.25505 
L 451.824479 254.619689 
L 452.43155 202.873832 
L 453.038622 159.861276 
L 453.443336 142.373581 
L 453.848051 134.294221 
L 454.050408 137.753788 
L 454.252765 148.005928 
L 454.65748 177.159116 
L 454.859837 185.829131 
L 455.669266 252.257056 
L 456.07398 266.158615 
L 456.276337 267.719641 
L 456.478694 265.673433 
L 456.681052 262.488099 
L 456.883409 254.28217 
L 457.288123 226.563435 
L 457.692838 215.319839 
L 457.895195 216.037067 
L 458.299909 221.943647 
L 458.502267 221.795983 
L 458.906981 217.872325 
L 459.109338 218.420794 
L 459.514053 222.681969 
L 459.71641 227.09081 
L 460.728196 286.304273 
L 461.13291 290.839683 
L 461.537625 287.443399 
L 461.739982 278.288196 
L 462.144696 242.89091 
L 463.561197 171.927574 
L 463.763554 164.481063 
L 463.965911 165.683475 
L 464.572983 185.660372 
L 465.382412 254.36655 
L 465.584769 261.454445 
L 465.787126 264.23898 
L 465.989483 261.749775 
L 467.608341 166.822601 
L 468.620127 145.094827 
L 468.822484 148.301255 
L 469.429556 175.218382 
L 470.036627 233.398193 
L 470.441342 251.645305 
L 470.643699 254.345456 
L 470.846056 251.708591 
L 471.857842 199.477549 
L 472.869628 168.44691 
L 473.071985 168.95319 
L 473.274343 167.117928 
L 473.4767 168.404721 
L 473.679057 172.286187 
L 473.881414 179.036562 
L 474.083772 180.21788 
L 474.286129 188.086287 
L 474.8932 241.540834 
L 475.297915 258.205828 
L 475.500272 259.914517 
L 475.702629 257.82612 
L 476.107344 232.82863 
L 476.512058 210.257057 
L 477.321487 177.960723 
L 477.726201 157.287694 
L 477.928558 153.638269 
L 478.333273 158.447914 
L 478.53563 163.025512 
L 479.142702 188.592566 
L 479.952131 258.100353 
L 480.356845 268.204823 
L 480.559202 267.782924 
L 480.963917 245.126973 
L 482.785131 113.452431 
L 482.987489 107.398191 
L 483.189846 104.69804 
L 483.392203 110.478047 
L 483.999275 151.360017 
L 484.606346 224.285184 
L 485.011061 248.101358 
L 485.213418 252.615673 
L 485.415775 253.586038 
L 485.82049 233.313812 
L 486.225204 201.312808 
L 487.23699 109.043594 
L 487.439347 105.879355 
L 487.844062 112.608639 
L 488.248776 131.699548 
L 489.260562 211.206329 
L 489.665277 244.1777 
L 490.069991 259.661378 
L 490.272348 262.0662 
L 490.474705 260.905979 
L 490.677063 259.091815 
L 490.87942 249.113914 
L 491.891206 167.37107 
L 492.29592 149.208337 
L 492.498277 141.635254 
L 492.700635 139.567952 
L 492.902992 141.234455 
L 493.105349 146.170664 
L 493.712421 180.534305 
L 494.52185 254.345456 
L 495.128921 273.077749 
L 495.331278 273.225415 
L 495.533636 272.592566 
L 495.735993 264.850728 
L 496.950136 171.041586 
L 497.557208 146.065192 
L 497.759565 142.62672 
L 497.961922 145.917525 
L 498.568994 178.213861 
L 499.378422 253.881368 
L 499.58078 260.884882 
L 499.783137 263.43737 
L 499.985494 260.041086 
L 500.187851 251.307786 
L 500.794923 213.463486 
L 500.99728 208.231944 
L 501.401995 194.81557 
L 501.806709 183.276645 
L 502.009066 182.812555 
L 502.211423 184.922049 
L 502.413781 185.575991 
L 502.616138 183.867302 
L 503.020852 193.824107 
L 503.223209 194.39367 
L 503.425567 202.09332 
L 504.032638 254.050126 
L 504.437353 267.445408 
L 504.63971 269.111905 
L 504.842067 266.685987 
L 505.246782 241.709595 
L 505.651496 217.302762 
L 507.270354 142.331392 
L 507.472711 139.146059 
L 507.675068 142.62672 
L 508.28214 171.358011 
L 508.889211 230.824611 
L 509.293926 248.37559 
L 509.496283 251.982824 
L 509.69864 250.105377 
L 510.103354 225.972778 
L 511.722212 116.954193 
L 512.126927 98.749265 
L 512.329284 100.37358 
L 512.936355 135.602108 
L 513.34107 175.51371 
L 513.745784 220.066199 
L 514.150499 243.354998 
L 514.352856 249.071722 
L 514.555213 249.578002 
L 514.75757 240.464995 
L 516.174071 141.297738 
L 516.376428 140.179707 
L 516.781142 149.735708 
L 516.9835 146.930085 
L 517.185857 147.478551 
L 517.590571 165.620189 
L 517.792928 169.965746 
L 517.995286 180.935107 
L 518.4 221.585033 
L 518.4 221.585033 
" clip-path="url(#p90db6de7bd)" style="fill: none; stroke: #1f77b4; stroke-width: 1.5; stroke-linecap: square"/>
   </g>
   <g id="line2d_14">
    <path d="M 72 282.126391 
L 72.202357 282.125667 
L 72.404714 293.856441 
L 72.607072 295.459085 
L 72.809429 289.299989 
L 73.4165 243.145442 
L 73.618858 243.9264 
L 74.023572 219.006756 
L 75.035358 155.474616 
L 75.237715 151.751864 
L 75.440073 154.442705 
L 75.844787 177.92704 
L 76.047144 179.934308 
L 76.654216 259.904261 
L 76.856573 273.100624 
L 77.05893 278.893402 
L 77.261287 291.194057 
L 77.666002 280.677161 
L 78.070716 241.728953 
L 78.475431 236.391853 
L 78.880145 216.484774 
L 79.284859 181.479679 
L 79.689574 155.986734 
L 80.094288 146.411345 
L 80.296646 156.491815 
L 80.70136 182.94418 
L 80.903717 193.248396 
L 81.510789 257.647402 
L 81.915503 283.087817 
L 82.11786 284.109559 
L 82.320218 289.2045 
L 82.927289 278.955513 
L 83.129646 269.271894 
L 83.332004 249.695492 
L 83.534361 249.456566 
L 83.939075 233.386313 
L 84.34379 237.472906 
L 84.546147 244.260885 
L 84.748504 245.862273 
L 84.950861 249.206689 
L 85.153218 246.072479 
L 85.355576 251.174162 
L 85.557933 251.438818 
L 85.76029 242.096336 
L 86.367362 287.517466 
L 86.569719 299.261153 
L 86.974433 304.668241 
L 87.176791 300.505449 
L 87.379148 299.634161 
L 87.581505 297.109428 
L 87.783862 292.794356 
L 87.986219 285.015661 
L 88.188577 268.211013 
L 88.593291 261.127374 
L 88.795648 261.866758 
L 88.998005 258.41984 
L 89.200363 260.50495 
L 89.807434 241.394651 
L 90.009791 232.096371 
L 90.212149 237.670117 
L 90.616863 232.002786 
L 91.426292 303.754886 
L 91.831006 303.350416 
L 92.235721 293.000916 
L 92.640435 253.677076 
L 92.842792 250.789555 
L 93.04515 252.967763 
L 93.247507 250.20018 
L 93.652221 241.458674 
L 93.854578 243.522846 
L 94.056936 237.079566 
L 94.259293 240.4849 
L 94.46165 235.430703 
L 94.664007 225.34666 
L 95.271079 235.448824 
L 95.473436 225.135812 
L 95.87815 277.557206 
L 96.282865 305.487633 
L 96.485222 302.117846 
L 96.687579 301.253177 
L 96.889937 299.07809 
L 97.092294 289.511265 
L 97.497008 253.705991 
L 97.699365 250.061823 
L 97.901723 252.125355 
L 98.10408 246.569061 
L 98.306437 245.003134 
L 98.508794 241.25674 
L 98.711151 243.267635 
L 98.913509 233.944781 
L 99.115866 234.608714 
L 99.52058 220.125219 
L 99.722937 221.331812 
L 99.925295 225.280515 
L 100.127652 232.612977 
L 100.330009 224.486517 
L 100.937081 289.482148 
L 101.139438 303.045881 
L 101.341795 303.011035 
L 101.544152 302.44484 
L 101.74651 297.913192 
L 101.948867 290.835268 
L 102.353581 251.346191 
L 102.758296 254.562336 
L 103.16301 245.826668 
L 103.365367 246.627356 
L 104.377153 214.639467 
L 104.57951 215.160229 
L 104.781868 220.265203 
L 104.984225 228.673713 
L 105.186582 224.446372 
L 105.996011 299.976457 
L 106.198368 301.546056 
L 106.400725 300.382779 
L 106.603083 296.850235 
L 106.80544 288.316424 
L 107.210154 252.971793 
L 107.412511 248.069905 
L 107.614869 249.441139 
L 107.817226 247.931248 
L 108.019583 243.439392 
L 108.22194 236.196343 
L 108.829012 202.094871 
L 109.031369 199.844401 
L 109.233726 201.28543 
L 109.436083 208.420946 
L 109.638441 209.042413 
L 110.245512 240.512255 
L 110.650227 283.878406 
L 110.852584 294.228668 
L 111.054941 298.541504 
L 111.257298 297.528886 
L 111.662013 289.071603 
L 112.066727 252.495486 
L 112.471442 243.571 
L 114.090299 166.726084 
L 114.292656 169.688685 
L 114.697371 200.237561 
L 114.899728 202.543177 
L 115.304442 248.397832 
L 115.709157 280.780089 
L 116.316228 291.575588 
L 116.720943 283.196749 
L 116.9233 279.168301 
L 118.137443 180.104053 
L 118.744515 144.500764 
L 118.946872 136.366355 
L 119.149229 136.030351 
L 119.351587 148.21798 
L 120.56573 265.022924 
L 120.768087 271.936085 
L 120.970444 283.785987 
L 121.172801 284.197217 
L 121.375159 285.392142 
L 121.577516 283.069202 
L 121.779873 279.129124 
L 121.98223 267.51326 
L 122.386945 235.360273 
L 123.398731 193.813036 
L 123.601088 191.548696 
L 123.803445 197.047169 
L 124.005802 195.338143 
L 124.410517 213.432961 
L 124.612874 214.70686 
L 125.219946 278.570964 
L 125.62466 294.544993 
L 126.029374 288.976878 
L 126.231732 282.531258 
L 126.636446 246.100318 
L 126.838803 241.19785 
L 127.445875 213.074624 
L 128.457661 142.463629 
L 128.660018 140.291624 
L 128.862375 147.393955 
L 130.076519 273.38939 
L 130.481233 288.582 
L 130.68359 292.975849 
L 131.088305 280.737676 
L 131.493019 242.989961 
L 132.100091 212.351999 
L 132.707162 164.766166 
L 133.111877 135.585903 
L 133.516591 119.513656 
L 134.32602 164.721431 
L 134.730734 232.994434 
L 135.135449 267.675415 
L 135.337806 270.118474 
L 135.540163 277.66071 
L 135.74252 274.603557 
L 135.944878 268.50709 
L 136.349592 231.209831 
L 136.551949 222.055906 
L 136.754306 219.219197 
L 136.956664 200.871878 
L 137.159021 222.180487 
L 137.361378 193.159251 
L 137.563735 199.829445 
L 137.766092 197.678566 
L 137.96845 193.011418 
L 138.170807 201.214542 
L 138.373164 190.728588 
L 138.980236 206.915294 
L 139.182593 203.293507 
L 139.789665 271.547807 
L 140.194379 288.013382 
L 140.396736 287.133142 
L 140.599093 283.514131 
L 140.801451 275.380843 
L 141.206165 237.357755 
L 141.610879 226.05524 
L 142.015594 214.948087 
L 142.217951 216.632635 
L 142.622665 209.537276 
L 142.825023 207.347174 
L 143.02738 209.646801 
L 143.229737 207.048702 
L 143.432094 211.022718 
L 143.634451 218.254162 
L 144.039166 214.262757 
L 144.646238 273.8008 
L 144.848595 284.55971 
L 145.050952 287.419793 
L 145.253309 285.322643 
L 145.455666 281.985683 
L 145.658024 274.049594 
L 146.265095 224.652191 
L 146.467452 224.724679 
L 146.66981 220.805322 
L 146.872167 213.434426 
L 147.074524 215.103985 
L 147.276881 214.649559 
L 147.479238 201.281239 
L 147.681596 202.695364 
L 147.883953 223.733727 
L 148.08631 212.38718 
L 148.491024 232.433432 
L 148.693382 229.637258 
L 148.895739 224.730599 
L 149.098096 249.65776 
L 149.502811 274.300355 
L 149.705168 289.715544 
L 149.907525 289.358222 
L 150.109882 291.285201 
L 150.312239 289.334693 
L 150.919311 275.268727 
L 151.72874 234.228071 
L 152.133454 232.131287 
L 152.335811 233.983522 
L 152.538169 238.266234 
L 152.740526 237.232368 
L 152.942883 233.237089 
L 153.14524 236.614164 
L 153.347597 232.683581 
L 153.549955 234.157567 
L 153.752312 228.623781 
L 153.954669 236.816739 
L 154.561741 282.423762 
L 154.966455 289.346035 
L 155.168812 288.837797 
L 155.37117 286.334883 
L 155.573527 280.668895 
L 155.775884 282.230965 
L 156.78767 196.26198 
L 157.597099 160.931089 
L 158.001813 147.910145 
L 158.608885 177.63419 
L 159.418314 270.015027 
L 159.823028 281.662347 
L 160.227743 272.430713 
L 160.834814 225.558477 
L 161.037171 217.507558 
L 161.441886 196.786493 
L 162.048957 176.45357 
L 162.453672 170.060495 
L 162.858386 182.098899 
L 163.263101 203.894442 
L 163.465458 203.609781 
L 164.274887 283.004747 
L 164.679601 293.624827 
L 165.286673 261.194001 
L 165.48903 237.917316 
L 165.893744 230.485256 
L 166.096102 223.568522 
L 166.298459 221.268606 
L 166.703173 195.54233 
L 166.90553 183.624139 
L 167.107888 164.392159 
L 167.310245 157.299609 
L 167.512602 160.341031 
L 167.714959 170.300712 
L 167.917316 190.099096 
L 168.322031 203.722317 
L 169.13146 276.089625 
L 169.333817 281.509804 
L 169.536174 282.766416 
L 169.738531 282.002138 
L 170.143246 255.410573 
L 170.54796 219.974332 
L 170.750317 211.069111 
L 171.357389 174.584928 
L 171.559746 166.893356 
L 171.762103 163.605353 
L 172.166818 145.02734 
L 172.369175 141.708982 
L 172.571532 149.970642 
L 173.380961 214.176347 
L 173.785675 267.500015 
L 174.19039 288.570645 
L 174.392747 290.507787 
L 174.595104 287.44932 
L 174.797461 279.783587 
L 175.404533 232.742084 
L 175.60689 231.353558 
L 176.213962 195.204743 
L 176.416319 187.486709 
L 176.821034 167.552137 
L 177.023391 160.584939 
L 177.225748 149.236941 
L 177.630462 168.17408 
L 177.83282 196.489055 
L 178.035177 188.048582 
L 178.439891 249.610054 
L 178.844606 283.717039 
L 179.24932 295.044324 
L 179.451677 290.473313 
L 179.654034 283.170432 
L 181.272892 174.723995 
L 181.879964 142.236974 
L 182.082321 136.017952 
L 182.284678 137.845079 
L 182.89175 185.789458 
L 183.903536 264.300712 
L 184.105893 271.746223 
L 184.510607 271.348289 
L 184.712965 271.450448 
L 184.915322 262.923846 
L 186.129465 146.039567 
L 186.331822 144.095313 
L 186.53418 140.120915 
L 186.736537 142.327035 
L 187.343608 169.822934 
L 187.545966 187.561902 
L 187.748323 189.70303 
L 187.95068 201.970903 
L 188.557752 257.148564 
L 189.164823 270.924006 
L 189.569538 266.617558 
L 189.771895 264.539408 
L 190.986038 155.768764 
L 191.390752 149.786285 
L 191.59311 154.072131 
L 192.402539 194.583415 
L 192.604896 196.811273 
L 192.807253 210.215357 
L 193.211967 246.659167 
L 193.616682 270.938353 
L 193.819039 277.077124 
L 194.021396 276.851898 
L 194.223753 273.671062 
L 194.426111 266.737005 
L 194.628468 266.450771 
L 195.033182 232.080688 
L 195.437897 199.568648 
L 195.640254 188.943038 
L 195.842611 189.596017 
L 196.247325 202.110378 
L 196.449683 205.774007 
L 196.65204 206.626631 
L 196.854397 205.430491 
L 197.056754 215.433843 
L 197.259112 215.762048 
L 197.461469 213.761936 
L 198.270898 282.09027 
L 198.675612 288.607067 
L 199.080326 272.237173 
L 199.485041 233.623797 
L 199.687398 223.27569 
L 199.889755 219.904504 
L 200.699184 181.290442 
L 201.508613 154.630394 
L 201.71097 158.511566 
L 202.115684 183.155617 
L 202.318042 187.087147 
L 202.520399 205.995728 
L 202.925113 256.218879 
L 203.329828 275.250663 
L 203.532185 276.310173 
L 203.734542 272.771522 
L 203.936899 263.601697 
L 204.543971 213.553385 
L 204.746328 209.965751 
L 205.960471 163.775556 
L 206.162829 164.710006 
L 206.365186 167.837452 
L 206.567543 172.731087 
L 206.7699 185.106021 
L 207.174615 191.095464 
L 208.186401 274.006264 
L 208.388758 275.637827 
L 208.591115 274.076276 
L 208.793472 262.654464 
L 209.400544 213.291112 
L 209.602901 211.484621 
L 209.805258 198.948537 
L 210.007616 193.897401 
L 210.41233 169.997 
L 210.817044 138.128225 
L 211.221759 122.803641 
L 212.233545 200.15754 
L 212.638259 247.571721 
L 213.042974 267.206578 
L 213.447688 269.089427 
L 213.650045 260.545799 
L 214.257117 210.854605 
L 214.661831 188.211884 
L 215.268903 139.127732 
L 215.673617 112.788498 
L 216.078332 102.028768 
L 216.280689 106.395224 
L 216.483046 118.105539 
L 216.887761 152.419469 
L 217.090118 169.029653 
L 217.494832 223.687402 
L 217.697189 245.111329 
L 218.101904 260.566125 
L 218.304261 263.429905 
L 218.506618 262.495103 
L 218.708976 262.116545 
L 218.911333 257.488432 
L 219.720762 178.475989 
L 220.327833 147.386907 
L 220.732548 159.479688 
L 221.339619 201.495173 
L 221.541976 210.0151 
L 221.744334 208.839168 
L 221.946691 213.118662 
L 222.351405 250.177845 
L 222.75612 274.049908 
L 222.958477 276.585668 
L 223.160834 277.437695 
L 223.767906 268.625749 
L 224.577335 220.194455 
L 224.982049 214.502876 
L 225.184406 221.161036 
L 225.386763 220.515824 
L 225.589121 222.33609 
L 225.791478 229.760398 
L 225.993835 226.851998 
L 226.398549 239.703106 
L 226.600907 233.137202 
L 227.410335 295.174664 
L 227.612693 300.676229 
L 228.017407 295.498275 
L 228.219764 288.623906 
L 228.624479 256.65105 
L 229.029193 248.29383 
L 229.23155 248.933289 
L 230.040979 207.869346 
L 230.648051 179.180468 
L 230.850408 176.089462 
L 231.052765 183.099442 
L 231.659837 222.510842 
L 232.064551 276.012142 
L 232.469266 292.038048 
L 232.671623 294.023126 
L 232.87398 290.118028 
L 233.076337 284.019549 
L 233.683409 240.408802 
L 233.885766 236.942853 
L 234.695195 198.986755 
L 235.302267 173.784692 
L 235.504624 173.007133 
L 235.706981 177.79605 
L 236.51641 223.456866 
L 236.921124 271.005538 
L 237.325839 289.314823 
L 237.528196 289.14485 
L 237.730553 287.786951 
L 237.93291 279.166603 
L 238.539982 238.488433 
L 238.742339 234.143255 
L 239.147053 215.072298 
L 239.349411 210.976767 
L 239.551768 200.727093 
L 240.15884 190.104945 
L 240.361197 183.510735 
L 240.765911 200.826698 
L 240.968268 217.021438 
L 241.170626 221.588068 
L 241.372983 232.087189 
L 241.777697 275.339071 
L 241.980054 288.284302 
L 242.384769 295.036891 
L 242.587126 291.322661 
L 242.789483 282.696155 
L 243.396555 247.029926 
L 243.598912 241.906224 
L 244.610698 191.64803 
L 245.21777 166.220939 
L 245.420127 171.203664 
L 246.229556 218.812638 
L 246.63427 266.887587 
L 247.038985 288.654183 
L 247.241342 292.494934 
L 247.443699 288.962813 
L 247.848413 266.188572 
L 248.253128 237.207493 
L 248.455485 229.287924 
L 249.467271 148.349448 
L 249.871985 134.671574 
L 250.2767 141.412155 
L 251.086129 196.18476 
L 251.490843 243.51244 
L 251.895558 268.830207 
L 252.300272 274.666552 
L 252.502629 273.557978 
L 252.704986 271.065476 
L 252.907344 262.957243 
L 254.121487 150.790309 
L 254.526201 139.700394 
L 254.930916 134.813595 
L 255.133273 136.340154 
L 256.145059 226.235301 
L 256.752131 270.992505 
L 257.156845 278.333774 
L 257.359202 278.35922 
L 257.561559 276.8926 
L 257.763917 273.519403 
L 258.775703 184.024752 
L 259.180417 167.421659 
L 259.382774 160.926447 
L 259.585131 161.296652 
L 259.787489 158.785068 
L 259.989846 161.481887 
L 260.192203 168.696271 
L 260.596917 193.032267 
L 260.799275 211.215379 
L 261.203989 258.046579 
L 261.406346 270.848721 
L 261.608704 272.895384 
L 261.811061 283.883295 
L 262.215775 272.355037 
L 262.62049 239.503697 
L 262.822847 232.213655 
L 263.025204 231.095976 
L 263.227561 226.261433 
L 263.429918 224.810759 
L 263.834633 228.048526 
L 264.03699 228.291814 
L 264.239347 228.335428 
L 264.441704 230.93636 
L 264.644062 228.829876 
L 264.846419 229.468781 
L 265.251133 239.046785 
L 265.45349 234.817424 
L 265.655848 245.294142 
L 265.858205 269.727851 
L 266.262919 292.024022 
L 266.667634 296.132399 
L 266.869991 292.0498 
L 267.274705 273.745238 
L 267.477063 253.543689 
L 267.67942 249.509587 
L 268.286491 228.295751 
L 268.488849 222.773381 
L 268.691206 220.568004 
L 268.893563 215.474394 
L 269.09592 213.504288 
L 269.298277 210.045741 
L 269.500635 208.644801 
L 269.702992 208.493135 
L 270.107706 219.590642 
L 270.310063 217.593702 
L 270.512421 232.278425 
L 270.917135 272.035931 
L 271.119492 284.563145 
L 271.32185 285.750412 
L 271.524207 286.149128 
L 271.726564 283.072188 
L 271.928921 277.020588 
L 272.333636 246.595628 
L 272.535993 235.04672 
L 272.73835 230.240038 
L 273.143064 202.305949 
L 273.750136 153.050921 
L 274.15485 144.728085 
L 274.357208 130.739224 
L 274.559565 129.483188 
L 275.368994 179.788096 
L 275.976065 256.456161 
L 276.178422 254.836005 
L 276.38078 260.885045 
L 276.583137 261.986224 
L 276.785494 253.015103 
L 278.201995 156.88685 
L 278.404352 153.317464 
L 278.606709 137.66504 
L 278.809066 140.463685 
L 279.213781 127.725746 
L 279.618495 141.606752 
L 281.034995 275.388302 
L 281.43971 280.977717 
L 283.260925 174.496517 
L 283.867996 148.095656 
L 284.070354 145.056694 
L 284.272711 149.193612 
L 285.891568 283.753595 
L 286.296283 292.051088 
L 286.903354 279.416615 
L 287.915141 187.267623 
L 288.926927 144.865487 
L 289.129284 147.175983 
L 289.331641 156.568772 
L 289.736355 192.740244 
L 289.938713 201.747953 
L 290.343427 245.942889 
L 290.748141 269.242175 
L 290.950499 275.242744 
L 291.152856 277.117365 
L 291.55757 273.484885 
L 291.759927 270.053192 
L 292.974071 146.380908 
L 293.176428 135.689414 
L 293.378785 132.652234 
L 293.7835 123.661101 
L 293.985857 125.966253 
L 294.188214 134.295772 
L 294.592928 159.81976 
L 294.795286 169.696034 
L 295.2 228.226601 
L 295.402357 247.013817 
L 295.807072 259.787076 
L 296.009429 259.265196 
L 296.211786 252.417157 
L 297.021215 180.20766 
L 297.830644 100.148693 
L 298.033001 87.660759 
L 298.640073 79.329305 
L 299.044787 85.686645 
L 299.247144 97.588346 
L 299.651859 133.423305 
L 300.056573 202.101357 
L 300.25893 224.477088 
L 300.461287 233.868013 
L 300.866002 236.524974 
L 301.068359 229.810103 
L 301.473073 201.838413 
L 301.877788 156.478 
L 302.282502 102.293222 
L 302.889574 71.354827 
L 303.091931 76.805418 
L 303.294288 89.222919 
L 303.496646 90.992626 
L 303.699003 98.510051 
L 304.508432 162.792863 
L 304.913146 218.099413 
L 305.31786 246.459341 
L 305.722575 251.07398 
L 306.329646 214.016856 
L 307.341432 135.894033 
L 307.948504 108.242887 
L 308.150861 114.975683 
L 308.555576 137.835544 
L 309.365005 192.069145 
L 309.769719 242.108786 
L 310.174433 261.647869 
L 310.376791 264.70005 
L 310.579148 265.356871 
L 310.781505 258.318111 
L 312.400363 119.7353 
L 312.60272 117.365981 
L 312.805077 116.960665 
L 313.007434 112.336546 
L 313.209791 117.483115 
L 313.412149 126.134937 
L 314.221578 181.216481 
L 314.626292 227.862549 
L 314.828649 243.790344 
L 315.031006 250.881875 
L 315.233364 253.833134 
L 315.435721 254.691686 
L 315.638078 248.045729 
L 316.042792 222.010574 
L 316.447507 206.429874 
L 316.649864 203.222937 
L 317.054578 184.780154 
L 317.256936 177.475178 
L 317.459293 179.207457 
L 317.66165 174.70795 
L 318.066364 180.295709 
L 318.268722 178.043328 
L 318.673436 198.902134 
L 318.875793 200.084695 
L 319.685222 266.591081 
L 320.089937 278.508258 
L 320.494651 275.595676 
L 320.697008 264.712193 
L 320.899365 263.093523 
L 322.113509 170.497798 
L 322.315866 166.039307 
L 322.518223 152.253982 
L 322.72058 149.705169 
L 322.922937 151.256589 
L 323.125295 147.602336 
L 323.934723 195.496474 
L 324.137081 225.769383 
L 324.339438 235.646817 
L 324.541795 257.045563 
L 325.148867 272.416423 
L 325.755938 262.483562 
L 326.565367 176.615193 
L 326.767724 150.510669 
L 327.172439 129.7129 
L 327.374796 127.064517 
L 327.577153 130.653719 
L 327.981868 124.724635 
L 328.386582 152.15108 
L 329.398368 255.162996 
L 329.600725 266.738927 
L 329.803083 264.276914 
L 330.00544 266.990342 
L 330.410154 248.965443 
L 331.219583 177.730838 
L 331.624297 158.207236 
L 331.826655 142.273569 
L 332.029012 137.75398 
L 332.636083 144.903927 
L 333.040798 159.128818 
L 333.243155 180.779369 
L 333.445512 185.522136 
L 333.647869 196.004641 
L 333.850227 233.440241 
L 334.457298 274.249074 
L 334.659655 279.290549 
L 334.862013 280.198739 
L 336.278513 195.456711 
L 336.48087 189.807566 
L 336.683228 178.839149 
L 336.885585 177.968223 
L 337.087942 181.679606 
L 337.290299 170.619866 
L 337.492656 174.128282 
L 337.695014 184.965617 
L 337.897371 185.391786 
L 338.099728 204.489186 
L 338.302085 204.370254 
L 338.504442 211.414703 
L 338.909157 258.910623 
L 339.111514 271.680275 
L 339.516228 281.217463 
L 339.718586 276.404162 
L 341.135086 191.604501 
L 341.539801 179.417971 
L 341.742158 158.632156 
L 342.349229 136.937831 
L 342.753944 144.421173 
L 343.158658 169.088848 
L 343.361015 180.279513 
L 343.563373 215.955634 
L 343.76573 228.971219 
L 343.968087 250.091626 
L 344.170444 251.033188 
L 344.372801 255.212249 
L 344.575159 256.935958 
L 345.18223 218.048151 
L 346.194016 126.547654 
L 346.598731 109.728442 
L 346.801088 109.129336 
L 347.205802 105.860843 
L 347.40816 108.298455 
L 347.610517 115.58128 
L 348.015231 146.232774 
L 348.217588 159.300873 
L 348.622303 221.486202 
L 348.82466 243.614945 
L 349.229374 254.517376 
L 349.431732 260.804301 
L 350.038803 224.689455 
L 350.848232 142.26322 
L 351.455304 110.723663 
L 351.657661 104.362863 
L 352.062375 100.337453 
L 352.264733 101.680391 
L 352.46709 110.663468 
L 353.074161 166.136981 
L 353.478876 225.952829 
L 353.681233 246.128137 
L 354.085947 260.678581 
L 354.288305 267.053599 
L 354.490662 266.621928 
L 354.693019 263.785343 
L 354.895376 258.998064 
L 355.704805 143.041353 
L 356.109519 118.434289 
L 356.716591 101.554715 
L 356.918948 97.466471 
L 357.121306 99.408867 
L 357.323663 109.033021 
L 357.930734 160.025472 
L 358.335449 215.860667 
L 358.740163 245.386664 
L 358.94252 252.295493 
L 359.347235 258.527882 
L 359.751949 254.244463 
L 360.966092 107.749625 
L 361.16845 97.949154 
L 361.370807 95.019311 
L 361.775521 84.631005 
L 361.977879 84.472939 
L 362.382593 101.522254 
L 362.989665 171.526455 
L 363.394379 221.704231 
L 363.596736 231.724918 
L 364.001451 237.29767 
L 364.406165 219.246068 
L 364.608522 206.666551 
L 365.417951 98.155048 
L 365.822665 72.0559 
L 366.025023 65.402484 
L 366.429737 60.602062 
L 366.632094 58.176842 
L 366.834451 59.749369 
L 367.036809 63.018004 
L 367.239166 73.060021 
L 367.64388 108.739745 
L 368.048595 180.609269 
L 368.453309 220.63373 
L 368.655666 226.275394 
L 368.858024 227.656434 
L 369.262738 212.59564 
L 369.667452 173.310656 
L 370.072167 125.670971 
L 370.476881 85.002924 
L 370.881596 70.111877 
L 371.083953 66.122215 
L 371.28631 69.014792 
L 371.488667 70.102406 
L 371.893382 83.813427 
L 372.500453 131.680036 
L 372.905168 190.237911 
L 373.309882 222.844244 
L 373.512239 233.486293 
L 373.714597 233.190463 
L 373.916954 234.106301 
L 374.119311 229.537877 
L 374.321668 229.796807 
L 375.333454 108.611628 
L 375.738169 97.740069 
L 375.940526 94.204795 
L 376.142883 94.998165 
L 376.34524 95.245069 
L 376.547597 105.344788 
L 378.166455 235.730778 
L 378.368812 239.832527 
L 378.57117 240.413249 
L 378.773527 235.569021 
L 379.178241 208.345629 
L 379.98767 123.762703 
L 380.392384 99.639866 
L 380.594742 92.905225 
L 381.201813 84.67263 
L 381.40417 83.239382 
L 381.606528 91.398301 
L 382.213599 137.205201 
L 382.618314 194.96757 
L 383.023028 225.390488 
L 383.225385 228.619963 
L 383.427743 229.549445 
L 383.6301 223.382334 
L 384.034814 200.965862 
L 384.237171 187.148628 
L 384.237171 187.148628 
" clip-path="url(#p90db6de7bd)" style="fill: none; stroke: #ff7f0e; stroke-width: 1.5; stroke-linecap: square"/>
   </g>
   <g id="line2d_15">
    <path d="M 384.439529 169.202073 
L 384.844243 153.726151 
L 385.0466 148.299025 
L 385.248957 145.944342 
L 385.451315 148.066827 
L 385.653672 154.664714 
L 386.058386 180.342309 
L 387.272529 277.53021 
L 387.474887 284.426326 
L 387.677244 286.686752 
L 387.879601 283.404456 
L 388.284316 262.527225 
L 389.093744 217.654018 
L 390.510245 147.365998 
L 390.914959 137.3867 
L 391.117316 137.195461 
L 391.319674 141.205896 
L 391.724388 162.480216 
L 392.33146 216.908389 
L 392.938531 266.277755 
L 393.343246 281.97807 
L 393.545603 283.761906 
L 393.74796 280.161318 
L 394.152675 259.982083 
L 395.164461 206.97892 
L 396.378604 148.620637 
L 396.783318 139.214615 
L 396.985675 139.517606 
L 397.188033 144.154745 
L 397.592747 166.482923 
L 399.009248 276.781124 
L 399.211605 282.012268 
L 399.413962 282.705902 
L 399.616319 277.994798 
L 400.223391 245.548069 
L 402.044606 154.820948 
L 402.44932 141.690316 
L 402.651677 139.124029 
L 402.854034 140.386369 
L 403.056392 146.074695 
L 403.461106 170.237733 
L 404.675249 270.480628 
L 405.079964 282.647879 
L 405.282321 282.081671 
L 405.484678 276.119837 
L 408.115322 145.790466 
L 408.317679 140.872898 
L 408.520036 139.122939 
L 408.722393 141.378047 
L 408.924751 148.123261 
L 409.329465 174.041925 
L 410.543608 272.632448 
L 410.948323 282.98949 
L 411.15068 281.145786 
L 411.555394 263.305709 
L 412.56718 210.176337 
L 413.781324 151.138904 
L 414.186038 140.149731 
L 414.388395 139.27372 
L 414.590752 142.562238 
L 414.995467 162.421322 
L 415.602539 215.823045 
L 416.20961 264.989469 
L 416.614325 280.912774 
L 416.816682 283.048185 
L 417.019039 279.910973 
L 417.423753 260.540763 
L 418.435539 207.748211 
L 419.649683 149.377944 
L 420.054397 139.608865 
L 420.256754 139.652611 
L 420.459112 143.995564 
L 420.863826 165.802836 
L 422.280326 276.408372 
L 422.482684 281.838964 
L 422.685041 282.807484 
L 422.887398 278.387676 
L 423.49447 246.197315 
L 425.315684 155.420483 
L 425.720399 142.038802 
L 425.922756 139.265063 
L 426.125113 140.27037 
L 426.327471 145.680393 
L 426.732185 169.366714 
L 427.946328 269.92339 
L 428.351043 282.517738 
L 428.5534 282.259871 
L 428.755757 276.595658 
L 430.576972 181.888613 
L 431.386401 146.164717 
L 431.588758 141.09062 
L 431.791115 139.131449 
L 431.993472 141.134686 
L 432.19583 147.615407 
L 432.600544 173.102077 
L 433.814687 272.119969 
L 434.219402 282.930705 
L 434.421759 281.403314 
L 434.826473 263.97896 
L 435.838259 210.774084 
L 437.052403 151.590613 
L 437.457117 140.315295 
L 437.659474 139.219133 
L 437.861831 142.250232 
L 438.064189 149.796287 
L 438.468903 176.997416 
L 439.480689 264.330175 
L 439.885403 280.64864 
L 440.087761 283.061051 
L 440.290118 280.242459 
L 440.694832 261.224983 
L 441.706618 208.348552 
L 442.920762 149.803861 
L 443.325476 139.724993 
L 443.527833 139.537995 
L 443.73019 143.619556 
L 444.134905 164.952693 
L 444.741976 219.345742 
L 445.349048 266.935191 
L 445.753762 281.63309 
L 445.95612 282.895071 
L 446.158477 278.788757 
L 446.563191 258.441303 
L 447.574977 205.907046 
L 448.789121 148.115315 
L 449.193835 139.330788 
L 449.396192 140.095611 
L 449.598549 145.242077 
L 450.003264 168.472467 
L 451.419764 277.641718 
L 451.622121 282.37455 
L 451.824479 282.423537 
L 452.026836 277.060803 
L 453.240979 213.773329 
L 454.65748 146.535822 
L 454.859837 141.308663 
L 455.062194 139.144264 
L 455.264551 140.898605 
L 455.466908 147.115699 
L 455.871623 172.166561 
L 457.085766 271.595193 
L 457.490481 282.854555 
L 457.692838 281.642849 
L 457.895195 275.083081 
L 460.525839 145.076763 
L 460.728196 140.489624 
L 460.930553 139.176438 
L 461.13291 141.951906 
L 461.335267 149.236467 
L 461.739982 176.023485 
L 462.751768 263.659219 
L 463.156482 280.370922 
L 463.35884 283.055964 
L 463.561197 280.55617 
L 463.965911 261.907351 
L 464.977697 208.947664 
L 466.19184 150.23534 
L 466.596555 139.852667 
L 466.798912 139.437554 
L 467.001269 143.258652 
L 467.405984 164.113674 
L 468.013055 218.196119 
L 468.620127 266.310864 
L 469.024841 281.4124 
L 469.227199 282.964077 
L 469.429556 279.17321 
L 469.83427 259.128301 
L 470.846056 206.509944 
L 472.060199 148.521573 
L 472.464914 139.408994 
L 472.667271 139.935571 
L 472.869628 144.818774 
L 473.274343 167.588495 
L 474.690843 277.250242 
L 474.8932 282.215369 
L 475.095558 282.568327 
L 475.297915 277.51073 
L 476.107344 234.357075 
L 477.928558 146.914309 
L 478.130916 141.537074 
L 478.333273 139.170382 
L 478.53563 140.67773 
L 478.737987 146.63099 
L 479.142702 171.24088 
L 480.356845 271.05978 
L 480.761559 282.761553 
L 480.963917 281.863852 
L 481.166274 275.591992 
L 483.796917 145.424544 
L 483.999275 140.675097 
L 484.201632 139.14775 
L 484.403989 141.669074 
L 484.606346 148.691398 
L 485.011061 175.058836 
L 486.225204 273.16672 
L 486.427561 280.079869 
L 486.629918 283.033126 
L 486.832276 280.851946 
L 487.23699 262.587567 
L 488.248776 209.545799 
L 489.462919 150.672599 
L 489.867634 139.992043 
L 490.069991 139.351478 
L 490.272348 142.913101 
L 490.677063 163.286036 
L 491.284134 217.044477 
L 491.891206 265.675137 
L 492.29592 281.177216 
L 492.498277 283.01457 
L 492.700635 279.540605 
L 493.105349 259.814726 
L 494.117135 207.111926 
L 495.331278 148.934316 
L 495.735993 139.499728 
L 495.93835 139.790506 
L 496.140707 144.411004 
L 496.545422 166.715608 
L 497.961922 276.847476 
L 498.164279 282.040757 
L 498.366636 282.694464 
L 498.568994 277.945138 
L 499.176065 245.516273 
L 500.99728 154.903445 
L 501.401995 141.775379 
L 501.604352 139.209406 
L 501.806709 140.471804 
L 502.009066 146.161193 
L 502.413781 170.325151 
L 503.627924 270.51348 
L 504.032638 282.651762 
L 504.234995 282.066068 
L 504.437353 276.087004 
L 507.067996 145.779944 
L 507.270354 140.871212 
L 507.472711 139.132596 
L 507.675068 141.401384 
L 507.877425 148.160893 
L 508.28214 174.10333 
L 509.496283 272.663929 
L 509.900997 282.992559 
L 510.103354 281.129433 
L 510.508069 263.265027 
L 511.519855 210.142941 
L 512.733998 151.11567 
L 513.138713 140.143125 
L 513.34107 139.279814 
L 513.543427 142.583096 
L 513.948141 162.470213 
L 514.555213 215.891573 
L 515.162285 265.028044 
L 515.566999 280.927865 
L 515.769356 283.046762 
L 515.971714 279.89075 
L 516.376428 260.500304 
L 517.388214 207.712936 
L 518.4 157.414663 
L 518.4 157.414663 
" clip-path="url(#p90db6de7bd)" style="fill: none; stroke: #2ca02c; stroke-width: 1.5; stroke-linecap: square"/>
   </g>
   <g id="patch_3">
    <path d="M 72 320.4 
L 72 43.2 
" style="fill: none; stroke: #000000; stroke-width: 0.8; stroke-linejoin: miter; stroke-linecap: square"/>
   </g>
   <g id="patch_4">
    <path d="M 518.4 320.4 
L 518.4 43.2 
" style="fill: none; stroke: #000000; stroke-width: 0.8; stroke-linejoin: miter; stroke-linecap: square"/>
   </g>
   <g id="patch_5">
    <path d="M 72 320.4 
L 518.4 320.4 
" style="fill: none; stroke: #000000; stroke-width: 0.8; stroke-linejoin: miter; stroke-linecap: square"/>
   </g>
   <g id="patch_6">
    <path d="M 72 43.2 
L 518.4 43.2 
" style="fill: none; stroke: #000000; stroke-width: 0.8; stroke-linejoin: miter; stroke-linecap: square"/>
   </g>
   <g id="text_13">
    <!-- Simple RNN -->
    <g transform="translate(259.658437 37.2) scale(0.12 -0.12)">
     <defs>
      <path id="DejaVuSans-53" d="M 3425 4513 
L 3425 3897 
Q 3066 4069 2747 4153 
Q 2428 4238 2131 4238 
Q 1616 4238 1336 4038 
Q 1056 3838 1056 3469 
Q 1056 3159 1242 3001 
Q 1428 2844 1947 2747 
L 2328 2669 
Q 3034 2534 3370 2195 
Q 3706 1856 3706 1288 
Q 3706 609 3251 259 
Q 2797 -91 1919 -91 
Q 1588 -91 1214 -16 
Q 841 59 441 206 
L 441 856 
Q 825 641 1194 531 
Q 1563 422 1919 422 
Q 2459 422 2753 634 
Q 3047 847 3047 1241 
Q 3047 1584 2836 1778 
Q 2625 1972 2144 2069 
L 1759 2144 
Q 1053 2284 737 2584 
Q 422 2884 422 3419 
Q 422 4038 858 4394 
Q 1294 4750 2059 4750 
Q 2388 4750 2728 4690 
Q 3069 4631 3425 4513 
z
" transform="scale(0.015625)"/>
      <path id="DejaVuSans-69" d="M 603 3500 
L 1178 3500 
L 1178 0 
L 603 0 
L 603 3500 
z
M 603 4863 
L 1178 4863 
L 1178 4134 
L 603 4134 
L 603 4863 
z
" transform="scale(0.015625)"/>
      <path id="DejaVuSans-6d" d="M 3328 2828 
Q 3544 3216 3844 3400 
Q 4144 3584 4550 3584 
Q 5097 3584 5394 3201 
Q 5691 2819 5691 2113 
L 5691 0 
L 5113 0 
L 5113 2094 
Q 5113 2597 4934 2840 
Q 4756 3084 4391 3084 
Q 3944 3084 3684 2787 
Q 3425 2491 3425 1978 
L 3425 0 
L 2847 0 
L 2847 2094 
Q 2847 2600 2669 2842 
Q 2491 3084 2119 3084 
Q 1678 3084 1418 2786 
Q 1159 2488 1159 1978 
L 1159 0 
L 581 0 
L 581 3500 
L 1159 3500 
L 1159 2956 
Q 1356 3278 1631 3431 
Q 1906 3584 2284 3584 
Q 2666 3584 2933 3390 
Q 3200 3197 3328 2828 
z
" transform="scale(0.015625)"/>
      <path id="DejaVuSans-70" d="M 1159 525 
L 1159 -1331 
L 581 -1331 
L 581 3500 
L 1159 3500 
L 1159 2969 
Q 1341 3281 1617 3432 
Q 1894 3584 2278 3584 
Q 2916 3584 3314 3078 
Q 3713 2572 3713 1747 
Q 3713 922 3314 415 
Q 2916 -91 2278 -91 
Q 1894 -91 1617 61 
Q 1341 213 1159 525 
z
M 3116 1747 
Q 3116 2381 2855 2742 
Q 2594 3103 2138 3103 
Q 1681 3103 1420 2742 
Q 1159 2381 1159 1747 
Q 1159 1113 1420 752 
Q 1681 391 2138 391 
Q 2594 391 2855 752 
Q 3116 1113 3116 1747 
z
" transform="scale(0.015625)"/>
      <path id="DejaVuSans-6c" d="M 603 4863 
L 1178 4863 
L 1178 0 
L 603 0 
L 603 4863 
z
" transform="scale(0.015625)"/>
      <path id="DejaVuSans-65" d="M 3597 1894 
L 3597 1613 
L 953 1613 
Q 991 1019 1311 708 
Q 1631 397 2203 397 
Q 2534 397 2845 478 
Q 3156 559 3463 722 
L 3463 178 
Q 3153 47 2828 -22 
Q 2503 -91 2169 -91 
Q 1331 -91 842 396 
Q 353 884 353 1716 
Q 353 2575 817 3079 
Q 1281 3584 2069 3584 
Q 2775 3584 3186 3129 
Q 3597 2675 3597 1894 
z
M 3022 2063 
Q 3016 2534 2758 2815 
Q 2500 3097 2075 3097 
Q 1594 3097 1305 2825 
Q 1016 2553 972 2059 
L 3022 2063 
z
" transform="scale(0.015625)"/>
      <path id="DejaVuSans-20" transform="scale(0.015625)"/>
      <path id="DejaVuSans-52" d="M 2841 2188 
Q 3044 2119 3236 1894 
Q 3428 1669 3622 1275 
L 4263 0 
L 3584 0 
L 2988 1197 
Q 2756 1666 2539 1819 
Q 2322 1972 1947 1972 
L 1259 1972 
L 1259 0 
L 628 0 
L 628 4666 
L 2053 4666 
Q 2853 4666 3247 4331 
Q 3641 3997 3641 3322 
Q 3641 2881 3436 2590 
Q 3231 2300 2841 2188 
z
M 1259 4147 
L 1259 2491 
L 2053 2491 
Q 2509 2491 2742 2702 
Q 2975 2913 2975 3322 
Q 2975 3731 2742 3939 
Q 2509 4147 2053 4147 
L 1259 4147 
z
" transform="scale(0.015625)"/>
      <path id="DejaVuSans-4e" d="M 628 4666 
L 1478 4666 
L 3547 763 
L 3547 4666 
L 4159 4666 
L 4159 0 
L 3309 0 
L 1241 3903 
L 1241 0 
L 628 0 
L 628 4666 
z
" transform="scale(0.015625)"/>
     </defs>
     <use xlink:href="#DejaVuSans-53"/>
     <use xlink:href="#DejaVuSans-69" x="63.476562"/>
     <use xlink:href="#DejaVuSans-6d" x="91.259766"/>
     <use xlink:href="#DejaVuSans-70" x="188.671875"/>
     <use xlink:href="#DejaVuSans-6c" x="252.148438"/>
     <use xlink:href="#DejaVuSans-65" x="279.931641"/>
     <use xlink:href="#DejaVuSans-20" x="341.455078"/>
     <use xlink:href="#DejaVuSans-52" x="373.242188"/>
     <use xlink:href="#DejaVuSans-4e" x="442.724609"/>
     <use xlink:href="#DejaVuSans-4e" x="517.529297"/>
    </g>
   </g>
   <g id="legend_1">
    <g id="patch_7">
     <path d="M 79 95.234375 
L 161.517188 95.234375 
Q 163.517188 95.234375 163.517188 93.234375 
L 163.517188 50.2 
Q 163.517188 48.2 161.517188 48.2 
L 79 48.2 
Q 77 48.2 77 50.2 
L 77 93.234375 
Q 77 95.234375 79 95.234375 
z
" style="fill: #ffffff; opacity: 0.8; stroke: #cccccc; stroke-linejoin: miter"/>
    </g>
    <g id="line2d_16">
     <path d="M 81 56.298437 
L 91 56.298437 
L 101 56.298437 
" style="fill: none; stroke: #1f77b4; stroke-width: 1.5; stroke-linecap: square"/>
    </g>
    <g id="text_14">
     <!-- Measured -->
     <g transform="translate(109 59.798437) scale(0.1 -0.1)">
      <defs>
       <path id="DejaVuSans-4d" d="M 628 4666 
L 1569 4666 
L 2759 1491 
L 3956 4666 
L 4897 4666 
L 4897 0 
L 4281 0 
L 4281 4097 
L 3078 897 
L 2444 897 
L 1241 4097 
L 1241 0 
L 628 0 
L 628 4666 
z
" transform="scale(0.015625)"/>
       <path id="DejaVuSans-61" d="M 2194 1759 
Q 1497 1759 1228 1600 
Q 959 1441 959 1056 
Q 959 750 1161 570 
Q 1363 391 1709 391 
Q 2188 391 2477 730 
Q 2766 1069 2766 1631 
L 2766 1759 
L 2194 1759 
z
M 3341 1997 
L 3341 0 
L 2766 0 
L 2766 531 
Q 2569 213 2275 61 
Q 1981 -91 1556 -91 
Q 1019 -91 701 211 
Q 384 513 384 1019 
Q 384 1609 779 1909 
Q 1175 2209 1959 2209 
L 2766 2209 
L 2766 2266 
Q 2766 2663 2505 2880 
Q 2244 3097 1772 3097 
Q 1472 3097 1187 3025 
Q 903 2953 641 2809 
L 641 3341 
Q 956 3463 1253 3523 
Q 1550 3584 1831 3584 
Q 2591 3584 2966 3190 
Q 3341 2797 3341 1997 
z
" transform="scale(0.015625)"/>
       <path id="DejaVuSans-73" d="M 2834 3397 
L 2834 2853 
Q 2591 2978 2328 3040 
Q 2066 3103 1784 3103 
Q 1356 3103 1142 2972 
Q 928 2841 928 2578 
Q 928 2378 1081 2264 
Q 1234 2150 1697 2047 
L 1894 2003 
Q 2506 1872 2764 1633 
Q 3022 1394 3022 966 
Q 3022 478 2636 193 
Q 2250 -91 1575 -91 
Q 1294 -91 989 -36 
Q 684 19 347 128 
L 347 722 
Q 666 556 975 473 
Q 1284 391 1588 391 
Q 1994 391 2212 530 
Q 2431 669 2431 922 
Q 2431 1156 2273 1281 
Q 2116 1406 1581 1522 
L 1381 1569 
Q 847 1681 609 1914 
Q 372 2147 372 2553 
Q 372 3047 722 3315 
Q 1072 3584 1716 3584 
Q 2034 3584 2315 3537 
Q 2597 3491 2834 3397 
z
" transform="scale(0.015625)"/>
       <path id="DejaVuSans-75" d="M 544 1381 
L 544 3500 
L 1119 3500 
L 1119 1403 
Q 1119 906 1312 657 
Q 1506 409 1894 409 
Q 2359 409 2629 706 
Q 2900 1003 2900 1516 
L 2900 3500 
L 3475 3500 
L 3475 0 
L 2900 0 
L 2900 538 
Q 2691 219 2414 64 
Q 2138 -91 1772 -91 
Q 1169 -91 856 284 
Q 544 659 544 1381 
z
M 1991 3584 
L 1991 3584 
z
" transform="scale(0.015625)"/>
       <path id="DejaVuSans-72" d="M 2631 2963 
Q 2534 3019 2420 3045 
Q 2306 3072 2169 3072 
Q 1681 3072 1420 2755 
Q 1159 2438 1159 1844 
L 1159 0 
L 581 0 
L 581 3500 
L 1159 3500 
L 1159 2956 
Q 1341 3275 1631 3429 
Q 1922 3584 2338 3584 
Q 2397 3584 2469 3576 
Q 2541 3569 2628 3553 
L 2631 2963 
z
" transform="scale(0.015625)"/>
       <path id="DejaVuSans-64" d="M 2906 2969 
L 2906 4863 
L 3481 4863 
L 3481 0 
L 2906 0 
L 2906 525 
Q 2725 213 2448 61 
Q 2172 -91 1784 -91 
Q 1150 -91 751 415 
Q 353 922 353 1747 
Q 353 2572 751 3078 
Q 1150 3584 1784 3584 
Q 2172 3584 2448 3432 
Q 2725 3281 2906 2969 
z
M 947 1747 
Q 947 1113 1208 752 
Q 1469 391 1925 391 
Q 2381 391 2643 752 
Q 2906 1113 2906 1747 
Q 2906 2381 2643 2742 
Q 2381 3103 1925 3103 
Q 1469 3103 1208 2742 
Q 947 2381 947 1747 
z
" transform="scale(0.015625)"/>
      </defs>
      <use xlink:href="#DejaVuSans-4d"/>
      <use xlink:href="#DejaVuSans-65" x="86.279297"/>
      <use xlink:href="#DejaVuSans-61" x="147.802734"/>
      <use xlink:href="#DejaVuSans-73" x="209.082031"/>
      <use xlink:href="#DejaVuSans-75" x="261.181641"/>
      <use xlink:href="#DejaVuSans-72" x="324.560547"/>
      <use xlink:href="#DejaVuSans-65" x="363.423828"/>
      <use xlink:href="#DejaVuSans-64" x="424.947266"/>
     </g>
    </g>
    <g id="line2d_17">
     <path d="M 81 70.976562 
L 91 70.976562 
L 101 70.976562 
" style="fill: none; stroke: #ff7f0e; stroke-width: 1.5; stroke-linecap: square"/>
    </g>
    <g id="text_15">
     <!-- Fitted -->
     <g transform="translate(109 74.476562) scale(0.1 -0.1)">
      <defs>
       <path id="DejaVuSans-46" d="M 628 4666 
L 3309 4666 
L 3309 4134 
L 1259 4134 
L 1259 2759 
L 3109 2759 
L 3109 2228 
L 1259 2228 
L 1259 0 
L 628 0 
L 628 4666 
z
" transform="scale(0.015625)"/>
       <path id="DejaVuSans-74" d="M 1172 4494 
L 1172 3500 
L 2356 3500 
L 2356 3053 
L 1172 3053 
L 1172 1153 
Q 1172 725 1289 603 
Q 1406 481 1766 481 
L 2356 481 
L 2356 0 
L 1766 0 
Q 1100 0 847 248 
Q 594 497 594 1153 
L 594 3053 
L 172 3053 
L 172 3500 
L 594 3500 
L 594 4494 
L 1172 4494 
z
" transform="scale(0.015625)"/>
      </defs>
      <use xlink:href="#DejaVuSans-46"/>
      <use xlink:href="#DejaVuSans-69" x="50.269531"/>
      <use xlink:href="#DejaVuSans-74" x="78.052734"/>
      <use xlink:href="#DejaVuSans-74" x="117.261719"/>
      <use xlink:href="#DejaVuSans-65" x="156.470703"/>
      <use xlink:href="#DejaVuSans-64" x="217.994141"/>
     </g>
    </g>
    <g id="line2d_18">
     <path d="M 81 85.654687 
L 91 85.654687 
L 101 85.654687 
" style="fill: none; stroke: #2ca02c; stroke-width: 1.5; stroke-linecap: square"/>
    </g>
    <g id="text_16">
     <!-- Estimated -->
     <g transform="translate(109 89.154687) scale(0.1 -0.1)">
      <defs>
       <path id="DejaVuSans-45" d="M 628 4666 
L 3578 4666 
L 3578 4134 
L 1259 4134 
L 1259 2753 
L 3481 2753 
L 3481 2222 
L 1259 2222 
L 1259 531 
L 3634 531 
L 3634 0 
L 628 0 
L 628 4666 
z
" transform="scale(0.015625)"/>
      </defs>
      <use xlink:href="#DejaVuSans-45"/>
      <use xlink:href="#DejaVuSans-73" x="63.183594"/>
      <use xlink:href="#DejaVuSans-74" x="115.283203"/>
      <use xlink:href="#DejaVuSans-69" x="154.492188"/>
      <use xlink:href="#DejaVuSans-6d" x="182.275391"/>
      <use xlink:href="#DejaVuSans-61" x="279.6875"/>
      <use xlink:href="#DejaVuSans-74" x="340.966797"/>
      <use xlink:href="#DejaVuSans-65" x="380.175781"/>
      <use xlink:href="#DejaVuSans-64" x="441.699219"/>
     </g>
    </g>
   </g>
  </g>
 </g>
 <defs>
  <clipPath id="p90db6de7bd">
   <rect x="72" y="43.2" width="446.4" height="277.2"/>
  </clipPath>
 </defs>
</svg>
