<?xml version="1.0" encoding="utf-8" standalone="no"?>
<!DOCTYPE svg PUBLIC "-//W3C//DTD SVG 1.1//EN"
  "http://www.w3.org/Graphics/SVG/1.1/DTD/svg11.dtd">
<svg xmlns:xlink="http://www.w3.org/1999/xlink" width="576pt" height="360pt" viewBox="0 0 576 360" xmlns="http://www.w3.org/2000/svg" version="1.1">
 <metadata>
  <rdf:RDF xmlns:dc="http://purl.org/dc/elements/1.1/" xmlns:cc="http://creativecommons.org/ns#" xmlns:rdf="http://www.w3.org/1999/02/22-rdf-syntax-ns#">
   <cc:Work>
    <dc:type rdf:resource="http://purl.org/dc/dcmitype/StillImage"/>
    <dc:date>2023-11-23T16:48:46.411703</dc:date>
    <dc:format>image/svg+xml</dc:format>
    <dc:creator>
     <cc:Agent>
      <dc:title>Matplotlib v3.8.1, https://matplotlib.org/</dc:title>
     </cc:Agent>
    </dc:creator>
   </cc:Work>
  </rdf:RDF>
 </metadata>
 <defs>
  <style type="text/css">*{stroke-linejoin: round; stroke-linecap: butt}</style>
 </defs>
 <g id="figure_1">
  <g id="patch_1">
   <path d="M 0 360 
L 576 360 
L 576 0 
L 0 0 
z
" style="fill: #ffffff"/>
  </g>
  <g id="axes_1">
   <g id="patch_2">
    <path d="M 72 320.4 
L 518.4 320.4 
L 518.4 43.2 
L 72 43.2 
z
" style="fill: #ffffff"/>
   </g>
   <g id="matplotlib.axis_1">
    <g id="xtick_1">
     <g id="line2d_1">
      <defs>
       <path id="m6d2aabaaa4" d="M 0 0 
L 0 3.5 
" style="stroke: #000000; stroke-width: 0.8"/>
      </defs>
      <g>
       <use xlink:href="#m6d2aabaaa4" x="129.874161" y="320.4" style="stroke: #000000; stroke-width: 0.8"/>
      </g>
     </g>
     <g id="text_1">
      <!-- 2020-05-15 -->
      <g transform="translate(100.816349 334.998438) scale(0.1 -0.1)">
       <defs>
        <path id="DejaVuSans-32" d="M 1228 531 
L 3431 531 
L 3431 0 
L 469 0 
L 469 531 
Q 828 903 1448 1529 
Q 2069 2156 2228 2338 
Q 2531 2678 2651 2914 
Q 2772 3150 2772 3378 
Q 2772 3750 2511 3984 
Q 2250 4219 1831 4219 
Q 1534 4219 1204 4116 
Q 875 4013 500 3803 
L 500 4441 
Q 881 4594 1212 4672 
Q 1544 4750 1819 4750 
Q 2544 4750 2975 4387 
Q 3406 4025 3406 3419 
Q 3406 3131 3298 2873 
Q 3191 2616 2906 2266 
Q 2828 2175 2409 1742 
Q 1991 1309 1228 531 
z
" transform="scale(0.015625)"/>
        <path id="DejaVuSans-30" d="M 2034 4250 
Q 1547 4250 1301 3770 
Q 1056 3291 1056 2328 
Q 1056 1369 1301 889 
Q 1547 409 2034 409 
Q 2525 409 2770 889 
Q 3016 1369 3016 2328 
Q 3016 3291 2770 3770 
Q 2525 4250 2034 4250 
z
M 2034 4750 
Q 2819 4750 3233 4129 
Q 3647 3509 3647 2328 
Q 3647 1150 3233 529 
Q 2819 -91 2034 -91 
Q 1250 -91 836 529 
Q 422 1150 422 2328 
Q 422 3509 836 4129 
Q 1250 4750 2034 4750 
z
" transform="scale(0.015625)"/>
        <path id="DejaVuSans-2d" d="M 313 2009 
L 1997 2009 
L 1997 1497 
L 313 1497 
L 313 2009 
z
" transform="scale(0.015625)"/>
        <path id="DejaVuSans-35" d="M 691 4666 
L 3169 4666 
L 3169 4134 
L 1269 4134 
L 1269 2991 
Q 1406 3038 1543 3061 
Q 1681 3084 1819 3084 
Q 2600 3084 3056 2656 
Q 3513 2228 3513 1497 
Q 3513 744 3044 326 
Q 2575 -91 1722 -91 
Q 1428 -91 1123 -41 
Q 819 9 494 109 
L 494 744 
Q 775 591 1075 516 
Q 1375 441 1709 441 
Q 2250 441 2565 725 
Q 2881 1009 2881 1497 
Q 2881 1984 2565 2268 
Q 2250 2553 1709 2553 
Q 1456 2553 1204 2497 
Q 953 2441 691 2322 
L 691 4666 
z
" transform="scale(0.015625)"/>
        <path id="DejaVuSans-31" d="M 794 531 
L 1825 531 
L 1825 4091 
L 703 3866 
L 703 4441 
L 1819 4666 
L 2450 4666 
L 2450 531 
L 3481 531 
L 3481 0 
L 794 0 
L 794 531 
z
" transform="scale(0.015625)"/>
       </defs>
       <use xlink:href="#DejaVuSans-32"/>
       <use xlink:href="#DejaVuSans-30" x="63.623047"/>
       <use xlink:href="#DejaVuSans-32" x="127.246094"/>
       <use xlink:href="#DejaVuSans-30" x="190.869141"/>
       <use xlink:href="#DejaVuSans-2d" x="254.492188"/>
       <use xlink:href="#DejaVuSans-30" x="290.576172"/>
       <use xlink:href="#DejaVuSans-35" x="354.199219"/>
       <use xlink:href="#DejaVuSans-2d" x="417.822266"/>
       <use xlink:href="#DejaVuSans-31" x="453.90625"/>
       <use xlink:href="#DejaVuSans-35" x="517.529297"/>
      </g>
     </g>
    </g>
    <g id="xtick_2">
     <g id="line2d_2">
      <g>
       <use xlink:href="#m6d2aabaaa4" x="212.435902" y="320.4" style="stroke: #000000; stroke-width: 0.8"/>
      </g>
     </g>
     <g id="text_2">
      <!-- 2020-06-01 -->
      <g transform="translate(183.37809 334.998438) scale(0.1 -0.1)">
       <defs>
        <path id="DejaVuSans-36" d="M 2113 2584 
Q 1688 2584 1439 2293 
Q 1191 2003 1191 1497 
Q 1191 994 1439 701 
Q 1688 409 2113 409 
Q 2538 409 2786 701 
Q 3034 994 3034 1497 
Q 3034 2003 2786 2293 
Q 2538 2584 2113 2584 
z
M 3366 4563 
L 3366 3988 
Q 3128 4100 2886 4159 
Q 2644 4219 2406 4219 
Q 1781 4219 1451 3797 
Q 1122 3375 1075 2522 
Q 1259 2794 1537 2939 
Q 1816 3084 2150 3084 
Q 2853 3084 3261 2657 
Q 3669 2231 3669 1497 
Q 3669 778 3244 343 
Q 2819 -91 2113 -91 
Q 1303 -91 875 529 
Q 447 1150 447 2328 
Q 447 3434 972 4092 
Q 1497 4750 2381 4750 
Q 2619 4750 2861 4703 
Q 3103 4656 3366 4563 
z
" transform="scale(0.015625)"/>
       </defs>
       <use xlink:href="#DejaVuSans-32"/>
       <use xlink:href="#DejaVuSans-30" x="63.623047"/>
       <use xlink:href="#DejaVuSans-32" x="127.246094"/>
       <use xlink:href="#DejaVuSans-30" x="190.869141"/>
       <use xlink:href="#DejaVuSans-2d" x="254.492188"/>
       <use xlink:href="#DejaVuSans-30" x="290.576172"/>
       <use xlink:href="#DejaVuSans-36" x="354.199219"/>
       <use xlink:href="#DejaVuSans-2d" x="417.822266"/>
       <use xlink:href="#DejaVuSans-30" x="453.90625"/>
       <use xlink:href="#DejaVuSans-31" x="517.529297"/>
      </g>
     </g>
    </g>
    <g id="xtick_3">
     <g id="line2d_3">
      <g>
       <use xlink:href="#m6d2aabaaa4" x="280.427924" y="320.4" style="stroke: #000000; stroke-width: 0.8"/>
      </g>
     </g>
     <g id="text_3">
      <!-- 2020-06-15 -->
      <g transform="translate(251.370111 334.998438) scale(0.1 -0.1)">
       <use xlink:href="#DejaVuSans-32"/>
       <use xlink:href="#DejaVuSans-30" x="63.623047"/>
       <use xlink:href="#DejaVuSans-32" x="127.246094"/>
       <use xlink:href="#DejaVuSans-30" x="190.869141"/>
       <use xlink:href="#DejaVuSans-2d" x="254.492188"/>
       <use xlink:href="#DejaVuSans-30" x="290.576172"/>
       <use xlink:href="#DejaVuSans-36" x="354.199219"/>
       <use xlink:href="#DejaVuSans-2d" x="417.822266"/>
       <use xlink:href="#DejaVuSans-31" x="453.90625"/>
       <use xlink:href="#DejaVuSans-35" x="517.529297"/>
      </g>
     </g>
    </g>
    <g id="xtick_4">
     <g id="line2d_4">
      <g>
       <use xlink:href="#m6d2aabaaa4" x="358.133092" y="320.4" style="stroke: #000000; stroke-width: 0.8"/>
      </g>
     </g>
     <g id="text_4">
      <!-- 2020-07-01 -->
      <g transform="translate(329.075279 334.998438) scale(0.1 -0.1)">
       <defs>
        <path id="DejaVuSans-37" d="M 525 4666 
L 3525 4666 
L 3525 4397 
L 1831 0 
L 1172 0 
L 2766 4134 
L 525 4134 
L 525 4666 
z
" transform="scale(0.015625)"/>
       </defs>
       <use xlink:href="#DejaVuSans-32"/>
       <use xlink:href="#DejaVuSans-30" x="63.623047"/>
       <use xlink:href="#DejaVuSans-32" x="127.246094"/>
       <use xlink:href="#DejaVuSans-30" x="190.869141"/>
       <use xlink:href="#DejaVuSans-2d" x="254.492188"/>
       <use xlink:href="#DejaVuSans-30" x="290.576172"/>
       <use xlink:href="#DejaVuSans-37" x="354.199219"/>
       <use xlink:href="#DejaVuSans-2d" x="417.822266"/>
       <use xlink:href="#DejaVuSans-30" x="453.90625"/>
       <use xlink:href="#DejaVuSans-31" x="517.529297"/>
      </g>
     </g>
    </g>
    <g id="xtick_5">
     <g id="line2d_5">
      <g>
       <use xlink:href="#m6d2aabaaa4" x="426.125113" y="320.4" style="stroke: #000000; stroke-width: 0.8"/>
      </g>
     </g>
     <g id="text_5">
      <!-- 2020-07-15 -->
      <g transform="translate(397.067301 334.998438) scale(0.1 -0.1)">
       <use xlink:href="#DejaVuSans-32"/>
       <use xlink:href="#DejaVuSans-30" x="63.623047"/>
       <use xlink:href="#DejaVuSans-32" x="127.246094"/>
       <use xlink:href="#DejaVuSans-30" x="190.869141"/>
       <use xlink:href="#DejaVuSans-2d" x="254.492188"/>
       <use xlink:href="#DejaVuSans-30" x="290.576172"/>
       <use xlink:href="#DejaVuSans-37" x="354.199219"/>
       <use xlink:href="#DejaVuSans-2d" x="417.822266"/>
       <use xlink:href="#DejaVuSans-31" x="453.90625"/>
       <use xlink:href="#DejaVuSans-35" x="517.529297"/>
      </g>
     </g>
    </g>
    <g id="xtick_6">
     <g id="line2d_6">
      <g>
       <use xlink:href="#m6d2aabaaa4" x="508.686854" y="320.4" style="stroke: #000000; stroke-width: 0.8"/>
      </g>
     </g>
     <g id="text_6">
      <!-- 2020-08-01 -->
      <g transform="translate(479.629042 334.998438) scale(0.1 -0.1)">
       <defs>
        <path id="DejaVuSans-38" d="M 2034 2216 
Q 1584 2216 1326 1975 
Q 1069 1734 1069 1313 
Q 1069 891 1326 650 
Q 1584 409 2034 409 
Q 2484 409 2743 651 
Q 3003 894 3003 1313 
Q 3003 1734 2745 1975 
Q 2488 2216 2034 2216 
z
M 1403 2484 
Q 997 2584 770 2862 
Q 544 3141 544 3541 
Q 544 4100 942 4425 
Q 1341 4750 2034 4750 
Q 2731 4750 3128 4425 
Q 3525 4100 3525 3541 
Q 3525 3141 3298 2862 
Q 3072 2584 2669 2484 
Q 3125 2378 3379 2068 
Q 3634 1759 3634 1313 
Q 3634 634 3220 271 
Q 2806 -91 2034 -91 
Q 1263 -91 848 271 
Q 434 634 434 1313 
Q 434 1759 690 2068 
Q 947 2378 1403 2484 
z
M 1172 3481 
Q 1172 3119 1398 2916 
Q 1625 2713 2034 2713 
Q 2441 2713 2670 2916 
Q 2900 3119 2900 3481 
Q 2900 3844 2670 4047 
Q 2441 4250 2034 4250 
Q 1625 4250 1398 4047 
Q 1172 3844 1172 3481 
z
" transform="scale(0.015625)"/>
       </defs>
       <use xlink:href="#DejaVuSans-32"/>
       <use xlink:href="#DejaVuSans-30" x="63.623047"/>
       <use xlink:href="#DejaVuSans-32" x="127.246094"/>
       <use xlink:href="#DejaVuSans-30" x="190.869141"/>
       <use xlink:href="#DejaVuSans-2d" x="254.492188"/>
       <use xlink:href="#DejaVuSans-30" x="290.576172"/>
       <use xlink:href="#DejaVuSans-38" x="354.199219"/>
       <use xlink:href="#DejaVuSans-2d" x="417.822266"/>
       <use xlink:href="#DejaVuSans-30" x="453.90625"/>
       <use xlink:href="#DejaVuSans-31" x="517.529297"/>
      </g>
     </g>
    </g>
   </g>
   <g id="matplotlib.axis_2">
    <g id="ytick_1">
     <g id="line2d_7">
      <defs>
       <path id="mc7a1fff04c" d="M 0 0 
L -3.5 0 
" style="stroke: #000000; stroke-width: 0.8"/>
      </defs>
      <g>
       <use xlink:href="#mc7a1fff04c" x="72" y="315.314498" style="stroke: #000000; stroke-width: 0.8"/>
      </g>
     </g>
     <g id="text_7">
      <!-- −2 -->
      <g transform="translate(50.257812 319.113717) scale(0.1 -0.1)">
       <defs>
        <path id="DejaVuSans-2212" d="M 678 2272 
L 4684 2272 
L 4684 1741 
L 678 1741 
L 678 2272 
z
" transform="scale(0.015625)"/>
       </defs>
       <use xlink:href="#DejaVuSans-2212"/>
       <use xlink:href="#DejaVuSans-32" x="83.789062"/>
      </g>
     </g>
    </g>
    <g id="ytick_2">
     <g id="line2d_8">
      <g>
       <use xlink:href="#mc7a1fff04c" x="72" y="261.875757" style="stroke: #000000; stroke-width: 0.8"/>
      </g>
     </g>
     <g id="text_8">
      <!-- −1 -->
      <g transform="translate(50.257812 265.674976) scale(0.1 -0.1)">
       <use xlink:href="#DejaVuSans-2212"/>
       <use xlink:href="#DejaVuSans-31" x="83.789062"/>
      </g>
     </g>
    </g>
    <g id="ytick_3">
     <g id="line2d_9">
      <g>
       <use xlink:href="#mc7a1fff04c" x="72" y="208.437017" style="stroke: #000000; stroke-width: 0.8"/>
      </g>
     </g>
     <g id="text_9">
      <!-- 0 -->
      <g transform="translate(58.6375 212.236236) scale(0.1 -0.1)">
       <use xlink:href="#DejaVuSans-30"/>
      </g>
     </g>
    </g>
    <g id="ytick_4">
     <g id="line2d_10">
      <g>
       <use xlink:href="#mc7a1fff04c" x="72" y="154.998276" style="stroke: #000000; stroke-width: 0.8"/>
      </g>
     </g>
     <g id="text_10">
      <!-- 1 -->
      <g transform="translate(58.6375 158.797495) scale(0.1 -0.1)">
       <use xlink:href="#DejaVuSans-31"/>
      </g>
     </g>
    </g>
    <g id="ytick_5">
     <g id="line2d_11">
      <g>
       <use xlink:href="#mc7a1fff04c" x="72" y="101.559536" style="stroke: #000000; stroke-width: 0.8"/>
      </g>
     </g>
     <g id="text_11">
      <!-- 2 -->
      <g transform="translate(58.6375 105.358755) scale(0.1 -0.1)">
       <use xlink:href="#DejaVuSans-32"/>
      </g>
     </g>
    </g>
    <g id="ytick_6">
     <g id="line2d_12">
      <g>
       <use xlink:href="#mc7a1fff04c" x="72" y="48.120795" style="stroke: #000000; stroke-width: 0.8"/>
      </g>
     </g>
     <g id="text_12">
      <!-- 3 -->
      <g transform="translate(58.6375 51.920014) scale(0.1 -0.1)">
       <defs>
        <path id="DejaVuSans-33" d="M 2597 2516 
Q 3050 2419 3304 2112 
Q 3559 1806 3559 1356 
Q 3559 666 3084 287 
Q 2609 -91 1734 -91 
Q 1441 -91 1130 -33 
Q 819 25 488 141 
L 488 750 
Q 750 597 1062 519 
Q 1375 441 1716 441 
Q 2309 441 2620 675 
Q 2931 909 2931 1356 
Q 2931 1769 2642 2001 
Q 2353 2234 1838 2234 
L 1294 2234 
L 1294 2753 
L 1863 2753 
Q 2328 2753 2575 2939 
Q 2822 3125 2822 3475 
Q 2822 3834 2567 4026 
Q 2313 4219 1838 4219 
Q 1578 4219 1281 4162 
Q 984 4106 628 3988 
L 628 4550 
Q 988 4650 1302 4700 
Q 1616 4750 1894 4750 
Q 2613 4750 3031 4423 
Q 3450 4097 3450 3541 
Q 3450 3153 3228 2886 
Q 3006 2619 2597 2516 
z
" transform="scale(0.015625)"/>
       </defs>
       <use xlink:href="#DejaVuSans-33"/>
      </g>
     </g>
    </g>
   </g>
   <g id="line2d_13">
    <path d="M 72 286.481982 
L 72.404714 297.806825 
L 72.607072 296.087126 
L 72.809429 285.433385 
L 73.214143 254.562703 
L 73.618858 242.14732 
L 75.035358 159.308192 
L 75.237715 156.35115 
L 75.440073 161.405386 
L 75.64243 169.605411 
L 75.844787 172.898004 
L 76.047144 188.123626 
L 76.654216 258.295707 
L 77.05893 282.329539 
L 77.261287 286.691701 
L 77.463645 286.314206 
L 77.666002 275.618522 
L 78.070716 247.159611 
L 78.475431 234.702284 
L 78.677788 225.579494 
L 79.487217 168.661674 
L 79.891931 152.408427 
L 80.094288 154.358817 
L 80.903717 196.722117 
L 81.713146 271.969406 
L 82.11786 286.607813 
L 82.320218 288.642091 
L 82.522575 288.348484 
L 82.724932 285.831852 
L 82.927289 279.015974 
L 83.332004 256.05171 
L 83.736718 241.748853 
L 83.939075 238.707923 
L 84.141432 238.980558 
L 84.546147 245.376997 
L 84.748504 247.47419 
L 84.950861 247.495162 
L 85.355576 251.689548 
L 85.557933 248.355011 
L 85.76029 254.478815 
L 86.569719 299.400691 
L 86.772076 305.482551 
L 86.974433 307.076418 
L 87.176791 307.139334 
L 87.379148 305.79713 
L 87.581505 302.064126 
L 87.783862 295.311165 
L 88.188577 273.269665 
L 88.390934 268.089598 
L 89.200363 260.015405 
L 89.40272 255.883935 
L 89.807434 241.098723 
L 90.212149 238.645007 
L 90.414506 235.939628 
L 90.616863 243.88799 
L 91.223935 294.451316 
L 91.628649 305.482551 
L 91.831006 305.545467 
L 92.033364 303.049807 
L 92.842792 256.911559 
L 93.04515 254.772422 
L 93.449864 246.17393 
L 93.652221 245.649632 
L 93.854578 242.713562 
L 94.056936 242.084404 
L 94.259293 239.462913 
L 94.46165 233.066474 
L 94.664007 230.214291 
L 94.866364 231.137056 
L 95.068722 234.282846 
L 95.271079 230.444982 
L 95.473436 240.553453 
L 96.080508 294.82881 
L 96.485222 304.035488 
L 96.687579 305.943934 
L 96.889937 301.602744 
L 97.699365 256.177542 
L 98.306437 245.670604 
L 98.508794 245.293109 
L 99.52058 224.069515 
L 99.722937 225.327831 
L 99.925295 229.689993 
L 100.127652 227.865435 
L 100.330009 238.015849 
L 100.937081 292.354122 
L 101.341795 304.622702 
L 101.544152 305.608383 
L 101.74651 301.896351 
L 101.948867 289.94235 
L 102.353581 259.910545 
L 102.555938 258.358622 
L 103.567724 240.574425 
L 104.377153 218.47001 
L 104.57951 219.749297 
L 104.781868 225.139084 
L 104.984225 225.118112 
L 105.186582 234.010211 
L 105.793654 289.208333 
L 106.198368 301.959267 
L 106.400725 303.720909 
L 106.603083 299.694298 
L 107.412511 253.765769 
L 107.614869 252.046071 
L 107.817226 248.375983 
L 108.22194 233.842435 
L 108.626655 212.136487 
L 108.829012 206.20143 
L 109.031369 204.313956 
L 109.638441 212.996336 
L 109.840798 218.428066 
L 110.043155 228.830144 
L 110.650227 283.881462 
L 111.054941 298.142375 
L 111.257298 300.050821 
L 111.459655 298.310151 
L 111.662013 286.90142 
L 112.066727 257.645577 
L 112.471442 242.650646 
L 113.887942 174.240207 
L 114.090299 171.870379 
L 114.292656 178.686257 
L 114.495014 190.115959 
L 114.697371 194.708812 
L 115.102085 228.725284 
L 115.709157 278.093209 
L 116.113871 292.039543 
L 116.316228 292.207319 
L 116.518586 290.550536 
L 116.720943 286.922392 
L 117.125657 259.679854 
L 118.542158 155.008947 
L 118.744515 144.900476 
L 118.946872 141.020669 
L 119.149229 144.690757 
L 119.756301 182.566064 
L 120.56573 261.923851 
L 120.970444 281.742325 
L 121.172801 285.831852 
L 121.375159 287.467663 
L 121.577516 286.020599 
L 121.779873 278.093209 
L 122.589302 227.089473 
L 123.196374 201.629549 
L 123.398731 197.057668 
L 123.601088 197.267387 
L 123.803445 196.701145 
L 124.410517 210.102209 
L 124.612874 221.070529 
L 125.219946 277.359192 
L 125.62466 291.89274 
L 125.827017 293.885073 
L 126.029374 291.34747 
L 127.04116 234.953947 
L 127.648232 197.540023 
L 128.255304 155.15575 
L 128.457661 147.605855 
L 128.660018 147.270304 
L 129.26709 191.604966 
L 130.278876 282.455371 
L 130.481233 290.277901 
L 130.68359 291.662049 
L 130.885947 289.082501 
L 132.504805 180.154292 
L 133.111877 137.476412 
L 133.314234 128.060015 
L 133.516591 129.758742 
L 133.921306 145.131167 
L 134.123663 152.555231 
L 135.135449 262.448149 
L 135.540163 275.073251 
L 135.74252 274.129514 
L 135.944878 263.538689 
L 136.349592 232.122737 
L 136.551949 225.348803 
L 136.754306 213.47869 
L 136.956664 218.050571 
L 137.159021 206.7467 
L 137.766092 197.917517 
L 137.96845 198.315984 
L 138.373164 192.905226 
L 138.777879 200.455121 
L 138.980236 201.293998 
L 139.182593 213.101195 
L 139.789665 269.746381 
L 140.194379 285.118806 
L 140.396736 287.195027 
L 140.599093 284.175069 
L 141.003808 253.954517 
L 141.408522 232.772867 
L 142.015594 219.371803 
L 142.622665 210.228041 
L 142.825023 209.955406 
L 143.02738 208.739034 
L 143.229737 209.431107 
L 143.634451 214.716034 
L 143.836809 213.47869 
L 144.039166 223.671049 
L 144.646238 273.038974 
L 145.050952 285.139778 
L 145.253309 286.440038 
L 145.455666 283.294248 
L 145.860381 253.618966 
L 146.062738 237.156 
L 146.66981 220.672062 
L 146.872167 217.987655 
L 147.074524 216.897115 
L 147.479238 205.781991 
L 147.681596 214.254652 
L 147.883953 215.240332 
L 148.08631 217.861824 
L 148.491024 227.194333 
L 148.693382 225.831157 
L 149.098096 249.508467 
L 149.502811 277.715715 
L 149.907525 290.865115 
L 150.109882 292.941337 
L 150.312239 292.354122 
L 150.514597 289.50194 
L 150.716954 283.734659 
L 151.121668 262.636896 
L 151.526383 241.916628 
L 151.931097 236.044488 
L 152.133454 235.604077 
L 152.335811 237.596411 
L 152.538169 238.120709 
L 152.740526 236.044488 
L 152.942883 236.338095 
L 153.14524 235.352414 
L 153.347597 235.394358 
L 153.549955 232.437316 
L 153.752312 234.66034 
L 154.764098 286.712673 
L 154.966455 290.718312 
L 155.168812 292.123431 
L 155.573527 288.138764 
L 155.775884 276.939753 
L 156.78767 198.106265 
L 157.799456 154.987975 
L 158.001813 157.022252 
L 158.406528 170.381372 
L 158.608885 184.097015 
L 159.215956 253.535078 
L 159.620671 275.38783 
L 159.823028 278.63848 
L 160.025385 277.715715 
L 160.227743 267.795991 
L 160.632457 234.953947 
L 161.8466 184.055071 
L 162.251315 173.883684 
L 162.453672 174.030488 
L 162.656029 176.924614 
L 163.465458 209.116528 
L 164.072529 269.683465 
L 164.477244 288.516259 
L 164.679601 288.85181 
L 164.881958 285.580189 
L 165.084316 275.303943 
L 165.48903 243.153972 
L 166.500816 207.648493 
L 167.310245 164.215624 
L 167.512602 167.613077 
L 167.917316 188.438205 
L 168.119674 192.94717 
L 168.322031 204.439788 
L 168.929102 264.566314 
L 169.333817 279.938739 
L 169.536174 283.503968 
L 169.738531 279.791936 
L 170.143246 252.171903 
L 170.54796 221.489968 
L 171.357389 176.379344 
L 171.559746 170.276512 
L 172.166818 145.781297 
L 172.369175 147.417108 
L 172.571532 155.428385 
L 173.178604 194.876587 
L 173.785675 266.831282 
L 174.19039 286.46101 
L 174.392747 289.480968 
L 174.595104 287.635438 
L 174.999819 263.140223 
L 175.404533 237.827102 
L 177.023391 158.616119 
L 177.225748 159.140417 
L 177.428105 163.104112 
L 177.630462 179.902629 
L 177.83282 182.377316 
L 178.237534 227.047529 
L 178.642248 270.50137 
L 179.046963 289.94235 
L 179.24932 293.717298 
L 179.451677 291.158722 
L 179.654034 282.350511 
L 180.261106 241.979544 
L 181.879964 143.74702 
L 182.082321 140.433455 
L 182.284678 146.179764 
L 183.094107 203.26536 
L 183.498821 242.79745 
L 183.903536 264.545342 
L 184.30825 272.493704 
L 184.510607 273.877851 
L 184.712965 270.186791 
L 184.915322 256.617952 
L 185.724751 173.464246 
L 186.129465 151.779269 
L 186.331822 145.634493 
L 186.53418 144.858532 
L 186.736537 147.438079 
L 187.748323 188.459176 
L 188.557752 253.577022 
L 188.962466 267.963767 
L 189.164823 270.039988 
L 189.36718 270.123876 
L 189.569538 269.368886 
L 189.771895 258.421538 
L 190.986038 161.006919 
L 191.188395 155.617133 
L 191.390752 155.575189 
L 191.795467 164.865754 
L 192.604896 196.659201 
L 193.414325 260.980114 
L 193.819039 274.905476 
L 194.021396 275.996016 
L 194.426111 271.969406 
L 194.628468 262.867588 
L 195.437897 200.979419 
L 195.640254 195.88324 
L 195.842611 197.120584 
L 196.247325 203.286332 
L 196.449683 203.873546 
L 196.65204 203.475079 
L 197.056754 211.821908 
L 197.259112 212.681757 
L 197.461469 221.238305 
L 198.06854 270.396511 
L 198.473255 284.825199 
L 198.675612 284.930059 
L 198.877969 281.218027 
L 199.282684 249.906934 
L 199.687398 226.691007 
L 201.306256 159.140417 
L 201.508613 157.965989 
L 202.115684 177.490857 
L 202.318042 188.836671 
L 202.925113 254.017433 
L 203.329828 271.969406 
L 203.532185 274.108543 
L 203.734542 271.067613 
L 203.936899 259.344303 
L 204.341614 224.761589 
L 205.758114 169.144028 
L 205.960471 166.606424 
L 206.162829 166.753228 
L 206.365186 168.200291 
L 206.7699 180.259151 
L 206.972257 183.509801 
L 207.174615 194.541036 
L 207.781686 254.625619 
L 208.186401 271.067613 
L 208.388758 274.171458 
L 208.591115 270.774005 
L 208.793472 258.694173 
L 209.198187 224.300206 
L 209.805258 201.629549 
L 210.209973 181.391636 
L 210.817044 138.965419 
L 211.019402 130.324984 
L 211.221759 133.344942 
L 211.626473 158.259596 
L 211.82883 163.565494 
L 212.031188 178.560425 
L 212.638259 244.768811 
L 213.042974 263.685493 
L 213.245331 267.754047 
L 213.447688 266.013377 
L 213.650045 255.107973 
L 214.257117 211.066918 
L 214.661831 184.243818 
L 215.47126 123.823685 
L 215.875975 106.794477 
L 216.078332 106.312123 
L 216.280689 111.953572 
L 217.090118 176.882671 
L 217.697189 239.924295 
L 218.101904 258.715145 
L 218.304261 262.13357 
L 218.506618 263.517717 
L 218.708976 262.23843 
L 218.911333 249.277776 
L 219.518404 193.49244 
L 220.125476 157.65141 
L 220.327833 155.449357 
L 220.53019 157.714326 
L 221.541976 200.790672 
L 221.744334 206.033655 
L 222.553762 263.958128 
L 222.958477 275.031307 
L 223.160834 276.771978 
L 223.363191 277.128501 
L 223.565549 275.534634 
L 223.767906 266.663507 
L 224.374977 227.760575 
L 224.779692 220.042904 
L 225.386763 222.140098 
L 225.589121 225.726298 
L 225.791478 226.628091 
L 226.196192 235.163667 
L 226.398549 234.807144 
L 226.600907 241.350386 
L 227.410335 295.940323 
L 227.612693 300.050821 
L 227.81505 301.770519 
L 228.017407 298.51987 
L 228.826836 255.149917 
L 229.029193 252.780089 
L 229.23155 246.92892 
L 230.648051 182.356345 
L 230.850408 182.943559 
L 231.255122 197.62391 
L 231.45748 208.718062 
L 232.064551 273.563272 
L 232.469266 291.053863 
L 232.671623 293.822158 
L 232.87398 292.584814 
L 233.278694 266.831282 
L 233.683409 243.88799 
L 235.302267 178.120014 
L 235.504624 177.511828 
L 236.111695 196.97378 
L 236.314053 207.522662 
L 236.921124 270.794977 
L 237.325839 286.964336 
L 237.528196 290.15207 
L 237.730553 287.991961 
L 238.135267 263.601605 
L 238.539982 241.413302 
L 239.349411 209.913462 
L 239.754125 199.721103 
L 240.15884 189.319026 
L 240.361197 189.067362 
L 240.563554 194.624924 
L 240.968268 212.555925 
L 241.170626 220.273596 
L 241.777697 276.834894 
L 242.182412 292.98328 
L 242.384769 295.520884 
L 242.587126 292.479954 
L 242.99184 267.313637 
L 243.396555 249.026113 
L 245.21777 173.002863 
L 245.420127 177.323081 
L 246.027199 204.607563 
L 246.836627 279.435413 
L 247.038985 287.950017 
L 247.241342 291.179694 
L 247.443699 288.600147 
L 247.848413 264.608258 
L 249.467271 150.562897 
L 249.669628 142.3419 
L 249.871985 140.370539 
L 250.074343 140.538314 
L 250.2767 147.605855 
L 250.883772 180.301095 
L 251.6932 256.638924 
L 252.097915 271.424135 
L 252.300272 274.548953 
L 252.502629 274.821588 
L 252.704986 270.878865 
L 253.109701 237.533495 
L 253.91913 162.999252 
L 254.323844 146.913781 
L 254.728558 137.937795 
L 254.930916 136.658507 
L 255.133273 144.29229 
L 255.740345 182.440232 
L 256.549773 259.008752 
L 256.954488 274.758672 
L 257.156845 278.63848 
L 257.359202 280.337206 
L 257.561559 279.351525 
L 257.966274 249.948878 
L 258.573345 198.651535 
L 258.97806 176.589064 
L 259.382774 165.36908 
L 259.585131 161.866768 
L 259.787489 161.426357 
L 259.989846 164.089793 
L 260.39456 180.364011 
L 260.596917 193.953822 
L 261.203989 257.058363 
L 261.608704 276.100876 
L 261.811061 279.07889 
L 262.013418 278.281957 
L 262.418132 253.891601 
L 262.62049 241.664965 
L 263.025204 231.82913 
L 263.227561 228.976947 
L 263.429918 227.949322 
L 263.834633 229.249582 
L 264.03699 228.935003 
L 264.239347 229.899712 
L 264.441704 229.9836 
L 264.644062 229.710965 
L 264.846419 231.787186 
L 265.048776 235.897684 
L 265.251133 235.897684 
L 265.45349 239.987211 
L 266.060562 283.210361 
L 266.465277 296.275874 
L 266.667634 297.848768 
L 266.869991 293.591466 
L 267.072348 285.496301 
L 267.477063 258.526398 
L 268.084134 235.9606 
L 268.488849 225.495607 
L 269.09592 214.044932 
L 269.500635 210.018321 
L 269.702992 212.241346 
L 269.905349 215.911434 
L 270.107706 216.603508 
L 270.310063 223.020919 
L 270.917135 272.745367 
L 271.32185 284.930059 
L 271.524207 287.11114 
L 271.726564 285.370469 
L 274.15485 141.272332 
L 274.357208 133.9741 
L 274.559565 137.371553 
L 275.166636 162.97828 
L 275.976065 246.006155 
L 276.38078 258.799033 
L 276.583137 258.085987 
L 276.987851 235.85574 
L 277.392566 206.432121 
L 278.404352 148.465704 
L 278.606709 145.361858 
L 279.011423 131.897879 
L 279.213781 130.262068 
L 279.416138 134.603258 
L 280.023209 177.071418 
L 280.630281 249.697215 
L 281.034995 272.892171 
L 281.237353 277.862518 
L 281.43971 276.289623 
L 281.642067 270.291651 
L 282.249139 227.781547 
L 282.85621 193.534384 
L 283.867996 149.975683 
L 284.070354 148.759311 
L 284.272711 157.064196 
L 285.284497 241.643993 
L 285.689211 274.40215 
L 286.093926 289.418052 
L 286.296283 291.745936 
L 286.49864 289.900407 
L 286.700997 286.90142 
L 287.105712 255.317692 
L 287.712783 202.824949 
L 288.522212 158.595147 
L 288.724569 151.338859 
L 288.926927 149.367497 
L 289.129284 153.016613 
L 289.736355 187.452524 
L 290.545784 258.820005 
L 290.950499 274.381178 
L 291.152856 277.212388 
L 291.355213 277.296276 
L 291.55757 275.786297 
L 291.759927 263.077307 
L 292.771714 162.579814 
L 293.176428 140.181791 
L 293.581142 128.731117 
L 293.7835 126.969475 
L 293.985857 130.555675 
L 294.592928 156.560869 
L 295.402357 241.39233 
L 295.807072 256.366289 
L 296.009429 256.198513 
L 296.414143 235.52019 
L 297.830644 97.860435 
L 298.235358 84.291595 
L 298.437715 81.649132 
L 298.640073 81.921767 
L 298.84243 84.01896 
L 299.044787 92.218985 
L 299.449501 119.734159 
L 300.056573 200.329289 
L 300.461287 226.082821 
L 300.663645 232.227596 
L 300.866002 232.961614 
L 301.068359 225.998933 
L 301.473073 195.33797 
L 302.484859 87.898767 
L 302.687217 76.343233 
L 302.889574 76.448093 
L 303.091931 84.711034 
L 303.496646 93.540217 
L 303.90136 116.252818 
L 304.306074 144.774644 
L 304.913146 215.42908 
L 305.31786 241.308442 
L 305.520218 246.991836 
L 305.722575 245.167278 
L 305.924932 237.890018 
L 306.532004 197.099612 
L 307.54379 125.627271 
L 307.746147 115.204222 
L 307.948504 114.302429 
L 308.757933 147.249332 
L 309.162647 173.862712 
L 309.769719 238.183625 
L 310.174433 258.484454 
L 310.376791 262.972447 
L 310.579148 262.385233 
L 310.983862 238.477232 
L 312.198005 132.254401 
L 312.60272 120.384289 
L 312.805077 115.917267 
L 313.007434 116.483509 
L 313.209791 120.258457 
L 313.816863 148.42376 
L 314.01922 162.391066 
L 314.626292 226.29254 
L 315.031006 247.222527 
L 315.233364 251.899268 
L 315.435721 251.228166 
L 315.840435 232.059821 
L 316.24515 212.954392 
L 316.649864 200.685812 
L 317.054578 185.061724 
L 317.66165 177.385997 
L 317.864007 176.924614 
L 318.066364 176.001849 
L 318.268722 180.78345 
L 318.875793 203.391191 
L 319.685222 263.22411 
L 320.089937 276.268651 
L 320.292294 277.946406 
L 320.697008 269.851241 
L 321.101723 243.070085 
L 322.315866 163.502579 
L 322.72058 153.037585 
L 322.922937 150.667757 
L 323.125295 154.883115 
L 323.732366 183.090362 
L 324.541795 253.073696 
L 324.94651 267.67016 
L 325.148867 270.627202 
L 325.351224 270.690118 
L 325.553581 268.383205 
L 325.755938 255.800047 
L 326.970082 141.020669 
L 327.172439 134.561314 
L 327.374796 132.946475 
L 327.77951 127.263082 
L 327.981868 132.359261 
L 328.184225 141.335248 
L 328.791296 194.079654 
L 329.196011 238.728895 
L 329.398368 254.290068 
L 329.803083 264.608258 
L 330.00544 263.643549 
L 330.207797 257.918212 
L 330.814869 208.382511 
L 331.42194 169.353747 
L 331.826655 146.200736 
L 332.029012 143.243693 
L 332.231369 143.264665 
L 332.433726 143.453413 
L 332.636083 145.59255 
L 332.838441 150.227346 
L 333.243155 173.632021 
L 333.445512 182.838699 
L 334.052584 249.948878 
L 334.457298 272.200097 
L 334.659655 277.736687 
L 334.862013 275.282971 
L 335.266727 255.024085 
L 335.671442 230.151375 
L 336.48087 189.193194 
L 336.683228 184.013127 
L 336.885585 182.880643 
L 337.087942 176.568092 
L 337.290299 174.680618 
L 337.695014 181.286776 
L 338.099728 196.051015 
L 338.302085 202.048988 
L 339.111514 269.264026 
L 339.313871 275.59755 
L 339.516228 277.88349 
L 339.718586 273.731048 
L 340.1233 249.885962 
L 340.932729 204.481732 
L 342.349229 141.419135 
L 342.551587 141.335248 
L 343.158658 166.543509 
L 343.76573 230.63373 
L 344.170444 249.026113 
L 344.372801 253.891601 
L 344.575159 251.71052 
L 344.777516 244.64298 
L 345.18223 213.101195 
L 346.194016 128.710145 
L 346.598731 113.631327 
L 347.003445 106.878365 
L 347.205802 106.018516 
L 347.40816 109.269165 
L 347.610517 117.280443 
L 348.015231 143.935767 
L 348.82466 236.988225 
L 349.229374 254.457843 
L 349.431732 253.681882 
L 349.634089 247.767797 
L 349.836446 236.401011 
L 351.050589 129.758742 
L 351.455304 111.009835 
L 351.860018 101.970933 
L 352.062375 101.048168 
L 352.264733 104.7602 
L 352.46709 116.085043 
L 353.276519 200.937475 
L 353.681233 239.672632 
L 354.085947 260.28804 
L 354.288305 265.677826 
L 354.490662 266.26504 
L 354.693019 263.9791 
L 355.097733 221.049557 
L 355.704805 145.655465 
L 356.109519 120.426232 
L 356.716591 101.845102 
L 356.918948 100.733589 
L 357.121306 105.641021 
L 357.52602 131.813991 
L 357.728377 144.774644 
L 358.740163 242.294123 
L 359.144878 255.548384 
L 359.347235 257.456829 
L 359.549592 257.121278 
L 359.751949 242.818422 
L 360.763735 119.608327 
L 361.16845 100.125403 
L 361.573164 88.779589 
L 361.775521 86.430732 
L 361.977879 89.786241 
L 362.180236 96.93767 
L 362.58495 123.278415 
L 363.394379 213.940073 
L 363.799093 231.975933 
L 364.001451 232.81481 
L 364.203808 226.795866 
L 364.406165 216.51962 
L 365.013237 145.424774 
L 365.620308 79.447079 
L 366.025023 62.921198 
L 366.429737 56.608646 
L 366.632094 57.111973 
L 366.834451 59.817352 
L 367.036809 68.730423 
L 367.441523 98.57348 
L 368.048595 179.986516 
L 368.453309 211.19275 
L 368.655666 219.917073 
L 368.858024 222.349817 
L 369.060381 218.36515 
L 369.262738 208.277651 
L 369.86981 143.306609 
L 370.476881 83.809241 
L 370.881596 66.801005 
L 371.083953 66.339622 
L 371.28631 67.07364 
L 371.488667 71.100251 
L 371.691024 77.475718 
L 372.298096 117.36433 
L 373.107525 204.3559 
L 373.512239 227.110445 
L 373.714597 231.577467 
L 374.119311 230.864421 
L 374.321668 217.81988 
L 375.333454 111.534134 
L 375.738169 97.965294 
L 375.940526 95.196999 
L 376.142883 94.064515 
L 376.34524 99.370414 
L 376.749955 126.235457 
L 377.559383 186.550731 
L 377.964098 222.035238 
L 378.368812 236.170319 
L 378.57117 236.401011 
L 378.773527 230.319151 
L 378.975884 218.826532 
L 380.392384 99.349442 
L 380.797099 89.178055 
L 381.201813 81.397469 
L 381.40417 85.256304 
L 382.011242 123.194527 
L 382.820671 208.109876 
L 383.225385 224.614785 
L 383.427743 225.285887 
L 383.6301 219.812213 
L 384.034814 197.015724 
L 385.0466 121.747464 
L 385.451315 104.634368 
L 385.653672 104.152014 
L 385.856029 108.031821 
L 386.058386 115.854351 
L 387.070172 187.599327 
L 387.474887 228.725284 
L 387.879601 251.16525 
L 388.284316 260.539703 
L 388.68903 263.119251 
L 388.891387 257.226138 
L 389.700816 212.576897 
L 390.307888 201.084279 
L 390.914959 188.018766 
L 391.117316 192.926198 
L 391.926745 233.506884 
L 392.533817 278.827227 
L 392.938531 291.515245 
L 393.140888 293.423691 
L 393.343246 292.962308 
L 393.545603 293.444663 
L 393.74796 284.258957 
L 394.355032 242.04246 
L 395.569175 184.117987 
L 395.771532 177.952239 
L 395.973889 179.189583 
L 396.176247 187.725159 
L 396.783318 230.843449 
L 397.188033 270.354567 
L 397.592747 288.642091 
L 397.795104 291.494273 
L 397.997461 288.893754 
L 398.402176 270.291651 
L 400.628105 139.384858 
L 400.830462 142.299956 
L 401.03282 152.513287 
L 401.639891 211.024974 
L 402.044606 256.513092 
L 402.44932 277.359192 
L 402.651677 281.46969 
L 402.854034 279.770964 
L 403.258749 261.105945 
L 403.663463 231.954961 
L 404.877607 123.173555 
L 405.282321 102.117737 
L 405.484678 97.797519 
L 405.687035 98.909031 
L 405.889393 109.688604 
L 406.294107 148.025294 
L 406.901179 227.445996 
L 407.305893 252.129959 
L 407.50825 257.876268 
L 407.710607 257.330998 
L 408.115322 235.541161 
L 409.73418 99.831796 
L 409.936537 94.777561 
L 410.138894 94.630757 
L 410.341251 99.349442 
L 410.948323 136.385872 
L 411.15068 152.702034 
L 411.757752 225.118112 
L 412.162466 249.802075 
L 412.364823 256.450177 
L 412.56718 258.274735 
L 412.971895 239.75652 
L 414.388395 139.133195 
L 414.79311 125.249777 
L 415.197824 118.412927 
L 415.400181 125.354636 
L 416.20961 189.507773 
L 416.614325 235.897684 
L 417.019039 259.554022 
L 417.221396 263.916184 
L 417.423753 263.349942 
L 417.828468 246.782116 
L 419.244968 146.557258 
L 419.649683 132.610924 
L 419.85204 128.689173 
L 420.054397 130.157208 
L 420.256754 139.028335 
L 421.066183 205.907823 
L 421.673255 262.322317 
L 422.077969 278.785283 
L 422.280326 281.322887 
L 422.482684 280.651785 
L 422.685041 280.48401 
L 423.089755 249.005141 
L 423.899184 178.329734 
L 424.708613 138.10557 
L 424.91097 134.854921 
L 425.113327 138.944447 
L 425.518042 165.662687 
L 425.720399 177.721548 
L 426.529828 253.996461 
L 426.934542 272.976058 
L 427.136899 277.547939 
L 427.339257 278.365845 
L 427.541614 278.596536 
L 427.743971 269.809297 
L 428.148685 228.57848 
L 428.755757 165.348109 
L 429.160471 139.154167 
L 429.565186 130.72345 
L 429.9699 134.729089 
L 430.374615 151.296915 
L 430.576972 163.188 
L 431.386401 240.805116 
L 431.791115 253.304387 
L 431.993472 251.228166 
L 432.398187 230.486926 
L 433.207616 164.005905 
L 434.017044 92.135098 
L 434.219402 87.143778 
L 435.02883 115.141306 
L 435.433545 140.664146 
L 436.040617 213.37383 
L 436.445331 236.380039 
L 436.647688 241.623021 
L 436.850045 240.930948 
L 437.25476 219.896101 
L 437.659474 184.243818 
L 438.468903 109.227221 
L 438.67126 99.286526 
L 438.873617 100.272207 
L 439.075975 107.528495 
L 439.278332 107.067112 
L 439.480689 109.353053 
L 439.885403 128.290707 
L 440.290118 153.561883 
L 440.897189 228.515565 
L 441.301904 251.291082 
L 441.504261 256.827671 
L 441.706618 257.372942 
L 442.111333 242.336067 
L 442.920762 189.235138 
L 443.527833 153.645771 
L 444.134905 130.429843 
L 444.337262 127.78738 
L 444.539619 134.330623 
L 445.146691 180.322067 
L 445.753762 250.934559 
L 446.158477 272.577592 
L 446.360834 277.631827 
L 446.563191 275.59755 
L 446.967906 256.303373 
L 448.586763 144.250346 
L 448.991478 130.786366 
L 449.193835 128.416538 
L 449.396192 135.211444 
L 450.003264 176.421288 
L 450.812693 258.106959 
L 451.217407 271.675799 
L 451.419764 271.80163 
L 451.824479 254.269096 
L 452.43155 202.824949 
L 453.038622 160.063182 
L 453.443336 142.677451 
L 453.848051 134.645202 
L 454.050408 138.084598 
L 454.252765 148.276957 
L 454.65748 177.260165 
L 454.859837 185.879629 
L 455.669266 251.92024 
L 456.07398 265.740742 
L 456.276337 267.292665 
L 456.478694 265.258388 
L 456.681052 262.091626 
L 456.883409 253.933545 
L 457.288123 226.376428 
L 457.692838 215.198388 
L 457.895195 215.911434 
L 458.299909 221.783575 
L 458.502267 221.636771 
L 458.906981 217.735992 
L 459.109338 218.281262 
L 459.514053 222.517592 
L 459.71641 226.900726 
L 460.728196 285.768936 
L 461.13291 290.277901 
L 461.537625 286.90142 
L 461.739982 277.799602 
L 462.144696 242.608702 
L 463.561197 172.059126 
L 463.763554 164.656035 
L 463.965911 165.851435 
L 464.572983 185.711853 
L 465.382412 254.017433 
L 465.584769 261.064001 
L 465.787126 263.832296 
L 465.989483 261.357608 
L 467.608341 166.983919 
L 468.620127 145.38283 
L 468.822484 148.570564 
L 469.429556 175.330748 
L 470.036627 233.171333 
L 470.441342 251.312054 
L 470.643699 253.996461 
L 470.846056 251.374969 
L 471.857842 199.448468 
L 472.869628 168.598758 
L 473.071985 169.102084 
L 473.274343 167.277526 
L 473.4767 168.556814 
L 473.679057 172.415649 
L 473.881414 179.126667 
L 474.083772 180.301095 
L 474.286129 188.123626 
L 474.8932 241.266499 
L 475.297915 257.834324 
L 475.500272 259.53305 
L 475.702629 257.456829 
L 476.107344 232.605091 
L 476.512058 210.165125 
L 477.321487 178.057099 
L 477.726201 157.504606 
L 477.928558 153.876462 
L 478.333273 158.658063 
L 478.53563 163.208972 
L 479.142702 188.626952 
L 479.952131 257.729464 
L 480.356845 267.775019 
L 480.559202 267.355581 
L 480.963917 244.831727 
L 482.785131 113.924934 
L 482.987489 107.90599 
L 483.189846 105.221582 
L 483.392203 110.967892 
L 483.999275 151.611494 
L 484.606346 224.111459 
L 485.011061 247.788769 
L 485.213418 252.276762 
L 485.415775 253.241471 
L 485.82049 233.087446 
L 486.225204 201.273026 
L 487.23699 109.5418 
L 487.439347 106.396011 
L 487.844062 113.086057 
L 488.248776 132.065654 
L 489.260562 211.108862 
L 489.665277 243.88799 
L 490.069991 259.281387 
L 490.272348 261.672187 
L 490.474705 260.518731 
L 490.677063 258.715145 
L 490.87942 248.795422 
L 491.891206 167.529189 
L 492.29592 149.472357 
L 492.498277 141.943434 
L 492.700635 139.888184 
L 492.902992 141.544967 
L 493.105349 146.452399 
L 493.712421 180.615674 
L 494.52185 253.996461 
L 495.128921 272.619535 
L 495.331278 272.766339 
L 495.533636 272.137181 
L 495.735993 264.440482 
L 496.950136 171.178305 
L 497.557208 146.347539 
L 497.759565 142.929114 
L 497.961922 146.200736 
L 498.568994 178.308762 
L 499.378422 253.535078 
L 499.58078 260.497759 
L 499.783137 263.035363 
L 499.985494 259.658882 
L 500.187851 250.976503 
L 500.794923 213.352859 
L 500.99728 208.15182 
L 501.401995 194.813672 
L 501.806709 183.342025 
L 502.009066 182.880643 
L 502.211423 184.977836 
L 502.413781 185.627966 
L 502.616138 183.929239 
L 503.020852 193.827991 
L 503.223209 194.394233 
L 503.425567 202.048988 
L 504.032638 253.702854 
L 504.437353 267.02003 
L 504.63971 268.676812 
L 504.842067 266.26504 
L 505.246782 241.434274 
L 505.651496 217.16975 
L 507.270354 142.635507 
L 507.472711 139.468746 
L 507.675068 142.929114 
L 508.28214 171.492884 
L 508.889211 230.612758 
L 509.293926 248.061404 
L 509.496283 251.647604 
L 509.69864 249.781103 
L 510.103354 225.789214 
L 511.722212 117.406274 
L 512.126927 99.307498 
L 512.329284 100.922337 
L 512.936355 135.945461 
L 513.34107 175.624355 
L 513.745784 219.917073 
L 514.150499 243.070085 
L 514.352856 248.753478 
L 514.555213 249.256804 
L 514.75757 240.19693 
L 516.174071 141.607883 
L 516.376428 140.49637 
L 516.781142 149.996655 
L 516.9835 147.207388 
L 517.185857 147.752658 
L 517.590571 165.788519 
L 517.792928 170.108737 
L 517.995286 181.014141 
L 518.4 221.427052 
L 518.4 221.427052 
" clip-path="url(#pd5037bcdcc)" style="fill: none; stroke: #1f77b4; stroke-width: 1.5; stroke-linecap: square"/>
   </g>
   <g id="line2d_14">
    <path d="M 72 272.977323 
L 72.202357 272.977323 
L 72.607072 281.932708 
L 72.809429 282.574169 
L 73.011786 275.684969 
L 73.618858 238.838488 
L 74.225929 214.169834 
L 75.035358 170.431232 
L 75.237715 164.986319 
L 75.440073 162.976151 
L 75.64243 165.481614 
L 76.047144 185.93165 
L 76.451859 230.436444 
L 76.856573 268.738965 
L 77.261287 277.604248 
L 77.463645 277.775261 
L 77.666002 273.08632 
L 78.677788 218.584119 
L 78.880145 212.698307 
L 79.891931 156.196822 
L 80.094288 156.287128 
L 80.296646 160.011853 
L 80.499003 166.63849 
L 80.903717 193.819784 
L 81.510789 251.853353 
L 81.915503 277.328748 
L 82.11786 283.016287 
L 82.320218 284.525459 
L 82.927289 268.218358 
L 83.129646 260.321592 
L 83.534361 236.94362 
L 83.736718 231.001584 
L 83.939075 229.335406 
L 84.546147 234.339518 
L 84.950861 243.232709 
L 85.153218 244.095618 
L 85.557933 250.28478 
L 85.76029 254.82548 
L 86.367362 286.517698 
L 86.772076 303.86374 
L 86.974433 307.8 
L 87.176791 305.932697 
L 87.581505 294.708483 
L 88.390934 262.851989 
L 88.795648 254.829735 
L 88.998005 252.722358 
L 89.200363 252.499875 
L 89.40272 251.599929 
L 90.212149 232.23538 
L 90.414506 233.578947 
L 90.616863 236.824367 
L 90.81922 246.70344 
L 91.426292 298.557093 
L 91.628649 305.81022 
L 91.831006 304.985063 
L 92.235721 289.717508 
L 92.842792 249.972873 
L 93.04515 246.508834 
L 93.247507 245.983003 
L 93.449864 244.567724 
L 93.854578 233.725558 
L 94.46165 225.60007 
L 94.664007 224.248739 
L 94.866364 224.515929 
L 95.068722 226.818019 
L 95.473436 237.208578 
L 95.675793 249.167595 
L 96.080508 285.051558 
L 96.282865 296.232243 
L 96.485222 298.203039 
L 96.687579 296.809299 
L 96.889937 292.352788 
L 97.294651 270.994142 
L 97.699365 244.598216 
L 97.901723 242.140798 
L 98.10408 241.055229 
L 98.306437 241.083944 
L 99.52058 219.769849 
L 99.925295 223.317032 
L 100.330009 236.590385 
L 100.734723 268.6462 
L 101.139438 293.590198 
L 101.341795 298.650012 
L 101.544152 298.411491 
L 101.74651 293.553212 
L 102.151224 270.153308 
L 102.555938 246.641132 
L 102.758296 244.149957 
L 103.16301 242.625566 
L 103.567724 235.828362 
L 103.972439 224.946943 
L 104.174796 218.245965 
L 104.377153 215.811659 
L 104.781868 218.616911 
L 105.186582 234.145296 
L 106.198368 296.036341 
L 106.400725 296.328621 
L 106.603083 292.167256 
L 107.007797 269.41919 
L 107.412511 245.54865 
L 107.614869 241.929473 
L 107.817226 240.77791 
L 108.019583 238.624971 
L 108.22194 234.006257 
L 109.031369 196.611307 
L 109.233726 197.461813 
L 110.043155 229.550297 
L 110.852584 285.449255 
L 111.054941 291.384513 
L 111.257298 292.614573 
L 111.459655 290.94423 
L 111.662013 282.861709 
L 112.471442 237.365379 
L 113.28087 203.837992 
L 113.887942 178.379286 
L 114.090299 176.02038 
L 114.292656 178.532638 
L 114.697371 197.29381 
L 115.911514 281.661584 
L 116.113871 285.539651 
L 116.316228 285.35289 
L 116.720943 272.245555 
L 117.125657 257.429461 
L 117.530372 231.257035 
L 118.339801 172.171085 
L 118.744515 151.392907 
L 118.946872 146.325908 
L 119.149229 147.884126 
L 119.351587 154.192211 
L 119.756301 183.588125 
L 120.768087 271.756335 
L 120.970444 280.507231 
L 121.172801 283.601605 
L 121.375159 280.272061 
L 121.779873 268.817398 
L 122.184587 243.931121 
L 122.589302 219.974221 
L 123.196374 200.846969 
L 123.601088 193.900013 
L 124.005802 197.939873 
L 124.612874 218.484807 
L 125.62466 295.389803 
L 125.827017 297.787365 
L 126.029374 294.276863 
L 126.231732 287.597237 
L 126.636446 257.064332 
L 127.243518 217.111392 
L 127.850589 186.38548 
L 128.457661 152.29398 
L 128.660018 148.52651 
L 128.862375 152.48787 
L 129.26709 181.909991 
L 130.278876 281.609857 
L 130.481233 285.768488 
L 130.68359 286.699878 
L 130.885947 283.036748 
L 131.088305 275.281316 
L 131.493019 245.92457 
L 132.100091 207.111223 
L 132.707162 171.111727 
L 133.111877 145.679594 
L 133.314234 138.781597 
L 133.516591 137.625574 
L 133.718948 143.275471 
L 134.123663 161.791111 
L 134.32602 177.215683 
L 134.933092 250.695429 
L 135.337806 271.223859 
L 135.540163 273.842728 
L 135.74252 271.576689 
L 135.944878 263.999698 
L 136.956664 197.09074 
L 137.159021 202.14655 
L 137.361378 197.600831 
L 137.563735 198.121031 
L 137.766092 196.696699 
L 137.96845 192.475946 
L 138.170807 195.165133 
L 138.575521 197.572553 
L 138.777879 199.355995 
L 138.980236 205.487591 
L 139.182593 215.687539 
L 139.992022 280.692584 
L 140.194379 286.61649 
L 140.396736 286.599481 
L 140.599093 284.873645 
L 141.003808 263.918953 
L 141.610879 223.760653 
L 141.813237 217.007718 
L 142.217951 213.348081 
L 142.420308 212.754582 
L 142.622665 212.598038 
L 142.825023 208.437648 
L 143.02738 207.489237 
L 143.229737 208.310841 
L 143.836809 218.060969 
L 144.039166 223.308957 
L 145.050952 284.044519 
L 145.253309 285.203141 
L 145.658024 270.703971 
L 146.467452 219.468055 
L 146.66981 214.203902 
L 146.872167 211.915674 
L 147.074524 211.929026 
L 147.276881 211.781577 
L 147.479238 208.629453 
L 147.681596 203.395453 
L 148.895739 234.414118 
L 149.705168 278.217112 
L 149.907525 284.467813 
L 150.109882 286.177302 
L 150.312239 282.228753 
L 151.121668 253.388997 
L 151.72874 231.40871 
L 151.931097 230.234315 
L 152.133454 229.860691 
L 152.538169 231.516357 
L 152.740526 231.686687 
L 152.942883 232.017659 
L 153.14524 233.366708 
L 153.347597 232.447253 
L 153.549955 233.926038 
L 153.954669 244.074856 
L 154.561741 274.863138 
L 154.764098 285.755926 
L 154.966455 288.885 
L 155.168812 288.043757 
L 155.573527 273.495828 
L 155.978241 259.199803 
L 156.585313 217.999742 
L 156.990027 190.748345 
L 157.799456 159.401165 
L 158.001813 156.411619 
L 158.20417 160.190708 
L 158.608885 182.814294 
L 159.620671 278.006711 
L 159.823028 281.992545 
L 160.025385 278.193293 
L 160.4301 254.524689 
L 161.037171 210.809798 
L 161.441886 192.655378 
L 162.048957 177.318737 
L 162.453672 170.846391 
L 162.656029 173.388586 
L 163.060743 190.417861 
L 163.465458 211.929843 
L 163.667815 224.975567 
L 164.072529 264.859389 
L 164.477244 285.347685 
L 164.679601 287.534629 
L 164.881958 282.652238 
L 165.286673 261.528319 
L 165.691387 228.305891 
L 166.096102 216.22093 
L 166.298459 214.731767 
L 166.500816 211.93764 
L 166.703173 206.381234 
L 167.512602 166.794176 
L 167.714959 171.660364 
L 168.322031 208.449782 
L 169.333817 279.145266 
L 169.536174 280.297269 
L 169.738531 278.796015 
L 169.940888 271.213704 
L 171.357389 173.923775 
L 171.762103 162.057648 
L 172.166818 151.875439 
L 172.369175 152.358328 
L 172.773889 167.993486 
L 173.178604 196.529455 
L 173.988033 272.084798 
L 174.19039 282.640026 
L 174.392747 286.049397 
L 174.595104 283.592081 
L 174.797461 273.958198 
L 175.60689 222.1109 
L 177.023391 167.732969 
L 177.225748 164.53398 
L 177.428105 167.824998 
L 177.630462 174.215488 
L 178.035177 200.304153 
L 178.844606 281.805058 
L 179.046963 289.190518 
L 179.24932 291.639329 
L 179.451677 288.72574 
L 179.654034 281.8132 
L 181.879964 149.396999 
L 182.082321 147.153964 
L 182.487035 157.297065 
L 182.89175 187.66519 
L 183.498821 246.93638 
L 183.903536 267.146991 
L 184.105893 271.607471 
L 184.30825 269.866188 
L 184.915322 252.274681 
L 185.320036 219.696077 
L 185.927108 161.058522 
L 186.331822 141.168947 
L 186.53418 139.7236 
L 186.736537 140.924285 
L 186.938894 146.870501 
L 188.962466 270.593547 
L 189.164823 271.464297 
L 189.569538 258.865294 
L 189.771895 252.701014 
L 190.581324 197.222164 
L 190.986038 164.537681 
L 191.188395 157.945686 
L 191.390752 155.455537 
L 191.59311 155.955339 
L 191.795467 161.538926 
L 192.200181 183.249883 
L 193.00961 228.150844 
L 193.616682 270.368525 
L 193.819039 276.109321 
L 194.021396 277.00303 
L 194.223753 271.935304 
L 194.830825 243.216162 
L 195.640254 191.667691 
L 195.842611 187.121646 
L 196.044968 190.534156 
L 196.449683 203.672242 
L 196.65204 208.41624 
L 196.854397 210.182497 
L 197.461469 222.174586 
L 197.866183 246.402178 
L 198.473255 287.369082 
L 198.675612 290.354828 
L 198.877969 284.594921 
L 199.282684 259.699988 
L 199.687398 222.828184 
L 200.092112 205.120438 
L 200.496827 195.358085 
L 201.306256 166.113067 
L 201.508613 163.723882 
L 201.71097 166.296792 
L 202.115684 183.436405 
L 202.520399 208.328086 
L 202.925113 255.333034 
L 203.329828 272.846258 
L 203.532185 272.543658 
L 203.734542 266.129372 
L 204.139257 243.293056 
L 204.543971 212.549214 
L 204.948685 194.390505 
L 205.3534 187.774809 
L 205.960471 167.839112 
L 206.162829 165.08098 
L 206.365186 169.265889 
L 207.174615 198.913899 
L 207.984044 262.278201 
L 208.186401 270.264165 
L 208.388758 272.326714 
L 208.591115 269.864175 
L 208.793472 260.659652 
L 209.805258 196.445946 
L 210.614687 168.537865 
L 211.019402 143.852068 
L 211.221759 138.54902 
L 211.424116 142.383896 
L 212.031188 180.737122 
L 212.840617 255.476149 
L 213.042974 264.368251 
L 213.245331 266.954395 
L 213.447688 262.956877 
L 213.650045 254.931856 
L 214.864189 172.352192 
L 215.673617 123.256647 
L 215.875975 115.104109 
L 216.078332 114.199061 
L 216.280689 119.010537 
L 216.483046 127.934911 
L 216.887761 159.03926 
L 217.697189 238.457583 
L 218.101904 258.728165 
L 218.304261 258.815656 
L 219.11369 227.729487 
L 220.125476 156.568407 
L 220.327833 151.035452 
L 220.53019 150.911057 
L 220.732548 153.93337 
L 221.137262 178.374464 
L 221.744334 210.002614 
L 222.149048 238.535496 
L 222.75612 277.278218 
L 222.958477 281.812862 
L 223.160834 281.272035 
L 223.767906 263.150652 
L 223.970263 253.309055 
L 224.577335 215.479212 
L 224.982049 211.914274 
L 225.791478 226.532913 
L 225.993835 227.742764 
L 226.196192 230.906105 
L 226.398549 237.386548 
L 226.600907 240.281414 
L 227.005621 260.426846 
L 227.612693 300.182531 
L 227.81505 302.223261 
L 228.017407 298.032523 
L 228.219764 290.334723 
L 228.826836 248.247137 
L 229.029193 241.101679 
L 229.23155 240.274703 
L 229.433908 237.674843 
L 229.636265 230.759379 
L 230.243336 200.342655 
L 230.648051 187.849877 
L 230.850408 186.717677 
L 231.052765 187.620726 
L 231.45748 206.641987 
L 231.862194 248.80618 
L 232.266908 282.452252 
L 232.469266 288.261548 
L 232.671623 288.775964 
L 232.87398 285.430227 
L 233.076337 278.153102 
L 234.088123 224.94088 
L 234.695195 199.901664 
L 235.099909 181.983987 
L 235.302267 176.063702 
L 235.504624 175.783988 
L 235.706981 180.665621 
L 236.314053 210.66976 
L 237.325839 285.960581 
L 237.528196 287.069915 
L 237.730553 283.875825 
L 238.135267 264.327123 
L 238.742339 227.901852 
L 239.147053 211.369328 
L 239.754125 197.936712 
L 240.15884 192.16667 
L 240.361197 191.415387 
L 240.765911 198.851133 
L 241.170626 221.262075 
L 241.980054 280.537961 
L 242.182412 289.287507 
L 242.384769 291.500104 
L 242.587126 288.661049 
L 242.99184 267.858902 
L 243.396555 238.841514 
L 244.610698 196.102373 
L 245.015413 182.151203 
L 245.21777 178.152946 
L 245.420127 179.941568 
L 245.622484 185.052026 
L 245.824841 193.011544 
L 246.431913 244.768252 
L 246.836627 273.616451 
L 247.038985 282.625909 
L 247.241342 286.522488 
L 247.443699 286.188348 
L 247.848413 264.81193 
L 248.455485 225.383491 
L 249.062557 183.572935 
L 249.669628 145.175925 
L 249.871985 139.264785 
L 250.074343 140.023231 
L 250.2767 147.07443 
L 250.681414 172.518288 
L 251.288486 227.456094 
L 251.6932 256.476071 
L 252.097915 271.080933 
L 252.300272 270.26714 
L 252.502629 266.022668 
L 252.907344 251.0891 
L 253.312058 220.510873 
L 254.121487 153.628533 
L 254.323844 146.016683 
L 254.526201 142.930743 
L 254.728558 142.040417 
L 254.930916 142.742275 
L 255.133273 147.394319 
L 255.537987 171.248687 
L 256.145059 223.649267 
L 256.752131 269.595344 
L 256.954488 277.54794 
L 257.156845 278.337818 
L 257.561559 266.02684 
L 257.966274 247.558774 
L 258.775703 188.492685 
L 259.180417 170.655932 
L 259.585131 163.949757 
L 259.787489 163.479469 
L 260.192203 175.609897 
L 260.596917 194.616743 
L 261.001632 231.188724 
L 261.406346 269.437307 
L 261.608704 278.956307 
L 261.811061 283.105141 
L 262.013418 281.374178 
L 262.215775 274.825055 
L 262.62049 247.375552 
L 263.025204 218.077108 
L 263.227561 213.475652 
L 263.632276 216.991463 
L 264.03699 222.461192 
L 264.239347 226.065548 
L 264.441704 227.553322 
L 264.644062 227.621744 
L 264.846419 228.262912 
L 265.048776 230.377755 
L 265.45349 242.324215 
L 265.655848 251.661958 
L 266.262919 289.719725 
L 266.465277 294.164171 
L 266.667634 294.201361 
L 266.869991 289.775657 
L 267.274705 271.794455 
L 267.67942 246.29334 
L 268.893563 216.562307 
L 269.298277 209.169334 
L 269.500635 208.121583 
L 269.905349 213.565901 
L 270.310063 226.632835 
L 270.714778 251.878022 
L 271.119492 277.50108 
L 271.32185 283.17068 
L 271.524207 283.10202 
L 271.726564 280.286821 
L 271.928921 271.585646 
L 272.535993 231.900296 
L 273.143064 205.249859 
L 274.15485 150.472627 
L 274.357208 145.019493 
L 274.559565 143.971908 
L 274.761922 149.726896 
L 275.166636 171.610143 
L 275.571351 210.667879 
L 275.976065 247.733272 
L 276.178422 257.922823 
L 276.38078 260.808952 
L 276.583137 255.764463 
L 277.190209 221.387984 
L 277.999637 170.962236 
L 278.606709 145.536273 
L 279.011423 138.060729 
L 279.213781 137.081689 
L 279.416138 140.211942 
L 279.618495 147.163819 
L 280.023209 177.740635 
L 281.034995 270.058695 
L 281.237353 274.805396 
L 281.43971 273.688902 
L 282.249139 229.517846 
L 282.85621 191.340277 
L 283.867996 156.231744 
L 284.070354 153.520664 
L 284.272711 155.903465 
L 284.475068 163.788306 
L 284.879782 195.812552 
L 285.689211 272.847609 
L 285.891568 282.965547 
L 286.093926 286.533496 
L 286.296283 285.478081 
L 286.49864 282.040795 
L 286.903354 267.770825 
L 287.308069 239.092953 
L 288.319855 168.164455 
L 288.926927 153.31232 
L 289.129284 155.664957 
L 289.533998 173.69746 
L 290.748141 271.655523 
L 290.950499 277.667793 
L 291.152856 278.97294 
L 291.355213 275.428364 
L 291.759927 261.161206 
L 292.164642 226.117718 
L 292.771714 166.980154 
L 293.176428 139.36322 
L 293.581142 131.741451 
L 293.7835 129.676431 
L 293.985857 134.333131 
L 294.795286 183.97082 
L 295.604714 258.815146 
L 295.807072 263.65018 
L 296.009429 262.958559 
L 296.211786 256.829736 
L 296.6165 224.852985 
L 298.033001 92.105922 
L 298.235358 85.950006 
L 298.437715 83.53871 
L 298.640073 84.250869 
L 298.84243 91.844736 
L 299.449501 133.315729 
L 299.854216 173.863295 
L 300.25893 221.179401 
L 300.461287 234.440823 
L 300.663645 240.383063 
L 300.866002 237.492303 
L 301.270716 213.678966 
L 301.877788 158.462968 
L 302.484859 93.498414 
L 302.889574 69.903492 
L 303.091931 70.311198 
L 303.496646 90.953925 
L 304.508432 165.927548 
L 305.115503 232.266257 
L 305.31786 247.574617 
L 305.520218 252.604031 
L 305.722575 250.723217 
L 306.127289 229.019315 
L 307.139075 151.456146 
L 307.54379 129.574842 
L 307.948504 118.205504 
L 308.150861 117.944789 
L 308.555576 137.716422 
L 309.365005 192.3303 
L 309.972076 253.871669 
L 310.376791 268.30711 
L 310.579148 265.063178 
L 310.781505 257.363805 
L 311.186219 229.126255 
L 312.400363 123.74423 
L 312.60272 116.541741 
L 312.805077 114.693856 
L 313.007434 115.49241 
L 313.209791 121.094879 
L 313.614506 142.594214 
L 314.221578 185.672954 
L 314.828649 244.765522 
L 315.031006 254.968027 
L 315.233364 257.242047 
L 315.435721 254.077083 
L 315.638078 244.641439 
L 316.24515 203.340204 
L 316.649864 190.762087 
L 317.256936 180.610358 
L 317.459293 179.992668 
L 317.66165 177.945552 
L 318.066364 183.212641 
L 318.673436 195.654588 
L 319.07815 218.115786 
L 319.685222 261.771589 
L 320.089937 272.709906 
L 320.292294 272.32286 
L 320.494651 269.443117 
L 320.899365 256.664151 
L 321.30408 235.842835 
L 322.518223 160.025018 
L 322.72058 153.801107 
L 322.922937 152.069672 
L 323.125295 154.115232 
L 323.327652 160.28335 
L 323.732366 184.182728 
L 324.94651 268.88758 
L 325.148867 269.075972 
L 325.553581 258.775911 
L 325.755938 251.825935 
L 326.160653 221.399016 
L 327.172439 135.673501 
L 327.374796 130.050545 
L 327.577153 129.568064 
L 327.77951 130.626065 
L 327.981868 135.734727 
L 328.588939 173.712195 
L 329.803083 269.573659 
L 330.00544 268.829839 
L 330.410154 249.272576 
L 331.624297 154.507877 
L 332.029012 139.498878 
L 332.231369 139.704463 
L 332.433726 142.57553 
L 332.636083 147.039322 
L 333.243155 178.283361 
L 333.647869 204.223562 
L 334.254941 263.578436 
L 334.457298 274.263875 
L 334.659655 276.116901 
L 334.862013 273.173518 
L 335.266727 253.908503 
L 335.873799 213.439053 
L 336.48087 191.799753 
L 336.885585 181.905245 
L 337.087942 182.159857 
L 337.290299 178.300892 
L 337.492656 178.762332 
L 337.897371 189.109526 
L 338.302085 207.238252 
L 338.7068 238.893827 
L 339.111514 268.861768 
L 339.313871 277.057356 
L 339.516228 280.630332 
L 339.718586 278.534211 
L 340.1233 255.710506 
L 340.730372 215.972458 
L 341.337443 186.268019 
L 341.539801 181.888319 
L 342.146872 154.18872 
L 342.349229 149.660816 
L 342.551587 151.300377 
L 342.753944 154.807795 
L 343.158658 174.768078 
L 343.563373 211.123554 
L 343.968087 244.871423 
L 344.170444 253.785577 
L 344.372801 256.810644 
L 344.575159 253.716321 
L 345.384587 205.343662 
L 346.396374 123.237733 
L 346.598731 113.300357 
L 347.003445 107.750903 
L 347.205802 109.484071 
L 347.610517 125.132002 
L 348.217588 168.451676 
L 349.027017 248.904061 
L 349.229374 252.474479 
L 349.431732 251.757816 
L 350.038803 217.103642 
L 350.443518 184.718947 
L 351.252947 125.313851 
L 351.657661 110.878295 
L 351.860018 107.861907 
L 352.062375 107.76042 
L 352.264733 112.797619 
L 352.669447 135.609682 
L 353.074161 171.087752 
L 353.88359 256.692034 
L 354.085947 261.979436 
L 354.288305 262.463496 
L 354.895376 241.740123 
L 355.097733 229.224435 
L 356.109519 118.406534 
L 356.311877 108.730714 
L 356.716591 104.796926 
L 356.918948 104.2876 
L 357.121306 109.131368 
L 357.728377 151.412904 
L 358.133092 191.630436 
L 358.740163 253.029783 
L 358.94252 261.097286 
L 359.144878 261.723808 
L 359.347235 256.841553 
L 359.954306 225.965359 
L 360.966092 105.558379 
L 361.16845 95.562702 
L 361.370807 93.001727 
L 361.775521 91.080543 
L 361.977879 96.123475 
L 362.58495 136.32739 
L 362.787307 150.109273 
L 363.799093 247.281993 
L 364.001451 247.353819 
L 364.203808 240.5568 
L 364.810879 183.787318 
L 365.822665 67.210982 
L 366.025023 57.591966 
L 366.22738 55.8 
L 366.429737 57.050381 
L 366.632094 59.448274 
L 367.036809 80.922134 
L 367.64388 129.136597 
L 368.453309 217.200741 
L 368.655666 225.77662 
L 368.858024 225.513517 
L 369.060381 218.773337 
L 369.667452 170.072101 
L 370.679238 73.461816 
L 370.881596 64.817828 
L 371.083953 62.345606 
L 371.28631 64.887011 
L 371.488667 70.884253 
L 371.893382 96.914423 
L 372.702811 164.068119 
L 373.309882 224.717107 
L 373.512239 234.563751 
L 373.714597 236.750782 
L 373.916954 231.141398 
L 374.524025 199.940426 
L 375.535811 97.366211 
L 375.738169 91.700179 
L 375.940526 92.379135 
L 376.34524 96.971756 
L 376.547597 106.122618 
L 377.559383 188.245387 
L 378.166455 239.625566 
L 378.368812 248.6599 
L 378.57117 250.617809 
L 378.773527 244.643879 
L 379.380598 190.201845 
L 380.190027 107.083496 
L 380.594742 91.447682 
L 380.797099 89.704538 
L 380.999456 91.015794 
L 381.201813 91.20418 
L 381.40417 94.950914 
L 381.606528 102.916347 
L 382.415956 168.806985 
L 382.820671 210.102951 
L 383.023028 222.604083 
L 383.225385 227.951674 
L 383.427743 227.721264 
L 383.6301 222.383943 
L 384.237171 178.567308 
L 384.237171 178.567308 
" clip-path="url(#pd5037bcdcc)" style="fill: none; stroke: #ff7f0e; stroke-width: 1.5; stroke-linecap: square"/>
   </g>
   <g id="line2d_15">
    <path d="M 384.439529 165.950054 
L 385.248957 116.290831 
L 385.451315 110.226967 
L 385.653672 108.270695 
L 385.856029 109.738167 
L 386.058386 114.292419 
L 386.463101 136.822796 
L 387.272529 196.632374 
L 387.677244 232.494121 
L 388.081958 251.668526 
L 388.284316 253.616044 
L 388.486673 249.923573 
L 389.093744 221.441596 
L 389.700816 185.680927 
L 390.10553 171.47763 
L 390.307888 166.381716 
L 390.510245 165.340513 
L 390.712602 166.475424 
L 391.117316 173.181595 
L 391.522031 186.342276 
L 391.926745 209.081204 
L 392.533817 252.6138 
L 392.938531 268.280495 
L 393.140888 271.157186 
L 393.343246 269.388714 
L 393.74796 253.794919 
L 394.962103 192.593744 
L 395.366818 182.068862 
L 395.569175 179.557481 
L 395.771532 179.222191 
L 395.973889 181.189012 
L 396.176247 184.802125 
L 396.580961 198.138198 
L 396.985675 221.98184 
L 397.39039 247.644456 
L 397.795104 262.528137 
L 397.997461 264.418551 
L 398.199819 261.38325 
L 398.604533 244.578172 
L 399.616319 191.912408 
L 400.021034 181.291213 
L 400.223391 178.339188 
L 400.425748 177.165159 
L 400.628105 178.150688 
L 400.830462 181.660033 
L 401.639891 212.351824 
L 402.246963 243.0991 
L 402.651677 251.736816 
L 402.854034 251.199894 
L 403.056392 246.545614 
L 403.461106 228.682402 
L 404.068178 199.373265 
L 404.472892 185.726762 
L 404.675249 181.77893 
L 404.877607 180.063682 
L 405.079964 180.695791 
L 405.484678 187.78456 
L 406.698821 228.42451 
L 407.103536 240.409026 
L 407.305893 242.753659 
L 407.50825 242.478834 
L 407.710607 239.250194 
L 408.115322 225.550928 
L 408.722393 201.397578 
L 409.127108 191.194424 
L 409.329465 188.241574 
L 409.531822 187.933253 
L 409.73418 190.066558 
L 410.138894 198.495596 
L 410.948323 217.373549 
L 411.960109 235.186927 
L 412.162466 234.892506 
L 412.56718 227.319506 
L 413.376609 201.832652 
L 413.781324 195.258262 
L 413.983681 193.910921 
L 414.186038 194.408262 
L 414.388395 196.637389 
L 415.804896 220.4349 
L 416.411967 226.309392 
L 416.614325 227.209642 
L 416.816682 226.866666 
L 417.221396 220.252213 
L 418.030825 202.681226 
L 418.233182 201.190173 
L 418.435539 200.72343 
L 418.840254 202.167413 
L 419.042611 203.943362 
L 420.054397 216.436143 
L 420.863826 220.321978 
L 421.066183 220.766449 
L 421.26854 220.877943 
L 421.470898 220.19124 
L 421.673255 218.289558 
L 422.482684 206.866553 
L 422.685041 205.915819 
L 422.887398 206.270815 
L 423.696827 209.383856 
L 424.303898 213.253447 
L 425.113327 215.45192 
L 425.315684 215.856977 
L 425.922756 216.17484 
L 426.125113 215.489911 
L 427.136899 208.934495 
L 427.946328 210.59853 
L 428.5534 212.292642 
L 429.160471 212.624545 
L 430.172257 212.952034 
L 430.576972 213.242971 
L 430.779329 212.938453 
L 431.588758 210.625224 
L 431.791115 210.525783 
L 431.993472 210.632486 
L 433.207616 212.035111 
L 433.814687 212.052139 
L 434.624116 211.912753 
L 435.433545 212.069559 
L 436.242974 211.22831 
L 436.647688 211.176247 
L 437.052403 211.507751 
L 437.457117 211.825921 
L 438.064189 211.870971 
L 438.468903 211.8054 
L 438.873617 211.640915 
L 439.480689 211.664272 
L 440.087761 211.765394 
L 440.492475 211.614907 
L 441.099547 211.375159 
L 441.504261 211.453114 
L 442.31369 211.735821 
L 442.920762 211.715271 
L 443.932548 211.547043 
L 445.146691 211.635007 
L 446.158477 211.518102 
L 447.170263 211.681878 
L 450.812693 211.546935 
L 452.43155 211.601285 
L 453.645694 211.580302 
L 454.859837 211.584481 
L 456.07398 211.596857 
L 457.490481 211.573693 
L 460.525839 211.580541 
L 463.763554 211.596576 
L 470.846056 211.590133 
L 483.392203 211.5845 
L 518.4 211.585636 
L 518.4 211.585636 
" clip-path="url(#pd5037bcdcc)" style="fill: none; stroke: #2ca02c; stroke-width: 1.5; stroke-linecap: square"/>
   </g>
   <g id="patch_3">
    <path d="M 72 320.4 
L 72 43.2 
" style="fill: none; stroke: #000000; stroke-width: 0.8; stroke-linejoin: miter; stroke-linecap: square"/>
   </g>
   <g id="patch_4">
    <path d="M 518.4 320.4 
L 518.4 43.2 
" style="fill: none; stroke: #000000; stroke-width: 0.8; stroke-linejoin: miter; stroke-linecap: square"/>
   </g>
   <g id="patch_5">
    <path d="M 72 320.4 
L 518.4 320.4 
" style="fill: none; stroke: #000000; stroke-width: 0.8; stroke-linejoin: miter; stroke-linecap: square"/>
   </g>
   <g id="patch_6">
    <path d="M 72 43.2 
L 518.4 43.2 
" style="fill: none; stroke: #000000; stroke-width: 0.8; stroke-linejoin: miter; stroke-linecap: square"/>
   </g>
   <g id="text_13">
    <!-- Classic Transformer - model_20231123164814 -->
    <g transform="translate(155.436563 37.2) scale(0.12 -0.12)">
     <defs>
      <path id="DejaVuSans-43" d="M 4122 4306 
L 4122 3641 
Q 3803 3938 3442 4084 
Q 3081 4231 2675 4231 
Q 1875 4231 1450 3742 
Q 1025 3253 1025 2328 
Q 1025 1406 1450 917 
Q 1875 428 2675 428 
Q 3081 428 3442 575 
Q 3803 722 4122 1019 
L 4122 359 
Q 3791 134 3420 21 
Q 3050 -91 2638 -91 
Q 1578 -91 968 557 
Q 359 1206 359 2328 
Q 359 3453 968 4101 
Q 1578 4750 2638 4750 
Q 3056 4750 3426 4639 
Q 3797 4528 4122 4306 
z
" transform="scale(0.015625)"/>
      <path id="DejaVuSans-6c" d="M 603 4863 
L 1178 4863 
L 1178 0 
L 603 0 
L 603 4863 
z
" transform="scale(0.015625)"/>
      <path id="DejaVuSans-61" d="M 2194 1759 
Q 1497 1759 1228 1600 
Q 959 1441 959 1056 
Q 959 750 1161 570 
Q 1363 391 1709 391 
Q 2188 391 2477 730 
Q 2766 1069 2766 1631 
L 2766 1759 
L 2194 1759 
z
M 3341 1997 
L 3341 0 
L 2766 0 
L 2766 531 
Q 2569 213 2275 61 
Q 1981 -91 1556 -91 
Q 1019 -91 701 211 
Q 384 513 384 1019 
Q 384 1609 779 1909 
Q 1175 2209 1959 2209 
L 2766 2209 
L 2766 2266 
Q 2766 2663 2505 2880 
Q 2244 3097 1772 3097 
Q 1472 3097 1187 3025 
Q 903 2953 641 2809 
L 641 3341 
Q 956 3463 1253 3523 
Q 1550 3584 1831 3584 
Q 2591 3584 2966 3190 
Q 3341 2797 3341 1997 
z
" transform="scale(0.015625)"/>
      <path id="DejaVuSans-73" d="M 2834 3397 
L 2834 2853 
Q 2591 2978 2328 3040 
Q 2066 3103 1784 3103 
Q 1356 3103 1142 2972 
Q 928 2841 928 2578 
Q 928 2378 1081 2264 
Q 1234 2150 1697 2047 
L 1894 2003 
Q 2506 1872 2764 1633 
Q 3022 1394 3022 966 
Q 3022 478 2636 193 
Q 2250 -91 1575 -91 
Q 1294 -91 989 -36 
Q 684 19 347 128 
L 347 722 
Q 666 556 975 473 
Q 1284 391 1588 391 
Q 1994 391 2212 530 
Q 2431 669 2431 922 
Q 2431 1156 2273 1281 
Q 2116 1406 1581 1522 
L 1381 1569 
Q 847 1681 609 1914 
Q 372 2147 372 2553 
Q 372 3047 722 3315 
Q 1072 3584 1716 3584 
Q 2034 3584 2315 3537 
Q 2597 3491 2834 3397 
z
" transform="scale(0.015625)"/>
      <path id="DejaVuSans-69" d="M 603 3500 
L 1178 3500 
L 1178 0 
L 603 0 
L 603 3500 
z
M 603 4863 
L 1178 4863 
L 1178 4134 
L 603 4134 
L 603 4863 
z
" transform="scale(0.015625)"/>
      <path id="DejaVuSans-63" d="M 3122 3366 
L 3122 2828 
Q 2878 2963 2633 3030 
Q 2388 3097 2138 3097 
Q 1578 3097 1268 2742 
Q 959 2388 959 1747 
Q 959 1106 1268 751 
Q 1578 397 2138 397 
Q 2388 397 2633 464 
Q 2878 531 3122 666 
L 3122 134 
Q 2881 22 2623 -34 
Q 2366 -91 2075 -91 
Q 1284 -91 818 406 
Q 353 903 353 1747 
Q 353 2603 823 3093 
Q 1294 3584 2113 3584 
Q 2378 3584 2631 3529 
Q 2884 3475 3122 3366 
z
" transform="scale(0.015625)"/>
      <path id="DejaVuSans-20" transform="scale(0.015625)"/>
      <path id="DejaVuSans-54" d="M -19 4666 
L 3928 4666 
L 3928 4134 
L 2272 4134 
L 2272 0 
L 1638 0 
L 1638 4134 
L -19 4134 
L -19 4666 
z
" transform="scale(0.015625)"/>
      <path id="DejaVuSans-72" d="M 2631 2963 
Q 2534 3019 2420 3045 
Q 2306 3072 2169 3072 
Q 1681 3072 1420 2755 
Q 1159 2438 1159 1844 
L 1159 0 
L 581 0 
L 581 3500 
L 1159 3500 
L 1159 2956 
Q 1341 3275 1631 3429 
Q 1922 3584 2338 3584 
Q 2397 3584 2469 3576 
Q 2541 3569 2628 3553 
L 2631 2963 
z
" transform="scale(0.015625)"/>
      <path id="DejaVuSans-6e" d="M 3513 2113 
L 3513 0 
L 2938 0 
L 2938 2094 
Q 2938 2591 2744 2837 
Q 2550 3084 2163 3084 
Q 1697 3084 1428 2787 
Q 1159 2491 1159 1978 
L 1159 0 
L 581 0 
L 581 3500 
L 1159 3500 
L 1159 2956 
Q 1366 3272 1645 3428 
Q 1925 3584 2291 3584 
Q 2894 3584 3203 3211 
Q 3513 2838 3513 2113 
z
" transform="scale(0.015625)"/>
      <path id="DejaVuSans-66" d="M 2375 4863 
L 2375 4384 
L 1825 4384 
Q 1516 4384 1395 4259 
Q 1275 4134 1275 3809 
L 1275 3500 
L 2222 3500 
L 2222 3053 
L 1275 3053 
L 1275 0 
L 697 0 
L 697 3053 
L 147 3053 
L 147 3500 
L 697 3500 
L 697 3744 
Q 697 4328 969 4595 
Q 1241 4863 1831 4863 
L 2375 4863 
z
" transform="scale(0.015625)"/>
      <path id="DejaVuSans-6f" d="M 1959 3097 
Q 1497 3097 1228 2736 
Q 959 2375 959 1747 
Q 959 1119 1226 758 
Q 1494 397 1959 397 
Q 2419 397 2687 759 
Q 2956 1122 2956 1747 
Q 2956 2369 2687 2733 
Q 2419 3097 1959 3097 
z
M 1959 3584 
Q 2709 3584 3137 3096 
Q 3566 2609 3566 1747 
Q 3566 888 3137 398 
Q 2709 -91 1959 -91 
Q 1206 -91 779 398 
Q 353 888 353 1747 
Q 353 2609 779 3096 
Q 1206 3584 1959 3584 
z
" transform="scale(0.015625)"/>
      <path id="DejaVuSans-6d" d="M 3328 2828 
Q 3544 3216 3844 3400 
Q 4144 3584 4550 3584 
Q 5097 3584 5394 3201 
Q 5691 2819 5691 2113 
L 5691 0 
L 5113 0 
L 5113 2094 
Q 5113 2597 4934 2840 
Q 4756 3084 4391 3084 
Q 3944 3084 3684 2787 
Q 3425 2491 3425 1978 
L 3425 0 
L 2847 0 
L 2847 2094 
Q 2847 2600 2669 2842 
Q 2491 3084 2119 3084 
Q 1678 3084 1418 2786 
Q 1159 2488 1159 1978 
L 1159 0 
L 581 0 
L 581 3500 
L 1159 3500 
L 1159 2956 
Q 1356 3278 1631 3431 
Q 1906 3584 2284 3584 
Q 2666 3584 2933 3390 
Q 3200 3197 3328 2828 
z
" transform="scale(0.015625)"/>
      <path id="DejaVuSans-65" d="M 3597 1894 
L 3597 1613 
L 953 1613 
Q 991 1019 1311 708 
Q 1631 397 2203 397 
Q 2534 397 2845 478 
Q 3156 559 3463 722 
L 3463 178 
Q 3153 47 2828 -22 
Q 2503 -91 2169 -91 
Q 1331 -91 842 396 
Q 353 884 353 1716 
Q 353 2575 817 3079 
Q 1281 3584 2069 3584 
Q 2775 3584 3186 3129 
Q 3597 2675 3597 1894 
z
M 3022 2063 
Q 3016 2534 2758 2815 
Q 2500 3097 2075 3097 
Q 1594 3097 1305 2825 
Q 1016 2553 972 2059 
L 3022 2063 
z
" transform="scale(0.015625)"/>
      <path id="DejaVuSans-64" d="M 2906 2969 
L 2906 4863 
L 3481 4863 
L 3481 0 
L 2906 0 
L 2906 525 
Q 2725 213 2448 61 
Q 2172 -91 1784 -91 
Q 1150 -91 751 415 
Q 353 922 353 1747 
Q 353 2572 751 3078 
Q 1150 3584 1784 3584 
Q 2172 3584 2448 3432 
Q 2725 3281 2906 2969 
z
M 947 1747 
Q 947 1113 1208 752 
Q 1469 391 1925 391 
Q 2381 391 2643 752 
Q 2906 1113 2906 1747 
Q 2906 2381 2643 2742 
Q 2381 3103 1925 3103 
Q 1469 3103 1208 2742 
Q 947 2381 947 1747 
z
" transform="scale(0.015625)"/>
      <path id="DejaVuSans-5f" d="M 3263 -1063 
L 3263 -1509 
L -63 -1509 
L -63 -1063 
L 3263 -1063 
z
" transform="scale(0.015625)"/>
      <path id="DejaVuSans-34" d="M 2419 4116 
L 825 1625 
L 2419 1625 
L 2419 4116 
z
M 2253 4666 
L 3047 4666 
L 3047 1625 
L 3713 1625 
L 3713 1100 
L 3047 1100 
L 3047 0 
L 2419 0 
L 2419 1100 
L 313 1100 
L 313 1709 
L 2253 4666 
z
" transform="scale(0.015625)"/>
     </defs>
     <use xlink:href="#DejaVuSans-43"/>
     <use xlink:href="#DejaVuSans-6c" x="69.824219"/>
     <use xlink:href="#DejaVuSans-61" x="97.607422"/>
     <use xlink:href="#DejaVuSans-73" x="158.886719"/>
     <use xlink:href="#DejaVuSans-73" x="210.986328"/>
     <use xlink:href="#DejaVuSans-69" x="263.085938"/>
     <use xlink:href="#DejaVuSans-63" x="290.869141"/>
     <use xlink:href="#DejaVuSans-20" x="345.849609"/>
     <use xlink:href="#DejaVuSans-54" x="377.636719"/>
     <use xlink:href="#DejaVuSans-72" x="423.970703"/>
     <use xlink:href="#DejaVuSans-61" x="465.083984"/>
     <use xlink:href="#DejaVuSans-6e" x="526.363281"/>
     <use xlink:href="#DejaVuSans-73" x="589.742188"/>
     <use xlink:href="#DejaVuSans-66" x="641.841797"/>
     <use xlink:href="#DejaVuSans-6f" x="677.046875"/>
     <use xlink:href="#DejaVuSans-72" x="738.228516"/>
     <use xlink:href="#DejaVuSans-6d" x="777.591797"/>
     <use xlink:href="#DejaVuSans-65" x="875.003906"/>
     <use xlink:href="#DejaVuSans-72" x="936.527344"/>
     <use xlink:href="#DejaVuSans-20" x="977.640625"/>
     <use xlink:href="#DejaVuSans-2d" x="1009.427734"/>
     <use xlink:href="#DejaVuSans-20" x="1045.511719"/>
     <use xlink:href="#DejaVuSans-6d" x="1077.298828"/>
     <use xlink:href="#DejaVuSans-6f" x="1174.710938"/>
     <use xlink:href="#DejaVuSans-64" x="1235.892578"/>
     <use xlink:href="#DejaVuSans-65" x="1299.369141"/>
     <use xlink:href="#DejaVuSans-6c" x="1360.892578"/>
     <use xlink:href="#DejaVuSans-5f" x="1388.675781"/>
     <use xlink:href="#DejaVuSans-32" x="1438.675781"/>
     <use xlink:href="#DejaVuSans-30" x="1502.298828"/>
     <use xlink:href="#DejaVuSans-32" x="1565.921875"/>
     <use xlink:href="#DejaVuSans-33" x="1629.544922"/>
     <use xlink:href="#DejaVuSans-31" x="1693.167969"/>
     <use xlink:href="#DejaVuSans-31" x="1756.791016"/>
     <use xlink:href="#DejaVuSans-32" x="1820.414062"/>
     <use xlink:href="#DejaVuSans-33" x="1884.037109"/>
     <use xlink:href="#DejaVuSans-31" x="1947.660156"/>
     <use xlink:href="#DejaVuSans-36" x="2011.283203"/>
     <use xlink:href="#DejaVuSans-34" x="2074.90625"/>
     <use xlink:href="#DejaVuSans-38" x="2138.529297"/>
     <use xlink:href="#DejaVuSans-31" x="2202.152344"/>
     <use xlink:href="#DejaVuSans-34" x="2265.775391"/>
    </g>
   </g>
   <g id="legend_1">
    <g id="patch_7">
     <path d="M 79 95.234375 
L 161.517188 95.234375 
Q 163.517188 95.234375 163.517188 93.234375 
L 163.517188 50.2 
Q 163.517188 48.2 161.517188 48.2 
L 79 48.2 
Q 77 48.2 77 50.2 
L 77 93.234375 
Q 77 95.234375 79 95.234375 
z
" style="fill: #ffffff; opacity: 0.8; stroke: #cccccc; stroke-linejoin: miter"/>
    </g>
    <g id="line2d_16">
     <path d="M 81 56.298437 
L 91 56.298437 
L 101 56.298437 
" style="fill: none; stroke: #1f77b4; stroke-width: 1.5; stroke-linecap: square"/>
    </g>
    <g id="text_14">
     <!-- Measured -->
     <g transform="translate(109 59.798437) scale(0.1 -0.1)">
      <defs>
       <path id="DejaVuSans-4d" d="M 628 4666 
L 1569 4666 
L 2759 1491 
L 3956 4666 
L 4897 4666 
L 4897 0 
L 4281 0 
L 4281 4097 
L 3078 897 
L 2444 897 
L 1241 4097 
L 1241 0 
L 628 0 
L 628 4666 
z
" transform="scale(0.015625)"/>
       <path id="DejaVuSans-75" d="M 544 1381 
L 544 3500 
L 1119 3500 
L 1119 1403 
Q 1119 906 1312 657 
Q 1506 409 1894 409 
Q 2359 409 2629 706 
Q 2900 1003 2900 1516 
L 2900 3500 
L 3475 3500 
L 3475 0 
L 2900 0 
L 2900 538 
Q 2691 219 2414 64 
Q 2138 -91 1772 -91 
Q 1169 -91 856 284 
Q 544 659 544 1381 
z
M 1991 3584 
L 1991 3584 
z
" transform="scale(0.015625)"/>
      </defs>
      <use xlink:href="#DejaVuSans-4d"/>
      <use xlink:href="#DejaVuSans-65" x="86.279297"/>
      <use xlink:href="#DejaVuSans-61" x="147.802734"/>
      <use xlink:href="#DejaVuSans-73" x="209.082031"/>
      <use xlink:href="#DejaVuSans-75" x="261.181641"/>
      <use xlink:href="#DejaVuSans-72" x="324.560547"/>
      <use xlink:href="#DejaVuSans-65" x="363.423828"/>
      <use xlink:href="#DejaVuSans-64" x="424.947266"/>
     </g>
    </g>
    <g id="line2d_17">
     <path d="M 81 70.976562 
L 91 70.976562 
L 101 70.976562 
" style="fill: none; stroke: #ff7f0e; stroke-width: 1.5; stroke-linecap: square"/>
    </g>
    <g id="text_15">
     <!-- Fitted -->
     <g transform="translate(109 74.476562) scale(0.1 -0.1)">
      <defs>
       <path id="DejaVuSans-46" d="M 628 4666 
L 3309 4666 
L 3309 4134 
L 1259 4134 
L 1259 2759 
L 3109 2759 
L 3109 2228 
L 1259 2228 
L 1259 0 
L 628 0 
L 628 4666 
z
" transform="scale(0.015625)"/>
       <path id="DejaVuSans-74" d="M 1172 4494 
L 1172 3500 
L 2356 3500 
L 2356 3053 
L 1172 3053 
L 1172 1153 
Q 1172 725 1289 603 
Q 1406 481 1766 481 
L 2356 481 
L 2356 0 
L 1766 0 
Q 1100 0 847 248 
Q 594 497 594 1153 
L 594 3053 
L 172 3053 
L 172 3500 
L 594 3500 
L 594 4494 
L 1172 4494 
z
" transform="scale(0.015625)"/>
      </defs>
      <use xlink:href="#DejaVuSans-46"/>
      <use xlink:href="#DejaVuSans-69" x="50.269531"/>
      <use xlink:href="#DejaVuSans-74" x="78.052734"/>
      <use xlink:href="#DejaVuSans-74" x="117.261719"/>
      <use xlink:href="#DejaVuSans-65" x="156.470703"/>
      <use xlink:href="#DejaVuSans-64" x="217.994141"/>
     </g>
    </g>
    <g id="line2d_18">
     <path d="M 81 85.654687 
L 91 85.654687 
L 101 85.654687 
" style="fill: none; stroke: #2ca02c; stroke-width: 1.5; stroke-linecap: square"/>
    </g>
    <g id="text_16">
     <!-- Estimated -->
     <g transform="translate(109 89.154687) scale(0.1 -0.1)">
      <defs>
       <path id="DejaVuSans-45" d="M 628 4666 
L 3578 4666 
L 3578 4134 
L 1259 4134 
L 1259 2753 
L 3481 2753 
L 3481 2222 
L 1259 2222 
L 1259 531 
L 3634 531 
L 3634 0 
L 628 0 
L 628 4666 
z
" transform="scale(0.015625)"/>
      </defs>
      <use xlink:href="#DejaVuSans-45"/>
      <use xlink:href="#DejaVuSans-73" x="63.183594"/>
      <use xlink:href="#DejaVuSans-74" x="115.283203"/>
      <use xlink:href="#DejaVuSans-69" x="154.492188"/>
      <use xlink:href="#DejaVuSans-6d" x="182.275391"/>
      <use xlink:href="#DejaVuSans-61" x="279.6875"/>
      <use xlink:href="#DejaVuSans-74" x="340.966797"/>
      <use xlink:href="#DejaVuSans-65" x="380.175781"/>
      <use xlink:href="#DejaVuSans-64" x="441.699219"/>
     </g>
    </g>
   </g>
  </g>
 </g>
 <defs>
  <clipPath id="pd5037bcdcc">
   <rect x="72" y="43.2" width="446.4" height="277.2"/>
  </clipPath>
 </defs>
</svg>
