<?xml version="1.0" encoding="utf-8" standalone="no"?>
<!DOCTYPE svg PUBLIC "-//W3C//DTD SVG 1.1//EN"
  "http://www.w3.org/Graphics/SVG/1.1/DTD/svg11.dtd">
<svg xmlns:xlink="http://www.w3.org/1999/xlink" width="576pt" height="360pt" viewBox="0 0 576 360" xmlns="http://www.w3.org/2000/svg" version="1.1">
 <metadata>
  <rdf:RDF xmlns:dc="http://purl.org/dc/elements/1.1/" xmlns:cc="http://creativecommons.org/ns#" xmlns:rdf="http://www.w3.org/1999/02/22-rdf-syntax-ns#">
   <cc:Work>
    <dc:type rdf:resource="http://purl.org/dc/dcmitype/StillImage"/>
    <dc:date>2023-11-26T15:47:31.926681</dc:date>
    <dc:format>image/svg+xml</dc:format>
    <dc:creator>
     <cc:Agent>
      <dc:title>Matplotlib v3.8.1, https://matplotlib.org/</dc:title>
     </cc:Agent>
    </dc:creator>
   </cc:Work>
  </rdf:RDF>
 </metadata>
 <defs>
  <style type="text/css">*{stroke-linejoin: round; stroke-linecap: butt}</style>
 </defs>
 <g id="figure_1">
  <g id="patch_1">
   <path d="M 0 360 
L 576 360 
L 576 0 
L 0 0 
z
" style="fill: #ffffff"/>
  </g>
  <g id="axes_1">
   <g id="patch_2">
    <path d="M 72 320.4 
L 518.4 320.4 
L 518.4 43.2 
L 72 43.2 
z
" style="fill: #ffffff"/>
   </g>
   <g id="matplotlib.axis_1">
    <g id="xtick_1">
     <g id="line2d_1">
      <defs>
       <path id="m715ba6c2ad" d="M 0 0 
L 0 3.5 
" style="stroke: #000000; stroke-width: 0.8"/>
      </defs>
      <g>
       <use xlink:href="#m715ba6c2ad" x="129.874161" y="320.4" style="stroke: #000000; stroke-width: 0.8"/>
      </g>
     </g>
     <g id="text_1">
      <!-- 2020-05-15 -->
      <g transform="translate(100.816349 334.998438) scale(0.1 -0.1)">
       <defs>
        <path id="DejaVuSans-32" d="M 1228 531 
L 3431 531 
L 3431 0 
L 469 0 
L 469 531 
Q 828 903 1448 1529 
Q 2069 2156 2228 2338 
Q 2531 2678 2651 2914 
Q 2772 3150 2772 3378 
Q 2772 3750 2511 3984 
Q 2250 4219 1831 4219 
Q 1534 4219 1204 4116 
Q 875 4013 500 3803 
L 500 4441 
Q 881 4594 1212 4672 
Q 1544 4750 1819 4750 
Q 2544 4750 2975 4387 
Q 3406 4025 3406 3419 
Q 3406 3131 3298 2873 
Q 3191 2616 2906 2266 
Q 2828 2175 2409 1742 
Q 1991 1309 1228 531 
z
" transform="scale(0.015625)"/>
        <path id="DejaVuSans-30" d="M 2034 4250 
Q 1547 4250 1301 3770 
Q 1056 3291 1056 2328 
Q 1056 1369 1301 889 
Q 1547 409 2034 409 
Q 2525 409 2770 889 
Q 3016 1369 3016 2328 
Q 3016 3291 2770 3770 
Q 2525 4250 2034 4250 
z
M 2034 4750 
Q 2819 4750 3233 4129 
Q 3647 3509 3647 2328 
Q 3647 1150 3233 529 
Q 2819 -91 2034 -91 
Q 1250 -91 836 529 
Q 422 1150 422 2328 
Q 422 3509 836 4129 
Q 1250 4750 2034 4750 
z
" transform="scale(0.015625)"/>
        <path id="DejaVuSans-2d" d="M 313 2009 
L 1997 2009 
L 1997 1497 
L 313 1497 
L 313 2009 
z
" transform="scale(0.015625)"/>
        <path id="DejaVuSans-35" d="M 691 4666 
L 3169 4666 
L 3169 4134 
L 1269 4134 
L 1269 2991 
Q 1406 3038 1543 3061 
Q 1681 3084 1819 3084 
Q 2600 3084 3056 2656 
Q 3513 2228 3513 1497 
Q 3513 744 3044 326 
Q 2575 -91 1722 -91 
Q 1428 -91 1123 -41 
Q 819 9 494 109 
L 494 744 
Q 775 591 1075 516 
Q 1375 441 1709 441 
Q 2250 441 2565 725 
Q 2881 1009 2881 1497 
Q 2881 1984 2565 2268 
Q 2250 2553 1709 2553 
Q 1456 2553 1204 2497 
Q 953 2441 691 2322 
L 691 4666 
z
" transform="scale(0.015625)"/>
        <path id="DejaVuSans-31" d="M 794 531 
L 1825 531 
L 1825 4091 
L 703 3866 
L 703 4441 
L 1819 4666 
L 2450 4666 
L 2450 531 
L 3481 531 
L 3481 0 
L 794 0 
L 794 531 
z
" transform="scale(0.015625)"/>
       </defs>
       <use xlink:href="#DejaVuSans-32"/>
       <use xlink:href="#DejaVuSans-30" x="63.623047"/>
       <use xlink:href="#DejaVuSans-32" x="127.246094"/>
       <use xlink:href="#DejaVuSans-30" x="190.869141"/>
       <use xlink:href="#DejaVuSans-2d" x="254.492188"/>
       <use xlink:href="#DejaVuSans-30" x="290.576172"/>
       <use xlink:href="#DejaVuSans-35" x="354.199219"/>
       <use xlink:href="#DejaVuSans-2d" x="417.822266"/>
       <use xlink:href="#DejaVuSans-31" x="453.90625"/>
       <use xlink:href="#DejaVuSans-35" x="517.529297"/>
      </g>
     </g>
    </g>
    <g id="xtick_2">
     <g id="line2d_2">
      <g>
       <use xlink:href="#m715ba6c2ad" x="212.435902" y="320.4" style="stroke: #000000; stroke-width: 0.8"/>
      </g>
     </g>
     <g id="text_2">
      <!-- 2020-06-01 -->
      <g transform="translate(183.37809 334.998438) scale(0.1 -0.1)">
       <defs>
        <path id="DejaVuSans-36" d="M 2113 2584 
Q 1688 2584 1439 2293 
Q 1191 2003 1191 1497 
Q 1191 994 1439 701 
Q 1688 409 2113 409 
Q 2538 409 2786 701 
Q 3034 994 3034 1497 
Q 3034 2003 2786 2293 
Q 2538 2584 2113 2584 
z
M 3366 4563 
L 3366 3988 
Q 3128 4100 2886 4159 
Q 2644 4219 2406 4219 
Q 1781 4219 1451 3797 
Q 1122 3375 1075 2522 
Q 1259 2794 1537 2939 
Q 1816 3084 2150 3084 
Q 2853 3084 3261 2657 
Q 3669 2231 3669 1497 
Q 3669 778 3244 343 
Q 2819 -91 2113 -91 
Q 1303 -91 875 529 
Q 447 1150 447 2328 
Q 447 3434 972 4092 
Q 1497 4750 2381 4750 
Q 2619 4750 2861 4703 
Q 3103 4656 3366 4563 
z
" transform="scale(0.015625)"/>
       </defs>
       <use xlink:href="#DejaVuSans-32"/>
       <use xlink:href="#DejaVuSans-30" x="63.623047"/>
       <use xlink:href="#DejaVuSans-32" x="127.246094"/>
       <use xlink:href="#DejaVuSans-30" x="190.869141"/>
       <use xlink:href="#DejaVuSans-2d" x="254.492188"/>
       <use xlink:href="#DejaVuSans-30" x="290.576172"/>
       <use xlink:href="#DejaVuSans-36" x="354.199219"/>
       <use xlink:href="#DejaVuSans-2d" x="417.822266"/>
       <use xlink:href="#DejaVuSans-30" x="453.90625"/>
       <use xlink:href="#DejaVuSans-31" x="517.529297"/>
      </g>
     </g>
    </g>
    <g id="xtick_3">
     <g id="line2d_3">
      <g>
       <use xlink:href="#m715ba6c2ad" x="280.427924" y="320.4" style="stroke: #000000; stroke-width: 0.8"/>
      </g>
     </g>
     <g id="text_3">
      <!-- 2020-06-15 -->
      <g transform="translate(251.370111 334.998438) scale(0.1 -0.1)">
       <use xlink:href="#DejaVuSans-32"/>
       <use xlink:href="#DejaVuSans-30" x="63.623047"/>
       <use xlink:href="#DejaVuSans-32" x="127.246094"/>
       <use xlink:href="#DejaVuSans-30" x="190.869141"/>
       <use xlink:href="#DejaVuSans-2d" x="254.492188"/>
       <use xlink:href="#DejaVuSans-30" x="290.576172"/>
       <use xlink:href="#DejaVuSans-36" x="354.199219"/>
       <use xlink:href="#DejaVuSans-2d" x="417.822266"/>
       <use xlink:href="#DejaVuSans-31" x="453.90625"/>
       <use xlink:href="#DejaVuSans-35" x="517.529297"/>
      </g>
     </g>
    </g>
    <g id="xtick_4">
     <g id="line2d_4">
      <g>
       <use xlink:href="#m715ba6c2ad" x="358.133092" y="320.4" style="stroke: #000000; stroke-width: 0.8"/>
      </g>
     </g>
     <g id="text_4">
      <!-- 2020-07-01 -->
      <g transform="translate(329.075279 334.998438) scale(0.1 -0.1)">
       <defs>
        <path id="DejaVuSans-37" d="M 525 4666 
L 3525 4666 
L 3525 4397 
L 1831 0 
L 1172 0 
L 2766 4134 
L 525 4134 
L 525 4666 
z
" transform="scale(0.015625)"/>
       </defs>
       <use xlink:href="#DejaVuSans-32"/>
       <use xlink:href="#DejaVuSans-30" x="63.623047"/>
       <use xlink:href="#DejaVuSans-32" x="127.246094"/>
       <use xlink:href="#DejaVuSans-30" x="190.869141"/>
       <use xlink:href="#DejaVuSans-2d" x="254.492188"/>
       <use xlink:href="#DejaVuSans-30" x="290.576172"/>
       <use xlink:href="#DejaVuSans-37" x="354.199219"/>
       <use xlink:href="#DejaVuSans-2d" x="417.822266"/>
       <use xlink:href="#DejaVuSans-30" x="453.90625"/>
       <use xlink:href="#DejaVuSans-31" x="517.529297"/>
      </g>
     </g>
    </g>
    <g id="xtick_5">
     <g id="line2d_5">
      <g>
       <use xlink:href="#m715ba6c2ad" x="426.125113" y="320.4" style="stroke: #000000; stroke-width: 0.8"/>
      </g>
     </g>
     <g id="text_5">
      <!-- 2020-07-15 -->
      <g transform="translate(397.067301 334.998438) scale(0.1 -0.1)">
       <use xlink:href="#DejaVuSans-32"/>
       <use xlink:href="#DejaVuSans-30" x="63.623047"/>
       <use xlink:href="#DejaVuSans-32" x="127.246094"/>
       <use xlink:href="#DejaVuSans-30" x="190.869141"/>
       <use xlink:href="#DejaVuSans-2d" x="254.492188"/>
       <use xlink:href="#DejaVuSans-30" x="290.576172"/>
       <use xlink:href="#DejaVuSans-37" x="354.199219"/>
       <use xlink:href="#DejaVuSans-2d" x="417.822266"/>
       <use xlink:href="#DejaVuSans-31" x="453.90625"/>
       <use xlink:href="#DejaVuSans-35" x="517.529297"/>
      </g>
     </g>
    </g>
    <g id="xtick_6">
     <g id="line2d_6">
      <g>
       <use xlink:href="#m715ba6c2ad" x="508.686854" y="320.4" style="stroke: #000000; stroke-width: 0.8"/>
      </g>
     </g>
     <g id="text_6">
      <!-- 2020-08-01 -->
      <g transform="translate(479.629042 334.998438) scale(0.1 -0.1)">
       <defs>
        <path id="DejaVuSans-38" d="M 2034 2216 
Q 1584 2216 1326 1975 
Q 1069 1734 1069 1313 
Q 1069 891 1326 650 
Q 1584 409 2034 409 
Q 2484 409 2743 651 
Q 3003 894 3003 1313 
Q 3003 1734 2745 1975 
Q 2488 2216 2034 2216 
z
M 1403 2484 
Q 997 2584 770 2862 
Q 544 3141 544 3541 
Q 544 4100 942 4425 
Q 1341 4750 2034 4750 
Q 2731 4750 3128 4425 
Q 3525 4100 3525 3541 
Q 3525 3141 3298 2862 
Q 3072 2584 2669 2484 
Q 3125 2378 3379 2068 
Q 3634 1759 3634 1313 
Q 3634 634 3220 271 
Q 2806 -91 2034 -91 
Q 1263 -91 848 271 
Q 434 634 434 1313 
Q 434 1759 690 2068 
Q 947 2378 1403 2484 
z
M 1172 3481 
Q 1172 3119 1398 2916 
Q 1625 2713 2034 2713 
Q 2441 2713 2670 2916 
Q 2900 3119 2900 3481 
Q 2900 3844 2670 4047 
Q 2441 4250 2034 4250 
Q 1625 4250 1398 4047 
Q 1172 3844 1172 3481 
z
" transform="scale(0.015625)"/>
       </defs>
       <use xlink:href="#DejaVuSans-32"/>
       <use xlink:href="#DejaVuSans-30" x="63.623047"/>
       <use xlink:href="#DejaVuSans-32" x="127.246094"/>
       <use xlink:href="#DejaVuSans-30" x="190.869141"/>
       <use xlink:href="#DejaVuSans-2d" x="254.492188"/>
       <use xlink:href="#DejaVuSans-30" x="290.576172"/>
       <use xlink:href="#DejaVuSans-38" x="354.199219"/>
       <use xlink:href="#DejaVuSans-2d" x="417.822266"/>
       <use xlink:href="#DejaVuSans-30" x="453.90625"/>
       <use xlink:href="#DejaVuSans-31" x="517.529297"/>
      </g>
     </g>
    </g>
   </g>
   <g id="matplotlib.axis_2">
    <g id="ytick_1">
     <g id="line2d_7">
      <defs>
       <path id="m469f2795bc" d="M 0 0 
L -3.5 0 
" style="stroke: #000000; stroke-width: 0.8"/>
      </defs>
      <g>
       <use xlink:href="#m469f2795bc" x="72" y="316.02311" style="stroke: #000000; stroke-width: 0.8"/>
      </g>
     </g>
     <g id="text_7">
      <!-- −2 -->
      <g transform="translate(50.257812 319.822329) scale(0.1 -0.1)">
       <defs>
        <path id="DejaVuSans-2212" d="M 678 2272 
L 4684 2272 
L 4684 1741 
L 678 1741 
L 678 2272 
z
" transform="scale(0.015625)"/>
       </defs>
       <use xlink:href="#DejaVuSans-2212"/>
       <use xlink:href="#DejaVuSans-32" x="83.789062"/>
      </g>
     </g>
    </g>
    <g id="ytick_2">
     <g id="line2d_8">
      <g>
       <use xlink:href="#m469f2795bc" x="72" y="262.270962" style="stroke: #000000; stroke-width: 0.8"/>
      </g>
     </g>
     <g id="text_8">
      <!-- −1 -->
      <g transform="translate(50.257812 266.070181) scale(0.1 -0.1)">
       <use xlink:href="#DejaVuSans-2212"/>
       <use xlink:href="#DejaVuSans-31" x="83.789062"/>
      </g>
     </g>
    </g>
    <g id="ytick_3">
     <g id="line2d_9">
      <g>
       <use xlink:href="#m469f2795bc" x="72" y="208.518814" style="stroke: #000000; stroke-width: 0.8"/>
      </g>
     </g>
     <g id="text_9">
      <!-- 0 -->
      <g transform="translate(58.6375 212.318032) scale(0.1 -0.1)">
       <use xlink:href="#DejaVuSans-30"/>
      </g>
     </g>
    </g>
    <g id="ytick_4">
     <g id="line2d_10">
      <g>
       <use xlink:href="#m469f2795bc" x="72" y="154.766666" style="stroke: #000000; stroke-width: 0.8"/>
      </g>
     </g>
     <g id="text_10">
      <!-- 1 -->
      <g transform="translate(58.6375 158.565884) scale(0.1 -0.1)">
       <use xlink:href="#DejaVuSans-31"/>
      </g>
     </g>
    </g>
    <g id="ytick_5">
     <g id="line2d_11">
      <g>
       <use xlink:href="#m469f2795bc" x="72" y="101.014518" style="stroke: #000000; stroke-width: 0.8"/>
      </g>
     </g>
     <g id="text_11">
      <!-- 2 -->
      <g transform="translate(58.6375 104.813736) scale(0.1 -0.1)">
       <use xlink:href="#DejaVuSans-32"/>
      </g>
     </g>
    </g>
    <g id="ytick_6">
     <g id="line2d_12">
      <g>
       <use xlink:href="#m469f2795bc" x="72" y="47.262369" style="stroke: #000000; stroke-width: 0.8"/>
      </g>
     </g>
     <g id="text_12">
      <!-- 3 -->
      <g transform="translate(58.6375 51.061588) scale(0.1 -0.1)">
       <defs>
        <path id="DejaVuSans-33" d="M 2597 2516 
Q 3050 2419 3304 2112 
Q 3559 1806 3559 1356 
Q 3559 666 3084 287 
Q 2609 -91 1734 -91 
Q 1441 -91 1130 -33 
Q 819 25 488 141 
L 488 750 
Q 750 597 1062 519 
Q 1375 441 1716 441 
Q 2309 441 2620 675 
Q 2931 909 2931 1356 
Q 2931 1769 2642 2001 
Q 2353 2234 1838 2234 
L 1294 2234 
L 1294 2753 
L 1863 2753 
Q 2328 2753 2575 2939 
Q 2822 3125 2822 3475 
Q 2822 3834 2567 4026 
Q 2313 4219 1838 4219 
Q 1578 4219 1281 4162 
Q 984 4106 628 3988 
L 628 4550 
Q 988 4650 1302 4700 
Q 1616 4750 1894 4750 
Q 2613 4750 3031 4423 
Q 3450 4097 3450 3541 
Q 3450 3153 3228 2886 
Q 3006 2619 2597 2516 
z
" transform="scale(0.015625)"/>
       </defs>
       <use xlink:href="#DejaVuSans-33"/>
      </g>
     </g>
    </g>
   </g>
   <g id="line2d_13">
    <path d="M 72 287.021497 
L 72.404714 298.412757 
L 72.607072 296.682973 
L 72.809429 285.96675 
L 73.214143 254.915018 
L 73.618858 242.426821 
L 75.035358 159.101858 
L 75.237715 156.127474 
L 75.440073 161.211351 
L 75.64243 169.459468 
L 75.844787 172.771371 
L 76.047144 188.086288 
L 76.654216 258.669915 
L 77.05893 282.844701 
L 77.261287 287.232446 
L 77.463645 286.852737 
L 77.666002 276.094324 
L 78.070716 247.468508 
L 78.475431 234.938122 
L 78.677788 225.761828 
L 79.487217 168.510196 
L 79.891931 152.161627 
L 80.094288 154.123456 
L 80.903717 196.735208 
L 81.713146 272.423807 
L 82.11786 287.148066 
L 82.320218 289.194274 
L 82.522575 288.898945 
L 82.724932 286.367554 
L 82.927289 279.511703 
L 83.332004 256.412757 
L 83.736718 242.026017 
L 83.939075 238.967253 
L 84.141432 239.241487 
L 84.546147 245.675439 
L 84.748504 247.784932 
L 84.950861 247.806027 
L 85.355576 252.025013 
L 85.557933 248.670919 
L 85.76029 254.830638 
L 86.569719 300.015972 
L 86.772076 306.133501 
L 86.974433 307.736715 
L 87.176791 307.8 
L 87.379148 306.449925 
L 87.581505 302.695028 
L 87.783862 295.902461 
L 88.188577 273.731693 
L 88.390934 268.521246 
L 89.200363 260.399699 
L 89.40272 256.243998 
L 89.807434 241.372074 
L 90.212149 238.903968 
L 90.414506 236.182722 
L 90.616863 244.1777 
L 91.223935 295.037569 
L 91.628649 306.133501 
L 91.831006 306.196786 
L 92.033364 303.686489 
L 92.842792 257.277649 
L 93.04515 255.125967 
L 93.449864 246.477047 
L 93.652221 245.949674 
L 93.854578 242.996384 
L 94.056936 242.363536 
L 94.259293 239.72667 
L 94.46165 233.292717 
L 94.664007 230.423807 
L 94.866364 231.351984 
L 95.068722 234.516223 
L 95.271079 230.655851 
L 95.473436 240.823606 
L 96.080508 295.417278 
L 96.485222 304.677951 
L 96.687579 306.597589 
L 96.889937 302.230939 
L 97.699365 256.539327 
L 98.306437 245.970768 
L 98.508794 245.59106 
L 99.52058 224.242993 
L 99.722937 225.508689 
L 99.925295 229.896434 
L 100.127652 228.061175 
L 100.330009 238.27112 
L 100.937081 292.928076 
L 101.341795 305.268609 
L 101.544152 306.26007 
L 101.74651 302.526268 
L 101.948867 290.50216 
L 102.353581 260.294224 
L 102.555938 258.733199 
L 103.567724 240.844701 
L 104.377153 218.610648 
L 104.57951 219.897438 
L 104.781868 225.318835 
L 104.984225 225.29774 
L 105.186582 234.241989 
L 105.793654 289.763837 
L 106.198368 302.589553 
L 106.400725 304.361527 
L 106.603083 300.311301 
L 107.412511 254.11341 
L 107.614869 252.383626 
L 107.817226 248.692014 
L 108.22194 234.07323 
L 108.626655 212.23998 
L 108.829012 206.270116 
L 109.031369 204.371572 
L 109.638441 213.104872 
L 109.840798 218.568458 
L 110.043155 229.031542 
L 110.650227 284.405726 
L 111.054941 298.750276 
L 111.257298 300.669915 
L 111.459655 298.919036 
L 111.662013 287.443395 
L 112.066727 258.015972 
L 112.471442 242.933099 
L 113.887942 174.121447 
L 114.090299 171.73772 
L 114.292656 178.593571 
L 114.495014 190.090306 
L 114.697371 194.710095 
L 115.102085 228.926067 
L 115.709157 278.583526 
L 116.113871 292.611652 
L 116.316228 292.780412 
L 116.518586 291.113913 
L 116.720943 287.46449 
L 117.125657 260.06218 
L 118.542158 154.777398 
L 118.744515 144.609643 
L 118.946872 140.707082 
L 119.149229 144.398694 
L 119.756301 182.496133 
L 120.56573 262.319337 
L 120.970444 282.254043 
L 121.172801 286.367554 
L 121.375159 288.012958 
L 121.577516 286.557408 
L 121.779873 278.583526 
L 122.589302 227.280663 
L 123.196374 201.671421 
L 123.398731 197.072727 
L 123.601088 197.283677 
L 123.803445 196.714114 
L 124.410517 210.193772 
L 124.612874 221.226419 
L 125.219946 277.845203 
L 125.62466 292.463988 
L 125.827017 294.468006 
L 126.029374 291.91552 
L 127.04116 235.191261 
L 127.648232 197.557911 
L 128.255304 154.925063 
L 128.457661 147.330889 
L 128.660018 146.99337 
L 129.26709 191.588046 
L 130.278876 282.971271 
L 130.481233 290.839679 
L 130.68359 292.231944 
L 130.885947 289.637268 
L 132.504805 180.070216 
L 133.111877 137.142039 
L 133.314234 127.670417 
L 133.516591 129.379106 
L 133.921306 144.841688 
L 134.123663 152.309292 
L 135.135449 262.84671 
L 135.540163 275.545856 
L 135.74252 274.596585 
L 135.944878 263.943646 
L 136.349592 232.343446 
L 136.551949 225.529784 
L 136.754306 213.590055 
L 136.956664 218.188749 
L 137.159021 206.818584 
L 137.766092 197.937619 
L 137.96845 198.338423 
L 138.373164 192.895932 
L 138.777879 200.490105 
L 138.980236 201.333903 
L 139.182593 213.210347 
L 139.789665 270.187745 
L 140.194379 285.650326 
L 140.396736 287.738724 
L 140.599093 284.701055 
L 141.003808 254.303265 
L 141.408522 232.997388 
L 142.015594 219.51773 
L 142.622665 210.320342 
L 142.825023 210.046107 
L 143.02738 208.822602 
L 143.229737 209.518734 
L 143.634451 214.834656 
L 143.836809 213.590055 
L 144.039166 223.84219 
L 144.646238 273.499648 
L 145.050952 285.671421 
L 145.253309 286.979307 
L 145.455666 283.815068 
L 145.860381 253.965746 
L 146.062738 237.406228 
L 146.66981 220.825615 
L 146.872167 218.125465 
L 147.074524 217.028528 
L 147.479238 205.848217 
L 147.681596 214.370568 
L 147.883953 215.362029 
L 148.08631 217.998895 
L 148.491024 227.386138 
L 148.693382 226.014967 
L 149.098096 249.83114 
L 149.502811 278.203817 
L 149.907525 291.430337 
L 150.109882 293.518734 
L 150.312239 292.928076 
L 150.514597 290.059166 
L 150.716954 284.258061 
L 151.121668 263.036565 
L 151.526383 242.194776 
L 151.931097 236.288197 
L 152.133454 235.845203 
L 152.335811 237.849221 
L 152.538169 238.376595 
L 152.740526 236.288197 
L 152.942883 236.583526 
L 153.14524 235.592064 
L 153.347597 235.634254 
L 153.549955 232.659869 
L 153.752312 234.895932 
L 154.764098 287.253541 
L 154.966455 291.282672 
L 155.168812 292.696032 
L 155.573527 288.687996 
L 155.775884 277.423305 
L 156.78767 198.127474 
L 157.799456 154.756303 
L 158.001813 156.802511 
L 158.406528 170.23998 
L 158.608885 184.036062 
L 159.215956 253.881366 
L 159.620671 275.86228 
L 159.823028 279.131994 
L 160.025385 278.203817 
L 160.227743 268.225917 
L 160.632457 235.191261 
L 161.8466 183.993872 
L 162.251315 173.762833 
L 162.453672 173.910497 
L 162.656029 176.821597 
L 163.465458 209.20231 
L 164.072529 270.12446 
L 164.477244 289.067705 
L 164.679601 289.405224 
L 164.881958 286.114415 
L 165.084316 275.777901 
L 165.48903 243.439377 
L 166.500816 207.725665 
L 167.310245 164.038071 
L 167.512602 167.45545 
L 167.917316 188.402712 
L 168.119674 192.938122 
L 168.322031 204.498142 
L 168.929102 264.977298 
L 169.333817 280.439879 
L 169.536174 284.026017 
L 169.738531 280.292215 
L 170.143246 252.510196 
L 170.54796 221.648317 
L 171.357389 176.273129 
L 171.559746 170.134505 
L 172.166818 145.49563 
L 172.369175 147.141035 
L 172.571532 155.199297 
L 173.178604 194.878855 
L 173.785675 267.25555 
L 174.19039 287.000402 
L 174.392747 290.038071 
L 174.595104 288.181718 
L 174.999819 263.542843 
L 175.404533 238.081266 
L 177.023391 158.405726 
L 177.225748 158.933099 
L 177.428105 162.92004 
L 177.630462 179.817077 
L 177.83282 182.306278 
L 178.237534 227.238473 
L 178.642248 270.947162 
L 179.046963 290.50216 
L 179.24932 294.299247 
L 179.451677 291.725665 
L 179.654034 282.865796 
L 180.261106 242.258061 
L 181.879964 143.449422 
L 182.082321 140.116424 
L 182.284678 145.896434 
L 183.094107 203.316826 
L 183.498821 243.080763 
L 183.903536 264.956203 
L 184.30825 272.95118 
L 184.510607 274.343446 
L 184.712965 270.630738 
L 184.915322 256.98232 
L 185.724751 173.340934 
L 186.129465 151.52878 
L 186.331822 145.347966 
L 186.53418 144.567454 
L 186.736537 147.16213 
L 187.748323 188.423807 
L 188.557752 253.923556 
L 188.962466 268.394676 
L 189.164823 270.483074 
L 189.36718 270.567454 
L 189.569538 269.808036 
L 189.771895 258.796484 
L 190.986038 160.810547 
L 191.188395 155.389151 
L 191.390752 155.346961 
L 191.795467 164.692014 
L 192.604896 196.671924 
L 193.414325 261.370065 
L 193.819039 275.377097 
L 194.021396 276.474033 
L 194.426111 272.423807 
L 194.628468 263.268609 
L 195.437897 201.017479 
L 195.640254 195.891411 
L 195.842611 197.136012 
L 196.247325 203.337921 
L 196.449683 203.928579 
L 196.65204 203.527775 
L 197.056754 211.923556 
L 197.259112 212.788448 
L 197.461469 221.395178 
L 198.06854 270.841688 
L 198.473255 285.354997 
L 198.675612 285.460472 
L 198.877969 281.72667 
L 199.282684 250.231944 
L 199.687398 226.879859 
L 201.306256 158.933099 
L 201.508613 157.751783 
L 202.115684 177.39116 
L 202.318042 188.803516 
L 202.925113 254.366549 
L 203.329828 272.423807 
L 203.532185 274.57549 
L 203.734542 271.516725 
L 203.936899 259.724661 
L 204.341614 224.939126 
L 205.758114 168.995379 
L 205.960471 166.442893 
L 206.162829 166.590558 
L 206.365186 168.046107 
L 206.7699 180.175691 
L 206.972257 183.445404 
L 207.174615 194.541336 
L 207.781686 254.978302 
L 208.186401 271.516725 
L 208.388758 274.638774 
L 208.591115 271.221396 
L 208.793472 259.070718 
L 209.198187 224.475038 
L 209.805258 201.671421 
L 210.209973 181.314817 
L 210.817044 138.639779 
L 211.019402 129.948669 
L 211.221759 132.986339 
L 211.626473 158.047112 
L 211.82883 163.384129 
L 212.031188 178.467002 
L 212.638259 245.063687 
L 213.042974 264.091311 
L 213.245331 268.183727 
L 213.447688 266.432848 
L 213.650045 255.463486 
L 214.257117 211.164139 
L 214.661831 184.183727 
L 215.47126 123.409242 
L 215.875975 106.280161 
L 216.078332 105.794977 
L 216.280689 111.469513 
L 217.090118 176.779407 
L 217.697189 240.190758 
L 218.101904 259.091813 
L 218.304261 262.530286 
L 218.506618 263.922551 
L 218.708976 262.635761 
L 218.911333 249.599096 
L 219.518404 193.48659 
L 220.125476 157.435359 
L 220.327833 155.220392 
L 220.53019 157.498644 
L 221.541976 200.827624 
L 221.744334 206.101356 
L 222.553762 264.365545 
L 222.958477 275.503666 
L 223.160834 277.254545 
L 223.363191 277.613159 
L 223.565549 276.009945 
L 223.767906 267.086791 
L 224.374977 227.955701 
L 224.779692 220.192767 
L 225.386763 222.30226 
L 225.589121 225.909493 
L 225.791478 226.816575 
L 226.196192 235.40221 
L 226.398549 235.043596 
L 226.600907 241.625213 
L 227.410335 296.535309 
L 227.612693 300.669915 
L 227.81505 302.399699 
L 228.017407 299.129985 
L 228.826836 255.505676 
L 229.029193 253.121949 
L 229.23155 247.236464 
L 230.648051 182.285183 
L 230.850408 182.875841 
L 231.255122 197.64229 
L 231.45748 208.801507 
L 232.064551 274.027022 
L 232.469266 291.620191 
L 232.671623 294.404721 
L 232.87398 293.160121 
L 233.278694 267.25555 
L 233.683409 244.1777 
L 235.302267 178.024008 
L 235.504624 177.412255 
L 236.111695 196.988348 
L 236.314053 207.599096 
L 236.921124 271.242491 
L 237.325839 287.50668 
L 237.528196 290.713109 
L 237.730553 288.540331 
L 238.135267 264.006931 
L 238.539982 241.688498 
L 239.349411 210.003918 
L 239.754125 199.751783 
L 240.15884 189.288699 
L 240.361197 189.03556 
L 240.563554 194.625716 
L 240.968268 212.661878 
L 241.170626 220.424812 
L 241.777697 277.31783 
L 242.182412 293.560924 
L 242.384769 296.11341 
L 242.587126 293.054646 
L 242.99184 267.740733 
L 243.396555 249.345957 
L 245.21777 172.876846 
L 245.420127 177.222401 
L 246.027199 204.666901 
L 246.836627 279.933601 
L 247.038985 288.498142 
L 247.241342 291.74676 
L 247.443699 289.152084 
L 247.848413 265.019488 
L 249.467271 150.305274 
L 249.669628 142.036062 
L 249.871985 140.053139 
L 250.074343 140.221899 
L 250.2767 147.330889 
L 250.883772 180.21788 
L 251.6932 257.003415 
L 252.097915 271.875339 
L 252.300272 275.018483 
L 252.502629 275.292717 
L 252.704986 271.326871 
L 253.109701 237.785937 
L 253.91913 162.814566 
L 254.323844 146.634756 
L 254.728558 137.606128 
L 254.930916 136.319337 
L 255.133273 143.997891 
L 255.740345 182.369563 
L 256.549773 259.387142 
L 256.954488 275.229432 
L 257.156845 279.131994 
L 257.359202 280.840683 
L 257.561559 279.849221 
L 257.966274 250.274134 
L 258.573345 198.675942 
L 258.97806 176.484078 
L 259.382774 165.198292 
L 259.585131 161.675439 
L 259.787489 161.232446 
L 259.989846 163.911502 
L 260.39456 180.281165 
L 260.596917 193.950678 
L 261.203989 257.425314 
L 261.608704 276.579508 
L 261.811061 279.574987 
L 262.013418 278.77338 
L 262.418132 254.23998 
L 262.62049 241.941637 
L 263.025204 232.048117 
L 263.227561 229.179206 
L 263.429918 228.145555 
L 263.834633 229.45344 
L 264.03699 229.137017 
L 264.239347 230.107383 
L 264.441704 230.191763 
L 264.644062 229.917529 
L 264.846419 232.005927 
L 265.048776 236.140532 
L 265.251133 236.140532 
L 265.45349 240.254043 
L 266.060562 283.730688 
L 266.465277 296.872828 
L 266.667634 298.454947 
L 266.869991 294.172677 
L 267.072348 286.030035 
L 267.477063 258.901959 
L 268.084134 236.203817 
L 268.488849 225.677449 
L 269.09592 214.159618 
L 269.500635 210.109392 
L 269.702992 212.345455 
L 269.905349 216.037067 
L 270.107706 216.733199 
L 270.310063 223.188247 
L 270.917135 273.204319 
L 271.32185 285.460472 
L 271.524207 287.654345 
L 271.726564 285.903466 
L 274.15485 140.960221 
L 274.357208 133.619186 
L 274.559565 137.036565 
L 275.166636 162.793471 
L 275.976065 246.308287 
L 276.38078 259.176193 
L 276.583137 258.458965 
L 276.987851 236.098343 
L 277.392566 206.50216 
L 278.404352 148.195781 
L 278.606709 145.073732 
L 279.011423 131.530789 
L 279.213781 129.885384 
L 279.416138 134.252034 
L 280.023209 176.969262 
L 280.630281 250.020994 
L 281.034995 273.351984 
L 281.237353 278.351482 
L 281.43971 276.769362 
L 281.642067 270.736213 
L 282.249139 227.976796 
L 282.85621 193.52878 
L 283.867996 149.714616 
L 284.070354 148.49111 
L 284.272711 156.844701 
L 285.284497 241.920542 
L 285.689211 274.870819 
L 286.093926 289.974787 
L 286.296283 292.316323 
L 286.49864 290.45997 
L 286.700997 287.443395 
L 287.105712 255.674435 
L 287.712783 202.873832 
L 288.522212 158.384631 
L 288.724569 151.085786 
L 288.926927 149.102863 
L 289.129284 152.77338 
L 289.736355 187.411251 
L 290.545784 259.197288 
L 290.950499 274.849724 
L 291.152856 277.697539 
L 291.355213 277.781919 
L 291.55757 276.263084 
L 291.759927 263.479558 
L 292.771714 162.392667 
L 293.176428 139.863285 
L 293.581142 128.345455 
L 293.7835 126.573481 
L 293.985857 130.180713 
L 294.592928 156.338423 
L 295.402357 241.667403 
L 295.807072 256.729181 
L 296.009429 256.560422 
L 296.414143 235.760824 
L 297.830644 97.293722 
L 298.235358 83.645304 
L 298.437715 80.987343 
L 298.640073 81.261577 
L 298.84243 83.37107 
L 299.044787 91.619186 
L 299.449501 119.295731 
L 300.056573 200.363536 
L 300.461287 226.268106 
L 300.663645 232.44892 
L 300.866002 233.187243 
L 301.068359 226.183727 
L 301.473073 195.342943 
L 302.484859 87.273631 
L 302.687217 75.650326 
L 302.889574 75.755801 
L 303.091931 84.067202 
L 303.496646 92.948167 
L 303.90136 115.793973 
L 304.306074 144.483074 
L 304.913146 215.551883 
L 305.31786 241.583024 
L 305.520218 247.299749 
L 305.722575 245.46449 
L 305.924932 238.14455 
L 306.532004 197.114917 
L 307.54379 125.223405 
L 307.746147 114.739227 
L 307.948504 113.832145 
L 308.757933 146.972275 
L 309.162647 173.741738 
L 309.769719 238.439879 
L 310.174433 258.859769 
L 310.376791 263.374083 
L 310.579148 262.783425 
L 310.983862 238.735208 
L 312.198005 131.889402 
L 312.60272 119.949674 
L 312.805077 115.456454 
L 313.007434 116.026017 
L 313.209791 119.823104 
L 313.816863 148.153591 
L 314.01922 162.202813 
L 314.626292 226.479056 
L 315.031006 247.531793 
L 315.233364 252.235962 
L 315.435721 251.560924 
L 315.840435 232.280161 
L 316.24515 213.062682 
L 316.649864 200.72215 
L 317.054578 185.006429 
L 317.66165 177.285686 
L 317.864007 176.821597 
L 318.066364 175.89342 
L 318.268722 180.703064 
L 318.875793 203.443395 
L 319.685222 263.627223 
L 320.089937 276.748267 
L 320.292294 278.435861 
L 320.697008 270.293219 
L 321.101723 243.354997 
L 322.315866 163.320844 
L 322.72058 152.794475 
L 322.922937 150.410748 
L 323.125295 154.650829 
L 323.732366 183.023506 
L 324.541795 253.417278 
L 324.94651 268.099347 
L 325.148867 271.073732 
L 325.351224 271.137017 
L 325.553581 268.816575 
L 325.755938 256.159618 
L 326.970082 140.707082 
L 327.172439 134.209844 
L 327.374796 132.585535 
L 327.77951 126.86881 
L 327.981868 131.994877 
L 328.184225 141.023506 
L 328.791296 194.077248 
L 329.196011 238.988348 
L 329.398368 254.640784 
L 329.803083 265.019488 
L 330.00544 264.049121 
L 330.207797 258.290206 
L 330.814869 208.463988 
L 331.42194 169.206328 
L 331.826655 145.917529 
L 332.029012 142.943144 
L 332.231369 142.964239 
L 332.433726 143.154093 
L 332.636083 145.305776 
L 332.838441 149.967755 
L 333.243155 173.509694 
L 333.445512 182.770367 
L 334.052584 250.274134 
L 334.457298 272.655851 
L 334.659655 278.224912 
L 334.862013 275.756806 
L 335.266727 255.379106 
L 335.671442 230.360522 
L 336.48087 189.16213 
L 336.683228 183.951683 
L 336.885585 182.812557 
L 337.087942 176.462983 
L 337.290299 174.56444 
L 337.695014 181.209342 
L 338.099728 196.060171 
L 338.302085 202.09332 
L 339.111514 269.702562 
L 339.313871 276.07323 
L 339.516228 278.372577 
L 339.718586 274.195781 
L 340.1233 250.210849 
L 340.932729 204.540331 
L 342.349229 141.107885 
L 342.551587 141.023506 
L 343.158658 166.379608 
L 343.76573 230.845706 
L 344.170444 249.345957 
L 344.372801 254.23998 
L 344.575159 252.046107 
L 344.777516 244.937117 
L 345.18223 213.210347 
L 346.194016 128.32436 
L 346.598731 113.157107 
L 347.003445 106.36454 
L 347.205802 105.499648 
L 347.40816 108.769362 
L 347.610517 116.827624 
L 348.015231 143.639277 
L 348.82466 237.237469 
L 349.229374 254.809543 
L 349.431732 254.029031 
L 349.634089 248.080261 
L 349.836446 236.646811 
L 351.050589 129.379106 
L 351.455304 110.520241 
L 351.860018 101.428327 
L 352.062375 100.500151 
L 352.264733 104.233953 
L 352.46709 115.625213 
L 353.276519 200.975289 
L 353.681233 239.937619 
L 354.085947 260.673933 
L 354.288305 266.095329 
L 354.490662 266.685987 
L 354.693019 264.38664 
L 355.097733 221.205324 
L 355.704805 145.369061 
L 356.109519 119.991863 
L 356.716591 101.301758 
L 356.918948 100.183727 
L 357.121306 105.11994 
L 357.52602 131.446409 
L 357.728377 144.483074 
L 358.740163 242.574485 
L 359.144878 255.906479 
L 359.347235 257.826118 
L 359.549592 257.488599 
L 359.751949 243.101858 
L 360.763735 119.169161 
L 361.16845 99.571974 
L 361.573164 88.159618 
L 361.775521 85.796986 
L 361.977879 89.172175 
L 362.180236 96.365545 
L 362.58495 122.860773 
L 363.394379 214.054144 
L 363.799093 232.195781 
L 364.001451 233.039578 
L 364.203808 226.985334 
L 364.406165 216.64882 
L 365.013237 145.137017 
L 365.620308 78.772376 
L 366.025023 62.149573 
L 366.429737 55.8 
L 366.632094 56.306278 
L 366.834451 59.027524 
L 367.036809 67.992868 
L 367.441523 98.010949 
L 368.048595 179.901457 
L 368.453309 211.290708 
L 368.655666 220.066198 
L 368.858024 222.513209 
L 369.060381 218.505173 
L 369.262738 208.358513 
L 369.86981 143.006429 
L 370.476881 83.160121 
L 370.881596 66.052135 
L 371.083953 65.588046 
L 371.28631 66.326369 
L 371.488667 70.376595 
L 371.691024 76.789453 
L 372.298096 116.912004 
L 373.107525 204.413762 
L 373.512239 227.301758 
L 373.714597 231.794977 
L 374.119311 231.07775 
L 374.321668 217.956705 
L 375.333454 111.047614 
L 375.738169 97.399196 
L 375.940526 94.614666 
L 376.142883 93.47554 
L 376.34524 98.812557 
L 376.749955 125.835158 
L 377.559383 186.504169 
L 377.964098 222.196786 
L 378.368812 236.414766 
L 378.57117 236.646811 
L 378.773527 230.529282 
L 378.975884 218.969262 
L 380.392384 98.791462 
L 380.797099 88.560422 
L 381.201813 80.734204 
L 381.40417 84.615671 
L 382.011242 122.776394 
L 382.820671 208.189754 
L 383.225385 224.791462 
L 383.427743 225.466499 
L 383.6301 219.960723 
L 384.034814 197.030537 
L 385.0466 121.320844 
L 385.451315 104.107383 
L 385.653672 103.6222 
L 385.856029 107.524761 
L 386.058386 115.393169 
L 387.070172 187.558915 
L 387.474887 228.926067 
L 387.879601 251.497639 
L 388.284316 260.927072 
L 388.68903 263.521748 
L 388.891387 257.594073 
L 389.700816 212.682973 
L 390.307888 201.122953 
L 390.914959 187.980814 
L 391.117316 192.917027 
L 391.926745 233.735711 
L 392.533817 279.321848 
L 392.938531 292.084279 
L 393.140888 294.003918 
L 393.343246 293.539829 
L 393.545603 294.025013 
L 393.74796 284.785434 
L 394.355032 242.321346 
L 395.569175 184.057157 
L 395.771532 177.855249 
L 395.973889 179.099849 
L 396.176247 187.685485 
L 396.783318 231.056655 
L 397.188033 270.799498 
L 397.592747 289.194274 
L 397.795104 292.063184 
L 397.997461 289.447413 
L 398.402176 270.736213 
L 400.628105 139.061678 
L 400.830462 141.993872 
L 401.03282 152.267102 
L 401.639891 211.121949 
L 402.044606 256.876846 
L 402.44932 277.845203 
L 402.651677 281.979809 
L 402.854034 280.27112 
L 403.258749 261.496635 
L 403.663463 232.174686 
L 404.877607 122.755299 
L 405.282321 101.575992 
L 405.484678 97.230437 
L 405.687035 98.348468 
L 405.889393 109.191261 
L 406.294107 147.752788 
L 406.901179 227.639277 
L 407.305893 252.468006 
L 407.50825 258.248016 
L 407.710607 257.699548 
L 408.115322 235.781919 
L 409.73418 99.276645 
L 409.936537 94.192767 
L 410.138894 94.045103 
L 410.341251 98.791462 
L 410.948323 136.045103 
L 411.15068 152.456956 
L 411.757752 225.29774 
L 412.162466 250.126469 
L 412.364823 256.813561 
L 412.56718 258.64882 
L 412.971895 240.021999 
L 414.388395 138.808538 
L 414.79311 124.843697 
L 415.197824 117.96675 
L 415.400181 124.949171 
L 416.20961 189.478553 
L 416.614325 236.140532 
L 417.019039 259.93561 
L 417.221396 264.323355 
L 417.423753 263.753792 
L 417.828468 247.0888 
L 419.244968 146.276143 
L 419.649683 132.248016 
L 419.85204 128.303265 
L 420.054397 129.77991 
L 420.256754 138.703064 
L 421.066183 205.974787 
L 421.673255 262.720141 
L 422.077969 279.279658 
L 422.280326 281.832145 
L 422.482684 281.157107 
L 422.685041 280.988348 
L 423.089755 249.324862 
L 423.899184 178.234957 
L 424.708613 137.774887 
L 424.91097 134.505173 
L 425.113327 138.618684 
L 425.518042 165.493621 
L 425.720399 177.623204 
L 426.529828 254.345455 
L 426.934542 273.436364 
L 427.136899 278.035058 
L 427.339257 278.85776 
L 427.541614 279.089804 
L 427.743971 270.25103 
L 428.148685 228.778403 
L 428.755757 165.177197 
L 429.160471 138.829633 
L 429.565186 130.349473 
L 429.9699 134.378604 
L 430.374615 151.043596 
L 430.576972 163.00442 
L 431.386401 241.076745 
L 431.791115 253.649322 
L 431.993472 251.560924 
L 432.398187 230.698041 
L 433.207616 163.827122 
L 434.017044 91.534807 
L 434.219402 86.514214 
L 435.02883 114.675942 
L 435.433545 140.348468 
L 436.040617 213.484581 
L 436.445331 236.625716 
L 436.647688 241.899448 
L 436.850045 241.203315 
L 437.25476 220.045103 
L 437.659474 184.183727 
L 438.468903 108.727172 
L 438.67126 98.728177 
L 438.873617 99.719638 
L 439.075975 107.018483 
L 439.278332 106.554395 
L 439.480689 108.853742 
L 439.885403 127.902461 
L 440.290118 153.321848 
L 440.897189 228.715118 
L 441.301904 251.624209 
L 441.504261 257.19327 
L 441.706618 257.741738 
L 442.111333 242.616675 
L 442.920762 189.204319 
L 443.527833 153.406228 
L 444.134905 130.054144 
L 444.337262 127.396183 
L 444.539619 133.9778 
L 445.146691 180.238975 
L 445.753762 251.265595 
L 446.158477 273.03556 
L 446.360834 278.119437 
L 446.563191 276.07323 
L 446.967906 256.665897 
L 448.586763 143.955701 
L 448.991478 130.412757 
L 449.193835 128.029031 
L 449.396192 134.863787 
L 450.003264 176.315319 
L 450.812693 258.48006 
L 451.217407 272.128478 
L 451.419764 272.255048 
L 451.824479 254.619689 
L 452.43155 202.873832 
L 453.038622 159.861276 
L 453.443336 142.373581 
L 453.848051 134.294224 
L 454.050408 137.753792 
L 454.252765 148.005927 
L 454.65748 177.159116 
L 454.859837 185.829131 
L 455.669266 252.257057 
L 456.07398 266.158614 
L 456.276337 267.719638 
L 456.478694 265.67343 
L 456.681052 262.488096 
L 456.883409 254.28217 
L 457.288123 226.563435 
L 457.692838 215.319839 
L 457.895195 216.037067 
L 458.299909 221.943646 
L 458.502267 221.795982 
L 458.906981 217.872325 
L 459.109338 218.420794 
L 459.514053 222.681969 
L 459.71641 227.090809 
L 460.728196 286.304269 
L 461.13291 290.839679 
L 461.537625 287.443395 
L 461.739982 278.288197 
L 462.144696 242.890909 
L 463.561197 171.927574 
L 463.763554 164.481065 
L 463.965911 165.683476 
L 464.572983 185.660372 
L 465.382412 254.366549 
L 465.584769 261.454445 
L 465.787126 264.238975 
L 465.989483 261.749774 
L 467.608341 166.822602 
L 468.620127 145.094827 
L 468.822484 148.301256 
L 469.429556 175.218383 
L 470.036627 233.398192 
L 470.441342 251.645304 
L 470.643699 254.345455 
L 470.846056 251.708589 
L 471.857842 199.477549 
L 472.869628 168.446911 
L 473.071985 168.953189 
L 473.274343 167.117931 
L 473.4767 168.404721 
L 473.679057 172.286188 
L 473.881414 179.036565 
L 474.083772 180.21788 
L 474.286129 188.086288 
L 474.8932 241.540834 
L 475.297915 258.205826 
L 475.500272 259.914515 
L 475.702629 257.826118 
L 476.107344 232.828629 
L 476.512058 210.257057 
L 477.321487 177.960723 
L 477.726201 157.287695 
L 477.928558 153.638272 
L 478.333273 158.447916 
L 478.53563 163.025515 
L 479.142702 188.592567 
L 479.952131 258.100352 
L 480.356845 268.204822 
L 480.559202 267.782923 
L 480.963917 245.126971 
L 482.785131 113.452436 
L 482.987489 107.398192 
L 483.189846 104.698041 
L 483.392203 110.478051 
L 483.999275 151.36002 
L 484.606346 224.285183 
L 485.011061 248.101356 
L 485.213418 252.615671 
L 485.415775 253.586037 
L 485.82049 233.313812 
L 486.225204 201.312808 
L 487.23699 109.043596 
L 487.439347 105.879357 
L 487.844062 112.608639 
L 488.248776 131.699548 
L 489.260562 211.206328 
L 489.665277 244.1777 
L 490.069991 259.661376 
L 490.272348 262.066198 
L 490.474705 260.905977 
L 490.677063 259.091813 
L 490.87942 249.113913 
L 491.891206 167.37107 
L 492.29592 149.208338 
L 492.498277 141.635259 
L 492.700635 139.567956 
L 492.902992 141.234455 
L 493.105349 146.170668 
L 493.712421 180.534304 
L 494.52185 254.345455 
L 495.128921 273.07775 
L 495.331278 273.225414 
L 495.533636 272.592567 
L 495.735993 264.850728 
L 496.950136 171.041587 
L 497.557208 146.065193 
L 497.759565 142.62672 
L 497.961922 145.917529 
L 498.568994 178.213862 
L 499.378422 253.881366 
L 499.58078 260.884882 
L 499.783137 263.437368 
L 499.985494 260.041085 
L 500.187851 251.307785 
L 500.794923 213.463486 
L 500.99728 208.231944 
L 501.401995 194.81557 
L 501.806709 183.276645 
L 502.009066 182.812557 
L 502.211423 184.922049 
L 502.413781 185.575992 
L 502.616138 183.867303 
L 503.020852 193.824108 
L 503.223209 194.393672 
L 503.425567 202.09332 
L 504.032638 254.050126 
L 504.437353 267.445404 
L 504.63971 269.111904 
L 504.842067 266.685987 
L 505.246782 241.709593 
L 505.651496 217.302762 
L 507.270354 142.331391 
L 507.472711 139.146057 
L 507.675068 142.62672 
L 508.28214 171.358011 
L 508.889211 230.824611 
L 509.293926 248.37559 
L 509.496283 251.982823 
L 509.69864 250.105374 
L 510.103354 225.972777 
L 511.722212 116.954194 
L 512.126927 98.749272 
L 512.329284 100.373581 
L 512.936355 135.602109 
L 513.34107 175.513712 
L 513.745784 220.066198 
L 514.150499 243.354997 
L 514.352856 249.071723 
L 514.555213 249.578001 
L 514.75757 240.464992 
L 516.174071 141.29774 
L 516.376428 140.179709 
L 516.781142 149.735711 
L 516.9835 146.930085 
L 517.185857 147.478553 
L 517.590571 165.620191 
L 517.792928 169.965746 
L 517.995286 180.935108 
L 518.4 221.585033 
L 518.4 221.585033 
" clip-path="url(#pa9496a894a)" style="fill: none; stroke: #1f77b4; stroke-width: 1.5; stroke-linecap: square"/>
   </g>
   <g id="line2d_14">
    <path d="M 72 264.019267 
L 72.202357 264.019267 
L 72.404714 264.174841 
L 72.809429 267.353863 
L 73.011786 267.532613 
L 73.214143 264.570103 
L 73.821215 250.234089 
L 74.225929 246.347754 
L 74.428286 242.772053 
L 74.833001 220.511489 
L 75.237715 197.958133 
L 75.440073 191.089245 
L 75.64243 190.281575 
L 75.844787 196.52846 
L 77.261287 266.128059 
L 77.463645 267.454631 
L 77.666002 265.426442 
L 77.868359 260.717414 
L 79.891931 179.092754 
L 80.094288 174.613874 
L 80.296646 173.057706 
L 80.499003 179.03181 
L 80.903717 207.166804 
L 81.510789 252.518698 
L 81.915503 275.422617 
L 82.11786 281.001683 
L 82.522575 279.118162 
L 83.129646 260.327272 
L 83.939075 235.518295 
L 84.141432 233.048581 
L 84.34379 233.203751 
L 84.748504 236.729783 
L 85.153218 242.741399 
L 85.76029 257.747836 
L 86.569719 294.015206 
L 86.772076 297.521857 
L 86.974433 298.270597 
L 87.176791 297.704779 
L 87.379148 294.611589 
L 88.188577 268.616357 
L 88.795648 251.72841 
L 89.200363 248.481415 
L 89.40272 247.64608 
L 89.605077 245.80328 
L 89.807434 245.323301 
L 90.009791 244.40564 
L 90.212149 244.866217 
L 90.81922 257.11104 
L 91.223935 277.710647 
L 91.628649 292.885122 
L 91.831006 294.388836 
L 92.033364 291.639787 
L 92.235721 287.121423 
L 92.640435 269.805873 
L 93.04515 247.490878 
L 93.247507 242.399269 
L 94.259293 232.849828 
L 94.46165 233.480883 
L 94.664007 234.776791 
L 94.866364 235.226561 
L 95.271079 243.174172 
L 95.87815 259.643154 
L 96.485222 286.288805 
L 96.687579 287.470376 
L 97.092294 279.326132 
L 97.497008 265.604276 
L 97.901723 250.831074 
L 98.10408 249.355048 
L 98.306437 249.008517 
L 98.508794 250.206132 
L 98.711151 249.199378 
L 99.115866 243.827654 
L 99.722937 238.691239 
L 99.925295 240.122056 
L 100.734723 266.33428 
L 101.341795 292.033044 
L 101.544152 293.052364 
L 101.948867 284.449844 
L 102.353581 268.209932 
L 102.758296 253.744527 
L 102.960653 252.680346 
L 103.16301 252.747512 
L 103.365367 253.425831 
L 103.567724 251.81034 
L 104.57951 235.485493 
L 104.781868 238.457647 
L 105.591296 268.081848 
L 106.198368 291.896431 
L 106.400725 292.970447 
L 106.80544 286.135423 
L 107.007797 279.736959 
L 107.614869 253.239743 
L 107.817226 250.932714 
L 108.019583 250.572541 
L 108.22194 250.849471 
L 108.424297 248.367581 
L 108.829012 233.254523 
L 109.031369 222.304465 
L 109.233726 217.990806 
L 109.436083 221.835549 
L 110.245512 257.094373 
L 111.054941 292.283562 
L 111.257298 293.291437 
L 111.459655 291.330927 
L 111.662013 287.411591 
L 112.066727 271.036739 
L 112.471442 252.302052 
L 113.28087 232.955133 
L 113.887942 196.454752 
L 114.090299 192.420323 
L 114.292656 192.355131 
L 114.495014 198.010805 
L 115.709157 281.311126 
L 115.911514 288.394964 
L 116.113871 290.353828 
L 116.316228 289.246907 
L 116.518586 285.942844 
L 116.9233 269.995979 
L 117.935086 222.736484 
L 118.339801 186.078753 
L 118.744515 159.80395 
L 118.946872 154.080837 
L 119.149229 154.282496 
L 119.351587 160.575738 
L 119.756301 186.378803 
L 120.56573 266.577275 
L 120.768087 276.179488 
L 120.970444 279.118976 
L 121.172801 280.174858 
L 121.375159 278.02282 
L 121.779873 264.161557 
L 122.386945 232.953531 
L 122.791659 214.052362 
L 123.398731 193.083731 
L 123.601088 190.953843 
L 123.803445 191.185132 
L 124.005802 195.546018 
L 124.815231 237.024668 
L 125.422303 285.913586 
L 125.62466 292.801334 
L 125.827017 294.386311 
L 126.029374 292.480395 
L 126.434089 279.941462 
L 127.445875 223.68137 
L 128.052947 176.789506 
L 128.457661 153.565551 
L 128.660018 150.192169 
L 128.862375 151.589809 
L 129.064733 160.145483 
L 129.469447 198.290711 
L 129.874161 249.472489 
L 130.278876 280.699647 
L 130.481233 286.299551 
L 130.885947 279.337999 
L 131.290662 263.54936 
L 132.504805 190.971663 
L 133.111877 141.764202 
L 133.314234 135.469838 
L 133.516591 135.174447 
L 133.718948 139.098518 
L 134.123663 163.305711 
L 134.528377 194.800474 
L 134.933092 246.93216 
L 135.135449 266.750822 
L 135.337806 275.12167 
L 135.540163 276.799368 
L 135.74252 273.073957 
L 136.147235 257.521796 
L 136.551949 231.609876 
L 136.956664 201.762629 
L 137.159021 191.542219 
L 137.361378 190.157243 
L 137.766092 184.31836 
L 138.170807 186.707546 
L 138.980236 215.046833 
L 139.182593 223.049532 
L 140.194379 283.051447 
L 140.396736 282.783391 
L 140.801451 273.543748 
L 141.206165 252.898812 
L 141.813237 219.583617 
L 142.420308 208.398934 
L 142.622665 207.580704 
L 142.825023 204.220356 
L 143.02738 203.718131 
L 143.229737 206.682355 
L 143.634451 218.502157 
L 143.836809 225.111813 
L 144.44388 260.100931 
L 144.848595 284.366165 
L 145.050952 288.130106 
L 145.253309 286.525553 
L 145.658024 271.822586 
L 146.265095 233.551194 
L 146.467452 221.075038 
L 146.872167 213.617478 
L 147.276881 208.900158 
L 147.479238 207.61313 
L 147.681596 201.731138 
L 147.883953 200.952703 
L 148.288667 213.061109 
L 148.693382 234.765401 
L 149.705168 291.086862 
L 149.907525 294.674718 
L 150.109882 294.074087 
L 150.312239 289.86901 
L 150.919311 266.741717 
L 151.324025 252.189871 
L 151.72874 241.186884 
L 151.931097 237.852211 
L 152.133454 237.372327 
L 152.335811 236.145326 
L 152.538169 235.940732 
L 153.14524 244.773605 
L 154.359383 280.146491 
L 154.764098 293.842543 
L 154.966455 295.912748 
L 155.168812 295.229232 
L 155.37117 292.590064 
L 156.180598 264.266183 
L 156.78767 236.181299 
L 157.597099 185.106838 
L 158.001813 169.832779 
L 158.20417 170.689957 
L 158.406528 178.571509 
L 159.013599 230.516527 
L 159.418314 267.480102 
L 159.620671 277.526539 
L 159.823028 280.42214 
L 160.025385 279.563706 
L 160.227743 274.837435 
L 160.632457 255.574377 
L 161.441886 199.113807 
L 161.8466 184.017545 
L 162.251315 173.05704 
L 162.453672 171.786497 
L 162.656029 174.307936 
L 162.858386 180.470101 
L 163.667815 230.130511 
L 164.477244 285.345693 
L 164.679601 287.657175 
L 164.881958 284.586835 
L 165.286673 270.514648 
L 166.298459 221.509942 
L 166.500816 220.456309 
L 166.703173 214.584332 
L 167.512602 169.172453 
L 167.714959 171.416648 
L 167.917316 181.597706 
L 169.333817 287.576982 
L 169.536174 287.431609 
L 169.940888 274.663452 
L 170.54796 237.386956 
L 171.559746 161.047778 
L 171.964461 149.155215 
L 172.166818 147.102945 
L 172.369175 148.11844 
L 172.571532 152.59302 
L 172.976247 177.446775 
L 173.583318 235.541369 
L 173.988033 270.696346 
L 174.19039 276.957723 
L 174.392747 276.89303 
L 174.595104 274.291123 
L 174.999819 258.010637 
L 175.809248 213.429081 
L 176.011605 208.625591 
L 176.821034 169.339798 
L 177.023391 163.517814 
L 177.225748 162.927737 
L 177.428105 166.687494 
L 177.83282 189.342446 
L 178.844606 281.638793 
L 179.046963 286.758526 
L 179.24932 286.372946 
L 179.451677 283.367862 
L 179.856392 269.88308 
L 181.879964 149.999148 
L 182.082321 149.339995 
L 182.284678 152.140338 
L 182.487035 161.018815 
L 183.094107 209.835607 
L 183.498821 250.414846 
L 183.701179 264.087073 
L 183.903536 270.190736 
L 184.105893 271.458824 
L 184.510607 263.842701 
L 185.117679 238.10219 
L 185.522393 211.418893 
L 186.129465 146.667141 
L 186.331822 136.24296 
L 186.53418 133.189998 
L 186.736537 134.140338 
L 186.938894 140.945169 
L 187.343608 168.126458 
L 187.95068 214.438854 
L 188.760109 267.919341 
L 188.962466 270.021725 
L 189.164823 268.737707 
L 189.36718 264.539294 
L 190.176609 226.758284 
L 190.581324 201.633575 
L 191.188395 149.404541 
L 191.390752 145.190442 
L 191.59311 145.80649 
L 191.795467 151.453094 
L 192.200181 177.239189 
L 192.807253 219.709005 
L 193.414325 265.060879 
L 193.616682 272.850012 
L 193.819039 275.001602 
L 194.021396 275.131583 
L 194.223753 270.90028 
L 194.628468 253.590959 
L 195.437897 209.924695 
L 195.842611 182.049038 
L 196.044968 175.940254 
L 197.259112 222.020781 
L 197.663826 234.555288 
L 198.270898 274.915007 
L 198.473255 280.999428 
L 198.675612 283.195064 
L 198.877969 281.409306 
L 199.282684 266.878907 
L 199.687398 239.914252 
L 200.092112 212.308713 
L 200.699184 184.329 
L 201.103898 167.09784 
L 201.306256 162.12357 
L 201.508613 160.718926 
L 201.71097 162.291447 
L 201.913327 168.181526 
L 202.925113 244.960846 
L 203.329828 271.772644 
L 203.532185 274.311942 
L 203.734542 270.244452 
L 204.139257 253.126915 
L 204.543971 224.048384 
L 205.151043 187.410484 
L 205.960471 157.332901 
L 206.162829 157.297684 
L 206.365186 160.911812 
L 206.567543 167.574244 
L 207.174615 203.177475 
L 207.579329 232.098431 
L 208.186401 275.530011 
L 208.388758 276.702541 
L 208.591115 272.702179 
L 208.99583 255.879969 
L 210.209973 181.149093 
L 210.817044 151.678775 
L 211.221759 137.298766 
L 211.424116 138.590178 
L 211.626473 148.587398 
L 213.042974 264.818628 
L 213.245331 265.93969 
L 213.447688 262.779033 
L 213.852403 247.995726 
L 215.268903 138.894021 
L 215.673617 116.0352 
L 215.875975 110.802441 
L 216.078332 111.546772 
L 216.280689 114.71722 
L 216.483046 122.313474 
L 217.090118 168.213244 
L 217.494832 215.106562 
L 217.697189 236.416998 
L 218.101904 251.523311 
L 218.304261 250.423631 
L 218.506618 248.314973 
L 219.316047 214.547202 
L 219.518404 201.422534 
L 220.125476 148.702334 
L 220.53019 135.2733 
L 220.732548 136.980025 
L 221.137262 162.404012 
L 221.744334 214.730472 
L 222.351405 247.387745 
L 222.75612 266.602995 
L 223.160834 271.687235 
L 223.363191 267.854122 
L 224.779692 206.645573 
L 224.982049 206.609545 
L 225.184406 207.374427 
L 225.589121 213.942008 
L 226.600907 238.851577 
L 227.005621 259.072198 
L 227.410335 283.77371 
L 227.612693 290.382003 
L 227.81505 292.432068 
L 228.017407 290.575433 
L 228.219764 286.222344 
L 228.624479 264.897565 
L 229.23155 231.039958 
L 229.838622 221.462744 
L 230.243336 211.461553 
L 230.850408 187.710078 
L 231.052765 188.254596 
L 231.45748 212.546192 
L 232.266908 277.56992 
L 232.469266 286.558501 
L 232.671623 288.649057 
L 233.076337 279.268219 
L 233.683409 248.239535 
L 234.088123 224.911462 
L 235.302267 186.169356 
L 235.504624 184.327123 
L 235.706981 185.816612 
L 236.111695 206.275386 
L 236.51641 238.737545 
L 237.325839 292.090829 
L 237.528196 293.110893 
L 237.730553 288.999677 
L 238.135267 272.626708 
L 239.551768 211.145077 
L 239.956482 198.948134 
L 240.15884 197.207503 
L 240.361197 196.640577 
L 240.563554 200.918902 
L 240.765911 208.126517 
L 241.170626 235.165674 
L 241.777697 279.248995 
L 242.182412 295.627013 
L 242.384769 295.018296 
L 242.789483 284.649195 
L 243.194198 263.977014 
L 243.801269 235.209369 
L 244.205984 225.723131 
L 244.610698 201.894028 
L 245.015413 184.430044 
L 245.21777 182.679856 
L 245.420127 182.806813 
L 245.622484 188.058849 
L 245.824841 200.308504 
L 246.63427 268.691289 
L 247.038985 289.568685 
L 247.241342 290.1283 
L 247.646056 281.455134 
L 248.050771 260.918112 
L 249.062557 193.269951 
L 249.467271 156.261005 
L 249.871985 139.187477 
L 250.074343 139.80191 
L 250.479057 156.081088 
L 251.086129 207.560797 
L 251.6932 260.3378 
L 251.895558 269.034072 
L 252.097915 272.135458 
L 252.300272 270.557208 
L 252.704986 258.258009 
L 253.312058 227.536678 
L 253.716772 196.543904 
L 254.121487 150.282108 
L 254.323844 140.37634 
L 254.526201 137.172366 
L 254.728558 137.042994 
L 254.930916 140.095559 
L 255.33563 155.441037 
L 255.942702 204.48794 
L 256.549773 260.892276 
L 256.954488 275.408725 
L 257.156845 274.899232 
L 257.359202 270.964793 
L 257.966274 244.10561 
L 258.775703 191.486045 
L 259.180417 163.946973 
L 259.382774 158.571117 
L 259.585131 156.43759 
L 259.787489 158.491321 
L 259.989846 163.601781 
L 260.596917 199.684331 
L 260.799275 212.335951 
L 261.406346 270.27867 
L 261.608704 279.169539 
L 261.811061 281.215151 
L 262.013418 279.613571 
L 262.215775 274.937153 
L 262.418132 267.342841 
L 263.429918 208.747638 
L 263.632276 203.903311 
L 264.03699 208.814607 
L 264.441704 217.147323 
L 264.644062 220.23306 
L 265.45349 241.931522 
L 266.465277 289.294504 
L 266.667634 290.162473 
L 267.072348 280.484077 
L 267.477063 264.415766 
L 268.084134 238.054452 
L 268.488849 226.962679 
L 268.691206 224.385541 
L 269.09592 217.462482 
L 269.298277 215.625879 
L 269.500635 215.066695 
L 269.702992 215.897719 
L 269.905349 221.531089 
L 271.32185 290.935799 
L 271.524207 291.088938 
L 271.928921 279.530526 
L 272.333636 258.2744 
L 274.15485 151.534587 
L 274.559565 145.393241 
L 274.761922 148.3039 
L 274.964279 157.013897 
L 275.571351 205.117034 
L 276.178422 260.420953 
L 276.38078 265.527575 
L 276.583137 263.732315 
L 276.785494 259.526283 
L 276.987851 251.70192 
L 277.594923 205.768045 
L 278.201995 155.358159 
L 278.606709 141.534811 
L 278.809066 136.344055 
L 279.011423 136.245965 
L 279.213781 138.122105 
L 279.416138 141.059189 
L 279.820852 159.169633 
L 280.427924 214.052466 
L 280.832638 256.99843 
L 281.034995 268.030637 
L 281.237353 272.478497 
L 281.43971 269.99439 
L 281.844424 255.56638 
L 283.463282 163.534231 
L 283.867996 150.771795 
L 284.070354 149.055478 
L 284.272711 153.165733 
L 284.475068 162.29112 
L 285.891568 281.146351 
L 286.093926 282.751551 
L 286.296283 280.066894 
L 286.49864 275.13414 
L 287.105712 245.710464 
L 288.117498 187.384484 
L 288.522212 161.439029 
L 288.724569 153.869343 
L 288.926927 151.307996 
L 289.129284 154.234354 
L 289.331641 162.356203 
L 289.736355 191.352769 
L 290.748141 272.038976 
L 290.950499 273.526588 
L 291.152856 272.269502 
L 291.355213 268.452049 
L 291.55757 262.044147 
L 292.164642 229.620183 
L 292.771714 175.738576 
L 293.176428 138.320899 
L 293.378785 129.941765 
L 293.581142 126.848575 
L 293.7835 129.275807 
L 293.985857 134.704246 
L 294.188214 144.060114 
L 295.2 223.274388 
L 295.604714 257.330057 
L 295.807072 262.417975 
L 296.009429 262.305833 
L 296.211786 257.738507 
L 296.6165 237.846072 
L 296.818858 222.686127 
L 297.830644 102.58823 
L 298.235358 87.052506 
L 298.437715 87.244226 
L 298.84243 96.282262 
L 299.044787 104.556744 
L 299.651859 150.330307 
L 300.056573 189.660786 
L 300.461287 237.594862 
L 300.663645 240.531985 
L 300.866002 239.433722 
L 301.270716 224.658703 
L 301.675431 194.842333 
L 302.687217 74.704863 
L 302.889574 69.471893 
L 303.091931 71.355056 
L 303.294288 78.147238 
L 303.90136 117.638093 
L 305.31786 240.893796 
L 305.520218 244.963711 
L 305.722575 242.013208 
L 306.127289 220.602901 
L 306.532004 196.240175 
L 307.341432 132.313833 
L 307.746147 120.219368 
L 307.948504 117.587228 
L 308.150861 117.38261 
L 308.353218 123.253844 
L 308.96029 164.880109 
L 309.567362 207.707846 
L 309.769719 217.367246 
L 310.174433 245.8297 
L 310.376791 250.127817 
L 310.579148 247.58645 
L 310.781505 241.191779 
L 311.388577 205.224211 
L 311.793291 170.536651 
L 312.198005 136.117791 
L 312.60272 120.158936 
L 312.805077 118.323947 
L 313.007434 120.450886 
L 313.209791 124.1543 
L 313.412149 130.970216 
L 313.816863 157.278141 
L 314.626292 213.43303 
L 315.031006 237.339734 
L 315.233364 240.798234 
L 315.435721 236.900883 
L 315.638078 230.000661 
L 316.042792 211.446242 
L 316.24515 204.1497 
L 316.852221 169.843621 
L 317.256936 160.819246 
L 317.459293 159.413038 
L 317.66165 160.241369 
L 317.864007 162.014484 
L 318.268722 175.086619 
L 318.673436 192.162264 
L 319.07815 212.412704 
L 319.280508 219.883388 
L 320.089937 262.958117 
L 320.292294 264.529145 
L 320.494651 260.483563 
L 321.101723 235.080836 
L 322.113509 181.64433 
L 322.518223 156.330626 
L 322.72058 148.442999 
L 322.922937 147.080095 
L 323.125295 148.34498 
L 323.327652 155.299708 
L 323.934723 195.456463 
L 324.744152 259.105467 
L 324.94651 262.642048 
L 325.148867 261.944525 
L 325.351224 257.823384 
L 326.36301 212.422992 
L 326.767724 169.588611 
L 327.172439 127.718761 
L 327.374796 117.340575 
L 327.577153 116.398667 
L 327.77951 119.862892 
L 328.386582 148.408583 
L 328.993654 200.545844 
L 329.398368 244.764711 
L 329.803083 264.162691 
L 330.00544 264.161218 
L 330.207797 259.549627 
L 330.612511 240.159881 
L 331.219583 180.955681 
L 331.624297 143.223114 
L 332.029012 129.338751 
L 332.231369 126.454607 
L 332.636083 135.313713 
L 333.040798 157.591352 
L 334.457298 267.896343 
L 334.659655 271.722702 
L 334.862013 269.017361 
L 335.266727 254.533821 
L 336.278513 193.710914 
L 336.683228 177.443725 
L 336.885585 169.75158 
L 337.087942 168.795504 
L 337.290299 169.967938 
L 337.492656 172.143627 
L 337.897371 188.444356 
L 339.313871 277.136807 
L 339.516228 279.191326 
L 339.718586 275.801597 
L 340.1233 258.193611 
L 340.932729 207.218246 
L 342.146872 147.155117 
L 342.349229 145.934863 
L 342.551587 148.260506 
L 342.753944 153.089096 
L 343.361015 187.420685 
L 343.563373 201.890175 
L 343.968087 243.110857 
L 344.170444 254.768345 
L 344.372801 258.063258 
L 344.575159 255.052568 
L 344.777516 249.511083 
L 345.384587 215.341836 
L 345.789302 171.61327 
L 346.194016 125.715306 
L 346.598731 105.075234 
L 346.801088 100.769485 
L 347.003445 101.112575 
L 347.205802 104.856704 
L 347.610517 117.90966 
L 348.217588 159.877152 
L 348.419946 175.15672 
L 349.027017 240.767868 
L 349.229374 246.007489 
L 349.431732 244.937772 
L 349.634089 239.982866 
L 350.24116 209.807747 
L 350.645875 165.264581 
L 351.050589 121.524128 
L 351.455304 104.230025 
L 351.657661 101.878418 
L 351.860018 100.964973 
L 352.46709 116.823405 
L 352.871804 147.490307 
L 353.681233 235.620748 
L 354.085947 254.11817 
L 354.288305 253.003765 
L 354.693019 239.274361 
L 355.300091 213.14198 
L 355.502448 192.790236 
L 355.907162 131.805012 
L 356.311877 109.63794 
L 356.514234 106.830459 
L 356.918948 110.401956 
L 357.323663 120.992009 
L 357.728377 153.554344 
L 358.740163 245.681142 
L 358.94252 251.469614 
L 359.144878 250.941595 
L 360.156664 208.531795 
L 360.561378 155.704178 
L 360.966092 110.830757 
L 361.16845 100.881275 
L 361.370807 97.186255 
L 361.573164 97.467299 
L 361.977879 102.84777 
L 362.180236 111.116357 
L 362.787307 157.422571 
L 363.799093 241.274042 
L 364.001451 238.463238 
L 364.203808 233.449844 
L 364.608522 210.945065 
L 365.013237 168.957242 
L 365.620308 92.851447 
L 366.025023 71.079355 
L 366.22738 70.342335 
L 366.429737 73.764102 
L 366.834451 86.557545 
L 367.239166 109.403057 
L 368.048595 181.875958 
L 368.453309 216.690072 
L 368.655666 222.236181 
L 368.858024 223.284363 
L 369.060381 219.391561 
L 369.465095 201.123702 
L 369.86981 167.015103 
L 370.476881 106.147046 
L 370.881596 89.71908 
L 371.083953 90.229163 
L 371.28631 92.533597 
L 371.691024 107.37103 
L 372.095739 131.431222 
L 373.107525 210.827817 
L 373.512239 225.838379 
L 373.714597 225.375297 
L 374.119311 214.906164 
L 374.726383 189.096787 
L 375.535811 122.043367 
L 375.738169 116.336941 
L 375.940526 115.997234 
L 376.142883 117.62422 
L 376.547597 128.564579 
L 376.952312 154.768466 
L 377.559383 201.74324 
L 378.166455 224.147483 
L 378.368812 230.122547 
L 378.57117 229.109354 
L 378.975884 215.403353 
L 379.380598 194.726694 
L 380.392384 120.204611 
L 380.594742 114.141413 
L 380.797099 111.717173 
L 380.999456 112.26826 
L 381.40417 119.741503 
L 381.808885 136.402032 
L 382.820671 204.504267 
L 383.225385 215.013494 
L 383.427743 215.668001 
L 383.6301 212.40272 
L 384.034814 198.956016 
L 384.237171 188.176351 
L 384.237171 188.176351 
" clip-path="url(#pa9496a894a)" style="fill: none; stroke: #ff7f0e; stroke-width: 1.5; stroke-linecap: square"/>
   </g>
   <g id="line2d_15">
    <path d="M 384.439529 174.669244 
L 384.844243 149.261116 
L 385.248957 135.643655 
L 385.451315 133.092119 
L 385.653672 132.575 
L 385.856029 134.687573 
L 386.058386 139.303387 
L 386.463101 157.473186 
L 387.272529 209.318381 
L 387.474887 214.790257 
L 387.879601 218.954872 
L 388.081958 216.994765 
L 388.284316 213.783654 
L 388.68903 199.674992 
L 389.093744 175.82783 
L 389.903173 129.108264 
L 390.307888 119.947544 
L 390.510245 120.465163 
L 390.712602 123.211629 
L 391.117316 135.226453 
L 391.724388 170.411194 
L 392.33146 199.397472 
L 392.533817 201.676918 
L 392.736174 201.773701 
L 393.140888 196.743511 
L 393.545603 187.138 
L 394.759746 142.798074 
L 394.962103 140.506065 
L 395.164461 139.50304 
L 395.569175 141.583228 
L 395.973889 150.501042 
L 397.188033 196.338912 
L 397.39039 198.050834 
L 397.592747 198.055226 
L 397.997461 192.978275 
L 398.604533 170.370723 
L 399.413962 136.046863 
L 399.818676 128.447131 
L 400.021034 127.090301 
L 400.223391 128.785339 
L 400.425748 131.976683 
L 400.830462 144.541932 
L 402.044606 193.16183 
L 402.44932 198.6322 
L 402.651677 198.034095 
L 402.854034 196.389343 
L 403.258749 187.536127 
L 404.270535 154.173006 
L 404.675249 147.709862 
L 404.877607 146.656645 
L 405.079964 147.604782 
L 405.282321 150.101352 
L 405.687035 159.779472 
L 406.698821 194.230362 
L 407.103536 200.063526 
L 407.305893 200.673416 
L 407.50825 199.232653 
L 407.710607 195.900452 
L 408.115322 183.733307 
L 409.127108 146.865435 
L 409.531822 139.862034 
L 409.73418 139.056688 
L 409.936537 139.962873 
L 410.138894 142.486234 
L 410.543608 153.013651 
L 411.555394 189.068684 
L 411.960109 195.701642 
L 412.162466 196.57475 
L 412.364823 195.597008 
L 412.56718 193.023464 
L 412.971895 182.214595 
L 413.983681 148.723723 
L 414.388395 142.649728 
L 414.590752 141.587367 
L 414.79311 142.333435 
L 414.995467 144.572805 
L 415.400181 153.407677 
L 416.411967 184.149519 
L 416.816682 189.594807 
L 417.019039 190.107168 
L 417.221396 188.502 
L 417.626111 180.07216 
L 419.042611 139.000826 
L 419.244968 137.510689 
L 419.447325 137.636461 
L 419.649683 139.479953 
L 420.054397 147.770108 
L 420.661469 169.310982 
L 421.26854 189.596485 
L 421.673255 196.514868 
L 421.875612 197.680328 
L 422.077969 197.303691 
L 422.482684 190.378929 
L 423.089755 171.486524 
L 423.696827 154.669979 
L 424.101541 149.197211 
L 424.303898 148.446107 
L 424.506256 149.240162 
L 424.708613 151.533716 
L 425.113327 160.14843 
L 426.327471 193.178511 
L 426.529828 195.21802 
L 426.732185 195.741091 
L 426.934542 194.638994 
L 427.339257 186.683165 
L 428.755757 147.324333 
L 428.958114 145.535756 
L 429.160471 145.251553 
L 429.362829 146.305603 
L 429.767543 152.980568 
L 430.374615 171.608406 
L 430.981686 189.117611 
L 431.386401 194.456008 
L 431.588758 194.929067 
L 431.791115 193.79022 
L 432.19583 185.435966 
L 433.61233 144.440984 
L 433.814687 142.133577 
L 434.017044 141.265025 
L 434.219402 141.898515 
L 434.421759 144.068258 
L 434.826473 152.352396 
L 436.040617 184.46579 
L 436.242974 186.598349 
L 436.445331 187.011588 
L 436.647688 185.803556 
L 437.052403 178.387927 
L 438.468903 143.350756 
L 438.67126 142.40319 
L 438.873617 142.741532 
L 439.075975 144.603024 
L 439.480689 152.387043 
L 440.087761 172.005642 
L 440.694832 190.466525 
L 441.099547 196.5679 
L 441.301904 197.444122 
L 441.504261 196.421175 
L 441.908976 189.304991 
L 443.325476 151.733728 
L 443.527833 149.541897 
L 443.73019 148.820128 
L 443.932548 149.585496 
L 444.134905 151.687822 
L 444.539619 159.870552 
L 445.753762 191.665467 
L 445.95612 193.670966 
L 446.158477 194.29472 
L 446.360834 193.145034 
L 446.765549 185.806091 
L 448.182049 149.984705 
L 448.384406 148.406866 
L 448.586763 148.139976 
L 448.789121 149.147519 
L 449.193835 155.261152 
L 449.800907 172.211632 
L 450.407978 188.197459 
L 450.812693 192.917493 
L 451.01505 193.205156 
L 451.217407 191.497187 
L 451.622121 183.01559 
L 453.038622 143.304646 
L 453.240979 141.201576 
L 453.443336 140.408392 
L 453.645694 141.203069 
L 453.848051 143.303838 
L 454.252765 151.58799 
L 455.466908 183.522947 
L 455.669266 185.644506 
L 455.871623 186.287758 
L 456.07398 185.232955 
L 456.478694 178.534767 
L 457.895195 146.086003 
L 458.097552 145.208146 
L 458.299909 145.563879 
L 458.502267 147.308256 
L 458.906981 154.664148 
L 459.514053 172.974232 
L 460.121124 190.51272 
L 460.525839 196.242972 
L 460.728196 196.890186 
L 460.930553 195.692328 
L 461.335267 188.675227 
L 462.751768 152.217782 
L 462.954125 150.105869 
L 463.156482 149.466004 
L 463.35884 150.189715 
L 463.561197 152.256485 
L 463.965911 160.285069 
L 465.180054 191.566853 
L 465.382412 193.542038 
L 465.584769 194.218142 
L 465.787126 193.12083 
L 466.19184 186.096192 
L 467.608341 151.195873 
L 467.810698 149.517798 
L 468.013055 149.109874 
L 468.215413 149.91866 
L 468.41777 152.061798 
L 468.822484 159.964086 
L 469.83427 186.388985 
L 470.238985 190.855005 
L 470.441342 190.932796 
L 470.643699 189.164578 
L 471.048413 180.789618 
L 472.464914 142.331769 
L 472.667271 140.465927 
L 472.869628 139.856492 
L 473.071985 140.782553 
L 473.274343 143.006185 
L 473.679057 151.439881 
L 474.8932 183.578864 
L 475.095558 185.816801 
L 475.297915 186.566906 
L 475.500272 185.672181 
L 475.904986 179.399839 
L 477.321487 147.86782 
L 477.523844 146.886709 
L 477.726201 147.140584 
L 477.928558 148.684725 
L 478.333273 155.630668 
L 478.940345 173.115036 
L 479.547416 190.183635 
L 479.952131 195.917368 
L 480.154488 196.489478 
L 480.356845 195.391702 
L 480.559202 192.752205 
L 480.963917 183.353702 
L 481.975703 156.215824 
L 482.380417 151.238568 
L 482.582774 150.657359 
L 482.785131 151.30915 
L 482.987489 153.356761 
L 483.392203 161.222492 
L 484.606346 191.915563 
L 484.808704 193.836022 
L 485.011061 194.488389 
L 485.213418 193.408119 
L 485.618132 186.407535 
L 487.034633 151.142997 
L 487.23699 149.28107 
L 487.439347 148.678907 
L 487.641704 149.277263 
L 487.844062 151.181571 
L 488.248776 158.581055 
L 489.462919 186.959807 
L 489.665277 188.591279 
L 489.867634 188.625529 
L 490.069991 186.994467 
L 490.474705 178.907602 
L 491.891206 141.778773 
L 492.093563 140.145046 
L 492.29592 139.690729 
L 492.498277 140.739609 
L 492.700635 143.094484 
L 493.105349 151.656194 
L 494.319492 183.984878 
L 494.52185 186.314969 
L 494.724207 187.143511 
L 494.926564 186.372466 
L 495.331278 180.382904 
L 495.93835 164.669365 
L 496.545422 151.308842 
L 496.950136 148.045193 
L 497.152493 148.159866 
L 497.35485 149.549414 
L 497.759565 156.16801 
L 498.366636 173.193935 
L 498.973708 190.102529 
L 499.378422 195.980514 
L 499.58078 196.639583 
L 499.783137 195.71983 
L 499.985494 193.264143 
L 500.390209 184.222337 
L 501.401995 157.711311 
L 501.806709 152.767657 
L 502.009066 152.135853 
L 502.211423 152.672323 
L 502.413781 154.60642 
L 502.818495 162.178209 
L 504.032638 191.986694 
L 504.234995 193.814053 
L 504.437353 194.413789 
L 504.63971 193.293003 
L 505.044424 186.184068 
L 506.460925 150.176105 
L 506.663282 148.140842 
L 506.865639 147.398343 
L 507.067996 147.845284 
L 507.270354 149.578556 
L 507.675068 156.674363 
L 508.889211 184.749333 
L 509.091568 186.410509 
L 509.293926 186.576014 
L 509.496283 185.086231 
L 509.900997 177.41382 
L 511.317498 141.47106 
L 511.519855 140.013764 
L 511.722212 139.670667 
L 511.924569 140.822256 
L 512.329284 146.992822 
L 512.936355 163.809662 
L 513.543427 180.573292 
L 513.948141 186.713368 
L 514.150499 187.641188 
L 514.352856 186.956151 
L 514.555213 184.805744 
L 514.959927 176.789717 
L 515.971714 152.650216 
L 516.376428 149.282505 
L 516.578785 149.287509 
L 516.781142 150.601977 
L 517.185857 157.002517 
L 517.792928 173.704723 
L 518.4 190.675876 
L 518.4 190.675876 
" clip-path="url(#pa9496a894a)" style="fill: none; stroke: #2ca02c; stroke-width: 1.5; stroke-linecap: square"/>
   </g>
   <g id="patch_3">
    <path d="M 72 320.4 
L 72 43.2 
" style="fill: none; stroke: #000000; stroke-width: 0.8; stroke-linejoin: miter; stroke-linecap: square"/>
   </g>
   <g id="patch_4">
    <path d="M 518.4 320.4 
L 518.4 43.2 
" style="fill: none; stroke: #000000; stroke-width: 0.8; stroke-linejoin: miter; stroke-linecap: square"/>
   </g>
   <g id="patch_5">
    <path d="M 72 320.4 
L 518.4 320.4 
" style="fill: none; stroke: #000000; stroke-width: 0.8; stroke-linejoin: miter; stroke-linecap: square"/>
   </g>
   <g id="patch_6">
    <path d="M 72 43.2 
L 518.4 43.2 
" style="fill: none; stroke: #000000; stroke-width: 0.8; stroke-linejoin: miter; stroke-linecap: square"/>
   </g>
   <g id="text_13">
    <!-- Classic Transformer - model_20231126154614 -->
    <g transform="translate(155.436563 37.2) scale(0.12 -0.12)">
     <defs>
      <path id="DejaVuSans-43" d="M 4122 4306 
L 4122 3641 
Q 3803 3938 3442 4084 
Q 3081 4231 2675 4231 
Q 1875 4231 1450 3742 
Q 1025 3253 1025 2328 
Q 1025 1406 1450 917 
Q 1875 428 2675 428 
Q 3081 428 3442 575 
Q 3803 722 4122 1019 
L 4122 359 
Q 3791 134 3420 21 
Q 3050 -91 2638 -91 
Q 1578 -91 968 557 
Q 359 1206 359 2328 
Q 359 3453 968 4101 
Q 1578 4750 2638 4750 
Q 3056 4750 3426 4639 
Q 3797 4528 4122 4306 
z
" transform="scale(0.015625)"/>
      <path id="DejaVuSans-6c" d="M 603 4863 
L 1178 4863 
L 1178 0 
L 603 0 
L 603 4863 
z
" transform="scale(0.015625)"/>
      <path id="DejaVuSans-61" d="M 2194 1759 
Q 1497 1759 1228 1600 
Q 959 1441 959 1056 
Q 959 750 1161 570 
Q 1363 391 1709 391 
Q 2188 391 2477 730 
Q 2766 1069 2766 1631 
L 2766 1759 
L 2194 1759 
z
M 3341 1997 
L 3341 0 
L 2766 0 
L 2766 531 
Q 2569 213 2275 61 
Q 1981 -91 1556 -91 
Q 1019 -91 701 211 
Q 384 513 384 1019 
Q 384 1609 779 1909 
Q 1175 2209 1959 2209 
L 2766 2209 
L 2766 2266 
Q 2766 2663 2505 2880 
Q 2244 3097 1772 3097 
Q 1472 3097 1187 3025 
Q 903 2953 641 2809 
L 641 3341 
Q 956 3463 1253 3523 
Q 1550 3584 1831 3584 
Q 2591 3584 2966 3190 
Q 3341 2797 3341 1997 
z
" transform="scale(0.015625)"/>
      <path id="DejaVuSans-73" d="M 2834 3397 
L 2834 2853 
Q 2591 2978 2328 3040 
Q 2066 3103 1784 3103 
Q 1356 3103 1142 2972 
Q 928 2841 928 2578 
Q 928 2378 1081 2264 
Q 1234 2150 1697 2047 
L 1894 2003 
Q 2506 1872 2764 1633 
Q 3022 1394 3022 966 
Q 3022 478 2636 193 
Q 2250 -91 1575 -91 
Q 1294 -91 989 -36 
Q 684 19 347 128 
L 347 722 
Q 666 556 975 473 
Q 1284 391 1588 391 
Q 1994 391 2212 530 
Q 2431 669 2431 922 
Q 2431 1156 2273 1281 
Q 2116 1406 1581 1522 
L 1381 1569 
Q 847 1681 609 1914 
Q 372 2147 372 2553 
Q 372 3047 722 3315 
Q 1072 3584 1716 3584 
Q 2034 3584 2315 3537 
Q 2597 3491 2834 3397 
z
" transform="scale(0.015625)"/>
      <path id="DejaVuSans-69" d="M 603 3500 
L 1178 3500 
L 1178 0 
L 603 0 
L 603 3500 
z
M 603 4863 
L 1178 4863 
L 1178 4134 
L 603 4134 
L 603 4863 
z
" transform="scale(0.015625)"/>
      <path id="DejaVuSans-63" d="M 3122 3366 
L 3122 2828 
Q 2878 2963 2633 3030 
Q 2388 3097 2138 3097 
Q 1578 3097 1268 2742 
Q 959 2388 959 1747 
Q 959 1106 1268 751 
Q 1578 397 2138 397 
Q 2388 397 2633 464 
Q 2878 531 3122 666 
L 3122 134 
Q 2881 22 2623 -34 
Q 2366 -91 2075 -91 
Q 1284 -91 818 406 
Q 353 903 353 1747 
Q 353 2603 823 3093 
Q 1294 3584 2113 3584 
Q 2378 3584 2631 3529 
Q 2884 3475 3122 3366 
z
" transform="scale(0.015625)"/>
      <path id="DejaVuSans-20" transform="scale(0.015625)"/>
      <path id="DejaVuSans-54" d="M -19 4666 
L 3928 4666 
L 3928 4134 
L 2272 4134 
L 2272 0 
L 1638 0 
L 1638 4134 
L -19 4134 
L -19 4666 
z
" transform="scale(0.015625)"/>
      <path id="DejaVuSans-72" d="M 2631 2963 
Q 2534 3019 2420 3045 
Q 2306 3072 2169 3072 
Q 1681 3072 1420 2755 
Q 1159 2438 1159 1844 
L 1159 0 
L 581 0 
L 581 3500 
L 1159 3500 
L 1159 2956 
Q 1341 3275 1631 3429 
Q 1922 3584 2338 3584 
Q 2397 3584 2469 3576 
Q 2541 3569 2628 3553 
L 2631 2963 
z
" transform="scale(0.015625)"/>
      <path id="DejaVuSans-6e" d="M 3513 2113 
L 3513 0 
L 2938 0 
L 2938 2094 
Q 2938 2591 2744 2837 
Q 2550 3084 2163 3084 
Q 1697 3084 1428 2787 
Q 1159 2491 1159 1978 
L 1159 0 
L 581 0 
L 581 3500 
L 1159 3500 
L 1159 2956 
Q 1366 3272 1645 3428 
Q 1925 3584 2291 3584 
Q 2894 3584 3203 3211 
Q 3513 2838 3513 2113 
z
" transform="scale(0.015625)"/>
      <path id="DejaVuSans-66" d="M 2375 4863 
L 2375 4384 
L 1825 4384 
Q 1516 4384 1395 4259 
Q 1275 4134 1275 3809 
L 1275 3500 
L 2222 3500 
L 2222 3053 
L 1275 3053 
L 1275 0 
L 697 0 
L 697 3053 
L 147 3053 
L 147 3500 
L 697 3500 
L 697 3744 
Q 697 4328 969 4595 
Q 1241 4863 1831 4863 
L 2375 4863 
z
" transform="scale(0.015625)"/>
      <path id="DejaVuSans-6f" d="M 1959 3097 
Q 1497 3097 1228 2736 
Q 959 2375 959 1747 
Q 959 1119 1226 758 
Q 1494 397 1959 397 
Q 2419 397 2687 759 
Q 2956 1122 2956 1747 
Q 2956 2369 2687 2733 
Q 2419 3097 1959 3097 
z
M 1959 3584 
Q 2709 3584 3137 3096 
Q 3566 2609 3566 1747 
Q 3566 888 3137 398 
Q 2709 -91 1959 -91 
Q 1206 -91 779 398 
Q 353 888 353 1747 
Q 353 2609 779 3096 
Q 1206 3584 1959 3584 
z
" transform="scale(0.015625)"/>
      <path id="DejaVuSans-6d" d="M 3328 2828 
Q 3544 3216 3844 3400 
Q 4144 3584 4550 3584 
Q 5097 3584 5394 3201 
Q 5691 2819 5691 2113 
L 5691 0 
L 5113 0 
L 5113 2094 
Q 5113 2597 4934 2840 
Q 4756 3084 4391 3084 
Q 3944 3084 3684 2787 
Q 3425 2491 3425 1978 
L 3425 0 
L 2847 0 
L 2847 2094 
Q 2847 2600 2669 2842 
Q 2491 3084 2119 3084 
Q 1678 3084 1418 2786 
Q 1159 2488 1159 1978 
L 1159 0 
L 581 0 
L 581 3500 
L 1159 3500 
L 1159 2956 
Q 1356 3278 1631 3431 
Q 1906 3584 2284 3584 
Q 2666 3584 2933 3390 
Q 3200 3197 3328 2828 
z
" transform="scale(0.015625)"/>
      <path id="DejaVuSans-65" d="M 3597 1894 
L 3597 1613 
L 953 1613 
Q 991 1019 1311 708 
Q 1631 397 2203 397 
Q 2534 397 2845 478 
Q 3156 559 3463 722 
L 3463 178 
Q 3153 47 2828 -22 
Q 2503 -91 2169 -91 
Q 1331 -91 842 396 
Q 353 884 353 1716 
Q 353 2575 817 3079 
Q 1281 3584 2069 3584 
Q 2775 3584 3186 3129 
Q 3597 2675 3597 1894 
z
M 3022 2063 
Q 3016 2534 2758 2815 
Q 2500 3097 2075 3097 
Q 1594 3097 1305 2825 
Q 1016 2553 972 2059 
L 3022 2063 
z
" transform="scale(0.015625)"/>
      <path id="DejaVuSans-64" d="M 2906 2969 
L 2906 4863 
L 3481 4863 
L 3481 0 
L 2906 0 
L 2906 525 
Q 2725 213 2448 61 
Q 2172 -91 1784 -91 
Q 1150 -91 751 415 
Q 353 922 353 1747 
Q 353 2572 751 3078 
Q 1150 3584 1784 3584 
Q 2172 3584 2448 3432 
Q 2725 3281 2906 2969 
z
M 947 1747 
Q 947 1113 1208 752 
Q 1469 391 1925 391 
Q 2381 391 2643 752 
Q 2906 1113 2906 1747 
Q 2906 2381 2643 2742 
Q 2381 3103 1925 3103 
Q 1469 3103 1208 2742 
Q 947 2381 947 1747 
z
" transform="scale(0.015625)"/>
      <path id="DejaVuSans-5f" d="M 3263 -1063 
L 3263 -1509 
L -63 -1509 
L -63 -1063 
L 3263 -1063 
z
" transform="scale(0.015625)"/>
      <path id="DejaVuSans-34" d="M 2419 4116 
L 825 1625 
L 2419 1625 
L 2419 4116 
z
M 2253 4666 
L 3047 4666 
L 3047 1625 
L 3713 1625 
L 3713 1100 
L 3047 1100 
L 3047 0 
L 2419 0 
L 2419 1100 
L 313 1100 
L 313 1709 
L 2253 4666 
z
" transform="scale(0.015625)"/>
     </defs>
     <use xlink:href="#DejaVuSans-43"/>
     <use xlink:href="#DejaVuSans-6c" x="69.824219"/>
     <use xlink:href="#DejaVuSans-61" x="97.607422"/>
     <use xlink:href="#DejaVuSans-73" x="158.886719"/>
     <use xlink:href="#DejaVuSans-73" x="210.986328"/>
     <use xlink:href="#DejaVuSans-69" x="263.085938"/>
     <use xlink:href="#DejaVuSans-63" x="290.869141"/>
     <use xlink:href="#DejaVuSans-20" x="345.849609"/>
     <use xlink:href="#DejaVuSans-54" x="377.636719"/>
     <use xlink:href="#DejaVuSans-72" x="423.970703"/>
     <use xlink:href="#DejaVuSans-61" x="465.083984"/>
     <use xlink:href="#DejaVuSans-6e" x="526.363281"/>
     <use xlink:href="#DejaVuSans-73" x="589.742188"/>
     <use xlink:href="#DejaVuSans-66" x="641.841797"/>
     <use xlink:href="#DejaVuSans-6f" x="677.046875"/>
     <use xlink:href="#DejaVuSans-72" x="738.228516"/>
     <use xlink:href="#DejaVuSans-6d" x="777.591797"/>
     <use xlink:href="#DejaVuSans-65" x="875.003906"/>
     <use xlink:href="#DejaVuSans-72" x="936.527344"/>
     <use xlink:href="#DejaVuSans-20" x="977.640625"/>
     <use xlink:href="#DejaVuSans-2d" x="1009.427734"/>
     <use xlink:href="#DejaVuSans-20" x="1045.511719"/>
     <use xlink:href="#DejaVuSans-6d" x="1077.298828"/>
     <use xlink:href="#DejaVuSans-6f" x="1174.710938"/>
     <use xlink:href="#DejaVuSans-64" x="1235.892578"/>
     <use xlink:href="#DejaVuSans-65" x="1299.369141"/>
     <use xlink:href="#DejaVuSans-6c" x="1360.892578"/>
     <use xlink:href="#DejaVuSans-5f" x="1388.675781"/>
     <use xlink:href="#DejaVuSans-32" x="1438.675781"/>
     <use xlink:href="#DejaVuSans-30" x="1502.298828"/>
     <use xlink:href="#DejaVuSans-32" x="1565.921875"/>
     <use xlink:href="#DejaVuSans-33" x="1629.544922"/>
     <use xlink:href="#DejaVuSans-31" x="1693.167969"/>
     <use xlink:href="#DejaVuSans-31" x="1756.791016"/>
     <use xlink:href="#DejaVuSans-32" x="1820.414062"/>
     <use xlink:href="#DejaVuSans-36" x="1884.037109"/>
     <use xlink:href="#DejaVuSans-31" x="1947.660156"/>
     <use xlink:href="#DejaVuSans-35" x="2011.283203"/>
     <use xlink:href="#DejaVuSans-34" x="2074.90625"/>
     <use xlink:href="#DejaVuSans-36" x="2138.529297"/>
     <use xlink:href="#DejaVuSans-31" x="2202.152344"/>
     <use xlink:href="#DejaVuSans-34" x="2265.775391"/>
    </g>
   </g>
   <g id="legend_1">
    <g id="patch_7">
     <path d="M 79 95.234375 
L 161.517188 95.234375 
Q 163.517188 95.234375 163.517188 93.234375 
L 163.517188 50.2 
Q 163.517188 48.2 161.517188 48.2 
L 79 48.2 
Q 77 48.2 77 50.2 
L 77 93.234375 
Q 77 95.234375 79 95.234375 
z
" style="fill: #ffffff; opacity: 0.8; stroke: #cccccc; stroke-linejoin: miter"/>
    </g>
    <g id="line2d_16">
     <path d="M 81 56.298437 
L 91 56.298437 
L 101 56.298437 
" style="fill: none; stroke: #1f77b4; stroke-width: 1.5; stroke-linecap: square"/>
    </g>
    <g id="text_14">
     <!-- Measured -->
     <g transform="translate(109 59.798437) scale(0.1 -0.1)">
      <defs>
       <path id="DejaVuSans-4d" d="M 628 4666 
L 1569 4666 
L 2759 1491 
L 3956 4666 
L 4897 4666 
L 4897 0 
L 4281 0 
L 4281 4097 
L 3078 897 
L 2444 897 
L 1241 4097 
L 1241 0 
L 628 0 
L 628 4666 
z
" transform="scale(0.015625)"/>
       <path id="DejaVuSans-75" d="M 544 1381 
L 544 3500 
L 1119 3500 
L 1119 1403 
Q 1119 906 1312 657 
Q 1506 409 1894 409 
Q 2359 409 2629 706 
Q 2900 1003 2900 1516 
L 2900 3500 
L 3475 3500 
L 3475 0 
L 2900 0 
L 2900 538 
Q 2691 219 2414 64 
Q 2138 -91 1772 -91 
Q 1169 -91 856 284 
Q 544 659 544 1381 
z
M 1991 3584 
L 1991 3584 
z
" transform="scale(0.015625)"/>
      </defs>
      <use xlink:href="#DejaVuSans-4d"/>
      <use xlink:href="#DejaVuSans-65" x="86.279297"/>
      <use xlink:href="#DejaVuSans-61" x="147.802734"/>
      <use xlink:href="#DejaVuSans-73" x="209.082031"/>
      <use xlink:href="#DejaVuSans-75" x="261.181641"/>
      <use xlink:href="#DejaVuSans-72" x="324.560547"/>
      <use xlink:href="#DejaVuSans-65" x="363.423828"/>
      <use xlink:href="#DejaVuSans-64" x="424.947266"/>
     </g>
    </g>
    <g id="line2d_17">
     <path d="M 81 70.976562 
L 91 70.976562 
L 101 70.976562 
" style="fill: none; stroke: #ff7f0e; stroke-width: 1.5; stroke-linecap: square"/>
    </g>
    <g id="text_15">
     <!-- Fitted -->
     <g transform="translate(109 74.476562) scale(0.1 -0.1)">
      <defs>
       <path id="DejaVuSans-46" d="M 628 4666 
L 3309 4666 
L 3309 4134 
L 1259 4134 
L 1259 2759 
L 3109 2759 
L 3109 2228 
L 1259 2228 
L 1259 0 
L 628 0 
L 628 4666 
z
" transform="scale(0.015625)"/>
       <path id="DejaVuSans-74" d="M 1172 4494 
L 1172 3500 
L 2356 3500 
L 2356 3053 
L 1172 3053 
L 1172 1153 
Q 1172 725 1289 603 
Q 1406 481 1766 481 
L 2356 481 
L 2356 0 
L 1766 0 
Q 1100 0 847 248 
Q 594 497 594 1153 
L 594 3053 
L 172 3053 
L 172 3500 
L 594 3500 
L 594 4494 
L 1172 4494 
z
" transform="scale(0.015625)"/>
      </defs>
      <use xlink:href="#DejaVuSans-46"/>
      <use xlink:href="#DejaVuSans-69" x="50.269531"/>
      <use xlink:href="#DejaVuSans-74" x="78.052734"/>
      <use xlink:href="#DejaVuSans-74" x="117.261719"/>
      <use xlink:href="#DejaVuSans-65" x="156.470703"/>
      <use xlink:href="#DejaVuSans-64" x="217.994141"/>
     </g>
    </g>
    <g id="line2d_18">
     <path d="M 81 85.654687 
L 91 85.654687 
L 101 85.654687 
" style="fill: none; stroke: #2ca02c; stroke-width: 1.5; stroke-linecap: square"/>
    </g>
    <g id="text_16">
     <!-- Estimated -->
     <g transform="translate(109 89.154687) scale(0.1 -0.1)">
      <defs>
       <path id="DejaVuSans-45" d="M 628 4666 
L 3578 4666 
L 3578 4134 
L 1259 4134 
L 1259 2753 
L 3481 2753 
L 3481 2222 
L 1259 2222 
L 1259 531 
L 3634 531 
L 3634 0 
L 628 0 
L 628 4666 
z
" transform="scale(0.015625)"/>
      </defs>
      <use xlink:href="#DejaVuSans-45"/>
      <use xlink:href="#DejaVuSans-73" x="63.183594"/>
      <use xlink:href="#DejaVuSans-74" x="115.283203"/>
      <use xlink:href="#DejaVuSans-69" x="154.492188"/>
      <use xlink:href="#DejaVuSans-6d" x="182.275391"/>
      <use xlink:href="#DejaVuSans-61" x="279.6875"/>
      <use xlink:href="#DejaVuSans-74" x="340.966797"/>
      <use xlink:href="#DejaVuSans-65" x="380.175781"/>
      <use xlink:href="#DejaVuSans-64" x="441.699219"/>
     </g>
    </g>
   </g>
  </g>
 </g>
 <defs>
  <clipPath id="pa9496a894a">
   <rect x="72" y="43.2" width="446.4" height="277.2"/>
  </clipPath>
 </defs>
</svg>
