<?xml version="1.0" encoding="utf-8" standalone="no"?>
<!DOCTYPE svg PUBLIC "-//W3C//DTD SVG 1.1//EN"
  "http://www.w3.org/Graphics/SVG/1.1/DTD/svg11.dtd">
<svg xmlns:xlink="http://www.w3.org/1999/xlink" width="576pt" height="360pt" viewBox="0 0 576 360" xmlns="http://www.w3.org/2000/svg" version="1.1">
 <metadata>
  <rdf:RDF xmlns:dc="http://purl.org/dc/elements/1.1/" xmlns:cc="http://creativecommons.org/ns#" xmlns:rdf="http://www.w3.org/1999/02/22-rdf-syntax-ns#">
   <cc:Work>
    <dc:type rdf:resource="http://purl.org/dc/dcmitype/StillImage"/>
    <dc:date>2023-11-26T16:32:31.378718</dc:date>
    <dc:format>image/svg+xml</dc:format>
    <dc:creator>
     <cc:Agent>
      <dc:title>Matplotlib v3.8.1, https://matplotlib.org/</dc:title>
     </cc:Agent>
    </dc:creator>
   </cc:Work>
  </rdf:RDF>
 </metadata>
 <defs>
  <style type="text/css">*{stroke-linejoin: round; stroke-linecap: butt}</style>
 </defs>
 <g id="figure_1">
  <g id="patch_1">
   <path d="M 0 360 
L 576 360 
L 576 0 
L 0 0 
z
" style="fill: #ffffff"/>
  </g>
  <g id="axes_1">
   <g id="patch_2">
    <path d="M 72 320.4 
L 518.4 320.4 
L 518.4 43.2 
L 72 43.2 
z
" style="fill: #ffffff"/>
   </g>
   <g id="matplotlib.axis_1">
    <g id="xtick_1">
     <g id="line2d_1">
      <defs>
       <path id="ma1bc656061" d="M 0 0 
L 0 3.5 
" style="stroke: #000000; stroke-width: 0.8"/>
      </defs>
      <g>
       <use xlink:href="#ma1bc656061" x="129.874161" y="320.4" style="stroke: #000000; stroke-width: 0.8"/>
      </g>
     </g>
     <g id="text_1">
      <!-- 2020-05-15 -->
      <g transform="translate(100.816349 334.998438) scale(0.1 -0.1)">
       <defs>
        <path id="DejaVuSans-32" d="M 1228 531 
L 3431 531 
L 3431 0 
L 469 0 
L 469 531 
Q 828 903 1448 1529 
Q 2069 2156 2228 2338 
Q 2531 2678 2651 2914 
Q 2772 3150 2772 3378 
Q 2772 3750 2511 3984 
Q 2250 4219 1831 4219 
Q 1534 4219 1204 4116 
Q 875 4013 500 3803 
L 500 4441 
Q 881 4594 1212 4672 
Q 1544 4750 1819 4750 
Q 2544 4750 2975 4387 
Q 3406 4025 3406 3419 
Q 3406 3131 3298 2873 
Q 3191 2616 2906 2266 
Q 2828 2175 2409 1742 
Q 1991 1309 1228 531 
z
" transform="scale(0.015625)"/>
        <path id="DejaVuSans-30" d="M 2034 4250 
Q 1547 4250 1301 3770 
Q 1056 3291 1056 2328 
Q 1056 1369 1301 889 
Q 1547 409 2034 409 
Q 2525 409 2770 889 
Q 3016 1369 3016 2328 
Q 3016 3291 2770 3770 
Q 2525 4250 2034 4250 
z
M 2034 4750 
Q 2819 4750 3233 4129 
Q 3647 3509 3647 2328 
Q 3647 1150 3233 529 
Q 2819 -91 2034 -91 
Q 1250 -91 836 529 
Q 422 1150 422 2328 
Q 422 3509 836 4129 
Q 1250 4750 2034 4750 
z
" transform="scale(0.015625)"/>
        <path id="DejaVuSans-2d" d="M 313 2009 
L 1997 2009 
L 1997 1497 
L 313 1497 
L 313 2009 
z
" transform="scale(0.015625)"/>
        <path id="DejaVuSans-35" d="M 691 4666 
L 3169 4666 
L 3169 4134 
L 1269 4134 
L 1269 2991 
Q 1406 3038 1543 3061 
Q 1681 3084 1819 3084 
Q 2600 3084 3056 2656 
Q 3513 2228 3513 1497 
Q 3513 744 3044 326 
Q 2575 -91 1722 -91 
Q 1428 -91 1123 -41 
Q 819 9 494 109 
L 494 744 
Q 775 591 1075 516 
Q 1375 441 1709 441 
Q 2250 441 2565 725 
Q 2881 1009 2881 1497 
Q 2881 1984 2565 2268 
Q 2250 2553 1709 2553 
Q 1456 2553 1204 2497 
Q 953 2441 691 2322 
L 691 4666 
z
" transform="scale(0.015625)"/>
        <path id="DejaVuSans-31" d="M 794 531 
L 1825 531 
L 1825 4091 
L 703 3866 
L 703 4441 
L 1819 4666 
L 2450 4666 
L 2450 531 
L 3481 531 
L 3481 0 
L 794 0 
L 794 531 
z
" transform="scale(0.015625)"/>
       </defs>
       <use xlink:href="#DejaVuSans-32"/>
       <use xlink:href="#DejaVuSans-30" x="63.623047"/>
       <use xlink:href="#DejaVuSans-32" x="127.246094"/>
       <use xlink:href="#DejaVuSans-30" x="190.869141"/>
       <use xlink:href="#DejaVuSans-2d" x="254.492188"/>
       <use xlink:href="#DejaVuSans-30" x="290.576172"/>
       <use xlink:href="#DejaVuSans-35" x="354.199219"/>
       <use xlink:href="#DejaVuSans-2d" x="417.822266"/>
       <use xlink:href="#DejaVuSans-31" x="453.90625"/>
       <use xlink:href="#DejaVuSans-35" x="517.529297"/>
      </g>
     </g>
    </g>
    <g id="xtick_2">
     <g id="line2d_2">
      <g>
       <use xlink:href="#ma1bc656061" x="212.435902" y="320.4" style="stroke: #000000; stroke-width: 0.8"/>
      </g>
     </g>
     <g id="text_2">
      <!-- 2020-06-01 -->
      <g transform="translate(183.37809 334.998438) scale(0.1 -0.1)">
       <defs>
        <path id="DejaVuSans-36" d="M 2113 2584 
Q 1688 2584 1439 2293 
Q 1191 2003 1191 1497 
Q 1191 994 1439 701 
Q 1688 409 2113 409 
Q 2538 409 2786 701 
Q 3034 994 3034 1497 
Q 3034 2003 2786 2293 
Q 2538 2584 2113 2584 
z
M 3366 4563 
L 3366 3988 
Q 3128 4100 2886 4159 
Q 2644 4219 2406 4219 
Q 1781 4219 1451 3797 
Q 1122 3375 1075 2522 
Q 1259 2794 1537 2939 
Q 1816 3084 2150 3084 
Q 2853 3084 3261 2657 
Q 3669 2231 3669 1497 
Q 3669 778 3244 343 
Q 2819 -91 2113 -91 
Q 1303 -91 875 529 
Q 447 1150 447 2328 
Q 447 3434 972 4092 
Q 1497 4750 2381 4750 
Q 2619 4750 2861 4703 
Q 3103 4656 3366 4563 
z
" transform="scale(0.015625)"/>
       </defs>
       <use xlink:href="#DejaVuSans-32"/>
       <use xlink:href="#DejaVuSans-30" x="63.623047"/>
       <use xlink:href="#DejaVuSans-32" x="127.246094"/>
       <use xlink:href="#DejaVuSans-30" x="190.869141"/>
       <use xlink:href="#DejaVuSans-2d" x="254.492188"/>
       <use xlink:href="#DejaVuSans-30" x="290.576172"/>
       <use xlink:href="#DejaVuSans-36" x="354.199219"/>
       <use xlink:href="#DejaVuSans-2d" x="417.822266"/>
       <use xlink:href="#DejaVuSans-30" x="453.90625"/>
       <use xlink:href="#DejaVuSans-31" x="517.529297"/>
      </g>
     </g>
    </g>
    <g id="xtick_3">
     <g id="line2d_3">
      <g>
       <use xlink:href="#ma1bc656061" x="280.427924" y="320.4" style="stroke: #000000; stroke-width: 0.8"/>
      </g>
     </g>
     <g id="text_3">
      <!-- 2020-06-15 -->
      <g transform="translate(251.370111 334.998438) scale(0.1 -0.1)">
       <use xlink:href="#DejaVuSans-32"/>
       <use xlink:href="#DejaVuSans-30" x="63.623047"/>
       <use xlink:href="#DejaVuSans-32" x="127.246094"/>
       <use xlink:href="#DejaVuSans-30" x="190.869141"/>
       <use xlink:href="#DejaVuSans-2d" x="254.492188"/>
       <use xlink:href="#DejaVuSans-30" x="290.576172"/>
       <use xlink:href="#DejaVuSans-36" x="354.199219"/>
       <use xlink:href="#DejaVuSans-2d" x="417.822266"/>
       <use xlink:href="#DejaVuSans-31" x="453.90625"/>
       <use xlink:href="#DejaVuSans-35" x="517.529297"/>
      </g>
     </g>
    </g>
    <g id="xtick_4">
     <g id="line2d_4">
      <g>
       <use xlink:href="#ma1bc656061" x="358.133092" y="320.4" style="stroke: #000000; stroke-width: 0.8"/>
      </g>
     </g>
     <g id="text_4">
      <!-- 2020-07-01 -->
      <g transform="translate(329.075279 334.998438) scale(0.1 -0.1)">
       <defs>
        <path id="DejaVuSans-37" d="M 525 4666 
L 3525 4666 
L 3525 4397 
L 1831 0 
L 1172 0 
L 2766 4134 
L 525 4134 
L 525 4666 
z
" transform="scale(0.015625)"/>
       </defs>
       <use xlink:href="#DejaVuSans-32"/>
       <use xlink:href="#DejaVuSans-30" x="63.623047"/>
       <use xlink:href="#DejaVuSans-32" x="127.246094"/>
       <use xlink:href="#DejaVuSans-30" x="190.869141"/>
       <use xlink:href="#DejaVuSans-2d" x="254.492188"/>
       <use xlink:href="#DejaVuSans-30" x="290.576172"/>
       <use xlink:href="#DejaVuSans-37" x="354.199219"/>
       <use xlink:href="#DejaVuSans-2d" x="417.822266"/>
       <use xlink:href="#DejaVuSans-30" x="453.90625"/>
       <use xlink:href="#DejaVuSans-31" x="517.529297"/>
      </g>
     </g>
    </g>
    <g id="xtick_5">
     <g id="line2d_5">
      <g>
       <use xlink:href="#ma1bc656061" x="426.125113" y="320.4" style="stroke: #000000; stroke-width: 0.8"/>
      </g>
     </g>
     <g id="text_5">
      <!-- 2020-07-15 -->
      <g transform="translate(397.067301 334.998438) scale(0.1 -0.1)">
       <use xlink:href="#DejaVuSans-32"/>
       <use xlink:href="#DejaVuSans-30" x="63.623047"/>
       <use xlink:href="#DejaVuSans-32" x="127.246094"/>
       <use xlink:href="#DejaVuSans-30" x="190.869141"/>
       <use xlink:href="#DejaVuSans-2d" x="254.492188"/>
       <use xlink:href="#DejaVuSans-30" x="290.576172"/>
       <use xlink:href="#DejaVuSans-37" x="354.199219"/>
       <use xlink:href="#DejaVuSans-2d" x="417.822266"/>
       <use xlink:href="#DejaVuSans-31" x="453.90625"/>
       <use xlink:href="#DejaVuSans-35" x="517.529297"/>
      </g>
     </g>
    </g>
    <g id="xtick_6">
     <g id="line2d_6">
      <g>
       <use xlink:href="#ma1bc656061" x="508.686854" y="320.4" style="stroke: #000000; stroke-width: 0.8"/>
      </g>
     </g>
     <g id="text_6">
      <!-- 2020-08-01 -->
      <g transform="translate(479.629042 334.998438) scale(0.1 -0.1)">
       <defs>
        <path id="DejaVuSans-38" d="M 2034 2216 
Q 1584 2216 1326 1975 
Q 1069 1734 1069 1313 
Q 1069 891 1326 650 
Q 1584 409 2034 409 
Q 2484 409 2743 651 
Q 3003 894 3003 1313 
Q 3003 1734 2745 1975 
Q 2488 2216 2034 2216 
z
M 1403 2484 
Q 997 2584 770 2862 
Q 544 3141 544 3541 
Q 544 4100 942 4425 
Q 1341 4750 2034 4750 
Q 2731 4750 3128 4425 
Q 3525 4100 3525 3541 
Q 3525 3141 3298 2862 
Q 3072 2584 2669 2484 
Q 3125 2378 3379 2068 
Q 3634 1759 3634 1313 
Q 3634 634 3220 271 
Q 2806 -91 2034 -91 
Q 1263 -91 848 271 
Q 434 634 434 1313 
Q 434 1759 690 2068 
Q 947 2378 1403 2484 
z
M 1172 3481 
Q 1172 3119 1398 2916 
Q 1625 2713 2034 2713 
Q 2441 2713 2670 2916 
Q 2900 3119 2900 3481 
Q 2900 3844 2670 4047 
Q 2441 4250 2034 4250 
Q 1625 4250 1398 4047 
Q 1172 3844 1172 3481 
z
" transform="scale(0.015625)"/>
       </defs>
       <use xlink:href="#DejaVuSans-32"/>
       <use xlink:href="#DejaVuSans-30" x="63.623047"/>
       <use xlink:href="#DejaVuSans-32" x="127.246094"/>
       <use xlink:href="#DejaVuSans-30" x="190.869141"/>
       <use xlink:href="#DejaVuSans-2d" x="254.492188"/>
       <use xlink:href="#DejaVuSans-30" x="290.576172"/>
       <use xlink:href="#DejaVuSans-38" x="354.199219"/>
       <use xlink:href="#DejaVuSans-2d" x="417.822266"/>
       <use xlink:href="#DejaVuSans-30" x="453.90625"/>
       <use xlink:href="#DejaVuSans-31" x="517.529297"/>
      </g>
     </g>
    </g>
   </g>
   <g id="matplotlib.axis_2">
    <g id="ytick_1">
     <g id="line2d_7">
      <defs>
       <path id="md648541b1b" d="M 0 0 
L -3.5 0 
" style="stroke: #000000; stroke-width: 0.8"/>
      </defs>
      <g>
       <use xlink:href="#md648541b1b" x="72" y="294.844747" style="stroke: #000000; stroke-width: 0.8"/>
      </g>
     </g>
     <g id="text_7">
      <!-- −2 -->
      <g transform="translate(50.257812 298.643966) scale(0.1 -0.1)">
       <defs>
        <path id="DejaVuSans-2212" d="M 678 2272 
L 4684 2272 
L 4684 1741 
L 678 1741 
L 678 2272 
z
" transform="scale(0.015625)"/>
       </defs>
       <use xlink:href="#DejaVuSans-2212"/>
       <use xlink:href="#DejaVuSans-32" x="83.789062"/>
      </g>
     </g>
    </g>
    <g id="ytick_2">
     <g id="line2d_8">
      <g>
       <use xlink:href="#md648541b1b" x="72" y="245.467239" style="stroke: #000000; stroke-width: 0.8"/>
      </g>
     </g>
     <g id="text_8">
      <!-- −1 -->
      <g transform="translate(50.257812 249.266458) scale(0.1 -0.1)">
       <use xlink:href="#DejaVuSans-2212"/>
       <use xlink:href="#DejaVuSans-31" x="83.789062"/>
      </g>
     </g>
    </g>
    <g id="ytick_3">
     <g id="line2d_9">
      <g>
       <use xlink:href="#md648541b1b" x="72" y="196.089732" style="stroke: #000000; stroke-width: 0.8"/>
      </g>
     </g>
     <g id="text_9">
      <!-- 0 -->
      <g transform="translate(58.6375 199.88895) scale(0.1 -0.1)">
       <use xlink:href="#DejaVuSans-30"/>
      </g>
     </g>
    </g>
    <g id="ytick_4">
     <g id="line2d_10">
      <g>
       <use xlink:href="#md648541b1b" x="72" y="146.712224" style="stroke: #000000; stroke-width: 0.8"/>
      </g>
     </g>
     <g id="text_10">
      <!-- 1 -->
      <g transform="translate(58.6375 150.511442) scale(0.1 -0.1)">
       <use xlink:href="#DejaVuSans-31"/>
      </g>
     </g>
    </g>
    <g id="ytick_5">
     <g id="line2d_11">
      <g>
       <use xlink:href="#md648541b1b" x="72" y="97.334716" style="stroke: #000000; stroke-width: 0.8"/>
      </g>
     </g>
     <g id="text_11">
      <!-- 2 -->
      <g transform="translate(58.6375 101.133935) scale(0.1 -0.1)">
       <use xlink:href="#DejaVuSans-32"/>
      </g>
     </g>
    </g>
    <g id="ytick_6">
     <g id="line2d_12">
      <g>
       <use xlink:href="#md648541b1b" x="72" y="47.957208" style="stroke: #000000; stroke-width: 0.8"/>
      </g>
     </g>
     <g id="text_12">
      <!-- 3 -->
      <g transform="translate(58.6375 51.756427) scale(0.1 -0.1)">
       <defs>
        <path id="DejaVuSans-33" d="M 2597 2516 
Q 3050 2419 3304 2112 
Q 3559 1806 3559 1356 
Q 3559 666 3084 287 
Q 2609 -91 1734 -91 
Q 1441 -91 1130 -33 
Q 819 25 488 141 
L 488 750 
Q 750 597 1062 519 
Q 1375 441 1716 441 
Q 2309 441 2620 675 
Q 2931 909 2931 1356 
Q 2931 1769 2642 2001 
Q 2353 2234 1838 2234 
L 1294 2234 
L 1294 2753 
L 1863 2753 
Q 2328 2753 2575 2939 
Q 2822 3125 2822 3475 
Q 2822 3834 2567 4026 
Q 2313 4219 1838 4219 
Q 1578 4219 1281 4162 
Q 984 4106 628 3988 
L 628 4550 
Q 988 4650 1302 4700 
Q 1616 4750 1894 4750 
Q 2613 4750 3031 4423 
Q 3450 4097 3450 3541 
Q 3450 3153 3228 2886 
Q 3006 2619 2597 2516 
z
" transform="scale(0.015625)"/>
       </defs>
       <use xlink:href="#DejaVuSans-33"/>
      </g>
     </g>
    </g>
   </g>
   <g id="line2d_13">
    <path d="M 72 268.203442 
L 72.404714 278.66762 
L 72.607072 277.078615 
L 72.809429 267.234537 
L 73.214143 238.709962 
L 73.618858 227.238122 
L 75.035358 150.694595 
L 75.237715 147.962282 
L 75.440073 152.632406 
L 75.64243 160.209246 
L 75.844787 163.251609 
L 76.047144 177.320115 
L 76.654216 242.159265 
L 77.05893 264.366577 
L 77.261287 268.397223 
L 77.463645 268.048417 
L 77.666002 258.165582 
L 78.070716 231.869489 
L 78.475431 220.358893 
L 78.677788 211.929416 
L 79.487217 159.337231 
L 79.891931 144.319197 
L 80.094288 146.121361 
L 80.903717 185.26514 
L 81.713146 254.793791 
L 82.11786 268.319711 
L 82.320218 270.199387 
L 82.522575 269.928094 
L 82.724932 267.602721 
L 82.927289 261.304836 
L 83.332004 240.085807 
L 83.736718 226.869938 
L 83.939075 224.060112 
L 84.141432 224.312027 
L 84.546147 230.22235 
L 84.748504 232.160161 
L 84.950861 232.179539 
L 85.355576 236.055161 
L 85.557933 232.974042 
L 85.76029 238.632449 
L 86.569719 280.140357 
L 86.772076 285.760008 
L 86.974433 287.232744 
L 87.176791 287.290878 
L 87.379148 286.05068 
L 87.581505 282.601376 
L 87.783862 276.361625 
L 88.188577 255.995234 
L 88.390934 251.208841 
L 89.200363 243.74827 
L 89.40272 239.930782 
L 89.807434 226.269216 
L 90.212149 224.001978 
L 90.414506 221.502202 
L 90.616863 228.846505 
L 91.223935 275.567123 
L 91.628649 285.760008 
L 91.831006 285.818142 
L 92.033364 283.512147 
L 92.842792 240.88031 
L 93.04515 238.903743 
L 93.449864 230.958718 
L 93.652221 230.474266 
L 93.854578 227.761331 
L 94.056936 227.179987 
L 94.259293 224.757724 
L 94.46165 218.847401 
L 94.664007 216.211978 
L 94.866364 217.064615 
L 95.068722 219.971331 
L 95.271079 216.425137 
L 95.473436 225.765385 
L 96.080508 275.915929 
L 96.485222 284.422918 
L 96.687579 286.186326 
L 96.889937 282.175058 
L 97.699365 240.202076 
L 98.306437 230.493644 
L 98.508794 230.144838 
L 99.52058 210.534193 
L 99.722937 211.696879 
L 99.925295 215.727525 
L 100.127652 214.04163 
L 100.330009 223.420634 
L 100.937081 273.629312 
L 101.341795 284.965505 
L 101.544152 285.876277 
L 101.74651 282.446351 
L 101.948867 271.40083 
L 102.353581 243.651379 
L 102.555938 242.217399 
L 103.567724 225.784764 
L 104.377153 205.360238 
L 104.57951 206.542302 
L 104.781868 211.522476 
L 104.984225 211.503098 
L 105.186582 219.719416 
L 105.793654 270.722596 
L 106.198368 282.504486 
L 106.400725 284.132247 
L 106.603083 280.41165 
L 107.412511 237.973594 
L 107.614869 236.384589 
L 107.817226 232.99342 
L 108.22194 219.564391 
L 108.626655 199.508049 
L 108.829012 194.024045 
L 109.031369 192.280015 
L 109.638441 200.302552 
L 109.840798 205.321481 
L 110.043155 214.933023 
L 110.650227 265.800557 
L 111.054941 278.97767 
L 111.257298 280.741078 
L 111.459655 279.132695 
L 111.662013 268.591004 
L 112.066727 241.558543 
L 112.471442 227.703196 
L 113.887942 164.491808 
L 114.090299 162.302082 
L 114.292656 168.599967 
L 114.495014 179.161036 
L 114.697371 183.404841 
L 115.102085 214.836133 
L 115.709157 260.452199 
L 116.113871 273.338641 
L 116.316228 273.493666 
L 116.518586 271.962795 
L 116.720943 268.610382 
L 117.125657 243.43822 
L 118.542158 146.722083 
L 118.744515 137.381835 
L 118.946872 133.796885 
L 119.149229 137.188054 
L 119.756301 172.184917 
L 120.56573 245.511678 
L 120.970444 263.82399 
L 121.172801 267.602721 
L 121.375159 269.114213 
L 121.577516 267.777124 
L 121.779873 260.452199 
L 122.589302 213.32464 
L 123.196374 189.799617 
L 123.398731 185.575189 
L 123.601088 185.76897 
L 123.803445 185.245762 
L 124.410517 197.628373 
L 124.612874 207.763123 
L 125.219946 259.773965 
L 125.62466 273.202994 
L 125.827017 275.043914 
L 126.029374 272.699163 
L 127.04116 220.591431 
L 127.648232 186.020886 
L 128.255304 146.85773 
L 128.457661 139.881611 
L 128.660018 139.571561 
L 129.26709 180.536881 
L 130.278876 264.482845 
L 130.481233 271.71088 
L 130.68359 272.989835 
L 130.885947 270.606327 
L 132.504805 169.956434 
L 133.111877 130.521985 
L 133.314234 121.821214 
L 133.516591 123.390841 
L 133.921306 137.594994 
L 134.123663 144.454844 
L 135.135449 245.99613 
L 135.540163 257.661751 
L 135.74252 256.789736 
L 135.944878 247.003792 
L 136.349592 217.975386 
L 136.551949 211.716257 
L 136.754306 200.748248 
L 136.956664 204.972676 
L 137.159021 194.527875 
L 137.766092 186.369692 
L 137.96845 186.737876 
L 138.373164 181.738324 
L 138.777879 188.714443 
L 138.980236 189.489567 
L 139.182593 200.399442 
L 139.789665 252.739712 
L 140.194379 266.943865 
L 140.396736 268.862298 
L 140.599093 266.07185 
L 141.003808 238.147996 
L 141.408522 218.576107 
L 142.015594 206.193496 
L 142.622665 197.744641 
L 142.825023 197.492726 
L 143.02738 196.368796 
L 143.229737 197.008273 
L 143.634451 201.891556 
L 143.836809 200.748248 
L 144.039166 210.166008 
L 144.646238 255.782075 
L 145.050952 266.963243 
L 145.253309 268.164686 
L 145.455666 265.25797 
L 145.860381 237.837947 
L 146.062738 222.626132 
L 146.66981 207.394939 
L 146.872167 204.914541 
L 147.074524 203.90688 
L 147.479238 193.636482 
L 147.681596 201.465238 
L 147.883953 202.376009 
L 148.08631 204.798273 
L 148.491024 213.421531 
L 148.693382 212.161954 
L 149.098096 234.039838 
L 149.502811 260.103393 
L 149.907525 272.253467 
L 150.109882 274.171899 
L 150.312239 273.629312 
L 150.514597 270.99389 
L 150.716954 265.66491 
L 151.121668 246.170533 
L 151.526383 227.024962 
L 151.931097 221.599092 
L 152.133454 221.192152 
L 152.335811 223.033072 
L 152.538169 223.517525 
L 152.740526 221.599092 
L 152.942883 221.870386 
L 153.14524 220.959615 
L 153.347597 220.998371 
L 153.549955 218.266058 
L 153.752312 220.320137 
L 154.764098 268.416601 
L 154.966455 272.11782 
L 155.168812 273.416153 
L 155.573527 269.734313 
L 155.775884 259.386403 
L 156.78767 186.544095 
L 157.799456 146.702705 
L 158.001813 148.582381 
L 158.406528 160.926236 
L 158.608885 173.599519 
L 159.215956 237.760434 
L 159.620671 257.952423 
L 159.823028 260.95603 
L 160.025385 260.103393 
L 160.227743 250.937548 
L 160.632457 220.591431 
L 161.8466 173.560762 
L 162.251315 164.16238 
L 162.453672 164.298027 
L 162.656029 166.972206 
L 163.465458 196.717602 
L 164.072529 252.681577 
L 164.477244 270.083118 
L 164.679601 270.393168 
L 164.881958 267.370183 
L 165.084316 257.87491 
L 165.48903 228.168271 
L 166.500816 195.361134 
L 167.310245 155.229072 
L 167.512602 158.368326 
L 167.917316 177.610787 
L 168.119674 181.77708 
L 168.322031 192.396283 
L 168.929102 247.953319 
L 169.333817 262.157472 
L 169.536174 265.451751 
L 169.738531 262.021826 
L 170.143246 236.500857 
L 170.54796 208.150685 
L 171.357389 166.468375 
L 171.559746 160.829345 
L 172.166818 138.195715 
L 172.369175 139.707208 
L 172.571532 147.109645 
L 173.178604 183.559866 
L 173.785675 250.046155 
L 174.19039 268.184064 
L 174.392747 270.974511 
L 174.595104 269.269238 
L 174.999819 246.635608 
L 175.404533 223.246231 
L 177.023391 150.055117 
L 177.225748 150.53957 
L 177.428105 154.202033 
L 177.630462 169.723897 
L 177.83282 172.010514 
L 178.237534 213.285884 
L 178.642248 253.437324 
L 179.046963 271.40083 
L 179.24932 274.888889 
L 179.451677 272.52476 
L 179.654034 264.385955 
L 180.261106 227.083097 
L 181.879964 136.316039 
L 182.082321 133.254298 
L 182.284678 138.563899 
L 183.094107 191.311109 
L 183.498821 227.838843 
L 183.903536 247.933941 
L 184.30825 255.278244 
L 184.510607 256.557199 
L 184.712965 253.146652 
L 184.915322 240.609016 
L 185.724751 163.774818 
L 186.129465 143.737854 
L 186.331822 138.060069 
L 186.53418 137.343079 
L 186.736537 139.726586 
L 187.748323 177.630165 
L 188.557752 237.799191 
L 188.962466 251.092573 
L 189.164823 253.011005 
L 189.36718 253.088518 
L 189.569538 252.390906 
L 189.771895 242.275533 
L 190.986038 152.264222 
L 191.188395 147.284048 
L 191.390752 147.245292 
L 191.795467 155.829794 
L 192.604896 185.207005 
L 193.414325 244.639663 
L 193.819039 257.506726 
L 194.021396 258.514388 
L 194.426111 254.793791 
L 194.628468 246.383692 
L 195.437897 189.198896 
L 195.640254 184.490015 
L 195.842611 185.633324 
L 196.247325 191.330487 
L 196.449683 191.873075 
L 196.65204 191.50489 
L 197.056754 199.217377 
L 197.259112 200.01188 
L 197.461469 207.918148 
L 198.06854 253.340433 
L 198.473255 266.672571 
L 198.675612 266.769462 
L 198.877969 263.339537 
L 199.282684 234.408022 
L 199.687398 212.956456 
L 201.306256 150.53957 
L 201.508613 149.454396 
L 202.115684 167.495415 
L 202.318042 177.978971 
L 202.925113 238.206131 
L 203.329828 254.793791 
L 203.532185 256.770358 
L 203.734542 253.960533 
L 203.936899 243.12817 
L 204.341614 211.17367 
L 205.758114 159.782928 
L 205.960471 157.438177 
L 206.162829 157.573823 
L 206.365186 158.910913 
L 206.7699 170.053325 
L 206.972257 173.056932 
L 207.174615 183.249816 
L 207.781686 238.768096 
L 208.186401 253.960533 
L 208.388758 256.828493 
L 208.591115 253.689239 
L 208.793472 242.527449 
L 209.198187 210.747352 
L 209.805258 189.799617 
L 210.209973 171.099743 
L 210.817044 131.89783 
L 211.019402 123.91405 
L 211.221759 126.704497 
L 211.626473 149.72569 
L 211.82883 154.628351 
L 212.031188 168.483698 
L 212.638259 229.660385 
L 213.042974 247.139439 
L 213.245331 250.898792 
L 213.447688 249.290409 
L 213.650045 239.213792 
L 214.257117 198.519766 
L 214.661831 173.735165 
L 215.47126 117.906836 
L 215.875975 102.171812 
L 216.078332 101.726116 
L 216.280689 106.938827 
L 217.090118 166.933449 
L 217.697189 225.184042 
L 218.101904 242.546827 
L 218.304261 245.705459 
L 218.506618 246.984414 
L 218.708976 245.802349 
L 218.911333 233.826678 
L 219.518404 182.280911 
L 220.125476 149.163724 
L 220.327833 147.129023 
L 220.53019 149.221859 
L 221.541976 189.024493 
L 221.744334 193.86902 
L 222.553762 247.391354 
L 222.958477 257.622995 
L 223.160834 259.231378 
L 223.363191 259.560806 
L 223.565549 258.08807 
L 223.767906 249.89113 
L 224.374977 213.94474 
L 224.779692 206.813596 
L 225.386763 208.751407 
L 225.589121 212.065063 
L 225.791478 212.898322 
L 226.196192 220.785212 
L 226.398549 220.455784 
L 226.600907 226.501754 
L 227.410335 276.942969 
L 227.612693 280.741078 
L 227.81505 282.330083 
L 228.017407 279.326476 
L 228.826836 239.252549 
L 229.029193 237.062822 
L 229.23155 231.65633 
L 230.648051 171.991136 
L 230.850408 172.533723 
L 231.255122 186.098398 
L 231.45748 196.349417 
L 232.064551 256.266527 
L 232.469266 272.42787 
L 232.671623 274.98578 
L 232.87398 273.842471 
L 233.278694 250.046155 
L 233.683409 228.846505 
L 235.302267 168.076758 
L 235.504624 167.514793 
L 236.111695 185.497677 
L 236.314053 195.244865 
L 236.921124 253.708617 
L 237.325839 268.649139 
L 237.528196 271.594611 
L 237.730553 269.598666 
L 238.135267 247.061926 
L 238.539982 226.559888 
L 239.349411 197.45397 
L 239.754125 188.036209 
L 240.15884 178.424668 
L 240.361197 178.19213 
L 240.563554 183.327329 
L 240.968268 199.895611 
L 241.170626 207.026755 
L 241.777697 259.289512 
L 242.182412 274.210656 
L 242.384769 276.555407 
L 242.587126 273.745581 
L 242.99184 250.491851 
L 243.396555 233.594141 
L 245.21777 163.3485 
L 245.420127 167.34039 
L 246.027199 192.551308 
L 246.836627 261.692398 
L 247.038985 269.55991 
L 247.241342 272.544138 
L 247.443699 270.160631 
L 247.848413 247.992075 
L 249.467271 142.613924 
L 249.669628 135.017706 
L 249.871985 133.196163 
L 250.074343 133.351188 
L 250.2767 139.881611 
L 250.883772 170.092081 
L 251.6932 240.628394 
L 252.097915 254.28996 
L 252.300272 257.177299 
L 252.502629 257.429214 
L 252.704986 253.78613 
L 253.109701 222.974938 
L 253.91913 154.105142 
L 254.323844 139.242133 
L 254.728558 130.948303 
L 254.930916 129.766238 
L 255.133273 136.81987 
L 255.740345 172.068648 
L 256.549773 242.818121 
L 256.954488 257.37108 
L 257.156845 260.95603 
L 257.359202 262.525656 
L 257.561559 261.614885 
L 257.966274 234.446778 
L 258.573345 187.047926 
L 258.97806 166.662156 
L 259.382774 156.294868 
L 259.585131 153.058724 
L 259.787489 152.651784 
L 259.989846 155.112804 
L 260.39456 170.150215 
L 260.596917 182.707229 
L 261.203989 241.015956 
L 261.608704 258.611279 
L 261.811061 261.36297 
L 262.013418 260.626602 
L 262.418132 238.089862 
L 262.62049 226.792425 
L 263.025204 217.704093 
L 263.227561 215.06867 
L 263.429918 214.119143 
L 263.834633 215.320585 
L 264.03699 215.029914 
L 264.239347 215.921307 
L 264.441704 215.998819 
L 264.644062 215.746904 
L 264.846419 217.665336 
L 265.048776 221.463445 
L 265.251133 221.463445 
L 265.45349 225.242177 
L 266.060562 265.180457 
L 266.465277 277.253018 
L 266.667634 278.706377 
L 266.869991 274.772621 
L 267.072348 267.292671 
L 267.477063 242.372424 
L 268.084134 221.52158 
L 268.488849 211.851904 
L 269.09592 201.271457 
L 269.500635 197.55086 
L 269.702992 199.60494 
L 269.905349 202.996109 
L 270.107706 203.635586 
L 270.310063 209.565287 
L 270.917135 255.510781 
L 271.32185 266.769462 
L 271.524207 268.784785 
L 271.726564 267.176402 
L 274.15485 134.029422 
L 274.357208 127.28584 
L 274.559565 130.425094 
L 275.166636 154.085764 
L 275.976065 230.803694 
L 276.38078 242.624339 
L 276.583137 241.965484 
L 276.987851 221.424689 
L 277.392566 194.237204 
L 278.404352 140.676113 
L 278.606709 137.808153 
L 279.011423 125.367408 
L 279.213781 123.855915 
L 279.416138 127.867184 
L 280.023209 167.107852 
L 280.630281 234.214241 
L 281.034995 255.646428 
L 281.237353 260.23904 
L 281.43971 258.785682 
L 281.642067 253.243543 
L 282.249139 213.964118 
L 282.85621 182.319667 
L 283.867996 142.071337 
L 284.070354 140.947407 
L 284.272711 148.621137 
L 285.284497 226.773047 
L 285.689211 257.041652 
L 286.093926 270.916377 
L 286.296283 273.067347 
L 286.49864 271.362074 
L 286.700997 268.591004 
L 287.105712 239.407573 
L 287.712783 190.904169 
L 288.522212 150.035739 
L 288.724569 143.330914 
L 288.926927 141.509372 
L 289.129284 144.881163 
L 289.736355 176.700016 
L 290.545784 242.643718 
L 290.950499 257.022274 
L 291.152856 259.638318 
L 291.355213 259.715831 
L 291.55757 258.320607 
L 291.759927 246.577473 
L 292.771714 153.71758 
L 293.176428 133.02176 
L 293.581142 122.441313 
L 293.7835 120.813552 
L 293.985857 124.127209 
L 294.592928 148.156063 
L 295.402357 226.54051 
L 295.807072 240.376479 
L 296.009429 240.221454 
L 296.414143 221.11464 
L 297.830644 93.916738 
L 298.235358 81.379103 
L 298.437715 78.937461 
L 298.640073 79.189376 
L 298.84243 81.127187 
L 299.044787 88.704027 
L 299.449501 114.128105 
L 300.056573 188.598174 
L 300.461287 212.394491 
L 300.663645 218.072277 
L 300.866002 218.75051 
L 301.068359 212.316978 
L 301.473073 183.986185 
L 302.484859 84.712137 
L 302.687217 74.0348 
L 302.889574 74.13169 
L 303.091931 81.766665 
L 303.496646 89.924848 
L 303.90136 110.911339 
L 304.306074 137.265566 
L 304.913146 202.550412 
L 305.31786 226.462997 
L 305.520218 231.714465 
L 305.722575 230.028569 
L 305.924932 223.304366 
L 306.532004 185.613946 
L 307.54379 119.573353 
L 307.746147 109.942434 
L 307.948504 109.109175 
L 308.757933 139.552183 
L 309.162647 164.143002 
L 309.769719 223.575659 
L 310.174433 242.333668 
L 310.376791 246.480583 
L 310.579148 245.937996 
L 310.983862 223.846953 
L 312.198005 125.696836 
L 312.60272 114.728826 
L 312.805077 110.601289 
L 313.007434 111.124498 
L 313.209791 114.612558 
L 313.816863 140.637357 
L 314.01922 153.543177 
L 314.626292 212.588272 
L 315.031006 231.927624 
L 315.233364 236.248942 
L 315.435721 235.628842 
L 315.840435 217.917252 
L 316.24515 200.263795 
L 316.649864 188.927602 
L 317.054578 174.490912 
L 317.66165 167.398524 
L 317.864007 166.972206 
L 318.066364 166.119569 
L 318.268722 170.537778 
L 318.875793 191.427378 
L 319.685222 246.71312 
L 320.089937 258.766303 
L 320.292294 260.316552 
L 320.697008 252.836602 
L 321.101723 228.090758 
L 322.315866 154.570217 
L 322.72058 144.900541 
L 322.922937 142.710814 
L 323.125295 146.605814 
L 323.732366 172.669369 
L 324.541795 237.334116 
L 324.94651 250.821279 
L 325.148867 253.553592 
L 325.351224 253.611727 
L 325.553581 251.480135 
L 325.755938 239.85327 
L 326.970082 133.796885 
L 327.172439 127.828428 
L 327.374796 126.336313 
L 327.77951 121.084846 
L 327.981868 125.793726 
L 328.184225 134.087556 
L 328.791296 182.823498 
L 329.196011 224.07949 
L 329.398368 238.458046 
L 329.803083 247.992075 
L 330.00544 247.100682 
L 330.207797 241.810459 
L 330.814869 196.039368 
L 331.42194 159.976709 
L 331.826655 138.583277 
L 332.029012 135.850964 
L 332.231369 135.870342 
L 332.433726 136.044745 
L 332.636083 138.021312 
L 332.838441 142.303874 
L 333.243155 163.929843 
L 333.445512 172.436832 
L 334.052584 234.446778 
L 334.457298 255.00695 
L 334.659655 260.122771 
L 334.862013 257.855532 
L 335.266727 239.13628 
L 335.671442 216.153844 
L 336.48087 178.308399 
L 336.683228 173.522006 
L 336.885585 172.475588 
L 337.087942 166.642778 
L 337.290299 164.898748 
L 337.695014 171.002852 
L 338.099728 184.64504 
L 338.302085 190.187179 
L 339.111514 252.294015 
L 339.313871 258.146204 
L 339.516228 260.258418 
L 339.718586 256.421552 
L 340.1233 234.388644 
L 340.932729 192.43504 
L 342.349229 134.165069 
L 342.551587 134.087556 
L 343.158658 157.380042 
L 343.76573 216.59954 
L 344.170444 233.594141 
L 344.372801 238.089862 
L 344.575159 236.074539 
L 344.777516 229.544117 
L 345.18223 200.399442 
L 346.194016 122.421935 
L 346.598731 108.489076 
L 347.003445 102.249325 
L 347.205802 101.454822 
L 347.40816 104.458429 
L 347.610517 111.860867 
L 348.015231 136.490442 
L 348.82466 222.471107 
L 349.229374 238.613071 
L 349.431732 237.896081 
L 349.634089 232.431455 
L 349.836446 221.92852 
L 351.050589 123.390841 
L 351.455304 106.066812 
L 351.860018 97.714848 
L 352.062375 96.862211 
L 352.264733 100.292136 
L 352.46709 110.756314 
L 353.276519 189.160139 
L 353.681233 224.951505 
L 354.085947 244.000185 
L 354.288305 248.980359 
L 354.490662 249.522946 
L 354.693019 247.410732 
L 355.097733 207.743745 
L 355.704805 138.079447 
L 356.109519 114.767583 
L 356.716591 97.598579 
L 356.918948 96.571539 
L 357.121306 101.106017 
L 357.52602 125.289895 
L 357.728377 137.265566 
L 358.740163 227.373768 
L 359.144878 239.620733 
L 359.347235 241.384141 
L 359.549592 241.074091 
L 359.751949 227.858221 
L 360.763735 114.011836 
L 361.16845 96.009574 
L 361.573164 85.526018 
L 361.775521 83.35567 
L 361.977879 86.456167 
L 362.180236 93.064102 
L 362.58495 117.403005 
L 363.394379 201.174566 
L 363.799093 217.839739 
L 364.001451 218.614864 
L 364.203808 213.053347 
L 364.406165 203.558074 
L 365.013237 137.866287 
L 365.620308 76.90276 
L 366.025023 61.632811 
L 366.429737 55.8 
L 366.632094 56.265075 
L 366.834451 58.764851 
L 367.036809 67.000546 
L 367.441523 94.575594 
L 368.048595 169.801409 
L 368.453309 198.636034 
L 368.655666 206.697327 
L 368.858024 208.945188 
L 369.060381 205.263347 
L 369.262738 195.942477 
L 369.86981 135.909099 
L 370.476881 80.933406 
L 370.881596 65.21776 
L 371.083953 64.791442 
L 371.28631 65.469676 
L 371.488667 69.190273 
L 371.691024 75.081217 
L 372.298096 111.938379 
L 373.107525 192.318771 
L 373.512239 213.344018 
L 373.714597 217.471555 
L 374.119311 216.8127 
L 374.321668 204.759516 
L 375.333454 106.551265 
L 375.738169 94.013629 
L 375.940526 91.455719 
L 376.142883 90.409301 
L 376.34524 95.311962 
L 376.749955 120.135319 
L 377.559383 175.866757 
L 377.964098 208.654516 
L 378.368812 221.715361 
L 378.57117 221.92852 
L 378.773527 216.308869 
L 378.975884 205.689666 
L 380.392384 95.292584 
L 380.797099 85.894202 
L 381.201813 78.704924 
L 381.40417 82.270496 
L 382.011242 117.325493 
L 382.820671 195.787452 
L 383.225385 211.038023 
L 383.427743 211.658123 
L 383.6301 206.600437 
L 384.034814 185.536433 
L 385.0466 115.988404 
L 385.451315 100.175867 
L 385.653672 99.730171 
L 385.856029 103.315121 
L 386.058386 110.543155 
L 387.070172 176.835663 
L 387.474887 214.836133 
L 387.879601 235.570708 
L 388.284316 244.232722 
L 388.68903 246.61623 
L 388.891387 241.170981 
L 389.700816 199.914989 
L 390.307888 189.295786 
L 390.914959 177.223225 
L 391.117316 181.757702 
L 391.926745 219.254341 
L 392.533817 261.130433 
L 392.938531 272.854188 
L 393.140888 274.617596 
L 393.343246 274.191277 
L 393.545603 274.636974 
L 393.74796 266.149363 
L 394.355032 227.141231 
L 395.569175 173.618897 
L 395.771532 167.921733 
L 395.973889 169.065041 
L 396.176247 176.951931 
L 396.783318 216.793321 
L 397.188033 253.301677 
L 397.592747 270.199387 
L 397.795104 272.83481 
L 397.997461 270.431924 
L 398.402176 253.243543 
L 400.628105 132.285392 
L 400.830462 134.978949 
L 401.03282 144.416088 
L 401.639891 198.481009 
L 402.044606 240.512126 
L 402.44932 259.773965 
L 402.651677 263.572074 
L 402.854034 262.002447 
L 403.258749 244.755931 
L 403.663463 217.820361 
L 404.877607 117.306115 
L 405.282321 97.850494 
L 405.484678 93.858604 
L 405.687035 94.885644 
L 405.889393 104.845991 
L 406.294107 140.269173 
L 406.901179 213.654068 
L 407.305893 236.462101 
L 407.50825 241.771703 
L 407.710607 241.267872 
L 408.115322 221.134018 
L 409.73418 95.738281 
L 409.936537 91.068157 
L 410.138894 90.93251 
L 410.341251 95.292584 
L 410.948323 129.514323 
L 411.15068 144.590491 
L 411.757752 211.503098 
L 412.162466 234.311131 
L 412.364823 240.453991 
L 412.56718 242.139887 
L 412.971895 225.029017 
L 414.388395 132.052855 
L 414.79311 119.224548 
L 415.197824 112.907284 
L 415.400181 119.321438 
L 416.20961 178.599071 
L 416.614325 221.463445 
L 417.019039 243.321951 
L 417.221396 247.352598 
L 417.423753 246.829389 
L 417.828468 231.520684 
L 419.244968 138.912705 
L 419.649683 126.026263 
L 419.85204 122.402557 
L 420.054397 123.759025 
L 420.256754 131.955965 
L 421.066183 193.752751 
L 421.673255 245.879862 
L 422.077969 261.091676 
L 422.280326 263.436427 
L 422.482684 262.816328 
L 422.685041 262.661303 
L 423.089755 233.574763 
L 423.899184 168.270539 
L 424.708613 131.103328 
L 424.91097 128.099721 
L 425.113327 131.878452 
L 425.518042 156.566162 
L 425.720399 167.708574 
L 426.529828 238.186753 
L 426.934542 255.72394 
L 427.136899 259.948368 
L 427.339257 260.704114 
L 427.541614 260.917273 
L 427.743971 252.797846 
L 428.148685 214.700486 
L 428.755757 156.27549 
L 429.160471 132.072233 
L 429.565186 124.282234 
L 429.9699 127.983452 
L 430.374615 143.292158 
L 430.576972 154.279545 
L 431.386401 225.997923 
L 431.791115 237.547275 
L 431.993472 235.628842 
L 432.398187 216.463894 
L 433.207616 155.035291 
L 434.017044 88.626515 
L 434.219402 84.014525 
L 435.02883 109.884299 
L 435.433545 133.467457 
L 436.040617 200.651357 
L 436.445331 221.909142 
L 436.647688 226.753669 
L 436.850045 226.114191 
L 437.25476 206.677949 
L 437.659474 173.735165 
L 438.468903 104.419673 
L 438.67126 95.23445 
L 438.873617 96.145221 
L 439.075975 102.850046 
L 439.278332 102.423728 
L 439.480689 104.535942 
L 439.885403 122.034373 
L 440.290118 145.384993 
L 440.897189 214.642351 
L 441.301904 235.686977 
L 441.504261 240.802797 
L 441.706618 241.306628 
L 442.111333 227.412525 
L 442.920762 178.347155 
L 443.527833 145.462506 
L 444.134905 124.01094 
L 444.337262 121.569299 
L 444.539619 127.615268 
L 445.146691 170.111459 
L 445.753762 235.357549 
L 446.158477 255.355756 
L 446.360834 260.02588 
L 446.563191 258.146204 
L 446.967906 240.318345 
L 448.586763 136.781113 
L 448.991478 124.340368 
L 449.193835 122.150642 
L 449.396192 128.429149 
L 450.003264 166.507131 
L 450.812693 241.984862 
L 451.217407 254.522498 
L 451.419764 254.638766 
L 451.824479 238.438668 
L 452.43155 190.904169 
L 453.038622 151.392207 
L 453.443336 135.327755 
L 453.848051 127.90594 
L 454.050408 131.08395 
L 454.252765 140.50171 
L 454.65748 167.282255 
L 454.859837 175.246658 
L 455.669266 236.26832 
L 456.07398 249.038493 
L 456.276337 250.472473 
L 456.478694 248.592797 
L 456.681052 245.666702 
L 456.883409 238.128618 
L 457.288123 212.665784 
L 457.692838 202.337253 
L 457.895195 202.996109 
L 458.299909 208.421979 
L 458.502267 208.286332 
L 458.906981 204.682004 
L 459.109338 205.185835 
L 459.514053 209.100213 
L 459.71641 213.150237 
L 460.728196 267.544586 
L 461.13291 271.71088 
L 461.537625 268.591004 
L 461.739982 260.180905 
L 462.144696 227.66444 
L 463.561197 162.476485 
L 463.763554 155.636013 
L 463.965911 156.740565 
L 464.572983 175.091633 
L 465.382412 238.206131 
L 465.584769 244.717175 
L 465.787126 247.275085 
L 465.989483 244.988469 
L 467.608341 157.786983 
L 468.620127 137.827531 
L 468.822484 140.773004 
L 469.429556 165.49947 
L 470.036627 218.944291 
L 470.441342 235.706355 
L 470.643699 238.186753 
L 470.846056 235.764489 
L 471.857842 187.784294 
L 472.869628 159.279097 
L 473.071985 159.744171 
L 473.274343 158.058276 
L 473.4767 159.240341 
L 473.679057 162.805912 
L 473.881414 169.006907 
L 474.083772 170.092081 
L 474.286129 177.320115 
L 474.8932 226.424241 
L 475.297915 241.732946 
L 475.500272 243.302573 
L 475.702629 241.384141 
L 476.107344 218.421083 
L 476.512058 197.686507 
L 477.321487 168.018624 
L 477.726201 149.028078 
L 477.928558 145.675665 
L 478.333273 150.093874 
L 478.53563 154.298923 
L 479.142702 177.78519 
L 479.952131 241.636056 
L 480.356845 250.91817 
L 480.559202 250.530608 
L 480.963917 229.718519 
L 482.785131 108.760369 
L 482.987489 103.198852 
L 483.189846 100.718454 
L 483.392203 106.028056 
L 483.999275 143.582829 
L 484.606346 210.572949 
L 485.011061 232.450833 
L 485.213418 236.597748 
L 485.415775 237.489141 
L 485.82049 218.866779 
L 486.225204 189.470189 
L 487.23699 104.710345 
L 487.439347 101.803628 
L 487.844062 107.985245 
L 488.248776 125.522433 
L 489.260562 198.558522 
L 489.665277 228.846505 
L 490.069991 243.070036 
L 490.272348 245.27914 
L 490.474705 244.213344 
L 490.677063 242.546827 
L 490.87942 233.380982 
L 491.891206 158.290813 
L 492.29592 141.606262 
L 492.498277 134.649522 
L 492.700635 132.750467 
L 492.902992 134.281337 
L 493.105349 138.815815 
L 493.712421 170.382753 
L 494.52185 238.186753 
L 495.128921 255.394513 
L 495.331278 255.530159 
L 495.533636 254.948816 
L 495.735993 247.83705 
L 496.950136 161.662604 
L 497.557208 138.718924 
L 497.759565 135.560293 
L 497.961922 138.583277 
L 498.568994 168.251161 
L 499.378422 237.760434 
L 499.58078 244.193966 
L 499.783137 246.538717 
L 499.985494 243.418842 
L 500.187851 235.396305 
L 500.794923 200.631979 
L 500.99728 195.826209 
L 501.401995 183.501732 
L 501.806709 172.901907 
L 502.009066 172.475588 
L 502.211423 174.413399 
L 502.413781 175.014121 
L 502.616138 173.444494 
L 503.020852 182.590961 
L 503.223209 183.11417 
L 503.425567 190.187179 
L 504.032638 237.915459 
L 504.437353 250.220558 
L 504.63971 251.751428 
L 504.842067 249.522946 
L 505.246782 226.579266 
L 505.651496 204.158795 
L 507.270354 135.288999 
L 507.472711 132.362905 
L 507.675068 135.560293 
L 508.28214 161.953276 
L 508.889211 216.580162 
L 509.293926 232.702748 
L 509.496283 236.016405 
L 509.69864 234.291753 
L 510.103354 212.123197 
L 511.722212 111.977135 
L 512.126927 95.253828 
L 512.329284 96.745942 
L 512.936355 129.107383 
L 513.34107 165.770763 
L 513.745784 206.697327 
L 514.150499 228.090758 
L 514.352856 233.342226 
L 514.555213 233.8073 
L 514.75757 225.435958 
L 516.174071 134.339472 
L 516.376428 133.312432 
L 516.781142 142.090715 
L 516.9835 139.513427 
L 517.185857 140.017257 
L 517.590571 156.68243 
L 517.792928 160.674321 
L 517.995286 170.750937 
L 518.4 208.092551 
L 518.4 208.092551 
" clip-path="url(#p367fc7585e)" style="fill: none; stroke: #1f77b4; stroke-width: 1.5; stroke-linecap: square"/>
   </g>
   <g id="line2d_14">
    <path d="M 72 204.041127 
L 72.202357 204.041127 
L 72.404714 209.653138 
L 72.607072 218.993192 
L 72.809429 221.569913 
L 73.011786 214.861465 
L 73.4165 193.551468 
L 74.023572 180.295447 
L 75.440073 136.59563 
L 75.64243 141.337193 
L 76.047144 161.675561 
L 76.249501 176.484116 
L 76.654216 218.764454 
L 77.05893 238.86546 
L 77.261287 243.313811 
L 77.463645 244.225519 
L 77.666002 239.001851 
L 78.273073 209.107724 
L 78.880145 193.590163 
L 79.487217 168.30588 
L 79.689574 163.801251 
L 80.094288 142.138172 
L 80.296646 142.378143 
L 80.499003 151.19266 
L 81.915503 253.909457 
L 82.11786 258.424747 
L 82.320218 258.37874 
L 82.522575 256.510294 
L 82.927289 246.498953 
L 83.332004 227.379326 
L 83.534361 217.124778 
L 84.141432 210.036895 
L 84.950861 216.107335 
L 85.153218 218.385604 
L 85.76029 230.589076 
L 86.569719 259.532458 
L 86.772076 261.750035 
L 87.379148 258.427525 
L 87.783862 247.214292 
L 88.390934 233.275993 
L 88.593291 229.784212 
L 89.605077 222.133534 
L 90.212149 215.504615 
L 90.414506 216.14847 
L 90.616863 217.82574 
L 90.81922 223.992067 
L 91.426292 263.745676 
L 91.628649 268.639476 
L 91.831006 266.335736 
L 92.235721 252.570934 
L 92.842792 219.137987 
L 93.04515 216.359597 
L 93.247507 215.728674 
L 94.056936 208.980893 
L 94.259293 209.080539 
L 94.46165 207.851228 
L 94.664007 204.221127 
L 95.271079 211.80454 
L 95.473436 215.880869 
L 95.675793 225.330346 
L 96.080508 260.484236 
L 96.485222 273.389391 
L 96.687579 272.840851 
L 97.092294 257.680841 
L 97.699365 224.084181 
L 98.10408 221.171746 
L 98.306437 220.674605 
L 98.508794 218.72159 
L 98.711151 218.153472 
L 99.318223 211.202183 
L 99.52058 205.958968 
L 99.722937 204.364735 
L 100.127652 213.176607 
L 100.330009 218.840958 
L 100.734723 251.277594 
L 100.937081 266.190422 
L 101.544152 273.622705 
L 101.74651 270.174941 
L 101.948867 263.450675 
L 102.555938 230.316086 
L 102.758296 229.343491 
L 102.960653 227.105132 
L 103.365367 221.575399 
L 103.567724 220.753504 
L 103.972439 213.870818 
L 104.174796 210.246109 
L 104.377153 202.697047 
L 104.57951 200.898317 
L 104.781868 204.938427 
L 105.388939 227.96035 
L 105.793654 266.732693 
L 105.996011 271.819697 
L 106.198368 272.05374 
L 106.400725 271.88962 
L 106.603083 269.464611 
L 106.80544 263.715468 
L 107.614869 226.473204 
L 107.817226 224.359178 
L 108.626655 207.147205 
L 109.233726 187.044074 
L 109.436083 188.607134 
L 109.638441 193.118497 
L 110.245512 224.210118 
L 110.650227 260.610891 
L 110.852584 265.150561 
L 111.054941 266.780525 
L 111.257298 270.494271 
L 111.459655 268.555173 
L 111.662013 263.253979 
L 112.876156 208.529248 
L 113.078513 202.574653 
L 113.483228 186.57135 
L 113.685585 182.746158 
L 114.090299 169.407985 
L 114.292656 168.76266 
L 114.697371 186.230899 
L 115.102085 209.682192 
L 115.709157 257.056668 
L 116.316228 262.605932 
L 116.518586 258.929581 
L 117.125657 240.473126 
L 117.732729 205.050985 
L 118.946872 144.771895 
L 119.149229 140.210511 
L 119.351587 146.157909 
L 120.768087 251.514056 
L 120.970444 257.12336 
L 121.172801 259.634125 
L 121.375159 259.372116 
L 121.779873 247.959287 
L 122.184587 226.444376 
L 122.386945 211.711764 
L 123.398731 184.247544 
L 123.601088 181.990994 
L 123.803445 182.265966 
L 124.20816 193.721168 
L 124.612874 205.792143 
L 125.017588 232.77054 
L 125.422303 255.441697 
L 125.62466 260.006678 
L 125.827017 261.921784 
L 126.029374 260.853946 
L 126.231732 257.608923 
L 127.04116 216.859793 
L 127.243518 211.91984 
L 127.850589 184.067714 
L 128.457661 150.480791 
L 128.660018 145.442576 
L 128.862375 147.774487 
L 129.064733 155.288683 
L 130.278876 254.215507 
L 130.481233 253.816031 
L 130.68359 253.727684 
L 130.885947 249.915031 
L 131.897733 207.162449 
L 132.100091 201.778062 
L 132.707162 168.439063 
L 133.314234 126.216528 
L 133.516591 121.955036 
L 133.718948 125.516045 
L 134.32602 170.604426 
L 135.337806 250.26594 
L 135.540163 254.633443 
L 135.74252 253.100621 
L 136.147235 235.638293 
L 136.754306 201.052058 
L 136.956664 194.238806 
L 137.159021 193.220618 
L 137.563735 179.986189 
L 137.766092 175.916739 
L 137.96845 177.390373 
L 138.373164 183.312492 
L 139.182593 203.614635 
L 139.992022 250.56598 
L 140.194379 253.900746 
L 140.396736 252.042301 
L 140.801451 242.646992 
L 141.408522 212.804112 
L 141.610879 210.379052 
L 142.015594 202.019602 
L 142.217951 198.879088 
L 142.420308 197.646278 
L 142.622665 198.085595 
L 142.825023 200.791273 
L 143.229737 197.008691 
L 143.634451 201.443831 
L 143.836809 205.149805 
L 144.241523 225.398073 
L 144.646238 253.048922 
L 145.050952 261.846252 
L 145.253309 258.265311 
L 145.658024 243.389558 
L 146.265095 210.176226 
L 147.074524 197.245043 
L 147.276881 195.792304 
L 147.479238 197.879592 
L 147.681596 195.655369 
L 147.883953 202.330172 
L 148.08631 203.123575 
L 148.288667 205.261726 
L 148.895739 220.900134 
L 149.705168 273.131214 
L 150.109882 268.710211 
L 150.514597 257.838334 
L 151.121668 233.146875 
L 151.526383 220.753431 
L 151.72874 215.133648 
L 151.931097 213.053851 
L 152.133454 213.012378 
L 152.335811 215.60654 
L 152.740526 223.502019 
L 152.942883 222.80465 
L 153.14524 223.371129 
L 153.347597 225.039627 
L 153.549955 229.148688 
L 153.752312 229.58953 
L 153.954669 234.288118 
L 154.157026 243.962282 
L 154.561741 268.158362 
L 154.764098 276.941024 
L 154.966455 279.484069 
L 155.37117 268.549163 
L 156.180598 232.734449 
L 156.990027 186.901728 
L 157.799456 158.037369 
L 158.001813 155.87851 
L 158.20417 156.846476 
L 158.608885 172.358759 
L 159.215956 227.266357 
L 159.620671 262.720172 
L 159.823028 264.948027 
L 160.4301 243.549191 
L 160.834814 210.038954 
L 161.441886 186.452416 
L 162.251315 165.440974 
L 162.453672 159.700875 
L 162.656029 160.196021 
L 163.060743 178.607789 
L 163.465458 200.350825 
L 163.667815 209.286505 
L 164.072529 249.296162 
L 164.477244 262.912306 
L 164.679601 266.246235 
L 164.881958 262.925615 
L 165.286673 241.279697 
L 165.691387 215.336734 
L 166.096102 206.991712 
L 166.500816 202.882109 
L 167.107888 174.049268 
L 167.512602 155.589018 
L 167.714959 161.045285 
L 169.13146 254.131357 
L 169.536174 257.844562 
L 169.738531 257.570333 
L 169.940888 251.571542 
L 170.345603 228.042021 
L 170.750317 202.073881 
L 171.155032 181.675795 
L 171.762103 145.783137 
L 172.166818 141.572208 
L 172.369175 140.840099 
L 172.571532 144.174823 
L 172.773889 152.448864 
L 173.583318 221.815261 
L 173.988033 258.953368 
L 174.19039 261.72835 
L 174.392747 259.455036 
L 174.595104 255.327739 
L 174.797461 247.82488 
L 175.60689 205.182187 
L 175.809248 202.736151 
L 176.416319 179.66396 
L 176.821034 165.96941 
L 177.023391 161.166032 
L 177.428105 158.279956 
L 177.630462 164.985863 
L 178.439891 228.480624 
L 178.844606 261.974148 
L 179.046963 264.809017 
L 179.24932 265.300843 
L 179.451677 261.716236 
L 179.654034 255.610491 
L 181.677607 151.734661 
L 182.082321 142.080486 
L 182.284678 142.714389 
L 182.487035 149.98659 
L 183.903536 244.430128 
L 184.105893 247.662531 
L 184.30825 246.919697 
L 184.712965 238.450685 
L 185.117679 220.485086 
L 186.331822 132.801072 
L 186.53418 130.532267 
L 186.736537 136.145738 
L 186.938894 138.634848 
L 187.545966 175.380448 
L 187.748323 190.229923 
L 187.95068 196.854416 
L 188.760109 245.204701 
L 188.962466 249.702508 
L 189.164823 250.651125 
L 189.36718 247.1814 
L 189.771895 226.749817 
L 190.581324 189.683266 
L 191.188395 139.983743 
L 191.390752 139.496343 
L 191.997824 166.284442 
L 192.807253 199.751593 
L 193.616682 251.65173 
L 193.819039 258.038702 
L 194.021396 260.066047 
L 194.223753 255.383582 
L 194.628468 232.354888 
L 195.640254 183.880399 
L 195.842611 170.262628 
L 196.044968 167.052484 
L 196.247325 169.470503 
L 196.65204 190.996456 
L 197.056754 205.411656 
L 197.259112 207.557621 
L 197.461469 211.139716 
L 197.663826 218.535041 
L 198.270898 252.451985 
L 198.675612 264.952818 
L 198.877969 263.24379 
L 199.485041 225.69437 
L 199.889755 204.463647 
L 201.306256 153.397064 
L 201.508613 150.300675 
L 201.913327 163.328637 
L 202.520399 197.412702 
L 203.127471 247.99574 
L 203.329828 253.417437 
L 203.532185 255.71562 
L 203.734542 252.124561 
L 204.139257 228.561866 
L 204.543971 204.367765 
L 205.151043 183.627924 
L 206.162829 147.635101 
L 206.365186 146.818424 
L 206.567543 155.16695 
L 208.186401 256.144051 
L 208.388758 259.492784 
L 208.591115 258.657683 
L 208.793472 250.997873 
L 209.602901 197.152026 
L 210.41233 165.190882 
L 210.817044 146.832498 
L 211.424116 128.379327 
L 211.626473 139.292961 
L 212.840617 246.102702 
L 213.042974 249.552691 
L 213.245331 250.399888 
L 213.447688 248.615233 
L 213.650045 244.312176 
L 214.05476 218.820394 
L 214.459474 193.578963 
L 214.864189 172.20445 
L 215.47126 121.093206 
L 216.078332 103.785413 
L 216.280689 103.603586 
L 216.483046 110.534148 
L 216.887761 140.9212 
L 217.292475 182.014552 
L 217.697189 226.408417 
L 217.899547 238.870672 
L 218.101904 243.754768 
L 218.304261 244.286762 
L 218.506618 240.639419 
L 218.911333 227.126838 
L 219.720762 181.082428 
L 220.327833 133.331771 
L 220.53019 131.112022 
L 220.934905 145.287461 
L 221.137262 153.611315 
L 222.149048 221.883783 
L 222.553762 243.038458 
L 222.958477 252.631904 
L 223.160834 253.985896 
L 223.363191 251.200849 
L 224.374977 206.992941 
L 224.577335 205.100905 
L 224.779692 201.619718 
L 224.982049 194.407167 
L 225.184406 194.045916 
L 225.791478 210.516925 
L 225.993835 212.466804 
L 226.600907 222.596977 
L 226.803264 229.025721 
L 227.207978 248.410245 
L 227.612693 258.418648 
L 227.81505 261.359911 
L 228.017407 259.90069 
L 228.219764 254.039555 
L 229.029193 215.750968 
L 229.23155 214.768274 
L 229.636265 209.01921 
L 230.040979 201.471765 
L 230.648051 184.632431 
L 230.850408 183.191177 
L 231.052765 184.492903 
L 231.255122 188.140713 
L 231.659837 209.315551 
L 232.266908 259.685442 
L 232.469266 266.911518 
L 232.671623 268.403878 
L 232.87398 263.176098 
L 234.088123 209.165772 
L 234.290481 204.944133 
L 234.897552 182.885106 
L 235.099909 180.108782 
L 235.504624 162.680905 
L 235.706981 164.855359 
L 236.718767 226.069943 
L 237.123481 259.141928 
L 237.528196 268.451751 
L 237.730553 266.680923 
L 238.135267 248.348198 
L 238.742339 212.657822 
L 239.147053 202.473779 
L 239.349411 199.556251 
L 239.754125 187.89868 
L 239.956482 187.400937 
L 240.15884 185.324139 
L 240.361197 181.982829 
L 240.563554 183.265642 
L 240.968268 196.266694 
L 241.57534 238.185647 
L 241.777697 255.072723 
L 241.980054 262.423846 
L 242.182412 263.293 
L 242.384769 262.512764 
L 242.587126 260.206999 
L 242.789483 255.209684 
L 243.801269 210.711129 
L 244.205984 201.330357 
L 244.610698 187.027708 
L 245.015413 179.067653 
L 245.21777 173.391258 
L 245.420127 173.268583 
L 246.027199 194.670769 
L 246.431913 226.102329 
L 246.836627 260.01393 
L 247.038985 263.628387 
L 247.241342 264.856501 
L 247.443699 261.478496 
L 247.848413 246.610568 
L 249.871985 135.374862 
L 250.074343 131.976902 
L 250.2767 136.985648 
L 250.681414 161.590296 
L 251.086129 192.777833 
L 251.895558 247.562576 
L 252.097915 253.132436 
L 252.300272 253.656801 
L 252.704986 244.137981 
L 253.109701 221.514974 
L 253.514415 197.752339 
L 253.91913 167.734551 
L 254.323844 136.174887 
L 254.526201 133.105615 
L 254.728558 133.559781 
L 255.133273 139.173829 
L 255.33563 146.802454 
L 256.752131 249.1858 
L 256.954488 253.312508 
L 257.156845 253.904042 
L 257.359202 251.877515 
L 257.763917 236.624844 
L 259.180417 156.705656 
L 259.382774 153.397888 
L 259.585131 153.326408 
L 260.192203 167.220449 
L 260.799275 198.003101 
L 261.406346 247.845335 
L 261.811061 259.985093 
L 262.013418 260.772916 
L 262.215775 253.801856 
L 262.822847 215.627583 
L 263.227561 203.989714 
L 263.632276 199.614726 
L 264.03699 203.336319 
L 264.441704 206.786445 
L 264.644062 207.464648 
L 265.048776 211.39086 
L 265.655848 232.199983 
L 266.060562 250.735658 
L 266.262919 254.813863 
L 266.465277 255.228862 
L 266.667634 256.506297 
L 266.869991 255.33279 
L 267.274705 241.987416 
L 267.67942 224.53287 
L 268.893563 204.595838 
L 269.298277 202.367521 
L 269.500635 200.94137 
L 269.702992 200.83776 
L 269.905349 203.368213 
L 270.310063 215.16984 
L 270.512421 223.265108 
L 271.119492 262.435107 
L 271.32185 264.40788 
L 271.524207 263.790306 
L 271.726564 258.45011 
L 272.940707 203.266968 
L 273.345422 187.834729 
L 274.559565 132.106464 
L 274.761922 131.737531 
L 274.964279 138.561529 
L 275.368994 167.314211 
L 275.773708 214.400322 
L 276.178422 240.319998 
L 276.38078 244.013625 
L 276.583137 244.99379 
L 276.785494 240.988195 
L 277.190209 219.312205 
L 277.79728 182.901111 
L 278.201995 163.855234 
L 278.606709 140.473997 
L 278.809066 133.412254 
L 279.416138 126.012004 
L 279.820852 148.945629 
L 280.427924 205.959018 
L 280.832638 243.015007 
L 281.237353 253.590204 
L 281.642067 245.949642 
L 282.046782 225.253124 
L 282.451496 203.85793 
L 283.463282 159.909846 
L 283.867996 150.023838 
L 284.070354 144.814841 
L 284.272711 144.05489 
L 284.475068 152.714067 
L 284.879782 186.67071 
L 285.284497 226.052322 
L 285.689211 260.877256 
L 285.891568 264.254743 
L 286.296283 262.16066 
L 286.700997 251.329228 
L 287.105712 233.977376 
L 288.319855 157.951638 
L 288.724569 144.503358 
L 288.926927 145.953715 
L 289.129284 146.050149 
L 289.533998 163.585773 
L 290.343427 227.593506 
L 290.748141 254.291328 
L 290.950499 259.197965 
L 291.152856 256.579558 
L 291.355213 251.255809 
L 291.962285 222.862156 
L 292.771714 168.625442 
L 293.176428 132.204482 
L 293.378785 126.486966 
L 293.581142 125.795142 
L 293.7835 129.062757 
L 294.390571 146.596211 
L 294.795286 170.260106 
L 295.604714 236.07774 
L 295.807072 243.217865 
L 296.009429 245.450746 
L 296.211786 239.460802 
L 296.6165 214.822864 
L 298.033001 99.136022 
L 298.235358 89.166391 
L 298.437715 85.88751 
L 298.640073 88.29858 
L 298.84243 92.396605 
L 299.449501 118.835637 
L 299.854216 150.02624 
L 300.461287 219.06865 
L 300.663645 225.475331 
L 300.866002 225.651077 
L 301.270716 209.011013 
L 301.675431 181.209046 
L 302.484859 103.431448 
L 302.889574 89.306096 
L 303.091931 88.49132 
L 303.699003 111.278354 
L 304.103717 130.414442 
L 304.710789 179.09342 
L 305.115503 220.892561 
L 305.520218 237.310788 
L 305.722575 236.405558 
L 306.127289 217.842778 
L 307.746147 120.592891 
L 307.948504 121.082969 
L 308.150861 122.384203 
L 308.555576 134.963389 
L 309.365005 187.533454 
L 309.972076 241.929551 
L 310.174433 250.301264 
L 310.376791 252.773127 
L 310.579148 250.877169 
L 310.781505 243.650446 
L 311.388577 204.053634 
L 311.793291 178.741083 
L 312.400363 127.553085 
L 312.805077 118.107837 
L 313.007434 119.142058 
L 313.614506 136.373807 
L 314.01922 163.680318 
L 314.828649 231.667671 
L 315.233364 243.442069 
L 315.435721 241.320945 
L 315.840435 220.175693 
L 316.24515 198.911641 
L 317.054578 170.877324 
L 317.256936 162.004394 
L 317.459293 158.621365 
L 317.66165 158.39897 
L 318.066364 162.085769 
L 318.471079 174.140764 
L 319.07815 209.586669 
L 319.685222 244.826968 
L 319.887579 249.686844 
L 320.089937 250.882685 
L 320.292294 248.962964 
L 320.494651 245.628911 
L 321.30408 215.803634 
L 321.911151 186.215902 
L 322.518223 152.640992 
L 322.72058 146.045717 
L 322.922937 144.08554 
L 323.125295 145.61137 
L 323.327652 148.591853 
L 323.732366 177.435482 
L 324.137081 208.219216 
L 324.744152 253.507255 
L 324.94651 256.831419 
L 325.148867 255.207954 
L 325.351224 251.794431 
L 325.755938 230.37031 
L 326.565367 184.249105 
L 327.172439 120.862859 
L 327.374796 114.477435 
L 327.577153 112.713594 
L 328.386582 135.129599 
L 328.791296 165.634229 
L 329.398368 240.361011 
L 329.600725 251.767548 
L 329.803083 256.883036 
L 330.00544 253.907421 
L 330.207797 247.652395 
L 330.612511 220.763792 
L 331.42194 159.562672 
L 332.029012 124.384312 
L 332.231369 122.500845 
L 332.433726 126.133461 
L 332.838441 136.149423 
L 333.243155 160.279038 
L 334.254941 245.12797 
L 334.457298 249.835437 
L 334.659655 251.468002 
L 334.862013 251.568587 
L 335.469084 221.10296 
L 335.873799 203.189007 
L 336.278513 190.157268 
L 336.48087 183.725199 
L 336.885585 159.618673 
L 337.087942 159.190139 
L 337.290299 159.061033 
L 337.492656 160.025255 
L 337.695014 164.698885 
L 339.313871 254.956363 
L 339.516228 256.818151 
L 339.718586 253.643257 
L 340.1233 236.500841 
L 340.528015 210.736365 
L 341.135086 187.874323 
L 341.742158 157.722001 
L 342.146872 141.59706 
L 342.349229 139.866859 
L 342.551587 141.371575 
L 342.956301 150.266493 
L 343.563373 195.608804 
L 343.968087 231.059317 
L 344.170444 238.695179 
L 344.372801 241.905553 
L 344.575159 239.804377 
L 344.979873 223.148593 
L 345.586945 186.011983 
L 346.396374 113.807814 
L 346.801088 99.989801 
L 347.205802 102.404043 
L 347.40816 103.296147 
L 347.610517 108.71636 
L 348.217588 147.321928 
L 348.419946 167.850796 
L 348.82466 222.013681 
L 349.229374 240.401909 
L 349.431732 240.945352 
L 349.836446 223.730682 
L 351.455304 108.806643 
L 351.657661 108.544729 
L 351.860018 110.039414 
L 352.062375 110.121616 
L 352.264733 112.254177 
L 352.669447 126.85431 
L 353.074161 159.282392 
L 353.276519 180.916051 
L 353.681233 231.18138 
L 354.085947 247.706242 
L 354.288305 247.236631 
L 354.490662 243.015719 
L 354.895376 227.058133 
L 355.502448 186.178058 
L 356.311877 112.382592 
L 356.514234 111.267764 
L 356.918948 117.092511 
L 357.121306 117.964942 
L 357.323663 124.316897 
L 357.728377 146.539062 
L 358.335449 204.007419 
L 358.740163 239.527885 
L 358.94252 248.321792 
L 359.144878 250.44503 
L 359.549592 235.836486 
L 359.954306 212.075771 
L 361.16845 107.203598 
L 361.370807 104.582106 
L 362.382593 127.250496 
L 362.58495 134.13677 
L 362.989665 164.940315 
L 363.394379 210.402558 
L 363.799093 233.525356 
L 364.001451 237.23761 
L 364.406165 219.618095 
L 364.810879 190.246108 
L 365.620308 110.873703 
L 366.025023 89.256451 
L 366.22738 86.068901 
L 366.429737 88.822893 
L 367.441523 122.879214 
L 367.846238 152.468307 
L 368.453309 208.257063 
L 368.655666 217.40175 
L 368.858024 220.188262 
L 369.060381 215.196719 
L 369.465095 198.179631 
L 370.072167 148.995797 
L 370.476881 114.211788 
L 370.881596 97.904747 
L 371.083953 96.665413 
L 371.488667 105.897855 
L 371.691024 111.796103 
L 372.298096 143.163952 
L 373.512239 231.735421 
L 373.714597 235.755609 
L 373.916954 231.873625 
L 374.321668 215.593687 
L 375.131097 161.446253 
L 375.535811 123.886759 
L 375.738169 115.596742 
L 375.940526 115.60038 
L 376.142883 119.065943 
L 376.749955 138.731288 
L 377.154669 163.363775 
L 377.964098 226.792463 
L 378.368812 246.317704 
L 378.57117 247.362938 
L 378.773527 240.971407 
L 379.380598 199.032524 
L 379.98767 151.024322 
L 380.392384 119.293641 
L 380.797099 106.698109 
L 380.999456 107.91238 
L 382.011242 140.955052 
L 382.415956 171.052234 
L 382.820671 216.362599 
L 383.225385 233.991015 
L 383.427743 234.954318 
L 384.034814 204.151053 
L 384.237171 190.901935 
L 384.237171 190.901935 
" clip-path="url(#p367fc7585e)" style="fill: none; stroke: #ff7f0e; stroke-width: 1.5; stroke-linecap: square"/>
   </g>
   <g id="line2d_15">
    <path d="M 384.439529 181.074887 
L 384.641886 172.734269 
L 385.451315 159.839114 
L 385.653672 158.472825 
L 385.856029 158.810808 
L 386.058386 161.000499 
L 386.260743 165.562608 
L 386.665458 193.032912 
L 387.272529 234.314403 
L 387.474887 247.453204 
L 387.879601 256.05282 
L 388.081958 253.299282 
L 388.486673 242.034559 
L 388.891387 223.626896 
L 389.093744 221.985524 
L 389.296102 217.578068 
L 389.498459 216.210183 
L 389.903173 214.944833 
L 390.10553 211.363253 
L 390.307888 210.712669 
L 390.510245 211.812336 
L 390.712602 216.31466 
L 390.914959 216.645145 
L 391.117316 218.420546 
L 391.319674 223.161902 
L 392.129102 252.701568 
L 392.533817 258.278214 
L 392.736174 255.94645 
L 393.140888 244.029115 
L 393.545603 230.101864 
L 394.759746 213.717619 
L 394.962103 213.364642 
L 395.164461 207.979736 
L 395.366818 209.298491 
L 395.771532 210.022792 
L 395.973889 210.687918 
L 396.176247 211.794202 
L 396.580961 221.112375 
L 396.783318 225.994222 
L 397.39039 247.268717 
L 397.592747 250.554455 
L 397.795104 247.786048 
L 399.009248 208.882173 
L 399.413962 205.403005 
L 399.818676 203.874972 
L 400.223391 209.308125 
L 401.03282 228.548837 
L 401.437534 249.687174 
L 402.044606 291.304911 
L 402.246963 293.485669 
L 402.44932 289.462877 
L 402.854034 270.984266 
L 403.663463 232.930264 
L 404.068178 223.692769 
L 404.270535 222.984137 
L 404.472892 224.687676 
L 405.484678 243.27203 
L 405.889393 255.929509 
L 406.294107 285.1259 
L 406.698821 307.8 
L 406.901179 307.099323 
L 407.103536 298.60835 
L 408.317679 217.488529 
L 408.924751 191.865361 
L 409.531822 182.15996 
L 409.73418 183.144282 
L 409.936537 186.536375 
L 410.745966 222.034504 
L 411.353037 254.634827 
L 411.555394 255.127206 
L 411.757752 249.855509 
L 412.971895 193.976577 
L 413.578966 176.331765 
L 413.983681 169.573233 
L 414.186038 168.257239 
L 414.388395 167.910021 
L 414.590752 168.656363 
L 416.007253 220.508119 
L 416.20961 224.803258 
L 416.411967 223.816489 
L 416.614325 221.776436 
L 417.019039 214.668407 
L 417.221396 212.847963 
L 417.626111 204.334719 
L 418.030825 194.720808 
L 418.233182 193.765301 
L 418.435539 194.7543 
L 419.244968 202.779182 
L 420.054397 220.603334 
L 420.661469 236.993295 
L 421.066183 242.518489 
L 421.26854 243.186553 
L 421.875612 238.001917 
L 422.077969 237.816352 
L 422.280326 237.100098 
L 422.685041 231.870641 
L 422.887398 231.841318 
L 423.089755 232.738243 
L 423.292112 232.758615 
L 423.696827 235.795265 
L 424.506256 249.693643 
L 425.518042 280.622719 
L 425.720399 281.20142 
L 425.922756 278.181476 
L 426.327471 267.459198 
L 427.541614 225.297318 
L 427.743971 223.502275 
L 427.946328 222.917136 
L 428.351043 225.000804 
L 428.5534 226.934663 
L 428.958114 235.083116 
L 429.565186 250.213812 
L 430.374615 280.896907 
L 430.576972 277.42777 
L 430.779329 270.70896 
L 431.993472 212.842508 
L 432.398187 205.916073 
L 432.600544 204.235045 
L 432.802901 204.235726 
L 433.005258 205.033108 
L 433.207616 206.804959 
L 433.814687 218.650544 
L 434.219402 228.350608 
L 434.624116 249.348702 
L 435.02883 269.668111 
L 435.231188 271.782043 
L 435.433545 267.92858 
L 435.838259 249.7534 
L 437.052403 188.13967 
L 437.457117 182.099523 
L 437.659474 181.153204 
L 437.861831 181.729048 
L 438.064189 183.813673 
L 438.468903 192.733901 
L 439.075975 212.062086 
L 439.885403 257.623368 
L 440.087761 260.110989 
L 440.290118 258.978938 
L 440.694832 250.804915 
L 441.099547 230.258368 
L 441.504261 205.279198 
L 441.908976 191.778175 
L 442.111333 188.467037 
L 442.31369 187.040062 
L 442.516047 187.616018 
L 442.718404 189.224529 
L 443.123119 196.507653 
L 443.73019 216.266564 
L 444.134905 236.71267 
L 444.539619 260.843669 
L 444.741976 267.178754 
L 444.944334 269.070956 
L 445.146691 268.166067 
L 445.349048 265.321887 
L 445.551405 259.398104 
L 445.95612 235.995562 
L 446.563191 206.212477 
L 446.967906 196.66967 
L 447.170263 194.345768 
L 447.37262 193.587455 
L 447.574977 195.845314 
L 447.777335 200.160887 
L 448.789121 239.849666 
L 449.193835 265.236059 
L 449.598549 275.491962 
L 449.800907 274.339174 
L 450.003264 269.714712 
L 450.610335 238.885597 
L 451.217407 209.411324 
L 451.824479 193.301529 
L 452.026836 191.367825 
L 452.229193 190.935533 
L 452.43155 193.249144 
L 452.836265 206.966709 
L 453.443336 232.519933 
L 454.050408 267.407229 
L 454.252765 269.881711 
L 454.455122 268.395408 
L 454.65748 263.534501 
L 455.062194 245.063068 
L 455.871623 208.833619 
L 456.276337 198.296304 
L 456.681052 192.55473 
L 456.883409 192.314219 
L 457.085766 194.306654 
L 457.288123 197.576903 
L 457.692838 209.596285 
L 458.097552 225.873654 
L 458.906981 264.313512 
L 459.109338 263.911374 
L 459.311695 260.444528 
L 459.71641 246.925489 
L 460.323481 217.83705 
L 460.728196 204.849971 
L 461.13291 197.787016 
L 461.335267 196.052617 
L 461.537625 195.769201 
L 461.942339 200.637676 
L 462.144696 203.963166 
L 462.549411 215.71205 
L 462.954125 234.066444 
L 463.35884 257.487625 
L 463.561197 264.772387 
L 463.763554 266.460689 
L 463.965911 263.757519 
L 464.370626 253.24597 
L 465.382412 210.388668 
L 465.787126 201.672114 
L 465.989483 199.691812 
L 466.19184 198.922785 
L 466.394198 200.178212 
L 466.596555 202.891522 
L 467.001269 213.364098 
L 467.405984 227.721259 
L 468.41777 275.946617 
L 468.620127 275.544274 
L 469.024841 263.270738 
L 470.238985 209.569214 
L 470.643699 201.87129 
L 470.846056 199.670197 
L 471.048413 199.355525 
L 471.250771 201.888311 
L 471.453128 205.887468 
L 472.060199 226.367375 
L 472.464914 250.600815 
L 472.869628 274.566537 
L 473.071985 280.045195 
L 473.274343 280.090407 
L 473.4767 275.287415 
L 473.881414 257.042571 
L 474.690843 214.528386 
L 475.297915 197.151364 
L 475.702629 192.505449 
L 475.904986 193.347218 
L 476.107344 195.754726 
L 476.512058 207.954164 
L 476.916772 222.614912 
L 477.726201 269.746433 
L 477.928558 270.782574 
L 478.130916 267.688886 
L 478.53563 254.032804 
L 479.345059 209.993312 
L 479.952131 190.663563 
L 480.356845 186.385385 
L 480.559202 187.374096 
L 480.963917 193.583959 
L 481.368631 204.701784 
L 481.773345 219.880253 
L 482.380417 255.009369 
L 482.582774 259.430155 
L 482.785131 259.966934 
L 483.189846 252.626753 
L 483.59456 234.366988 
L 484.201632 204.808286 
L 484.606346 193.876828 
L 484.808704 191.14197 
L 485.011061 190.133692 
L 485.213418 190.444787 
L 485.415775 192.55697 
L 485.82049 201.022413 
L 486.427561 220.590918 
L 486.832276 241.849943 
L 487.23699 260.377395 
L 487.439347 262.763854 
L 487.641704 261.347662 
L 488.046419 253.769682 
L 488.65349 226.457829 
L 489.058205 209.446314 
L 489.462919 200.145069 
L 489.665277 197.702991 
L 489.867634 196.613762 
L 490.069991 198.162961 
L 490.474705 207.064045 
L 491.081777 228.947104 
L 492.093563 275.681618 
L 492.29592 276.487788 
L 492.700635 265.004364 
L 493.914778 210.253168 
L 494.319492 202.040676 
L 494.724207 198.140406 
L 494.926564 199.997325 
L 495.128921 204.471149 
L 495.93835 237.387497 
L 496.545422 275.696263 
L 496.747779 280.345141 
L 496.950136 280.490254 
L 497.152493 275.75469 
L 497.35485 268.081859 
L 498.164279 223.001434 
L 498.771351 202.232853 
L 499.176065 194.375508 
L 499.378422 192.692998 
L 499.58078 193.232505 
L 499.783137 195.418737 
L 500.390209 214.904361 
L 500.794923 233.375986 
L 501.199637 261.479432 
L 501.401995 268.717633 
L 501.604352 269.678936 
L 501.806709 266.292048 
L 502.211423 252.085318 
L 503.020852 209.316725 
L 503.627924 190.844 
L 504.032638 186.265269 
L 504.234995 187.334494 
L 504.842067 198.054353 
L 505.449139 219.608016 
L 506.05621 253.401597 
L 506.258568 257.852143 
L 506.460925 258.290681 
L 506.865639 250.385272 
L 507.270354 232.909315 
L 507.877425 204.492525 
L 508.28214 194.215892 
L 508.484497 191.75549 
L 508.686854 191.035766 
L 508.889211 191.604546 
L 509.091568 194.161135 
L 509.69864 207.890672 
L 510.103354 221.950086 
L 511.115141 263.44955 
L 511.317498 261.66426 
L 511.519855 258.614814 
L 511.924569 246.342432 
L 512.733998 210.738977 
L 513.138713 201.422749 
L 513.34107 198.871116 
L 513.543427 198.130826 
L 513.745784 199.734599 
L 513.948141 203.278278 
L 514.555213 222.511085 
L 514.959927 241.646364 
L 515.364642 265.952281 
L 515.566999 275.734859 
L 515.769356 279.166041 
L 515.971714 279.549142 
L 516.376428 266.823848 
L 517.388214 218.024416 
L 517.792928 206.147093 
L 518.197643 199.580257 
L 518.4 198.308118 
L 518.4 198.308118 
" clip-path="url(#p367fc7585e)" style="fill: none; stroke: #2ca02c; stroke-width: 1.5; stroke-linecap: square"/>
   </g>
   <g id="patch_3">
    <path d="M 72 320.4 
L 72 43.2 
" style="fill: none; stroke: #000000; stroke-width: 0.8; stroke-linejoin: miter; stroke-linecap: square"/>
   </g>
   <g id="patch_4">
    <path d="M 518.4 320.4 
L 518.4 43.2 
" style="fill: none; stroke: #000000; stroke-width: 0.8; stroke-linejoin: miter; stroke-linecap: square"/>
   </g>
   <g id="patch_5">
    <path d="M 72 320.4 
L 518.4 320.4 
" style="fill: none; stroke: #000000; stroke-width: 0.8; stroke-linejoin: miter; stroke-linecap: square"/>
   </g>
   <g id="patch_6">
    <path d="M 72 43.2 
L 518.4 43.2 
" style="fill: none; stroke: #000000; stroke-width: 0.8; stroke-linejoin: miter; stroke-linecap: square"/>
   </g>
   <g id="text_13">
    <!-- Classic Transformer - model_20231126163110 -->
    <g transform="translate(155.436563 37.2) scale(0.12 -0.12)">
     <defs>
      <path id="DejaVuSans-43" d="M 4122 4306 
L 4122 3641 
Q 3803 3938 3442 4084 
Q 3081 4231 2675 4231 
Q 1875 4231 1450 3742 
Q 1025 3253 1025 2328 
Q 1025 1406 1450 917 
Q 1875 428 2675 428 
Q 3081 428 3442 575 
Q 3803 722 4122 1019 
L 4122 359 
Q 3791 134 3420 21 
Q 3050 -91 2638 -91 
Q 1578 -91 968 557 
Q 359 1206 359 2328 
Q 359 3453 968 4101 
Q 1578 4750 2638 4750 
Q 3056 4750 3426 4639 
Q 3797 4528 4122 4306 
z
" transform="scale(0.015625)"/>
      <path id="DejaVuSans-6c" d="M 603 4863 
L 1178 4863 
L 1178 0 
L 603 0 
L 603 4863 
z
" transform="scale(0.015625)"/>
      <path id="DejaVuSans-61" d="M 2194 1759 
Q 1497 1759 1228 1600 
Q 959 1441 959 1056 
Q 959 750 1161 570 
Q 1363 391 1709 391 
Q 2188 391 2477 730 
Q 2766 1069 2766 1631 
L 2766 1759 
L 2194 1759 
z
M 3341 1997 
L 3341 0 
L 2766 0 
L 2766 531 
Q 2569 213 2275 61 
Q 1981 -91 1556 -91 
Q 1019 -91 701 211 
Q 384 513 384 1019 
Q 384 1609 779 1909 
Q 1175 2209 1959 2209 
L 2766 2209 
L 2766 2266 
Q 2766 2663 2505 2880 
Q 2244 3097 1772 3097 
Q 1472 3097 1187 3025 
Q 903 2953 641 2809 
L 641 3341 
Q 956 3463 1253 3523 
Q 1550 3584 1831 3584 
Q 2591 3584 2966 3190 
Q 3341 2797 3341 1997 
z
" transform="scale(0.015625)"/>
      <path id="DejaVuSans-73" d="M 2834 3397 
L 2834 2853 
Q 2591 2978 2328 3040 
Q 2066 3103 1784 3103 
Q 1356 3103 1142 2972 
Q 928 2841 928 2578 
Q 928 2378 1081 2264 
Q 1234 2150 1697 2047 
L 1894 2003 
Q 2506 1872 2764 1633 
Q 3022 1394 3022 966 
Q 3022 478 2636 193 
Q 2250 -91 1575 -91 
Q 1294 -91 989 -36 
Q 684 19 347 128 
L 347 722 
Q 666 556 975 473 
Q 1284 391 1588 391 
Q 1994 391 2212 530 
Q 2431 669 2431 922 
Q 2431 1156 2273 1281 
Q 2116 1406 1581 1522 
L 1381 1569 
Q 847 1681 609 1914 
Q 372 2147 372 2553 
Q 372 3047 722 3315 
Q 1072 3584 1716 3584 
Q 2034 3584 2315 3537 
Q 2597 3491 2834 3397 
z
" transform="scale(0.015625)"/>
      <path id="DejaVuSans-69" d="M 603 3500 
L 1178 3500 
L 1178 0 
L 603 0 
L 603 3500 
z
M 603 4863 
L 1178 4863 
L 1178 4134 
L 603 4134 
L 603 4863 
z
" transform="scale(0.015625)"/>
      <path id="DejaVuSans-63" d="M 3122 3366 
L 3122 2828 
Q 2878 2963 2633 3030 
Q 2388 3097 2138 3097 
Q 1578 3097 1268 2742 
Q 959 2388 959 1747 
Q 959 1106 1268 751 
Q 1578 397 2138 397 
Q 2388 397 2633 464 
Q 2878 531 3122 666 
L 3122 134 
Q 2881 22 2623 -34 
Q 2366 -91 2075 -91 
Q 1284 -91 818 406 
Q 353 903 353 1747 
Q 353 2603 823 3093 
Q 1294 3584 2113 3584 
Q 2378 3584 2631 3529 
Q 2884 3475 3122 3366 
z
" transform="scale(0.015625)"/>
      <path id="DejaVuSans-20" transform="scale(0.015625)"/>
      <path id="DejaVuSans-54" d="M -19 4666 
L 3928 4666 
L 3928 4134 
L 2272 4134 
L 2272 0 
L 1638 0 
L 1638 4134 
L -19 4134 
L -19 4666 
z
" transform="scale(0.015625)"/>
      <path id="DejaVuSans-72" d="M 2631 2963 
Q 2534 3019 2420 3045 
Q 2306 3072 2169 3072 
Q 1681 3072 1420 2755 
Q 1159 2438 1159 1844 
L 1159 0 
L 581 0 
L 581 3500 
L 1159 3500 
L 1159 2956 
Q 1341 3275 1631 3429 
Q 1922 3584 2338 3584 
Q 2397 3584 2469 3576 
Q 2541 3569 2628 3553 
L 2631 2963 
z
" transform="scale(0.015625)"/>
      <path id="DejaVuSans-6e" d="M 3513 2113 
L 3513 0 
L 2938 0 
L 2938 2094 
Q 2938 2591 2744 2837 
Q 2550 3084 2163 3084 
Q 1697 3084 1428 2787 
Q 1159 2491 1159 1978 
L 1159 0 
L 581 0 
L 581 3500 
L 1159 3500 
L 1159 2956 
Q 1366 3272 1645 3428 
Q 1925 3584 2291 3584 
Q 2894 3584 3203 3211 
Q 3513 2838 3513 2113 
z
" transform="scale(0.015625)"/>
      <path id="DejaVuSans-66" d="M 2375 4863 
L 2375 4384 
L 1825 4384 
Q 1516 4384 1395 4259 
Q 1275 4134 1275 3809 
L 1275 3500 
L 2222 3500 
L 2222 3053 
L 1275 3053 
L 1275 0 
L 697 0 
L 697 3053 
L 147 3053 
L 147 3500 
L 697 3500 
L 697 3744 
Q 697 4328 969 4595 
Q 1241 4863 1831 4863 
L 2375 4863 
z
" transform="scale(0.015625)"/>
      <path id="DejaVuSans-6f" d="M 1959 3097 
Q 1497 3097 1228 2736 
Q 959 2375 959 1747 
Q 959 1119 1226 758 
Q 1494 397 1959 397 
Q 2419 397 2687 759 
Q 2956 1122 2956 1747 
Q 2956 2369 2687 2733 
Q 2419 3097 1959 3097 
z
M 1959 3584 
Q 2709 3584 3137 3096 
Q 3566 2609 3566 1747 
Q 3566 888 3137 398 
Q 2709 -91 1959 -91 
Q 1206 -91 779 398 
Q 353 888 353 1747 
Q 353 2609 779 3096 
Q 1206 3584 1959 3584 
z
" transform="scale(0.015625)"/>
      <path id="DejaVuSans-6d" d="M 3328 2828 
Q 3544 3216 3844 3400 
Q 4144 3584 4550 3584 
Q 5097 3584 5394 3201 
Q 5691 2819 5691 2113 
L 5691 0 
L 5113 0 
L 5113 2094 
Q 5113 2597 4934 2840 
Q 4756 3084 4391 3084 
Q 3944 3084 3684 2787 
Q 3425 2491 3425 1978 
L 3425 0 
L 2847 0 
L 2847 2094 
Q 2847 2600 2669 2842 
Q 2491 3084 2119 3084 
Q 1678 3084 1418 2786 
Q 1159 2488 1159 1978 
L 1159 0 
L 581 0 
L 581 3500 
L 1159 3500 
L 1159 2956 
Q 1356 3278 1631 3431 
Q 1906 3584 2284 3584 
Q 2666 3584 2933 3390 
Q 3200 3197 3328 2828 
z
" transform="scale(0.015625)"/>
      <path id="DejaVuSans-65" d="M 3597 1894 
L 3597 1613 
L 953 1613 
Q 991 1019 1311 708 
Q 1631 397 2203 397 
Q 2534 397 2845 478 
Q 3156 559 3463 722 
L 3463 178 
Q 3153 47 2828 -22 
Q 2503 -91 2169 -91 
Q 1331 -91 842 396 
Q 353 884 353 1716 
Q 353 2575 817 3079 
Q 1281 3584 2069 3584 
Q 2775 3584 3186 3129 
Q 3597 2675 3597 1894 
z
M 3022 2063 
Q 3016 2534 2758 2815 
Q 2500 3097 2075 3097 
Q 1594 3097 1305 2825 
Q 1016 2553 972 2059 
L 3022 2063 
z
" transform="scale(0.015625)"/>
      <path id="DejaVuSans-64" d="M 2906 2969 
L 2906 4863 
L 3481 4863 
L 3481 0 
L 2906 0 
L 2906 525 
Q 2725 213 2448 61 
Q 2172 -91 1784 -91 
Q 1150 -91 751 415 
Q 353 922 353 1747 
Q 353 2572 751 3078 
Q 1150 3584 1784 3584 
Q 2172 3584 2448 3432 
Q 2725 3281 2906 2969 
z
M 947 1747 
Q 947 1113 1208 752 
Q 1469 391 1925 391 
Q 2381 391 2643 752 
Q 2906 1113 2906 1747 
Q 2906 2381 2643 2742 
Q 2381 3103 1925 3103 
Q 1469 3103 1208 2742 
Q 947 2381 947 1747 
z
" transform="scale(0.015625)"/>
      <path id="DejaVuSans-5f" d="M 3263 -1063 
L 3263 -1509 
L -63 -1509 
L -63 -1063 
L 3263 -1063 
z
" transform="scale(0.015625)"/>
     </defs>
     <use xlink:href="#DejaVuSans-43"/>
     <use xlink:href="#DejaVuSans-6c" x="69.824219"/>
     <use xlink:href="#DejaVuSans-61" x="97.607422"/>
     <use xlink:href="#DejaVuSans-73" x="158.886719"/>
     <use xlink:href="#DejaVuSans-73" x="210.986328"/>
     <use xlink:href="#DejaVuSans-69" x="263.085938"/>
     <use xlink:href="#DejaVuSans-63" x="290.869141"/>
     <use xlink:href="#DejaVuSans-20" x="345.849609"/>
     <use xlink:href="#DejaVuSans-54" x="377.636719"/>
     <use xlink:href="#DejaVuSans-72" x="423.970703"/>
     <use xlink:href="#DejaVuSans-61" x="465.083984"/>
     <use xlink:href="#DejaVuSans-6e" x="526.363281"/>
     <use xlink:href="#DejaVuSans-73" x="589.742188"/>
     <use xlink:href="#DejaVuSans-66" x="641.841797"/>
     <use xlink:href="#DejaVuSans-6f" x="677.046875"/>
     <use xlink:href="#DejaVuSans-72" x="738.228516"/>
     <use xlink:href="#DejaVuSans-6d" x="777.591797"/>
     <use xlink:href="#DejaVuSans-65" x="875.003906"/>
     <use xlink:href="#DejaVuSans-72" x="936.527344"/>
     <use xlink:href="#DejaVuSans-20" x="977.640625"/>
     <use xlink:href="#DejaVuSans-2d" x="1009.427734"/>
     <use xlink:href="#DejaVuSans-20" x="1045.511719"/>
     <use xlink:href="#DejaVuSans-6d" x="1077.298828"/>
     <use xlink:href="#DejaVuSans-6f" x="1174.710938"/>
     <use xlink:href="#DejaVuSans-64" x="1235.892578"/>
     <use xlink:href="#DejaVuSans-65" x="1299.369141"/>
     <use xlink:href="#DejaVuSans-6c" x="1360.892578"/>
     <use xlink:href="#DejaVuSans-5f" x="1388.675781"/>
     <use xlink:href="#DejaVuSans-32" x="1438.675781"/>
     <use xlink:href="#DejaVuSans-30" x="1502.298828"/>
     <use xlink:href="#DejaVuSans-32" x="1565.921875"/>
     <use xlink:href="#DejaVuSans-33" x="1629.544922"/>
     <use xlink:href="#DejaVuSans-31" x="1693.167969"/>
     <use xlink:href="#DejaVuSans-31" x="1756.791016"/>
     <use xlink:href="#DejaVuSans-32" x="1820.414062"/>
     <use xlink:href="#DejaVuSans-36" x="1884.037109"/>
     <use xlink:href="#DejaVuSans-31" x="1947.660156"/>
     <use xlink:href="#DejaVuSans-36" x="2011.283203"/>
     <use xlink:href="#DejaVuSans-33" x="2074.90625"/>
     <use xlink:href="#DejaVuSans-31" x="2138.529297"/>
     <use xlink:href="#DejaVuSans-31" x="2202.152344"/>
     <use xlink:href="#DejaVuSans-30" x="2265.775391"/>
    </g>
   </g>
   <g id="legend_1">
    <g id="patch_7">
     <path d="M 79 95.234375 
L 161.517188 95.234375 
Q 163.517188 95.234375 163.517188 93.234375 
L 163.517188 50.2 
Q 163.517188 48.2 161.517188 48.2 
L 79 48.2 
Q 77 48.2 77 50.2 
L 77 93.234375 
Q 77 95.234375 79 95.234375 
z
" style="fill: #ffffff; opacity: 0.8; stroke: #cccccc; stroke-linejoin: miter"/>
    </g>
    <g id="line2d_16">
     <path d="M 81 56.298437 
L 91 56.298437 
L 101 56.298437 
" style="fill: none; stroke: #1f77b4; stroke-width: 1.5; stroke-linecap: square"/>
    </g>
    <g id="text_14">
     <!-- Measured -->
     <g transform="translate(109 59.798437) scale(0.1 -0.1)">
      <defs>
       <path id="DejaVuSans-4d" d="M 628 4666 
L 1569 4666 
L 2759 1491 
L 3956 4666 
L 4897 4666 
L 4897 0 
L 4281 0 
L 4281 4097 
L 3078 897 
L 2444 897 
L 1241 4097 
L 1241 0 
L 628 0 
L 628 4666 
z
" transform="scale(0.015625)"/>
       <path id="DejaVuSans-75" d="M 544 1381 
L 544 3500 
L 1119 3500 
L 1119 1403 
Q 1119 906 1312 657 
Q 1506 409 1894 409 
Q 2359 409 2629 706 
Q 2900 1003 2900 1516 
L 2900 3500 
L 3475 3500 
L 3475 0 
L 2900 0 
L 2900 538 
Q 2691 219 2414 64 
Q 2138 -91 1772 -91 
Q 1169 -91 856 284 
Q 544 659 544 1381 
z
M 1991 3584 
L 1991 3584 
z
" transform="scale(0.015625)"/>
      </defs>
      <use xlink:href="#DejaVuSans-4d"/>
      <use xlink:href="#DejaVuSans-65" x="86.279297"/>
      <use xlink:href="#DejaVuSans-61" x="147.802734"/>
      <use xlink:href="#DejaVuSans-73" x="209.082031"/>
      <use xlink:href="#DejaVuSans-75" x="261.181641"/>
      <use xlink:href="#DejaVuSans-72" x="324.560547"/>
      <use xlink:href="#DejaVuSans-65" x="363.423828"/>
      <use xlink:href="#DejaVuSans-64" x="424.947266"/>
     </g>
    </g>
    <g id="line2d_17">
     <path d="M 81 70.976562 
L 91 70.976562 
L 101 70.976562 
" style="fill: none; stroke: #ff7f0e; stroke-width: 1.5; stroke-linecap: square"/>
    </g>
    <g id="text_15">
     <!-- Fitted -->
     <g transform="translate(109 74.476562) scale(0.1 -0.1)">
      <defs>
       <path id="DejaVuSans-46" d="M 628 4666 
L 3309 4666 
L 3309 4134 
L 1259 4134 
L 1259 2759 
L 3109 2759 
L 3109 2228 
L 1259 2228 
L 1259 0 
L 628 0 
L 628 4666 
z
" transform="scale(0.015625)"/>
       <path id="DejaVuSans-74" d="M 1172 4494 
L 1172 3500 
L 2356 3500 
L 2356 3053 
L 1172 3053 
L 1172 1153 
Q 1172 725 1289 603 
Q 1406 481 1766 481 
L 2356 481 
L 2356 0 
L 1766 0 
Q 1100 0 847 248 
Q 594 497 594 1153 
L 594 3053 
L 172 3053 
L 172 3500 
L 594 3500 
L 594 4494 
L 1172 4494 
z
" transform="scale(0.015625)"/>
      </defs>
      <use xlink:href="#DejaVuSans-46"/>
      <use xlink:href="#DejaVuSans-69" x="50.269531"/>
      <use xlink:href="#DejaVuSans-74" x="78.052734"/>
      <use xlink:href="#DejaVuSans-74" x="117.261719"/>
      <use xlink:href="#DejaVuSans-65" x="156.470703"/>
      <use xlink:href="#DejaVuSans-64" x="217.994141"/>
     </g>
    </g>
    <g id="line2d_18">
     <path d="M 81 85.654687 
L 91 85.654687 
L 101 85.654687 
" style="fill: none; stroke: #2ca02c; stroke-width: 1.5; stroke-linecap: square"/>
    </g>
    <g id="text_16">
     <!-- Estimated -->
     <g transform="translate(109 89.154687) scale(0.1 -0.1)">
      <defs>
       <path id="DejaVuSans-45" d="M 628 4666 
L 3578 4666 
L 3578 4134 
L 1259 4134 
L 1259 2753 
L 3481 2753 
L 3481 2222 
L 1259 2222 
L 1259 531 
L 3634 531 
L 3634 0 
L 628 0 
L 628 4666 
z
" transform="scale(0.015625)"/>
      </defs>
      <use xlink:href="#DejaVuSans-45"/>
      <use xlink:href="#DejaVuSans-73" x="63.183594"/>
      <use xlink:href="#DejaVuSans-74" x="115.283203"/>
      <use xlink:href="#DejaVuSans-69" x="154.492188"/>
      <use xlink:href="#DejaVuSans-6d" x="182.275391"/>
      <use xlink:href="#DejaVuSans-61" x="279.6875"/>
      <use xlink:href="#DejaVuSans-74" x="340.966797"/>
      <use xlink:href="#DejaVuSans-65" x="380.175781"/>
      <use xlink:href="#DejaVuSans-64" x="441.699219"/>
     </g>
    </g>
   </g>
  </g>
 </g>
 <defs>
  <clipPath id="p367fc7585e">
   <rect x="72" y="43.2" width="446.4" height="277.2"/>
  </clipPath>
 </defs>
</svg>
