<?xml version="1.0" encoding="utf-8" standalone="no"?>
<!DOCTYPE svg PUBLIC "-//W3C//DTD SVG 1.1//EN"
  "http://www.w3.org/Graphics/SVG/1.1/DTD/svg11.dtd">
<svg xmlns:xlink="http://www.w3.org/1999/xlink" width="576pt" height="360pt" viewBox="0 0 576 360" xmlns="http://www.w3.org/2000/svg" version="1.1">
 <metadata>
  <rdf:RDF xmlns:dc="http://purl.org/dc/elements/1.1/" xmlns:cc="http://creativecommons.org/ns#" xmlns:rdf="http://www.w3.org/1999/02/22-rdf-syntax-ns#">
   <cc:Work>
    <dc:type rdf:resource="http://purl.org/dc/dcmitype/StillImage"/>
    <dc:date>2023-11-23T16:31:36.472461</dc:date>
    <dc:format>image/svg+xml</dc:format>
    <dc:creator>
     <cc:Agent>
      <dc:title>Matplotlib v3.8.1, https://matplotlib.org/</dc:title>
     </cc:Agent>
    </dc:creator>
   </cc:Work>
  </rdf:RDF>
 </metadata>
 <defs>
  <style type="text/css">*{stroke-linejoin: round; stroke-linecap: butt}</style>
 </defs>
 <g id="figure_1">
  <g id="patch_1">
   <path d="M 0 360 
L 576 360 
L 576 0 
L 0 0 
z
" style="fill: #ffffff"/>
  </g>
  <g id="axes_1">
   <g id="patch_2">
    <path d="M 72 320.4 
L 518.4 320.4 
L 518.4 43.2 
L 72 43.2 
z
" style="fill: #ffffff"/>
   </g>
   <g id="matplotlib.axis_1">
    <g id="xtick_1">
     <g id="line2d_1">
      <defs>
       <path id="mb91fa9fefb" d="M 0 0 
L 0 3.5 
" style="stroke: #000000; stroke-width: 0.8"/>
      </defs>
      <g>
       <use xlink:href="#mb91fa9fefb" x="129.874161" y="320.4" style="stroke: #000000; stroke-width: 0.8"/>
      </g>
     </g>
     <g id="text_1">
      <!-- 2020-05-15 -->
      <g transform="translate(100.816349 334.998438) scale(0.1 -0.1)">
       <defs>
        <path id="DejaVuSans-32" d="M 1228 531 
L 3431 531 
L 3431 0 
L 469 0 
L 469 531 
Q 828 903 1448 1529 
Q 2069 2156 2228 2338 
Q 2531 2678 2651 2914 
Q 2772 3150 2772 3378 
Q 2772 3750 2511 3984 
Q 2250 4219 1831 4219 
Q 1534 4219 1204 4116 
Q 875 4013 500 3803 
L 500 4441 
Q 881 4594 1212 4672 
Q 1544 4750 1819 4750 
Q 2544 4750 2975 4387 
Q 3406 4025 3406 3419 
Q 3406 3131 3298 2873 
Q 3191 2616 2906 2266 
Q 2828 2175 2409 1742 
Q 1991 1309 1228 531 
z
" transform="scale(0.015625)"/>
        <path id="DejaVuSans-30" d="M 2034 4250 
Q 1547 4250 1301 3770 
Q 1056 3291 1056 2328 
Q 1056 1369 1301 889 
Q 1547 409 2034 409 
Q 2525 409 2770 889 
Q 3016 1369 3016 2328 
Q 3016 3291 2770 3770 
Q 2525 4250 2034 4250 
z
M 2034 4750 
Q 2819 4750 3233 4129 
Q 3647 3509 3647 2328 
Q 3647 1150 3233 529 
Q 2819 -91 2034 -91 
Q 1250 -91 836 529 
Q 422 1150 422 2328 
Q 422 3509 836 4129 
Q 1250 4750 2034 4750 
z
" transform="scale(0.015625)"/>
        <path id="DejaVuSans-2d" d="M 313 2009 
L 1997 2009 
L 1997 1497 
L 313 1497 
L 313 2009 
z
" transform="scale(0.015625)"/>
        <path id="DejaVuSans-35" d="M 691 4666 
L 3169 4666 
L 3169 4134 
L 1269 4134 
L 1269 2991 
Q 1406 3038 1543 3061 
Q 1681 3084 1819 3084 
Q 2600 3084 3056 2656 
Q 3513 2228 3513 1497 
Q 3513 744 3044 326 
Q 2575 -91 1722 -91 
Q 1428 -91 1123 -41 
Q 819 9 494 109 
L 494 744 
Q 775 591 1075 516 
Q 1375 441 1709 441 
Q 2250 441 2565 725 
Q 2881 1009 2881 1497 
Q 2881 1984 2565 2268 
Q 2250 2553 1709 2553 
Q 1456 2553 1204 2497 
Q 953 2441 691 2322 
L 691 4666 
z
" transform="scale(0.015625)"/>
        <path id="DejaVuSans-31" d="M 794 531 
L 1825 531 
L 1825 4091 
L 703 3866 
L 703 4441 
L 1819 4666 
L 2450 4666 
L 2450 531 
L 3481 531 
L 3481 0 
L 794 0 
L 794 531 
z
" transform="scale(0.015625)"/>
       </defs>
       <use xlink:href="#DejaVuSans-32"/>
       <use xlink:href="#DejaVuSans-30" x="63.623047"/>
       <use xlink:href="#DejaVuSans-32" x="127.246094"/>
       <use xlink:href="#DejaVuSans-30" x="190.869141"/>
       <use xlink:href="#DejaVuSans-2d" x="254.492188"/>
       <use xlink:href="#DejaVuSans-30" x="290.576172"/>
       <use xlink:href="#DejaVuSans-35" x="354.199219"/>
       <use xlink:href="#DejaVuSans-2d" x="417.822266"/>
       <use xlink:href="#DejaVuSans-31" x="453.90625"/>
       <use xlink:href="#DejaVuSans-35" x="517.529297"/>
      </g>
     </g>
    </g>
    <g id="xtick_2">
     <g id="line2d_2">
      <g>
       <use xlink:href="#mb91fa9fefb" x="212.435902" y="320.4" style="stroke: #000000; stroke-width: 0.8"/>
      </g>
     </g>
     <g id="text_2">
      <!-- 2020-06-01 -->
      <g transform="translate(183.37809 334.998438) scale(0.1 -0.1)">
       <defs>
        <path id="DejaVuSans-36" d="M 2113 2584 
Q 1688 2584 1439 2293 
Q 1191 2003 1191 1497 
Q 1191 994 1439 701 
Q 1688 409 2113 409 
Q 2538 409 2786 701 
Q 3034 994 3034 1497 
Q 3034 2003 2786 2293 
Q 2538 2584 2113 2584 
z
M 3366 4563 
L 3366 3988 
Q 3128 4100 2886 4159 
Q 2644 4219 2406 4219 
Q 1781 4219 1451 3797 
Q 1122 3375 1075 2522 
Q 1259 2794 1537 2939 
Q 1816 3084 2150 3084 
Q 2853 3084 3261 2657 
Q 3669 2231 3669 1497 
Q 3669 778 3244 343 
Q 2819 -91 2113 -91 
Q 1303 -91 875 529 
Q 447 1150 447 2328 
Q 447 3434 972 4092 
Q 1497 4750 2381 4750 
Q 2619 4750 2861 4703 
Q 3103 4656 3366 4563 
z
" transform="scale(0.015625)"/>
       </defs>
       <use xlink:href="#DejaVuSans-32"/>
       <use xlink:href="#DejaVuSans-30" x="63.623047"/>
       <use xlink:href="#DejaVuSans-32" x="127.246094"/>
       <use xlink:href="#DejaVuSans-30" x="190.869141"/>
       <use xlink:href="#DejaVuSans-2d" x="254.492188"/>
       <use xlink:href="#DejaVuSans-30" x="290.576172"/>
       <use xlink:href="#DejaVuSans-36" x="354.199219"/>
       <use xlink:href="#DejaVuSans-2d" x="417.822266"/>
       <use xlink:href="#DejaVuSans-30" x="453.90625"/>
       <use xlink:href="#DejaVuSans-31" x="517.529297"/>
      </g>
     </g>
    </g>
    <g id="xtick_3">
     <g id="line2d_3">
      <g>
       <use xlink:href="#mb91fa9fefb" x="280.427924" y="320.4" style="stroke: #000000; stroke-width: 0.8"/>
      </g>
     </g>
     <g id="text_3">
      <!-- 2020-06-15 -->
      <g transform="translate(251.370111 334.998438) scale(0.1 -0.1)">
       <use xlink:href="#DejaVuSans-32"/>
       <use xlink:href="#DejaVuSans-30" x="63.623047"/>
       <use xlink:href="#DejaVuSans-32" x="127.246094"/>
       <use xlink:href="#DejaVuSans-30" x="190.869141"/>
       <use xlink:href="#DejaVuSans-2d" x="254.492188"/>
       <use xlink:href="#DejaVuSans-30" x="290.576172"/>
       <use xlink:href="#DejaVuSans-36" x="354.199219"/>
       <use xlink:href="#DejaVuSans-2d" x="417.822266"/>
       <use xlink:href="#DejaVuSans-31" x="453.90625"/>
       <use xlink:href="#DejaVuSans-35" x="517.529297"/>
      </g>
     </g>
    </g>
    <g id="xtick_4">
     <g id="line2d_4">
      <g>
       <use xlink:href="#mb91fa9fefb" x="358.133092" y="320.4" style="stroke: #000000; stroke-width: 0.8"/>
      </g>
     </g>
     <g id="text_4">
      <!-- 2020-07-01 -->
      <g transform="translate(329.075279 334.998438) scale(0.1 -0.1)">
       <defs>
        <path id="DejaVuSans-37" d="M 525 4666 
L 3525 4666 
L 3525 4397 
L 1831 0 
L 1172 0 
L 2766 4134 
L 525 4134 
L 525 4666 
z
" transform="scale(0.015625)"/>
       </defs>
       <use xlink:href="#DejaVuSans-32"/>
       <use xlink:href="#DejaVuSans-30" x="63.623047"/>
       <use xlink:href="#DejaVuSans-32" x="127.246094"/>
       <use xlink:href="#DejaVuSans-30" x="190.869141"/>
       <use xlink:href="#DejaVuSans-2d" x="254.492188"/>
       <use xlink:href="#DejaVuSans-30" x="290.576172"/>
       <use xlink:href="#DejaVuSans-37" x="354.199219"/>
       <use xlink:href="#DejaVuSans-2d" x="417.822266"/>
       <use xlink:href="#DejaVuSans-30" x="453.90625"/>
       <use xlink:href="#DejaVuSans-31" x="517.529297"/>
      </g>
     </g>
    </g>
    <g id="xtick_5">
     <g id="line2d_5">
      <g>
       <use xlink:href="#mb91fa9fefb" x="426.125113" y="320.4" style="stroke: #000000; stroke-width: 0.8"/>
      </g>
     </g>
     <g id="text_5">
      <!-- 2020-07-15 -->
      <g transform="translate(397.067301 334.998438) scale(0.1 -0.1)">
       <use xlink:href="#DejaVuSans-32"/>
       <use xlink:href="#DejaVuSans-30" x="63.623047"/>
       <use xlink:href="#DejaVuSans-32" x="127.246094"/>
       <use xlink:href="#DejaVuSans-30" x="190.869141"/>
       <use xlink:href="#DejaVuSans-2d" x="254.492188"/>
       <use xlink:href="#DejaVuSans-30" x="290.576172"/>
       <use xlink:href="#DejaVuSans-37" x="354.199219"/>
       <use xlink:href="#DejaVuSans-2d" x="417.822266"/>
       <use xlink:href="#DejaVuSans-31" x="453.90625"/>
       <use xlink:href="#DejaVuSans-35" x="517.529297"/>
      </g>
     </g>
    </g>
    <g id="xtick_6">
     <g id="line2d_6">
      <g>
       <use xlink:href="#mb91fa9fefb" x="508.686854" y="320.4" style="stroke: #000000; stroke-width: 0.8"/>
      </g>
     </g>
     <g id="text_6">
      <!-- 2020-08-01 -->
      <g transform="translate(479.629042 334.998438) scale(0.1 -0.1)">
       <defs>
        <path id="DejaVuSans-38" d="M 2034 2216 
Q 1584 2216 1326 1975 
Q 1069 1734 1069 1313 
Q 1069 891 1326 650 
Q 1584 409 2034 409 
Q 2484 409 2743 651 
Q 3003 894 3003 1313 
Q 3003 1734 2745 1975 
Q 2488 2216 2034 2216 
z
M 1403 2484 
Q 997 2584 770 2862 
Q 544 3141 544 3541 
Q 544 4100 942 4425 
Q 1341 4750 2034 4750 
Q 2731 4750 3128 4425 
Q 3525 4100 3525 3541 
Q 3525 3141 3298 2862 
Q 3072 2584 2669 2484 
Q 3125 2378 3379 2068 
Q 3634 1759 3634 1313 
Q 3634 634 3220 271 
Q 2806 -91 2034 -91 
Q 1263 -91 848 271 
Q 434 634 434 1313 
Q 434 1759 690 2068 
Q 947 2378 1403 2484 
z
M 1172 3481 
Q 1172 3119 1398 2916 
Q 1625 2713 2034 2713 
Q 2441 2713 2670 2916 
Q 2900 3119 2900 3481 
Q 2900 3844 2670 4047 
Q 2441 4250 2034 4250 
Q 1625 4250 1398 4047 
Q 1172 3844 1172 3481 
z
" transform="scale(0.015625)"/>
       </defs>
       <use xlink:href="#DejaVuSans-32"/>
       <use xlink:href="#DejaVuSans-30" x="63.623047"/>
       <use xlink:href="#DejaVuSans-32" x="127.246094"/>
       <use xlink:href="#DejaVuSans-30" x="190.869141"/>
       <use xlink:href="#DejaVuSans-2d" x="254.492188"/>
       <use xlink:href="#DejaVuSans-30" x="290.576172"/>
       <use xlink:href="#DejaVuSans-38" x="354.199219"/>
       <use xlink:href="#DejaVuSans-2d" x="417.822266"/>
       <use xlink:href="#DejaVuSans-30" x="453.90625"/>
       <use xlink:href="#DejaVuSans-31" x="517.529297"/>
      </g>
     </g>
    </g>
   </g>
   <g id="matplotlib.axis_2">
    <g id="ytick_1">
     <g id="line2d_7">
      <defs>
       <path id="m856c06198a" d="M 0 0 
L -3.5 0 
" style="stroke: #000000; stroke-width: 0.8"/>
      </defs>
      <g>
       <use xlink:href="#m856c06198a" x="72" y="316.02311" style="stroke: #000000; stroke-width: 0.8"/>
      </g>
     </g>
     <g id="text_7">
      <!-- −2 -->
      <g transform="translate(50.257812 319.822329) scale(0.1 -0.1)">
       <defs>
        <path id="DejaVuSans-2212" d="M 678 2272 
L 4684 2272 
L 4684 1741 
L 678 1741 
L 678 2272 
z
" transform="scale(0.015625)"/>
       </defs>
       <use xlink:href="#DejaVuSans-2212"/>
       <use xlink:href="#DejaVuSans-32" x="83.789062"/>
      </g>
     </g>
    </g>
    <g id="ytick_2">
     <g id="line2d_8">
      <g>
       <use xlink:href="#m856c06198a" x="72" y="262.270962" style="stroke: #000000; stroke-width: 0.8"/>
      </g>
     </g>
     <g id="text_8">
      <!-- −1 -->
      <g transform="translate(50.257812 266.070181) scale(0.1 -0.1)">
       <use xlink:href="#DejaVuSans-2212"/>
       <use xlink:href="#DejaVuSans-31" x="83.789062"/>
      </g>
     </g>
    </g>
    <g id="ytick_3">
     <g id="line2d_9">
      <g>
       <use xlink:href="#m856c06198a" x="72" y="208.518814" style="stroke: #000000; stroke-width: 0.8"/>
      </g>
     </g>
     <g id="text_9">
      <!-- 0 -->
      <g transform="translate(58.6375 212.318032) scale(0.1 -0.1)">
       <use xlink:href="#DejaVuSans-30"/>
      </g>
     </g>
    </g>
    <g id="ytick_4">
     <g id="line2d_10">
      <g>
       <use xlink:href="#m856c06198a" x="72" y="154.766666" style="stroke: #000000; stroke-width: 0.8"/>
      </g>
     </g>
     <g id="text_10">
      <!-- 1 -->
      <g transform="translate(58.6375 158.565884) scale(0.1 -0.1)">
       <use xlink:href="#DejaVuSans-31"/>
      </g>
     </g>
    </g>
    <g id="ytick_5">
     <g id="line2d_11">
      <g>
       <use xlink:href="#m856c06198a" x="72" y="101.014518" style="stroke: #000000; stroke-width: 0.8"/>
      </g>
     </g>
     <g id="text_11">
      <!-- 2 -->
      <g transform="translate(58.6375 104.813736) scale(0.1 -0.1)">
       <use xlink:href="#DejaVuSans-32"/>
      </g>
     </g>
    </g>
    <g id="ytick_6">
     <g id="line2d_12">
      <g>
       <use xlink:href="#m856c06198a" x="72" y="47.262369" style="stroke: #000000; stroke-width: 0.8"/>
      </g>
     </g>
     <g id="text_12">
      <!-- 3 -->
      <g transform="translate(58.6375 51.061588) scale(0.1 -0.1)">
       <defs>
        <path id="DejaVuSans-33" d="M 2597 2516 
Q 3050 2419 3304 2112 
Q 3559 1806 3559 1356 
Q 3559 666 3084 287 
Q 2609 -91 1734 -91 
Q 1441 -91 1130 -33 
Q 819 25 488 141 
L 488 750 
Q 750 597 1062 519 
Q 1375 441 1716 441 
Q 2309 441 2620 675 
Q 2931 909 2931 1356 
Q 2931 1769 2642 2001 
Q 2353 2234 1838 2234 
L 1294 2234 
L 1294 2753 
L 1863 2753 
Q 2328 2753 2575 2939 
Q 2822 3125 2822 3475 
Q 2822 3834 2567 4026 
Q 2313 4219 1838 4219 
Q 1578 4219 1281 4162 
Q 984 4106 628 3988 
L 628 4550 
Q 988 4650 1302 4700 
Q 1616 4750 1894 4750 
Q 2613 4750 3031 4423 
Q 3450 4097 3450 3541 
Q 3450 3153 3228 2886 
Q 3006 2619 2597 2516 
z
" transform="scale(0.015625)"/>
       </defs>
       <use xlink:href="#DejaVuSans-33"/>
      </g>
     </g>
    </g>
   </g>
   <g id="line2d_13">
    <path d="M 72 287.021497 
L 72.404714 298.412757 
L 72.607072 296.682973 
L 72.809429 285.96675 
L 73.214143 254.915018 
L 73.618858 242.426821 
L 75.035358 159.101858 
L 75.237715 156.127474 
L 75.440073 161.211351 
L 75.64243 169.459468 
L 75.844787 172.771371 
L 76.047144 188.086288 
L 76.654216 258.669915 
L 77.05893 282.844701 
L 77.261287 287.232446 
L 77.463645 286.852737 
L 77.666002 276.094324 
L 78.070716 247.468508 
L 78.475431 234.938122 
L 78.677788 225.761828 
L 79.487217 168.510196 
L 79.891931 152.161627 
L 80.094288 154.123456 
L 80.903717 196.735208 
L 81.713146 272.423807 
L 82.11786 287.148066 
L 82.320218 289.194274 
L 82.522575 288.898945 
L 82.724932 286.367554 
L 82.927289 279.511703 
L 83.332004 256.412757 
L 83.736718 242.026017 
L 83.939075 238.967253 
L 84.141432 239.241487 
L 84.546147 245.675439 
L 84.748504 247.784932 
L 84.950861 247.806027 
L 85.355576 252.025013 
L 85.557933 248.670919 
L 85.76029 254.830638 
L 86.569719 300.015972 
L 86.772076 306.133501 
L 86.974433 307.736715 
L 87.176791 307.8 
L 87.379148 306.449925 
L 87.581505 302.695028 
L 87.783862 295.902461 
L 88.188577 273.731693 
L 88.390934 268.521246 
L 89.200363 260.399699 
L 89.40272 256.243998 
L 89.807434 241.372074 
L 90.212149 238.903968 
L 90.414506 236.182722 
L 90.616863 244.1777 
L 91.223935 295.037569 
L 91.628649 306.133501 
L 91.831006 306.196786 
L 92.033364 303.686489 
L 92.842792 257.277649 
L 93.04515 255.125967 
L 93.449864 246.477047 
L 93.652221 245.949674 
L 93.854578 242.996384 
L 94.056936 242.363536 
L 94.259293 239.72667 
L 94.46165 233.292717 
L 94.664007 230.423807 
L 94.866364 231.351984 
L 95.068722 234.516223 
L 95.271079 230.655851 
L 95.473436 240.823606 
L 96.080508 295.417278 
L 96.485222 304.677951 
L 96.687579 306.597589 
L 96.889937 302.230939 
L 97.699365 256.539327 
L 98.306437 245.970768 
L 98.508794 245.59106 
L 99.52058 224.242993 
L 99.722937 225.508689 
L 99.925295 229.896434 
L 100.127652 228.061175 
L 100.330009 238.27112 
L 100.937081 292.928076 
L 101.341795 305.268609 
L 101.544152 306.26007 
L 101.74651 302.526268 
L 101.948867 290.50216 
L 102.353581 260.294224 
L 102.555938 258.733199 
L 103.567724 240.844701 
L 104.377153 218.610648 
L 104.57951 219.897438 
L 104.781868 225.318835 
L 104.984225 225.29774 
L 105.186582 234.241989 
L 105.793654 289.763837 
L 106.198368 302.589553 
L 106.400725 304.361527 
L 106.603083 300.311301 
L 107.412511 254.11341 
L 107.614869 252.383626 
L 107.817226 248.692014 
L 108.22194 234.07323 
L 108.626655 212.23998 
L 108.829012 206.270116 
L 109.031369 204.371572 
L 109.638441 213.104872 
L 109.840798 218.568458 
L 110.043155 229.031542 
L 110.650227 284.405726 
L 111.054941 298.750276 
L 111.257298 300.669915 
L 111.459655 298.919036 
L 111.662013 287.443395 
L 112.066727 258.015972 
L 112.471442 242.933099 
L 113.887942 174.121447 
L 114.090299 171.73772 
L 114.292656 178.593571 
L 114.495014 190.090306 
L 114.697371 194.710095 
L 115.102085 228.926067 
L 115.709157 278.583526 
L 116.113871 292.611652 
L 116.316228 292.780412 
L 116.518586 291.113913 
L 116.720943 287.46449 
L 117.125657 260.06218 
L 118.542158 154.777398 
L 118.744515 144.609643 
L 118.946872 140.707082 
L 119.149229 144.398694 
L 119.756301 182.496133 
L 120.56573 262.319337 
L 120.970444 282.254043 
L 121.172801 286.367554 
L 121.375159 288.012958 
L 121.577516 286.557408 
L 121.779873 278.583526 
L 122.589302 227.280663 
L 123.196374 201.671421 
L 123.398731 197.072727 
L 123.601088 197.283677 
L 123.803445 196.714114 
L 124.410517 210.193772 
L 124.612874 221.226419 
L 125.219946 277.845203 
L 125.62466 292.463988 
L 125.827017 294.468006 
L 126.029374 291.91552 
L 127.04116 235.191261 
L 127.648232 197.557911 
L 128.255304 154.925063 
L 128.457661 147.330889 
L 128.660018 146.99337 
L 129.26709 191.588046 
L 130.278876 282.971271 
L 130.481233 290.839679 
L 130.68359 292.231944 
L 130.885947 289.637268 
L 132.504805 180.070216 
L 133.111877 137.142039 
L 133.314234 127.670417 
L 133.516591 129.379106 
L 133.921306 144.841688 
L 134.123663 152.309292 
L 135.135449 262.84671 
L 135.540163 275.545856 
L 135.74252 274.596585 
L 135.944878 263.943646 
L 136.349592 232.343446 
L 136.551949 225.529784 
L 136.754306 213.590055 
L 136.956664 218.188749 
L 137.159021 206.818584 
L 137.766092 197.937619 
L 137.96845 198.338423 
L 138.373164 192.895932 
L 138.777879 200.490105 
L 138.980236 201.333903 
L 139.182593 213.210347 
L 139.789665 270.187745 
L 140.194379 285.650326 
L 140.396736 287.738724 
L 140.599093 284.701055 
L 141.003808 254.303265 
L 141.408522 232.997388 
L 142.015594 219.51773 
L 142.622665 210.320342 
L 142.825023 210.046107 
L 143.02738 208.822602 
L 143.229737 209.518734 
L 143.634451 214.834656 
L 143.836809 213.590055 
L 144.039166 223.84219 
L 144.646238 273.499648 
L 145.050952 285.671421 
L 145.253309 286.979307 
L 145.455666 283.815068 
L 145.860381 253.965746 
L 146.062738 237.406228 
L 146.66981 220.825615 
L 146.872167 218.125465 
L 147.074524 217.028528 
L 147.479238 205.848217 
L 147.681596 214.370568 
L 147.883953 215.362029 
L 148.08631 217.998895 
L 148.491024 227.386138 
L 148.693382 226.014967 
L 149.098096 249.83114 
L 149.502811 278.203817 
L 149.907525 291.430337 
L 150.109882 293.518734 
L 150.312239 292.928076 
L 150.514597 290.059166 
L 150.716954 284.258061 
L 151.121668 263.036565 
L 151.526383 242.194776 
L 151.931097 236.288197 
L 152.133454 235.845203 
L 152.335811 237.849221 
L 152.538169 238.376595 
L 152.740526 236.288197 
L 152.942883 236.583526 
L 153.14524 235.592064 
L 153.347597 235.634254 
L 153.549955 232.659869 
L 153.752312 234.895932 
L 154.764098 287.253541 
L 154.966455 291.282672 
L 155.168812 292.696032 
L 155.573527 288.687996 
L 155.775884 277.423305 
L 156.78767 198.127474 
L 157.799456 154.756303 
L 158.001813 156.802511 
L 158.406528 170.23998 
L 158.608885 184.036062 
L 159.215956 253.881366 
L 159.620671 275.86228 
L 159.823028 279.131994 
L 160.025385 278.203817 
L 160.227743 268.225917 
L 160.632457 235.191261 
L 161.8466 183.993872 
L 162.251315 173.762833 
L 162.453672 173.910497 
L 162.656029 176.821597 
L 163.465458 209.20231 
L 164.072529 270.12446 
L 164.477244 289.067705 
L 164.679601 289.405224 
L 164.881958 286.114415 
L 165.084316 275.777901 
L 165.48903 243.439377 
L 166.500816 207.725665 
L 167.310245 164.038071 
L 167.512602 167.45545 
L 167.917316 188.402712 
L 168.119674 192.938122 
L 168.322031 204.498142 
L 168.929102 264.977298 
L 169.333817 280.439879 
L 169.536174 284.026017 
L 169.738531 280.292215 
L 170.143246 252.510196 
L 170.54796 221.648317 
L 171.357389 176.273129 
L 171.559746 170.134505 
L 172.166818 145.49563 
L 172.369175 147.141035 
L 172.571532 155.199297 
L 173.178604 194.878855 
L 173.785675 267.25555 
L 174.19039 287.000402 
L 174.392747 290.038071 
L 174.595104 288.181718 
L 174.999819 263.542843 
L 175.404533 238.081266 
L 177.023391 158.405726 
L 177.225748 158.933099 
L 177.428105 162.92004 
L 177.630462 179.817077 
L 177.83282 182.306278 
L 178.237534 227.238473 
L 178.642248 270.947162 
L 179.046963 290.50216 
L 179.24932 294.299247 
L 179.451677 291.725665 
L 179.654034 282.865796 
L 180.261106 242.258061 
L 181.879964 143.449422 
L 182.082321 140.116424 
L 182.284678 145.896434 
L 183.094107 203.316826 
L 183.498821 243.080763 
L 183.903536 264.956203 
L 184.30825 272.95118 
L 184.510607 274.343446 
L 184.712965 270.630738 
L 184.915322 256.98232 
L 185.724751 173.340934 
L 186.129465 151.52878 
L 186.331822 145.347966 
L 186.53418 144.567454 
L 186.736537 147.16213 
L 187.748323 188.423807 
L 188.557752 253.923556 
L 188.962466 268.394676 
L 189.164823 270.483074 
L 189.36718 270.567454 
L 189.569538 269.808036 
L 189.771895 258.796484 
L 190.986038 160.810547 
L 191.188395 155.389151 
L 191.390752 155.346961 
L 191.795467 164.692014 
L 192.604896 196.671924 
L 193.414325 261.370065 
L 193.819039 275.377097 
L 194.021396 276.474033 
L 194.426111 272.423807 
L 194.628468 263.268609 
L 195.437897 201.017479 
L 195.640254 195.891411 
L 195.842611 197.136012 
L 196.247325 203.337921 
L 196.449683 203.928579 
L 196.65204 203.527775 
L 197.056754 211.923556 
L 197.259112 212.788448 
L 197.461469 221.395178 
L 198.06854 270.841688 
L 198.473255 285.354997 
L 198.675612 285.460472 
L 198.877969 281.72667 
L 199.282684 250.231944 
L 199.687398 226.879859 
L 201.306256 158.933099 
L 201.508613 157.751783 
L 202.115684 177.39116 
L 202.318042 188.803516 
L 202.925113 254.366549 
L 203.329828 272.423807 
L 203.532185 274.57549 
L 203.734542 271.516725 
L 203.936899 259.724661 
L 204.341614 224.939126 
L 205.758114 168.995379 
L 205.960471 166.442893 
L 206.162829 166.590558 
L 206.365186 168.046107 
L 206.7699 180.175691 
L 206.972257 183.445404 
L 207.174615 194.541336 
L 207.781686 254.978302 
L 208.186401 271.516725 
L 208.388758 274.638774 
L 208.591115 271.221396 
L 208.793472 259.070718 
L 209.198187 224.475038 
L 209.805258 201.671421 
L 210.209973 181.314817 
L 210.817044 138.639779 
L 211.019402 129.948669 
L 211.221759 132.986339 
L 211.626473 158.047112 
L 211.82883 163.384129 
L 212.031188 178.467002 
L 212.638259 245.063687 
L 213.042974 264.091311 
L 213.245331 268.183727 
L 213.447688 266.432848 
L 213.650045 255.463486 
L 214.257117 211.164139 
L 214.661831 184.183727 
L 215.47126 123.409242 
L 215.875975 106.280161 
L 216.078332 105.794977 
L 216.280689 111.469513 
L 217.090118 176.779407 
L 217.697189 240.190758 
L 218.101904 259.091813 
L 218.304261 262.530286 
L 218.506618 263.922551 
L 218.708976 262.635761 
L 218.911333 249.599096 
L 219.518404 193.48659 
L 220.125476 157.435359 
L 220.327833 155.220392 
L 220.53019 157.498644 
L 221.541976 200.827624 
L 221.744334 206.101356 
L 222.553762 264.365545 
L 222.958477 275.503666 
L 223.160834 277.254545 
L 223.363191 277.613159 
L 223.565549 276.009945 
L 223.767906 267.086791 
L 224.374977 227.955701 
L 224.779692 220.192767 
L 225.386763 222.30226 
L 225.589121 225.909493 
L 225.791478 226.816575 
L 226.196192 235.40221 
L 226.398549 235.043596 
L 226.600907 241.625213 
L 227.410335 296.535309 
L 227.612693 300.669915 
L 227.81505 302.399699 
L 228.017407 299.129985 
L 228.826836 255.505676 
L 229.029193 253.121949 
L 229.23155 247.236464 
L 230.648051 182.285183 
L 230.850408 182.875841 
L 231.255122 197.64229 
L 231.45748 208.801507 
L 232.064551 274.027022 
L 232.469266 291.620191 
L 232.671623 294.404721 
L 232.87398 293.160121 
L 233.278694 267.25555 
L 233.683409 244.1777 
L 235.302267 178.024008 
L 235.504624 177.412255 
L 236.111695 196.988348 
L 236.314053 207.599096 
L 236.921124 271.242491 
L 237.325839 287.50668 
L 237.528196 290.713109 
L 237.730553 288.540331 
L 238.135267 264.006931 
L 238.539982 241.688498 
L 239.349411 210.003918 
L 239.754125 199.751783 
L 240.15884 189.288699 
L 240.361197 189.03556 
L 240.563554 194.625716 
L 240.968268 212.661878 
L 241.170626 220.424812 
L 241.777697 277.31783 
L 242.182412 293.560924 
L 242.384769 296.11341 
L 242.587126 293.054646 
L 242.99184 267.740733 
L 243.396555 249.345957 
L 245.21777 172.876846 
L 245.420127 177.222401 
L 246.027199 204.666901 
L 246.836627 279.933601 
L 247.038985 288.498142 
L 247.241342 291.74676 
L 247.443699 289.152084 
L 247.848413 265.019488 
L 249.467271 150.305274 
L 249.669628 142.036062 
L 249.871985 140.053139 
L 250.074343 140.221899 
L 250.2767 147.330889 
L 250.883772 180.21788 
L 251.6932 257.003415 
L 252.097915 271.875339 
L 252.300272 275.018483 
L 252.502629 275.292717 
L 252.704986 271.326871 
L 253.109701 237.785937 
L 253.91913 162.814566 
L 254.323844 146.634756 
L 254.728558 137.606128 
L 254.930916 136.319337 
L 255.133273 143.997891 
L 255.740345 182.369563 
L 256.549773 259.387142 
L 256.954488 275.229432 
L 257.156845 279.131994 
L 257.359202 280.840683 
L 257.561559 279.849221 
L 257.966274 250.274134 
L 258.573345 198.675942 
L 258.97806 176.484078 
L 259.382774 165.198292 
L 259.585131 161.675439 
L 259.787489 161.232446 
L 259.989846 163.911502 
L 260.39456 180.281165 
L 260.596917 193.950678 
L 261.203989 257.425314 
L 261.608704 276.579508 
L 261.811061 279.574987 
L 262.013418 278.77338 
L 262.418132 254.23998 
L 262.62049 241.941637 
L 263.025204 232.048117 
L 263.227561 229.179206 
L 263.429918 228.145555 
L 263.834633 229.45344 
L 264.03699 229.137017 
L 264.239347 230.107383 
L 264.441704 230.191763 
L 264.644062 229.917529 
L 264.846419 232.005927 
L 265.048776 236.140532 
L 265.251133 236.140532 
L 265.45349 240.254043 
L 266.060562 283.730688 
L 266.465277 296.872828 
L 266.667634 298.454947 
L 266.869991 294.172677 
L 267.072348 286.030035 
L 267.477063 258.901959 
L 268.084134 236.203817 
L 268.488849 225.677449 
L 269.09592 214.159618 
L 269.500635 210.109392 
L 269.702992 212.345455 
L 269.905349 216.037067 
L 270.107706 216.733199 
L 270.310063 223.188247 
L 270.917135 273.204319 
L 271.32185 285.460472 
L 271.524207 287.654345 
L 271.726564 285.903466 
L 274.15485 140.960221 
L 274.357208 133.619186 
L 274.559565 137.036565 
L 275.166636 162.793471 
L 275.976065 246.308287 
L 276.38078 259.176193 
L 276.583137 258.458965 
L 276.987851 236.098343 
L 277.392566 206.50216 
L 278.404352 148.195781 
L 278.606709 145.073732 
L 279.011423 131.530789 
L 279.213781 129.885384 
L 279.416138 134.252034 
L 280.023209 176.969262 
L 280.630281 250.020994 
L 281.034995 273.351984 
L 281.237353 278.351482 
L 281.43971 276.769362 
L 281.642067 270.736213 
L 282.249139 227.976796 
L 282.85621 193.52878 
L 283.867996 149.714616 
L 284.070354 148.49111 
L 284.272711 156.844701 
L 285.284497 241.920542 
L 285.689211 274.870819 
L 286.093926 289.974787 
L 286.296283 292.316323 
L 286.49864 290.45997 
L 286.700997 287.443395 
L 287.105712 255.674435 
L 287.712783 202.873832 
L 288.522212 158.384631 
L 288.724569 151.085786 
L 288.926927 149.102863 
L 289.129284 152.77338 
L 289.736355 187.411251 
L 290.545784 259.197288 
L 290.950499 274.849724 
L 291.152856 277.697539 
L 291.355213 277.781919 
L 291.55757 276.263084 
L 291.759927 263.479558 
L 292.771714 162.392667 
L 293.176428 139.863285 
L 293.581142 128.345455 
L 293.7835 126.573481 
L 293.985857 130.180713 
L 294.592928 156.338423 
L 295.402357 241.667403 
L 295.807072 256.729181 
L 296.009429 256.560422 
L 296.414143 235.760824 
L 297.830644 97.293722 
L 298.235358 83.645304 
L 298.437715 80.987343 
L 298.640073 81.261577 
L 298.84243 83.37107 
L 299.044787 91.619186 
L 299.449501 119.295731 
L 300.056573 200.363536 
L 300.461287 226.268106 
L 300.663645 232.44892 
L 300.866002 233.187243 
L 301.068359 226.183727 
L 301.473073 195.342943 
L 302.484859 87.273631 
L 302.687217 75.650326 
L 302.889574 75.755801 
L 303.091931 84.067202 
L 303.496646 92.948167 
L 303.90136 115.793973 
L 304.306074 144.483074 
L 304.913146 215.551883 
L 305.31786 241.583024 
L 305.520218 247.299749 
L 305.722575 245.46449 
L 305.924932 238.14455 
L 306.532004 197.114917 
L 307.54379 125.223405 
L 307.746147 114.739227 
L 307.948504 113.832145 
L 308.757933 146.972275 
L 309.162647 173.741738 
L 309.769719 238.439879 
L 310.174433 258.859769 
L 310.376791 263.374083 
L 310.579148 262.783425 
L 310.983862 238.735208 
L 312.198005 131.889402 
L 312.60272 119.949674 
L 312.805077 115.456454 
L 313.007434 116.026017 
L 313.209791 119.823104 
L 313.816863 148.153591 
L 314.01922 162.202813 
L 314.626292 226.479056 
L 315.031006 247.531793 
L 315.233364 252.235962 
L 315.435721 251.560924 
L 315.840435 232.280161 
L 316.24515 213.062682 
L 316.649864 200.72215 
L 317.054578 185.006429 
L 317.66165 177.285686 
L 317.864007 176.821597 
L 318.066364 175.89342 
L 318.268722 180.703064 
L 318.875793 203.443395 
L 319.685222 263.627223 
L 320.089937 276.748267 
L 320.292294 278.435861 
L 320.697008 270.293219 
L 321.101723 243.354997 
L 322.315866 163.320844 
L 322.72058 152.794475 
L 322.922937 150.410748 
L 323.125295 154.650829 
L 323.732366 183.023506 
L 324.541795 253.417278 
L 324.94651 268.099347 
L 325.148867 271.073732 
L 325.351224 271.137017 
L 325.553581 268.816575 
L 325.755938 256.159618 
L 326.970082 140.707082 
L 327.172439 134.209844 
L 327.374796 132.585535 
L 327.77951 126.86881 
L 327.981868 131.994877 
L 328.184225 141.023506 
L 328.791296 194.077248 
L 329.196011 238.988348 
L 329.398368 254.640784 
L 329.803083 265.019488 
L 330.00544 264.049121 
L 330.207797 258.290206 
L 330.814869 208.463988 
L 331.42194 169.206328 
L 331.826655 145.917529 
L 332.029012 142.943144 
L 332.231369 142.964239 
L 332.433726 143.154093 
L 332.636083 145.305776 
L 332.838441 149.967755 
L 333.243155 173.509694 
L 333.445512 182.770367 
L 334.052584 250.274134 
L 334.457298 272.655851 
L 334.659655 278.224912 
L 334.862013 275.756806 
L 335.266727 255.379106 
L 335.671442 230.360522 
L 336.48087 189.16213 
L 336.683228 183.951683 
L 336.885585 182.812557 
L 337.087942 176.462983 
L 337.290299 174.56444 
L 337.695014 181.209342 
L 338.099728 196.060171 
L 338.302085 202.09332 
L 339.111514 269.702562 
L 339.313871 276.07323 
L 339.516228 278.372577 
L 339.718586 274.195781 
L 340.1233 250.210849 
L 340.932729 204.540331 
L 342.349229 141.107885 
L 342.551587 141.023506 
L 343.158658 166.379608 
L 343.76573 230.845706 
L 344.170444 249.345957 
L 344.372801 254.23998 
L 344.575159 252.046107 
L 344.777516 244.937117 
L 345.18223 213.210347 
L 346.194016 128.32436 
L 346.598731 113.157107 
L 347.003445 106.36454 
L 347.205802 105.499648 
L 347.40816 108.769362 
L 347.610517 116.827624 
L 348.015231 143.639277 
L 348.82466 237.237469 
L 349.229374 254.809543 
L 349.431732 254.029031 
L 349.634089 248.080261 
L 349.836446 236.646811 
L 351.050589 129.379106 
L 351.455304 110.520241 
L 351.860018 101.428327 
L 352.062375 100.500151 
L 352.264733 104.233953 
L 352.46709 115.625213 
L 353.276519 200.975289 
L 353.681233 239.937619 
L 354.085947 260.673933 
L 354.288305 266.095329 
L 354.490662 266.685987 
L 354.693019 264.38664 
L 355.097733 221.205324 
L 355.704805 145.369061 
L 356.109519 119.991863 
L 356.716591 101.301758 
L 356.918948 100.183727 
L 357.121306 105.11994 
L 357.52602 131.446409 
L 357.728377 144.483074 
L 358.740163 242.574485 
L 359.144878 255.906479 
L 359.347235 257.826118 
L 359.549592 257.488599 
L 359.751949 243.101858 
L 360.763735 119.169161 
L 361.16845 99.571974 
L 361.573164 88.159618 
L 361.775521 85.796986 
L 361.977879 89.172175 
L 362.180236 96.365545 
L 362.58495 122.860773 
L 363.394379 214.054144 
L 363.799093 232.195781 
L 364.001451 233.039578 
L 364.203808 226.985334 
L 364.406165 216.64882 
L 365.013237 145.137017 
L 365.620308 78.772376 
L 366.025023 62.149573 
L 366.429737 55.8 
L 366.632094 56.306278 
L 366.834451 59.027524 
L 367.036809 67.992868 
L 367.441523 98.010949 
L 368.048595 179.901457 
L 368.453309 211.290708 
L 368.655666 220.066198 
L 368.858024 222.513209 
L 369.060381 218.505173 
L 369.262738 208.358513 
L 369.86981 143.006429 
L 370.476881 83.160121 
L 370.881596 66.052135 
L 371.083953 65.588046 
L 371.28631 66.326369 
L 371.488667 70.376595 
L 371.691024 76.789453 
L 372.298096 116.912004 
L 373.107525 204.413762 
L 373.512239 227.301758 
L 373.714597 231.794977 
L 374.119311 231.07775 
L 374.321668 217.956705 
L 375.333454 111.047614 
L 375.738169 97.399196 
L 375.940526 94.614666 
L 376.142883 93.47554 
L 376.34524 98.812557 
L 376.749955 125.835158 
L 377.559383 186.504169 
L 377.964098 222.196786 
L 378.368812 236.414766 
L 378.57117 236.646811 
L 378.773527 230.529282 
L 378.975884 218.969262 
L 380.392384 98.791462 
L 380.797099 88.560422 
L 381.201813 80.734204 
L 381.40417 84.615671 
L 382.011242 122.776394 
L 382.820671 208.189754 
L 383.225385 224.791462 
L 383.427743 225.466499 
L 383.6301 219.960723 
L 384.034814 197.030537 
L 385.0466 121.320844 
L 385.451315 104.107383 
L 385.653672 103.6222 
L 385.856029 107.524761 
L 386.058386 115.393169 
L 387.070172 187.558915 
L 387.474887 228.926067 
L 387.879601 251.497639 
L 388.284316 260.927072 
L 388.68903 263.521748 
L 388.891387 257.594073 
L 389.700816 212.682973 
L 390.307888 201.122953 
L 390.914959 187.980814 
L 391.117316 192.917027 
L 391.926745 233.735711 
L 392.533817 279.321848 
L 392.938531 292.084279 
L 393.140888 294.003918 
L 393.343246 293.539829 
L 393.545603 294.025013 
L 393.74796 284.785434 
L 394.355032 242.321346 
L 395.569175 184.057157 
L 395.771532 177.855249 
L 395.973889 179.099849 
L 396.176247 187.685485 
L 396.783318 231.056655 
L 397.188033 270.799498 
L 397.592747 289.194274 
L 397.795104 292.063184 
L 397.997461 289.447413 
L 398.402176 270.736213 
L 400.628105 139.061678 
L 400.830462 141.993872 
L 401.03282 152.267102 
L 401.639891 211.121949 
L 402.044606 256.876846 
L 402.44932 277.845203 
L 402.651677 281.979809 
L 402.854034 280.27112 
L 403.258749 261.496635 
L 403.663463 232.174686 
L 404.877607 122.755299 
L 405.282321 101.575992 
L 405.484678 97.230437 
L 405.687035 98.348468 
L 405.889393 109.191261 
L 406.294107 147.752788 
L 406.901179 227.639277 
L 407.305893 252.468006 
L 407.50825 258.248016 
L 407.710607 257.699548 
L 408.115322 235.781919 
L 409.73418 99.276645 
L 409.936537 94.192767 
L 410.138894 94.045103 
L 410.341251 98.791462 
L 410.948323 136.045103 
L 411.15068 152.456956 
L 411.757752 225.29774 
L 412.162466 250.126469 
L 412.364823 256.813561 
L 412.56718 258.64882 
L 412.971895 240.021999 
L 414.388395 138.808538 
L 414.79311 124.843697 
L 415.197824 117.96675 
L 415.400181 124.949171 
L 416.20961 189.478553 
L 416.614325 236.140532 
L 417.019039 259.93561 
L 417.221396 264.323355 
L 417.423753 263.753792 
L 417.828468 247.0888 
L 419.244968 146.276143 
L 419.649683 132.248016 
L 419.85204 128.303265 
L 420.054397 129.77991 
L 420.256754 138.703064 
L 421.066183 205.974787 
L 421.673255 262.720141 
L 422.077969 279.279658 
L 422.280326 281.832145 
L 422.482684 281.157107 
L 422.685041 280.988348 
L 423.089755 249.324862 
L 423.899184 178.234957 
L 424.708613 137.774887 
L 424.91097 134.505173 
L 425.113327 138.618684 
L 425.518042 165.493621 
L 425.720399 177.623204 
L 426.529828 254.345455 
L 426.934542 273.436364 
L 427.136899 278.035058 
L 427.339257 278.85776 
L 427.541614 279.089804 
L 427.743971 270.25103 
L 428.148685 228.778403 
L 428.755757 165.177197 
L 429.160471 138.829633 
L 429.565186 130.349473 
L 429.9699 134.378604 
L 430.374615 151.043596 
L 430.576972 163.00442 
L 431.386401 241.076745 
L 431.791115 253.649322 
L 431.993472 251.560924 
L 432.398187 230.698041 
L 433.207616 163.827122 
L 434.017044 91.534807 
L 434.219402 86.514214 
L 435.02883 114.675942 
L 435.433545 140.348468 
L 436.040617 213.484581 
L 436.445331 236.625716 
L 436.647688 241.899448 
L 436.850045 241.203315 
L 437.25476 220.045103 
L 437.659474 184.183727 
L 438.468903 108.727172 
L 438.67126 98.728177 
L 438.873617 99.719638 
L 439.075975 107.018483 
L 439.278332 106.554395 
L 439.480689 108.853742 
L 439.885403 127.902461 
L 440.290118 153.321848 
L 440.897189 228.715118 
L 441.301904 251.624209 
L 441.504261 257.19327 
L 441.706618 257.741738 
L 442.111333 242.616675 
L 442.920762 189.204319 
L 443.527833 153.406228 
L 444.134905 130.054144 
L 444.337262 127.396183 
L 444.539619 133.9778 
L 445.146691 180.238975 
L 445.753762 251.265595 
L 446.158477 273.03556 
L 446.360834 278.119437 
L 446.563191 276.07323 
L 446.967906 256.665897 
L 448.586763 143.955701 
L 448.991478 130.412757 
L 449.193835 128.029031 
L 449.396192 134.863787 
L 450.003264 176.315319 
L 450.812693 258.48006 
L 451.217407 272.128478 
L 451.419764 272.255048 
L 451.824479 254.619689 
L 452.43155 202.873832 
L 453.038622 159.861276 
L 453.443336 142.373581 
L 453.848051 134.294224 
L 454.050408 137.753792 
L 454.252765 148.005927 
L 454.65748 177.159116 
L 454.859837 185.829131 
L 455.669266 252.257057 
L 456.07398 266.158614 
L 456.276337 267.719638 
L 456.478694 265.67343 
L 456.681052 262.488096 
L 456.883409 254.28217 
L 457.288123 226.563435 
L 457.692838 215.319839 
L 457.895195 216.037067 
L 458.299909 221.943646 
L 458.502267 221.795982 
L 458.906981 217.872325 
L 459.109338 218.420794 
L 459.514053 222.681969 
L 459.71641 227.090809 
L 460.728196 286.304269 
L 461.13291 290.839679 
L 461.537625 287.443395 
L 461.739982 278.288197 
L 462.144696 242.890909 
L 463.561197 171.927574 
L 463.763554 164.481065 
L 463.965911 165.683476 
L 464.572983 185.660372 
L 465.382412 254.366549 
L 465.584769 261.454445 
L 465.787126 264.238975 
L 465.989483 261.749774 
L 467.608341 166.822602 
L 468.620127 145.094827 
L 468.822484 148.301256 
L 469.429556 175.218383 
L 470.036627 233.398192 
L 470.441342 251.645304 
L 470.643699 254.345455 
L 470.846056 251.708589 
L 471.857842 199.477549 
L 472.869628 168.446911 
L 473.071985 168.953189 
L 473.274343 167.117931 
L 473.4767 168.404721 
L 473.679057 172.286188 
L 473.881414 179.036565 
L 474.083772 180.21788 
L 474.286129 188.086288 
L 474.8932 241.540834 
L 475.297915 258.205826 
L 475.500272 259.914515 
L 475.702629 257.826118 
L 476.107344 232.828629 
L 476.512058 210.257057 
L 477.321487 177.960723 
L 477.726201 157.287695 
L 477.928558 153.638272 
L 478.333273 158.447916 
L 478.53563 163.025515 
L 479.142702 188.592567 
L 479.952131 258.100352 
L 480.356845 268.204822 
L 480.559202 267.782923 
L 480.963917 245.126971 
L 482.785131 113.452436 
L 482.987489 107.398192 
L 483.189846 104.698041 
L 483.392203 110.478051 
L 483.999275 151.36002 
L 484.606346 224.285183 
L 485.011061 248.101356 
L 485.213418 252.615671 
L 485.415775 253.586037 
L 485.82049 233.313812 
L 486.225204 201.312808 
L 487.23699 109.043596 
L 487.439347 105.879357 
L 487.844062 112.608639 
L 488.248776 131.699548 
L 489.260562 211.206328 
L 489.665277 244.1777 
L 490.069991 259.661376 
L 490.272348 262.066198 
L 490.474705 260.905977 
L 490.677063 259.091813 
L 490.87942 249.113913 
L 491.891206 167.37107 
L 492.29592 149.208338 
L 492.498277 141.635259 
L 492.700635 139.567956 
L 492.902992 141.234455 
L 493.105349 146.170668 
L 493.712421 180.534304 
L 494.52185 254.345455 
L 495.128921 273.07775 
L 495.331278 273.225414 
L 495.533636 272.592567 
L 495.735993 264.850728 
L 496.950136 171.041587 
L 497.557208 146.065193 
L 497.759565 142.62672 
L 497.961922 145.917529 
L 498.568994 178.213862 
L 499.378422 253.881366 
L 499.58078 260.884882 
L 499.783137 263.437368 
L 499.985494 260.041085 
L 500.187851 251.307785 
L 500.794923 213.463486 
L 500.99728 208.231944 
L 501.401995 194.81557 
L 501.806709 183.276645 
L 502.009066 182.812557 
L 502.211423 184.922049 
L 502.413781 185.575992 
L 502.616138 183.867303 
L 503.020852 193.824108 
L 503.223209 194.393672 
L 503.425567 202.09332 
L 504.032638 254.050126 
L 504.437353 267.445404 
L 504.63971 269.111904 
L 504.842067 266.685987 
L 505.246782 241.709593 
L 505.651496 217.302762 
L 507.270354 142.331391 
L 507.472711 139.146057 
L 507.675068 142.62672 
L 508.28214 171.358011 
L 508.889211 230.824611 
L 509.293926 248.37559 
L 509.496283 251.982823 
L 509.69864 250.105374 
L 510.103354 225.972777 
L 511.722212 116.954194 
L 512.126927 98.749272 
L 512.329284 100.373581 
L 512.936355 135.602109 
L 513.34107 175.513712 
L 513.745784 220.066198 
L 514.150499 243.354997 
L 514.352856 249.071723 
L 514.555213 249.578001 
L 514.75757 240.464992 
L 516.174071 141.29774 
L 516.376428 140.179709 
L 516.781142 149.735711 
L 516.9835 146.930085 
L 517.185857 147.478553 
L 517.590571 165.620191 
L 517.792928 169.965746 
L 517.995286 180.935108 
L 518.4 221.585033 
L 518.4 221.585033 
" clip-path="url(#pb170d36b22)" style="fill: none; stroke: #1f77b4; stroke-width: 1.5; stroke-linecap: square"/>
   </g>
   <g id="line2d_14">
    <path d="M 72 270.556811 
L 72.202357 270.556811 
L 72.607072 274.783738 
L 72.809429 275.18503 
L 73.011786 272.299029 
L 73.618858 253.548946 
L 74.023572 242.401861 
L 74.428286 222.998886 
L 75.237715 185.816684 
L 75.440073 179.361101 
L 75.64243 177.654447 
L 76.047144 186.677263 
L 76.249501 196.987812 
L 77.05893 259.850294 
L 77.261287 264.761714 
L 77.463645 266.487662 
L 77.666002 265.828618 
L 77.868359 257.87263 
L 78.273073 234.891711 
L 78.475431 226.389709 
L 78.880145 202.991862 
L 79.689574 168.270642 
L 79.891931 159.112139 
L 80.094288 155.783762 
L 80.296646 155.674411 
L 80.70136 184.049057 
L 81.915503 273.20916 
L 82.320218 273.54353 
L 82.522575 276.3366 
L 83.129646 259.501556 
L 84.141432 210.85425 
L 84.34379 213.904778 
L 84.546147 213.493103 
L 84.748504 215.43887 
L 85.153218 228.527014 
L 85.76029 249.905644 
L 85.962647 254.664588 
L 86.569719 288.618044 
L 86.772076 294.838949 
L 87.176791 293.942312 
L 87.379148 291.040912 
L 88.188577 265.998847 
L 88.593291 251.52696 
L 88.998005 244.366171 
L 89.200363 244.160329 
L 89.40272 244.211616 
L 89.605077 243.193161 
L 90.009791 238.0956 
L 90.212149 237.466634 
L 90.616863 246.168961 
L 91.021578 263.427965 
L 91.426292 286.372619 
L 91.831006 290.84124 
L 92.235721 283.75193 
L 93.04515 250.312854 
L 93.449864 246.255034 
L 93.652221 244.054284 
L 94.056936 236.117494 
L 94.259293 233.264474 
L 94.46165 228.707476 
L 94.664007 220.929802 
L 94.866364 221.128072 
L 95.271079 235.904215 
L 95.675793 253.947855 
L 96.282865 282.045058 
L 96.485222 284.653617 
L 96.687579 282.383945 
L 96.889937 282.193205 
L 97.092294 280.22769 
L 97.699365 246.990945 
L 97.901723 246.798004 
L 98.711151 234.979616 
L 98.913509 234.583966 
L 99.115866 232.056402 
L 99.52058 219.546578 
L 99.722937 220.231997 
L 100.532366 251.646381 
L 101.139438 287.742283 
L 101.341795 286.834644 
L 101.74651 278.7798 
L 101.948867 278.237057 
L 102.151224 270.02687 
L 102.353581 256.185392 
L 102.555938 250.904273 
L 102.758296 250.45953 
L 103.567724 233.758618 
L 103.770082 233.694044 
L 103.972439 230.462222 
L 104.377153 215.543394 
L 104.57951 215.032415 
L 105.186582 237.686208 
L 105.996011 285.867476 
L 106.198368 285.120127 
L 106.603083 278.810891 
L 106.80544 277.811396 
L 107.007797 269.531955 
L 107.210154 256.358484 
L 107.412511 251.167219 
L 107.614869 249.438025 
L 107.817226 246.325195 
L 109.233726 195.722382 
L 109.436083 198.150898 
L 110.245512 247.080221 
L 110.852584 281.495477 
L 111.054941 282.462478 
L 111.459655 276.998745 
L 111.662013 276.668881 
L 111.86437 269.628161 
L 112.269084 251.318096 
L 112.471442 246.998849 
L 112.673799 239.378323 
L 113.078513 215.605775 
L 113.685585 191.708383 
L 113.887942 177.689414 
L 114.090299 174.195842 
L 114.292656 173.518145 
L 114.495014 184.275582 
L 115.304442 249.119476 
L 115.709157 275.297063 
L 115.911514 278.772252 
L 116.720943 267.90837 
L 117.328015 251.318413 
L 117.732729 219.310757 
L 118.137443 188.109213 
L 118.744515 152.819323 
L 118.946872 147.615309 
L 119.149229 147.563509 
L 119.351587 154.626047 
L 119.756301 184.088244 
L 120.56573 263.482982 
L 120.970444 274.461018 
L 121.375159 277.232564 
L 121.577516 273.030102 
L 122.386945 232.906361 
L 122.994016 188.18257 
L 123.398731 179.217862 
L 123.601088 178.26963 
L 124.005802 188.862793 
L 124.815231 236.137582 
L 125.422303 277.061093 
L 125.827017 290.028423 
L 126.029374 289.7188 
L 126.231732 286.076798 
L 126.434089 277.394245 
L 126.838803 250.48906 
L 127.850589 199.98142 
L 128.457661 162.662766 
L 128.660018 156.111746 
L 128.862375 156.1194 
L 129.064733 165.811156 
L 129.26709 180.86834 
L 129.874161 251.910669 
L 130.278876 273.676773 
L 130.481233 276.837155 
L 130.885947 276.075132 
L 131.088305 272.619166 
L 131.897733 229.212697 
L 132.909519 159.289208 
L 133.314234 137.823772 
L 133.516591 135.840662 
L 133.718948 140.96445 
L 134.123663 166.43804 
L 134.528377 206.664776 
L 135.135449 267.752534 
L 135.337806 272.638902 
L 135.540163 270.377375 
L 135.74252 269.961467 
L 135.944878 268.91829 
L 137.361378 181.071495 
L 137.766092 172.775441 
L 137.96845 170.830761 
L 138.170807 172.84715 
L 138.980236 211.692024 
L 139.182593 216.884991 
L 139.587307 247.735366 
L 139.992022 277.865945 
L 140.194379 282.503565 
L 140.396736 282.143199 
L 141.003808 262.269286 
L 141.206165 249.331663 
L 141.610879 235.858191 
L 142.217951 212.205962 
L 142.420308 210.552268 
L 142.622665 206.307419 
L 142.825023 205.270541 
L 143.02738 202.975396 
L 143.229737 206.484382 
L 143.634451 220.991249 
L 144.039166 230.688967 
L 144.848595 278.271005 
L 145.050952 278.659187 
L 145.658024 267.499325 
L 146.872167 214.333927 
L 147.074524 213.262487 
L 147.681596 206.763404 
L 148.08631 208.444271 
L 148.693382 235.397223 
L 148.895739 238.425138 
L 149.705168 276.289381 
L 149.907525 279.288928 
L 150.312239 270.950017 
L 150.514597 270.065279 
L 151.121668 253.2324 
L 151.324025 249.379362 
L 151.72874 232.089926 
L 151.931097 226.447718 
L 152.133454 224.643856 
L 152.538169 235.274731 
L 152.740526 233.400101 
L 152.942883 229.953661 
L 153.347597 237.758343 
L 153.549955 243.479742 
L 153.752312 245.03625 
L 154.157026 253.938214 
L 154.764098 281.859291 
L 154.966455 281.060596 
L 155.978241 259.910864 
L 156.180598 252.991686 
L 156.78767 213.957143 
L 157.192384 192.060476 
L 158.001813 164.034077 
L 158.20417 164.122761 
L 158.608885 183.264563 
L 159.013599 224.369265 
L 159.418314 259.62025 
L 159.823028 271.718512 
L 160.025385 271.579085 
L 160.227743 268.379584 
L 160.4301 259.061365 
L 161.441886 190.934677 
L 161.644243 183.609448 
L 161.8466 181.103059 
L 162.251315 169.418585 
L 162.453672 168.534013 
L 162.656029 170.523448 
L 162.858386 174.182863 
L 163.465458 212.963255 
L 164.072529 260.594347 
L 164.274887 270.945826 
L 164.679601 277.806712 
L 164.881958 278.305928 
L 165.084316 274.404188 
L 165.286673 264.788152 
L 165.691387 235.975805 
L 166.500816 209.157817 
L 166.90553 197.669904 
L 167.310245 172.732006 
L 167.512602 169.980103 
L 167.714959 172.378029 
L 168.119674 200.774377 
L 169.13146 273.864033 
L 169.333817 274.809446 
L 169.536174 273.481746 
L 169.940888 267.693973 
L 170.54796 238.994214 
L 170.952675 209.738671 
L 171.155032 189.796921 
L 172.166818 148.781252 
L 172.369175 147.90478 
L 172.571532 153.85547 
L 173.380961 220.856335 
L 173.988033 272.442498 
L 174.19039 278.500916 
L 174.392747 277.730159 
L 174.595104 274.304662 
L 174.797461 268.844242 
L 175.404533 233.66761 
L 175.60689 228.479036 
L 176.416319 187.210517 
L 177.023391 164.987381 
L 177.225748 164.71552 
L 177.428105 166.582294 
L 177.630462 174.783725 
L 178.844606 278.090537 
L 179.046963 283.047327 
L 179.24932 280.178376 
L 179.451677 280.847948 
L 179.654034 277.355094 
L 180.058749 253.706888 
L 180.261106 239.852343 
L 180.463463 236.597877 
L 180.868178 205.191775 
L 181.677607 154.040238 
L 181.879964 147.883634 
L 182.082321 146.249823 
L 182.284678 146.121707 
L 182.89175 192.921584 
L 183.296464 237.45822 
L 183.701179 265.507538 
L 184.105893 269.481968 
L 184.30825 268.287107 
L 184.510607 268.266904 
L 184.712965 263.868627 
L 185.522393 213.767827 
L 186.129465 154.084912 
L 186.331822 140.234293 
L 186.736537 131.358007 
L 186.938894 139.092521 
L 187.343608 168.262408 
L 187.748323 202.415503 
L 188.355394 240.93 
L 188.760109 265.114801 
L 188.962466 270.42731 
L 189.164823 271.017907 
L 189.36718 269.62934 
L 189.569538 263.476824 
L 190.176609 225.564146 
L 191.188395 162.452473 
L 191.390752 158.723003 
L 191.59311 158.270984 
L 192.200181 181.265544 
L 192.807253 220.052445 
L 193.819039 275.230307 
L 194.021396 277.059933 
L 194.223753 272.442754 
L 194.628468 254.112918 
L 195.235539 217.052425 
L 195.640254 187.232407 
L 195.842611 183.169517 
L 196.044968 184.067897 
L 196.247325 188.861984 
L 197.259112 225.614015 
L 197.866183 249.645508 
L 198.473255 279.322723 
L 198.675612 283.323898 
L 198.877969 282.111417 
L 199.080326 275.193578 
L 200.496827 199.17668 
L 200.901541 193.217906 
L 201.306256 178.891663 
L 201.71097 170.466221 
L 201.913327 174.32005 
L 202.115684 183.607085 
L 202.925113 256.665063 
L 203.127471 263.681213 
L 203.329828 264.614592 
L 203.532185 264.544055 
L 203.734542 263.755043 
L 203.936899 261.724198 
L 204.341614 235.240841 
L 204.746328 208.65362 
L 205.151043 187.521937 
L 205.3534 183.90705 
L 205.555757 182.527515 
L 205.758114 177.372121 
L 205.960471 166.179974 
L 206.162829 161.583925 
L 206.365186 162.769834 
L 206.567543 168.555357 
L 208.186401 269.632025 
L 208.793472 262.23066 
L 208.99583 252.693287 
L 209.400544 225.222715 
L 210.209973 189.817901 
L 210.41233 185.860867 
L 210.817044 162.294458 
L 211.221759 143.163483 
L 211.424116 143.642911 
L 212.031188 186.803285 
L 212.638259 250.232824 
L 212.840617 261.965309 
L 213.042974 264.967166 
L 213.447688 257.880448 
L 213.650045 255.622265 
L 214.257117 225.193387 
L 214.459474 213.985284 
L 214.864189 178.223622 
L 215.066546 173.050593 
L 215.47126 145.274633 
L 215.875975 118.934401 
L 216.078332 113.085607 
L 216.280689 114.404022 
L 217.292475 201.630878 
L 217.697189 243.417606 
L 218.101904 256.496309 
L 218.304261 258.609112 
L 218.506618 256.448673 
L 219.316047 220.091202 
L 220.327833 147.53049 
L 220.53019 141.797907 
L 220.732548 144.063875 
L 221.137262 169.176166 
L 221.541976 209.674204 
L 221.946691 232.367143 
L 222.351405 247.118213 
L 222.75612 266.786039 
L 223.160834 274.044181 
L 223.363191 273.788191 
L 223.565549 270.00486 
L 224.17262 237.953037 
L 224.577335 214.050905 
L 224.779692 208.452034 
L 224.982049 207.256471 
L 225.184406 210.421301 
L 225.791478 226.575373 
L 226.398549 238.772521 
L 227.612693 288.638151 
L 227.81505 292.02952 
L 228.017407 289.418827 
L 228.422121 270.582147 
L 228.826836 249.538832 
L 229.029193 245.364974 
L 229.636265 228.486227 
L 230.445694 212.042997 
L 230.850408 194.018363 
L 231.052765 194.214118 
L 231.255122 203.427595 
L 231.862194 253.366485 
L 232.266908 273.128577 
L 232.469266 277.081713 
L 232.671623 277.995363 
L 232.87398 276.730094 
L 233.076337 274.246602 
L 235.302267 171.908199 
L 235.504624 171.984682 
L 235.706981 173.771068 
L 235.909338 183.48991 
L 236.314053 219.333051 
L 236.718767 246.872411 
L 237.123481 275.864707 
L 237.325839 279.832703 
L 237.528196 276.421234 
L 237.93291 273.36269 
L 238.135267 266.685675 
L 239.349411 206.19778 
L 239.956482 186.461196 
L 240.15884 181.898164 
L 240.361197 183.949327 
L 240.563554 189.988831 
L 242.182412 282.46549 
L 242.789483 276.012701 
L 244.205984 212.443748 
L 244.610698 196.386166 
L 245.015413 181.823559 
L 245.21777 178.924932 
L 245.420127 178.444158 
L 245.622484 186.914815 
L 246.836627 274.306162 
L 247.038985 277.880869 
L 247.646056 274.640512 
L 247.848413 266.836853 
L 248.253128 242.760667 
L 248.657842 224.968731 
L 249.062557 186.743616 
L 249.264914 178.146563 
L 249.871985 140.618201 
L 250.074343 139.414536 
L 250.2767 142.846728 
L 250.479057 153.522414 
L 251.490843 248.460304 
L 251.6932 260.924715 
L 251.895558 266.059022 
L 252.097915 266.236241 
L 252.300272 267.459193 
L 252.502629 267.854641 
L 252.704986 263.299035 
L 253.514415 212.431689 
L 254.121487 158.974139 
L 254.526201 138.926182 
L 254.728558 137.026116 
L 254.930916 139.321239 
L 255.133273 145.954765 
L 255.537987 172.302187 
L 256.347416 241.491402 
L 256.752131 270.109588 
L 256.954488 272.867114 
L 257.156845 273.529087 
L 257.359202 272.171155 
L 257.561559 266.663824 
L 258.168631 232.773747 
L 258.97806 172.46907 
L 259.382774 162.169815 
L 259.585131 161.552805 
L 259.989846 170.161753 
L 260.192203 176.379044 
L 260.799275 216.490748 
L 261.608704 272.754505 
L 261.811061 280.097677 
L 262.013418 280.719345 
L 262.215775 277.562346 
L 262.418132 268.01217 
L 263.025204 225.636948 
L 263.632276 206.482871 
L 263.834633 204.206726 
L 264.239347 209.436046 
L 264.441704 213.380812 
L 264.846419 225.784214 
L 265.251133 232.387595 
L 265.45349 238.680179 
L 266.262919 279.670254 
L 266.465277 284.299755 
L 266.667634 285.656347 
L 267.072348 278.828256 
L 267.477063 257.86364 
L 267.881777 244.651637 
L 268.691206 224.145714 
L 269.298277 217.319265 
L 269.500635 214.930131 
L 269.702992 217.255891 
L 270.512421 243.863688 
L 271.119492 274.570501 
L 271.32185 277.167705 
L 271.928921 268.493168 
L 272.131278 260.692427 
L 272.535993 240.728066 
L 272.73835 235.081755 
L 272.940707 225.69579 
L 273.345422 199.498887 
L 273.547779 191.926194 
L 274.357208 150.989531 
L 274.559565 146.129274 
L 274.761922 149.060976 
L 275.166636 176.684047 
L 276.178422 257.34631 
L 276.38078 256.822592 
L 276.785494 254.327899 
L 277.594923 209.623197 
L 277.999637 175.189294 
L 278.404352 161.477921 
L 278.809066 140.533099 
L 279.011423 132.793768 
L 279.213781 132.349262 
L 279.416138 132.784284 
L 280.023209 180.298226 
L 280.832638 260.238371 
L 281.034995 266.901289 
L 281.237353 266.870135 
L 281.642067 263.509786 
L 281.844424 257.528002 
L 283.058568 185.682248 
L 283.260925 180.531677 
L 283.867996 155.260531 
L 284.070354 155.148456 
L 284.272711 158.526394 
L 284.677425 185.298899 
L 285.891568 275.267184 
L 286.093926 276.276233 
L 286.49864 274.593325 
L 286.700997 271.692637 
L 287.105712 251.034594 
L 287.712783 213.047961 
L 288.117498 181.313022 
L 288.522212 159.784835 
L 288.724569 155.491008 
L 288.926927 154.216707 
L 289.129284 159.126172 
L 289.331641 168.08169 
L 290.748141 273.095218 
L 290.950499 277.555438 
L 291.152856 277.34461 
L 291.355213 274.934244 
L 291.55757 269.195714 
L 292.164642 234.060346 
L 292.366999 219.707056 
L 292.771714 170.821402 
L 293.176428 144.668171 
L 293.581142 132.055453 
L 293.7835 132.126137 
L 293.985857 136.551923 
L 294.188214 144.292747 
L 294.997643 201.44774 
L 295.604714 258.630559 
L 295.807072 266.376283 
L 296.009429 268.789565 
L 296.211786 264.954652 
L 296.6165 237.055816 
L 298.033001 104.459519 
L 298.437715 83.767967 
L 298.640073 86.164173 
L 299.044787 101.697193 
L 299.449501 130.415933 
L 300.056573 192.965109 
L 300.461287 233.164949 
L 300.663645 243.593749 
L 300.866002 248.182986 
L 301.068359 241.899637 
L 301.270716 227.306681 
L 301.877788 157.016727 
L 302.484859 97.098469 
L 303.091931 61.557944 
L 303.294288 66.563592 
L 304.103717 134.064688 
L 304.710789 196.632213 
L 305.31786 246.075821 
L 305.520218 247.113971 
L 305.722575 243.713144 
L 306.127289 227.367108 
L 306.936718 161.181117 
L 307.139075 157.499788 
L 307.746147 134.292362 
L 308.150861 125.186647 
L 308.353218 128.201419 
L 308.555576 135.421313 
L 309.162647 184.339202 
L 309.769719 249.640427 
L 310.174433 268.743916 
L 310.376791 267.21937 
L 310.781505 258.648533 
L 310.983862 251.246778 
L 312.198005 155.280122 
L 312.805077 129.589307 
L 313.007434 126.001233 
L 313.209791 128.223199 
L 313.614506 145.817902 
L 315.031006 254.021336 
L 315.233364 256.027722 
L 315.435721 256.430075 
L 315.638078 248.771311 
L 316.852221 179.529334 
L 317.054578 176.046997 
L 317.459293 182.339684 
L 317.66165 181.385142 
L 317.864007 182.280331 
L 318.066364 184.429461 
L 318.875793 209.410096 
L 319.482865 251.361768 
L 319.685222 261.020681 
L 320.292294 267.308617 
L 320.494651 266.25021 
L 320.697008 261.053187 
L 322.315866 184.162274 
L 322.72058 166.641537 
L 322.922937 164.687117 
L 323.125295 165.971084 
L 323.327652 173.048242 
L 323.934723 212.271124 
L 324.541795 257.362435 
L 324.744152 263.43313 
L 324.94651 265.807408 
L 325.148867 264.54913 
L 325.351224 264.380529 
L 325.553581 261.8685 
L 325.755938 254.652102 
L 326.36301 216.951437 
L 326.970082 162.022619 
L 327.374796 138.4961 
L 327.577153 134.504158 
L 327.77951 134.711724 
L 327.981868 139.492506 
L 328.386582 161.941567 
L 328.791296 188.288154 
L 329.398368 250.576549 
L 329.600725 263.869024 
L 329.803083 268.417697 
L 330.00544 269.523964 
L 330.207797 265.066044 
L 330.410154 257.32685 
L 331.624297 160.368912 
L 332.029012 145.057596 
L 332.231369 142.223824 
L 332.433726 143.496994 
L 332.636083 147.001344 
L 333.243155 179.519315 
L 333.647869 204.840013 
L 334.254941 257.418981 
L 334.457298 267.26771 
L 334.659655 269.78326 
L 334.862013 270.126075 
L 335.06437 266.439867 
L 335.266727 259.054797 
L 336.278513 194.722362 
L 336.48087 186.857384 
L 336.885585 182.00972 
L 337.290299 173.775147 
L 337.695014 187.06152 
L 337.897371 194.330441 
L 338.909157 253.759793 
L 339.111514 270.734229 
L 339.313871 275.703507 
L 339.718586 272.843842 
L 340.1233 259.079095 
L 340.932729 214.745084 
L 341.337443 193.309117 
L 341.539801 189.27998 
L 342.349229 154.619883 
L 342.551587 154.340601 
L 342.753944 160.447525 
L 343.158658 182.617891 
L 343.968087 254.122764 
L 344.170444 258.463105 
L 344.777516 252.247224 
L 345.18223 230.740283 
L 345.789302 187.588379 
L 346.194016 156.507384 
L 347.003445 99.969759 
L 347.205802 101.022156 
L 347.40816 106.302889 
L 347.812874 143.070378 
L 349.027017 248.732852 
L 349.229374 254.471083 
L 349.431732 252.337144 
L 349.836446 237.88251 
L 351.252947 136.046985 
L 351.657661 116.026145 
L 351.860018 111.575351 
L 352.062375 110.711233 
L 352.46709 119.518263 
L 352.871804 158.401808 
L 353.681233 244.872551 
L 353.88359 253.165961 
L 354.085947 256.150136 
L 354.288305 257.408174 
L 354.490662 256.281764 
L 354.693019 252.499382 
L 354.895376 242.535319 
L 356.514234 113.778369 
L 356.716591 110.860399 
L 356.918948 111.787313 
L 357.323663 123.217787 
L 357.52602 135.812557 
L 358.740163 252.790524 
L 358.94252 257.316139 
L 359.144878 258.437471 
L 359.347235 256.59553 
L 359.549592 253.540847 
L 359.751949 242.402098 
L 361.16845 103.144667 
L 361.573164 93.821799 
L 361.775521 97.234749 
L 362.382593 116.012792 
L 362.989665 165.434825 
L 363.799093 261.501573 
L 364.001451 264.739191 
L 364.406165 238.641963 
L 365.013237 165.802701 
L 366.025023 64.329041 
L 366.22738 56.950396 
L 366.429737 59.953659 
L 366.834451 77.052678 
L 367.239166 89.653016 
L 367.441523 102.348151 
L 368.453309 225.780964 
L 368.655666 239.739634 
L 368.858024 242.653417 
L 369.060381 230.93477 
L 369.465095 184.357698 
L 369.86981 151.359149 
L 371.083953 59.392789 
L 371.28631 60.211367 
L 371.691024 74.525228 
L 371.893382 86.493288 
L 372.298096 135.075537 
L 372.702811 180.09758 
L 373.309882 240.527285 
L 373.512239 248.471531 
L 373.714597 246.462353 
L 374.119311 227.660556 
L 374.524025 188.070993 
L 374.726383 179.522888 
L 374.92874 176.121219 
L 375.333454 141.000071 
L 375.738169 105.912747 
L 375.940526 97.236005 
L 376.142883 94.317337 
L 376.547597 105.000129 
L 376.952312 141.501164 
L 377.964098 243.22109 
L 378.166455 255.822559 
L 378.368812 259.72757 
L 378.57117 256.884907 
L 378.975884 239.177889 
L 379.380598 197.585479 
L 380.190027 126.66887 
L 380.594742 114.286786 
L 380.999456 106.79587 
L 381.201813 108.021654 
L 381.40417 105.091753 
L 381.808885 114.571309 
L 382.213599 153.251776 
L 382.618314 194.79546 
L 383.225385 256.2417 
L 383.427743 253.157362 
L 383.6301 242.947014 
L 383.832457 226.48732 
L 384.237171 178.138998 
L 384.237171 178.138998 
" clip-path="url(#pb170d36b22)" style="fill: none; stroke: #ff7f0e; stroke-width: 1.5; stroke-linecap: square"/>
   </g>
   <g id="line2d_15">
    <path d="M 384.439529 160.773308 
L 385.248957 107.38655 
L 385.653672 97.912305 
L 385.856029 98.741623 
L 386.260743 109.439633 
L 386.463101 116.693904 
L 387.070172 177.366412 
L 387.879601 252.44514 
L 388.081958 254.645422 
L 388.284316 254.538057 
L 388.68903 237.918441 
L 389.498459 185.585094 
L 389.700816 180.483689 
L 390.10553 165.161557 
L 390.307888 165.036269 
L 390.712602 171.475654 
L 390.914959 178.781872 
L 391.724388 238.940517 
L 392.129102 267.851444 
L 392.533817 285.683945 
L 392.736174 286.274631 
L 393.140888 275.090298 
L 393.950317 243.978916 
L 394.355032 221.207244 
L 394.759746 214.921479 
L 394.962103 209.654955 
L 395.164461 208.816646 
L 395.366818 212.054846 
L 396.378604 238.761772 
L 396.985675 269.722752 
L 397.592747 277.647941 
L 397.997461 270.43261 
L 399.818676 210.490281 
L 400.021034 210.130143 
L 400.223391 211.777971 
L 400.628105 221.005604 
L 401.842248 264.3202 
L 402.044606 265.087125 
L 402.44932 263.897013 
L 403.056392 253.583529 
L 403.663463 238.568941 
L 403.86582 235.535749 
L 404.270535 221.384326 
L 404.675249 216.973279 
L 404.877607 216.933407 
L 405.079964 218.679133 
L 405.687035 232.454648 
L 406.09175 247.346332 
L 406.698821 258.808653 
L 406.901179 259.62469 
L 407.103536 259.217356 
L 407.305893 258.050539 
L 408.924751 231.34529 
L 409.329465 223.986637 
L 409.531822 223.319449 
L 409.73418 223.801496 
L 410.543608 237.51053 
L 410.948323 248.817623 
L 411.555394 254.533376 
L 411.757752 255.424317 
L 412.162466 253.94648 
L 413.174252 242.246752 
L 413.578966 234.91862 
L 413.781324 233.269732 
L 413.983681 230.693482 
L 414.388395 229.184595 
L 414.590752 229.528339 
L 414.79311 231.306083 
L 415.197824 239.261763 
L 415.602539 244.209691 
L 416.007253 250.42942 
L 416.20961 250.73055 
L 416.411967 251.82527 
L 416.614325 251.818461 
L 417.019039 250.770576 
L 417.221396 249.447332 
L 417.626111 244.353984 
L 417.828468 243.797025 
L 418.233182 238.95059 
L 418.637897 234.46547 
L 419.042611 233.053307 
L 419.244968 234.020945 
L 419.447325 234.012781 
L 419.649683 235.57648 
L 420.256754 243.425481 
L 420.459112 244.612261 
L 420.863826 248.684101 
L 421.066183 249.799538 
L 421.26854 249.758214 
L 421.470898 249.379333 
L 421.673255 248.061357 
L 421.875612 247.867596 
L 422.077969 248.184697 
L 422.685041 241.658107 
L 422.887398 241.169105 
L 423.49447 236.703086 
L 423.696827 235.549452 
L 423.899184 235.597328 
L 424.708613 240.055203 
L 425.113327 244.71986 
L 425.518042 245.914952 
L 425.720399 247.305358 
L 425.922756 247.660796 
L 426.125113 248.400001 
L 426.327471 248.113542 
L 426.732185 245.718032 
L 427.136899 245.394366 
L 427.541614 241.686563 
L 427.743971 240.440915 
L 427.946328 239.962243 
L 428.351043 238.301663 
L 428.755757 237.362258 
L 429.160471 240.253757 
L 429.362829 241.058084 
L 429.565186 241.233266 
L 430.172257 245.61792 
L 430.374615 246.317685 
L 430.576972 246.018978 
L 430.981686 246.23812 
L 431.184044 247.017774 
L 431.386401 246.424326 
L 431.588758 244.704155 
L 431.993472 243.770718 
L 432.19583 243.327878 
L 432.600544 240.897416 
L 433.005258 239.767864 
L 433.207616 239.97404 
L 433.61233 239.493096 
L 433.814687 239.479319 
L 434.219402 242.588833 
L 434.624116 243.20648 
L 435.433545 246.045144 
L 435.635902 245.332653 
L 435.838259 245.097219 
L 436.242974 245.505611 
L 436.445331 244.642083 
L 436.647688 243.122807 
L 436.850045 243.048766 
L 437.25476 242.404222 
L 437.659474 240.621454 
L 437.861831 240.259223 
L 438.064189 240.497547 
L 438.266546 241.507274 
L 438.468903 241.174449 
L 438.67126 241.064434 
L 438.873617 241.425787 
L 439.278332 243.731845 
L 439.885403 244.115359 
L 440.087761 244.901911 
L 440.492475 245.327162 
L 440.694832 244.359565 
L 440.897189 244.121635 
L 441.099547 244.596389 
L 441.301904 244.231003 
L 441.908976 242.315328 
L 442.111333 242.022202 
L 442.31369 242.133966 
L 442.516047 241.766308 
L 442.718404 240.967315 
L 442.920762 240.964121 
L 443.123119 241.526664 
L 443.325476 242.624761 
L 443.527833 242.215213 
L 443.73019 242.306341 
L 443.932548 242.794631 
L 444.337262 244.164856 
L 444.539619 244.058365 
L 444.741976 244.179693 
L 444.944334 243.862797 
L 445.146691 244.660883 
L 445.349048 244.856105 
L 445.551405 244.4054 
L 445.753762 243.528438 
L 445.95612 243.30201 
L 446.158477 243.856986 
L 446.563191 242.968973 
L 446.765549 242.006535 
L 446.967906 241.870674 
L 447.170263 242.004074 
L 447.37262 242.360903 
L 447.574977 242.27138 
L 447.777335 241.476219 
L 448.182049 242.459278 
L 448.384406 243.196128 
L 448.586763 242.909544 
L 448.789121 242.964837 
L 449.193835 243.712228 
L 449.396192 244.384299 
L 449.800907 243.791271 
L 450.003264 243.506376 
L 450.205621 244.261863 
L 450.407978 244.367507 
L 450.812693 243.108508 
L 451.01505 242.77585 
L 451.217407 243.21193 
L 451.622121 242.799712 
L 451.824479 242.060148 
L 452.026836 241.891797 
L 452.43155 242.667677 
L 452.633908 242.607076 
L 452.836265 241.968505 
L 453.240979 243.083441 
L 453.443336 243.495018 
L 453.848051 243.092758 
L 454.252765 243.689974 
L 454.455122 244.401635 
L 454.859837 243.376711 
L 455.062194 243.255291 
L 455.264551 243.748002 
L 455.466908 243.876488 
L 455.669266 243.156618 
L 456.07398 242.472878 
L 456.276337 242.925311 
L 456.478694 242.896822 
L 456.681052 242.723934 
L 456.883409 242.199562 
L 457.085766 242.133357 
L 457.288123 242.926881 
L 457.692838 242.900391 
L 457.895195 242.425185 
L 458.502267 243.64445 
L 458.704624 243.624845 
L 458.906981 243.03933 
L 459.311695 243.604581 
L 459.514053 244.132327 
L 459.918767 243.093437 
L 460.323481 243.311961 
L 460.525839 243.518573 
L 460.728196 242.898972 
L 460.930553 242.746371 
L 461.13291 242.41559 
L 461.335267 242.944886 
L 461.537625 243.102889 
L 461.942339 242.388408 
L 462.144696 242.395521 
L 462.347053 243.24442 
L 462.751768 243.136671 
L 462.954125 242.75366 
L 463.156482 242.945454 
L 463.35884 243.46707 
L 463.561197 243.659748 
L 463.763554 243.661264 
L 463.965911 242.941196 
L 464.572983 243.764419 
L 464.977697 242.861771 
L 465.180054 243.058127 
L 465.382412 243.074041 
L 465.584769 243.420246 
L 465.787126 242.83895 
L 466.19184 242.506602 
L 466.596555 243.290758 
L 466.798912 242.742139 
L 467.203626 242.604705 
L 467.405984 243.314114 
L 467.810698 243.257229 
L 468.013055 242.956017 
L 468.215413 242.930745 
L 468.41777 243.567823 
L 468.822484 243.488793 
L 469.024841 242.868109 
L 469.429556 243.4548 
L 469.631913 243.466023 
L 469.83427 243.206954 
L 470.036627 242.676757 
L 470.238985 242.945864 
L 470.441342 243.022939 
L 470.643699 243.420899 
L 471.048413 242.541951 
L 471.250771 242.691453 
L 471.655485 243.392109 
L 471.857842 242.845666 
L 472.262557 242.771022 
L 472.464914 243.317882 
L 472.667271 243.456559 
L 473.071985 243.01532 
L 473.274343 242.921094 
L 473.4767 243.61218 
L 473.881414 243.304169 
L 474.083772 242.842542 
L 474.286129 243.037126 
L 474.488486 243.39052 
L 474.8932 243.207175 
L 475.095558 242.587122 
L 475.702629 243.359561 
L 476.107344 242.588378 
L 476.714415 243.425263 
L 476.916772 242.9467 
L 477.321487 242.909407 
L 477.726201 243.555735 
L 477.928558 243.091429 
L 478.333273 242.92277 
L 478.53563 243.556914 
L 478.940345 243.173967 
L 479.142702 242.865584 
L 479.345059 242.870922 
L 479.547416 243.354787 
L 479.952131 243.185635 
L 480.154488 242.59576 
L 480.559202 243.170593 
L 480.761559 243.263019 
L 480.963917 243.042028 
L 481.166274 242.643757 
L 481.368631 243.033118 
L 481.570988 243.115554 
L 481.773345 243.452166 
L 482.17806 242.865952 
L 482.380417 243.007394 
L 482.785131 243.590054 
L 482.987489 243.014462 
L 483.392203 242.923866 
L 483.59456 243.413389 
L 483.796917 243.384869 
L 484.201632 242.90833 
L 484.403989 242.792337 
L 484.606346 243.355188 
L 485.011061 243.1069 
L 485.213418 242.680445 
L 485.618132 243.278763 
L 486.022847 243.115903 
L 486.225204 242.677622 
L 486.427561 243.065051 
L 486.832276 243.446537 
L 487.23699 242.791408 
L 487.844062 243.543201 
L 488.046419 242.997122 
L 488.451133 242.953223 
L 488.855848 243.399968 
L 489.058205 242.984153 
L 489.462919 242.803259 
L 489.665277 243.366872 
L 490.069991 243.023 
L 490.272348 242.785071 
L 490.474705 242.894598 
L 490.677063 243.352634 
L 491.081777 243.169055 
L 491.284134 242.719446 
L 491.688849 243.280896 
L 491.891206 243.376308 
L 492.093563 243.154064 
L 492.29592 242.764111 
L 492.498277 243.140172 
L 492.700635 243.20738 
L 492.902992 243.452201 
L 493.105349 243.014234 
L 493.307706 242.900013 
L 493.712421 243.208534 
L 493.914778 243.419663 
L 494.117135 242.908468 
L 494.52185 242.864828 
L 494.724207 243.339373 
L 494.926564 243.269257 
L 495.128921 242.972549 
L 495.533636 242.865488 
L 495.735993 243.384414 
L 496.343064 242.788124 
L 496.747779 243.349549 
L 497.152493 243.170151 
L 497.35485 242.766065 
L 497.557208 243.146933 
L 497.961922 243.368048 
L 498.366636 242.810618 
L 498.973708 243.420919 
L 499.176065 242.897149 
L 499.58078 242.939321 
L 499.783137 243.267511 
L 499.985494 243.328371 
L 500.187851 242.948603 
L 500.592566 242.87171 
L 500.794923 243.381069 
L 501.401995 242.873443 
L 501.604352 242.987005 
L 501.806709 243.396226 
L 502.009066 243.197227 
L 502.211423 243.158502 
L 502.413781 242.781681 
L 502.818495 243.256951 
L 503.020852 243.293689 
L 503.425567 242.749472 
L 503.627924 243.109213 
L 503.830281 243.169978 
L 504.032638 243.380332 
L 504.234995 242.941958 
L 504.437353 242.876147 
L 505.044424 243.36981 
L 505.246782 242.927054 
L 505.651496 242.926195 
L 505.853853 243.354964 
L 506.05621 243.27331 
L 506.258568 243.007362 
L 506.663282 242.958279 
L 506.865639 243.408888 
L 507.067996 243.18016 
L 507.270354 243.127841 
L 507.472711 242.817648 
L 507.877425 243.312205 
L 508.28214 243.116066 
L 508.484497 242.746105 
L 508.686854 243.127008 
L 509.091568 243.308847 
L 509.496283 242.843654 
L 509.69864 243.097067 
L 509.900997 243.168568 
L 510.103354 243.380117 
L 510.305712 242.919486 
L 510.710426 243.002451 
L 510.912783 243.302074 
L 511.115141 243.313691 
L 511.317498 242.947549 
L 511.722212 242.940795 
L 511.924569 243.384423 
L 512.531641 242.87972 
L 512.733998 242.989001 
L 512.936355 243.354169 
L 513.138713 243.157368 
L 513.34107 243.118421 
L 513.543427 242.784369 
L 513.745784 243.114875 
L 514.150499 243.237349 
L 514.555213 242.804515 
L 514.75757 243.147038 
L 514.959927 243.173502 
L 515.162285 243.3567 
L 515.364642 242.946335 
L 515.566999 242.918845 
L 516.174071 243.343993 
L 516.376428 242.923549 
L 516.578785 243.006298 
L 516.781142 242.958916 
L 516.9835 243.334331 
L 517.185857 243.232236 
L 517.388214 243.000519 
L 517.792928 242.967423 
L 517.995286 243.372438 
L 518.197643 243.130016 
L 518.4 243.092172 
L 518.4 243.092172 
" clip-path="url(#pb170d36b22)" style="fill: none; stroke: #2ca02c; stroke-width: 1.5; stroke-linecap: square"/>
   </g>
   <g id="patch_3">
    <path d="M 72 320.4 
L 72 43.2 
" style="fill: none; stroke: #000000; stroke-width: 0.8; stroke-linejoin: miter; stroke-linecap: square"/>
   </g>
   <g id="patch_4">
    <path d="M 518.4 320.4 
L 518.4 43.2 
" style="fill: none; stroke: #000000; stroke-width: 0.8; stroke-linejoin: miter; stroke-linecap: square"/>
   </g>
   <g id="patch_5">
    <path d="M 72 320.4 
L 518.4 320.4 
" style="fill: none; stroke: #000000; stroke-width: 0.8; stroke-linejoin: miter; stroke-linecap: square"/>
   </g>
   <g id="patch_6">
    <path d="M 72 43.2 
L 518.4 43.2 
" style="fill: none; stroke: #000000; stroke-width: 0.8; stroke-linejoin: miter; stroke-linecap: square"/>
   </g>
   <g id="text_13">
    <!-- Classic Transformer - model_20231123163105 -->
    <g transform="translate(155.436563 37.2) scale(0.12 -0.12)">
     <defs>
      <path id="DejaVuSans-43" d="M 4122 4306 
L 4122 3641 
Q 3803 3938 3442 4084 
Q 3081 4231 2675 4231 
Q 1875 4231 1450 3742 
Q 1025 3253 1025 2328 
Q 1025 1406 1450 917 
Q 1875 428 2675 428 
Q 3081 428 3442 575 
Q 3803 722 4122 1019 
L 4122 359 
Q 3791 134 3420 21 
Q 3050 -91 2638 -91 
Q 1578 -91 968 557 
Q 359 1206 359 2328 
Q 359 3453 968 4101 
Q 1578 4750 2638 4750 
Q 3056 4750 3426 4639 
Q 3797 4528 4122 4306 
z
" transform="scale(0.015625)"/>
      <path id="DejaVuSans-6c" d="M 603 4863 
L 1178 4863 
L 1178 0 
L 603 0 
L 603 4863 
z
" transform="scale(0.015625)"/>
      <path id="DejaVuSans-61" d="M 2194 1759 
Q 1497 1759 1228 1600 
Q 959 1441 959 1056 
Q 959 750 1161 570 
Q 1363 391 1709 391 
Q 2188 391 2477 730 
Q 2766 1069 2766 1631 
L 2766 1759 
L 2194 1759 
z
M 3341 1997 
L 3341 0 
L 2766 0 
L 2766 531 
Q 2569 213 2275 61 
Q 1981 -91 1556 -91 
Q 1019 -91 701 211 
Q 384 513 384 1019 
Q 384 1609 779 1909 
Q 1175 2209 1959 2209 
L 2766 2209 
L 2766 2266 
Q 2766 2663 2505 2880 
Q 2244 3097 1772 3097 
Q 1472 3097 1187 3025 
Q 903 2953 641 2809 
L 641 3341 
Q 956 3463 1253 3523 
Q 1550 3584 1831 3584 
Q 2591 3584 2966 3190 
Q 3341 2797 3341 1997 
z
" transform="scale(0.015625)"/>
      <path id="DejaVuSans-73" d="M 2834 3397 
L 2834 2853 
Q 2591 2978 2328 3040 
Q 2066 3103 1784 3103 
Q 1356 3103 1142 2972 
Q 928 2841 928 2578 
Q 928 2378 1081 2264 
Q 1234 2150 1697 2047 
L 1894 2003 
Q 2506 1872 2764 1633 
Q 3022 1394 3022 966 
Q 3022 478 2636 193 
Q 2250 -91 1575 -91 
Q 1294 -91 989 -36 
Q 684 19 347 128 
L 347 722 
Q 666 556 975 473 
Q 1284 391 1588 391 
Q 1994 391 2212 530 
Q 2431 669 2431 922 
Q 2431 1156 2273 1281 
Q 2116 1406 1581 1522 
L 1381 1569 
Q 847 1681 609 1914 
Q 372 2147 372 2553 
Q 372 3047 722 3315 
Q 1072 3584 1716 3584 
Q 2034 3584 2315 3537 
Q 2597 3491 2834 3397 
z
" transform="scale(0.015625)"/>
      <path id="DejaVuSans-69" d="M 603 3500 
L 1178 3500 
L 1178 0 
L 603 0 
L 603 3500 
z
M 603 4863 
L 1178 4863 
L 1178 4134 
L 603 4134 
L 603 4863 
z
" transform="scale(0.015625)"/>
      <path id="DejaVuSans-63" d="M 3122 3366 
L 3122 2828 
Q 2878 2963 2633 3030 
Q 2388 3097 2138 3097 
Q 1578 3097 1268 2742 
Q 959 2388 959 1747 
Q 959 1106 1268 751 
Q 1578 397 2138 397 
Q 2388 397 2633 464 
Q 2878 531 3122 666 
L 3122 134 
Q 2881 22 2623 -34 
Q 2366 -91 2075 -91 
Q 1284 -91 818 406 
Q 353 903 353 1747 
Q 353 2603 823 3093 
Q 1294 3584 2113 3584 
Q 2378 3584 2631 3529 
Q 2884 3475 3122 3366 
z
" transform="scale(0.015625)"/>
      <path id="DejaVuSans-20" transform="scale(0.015625)"/>
      <path id="DejaVuSans-54" d="M -19 4666 
L 3928 4666 
L 3928 4134 
L 2272 4134 
L 2272 0 
L 1638 0 
L 1638 4134 
L -19 4134 
L -19 4666 
z
" transform="scale(0.015625)"/>
      <path id="DejaVuSans-72" d="M 2631 2963 
Q 2534 3019 2420 3045 
Q 2306 3072 2169 3072 
Q 1681 3072 1420 2755 
Q 1159 2438 1159 1844 
L 1159 0 
L 581 0 
L 581 3500 
L 1159 3500 
L 1159 2956 
Q 1341 3275 1631 3429 
Q 1922 3584 2338 3584 
Q 2397 3584 2469 3576 
Q 2541 3569 2628 3553 
L 2631 2963 
z
" transform="scale(0.015625)"/>
      <path id="DejaVuSans-6e" d="M 3513 2113 
L 3513 0 
L 2938 0 
L 2938 2094 
Q 2938 2591 2744 2837 
Q 2550 3084 2163 3084 
Q 1697 3084 1428 2787 
Q 1159 2491 1159 1978 
L 1159 0 
L 581 0 
L 581 3500 
L 1159 3500 
L 1159 2956 
Q 1366 3272 1645 3428 
Q 1925 3584 2291 3584 
Q 2894 3584 3203 3211 
Q 3513 2838 3513 2113 
z
" transform="scale(0.015625)"/>
      <path id="DejaVuSans-66" d="M 2375 4863 
L 2375 4384 
L 1825 4384 
Q 1516 4384 1395 4259 
Q 1275 4134 1275 3809 
L 1275 3500 
L 2222 3500 
L 2222 3053 
L 1275 3053 
L 1275 0 
L 697 0 
L 697 3053 
L 147 3053 
L 147 3500 
L 697 3500 
L 697 3744 
Q 697 4328 969 4595 
Q 1241 4863 1831 4863 
L 2375 4863 
z
" transform="scale(0.015625)"/>
      <path id="DejaVuSans-6f" d="M 1959 3097 
Q 1497 3097 1228 2736 
Q 959 2375 959 1747 
Q 959 1119 1226 758 
Q 1494 397 1959 397 
Q 2419 397 2687 759 
Q 2956 1122 2956 1747 
Q 2956 2369 2687 2733 
Q 2419 3097 1959 3097 
z
M 1959 3584 
Q 2709 3584 3137 3096 
Q 3566 2609 3566 1747 
Q 3566 888 3137 398 
Q 2709 -91 1959 -91 
Q 1206 -91 779 398 
Q 353 888 353 1747 
Q 353 2609 779 3096 
Q 1206 3584 1959 3584 
z
" transform="scale(0.015625)"/>
      <path id="DejaVuSans-6d" d="M 3328 2828 
Q 3544 3216 3844 3400 
Q 4144 3584 4550 3584 
Q 5097 3584 5394 3201 
Q 5691 2819 5691 2113 
L 5691 0 
L 5113 0 
L 5113 2094 
Q 5113 2597 4934 2840 
Q 4756 3084 4391 3084 
Q 3944 3084 3684 2787 
Q 3425 2491 3425 1978 
L 3425 0 
L 2847 0 
L 2847 2094 
Q 2847 2600 2669 2842 
Q 2491 3084 2119 3084 
Q 1678 3084 1418 2786 
Q 1159 2488 1159 1978 
L 1159 0 
L 581 0 
L 581 3500 
L 1159 3500 
L 1159 2956 
Q 1356 3278 1631 3431 
Q 1906 3584 2284 3584 
Q 2666 3584 2933 3390 
Q 3200 3197 3328 2828 
z
" transform="scale(0.015625)"/>
      <path id="DejaVuSans-65" d="M 3597 1894 
L 3597 1613 
L 953 1613 
Q 991 1019 1311 708 
Q 1631 397 2203 397 
Q 2534 397 2845 478 
Q 3156 559 3463 722 
L 3463 178 
Q 3153 47 2828 -22 
Q 2503 -91 2169 -91 
Q 1331 -91 842 396 
Q 353 884 353 1716 
Q 353 2575 817 3079 
Q 1281 3584 2069 3584 
Q 2775 3584 3186 3129 
Q 3597 2675 3597 1894 
z
M 3022 2063 
Q 3016 2534 2758 2815 
Q 2500 3097 2075 3097 
Q 1594 3097 1305 2825 
Q 1016 2553 972 2059 
L 3022 2063 
z
" transform="scale(0.015625)"/>
      <path id="DejaVuSans-64" d="M 2906 2969 
L 2906 4863 
L 3481 4863 
L 3481 0 
L 2906 0 
L 2906 525 
Q 2725 213 2448 61 
Q 2172 -91 1784 -91 
Q 1150 -91 751 415 
Q 353 922 353 1747 
Q 353 2572 751 3078 
Q 1150 3584 1784 3584 
Q 2172 3584 2448 3432 
Q 2725 3281 2906 2969 
z
M 947 1747 
Q 947 1113 1208 752 
Q 1469 391 1925 391 
Q 2381 391 2643 752 
Q 2906 1113 2906 1747 
Q 2906 2381 2643 2742 
Q 2381 3103 1925 3103 
Q 1469 3103 1208 2742 
Q 947 2381 947 1747 
z
" transform="scale(0.015625)"/>
      <path id="DejaVuSans-5f" d="M 3263 -1063 
L 3263 -1509 
L -63 -1509 
L -63 -1063 
L 3263 -1063 
z
" transform="scale(0.015625)"/>
     </defs>
     <use xlink:href="#DejaVuSans-43"/>
     <use xlink:href="#DejaVuSans-6c" x="69.824219"/>
     <use xlink:href="#DejaVuSans-61" x="97.607422"/>
     <use xlink:href="#DejaVuSans-73" x="158.886719"/>
     <use xlink:href="#DejaVuSans-73" x="210.986328"/>
     <use xlink:href="#DejaVuSans-69" x="263.085938"/>
     <use xlink:href="#DejaVuSans-63" x="290.869141"/>
     <use xlink:href="#DejaVuSans-20" x="345.849609"/>
     <use xlink:href="#DejaVuSans-54" x="377.636719"/>
     <use xlink:href="#DejaVuSans-72" x="423.970703"/>
     <use xlink:href="#DejaVuSans-61" x="465.083984"/>
     <use xlink:href="#DejaVuSans-6e" x="526.363281"/>
     <use xlink:href="#DejaVuSans-73" x="589.742188"/>
     <use xlink:href="#DejaVuSans-66" x="641.841797"/>
     <use xlink:href="#DejaVuSans-6f" x="677.046875"/>
     <use xlink:href="#DejaVuSans-72" x="738.228516"/>
     <use xlink:href="#DejaVuSans-6d" x="777.591797"/>
     <use xlink:href="#DejaVuSans-65" x="875.003906"/>
     <use xlink:href="#DejaVuSans-72" x="936.527344"/>
     <use xlink:href="#DejaVuSans-20" x="977.640625"/>
     <use xlink:href="#DejaVuSans-2d" x="1009.427734"/>
     <use xlink:href="#DejaVuSans-20" x="1045.511719"/>
     <use xlink:href="#DejaVuSans-6d" x="1077.298828"/>
     <use xlink:href="#DejaVuSans-6f" x="1174.710938"/>
     <use xlink:href="#DejaVuSans-64" x="1235.892578"/>
     <use xlink:href="#DejaVuSans-65" x="1299.369141"/>
     <use xlink:href="#DejaVuSans-6c" x="1360.892578"/>
     <use xlink:href="#DejaVuSans-5f" x="1388.675781"/>
     <use xlink:href="#DejaVuSans-32" x="1438.675781"/>
     <use xlink:href="#DejaVuSans-30" x="1502.298828"/>
     <use xlink:href="#DejaVuSans-32" x="1565.921875"/>
     <use xlink:href="#DejaVuSans-33" x="1629.544922"/>
     <use xlink:href="#DejaVuSans-31" x="1693.167969"/>
     <use xlink:href="#DejaVuSans-31" x="1756.791016"/>
     <use xlink:href="#DejaVuSans-32" x="1820.414062"/>
     <use xlink:href="#DejaVuSans-33" x="1884.037109"/>
     <use xlink:href="#DejaVuSans-31" x="1947.660156"/>
     <use xlink:href="#DejaVuSans-36" x="2011.283203"/>
     <use xlink:href="#DejaVuSans-33" x="2074.90625"/>
     <use xlink:href="#DejaVuSans-31" x="2138.529297"/>
     <use xlink:href="#DejaVuSans-30" x="2202.152344"/>
     <use xlink:href="#DejaVuSans-35" x="2265.775391"/>
    </g>
   </g>
   <g id="legend_1">
    <g id="patch_7">
     <path d="M 79 95.234375 
L 161.517188 95.234375 
Q 163.517188 95.234375 163.517188 93.234375 
L 163.517188 50.2 
Q 163.517188 48.2 161.517188 48.2 
L 79 48.2 
Q 77 48.2 77 50.2 
L 77 93.234375 
Q 77 95.234375 79 95.234375 
z
" style="fill: #ffffff; opacity: 0.8; stroke: #cccccc; stroke-linejoin: miter"/>
    </g>
    <g id="line2d_16">
     <path d="M 81 56.298437 
L 91 56.298437 
L 101 56.298437 
" style="fill: none; stroke: #1f77b4; stroke-width: 1.5; stroke-linecap: square"/>
    </g>
    <g id="text_14">
     <!-- Measured -->
     <g transform="translate(109 59.798437) scale(0.1 -0.1)">
      <defs>
       <path id="DejaVuSans-4d" d="M 628 4666 
L 1569 4666 
L 2759 1491 
L 3956 4666 
L 4897 4666 
L 4897 0 
L 4281 0 
L 4281 4097 
L 3078 897 
L 2444 897 
L 1241 4097 
L 1241 0 
L 628 0 
L 628 4666 
z
" transform="scale(0.015625)"/>
       <path id="DejaVuSans-75" d="M 544 1381 
L 544 3500 
L 1119 3500 
L 1119 1403 
Q 1119 906 1312 657 
Q 1506 409 1894 409 
Q 2359 409 2629 706 
Q 2900 1003 2900 1516 
L 2900 3500 
L 3475 3500 
L 3475 0 
L 2900 0 
L 2900 538 
Q 2691 219 2414 64 
Q 2138 -91 1772 -91 
Q 1169 -91 856 284 
Q 544 659 544 1381 
z
M 1991 3584 
L 1991 3584 
z
" transform="scale(0.015625)"/>
      </defs>
      <use xlink:href="#DejaVuSans-4d"/>
      <use xlink:href="#DejaVuSans-65" x="86.279297"/>
      <use xlink:href="#DejaVuSans-61" x="147.802734"/>
      <use xlink:href="#DejaVuSans-73" x="209.082031"/>
      <use xlink:href="#DejaVuSans-75" x="261.181641"/>
      <use xlink:href="#DejaVuSans-72" x="324.560547"/>
      <use xlink:href="#DejaVuSans-65" x="363.423828"/>
      <use xlink:href="#DejaVuSans-64" x="424.947266"/>
     </g>
    </g>
    <g id="line2d_17">
     <path d="M 81 70.976562 
L 91 70.976562 
L 101 70.976562 
" style="fill: none; stroke: #ff7f0e; stroke-width: 1.5; stroke-linecap: square"/>
    </g>
    <g id="text_15">
     <!-- Fitted -->
     <g transform="translate(109 74.476562) scale(0.1 -0.1)">
      <defs>
       <path id="DejaVuSans-46" d="M 628 4666 
L 3309 4666 
L 3309 4134 
L 1259 4134 
L 1259 2759 
L 3109 2759 
L 3109 2228 
L 1259 2228 
L 1259 0 
L 628 0 
L 628 4666 
z
" transform="scale(0.015625)"/>
       <path id="DejaVuSans-74" d="M 1172 4494 
L 1172 3500 
L 2356 3500 
L 2356 3053 
L 1172 3053 
L 1172 1153 
Q 1172 725 1289 603 
Q 1406 481 1766 481 
L 2356 481 
L 2356 0 
L 1766 0 
Q 1100 0 847 248 
Q 594 497 594 1153 
L 594 3053 
L 172 3053 
L 172 3500 
L 594 3500 
L 594 4494 
L 1172 4494 
z
" transform="scale(0.015625)"/>
      </defs>
      <use xlink:href="#DejaVuSans-46"/>
      <use xlink:href="#DejaVuSans-69" x="50.269531"/>
      <use xlink:href="#DejaVuSans-74" x="78.052734"/>
      <use xlink:href="#DejaVuSans-74" x="117.261719"/>
      <use xlink:href="#DejaVuSans-65" x="156.470703"/>
      <use xlink:href="#DejaVuSans-64" x="217.994141"/>
     </g>
    </g>
    <g id="line2d_18">
     <path d="M 81 85.654687 
L 91 85.654687 
L 101 85.654687 
" style="fill: none; stroke: #2ca02c; stroke-width: 1.5; stroke-linecap: square"/>
    </g>
    <g id="text_16">
     <!-- Estimated -->
     <g transform="translate(109 89.154687) scale(0.1 -0.1)">
      <defs>
       <path id="DejaVuSans-45" d="M 628 4666 
L 3578 4666 
L 3578 4134 
L 1259 4134 
L 1259 2753 
L 3481 2753 
L 3481 2222 
L 1259 2222 
L 1259 531 
L 3634 531 
L 3634 0 
L 628 0 
L 628 4666 
z
" transform="scale(0.015625)"/>
      </defs>
      <use xlink:href="#DejaVuSans-45"/>
      <use xlink:href="#DejaVuSans-73" x="63.183594"/>
      <use xlink:href="#DejaVuSans-74" x="115.283203"/>
      <use xlink:href="#DejaVuSans-69" x="154.492188"/>
      <use xlink:href="#DejaVuSans-6d" x="182.275391"/>
      <use xlink:href="#DejaVuSans-61" x="279.6875"/>
      <use xlink:href="#DejaVuSans-74" x="340.966797"/>
      <use xlink:href="#DejaVuSans-65" x="380.175781"/>
      <use xlink:href="#DejaVuSans-64" x="441.699219"/>
     </g>
    </g>
   </g>
  </g>
 </g>
 <defs>
  <clipPath id="pb170d36b22">
   <rect x="72" y="43.2" width="446.4" height="277.2"/>
  </clipPath>
 </defs>
</svg>
