<?xml version="1.0" encoding="utf-8" standalone="no"?>
<!DOCTYPE svg PUBLIC "-//W3C//DTD SVG 1.1//EN"
  "http://www.w3.org/Graphics/SVG/1.1/DTD/svg11.dtd">
<svg xmlns:xlink="http://www.w3.org/1999/xlink" width="576pt" height="360pt" viewBox="0 0 576 360" xmlns="http://www.w3.org/2000/svg" version="1.1">
 <metadata>
  <rdf:RDF xmlns:dc="http://purl.org/dc/elements/1.1/" xmlns:cc="http://creativecommons.org/ns#" xmlns:rdf="http://www.w3.org/1999/02/22-rdf-syntax-ns#">
   <cc:Work>
    <dc:type rdf:resource="http://purl.org/dc/dcmitype/StillImage"/>
    <dc:date>2023-11-23T17:06:46.755158</dc:date>
    <dc:format>image/svg+xml</dc:format>
    <dc:creator>
     <cc:Agent>
      <dc:title>Matplotlib v3.8.1, https://matplotlib.org/</dc:title>
     </cc:Agent>
    </dc:creator>
   </cc:Work>
  </rdf:RDF>
 </metadata>
 <defs>
  <style type="text/css">*{stroke-linejoin: round; stroke-linecap: butt}</style>
 </defs>
 <g id="figure_1">
  <g id="patch_1">
   <path d="M 0 360 
L 576 360 
L 576 0 
L 0 0 
z
" style="fill: #ffffff"/>
  </g>
  <g id="axes_1">
   <g id="patch_2">
    <path d="M 72 320.4 
L 518.4 320.4 
L 518.4 43.2 
L 72 43.2 
z
" style="fill: #ffffff"/>
   </g>
   <g id="matplotlib.axis_1">
    <g id="xtick_1">
     <g id="line2d_1">
      <defs>
       <path id="mbbdaeaac22" d="M 0 0 
L 0 3.5 
" style="stroke: #000000; stroke-width: 0.8"/>
      </defs>
      <g>
       <use xlink:href="#mbbdaeaac22" x="129.874161" y="320.4" style="stroke: #000000; stroke-width: 0.8"/>
      </g>
     </g>
     <g id="text_1">
      <!-- 2020-05-15 -->
      <g transform="translate(100.816349 334.998438) scale(0.1 -0.1)">
       <defs>
        <path id="DejaVuSans-32" d="M 1228 531 
L 3431 531 
L 3431 0 
L 469 0 
L 469 531 
Q 828 903 1448 1529 
Q 2069 2156 2228 2338 
Q 2531 2678 2651 2914 
Q 2772 3150 2772 3378 
Q 2772 3750 2511 3984 
Q 2250 4219 1831 4219 
Q 1534 4219 1204 4116 
Q 875 4013 500 3803 
L 500 4441 
Q 881 4594 1212 4672 
Q 1544 4750 1819 4750 
Q 2544 4750 2975 4387 
Q 3406 4025 3406 3419 
Q 3406 3131 3298 2873 
Q 3191 2616 2906 2266 
Q 2828 2175 2409 1742 
Q 1991 1309 1228 531 
z
" transform="scale(0.015625)"/>
        <path id="DejaVuSans-30" d="M 2034 4250 
Q 1547 4250 1301 3770 
Q 1056 3291 1056 2328 
Q 1056 1369 1301 889 
Q 1547 409 2034 409 
Q 2525 409 2770 889 
Q 3016 1369 3016 2328 
Q 3016 3291 2770 3770 
Q 2525 4250 2034 4250 
z
M 2034 4750 
Q 2819 4750 3233 4129 
Q 3647 3509 3647 2328 
Q 3647 1150 3233 529 
Q 2819 -91 2034 -91 
Q 1250 -91 836 529 
Q 422 1150 422 2328 
Q 422 3509 836 4129 
Q 1250 4750 2034 4750 
z
" transform="scale(0.015625)"/>
        <path id="DejaVuSans-2d" d="M 313 2009 
L 1997 2009 
L 1997 1497 
L 313 1497 
L 313 2009 
z
" transform="scale(0.015625)"/>
        <path id="DejaVuSans-35" d="M 691 4666 
L 3169 4666 
L 3169 4134 
L 1269 4134 
L 1269 2991 
Q 1406 3038 1543 3061 
Q 1681 3084 1819 3084 
Q 2600 3084 3056 2656 
Q 3513 2228 3513 1497 
Q 3513 744 3044 326 
Q 2575 -91 1722 -91 
Q 1428 -91 1123 -41 
Q 819 9 494 109 
L 494 744 
Q 775 591 1075 516 
Q 1375 441 1709 441 
Q 2250 441 2565 725 
Q 2881 1009 2881 1497 
Q 2881 1984 2565 2268 
Q 2250 2553 1709 2553 
Q 1456 2553 1204 2497 
Q 953 2441 691 2322 
L 691 4666 
z
" transform="scale(0.015625)"/>
        <path id="DejaVuSans-31" d="M 794 531 
L 1825 531 
L 1825 4091 
L 703 3866 
L 703 4441 
L 1819 4666 
L 2450 4666 
L 2450 531 
L 3481 531 
L 3481 0 
L 794 0 
L 794 531 
z
" transform="scale(0.015625)"/>
       </defs>
       <use xlink:href="#DejaVuSans-32"/>
       <use xlink:href="#DejaVuSans-30" x="63.623047"/>
       <use xlink:href="#DejaVuSans-32" x="127.246094"/>
       <use xlink:href="#DejaVuSans-30" x="190.869141"/>
       <use xlink:href="#DejaVuSans-2d" x="254.492188"/>
       <use xlink:href="#DejaVuSans-30" x="290.576172"/>
       <use xlink:href="#DejaVuSans-35" x="354.199219"/>
       <use xlink:href="#DejaVuSans-2d" x="417.822266"/>
       <use xlink:href="#DejaVuSans-31" x="453.90625"/>
       <use xlink:href="#DejaVuSans-35" x="517.529297"/>
      </g>
     </g>
    </g>
    <g id="xtick_2">
     <g id="line2d_2">
      <g>
       <use xlink:href="#mbbdaeaac22" x="212.435902" y="320.4" style="stroke: #000000; stroke-width: 0.8"/>
      </g>
     </g>
     <g id="text_2">
      <!-- 2020-06-01 -->
      <g transform="translate(183.37809 334.998438) scale(0.1 -0.1)">
       <defs>
        <path id="DejaVuSans-36" d="M 2113 2584 
Q 1688 2584 1439 2293 
Q 1191 2003 1191 1497 
Q 1191 994 1439 701 
Q 1688 409 2113 409 
Q 2538 409 2786 701 
Q 3034 994 3034 1497 
Q 3034 2003 2786 2293 
Q 2538 2584 2113 2584 
z
M 3366 4563 
L 3366 3988 
Q 3128 4100 2886 4159 
Q 2644 4219 2406 4219 
Q 1781 4219 1451 3797 
Q 1122 3375 1075 2522 
Q 1259 2794 1537 2939 
Q 1816 3084 2150 3084 
Q 2853 3084 3261 2657 
Q 3669 2231 3669 1497 
Q 3669 778 3244 343 
Q 2819 -91 2113 -91 
Q 1303 -91 875 529 
Q 447 1150 447 2328 
Q 447 3434 972 4092 
Q 1497 4750 2381 4750 
Q 2619 4750 2861 4703 
Q 3103 4656 3366 4563 
z
" transform="scale(0.015625)"/>
       </defs>
       <use xlink:href="#DejaVuSans-32"/>
       <use xlink:href="#DejaVuSans-30" x="63.623047"/>
       <use xlink:href="#DejaVuSans-32" x="127.246094"/>
       <use xlink:href="#DejaVuSans-30" x="190.869141"/>
       <use xlink:href="#DejaVuSans-2d" x="254.492188"/>
       <use xlink:href="#DejaVuSans-30" x="290.576172"/>
       <use xlink:href="#DejaVuSans-36" x="354.199219"/>
       <use xlink:href="#DejaVuSans-2d" x="417.822266"/>
       <use xlink:href="#DejaVuSans-30" x="453.90625"/>
       <use xlink:href="#DejaVuSans-31" x="517.529297"/>
      </g>
     </g>
    </g>
    <g id="xtick_3">
     <g id="line2d_3">
      <g>
       <use xlink:href="#mbbdaeaac22" x="280.427924" y="320.4" style="stroke: #000000; stroke-width: 0.8"/>
      </g>
     </g>
     <g id="text_3">
      <!-- 2020-06-15 -->
      <g transform="translate(251.370111 334.998438) scale(0.1 -0.1)">
       <use xlink:href="#DejaVuSans-32"/>
       <use xlink:href="#DejaVuSans-30" x="63.623047"/>
       <use xlink:href="#DejaVuSans-32" x="127.246094"/>
       <use xlink:href="#DejaVuSans-30" x="190.869141"/>
       <use xlink:href="#DejaVuSans-2d" x="254.492188"/>
       <use xlink:href="#DejaVuSans-30" x="290.576172"/>
       <use xlink:href="#DejaVuSans-36" x="354.199219"/>
       <use xlink:href="#DejaVuSans-2d" x="417.822266"/>
       <use xlink:href="#DejaVuSans-31" x="453.90625"/>
       <use xlink:href="#DejaVuSans-35" x="517.529297"/>
      </g>
     </g>
    </g>
    <g id="xtick_4">
     <g id="line2d_4">
      <g>
       <use xlink:href="#mbbdaeaac22" x="358.133092" y="320.4" style="stroke: #000000; stroke-width: 0.8"/>
      </g>
     </g>
     <g id="text_4">
      <!-- 2020-07-01 -->
      <g transform="translate(329.075279 334.998438) scale(0.1 -0.1)">
       <defs>
        <path id="DejaVuSans-37" d="M 525 4666 
L 3525 4666 
L 3525 4397 
L 1831 0 
L 1172 0 
L 2766 4134 
L 525 4134 
L 525 4666 
z
" transform="scale(0.015625)"/>
       </defs>
       <use xlink:href="#DejaVuSans-32"/>
       <use xlink:href="#DejaVuSans-30" x="63.623047"/>
       <use xlink:href="#DejaVuSans-32" x="127.246094"/>
       <use xlink:href="#DejaVuSans-30" x="190.869141"/>
       <use xlink:href="#DejaVuSans-2d" x="254.492188"/>
       <use xlink:href="#DejaVuSans-30" x="290.576172"/>
       <use xlink:href="#DejaVuSans-37" x="354.199219"/>
       <use xlink:href="#DejaVuSans-2d" x="417.822266"/>
       <use xlink:href="#DejaVuSans-30" x="453.90625"/>
       <use xlink:href="#DejaVuSans-31" x="517.529297"/>
      </g>
     </g>
    </g>
    <g id="xtick_5">
     <g id="line2d_5">
      <g>
       <use xlink:href="#mbbdaeaac22" x="426.125113" y="320.4" style="stroke: #000000; stroke-width: 0.8"/>
      </g>
     </g>
     <g id="text_5">
      <!-- 2020-07-15 -->
      <g transform="translate(397.067301 334.998438) scale(0.1 -0.1)">
       <use xlink:href="#DejaVuSans-32"/>
       <use xlink:href="#DejaVuSans-30" x="63.623047"/>
       <use xlink:href="#DejaVuSans-32" x="127.246094"/>
       <use xlink:href="#DejaVuSans-30" x="190.869141"/>
       <use xlink:href="#DejaVuSans-2d" x="254.492188"/>
       <use xlink:href="#DejaVuSans-30" x="290.576172"/>
       <use xlink:href="#DejaVuSans-37" x="354.199219"/>
       <use xlink:href="#DejaVuSans-2d" x="417.822266"/>
       <use xlink:href="#DejaVuSans-31" x="453.90625"/>
       <use xlink:href="#DejaVuSans-35" x="517.529297"/>
      </g>
     </g>
    </g>
    <g id="xtick_6">
     <g id="line2d_6">
      <g>
       <use xlink:href="#mbbdaeaac22" x="508.686854" y="320.4" style="stroke: #000000; stroke-width: 0.8"/>
      </g>
     </g>
     <g id="text_6">
      <!-- 2020-08-01 -->
      <g transform="translate(479.629042 334.998438) scale(0.1 -0.1)">
       <defs>
        <path id="DejaVuSans-38" d="M 2034 2216 
Q 1584 2216 1326 1975 
Q 1069 1734 1069 1313 
Q 1069 891 1326 650 
Q 1584 409 2034 409 
Q 2484 409 2743 651 
Q 3003 894 3003 1313 
Q 3003 1734 2745 1975 
Q 2488 2216 2034 2216 
z
M 1403 2484 
Q 997 2584 770 2862 
Q 544 3141 544 3541 
Q 544 4100 942 4425 
Q 1341 4750 2034 4750 
Q 2731 4750 3128 4425 
Q 3525 4100 3525 3541 
Q 3525 3141 3298 2862 
Q 3072 2584 2669 2484 
Q 3125 2378 3379 2068 
Q 3634 1759 3634 1313 
Q 3634 634 3220 271 
Q 2806 -91 2034 -91 
Q 1263 -91 848 271 
Q 434 634 434 1313 
Q 434 1759 690 2068 
Q 947 2378 1403 2484 
z
M 1172 3481 
Q 1172 3119 1398 2916 
Q 1625 2713 2034 2713 
Q 2441 2713 2670 2916 
Q 2900 3119 2900 3481 
Q 2900 3844 2670 4047 
Q 2441 4250 2034 4250 
Q 1625 4250 1398 4047 
Q 1172 3844 1172 3481 
z
" transform="scale(0.015625)"/>
       </defs>
       <use xlink:href="#DejaVuSans-32"/>
       <use xlink:href="#DejaVuSans-30" x="63.623047"/>
       <use xlink:href="#DejaVuSans-32" x="127.246094"/>
       <use xlink:href="#DejaVuSans-30" x="190.869141"/>
       <use xlink:href="#DejaVuSans-2d" x="254.492188"/>
       <use xlink:href="#DejaVuSans-30" x="290.576172"/>
       <use xlink:href="#DejaVuSans-38" x="354.199219"/>
       <use xlink:href="#DejaVuSans-2d" x="417.822266"/>
       <use xlink:href="#DejaVuSans-30" x="453.90625"/>
       <use xlink:href="#DejaVuSans-31" x="517.529297"/>
      </g>
     </g>
    </g>
   </g>
   <g id="matplotlib.axis_2">
    <g id="ytick_1">
     <g id="line2d_7">
      <defs>
       <path id="mc43c0fd4c8" d="M 0 0 
L -3.5 0 
" style="stroke: #000000; stroke-width: 0.8"/>
      </defs>
      <g>
       <use xlink:href="#mc43c0fd4c8" x="72" y="314.815493" style="stroke: #000000; stroke-width: 0.8"/>
      </g>
     </g>
     <g id="text_7">
      <!-- −2 -->
      <g transform="translate(50.257812 318.614712) scale(0.1 -0.1)">
       <defs>
        <path id="DejaVuSans-2212" d="M 678 2272 
L 4684 2272 
L 4684 1741 
L 678 1741 
L 678 2272 
z
" transform="scale(0.015625)"/>
       </defs>
       <use xlink:href="#DejaVuSans-2212"/>
       <use xlink:href="#DejaVuSans-32" x="83.789062"/>
      </g>
     </g>
    </g>
    <g id="ytick_2">
     <g id="line2d_8">
      <g>
       <use xlink:href="#mc43c0fd4c8" x="72" y="262.986403" style="stroke: #000000; stroke-width: 0.8"/>
      </g>
     </g>
     <g id="text_8">
      <!-- −1 -->
      <g transform="translate(50.257812 266.785621) scale(0.1 -0.1)">
       <use xlink:href="#DejaVuSans-2212"/>
       <use xlink:href="#DejaVuSans-31" x="83.789062"/>
      </g>
     </g>
    </g>
    <g id="ytick_3">
     <g id="line2d_9">
      <g>
       <use xlink:href="#mc43c0fd4c8" x="72" y="211.157312" style="stroke: #000000; stroke-width: 0.8"/>
      </g>
     </g>
     <g id="text_9">
      <!-- 0 -->
      <g transform="translate(58.6375 214.956531) scale(0.1 -0.1)">
       <use xlink:href="#DejaVuSans-30"/>
      </g>
     </g>
    </g>
    <g id="ytick_4">
     <g id="line2d_10">
      <g>
       <use xlink:href="#mc43c0fd4c8" x="72" y="159.328222" style="stroke: #000000; stroke-width: 0.8"/>
      </g>
     </g>
     <g id="text_10">
      <!-- 1 -->
      <g transform="translate(58.6375 163.127441) scale(0.1 -0.1)">
       <use xlink:href="#DejaVuSans-31"/>
      </g>
     </g>
    </g>
    <g id="ytick_5">
     <g id="line2d_11">
      <g>
       <use xlink:href="#mc43c0fd4c8" x="72" y="107.499132" style="stroke: #000000; stroke-width: 0.8"/>
      </g>
     </g>
     <g id="text_11">
      <!-- 2 -->
      <g transform="translate(58.6375 111.29835) scale(0.1 -0.1)">
       <use xlink:href="#DejaVuSans-32"/>
      </g>
     </g>
    </g>
    <g id="ytick_6">
     <g id="line2d_12">
      <g>
       <use xlink:href="#mc43c0fd4c8" x="72" y="55.670041" style="stroke: #000000; stroke-width: 0.8"/>
      </g>
     </g>
     <g id="text_12">
      <!-- 3 -->
      <g transform="translate(58.6375 59.46926) scale(0.1 -0.1)">
       <defs>
        <path id="DejaVuSans-33" d="M 2597 2516 
Q 3050 2419 3304 2112 
Q 3559 1806 3559 1356 
Q 3559 666 3084 287 
Q 2609 -91 1734 -91 
Q 1441 -91 1130 -33 
Q 819 25 488 141 
L 488 750 
Q 750 597 1062 519 
Q 1375 441 1716 441 
Q 2309 441 2620 675 
Q 2931 909 2931 1356 
Q 2931 1769 2642 2001 
Q 2353 2234 1838 2234 
L 1294 2234 
L 1294 2753 
L 1863 2753 
Q 2328 2753 2575 2939 
Q 2822 3125 2822 3475 
Q 2822 3834 2567 4026 
Q 2313 4219 1838 4219 
Q 1578 4219 1281 4162 
Q 984 4106 628 3988 
L 628 4550 
Q 988 4650 1302 4700 
Q 1616 4750 1894 4750 
Q 2613 4750 3031 4423 
Q 3450 4097 3450 3541 
Q 3450 3153 3228 2886 
Q 3006 2619 2597 2516 
z
" transform="scale(0.015625)"/>
       </defs>
       <use xlink:href="#DejaVuSans-33"/>
      </g>
     </g>
    </g>
   </g>
   <g id="line2d_13">
    <path d="M 72 286.851453 
L 72.404714 297.835175 
L 72.607072 296.167277 
L 72.809429 285.834442 
L 73.214143 255.893628 
L 73.618858 243.852213 
L 75.035358 163.508317 
L 75.237715 160.640345 
L 75.440073 165.54234 
L 75.64243 173.495369 
L 75.844787 176.688784 
L 76.047144 191.455789 
L 76.654216 259.514188 
L 77.05893 282.824088 
L 77.261287 287.054855 
L 77.463645 286.688731 
L 77.666002 276.315215 
L 78.070716 248.713528 
L 78.475431 236.631433 
L 78.677788 227.783434 
L 79.487217 172.580058 
L 79.891931 156.816383 
L 80.094288 158.708024 
L 80.903717 199.795282 
L 81.713146 272.776016 
L 82.11786 286.973494 
L 82.320218 288.946496 
L 82.522575 288.661733 
L 82.724932 286.220906 
L 82.927289 279.610332 
L 83.332004 257.337784 
L 83.736718 243.465749 
L 83.939075 240.516416 
L 84.141432 240.780839 
L 84.546147 246.984608 
L 84.748504 249.018631 
L 84.950861 249.038971 
L 85.355576 253.107017 
L 85.557933 249.87292 
L 85.76029 255.812267 
L 86.569719 299.381033 
L 86.772076 305.279698 
L 86.974433 306.825556 
L 87.176791 306.886576 
L 87.379148 305.584802 
L 87.581505 301.964241 
L 87.783862 295.414688 
L 88.188577 274.03711 
L 88.390934 269.013074 
L 89.200363 261.182087 
L 89.40272 257.175062 
L 89.807434 242.835202 
L 90.212149 240.455395 
L 90.414506 237.831506 
L 90.616863 245.540452 
L 91.223935 294.580739 
L 91.628649 305.279698 
L 91.831006 305.340719 
L 92.033364 302.920232 
L 92.842792 258.171733 
L 93.04515 256.09703 
L 93.449864 247.757537 
L 93.652221 247.249031 
L 93.854578 244.401399 
L 94.056936 243.791193 
L 94.259293 241.248664 
L 94.46165 235.044895 
L 94.664007 232.278624 
L 94.866364 233.173594 
L 95.068722 236.224628 
L 95.271079 232.502367 
L 95.473436 242.306356 
L 96.080508 294.946863 
L 96.485222 303.876223 
L 96.687579 305.727183 
L 96.889937 301.516756 
L 97.699365 257.459825 
L 98.306437 247.269371 
L 98.508794 246.903247 
L 99.52058 226.318938 
L 99.722937 227.539351 
L 99.925295 231.770119 
L 100.127652 230.000519 
L 100.330009 239.845189 
L 100.937081 292.546716 
L 101.341795 304.445749 
L 101.544152 305.40174 
L 101.74651 301.80152 
L 101.948867 290.20759 
L 102.353581 261.080385 
L 102.555938 259.575209 
L 103.567724 242.326696 
L 104.377153 220.888097 
L 104.57951 222.128851 
L 104.781868 227.356289 
L 104.984225 227.335949 
L 105.186582 235.960205 
L 105.793654 289.495682 
L 106.198368 301.86254 
L 106.400725 303.571119 
L 106.603083 299.665796 
L 107.412511 255.120699 
L 107.614869 253.4528 
L 107.817226 249.893261 
L 108.22194 235.797483 
L 108.626655 214.745349 
L 108.829012 208.989064 
L 109.031369 207.158444 
L 109.638441 215.579298 
L 109.840798 220.847417 
L 110.043155 230.936169 
L 110.650227 284.329265 
L 111.054941 298.160619 
L 111.257298 300.01158 
L 111.459655 298.323341 
L 111.662013 287.258257 
L 112.066727 258.883641 
L 112.471442 244.340379 
L 113.887942 177.990559 
L 114.090299 175.692113 
L 114.292656 182.302687 
L 114.495014 193.38811 
L 114.697371 197.84262 
L 115.102085 230.834468 
L 115.709157 278.715362 
L 116.113871 292.241613 
L 116.316228 292.404335 
L 116.518586 290.797457 
L 116.720943 287.278598 
L 117.125657 260.856643 
L 118.542158 159.338571 
L 118.744515 149.534581 
L 118.946872 145.771639 
L 119.149229 149.331179 
L 119.756301 186.065629 
L 120.56573 263.033047 
L 120.970444 282.254562 
L 121.172801 286.220906 
L 121.375159 287.807444 
L 121.577516 286.403968 
L 121.779873 278.715362 
L 122.589302 229.24793 
L 123.196374 204.554895 
L 123.398731 200.120726 
L 123.601088 200.324128 
L 123.803445 199.774942 
L 124.410517 212.772347 
L 124.612874 223.410285 
L 125.219946 278.003454 
L 125.62466 292.099231 
L 125.827017 294.031553 
L 126.029374 291.570386 
L 127.04116 236.875516 
L 127.648232 200.588551 
L 128.255304 159.480952 
L 128.457661 152.158471 
L 128.660018 151.833027 
L 129.26709 194.832267 
L 130.278876 282.946129 
L 130.481233 290.533034 
L 130.68359 291.875489 
L 130.885947 289.373641 
L 132.504805 183.726503 
L 133.111877 142.334141 
L 133.314234 133.201379 
L 133.516591 134.848938 
L 133.921306 149.758324 
L 134.123663 156.958764 
L 135.135449 263.541553 
L 135.540163 275.786369 
L 135.74252 274.871059 
L 135.944878 264.599245 
L 136.349592 234.129585 
L 136.551949 227.559692 
L 136.754306 216.047123 
L 136.956664 220.481293 
L 137.159021 209.51791 
L 137.766092 200.954675 
L 137.96845 201.341139 
L 138.373164 196.093361 
L 138.777879 203.415842 
L 138.980236 204.229451 
L 139.182593 215.680999 
L 139.789665 270.619952 
L 140.194379 285.529338 
L 140.396736 287.543021 
L 140.599093 284.614028 
L 141.003808 255.303761 
L 141.408522 234.760132 
L 142.015594 221.762727 
L 142.622665 212.894388 
L 142.825023 212.629965 
L 143.02738 211.450232 
L 143.229737 212.121459 
L 143.634451 217.247197 
L 143.836809 216.047123 
L 144.039166 225.932473 
L 144.646238 273.813367 
L 145.050952 285.549678 
L 145.253309 286.810772 
L 145.455666 283.759738 
L 145.860381 254.978317 
L 146.062738 239.011239 
L 146.66981 223.023821 
L 146.872167 220.420272 
L 147.074524 219.36258 
L 147.479238 208.58226 
L 147.681596 216.799712 
L 147.883953 217.755702 
L 148.08631 220.298231 
L 148.491024 229.349632 
L 148.693382 228.027517 
L 149.098096 250.991633 
L 149.502811 278.349238 
L 149.907525 291.10256 
L 150.109882 293.116243 
L 150.312239 292.546716 
L 150.514597 289.780446 
L 150.716954 284.186883 
L 151.121668 263.724615 
L 151.526383 243.628471 
L 151.931097 237.933207 
L 152.133454 237.506063 
L 152.335811 239.438384 
L 152.538169 239.94689 
L 152.740526 237.933207 
L 152.942883 238.21797 
L 153.14524 237.26198 
L 153.347597 237.30266 
L 153.549955 234.434688 
L 153.752312 236.590752 
L 154.764098 287.075195 
L 154.966455 290.960179 
L 155.168812 292.322974 
L 155.573527 288.458331 
L 155.775884 277.59665 
L 156.78767 201.137737 
L 157.799456 159.31823 
L 158.001813 161.291232 
L 158.406528 174.247957 
L 158.608885 187.550465 
L 159.215956 254.896957 
L 159.620671 276.091473 
L 159.823028 279.244208 
L 160.025385 278.349238 
L 160.227743 268.728311 
L 160.632457 236.875516 
L 161.8466 187.509785 
L 162.251315 177.644775 
L 162.453672 177.787156 
L 162.656029 180.594108 
L 163.465458 211.816356 
L 164.072529 270.558931 
L 164.477244 288.824455 
L 164.679601 289.149899 
L 164.881958 285.976823 
L 165.084316 276.010112 
L 165.48903 244.828544 
L 166.500816 210.39254 
L 167.310245 168.26793 
L 167.512602 171.563047 
L 167.917316 191.760892 
L 168.119674 196.134041 
L 168.322031 207.280485 
L 168.929102 265.595916 
L 169.333817 280.505302 
L 169.536174 283.963141 
L 169.738531 280.362921 
L 170.143246 253.574842 
L 170.54796 223.81709 
L 171.357389 180.065262 
L 171.559746 174.146256 
L 172.166818 150.388871 
L 172.369175 151.975409 
L 172.571532 159.745375 
L 173.178604 198.005342 
L 173.785675 267.79266 
L 174.19039 286.831113 
L 174.392747 289.760105 
L 174.595104 287.970165 
L 174.999819 264.21278 
L 175.404533 239.662127 
L 177.023391 162.83709 
L 177.225748 163.345595 
L 177.428105 167.189898 
L 177.630462 183.48242 
L 177.83282 185.882567 
L 178.237534 229.20725 
L 178.642248 271.3522 
L 179.046963 290.20759 
L 179.24932 293.868831 
L 179.451677 291.387324 
L 179.654034 282.844428 
L 180.261106 243.689492 
L 181.879964 148.415869 
L 182.082321 145.202113 
L 182.284678 150.775335 
L 183.094107 206.141433 
L 183.498821 244.48276 
L 183.903536 265.575576 
L 184.30825 273.284522 
L 184.510607 274.626977 
L 184.712965 271.047097 
L 184.915322 257.88697 
L 185.724751 177.23797 
L 186.129465 156.206176 
L 186.331822 150.246489 
L 186.53418 149.493901 
L 186.736537 151.995749 
L 187.748323 191.781233 
L 188.557752 254.937637 
L 188.962466 268.891033 
L 189.164823 270.904715 
L 189.36718 270.986076 
L 189.569538 270.253828 
L 189.771895 259.636229 
L 190.986038 165.155876 
L 191.188395 159.928437 
L 191.390752 159.887757 
L 191.795467 168.898477 
L 192.604896 199.734261 
L 193.414325 262.117737 
L 193.819039 275.623648 
L 194.021396 276.681339 
L 194.426111 272.776016 
L 194.628468 263.948357 
L 195.437897 203.924348 
L 195.640254 198.981673 
L 195.842611 200.181746 
L 196.247325 206.161773 
L 196.449683 206.731299 
L 196.65204 206.344835 
L 197.056754 214.440245 
L 197.259112 215.274195 
L 197.461469 223.573007 
L 198.06854 271.250499 
L 198.473255 285.244575 
L 198.675612 285.346276 
L 198.877969 281.746056 
L 199.282684 251.378097 
L 199.687398 228.861466 
L 201.306256 163.345595 
L 201.508613 162.206543 
L 202.115684 181.143294 
L 202.318042 192.147357 
L 202.925113 255.364782 
L 203.329828 272.776016 
L 203.532185 274.850719 
L 203.734542 271.901386 
L 203.936899 260.531199 
L 204.341614 226.990165 
L 205.758114 173.047884 
L 205.960471 170.586716 
L 206.162829 170.729098 
L 206.365186 172.132573 
L 206.7699 183.828204 
L 206.972257 186.980939 
L 207.174615 197.679898 
L 207.781686 255.954648 
L 208.186401 271.901386 
L 208.388758 274.91174 
L 208.591115 271.616623 
L 208.793472 259.900652 
L 209.198187 226.54268 
L 209.805258 204.554895 
L 210.209973 184.926576 
L 210.817044 143.778297 
L 211.019402 135.398124 
L 211.221759 138.327116 
L 211.626473 162.491306 
L 211.82883 167.637383 
L 212.031188 182.180645 
L 212.638259 246.394742 
L 213.042974 264.741626 
L 213.245331 268.68763 
L 213.447688 266.999391 
L 213.650045 256.422474 
L 214.257117 213.707997 
L 214.661831 187.692847 
L 215.47126 129.092653 
L 215.875975 112.576389 
L 216.078332 112.108564 
L 216.280689 117.580085 
L 217.090118 180.553427 
L 217.697189 241.696149 
L 218.101904 259.920993 
L 218.304261 263.23645 
L 218.506618 264.578904 
L 218.708976 263.338151 
L 218.911333 250.76789 
L 219.518404 196.662887 
L 220.125476 161.901439 
L 220.327833 159.765715 
L 220.53019 161.96246 
L 221.541976 203.741286 
L 221.744334 208.826343 
L 222.553762 265.006049 
L 222.958477 275.745689 
L 223.160834 277.433928 
L 223.363191 277.779712 
L 223.565549 276.233854 
L 223.767906 267.629939 
L 224.374977 229.898818 
L 224.779692 222.413614 
L 225.386763 224.447637 
L 225.589121 227.925816 
L 225.791478 228.800445 
L 226.196192 237.078918 
L 226.398549 236.733134 
L 226.600907 243.079285 
L 227.410335 296.024895 
L 227.612693 300.01158 
L 227.81505 301.679478 
L 228.017407 298.526743 
L 228.826836 256.463154 
L 229.029193 254.164708 
L 229.23155 248.489785 
L 230.648051 185.862227 
L 230.850408 186.431753 
L 231.255122 200.669912 
L 231.45748 211.429892 
L 232.064551 274.321873 
L 232.469266 291.285622 
L 232.671623 293.970532 
L 232.87398 292.770459 
L 233.278694 267.79266 
L 233.683409 245.540452 
L 235.302267 181.753501 
L 235.504624 181.163634 
L 236.111695 200.039365 
L 236.314053 210.270499 
L 236.921124 271.636963 
L 237.325839 287.319278 
L 237.528196 290.410993 
L 237.730553 288.315949 
L 238.135267 264.660265 
L 238.539982 243.140305 
L 239.349411 212.589285 
L 239.754125 202.703934 
L 240.15884 192.615182 
L 240.361197 192.371099 
L 240.563554 197.761259 
L 240.968268 215.152153 
L 241.170626 222.637357 
L 241.777697 277.494949 
L 242.182412 293.156923 
L 242.384769 295.618091 
L 242.587126 292.668758 
L 242.99184 268.260486 
L 243.396555 250.523808 
L 245.21777 176.790485 
L 245.420127 180.980572 
L 246.027199 207.443207 
L 246.836627 280.017137 
L 247.038985 288.275269 
L 247.241342 291.407664 
L 247.443699 288.905816 
L 247.848413 265.636596 
L 249.467271 155.026443 
L 249.669628 147.053074 
L 249.871985 145.141092 
L 250.074343 145.303814 
L 250.2767 152.158471 
L 250.883772 183.868884 
L 251.6932 257.90731 
L 252.097915 272.24717 
L 252.300272 275.277864 
L 252.502629 275.542287 
L 252.704986 271.718324 
L 253.109701 239.377363 
L 253.91913 167.088197 
L 254.323844 151.487243 
L 254.728558 142.781626 
L 254.930916 141.540872 
L 255.133273 148.944715 
L 255.740345 185.943587 
L 256.549773 260.205756 
L 256.954488 275.481266 
L 257.156845 279.244208 
L 257.359202 280.891766 
L 257.561559 279.935776 
L 257.966274 251.418778 
L 258.573345 201.666583 
L 258.97806 180.268664 
L 259.382774 169.386643 
L 259.585131 165.989825 
L 259.787489 165.56268 
L 259.989846 168.145889 
L 260.39456 183.929905 
L 260.596917 197.110372 
L 261.203989 258.314115 
L 261.608704 276.783041 
L 261.811061 279.671353 
L 262.013418 278.898424 
L 262.418132 255.24274 
L 262.62049 243.384388 
L 263.025204 233.844822 
L 263.227561 231.078551 
L 263.429918 230.08188 
L 263.834633 231.342974 
L 264.03699 231.03787 
L 264.239347 231.973521 
L 264.441704 232.054882 
L 264.644062 231.790459 
L 264.846419 233.804141 
L 265.048776 237.790826 
L 265.251133 237.790826 
L 265.45349 241.75717 
L 266.060562 283.678378 
L 266.465277 296.350339 
L 266.667634 297.875856 
L 266.869991 293.74679 
L 267.072348 285.895462 
L 267.477063 259.737931 
L 268.084134 237.851846 
L 268.488849 227.702073 
L 269.09592 216.596309 
L 269.500635 212.690986 
L 269.702992 214.84705 
L 269.905349 218.40659 
L 270.107706 219.077817 
L 270.310063 225.301926 
L 270.917135 273.528604 
L 271.32185 285.346276 
L 271.524207 287.46166 
L 271.726564 285.773421 
L 274.15485 146.015722 
L 274.357208 138.937323 
L 274.559565 142.23244 
L 275.166636 167.067857 
L 275.976065 247.594815 
L 276.38078 260.002353 
L 276.583137 259.310786 
L 276.987851 237.750145 
L 277.392566 209.212807 
L 278.404352 152.99242 
L 278.606709 149.982066 
L 279.011423 136.923641 
L 279.213781 135.337103 
L 279.416138 139.54753 
L 280.023209 180.736489 
L 280.630281 251.174695 
L 281.034995 273.670986 
L 281.237353 278.49162 
L 281.43971 276.966103 
L 281.642067 271.148798 
L 282.249139 229.919158 
L 282.85621 196.703567 
L 283.867996 154.456916 
L 284.070354 153.277183 
L 284.272711 161.331913 
L 285.284497 243.364048 
L 285.689211 275.135482 
L 286.093926 289.699085 
L 286.296283 291.95685 
L 286.49864 290.16691 
L 286.700997 287.258257 
L 287.105712 256.625876 
L 287.712783 205.714288 
L 288.522212 162.816749 
L 288.724569 155.779031 
L 288.926927 153.86705 
L 289.129284 157.406249 
L 289.736355 190.804902 
L 290.545784 260.022694 
L 290.950499 275.115142 
L 291.152856 277.861073 
L 291.355213 277.942434 
L 291.55757 276.477937 
L 291.759927 264.15176 
L 292.771714 166.681393 
L 293.176428 144.95803 
L 293.581142 133.852266 
L 293.7835 132.143687 
L 293.985857 135.621866 
L 294.592928 160.843747 
L 295.402357 243.119965 
L 295.807072 257.642887 
L 296.009429 257.480165 
L 296.414143 237.424702 
L 297.830644 103.911452 
L 298.235358 90.751326 
L 298.437715 88.188457 
L 298.640073 88.45288 
L 298.84243 90.486903 
L 299.044787 98.439931 
L 299.449501 125.126309 
L 300.056573 203.293801 
L 300.461287 228.2716 
L 300.663645 234.231286 
L 300.866002 234.943194 
L 301.068359 228.190239 
L 301.473073 198.452827 
L 302.484859 94.249845 
L 302.687217 83.04238 
L 302.889574 83.144081 
L 303.091931 91.15813 
L 303.496646 99.721366 
L 303.90136 121.749831 
L 304.306074 149.41254 
L 304.913146 217.938764 
L 305.31786 243.038604 
L 305.520218 248.550806 
L 305.722575 246.781206 
L 305.924932 239.723147 
L 306.532004 200.161406 
L 307.54379 130.841913 
L 307.746147 120.73282 
L 307.948504 119.85819 
L 308.757933 151.812687 
L 309.162647 177.624435 
L 309.769719 240.00791 
L 310.174433 259.69725 
L 310.376791 264.050059 
L 310.579148 263.480532 
L 310.983862 240.292674 
L 312.198005 137.269425 
L 312.60272 125.756856 
L 312.805077 121.424388 
L 313.007434 121.973574 
L 313.209791 125.634815 
L 313.816863 152.951739 
L 314.01922 166.498331 
L 314.626292 228.475002 
L 315.031006 248.774548 
L 315.233364 253.310419 
L 315.435721 252.659532 
L 315.840435 234.068564 
L 316.24515 215.538618 
L 316.649864 203.639585 
L 317.054578 188.486116 
L 317.66165 181.041593 
L 317.864007 180.594108 
L 318.066364 179.699138 
L 318.268722 184.336709 
L 318.875793 206.263474 
L 319.685222 264.294141 
L 320.089937 276.945762 
L 320.292294 278.572981 
L 320.697008 270.721653 
L 321.101723 244.747183 
L 322.315866 167.576363 
L 322.72058 157.426589 
L 322.922937 155.128144 
L 323.125295 159.216529 
L 323.732366 186.574134 
L 324.541795 254.449472 
L 324.94651 268.606269 
L 325.148867 271.474241 
L 325.351224 271.535262 
L 325.553581 269.297837 
L 325.755938 257.093701 
L 326.970082 145.771639 
L 327.172439 139.506849 
L 327.374796 137.940652 
L 327.77951 132.428451 
L 327.981868 137.371126 
L 328.184225 146.076743 
L 328.791296 197.232413 
L 329.196011 240.536756 
L 329.398368 255.629205 
L 329.803083 265.636596 
L 330.00544 264.700946 
L 330.207797 259.148064 
L 330.814869 211.104448 
L 331.42194 173.251286 
L 331.826655 150.795675 
L 332.029012 147.927703 
L 332.231369 147.948044 
L 332.433726 148.131106 
L 332.636083 150.205809 
L 332.838441 154.700999 
L 333.243155 177.400692 
L 333.445512 186.330052 
L 334.052584 251.418778 
L 334.457298 272.999758 
L 334.659655 278.369578 
L 334.862013 275.989772 
L 335.266727 256.341113 
L 335.671442 232.217604 
L 336.48087 192.49314 
L 336.683228 187.469104 
L 336.885585 186.370732 
L 337.087942 180.248324 
L 337.290299 178.417703 
L 337.695014 184.824875 
L 338.099728 199.144395 
L 338.302085 204.9617 
L 339.111514 270.152127 
L 339.313871 276.294875 
L 339.516228 278.51196 
L 339.718586 274.484595 
L 340.1233 251.357757 
L 340.932729 207.321166 
L 342.349229 146.158104 
L 342.551587 146.076743 
L 343.158658 170.525695 
L 343.76573 232.685429 
L 344.170444 250.523808 
L 344.372801 255.24274 
L 344.575159 253.127357 
L 344.777516 246.2727 
L 345.18223 215.680999 
L 346.194016 133.831926 
L 346.598731 119.207303 
L 347.003445 112.65775 
L 347.205802 111.823801 
L 347.40816 114.976536 
L 347.610517 122.746503 
L 348.015231 148.598931 
L 348.82466 238.848518 
L 349.229374 255.791926 
L 349.431732 255.039338 
L 349.634089 249.303394 
L 349.836446 238.278991 
L 351.050589 134.848938 
L 351.455304 116.664775 
L 351.860018 107.898137 
L 352.062375 107.003167 
L 352.264733 110.603387 
L 352.46709 121.58711 
L 353.276519 203.883668 
L 353.681233 241.452067 
L 354.085947 261.44651 
L 354.288305 266.673948 
L 354.490662 267.243474 
L 354.693019 265.026389 
L 355.097733 223.389945 
L 355.704805 150.266829 
L 356.109519 125.797537 
L 356.716591 107.776096 
L 356.918948 106.698064 
L 357.121306 111.457677 
L 357.52602 136.84228 
L 357.728377 149.41254 
L 358.740163 243.994595 
L 359.144878 256.849618 
L 359.347235 258.700579 
L 359.549592 258.375135 
L 359.751949 244.503101 
L 360.763735 125.004268 
L 361.16845 106.108197 
L 361.573164 95.104134 
L 361.775521 92.826029 
L 361.977879 96.080465 
L 362.180236 103.016482 
L 362.58495 128.563807 
L 363.394379 216.494608 
L 363.799093 233.987203 
L 364.001451 234.800812 
L 364.203808 228.963167 
L 364.406165 218.996456 
L 365.013237 150.043087 
L 365.620308 86.052733 
L 366.025023 70.024634 
L 366.429737 63.902226 
L 366.632094 64.390392 
L 366.834451 67.014281 
L 367.036809 75.658877 
L 367.441523 104.60302 
L 368.048595 183.563781 
L 368.453309 213.830038 
L 368.655666 222.291573 
L 368.858024 224.651039 
L 369.060381 220.786396 
L 369.262738 211.002747 
L 369.86981 147.988724 
L 370.476881 90.2835 
L 370.881596 73.787576 
L 371.083953 73.340091 
L 371.28631 74.051999 
L 371.488667 77.957323 
L 371.691024 84.140752 
L 372.298096 122.827863 
L 373.107525 207.199124 
L 373.512239 229.268271 
L 373.714597 233.600739 
L 374.119311 232.909171 
L 374.321668 220.25755 
L 375.333454 117.17328 
L 375.738169 104.013154 
L 375.940526 101.328244 
L 376.142883 100.229871 
L 376.34524 105.375949 
L 376.749955 131.431779 
L 377.559383 189.930272 
L 377.964098 224.345936 
L 378.368812 238.055249 
L 378.57117 238.278991 
L 378.773527 232.380325 
L 378.975884 221.233881 
L 380.392384 105.355609 
L 380.797099 95.490599 
L 381.201813 87.944374 
L 381.40417 91.686976 
L 382.011242 128.482447 
L 382.820671 210.840025 
L 383.225385 226.847784 
L 383.427743 227.498671 
L 383.6301 222.189872 
L 384.034814 200.080045 
L 385.0466 127.078971 
L 385.451315 110.481346 
L 385.653672 110.013521 
L 385.856029 113.776462 
L 386.058386 121.363367 
L 387.070172 190.947283 
L 387.474887 230.834468 
L 387.879601 252.598511 
L 388.284316 261.690592 
L 388.68903 264.19244 
L 388.891387 258.476836 
L 389.700816 215.172493 
L 390.307888 204.026049 
L 390.914959 191.354088 
L 391.117316 196.113701 
L 391.926745 235.47204 
L 392.533817 279.42727 
L 392.938531 291.733107 
L 393.140888 293.584068 
L 393.343246 293.136583 
L 393.545603 293.604408 
L 393.74796 284.695389 
L 394.355032 243.750512 
L 395.569175 187.570806 
L 395.771532 181.590779 
L 395.973889 182.790852 
L 396.176247 191.069325 
L 396.783318 232.888831 
L 397.188033 271.209818 
L 397.592747 288.946496 
L 397.795104 291.712767 
L 397.997461 289.190579 
L 398.402176 271.148798 
L 400.628105 144.185102 
L 400.830462 147.012393 
L 401.03282 156.918084 
L 401.639891 213.667317 
L 402.044606 257.785269 
L 402.44932 278.003454 
L 402.651677 281.990139 
L 402.854034 280.34258 
L 403.258749 262.239778 
L 403.663463 233.966863 
L 404.877607 128.462106 
L 405.282321 108.040519 
L 405.484678 103.850432 
L 405.687035 104.928464 
L 405.889393 115.38334 
L 406.294107 152.565275 
L 406.901179 229.593714 
L 407.305893 253.534161 
L 407.50825 259.107383 
L 407.710607 258.578538 
L 408.115322 237.445042 
L 409.73418 105.823434 
L 409.936537 100.921439 
L 410.138894 100.779058 
L 410.341251 105.355609 
L 410.948323 141.276449 
L 411.15068 157.101146 
L 411.757752 227.335949 
L 412.162466 251.276396 
L 412.364823 257.724248 
L 412.56718 259.493848 
L 412.971895 241.533427 
L 414.388395 143.941019 
L 414.79311 130.475789 
L 415.197824 123.844875 
L 415.400181 130.57749 
L 416.20961 192.798244 
L 416.614325 237.790826 
L 417.019039 260.734602 
L 417.221396 264.965369 
L 417.423753 264.416183 
L 417.828468 248.347403 
L 419.244968 151.141459 
L 419.649683 137.615208 
L 419.85204 133.811586 
L 420.054397 135.235402 
L 420.256754 143.839318 
L 421.066183 208.704301 
L 421.673255 263.419512 
L 422.077969 279.38659 
L 422.280326 281.847757 
L 422.482684 281.19687 
L 422.685041 281.034148 
L 423.089755 250.503468 
L 423.899184 181.956903 
L 424.708613 142.944348 
L 424.91097 139.791613 
L 425.113327 143.757957 
L 425.518042 169.671406 
L 425.720399 181.367036 
L 426.529828 255.344441 
L 426.934542 273.752347 
L 427.136899 278.186516 
L 427.339257 278.979785 
L 427.541614 279.203528 
L 427.743971 270.680973 
L 428.148685 230.692087 
L 428.755757 169.366303 
L 429.160471 143.961359 
L 429.565186 135.784588 
L 429.9699 139.669571 
L 430.374615 155.738351 
L 430.576972 167.271259 
L 431.386401 242.550439 
L 431.791115 254.673214 
L 431.993472 252.659532 
L 432.398187 232.543047 
L 433.207616 168.064528 
L 434.017044 98.358571 
L 434.219402 93.517597 
L 435.02883 120.671799 
L 435.433545 145.425855 
L 436.040617 215.945422 
L 436.445331 238.258651 
L 436.647688 243.343708 
L 436.850045 242.67248 
L 437.25476 222.271233 
L 437.659474 187.692847 
L 438.468903 114.935855 
L 438.67126 105.294588 
L 438.873617 106.250579 
L 439.075975 113.288297 
L 439.278332 112.840812 
L 439.480689 115.057897 
L 439.885403 133.425122 
L 440.290118 157.935095 
L 440.897189 230.631066 
L 441.301904 252.720552 
L 441.504261 258.090372 
L 441.706618 258.619218 
L 442.111333 244.035275 
L 442.920762 192.533821 
L 443.527833 158.016456 
L 444.134905 135.499825 
L 444.337262 132.936956 
L 444.539619 139.283107 
L 445.146691 183.889225 
L 445.753762 252.374768 
L 446.158477 273.365883 
L 446.360834 278.267877 
L 446.563191 276.294875 
L 446.967906 257.581866 
L 448.586763 148.904034 
L 448.991478 135.845609 
L 449.193835 133.547163 
L 449.396192 140.137397 
L 450.003264 180.105942 
L 450.812693 259.331126 
L 451.217407 272.491253 
L 451.419764 272.613294 
L 451.824479 255.608864 
L 452.43155 205.714288 
L 453.038622 164.240565 
L 453.443336 147.378517 
L 453.848051 139.58821 
L 454.050408 142.924008 
L 454.252765 152.809358 
L 454.65748 180.919551 
L 454.859837 189.279385 
L 455.669266 253.330759 
L 456.07398 266.734969 
L 456.276337 268.240145 
L 456.478694 266.267143 
L 456.681052 263.195769 
L 456.883409 255.283421 
L 457.288123 228.556363 
L 457.692838 217.715022 
L 457.895195 218.40659 
L 458.299909 224.101853 
L 458.502267 223.959471 
L 458.906981 220.176189 
L 459.109338 220.705035 
L 459.514053 224.813761 
L 459.71641 229.064868 
L 460.728196 286.159885 
L 461.13291 290.533034 
L 461.537625 287.258257 
L 461.739982 278.430599 
L 462.144696 244.299698 
L 463.561197 175.875175 
L 463.763554 168.695075 
L 463.965911 169.854468 
L 464.572983 189.116663 
L 465.382412 255.364782 
L 465.584769 262.199098 
L 465.787126 264.884008 
L 465.989483 262.483861 
L 467.608341 170.95284 
L 468.620127 150.002407 
L 468.822484 153.094121 
L 469.429556 179.048251 
L 470.036627 235.146596 
L 470.441342 252.740892 
L 470.643699 255.344441 
L 470.846056 252.801913 
L 471.857842 202.439511 
L 472.869628 172.519038 
L 473.071985 173.007203 
L 473.274343 171.237603 
L 473.4767 172.478357 
L 473.679057 176.220959 
L 473.881414 182.729832 
L 474.083772 183.868884 
L 474.286129 191.455789 
L 474.8932 242.997924 
L 475.297915 259.066703 
L 475.500272 260.714261 
L 475.702629 258.700579 
L 476.107344 234.59741 
L 476.512058 212.833367 
L 477.321487 181.69248 
L 477.726201 161.759058 
L 477.928558 158.240198 
L 478.333273 162.87777 
L 478.53563 167.291599 
L 479.142702 191.943954 
L 479.952131 258.965002 
L 480.356845 268.707971 
L 480.559202 268.301166 
L 480.963917 246.455762 
L 482.785131 119.492066 
L 482.987489 113.654421 
L 483.189846 111.050872 
L 483.392203 116.624094 
L 483.999275 156.043454 
L 484.606346 226.359618 
L 485.011061 249.323734 
L 485.213418 253.676543 
L 485.415775 254.612193 
L 485.82049 235.065235 
L 486.225204 204.209111 
L 487.23699 115.240959 
L 487.439347 112.189925 
L 487.844062 118.678457 
L 488.248776 137.086362 
L 489.260562 213.748678 
L 489.665277 245.540452 
L 490.069991 260.470179 
L 490.272348 262.788965 
L 490.474705 261.670252 
L 490.677063 259.920993 
L 490.87942 250.300065 
L 491.891206 171.481686 
L 492.29592 153.968751 
L 492.498277 146.666609 
L 492.700635 144.673267 
L 492.902992 146.280145 
L 493.105349 151.039758 
L 493.712421 184.173988 
L 494.52185 255.344441 
L 495.128921 273.406563 
L 495.331278 273.548945 
L 495.533636 272.938738 
L 495.735993 265.473874 
L 496.950136 175.020886 
L 497.557208 150.938057 
L 497.759565 147.6226 
L 497.961922 150.795675 
L 498.568994 181.936563 
L 499.378422 254.896957 
L 499.58078 261.649912 
L 499.783137 264.111079 
L 499.985494 260.836303 
L 500.187851 252.415449 
L 500.794923 215.925082 
L 500.99728 210.880706 
L 501.401995 197.944321 
L 501.806709 186.818217 
L 502.009066 186.370732 
L 502.211423 188.404755 
L 502.413781 189.035302 
L 502.616138 187.387744 
L 503.020852 196.988331 
L 503.223209 197.537517 
L 503.425567 204.9617 
L 504.032638 255.059678 
L 504.437353 267.975722 
L 504.63971 269.5826 
L 504.842067 267.243474 
L 505.246782 243.160646 
L 505.651496 219.627003 
L 507.270354 147.337837 
L 507.472711 144.266463 
L 507.675068 147.6226 
L 508.28214 175.325989 
L 508.889211 232.665089 
L 509.293926 249.588157 
L 509.496283 253.066336 
L 509.69864 251.256056 
L 510.103354 227.986836 
L 511.722212 122.868544 
L 512.126927 105.314928 
L 512.329284 106.881126 
L 512.936355 140.849304 
L 513.34107 179.333014 
L 513.745784 222.291573 
L 514.150499 244.747183 
L 514.352856 250.259385 
L 514.555213 250.74755 
L 514.75757 241.960572 
L 516.174071 146.341166 
L 516.376428 145.263134 
L 516.781142 154.477256 
L 516.9835 151.772006 
L 517.185857 152.300852 
L 517.590571 169.793447 
L 517.792928 173.983534 
L 517.995286 184.560452 
L 518.4 223.756069 
L 518.4 223.756069 
" clip-path="url(#p25591d42e4)" style="fill: none; stroke: #1f77b4; stroke-width: 1.5; stroke-linecap: square"/>
   </g>
   <g id="line2d_14">
    <path d="M 72 279.093337 
L 72.202357 279.093337 
L 72.809429 287.403395 
L 73.011786 281.919511 
L 73.4165 258.344514 
L 73.821215 245.660832 
L 74.428286 209.199392 
L 74.833001 185.625286 
L 75.237715 171.685271 
L 75.440073 169.304574 
L 75.64243 173.518416 
L 76.047144 193.177327 
L 77.05893 274.968126 
L 77.261287 279.065682 
L 77.463645 280.897437 
L 77.666002 276.314404 
L 77.868359 266.560077 
L 78.273073 234.209736 
L 78.677788 226.378116 
L 79.891931 157.349239 
L 80.094288 157.527477 
L 80.499003 173.213043 
L 80.903717 199.54788 
L 81.713146 267.075081 
L 82.11786 282.112095 
L 82.320218 284.969717 
L 82.724932 273.749619 
L 83.129646 260.928558 
L 83.534361 237.49115 
L 83.939075 230.533957 
L 84.141432 230.617938 
L 84.748504 238.38547 
L 84.950861 243.236978 
L 85.153218 244.987655 
L 85.76029 255.254098 
L 86.772076 301.66023 
L 86.974433 307.2858 
L 87.176791 307.8 
L 87.581505 295.1519 
L 88.188577 269.775614 
L 88.390934 261.759067 
L 88.593291 258.850521 
L 88.795648 259.223289 
L 89.200363 256.32875 
L 90.009791 242.866805 
L 90.212149 241.683997 
L 90.414506 242.996591 
L 90.616863 245.280495 
L 90.81922 251.713892 
L 91.223935 281.489536 
L 91.628649 303.702438 
L 91.831006 306.714257 
L 92.033364 303.695048 
L 92.235721 297.10552 
L 92.640435 265.927225 
L 92.842792 252.232807 
L 93.04515 248.612701 
L 93.247507 247.428515 
L 94.056936 236.438746 
L 94.259293 235.499373 
L 94.46165 235.622149 
L 94.866364 232.053586 
L 95.068722 231.573215 
L 95.473436 241.01568 
L 95.87815 267.133103 
L 96.282865 296.133467 
L 96.485222 300.845742 
L 96.687579 300.353228 
L 96.889937 297.421785 
L 97.294651 273.470888 
L 97.699365 249.229427 
L 98.10408 243.742797 
L 98.508794 239.695722 
L 98.711151 239.900021 
L 98.913509 238.250853 
L 99.318223 229.667653 
L 99.52058 228.87887 
L 99.722937 230.374584 
L 99.925295 229.25753 
L 100.127652 231.953775 
L 100.330009 239.492054 
L 101.341795 299.046634 
L 101.544152 300.38228 
L 101.74651 299.324136 
L 102.151224 273.985638 
L 102.555938 248.87829 
L 102.758296 246.6726 
L 102.960653 246.20066 
L 103.16301 242.018322 
L 103.365367 241.582416 
L 103.567724 240.175341 
L 103.770082 237.299715 
L 104.174796 225.865 
L 104.377153 224.995671 
L 104.781868 225.633528 
L 104.984225 228.25835 
L 105.186582 236.768964 
L 105.996011 292.254779 
L 106.198368 296.769322 
L 106.400725 298.664111 
L 106.603083 297.213934 
L 107.007797 272.903583 
L 107.412511 248.905852 
L 107.614869 245.091065 
L 107.817226 244.156655 
L 108.424297 229.384807 
L 109.031369 204.186595 
L 109.233726 207.386292 
L 109.638441 216.469554 
L 109.840798 219.849394 
L 110.245512 247.445166 
L 110.650227 277.803487 
L 111.054941 291.876153 
L 111.257298 294.625806 
L 111.459655 294.617478 
L 111.662013 287.071053 
L 112.269084 247.683496 
L 112.673799 234.35768 
L 113.078513 214.813766 
L 113.685585 192.146199 
L 113.887942 185.145153 
L 114.090299 182.172264 
L 114.292656 185.613794 
L 114.697371 201.52728 
L 115.911514 281.872604 
L 116.113871 285.124958 
L 116.316228 286.165184 
L 116.720943 274.31093 
L 116.9233 268.597527 
L 117.530372 232.528998 
L 118.744515 157.348584 
L 118.946872 153.640577 
L 119.149229 155.039286 
L 119.351587 160.800524 
L 119.958658 206.935912 
L 120.363373 246.080439 
L 120.768087 272.232282 
L 121.172801 284.912337 
L 121.375159 282.361744 
L 121.779873 271.528364 
L 122.184587 245.793459 
L 122.589302 221.839702 
L 122.994016 205.763738 
L 123.601088 198.230453 
L 124.005802 204.580975 
L 124.410517 216.921331 
L 124.815231 235.966348 
L 125.62466 294.676983 
L 125.827017 297.81396 
L 126.029374 297.496002 
L 126.231732 291.514043 
L 126.636446 259.601599 
L 127.04116 231.934656 
L 127.648232 204.335696 
L 128.255304 168.673378 
L 128.457661 161.004958 
L 128.660018 157.657955 
L 128.862375 159.551587 
L 129.26709 190.006464 
L 130.278876 283.507783 
L 130.481233 286.749091 
L 130.68359 287.363494 
L 130.885947 283.508685 
L 131.290662 263.255681 
L 132.302448 196.550909 
L 133.111877 151.649707 
L 133.314234 144.6424 
L 133.516591 141.864969 
L 133.718948 147.280092 
L 134.32602 181.657823 
L 135.135449 264.577109 
L 135.540163 274.721857 
L 135.74252 274.952785 
L 135.944878 266.968093 
L 136.956664 201.928202 
L 137.159021 200.202376 
L 137.361378 196.664793 
L 137.96845 199.0434 
L 138.170807 200.395304 
L 138.373164 200.715926 
L 138.575521 200.335615 
L 138.777879 201.770994 
L 139.182593 222.199378 
L 139.789665 269.923559 
L 140.194379 285.534247 
L 140.396736 287.107339 
L 140.599093 286.02749 
L 141.003808 262.216894 
L 141.408522 232.338914 
L 142.015594 218.028176 
L 142.217951 217.720369 
L 142.420308 213.104077 
L 142.622665 214.112403 
L 142.825023 210.66424 
L 143.02738 211.861227 
L 143.432094 215.279867 
L 143.836809 222.760219 
L 144.039166 229.907038 
L 144.241523 241.245638 
L 144.646238 271.050506 
L 144.848595 279.312316 
L 145.253309 285.815271 
L 145.455666 282.251704 
L 145.658024 273.380268 
L 146.265095 229.395032 
L 146.872167 215.445081 
L 147.074524 215.220108 
L 147.276881 216.092822 
L 147.479238 213.624968 
L 147.681596 209.271297 
L 147.883953 213.823212 
L 148.288667 224.354274 
L 148.491024 225.8296 
L 148.693382 229.518104 
L 148.895739 237.160964 
L 149.502811 272.153623 
L 149.907525 283.770271 
L 150.109882 287.108495 
L 150.312239 285.849747 
L 150.919311 263.56507 
L 151.72874 234.504909 
L 151.931097 232.907743 
L 152.133454 232.757765 
L 152.335811 233.585943 
L 152.740526 231.705013 
L 153.14524 238.296018 
L 153.347597 238.570294 
L 153.549955 239.692163 
L 153.752312 242.66634 
L 153.954669 248.070901 
L 154.764098 284.031801 
L 155.168812 290.010763 
L 155.37117 287.262679 
L 155.978241 262.359853 
L 156.990027 196.295127 
L 157.799456 166.592783 
L 158.001813 163.997958 
L 158.20417 168.596529 
L 158.608885 192.370593 
L 159.013599 229.066969 
L 159.620671 277.379202 
L 159.823028 282.611708 
L 160.025385 281.783522 
L 160.227743 275.88577 
L 160.632457 242.84982 
L 161.037171 215.816615 
L 161.441886 194.290652 
L 162.048957 178.170487 
L 162.251315 177.712042 
L 162.453672 178.768425 
L 162.656029 181.827874 
L 163.465458 211.793089 
L 163.870172 248.037445 
L 164.274887 277.879618 
L 164.477244 285.074146 
L 164.679601 287.646791 
L 164.881958 285.394032 
L 165.48903 248.107527 
L 165.893744 226.055795 
L 166.298459 217.934496 
L 166.500816 215.924674 
L 166.90553 198.992179 
L 167.310245 172.842846 
L 167.512602 171.247548 
L 167.917316 189.498238 
L 168.524388 229.425678 
L 168.929102 264.509893 
L 169.13146 273.957662 
L 169.333817 277.575766 
L 169.536174 279.142147 
L 169.738531 279.34757 
L 170.143246 259.957308 
L 171.155032 186.986489 
L 171.559746 170.23599 
L 171.964461 163.769378 
L 172.166818 157.768439 
L 172.369175 157.034889 
L 172.571532 163.447502 
L 172.976247 186.733773 
L 173.380961 221.184055 
L 173.988033 275.755237 
L 174.19039 282.815357 
L 174.392747 285.557108 
L 174.595104 283.468098 
L 174.797461 275.318664 
L 175.404533 231.564441 
L 175.809248 218.851752 
L 176.213962 196.751685 
L 176.821034 180.79898 
L 177.225748 170.457478 
L 177.428105 175.009636 
L 177.83282 194.170368 
L 178.035177 204.394475 
L 178.844606 281.820272 
L 179.046963 289.09782 
L 179.24932 291.083364 
L 179.451677 290.076959 
L 179.654034 281.599748 
L 180.463463 232.414362 
L 180.868178 206.243373 
L 181.475249 170.193977 
L 181.879964 156.257472 
L 182.082321 152.766454 
L 182.284678 157.510152 
L 182.487035 164.905717 
L 183.094107 212.997856 
L 183.498821 249.991305 
L 183.903536 268.393358 
L 184.105893 270.478086 
L 184.30825 270.756798 
L 185.117679 243.029145 
L 186.129465 149.84607 
L 186.53418 142.485656 
L 186.736537 143.756791 
L 187.141251 165.346986 
L 187.748323 201.80055 
L 187.95068 212.159717 
L 188.557752 255.488733 
L 188.962466 270.381627 
L 189.164823 273.110353 
L 189.36718 270.443462 
L 189.974252 240.860615 
L 190.986038 168.870287 
L 191.188395 160.512735 
L 191.390752 157.205626 
L 191.59311 158.364677 
L 191.997824 174.054334 
L 192.604896 209.996917 
L 192.807253 218.239972 
L 193.616682 269.930794 
L 194.021396 277.886959 
L 194.223753 274.783209 
L 194.628468 257.358053 
L 195.842611 190.902746 
L 196.044968 193.352865 
L 196.854397 215.935651 
L 197.461469 226.692163 
L 197.866183 247.036724 
L 198.270898 276.981035 
L 198.473255 286.219901 
L 198.675612 289.397632 
L 198.877969 286.723499 
L 199.080326 277.820713 
L 199.687398 228.861079 
L 200.092112 210.274448 
L 200.496827 199.378215 
L 201.306256 173.786848 
L 201.71097 171.895655 
L 201.913327 178.329806 
L 202.520399 214.135975 
L 203.127471 264.670565 
L 203.329828 271.773602 
L 203.532185 273.322134 
L 203.734542 268.816215 
L 204.139257 245.994212 
L 204.543971 215.918581 
L 204.948685 201.546523 
L 205.3534 187.130748 
L 205.758114 175.50902 
L 205.960471 171.562448 
L 206.162829 169.908925 
L 206.365186 173.953921 
L 207.376972 219.89204 
L 207.781686 253.325482 
L 208.186401 269.254704 
L 208.388758 272.493577 
L 208.591115 272.595263 
L 208.793472 263.60303 
L 209.602901 210.551769 
L 210.817044 157.429579 
L 211.221759 140.281584 
L 211.424116 146.441854 
L 212.233545 204.106282 
L 212.638259 246.58041 
L 213.042974 263.625069 
L 213.245331 264.88386 
L 213.447688 264.782205 
L 213.650045 257.736629 
L 214.661831 190.388494 
L 215.47126 135.913582 
L 215.875975 118.148095 
L 216.078332 116.146474 
L 216.483046 132.016203 
L 217.292475 205.337988 
L 217.697189 240.50549 
L 218.101904 257.617192 
L 218.304261 259.015135 
L 218.911333 241.962889 
L 219.11369 232.866645 
L 219.720762 183.164632 
L 220.125476 157.707618 
L 220.327833 151.81725 
L 220.53019 151.544814 
L 220.732548 154.343475 
L 220.934905 165.964824 
L 221.339619 198.153582 
L 221.946691 225.348992 
L 222.553762 265.050531 
L 222.958477 278.250409 
L 223.160834 281.679315 
L 223.363191 279.909506 
L 224.577335 218.116059 
L 224.779692 218.515399 
L 224.982049 218.527546 
L 225.184406 220.164894 
L 226.398549 238.230804 
L 226.600907 241.276104 
L 227.005621 261.86336 
L 227.410335 289.3097 
L 227.612693 297.135004 
L 227.81505 299.656935 
L 228.017407 298.592254 
L 228.219764 293.112127 
L 229.029193 243.139722 
L 229.433908 238.623192 
L 229.838622 225.799313 
L 230.445694 202.771089 
L 230.850408 195.060027 
L 231.052765 196.182777 
L 231.45748 215.108591 
L 231.862194 245.889152 
L 232.266908 280.954335 
L 232.469266 288.456645 
L 232.671623 290.465149 
L 232.87398 287.158837 
L 233.076337 280.476205 
L 233.481052 255.394072 
L 233.885766 235.959666 
L 234.088123 230.085549 
L 234.695195 201.784491 
L 235.504624 183.49407 
L 235.909338 195.477718 
L 236.111695 202.467205 
L 236.314053 214.030647 
L 237.123481 278.877145 
L 237.325839 286.034046 
L 237.528196 287.906813 
L 237.730553 287.0356 
L 237.93291 279.669891 
L 238.742339 231.350235 
L 239.551768 205.21749 
L 239.754125 201.514465 
L 239.956482 200.740172 
L 240.15884 199.325222 
L 240.361197 196.81553 
L 240.968268 212.73816 
L 241.372983 240.56088 
L 241.777697 272.550037 
L 242.182412 289.758778 
L 242.384769 291.53835 
L 242.587126 290.234239 
L 242.789483 282.433489 
L 243.396555 243.769741 
L 244.408341 207.777457 
L 244.813055 194.03928 
L 245.21777 184.552918 
L 245.420127 187.007042 
L 245.622484 192.838634 
L 246.027199 215.197036 
L 247.038985 283.409081 
L 247.241342 287.284285 
L 247.443699 287.612698 
L 247.646056 280.223955 
L 249.062557 185.155848 
L 249.669628 149.783371 
L 249.871985 145.692765 
L 250.074343 147.393672 
L 250.479057 165.419163 
L 251.086129 211.707068 
L 251.490843 245.088658 
L 251.895558 265.802907 
L 252.097915 271.239593 
L 252.300272 272.774527 
L 252.502629 268.320958 
L 252.907344 252.869304 
L 253.514415 208.355992 
L 254.121487 155.642296 
L 254.323844 148.671054 
L 254.728558 144.194014 
L 254.930916 145.699698 
L 255.133273 151.72367 
L 255.537987 176.559002 
L 256.752131 269.691222 
L 256.954488 276.422924 
L 257.156845 278.733019 
L 257.359202 276.134536 
L 257.763917 260.460499 
L 258.573345 204.076925 
L 258.97806 178.446636 
L 259.382774 168.777004 
L 259.585131 168.4538 
L 259.787489 168.809039 
L 259.989846 173.416761 
L 260.39456 190.917698 
L 260.799275 215.505322 
L 261.608704 279.078904 
L 261.811061 284.455406 
L 262.013418 284.415035 
L 262.215775 278.767662 
L 263.025204 222.834854 
L 263.227561 217.940942 
L 263.429918 218.226479 
L 264.03699 227.937219 
L 264.239347 229.54597 
L 264.441704 229.14559 
L 264.644062 226.670307 
L 264.846419 228.473114 
L 265.048776 231.523246 
L 265.251133 236.413859 
L 265.858205 268.913033 
L 266.262919 288.859237 
L 266.465277 292.890627 
L 266.667634 293.459952 
L 266.869991 290.812245 
L 267.477063 261.527817 
L 267.881777 243.855811 
L 268.286491 235.432427 
L 268.893563 219.077069 
L 269.298277 213.863119 
L 269.500635 215.129147 
L 269.702992 217.209869 
L 270.107706 225.81346 
L 270.310063 230.871602 
L 270.512421 238.924014 
L 271.119492 277.060719 
L 271.32185 283.049894 
L 271.524207 285.014839 
L 271.726564 284.257996 
L 271.928921 277.418411 
L 272.73835 228.025745 
L 273.547779 188.932587 
L 273.952493 164.539022 
L 274.357208 151.028452 
L 274.559565 149.896573 
L 274.761922 154.136118 
L 275.166636 176.421345 
L 275.571351 214.994021 
L 275.976065 247.666462 
L 276.178422 258.555114 
L 276.38078 262.158847 
L 276.583137 260.702159 
L 276.987851 240.20231 
L 277.79728 188.922031 
L 278.404352 155.08447 
L 278.809066 142.290421 
L 279.011423 139.550895 
L 279.213781 140.716279 
L 279.618495 151.945812 
L 280.225567 199.824863 
L 281.034995 271.398276 
L 281.237353 274.160885 
L 281.43971 275.166512 
L 281.844424 254.978382 
L 283.260925 176.871586 
L 283.665639 162.254259 
L 283.867996 160.407292 
L 284.070354 156.44187 
L 284.272711 162.221513 
L 284.475068 171.935735 
L 285.284497 243.214247 
L 285.689211 274.832384 
L 285.891568 282.758725 
L 286.093926 284.743361 
L 286.296283 284.659853 
L 286.49864 281.980412 
L 287.105712 256.464535 
L 288.319855 173.685131 
L 288.926927 158.170289 
L 289.129284 161.341755 
L 289.331641 168.4116 
L 289.938713 213.943917 
L 290.343427 250.096556 
L 290.748141 272.941779 
L 290.950499 277.497583 
L 291.152856 278.973684 
L 291.355213 276.953034 
L 291.759927 262.533852 
L 292.164642 229.467228 
L 292.771714 169.831255 
L 293.176428 143.260855 
L 293.378785 137.509849 
L 293.7835 136.674533 
L 293.985857 140.816099 
L 294.390571 162.028601 
L 294.997643 208.737434 
L 295.402357 244.811756 
L 295.604714 258.879183 
L 295.807072 264.642632 
L 296.009429 264.682002 
L 296.211786 260.055108 
L 296.6165 230.505388 
L 298.033001 92.098617 
L 298.235358 85.707295 
L 298.437715 86.41146 
L 298.640073 90.083274 
L 299.044787 106.508605 
L 299.247144 118.044271 
L 299.854216 174.559569 
L 300.25893 223.731536 
L 300.461287 234.58525 
L 300.663645 239.31971 
L 300.866002 237.908607 
L 301.270716 214.107498 
L 301.877788 167.030444 
L 302.484859 93.175309 
L 302.889574 67.905553 
L 303.091931 68.539591 
L 303.699003 107.367233 
L 305.31786 244.366984 
L 305.520218 250.307929 
L 305.722575 249.676584 
L 306.127289 223.070903 
L 306.734361 181.942696 
L 307.54379 132.418029 
L 307.948504 117.005911 
L 308.150861 117.633573 
L 308.555576 138.493394 
L 309.567362 216.95673 
L 309.972076 249.390445 
L 310.376791 263.373134 
L 310.579148 263.452485 
L 310.781505 257.024438 
L 311.590934 188.772885 
L 312.198005 138.944412 
L 312.60272 120.351518 
L 312.805077 118.878778 
L 313.007434 119.44641 
L 313.209791 125.070533 
L 313.816863 163.169234 
L 314.423935 213.374626 
L 314.828649 245.46939 
L 315.233364 256.520154 
L 315.435721 254.601598 
L 315.840435 230.026352 
L 316.24515 206.02727 
L 316.649864 194.132574 
L 317.256936 185.885927 
L 317.66165 181.352593 
L 317.864007 181.73954 
L 318.066364 184.523051 
L 318.471079 194.964637 
L 319.07815 223.611986 
L 319.482865 251.798643 
L 319.887579 268.044581 
L 320.089937 272.436123 
L 320.292294 273.774172 
L 320.494651 269.356186 
L 321.30408 238.709255 
L 322.518223 163.986274 
L 322.72058 158.072205 
L 322.922937 157.949543 
L 323.125295 159.542622 
L 323.530009 179.328476 
L 324.744152 263.241482 
L 325.148867 271.226032 
L 325.351224 269.597803 
L 325.755938 255.465131 
L 326.160653 224.134616 
L 327.374796 132.100157 
L 327.577153 133.565495 
L 327.981868 140.753517 
L 328.386582 162.292862 
L 329.803083 272.402753 
L 330.00544 271.287378 
L 330.207797 265.371647 
L 330.612511 235.797138 
L 331.42194 168.014248 
L 331.826655 148.205034 
L 332.029012 142.074099 
L 332.231369 141.214409 
L 332.838441 161.928046 
L 333.445512 195.791158 
L 333.850227 227.583345 
L 334.254941 262.657385 
L 334.457298 271.979513 
L 334.659655 275.116416 
L 334.862013 274.196609 
L 335.06437 267.278934 
L 335.873799 217.598316 
L 336.278513 202.866315 
L 336.683228 186.498853 
L 336.885585 181.056908 
L 337.087942 183.427435 
L 337.290299 181.533147 
L 337.492656 182.204102 
L 338.504442 225.413749 
L 339.111514 270.994331 
L 339.313871 277.16369 
L 339.516228 278.043578 
L 339.718586 278.213826 
L 339.920943 269.685593 
L 340.730372 217.823149 
L 341.135086 199.327106 
L 342.349229 153.779834 
L 342.551587 155.875603 
L 342.753944 160.654111 
L 343.361015 194.450323 
L 343.76573 236.690149 
L 344.170444 256.377561 
L 344.372801 257.195781 
L 344.575159 256.046158 
L 344.979873 235.322902 
L 345.586945 195.429088 
L 346.396374 122.477487 
L 346.598731 112.738711 
L 346.801088 110.629652 
L 347.003445 110.045128 
L 347.205802 114.129691 
L 347.812874 141.804673 
L 348.622303 215.313757 
L 349.027017 247.792596 
L 349.229374 253.227732 
L 349.431732 254.684402 
L 349.634089 246.997688 
L 351.455304 113.596041 
L 351.657661 108.694951 
L 351.860018 107.779457 
L 352.062375 109.257146 
L 352.46709 125.612469 
L 352.871804 158.180484 
L 354.085947 261.406187 
L 354.288305 261.656905 
L 354.490662 257.362223 
L 355.097733 228.918476 
L 355.502448 186.278497 
L 356.109519 119.622546 
L 356.311877 109.716135 
L 356.514234 107.38887 
L 356.716591 106.429397 
L 356.918948 107.079277 
L 357.121306 112.015578 
L 357.52602 138.168453 
L 358.740163 251.824234 
L 358.94252 258.084244 
L 359.144878 259.290023 
L 359.347235 255.662831 
L 359.751949 240.069485 
L 360.156664 204.118068 
L 360.966092 108.978223 
L 361.16845 98.143547 
L 361.370807 94.774554 
L 361.775521 95.474344 
L 361.977879 99.066542 
L 362.382593 120.531368 
L 362.989665 173.930788 
L 363.394379 225.262034 
L 363.799093 245.996201 
L 364.001451 244.363987 
L 364.203808 237.774898 
L 364.406165 226.180681 
L 365.013237 164.242787 
L 365.822665 67.914326 
L 366.025023 57.500449 
L 366.22738 55.8 
L 366.632094 64.771207 
L 367.036809 82.087431 
L 367.239166 94.386593 
L 368.048595 180.86509 
L 368.453309 219.184306 
L 368.655666 224.292322 
L 368.858024 222.550865 
L 369.262738 202.643138 
L 369.86981 158.859428 
L 370.679238 73.866418 
L 370.881596 63.137968 
L 371.083953 60.679712 
L 371.488667 70.870125 
L 372.095739 112.361081 
L 373.309882 224.023996 
L 373.512239 229.116477 
L 373.714597 228.151544 
L 374.524025 200.243815 
L 374.92874 160.490554 
L 375.333454 114.641717 
L 375.535811 100.878872 
L 375.738169 95.021904 
L 375.940526 93.487496 
L 376.142883 94.200657 
L 376.34524 96.594916 
L 376.749955 123.206403 
L 377.964098 228.63744 
L 378.368812 244.685276 
L 378.57117 243.660583 
L 378.773527 236.856478 
L 379.178241 207.846202 
L 380.392384 101.281031 
L 380.797099 93.339175 
L 381.40417 97.967447 
L 381.606528 104.752327 
L 382.011242 135.058192 
L 382.415956 172.13472 
L 383.023028 225.922919 
L 383.225385 228.90584 
L 383.427743 226.843985 
L 383.6301 219.634695 
L 384.237171 185.612142 
L 384.237171 185.612142 
" clip-path="url(#p25591d42e4)" style="fill: none; stroke: #ff7f0e; stroke-width: 1.5; stroke-linecap: square"/>
   </g>
   <g id="line2d_15">
    <path d="M 384.439529 171.78797 
L 385.451315 112.842473 
L 385.653672 107.667193 
L 385.856029 106.570848 
L 386.058386 109.497923 
L 386.260743 116.151843 
L 386.665458 140.509917 
L 387.677244 224.155576 
L 388.081958 236.658762 
L 388.284316 236.564412 
L 388.486673 231.213371 
L 389.093744 197.288921 
L 390.307888 125.383574 
L 390.510245 119.705376 
L 390.712602 117.758713 
L 390.914959 120.195097 
L 391.117316 126.426803 
L 391.522031 150.168323 
L 392.533817 228.879742 
L 392.938531 241.371896 
L 393.140888 241.977137 
L 393.343246 237.443427 
L 393.74796 217.286676 
L 395.164461 140.194553 
L 395.366818 135.780874 
L 395.569175 135.423268 
L 395.771532 138.72468 
L 396.176247 157.273707 
L 397.592747 246.589678 
L 397.795104 249.981815 
L 397.997461 250.299582 
L 398.199819 246.977602 
L 398.604533 230.240736 
L 399.818676 170.030246 
L 400.223391 163.095574 
L 400.425748 163.976623 
L 400.628105 168.306312 
L 401.03282 186.07182 
L 402.246963 251.731143 
L 402.44932 256.468002 
L 402.651677 257.962453 
L 402.854034 256.898279 
L 403.056392 253.070174 
L 403.461106 237.34593 
L 404.270535 201.716327 
L 404.675249 191.114444 
L 404.877607 189.079573 
L 405.079964 189.590845 
L 405.282321 192.643915 
L 405.687035 204.448511 
L 406.496464 236.954678 
L 406.901179 253.578066 
L 407.103536 258.423092 
L 407.305893 260.520498 
L 407.50825 260.411874 
L 407.710607 258.304594 
L 407.912965 253.656971 
L 409.127108 208.927477 
L 409.329465 206.243626 
L 409.531822 205.209206 
L 409.73418 206.400273 
L 410.138894 214.000451 
L 410.543608 222.827365 
L 410.948323 231.402615 
L 411.757752 254.932389 
L 411.960109 257.388606 
L 412.162466 258.013759 
L 412.364823 256.606678 
L 412.56718 253.124341 
L 412.971895 238.905948 
L 413.578966 217.297712 
L 413.781324 214.292169 
L 413.983681 212.98368 
L 414.186038 212.961337 
L 414.590752 217.761076 
L 415.197824 225.924689 
L 415.602539 231.582519 
L 416.20961 243.544964 
L 416.614325 250.16004 
L 416.816682 251.422124 
L 417.019039 250.628322 
L 417.221396 247.826004 
L 417.828468 229.858431 
L 418.233182 219.267747 
L 418.435539 217.02393 
L 418.637897 216.057328 
L 418.840254 216.611527 
L 420.863826 236.264604 
L 421.26854 241.999052 
L 421.470898 243.258874 
L 421.673255 242.767386 
L 421.875612 240.632755 
L 423.089755 219.035212 
L 423.292112 218.214629 
L 423.49447 218.708241 
L 424.303898 223.700106 
L 425.518042 230.376224 
L 425.922756 234.476295 
L 426.125113 235.379235 
L 426.327471 235.105192 
L 426.732185 231.701992 
L 427.946328 219.886391 
L 428.148685 219.96137 
L 428.755757 222.304807 
L 429.9699 226.010376 
L 430.779329 229.381223 
L 430.981686 229.282118 
L 431.386401 227.835679 
L 431.993472 224.123173 
L 432.398187 221.454757 
L 432.600544 220.904607 
L 432.802901 220.853847 
L 434.624116 224.297024 
L 435.02883 225.440549 
L 435.433545 226.04358 
L 435.635902 226.027152 
L 435.838259 225.868744 
L 436.242974 224.669531 
L 437.052403 221.870047 
L 437.457117 221.394004 
L 438.266546 222.122088 
L 438.873617 222.750501 
L 440.087761 224.289699 
L 440.290118 224.342906 
L 440.492475 224.279395 
L 440.897189 223.647358 
L 441.706618 222.181557 
L 442.111333 221.868329 
L 442.516047 221.995892 
L 443.73019 222.80954 
L 444.539619 223.436938 
L 444.944334 223.541672 
L 445.349048 223.382547 
L 446.765549 222.214357 
L 447.170263 222.247451 
L 448.384406 222.744807 
L 449.396192 223.142186 
L 450.003264 223.07127 
L 451.622121 222.405319 
L 452.43155 222.548662 
L 454.252765 222.946767 
L 455.062194 222.808288 
L 456.276337 222.527108 
L 457.288123 222.63752 
L 459.109338 222.832927 
L 462.347053 222.69609 
L 463.965911 222.768791 
L 467.001269 222.694496 
L 469.024841 222.725031 
L 471.655485 222.69509 
L 474.488486 222.691687 
L 478.333273 222.710142 
L 485.82049 222.700017 
L 500.794923 222.701666 
L 518.4 222.700731 
L 518.4 222.700731 
" clip-path="url(#p25591d42e4)" style="fill: none; stroke: #2ca02c; stroke-width: 1.5; stroke-linecap: square"/>
   </g>
   <g id="patch_3">
    <path d="M 72 320.4 
L 72 43.2 
" style="fill: none; stroke: #000000; stroke-width: 0.8; stroke-linejoin: miter; stroke-linecap: square"/>
   </g>
   <g id="patch_4">
    <path d="M 518.4 320.4 
L 518.4 43.2 
" style="fill: none; stroke: #000000; stroke-width: 0.8; stroke-linejoin: miter; stroke-linecap: square"/>
   </g>
   <g id="patch_5">
    <path d="M 72 320.4 
L 518.4 320.4 
" style="fill: none; stroke: #000000; stroke-width: 0.8; stroke-linejoin: miter; stroke-linecap: square"/>
   </g>
   <g id="patch_6">
    <path d="M 72 43.2 
L 518.4 43.2 
" style="fill: none; stroke: #000000; stroke-width: 0.8; stroke-linejoin: miter; stroke-linecap: square"/>
   </g>
   <g id="text_13">
    <!-- Classic Transformer - model_20231123170602 -->
    <g transform="translate(155.436563 37.2) scale(0.12 -0.12)">
     <defs>
      <path id="DejaVuSans-43" d="M 4122 4306 
L 4122 3641 
Q 3803 3938 3442 4084 
Q 3081 4231 2675 4231 
Q 1875 4231 1450 3742 
Q 1025 3253 1025 2328 
Q 1025 1406 1450 917 
Q 1875 428 2675 428 
Q 3081 428 3442 575 
Q 3803 722 4122 1019 
L 4122 359 
Q 3791 134 3420 21 
Q 3050 -91 2638 -91 
Q 1578 -91 968 557 
Q 359 1206 359 2328 
Q 359 3453 968 4101 
Q 1578 4750 2638 4750 
Q 3056 4750 3426 4639 
Q 3797 4528 4122 4306 
z
" transform="scale(0.015625)"/>
      <path id="DejaVuSans-6c" d="M 603 4863 
L 1178 4863 
L 1178 0 
L 603 0 
L 603 4863 
z
" transform="scale(0.015625)"/>
      <path id="DejaVuSans-61" d="M 2194 1759 
Q 1497 1759 1228 1600 
Q 959 1441 959 1056 
Q 959 750 1161 570 
Q 1363 391 1709 391 
Q 2188 391 2477 730 
Q 2766 1069 2766 1631 
L 2766 1759 
L 2194 1759 
z
M 3341 1997 
L 3341 0 
L 2766 0 
L 2766 531 
Q 2569 213 2275 61 
Q 1981 -91 1556 -91 
Q 1019 -91 701 211 
Q 384 513 384 1019 
Q 384 1609 779 1909 
Q 1175 2209 1959 2209 
L 2766 2209 
L 2766 2266 
Q 2766 2663 2505 2880 
Q 2244 3097 1772 3097 
Q 1472 3097 1187 3025 
Q 903 2953 641 2809 
L 641 3341 
Q 956 3463 1253 3523 
Q 1550 3584 1831 3584 
Q 2591 3584 2966 3190 
Q 3341 2797 3341 1997 
z
" transform="scale(0.015625)"/>
      <path id="DejaVuSans-73" d="M 2834 3397 
L 2834 2853 
Q 2591 2978 2328 3040 
Q 2066 3103 1784 3103 
Q 1356 3103 1142 2972 
Q 928 2841 928 2578 
Q 928 2378 1081 2264 
Q 1234 2150 1697 2047 
L 1894 2003 
Q 2506 1872 2764 1633 
Q 3022 1394 3022 966 
Q 3022 478 2636 193 
Q 2250 -91 1575 -91 
Q 1294 -91 989 -36 
Q 684 19 347 128 
L 347 722 
Q 666 556 975 473 
Q 1284 391 1588 391 
Q 1994 391 2212 530 
Q 2431 669 2431 922 
Q 2431 1156 2273 1281 
Q 2116 1406 1581 1522 
L 1381 1569 
Q 847 1681 609 1914 
Q 372 2147 372 2553 
Q 372 3047 722 3315 
Q 1072 3584 1716 3584 
Q 2034 3584 2315 3537 
Q 2597 3491 2834 3397 
z
" transform="scale(0.015625)"/>
      <path id="DejaVuSans-69" d="M 603 3500 
L 1178 3500 
L 1178 0 
L 603 0 
L 603 3500 
z
M 603 4863 
L 1178 4863 
L 1178 4134 
L 603 4134 
L 603 4863 
z
" transform="scale(0.015625)"/>
      <path id="DejaVuSans-63" d="M 3122 3366 
L 3122 2828 
Q 2878 2963 2633 3030 
Q 2388 3097 2138 3097 
Q 1578 3097 1268 2742 
Q 959 2388 959 1747 
Q 959 1106 1268 751 
Q 1578 397 2138 397 
Q 2388 397 2633 464 
Q 2878 531 3122 666 
L 3122 134 
Q 2881 22 2623 -34 
Q 2366 -91 2075 -91 
Q 1284 -91 818 406 
Q 353 903 353 1747 
Q 353 2603 823 3093 
Q 1294 3584 2113 3584 
Q 2378 3584 2631 3529 
Q 2884 3475 3122 3366 
z
" transform="scale(0.015625)"/>
      <path id="DejaVuSans-20" transform="scale(0.015625)"/>
      <path id="DejaVuSans-54" d="M -19 4666 
L 3928 4666 
L 3928 4134 
L 2272 4134 
L 2272 0 
L 1638 0 
L 1638 4134 
L -19 4134 
L -19 4666 
z
" transform="scale(0.015625)"/>
      <path id="DejaVuSans-72" d="M 2631 2963 
Q 2534 3019 2420 3045 
Q 2306 3072 2169 3072 
Q 1681 3072 1420 2755 
Q 1159 2438 1159 1844 
L 1159 0 
L 581 0 
L 581 3500 
L 1159 3500 
L 1159 2956 
Q 1341 3275 1631 3429 
Q 1922 3584 2338 3584 
Q 2397 3584 2469 3576 
Q 2541 3569 2628 3553 
L 2631 2963 
z
" transform="scale(0.015625)"/>
      <path id="DejaVuSans-6e" d="M 3513 2113 
L 3513 0 
L 2938 0 
L 2938 2094 
Q 2938 2591 2744 2837 
Q 2550 3084 2163 3084 
Q 1697 3084 1428 2787 
Q 1159 2491 1159 1978 
L 1159 0 
L 581 0 
L 581 3500 
L 1159 3500 
L 1159 2956 
Q 1366 3272 1645 3428 
Q 1925 3584 2291 3584 
Q 2894 3584 3203 3211 
Q 3513 2838 3513 2113 
z
" transform="scale(0.015625)"/>
      <path id="DejaVuSans-66" d="M 2375 4863 
L 2375 4384 
L 1825 4384 
Q 1516 4384 1395 4259 
Q 1275 4134 1275 3809 
L 1275 3500 
L 2222 3500 
L 2222 3053 
L 1275 3053 
L 1275 0 
L 697 0 
L 697 3053 
L 147 3053 
L 147 3500 
L 697 3500 
L 697 3744 
Q 697 4328 969 4595 
Q 1241 4863 1831 4863 
L 2375 4863 
z
" transform="scale(0.015625)"/>
      <path id="DejaVuSans-6f" d="M 1959 3097 
Q 1497 3097 1228 2736 
Q 959 2375 959 1747 
Q 959 1119 1226 758 
Q 1494 397 1959 397 
Q 2419 397 2687 759 
Q 2956 1122 2956 1747 
Q 2956 2369 2687 2733 
Q 2419 3097 1959 3097 
z
M 1959 3584 
Q 2709 3584 3137 3096 
Q 3566 2609 3566 1747 
Q 3566 888 3137 398 
Q 2709 -91 1959 -91 
Q 1206 -91 779 398 
Q 353 888 353 1747 
Q 353 2609 779 3096 
Q 1206 3584 1959 3584 
z
" transform="scale(0.015625)"/>
      <path id="DejaVuSans-6d" d="M 3328 2828 
Q 3544 3216 3844 3400 
Q 4144 3584 4550 3584 
Q 5097 3584 5394 3201 
Q 5691 2819 5691 2113 
L 5691 0 
L 5113 0 
L 5113 2094 
Q 5113 2597 4934 2840 
Q 4756 3084 4391 3084 
Q 3944 3084 3684 2787 
Q 3425 2491 3425 1978 
L 3425 0 
L 2847 0 
L 2847 2094 
Q 2847 2600 2669 2842 
Q 2491 3084 2119 3084 
Q 1678 3084 1418 2786 
Q 1159 2488 1159 1978 
L 1159 0 
L 581 0 
L 581 3500 
L 1159 3500 
L 1159 2956 
Q 1356 3278 1631 3431 
Q 1906 3584 2284 3584 
Q 2666 3584 2933 3390 
Q 3200 3197 3328 2828 
z
" transform="scale(0.015625)"/>
      <path id="DejaVuSans-65" d="M 3597 1894 
L 3597 1613 
L 953 1613 
Q 991 1019 1311 708 
Q 1631 397 2203 397 
Q 2534 397 2845 478 
Q 3156 559 3463 722 
L 3463 178 
Q 3153 47 2828 -22 
Q 2503 -91 2169 -91 
Q 1331 -91 842 396 
Q 353 884 353 1716 
Q 353 2575 817 3079 
Q 1281 3584 2069 3584 
Q 2775 3584 3186 3129 
Q 3597 2675 3597 1894 
z
M 3022 2063 
Q 3016 2534 2758 2815 
Q 2500 3097 2075 3097 
Q 1594 3097 1305 2825 
Q 1016 2553 972 2059 
L 3022 2063 
z
" transform="scale(0.015625)"/>
      <path id="DejaVuSans-64" d="M 2906 2969 
L 2906 4863 
L 3481 4863 
L 3481 0 
L 2906 0 
L 2906 525 
Q 2725 213 2448 61 
Q 2172 -91 1784 -91 
Q 1150 -91 751 415 
Q 353 922 353 1747 
Q 353 2572 751 3078 
Q 1150 3584 1784 3584 
Q 2172 3584 2448 3432 
Q 2725 3281 2906 2969 
z
M 947 1747 
Q 947 1113 1208 752 
Q 1469 391 1925 391 
Q 2381 391 2643 752 
Q 2906 1113 2906 1747 
Q 2906 2381 2643 2742 
Q 2381 3103 1925 3103 
Q 1469 3103 1208 2742 
Q 947 2381 947 1747 
z
" transform="scale(0.015625)"/>
      <path id="DejaVuSans-5f" d="M 3263 -1063 
L 3263 -1509 
L -63 -1509 
L -63 -1063 
L 3263 -1063 
z
" transform="scale(0.015625)"/>
     </defs>
     <use xlink:href="#DejaVuSans-43"/>
     <use xlink:href="#DejaVuSans-6c" x="69.824219"/>
     <use xlink:href="#DejaVuSans-61" x="97.607422"/>
     <use xlink:href="#DejaVuSans-73" x="158.886719"/>
     <use xlink:href="#DejaVuSans-73" x="210.986328"/>
     <use xlink:href="#DejaVuSans-69" x="263.085938"/>
     <use xlink:href="#DejaVuSans-63" x="290.869141"/>
     <use xlink:href="#DejaVuSans-20" x="345.849609"/>
     <use xlink:href="#DejaVuSans-54" x="377.636719"/>
     <use xlink:href="#DejaVuSans-72" x="423.970703"/>
     <use xlink:href="#DejaVuSans-61" x="465.083984"/>
     <use xlink:href="#DejaVuSans-6e" x="526.363281"/>
     <use xlink:href="#DejaVuSans-73" x="589.742188"/>
     <use xlink:href="#DejaVuSans-66" x="641.841797"/>
     <use xlink:href="#DejaVuSans-6f" x="677.046875"/>
     <use xlink:href="#DejaVuSans-72" x="738.228516"/>
     <use xlink:href="#DejaVuSans-6d" x="777.591797"/>
     <use xlink:href="#DejaVuSans-65" x="875.003906"/>
     <use xlink:href="#DejaVuSans-72" x="936.527344"/>
     <use xlink:href="#DejaVuSans-20" x="977.640625"/>
     <use xlink:href="#DejaVuSans-2d" x="1009.427734"/>
     <use xlink:href="#DejaVuSans-20" x="1045.511719"/>
     <use xlink:href="#DejaVuSans-6d" x="1077.298828"/>
     <use xlink:href="#DejaVuSans-6f" x="1174.710938"/>
     <use xlink:href="#DejaVuSans-64" x="1235.892578"/>
     <use xlink:href="#DejaVuSans-65" x="1299.369141"/>
     <use xlink:href="#DejaVuSans-6c" x="1360.892578"/>
     <use xlink:href="#DejaVuSans-5f" x="1388.675781"/>
     <use xlink:href="#DejaVuSans-32" x="1438.675781"/>
     <use xlink:href="#DejaVuSans-30" x="1502.298828"/>
     <use xlink:href="#DejaVuSans-32" x="1565.921875"/>
     <use xlink:href="#DejaVuSans-33" x="1629.544922"/>
     <use xlink:href="#DejaVuSans-31" x="1693.167969"/>
     <use xlink:href="#DejaVuSans-31" x="1756.791016"/>
     <use xlink:href="#DejaVuSans-32" x="1820.414062"/>
     <use xlink:href="#DejaVuSans-33" x="1884.037109"/>
     <use xlink:href="#DejaVuSans-31" x="1947.660156"/>
     <use xlink:href="#DejaVuSans-37" x="2011.283203"/>
     <use xlink:href="#DejaVuSans-30" x="2074.90625"/>
     <use xlink:href="#DejaVuSans-36" x="2138.529297"/>
     <use xlink:href="#DejaVuSans-30" x="2202.152344"/>
     <use xlink:href="#DejaVuSans-32" x="2265.775391"/>
    </g>
   </g>
   <g id="legend_1">
    <g id="patch_7">
     <path d="M 79 95.234375 
L 161.517188 95.234375 
Q 163.517188 95.234375 163.517188 93.234375 
L 163.517188 50.2 
Q 163.517188 48.2 161.517188 48.2 
L 79 48.2 
Q 77 48.2 77 50.2 
L 77 93.234375 
Q 77 95.234375 79 95.234375 
z
" style="fill: #ffffff; opacity: 0.8; stroke: #cccccc; stroke-linejoin: miter"/>
    </g>
    <g id="line2d_16">
     <path d="M 81 56.298437 
L 91 56.298437 
L 101 56.298437 
" style="fill: none; stroke: #1f77b4; stroke-width: 1.5; stroke-linecap: square"/>
    </g>
    <g id="text_14">
     <!-- Measured -->
     <g transform="translate(109 59.798437) scale(0.1 -0.1)">
      <defs>
       <path id="DejaVuSans-4d" d="M 628 4666 
L 1569 4666 
L 2759 1491 
L 3956 4666 
L 4897 4666 
L 4897 0 
L 4281 0 
L 4281 4097 
L 3078 897 
L 2444 897 
L 1241 4097 
L 1241 0 
L 628 0 
L 628 4666 
z
" transform="scale(0.015625)"/>
       <path id="DejaVuSans-75" d="M 544 1381 
L 544 3500 
L 1119 3500 
L 1119 1403 
Q 1119 906 1312 657 
Q 1506 409 1894 409 
Q 2359 409 2629 706 
Q 2900 1003 2900 1516 
L 2900 3500 
L 3475 3500 
L 3475 0 
L 2900 0 
L 2900 538 
Q 2691 219 2414 64 
Q 2138 -91 1772 -91 
Q 1169 -91 856 284 
Q 544 659 544 1381 
z
M 1991 3584 
L 1991 3584 
z
" transform="scale(0.015625)"/>
      </defs>
      <use xlink:href="#DejaVuSans-4d"/>
      <use xlink:href="#DejaVuSans-65" x="86.279297"/>
      <use xlink:href="#DejaVuSans-61" x="147.802734"/>
      <use xlink:href="#DejaVuSans-73" x="209.082031"/>
      <use xlink:href="#DejaVuSans-75" x="261.181641"/>
      <use xlink:href="#DejaVuSans-72" x="324.560547"/>
      <use xlink:href="#DejaVuSans-65" x="363.423828"/>
      <use xlink:href="#DejaVuSans-64" x="424.947266"/>
     </g>
    </g>
    <g id="line2d_17">
     <path d="M 81 70.976562 
L 91 70.976562 
L 101 70.976562 
" style="fill: none; stroke: #ff7f0e; stroke-width: 1.5; stroke-linecap: square"/>
    </g>
    <g id="text_15">
     <!-- Fitted -->
     <g transform="translate(109 74.476562) scale(0.1 -0.1)">
      <defs>
       <path id="DejaVuSans-46" d="M 628 4666 
L 3309 4666 
L 3309 4134 
L 1259 4134 
L 1259 2759 
L 3109 2759 
L 3109 2228 
L 1259 2228 
L 1259 0 
L 628 0 
L 628 4666 
z
" transform="scale(0.015625)"/>
       <path id="DejaVuSans-74" d="M 1172 4494 
L 1172 3500 
L 2356 3500 
L 2356 3053 
L 1172 3053 
L 1172 1153 
Q 1172 725 1289 603 
Q 1406 481 1766 481 
L 2356 481 
L 2356 0 
L 1766 0 
Q 1100 0 847 248 
Q 594 497 594 1153 
L 594 3053 
L 172 3053 
L 172 3500 
L 594 3500 
L 594 4494 
L 1172 4494 
z
" transform="scale(0.015625)"/>
      </defs>
      <use xlink:href="#DejaVuSans-46"/>
      <use xlink:href="#DejaVuSans-69" x="50.269531"/>
      <use xlink:href="#DejaVuSans-74" x="78.052734"/>
      <use xlink:href="#DejaVuSans-74" x="117.261719"/>
      <use xlink:href="#DejaVuSans-65" x="156.470703"/>
      <use xlink:href="#DejaVuSans-64" x="217.994141"/>
     </g>
    </g>
    <g id="line2d_18">
     <path d="M 81 85.654687 
L 91 85.654687 
L 101 85.654687 
" style="fill: none; stroke: #2ca02c; stroke-width: 1.5; stroke-linecap: square"/>
    </g>
    <g id="text_16">
     <!-- Estimated -->
     <g transform="translate(109 89.154687) scale(0.1 -0.1)">
      <defs>
       <path id="DejaVuSans-45" d="M 628 4666 
L 3578 4666 
L 3578 4134 
L 1259 4134 
L 1259 2753 
L 3481 2753 
L 3481 2222 
L 1259 2222 
L 1259 531 
L 3634 531 
L 3634 0 
L 628 0 
L 628 4666 
z
" transform="scale(0.015625)"/>
      </defs>
      <use xlink:href="#DejaVuSans-45"/>
      <use xlink:href="#DejaVuSans-73" x="63.183594"/>
      <use xlink:href="#DejaVuSans-74" x="115.283203"/>
      <use xlink:href="#DejaVuSans-69" x="154.492188"/>
      <use xlink:href="#DejaVuSans-6d" x="182.275391"/>
      <use xlink:href="#DejaVuSans-61" x="279.6875"/>
      <use xlink:href="#DejaVuSans-74" x="340.966797"/>
      <use xlink:href="#DejaVuSans-65" x="380.175781"/>
      <use xlink:href="#DejaVuSans-64" x="441.699219"/>
     </g>
    </g>
   </g>
  </g>
 </g>
 <defs>
  <clipPath id="p25591d42e4">
   <rect x="72" y="43.2" width="446.4" height="277.2"/>
  </clipPath>
 </defs>
</svg>
