<?xml version="1.0" encoding="utf-8" standalone="no"?>
<!DOCTYPE svg PUBLIC "-//W3C//DTD SVG 1.1//EN"
  "http://www.w3.org/Graphics/SVG/1.1/DTD/svg11.dtd">
<svg xmlns:xlink="http://www.w3.org/1999/xlink" width="576pt" height="360pt" viewBox="0 0 576 360" xmlns="http://www.w3.org/2000/svg" version="1.1">
 <metadata>
  <rdf:RDF xmlns:dc="http://purl.org/dc/elements/1.1/" xmlns:cc="http://creativecommons.org/ns#" xmlns:rdf="http://www.w3.org/1999/02/22-rdf-syntax-ns#">
   <cc:Work>
    <dc:type rdf:resource="http://purl.org/dc/dcmitype/StillImage"/>
    <dc:date>2023-11-23T17:11:26.350543</dc:date>
    <dc:format>image/svg+xml</dc:format>
    <dc:creator>
     <cc:Agent>
      <dc:title>Matplotlib v3.8.1, https://matplotlib.org/</dc:title>
     </cc:Agent>
    </dc:creator>
   </cc:Work>
  </rdf:RDF>
 </metadata>
 <defs>
  <style type="text/css">*{stroke-linejoin: round; stroke-linecap: butt}</style>
 </defs>
 <g id="figure_1">
  <g id="patch_1">
   <path d="M 0 360 
L 576 360 
L 576 0 
L 0 0 
z
" style="fill: #ffffff"/>
  </g>
  <g id="axes_1">
   <g id="patch_2">
    <path d="M 72 320.4 
L 518.4 320.4 
L 518.4 43.2 
L 72 43.2 
z
" style="fill: #ffffff"/>
   </g>
   <g id="matplotlib.axis_1">
    <g id="xtick_1">
     <g id="line2d_1">
      <defs>
       <path id="mc2858123e0" d="M 0 0 
L 0 3.5 
" style="stroke: #000000; stroke-width: 0.8"/>
      </defs>
      <g>
       <use xlink:href="#mc2858123e0" x="129.874161" y="320.4" style="stroke: #000000; stroke-width: 0.8"/>
      </g>
     </g>
     <g id="text_1">
      <!-- 2020-05-15 -->
      <g transform="translate(100.816349 334.998438) scale(0.1 -0.1)">
       <defs>
        <path id="DejaVuSans-32" d="M 1228 531 
L 3431 531 
L 3431 0 
L 469 0 
L 469 531 
Q 828 903 1448 1529 
Q 2069 2156 2228 2338 
Q 2531 2678 2651 2914 
Q 2772 3150 2772 3378 
Q 2772 3750 2511 3984 
Q 2250 4219 1831 4219 
Q 1534 4219 1204 4116 
Q 875 4013 500 3803 
L 500 4441 
Q 881 4594 1212 4672 
Q 1544 4750 1819 4750 
Q 2544 4750 2975 4387 
Q 3406 4025 3406 3419 
Q 3406 3131 3298 2873 
Q 3191 2616 2906 2266 
Q 2828 2175 2409 1742 
Q 1991 1309 1228 531 
z
" transform="scale(0.015625)"/>
        <path id="DejaVuSans-30" d="M 2034 4250 
Q 1547 4250 1301 3770 
Q 1056 3291 1056 2328 
Q 1056 1369 1301 889 
Q 1547 409 2034 409 
Q 2525 409 2770 889 
Q 3016 1369 3016 2328 
Q 3016 3291 2770 3770 
Q 2525 4250 2034 4250 
z
M 2034 4750 
Q 2819 4750 3233 4129 
Q 3647 3509 3647 2328 
Q 3647 1150 3233 529 
Q 2819 -91 2034 -91 
Q 1250 -91 836 529 
Q 422 1150 422 2328 
Q 422 3509 836 4129 
Q 1250 4750 2034 4750 
z
" transform="scale(0.015625)"/>
        <path id="DejaVuSans-2d" d="M 313 2009 
L 1997 2009 
L 1997 1497 
L 313 1497 
L 313 2009 
z
" transform="scale(0.015625)"/>
        <path id="DejaVuSans-35" d="M 691 4666 
L 3169 4666 
L 3169 4134 
L 1269 4134 
L 1269 2991 
Q 1406 3038 1543 3061 
Q 1681 3084 1819 3084 
Q 2600 3084 3056 2656 
Q 3513 2228 3513 1497 
Q 3513 744 3044 326 
Q 2575 -91 1722 -91 
Q 1428 -91 1123 -41 
Q 819 9 494 109 
L 494 744 
Q 775 591 1075 516 
Q 1375 441 1709 441 
Q 2250 441 2565 725 
Q 2881 1009 2881 1497 
Q 2881 1984 2565 2268 
Q 2250 2553 1709 2553 
Q 1456 2553 1204 2497 
Q 953 2441 691 2322 
L 691 4666 
z
" transform="scale(0.015625)"/>
        <path id="DejaVuSans-31" d="M 794 531 
L 1825 531 
L 1825 4091 
L 703 3866 
L 703 4441 
L 1819 4666 
L 2450 4666 
L 2450 531 
L 3481 531 
L 3481 0 
L 794 0 
L 794 531 
z
" transform="scale(0.015625)"/>
       </defs>
       <use xlink:href="#DejaVuSans-32"/>
       <use xlink:href="#DejaVuSans-30" x="63.623047"/>
       <use xlink:href="#DejaVuSans-32" x="127.246094"/>
       <use xlink:href="#DejaVuSans-30" x="190.869141"/>
       <use xlink:href="#DejaVuSans-2d" x="254.492188"/>
       <use xlink:href="#DejaVuSans-30" x="290.576172"/>
       <use xlink:href="#DejaVuSans-35" x="354.199219"/>
       <use xlink:href="#DejaVuSans-2d" x="417.822266"/>
       <use xlink:href="#DejaVuSans-31" x="453.90625"/>
       <use xlink:href="#DejaVuSans-35" x="517.529297"/>
      </g>
     </g>
    </g>
    <g id="xtick_2">
     <g id="line2d_2">
      <g>
       <use xlink:href="#mc2858123e0" x="212.435902" y="320.4" style="stroke: #000000; stroke-width: 0.8"/>
      </g>
     </g>
     <g id="text_2">
      <!-- 2020-06-01 -->
      <g transform="translate(183.37809 334.998438) scale(0.1 -0.1)">
       <defs>
        <path id="DejaVuSans-36" d="M 2113 2584 
Q 1688 2584 1439 2293 
Q 1191 2003 1191 1497 
Q 1191 994 1439 701 
Q 1688 409 2113 409 
Q 2538 409 2786 701 
Q 3034 994 3034 1497 
Q 3034 2003 2786 2293 
Q 2538 2584 2113 2584 
z
M 3366 4563 
L 3366 3988 
Q 3128 4100 2886 4159 
Q 2644 4219 2406 4219 
Q 1781 4219 1451 3797 
Q 1122 3375 1075 2522 
Q 1259 2794 1537 2939 
Q 1816 3084 2150 3084 
Q 2853 3084 3261 2657 
Q 3669 2231 3669 1497 
Q 3669 778 3244 343 
Q 2819 -91 2113 -91 
Q 1303 -91 875 529 
Q 447 1150 447 2328 
Q 447 3434 972 4092 
Q 1497 4750 2381 4750 
Q 2619 4750 2861 4703 
Q 3103 4656 3366 4563 
z
" transform="scale(0.015625)"/>
       </defs>
       <use xlink:href="#DejaVuSans-32"/>
       <use xlink:href="#DejaVuSans-30" x="63.623047"/>
       <use xlink:href="#DejaVuSans-32" x="127.246094"/>
       <use xlink:href="#DejaVuSans-30" x="190.869141"/>
       <use xlink:href="#DejaVuSans-2d" x="254.492188"/>
       <use xlink:href="#DejaVuSans-30" x="290.576172"/>
       <use xlink:href="#DejaVuSans-36" x="354.199219"/>
       <use xlink:href="#DejaVuSans-2d" x="417.822266"/>
       <use xlink:href="#DejaVuSans-30" x="453.90625"/>
       <use xlink:href="#DejaVuSans-31" x="517.529297"/>
      </g>
     </g>
    </g>
    <g id="xtick_3">
     <g id="line2d_3">
      <g>
       <use xlink:href="#mc2858123e0" x="280.427924" y="320.4" style="stroke: #000000; stroke-width: 0.8"/>
      </g>
     </g>
     <g id="text_3">
      <!-- 2020-06-15 -->
      <g transform="translate(251.370111 334.998438) scale(0.1 -0.1)">
       <use xlink:href="#DejaVuSans-32"/>
       <use xlink:href="#DejaVuSans-30" x="63.623047"/>
       <use xlink:href="#DejaVuSans-32" x="127.246094"/>
       <use xlink:href="#DejaVuSans-30" x="190.869141"/>
       <use xlink:href="#DejaVuSans-2d" x="254.492188"/>
       <use xlink:href="#DejaVuSans-30" x="290.576172"/>
       <use xlink:href="#DejaVuSans-36" x="354.199219"/>
       <use xlink:href="#DejaVuSans-2d" x="417.822266"/>
       <use xlink:href="#DejaVuSans-31" x="453.90625"/>
       <use xlink:href="#DejaVuSans-35" x="517.529297"/>
      </g>
     </g>
    </g>
    <g id="xtick_4">
     <g id="line2d_4">
      <g>
       <use xlink:href="#mc2858123e0" x="358.133092" y="320.4" style="stroke: #000000; stroke-width: 0.8"/>
      </g>
     </g>
     <g id="text_4">
      <!-- 2020-07-01 -->
      <g transform="translate(329.075279 334.998438) scale(0.1 -0.1)">
       <defs>
        <path id="DejaVuSans-37" d="M 525 4666 
L 3525 4666 
L 3525 4397 
L 1831 0 
L 1172 0 
L 2766 4134 
L 525 4134 
L 525 4666 
z
" transform="scale(0.015625)"/>
       </defs>
       <use xlink:href="#DejaVuSans-32"/>
       <use xlink:href="#DejaVuSans-30" x="63.623047"/>
       <use xlink:href="#DejaVuSans-32" x="127.246094"/>
       <use xlink:href="#DejaVuSans-30" x="190.869141"/>
       <use xlink:href="#DejaVuSans-2d" x="254.492188"/>
       <use xlink:href="#DejaVuSans-30" x="290.576172"/>
       <use xlink:href="#DejaVuSans-37" x="354.199219"/>
       <use xlink:href="#DejaVuSans-2d" x="417.822266"/>
       <use xlink:href="#DejaVuSans-30" x="453.90625"/>
       <use xlink:href="#DejaVuSans-31" x="517.529297"/>
      </g>
     </g>
    </g>
    <g id="xtick_5">
     <g id="line2d_5">
      <g>
       <use xlink:href="#mc2858123e0" x="426.125113" y="320.4" style="stroke: #000000; stroke-width: 0.8"/>
      </g>
     </g>
     <g id="text_5">
      <!-- 2020-07-15 -->
      <g transform="translate(397.067301 334.998438) scale(0.1 -0.1)">
       <use xlink:href="#DejaVuSans-32"/>
       <use xlink:href="#DejaVuSans-30" x="63.623047"/>
       <use xlink:href="#DejaVuSans-32" x="127.246094"/>
       <use xlink:href="#DejaVuSans-30" x="190.869141"/>
       <use xlink:href="#DejaVuSans-2d" x="254.492188"/>
       <use xlink:href="#DejaVuSans-30" x="290.576172"/>
       <use xlink:href="#DejaVuSans-37" x="354.199219"/>
       <use xlink:href="#DejaVuSans-2d" x="417.822266"/>
       <use xlink:href="#DejaVuSans-31" x="453.90625"/>
       <use xlink:href="#DejaVuSans-35" x="517.529297"/>
      </g>
     </g>
    </g>
    <g id="xtick_6">
     <g id="line2d_6">
      <g>
       <use xlink:href="#mc2858123e0" x="508.686854" y="320.4" style="stroke: #000000; stroke-width: 0.8"/>
      </g>
     </g>
     <g id="text_6">
      <!-- 2020-08-01 -->
      <g transform="translate(479.629042 334.998438) scale(0.1 -0.1)">
       <defs>
        <path id="DejaVuSans-38" d="M 2034 2216 
Q 1584 2216 1326 1975 
Q 1069 1734 1069 1313 
Q 1069 891 1326 650 
Q 1584 409 2034 409 
Q 2484 409 2743 651 
Q 3003 894 3003 1313 
Q 3003 1734 2745 1975 
Q 2488 2216 2034 2216 
z
M 1403 2484 
Q 997 2584 770 2862 
Q 544 3141 544 3541 
Q 544 4100 942 4425 
Q 1341 4750 2034 4750 
Q 2731 4750 3128 4425 
Q 3525 4100 3525 3541 
Q 3525 3141 3298 2862 
Q 3072 2584 2669 2484 
Q 3125 2378 3379 2068 
Q 3634 1759 3634 1313 
Q 3634 634 3220 271 
Q 2806 -91 2034 -91 
Q 1263 -91 848 271 
Q 434 634 434 1313 
Q 434 1759 690 2068 
Q 947 2378 1403 2484 
z
M 1172 3481 
Q 1172 3119 1398 2916 
Q 1625 2713 2034 2713 
Q 2441 2713 2670 2916 
Q 2900 3119 2900 3481 
Q 2900 3844 2670 4047 
Q 2441 4250 2034 4250 
Q 1625 4250 1398 4047 
Q 1172 3844 1172 3481 
z
" transform="scale(0.015625)"/>
       </defs>
       <use xlink:href="#DejaVuSans-32"/>
       <use xlink:href="#DejaVuSans-30" x="63.623047"/>
       <use xlink:href="#DejaVuSans-32" x="127.246094"/>
       <use xlink:href="#DejaVuSans-30" x="190.869141"/>
       <use xlink:href="#DejaVuSans-2d" x="254.492188"/>
       <use xlink:href="#DejaVuSans-30" x="290.576172"/>
       <use xlink:href="#DejaVuSans-38" x="354.199219"/>
       <use xlink:href="#DejaVuSans-2d" x="417.822266"/>
       <use xlink:href="#DejaVuSans-30" x="453.90625"/>
       <use xlink:href="#DejaVuSans-31" x="517.529297"/>
      </g>
     </g>
    </g>
   </g>
   <g id="matplotlib.axis_2">
    <g id="ytick_1">
     <g id="line2d_7">
      <defs>
       <path id="m894f68cbda" d="M 0 0 
L -3.5 0 
" style="stroke: #000000; stroke-width: 0.8"/>
      </defs>
      <g>
       <use xlink:href="#m894f68cbda" x="72" y="315.798333" style="stroke: #000000; stroke-width: 0.8"/>
      </g>
     </g>
     <g id="text_7">
      <!-- −2 -->
      <g transform="translate(50.257812 319.597552) scale(0.1 -0.1)">
       <defs>
        <path id="DejaVuSans-2212" d="M 678 2272 
L 4684 2272 
L 4684 1741 
L 678 1741 
L 678 2272 
z
" transform="scale(0.015625)"/>
       </defs>
       <use xlink:href="#DejaVuSans-2212"/>
       <use xlink:href="#DejaVuSans-32" x="83.789062"/>
      </g>
     </g>
    </g>
    <g id="ytick_2">
     <g id="line2d_8">
      <g>
       <use xlink:href="#m894f68cbda" x="72" y="263.515489" style="stroke: #000000; stroke-width: 0.8"/>
      </g>
     </g>
     <g id="text_8">
      <!-- −1 -->
      <g transform="translate(50.257812 267.314708) scale(0.1 -0.1)">
       <use xlink:href="#DejaVuSans-2212"/>
       <use xlink:href="#DejaVuSans-31" x="83.789062"/>
      </g>
     </g>
    </g>
    <g id="ytick_3">
     <g id="line2d_9">
      <g>
       <use xlink:href="#m894f68cbda" x="72" y="211.232646" style="stroke: #000000; stroke-width: 0.8"/>
      </g>
     </g>
     <g id="text_9">
      <!-- 0 -->
      <g transform="translate(58.6375 215.031865) scale(0.1 -0.1)">
       <use xlink:href="#DejaVuSans-30"/>
      </g>
     </g>
    </g>
    <g id="ytick_4">
     <g id="line2d_10">
      <g>
       <use xlink:href="#m894f68cbda" x="72" y="158.949802" style="stroke: #000000; stroke-width: 0.8"/>
      </g>
     </g>
     <g id="text_10">
      <!-- 1 -->
      <g transform="translate(58.6375 162.749021) scale(0.1 -0.1)">
       <use xlink:href="#DejaVuSans-31"/>
      </g>
     </g>
    </g>
    <g id="ytick_5">
     <g id="line2d_11">
      <g>
       <use xlink:href="#m894f68cbda" x="72" y="106.666959" style="stroke: #000000; stroke-width: 0.8"/>
      </g>
     </g>
     <g id="text_11">
      <!-- 2 -->
      <g transform="translate(58.6375 110.466177) scale(0.1 -0.1)">
       <use xlink:href="#DejaVuSans-32"/>
      </g>
     </g>
    </g>
    <g id="ytick_6">
     <g id="line2d_12">
      <g>
       <use xlink:href="#m894f68cbda" x="72" y="54.384115" style="stroke: #000000; stroke-width: 0.8"/>
      </g>
     </g>
     <g id="text_12">
      <!-- 3 -->
      <g transform="translate(58.6375 58.183334) scale(0.1 -0.1)">
       <defs>
        <path id="DejaVuSans-33" d="M 2597 2516 
Q 3050 2419 3304 2112 
Q 3559 1806 3559 1356 
Q 3559 666 3084 287 
Q 2609 -91 1734 -91 
Q 1441 -91 1130 -33 
Q 819 25 488 141 
L 488 750 
Q 750 597 1062 519 
Q 1375 441 1716 441 
Q 2309 441 2620 675 
Q 2931 909 2931 1356 
Q 2931 1769 2642 2001 
Q 2353 2234 1838 2234 
L 1294 2234 
L 1294 2753 
L 1863 2753 
Q 2328 2753 2575 2939 
Q 2822 3125 2822 3475 
Q 2822 3834 2567 4026 
Q 2313 4219 1838 4219 
Q 1578 4219 1281 4162 
Q 984 4106 628 3988 
L 628 4550 
Q 988 4650 1302 4700 
Q 1616 4750 1894 4750 
Q 2613 4750 3031 4423 
Q 3450 4097 3450 3541 
Q 3450 3153 3228 2886 
Q 3006 2619 2597 2516 
z
" transform="scale(0.015625)"/>
       </defs>
       <use xlink:href="#DejaVuSans-33"/>
      </g>
     </g>
    </g>
   </g>
   <g id="line2d_13">
    <path d="M 72 287.589473 
L 72.404714 298.669356 
L 72.607072 296.986855 
L 72.809429 286.563558 
L 73.214143 256.360618 
L 73.618858 244.213784 
L 75.035358 163.166493 
L 75.237715 160.273413 
L 75.440073 165.218323 
L 75.64243 173.240979 
L 75.844787 176.462353 
L 76.047144 191.358639 
L 76.654216 260.012876 
L 77.05893 283.526849 
L 77.261287 287.794656 
L 77.463645 287.425327 
L 77.666002 276.960993 
L 78.070716 249.117658 
L 78.475431 236.929787 
L 78.677788 228.004326 
L 79.487217 172.317656 
L 79.891931 156.415972 
L 80.094288 158.324174 
L 80.903717 199.771143 
L 81.713146 273.390809 
L 82.11786 287.712583 
L 82.320218 289.702858 
L 82.522575 289.415602 
L 82.724932 286.953406 
L 82.927289 280.284958 
L 83.332004 257.817418 
L 83.736718 243.823936 
L 83.939075 240.848782 
L 84.141432 241.11552 
L 84.546147 247.373602 
L 84.748504 249.425432 
L 84.950861 249.445951 
L 85.355576 253.549611 
L 85.557933 250.287201 
L 85.76029 256.278545 
L 86.569719 300.228747 
L 86.772076 306.179054 
L 86.974433 307.738445 
L 87.176791 307.8 
L 87.379148 306.486829 
L 87.581505 302.834571 
L 87.783862 296.227678 
L 88.188577 274.662943 
L 88.390934 269.594923 
L 89.200363 261.695377 
L 89.40272 257.653271 
L 89.807434 243.187869 
L 90.212149 240.787228 
L 90.414506 238.140367 
L 90.616863 245.916803 
L 91.223935 295.386428 
L 91.628649 306.179054 
L 91.831006 306.240609 
L 92.033364 303.798931 
L 92.842792 258.658668 
L 93.04515 256.565801 
L 93.449864 248.153298 
L 93.652221 247.64034 
L 93.854578 244.767778 
L 94.056936 244.152229 
L 94.259293 241.587441 
L 94.46165 235.329359 
L 94.664007 232.53887 
L 94.866364 233.441676 
L 95.068722 236.519421 
L 95.271079 232.764572 
L 95.473436 242.654393 
L 96.080508 295.755757 
L 96.485222 304.763291 
L 96.687579 306.630457 
L 96.889937 302.383168 
L 97.699365 257.940528 
L 98.306437 247.660859 
L 98.508794 247.291529 
L 99.52058 226.527008 
L 99.722937 227.758106 
L 99.925295 232.025913 
L 100.127652 230.240821 
L 100.330009 240.171679 
L 100.937081 293.334598 
L 101.341795 305.337804 
L 101.544152 306.302164 
L 101.74651 302.670425 
L 101.948867 290.974993 
L 102.353581 261.592785 
L 102.555938 260.074431 
L 103.567724 242.674911 
L 104.377153 221.048622 
L 104.57951 222.300238 
L 104.781868 227.573441 
L 104.984225 227.552923 
L 105.186582 236.252683 
L 105.793654 290.256852 
L 106.198368 302.73198 
L 106.400725 304.455517 
L 106.603083 300.516003 
L 107.412511 255.580923 
L 107.614869 253.898422 
L 107.817226 250.307719 
L 108.22194 236.088537 
L 108.626655 214.852095 
L 108.829012 209.045415 
L 109.031369 207.198768 
L 109.638441 215.693345 
L 109.840798 221.007585 
L 110.043155 231.184663 
L 110.650227 285.045204 
L 111.054941 298.997649 
L 111.257298 300.864814 
L 111.459655 299.161795 
L 111.662013 287.999839 
L 112.066727 259.376809 
L 112.471442 244.706223 
L 113.887942 177.775524 
L 114.090299 175.456956 
L 114.292656 182.125404 
L 114.495014 193.307878 
L 114.697371 197.801386 
L 115.102085 231.082071 
L 115.709157 279.382153 
L 116.113871 293.026823 
L 116.316228 293.190969 
L 116.518586 291.570024 
L 116.720943 288.020357 
L 117.125657 261.367084 
L 118.542158 158.960242 
L 118.744515 149.07042 
L 118.946872 145.274534 
L 119.149229 148.865237 
L 119.756301 185.92129 
L 120.56573 263.562542 
L 120.970444 282.952337 
L 121.172801 286.953406 
L 121.375159 288.553833 
L 121.577516 287.13807 
L 121.779873 279.382153 
L 122.589302 229.481643 
L 123.196374 204.572426 
L 123.398731 200.099436 
L 123.601088 200.304619 
L 123.803445 199.750625 
L 124.410517 212.861819 
L 124.612874 223.592891 
L 125.219946 278.664012 
L 125.62466 292.883195 
L 125.827017 294.832434 
L 126.029374 292.349719 
L 127.04116 237.176007 
L 127.648232 200.571357 
L 128.255304 159.10387 
L 128.457661 151.717281 
L 128.660018 151.388988 
L 129.26709 194.764677 
L 130.278876 283.649959 
L 130.481233 291.303286 
L 130.68359 292.657494 
L 130.885947 290.133742 
L 132.504805 183.561685 
L 133.111877 141.806942 
L 133.314234 132.594224 
L 133.516591 134.256207 
L 133.921306 149.296122 
L 134.123663 156.5596 
L 135.135449 264.0755 
L 135.540163 276.427517 
L 135.74252 275.504194 
L 135.944878 265.142451 
L 136.349592 234.406036 
L 136.551949 227.778624 
L 136.754306 216.165266 
L 136.956664 220.638256 
L 137.159021 209.578891 
L 137.766092 200.940686 
L 137.96845 201.330534 
L 138.373164 196.036812 
L 138.777879 203.423401 
L 138.980236 204.244133 
L 139.182593 215.795936 
L 139.789665 271.215869 
L 140.194379 286.255784 
L 140.396736 288.287095 
L 140.599093 285.33246 
L 141.003808 255.765588 
L 141.408522 235.042103 
L 142.015594 221.930909 
L 142.622665 212.984929 
L 142.825023 212.718191 
L 143.02738 211.52813 
L 143.229737 212.205234 
L 143.634451 217.375846 
L 143.836809 216.165266 
L 144.039166 226.13716 
L 144.646238 274.437242 
L 145.050952 286.276302 
L 145.253309 287.548437 
L 145.455666 284.470691 
L 145.860381 255.437295 
L 146.062738 239.330428 
L 146.66981 223.203043 
L 146.872167 220.576701 
L 147.074524 219.509749 
L 147.479238 208.635049 
L 147.681596 216.924443 
L 147.883953 217.888803 
L 148.08631 220.453591 
L 148.491024 229.584235 
L 148.693382 228.250545 
L 149.098096 251.415708 
L 149.502811 279.012823 
L 149.907525 291.877798 
L 150.109882 293.90911 
L 150.312239 293.334598 
L 150.514597 290.544109 
L 150.716954 284.901576 
L 151.121668 264.260164 
L 151.526383 243.988083 
L 151.931097 238.242958 
L 152.133454 237.812074 
L 152.335811 239.761312 
L 152.538169 240.27427 
L 152.740526 238.242958 
L 152.942883 238.530214 
L 153.14524 237.565854 
L 153.347597 237.606891 
L 153.549955 234.71381 
L 153.752312 236.88875 
L 154.764098 287.815174 
L 154.966455 291.73417 
L 155.168812 293.108896 
L 155.573527 289.210419 
L 155.775884 278.253646 
L 156.78767 201.125351 
L 157.799456 158.939723 
L 158.001813 160.929998 
L 158.406528 174.000156 
L 158.608885 187.419126 
L 159.215956 255.355222 
L 159.620671 276.735292 
L 159.823028 279.915628 
L 160.025385 279.012823 
L 160.227743 269.307667 
L 160.632457 237.176007 
L 161.8466 187.378089 
L 162.251315 177.426713 
L 162.453672 177.570341 
L 162.656029 180.401866 
L 163.465458 211.897459 
L 164.072529 271.154314 
L 164.477244 289.579748 
L 164.679601 289.908041 
L 164.881958 286.707186 
L 165.084316 276.653218 
L 165.48903 245.198662 
L 166.500816 210.461178 
L 167.310245 167.967776 
L 167.512602 171.291741 
L 167.917316 191.666414 
L 168.119674 196.077849 
L 168.322031 207.321878 
L 168.929102 266.147848 
L 169.333817 281.187763 
L 169.536174 284.675874 
L 169.738531 281.044135 
L 170.143246 254.021532 
L 170.54796 224.003257 
L 171.357389 179.868391 
L 171.559746 173.897565 
L 172.166818 149.932189 
L 172.369175 151.532616 
L 172.571532 159.370608 
L 173.178604 197.965533 
L 173.785675 268.363825 
L 174.19039 287.568955 
L 174.392747 290.52359 
L 174.595104 288.71798 
L 174.999819 264.752604 
L 175.404533 239.987014 
L 177.023391 162.489389 
L 177.225748 163.002347 
L 177.428105 166.880306 
L 177.630462 183.315465 
L 177.83282 185.736625 
L 178.237534 229.440607 
L 178.642248 271.954527 
L 179.046963 290.974993 
L 179.24932 294.668287 
L 179.451677 292.165054 
L 179.654034 283.547368 
L 180.261106 244.049637 
L 181.879964 147.941914 
L 182.082321 144.700022 
L 182.284678 150.322037 
L 183.094107 206.172853 
L 183.498821 244.849851 
L 183.903536 266.12733 
L 184.30825 273.903766 
L 184.510607 275.257974 
L 184.712965 271.646753 
L 184.915322 258.371412 
L 185.724751 177.016347 
L 186.129465 155.800423 
L 186.331822 149.788561 
L 186.53418 149.029384 
L 186.736537 151.553135 
L 187.748323 191.686932 
L 188.557752 255.396258 
L 188.962466 269.471813 
L 189.164823 271.503125 
L 189.36718 271.585198 
L 189.569538 270.846539 
L 189.771895 260.135986 
L 190.986038 164.828476 
L 191.188395 159.555272 
L 191.390752 159.514236 
L 191.795467 168.603843 
L 192.604896 199.709588 
L 193.414325 262.639219 
L 193.819039 276.263371 
L 194.021396 277.330322 
L 194.426111 273.390809 
L 194.628468 264.485866 
L 195.437897 203.936358 
L 195.640254 198.950411 
L 195.842611 200.160991 
L 196.247325 206.193371 
L 196.449683 206.767884 
L 196.65204 206.378036 
L 197.056754 214.54432 
L 197.259112 215.38557 
L 197.461469 223.757037 
L 198.06854 271.851936 
L 198.473255 285.968527 
L 198.675612 286.071119 
L 198.877969 282.439379 
L 199.282684 251.805555 
L 199.687398 229.091796 
L 201.306256 163.002347 
L 201.508613 161.853322 
L 202.115684 180.955861 
L 202.318042 192.056262 
L 202.925113 255.827143 
L 203.329828 273.390809 
L 203.532185 275.483675 
L 203.734542 272.508522 
L 203.936899 261.038791 
L 204.341614 227.204112 
L 205.758114 172.789577 
L 205.960471 170.306862 
L 206.162829 170.45049 
L 206.365186 171.866253 
L 206.7699 183.664276 
L 206.972257 186.844613 
L 207.174615 197.63724 
L 207.781686 256.422173 
L 208.186401 272.508522 
L 208.388758 275.54523 
L 208.591115 272.221265 
L 208.793472 260.402724 
L 209.198187 226.752709 
L 209.805258 204.572426 
L 210.209973 184.772265 
L 210.817044 143.263741 
L 211.019402 134.810201 
L 211.221759 137.764836 
L 211.626473 162.140578 
L 211.82883 167.331708 
L 212.031188 182.002294 
L 212.638259 246.778572 
L 213.042974 265.286079 
L 213.245331 269.26663 
L 213.447688 267.563611 
L 213.650045 256.894094 
L 214.257117 213.805661 
L 214.661831 187.562754 
L 215.47126 128.449527 
L 215.875975 111.788667 
L 216.078332 111.316746 
L 216.280689 116.836169 
L 217.090118 180.36083 
L 217.697189 242.038844 
L 218.101904 260.423242 
L 218.304261 263.767725 
L 218.506618 265.121933 
L 218.708976 263.870317 
L 218.911333 251.190006 
L 219.518404 196.611325 
L 220.125476 161.545547 
L 220.327833 159.391126 
L 220.53019 161.607102 
L 221.541976 203.751694 
L 221.744334 208.881269 
L 222.553762 265.552817 
L 222.958477 276.386481 
L 223.160834 278.0895 
L 223.363191 278.438311 
L 223.565549 276.87892 
L 223.767906 268.199678 
L 224.374977 230.138229 
L 224.779692 222.587494 
L 225.386763 224.639324 
L 225.589121 228.147954 
L 225.791478 229.030241 
L 226.196192 237.38119 
L 226.398549 237.032378 
L 226.600907 243.434088 
L 227.410335 296.843227 
L 227.612693 300.864814 
L 227.81505 302.547315 
L 228.017407 299.366978 
L 228.826836 256.935131 
L 229.029193 254.616563 
L 229.23155 248.891957 
L 230.648051 185.716107 
L 230.850408 186.290619 
L 231.255122 200.65343 
L 231.45748 211.507611 
L 232.064551 274.950199 
L 232.469266 292.062463 
L 232.671623 294.770879 
L 232.87398 293.560299 
L 233.278694 268.363825 
L 233.683409 245.916803 
L 235.302267 181.57141 
L 235.504624 180.976379 
L 236.111695 200.017363 
L 236.314053 210.338068 
L 236.921124 272.241784 
L 237.325839 288.061394 
L 237.528196 291.180176 
L 237.730553 289.066791 
L 238.135267 265.204006 
L 238.539982 243.495643 
L 239.349411 212.677155 
L 239.754125 202.70526 
L 240.15884 192.528183 
L 240.361197 192.281963 
L 240.563554 197.719313 
L 240.968268 215.262461 
L 241.170626 222.813196 
L 241.777697 278.151054 
L 242.182412 293.950147 
L 242.384769 296.432861 
L 242.587126 293.457707 
L 242.99184 268.835746 
L 243.396555 250.943787 
L 245.21777 176.564944 
L 245.420127 180.791714 
L 246.027199 207.486024 
L 246.836627 280.695324 
L 247.038985 289.025754 
L 247.241342 292.185573 
L 247.443699 289.661822 
L 247.848413 266.188885 
L 249.467271 154.610362 
L 249.669628 146.567187 
L 249.871985 144.638467 
L 250.074343 144.802614 
L 250.2767 151.717281 
L 250.883772 183.705313 
L 251.6932 258.39193 
L 252.097915 272.857333 
L 252.300272 275.91456 
L 252.502629 276.181298 
L 252.704986 272.323857 
L 253.109701 239.699758 
L 253.91913 166.777714 
L 254.323844 151.040177 
L 254.728558 142.258344 
L 254.930916 141.006728 
L 255.133273 148.475389 
L 255.740345 185.79818 
L 256.549773 260.710498 
L 256.954488 276.119743 
L 257.156845 279.915628 
L 257.359202 281.577611 
L 257.561559 280.613251 
L 257.966274 251.846592 
L 258.573345 201.658827 
L 258.97806 180.073574 
L 259.382774 169.096282 
L 259.585131 165.669726 
L 259.787489 165.238842 
L 259.989846 167.844666 
L 260.39456 183.766868 
L 260.596917 197.062727 
L 261.203989 258.802296 
L 261.608704 277.432914 
L 261.811061 280.346513 
L 262.013418 279.566817 
L 262.418132 255.704033 
L 262.62049 243.741863 
L 263.025204 234.11878 
L 263.227561 231.328291 
L 263.429918 230.322894 
L 263.834633 231.595029 
L 264.03699 231.287254 
L 264.239347 232.231096 
L 264.441704 232.313169 
L 264.644062 232.046431 
L 264.846419 234.077743 
L 265.048776 238.09933 
L 265.251133 238.09933 
L 265.45349 242.100399 
L 266.060562 284.388618 
L 266.465277 297.17152 
L 266.667634 298.710392 
L 266.869991 294.545177 
L 267.072348 286.625113 
L 267.477063 260.238577 
L 268.084134 238.160885 
L 268.488849 227.922253 
L 269.09592 216.71926 
L 269.500635 212.779746 
L 269.702992 214.954686 
L 269.905349 218.545389 
L 270.107706 219.222493 
L 270.310063 225.501093 
L 270.917135 274.149986 
L 271.32185 286.071119 
L 271.524207 288.205022 
L 271.726564 286.502003 
L 274.15485 145.520754 
L 274.357208 138.380385 
L 274.559565 141.70435 
L 275.166636 166.757196 
L 275.976065 247.989151 
L 276.38078 260.505315 
L 276.583137 259.807693 
L 276.987851 238.058293 
L 277.392566 209.271117 
L 278.404352 152.558531 
L 278.606709 149.521823 
L 279.011423 136.349073 
L 279.213781 134.748646 
L 279.416138 138.995934 
L 280.023209 180.545495 
L 280.630281 251.600372 
L 281.034995 274.293614 
L 281.237353 279.156451 
L 281.43971 277.617579 
L 281.642067 271.749344 
L 282.249139 230.158747 
L 282.85621 196.652361 
L 283.867996 154.035849 
L 284.070354 152.845788 
L 284.272711 160.971035 
L 285.284497 243.721345 
L 285.689211 275.770931 
L 286.093926 290.462035 
L 286.296283 292.739567 
L 286.49864 290.933956 
L 286.700997 287.999839 
L 287.105712 257.099277 
L 287.712783 205.741969 
L 288.522212 162.468871 
L 288.724569 155.369539 
L 288.926927 153.440818 
L 289.129284 157.011003 
L 289.736355 190.702054 
L 290.545784 260.525834 
L 290.950499 275.750413 
L 291.152856 278.520384 
L 291.355213 278.602457 
L 291.55757 277.125139 
L 291.759927 264.691049 
L 292.771714 166.367348 
L 293.176428 144.453802 
L 293.581142 133.25081 
L 293.7835 131.527273 
L 293.985857 135.035902 
L 294.592928 160.478596 
L 295.402357 243.475125 
L 295.807072 258.125192 
L 296.009429 257.961046 
L 296.414143 237.730001 
L 297.830644 103.04787 
L 298.235358 89.772529 
L 298.437715 87.187223 
L 298.640073 87.453961 
L 298.84243 89.505791 
L 299.044787 97.528447 
L 299.449501 124.448459 
L 300.056573 203.300291 
L 300.461287 228.496765 
L 300.663645 234.508627 
L 300.866002 235.226768 
L 301.068359 228.414692 
L 301.473073 198.416935 
L 302.484859 93.301677 
L 302.687217 81.996093 
L 302.889574 82.098684 
L 303.091931 90.182895 
L 303.496646 98.8211 
L 303.90136 121.04242 
L 304.306074 148.94731 
L 304.913146 218.073468 
L 305.31786 243.393052 
L 305.520218 248.953512 
L 305.722575 247.168419 
L 305.924932 240.048569 
L 306.532004 200.140472 
L 307.54379 130.214101 
L 307.746147 120.016505 
L 307.948504 119.134218 
L 308.757933 151.36847 
L 309.162647 177.406194 
L 309.769719 240.335825 
L 310.174433 260.197541 
L 310.376791 264.588457 
L 310.579148 264.013945 
L 310.983862 240.623081 
L 312.198005 136.697884 
L 312.60272 125.084526 
L 312.805077 120.714128 
L 313.007434 121.268122 
L 313.209791 124.961416 
L 313.816863 152.517495 
L 314.01922 166.182684 
L 314.626292 228.701948 
L 315.031006 249.179213 
L 315.233364 253.754794 
L 315.435721 253.098208 
L 315.840435 234.344481 
L 316.24515 215.652308 
L 316.649864 203.649102 
L 317.054578 188.362967 
L 317.66165 180.853269 
L 317.864007 180.401866 
L 318.066364 179.499061 
L 318.268722 184.177234 
L 318.875793 206.295963 
L 319.685222 264.834677 
L 320.089937 277.59706 
L 320.292294 279.238524 
L 320.697008 271.31846 
L 321.101723 245.116589 
L 322.315866 167.270154 
L 322.72058 157.031521 
L 322.922937 154.712953 
L 323.125295 158.837132 
L 323.732366 186.434247 
L 324.541795 254.903819 
L 324.94651 269.184557 
L 325.148867 272.077637 
L 325.351224 272.139192 
L 325.553581 269.882179 
L 325.755938 257.571198 
L 326.970082 145.274534 
L 327.172439 138.954898 
L 327.374796 137.374988 
L 327.77951 131.814529 
L 327.981868 136.800476 
L 328.184225 145.582309 
L 328.791296 197.185837 
L 329.196011 240.869301 
L 329.398368 256.09388 
L 329.803083 266.188885 
L 330.00544 265.245043 
L 330.207797 259.643547 
L 330.814869 211.179319 
L 331.42194 172.99476 
L 331.826655 150.342555 
L 332.029012 147.449474 
L 332.231369 147.469993 
L 332.433726 147.654657 
L 332.636083 149.747524 
L 332.838441 154.282069 
L 333.243155 177.180493 
L 333.445512 186.188027 
L 334.052584 251.846592 
L 334.457298 273.61651 
L 334.659655 279.033341 
L 334.862013 276.6327 
L 335.266727 256.812021 
L 335.671442 232.477315 
L 336.48087 192.405073 
L 336.683228 187.337052 
L 336.885585 186.229064 
L 337.087942 180.053055 
L 337.290299 178.206408 
L 337.695014 184.669673 
L 338.099728 199.114557 
L 338.302085 204.982792 
L 339.111514 270.743948 
L 339.313871 276.940475 
L 339.516228 279.17697 
L 339.718586 275.114346 
L 340.1233 251.785037 
L 340.932729 207.362915 
L 342.349229 145.664382 
L 342.551587 145.582309 
L 343.158658 170.245307 
L 343.76573 232.949236 
L 344.170444 250.943787 
L 344.372801 255.704033 
L 344.575159 253.570129 
L 344.777516 246.655462 
L 345.18223 215.795936 
L 346.194016 133.230292 
L 346.598731 118.477633 
L 347.003445 111.87074 
L 347.205802 111.029489 
L 347.40816 114.209826 
L 347.610517 122.047817 
L 348.015231 148.126578 
L 348.82466 239.166282 
L 349.229374 256.258027 
L 349.431732 255.49885 
L 349.634089 249.712689 
L 349.836446 238.591769 
L 351.050589 134.256207 
L 351.455304 115.912845 
L 351.860018 107.069457 
L 352.062375 106.166652 
L 352.264733 109.798391 
L 352.46709 120.878274 
L 353.276519 203.895322 
L 353.681233 241.792624 
L 354.085947 261.962115 
L 354.288305 267.235318 
L 354.490662 267.809831 
L 354.693019 265.573336 
L 355.097733 223.572373 
L 355.704805 149.809079 
L 356.109519 125.125562 
L 356.716591 106.946347 
L 356.918948 105.858877 
L 357.121306 110.66016 
L 357.52602 136.267 
L 357.728377 148.94731 
L 358.740163 244.357412 
L 359.144878 257.324979 
L 359.347235 259.192144 
L 359.549592 258.863851 
L 359.751949 244.87037 
L 360.763735 124.325349 
L 361.16845 105.263847 
L 361.573164 94.163446 
L 361.775521 91.865396 
L 361.977879 95.148324 
L 362.180236 102.145065 
L 362.58495 127.916051 
L 363.394379 216.616668 
L 363.799093 234.262408 
L 364.001451 235.08314 
L 364.203808 229.194387 
L 364.406165 219.14042 
L 365.013237 149.583378 
L 365.620308 85.032802 
L 366.025023 68.86438 
L 366.429737 62.688371 
L 366.632094 63.18081 
L 366.834451 65.827671 
L 367.036809 74.547949 
L 367.441523 103.745492 
L 368.048595 183.397539 
L 368.453309 213.928771 
L 368.655666 222.464384 
L 368.858024 224.844507 
L 369.060381 220.94603 
L 369.262738 211.076727 
L 369.86981 147.511029 
L 370.476881 89.300608 
L 370.881596 72.660266 
L 371.083953 72.208863 
L 371.28631 72.927004 
L 371.488667 76.866518 
L 371.691024 83.104081 
L 372.298096 122.12989 
L 373.107525 207.239805 
L 373.512239 229.502162 
L 373.714597 233.87256 
L 374.119311 233.174938 
L 374.321668 220.412554 
L 375.333454 116.425803 
L 375.738169 103.150462 
L 375.940526 100.442046 
L 376.142883 99.334058 
L 376.34524 104.525188 
L 376.749955 130.809132 
L 377.559383 189.819767 
L 377.964098 224.536733 
L 378.368812 238.366068 
L 378.57117 238.591769 
L 378.773527 232.641462 
L 378.975884 221.397433 
L 380.392384 104.50467 
L 380.797099 94.553293 
L 381.201813 86.941004 
L 381.40417 90.716371 
L 382.011242 127.833978 
L 382.820671 210.912581 
L 383.225385 227.060484 
L 383.427743 227.71707 
L 383.6301 222.361793 
L 384.034814 200.058399 
L 385.0466 126.418215 
L 385.451315 109.675282 
L 385.653672 109.203361 
L 385.856029 112.999246 
L 386.058386 120.652573 
L 387.070172 190.845682 
L 387.474887 231.082071 
L 387.879601 253.036654 
L 388.284316 262.208334 
L 388.68903 264.732085 
L 388.891387 258.966443 
L 389.700816 215.282979 
L 390.307888 204.03895 
L 390.914959 191.256048 
L 391.117316 196.05733 
L 391.926745 235.760244 
L 392.533817 280.100293 
L 392.938531 292.513865 
L 393.140888 294.381031 
L 393.343246 293.929628 
L 393.545603 294.401549 
L 393.74796 285.414533 
L 394.355032 244.111192 
L 395.569175 187.439644 
L 395.771532 181.407263 
L 395.973889 182.617843 
L 396.176247 190.968792 
L 396.783318 233.154419 
L 397.188033 271.810899 
L 397.592747 289.702858 
L 397.795104 292.493347 
L 397.997461 289.949078 
L 398.402176 271.749344 
L 400.628105 143.674107 
L 400.830462 146.526151 
L 401.03282 156.518564 
L 401.639891 213.764625 
L 402.044606 258.26882 
L 402.44932 278.664012 
L 402.651677 282.685599 
L 402.854034 281.023617 
L 403.258749 262.762328 
L 403.663463 234.241889 
L 404.877607 127.81346 
L 405.282321 107.213085 
L 405.484678 102.986315 
L 405.687035 104.073785 
L 405.889393 114.620192 
L 406.294107 152.127647 
L 406.901179 229.830455 
L 407.305893 253.980495 
L 407.50825 259.60251 
L 407.710607 259.069034 
L 408.115322 237.750519 
L 409.73418 104.97659 
L 409.936537 100.03168 
L 410.138894 99.888052 
L 410.341251 104.50467 
L 410.948323 140.73999 
L 411.15068 156.703228 
L 411.757752 227.552923 
L 412.162466 251.702964 
L 412.364823 258.207265 
L 412.56718 259.992358 
L 412.971895 241.874698 
L 414.388395 143.427887 
L 414.79311 129.844772 
L 415.197824 123.155806 
L 415.400181 129.947363 
L 416.20961 192.712847 
L 416.614325 238.09933 
L 417.019039 261.243974 
L 417.221396 265.511781 
L 417.423753 264.957787 
L 417.828468 248.748329 
L 419.244968 150.691366 
L 419.649683 137.046696 
L 419.85204 133.209773 
L 420.054397 134.646054 
L 420.256754 143.325296 
L 421.066183 208.758159 
L 421.673255 263.95239 
L 422.077969 280.059256 
L 422.280326 282.541971 
L 422.482684 281.885385 
L 422.685041 281.721239 
L 423.089755 250.923268 
L 423.899184 181.776593 
L 424.708613 142.422491 
L 424.91097 139.242154 
L 425.113327 143.243223 
L 425.518042 169.383539 
L 425.720399 181.181562 
L 426.529828 255.806624 
L 426.934542 274.375687 
L 427.136899 278.848677 
L 427.339257 279.64889 
L 427.541614 279.874592 
L 427.743971 271.277423 
L 428.148685 230.938443 
L 428.755757 169.075764 
L 429.160471 143.448406 
L 429.565186 135.200048 
L 429.9699 139.119044 
L 430.374615 155.328502 
L 430.576972 166.962379 
L 431.386401 242.900613 
L 431.791115 255.12952 
L 431.993472 253.098208 
L 432.398187 232.805608 
L 433.207616 167.762593 
L 434.017044 97.446374 
L 434.219402 92.563018 
L 435.02883 119.954951 
L 435.433545 144.925723 
L 436.040617 216.062674 
L 436.445331 238.571251 
L 436.647688 243.700826 
L 436.850045 243.023722 
L 437.25476 222.443866 
L 437.659474 187.562754 
L 438.468903 114.16879 
L 438.67126 104.443115 
L 438.873617 105.407475 
L 439.075975 112.506807 
L 439.278332 112.055404 
L 439.480689 114.291899 
L 439.885403 132.819926 
L 440.290118 157.544479 
L 440.897189 230.876888 
L 441.301904 253.159763 
L 441.504261 258.576595 
L 441.706618 259.110071 
L 442.111333 244.398449 
L 442.920762 192.446109 
L 443.527833 157.626552 
L 444.134905 134.912792 
L 444.337262 132.327486 
L 444.539619 138.729196 
L 445.146691 183.725831 
L 445.753762 252.810952 
L 446.158477 273.985839 
L 446.360834 278.93075 
L 446.563191 276.940475 
L 446.967906 258.063637 
L 448.586763 148.434353 
L 448.991478 135.261603 
L 449.193835 132.943035 
L 449.396192 139.590965 
L 450.003264 179.909427 
L 450.812693 259.828211 
L 451.217407 273.103552 
L 451.419764 273.226662 
L 451.824479 256.073362 
L 452.43155 205.741969 
L 453.038622 163.905152 
L 453.443336 146.89548 
L 453.848051 139.036971 
L 454.050408 142.401972 
L 454.252765 152.373867 
L 454.65748 180.730159 
L 454.859837 189.163181 
L 455.669266 253.775312 
L 456.07398 267.296873 
L 456.276337 268.815227 
L 456.478694 266.824952 
L 456.681052 263.726689 
L 456.883409 255.745069 
L 457.288123 228.784021 
L 457.692838 217.847767 
L 457.895195 218.545389 
L 458.299909 224.290513 
L 458.502267 224.146885 
L 458.906981 220.330481 
L 459.109338 220.863957 
L 459.514053 225.008654 
L 459.71641 229.296979 
L 460.728196 286.891851 
L 461.13291 291.303286 
L 461.537625 287.999839 
L 461.739982 279.094896 
L 462.144696 244.665187 
L 463.561197 175.641621 
L 463.763554 168.39866 
L 463.965911 169.568203 
L 464.572983 188.999035 
L 465.382412 255.827143 
L 465.584769 262.721292 
L 465.787126 265.429708 
L 465.989483 263.008548 
L 467.608341 170.676192 
L 468.620127 149.542341 
L 468.822484 152.661123 
L 469.429556 178.842476 
L 470.036627 235.431951 
L 470.441342 253.180282 
L 470.643699 255.806624 
L 470.846056 253.241837 
L 471.857842 202.438522 
L 472.869628 172.256101 
L 473.071985 172.74854 
L 473.274343 170.963448 
L 473.4767 172.215064 
L 473.679057 175.990432 
L 473.881414 182.556288 
L 474.083772 183.705313 
L 474.286129 191.358639 
L 474.8932 243.352015 
L 475.297915 259.561473 
L 475.500272 261.223456 
L 475.702629 259.192144 
L 476.107344 234.877957 
L 476.512058 212.923374 
L 477.321487 181.509855 
L 477.726201 161.401919 
L 477.928558 157.852253 
L 478.333273 162.530426 
L 478.53563 166.982897 
L 479.142702 191.851079 
L 479.952131 259.458882 
L 480.356845 269.287148 
L 480.559202 268.876782 
L 480.963917 246.840126 
L 482.785131 118.764889 
L 482.987489 112.876137 
L 483.189846 110.249794 
L 483.392203 115.871809 
L 483.999275 155.636277 
L 484.606346 226.568045 
L 485.011061 249.733207 
L 485.213418 254.124123 
L 485.415775 255.067965 
L 485.82049 235.349878 
L 486.225204 204.223614 
L 487.23699 114.476564 
L 487.439347 111.398819 
L 487.844062 117.944157 
L 488.248776 136.51322 
L 489.260562 213.846698 
L 489.665277 245.916803 
L 490.069991 260.977236 
L 490.272348 263.316323 
L 490.474705 262.187816 
L 490.677063 260.423242 
L 490.87942 250.718085 
L 491.891206 171.209667 
L 492.29592 153.54341 
L 492.498277 146.17734 
L 492.700635 144.166546 
L 492.902992 145.787492 
L 493.105349 150.588775 
L 493.712421 184.013088 
L 494.52185 255.806624 
L 495.128921 274.026876 
L 495.331278 274.170504 
L 495.533636 273.554955 
L 495.735993 266.024738 
L 496.950136 174.779852 
L 497.557208 150.486183 
L 497.759565 147.1417 
L 497.961922 150.342555 
L 498.568994 181.756074 
L 499.378422 255.355222 
L 499.58078 262.167298 
L 499.783137 264.650012 
L 499.985494 261.346566 
L 500.187851 252.851989 
L 500.794923 216.042156 
L 500.99728 210.953617 
L 501.401995 197.903978 
L 501.806709 186.680467 
L 502.009066 186.229064 
L 502.211423 188.280894 
L 502.413781 188.916962 
L 502.616138 187.254979 
L 503.020852 196.939617 
L 503.223209 197.493612 
L 503.425567 204.982792 
L 504.032638 255.519368 
L 504.437353 268.548489 
L 504.63971 270.169435 
L 504.842067 267.809831 
L 505.246782 243.516162 
L 505.651496 219.776487 
L 507.270354 146.854444 
L 507.472711 143.75618 
L 507.675068 147.1417 
L 508.28214 175.087626 
L 508.889211 232.928718 
L 509.293926 249.999945 
L 509.496283 253.508574 
L 509.69864 251.682446 
L 510.103354 228.209509 
L 511.722212 122.170927 
L 512.126927 104.463633 
L 512.329284 106.043542 
L 512.936355 140.309106 
L 513.34107 179.129732 
L 513.745784 222.464384 
L 514.150499 245.116589 
L 514.352856 250.677049 
L 514.555213 251.169488 
L 514.75757 242.305582 
L 516.174071 145.849047 
L 516.376428 144.761577 
L 516.781142 154.056367 
L 516.9835 151.327433 
L 517.185857 151.860909 
L 517.590571 169.506648 
L 517.792928 173.733419 
L 517.995286 184.402935 
L 518.4 223.941702 
L 518.4 223.941702 
" clip-path="url(#p706327115f)" style="fill: none; stroke: #1f77b4; stroke-width: 1.5; stroke-linecap: square"/>
   </g>
   <g id="line2d_14">
    <path d="M 72 279.311118 
L 72.202357 279.311118 
L 72.607072 287.949615 
L 72.809429 288.735758 
L 73.011786 281.904964 
L 73.618858 246.330576 
L 74.023572 226.858224 
L 75.035358 168.000495 
L 75.237715 162.481222 
L 75.440073 160.801467 
L 75.64243 165.017744 
L 76.047144 184.444604 
L 76.451859 222.687015 
L 76.856573 267.75855 
L 77.05893 280.208363 
L 77.261287 285.461648 
L 77.463645 283.537981 
L 77.666002 277.990985 
L 78.273073 237.685249 
L 78.880145 215.232054 
L 79.689574 162.600891 
L 79.891931 156.803157 
L 80.094288 154.352349 
L 80.296646 159.062911 
L 80.70136 184.979037 
L 81.308432 238.748343 
L 81.713146 267.833198 
L 81.915503 277.240897 
L 82.11786 281.418074 
L 82.320218 282.991793 
L 82.522575 279.403242 
L 83.129646 261.683482 
L 83.534361 240.829122 
L 83.939075 230.632464 
L 84.141432 229.101688 
L 84.34379 229.740296 
L 85.153218 249.272993 
L 85.76029 255.614939 
L 86.367362 284.823828 
L 86.772076 302.62623 
L 86.974433 307.470506 
L 87.176791 306.576265 
L 87.581505 293.45153 
L 88.390934 260.228048 
L 88.593291 256.304121 
L 88.795648 256.55737 
L 88.998005 257.092003 
L 89.200363 258.988502 
L 89.40272 257.857759 
L 89.605077 254.743257 
L 90.212149 237.264018 
L 90.414506 237.202817 
L 90.616863 237.708665 
L 90.81922 248.167505 
L 91.426292 297.638803 
L 91.628649 304.536865 
L 91.831006 305.917118 
L 92.235721 292.103998 
L 93.04515 244.935664 
L 93.247507 246.800265 
L 93.449864 246.292177 
L 94.46165 232.504356 
L 94.664007 228.758904 
L 94.866364 228.10833 
L 95.473436 240.326669 
L 95.675793 249.893106 
L 96.282865 301.029163 
L 96.485222 304.371265 
L 96.687579 300.473976 
L 97.092294 285.293991 
L 97.699365 250.431004 
L 97.901723 248.648574 
L 98.306437 243.657445 
L 98.711151 239.544337 
L 99.52058 225.815033 
L 99.722937 225.989609 
L 99.925295 229.189446 
L 100.330009 240.200175 
L 100.734723 269.37356 
L 101.139438 296.765454 
L 101.341795 300.315574 
L 101.544152 300.093793 
L 101.74651 296.025158 
L 101.948867 287.411891 
L 102.555938 249.587023 
L 102.758296 249.037834 
L 103.365367 244.455037 
L 103.770082 235.546258 
L 104.174796 223.616421 
L 104.377153 220.434727 
L 104.57951 220.850624 
L 104.781868 224.577691 
L 105.186582 237.997814 
L 105.591296 266.588461 
L 105.996011 294.14912 
L 106.198368 298.302569 
L 106.400725 297.608787 
L 106.603083 294.323284 
L 106.80544 286.192034 
L 107.412511 248.635255 
L 107.817226 244.13355 
L 108.019583 242.486439 
L 108.22194 238.050012 
L 109.031369 202.198192 
L 109.233726 203.095244 
L 109.436083 207.275443 
L 110.043155 232.347897 
L 110.852584 287.812959 
L 111.054941 294.18689 
L 111.257298 294.882186 
L 111.459655 292.348036 
L 111.662013 284.93523 
L 112.269084 247.966453 
L 112.471442 242.993215 
L 112.876156 222.619463 
L 113.887942 180.7186 
L 114.090299 177.416836 
L 114.292656 179.092203 
L 114.495014 185.777156 
L 114.899728 211.797317 
L 115.709157 274.095441 
L 115.911514 281.380547 
L 116.316228 285.960381 
L 116.518586 282.195429 
L 117.125657 259.215045 
L 117.935086 202.716208 
L 118.339801 172.41183 
L 118.744515 155.072364 
L 118.946872 148.859621 
L 119.149229 148.275452 
L 119.351587 155.465878 
L 119.756301 184.218719 
L 120.56573 258.904748 
L 120.970444 278.83956 
L 121.172801 283.602619 
L 121.375159 282.402039 
L 121.779873 270.979197 
L 122.184587 246.570332 
L 122.589302 220.91959 
L 123.196374 201.786053 
L 123.601088 194.95809 
L 123.803445 196.481811 
L 124.005802 199.757721 
L 124.612874 221.448026 
L 125.017588 253.633863 
L 125.422303 285.409369 
L 125.62466 294.768778 
L 125.827017 297.321682 
L 126.029374 293.992906 
L 126.231732 286.161257 
L 127.243518 220.320765 
L 127.648232 199.310354 
L 128.457661 157.656668 
L 128.660018 153.94852 
L 128.862375 156.297818 
L 129.26709 184.255682 
L 130.278876 283.358768 
L 130.481233 286.316524 
L 130.68359 285.104906 
L 131.088305 275.168508 
L 133.314234 139.526912 
L 133.516591 136.347451 
L 133.718948 141.965803 
L 134.32602 178.694332 
L 135.135449 265.546214 
L 135.540163 274.905891 
L 135.74252 271.953396 
L 135.944878 265.081324 
L 136.956664 197.778882 
L 137.159021 199.652909 
L 137.361378 197.155195 
L 137.563735 197.014189 
L 137.96845 194.501987 
L 138.170807 194.771893 
L 138.373164 194.689544 
L 138.575521 197.725329 
L 138.980236 209.110049 
L 139.38495 234.288386 
L 139.992022 282.027934 
L 140.194379 288.113121 
L 140.396736 288.832438 
L 140.599093 283.217974 
L 141.003808 259.75619 
L 141.610879 223.649879 
L 142.217951 213.341842 
L 142.420308 213.353971 
L 142.622665 213.036591 
L 142.825023 210.74517 
L 143.02738 210.307569 
L 143.229737 210.543239 
L 143.432094 213.43221 
L 143.634451 219.121639 
L 143.836809 221.368812 
L 144.039166 226.44107 
L 145.050952 283.07129 
L 145.253309 283.895564 
L 145.455666 279.963079 
L 145.860381 256.54665 
L 146.265095 228.460395 
L 146.872167 214.719797 
L 147.074524 213.496057 
L 147.276881 212.984387 
L 147.681596 204.285996 
L 148.08631 214.572677 
L 149.098096 247.854354 
L 149.907525 285.713744 
L 150.109882 286.368229 
L 150.312239 284.207586 
L 151.931097 232.667781 
L 152.133454 229.3644 
L 153.14524 239.217019 
L 153.347597 239.461964 
L 153.549955 239.06237 
L 153.752312 240.362543 
L 154.157026 254.76699 
L 154.764098 283.063081 
L 154.966455 287.176548 
L 155.168812 288.821917 
L 155.37117 285.923172 
L 155.978241 260.713106 
L 157.597099 166.124121 
L 158.001813 157.772707 
L 158.20417 161.086896 
L 158.608885 184.270294 
L 159.013599 226.03839 
L 159.418314 265.052149 
L 159.620671 276.375283 
L 159.823028 280.817095 
L 160.025385 279.821668 
L 160.227743 273.991388 
L 161.644243 185.414869 
L 162.251315 172.857492 
L 162.453672 172.302345 
L 162.656029 174.89525 
L 162.858386 180.90397 
L 163.667815 225.293958 
L 164.274887 280.311837 
L 164.477244 287.956489 
L 164.679601 288.582311 
L 165.084316 272.521061 
L 165.691387 232.231857 
L 166.298459 217.051335 
L 166.500816 214.311423 
L 166.90553 192.293581 
L 167.310245 172.337154 
L 167.512602 170.022186 
L 167.714959 175.98967 
L 168.524388 226.355395 
L 169.13146 272.55013 
L 169.333817 277.701001 
L 169.536174 278.303531 
L 169.738531 277.303261 
L 169.940888 269.983501 
L 171.559746 167.39502 
L 172.166818 154.040383 
L 172.369175 152.739234 
L 172.571532 158.481566 
L 173.178604 196.70941 
L 173.988033 275.290742 
L 174.19039 283.81057 
L 174.392747 285.304574 
L 174.595104 283.469534 
L 174.797461 275.386649 
L 175.809248 214.321548 
L 177.023391 171.198642 
L 177.225748 167.969609 
L 177.428105 170.652816 
L 177.630462 178.037279 
L 178.237534 223.634461 
L 178.642248 267.750367 
L 179.046963 289.013009 
L 179.24932 289.403107 
L 179.451677 287.383395 
L 179.856392 268.372169 
L 180.463463 228.46449 
L 181.879964 154.077791 
L 182.082321 150.695558 
L 182.284678 152.650999 
L 182.689393 175.711384 
L 183.094107 209.725899 
L 183.498821 246.468943 
L 183.903536 265.480292 
L 184.105893 267.711625 
L 184.30825 268.073733 
L 184.510607 265.429334 
L 184.712965 261.206308 
L 185.117679 242.239335 
L 186.129465 151.100016 
L 186.331822 143.01657 
L 186.53418 139.76855 
L 186.736537 141.370341 
L 186.938894 147.718039 
L 188.962466 270.245682 
L 189.164823 272.35791 
L 189.36718 268.06454 
L 189.771895 250.959043 
L 190.176609 224.465862 
L 190.986038 166.259857 
L 191.188395 159.793914 
L 191.390752 157.665824 
L 191.59311 159.731869 
L 191.997824 173.4266 
L 193.00961 228.953036 
L 193.616682 269.462581 
L 193.819039 275.526907 
L 194.021396 275.903082 
L 194.426111 263.920297 
L 194.830825 245.042946 
L 195.437897 204.567958 
L 195.842611 190.529449 
L 196.044968 193.602847 
L 196.449683 205.912938 
L 196.854397 212.103903 
L 197.461469 222.042062 
L 197.663826 230.849932 
L 198.473255 286.028472 
L 198.675612 288.844604 
L 198.877969 283.658955 
L 199.080326 274.827204 
L 200.092112 205.363346 
L 200.496827 196.212965 
L 201.306256 169.20224 
L 201.508613 166.606465 
L 201.71097 169.80674 
L 202.115684 186.072145 
L 202.520399 211.944675 
L 203.127471 265.396282 
L 203.329828 273.094049 
L 203.532185 272.559541 
L 203.936899 258.571164 
L 204.746328 207.536145 
L 205.960471 166.891077 
L 206.162829 167.264123 
L 206.365186 170.536285 
L 207.174615 203.762137 
L 208.186401 271.257563 
L 208.388758 272.297878 
L 208.591115 269.666169 
L 208.793472 260.849363 
L 209.602901 208.226825 
L 210.007616 193.011297 
L 210.41233 178.264669 
L 211.019402 147.739909 
L 211.221759 142.464013 
L 211.424116 146.58072 
L 212.233545 203.812145 
L 212.638259 243.435159 
L 213.042974 262.662595 
L 213.245331 264.946694 
L 213.447688 264.271747 
L 213.650045 258.166603 
L 215.673617 124.934524 
L 215.875975 118.504194 
L 216.078332 115.82005 
L 216.280689 120.401529 
L 216.483046 129.547185 
L 217.090118 180.364594 
L 217.494832 225.927167 
L 217.899547 250.540346 
L 218.101904 256.412568 
L 218.304261 258.07303 
L 218.708976 249.314646 
L 218.911333 242.608043 
L 219.316047 214.26805 
L 220.125476 160.292959 
L 220.327833 152.821323 
L 220.53019 151.635172 
L 220.732548 155.924174 
L 221.137262 178.716184 
L 221.541976 203.853504 
L 221.946691 222.772804 
L 222.553762 263.446413 
L 222.958477 278.69712 
L 223.160834 281.203946 
L 223.363191 278.096104 
L 223.970263 250.389611 
L 224.577335 215.297851 
L 224.779692 211.909486 
L 224.982049 213.266659 
L 225.184406 215.870502 
L 225.993835 230.896755 
L 226.600907 238.815902 
L 226.803264 245.476601 
L 227.612693 298.303298 
L 227.81505 301.055864 
L 228.017407 297.097776 
L 228.219764 289.449739 
L 229.029193 239.364763 
L 229.23155 239.859763 
L 229.433908 238.599986 
L 229.636265 235.354705 
L 230.040979 217.804457 
L 230.648051 190.162048 
L 230.850408 187.808117 
L 231.052765 189.101767 
L 231.255122 195.445758 
L 231.659837 224.094434 
L 232.266908 283.533044 
L 232.469266 290.510921 
L 232.671623 288.692821 
L 233.076337 277.838205 
L 234.897552 190.666787 
L 235.302267 179.492155 
L 235.504624 179.347742 
L 235.706981 182.826365 
L 236.111695 201.242229 
L 236.51641 227.969379 
L 237.123481 278.525412 
L 237.325839 286.562923 
L 237.528196 288.316478 
L 237.730553 285.346744 
L 237.93291 277.896249 
L 238.539982 238.199946 
L 239.754125 195.929511 
L 240.15884 192.074393 
L 240.361197 192.445152 
L 240.563554 196.596025 
L 240.968268 212.341515 
L 241.372983 237.837726 
L 241.980054 282.763293 
L 242.182412 288.978885 
L 242.384769 290.37912 
L 242.587126 287.999401 
L 242.789483 280.356687 
L 243.396555 241.861783 
L 244.003626 222.831176 
L 244.813055 187.512515 
L 245.21777 180.911405 
L 245.420127 181.899559 
L 245.824841 196.327855 
L 246.229556 223.156307 
L 246.836627 274.997398 
L 247.038985 283.427271 
L 247.241342 286.008808 
L 247.443699 285.080344 
L 247.646056 278.996621 
L 248.860199 199.146287 
L 249.467271 155.778237 
L 249.871985 141.754917 
L 250.074343 142.026696 
L 250.2767 147.690036 
L 250.681414 173.519665 
L 251.895558 265.684758 
L 252.097915 270.622885 
L 252.300272 271.177107 
L 252.502629 267.887035 
L 252.907344 253.063829 
L 253.312058 224.320138 
L 254.121487 155.074839 
L 254.526201 142.246046 
L 254.728558 141.648452 
L 254.930916 142.769909 
L 255.133273 146.913977 
L 255.537987 174.17354 
L 256.145059 222.646985 
L 256.752131 268.599241 
L 256.954488 274.362888 
L 257.156845 276.538689 
L 257.359202 274.821028 
L 257.763917 261.128073 
L 259.180417 171.978773 
L 259.382774 167.950139 
L 259.585131 166.931308 
L 259.787489 167.237432 
L 259.989846 170.741555 
L 260.39456 185.845867 
L 260.596917 194.770602 
L 261.001632 232.001517 
L 261.406346 269.593808 
L 261.811061 283.578044 
L 262.013418 280.641504 
L 262.215775 273.802284 
L 263.227561 215.086737 
L 263.429918 215.548383 
L 263.834633 223.564033 
L 264.03699 228.274868 
L 264.239347 230.367736 
L 264.441704 229.806896 
L 264.644062 228.025154 
L 264.846419 228.686802 
L 265.655848 250.871733 
L 266.262919 289.865641 
L 266.465277 294.946014 
L 266.667634 294.217866 
L 267.072348 280.488949 
L 267.881777 241.663437 
L 268.084134 237.585412 
L 268.691206 221.192664 
L 269.09592 214.5398 
L 269.298277 212.644672 
L 269.500635 212.636081 
L 269.905349 218.410474 
L 270.512421 236.076585 
L 271.119492 277.298792 
L 271.32185 282.867814 
L 271.524207 283.569106 
L 271.726564 281.151861 
L 271.928921 275.344354 
L 272.535993 234.113205 
L 272.73835 228.766868 
L 274.357208 147.027822 
L 274.559565 143.759197 
L 274.761922 147.662251 
L 275.166636 169.945852 
L 275.571351 208.784563 
L 276.178422 256.731313 
L 276.38078 261.073117 
L 276.583137 258.632072 
L 276.785494 252.471726 
L 278.404352 151.740453 
L 278.606709 142.564794 
L 278.809066 139.104554 
L 279.213781 135.887746 
L 279.416138 139.797532 
L 279.820852 163.364378 
L 280.225567 197.855042 
L 280.832638 263.173912 
L 281.237353 276.197224 
L 281.43971 273.006824 
L 281.642067 266.549563 
L 283.260925 177.538509 
L 283.867996 156.765357 
L 284.070354 154.788594 
L 284.272711 159.380749 
L 284.475068 169.404348 
L 285.891568 279.943951 
L 286.093926 284.050388 
L 286.296283 283.689009 
L 286.49864 282.219237 
L 286.903354 267.902978 
L 287.308069 241.019391 
L 288.319855 171.154637 
L 288.724569 159.968745 
L 288.926927 157.006054 
L 289.129284 158.896133 
L 289.331641 166.29936 
L 289.938713 207.574437 
L 290.545784 259.47117 
L 290.950499 274.708598 
L 291.152856 275.879573 
L 291.355213 274.37923 
L 291.759927 261.603228 
L 292.164642 227.327623 
L 292.771714 171.868322 
L 293.176428 143.086924 
L 293.378785 136.416109 
L 293.581142 133.929314 
L 293.7835 133.994581 
L 293.985857 137.120891 
L 294.188214 144.01272 
L 294.795286 185.790285 
L 295.604714 256.812365 
L 295.807072 263.873752 
L 296.009429 262.242493 
L 296.211786 256.053309 
L 296.6165 225.302958 
L 298.033001 91.602601 
L 298.235358 84.877725 
L 298.437715 84.358325 
L 298.640073 85.94669 
L 299.044787 100.991428 
L 299.449501 128.662966 
L 300.461287 231.940008 
L 300.663645 237.53169 
L 300.866002 234.412158 
L 301.270716 215.461262 
L 301.877788 164.891132 
L 302.687217 77.58178 
L 302.889574 69.570507 
L 303.091931 69.442963 
L 303.699003 103.625188 
L 304.913146 210.019967 
L 305.31786 244.367538 
L 305.520218 249.783344 
L 305.722575 248.09467 
L 306.127289 227.51574 
L 307.139075 156.745419 
L 307.54379 130.260655 
L 307.948504 119.651273 
L 308.150861 121.39073 
L 308.353218 128.022017 
L 309.162647 179.847544 
L 310.174433 261.081846 
L 310.376791 263.872293 
L 310.579148 261.686657 
L 310.781505 254.072728 
L 311.793291 174.725605 
L 312.400363 128.817459 
L 312.60272 121.782 
L 312.805077 119.236855 
L 313.007434 121.505291 
L 313.209791 125.518893 
L 313.614506 146.785031 
L 314.828649 238.886863 
L 315.031006 250.635942 
L 315.233364 254.363791 
L 315.435721 251.982941 
L 315.638078 244.271194 
L 316.447507 196.855024 
L 316.852221 192.167959 
L 317.256936 184.260312 
L 317.459293 183.056925 
L 317.66165 180.882349 
L 317.864007 180.986065 
L 318.066364 181.755502 
L 318.268722 185.803037 
L 318.875793 208.232463 
L 319.887579 271.352997 
L 320.089937 273.773047 
L 320.292294 272.333011 
L 320.494651 268.67152 
L 321.101723 244.239349 
L 322.518223 163.650829 
L 322.72058 158.600976 
L 322.922937 156.802846 
L 323.125295 159.627719 
L 323.327652 166.437113 
L 324.339438 235.999605 
L 324.744152 261.053497 
L 324.94651 266.67361 
L 325.148867 269.085801 
L 325.351224 267.801599 
L 325.755938 255.440912 
L 326.36301 207.169522 
L 327.374796 131.74723 
L 327.577153 131.101907 
L 327.981868 136.179993 
L 328.184225 144.430286 
L 328.588939 176.108538 
L 329.600725 265.085799 
L 329.803083 269.506477 
L 330.00544 267.616279 
L 330.410154 249.526427 
L 331.42194 166.683762 
L 332.029012 140.346574 
L 332.231369 139.73462 
L 332.636083 149.402648 
L 333.040798 167.410894 
L 334.052584 244.689177 
L 334.457298 274.210701 
L 334.659655 277.395697 
L 334.862013 273.808642 
L 335.266727 252.307279 
L 335.873799 214.39368 
L 336.885585 181.818342 
L 337.087942 180.960263 
L 337.290299 179.254933 
L 337.492656 180.267082 
L 337.695014 184.671318 
L 338.302085 210.148519 
L 338.7068 239.122755 
L 339.111514 269.372121 
L 339.313871 277.217338 
L 339.516228 278.070332 
L 339.718586 274.645343 
L 339.920943 266.816113 
L 341.135086 197.408128 
L 341.944515 164.807387 
L 342.349229 154.820636 
L 342.551587 155.56368 
L 342.753944 160.258748 
L 343.158658 179.65275 
L 343.361015 192.696426 
L 343.76573 231.893033 
L 344.170444 252.994074 
L 344.372801 254.947427 
L 344.575159 253.12777 
L 344.777516 246.367611 
L 345.18223 220.946941 
L 345.991659 156.434138 
L 346.396374 123.711513 
L 346.598731 113.421103 
L 346.801088 109.1506 
L 347.003445 109.840169 
L 347.205802 111.605709 
L 347.40816 114.916915 
L 347.812874 136.841989 
L 348.217588 169.945743 
L 348.82466 234.271127 
L 349.229374 254.551317 
L 349.431732 253.933277 
L 349.634089 246.49809 
L 350.443518 188.438388 
L 351.455304 116.477483 
L 351.657661 111.542236 
L 352.062375 110.516624 
L 352.264733 114.487308 
L 352.46709 123.061484 
L 352.871804 157.746848 
L 353.88359 254.611833 
L 354.085947 260.564777 
L 354.288305 259.316892 
L 354.490662 256.027007 
L 354.895376 242.573627 
L 355.502448 188.689378 
L 356.109519 123.240597 
L 356.311877 113.423846 
L 356.716591 106.976308 
L 356.918948 107.420929 
L 357.121306 111.43114 
L 357.52602 138.025778 
L 358.740163 248.374377 
L 358.94252 256.720608 
L 359.144878 257.153497 
L 359.347235 254.485897 
L 359.751949 239.312861 
L 360.359021 182.284659 
L 360.966092 111.719529 
L 361.370807 94.694133 
L 361.573164 94.449516 
L 361.775521 95.874238 
L 361.977879 99.108622 
L 362.382593 118.140036 
L 362.989665 178.929666 
L 363.596736 235.716576 
L 363.799093 243.815314 
L 364.001451 244.650623 
L 364.203808 237.197027 
L 364.608522 208.669177 
L 365.013237 167.531149 
L 365.822665 68.985366 
L 366.025023 59.799148 
L 366.22738 55.8 
L 366.429737 57.502497 
L 366.632094 61.698882 
L 367.036809 76.942627 
L 367.441523 107.965696 
L 368.453309 217.480544 
L 368.655666 225.994498 
L 368.858024 225.439354 
L 369.262738 209.476597 
L 369.86981 160.436087 
L 370.679238 74.367142 
L 371.083953 62.094777 
L 371.28631 65.523007 
L 371.488667 71.875485 
L 371.893382 94.93531 
L 372.702811 172.770382 
L 373.107525 210.747744 
L 373.512239 232.098 
L 373.714597 233.043819 
L 373.916954 228.042183 
L 374.524025 199.493634 
L 374.92874 168.256926 
L 375.535811 102.660693 
L 375.738169 95.955948 
L 375.940526 92.99641 
L 376.34524 101.225213 
L 376.547597 110.448701 
L 376.952312 145.942078 
L 377.761741 209.321162 
L 378.166455 236.531912 
L 378.368812 242.345464 
L 378.57117 242.346003 
L 378.773527 237.228025 
L 378.975884 227.725988 
L 379.582956 173.535608 
L 380.392384 101.894744 
L 380.797099 90.13506 
L 381.201813 95.192105 
L 381.606528 106.280513 
L 382.011242 134.230006 
L 382.415956 175.542736 
L 382.820671 213.726449 
L 383.225385 229.79362 
L 383.427743 227.326244 
L 383.832457 209.938134 
L 384.237171 186.245985 
L 384.237171 186.245985 
" clip-path="url(#p706327115f)" style="fill: none; stroke: #ff7f0e; stroke-width: 1.5; stroke-linecap: square"/>
   </g>
   <g id="line2d_15">
    <path d="M 384.439529 173.009487 
L 385.0466 143.113686 
L 385.451315 130.689203 
L 385.653672 128.411468 
L 385.856029 129.678855 
L 386.058386 133.718764 
L 386.260743 140.412988 
L 387.070172 192.10453 
L 387.677244 234.557509 
L 387.879601 243.528038 
L 388.081958 247.288627 
L 388.284316 245.913606 
L 388.486673 241.042695 
L 388.891387 220.446545 
L 389.498459 188.699449 
L 390.307888 160.232796 
L 390.510245 157.175456 
L 390.712602 157.160173 
L 390.914959 160.0801 
L 391.319674 175.132578 
L 392.736174 239.047415 
L 392.938531 240.50542 
L 393.140888 238.457727 
L 393.343246 233.92666 
L 393.74796 217.294641 
L 394.355032 195.234819 
L 394.962103 183.308251 
L 395.164461 182.239685 
L 395.366818 183.019068 
L 395.771532 190.035912 
L 396.378604 205.30522 
L 397.39039 235.546909 
L 397.592747 237.347186 
L 397.795104 236.792476 
L 397.997461 234.003094 
L 398.402176 223.659185 
L 399.009248 205.762993 
L 399.413962 199.830257 
L 399.616319 197.977045 
L 399.818676 197.782857 
L 400.021034 198.812652 
L 400.425748 203.992181 
L 401.235177 216.931124 
L 401.842248 226.956855 
L 402.044606 228.962014 
L 402.246963 229.825844 
L 402.44932 229.460033 
L 402.651677 227.716407 
L 403.056392 221.333522 
L 403.663463 209.807456 
L 404.068178 206.641383 
L 404.270535 206.609911 
L 404.472892 207.474151 
L 406.09175 219.883241 
L 406.698821 223.018279 
L 406.901179 223.544901 
L 407.103536 223.22061 
L 407.305893 222.358791 
L 407.710607 218.363282 
L 408.317679 211.74457 
L 408.520036 210.838953 
L 408.722393 210.792237 
L 408.924751 211.336008 
L 409.73418 215.542417 
L 409.936537 215.919717 
L 410.341251 215.981985 
L 410.543608 216.221917 
L 411.555394 218.876645 
L 411.757752 218.902433 
L 411.960109 218.253487 
L 412.971895 212.582769 
L 413.174252 212.44422 
L 413.376609 212.652238 
L 413.578966 213.083499 
L 414.186038 215.126948 
L 414.388395 215.221261 
L 414.79311 214.64088 
L 414.995467 214.619831 
L 415.197824 214.761074 
L 415.602539 215.477489 
L 416.20961 216.609268 
L 416.411967 216.606189 
L 416.614325 216.162279 
L 417.423753 213.321628 
L 417.626111 213.081534 
L 417.828468 213.070568 
L 418.233182 213.65755 
L 418.637897 214.571128 
L 418.840254 214.737256 
L 419.042611 214.643628 
L 419.447325 214.175145 
L 419.649683 214.104952 
L 419.85204 214.183948 
L 420.459112 214.913897 
L 420.863826 215.373385 
L 421.066183 215.320245 
L 421.470898 214.453649 
L 421.875612 213.618478 
L 422.077969 213.39992 
L 422.280326 213.366478 
L 422.685041 213.697101 
L 423.292112 214.432199 
L 423.49447 214.445101 
L 424.303898 213.89953 
L 424.708613 214.095867 
L 425.518042 214.721684 
L 425.720399 214.643942 
L 426.529828 213.649953 
L 426.934542 213.631675 
L 428.148685 214.194072 
L 428.755757 213.854825 
L 429.160471 213.901757 
L 430.172257 214.361151 
L 430.576972 214.108667 
L 431.184044 213.729751 
L 431.588758 213.788836 
L 432.600544 214.104438 
L 433.61233 213.863471 
L 434.826473 214.14166 
L 436.040617 213.834233 
L 437.25476 214.014579 
L 438.266546 213.894806 
L 439.480689 214.030811 
L 440.492475 213.875515 
L 442.111333 213.940063 
L 442.920762 213.92037 
L 444.134905 213.97795 
L 445.349048 213.925126 
L 446.563191 213.947479 
L 447.777335 213.949182 
L 448.991478 213.938734 
L 450.407978 213.956696 
L 455.871623 213.937194 
L 461.942339 213.945744 
L 492.093563 213.941177 
L 518.4 213.941205 
L 518.4 213.941205 
" clip-path="url(#p706327115f)" style="fill: none; stroke: #2ca02c; stroke-width: 1.5; stroke-linecap: square"/>
   </g>
   <g id="patch_3">
    <path d="M 72 320.4 
L 72 43.2 
" style="fill: none; stroke: #000000; stroke-width: 0.8; stroke-linejoin: miter; stroke-linecap: square"/>
   </g>
   <g id="patch_4">
    <path d="M 518.4 320.4 
L 518.4 43.2 
" style="fill: none; stroke: #000000; stroke-width: 0.8; stroke-linejoin: miter; stroke-linecap: square"/>
   </g>
   <g id="patch_5">
    <path d="M 72 320.4 
L 518.4 320.4 
" style="fill: none; stroke: #000000; stroke-width: 0.8; stroke-linejoin: miter; stroke-linecap: square"/>
   </g>
   <g id="patch_6">
    <path d="M 72 43.2 
L 518.4 43.2 
" style="fill: none; stroke: #000000; stroke-width: 0.8; stroke-linejoin: miter; stroke-linecap: square"/>
   </g>
   <g id="text_13">
    <!-- Classic Transformer - model_20231123171041 -->
    <g transform="translate(155.436563 37.2) scale(0.12 -0.12)">
     <defs>
      <path id="DejaVuSans-43" d="M 4122 4306 
L 4122 3641 
Q 3803 3938 3442 4084 
Q 3081 4231 2675 4231 
Q 1875 4231 1450 3742 
Q 1025 3253 1025 2328 
Q 1025 1406 1450 917 
Q 1875 428 2675 428 
Q 3081 428 3442 575 
Q 3803 722 4122 1019 
L 4122 359 
Q 3791 134 3420 21 
Q 3050 -91 2638 -91 
Q 1578 -91 968 557 
Q 359 1206 359 2328 
Q 359 3453 968 4101 
Q 1578 4750 2638 4750 
Q 3056 4750 3426 4639 
Q 3797 4528 4122 4306 
z
" transform="scale(0.015625)"/>
      <path id="DejaVuSans-6c" d="M 603 4863 
L 1178 4863 
L 1178 0 
L 603 0 
L 603 4863 
z
" transform="scale(0.015625)"/>
      <path id="DejaVuSans-61" d="M 2194 1759 
Q 1497 1759 1228 1600 
Q 959 1441 959 1056 
Q 959 750 1161 570 
Q 1363 391 1709 391 
Q 2188 391 2477 730 
Q 2766 1069 2766 1631 
L 2766 1759 
L 2194 1759 
z
M 3341 1997 
L 3341 0 
L 2766 0 
L 2766 531 
Q 2569 213 2275 61 
Q 1981 -91 1556 -91 
Q 1019 -91 701 211 
Q 384 513 384 1019 
Q 384 1609 779 1909 
Q 1175 2209 1959 2209 
L 2766 2209 
L 2766 2266 
Q 2766 2663 2505 2880 
Q 2244 3097 1772 3097 
Q 1472 3097 1187 3025 
Q 903 2953 641 2809 
L 641 3341 
Q 956 3463 1253 3523 
Q 1550 3584 1831 3584 
Q 2591 3584 2966 3190 
Q 3341 2797 3341 1997 
z
" transform="scale(0.015625)"/>
      <path id="DejaVuSans-73" d="M 2834 3397 
L 2834 2853 
Q 2591 2978 2328 3040 
Q 2066 3103 1784 3103 
Q 1356 3103 1142 2972 
Q 928 2841 928 2578 
Q 928 2378 1081 2264 
Q 1234 2150 1697 2047 
L 1894 2003 
Q 2506 1872 2764 1633 
Q 3022 1394 3022 966 
Q 3022 478 2636 193 
Q 2250 -91 1575 -91 
Q 1294 -91 989 -36 
Q 684 19 347 128 
L 347 722 
Q 666 556 975 473 
Q 1284 391 1588 391 
Q 1994 391 2212 530 
Q 2431 669 2431 922 
Q 2431 1156 2273 1281 
Q 2116 1406 1581 1522 
L 1381 1569 
Q 847 1681 609 1914 
Q 372 2147 372 2553 
Q 372 3047 722 3315 
Q 1072 3584 1716 3584 
Q 2034 3584 2315 3537 
Q 2597 3491 2834 3397 
z
" transform="scale(0.015625)"/>
      <path id="DejaVuSans-69" d="M 603 3500 
L 1178 3500 
L 1178 0 
L 603 0 
L 603 3500 
z
M 603 4863 
L 1178 4863 
L 1178 4134 
L 603 4134 
L 603 4863 
z
" transform="scale(0.015625)"/>
      <path id="DejaVuSans-63" d="M 3122 3366 
L 3122 2828 
Q 2878 2963 2633 3030 
Q 2388 3097 2138 3097 
Q 1578 3097 1268 2742 
Q 959 2388 959 1747 
Q 959 1106 1268 751 
Q 1578 397 2138 397 
Q 2388 397 2633 464 
Q 2878 531 3122 666 
L 3122 134 
Q 2881 22 2623 -34 
Q 2366 -91 2075 -91 
Q 1284 -91 818 406 
Q 353 903 353 1747 
Q 353 2603 823 3093 
Q 1294 3584 2113 3584 
Q 2378 3584 2631 3529 
Q 2884 3475 3122 3366 
z
" transform="scale(0.015625)"/>
      <path id="DejaVuSans-20" transform="scale(0.015625)"/>
      <path id="DejaVuSans-54" d="M -19 4666 
L 3928 4666 
L 3928 4134 
L 2272 4134 
L 2272 0 
L 1638 0 
L 1638 4134 
L -19 4134 
L -19 4666 
z
" transform="scale(0.015625)"/>
      <path id="DejaVuSans-72" d="M 2631 2963 
Q 2534 3019 2420 3045 
Q 2306 3072 2169 3072 
Q 1681 3072 1420 2755 
Q 1159 2438 1159 1844 
L 1159 0 
L 581 0 
L 581 3500 
L 1159 3500 
L 1159 2956 
Q 1341 3275 1631 3429 
Q 1922 3584 2338 3584 
Q 2397 3584 2469 3576 
Q 2541 3569 2628 3553 
L 2631 2963 
z
" transform="scale(0.015625)"/>
      <path id="DejaVuSans-6e" d="M 3513 2113 
L 3513 0 
L 2938 0 
L 2938 2094 
Q 2938 2591 2744 2837 
Q 2550 3084 2163 3084 
Q 1697 3084 1428 2787 
Q 1159 2491 1159 1978 
L 1159 0 
L 581 0 
L 581 3500 
L 1159 3500 
L 1159 2956 
Q 1366 3272 1645 3428 
Q 1925 3584 2291 3584 
Q 2894 3584 3203 3211 
Q 3513 2838 3513 2113 
z
" transform="scale(0.015625)"/>
      <path id="DejaVuSans-66" d="M 2375 4863 
L 2375 4384 
L 1825 4384 
Q 1516 4384 1395 4259 
Q 1275 4134 1275 3809 
L 1275 3500 
L 2222 3500 
L 2222 3053 
L 1275 3053 
L 1275 0 
L 697 0 
L 697 3053 
L 147 3053 
L 147 3500 
L 697 3500 
L 697 3744 
Q 697 4328 969 4595 
Q 1241 4863 1831 4863 
L 2375 4863 
z
" transform="scale(0.015625)"/>
      <path id="DejaVuSans-6f" d="M 1959 3097 
Q 1497 3097 1228 2736 
Q 959 2375 959 1747 
Q 959 1119 1226 758 
Q 1494 397 1959 397 
Q 2419 397 2687 759 
Q 2956 1122 2956 1747 
Q 2956 2369 2687 2733 
Q 2419 3097 1959 3097 
z
M 1959 3584 
Q 2709 3584 3137 3096 
Q 3566 2609 3566 1747 
Q 3566 888 3137 398 
Q 2709 -91 1959 -91 
Q 1206 -91 779 398 
Q 353 888 353 1747 
Q 353 2609 779 3096 
Q 1206 3584 1959 3584 
z
" transform="scale(0.015625)"/>
      <path id="DejaVuSans-6d" d="M 3328 2828 
Q 3544 3216 3844 3400 
Q 4144 3584 4550 3584 
Q 5097 3584 5394 3201 
Q 5691 2819 5691 2113 
L 5691 0 
L 5113 0 
L 5113 2094 
Q 5113 2597 4934 2840 
Q 4756 3084 4391 3084 
Q 3944 3084 3684 2787 
Q 3425 2491 3425 1978 
L 3425 0 
L 2847 0 
L 2847 2094 
Q 2847 2600 2669 2842 
Q 2491 3084 2119 3084 
Q 1678 3084 1418 2786 
Q 1159 2488 1159 1978 
L 1159 0 
L 581 0 
L 581 3500 
L 1159 3500 
L 1159 2956 
Q 1356 3278 1631 3431 
Q 1906 3584 2284 3584 
Q 2666 3584 2933 3390 
Q 3200 3197 3328 2828 
z
" transform="scale(0.015625)"/>
      <path id="DejaVuSans-65" d="M 3597 1894 
L 3597 1613 
L 953 1613 
Q 991 1019 1311 708 
Q 1631 397 2203 397 
Q 2534 397 2845 478 
Q 3156 559 3463 722 
L 3463 178 
Q 3153 47 2828 -22 
Q 2503 -91 2169 -91 
Q 1331 -91 842 396 
Q 353 884 353 1716 
Q 353 2575 817 3079 
Q 1281 3584 2069 3584 
Q 2775 3584 3186 3129 
Q 3597 2675 3597 1894 
z
M 3022 2063 
Q 3016 2534 2758 2815 
Q 2500 3097 2075 3097 
Q 1594 3097 1305 2825 
Q 1016 2553 972 2059 
L 3022 2063 
z
" transform="scale(0.015625)"/>
      <path id="DejaVuSans-64" d="M 2906 2969 
L 2906 4863 
L 3481 4863 
L 3481 0 
L 2906 0 
L 2906 525 
Q 2725 213 2448 61 
Q 2172 -91 1784 -91 
Q 1150 -91 751 415 
Q 353 922 353 1747 
Q 353 2572 751 3078 
Q 1150 3584 1784 3584 
Q 2172 3584 2448 3432 
Q 2725 3281 2906 2969 
z
M 947 1747 
Q 947 1113 1208 752 
Q 1469 391 1925 391 
Q 2381 391 2643 752 
Q 2906 1113 2906 1747 
Q 2906 2381 2643 2742 
Q 2381 3103 1925 3103 
Q 1469 3103 1208 2742 
Q 947 2381 947 1747 
z
" transform="scale(0.015625)"/>
      <path id="DejaVuSans-5f" d="M 3263 -1063 
L 3263 -1509 
L -63 -1509 
L -63 -1063 
L 3263 -1063 
z
" transform="scale(0.015625)"/>
      <path id="DejaVuSans-34" d="M 2419 4116 
L 825 1625 
L 2419 1625 
L 2419 4116 
z
M 2253 4666 
L 3047 4666 
L 3047 1625 
L 3713 1625 
L 3713 1100 
L 3047 1100 
L 3047 0 
L 2419 0 
L 2419 1100 
L 313 1100 
L 313 1709 
L 2253 4666 
z
" transform="scale(0.015625)"/>
     </defs>
     <use xlink:href="#DejaVuSans-43"/>
     <use xlink:href="#DejaVuSans-6c" x="69.824219"/>
     <use xlink:href="#DejaVuSans-61" x="97.607422"/>
     <use xlink:href="#DejaVuSans-73" x="158.886719"/>
     <use xlink:href="#DejaVuSans-73" x="210.986328"/>
     <use xlink:href="#DejaVuSans-69" x="263.085938"/>
     <use xlink:href="#DejaVuSans-63" x="290.869141"/>
     <use xlink:href="#DejaVuSans-20" x="345.849609"/>
     <use xlink:href="#DejaVuSans-54" x="377.636719"/>
     <use xlink:href="#DejaVuSans-72" x="423.970703"/>
     <use xlink:href="#DejaVuSans-61" x="465.083984"/>
     <use xlink:href="#DejaVuSans-6e" x="526.363281"/>
     <use xlink:href="#DejaVuSans-73" x="589.742188"/>
     <use xlink:href="#DejaVuSans-66" x="641.841797"/>
     <use xlink:href="#DejaVuSans-6f" x="677.046875"/>
     <use xlink:href="#DejaVuSans-72" x="738.228516"/>
     <use xlink:href="#DejaVuSans-6d" x="777.591797"/>
     <use xlink:href="#DejaVuSans-65" x="875.003906"/>
     <use xlink:href="#DejaVuSans-72" x="936.527344"/>
     <use xlink:href="#DejaVuSans-20" x="977.640625"/>
     <use xlink:href="#DejaVuSans-2d" x="1009.427734"/>
     <use xlink:href="#DejaVuSans-20" x="1045.511719"/>
     <use xlink:href="#DejaVuSans-6d" x="1077.298828"/>
     <use xlink:href="#DejaVuSans-6f" x="1174.710938"/>
     <use xlink:href="#DejaVuSans-64" x="1235.892578"/>
     <use xlink:href="#DejaVuSans-65" x="1299.369141"/>
     <use xlink:href="#DejaVuSans-6c" x="1360.892578"/>
     <use xlink:href="#DejaVuSans-5f" x="1388.675781"/>
     <use xlink:href="#DejaVuSans-32" x="1438.675781"/>
     <use xlink:href="#DejaVuSans-30" x="1502.298828"/>
     <use xlink:href="#DejaVuSans-32" x="1565.921875"/>
     <use xlink:href="#DejaVuSans-33" x="1629.544922"/>
     <use xlink:href="#DejaVuSans-31" x="1693.167969"/>
     <use xlink:href="#DejaVuSans-31" x="1756.791016"/>
     <use xlink:href="#DejaVuSans-32" x="1820.414062"/>
     <use xlink:href="#DejaVuSans-33" x="1884.037109"/>
     <use xlink:href="#DejaVuSans-31" x="1947.660156"/>
     <use xlink:href="#DejaVuSans-37" x="2011.283203"/>
     <use xlink:href="#DejaVuSans-31" x="2074.90625"/>
     <use xlink:href="#DejaVuSans-30" x="2138.529297"/>
     <use xlink:href="#DejaVuSans-34" x="2202.152344"/>
     <use xlink:href="#DejaVuSans-31" x="2265.775391"/>
    </g>
   </g>
   <g id="legend_1">
    <g id="patch_7">
     <path d="M 79 95.234375 
L 161.517188 95.234375 
Q 163.517188 95.234375 163.517188 93.234375 
L 163.517188 50.2 
Q 163.517188 48.2 161.517188 48.2 
L 79 48.2 
Q 77 48.2 77 50.2 
L 77 93.234375 
Q 77 95.234375 79 95.234375 
z
" style="fill: #ffffff; opacity: 0.8; stroke: #cccccc; stroke-linejoin: miter"/>
    </g>
    <g id="line2d_16">
     <path d="M 81 56.298437 
L 91 56.298437 
L 101 56.298437 
" style="fill: none; stroke: #1f77b4; stroke-width: 1.5; stroke-linecap: square"/>
    </g>
    <g id="text_14">
     <!-- Measured -->
     <g transform="translate(109 59.798437) scale(0.1 -0.1)">
      <defs>
       <path id="DejaVuSans-4d" d="M 628 4666 
L 1569 4666 
L 2759 1491 
L 3956 4666 
L 4897 4666 
L 4897 0 
L 4281 0 
L 4281 4097 
L 3078 897 
L 2444 897 
L 1241 4097 
L 1241 0 
L 628 0 
L 628 4666 
z
" transform="scale(0.015625)"/>
       <path id="DejaVuSans-75" d="M 544 1381 
L 544 3500 
L 1119 3500 
L 1119 1403 
Q 1119 906 1312 657 
Q 1506 409 1894 409 
Q 2359 409 2629 706 
Q 2900 1003 2900 1516 
L 2900 3500 
L 3475 3500 
L 3475 0 
L 2900 0 
L 2900 538 
Q 2691 219 2414 64 
Q 2138 -91 1772 -91 
Q 1169 -91 856 284 
Q 544 659 544 1381 
z
M 1991 3584 
L 1991 3584 
z
" transform="scale(0.015625)"/>
      </defs>
      <use xlink:href="#DejaVuSans-4d"/>
      <use xlink:href="#DejaVuSans-65" x="86.279297"/>
      <use xlink:href="#DejaVuSans-61" x="147.802734"/>
      <use xlink:href="#DejaVuSans-73" x="209.082031"/>
      <use xlink:href="#DejaVuSans-75" x="261.181641"/>
      <use xlink:href="#DejaVuSans-72" x="324.560547"/>
      <use xlink:href="#DejaVuSans-65" x="363.423828"/>
      <use xlink:href="#DejaVuSans-64" x="424.947266"/>
     </g>
    </g>
    <g id="line2d_17">
     <path d="M 81 70.976562 
L 91 70.976562 
L 101 70.976562 
" style="fill: none; stroke: #ff7f0e; stroke-width: 1.5; stroke-linecap: square"/>
    </g>
    <g id="text_15">
     <!-- Fitted -->
     <g transform="translate(109 74.476562) scale(0.1 -0.1)">
      <defs>
       <path id="DejaVuSans-46" d="M 628 4666 
L 3309 4666 
L 3309 4134 
L 1259 4134 
L 1259 2759 
L 3109 2759 
L 3109 2228 
L 1259 2228 
L 1259 0 
L 628 0 
L 628 4666 
z
" transform="scale(0.015625)"/>
       <path id="DejaVuSans-74" d="M 1172 4494 
L 1172 3500 
L 2356 3500 
L 2356 3053 
L 1172 3053 
L 1172 1153 
Q 1172 725 1289 603 
Q 1406 481 1766 481 
L 2356 481 
L 2356 0 
L 1766 0 
Q 1100 0 847 248 
Q 594 497 594 1153 
L 594 3053 
L 172 3053 
L 172 3500 
L 594 3500 
L 594 4494 
L 1172 4494 
z
" transform="scale(0.015625)"/>
      </defs>
      <use xlink:href="#DejaVuSans-46"/>
      <use xlink:href="#DejaVuSans-69" x="50.269531"/>
      <use xlink:href="#DejaVuSans-74" x="78.052734"/>
      <use xlink:href="#DejaVuSans-74" x="117.261719"/>
      <use xlink:href="#DejaVuSans-65" x="156.470703"/>
      <use xlink:href="#DejaVuSans-64" x="217.994141"/>
     </g>
    </g>
    <g id="line2d_18">
     <path d="M 81 85.654687 
L 91 85.654687 
L 101 85.654687 
" style="fill: none; stroke: #2ca02c; stroke-width: 1.5; stroke-linecap: square"/>
    </g>
    <g id="text_16">
     <!-- Estimated -->
     <g transform="translate(109 89.154687) scale(0.1 -0.1)">
      <defs>
       <path id="DejaVuSans-45" d="M 628 4666 
L 3578 4666 
L 3578 4134 
L 1259 4134 
L 1259 2753 
L 3481 2753 
L 3481 2222 
L 1259 2222 
L 1259 531 
L 3634 531 
L 3634 0 
L 628 0 
L 628 4666 
z
" transform="scale(0.015625)"/>
      </defs>
      <use xlink:href="#DejaVuSans-45"/>
      <use xlink:href="#DejaVuSans-73" x="63.183594"/>
      <use xlink:href="#DejaVuSans-74" x="115.283203"/>
      <use xlink:href="#DejaVuSans-69" x="154.492188"/>
      <use xlink:href="#DejaVuSans-6d" x="182.275391"/>
      <use xlink:href="#DejaVuSans-61" x="279.6875"/>
      <use xlink:href="#DejaVuSans-74" x="340.966797"/>
      <use xlink:href="#DejaVuSans-65" x="380.175781"/>
      <use xlink:href="#DejaVuSans-64" x="441.699219"/>
     </g>
    </g>
   </g>
  </g>
 </g>
 <defs>
  <clipPath id="p706327115f">
   <rect x="72" y="43.2" width="446.4" height="277.2"/>
  </clipPath>
 </defs>
</svg>
