<?xml version="1.0" encoding="utf-8" standalone="no"?>
<!DOCTYPE svg PUBLIC "-//W3C//DTD SVG 1.1//EN"
  "http://www.w3.org/Graphics/SVG/1.1/DTD/svg11.dtd">
<svg xmlns:xlink="http://www.w3.org/1999/xlink" width="576pt" height="360pt" viewBox="0 0 576 360" xmlns="http://www.w3.org/2000/svg" version="1.1">
 <metadata>
  <rdf:RDF xmlns:dc="http://purl.org/dc/elements/1.1/" xmlns:cc="http://creativecommons.org/ns#" xmlns:rdf="http://www.w3.org/1999/02/22-rdf-syntax-ns#">
   <cc:Work>
    <dc:type rdf:resource="http://purl.org/dc/dcmitype/StillImage"/>
    <dc:date>2023-11-23T17:04:01.218605</dc:date>
    <dc:format>image/svg+xml</dc:format>
    <dc:creator>
     <cc:Agent>
      <dc:title>Matplotlib v3.8.1, https://matplotlib.org/</dc:title>
     </cc:Agent>
    </dc:creator>
   </cc:Work>
  </rdf:RDF>
 </metadata>
 <defs>
  <style type="text/css">*{stroke-linejoin: round; stroke-linecap: butt}</style>
 </defs>
 <g id="figure_1">
  <g id="patch_1">
   <path d="M 0 360 
L 576 360 
L 576 0 
L 0 0 
z
" style="fill: #ffffff"/>
  </g>
  <g id="axes_1">
   <g id="patch_2">
    <path d="M 72 320.4 
L 518.4 320.4 
L 518.4 43.2 
L 72 43.2 
z
" style="fill: #ffffff"/>
   </g>
   <g id="matplotlib.axis_1">
    <g id="xtick_1">
     <g id="line2d_1">
      <defs>
       <path id="m9da4e1f06c" d="M 0 0 
L 0 3.5 
" style="stroke: #000000; stroke-width: 0.8"/>
      </defs>
      <g>
       <use xlink:href="#m9da4e1f06c" x="129.874161" y="320.4" style="stroke: #000000; stroke-width: 0.8"/>
      </g>
     </g>
     <g id="text_1">
      <!-- 2020-05-15 -->
      <g transform="translate(100.816349 334.998438) scale(0.1 -0.1)">
       <defs>
        <path id="DejaVuSans-32" d="M 1228 531 
L 3431 531 
L 3431 0 
L 469 0 
L 469 531 
Q 828 903 1448 1529 
Q 2069 2156 2228 2338 
Q 2531 2678 2651 2914 
Q 2772 3150 2772 3378 
Q 2772 3750 2511 3984 
Q 2250 4219 1831 4219 
Q 1534 4219 1204 4116 
Q 875 4013 500 3803 
L 500 4441 
Q 881 4594 1212 4672 
Q 1544 4750 1819 4750 
Q 2544 4750 2975 4387 
Q 3406 4025 3406 3419 
Q 3406 3131 3298 2873 
Q 3191 2616 2906 2266 
Q 2828 2175 2409 1742 
Q 1991 1309 1228 531 
z
" transform="scale(0.015625)"/>
        <path id="DejaVuSans-30" d="M 2034 4250 
Q 1547 4250 1301 3770 
Q 1056 3291 1056 2328 
Q 1056 1369 1301 889 
Q 1547 409 2034 409 
Q 2525 409 2770 889 
Q 3016 1369 3016 2328 
Q 3016 3291 2770 3770 
Q 2525 4250 2034 4250 
z
M 2034 4750 
Q 2819 4750 3233 4129 
Q 3647 3509 3647 2328 
Q 3647 1150 3233 529 
Q 2819 -91 2034 -91 
Q 1250 -91 836 529 
Q 422 1150 422 2328 
Q 422 3509 836 4129 
Q 1250 4750 2034 4750 
z
" transform="scale(0.015625)"/>
        <path id="DejaVuSans-2d" d="M 313 2009 
L 1997 2009 
L 1997 1497 
L 313 1497 
L 313 2009 
z
" transform="scale(0.015625)"/>
        <path id="DejaVuSans-35" d="M 691 4666 
L 3169 4666 
L 3169 4134 
L 1269 4134 
L 1269 2991 
Q 1406 3038 1543 3061 
Q 1681 3084 1819 3084 
Q 2600 3084 3056 2656 
Q 3513 2228 3513 1497 
Q 3513 744 3044 326 
Q 2575 -91 1722 -91 
Q 1428 -91 1123 -41 
Q 819 9 494 109 
L 494 744 
Q 775 591 1075 516 
Q 1375 441 1709 441 
Q 2250 441 2565 725 
Q 2881 1009 2881 1497 
Q 2881 1984 2565 2268 
Q 2250 2553 1709 2553 
Q 1456 2553 1204 2497 
Q 953 2441 691 2322 
L 691 4666 
z
" transform="scale(0.015625)"/>
        <path id="DejaVuSans-31" d="M 794 531 
L 1825 531 
L 1825 4091 
L 703 3866 
L 703 4441 
L 1819 4666 
L 2450 4666 
L 2450 531 
L 3481 531 
L 3481 0 
L 794 0 
L 794 531 
z
" transform="scale(0.015625)"/>
       </defs>
       <use xlink:href="#DejaVuSans-32"/>
       <use xlink:href="#DejaVuSans-30" x="63.623047"/>
       <use xlink:href="#DejaVuSans-32" x="127.246094"/>
       <use xlink:href="#DejaVuSans-30" x="190.869141"/>
       <use xlink:href="#DejaVuSans-2d" x="254.492188"/>
       <use xlink:href="#DejaVuSans-30" x="290.576172"/>
       <use xlink:href="#DejaVuSans-35" x="354.199219"/>
       <use xlink:href="#DejaVuSans-2d" x="417.822266"/>
       <use xlink:href="#DejaVuSans-31" x="453.90625"/>
       <use xlink:href="#DejaVuSans-35" x="517.529297"/>
      </g>
     </g>
    </g>
    <g id="xtick_2">
     <g id="line2d_2">
      <g>
       <use xlink:href="#m9da4e1f06c" x="212.435902" y="320.4" style="stroke: #000000; stroke-width: 0.8"/>
      </g>
     </g>
     <g id="text_2">
      <!-- 2020-06-01 -->
      <g transform="translate(183.37809 334.998438) scale(0.1 -0.1)">
       <defs>
        <path id="DejaVuSans-36" d="M 2113 2584 
Q 1688 2584 1439 2293 
Q 1191 2003 1191 1497 
Q 1191 994 1439 701 
Q 1688 409 2113 409 
Q 2538 409 2786 701 
Q 3034 994 3034 1497 
Q 3034 2003 2786 2293 
Q 2538 2584 2113 2584 
z
M 3366 4563 
L 3366 3988 
Q 3128 4100 2886 4159 
Q 2644 4219 2406 4219 
Q 1781 4219 1451 3797 
Q 1122 3375 1075 2522 
Q 1259 2794 1537 2939 
Q 1816 3084 2150 3084 
Q 2853 3084 3261 2657 
Q 3669 2231 3669 1497 
Q 3669 778 3244 343 
Q 2819 -91 2113 -91 
Q 1303 -91 875 529 
Q 447 1150 447 2328 
Q 447 3434 972 4092 
Q 1497 4750 2381 4750 
Q 2619 4750 2861 4703 
Q 3103 4656 3366 4563 
z
" transform="scale(0.015625)"/>
       </defs>
       <use xlink:href="#DejaVuSans-32"/>
       <use xlink:href="#DejaVuSans-30" x="63.623047"/>
       <use xlink:href="#DejaVuSans-32" x="127.246094"/>
       <use xlink:href="#DejaVuSans-30" x="190.869141"/>
       <use xlink:href="#DejaVuSans-2d" x="254.492188"/>
       <use xlink:href="#DejaVuSans-30" x="290.576172"/>
       <use xlink:href="#DejaVuSans-36" x="354.199219"/>
       <use xlink:href="#DejaVuSans-2d" x="417.822266"/>
       <use xlink:href="#DejaVuSans-30" x="453.90625"/>
       <use xlink:href="#DejaVuSans-31" x="517.529297"/>
      </g>
     </g>
    </g>
    <g id="xtick_3">
     <g id="line2d_3">
      <g>
       <use xlink:href="#m9da4e1f06c" x="280.427924" y="320.4" style="stroke: #000000; stroke-width: 0.8"/>
      </g>
     </g>
     <g id="text_3">
      <!-- 2020-06-15 -->
      <g transform="translate(251.370111 334.998438) scale(0.1 -0.1)">
       <use xlink:href="#DejaVuSans-32"/>
       <use xlink:href="#DejaVuSans-30" x="63.623047"/>
       <use xlink:href="#DejaVuSans-32" x="127.246094"/>
       <use xlink:href="#DejaVuSans-30" x="190.869141"/>
       <use xlink:href="#DejaVuSans-2d" x="254.492188"/>
       <use xlink:href="#DejaVuSans-30" x="290.576172"/>
       <use xlink:href="#DejaVuSans-36" x="354.199219"/>
       <use xlink:href="#DejaVuSans-2d" x="417.822266"/>
       <use xlink:href="#DejaVuSans-31" x="453.90625"/>
       <use xlink:href="#DejaVuSans-35" x="517.529297"/>
      </g>
     </g>
    </g>
    <g id="xtick_4">
     <g id="line2d_4">
      <g>
       <use xlink:href="#m9da4e1f06c" x="358.133092" y="320.4" style="stroke: #000000; stroke-width: 0.8"/>
      </g>
     </g>
     <g id="text_4">
      <!-- 2020-07-01 -->
      <g transform="translate(329.075279 334.998438) scale(0.1 -0.1)">
       <defs>
        <path id="DejaVuSans-37" d="M 525 4666 
L 3525 4666 
L 3525 4397 
L 1831 0 
L 1172 0 
L 2766 4134 
L 525 4134 
L 525 4666 
z
" transform="scale(0.015625)"/>
       </defs>
       <use xlink:href="#DejaVuSans-32"/>
       <use xlink:href="#DejaVuSans-30" x="63.623047"/>
       <use xlink:href="#DejaVuSans-32" x="127.246094"/>
       <use xlink:href="#DejaVuSans-30" x="190.869141"/>
       <use xlink:href="#DejaVuSans-2d" x="254.492188"/>
       <use xlink:href="#DejaVuSans-30" x="290.576172"/>
       <use xlink:href="#DejaVuSans-37" x="354.199219"/>
       <use xlink:href="#DejaVuSans-2d" x="417.822266"/>
       <use xlink:href="#DejaVuSans-30" x="453.90625"/>
       <use xlink:href="#DejaVuSans-31" x="517.529297"/>
      </g>
     </g>
    </g>
    <g id="xtick_5">
     <g id="line2d_5">
      <g>
       <use xlink:href="#m9da4e1f06c" x="426.125113" y="320.4" style="stroke: #000000; stroke-width: 0.8"/>
      </g>
     </g>
     <g id="text_5">
      <!-- 2020-07-15 -->
      <g transform="translate(397.067301 334.998438) scale(0.1 -0.1)">
       <use xlink:href="#DejaVuSans-32"/>
       <use xlink:href="#DejaVuSans-30" x="63.623047"/>
       <use xlink:href="#DejaVuSans-32" x="127.246094"/>
       <use xlink:href="#DejaVuSans-30" x="190.869141"/>
       <use xlink:href="#DejaVuSans-2d" x="254.492188"/>
       <use xlink:href="#DejaVuSans-30" x="290.576172"/>
       <use xlink:href="#DejaVuSans-37" x="354.199219"/>
       <use xlink:href="#DejaVuSans-2d" x="417.822266"/>
       <use xlink:href="#DejaVuSans-31" x="453.90625"/>
       <use xlink:href="#DejaVuSans-35" x="517.529297"/>
      </g>
     </g>
    </g>
    <g id="xtick_6">
     <g id="line2d_6">
      <g>
       <use xlink:href="#m9da4e1f06c" x="508.686854" y="320.4" style="stroke: #000000; stroke-width: 0.8"/>
      </g>
     </g>
     <g id="text_6">
      <!-- 2020-08-01 -->
      <g transform="translate(479.629042 334.998438) scale(0.1 -0.1)">
       <defs>
        <path id="DejaVuSans-38" d="M 2034 2216 
Q 1584 2216 1326 1975 
Q 1069 1734 1069 1313 
Q 1069 891 1326 650 
Q 1584 409 2034 409 
Q 2484 409 2743 651 
Q 3003 894 3003 1313 
Q 3003 1734 2745 1975 
Q 2488 2216 2034 2216 
z
M 1403 2484 
Q 997 2584 770 2862 
Q 544 3141 544 3541 
Q 544 4100 942 4425 
Q 1341 4750 2034 4750 
Q 2731 4750 3128 4425 
Q 3525 4100 3525 3541 
Q 3525 3141 3298 2862 
Q 3072 2584 2669 2484 
Q 3125 2378 3379 2068 
Q 3634 1759 3634 1313 
Q 3634 634 3220 271 
Q 2806 -91 2034 -91 
Q 1263 -91 848 271 
Q 434 634 434 1313 
Q 434 1759 690 2068 
Q 947 2378 1403 2484 
z
M 1172 3481 
Q 1172 3119 1398 2916 
Q 1625 2713 2034 2713 
Q 2441 2713 2670 2916 
Q 2900 3119 2900 3481 
Q 2900 3844 2670 4047 
Q 2441 4250 2034 4250 
Q 1625 4250 1398 4047 
Q 1172 3844 1172 3481 
z
" transform="scale(0.015625)"/>
       </defs>
       <use xlink:href="#DejaVuSans-32"/>
       <use xlink:href="#DejaVuSans-30" x="63.623047"/>
       <use xlink:href="#DejaVuSans-32" x="127.246094"/>
       <use xlink:href="#DejaVuSans-30" x="190.869141"/>
       <use xlink:href="#DejaVuSans-2d" x="254.492188"/>
       <use xlink:href="#DejaVuSans-30" x="290.576172"/>
       <use xlink:href="#DejaVuSans-38" x="354.199219"/>
       <use xlink:href="#DejaVuSans-2d" x="417.822266"/>
       <use xlink:href="#DejaVuSans-30" x="453.90625"/>
       <use xlink:href="#DejaVuSans-31" x="517.529297"/>
      </g>
     </g>
    </g>
   </g>
   <g id="matplotlib.axis_2">
    <g id="ytick_1">
     <g id="line2d_7">
      <defs>
       <path id="m617c417a61" d="M 0 0 
L -3.5 0 
" style="stroke: #000000; stroke-width: 0.8"/>
      </defs>
      <g>
       <use xlink:href="#m617c417a61" x="72" y="315.877071" style="stroke: #000000; stroke-width: 0.8"/>
      </g>
     </g>
     <g id="text_7">
      <!-- −2 -->
      <g transform="translate(50.257812 319.67629) scale(0.1 -0.1)">
       <defs>
        <path id="DejaVuSans-2212" d="M 678 2272 
L 4684 2272 
L 4684 1741 
L 678 1741 
L 678 2272 
z
" transform="scale(0.015625)"/>
       </defs>
       <use xlink:href="#DejaVuSans-2212"/>
       <use xlink:href="#DejaVuSans-32" x="83.789062"/>
      </g>
     </g>
    </g>
    <g id="ytick_2">
     <g id="line2d_8">
      <g>
       <use xlink:href="#m617c417a61" x="72" y="262.873115" style="stroke: #000000; stroke-width: 0.8"/>
      </g>
     </g>
     <g id="text_8">
      <!-- −1 -->
      <g transform="translate(50.257812 266.672334) scale(0.1 -0.1)">
       <use xlink:href="#DejaVuSans-2212"/>
       <use xlink:href="#DejaVuSans-31" x="83.789062"/>
      </g>
     </g>
    </g>
    <g id="ytick_3">
     <g id="line2d_9">
      <g>
       <use xlink:href="#m617c417a61" x="72" y="209.869159" style="stroke: #000000; stroke-width: 0.8"/>
      </g>
     </g>
     <g id="text_9">
      <!-- 0 -->
      <g transform="translate(58.6375 213.668378) scale(0.1 -0.1)">
       <use xlink:href="#DejaVuSans-30"/>
      </g>
     </g>
    </g>
    <g id="ytick_4">
     <g id="line2d_10">
      <g>
       <use xlink:href="#m617c417a61" x="72" y="156.865203" style="stroke: #000000; stroke-width: 0.8"/>
      </g>
     </g>
     <g id="text_10">
      <!-- 1 -->
      <g transform="translate(58.6375 160.664422) scale(0.1 -0.1)">
       <use xlink:href="#DejaVuSans-31"/>
      </g>
     </g>
    </g>
    <g id="ytick_5">
     <g id="line2d_11">
      <g>
       <use xlink:href="#m617c417a61" x="72" y="103.861247" style="stroke: #000000; stroke-width: 0.8"/>
      </g>
     </g>
     <g id="text_11">
      <!-- 2 -->
      <g transform="translate(58.6375 107.660465) scale(0.1 -0.1)">
       <use xlink:href="#DejaVuSans-32"/>
      </g>
     </g>
    </g>
    <g id="ytick_6">
     <g id="line2d_12">
      <g>
       <use xlink:href="#m617c417a61" x="72" y="50.857291" style="stroke: #000000; stroke-width: 0.8"/>
      </g>
     </g>
     <g id="text_12">
      <!-- 3 -->
      <g transform="translate(58.6375 54.656509) scale(0.1 -0.1)">
       <defs>
        <path id="DejaVuSans-33" d="M 2597 2516 
Q 3050 2419 3304 2112 
Q 3559 1806 3559 1356 
Q 3559 666 3084 287 
Q 2609 -91 1734 -91 
Q 1441 -91 1130 -33 
Q 819 25 488 141 
L 488 750 
Q 750 597 1062 519 
Q 1375 441 1716 441 
Q 2309 441 2620 675 
Q 2931 909 2931 1356 
Q 2931 1769 2642 2001 
Q 2353 2234 1838 2234 
L 1294 2234 
L 1294 2753 
L 1863 2753 
Q 2328 2753 2575 2939 
Q 2822 3125 2822 3475 
Q 2822 3834 2567 4026 
Q 2313 4219 1838 4219 
Q 1578 4219 1281 4162 
Q 984 4106 628 3988 
L 628 4550 
Q 988 4650 1302 4700 
Q 1616 4750 1894 4750 
Q 2613 4750 3031 4423 
Q 3450 4097 3450 3541 
Q 3450 3153 3228 2886 
Q 3006 2619 2597 2516 
z
" transform="scale(0.015625)"/>
       </defs>
       <use xlink:href="#DejaVuSans-33"/>
      </g>
     </g>
    </g>
   </g>
   <g id="line2d_13">
    <path d="M 72 287.27914 
L 72.404714 298.511842 
L 72.607072 296.806135 
L 72.809429 286.239075 
L 73.214143 255.61956 
L 73.618858 243.30519 
L 75.035358 161.140053 
L 75.237715 158.207069 
L 75.440073 163.220183 
L 75.64243 171.353491 
L 75.844787 174.619295 
L 76.047144 189.72104 
L 76.654216 259.322192 
L 77.05893 283.160482 
L 77.261287 287.487153 
L 77.463645 287.112729 
L 77.666002 276.504066 
L 78.070716 248.276701 
L 78.475431 235.920728 
L 78.677788 226.872163 
L 79.487217 170.417433 
L 79.891931 154.296425 
L 80.094288 156.230946 
L 80.903717 198.249573 
L 81.713146 272.88464 
L 82.11786 287.403948 
L 82.320218 289.421674 
L 82.522575 289.130455 
L 82.724932 286.634299 
L 82.927289 279.873877 
L 83.332004 257.096452 
L 83.736718 242.909965 
L 83.939075 239.893777 
L 84.141432 240.164194 
L 84.546147 246.50859 
L 84.748504 248.588721 
L 84.950861 248.609522 
L 85.355576 252.769782 
L 85.557933 249.462375 
L 85.76029 255.536355 
L 86.569719 300.092741 
L 86.772076 306.125118 
L 86.974433 307.706017 
L 87.176791 307.768421 
L 87.379148 306.437138 
L 87.581505 302.734506 
L 87.783862 296.036487 
L 88.188577 274.17432 
L 88.390934 269.036399 
L 89.200363 261.027898 
L 89.40272 256.930042 
L 89.807434 242.265125 
L 90.212149 239.831373 
L 90.414506 237.148005 
L 90.616863 245.031698 
L 91.223935 295.183634 
L 91.628649 306.125118 
L 91.831006 306.187522 
L 92.033364 303.712167 
L 92.842792 257.949306 
L 93.04515 255.827573 
L 93.449864 247.29904 
L 93.652221 246.779007 
L 93.854578 243.866825 
L 94.056936 243.242786 
L 94.259293 240.642624 
L 94.46165 234.298227 
L 94.664007 231.46925 
L 94.866364 232.384507 
L 95.068722 235.504702 
L 95.271079 231.698064 
L 95.473436 241.724291 
L 96.080508 295.558057 
L 96.485222 304.689828 
L 96.687579 306.582747 
L 96.889937 302.276877 
L 97.699365 257.22126 
L 98.306437 246.799809 
L 98.508794 246.425385 
L 99.52058 225.374469 
L 99.722937 226.622547 
L 99.925295 230.949218 
L 100.127652 229.139504 
L 100.330009 239.207334 
L 100.937081 293.103504 
L 101.341795 305.272265 
L 101.544152 306.249926 
L 101.74651 302.568096 
L 101.948867 290.711354 
L 102.353581 260.923892 
L 102.555938 259.384596 
L 103.567724 241.745093 
L 104.377153 219.820522 
L 104.57951 221.089401 
L 104.781868 226.435335 
L 104.984225 226.414534 
L 105.186582 235.234286 
L 105.793654 289.983309 
L 106.198368 302.6305 
L 106.400725 304.377809 
L 106.603083 300.383959 
L 107.412511 254.829111 
L 107.614869 253.123404 
L 107.817226 249.483176 
L 108.22194 235.067875 
L 108.626655 213.538529 
L 108.829012 207.651761 
L 109.031369 205.779644 
L 109.638441 214.391382 
L 109.840798 219.778919 
L 110.043155 230.096364 
L 110.650227 284.699778 
L 111.054941 298.844663 
L 111.257298 300.737581 
L 111.459655 299.011073 
L 111.662013 287.695166 
L 112.066727 258.677351 
L 112.471442 243.804421 
L 113.887942 175.950579 
L 114.090299 173.600032 
L 114.292656 180.360454 
L 114.495014 191.697163 
L 114.697371 196.252648 
L 115.102085 229.992358 
L 115.709157 278.958619 
L 116.113871 292.791484 
L 116.316228 292.957895 
L 116.518586 291.314592 
L 116.720943 287.715967 
L 117.125657 260.695077 
L 118.542158 156.875786 
L 118.744515 146.849559 
L 118.946872 143.001319 
L 119.149229 146.641546 
L 119.756301 184.208695 
L 120.56573 262.920817 
L 120.970444 282.578046 
L 121.172801 286.634299 
L 121.375159 288.256801 
L 121.577516 286.821511 
L 121.779873 278.958619 
L 122.589302 228.369856 
L 123.196374 203.117077 
L 123.398731 198.582394 
L 123.601088 198.790407 
L 123.803445 198.228772 
L 124.410517 211.520803 
L 124.612874 222.399883 
L 125.219946 278.230574 
L 125.62466 292.645875 
L 125.827017 294.621999 
L 126.029374 292.105041 
L 127.04116 236.170344 
L 127.648232 199.060824 
L 128.255304 157.021395 
L 128.457661 149.532927 
L 128.660018 149.200106 
L 129.26709 193.174056 
L 130.278876 283.28529 
L 130.481233 291.044175 
L 130.68359 292.417061 
L 130.885947 289.858501 
L 132.504805 181.816545 
L 133.111877 139.485899 
L 133.314234 130.146115 
L 133.516591 131.83102 
L 133.921306 147.078373 
L 134.123663 154.442034 
L 135.135449 263.440849 
L 135.540163 275.963232 
L 135.74252 275.027174 
L 135.944878 264.522517 
L 136.349592 233.362168 
L 136.551949 226.643348 
L 136.754306 214.869812 
L 136.956664 219.404496 
L 137.159021 208.192595 
L 137.766092 199.435247 
L 137.96845 199.830472 
L 138.373164 194.463736 
L 138.777879 201.952205 
L 138.980236 202.784257 
L 139.182593 214.495389 
L 139.789665 270.679702 
L 140.194379 285.927055 
L 140.396736 287.986384 
L 140.599093 284.990997 
L 141.003808 255.016322 
L 141.408522 234.007009 
L 142.015594 220.714978 
L 142.622665 211.645611 
L 142.825023 211.375194 
L 143.02738 210.168718 
L 143.229737 210.855161 
L 143.634451 216.097089 
L 143.836809 214.869812 
L 144.039166 224.979244 
L 144.646238 273.945506 
L 145.050952 285.947856 
L 145.253309 287.237537 
L 145.455666 284.117342 
L 145.860381 254.683502 
L 146.062738 238.354481 
L 146.66981 222.004658 
L 146.872167 219.342092 
L 147.074524 218.260424 
L 147.479238 207.235735 
L 147.681596 215.63946 
L 147.883953 216.617121 
L 148.08631 219.217284 
L 148.491024 228.473863 
L 148.693382 227.121778 
L 149.098096 250.606447 
L 149.502811 278.584196 
L 149.907525 291.626612 
L 150.109882 293.68594 
L 150.312239 293.103504 
L 150.514597 290.274527 
L 150.716954 284.554169 
L 151.121668 263.628061 
L 151.526383 243.076376 
L 151.931097 237.252012 
L 152.133454 236.815184 
L 152.335811 238.791308 
L 152.538169 239.31134 
L 152.740526 237.252012 
L 152.942883 237.54323 
L 153.14524 236.565569 
L 153.347597 236.607171 
L 153.549955 233.674188 
L 153.752312 235.879126 
L 154.764098 287.507954 
L 154.966455 291.481002 
L 155.168812 292.87469 
L 155.573527 288.922442 
L 155.775884 277.814548 
L 156.78767 199.622459 
L 157.799456 156.854985 
L 158.001813 158.872711 
L 158.406528 172.123139 
L 158.608885 185.72719 
L 159.215956 254.600296 
L 159.620671 276.275252 
L 159.823028 279.499453 
L 160.025385 278.584196 
L 160.227743 268.745181 
L 160.632457 236.170344 
L 161.8466 185.685587 
L 162.251315 175.596957 
L 162.453672 175.742566 
L 162.656029 178.613145 
L 163.465458 210.543142 
L 164.072529 270.617298 
L 164.477244 289.296866 
L 164.679601 289.629687 
L 164.881958 286.384684 
L 165.084316 276.192046 
L 165.48903 244.303653 
L 166.500816 209.087051 
L 167.310245 166.007557 
L 167.512602 169.377368 
L 167.917316 190.033059 
L 168.119674 194.505339 
L 168.322031 205.904452 
L 168.929102 265.541781 
L 169.333817 280.789134 
L 169.536174 284.325355 
L 169.738531 280.643525 
L 170.143246 253.248212 
L 170.54796 222.815909 
L 171.357389 178.072311 
L 171.559746 172.019133 
L 172.166818 147.723214 
L 172.369175 149.345715 
L 172.571532 157.291812 
L 173.178604 196.419059 
L 173.785675 267.788321 
L 174.19039 287.258338 
L 174.392747 290.253726 
L 174.595104 288.423211 
L 174.999819 264.127292 
L 175.404533 239.020122 
L 177.023391 160.45361 
L 177.225748 160.973642 
L 177.428105 164.905088 
L 177.630462 181.56693 
L 177.83282 184.021483 
L 178.237534 228.328254 
L 178.642248 271.428549 
L 179.046963 290.711354 
L 179.24932 294.455588 
L 179.451677 291.91783 
L 179.654034 283.181283 
L 180.261106 243.13878 
L 181.879964 145.705488 
L 182.082321 142.418882 
L 182.284678 148.118438 
L 183.094107 204.739579 
L 183.498821 243.95003 
L 183.903536 265.520979 
L 184.30825 273.404672 
L 184.510607 274.777558 
L 184.712965 271.116529 
L 184.915322 257.658088 
L 185.724751 175.180931 
L 186.129465 153.672386 
L 186.331822 147.577605 
L 186.53418 146.807957 
L 186.736537 149.366517 
L 187.748323 190.053861 
L 188.557752 254.641899 
L 188.962466 268.911591 
L 189.164823 270.97092 
L 189.36718 271.054125 
L 189.569538 270.305278 
L 189.771895 259.446999 
L 190.986038 162.824958 
L 191.188395 157.479024 
L 191.390752 157.437421 
L 191.795467 166.652397 
L 192.604896 198.187169 
L 193.414325 261.984758 
L 193.819039 275.796822 
L 194.021396 276.878489 
L 194.426111 272.88464 
L 194.628468 263.856875 
L 195.437897 202.472237 
L 195.640254 197.417521 
L 195.842611 198.644798 
L 196.247325 204.76038 
L 196.449683 205.342817 
L 196.65204 204.947592 
L 197.056754 213.226509 
L 197.259112 214.079363 
L 197.461469 222.566293 
L 198.06854 271.324542 
L 198.473255 285.635837 
L 198.675612 285.739843 
L 198.877969 282.058013 
L 199.282684 251.001671 
L 199.687398 227.974632 
L 201.306256 160.973642 
L 201.508613 159.808769 
L 202.115684 179.17478 
L 202.318042 190.428284 
L 202.925113 255.078726 
L 203.329828 272.88464 
L 203.532185 275.006372 
L 203.734542 271.990184 
L 203.936899 260.362257 
L 204.341614 226.060912 
L 205.758114 170.895863 
L 205.960471 168.378905 
L 206.162829 168.524514 
L 206.365186 169.959804 
L 206.7699 181.920552 
L 206.972257 185.144754 
L 207.174615 196.086238 
L 207.781686 255.681964 
L 208.186401 271.990184 
L 208.388758 275.068776 
L 208.591115 271.698966 
L 208.793472 259.717416 
L 209.198187 225.603283 
L 209.805258 203.117077 
L 210.209973 183.043822 
L 210.817044 140.962791 
L 211.019402 132.392655 
L 211.221759 135.388042 
L 211.626473 160.099988 
L 211.82883 165.362717 
L 212.031188 180.235647 
L 212.638259 245.905353 
L 213.042974 264.668126 
L 213.245331 268.703578 
L 213.447688 266.97707 
L 213.650045 256.160394 
L 214.257117 212.477663 
L 214.661831 185.872799 
L 215.47126 125.944252 
L 215.875975 109.053596 
L 216.078332 108.575166 
L 216.280689 114.170716 
L 217.090118 178.571543 
L 217.697189 241.100252 
L 218.101904 259.738218 
L 218.304261 263.12883 
L 218.506618 264.501716 
L 218.708976 263.232836 
L 218.911333 250.377632 
L 219.518404 195.046173 
L 220.125476 159.49675 
L 220.327833 157.312613 
L 220.53019 159.559154 
L 221.541976 202.285025 
L 221.744334 207.48535 
L 222.553762 264.938543 
L 222.958477 275.92163 
L 223.160834 277.648138 
L 223.363191 278.00176 
L 223.565549 276.420861 
L 223.767906 267.621911 
L 224.374977 229.035498 
L 224.779692 221.380619 
L 225.386763 223.460749 
L 225.589121 227.017772 
L 225.791478 227.912228 
L 226.196192 236.378357 
L 226.398549 236.024735 
L 226.600907 242.514741 
L 227.410335 296.660526 
L 227.612693 300.737581 
L 227.81505 302.443288 
L 228.017407 299.219086 
L 228.826836 256.201997 
L 229.029193 253.85145 
L 229.23155 248.047887 
L 230.648051 184.000682 
L 230.850408 184.583118 
L 231.255122 199.144029 
L 231.45748 210.147917 
L 232.064551 274.465539 
L 232.469266 291.813823 
L 232.671623 294.559595 
L 232.87398 293.332318 
L 233.278694 267.788321 
L 233.683409 245.031698 
L 235.302267 179.798819 
L 235.504624 179.195582 
L 236.111695 198.499189 
L 236.314053 208.962243 
L 236.921124 271.719767 
L 237.325839 287.75757 
L 237.528196 290.919367 
L 237.730553 288.776833 
L 238.135267 264.584921 
L 238.539982 242.577145 
L 239.349411 211.333591 
L 239.754125 201.224159 
L 240.15884 190.906714 
L 240.361197 190.657098 
L 240.563554 196.169443 
L 240.968268 213.954555 
L 241.170626 221.609434 
L 241.777697 277.710541 
L 242.182412 293.727543 
L 242.384769 296.2445 
L 242.587126 293.228312 
L 242.99184 268.266751 
L 243.396555 250.128017 
L 245.21777 174.723302 
L 245.420127 179.00837 
L 246.027199 206.070862 
L 246.836627 280.289903 
L 247.038985 288.735231 
L 247.241342 291.938631 
L 247.443699 289.380071 
L 247.848413 265.583383 
L 249.467271 152.46591 
L 249.669628 144.3118 
L 249.871985 142.356478 
L 250.074343 142.522889 
L 250.2767 149.532927 
L 250.883772 181.962155 
L 251.6932 257.678889 
L 252.097915 272.343806 
L 252.300272 275.4432 
L 252.502629 275.713617 
L 252.704986 271.802972 
L 253.109701 238.728904 
L 253.91913 164.801082 
L 254.323844 148.846484 
L 254.728558 139.943527 
L 254.930916 138.674648 
L 255.133273 146.246321 
L 255.740345 184.083887 
L 256.549773 260.029436 
L 256.954488 275.651213 
L 257.156845 279.499453 
L 257.359202 281.184359 
L 257.561559 280.206697 
L 257.966274 251.043274 
L 258.573345 200.163293 
L 258.97806 178.280324 
L 259.382774 167.151629 
L 259.585131 163.677811 
L 259.787489 163.240984 
L 259.989846 165.882749 
L 260.39456 182.024558 
L 260.596917 195.503801 
L 261.203989 258.094915 
L 261.608704 276.982496 
L 261.811061 279.936281 
L 262.013418 279.145831 
L 262.418132 254.953919 
L 262.62049 242.82676 
L 263.025204 233.07095 
L 263.227561 230.241973 
L 263.429918 229.22271 
L 263.834633 230.51239 
L 264.03699 230.200371 
L 264.239347 231.157231 
L 264.441704 231.240436 
L 264.644062 230.970019 
L 264.846419 233.029348 
L 265.048776 237.106403 
L 265.251133 237.106403 
L 265.45349 241.162656 
L 266.060562 284.034137 
L 266.465277 296.993347 
L 266.667634 298.553445 
L 266.869991 294.330781 
L 267.072348 286.301479 
L 267.477063 259.551006 
L 268.084134 237.168806 
L 268.488849 226.788957 
L 269.09592 215.431447 
L 269.500635 211.437598 
L 269.702992 213.642535 
L 269.905349 217.282763 
L 270.107706 217.969206 
L 270.310063 224.334404 
L 270.917135 273.654288 
L 271.32185 285.739843 
L 271.524207 287.903179 
L 271.726564 286.176671 
L 274.15485 143.250934 
L 274.357208 136.012081 
L 274.559565 139.381892 
L 275.166636 164.78028 
L 275.976065 247.132629 
L 276.38078 259.821423 
L 276.583137 259.114179 
L 276.987851 237.0648 
L 277.392566 207.880575 
L 278.404352 150.38578 
L 278.606709 147.307188 
L 279.011423 133.952753 
L 279.213781 132.330251 
L 279.416138 136.636121 
L 280.023209 178.758754 
L 280.630281 250.793658 
L 281.034995 273.799897 
L 281.237353 278.729805 
L 281.43971 277.169708 
L 281.642067 271.220536 
L 282.249139 229.056299 
L 282.85621 195.087775 
L 283.867996 151.883474 
L 284.070354 150.676998 
L 284.272711 158.914313 
L 285.284497 242.805959 
L 285.689211 275.297591 
L 286.093926 290.191322 
L 286.296283 292.500266 
L 286.49864 290.669752 
L 286.700997 287.695166 
L 287.105712 256.368407 
L 287.712783 204.302751 
L 288.522212 160.432808 
L 288.724569 153.235558 
L 288.926927 151.280236 
L 289.129284 154.899662 
L 289.736355 189.055398 
L 290.545784 259.842224 
L 290.950499 275.276789 
L 291.152856 278.084965 
L 291.355213 278.16817 
L 291.55757 276.670476 
L 291.759927 264.064888 
L 292.771714 164.385056 
L 293.176428 142.169266 
L 293.581142 130.811756 
L 293.7835 129.064447 
L 293.985857 132.621469 
L 294.592928 158.415082 
L 295.402357 242.556343 
L 295.807072 257.408472 
L 296.009429 257.242062 
L 296.414143 236.731979 
L 297.830644 100.192242 
L 298.235358 86.7338 
L 298.437715 84.112836 
L 298.640073 84.383253 
L 298.84243 86.463383 
L 299.044787 94.596692 
L 299.449501 121.887998 
L 300.056573 201.827397 
L 300.461287 227.371394 
L 300.663645 233.466175 
L 300.866002 234.19422 
L 301.068359 227.288189 
L 301.473073 196.876687 
L 302.484859 90.311624 
L 302.687217 78.850107 
L 302.889574 78.954114 
L 303.091931 87.149826 
L 303.496646 95.907174 
L 303.90136 118.434982 
L 304.306074 146.724751 
L 304.913146 216.804333 
L 305.31786 242.473138 
L 305.520218 248.110291 
L 305.722575 246.300577 
L 305.924932 239.082526 
L 306.532004 198.623996 
L 307.54379 127.733164 
L 307.746147 117.394917 
L 307.948504 116.500462 
L 308.757933 149.179305 
L 309.162647 175.576155 
L 309.769719 239.373744 
L 310.174433 259.509403 
L 310.376791 263.960882 
L 310.579148 263.378445 
L 310.983862 239.664963 
L 312.198005 134.306375 
L 312.60272 122.532839 
L 312.805077 118.102162 
L 313.007434 118.663797 
L 313.209791 122.408031 
L 313.816863 150.344178 
L 314.01922 164.197844 
L 314.626292 227.579407 
L 315.031006 248.339105 
L 315.233364 252.977795 
L 315.435721 252.312153 
L 315.840435 233.299765 
L 316.24515 214.34978 
L 316.649864 202.181019 
L 317.054578 186.68405 
L 317.66165 179.070774 
L 317.864007 178.613145 
L 318.066364 177.697888 
L 318.268722 182.440585 
L 318.875793 204.864387 
L 319.685222 264.210497 
L 320.089937 277.148906 
L 320.292294 278.81301 
L 320.697008 270.783708 
L 321.101723 244.220447 
L 322.315866 165.300313 
L 322.72058 154.920464 
L 322.922937 152.569917 
L 323.125295 156.750978 
L 323.732366 184.728728 
L 324.541795 254.142668 
L 324.94651 268.620373 
L 325.148867 271.553356 
L 325.351224 271.61576 
L 325.553581 269.327617 
L 325.755938 256.846837 
L 326.970082 143.001319 
L 327.172439 136.594518 
L 327.374796 134.992818 
L 327.77951 129.355665 
L 327.981868 134.410381 
L 328.184225 143.313338 
L 328.791296 195.628609 
L 329.196011 239.914578 
L 329.398368 255.349143 
L 329.803083 265.583383 
L 330.00544 264.626523 
L 330.207797 258.947768 
L 330.814869 209.815096 
L 331.42194 171.103876 
L 331.826655 148.13924 
L 332.029012 145.206256 
L 332.231369 145.227058 
L 332.433726 145.414269 
L 332.636083 147.536002 
L 332.838441 152.133089 
L 333.243155 175.347341 
L 333.445512 184.479112 
L 334.052584 251.043274 
L 334.457298 273.113454 
L 334.659655 278.604997 
L 334.862013 276.171245 
L 335.266727 256.077189 
L 335.671442 231.406846 
L 336.48087 190.781906 
L 336.683228 185.643985 
L 336.885585 184.520715 
L 337.087942 178.259523 
L 337.290299 176.387406 
L 337.695014 182.939816 
L 338.099728 197.583931 
L 338.302085 203.533103 
L 339.111514 270.201272 
L 339.313871 276.483265 
L 339.516228 278.750606 
L 339.718586 274.631949 
L 340.1233 250.98087 
L 340.932729 205.946054 
L 342.349229 143.396543 
L 342.551587 143.313338 
L 343.158658 168.316501 
L 343.76573 231.885276 
L 344.170444 250.128017 
L 344.372801 254.953919 
L 344.575159 252.790583 
L 344.777516 245.780545 
L 345.18223 214.495389 
L 346.194016 130.790955 
L 346.598731 115.83482 
L 347.003445 109.136801 
L 347.205802 108.283948 
L 347.40816 111.508149 
L 347.610517 119.454246 
L 348.015231 145.892699 
L 348.82466 238.18807 
L 349.229374 255.515554 
L 349.431732 254.745906 
L 349.634089 248.879939 
L 349.836446 237.605634 
L 351.050589 131.83102 
L 351.455304 113.234657 
L 351.860018 104.269297 
L 352.062375 103.35404 
L 352.264733 107.03587 
L 352.46709 118.268572 
L 353.276519 202.430634 
L 353.681233 240.850637 
L 354.085947 261.298315 
L 354.288305 266.644249 
L 354.490662 267.226686 
L 354.693019 264.959344 
L 355.097733 222.379082 
L 355.704805 147.598406 
L 356.109519 122.574441 
L 356.716591 104.144489 
L 356.918948 103.04202 
L 357.121306 107.909524 
L 357.52602 133.869548 
L 357.728377 146.724751 
L 358.740163 243.450799 
L 359.144878 256.597221 
L 359.347235 258.49014 
L 359.549592 258.157319 
L 359.751949 243.970832 
L 360.763735 121.763191 
L 361.16845 102.438782 
L 361.573164 91.185279 
L 361.775521 88.855533 
L 361.977879 92.183741 
L 362.180236 99.276985 
L 362.58495 125.403418 
L 363.394379 215.327441 
L 363.799093 233.216559 
L 364.001451 234.048611 
L 364.203808 228.078638 
L 364.406165 217.886001 
L 365.013237 147.369592 
L 365.620308 81.9287 
L 366.025023 65.537275 
L 366.429737 59.276083 
L 366.632094 59.775315 
L 366.834451 62.458682 
L 367.036809 71.299235 
L 367.441523 100.899486 
L 368.048595 181.650135 
L 368.453309 212.60247 
L 368.655666 221.255811 
L 368.858024 223.668762 
L 369.060381 219.716515 
L 369.262738 209.71109 
L 369.86981 145.26866 
L 370.476881 86.25537 
L 370.881596 69.385516 
L 371.083953 68.927887 
L 371.28631 69.655932 
L 371.488667 73.649782 
L 371.691024 79.973378 
L 372.298096 119.537451 
L 373.107525 205.821246 
L 373.512239 228.390658 
L 373.714597 232.821335 
L 374.119311 232.11409 
L 374.321668 219.175681 
L 375.333454 113.75469 
L 375.738169 100.296248 
L 375.940526 97.550477 
L 376.142883 96.427206 
L 376.34524 101.689935 
L 376.749955 128.336402 
L 377.559383 188.160942 
L 377.964098 223.356743 
L 378.368812 237.376819 
L 378.57117 237.605634 
L 378.773527 231.573257 
L 378.975884 220.174144 
L 380.392384 101.669134 
L 380.797099 91.580503 
L 381.201813 83.863221 
L 381.40417 87.69066 
L 382.011242 125.320213 
L 382.820671 209.544679 
L 383.225385 225.915303 
L 383.427743 226.580944 
L 383.6301 221.151805 
L 384.034814 198.540791 
L 385.0466 123.884923 
L 385.451315 106.911062 
L 385.653672 106.432632 
L 385.856029 110.280873 
L 386.058386 118.039758 
L 387.070172 189.201007 
L 387.474887 229.992358 
L 387.879601 252.249749 
L 388.284316 261.547931 
L 388.68903 264.106491 
L 388.891387 258.261325 
L 389.700816 213.975356 
L 390.307888 202.576244 
L 390.914959 189.617033 
L 391.117316 194.484538 
L 391.926745 234.735054 
L 392.533817 279.686665 
L 392.938531 292.271452 
L 393.140888 294.16437 
L 393.343246 293.706742 
L 393.545603 294.185172 
L 393.74796 285.074202 
L 394.355032 243.201184 
L 395.569175 185.747991 
L 395.771532 179.632409 
L 395.973889 180.859686 
L 396.176247 189.325815 
L 396.783318 232.093289 
L 397.188033 271.28294 
L 397.592747 289.421674 
L 397.795104 292.250651 
L 397.997461 289.671289 
L 398.402176 271.220536 
L 400.628105 141.378817 
L 400.830462 144.270198 
L 401.03282 154.400431 
L 401.639891 212.43606 
L 402.044606 257.554081 
L 402.44932 278.230574 
L 402.651677 282.307629 
L 402.854034 280.622723 
L 403.258749 262.109566 
L 403.663463 233.195758 
L 404.877607 125.299412 
L 405.282321 104.414906 
L 405.484678 100.129838 
L 405.687035 101.232307 
L 405.889393 111.924175 
L 406.294107 149.948953 
L 406.901179 228.723478 
L 407.305893 253.206609 
L 407.50825 258.906166 
L 407.710607 258.365332 
L 408.115322 236.75278 
L 409.73418 102.147564 
L 409.936537 97.134451 
L 410.138894 96.988842 
L 410.341251 101.669134 
L 410.948323 138.404231 
L 411.15068 154.587643 
L 411.757752 226.414534 
L 412.162466 250.897665 
L 412.364823 257.491677 
L 412.56718 259.30139 
L 412.971895 240.933842 
L 414.388395 141.129201 
L 414.79311 127.35874 
L 415.197824 120.577516 
L 415.400181 127.462747 
L 416.20961 191.093926 
L 416.614325 237.106403 
L 417.019039 260.57027 
L 417.221396 264.89694 
L 417.423753 264.335305 
L 417.828468 247.902278 
L 419.244968 148.492862 
L 419.649683 134.659997 
L 419.85204 130.770154 
L 420.054397 132.226245 
L 420.256754 141.025195 
L 421.066183 207.360543 
L 421.673255 263.316041 
L 422.077969 279.645062 
L 422.280326 282.16202 
L 422.482684 281.496378 
L 422.685041 281.329968 
L 423.089755 250.107215 
L 423.899184 180.006832 
L 424.708613 140.109938 
L 424.91097 136.885736 
L 425.113327 140.94199 
L 425.518042 167.442847 
L 425.720399 179.403595 
L 426.529828 255.057925 
L 426.934542 273.883102 
L 427.136899 278.417786 
L 427.339257 279.229036 
L 427.541614 279.457851 
L 427.743971 270.742106 
L 428.148685 229.846749 
L 428.755757 167.130827 
L 429.160471 141.150003 
L 429.565186 132.78788 
L 429.9699 136.760928 
L 430.374615 153.193956 
L 430.576972 164.988293 
L 431.386401 241.973907 
L 431.791115 254.371482 
L 431.993472 252.312153 
L 432.398187 231.739667 
L 433.207616 165.799544 
L 434.017044 94.513487 
L 434.219402 89.562777 
L 435.02883 117.332514 
L 435.433545 142.647696 
L 436.040617 214.765806 
L 436.445331 237.584832 
L 436.647688 242.785158 
L 436.850045 242.098715 
L 437.25476 221.23501 
L 437.659474 185.872799 
L 438.468903 111.466547 
L 438.67126 101.60673 
L 438.873617 102.584391 
L 439.075975 109.781641 
L 439.278332 109.324013 
L 439.480689 111.591355 
L 439.885403 130.374929 
L 440.290118 155.440496 
L 440.897189 229.784345 
L 441.301904 252.374557 
L 441.504261 257.866101 
L 441.706618 258.406934 
L 442.111333 243.492402 
L 442.920762 190.823509 
L 443.527833 155.523701 
L 444.134905 132.496662 
L 444.337262 129.875698 
L 444.539619 136.365704 
L 445.146691 181.982956 
L 445.753762 252.020935 
L 446.158477 273.487877 
L 446.360834 278.500991 
L 446.563191 276.483265 
L 446.967906 257.346068 
L 448.586763 146.204719 
L 448.991478 132.850284 
L 449.193835 130.499737 
L 449.396192 137.239358 
L 450.003264 178.113914 
L 450.812693 259.13498 
L 451.217407 272.593421 
L 451.419764 272.718229 
L 451.824479 255.328342 
L 452.43155 204.302751 
L 453.038622 161.888899 
L 453.443336 144.644621 
L 453.848051 136.677723 
L 454.050408 140.089136 
L 454.252765 150.198569 
L 454.65748 178.945966 
L 454.859837 187.495301 
L 455.669266 252.998596 
L 456.07398 266.706653 
L 456.276337 268.24595 
L 456.478694 266.228223 
L 456.681052 263.087227 
L 456.883409 254.995521 
L 457.288123 227.662612 
L 457.692838 216.575519 
L 457.895195 217.282763 
L 458.299909 223.107127 
L 458.502267 222.961518 
L 458.906981 219.092476 
L 459.109338 219.63331 
L 459.514053 223.835173 
L 459.71641 228.182645 
L 460.728196 286.571895 
L 461.13291 291.044175 
L 461.537625 287.695166 
L 461.739982 278.667401 
L 462.144696 243.762819 
L 463.561197 173.787243 
L 463.763554 166.444384 
L 463.965911 167.630058 
L 464.572983 187.32889 
L 465.382412 255.078726 
L 465.584769 262.067963 
L 465.787126 264.813735 
L 465.989483 262.359182 
L 467.608341 168.753329 
L 468.620127 147.327989 
L 468.822484 150.489787 
L 469.429556 177.032246 
L 470.036627 234.402233 
L 470.441342 252.395359 
L 470.643699 255.057925 
L 470.846056 252.457762 
L 471.857842 200.953742 
L 472.869628 170.355029 
L 473.071985 170.85426 
L 473.274343 169.044547 
L 473.4767 170.313426 
L 473.679057 174.140866 
L 473.881414 180.797282 
L 474.083772 181.962155 
L 474.286129 189.72104 
L 474.8932 242.431536 
L 475.297915 258.864563 
L 475.500272 260.549468 
L 475.702629 258.49014 
L 476.107344 233.840598 
L 476.512058 211.583207 
L 477.321487 179.736415 
L 477.726201 159.351141 
L 477.928558 155.752516 
L 478.333273 160.495212 
L 478.53563 165.009095 
L 479.142702 190.220271 
L 479.952131 258.760557 
L 480.356845 268.72438 
L 480.559202 268.308354 
L 480.963917 245.967757 
L 482.785131 116.126038 
L 482.987489 110.156065 
L 483.189846 107.493498 
L 483.392203 113.193055 
L 483.999275 153.505975 
L 484.606346 225.416072 
L 485.011061 248.90074 
L 485.213418 253.352218 
L 485.415775 254.309078 
L 485.82049 234.319028 
L 486.225204 202.763455 
L 487.23699 111.778566 
L 487.439347 108.658371 
L 487.844062 115.293986 
L 488.248776 134.119163 
L 489.260562 212.519265 
L 489.665277 245.031698 
L 490.069991 260.299853 
L 490.272348 262.671201 
L 490.474705 261.52713 
L 490.677063 259.738218 
L 490.87942 249.899202 
L 491.891206 169.294163 
L 492.29592 151.384243 
L 492.498277 143.916576 
L 492.700635 141.878048 
L 492.902992 143.521351 
L 493.105349 148.388855 
L 493.712421 182.274174 
L 494.52185 255.057925 
L 495.128921 273.52948 
L 495.331278 273.675089 
L 495.533636 273.05105 
L 495.735993 265.416973 
L 496.950136 172.913589 
L 497.557208 148.284849 
L 497.759565 144.894237 
L 497.961922 148.13924 
L 498.568994 179.986031 
L 499.378422 254.600296 
L 499.58078 261.506328 
L 499.783137 264.023286 
L 499.985494 260.674276 
L 500.187851 252.062538 
L 500.794923 214.745004 
L 500.99728 209.586282 
L 501.401995 196.356655 
L 501.806709 184.978343 
L 502.009066 184.520715 
L 502.211423 186.600845 
L 502.413781 187.245685 
L 502.616138 185.56078 
L 503.020852 195.378994 
L 503.223209 195.940629 
L 503.425567 203.533103 
L 504.032638 254.766707 
L 504.437353 267.975533 
L 504.63971 269.618835 
L 504.842067 267.226686 
L 505.246782 242.597946 
L 505.651496 218.530841 
L 507.270354 144.603019 
L 507.472711 141.462022 
L 507.675068 144.894237 
L 508.28214 173.225608 
L 508.889211 231.864475 
L 509.293926 249.171157 
L 509.496283 252.728179 
L 509.69864 250.876864 
L 510.103354 227.080176 
L 511.722212 119.579054 
L 512.126927 101.627532 
L 512.329284 103.229232 
L 512.936355 137.967404 
L 513.34107 177.323465 
L 513.745784 221.255811 
L 514.150499 244.220447 
L 514.352856 249.8576 
L 514.555213 250.356831 
L 514.75757 241.370669 
L 516.174071 143.583755 
L 516.376428 142.481286 
L 516.781142 151.904275 
L 516.9835 149.137702 
L 517.185857 149.678536 
L 517.590571 167.567655 
L 517.792928 171.852722 
L 517.995286 182.669399 
L 518.4 222.753505 
L 518.4 222.753505 
" clip-path="url(#pbc9a620b55)" style="fill: none; stroke: #1f77b4; stroke-width: 1.5; stroke-linecap: square"/>
   </g>
   <g id="line2d_14">
    <path d="M 72 276.184307 
L 72.202357 276.184307 
L 72.404714 276.933095 
L 72.607072 278.134481 
L 73.011786 281.630214 
L 73.214143 279.053024 
L 73.618858 262.3842 
L 75.237715 179.645196 
L 75.440073 174.297144 
L 75.64243 173.658799 
L 76.047144 183.754828 
L 76.249501 194.742504 
L 77.05893 266.596177 
L 77.261287 272.939093 
L 77.463645 273.189649 
L 78.070716 254.705189 
L 78.880145 213.802784 
L 80.094288 162.830903 
L 80.296646 167.397282 
L 80.499003 174.92944 
L 80.903717 202.500709 
L 81.510789 251.486529 
L 81.915503 277.100335 
L 82.11786 282.153581 
L 82.320218 279.599162 
L 82.724932 263.539622 
L 82.927289 260.271497 
L 83.939075 222.184378 
L 84.34379 217.902583 
L 84.546147 219.321883 
L 85.962647 256.976849 
L 86.772076 294.717123 
L 87.176791 306.747441 
L 87.379148 307.8 
L 87.783862 291.760983 
L 88.593291 249.151026 
L 88.795648 246.403674 
L 88.998005 246.380699 
L 89.200363 246.526743 
L 89.40272 246.277271 
L 89.807434 248.10617 
L 90.009791 246.963388 
L 90.212149 247.591371 
L 90.616863 251.287475 
L 91.021578 262.172724 
L 91.426292 284.373368 
L 91.831006 301.604926 
L 92.033364 305.187274 
L 92.235721 304.338413 
L 92.438078 293.977598 
L 93.04515 247.376868 
L 93.449864 233.704052 
L 93.652221 232.805246 
L 93.854578 235.702023 
L 94.056936 236.399829 
L 94.46165 227.18156 
L 94.664007 227.590287 
L 94.866364 230.794132 
L 95.068722 231.374132 
L 95.473436 241.194008 
L 95.87815 261.931327 
L 96.282865 279.459497 
L 96.485222 290.459687 
L 96.687579 294.994621 
L 96.889937 293.356938 
L 98.508794 235.632083 
L 98.913509 233.595913 
L 99.318223 223.804635 
L 100.127652 235.592014 
L 100.330009 242.716115 
L 100.734723 263.615255 
L 101.139438 279.315712 
L 101.544152 296.58211 
L 101.74651 294.636927 
L 102.758296 245.705637 
L 103.16301 234.960337 
L 103.365367 233.632039 
L 103.567724 233.519762 
L 103.770082 233.085526 
L 104.174796 220.704423 
L 104.57951 223.702179 
L 104.984225 231.675224 
L 105.996011 279.45357 
L 106.400725 296.010823 
L 106.603083 293.628169 
L 107.817226 237.558521 
L 108.22194 230.144707 
L 108.424297 227.661995 
L 109.031369 202.673771 
L 109.233726 199.676644 
L 110.043155 233.330579 
L 110.447869 261.284195 
L 111.257298 292.428059 
L 111.459655 288.05843 
L 112.066727 262.035374 
L 113.078513 216.991729 
L 113.483228 198.311431 
L 113.887942 183.636696 
L 114.090299 181.005599 
L 114.292656 183.938392 
L 114.697371 199.131984 
L 114.899728 212.175041 
L 115.304442 251.838473 
L 115.911514 279.473663 
L 116.113871 285.275785 
L 116.316228 283.62132 
L 116.720943 262.72866 
L 116.9233 257.592182 
L 117.732729 224.11287 
L 118.542158 168.463331 
L 118.946872 157.454696 
L 119.149229 156.822552 
L 119.351587 161.643563 
L 119.553944 170.296672 
L 119.958658 209.996664 
L 120.363373 251.043591 
L 120.970444 280.524946 
L 121.172801 281.531682 
L 121.375159 278.004407 
L 121.98223 246.554352 
L 122.589302 217.733379 
L 122.994016 203.408964 
L 123.398731 195.266747 
L 123.601088 193.761166 
L 123.803445 196.798944 
L 124.410517 214.181723 
L 124.815231 235.80316 
L 125.827017 294.938197 
L 126.029374 300.237323 
L 126.231732 299.895059 
L 126.434089 289.800699 
L 127.243518 223.424458 
L 127.850589 188.132869 
L 128.660018 150.186304 
L 128.862375 149.460705 
L 129.26709 177.108646 
L 130.278876 279.585691 
L 130.481233 289.337169 
L 130.68359 288.512343 
L 131.695376 236.428901 
L 133.111877 150.630764 
L 133.516591 141.586587 
L 133.921306 157.872922 
L 134.32602 180.34952 
L 135.135449 265.482277 
L 135.540163 284.640846 
L 135.74252 279.494792 
L 136.956664 201.293894 
L 137.563735 179.122436 
L 137.766092 180.212537 
L 137.96845 182.043388 
L 139.182593 219.339232 
L 139.992022 268.958132 
L 140.396736 284.934836 
L 140.599093 287.00299 
L 141.003808 268.33315 
L 141.610879 229.667221 
L 142.420308 196.331707 
L 142.825023 203.70799 
L 143.432094 211.486213 
L 143.634451 219.932157 
L 143.836809 222.817726 
L 145.050952 275.12754 
L 145.253309 277.599236 
L 145.455666 275.773676 
L 146.062738 247.342972 
L 146.467452 224.980156 
L 147.074524 210.187763 
L 147.276881 205.319693 
L 147.479238 204.743394 
L 147.883953 208.600574 
L 148.08631 212.255436 
L 148.491024 224.995695 
L 148.693382 227.997302 
L 149.502811 260.865037 
L 150.109882 274.957886 
L 150.312239 273.718702 
L 150.716954 258.702954 
L 151.121668 249.158147 
L 151.324025 240.525681 
L 152.133454 227.01927 
L 152.335811 224.49418 
L 152.740526 229.590749 
L 153.14524 238.457201 
L 153.549955 240.941401 
L 155.168812 284.682561 
L 155.37117 283.115468 
L 155.775884 271.414057 
L 156.585313 224.600704 
L 156.990027 203.839189 
L 157.597099 172.293629 
L 158.001813 160.482363 
L 158.20417 161.79404 
L 158.406528 169.929478 
L 159.620671 270.738324 
L 159.823028 275.861909 
L 160.025385 277.217822 
L 160.227743 272.618779 
L 160.632457 247.016116 
L 161.239529 204.610749 
L 161.8466 185.761894 
L 162.453672 169.244306 
L 162.656029 171.959446 
L 162.858386 178.950501 
L 164.477244 275.877857 
L 164.679601 280.292119 
L 164.881958 279.252715 
L 165.286673 262.967628 
L 166.096102 219.535164 
L 166.500816 208.9911 
L 166.90553 193.367564 
L 167.107888 188.08166 
L 167.512602 170.731509 
L 167.714959 174.580614 
L 168.524388 229.931794 
L 168.929102 263.186023 
L 169.333817 281.777576 
L 169.536174 282.485748 
L 169.738531 277.088127 
L 170.750317 218.805941 
L 170.952675 207.517039 
L 171.357389 175.580511 
L 171.762103 157.314007 
L 171.964461 155.481425 
L 172.166818 155.89826 
L 172.369175 158.107012 
L 172.773889 170.704734 
L 173.178604 194.181223 
L 173.785675 250.988607 
L 174.19039 275.636058 
L 174.392747 280.6647 
L 174.595104 277.721399 
L 176.213962 199.325395 
L 176.821034 174.390173 
L 177.023391 169.936189 
L 177.225748 170.252474 
L 177.630462 184.262591 
L 178.035177 203.607432 
L 178.642248 261.076697 
L 179.046963 289.192474 
L 179.24932 293.786891 
L 179.451677 290.667745 
L 179.856392 265.797662 
L 181.070535 190.486689 
L 181.677607 157.821862 
L 181.879964 151.65283 
L 182.082321 151.743653 
L 182.284678 155.309572 
L 182.689393 177.40113 
L 183.094107 213.169348 
L 183.498821 252.174146 
L 183.903536 275.105741 
L 184.105893 276.981697 
L 184.30825 273.814467 
L 185.117679 235.741334 
L 185.724751 187.007523 
L 186.129465 152.827173 
L 186.331822 140.461187 
L 186.53418 137.87486 
L 186.736537 139.317287 
L 187.545966 188.105652 
L 188.760109 256.58821 
L 189.164823 265.85863 
L 189.36718 265.070395 
L 189.771895 248.101734 
L 190.986038 170.49868 
L 191.390752 156.84698 
L 191.59311 155.289239 
L 191.795467 159.744329 
L 191.997824 167.452538 
L 193.414325 258.020679 
L 193.616682 264.813925 
L 194.021396 269.646287 
L 194.223753 270.337102 
L 194.426111 262.502149 
L 195.033182 223.541007 
L 195.437897 202.234182 
L 195.640254 191.355766 
L 196.044968 187.602628 
L 196.449683 195.878124 
L 197.461469 227.579564 
L 198.270898 266.353291 
L 198.675612 279.794077 
L 198.877969 283.578695 
L 199.080326 284.182939 
L 199.282684 273.617327 
L 199.889755 213.664156 
L 200.29447 197.331103 
L 200.699184 187.759404 
L 201.103898 177.947126 
L 201.508613 165.60378 
L 201.71097 162.990087 
L 201.913327 169.464922 
L 203.329828 269.792625 
L 203.532185 272.078808 
L 203.734542 267.302024 
L 204.948685 201.233574 
L 205.555757 178.683201 
L 205.960471 168.254259 
L 206.162829 166.318722 
L 206.365186 169.194301 
L 207.376972 217.633369 
L 207.781686 243.720277 
L 208.388758 268.47432 
L 208.591115 265.904711 
L 211.019402 147.843545 
L 211.221759 142.01362 
L 211.424116 144.762752 
L 211.82883 169.664424 
L 212.031188 183.233774 
L 212.638259 244.150903 
L 213.042974 265.104693 
L 213.245331 267.348535 
L 213.447688 262.101425 
L 214.05476 226.495054 
L 214.864189 178.515601 
L 215.47126 133.370406 
L 215.673617 124.92126 
L 215.875975 121.303807 
L 216.078332 120.665594 
L 216.483046 134.843188 
L 216.887761 159.729746 
L 217.899547 251.67981 
L 218.101904 257.966282 
L 218.304261 256.223237 
L 218.708976 240.494742 
L 218.911333 236.436932 
L 219.518404 204.380819 
L 219.923119 168.800016 
L 220.327833 147.87975 
L 220.53019 146.476801 
L 220.732548 152.294796 
L 222.553762 258.998913 
L 222.958477 270.212064 
L 223.160834 271.888808 
L 223.363191 272.541187 
L 223.565549 267.589114 
L 223.970263 244.344305 
L 224.577335 213.452769 
L 224.779692 203.771539 
L 224.982049 202.431114 
L 225.184406 203.707436 
L 225.386763 206.721084 
L 225.791478 215.036031 
L 226.196192 224.299843 
L 227.81505 292.05745 
L 228.017407 295.515536 
L 228.219764 294.937085 
L 228.422121 286.534241 
L 229.029193 237.647537 
L 229.636265 220.995121 
L 229.838622 221.990425 
L 230.040979 220.048351 
L 230.445694 209.390646 
L 230.850408 195.614935 
L 231.052765 195.767168 
L 231.255122 202.565483 
L 231.659837 229.610403 
L 232.469266 287.677434 
L 232.671623 291.116123 
L 233.076337 278.136541 
L 234.088123 222.268022 
L 235.099909 185.482124 
L 235.504624 177.231991 
L 235.706981 183.583607 
L 236.51641 230.988261 
L 236.921124 256.349283 
L 237.528196 285.609001 
L 237.730553 283.885866 
L 238.539982 247.275392 
L 239.147053 216.252419 
L 239.754125 193.492852 
L 239.956482 191.795014 
L 240.15884 191.419549 
L 240.361197 193.425185 
L 241.170626 222.356044 
L 241.777697 260.689719 
L 242.182412 282.223679 
L 242.384769 286.622752 
L 242.587126 284.852846 
L 242.789483 278.299724 
L 243.801269 227.983324 
L 244.003626 222.858045 
L 245.015413 186.177905 
L 245.21777 183.591986 
L 245.420127 186.4743 
L 245.824841 200.609289 
L 246.229556 229.343706 
L 246.63427 259.477566 
L 247.241342 287.245067 
L 247.443699 282.859769 
L 247.848413 264.346402 
L 249.871985 143.59378 
L 250.074343 144.169325 
L 250.2767 150.886704 
L 250.883772 187.920467 
L 251.490843 247.789941 
L 251.895558 265.780779 
L 252.097915 270.407573 
L 252.300272 267.651504 
L 253.312058 225.044981 
L 253.716772 191.327147 
L 254.121487 158.412944 
L 254.526201 144.483951 
L 254.728558 145.535904 
L 254.930916 148.037057 
L 255.133273 153.187066 
L 255.537987 173.289482 
L 255.942702 208.650006 
L 256.347416 243.179472 
L 256.954488 272.072451 
L 257.156845 274.769126 
L 257.359202 271.67888 
L 257.763917 250.67048 
L 258.775703 190.590247 
L 259.382774 165.309449 
L 259.585131 165.205426 
L 259.787489 165.701591 
L 259.989846 171.147735 
L 260.596917 199.760474 
L 261.608704 276.100131 
L 261.811061 284.068194 
L 262.013418 287.324441 
L 262.215775 285.248451 
L 262.418132 272.528525 
L 263.025204 215.479213 
L 263.429918 202.388671 
L 263.632276 201.707572 
L 263.834633 202.932222 
L 264.239347 213.441489 
L 264.846419 225.890353 
L 265.251133 233.590236 
L 266.465277 283.451591 
L 266.667634 289.095054 
L 266.869991 290.252564 
L 267.072348 287.05369 
L 268.488849 218.16494 
L 268.691206 214.317177 
L 268.893563 212.819198 
L 269.09592 214.001444 
L 269.298277 214.516008 
L 269.500635 215.697676 
L 269.702992 217.758341 
L 270.107706 229.006512 
L 270.310063 234.466265 
L 270.714778 253.550165 
L 271.524207 278.069703 
L 271.726564 276.084878 
L 271.928921 269.359702 
L 272.940707 220.225247 
L 273.547779 193.072249 
L 274.15485 158.14232 
L 274.357208 150.238798 
L 274.559565 149.211754 
L 274.761922 151.863326 
L 274.964279 160.025417 
L 275.368994 194.577558 
L 275.976065 247.598565 
L 276.38078 264.336532 
L 276.583137 260.294537 
L 277.392566 216.2036 
L 277.999637 174.821585 
L 278.606709 147.910926 
L 278.809066 143.642256 
L 279.011423 142.250213 
L 279.213781 139.63252 
L 279.618495 151.661815 
L 280.023209 180.453808 
L 280.832638 247.60887 
L 281.237353 270.548426 
L 281.43971 267.901099 
L 282.249139 230.810461 
L 283.058568 183.34342 
L 283.463282 166.411608 
L 283.867996 155.931243 
L 284.070354 153.522872 
L 284.475068 172.020958 
L 285.08214 217.409205 
L 285.689211 268.324418 
L 286.093926 285.196715 
L 286.296283 282.911455 
L 286.903354 252.175612 
L 287.308069 234.642777 
L 287.510426 227.600577 
L 287.915141 195.771639 
L 288.319855 170.385679 
L 288.522212 161.006715 
L 288.926927 158.456821 
L 289.129284 162.681147 
L 289.533998 182.950601 
L 289.938713 213.692849 
L 290.343427 253.001373 
L 290.950499 282.159786 
L 291.152856 282.328946 
L 291.355213 278.436723 
L 291.759927 253.13182 
L 293.378785 134.611966 
L 293.581142 131.501628 
L 293.7835 132.082974 
L 294.188214 145.996363 
L 294.795286 186.336195 
L 295.402357 245.459949 
L 295.807072 263.238833 
L 296.009429 267.411145 
L 296.211786 267.59832 
L 296.6165 234.220651 
L 297.223572 171.37938 
L 297.830644 114.682167 
L 298.235358 89.43225 
L 298.437715 84.195032 
L 298.640073 83.554494 
L 298.84243 89.803908 
L 299.247144 114.206303 
L 299.854216 176.600267 
L 300.25893 218.77406 
L 300.461287 235.101671 
L 300.663645 240.344054 
L 300.866002 240.354391 
L 301.068359 236.347796 
L 301.473073 206.514145 
L 302.282502 123.670109 
L 302.687217 85.849713 
L 302.889574 75.779514 
L 303.091931 72.278638 
L 303.294288 77.906393 
L 303.496646 87.583337 
L 304.103717 139.182057 
L 304.913146 215.5047 
L 305.31786 239.719022 
L 305.520218 244.127326 
L 305.722575 241.668785 
L 305.924932 236.618155 
L 306.329646 210.09649 
L 307.139075 151.391039 
L 307.54379 132.165671 
L 307.948504 120.858967 
L 308.150861 119.953694 
L 308.353218 122.755219 
L 308.757933 150.545868 
L 309.972076 249.747019 
L 310.376791 262.96069 
L 310.579148 259.497274 
L 310.983862 241.515051 
L 311.590934 194.077704 
L 312.198005 134.907157 
L 312.400363 123.362888 
L 312.60272 118.36225 
L 312.805077 117.584738 
L 313.007434 118.175713 
L 313.209791 122.442564 
L 313.412149 129.6295 
L 313.816863 158.312719 
L 314.828649 242.400595 
L 315.233364 253.383981 
L 315.435721 253.111619 
L 316.852221 179.260462 
L 317.256936 175.331923 
L 317.459293 174.198142 
L 317.66165 175.869778 
L 317.864007 178.879149 
L 318.471079 194.633773 
L 318.875793 206.209815 
L 319.685222 258.054616 
L 320.089937 270.471883 
L 320.292294 269.224801 
L 320.494651 263.936365 
L 321.101723 241.035103 
L 321.30408 235.064458 
L 322.518223 163.556723 
L 322.72058 159.364899 
L 322.922937 158.038437 
L 323.125295 159.185642 
L 323.327652 165.023603 
L 323.530009 174.715708 
L 324.541795 251.172123 
L 324.744152 260.036114 
L 324.94651 263.699444 
L 325.148867 264.777903 
L 325.351224 261.266734 
L 326.160653 222.197486 
L 326.565367 193.678016 
L 327.172439 142.084805 
L 327.374796 134.769741 
L 327.577153 132.661666 
L 327.77951 133.941112 
L 328.184225 145.873821 
L 328.386582 155.756434 
L 328.791296 192.438923 
L 329.196011 234.778307 
L 329.600725 257.213666 
L 329.803083 265.465445 
L 330.00544 266.652286 
L 330.207797 265.406834 
L 330.410154 254.314904 
L 331.624297 157.348058 
L 332.029012 143.995198 
L 332.231369 139.388927 
L 332.433726 140.615297 
L 332.636083 143.118257 
L 333.040798 164.915315 
L 333.445512 197.840531 
L 333.647869 208.999023 
L 334.254941 254.650941 
L 334.659655 269.442178 
L 334.862013 272.51149 
L 335.06437 265.778416 
L 336.076156 204.132159 
L 336.48087 185.278499 
L 336.885585 176.78797 
L 337.290299 177.683405 
L 337.492656 178.726439 
L 338.099728 203.969516 
L 339.516228 278.764531 
L 339.718586 276.261116 
L 339.920943 270.642339 
L 341.337443 183.230728 
L 341.539801 178.314329 
L 341.944515 163.587065 
L 342.349229 150.927737 
L 342.753944 157.830752 
L 343.158658 177.54137 
L 344.170444 258.376449 
L 344.372801 262.430976 
L 344.575159 256.613298 
L 345.18223 222.581406 
L 345.789302 182.665905 
L 346.396374 128.030209 
L 346.801088 108.360443 
L 347.003445 109.391001 
L 347.205802 112.22326 
L 347.610517 128.143854 
L 348.015231 153.921472 
L 349.027017 239.678279 
L 349.229374 249.388882 
L 349.431732 249.47962 
L 349.634089 244.108269 
L 350.038803 222.618852 
L 351.455304 119.426776 
L 351.657661 112.609956 
L 352.062375 108.225125 
L 352.46709 124.122935 
L 352.871804 158.394058 
L 353.681233 235.318701 
L 354.085947 259.100619 
L 354.288305 258.762428 
L 354.490662 253.822287 
L 355.502448 189.03836 
L 356.311877 114.618627 
L 356.514234 107.930212 
L 356.716591 106.507385 
L 356.918948 107.421871 
L 357.323663 122.128847 
L 357.728377 157.317482 
L 358.740163 248.656956 
L 358.94252 258.73921 
L 359.144878 262.254063 
L 359.347235 260.840265 
L 359.954306 213.397854 
L 360.561378 157.30271 
L 360.966092 117.618062 
L 361.370807 95.222304 
L 361.573164 92.11697 
L 361.775521 91.872707 
L 361.977879 96.889798 
L 362.180236 105.633983 
L 362.58495 137.030182 
L 363.799093 248.4917 
L 364.001451 251.163173 
L 364.203808 249.900667 
L 364.406165 234.395641 
L 365.620308 93.370308 
L 366.025023 66.677269 
L 366.22738 57.77239 
L 366.429737 55.8 
L 366.632094 56.40154 
L 367.036809 76.180718 
L 367.64388 134.934819 
L 368.453309 216.406298 
L 368.655666 223.226597 
L 368.858024 224.311475 
L 369.060381 222.279946 
L 369.465095 195.445476 
L 370.679238 82.063111 
L 371.083953 66.137246 
L 371.28631 66.056925 
L 371.488667 69.070248 
L 371.893382 95.04292 
L 373.309882 220.725756 
L 373.512239 226.080025 
L 373.714597 226.557581 
L 373.916954 222.632808 
L 374.524025 195.017775 
L 375.738169 98.145701 
L 375.940526 93.326065 
L 376.142883 95.188386 
L 376.34524 98.34418 
L 376.547597 106.78611 
L 376.952312 140.506693 
L 377.559383 199.017997 
L 377.964098 227.4387 
L 378.166455 238.329285 
L 378.368812 242.113593 
L 378.57117 242.758718 
L 378.773527 235.079575 
L 379.380598 192.327233 
L 379.98767 128.657364 
L 380.392384 103.888063 
L 380.797099 90.782148 
L 380.999456 89.272592 
L 381.201813 90.86616 
L 381.40417 93.926227 
L 381.606528 101.569959 
L 382.011242 133.815385 
L 383.023028 226.252317 
L 383.225385 232.984172 
L 383.427743 232.266168 
L 383.6301 225.189408 
L 384.237171 179.791847 
L 384.237171 179.791847 
" clip-path="url(#pbc9a620b55)" style="fill: none; stroke: #ff7f0e; stroke-width: 1.5; stroke-linecap: square"/>
   </g>
   <g id="line2d_15">
    <path d="M 384.439529 167.569175 
L 385.0466 133.289655 
L 385.451315 119.465067 
L 385.653672 115.380305 
L 385.856029 114.451779 
L 386.058386 118.58963 
L 386.260743 128.020718 
L 387.879601 241.576844 
L 388.081958 246.2949 
L 388.284316 243.962048 
L 388.891387 217.625921 
L 389.296102 195.832981 
L 390.10553 146.382415 
L 390.510245 134.127914 
L 390.712602 132.383661 
L 390.914959 135.128698 
L 391.319674 158.23538 
L 392.736174 248.931213 
L 392.938531 251.426727 
L 393.140888 248.06967 
L 393.545603 231.095506 
L 393.950317 211.194964 
L 394.759746 162.844292 
L 395.164461 146.847284 
L 395.366818 143.331888 
L 395.569175 143.229527 
L 395.973889 158.292513 
L 397.592747 251.086917 
L 397.795104 250.614895 
L 398.199819 241.305967 
L 398.80689 216.001762 
L 399.818676 163.90983 
L 400.223391 156.653468 
L 400.425748 158.388226 
L 400.830462 173.751833 
L 402.246963 247.645587 
L 402.44932 250.677219 
L 402.651677 249.225437 
L 403.056392 240.092442 
L 403.663463 216.794093 
L 404.472892 176.457806 
L 404.877607 166.209237 
L 405.079964 164.868899 
L 405.282321 167.858818 
L 405.889393 190.928752 
L 407.103536 245.710394 
L 407.305893 246.610758 
L 407.710607 241.238554 
L 408.115322 228.157436 
L 408.722393 204.215597 
L 409.329465 179.167001 
L 409.73418 172.321254 
L 409.936537 172.877553 
L 410.341251 183.275628 
L 411.15068 215.30693 
L 411.555394 232.747583 
L 411.757752 238.682493 
L 411.960109 241.125635 
L 412.162466 241.02215 
L 412.364823 239.790958 
L 412.56718 236.301626 
L 413.578966 202.545593 
L 414.186038 181.801684 
L 414.388395 179.315613 
L 414.590752 178.34148 
L 414.79311 180.325042 
L 415.400181 197.558296 
L 416.614325 235.248375 
L 416.816682 236.233639 
L 417.019039 236.071414 
L 417.221396 234.288709 
L 417.626111 223.996681 
L 419.042611 185.716097 
L 419.244968 184.753711 
L 419.447325 185.621148 
L 419.649683 188.747912 
L 421.470898 231.825903 
L 421.673255 231.890698 
L 421.875612 230.942522 
L 422.280326 223.497647 
L 423.696827 192.028292 
L 423.899184 190.853975 
L 424.101541 191.171959 
L 424.303898 193.263025 
L 426.125113 226.993863 
L 426.327471 227.785272 
L 426.529828 226.790633 
L 426.732185 225.004525 
L 427.743971 209.048942 
L 428.148685 200.882794 
L 428.5534 196.350048 
L 428.755757 196.596023 
L 428.958114 198.151726 
L 429.9699 213.399547 
L 430.779329 222.536448 
L 430.981686 223.344261 
L 431.184044 222.910442 
L 431.588758 219.205741 
L 433.005258 202.597787 
L 433.207616 201.401275 
L 433.409973 201.572145 
L 433.61233 203.10881 
L 434.624116 213.967458 
L 435.231188 219.218602 
L 435.433545 219.61191 
L 435.635902 219.417465 
L 435.838259 219.000902 
L 436.850045 212.348213 
L 437.25476 209.587529 
L 437.659474 206.498913 
L 437.861831 205.994835 
L 438.064189 206.524422 
L 439.278332 214.889439 
L 439.885403 217.565153 
L 440.087761 217.479905 
L 440.492475 216.135633 
L 440.897189 214.978885 
L 442.31369 210.142572 
L 442.516047 210.330632 
L 442.718404 210.969508 
L 443.325476 214.197787 
L 444.337262 216.830521 
L 444.539619 216.68935 
L 445.551405 215.085857 
L 446.360834 214.370489 
L 446.765549 213.790231 
L 446.967906 213.725712 
L 447.37262 214.95401 
L 447.574977 215.527736 
L 448.789121 216.773296 
L 448.991478 216.65221 
L 449.800907 215.717985 
L 450.003264 215.58304 
L 450.812693 215.725536 
L 451.01505 215.697658 
L 451.419764 215.541741 
L 452.229193 216.468347 
L 452.836265 216.444408 
L 453.240979 216.688422 
L 454.050408 216.188744 
L 454.455122 215.993785 
L 456.883409 216.60186 
L 457.288123 216.545003 
L 457.692838 216.62374 
L 458.906981 216.227618 
L 461.13291 216.609258 
L 463.763554 216.430454 
L 464.77534 216.540529 
L 465.584769 216.570796 
L 468.013055 216.4488 
L 469.631913 216.569648 
L 472.869628 216.514253 
L 474.083772 216.547832 
L 481.975703 216.528596 
L 514.150499 216.515851 
L 518.4 216.516923 
L 518.4 216.516923 
" clip-path="url(#pbc9a620b55)" style="fill: none; stroke: #2ca02c; stroke-width: 1.5; stroke-linecap: square"/>
   </g>
   <g id="patch_3">
    <path d="M 72 320.4 
L 72 43.2 
" style="fill: none; stroke: #000000; stroke-width: 0.8; stroke-linejoin: miter; stroke-linecap: square"/>
   </g>
   <g id="patch_4">
    <path d="M 518.4 320.4 
L 518.4 43.2 
" style="fill: none; stroke: #000000; stroke-width: 0.8; stroke-linejoin: miter; stroke-linecap: square"/>
   </g>
   <g id="patch_5">
    <path d="M 72 320.4 
L 518.4 320.4 
" style="fill: none; stroke: #000000; stroke-width: 0.8; stroke-linejoin: miter; stroke-linecap: square"/>
   </g>
   <g id="patch_6">
    <path d="M 72 43.2 
L 518.4 43.2 
" style="fill: none; stroke: #000000; stroke-width: 0.8; stroke-linejoin: miter; stroke-linecap: square"/>
   </g>
   <g id="text_13">
    <!-- Classic Transformer - model_20231123170325 -->
    <g transform="translate(155.436563 37.2) scale(0.12 -0.12)">
     <defs>
      <path id="DejaVuSans-43" d="M 4122 4306 
L 4122 3641 
Q 3803 3938 3442 4084 
Q 3081 4231 2675 4231 
Q 1875 4231 1450 3742 
Q 1025 3253 1025 2328 
Q 1025 1406 1450 917 
Q 1875 428 2675 428 
Q 3081 428 3442 575 
Q 3803 722 4122 1019 
L 4122 359 
Q 3791 134 3420 21 
Q 3050 -91 2638 -91 
Q 1578 -91 968 557 
Q 359 1206 359 2328 
Q 359 3453 968 4101 
Q 1578 4750 2638 4750 
Q 3056 4750 3426 4639 
Q 3797 4528 4122 4306 
z
" transform="scale(0.015625)"/>
      <path id="DejaVuSans-6c" d="M 603 4863 
L 1178 4863 
L 1178 0 
L 603 0 
L 603 4863 
z
" transform="scale(0.015625)"/>
      <path id="DejaVuSans-61" d="M 2194 1759 
Q 1497 1759 1228 1600 
Q 959 1441 959 1056 
Q 959 750 1161 570 
Q 1363 391 1709 391 
Q 2188 391 2477 730 
Q 2766 1069 2766 1631 
L 2766 1759 
L 2194 1759 
z
M 3341 1997 
L 3341 0 
L 2766 0 
L 2766 531 
Q 2569 213 2275 61 
Q 1981 -91 1556 -91 
Q 1019 -91 701 211 
Q 384 513 384 1019 
Q 384 1609 779 1909 
Q 1175 2209 1959 2209 
L 2766 2209 
L 2766 2266 
Q 2766 2663 2505 2880 
Q 2244 3097 1772 3097 
Q 1472 3097 1187 3025 
Q 903 2953 641 2809 
L 641 3341 
Q 956 3463 1253 3523 
Q 1550 3584 1831 3584 
Q 2591 3584 2966 3190 
Q 3341 2797 3341 1997 
z
" transform="scale(0.015625)"/>
      <path id="DejaVuSans-73" d="M 2834 3397 
L 2834 2853 
Q 2591 2978 2328 3040 
Q 2066 3103 1784 3103 
Q 1356 3103 1142 2972 
Q 928 2841 928 2578 
Q 928 2378 1081 2264 
Q 1234 2150 1697 2047 
L 1894 2003 
Q 2506 1872 2764 1633 
Q 3022 1394 3022 966 
Q 3022 478 2636 193 
Q 2250 -91 1575 -91 
Q 1294 -91 989 -36 
Q 684 19 347 128 
L 347 722 
Q 666 556 975 473 
Q 1284 391 1588 391 
Q 1994 391 2212 530 
Q 2431 669 2431 922 
Q 2431 1156 2273 1281 
Q 2116 1406 1581 1522 
L 1381 1569 
Q 847 1681 609 1914 
Q 372 2147 372 2553 
Q 372 3047 722 3315 
Q 1072 3584 1716 3584 
Q 2034 3584 2315 3537 
Q 2597 3491 2834 3397 
z
" transform="scale(0.015625)"/>
      <path id="DejaVuSans-69" d="M 603 3500 
L 1178 3500 
L 1178 0 
L 603 0 
L 603 3500 
z
M 603 4863 
L 1178 4863 
L 1178 4134 
L 603 4134 
L 603 4863 
z
" transform="scale(0.015625)"/>
      <path id="DejaVuSans-63" d="M 3122 3366 
L 3122 2828 
Q 2878 2963 2633 3030 
Q 2388 3097 2138 3097 
Q 1578 3097 1268 2742 
Q 959 2388 959 1747 
Q 959 1106 1268 751 
Q 1578 397 2138 397 
Q 2388 397 2633 464 
Q 2878 531 3122 666 
L 3122 134 
Q 2881 22 2623 -34 
Q 2366 -91 2075 -91 
Q 1284 -91 818 406 
Q 353 903 353 1747 
Q 353 2603 823 3093 
Q 1294 3584 2113 3584 
Q 2378 3584 2631 3529 
Q 2884 3475 3122 3366 
z
" transform="scale(0.015625)"/>
      <path id="DejaVuSans-20" transform="scale(0.015625)"/>
      <path id="DejaVuSans-54" d="M -19 4666 
L 3928 4666 
L 3928 4134 
L 2272 4134 
L 2272 0 
L 1638 0 
L 1638 4134 
L -19 4134 
L -19 4666 
z
" transform="scale(0.015625)"/>
      <path id="DejaVuSans-72" d="M 2631 2963 
Q 2534 3019 2420 3045 
Q 2306 3072 2169 3072 
Q 1681 3072 1420 2755 
Q 1159 2438 1159 1844 
L 1159 0 
L 581 0 
L 581 3500 
L 1159 3500 
L 1159 2956 
Q 1341 3275 1631 3429 
Q 1922 3584 2338 3584 
Q 2397 3584 2469 3576 
Q 2541 3569 2628 3553 
L 2631 2963 
z
" transform="scale(0.015625)"/>
      <path id="DejaVuSans-6e" d="M 3513 2113 
L 3513 0 
L 2938 0 
L 2938 2094 
Q 2938 2591 2744 2837 
Q 2550 3084 2163 3084 
Q 1697 3084 1428 2787 
Q 1159 2491 1159 1978 
L 1159 0 
L 581 0 
L 581 3500 
L 1159 3500 
L 1159 2956 
Q 1366 3272 1645 3428 
Q 1925 3584 2291 3584 
Q 2894 3584 3203 3211 
Q 3513 2838 3513 2113 
z
" transform="scale(0.015625)"/>
      <path id="DejaVuSans-66" d="M 2375 4863 
L 2375 4384 
L 1825 4384 
Q 1516 4384 1395 4259 
Q 1275 4134 1275 3809 
L 1275 3500 
L 2222 3500 
L 2222 3053 
L 1275 3053 
L 1275 0 
L 697 0 
L 697 3053 
L 147 3053 
L 147 3500 
L 697 3500 
L 697 3744 
Q 697 4328 969 4595 
Q 1241 4863 1831 4863 
L 2375 4863 
z
" transform="scale(0.015625)"/>
      <path id="DejaVuSans-6f" d="M 1959 3097 
Q 1497 3097 1228 2736 
Q 959 2375 959 1747 
Q 959 1119 1226 758 
Q 1494 397 1959 397 
Q 2419 397 2687 759 
Q 2956 1122 2956 1747 
Q 2956 2369 2687 2733 
Q 2419 3097 1959 3097 
z
M 1959 3584 
Q 2709 3584 3137 3096 
Q 3566 2609 3566 1747 
Q 3566 888 3137 398 
Q 2709 -91 1959 -91 
Q 1206 -91 779 398 
Q 353 888 353 1747 
Q 353 2609 779 3096 
Q 1206 3584 1959 3584 
z
" transform="scale(0.015625)"/>
      <path id="DejaVuSans-6d" d="M 3328 2828 
Q 3544 3216 3844 3400 
Q 4144 3584 4550 3584 
Q 5097 3584 5394 3201 
Q 5691 2819 5691 2113 
L 5691 0 
L 5113 0 
L 5113 2094 
Q 5113 2597 4934 2840 
Q 4756 3084 4391 3084 
Q 3944 3084 3684 2787 
Q 3425 2491 3425 1978 
L 3425 0 
L 2847 0 
L 2847 2094 
Q 2847 2600 2669 2842 
Q 2491 3084 2119 3084 
Q 1678 3084 1418 2786 
Q 1159 2488 1159 1978 
L 1159 0 
L 581 0 
L 581 3500 
L 1159 3500 
L 1159 2956 
Q 1356 3278 1631 3431 
Q 1906 3584 2284 3584 
Q 2666 3584 2933 3390 
Q 3200 3197 3328 2828 
z
" transform="scale(0.015625)"/>
      <path id="DejaVuSans-65" d="M 3597 1894 
L 3597 1613 
L 953 1613 
Q 991 1019 1311 708 
Q 1631 397 2203 397 
Q 2534 397 2845 478 
Q 3156 559 3463 722 
L 3463 178 
Q 3153 47 2828 -22 
Q 2503 -91 2169 -91 
Q 1331 -91 842 396 
Q 353 884 353 1716 
Q 353 2575 817 3079 
Q 1281 3584 2069 3584 
Q 2775 3584 3186 3129 
Q 3597 2675 3597 1894 
z
M 3022 2063 
Q 3016 2534 2758 2815 
Q 2500 3097 2075 3097 
Q 1594 3097 1305 2825 
Q 1016 2553 972 2059 
L 3022 2063 
z
" transform="scale(0.015625)"/>
      <path id="DejaVuSans-64" d="M 2906 2969 
L 2906 4863 
L 3481 4863 
L 3481 0 
L 2906 0 
L 2906 525 
Q 2725 213 2448 61 
Q 2172 -91 1784 -91 
Q 1150 -91 751 415 
Q 353 922 353 1747 
Q 353 2572 751 3078 
Q 1150 3584 1784 3584 
Q 2172 3584 2448 3432 
Q 2725 3281 2906 2969 
z
M 947 1747 
Q 947 1113 1208 752 
Q 1469 391 1925 391 
Q 2381 391 2643 752 
Q 2906 1113 2906 1747 
Q 2906 2381 2643 2742 
Q 2381 3103 1925 3103 
Q 1469 3103 1208 2742 
Q 947 2381 947 1747 
z
" transform="scale(0.015625)"/>
      <path id="DejaVuSans-5f" d="M 3263 -1063 
L 3263 -1509 
L -63 -1509 
L -63 -1063 
L 3263 -1063 
z
" transform="scale(0.015625)"/>
     </defs>
     <use xlink:href="#DejaVuSans-43"/>
     <use xlink:href="#DejaVuSans-6c" x="69.824219"/>
     <use xlink:href="#DejaVuSans-61" x="97.607422"/>
     <use xlink:href="#DejaVuSans-73" x="158.886719"/>
     <use xlink:href="#DejaVuSans-73" x="210.986328"/>
     <use xlink:href="#DejaVuSans-69" x="263.085938"/>
     <use xlink:href="#DejaVuSans-63" x="290.869141"/>
     <use xlink:href="#DejaVuSans-20" x="345.849609"/>
     <use xlink:href="#DejaVuSans-54" x="377.636719"/>
     <use xlink:href="#DejaVuSans-72" x="423.970703"/>
     <use xlink:href="#DejaVuSans-61" x="465.083984"/>
     <use xlink:href="#DejaVuSans-6e" x="526.363281"/>
     <use xlink:href="#DejaVuSans-73" x="589.742188"/>
     <use xlink:href="#DejaVuSans-66" x="641.841797"/>
     <use xlink:href="#DejaVuSans-6f" x="677.046875"/>
     <use xlink:href="#DejaVuSans-72" x="738.228516"/>
     <use xlink:href="#DejaVuSans-6d" x="777.591797"/>
     <use xlink:href="#DejaVuSans-65" x="875.003906"/>
     <use xlink:href="#DejaVuSans-72" x="936.527344"/>
     <use xlink:href="#DejaVuSans-20" x="977.640625"/>
     <use xlink:href="#DejaVuSans-2d" x="1009.427734"/>
     <use xlink:href="#DejaVuSans-20" x="1045.511719"/>
     <use xlink:href="#DejaVuSans-6d" x="1077.298828"/>
     <use xlink:href="#DejaVuSans-6f" x="1174.710938"/>
     <use xlink:href="#DejaVuSans-64" x="1235.892578"/>
     <use xlink:href="#DejaVuSans-65" x="1299.369141"/>
     <use xlink:href="#DejaVuSans-6c" x="1360.892578"/>
     <use xlink:href="#DejaVuSans-5f" x="1388.675781"/>
     <use xlink:href="#DejaVuSans-32" x="1438.675781"/>
     <use xlink:href="#DejaVuSans-30" x="1502.298828"/>
     <use xlink:href="#DejaVuSans-32" x="1565.921875"/>
     <use xlink:href="#DejaVuSans-33" x="1629.544922"/>
     <use xlink:href="#DejaVuSans-31" x="1693.167969"/>
     <use xlink:href="#DejaVuSans-31" x="1756.791016"/>
     <use xlink:href="#DejaVuSans-32" x="1820.414062"/>
     <use xlink:href="#DejaVuSans-33" x="1884.037109"/>
     <use xlink:href="#DejaVuSans-31" x="1947.660156"/>
     <use xlink:href="#DejaVuSans-37" x="2011.283203"/>
     <use xlink:href="#DejaVuSans-30" x="2074.90625"/>
     <use xlink:href="#DejaVuSans-33" x="2138.529297"/>
     <use xlink:href="#DejaVuSans-32" x="2202.152344"/>
     <use xlink:href="#DejaVuSans-35" x="2265.775391"/>
    </g>
   </g>
   <g id="legend_1">
    <g id="patch_7">
     <path d="M 79 95.234375 
L 161.517188 95.234375 
Q 163.517188 95.234375 163.517188 93.234375 
L 163.517188 50.2 
Q 163.517188 48.2 161.517188 48.2 
L 79 48.2 
Q 77 48.2 77 50.2 
L 77 93.234375 
Q 77 95.234375 79 95.234375 
z
" style="fill: #ffffff; opacity: 0.8; stroke: #cccccc; stroke-linejoin: miter"/>
    </g>
    <g id="line2d_16">
     <path d="M 81 56.298437 
L 91 56.298437 
L 101 56.298437 
" style="fill: none; stroke: #1f77b4; stroke-width: 1.5; stroke-linecap: square"/>
    </g>
    <g id="text_14">
     <!-- Measured -->
     <g transform="translate(109 59.798437) scale(0.1 -0.1)">
      <defs>
       <path id="DejaVuSans-4d" d="M 628 4666 
L 1569 4666 
L 2759 1491 
L 3956 4666 
L 4897 4666 
L 4897 0 
L 4281 0 
L 4281 4097 
L 3078 897 
L 2444 897 
L 1241 4097 
L 1241 0 
L 628 0 
L 628 4666 
z
" transform="scale(0.015625)"/>
       <path id="DejaVuSans-75" d="M 544 1381 
L 544 3500 
L 1119 3500 
L 1119 1403 
Q 1119 906 1312 657 
Q 1506 409 1894 409 
Q 2359 409 2629 706 
Q 2900 1003 2900 1516 
L 2900 3500 
L 3475 3500 
L 3475 0 
L 2900 0 
L 2900 538 
Q 2691 219 2414 64 
Q 2138 -91 1772 -91 
Q 1169 -91 856 284 
Q 544 659 544 1381 
z
M 1991 3584 
L 1991 3584 
z
" transform="scale(0.015625)"/>
      </defs>
      <use xlink:href="#DejaVuSans-4d"/>
      <use xlink:href="#DejaVuSans-65" x="86.279297"/>
      <use xlink:href="#DejaVuSans-61" x="147.802734"/>
      <use xlink:href="#DejaVuSans-73" x="209.082031"/>
      <use xlink:href="#DejaVuSans-75" x="261.181641"/>
      <use xlink:href="#DejaVuSans-72" x="324.560547"/>
      <use xlink:href="#DejaVuSans-65" x="363.423828"/>
      <use xlink:href="#DejaVuSans-64" x="424.947266"/>
     </g>
    </g>
    <g id="line2d_17">
     <path d="M 81 70.976562 
L 91 70.976562 
L 101 70.976562 
" style="fill: none; stroke: #ff7f0e; stroke-width: 1.5; stroke-linecap: square"/>
    </g>
    <g id="text_15">
     <!-- Fitted -->
     <g transform="translate(109 74.476562) scale(0.1 -0.1)">
      <defs>
       <path id="DejaVuSans-46" d="M 628 4666 
L 3309 4666 
L 3309 4134 
L 1259 4134 
L 1259 2759 
L 3109 2759 
L 3109 2228 
L 1259 2228 
L 1259 0 
L 628 0 
L 628 4666 
z
" transform="scale(0.015625)"/>
       <path id="DejaVuSans-74" d="M 1172 4494 
L 1172 3500 
L 2356 3500 
L 2356 3053 
L 1172 3053 
L 1172 1153 
Q 1172 725 1289 603 
Q 1406 481 1766 481 
L 2356 481 
L 2356 0 
L 1766 0 
Q 1100 0 847 248 
Q 594 497 594 1153 
L 594 3053 
L 172 3053 
L 172 3500 
L 594 3500 
L 594 4494 
L 1172 4494 
z
" transform="scale(0.015625)"/>
      </defs>
      <use xlink:href="#DejaVuSans-46"/>
      <use xlink:href="#DejaVuSans-69" x="50.269531"/>
      <use xlink:href="#DejaVuSans-74" x="78.052734"/>
      <use xlink:href="#DejaVuSans-74" x="117.261719"/>
      <use xlink:href="#DejaVuSans-65" x="156.470703"/>
      <use xlink:href="#DejaVuSans-64" x="217.994141"/>
     </g>
    </g>
    <g id="line2d_18">
     <path d="M 81 85.654687 
L 91 85.654687 
L 101 85.654687 
" style="fill: none; stroke: #2ca02c; stroke-width: 1.5; stroke-linecap: square"/>
    </g>
    <g id="text_16">
     <!-- Estimated -->
     <g transform="translate(109 89.154687) scale(0.1 -0.1)">
      <defs>
       <path id="DejaVuSans-45" d="M 628 4666 
L 3578 4666 
L 3578 4134 
L 1259 4134 
L 1259 2753 
L 3481 2753 
L 3481 2222 
L 1259 2222 
L 1259 531 
L 3634 531 
L 3634 0 
L 628 0 
L 628 4666 
z
" transform="scale(0.015625)"/>
      </defs>
      <use xlink:href="#DejaVuSans-45"/>
      <use xlink:href="#DejaVuSans-73" x="63.183594"/>
      <use xlink:href="#DejaVuSans-74" x="115.283203"/>
      <use xlink:href="#DejaVuSans-69" x="154.492188"/>
      <use xlink:href="#DejaVuSans-6d" x="182.275391"/>
      <use xlink:href="#DejaVuSans-61" x="279.6875"/>
      <use xlink:href="#DejaVuSans-74" x="340.966797"/>
      <use xlink:href="#DejaVuSans-65" x="380.175781"/>
      <use xlink:href="#DejaVuSans-64" x="441.699219"/>
     </g>
    </g>
   </g>
  </g>
 </g>
 <defs>
  <clipPath id="pbc9a620b55">
   <rect x="72" y="43.2" width="446.4" height="277.2"/>
  </clipPath>
 </defs>
</svg>
