<?xml version="1.0" encoding="utf-8" standalone="no"?>
<!DOCTYPE svg PUBLIC "-//W3C//DTD SVG 1.1//EN"
  "http://www.w3.org/Graphics/SVG/1.1/DTD/svg11.dtd">
<svg xmlns:xlink="http://www.w3.org/1999/xlink" width="576pt" height="360pt" viewBox="0 0 576 360" xmlns="http://www.w3.org/2000/svg" version="1.1">
 <metadata>
  <rdf:RDF xmlns:dc="http://purl.org/dc/elements/1.1/" xmlns:cc="http://creativecommons.org/ns#" xmlns:rdf="http://www.w3.org/1999/02/22-rdf-syntax-ns#">
   <cc:Work>
    <dc:type rdf:resource="http://purl.org/dc/dcmitype/StillImage"/>
    <dc:date>2023-11-26T15:49:55.324373</dc:date>
    <dc:format>image/svg+xml</dc:format>
    <dc:creator>
     <cc:Agent>
      <dc:title>Matplotlib v3.8.1, https://matplotlib.org/</dc:title>
     </cc:Agent>
    </dc:creator>
   </cc:Work>
  </rdf:RDF>
 </metadata>
 <defs>
  <style type="text/css">*{stroke-linejoin: round; stroke-linecap: butt}</style>
 </defs>
 <g id="figure_1">
  <g id="patch_1">
   <path d="M 0 360 
L 576 360 
L 576 0 
L 0 0 
z
" style="fill: #ffffff"/>
  </g>
  <g id="axes_1">
   <g id="patch_2">
    <path d="M 72 320.4 
L 518.4 320.4 
L 518.4 43.2 
L 72 43.2 
z
" style="fill: #ffffff"/>
   </g>
   <g id="matplotlib.axis_1">
    <g id="xtick_1">
     <g id="line2d_1">
      <defs>
       <path id="m339a4e06df" d="M 0 0 
L 0 3.5 
" style="stroke: #000000; stroke-width: 0.8"/>
      </defs>
      <g>
       <use xlink:href="#m339a4e06df" x="129.874161" y="320.4" style="stroke: #000000; stroke-width: 0.8"/>
      </g>
     </g>
     <g id="text_1">
      <!-- 2020-05-15 -->
      <g transform="translate(100.816349 334.998438) scale(0.1 -0.1)">
       <defs>
        <path id="DejaVuSans-32" d="M 1228 531 
L 3431 531 
L 3431 0 
L 469 0 
L 469 531 
Q 828 903 1448 1529 
Q 2069 2156 2228 2338 
Q 2531 2678 2651 2914 
Q 2772 3150 2772 3378 
Q 2772 3750 2511 3984 
Q 2250 4219 1831 4219 
Q 1534 4219 1204 4116 
Q 875 4013 500 3803 
L 500 4441 
Q 881 4594 1212 4672 
Q 1544 4750 1819 4750 
Q 2544 4750 2975 4387 
Q 3406 4025 3406 3419 
Q 3406 3131 3298 2873 
Q 3191 2616 2906 2266 
Q 2828 2175 2409 1742 
Q 1991 1309 1228 531 
z
" transform="scale(0.015625)"/>
        <path id="DejaVuSans-30" d="M 2034 4250 
Q 1547 4250 1301 3770 
Q 1056 3291 1056 2328 
Q 1056 1369 1301 889 
Q 1547 409 2034 409 
Q 2525 409 2770 889 
Q 3016 1369 3016 2328 
Q 3016 3291 2770 3770 
Q 2525 4250 2034 4250 
z
M 2034 4750 
Q 2819 4750 3233 4129 
Q 3647 3509 3647 2328 
Q 3647 1150 3233 529 
Q 2819 -91 2034 -91 
Q 1250 -91 836 529 
Q 422 1150 422 2328 
Q 422 3509 836 4129 
Q 1250 4750 2034 4750 
z
" transform="scale(0.015625)"/>
        <path id="DejaVuSans-2d" d="M 313 2009 
L 1997 2009 
L 1997 1497 
L 313 1497 
L 313 2009 
z
" transform="scale(0.015625)"/>
        <path id="DejaVuSans-35" d="M 691 4666 
L 3169 4666 
L 3169 4134 
L 1269 4134 
L 1269 2991 
Q 1406 3038 1543 3061 
Q 1681 3084 1819 3084 
Q 2600 3084 3056 2656 
Q 3513 2228 3513 1497 
Q 3513 744 3044 326 
Q 2575 -91 1722 -91 
Q 1428 -91 1123 -41 
Q 819 9 494 109 
L 494 744 
Q 775 591 1075 516 
Q 1375 441 1709 441 
Q 2250 441 2565 725 
Q 2881 1009 2881 1497 
Q 2881 1984 2565 2268 
Q 2250 2553 1709 2553 
Q 1456 2553 1204 2497 
Q 953 2441 691 2322 
L 691 4666 
z
" transform="scale(0.015625)"/>
        <path id="DejaVuSans-31" d="M 794 531 
L 1825 531 
L 1825 4091 
L 703 3866 
L 703 4441 
L 1819 4666 
L 2450 4666 
L 2450 531 
L 3481 531 
L 3481 0 
L 794 0 
L 794 531 
z
" transform="scale(0.015625)"/>
       </defs>
       <use xlink:href="#DejaVuSans-32"/>
       <use xlink:href="#DejaVuSans-30" x="63.623047"/>
       <use xlink:href="#DejaVuSans-32" x="127.246094"/>
       <use xlink:href="#DejaVuSans-30" x="190.869141"/>
       <use xlink:href="#DejaVuSans-2d" x="254.492188"/>
       <use xlink:href="#DejaVuSans-30" x="290.576172"/>
       <use xlink:href="#DejaVuSans-35" x="354.199219"/>
       <use xlink:href="#DejaVuSans-2d" x="417.822266"/>
       <use xlink:href="#DejaVuSans-31" x="453.90625"/>
       <use xlink:href="#DejaVuSans-35" x="517.529297"/>
      </g>
     </g>
    </g>
    <g id="xtick_2">
     <g id="line2d_2">
      <g>
       <use xlink:href="#m339a4e06df" x="212.435902" y="320.4" style="stroke: #000000; stroke-width: 0.8"/>
      </g>
     </g>
     <g id="text_2">
      <!-- 2020-06-01 -->
      <g transform="translate(183.37809 334.998438) scale(0.1 -0.1)">
       <defs>
        <path id="DejaVuSans-36" d="M 2113 2584 
Q 1688 2584 1439 2293 
Q 1191 2003 1191 1497 
Q 1191 994 1439 701 
Q 1688 409 2113 409 
Q 2538 409 2786 701 
Q 3034 994 3034 1497 
Q 3034 2003 2786 2293 
Q 2538 2584 2113 2584 
z
M 3366 4563 
L 3366 3988 
Q 3128 4100 2886 4159 
Q 2644 4219 2406 4219 
Q 1781 4219 1451 3797 
Q 1122 3375 1075 2522 
Q 1259 2794 1537 2939 
Q 1816 3084 2150 3084 
Q 2853 3084 3261 2657 
Q 3669 2231 3669 1497 
Q 3669 778 3244 343 
Q 2819 -91 2113 -91 
Q 1303 -91 875 529 
Q 447 1150 447 2328 
Q 447 3434 972 4092 
Q 1497 4750 2381 4750 
Q 2619 4750 2861 4703 
Q 3103 4656 3366 4563 
z
" transform="scale(0.015625)"/>
       </defs>
       <use xlink:href="#DejaVuSans-32"/>
       <use xlink:href="#DejaVuSans-30" x="63.623047"/>
       <use xlink:href="#DejaVuSans-32" x="127.246094"/>
       <use xlink:href="#DejaVuSans-30" x="190.869141"/>
       <use xlink:href="#DejaVuSans-2d" x="254.492188"/>
       <use xlink:href="#DejaVuSans-30" x="290.576172"/>
       <use xlink:href="#DejaVuSans-36" x="354.199219"/>
       <use xlink:href="#DejaVuSans-2d" x="417.822266"/>
       <use xlink:href="#DejaVuSans-30" x="453.90625"/>
       <use xlink:href="#DejaVuSans-31" x="517.529297"/>
      </g>
     </g>
    </g>
    <g id="xtick_3">
     <g id="line2d_3">
      <g>
       <use xlink:href="#m339a4e06df" x="280.427924" y="320.4" style="stroke: #000000; stroke-width: 0.8"/>
      </g>
     </g>
     <g id="text_3">
      <!-- 2020-06-15 -->
      <g transform="translate(251.370111 334.998438) scale(0.1 -0.1)">
       <use xlink:href="#DejaVuSans-32"/>
       <use xlink:href="#DejaVuSans-30" x="63.623047"/>
       <use xlink:href="#DejaVuSans-32" x="127.246094"/>
       <use xlink:href="#DejaVuSans-30" x="190.869141"/>
       <use xlink:href="#DejaVuSans-2d" x="254.492188"/>
       <use xlink:href="#DejaVuSans-30" x="290.576172"/>
       <use xlink:href="#DejaVuSans-36" x="354.199219"/>
       <use xlink:href="#DejaVuSans-2d" x="417.822266"/>
       <use xlink:href="#DejaVuSans-31" x="453.90625"/>
       <use xlink:href="#DejaVuSans-35" x="517.529297"/>
      </g>
     </g>
    </g>
    <g id="xtick_4">
     <g id="line2d_4">
      <g>
       <use xlink:href="#m339a4e06df" x="358.133092" y="320.4" style="stroke: #000000; stroke-width: 0.8"/>
      </g>
     </g>
     <g id="text_4">
      <!-- 2020-07-01 -->
      <g transform="translate(329.075279 334.998438) scale(0.1 -0.1)">
       <defs>
        <path id="DejaVuSans-37" d="M 525 4666 
L 3525 4666 
L 3525 4397 
L 1831 0 
L 1172 0 
L 2766 4134 
L 525 4134 
L 525 4666 
z
" transform="scale(0.015625)"/>
       </defs>
       <use xlink:href="#DejaVuSans-32"/>
       <use xlink:href="#DejaVuSans-30" x="63.623047"/>
       <use xlink:href="#DejaVuSans-32" x="127.246094"/>
       <use xlink:href="#DejaVuSans-30" x="190.869141"/>
       <use xlink:href="#DejaVuSans-2d" x="254.492188"/>
       <use xlink:href="#DejaVuSans-30" x="290.576172"/>
       <use xlink:href="#DejaVuSans-37" x="354.199219"/>
       <use xlink:href="#DejaVuSans-2d" x="417.822266"/>
       <use xlink:href="#DejaVuSans-30" x="453.90625"/>
       <use xlink:href="#DejaVuSans-31" x="517.529297"/>
      </g>
     </g>
    </g>
    <g id="xtick_5">
     <g id="line2d_5">
      <g>
       <use xlink:href="#m339a4e06df" x="426.125113" y="320.4" style="stroke: #000000; stroke-width: 0.8"/>
      </g>
     </g>
     <g id="text_5">
      <!-- 2020-07-15 -->
      <g transform="translate(397.067301 334.998438) scale(0.1 -0.1)">
       <use xlink:href="#DejaVuSans-32"/>
       <use xlink:href="#DejaVuSans-30" x="63.623047"/>
       <use xlink:href="#DejaVuSans-32" x="127.246094"/>
       <use xlink:href="#DejaVuSans-30" x="190.869141"/>
       <use xlink:href="#DejaVuSans-2d" x="254.492188"/>
       <use xlink:href="#DejaVuSans-30" x="290.576172"/>
       <use xlink:href="#DejaVuSans-37" x="354.199219"/>
       <use xlink:href="#DejaVuSans-2d" x="417.822266"/>
       <use xlink:href="#DejaVuSans-31" x="453.90625"/>
       <use xlink:href="#DejaVuSans-35" x="517.529297"/>
      </g>
     </g>
    </g>
    <g id="xtick_6">
     <g id="line2d_6">
      <g>
       <use xlink:href="#m339a4e06df" x="508.686854" y="320.4" style="stroke: #000000; stroke-width: 0.8"/>
      </g>
     </g>
     <g id="text_6">
      <!-- 2020-08-01 -->
      <g transform="translate(479.629042 334.998438) scale(0.1 -0.1)">
       <defs>
        <path id="DejaVuSans-38" d="M 2034 2216 
Q 1584 2216 1326 1975 
Q 1069 1734 1069 1313 
Q 1069 891 1326 650 
Q 1584 409 2034 409 
Q 2484 409 2743 651 
Q 3003 894 3003 1313 
Q 3003 1734 2745 1975 
Q 2488 2216 2034 2216 
z
M 1403 2484 
Q 997 2584 770 2862 
Q 544 3141 544 3541 
Q 544 4100 942 4425 
Q 1341 4750 2034 4750 
Q 2731 4750 3128 4425 
Q 3525 4100 3525 3541 
Q 3525 3141 3298 2862 
Q 3072 2584 2669 2484 
Q 3125 2378 3379 2068 
Q 3634 1759 3634 1313 
Q 3634 634 3220 271 
Q 2806 -91 2034 -91 
Q 1263 -91 848 271 
Q 434 634 434 1313 
Q 434 1759 690 2068 
Q 947 2378 1403 2484 
z
M 1172 3481 
Q 1172 3119 1398 2916 
Q 1625 2713 2034 2713 
Q 2441 2713 2670 2916 
Q 2900 3119 2900 3481 
Q 2900 3844 2670 4047 
Q 2441 4250 2034 4250 
Q 1625 4250 1398 4047 
Q 1172 3844 1172 3481 
z
" transform="scale(0.015625)"/>
       </defs>
       <use xlink:href="#DejaVuSans-32"/>
       <use xlink:href="#DejaVuSans-30" x="63.623047"/>
       <use xlink:href="#DejaVuSans-32" x="127.246094"/>
       <use xlink:href="#DejaVuSans-30" x="190.869141"/>
       <use xlink:href="#DejaVuSans-2d" x="254.492188"/>
       <use xlink:href="#DejaVuSans-30" x="290.576172"/>
       <use xlink:href="#DejaVuSans-38" x="354.199219"/>
       <use xlink:href="#DejaVuSans-2d" x="417.822266"/>
       <use xlink:href="#DejaVuSans-30" x="453.90625"/>
       <use xlink:href="#DejaVuSans-31" x="517.529297"/>
      </g>
     </g>
    </g>
   </g>
   <g id="matplotlib.axis_2">
    <g id="ytick_1">
     <g id="line2d_7">
      <defs>
       <path id="mb0d8ea5ab4" d="M 0 0 
L -3.5 0 
" style="stroke: #000000; stroke-width: 0.8"/>
      </defs>
      <g>
       <use xlink:href="#mb0d8ea5ab4" x="72" y="316.02311" style="stroke: #000000; stroke-width: 0.8"/>
      </g>
     </g>
     <g id="text_7">
      <!-- −2 -->
      <g transform="translate(50.257812 319.822329) scale(0.1 -0.1)">
       <defs>
        <path id="DejaVuSans-2212" d="M 678 2272 
L 4684 2272 
L 4684 1741 
L 678 1741 
L 678 2272 
z
" transform="scale(0.015625)"/>
       </defs>
       <use xlink:href="#DejaVuSans-2212"/>
       <use xlink:href="#DejaVuSans-32" x="83.789062"/>
      </g>
     </g>
    </g>
    <g id="ytick_2">
     <g id="line2d_8">
      <g>
       <use xlink:href="#mb0d8ea5ab4" x="72" y="262.270962" style="stroke: #000000; stroke-width: 0.8"/>
      </g>
     </g>
     <g id="text_8">
      <!-- −1 -->
      <g transform="translate(50.257812 266.070181) scale(0.1 -0.1)">
       <use xlink:href="#DejaVuSans-2212"/>
       <use xlink:href="#DejaVuSans-31" x="83.789062"/>
      </g>
     </g>
    </g>
    <g id="ytick_3">
     <g id="line2d_9">
      <g>
       <use xlink:href="#mb0d8ea5ab4" x="72" y="208.518814" style="stroke: #000000; stroke-width: 0.8"/>
      </g>
     </g>
     <g id="text_9">
      <!-- 0 -->
      <g transform="translate(58.6375 212.318032) scale(0.1 -0.1)">
       <use xlink:href="#DejaVuSans-30"/>
      </g>
     </g>
    </g>
    <g id="ytick_4">
     <g id="line2d_10">
      <g>
       <use xlink:href="#mb0d8ea5ab4" x="72" y="154.766666" style="stroke: #000000; stroke-width: 0.8"/>
      </g>
     </g>
     <g id="text_10">
      <!-- 1 -->
      <g transform="translate(58.6375 158.565884) scale(0.1 -0.1)">
       <use xlink:href="#DejaVuSans-31"/>
      </g>
     </g>
    </g>
    <g id="ytick_5">
     <g id="line2d_11">
      <g>
       <use xlink:href="#mb0d8ea5ab4" x="72" y="101.014518" style="stroke: #000000; stroke-width: 0.8"/>
      </g>
     </g>
     <g id="text_11">
      <!-- 2 -->
      <g transform="translate(58.6375 104.813736) scale(0.1 -0.1)">
       <use xlink:href="#DejaVuSans-32"/>
      </g>
     </g>
    </g>
    <g id="ytick_6">
     <g id="line2d_12">
      <g>
       <use xlink:href="#mb0d8ea5ab4" x="72" y="47.262369" style="stroke: #000000; stroke-width: 0.8"/>
      </g>
     </g>
     <g id="text_12">
      <!-- 3 -->
      <g transform="translate(58.6375 51.061588) scale(0.1 -0.1)">
       <defs>
        <path id="DejaVuSans-33" d="M 2597 2516 
Q 3050 2419 3304 2112 
Q 3559 1806 3559 1356 
Q 3559 666 3084 287 
Q 2609 -91 1734 -91 
Q 1441 -91 1130 -33 
Q 819 25 488 141 
L 488 750 
Q 750 597 1062 519 
Q 1375 441 1716 441 
Q 2309 441 2620 675 
Q 2931 909 2931 1356 
Q 2931 1769 2642 2001 
Q 2353 2234 1838 2234 
L 1294 2234 
L 1294 2753 
L 1863 2753 
Q 2328 2753 2575 2939 
Q 2822 3125 2822 3475 
Q 2822 3834 2567 4026 
Q 2313 4219 1838 4219 
Q 1578 4219 1281 4162 
Q 984 4106 628 3988 
L 628 4550 
Q 988 4650 1302 4700 
Q 1616 4750 1894 4750 
Q 2613 4750 3031 4423 
Q 3450 4097 3450 3541 
Q 3450 3153 3228 2886 
Q 3006 2619 2597 2516 
z
" transform="scale(0.015625)"/>
       </defs>
       <use xlink:href="#DejaVuSans-33"/>
      </g>
     </g>
    </g>
   </g>
   <g id="line2d_13">
    <path d="M 72 287.021497 
L 72.404714 298.412757 
L 72.607072 296.682973 
L 72.809429 285.96675 
L 73.214143 254.915018 
L 73.618858 242.426821 
L 75.035358 159.101858 
L 75.237715 156.127474 
L 75.440073 161.211351 
L 75.64243 169.459468 
L 75.844787 172.771371 
L 76.047144 188.086288 
L 76.654216 258.669915 
L 77.05893 282.844701 
L 77.261287 287.232446 
L 77.463645 286.852737 
L 77.666002 276.094324 
L 78.070716 247.468508 
L 78.475431 234.938122 
L 78.677788 225.761828 
L 79.487217 168.510196 
L 79.891931 152.161627 
L 80.094288 154.123456 
L 80.903717 196.735208 
L 81.713146 272.423807 
L 82.11786 287.148066 
L 82.320218 289.194274 
L 82.522575 288.898945 
L 82.724932 286.367554 
L 82.927289 279.511703 
L 83.332004 256.412757 
L 83.736718 242.026017 
L 83.939075 238.967253 
L 84.141432 239.241487 
L 84.546147 245.675439 
L 84.748504 247.784932 
L 84.950861 247.806027 
L 85.355576 252.025013 
L 85.557933 248.670919 
L 85.76029 254.830638 
L 86.569719 300.015972 
L 86.772076 306.133501 
L 86.974433 307.736715 
L 87.176791 307.8 
L 87.379148 306.449925 
L 87.581505 302.695028 
L 87.783862 295.902461 
L 88.188577 273.731693 
L 88.390934 268.521246 
L 89.200363 260.399699 
L 89.40272 256.243998 
L 89.807434 241.372074 
L 90.212149 238.903968 
L 90.414506 236.182722 
L 90.616863 244.1777 
L 91.223935 295.037569 
L 91.628649 306.133501 
L 91.831006 306.196786 
L 92.033364 303.686489 
L 92.842792 257.277649 
L 93.04515 255.125967 
L 93.449864 246.477047 
L 93.652221 245.949674 
L 93.854578 242.996384 
L 94.056936 242.363536 
L 94.259293 239.72667 
L 94.46165 233.292717 
L 94.664007 230.423807 
L 94.866364 231.351984 
L 95.068722 234.516223 
L 95.271079 230.655851 
L 95.473436 240.823606 
L 96.080508 295.417278 
L 96.485222 304.677951 
L 96.687579 306.597589 
L 96.889937 302.230939 
L 97.699365 256.539327 
L 98.306437 245.970768 
L 98.508794 245.59106 
L 99.52058 224.242993 
L 99.722937 225.508689 
L 99.925295 229.896434 
L 100.127652 228.061175 
L 100.330009 238.27112 
L 100.937081 292.928076 
L 101.341795 305.268609 
L 101.544152 306.26007 
L 101.74651 302.526268 
L 101.948867 290.50216 
L 102.353581 260.294224 
L 102.555938 258.733199 
L 103.567724 240.844701 
L 104.377153 218.610648 
L 104.57951 219.897438 
L 104.781868 225.318835 
L 104.984225 225.29774 
L 105.186582 234.241989 
L 105.793654 289.763837 
L 106.198368 302.589553 
L 106.400725 304.361527 
L 106.603083 300.311301 
L 107.412511 254.11341 
L 107.614869 252.383626 
L 107.817226 248.692014 
L 108.22194 234.07323 
L 108.626655 212.23998 
L 108.829012 206.270116 
L 109.031369 204.371572 
L 109.638441 213.104872 
L 109.840798 218.568458 
L 110.043155 229.031542 
L 110.650227 284.405726 
L 111.054941 298.750276 
L 111.257298 300.669915 
L 111.459655 298.919036 
L 111.662013 287.443395 
L 112.066727 258.015972 
L 112.471442 242.933099 
L 113.887942 174.121447 
L 114.090299 171.73772 
L 114.292656 178.593571 
L 114.495014 190.090306 
L 114.697371 194.710095 
L 115.102085 228.926067 
L 115.709157 278.583526 
L 116.113871 292.611652 
L 116.316228 292.780412 
L 116.518586 291.113913 
L 116.720943 287.46449 
L 117.125657 260.06218 
L 118.542158 154.777398 
L 118.744515 144.609643 
L 118.946872 140.707082 
L 119.149229 144.398694 
L 119.756301 182.496133 
L 120.56573 262.319337 
L 120.970444 282.254043 
L 121.172801 286.367554 
L 121.375159 288.012958 
L 121.577516 286.557408 
L 121.779873 278.583526 
L 122.589302 227.280663 
L 123.196374 201.671421 
L 123.398731 197.072727 
L 123.601088 197.283677 
L 123.803445 196.714114 
L 124.410517 210.193772 
L 124.612874 221.226419 
L 125.219946 277.845203 
L 125.62466 292.463988 
L 125.827017 294.468006 
L 126.029374 291.91552 
L 127.04116 235.191261 
L 127.648232 197.557911 
L 128.255304 154.925063 
L 128.457661 147.330889 
L 128.660018 146.99337 
L 129.26709 191.588046 
L 130.278876 282.971271 
L 130.481233 290.839679 
L 130.68359 292.231944 
L 130.885947 289.637268 
L 132.504805 180.070216 
L 133.111877 137.142039 
L 133.314234 127.670417 
L 133.516591 129.379106 
L 133.921306 144.841688 
L 134.123663 152.309292 
L 135.135449 262.84671 
L 135.540163 275.545856 
L 135.74252 274.596585 
L 135.944878 263.943646 
L 136.349592 232.343446 
L 136.551949 225.529784 
L 136.754306 213.590055 
L 136.956664 218.188749 
L 137.159021 206.818584 
L 137.766092 197.937619 
L 137.96845 198.338423 
L 138.373164 192.895932 
L 138.777879 200.490105 
L 138.980236 201.333903 
L 139.182593 213.210347 
L 139.789665 270.187745 
L 140.194379 285.650326 
L 140.396736 287.738724 
L 140.599093 284.701055 
L 141.003808 254.303265 
L 141.408522 232.997388 
L 142.015594 219.51773 
L 142.622665 210.320342 
L 142.825023 210.046107 
L 143.02738 208.822602 
L 143.229737 209.518734 
L 143.634451 214.834656 
L 143.836809 213.590055 
L 144.039166 223.84219 
L 144.646238 273.499648 
L 145.050952 285.671421 
L 145.253309 286.979307 
L 145.455666 283.815068 
L 145.860381 253.965746 
L 146.062738 237.406228 
L 146.66981 220.825615 
L 146.872167 218.125465 
L 147.074524 217.028528 
L 147.479238 205.848217 
L 147.681596 214.370568 
L 147.883953 215.362029 
L 148.08631 217.998895 
L 148.491024 227.386138 
L 148.693382 226.014967 
L 149.098096 249.83114 
L 149.502811 278.203817 
L 149.907525 291.430337 
L 150.109882 293.518734 
L 150.312239 292.928076 
L 150.514597 290.059166 
L 150.716954 284.258061 
L 151.121668 263.036565 
L 151.526383 242.194776 
L 151.931097 236.288197 
L 152.133454 235.845203 
L 152.335811 237.849221 
L 152.538169 238.376595 
L 152.740526 236.288197 
L 152.942883 236.583526 
L 153.14524 235.592064 
L 153.347597 235.634254 
L 153.549955 232.659869 
L 153.752312 234.895932 
L 154.764098 287.253541 
L 154.966455 291.282672 
L 155.168812 292.696032 
L 155.573527 288.687996 
L 155.775884 277.423305 
L 156.78767 198.127474 
L 157.799456 154.756303 
L 158.001813 156.802511 
L 158.406528 170.23998 
L 158.608885 184.036062 
L 159.215956 253.881366 
L 159.620671 275.86228 
L 159.823028 279.131994 
L 160.025385 278.203817 
L 160.227743 268.225917 
L 160.632457 235.191261 
L 161.8466 183.993872 
L 162.251315 173.762833 
L 162.453672 173.910497 
L 162.656029 176.821597 
L 163.465458 209.20231 
L 164.072529 270.12446 
L 164.477244 289.067705 
L 164.679601 289.405224 
L 164.881958 286.114415 
L 165.084316 275.777901 
L 165.48903 243.439377 
L 166.500816 207.725665 
L 167.310245 164.038071 
L 167.512602 167.45545 
L 167.917316 188.402712 
L 168.119674 192.938122 
L 168.322031 204.498142 
L 168.929102 264.977298 
L 169.333817 280.439879 
L 169.536174 284.026017 
L 169.738531 280.292215 
L 170.143246 252.510196 
L 170.54796 221.648317 
L 171.357389 176.273129 
L 171.559746 170.134505 
L 172.166818 145.49563 
L 172.369175 147.141035 
L 172.571532 155.199297 
L 173.178604 194.878855 
L 173.785675 267.25555 
L 174.19039 287.000402 
L 174.392747 290.038071 
L 174.595104 288.181718 
L 174.999819 263.542843 
L 175.404533 238.081266 
L 177.023391 158.405726 
L 177.225748 158.933099 
L 177.428105 162.92004 
L 177.630462 179.817077 
L 177.83282 182.306278 
L 178.237534 227.238473 
L 178.642248 270.947162 
L 179.046963 290.50216 
L 179.24932 294.299247 
L 179.451677 291.725665 
L 179.654034 282.865796 
L 180.261106 242.258061 
L 181.879964 143.449422 
L 182.082321 140.116424 
L 182.284678 145.896434 
L 183.094107 203.316826 
L 183.498821 243.080763 
L 183.903536 264.956203 
L 184.30825 272.95118 
L 184.510607 274.343446 
L 184.712965 270.630738 
L 184.915322 256.98232 
L 185.724751 173.340934 
L 186.129465 151.52878 
L 186.331822 145.347966 
L 186.53418 144.567454 
L 186.736537 147.16213 
L 187.748323 188.423807 
L 188.557752 253.923556 
L 188.962466 268.394676 
L 189.164823 270.483074 
L 189.36718 270.567454 
L 189.569538 269.808036 
L 189.771895 258.796484 
L 190.986038 160.810547 
L 191.188395 155.389151 
L 191.390752 155.346961 
L 191.795467 164.692014 
L 192.604896 196.671924 
L 193.414325 261.370065 
L 193.819039 275.377097 
L 194.021396 276.474033 
L 194.426111 272.423807 
L 194.628468 263.268609 
L 195.437897 201.017479 
L 195.640254 195.891411 
L 195.842611 197.136012 
L 196.247325 203.337921 
L 196.449683 203.928579 
L 196.65204 203.527775 
L 197.056754 211.923556 
L 197.259112 212.788448 
L 197.461469 221.395178 
L 198.06854 270.841688 
L 198.473255 285.354997 
L 198.675612 285.460472 
L 198.877969 281.72667 
L 199.282684 250.231944 
L 199.687398 226.879859 
L 201.306256 158.933099 
L 201.508613 157.751783 
L 202.115684 177.39116 
L 202.318042 188.803516 
L 202.925113 254.366549 
L 203.329828 272.423807 
L 203.532185 274.57549 
L 203.734542 271.516725 
L 203.936899 259.724661 
L 204.341614 224.939126 
L 205.758114 168.995379 
L 205.960471 166.442893 
L 206.162829 166.590558 
L 206.365186 168.046107 
L 206.7699 180.175691 
L 206.972257 183.445404 
L 207.174615 194.541336 
L 207.781686 254.978302 
L 208.186401 271.516725 
L 208.388758 274.638774 
L 208.591115 271.221396 
L 208.793472 259.070718 
L 209.198187 224.475038 
L 209.805258 201.671421 
L 210.209973 181.314817 
L 210.817044 138.639779 
L 211.019402 129.948669 
L 211.221759 132.986339 
L 211.626473 158.047112 
L 211.82883 163.384129 
L 212.031188 178.467002 
L 212.638259 245.063687 
L 213.042974 264.091311 
L 213.245331 268.183727 
L 213.447688 266.432848 
L 213.650045 255.463486 
L 214.257117 211.164139 
L 214.661831 184.183727 
L 215.47126 123.409242 
L 215.875975 106.280161 
L 216.078332 105.794977 
L 216.280689 111.469513 
L 217.090118 176.779407 
L 217.697189 240.190758 
L 218.101904 259.091813 
L 218.304261 262.530286 
L 218.506618 263.922551 
L 218.708976 262.635761 
L 218.911333 249.599096 
L 219.518404 193.48659 
L 220.125476 157.435359 
L 220.327833 155.220392 
L 220.53019 157.498644 
L 221.541976 200.827624 
L 221.744334 206.101356 
L 222.553762 264.365545 
L 222.958477 275.503666 
L 223.160834 277.254545 
L 223.363191 277.613159 
L 223.565549 276.009945 
L 223.767906 267.086791 
L 224.374977 227.955701 
L 224.779692 220.192767 
L 225.386763 222.30226 
L 225.589121 225.909493 
L 225.791478 226.816575 
L 226.196192 235.40221 
L 226.398549 235.043596 
L 226.600907 241.625213 
L 227.410335 296.535309 
L 227.612693 300.669915 
L 227.81505 302.399699 
L 228.017407 299.129985 
L 228.826836 255.505676 
L 229.029193 253.121949 
L 229.23155 247.236464 
L 230.648051 182.285183 
L 230.850408 182.875841 
L 231.255122 197.64229 
L 231.45748 208.801507 
L 232.064551 274.027022 
L 232.469266 291.620191 
L 232.671623 294.404721 
L 232.87398 293.160121 
L 233.278694 267.25555 
L 233.683409 244.1777 
L 235.302267 178.024008 
L 235.504624 177.412255 
L 236.111695 196.988348 
L 236.314053 207.599096 
L 236.921124 271.242491 
L 237.325839 287.50668 
L 237.528196 290.713109 
L 237.730553 288.540331 
L 238.135267 264.006931 
L 238.539982 241.688498 
L 239.349411 210.003918 
L 239.754125 199.751783 
L 240.15884 189.288699 
L 240.361197 189.03556 
L 240.563554 194.625716 
L 240.968268 212.661878 
L 241.170626 220.424812 
L 241.777697 277.31783 
L 242.182412 293.560924 
L 242.384769 296.11341 
L 242.587126 293.054646 
L 242.99184 267.740733 
L 243.396555 249.345957 
L 245.21777 172.876846 
L 245.420127 177.222401 
L 246.027199 204.666901 
L 246.836627 279.933601 
L 247.038985 288.498142 
L 247.241342 291.74676 
L 247.443699 289.152084 
L 247.848413 265.019488 
L 249.467271 150.305274 
L 249.669628 142.036062 
L 249.871985 140.053139 
L 250.074343 140.221899 
L 250.2767 147.330889 
L 250.883772 180.21788 
L 251.6932 257.003415 
L 252.097915 271.875339 
L 252.300272 275.018483 
L 252.502629 275.292717 
L 252.704986 271.326871 
L 253.109701 237.785937 
L 253.91913 162.814566 
L 254.323844 146.634756 
L 254.728558 137.606128 
L 254.930916 136.319337 
L 255.133273 143.997891 
L 255.740345 182.369563 
L 256.549773 259.387142 
L 256.954488 275.229432 
L 257.156845 279.131994 
L 257.359202 280.840683 
L 257.561559 279.849221 
L 257.966274 250.274134 
L 258.573345 198.675942 
L 258.97806 176.484078 
L 259.382774 165.198292 
L 259.585131 161.675439 
L 259.787489 161.232446 
L 259.989846 163.911502 
L 260.39456 180.281165 
L 260.596917 193.950678 
L 261.203989 257.425314 
L 261.608704 276.579508 
L 261.811061 279.574987 
L 262.013418 278.77338 
L 262.418132 254.23998 
L 262.62049 241.941637 
L 263.025204 232.048117 
L 263.227561 229.179206 
L 263.429918 228.145555 
L 263.834633 229.45344 
L 264.03699 229.137017 
L 264.239347 230.107383 
L 264.441704 230.191763 
L 264.644062 229.917529 
L 264.846419 232.005927 
L 265.048776 236.140532 
L 265.251133 236.140532 
L 265.45349 240.254043 
L 266.060562 283.730688 
L 266.465277 296.872828 
L 266.667634 298.454947 
L 266.869991 294.172677 
L 267.072348 286.030035 
L 267.477063 258.901959 
L 268.084134 236.203817 
L 268.488849 225.677449 
L 269.09592 214.159618 
L 269.500635 210.109392 
L 269.702992 212.345455 
L 269.905349 216.037067 
L 270.107706 216.733199 
L 270.310063 223.188247 
L 270.917135 273.204319 
L 271.32185 285.460472 
L 271.524207 287.654345 
L 271.726564 285.903466 
L 274.15485 140.960221 
L 274.357208 133.619186 
L 274.559565 137.036565 
L 275.166636 162.793471 
L 275.976065 246.308287 
L 276.38078 259.176193 
L 276.583137 258.458965 
L 276.987851 236.098343 
L 277.392566 206.50216 
L 278.404352 148.195781 
L 278.606709 145.073732 
L 279.011423 131.530789 
L 279.213781 129.885384 
L 279.416138 134.252034 
L 280.023209 176.969262 
L 280.630281 250.020994 
L 281.034995 273.351984 
L 281.237353 278.351482 
L 281.43971 276.769362 
L 281.642067 270.736213 
L 282.249139 227.976796 
L 282.85621 193.52878 
L 283.867996 149.714616 
L 284.070354 148.49111 
L 284.272711 156.844701 
L 285.284497 241.920542 
L 285.689211 274.870819 
L 286.093926 289.974787 
L 286.296283 292.316323 
L 286.49864 290.45997 
L 286.700997 287.443395 
L 287.105712 255.674435 
L 287.712783 202.873832 
L 288.522212 158.384631 
L 288.724569 151.085786 
L 288.926927 149.102863 
L 289.129284 152.77338 
L 289.736355 187.411251 
L 290.545784 259.197288 
L 290.950499 274.849724 
L 291.152856 277.697539 
L 291.355213 277.781919 
L 291.55757 276.263084 
L 291.759927 263.479558 
L 292.771714 162.392667 
L 293.176428 139.863285 
L 293.581142 128.345455 
L 293.7835 126.573481 
L 293.985857 130.180713 
L 294.592928 156.338423 
L 295.402357 241.667403 
L 295.807072 256.729181 
L 296.009429 256.560422 
L 296.414143 235.760824 
L 297.830644 97.293722 
L 298.235358 83.645304 
L 298.437715 80.987343 
L 298.640073 81.261577 
L 298.84243 83.37107 
L 299.044787 91.619186 
L 299.449501 119.295731 
L 300.056573 200.363536 
L 300.461287 226.268106 
L 300.663645 232.44892 
L 300.866002 233.187243 
L 301.068359 226.183727 
L 301.473073 195.342943 
L 302.484859 87.273631 
L 302.687217 75.650326 
L 302.889574 75.755801 
L 303.091931 84.067202 
L 303.496646 92.948167 
L 303.90136 115.793973 
L 304.306074 144.483074 
L 304.913146 215.551883 
L 305.31786 241.583024 
L 305.520218 247.299749 
L 305.722575 245.46449 
L 305.924932 238.14455 
L 306.532004 197.114917 
L 307.54379 125.223405 
L 307.746147 114.739227 
L 307.948504 113.832145 
L 308.757933 146.972275 
L 309.162647 173.741738 
L 309.769719 238.439879 
L 310.174433 258.859769 
L 310.376791 263.374083 
L 310.579148 262.783425 
L 310.983862 238.735208 
L 312.198005 131.889402 
L 312.60272 119.949674 
L 312.805077 115.456454 
L 313.007434 116.026017 
L 313.209791 119.823104 
L 313.816863 148.153591 
L 314.01922 162.202813 
L 314.626292 226.479056 
L 315.031006 247.531793 
L 315.233364 252.235962 
L 315.435721 251.560924 
L 315.840435 232.280161 
L 316.24515 213.062682 
L 316.649864 200.72215 
L 317.054578 185.006429 
L 317.66165 177.285686 
L 317.864007 176.821597 
L 318.066364 175.89342 
L 318.268722 180.703064 
L 318.875793 203.443395 
L 319.685222 263.627223 
L 320.089937 276.748267 
L 320.292294 278.435861 
L 320.697008 270.293219 
L 321.101723 243.354997 
L 322.315866 163.320844 
L 322.72058 152.794475 
L 322.922937 150.410748 
L 323.125295 154.650829 
L 323.732366 183.023506 
L 324.541795 253.417278 
L 324.94651 268.099347 
L 325.148867 271.073732 
L 325.351224 271.137017 
L 325.553581 268.816575 
L 325.755938 256.159618 
L 326.970082 140.707082 
L 327.172439 134.209844 
L 327.374796 132.585535 
L 327.77951 126.86881 
L 327.981868 131.994877 
L 328.184225 141.023506 
L 328.791296 194.077248 
L 329.196011 238.988348 
L 329.398368 254.640784 
L 329.803083 265.019488 
L 330.00544 264.049121 
L 330.207797 258.290206 
L 330.814869 208.463988 
L 331.42194 169.206328 
L 331.826655 145.917529 
L 332.029012 142.943144 
L 332.231369 142.964239 
L 332.433726 143.154093 
L 332.636083 145.305776 
L 332.838441 149.967755 
L 333.243155 173.509694 
L 333.445512 182.770367 
L 334.052584 250.274134 
L 334.457298 272.655851 
L 334.659655 278.224912 
L 334.862013 275.756806 
L 335.266727 255.379106 
L 335.671442 230.360522 
L 336.48087 189.16213 
L 336.683228 183.951683 
L 336.885585 182.812557 
L 337.087942 176.462983 
L 337.290299 174.56444 
L 337.695014 181.209342 
L 338.099728 196.060171 
L 338.302085 202.09332 
L 339.111514 269.702562 
L 339.313871 276.07323 
L 339.516228 278.372577 
L 339.718586 274.195781 
L 340.1233 250.210849 
L 340.932729 204.540331 
L 342.349229 141.107885 
L 342.551587 141.023506 
L 343.158658 166.379608 
L 343.76573 230.845706 
L 344.170444 249.345957 
L 344.372801 254.23998 
L 344.575159 252.046107 
L 344.777516 244.937117 
L 345.18223 213.210347 
L 346.194016 128.32436 
L 346.598731 113.157107 
L 347.003445 106.36454 
L 347.205802 105.499648 
L 347.40816 108.769362 
L 347.610517 116.827624 
L 348.015231 143.639277 
L 348.82466 237.237469 
L 349.229374 254.809543 
L 349.431732 254.029031 
L 349.634089 248.080261 
L 349.836446 236.646811 
L 351.050589 129.379106 
L 351.455304 110.520241 
L 351.860018 101.428327 
L 352.062375 100.500151 
L 352.264733 104.233953 
L 352.46709 115.625213 
L 353.276519 200.975289 
L 353.681233 239.937619 
L 354.085947 260.673933 
L 354.288305 266.095329 
L 354.490662 266.685987 
L 354.693019 264.38664 
L 355.097733 221.205324 
L 355.704805 145.369061 
L 356.109519 119.991863 
L 356.716591 101.301758 
L 356.918948 100.183727 
L 357.121306 105.11994 
L 357.52602 131.446409 
L 357.728377 144.483074 
L 358.740163 242.574485 
L 359.144878 255.906479 
L 359.347235 257.826118 
L 359.549592 257.488599 
L 359.751949 243.101858 
L 360.763735 119.169161 
L 361.16845 99.571974 
L 361.573164 88.159618 
L 361.775521 85.796986 
L 361.977879 89.172175 
L 362.180236 96.365545 
L 362.58495 122.860773 
L 363.394379 214.054144 
L 363.799093 232.195781 
L 364.001451 233.039578 
L 364.203808 226.985334 
L 364.406165 216.64882 
L 365.013237 145.137017 
L 365.620308 78.772376 
L 366.025023 62.149573 
L 366.429737 55.8 
L 366.632094 56.306278 
L 366.834451 59.027524 
L 367.036809 67.992868 
L 367.441523 98.010949 
L 368.048595 179.901457 
L 368.453309 211.290708 
L 368.655666 220.066198 
L 368.858024 222.513209 
L 369.060381 218.505173 
L 369.262738 208.358513 
L 369.86981 143.006429 
L 370.476881 83.160121 
L 370.881596 66.052135 
L 371.083953 65.588046 
L 371.28631 66.326369 
L 371.488667 70.376595 
L 371.691024 76.789453 
L 372.298096 116.912004 
L 373.107525 204.413762 
L 373.512239 227.301758 
L 373.714597 231.794977 
L 374.119311 231.07775 
L 374.321668 217.956705 
L 375.333454 111.047614 
L 375.738169 97.399196 
L 375.940526 94.614666 
L 376.142883 93.47554 
L 376.34524 98.812557 
L 376.749955 125.835158 
L 377.559383 186.504169 
L 377.964098 222.196786 
L 378.368812 236.414766 
L 378.57117 236.646811 
L 378.773527 230.529282 
L 378.975884 218.969262 
L 380.392384 98.791462 
L 380.797099 88.560422 
L 381.201813 80.734204 
L 381.40417 84.615671 
L 382.011242 122.776394 
L 382.820671 208.189754 
L 383.225385 224.791462 
L 383.427743 225.466499 
L 383.6301 219.960723 
L 384.034814 197.030537 
L 385.0466 121.320844 
L 385.451315 104.107383 
L 385.653672 103.6222 
L 385.856029 107.524761 
L 386.058386 115.393169 
L 387.070172 187.558915 
L 387.474887 228.926067 
L 387.879601 251.497639 
L 388.284316 260.927072 
L 388.68903 263.521748 
L 388.891387 257.594073 
L 389.700816 212.682973 
L 390.307888 201.122953 
L 390.914959 187.980814 
L 391.117316 192.917027 
L 391.926745 233.735711 
L 392.533817 279.321848 
L 392.938531 292.084279 
L 393.140888 294.003918 
L 393.343246 293.539829 
L 393.545603 294.025013 
L 393.74796 284.785434 
L 394.355032 242.321346 
L 395.569175 184.057157 
L 395.771532 177.855249 
L 395.973889 179.099849 
L 396.176247 187.685485 
L 396.783318 231.056655 
L 397.188033 270.799498 
L 397.592747 289.194274 
L 397.795104 292.063184 
L 397.997461 289.447413 
L 398.402176 270.736213 
L 400.628105 139.061678 
L 400.830462 141.993872 
L 401.03282 152.267102 
L 401.639891 211.121949 
L 402.044606 256.876846 
L 402.44932 277.845203 
L 402.651677 281.979809 
L 402.854034 280.27112 
L 403.258749 261.496635 
L 403.663463 232.174686 
L 404.877607 122.755299 
L 405.282321 101.575992 
L 405.484678 97.230437 
L 405.687035 98.348468 
L 405.889393 109.191261 
L 406.294107 147.752788 
L 406.901179 227.639277 
L 407.305893 252.468006 
L 407.50825 258.248016 
L 407.710607 257.699548 
L 408.115322 235.781919 
L 409.73418 99.276645 
L 409.936537 94.192767 
L 410.138894 94.045103 
L 410.341251 98.791462 
L 410.948323 136.045103 
L 411.15068 152.456956 
L 411.757752 225.29774 
L 412.162466 250.126469 
L 412.364823 256.813561 
L 412.56718 258.64882 
L 412.971895 240.021999 
L 414.388395 138.808538 
L 414.79311 124.843697 
L 415.197824 117.96675 
L 415.400181 124.949171 
L 416.20961 189.478553 
L 416.614325 236.140532 
L 417.019039 259.93561 
L 417.221396 264.323355 
L 417.423753 263.753792 
L 417.828468 247.0888 
L 419.244968 146.276143 
L 419.649683 132.248016 
L 419.85204 128.303265 
L 420.054397 129.77991 
L 420.256754 138.703064 
L 421.066183 205.974787 
L 421.673255 262.720141 
L 422.077969 279.279658 
L 422.280326 281.832145 
L 422.482684 281.157107 
L 422.685041 280.988348 
L 423.089755 249.324862 
L 423.899184 178.234957 
L 424.708613 137.774887 
L 424.91097 134.505173 
L 425.113327 138.618684 
L 425.518042 165.493621 
L 425.720399 177.623204 
L 426.529828 254.345455 
L 426.934542 273.436364 
L 427.136899 278.035058 
L 427.339257 278.85776 
L 427.541614 279.089804 
L 427.743971 270.25103 
L 428.148685 228.778403 
L 428.755757 165.177197 
L 429.160471 138.829633 
L 429.565186 130.349473 
L 429.9699 134.378604 
L 430.374615 151.043596 
L 430.576972 163.00442 
L 431.386401 241.076745 
L 431.791115 253.649322 
L 431.993472 251.560924 
L 432.398187 230.698041 
L 433.207616 163.827122 
L 434.017044 91.534807 
L 434.219402 86.514214 
L 435.02883 114.675942 
L 435.433545 140.348468 
L 436.040617 213.484581 
L 436.445331 236.625716 
L 436.647688 241.899448 
L 436.850045 241.203315 
L 437.25476 220.045103 
L 437.659474 184.183727 
L 438.468903 108.727172 
L 438.67126 98.728177 
L 438.873617 99.719638 
L 439.075975 107.018483 
L 439.278332 106.554395 
L 439.480689 108.853742 
L 439.885403 127.902461 
L 440.290118 153.321848 
L 440.897189 228.715118 
L 441.301904 251.624209 
L 441.504261 257.19327 
L 441.706618 257.741738 
L 442.111333 242.616675 
L 442.920762 189.204319 
L 443.527833 153.406228 
L 444.134905 130.054144 
L 444.337262 127.396183 
L 444.539619 133.9778 
L 445.146691 180.238975 
L 445.753762 251.265595 
L 446.158477 273.03556 
L 446.360834 278.119437 
L 446.563191 276.07323 
L 446.967906 256.665897 
L 448.586763 143.955701 
L 448.991478 130.412757 
L 449.193835 128.029031 
L 449.396192 134.863787 
L 450.003264 176.315319 
L 450.812693 258.48006 
L 451.217407 272.128478 
L 451.419764 272.255048 
L 451.824479 254.619689 
L 452.43155 202.873832 
L 453.038622 159.861276 
L 453.443336 142.373581 
L 453.848051 134.294224 
L 454.050408 137.753792 
L 454.252765 148.005927 
L 454.65748 177.159116 
L 454.859837 185.829131 
L 455.669266 252.257057 
L 456.07398 266.158614 
L 456.276337 267.719638 
L 456.478694 265.67343 
L 456.681052 262.488096 
L 456.883409 254.28217 
L 457.288123 226.563435 
L 457.692838 215.319839 
L 457.895195 216.037067 
L 458.299909 221.943646 
L 458.502267 221.795982 
L 458.906981 217.872325 
L 459.109338 218.420794 
L 459.514053 222.681969 
L 459.71641 227.090809 
L 460.728196 286.304269 
L 461.13291 290.839679 
L 461.537625 287.443395 
L 461.739982 278.288197 
L 462.144696 242.890909 
L 463.561197 171.927574 
L 463.763554 164.481065 
L 463.965911 165.683476 
L 464.572983 185.660372 
L 465.382412 254.366549 
L 465.584769 261.454445 
L 465.787126 264.238975 
L 465.989483 261.749774 
L 467.608341 166.822602 
L 468.620127 145.094827 
L 468.822484 148.301256 
L 469.429556 175.218383 
L 470.036627 233.398192 
L 470.441342 251.645304 
L 470.643699 254.345455 
L 470.846056 251.708589 
L 471.857842 199.477549 
L 472.869628 168.446911 
L 473.071985 168.953189 
L 473.274343 167.117931 
L 473.4767 168.404721 
L 473.679057 172.286188 
L 473.881414 179.036565 
L 474.083772 180.21788 
L 474.286129 188.086288 
L 474.8932 241.540834 
L 475.297915 258.205826 
L 475.500272 259.914515 
L 475.702629 257.826118 
L 476.107344 232.828629 
L 476.512058 210.257057 
L 477.321487 177.960723 
L 477.726201 157.287695 
L 477.928558 153.638272 
L 478.333273 158.447916 
L 478.53563 163.025515 
L 479.142702 188.592567 
L 479.952131 258.100352 
L 480.356845 268.204822 
L 480.559202 267.782923 
L 480.963917 245.126971 
L 482.785131 113.452436 
L 482.987489 107.398192 
L 483.189846 104.698041 
L 483.392203 110.478051 
L 483.999275 151.36002 
L 484.606346 224.285183 
L 485.011061 248.101356 
L 485.213418 252.615671 
L 485.415775 253.586037 
L 485.82049 233.313812 
L 486.225204 201.312808 
L 487.23699 109.043596 
L 487.439347 105.879357 
L 487.844062 112.608639 
L 488.248776 131.699548 
L 489.260562 211.206328 
L 489.665277 244.1777 
L 490.069991 259.661376 
L 490.272348 262.066198 
L 490.474705 260.905977 
L 490.677063 259.091813 
L 490.87942 249.113913 
L 491.891206 167.37107 
L 492.29592 149.208338 
L 492.498277 141.635259 
L 492.700635 139.567956 
L 492.902992 141.234455 
L 493.105349 146.170668 
L 493.712421 180.534304 
L 494.52185 254.345455 
L 495.128921 273.07775 
L 495.331278 273.225414 
L 495.533636 272.592567 
L 495.735993 264.850728 
L 496.950136 171.041587 
L 497.557208 146.065193 
L 497.759565 142.62672 
L 497.961922 145.917529 
L 498.568994 178.213862 
L 499.378422 253.881366 
L 499.58078 260.884882 
L 499.783137 263.437368 
L 499.985494 260.041085 
L 500.187851 251.307785 
L 500.794923 213.463486 
L 500.99728 208.231944 
L 501.401995 194.81557 
L 501.806709 183.276645 
L 502.009066 182.812557 
L 502.211423 184.922049 
L 502.413781 185.575992 
L 502.616138 183.867303 
L 503.020852 193.824108 
L 503.223209 194.393672 
L 503.425567 202.09332 
L 504.032638 254.050126 
L 504.437353 267.445404 
L 504.63971 269.111904 
L 504.842067 266.685987 
L 505.246782 241.709593 
L 505.651496 217.302762 
L 507.270354 142.331391 
L 507.472711 139.146057 
L 507.675068 142.62672 
L 508.28214 171.358011 
L 508.889211 230.824611 
L 509.293926 248.37559 
L 509.496283 251.982823 
L 509.69864 250.105374 
L 510.103354 225.972777 
L 511.722212 116.954194 
L 512.126927 98.749272 
L 512.329284 100.373581 
L 512.936355 135.602109 
L 513.34107 175.513712 
L 513.745784 220.066198 
L 514.150499 243.354997 
L 514.352856 249.071723 
L 514.555213 249.578001 
L 514.75757 240.464992 
L 516.174071 141.29774 
L 516.376428 140.179709 
L 516.781142 149.735711 
L 516.9835 146.930085 
L 517.185857 147.478553 
L 517.590571 165.620191 
L 517.792928 169.965746 
L 517.995286 180.935108 
L 518.4 221.585033 
L 518.4 221.585033 
" clip-path="url(#p9e197cf437)" style="fill: none; stroke: #1f77b4; stroke-width: 1.5; stroke-linecap: square"/>
   </g>
   <g id="line2d_14">
    <path d="M 72 269.642226 
L 72.202357 269.642226 
L 72.607072 276.605828 
L 72.809429 276.840237 
L 73.011786 270.949043 
L 73.618858 241.684718 
L 73.821215 235.839349 
L 75.035358 168.69487 
L 75.237715 165.397138 
L 75.440073 166.754384 
L 76.047144 189.386333 
L 76.451859 227.171146 
L 76.856573 262.57087 
L 77.261287 275.219088 
L 77.463645 275.472944 
L 77.666002 270.870701 
L 78.475431 228.922688 
L 78.880145 217.941133 
L 79.891931 163.551685 
L 80.094288 160.439189 
L 80.296646 165.545875 
L 81.106074 214.665946 
L 81.510789 257.000557 
L 81.915503 279.900952 
L 82.11786 283.354528 
L 82.320218 283.287842 
L 82.724932 274.269612 
L 83.129646 263.394152 
L 83.534361 242.956853 
L 83.939075 234.525788 
L 84.141432 232.645727 
L 85.355576 251.76117 
L 85.962647 264.941874 
L 86.772076 301.859619 
L 86.974433 305.174812 
L 87.176791 302.851475 
L 87.783862 283.852244 
L 88.390934 259.6685 
L 88.593291 256.08775 
L 88.998005 256.424651 
L 89.200363 257.063469 
L 89.40272 256.529408 
L 89.807434 248.884526 
L 90.009791 244.565571 
L 90.212149 242.922738 
L 90.414506 244.430906 
L 90.616863 248.007789 
L 91.021578 271.728911 
L 91.426292 294.933963 
L 91.628649 298.136771 
L 91.831006 298.218175 
L 92.235721 287.226561 
L 93.04515 246.868602 
L 93.247507 246.572487 
L 93.854578 243.45323 
L 94.866364 231.858643 
L 95.068722 234.566532 
L 95.473436 244.746174 
L 95.87815 275.230852 
L 96.080508 292.650277 
L 96.282865 300.503699 
L 96.485222 302.776159 
L 96.687579 300.813354 
L 97.092294 286.32087 
L 97.699365 250.036461 
L 97.901723 249.849679 
L 98.10408 250.716126 
L 98.913509 244.988534 
L 99.115866 240.840358 
L 99.52058 226.813779 
L 99.722937 227.054505 
L 99.925295 230.913719 
L 100.330009 246.156553 
L 101.139438 298.967722 
L 101.341795 301.459339 
L 101.544152 301.307847 
L 101.74651 295.574162 
L 102.151224 274.643959 
L 102.555938 251.193753 
L 102.758296 251.916913 
L 102.960653 253.418183 
L 103.365367 251.804239 
L 103.770082 245.847561 
L 104.377153 223.790324 
L 104.57951 223.188418 
L 104.984225 237.015697 
L 105.388939 257.765144 
L 105.793654 287.680038 
L 105.996011 296.625072 
L 106.198368 299.850025 
L 106.400725 300.923119 
L 106.603083 296.097765 
L 107.614869 250.218666 
L 107.817226 251.387697 
L 108.019583 251.53503 
L 108.22194 246.491608 
L 108.626655 227.063361 
L 109.031369 206.719372 
L 109.233726 206.245413 
L 109.638441 216.971232 
L 110.043155 239.867254 
L 110.852584 290.805908 
L 111.054941 295.053372 
L 111.257298 296.765652 
L 111.459655 293.671161 
L 111.86437 274.755249 
L 112.269084 251.796166 
L 112.876156 230.846971 
L 114.090299 176.971287 
L 114.292656 179.274151 
L 114.899728 213.943305 
L 115.5068 268.750753 
L 115.911514 285.740128 
L 116.113871 287.934221 
L 116.316228 286.869028 
L 117.125657 261.605113 
L 117.732729 222.566744 
L 118.339801 172.33031 
L 118.744515 152.38068 
L 118.946872 147.080339 
L 119.149229 147.367598 
L 119.351587 155.053599 
L 119.958658 203.86341 
L 120.56573 264.168868 
L 120.970444 280.357492 
L 121.172801 280.965857 
L 121.577516 273.310755 
L 121.779873 268.342355 
L 121.98223 259.935742 
L 122.589302 222.881629 
L 123.398731 193.961611 
L 123.601088 192.065918 
L 124.005802 199.217611 
L 124.612874 222.121011 
L 125.422303 286.319454 
L 125.62466 292.562959 
L 125.827017 295.199398 
L 126.029374 292.517618 
L 126.231732 285.154921 
L 126.636446 253.921054 
L 127.04116 229.473045 
L 127.243518 223.423926 
L 127.648232 199.887256 
L 128.457661 148.132044 
L 128.660018 144.560207 
L 128.862375 148.686109 
L 129.26709 182.690696 
L 129.671804 233.402669 
L 130.076519 276.719765 
L 130.278876 284.701803 
L 130.481233 285.55183 
L 130.68359 282.852621 
L 131.088305 270.145356 
L 131.493019 243.36907 
L 131.897733 222.181946 
L 132.100091 214.219625 
L 133.314234 136.328862 
L 133.516591 132.456854 
L 133.921306 146.695963 
L 134.32602 169.839417 
L 134.528377 194.123708 
L 134.933092 255.021038 
L 135.135449 267.33273 
L 135.337806 272.402591 
L 135.540163 272.918665 
L 135.74252 269.907802 
L 135.944878 263.522255 
L 136.956664 197.187954 
L 137.159021 202.733199 
L 137.361378 195.816804 
L 137.563735 194.735802 
L 137.766092 191.775218 
L 137.96845 191.585237 
L 138.170807 194.42717 
L 138.373164 194.227558 
L 138.575521 196.640649 
L 138.980236 211.191956 
L 139.182593 215.590159 
L 139.992022 276.592987 
L 140.194379 282.51376 
L 140.396736 284.530575 
L 140.599093 279.74568 
L 141.003808 257.435923 
L 141.408522 227.87208 
L 141.610879 220.80082 
L 142.825023 207.117516 
L 143.02738 207.318138 
L 143.229737 208.425663 
L 143.432094 210.297623 
L 144.039166 227.277974 
L 144.848595 283.546927 
L 145.050952 286.798254 
L 145.253309 286.307567 
L 145.455666 280.303443 
L 145.658024 270.919349 
L 146.467452 219.883737 
L 146.66981 219.308352 
L 147.074524 208.846937 
L 147.276881 208.313439 
L 147.681596 201.141038 
L 147.883953 210.107448 
L 148.08631 213.164481 
L 148.693382 233.399444 
L 148.895739 242.329502 
L 149.502811 281.304622 
L 149.907525 293.525526 
L 150.109882 295.823013 
L 150.312239 292.011591 
L 151.72874 236.812898 
L 151.931097 235.432021 
L 152.133454 234.83518 
L 152.740526 243.323867 
L 153.14524 247.37673 
L 153.347597 247.532631 
L 153.752312 252.958292 
L 153.954669 256.548509 
L 154.966455 297.033823 
L 155.168812 296.870579 
L 155.37117 292.721788 
L 155.978241 270.366078 
L 157.394742 175.269355 
L 157.799456 164.24537 
L 158.001813 161.537927 
L 158.20417 166.007624 
L 158.608885 187.608776 
L 158.811242 204.699971 
L 159.215956 253.934024 
L 159.620671 276.526314 
L 159.823028 280.151835 
L 160.025385 278.02316 
L 160.227743 272.06783 
L 160.4301 260.76198 
L 160.834814 226.547437 
L 161.644243 190.548494 
L 162.251315 176.630401 
L 162.453672 175.48952 
L 162.656029 178.850137 
L 163.060743 196.888715 
L 163.667815 229.822673 
L 164.072529 267.956743 
L 164.477244 282.922824 
L 164.679601 285.067628 
L 164.881958 281.665072 
L 165.286673 263.350297 
L 165.691387 233.750329 
L 166.096102 224.532301 
L 166.298459 222.381028 
L 166.500816 217.282319 
L 166.90553 195.297288 
L 167.310245 169.690693 
L 167.512602 167.604117 
L 167.714959 174.452312 
L 168.119674 201.783481 
L 168.322031 211.040719 
L 169.13146 278.67734 
L 169.333817 282.544119 
L 169.536174 281.63928 
L 169.738531 277.075741 
L 169.940888 269.228983 
L 170.345603 240.094432 
L 170.952675 197.872745 
L 171.559746 164.577317 
L 171.762103 161.421081 
L 172.166818 151.57279 
L 172.369175 150.95737 
L 172.571532 156.60664 
L 172.976247 179.200815 
L 173.380961 212.329339 
L 173.785675 263.016017 
L 174.19039 278.836996 
L 174.392747 280.299361 
L 174.595104 277.108965 
L 174.797461 269.533858 
L 175.60689 222.107654 
L 176.011605 206.764721 
L 177.023391 165.998038 
L 177.225748 162.562501 
L 177.428105 166.249639 
L 177.630462 173.993405 
L 177.83282 191.083901 
L 178.035177 198.575624 
L 178.844606 281.596829 
L 179.046963 286.816772 
L 179.24932 287.574066 
L 179.451677 284.150473 
L 179.856392 263.985921 
L 180.463463 225.517278 
L 180.868178 204.697342 
L 181.475249 167.306226 
L 181.879964 150.405201 
L 182.082321 148.266581 
L 182.284678 149.795369 
L 182.487035 157.553161 
L 183.094107 204.871204 
L 183.498821 251.55526 
L 183.701179 262.282406 
L 183.903536 266.660197 
L 184.105893 268.186012 
L 184.30825 265.469592 
L 184.915322 250.173446 
L 185.117679 239.289698 
L 186.129465 148.911496 
L 186.331822 143.533595 
L 186.53418 141.261174 
L 186.736537 144.305768 
L 187.141251 161.945716 
L 187.95068 205.11007 
L 188.355394 242.543107 
L 188.760109 260.102558 
L 188.962466 265.286657 
L 189.164823 267.080706 
L 189.36718 265.018633 
L 189.771895 250.566357 
L 190.378966 210.033328 
L 190.783681 175.375391 
L 191.188395 155.930404 
L 191.390752 152.033418 
L 191.59311 154.041916 
L 191.997824 168.391739 
L 192.807253 211.809094 
L 193.211967 249.60306 
L 193.616682 266.6042 
L 193.819039 269.859699 
L 194.021396 270.197285 
L 194.223753 267.035013 
L 194.628468 251.708091 
L 195.842611 185.660646 
L 196.044968 189.144341 
L 196.65204 207.420454 
L 196.854397 208.808339 
L 197.259112 217.960796 
L 197.461469 224.837739 
L 197.866183 252.122756 
L 198.270898 277.786342 
L 198.473255 282.217273 
L 198.675612 284.020075 
L 198.877969 280.977346 
L 199.080326 273.83978 
L 199.282684 260.746493 
L 199.687398 224.728178 
L 200.29447 200.512051 
L 201.306256 157.218202 
L 201.508613 155.876111 
L 201.71097 160.034065 
L 202.318042 189.03388 
L 202.520399 204.893312 
L 202.925113 257.061367 
L 203.127471 267.391309 
L 203.329828 271.205346 
L 203.532185 270.133649 
L 203.734542 265.721179 
L 203.936899 258.742384 
L 204.341614 227.716162 
L 204.746328 206.216225 
L 205.758114 165.833276 
L 205.960471 162.420646 
L 206.162829 163.487281 
L 206.567543 173.18126 
L 207.174615 198.113545 
L 207.376972 212.770159 
L 207.781686 253.385491 
L 208.186401 268.906929 
L 208.388758 271.280131 
L 208.591115 268.878934 
L 208.793472 261.689791 
L 209.198187 229.187663 
L 209.602901 203.763266 
L 210.007616 188.431539 
L 210.41233 173.740785 
L 211.221759 130.614798 
L 211.424116 135.972392 
L 212.233545 192.345934 
L 212.638259 245.387391 
L 212.840617 256.968076 
L 213.042974 261.746663 
L 213.245331 262.3639 
L 213.447688 258.799368 
L 213.650045 251.732902 
L 214.05476 223.063919 
L 215.268903 138.102298 
L 215.875975 108.814569 
L 216.078332 105.692057 
L 216.280689 107.978601 
L 216.483046 115.663178 
L 217.090118 162.500211 
L 217.697189 236.297881 
L 218.101904 253.235969 
L 218.304261 253.584397 
L 218.708976 243.545101 
L 218.911333 239.663344 
L 219.316047 211.50369 
L 219.923119 158.204676 
L 220.327833 141.504784 
L 220.53019 141.274086 
L 220.732548 146.041956 
L 221.744334 208.897624 
L 221.946691 218.011669 
L 222.351405 248.207092 
L 222.75612 265.404649 
L 222.958477 269.923936 
L 223.160834 271.227671 
L 223.363191 267.328469 
L 223.767906 252.531148 
L 224.374977 219.948783 
L 224.577335 214.295605 
L 224.779692 211.868908 
L 224.982049 210.843181 
L 225.386763 217.954397 
L 225.589121 219.938153 
L 226.196192 232.209807 
L 226.600907 243.010803 
L 227.005621 265.816136 
L 227.410335 291.023528 
L 227.612693 296.399494 
L 227.81505 297.385455 
L 228.017407 293.026458 
L 228.422121 272.525613 
L 228.826836 245.062281 
L 229.029193 240.78959 
L 229.23155 241.294165 
L 229.433908 239.121501 
L 229.838622 222.480685 
L 230.850408 180.186004 
L 231.052765 185.218616 
L 231.45748 210.052933 
L 232.266908 286.145784 
L 232.469266 291.184926 
L 232.671623 291.118689 
L 232.87398 287.166764 
L 233.076337 280.518083 
L 233.885766 232.808854 
L 234.290481 222.594363 
L 234.897552 193.721737 
L 235.302267 181.912791 
L 235.504624 180.955553 
L 235.706981 185.457494 
L 236.111695 205.622252 
L 236.51641 232.371103 
L 236.921124 271.599398 
L 237.325839 288.640323 
L 237.528196 289.621601 
L 237.730553 287.04947 
L 237.93291 280.266931 
L 238.944696 224.77379 
L 239.956482 197.320723 
L 240.361197 192.779592 
L 240.563554 196.485587 
L 240.968268 218.24878 
L 241.57534 262.131459 
L 241.980054 287.668241 
L 242.182412 293.008087 
L 242.384769 294.565978 
L 242.587126 290.787786 
L 242.99184 269.982413 
L 243.396555 244.361644 
L 243.801269 232.270048 
L 244.003626 226.533061 
L 244.813055 188.615188 
L 245.21777 178.23251 
L 245.420127 180.156996 
L 245.622484 187.729793 
L 246.229556 228.608932 
L 246.63427 270.665185 
L 247.038985 288.330669 
L 247.241342 290.653864 
L 247.443699 287.404017 
L 247.848413 266.853699 
L 249.669628 144.221198 
L 249.871985 139.163173 
L 250.074343 141.206984 
L 250.2767 145.904721 
L 250.681414 172.517513 
L 251.086129 200.704119 
L 251.490843 246.575312 
L 251.895558 266.533426 
L 252.097915 269.77056 
L 252.300272 268.979914 
L 252.704986 260.07759 
L 252.907344 253.555216 
L 253.312058 222.642831 
L 254.121487 151.017424 
L 254.323844 144.605497 
L 254.526201 142.021941 
L 254.728558 141.003493 
L 254.930916 141.68135 
L 255.133273 144.600525 
L 255.537987 170.27954 
L 255.942702 200.340873 
L 256.347416 244.741451 
L 256.752131 266.713561 
L 256.954488 271.328965 
L 257.156845 272.390217 
L 257.359202 269.92352 
L 257.763917 258.785367 
L 258.573345 199.874278 
L 258.97806 175.304537 
L 259.382774 162.727975 
L 259.787489 162.760834 
L 259.989846 165.407006 
L 260.192203 170.591021 
L 260.596917 193.51169 
L 260.799275 209.256032 
L 261.203989 257.642275 
L 261.406346 270.186789 
L 261.811061 277.376194 
L 262.013418 276.038396 
L 262.215775 269.735273 
L 263.025204 219.986453 
L 263.227561 217.591595 
L 263.429918 216.956128 
L 263.632276 217.863831 
L 264.239347 223.870556 
L 265.048776 233.889805 
L 265.45349 248.015648 
L 265.858205 269.859192 
L 266.262919 287.921034 
L 266.465277 291.321873 
L 266.667634 291.514227 
L 266.869991 288.451615 
L 267.274705 272.048851 
L 267.67942 246.836691 
L 269.09592 214.929509 
L 269.298277 211.588471 
L 269.500635 211.766796 
L 269.702992 213.15811 
L 270.310063 233.583611 
L 271.32185 288.741239 
L 271.524207 288.212856 
L 271.726564 284.891146 
L 271.928921 278.632114 
L 272.73835 231.899126 
L 273.143064 210.622624 
L 273.952493 156.233715 
L 274.357208 144.829974 
L 274.559565 142.688386 
L 274.761922 149.288977 
L 275.368994 185.17893 
L 275.976065 251.256014 
L 276.178422 259.184103 
L 276.38078 261.826139 
L 276.583137 259.489051 
L 276.785494 253.160454 
L 277.190209 228.67881 
L 277.999637 172.05222 
L 278.201995 160.394962 
L 278.404352 155.896026 
L 278.606709 146.487878 
L 278.809066 145.427625 
L 279.011423 141.153575 
L 279.213781 139.66317 
L 279.416138 142.193035 
L 279.618495 149.720296 
L 280.225567 196.193548 
L 280.832638 258.230045 
L 281.237353 269.511014 
L 281.43971 269.707713 
L 281.844424 254.091513 
L 282.451496 216.684365 
L 282.85621 188.85216 
L 284.070354 148.408622 
L 284.272711 152.38678 
L 284.677425 183.342903 
L 285.891568 278.559399 
L 286.093926 280.31242 
L 286.296283 278.037385 
L 286.700997 267.501427 
L 286.903354 260.681259 
L 287.712783 211.635735 
L 288.117498 180.371294 
L 288.724569 154.33097 
L 288.926927 150.309598 
L 289.129284 153.489216 
L 289.331641 160.447724 
L 289.736355 188.065182 
L 290.14107 226.948992 
L 290.545784 263.695201 
L 290.748141 270.338313 
L 290.950499 273.008181 
L 291.152856 271.485699 
L 291.55757 260.813739 
L 291.759927 254.361261 
L 292.164642 225.052894 
L 293.378785 133.827339 
L 293.581142 131.417907 
L 293.7835 131.759652 
L 293.985857 135.022865 
L 294.188214 140.401958 
L 294.795286 176.012761 
L 295.604714 254.703835 
L 295.807072 257.990069 
L 296.009429 257.864397 
L 296.211786 254.068445 
L 296.414143 242.724581 
L 297.021215 179.37787 
L 297.425929 135.093607 
L 298.235358 87.664651 
L 298.437715 84.177576 
L 298.640073 84.740536 
L 299.044787 94.460178 
L 299.449501 120.404552 
L 299.651859 138.231831 
L 300.25893 217.080204 
L 300.461287 230.579758 
L 300.663645 235.213401 
L 300.866002 233.539751 
L 301.270716 214.317631 
L 301.675431 177.927357 
L 302.282502 99.246977 
L 302.687217 75.828117 
L 302.889574 69.744005 
L 303.091931 73.440126 
L 304.103717 132.646011 
L 304.508432 164.999434 
L 305.115503 228.681196 
L 305.31786 244.063533 
L 305.520218 249.051493 
L 305.722575 245.94724 
L 306.127289 219.181054 
L 306.532004 190.616042 
L 307.54379 126.138724 
L 307.948504 112.89012 
L 308.150861 112.809753 
L 308.353218 119.573934 
L 308.96029 155.690856 
L 309.365005 187.486728 
L 309.972076 243.582541 
L 310.376791 253.064799 
L 310.579148 251.141902 
L 310.781505 242.740107 
L 311.590934 186.449466 
L 312.400363 125.301352 
L 312.60272 118.343248 
L 312.805077 117.431706 
L 313.007434 115.600113 
L 313.209791 117.316559 
L 313.412149 123.438438 
L 314.221578 175.692146 
L 314.828649 233.013058 
L 315.031006 242.381119 
L 315.233364 244.763401 
L 315.435721 242.489817 
L 315.638078 236.242217 
L 316.447507 200.505481 
L 316.649864 196.90228 
L 317.459293 170.164246 
L 317.66165 167.868366 
L 317.864007 167.669668 
L 318.066364 169.13796 
L 318.268722 171.459631 
L 318.471079 177.567253 
L 319.07815 208.588537 
L 319.685222 251.53933 
L 320.089937 262.91523 
L 320.292294 262.481546 
L 320.697008 250.993094 
L 321.101723 236.360158 
L 321.506437 216.873637 
L 321.911151 188.584992 
L 322.315866 159.502247 
L 322.72058 141.89403 
L 322.922937 139.825132 
L 323.125295 141.602048 
L 323.327652 148.775626 
L 323.934723 189.238012 
L 324.541795 250.356186 
L 324.744152 259.157639 
L 324.94651 262.136421 
L 325.148867 260.944749 
L 325.553581 252.285238 
L 325.755938 245.437317 
L 326.36301 206.431715 
L 326.970082 134.82006 
L 327.172439 122.699118 
L 327.374796 118.230612 
L 327.577153 118.837926 
L 327.77951 121.539724 
L 327.981868 126.659924 
L 328.386582 145.437429 
L 328.993654 204.379971 
L 329.398368 251.223078 
L 329.600725 261.140397 
L 329.803083 264.32616 
L 330.00544 263.02561 
L 330.207797 257.918584 
L 330.410154 248.455614 
L 331.42194 156.177436 
L 332.029012 136.499648 
L 332.231369 135.276408 
L 332.636083 141.961965 
L 333.040798 156.500656 
L 333.850227 223.490326 
L 334.254941 258.697267 
L 334.659655 268.003513 
L 334.862013 267.538701 
L 335.06437 261.394746 
L 336.48087 185.496537 
L 336.885585 175.594507 
L 337.087942 176.452705 
L 337.290299 171.581096 
L 337.492656 171.370691 
L 337.897371 184.116406 
L 338.7068 239.116954 
L 339.111514 268.284583 
L 339.313871 273.053702 
L 339.516228 273.471712 
L 339.718586 270.039801 
L 340.1233 248.097856 
L 340.528015 221.021359 
L 341.135086 194.35267 
L 342.146872 142.540008 
L 342.349229 138.581252 
L 342.551587 140.481645 
L 342.753944 145.160293 
L 343.361015 179.067546 
L 343.968087 246.286371 
L 344.170444 250.886854 
L 344.372801 251.162451 
L 344.575159 248.582173 
L 345.18223 219.452146 
L 345.789302 159.897836 
L 346.194016 125.018168 
L 346.598731 106.363539 
L 347.003445 101.815762 
L 347.205802 104.032449 
L 347.40816 107.719266 
L 347.610517 113.77175 
L 348.015231 137.139462 
L 348.217588 152.96888 
L 348.82466 230.161751 
L 349.229374 249.279078 
L 349.431732 250.847036 
L 349.634089 242.271495 
L 350.24116 200.618051 
L 350.848232 133.183487 
L 351.252947 113.144097 
L 351.657661 100.955694 
L 351.860018 98.868688 
L 352.062375 98.183828 
L 352.264733 101.368719 
L 352.46709 110.121815 
L 352.871804 144.600384 
L 353.276519 190.206051 
L 353.681233 240.931285 
L 354.085947 255.252048 
L 354.288305 255.573179 
L 354.490662 251.833074 
L 354.895376 238.386348 
L 355.300091 204.850496 
L 355.907162 125.983304 
L 356.311877 108.74434 
L 356.918948 102.586731 
L 357.121306 105.483408 
L 357.323663 113.056747 
L 357.728377 143.73913 
L 358.133092 185.871442 
L 358.537806 232.49302 
L 358.94252 252.595953 
L 359.144878 253.234213 
L 359.347235 250.135666 
L 359.751949 235.114798 
L 360.156664 205.162702 
L 360.763735 126.089314 
L 361.16845 101.619634 
L 361.573164 95.634822 
L 361.775521 94.328768 
L 361.977879 95.571463 
L 362.180236 101.078807 
L 362.382593 111.051786 
L 362.787307 143.092254 
L 363.394379 220.142365 
L 363.596736 233.377635 
L 363.799093 238.249806 
L 364.001451 239.527672 
L 364.203808 233.954255 
L 364.608522 207.785755 
L 365.215594 133.413949 
L 365.620308 91.339781 
L 366.025023 70.463288 
L 366.22738 68.2724 
L 366.429737 68.549215 
L 366.632094 69.440534 
L 367.036809 80.367474 
L 367.239166 90.664532 
L 367.64388 124.704566 
L 368.250952 204.471212 
L 368.655666 227.876154 
L 368.858024 227.989685 
L 369.262738 211.738232 
L 369.465095 201.12144 
L 369.86981 162.492938 
L 370.476881 98.983362 
L 370.881596 81.444156 
L 371.083953 78.604931 
L 371.488667 85.364754 
L 371.893382 102.813655 
L 372.500453 148.58058 
L 373.309882 225.098552 
L 373.512239 232.992016 
L 373.714597 232.167208 
L 374.524025 205.199116 
L 374.92874 169.443367 
L 375.333454 126.061882 
L 375.738169 108.584185 
L 375.940526 106.584555 
L 376.142883 107.165021 
L 376.34524 109.054001 
L 376.547597 116.307478 
L 376.952312 144.679064 
L 378.166455 233.14322 
L 378.368812 237.373135 
L 378.57117 237.001556 
L 378.773527 232.585877 
L 378.975884 224.086452 
L 379.582956 177.190599 
L 380.190027 130.584079 
L 380.594742 107.439221 
L 380.999456 102.091591 
L 381.201813 100.041948 
L 381.40417 100.716531 
L 381.606528 106.190324 
L 382.011242 131.537514 
L 382.415956 171.66309 
L 382.820671 214.078889 
L 383.023028 224.102151 
L 383.225385 226.853842 
L 383.427743 225.919878 
L 383.832457 214.4412 
L 384.237171 192.780354 
L 384.237171 192.780354 
" clip-path="url(#p9e197cf437)" style="fill: none; stroke: #ff7f0e; stroke-width: 1.5; stroke-linecap: square"/>
   </g>
   <g id="line2d_15">
    <path d="M 384.439529 179.035712 
L 385.248957 160.921847 
L 385.856029 148.539872 
L 386.058386 146.455153 
L 386.260743 147.115594 
L 386.665458 154.375382 
L 387.879601 187.981516 
L 388.081958 188.35735 
L 388.486673 181.575144 
L 389.296102 158.035319 
L 390.10553 137.034632 
L 390.712602 119.105181 
L 391.117316 108.624041 
L 391.319674 106.050802 
L 391.522031 105.464979 
L 391.724388 106.329065 
L 391.926745 109.065074 
L 392.33146 120.748482 
L 393.140888 159.57896 
L 393.74796 186.625808 
L 394.152675 196.595599 
L 394.557389 201.334496 
L 394.962103 200.922878 
L 395.164461 198.842273 
L 395.569175 190.141288 
L 396.378604 155.805254 
L 396.985675 131.159066 
L 397.39039 121.433362 
L 397.592747 119.711412 
L 397.795104 119.153162 
L 397.997461 120.701391 
L 398.402176 130.244218 
L 399.009248 150.451664 
L 399.616319 169.459245 
L 400.021034 176.305778 
L 400.223391 177.213821 
L 400.425748 176.485035 
L 400.628105 173.852271 
L 401.03282 164.095428 
L 402.044606 138.61529 
L 402.246963 137.163825 
L 402.44932 137.994372 
L 402.651677 141.450395 
L 403.056392 156.443601 
L 404.068178 211.310509 
L 404.270535 215.059083 
L 404.472892 216.382945 
L 404.675249 216.146186 
L 404.877607 214.478994 
L 405.282321 207.61747 
L 405.687035 196.156892 
L 406.09175 176.849104 
L 406.698821 137.278773 
L 407.305893 97.383371 
L 407.710607 80.571138 
L 407.912965 76.618142 
L 408.115322 75.419021 
L 408.317679 77.00107 
L 408.722393 87.946029 
L 409.127108 107.019437 
L 409.936537 162.869932 
L 410.543608 198.70672 
L 410.745966 203.875293 
L 410.948323 206.036121 
L 411.15068 205.981814 
L 411.353037 203.338272 
L 411.960109 186.024401 
L 412.56718 169.837828 
L 412.971895 163.221423 
L 413.174252 161.993806 
L 413.376609 162.715896 
L 413.983681 171.26595 
L 414.590752 180.263502 
L 414.995467 183.95105 
L 415.197824 185.005094 
L 415.400181 185.408251 
L 415.602539 185.255 
L 415.804896 183.963962 
L 416.007253 180.320378 
L 416.411967 165.110269 
L 417.019039 127.468974 
L 417.828468 77.931886 
L 418.233182 67.75837 
L 418.435539 68.171311 
L 418.637897 72.429264 
L 419.042611 91.865448 
L 419.447325 124.366928 
L 420.459112 217.423281 
L 420.661469 222.230225 
L 420.863826 223.787269 
L 421.066183 223.016086 
L 421.470898 216.91504 
L 422.077969 203.517849 
L 422.482684 191.725442 
L 423.292112 164.499988 
L 423.696827 155.346843 
L 423.899184 152.95741 
L 424.101541 152.225311 
L 424.303898 152.623906 
L 424.91097 155.536026 
L 425.113327 155.650507 
L 425.315684 155.136733 
L 425.720399 152.901817 
L 426.125113 148.375276 
L 426.529828 139.887223 
L 427.339257 114.10849 
L 427.743971 102.774401 
L 427.946328 99.593636 
L 428.148685 98.854668 
L 428.351043 100.638023 
L 428.755757 110.427222 
L 429.160471 128.796898 
L 429.767543 173.261863 
L 430.172257 204.31284 
L 430.576972 215.220335 
L 430.779329 216.532414 
L 430.981686 216.315892 
L 431.184044 215.493293 
L 431.386401 213.159751 
L 432.398187 190.542961 
L 433.207616 161.627904 
L 434.017044 131.332376 
L 434.826473 111.156668 
L 435.231188 103.942868 
L 435.635902 100.702511 
L 435.838259 101.09316 
L 436.040617 103.052318 
L 436.445331 110.591299 
L 437.052403 128.22894 
L 438.064189 164.705889 
L 438.67126 186.175743 
L 439.480689 206.111359 
L 439.885403 210.721436 
L 440.290118 211.46613 
L 440.492475 210.854551 
L 440.897189 204.648968 
L 441.908976 184.578555 
L 442.718404 171.916299 
L 443.123119 160.752733 
L 443.73019 133.502318 
L 444.944334 73.572049 
L 445.349048 65.72078 
L 445.551405 65.868979 
L 445.753762 69.474956 
L 446.158477 86.392584 
L 446.563191 113.963803 
L 447.777335 211.631262 
L 447.979692 216.703803 
L 448.182049 217.54119 
L 448.384406 216.039829 
L 449.396192 203.429491 
L 450.003264 188.367554 
L 450.812693 166.85603 
L 451.419764 159.837071 
L 451.622121 158.314576 
L 452.229193 156.571487 
L 452.43155 153.598468 
L 452.836265 142.996522 
L 453.443336 121.136055 
L 454.252765 91.278651 
L 454.65748 83.113223 
L 454.859837 82.488056 
L 455.062194 84.546279 
L 455.264551 89.332641 
L 455.669266 108.16977 
L 456.478694 170.343003 
L 457.085766 215.714316 
L 457.288123 221.72786 
L 457.490481 223.020871 
L 457.692838 222.100751 
L 458.299909 216.278224 
L 458.704624 208.942341 
L 460.728196 156.433662 
L 461.942339 129.143128 
L 462.954125 97.252114 
L 463.35884 91.012345 
L 463.561197 89.799664 
L 463.763554 90.339812 
L 463.965911 92.923265 
L 464.370626 103.904242 
L 464.77534 122.375725 
L 466.394198 215.830364 
L 466.596555 218.190316 
L 466.798912 217.330072 
L 467.608341 209.922796 
L 468.013055 200.63781 
L 469.024841 175.208238 
L 470.643699 137.639421 
L 471.250771 114.003044 
L 471.857842 89.584953 
L 472.262557 80.384313 
L 472.464914 78.556873 
L 472.667271 78.9063 
L 472.869628 81.429803 
L 473.274343 93.622967 
L 473.679057 115.288132 
L 475.095558 214.576266 
L 475.297915 218.583533 
L 475.500272 219.323767 
L 475.702629 218.289306 
L 476.916772 202.80216 
L 478.130916 172.184489 
L 478.53563 165.394614 
L 479.345059 156.767981 
L 479.749773 146.618814 
L 480.356845 122.60443 
L 481.166274 89.82732 
L 481.570988 81.13602 
L 481.773345 79.796261 
L 481.975703 81.001534 
L 482.17806 84.848571 
L 482.582774 100.466962 
L 483.189846 142.832977 
L 484.201632 217.713259 
L 484.403989 221.998056 
L 484.606346 222.269713 
L 485.213418 215.075717 
L 485.618132 210.241494 
L 486.022847 200.927914 
L 487.23699 167.572962 
L 488.046419 152.400749 
L 488.451133 145.772413 
L 488.855848 135.047734 
L 490.272348 86.287291 
L 490.677063 81.893673 
L 490.87942 82.453967 
L 491.081777 85.24293 
L 491.486491 97.842756 
L 491.891206 119.651115 
L 493.307706 215.946004 
L 493.510063 219.759779 
L 493.712421 220.00681 
L 494.52185 211.792127 
L 494.724207 209.379676 
L 495.128921 199.914986 
L 496.140707 174.352922 
L 496.950136 159.733067 
L 497.557208 149.523315 
L 497.961922 138.047095 
L 499.378422 87.717682 
L 499.58078 84.814764 
L 499.783137 83.846065 
L 499.985494 85.061975 
L 500.187851 88.636862 
L 500.592566 103.239796 
L 501.199637 141.605283 
L 502.211423 214.099379 
L 502.413781 219.948623 
L 502.616138 221.385615 
L 502.818495 220.456386 
L 503.830281 208.130901 
L 504.437353 191.733038 
L 505.044424 174.935537 
L 506.05621 155.68648 
L 506.460925 148.790197 
L 506.865639 137.375973 
L 507.472711 112.707396 
L 508.079782 88.479051 
L 508.484497 79.505016 
L 508.686854 77.581536 
L 508.889211 77.74988 
L 509.091568 80.362373 
L 509.496283 92.746053 
L 509.900997 114.945343 
L 511.317498 215.773545 
L 511.519855 219.730742 
L 511.722212 220.036469 
L 512.126927 215.502571 
L 512.733998 209.035346 
L 513.138713 200.094147 
L 514.150499 173.479817 
L 514.959927 160.071332 
L 515.566999 151.962484 
L 515.971714 141.731926 
L 516.578785 118.825611 
L 517.185857 96.304997 
L 517.590571 87.359335 
L 517.792928 85.253285 
L 517.995286 85.261358 
L 518.197643 87.630229 
L 518.4 92.482745 
L 518.4 92.482745 
" clip-path="url(#p9e197cf437)" style="fill: none; stroke: #2ca02c; stroke-width: 1.5; stroke-linecap: square"/>
   </g>
   <g id="patch_3">
    <path d="M 72 320.4 
L 72 43.2 
" style="fill: none; stroke: #000000; stroke-width: 0.8; stroke-linejoin: miter; stroke-linecap: square"/>
   </g>
   <g id="patch_4">
    <path d="M 518.4 320.4 
L 518.4 43.2 
" style="fill: none; stroke: #000000; stroke-width: 0.8; stroke-linejoin: miter; stroke-linecap: square"/>
   </g>
   <g id="patch_5">
    <path d="M 72 320.4 
L 518.4 320.4 
" style="fill: none; stroke: #000000; stroke-width: 0.8; stroke-linejoin: miter; stroke-linecap: square"/>
   </g>
   <g id="patch_6">
    <path d="M 72 43.2 
L 518.4 43.2 
" style="fill: none; stroke: #000000; stroke-width: 0.8; stroke-linejoin: miter; stroke-linecap: square"/>
   </g>
   <g id="text_13">
    <!-- Classic Transformer - model_20231126154830 -->
    <g transform="translate(155.436563 37.2) scale(0.12 -0.12)">
     <defs>
      <path id="DejaVuSans-43" d="M 4122 4306 
L 4122 3641 
Q 3803 3938 3442 4084 
Q 3081 4231 2675 4231 
Q 1875 4231 1450 3742 
Q 1025 3253 1025 2328 
Q 1025 1406 1450 917 
Q 1875 428 2675 428 
Q 3081 428 3442 575 
Q 3803 722 4122 1019 
L 4122 359 
Q 3791 134 3420 21 
Q 3050 -91 2638 -91 
Q 1578 -91 968 557 
Q 359 1206 359 2328 
Q 359 3453 968 4101 
Q 1578 4750 2638 4750 
Q 3056 4750 3426 4639 
Q 3797 4528 4122 4306 
z
" transform="scale(0.015625)"/>
      <path id="DejaVuSans-6c" d="M 603 4863 
L 1178 4863 
L 1178 0 
L 603 0 
L 603 4863 
z
" transform="scale(0.015625)"/>
      <path id="DejaVuSans-61" d="M 2194 1759 
Q 1497 1759 1228 1600 
Q 959 1441 959 1056 
Q 959 750 1161 570 
Q 1363 391 1709 391 
Q 2188 391 2477 730 
Q 2766 1069 2766 1631 
L 2766 1759 
L 2194 1759 
z
M 3341 1997 
L 3341 0 
L 2766 0 
L 2766 531 
Q 2569 213 2275 61 
Q 1981 -91 1556 -91 
Q 1019 -91 701 211 
Q 384 513 384 1019 
Q 384 1609 779 1909 
Q 1175 2209 1959 2209 
L 2766 2209 
L 2766 2266 
Q 2766 2663 2505 2880 
Q 2244 3097 1772 3097 
Q 1472 3097 1187 3025 
Q 903 2953 641 2809 
L 641 3341 
Q 956 3463 1253 3523 
Q 1550 3584 1831 3584 
Q 2591 3584 2966 3190 
Q 3341 2797 3341 1997 
z
" transform="scale(0.015625)"/>
      <path id="DejaVuSans-73" d="M 2834 3397 
L 2834 2853 
Q 2591 2978 2328 3040 
Q 2066 3103 1784 3103 
Q 1356 3103 1142 2972 
Q 928 2841 928 2578 
Q 928 2378 1081 2264 
Q 1234 2150 1697 2047 
L 1894 2003 
Q 2506 1872 2764 1633 
Q 3022 1394 3022 966 
Q 3022 478 2636 193 
Q 2250 -91 1575 -91 
Q 1294 -91 989 -36 
Q 684 19 347 128 
L 347 722 
Q 666 556 975 473 
Q 1284 391 1588 391 
Q 1994 391 2212 530 
Q 2431 669 2431 922 
Q 2431 1156 2273 1281 
Q 2116 1406 1581 1522 
L 1381 1569 
Q 847 1681 609 1914 
Q 372 2147 372 2553 
Q 372 3047 722 3315 
Q 1072 3584 1716 3584 
Q 2034 3584 2315 3537 
Q 2597 3491 2834 3397 
z
" transform="scale(0.015625)"/>
      <path id="DejaVuSans-69" d="M 603 3500 
L 1178 3500 
L 1178 0 
L 603 0 
L 603 3500 
z
M 603 4863 
L 1178 4863 
L 1178 4134 
L 603 4134 
L 603 4863 
z
" transform="scale(0.015625)"/>
      <path id="DejaVuSans-63" d="M 3122 3366 
L 3122 2828 
Q 2878 2963 2633 3030 
Q 2388 3097 2138 3097 
Q 1578 3097 1268 2742 
Q 959 2388 959 1747 
Q 959 1106 1268 751 
Q 1578 397 2138 397 
Q 2388 397 2633 464 
Q 2878 531 3122 666 
L 3122 134 
Q 2881 22 2623 -34 
Q 2366 -91 2075 -91 
Q 1284 -91 818 406 
Q 353 903 353 1747 
Q 353 2603 823 3093 
Q 1294 3584 2113 3584 
Q 2378 3584 2631 3529 
Q 2884 3475 3122 3366 
z
" transform="scale(0.015625)"/>
      <path id="DejaVuSans-20" transform="scale(0.015625)"/>
      <path id="DejaVuSans-54" d="M -19 4666 
L 3928 4666 
L 3928 4134 
L 2272 4134 
L 2272 0 
L 1638 0 
L 1638 4134 
L -19 4134 
L -19 4666 
z
" transform="scale(0.015625)"/>
      <path id="DejaVuSans-72" d="M 2631 2963 
Q 2534 3019 2420 3045 
Q 2306 3072 2169 3072 
Q 1681 3072 1420 2755 
Q 1159 2438 1159 1844 
L 1159 0 
L 581 0 
L 581 3500 
L 1159 3500 
L 1159 2956 
Q 1341 3275 1631 3429 
Q 1922 3584 2338 3584 
Q 2397 3584 2469 3576 
Q 2541 3569 2628 3553 
L 2631 2963 
z
" transform="scale(0.015625)"/>
      <path id="DejaVuSans-6e" d="M 3513 2113 
L 3513 0 
L 2938 0 
L 2938 2094 
Q 2938 2591 2744 2837 
Q 2550 3084 2163 3084 
Q 1697 3084 1428 2787 
Q 1159 2491 1159 1978 
L 1159 0 
L 581 0 
L 581 3500 
L 1159 3500 
L 1159 2956 
Q 1366 3272 1645 3428 
Q 1925 3584 2291 3584 
Q 2894 3584 3203 3211 
Q 3513 2838 3513 2113 
z
" transform="scale(0.015625)"/>
      <path id="DejaVuSans-66" d="M 2375 4863 
L 2375 4384 
L 1825 4384 
Q 1516 4384 1395 4259 
Q 1275 4134 1275 3809 
L 1275 3500 
L 2222 3500 
L 2222 3053 
L 1275 3053 
L 1275 0 
L 697 0 
L 697 3053 
L 147 3053 
L 147 3500 
L 697 3500 
L 697 3744 
Q 697 4328 969 4595 
Q 1241 4863 1831 4863 
L 2375 4863 
z
" transform="scale(0.015625)"/>
      <path id="DejaVuSans-6f" d="M 1959 3097 
Q 1497 3097 1228 2736 
Q 959 2375 959 1747 
Q 959 1119 1226 758 
Q 1494 397 1959 397 
Q 2419 397 2687 759 
Q 2956 1122 2956 1747 
Q 2956 2369 2687 2733 
Q 2419 3097 1959 3097 
z
M 1959 3584 
Q 2709 3584 3137 3096 
Q 3566 2609 3566 1747 
Q 3566 888 3137 398 
Q 2709 -91 1959 -91 
Q 1206 -91 779 398 
Q 353 888 353 1747 
Q 353 2609 779 3096 
Q 1206 3584 1959 3584 
z
" transform="scale(0.015625)"/>
      <path id="DejaVuSans-6d" d="M 3328 2828 
Q 3544 3216 3844 3400 
Q 4144 3584 4550 3584 
Q 5097 3584 5394 3201 
Q 5691 2819 5691 2113 
L 5691 0 
L 5113 0 
L 5113 2094 
Q 5113 2597 4934 2840 
Q 4756 3084 4391 3084 
Q 3944 3084 3684 2787 
Q 3425 2491 3425 1978 
L 3425 0 
L 2847 0 
L 2847 2094 
Q 2847 2600 2669 2842 
Q 2491 3084 2119 3084 
Q 1678 3084 1418 2786 
Q 1159 2488 1159 1978 
L 1159 0 
L 581 0 
L 581 3500 
L 1159 3500 
L 1159 2956 
Q 1356 3278 1631 3431 
Q 1906 3584 2284 3584 
Q 2666 3584 2933 3390 
Q 3200 3197 3328 2828 
z
" transform="scale(0.015625)"/>
      <path id="DejaVuSans-65" d="M 3597 1894 
L 3597 1613 
L 953 1613 
Q 991 1019 1311 708 
Q 1631 397 2203 397 
Q 2534 397 2845 478 
Q 3156 559 3463 722 
L 3463 178 
Q 3153 47 2828 -22 
Q 2503 -91 2169 -91 
Q 1331 -91 842 396 
Q 353 884 353 1716 
Q 353 2575 817 3079 
Q 1281 3584 2069 3584 
Q 2775 3584 3186 3129 
Q 3597 2675 3597 1894 
z
M 3022 2063 
Q 3016 2534 2758 2815 
Q 2500 3097 2075 3097 
Q 1594 3097 1305 2825 
Q 1016 2553 972 2059 
L 3022 2063 
z
" transform="scale(0.015625)"/>
      <path id="DejaVuSans-64" d="M 2906 2969 
L 2906 4863 
L 3481 4863 
L 3481 0 
L 2906 0 
L 2906 525 
Q 2725 213 2448 61 
Q 2172 -91 1784 -91 
Q 1150 -91 751 415 
Q 353 922 353 1747 
Q 353 2572 751 3078 
Q 1150 3584 1784 3584 
Q 2172 3584 2448 3432 
Q 2725 3281 2906 2969 
z
M 947 1747 
Q 947 1113 1208 752 
Q 1469 391 1925 391 
Q 2381 391 2643 752 
Q 2906 1113 2906 1747 
Q 2906 2381 2643 2742 
Q 2381 3103 1925 3103 
Q 1469 3103 1208 2742 
Q 947 2381 947 1747 
z
" transform="scale(0.015625)"/>
      <path id="DejaVuSans-5f" d="M 3263 -1063 
L 3263 -1509 
L -63 -1509 
L -63 -1063 
L 3263 -1063 
z
" transform="scale(0.015625)"/>
      <path id="DejaVuSans-34" d="M 2419 4116 
L 825 1625 
L 2419 1625 
L 2419 4116 
z
M 2253 4666 
L 3047 4666 
L 3047 1625 
L 3713 1625 
L 3713 1100 
L 3047 1100 
L 3047 0 
L 2419 0 
L 2419 1100 
L 313 1100 
L 313 1709 
L 2253 4666 
z
" transform="scale(0.015625)"/>
     </defs>
     <use xlink:href="#DejaVuSans-43"/>
     <use xlink:href="#DejaVuSans-6c" x="69.824219"/>
     <use xlink:href="#DejaVuSans-61" x="97.607422"/>
     <use xlink:href="#DejaVuSans-73" x="158.886719"/>
     <use xlink:href="#DejaVuSans-73" x="210.986328"/>
     <use xlink:href="#DejaVuSans-69" x="263.085938"/>
     <use xlink:href="#DejaVuSans-63" x="290.869141"/>
     <use xlink:href="#DejaVuSans-20" x="345.849609"/>
     <use xlink:href="#DejaVuSans-54" x="377.636719"/>
     <use xlink:href="#DejaVuSans-72" x="423.970703"/>
     <use xlink:href="#DejaVuSans-61" x="465.083984"/>
     <use xlink:href="#DejaVuSans-6e" x="526.363281"/>
     <use xlink:href="#DejaVuSans-73" x="589.742188"/>
     <use xlink:href="#DejaVuSans-66" x="641.841797"/>
     <use xlink:href="#DejaVuSans-6f" x="677.046875"/>
     <use xlink:href="#DejaVuSans-72" x="738.228516"/>
     <use xlink:href="#DejaVuSans-6d" x="777.591797"/>
     <use xlink:href="#DejaVuSans-65" x="875.003906"/>
     <use xlink:href="#DejaVuSans-72" x="936.527344"/>
     <use xlink:href="#DejaVuSans-20" x="977.640625"/>
     <use xlink:href="#DejaVuSans-2d" x="1009.427734"/>
     <use xlink:href="#DejaVuSans-20" x="1045.511719"/>
     <use xlink:href="#DejaVuSans-6d" x="1077.298828"/>
     <use xlink:href="#DejaVuSans-6f" x="1174.710938"/>
     <use xlink:href="#DejaVuSans-64" x="1235.892578"/>
     <use xlink:href="#DejaVuSans-65" x="1299.369141"/>
     <use xlink:href="#DejaVuSans-6c" x="1360.892578"/>
     <use xlink:href="#DejaVuSans-5f" x="1388.675781"/>
     <use xlink:href="#DejaVuSans-32" x="1438.675781"/>
     <use xlink:href="#DejaVuSans-30" x="1502.298828"/>
     <use xlink:href="#DejaVuSans-32" x="1565.921875"/>
     <use xlink:href="#DejaVuSans-33" x="1629.544922"/>
     <use xlink:href="#DejaVuSans-31" x="1693.167969"/>
     <use xlink:href="#DejaVuSans-31" x="1756.791016"/>
     <use xlink:href="#DejaVuSans-32" x="1820.414062"/>
     <use xlink:href="#DejaVuSans-36" x="1884.037109"/>
     <use xlink:href="#DejaVuSans-31" x="1947.660156"/>
     <use xlink:href="#DejaVuSans-35" x="2011.283203"/>
     <use xlink:href="#DejaVuSans-34" x="2074.90625"/>
     <use xlink:href="#DejaVuSans-38" x="2138.529297"/>
     <use xlink:href="#DejaVuSans-33" x="2202.152344"/>
     <use xlink:href="#DejaVuSans-30" x="2265.775391"/>
    </g>
   </g>
   <g id="legend_1">
    <g id="patch_7">
     <path d="M 79 95.234375 
L 161.517188 95.234375 
Q 163.517188 95.234375 163.517188 93.234375 
L 163.517188 50.2 
Q 163.517188 48.2 161.517188 48.2 
L 79 48.2 
Q 77 48.2 77 50.2 
L 77 93.234375 
Q 77 95.234375 79 95.234375 
z
" style="fill: #ffffff; opacity: 0.8; stroke: #cccccc; stroke-linejoin: miter"/>
    </g>
    <g id="line2d_16">
     <path d="M 81 56.298437 
L 91 56.298437 
L 101 56.298437 
" style="fill: none; stroke: #1f77b4; stroke-width: 1.5; stroke-linecap: square"/>
    </g>
    <g id="text_14">
     <!-- Measured -->
     <g transform="translate(109 59.798437) scale(0.1 -0.1)">
      <defs>
       <path id="DejaVuSans-4d" d="M 628 4666 
L 1569 4666 
L 2759 1491 
L 3956 4666 
L 4897 4666 
L 4897 0 
L 4281 0 
L 4281 4097 
L 3078 897 
L 2444 897 
L 1241 4097 
L 1241 0 
L 628 0 
L 628 4666 
z
" transform="scale(0.015625)"/>
       <path id="DejaVuSans-75" d="M 544 1381 
L 544 3500 
L 1119 3500 
L 1119 1403 
Q 1119 906 1312 657 
Q 1506 409 1894 409 
Q 2359 409 2629 706 
Q 2900 1003 2900 1516 
L 2900 3500 
L 3475 3500 
L 3475 0 
L 2900 0 
L 2900 538 
Q 2691 219 2414 64 
Q 2138 -91 1772 -91 
Q 1169 -91 856 284 
Q 544 659 544 1381 
z
M 1991 3584 
L 1991 3584 
z
" transform="scale(0.015625)"/>
      </defs>
      <use xlink:href="#DejaVuSans-4d"/>
      <use xlink:href="#DejaVuSans-65" x="86.279297"/>
      <use xlink:href="#DejaVuSans-61" x="147.802734"/>
      <use xlink:href="#DejaVuSans-73" x="209.082031"/>
      <use xlink:href="#DejaVuSans-75" x="261.181641"/>
      <use xlink:href="#DejaVuSans-72" x="324.560547"/>
      <use xlink:href="#DejaVuSans-65" x="363.423828"/>
      <use xlink:href="#DejaVuSans-64" x="424.947266"/>
     </g>
    </g>
    <g id="line2d_17">
     <path d="M 81 70.976562 
L 91 70.976562 
L 101 70.976562 
" style="fill: none; stroke: #ff7f0e; stroke-width: 1.5; stroke-linecap: square"/>
    </g>
    <g id="text_15">
     <!-- Fitted -->
     <g transform="translate(109 74.476562) scale(0.1 -0.1)">
      <defs>
       <path id="DejaVuSans-46" d="M 628 4666 
L 3309 4666 
L 3309 4134 
L 1259 4134 
L 1259 2759 
L 3109 2759 
L 3109 2228 
L 1259 2228 
L 1259 0 
L 628 0 
L 628 4666 
z
" transform="scale(0.015625)"/>
       <path id="DejaVuSans-74" d="M 1172 4494 
L 1172 3500 
L 2356 3500 
L 2356 3053 
L 1172 3053 
L 1172 1153 
Q 1172 725 1289 603 
Q 1406 481 1766 481 
L 2356 481 
L 2356 0 
L 1766 0 
Q 1100 0 847 248 
Q 594 497 594 1153 
L 594 3053 
L 172 3053 
L 172 3500 
L 594 3500 
L 594 4494 
L 1172 4494 
z
" transform="scale(0.015625)"/>
      </defs>
      <use xlink:href="#DejaVuSans-46"/>
      <use xlink:href="#DejaVuSans-69" x="50.269531"/>
      <use xlink:href="#DejaVuSans-74" x="78.052734"/>
      <use xlink:href="#DejaVuSans-74" x="117.261719"/>
      <use xlink:href="#DejaVuSans-65" x="156.470703"/>
      <use xlink:href="#DejaVuSans-64" x="217.994141"/>
     </g>
    </g>
    <g id="line2d_18">
     <path d="M 81 85.654687 
L 91 85.654687 
L 101 85.654687 
" style="fill: none; stroke: #2ca02c; stroke-width: 1.5; stroke-linecap: square"/>
    </g>
    <g id="text_16">
     <!-- Estimated -->
     <g transform="translate(109 89.154687) scale(0.1 -0.1)">
      <defs>
       <path id="DejaVuSans-45" d="M 628 4666 
L 3578 4666 
L 3578 4134 
L 1259 4134 
L 1259 2753 
L 3481 2753 
L 3481 2222 
L 1259 2222 
L 1259 531 
L 3634 531 
L 3634 0 
L 628 0 
L 628 4666 
z
" transform="scale(0.015625)"/>
      </defs>
      <use xlink:href="#DejaVuSans-45"/>
      <use xlink:href="#DejaVuSans-73" x="63.183594"/>
      <use xlink:href="#DejaVuSans-74" x="115.283203"/>
      <use xlink:href="#DejaVuSans-69" x="154.492188"/>
      <use xlink:href="#DejaVuSans-6d" x="182.275391"/>
      <use xlink:href="#DejaVuSans-61" x="279.6875"/>
      <use xlink:href="#DejaVuSans-74" x="340.966797"/>
      <use xlink:href="#DejaVuSans-65" x="380.175781"/>
      <use xlink:href="#DejaVuSans-64" x="441.699219"/>
     </g>
    </g>
   </g>
  </g>
 </g>
 <defs>
  <clipPath id="p9e197cf437">
   <rect x="72" y="43.2" width="446.4" height="277.2"/>
  </clipPath>
 </defs>
</svg>
