<?xml version="1.0" encoding="utf-8" standalone="no"?>
<!DOCTYPE svg PUBLIC "-//W3C//DTD SVG 1.1//EN"
  "http://www.w3.org/Graphics/SVG/1.1/DTD/svg11.dtd">
<svg xmlns:xlink="http://www.w3.org/1999/xlink" width="576pt" height="360pt" viewBox="0 0 576 360" xmlns="http://www.w3.org/2000/svg" version="1.1">
 <metadata>
  <rdf:RDF xmlns:dc="http://purl.org/dc/elements/1.1/" xmlns:cc="http://creativecommons.org/ns#" xmlns:rdf="http://www.w3.org/1999/02/22-rdf-syntax-ns#">
   <cc:Work>
    <dc:type rdf:resource="http://purl.org/dc/dcmitype/StillImage"/>
    <dc:date>2023-11-23T16:28:07.924144</dc:date>
    <dc:format>image/svg+xml</dc:format>
    <dc:creator>
     <cc:Agent>
      <dc:title>Matplotlib v3.8.1, https://matplotlib.org/</dc:title>
     </cc:Agent>
    </dc:creator>
   </cc:Work>
  </rdf:RDF>
 </metadata>
 <defs>
  <style type="text/css">*{stroke-linejoin: round; stroke-linecap: butt}</style>
 </defs>
 <g id="figure_1">
  <g id="patch_1">
   <path d="M 0 360 
L 576 360 
L 576 0 
L 0 0 
z
" style="fill: #ffffff"/>
  </g>
  <g id="axes_1">
   <g id="patch_2">
    <path d="M 72 320.4 
L 518.4 320.4 
L 518.4 43.2 
L 72 43.2 
z
" style="fill: #ffffff"/>
   </g>
   <g id="matplotlib.axis_1">
    <g id="xtick_1">
     <g id="line2d_1">
      <defs>
       <path id="me6fee695bf" d="M 0 0 
L 0 3.5 
" style="stroke: #000000; stroke-width: 0.8"/>
      </defs>
      <g>
       <use xlink:href="#me6fee695bf" x="129.874161" y="320.4" style="stroke: #000000; stroke-width: 0.8"/>
      </g>
     </g>
     <g id="text_1">
      <!-- 2020-05-15 -->
      <g transform="translate(100.816349 334.998438) scale(0.1 -0.1)">
       <defs>
        <path id="DejaVuSans-32" d="M 1228 531 
L 3431 531 
L 3431 0 
L 469 0 
L 469 531 
Q 828 903 1448 1529 
Q 2069 2156 2228 2338 
Q 2531 2678 2651 2914 
Q 2772 3150 2772 3378 
Q 2772 3750 2511 3984 
Q 2250 4219 1831 4219 
Q 1534 4219 1204 4116 
Q 875 4013 500 3803 
L 500 4441 
Q 881 4594 1212 4672 
Q 1544 4750 1819 4750 
Q 2544 4750 2975 4387 
Q 3406 4025 3406 3419 
Q 3406 3131 3298 2873 
Q 3191 2616 2906 2266 
Q 2828 2175 2409 1742 
Q 1991 1309 1228 531 
z
" transform="scale(0.015625)"/>
        <path id="DejaVuSans-30" d="M 2034 4250 
Q 1547 4250 1301 3770 
Q 1056 3291 1056 2328 
Q 1056 1369 1301 889 
Q 1547 409 2034 409 
Q 2525 409 2770 889 
Q 3016 1369 3016 2328 
Q 3016 3291 2770 3770 
Q 2525 4250 2034 4250 
z
M 2034 4750 
Q 2819 4750 3233 4129 
Q 3647 3509 3647 2328 
Q 3647 1150 3233 529 
Q 2819 -91 2034 -91 
Q 1250 -91 836 529 
Q 422 1150 422 2328 
Q 422 3509 836 4129 
Q 1250 4750 2034 4750 
z
" transform="scale(0.015625)"/>
        <path id="DejaVuSans-2d" d="M 313 2009 
L 1997 2009 
L 1997 1497 
L 313 1497 
L 313 2009 
z
" transform="scale(0.015625)"/>
        <path id="DejaVuSans-35" d="M 691 4666 
L 3169 4666 
L 3169 4134 
L 1269 4134 
L 1269 2991 
Q 1406 3038 1543 3061 
Q 1681 3084 1819 3084 
Q 2600 3084 3056 2656 
Q 3513 2228 3513 1497 
Q 3513 744 3044 326 
Q 2575 -91 1722 -91 
Q 1428 -91 1123 -41 
Q 819 9 494 109 
L 494 744 
Q 775 591 1075 516 
Q 1375 441 1709 441 
Q 2250 441 2565 725 
Q 2881 1009 2881 1497 
Q 2881 1984 2565 2268 
Q 2250 2553 1709 2553 
Q 1456 2553 1204 2497 
Q 953 2441 691 2322 
L 691 4666 
z
" transform="scale(0.015625)"/>
        <path id="DejaVuSans-31" d="M 794 531 
L 1825 531 
L 1825 4091 
L 703 3866 
L 703 4441 
L 1819 4666 
L 2450 4666 
L 2450 531 
L 3481 531 
L 3481 0 
L 794 0 
L 794 531 
z
" transform="scale(0.015625)"/>
       </defs>
       <use xlink:href="#DejaVuSans-32"/>
       <use xlink:href="#DejaVuSans-30" x="63.623047"/>
       <use xlink:href="#DejaVuSans-32" x="127.246094"/>
       <use xlink:href="#DejaVuSans-30" x="190.869141"/>
       <use xlink:href="#DejaVuSans-2d" x="254.492188"/>
       <use xlink:href="#DejaVuSans-30" x="290.576172"/>
       <use xlink:href="#DejaVuSans-35" x="354.199219"/>
       <use xlink:href="#DejaVuSans-2d" x="417.822266"/>
       <use xlink:href="#DejaVuSans-31" x="453.90625"/>
       <use xlink:href="#DejaVuSans-35" x="517.529297"/>
      </g>
     </g>
    </g>
    <g id="xtick_2">
     <g id="line2d_2">
      <g>
       <use xlink:href="#me6fee695bf" x="212.435902" y="320.4" style="stroke: #000000; stroke-width: 0.8"/>
      </g>
     </g>
     <g id="text_2">
      <!-- 2020-06-01 -->
      <g transform="translate(183.37809 334.998438) scale(0.1 -0.1)">
       <defs>
        <path id="DejaVuSans-36" d="M 2113 2584 
Q 1688 2584 1439 2293 
Q 1191 2003 1191 1497 
Q 1191 994 1439 701 
Q 1688 409 2113 409 
Q 2538 409 2786 701 
Q 3034 994 3034 1497 
Q 3034 2003 2786 2293 
Q 2538 2584 2113 2584 
z
M 3366 4563 
L 3366 3988 
Q 3128 4100 2886 4159 
Q 2644 4219 2406 4219 
Q 1781 4219 1451 3797 
Q 1122 3375 1075 2522 
Q 1259 2794 1537 2939 
Q 1816 3084 2150 3084 
Q 2853 3084 3261 2657 
Q 3669 2231 3669 1497 
Q 3669 778 3244 343 
Q 2819 -91 2113 -91 
Q 1303 -91 875 529 
Q 447 1150 447 2328 
Q 447 3434 972 4092 
Q 1497 4750 2381 4750 
Q 2619 4750 2861 4703 
Q 3103 4656 3366 4563 
z
" transform="scale(0.015625)"/>
       </defs>
       <use xlink:href="#DejaVuSans-32"/>
       <use xlink:href="#DejaVuSans-30" x="63.623047"/>
       <use xlink:href="#DejaVuSans-32" x="127.246094"/>
       <use xlink:href="#DejaVuSans-30" x="190.869141"/>
       <use xlink:href="#DejaVuSans-2d" x="254.492188"/>
       <use xlink:href="#DejaVuSans-30" x="290.576172"/>
       <use xlink:href="#DejaVuSans-36" x="354.199219"/>
       <use xlink:href="#DejaVuSans-2d" x="417.822266"/>
       <use xlink:href="#DejaVuSans-30" x="453.90625"/>
       <use xlink:href="#DejaVuSans-31" x="517.529297"/>
      </g>
     </g>
    </g>
    <g id="xtick_3">
     <g id="line2d_3">
      <g>
       <use xlink:href="#me6fee695bf" x="280.427924" y="320.4" style="stroke: #000000; stroke-width: 0.8"/>
      </g>
     </g>
     <g id="text_3">
      <!-- 2020-06-15 -->
      <g transform="translate(251.370111 334.998438) scale(0.1 -0.1)">
       <use xlink:href="#DejaVuSans-32"/>
       <use xlink:href="#DejaVuSans-30" x="63.623047"/>
       <use xlink:href="#DejaVuSans-32" x="127.246094"/>
       <use xlink:href="#DejaVuSans-30" x="190.869141"/>
       <use xlink:href="#DejaVuSans-2d" x="254.492188"/>
       <use xlink:href="#DejaVuSans-30" x="290.576172"/>
       <use xlink:href="#DejaVuSans-36" x="354.199219"/>
       <use xlink:href="#DejaVuSans-2d" x="417.822266"/>
       <use xlink:href="#DejaVuSans-31" x="453.90625"/>
       <use xlink:href="#DejaVuSans-35" x="517.529297"/>
      </g>
     </g>
    </g>
    <g id="xtick_4">
     <g id="line2d_4">
      <g>
       <use xlink:href="#me6fee695bf" x="358.133092" y="320.4" style="stroke: #000000; stroke-width: 0.8"/>
      </g>
     </g>
     <g id="text_4">
      <!-- 2020-07-01 -->
      <g transform="translate(329.075279 334.998438) scale(0.1 -0.1)">
       <defs>
        <path id="DejaVuSans-37" d="M 525 4666 
L 3525 4666 
L 3525 4397 
L 1831 0 
L 1172 0 
L 2766 4134 
L 525 4134 
L 525 4666 
z
" transform="scale(0.015625)"/>
       </defs>
       <use xlink:href="#DejaVuSans-32"/>
       <use xlink:href="#DejaVuSans-30" x="63.623047"/>
       <use xlink:href="#DejaVuSans-32" x="127.246094"/>
       <use xlink:href="#DejaVuSans-30" x="190.869141"/>
       <use xlink:href="#DejaVuSans-2d" x="254.492188"/>
       <use xlink:href="#DejaVuSans-30" x="290.576172"/>
       <use xlink:href="#DejaVuSans-37" x="354.199219"/>
       <use xlink:href="#DejaVuSans-2d" x="417.822266"/>
       <use xlink:href="#DejaVuSans-30" x="453.90625"/>
       <use xlink:href="#DejaVuSans-31" x="517.529297"/>
      </g>
     </g>
    </g>
    <g id="xtick_5">
     <g id="line2d_5">
      <g>
       <use xlink:href="#me6fee695bf" x="426.125113" y="320.4" style="stroke: #000000; stroke-width: 0.8"/>
      </g>
     </g>
     <g id="text_5">
      <!-- 2020-07-15 -->
      <g transform="translate(397.067301 334.998438) scale(0.1 -0.1)">
       <use xlink:href="#DejaVuSans-32"/>
       <use xlink:href="#DejaVuSans-30" x="63.623047"/>
       <use xlink:href="#DejaVuSans-32" x="127.246094"/>
       <use xlink:href="#DejaVuSans-30" x="190.869141"/>
       <use xlink:href="#DejaVuSans-2d" x="254.492188"/>
       <use xlink:href="#DejaVuSans-30" x="290.576172"/>
       <use xlink:href="#DejaVuSans-37" x="354.199219"/>
       <use xlink:href="#DejaVuSans-2d" x="417.822266"/>
       <use xlink:href="#DejaVuSans-31" x="453.90625"/>
       <use xlink:href="#DejaVuSans-35" x="517.529297"/>
      </g>
     </g>
    </g>
    <g id="xtick_6">
     <g id="line2d_6">
      <g>
       <use xlink:href="#me6fee695bf" x="508.686854" y="320.4" style="stroke: #000000; stroke-width: 0.8"/>
      </g>
     </g>
     <g id="text_6">
      <!-- 2020-08-01 -->
      <g transform="translate(479.629042 334.998438) scale(0.1 -0.1)">
       <defs>
        <path id="DejaVuSans-38" d="M 2034 2216 
Q 1584 2216 1326 1975 
Q 1069 1734 1069 1313 
Q 1069 891 1326 650 
Q 1584 409 2034 409 
Q 2484 409 2743 651 
Q 3003 894 3003 1313 
Q 3003 1734 2745 1975 
Q 2488 2216 2034 2216 
z
M 1403 2484 
Q 997 2584 770 2862 
Q 544 3141 544 3541 
Q 544 4100 942 4425 
Q 1341 4750 2034 4750 
Q 2731 4750 3128 4425 
Q 3525 4100 3525 3541 
Q 3525 3141 3298 2862 
Q 3072 2584 2669 2484 
Q 3125 2378 3379 2068 
Q 3634 1759 3634 1313 
Q 3634 634 3220 271 
Q 2806 -91 2034 -91 
Q 1263 -91 848 271 
Q 434 634 434 1313 
Q 434 1759 690 2068 
Q 947 2378 1403 2484 
z
M 1172 3481 
Q 1172 3119 1398 2916 
Q 1625 2713 2034 2713 
Q 2441 2713 2670 2916 
Q 2900 3119 2900 3481 
Q 2900 3844 2670 4047 
Q 2441 4250 2034 4250 
Q 1625 4250 1398 4047 
Q 1172 3844 1172 3481 
z
" transform="scale(0.015625)"/>
       </defs>
       <use xlink:href="#DejaVuSans-32"/>
       <use xlink:href="#DejaVuSans-30" x="63.623047"/>
       <use xlink:href="#DejaVuSans-32" x="127.246094"/>
       <use xlink:href="#DejaVuSans-30" x="190.869141"/>
       <use xlink:href="#DejaVuSans-2d" x="254.492188"/>
       <use xlink:href="#DejaVuSans-30" x="290.576172"/>
       <use xlink:href="#DejaVuSans-38" x="354.199219"/>
       <use xlink:href="#DejaVuSans-2d" x="417.822266"/>
       <use xlink:href="#DejaVuSans-30" x="453.90625"/>
       <use xlink:href="#DejaVuSans-31" x="517.529297"/>
      </g>
     </g>
    </g>
   </g>
   <g id="matplotlib.axis_2">
    <g id="ytick_1">
     <g id="line2d_7">
      <defs>
       <path id="maf437b1c50" d="M 0 0 
L -3.5 0 
" style="stroke: #000000; stroke-width: 0.8"/>
      </defs>
      <g>
       <use xlink:href="#maf437b1c50" x="72" y="315.764762" style="stroke: #000000; stroke-width: 0.8"/>
      </g>
     </g>
     <g id="text_7">
      <!-- −2 -->
      <g transform="translate(50.257812 319.563981) scale(0.1 -0.1)">
       <defs>
        <path id="DejaVuSans-2212" d="M 678 2272 
L 4684 2272 
L 4684 1741 
L 678 1741 
L 678 2272 
z
" transform="scale(0.015625)"/>
       </defs>
       <use xlink:href="#DejaVuSans-2212"/>
       <use xlink:href="#DejaVuSans-32" x="83.789062"/>
      </g>
     </g>
    </g>
    <g id="ytick_2">
     <g id="line2d_8">
      <g>
       <use xlink:href="#maf437b1c50" x="72" y="263.701362" style="stroke: #000000; stroke-width: 0.8"/>
      </g>
     </g>
     <g id="text_8">
      <!-- −1 -->
      <g transform="translate(50.257812 267.50058) scale(0.1 -0.1)">
       <use xlink:href="#DejaVuSans-2212"/>
       <use xlink:href="#DejaVuSans-31" x="83.789062"/>
      </g>
     </g>
    </g>
    <g id="ytick_3">
     <g id="line2d_9">
      <g>
       <use xlink:href="#maf437b1c50" x="72" y="211.637961" style="stroke: #000000; stroke-width: 0.8"/>
      </g>
     </g>
     <g id="text_9">
      <!-- 0 -->
      <g transform="translate(58.6375 215.43718) scale(0.1 -0.1)">
       <use xlink:href="#DejaVuSans-30"/>
      </g>
     </g>
    </g>
    <g id="ytick_4">
     <g id="line2d_10">
      <g>
       <use xlink:href="#maf437b1c50" x="72" y="159.574561" style="stroke: #000000; stroke-width: 0.8"/>
      </g>
     </g>
     <g id="text_10">
      <!-- 1 -->
      <g transform="translate(58.6375 163.373779) scale(0.1 -0.1)">
       <use xlink:href="#DejaVuSans-31"/>
      </g>
     </g>
    </g>
    <g id="ytick_5">
     <g id="line2d_11">
      <g>
       <use xlink:href="#maf437b1c50" x="72" y="107.51116" style="stroke: #000000; stroke-width: 0.8"/>
      </g>
     </g>
     <g id="text_11">
      <!-- 2 -->
      <g transform="translate(58.6375 111.310379) scale(0.1 -0.1)">
       <use xlink:href="#DejaVuSans-32"/>
      </g>
     </g>
    </g>
    <g id="ytick_6">
     <g id="line2d_12">
      <g>
       <use xlink:href="#maf437b1c50" x="72" y="55.44776" style="stroke: #000000; stroke-width: 0.8"/>
      </g>
     </g>
     <g id="text_12">
      <!-- 3 -->
      <g transform="translate(58.6375 59.246978) scale(0.1 -0.1)">
       <defs>
        <path id="DejaVuSans-33" d="M 2597 2516 
Q 3050 2419 3304 2112 
Q 3559 1806 3559 1356 
Q 3559 666 3084 287 
Q 2609 -91 1734 -91 
Q 1441 -91 1130 -33 
Q 819 25 488 141 
L 488 750 
Q 750 597 1062 519 
Q 1375 441 1716 441 
Q 2309 441 2620 675 
Q 2931 909 2931 1356 
Q 2931 1769 2642 2001 
Q 2353 2234 1838 2234 
L 1294 2234 
L 1294 2753 
L 1863 2753 
Q 2328 2753 2575 2939 
Q 2822 3125 2822 3475 
Q 2822 3834 2567 4026 
Q 2313 4219 1838 4219 
Q 1578 4219 1281 4162 
Q 984 4106 628 3988 
L 628 4550 
Q 988 4650 1302 4700 
Q 1616 4750 1894 4750 
Q 2613 4750 3031 4423 
Q 3450 4097 3450 3541 
Q 3450 3153 3228 2886 
Q 3006 2619 2597 2516 
z
" transform="scale(0.015625)"/>
       </defs>
       <use xlink:href="#DejaVuSans-33"/>
      </g>
     </g>
    </g>
   </g>
   <g id="line2d_13">
    <path d="M 72 287.674301 
L 72.404714 298.707679 
L 72.607072 297.03224 
L 72.809429 286.652692 
L 73.214143 256.576521 
L 73.618858 244.48067 
L 75.035358 163.773553 
L 75.237715 160.892616 
L 75.440073 165.816771 
L 75.64243 173.805754 
L 75.844787 177.013607 
L 76.047144 191.84737 
L 76.654216 260.213449 
L 77.05893 283.628729 
L 77.261287 287.878623 
L 77.463645 287.510844 
L 77.666002 277.090431 
L 78.070716 249.363961 
L 78.475431 237.227245 
L 78.677788 228.339246 
L 79.487217 172.886306 
L 79.891931 157.051366 
L 80.094288 158.951558 
L 80.903717 200.224565 
L 81.713146 273.535232 
L 82.11786 287.796894 
L 82.320218 289.778816 
L 82.522575 289.492765 
L 82.724932 287.040904 
L 82.927289 280.400445 
L 83.332004 258.027206 
L 83.736718 244.092458 
L 83.939075 241.129792 
L 84.141432 241.39541 
L 84.546147 247.627226 
L 84.748504 249.670444 
L 84.950861 249.690876 
L 85.355576 253.777312 
L 85.557933 250.528596 
L 85.76029 256.494792 
L 86.569719 300.260525 
L 86.772076 306.185858 
L 86.974433 307.738703 
L 87.176791 307.8 
L 87.379148 306.49234 
L 87.581505 302.855412 
L 87.783862 296.27625 
L 88.188577 274.802027 
L 88.390934 269.755278 
L 89.200363 261.888888 
L 89.40272 257.863749 
L 89.807434 243.459061 
L 90.212149 241.068496 
L 90.414506 238.432744 
L 90.616863 246.176541 
L 91.223935 295.43853 
L 91.628649 306.185858 
L 91.831006 306.247154 
L 92.033364 303.815725 
L 92.842792 258.864926 
L 93.04515 256.780843 
L 93.449864 248.403649 
L 93.652221 247.892844 
L 93.854578 245.032339 
L 94.056936 244.419373 
L 94.259293 241.865351 
L 94.46165 235.633535 
L 94.664007 232.854759 
L 94.866364 233.753775 
L 95.068722 236.818602 
L 95.271079 233.079513 
L 95.473436 242.927824 
L 96.080508 295.80631 
L 96.485222 304.776037 
L 96.687579 306.635366 
L 96.889937 302.405904 
L 97.699365 258.149799 
L 98.306437 247.913276 
L 98.508794 247.545497 
L 99.52058 226.868129 
L 99.722937 228.09406 
L 99.925295 232.343954 
L 100.127652 230.566354 
L 100.330009 240.45553 
L 100.937081 293.395312 
L 101.341795 305.348138 
L 101.544152 306.308451 
L 101.74651 302.691955 
L 101.948867 291.045611 
L 102.353581 261.786727 
L 102.555938 260.274746 
L 103.567724 242.948256 
L 104.377153 221.412737 
L 104.57951 222.6591 
L 104.781868 227.910171 
L 104.984225 227.889739 
L 105.186582 236.552983 
L 105.793654 290.330485 
L 106.198368 302.753251 
L 106.400725 304.469554 
L 106.603083 300.546576 
L 107.412511 255.800098 
L 107.614869 254.124659 
L 107.817226 250.549028 
L 108.22194 236.389526 
L 108.626655 215.242218 
L 108.829012 209.459911 
L 109.031369 207.621015 
L 109.638441 216.079938 
L 109.840798 221.371873 
L 110.043155 231.506235 
L 110.650227 285.140711 
L 111.054941 299.034594 
L 111.257298 300.893923 
L 111.459655 299.198052 
L 111.662013 288.082945 
L 112.066727 259.580052 
L 112.471442 244.971042 
L 113.887942 178.321266 
L 114.090299 176.01243 
L 114.292656 182.652889 
L 114.495014 193.788428 
L 114.697371 198.263075 
L 115.102085 231.404074 
L 115.709157 279.501429 
L 116.113871 293.088829 
L 116.316228 293.252287 
L 116.518586 291.638145 
L 116.720943 288.103377 
L 117.125657 261.561973 
L 118.542158 159.584956 
L 118.744515 149.736645 
L 118.946872 145.956691 
L 119.149229 149.532323 
L 119.756301 186.432842 
L 120.56573 263.748217 
L 120.970444 283.056628 
L 121.172801 287.040904 
L 121.375159 288.634614 
L 121.577516 287.224793 
L 121.779873 279.501429 
L 122.589302 229.810364 
L 123.196374 205.005695 
L 123.398731 200.55148 
L 123.601088 200.755802 
L 123.803445 200.204133 
L 124.410517 213.260297 
L 124.612874 223.946327 
L 125.219946 278.786302 
L 125.62466 292.945804 
L 125.827017 294.886861 
L 126.029374 292.414567 
L 127.04116 237.472432 
L 127.648232 201.02142 
L 128.255304 159.727981 
L 128.457661 152.372396 
L 128.660018 152.045481 
L 129.26709 195.239113 
L 130.278876 283.751322 
L 130.481233 291.372526 
L 130.68359 292.72105 
L 130.885947 290.207892 
L 132.504805 184.083142 
L 133.111877 142.503652 
L 133.314234 133.329603 
L 133.516591 134.98461 
L 133.921306 149.961399 
L 134.123663 157.194391 
L 135.135449 264.259021 
L 135.540163 276.559195 
L 135.74252 275.639746 
L 135.944878 265.321495 
L 136.349592 234.714087 
L 136.551949 228.114492 
L 136.754306 216.549878 
L 136.956664 221.004093 
L 137.159021 209.991148 
L 137.766092 201.389199 
L 137.96845 201.777411 
L 138.373164 196.505908 
L 138.777879 203.861493 
L 138.980236 204.67878 
L 139.182593 216.182099 
L 139.789665 271.369421 
L 140.194379 286.34621 
L 140.396736 288.368995 
L 140.599093 285.426761 
L 141.003808 255.983988 
L 141.408522 235.347485 
L 142.015594 222.291321 
L 142.622665 213.38289 
L 142.825023 213.117271 
L 143.02738 211.932205 
L 143.229737 212.606467 
L 143.634451 217.755377 
L 143.836809 216.549878 
L 144.039166 226.479918 
L 144.646238 274.577273 
L 145.050952 286.366642 
L 145.253309 287.633437 
L 145.455666 284.56861 
L 145.860381 255.657073 
L 146.062738 239.617811 
L 146.66981 223.558116 
L 146.872167 220.942797 
L 147.074524 219.880323 
L 147.479238 209.051267 
L 147.681596 217.305869 
L 147.883953 218.266181 
L 148.08631 220.820204 
L 148.491024 229.912524 
L 148.693382 228.584433 
L 149.098096 251.652365 
L 149.502811 279.133649 
L 149.907525 291.944627 
L 150.109882 293.967413 
L 150.312239 293.395312 
L 150.514597 290.616535 
L 150.716954 284.997686 
L 151.121668 264.442911 
L 151.526383 244.255916 
L 151.931097 238.534905 
L 152.133454 238.105829 
L 152.335811 240.046886 
L 152.538169 240.557691 
L 152.740526 238.534905 
L 152.942883 238.820956 
L 153.14524 237.860643 
L 153.347597 237.901507 
L 153.549955 235.02057 
L 153.752312 237.186381 
L 154.764098 287.899055 
L 154.966455 291.801602 
L 155.168812 293.170558 
L 155.573527 289.288444 
L 155.775884 278.377659 
L 156.78767 201.573089 
L 157.799456 159.564524 
L 158.001813 161.546445 
L 158.406528 174.561745 
L 158.608885 187.924392 
L 159.215956 255.575344 
L 159.620671 276.865677 
L 159.823028 280.032665 
L 160.025385 279.133649 
L 160.227743 269.469228 
L 160.632457 237.472432 
L 161.8466 187.883527 
L 162.251315 177.973919 
L 162.453672 178.116945 
L 162.656029 180.936586 
L 163.465458 212.299984 
L 164.072529 271.308124 
L 164.477244 289.656223 
L 164.679601 289.983138 
L 164.881958 286.795718 
L 165.084316 276.783949 
L 165.48903 245.461415 
L 166.500816 210.869731 
L 167.310245 168.554684 
L 167.512602 171.864697 
L 167.917316 192.153853 
L 168.119674 196.546772 
L 168.322031 207.743608 
L 168.929102 266.322672 
L 169.333817 281.299461 
L 169.536174 284.772932 
L 169.738531 281.156435 
L 170.143246 254.247253 
L 170.54796 224.354971 
L 171.357389 180.405349 
L 171.559746 174.459584 
L 172.166818 150.594796 
L 172.369175 152.188506 
L 172.571532 159.9936 
L 173.178604 198.426533 
L 173.785675 268.529347 
L 174.19039 287.653869 
L 174.392747 290.596103 
L 174.595104 288.798071 
L 174.999819 264.933283 
L 175.404533 240.27164 
L 177.023391 163.099291 
L 177.225748 163.610096 
L 177.428105 167.471778 
L 177.630462 183.837955 
L 177.83282 186.248953 
L 178.237534 229.769499 
L 178.642248 272.104979 
L 179.046963 291.045611 
L 179.24932 294.723404 
L 179.451677 292.230678 
L 179.654034 283.649162 
L 180.261106 244.317212 
L 181.879964 148.612875 
L 182.082321 145.38459 
L 182.284678 150.983008 
L 183.094107 206.599405 
L 183.498821 245.114067 
L 183.903536 266.30224 
L 184.30825 274.046036 
L 184.510607 275.39456 
L 184.712965 271.798496 
L 184.915322 258.578875 
L 185.724751 177.565276 
L 186.129465 156.4384 
L 186.331822 150.451771 
L 186.53418 149.69578 
L 186.736537 152.208939 
L 187.748323 192.174285 
L 188.557752 255.616209 
L 188.962466 269.632685 
L 189.164823 271.655471 
L 189.36718 271.7372 
L 189.569538 271.001641 
L 189.771895 260.336043 
L 190.986038 165.42856 
L 191.188395 160.177489 
L 191.390752 160.136625 
L 191.795467 169.188081 
L 192.604896 200.163268 
L 193.414325 262.828769 
L 193.819039 276.395737 
L 194.021396 277.458211 
L 194.426111 273.535232 
L 194.628468 264.667665 
L 195.437897 204.372298 
L 195.640254 199.407278 
L 195.842611 200.612776 
L 196.247325 206.619838 
L 196.449683 207.191939 
L 196.65204 206.803727 
L 197.056754 214.935735 
L 197.259112 215.773455 
L 197.461469 224.109785 
L 198.06854 272.002818 
L 198.473255 286.060159 
L 198.675612 286.16232 
L 198.877969 282.545824 
L 199.282684 252.040577 
L 199.687398 229.422152 
L 201.306256 163.610096 
L 201.508613 162.465894 
L 202.115684 181.488255 
L 202.318042 192.542065 
L 202.925113 256.045284 
L 203.329828 273.535232 
L 203.532185 275.619314 
L 203.734542 272.656648 
L 203.936899 261.235059 
L 204.341614 227.542391 
L 205.758114 173.356246 
L 205.960471 170.883952 
L 206.162829 171.026978 
L 206.365186 172.436798 
L 206.7699 184.185302 
L 206.972257 187.352291 
L 207.174615 198.099618 
L 207.781686 256.637818 
L 208.186401 272.656648 
L 208.388758 275.680611 
L 208.591115 272.370597 
L 208.793472 260.601661 
L 209.198187 227.092883 
L 209.805258 205.005695 
L 210.209973 185.28864 
L 210.817044 143.954337 
L 211.019402 135.536279 
L 211.221759 138.478513 
L 211.626473 162.751944 
L 211.82883 167.921286 
L 212.031188 182.530296 
L 212.638259 247.034692 
L 213.042974 265.46452 
L 213.245331 269.428363 
L 213.447688 267.732492 
L 213.650045 257.107758 
L 214.257117 214.200177 
L 214.661831 188.067417 
L 215.47126 129.202302 
L 215.875975 112.611371 
L 216.078332 112.141431 
L 216.280689 117.637688 
L 217.090118 180.895721 
L 217.697189 242.314859 
L 218.101904 260.622093 
L 218.304261 263.952539 
L 218.506618 265.301063 
L 218.708976 264.0547 
L 218.911333 251.427611 
L 219.518404 197.078009 
L 220.125476 162.159411 
L 220.327833 160.014032 
L 220.53019 162.220707 
L 221.541976 204.188408 
L 221.744334 209.296453 
L 222.553762 265.730138 
L 222.958477 276.51833 
L 223.160834 278.214201 
L 223.363191 278.561548 
L 223.565549 277.008703 
L 223.767906 268.36589 
L 224.374977 230.464193 
L 224.779692 222.945151 
L 225.386763 224.988369 
L 225.589121 228.482272 
L 225.791478 229.360856 
L 226.196192 237.676753 
L 226.398549 237.329406 
L 226.600907 243.704247 
L 227.410335 296.889215 
L 227.612693 300.893923 
L 227.81505 302.569362 
L 228.017407 299.402373 
L 228.826836 257.148622 
L 229.029193 254.839786 
L 229.23155 249.139207 
L 230.648051 186.228521 
L 230.850408 186.800622 
L 231.255122 201.103149 
L 231.45748 211.911773 
L 232.064551 275.088078 
L 232.469266 292.128517 
L 232.671623 294.825565 
L 232.87398 293.620066 
L 233.278694 268.529347 
L 233.683409 246.176541 
L 235.302267 182.10122 
L 235.504624 181.508687 
L 236.111695 200.469751 
L 236.314053 210.747138 
L 236.921124 272.39103 
L 237.325839 288.144241 
L 237.528196 291.249933 
L 237.730553 289.145418 
L 238.135267 265.382791 
L 238.539982 243.765543 
L 239.349411 213.076407 
L 239.754125 203.146367 
L 240.15884 193.012005 
L 240.361197 192.766819 
L 240.563554 198.181347 
L 240.968268 215.650862 
L 241.170626 223.169905 
L 241.777697 278.275498 
L 242.182412 294.008278 
L 242.384769 296.480571 
L 242.587126 293.517905 
L 242.99184 268.999288 
L 243.396555 251.182425 
L 245.21777 177.115768 
L 245.420127 181.324797 
L 246.027199 207.907065 
L 246.836627 280.809088 
L 247.038985 289.104554 
L 247.241342 292.25111 
L 247.443699 289.737952 
L 247.848413 266.363536 
L 249.467271 155.253334 
L 249.669628 147.243918 
L 249.871985 145.323293 
L 250.074343 145.486751 
L 250.2767 152.372396 
L 250.883772 184.226167 
L 251.6932 258.599307 
L 252.097915 273.003995 
L 252.300272 276.04839 
L 252.502629 276.314008 
L 252.704986 272.472758 
L 253.109701 239.98559 
L 253.91913 167.369617 
L 254.323844 151.698134 
L 254.728558 142.95316 
L 254.930916 141.706797 
L 255.133273 149.144111 
L 255.740345 186.310249 
L 256.549773 260.908144 
L 256.954488 276.252712 
L 257.156845 280.032665 
L 257.359202 281.687672 
L 257.561559 280.72736 
L 257.966274 252.081441 
L 258.573345 202.104326 
L 258.97806 180.609671 
L 259.382774 169.678454 
L 259.585131 166.266279 
L 259.787489 165.837204 
L 259.989846 168.432091 
L 260.39456 184.287463 
L 260.596917 197.527517 
L 261.203989 259.007951 
L 261.608704 277.560372 
L 261.811061 280.461741 
L 262.013418 279.685318 
L 262.418132 255.922691 
L 262.62049 244.01073 
L 263.025204 234.428037 
L 263.227561 231.64926 
L 263.429918 230.648083 
L 263.834633 231.914878 
L 264.03699 231.608396 
L 264.239347 232.548276 
L 264.441704 232.630005 
L 264.644062 232.364386 
L 264.846419 234.387172 
L 265.048776 238.39188 
L 265.251133 238.39188 
L 265.45349 242.376155 
L 266.060562 284.486881 
L 266.465277 297.21613 
L 266.667634 298.748544 
L 266.869991 294.600811 
L 267.072348 286.713989 
L 267.477063 260.438203 
L 268.084134 238.453176 
L 268.488849 228.257518 
L 269.09592 217.101547 
L 269.500635 213.178568 
L 269.702992 215.344379 
L 269.905349 218.920011 
L 270.107706 219.594273 
L 270.310063 225.84652 
L 270.917135 274.291222 
L 271.32185 286.16232 
L 271.524207 288.287267 
L 271.726564 286.591396 
L 274.15485 146.201877 
L 274.357208 139.091478 
L 274.559565 142.401491 
L 275.166636 167.349185 
L 275.976065 248.240191 
L 276.38078 260.703822 
L 276.583137 260.009128 
L 276.987851 238.351015 
L 277.392566 209.684665 
L 278.404352 153.210115 
L 278.606709 150.186153 
L 279.011423 137.068692 
L 279.213781 135.474982 
L 279.416138 139.704444 
L 280.023209 181.079611 
L 280.630281 251.836255 
L 281.034995 274.434248 
L 281.237353 279.276675 
L 281.43971 277.744261 
L 281.642067 271.900657 
L 282.249139 230.484626 
L 282.85621 197.118873 
L 283.867996 154.681233 
L 284.070354 153.496166 
L 284.272711 161.58731 
L 285.284497 243.990297 
L 285.689211 275.905365 
L 286.093926 290.534807 
L 286.296283 292.802779 
L 286.49864 291.004747 
L 286.700997 288.082945 
L 287.105712 257.31208 
L 287.712783 206.17033 
L 288.522212 163.078859 
L 288.724569 156.009324 
L 288.926927 154.088699 
L 289.129284 157.643899 
L 289.736355 191.193541 
L 290.545784 260.724254 
L 290.950499 275.884933 
L 291.152856 278.643277 
L 291.355213 278.725006 
L 291.55757 277.253889 
L 291.759927 264.871987 
L 292.771714 166.960974 
L 293.176428 145.139404 
L 293.581142 133.983433 
L 293.7835 132.267129 
L 293.985857 135.761033 
L 294.592928 161.096937 
L 295.402357 243.745111 
L 295.807072 258.333689 
L 296.009429 258.170231 
L 296.414143 238.0241 
L 297.830644 103.907262 
L 298.235358 90.68764 
L 298.437715 88.113185 
L 298.640073 88.378804 
L 298.84243 90.422022 
L 299.044787 98.411005 
L 299.449501 125.218027 
L 300.056573 203.7389 
L 300.461287 228.829619 
L 300.663645 234.816248 
L 300.866002 235.531374 
L 301.068359 228.74789 
L 301.473073 198.876041 
L 302.484859 94.201976 
L 302.687217 82.943844 
L 302.889574 83.046004 
L 303.091931 91.096284 
L 303.496646 99.698232 
L 303.90136 121.826285 
L 304.306074 149.614052 
L 304.913146 218.450071 
L 305.31786 243.663383 
L 305.520218 249.200504 
L 305.722575 247.422904 
L 305.924932 240.332937 
L 306.532004 200.592344 
L 307.54379 130.95947 
L 307.746147 120.804676 
L 307.948504 119.926092 
L 308.757933 152.025049 
L 309.162647 177.953487 
L 309.769719 240.618988 
L 310.174433 260.397339 
L 310.376791 264.769826 
L 310.579148 264.197725 
L 310.983862 240.905038 
L 312.198005 137.416039 
L 312.60272 125.851425 
L 312.805077 121.49937 
L 313.007434 122.051039 
L 313.209791 125.728831 
L 313.816863 153.169251 
L 314.01922 166.777084 
L 314.626292 229.033941 
L 315.031006 249.425258 
L 315.233364 253.981634 
L 315.435721 253.327804 
L 315.840435 234.652791 
L 316.24515 216.039073 
L 316.649864 204.086247 
L 317.054578 188.864272 
L 317.66165 181.386094 
L 317.864007 180.936586 
L 318.066364 180.03757 
L 318.268722 184.696107 
L 318.875793 206.721999 
L 319.685222 265.015012 
L 320.089937 277.723829 
L 320.292294 279.358403 
L 320.697008 271.471581 
L 321.101723 245.379686 
L 322.315866 167.85999 
L 322.72058 157.664331 
L 322.922937 155.355494 
L 323.125295 159.462363 
L 323.732366 186.943647 
L 324.541795 255.125836 
L 324.94651 269.346635 
L 325.148867 272.227572 
L 325.351224 272.288869 
L 325.553581 270.041329 
L 325.755938 257.78202 
L 326.970082 145.956691 
L 327.172439 139.663579 
L 327.374796 138.090301 
L 327.77951 132.55318 
L 327.981868 137.5182 
L 328.184225 146.263174 
L 328.791296 197.65011 
L 329.196011 241.150224 
L 329.398368 256.310903 
L 329.803083 266.363536 
L 330.00544 265.423656 
L 330.207797 259.84567 
L 330.814869 211.584858 
L 331.42194 173.560568 
L 331.826655 151.00344 
L 332.029012 148.122502 
L 332.231369 148.142934 
L 332.433726 148.326824 
L 332.636083 150.410907 
L 332.838441 154.926419 
L 333.243155 177.728733 
L 333.445512 186.698461 
L 334.052584 252.081441 
L 334.457298 273.759986 
L 334.659655 279.154082 
L 334.862013 276.763516 
L 335.266727 257.026029 
L 335.671442 232.793462 
L 336.48087 192.889412 
L 336.683228 187.842663 
L 336.885585 186.739325 
L 337.087942 180.589239 
L 337.290299 178.750342 
L 337.695014 185.186479 
L 338.099728 199.570735 
L 338.302085 205.414339 
L 339.111514 270.89948 
L 339.313871 277.069999 
L 339.516228 279.297107 
L 339.718586 275.251535 
L 340.1233 252.020145 
L 340.932729 207.784472 
L 342.349229 146.344902 
L 342.551587 146.263174 
L 343.158658 170.822656 
L 343.76573 233.263402 
L 344.170444 251.182425 
L 344.372801 255.922691 
L 344.575159 253.797745 
L 344.777516 246.912099 
L 345.18223 216.182099 
L 346.194016 133.963001 
L 346.598731 119.272262 
L 347.003445 112.6931 
L 347.205802 111.85538 
L 347.40816 115.022368 
L 347.610517 122.827462 
L 348.015231 148.796764 
L 348.82466 239.454353 
L 349.229374 256.47436 
L 349.431732 255.71837 
L 349.634089 249.956494 
L 349.836446 238.882252 
L 351.050589 134.98461 
L 351.455304 116.718239 
L 351.860018 107.911969 
L 352.062375 107.012953 
L 352.264733 110.629449 
L 352.46709 121.662827 
L 353.276519 204.331433 
L 353.681233 242.069672 
L 354.085947 262.154507 
L 354.288305 267.405577 
L 354.490662 267.977678 
L 354.693019 265.750571 
L 355.097733 223.925895 
L 355.704805 150.472203 
L 356.109519 125.892289 
L 356.716591 107.789376 
L 356.918948 106.706471 
L 357.121306 111.487601 
L 357.52602 136.986963 
L 357.728377 149.614052 
L 358.740163 244.623695 
L 359.144878 257.536834 
L 359.347235 259.396162 
L 359.549592 259.069247 
L 359.751949 245.1345 
L 360.763735 125.095434 
L 361.16845 106.113937 
L 361.573164 95.060127 
L 361.775521 92.771723 
L 361.977879 96.040872 
L 362.180236 103.008246 
L 362.58495 128.671066 
L 363.394379 216.999386 
L 363.799093 234.571062 
L 364.001451 235.388349 
L 364.203808 229.524313 
L 364.406165 219.512544 
L 365.013237 150.247449 
L 365.620308 85.967806 
L 366.025023 69.867247 
L 366.429737 63.717161 
L 366.632094 64.207533 
L 366.834451 66.843285 
L 367.036809 75.526962 
L 367.441523 104.601956 
L 368.048595 183.919684 
L 368.453309 214.32277 
L 368.655666 222.822558 
L 368.858024 225.192691 
L 369.060381 221.310576 
L 369.262738 211.482697 
L 369.86981 148.183799 
L 370.476881 90.2177 
L 370.881596 73.647201 
L 371.083953 73.197693 
L 371.28631 73.912819 
L 371.488667 77.835798 
L 371.691024 84.047181 
L 372.298096 122.90919 
L 373.107525 207.661879 
L 373.512239 229.830796 
L 373.714597 234.18285 
L 374.119311 233.488156 
L 374.321668 220.779339 
L 375.333454 117.229044 
L 375.738169 104.009423 
L 375.940526 101.312375 
L 376.142883 100.209037 
L 376.34524 105.378379 
L 376.749955 131.552003 
L 377.559383 190.314957 
L 377.964098 224.886208 
L 378.368812 238.657498 
L 378.57117 238.882252 
L 378.773527 232.956919 
L 378.975884 221.760084 
L 380.392384 105.357947 
L 380.797099 95.448339 
L 381.201813 87.867999 
L 381.40417 91.627521 
L 382.011242 128.589337 
L 382.820671 211.319239 
L 383.225385 227.399366 
L 383.427743 228.053196 
L 383.6301 222.720397 
L 384.034814 200.510615 
L 385.0466 127.179516 
L 385.451315 110.506856 
L 385.653672 110.036916 
L 385.856029 113.81687 
L 386.058386 121.438073 
L 387.070172 191.336566 
L 387.474887 231.404074 
L 387.879601 253.266508 
L 388.284316 262.399693 
L 388.68903 264.912851 
L 388.891387 259.171408 
L 389.700816 215.671294 
L 390.307888 204.474459 
L 390.914959 191.74521 
L 391.117316 196.52634 
L 391.926745 236.062611 
L 392.533817 280.216555 
L 392.938531 292.578025 
L 393.140888 294.437353 
L 393.343246 293.987845 
L 393.545603 294.457786 
L 393.74796 285.50849 
L 394.355032 244.378509 
L 395.569175 187.944824 
L 395.771532 181.937763 
L 395.973889 183.143261 
L 396.176247 191.459159 
L 396.783318 233.467724 
L 397.188033 271.961954 
L 397.592747 289.778816 
L 397.795104 292.557593 
L 397.997461 290.024002 
L 398.402176 271.900657 
L 400.628105 144.362981 
L 400.830462 147.203054 
L 401.03282 157.153526 
L 401.639891 214.159313 
L 402.044606 258.476714 
L 402.44932 278.786302 
L 402.651677 282.79101 
L 402.854034 281.136003 
L 403.258749 262.951362 
L 403.663463 234.55063 
L 404.877607 128.568905 
L 405.282321 108.054995 
L 405.484678 103.845965 
L 405.687035 104.928871 
L 405.889393 115.431012 
L 406.294107 152.78104 
L 406.901179 230.157711 
L 407.305893 254.206388 
L 407.50825 259.804806 
L 407.710607 259.273569 
L 408.115322 238.044533 
L 409.73418 105.827887 
L 409.936537 100.903731 
L 410.138894 100.760706 
L 410.341251 105.357947 
L 410.948323 141.441179 
L 411.15068 157.337416 
L 411.757752 227.889739 
L 412.162466 251.938416 
L 412.364823 258.415418 
L 412.56718 260.193017 
L 412.971895 242.151401 
L 414.388395 144.117795 
L 414.79311 130.591691 
L 415.197824 123.930799 
L 415.400181 130.693852 
L 416.20961 193.195894 
L 416.614325 238.39188 
L 417.019039 261.43938 
L 417.221396 265.689274 
L 417.423753 265.137605 
L 417.828468 248.996182 
L 419.244968 151.350787 
L 419.649683 137.763386 
L 419.85204 133.942568 
L 420.054397 135.372821 
L 420.256754 144.015634 
L 421.066183 209.17386 
L 421.673255 264.136428 
L 422.077969 280.175691 
L 422.280326 282.647985 
L 422.482684 281.994155 
L 422.685041 281.830697 
L 423.089755 251.161993 
L 423.899184 182.305542 
L 424.708613 143.116618 
L 424.91097 139.94963 
L 425.113327 143.933905 
L 425.518042 169.964504 
L 425.720399 181.713009 
L 426.529828 256.024852 
L 426.934542 274.515976 
L 427.136899 278.970192 
L 427.339257 279.767047 
L 427.541614 279.991801 
L 427.743971 271.430717 
L 428.148685 231.261048 
L 428.755757 169.658021 
L 429.160471 144.138227 
L 429.565186 135.92449 
L 429.9699 139.827037 
L 430.374615 155.96846 
L 430.576972 167.553507 
L 431.386401 243.17301 
L 431.791115 255.35059 
L 431.993472 253.327804 
L 432.398187 233.120377 
L 433.207616 168.350362 
L 434.017044 98.329276 
L 434.219402 93.466417 
L 435.02883 120.743379 
L 435.433545 145.609344 
L 436.040617 216.447717 
L 436.445331 238.86182 
L 436.647688 243.969865 
L 436.850045 243.295603 
L 437.25476 222.802125 
L 437.659474 188.067417 
L 438.468903 114.981504 
L 438.67126 105.29665 
L 438.873617 106.256963 
L 439.075975 113.326497 
L 439.278332 112.876989 
L 439.480689 115.104097 
L 439.885403 133.554357 
L 440.290118 158.175136 
L 440.897189 231.199752 
L 441.301904 253.389101 
L 441.504261 258.783197 
L 441.706618 259.314434 
L 442.111333 244.664559 
L 442.920762 192.930276 
L 443.527833 158.256864 
L 444.134905 135.638439 
L 444.337262 133.063985 
L 444.539619 139.438825 
L 445.146691 184.246599 
L 445.753762 253.041754 
L 446.158477 274.127765 
L 446.360834 279.051921 
L 446.563191 277.069999 
L 446.967906 258.272392 
L 448.586763 149.103247 
L 448.991478 135.985787 
L 449.193835 133.67695 
L 449.396192 140.296977 
L 450.003264 180.446213 
L 450.812693 260.02956 
L 451.217407 273.249181 
L 451.419764 273.371774 
L 451.824479 256.290471 
L 452.43155 206.17033 
L 453.038622 164.509112 
L 453.443336 147.570833 
L 453.848051 139.745308 
L 454.050408 143.096186 
L 454.252765 153.026226 
L 454.65748 181.263501 
L 454.859837 189.661127 
L 455.669266 254.002066 
L 456.07398 267.466874 
L 456.276337 268.978855 
L 456.478694 266.996934 
L 456.681052 263.911674 
L 456.883409 255.963556 
L 457.288123 229.115669 
L 457.692838 218.225317 
L 457.895195 218.920011 
L 458.299909 224.641022 
L 458.502267 224.497996 
L 458.906981 220.697611 
L 459.109338 221.228847 
L 459.514053 225.356148 
L 459.71641 229.626474 
L 460.728196 286.979607 
L 461.13291 291.372526 
L 461.537625 288.082945 
L 461.739982 279.215378 
L 462.144696 244.930178 
L 463.561197 176.19632 
L 463.763554 168.983759 
L 463.965911 170.148394 
L 464.572983 189.49767 
L 465.382412 256.045284 
L 465.584769 262.910497 
L 465.787126 265.607545 
L 465.989483 263.196548 
L 467.608341 171.251732 
L 468.620127 150.206585 
L 468.822484 153.312276 
L 469.429556 179.38374 
L 470.036627 235.735696 
L 470.441342 253.409533 
L 470.643699 256.024852 
L 470.846056 253.47083 
L 471.857842 202.880748 
L 472.869628 172.82501 
L 473.071985 173.315382 
L 473.274343 171.537782 
L 473.4767 172.784145 
L 473.679057 176.543667 
L 473.881414 183.081965 
L 474.083772 184.226167 
L 474.286129 191.84737 
L 474.8932 243.622518 
L 475.297915 259.763942 
L 475.500272 261.418948 
L 475.702629 259.396162 
L 476.107344 235.184027 
L 476.512058 213.321593 
L 477.321487 182.039923 
L 477.726201 162.016386 
L 477.928558 158.481618 
L 478.333273 163.140156 
L 478.53563 167.573939 
L 479.142702 192.337743 
L 479.952131 259.661781 
L 480.356845 269.448795 
L 480.559202 269.040152 
L 480.963917 247.095989 
L 482.785131 119.558313 
L 482.987489 113.694277 
L 483.189846 111.078957 
L 483.392203 116.677375 
L 483.999275 156.274943 
L 484.606346 226.908994 
L 485.011061 249.976927 
L 485.213418 254.349413 
L 485.415775 255.289294 
L 485.82049 235.653967 
L 486.225204 204.658348 
L 487.23699 115.287987 
L 487.439347 112.22316 
L 487.844062 118.741025 
L 488.248776 137.23215 
L 489.260562 214.241041 
L 489.665277 246.176541 
L 490.069991 261.173762 
L 490.272348 263.503031 
L 490.474705 262.379261 
L 490.677063 260.622093 
L 490.87942 250.957671 
L 491.891206 171.782968 
L 492.29592 154.19086 
L 492.498277 146.855707 
L 492.700635 144.853353 
L 492.902992 146.467496 
L 493.105349 151.248626 
L 493.712421 184.53265 
L 494.52185 256.024852 
L 495.128921 274.168629 
L 495.331278 274.311655 
L 495.533636 273.698689 
L 495.735993 266.200079 
L 496.950136 175.338168 
L 497.557208 151.146465 
L 497.759565 147.81602 
L 497.961922 151.00344 
L 498.568994 182.28511 
L 499.378422 255.575344 
L 499.58078 262.358829 
L 499.783137 264.831122 
L 499.985494 261.541541 
L 500.187851 253.082618 
L 500.794923 216.427285 
L 500.99728 211.360104 
L 501.401995 198.365236 
L 501.806709 187.188833 
L 502.009066 186.739325 
L 502.211423 188.782543 
L 502.413781 189.415941 
L 502.616138 187.760934 
L 503.020852 197.404924 
L 503.223209 197.956593 
L 503.425567 205.414339 
L 504.032638 255.738802 
L 504.437353 268.713237 
L 504.63971 270.327379 
L 504.842067 267.977678 
L 505.246782 243.785976 
L 505.651496 220.145942 
L 507.270354 147.529969 
L 507.472711 144.44471 
L 507.675068 147.81602 
L 508.28214 175.644651 
L 508.889211 233.24297 
L 509.293926 250.242545 
L 509.496283 253.736448 
L 509.69864 251.917984 
L 510.103354 228.543568 
L 511.722212 122.950055 
L 512.126927 105.317082 
L 512.329284 106.89036 
L 512.936355 141.012103 
L 513.34107 179.66979 
L 513.745784 222.822558 
L 514.150499 245.379686 
L 514.352856 250.916807 
L 514.555213 251.407179 
L 514.75757 242.580477 
L 516.174071 146.528792 
L 516.376428 145.445887 
L 516.781142 154.701665 
L 516.9835 151.984185 
L 517.185857 152.515421 
L 517.590571 170.087097 
L 517.792928 174.296127 
L 517.995286 184.920861 
L 518.4 224.293675 
L 518.4 224.293675 
" clip-path="url(#p4fab0a0ba4)" style="fill: none; stroke: #1f77b4; stroke-width: 1.5; stroke-linecap: square"/>
   </g>
   <g id="line2d_14">
    <path d="M 72 279.260568 
L 72.202357 279.260568 
L 72.809429 287.311526 
L 73.011786 282.437123 
L 73.618858 247.766644 
L 74.225929 223.515693 
L 75.237715 164.587723 
L 75.440073 164.524002 
L 75.64243 170.198079 
L 76.249501 205.274606 
L 76.856573 261.822197 
L 77.261287 280.085397 
L 77.463645 280.230057 
L 77.868359 260.790286 
L 78.273073 231.214125 
L 78.677788 222.871833 
L 79.082502 204.750404 
L 79.891931 157.237556 
L 80.094288 156.348446 
L 80.296646 161.726337 
L 80.70136 184.127086 
L 81.106074 218.036029 
L 81.510789 255.123914 
L 81.915503 275.413195 
L 82.11786 280.165988 
L 82.320218 279.727869 
L 83.129646 262.396392 
L 83.534361 241.126941 
L 83.939075 229.484079 
L 84.141432 227.807971 
L 84.546147 235.325395 
L 84.950861 244.63219 
L 85.355576 250.493475 
L 85.557933 254.906996 
L 85.76029 256.090893 
L 85.962647 261.088465 
L 86.772076 300.769467 
L 86.974433 303.335303 
L 87.176791 301.666453 
L 87.783862 285.350762 
L 88.593291 256.238337 
L 88.795648 254.289328 
L 88.998005 255.204067 
L 89.200363 258.323366 
L 89.40272 256.707751 
L 89.807434 250.449012 
L 90.009791 241.909393 
L 90.212149 239.362179 
L 90.414506 240.813624 
L 90.616863 243.649263 
L 90.81922 253.26857 
L 91.426292 296.025493 
L 91.628649 303.283851 
L 91.831006 304.152318 
L 92.033364 300.706465 
L 92.235721 292.492402 
L 93.04515 245.872078 
L 93.247507 244.326764 
L 93.449864 245.994283 
L 93.652221 245.35744 
L 93.854578 246.165972 
L 94.056936 242.551173 
L 94.259293 235.558261 
L 94.866364 230.447071 
L 95.068722 231.220071 
L 95.473436 240.848011 
L 95.675793 251.521085 
L 96.282865 294.799156 
L 96.485222 300.001041 
L 96.687579 299.657397 
L 96.889937 294.516124 
L 97.699365 249.18264 
L 98.10408 243.850982 
L 98.306437 244.441214 
L 98.508794 244.282078 
L 98.913509 238.045688 
L 99.318223 227.199391 
L 99.52058 225.341201 
L 99.722937 226.355763 
L 99.925295 229.095187 
L 100.330009 241.084458 
L 100.532366 252.302832 
L 100.937081 284.590274 
L 101.341795 298.601116 
L 101.544152 298.217 
L 101.74651 293.172479 
L 102.758296 246.817449 
L 102.960653 245.422037 
L 103.16301 245.693218 
L 103.365367 246.567414 
L 103.567724 243.136931 
L 104.377153 220.685216 
L 104.57951 220.519099 
L 104.984225 231.251003 
L 105.388939 250.117098 
L 105.996011 291.108347 
L 106.198368 296.318996 
L 106.400725 296.356023 
L 106.603083 291.984665 
L 107.210154 258.771418 
L 107.412511 248.944775 
L 107.817226 242.721043 
L 108.019583 242.911153 
L 108.22194 240.272894 
L 108.626655 220.686135 
L 109.031369 202.577515 
L 109.233726 204.579142 
L 109.638441 214.456319 
L 110.043155 234.3911 
L 110.447869 262.058849 
L 110.852584 286.300695 
L 111.054941 291.978962 
L 111.257298 292.864168 
L 111.459655 288.405039 
L 111.86437 270.772701 
L 112.269084 248.595244 
L 112.876156 226.430979 
L 113.887942 182.096875 
L 114.090299 180.275657 
L 114.292656 183.662531 
L 114.495014 189.79348 
L 115.911514 280.425411 
L 116.113871 282.824778 
L 116.316228 282.543874 
L 116.720943 271.792438 
L 116.9233 269.445969 
L 117.125657 261.785045 
L 117.935086 202.426348 
L 118.542158 162.799561 
L 118.946872 150.940011 
L 119.149229 151.706885 
L 119.351587 156.964014 
L 119.958658 205.675457 
L 120.363373 243.792104 
L 120.768087 269.670965 
L 121.172801 279.695292 
L 121.375159 278.444756 
L 121.779873 271.473234 
L 121.98223 262.773644 
L 122.589302 220.021483 
L 122.994016 207.529445 
L 123.196374 205.977946 
L 123.601088 198.175647 
L 124.005802 203.606836 
L 124.612874 225.419208 
L 125.017588 250.461651 
L 125.422303 281.717983 
L 125.62466 291.948674 
L 125.827017 295.02378 
L 126.029374 293.438419 
L 126.231732 286.426946 
L 127.850589 186.270707 
L 128.660018 152.725672 
L 128.862375 157.013342 
L 129.26709 190.323922 
L 130.278876 279.638776 
L 130.481233 285.162403 
L 130.68359 286.531463 
L 130.885947 282.047644 
L 131.290662 260.822464 
L 132.100091 210.827093 
L 132.707162 169.457601 
L 133.111877 144.929315 
L 133.314234 140.461937 
L 133.516591 141.244483 
L 133.921306 156.133958 
L 134.32602 185.024419 
L 135.135449 261.025544 
L 135.337806 269.363696 
L 135.540163 273.054797 
L 135.74252 269.928122 
L 135.944878 262.947611 
L 136.349592 235.305861 
L 136.754306 210.927908 
L 136.956664 202.523204 
L 137.159021 201.856561 
L 137.361378 202.244886 
L 137.563735 198.20407 
L 137.766092 198.715562 
L 137.96845 198.855609 
L 138.373164 201.952579 
L 138.575521 202.320589 
L 138.777879 203.291853 
L 139.38495 235.99778 
L 139.992022 276.784645 
L 140.194379 282.500901 
L 140.396736 284.983465 
L 140.599093 279.886009 
L 141.003808 258.38507 
L 141.610879 223.639244 
L 141.813237 220.680967 
L 142.015594 214.632193 
L 142.217951 215.928652 
L 142.622665 209.674761 
L 142.825023 210.745142 
L 143.02738 210.343846 
L 143.634451 218.666254 
L 144.039166 231.205721 
L 144.241523 239.512804 
L 144.848595 278.016573 
L 145.050952 284.406167 
L 145.253309 283.503465 
L 145.455666 278.869276 
L 146.062738 242.208366 
L 146.467452 224.057673 
L 146.872167 219.353681 
L 147.074524 216.795959 
L 147.276881 217.523063 
L 147.479238 214.029378 
L 147.681596 207.306439 
L 148.08631 217.278223 
L 148.693382 231.905013 
L 149.098096 247.371427 
L 149.705168 280.166336 
L 149.907525 284.418381 
L 150.109882 284.725022 
L 150.312239 282.165325 
L 150.919311 263.074626 
L 151.121668 258.219302 
L 151.526383 242.541283 
L 151.931097 234.884006 
L 152.133454 233.427298 
L 152.335811 234.431435 
L 152.538169 234.778866 
L 152.740526 235.829346 
L 152.942883 236.150129 
L 153.14524 236.119541 
L 153.347597 239.40672 
L 153.752312 241.404781 
L 154.157026 254.716797 
L 154.561741 276.665804 
L 154.764098 283.156934 
L 154.966455 285.466822 
L 155.168812 285.931418 
L 155.775884 272.721648 
L 155.978241 264.636399 
L 156.990027 194.682889 
L 158.001813 157.428969 
L 158.20417 160.210265 
L 158.608885 187.720134 
L 159.620671 275.431703 
L 159.823028 278.70169 
L 160.025385 277.639495 
L 160.227743 270.855526 
L 160.4301 258.816492 
L 161.037171 211.458697 
L 161.441886 192.542421 
L 161.8466 181.130604 
L 162.453672 175.904902 
L 162.656029 178.04356 
L 163.263101 203.244179 
L 163.667815 229.419352 
L 164.274887 275.064616 
L 164.477244 283.475896 
L 164.679601 286.618254 
L 164.881958 282.866957 
L 165.48903 245.242584 
L 165.893744 223.090736 
L 166.096102 219.752861 
L 166.298459 219.107598 
L 166.500816 216.091459 
L 166.90553 197.495769 
L 167.310245 172.702828 
L 167.512602 172.684764 
L 167.714959 179.669645 
L 168.524388 229.888265 
L 169.13146 271.021654 
L 169.333817 277.879604 
L 169.536174 279.064134 
L 169.738531 275.860847 
L 170.143246 255.836333 
L 171.357389 176.514566 
L 171.762103 160.542483 
L 172.166818 153.941539 
L 172.369175 155.837743 
L 172.773889 171.5919 
L 173.380961 219.678446 
L 173.988033 272.93001 
L 174.19039 282.486539 
L 174.392747 284.947319 
L 174.595104 280.213604 
L 174.999819 259.546528 
L 175.404533 231.709718 
L 176.416319 192.534837 
L 177.023391 173.235331 
L 177.225748 169.376653 
L 177.630462 179.801836 
L 178.439891 246.845645 
L 178.844606 278.623688 
L 179.046963 286.616938 
L 179.24932 288.743364 
L 179.451677 285.855495 
L 179.856392 265.477949 
L 181.879964 152.760199 
L 182.082321 150.726702 
L 182.487035 162.126764 
L 183.094107 213.085264 
L 183.498821 246.207952 
L 183.903536 264.336889 
L 184.105893 267.296343 
L 184.30825 267.820036 
L 185.117679 244.408004 
L 186.129465 152.252543 
L 186.331822 143.702792 
L 186.53418 140.827137 
L 186.736537 143.260453 
L 187.141251 164.30561 
L 187.545966 190.391244 
L 188.153037 228.297073 
L 188.760109 262.670605 
L 189.164823 269.235477 
L 189.36718 266.448816 
L 189.771895 252.232637 
L 189.974252 241.877765 
L 190.783681 181.396863 
L 191.188395 165.351184 
L 191.390752 161.728646 
L 191.59311 162.675606 
L 191.795467 167.517992 
L 192.604896 204.171931 
L 193.819039 273.923755 
L 194.021396 275.753699 
L 194.223753 271.879595 
L 194.830825 245.111541 
L 195.640254 194.471544 
L 195.842611 192.09435 
L 196.449683 211.984493 
L 196.65204 214.323607 
L 196.854397 214.159183 
L 197.056754 215.220915 
L 197.663826 232.16542 
L 198.473255 284.243676 
L 198.675612 287.682578 
L 198.877969 284.711362 
L 199.282684 260.75274 
L 199.889755 213.441468 
L 200.699184 188.385912 
L 201.103898 177.9306 
L 201.508613 168.870251 
L 201.71097 170.023154 
L 201.913327 176.642897 
L 203.329828 270.51892 
L 203.532185 272.45307 
L 203.734542 268.311773 
L 204.139257 244.552437 
L 204.746328 205.57948 
L 205.151043 196.466024 
L 205.960471 170.263023 
L 206.162829 170.542189 
L 206.567543 182.070548 
L 206.972257 197.090014 
L 207.376972 220.781718 
L 207.984044 263.03505 
L 208.186401 269.527528 
L 208.388758 271.384054 
L 208.591115 268.236023 
L 208.99583 245.841356 
L 209.400544 215.606038 
L 210.41233 180.291018 
L 211.019402 145.800147 
L 211.221759 142.088521 
L 211.424116 149.403228 
L 212.031188 189.09397 
L 212.233545 203.787385 
L 212.638259 241.942889 
L 213.042974 261.452036 
L 213.245331 263.669892 
L 213.650045 253.912783 
L 215.875975 116.49988 
L 216.078332 117.490466 
L 216.483046 129.840762 
L 217.292475 204.763149 
L 217.697189 237.924237 
L 218.101904 254.034643 
L 218.304261 253.630756 
L 218.911333 242.25237 
L 219.316047 217.975802 
L 220.327833 152.913423 
L 220.53019 151.939391 
L 220.732548 158.188942 
L 221.339619 192.681203 
L 222.149048 238.644467 
L 222.75612 270.813111 
L 222.958477 274.646613 
L 223.160834 275.757398 
L 223.363191 273.261999 
L 223.767906 259.433412 
L 224.577335 215.663871 
L 224.779692 213.932274 
L 224.982049 215.219991 
L 225.589121 226.728146 
L 225.993835 232.768084 
L 226.803264 249.808101 
L 227.612693 296.816491 
L 227.81505 299.811807 
L 228.017407 296.90021 
L 228.219764 289.003339 
L 229.029193 239.990696 
L 229.636265 235.915324 
L 229.838622 232.370403 
L 230.040979 223.271576 
L 230.445694 200.435519 
L 230.850408 191.681954 
L 231.052765 193.81858 
L 231.45748 215.581584 
L 231.862194 249.29085 
L 232.266908 279.186723 
L 232.469266 287.317447 
L 232.671623 290.020519 
L 232.87398 286.531016 
L 233.076337 278.724368 
L 233.885766 233.511035 
L 235.302267 182.052853 
L 235.504624 181.246466 
L 235.909338 191.669634 
L 236.51641 230.938081 
L 237.123481 276.875768 
L 237.325839 283.969053 
L 237.528196 286.043066 
L 237.730553 282.918129 
L 238.135267 263.647735 
L 238.742339 231.286036 
L 239.147053 216.599342 
L 239.551768 205.368181 
L 239.956482 197.782414 
L 240.15884 196.721513 
L 240.361197 196.976923 
L 240.968268 212.420766 
L 242.182412 287.612513 
L 242.384769 289.762648 
L 242.587126 286.876796 
L 242.99184 266.450765 
L 243.396555 243.518608 
L 245.015413 186.850618 
L 245.21777 183.920942 
L 245.420127 186.128921 
L 245.622484 190.252995 
L 246.229556 229.40154 
L 246.836627 273.137343 
L 247.241342 286.297772 
L 247.443699 284.013851 
L 247.848413 265.0904 
L 249.264914 168.985527 
L 249.669628 145.271073 
L 249.871985 140.494974 
L 250.074343 143.688089 
L 250.681414 174.481758 
L 251.490843 243.104831 
L 251.895558 263.822629 
L 252.097915 269.033247 
L 252.300272 269.11182 
L 252.704986 259.878551 
L 252.907344 254.296229 
L 253.109701 243.41075 
L 254.121487 156.439911 
L 254.323844 148.505491 
L 254.526201 145.34779 
L 254.930916 147.182576 
L 255.133273 151.959748 
L 255.537987 174.663821 
L 256.549773 255.143036 
L 256.954488 272.495007 
L 257.156845 273.876884 
L 257.359202 272.308857 
L 257.763917 261.24002 
L 258.168631 233.914842 
L 258.775703 189.935126 
L 259.180417 176.851918 
L 259.382774 172.137092 
L 259.585131 170.56141 
L 259.787489 170.519449 
L 259.989846 174.176343 
L 260.192203 180.019294 
L 260.799275 213.118099 
L 261.406346 266.56641 
L 261.811061 281.27493 
L 262.013418 281.139828 
L 262.215775 274.588595 
L 262.62049 247.604525 
L 263.025204 219.556635 
L 263.227561 215.830238 
L 263.429918 215.603199 
L 264.03699 229.481631 
L 264.239347 228.134839 
L 264.441704 228.054657 
L 264.644062 228.289203 
L 264.846419 229.141653 
L 265.45349 245.769424 
L 265.858205 264.855642 
L 266.262919 285.290659 
L 266.465277 291.916196 
L 266.667634 292.84067 
L 266.869991 289.081987 
L 267.67942 248.540447 
L 268.084134 236.663824 
L 268.286491 235.358082 
L 269.298277 213.49809 
L 269.905349 220.828072 
L 270.310063 232.432763 
L 270.714778 253.243425 
L 271.119492 277.597484 
L 271.32185 283.279275 
L 271.524207 284.222115 
L 271.726564 280.343101 
L 271.928921 272.661408 
L 272.535993 235.793544 
L 273.143064 209.65803 
L 273.952493 160.596938 
L 274.357208 147.422715 
L 274.559565 147.660292 
L 274.761922 150.58337 
L 275.368994 190.280316 
L 275.976065 245.720641 
L 276.178422 255.023997 
L 276.38078 258.308799 
L 276.583137 257.27439 
L 276.785494 250.994201 
L 278.201995 162.512445 
L 278.606709 145.338816 
L 279.011423 141.419697 
L 279.213781 142.77928 
L 279.618495 151.587318 
L 280.023209 184.677017 
L 281.034995 267.806302 
L 281.237353 272.134506 
L 281.43971 270.669879 
L 281.642067 263.956173 
L 283.260925 178.651668 
L 283.867996 157.157282 
L 284.070354 157.58616 
L 284.272711 162.710082 
L 284.677425 186.662892 
L 285.891568 278.279652 
L 286.093926 282.362969 
L 286.296283 282.342233 
L 286.49864 278.974414 
L 287.105712 257.808144 
L 288.319855 173.109747 
L 288.724569 159.043519 
L 288.926927 155.593023 
L 289.129284 160.018759 
L 289.331641 167.311721 
L 289.736355 195.868887 
L 290.748141 268.162886 
L 290.950499 274.557314 
L 291.152856 275.832608 
L 291.355213 273.539309 
L 291.759927 261.383641 
L 291.962285 251.41915 
L 292.771714 172.737115 
L 293.176428 144.7534 
L 293.378785 137.311753 
L 293.581142 134.385292 
L 293.7835 134.012216 
L 293.985857 137.414978 
L 294.390571 158.679455 
L 295.604714 255.047842 
L 295.807072 261.715431 
L 296.009429 263.165538 
L 296.211786 257.68998 
L 296.6165 229.027968 
L 298.033001 96.008887 
L 298.235358 87.380631 
L 298.437715 85.338737 
L 298.640073 86.297905 
L 299.044787 103.296627 
L 299.247144 116.523303 
L 300.25893 219.21634 
L 300.663645 237.522131 
L 300.866002 235.900776 
L 301.473073 207.035721 
L 302.080145 142.766693 
L 302.484859 93.229506 
L 302.889574 71.936871 
L 303.091931 70.470065 
L 303.496646 90.128619 
L 304.103717 139.250626 
L 304.710789 196.521895 
L 305.31786 242.437257 
L 305.520218 247.604001 
L 305.722575 246.090216 
L 306.127289 225.138503 
L 307.341432 136.525812 
L 307.948504 121.20373 
L 308.150861 122.487476 
L 308.555576 145.023833 
L 310.376791 262.421758 
L 310.579148 259.616304 
L 310.781505 253.07083 
L 311.186219 228.53617 
L 312.400363 125.854538 
L 312.60272 120.173628 
L 312.805077 118.601952 
L 313.007434 119.511345 
L 313.209791 124.217205 
L 313.816863 163.557138 
L 315.031006 250.884207 
L 315.233364 254.652668 
L 315.435721 251.661822 
L 315.840435 230.49725 
L 316.24515 207.952725 
L 316.852221 191.584786 
L 317.256936 186.866438 
L 317.459293 188.44977 
L 317.66165 188.7767 
L 318.471079 199.10214 
L 318.673436 203.722431 
L 319.07815 222.478812 
L 319.685222 258.395432 
L 319.887579 266.870234 
L 320.089937 270.095839 
L 320.292294 269.632454 
L 320.899365 252.277727 
L 321.30408 235.410923 
L 321.708794 213.524522 
L 322.315866 171.41488 
L 322.72058 156.268532 
L 322.922937 155.886414 
L 323.125295 157.929947 
L 323.327652 163.110919 
L 323.934723 204.296236 
L 324.541795 249.432198 
L 324.744152 260.605763 
L 325.148867 268.236445 
L 325.351224 266.493652 
L 325.755938 254.966171 
L 325.958296 244.992387 
L 327.172439 138.044771 
L 327.374796 132.438766 
L 327.577153 132.660559 
L 327.981868 138.05943 
L 328.184225 145.890407 
L 328.386582 158.18523 
L 329.398368 248.440471 
L 329.803083 268.597219 
L 330.00544 267.750475 
L 330.207797 262.961619 
L 330.612511 234.278769 
L 331.219583 179.218629 
L 331.826655 148.773007 
L 332.029012 143.122545 
L 332.231369 142.442866 
L 332.433726 145.270663 
L 332.838441 162.155177 
L 333.243155 183.995786 
L 334.457298 269.111249 
L 334.659655 274.397573 
L 334.862013 273.886429 
L 335.06437 265.544985 
L 335.873799 213.620892 
L 336.278513 200.644257 
L 336.885585 185.902019 
L 337.087942 185.622587 
L 337.290299 184.557245 
L 337.492656 185.034821 
L 338.504442 224.707838 
L 339.111514 266.450616 
L 339.313871 275.31172 
L 339.516228 278.642518 
L 339.718586 275.1142 
L 340.1233 252.905922 
L 340.730372 217.223631 
L 341.135086 200.24253 
L 341.742158 172.947805 
L 342.146872 158.854992 
L 342.349229 153.826906 
L 342.551587 156.726568 
L 342.753944 161.466672 
L 342.956301 169.299995 
L 343.563373 213.982816 
L 343.968087 245.170276 
L 344.170444 253.234239 
L 344.372801 254.569772 
L 344.575159 253.262646 
L 344.777516 247.465433 
L 345.789302 180.064579 
L 346.396374 125.048632 
L 346.598731 113.233691 
L 346.801088 110.010997 
L 347.003445 109.311295 
L 347.205802 112.543907 
L 347.610517 127.336004 
L 347.812874 138.127682 
L 349.027017 246.024794 
L 349.229374 252.631988 
L 349.431732 251.93785 
L 349.634089 245.370806 
L 350.24116 206.802988 
L 351.252947 127.984664 
L 351.657661 112.841494 
L 351.860018 109.325818 
L 352.062375 109.982124 
L 352.264733 114.760898 
L 352.669447 137.185259 
L 353.478876 221.016271 
L 353.88359 249.649843 
L 354.085947 256.680223 
L 354.288305 257.253357 
L 354.490662 254.350468 
L 354.895376 241.196102 
L 355.300091 210.883631 
L 356.109519 124.117312 
L 356.514234 108.528588 
L 356.716591 105.487413 
L 356.918948 104.846276 
L 357.121306 109.737528 
L 357.52602 135.085117 
L 358.335449 217.150656 
L 358.740163 246.854316 
L 358.94252 254.294755 
L 359.144878 256.169867 
L 359.347235 253.520759 
L 359.751949 238.458897 
L 360.156664 205.546625 
L 360.966092 113.506377 
L 361.370807 96.525822 
L 361.573164 93.525318 
L 361.775521 92.764768 
L 361.977879 95.568813 
L 362.382593 119.165019 
L 363.394379 219.858035 
L 363.596736 236.343925 
L 363.799093 243.494133 
L 364.001451 242.943305 
L 364.203808 236.213633 
L 364.608522 208.992181 
L 365.215594 139.770757 
L 365.620308 85.661993 
L 366.025023 60.984488 
L 366.22738 56.070601 
L 366.429737 55.8 
L 366.632094 58.458541 
L 366.834451 65.344166 
L 367.239166 95.968297 
L 368.048595 182.511034 
L 368.453309 214.598443 
L 368.655666 222.982545 
L 368.858024 222.890935 
L 369.262738 210.75594 
L 369.667452 179.189381 
L 370.679238 75.808449 
L 371.083953 62.313908 
L 371.28631 64.202627 
L 371.488667 69.721842 
L 371.893382 97.052078 
L 372.500453 154.645151 
L 373.107525 206.970098 
L 373.512239 228.397459 
L 373.714597 228.181292 
L 374.119311 218.602461 
L 374.321668 211.778102 
L 374.726383 186.07382 
L 375.535811 103.198416 
L 375.940526 94.44515 
L 376.142883 96.103511 
L 376.34524 99.287315 
L 376.547597 108.595469 
L 378.166455 234.598689 
L 378.368812 242.219085 
L 378.57117 243.000795 
L 378.773527 236.957786 
L 379.178241 209.554044 
L 379.98767 130.815707 
L 380.392384 98.285286 
L 380.594742 92.705484 
L 380.797099 90.741518 
L 381.201813 95.372293 
L 381.40417 98.26571 
L 381.606528 106.347217 
L 382.213599 157.417009 
L 383.023028 223.907854 
L 383.225385 229.247856 
L 383.427743 226.748392 
L 383.832457 213.35192 
L 384.237171 188.194586 
L 384.237171 188.194586 
" clip-path="url(#p4fab0a0ba4)" style="fill: none; stroke: #ff7f0e; stroke-width: 1.5; stroke-linecap: square"/>
   </g>
   <g id="line2d_15">
    <path d="M 384.439529 174.274743 
L 385.248957 134.28988 
L 385.653672 123.967985 
L 385.856029 124.151305 
L 386.058386 129.820318 
L 386.260743 139.660953 
L 387.474887 225.18736 
L 387.879601 240.396377 
L 388.081958 242.400673 
L 388.284316 240.004397 
L 388.486673 234.948761 
L 389.296102 195.485807 
L 390.10553 152.834831 
L 390.307888 147.086761 
L 390.510245 144.656517 
L 390.712602 145.788485 
L 390.914959 152.334443 
L 392.33146 237.166791 
L 392.736174 245.272837 
L 392.938531 245.479248 
L 393.140888 242.191367 
L 393.545603 229.150077 
L 394.557389 190.046855 
L 394.962103 179.201971 
L 395.164461 178.129991 
L 395.366818 180.774137 
L 395.771532 196.542876 
L 396.580961 231.232772 
L 396.985675 244.937062 
L 397.188033 248.366254 
L 397.39039 249.474076 
L 397.592747 248.771383 
L 397.795104 246.486401 
L 397.997461 242.529581 
L 398.402176 228.390492 
L 399.211605 197.011226 
L 399.616319 189.345002 
L 399.818676 189.327832 
L 400.021034 192.049689 
L 400.425748 204.77937 
L 401.235177 234.762263 
L 401.639891 243.856685 
L 401.842248 245.933801 
L 402.044606 246.49095 
L 402.246963 245.541933 
L 402.44932 243.137092 
L 402.854034 234.179634 
L 403.86582 205.011311 
L 404.068178 202.917555 
L 404.270535 203.093772 
L 404.675249 209.945079 
L 405.889393 236.007331 
L 406.294107 240.24143 
L 406.496464 241.026747 
L 406.698821 240.628607 
L 406.901179 239.229417 
L 407.305893 233.789065 
L 407.912965 219.751736 
L 408.317679 210.791952 
L 408.520036 209.200742 
L 408.722393 209.195481 
L 408.924751 210.86683 
L 409.329465 218.017543 
L 409.936537 229.062017 
L 410.341251 232.991271 
L 410.543608 234.072678 
L 410.745966 234.381628 
L 410.948323 234.288582 
L 411.353037 233.315725 
L 411.757752 230.595423 
L 412.162466 225.88284 
L 412.769538 216.806329 
L 412.971895 215.75261 
L 413.376609 217.127249 
L 413.781324 221.18384 
L 414.388395 228.187994 
L 414.79311 229.992415 
L 414.995467 230.048428 
L 415.197824 229.799761 
L 415.804896 228.135052 
L 416.816682 224.227436 
L 417.626111 219.85049 
L 417.828468 219.795463 
L 418.030825 220.353787 
L 418.435539 222.844214 
L 419.042611 226.795398 
L 419.244968 227.33963 
L 419.447325 227.288374 
L 419.85204 226.395143 
L 420.459112 224.678631 
L 420.863826 224.349034 
L 421.066183 224.375597 
L 421.470898 223.869677 
L 421.875612 222.594991 
L 422.280326 221.201362 
L 422.482684 220.994578 
L 422.685041 220.997451 
L 422.887398 221.461543 
L 423.899184 225.257319 
L 424.101541 225.302826 
L 424.303898 225.04113 
L 425.113327 223.084645 
L 425.315684 222.963708 
L 425.720399 223.100288 
L 426.125113 223.313114 
L 426.327471 223.205096 
L 426.732185 222.377358 
L 427.136899 221.620692 
L 427.339257 221.506069 
L 427.541614 221.643918 
L 427.946328 222.593778 
L 428.351043 223.790276 
L 428.5534 224.134378 
L 428.755757 224.23806 
L 428.958114 224.123226 
L 429.362829 223.270183 
L 429.767543 222.444026 
L 429.9699 222.304244 
L 430.172257 222.343304 
L 430.981686 223.071844 
L 431.184044 223.010766 
L 432.19583 221.82352 
L 432.398187 221.960911 
L 432.802901 222.669562 
L 433.207616 223.400225 
L 433.409973 223.59079 
L 433.61233 223.581182 
L 433.814687 223.3889 
L 434.624116 222.129948 
L 434.826473 222.083636 
L 435.231188 222.384954 
L 435.635902 222.85052 
L 435.838259 222.947451 
L 436.040617 222.883852 
L 436.850045 222.026336 
L 437.052403 222.000861 
L 437.457117 222.369061 
L 438.064189 223.160946 
L 438.266546 223.24423 
L 438.468903 223.174082 
L 439.480689 222.078562 
L 439.885403 222.237209 
L 440.492475 222.823958 
L 440.694832 222.872722 
L 441.099547 222.622873 
L 441.706618 222.135555 
L 442.111333 222.243068 
L 442.920762 222.987995 
L 443.123119 223.005311 
L 443.527833 222.705519 
L 444.134905 222.155363 
L 444.539619 222.19355 
L 445.551405 222.794191 
L 445.95612 222.564687 
L 446.563191 222.207407 
L 446.967906 222.328425 
L 447.777335 222.855763 
L 448.182049 222.723682 
L 448.991478 222.196306 
L 449.396192 222.293502 
L 450.205621 222.741417 
L 450.610335 222.638034 
L 451.419764 222.265263 
L 451.824479 222.394172 
L 452.43155 222.731529 
L 452.836265 222.715554 
L 453.848051 222.256967 
L 454.252765 222.376983 
L 454.859837 222.673888 
L 455.264551 222.660592 
L 456.276337 222.316965 
L 456.883409 222.541475 
L 457.490481 222.6836 
L 458.097552 222.455809 
L 458.704624 222.316738 
L 460.121124 222.608221 
L 461.13291 222.361223 
L 462.549411 222.582464 
L 463.35884 222.355928 
L 463.965911 222.478083 
L 464.572983 222.621264 
L 465.180054 222.506251 
L 465.787126 222.382798 
L 466.596555 222.554858 
L 467.203626 222.588347 
L 468.41777 222.407643 
L 469.631913 222.574801 
L 470.846056 222.42824 
L 472.060199 222.55751 
L 473.274343 222.43818 
L 474.488486 222.547729 
L 475.702629 222.451806 
L 476.714415 222.556209 
L 478.333273 222.491137 
L 479.142702 222.548161 
L 480.559202 222.469554 
L 481.570988 222.538207 
L 482.987489 222.476486 
L 484.201632 222.512769 
L 485.415775 222.482345 
L 486.629918 222.506605 
L 487.844062 222.487372 
L 489.058205 222.502774 
L 490.272348 222.491105 
L 491.486491 222.49887 
L 492.700635 222.494464 
L 493.914778 222.496317 
L 495.331278 222.508937 
L 498.164279 222.516729 
L 504.234995 222.481867 
L 508.889211 222.484134 
L 518.4 222.488899 
L 518.4 222.488899 
" clip-path="url(#p4fab0a0ba4)" style="fill: none; stroke: #2ca02c; stroke-width: 1.5; stroke-linecap: square"/>
   </g>
   <g id="patch_3">
    <path d="M 72 320.4 
L 72 43.2 
" style="fill: none; stroke: #000000; stroke-width: 0.8; stroke-linejoin: miter; stroke-linecap: square"/>
   </g>
   <g id="patch_4">
    <path d="M 518.4 320.4 
L 518.4 43.2 
" style="fill: none; stroke: #000000; stroke-width: 0.8; stroke-linejoin: miter; stroke-linecap: square"/>
   </g>
   <g id="patch_5">
    <path d="M 72 320.4 
L 518.4 320.4 
" style="fill: none; stroke: #000000; stroke-width: 0.8; stroke-linejoin: miter; stroke-linecap: square"/>
   </g>
   <g id="patch_6">
    <path d="M 72 43.2 
L 518.4 43.2 
" style="fill: none; stroke: #000000; stroke-width: 0.8; stroke-linejoin: miter; stroke-linecap: square"/>
   </g>
   <g id="text_13">
    <!-- Classic Transformer - model_20231123162725 -->
    <g transform="translate(155.436563 37.2) scale(0.12 -0.12)">
     <defs>
      <path id="DejaVuSans-43" d="M 4122 4306 
L 4122 3641 
Q 3803 3938 3442 4084 
Q 3081 4231 2675 4231 
Q 1875 4231 1450 3742 
Q 1025 3253 1025 2328 
Q 1025 1406 1450 917 
Q 1875 428 2675 428 
Q 3081 428 3442 575 
Q 3803 722 4122 1019 
L 4122 359 
Q 3791 134 3420 21 
Q 3050 -91 2638 -91 
Q 1578 -91 968 557 
Q 359 1206 359 2328 
Q 359 3453 968 4101 
Q 1578 4750 2638 4750 
Q 3056 4750 3426 4639 
Q 3797 4528 4122 4306 
z
" transform="scale(0.015625)"/>
      <path id="DejaVuSans-6c" d="M 603 4863 
L 1178 4863 
L 1178 0 
L 603 0 
L 603 4863 
z
" transform="scale(0.015625)"/>
      <path id="DejaVuSans-61" d="M 2194 1759 
Q 1497 1759 1228 1600 
Q 959 1441 959 1056 
Q 959 750 1161 570 
Q 1363 391 1709 391 
Q 2188 391 2477 730 
Q 2766 1069 2766 1631 
L 2766 1759 
L 2194 1759 
z
M 3341 1997 
L 3341 0 
L 2766 0 
L 2766 531 
Q 2569 213 2275 61 
Q 1981 -91 1556 -91 
Q 1019 -91 701 211 
Q 384 513 384 1019 
Q 384 1609 779 1909 
Q 1175 2209 1959 2209 
L 2766 2209 
L 2766 2266 
Q 2766 2663 2505 2880 
Q 2244 3097 1772 3097 
Q 1472 3097 1187 3025 
Q 903 2953 641 2809 
L 641 3341 
Q 956 3463 1253 3523 
Q 1550 3584 1831 3584 
Q 2591 3584 2966 3190 
Q 3341 2797 3341 1997 
z
" transform="scale(0.015625)"/>
      <path id="DejaVuSans-73" d="M 2834 3397 
L 2834 2853 
Q 2591 2978 2328 3040 
Q 2066 3103 1784 3103 
Q 1356 3103 1142 2972 
Q 928 2841 928 2578 
Q 928 2378 1081 2264 
Q 1234 2150 1697 2047 
L 1894 2003 
Q 2506 1872 2764 1633 
Q 3022 1394 3022 966 
Q 3022 478 2636 193 
Q 2250 -91 1575 -91 
Q 1294 -91 989 -36 
Q 684 19 347 128 
L 347 722 
Q 666 556 975 473 
Q 1284 391 1588 391 
Q 1994 391 2212 530 
Q 2431 669 2431 922 
Q 2431 1156 2273 1281 
Q 2116 1406 1581 1522 
L 1381 1569 
Q 847 1681 609 1914 
Q 372 2147 372 2553 
Q 372 3047 722 3315 
Q 1072 3584 1716 3584 
Q 2034 3584 2315 3537 
Q 2597 3491 2834 3397 
z
" transform="scale(0.015625)"/>
      <path id="DejaVuSans-69" d="M 603 3500 
L 1178 3500 
L 1178 0 
L 603 0 
L 603 3500 
z
M 603 4863 
L 1178 4863 
L 1178 4134 
L 603 4134 
L 603 4863 
z
" transform="scale(0.015625)"/>
      <path id="DejaVuSans-63" d="M 3122 3366 
L 3122 2828 
Q 2878 2963 2633 3030 
Q 2388 3097 2138 3097 
Q 1578 3097 1268 2742 
Q 959 2388 959 1747 
Q 959 1106 1268 751 
Q 1578 397 2138 397 
Q 2388 397 2633 464 
Q 2878 531 3122 666 
L 3122 134 
Q 2881 22 2623 -34 
Q 2366 -91 2075 -91 
Q 1284 -91 818 406 
Q 353 903 353 1747 
Q 353 2603 823 3093 
Q 1294 3584 2113 3584 
Q 2378 3584 2631 3529 
Q 2884 3475 3122 3366 
z
" transform="scale(0.015625)"/>
      <path id="DejaVuSans-20" transform="scale(0.015625)"/>
      <path id="DejaVuSans-54" d="M -19 4666 
L 3928 4666 
L 3928 4134 
L 2272 4134 
L 2272 0 
L 1638 0 
L 1638 4134 
L -19 4134 
L -19 4666 
z
" transform="scale(0.015625)"/>
      <path id="DejaVuSans-72" d="M 2631 2963 
Q 2534 3019 2420 3045 
Q 2306 3072 2169 3072 
Q 1681 3072 1420 2755 
Q 1159 2438 1159 1844 
L 1159 0 
L 581 0 
L 581 3500 
L 1159 3500 
L 1159 2956 
Q 1341 3275 1631 3429 
Q 1922 3584 2338 3584 
Q 2397 3584 2469 3576 
Q 2541 3569 2628 3553 
L 2631 2963 
z
" transform="scale(0.015625)"/>
      <path id="DejaVuSans-6e" d="M 3513 2113 
L 3513 0 
L 2938 0 
L 2938 2094 
Q 2938 2591 2744 2837 
Q 2550 3084 2163 3084 
Q 1697 3084 1428 2787 
Q 1159 2491 1159 1978 
L 1159 0 
L 581 0 
L 581 3500 
L 1159 3500 
L 1159 2956 
Q 1366 3272 1645 3428 
Q 1925 3584 2291 3584 
Q 2894 3584 3203 3211 
Q 3513 2838 3513 2113 
z
" transform="scale(0.015625)"/>
      <path id="DejaVuSans-66" d="M 2375 4863 
L 2375 4384 
L 1825 4384 
Q 1516 4384 1395 4259 
Q 1275 4134 1275 3809 
L 1275 3500 
L 2222 3500 
L 2222 3053 
L 1275 3053 
L 1275 0 
L 697 0 
L 697 3053 
L 147 3053 
L 147 3500 
L 697 3500 
L 697 3744 
Q 697 4328 969 4595 
Q 1241 4863 1831 4863 
L 2375 4863 
z
" transform="scale(0.015625)"/>
      <path id="DejaVuSans-6f" d="M 1959 3097 
Q 1497 3097 1228 2736 
Q 959 2375 959 1747 
Q 959 1119 1226 758 
Q 1494 397 1959 397 
Q 2419 397 2687 759 
Q 2956 1122 2956 1747 
Q 2956 2369 2687 2733 
Q 2419 3097 1959 3097 
z
M 1959 3584 
Q 2709 3584 3137 3096 
Q 3566 2609 3566 1747 
Q 3566 888 3137 398 
Q 2709 -91 1959 -91 
Q 1206 -91 779 398 
Q 353 888 353 1747 
Q 353 2609 779 3096 
Q 1206 3584 1959 3584 
z
" transform="scale(0.015625)"/>
      <path id="DejaVuSans-6d" d="M 3328 2828 
Q 3544 3216 3844 3400 
Q 4144 3584 4550 3584 
Q 5097 3584 5394 3201 
Q 5691 2819 5691 2113 
L 5691 0 
L 5113 0 
L 5113 2094 
Q 5113 2597 4934 2840 
Q 4756 3084 4391 3084 
Q 3944 3084 3684 2787 
Q 3425 2491 3425 1978 
L 3425 0 
L 2847 0 
L 2847 2094 
Q 2847 2600 2669 2842 
Q 2491 3084 2119 3084 
Q 1678 3084 1418 2786 
Q 1159 2488 1159 1978 
L 1159 0 
L 581 0 
L 581 3500 
L 1159 3500 
L 1159 2956 
Q 1356 3278 1631 3431 
Q 1906 3584 2284 3584 
Q 2666 3584 2933 3390 
Q 3200 3197 3328 2828 
z
" transform="scale(0.015625)"/>
      <path id="DejaVuSans-65" d="M 3597 1894 
L 3597 1613 
L 953 1613 
Q 991 1019 1311 708 
Q 1631 397 2203 397 
Q 2534 397 2845 478 
Q 3156 559 3463 722 
L 3463 178 
Q 3153 47 2828 -22 
Q 2503 -91 2169 -91 
Q 1331 -91 842 396 
Q 353 884 353 1716 
Q 353 2575 817 3079 
Q 1281 3584 2069 3584 
Q 2775 3584 3186 3129 
Q 3597 2675 3597 1894 
z
M 3022 2063 
Q 3016 2534 2758 2815 
Q 2500 3097 2075 3097 
Q 1594 3097 1305 2825 
Q 1016 2553 972 2059 
L 3022 2063 
z
" transform="scale(0.015625)"/>
      <path id="DejaVuSans-64" d="M 2906 2969 
L 2906 4863 
L 3481 4863 
L 3481 0 
L 2906 0 
L 2906 525 
Q 2725 213 2448 61 
Q 2172 -91 1784 -91 
Q 1150 -91 751 415 
Q 353 922 353 1747 
Q 353 2572 751 3078 
Q 1150 3584 1784 3584 
Q 2172 3584 2448 3432 
Q 2725 3281 2906 2969 
z
M 947 1747 
Q 947 1113 1208 752 
Q 1469 391 1925 391 
Q 2381 391 2643 752 
Q 2906 1113 2906 1747 
Q 2906 2381 2643 2742 
Q 2381 3103 1925 3103 
Q 1469 3103 1208 2742 
Q 947 2381 947 1747 
z
" transform="scale(0.015625)"/>
      <path id="DejaVuSans-5f" d="M 3263 -1063 
L 3263 -1509 
L -63 -1509 
L -63 -1063 
L 3263 -1063 
z
" transform="scale(0.015625)"/>
     </defs>
     <use xlink:href="#DejaVuSans-43"/>
     <use xlink:href="#DejaVuSans-6c" x="69.824219"/>
     <use xlink:href="#DejaVuSans-61" x="97.607422"/>
     <use xlink:href="#DejaVuSans-73" x="158.886719"/>
     <use xlink:href="#DejaVuSans-73" x="210.986328"/>
     <use xlink:href="#DejaVuSans-69" x="263.085938"/>
     <use xlink:href="#DejaVuSans-63" x="290.869141"/>
     <use xlink:href="#DejaVuSans-20" x="345.849609"/>
     <use xlink:href="#DejaVuSans-54" x="377.636719"/>
     <use xlink:href="#DejaVuSans-72" x="423.970703"/>
     <use xlink:href="#DejaVuSans-61" x="465.083984"/>
     <use xlink:href="#DejaVuSans-6e" x="526.363281"/>
     <use xlink:href="#DejaVuSans-73" x="589.742188"/>
     <use xlink:href="#DejaVuSans-66" x="641.841797"/>
     <use xlink:href="#DejaVuSans-6f" x="677.046875"/>
     <use xlink:href="#DejaVuSans-72" x="738.228516"/>
     <use xlink:href="#DejaVuSans-6d" x="777.591797"/>
     <use xlink:href="#DejaVuSans-65" x="875.003906"/>
     <use xlink:href="#DejaVuSans-72" x="936.527344"/>
     <use xlink:href="#DejaVuSans-20" x="977.640625"/>
     <use xlink:href="#DejaVuSans-2d" x="1009.427734"/>
     <use xlink:href="#DejaVuSans-20" x="1045.511719"/>
     <use xlink:href="#DejaVuSans-6d" x="1077.298828"/>
     <use xlink:href="#DejaVuSans-6f" x="1174.710938"/>
     <use xlink:href="#DejaVuSans-64" x="1235.892578"/>
     <use xlink:href="#DejaVuSans-65" x="1299.369141"/>
     <use xlink:href="#DejaVuSans-6c" x="1360.892578"/>
     <use xlink:href="#DejaVuSans-5f" x="1388.675781"/>
     <use xlink:href="#DejaVuSans-32" x="1438.675781"/>
     <use xlink:href="#DejaVuSans-30" x="1502.298828"/>
     <use xlink:href="#DejaVuSans-32" x="1565.921875"/>
     <use xlink:href="#DejaVuSans-33" x="1629.544922"/>
     <use xlink:href="#DejaVuSans-31" x="1693.167969"/>
     <use xlink:href="#DejaVuSans-31" x="1756.791016"/>
     <use xlink:href="#DejaVuSans-32" x="1820.414062"/>
     <use xlink:href="#DejaVuSans-33" x="1884.037109"/>
     <use xlink:href="#DejaVuSans-31" x="1947.660156"/>
     <use xlink:href="#DejaVuSans-36" x="2011.283203"/>
     <use xlink:href="#DejaVuSans-32" x="2074.90625"/>
     <use xlink:href="#DejaVuSans-37" x="2138.529297"/>
     <use xlink:href="#DejaVuSans-32" x="2202.152344"/>
     <use xlink:href="#DejaVuSans-35" x="2265.775391"/>
    </g>
   </g>
   <g id="legend_1">
    <g id="patch_7">
     <path d="M 79 95.234375 
L 161.517188 95.234375 
Q 163.517188 95.234375 163.517188 93.234375 
L 163.517188 50.2 
Q 163.517188 48.2 161.517188 48.2 
L 79 48.2 
Q 77 48.2 77 50.2 
L 77 93.234375 
Q 77 95.234375 79 95.234375 
z
" style="fill: #ffffff; opacity: 0.8; stroke: #cccccc; stroke-linejoin: miter"/>
    </g>
    <g id="line2d_16">
     <path d="M 81 56.298437 
L 91 56.298437 
L 101 56.298437 
" style="fill: none; stroke: #1f77b4; stroke-width: 1.5; stroke-linecap: square"/>
    </g>
    <g id="text_14">
     <!-- Measured -->
     <g transform="translate(109 59.798437) scale(0.1 -0.1)">
      <defs>
       <path id="DejaVuSans-4d" d="M 628 4666 
L 1569 4666 
L 2759 1491 
L 3956 4666 
L 4897 4666 
L 4897 0 
L 4281 0 
L 4281 4097 
L 3078 897 
L 2444 897 
L 1241 4097 
L 1241 0 
L 628 0 
L 628 4666 
z
" transform="scale(0.015625)"/>
       <path id="DejaVuSans-75" d="M 544 1381 
L 544 3500 
L 1119 3500 
L 1119 1403 
Q 1119 906 1312 657 
Q 1506 409 1894 409 
Q 2359 409 2629 706 
Q 2900 1003 2900 1516 
L 2900 3500 
L 3475 3500 
L 3475 0 
L 2900 0 
L 2900 538 
Q 2691 219 2414 64 
Q 2138 -91 1772 -91 
Q 1169 -91 856 284 
Q 544 659 544 1381 
z
M 1991 3584 
L 1991 3584 
z
" transform="scale(0.015625)"/>
      </defs>
      <use xlink:href="#DejaVuSans-4d"/>
      <use xlink:href="#DejaVuSans-65" x="86.279297"/>
      <use xlink:href="#DejaVuSans-61" x="147.802734"/>
      <use xlink:href="#DejaVuSans-73" x="209.082031"/>
      <use xlink:href="#DejaVuSans-75" x="261.181641"/>
      <use xlink:href="#DejaVuSans-72" x="324.560547"/>
      <use xlink:href="#DejaVuSans-65" x="363.423828"/>
      <use xlink:href="#DejaVuSans-64" x="424.947266"/>
     </g>
    </g>
    <g id="line2d_17">
     <path d="M 81 70.976562 
L 91 70.976562 
L 101 70.976562 
" style="fill: none; stroke: #ff7f0e; stroke-width: 1.5; stroke-linecap: square"/>
    </g>
    <g id="text_15">
     <!-- Fitted -->
     <g transform="translate(109 74.476562) scale(0.1 -0.1)">
      <defs>
       <path id="DejaVuSans-46" d="M 628 4666 
L 3309 4666 
L 3309 4134 
L 1259 4134 
L 1259 2759 
L 3109 2759 
L 3109 2228 
L 1259 2228 
L 1259 0 
L 628 0 
L 628 4666 
z
" transform="scale(0.015625)"/>
       <path id="DejaVuSans-74" d="M 1172 4494 
L 1172 3500 
L 2356 3500 
L 2356 3053 
L 1172 3053 
L 1172 1153 
Q 1172 725 1289 603 
Q 1406 481 1766 481 
L 2356 481 
L 2356 0 
L 1766 0 
Q 1100 0 847 248 
Q 594 497 594 1153 
L 594 3053 
L 172 3053 
L 172 3500 
L 594 3500 
L 594 4494 
L 1172 4494 
z
" transform="scale(0.015625)"/>
      </defs>
      <use xlink:href="#DejaVuSans-46"/>
      <use xlink:href="#DejaVuSans-69" x="50.269531"/>
      <use xlink:href="#DejaVuSans-74" x="78.052734"/>
      <use xlink:href="#DejaVuSans-74" x="117.261719"/>
      <use xlink:href="#DejaVuSans-65" x="156.470703"/>
      <use xlink:href="#DejaVuSans-64" x="217.994141"/>
     </g>
    </g>
    <g id="line2d_18">
     <path d="M 81 85.654687 
L 91 85.654687 
L 101 85.654687 
" style="fill: none; stroke: #2ca02c; stroke-width: 1.5; stroke-linecap: square"/>
    </g>
    <g id="text_16">
     <!-- Estimated -->
     <g transform="translate(109 89.154687) scale(0.1 -0.1)">
      <defs>
       <path id="DejaVuSans-45" d="M 628 4666 
L 3578 4666 
L 3578 4134 
L 1259 4134 
L 1259 2753 
L 3481 2753 
L 3481 2222 
L 1259 2222 
L 1259 531 
L 3634 531 
L 3634 0 
L 628 0 
L 628 4666 
z
" transform="scale(0.015625)"/>
      </defs>
      <use xlink:href="#DejaVuSans-45"/>
      <use xlink:href="#DejaVuSans-73" x="63.183594"/>
      <use xlink:href="#DejaVuSans-74" x="115.283203"/>
      <use xlink:href="#DejaVuSans-69" x="154.492188"/>
      <use xlink:href="#DejaVuSans-6d" x="182.275391"/>
      <use xlink:href="#DejaVuSans-61" x="279.6875"/>
      <use xlink:href="#DejaVuSans-74" x="340.966797"/>
      <use xlink:href="#DejaVuSans-65" x="380.175781"/>
      <use xlink:href="#DejaVuSans-64" x="441.699219"/>
     </g>
    </g>
   </g>
  </g>
 </g>
 <defs>
  <clipPath id="p4fab0a0ba4">
   <rect x="72" y="43.2" width="446.4" height="277.2"/>
  </clipPath>
 </defs>
</svg>
