<?xml version="1.0" encoding="utf-8" standalone="no"?>
<!DOCTYPE svg PUBLIC "-//W3C//DTD SVG 1.1//EN"
  "http://www.w3.org/Graphics/SVG/1.1/DTD/svg11.dtd">
<svg xmlns:xlink="http://www.w3.org/1999/xlink" width="576pt" height="360pt" viewBox="0 0 576 360" xmlns="http://www.w3.org/2000/svg" version="1.1">
 <metadata>
  <rdf:RDF xmlns:dc="http://purl.org/dc/elements/1.1/" xmlns:cc="http://creativecommons.org/ns#" xmlns:rdf="http://www.w3.org/1999/02/22-rdf-syntax-ns#">
   <cc:Work>
    <dc:type rdf:resource="http://purl.org/dc/dcmitype/StillImage"/>
    <dc:date>2023-11-26T16:08:34.301700</dc:date>
    <dc:format>image/svg+xml</dc:format>
    <dc:creator>
     <cc:Agent>
      <dc:title>Matplotlib v3.8.1, https://matplotlib.org/</dc:title>
     </cc:Agent>
    </dc:creator>
   </cc:Work>
  </rdf:RDF>
 </metadata>
 <defs>
  <style type="text/css">*{stroke-linejoin: round; stroke-linecap: butt}</style>
 </defs>
 <g id="figure_1">
  <g id="patch_1">
   <path d="M 0 360 
L 576 360 
L 576 0 
L 0 0 
z
" style="fill: #ffffff"/>
  </g>
  <g id="axes_1">
   <g id="patch_2">
    <path d="M 72 320.4 
L 518.4 320.4 
L 518.4 43.2 
L 72 43.2 
z
" style="fill: #ffffff"/>
   </g>
   <g id="matplotlib.axis_1">
    <g id="xtick_1">
     <g id="line2d_1">
      <defs>
       <path id="m7e7e9aacec" d="M 0 0 
L 0 3.5 
" style="stroke: #000000; stroke-width: 0.8"/>
      </defs>
      <g>
       <use xlink:href="#m7e7e9aacec" x="129.874161" y="320.4" style="stroke: #000000; stroke-width: 0.8"/>
      </g>
     </g>
     <g id="text_1">
      <!-- 2020-05-15 -->
      <g transform="translate(100.816349 334.998438) scale(0.1 -0.1)">
       <defs>
        <path id="DejaVuSans-32" d="M 1228 531 
L 3431 531 
L 3431 0 
L 469 0 
L 469 531 
Q 828 903 1448 1529 
Q 2069 2156 2228 2338 
Q 2531 2678 2651 2914 
Q 2772 3150 2772 3378 
Q 2772 3750 2511 3984 
Q 2250 4219 1831 4219 
Q 1534 4219 1204 4116 
Q 875 4013 500 3803 
L 500 4441 
Q 881 4594 1212 4672 
Q 1544 4750 1819 4750 
Q 2544 4750 2975 4387 
Q 3406 4025 3406 3419 
Q 3406 3131 3298 2873 
Q 3191 2616 2906 2266 
Q 2828 2175 2409 1742 
Q 1991 1309 1228 531 
z
" transform="scale(0.015625)"/>
        <path id="DejaVuSans-30" d="M 2034 4250 
Q 1547 4250 1301 3770 
Q 1056 3291 1056 2328 
Q 1056 1369 1301 889 
Q 1547 409 2034 409 
Q 2525 409 2770 889 
Q 3016 1369 3016 2328 
Q 3016 3291 2770 3770 
Q 2525 4250 2034 4250 
z
M 2034 4750 
Q 2819 4750 3233 4129 
Q 3647 3509 3647 2328 
Q 3647 1150 3233 529 
Q 2819 -91 2034 -91 
Q 1250 -91 836 529 
Q 422 1150 422 2328 
Q 422 3509 836 4129 
Q 1250 4750 2034 4750 
z
" transform="scale(0.015625)"/>
        <path id="DejaVuSans-2d" d="M 313 2009 
L 1997 2009 
L 1997 1497 
L 313 1497 
L 313 2009 
z
" transform="scale(0.015625)"/>
        <path id="DejaVuSans-35" d="M 691 4666 
L 3169 4666 
L 3169 4134 
L 1269 4134 
L 1269 2991 
Q 1406 3038 1543 3061 
Q 1681 3084 1819 3084 
Q 2600 3084 3056 2656 
Q 3513 2228 3513 1497 
Q 3513 744 3044 326 
Q 2575 -91 1722 -91 
Q 1428 -91 1123 -41 
Q 819 9 494 109 
L 494 744 
Q 775 591 1075 516 
Q 1375 441 1709 441 
Q 2250 441 2565 725 
Q 2881 1009 2881 1497 
Q 2881 1984 2565 2268 
Q 2250 2553 1709 2553 
Q 1456 2553 1204 2497 
Q 953 2441 691 2322 
L 691 4666 
z
" transform="scale(0.015625)"/>
        <path id="DejaVuSans-31" d="M 794 531 
L 1825 531 
L 1825 4091 
L 703 3866 
L 703 4441 
L 1819 4666 
L 2450 4666 
L 2450 531 
L 3481 531 
L 3481 0 
L 794 0 
L 794 531 
z
" transform="scale(0.015625)"/>
       </defs>
       <use xlink:href="#DejaVuSans-32"/>
       <use xlink:href="#DejaVuSans-30" x="63.623047"/>
       <use xlink:href="#DejaVuSans-32" x="127.246094"/>
       <use xlink:href="#DejaVuSans-30" x="190.869141"/>
       <use xlink:href="#DejaVuSans-2d" x="254.492188"/>
       <use xlink:href="#DejaVuSans-30" x="290.576172"/>
       <use xlink:href="#DejaVuSans-35" x="354.199219"/>
       <use xlink:href="#DejaVuSans-2d" x="417.822266"/>
       <use xlink:href="#DejaVuSans-31" x="453.90625"/>
       <use xlink:href="#DejaVuSans-35" x="517.529297"/>
      </g>
     </g>
    </g>
    <g id="xtick_2">
     <g id="line2d_2">
      <g>
       <use xlink:href="#m7e7e9aacec" x="212.435902" y="320.4" style="stroke: #000000; stroke-width: 0.8"/>
      </g>
     </g>
     <g id="text_2">
      <!-- 2020-06-01 -->
      <g transform="translate(183.37809 334.998438) scale(0.1 -0.1)">
       <defs>
        <path id="DejaVuSans-36" d="M 2113 2584 
Q 1688 2584 1439 2293 
Q 1191 2003 1191 1497 
Q 1191 994 1439 701 
Q 1688 409 2113 409 
Q 2538 409 2786 701 
Q 3034 994 3034 1497 
Q 3034 2003 2786 2293 
Q 2538 2584 2113 2584 
z
M 3366 4563 
L 3366 3988 
Q 3128 4100 2886 4159 
Q 2644 4219 2406 4219 
Q 1781 4219 1451 3797 
Q 1122 3375 1075 2522 
Q 1259 2794 1537 2939 
Q 1816 3084 2150 3084 
Q 2853 3084 3261 2657 
Q 3669 2231 3669 1497 
Q 3669 778 3244 343 
Q 2819 -91 2113 -91 
Q 1303 -91 875 529 
Q 447 1150 447 2328 
Q 447 3434 972 4092 
Q 1497 4750 2381 4750 
Q 2619 4750 2861 4703 
Q 3103 4656 3366 4563 
z
" transform="scale(0.015625)"/>
       </defs>
       <use xlink:href="#DejaVuSans-32"/>
       <use xlink:href="#DejaVuSans-30" x="63.623047"/>
       <use xlink:href="#DejaVuSans-32" x="127.246094"/>
       <use xlink:href="#DejaVuSans-30" x="190.869141"/>
       <use xlink:href="#DejaVuSans-2d" x="254.492188"/>
       <use xlink:href="#DejaVuSans-30" x="290.576172"/>
       <use xlink:href="#DejaVuSans-36" x="354.199219"/>
       <use xlink:href="#DejaVuSans-2d" x="417.822266"/>
       <use xlink:href="#DejaVuSans-30" x="453.90625"/>
       <use xlink:href="#DejaVuSans-31" x="517.529297"/>
      </g>
     </g>
    </g>
    <g id="xtick_3">
     <g id="line2d_3">
      <g>
       <use xlink:href="#m7e7e9aacec" x="280.427924" y="320.4" style="stroke: #000000; stroke-width: 0.8"/>
      </g>
     </g>
     <g id="text_3">
      <!-- 2020-06-15 -->
      <g transform="translate(251.370111 334.998438) scale(0.1 -0.1)">
       <use xlink:href="#DejaVuSans-32"/>
       <use xlink:href="#DejaVuSans-30" x="63.623047"/>
       <use xlink:href="#DejaVuSans-32" x="127.246094"/>
       <use xlink:href="#DejaVuSans-30" x="190.869141"/>
       <use xlink:href="#DejaVuSans-2d" x="254.492188"/>
       <use xlink:href="#DejaVuSans-30" x="290.576172"/>
       <use xlink:href="#DejaVuSans-36" x="354.199219"/>
       <use xlink:href="#DejaVuSans-2d" x="417.822266"/>
       <use xlink:href="#DejaVuSans-31" x="453.90625"/>
       <use xlink:href="#DejaVuSans-35" x="517.529297"/>
      </g>
     </g>
    </g>
    <g id="xtick_4">
     <g id="line2d_4">
      <g>
       <use xlink:href="#m7e7e9aacec" x="358.133092" y="320.4" style="stroke: #000000; stroke-width: 0.8"/>
      </g>
     </g>
     <g id="text_4">
      <!-- 2020-07-01 -->
      <g transform="translate(329.075279 334.998438) scale(0.1 -0.1)">
       <defs>
        <path id="DejaVuSans-37" d="M 525 4666 
L 3525 4666 
L 3525 4397 
L 1831 0 
L 1172 0 
L 2766 4134 
L 525 4134 
L 525 4666 
z
" transform="scale(0.015625)"/>
       </defs>
       <use xlink:href="#DejaVuSans-32"/>
       <use xlink:href="#DejaVuSans-30" x="63.623047"/>
       <use xlink:href="#DejaVuSans-32" x="127.246094"/>
       <use xlink:href="#DejaVuSans-30" x="190.869141"/>
       <use xlink:href="#DejaVuSans-2d" x="254.492188"/>
       <use xlink:href="#DejaVuSans-30" x="290.576172"/>
       <use xlink:href="#DejaVuSans-37" x="354.199219"/>
       <use xlink:href="#DejaVuSans-2d" x="417.822266"/>
       <use xlink:href="#DejaVuSans-30" x="453.90625"/>
       <use xlink:href="#DejaVuSans-31" x="517.529297"/>
      </g>
     </g>
    </g>
    <g id="xtick_5">
     <g id="line2d_5">
      <g>
       <use xlink:href="#m7e7e9aacec" x="426.125113" y="320.4" style="stroke: #000000; stroke-width: 0.8"/>
      </g>
     </g>
     <g id="text_5">
      <!-- 2020-07-15 -->
      <g transform="translate(397.067301 334.998438) scale(0.1 -0.1)">
       <use xlink:href="#DejaVuSans-32"/>
       <use xlink:href="#DejaVuSans-30" x="63.623047"/>
       <use xlink:href="#DejaVuSans-32" x="127.246094"/>
       <use xlink:href="#DejaVuSans-30" x="190.869141"/>
       <use xlink:href="#DejaVuSans-2d" x="254.492188"/>
       <use xlink:href="#DejaVuSans-30" x="290.576172"/>
       <use xlink:href="#DejaVuSans-37" x="354.199219"/>
       <use xlink:href="#DejaVuSans-2d" x="417.822266"/>
       <use xlink:href="#DejaVuSans-31" x="453.90625"/>
       <use xlink:href="#DejaVuSans-35" x="517.529297"/>
      </g>
     </g>
    </g>
    <g id="xtick_6">
     <g id="line2d_6">
      <g>
       <use xlink:href="#m7e7e9aacec" x="508.686854" y="320.4" style="stroke: #000000; stroke-width: 0.8"/>
      </g>
     </g>
     <g id="text_6">
      <!-- 2020-08-01 -->
      <g transform="translate(479.629042 334.998438) scale(0.1 -0.1)">
       <defs>
        <path id="DejaVuSans-38" d="M 2034 2216 
Q 1584 2216 1326 1975 
Q 1069 1734 1069 1313 
Q 1069 891 1326 650 
Q 1584 409 2034 409 
Q 2484 409 2743 651 
Q 3003 894 3003 1313 
Q 3003 1734 2745 1975 
Q 2488 2216 2034 2216 
z
M 1403 2484 
Q 997 2584 770 2862 
Q 544 3141 544 3541 
Q 544 4100 942 4425 
Q 1341 4750 2034 4750 
Q 2731 4750 3128 4425 
Q 3525 4100 3525 3541 
Q 3525 3141 3298 2862 
Q 3072 2584 2669 2484 
Q 3125 2378 3379 2068 
Q 3634 1759 3634 1313 
Q 3634 634 3220 271 
Q 2806 -91 2034 -91 
Q 1263 -91 848 271 
Q 434 634 434 1313 
Q 434 1759 690 2068 
Q 947 2378 1403 2484 
z
M 1172 3481 
Q 1172 3119 1398 2916 
Q 1625 2713 2034 2713 
Q 2441 2713 2670 2916 
Q 2900 3119 2900 3481 
Q 2900 3844 2670 4047 
Q 2441 4250 2034 4250 
Q 1625 4250 1398 4047 
Q 1172 3844 1172 3481 
z
" transform="scale(0.015625)"/>
       </defs>
       <use xlink:href="#DejaVuSans-32"/>
       <use xlink:href="#DejaVuSans-30" x="63.623047"/>
       <use xlink:href="#DejaVuSans-32" x="127.246094"/>
       <use xlink:href="#DejaVuSans-30" x="190.869141"/>
       <use xlink:href="#DejaVuSans-2d" x="254.492188"/>
       <use xlink:href="#DejaVuSans-30" x="290.576172"/>
       <use xlink:href="#DejaVuSans-38" x="354.199219"/>
       <use xlink:href="#DejaVuSans-2d" x="417.822266"/>
       <use xlink:href="#DejaVuSans-30" x="453.90625"/>
       <use xlink:href="#DejaVuSans-31" x="517.529297"/>
      </g>
     </g>
    </g>
   </g>
   <g id="matplotlib.axis_2">
    <g id="ytick_1">
     <g id="line2d_7">
      <defs>
       <path id="m9fbfc2d1ea" d="M 0 0 
L -3.5 0 
" style="stroke: #000000; stroke-width: 0.8"/>
      </defs>
      <g>
       <use xlink:href="#m9fbfc2d1ea" x="72" y="314.719519" style="stroke: #000000; stroke-width: 0.8"/>
      </g>
     </g>
     <g id="text_7">
      <!-- −2 -->
      <g transform="translate(50.257812 318.518738) scale(0.1 -0.1)">
       <defs>
        <path id="DejaVuSans-2212" d="M 678 2272 
L 4684 2272 
L 4684 1741 
L 678 1741 
L 678 2272 
z
" transform="scale(0.015625)"/>
       </defs>
       <use xlink:href="#DejaVuSans-2212"/>
       <use xlink:href="#DejaVuSans-32" x="83.789062"/>
      </g>
     </g>
    </g>
    <g id="ytick_2">
     <g id="line2d_8">
      <g>
       <use xlink:href="#m9fbfc2d1ea" x="72" y="269.488577" style="stroke: #000000; stroke-width: 0.8"/>
      </g>
     </g>
     <g id="text_8">
      <!-- −1 -->
      <g transform="translate(50.257812 273.287796) scale(0.1 -0.1)">
       <use xlink:href="#DejaVuSans-2212"/>
       <use xlink:href="#DejaVuSans-31" x="83.789062"/>
      </g>
     </g>
    </g>
    <g id="ytick_3">
     <g id="line2d_9">
      <g>
       <use xlink:href="#m9fbfc2d1ea" x="72" y="224.257636" style="stroke: #000000; stroke-width: 0.8"/>
      </g>
     </g>
     <g id="text_9">
      <!-- 0 -->
      <g transform="translate(58.6375 228.056854) scale(0.1 -0.1)">
       <use xlink:href="#DejaVuSans-30"/>
      </g>
     </g>
    </g>
    <g id="ytick_4">
     <g id="line2d_10">
      <g>
       <use xlink:href="#m9fbfc2d1ea" x="72" y="179.026694" style="stroke: #000000; stroke-width: 0.8"/>
      </g>
     </g>
     <g id="text_10">
      <!-- 1 -->
      <g transform="translate(58.6375 182.825913) scale(0.1 -0.1)">
       <use xlink:href="#DejaVuSans-31"/>
      </g>
     </g>
    </g>
    <g id="ytick_5">
     <g id="line2d_11">
      <g>
       <use xlink:href="#m9fbfc2d1ea" x="72" y="133.795752" style="stroke: #000000; stroke-width: 0.8"/>
      </g>
     </g>
     <g id="text_11">
      <!-- 2 -->
      <g transform="translate(58.6375 137.594971) scale(0.1 -0.1)">
       <use xlink:href="#DejaVuSans-32"/>
      </g>
     </g>
    </g>
    <g id="ytick_6">
     <g id="line2d_12">
      <g>
       <use xlink:href="#m9fbfc2d1ea" x="72" y="88.564811" style="stroke: #000000; stroke-width: 0.8"/>
      </g>
     </g>
     <g id="text_12">
      <!-- 3 -->
      <g transform="translate(58.6375 92.36403) scale(0.1 -0.1)">
       <defs>
        <path id="DejaVuSans-33" d="M 2597 2516 
Q 3050 2419 3304 2112 
Q 3559 1806 3559 1356 
Q 3559 666 3084 287 
Q 2609 -91 1734 -91 
Q 1441 -91 1130 -33 
Q 819 25 488 141 
L 488 750 
Q 750 597 1062 519 
Q 1375 441 1716 441 
Q 2309 441 2620 675 
Q 2931 909 2931 1356 
Q 2931 1769 2642 2001 
Q 2353 2234 1838 2234 
L 1294 2234 
L 1294 2753 
L 1863 2753 
Q 2328 2753 2575 2939 
Q 2822 3125 2822 3475 
Q 2822 3834 2567 4026 
Q 2313 4219 1838 4219 
Q 1578 4219 1281 4162 
Q 984 4106 628 3988 
L 628 4550 
Q 988 4650 1302 4700 
Q 1616 4750 1894 4750 
Q 2613 4750 3031 4423 
Q 3450 4097 3450 3541 
Q 3450 3153 3228 2886 
Q 3006 2619 2597 2516 
z
" transform="scale(0.015625)"/>
       </defs>
       <use xlink:href="#DejaVuSans-33"/>
      </g>
     </g>
    </g>
    <g id="ytick_7">
     <g id="line2d_13">
      <g>
       <use xlink:href="#m9fbfc2d1ea" x="72" y="43.333869" style="stroke: #000000; stroke-width: 0.8"/>
      </g>
     </g>
     <g id="text_13">
      <!-- 4 -->
      <g transform="translate(58.6375 47.133088) scale(0.1 -0.1)">
       <defs>
        <path id="DejaVuSans-34" d="M 2419 4116 
L 825 1625 
L 2419 1625 
L 2419 4116 
z
M 2253 4666 
L 3047 4666 
L 3047 1625 
L 3713 1625 
L 3713 1100 
L 3047 1100 
L 3047 0 
L 2419 0 
L 2419 1100 
L 313 1100 
L 313 1709 
L 2253 4666 
z
" transform="scale(0.015625)"/>
       </defs>
       <use xlink:href="#DejaVuSans-34"/>
      </g>
     </g>
    </g>
   </g>
   <g id="line2d_14">
    <path d="M 72 290.315466 
L 72.404714 299.900896 
L 72.607072 298.44533 
L 72.809429 289.427926 
L 73.214143 263.298754 
L 73.618858 252.790283 
L 75.035358 182.674638 
L 75.237715 180.171776 
L 75.440073 184.449718 
L 75.64243 191.390279 
L 75.844787 194.177154 
L 76.047144 207.064232 
L 76.654216 266.458396 
L 77.05893 286.800808 
L 77.261287 290.492974 
L 77.463645 290.173459 
L 77.666002 281.120553 
L 78.070716 257.032723 
L 78.475431 246.48875 
L 78.677788 238.767154 
L 79.487217 190.591494 
L 79.891931 176.834627 
L 80.094288 178.485451 
L 80.903717 214.342059 
L 81.713146 278.031915 
L 82.11786 290.421971 
L 82.320218 292.143798 
L 82.522575 291.895287 
L 82.724932 289.765191 
L 82.927289 283.996182 
L 83.332004 264.559061 
L 83.736718 252.453018 
L 83.939075 249.879152 
L 84.141432 250.109913 
L 84.546147 255.523906 
L 84.748504 257.298985 
L 84.950861 257.316736 
L 85.355576 260.866895 
L 85.557933 258.044519 
L 85.76029 263.227751 
L 86.569719 301.249956 
L 86.772076 306.397687 
L 86.974433 307.746748 
L 87.176791 307.8 
L 87.379148 306.663949 
L 87.581505 303.504307 
L 87.783862 297.788551 
L 88.188577 279.132464 
L 88.390934 274.748018 
L 89.200363 267.913961 
L 89.40272 264.417054 
L 89.807434 251.902743 
L 90.212149 249.8259 
L 90.414506 247.536047 
L 90.616863 254.263599 
L 91.223935 297.060768 
L 91.628649 306.397687 
L 91.831006 306.450939 
L 92.033364 304.338595 
L 92.842792 265.286843 
L 93.04515 263.476262 
L 93.449864 256.198436 
L 93.652221 255.754666 
L 93.854578 253.269554 
L 94.056936 252.737031 
L 94.259293 250.518181 
L 94.46165 245.104188 
L 94.664007 242.69008 
L 94.866364 243.471115 
L 95.068722 246.133734 
L 95.271079 242.885339 
L 95.473436 251.441222 
L 96.080508 297.380283 
L 96.485222 305.172882 
L 96.687579 306.788205 
L 96.889937 303.11379 
L 97.699365 264.665566 
L 98.306437 255.772417 
L 98.508794 255.452902 
L 99.52058 237.489097 
L 99.722937 238.554145 
L 99.925295 242.24631 
L 100.127652 240.701991 
L 100.330009 249.293376 
L 100.937081 295.285689 
L 101.341795 305.669904 
L 101.544152 306.504192 
L 101.74651 303.362301 
L 101.948867 293.244347 
L 102.353581 267.825207 
L 102.555938 266.511648 
L 103.567724 251.458973 
L 104.377153 232.749634 
L 104.57951 233.832433 
L 104.781868 238.394387 
L 104.984225 238.376637 
L 105.186582 245.902974 
L 105.793654 292.623069 
L 106.198368 303.415553 
L 106.400725 304.90662 
L 106.603083 301.498467 
L 107.412511 262.624224 
L 107.614869 261.168659 
L 107.817226 258.062269 
L 108.22194 245.760968 
L 108.626655 227.388894 
L 108.829012 222.365418 
L 109.031369 220.767847 
L 109.638441 228.116676 
L 109.840798 232.714133 
L 110.043155 241.518527 
L 110.650227 288.114367 
L 111.054941 300.184908 
L 111.257298 301.800231 
L 111.459655 300.326915 
L 111.662013 290.670482 
L 112.066727 265.908121 
L 112.471442 253.216302 
L 113.887942 195.313205 
L 114.090299 193.307365 
L 114.292656 199.076374 
L 114.495014 208.750558 
L 114.697371 212.637982 
L 115.102085 241.429773 
L 115.709157 283.215147 
L 116.113871 295.019427 
L 116.316228 295.161433 
L 116.518586 293.75912 
L 116.720943 290.688233 
L 117.125657 267.629948 
L 118.542158 179.035725 
L 118.744515 170.479842 
L 118.946872 167.195944 
L 119.149229 170.302334 
L 119.756301 202.360271 
L 120.56573 269.529284 
L 120.970444 286.303786 
L 121.172801 289.765191 
L 121.375159 291.149753 
L 121.577516 289.924948 
L 121.779873 283.215147 
L 122.589302 240.045211 
L 123.196374 218.495745 
L 123.398731 214.626071 
L 123.601088 214.803579 
L 123.803445 214.324308 
L 124.410517 225.667067 
L 124.612874 234.950733 
L 125.219946 282.59387 
L 125.62466 294.895171 
L 125.827017 296.581497 
L 126.029374 294.433651 
L 127.04116 246.70176 
L 127.648232 215.03434 
L 128.255304 179.159981 
L 128.457661 172.769694 
L 128.660018 172.485682 
L 129.26709 210.010864 
L 130.278876 286.907313 
L 130.481233 293.52836 
L 130.68359 294.699912 
L 130.885947 292.516565 
L 132.504805 200.31893 
L 133.111877 164.19606 
L 133.314234 156.225952 
L 133.516591 157.663767 
L 133.921306 170.6751 
L 134.123663 176.958882 
L 135.135449 269.973054 
L 135.540163 280.659033 
L 135.74252 279.860247 
L 135.944878 270.896095 
L 136.349592 244.305402 
L 136.551949 238.571895 
L 136.754306 228.524945 
L 136.956664 232.394618 
L 137.159021 222.826939 
L 137.766092 215.353854 
L 137.96845 215.691119 
L 138.373164 211.111414 
L 138.777879 217.5017 
L 138.980236 218.211732 
L 139.182593 228.20543 
L 139.789665 276.150331 
L 140.194379 289.161664 
L 140.396736 290.918993 
L 140.599093 288.362878 
L 141.003808 262.783981 
L 141.408522 244.855677 
L 142.015594 233.512918 
L 142.622665 225.773571 
L 142.825023 225.542811 
L 143.02738 224.513265 
L 143.229737 225.099041 
L 143.634451 229.572242 
L 143.836809 228.524945 
L 144.039166 237.151832 
L 144.646238 278.937206 
L 145.050952 289.179415 
L 145.253309 290.279964 
L 145.455666 287.617345 
L 145.860381 262.499968 
L 146.062738 248.565593 
L 146.66981 234.613468 
L 146.872167 232.341366 
L 147.074524 231.418324 
L 147.479238 222.010403 
L 147.681596 229.181724 
L 147.883953 230.016012 
L 148.08631 232.234861 
L 148.491024 240.133965 
L 148.693382 238.980164 
L 149.098096 259.020812 
L 149.502811 282.895633 
L 149.907525 294.025382 
L 150.109882 295.782711 
L 150.312239 295.285689 
L 150.514597 292.871581 
L 150.716954 287.990112 
L 151.121668 270.132811 
L 151.526383 252.595024 
L 151.931097 247.624801 
L 152.133454 247.252035 
L 152.335811 248.93836 
L 152.538169 249.38213 
L 152.740526 247.624801 
L 152.942883 247.873312 
L 153.14524 247.039025 
L 153.347597 247.074527 
L 153.549955 244.571664 
L 153.752312 246.453249 
L 154.764098 290.510725 
L 154.966455 293.901127 
L 155.168812 295.09043 
L 155.573527 291.717779 
L 155.775884 282.238854 
L 156.78767 215.513611 
L 157.799456 179.017974 
L 158.001813 180.739802 
L 158.406528 192.047059 
L 158.608885 203.656079 
L 159.215956 262.428965 
L 159.620671 280.925295 
L 159.823028 283.676668 
L 160.025385 282.895633 
L 160.227743 274.499507 
L 160.632457 246.70176 
L 161.8466 203.620578 
L 162.251315 195.011442 
L 162.453672 195.135697 
L 162.656029 197.585307 
L 163.465458 224.832779 
L 164.072529 276.097078 
L 164.477244 292.037293 
L 164.679601 292.321306 
L 164.881958 289.552182 
L 165.084316 280.854292 
L 165.48903 253.642321 
L 166.500816 223.590223 
L 167.310245 186.828325 
L 167.512602 189.703954 
L 167.917316 207.330494 
L 168.119674 211.146915 
L 168.322031 220.874352 
L 168.929102 271.765884 
L 169.333817 284.777217 
L 169.536174 287.794853 
L 169.738531 284.652962 
L 170.143246 261.275163 
L 170.54796 235.305749 
L 171.357389 197.123786 
L 171.559746 191.958305 
L 172.166818 171.225375 
L 172.369175 172.609937 
L 172.571532 179.390741 
L 173.178604 212.779989 
L 173.785675 273.68297 
L 174.19039 290.297715 
L 174.392747 292.85383 
L 174.595104 291.29176 
L 174.999819 270.55883 
L 175.404533 249.133619 
L 177.023391 182.088862 
L 177.225748 182.532632 
L 177.428105 185.887533 
L 177.630462 200.10592 
L 177.83282 202.200514 
L 178.237534 240.00971 
L 178.642248 276.789359 
L 179.046963 293.244347 
L 179.24932 296.439491 
L 179.451677 294.273893 
L 179.654034 286.818559 
L 180.261106 252.648277 
L 181.879964 169.503548 
L 182.082321 166.698922 
L 182.284678 171.56264 
L 183.094107 219.880307 
L 183.498821 253.340558 
L 183.903536 271.748133 
L 184.30825 278.475685 
L 184.510607 279.647237 
L 184.712965 276.523097 
L 184.915322 265.038332 
L 185.724751 194.656426 
L 186.129465 176.302103 
L 186.331822 171.101119 
L 186.53418 170.44434 
L 186.736537 172.627688 
L 187.748323 207.348245 
L 188.557752 262.464467 
L 188.962466 274.641513 
L 189.164823 276.398842 
L 189.36718 276.469845 
L 189.569538 275.830816 
L 189.771895 266.564901 
L 190.986038 184.112453 
L 191.188395 179.550498 
L 191.390752 179.514997 
L 191.795467 187.378599 
L 192.604896 214.288806 
L 193.414325 268.730498 
L 193.819039 280.517026 
L 194.021396 281.440068 
L 194.426111 278.031915 
L 194.628468 270.328069 
L 195.437897 217.94547 
L 195.640254 213.632027 
L 195.842611 214.679324 
L 196.247325 219.898058 
L 196.449683 220.39508 
L 196.65204 220.057815 
L 197.056754 227.122632 
L 197.259112 227.850414 
L 197.461469 235.092739 
L 198.06854 276.700605 
L 198.473255 288.913153 
L 198.675612 289.001907 
L 198.877969 285.860016 
L 199.282684 259.358078 
L 199.687398 239.707946 
L 201.306256 182.532632 
L 201.508613 181.538588 
L 202.115684 198.064579 
L 202.318042 207.667759 
L 202.925113 262.837234 
L 203.329828 278.031915 
L 203.532185 279.842496 
L 203.734542 277.268631 
L 203.936899 267.345936 
L 204.341614 238.074873 
L 205.758114 190.999762 
L 205.960471 188.851916 
L 206.162829 188.976171 
L 206.365186 190.200976 
L 206.7699 200.407684 
L 206.972257 203.159057 
L 207.174615 212.495976 
L 207.781686 263.352007 
L 208.186401 277.268631 
L 208.388758 279.895749 
L 208.591115 277.02012 
L 208.793472 266.795661 
L 209.198187 237.684356 
L 209.805258 218.495745 
L 210.209973 201.366227 
L 210.817044 165.456366 
L 211.019402 158.143038 
L 211.221759 160.699153 
L 211.626473 181.787099 
L 211.82883 186.27805 
L 212.031188 198.969869 
L 212.638259 255.009132 
L 213.042974 271.020351 
L 213.245331 274.464005 
L 213.447688 272.990689 
L 213.650045 263.760275 
L 214.257117 226.483603 
L 214.661831 203.780335 
L 215.47126 152.640292 
L 215.875975 138.226645 
L 216.078332 137.818377 
L 216.280689 142.593341 
L 217.090118 197.549806 
L 217.697189 250.908699 
L 218.101904 266.813412 
L 218.304261 269.706792 
L 218.506618 270.878344 
L 218.708976 269.795546 
L 218.911333 258.825554 
L 219.518404 211.608436 
L 220.125476 181.272326 
L 220.327833 179.408492 
L 220.53019 181.325578 
L 221.541976 217.785713 
L 221.744334 222.223412 
L 222.553762 271.251111 
L 222.958477 280.623531 
L 223.160834 282.096847 
L 223.363191 282.398611 
L 223.565549 281.04955 
L 223.767906 273.540964 
L 224.374977 240.613237 
L 224.779692 234.080944 
L 225.386763 235.856024 
L 225.589121 238.89141 
L 225.791478 239.654694 
L 226.196192 246.879268 
L 226.398549 246.577504 
L 226.600907 252.115753 
L 227.410335 298.321075 
L 227.612693 301.800231 
L 227.81505 303.255796 
L 228.017407 300.504423 
L 228.826836 263.795777 
L 229.029193 261.789937 
L 229.23155 256.837464 
L 230.648051 202.182763 
L 230.850408 202.679786 
L 231.255122 215.105343 
L 231.45748 224.495514 
L 232.064551 279.380975 
L 232.469266 294.185139 
L 232.671623 296.528244 
L 232.87398 295.480948 
L 233.278694 273.68297 
L 233.683409 254.263599 
L 235.302267 198.597103 
L 235.504624 198.082329 
L 236.111695 214.555068 
L 236.314053 223.483719 
L 236.921124 277.03787 
L 237.325839 290.723734 
L 237.528196 293.421855 
L 237.730553 291.593523 
L 238.135267 270.949347 
L 238.539982 252.169005 
L 239.349411 225.507309 
L 239.754125 216.880423 
L 240.15884 208.076028 
L 240.361197 207.863018 
L 240.563554 212.566979 
L 240.968268 227.74391 
L 241.170626 234.276203 
L 241.777697 282.1501 
L 242.182412 295.818213 
L 242.384769 297.966059 
L 242.587126 295.392194 
L 242.99184 274.091238 
L 243.396555 258.612544 
L 245.21777 194.265908 
L 245.420127 197.922572 
L 246.027199 221.016358 
L 246.836627 284.351198 
L 247.038985 291.558022 
L 247.241342 294.291644 
L 247.443699 292.108296 
L 247.848413 271.801386 
L 249.467271 175.272557 
L 249.669628 168.314244 
L 249.871985 166.64567 
L 250.074343 166.787676 
L 250.2767 172.769694 
L 250.883772 200.443185 
L 251.6932 265.056083 
L 252.097915 277.570394 
L 252.300272 280.215263 
L 252.502629 280.446023 
L 252.704986 277.108874 
L 253.109701 248.885108 
L 253.91913 185.798779 
L 254.323844 172.183918 
L 254.728558 164.586577 
L 254.930916 163.503779 
L 255.133273 169.965068 
L 255.740345 202.253767 
L 256.549773 267.061923 
L 256.954488 280.392771 
L 257.156845 283.676668 
L 257.359202 285.114483 
L 257.561559 284.280195 
L 257.966274 259.393579 
L 258.573345 215.975132 
L 258.97806 197.301294 
L 259.382774 187.804619 
L 259.585131 184.840236 
L 259.787489 184.467469 
L 259.989846 186.72182 
L 260.39456 200.496438 
L 260.596917 211.998954 
L 261.203989 265.411099 
L 261.608704 281.528822 
L 261.811061 284.049435 
L 262.013418 283.374905 
L 262.418132 262.730729 
L 262.62049 252.382015 
L 263.025204 244.056891 
L 263.227561 241.642783 
L 263.429918 240.772994 
L 263.834633 241.873543 
L 264.03699 241.607281 
L 264.239347 242.423818 
L 264.441704 242.494821 
L 264.644062 242.264061 
L 264.846419 244.02139 
L 265.048776 247.500546 
L 265.251133 247.500546 
L 265.45349 250.961951 
L 266.060562 287.546342 
L 266.465277 298.605088 
L 266.667634 299.936397 
L 266.869991 296.332986 
L 267.072348 289.481178 
L 267.477063 266.653655 
L 268.084134 247.553798 
L 268.488849 238.696151 
L 269.09592 229.004216 
L 269.500635 225.596063 
L 269.702992 227.477648 
L 269.905349 230.584037 
L 270.107706 231.169813 
L 270.310063 236.601557 
L 270.917135 278.688694 
L 271.32185 289.001907 
L 271.524207 290.84799 
L 271.726564 289.374674 
L 274.15485 167.408954 
L 274.357208 161.231677 
L 274.559565 164.107306 
L 275.166636 185.781028 
L 275.976065 256.056429 
L 276.38078 266.884415 
L 276.583137 266.280888 
L 276.987851 247.465044 
L 277.392566 222.560677 
L 278.404352 173.497477 
L 278.606709 170.870359 
L 279.011423 159.474348 
L 279.213781 158.089786 
L 279.416138 161.764201 
L 280.023209 197.709563 
L 280.630281 259.18057 
L 281.034995 278.81295 
L 281.237353 283.019889 
L 281.43971 281.688579 
L 281.642067 276.611851 
L 282.249139 240.630988 
L 282.85621 211.643938 
L 283.867996 174.775534 
L 284.070354 173.745988 
L 284.272711 180.775303 
L 285.284497 252.364264 
L 285.689211 280.091007 
L 286.093926 292.800577 
L 286.296283 294.770916 
L 286.49864 293.208846 
L 286.700997 290.670482 
L 287.105712 263.937783 
L 287.712783 219.50754 
L 288.522212 182.071111 
L 288.724569 175.929336 
L 288.926927 174.260761 
L 289.129284 177.3494 
L 289.736355 206.496207 
L 290.545784 266.902166 
L 290.950499 280.073257 
L 291.152856 282.469614 
L 291.355213 282.540617 
L 291.55757 281.26256 
L 291.759927 270.505577 
L 292.771714 185.443763 
L 293.176428 166.485912 
L 293.581142 156.793978 
L 293.7835 155.302911 
L 293.985857 158.338297 
L 294.592928 180.349284 
L 295.402357 252.151254 
L 295.807072 264.825323 
L 296.009429 264.683316 
L 296.414143 247.181031 
L 297.830644 130.664806 
L 298.235358 119.180041 
L 298.437715 116.943441 
L 298.640073 117.174201 
L 298.84243 118.949281 
L 299.044787 125.889842 
L 299.449501 149.178886 
L 300.056573 217.395196 
L 300.461287 239.193173 
L 300.663645 244.394156 
L 300.866002 245.015434 
L 301.068359 239.12217 
L 301.473073 213.170506 
L 302.484859 122.233178 
L 302.687217 112.452489 
L 302.889574 112.541243 
L 303.091931 119.535057 
L 303.496646 127.008142 
L 303.90136 146.232254 
L 304.306074 170.373337 
L 304.913146 230.175769 
L 305.31786 252.080251 
L 305.520218 256.890717 
L 305.722575 255.346398 
L 305.924932 249.186871 
L 306.532004 214.661573 
L 307.54379 154.16686 
L 307.746147 145.344714 
L 307.948504 144.58143 
L 308.757933 172.467931 
L 309.162647 194.993691 
L 309.769719 249.435383 
L 310.174433 266.618153 
L 310.376791 270.416823 
L 310.579148 269.919801 
L 310.983862 249.683894 
L 312.198005 159.776112 
L 312.60272 149.729161 
L 312.805077 145.948241 
L 313.007434 146.427513 
L 313.209791 149.622656 
L 313.816863 173.461975 
L 314.01922 185.284005 
L 314.626292 239.370681 
L 315.031006 257.085976 
L 315.233364 261.044403 
L 315.435721 260.476378 
L 315.840435 244.25215 
L 316.24515 228.081175 
L 316.649864 217.696959 
L 317.054578 204.472616 
L 317.66165 197.975825 
L 317.864007 197.585307 
L 318.066364 196.804272 
L 318.268722 200.851454 
L 318.875793 219.986812 
L 319.685222 270.629833 
L 320.089937 281.670828 
L 320.292294 283.090892 
L 320.697008 276.239085 
L 321.101723 253.571318 
L 322.315866 186.224798 
L 322.72058 177.36715 
L 322.922937 175.36131 
L 323.125295 178.92922 
L 323.732366 202.804041 
L 324.541795 262.038448 
L 324.94651 274.393002 
L 325.148867 276.895864 
L 325.351224 276.949116 
L 325.553581 274.996529 
L 325.755938 264.346051 
L 326.970082 167.195944 
L 327.172439 161.728699 
L 327.374796 160.361888 
L 327.77951 155.551422 
L 327.981868 159.864866 
L 328.184225 167.462206 
L 328.791296 212.105458 
L 329.196011 249.896903 
L 329.398368 263.067994 
L 329.803083 271.801386 
L 330.00544 270.984849 
L 330.207797 266.138882 
L 330.814869 224.211501 
L 331.42194 191.17727 
L 331.826655 171.580391 
L 332.029012 169.077529 
L 332.231369 169.095279 
L 332.433726 169.255037 
L 332.636083 171.065618 
L 332.838441 174.988544 
L 333.243155 194.798432 
L 333.445512 202.591032 
L 334.052584 259.393579 
L 334.457298 278.227174 
L 334.659655 282.913384 
L 334.862013 280.836541 
L 335.266727 263.689272 
L 335.671442 242.636828 
L 336.48087 207.969523 
L 336.683228 203.585076 
L 336.885585 202.626533 
L 337.087942 197.283544 
L 337.290299 195.685972 
L 337.695014 201.277473 
L 338.099728 213.774033 
L 338.302085 218.850761 
L 339.111514 275.742062 
L 339.313871 281.102803 
L 339.516228 283.037639 
L 339.718586 279.522982 
L 340.1233 259.340327 
L 340.932729 220.909853 
L 342.349229 167.533209 
L 342.551587 167.462206 
L 343.158658 188.798663 
L 343.76573 243.045096 
L 344.170444 258.612544 
L 344.372801 262.730729 
L 344.575159 260.884646 
L 344.777516 254.902628 
L 345.18223 228.20543 
L 346.194016 156.776227 
L 346.598731 144.013405 
L 347.003445 138.297648 
L 347.205802 137.569866 
L 347.40816 140.321239 
L 347.610517 147.102043 
L 348.015231 169.663305 
L 348.82466 248.423587 
L 349.229374 263.21 
L 349.431732 262.553221 
L 349.634089 257.547496 
L 349.836446 247.926565 
L 351.050589 157.663767 
L 351.455304 141.794555 
L 351.860018 134.143962 
L 352.062375 133.362927 
L 352.264733 136.504818 
L 352.46709 146.090248 
L 353.276519 217.909969 
L 353.681233 250.695689 
L 354.085947 268.144722 
L 354.288305 272.706676 
L 354.490662 273.203698 
L 354.693019 271.268862 
L 355.097733 234.932982 
L 355.704805 171.11887 
L 356.109519 149.764663 
L 356.716591 134.037457 
L 356.918948 133.096665 
L 357.121306 137.250351 
L 357.52602 159.403345 
L 357.728377 170.373337 
L 358.740163 252.914539 
L 359.144878 264.133042 
L 359.347235 265.748364 
L 359.549592 265.464351 
L 359.751949 253.358308 
L 360.763735 149.072382 
L 361.16845 132.581892 
L 361.573164 122.978711 
L 361.775521 120.990622 
L 361.977879 123.830749 
L 362.180236 129.883771 
L 362.58495 152.178771 
L 363.394379 228.915462 
L 363.799093 244.181147 
L 364.001451 244.891179 
L 364.203808 239.7967 
L 364.406165 231.09881 
L 365.013237 170.923611 
L 365.620308 115.079607 
L 366.025023 101.09198 
L 366.429737 95.74899 
L 366.632094 96.175009 
L 366.834451 98.464862 
L 367.036809 106.00895 
L 367.441523 131.268333 
L 368.048595 200.176923 
L 368.453309 226.590108 
L 368.655666 233.974439 
L 368.858024 236.033531 
L 369.060381 232.66088 
L 369.262738 224.122747 
L 369.86981 169.130781 
L 370.476881 118.771773 
L 370.881596 104.375877 
L 371.083953 103.985359 
L 371.28631 104.606637 
L 371.488667 108.01479 
L 371.691024 113.411032 
L 372.298096 147.173046 
L 373.107525 220.803348 
L 373.512239 240.062962 
L 373.714597 243.843882 
L 374.119311 243.240355 
L 374.321668 232.19936 
L 375.333454 142.238325 
L 375.738169 130.75356 
L 375.940526 128.410455 
L 376.142883 127.451912 
L 376.34524 131.942863 
L 376.749955 154.681633 
L 377.559383 205.732923 
L 377.964098 235.76727 
L 378.368812 247.731306 
L 378.57117 247.926565 
L 378.773527 242.778834 
L 378.975884 233.051398 
L 380.392384 131.925112 
L 380.797099 123.315976 
L 381.201813 116.730431 
L 381.40417 119.996578 
L 382.011242 152.107768 
L 382.820671 223.980741 
L 383.225385 237.950617 
L 383.427743 238.518643 
L 383.6301 233.885685 
L 384.034814 214.59057 
L 385.0466 150.882963 
L 385.451315 136.398313 
L 385.653672 135.990045 
L 385.856029 139.273942 
L 386.058386 145.894989 
L 387.070172 206.620462 
L 387.474887 241.429773 
L 387.879601 260.423125 
L 388.284316 268.357731 
L 388.68903 270.541079 
L 388.891387 265.553105 
L 389.700816 227.76166 
L 390.307888 218.034224 
L 390.914959 206.975478 
L 391.117316 211.129165 
L 391.926745 245.476955 
L 392.533817 283.836425 
L 392.938531 294.575657 
L 393.140888 296.190979 
L 393.343246 295.800462 
L 393.545603 296.20873 
L 393.74796 288.433881 
L 394.355032 252.701529 
L 395.569175 203.67383 
L 395.771532 198.455096 
L 395.973889 199.502393 
L 396.176247 206.726967 
L 396.783318 243.222604 
L 397.188033 276.665104 
L 397.592747 292.143798 
L 397.795104 294.557906 
L 397.997461 292.356807 
L 398.402176 276.611851 
L 400.628105 165.811382 
L 400.830462 168.278743 
L 401.03282 176.923381 
L 401.639891 226.448102 
L 402.044606 264.949578 
L 402.44932 282.59387 
L 402.651677 286.073026 
L 402.854034 284.635211 
L 403.258749 268.837003 
L 403.663463 244.163396 
L 404.877607 152.090017 
L 405.282321 134.268218 
L 405.484678 130.611554 
L 405.687035 131.552346 
L 405.889393 140.676255 
L 406.294107 173.12471 
L 406.901179 240.346975 
L 407.305893 261.239662 
L 407.50825 266.10338 
L 407.710607 265.641859 
L 408.115322 247.198782 
L 409.73418 132.333381 
L 409.936537 128.055439 
L 410.138894 127.931183 
L 410.341251 131.925112 
L 410.948323 163.273018 
L 411.15068 177.083138 
L 411.757752 238.376637 
L 412.162466 259.269324 
L 412.364823 264.896326 
L 412.56718 266.440645 
L 412.971895 250.766692 
L 414.388395 165.598373 
L 414.79311 153.847346 
L 415.197824 148.060586 
L 415.400181 153.9361 
L 416.20961 208.235785 
L 416.614325 247.500546 
L 417.019039 267.523444 
L 417.221396 271.215609 
L 417.423753 270.736338 
L 417.828468 256.713209 
L 419.244968 171.882154 
L 419.649683 160.077875 
L 419.85204 156.758476 
L 420.054397 158.001032 
L 420.256754 165.509619 
L 421.066183 222.116907 
L 421.673255 269.866549 
L 422.077969 283.800924 
L 422.280326 285.94877 
L 422.482684 285.380745 
L 422.685041 285.238738 
L 423.089755 258.594793 
L 423.899184 198.774611 
L 424.708613 164.728584 
L 424.91097 161.97721 
L 425.113327 165.438615 
L 425.518042 188.05313 
L 425.720399 198.259837 
L 426.529828 262.819483 
L 426.934542 278.883953 
L 427.136899 282.753627 
L 427.339257 283.445908 
L 427.541614 283.641167 
L 427.743971 276.203583 
L 428.148685 241.305518 
L 428.755757 187.786868 
L 429.160471 165.616123 
L 429.565186 158.480303 
L 429.9699 161.870705 
L 430.374615 175.893834 
L 430.576972 185.958536 
L 431.386401 251.654232 
L 431.791115 262.233706 
L 431.993472 260.476378 
L 432.398187 242.92084 
L 433.207616 186.650817 
L 434.017044 125.818839 
L 434.219402 121.594149 
L 435.02883 145.291462 
L 435.433545 166.894181 
L 436.040617 228.436191 
L 436.445331 247.908814 
L 436.647688 252.346513 
L 436.850045 251.760737 
L 437.25476 233.956688 
L 437.659474 203.780335 
L 438.468903 140.285737 
L 438.67126 131.87186 
L 438.873617 132.706148 
L 439.075975 138.847923 
L 439.278332 138.457405 
L 439.480689 140.392242 
L 439.885403 156.421211 
L 440.290118 177.81092 
L 440.897189 241.252266 
L 441.301904 260.52963 
L 441.504261 265.21584 
L 441.706618 265.677361 
L 442.111333 252.95004 
L 442.920762 208.005024 
L 443.527833 177.881924 
L 444.134905 158.231792 
L 444.337262 155.995192 
L 444.539619 161.53344 
L 445.146691 200.460936 
L 445.753762 260.227867 
L 446.158477 278.546688 
L 446.360834 282.82463 
L 446.563191 281.102803 
L 446.967906 264.77207 
L 448.586763 169.929567 
L 448.991478 158.533556 
L 449.193835 156.527716 
L 449.396192 162.278974 
L 450.003264 197.159288 
L 450.812693 266.298639 
L 451.217407 277.783404 
L 451.419764 277.889909 
L 451.824479 263.050243 
L 452.43155 219.50754 
L 453.038622 183.313667 
L 453.443336 168.598257 
L 453.848051 161.799702 
L 454.050408 164.710833 
L 454.252765 173.33772 
L 454.65748 197.86932 
L 454.859837 205.164897 
L 455.669266 261.062154 
L 456.07398 272.759929 
L 456.276337 274.073487 
L 456.478694 272.35166 
L 456.681052 269.67129 
L 456.883409 262.76623 
L 457.288123 239.441684 
L 457.692838 229.98051 
L 457.895195 230.584037 
L 458.299909 235.55426 
L 458.502267 235.430004 
L 458.906981 232.128356 
L 459.109338 232.589877 
L 459.514053 236.175538 
L 459.71641 239.885454 
L 460.728196 289.711939 
L 461.13291 293.52836 
L 461.537625 290.670482 
L 461.739982 282.966636 
L 462.144696 253.1808 
L 463.561197 193.467122 
L 463.763554 187.201091 
L 463.965911 188.212887 
L 464.572983 205.022891 
L 465.382412 262.837234 
L 465.584769 268.801501 
L 465.787126 271.144606 
L 465.989483 269.050012 
L 467.608341 189.17143 
L 468.620127 170.88811 
L 468.822484 173.586231 
L 469.429556 196.236247 
L 470.036627 245.192942 
L 470.441342 260.547381 
L 470.643699 262.819483 
L 470.846056 260.600633 
L 471.857842 216.649662 
L 472.869628 190.538241 
L 473.071985 190.96426 
L 473.274343 189.419941 
L 473.4767 190.50274 
L 473.679057 193.768886 
L 473.881414 199.449141 
L 474.083772 200.443185 
L 474.286129 207.064232 
L 474.8932 252.04475 
L 475.297915 266.067878 
L 475.500272 267.505693 
L 475.702629 265.748364 
L 476.107344 244.713671 
L 476.512058 225.720319 
L 477.321487 198.54385 
L 477.726201 181.14807 
L 477.928558 178.077182 
L 478.333273 182.124364 
L 478.53563 185.976287 
L 479.142702 207.490251 
L 479.952131 265.979124 
L 480.356845 274.481756 
L 480.559202 274.12674 
L 480.963917 255.062385 
L 482.785131 144.261916 
L 482.987489 139.167437 
L 483.189846 136.895335 
L 483.392203 141.759054 
L 483.999275 176.160096 
L 484.606346 237.524598 
L 485.011061 257.565247 
L 485.213418 261.363917 
L 485.415775 262.180454 
L 485.82049 245.121939 
L 486.225204 218.193981 
L 487.23699 140.551999 
L 487.439347 137.88938 
L 487.844062 143.551884 
L 488.248776 159.616354 
L 489.260562 226.519105 
L 489.665277 254.263599 
L 490.069991 267.292683 
L 490.272348 269.316274 
L 490.474705 268.33998 
L 490.677063 266.813412 
L 490.87942 258.417285 
L 491.891206 189.632951 
L 492.29592 174.349515 
L 492.498277 167.976979 
L 492.700635 166.237401 
L 492.902992 167.639714 
L 493.105349 171.7934 
L 493.712421 200.709447 
L 494.52185 262.819483 
L 495.128921 278.58219 
L 495.331278 278.706445 
L 495.533636 278.173921 
L 495.735993 271.659379 
L 496.950136 192.721589 
L 497.557208 171.704646 
L 497.759565 168.811267 
L 497.961922 171.580391 
L 498.568994 198.75686 
L 499.378422 262.428965 
L 499.58078 268.32223 
L 499.783137 270.470076 
L 499.985494 267.612198 
L 500.187851 260.263368 
L 500.794923 228.41844 
L 500.99728 224.016243 
L 501.401995 212.726736 
L 501.806709 203.017051 
L 502.009066 202.626533 
L 502.211423 204.401613 
L 502.413781 204.951888 
L 502.616138 203.514073 
L 503.020852 211.892449 
L 503.223209 212.37172 
L 503.425567 218.850761 
L 504.032638 262.570972 
L 504.437353 273.842727 
L 504.63971 275.24504 
L 504.842067 273.203698 
L 505.246782 252.186756 
L 505.651496 231.649085 
L 507.270354 168.562756 
L 507.472711 165.882385 
L 507.675068 168.811267 
L 508.28214 192.987851 
L 508.889211 243.027345 
L 509.293926 257.796007 
L 509.496283 260.831394 
L 509.69864 259.251573 
L 510.103354 238.944662 
L 511.722212 147.208548 
L 512.126927 131.889611 
L 512.329284 133.256422 
L 512.936355 162.900252 
L 513.34107 196.484758 
L 513.745784 233.974439 
L 514.150499 253.571318 
L 514.352856 258.381784 
L 514.555213 258.807803 
L 514.75757 251.139459 
L 516.174071 167.692967 
L 516.376428 166.752174 
L 516.781142 174.793285 
L 516.9835 172.432429 
L 517.185857 172.89395 
L 517.590571 188.159634 
L 517.792928 191.816298 
L 517.995286 201.046712 
L 518.4 235.252496 
L 518.4 235.252496 
" clip-path="url(#p912ed1f53c)" style="fill: none; stroke: #1f77b4; stroke-width: 1.5; stroke-linecap: square"/>
   </g>
   <g id="line2d_15">
    <path d="M 72 268.253441 
L 72.202357 268.253441 
L 72.607072 273.073511 
L 72.809429 273.429736 
L 73.011786 270.02664 
L 73.821215 238.28788 
L 74.833001 192.931879 
L 75.035358 186.914912 
L 75.237715 186.242105 
L 75.440073 190.472941 
L 76.047144 216.255353 
L 76.856573 269.405328 
L 77.261287 280.158079 
L 77.463645 282.122948 
L 77.666002 280.475222 
L 78.070716 262.573622 
L 78.677788 236.072373 
L 79.284859 212.722206 
L 79.891931 185.129228 
L 80.094288 182.866217 
L 80.296646 185.884942 
L 80.903717 214.409816 
L 81.713146 267.420045 
L 82.11786 277.223241 
L 82.320218 280.369928 
L 82.522575 279.480019 
L 82.927289 274.161768 
L 83.129646 269.410343 
L 83.534361 253.587862 
L 83.939075 242.295969 
L 84.141432 240.233681 
L 84.34379 240.914303 
L 84.546147 242.177153 
L 84.950861 248.297365 
L 85.355576 258.388141 
L 85.76029 262.473771 
L 85.962647 267.536784 
L 86.772076 296.119249 
L 86.974433 296.35657 
L 87.581505 286.19499 
L 88.390934 265.903473 
L 88.593291 263.401577 
L 88.795648 264.068971 
L 89.200363 262.396655 
L 89.807434 252.928717 
L 90.009791 248.56146 
L 90.212149 249.487964 
L 90.616863 252.381909 
L 90.81922 258.705648 
L 91.426292 290.048972 
L 91.628649 294.898975 
L 91.831006 294.882174 
L 92.235721 286.648399 
L 93.247507 247.11441 
L 93.449864 246.304575 
L 93.652221 246.117805 
L 93.854578 246.735876 
L 94.259293 247.212589 
L 95.068722 237.964644 
L 95.271079 239.933708 
L 95.473436 240.140085 
L 95.675793 247.987509 
L 96.282865 281.063495 
L 96.485222 286.422002 
L 96.687579 287.849887 
L 96.889937 286.290676 
L 97.092294 279.929449 
L 97.699365 248.744315 
L 98.306437 236.715786 
L 98.508794 235.751969 
L 98.711151 235.811964 
L 98.913509 235.057517 
L 99.115866 233.52284 
L 99.52058 223.819946 
L 99.722937 225.348047 
L 100.330009 237.237731 
L 100.532366 247.976485 
L 100.937081 279.382479 
L 101.341795 290.886546 
L 101.544152 291.530399 
L 101.74651 288.630717 
L 102.151224 268.258402 
L 102.555938 249.715782 
L 102.960653 238.921819 
L 103.16301 236.148473 
L 103.365367 237.774177 
L 103.770082 233.130249 
L 104.377153 220.723892 
L 104.781868 226.822569 
L 105.186582 237.447277 
L 105.388939 246.765409 
L 105.793654 277.371778 
L 105.996011 286.192402 
L 106.198368 289.541158 
L 106.400725 288.646062 
L 106.603083 284.68532 
L 107.007797 267.432608 
L 107.614869 241.550817 
L 108.019583 235.587292 
L 108.22194 234.235507 
L 108.626655 218.756206 
L 108.829012 209.046046 
L 109.031369 205.562168 
L 109.233726 208.165174 
L 109.638441 219.695557 
L 110.043155 234.447249 
L 110.447869 261.539632 
L 110.852584 284.057244 
L 111.054941 287.109713 
L 111.257298 286.299033 
L 111.662013 276.628585 
L 113.685585 194.834833 
L 113.887942 190.681415 
L 114.090299 190.186968 
L 114.292656 194.065148 
L 114.495014 200.779556 
L 115.102085 235.356426 
L 115.5068 267.2097 
L 115.709157 276.717951 
L 115.911514 280.659336 
L 116.113871 280.412029 
L 116.316228 279.057215 
L 116.9233 266.282649 
L 117.328015 249.335377 
L 117.732729 225.067307 
L 118.339801 187.685088 
L 118.744515 176.009521 
L 118.946872 172.668325 
L 119.149229 174.264331 
L 119.351587 179.599807 
L 119.958658 218.292665 
L 120.363373 256.371768 
L 120.768087 274.647195 
L 120.970444 278.164589 
L 121.172801 278.516748 
L 121.577516 274.493438 
L 121.779873 270.814813 
L 121.98223 264.647133 
L 122.791659 226.570247 
L 123.196374 215.70646 
L 123.601088 210.788956 
L 124.005802 215.840464 
L 124.20816 220.644057 
L 124.612874 236.241999 
L 125.422303 282.596479 
L 125.62466 289.942103 
L 125.827017 291.399568 
L 126.029374 289.505873 
L 126.231732 285.204834 
L 127.648232 220.85554 
L 128.457661 178.216468 
L 128.660018 173.53989 
L 128.862375 176.506282 
L 129.26709 203.901798 
L 130.076519 272.333369 
L 130.481233 284.158354 
L 130.68359 286.465785 
L 130.885947 285.026221 
L 131.088305 279.888805 
L 131.695376 246.859503 
L 133.111877 170.094888 
L 133.516591 157.586485 
L 133.718948 162.997747 
L 134.123663 185.255745 
L 134.32602 198.150989 
L 134.933092 256.891406 
L 135.337806 273.826028 
L 135.540163 276.88453 
L 135.74252 276.404096 
L 135.944878 271.395968 
L 137.159021 216.281936 
L 137.361378 210.526505 
L 137.563735 210.008042 
L 137.766092 210.496938 
L 137.96845 210.1452 
L 138.170807 212.570488 
L 138.373164 213.489853 
L 138.575521 216.254318 
L 139.182593 232.310583 
L 139.992022 278.502912 
L 140.194379 282.220871 
L 140.396736 283.055011 
L 140.599093 280.35991 
L 140.801451 275.936603 
L 141.813237 234.793214 
L 142.015594 230.304028 
L 142.825023 224.030044 
L 143.02738 223.395087 
L 143.229737 225.589021 
L 144.039166 242.655062 
L 144.44388 264.006403 
L 144.848595 282.851756 
L 145.050952 284.335264 
L 145.253309 282.268352 
L 145.658024 272.899254 
L 146.872167 224.765045 
L 147.074524 223.930113 
L 147.276881 224.551378 
L 147.479238 224.635859 
L 147.681596 223.863263 
L 147.883953 227.640022 
L 148.08631 229.334005 
L 148.693382 241.936411 
L 148.895739 242.668782 
L 149.300453 262.338077 
L 149.705168 282.413498 
L 149.907525 284.687455 
L 150.109882 283.218387 
L 150.716954 268.038494 
L 151.931097 235.069737 
L 152.133454 232.788328 
L 152.335811 234.156297 
L 152.740526 240.026576 
L 152.942883 240.60072 
L 153.549955 246.010984 
L 153.752312 246.344322 
L 153.954669 248.634672 
L 154.764098 284.639251 
L 154.966455 284.334455 
L 155.168812 281.422383 
L 155.775884 268.31245 
L 156.180598 249.000608 
L 157.394742 186.782535 
L 157.799456 181.250886 
L 158.001813 180.362369 
L 158.20417 184.636415 
L 158.811242 215.112639 
L 159.215956 252.573377 
L 159.620671 273.774508 
L 159.823028 276.373351 
L 160.227743 270.136409 
L 160.4301 262.460946 
L 161.037171 225.040768 
L 161.644243 204.374176 
L 162.251315 191.448845 
L 162.453672 188.510794 
L 162.656029 191.024483 
L 163.060743 208.255387 
L 164.477244 279.947458 
L 164.679601 283.854949 
L 164.881958 283.149887 
L 165.084316 278.338943 
L 166.096102 233.497859 
L 166.298459 230.21975 
L 166.703173 217.230071 
L 167.310245 187.366801 
L 167.512602 185.844999 
L 167.714959 191.055627 
L 168.524388 240.187053 
L 168.929102 269.261706 
L 169.333817 281.932116 
L 169.536174 283.571387 
L 169.738531 281.665462 
L 170.143246 263.984123 
L 170.952675 215.577056 
L 171.559746 183.838148 
L 172.166818 173.706868 
L 172.369175 173.680933 
L 172.571532 179.301158 
L 172.976247 201.772912 
L 174.19039 282.063534 
L 174.392747 283.787345 
L 174.595104 280.390725 
L 174.999819 264.564766 
L 175.60689 234.237149 
L 176.821034 192.557446 
L 177.225748 186.161609 
L 177.630462 196.458211 
L 179.046963 286.285931 
L 179.24932 287.704703 
L 179.451677 286.346116 
L 179.856392 271.205363 
L 181.475249 188.12211 
L 181.879964 173.307314 
L 182.082321 170.191652 
L 182.284678 172.273494 
L 182.487035 179.084159 
L 183.094107 220.615612 
L 183.498821 255.929682 
L 183.903536 269.711211 
L 184.105893 271.555203 
L 184.30825 272.14477 
L 184.915322 257.875391 
L 185.320036 235.696004 
L 186.129465 168.940656 
L 186.331822 164.392482 
L 186.53418 163.417176 
L 186.736537 166.215123 
L 187.141251 184.17577 
L 187.95068 223.647856 
L 188.557752 262.146156 
L 188.962466 272.828242 
L 189.164823 272.00542 
L 189.36718 269.230513 
L 189.771895 258.525571 
L 190.378966 225.585391 
L 191.188395 176.510466 
L 191.390752 174.351756 
L 191.59311 176.97289 
L 191.795467 182.928796 
L 193.616682 272.605442 
L 193.819039 275.737414 
L 194.021396 275.824656 
L 194.223753 274.069248 
L 194.628468 263.225236 
L 195.842611 203.044554 
L 196.044968 203.532558 
L 196.65204 217.787079 
L 196.854397 220.577466 
L 197.866183 254.704367 
L 198.473255 281.420862 
L 198.675612 285.679272 
L 198.877969 283.686181 
L 199.080326 277.238295 
L 199.485041 251.657787 
L 199.889755 229.405346 
L 201.508613 180.503972 
L 201.71097 182.626453 
L 202.115684 203.590014 
L 202.520399 226.146604 
L 202.925113 256.74076 
L 203.329828 271.539081 
L 203.532185 274.723113 
L 203.734542 274.137688 
L 203.936899 268.213174 
L 204.948685 217.836642 
L 205.960471 185.391239 
L 206.162829 183.712181 
L 206.365186 186.726022 
L 206.567543 193.317296 
L 208.186401 272.490739 
L 208.388758 274.725216 
L 208.591115 273.990148 
L 208.793472 267.594035 
L 209.602901 224.335053 
L 210.614687 185.287175 
L 211.019402 166.158788 
L 211.221759 162.349484 
L 211.424116 167.263371 
L 212.233545 217.297795 
L 212.638259 253.31146 
L 213.042974 268.070169 
L 213.245331 268.9109 
L 213.447688 267.144587 
L 213.650045 261.815597 
L 214.257117 229.93541 
L 214.864189 190.869508 
L 215.268903 164.272425 
L 215.875975 138.566451 
L 216.078332 137.862381 
L 216.280689 142.947992 
L 216.483046 151.35666 
L 217.090118 195.894019 
L 217.494832 234.704313 
L 217.899547 255.484358 
L 218.101904 259.976175 
L 218.304261 260.94479 
L 218.506618 258.528706 
L 218.911333 250.569249 
L 219.518404 216.614448 
L 220.125476 174.368708 
L 220.327833 168.26375 
L 220.53019 170.147352 
L 220.732548 175.178611 
L 222.351405 256.712242 
L 222.75612 272.94294 
L 222.958477 274.77755 
L 223.160834 274.339778 
L 223.363191 273.018255 
L 223.767906 265.776997 
L 224.17262 248.364536 
L 224.577335 232.750068 
L 224.982049 226.518891 
L 225.184406 227.021425 
L 225.589121 233.594525 
L 226.196192 243.444787 
L 227.005621 268.760559 
L 227.410335 289.540101 
L 227.612693 294.758763 
L 227.81505 294.007945 
L 228.219764 284.609509 
L 228.624479 265.898405 
L 229.029193 252.363447 
L 229.433908 247.494952 
L 229.838622 237.970179 
L 230.850408 208.210396 
L 231.052765 209.857362 
L 231.45748 227.791103 
L 232.469266 281.971984 
L 232.671623 285.188982 
L 232.87398 284.058075 
L 233.076337 278.633457 
L 234.088123 236.217547 
L 234.695195 216.382943 
L 235.302267 194.84302 
L 235.504624 191.97345 
L 235.706981 195.032221 
L 236.111695 213.292246 
L 236.51641 234.462544 
L 236.921124 265.310146 
L 237.325839 280.070438 
L 237.528196 282.300008 
L 237.730553 281.153217 
L 237.93291 275.547995 
L 238.944696 231.047747 
L 239.754125 208.087323 
L 240.15884 204.687785 
L 240.361197 204.774881 
L 240.765911 216.605192 
L 241.372983 246.156655 
L 241.777697 275.556654 
L 241.980054 284.064966 
L 242.182412 287.897821 
L 242.384769 288.314306 
L 242.587126 285.583737 
L 242.99184 270.507909 
L 243.598912 244.589765 
L 244.813055 201.119963 
L 245.21777 196.169248 
L 245.420127 199.050875 
L 245.824841 214.845387 
L 246.229556 237.946097 
L 246.63427 268.422166 
L 247.038985 283.032904 
L 247.241342 285.331847 
L 247.443699 283.465554 
L 247.646056 277.836273 
L 248.657842 227.096438 
L 249.669628 168.683061 
L 249.871985 164.61105 
L 250.074343 166.852451 
L 250.2767 173.142935 
L 250.681414 195.607291 
L 251.895558 269.662791 
L 252.097915 272.392109 
L 252.300272 272.57055 
L 252.502629 270.112976 
L 252.907344 259.550731 
L 253.514415 223.763687 
L 254.121487 178.526235 
L 254.526201 168.9824 
L 254.728558 167.41179 
L 254.930916 167.934809 
L 255.133273 171.420822 
L 255.537987 191.875265 
L 256.145059 236.138543 
L 256.549773 265.025972 
L 256.954488 276.161804 
L 257.156845 276.855348 
L 257.359202 275.661981 
L 257.561559 272.017455 
L 257.763917 266.070543 
L 258.168631 244.09511 
L 258.97806 193.510198 
L 259.382774 185.084432 
L 259.585131 183.671979 
L 259.787489 184.072266 
L 259.989846 187.736047 
L 260.39456 201.116221 
L 260.799275 225.232535 
L 261.406346 270.184538 
L 261.811061 281.324654 
L 262.013418 280.779511 
L 262.215775 277.612993 
L 262.418132 269.147183 
L 263.025204 232.687959 
L 263.227561 227.530318 
L 263.429918 227.516363 
L 263.834633 230.95848 
L 264.03699 231.665553 
L 264.239347 232.903392 
L 264.644062 236.956939 
L 264.846419 238.401564 
L 265.251133 248.715791 
L 265.655848 259.982947 
L 266.262919 282.908393 
L 266.465277 287.400565 
L 266.667634 289.179865 
L 266.869991 287.73946 
L 267.072348 282.837176 
L 267.67942 258.222036 
L 268.286491 244.664798 
L 268.691206 235.639545 
L 269.298277 227.525954 
L 269.500635 226.926262 
L 269.905349 232.840956 
L 270.512421 250.474621 
L 270.917135 271.610988 
L 271.32185 283.178422 
L 271.524207 283.807414 
L 271.726564 280.901294 
L 271.928921 274.147231 
L 272.535993 245.188702 
L 273.143064 217.802198 
L 273.952493 179.87705 
L 274.357208 171.38379 
L 274.559565 171.417285 
L 274.761922 177.760751 
L 275.368994 207.797864 
L 275.976065 255.577633 
L 276.38078 264.164597 
L 276.583137 263.483492 
L 276.785494 260.486328 
L 277.594923 220.769774 
L 278.201995 189.206825 
L 278.809066 171.38997 
L 279.011423 167.731328 
L 279.213781 166.33724 
L 279.416138 169.701815 
L 279.618495 176.360041 
L 280.427924 231.918698 
L 280.832638 265.002012 
L 281.237353 274.704479 
L 281.43971 274.342485 
L 281.642067 271.34771 
L 282.046782 254.45899 
L 282.653853 222.282554 
L 283.058568 201.548186 
L 283.867996 177.216628 
L 284.070354 175.09701 
L 284.272711 177.810443 
L 284.475068 186.469672 
L 285.689211 273.809512 
L 285.891568 279.950122 
L 286.093926 281.93286 
L 286.296283 282.681122 
L 286.49864 281.536649 
L 286.903354 269.363268 
L 287.510426 239.348424 
L 288.319855 186.581296 
L 288.724569 176.516311 
L 288.926927 173.07972 
L 289.129284 175.316117 
L 289.331641 180.134839 
L 289.736355 205.785249 
L 289.938713 218.105661 
L 290.343427 253.315091 
L 290.748141 272.766246 
L 290.950499 276.348829 
L 291.152856 275.427496 
L 291.355213 272.547031 
L 291.759927 262.050562 
L 292.164642 238.863115 
L 293.176428 160.336227 
L 293.581142 154.768458 
L 293.7835 154.996775 
L 293.985857 158.873823 
L 294.390571 175.652531 
L 294.795286 197.304442 
L 295.402357 250.481409 
L 295.807072 266.741571 
L 296.009429 266.457679 
L 296.211786 262.952994 
L 296.414143 252.771041 
L 297.425929 166.3814 
L 298.033001 114.842741 
L 298.235358 111.823164 
L 298.437715 111.783587 
L 298.640073 114.923814 
L 299.247144 142.710185 
L 299.651859 173.500885 
L 300.25893 235.19497 
L 300.663645 247.099555 
L 300.866002 247.027122 
L 301.068359 243.514167 
L 301.473073 221.403831 
L 301.877788 191.048105 
L 302.687217 107.266536 
L 302.889574 99.982747 
L 303.091931 104.926851 
L 304.306074 182.966194 
L 304.913146 231.930909 
L 305.31786 250.590229 
L 305.520218 254.285135 
L 305.722575 255.798407 
L 305.924932 250.363514 
L 306.734361 203.678272 
L 307.948504 144.208716 
L 308.150861 146.197848 
L 308.555576 167.220408 
L 309.769719 252.077528 
L 310.174433 269.764133 
L 310.376791 272.821438 
L 310.579148 272.499333 
L 310.781505 267.589142 
L 311.186219 240.287982 
L 311.590934 211.773498 
L 312.60272 150.196248 
L 312.805077 148.992506 
L 313.007434 148.802246 
L 313.412149 160.33984 
L 314.01922 199.661813 
L 314.626292 240.34253 
L 315.031006 257.28009 
L 315.233364 258.65257 
L 315.435721 257.244298 
L 315.638078 252.107863 
L 316.24515 223.076664 
L 316.649864 212.198683 
L 316.852221 208.72625 
L 317.256936 197.658467 
L 317.459293 197.229076 
L 317.66165 196.236211 
L 317.864007 196.022558 
L 318.268722 200.807521 
L 319.07815 232.842184 
L 319.685222 262.515095 
L 320.089937 271.442889 
L 320.292294 272.431487 
L 320.697008 266.336053 
L 320.899365 261.919611 
L 321.506437 237.521098 
L 322.518223 181.947418 
L 322.72058 176.265995 
L 322.922937 175.388574 
L 323.125295 175.880859 
L 323.327652 181.060798 
L 323.934723 215.279149 
L 324.541795 256.207613 
L 324.744152 262.90968 
L 324.94651 265.268623 
L 325.148867 264.945111 
L 325.351224 263.415335 
L 325.553581 259.864179 
L 325.755938 254.234771 
L 326.36301 223.401211 
L 327.172439 155.099147 
L 327.374796 150.745364 
L 327.577153 151.196983 
L 327.77951 153.368342 
L 327.981868 157.212413 
L 328.184225 163.940497 
L 328.588939 190.996305 
L 329.600725 265.969789 
L 329.803083 269.350891 
L 330.00544 268.803692 
L 330.207797 267.069064 
L 330.410154 259.501648 
L 331.017226 215.744828 
L 331.826655 165.45049 
L 332.029012 159.864065 
L 332.433726 161.698924 
L 332.636083 164.289216 
L 333.040798 181.508648 
L 334.052584 251.59318 
L 334.457298 269.7892 
L 334.862013 275.545892 
L 335.06437 273.536496 
L 335.469084 252.704582 
L 335.873799 227.530737 
L 336.278513 213.804535 
L 336.885585 193.344547 
L 337.087942 193.513994 
L 337.290299 191.452016 
L 337.492656 191.528468 
L 337.897371 206.044941 
L 339.313871 275.379971 
L 339.516228 277.004565 
L 339.718586 276.588932 
L 339.920943 270.494025 
L 341.337443 201.350204 
L 341.742158 187.397697 
L 342.349229 169.741112 
L 342.551587 171.001005 
L 342.753944 174.586608 
L 343.361015 205.418737 
L 343.76573 241.191306 
L 344.170444 258.232537 
L 344.372801 259.384648 
L 344.575159 257.986578 
L 344.979873 244.438488 
L 345.586945 213.357464 
L 346.396374 144.088906 
L 346.598731 134.829896 
L 346.801088 132.855602 
L 347.003445 133.149323 
L 347.205802 136.068049 
L 347.812874 161.629368 
L 349.027017 252.803341 
L 349.229374 256.772902 
L 349.431732 258.09483 
L 349.634089 254.136045 
L 350.24116 224.244229 
L 350.645875 194.013412 
L 351.252947 143.929768 
L 351.455304 135.520259 
L 351.657661 132.936502 
L 351.860018 133.300815 
L 352.062375 134.443369 
L 352.46709 147.492865 
L 352.669447 159.7549 
L 353.681233 249.383479 
L 354.085947 261.898003 
L 354.490662 265.925904 
L 354.693019 262.156191 
L 355.097733 238.689103 
L 355.502448 206.374152 
L 356.109519 140.709988 
L 356.311877 132.835802 
L 356.514234 131.478282 
L 356.918948 133.409581 
L 357.121306 138.386155 
L 357.52602 158.789493 
L 358.537806 245.769112 
L 358.94252 260.413842 
L 359.144878 261.572744 
L 359.347235 261.660334 
L 359.549592 255.809757 
L 359.954306 234.600955 
L 360.359021 203.526454 
L 360.966092 133.414132 
L 361.16845 123.256391 
L 361.370807 123.109137 
L 361.977879 131.571078 
L 362.382593 147.676892 
L 362.989665 199.75412 
L 363.394379 236.954725 
L 363.799093 251.097401 
L 364.001451 251.736687 
L 364.203808 247.63404 
L 365.013237 194.666572 
L 365.822665 104.849293 
L 366.025023 96.474681 
L 366.22738 97.823379 
L 367.036809 122.359656 
L 367.441523 152.861089 
L 367.846238 196.507739 
L 368.250952 228.12813 
L 368.655666 241.576326 
L 368.858024 242.339957 
L 369.060381 239.544752 
L 369.86981 193.474652 
L 370.274524 154.260645 
L 370.679238 119.582803 
L 370.881596 111.694274 
L 371.083953 111.097925 
L 371.691024 131.140531 
L 372.095739 157.76581 
L 372.905168 227.499144 
L 373.512239 250.847625 
L 373.714597 253.58756 
L 373.916954 250.999753 
L 374.92874 201.335069 
L 375.535811 147.265314 
L 375.738169 140.951224 
L 375.940526 139.928738 
L 376.34524 147.944354 
L 376.547597 156.664763 
L 378.166455 263.57908 
L 378.368812 268.133543 
L 378.57117 268.55848 
L 378.773527 262.937128 
L 380.594742 140.31437 
L 380.797099 137.811611 
L 380.999456 138.023935 
L 381.201813 139.460717 
L 381.40417 143.095278 
L 381.808885 164.34072 
L 382.820671 239.584217 
L 383.225385 253.95962 
L 383.427743 254.232766 
L 383.6301 248.118754 
L 384.237171 218.375877 
L 384.237171 218.375877 
" clip-path="url(#p912ed1f53c)" style="fill: none; stroke: #ff7f0e; stroke-width: 1.5; stroke-linecap: square"/>
   </g>
   <g id="line2d_16">
    <path d="M 384.439529 208.123157 
L 385.0466 201.008053 
L 385.451315 199.194002 
L 385.653672 199.306489 
L 385.856029 199.995531 
L 386.058386 201.153635 
L 386.260743 205.434169 
L 386.665458 223.346065 
L 387.474887 260.154635 
L 387.677244 264.279963 
L 387.879601 265.431872 
L 388.284316 259.176805 
L 388.486673 255.757053 
L 389.296102 227.306339 
L 389.700816 221.009256 
L 390.712602 195.523622 
L 390.914959 193.323567 
L 391.117316 195.370755 
L 391.522031 202.964149 
L 392.533817 227.918339 
L 392.736174 229.177824 
L 393.140888 223.912721 
L 393.545603 215.427262 
L 394.152675 197.107388 
L 394.557389 172.653929 
L 395.366818 117.935239 
L 395.771532 104.059178 
L 395.973889 101.834698 
L 396.378604 105.523265 
L 396.783318 114.908242 
L 397.188033 129.48462 
L 397.592747 152.728242 
L 398.402176 208.691377 
L 398.604533 214.650204 
L 398.80689 215.869686 
L 399.009248 213.986149 
L 399.413962 204.440449 
L 400.223391 183.932475 
L 400.628105 178.733954 
L 400.830462 178.062948 
L 401.03282 179.011704 
L 401.437534 185.444808 
L 401.842248 197.52511 
L 403.258749 262.367415 
L 403.663463 268.849607 
L 403.86582 270.055228 
L 404.068178 269.309605 
L 404.270535 266.532363 
L 404.675249 256.091052 
L 405.282321 239.267057 
L 406.496464 224.697357 
L 406.698821 224.019027 
L 406.901179 224.277044 
L 407.103536 226.017288 
L 408.115322 239.45347 
L 408.317679 239.973743 
L 408.520036 239.117786 
L 408.722393 235.604088 
L 409.329465 214.64685 
L 409.936537 188.261287 
L 411.353037 115.50869 
L 411.757752 107.972169 
L 411.960109 106.171862 
L 412.162466 105.676731 
L 412.364823 106.643809 
L 412.56718 109.178629 
L 412.971895 119.362768 
L 413.578966 146.353945 
L 414.388395 186.174458 
L 414.590752 191.973153 
L 414.79311 194.331769 
L 414.995467 194.620387 
L 415.197824 193.338637 
L 416.007253 184.833124 
L 416.614325 180.784396 
L 416.816682 180.996505 
L 417.019039 182.354882 
L 417.626111 191.017355 
L 418.030825 199.744531 
L 419.85204 251.312839 
L 420.054397 253.788518 
L 420.256754 254.813977 
L 420.459112 254.538683 
L 421.875612 246.721267 
L 422.077969 246.100067 
L 422.482684 242.183467 
L 422.887398 238.763421 
L 423.292112 237.752154 
L 423.49447 237.621818 
L 423.696827 237.903216 
L 424.303898 239.474911 
L 424.506256 239.70192 
L 424.708613 239.588854 
L 424.91097 238.773784 
L 425.113327 236.277817 
L 425.518042 226.428313 
L 426.125113 205.130046 
L 427.743971 138.034859 
L 428.958114 89.699956 
L 429.160471 86.05433 
L 429.362829 84.744206 
L 429.565186 86.050168 
L 429.767543 89.942648 
L 430.172257 103.935994 
L 430.779329 136.397357 
L 431.588758 186.380549 
L 431.993472 194.85688 
L 432.19583 196.229665 
L 432.398187 196.404952 
L 432.600544 195.640708 
L 432.802901 194.040682 
L 433.207616 187.837626 
L 433.814687 178.468541 
L 434.219402 175.21931 
L 434.421759 175.412644 
L 434.624116 177.726738 
L 434.826473 181.446431 
L 435.231188 195.397019 
L 437.052403 278.737624 
L 437.25476 281.662152 
L 437.457117 281.871543 
L 437.659474 279.689685 
L 438.064189 269.837275 
L 438.67126 251.073504 
L 439.683046 229.556253 
L 439.885403 227.136373 
L 440.087761 226.580969 
L 440.290118 228.026516 
L 440.694832 233.971798 
L 441.099547 246.488448 
L 441.504261 260.004552 
L 441.706618 263.637445 
L 441.908976 264.438319 
L 442.111333 262.373513 
L 442.516047 252.445505 
L 442.920762 237.650428 
L 443.527833 203.33656 
L 445.349048 98.808758 
L 445.753762 89.092596 
L 445.95612 88.888597 
L 446.158477 91.549092 
L 446.563191 103.975873 
L 447.37262 143.253899 
L 448.182049 178.717326 
L 448.384406 182.466878 
L 448.586763 183.907192 
L 448.789121 182.929163 
L 449.193835 177.39426 
L 449.598549 171.710241 
L 450.003264 169.296039 
L 450.205621 168.786683 
L 450.407978 169.667393 
L 450.812693 174.497393 
L 451.419764 184.356427 
L 451.824479 196.241037 
L 452.43155 213.041518 
L 453.240979 228.033559 
L 453.848051 236.986872 
L 454.252765 242.360395 
L 454.859837 247.695823 
L 455.264551 248.995208 
L 455.466908 249.349979 
L 455.669266 250.081084 
L 456.478694 255.438988 
L 457.085766 262.309427 
L 457.490481 263.543224 
L 457.692838 263.820941 
L 457.895195 263.555264 
L 458.097552 262.163208 
L 458.906981 251.916395 
L 460.323481 222.661213 
L 461.13291 193.176064 
L 461.942339 156.592813 
L 462.549411 117.323943 
L 463.35884 64.991191 
L 463.763554 55.8 
L 463.965911 56.540185 
L 464.168268 60.798433 
L 464.572983 78.799971 
L 465.180054 121.808017 
L 465.989483 187.829247 
L 466.394198 198.489576 
L 466.596555 199.947791 
L 466.798912 198.924337 
L 467.203626 192.533258 
L 467.810698 174.609416 
L 468.41777 159.490468 
L 468.620127 156.841716 
L 468.822484 156.548384 
L 469.024841 159.114261 
L 469.429556 170.386506 
L 470.036627 203.20697 
L 471.250771 277.011143 
L 471.655485 285.431113 
L 471.857842 285.162863 
L 472.262557 275.327745 
L 473.274343 240.135855 
L 473.881414 229.835912 
L 474.083772 227.920373 
L 474.286129 227.886786 
L 474.488486 230.856472 
L 474.8932 245.599906 
L 475.702629 284.144421 
L 475.904986 287.04406 
L 476.107344 286.379136 
L 476.309701 282.562974 
L 476.916772 258.02928 
L 477.726201 219.352358 
L 478.940345 142.660935 
L 479.345059 127.521951 
L 479.749773 121.244321 
L 479.952131 120.440209 
L 480.154488 121.115615 
L 480.559202 126.360223 
L 480.963917 135.545019 
L 481.570988 150.620831 
L 481.975703 156.387261 
L 482.17806 157.912687 
L 482.380417 158.006841 
L 482.582774 156.898386 
L 483.189846 149.295286 
L 483.59456 145.56754 
L 483.796917 146.088877 
L 483.999275 149.286842 
L 484.403989 164.24759 
L 485.213418 191.212845 
L 485.82049 202.246955 
L 486.225204 207.096528 
L 486.427561 206.944874 
L 486.629918 205.395627 
L 487.034633 199.43867 
L 487.641704 190.446116 
L 487.844062 189.331886 
L 488.046419 190.231613 
L 488.451133 199.062557 
L 489.058205 219.481747 
L 489.867634 250.548264 
L 490.272348 258.262956 
L 490.474705 260.689745 
L 490.677063 261.737045 
L 490.87942 261.536807 
L 491.081777 260.938265 
L 491.284134 259.136894 
L 491.688849 251.751801 
L 492.902992 222.650412 
L 493.105349 221.109991 
L 493.307706 220.599865 
L 493.510063 220.534948 
L 493.712421 221.164563 
L 493.914778 223.408819 
L 494.319492 232.416553 
L 494.926564 251.577959 
L 495.128921 253.510088 
L 495.331278 253.405738 
L 495.533636 251.395797 
L 495.93835 241.98291 
L 496.545422 214.774106 
L 497.152493 175.923552 
L 498.568994 67.942797 
L 498.771351 60.027417 
L 498.973708 56.609892 
L 499.176065 57.91675 
L 499.378422 64.07457 
L 499.783137 87.98784 
L 501.199637 201.699942 
L 501.401995 205.18162 
L 501.604352 204.400583 
L 502.009066 195.969185 
L 503.223209 158.778235 
L 503.627924 154.29621 
L 503.830281 154.009358 
L 504.032638 156.524228 
L 504.437353 169.305442 
L 504.842067 192.36257 
L 505.651496 242.979475 
L 506.05621 261.019937 
L 506.258568 265.277975 
L 506.460925 267.087028 
L 506.663282 267.837999 
L 506.865639 267.840687 
L 507.067996 267.086642 
L 507.270354 265.204499 
L 507.675068 257.206571 
L 508.28214 241.911387 
L 508.889211 235.61103 
L 509.091568 235.588098 
L 509.293926 236.856012 
L 509.496283 240.585714 
L 509.900997 255.455697 
L 510.508069 282.224111 
L 510.710426 286.190288 
L 510.912783 287.481272 
L 511.115141 286.018684 
L 511.317498 281.738868 
L 512.126927 250.980245 
L 512.733998 217.903874 
L 513.543427 164.633912 
L 514.150499 137.910887 
L 514.555213 130.057471 
L 514.959927 126.382535 
L 515.162285 125.500186 
L 515.364642 125.567866 
L 515.566999 126.337965 
L 515.769356 127.918108 
L 516.174071 134.767468 
L 516.578785 142.316551 
L 516.9835 146.126287 
L 517.185857 146.134612 
L 517.995286 139.824156 
L 518.197643 139.704983 
L 518.4 140.91898 
L 518.4 140.91898 
" clip-path="url(#p912ed1f53c)" style="fill: none; stroke: #2ca02c; stroke-width: 1.5; stroke-linecap: square"/>
   </g>
   <g id="patch_3">
    <path d="M 72 320.4 
L 72 43.2 
" style="fill: none; stroke: #000000; stroke-width: 0.8; stroke-linejoin: miter; stroke-linecap: square"/>
   </g>
   <g id="patch_4">
    <path d="M 518.4 320.4 
L 518.4 43.2 
" style="fill: none; stroke: #000000; stroke-width: 0.8; stroke-linejoin: miter; stroke-linecap: square"/>
   </g>
   <g id="patch_5">
    <path d="M 72 320.4 
L 518.4 320.4 
" style="fill: none; stroke: #000000; stroke-width: 0.8; stroke-linejoin: miter; stroke-linecap: square"/>
   </g>
   <g id="patch_6">
    <path d="M 72 43.2 
L 518.4 43.2 
" style="fill: none; stroke: #000000; stroke-width: 0.8; stroke-linejoin: miter; stroke-linecap: square"/>
   </g>
   <g id="text_14">
    <!-- Classic Transformer - model_20231126160729 -->
    <g transform="translate(155.436563 37.2) scale(0.12 -0.12)">
     <defs>
      <path id="DejaVuSans-43" d="M 4122 4306 
L 4122 3641 
Q 3803 3938 3442 4084 
Q 3081 4231 2675 4231 
Q 1875 4231 1450 3742 
Q 1025 3253 1025 2328 
Q 1025 1406 1450 917 
Q 1875 428 2675 428 
Q 3081 428 3442 575 
Q 3803 722 4122 1019 
L 4122 359 
Q 3791 134 3420 21 
Q 3050 -91 2638 -91 
Q 1578 -91 968 557 
Q 359 1206 359 2328 
Q 359 3453 968 4101 
Q 1578 4750 2638 4750 
Q 3056 4750 3426 4639 
Q 3797 4528 4122 4306 
z
" transform="scale(0.015625)"/>
      <path id="DejaVuSans-6c" d="M 603 4863 
L 1178 4863 
L 1178 0 
L 603 0 
L 603 4863 
z
" transform="scale(0.015625)"/>
      <path id="DejaVuSans-61" d="M 2194 1759 
Q 1497 1759 1228 1600 
Q 959 1441 959 1056 
Q 959 750 1161 570 
Q 1363 391 1709 391 
Q 2188 391 2477 730 
Q 2766 1069 2766 1631 
L 2766 1759 
L 2194 1759 
z
M 3341 1997 
L 3341 0 
L 2766 0 
L 2766 531 
Q 2569 213 2275 61 
Q 1981 -91 1556 -91 
Q 1019 -91 701 211 
Q 384 513 384 1019 
Q 384 1609 779 1909 
Q 1175 2209 1959 2209 
L 2766 2209 
L 2766 2266 
Q 2766 2663 2505 2880 
Q 2244 3097 1772 3097 
Q 1472 3097 1187 3025 
Q 903 2953 641 2809 
L 641 3341 
Q 956 3463 1253 3523 
Q 1550 3584 1831 3584 
Q 2591 3584 2966 3190 
Q 3341 2797 3341 1997 
z
" transform="scale(0.015625)"/>
      <path id="DejaVuSans-73" d="M 2834 3397 
L 2834 2853 
Q 2591 2978 2328 3040 
Q 2066 3103 1784 3103 
Q 1356 3103 1142 2972 
Q 928 2841 928 2578 
Q 928 2378 1081 2264 
Q 1234 2150 1697 2047 
L 1894 2003 
Q 2506 1872 2764 1633 
Q 3022 1394 3022 966 
Q 3022 478 2636 193 
Q 2250 -91 1575 -91 
Q 1294 -91 989 -36 
Q 684 19 347 128 
L 347 722 
Q 666 556 975 473 
Q 1284 391 1588 391 
Q 1994 391 2212 530 
Q 2431 669 2431 922 
Q 2431 1156 2273 1281 
Q 2116 1406 1581 1522 
L 1381 1569 
Q 847 1681 609 1914 
Q 372 2147 372 2553 
Q 372 3047 722 3315 
Q 1072 3584 1716 3584 
Q 2034 3584 2315 3537 
Q 2597 3491 2834 3397 
z
" transform="scale(0.015625)"/>
      <path id="DejaVuSans-69" d="M 603 3500 
L 1178 3500 
L 1178 0 
L 603 0 
L 603 3500 
z
M 603 4863 
L 1178 4863 
L 1178 4134 
L 603 4134 
L 603 4863 
z
" transform="scale(0.015625)"/>
      <path id="DejaVuSans-63" d="M 3122 3366 
L 3122 2828 
Q 2878 2963 2633 3030 
Q 2388 3097 2138 3097 
Q 1578 3097 1268 2742 
Q 959 2388 959 1747 
Q 959 1106 1268 751 
Q 1578 397 2138 397 
Q 2388 397 2633 464 
Q 2878 531 3122 666 
L 3122 134 
Q 2881 22 2623 -34 
Q 2366 -91 2075 -91 
Q 1284 -91 818 406 
Q 353 903 353 1747 
Q 353 2603 823 3093 
Q 1294 3584 2113 3584 
Q 2378 3584 2631 3529 
Q 2884 3475 3122 3366 
z
" transform="scale(0.015625)"/>
      <path id="DejaVuSans-20" transform="scale(0.015625)"/>
      <path id="DejaVuSans-54" d="M -19 4666 
L 3928 4666 
L 3928 4134 
L 2272 4134 
L 2272 0 
L 1638 0 
L 1638 4134 
L -19 4134 
L -19 4666 
z
" transform="scale(0.015625)"/>
      <path id="DejaVuSans-72" d="M 2631 2963 
Q 2534 3019 2420 3045 
Q 2306 3072 2169 3072 
Q 1681 3072 1420 2755 
Q 1159 2438 1159 1844 
L 1159 0 
L 581 0 
L 581 3500 
L 1159 3500 
L 1159 2956 
Q 1341 3275 1631 3429 
Q 1922 3584 2338 3584 
Q 2397 3584 2469 3576 
Q 2541 3569 2628 3553 
L 2631 2963 
z
" transform="scale(0.015625)"/>
      <path id="DejaVuSans-6e" d="M 3513 2113 
L 3513 0 
L 2938 0 
L 2938 2094 
Q 2938 2591 2744 2837 
Q 2550 3084 2163 3084 
Q 1697 3084 1428 2787 
Q 1159 2491 1159 1978 
L 1159 0 
L 581 0 
L 581 3500 
L 1159 3500 
L 1159 2956 
Q 1366 3272 1645 3428 
Q 1925 3584 2291 3584 
Q 2894 3584 3203 3211 
Q 3513 2838 3513 2113 
z
" transform="scale(0.015625)"/>
      <path id="DejaVuSans-66" d="M 2375 4863 
L 2375 4384 
L 1825 4384 
Q 1516 4384 1395 4259 
Q 1275 4134 1275 3809 
L 1275 3500 
L 2222 3500 
L 2222 3053 
L 1275 3053 
L 1275 0 
L 697 0 
L 697 3053 
L 147 3053 
L 147 3500 
L 697 3500 
L 697 3744 
Q 697 4328 969 4595 
Q 1241 4863 1831 4863 
L 2375 4863 
z
" transform="scale(0.015625)"/>
      <path id="DejaVuSans-6f" d="M 1959 3097 
Q 1497 3097 1228 2736 
Q 959 2375 959 1747 
Q 959 1119 1226 758 
Q 1494 397 1959 397 
Q 2419 397 2687 759 
Q 2956 1122 2956 1747 
Q 2956 2369 2687 2733 
Q 2419 3097 1959 3097 
z
M 1959 3584 
Q 2709 3584 3137 3096 
Q 3566 2609 3566 1747 
Q 3566 888 3137 398 
Q 2709 -91 1959 -91 
Q 1206 -91 779 398 
Q 353 888 353 1747 
Q 353 2609 779 3096 
Q 1206 3584 1959 3584 
z
" transform="scale(0.015625)"/>
      <path id="DejaVuSans-6d" d="M 3328 2828 
Q 3544 3216 3844 3400 
Q 4144 3584 4550 3584 
Q 5097 3584 5394 3201 
Q 5691 2819 5691 2113 
L 5691 0 
L 5113 0 
L 5113 2094 
Q 5113 2597 4934 2840 
Q 4756 3084 4391 3084 
Q 3944 3084 3684 2787 
Q 3425 2491 3425 1978 
L 3425 0 
L 2847 0 
L 2847 2094 
Q 2847 2600 2669 2842 
Q 2491 3084 2119 3084 
Q 1678 3084 1418 2786 
Q 1159 2488 1159 1978 
L 1159 0 
L 581 0 
L 581 3500 
L 1159 3500 
L 1159 2956 
Q 1356 3278 1631 3431 
Q 1906 3584 2284 3584 
Q 2666 3584 2933 3390 
Q 3200 3197 3328 2828 
z
" transform="scale(0.015625)"/>
      <path id="DejaVuSans-65" d="M 3597 1894 
L 3597 1613 
L 953 1613 
Q 991 1019 1311 708 
Q 1631 397 2203 397 
Q 2534 397 2845 478 
Q 3156 559 3463 722 
L 3463 178 
Q 3153 47 2828 -22 
Q 2503 -91 2169 -91 
Q 1331 -91 842 396 
Q 353 884 353 1716 
Q 353 2575 817 3079 
Q 1281 3584 2069 3584 
Q 2775 3584 3186 3129 
Q 3597 2675 3597 1894 
z
M 3022 2063 
Q 3016 2534 2758 2815 
Q 2500 3097 2075 3097 
Q 1594 3097 1305 2825 
Q 1016 2553 972 2059 
L 3022 2063 
z
" transform="scale(0.015625)"/>
      <path id="DejaVuSans-64" d="M 2906 2969 
L 2906 4863 
L 3481 4863 
L 3481 0 
L 2906 0 
L 2906 525 
Q 2725 213 2448 61 
Q 2172 -91 1784 -91 
Q 1150 -91 751 415 
Q 353 922 353 1747 
Q 353 2572 751 3078 
Q 1150 3584 1784 3584 
Q 2172 3584 2448 3432 
Q 2725 3281 2906 2969 
z
M 947 1747 
Q 947 1113 1208 752 
Q 1469 391 1925 391 
Q 2381 391 2643 752 
Q 2906 1113 2906 1747 
Q 2906 2381 2643 2742 
Q 2381 3103 1925 3103 
Q 1469 3103 1208 2742 
Q 947 2381 947 1747 
z
" transform="scale(0.015625)"/>
      <path id="DejaVuSans-5f" d="M 3263 -1063 
L 3263 -1509 
L -63 -1509 
L -63 -1063 
L 3263 -1063 
z
" transform="scale(0.015625)"/>
      <path id="DejaVuSans-39" d="M 703 97 
L 703 672 
Q 941 559 1184 500 
Q 1428 441 1663 441 
Q 2288 441 2617 861 
Q 2947 1281 2994 2138 
Q 2813 1869 2534 1725 
Q 2256 1581 1919 1581 
Q 1219 1581 811 2004 
Q 403 2428 403 3163 
Q 403 3881 828 4315 
Q 1253 4750 1959 4750 
Q 2769 4750 3195 4129 
Q 3622 3509 3622 2328 
Q 3622 1225 3098 567 
Q 2575 -91 1691 -91 
Q 1453 -91 1209 -44 
Q 966 3 703 97 
z
M 1959 2075 
Q 2384 2075 2632 2365 
Q 2881 2656 2881 3163 
Q 2881 3666 2632 3958 
Q 2384 4250 1959 4250 
Q 1534 4250 1286 3958 
Q 1038 3666 1038 3163 
Q 1038 2656 1286 2365 
Q 1534 2075 1959 2075 
z
" transform="scale(0.015625)"/>
     </defs>
     <use xlink:href="#DejaVuSans-43"/>
     <use xlink:href="#DejaVuSans-6c" x="69.824219"/>
     <use xlink:href="#DejaVuSans-61" x="97.607422"/>
     <use xlink:href="#DejaVuSans-73" x="158.886719"/>
     <use xlink:href="#DejaVuSans-73" x="210.986328"/>
     <use xlink:href="#DejaVuSans-69" x="263.085938"/>
     <use xlink:href="#DejaVuSans-63" x="290.869141"/>
     <use xlink:href="#DejaVuSans-20" x="345.849609"/>
     <use xlink:href="#DejaVuSans-54" x="377.636719"/>
     <use xlink:href="#DejaVuSans-72" x="423.970703"/>
     <use xlink:href="#DejaVuSans-61" x="465.083984"/>
     <use xlink:href="#DejaVuSans-6e" x="526.363281"/>
     <use xlink:href="#DejaVuSans-73" x="589.742188"/>
     <use xlink:href="#DejaVuSans-66" x="641.841797"/>
     <use xlink:href="#DejaVuSans-6f" x="677.046875"/>
     <use xlink:href="#DejaVuSans-72" x="738.228516"/>
     <use xlink:href="#DejaVuSans-6d" x="777.591797"/>
     <use xlink:href="#DejaVuSans-65" x="875.003906"/>
     <use xlink:href="#DejaVuSans-72" x="936.527344"/>
     <use xlink:href="#DejaVuSans-20" x="977.640625"/>
     <use xlink:href="#DejaVuSans-2d" x="1009.427734"/>
     <use xlink:href="#DejaVuSans-20" x="1045.511719"/>
     <use xlink:href="#DejaVuSans-6d" x="1077.298828"/>
     <use xlink:href="#DejaVuSans-6f" x="1174.710938"/>
     <use xlink:href="#DejaVuSans-64" x="1235.892578"/>
     <use xlink:href="#DejaVuSans-65" x="1299.369141"/>
     <use xlink:href="#DejaVuSans-6c" x="1360.892578"/>
     <use xlink:href="#DejaVuSans-5f" x="1388.675781"/>
     <use xlink:href="#DejaVuSans-32" x="1438.675781"/>
     <use xlink:href="#DejaVuSans-30" x="1502.298828"/>
     <use xlink:href="#DejaVuSans-32" x="1565.921875"/>
     <use xlink:href="#DejaVuSans-33" x="1629.544922"/>
     <use xlink:href="#DejaVuSans-31" x="1693.167969"/>
     <use xlink:href="#DejaVuSans-31" x="1756.791016"/>
     <use xlink:href="#DejaVuSans-32" x="1820.414062"/>
     <use xlink:href="#DejaVuSans-36" x="1884.037109"/>
     <use xlink:href="#DejaVuSans-31" x="1947.660156"/>
     <use xlink:href="#DejaVuSans-36" x="2011.283203"/>
     <use xlink:href="#DejaVuSans-30" x="2074.90625"/>
     <use xlink:href="#DejaVuSans-37" x="2138.529297"/>
     <use xlink:href="#DejaVuSans-32" x="2202.152344"/>
     <use xlink:href="#DejaVuSans-39" x="2265.775391"/>
    </g>
   </g>
   <g id="legend_1">
    <g id="patch_7">
     <path d="M 79 95.234375 
L 161.517188 95.234375 
Q 163.517188 95.234375 163.517188 93.234375 
L 163.517188 50.2 
Q 163.517188 48.2 161.517188 48.2 
L 79 48.2 
Q 77 48.2 77 50.2 
L 77 93.234375 
Q 77 95.234375 79 95.234375 
z
" style="fill: #ffffff; opacity: 0.8; stroke: #cccccc; stroke-linejoin: miter"/>
    </g>
    <g id="line2d_17">
     <path d="M 81 56.298437 
L 91 56.298437 
L 101 56.298437 
" style="fill: none; stroke: #1f77b4; stroke-width: 1.5; stroke-linecap: square"/>
    </g>
    <g id="text_15">
     <!-- Measured -->
     <g transform="translate(109 59.798437) scale(0.1 -0.1)">
      <defs>
       <path id="DejaVuSans-4d" d="M 628 4666 
L 1569 4666 
L 2759 1491 
L 3956 4666 
L 4897 4666 
L 4897 0 
L 4281 0 
L 4281 4097 
L 3078 897 
L 2444 897 
L 1241 4097 
L 1241 0 
L 628 0 
L 628 4666 
z
" transform="scale(0.015625)"/>
       <path id="DejaVuSans-75" d="M 544 1381 
L 544 3500 
L 1119 3500 
L 1119 1403 
Q 1119 906 1312 657 
Q 1506 409 1894 409 
Q 2359 409 2629 706 
Q 2900 1003 2900 1516 
L 2900 3500 
L 3475 3500 
L 3475 0 
L 2900 0 
L 2900 538 
Q 2691 219 2414 64 
Q 2138 -91 1772 -91 
Q 1169 -91 856 284 
Q 544 659 544 1381 
z
M 1991 3584 
L 1991 3584 
z
" transform="scale(0.015625)"/>
      </defs>
      <use xlink:href="#DejaVuSans-4d"/>
      <use xlink:href="#DejaVuSans-65" x="86.279297"/>
      <use xlink:href="#DejaVuSans-61" x="147.802734"/>
      <use xlink:href="#DejaVuSans-73" x="209.082031"/>
      <use xlink:href="#DejaVuSans-75" x="261.181641"/>
      <use xlink:href="#DejaVuSans-72" x="324.560547"/>
      <use xlink:href="#DejaVuSans-65" x="363.423828"/>
      <use xlink:href="#DejaVuSans-64" x="424.947266"/>
     </g>
    </g>
    <g id="line2d_18">
     <path d="M 81 70.976562 
L 91 70.976562 
L 101 70.976562 
" style="fill: none; stroke: #ff7f0e; stroke-width: 1.5; stroke-linecap: square"/>
    </g>
    <g id="text_16">
     <!-- Fitted -->
     <g transform="translate(109 74.476562) scale(0.1 -0.1)">
      <defs>
       <path id="DejaVuSans-46" d="M 628 4666 
L 3309 4666 
L 3309 4134 
L 1259 4134 
L 1259 2759 
L 3109 2759 
L 3109 2228 
L 1259 2228 
L 1259 0 
L 628 0 
L 628 4666 
z
" transform="scale(0.015625)"/>
       <path id="DejaVuSans-74" d="M 1172 4494 
L 1172 3500 
L 2356 3500 
L 2356 3053 
L 1172 3053 
L 1172 1153 
Q 1172 725 1289 603 
Q 1406 481 1766 481 
L 2356 481 
L 2356 0 
L 1766 0 
Q 1100 0 847 248 
Q 594 497 594 1153 
L 594 3053 
L 172 3053 
L 172 3500 
L 594 3500 
L 594 4494 
L 1172 4494 
z
" transform="scale(0.015625)"/>
      </defs>
      <use xlink:href="#DejaVuSans-46"/>
      <use xlink:href="#DejaVuSans-69" x="50.269531"/>
      <use xlink:href="#DejaVuSans-74" x="78.052734"/>
      <use xlink:href="#DejaVuSans-74" x="117.261719"/>
      <use xlink:href="#DejaVuSans-65" x="156.470703"/>
      <use xlink:href="#DejaVuSans-64" x="217.994141"/>
     </g>
    </g>
    <g id="line2d_19">
     <path d="M 81 85.654687 
L 91 85.654687 
L 101 85.654687 
" style="fill: none; stroke: #2ca02c; stroke-width: 1.5; stroke-linecap: square"/>
    </g>
    <g id="text_17">
     <!-- Estimated -->
     <g transform="translate(109 89.154687) scale(0.1 -0.1)">
      <defs>
       <path id="DejaVuSans-45" d="M 628 4666 
L 3578 4666 
L 3578 4134 
L 1259 4134 
L 1259 2753 
L 3481 2753 
L 3481 2222 
L 1259 2222 
L 1259 531 
L 3634 531 
L 3634 0 
L 628 0 
L 628 4666 
z
" transform="scale(0.015625)"/>
      </defs>
      <use xlink:href="#DejaVuSans-45"/>
      <use xlink:href="#DejaVuSans-73" x="63.183594"/>
      <use xlink:href="#DejaVuSans-74" x="115.283203"/>
      <use xlink:href="#DejaVuSans-69" x="154.492188"/>
      <use xlink:href="#DejaVuSans-6d" x="182.275391"/>
      <use xlink:href="#DejaVuSans-61" x="279.6875"/>
      <use xlink:href="#DejaVuSans-74" x="340.966797"/>
      <use xlink:href="#DejaVuSans-65" x="380.175781"/>
      <use xlink:href="#DejaVuSans-64" x="441.699219"/>
     </g>
    </g>
   </g>
  </g>
 </g>
 <defs>
  <clipPath id="p912ed1f53c">
   <rect x="72" y="43.2" width="446.4" height="277.2"/>
  </clipPath>
 </defs>
</svg>
