<?xml version="1.0" encoding="utf-8" standalone="no"?>
<!DOCTYPE svg PUBLIC "-//W3C//DTD SVG 1.1//EN"
  "http://www.w3.org/Graphics/SVG/1.1/DTD/svg11.dtd">
<svg xmlns:xlink="http://www.w3.org/1999/xlink" width="576pt" height="360pt" viewBox="0 0 576 360" xmlns="http://www.w3.org/2000/svg" version="1.1">
 <metadata>
  <rdf:RDF xmlns:dc="http://purl.org/dc/elements/1.1/" xmlns:cc="http://creativecommons.org/ns#" xmlns:rdf="http://www.w3.org/1999/02/22-rdf-syntax-ns#">
   <cc:Work>
    <dc:type rdf:resource="http://purl.org/dc/dcmitype/StillImage"/>
    <dc:date>2023-11-23T16:40:52.622998</dc:date>
    <dc:format>image/svg+xml</dc:format>
    <dc:creator>
     <cc:Agent>
      <dc:title>Matplotlib v3.8.1, https://matplotlib.org/</dc:title>
     </cc:Agent>
    </dc:creator>
   </cc:Work>
  </rdf:RDF>
 </metadata>
 <defs>
  <style type="text/css">*{stroke-linejoin: round; stroke-linecap: butt}</style>
 </defs>
 <g id="figure_1">
  <g id="patch_1">
   <path d="M 0 360 
L 576 360 
L 576 0 
L 0 0 
z
" style="fill: #ffffff"/>
  </g>
  <g id="axes_1">
   <g id="patch_2">
    <path d="M 72 320.4 
L 518.4 320.4 
L 518.4 43.2 
L 72 43.2 
z
" style="fill: #ffffff"/>
   </g>
   <g id="matplotlib.axis_1">
    <g id="xtick_1">
     <g id="line2d_1">
      <defs>
       <path id="m3e3b221ae6" d="M 0 0 
L 0 3.5 
" style="stroke: #000000; stroke-width: 0.8"/>
      </defs>
      <g>
       <use xlink:href="#m3e3b221ae6" x="129.874161" y="320.4" style="stroke: #000000; stroke-width: 0.8"/>
      </g>
     </g>
     <g id="text_1">
      <!-- 2020-05-15 -->
      <g transform="translate(100.816349 334.998438) scale(0.1 -0.1)">
       <defs>
        <path id="DejaVuSans-32" d="M 1228 531 
L 3431 531 
L 3431 0 
L 469 0 
L 469 531 
Q 828 903 1448 1529 
Q 2069 2156 2228 2338 
Q 2531 2678 2651 2914 
Q 2772 3150 2772 3378 
Q 2772 3750 2511 3984 
Q 2250 4219 1831 4219 
Q 1534 4219 1204 4116 
Q 875 4013 500 3803 
L 500 4441 
Q 881 4594 1212 4672 
Q 1544 4750 1819 4750 
Q 2544 4750 2975 4387 
Q 3406 4025 3406 3419 
Q 3406 3131 3298 2873 
Q 3191 2616 2906 2266 
Q 2828 2175 2409 1742 
Q 1991 1309 1228 531 
z
" transform="scale(0.015625)"/>
        <path id="DejaVuSans-30" d="M 2034 4250 
Q 1547 4250 1301 3770 
Q 1056 3291 1056 2328 
Q 1056 1369 1301 889 
Q 1547 409 2034 409 
Q 2525 409 2770 889 
Q 3016 1369 3016 2328 
Q 3016 3291 2770 3770 
Q 2525 4250 2034 4250 
z
M 2034 4750 
Q 2819 4750 3233 4129 
Q 3647 3509 3647 2328 
Q 3647 1150 3233 529 
Q 2819 -91 2034 -91 
Q 1250 -91 836 529 
Q 422 1150 422 2328 
Q 422 3509 836 4129 
Q 1250 4750 2034 4750 
z
" transform="scale(0.015625)"/>
        <path id="DejaVuSans-2d" d="M 313 2009 
L 1997 2009 
L 1997 1497 
L 313 1497 
L 313 2009 
z
" transform="scale(0.015625)"/>
        <path id="DejaVuSans-35" d="M 691 4666 
L 3169 4666 
L 3169 4134 
L 1269 4134 
L 1269 2991 
Q 1406 3038 1543 3061 
Q 1681 3084 1819 3084 
Q 2600 3084 3056 2656 
Q 3513 2228 3513 1497 
Q 3513 744 3044 326 
Q 2575 -91 1722 -91 
Q 1428 -91 1123 -41 
Q 819 9 494 109 
L 494 744 
Q 775 591 1075 516 
Q 1375 441 1709 441 
Q 2250 441 2565 725 
Q 2881 1009 2881 1497 
Q 2881 1984 2565 2268 
Q 2250 2553 1709 2553 
Q 1456 2553 1204 2497 
Q 953 2441 691 2322 
L 691 4666 
z
" transform="scale(0.015625)"/>
        <path id="DejaVuSans-31" d="M 794 531 
L 1825 531 
L 1825 4091 
L 703 3866 
L 703 4441 
L 1819 4666 
L 2450 4666 
L 2450 531 
L 3481 531 
L 3481 0 
L 794 0 
L 794 531 
z
" transform="scale(0.015625)"/>
       </defs>
       <use xlink:href="#DejaVuSans-32"/>
       <use xlink:href="#DejaVuSans-30" x="63.623047"/>
       <use xlink:href="#DejaVuSans-32" x="127.246094"/>
       <use xlink:href="#DejaVuSans-30" x="190.869141"/>
       <use xlink:href="#DejaVuSans-2d" x="254.492188"/>
       <use xlink:href="#DejaVuSans-30" x="290.576172"/>
       <use xlink:href="#DejaVuSans-35" x="354.199219"/>
       <use xlink:href="#DejaVuSans-2d" x="417.822266"/>
       <use xlink:href="#DejaVuSans-31" x="453.90625"/>
       <use xlink:href="#DejaVuSans-35" x="517.529297"/>
      </g>
     </g>
    </g>
    <g id="xtick_2">
     <g id="line2d_2">
      <g>
       <use xlink:href="#m3e3b221ae6" x="212.435902" y="320.4" style="stroke: #000000; stroke-width: 0.8"/>
      </g>
     </g>
     <g id="text_2">
      <!-- 2020-06-01 -->
      <g transform="translate(183.37809 334.998438) scale(0.1 -0.1)">
       <defs>
        <path id="DejaVuSans-36" d="M 2113 2584 
Q 1688 2584 1439 2293 
Q 1191 2003 1191 1497 
Q 1191 994 1439 701 
Q 1688 409 2113 409 
Q 2538 409 2786 701 
Q 3034 994 3034 1497 
Q 3034 2003 2786 2293 
Q 2538 2584 2113 2584 
z
M 3366 4563 
L 3366 3988 
Q 3128 4100 2886 4159 
Q 2644 4219 2406 4219 
Q 1781 4219 1451 3797 
Q 1122 3375 1075 2522 
Q 1259 2794 1537 2939 
Q 1816 3084 2150 3084 
Q 2853 3084 3261 2657 
Q 3669 2231 3669 1497 
Q 3669 778 3244 343 
Q 2819 -91 2113 -91 
Q 1303 -91 875 529 
Q 447 1150 447 2328 
Q 447 3434 972 4092 
Q 1497 4750 2381 4750 
Q 2619 4750 2861 4703 
Q 3103 4656 3366 4563 
z
" transform="scale(0.015625)"/>
       </defs>
       <use xlink:href="#DejaVuSans-32"/>
       <use xlink:href="#DejaVuSans-30" x="63.623047"/>
       <use xlink:href="#DejaVuSans-32" x="127.246094"/>
       <use xlink:href="#DejaVuSans-30" x="190.869141"/>
       <use xlink:href="#DejaVuSans-2d" x="254.492188"/>
       <use xlink:href="#DejaVuSans-30" x="290.576172"/>
       <use xlink:href="#DejaVuSans-36" x="354.199219"/>
       <use xlink:href="#DejaVuSans-2d" x="417.822266"/>
       <use xlink:href="#DejaVuSans-30" x="453.90625"/>
       <use xlink:href="#DejaVuSans-31" x="517.529297"/>
      </g>
     </g>
    </g>
    <g id="xtick_3">
     <g id="line2d_3">
      <g>
       <use xlink:href="#m3e3b221ae6" x="280.427924" y="320.4" style="stroke: #000000; stroke-width: 0.8"/>
      </g>
     </g>
     <g id="text_3">
      <!-- 2020-06-15 -->
      <g transform="translate(251.370111 334.998438) scale(0.1 -0.1)">
       <use xlink:href="#DejaVuSans-32"/>
       <use xlink:href="#DejaVuSans-30" x="63.623047"/>
       <use xlink:href="#DejaVuSans-32" x="127.246094"/>
       <use xlink:href="#DejaVuSans-30" x="190.869141"/>
       <use xlink:href="#DejaVuSans-2d" x="254.492188"/>
       <use xlink:href="#DejaVuSans-30" x="290.576172"/>
       <use xlink:href="#DejaVuSans-36" x="354.199219"/>
       <use xlink:href="#DejaVuSans-2d" x="417.822266"/>
       <use xlink:href="#DejaVuSans-31" x="453.90625"/>
       <use xlink:href="#DejaVuSans-35" x="517.529297"/>
      </g>
     </g>
    </g>
    <g id="xtick_4">
     <g id="line2d_4">
      <g>
       <use xlink:href="#m3e3b221ae6" x="358.133092" y="320.4" style="stroke: #000000; stroke-width: 0.8"/>
      </g>
     </g>
     <g id="text_4">
      <!-- 2020-07-01 -->
      <g transform="translate(329.075279 334.998438) scale(0.1 -0.1)">
       <defs>
        <path id="DejaVuSans-37" d="M 525 4666 
L 3525 4666 
L 3525 4397 
L 1831 0 
L 1172 0 
L 2766 4134 
L 525 4134 
L 525 4666 
z
" transform="scale(0.015625)"/>
       </defs>
       <use xlink:href="#DejaVuSans-32"/>
       <use xlink:href="#DejaVuSans-30" x="63.623047"/>
       <use xlink:href="#DejaVuSans-32" x="127.246094"/>
       <use xlink:href="#DejaVuSans-30" x="190.869141"/>
       <use xlink:href="#DejaVuSans-2d" x="254.492188"/>
       <use xlink:href="#DejaVuSans-30" x="290.576172"/>
       <use xlink:href="#DejaVuSans-37" x="354.199219"/>
       <use xlink:href="#DejaVuSans-2d" x="417.822266"/>
       <use xlink:href="#DejaVuSans-30" x="453.90625"/>
       <use xlink:href="#DejaVuSans-31" x="517.529297"/>
      </g>
     </g>
    </g>
    <g id="xtick_5">
     <g id="line2d_5">
      <g>
       <use xlink:href="#m3e3b221ae6" x="426.125113" y="320.4" style="stroke: #000000; stroke-width: 0.8"/>
      </g>
     </g>
     <g id="text_5">
      <!-- 2020-07-15 -->
      <g transform="translate(397.067301 334.998438) scale(0.1 -0.1)">
       <use xlink:href="#DejaVuSans-32"/>
       <use xlink:href="#DejaVuSans-30" x="63.623047"/>
       <use xlink:href="#DejaVuSans-32" x="127.246094"/>
       <use xlink:href="#DejaVuSans-30" x="190.869141"/>
       <use xlink:href="#DejaVuSans-2d" x="254.492188"/>
       <use xlink:href="#DejaVuSans-30" x="290.576172"/>
       <use xlink:href="#DejaVuSans-37" x="354.199219"/>
       <use xlink:href="#DejaVuSans-2d" x="417.822266"/>
       <use xlink:href="#DejaVuSans-31" x="453.90625"/>
       <use xlink:href="#DejaVuSans-35" x="517.529297"/>
      </g>
     </g>
    </g>
    <g id="xtick_6">
     <g id="line2d_6">
      <g>
       <use xlink:href="#m3e3b221ae6" x="508.686854" y="320.4" style="stroke: #000000; stroke-width: 0.8"/>
      </g>
     </g>
     <g id="text_6">
      <!-- 2020-08-01 -->
      <g transform="translate(479.629042 334.998438) scale(0.1 -0.1)">
       <defs>
        <path id="DejaVuSans-38" d="M 2034 2216 
Q 1584 2216 1326 1975 
Q 1069 1734 1069 1313 
Q 1069 891 1326 650 
Q 1584 409 2034 409 
Q 2484 409 2743 651 
Q 3003 894 3003 1313 
Q 3003 1734 2745 1975 
Q 2488 2216 2034 2216 
z
M 1403 2484 
Q 997 2584 770 2862 
Q 544 3141 544 3541 
Q 544 4100 942 4425 
Q 1341 4750 2034 4750 
Q 2731 4750 3128 4425 
Q 3525 4100 3525 3541 
Q 3525 3141 3298 2862 
Q 3072 2584 2669 2484 
Q 3125 2378 3379 2068 
Q 3634 1759 3634 1313 
Q 3634 634 3220 271 
Q 2806 -91 2034 -91 
Q 1263 -91 848 271 
Q 434 634 434 1313 
Q 434 1759 690 2068 
Q 947 2378 1403 2484 
z
M 1172 3481 
Q 1172 3119 1398 2916 
Q 1625 2713 2034 2713 
Q 2441 2713 2670 2916 
Q 2900 3119 2900 3481 
Q 2900 3844 2670 4047 
Q 2441 4250 2034 4250 
Q 1625 4250 1398 4047 
Q 1172 3844 1172 3481 
z
" transform="scale(0.015625)"/>
       </defs>
       <use xlink:href="#DejaVuSans-32"/>
       <use xlink:href="#DejaVuSans-30" x="63.623047"/>
       <use xlink:href="#DejaVuSans-32" x="127.246094"/>
       <use xlink:href="#DejaVuSans-30" x="190.869141"/>
       <use xlink:href="#DejaVuSans-2d" x="254.492188"/>
       <use xlink:href="#DejaVuSans-30" x="290.576172"/>
       <use xlink:href="#DejaVuSans-38" x="354.199219"/>
       <use xlink:href="#DejaVuSans-2d" x="417.822266"/>
       <use xlink:href="#DejaVuSans-30" x="453.90625"/>
       <use xlink:href="#DejaVuSans-31" x="517.529297"/>
      </g>
     </g>
    </g>
   </g>
   <g id="matplotlib.axis_2">
    <g id="ytick_1">
     <g id="line2d_7">
      <defs>
       <path id="mf7025265db" d="M 0 0 
L -3.5 0 
" style="stroke: #000000; stroke-width: 0.8"/>
      </defs>
      <g>
       <use xlink:href="#mf7025265db" x="72" y="313.195797" style="stroke: #000000; stroke-width: 0.8"/>
      </g>
     </g>
     <g id="text_7">
      <!-- −2 -->
      <g transform="translate(50.257812 316.995016) scale(0.1 -0.1)">
       <defs>
        <path id="DejaVuSans-2212" d="M 678 2272 
L 4684 2272 
L 4684 1741 
L 678 1741 
L 678 2272 
z
" transform="scale(0.015625)"/>
       </defs>
       <use xlink:href="#DejaVuSans-2212"/>
       <use xlink:href="#DejaVuSans-32" x="83.789062"/>
      </g>
     </g>
    </g>
    <g id="ytick_2">
     <g id="line2d_8">
      <g>
       <use xlink:href="#mf7025265db" x="72" y="260.211792" style="stroke: #000000; stroke-width: 0.8"/>
      </g>
     </g>
     <g id="text_8">
      <!-- −1 -->
      <g transform="translate(50.257812 264.01101) scale(0.1 -0.1)">
       <use xlink:href="#DejaVuSans-2212"/>
       <use xlink:href="#DejaVuSans-31" x="83.789062"/>
      </g>
     </g>
    </g>
    <g id="ytick_3">
     <g id="line2d_9">
      <g>
       <use xlink:href="#mf7025265db" x="72" y="207.227786" style="stroke: #000000; stroke-width: 0.8"/>
      </g>
     </g>
     <g id="text_9">
      <!-- 0 -->
      <g transform="translate(58.6375 211.027004) scale(0.1 -0.1)">
       <use xlink:href="#DejaVuSans-30"/>
      </g>
     </g>
    </g>
    <g id="ytick_4">
     <g id="line2d_10">
      <g>
       <use xlink:href="#mf7025265db" x="72" y="154.24378" style="stroke: #000000; stroke-width: 0.8"/>
      </g>
     </g>
     <g id="text_10">
      <!-- 1 -->
      <g transform="translate(58.6375 158.042999) scale(0.1 -0.1)">
       <use xlink:href="#DejaVuSans-31"/>
      </g>
     </g>
    </g>
    <g id="ytick_5">
     <g id="line2d_11">
      <g>
       <use xlink:href="#mf7025265db" x="72" y="101.259774" style="stroke: #000000; stroke-width: 0.8"/>
      </g>
     </g>
     <g id="text_11">
      <!-- 2 -->
      <g transform="translate(58.6375 105.058993) scale(0.1 -0.1)">
       <use xlink:href="#DejaVuSans-32"/>
      </g>
     </g>
    </g>
    <g id="ytick_6">
     <g id="line2d_12">
      <g>
       <use xlink:href="#mf7025265db" x="72" y="48.275768" style="stroke: #000000; stroke-width: 0.8"/>
      </g>
     </g>
     <g id="text_12">
      <!-- 3 -->
      <g transform="translate(58.6375 52.074987) scale(0.1 -0.1)">
       <defs>
        <path id="DejaVuSans-33" d="M 2597 2516 
Q 3050 2419 3304 2112 
Q 3559 1806 3559 1356 
Q 3559 666 3084 287 
Q 2609 -91 1734 -91 
Q 1441 -91 1130 -33 
Q 819 25 488 141 
L 488 750 
Q 750 597 1062 519 
Q 1375 441 1716 441 
Q 2309 441 2620 675 
Q 2931 909 2931 1356 
Q 2931 1769 2642 2001 
Q 2353 2234 1838 2234 
L 1294 2234 
L 1294 2753 
L 1863 2753 
Q 2328 2753 2575 2939 
Q 2822 3125 2822 3475 
Q 2822 3834 2567 4026 
Q 2313 4219 1838 4219 
Q 1578 4219 1281 4162 
Q 984 4106 628 3988 
L 628 4550 
Q 988 4650 1302 4700 
Q 1616 4750 1894 4750 
Q 2613 4750 3031 4423 
Q 3450 4097 3450 3541 
Q 3450 3153 3228 2886 
Q 3006 2619 2597 2516 
z
" transform="scale(0.015625)"/>
       </defs>
       <use xlink:href="#DejaVuSans-33"/>
      </g>
     </g>
    </g>
   </g>
   <g id="line2d_13">
    <path d="M 72 284.60863 
L 72.404714 295.837105 
L 72.607072 294.13204 
L 72.809429 283.568957 
L 73.214143 252.960967 
L 73.618858 240.651232 
L 75.035358 158.517021 
L 75.237715 155.585141 
L 75.440073 160.596368 
L 75.64243 168.726615 
L 75.844787 171.99119 
L 76.047144 187.08725 
L 76.654216 256.662205 
L 77.05893 280.491523 
L 77.261287 284.816565 
L 77.463645 284.442282 
L 77.666002 273.837612 
L 78.070716 245.620872 
L 78.475431 233.26955 
L 78.677788 224.22439 
L 79.487217 167.790909 
L 79.891931 151.675969 
L 80.094288 153.609761 
L 80.903717 195.612573 
L 81.713146 270.219548 
L 82.11786 284.733391 
L 82.320218 286.750358 
L 82.522575 286.459249 
L 82.724932 283.964033 
L 82.927289 277.206154 
L 83.332004 254.437303 
L 83.736718 240.256156 
L 83.939075 237.241103 
L 84.141432 237.511418 
L 84.546147 243.853427 
L 84.748504 245.932774 
L 84.950861 245.953567 
L 85.355576 250.112261 
L 85.557933 246.8061 
L 85.76029 252.877793 
L 86.569719 297.417409 
L 86.772076 303.447515 
L 86.974433 305.027819 
L 87.176791 305.090199 
L 87.379148 303.759417 
L 87.581505 300.058179 
L 87.783862 293.362682 
L 88.188577 271.508743 
L 88.390934 266.372756 
L 89.200363 258.36727 
L 89.40272 254.270956 
L 89.807434 239.611558 
L 90.212149 237.178722 
L 90.414506 234.496365 
L 90.616863 242.37709 
L 91.223935 292.510149 
L 91.628649 303.447515 
L 91.831006 303.509896 
L 92.033364 301.035473 
L 92.842792 255.289836 
L 93.04515 253.168902 
L 93.449864 244.643579 
L 93.652221 244.123742 
L 93.854578 241.212656 
L 94.056936 240.588852 
L 94.259293 237.989668 
L 94.46165 231.647659 
L 94.664007 228.819747 
L 94.866364 229.73466 
L 95.068722 232.85368 
L 95.271079 229.048475 
L 95.473436 239.070928 
L 96.080508 292.884432 
L 96.485222 302.012766 
L 96.687579 303.904972 
L 96.889937 299.600723 
L 97.699365 254.562064 
L 98.306437 244.144535 
L 98.508794 243.770253 
L 99.52058 222.72726 
L 99.722937 223.974868 
L 99.925295 228.29991 
L 100.127652 226.490878 
L 100.330009 236.554918 
L 100.937081 290.430802 
L 101.341795 302.594983 
L 101.544152 303.572276 
L 101.74651 299.891832 
L 101.948867 288.039553 
L 102.353581 258.263302 
L 102.555938 256.724585 
L 103.567724 239.091722 
L 104.377153 217.175403 
L 104.57951 218.443805 
L 104.781868 223.787727 
L 104.984225 223.766933 
L 105.186582 232.583365 
L 105.793654 287.311782 
L 106.198368 299.954212 
L 106.400725 301.700864 
L 106.603083 297.708517 
L 107.412511 252.170815 
L 107.614869 250.46575 
L 107.817226 246.826893 
L 108.22194 232.417017 
L 108.626655 210.895775 
L 108.829012 205.011222 
L 109.031369 203.13981 
L 109.638441 211.748307 
L 109.840798 217.133816 
L 110.043155 227.447378 
L 110.650227 282.03024 
L 111.054941 296.1698 
L 111.257298 298.062006 
L 111.459655 296.336148 
L 111.662013 285.0245 
L 112.066727 256.017607 
L 112.471442 241.150275 
L 113.887942 173.321972 
L 114.090299 170.97231 
L 114.292656 177.730188 
L 114.495014 189.06263 
L 114.697371 193.6164 
L 115.102085 227.34341 
L 115.709157 276.291242 
L 116.113871 290.1189 
L 116.316228 290.285248 
L 116.518586 288.642564 
L 116.720943 285.045293 
L 117.125657 258.034574 
L 118.542158 154.254359 
L 118.744515 144.231906 
L 118.946872 140.385114 
L 119.149229 144.023971 
L 119.756301 181.57698 
L 120.56573 260.259475 
L 120.970444 279.909306 
L 121.172801 283.964033 
L 121.375159 285.585923 
L 121.577516 284.151174 
L 121.779873 276.291242 
L 122.589302 225.72152 
L 123.196374 200.478246 
L 123.398731 195.945269 
L 123.601088 196.153204 
L 123.803445 195.59178 
L 124.410517 208.878808 
L 124.612874 219.753793 
L 125.219946 275.56347 
L 125.62466 289.973346 
L 125.827017 291.948726 
L 126.029374 289.432716 
L 127.04116 233.519071 
L 127.648232 196.423519 
L 128.255304 154.399913 
L 128.457661 146.914264 
L 128.660018 146.581568 
L 129.26709 190.538966 
L 130.278876 280.616284 
L 130.481233 288.372249 
L 130.68359 289.744618 
L 130.885947 287.187021 
L 132.504805 179.185731 
L 133.111877 136.871017 
L 133.314234 127.534749 
L 133.516591 129.21902 
L 133.921306 144.460634 
L 134.123663 151.821523 
L 135.135449 260.779312 
L 135.540163 273.296982 
L 135.74252 272.361276 
L 135.944878 261.860573 
L 136.349592 230.711953 
L 136.551949 223.995662 
L 136.754306 212.226557 
L 136.956664 216.759534 
L 137.159021 205.551853 
L 137.766092 196.797801 
L 137.96845 197.192877 
L 138.373164 191.828162 
L 138.777879 199.313811 
L 138.980236 200.14555 
L 139.182593 211.852274 
L 139.789665 268.01544 
L 140.194379 283.257055 
L 140.396736 285.315608 
L 140.599093 282.321348 
L 141.003808 252.357956 
L 141.408522 231.35655 
L 142.015594 218.069522 
L 142.622665 209.003569 
L 142.825023 208.733254 
L 143.02738 207.527232 
L 143.229737 208.213417 
L 143.634451 213.453372 
L 143.836809 212.226557 
L 144.039166 222.332184 
L 144.646238 271.280015 
L 145.050952 283.277848 
L 145.253309 284.567043 
L 145.455666 281.448023 
L 145.860381 252.025261 
L 146.062738 235.702386 
L 146.66981 219.358718 
L 146.872167 216.697153 
L 147.074524 215.615893 
L 147.479238 204.595353 
L 147.681596 212.995915 
L 147.883953 213.973208 
L 148.08631 216.572392 
L 148.491024 225.825487 
L 148.693382 224.473911 
L 149.098096 247.94974 
L 149.502811 275.916959 
L 149.907525 288.954466 
L 150.109882 291.013019 
L 150.312239 290.430802 
L 150.514597 287.60289 
L 150.716954 281.884686 
L 151.121668 260.966453 
L 151.526383 240.422504 
L 151.931097 234.600332 
L 152.133454 234.163669 
L 152.335811 236.139049 
L 152.538169 236.658886 
L 152.740526 234.600332 
L 152.942883 234.891441 
L 153.14524 233.914147 
L 153.347597 233.955734 
L 153.549955 231.023855 
L 153.752312 233.227963 
L 154.764098 284.837358 
L 154.966455 288.808911 
L 155.168812 290.202074 
L 155.573527 286.251314 
L 155.775884 275.147601 
L 156.78767 196.984942 
L 157.799456 154.233566 
L 158.001813 156.250532 
L 158.406528 169.495973 
L 158.608885 183.094904 
L 159.215956 251.942087 
L 159.620671 273.608884 
L 159.823028 276.831872 
L 160.025385 275.916959 
L 160.227743 266.081647 
L 160.632457 233.519071 
L 161.8466 183.053317 
L 162.251315 172.968483 
L 162.453672 173.114037 
L 162.656029 175.983536 
L 163.465458 207.901515 
L 164.072529 267.95306 
L 164.477244 286.625597 
L 164.679601 286.958293 
L 164.881958 283.714511 
L 165.084316 273.52571 
L 165.48903 241.649319 
L 166.500816 206.445972 
L 167.310245 163.382693 
L 167.512602 166.751235 
L 167.917316 187.399152 
L 168.119674 191.869749 
L 168.322031 203.264571 
L 168.929102 262.879453 
L 169.333817 278.121067 
L 169.536174 281.655957 
L 169.738531 277.975513 
L 170.143246 250.590511 
L 170.54796 220.169663 
L 171.357389 175.442906 
L 171.559746 169.392006 
L 172.166818 145.105232 
L 172.369175 146.727122 
L 172.571532 154.670228 
L 173.178604 193.782748 
L 173.785675 265.125148 
L 174.19039 284.587837 
L 174.392747 287.582097 
L 174.595104 285.752271 
L 174.999819 261.465497 
L 175.404533 236.367777 
L 177.023391 157.830836 
L 177.225748 158.350673 
L 177.428105 162.280639 
L 177.630462 178.936209 
L 177.83282 181.389839 
L 178.237534 225.679933 
L 178.642248 268.764005 
L 179.046963 288.039553 
L 179.24932 291.782378 
L 179.451677 289.245574 
L 179.654034 280.512316 
L 180.261106 240.484884 
L 181.879964 143.088265 
L 182.082321 139.802897 
L 182.284678 145.500308 
L 183.094107 202.100136 
L 183.498821 241.29583 
L 183.903536 262.858659 
L 184.30825 270.739385 
L 184.510607 272.111754 
L 184.712965 268.452103 
L 184.915322 254.998727 
L 185.724751 172.552614 
L 186.129465 151.052164 
L 186.331822 144.959677 
L 186.53418 144.190319 
L 186.736537 146.747916 
L 187.748323 187.419946 
L 188.557752 251.983674 
L 188.962466 266.247995 
L 189.164823 268.306549 
L 189.36718 268.389723 
L 189.569538 267.641158 
L 189.771895 256.786966 
L 190.986038 160.201292 
L 191.188395 154.85737 
L 191.390752 154.815783 
L 191.795467 164.027291 
L 192.604896 195.550193 
L 193.414325 259.323769 
L 193.819039 273.130634 
L 194.021396 274.211895 
L 194.426111 270.219548 
L 194.628468 261.195182 
L 195.437897 199.833648 
L 195.640254 194.780835 
L 195.842611 196.007649 
L 196.247325 202.12093 
L 196.449683 202.703147 
L 196.65204 202.308071 
L 197.056754 210.583873 
L 197.259112 211.436405 
L 197.461469 219.920141 
L 198.06854 268.660038 
L 198.473255 282.965946 
L 198.675612 283.069913 
L 198.877969 279.389469 
L 199.282684 248.344816 
L 199.687398 225.326444 
L 201.306256 158.350673 
L 201.508613 157.186238 
L 202.115684 176.54496 
L 202.318042 187.794228 
L 202.925113 252.420337 
L 203.329828 270.219548 
L 203.532185 272.340482 
L 203.734542 269.325429 
L 203.936899 257.701878 
L 204.341614 223.413444 
L 205.758114 168.269159 
L 205.960471 165.753149 
L 206.162829 165.898703 
L 206.365186 167.333452 
L 206.7699 179.289698 
L 206.972257 182.512686 
L 207.174615 193.450052 
L 207.781686 253.023347 
L 208.186401 269.325429 
L 208.388758 272.402863 
L 208.591115 269.03432 
L 208.793472 257.057281 
L 209.198187 222.955988 
L 209.805258 200.478246 
L 210.209973 180.412546 
L 210.817044 138.347354 
L 211.019402 129.780443 
L 211.221759 132.774703 
L 211.626473 157.477347 
L 211.82883 162.738095 
L 212.031188 177.605427 
L 212.638259 243.250416 
L 213.042974 262.006127 
L 213.245331 266.04006 
L 213.447688 264.314202 
L 213.650045 253.501597 
L 214.257117 209.835308 
L 214.661831 183.240458 
L 215.47126 123.334467 
L 215.875975 106.450169 
L 216.078332 105.971919 
L 216.280689 111.565363 
L 217.090118 175.94195 
L 217.697189 238.447124 
L 218.101904 257.078074 
L 218.304261 260.46741 
L 218.506618 261.839779 
L 218.708976 260.571378 
L 218.911333 247.721012 
L 219.518404 192.410379 
L 220.125476 156.874336 
L 220.327833 154.691022 
L 220.53019 156.936717 
L 221.541976 199.646507 
L 221.744334 204.844875 
L 222.553762 262.276442 
L 222.958477 273.255395 
L 223.160834 274.981253 
L 223.363191 275.334742 
L 223.565549 273.754438 
L 223.767906 264.9588 
L 224.374977 226.386911 
L 224.779692 218.734913 
L 225.386763 220.81426 
L 225.589121 224.369944 
L 225.791478 225.264063 
L 226.196192 233.727006 
L 226.398549 233.373517 
L 226.600907 239.86108 
L 227.410335 293.986486 
L 227.612693 298.062006 
L 227.81505 299.767071 
L 228.017407 296.544083 
L 228.826836 253.543184 
L 229.029193 251.193522 
L 229.23155 245.392144 
L 230.648051 181.369046 
L 230.850408 181.951263 
L 231.255122 196.506693 
L 231.45748 207.506439 
L 232.064551 271.799852 
L 232.469266 289.141607 
L 232.671623 291.886345 
L 232.87398 290.65953 
L 233.278694 265.125148 
L 233.683409 242.37709 
L 235.302267 177.168764 
L 235.504624 176.565754 
L 236.111695 195.862095 
L 236.314053 206.321211 
L 236.921124 269.055114 
L 237.325839 285.08688 
L 237.528196 288.247488 
L 237.730553 286.10576 
L 238.135267 261.922953 
L 238.539982 239.923461 
L 239.349411 208.691667 
L 239.754125 198.58604 
L 240.15884 188.272478 
L 240.361197 188.022956 
L 240.563554 193.533226 
L 240.968268 211.311644 
L 241.170626 218.963642 
L 241.777697 275.043633 
L 242.182412 291.054606 
L 242.384769 293.570616 
L 242.587126 290.555563 
L 242.99184 265.603398 
L 243.396555 247.471491 
L 245.21777 172.095157 
L 245.420127 176.378612 
L 246.027199 203.430919 
L 246.836627 277.622024 
L 247.038985 286.064173 
L 247.241342 289.266368 
L 247.443699 286.708771 
L 247.848413 262.92104 
L 249.467271 149.846143 
L 249.669628 141.695102 
L 249.871985 139.740516 
L 250.074343 139.906864 
L 250.2767 146.914264 
L 250.883772 179.331285 
L 251.6932 255.019521 
L 252.097915 269.678918 
L 252.300272 272.777145 
L 252.502629 273.04746 
L 252.704986 269.138288 
L 253.109701 236.076668 
L 253.91913 162.176672 
L 254.323844 146.228079 
L 254.728558 137.328473 
L 254.930916 136.060072 
L 255.133273 143.628895 
L 255.740345 181.452219 
L 256.549773 257.369183 
L 256.954488 272.98508 
L 257.156845 276.831872 
L 257.359202 278.516143 
L 257.561559 277.53885 
L 257.966274 248.386403 
L 258.573345 197.525573 
L 258.97806 175.650841 
L 259.382774 164.526334 
L 259.585131 161.053824 
L 259.787489 160.617161 
L 259.989846 163.257932 
L 260.39456 179.393666 
L 260.596917 192.867835 
L 261.203989 255.43539 
L 261.608704 274.315862 
L 261.811061 277.268535 
L 262.013418 276.478383 
L 262.418132 252.295576 
L 262.62049 240.172982 
L 263.025204 230.420844 
L 263.227561 227.592932 
L 263.429918 226.574052 
L 263.834633 227.863247 
L 264.03699 227.551345 
L 264.239347 228.507845 
L 264.441704 228.591019 
L 264.644062 228.320704 
L 264.846419 230.379257 
L 265.048776 234.454778 
L 265.251133 234.454778 
L 265.45349 238.509505 
L 266.060562 281.364849 
L 266.465277 294.319181 
L 266.667634 295.878692 
L 266.869991 291.657617 
L 267.072348 283.631337 
L 267.477063 256.890933 
L 268.084134 234.517158 
L 268.488849 224.141216 
L 269.09592 212.787981 
L 269.500635 208.795634 
L 269.702992 210.999742 
L 269.905349 214.6386 
L 270.107706 215.324784 
L 270.310063 221.687586 
L 270.917135 270.988907 
L 271.32185 283.069913 
L 271.524207 285.232434 
L 271.726564 283.506576 
L 274.15485 140.634635 
L 274.357208 133.398507 
L 274.559565 136.76705 
L 275.166636 162.155878 
L 275.976065 244.477231 
L 276.38078 257.161248 
L 276.583137 256.45427 
L 276.987851 234.413191 
L 277.392566 205.239951 
L 278.404352 147.766796 
L 278.606709 144.689362 
L 279.011423 131.339954 
L 279.213781 129.718063 
L 279.416138 134.022312 
L 280.023209 176.129091 
L 280.630281 248.136882 
L 281.034995 271.134461 
L 281.237353 276.062514 
L 281.43971 274.503003 
L 281.642067 268.55607 
L 282.249139 226.407704 
L 282.85621 192.451966 
L 283.867996 149.263926 
L 284.070354 148.057905 
L 284.272711 156.292119 
L 285.284497 240.152189 
L 285.689211 272.631591 
L 286.093926 287.519716 
L 286.296283 289.827792 
L 286.49864 287.997966 
L 286.700997 285.0245 
L 287.105712 253.709532 
L 287.712783 201.663473 
L 288.522212 157.810043 
L 288.724569 150.615502 
L 288.926927 148.660915 
L 289.129284 152.278979 
L 289.736355 186.421859 
L 290.545784 257.182042 
L 290.950499 272.610797 
L 291.152856 275.417916 
L 291.355213 275.50109 
L 291.55757 274.00396 
L 291.759927 261.403116 
L 292.771714 161.760802 
L 293.176428 139.553375 
L 293.581142 128.20014 
L 293.7835 126.453488 
L 293.985857 130.009172 
L 294.592928 155.793076 
L 295.402357 239.902667 
L 295.807072 254.749206 
L 296.009429 254.582858 
L 296.414143 234.080495 
L 297.830644 97.59215 
L 298.235358 84.138774 
L 298.437715 81.518797 
L 298.640073 81.789112 
L 298.84243 83.868459 
L 299.044787 91.998706 
L 299.449501 119.27974 
L 300.056573 199.18905 
L 300.461287 224.723433 
L 300.663645 230.81592 
L 300.866002 231.543692 
L 301.068359 224.640259 
L 301.473073 194.240204 
L 302.484859 87.715251 
L 302.687217 76.258048 
L 302.889574 76.362016 
L 303.091931 84.554643 
L 303.496646 93.308695 
L 303.90136 115.828024 
L 304.306074 144.107145 
L 304.913146 214.16035 
L 305.31786 239.819493 
L 305.520218 245.454524 
L 305.722575 243.645492 
L 305.924932 236.430157 
L 306.532004 195.986856 
L 307.54379 125.122706 
L 307.746147 114.788351 
L 307.948504 113.894231 
L 308.757933 146.560775 
L 309.162647 172.94769 
L 309.769719 236.721266 
L 310.174433 256.849346 
L 310.376791 261.299149 
L 310.579148 260.716932 
L 310.983862 237.012375 
L 312.198005 131.693443 
L 312.60272 119.924338 
L 312.805077 115.495329 
L 313.007434 116.056752 
L 313.209791 119.799577 
L 313.816863 147.725209 
L 314.01922 161.573661 
L 314.626292 224.931368 
L 315.031006 245.683252 
L 315.233364 250.320196 
L 315.435721 249.654805 
L 315.840435 230.649572 
L 316.24515 211.70672 
L 316.649864 199.542539 
L 317.054578 184.051403 
L 317.66165 176.440993 
L 317.864007 175.983536 
L 318.066364 175.068624 
L 318.268722 179.809535 
L 318.875793 202.224897 
L 319.685222 261.548671 
L 320.089937 274.48221 
L 320.292294 276.145687 
L 320.697008 268.119408 
L 321.101723 241.566145 
L 322.315866 162.675715 
L 322.72058 152.299773 
L 322.922937 149.950111 
L 323.125295 154.129598 
L 323.732366 182.096817 
L 324.541795 251.484631 
L 324.94651 265.956887 
L 325.148867 268.888766 
L 325.351224 268.951146 
L 325.553581 266.663865 
L 325.755938 254.187782 
L 326.970082 140.385114 
L 327.172439 133.980725 
L 327.374796 132.379627 
L 327.77951 126.744597 
L 327.981868 131.79741 
L 328.184225 140.697016 
L 328.791296 192.992596 
L 329.196011 237.261896 
L 329.398368 252.690652 
L 329.803083 262.92104 
L 330.00544 261.96454 
L 330.207797 256.287922 
L 330.814869 207.173743 
L 331.42194 168.477093 
L 331.826655 145.521101 
L 332.029012 142.589222 
L 332.231369 142.610015 
L 332.433726 142.797156 
L 332.636083 144.91809 
L 332.838441 149.513448 
L 333.243155 172.718962 
L 333.445512 181.847295 
L 334.052584 248.386403 
L 334.457298 270.448276 
L 334.659655 275.937753 
L 334.862013 273.504917 
L 335.266727 253.418423 
L 335.671442 228.757367 
L 336.48087 188.147717 
L 336.683228 183.01173 
L 336.885585 181.888882 
L 337.087942 175.630047 
L 337.290299 173.758635 
L 337.695014 180.308579 
L 338.099728 194.947182 
L 338.302085 200.894115 
L 339.111514 267.53719 
L 339.313871 273.816819 
L 339.516228 276.083307 
L 339.718586 271.9662 
L 340.1233 248.324023 
L 340.932729 203.306158 
L 342.349229 140.78019 
L 342.551587 140.697016 
L 343.158658 165.690768 
L 343.76573 229.235616 
L 344.170444 247.471491 
L 344.372801 252.295576 
L 344.575159 250.133055 
L 344.777516 243.125655 
L 345.18223 211.852274 
L 346.194016 128.179346 
L 346.598731 113.22884 
L 347.003445 106.533343 
L 347.205802 105.68081 
L 347.40816 108.903798 
L 347.610517 116.846904 
L 348.015231 143.275406 
L 348.82466 235.536038 
L 349.229374 252.857 
L 349.431732 252.087641 
L 349.634089 246.223882 
L 349.836446 234.953821 
L 351.050589 129.21902 
L 351.455304 110.629656 
L 351.860018 101.66767 
L 352.062375 100.752758 
L 352.264733 104.433202 
L 352.46709 115.661676 
L 353.276519 199.792061 
L 353.681233 238.197602 
L 354.085947 258.637585 
L 354.288305 263.981507 
L 354.490662 264.563724 
L 354.693019 262.297236 
L 355.097733 219.733 
L 355.704805 144.980471 
L 356.109519 119.965925 
L 356.716591 101.542909 
L 356.918948 100.440855 
L 357.121306 105.306528 
L 357.52602 131.25678 
L 357.728377 144.107145 
L 358.740163 240.796786 
L 359.144878 253.93826 
L 359.347235 255.830466 
L 359.549592 255.497771 
L 359.751949 241.316623 
L 360.763735 119.15498 
L 361.16845 99.837845 
L 361.573164 88.588577 
L 361.775521 86.259708 
L 361.977879 89.586663 
L 362.180236 96.677237 
L 362.58495 122.793837 
L 363.394379 212.684013 
L 363.799093 230.566399 
L 364.001451 231.398137 
L 364.203808 225.430411 
L 364.406165 215.24161 
L 365.013237 144.751743 
L 365.620308 79.335482 
L 366.025023 62.950227 
L 366.429737 56.691392 
L 366.632094 57.190435 
L 366.834451 59.872793 
L 367.036809 68.710018 
L 367.441523 98.299128 
L 368.048595 179.019383 
L 368.453309 209.960069 
L 368.655666 218.610153 
L 368.858024 221.022195 
L 369.060381 217.071436 
L 369.262738 207.069776 
L 369.86981 142.651602 
L 370.476881 83.660524 
L 370.881596 66.797019 
L 371.083953 66.339563 
L 371.28631 67.067334 
L 371.488667 71.059681 
L 371.691024 77.380896 
L 372.298096 116.930078 
L 373.107525 203.181397 
L 373.512239 225.742313 
L 373.714597 230.171323 
L 374.119311 229.464345 
L 374.321668 216.530805 
L 375.333454 111.149493 
L 375.738169 97.696117 
L 375.940526 94.951379 
L 376.142883 93.828532 
L 376.34524 99.08928 
L 376.749955 125.725717 
L 377.559383 185.52774 
L 377.964098 220.710293 
L 378.368812 234.725093 
L 378.57117 234.953821 
L 378.773527 228.923714 
L 378.975884 217.528892 
L 380.392384 99.068486 
L 380.797099 88.983653 
L 381.201813 81.269275 
L 381.40417 85.095274 
L 382.011242 122.710663 
L 382.820671 206.903428 
L 383.225385 223.26789 
L 383.427743 223.933281 
L 383.6301 218.506185 
L 384.034814 195.903682 
L 385.0466 121.275914 
L 385.451315 104.308441 
L 385.653672 103.830191 
L 385.856029 107.676983 
L 386.058386 115.432948 
L 387.070172 186.567413 
L 387.474887 227.34341 
L 387.879601 249.592425 
L 388.284316 258.887106 
L 388.68903 261.444703 
L 388.891387 255.601738 
L 389.700816 211.332438 
L 390.307888 199.937615 
L 390.914959 186.983283 
L 391.117316 191.848955 
L 391.926745 232.084322 
L 392.533817 277.019013 
L 392.938531 289.599063 
L 393.140888 291.491269 
L 393.343246 291.033813 
L 393.545603 291.512063 
L 393.74796 282.404522 
L 394.355032 240.547265 
L 395.569175 183.115697 
L 395.771532 177.002417 
L 395.973889 178.229231 
L 396.176247 186.692174 
L 396.783318 229.443551 
L 397.188033 268.618451 
L 397.592747 286.750358 
L 397.795104 289.57827 
L 397.997461 286.999879 
L 398.402176 268.55607 
L 400.628105 138.763223 
L 400.830462 141.653515 
L 401.03282 151.779936 
L 401.639891 209.793721 
L 402.044606 254.89476 
L 402.44932 275.56347 
L 402.651677 279.638991 
L 402.854034 277.954719 
L 403.258749 259.44853 
L 403.663463 230.545605 
L 404.877607 122.68987 
L 405.282321 101.813225 
L 405.484678 97.52977 
L 405.687035 98.631823 
L 405.889393 109.319668 
L 406.294107 147.330133 
L 406.901179 226.075009 
L 407.305893 250.548924 
L 407.50825 256.246335 
L 407.710607 255.705705 
L 408.115322 234.101289 
L 409.73418 99.546736 
L 409.936537 94.53551 
L 410.138894 94.389955 
L 410.341251 99.068486 
L 410.948323 135.789757 
L 411.15068 151.967077 
L 411.757752 223.766933 
L 412.162466 248.240849 
L 412.364823 254.832379 
L 412.56718 256.641411 
L 412.971895 238.280776 
L 414.388395 138.513701 
L 414.79311 124.748423 
L 415.197824 117.969752 
L 415.400181 124.852391 
L 416.20961 188.459619 
L 416.614325 234.454778 
L 417.019039 257.909813 
L 417.221396 262.234855 
L 417.423753 261.673431 
L 417.828468 245.246589 
L 419.244968 145.87459 
L 419.649683 132.046932 
L 419.85204 128.158553 
L 420.054397 129.614096 
L 420.256754 138.409734 
L 421.066183 204.720114 
L 421.673255 260.654551 
L 422.077969 276.977426 
L 422.280326 279.493436 
L 422.482684 278.828045 
L 422.685041 278.661697 
L 423.089755 247.450697 
L 423.899184 177.376699 
L 424.708613 137.494821 
L 424.91097 134.271833 
L 425.113327 138.32656 
L 425.518042 164.817442 
L 425.720399 176.773688 
L 426.529828 252.399543 
L 426.934542 271.217635 
L 427.136899 275.750612 
L 427.339257 276.561557 
L 427.541614 276.790285 
L 427.743971 268.077821 
L 428.148685 227.197856 
L 428.755757 164.50554 
L 429.160471 138.534495 
L 429.565186 130.175519 
L 429.9699 134.147072 
L 430.374615 150.573915 
L 430.576972 162.363813 
L 431.386401 239.32045 
L 431.791115 251.713359 
L 431.993472 249.654805 
L 432.398187 229.090062 
L 433.207616 163.174758 
L 434.017044 91.915532 
L 434.219402 86.966686 
L 435.02883 114.72597 
L 435.433545 140.031625 
L 436.040617 212.12259 
L 436.445331 234.933027 
L 436.647688 240.131395 
L 436.850045 239.445211 
L 437.25476 218.589359 
L 437.659474 183.240458 
L 438.468903 108.862211 
L 438.67126 99.006106 
L 438.873617 99.983399 
L 439.075975 107.17794 
L 439.278332 106.720484 
L 439.480689 108.986972 
L 439.885403 127.763477 
L 440.290118 152.81961 
L 440.897189 227.135476 
L 441.301904 249.717186 
L 441.504261 255.206662 
L 441.706618 255.747292 
L 442.111333 240.838373 
L 442.920762 188.189304 
L 443.527833 152.902783 
L 444.134905 129.884411 
L 444.337262 127.264433 
L 444.539619 133.751996 
L 445.146691 179.352079 
L 445.753762 249.363697 
L 446.158477 270.822559 
L 446.360834 275.833785 
L 446.563191 273.816819 
L 446.967906 254.686825 
L 448.586763 143.587308 
L 448.991478 130.2379 
L 449.193835 127.888238 
L 449.396192 134.625322 
L 450.003264 175.484493 
L 450.812693 256.475064 
L 451.217407 269.92844 
L 451.419764 270.0532 
L 451.824479 252.669858 
L 452.43155 201.663473 
L 453.038622 159.265586 
L 453.443336 142.027798 
L 453.848051 134.063898 
L 454.050408 137.474028 
L 454.252765 147.579655 
L 454.65748 176.316232 
L 454.859837 184.862349 
L 455.669266 250.34099 
L 456.07398 264.043887 
L 456.276337 265.582604 
L 456.478694 263.565637 
L 456.681052 260.425823 
L 456.883409 252.337163 
L 457.288123 225.014542 
L 457.692838 213.931622 
L 457.895195 214.6386 
L 458.299909 220.460771 
L 458.502267 220.315217 
L 458.906981 216.447632 
L 459.109338 216.988262 
L 459.514053 221.188543 
L 459.71641 225.534378 
L 460.728196 283.901652 
L 461.13291 288.372249 
L 461.537625 285.0245 
L 461.739982 276.000133 
L 462.144696 241.108688 
L 463.561197 171.159451 
L 463.763554 163.819356 
L 463.965911 165.004584 
L 464.572983 184.696001 
L 465.382412 252.420337 
L 465.584769 259.406943 
L 465.787126 262.151681 
L 465.989483 259.698052 
L 467.608341 166.127431 
L 468.620127 144.710156 
L 468.822484 147.870763 
L 469.429556 174.403233 
L 470.036627 231.751626 
L 470.441342 249.737979 
L 470.643699 252.399543 
L 470.846056 249.800359 
L 471.857842 198.315725 
L 472.869628 167.728528 
L 473.071985 168.227572 
L 473.274343 166.41854 
L 473.4767 167.686941 
L 473.679057 171.51294 
L 473.881414 178.166851 
L 474.083772 179.331285 
L 474.286129 187.08725 
L 474.8932 239.777906 
L 475.297915 256.204749 
L 475.500272 257.88902 
L 475.702629 255.830466 
L 476.107344 231.190203 
L 476.512058 208.941188 
L 477.321487 177.106384 
L 477.726201 156.728782 
L 477.928558 153.131512 
L 478.333273 157.872423 
L 478.53563 162.384606 
L 479.142702 187.586293 
L 479.952131 256.100781 
L 480.356845 266.060854 
L 480.559202 265.644984 
L 480.963917 243.312796 
L 482.785131 113.519949 
L 482.987489 107.552223 
L 483.189846 104.890658 
L 483.392203 110.588069 
L 483.999275 150.885817 
L 484.606346 222.768847 
L 485.011061 246.244676 
L 485.213418 250.694479 
L 485.415775 251.650978 
L 485.82049 231.668452 
L 486.225204 200.124757 
L 487.23699 109.174113 
L 487.439347 106.055093 
L 487.844062 112.68821 
L 488.248776 131.506302 
L 489.260562 209.876895 
L 489.665277 242.37709 
L 490.069991 257.639498 
L 490.272348 260.009954 
L 490.474705 258.866313 
L 490.677063 257.078074 
L 490.87942 247.242762 
L 491.891206 166.668061 
L 492.29592 148.764883 
L 492.498277 141.300026 
L 492.700635 139.262266 
L 492.902992 140.904951 
L 493.105349 145.770623 
L 493.712421 179.643187 
L 494.52185 252.399543 
L 495.128921 270.864146 
L 495.331278 271.0097 
L 495.533636 270.385896 
L 495.735993 262.754692 
L 496.950136 170.286125 
L 497.557208 145.666655 
L 497.759565 142.27732 
L 497.961922 145.521101 
L 498.568994 177.355906 
L 499.378422 251.942087 
L 499.58078 258.845519 
L 499.783137 261.361529 
L 499.985494 258.013781 
L 500.187851 249.405283 
L 500.794923 212.101796 
L 500.99728 206.945015 
L 501.401995 193.720367 
L 501.806709 182.346339 
L 502.009066 181.888882 
L 502.211423 183.968229 
L 502.413781 184.612827 
L 502.616138 182.928556 
L 503.020852 192.743074 
L 503.223209 193.304498 
L 503.425567 200.894115 
L 504.032638 252.108435 
L 504.437353 265.312289 
L 504.63971 266.954973 
L 504.842067 264.563724 
L 505.246782 239.944254 
L 505.651496 215.886208 
L 507.270354 141.986211 
L 507.472711 138.846397 
L 507.675068 142.27732 
L 508.28214 170.598027 
L 508.889211 229.214823 
L 509.293926 246.514991 
L 509.496283 250.070675 
L 509.69864 248.220056 
L 510.103354 224.432324 
L 511.722212 116.971665 
L 512.126927 99.026899 
L 512.329284 100.627997 
L 512.936355 135.353094 
L 513.34107 174.694341 
L 513.745784 218.610153 
L 514.150499 241.566145 
L 514.352856 247.201175 
L 514.555213 247.700219 
L 514.75757 238.717439 
L 516.174071 140.967331 
L 516.376428 139.865277 
L 516.781142 149.284719 
L 516.9835 146.519188 
L 517.185857 147.059818 
L 517.590571 164.942203 
L 517.792928 169.225658 
L 517.995286 180.038263 
L 518.4 220.107282 
L 518.4 220.107282 
" clip-path="url(#p96dadb195b)" style="fill: none; stroke: #1f77b4; stroke-width: 1.5; stroke-linecap: square"/>
   </g>
   <g id="line2d_14">
    <path d="M 72 275.413922 
L 72.202357 275.413922 
L 72.607072 283.595985 
L 72.809429 284.398759 
L 73.011786 278.111881 
L 73.618858 243.469724 
L 74.023572 229.367354 
L 74.428286 205.631446 
L 75.035358 171.130655 
L 75.440073 159.38302 
L 75.64243 163.612505 
L 76.249501 205.651126 
L 76.856573 259.580994 
L 77.261287 281.207292 
L 77.463645 283.023031 
L 77.666002 276.654825 
L 78.475431 225.659295 
L 79.891931 154.975504 
L 80.094288 154.436152 
L 80.296646 159.835057 
L 80.70136 185.174896 
L 81.308432 236.492168 
L 81.713146 266.091636 
L 82.11786 281.106473 
L 82.320218 282.014886 
L 82.522575 278.495463 
L 83.129646 259.401371 
L 83.534361 238.940782 
L 83.939075 225.294155 
L 84.141432 223.547508 
L 84.34379 225.146048 
L 85.153218 237.718818 
L 85.557933 247.947082 
L 85.76029 250.250169 
L 85.962647 256.990944 
L 86.772076 303.928229 
L 86.974433 307.8 
L 87.176791 305.740608 
L 87.581505 294.427921 
L 88.188577 266.530087 
L 88.593291 251.006627 
L 88.795648 248.850426 
L 88.998005 248.742824 
L 89.200363 249.506649 
L 89.40272 248.716223 
L 89.605077 245.653846 
L 90.009791 232.808211 
L 90.212149 232.094729 
L 90.616863 234.022984 
L 91.021578 261.761581 
L 91.426292 294.77677 
L 91.628649 301.975428 
L 91.831006 303.804602 
L 92.033364 299.763683 
L 92.235721 292.090907 
L 92.842792 248.197143 
L 93.247507 238.456457 
L 93.652221 235.45018 
L 93.854578 237.533205 
L 94.259293 228.758306 
L 94.46165 228.505353 
L 94.866364 224.180205 
L 95.068722 225.856568 
L 95.473436 236.912788 
L 95.87815 266.307732 
L 96.282865 294.885611 
L 96.485222 300.026879 
L 96.687579 298.46277 
L 96.889937 293.846043 
L 97.294651 268.470173 
L 97.699365 246.373199 
L 98.10408 242.39297 
L 98.711151 234.870181 
L 99.318223 225.558847 
L 99.52058 224.4005 
L 99.722937 224.123882 
L 100.127652 229.109611 
L 100.330009 234.451121 
L 101.139438 292.625692 
L 101.341795 297.31342 
L 101.544152 297.916622 
L 101.74651 294.075503 
L 102.151224 270.933195 
L 102.555938 245.913166 
L 102.758296 244.705309 
L 103.567724 236.779516 
L 104.174796 220.171536 
L 104.377153 218.366855 
L 104.57951 218.969118 
L 104.984225 225.464469 
L 105.186582 232.695829 
L 105.996011 290.061548 
L 106.198368 295.095037 
L 106.400725 296.115701 
L 106.603083 292.836034 
L 106.80544 284.05622 
L 107.412511 245.05498 
L 107.817226 240.257189 
L 108.019583 239.142717 
L 108.424297 225.351953 
L 109.031369 197.021916 
L 109.840798 218.792689 
L 110.245512 244.64361 
L 110.852584 284.518356 
L 111.054941 291.701559 
L 111.257298 293.80253 
L 111.459655 290.211299 
L 111.662013 283.17491 
L 112.269084 244.006891 
L 112.673799 232.331327 
L 113.685585 186.450866 
L 113.887942 179.858515 
L 114.090299 178.035121 
L 114.292656 180.695394 
L 114.495014 186.48487 
L 114.899728 207.990338 
L 115.709157 272.925067 
L 116.113871 283.386982 
L 116.316228 284.438703 
L 116.518586 280.115634 
L 117.125657 257.858864 
L 118.744515 152.184116 
L 118.946872 147.876149 
L 119.149229 148.436445 
L 119.351587 154.383904 
L 119.958658 200.578571 
L 120.363373 242.540689 
L 120.768087 270.277954 
L 121.172801 281.547728 
L 121.375159 281.747919 
L 121.577516 277.838232 
L 121.779873 270.514495 
L 122.184587 244.465503 
L 122.589302 215.866501 
L 122.994016 204.585437 
L 123.398731 196.277787 
L 123.601088 193.123626 
L 123.803445 194.472726 
L 124.410517 210.372696 
L 124.612874 217.370453 
L 125.017588 248.495191 
L 125.422303 282.839483 
L 125.827017 298.846977 
L 126.029374 296.141534 
L 126.231732 288.589056 
L 127.243518 217.387246 
L 127.648232 199.678379 
L 128.457661 154.707306 
L 128.660018 150.585653 
L 128.862375 152.161668 
L 129.064733 163.48777 
L 129.671804 225.497547 
L 130.076519 268.745236 
L 130.278876 281.008799 
L 130.481233 286.13026 
L 130.68359 287.586583 
L 130.885947 283.168802 
L 131.088305 274.833812 
L 131.897733 219.991722 
L 132.504805 180.706343 
L 133.314234 138.251355 
L 133.516591 136.217234 
L 133.718948 139.466943 
L 134.32602 175.004577 
L 135.135449 261.167822 
L 135.337806 270.257129 
L 135.540163 273.679801 
L 135.74252 272.828802 
L 135.944878 265.551741 
L 136.956664 199.07257 
L 137.159021 199.217839 
L 137.361378 196.264924 
L 137.563735 196.940254 
L 137.96845 192.545364 
L 138.170807 191.871455 
L 138.373164 194.100323 
L 138.575521 194.009286 
L 139.182593 214.75895 
L 140.194379 286.377545 
L 140.396736 287.485618 
L 140.599093 281.331752 
L 141.003808 259.584332 
L 141.408522 230.093786 
L 141.813237 218.002935 
L 142.217951 209.986822 
L 142.420308 211.528146 
L 142.825023 204.485215 
L 143.229737 205.093136 
L 143.836809 214.135902 
L 144.241523 236.997434 
L 144.848595 276.013056 
L 145.050952 282.803139 
L 145.455666 277.184235 
L 145.658024 268.226835 
L 146.265095 225.175087 
L 146.467452 218.387726 
L 147.074524 210.464259 
L 147.276881 211.979248 
L 147.681596 199.880877 
L 148.288667 215.645096 
L 149.098096 245.790095 
L 149.705168 277.046953 
L 149.907525 283.442805 
L 150.109882 283.54423 
L 150.312239 281.262369 
L 151.324025 246.097539 
L 151.72874 231.828271 
L 152.335811 224.838797 
L 152.538169 225.36806 
L 152.942883 229.840995 
L 153.14524 231.532678 
L 153.347597 234.779073 
L 153.549955 234.921111 
L 153.752312 234.404312 
L 153.954669 240.318273 
L 154.764098 280.788642 
L 154.966455 284.470941 
L 155.168812 284.327197 
L 155.573527 275.286139 
L 155.775884 269.935124 
L 156.382956 231.47702 
L 156.78767 201.004412 
L 157.394742 173.321326 
L 157.799456 160.360905 
L 158.001813 157.159337 
L 158.20417 158.700992 
L 158.608885 182.357173 
L 159.013599 226.338443 
L 159.418314 265.305941 
L 159.620671 276.497299 
L 159.823028 281.184699 
L 160.025385 278.949862 
L 160.227743 272.022162 
L 160.632457 241.09655 
L 161.239529 198.673272 
L 161.644243 182.203528 
L 162.048957 176.18378 
L 162.251315 172.942077 
L 162.453672 174.617016 
L 162.656029 178.298063 
L 163.060743 189.664848 
L 163.465458 211.159763 
L 164.477244 284.234974 
L 164.679601 287.741575 
L 164.881958 283.25397 
L 165.286673 256.765327 
L 165.691387 229.482563 
L 165.893744 222.184679 
L 166.298459 216.10335 
L 166.703173 204.025273 
L 167.310245 167.740976 
L 167.512602 166.17435 
L 167.714959 172.081026 
L 168.524388 223.061134 
L 168.929102 259.8306 
L 169.333817 276.22914 
L 169.536174 279.432469 
L 169.738531 276.639496 
L 169.940888 268.81858 
L 171.155032 186.423729 
L 171.559746 166.836435 
L 172.166818 153.000293 
L 172.369175 153.741548 
L 172.571532 157.770504 
L 172.773889 166.209383 
L 173.380961 213.62913 
L 173.785675 259.104113 
L 174.19039 281.783303 
L 174.392747 285.492489 
L 174.595104 282.542875 
L 174.797461 274.184963 
L 175.60689 217.586235 
L 175.809248 213.973646 
L 176.416319 189.508271 
L 177.225748 165.025556 
L 177.428105 168.106961 
L 177.630462 175.207983 
L 178.237534 220.222995 
L 178.642248 267.391337 
L 179.046963 287.775506 
L 179.24932 288.228793 
L 179.451677 288.17424 
L 179.856392 265.818922 
L 180.261106 236.935757 
L 180.66582 216.342235 
L 181.272892 176.799435 
L 181.879964 150.884308 
L 182.082321 148.308163 
L 182.284678 148.515625 
L 182.487035 156.457938 
L 183.094107 205.810327 
L 183.498821 245.966285 
L 183.903536 264.179512 
L 184.105893 267.119128 
L 184.30825 267.179694 
L 184.712965 258.991416 
L 184.915322 252.851067 
L 185.320036 222.278058 
L 186.129465 146.879461 
L 186.331822 146.228767 
L 186.53418 142.977644 
L 186.736537 143.609995 
L 186.938894 149.036483 
L 187.343608 173.598003 
L 188.153037 222.546965 
L 188.557752 251.287893 
L 188.962466 268.138459 
L 189.164823 269.748941 
L 189.36718 266.340216 
L 189.771895 249.250787 
L 191.188395 157.114076 
L 191.390752 154.438969 
L 191.59311 156.202732 
L 191.997824 172.964405 
L 192.807253 214.392665 
L 193.616682 269.494033 
L 193.819039 275.088518 
L 194.021396 275.327074 
L 194.223753 270.398921 
L 194.830825 242.285367 
L 195.640254 188.760086 
L 195.842611 183.197049 
L 196.044968 186.963896 
L 196.65204 207.395279 
L 196.854397 208.858957 
L 197.259112 215.014905 
L 197.461469 219.061562 
L 197.866183 243.816145 
L 198.473255 284.664747 
L 198.675612 289.437042 
L 198.877969 285.237555 
L 199.080326 274.407381 
L 199.889755 209.401114 
L 200.901541 179.643383 
L 201.306256 165.409129 
L 201.508613 163.586562 
L 201.71097 163.882254 
L 201.913327 171.382301 
L 202.520399 212.376824 
L 203.127471 262.476258 
L 203.329828 270.436206 
L 203.532185 272.155238 
L 203.734542 268.588968 
L 204.139257 242.466683 
L 204.746328 202.894965 
L 205.151043 191.852623 
L 205.758114 169.721864 
L 205.960471 164.740778 
L 206.162829 165.061543 
L 207.174615 200.459994 
L 207.376972 213.18593 
L 207.781686 249.824654 
L 208.186401 269.004067 
L 208.388758 270.879703 
L 208.591115 267.897206 
L 208.793472 258.930844 
L 209.602901 202.464172 
L 210.007616 193.210842 
L 210.614687 167.438806 
L 211.019402 140.508647 
L 211.221759 135.043535 
L 211.424116 138.528674 
L 212.233545 197.911128 
L 212.638259 242.267874 
L 213.042974 261.576265 
L 213.245331 264.082382 
L 213.447688 262.737015 
L 213.650045 255.132738 
L 214.661831 187.122647 
L 214.864189 176.61438 
L 215.47126 131.399507 
L 215.875975 112.831929 
L 216.078332 111.53773 
L 216.280689 115.491448 
L 216.685403 141.464652 
L 217.899547 248.763686 
L 218.101904 253.82134 
L 218.304261 256.015918 
L 218.506618 253.937839 
L 219.11369 230.129545 
L 220.125476 157.100306 
L 220.53019 149.985711 
L 220.732548 151.936357 
L 221.137262 178.599797 
L 221.744334 209.867259 
L 221.946691 218.717848 
L 222.553762 260.977951 
L 222.958477 278.422536 
L 223.160834 278.23732 
L 223.565549 268.956431 
L 223.970263 247.923936 
L 224.577335 215.203882 
L 224.779692 211.897619 
L 224.982049 211.052586 
L 225.386763 217.753221 
L 225.993835 224.539408 
L 226.196192 227.377735 
L 226.803264 245.648493 
L 227.612693 298.766452 
L 227.81505 303.512144 
L 228.017407 299.085938 
L 228.422121 273.746891 
L 228.826836 241.966564 
L 229.23155 232.34797 
L 229.433908 231.489464 
L 229.838622 221.202748 
L 230.648051 187.519969 
L 230.850408 183.756353 
L 231.052765 186.266696 
L 231.45748 209.226742 
L 231.862194 243.132788 
L 232.266908 279.345482 
L 232.469266 288.072278 
L 232.671623 290.248154 
L 232.87398 286.28896 
L 233.076337 278.80056 
L 233.683409 241.224895 
L 234.897552 189.745477 
L 235.302267 179.11787 
L 235.504624 179.856083 
L 236.111695 198.008267 
L 236.51641 226.264158 
L 236.921124 265.334818 
L 237.325839 283.312186 
L 237.528196 285.696041 
L 237.730553 284.165825 
L 237.93291 276.694251 
L 238.742339 225.676848 
L 239.754125 198.172138 
L 239.956482 196.395726 
L 240.15884 193.074193 
L 240.361197 193.222193 
L 240.765911 198.402683 
L 241.170626 220.088767 
L 241.980054 281.15109 
L 242.182412 287.084616 
L 242.384769 289.047024 
L 242.587126 287.33288 
L 242.789483 279.557845 
L 243.396555 238.94624 
L 244.003626 220.01076 
L 244.610698 196.074346 
L 245.015413 182.484618 
L 245.21777 179.787553 
L 245.420127 181.076105 
L 245.622484 185.744894 
L 246.027199 206.308108 
L 246.431913 242.315366 
L 246.836627 272.31649 
L 247.241342 286.033704 
L 247.443699 285.026778 
L 247.646056 278.285178 
L 249.871985 138.866786 
L 250.074343 141.720217 
L 250.479057 159.369181 
L 251.086129 204.080522 
L 251.6932 254.623316 
L 252.097915 269.963256 
L 252.300272 269.988022 
L 252.502629 266.470134 
L 252.907344 250.739184 
L 253.312058 221.781746 
L 254.121487 150.442491 
L 254.526201 144.296021 
L 254.728558 142.485347 
L 254.930916 144.783599 
L 255.133273 149.496288 
L 255.537987 170.380662 
L 256.145059 221.353408 
L 256.549773 255.762493 
L 256.954488 274.202067 
L 257.156845 275.398409 
L 257.359202 273.742375 
L 257.763917 259.779193 
L 258.97806 175.18276 
L 259.382774 167.192074 
L 259.585131 165.662379 
L 259.787489 166.581596 
L 259.989846 169.779778 
L 260.39456 184.052131 
L 260.799275 209.759804 
L 261.406346 267.278814 
L 261.811061 282.485877 
L 262.013418 282.036291 
L 262.215775 274.321557 
L 263.025204 217.518114 
L 263.227561 213.672256 
L 263.429918 213.802424 
L 263.632276 215.068991 
L 263.834633 219.463583 
L 264.03699 220.938125 
L 264.644062 222.546399 
L 264.846419 222.168693 
L 265.048776 225.526871 
L 265.655848 250.5409 
L 266.465277 293.67831 
L 266.667634 296.28781 
L 266.869991 290.517476 
L 267.274705 266.716433 
L 267.67942 244.711007 
L 268.691206 218.473636 
L 269.09592 208.360578 
L 269.298277 206.397238 
L 270.107706 217.996576 
L 270.310063 223.178484 
L 270.714778 250.240758 
L 271.119492 275.294268 
L 271.32185 280.858285 
L 271.524207 282.632425 
L 271.726564 279.296942 
L 271.928921 272.500506 
L 272.535993 232.372363 
L 273.143064 205.229804 
L 274.15485 148.365476 
L 274.357208 144.888555 
L 274.559565 143.648997 
L 274.761922 147.171585 
L 275.166636 169.545049 
L 275.368994 183.432636 
L 275.976065 245.412678 
L 276.178422 256.258197 
L 276.38078 259.828964 
L 276.583137 257.75813 
L 276.785494 251.302395 
L 278.201995 159.195189 
L 279.011423 137.188998 
L 279.416138 142.86814 
L 279.618495 149.276801 
L 279.820852 160.057999 
L 280.427924 220.029057 
L 280.832638 261.052318 
L 281.034995 270.000667 
L 281.237353 272.975369 
L 281.43971 272.101424 
L 281.844424 253.666313 
L 282.653853 200.477414 
L 283.260925 172.468603 
L 283.665639 162.779353 
L 283.867996 154.449839 
L 284.070354 153.638519 
L 284.272711 154.695589 
L 284.677425 180.27449 
L 285.891568 278.863216 
L 286.093926 281.663712 
L 286.296283 282.6908 
L 286.49864 279.095216 
L 286.903354 264.919453 
L 287.308069 239.316949 
L 287.915141 188.461166 
L 288.319855 170.338375 
L 288.926927 154.213355 
L 289.129284 155.923841 
L 289.331641 162.491607 
L 289.938713 205.96329 
L 290.545784 258.859575 
L 290.950499 273.661661 
L 291.152856 275.663083 
L 291.355213 273.544015 
L 291.759927 260.411686 
L 292.164642 225.95289 
L 292.771714 167.646164 
L 293.176428 142.294295 
L 293.581142 132.687819 
L 293.7835 132.18831 
L 293.985857 135.071484 
L 294.390571 154.660117 
L 294.795286 180.734658 
L 295.402357 243.373393 
L 295.807072 261.979742 
L 296.009429 263.470255 
L 296.211786 257.12618 
L 296.6165 225.045 
L 298.033001 91.125719 
L 298.235358 84.189006 
L 298.437715 82.494374 
L 299.044787 98.501786 
L 299.449501 127.566517 
L 299.854216 170.069908 
L 300.25893 221.461729 
L 300.461287 235.160258 
L 300.663645 236.859302 
L 300.866002 233.928204 
L 301.068359 225.920733 
L 301.877788 162.616456 
L 302.687217 71.200869 
L 302.889574 63.267273 
L 303.091931 66.278224 
L 303.699003 105.787904 
L 304.508432 165.390278 
L 305.31786 244.493224 
L 305.520218 248.029069 
L 305.722575 245.687931 
L 305.924932 237.159905 
L 307.341432 135.205855 
L 307.746147 119.969308 
L 307.948504 114.066819 
L 308.150861 113.118804 
L 308.555576 135.515879 
L 309.365005 193.869186 
L 309.972076 251.18931 
L 310.174433 263.274908 
L 310.376791 265.574795 
L 310.579148 260.765222 
L 310.983862 237.008734 
L 311.388577 205.11115 
L 312.400363 121.367098 
L 312.60272 114.614167 
L 312.805077 113.14993 
L 313.007434 114.442456 
L 313.412149 129.938737 
L 314.221578 184.240413 
L 314.828649 241.762971 
L 315.031006 251.296224 
L 315.233364 254.248207 
L 315.435721 252.091188 
L 315.638078 242.448164 
L 316.042792 213.949144 
L 316.649864 193.332283 
L 317.256936 180.383055 
L 317.459293 176.869503 
L 317.66165 176.587318 
L 317.864007 177.697394 
L 318.471079 189.4921 
L 318.875793 204.020074 
L 319.887579 270.644911 
L 320.089937 273.85925 
L 320.494651 266.836157 
L 321.506437 221.201241 
L 322.518223 159.607744 
L 322.72058 152.722129 
L 322.922937 151.842511 
L 323.125295 155.252519 
L 323.530009 172.644307 
L 324.137081 217.656209 
L 324.541795 249.754294 
L 324.94651 265.282198 
L 325.148867 266.609772 
L 325.351224 266.349697 
L 325.755938 252.357185 
L 326.160653 221.991009 
L 327.172439 133.892246 
L 327.374796 128.199215 
L 327.577153 129.812413 
L 328.184225 145.281523 
L 328.588939 171.136308 
L 329.803083 269.591959 
L 330.00544 267.941407 
L 330.207797 261.931758 
L 330.612511 230.923722 
L 331.219583 176.208044 
L 331.624297 153.208153 
L 332.029012 140.150664 
L 332.231369 139.866013 
L 332.636083 149.410338 
L 333.040798 165.061783 
L 333.445512 189.243958 
L 334.457298 270.50197 
L 334.659655 275.078015 
L 334.862013 273.984929 
L 335.266727 249.297682 
L 335.873799 213.702421 
L 336.683228 182.602405 
L 336.885585 178.186393 
L 337.087942 178.933049 
L 337.290299 177.871055 
L 337.492656 179.862469 
L 338.099728 198.194186 
L 338.302085 207.110204 
L 339.313871 275.742541 
L 339.516228 279.088496 
L 339.718586 274.601515 
L 340.1233 250.995529 
L 340.528015 221.225568 
L 342.349229 148.753492 
L 342.551587 149.290336 
L 342.753944 152.327241 
L 343.361015 185.97312 
L 343.968087 243.569463 
L 344.170444 252.266169 
L 344.372801 254.765509 
L 344.575159 252.047067 
L 344.777516 244.800314 
L 345.586945 190.185177 
L 346.598731 112.730251 
L 346.801088 108.972999 
L 347.003445 108.233279 
L 347.40816 118.432611 
L 347.812874 133.225554 
L 348.217588 165.128542 
L 349.027017 245.935522 
L 349.229374 251.705557 
L 349.431732 251.423287 
L 349.634089 244.436928 
L 350.443518 184.782437 
L 351.252947 118.864013 
L 351.657661 108.214166 
L 351.860018 105.220357 
L 352.062375 106.479148 
L 352.264733 110.873375 
L 352.46709 118.130135 
L 352.669447 130.041173 
L 353.276519 194.253908 
L 353.681233 242.681398 
L 353.88359 253.843396 
L 354.085947 257.346088 
L 354.288305 257.082879 
L 354.490662 253.743635 
L 354.895376 240.532572 
L 355.300091 210.682896 
L 356.109519 113.392497 
L 356.311877 108.100475 
L 356.514234 107.646783 
L 356.716591 104.773411 
L 356.918948 104.651774 
L 357.121306 108.047659 
L 357.52602 128.939472 
L 358.133092 189.898825 
L 358.537806 235.328951 
L 358.94252 254.241272 
L 359.144878 255.338229 
L 359.347235 252.918441 
L 359.751949 238.09952 
L 360.156664 204.298923 
L 360.763735 120.655384 
L 360.966092 103.465809 
L 361.16845 96.437278 
L 361.370807 95.649624 
L 361.573164 92.432513 
L 361.775521 92.261357 
L 361.977879 93.813256 
L 362.382593 111.282708 
L 362.787307 145.587833 
L 363.596736 236.734302 
L 363.799093 241.685061 
L 364.001451 240.291104 
L 364.203808 233.423601 
L 364.810879 184.946752 
L 366.025023 55.8 
L 366.22738 56.231054 
L 366.429737 57.66066 
L 367.036809 72.946575 
L 367.239166 85.096036 
L 367.846238 149.842036 
L 368.250952 200.565606 
L 368.453309 215.531666 
L 368.655666 222.052995 
L 368.858024 219.59551 
L 369.060381 212.408609 
L 369.667452 174.791267 
L 370.072167 129.259185 
L 370.679238 65.717574 
L 370.881596 59.625133 
L 371.083953 60.369482 
L 371.28631 62.961923 
L 371.691024 79.030779 
L 372.095739 103.852044 
L 372.905168 186.815933 
L 373.309882 222.792165 
L 373.512239 228.700616 
L 373.714597 227.914156 
L 373.916954 224.1818 
L 374.119311 214.417955 
L 374.321668 210.462949 
L 374.524025 202.425787 
L 374.726383 186.907675 
L 375.535811 92.80921 
L 375.738169 90.749552 
L 375.940526 92.257378 
L 376.142883 91.446809 
L 376.34524 95.937819 
L 376.547597 103.742648 
L 377.154669 154.934088 
L 378.166455 237.371324 
L 378.368812 241.367155 
L 378.57117 240.788519 
L 378.773527 235.826135 
L 379.380598 190.600839 
L 380.392384 98.136963 
L 380.797099 90.631945 
L 380.999456 87.946556 
L 381.201813 88.829318 
L 381.40417 90.669564 
L 381.606528 96.464627 
L 381.808885 107.808439 
L 383.023028 221.783516 
L 383.225385 227.422828 
L 383.427743 223.588663 
L 383.832457 205.778071 
L 384.237171 182.361057 
L 384.237171 182.361057 
" clip-path="url(#p96dadb195b)" style="fill: none; stroke: #ff7f0e; stroke-width: 1.5; stroke-linecap: square"/>
   </g>
   <g id="line2d_15">
    <path d="M 384.439529 170.117731 
L 385.0466 137.852804 
L 385.451315 123.272521 
L 385.653672 119.897695 
L 385.856029 120.345815 
L 386.058386 124.089343 
L 386.463101 141.539758 
L 387.272529 204.463755 
L 387.677244 234.436344 
L 387.879601 243.466648 
L 388.081958 246.775616 
L 388.284316 244.974297 
L 388.68903 231.664385 
L 390.307888 166.886946 
L 390.712602 164.233377 
L 390.914959 165.69102 
L 391.117316 171.080261 
L 391.724388 199.876166 
L 392.533817 246.952855 
L 392.938531 254.242668 
L 393.140888 251.994226 
L 393.545603 237.748148 
L 394.557389 196.530624 
L 394.962103 187.193779 
L 395.164461 184.214498 
L 395.366818 183.712999 
L 395.569175 185.981255 
L 396.176247 201.710893 
L 396.580961 216.971041 
L 397.188033 242.108653 
L 397.592747 248.649559 
L 397.795104 247.783559 
L 397.997461 243.919803 
L 399.413962 194.782261 
L 399.818676 191.175444 
L 400.021034 192.236835 
L 400.425748 199.939553 
L 401.437534 226.115482 
L 401.842248 237.144598 
L 402.044606 240.378523 
L 402.246963 241.759898 
L 402.44932 240.939704 
L 402.651677 237.443319 
L 403.86582 202.621625 
L 404.068178 201.077372 
L 404.270535 200.724276 
L 404.472892 201.961491 
L 405.484678 215.478213 
L 405.889393 221.490286 
L 406.496464 231.947618 
L 406.698821 233.436012 
L 406.901179 233.708511 
L 407.103536 232.381915 
L 407.50825 224.23323 
L 408.115322 210.9964 
L 408.317679 209.057105 
L 408.520036 208.24916 
L 408.722393 208.786577 
L 409.73418 215.249995 
L 410.341251 218.543532 
L 411.15068 225.319236 
L 411.353037 225.703944 
L 411.555394 225.19608 
L 411.960109 221.012106 
L 412.56718 214.500717 
L 412.769538 213.824552 
L 412.971895 213.64475 
L 413.781324 216.278258 
L 413.983681 216.690558 
L 414.388395 216.261381 
L 414.590752 215.743272 
L 414.79311 215.866339 
L 415.804896 218.960989 
L 416.007253 219.163602 
L 416.20961 218.981415 
L 416.614325 217.226949 
L 417.019039 215.82035 
L 417.221396 215.480018 
L 417.423753 215.562811 
L 417.828468 216.041664 
L 418.030825 216.13309 
L 418.233182 216.060757 
L 418.435539 215.778502 
L 419.042611 214.187704 
L 419.244968 214.100768 
L 419.649683 214.533733 
L 420.661469 216.548172 
L 420.863826 216.390854 
L 421.470898 215.437509 
L 421.875612 215.181395 
L 422.685041 214.904541 
L 423.089755 214.440255 
L 423.292112 214.097827 
L 423.696827 214.066989 
L 424.303898 214.737368 
L 424.708613 215.126196 
L 424.91097 215.253505 
L 425.315684 215.133563 
L 425.922756 214.805644 
L 426.934542 214.66406 
L 427.743971 214.624816 
L 428.351043 214.681016 
L 428.755757 214.772027 
L 429.160471 214.737042 
L 429.9699 214.532468 
L 430.576972 214.689892 
L 431.184044 214.786866 
L 433.005258 214.657307 
L 433.814687 214.508304 
L 434.826473 214.693348 
L 435.433545 214.774507 
L 438.266546 214.612634 
L 439.480689 214.692769 
L 440.694832 214.592618 
L 443.73019 214.622631 
L 444.944334 214.622266 
L 446.360834 214.647944 
L 448.789121 214.640297 
L 451.01505 214.611642 
L 471.857842 214.630269 
L 518.4 214.63252 
L 518.4 214.63252 
" clip-path="url(#p96dadb195b)" style="fill: none; stroke: #2ca02c; stroke-width: 1.5; stroke-linecap: square"/>
   </g>
   <g id="patch_3">
    <path d="M 72 320.4 
L 72 43.2 
" style="fill: none; stroke: #000000; stroke-width: 0.8; stroke-linejoin: miter; stroke-linecap: square"/>
   </g>
   <g id="patch_4">
    <path d="M 518.4 320.4 
L 518.4 43.2 
" style="fill: none; stroke: #000000; stroke-width: 0.8; stroke-linejoin: miter; stroke-linecap: square"/>
   </g>
   <g id="patch_5">
    <path d="M 72 320.4 
L 518.4 320.4 
" style="fill: none; stroke: #000000; stroke-width: 0.8; stroke-linejoin: miter; stroke-linecap: square"/>
   </g>
   <g id="patch_6">
    <path d="M 72 43.2 
L 518.4 43.2 
" style="fill: none; stroke: #000000; stroke-width: 0.8; stroke-linejoin: miter; stroke-linecap: square"/>
   </g>
   <g id="text_13">
    <!-- Classic Transformer - model_20231123163957 -->
    <g transform="translate(155.436563 37.2) scale(0.12 -0.12)">
     <defs>
      <path id="DejaVuSans-43" d="M 4122 4306 
L 4122 3641 
Q 3803 3938 3442 4084 
Q 3081 4231 2675 4231 
Q 1875 4231 1450 3742 
Q 1025 3253 1025 2328 
Q 1025 1406 1450 917 
Q 1875 428 2675 428 
Q 3081 428 3442 575 
Q 3803 722 4122 1019 
L 4122 359 
Q 3791 134 3420 21 
Q 3050 -91 2638 -91 
Q 1578 -91 968 557 
Q 359 1206 359 2328 
Q 359 3453 968 4101 
Q 1578 4750 2638 4750 
Q 3056 4750 3426 4639 
Q 3797 4528 4122 4306 
z
" transform="scale(0.015625)"/>
      <path id="DejaVuSans-6c" d="M 603 4863 
L 1178 4863 
L 1178 0 
L 603 0 
L 603 4863 
z
" transform="scale(0.015625)"/>
      <path id="DejaVuSans-61" d="M 2194 1759 
Q 1497 1759 1228 1600 
Q 959 1441 959 1056 
Q 959 750 1161 570 
Q 1363 391 1709 391 
Q 2188 391 2477 730 
Q 2766 1069 2766 1631 
L 2766 1759 
L 2194 1759 
z
M 3341 1997 
L 3341 0 
L 2766 0 
L 2766 531 
Q 2569 213 2275 61 
Q 1981 -91 1556 -91 
Q 1019 -91 701 211 
Q 384 513 384 1019 
Q 384 1609 779 1909 
Q 1175 2209 1959 2209 
L 2766 2209 
L 2766 2266 
Q 2766 2663 2505 2880 
Q 2244 3097 1772 3097 
Q 1472 3097 1187 3025 
Q 903 2953 641 2809 
L 641 3341 
Q 956 3463 1253 3523 
Q 1550 3584 1831 3584 
Q 2591 3584 2966 3190 
Q 3341 2797 3341 1997 
z
" transform="scale(0.015625)"/>
      <path id="DejaVuSans-73" d="M 2834 3397 
L 2834 2853 
Q 2591 2978 2328 3040 
Q 2066 3103 1784 3103 
Q 1356 3103 1142 2972 
Q 928 2841 928 2578 
Q 928 2378 1081 2264 
Q 1234 2150 1697 2047 
L 1894 2003 
Q 2506 1872 2764 1633 
Q 3022 1394 3022 966 
Q 3022 478 2636 193 
Q 2250 -91 1575 -91 
Q 1294 -91 989 -36 
Q 684 19 347 128 
L 347 722 
Q 666 556 975 473 
Q 1284 391 1588 391 
Q 1994 391 2212 530 
Q 2431 669 2431 922 
Q 2431 1156 2273 1281 
Q 2116 1406 1581 1522 
L 1381 1569 
Q 847 1681 609 1914 
Q 372 2147 372 2553 
Q 372 3047 722 3315 
Q 1072 3584 1716 3584 
Q 2034 3584 2315 3537 
Q 2597 3491 2834 3397 
z
" transform="scale(0.015625)"/>
      <path id="DejaVuSans-69" d="M 603 3500 
L 1178 3500 
L 1178 0 
L 603 0 
L 603 3500 
z
M 603 4863 
L 1178 4863 
L 1178 4134 
L 603 4134 
L 603 4863 
z
" transform="scale(0.015625)"/>
      <path id="DejaVuSans-63" d="M 3122 3366 
L 3122 2828 
Q 2878 2963 2633 3030 
Q 2388 3097 2138 3097 
Q 1578 3097 1268 2742 
Q 959 2388 959 1747 
Q 959 1106 1268 751 
Q 1578 397 2138 397 
Q 2388 397 2633 464 
Q 2878 531 3122 666 
L 3122 134 
Q 2881 22 2623 -34 
Q 2366 -91 2075 -91 
Q 1284 -91 818 406 
Q 353 903 353 1747 
Q 353 2603 823 3093 
Q 1294 3584 2113 3584 
Q 2378 3584 2631 3529 
Q 2884 3475 3122 3366 
z
" transform="scale(0.015625)"/>
      <path id="DejaVuSans-20" transform="scale(0.015625)"/>
      <path id="DejaVuSans-54" d="M -19 4666 
L 3928 4666 
L 3928 4134 
L 2272 4134 
L 2272 0 
L 1638 0 
L 1638 4134 
L -19 4134 
L -19 4666 
z
" transform="scale(0.015625)"/>
      <path id="DejaVuSans-72" d="M 2631 2963 
Q 2534 3019 2420 3045 
Q 2306 3072 2169 3072 
Q 1681 3072 1420 2755 
Q 1159 2438 1159 1844 
L 1159 0 
L 581 0 
L 581 3500 
L 1159 3500 
L 1159 2956 
Q 1341 3275 1631 3429 
Q 1922 3584 2338 3584 
Q 2397 3584 2469 3576 
Q 2541 3569 2628 3553 
L 2631 2963 
z
" transform="scale(0.015625)"/>
      <path id="DejaVuSans-6e" d="M 3513 2113 
L 3513 0 
L 2938 0 
L 2938 2094 
Q 2938 2591 2744 2837 
Q 2550 3084 2163 3084 
Q 1697 3084 1428 2787 
Q 1159 2491 1159 1978 
L 1159 0 
L 581 0 
L 581 3500 
L 1159 3500 
L 1159 2956 
Q 1366 3272 1645 3428 
Q 1925 3584 2291 3584 
Q 2894 3584 3203 3211 
Q 3513 2838 3513 2113 
z
" transform="scale(0.015625)"/>
      <path id="DejaVuSans-66" d="M 2375 4863 
L 2375 4384 
L 1825 4384 
Q 1516 4384 1395 4259 
Q 1275 4134 1275 3809 
L 1275 3500 
L 2222 3500 
L 2222 3053 
L 1275 3053 
L 1275 0 
L 697 0 
L 697 3053 
L 147 3053 
L 147 3500 
L 697 3500 
L 697 3744 
Q 697 4328 969 4595 
Q 1241 4863 1831 4863 
L 2375 4863 
z
" transform="scale(0.015625)"/>
      <path id="DejaVuSans-6f" d="M 1959 3097 
Q 1497 3097 1228 2736 
Q 959 2375 959 1747 
Q 959 1119 1226 758 
Q 1494 397 1959 397 
Q 2419 397 2687 759 
Q 2956 1122 2956 1747 
Q 2956 2369 2687 2733 
Q 2419 3097 1959 3097 
z
M 1959 3584 
Q 2709 3584 3137 3096 
Q 3566 2609 3566 1747 
Q 3566 888 3137 398 
Q 2709 -91 1959 -91 
Q 1206 -91 779 398 
Q 353 888 353 1747 
Q 353 2609 779 3096 
Q 1206 3584 1959 3584 
z
" transform="scale(0.015625)"/>
      <path id="DejaVuSans-6d" d="M 3328 2828 
Q 3544 3216 3844 3400 
Q 4144 3584 4550 3584 
Q 5097 3584 5394 3201 
Q 5691 2819 5691 2113 
L 5691 0 
L 5113 0 
L 5113 2094 
Q 5113 2597 4934 2840 
Q 4756 3084 4391 3084 
Q 3944 3084 3684 2787 
Q 3425 2491 3425 1978 
L 3425 0 
L 2847 0 
L 2847 2094 
Q 2847 2600 2669 2842 
Q 2491 3084 2119 3084 
Q 1678 3084 1418 2786 
Q 1159 2488 1159 1978 
L 1159 0 
L 581 0 
L 581 3500 
L 1159 3500 
L 1159 2956 
Q 1356 3278 1631 3431 
Q 1906 3584 2284 3584 
Q 2666 3584 2933 3390 
Q 3200 3197 3328 2828 
z
" transform="scale(0.015625)"/>
      <path id="DejaVuSans-65" d="M 3597 1894 
L 3597 1613 
L 953 1613 
Q 991 1019 1311 708 
Q 1631 397 2203 397 
Q 2534 397 2845 478 
Q 3156 559 3463 722 
L 3463 178 
Q 3153 47 2828 -22 
Q 2503 -91 2169 -91 
Q 1331 -91 842 396 
Q 353 884 353 1716 
Q 353 2575 817 3079 
Q 1281 3584 2069 3584 
Q 2775 3584 3186 3129 
Q 3597 2675 3597 1894 
z
M 3022 2063 
Q 3016 2534 2758 2815 
Q 2500 3097 2075 3097 
Q 1594 3097 1305 2825 
Q 1016 2553 972 2059 
L 3022 2063 
z
" transform="scale(0.015625)"/>
      <path id="DejaVuSans-64" d="M 2906 2969 
L 2906 4863 
L 3481 4863 
L 3481 0 
L 2906 0 
L 2906 525 
Q 2725 213 2448 61 
Q 2172 -91 1784 -91 
Q 1150 -91 751 415 
Q 353 922 353 1747 
Q 353 2572 751 3078 
Q 1150 3584 1784 3584 
Q 2172 3584 2448 3432 
Q 2725 3281 2906 2969 
z
M 947 1747 
Q 947 1113 1208 752 
Q 1469 391 1925 391 
Q 2381 391 2643 752 
Q 2906 1113 2906 1747 
Q 2906 2381 2643 2742 
Q 2381 3103 1925 3103 
Q 1469 3103 1208 2742 
Q 947 2381 947 1747 
z
" transform="scale(0.015625)"/>
      <path id="DejaVuSans-5f" d="M 3263 -1063 
L 3263 -1509 
L -63 -1509 
L -63 -1063 
L 3263 -1063 
z
" transform="scale(0.015625)"/>
      <path id="DejaVuSans-39" d="M 703 97 
L 703 672 
Q 941 559 1184 500 
Q 1428 441 1663 441 
Q 2288 441 2617 861 
Q 2947 1281 2994 2138 
Q 2813 1869 2534 1725 
Q 2256 1581 1919 1581 
Q 1219 1581 811 2004 
Q 403 2428 403 3163 
Q 403 3881 828 4315 
Q 1253 4750 1959 4750 
Q 2769 4750 3195 4129 
Q 3622 3509 3622 2328 
Q 3622 1225 3098 567 
Q 2575 -91 1691 -91 
Q 1453 -91 1209 -44 
Q 966 3 703 97 
z
M 1959 2075 
Q 2384 2075 2632 2365 
Q 2881 2656 2881 3163 
Q 2881 3666 2632 3958 
Q 2384 4250 1959 4250 
Q 1534 4250 1286 3958 
Q 1038 3666 1038 3163 
Q 1038 2656 1286 2365 
Q 1534 2075 1959 2075 
z
" transform="scale(0.015625)"/>
     </defs>
     <use xlink:href="#DejaVuSans-43"/>
     <use xlink:href="#DejaVuSans-6c" x="69.824219"/>
     <use xlink:href="#DejaVuSans-61" x="97.607422"/>
     <use xlink:href="#DejaVuSans-73" x="158.886719"/>
     <use xlink:href="#DejaVuSans-73" x="210.986328"/>
     <use xlink:href="#DejaVuSans-69" x="263.085938"/>
     <use xlink:href="#DejaVuSans-63" x="290.869141"/>
     <use xlink:href="#DejaVuSans-20" x="345.849609"/>
     <use xlink:href="#DejaVuSans-54" x="377.636719"/>
     <use xlink:href="#DejaVuSans-72" x="423.970703"/>
     <use xlink:href="#DejaVuSans-61" x="465.083984"/>
     <use xlink:href="#DejaVuSans-6e" x="526.363281"/>
     <use xlink:href="#DejaVuSans-73" x="589.742188"/>
     <use xlink:href="#DejaVuSans-66" x="641.841797"/>
     <use xlink:href="#DejaVuSans-6f" x="677.046875"/>
     <use xlink:href="#DejaVuSans-72" x="738.228516"/>
     <use xlink:href="#DejaVuSans-6d" x="777.591797"/>
     <use xlink:href="#DejaVuSans-65" x="875.003906"/>
     <use xlink:href="#DejaVuSans-72" x="936.527344"/>
     <use xlink:href="#DejaVuSans-20" x="977.640625"/>
     <use xlink:href="#DejaVuSans-2d" x="1009.427734"/>
     <use xlink:href="#DejaVuSans-20" x="1045.511719"/>
     <use xlink:href="#DejaVuSans-6d" x="1077.298828"/>
     <use xlink:href="#DejaVuSans-6f" x="1174.710938"/>
     <use xlink:href="#DejaVuSans-64" x="1235.892578"/>
     <use xlink:href="#DejaVuSans-65" x="1299.369141"/>
     <use xlink:href="#DejaVuSans-6c" x="1360.892578"/>
     <use xlink:href="#DejaVuSans-5f" x="1388.675781"/>
     <use xlink:href="#DejaVuSans-32" x="1438.675781"/>
     <use xlink:href="#DejaVuSans-30" x="1502.298828"/>
     <use xlink:href="#DejaVuSans-32" x="1565.921875"/>
     <use xlink:href="#DejaVuSans-33" x="1629.544922"/>
     <use xlink:href="#DejaVuSans-31" x="1693.167969"/>
     <use xlink:href="#DejaVuSans-31" x="1756.791016"/>
     <use xlink:href="#DejaVuSans-32" x="1820.414062"/>
     <use xlink:href="#DejaVuSans-33" x="1884.037109"/>
     <use xlink:href="#DejaVuSans-31" x="1947.660156"/>
     <use xlink:href="#DejaVuSans-36" x="2011.283203"/>
     <use xlink:href="#DejaVuSans-33" x="2074.90625"/>
     <use xlink:href="#DejaVuSans-39" x="2138.529297"/>
     <use xlink:href="#DejaVuSans-35" x="2202.152344"/>
     <use xlink:href="#DejaVuSans-37" x="2265.775391"/>
    </g>
   </g>
   <g id="legend_1">
    <g id="patch_7">
     <path d="M 79 95.234375 
L 161.517188 95.234375 
Q 163.517188 95.234375 163.517188 93.234375 
L 163.517188 50.2 
Q 163.517188 48.2 161.517188 48.2 
L 79 48.2 
Q 77 48.2 77 50.2 
L 77 93.234375 
Q 77 95.234375 79 95.234375 
z
" style="fill: #ffffff; opacity: 0.8; stroke: #cccccc; stroke-linejoin: miter"/>
    </g>
    <g id="line2d_16">
     <path d="M 81 56.298437 
L 91 56.298437 
L 101 56.298437 
" style="fill: none; stroke: #1f77b4; stroke-width: 1.5; stroke-linecap: square"/>
    </g>
    <g id="text_14">
     <!-- Measured -->
     <g transform="translate(109 59.798437) scale(0.1 -0.1)">
      <defs>
       <path id="DejaVuSans-4d" d="M 628 4666 
L 1569 4666 
L 2759 1491 
L 3956 4666 
L 4897 4666 
L 4897 0 
L 4281 0 
L 4281 4097 
L 3078 897 
L 2444 897 
L 1241 4097 
L 1241 0 
L 628 0 
L 628 4666 
z
" transform="scale(0.015625)"/>
       <path id="DejaVuSans-75" d="M 544 1381 
L 544 3500 
L 1119 3500 
L 1119 1403 
Q 1119 906 1312 657 
Q 1506 409 1894 409 
Q 2359 409 2629 706 
Q 2900 1003 2900 1516 
L 2900 3500 
L 3475 3500 
L 3475 0 
L 2900 0 
L 2900 538 
Q 2691 219 2414 64 
Q 2138 -91 1772 -91 
Q 1169 -91 856 284 
Q 544 659 544 1381 
z
M 1991 3584 
L 1991 3584 
z
" transform="scale(0.015625)"/>
      </defs>
      <use xlink:href="#DejaVuSans-4d"/>
      <use xlink:href="#DejaVuSans-65" x="86.279297"/>
      <use xlink:href="#DejaVuSans-61" x="147.802734"/>
      <use xlink:href="#DejaVuSans-73" x="209.082031"/>
      <use xlink:href="#DejaVuSans-75" x="261.181641"/>
      <use xlink:href="#DejaVuSans-72" x="324.560547"/>
      <use xlink:href="#DejaVuSans-65" x="363.423828"/>
      <use xlink:href="#DejaVuSans-64" x="424.947266"/>
     </g>
    </g>
    <g id="line2d_17">
     <path d="M 81 70.976562 
L 91 70.976562 
L 101 70.976562 
" style="fill: none; stroke: #ff7f0e; stroke-width: 1.5; stroke-linecap: square"/>
    </g>
    <g id="text_15">
     <!-- Fitted -->
     <g transform="translate(109 74.476562) scale(0.1 -0.1)">
      <defs>
       <path id="DejaVuSans-46" d="M 628 4666 
L 3309 4666 
L 3309 4134 
L 1259 4134 
L 1259 2759 
L 3109 2759 
L 3109 2228 
L 1259 2228 
L 1259 0 
L 628 0 
L 628 4666 
z
" transform="scale(0.015625)"/>
       <path id="DejaVuSans-74" d="M 1172 4494 
L 1172 3500 
L 2356 3500 
L 2356 3053 
L 1172 3053 
L 1172 1153 
Q 1172 725 1289 603 
Q 1406 481 1766 481 
L 2356 481 
L 2356 0 
L 1766 0 
Q 1100 0 847 248 
Q 594 497 594 1153 
L 594 3053 
L 172 3053 
L 172 3500 
L 594 3500 
L 594 4494 
L 1172 4494 
z
" transform="scale(0.015625)"/>
      </defs>
      <use xlink:href="#DejaVuSans-46"/>
      <use xlink:href="#DejaVuSans-69" x="50.269531"/>
      <use xlink:href="#DejaVuSans-74" x="78.052734"/>
      <use xlink:href="#DejaVuSans-74" x="117.261719"/>
      <use xlink:href="#DejaVuSans-65" x="156.470703"/>
      <use xlink:href="#DejaVuSans-64" x="217.994141"/>
     </g>
    </g>
    <g id="line2d_18">
     <path d="M 81 85.654687 
L 91 85.654687 
L 101 85.654687 
" style="fill: none; stroke: #2ca02c; stroke-width: 1.5; stroke-linecap: square"/>
    </g>
    <g id="text_16">
     <!-- Estimated -->
     <g transform="translate(109 89.154687) scale(0.1 -0.1)">
      <defs>
       <path id="DejaVuSans-45" d="M 628 4666 
L 3578 4666 
L 3578 4134 
L 1259 4134 
L 1259 2753 
L 3481 2753 
L 3481 2222 
L 1259 2222 
L 1259 531 
L 3634 531 
L 3634 0 
L 628 0 
L 628 4666 
z
" transform="scale(0.015625)"/>
      </defs>
      <use xlink:href="#DejaVuSans-45"/>
      <use xlink:href="#DejaVuSans-73" x="63.183594"/>
      <use xlink:href="#DejaVuSans-74" x="115.283203"/>
      <use xlink:href="#DejaVuSans-69" x="154.492188"/>
      <use xlink:href="#DejaVuSans-6d" x="182.275391"/>
      <use xlink:href="#DejaVuSans-61" x="279.6875"/>
      <use xlink:href="#DejaVuSans-74" x="340.966797"/>
      <use xlink:href="#DejaVuSans-65" x="380.175781"/>
      <use xlink:href="#DejaVuSans-64" x="441.699219"/>
     </g>
    </g>
   </g>
  </g>
 </g>
 <defs>
  <clipPath id="p96dadb195b">
   <rect x="72" y="43.2" width="446.4" height="277.2"/>
  </clipPath>
 </defs>
</svg>
