<?xml version="1.0" encoding="utf-8" standalone="no"?>
<!DOCTYPE svg PUBLIC "-//W3C//DTD SVG 1.1//EN"
  "http://www.w3.org/Graphics/SVG/1.1/DTD/svg11.dtd">
<svg xmlns:xlink="http://www.w3.org/1999/xlink" width="576pt" height="360pt" viewBox="0 0 576 360" xmlns="http://www.w3.org/2000/svg" version="1.1">
 <metadata>
  <rdf:RDF xmlns:dc="http://purl.org/dc/elements/1.1/" xmlns:cc="http://creativecommons.org/ns#" xmlns:rdf="http://www.w3.org/1999/02/22-rdf-syntax-ns#">
   <cc:Work>
    <dc:type rdf:resource="http://purl.org/dc/dcmitype/StillImage"/>
    <dc:date>2023-11-23T16:16:00.217538</dc:date>
    <dc:format>image/svg+xml</dc:format>
    <dc:creator>
     <cc:Agent>
      <dc:title>Matplotlib v3.8.1, https://matplotlib.org/</dc:title>
     </cc:Agent>
    </dc:creator>
   </cc:Work>
  </rdf:RDF>
 </metadata>
 <defs>
  <style type="text/css">*{stroke-linejoin: round; stroke-linecap: butt}</style>
 </defs>
 <g id="figure_1">
  <g id="patch_1">
   <path d="M 0 360 
L 576 360 
L 576 0 
L 0 0 
z
" style="fill: #ffffff"/>
  </g>
  <g id="axes_1">
   <g id="patch_2">
    <path d="M 72 320.4 
L 518.4 320.4 
L 518.4 43.2 
L 72 43.2 
z
" style="fill: #ffffff"/>
   </g>
   <g id="matplotlib.axis_1">
    <g id="xtick_1">
     <g id="line2d_1">
      <defs>
       <path id="maf281b71b5" d="M 0 0 
L 0 3.5 
" style="stroke: #000000; stroke-width: 0.8"/>
      </defs>
      <g>
       <use xlink:href="#maf281b71b5" x="129.874161" y="320.4" style="stroke: #000000; stroke-width: 0.8"/>
      </g>
     </g>
     <g id="text_1">
      <!-- 2020-05-15 -->
      <g transform="translate(100.816349 334.998438) scale(0.1 -0.1)">
       <defs>
        <path id="DejaVuSans-32" d="M 1228 531 
L 3431 531 
L 3431 0 
L 469 0 
L 469 531 
Q 828 903 1448 1529 
Q 2069 2156 2228 2338 
Q 2531 2678 2651 2914 
Q 2772 3150 2772 3378 
Q 2772 3750 2511 3984 
Q 2250 4219 1831 4219 
Q 1534 4219 1204 4116 
Q 875 4013 500 3803 
L 500 4441 
Q 881 4594 1212 4672 
Q 1544 4750 1819 4750 
Q 2544 4750 2975 4387 
Q 3406 4025 3406 3419 
Q 3406 3131 3298 2873 
Q 3191 2616 2906 2266 
Q 2828 2175 2409 1742 
Q 1991 1309 1228 531 
z
" transform="scale(0.015625)"/>
        <path id="DejaVuSans-30" d="M 2034 4250 
Q 1547 4250 1301 3770 
Q 1056 3291 1056 2328 
Q 1056 1369 1301 889 
Q 1547 409 2034 409 
Q 2525 409 2770 889 
Q 3016 1369 3016 2328 
Q 3016 3291 2770 3770 
Q 2525 4250 2034 4250 
z
M 2034 4750 
Q 2819 4750 3233 4129 
Q 3647 3509 3647 2328 
Q 3647 1150 3233 529 
Q 2819 -91 2034 -91 
Q 1250 -91 836 529 
Q 422 1150 422 2328 
Q 422 3509 836 4129 
Q 1250 4750 2034 4750 
z
" transform="scale(0.015625)"/>
        <path id="DejaVuSans-2d" d="M 313 2009 
L 1997 2009 
L 1997 1497 
L 313 1497 
L 313 2009 
z
" transform="scale(0.015625)"/>
        <path id="DejaVuSans-35" d="M 691 4666 
L 3169 4666 
L 3169 4134 
L 1269 4134 
L 1269 2991 
Q 1406 3038 1543 3061 
Q 1681 3084 1819 3084 
Q 2600 3084 3056 2656 
Q 3513 2228 3513 1497 
Q 3513 744 3044 326 
Q 2575 -91 1722 -91 
Q 1428 -91 1123 -41 
Q 819 9 494 109 
L 494 744 
Q 775 591 1075 516 
Q 1375 441 1709 441 
Q 2250 441 2565 725 
Q 2881 1009 2881 1497 
Q 2881 1984 2565 2268 
Q 2250 2553 1709 2553 
Q 1456 2553 1204 2497 
Q 953 2441 691 2322 
L 691 4666 
z
" transform="scale(0.015625)"/>
        <path id="DejaVuSans-31" d="M 794 531 
L 1825 531 
L 1825 4091 
L 703 3866 
L 703 4441 
L 1819 4666 
L 2450 4666 
L 2450 531 
L 3481 531 
L 3481 0 
L 794 0 
L 794 531 
z
" transform="scale(0.015625)"/>
       </defs>
       <use xlink:href="#DejaVuSans-32"/>
       <use xlink:href="#DejaVuSans-30" x="63.623047"/>
       <use xlink:href="#DejaVuSans-32" x="127.246094"/>
       <use xlink:href="#DejaVuSans-30" x="190.869141"/>
       <use xlink:href="#DejaVuSans-2d" x="254.492188"/>
       <use xlink:href="#DejaVuSans-30" x="290.576172"/>
       <use xlink:href="#DejaVuSans-35" x="354.199219"/>
       <use xlink:href="#DejaVuSans-2d" x="417.822266"/>
       <use xlink:href="#DejaVuSans-31" x="453.90625"/>
       <use xlink:href="#DejaVuSans-35" x="517.529297"/>
      </g>
     </g>
    </g>
    <g id="xtick_2">
     <g id="line2d_2">
      <g>
       <use xlink:href="#maf281b71b5" x="212.435902" y="320.4" style="stroke: #000000; stroke-width: 0.8"/>
      </g>
     </g>
     <g id="text_2">
      <!-- 2020-06-01 -->
      <g transform="translate(183.37809 334.998438) scale(0.1 -0.1)">
       <defs>
        <path id="DejaVuSans-36" d="M 2113 2584 
Q 1688 2584 1439 2293 
Q 1191 2003 1191 1497 
Q 1191 994 1439 701 
Q 1688 409 2113 409 
Q 2538 409 2786 701 
Q 3034 994 3034 1497 
Q 3034 2003 2786 2293 
Q 2538 2584 2113 2584 
z
M 3366 4563 
L 3366 3988 
Q 3128 4100 2886 4159 
Q 2644 4219 2406 4219 
Q 1781 4219 1451 3797 
Q 1122 3375 1075 2522 
Q 1259 2794 1537 2939 
Q 1816 3084 2150 3084 
Q 2853 3084 3261 2657 
Q 3669 2231 3669 1497 
Q 3669 778 3244 343 
Q 2819 -91 2113 -91 
Q 1303 -91 875 529 
Q 447 1150 447 2328 
Q 447 3434 972 4092 
Q 1497 4750 2381 4750 
Q 2619 4750 2861 4703 
Q 3103 4656 3366 4563 
z
" transform="scale(0.015625)"/>
       </defs>
       <use xlink:href="#DejaVuSans-32"/>
       <use xlink:href="#DejaVuSans-30" x="63.623047"/>
       <use xlink:href="#DejaVuSans-32" x="127.246094"/>
       <use xlink:href="#DejaVuSans-30" x="190.869141"/>
       <use xlink:href="#DejaVuSans-2d" x="254.492188"/>
       <use xlink:href="#DejaVuSans-30" x="290.576172"/>
       <use xlink:href="#DejaVuSans-36" x="354.199219"/>
       <use xlink:href="#DejaVuSans-2d" x="417.822266"/>
       <use xlink:href="#DejaVuSans-30" x="453.90625"/>
       <use xlink:href="#DejaVuSans-31" x="517.529297"/>
      </g>
     </g>
    </g>
    <g id="xtick_3">
     <g id="line2d_3">
      <g>
       <use xlink:href="#maf281b71b5" x="280.427924" y="320.4" style="stroke: #000000; stroke-width: 0.8"/>
      </g>
     </g>
     <g id="text_3">
      <!-- 2020-06-15 -->
      <g transform="translate(251.370111 334.998438) scale(0.1 -0.1)">
       <use xlink:href="#DejaVuSans-32"/>
       <use xlink:href="#DejaVuSans-30" x="63.623047"/>
       <use xlink:href="#DejaVuSans-32" x="127.246094"/>
       <use xlink:href="#DejaVuSans-30" x="190.869141"/>
       <use xlink:href="#DejaVuSans-2d" x="254.492188"/>
       <use xlink:href="#DejaVuSans-30" x="290.576172"/>
       <use xlink:href="#DejaVuSans-36" x="354.199219"/>
       <use xlink:href="#DejaVuSans-2d" x="417.822266"/>
       <use xlink:href="#DejaVuSans-31" x="453.90625"/>
       <use xlink:href="#DejaVuSans-35" x="517.529297"/>
      </g>
     </g>
    </g>
    <g id="xtick_4">
     <g id="line2d_4">
      <g>
       <use xlink:href="#maf281b71b5" x="358.133092" y="320.4" style="stroke: #000000; stroke-width: 0.8"/>
      </g>
     </g>
     <g id="text_4">
      <!-- 2020-07-01 -->
      <g transform="translate(329.075279 334.998438) scale(0.1 -0.1)">
       <defs>
        <path id="DejaVuSans-37" d="M 525 4666 
L 3525 4666 
L 3525 4397 
L 1831 0 
L 1172 0 
L 2766 4134 
L 525 4134 
L 525 4666 
z
" transform="scale(0.015625)"/>
       </defs>
       <use xlink:href="#DejaVuSans-32"/>
       <use xlink:href="#DejaVuSans-30" x="63.623047"/>
       <use xlink:href="#DejaVuSans-32" x="127.246094"/>
       <use xlink:href="#DejaVuSans-30" x="190.869141"/>
       <use xlink:href="#DejaVuSans-2d" x="254.492188"/>
       <use xlink:href="#DejaVuSans-30" x="290.576172"/>
       <use xlink:href="#DejaVuSans-37" x="354.199219"/>
       <use xlink:href="#DejaVuSans-2d" x="417.822266"/>
       <use xlink:href="#DejaVuSans-30" x="453.90625"/>
       <use xlink:href="#DejaVuSans-31" x="517.529297"/>
      </g>
     </g>
    </g>
    <g id="xtick_5">
     <g id="line2d_5">
      <g>
       <use xlink:href="#maf281b71b5" x="426.125113" y="320.4" style="stroke: #000000; stroke-width: 0.8"/>
      </g>
     </g>
     <g id="text_5">
      <!-- 2020-07-15 -->
      <g transform="translate(397.067301 334.998438) scale(0.1 -0.1)">
       <use xlink:href="#DejaVuSans-32"/>
       <use xlink:href="#DejaVuSans-30" x="63.623047"/>
       <use xlink:href="#DejaVuSans-32" x="127.246094"/>
       <use xlink:href="#DejaVuSans-30" x="190.869141"/>
       <use xlink:href="#DejaVuSans-2d" x="254.492188"/>
       <use xlink:href="#DejaVuSans-30" x="290.576172"/>
       <use xlink:href="#DejaVuSans-37" x="354.199219"/>
       <use xlink:href="#DejaVuSans-2d" x="417.822266"/>
       <use xlink:href="#DejaVuSans-31" x="453.90625"/>
       <use xlink:href="#DejaVuSans-35" x="517.529297"/>
      </g>
     </g>
    </g>
    <g id="xtick_6">
     <g id="line2d_6">
      <g>
       <use xlink:href="#maf281b71b5" x="508.686854" y="320.4" style="stroke: #000000; stroke-width: 0.8"/>
      </g>
     </g>
     <g id="text_6">
      <!-- 2020-08-01 -->
      <g transform="translate(479.629042 334.998438) scale(0.1 -0.1)">
       <defs>
        <path id="DejaVuSans-38" d="M 2034 2216 
Q 1584 2216 1326 1975 
Q 1069 1734 1069 1313 
Q 1069 891 1326 650 
Q 1584 409 2034 409 
Q 2484 409 2743 651 
Q 3003 894 3003 1313 
Q 3003 1734 2745 1975 
Q 2488 2216 2034 2216 
z
M 1403 2484 
Q 997 2584 770 2862 
Q 544 3141 544 3541 
Q 544 4100 942 4425 
Q 1341 4750 2034 4750 
Q 2731 4750 3128 4425 
Q 3525 4100 3525 3541 
Q 3525 3141 3298 2862 
Q 3072 2584 2669 2484 
Q 3125 2378 3379 2068 
Q 3634 1759 3634 1313 
Q 3634 634 3220 271 
Q 2806 -91 2034 -91 
Q 1263 -91 848 271 
Q 434 634 434 1313 
Q 434 1759 690 2068 
Q 947 2378 1403 2484 
z
M 1172 3481 
Q 1172 3119 1398 2916 
Q 1625 2713 2034 2713 
Q 2441 2713 2670 2916 
Q 2900 3119 2900 3481 
Q 2900 3844 2670 4047 
Q 2441 4250 2034 4250 
Q 1625 4250 1398 4047 
Q 1172 3844 1172 3481 
z
" transform="scale(0.015625)"/>
       </defs>
       <use xlink:href="#DejaVuSans-32"/>
       <use xlink:href="#DejaVuSans-30" x="63.623047"/>
       <use xlink:href="#DejaVuSans-32" x="127.246094"/>
       <use xlink:href="#DejaVuSans-30" x="190.869141"/>
       <use xlink:href="#DejaVuSans-2d" x="254.492188"/>
       <use xlink:href="#DejaVuSans-30" x="290.576172"/>
       <use xlink:href="#DejaVuSans-38" x="354.199219"/>
       <use xlink:href="#DejaVuSans-2d" x="417.822266"/>
       <use xlink:href="#DejaVuSans-30" x="453.90625"/>
       <use xlink:href="#DejaVuSans-31" x="517.529297"/>
      </g>
     </g>
    </g>
   </g>
   <g id="matplotlib.axis_2">
    <g id="ytick_1">
     <g id="line2d_7">
      <defs>
       <path id="m2fc7d8eaa7" d="M 0 0 
L -3.5 0 
" style="stroke: #000000; stroke-width: 0.8"/>
      </defs>
      <g>
       <use xlink:href="#m2fc7d8eaa7" x="72" y="313.061036" style="stroke: #000000; stroke-width: 0.8"/>
      </g>
     </g>
     <g id="text_7">
      <!-- −2 -->
      <g transform="translate(50.257812 316.860254) scale(0.1 -0.1)">
       <defs>
        <path id="DejaVuSans-2212" d="M 678 2272 
L 4684 2272 
L 4684 1741 
L 678 1741 
L 678 2272 
z
" transform="scale(0.015625)"/>
       </defs>
       <use xlink:href="#DejaVuSans-2212"/>
       <use xlink:href="#DejaVuSans-32" x="83.789062"/>
      </g>
     </g>
    </g>
    <g id="ytick_2">
     <g id="line2d_8">
      <g>
       <use xlink:href="#m2fc7d8eaa7" x="72" y="260.374822" style="stroke: #000000; stroke-width: 0.8"/>
      </g>
     </g>
     <g id="text_8">
      <!-- −1 -->
      <g transform="translate(50.257812 264.174041) scale(0.1 -0.1)">
       <use xlink:href="#DejaVuSans-2212"/>
       <use xlink:href="#DejaVuSans-31" x="83.789062"/>
      </g>
     </g>
    </g>
    <g id="ytick_3">
     <g id="line2d_9">
      <g>
       <use xlink:href="#m2fc7d8eaa7" x="72" y="207.688608" style="stroke: #000000; stroke-width: 0.8"/>
      </g>
     </g>
     <g id="text_9">
      <!-- 0 -->
      <g transform="translate(58.6375 211.487827) scale(0.1 -0.1)">
       <use xlink:href="#DejaVuSans-30"/>
      </g>
     </g>
    </g>
    <g id="ytick_4">
     <g id="line2d_10">
      <g>
       <use xlink:href="#m2fc7d8eaa7" x="72" y="155.002394" style="stroke: #000000; stroke-width: 0.8"/>
      </g>
     </g>
     <g id="text_10">
      <!-- 1 -->
      <g transform="translate(58.6375 158.801613) scale(0.1 -0.1)">
       <use xlink:href="#DejaVuSans-31"/>
      </g>
     </g>
    </g>
    <g id="ytick_5">
     <g id="line2d_11">
      <g>
       <use xlink:href="#m2fc7d8eaa7" x="72" y="102.316181" style="stroke: #000000; stroke-width: 0.8"/>
      </g>
     </g>
     <g id="text_11">
      <!-- 2 -->
      <g transform="translate(58.6375 106.115399) scale(0.1 -0.1)">
       <use xlink:href="#DejaVuSans-32"/>
      </g>
     </g>
    </g>
    <g id="ytick_6">
     <g id="line2d_12">
      <g>
       <use xlink:href="#m2fc7d8eaa7" x="72" y="49.629967" style="stroke: #000000; stroke-width: 0.8"/>
      </g>
     </g>
     <g id="text_12">
      <!-- 3 -->
      <g transform="translate(58.6375 53.429186) scale(0.1 -0.1)">
       <defs>
        <path id="DejaVuSans-33" d="M 2597 2516 
Q 3050 2419 3304 2112 
Q 3559 1806 3559 1356 
Q 3559 666 3084 287 
Q 2609 -91 1734 -91 
Q 1441 -91 1130 -33 
Q 819 25 488 141 
L 488 750 
Q 750 597 1062 519 
Q 1375 441 1716 441 
Q 2309 441 2620 675 
Q 2931 909 2931 1356 
Q 2931 1769 2642 2001 
Q 2353 2234 1838 2234 
L 1294 2234 
L 1294 2753 
L 1863 2753 
Q 2328 2753 2575 2939 
Q 2822 3125 2822 3475 
Q 2822 3834 2567 4026 
Q 2313 4219 1838 4219 
Q 1578 4219 1281 4162 
Q 984 4106 628 3988 
L 628 4550 
Q 988 4650 1302 4700 
Q 1616 4750 1894 4750 
Q 2613 4750 3031 4423 
Q 3450 4097 3450 3541 
Q 3450 3153 3228 2886 
Q 3006 2619 2597 2516 
z
" transform="scale(0.015625)"/>
       </defs>
       <use xlink:href="#DejaVuSans-33"/>
      </g>
     </g>
    </g>
   </g>
   <g id="line2d_13">
    <path d="M 72 284.63454 
L 72.404714 295.799906 
L 72.607072 294.104424 
L 72.809429 283.60071 
L 73.214143 253.16475 
L 73.618858 240.924201 
L 75.035358 159.251618 
L 75.237715 156.336217 
L 75.440073 161.319278 
L 75.64243 169.40383 
L 75.844787 172.650057 
L 76.047144 187.661271 
L 76.654216 256.845185 
L 77.05893 280.540573 
L 77.261287 284.841306 
L 77.463645 284.469127 
L 77.666002 273.92406 
L 78.070716 245.865909 
L 78.475431 233.584007 
L 78.677788 224.589684 
L 79.487217 168.473383 
L 79.891931 152.449015 
L 80.094288 154.37194 
L 80.903717 196.138678 
L 81.713146 270.326331 
L 82.11786 284.7586 
L 82.320218 286.76423 
L 82.522575 286.474758 
L 82.724932 283.993565 
L 82.927289 277.273669 
L 83.332004 254.632789 
L 83.736718 240.531345 
L 83.939075 237.533238 
L 84.141432 237.802034 
L 84.546147 244.108398 
L 84.748504 246.176058 
L 84.950861 246.196735 
L 85.355576 250.332055 
L 85.557933 247.044475 
L 85.76029 253.082044 
L 86.569719 297.371328 
L 86.772076 303.367543 
L 86.974433 304.938965 
L 87.176791 305.000994 
L 87.379148 303.677692 
L 87.581505 299.997256 
L 87.783862 293.33939 
L 88.188577 271.60828 
L 88.390934 266.501159 
L 89.200363 258.540667 
L 89.40272 254.467376 
L 89.807434 239.890371 
L 90.212149 237.471208 
L 90.414506 234.803926 
L 90.616863 242.640359 
L 91.223935 292.491649 
L 91.628649 303.367543 
L 91.831006 303.429573 
L 92.033364 300.969057 
L 92.842792 255.48053 
L 93.04515 253.371516 
L 93.449864 244.894109 
L 93.652221 244.377194 
L 93.854578 241.482469 
L 94.056936 240.862171 
L 94.259293 238.277596 
L 94.46165 231.971232 
L 94.664007 229.159214 
L 94.866364 230.068984 
L 95.068722 233.170475 
L 95.271079 229.386656 
L 95.473436 239.352779 
L 96.080508 292.863828 
L 96.485222 301.940857 
L 96.687579 303.822428 
L 96.889937 299.542371 
L 97.699365 254.756848 
L 98.306437 244.39787 
L 98.508794 244.025691 
L 99.52058 223.100969 
L 99.722937 224.341565 
L 99.925295 228.642299 
L 100.127652 226.843434 
L 100.330009 236.85091 
L 100.937081 290.423989 
L 101.341795 302.519802 
L 101.544152 303.491602 
L 101.74651 299.831844 
L 101.948867 288.04618 
L 102.353581 258.437284 
L 102.555938 256.907215 
L 103.567724 239.373456 
L 104.377153 217.580316 
L 104.57951 218.841589 
L 104.781868 224.155476 
L 104.984225 224.134799 
L 105.186582 232.901679 
L 105.793654 287.322499 
L 106.198368 299.893873 
L 106.400725 301.630708 
L 106.603083 297.6608 
L 107.412511 252.379039 
L 107.614869 250.683558 
L 107.817226 247.065152 
L 108.22194 232.736266 
L 108.626655 211.335982 
L 108.829012 205.484503 
L 109.031369 203.623609 
L 109.638441 212.183722 
L 109.840798 217.538963 
L 110.043155 227.794558 
L 110.650227 282.070641 
L 111.054941 296.130732 
L 111.257298 298.012302 
L 111.459655 296.296144 
L 111.662013 285.048072 
L 112.066727 256.204211 
L 112.471442 241.420439 
L 113.887942 173.973359 
L 114.090299 171.636903 
L 114.292656 178.356799 
L 114.495014 189.625548 
L 114.697371 194.153724 
L 115.102085 227.691175 
L 115.709157 276.363899 
L 116.113871 290.11384 
L 116.316228 290.279253 
L 116.518586 288.645801 
L 116.720943 285.068749 
L 117.125657 258.209841 
L 118.542158 155.012914 
L 118.744515 145.046791 
L 118.946872 141.22162 
L 119.149229 144.840025 
L 119.756301 182.181971 
L 120.56573 260.422238 
L 120.970444 279.961628 
L 121.172801 283.993565 
L 121.375159 285.606341 
L 121.577516 284.179655 
L 121.779873 276.363899 
L 122.589302 226.0784 
L 123.196374 200.977003 
L 123.398731 196.469504 
L 123.601088 196.67627 
L 123.803445 196.118002 
L 124.410517 209.330351 
L 124.612874 220.144215 
L 125.219946 275.640218 
L 125.62466 289.969104 
L 125.827017 291.933381 
L 126.029374 289.431512 
L 127.04116 233.832126 
L 127.648232 196.945066 
L 128.255304 155.15765 
L 128.457661 147.714073 
L 128.660018 147.383248 
L 129.26709 191.093587 
L 130.278876 280.664632 
L 130.481233 288.377005 
L 130.68359 289.741661 
L 130.885947 287.198439 
L 132.504805 179.804162 
L 133.111877 137.727274 
L 133.314234 128.443479 
L 133.516591 130.118284 
L 133.921306 145.274234 
L 134.123663 152.593752 
L 135.135449 260.939153 
L 135.540163 273.386468 
L 135.74252 272.456021 
L 135.944878 262.014336 
L 136.349592 231.040784 
L 136.551949 224.362242 
L 136.754306 212.659284 
L 136.956664 217.166784 
L 137.159021 206.022095 
L 137.766092 197.317245 
L 137.96845 197.7101 
L 138.373164 192.375536 
L 138.777879 199.819114 
L 138.980236 200.646178 
L 139.182593 212.287105 
L 139.789665 268.134611 
L 140.194379 283.290561 
L 140.396736 285.337545 
L 140.599093 282.360114 
L 141.003808 252.565128 
L 141.408522 231.681759 
L 142.015594 218.46941 
L 142.622665 209.454411 
L 142.825023 209.185615 
L 143.02738 207.986372 
L 143.229737 208.6687 
L 143.634451 213.879204 
L 143.836809 212.659284 
L 144.039166 222.708113 
L 144.646238 271.380837 
L 145.050952 283.311238 
L 145.253309 284.593187 
L 145.455666 281.491696 
L 145.860381 252.234303 
L 146.062738 236.003169 
L 146.66981 219.751359 
L 146.872167 217.104754 
L 147.074524 216.029571 
L 147.479238 205.070971 
L 147.681596 213.424319 
L 147.883953 214.396119 
L 148.08631 216.980694 
L 148.491024 226.181783 
L 148.693382 224.837804 
L 149.098096 248.181689 
L 149.502811 275.99172 
L 149.907525 288.95595 
L 150.109882 291.002934 
L 150.312239 290.423989 
L 150.514597 287.611971 
L 150.716954 281.925905 
L 151.121668 261.125242 
L 151.526383 240.696758 
L 151.931097 234.907309 
L 152.133454 234.473101 
L 152.335811 236.437378 
L 152.538169 236.954293 
L 152.740526 234.907309 
L 152.942883 235.196782 
L 153.14524 234.224981 
L 153.347597 234.266335 
L 153.549955 231.350934 
L 153.752312 233.542653 
L 154.764098 284.861983 
L 154.966455 288.811214 
L 155.168812 290.196546 
L 155.573527 286.267992 
L 155.775884 275.226686 
L 156.78767 197.503334 
L 157.799456 154.992238 
L 158.001813 156.997868 
L 158.406528 170.168864 
L 158.608885 183.691363 
L 159.215956 252.151596 
L 159.620671 273.696617 
L 159.823028 276.901491 
L 160.025385 275.99172 
L 160.227743 266.211687 
L 160.632457 233.832126 
L 161.8466 183.65001 
L 162.251315 173.621857 
L 162.453672 173.766593 
L 162.656029 176.619965 
L 163.465458 208.358551 
L 164.072529 268.072581 
L 164.477244 286.640171 
L 164.679601 286.970996 
L 164.881958 283.745446 
L 165.084316 273.613911 
L 165.48903 241.916678 
L 166.500816 206.911188 
L 167.310245 164.089943 
L 167.512602 167.439553 
L 167.917316 187.97142 
L 168.119674 192.41689 
L 168.322031 203.747668 
L 168.929102 263.02749 
L 169.333817 278.18344 
L 169.536174 281.698463 
L 169.738531 278.038704 
L 170.143246 250.807617 
L 170.54796 220.557747 
L 171.357389 176.082373 
L 171.559746 170.065481 
L 172.166818 145.915209 
L 172.369175 147.527984 
L 172.571532 155.426446 
L 173.178604 194.319137 
L 173.785675 265.260563 
L 174.19039 284.613864 
L 174.392747 287.591294 
L 174.595104 285.771753 
L 174.999819 261.621481 
L 175.404533 236.664821 
L 177.023391 158.56929 
L 177.225748 159.086205 
L 177.428105 162.994083 
L 177.630462 179.556042 
L 177.83282 181.995882 
L 178.237534 226.037046 
L 178.642248 268.878968 
L 179.046963 288.04618 
L 179.24932 291.767968 
L 179.451677 289.245423 
L 179.654034 280.561249 
L 180.261106 240.758788 
L 181.879964 143.909578 
L 182.082321 140.642675 
L 182.284678 146.308064 
L 183.094107 202.589778 
L 183.498821 241.565176 
L 183.903536 263.006813 
L 184.30825 270.843246 
L 184.510607 272.207902 
L 184.712965 268.568819 
L 184.915322 255.191057 
L 185.724751 173.208325 
L 186.129465 151.828717 
L 186.331822 145.770473 
L 186.53418 145.005438 
L 186.736537 147.54866 
L 187.748323 187.992096 
L 188.557752 252.19295 
L 188.962466 266.377099 
L 189.164823 268.424083 
L 189.36718 268.50679 
L 189.569538 267.762432 
L 189.771895 256.969245 
L 190.986038 160.926423 
L 191.188395 155.612536 
L 191.390752 155.571183 
L 191.795467 164.730918 
L 192.604896 196.076648 
L 193.414325 259.491791 
L 193.819039 273.221055 
L 194.021396 274.296239 
L 194.426111 270.326331 
L 194.628468 261.352685 
L 195.437897 200.336029 
L 195.640254 195.311614 
L 195.842611 196.531534 
L 196.247325 202.610455 
L 196.449683 203.1894 
L 196.65204 202.796544 
L 197.056754 211.025833 
L 197.259112 211.873573 
L 197.461469 220.309627 
L 198.06854 268.775585 
L 198.473255 283.001089 
L 198.675612 283.104472 
L 198.877969 279.444713 
L 199.282684 248.574544 
L 199.687398 225.685544 
L 201.306256 159.086205 
L 201.508613 157.928315 
L 202.115684 177.178233 
L 202.318042 188.364275 
L 202.925113 252.627158 
L 203.329828 270.326331 
L 203.532185 272.435344 
L 203.734542 269.437237 
L 203.936899 257.879016 
L 204.341614 223.783297 
L 205.758114 168.948945 
L 205.960471 166.447076 
L 206.162829 166.591812 
L 206.365186 168.018498 
L 206.7699 179.907545 
L 206.972257 183.112418 
L 207.174615 193.988311 
L 207.781686 253.22678 
L 208.186401 269.437237 
L 208.388758 272.497374 
L 208.591115 269.147764 
L 208.793472 257.238041 
L 209.198187 223.328411 
L 209.805258 200.977003 
L 210.209973 181.024081 
L 210.817044 139.195313 
L 211.019402 130.676552 
L 211.221759 133.653983 
L 211.626473 158.217788 
L 211.82883 163.448968 
L 212.031188 178.23274 
L 212.638259 243.508776 
L 213.042974 262.159072 
L 213.245331 266.170333 
L 213.447688 264.454175 
L 213.650045 253.702342 
L 214.257117 210.281475 
L 214.661831 183.836099 
L 215.47126 124.266805 
L 215.875975 107.477403 
L 216.078332 107.001841 
L 216.280689 112.563848 
L 217.090118 176.578611 
L 217.697189 238.732481 
L 218.101904 257.258717 
L 218.304261 260.629004 
L 218.506618 261.99366 
L 218.708976 260.732387 
L 218.911333 247.954246 
L 219.518404 192.954481 
L 220.125476 157.618166 
L 220.327833 155.447123 
L 220.53019 157.680196 
L 221.541976 200.149939 
L 221.744334 205.31909 
L 222.553762 262.427868 
L 222.958477 273.345115 
L 223.160834 275.061273 
L 223.363191 275.412775 
L 223.565549 273.841353 
L 223.767906 265.09515 
L 224.374977 226.740051 
L 224.779692 219.131061 
L 225.386763 221.198721 
L 225.589121 224.73442 
L 225.791478 225.623514 
L 226.196192 234.038892 
L 226.398549 233.68739 
L 226.600907 240.13849 
L 227.410335 293.959688 
L 227.612693 298.012302 
L 227.81505 299.707784 
L 228.017407 296.50291 
L 228.826836 253.743695 
L 229.029193 251.407239 
L 229.23155 245.638466 
L 230.648051 181.975205 
L 230.850408 182.55415 
L 231.255122 197.027772 
L 231.45748 207.965695 
L 232.064551 271.897753 
L 232.469266 289.14204 
L 232.671623 291.871351 
L 232.87398 290.651432 
L 233.278694 265.260563 
L 233.683409 242.640359 
L 235.302267 177.798531 
L 235.504624 177.19891 
L 236.111695 196.386797 
L 236.314053 206.787129 
L 236.921124 269.168441 
L 237.325839 285.110102 
L 237.528196 288.252946 
L 237.730553 286.123256 
L 238.135267 262.076366 
L 238.539982 240.20052 
L 239.349411 209.144262 
L 239.754125 199.095432 
L 240.15884 188.839837 
L 240.361197 188.591718 
L 240.563554 194.071018 
L 240.968268 211.749514 
L 241.170626 219.358504 
L 241.777697 275.123303 
L 242.182412 291.044287 
L 242.384769 293.546156 
L 242.587126 290.548049 
L 242.99184 265.736125 
L 243.396555 247.706127 
L 245.21777 172.75344 
L 245.420127 177.01282 
L 246.027199 203.913081 
L 246.836627 277.687201 
L 247.038985 286.081902 
L 247.241342 289.266099 
L 247.443699 286.722877 
L 247.848413 263.068843 
L 249.467271 150.629474 
L 249.669628 142.524246 
L 249.871985 140.580645 
L 250.074343 140.746058 
L 250.2767 147.714073 
L 250.883772 179.948898 
L 251.6932 255.211734 
L 252.097915 269.788739 
L 252.300272 272.869553 
L 252.502629 273.138349 
L 252.704986 269.251147 
L 253.109701 236.375348 
L 253.91913 162.8907 
L 254.323844 147.031745 
L 254.728558 138.182159 
L 254.930916 136.920886 
L 255.133273 144.44717 
L 255.740345 182.057911 
L 256.549773 257.54819 
L 256.954488 273.076319 
L 257.156845 276.901491 
L 257.359202 278.576295 
L 257.561559 277.604495 
L 257.966274 248.615897 
L 258.573345 198.040926 
L 258.97806 176.289139 
L 259.382774 165.227156 
L 259.585131 161.774164 
L 259.787489 161.339955 
L 259.989846 163.965883 
L 260.39456 180.010928 
L 260.596917 193.409367 
L 261.203989 255.625266 
L 261.608704 274.399622 
L 261.811061 277.335699 
L 262.013418 276.549988 
L 262.418132 252.503099 
L 262.62049 240.448639 
L 263.025204 230.751312 
L 263.227561 227.939294 
L 263.429918 226.92614 
L 263.834633 228.20809 
L 264.03699 227.897941 
L 264.239347 228.849065 
L 264.441704 228.931771 
L 264.644062 228.662975 
L 264.846419 230.709959 
L 265.048776 234.762573 
L 265.251133 234.762573 
L 265.45349 238.794511 
L 266.060562 281.40899 
L 266.465277 294.290514 
L 266.667634 295.841259 
L 266.869991 291.643909 
L 267.072348 283.66274 
L 267.477063 257.072628 
L 268.084134 234.824603 
L 268.488849 224.506978 
L 269.09592 213.217552 
L 269.500635 209.247645 
L 269.702992 211.439365 
L 269.905349 215.05777 
L 270.107706 215.740098 
L 270.310063 222.067139 
L 270.917135 271.091365 
L 271.32185 283.104472 
L 271.524207 285.254838 
L 271.726564 283.53868 
L 274.15485 141.469739 
L 274.357208 134.274281 
L 274.559565 137.623891 
L 275.166636 162.870024 
L 275.976065 244.728696 
L 276.38078 257.341424 
L 276.583137 256.638419 
L 276.987851 234.72122 
L 277.392566 205.711945 
L 278.404352 148.561814 
L 278.606709 145.501677 
L 279.011423 132.227297 
L 279.213781 130.614522 
L 279.416138 134.894579 
L 280.023209 176.764701 
L 280.630281 248.367778 
L 281.034995 271.236101 
L 281.237353 276.136456 
L 281.43971 274.585711 
L 281.642067 268.672202 
L 282.249139 226.760728 
L 282.85621 192.995834 
L 283.867996 150.050529 
L 284.070354 148.851286 
L 284.272711 157.039221 
L 285.284497 240.427962 
L 285.689211 272.724817 
L 286.093926 287.529265 
L 286.296283 289.824368 
L 286.49864 288.004827 
L 286.700997 285.048072 
L 287.105712 253.909108 
L 287.712783 202.15557 
L 288.522212 158.548613 
L 288.724569 151.394509 
L 288.926927 149.450908 
L 289.129284 153.048637 
L 289.736355 186.99962 
L 290.545784 257.3621 
L 290.950499 272.70414 
L 291.152856 275.495482 
L 291.355213 275.578188 
L 291.55757 274.089473 
L 291.759927 261.559451 
L 292.771714 162.477168 
L 293.176428 140.394556 
L 293.581142 129.10513 
L 293.7835 127.368296 
L 293.985857 130.903995 
L 294.592928 156.542983 
L 295.402357 240.179843 
L 295.807072 254.942938 
L 296.009429 254.777525 
L 296.414143 234.390394 
L 297.830644 98.66917 
L 298.235358 85.291408 
L 298.437715 82.686156 
L 298.640073 82.954952 
L 298.84243 85.022612 
L 299.044787 93.107164 
L 299.449501 120.234868 
L 300.056573 199.695054 
L 300.461287 225.085923 
L 300.663645 231.144168 
L 300.866002 231.867849 
L 301.068359 225.003216 
L 301.473073 194.774022 
L 302.484859 88.847784 
L 302.687217 77.454975 
L 302.889574 77.558358 
L 303.091931 85.70494 
L 303.496646 94.40979 
L 303.90136 116.802551 
L 304.306074 144.922732 
L 304.913146 214.582208 
L 305.31786 240.097137 
L 305.520218 245.700496 
L 305.722575 243.901632 
L 305.924932 236.72685 
L 306.532004 196.510857 
L 307.54379 126.044993 
L 307.746147 115.768721 
L 307.948504 114.879627 
L 308.757933 147.362571 
L 309.162647 173.601181 
L 309.769719 237.016323 
L 310.174433 257.031275 
L 310.376791 261.456068 
L 310.579148 260.877123 
L 310.983862 237.305795 
L 312.198005 132.5788 
L 312.60272 120.875842 
L 312.805077 116.471726 
L 313.007434 117.029994 
L 313.209791 120.751783 
L 313.816863 148.520461 
L 314.01922 162.291079 
L 314.626292 225.292689 
L 315.031006 245.927939 
L 315.233364 250.538821 
L 315.435721 249.87717 
L 315.840435 230.978755 
L 316.24515 212.142369 
L 316.649864 200.046556 
L 317.054578 184.642487 
L 317.66165 177.07485 
L 317.864007 176.619965 
L 318.066364 175.710194 
L 318.268722 180.42446 
L 318.875793 202.713838 
L 319.685222 261.704187 
L 320.089937 274.565034 
L 320.292294 276.219163 
L 320.697008 268.237994 
L 321.101723 241.833971 
L 322.315866 163.386939 
L 322.72058 153.069314 
L 322.922937 150.732857 
L 323.125295 154.888855 
L 323.732366 182.698886 
L 324.541795 251.696711 
L 324.94651 266.087627 
L 325.148867 269.003028 
L 325.351224 269.065058 
L 325.553581 266.790632 
L 325.755938 254.38467 
L 326.970082 141.22162 
L 327.172439 134.853226 
L 327.374796 133.261128 
L 327.77951 127.657768 
L 327.981868 132.682183 
L 328.184225 141.531769 
L 328.791296 193.533426 
L 329.196011 237.553915 
L 329.398368 252.895954 
L 329.803083 263.068843 
L 330.00544 262.117719 
L 330.207797 256.473007 
L 330.814869 207.63487 
L 331.42194 169.155711 
L 331.826655 146.328741 
L 332.029012 143.41334 
L 332.231369 143.434016 
L 332.433726 143.620106 
L 332.636083 145.729119 
L 332.838441 150.298649 
L 333.243155 173.373738 
L 333.445512 182.450767 
L 334.052584 248.615897 
L 334.457298 270.553773 
L 334.659655 276.012397 
L 334.862013 273.593234 
L 335.266727 253.619635 
L 335.671442 229.097184 
L 336.48087 188.715778 
L 336.683228 183.608657 
L 336.885585 182.49212 
L 337.087942 176.268462 
L 337.290299 174.407568 
L 337.695014 180.920698 
L 338.099728 195.477027 
L 338.302085 201.390535 
L 339.111514 267.659049 
L 339.313871 273.903383 
L 339.516228 276.157133 
L 339.718586 272.063165 
L 340.1233 248.553867 
L 340.932729 203.789021 
L 342.349229 141.614475 
L 342.551587 141.531769 
L 343.158658 166.385046 
L 343.76573 229.572746 
L 344.170444 247.706127 
L 344.372801 252.503099 
L 344.575159 250.352732 
L 344.777516 243.384717 
L 345.18223 212.287105 
L 346.194016 129.084454 
L 346.598731 114.217976 
L 347.003445 107.56011 
L 347.205802 106.712369 
L 347.40816 109.917243 
L 347.610517 117.815705 
L 348.015231 144.095668 
L 348.82466 235.837756 
L 349.229374 253.061367 
L 349.431732 252.296333 
L 349.634089 246.465531 
L 349.836446 235.258812 
L 351.050589 130.118284 
L 351.455304 111.633401 
L 351.860018 102.721785 
L 352.062375 101.812014 
L 352.264733 105.471773 
L 352.46709 116.637139 
L 353.276519 200.294675 
L 353.681233 238.484362 
L 354.085947 258.809463 
L 354.288305 264.12335 
L 354.490662 264.702295 
L 354.693019 262.448545 
L 355.097733 220.123538 
L 355.704805 145.791149 
L 356.109519 120.917195 
L 356.716591 102.597725 
L 356.918948 101.501865 
L 357.121306 106.34019 
L 357.52602 132.144591 
L 357.728377 144.922732 
L 358.740163 241.068937 
L 359.144878 254.13655 
L 359.347235 256.018121 
L 359.549592 255.687296 
L 359.751949 241.585852 
L 360.763735 120.110808 
L 361.16845 100.902244 
L 361.573164 89.716201 
L 361.775521 87.400422 
L 361.977879 90.708678 
L 362.180236 97.7594 
L 362.58495 123.729214 
L 363.394379 213.114169 
L 363.799093 230.896048 
L 364.001451 231.723112 
L 364.203808 225.788927 
L 364.406165 215.657392 
L 365.013237 145.563707 
L 365.620308 80.515113 
L 366.025023 64.221949 
L 366.429737 57.998292 
L 366.632094 58.49453 
L 366.834451 61.161812 
L 367.036809 69.949368 
L 367.441523 99.372175 
L 368.048595 179.638749 
L 368.453309 210.405534 
L 368.655666 219.007001 
L 368.858024 221.405487 
L 369.060381 217.476933 
L 369.262738 207.531487 
L 369.86981 143.47537 
L 370.476881 84.815846 
L 370.881596 68.047121 
L 371.083953 67.592236 
L 371.28631 68.315917 
L 371.488667 72.285825 
L 371.691024 78.571512 
L 372.298096 117.898411 
L 373.107525 203.664962 
L 373.512239 226.099076 
L 373.714597 230.503193 
L 374.119311 229.800188 
L 374.321668 216.939341 
L 375.333454 112.150316 
L 375.738169 98.772553 
L 375.940526 96.043242 
L 376.142883 94.926705 
L 376.34524 100.157886 
L 376.749955 126.644615 
L 377.559383 186.110526 
L 377.964098 221.095338 
L 378.368812 235.031369 
L 378.57117 235.258812 
L 378.773527 229.262597 
L 378.975884 217.931818 
L 380.392384 100.137209 
L 380.797099 90.109057 
L 381.201813 82.438037 
L 381.40417 86.242532 
L 382.011242 123.646507 
L 382.820671 207.366074 
L 383.225385 223.638561 
L 383.427743 224.300212 
L 383.6301 218.903618 
L 384.034814 196.428151 
L 385.0466 122.219821 
L 385.451315 105.347713 
L 385.653672 104.872151 
L 385.856029 108.697323 
L 386.058386 116.409696 
L 387.070172 187.144356 
L 387.474887 227.691175 
L 387.879601 249.81514 
L 388.284316 259.057582 
L 388.68903 261.600804 
L 388.891387 255.790679 
L 389.700816 211.77019 
L 390.307888 200.439412 
L 390.914959 187.557888 
L 391.117316 192.396213 
L 391.926745 232.40544 
L 392.533817 277.08758 
L 392.938531 289.596925 
L 393.140888 291.478496 
L 393.343246 291.023611 
L 393.545603 291.499172 
L 393.74796 282.44282 
L 394.355032 240.820818 
L 395.569175 183.71204 
L 395.771532 177.633118 
L 395.973889 178.853038 
L 396.176247 187.268415 
L 396.783318 229.779512 
L 397.188033 268.734232 
L 397.592747 286.76423 
L 397.795104 289.576248 
L 397.997461 287.01235 
L 398.402176 268.672202 
L 400.628105 139.608845 
L 400.830462 142.482893 
L 401.03282 152.552398 
L 401.639891 210.240122 
L 402.044606 255.087674 
L 402.44932 275.640218 
L 402.651677 279.692832 
L 402.854034 278.018027 
L 403.258749 259.61585 
L 403.663463 230.875372 
L 404.877607 123.62583 
L 405.282321 102.866521 
L 405.484678 98.607141 
L 405.687035 99.703001 
L 405.889393 110.330775 
L 406.294107 148.127605 
L 406.901179 226.429902 
L 407.305893 250.766264 
L 407.50825 256.431653 
L 407.710607 255.894062 
L 408.115322 234.411071 
L 409.73418 100.612771 
L 409.936537 95.62971 
L 410.138894 95.484973 
L 410.341251 100.137209 
L 410.948323 136.652091 
L 411.15068 152.738488 
L 411.757752 224.134799 
L 412.162466 248.471161 
L 412.364823 255.025644 
L 412.56718 256.824509 
L 412.971895 238.567068 
L 414.388395 139.360726 
L 414.79311 125.672814 
L 415.197824 118.932242 
L 415.400181 125.776197 
L 416.20961 189.025927 
L 416.614325 234.762573 
L 417.019039 258.085782 
L 417.221396 262.386515 
L 417.423753 261.828247 
L 417.828468 245.49373 
L 419.244968 146.680243 
L 419.649683 132.930302 
L 419.85204 129.063777 
L 420.054397 130.511139 
L 420.256754 139.257343 
L 421.066183 205.19503 
L 421.673255 260.815093 
L 422.077969 277.046227 
L 422.280326 279.548096 
L 422.482684 278.886444 
L 422.685041 278.721032 
L 423.089755 247.68545 
L 423.899184 178.005297 
L 424.708613 138.347572 
L 424.91097 135.142699 
L 425.113327 139.174636 
L 425.518042 165.516629 
L 425.720399 177.405676 
L 426.529828 252.606482 
L 426.934542 271.318808 
L 427.136899 275.826307 
L 427.339257 276.632695 
L 427.541614 276.860137 
L 427.743971 268.196641 
L 428.148685 227.546439 
L 428.755757 165.20648 
L 429.160471 139.381402 
L 429.565186 131.069408 
L 429.9699 135.018639 
L 430.374615 151.353155 
L 430.576972 163.07679 
L 431.386401 239.600898 
L 431.791115 251.924154 
L 431.993472 249.87717 
L 432.398187 229.428009 
L 433.207616 163.883177 
L 434.017044 93.024458 
L 434.219402 88.103426 
L 435.02883 115.706691 
L 435.433545 140.870118 
L 436.040617 212.555901 
L 436.445331 235.238135 
L 436.647688 240.407286 
L 436.850045 239.724958 
L 437.25476 218.986325 
L 437.659474 183.836099 
L 438.468903 109.875889 
L 438.67126 100.075179 
L 438.873617 101.04698 
L 439.075975 108.201084 
L 439.278332 107.746199 
L 439.480689 109.999949 
L 439.885403 128.670922 
L 440.290118 153.586229 
L 440.897189 227.484409 
L 441.301904 249.9392 
L 441.504261 255.397823 
L 441.706618 255.935415 
L 442.111333 241.11029 
L 442.920762 188.757131 
L 443.527833 153.668935 
L 444.134905 130.779935 
L 444.337262 128.174683 
L 444.539619 134.625783 
L 445.146691 179.969574 
L 445.753762 249.587698 
L 446.158477 270.925952 
L 446.360834 275.909014 
L 446.563191 273.903383 
L 446.967906 254.880908 
L 448.586763 144.405817 
L 448.991478 131.131437 
L 449.193835 128.794981 
L 449.396192 135.494201 
L 450.003264 176.123726 
L 450.812693 256.659096 
L 451.217407 270.036858 
L 451.419764 270.160918 
L 451.824479 252.875278 
L 452.43155 202.15557 
L 453.038622 159.995976 
L 453.443336 142.855072 
L 453.848051 134.935932 
L 454.050408 138.326895 
L 454.252765 148.375725 
L 454.65748 176.95079 
L 454.859837 185.448874 
L 455.669266 250.559498 
L 456.07398 264.18538 
L 456.276337 265.715448 
L 456.478694 263.709818 
L 456.681052 260.587651 
L 456.883409 252.544452 
L 457.288123 225.375395 
L 457.692838 214.354766 
L 457.895195 215.05777 
L 458.299909 220.847219 
L 458.502267 220.702483 
L 458.906981 216.856635 
L 459.109338 217.394226 
L 459.514053 221.5709 
L 459.71641 225.89231 
L 460.728196 283.931536 
L 461.13291 288.377005 
L 461.537625 285.048072 
L 461.739982 276.074426 
L 462.144696 241.379086 
L 463.561197 171.822993 
L 463.763554 164.524152 
L 463.965911 165.702718 
L 464.572983 185.283461 
L 465.382412 252.627158 
L 465.584769 259.574497 
L 465.787126 262.303809 
L 465.989483 259.863969 
L 467.608341 166.819255 
L 468.620127 145.522353 
L 468.822484 148.665197 
L 469.429556 175.048543 
L 470.036627 232.074615 
L 470.441342 249.959876 
L 470.643699 252.606482 
L 470.846056 250.021906 
L 471.857842 198.826637 
L 472.869628 168.411353 
L 473.071985 168.907592 
L 473.274343 167.108727 
L 473.4767 168.37 
L 473.679057 172.174495 
L 473.881414 178.791008 
L 474.083772 179.948898 
L 474.286129 187.661271 
L 474.8932 240.055784 
L 475.297915 256.3903 
L 475.500272 258.065105 
L 475.702629 256.018121 
L 476.107344 231.516346 
L 476.512058 209.392381 
L 477.321487 177.736501 
L 477.726201 157.47343 
L 477.928558 153.896378 
L 478.333273 158.610643 
L 478.53563 163.097466 
L 479.142702 188.157509 
L 479.952131 256.286917 
L 480.356845 266.19101 
L 480.559202 265.777478 
L 480.963917 243.570806 
L 482.785131 114.507448 
L 482.987489 108.573263 
L 483.189846 105.926658 
L 483.392203 111.592047 
L 483.999275 151.663305 
L 484.606346 223.142322 
L 485.011061 246.486207 
L 485.213418 250.911 
L 485.415775 251.862124 
L 485.82049 231.991908 
L 486.225204 200.625501 
L 487.23699 110.186038 
L 487.439347 107.084548 
L 487.844062 113.680384 
L 488.248776 132.39271 
L 489.260562 210.322828 
L 489.665277 242.640359 
L 490.069991 257.816986 
L 490.272348 260.174118 
L 490.474705 259.036905 
L 490.677063 257.258717 
L 490.87942 247.478684 
L 491.891206 167.356846 
L 492.29592 149.554291 
L 492.498277 142.13139 
L 492.700635 140.105083 
L 492.902992 141.738535 
L 493.105349 146.57686 
L 493.712421 180.259047 
L 494.52185 252.606482 
L 495.128921 270.967305 
L 495.331278 271.112042 
L 495.533636 270.491744 
L 495.735993 262.90343 
L 496.950136 170.954575 
L 497.557208 146.473477 
L 497.759565 143.103191 
L 497.961922 146.328741 
L 498.568994 177.98462 
L 499.378422 252.151596 
L 499.58078 259.016229 
L 499.783137 261.518098 
L 499.985494 258.189165 
L 500.187851 249.629051 
L 500.794923 212.535225 
L 500.99728 207.407427 
L 501.401995 194.257107 
L 501.806709 182.947005 
L 502.009066 182.49212 
L 502.211423 184.55978 
L 502.413781 185.200755 
L 502.616138 183.52595 
L 503.020852 193.285307 
L 503.223209 193.843575 
L 503.425567 201.390535 
L 504.032638 252.317009 
L 504.437353 265.446652 
L 504.63971 267.080104 
L 504.842067 264.702295 
L 505.246782 240.221196 
L 505.651496 216.298366 
L 507.270354 142.813718 
L 507.472711 139.691551 
L 507.675068 143.103191 
L 508.28214 171.264724 
L 508.889211 229.552069 
L 509.293926 246.755003 
L 509.496283 250.290702 
L 509.69864 248.450484 
L 510.103354 224.79645 
L 511.722212 117.939765 
L 512.126927 100.095856 
L 512.329284 101.687954 
L 512.936355 136.217882 
L 513.34107 175.338015 
L 513.745784 219.007001 
L 514.150499 241.833971 
L 514.352856 247.437331 
L 514.555213 247.933569 
L 514.75757 239.001277 
L 516.174071 141.800565 
L 516.376428 140.704705 
L 516.781142 150.071206 
L 516.9835 147.321218 
L 517.185857 147.85881 
L 517.590571 165.640688 
L 517.792928 169.900069 
L 517.995286 180.651902 
L 518.4 220.495717 
L 518.4 220.495717 
" clip-path="url(#p50ab7e8cc3)" style="fill: none; stroke: #1f77b4; stroke-width: 1.5; stroke-linecap: square"/>
   </g>
   <g id="line2d_14">
    <path d="M 72 282.849478 
L 72.202357 282.849478 
L 72.607072 290.944064 
L 72.809429 291.739683 
L 73.011786 285.723011 
L 73.821215 240.467886 
L 74.225929 223.758595 
L 75.440073 165.26545 
L 75.64243 169.539237 
L 76.047144 186.288663 
L 77.05893 273.160578 
L 77.261287 282.674015 
L 77.463645 285.771913 
L 77.666002 280.366616 
L 78.475431 229.033752 
L 78.880145 214.610972 
L 79.689574 166.588948 
L 80.094288 154.245716 
L 80.296646 156.495376 
L 81.915503 273.884069 
L 82.11786 279.435272 
L 82.320218 281.075021 
L 82.927289 269.324894 
L 83.939075 230.421396 
L 84.141432 226.262054 
L 84.34379 228.133607 
L 84.748504 236.687415 
L 84.950861 236.939007 
L 85.153218 237.757305 
L 86.165005 268.903366 
L 86.772076 300.541254 
L 86.974433 304.351106 
L 87.176791 303.052568 
L 87.581505 293.584414 
L 88.795648 255.77778 
L 88.998005 253.185264 
L 89.200363 255.500212 
L 89.40272 254.414313 
L 89.605077 252.000023 
L 90.212149 241.511478 
L 90.414506 239.586423 
L 90.616863 242.243109 
L 90.81922 250.860104 
L 91.426292 298.48225 
L 91.628649 307.013043 
L 91.831006 307.8 
L 92.033364 303.107536 
L 92.438078 284.15534 
L 92.842792 251.661444 
L 93.04515 248.338829 
L 93.247507 248.229181 
L 93.652221 243.891287 
L 93.854578 245.69304 
L 94.056936 244.872638 
L 94.664007 229.33038 
L 94.866364 229.738667 
L 95.068722 231.096209 
L 95.473436 241.659715 
L 95.675793 251.970271 
L 96.282865 298.354602 
L 96.485222 303.713874 
L 96.687579 303.336857 
L 96.889937 297.646567 
L 97.901723 248.485332 
L 98.10408 248.711035 
L 98.306437 248.04309 
L 99.52058 225.214074 
L 99.722937 223.423953 
L 100.127652 232.518872 
L 100.532366 253.076646 
L 101.139438 295.235619 
L 101.341795 300.647944 
L 101.544152 301.303202 
L 101.74651 297.151637 
L 102.151224 275.714744 
L 102.555938 250.933588 
L 102.758296 248.351095 
L 102.960653 249.247324 
L 103.365367 246.364665 
L 104.377153 221.423316 
L 104.57951 219.502379 
L 104.781868 222.361286 
L 104.984225 228.604535 
L 105.591296 266.555293 
L 105.996011 292.329081 
L 106.198368 297.658714 
L 106.400725 298.996413 
L 106.603083 296.001279 
L 107.007797 274.335945 
L 107.412511 249.924426 
L 107.614869 245.727018 
L 107.817226 246.553092 
L 108.019583 245.703924 
L 108.22194 240.921835 
L 109.031369 205.82553 
L 109.233726 204.157862 
L 109.638441 213.884713 
L 109.840798 221.318854 
L 111.054941 293.652397 
L 111.257298 295.69708 
L 111.459655 293.460691 
L 111.86437 274.198304 
L 112.269084 250.362058 
L 113.078513 218.232208 
L 113.685585 188.629585 
L 114.090299 179.36304 
L 114.292656 181.28174 
L 114.899728 210.398403 
L 115.709157 273.270722 
L 116.113871 283.066388 
L 116.316228 285.556536 
L 116.9233 272.426849 
L 117.530372 235.628058 
L 118.542158 158.630577 
L 118.744515 156.493938 
L 119.149229 148.978871 
L 119.351587 156.857119 
L 120.970444 276.350896 
L 121.172801 280.763914 
L 121.577516 278.149616 
L 121.779873 273.715558 
L 121.98223 264.233462 
L 122.589302 221.964366 
L 122.791659 215.61775 
L 123.196374 196.314237 
L 123.398731 191.975774 
L 123.601088 192.238758 
L 124.005802 199.214102 
L 124.410517 209.948715 
L 124.612874 219.073901 
L 125.62466 291.764039 
L 125.827017 295.773868 
L 126.029374 294.072078 
L 126.231732 286.153075 
L 126.636446 255.208091 
L 127.04116 229.686977 
L 127.648232 204.950474 
L 128.660018 149.819604 
L 128.862375 152.626555 
L 129.26709 183.967385 
L 130.278876 280.709127 
L 130.481233 285.689328 
L 130.68359 287.174993 
L 131.088305 275.219638 
L 131.493019 251.156025 
L 131.897733 220.038952 
L 132.302448 199.50687 
L 132.909519 153.619657 
L 133.314234 140.582573 
L 133.516591 137.781513 
L 133.718948 141.073503 
L 134.32602 178.363212 
L 134.528377 196.769756 
L 134.933092 243.437865 
L 135.337806 267.376248 
L 135.540163 273.325565 
L 135.74252 271.715373 
L 135.944878 264.24912 
L 136.956664 198.056615 
L 137.159021 199.992582 
L 137.361378 194.83075 
L 137.563735 192.843535 
L 137.766092 189.347044 
L 137.96845 188.580828 
L 138.777879 201.252447 
L 139.182593 217.238205 
L 140.194379 280.540233 
L 140.396736 282.686451 
L 140.599093 278.19944 
L 141.003808 258.576021 
L 141.408522 231.415004 
L 141.610879 224.440922 
L 141.813237 222.9531 
L 142.622665 207.133956 
L 142.825023 208.182545 
L 143.02738 207.11741 
L 143.229737 207.19057 
L 143.432094 207.128499 
L 144.039166 226.712704 
L 144.848595 276.309846 
L 145.253309 284.248671 
L 145.658024 270.063264 
L 146.467452 222.908785 
L 146.66981 220.9931 
L 147.074524 214.948684 
L 147.276881 212.715747 
L 147.681596 206.480329 
L 148.08631 214.749255 
L 148.491024 222.448657 
L 149.300453 257.881163 
L 149.705168 278.970627 
L 150.109882 286.41611 
L 150.312239 284.152212 
L 151.526383 241.038901 
L 151.72874 238.380908 
L 152.133454 228.273679 
L 152.335811 227.186825 
L 152.942883 235.568147 
L 153.549955 237.015801 
L 153.752312 239.759914 
L 153.954669 244.177429 
L 154.764098 282.943946 
L 154.966455 286.215656 
L 155.168812 287.186185 
L 155.37117 284.544252 
L 155.775884 273.383561 
L 155.978241 264.477033 
L 156.990027 194.131381 
L 157.394742 178.031359 
L 157.799456 166.220447 
L 158.001813 162.529194 
L 158.20417 164.193236 
L 158.811242 199.194522 
L 159.418314 263.754158 
L 159.620671 275.577028 
L 159.823028 280.432363 
L 160.025385 278.955754 
L 160.227743 272.401965 
L 160.632457 245.488842 
L 161.239529 200.49639 
L 161.644243 187.20792 
L 162.251315 172.120034 
L 162.453672 172.340266 
L 162.656029 174.4708 
L 163.060743 192.637327 
L 163.667815 224.254043 
L 164.274887 273.86034 
L 164.679601 287.026668 
L 164.881958 282.278306 
L 165.48903 246.138755 
L 165.893744 225.363853 
L 166.096102 221.195882 
L 166.298459 220.149155 
L 166.500816 214.33228 
L 166.90553 190.318939 
L 167.310245 171.174125 
L 167.512602 166.054555 
L 167.714959 169.993525 
L 168.929102 258.495886 
L 169.333817 275.014159 
L 169.536174 277.506982 
L 169.738531 277.259686 
L 170.143246 257.289347 
L 171.357389 173.949215 
L 171.964461 155.996859 
L 172.166818 155.276389 
L 172.369175 152.665257 
L 172.571532 157.596839 
L 173.380961 211.711622 
L 173.988033 272.332501 
L 174.19039 281.341234 
L 174.392747 283.225409 
L 174.595104 280.288673 
L 174.797461 273.342536 
L 175.202176 247.391312 
L 175.60689 222.013204 
L 175.809248 217.444052 
L 176.213962 197.115417 
L 176.618676 176.006359 
L 177.023391 167.720979 
L 177.225748 164.728665 
L 177.428105 167.145793 
L 177.630462 175.728483 
L 178.439891 243.697791 
L 178.844606 276.474174 
L 179.046963 284.889188 
L 179.24932 287.66792 
L 179.451677 285.413141 
L 179.856392 266.710345 
L 181.677607 155.604046 
L 182.082321 150.1694 
L 182.284678 148.803728 
L 182.689393 174.480228 
L 183.094107 206.994573 
L 183.498821 243.835382 
L 183.903536 262.662072 
L 184.30825 266.311188 
L 184.510607 262.479819 
L 184.712965 261.291595 
L 184.915322 256.626169 
L 185.117679 244.563213 
L 185.927108 160.602487 
L 186.331822 135.991204 
L 186.53418 135.001518 
L 187.343608 171.691465 
L 188.962466 265.992682 
L 189.164823 268.779994 
L 189.36718 265.663989 
L 189.771895 252.023563 
L 189.974252 241.553389 
L 190.986038 162.26484 
L 191.390752 149.894206 
L 191.59311 153.458495 
L 192.200181 177.937997 
L 193.616682 267.814879 
L 193.819039 272.534739 
L 194.021396 273.454169 
L 194.426111 263.119739 
L 194.830825 245.715556 
L 195.842611 182.54469 
L 196.044968 185.035117 
L 196.65204 205.424151 
L 196.854397 207.194752 
L 197.461469 219.364648 
L 197.866183 242.988394 
L 198.270898 274.746332 
L 198.473255 283.986439 
L 198.675612 287.253891 
L 198.877969 282.692518 
L 199.282684 259.976658 
L 199.687398 223.928787 
L 200.092112 205.592233 
L 200.496827 194.818341 
L 201.508613 163.653763 
L 201.71097 163.431257 
L 202.318042 193.408211 
L 203.329828 270.333044 
L 203.532185 273.367533 
L 203.734542 268.739798 
L 204.139257 246.723223 
L 204.746328 205.108801 
L 205.151043 191.106078 
L 205.758114 168.431192 
L 205.960471 164.495476 
L 206.162829 165.344455 
L 206.365186 168.822058 
L 206.567543 174.772405 
L 206.972257 194.361462 
L 207.174615 201.262815 
L 207.376972 212.557994 
L 207.781686 246.244899 
L 208.186401 267.081521 
L 208.388758 270.218334 
L 208.591115 267.703811 
L 208.99583 245.220588 
L 209.602901 204.595044 
L 210.614687 163.170282 
L 211.019402 142.895599 
L 211.221759 136.865393 
L 211.424116 139.115305 
L 212.435902 220.256879 
L 212.840617 250.513133 
L 213.245331 261.451187 
L 213.447688 260.888406 
L 213.650045 254.486082 
L 214.459474 202.317054 
L 215.268903 144.140645 
L 215.673617 120.221946 
L 216.078332 112.849557 
L 216.280689 116.385276 
L 216.887761 160.408765 
L 217.292475 195.52492 
L 217.697189 231.252569 
L 218.101904 251.311691 
L 218.304261 252.725537 
L 218.708976 247.03977 
L 218.911333 243.805323 
L 219.316047 215.22263 
L 220.327833 141.336689 
L 220.53019 141.159524 
L 220.732548 148.584218 
L 221.541976 200.799529 
L 221.946691 219.448136 
L 222.351405 246.225353 
L 222.958477 271.787073 
L 223.160834 273.598065 
L 223.363191 270.785028 
L 223.970263 247.472515 
L 224.577335 215.606726 
L 224.779692 214.479017 
L 224.982049 214.664681 
L 225.184406 215.370299 
L 225.386763 217.550659 
L 225.589121 217.214526 
L 225.993835 226.799229 
L 226.398549 236.12292 
L 226.600907 238.919449 
L 227.005621 257.210348 
L 227.612693 297.403021 
L 227.81505 299.58647 
L 228.017407 296.093976 
L 228.219764 288.427619 
L 229.029193 240.801252 
L 229.433908 236.607007 
L 229.838622 224.558127 
L 230.850408 187.670264 
L 231.052765 191.535627 
L 231.45748 211.961072 
L 231.862194 244.454815 
L 232.266908 281.265571 
L 232.469266 289.47542 
L 232.671623 291.405274 
L 232.87398 287.044681 
L 233.278694 270.182942 
L 233.885766 234.436103 
L 234.492838 210.798648 
L 234.897552 190.045767 
L 235.302267 181.871451 
L 235.504624 181.264041 
L 235.706981 184.135456 
L 236.314053 212.562945 
L 237.325839 283.458994 
L 237.528196 286.532504 
L 237.730553 284.952145 
L 237.93291 278.029799 
L 238.944696 223.605905 
L 239.349411 209.637847 
L 239.754125 195.202361 
L 239.956482 192.893722 
L 240.15884 193.088426 
L 240.563554 194.267201 
L 240.968268 209.582934 
L 242.182412 287.574583 
L 242.384769 290.125754 
L 242.587126 287.29871 
L 242.99184 269.114453 
L 243.598912 236.267611 
L 244.003626 226.676853 
L 244.813055 187.018432 
L 245.015413 185.134474 
L 245.21777 181.546117 
L 245.420127 180.320223 
L 245.824841 196.855246 
L 246.229556 224.8898 
L 246.836627 271.964201 
L 247.241342 287.010552 
L 247.443699 285.67362 
L 247.848413 267.1375 
L 248.860199 200.382872 
L 249.669628 144.881339 
L 249.871985 142.203813 
L 250.074343 143.675541 
L 250.2767 147.51218 
L 251.086129 202.666893 
L 251.490843 239.306279 
L 252.097915 268.787022 
L 252.300272 269.741303 
L 252.502629 266.176003 
L 252.907344 255.467571 
L 253.109701 243.325378 
L 254.121487 151.168419 
L 254.323844 141.33922 
L 254.526201 137.22272 
L 255.133273 147.328244 
L 255.537987 172.11602 
L 255.942702 199.008717 
L 256.347416 238.389732 
L 256.752131 264.198554 
L 256.954488 271.244523 
L 257.156845 273.077886 
L 257.359202 271.348945 
L 257.763917 261.760536 
L 258.370988 219.025521 
L 258.97806 172.068187 
L 259.180417 162.898021 
L 259.382774 159.655849 
L 259.787489 164.283195 
L 259.989846 165.947376 
L 260.39456 182.313222 
L 260.596917 192.396329 
L 261.811061 280.838459 
L 262.013418 278.621327 
L 262.215775 272.45402 
L 263.227561 215.680071 
L 263.429918 215.279499 
L 263.632276 216.658692 
L 263.834633 220.442667 
L 264.03699 221.76933 
L 264.239347 222.206651 
L 264.441704 221.568847 
L 264.644062 222.529042 
L 264.846419 224.245249 
L 265.048776 227.360515 
L 265.655848 249.559173 
L 266.465277 290.761152 
L 266.667634 292.446285 
L 266.869991 288.738149 
L 267.477063 260.030251 
L 267.881777 241.436832 
L 268.286491 234.457367 
L 268.893563 219.316235 
L 269.09592 216.546767 
L 269.500635 214.944335 
L 269.702992 212.371542 
L 269.905349 216.268705 
L 270.512421 236.891519 
L 271.119492 276.666168 
L 271.32185 283.080293 
L 271.524207 284.76814 
L 271.726564 282.576777 
L 271.928921 275.253836 
L 272.73835 229.241354 
L 274.15485 152.835916 
L 274.559565 144.19074 
L 274.761922 150.00283 
L 275.368994 184.097508 
L 275.976065 244.186171 
L 276.38078 258.677479 
L 276.583137 257.1301 
L 276.785494 251.49873 
L 277.190209 228.485952 
L 277.79728 187.353152 
L 278.606709 140.173789 
L 278.809066 138.633287 
L 279.011423 136.149364 
L 279.213781 139.42341 
L 279.416138 138.150497 
L 279.820852 163.396261 
L 281.034995 264.939945 
L 281.237353 271.449336 
L 281.43971 268.495341 
L 281.642067 262.633576 
L 283.260925 169.514372 
L 283.463282 159.67189 
L 283.867996 151.166321 
L 284.070354 154.697084 
L 284.272711 155.059681 
L 284.677425 181.034406 
L 285.891568 274.277026 
L 286.093926 279.057175 
L 286.296283 280.057663 
L 286.49864 278.472814 
L 287.105712 254.921089 
L 288.117498 174.634306 
L 288.522212 157.780819 
L 288.724569 156.485415 
L 288.926927 156.218304 
L 289.129284 155.590135 
L 289.331641 161.930192 
L 289.938713 207.298037 
L 290.545784 254.953403 
L 290.950499 272.677047 
L 291.152856 273.807545 
L 291.355213 272.595121 
L 291.759927 262.958527 
L 291.962285 251.205108 
L 292.974071 152.335364 
L 293.176428 138.121562 
L 293.378785 132.467443 
L 293.581142 131.845109 
L 293.985857 136.559606 
L 294.188214 143.24939 
L 294.997643 198.644516 
L 295.402357 239.812986 
L 295.807072 260.733568 
L 296.009429 260.406119 
L 296.211786 255.773868 
L 296.6165 227.610065 
L 298.033001 93.728285 
L 298.235358 85.317931 
L 298.437715 84.035377 
L 298.84243 91.802425 
L 299.247144 115.636756 
L 299.651859 146.843425 
L 300.461287 232.50958 
L 300.663645 239.150732 
L 300.866002 235.385077 
L 301.270716 217.680418 
L 301.675431 185.213479 
L 302.080145 138.418036 
L 302.687217 77.762466 
L 302.889574 66.286975 
L 303.091931 64.598261 
L 303.699003 105.662901 
L 304.710789 187.30003 
L 305.31786 237.491349 
L 305.520218 244.552718 
L 305.722575 240.903037 
L 305.924932 233.392044 
L 306.532004 191.002067 
L 307.54379 125.182896 
L 307.948504 109.306515 
L 308.150861 113.859234 
L 308.96029 159.724535 
L 309.365005 188.464617 
L 309.769719 230.773416 
L 310.174433 252.736013 
L 310.376791 257.862152 
L 310.579148 257.002062 
L 310.983862 237.558308 
L 311.388577 207.385883 
L 312.198005 131.449313 
L 312.60272 114.923232 
L 312.805077 113.169571 
L 313.007434 115.792743 
L 313.412149 130.959903 
L 314.221578 180.880423 
L 314.828649 237.9847 
L 315.233364 249.321241 
L 315.435721 247.996996 
L 315.638078 242.069759 
L 316.447507 196.149598 
L 317.054578 181.959192 
L 317.256936 174.097948 
L 317.459293 170.682473 
L 317.66165 170.087221 
L 318.268722 180.218087 
L 318.875793 205.232751 
L 319.685222 255.938773 
L 320.089937 267.111586 
L 320.292294 266.365786 
L 320.697008 258.516756 
L 320.899365 253.626501 
L 321.30408 233.423399 
L 321.708794 208.288049 
L 322.315866 164.609539 
L 322.518223 156.237033 
L 322.922937 154.141061 
L 323.125295 155.696134 
L 323.327652 160.917212 
L 323.934723 197.286903 
L 324.744152 257.535317 
L 325.148867 265.987733 
L 325.351224 264.65462 
L 325.553581 261.240087 
L 325.755938 254.259406 
L 325.958296 243.036743 
L 327.172439 131.938716 
L 327.374796 126.722437 
L 327.577153 129.102943 
L 327.981868 137.817677 
L 328.184225 144.643891 
L 328.791296 187.257205 
L 329.600725 261.687328 
L 329.803083 267.572972 
L 330.00544 265.310116 
L 330.207797 259.282535 
L 330.410154 249.600211 
L 331.017226 195.114976 
L 331.42194 163.368576 
L 332.029012 136.806499 
L 332.231369 136.049388 
L 332.636083 147.625622 
L 333.040798 164.348935 
L 333.647869 201.540138 
L 334.254941 257.097114 
L 334.659655 272.668882 
L 334.862013 271.180711 
L 335.06437 263.845799 
L 335.671442 228.544096 
L 336.683228 178.309851 
L 337.087942 172.277736 
L 337.492656 177.401714 
L 337.695014 179.999732 
L 338.302085 207.330201 
L 339.313871 272.226495 
L 339.516228 275.249905 
L 339.718586 272.917716 
L 339.920943 264.656052 
L 340.730372 215.781994 
L 342.146872 154.698076 
L 342.551587 148.597483 
L 342.753944 154.370746 
L 343.361015 185.41226 
L 343.968087 241.665638 
L 344.170444 249.872667 
L 344.372801 253.047912 
L 344.575159 251.548869 
L 344.979873 234.676559 
L 345.384587 210.06291 
L 346.598731 112.053945 
L 346.801088 105.424863 
L 347.003445 107.951884 
L 347.610517 126.791688 
L 348.419946 184.57268 
L 348.82466 228.481551 
L 349.027017 242.362898 
L 349.229374 248.487003 
L 349.431732 249.417185 
L 349.634089 243.354665 
L 350.24116 205.629743 
L 351.252947 119.586347 
L 351.657661 102.935036 
L 351.860018 104.530405 
L 352.264733 111.061816 
L 352.46709 119.23005 
L 353.074161 170.306731 
L 353.88359 246.65075 
L 354.085947 252.484427 
L 354.288305 252.991769 
L 354.490662 251.469242 
L 355.097733 229.447844 
L 355.502448 182.575299 
L 356.109519 112.728817 
L 356.514234 99.495663 
L 356.716591 102.672603 
L 357.323663 117.873685 
L 357.930734 165.934714 
L 358.740163 241.801878 
L 358.94252 249.698629 
L 359.144878 250.463064 
L 359.347235 250.11306 
L 359.751949 238.322648 
L 359.954306 227.006108 
L 360.359021 174.824347 
L 360.966092 104.463491 
L 361.16845 93.678391 
L 361.370807 90.19148 
L 361.573164 91.849091 
L 361.775521 96.437371 
L 361.977879 97.259073 
L 362.180236 103.051191 
L 362.787307 146.864867 
L 363.596736 234.063225 
L 363.799093 241.01499 
L 364.001451 238.649162 
L 364.203808 231.723054 
L 364.810879 187.98681 
L 365.822665 68.251963 
L 366.025023 59.260859 
L 366.22738 55.8 
L 366.429737 57.793113 
L 367.036809 78.856587 
L 367.64388 126.383249 
L 368.250952 199.884361 
L 368.655666 223.694758 
L 369.060381 214.200387 
L 369.465095 196.169544 
L 369.86981 157.233351 
L 370.476881 84.815765 
L 370.881596 61.011914 
L 371.083953 57.775226 
L 371.28631 62.016347 
L 372.095739 108.098212 
L 372.905168 183.411845 
L 373.309882 214.981871 
L 373.512239 223.19066 
L 373.714597 222.349121 
L 373.916954 219.746918 
L 374.119311 213.145493 
L 374.321668 211.777158 
L 374.524025 201.341837 
L 374.92874 155.028968 
L 375.333454 107.106454 
L 375.738169 87.254606 
L 375.940526 85.859791 
L 376.142883 90.338422 
L 376.749955 115.878393 
L 377.964098 220.075382 
L 378.166455 230.89932 
L 378.368812 235.206272 
L 378.57117 234.424955 
L 378.773527 229.842984 
L 379.178241 208.001858 
L 380.392384 96.465006 
L 380.594742 91.216048 
L 380.797099 89.943644 
L 381.40417 93.943524 
L 381.606528 100.214437 
L 382.213599 144.342192 
L 383.023028 219.71379 
L 383.225385 225.709878 
L 383.427743 222.142744 
L 383.832457 210.196994 
L 384.034814 200.938565 
L 384.237171 186.22721 
L 384.237171 186.22721 
" clip-path="url(#p50ab7e8cc3)" style="fill: none; stroke: #ff7f0e; stroke-width: 1.5; stroke-linecap: square"/>
   </g>
   <g id="line2d_15">
    <path d="M 384.439529 169.883858 
L 385.0466 129.278984 
L 385.653672 104.416963 
L 385.856029 102.199498 
L 386.058386 105.113215 
L 386.463101 120.716525 
L 387.677244 215.307077 
L 388.081958 223.535844 
L 388.284316 222.347483 
L 388.68903 210.677039 
L 388.891387 204.271441 
L 389.903173 139.168132 
L 390.307888 117.210206 
L 390.510245 110.763371 
L 390.712602 108.950237 
L 390.914959 111.49026 
L 391.319674 127.62955 
L 391.724388 151.828368 
L 392.33146 191.735169 
L 392.736174 211.32227 
L 392.938531 214.951024 
L 393.140888 216.229094 
L 393.343246 214.531153 
L 393.545603 210.474466 
L 394.152675 183.776882 
L 394.962103 137.533464 
L 395.366818 125.765229 
L 395.569175 125.003746 
L 395.771532 127.522804 
L 395.973889 132.395285 
L 396.580961 161.353248 
L 397.592747 212.914574 
L 397.795104 217.044118 
L 397.997461 217.968493 
L 398.199819 216.518045 
L 398.604533 207.793794 
L 400.223391 138.288854 
L 400.425748 136.832432 
L 400.628105 138.60314 
L 401.03282 148.858024 
L 401.639891 176.525257 
L 402.44932 212.511223 
L 402.854034 218.087221 
L 403.056392 217.012948 
L 403.461106 208.968786 
L 403.86582 194.030758 
L 404.675249 160.536433 
L 405.079964 150.951006 
L 405.282321 149.83035 
L 405.484678 150.496586 
L 405.687035 153.766757 
L 406.09175 166.030413 
L 407.50825 217.46063 
L 407.710607 218.978235 
L 407.912965 218.47178 
L 408.317679 212.66356 
L 408.924751 192.671621 
L 409.73418 166.093885 
L 409.936537 162.584929 
L 410.138894 161.013727 
L 410.341251 161.492033 
L 410.543608 163.702753 
L 410.948323 173.598281 
L 412.364823 218.311765 
L 412.56718 220.239726 
L 412.769538 219.979436 
L 413.174252 215.349506 
L 413.578966 206.103325 
L 414.590752 176.77563 
L 414.995467 171.908714 
L 415.197824 171.810302 
L 415.400181 173.514315 
L 415.804896 181.417495 
L 416.614325 205.049332 
L 417.221396 219.809134 
L 417.423753 221.441229 
L 417.626111 221.634415 
L 417.828468 220.610771 
L 418.233182 215.564863 
L 418.637897 207.114717 
L 419.447325 187.166801 
L 419.85204 182.297134 
L 420.054397 181.990793 
L 420.256754 182.803771 
L 420.459112 185.24508 
L 421.066183 198.188199 
L 421.875612 218.327999 
L 422.280326 222.34962 
L 422.482684 222.552247 
L 422.685041 221.816079 
L 422.887398 220.578715 
L 423.292112 215.834648 
L 423.899184 204.694264 
L 424.506256 194.00838 
L 424.708613 192.31945 
L 424.91097 191.684877 
L 425.113327 192.201656 
L 425.315684 193.968989 
L 425.720399 200.13844 
L 426.934542 221.902697 
L 427.136899 222.91916 
L 427.339257 223.111505 
L 427.541614 222.592149 
L 428.148685 218.636603 
L 428.5534 214.670257 
L 429.565186 203.520914 
L 429.767543 202.812478 
L 429.9699 202.841272 
L 430.172257 204.088613 
L 430.981686 212.853303 
L 431.588758 221.391369 
L 431.791115 222.532683 
L 431.993472 222.951159 
L 432.19583 223.040607 
L 432.398187 222.719254 
L 433.409973 219.023997 
L 434.219402 214.972829 
L 434.624116 213.165655 
L 434.826473 212.80763 
L 435.02883 212.98144 
L 435.433545 214.04628 
L 435.838259 216.857425 
L 436.445331 221.647241 
L 436.647688 222.270323 
L 436.850045 222.529125 
L 437.052403 222.54432 
L 437.659474 221.7378 
L 437.861831 221.623915 
L 438.064189 221.357193 
L 438.873617 218.903875 
L 439.683046 216.035149 
L 439.885403 216.088267 
L 440.290118 216.55288 
L 440.492475 217.101074 
L 441.301904 220.862944 
L 441.706618 221.317449 
L 441.908976 221.321739 
L 443.123119 220.362276 
L 443.932548 218.563231 
L 444.337262 217.661662 
L 444.741976 217.244878 
L 444.944334 217.207614 
L 445.146691 217.306233 
L 445.551405 218.246985 
L 445.95612 219.497554 
L 446.360834 220.100832 
L 446.765549 220.259054 
L 447.170263 220.12928 
L 447.574977 220.173507 
L 447.979692 219.952182 
L 448.384406 219.52546 
L 448.789121 218.715874 
L 449.193835 217.928687 
L 449.598549 217.624286 
L 450.003264 217.549159 
L 450.205621 217.778843 
L 451.01505 219.380282 
L 451.419764 219.73972 
L 451.824479 219.786043 
L 452.836265 219.695749 
L 453.240979 219.282946 
L 454.050408 218.086498 
L 454.455122 217.809863 
L 454.859837 217.86553 
L 455.264551 218.38117 
L 455.871623 219.189944 
L 456.276337 219.471142 
L 457.288123 219.515756 
L 457.895195 219.308432 
L 458.299909 218.881612 
L 458.906981 218.227075 
L 459.311695 218.051705 
L 459.71641 218.08798 
L 460.323481 218.700871 
L 460.930553 219.172405 
L 461.537625 219.323797 
L 462.347053 219.321525 
L 462.751768 219.170611 
L 464.168268 218.161925 
L 464.572983 218.252284 
L 466.19184 219.194542 
L 467.001269 219.22348 
L 467.608341 219.040402 
L 469.024841 218.301723 
L 469.429556 218.385936 
L 471.048413 219.113591 
L 471.857842 219.122629 
L 472.464914 218.966164 
L 473.881414 218.422447 
L 474.488486 218.579026 
L 475.702629 219.031941 
L 476.714415 219.064184 
L 477.523844 218.854969 
L 478.53563 218.525722 
L 479.142702 218.587816 
L 480.761559 219.025672 
L 481.773345 218.990894 
L 483.999275 218.661435 
L 485.82049 219.002821 
L 486.832276 218.927131 
L 488.451133 218.668374 
L 489.462919 218.846968 
L 490.677063 218.975783 
L 491.891206 218.877762 
L 493.307706 218.72058 
L 496.545422 218.896866 
L 498.366636 218.775128 
L 500.794923 218.927486 
L 504.032638 218.877709 
L 505.853853 218.905788 
L 508.686854 218.869201 
L 510.710426 218.896511 
L 513.745784 218.882874 
L 516.376428 218.861503 
L 518.4 218.876679 
L 518.4 218.876679 
" clip-path="url(#p50ab7e8cc3)" style="fill: none; stroke: #2ca02c; stroke-width: 1.5; stroke-linecap: square"/>
   </g>
   <g id="patch_3">
    <path d="M 72 320.4 
L 72 43.2 
" style="fill: none; stroke: #000000; stroke-width: 0.8; stroke-linejoin: miter; stroke-linecap: square"/>
   </g>
   <g id="patch_4">
    <path d="M 518.4 320.4 
L 518.4 43.2 
" style="fill: none; stroke: #000000; stroke-width: 0.8; stroke-linejoin: miter; stroke-linecap: square"/>
   </g>
   <g id="patch_5">
    <path d="M 72 320.4 
L 518.4 320.4 
" style="fill: none; stroke: #000000; stroke-width: 0.8; stroke-linejoin: miter; stroke-linecap: square"/>
   </g>
   <g id="patch_6">
    <path d="M 72 43.2 
L 518.4 43.2 
" style="fill: none; stroke: #000000; stroke-width: 0.8; stroke-linejoin: miter; stroke-linecap: square"/>
   </g>
   <g id="text_13">
    <!-- Classic Transformer - model_20231123161509 -->
    <g transform="translate(155.436563 37.2) scale(0.12 -0.12)">
     <defs>
      <path id="DejaVuSans-43" d="M 4122 4306 
L 4122 3641 
Q 3803 3938 3442 4084 
Q 3081 4231 2675 4231 
Q 1875 4231 1450 3742 
Q 1025 3253 1025 2328 
Q 1025 1406 1450 917 
Q 1875 428 2675 428 
Q 3081 428 3442 575 
Q 3803 722 4122 1019 
L 4122 359 
Q 3791 134 3420 21 
Q 3050 -91 2638 -91 
Q 1578 -91 968 557 
Q 359 1206 359 2328 
Q 359 3453 968 4101 
Q 1578 4750 2638 4750 
Q 3056 4750 3426 4639 
Q 3797 4528 4122 4306 
z
" transform="scale(0.015625)"/>
      <path id="DejaVuSans-6c" d="M 603 4863 
L 1178 4863 
L 1178 0 
L 603 0 
L 603 4863 
z
" transform="scale(0.015625)"/>
      <path id="DejaVuSans-61" d="M 2194 1759 
Q 1497 1759 1228 1600 
Q 959 1441 959 1056 
Q 959 750 1161 570 
Q 1363 391 1709 391 
Q 2188 391 2477 730 
Q 2766 1069 2766 1631 
L 2766 1759 
L 2194 1759 
z
M 3341 1997 
L 3341 0 
L 2766 0 
L 2766 531 
Q 2569 213 2275 61 
Q 1981 -91 1556 -91 
Q 1019 -91 701 211 
Q 384 513 384 1019 
Q 384 1609 779 1909 
Q 1175 2209 1959 2209 
L 2766 2209 
L 2766 2266 
Q 2766 2663 2505 2880 
Q 2244 3097 1772 3097 
Q 1472 3097 1187 3025 
Q 903 2953 641 2809 
L 641 3341 
Q 956 3463 1253 3523 
Q 1550 3584 1831 3584 
Q 2591 3584 2966 3190 
Q 3341 2797 3341 1997 
z
" transform="scale(0.015625)"/>
      <path id="DejaVuSans-73" d="M 2834 3397 
L 2834 2853 
Q 2591 2978 2328 3040 
Q 2066 3103 1784 3103 
Q 1356 3103 1142 2972 
Q 928 2841 928 2578 
Q 928 2378 1081 2264 
Q 1234 2150 1697 2047 
L 1894 2003 
Q 2506 1872 2764 1633 
Q 3022 1394 3022 966 
Q 3022 478 2636 193 
Q 2250 -91 1575 -91 
Q 1294 -91 989 -36 
Q 684 19 347 128 
L 347 722 
Q 666 556 975 473 
Q 1284 391 1588 391 
Q 1994 391 2212 530 
Q 2431 669 2431 922 
Q 2431 1156 2273 1281 
Q 2116 1406 1581 1522 
L 1381 1569 
Q 847 1681 609 1914 
Q 372 2147 372 2553 
Q 372 3047 722 3315 
Q 1072 3584 1716 3584 
Q 2034 3584 2315 3537 
Q 2597 3491 2834 3397 
z
" transform="scale(0.015625)"/>
      <path id="DejaVuSans-69" d="M 603 3500 
L 1178 3500 
L 1178 0 
L 603 0 
L 603 3500 
z
M 603 4863 
L 1178 4863 
L 1178 4134 
L 603 4134 
L 603 4863 
z
" transform="scale(0.015625)"/>
      <path id="DejaVuSans-63" d="M 3122 3366 
L 3122 2828 
Q 2878 2963 2633 3030 
Q 2388 3097 2138 3097 
Q 1578 3097 1268 2742 
Q 959 2388 959 1747 
Q 959 1106 1268 751 
Q 1578 397 2138 397 
Q 2388 397 2633 464 
Q 2878 531 3122 666 
L 3122 134 
Q 2881 22 2623 -34 
Q 2366 -91 2075 -91 
Q 1284 -91 818 406 
Q 353 903 353 1747 
Q 353 2603 823 3093 
Q 1294 3584 2113 3584 
Q 2378 3584 2631 3529 
Q 2884 3475 3122 3366 
z
" transform="scale(0.015625)"/>
      <path id="DejaVuSans-20" transform="scale(0.015625)"/>
      <path id="DejaVuSans-54" d="M -19 4666 
L 3928 4666 
L 3928 4134 
L 2272 4134 
L 2272 0 
L 1638 0 
L 1638 4134 
L -19 4134 
L -19 4666 
z
" transform="scale(0.015625)"/>
      <path id="DejaVuSans-72" d="M 2631 2963 
Q 2534 3019 2420 3045 
Q 2306 3072 2169 3072 
Q 1681 3072 1420 2755 
Q 1159 2438 1159 1844 
L 1159 0 
L 581 0 
L 581 3500 
L 1159 3500 
L 1159 2956 
Q 1341 3275 1631 3429 
Q 1922 3584 2338 3584 
Q 2397 3584 2469 3576 
Q 2541 3569 2628 3553 
L 2631 2963 
z
" transform="scale(0.015625)"/>
      <path id="DejaVuSans-6e" d="M 3513 2113 
L 3513 0 
L 2938 0 
L 2938 2094 
Q 2938 2591 2744 2837 
Q 2550 3084 2163 3084 
Q 1697 3084 1428 2787 
Q 1159 2491 1159 1978 
L 1159 0 
L 581 0 
L 581 3500 
L 1159 3500 
L 1159 2956 
Q 1366 3272 1645 3428 
Q 1925 3584 2291 3584 
Q 2894 3584 3203 3211 
Q 3513 2838 3513 2113 
z
" transform="scale(0.015625)"/>
      <path id="DejaVuSans-66" d="M 2375 4863 
L 2375 4384 
L 1825 4384 
Q 1516 4384 1395 4259 
Q 1275 4134 1275 3809 
L 1275 3500 
L 2222 3500 
L 2222 3053 
L 1275 3053 
L 1275 0 
L 697 0 
L 697 3053 
L 147 3053 
L 147 3500 
L 697 3500 
L 697 3744 
Q 697 4328 969 4595 
Q 1241 4863 1831 4863 
L 2375 4863 
z
" transform="scale(0.015625)"/>
      <path id="DejaVuSans-6f" d="M 1959 3097 
Q 1497 3097 1228 2736 
Q 959 2375 959 1747 
Q 959 1119 1226 758 
Q 1494 397 1959 397 
Q 2419 397 2687 759 
Q 2956 1122 2956 1747 
Q 2956 2369 2687 2733 
Q 2419 3097 1959 3097 
z
M 1959 3584 
Q 2709 3584 3137 3096 
Q 3566 2609 3566 1747 
Q 3566 888 3137 398 
Q 2709 -91 1959 -91 
Q 1206 -91 779 398 
Q 353 888 353 1747 
Q 353 2609 779 3096 
Q 1206 3584 1959 3584 
z
" transform="scale(0.015625)"/>
      <path id="DejaVuSans-6d" d="M 3328 2828 
Q 3544 3216 3844 3400 
Q 4144 3584 4550 3584 
Q 5097 3584 5394 3201 
Q 5691 2819 5691 2113 
L 5691 0 
L 5113 0 
L 5113 2094 
Q 5113 2597 4934 2840 
Q 4756 3084 4391 3084 
Q 3944 3084 3684 2787 
Q 3425 2491 3425 1978 
L 3425 0 
L 2847 0 
L 2847 2094 
Q 2847 2600 2669 2842 
Q 2491 3084 2119 3084 
Q 1678 3084 1418 2786 
Q 1159 2488 1159 1978 
L 1159 0 
L 581 0 
L 581 3500 
L 1159 3500 
L 1159 2956 
Q 1356 3278 1631 3431 
Q 1906 3584 2284 3584 
Q 2666 3584 2933 3390 
Q 3200 3197 3328 2828 
z
" transform="scale(0.015625)"/>
      <path id="DejaVuSans-65" d="M 3597 1894 
L 3597 1613 
L 953 1613 
Q 991 1019 1311 708 
Q 1631 397 2203 397 
Q 2534 397 2845 478 
Q 3156 559 3463 722 
L 3463 178 
Q 3153 47 2828 -22 
Q 2503 -91 2169 -91 
Q 1331 -91 842 396 
Q 353 884 353 1716 
Q 353 2575 817 3079 
Q 1281 3584 2069 3584 
Q 2775 3584 3186 3129 
Q 3597 2675 3597 1894 
z
M 3022 2063 
Q 3016 2534 2758 2815 
Q 2500 3097 2075 3097 
Q 1594 3097 1305 2825 
Q 1016 2553 972 2059 
L 3022 2063 
z
" transform="scale(0.015625)"/>
      <path id="DejaVuSans-64" d="M 2906 2969 
L 2906 4863 
L 3481 4863 
L 3481 0 
L 2906 0 
L 2906 525 
Q 2725 213 2448 61 
Q 2172 -91 1784 -91 
Q 1150 -91 751 415 
Q 353 922 353 1747 
Q 353 2572 751 3078 
Q 1150 3584 1784 3584 
Q 2172 3584 2448 3432 
Q 2725 3281 2906 2969 
z
M 947 1747 
Q 947 1113 1208 752 
Q 1469 391 1925 391 
Q 2381 391 2643 752 
Q 2906 1113 2906 1747 
Q 2906 2381 2643 2742 
Q 2381 3103 1925 3103 
Q 1469 3103 1208 2742 
Q 947 2381 947 1747 
z
" transform="scale(0.015625)"/>
      <path id="DejaVuSans-5f" d="M 3263 -1063 
L 3263 -1509 
L -63 -1509 
L -63 -1063 
L 3263 -1063 
z
" transform="scale(0.015625)"/>
      <path id="DejaVuSans-39" d="M 703 97 
L 703 672 
Q 941 559 1184 500 
Q 1428 441 1663 441 
Q 2288 441 2617 861 
Q 2947 1281 2994 2138 
Q 2813 1869 2534 1725 
Q 2256 1581 1919 1581 
Q 1219 1581 811 2004 
Q 403 2428 403 3163 
Q 403 3881 828 4315 
Q 1253 4750 1959 4750 
Q 2769 4750 3195 4129 
Q 3622 3509 3622 2328 
Q 3622 1225 3098 567 
Q 2575 -91 1691 -91 
Q 1453 -91 1209 -44 
Q 966 3 703 97 
z
M 1959 2075 
Q 2384 2075 2632 2365 
Q 2881 2656 2881 3163 
Q 2881 3666 2632 3958 
Q 2384 4250 1959 4250 
Q 1534 4250 1286 3958 
Q 1038 3666 1038 3163 
Q 1038 2656 1286 2365 
Q 1534 2075 1959 2075 
z
" transform="scale(0.015625)"/>
     </defs>
     <use xlink:href="#DejaVuSans-43"/>
     <use xlink:href="#DejaVuSans-6c" x="69.824219"/>
     <use xlink:href="#DejaVuSans-61" x="97.607422"/>
     <use xlink:href="#DejaVuSans-73" x="158.886719"/>
     <use xlink:href="#DejaVuSans-73" x="210.986328"/>
     <use xlink:href="#DejaVuSans-69" x="263.085938"/>
     <use xlink:href="#DejaVuSans-63" x="290.869141"/>
     <use xlink:href="#DejaVuSans-20" x="345.849609"/>
     <use xlink:href="#DejaVuSans-54" x="377.636719"/>
     <use xlink:href="#DejaVuSans-72" x="423.970703"/>
     <use xlink:href="#DejaVuSans-61" x="465.083984"/>
     <use xlink:href="#DejaVuSans-6e" x="526.363281"/>
     <use xlink:href="#DejaVuSans-73" x="589.742188"/>
     <use xlink:href="#DejaVuSans-66" x="641.841797"/>
     <use xlink:href="#DejaVuSans-6f" x="677.046875"/>
     <use xlink:href="#DejaVuSans-72" x="738.228516"/>
     <use xlink:href="#DejaVuSans-6d" x="777.591797"/>
     <use xlink:href="#DejaVuSans-65" x="875.003906"/>
     <use xlink:href="#DejaVuSans-72" x="936.527344"/>
     <use xlink:href="#DejaVuSans-20" x="977.640625"/>
     <use xlink:href="#DejaVuSans-2d" x="1009.427734"/>
     <use xlink:href="#DejaVuSans-20" x="1045.511719"/>
     <use xlink:href="#DejaVuSans-6d" x="1077.298828"/>
     <use xlink:href="#DejaVuSans-6f" x="1174.710938"/>
     <use xlink:href="#DejaVuSans-64" x="1235.892578"/>
     <use xlink:href="#DejaVuSans-65" x="1299.369141"/>
     <use xlink:href="#DejaVuSans-6c" x="1360.892578"/>
     <use xlink:href="#DejaVuSans-5f" x="1388.675781"/>
     <use xlink:href="#DejaVuSans-32" x="1438.675781"/>
     <use xlink:href="#DejaVuSans-30" x="1502.298828"/>
     <use xlink:href="#DejaVuSans-32" x="1565.921875"/>
     <use xlink:href="#DejaVuSans-33" x="1629.544922"/>
     <use xlink:href="#DejaVuSans-31" x="1693.167969"/>
     <use xlink:href="#DejaVuSans-31" x="1756.791016"/>
     <use xlink:href="#DejaVuSans-32" x="1820.414062"/>
     <use xlink:href="#DejaVuSans-33" x="1884.037109"/>
     <use xlink:href="#DejaVuSans-31" x="1947.660156"/>
     <use xlink:href="#DejaVuSans-36" x="2011.283203"/>
     <use xlink:href="#DejaVuSans-31" x="2074.90625"/>
     <use xlink:href="#DejaVuSans-35" x="2138.529297"/>
     <use xlink:href="#DejaVuSans-30" x="2202.152344"/>
     <use xlink:href="#DejaVuSans-39" x="2265.775391"/>
    </g>
   </g>
   <g id="legend_1">
    <g id="patch_7">
     <path d="M 79 95.234375 
L 161.517188 95.234375 
Q 163.517188 95.234375 163.517188 93.234375 
L 163.517188 50.2 
Q 163.517188 48.2 161.517188 48.2 
L 79 48.2 
Q 77 48.2 77 50.2 
L 77 93.234375 
Q 77 95.234375 79 95.234375 
z
" style="fill: #ffffff; opacity: 0.8; stroke: #cccccc; stroke-linejoin: miter"/>
    </g>
    <g id="line2d_16">
     <path d="M 81 56.298437 
L 91 56.298437 
L 101 56.298437 
" style="fill: none; stroke: #1f77b4; stroke-width: 1.5; stroke-linecap: square"/>
    </g>
    <g id="text_14">
     <!-- Measured -->
     <g transform="translate(109 59.798437) scale(0.1 -0.1)">
      <defs>
       <path id="DejaVuSans-4d" d="M 628 4666 
L 1569 4666 
L 2759 1491 
L 3956 4666 
L 4897 4666 
L 4897 0 
L 4281 0 
L 4281 4097 
L 3078 897 
L 2444 897 
L 1241 4097 
L 1241 0 
L 628 0 
L 628 4666 
z
" transform="scale(0.015625)"/>
       <path id="DejaVuSans-75" d="M 544 1381 
L 544 3500 
L 1119 3500 
L 1119 1403 
Q 1119 906 1312 657 
Q 1506 409 1894 409 
Q 2359 409 2629 706 
Q 2900 1003 2900 1516 
L 2900 3500 
L 3475 3500 
L 3475 0 
L 2900 0 
L 2900 538 
Q 2691 219 2414 64 
Q 2138 -91 1772 -91 
Q 1169 -91 856 284 
Q 544 659 544 1381 
z
M 1991 3584 
L 1991 3584 
z
" transform="scale(0.015625)"/>
      </defs>
      <use xlink:href="#DejaVuSans-4d"/>
      <use xlink:href="#DejaVuSans-65" x="86.279297"/>
      <use xlink:href="#DejaVuSans-61" x="147.802734"/>
      <use xlink:href="#DejaVuSans-73" x="209.082031"/>
      <use xlink:href="#DejaVuSans-75" x="261.181641"/>
      <use xlink:href="#DejaVuSans-72" x="324.560547"/>
      <use xlink:href="#DejaVuSans-65" x="363.423828"/>
      <use xlink:href="#DejaVuSans-64" x="424.947266"/>
     </g>
    </g>
    <g id="line2d_17">
     <path d="M 81 70.976562 
L 91 70.976562 
L 101 70.976562 
" style="fill: none; stroke: #ff7f0e; stroke-width: 1.5; stroke-linecap: square"/>
    </g>
    <g id="text_15">
     <!-- Fitted -->
     <g transform="translate(109 74.476562) scale(0.1 -0.1)">
      <defs>
       <path id="DejaVuSans-46" d="M 628 4666 
L 3309 4666 
L 3309 4134 
L 1259 4134 
L 1259 2759 
L 3109 2759 
L 3109 2228 
L 1259 2228 
L 1259 0 
L 628 0 
L 628 4666 
z
" transform="scale(0.015625)"/>
       <path id="DejaVuSans-74" d="M 1172 4494 
L 1172 3500 
L 2356 3500 
L 2356 3053 
L 1172 3053 
L 1172 1153 
Q 1172 725 1289 603 
Q 1406 481 1766 481 
L 2356 481 
L 2356 0 
L 1766 0 
Q 1100 0 847 248 
Q 594 497 594 1153 
L 594 3053 
L 172 3053 
L 172 3500 
L 594 3500 
L 594 4494 
L 1172 4494 
z
" transform="scale(0.015625)"/>
      </defs>
      <use xlink:href="#DejaVuSans-46"/>
      <use xlink:href="#DejaVuSans-69" x="50.269531"/>
      <use xlink:href="#DejaVuSans-74" x="78.052734"/>
      <use xlink:href="#DejaVuSans-74" x="117.261719"/>
      <use xlink:href="#DejaVuSans-65" x="156.470703"/>
      <use xlink:href="#DejaVuSans-64" x="217.994141"/>
     </g>
    </g>
    <g id="line2d_18">
     <path d="M 81 85.654687 
L 91 85.654687 
L 101 85.654687 
" style="fill: none; stroke: #2ca02c; stroke-width: 1.5; stroke-linecap: square"/>
    </g>
    <g id="text_16">
     <!-- Estimated -->
     <g transform="translate(109 89.154687) scale(0.1 -0.1)">
      <defs>
       <path id="DejaVuSans-45" d="M 628 4666 
L 3578 4666 
L 3578 4134 
L 1259 4134 
L 1259 2753 
L 3481 2753 
L 3481 2222 
L 1259 2222 
L 1259 531 
L 3634 531 
L 3634 0 
L 628 0 
L 628 4666 
z
" transform="scale(0.015625)"/>
      </defs>
      <use xlink:href="#DejaVuSans-45"/>
      <use xlink:href="#DejaVuSans-73" x="63.183594"/>
      <use xlink:href="#DejaVuSans-74" x="115.283203"/>
      <use xlink:href="#DejaVuSans-69" x="154.492188"/>
      <use xlink:href="#DejaVuSans-6d" x="182.275391"/>
      <use xlink:href="#DejaVuSans-61" x="279.6875"/>
      <use xlink:href="#DejaVuSans-74" x="340.966797"/>
      <use xlink:href="#DejaVuSans-65" x="380.175781"/>
      <use xlink:href="#DejaVuSans-64" x="441.699219"/>
     </g>
    </g>
   </g>
  </g>
 </g>
 <defs>
  <clipPath id="p50ab7e8cc3">
   <rect x="72" y="43.2" width="446.4" height="277.2"/>
  </clipPath>
 </defs>
</svg>
