<?xml version="1.0" encoding="utf-8" standalone="no"?>
<!DOCTYPE svg PUBLIC "-//W3C//DTD SVG 1.1//EN"
  "http://www.w3.org/Graphics/SVG/1.1/DTD/svg11.dtd">
<svg xmlns:xlink="http://www.w3.org/1999/xlink" width="576pt" height="360pt" viewBox="0 0 576 360" xmlns="http://www.w3.org/2000/svg" version="1.1">
 <metadata>
  <rdf:RDF xmlns:dc="http://purl.org/dc/elements/1.1/" xmlns:cc="http://creativecommons.org/ns#" xmlns:rdf="http://www.w3.org/1999/02/22-rdf-syntax-ns#">
   <cc:Work>
    <dc:type rdf:resource="http://purl.org/dc/dcmitype/StillImage"/>
    <dc:date>2023-11-23T16:52:13.545645</dc:date>
    <dc:format>image/svg+xml</dc:format>
    <dc:creator>
     <cc:Agent>
      <dc:title>Matplotlib v3.8.1, https://matplotlib.org/</dc:title>
     </cc:Agent>
    </dc:creator>
   </cc:Work>
  </rdf:RDF>
 </metadata>
 <defs>
  <style type="text/css">*{stroke-linejoin: round; stroke-linecap: butt}</style>
 </defs>
 <g id="figure_1">
  <g id="patch_1">
   <path d="M 0 360 
L 576 360 
L 576 0 
L 0 0 
z
" style="fill: #ffffff"/>
  </g>
  <g id="axes_1">
   <g id="patch_2">
    <path d="M 72 320.4 
L 518.4 320.4 
L 518.4 43.2 
L 72 43.2 
z
" style="fill: #ffffff"/>
   </g>
   <g id="matplotlib.axis_1">
    <g id="xtick_1">
     <g id="line2d_1">
      <defs>
       <path id="m0466108746" d="M 0 0 
L 0 3.5 
" style="stroke: #000000; stroke-width: 0.8"/>
      </defs>
      <g>
       <use xlink:href="#m0466108746" x="129.874161" y="320.4" style="stroke: #000000; stroke-width: 0.8"/>
      </g>
     </g>
     <g id="text_1">
      <!-- 2020-05-15 -->
      <g transform="translate(100.816349 334.998438) scale(0.1 -0.1)">
       <defs>
        <path id="DejaVuSans-32" d="M 1228 531 
L 3431 531 
L 3431 0 
L 469 0 
L 469 531 
Q 828 903 1448 1529 
Q 2069 2156 2228 2338 
Q 2531 2678 2651 2914 
Q 2772 3150 2772 3378 
Q 2772 3750 2511 3984 
Q 2250 4219 1831 4219 
Q 1534 4219 1204 4116 
Q 875 4013 500 3803 
L 500 4441 
Q 881 4594 1212 4672 
Q 1544 4750 1819 4750 
Q 2544 4750 2975 4387 
Q 3406 4025 3406 3419 
Q 3406 3131 3298 2873 
Q 3191 2616 2906 2266 
Q 2828 2175 2409 1742 
Q 1991 1309 1228 531 
z
" transform="scale(0.015625)"/>
        <path id="DejaVuSans-30" d="M 2034 4250 
Q 1547 4250 1301 3770 
Q 1056 3291 1056 2328 
Q 1056 1369 1301 889 
Q 1547 409 2034 409 
Q 2525 409 2770 889 
Q 3016 1369 3016 2328 
Q 3016 3291 2770 3770 
Q 2525 4250 2034 4250 
z
M 2034 4750 
Q 2819 4750 3233 4129 
Q 3647 3509 3647 2328 
Q 3647 1150 3233 529 
Q 2819 -91 2034 -91 
Q 1250 -91 836 529 
Q 422 1150 422 2328 
Q 422 3509 836 4129 
Q 1250 4750 2034 4750 
z
" transform="scale(0.015625)"/>
        <path id="DejaVuSans-2d" d="M 313 2009 
L 1997 2009 
L 1997 1497 
L 313 1497 
L 313 2009 
z
" transform="scale(0.015625)"/>
        <path id="DejaVuSans-35" d="M 691 4666 
L 3169 4666 
L 3169 4134 
L 1269 4134 
L 1269 2991 
Q 1406 3038 1543 3061 
Q 1681 3084 1819 3084 
Q 2600 3084 3056 2656 
Q 3513 2228 3513 1497 
Q 3513 744 3044 326 
Q 2575 -91 1722 -91 
Q 1428 -91 1123 -41 
Q 819 9 494 109 
L 494 744 
Q 775 591 1075 516 
Q 1375 441 1709 441 
Q 2250 441 2565 725 
Q 2881 1009 2881 1497 
Q 2881 1984 2565 2268 
Q 2250 2553 1709 2553 
Q 1456 2553 1204 2497 
Q 953 2441 691 2322 
L 691 4666 
z
" transform="scale(0.015625)"/>
        <path id="DejaVuSans-31" d="M 794 531 
L 1825 531 
L 1825 4091 
L 703 3866 
L 703 4441 
L 1819 4666 
L 2450 4666 
L 2450 531 
L 3481 531 
L 3481 0 
L 794 0 
L 794 531 
z
" transform="scale(0.015625)"/>
       </defs>
       <use xlink:href="#DejaVuSans-32"/>
       <use xlink:href="#DejaVuSans-30" x="63.623047"/>
       <use xlink:href="#DejaVuSans-32" x="127.246094"/>
       <use xlink:href="#DejaVuSans-30" x="190.869141"/>
       <use xlink:href="#DejaVuSans-2d" x="254.492188"/>
       <use xlink:href="#DejaVuSans-30" x="290.576172"/>
       <use xlink:href="#DejaVuSans-35" x="354.199219"/>
       <use xlink:href="#DejaVuSans-2d" x="417.822266"/>
       <use xlink:href="#DejaVuSans-31" x="453.90625"/>
       <use xlink:href="#DejaVuSans-35" x="517.529297"/>
      </g>
     </g>
    </g>
    <g id="xtick_2">
     <g id="line2d_2">
      <g>
       <use xlink:href="#m0466108746" x="212.435902" y="320.4" style="stroke: #000000; stroke-width: 0.8"/>
      </g>
     </g>
     <g id="text_2">
      <!-- 2020-06-01 -->
      <g transform="translate(183.37809 334.998438) scale(0.1 -0.1)">
       <defs>
        <path id="DejaVuSans-36" d="M 2113 2584 
Q 1688 2584 1439 2293 
Q 1191 2003 1191 1497 
Q 1191 994 1439 701 
Q 1688 409 2113 409 
Q 2538 409 2786 701 
Q 3034 994 3034 1497 
Q 3034 2003 2786 2293 
Q 2538 2584 2113 2584 
z
M 3366 4563 
L 3366 3988 
Q 3128 4100 2886 4159 
Q 2644 4219 2406 4219 
Q 1781 4219 1451 3797 
Q 1122 3375 1075 2522 
Q 1259 2794 1537 2939 
Q 1816 3084 2150 3084 
Q 2853 3084 3261 2657 
Q 3669 2231 3669 1497 
Q 3669 778 3244 343 
Q 2819 -91 2113 -91 
Q 1303 -91 875 529 
Q 447 1150 447 2328 
Q 447 3434 972 4092 
Q 1497 4750 2381 4750 
Q 2619 4750 2861 4703 
Q 3103 4656 3366 4563 
z
" transform="scale(0.015625)"/>
       </defs>
       <use xlink:href="#DejaVuSans-32"/>
       <use xlink:href="#DejaVuSans-30" x="63.623047"/>
       <use xlink:href="#DejaVuSans-32" x="127.246094"/>
       <use xlink:href="#DejaVuSans-30" x="190.869141"/>
       <use xlink:href="#DejaVuSans-2d" x="254.492188"/>
       <use xlink:href="#DejaVuSans-30" x="290.576172"/>
       <use xlink:href="#DejaVuSans-36" x="354.199219"/>
       <use xlink:href="#DejaVuSans-2d" x="417.822266"/>
       <use xlink:href="#DejaVuSans-30" x="453.90625"/>
       <use xlink:href="#DejaVuSans-31" x="517.529297"/>
      </g>
     </g>
    </g>
    <g id="xtick_3">
     <g id="line2d_3">
      <g>
       <use xlink:href="#m0466108746" x="280.427924" y="320.4" style="stroke: #000000; stroke-width: 0.8"/>
      </g>
     </g>
     <g id="text_3">
      <!-- 2020-06-15 -->
      <g transform="translate(251.370111 334.998438) scale(0.1 -0.1)">
       <use xlink:href="#DejaVuSans-32"/>
       <use xlink:href="#DejaVuSans-30" x="63.623047"/>
       <use xlink:href="#DejaVuSans-32" x="127.246094"/>
       <use xlink:href="#DejaVuSans-30" x="190.869141"/>
       <use xlink:href="#DejaVuSans-2d" x="254.492188"/>
       <use xlink:href="#DejaVuSans-30" x="290.576172"/>
       <use xlink:href="#DejaVuSans-36" x="354.199219"/>
       <use xlink:href="#DejaVuSans-2d" x="417.822266"/>
       <use xlink:href="#DejaVuSans-31" x="453.90625"/>
       <use xlink:href="#DejaVuSans-35" x="517.529297"/>
      </g>
     </g>
    </g>
    <g id="xtick_4">
     <g id="line2d_4">
      <g>
       <use xlink:href="#m0466108746" x="358.133092" y="320.4" style="stroke: #000000; stroke-width: 0.8"/>
      </g>
     </g>
     <g id="text_4">
      <!-- 2020-07-01 -->
      <g transform="translate(329.075279 334.998438) scale(0.1 -0.1)">
       <defs>
        <path id="DejaVuSans-37" d="M 525 4666 
L 3525 4666 
L 3525 4397 
L 1831 0 
L 1172 0 
L 2766 4134 
L 525 4134 
L 525 4666 
z
" transform="scale(0.015625)"/>
       </defs>
       <use xlink:href="#DejaVuSans-32"/>
       <use xlink:href="#DejaVuSans-30" x="63.623047"/>
       <use xlink:href="#DejaVuSans-32" x="127.246094"/>
       <use xlink:href="#DejaVuSans-30" x="190.869141"/>
       <use xlink:href="#DejaVuSans-2d" x="254.492188"/>
       <use xlink:href="#DejaVuSans-30" x="290.576172"/>
       <use xlink:href="#DejaVuSans-37" x="354.199219"/>
       <use xlink:href="#DejaVuSans-2d" x="417.822266"/>
       <use xlink:href="#DejaVuSans-30" x="453.90625"/>
       <use xlink:href="#DejaVuSans-31" x="517.529297"/>
      </g>
     </g>
    </g>
    <g id="xtick_5">
     <g id="line2d_5">
      <g>
       <use xlink:href="#m0466108746" x="426.125113" y="320.4" style="stroke: #000000; stroke-width: 0.8"/>
      </g>
     </g>
     <g id="text_5">
      <!-- 2020-07-15 -->
      <g transform="translate(397.067301 334.998438) scale(0.1 -0.1)">
       <use xlink:href="#DejaVuSans-32"/>
       <use xlink:href="#DejaVuSans-30" x="63.623047"/>
       <use xlink:href="#DejaVuSans-32" x="127.246094"/>
       <use xlink:href="#DejaVuSans-30" x="190.869141"/>
       <use xlink:href="#DejaVuSans-2d" x="254.492188"/>
       <use xlink:href="#DejaVuSans-30" x="290.576172"/>
       <use xlink:href="#DejaVuSans-37" x="354.199219"/>
       <use xlink:href="#DejaVuSans-2d" x="417.822266"/>
       <use xlink:href="#DejaVuSans-31" x="453.90625"/>
       <use xlink:href="#DejaVuSans-35" x="517.529297"/>
      </g>
     </g>
    </g>
    <g id="xtick_6">
     <g id="line2d_6">
      <g>
       <use xlink:href="#m0466108746" x="508.686854" y="320.4" style="stroke: #000000; stroke-width: 0.8"/>
      </g>
     </g>
     <g id="text_6">
      <!-- 2020-08-01 -->
      <g transform="translate(479.629042 334.998438) scale(0.1 -0.1)">
       <defs>
        <path id="DejaVuSans-38" d="M 2034 2216 
Q 1584 2216 1326 1975 
Q 1069 1734 1069 1313 
Q 1069 891 1326 650 
Q 1584 409 2034 409 
Q 2484 409 2743 651 
Q 3003 894 3003 1313 
Q 3003 1734 2745 1975 
Q 2488 2216 2034 2216 
z
M 1403 2484 
Q 997 2584 770 2862 
Q 544 3141 544 3541 
Q 544 4100 942 4425 
Q 1341 4750 2034 4750 
Q 2731 4750 3128 4425 
Q 3525 4100 3525 3541 
Q 3525 3141 3298 2862 
Q 3072 2584 2669 2484 
Q 3125 2378 3379 2068 
Q 3634 1759 3634 1313 
Q 3634 634 3220 271 
Q 2806 -91 2034 -91 
Q 1263 -91 848 271 
Q 434 634 434 1313 
Q 434 1759 690 2068 
Q 947 2378 1403 2484 
z
M 1172 3481 
Q 1172 3119 1398 2916 
Q 1625 2713 2034 2713 
Q 2441 2713 2670 2916 
Q 2900 3119 2900 3481 
Q 2900 3844 2670 4047 
Q 2441 4250 2034 4250 
Q 1625 4250 1398 4047 
Q 1172 3844 1172 3481 
z
" transform="scale(0.015625)"/>
       </defs>
       <use xlink:href="#DejaVuSans-32"/>
       <use xlink:href="#DejaVuSans-30" x="63.623047"/>
       <use xlink:href="#DejaVuSans-32" x="127.246094"/>
       <use xlink:href="#DejaVuSans-30" x="190.869141"/>
       <use xlink:href="#DejaVuSans-2d" x="254.492188"/>
       <use xlink:href="#DejaVuSans-30" x="290.576172"/>
       <use xlink:href="#DejaVuSans-38" x="354.199219"/>
       <use xlink:href="#DejaVuSans-2d" x="417.822266"/>
       <use xlink:href="#DejaVuSans-30" x="453.90625"/>
       <use xlink:href="#DejaVuSans-31" x="517.529297"/>
      </g>
     </g>
    </g>
   </g>
   <g id="matplotlib.axis_2">
    <g id="ytick_1">
     <g id="line2d_7">
      <defs>
       <path id="m27984d3dc3" d="M 0 0 
L -3.5 0 
" style="stroke: #000000; stroke-width: 0.8"/>
      </defs>
      <g>
       <use xlink:href="#m27984d3dc3" x="72" y="315.797872" style="stroke: #000000; stroke-width: 0.8"/>
      </g>
     </g>
     <g id="text_7">
      <!-- −2 -->
      <g transform="translate(50.257812 319.597091) scale(0.1 -0.1)">
       <defs>
        <path id="DejaVuSans-2212" d="M 678 2272 
L 4684 2272 
L 4684 1741 
L 678 1741 
L 678 2272 
z
" transform="scale(0.015625)"/>
       </defs>
       <use xlink:href="#DejaVuSans-2212"/>
       <use xlink:href="#DejaVuSans-32" x="83.789062"/>
      </g>
     </g>
    </g>
    <g id="ytick_2">
     <g id="line2d_8">
      <g>
       <use xlink:href="#m27984d3dc3" x="72" y="263.518039" style="stroke: #000000; stroke-width: 0.8"/>
      </g>
     </g>
     <g id="text_8">
      <!-- −1 -->
      <g transform="translate(50.257812 267.317258) scale(0.1 -0.1)">
       <use xlink:href="#DejaVuSans-2212"/>
       <use xlink:href="#DejaVuSans-31" x="83.789062"/>
      </g>
     </g>
    </g>
    <g id="ytick_3">
     <g id="line2d_9">
      <g>
       <use xlink:href="#m27984d3dc3" x="72" y="211.238206" style="stroke: #000000; stroke-width: 0.8"/>
      </g>
     </g>
     <g id="text_9">
      <!-- 0 -->
      <g transform="translate(58.6375 215.037424) scale(0.1 -0.1)">
       <use xlink:href="#DejaVuSans-30"/>
      </g>
     </g>
    </g>
    <g id="ytick_4">
     <g id="line2d_10">
      <g>
       <use xlink:href="#m27984d3dc3" x="72" y="158.958372" style="stroke: #000000; stroke-width: 0.8"/>
      </g>
     </g>
     <g id="text_10">
      <!-- 1 -->
      <g transform="translate(58.6375 162.757591) scale(0.1 -0.1)">
       <use xlink:href="#DejaVuSans-31"/>
      </g>
     </g>
    </g>
    <g id="ytick_5">
     <g id="line2d_11">
      <g>
       <use xlink:href="#m27984d3dc3" x="72" y="106.678539" style="stroke: #000000; stroke-width: 0.8"/>
      </g>
     </g>
     <g id="text_11">
      <!-- 2 -->
      <g transform="translate(58.6375 110.477757) scale(0.1 -0.1)">
       <use xlink:href="#DejaVuSans-32"/>
      </g>
     </g>
    </g>
    <g id="ytick_6">
     <g id="line2d_12">
      <g>
       <use xlink:href="#m27984d3dc3" x="72" y="54.398705" style="stroke: #000000; stroke-width: 0.8"/>
      </g>
     </g>
     <g id="text_12">
      <!-- 3 -->
      <g transform="translate(58.6375 58.197924) scale(0.1 -0.1)">
       <defs>
        <path id="DejaVuSans-33" d="M 2597 2516 
Q 3050 2419 3304 2112 
Q 3559 1806 3559 1356 
Q 3559 666 3084 287 
Q 2609 -91 1734 -91 
Q 1441 -91 1130 -33 
Q 819 25 488 141 
L 488 750 
Q 750 597 1062 519 
Q 1375 441 1716 441 
Q 2309 441 2620 675 
Q 2931 909 2931 1356 
Q 2931 1769 2642 2001 
Q 2353 2234 1838 2234 
L 1294 2234 
L 1294 2753 
L 1863 2753 
Q 2328 2753 2575 2939 
Q 2822 3125 2822 3475 
Q 2822 3834 2567 4026 
Q 2313 4219 1838 4219 
Q 1578 4219 1281 4162 
Q 984 4106 628 3988 
L 628 4550 
Q 988 4650 1302 4700 
Q 1616 4750 1894 4750 
Q 2613 4750 3031 4423 
Q 3450 4097 3450 3541 
Q 3450 3153 3228 2886 
Q 3006 2619 2597 2516 
z
" transform="scale(0.015625)"/>
       </defs>
       <use xlink:href="#DejaVuSans-33"/>
      </g>
     </g>
    </g>
   </g>
   <g id="line2d_13">
    <path d="M 72 287.590637 
L 72.404714 298.669882 
L 72.607072 296.987478 
L 72.809429 286.564781 
L 73.214143 256.36358 
L 73.618858 244.217445 
L 75.035358 163.17482 
L 75.237715 160.281907 
L 75.440073 165.226532 
L 75.64243 173.248726 
L 75.844787 176.469914 
L 76.047144 191.365343 
L 76.654216 260.015627 
L 77.05893 283.528247 
L 77.261287 287.795808 
L 77.463645 287.4265 
L 77.666002 276.962768 
L 78.070716 249.121037 
L 78.475431 236.933867 
L 78.677788 228.00892 
L 79.487217 172.325456 
L 79.891931 156.424688 
L 80.094288 158.33278 
L 80.903717 199.777363 
L 81.713146 273.39279 
L 82.11786 287.713739 
L 82.320218 289.7039 
L 82.522575 289.41666 
L 82.724932 286.954606 
L 82.927289 280.286542 
L 83.332004 257.820295 
L 83.736718 243.82762 
L 83.939075 240.852637 
L 84.141432 241.11936 
L 84.546147 247.377081 
L 84.748504 249.428793 
L 84.950861 249.44931 
L 85.355576 253.552734 
L 85.557933 250.290512 
L 85.76029 256.281511 
L 86.569719 300.229183 
L 86.772076 306.179148 
L 86.974433 307.738449 
L 87.176791 307.8 
L 87.379148 306.486904 
L 87.581505 302.834857 
L 87.783862 296.228344 
L 88.188577 274.664851 
L 88.390934 269.597122 
L 89.200363 261.698031 
L 89.40272 257.656158 
L 89.807434 243.191589 
L 90.212149 240.791086 
L 90.414506 238.144377 
L 90.616863 245.920366 
L 91.223935 295.387142 
L 91.628649 306.179148 
L 91.831006 306.240699 
L 92.033364 303.799162 
L 92.842792 258.661497 
L 93.04515 256.568751 
L 93.449864 248.156732 
L 93.652221 247.643804 
L 93.854578 244.771407 
L 94.056936 244.155893 
L 94.259293 241.591253 
L 94.46165 235.333532 
L 94.664007 232.543203 
L 94.866364 233.445957 
L 95.068722 236.523525 
L 95.271079 232.768892 
L 95.473436 242.658144 
L 96.080508 295.756451 
L 96.485222 304.763466 
L 96.687579 306.630524 
L 96.889937 302.38348 
L 97.699365 257.943398 
L 98.306437 247.664321 
L 98.508794 247.295013 
L 99.52058 226.531687 
L 99.722937 227.762715 
L 99.925295 232.030275 
L 100.127652 230.245286 
L 100.330009 240.175572 
L 100.937081 293.33543 
L 101.341795 305.337946 
L 101.544152 306.30225 
L 101.74651 302.67072 
L 101.948867 290.975962 
L 102.353581 261.595446 
L 102.555938 260.077179 
L 103.567724 242.678661 
L 104.377153 221.053616 
L 104.57951 222.305161 
L 104.781868 227.57806 
L 104.984225 227.557543 
L 105.186582 236.256802 
L 105.793654 290.257862 
L 106.198368 302.732271 
L 106.400725 304.455709 
L 106.603083 300.516422 
L 107.412511 255.583929 
L 107.614869 253.901526 
L 107.817226 250.311029 
L 108.22194 236.092665 
L 108.626655 214.857446 
L 108.829012 209.051101 
L 109.031369 207.20456 
L 109.638441 215.698648 
L 109.840798 221.012582 
L 110.043155 231.189074 
L 110.650227 285.046514 
L 111.054941 298.998155 
L 111.257298 300.865213 
L 111.459655 299.162292 
L 111.662013 288.000979 
L 112.066727 259.379597 
L 112.471442 244.709856 
L 113.887942 177.78301 
L 114.090299 175.464575 
L 114.292656 182.132639 
L 114.495014 193.31447 
L 114.697371 197.807719 
L 115.102085 231.086488 
L 115.709157 279.383789 
L 116.113871 293.027674 
L 116.316228 293.19181 
L 116.518586 291.570958 
L 116.720943 288.021496 
L 117.125657 261.369757 
L 118.542158 158.968811 
L 118.744515 149.079559 
L 118.946872 145.283892 
L 119.149229 148.874388 
L 119.756301 185.928307 
L 120.56573 263.565089 
L 120.970444 282.953768 
L 121.172801 286.954606 
L 121.375159 288.554941 
L 121.577516 287.13926 
L 121.779873 279.383789 
L 122.589302 229.486153 
L 123.196374 204.578369 
L 123.398731 200.105637 
L 123.601088 200.310808 
L 123.803445 199.756846 
L 124.410517 212.867285 
L 124.612874 223.597739 
L 125.219946 278.665689 
L 125.62466 292.884054 
L 125.827017 294.83318 
L 126.029374 292.350609 
L 127.04116 237.180073 
L 127.648232 200.57753 
L 128.255304 159.112431 
L 128.457661 151.726267 
L 128.660018 151.397994 
L 129.26709 194.771185 
L 130.278876 283.65135 
L 130.481233 291.304235 
L 130.68359 292.658365 
L 130.885947 290.13476 
L 132.504805 183.568838 
L 133.111877 141.816498 
L 133.314234 132.604311 
L 133.516591 134.266198 
L 133.921306 149.305247 
L 134.123663 156.568308 
L 135.135449 264.078017 
L 135.540163 276.429323 
L 135.74252 275.506053 
L 135.944878 265.144907 
L 136.349592 234.410261 
L 136.551949 227.783232 
L 136.754306 216.170542 
L 136.956664 220.643274 
L 137.159021 209.584546 
L 137.766092 200.946839 
L 137.96845 201.336664 
L 138.373164 196.043247 
L 138.777879 203.42941 
L 138.980236 204.250095 
L 139.182593 215.801233 
L 139.789665 271.217975 
L 140.194379 286.257024 
L 140.396736 288.288219 
L 140.599093 285.333753 
L 141.003808 255.768583 
L 141.408522 235.046292 
L 142.015594 221.935852 
L 142.622665 212.990388 
L 142.825023 212.723665 
L 143.02738 211.533673 
L 143.229737 212.210737 
L 143.634451 217.381052 
L 143.836809 216.170542 
L 144.039166 226.141862 
L 144.646238 274.439163 
L 145.050952 286.277541 
L 145.253309 287.549602 
L 145.455666 284.472034 
L 145.860381 255.44031 
L 146.062738 239.33437 
L 146.66981 223.207914 
L 146.872167 220.581722 
L 147.074524 219.514832 
L 147.479238 208.640759 
L 147.681596 216.929675 
L 147.883953 217.89398 
L 148.08631 220.45862 
L 148.491024 229.588738 
L 148.693382 228.255125 
L 149.098096 251.418954 
L 149.502811 279.014481 
L 149.907525 291.878715 
L 150.109882 293.90991 
L 150.312239 293.33543 
L 150.514597 290.545102 
L 150.716954 284.902894 
L 151.121668 264.262671 
L 151.526383 243.991756 
L 151.931097 238.246963 
L 152.133454 237.816103 
L 152.335811 239.76523 
L 152.538169 240.278158 
L 152.740526 238.246963 
L 152.942883 238.534203 
L 153.14524 237.569898 
L 153.347597 237.610932 
L 153.549955 234.718018 
L 153.752312 236.892833 
L 154.764098 287.816325 
L 154.966455 291.735095 
L 155.168812 293.109742 
L 155.573527 289.211489 
L 155.775884 278.255347 
L 156.78767 201.131493 
L 157.799456 158.948294 
L 158.001813 160.938454 
L 158.406528 174.00786 
L 158.608885 187.426056 
L 159.215956 255.358241 
L 159.620671 276.73708 
L 159.823028 279.917234 
L 160.025385 279.014481 
L 160.227743 269.309883 
L 160.632457 237.180073 
L 161.8466 187.385022 
L 162.251315 177.434219 
L 162.453672 177.577839 
L 162.656029 180.409201 
L 163.465458 211.902981 
L 164.072529 271.156424 
L 164.477244 289.580797 
L 164.679601 289.909071 
L 164.881958 286.708401 
L 165.084316 276.655012 
L 165.48903 245.202267 
L 166.500816 210.466782 
L 167.310245 167.975827 
L 167.512602 171.2996 
L 167.917316 191.6731 
L 168.119674 196.084281 
L 168.322031 207.327663 
L 168.929102 266.150246 
L 169.333817 281.189295 
L 169.536174 284.677206 
L 169.738531 281.045675 
L 170.143246 254.024628 
L 170.54796 224.008082 
L 171.357389 179.875756 
L 171.559746 173.905274 
L 172.166818 149.941278 
L 172.369175 151.541613 
L 172.571532 159.379153 
L 173.178604 197.971856 
L 173.785675 268.366095 
L 174.19039 287.57012 
L 174.392747 290.524585 
L 174.595104 288.719078 
L 174.999819 264.755082 
L 175.404533 239.990918 
L 177.023391 162.497755 
L 177.225748 163.010683 
L 177.428105 166.888419 
L 177.630462 183.322632 
L 177.83282 185.743653 
L 178.237534 229.445118 
L 178.642248 271.956591 
L 179.046963 290.975962 
L 179.24932 294.669043 
L 179.451677 292.165954 
L 179.654034 283.548764 
L 180.261106 244.053308 
L 181.879964 147.951117 
L 182.082321 144.709412 
L 182.284678 150.331103 
L 183.094107 206.178704 
L 183.498821 244.853476 
L 183.903536 266.129729 
L 184.30825 273.905718 
L 184.510607 275.259848 
L 184.712965 271.648834 
L 184.915322 258.374258 
L 185.724751 177.023877 
L 186.129465 155.809174 
L 186.331822 149.797658 
L 186.53418 149.038525 
L 186.736537 151.56213 
L 187.748323 191.693617 
L 188.557752 255.399275 
L 188.962466 269.47402 
L 189.164823 271.505215 
L 189.36718 271.587283 
L 189.569538 270.848667 
L 189.771895 260.13873 
L 190.986038 164.836707 
L 191.188395 159.563807 
L 191.390752 159.522773 
L 191.795467 168.611857 
L 192.604896 199.715811 
L 193.414325 262.641819 
L 193.819039 276.265186 
L 194.021396 277.332077 
L 194.426111 273.39279 
L 194.628468 264.488359 
L 195.437897 203.942338 
L 195.640254 198.956678 
L 195.842611 200.167188 
L 196.247325 206.199221 
L 196.449683 206.773701 
L 196.65204 206.383875 
L 197.056754 214.549689 
L 197.259112 215.390891 
L 197.461469 223.761876 
L 198.06854 271.854006 
L 198.473255 285.969784 
L 198.675612 286.07237 
L 198.877969 282.44084 
L 199.282684 251.808779 
L 199.687398 229.096327 
L 201.306256 163.010683 
L 201.508613 161.861725 
L 202.115684 180.963164 
L 202.318042 192.062926 
L 202.925113 255.830135 
L 203.329828 273.39279 
L 203.532185 275.485536 
L 203.734542 272.510553 
L 203.936899 261.041483 
L 204.341614 227.208752 
L 205.758114 172.79735 
L 205.960471 170.314778 
L 206.162829 170.458398 
L 206.365186 171.874079 
L 206.7699 183.671423 
L 206.972257 186.851577 
L 207.174615 197.643582 
L 207.781686 256.425131 
L 208.186401 272.510553 
L 208.388758 275.547087 
L 208.591115 272.223314 
L 208.793472 260.405453 
L 209.198187 226.757376 
L 209.805258 204.578369 
L 210.209973 184.779348 
L 210.817044 143.273214 
L 211.019402 134.82016 
L 211.221759 137.774626 
L 211.626473 162.148964 
L 211.82883 167.339796 
L 212.031188 182.009537 
L 212.638259 246.782085 
L 213.042974 265.288527 
L 213.245331 269.268848 
L 213.447688 267.565927 
L 213.650045 256.897025 
L 214.257117 213.811073 
L 214.661831 187.569676 
L 215.47126 128.459853 
L 215.875975 111.799952 
L 216.078332 111.328058 
L 216.280689 116.847163 
L 217.090118 180.368167 
L 217.697189 242.04263 
L 218.101904 260.42597 
L 218.304261 263.77026 
L 218.506618 265.12439 
L 218.708976 263.872846 
L 218.911333 251.193266 
L 219.518404 196.617726 
L 220.125476 161.553968 
L 220.327833 159.39967 
L 220.53019 161.615519 
L 221.541976 203.757684 
L 221.744334 208.886964 
L 222.553762 265.55525 
L 222.958477 276.388289 
L 223.160834 278.09121 
L 223.363191 278.440001 
L 223.565549 276.8807 
L 223.767906 268.201958 
L 224.374977 230.1427 
L 224.779692 222.5924 
L 225.386763 224.644112 
L 225.589121 228.15254 
L 225.791478 229.034776 
L 226.196192 237.385244 
L 226.398549 237.036453 
L 226.600907 243.437794 
L 227.410335 296.843858 
L 227.612693 300.865213 
L 227.81505 302.547617 
L 228.017407 299.367464 
L 228.826836 256.938059 
L 229.029193 254.619625 
L 229.23155 248.895348 
L 230.648051 185.723135 
L 230.850408 186.297615 
L 231.255122 200.659599 
L 231.45748 211.513155 
L 232.064551 274.952091 
L 232.469266 292.063369 
L 232.671623 294.771629 
L 232.87398 293.561119 
L 233.278694 268.366095 
L 233.683409 245.920366 
L 235.302267 181.578677 
L 235.504624 180.983681 
L 236.111695 200.023568 
L 236.314053 210.34368 
L 236.921124 272.243831 
L 237.325839 288.06253 
L 237.528196 291.181133 
L 237.730553 289.067869 
L 238.135267 265.206459 
L 238.539982 243.499346 
L 239.349411 212.682631 
L 239.754125 202.711311 
L 240.15884 192.534819 
L 240.361197 192.288614 
L 240.563554 197.725651 
L 240.968268 215.267788 
L 241.170626 222.818089 
L 241.777697 278.152761 
L 242.182412 293.950944 
L 242.384769 296.433515 
L 242.587126 293.458533 
L 242.99184 268.837989 
L 243.396555 250.94706 
L 245.21777 176.5725 
L 245.420127 180.799027 
L 246.027199 207.4918 
L 246.836627 280.696884 
L 247.038985 289.026835 
L 247.241342 292.186472 
L 247.443699 289.662866 
L 247.848413 266.19128 
L 249.467271 154.619181 
L 249.669628 146.57647 
L 249.871985 144.647861 
L 250.074343 144.811998 
L 250.2767 151.726267 
L 250.883772 183.712458 
L 251.6932 258.394775 
L 252.097915 272.859344 
L 252.300272 275.916395 
L 252.502629 276.183118 
L 252.704986 272.325899 
L 253.109701 239.703678 
L 253.91913 166.785834 
L 254.323844 151.049202 
L 254.728558 142.267875 
L 254.930916 141.016331 
L 255.133273 148.484562 
L 255.740345 185.805204 
L 256.549773 260.713209 
L 256.954488 276.121567 
L 257.156845 279.917234 
L 257.359202 281.579121 
L 257.561559 280.614816 
L 257.966274 251.849813 
L 258.573345 201.664938 
L 258.97806 180.080927 
L 259.382774 169.104268 
L 259.585131 165.677909 
L 259.787489 165.24705 
L 259.989846 167.852724 
L 260.39456 183.774009 
L 260.596917 197.069103 
L 261.203989 258.805117 
L 261.608704 277.434662 
L 261.811061 280.348093 
L 262.013418 279.568443 
L 262.418132 255.707032 
L 262.62049 243.745551 
L 263.025204 234.123022 
L 263.227561 231.332693 
L 263.429918 230.327355 
L 263.834633 231.599416 
L 264.03699 231.291659 
L 264.239347 232.235447 
L 264.441704 232.317515 
L 264.644062 232.050793 
L 264.846419 234.081987 
L 265.048776 238.103343 
L 265.251133 238.103343 
L 265.45349 242.104181 
L 266.060562 284.389966 
L 266.465277 297.172132 
L 266.667634 298.710916 
L 266.869991 294.54594 
L 267.072348 286.626332 
L 267.477063 260.241316 
L 268.084134 238.164894 
L 268.488849 227.926851 
L 269.09592 216.724504 
L 269.500635 212.785217 
L 269.702992 214.960032 
L 269.905349 218.550528 
L 270.107706 219.227593 
L 270.310063 225.505831 
L 270.917135 274.151923 
L 271.32185 286.07237 
L 271.524207 288.20615 
L 271.726564 286.503229 
L 274.15485 145.530097 
L 274.357208 138.390139 
L 274.559565 141.713913 
L 275.166636 166.765316 
L 275.976065 247.992595 
L 276.38078 260.508038 
L 276.583137 259.810456 
L 276.987851 238.062309 
L 277.392566 209.276789 
L 278.404352 152.567469 
L 278.606709 149.530936 
L 279.011423 136.358944 
L 279.213781 134.758609 
L 279.416138 139.005653 
L 280.023209 180.552821 
L 280.630281 251.603608 
L 281.034995 274.295543 
L 281.237353 279.1581 
L 281.43971 277.619316 
L 281.642067 271.75142 
L 282.249139 230.163218 
L 282.85621 196.65876 
L 283.867996 154.044702 
L 284.070354 152.854709 
L 284.272711 160.979489 
L 285.284497 243.725034 
L 285.689211 275.772776 
L 286.093926 290.463034 
L 286.296283 292.740434 
L 286.49864 290.934927 
L 286.700997 288.000979 
L 287.105712 257.102196 
L 287.712783 205.747845 
L 288.522212 162.477238 
L 288.724569 155.378315 
L 288.926927 153.449706 
L 289.129284 157.019684 
L 289.736355 190.708796 
L 290.545784 260.528555 
L 290.950499 275.752258 
L 291.152856 278.52207 
L 291.355213 278.604138 
L 291.55757 277.126905 
L 291.759927 264.693531 
L 292.771714 166.375491 
L 293.176428 144.463207 
L 293.581142 133.260859 
L 293.7835 131.537421 
L 293.985857 135.045849 
L 294.592928 160.487078 
L 295.402357 243.478828 
L 295.807072 258.128052 
L 296.009429 257.963915 
L 296.414143 237.734035 
L 297.830644 103.059659 
L 298.235358 89.785082 
L 298.437715 87.199925 
L 298.640073 87.466647 
L 298.84243 89.518359 
L 299.044787 97.540553 
L 299.449501 124.459015 
L 300.056573 203.306307 
L 300.461287 228.501331 
L 300.663645 234.512847 
L 300.866002 235.230946 
L 301.068359 228.419262 
L 301.473073 198.423233 
L 302.484859 93.314027 
L 302.687217 82.009093 
L 302.889574 82.111679 
L 303.091931 90.195424 
L 303.496646 98.833132 
L 303.90136 121.053173 
L 304.306074 148.956456 
L 304.913146 218.078634 
L 305.31786 243.39676 
L 305.520218 248.9569 
L 305.722575 247.17191 
L 305.924932 240.052469 
L 306.532004 200.146671 
L 307.54379 130.224326 
L 307.746147 120.027317 
L 307.948504 119.145081 
L 308.757933 151.377476 
L 309.162647 177.413702 
L 309.769719 240.339709 
L 310.174433 260.200281 
L 310.376791 264.590945 
L 310.579148 264.016466 
L 310.983862 240.626949 
L 312.198005 136.707736 
L 312.60272 125.095046 
L 312.805077 120.724899 
L 313.007434 121.278861 
L 313.209791 124.971943 
L 313.816863 152.526435 
L 314.01922 166.190837 
L 314.626292 228.706502 
L 315.031006 249.182588 
L 315.233364 253.757906 
L 315.435721 253.101358 
L 315.840435 234.34871 
L 316.24515 215.657614 
L 316.649864 203.655098 
L 317.054578 188.369844 
L 317.66165 180.860578 
L 317.864007 180.409201 
L 318.066364 179.506448 
L 318.268722 184.184351 
L 318.875793 206.301807 
L 319.685222 264.837151 
L 320.089937 277.598799 
L 320.292294 279.240169 
L 320.697008 271.32056 
L 321.101723 245.120198 
L 322.315866 167.278244 
L 322.72058 157.040202 
L 322.922937 154.721767 
L 323.125295 158.845708 
L 323.732366 186.441235 
L 324.541795 254.906864 
L 324.94651 269.18678 
L 325.148867 272.079694 
L 325.351224 272.141245 
L 325.553581 269.884362 
L 325.755938 257.57409 
L 326.970082 145.283892 
L 327.172439 138.964619 
L 327.374796 137.3848 
L 327.77951 131.824661 
L 327.981868 136.810321 
L 328.184225 145.591649 
L 328.791296 197.192206 
L 329.196011 240.873154 
L 329.398368 256.096857 
L 329.803083 266.19128 
L 330.00544 265.247493 
L 330.207797 259.646319 
L 330.814869 211.184881 
L 331.42194 173.002521 
L 331.826655 150.35162 
L 332.029012 147.458706 
L 332.231369 147.479224 
L 332.433726 147.663878 
L 332.636083 149.756624 
L 332.838441 154.290907 
L 333.243155 177.188013 
L 333.445512 186.195029 
L 334.052584 251.849813 
L 334.457298 273.618478 
L 334.659655 279.034998 
L 334.862013 276.634495 
L 335.266727 256.814957 
L 335.671442 232.481652 
L 336.48087 192.411717 
L 336.683228 187.343988 
L 336.885585 186.236063 
L 337.087942 180.06041 
L 337.290299 178.213869 
L 337.695014 184.676762 
L 338.099728 199.120815 
L 338.302085 204.988711 
L 339.111514 270.746081 
L 339.313871 276.942251 
L 339.516228 279.178617 
L 339.718586 275.116228 
L 340.1233 251.788262 
L 340.932729 207.368697 
L 342.349229 145.673717 
L 342.551587 145.591649 
L 343.158658 170.253227 
L 343.76573 232.953546 
L 344.170444 250.94706 
L 344.372801 255.707032 
L 344.575159 253.573252 
L 344.777516 246.658982 
L 345.18223 215.801233 
L 346.194016 133.240342 
L 346.598731 118.488533 
L 347.003445 111.88202 
L 347.205802 111.040818 
L 347.40816 114.220972 
L 347.610517 122.058512 
L 348.015231 148.135771 
L 348.82466 239.170233 
L 349.229374 256.260994 
L 349.431732 255.501861 
L 349.634089 249.716033 
L 349.836446 238.595754 
L 351.050589 134.266198 
L 351.455304 115.923893 
L 351.860018 107.081014 
L 352.062375 106.178261 
L 352.264733 109.809791 
L 352.46709 120.889036 
L 353.276519 203.901304 
L 353.681233 241.796425 
L 354.085947 261.964754 
L 354.288305 267.237654 
L 354.490662 267.812133 
L 354.693019 265.575767 
L 355.097733 223.577222 
L 355.704805 149.818175 
L 356.109519 125.13608 
L 356.716591 106.957911 
L 356.918948 105.870504 
L 357.121306 110.67151 
L 357.52602 136.276876 
L 357.728377 148.956456 
L 358.740163 244.361065 
L 359.144878 257.327885 
L 359.347235 259.194942 
L 359.549592 258.866669 
L 359.751949 244.873993 
L 360.763735 124.335912 
L 361.16845 105.275508 
L 361.573164 94.175746 
L 361.775521 91.877828 
L 361.977879 95.160567 
L 362.180236 102.156905 
L 362.58495 127.926408 
L 363.394379 216.621918 
L 363.799093 234.266642 
L 364.001451 235.087326 
L 364.203808 229.198913 
L 364.406165 219.145524 
L 365.013237 149.592487 
L 365.620308 85.045627 
L 366.025023 68.878136 
L 366.429737 62.702483 
L 366.632094 63.194894 
L 366.834451 65.841603 
L 367.036809 74.561379 
L 367.441523 103.757241 
L 368.048595 183.404701 
L 368.453309 213.934176 
L 368.655666 222.469298 
L 368.858024 224.849283 
L 369.060381 220.951031 
L 369.262738 211.082296 
L 369.86981 147.520258 
L 370.476881 89.313188 
L 370.881596 72.673804 
L 371.083953 72.222427 
L 371.28631 72.940526 
L 371.488667 76.879813 
L 371.691024 83.117018 
L 372.298096 122.14058 
L 373.107525 207.245594 
L 373.512239 229.50667 
L 373.714597 233.876816 
L 374.119311 233.179234 
L 374.321668 220.417586 
L 375.333454 116.436821 
L 375.738169 103.162244 
L 375.940526 100.453984 
L 376.142883 99.34606 
L 376.34524 104.536891 
L 376.749955 130.819322 
L 377.559383 189.826559 
L 377.964098 224.541527 
L 378.368812 238.370066 
L 378.57117 238.595754 
L 378.773527 232.645789 
L 378.975884 221.402407 
L 380.392384 104.516374 
L 380.797099 94.565571 
L 381.201813 86.953719 
L 381.40417 90.728869 
L 382.011242 127.84434 
L 382.820671 210.918159 
L 383.225385 227.065132 
L 383.427743 227.72168 
L 383.6301 222.366712 
L 384.034814 200.064602 
L 385.0466 126.428658 
L 385.451315 109.686688 
L 385.653672 109.214795 
L 385.856029 113.010462 
L 386.058386 120.663348 
L 387.070172 190.852415 
L 387.474887 231.086488 
L 387.879601 253.039806 
L 388.284316 262.210959 
L 388.68903 264.734565 
L 388.891387 258.969254 
L 389.700816 215.288305 
L 390.307888 204.044924 
L 390.914959 191.262758 
L 391.117316 196.063764 
L 391.926745 235.764391 
L 392.533817 280.101888 
L 392.938531 292.514746 
L 393.140888 294.381803 
L 393.343246 293.930427 
L 393.545603 294.402321 
L 393.74796 285.415822 
L 394.355032 244.114859 
L 395.569175 187.446574 
L 395.771532 181.41454 
L 395.973889 182.62505 
L 396.176247 190.975518 
L 396.783318 233.158717 
L 397.188033 271.812971 
L 397.592747 289.7039 
L 397.795104 292.494228 
L 397.997461 289.950106 
L 398.402176 271.75142 
L 400.628105 143.683556 
L 400.830462 146.535436 
L 401.03282 156.527274 
L 401.639891 213.770039 
L 402.044606 258.271672 
L 402.44932 278.665689 
L 402.651677 282.687045 
L 402.854034 281.025158 
L 403.258749 262.764921 
L 403.663463 234.246124 
L 404.877607 127.823823 
L 405.282321 107.224634 
L 405.484678 102.998107 
L 405.687035 104.085515 
L 405.889393 114.631314 
L 406.294107 152.13661 
L 406.901179 229.834944 
L 407.305893 253.983594 
L 407.50825 259.605285 
L 407.710607 259.07184 
L 408.115322 237.754552 
L 409.73418 104.988268 
L 409.936537 100.043642 
L 410.138894 99.900022 
L 410.341251 104.516374 
L 410.948323 140.749608 
L 411.15068 156.711928 
L 411.757752 227.557543 
L 412.162466 251.706194 
L 412.364823 258.210121 
L 412.56718 259.99511 
L 412.971895 241.878493 
L 414.388395 143.437351 
L 414.79311 129.855017 
L 415.197824 123.166436 
L 415.400181 129.957603 
L 416.20961 192.719473 
L 416.614325 238.103343 
L 417.019039 261.246655 
L 417.221396 265.514215 
L 417.423753 264.960253 
L 417.828468 248.751728 
L 419.244968 150.700411 
L 419.649683 137.056527 
L 419.85204 133.219825 
L 420.054397 134.656024 
L 420.256754 143.334765 
L 421.066183 208.763861 
L 421.673255 263.954914 
L 422.077969 280.060854 
L 422.280326 282.543425 
L 422.482684 281.886877 
L 422.685041 281.72274 
L 423.089755 250.926543 
L 423.899184 181.783848 
L 424.708613 142.432012 
L 424.91097 139.251858 
L 425.113327 143.252697 
L 425.518042 169.391508 
L 425.720399 181.188852 
L 426.529828 255.809618 
L 426.934542 274.377611 
L 427.136899 278.850344 
L 427.339257 279.650511 
L 427.541614 279.8762 
L 427.743971 271.279526 
L 428.148685 230.942868 
L 428.755757 169.083751 
L 429.160471 143.457868 
L 429.565186 135.209986 
L 429.9699 139.128756 
L 430.374615 155.337281 
L 430.576972 166.970488 
L 431.386401 242.904349 
L 431.791115 255.132553 
L 431.993472 253.101358 
L 432.398187 232.809926 
L 433.207616 167.770655 
L 434.017044 97.458485 
L 434.219402 92.57541 
L 435.02883 119.965766 
L 435.433545 144.935101 
L 436.040617 216.067956 
L 436.445331 238.575237 
L 436.647688 243.704517 
L 436.850045 243.027452 
L 437.25476 222.44878 
L 437.659474 187.569676 
L 438.468903 114.179938 
L 438.67126 104.454823 
L 438.873617 105.419127 
L 439.075975 112.518051 
L 439.278332 112.066674 
L 439.480689 114.30304 
L 439.885403 132.83 
L 440.290118 157.55313 
L 440.897189 230.881317 
L 441.301904 253.162909 
L 441.504261 258.579429 
L 441.706618 259.112874 
L 442.111333 244.402099 
L 442.920762 192.452751 
L 443.527833 157.635198 
L 444.134905 134.922746 
L 444.337262 132.337589 
L 444.539619 138.73893 
L 445.146691 183.732975 
L 445.753762 252.814118 
L 446.158477 273.987786 
L 446.360834 278.932412 
L 446.563191 276.942251 
L 446.967906 258.066501 
L 448.586763 148.443528 
L 448.991478 135.271537 
L 449.193835 132.953103 
L 449.396192 139.600649 
L 450.003264 179.91679 
L 450.812693 259.830973 
L 451.217407 273.10555 
L 451.419764 273.228653 
L 451.824479 256.07634 
L 452.43155 205.747845 
L 453.038622 163.913437 
L 453.443336 146.904744 
L 453.848051 139.046687 
L 454.050408 142.411495 
L 454.252765 152.382815 
L 454.65748 180.737475 
L 454.859837 189.170012 
L 455.669266 253.778423 
L 456.07398 267.299205 
L 456.276337 268.817472 
L 456.478694 266.827311 
L 456.681052 263.729226 
L 456.883409 255.748066 
L 457.288123 228.788571 
L 457.692838 217.852945 
L 457.895195 218.550528 
L 458.299909 224.295321 
L 458.502267 224.151701 
L 458.906981 220.335517 
L 459.109338 220.868962 
L 459.514053 225.01342 
L 459.71641 229.301499 
L 460.728196 286.893055 
L 461.13291 291.304235 
L 461.537625 288.000979 
L 461.739982 279.096549 
L 462.144696 244.668821 
L 463.561197 175.649229 
L 463.763554 168.406686 
L 463.965911 169.576162 
L 464.572983 189.005875 
L 465.382412 255.830135 
L 465.584769 262.723887 
L 465.787126 265.432147 
L 465.989483 263.011127 
L 467.608341 170.684086 
L 468.620127 149.551453 
L 468.822484 152.670055 
L 469.429556 178.8499 
L 470.036627 235.436117 
L 470.441342 253.183426 
L 470.643699 255.809618 
L 470.846056 253.244978 
L 471.857842 202.444588 
L 472.869628 172.263905 
L 473.071985 172.756316 
L 473.274343 170.971326 
L 473.4767 172.22287 
L 473.679057 175.998021 
L 473.881414 182.563499 
L 474.083772 183.712458 
L 474.286129 191.365343 
L 474.8932 243.355726 
L 475.297915 259.564251 
L 475.500272 261.226137 
L 475.702629 259.194942 
L 476.107344 234.882155 
L 476.512058 212.928837 
L 477.321487 181.517126 
L 477.726201 161.410348 
L 477.928558 157.860886 
L 478.333273 162.53879 
L 478.53563 166.991005 
L 479.142702 191.857754 
L 479.952131 259.461665 
L 480.356845 269.289366 
L 480.559202 268.879023 
L 480.963917 246.843636 
L 482.785131 118.775773 
L 482.987489 112.887359 
L 483.189846 110.261168 
L 483.392203 115.882859 
L 483.999275 155.645037 
L 484.606346 226.572722 
L 485.011061 249.73655 
L 485.213418 254.127214 
L 485.415775 255.071001 
L 485.82049 235.354049 
L 486.225204 204.229578 
L 487.23699 114.487694 
L 487.439347 111.410126 
L 487.844062 117.955088 
L 488.248776 136.523081 
L 489.260562 213.852107 
L 489.665277 245.920366 
L 490.069991 260.979932 
L 490.272348 263.318884 
L 490.474705 262.190442 
L 490.677063 260.42597 
L 490.87942 250.721372 
L 491.891206 171.217532 
L 492.29592 153.552291 
L 492.498277 146.186645 
L 492.700635 144.175967 
L 492.902992 145.79682 
L 493.105349 150.597826 
L 493.712421 184.020214 
L 494.52185 255.809618 
L 495.128921 274.02882 
L 495.331278 274.17244 
L 495.533636 273.556927 
L 495.735993 266.027143 
L 496.950136 174.78751 
L 497.557208 150.49524 
L 497.759565 147.15095 
L 497.961922 150.35162 
L 498.568994 181.763331 
L 499.378422 255.358241 
L 499.58078 262.169925 
L 499.783137 264.652496 
L 499.985494 261.34924 
L 500.187851 252.855152 
L 500.794923 216.047439 
L 500.99728 210.959193 
L 501.401995 197.910305 
L 501.806709 186.68744 
L 502.009066 186.236063 
L 502.211423 188.287775 
L 502.413781 188.923806 
L 502.616138 187.261919 
L 503.020852 196.946 
L 503.223209 197.499962 
L 503.425567 204.988711 
L 504.032638 255.522378 
L 504.437353 268.550749 
L 504.63971 270.171602 
L 504.842067 267.812133 
L 505.246782 243.519863 
L 505.651496 219.781555 
L 507.270354 146.86371 
L 507.472711 143.765625 
L 507.675068 147.15095 
L 508.28214 175.095267 
L 508.889211 232.933029 
L 509.293926 250.003273 
L 509.496283 253.5117 
L 509.69864 251.685677 
L 510.103354 228.214091 
L 511.722212 122.181614 
L 512.126927 104.47534 
L 512.329284 106.055158 
L 512.936355 140.318749 
L 513.34107 179.13714 
L 513.745784 222.469298 
L 514.150499 245.120198 
L 514.352856 250.680338 
L 514.555213 251.172749 
L 514.75757 242.309353 
L 516.174071 145.858371 
L 516.376428 144.770964 
L 516.781142 154.065219 
L 516.9835 151.336442 
L 517.185857 151.869887 
L 517.590571 169.514611 
L 517.792928 173.741137 
L 517.995286 184.41004 
L 518.4 223.94653 
L 518.4 223.94653 
" clip-path="url(#p740a87c95c)" style="fill: none; stroke: #1f77b4; stroke-width: 1.5; stroke-linecap: square"/>
   </g>
   <g id="line2d_14">
    <path d="M 72 278.724553 
L 72.202357 278.724553 
L 72.809429 287.509527 
L 73.011786 282.806397 
L 73.618858 250.423538 
L 74.225929 229.618025 
L 75.035358 177.105336 
L 75.440073 166.570195 
L 75.64243 170.451897 
L 76.249501 210.768888 
L 77.05893 274.067087 
L 77.261287 281.394259 
L 77.463645 282.299847 
L 77.666002 275.514238 
L 78.070716 248.994887 
L 79.082502 205.709781 
L 79.689574 167.312549 
L 79.891931 161.244807 
L 80.094288 159.719952 
L 80.296646 164.584161 
L 81.106074 221.637623 
L 81.510789 256.290249 
L 82.11786 282.467376 
L 82.320218 285.008847 
L 82.724932 274.075419 
L 83.129646 261.031424 
L 83.736718 233.837087 
L 83.939075 229.425405 
L 84.141432 231.67386 
L 84.34379 232.167544 
L 84.546147 234.962163 
L 84.748504 235.835219 
L 85.153218 241.18835 
L 85.557933 250.922753 
L 85.76029 254.932169 
L 86.974433 305.484416 
L 87.176791 306.017559 
L 87.379148 303.2374 
L 87.986219 282.539632 
L 88.390934 261.463197 
L 88.593291 256.639937 
L 88.795648 255.85781 
L 88.998005 256.779212 
L 89.200363 258.658984 
L 89.40272 258.979733 
L 90.009791 242.614947 
L 90.212149 239.608561 
L 90.414506 239.416112 
L 90.616863 242.078089 
L 90.81922 249.61531 
L 91.628649 303.786161 
L 91.831006 306.494855 
L 92.033364 303.103668 
L 92.438078 283.433996 
L 92.842792 256.618542 
L 93.04515 249.842949 
L 93.247507 247.487872 
L 93.449864 246.905403 
L 93.854578 240.323096 
L 94.056936 233.895963 
L 94.259293 233.280816 
L 94.664007 230.294491 
L 95.068722 229.959519 
L 95.271079 234.124213 
L 95.675793 253.969472 
L 96.282865 298.289006 
L 96.485222 304.035108 
L 96.687579 301.691199 
L 96.889937 295.371544 
L 97.699365 252.680507 
L 97.901723 248.416494 
L 98.306437 245.259253 
L 98.711151 240.300511 
L 98.913509 234.822084 
L 99.115866 233.52129 
L 99.52058 226.028096 
L 99.722937 226.051029 
L 99.925295 227.184752 
L 100.330009 242.678105 
L 101.341795 301.04332 
L 101.544152 299.881543 
L 101.74651 296.966163 
L 101.948867 288.953781 
L 102.555938 252.184346 
L 102.960653 246.966781 
L 103.16301 246.198835 
L 103.567724 240.662542 
L 104.174796 225.022511 
L 104.377153 220.426918 
L 104.781868 224.120122 
L 105.186582 241.193931 
L 105.591296 268.345409 
L 105.996011 292.452655 
L 106.198368 299.134235 
L 106.400725 298.238693 
L 106.603083 295.197646 
L 106.80544 287.82835 
L 107.412511 251.917998 
L 107.817226 244.476072 
L 108.019583 242.834543 
L 108.424297 231.953093 
L 108.829012 211.428516 
L 109.031369 205.228772 
L 109.233726 205.711566 
L 110.043155 234.350627 
L 111.054941 295.055426 
L 111.257298 294.489937 
L 111.459655 291.788005 
L 111.662013 286.614677 
L 112.269084 250.548339 
L 113.078513 217.135388 
L 113.685585 191.641937 
L 113.887942 184.918445 
L 114.090299 182.699032 
L 114.292656 186.42231 
L 114.697371 205.429078 
L 115.911514 280.617889 
L 116.316228 286.068259 
L 116.518586 283.282291 
L 117.125657 258.077416 
L 117.732729 220.971529 
L 118.542158 165.816138 
L 118.946872 155.664539 
L 119.149229 155.946361 
L 119.351587 160.821482 
L 119.756301 185.179782 
L 120.56573 259.03606 
L 120.970444 277.991916 
L 121.172801 283.096851 
L 121.375159 283.930793 
L 121.779873 272.563402 
L 121.98223 263.317386 
L 122.589302 220.346138 
L 122.791659 213.87417 
L 122.994016 211.11551 
L 123.398731 198.95239 
L 123.601088 196.164313 
L 123.803445 198.551428 
L 124.612874 221.198249 
L 125.017588 252.125937 
L 125.422303 286.826848 
L 125.62466 296.421465 
L 125.827017 298.904527 
L 126.029374 296.130949 
L 126.231732 289.038066 
L 127.243518 222.382342 
L 127.850589 191.721454 
L 128.255304 166.915764 
L 128.457661 159.567368 
L 128.660018 156.554528 
L 128.862375 158.309939 
L 129.064733 169.331066 
L 129.671804 228.832345 
L 130.278876 280.698073 
L 130.481233 287.168811 
L 130.68359 288.790733 
L 130.885947 283.399408 
L 131.290662 262.93806 
L 133.111877 150.276828 
L 133.314234 144.553063 
L 133.516591 144.711405 
L 133.718948 149.607959 
L 134.123663 169.202813 
L 134.32602 181.387986 
L 134.933092 249.693898 
L 135.135449 263.598472 
L 135.337806 269.471513 
L 135.540163 271.598184 
L 135.74252 271.631608 
L 135.944878 265.568627 
L 136.349592 239.806967 
L 136.956664 200.709011 
L 137.159021 201.077789 
L 137.361378 196.191991 
L 137.563735 195.130497 
L 137.766092 192.673884 
L 137.96845 196.356584 
L 138.170807 197.567845 
L 138.373164 200.580683 
L 138.575521 200.26765 
L 138.777879 204.137509 
L 139.182593 220.57959 
L 139.789665 269.489636 
L 140.194379 285.546153 
L 140.599093 283.345748 
L 141.206165 247.510719 
L 141.408522 233.104758 
L 141.813237 221.392283 
L 142.420308 213.195808 
L 142.622665 207.402288 
L 142.825023 208.021113 
L 143.02738 207.973359 
L 143.634451 213.779193 
L 143.836809 220.847785 
L 145.050952 284.743515 
L 145.253309 283.873856 
L 145.455666 281.107931 
L 145.658024 272.554721 
L 146.265095 230.338836 
L 146.66981 221.201447 
L 147.074524 214.561524 
L 147.276881 212.427145 
L 147.479238 208.008741 
L 147.681596 207.712249 
L 148.491024 223.600508 
L 148.895739 238.765647 
L 149.705168 280.517008 
L 149.907525 285.530629 
L 150.109882 285.509115 
L 150.312239 284.24885 
L 150.514597 279.384685 
L 151.526383 239.875157 
L 151.931097 230.622466 
L 152.133454 230.709147 
L 152.335811 231.866969 
L 152.538169 233.81031 
L 152.942883 234.653542 
L 153.14524 234.906979 
L 153.347597 235.954812 
L 153.752312 242.411552 
L 153.954669 247.164518 
L 154.764098 283.258035 
L 155.168812 287.709888 
L 155.37117 287.832513 
L 155.573527 282.511774 
L 155.978241 263.455682 
L 157.192384 189.441089 
L 157.597099 173.903637 
L 158.001813 163.913821 
L 158.20417 165.227814 
L 158.608885 186.47616 
L 158.811242 202.521809 
L 159.215956 249.110106 
L 159.620671 277.022466 
L 159.823028 281.550688 
L 160.025385 279.654921 
L 160.227743 273.74463 
L 161.441886 193.603859 
L 161.8466 181.306612 
L 162.251315 177.234842 
L 162.453672 177.432108 
L 162.656029 181.088402 
L 163.263101 203.494972 
L 163.465458 212.823435 
L 164.477244 288.491249 
L 164.679601 290.654927 
L 165.084316 273.278708 
L 165.893744 225.082722 
L 166.500816 214.650498 
L 167.310245 172.557872 
L 167.512602 172.545818 
L 167.714959 178.97963 
L 168.524388 229.595669 
L 169.13146 272.758235 
L 169.333817 280.92952 
L 169.536174 281.170297 
L 169.738531 278.849784 
L 169.940888 271.662301 
L 170.54796 230.707769 
L 171.155032 189.052796 
L 171.559746 170.087361 
L 171.964461 158.924849 
L 172.166818 156.178425 
L 172.369175 156.658731 
L 172.773889 173.362308 
L 173.178604 203.030165 
L 173.785675 258.723762 
L 174.19039 282.454188 
L 174.392747 283.621911 
L 174.595104 281.362368 
L 174.797461 276.006255 
L 176.011605 207.316006 
L 176.618676 183.20198 
L 177.023391 172.51409 
L 177.225748 171.494234 
L 177.630462 182.066506 
L 178.035177 207.957001 
L 178.844606 281.181565 
L 179.046963 290.991013 
L 179.24932 291.686145 
L 179.451677 288.950833 
L 179.856392 269.11213 
L 181.879964 153.876758 
L 182.082321 153.949563 
L 182.284678 157.395949 
L 182.487035 163.239218 
L 182.89175 192.474692 
L 183.498821 249.951006 
L 183.903536 267.278985 
L 184.105893 269.913086 
L 184.30825 269.35204 
L 184.712965 260.725234 
L 184.915322 254.435918 
L 185.117679 244.386976 
L 186.129465 153.012296 
L 186.53418 140.042097 
L 186.736537 143.96515 
L 186.938894 151.1509 
L 187.343608 174.670215 
L 187.95068 211.555626 
L 188.557752 255.10852 
L 188.962466 270.615709 
L 189.164823 272.289128 
L 189.36718 268.84731 
L 189.771895 252.350204 
L 190.176609 227.634941 
L 190.986038 168.972373 
L 191.188395 160.081229 
L 191.390752 156.474818 
L 191.59311 156.71092 
L 191.795467 163.473463 
L 193.00961 229.074508 
L 193.414325 261.957498 
L 193.616682 272.617156 
L 193.819039 277.169347 
L 194.021396 277.332918 
L 194.223753 273.209493 
L 194.628468 258.331602 
L 195.033182 231.469499 
L 195.640254 194.007948 
L 195.842611 188.494686 
L 196.044968 190.856531 
L 196.247325 195.710793 
L 196.449683 204.409248 
L 196.854397 212.934659 
L 197.259112 222.640499 
L 197.461469 225.264336 
L 197.663826 233.768062 
L 198.473255 286.373284 
L 198.675612 290.307816 
L 198.877969 286.465159 
L 199.080326 277.400276 
L 199.889755 215.888383 
L 200.901541 180.970666 
L 201.306256 172.072863 
L 201.508613 171.120143 
L 201.71097 172.249619 
L 201.913327 177.054213 
L 202.520399 213.264927 
L 203.127471 262.97856 
L 203.329828 274.779955 
L 203.532185 277.004504 
L 203.734542 271.36551 
L 204.139257 243.967503 
L 204.543971 215.334848 
L 205.3534 186.477771 
L 205.960471 168.669919 
L 206.162829 169.210952 
L 206.7699 191.41518 
L 207.174615 206.790542 
L 208.186401 271.485736 
L 208.388758 271.773148 
L 208.591115 269.006805 
L 208.793472 262.355751 
L 209.602901 208.261836 
L 210.007616 196.478325 
L 210.614687 167.775947 
L 211.019402 143.72835 
L 211.221759 141.567869 
L 211.424116 146.98421 
L 212.233545 202.094506 
L 212.840617 254.73552 
L 213.042974 263.665606 
L 213.245331 265.060762 
L 213.447688 264.204371 
L 213.650045 257.680298 
L 215.268903 148.575264 
L 215.673617 122.109931 
L 215.875975 116.314787 
L 216.078332 117.440523 
L 216.280689 123.065402 
L 216.483046 132.540329 
L 217.090118 180.760237 
L 217.697189 238.79984 
L 218.101904 252.062618 
L 218.304261 254.961402 
L 218.506618 255.029426 
L 218.911333 243.031289 
L 219.11369 233.779994 
L 220.327833 151.058451 
L 220.53019 147.908364 
L 220.732548 152.023613 
L 221.541976 203.200408 
L 221.946691 224.444513 
L 222.553762 266.066403 
L 222.958477 280.250424 
L 223.160834 281.17236 
L 223.363191 277.254984 
L 223.970263 251.235876 
L 224.577335 216.465517 
L 224.779692 213.984855 
L 224.982049 214.808781 
L 225.386763 218.539094 
L 225.791478 228.246196 
L 226.803264 247.067797 
L 227.005621 257.81474 
L 227.410335 288.708424 
L 227.612693 298.022522 
L 227.81505 300.304002 
L 228.017407 297.737602 
L 228.219764 291.801859 
L 229.23155 237.279687 
L 229.433908 236.171576 
L 229.636265 234.018748 
L 229.838622 227.222133 
L 230.243336 206.434182 
L 230.850408 193.763367 
L 231.052765 194.649704 
L 231.255122 201.822112 
L 231.862194 246.326846 
L 232.469266 290.842736 
L 232.671623 292.5706 
L 232.87398 288.055054 
L 233.278694 267.695199 
L 233.885766 237.200553 
L 234.492838 209.126263 
L 235.099909 191.562404 
L 235.302267 185.942733 
L 235.504624 185.433359 
L 235.706981 190.23327 
L 236.314053 216.986316 
L 237.325839 286.680745 
L 237.528196 288.438879 
L 237.730553 286.104761 
L 237.93291 278.599578 
L 238.742339 231.66244 
L 239.349411 210.781619 
L 239.754125 199.568536 
L 240.15884 197.235592 
L 240.361197 197.04444 
L 240.563554 199.933373 
L 240.968268 213.548075 
L 242.182412 289.709565 
L 242.384769 291.756308 
L 242.587126 289.579934 
L 242.789483 282.780147 
L 243.396555 245.369184 
L 245.015413 187.88344 
L 245.21777 184.668077 
L 245.420127 187.356813 
L 245.622484 191.821229 
L 246.027199 215.364963 
L 247.038985 284.058193 
L 247.241342 287.922152 
L 247.443699 286.78268 
L 247.646056 280.489244 
L 249.871985 142.952068 
L 250.074343 146.188434 
L 250.479057 165.161971 
L 250.883772 193.406141 
L 251.6932 256.101391 
L 252.097915 270.533437 
L 252.300272 271.012042 
L 252.502629 267.625011 
L 253.109701 243.268806 
L 254.323844 148.615848 
L 254.526201 142.501072 
L 254.728558 143.067471 
L 255.133273 152.975651 
L 255.537987 173.088048 
L 255.942702 205.832149 
L 256.549773 256.909223 
L 256.954488 275.917302 
L 257.156845 278.907382 
L 257.359202 277.098935 
L 257.763917 262.397949 
L 258.168631 233.316651 
L 258.775703 187.959897 
L 259.180417 171.512812 
L 259.382774 165.642361 
L 259.585131 165.018885 
L 259.989846 173.957515 
L 260.39456 187.254133 
L 260.799275 211.779676 
L 261.406346 270.234295 
L 261.811061 285.064793 
L 262.013418 283.019789 
L 262.215775 276.190549 
L 262.62049 247.832153 
L 263.025204 220.838729 
L 263.227561 214.524025 
L 263.429918 214.701113 
L 263.834633 219.151359 
L 264.03699 220.488153 
L 264.441704 227.885564 
L 264.644062 227.985828 
L 264.846419 228.642149 
L 265.048776 230.504757 
L 265.655848 253.947459 
L 266.262919 290.398845 
L 266.465277 295.607696 
L 266.667634 295.549207 
L 266.869991 290.346163 
L 267.881777 245.05979 
L 268.691206 225.855499 
L 269.09592 215.416684 
L 269.500635 212.931118 
L 269.905349 216.580098 
L 270.107706 222.806691 
L 271.32185 283.815703 
L 271.524207 285.024969 
L 271.726564 282.2176 
L 271.928921 276.225991 
L 272.940707 220.046035 
L 273.750136 175.136502 
L 274.15485 155.869262 
L 274.559565 151.360291 
L 274.761922 153.996386 
L 275.166636 176.620477 
L 275.368994 189.229527 
L 275.976065 246.759902 
L 276.178422 256.709988 
L 276.38078 259.226003 
L 276.583137 260.072045 
L 276.785494 252.34884 
L 278.606709 144.89363 
L 278.809066 140.621789 
L 279.011423 139.712032 
L 279.213781 142.86577 
L 279.618495 156.566014 
L 280.023209 183.741947 
L 280.427924 222.908357 
L 280.832638 257.733867 
L 281.034995 269.518273 
L 281.237353 273.560729 
L 281.43971 272.854579 
L 281.642067 267.054687 
L 282.046782 242.181641 
L 283.463282 168.08506 
L 283.867996 156.189761 
L 284.070354 157.218985 
L 284.272711 162.089382 
L 284.677425 185.884349 
L 285.689211 273.510092 
L 285.891568 282.37651 
L 286.093926 285.843637 
L 286.296283 286.04166 
L 286.49864 282.997066 
L 287.105712 257.675512 
L 288.319855 173.771495 
L 288.724569 160.000472 
L 288.926927 158.108849 
L 289.129284 160.601079 
L 289.331641 166.397974 
L 289.533998 176.094064 
L 290.748141 271.45736 
L 290.950499 276.476957 
L 291.152856 277.108333 
L 291.355213 276.127422 
L 291.55757 271.718927 
L 291.962285 253.000869 
L 292.974071 157.174387 
L 293.378785 137.893669 
L 293.581142 134.41328 
L 293.7835 135.201403 
L 294.188214 147.846715 
L 294.592928 170.249583 
L 294.795286 184.188643 
L 295.402357 246.599917 
L 295.807072 263.965501 
L 296.009429 263.982297 
L 296.211786 258.344795 
L 296.6165 227.530728 
L 297.830644 108.881219 
L 298.235358 86.153236 
L 298.437715 84.392491 
L 298.640073 88.355486 
L 299.044787 105.564289 
L 299.449501 134.227677 
L 299.854216 174.572064 
L 300.25893 225.053844 
L 300.461287 235.237671 
L 300.663645 239.426308 
L 300.866002 236.276016 
L 301.068359 228.377983 
L 302.080145 146.081333 
L 302.687217 78.212363 
L 302.889574 68.84756 
L 303.091931 66.867078 
L 303.294288 76.988849 
L 304.710789 194.364891 
L 305.115503 234.664433 
L 305.520218 250.935283 
L 305.722575 247.893254 
L 305.924932 237.718736 
L 306.532004 198.752254 
L 307.54379 127.862814 
L 307.948504 115.555657 
L 308.150861 117.217746 
L 308.555576 138.681381 
L 309.567362 213.958724 
L 309.972076 253.847061 
L 310.174433 263.606724 
L 310.376791 265.582319 
L 310.579148 262.756998 
L 310.781505 257.88962 
L 311.186219 225.105261 
L 312.198005 135.018967 
L 312.60272 117.561928 
L 312.805077 113.859184 
L 313.007434 115.171346 
L 313.412149 133.372259 
L 314.01922 174.360245 
L 315.031006 253.042619 
L 315.233364 256.684738 
L 315.435721 253.667354 
L 315.638078 245.199037 
L 316.447507 197.804356 
L 316.852221 192.053327 
L 317.054578 189.395787 
L 317.459293 177.416434 
L 317.66165 177.172367 
L 318.268722 189.880126 
L 318.875793 211.271402 
L 319.887579 268.882397 
L 320.089937 273.001834 
L 320.292294 272.529861 
L 320.494651 268.930704 
L 321.30408 237.231063 
L 321.506437 228.248574 
L 322.518223 160.744614 
L 322.72058 155.188072 
L 322.922937 155.157234 
L 323.327652 163.460805 
L 323.530009 171.815587 
L 324.137081 221.594583 
L 324.541795 250.480722 
L 324.94651 268.380621 
L 325.148867 270.656742 
L 325.351224 269.968683 
L 325.755938 255.816923 
L 326.160653 226.608693 
L 327.374796 130.993973 
L 327.577153 132.282252 
L 327.77951 135.527542 
L 328.386582 157.177814 
L 329.600725 263.435424 
L 329.803083 270.802327 
L 330.00544 270.883383 
L 330.207797 264.949454 
L 330.410154 253.241253 
L 331.42194 167.074695 
L 331.826655 145.700967 
L 332.029012 140.411464 
L 332.231369 139.565967 
L 332.433726 143.661453 
L 333.040798 171.983839 
L 333.647869 206.707828 
L 334.254941 263.662222 
L 334.659655 277.870038 
L 334.862013 275.450844 
L 335.266727 253.696207 
L 335.671442 224.552486 
L 336.885585 177.232109 
L 337.087942 178.415001 
L 337.492656 182.133356 
L 337.897371 193.933701 
L 338.504442 226.608322 
L 339.111514 270.252518 
L 339.313871 278.64723 
L 339.516228 280.585494 
L 339.718586 277.271369 
L 339.920943 269.645735 
L 340.730372 218.050274 
L 341.135086 200.410802 
L 341.539801 182.165044 
L 342.146872 155.713119 
L 342.349229 154.058434 
L 342.551587 156.471926 
L 342.956301 167.914197 
L 343.361015 192.088845 
L 343.968087 245.857028 
L 344.170444 254.213034 
L 344.372801 255.883381 
L 344.575159 253.730715 
L 344.777516 248.098438 
L 345.586945 194.010703 
L 346.598731 113.870402 
L 346.801088 107.372829 
L 347.003445 108.089637 
L 347.205802 113.31516 
L 347.812874 140.504455 
L 348.419946 194.164826 
L 348.82466 231.727227 
L 349.229374 251.32042 
L 349.431732 249.980108 
L 349.634089 245.454565 
L 350.038803 219.507107 
L 350.443518 190.739387 
L 351.455304 113.36938 
L 351.657661 106.447946 
L 351.860018 105.57618 
L 352.062375 109.155425 
L 352.46709 125.319093 
L 352.669447 135.739775 
L 353.88359 254.671104 
L 354.085947 261.149036 
L 354.288305 259.991279 
L 354.490662 257.031958 
L 355.097733 228.971165 
L 355.502448 187.566525 
L 356.109519 118.186903 
L 356.514234 105.792426 
L 356.716591 104.519266 
L 356.918948 106.454652 
L 357.121306 111.872844 
L 357.52602 131.306084 
L 358.133092 196.714455 
L 358.537806 241.411386 
L 358.94252 258.30494 
L 359.144878 259.569752 
L 359.347235 255.454238 
L 359.751949 238.575647 
L 360.156664 205.510687 
L 360.966092 109.095097 
L 361.16845 100.055498 
L 361.370807 96.061877 
L 361.573164 94.36166 
L 361.775521 95.044053 
L 361.977879 97.603136 
L 362.382593 114.862027 
L 362.787307 150.400046 
L 363.596736 240.437131 
L 363.799093 246.635965 
L 364.001451 244.679193 
L 364.203808 236.10743 
L 365.013237 165.368987 
L 365.620308 87.188823 
L 366.025023 59.47276 
L 366.22738 55.8 
L 366.429737 57.671679 
L 366.834451 70.071223 
L 367.239166 92.398429 
L 367.846238 156.340344 
L 368.250952 209.18367 
L 368.453309 220.004619 
L 368.655666 224.198084 
L 368.858024 221.353076 
L 369.262738 202.700784 
L 369.667452 180.76508 
L 370.072167 136.641406 
L 370.679238 72.511358 
L 370.881596 64.050329 
L 371.083953 60.718622 
L 371.28631 63.442174 
L 371.691024 82.55378 
L 372.095739 110.42831 
L 373.309882 224.278152 
L 373.512239 230.396603 
L 373.714597 228.829232 
L 374.321668 208.56276 
L 374.524025 201.471405 
L 374.726383 188.045846 
L 375.333454 113.260852 
L 375.535811 99.693056 
L 375.738169 94.114651 
L 375.940526 91.804745 
L 376.142883 92.364351 
L 376.34524 98.106701 
L 376.749955 120.656173 
L 377.357026 175.095123 
L 378.166455 240.859512 
L 378.368812 246.007459 
L 378.57117 246.091248 
L 378.773527 238.685173 
L 379.380598 191.013549 
L 380.190027 111.413192 
L 380.594742 94.619462 
L 380.797099 91.409484 
L 380.999456 90.470323 
L 381.40417 96.621558 
L 381.606528 102.386643 
L 381.808885 113.802004 
L 383.023028 221.901662 
L 383.225385 228.245791 
L 383.427743 225.608328 
L 383.832457 208.025183 
L 384.237171 187.023914 
L 384.237171 187.023914 
" clip-path="url(#p740a87c95c)" style="fill: none; stroke: #ff7f0e; stroke-width: 1.5; stroke-linecap: square"/>
   </g>
   <g id="line2d_15">
    <path d="M 384.439529 174.32106 
L 385.248957 124.627189 
L 385.653672 108.786551 
L 385.856029 107.264313 
L 386.058386 109.234774 
L 386.260743 116.937999 
L 386.867815 161.714687 
L 387.879601 236.075509 
L 388.081958 240.756991 
L 388.284316 238.721167 
L 388.486673 231.724566 
L 389.296102 182.181269 
L 390.307888 115.38303 
L 390.712602 102.408144 
L 390.914959 103.522282 
L 391.117316 109.430379 
L 391.724388 146.978103 
L 392.736174 224.008028 
L 392.938531 228.725261 
L 393.140888 228.433727 
L 393.545603 213.486137 
L 395.366818 118.707121 
L 395.569175 116.724807 
L 395.771532 118.814508 
L 396.176247 138.114758 
L 397.39039 224.991744 
L 397.592747 233.016326 
L 397.795104 236.230365 
L 397.997461 235.095342 
L 398.199819 229.510997 
L 398.80689 199.847666 
L 400.021034 130.250653 
L 400.223391 123.893848 
L 400.425748 121.989412 
L 400.628105 124.173557 
L 401.03282 140.918675 
L 401.639891 182.475955 
L 402.246963 223.444576 
L 402.651677 233.43871 
L 402.854034 232.12639 
L 403.056392 227.142457 
L 403.663463 200.257912 
L 404.675249 146.47862 
L 405.079964 135.271871 
L 405.282321 134.558005 
L 405.484678 138.258511 
L 405.889393 156.626909 
L 407.103536 231.692716 
L 407.305893 237.223955 
L 407.50825 238.793754 
L 407.710607 236.933274 
L 407.912965 231.733126 
L 408.722393 193.659279 
L 409.329465 161.222857 
L 409.73418 147.485731 
L 409.936537 144.431658 
L 410.138894 144.831033 
L 410.341251 149.163189 
L 410.745966 166.616158 
L 411.960109 235.052053 
L 412.162466 239.388288 
L 412.364823 239.94058 
L 412.56718 237.693296 
L 412.971895 223.967326 
L 414.590752 157.522383 
L 414.79311 155.873967 
L 414.995467 158.025025 
L 415.400181 171.316393 
L 416.007253 204.046315 
L 416.411967 226.939706 
L 416.816682 239.731009 
L 417.019039 242.494129 
L 417.221396 242.089161 
L 417.423753 238.877815 
L 417.828468 225.080455 
L 419.244968 170.073195 
L 419.447325 167.960496 
L 419.649683 168.573855 
L 419.85204 172.086159 
L 420.256754 185.214265 
L 421.470898 238.324432 
L 421.673255 242.02854 
L 421.875612 243.125732 
L 422.077969 241.299916 
L 422.482684 231.592056 
L 423.899184 182.714812 
L 424.101541 180.763092 
L 424.303898 180.771717 
L 424.506256 182.723908 
L 424.708613 186.605226 
L 425.113327 200.219902 
L 425.922756 231.248482 
L 426.327471 240.478042 
L 426.529828 242.086565 
L 426.732185 241.544189 
L 426.934542 238.729176 
L 427.339257 228.198245 
L 428.351043 197.032334 
L 428.755757 192.092372 
L 428.958114 191.853989 
L 429.160471 192.957277 
L 429.362829 195.952963 
L 429.9699 212.317429 
L 430.779329 234.166533 
L 431.184044 239.159481 
L 431.386401 239.142096 
L 431.588758 237.378587 
L 431.993472 229.058874 
L 433.005258 204.036943 
L 433.409973 200.987569 
L 433.61233 200.874501 
L 433.814687 202.176421 
L 434.219402 208.460822 
L 435.433545 231.043905 
L 435.838259 235.050349 
L 436.040617 235.196507 
L 436.242974 233.999356 
L 436.647688 227.635234 
L 437.457117 210.572395 
L 437.861831 207.947321 
L 438.064189 207.632406 
L 438.266546 208.082747 
L 438.468903 209.296385 
L 438.873617 213.954165 
L 440.087761 227.44879 
L 440.492475 230.182049 
L 440.694832 230.310771 
L 440.897189 229.430108 
L 441.301904 224.548716 
L 442.111333 212.566408 
L 442.31369 211.679086 
L 442.516047 211.661252 
L 442.718404 212.137855 
L 443.123119 213.95863 
L 444.134905 220.331369 
L 445.146691 225.593545 
L 445.349048 225.691519 
L 445.551405 224.939294 
L 445.95612 221.311101 
L 446.563191 215.383789 
L 446.967906 213.893319 
L 447.170263 213.91182 
L 447.574977 215.162351 
L 448.384406 218.283795 
L 448.991478 219.348347 
L 449.800907 221.683467 
L 450.003264 221.586999 
L 450.407978 220.137173 
L 451.01505 216.725666 
L 451.419764 215.604915 
L 451.622121 215.299717 
L 451.824479 215.359243 
L 452.229193 216.153347 
L 452.836265 217.374216 
L 453.848051 218.239397 
L 454.252765 218.803987 
L 454.455122 218.905694 
L 454.65748 218.821717 
L 455.062194 218.165582 
L 455.871623 216.363831 
L 456.276337 216.113915 
L 456.681052 216.251792 
L 457.490481 217.05791 
L 459.311695 217.598988 
L 459.514053 217.52977 
L 460.728196 216.489345 
L 461.335267 216.526099 
L 461.942339 216.779258 
L 462.347053 216.905169 
L 464.168268 216.9898 
L 465.787126 216.615612 
L 468.822484 216.833016 
L 471.048413 216.740707 
L 473.071985 216.802224 
L 479.749773 216.758428 
L 502.413781 216.769786 
L 518.4 216.769863 
L 518.4 216.769863 
" clip-path="url(#p740a87c95c)" style="fill: none; stroke: #2ca02c; stroke-width: 1.5; stroke-linecap: square"/>
   </g>
   <g id="patch_3">
    <path d="M 72 320.4 
L 72 43.2 
" style="fill: none; stroke: #000000; stroke-width: 0.8; stroke-linejoin: miter; stroke-linecap: square"/>
   </g>
   <g id="patch_4">
    <path d="M 518.4 320.4 
L 518.4 43.2 
" style="fill: none; stroke: #000000; stroke-width: 0.8; stroke-linejoin: miter; stroke-linecap: square"/>
   </g>
   <g id="patch_5">
    <path d="M 72 320.4 
L 518.4 320.4 
" style="fill: none; stroke: #000000; stroke-width: 0.8; stroke-linejoin: miter; stroke-linecap: square"/>
   </g>
   <g id="patch_6">
    <path d="M 72 43.2 
L 518.4 43.2 
" style="fill: none; stroke: #000000; stroke-width: 0.8; stroke-linejoin: miter; stroke-linecap: square"/>
   </g>
   <g id="text_13">
    <!-- Classic Transformer - model_20231123165132 -->
    <g transform="translate(155.436563 37.2) scale(0.12 -0.12)">
     <defs>
      <path id="DejaVuSans-43" d="M 4122 4306 
L 4122 3641 
Q 3803 3938 3442 4084 
Q 3081 4231 2675 4231 
Q 1875 4231 1450 3742 
Q 1025 3253 1025 2328 
Q 1025 1406 1450 917 
Q 1875 428 2675 428 
Q 3081 428 3442 575 
Q 3803 722 4122 1019 
L 4122 359 
Q 3791 134 3420 21 
Q 3050 -91 2638 -91 
Q 1578 -91 968 557 
Q 359 1206 359 2328 
Q 359 3453 968 4101 
Q 1578 4750 2638 4750 
Q 3056 4750 3426 4639 
Q 3797 4528 4122 4306 
z
" transform="scale(0.015625)"/>
      <path id="DejaVuSans-6c" d="M 603 4863 
L 1178 4863 
L 1178 0 
L 603 0 
L 603 4863 
z
" transform="scale(0.015625)"/>
      <path id="DejaVuSans-61" d="M 2194 1759 
Q 1497 1759 1228 1600 
Q 959 1441 959 1056 
Q 959 750 1161 570 
Q 1363 391 1709 391 
Q 2188 391 2477 730 
Q 2766 1069 2766 1631 
L 2766 1759 
L 2194 1759 
z
M 3341 1997 
L 3341 0 
L 2766 0 
L 2766 531 
Q 2569 213 2275 61 
Q 1981 -91 1556 -91 
Q 1019 -91 701 211 
Q 384 513 384 1019 
Q 384 1609 779 1909 
Q 1175 2209 1959 2209 
L 2766 2209 
L 2766 2266 
Q 2766 2663 2505 2880 
Q 2244 3097 1772 3097 
Q 1472 3097 1187 3025 
Q 903 2953 641 2809 
L 641 3341 
Q 956 3463 1253 3523 
Q 1550 3584 1831 3584 
Q 2591 3584 2966 3190 
Q 3341 2797 3341 1997 
z
" transform="scale(0.015625)"/>
      <path id="DejaVuSans-73" d="M 2834 3397 
L 2834 2853 
Q 2591 2978 2328 3040 
Q 2066 3103 1784 3103 
Q 1356 3103 1142 2972 
Q 928 2841 928 2578 
Q 928 2378 1081 2264 
Q 1234 2150 1697 2047 
L 1894 2003 
Q 2506 1872 2764 1633 
Q 3022 1394 3022 966 
Q 3022 478 2636 193 
Q 2250 -91 1575 -91 
Q 1294 -91 989 -36 
Q 684 19 347 128 
L 347 722 
Q 666 556 975 473 
Q 1284 391 1588 391 
Q 1994 391 2212 530 
Q 2431 669 2431 922 
Q 2431 1156 2273 1281 
Q 2116 1406 1581 1522 
L 1381 1569 
Q 847 1681 609 1914 
Q 372 2147 372 2553 
Q 372 3047 722 3315 
Q 1072 3584 1716 3584 
Q 2034 3584 2315 3537 
Q 2597 3491 2834 3397 
z
" transform="scale(0.015625)"/>
      <path id="DejaVuSans-69" d="M 603 3500 
L 1178 3500 
L 1178 0 
L 603 0 
L 603 3500 
z
M 603 4863 
L 1178 4863 
L 1178 4134 
L 603 4134 
L 603 4863 
z
" transform="scale(0.015625)"/>
      <path id="DejaVuSans-63" d="M 3122 3366 
L 3122 2828 
Q 2878 2963 2633 3030 
Q 2388 3097 2138 3097 
Q 1578 3097 1268 2742 
Q 959 2388 959 1747 
Q 959 1106 1268 751 
Q 1578 397 2138 397 
Q 2388 397 2633 464 
Q 2878 531 3122 666 
L 3122 134 
Q 2881 22 2623 -34 
Q 2366 -91 2075 -91 
Q 1284 -91 818 406 
Q 353 903 353 1747 
Q 353 2603 823 3093 
Q 1294 3584 2113 3584 
Q 2378 3584 2631 3529 
Q 2884 3475 3122 3366 
z
" transform="scale(0.015625)"/>
      <path id="DejaVuSans-20" transform="scale(0.015625)"/>
      <path id="DejaVuSans-54" d="M -19 4666 
L 3928 4666 
L 3928 4134 
L 2272 4134 
L 2272 0 
L 1638 0 
L 1638 4134 
L -19 4134 
L -19 4666 
z
" transform="scale(0.015625)"/>
      <path id="DejaVuSans-72" d="M 2631 2963 
Q 2534 3019 2420 3045 
Q 2306 3072 2169 3072 
Q 1681 3072 1420 2755 
Q 1159 2438 1159 1844 
L 1159 0 
L 581 0 
L 581 3500 
L 1159 3500 
L 1159 2956 
Q 1341 3275 1631 3429 
Q 1922 3584 2338 3584 
Q 2397 3584 2469 3576 
Q 2541 3569 2628 3553 
L 2631 2963 
z
" transform="scale(0.015625)"/>
      <path id="DejaVuSans-6e" d="M 3513 2113 
L 3513 0 
L 2938 0 
L 2938 2094 
Q 2938 2591 2744 2837 
Q 2550 3084 2163 3084 
Q 1697 3084 1428 2787 
Q 1159 2491 1159 1978 
L 1159 0 
L 581 0 
L 581 3500 
L 1159 3500 
L 1159 2956 
Q 1366 3272 1645 3428 
Q 1925 3584 2291 3584 
Q 2894 3584 3203 3211 
Q 3513 2838 3513 2113 
z
" transform="scale(0.015625)"/>
      <path id="DejaVuSans-66" d="M 2375 4863 
L 2375 4384 
L 1825 4384 
Q 1516 4384 1395 4259 
Q 1275 4134 1275 3809 
L 1275 3500 
L 2222 3500 
L 2222 3053 
L 1275 3053 
L 1275 0 
L 697 0 
L 697 3053 
L 147 3053 
L 147 3500 
L 697 3500 
L 697 3744 
Q 697 4328 969 4595 
Q 1241 4863 1831 4863 
L 2375 4863 
z
" transform="scale(0.015625)"/>
      <path id="DejaVuSans-6f" d="M 1959 3097 
Q 1497 3097 1228 2736 
Q 959 2375 959 1747 
Q 959 1119 1226 758 
Q 1494 397 1959 397 
Q 2419 397 2687 759 
Q 2956 1122 2956 1747 
Q 2956 2369 2687 2733 
Q 2419 3097 1959 3097 
z
M 1959 3584 
Q 2709 3584 3137 3096 
Q 3566 2609 3566 1747 
Q 3566 888 3137 398 
Q 2709 -91 1959 -91 
Q 1206 -91 779 398 
Q 353 888 353 1747 
Q 353 2609 779 3096 
Q 1206 3584 1959 3584 
z
" transform="scale(0.015625)"/>
      <path id="DejaVuSans-6d" d="M 3328 2828 
Q 3544 3216 3844 3400 
Q 4144 3584 4550 3584 
Q 5097 3584 5394 3201 
Q 5691 2819 5691 2113 
L 5691 0 
L 5113 0 
L 5113 2094 
Q 5113 2597 4934 2840 
Q 4756 3084 4391 3084 
Q 3944 3084 3684 2787 
Q 3425 2491 3425 1978 
L 3425 0 
L 2847 0 
L 2847 2094 
Q 2847 2600 2669 2842 
Q 2491 3084 2119 3084 
Q 1678 3084 1418 2786 
Q 1159 2488 1159 1978 
L 1159 0 
L 581 0 
L 581 3500 
L 1159 3500 
L 1159 2956 
Q 1356 3278 1631 3431 
Q 1906 3584 2284 3584 
Q 2666 3584 2933 3390 
Q 3200 3197 3328 2828 
z
" transform="scale(0.015625)"/>
      <path id="DejaVuSans-65" d="M 3597 1894 
L 3597 1613 
L 953 1613 
Q 991 1019 1311 708 
Q 1631 397 2203 397 
Q 2534 397 2845 478 
Q 3156 559 3463 722 
L 3463 178 
Q 3153 47 2828 -22 
Q 2503 -91 2169 -91 
Q 1331 -91 842 396 
Q 353 884 353 1716 
Q 353 2575 817 3079 
Q 1281 3584 2069 3584 
Q 2775 3584 3186 3129 
Q 3597 2675 3597 1894 
z
M 3022 2063 
Q 3016 2534 2758 2815 
Q 2500 3097 2075 3097 
Q 1594 3097 1305 2825 
Q 1016 2553 972 2059 
L 3022 2063 
z
" transform="scale(0.015625)"/>
      <path id="DejaVuSans-64" d="M 2906 2969 
L 2906 4863 
L 3481 4863 
L 3481 0 
L 2906 0 
L 2906 525 
Q 2725 213 2448 61 
Q 2172 -91 1784 -91 
Q 1150 -91 751 415 
Q 353 922 353 1747 
Q 353 2572 751 3078 
Q 1150 3584 1784 3584 
Q 2172 3584 2448 3432 
Q 2725 3281 2906 2969 
z
M 947 1747 
Q 947 1113 1208 752 
Q 1469 391 1925 391 
Q 2381 391 2643 752 
Q 2906 1113 2906 1747 
Q 2906 2381 2643 2742 
Q 2381 3103 1925 3103 
Q 1469 3103 1208 2742 
Q 947 2381 947 1747 
z
" transform="scale(0.015625)"/>
      <path id="DejaVuSans-5f" d="M 3263 -1063 
L 3263 -1509 
L -63 -1509 
L -63 -1063 
L 3263 -1063 
z
" transform="scale(0.015625)"/>
     </defs>
     <use xlink:href="#DejaVuSans-43"/>
     <use xlink:href="#DejaVuSans-6c" x="69.824219"/>
     <use xlink:href="#DejaVuSans-61" x="97.607422"/>
     <use xlink:href="#DejaVuSans-73" x="158.886719"/>
     <use xlink:href="#DejaVuSans-73" x="210.986328"/>
     <use xlink:href="#DejaVuSans-69" x="263.085938"/>
     <use xlink:href="#DejaVuSans-63" x="290.869141"/>
     <use xlink:href="#DejaVuSans-20" x="345.849609"/>
     <use xlink:href="#DejaVuSans-54" x="377.636719"/>
     <use xlink:href="#DejaVuSans-72" x="423.970703"/>
     <use xlink:href="#DejaVuSans-61" x="465.083984"/>
     <use xlink:href="#DejaVuSans-6e" x="526.363281"/>
     <use xlink:href="#DejaVuSans-73" x="589.742188"/>
     <use xlink:href="#DejaVuSans-66" x="641.841797"/>
     <use xlink:href="#DejaVuSans-6f" x="677.046875"/>
     <use xlink:href="#DejaVuSans-72" x="738.228516"/>
     <use xlink:href="#DejaVuSans-6d" x="777.591797"/>
     <use xlink:href="#DejaVuSans-65" x="875.003906"/>
     <use xlink:href="#DejaVuSans-72" x="936.527344"/>
     <use xlink:href="#DejaVuSans-20" x="977.640625"/>
     <use xlink:href="#DejaVuSans-2d" x="1009.427734"/>
     <use xlink:href="#DejaVuSans-20" x="1045.511719"/>
     <use xlink:href="#DejaVuSans-6d" x="1077.298828"/>
     <use xlink:href="#DejaVuSans-6f" x="1174.710938"/>
     <use xlink:href="#DejaVuSans-64" x="1235.892578"/>
     <use xlink:href="#DejaVuSans-65" x="1299.369141"/>
     <use xlink:href="#DejaVuSans-6c" x="1360.892578"/>
     <use xlink:href="#DejaVuSans-5f" x="1388.675781"/>
     <use xlink:href="#DejaVuSans-32" x="1438.675781"/>
     <use xlink:href="#DejaVuSans-30" x="1502.298828"/>
     <use xlink:href="#DejaVuSans-32" x="1565.921875"/>
     <use xlink:href="#DejaVuSans-33" x="1629.544922"/>
     <use xlink:href="#DejaVuSans-31" x="1693.167969"/>
     <use xlink:href="#DejaVuSans-31" x="1756.791016"/>
     <use xlink:href="#DejaVuSans-32" x="1820.414062"/>
     <use xlink:href="#DejaVuSans-33" x="1884.037109"/>
     <use xlink:href="#DejaVuSans-31" x="1947.660156"/>
     <use xlink:href="#DejaVuSans-36" x="2011.283203"/>
     <use xlink:href="#DejaVuSans-35" x="2074.90625"/>
     <use xlink:href="#DejaVuSans-31" x="2138.529297"/>
     <use xlink:href="#DejaVuSans-33" x="2202.152344"/>
     <use xlink:href="#DejaVuSans-32" x="2265.775391"/>
    </g>
   </g>
   <g id="legend_1">
    <g id="patch_7">
     <path d="M 79 95.234375 
L 161.517188 95.234375 
Q 163.517188 95.234375 163.517188 93.234375 
L 163.517188 50.2 
Q 163.517188 48.2 161.517188 48.2 
L 79 48.2 
Q 77 48.2 77 50.2 
L 77 93.234375 
Q 77 95.234375 79 95.234375 
z
" style="fill: #ffffff; opacity: 0.8; stroke: #cccccc; stroke-linejoin: miter"/>
    </g>
    <g id="line2d_16">
     <path d="M 81 56.298437 
L 91 56.298437 
L 101 56.298437 
" style="fill: none; stroke: #1f77b4; stroke-width: 1.5; stroke-linecap: square"/>
    </g>
    <g id="text_14">
     <!-- Measured -->
     <g transform="translate(109 59.798437) scale(0.1 -0.1)">
      <defs>
       <path id="DejaVuSans-4d" d="M 628 4666 
L 1569 4666 
L 2759 1491 
L 3956 4666 
L 4897 4666 
L 4897 0 
L 4281 0 
L 4281 4097 
L 3078 897 
L 2444 897 
L 1241 4097 
L 1241 0 
L 628 0 
L 628 4666 
z
" transform="scale(0.015625)"/>
       <path id="DejaVuSans-75" d="M 544 1381 
L 544 3500 
L 1119 3500 
L 1119 1403 
Q 1119 906 1312 657 
Q 1506 409 1894 409 
Q 2359 409 2629 706 
Q 2900 1003 2900 1516 
L 2900 3500 
L 3475 3500 
L 3475 0 
L 2900 0 
L 2900 538 
Q 2691 219 2414 64 
Q 2138 -91 1772 -91 
Q 1169 -91 856 284 
Q 544 659 544 1381 
z
M 1991 3584 
L 1991 3584 
z
" transform="scale(0.015625)"/>
      </defs>
      <use xlink:href="#DejaVuSans-4d"/>
      <use xlink:href="#DejaVuSans-65" x="86.279297"/>
      <use xlink:href="#DejaVuSans-61" x="147.802734"/>
      <use xlink:href="#DejaVuSans-73" x="209.082031"/>
      <use xlink:href="#DejaVuSans-75" x="261.181641"/>
      <use xlink:href="#DejaVuSans-72" x="324.560547"/>
      <use xlink:href="#DejaVuSans-65" x="363.423828"/>
      <use xlink:href="#DejaVuSans-64" x="424.947266"/>
     </g>
    </g>
    <g id="line2d_17">
     <path d="M 81 70.976562 
L 91 70.976562 
L 101 70.976562 
" style="fill: none; stroke: #ff7f0e; stroke-width: 1.5; stroke-linecap: square"/>
    </g>
    <g id="text_15">
     <!-- Fitted -->
     <g transform="translate(109 74.476562) scale(0.1 -0.1)">
      <defs>
       <path id="DejaVuSans-46" d="M 628 4666 
L 3309 4666 
L 3309 4134 
L 1259 4134 
L 1259 2759 
L 3109 2759 
L 3109 2228 
L 1259 2228 
L 1259 0 
L 628 0 
L 628 4666 
z
" transform="scale(0.015625)"/>
       <path id="DejaVuSans-74" d="M 1172 4494 
L 1172 3500 
L 2356 3500 
L 2356 3053 
L 1172 3053 
L 1172 1153 
Q 1172 725 1289 603 
Q 1406 481 1766 481 
L 2356 481 
L 2356 0 
L 1766 0 
Q 1100 0 847 248 
Q 594 497 594 1153 
L 594 3053 
L 172 3053 
L 172 3500 
L 594 3500 
L 594 4494 
L 1172 4494 
z
" transform="scale(0.015625)"/>
      </defs>
      <use xlink:href="#DejaVuSans-46"/>
      <use xlink:href="#DejaVuSans-69" x="50.269531"/>
      <use xlink:href="#DejaVuSans-74" x="78.052734"/>
      <use xlink:href="#DejaVuSans-74" x="117.261719"/>
      <use xlink:href="#DejaVuSans-65" x="156.470703"/>
      <use xlink:href="#DejaVuSans-64" x="217.994141"/>
     </g>
    </g>
    <g id="line2d_18">
     <path d="M 81 85.654687 
L 91 85.654687 
L 101 85.654687 
" style="fill: none; stroke: #2ca02c; stroke-width: 1.5; stroke-linecap: square"/>
    </g>
    <g id="text_16">
     <!-- Estimated -->
     <g transform="translate(109 89.154687) scale(0.1 -0.1)">
      <defs>
       <path id="DejaVuSans-45" d="M 628 4666 
L 3578 4666 
L 3578 4134 
L 1259 4134 
L 1259 2753 
L 3481 2753 
L 3481 2222 
L 1259 2222 
L 1259 531 
L 3634 531 
L 3634 0 
L 628 0 
L 628 4666 
z
" transform="scale(0.015625)"/>
      </defs>
      <use xlink:href="#DejaVuSans-45"/>
      <use xlink:href="#DejaVuSans-73" x="63.183594"/>
      <use xlink:href="#DejaVuSans-74" x="115.283203"/>
      <use xlink:href="#DejaVuSans-69" x="154.492188"/>
      <use xlink:href="#DejaVuSans-6d" x="182.275391"/>
      <use xlink:href="#DejaVuSans-61" x="279.6875"/>
      <use xlink:href="#DejaVuSans-74" x="340.966797"/>
      <use xlink:href="#DejaVuSans-65" x="380.175781"/>
      <use xlink:href="#DejaVuSans-64" x="441.699219"/>
     </g>
    </g>
   </g>
  </g>
 </g>
 <defs>
  <clipPath id="p740a87c95c">
   <rect x="72" y="43.2" width="446.4" height="277.2"/>
  </clipPath>
 </defs>
</svg>
