<?xml version="1.0" encoding="utf-8" standalone="no"?>
<!DOCTYPE svg PUBLIC "-//W3C//DTD SVG 1.1//EN"
  "http://www.w3.org/Graphics/SVG/1.1/DTD/svg11.dtd">
<svg xmlns:xlink="http://www.w3.org/1999/xlink" width="576pt" height="360pt" viewBox="0 0 576 360" xmlns="http://www.w3.org/2000/svg" version="1.1">
 <metadata>
  <rdf:RDF xmlns:dc="http://purl.org/dc/elements/1.1/" xmlns:cc="http://creativecommons.org/ns#" xmlns:rdf="http://www.w3.org/1999/02/22-rdf-syntax-ns#">
   <cc:Work>
    <dc:type rdf:resource="http://purl.org/dc/dcmitype/StillImage"/>
    <dc:date>2023-11-26T15:45:23.104012</dc:date>
    <dc:format>image/svg+xml</dc:format>
    <dc:creator>
     <cc:Agent>
      <dc:title>Matplotlib v3.8.1, https://matplotlib.org/</dc:title>
     </cc:Agent>
    </dc:creator>
   </cc:Work>
  </rdf:RDF>
 </metadata>
 <defs>
  <style type="text/css">*{stroke-linejoin: round; stroke-linecap: butt}</style>
 </defs>
 <g id="figure_1">
  <g id="patch_1">
   <path d="M 0 360 
L 576 360 
L 576 0 
L 0 0 
z
" style="fill: #ffffff"/>
  </g>
  <g id="axes_1">
   <g id="patch_2">
    <path d="M 72 320.4 
L 518.4 320.4 
L 518.4 43.2 
L 72 43.2 
z
" style="fill: #ffffff"/>
   </g>
   <g id="matplotlib.axis_1">
    <g id="xtick_1">
     <g id="line2d_1">
      <defs>
       <path id="mff96593c59" d="M 0 0 
L 0 3.5 
" style="stroke: #000000; stroke-width: 0.8"/>
      </defs>
      <g>
       <use xlink:href="#mff96593c59" x="129.874161" y="320.4" style="stroke: #000000; stroke-width: 0.8"/>
      </g>
     </g>
     <g id="text_1">
      <!-- 2020-05-15 -->
      <g transform="translate(100.816349 334.998438) scale(0.1 -0.1)">
       <defs>
        <path id="DejaVuSans-32" d="M 1228 531 
L 3431 531 
L 3431 0 
L 469 0 
L 469 531 
Q 828 903 1448 1529 
Q 2069 2156 2228 2338 
Q 2531 2678 2651 2914 
Q 2772 3150 2772 3378 
Q 2772 3750 2511 3984 
Q 2250 4219 1831 4219 
Q 1534 4219 1204 4116 
Q 875 4013 500 3803 
L 500 4441 
Q 881 4594 1212 4672 
Q 1544 4750 1819 4750 
Q 2544 4750 2975 4387 
Q 3406 4025 3406 3419 
Q 3406 3131 3298 2873 
Q 3191 2616 2906 2266 
Q 2828 2175 2409 1742 
Q 1991 1309 1228 531 
z
" transform="scale(0.015625)"/>
        <path id="DejaVuSans-30" d="M 2034 4250 
Q 1547 4250 1301 3770 
Q 1056 3291 1056 2328 
Q 1056 1369 1301 889 
Q 1547 409 2034 409 
Q 2525 409 2770 889 
Q 3016 1369 3016 2328 
Q 3016 3291 2770 3770 
Q 2525 4250 2034 4250 
z
M 2034 4750 
Q 2819 4750 3233 4129 
Q 3647 3509 3647 2328 
Q 3647 1150 3233 529 
Q 2819 -91 2034 -91 
Q 1250 -91 836 529 
Q 422 1150 422 2328 
Q 422 3509 836 4129 
Q 1250 4750 2034 4750 
z
" transform="scale(0.015625)"/>
        <path id="DejaVuSans-2d" d="M 313 2009 
L 1997 2009 
L 1997 1497 
L 313 1497 
L 313 2009 
z
" transform="scale(0.015625)"/>
        <path id="DejaVuSans-35" d="M 691 4666 
L 3169 4666 
L 3169 4134 
L 1269 4134 
L 1269 2991 
Q 1406 3038 1543 3061 
Q 1681 3084 1819 3084 
Q 2600 3084 3056 2656 
Q 3513 2228 3513 1497 
Q 3513 744 3044 326 
Q 2575 -91 1722 -91 
Q 1428 -91 1123 -41 
Q 819 9 494 109 
L 494 744 
Q 775 591 1075 516 
Q 1375 441 1709 441 
Q 2250 441 2565 725 
Q 2881 1009 2881 1497 
Q 2881 1984 2565 2268 
Q 2250 2553 1709 2553 
Q 1456 2553 1204 2497 
Q 953 2441 691 2322 
L 691 4666 
z
" transform="scale(0.015625)"/>
        <path id="DejaVuSans-31" d="M 794 531 
L 1825 531 
L 1825 4091 
L 703 3866 
L 703 4441 
L 1819 4666 
L 2450 4666 
L 2450 531 
L 3481 531 
L 3481 0 
L 794 0 
L 794 531 
z
" transform="scale(0.015625)"/>
       </defs>
       <use xlink:href="#DejaVuSans-32"/>
       <use xlink:href="#DejaVuSans-30" x="63.623047"/>
       <use xlink:href="#DejaVuSans-32" x="127.246094"/>
       <use xlink:href="#DejaVuSans-30" x="190.869141"/>
       <use xlink:href="#DejaVuSans-2d" x="254.492188"/>
       <use xlink:href="#DejaVuSans-30" x="290.576172"/>
       <use xlink:href="#DejaVuSans-35" x="354.199219"/>
       <use xlink:href="#DejaVuSans-2d" x="417.822266"/>
       <use xlink:href="#DejaVuSans-31" x="453.90625"/>
       <use xlink:href="#DejaVuSans-35" x="517.529297"/>
      </g>
     </g>
    </g>
    <g id="xtick_2">
     <g id="line2d_2">
      <g>
       <use xlink:href="#mff96593c59" x="212.435902" y="320.4" style="stroke: #000000; stroke-width: 0.8"/>
      </g>
     </g>
     <g id="text_2">
      <!-- 2020-06-01 -->
      <g transform="translate(183.37809 334.998438) scale(0.1 -0.1)">
       <defs>
        <path id="DejaVuSans-36" d="M 2113 2584 
Q 1688 2584 1439 2293 
Q 1191 2003 1191 1497 
Q 1191 994 1439 701 
Q 1688 409 2113 409 
Q 2538 409 2786 701 
Q 3034 994 3034 1497 
Q 3034 2003 2786 2293 
Q 2538 2584 2113 2584 
z
M 3366 4563 
L 3366 3988 
Q 3128 4100 2886 4159 
Q 2644 4219 2406 4219 
Q 1781 4219 1451 3797 
Q 1122 3375 1075 2522 
Q 1259 2794 1537 2939 
Q 1816 3084 2150 3084 
Q 2853 3084 3261 2657 
Q 3669 2231 3669 1497 
Q 3669 778 3244 343 
Q 2819 -91 2113 -91 
Q 1303 -91 875 529 
Q 447 1150 447 2328 
Q 447 3434 972 4092 
Q 1497 4750 2381 4750 
Q 2619 4750 2861 4703 
Q 3103 4656 3366 4563 
z
" transform="scale(0.015625)"/>
       </defs>
       <use xlink:href="#DejaVuSans-32"/>
       <use xlink:href="#DejaVuSans-30" x="63.623047"/>
       <use xlink:href="#DejaVuSans-32" x="127.246094"/>
       <use xlink:href="#DejaVuSans-30" x="190.869141"/>
       <use xlink:href="#DejaVuSans-2d" x="254.492188"/>
       <use xlink:href="#DejaVuSans-30" x="290.576172"/>
       <use xlink:href="#DejaVuSans-36" x="354.199219"/>
       <use xlink:href="#DejaVuSans-2d" x="417.822266"/>
       <use xlink:href="#DejaVuSans-30" x="453.90625"/>
       <use xlink:href="#DejaVuSans-31" x="517.529297"/>
      </g>
     </g>
    </g>
    <g id="xtick_3">
     <g id="line2d_3">
      <g>
       <use xlink:href="#mff96593c59" x="280.427924" y="320.4" style="stroke: #000000; stroke-width: 0.8"/>
      </g>
     </g>
     <g id="text_3">
      <!-- 2020-06-15 -->
      <g transform="translate(251.370111 334.998438) scale(0.1 -0.1)">
       <use xlink:href="#DejaVuSans-32"/>
       <use xlink:href="#DejaVuSans-30" x="63.623047"/>
       <use xlink:href="#DejaVuSans-32" x="127.246094"/>
       <use xlink:href="#DejaVuSans-30" x="190.869141"/>
       <use xlink:href="#DejaVuSans-2d" x="254.492188"/>
       <use xlink:href="#DejaVuSans-30" x="290.576172"/>
       <use xlink:href="#DejaVuSans-36" x="354.199219"/>
       <use xlink:href="#DejaVuSans-2d" x="417.822266"/>
       <use xlink:href="#DejaVuSans-31" x="453.90625"/>
       <use xlink:href="#DejaVuSans-35" x="517.529297"/>
      </g>
     </g>
    </g>
    <g id="xtick_4">
     <g id="line2d_4">
      <g>
       <use xlink:href="#mff96593c59" x="358.133092" y="320.4" style="stroke: #000000; stroke-width: 0.8"/>
      </g>
     </g>
     <g id="text_4">
      <!-- 2020-07-01 -->
      <g transform="translate(329.075279 334.998438) scale(0.1 -0.1)">
       <defs>
        <path id="DejaVuSans-37" d="M 525 4666 
L 3525 4666 
L 3525 4397 
L 1831 0 
L 1172 0 
L 2766 4134 
L 525 4134 
L 525 4666 
z
" transform="scale(0.015625)"/>
       </defs>
       <use xlink:href="#DejaVuSans-32"/>
       <use xlink:href="#DejaVuSans-30" x="63.623047"/>
       <use xlink:href="#DejaVuSans-32" x="127.246094"/>
       <use xlink:href="#DejaVuSans-30" x="190.869141"/>
       <use xlink:href="#DejaVuSans-2d" x="254.492188"/>
       <use xlink:href="#DejaVuSans-30" x="290.576172"/>
       <use xlink:href="#DejaVuSans-37" x="354.199219"/>
       <use xlink:href="#DejaVuSans-2d" x="417.822266"/>
       <use xlink:href="#DejaVuSans-30" x="453.90625"/>
       <use xlink:href="#DejaVuSans-31" x="517.529297"/>
      </g>
     </g>
    </g>
    <g id="xtick_5">
     <g id="line2d_5">
      <g>
       <use xlink:href="#mff96593c59" x="426.125113" y="320.4" style="stroke: #000000; stroke-width: 0.8"/>
      </g>
     </g>
     <g id="text_5">
      <!-- 2020-07-15 -->
      <g transform="translate(397.067301 334.998438) scale(0.1 -0.1)">
       <use xlink:href="#DejaVuSans-32"/>
       <use xlink:href="#DejaVuSans-30" x="63.623047"/>
       <use xlink:href="#DejaVuSans-32" x="127.246094"/>
       <use xlink:href="#DejaVuSans-30" x="190.869141"/>
       <use xlink:href="#DejaVuSans-2d" x="254.492188"/>
       <use xlink:href="#DejaVuSans-30" x="290.576172"/>
       <use xlink:href="#DejaVuSans-37" x="354.199219"/>
       <use xlink:href="#DejaVuSans-2d" x="417.822266"/>
       <use xlink:href="#DejaVuSans-31" x="453.90625"/>
       <use xlink:href="#DejaVuSans-35" x="517.529297"/>
      </g>
     </g>
    </g>
    <g id="xtick_6">
     <g id="line2d_6">
      <g>
       <use xlink:href="#mff96593c59" x="508.686854" y="320.4" style="stroke: #000000; stroke-width: 0.8"/>
      </g>
     </g>
     <g id="text_6">
      <!-- 2020-08-01 -->
      <g transform="translate(479.629042 334.998438) scale(0.1 -0.1)">
       <defs>
        <path id="DejaVuSans-38" d="M 2034 2216 
Q 1584 2216 1326 1975 
Q 1069 1734 1069 1313 
Q 1069 891 1326 650 
Q 1584 409 2034 409 
Q 2484 409 2743 651 
Q 3003 894 3003 1313 
Q 3003 1734 2745 1975 
Q 2488 2216 2034 2216 
z
M 1403 2484 
Q 997 2584 770 2862 
Q 544 3141 544 3541 
Q 544 4100 942 4425 
Q 1341 4750 2034 4750 
Q 2731 4750 3128 4425 
Q 3525 4100 3525 3541 
Q 3525 3141 3298 2862 
Q 3072 2584 2669 2484 
Q 3125 2378 3379 2068 
Q 3634 1759 3634 1313 
Q 3634 634 3220 271 
Q 2806 -91 2034 -91 
Q 1263 -91 848 271 
Q 434 634 434 1313 
Q 434 1759 690 2068 
Q 947 2378 1403 2484 
z
M 1172 3481 
Q 1172 3119 1398 2916 
Q 1625 2713 2034 2713 
Q 2441 2713 2670 2916 
Q 2900 3119 2900 3481 
Q 2900 3844 2670 4047 
Q 2441 4250 2034 4250 
Q 1625 4250 1398 4047 
Q 1172 3844 1172 3481 
z
" transform="scale(0.015625)"/>
       </defs>
       <use xlink:href="#DejaVuSans-32"/>
       <use xlink:href="#DejaVuSans-30" x="63.623047"/>
       <use xlink:href="#DejaVuSans-32" x="127.246094"/>
       <use xlink:href="#DejaVuSans-30" x="190.869141"/>
       <use xlink:href="#DejaVuSans-2d" x="254.492188"/>
       <use xlink:href="#DejaVuSans-30" x="290.576172"/>
       <use xlink:href="#DejaVuSans-38" x="354.199219"/>
       <use xlink:href="#DejaVuSans-2d" x="417.822266"/>
       <use xlink:href="#DejaVuSans-30" x="453.90625"/>
       <use xlink:href="#DejaVuSans-31" x="517.529297"/>
      </g>
     </g>
    </g>
   </g>
   <g id="matplotlib.axis_2">
    <g id="ytick_1">
     <g id="line2d_7">
      <defs>
       <path id="m97719127bb" d="M 0 0 
L -3.5 0 
" style="stroke: #000000; stroke-width: 0.8"/>
      </defs>
      <g>
       <use xlink:href="#m97719127bb" x="72" y="316.02311" style="stroke: #000000; stroke-width: 0.8"/>
      </g>
     </g>
     <g id="text_7">
      <!-- −2 -->
      <g transform="translate(50.257812 319.822329) scale(0.1 -0.1)">
       <defs>
        <path id="DejaVuSans-2212" d="M 678 2272 
L 4684 2272 
L 4684 1741 
L 678 1741 
L 678 2272 
z
" transform="scale(0.015625)"/>
       </defs>
       <use xlink:href="#DejaVuSans-2212"/>
       <use xlink:href="#DejaVuSans-32" x="83.789062"/>
      </g>
     </g>
    </g>
    <g id="ytick_2">
     <g id="line2d_8">
      <g>
       <use xlink:href="#m97719127bb" x="72" y="262.270962" style="stroke: #000000; stroke-width: 0.8"/>
      </g>
     </g>
     <g id="text_8">
      <!-- −1 -->
      <g transform="translate(50.257812 266.070181) scale(0.1 -0.1)">
       <use xlink:href="#DejaVuSans-2212"/>
       <use xlink:href="#DejaVuSans-31" x="83.789062"/>
      </g>
     </g>
    </g>
    <g id="ytick_3">
     <g id="line2d_9">
      <g>
       <use xlink:href="#m97719127bb" x="72" y="208.518814" style="stroke: #000000; stroke-width: 0.8"/>
      </g>
     </g>
     <g id="text_9">
      <!-- 0 -->
      <g transform="translate(58.6375 212.318032) scale(0.1 -0.1)">
       <use xlink:href="#DejaVuSans-30"/>
      </g>
     </g>
    </g>
    <g id="ytick_4">
     <g id="line2d_10">
      <g>
       <use xlink:href="#m97719127bb" x="72" y="154.766666" style="stroke: #000000; stroke-width: 0.8"/>
      </g>
     </g>
     <g id="text_10">
      <!-- 1 -->
      <g transform="translate(58.6375 158.565884) scale(0.1 -0.1)">
       <use xlink:href="#DejaVuSans-31"/>
      </g>
     </g>
    </g>
    <g id="ytick_5">
     <g id="line2d_11">
      <g>
       <use xlink:href="#m97719127bb" x="72" y="101.014518" style="stroke: #000000; stroke-width: 0.8"/>
      </g>
     </g>
     <g id="text_11">
      <!-- 2 -->
      <g transform="translate(58.6375 104.813736) scale(0.1 -0.1)">
       <use xlink:href="#DejaVuSans-32"/>
      </g>
     </g>
    </g>
    <g id="ytick_6">
     <g id="line2d_12">
      <g>
       <use xlink:href="#m97719127bb" x="72" y="47.262369" style="stroke: #000000; stroke-width: 0.8"/>
      </g>
     </g>
     <g id="text_12">
      <!-- 3 -->
      <g transform="translate(58.6375 51.061588) scale(0.1 -0.1)">
       <defs>
        <path id="DejaVuSans-33" d="M 2597 2516 
Q 3050 2419 3304 2112 
Q 3559 1806 3559 1356 
Q 3559 666 3084 287 
Q 2609 -91 1734 -91 
Q 1441 -91 1130 -33 
Q 819 25 488 141 
L 488 750 
Q 750 597 1062 519 
Q 1375 441 1716 441 
Q 2309 441 2620 675 
Q 2931 909 2931 1356 
Q 2931 1769 2642 2001 
Q 2353 2234 1838 2234 
L 1294 2234 
L 1294 2753 
L 1863 2753 
Q 2328 2753 2575 2939 
Q 2822 3125 2822 3475 
Q 2822 3834 2567 4026 
Q 2313 4219 1838 4219 
Q 1578 4219 1281 4162 
Q 984 4106 628 3988 
L 628 4550 
Q 988 4650 1302 4700 
Q 1616 4750 1894 4750 
Q 2613 4750 3031 4423 
Q 3450 4097 3450 3541 
Q 3450 3153 3228 2886 
Q 3006 2619 2597 2516 
z
" transform="scale(0.015625)"/>
       </defs>
       <use xlink:href="#DejaVuSans-33"/>
      </g>
     </g>
    </g>
   </g>
   <g id="line2d_13">
    <path d="M 72 287.021497 
L 72.404714 298.412757 
L 72.607072 296.682973 
L 72.809429 285.96675 
L 73.214143 254.915018 
L 73.618858 242.426821 
L 75.035358 159.101858 
L 75.237715 156.127474 
L 75.440073 161.211351 
L 75.64243 169.459468 
L 75.844787 172.771371 
L 76.047144 188.086288 
L 76.654216 258.669915 
L 77.05893 282.844701 
L 77.261287 287.232446 
L 77.463645 286.852737 
L 77.666002 276.094324 
L 78.070716 247.468508 
L 78.475431 234.938122 
L 78.677788 225.761828 
L 79.487217 168.510196 
L 79.891931 152.161627 
L 80.094288 154.123456 
L 80.903717 196.735208 
L 81.713146 272.423807 
L 82.11786 287.148066 
L 82.320218 289.194274 
L 82.522575 288.898945 
L 82.724932 286.367554 
L 82.927289 279.511703 
L 83.332004 256.412757 
L 83.736718 242.026017 
L 83.939075 238.967253 
L 84.141432 239.241487 
L 84.546147 245.675439 
L 84.748504 247.784932 
L 84.950861 247.806027 
L 85.355576 252.025013 
L 85.557933 248.670919 
L 85.76029 254.830638 
L 86.569719 300.015972 
L 86.772076 306.133501 
L 86.974433 307.736715 
L 87.176791 307.8 
L 87.379148 306.449925 
L 87.581505 302.695028 
L 87.783862 295.902461 
L 88.188577 273.731693 
L 88.390934 268.521246 
L 89.200363 260.399699 
L 89.40272 256.243998 
L 89.807434 241.372074 
L 90.212149 238.903968 
L 90.414506 236.182722 
L 90.616863 244.1777 
L 91.223935 295.037569 
L 91.628649 306.133501 
L 91.831006 306.196786 
L 92.033364 303.686489 
L 92.842792 257.277649 
L 93.04515 255.125967 
L 93.449864 246.477047 
L 93.652221 245.949674 
L 93.854578 242.996384 
L 94.056936 242.363536 
L 94.259293 239.72667 
L 94.46165 233.292717 
L 94.664007 230.423807 
L 94.866364 231.351984 
L 95.068722 234.516223 
L 95.271079 230.655851 
L 95.473436 240.823606 
L 96.080508 295.417278 
L 96.485222 304.677951 
L 96.687579 306.597589 
L 96.889937 302.230939 
L 97.699365 256.539327 
L 98.306437 245.970768 
L 98.508794 245.59106 
L 99.52058 224.242993 
L 99.722937 225.508689 
L 99.925295 229.896434 
L 100.127652 228.061175 
L 100.330009 238.27112 
L 100.937081 292.928076 
L 101.341795 305.268609 
L 101.544152 306.26007 
L 101.74651 302.526268 
L 101.948867 290.50216 
L 102.353581 260.294224 
L 102.555938 258.733199 
L 103.567724 240.844701 
L 104.377153 218.610648 
L 104.57951 219.897438 
L 104.781868 225.318835 
L 104.984225 225.29774 
L 105.186582 234.241989 
L 105.793654 289.763837 
L 106.198368 302.589553 
L 106.400725 304.361527 
L 106.603083 300.311301 
L 107.412511 254.11341 
L 107.614869 252.383626 
L 107.817226 248.692014 
L 108.22194 234.07323 
L 108.626655 212.23998 
L 108.829012 206.270116 
L 109.031369 204.371572 
L 109.638441 213.104872 
L 109.840798 218.568458 
L 110.043155 229.031542 
L 110.650227 284.405726 
L 111.054941 298.750276 
L 111.257298 300.669915 
L 111.459655 298.919036 
L 111.662013 287.443395 
L 112.066727 258.015972 
L 112.471442 242.933099 
L 113.887942 174.121447 
L 114.090299 171.73772 
L 114.292656 178.593571 
L 114.495014 190.090306 
L 114.697371 194.710095 
L 115.102085 228.926067 
L 115.709157 278.583526 
L 116.113871 292.611652 
L 116.316228 292.780412 
L 116.518586 291.113913 
L 116.720943 287.46449 
L 117.125657 260.06218 
L 118.542158 154.777398 
L 118.744515 144.609643 
L 118.946872 140.707082 
L 119.149229 144.398694 
L 119.756301 182.496133 
L 120.56573 262.319337 
L 120.970444 282.254043 
L 121.172801 286.367554 
L 121.375159 288.012958 
L 121.577516 286.557408 
L 121.779873 278.583526 
L 122.589302 227.280663 
L 123.196374 201.671421 
L 123.398731 197.072727 
L 123.601088 197.283677 
L 123.803445 196.714114 
L 124.410517 210.193772 
L 124.612874 221.226419 
L 125.219946 277.845203 
L 125.62466 292.463988 
L 125.827017 294.468006 
L 126.029374 291.91552 
L 127.04116 235.191261 
L 127.648232 197.557911 
L 128.255304 154.925063 
L 128.457661 147.330889 
L 128.660018 146.99337 
L 129.26709 191.588046 
L 130.278876 282.971271 
L 130.481233 290.839679 
L 130.68359 292.231944 
L 130.885947 289.637268 
L 132.504805 180.070216 
L 133.111877 137.142039 
L 133.314234 127.670417 
L 133.516591 129.379106 
L 133.921306 144.841688 
L 134.123663 152.309292 
L 135.135449 262.84671 
L 135.540163 275.545856 
L 135.74252 274.596585 
L 135.944878 263.943646 
L 136.349592 232.343446 
L 136.551949 225.529784 
L 136.754306 213.590055 
L 136.956664 218.188749 
L 137.159021 206.818584 
L 137.766092 197.937619 
L 137.96845 198.338423 
L 138.373164 192.895932 
L 138.777879 200.490105 
L 138.980236 201.333903 
L 139.182593 213.210347 
L 139.789665 270.187745 
L 140.194379 285.650326 
L 140.396736 287.738724 
L 140.599093 284.701055 
L 141.003808 254.303265 
L 141.408522 232.997388 
L 142.015594 219.51773 
L 142.622665 210.320342 
L 142.825023 210.046107 
L 143.02738 208.822602 
L 143.229737 209.518734 
L 143.634451 214.834656 
L 143.836809 213.590055 
L 144.039166 223.84219 
L 144.646238 273.499648 
L 145.050952 285.671421 
L 145.253309 286.979307 
L 145.455666 283.815068 
L 145.860381 253.965746 
L 146.062738 237.406228 
L 146.66981 220.825615 
L 146.872167 218.125465 
L 147.074524 217.028528 
L 147.479238 205.848217 
L 147.681596 214.370568 
L 147.883953 215.362029 
L 148.08631 217.998895 
L 148.491024 227.386138 
L 148.693382 226.014967 
L 149.098096 249.83114 
L 149.502811 278.203817 
L 149.907525 291.430337 
L 150.109882 293.518734 
L 150.312239 292.928076 
L 150.514597 290.059166 
L 150.716954 284.258061 
L 151.121668 263.036565 
L 151.526383 242.194776 
L 151.931097 236.288197 
L 152.133454 235.845203 
L 152.335811 237.849221 
L 152.538169 238.376595 
L 152.740526 236.288197 
L 152.942883 236.583526 
L 153.14524 235.592064 
L 153.347597 235.634254 
L 153.549955 232.659869 
L 153.752312 234.895932 
L 154.764098 287.253541 
L 154.966455 291.282672 
L 155.168812 292.696032 
L 155.573527 288.687996 
L 155.775884 277.423305 
L 156.78767 198.127474 
L 157.799456 154.756303 
L 158.001813 156.802511 
L 158.406528 170.23998 
L 158.608885 184.036062 
L 159.215956 253.881366 
L 159.620671 275.86228 
L 159.823028 279.131994 
L 160.025385 278.203817 
L 160.227743 268.225917 
L 160.632457 235.191261 
L 161.8466 183.993872 
L 162.251315 173.762833 
L 162.453672 173.910497 
L 162.656029 176.821597 
L 163.465458 209.20231 
L 164.072529 270.12446 
L 164.477244 289.067705 
L 164.679601 289.405224 
L 164.881958 286.114415 
L 165.084316 275.777901 
L 165.48903 243.439377 
L 166.500816 207.725665 
L 167.310245 164.038071 
L 167.512602 167.45545 
L 167.917316 188.402712 
L 168.119674 192.938122 
L 168.322031 204.498142 
L 168.929102 264.977298 
L 169.333817 280.439879 
L 169.536174 284.026017 
L 169.738531 280.292215 
L 170.143246 252.510196 
L 170.54796 221.648317 
L 171.357389 176.273129 
L 171.559746 170.134505 
L 172.166818 145.49563 
L 172.369175 147.141035 
L 172.571532 155.199297 
L 173.178604 194.878855 
L 173.785675 267.25555 
L 174.19039 287.000402 
L 174.392747 290.038071 
L 174.595104 288.181718 
L 174.999819 263.542843 
L 175.404533 238.081266 
L 177.023391 158.405726 
L 177.225748 158.933099 
L 177.428105 162.92004 
L 177.630462 179.817077 
L 177.83282 182.306278 
L 178.237534 227.238473 
L 178.642248 270.947162 
L 179.046963 290.50216 
L 179.24932 294.299247 
L 179.451677 291.725665 
L 179.654034 282.865796 
L 180.261106 242.258061 
L 181.879964 143.449422 
L 182.082321 140.116424 
L 182.284678 145.896434 
L 183.094107 203.316826 
L 183.498821 243.080763 
L 183.903536 264.956203 
L 184.30825 272.95118 
L 184.510607 274.343446 
L 184.712965 270.630738 
L 184.915322 256.98232 
L 185.724751 173.340934 
L 186.129465 151.52878 
L 186.331822 145.347966 
L 186.53418 144.567454 
L 186.736537 147.16213 
L 187.748323 188.423807 
L 188.557752 253.923556 
L 188.962466 268.394676 
L 189.164823 270.483074 
L 189.36718 270.567454 
L 189.569538 269.808036 
L 189.771895 258.796484 
L 190.986038 160.810547 
L 191.188395 155.389151 
L 191.390752 155.346961 
L 191.795467 164.692014 
L 192.604896 196.671924 
L 193.414325 261.370065 
L 193.819039 275.377097 
L 194.021396 276.474033 
L 194.426111 272.423807 
L 194.628468 263.268609 
L 195.437897 201.017479 
L 195.640254 195.891411 
L 195.842611 197.136012 
L 196.247325 203.337921 
L 196.449683 203.928579 
L 196.65204 203.527775 
L 197.056754 211.923556 
L 197.259112 212.788448 
L 197.461469 221.395178 
L 198.06854 270.841688 
L 198.473255 285.354997 
L 198.675612 285.460472 
L 198.877969 281.72667 
L 199.282684 250.231944 
L 199.687398 226.879859 
L 201.306256 158.933099 
L 201.508613 157.751783 
L 202.115684 177.39116 
L 202.318042 188.803516 
L 202.925113 254.366549 
L 203.329828 272.423807 
L 203.532185 274.57549 
L 203.734542 271.516725 
L 203.936899 259.724661 
L 204.341614 224.939126 
L 205.758114 168.995379 
L 205.960471 166.442893 
L 206.162829 166.590558 
L 206.365186 168.046107 
L 206.7699 180.175691 
L 206.972257 183.445404 
L 207.174615 194.541336 
L 207.781686 254.978302 
L 208.186401 271.516725 
L 208.388758 274.638774 
L 208.591115 271.221396 
L 208.793472 259.070718 
L 209.198187 224.475038 
L 209.805258 201.671421 
L 210.209973 181.314817 
L 210.817044 138.639779 
L 211.019402 129.948669 
L 211.221759 132.986339 
L 211.626473 158.047112 
L 211.82883 163.384129 
L 212.031188 178.467002 
L 212.638259 245.063687 
L 213.042974 264.091311 
L 213.245331 268.183727 
L 213.447688 266.432848 
L 213.650045 255.463486 
L 214.257117 211.164139 
L 214.661831 184.183727 
L 215.47126 123.409242 
L 215.875975 106.280161 
L 216.078332 105.794977 
L 216.280689 111.469513 
L 217.090118 176.779407 
L 217.697189 240.190758 
L 218.101904 259.091813 
L 218.304261 262.530286 
L 218.506618 263.922551 
L 218.708976 262.635761 
L 218.911333 249.599096 
L 219.518404 193.48659 
L 220.125476 157.435359 
L 220.327833 155.220392 
L 220.53019 157.498644 
L 221.541976 200.827624 
L 221.744334 206.101356 
L 222.553762 264.365545 
L 222.958477 275.503666 
L 223.160834 277.254545 
L 223.363191 277.613159 
L 223.565549 276.009945 
L 223.767906 267.086791 
L 224.374977 227.955701 
L 224.779692 220.192767 
L 225.386763 222.30226 
L 225.589121 225.909493 
L 225.791478 226.816575 
L 226.196192 235.40221 
L 226.398549 235.043596 
L 226.600907 241.625213 
L 227.410335 296.535309 
L 227.612693 300.669915 
L 227.81505 302.399699 
L 228.017407 299.129985 
L 228.826836 255.505676 
L 229.029193 253.121949 
L 229.23155 247.236464 
L 230.648051 182.285183 
L 230.850408 182.875841 
L 231.255122 197.64229 
L 231.45748 208.801507 
L 232.064551 274.027022 
L 232.469266 291.620191 
L 232.671623 294.404721 
L 232.87398 293.160121 
L 233.278694 267.25555 
L 233.683409 244.1777 
L 235.302267 178.024008 
L 235.504624 177.412255 
L 236.111695 196.988348 
L 236.314053 207.599096 
L 236.921124 271.242491 
L 237.325839 287.50668 
L 237.528196 290.713109 
L 237.730553 288.540331 
L 238.135267 264.006931 
L 238.539982 241.688498 
L 239.349411 210.003918 
L 239.754125 199.751783 
L 240.15884 189.288699 
L 240.361197 189.03556 
L 240.563554 194.625716 
L 240.968268 212.661878 
L 241.170626 220.424812 
L 241.777697 277.31783 
L 242.182412 293.560924 
L 242.384769 296.11341 
L 242.587126 293.054646 
L 242.99184 267.740733 
L 243.396555 249.345957 
L 245.21777 172.876846 
L 245.420127 177.222401 
L 246.027199 204.666901 
L 246.836627 279.933601 
L 247.038985 288.498142 
L 247.241342 291.74676 
L 247.443699 289.152084 
L 247.848413 265.019488 
L 249.467271 150.305274 
L 249.669628 142.036062 
L 249.871985 140.053139 
L 250.074343 140.221899 
L 250.2767 147.330889 
L 250.883772 180.21788 
L 251.6932 257.003415 
L 252.097915 271.875339 
L 252.300272 275.018483 
L 252.502629 275.292717 
L 252.704986 271.326871 
L 253.109701 237.785937 
L 253.91913 162.814566 
L 254.323844 146.634756 
L 254.728558 137.606128 
L 254.930916 136.319337 
L 255.133273 143.997891 
L 255.740345 182.369563 
L 256.549773 259.387142 
L 256.954488 275.229432 
L 257.156845 279.131994 
L 257.359202 280.840683 
L 257.561559 279.849221 
L 257.966274 250.274134 
L 258.573345 198.675942 
L 258.97806 176.484078 
L 259.382774 165.198292 
L 259.585131 161.675439 
L 259.787489 161.232446 
L 259.989846 163.911502 
L 260.39456 180.281165 
L 260.596917 193.950678 
L 261.203989 257.425314 
L 261.608704 276.579508 
L 261.811061 279.574987 
L 262.013418 278.77338 
L 262.418132 254.23998 
L 262.62049 241.941637 
L 263.025204 232.048117 
L 263.227561 229.179206 
L 263.429918 228.145555 
L 263.834633 229.45344 
L 264.03699 229.137017 
L 264.239347 230.107383 
L 264.441704 230.191763 
L 264.644062 229.917529 
L 264.846419 232.005927 
L 265.048776 236.140532 
L 265.251133 236.140532 
L 265.45349 240.254043 
L 266.060562 283.730688 
L 266.465277 296.872828 
L 266.667634 298.454947 
L 266.869991 294.172677 
L 267.072348 286.030035 
L 267.477063 258.901959 
L 268.084134 236.203817 
L 268.488849 225.677449 
L 269.09592 214.159618 
L 269.500635 210.109392 
L 269.702992 212.345455 
L 269.905349 216.037067 
L 270.107706 216.733199 
L 270.310063 223.188247 
L 270.917135 273.204319 
L 271.32185 285.460472 
L 271.524207 287.654345 
L 271.726564 285.903466 
L 274.15485 140.960221 
L 274.357208 133.619186 
L 274.559565 137.036565 
L 275.166636 162.793471 
L 275.976065 246.308287 
L 276.38078 259.176193 
L 276.583137 258.458965 
L 276.987851 236.098343 
L 277.392566 206.50216 
L 278.404352 148.195781 
L 278.606709 145.073732 
L 279.011423 131.530789 
L 279.213781 129.885384 
L 279.416138 134.252034 
L 280.023209 176.969262 
L 280.630281 250.020994 
L 281.034995 273.351984 
L 281.237353 278.351482 
L 281.43971 276.769362 
L 281.642067 270.736213 
L 282.249139 227.976796 
L 282.85621 193.52878 
L 283.867996 149.714616 
L 284.070354 148.49111 
L 284.272711 156.844701 
L 285.284497 241.920542 
L 285.689211 274.870819 
L 286.093926 289.974787 
L 286.296283 292.316323 
L 286.49864 290.45997 
L 286.700997 287.443395 
L 287.105712 255.674435 
L 287.712783 202.873832 
L 288.522212 158.384631 
L 288.724569 151.085786 
L 288.926927 149.102863 
L 289.129284 152.77338 
L 289.736355 187.411251 
L 290.545784 259.197288 
L 290.950499 274.849724 
L 291.152856 277.697539 
L 291.355213 277.781919 
L 291.55757 276.263084 
L 291.759927 263.479558 
L 292.771714 162.392667 
L 293.176428 139.863285 
L 293.581142 128.345455 
L 293.7835 126.573481 
L 293.985857 130.180713 
L 294.592928 156.338423 
L 295.402357 241.667403 
L 295.807072 256.729181 
L 296.009429 256.560422 
L 296.414143 235.760824 
L 297.830644 97.293722 
L 298.235358 83.645304 
L 298.437715 80.987343 
L 298.640073 81.261577 
L 298.84243 83.37107 
L 299.044787 91.619186 
L 299.449501 119.295731 
L 300.056573 200.363536 
L 300.461287 226.268106 
L 300.663645 232.44892 
L 300.866002 233.187243 
L 301.068359 226.183727 
L 301.473073 195.342943 
L 302.484859 87.273631 
L 302.687217 75.650326 
L 302.889574 75.755801 
L 303.091931 84.067202 
L 303.496646 92.948167 
L 303.90136 115.793973 
L 304.306074 144.483074 
L 304.913146 215.551883 
L 305.31786 241.583024 
L 305.520218 247.299749 
L 305.722575 245.46449 
L 305.924932 238.14455 
L 306.532004 197.114917 
L 307.54379 125.223405 
L 307.746147 114.739227 
L 307.948504 113.832145 
L 308.757933 146.972275 
L 309.162647 173.741738 
L 309.769719 238.439879 
L 310.174433 258.859769 
L 310.376791 263.374083 
L 310.579148 262.783425 
L 310.983862 238.735208 
L 312.198005 131.889402 
L 312.60272 119.949674 
L 312.805077 115.456454 
L 313.007434 116.026017 
L 313.209791 119.823104 
L 313.816863 148.153591 
L 314.01922 162.202813 
L 314.626292 226.479056 
L 315.031006 247.531793 
L 315.233364 252.235962 
L 315.435721 251.560924 
L 315.840435 232.280161 
L 316.24515 213.062682 
L 316.649864 200.72215 
L 317.054578 185.006429 
L 317.66165 177.285686 
L 317.864007 176.821597 
L 318.066364 175.89342 
L 318.268722 180.703064 
L 318.875793 203.443395 
L 319.685222 263.627223 
L 320.089937 276.748267 
L 320.292294 278.435861 
L 320.697008 270.293219 
L 321.101723 243.354997 
L 322.315866 163.320844 
L 322.72058 152.794475 
L 322.922937 150.410748 
L 323.125295 154.650829 
L 323.732366 183.023506 
L 324.541795 253.417278 
L 324.94651 268.099347 
L 325.148867 271.073732 
L 325.351224 271.137017 
L 325.553581 268.816575 
L 325.755938 256.159618 
L 326.970082 140.707082 
L 327.172439 134.209844 
L 327.374796 132.585535 
L 327.77951 126.86881 
L 327.981868 131.994877 
L 328.184225 141.023506 
L 328.791296 194.077248 
L 329.196011 238.988348 
L 329.398368 254.640784 
L 329.803083 265.019488 
L 330.00544 264.049121 
L 330.207797 258.290206 
L 330.814869 208.463988 
L 331.42194 169.206328 
L 331.826655 145.917529 
L 332.029012 142.943144 
L 332.231369 142.964239 
L 332.433726 143.154093 
L 332.636083 145.305776 
L 332.838441 149.967755 
L 333.243155 173.509694 
L 333.445512 182.770367 
L 334.052584 250.274134 
L 334.457298 272.655851 
L 334.659655 278.224912 
L 334.862013 275.756806 
L 335.266727 255.379106 
L 335.671442 230.360522 
L 336.48087 189.16213 
L 336.683228 183.951683 
L 336.885585 182.812557 
L 337.087942 176.462983 
L 337.290299 174.56444 
L 337.695014 181.209342 
L 338.099728 196.060171 
L 338.302085 202.09332 
L 339.111514 269.702562 
L 339.313871 276.07323 
L 339.516228 278.372577 
L 339.718586 274.195781 
L 340.1233 250.210849 
L 340.932729 204.540331 
L 342.349229 141.107885 
L 342.551587 141.023506 
L 343.158658 166.379608 
L 343.76573 230.845706 
L 344.170444 249.345957 
L 344.372801 254.23998 
L 344.575159 252.046107 
L 344.777516 244.937117 
L 345.18223 213.210347 
L 346.194016 128.32436 
L 346.598731 113.157107 
L 347.003445 106.36454 
L 347.205802 105.499648 
L 347.40816 108.769362 
L 347.610517 116.827624 
L 348.015231 143.639277 
L 348.82466 237.237469 
L 349.229374 254.809543 
L 349.431732 254.029031 
L 349.634089 248.080261 
L 349.836446 236.646811 
L 351.050589 129.379106 
L 351.455304 110.520241 
L 351.860018 101.428327 
L 352.062375 100.500151 
L 352.264733 104.233953 
L 352.46709 115.625213 
L 353.276519 200.975289 
L 353.681233 239.937619 
L 354.085947 260.673933 
L 354.288305 266.095329 
L 354.490662 266.685987 
L 354.693019 264.38664 
L 355.097733 221.205324 
L 355.704805 145.369061 
L 356.109519 119.991863 
L 356.716591 101.301758 
L 356.918948 100.183727 
L 357.121306 105.11994 
L 357.52602 131.446409 
L 357.728377 144.483074 
L 358.740163 242.574485 
L 359.144878 255.906479 
L 359.347235 257.826118 
L 359.549592 257.488599 
L 359.751949 243.101858 
L 360.763735 119.169161 
L 361.16845 99.571974 
L 361.573164 88.159618 
L 361.775521 85.796986 
L 361.977879 89.172175 
L 362.180236 96.365545 
L 362.58495 122.860773 
L 363.394379 214.054144 
L 363.799093 232.195781 
L 364.001451 233.039578 
L 364.203808 226.985334 
L 364.406165 216.64882 
L 365.013237 145.137017 
L 365.620308 78.772376 
L 366.025023 62.149573 
L 366.429737 55.8 
L 366.632094 56.306278 
L 366.834451 59.027524 
L 367.036809 67.992868 
L 367.441523 98.010949 
L 368.048595 179.901457 
L 368.453309 211.290708 
L 368.655666 220.066198 
L 368.858024 222.513209 
L 369.060381 218.505173 
L 369.262738 208.358513 
L 369.86981 143.006429 
L 370.476881 83.160121 
L 370.881596 66.052135 
L 371.083953 65.588046 
L 371.28631 66.326369 
L 371.488667 70.376595 
L 371.691024 76.789453 
L 372.298096 116.912004 
L 373.107525 204.413762 
L 373.512239 227.301758 
L 373.714597 231.794977 
L 374.119311 231.07775 
L 374.321668 217.956705 
L 375.333454 111.047614 
L 375.738169 97.399196 
L 375.940526 94.614666 
L 376.142883 93.47554 
L 376.34524 98.812557 
L 376.749955 125.835158 
L 377.559383 186.504169 
L 377.964098 222.196786 
L 378.368812 236.414766 
L 378.57117 236.646811 
L 378.773527 230.529282 
L 378.975884 218.969262 
L 380.392384 98.791462 
L 380.797099 88.560422 
L 381.201813 80.734204 
L 381.40417 84.615671 
L 382.011242 122.776394 
L 382.820671 208.189754 
L 383.225385 224.791462 
L 383.427743 225.466499 
L 383.6301 219.960723 
L 384.034814 197.030537 
L 385.0466 121.320844 
L 385.451315 104.107383 
L 385.653672 103.6222 
L 385.856029 107.524761 
L 386.058386 115.393169 
L 387.070172 187.558915 
L 387.474887 228.926067 
L 387.879601 251.497639 
L 388.284316 260.927072 
L 388.68903 263.521748 
L 388.891387 257.594073 
L 389.700816 212.682973 
L 390.307888 201.122953 
L 390.914959 187.980814 
L 391.117316 192.917027 
L 391.926745 233.735711 
L 392.533817 279.321848 
L 392.938531 292.084279 
L 393.140888 294.003918 
L 393.343246 293.539829 
L 393.545603 294.025013 
L 393.74796 284.785434 
L 394.355032 242.321346 
L 395.569175 184.057157 
L 395.771532 177.855249 
L 395.973889 179.099849 
L 396.176247 187.685485 
L 396.783318 231.056655 
L 397.188033 270.799498 
L 397.592747 289.194274 
L 397.795104 292.063184 
L 397.997461 289.447413 
L 398.402176 270.736213 
L 400.628105 139.061678 
L 400.830462 141.993872 
L 401.03282 152.267102 
L 401.639891 211.121949 
L 402.044606 256.876846 
L 402.44932 277.845203 
L 402.651677 281.979809 
L 402.854034 280.27112 
L 403.258749 261.496635 
L 403.663463 232.174686 
L 404.877607 122.755299 
L 405.282321 101.575992 
L 405.484678 97.230437 
L 405.687035 98.348468 
L 405.889393 109.191261 
L 406.294107 147.752788 
L 406.901179 227.639277 
L 407.305893 252.468006 
L 407.50825 258.248016 
L 407.710607 257.699548 
L 408.115322 235.781919 
L 409.73418 99.276645 
L 409.936537 94.192767 
L 410.138894 94.045103 
L 410.341251 98.791462 
L 410.948323 136.045103 
L 411.15068 152.456956 
L 411.757752 225.29774 
L 412.162466 250.126469 
L 412.364823 256.813561 
L 412.56718 258.64882 
L 412.971895 240.021999 
L 414.388395 138.808538 
L 414.79311 124.843697 
L 415.197824 117.96675 
L 415.400181 124.949171 
L 416.20961 189.478553 
L 416.614325 236.140532 
L 417.019039 259.93561 
L 417.221396 264.323355 
L 417.423753 263.753792 
L 417.828468 247.0888 
L 419.244968 146.276143 
L 419.649683 132.248016 
L 419.85204 128.303265 
L 420.054397 129.77991 
L 420.256754 138.703064 
L 421.066183 205.974787 
L 421.673255 262.720141 
L 422.077969 279.279658 
L 422.280326 281.832145 
L 422.482684 281.157107 
L 422.685041 280.988348 
L 423.089755 249.324862 
L 423.899184 178.234957 
L 424.708613 137.774887 
L 424.91097 134.505173 
L 425.113327 138.618684 
L 425.518042 165.493621 
L 425.720399 177.623204 
L 426.529828 254.345455 
L 426.934542 273.436364 
L 427.136899 278.035058 
L 427.339257 278.85776 
L 427.541614 279.089804 
L 427.743971 270.25103 
L 428.148685 228.778403 
L 428.755757 165.177197 
L 429.160471 138.829633 
L 429.565186 130.349473 
L 429.9699 134.378604 
L 430.374615 151.043596 
L 430.576972 163.00442 
L 431.386401 241.076745 
L 431.791115 253.649322 
L 431.993472 251.560924 
L 432.398187 230.698041 
L 433.207616 163.827122 
L 434.017044 91.534807 
L 434.219402 86.514214 
L 435.02883 114.675942 
L 435.433545 140.348468 
L 436.040617 213.484581 
L 436.445331 236.625716 
L 436.647688 241.899448 
L 436.850045 241.203315 
L 437.25476 220.045103 
L 437.659474 184.183727 
L 438.468903 108.727172 
L 438.67126 98.728177 
L 438.873617 99.719638 
L 439.075975 107.018483 
L 439.278332 106.554395 
L 439.480689 108.853742 
L 439.885403 127.902461 
L 440.290118 153.321848 
L 440.897189 228.715118 
L 441.301904 251.624209 
L 441.504261 257.19327 
L 441.706618 257.741738 
L 442.111333 242.616675 
L 442.920762 189.204319 
L 443.527833 153.406228 
L 444.134905 130.054144 
L 444.337262 127.396183 
L 444.539619 133.9778 
L 445.146691 180.238975 
L 445.753762 251.265595 
L 446.158477 273.03556 
L 446.360834 278.119437 
L 446.563191 276.07323 
L 446.967906 256.665897 
L 448.586763 143.955701 
L 448.991478 130.412757 
L 449.193835 128.029031 
L 449.396192 134.863787 
L 450.003264 176.315319 
L 450.812693 258.48006 
L 451.217407 272.128478 
L 451.419764 272.255048 
L 451.824479 254.619689 
L 452.43155 202.873832 
L 453.038622 159.861276 
L 453.443336 142.373581 
L 453.848051 134.294224 
L 454.050408 137.753792 
L 454.252765 148.005927 
L 454.65748 177.159116 
L 454.859837 185.829131 
L 455.669266 252.257057 
L 456.07398 266.158614 
L 456.276337 267.719638 
L 456.478694 265.67343 
L 456.681052 262.488096 
L 456.883409 254.28217 
L 457.288123 226.563435 
L 457.692838 215.319839 
L 457.895195 216.037067 
L 458.299909 221.943646 
L 458.502267 221.795982 
L 458.906981 217.872325 
L 459.109338 218.420794 
L 459.514053 222.681969 
L 459.71641 227.090809 
L 460.728196 286.304269 
L 461.13291 290.839679 
L 461.537625 287.443395 
L 461.739982 278.288197 
L 462.144696 242.890909 
L 463.561197 171.927574 
L 463.763554 164.481065 
L 463.965911 165.683476 
L 464.572983 185.660372 
L 465.382412 254.366549 
L 465.584769 261.454445 
L 465.787126 264.238975 
L 465.989483 261.749774 
L 467.608341 166.822602 
L 468.620127 145.094827 
L 468.822484 148.301256 
L 469.429556 175.218383 
L 470.036627 233.398192 
L 470.441342 251.645304 
L 470.643699 254.345455 
L 470.846056 251.708589 
L 471.857842 199.477549 
L 472.869628 168.446911 
L 473.071985 168.953189 
L 473.274343 167.117931 
L 473.4767 168.404721 
L 473.679057 172.286188 
L 473.881414 179.036565 
L 474.083772 180.21788 
L 474.286129 188.086288 
L 474.8932 241.540834 
L 475.297915 258.205826 
L 475.500272 259.914515 
L 475.702629 257.826118 
L 476.107344 232.828629 
L 476.512058 210.257057 
L 477.321487 177.960723 
L 477.726201 157.287695 
L 477.928558 153.638272 
L 478.333273 158.447916 
L 478.53563 163.025515 
L 479.142702 188.592567 
L 479.952131 258.100352 
L 480.356845 268.204822 
L 480.559202 267.782923 
L 480.963917 245.126971 
L 482.785131 113.452436 
L 482.987489 107.398192 
L 483.189846 104.698041 
L 483.392203 110.478051 
L 483.999275 151.36002 
L 484.606346 224.285183 
L 485.011061 248.101356 
L 485.213418 252.615671 
L 485.415775 253.586037 
L 485.82049 233.313812 
L 486.225204 201.312808 
L 487.23699 109.043596 
L 487.439347 105.879357 
L 487.844062 112.608639 
L 488.248776 131.699548 
L 489.260562 211.206328 
L 489.665277 244.1777 
L 490.069991 259.661376 
L 490.272348 262.066198 
L 490.474705 260.905977 
L 490.677063 259.091813 
L 490.87942 249.113913 
L 491.891206 167.37107 
L 492.29592 149.208338 
L 492.498277 141.635259 
L 492.700635 139.567956 
L 492.902992 141.234455 
L 493.105349 146.170668 
L 493.712421 180.534304 
L 494.52185 254.345455 
L 495.128921 273.07775 
L 495.331278 273.225414 
L 495.533636 272.592567 
L 495.735993 264.850728 
L 496.950136 171.041587 
L 497.557208 146.065193 
L 497.759565 142.62672 
L 497.961922 145.917529 
L 498.568994 178.213862 
L 499.378422 253.881366 
L 499.58078 260.884882 
L 499.783137 263.437368 
L 499.985494 260.041085 
L 500.187851 251.307785 
L 500.794923 213.463486 
L 500.99728 208.231944 
L 501.401995 194.81557 
L 501.806709 183.276645 
L 502.009066 182.812557 
L 502.211423 184.922049 
L 502.413781 185.575992 
L 502.616138 183.867303 
L 503.020852 193.824108 
L 503.223209 194.393672 
L 503.425567 202.09332 
L 504.032638 254.050126 
L 504.437353 267.445404 
L 504.63971 269.111904 
L 504.842067 266.685987 
L 505.246782 241.709593 
L 505.651496 217.302762 
L 507.270354 142.331391 
L 507.472711 139.146057 
L 507.675068 142.62672 
L 508.28214 171.358011 
L 508.889211 230.824611 
L 509.293926 248.37559 
L 509.496283 251.982823 
L 509.69864 250.105374 
L 510.103354 225.972777 
L 511.722212 116.954194 
L 512.126927 98.749272 
L 512.329284 100.373581 
L 512.936355 135.602109 
L 513.34107 175.513712 
L 513.745784 220.066198 
L 514.150499 243.354997 
L 514.352856 249.071723 
L 514.555213 249.578001 
L 514.75757 240.464992 
L 516.174071 141.29774 
L 516.376428 140.179709 
L 516.781142 149.735711 
L 516.9835 146.930085 
L 517.185857 147.478553 
L 517.590571 165.620191 
L 517.792928 169.965746 
L 517.995286 180.935108 
L 518.4 221.585033 
L 518.4 221.585033 
" clip-path="url(#pe2da99ad5f)" style="fill: none; stroke: #1f77b4; stroke-width: 1.5; stroke-linecap: square"/>
   </g>
   <g id="line2d_14">
    <path d="M 72 260.111286 
L 72.202357 260.111286 
L 72.809429 266.218062 
L 73.011786 261.965088 
L 75.035358 177.66535 
L 75.237715 174.239674 
L 75.440073 173.770793 
L 75.64243 176.667669 
L 76.047144 186.019338 
L 76.249501 195.795704 
L 76.856573 247.862624 
L 77.261287 259.51976 
L 77.463645 258.457418 
L 77.868359 246.903223 
L 78.475431 223.603091 
L 79.082502 210.283536 
L 79.891931 173.269514 
L 80.094288 172.545752 
L 80.70136 192.119992 
L 80.903717 201.26111 
L 81.713146 254.634487 
L 82.11786 263.952466 
L 82.320218 262.482821 
L 82.522575 257.629901 
L 82.724932 256.647349 
L 82.927289 257.582183 
L 83.129646 256.199159 
L 83.534361 239.284831 
L 83.736718 230.731999 
L 83.939075 228.330304 
L 84.141432 228.067032 
L 84.34379 228.566915 
L 85.153218 242.927864 
L 85.355576 242.01522 
L 85.76029 249.752553 
L 86.569719 277.278643 
L 86.772076 279.167495 
L 86.974433 285.029278 
L 87.176791 285.48014 
L 87.986219 265.552751 
L 88.593291 241.460687 
L 88.795648 243.653683 
L 88.998005 247.090605 
L 89.40272 248.392392 
L 89.605077 246.403841 
L 89.807434 242.058563 
L 90.212149 230.710441 
L 90.616863 241.078439 
L 91.628649 280.550744 
L 91.831006 283.377038 
L 92.033364 280.77638 
L 92.235721 274.876971 
L 92.842792 240.997067 
L 93.04515 235.992244 
L 93.449864 232.525897 
L 93.854578 238.754102 
L 94.056936 236.6553 
L 94.46165 227.683564 
L 94.664007 227.450779 
L 94.866364 226.376884 
L 95.068722 226.430166 
L 95.473436 232.693002 
L 96.282865 274.978803 
L 96.485222 278.125722 
L 96.687579 278.688406 
L 96.889937 274.841703 
L 97.294651 258.590949 
L 97.699365 241.319402 
L 98.10408 234.911431 
L 98.306437 233.964988 
L 98.508794 234.822006 
L 98.711151 238.546347 
L 98.913509 234.451118 
L 99.318223 222.089443 
L 99.722937 223.216167 
L 99.925295 224.090685 
L 100.330009 231.334548 
L 101.139438 273.86766 
L 101.544152 280.262638 
L 101.74651 275.741595 
L 102.758296 238.652642 
L 103.16301 234.162486 
L 103.567724 240.618429 
L 103.770082 236.916883 
L 104.174796 220.871782 
L 104.377153 219.635643 
L 104.57951 220.028447 
L 104.781868 219.645549 
L 104.984225 223.952123 
L 105.186582 231.739228 
L 105.793654 264.63989 
L 106.198368 276.681741 
L 106.400725 281.926918 
L 106.603083 278.125889 
L 107.412511 243.192748 
L 107.614869 236.058167 
L 108.019583 232.613324 
L 108.22194 233.100158 
L 108.424297 231.211955 
L 109.031369 200.677985 
L 109.233726 200.794052 
L 109.638441 210.553231 
L 109.840798 215.257808 
L 110.043155 225.187245 
L 110.447869 254.70528 
L 111.054941 275.145302 
L 111.257298 278.777602 
L 111.459655 275.458552 
L 112.471442 234.976405 
L 112.673799 229.812326 
L 113.685585 188.745017 
L 113.887942 184.254379 
L 114.090299 182.35844 
L 114.292656 183.496845 
L 114.697371 196.400582 
L 114.899728 207.333445 
L 115.304442 243.986384 
L 115.709157 262.089392 
L 116.113871 273.238508 
L 116.316228 271.890201 
L 116.720943 260.828442 
L 116.9233 259.443931 
L 117.125657 254.711022 
L 118.542158 170.334865 
L 118.744515 160.62495 
L 118.946872 157.152939 
L 119.149229 159.755161 
L 119.553944 174.14762 
L 119.958658 207.020733 
L 120.363373 239.661008 
L 120.970444 266.303324 
L 121.172801 268.718445 
L 121.577516 261.993474 
L 121.779873 257.213154 
L 122.184587 240.188084 
L 122.589302 221.337763 
L 123.398731 196.017938 
L 123.601088 193.480393 
L 123.803445 195.027069 
L 124.005802 197.923319 
L 124.410517 215.245666 
L 125.017588 247.648272 
L 125.422303 271.269853 
L 125.827017 277.863235 
L 126.029374 277.712595 
L 126.231732 271.88312 
L 126.636446 249.420753 
L 127.04116 228.222195 
L 127.243518 222.101996 
L 128.660018 153.012587 
L 128.862375 156.74367 
L 129.26709 181.646682 
L 130.076519 263.695842 
L 130.278876 272.82622 
L 130.481233 274.635437 
L 130.68359 273.250112 
L 130.885947 268.236697 
L 132.302448 203.112358 
L 132.909519 161.844313 
L 133.314234 143.33944 
L 133.516591 143.391093 
L 133.718948 150.495628 
L 134.528377 203.530168 
L 134.933092 244.85839 
L 135.337806 261.026134 
L 135.540163 261.649531 
L 135.74252 258.691699 
L 135.944878 253.627105 
L 136.754306 214.401742 
L 136.956664 202.948956 
L 137.159021 200.896191 
L 137.766092 190.292807 
L 137.96845 188.822436 
L 138.170807 191.206271 
L 138.575521 202.687873 
L 139.182593 223.410388 
L 139.38495 233.135718 
L 139.789665 261.992109 
L 140.194379 273.680726 
L 140.396736 275.860074 
L 140.599093 271.868658 
L 141.813237 215.597993 
L 142.015594 211.941266 
L 142.217951 211.050827 
L 142.420308 214.282448 
L 142.622665 212.522221 
L 142.825023 206.107567 
L 143.02738 204.416871 
L 143.229737 207.182877 
L 143.432094 213.666241 
L 143.634451 216.390256 
L 144.039166 232.300764 
L 144.646238 267.245309 
L 144.848595 276.138242 
L 145.050952 276.126214 
L 145.253309 279.830204 
L 145.455666 274.569085 
L 146.66981 215.672949 
L 146.872167 212.442217 
L 147.276881 217.401983 
L 147.479238 215.432364 
L 147.681596 208.307258 
L 147.883953 211.846887 
L 148.08631 222.325535 
L 148.288667 225.459758 
L 148.491024 225.652934 
L 149.098096 251.499307 
L 149.502811 269.145548 
L 149.907525 277.96795 
L 150.109882 281.153681 
L 150.312239 276.6133 
L 150.716954 264.844207 
L 151.324025 247.481369 
L 151.72874 229.182008 
L 151.931097 229.263462 
L 152.133454 230.361135 
L 152.335811 232.776695 
L 152.538169 232.441465 
L 152.740526 234.765001 
L 152.942883 239.079834 
L 153.14524 240.164199 
L 153.347597 237.727439 
L 153.549955 239.60502 
L 153.954669 246.956939 
L 154.966455 279.222884 
L 155.168812 279.602671 
L 155.978241 258.26325 
L 156.990027 199.039916 
L 157.394742 182.852939 
L 157.597099 172.333341 
L 157.799456 169.44313 
L 158.20417 171.533743 
L 158.406528 176.908017 
L 158.811242 203.177653 
L 159.215956 243.776289 
L 159.620671 263.706555 
L 159.823028 269.411655 
L 160.025385 271.717313 
L 160.227743 265.873722 
L 161.644243 189.138059 
L 162.251315 178.641847 
L 162.453672 177.772129 
L 162.656029 182.333949 
L 163.465458 218.037203 
L 164.274887 268.390484 
L 164.477244 273.04104 
L 164.679601 274.325859 
L 164.881958 271.324614 
L 165.48903 246.241705 
L 165.893744 228.780468 
L 166.298459 218.516807 
L 166.90553 190.729108 
L 167.310245 172.318302 
L 167.512602 171.045421 
L 167.714959 177.065808 
L 168.322031 212.942803 
L 168.726745 246.609741 
L 169.13146 270.341203 
L 169.333817 273.132812 
L 169.536174 273.13997 
L 169.738531 269.789104 
L 170.54796 227.465646 
L 171.559746 169.373157 
L 171.964461 156.38572 
L 172.166818 152.703689 
L 172.369175 153.742021 
L 172.976247 183.863862 
L 173.988033 265.717226 
L 174.392747 275.353394 
L 174.595104 271.924867 
L 175.404533 229.668988 
L 177.023391 169.103743 
L 177.225748 164.703082 
L 177.428105 167.865713 
L 177.83282 191.575044 
L 178.237534 228.477426 
L 178.642248 264.143923 
L 179.046963 273.432214 
L 179.24932 276.914676 
L 179.451677 276.772488 
L 180.261106 235.811405 
L 181.879964 154.684345 
L 182.082321 152.918419 
L 182.284678 155.852742 
L 182.689393 174.047397 
L 183.498821 240.604105 
L 183.903536 256.120324 
L 184.105893 259.686695 
L 184.30825 258.457707 
L 184.712965 246.716097 
L 184.915322 243.720689 
L 185.320036 222.416998 
L 185.724751 189.735294 
L 186.129465 159.433773 
L 186.331822 149.532049 
L 186.53418 145.772823 
L 186.736537 146.910719 
L 186.938894 151.392406 
L 187.343608 171.879454 
L 188.355394 234.422945 
L 188.760109 253.061768 
L 189.164823 262.012396 
L 189.36718 258.145771 
L 189.974252 233.876339 
L 191.188395 162.928345 
L 191.390752 155.941316 
L 191.59311 156.056476 
L 191.997824 167.97979 
L 192.402539 189.268053 
L 192.807253 222.567716 
L 193.00961 229.225938 
L 193.616682 262.85715 
L 193.819039 268.297847 
L 194.021396 269.570177 
L 194.223753 265.0168 
L 194.830825 240.778815 
L 195.640254 186.709081 
L 195.842611 182.780006 
L 196.044968 184.697341 
L 196.247325 188.282996 
L 197.461469 228.439516 
L 197.663826 234.746532 
L 198.473255 276.461654 
L 198.675612 276.78101 
L 198.877969 276.029508 
L 199.080326 269.445565 
L 200.092112 208.136354 
L 201.306256 161.665108 
L 201.508613 162.16638 
L 201.71097 166.837083 
L 202.115684 187.383702 
L 203.329828 268.665498 
L 203.532185 268.22649 
L 203.734542 264.930962 
L 205.758114 165.642741 
L 205.960471 161.343605 
L 206.162829 163.160152 
L 206.972257 201.899546 
L 207.579329 237.169118 
L 207.984044 262.110755 
L 208.186401 267.333069 
L 208.388758 268.754784 
L 208.591115 265.504975 
L 210.209973 183.236843 
L 210.41233 178.532447 
L 211.221759 142.235089 
L 211.424116 145.804414 
L 211.82883 168.117141 
L 212.233545 205.617086 
L 212.638259 247.149716 
L 213.042974 261.30787 
L 213.245331 263.685237 
L 213.447688 261.546905 
L 214.661831 195.40205 
L 215.066546 159.034224 
L 215.875975 113.14989 
L 216.078332 114.994209 
L 216.685403 144.262048 
L 217.090118 182.579462 
L 217.494832 223.964871 
L 218.101904 251.57192 
L 218.304261 252.13447 
L 218.708976 238.895688 
L 218.911333 237.123123 
L 219.316047 218.854551 
L 220.327833 152.589227 
L 220.53019 148.918262 
L 220.732548 151.843095 
L 220.934905 159.307009 
L 221.339619 188.523796 
L 221.744334 221.58114 
L 221.946691 226.979501 
L 222.553762 255.607204 
L 222.75612 260.3952 
L 222.958477 267.987103 
L 223.160834 271.229613 
L 223.767906 255.893131 
L 223.970263 247.271714 
L 224.374977 221.386702 
L 224.779692 210.732869 
L 224.982049 210.657892 
L 225.386763 220.836941 
L 225.589121 222.633391 
L 225.993835 231.725642 
L 226.196192 231.026417 
L 226.600907 242.136468 
L 227.005621 257.01987 
L 227.410335 280.169591 
L 227.612693 287.021564 
L 227.81505 287.201065 
L 228.017407 285.671726 
L 228.219764 278.983266 
L 228.826836 240.738946 
L 229.029193 233.693923 
L 229.838622 225.457723 
L 230.243336 210.883397 
L 230.648051 196.32157 
L 230.850408 195.677592 
L 231.255122 205.937387 
L 231.659837 231.458946 
L 232.266908 276.966803 
L 232.469266 279.688119 
L 232.87398 273.391775 
L 233.278694 257.302427 
L 234.088123 223.498044 
L 234.492838 209.065513 
L 235.099909 184.540296 
L 235.302267 180.168764 
L 235.504624 181.115337 
L 235.706981 187.541622 
L 236.51641 229.554023 
L 236.921124 260.702888 
L 237.325839 273.608383 
L 237.528196 274.600502 
L 237.730553 271.70023 
L 238.135267 255.491794 
L 239.349411 208.688405 
L 239.551768 204.645667 
L 239.956482 191.69022 
L 240.15884 189.815516 
L 240.361197 189.830238 
L 240.765911 201.447995 
L 241.170626 224.828429 
L 241.777697 263.637557 
L 242.182412 277.592539 
L 242.384769 278.595321 
L 242.587126 277.493187 
L 243.194198 250.011029 
L 244.408341 205.687376 
L 245.21777 179.610161 
L 245.420127 181.324031 
L 245.824841 195.822686 
L 246.229556 227.003617 
L 246.63427 258.561499 
L 247.038985 273.386316 
L 247.241342 275.479781 
L 247.443699 274.963867 
L 248.050771 247.627921 
L 249.871985 146.179396 
L 250.074343 149.876523 
L 250.479057 164.544324 
L 250.883772 191.448808 
L 251.288486 227.9126 
L 251.895558 256.484682 
L 252.097915 260.156063 
L 252.300272 259.897074 
L 253.109701 239.383789 
L 254.323844 154.870151 
L 254.728558 148.276398 
L 255.133273 153.321768 
L 255.537987 173.307858 
L 256.549773 249.383063 
L 256.954488 262.663828 
L 257.156845 265.477082 
L 257.561559 257.432485 
L 257.763917 252.635812 
L 258.573345 205.865481 
L 258.97806 180.138481 
L 259.382774 166.522462 
L 259.585131 163.597302 
L 259.787489 164.877085 
L 259.989846 167.788077 
L 260.39456 186.701892 
L 261.406346 258.820507 
L 261.811061 270.71143 
L 262.013418 272.070624 
L 262.215775 266.969391 
L 262.822847 226.690434 
L 263.429918 207.745904 
L 263.632276 208.094859 
L 264.03699 217.556076 
L 264.239347 217.039595 
L 264.441704 217.921222 
L 264.846419 229.869278 
L 265.048776 230.380041 
L 265.251133 234.626154 
L 265.655848 249.96836 
L 266.262919 280.883204 
L 266.465277 283.593556 
L 266.667634 282.297703 
L 266.869991 278.393707 
L 268.084134 232.077803 
L 268.286491 227.11753 
L 268.488849 225.600707 
L 268.691206 225.899187 
L 269.298277 210.553838 
L 269.500635 211.886226 
L 270.107706 222.9208 
L 270.310063 229.959299 
L 271.119492 276.173427 
L 271.32185 279.725611 
L 271.524207 279.76084 
L 271.726564 276.056459 
L 273.750136 178.730261 
L 274.15485 160.341541 
L 274.357208 158.606923 
L 274.559565 157.994278 
L 274.761922 160.910902 
L 274.964279 167.415825 
L 275.368994 191.692822 
L 275.976065 245.176954 
L 276.38078 258.253844 
L 276.583137 257.549497 
L 276.987851 242.268103 
L 277.999637 186.955334 
L 278.404352 163.896198 
L 278.809066 155.19703 
L 279.011423 152.144369 
L 279.213781 152.019911 
L 279.416138 156.526383 
L 279.820852 173.784852 
L 281.034995 260.099566 
L 281.237353 263.979116 
L 281.43971 264.362485 
L 282.046782 238.569902 
L 283.260925 179.506939 
L 283.463282 173.18563 
L 283.867996 155.628176 
L 284.070354 154.372307 
L 284.272711 158.412012 
L 284.677425 180.510432 
L 285.284497 243.107147 
L 285.689211 265.663336 
L 286.093926 276.783381 
L 286.296283 277.767285 
L 286.49864 273.478466 
L 287.308069 235.209037 
L 288.117498 187.379114 
L 288.724569 158.475039 
L 288.926927 156.654352 
L 289.129284 159.178373 
L 289.533998 176.633253 
L 290.343427 239.382082 
L 290.748141 259.672643 
L 291.152856 268.448288 
L 291.355213 262.662854 
L 292.366999 212.260629 
L 293.378785 144.181329 
L 293.581142 139.025265 
L 293.7835 138.353399 
L 293.985857 139.309404 
L 294.188214 146.293069 
L 294.592928 174.443793 
L 295.402357 236.869271 
L 295.604714 247.066377 
L 296.009429 252.645558 
L 296.211786 248.961625 
L 297.223572 175.879207 
L 297.628286 128.42833 
L 298.033001 108.645353 
L 298.235358 102.182542 
L 298.437715 99.790008 
L 298.640073 103.177321 
L 298.84243 109.623907 
L 299.247144 130.890683 
L 299.651859 166.37302 
L 300.25893 221.414032 
L 300.461287 228.978508 
L 300.663645 229.623144 
L 300.866002 228.481049 
L 301.068359 225.680131 
L 301.675431 194.550943 
L 301.877788 179.318448 
L 302.484859 103.072682 
L 302.889574 89.967368 
L 303.091931 87.445147 
L 303.699003 117.863858 
L 304.306074 166.214486 
L 304.913146 218.108423 
L 305.31786 232.298353 
L 305.722575 234.189269 
L 305.924932 231.552698 
L 306.532004 206.18539 
L 306.936718 174.348811 
L 307.341432 147.001889 
L 307.948504 129.272354 
L 308.150861 127.3936 
L 308.555576 144.153443 
L 309.162647 184.950783 
L 309.567362 221.617717 
L 309.972076 235.332318 
L 310.174433 245.206718 
L 310.376791 247.81297 
L 310.579148 246.593613 
L 310.781505 241.193922 
L 311.590934 200.102358 
L 312.198005 150.350473 
L 312.60272 131.507968 
L 312.805077 126.328656 
L 313.007434 126.476368 
L 313.614506 152.886617 
L 314.01922 178.711935 
L 314.423935 212.405062 
L 314.626292 223.335364 
L 314.828649 227.013715 
L 315.031006 235.553493 
L 315.233364 239.193437 
L 315.435721 237.879764 
L 315.840435 222.631808 
L 316.24515 207.69972 
L 316.649864 192.770315 
L 317.054578 179.7384 
L 317.256936 177.706821 
L 317.459293 177.990473 
L 317.864007 170.276644 
L 318.066364 172.31126 
L 318.471079 191.859827 
L 319.07815 223.142715 
L 319.280508 230.688153 
L 319.887579 260.739694 
L 320.089937 265.35654 
L 320.292294 266.318888 
L 320.494651 262.172103 
L 321.708794 209.36667 
L 322.518223 158.902333 
L 322.72058 155.528798 
L 322.922937 155.870344 
L 323.125295 157.802013 
L 323.327652 163.833499 
L 323.530009 175.511018 
L 324.137081 228.549813 
L 324.744152 257.203959 
L 325.148867 264.511953 
L 325.351224 260.485011 
L 326.160653 224.197286 
L 326.565367 198.841988 
L 326.970082 157.267279 
L 327.374796 133.216186 
L 327.577153 130.453431 
L 327.77951 130.641197 
L 327.981868 134.913831 
L 328.386582 153.186725 
L 329.398368 243.505655 
L 329.600725 255.788992 
L 330.00544 263.192628 
L 330.207797 256.138618 
L 331.219583 188.802934 
L 331.624297 152.531122 
L 332.029012 139.439507 
L 332.231369 135.925167 
L 332.636083 143.958314 
L 332.838441 151.463122 
L 333.243155 179.292811 
L 333.647869 211.531071 
L 333.850227 223.773831 
L 334.254941 256.743331 
L 334.457298 265.123868 
L 334.659655 265.41576 
L 334.862013 267.611749 
L 335.06437 262.323928 
L 335.671442 224.219341 
L 335.873799 218.626365 
L 336.683228 178.084103 
L 337.087942 169.905821 
L 337.290299 167.679645 
L 337.492656 172.373678 
L 339.313871 273.151145 
L 339.516228 273.390122 
L 339.718586 271.698167 
L 339.920943 261.645059 
L 340.325657 233.342621 
L 341.337443 184.049888 
L 341.539801 183.03886 
L 341.742158 173.582918 
L 341.944515 158.921332 
L 342.146872 153.270346 
L 342.349229 151.713575 
L 342.753944 157.0701 
L 342.956301 164.791439 
L 343.361015 197.432546 
L 343.76573 231.213501 
L 344.170444 252.45066 
L 344.372801 251.633723 
L 344.575159 252.045671 
L 345.384587 210.726209 
L 345.789302 177.472053 
L 346.396374 121.960547 
L 346.801088 108.477034 
L 347.003445 109.909578 
L 347.40816 119.062121 
L 348.015231 156.26057 
L 348.419946 197.326333 
L 349.027017 240.811498 
L 349.229374 245.230763 
L 349.431732 246.275679 
L 350.038803 222.926511 
L 350.24116 214.099306 
L 350.645875 174.477914 
L 351.050589 134.553196 
L 351.252947 125.588817 
L 351.455304 122.52978 
L 351.657661 113.588744 
L 351.860018 110.643266 
L 352.062375 110.70214 
L 352.264733 113.438739 
L 352.669447 132.047053 
L 353.681233 231.262991 
L 353.88359 242.239149 
L 354.288305 248.780317 
L 354.490662 245.216227 
L 355.097733 221.715328 
L 355.300091 213.265382 
L 356.109519 126.747044 
L 356.514234 113.52887 
L 356.716591 111.45741 
L 357.121306 116.827378 
L 357.52602 139.115935 
L 357.930734 178.262296 
L 358.335449 214.599406 
L 358.94252 239.696616 
L 359.144878 244.333841 
L 359.347235 241.507941 
L 359.751949 226.479486 
L 359.954306 220.776547 
L 360.156664 207.942853 
L 360.966092 128.943405 
L 361.573164 109.24626 
L 361.977879 112.218753 
L 362.180236 118.401263 
L 362.58495 144.482724 
L 363.394379 219.432616 
L 363.799093 229.409006 
L 364.001451 233.084351 
L 364.203808 229.005721 
L 364.608522 210.695209 
L 365.013237 181.441671 
L 365.620308 109.325588 
L 366.025023 96.48485 
L 366.22738 93.031351 
L 366.429737 92.108071 
L 367.036809 111.802672 
L 367.441523 138.227877 
L 368.250952 211.825614 
L 368.453309 221.261044 
L 368.655666 224.532467 
L 368.858024 224.116492 
L 369.060381 221.747031 
L 369.465095 206.833135 
L 369.86981 184.506912 
L 370.476881 121.99629 
L 370.881596 108.989475 
L 371.083953 105.141823 
L 371.28631 105.807807 
L 371.893382 129.35675 
L 372.298096 158.904941 
L 373.107525 222.630927 
L 373.512239 229.491293 
L 373.714597 230.324011 
L 373.916954 228.375344 
L 374.524025 212.662645 
L 374.726383 202.428702 
L 375.535811 140.443365 
L 375.940526 130.175687 
L 376.142883 128.726169 
L 376.547597 138.407775 
L 376.952312 162.901721 
L 377.761741 220.929458 
L 377.964098 224.454392 
L 378.368812 234.476985 
L 378.57117 235.474389 
L 378.773527 232.129294 
L 379.178241 219.745078 
L 379.582956 195.728575 
L 380.190027 146.003964 
L 380.594742 130.801603 
L 380.999456 122.272086 
L 381.40417 125.605733 
L 381.606528 132.15997 
L 382.011242 157.535034 
L 382.820671 219.742164 
L 383.225385 226.377021 
L 383.427743 226.718306 
L 383.832457 218.935164 
L 384.237171 198.615251 
L 384.237171 198.615251 
" clip-path="url(#pe2da99ad5f)" style="fill: none; stroke: #ff7f0e; stroke-width: 1.5; stroke-linecap: square"/>
   </g>
   <g id="line2d_15">
    <path d="M 384.439529 188.407681 
L 385.248957 169.491572 
L 385.653672 173.371577 
L 385.856029 173.002433 
L 386.260743 183.626063 
L 387.070172 221.719548 
L 387.677244 230.855836 
L 388.081958 229.407537 
L 388.284316 227.114251 
L 389.498459 176.508058 
L 390.10553 148.157354 
L 390.307888 145.140673 
L 390.510245 139.158001 
L 390.712602 136.464726 
L 391.522031 152.657444 
L 391.724388 159.633785 
L 392.533817 204.069759 
L 392.938531 211.244151 
L 393.140888 210.733267 
L 393.343246 206.609826 
L 394.152675 180.940379 
L 394.557389 160.803611 
L 394.962103 151.345168 
L 395.569175 137.881288 
L 395.771532 137.044153 
L 396.176247 134.037904 
L 396.378604 134.303416 
L 396.580961 133.216647 
L 396.985675 144.649839 
L 397.188033 155.799474 
L 397.592747 160.842083 
L 397.795104 162.119648 
L 397.997461 165.43142 
L 398.402176 156.986607 
L 398.80689 142.417563 
L 399.009248 138.246633 
L 399.616319 113.714247 
L 400.021034 104.128091 
L 400.223391 102.990855 
L 400.425748 103.183357 
L 400.830462 109.589241 
L 401.235177 130.89597 
L 401.639891 162.816062 
L 402.246963 208.656234 
L 402.651677 222.568569 
L 402.854034 223.833242 
L 403.056392 222.819136 
L 404.472892 191.827231 
L 404.877607 182.90546 
L 405.282321 177.839923 
L 405.484678 178.24718 
L 405.687035 180.278093 
L 406.294107 197.523376 
L 406.901179 225.223281 
L 407.305893 228.963382 
L 407.50825 228.299475 
L 407.710607 226.578649 
L 408.115322 219.982947 
L 408.317679 218.985777 
L 408.520036 216.889731 
L 408.722393 212.867013 
L 410.341251 159.923736 
L 410.543608 159.702425 
L 410.745966 162.071667 
L 410.948323 162.653466 
L 411.15068 166.767501 
L 412.162466 202.849621 
L 412.364823 204.291033 
L 412.56718 203.470126 
L 412.769538 201.196646 
L 413.376609 187.295621 
L 413.781324 169.279687 
L 415.400181 86.664196 
L 415.602539 85.352003 
L 415.804896 84.83828 
L 416.007253 89.907199 
L 416.411967 106.422221 
L 417.221396 149.814105 
L 417.626111 166.683008 
L 417.828468 170.99082 
L 418.030825 172.547508 
L 418.233182 172.938458 
L 418.435539 171.834119 
L 418.840254 166.56795 
L 419.649683 145.787369 
L 420.054397 141.422291 
L 420.256754 140.200018 
L 420.459112 141.557187 
L 420.661469 145.325248 
L 421.26854 175.504853 
L 421.875612 211.785535 
L 422.280326 223.371641 
L 422.482684 223.429749 
L 422.887398 224.234918 
L 423.089755 224.017393 
L 423.292112 221.686395 
L 424.303898 193.173974 
L 424.708613 177.651669 
L 425.518042 160.161079 
L 425.720399 161.737214 
L 426.125113 173.680796 
L 427.136899 225.350038 
L 427.339257 225.621015 
L 428.148685 218.414562 
L 428.5534 210.176164 
L 429.767543 176.47179 
L 430.172257 164.912462 
L 430.576972 157.129859 
L 430.779329 157.233209 
L 430.981686 158.69767 
L 431.993472 182.037667 
L 432.19583 182.871118 
L 432.398187 181.156737 
L 432.802901 170.859442 
L 433.409973 147.351483 
L 434.624116 82.019316 
L 434.826473 75.688236 
L 435.02883 74.429099 
L 435.231188 76.052543 
L 435.635902 89.737112 
L 436.040617 115.874179 
L 437.052403 185.86385 
L 437.25476 191.359734 
L 437.457117 192.550891 
L 437.659474 191.833084 
L 438.67126 180.554536 
L 439.075975 170.632217 
L 439.480689 160.403152 
L 439.683046 157.762701 
L 439.885403 157.151677 
L 440.087761 155.553115 
L 440.290118 158.358687 
L 440.694832 169.560949 
L 441.099547 190.423032 
L 441.504261 214.79508 
L 441.706618 222.411906 
L 441.908976 225.050416 
L 442.111333 225.978211 
L 442.31369 225.746077 
L 443.123119 219.278549 
L 443.527833 212.871824 
L 443.932548 199.697084 
L 444.539619 178.366711 
L 445.146691 168.396301 
L 445.349048 169.970834 
L 445.551405 174.887056 
L 445.95612 194.599902 
L 446.360834 216.520377 
L 446.563191 221.868127 
L 446.765549 222.797542 
L 446.967906 222.069964 
L 447.170263 219.710719 
L 448.182049 200.193816 
L 448.789121 183.402779 
L 449.396192 158.318433 
L 450.003264 135.400654 
L 450.407978 123.369369 
L 450.610335 121.521404 
L 450.812693 121.575255 
L 451.217407 125.795204 
L 451.824479 135.059749 
L 452.229193 135.760898 
L 452.43155 135.572593 
L 452.633908 134.868913 
L 453.038622 132.474719 
L 453.848051 122.219087 
L 454.455122 112.521674 
L 454.65748 111.818499 
L 454.859837 113.501881 
L 455.264551 121.828483 
L 455.669266 139.418643 
L 456.478694 188.528493 
L 456.883409 199.233452 
L 457.085766 201.012393 
L 457.288123 201.774627 
L 457.490481 200.4728 
L 457.895195 197.055804 
L 458.299909 194.398673 
L 458.502267 191.701229 
L 458.906981 182.386457 
L 459.918767 170.597705 
L 460.121124 171.628969 
L 460.525839 180.658842 
L 461.13291 208.895105 
L 461.537625 226.714583 
L 461.739982 228.785525 
L 461.942339 229.678673 
L 462.144696 228.471654 
L 462.751768 221.943715 
L 463.35884 218.882937 
L 463.763554 211.810591 
L 464.168268 206.076703 
L 464.77534 192.537239 
L 464.977697 191.521392 
L 465.180054 192.755497 
L 465.584769 199.53351 
L 465.989483 209.01037 
L 466.19184 211.689163 
L 466.394198 212.852935 
L 466.596555 211.822978 
L 467.001269 206.752841 
L 467.810698 186.523058 
L 468.620127 147.606076 
L 469.631913 89.9702 
L 470.036627 80.613083 
L 470.238985 81.59479 
L 470.643699 93.733898 
L 472.262557 165.18433 
L 472.464914 167.185735 
L 472.667271 166.75473 
L 473.274343 161.232962 
L 473.679057 154.493804 
L 474.286129 143.701677 
L 474.488486 140.797829 
L 474.690843 139.89977 
L 474.8932 140.391289 
L 475.095558 143.421946 
L 475.500272 156.97103 
L 476.107344 183.808306 
L 476.512058 201.006882 
L 476.916772 209.404995 
L 477.11913 211.534236 
L 477.321487 211.858755 
L 477.928558 207.301608 
L 478.333273 199.506842 
L 479.142702 177.293303 
L 479.749773 164.371103 
L 479.952131 163.77117 
L 480.154488 165.884384 
L 480.559202 178.553433 
L 481.368631 226.526585 
L 481.570988 228.698777 
L 481.773345 228.022541 
L 482.785131 217.871674 
L 483.189846 211.402675 
L 483.999275 194.461746 
L 484.403989 183.859475 
L 485.011061 173.381855 
L 485.213418 172.10493 
L 485.415775 173.321327 
L 486.427561 188.826178 
L 486.629918 189.916445 
L 486.832276 188.00596 
L 487.23699 178.002532 
L 487.641704 164.567872 
L 488.046419 143.669093 
L 489.058205 85.025207 
L 489.462919 73.704139 
L 489.665277 73.799204 
L 490.069991 83.777245 
L 490.474705 107.247002 
L 491.486491 176.014167 
L 491.688849 180.929371 
L 491.891206 182.740604 
L 492.093563 183.161632 
L 492.29592 183.118076 
L 492.700635 179.579699 
L 493.105349 173.624959 
L 493.914778 155.127775 
L 494.319492 148.7865 
L 494.52185 149.140951 
L 494.926564 156.738729 
L 495.331278 171.411393 
L 496.343064 218.982232 
L 496.545422 221.940669 
L 496.747779 222.463116 
L 496.950136 222.480747 
L 497.152493 221.925917 
L 497.35485 220.519802 
L 497.759565 214.286636 
L 498.164279 204.317003 
L 499.176065 171.589766 
L 499.58078 165.220778 
L 499.783137 166.369566 
L 499.985494 170.413975 
L 500.390209 190.22064 
L 500.794923 215.510048 
L 500.99728 222.962239 
L 501.199637 224.679713 
L 501.401995 224.133024 
L 501.604352 222.906397 
L 502.211423 214.554564 
L 502.616138 206.504249 
L 503.627924 179.68139 
L 504.437353 150.60859 
L 504.63971 145.538569 
L 505.044424 141.863215 
L 505.246782 141.613069 
L 505.853853 146.444202 
L 506.05621 149.044777 
L 506.258568 149.488905 
L 506.663282 145.319308 
L 507.067996 138.739248 
L 507.675068 123.188222 
L 508.079782 111.053465 
L 508.686854 98.933394 
L 508.889211 97.061791 
L 509.091568 96.602932 
L 509.293926 99.288332 
L 509.69864 110.916685 
L 510.103354 131.801085 
L 511.115141 190.482554 
L 511.317498 194.36623 
L 511.519855 195.806662 
L 511.722212 195.697451 
L 511.924569 194.568906 
L 513.543427 176.191989 
L 513.745784 175.799335 
L 514.150499 173.329952 
L 514.352856 173.247119 
L 514.555213 175.707127 
L 514.959927 188.03515 
L 515.971714 226.298602 
L 516.174071 227.271935 
L 516.376428 226.966122 
L 516.578785 225.590511 
L 516.781142 223.045751 
L 516.9835 222.152531 
L 517.185857 220.69669 
L 517.388214 220.075828 
L 517.590571 218.908633 
L 517.792928 216.74465 
L 518.197643 208.644897 
L 518.4 203.890319 
L 518.4 203.890319 
" clip-path="url(#pe2da99ad5f)" style="fill: none; stroke: #2ca02c; stroke-width: 1.5; stroke-linecap: square"/>
   </g>
   <g id="patch_3">
    <path d="M 72 320.4 
L 72 43.2 
" style="fill: none; stroke: #000000; stroke-width: 0.8; stroke-linejoin: miter; stroke-linecap: square"/>
   </g>
   <g id="patch_4">
    <path d="M 518.4 320.4 
L 518.4 43.2 
" style="fill: none; stroke: #000000; stroke-width: 0.8; stroke-linejoin: miter; stroke-linecap: square"/>
   </g>
   <g id="patch_5">
    <path d="M 72 320.4 
L 518.4 320.4 
" style="fill: none; stroke: #000000; stroke-width: 0.8; stroke-linejoin: miter; stroke-linecap: square"/>
   </g>
   <g id="patch_6">
    <path d="M 72 43.2 
L 518.4 43.2 
" style="fill: none; stroke: #000000; stroke-width: 0.8; stroke-linejoin: miter; stroke-linecap: square"/>
   </g>
   <g id="text_13">
    <!-- Classic Transformer - model_20231126154411 -->
    <g transform="translate(155.436563 37.2) scale(0.12 -0.12)">
     <defs>
      <path id="DejaVuSans-43" d="M 4122 4306 
L 4122 3641 
Q 3803 3938 3442 4084 
Q 3081 4231 2675 4231 
Q 1875 4231 1450 3742 
Q 1025 3253 1025 2328 
Q 1025 1406 1450 917 
Q 1875 428 2675 428 
Q 3081 428 3442 575 
Q 3803 722 4122 1019 
L 4122 359 
Q 3791 134 3420 21 
Q 3050 -91 2638 -91 
Q 1578 -91 968 557 
Q 359 1206 359 2328 
Q 359 3453 968 4101 
Q 1578 4750 2638 4750 
Q 3056 4750 3426 4639 
Q 3797 4528 4122 4306 
z
" transform="scale(0.015625)"/>
      <path id="DejaVuSans-6c" d="M 603 4863 
L 1178 4863 
L 1178 0 
L 603 0 
L 603 4863 
z
" transform="scale(0.015625)"/>
      <path id="DejaVuSans-61" d="M 2194 1759 
Q 1497 1759 1228 1600 
Q 959 1441 959 1056 
Q 959 750 1161 570 
Q 1363 391 1709 391 
Q 2188 391 2477 730 
Q 2766 1069 2766 1631 
L 2766 1759 
L 2194 1759 
z
M 3341 1997 
L 3341 0 
L 2766 0 
L 2766 531 
Q 2569 213 2275 61 
Q 1981 -91 1556 -91 
Q 1019 -91 701 211 
Q 384 513 384 1019 
Q 384 1609 779 1909 
Q 1175 2209 1959 2209 
L 2766 2209 
L 2766 2266 
Q 2766 2663 2505 2880 
Q 2244 3097 1772 3097 
Q 1472 3097 1187 3025 
Q 903 2953 641 2809 
L 641 3341 
Q 956 3463 1253 3523 
Q 1550 3584 1831 3584 
Q 2591 3584 2966 3190 
Q 3341 2797 3341 1997 
z
" transform="scale(0.015625)"/>
      <path id="DejaVuSans-73" d="M 2834 3397 
L 2834 2853 
Q 2591 2978 2328 3040 
Q 2066 3103 1784 3103 
Q 1356 3103 1142 2972 
Q 928 2841 928 2578 
Q 928 2378 1081 2264 
Q 1234 2150 1697 2047 
L 1894 2003 
Q 2506 1872 2764 1633 
Q 3022 1394 3022 966 
Q 3022 478 2636 193 
Q 2250 -91 1575 -91 
Q 1294 -91 989 -36 
Q 684 19 347 128 
L 347 722 
Q 666 556 975 473 
Q 1284 391 1588 391 
Q 1994 391 2212 530 
Q 2431 669 2431 922 
Q 2431 1156 2273 1281 
Q 2116 1406 1581 1522 
L 1381 1569 
Q 847 1681 609 1914 
Q 372 2147 372 2553 
Q 372 3047 722 3315 
Q 1072 3584 1716 3584 
Q 2034 3584 2315 3537 
Q 2597 3491 2834 3397 
z
" transform="scale(0.015625)"/>
      <path id="DejaVuSans-69" d="M 603 3500 
L 1178 3500 
L 1178 0 
L 603 0 
L 603 3500 
z
M 603 4863 
L 1178 4863 
L 1178 4134 
L 603 4134 
L 603 4863 
z
" transform="scale(0.015625)"/>
      <path id="DejaVuSans-63" d="M 3122 3366 
L 3122 2828 
Q 2878 2963 2633 3030 
Q 2388 3097 2138 3097 
Q 1578 3097 1268 2742 
Q 959 2388 959 1747 
Q 959 1106 1268 751 
Q 1578 397 2138 397 
Q 2388 397 2633 464 
Q 2878 531 3122 666 
L 3122 134 
Q 2881 22 2623 -34 
Q 2366 -91 2075 -91 
Q 1284 -91 818 406 
Q 353 903 353 1747 
Q 353 2603 823 3093 
Q 1294 3584 2113 3584 
Q 2378 3584 2631 3529 
Q 2884 3475 3122 3366 
z
" transform="scale(0.015625)"/>
      <path id="DejaVuSans-20" transform="scale(0.015625)"/>
      <path id="DejaVuSans-54" d="M -19 4666 
L 3928 4666 
L 3928 4134 
L 2272 4134 
L 2272 0 
L 1638 0 
L 1638 4134 
L -19 4134 
L -19 4666 
z
" transform="scale(0.015625)"/>
      <path id="DejaVuSans-72" d="M 2631 2963 
Q 2534 3019 2420 3045 
Q 2306 3072 2169 3072 
Q 1681 3072 1420 2755 
Q 1159 2438 1159 1844 
L 1159 0 
L 581 0 
L 581 3500 
L 1159 3500 
L 1159 2956 
Q 1341 3275 1631 3429 
Q 1922 3584 2338 3584 
Q 2397 3584 2469 3576 
Q 2541 3569 2628 3553 
L 2631 2963 
z
" transform="scale(0.015625)"/>
      <path id="DejaVuSans-6e" d="M 3513 2113 
L 3513 0 
L 2938 0 
L 2938 2094 
Q 2938 2591 2744 2837 
Q 2550 3084 2163 3084 
Q 1697 3084 1428 2787 
Q 1159 2491 1159 1978 
L 1159 0 
L 581 0 
L 581 3500 
L 1159 3500 
L 1159 2956 
Q 1366 3272 1645 3428 
Q 1925 3584 2291 3584 
Q 2894 3584 3203 3211 
Q 3513 2838 3513 2113 
z
" transform="scale(0.015625)"/>
      <path id="DejaVuSans-66" d="M 2375 4863 
L 2375 4384 
L 1825 4384 
Q 1516 4384 1395 4259 
Q 1275 4134 1275 3809 
L 1275 3500 
L 2222 3500 
L 2222 3053 
L 1275 3053 
L 1275 0 
L 697 0 
L 697 3053 
L 147 3053 
L 147 3500 
L 697 3500 
L 697 3744 
Q 697 4328 969 4595 
Q 1241 4863 1831 4863 
L 2375 4863 
z
" transform="scale(0.015625)"/>
      <path id="DejaVuSans-6f" d="M 1959 3097 
Q 1497 3097 1228 2736 
Q 959 2375 959 1747 
Q 959 1119 1226 758 
Q 1494 397 1959 397 
Q 2419 397 2687 759 
Q 2956 1122 2956 1747 
Q 2956 2369 2687 2733 
Q 2419 3097 1959 3097 
z
M 1959 3584 
Q 2709 3584 3137 3096 
Q 3566 2609 3566 1747 
Q 3566 888 3137 398 
Q 2709 -91 1959 -91 
Q 1206 -91 779 398 
Q 353 888 353 1747 
Q 353 2609 779 3096 
Q 1206 3584 1959 3584 
z
" transform="scale(0.015625)"/>
      <path id="DejaVuSans-6d" d="M 3328 2828 
Q 3544 3216 3844 3400 
Q 4144 3584 4550 3584 
Q 5097 3584 5394 3201 
Q 5691 2819 5691 2113 
L 5691 0 
L 5113 0 
L 5113 2094 
Q 5113 2597 4934 2840 
Q 4756 3084 4391 3084 
Q 3944 3084 3684 2787 
Q 3425 2491 3425 1978 
L 3425 0 
L 2847 0 
L 2847 2094 
Q 2847 2600 2669 2842 
Q 2491 3084 2119 3084 
Q 1678 3084 1418 2786 
Q 1159 2488 1159 1978 
L 1159 0 
L 581 0 
L 581 3500 
L 1159 3500 
L 1159 2956 
Q 1356 3278 1631 3431 
Q 1906 3584 2284 3584 
Q 2666 3584 2933 3390 
Q 3200 3197 3328 2828 
z
" transform="scale(0.015625)"/>
      <path id="DejaVuSans-65" d="M 3597 1894 
L 3597 1613 
L 953 1613 
Q 991 1019 1311 708 
Q 1631 397 2203 397 
Q 2534 397 2845 478 
Q 3156 559 3463 722 
L 3463 178 
Q 3153 47 2828 -22 
Q 2503 -91 2169 -91 
Q 1331 -91 842 396 
Q 353 884 353 1716 
Q 353 2575 817 3079 
Q 1281 3584 2069 3584 
Q 2775 3584 3186 3129 
Q 3597 2675 3597 1894 
z
M 3022 2063 
Q 3016 2534 2758 2815 
Q 2500 3097 2075 3097 
Q 1594 3097 1305 2825 
Q 1016 2553 972 2059 
L 3022 2063 
z
" transform="scale(0.015625)"/>
      <path id="DejaVuSans-64" d="M 2906 2969 
L 2906 4863 
L 3481 4863 
L 3481 0 
L 2906 0 
L 2906 525 
Q 2725 213 2448 61 
Q 2172 -91 1784 -91 
Q 1150 -91 751 415 
Q 353 922 353 1747 
Q 353 2572 751 3078 
Q 1150 3584 1784 3584 
Q 2172 3584 2448 3432 
Q 2725 3281 2906 2969 
z
M 947 1747 
Q 947 1113 1208 752 
Q 1469 391 1925 391 
Q 2381 391 2643 752 
Q 2906 1113 2906 1747 
Q 2906 2381 2643 2742 
Q 2381 3103 1925 3103 
Q 1469 3103 1208 2742 
Q 947 2381 947 1747 
z
" transform="scale(0.015625)"/>
      <path id="DejaVuSans-5f" d="M 3263 -1063 
L 3263 -1509 
L -63 -1509 
L -63 -1063 
L 3263 -1063 
z
" transform="scale(0.015625)"/>
      <path id="DejaVuSans-34" d="M 2419 4116 
L 825 1625 
L 2419 1625 
L 2419 4116 
z
M 2253 4666 
L 3047 4666 
L 3047 1625 
L 3713 1625 
L 3713 1100 
L 3047 1100 
L 3047 0 
L 2419 0 
L 2419 1100 
L 313 1100 
L 313 1709 
L 2253 4666 
z
" transform="scale(0.015625)"/>
     </defs>
     <use xlink:href="#DejaVuSans-43"/>
     <use xlink:href="#DejaVuSans-6c" x="69.824219"/>
     <use xlink:href="#DejaVuSans-61" x="97.607422"/>
     <use xlink:href="#DejaVuSans-73" x="158.886719"/>
     <use xlink:href="#DejaVuSans-73" x="210.986328"/>
     <use xlink:href="#DejaVuSans-69" x="263.085938"/>
     <use xlink:href="#DejaVuSans-63" x="290.869141"/>
     <use xlink:href="#DejaVuSans-20" x="345.849609"/>
     <use xlink:href="#DejaVuSans-54" x="377.636719"/>
     <use xlink:href="#DejaVuSans-72" x="423.970703"/>
     <use xlink:href="#DejaVuSans-61" x="465.083984"/>
     <use xlink:href="#DejaVuSans-6e" x="526.363281"/>
     <use xlink:href="#DejaVuSans-73" x="589.742188"/>
     <use xlink:href="#DejaVuSans-66" x="641.841797"/>
     <use xlink:href="#DejaVuSans-6f" x="677.046875"/>
     <use xlink:href="#DejaVuSans-72" x="738.228516"/>
     <use xlink:href="#DejaVuSans-6d" x="777.591797"/>
     <use xlink:href="#DejaVuSans-65" x="875.003906"/>
     <use xlink:href="#DejaVuSans-72" x="936.527344"/>
     <use xlink:href="#DejaVuSans-20" x="977.640625"/>
     <use xlink:href="#DejaVuSans-2d" x="1009.427734"/>
     <use xlink:href="#DejaVuSans-20" x="1045.511719"/>
     <use xlink:href="#DejaVuSans-6d" x="1077.298828"/>
     <use xlink:href="#DejaVuSans-6f" x="1174.710938"/>
     <use xlink:href="#DejaVuSans-64" x="1235.892578"/>
     <use xlink:href="#DejaVuSans-65" x="1299.369141"/>
     <use xlink:href="#DejaVuSans-6c" x="1360.892578"/>
     <use xlink:href="#DejaVuSans-5f" x="1388.675781"/>
     <use xlink:href="#DejaVuSans-32" x="1438.675781"/>
     <use xlink:href="#DejaVuSans-30" x="1502.298828"/>
     <use xlink:href="#DejaVuSans-32" x="1565.921875"/>
     <use xlink:href="#DejaVuSans-33" x="1629.544922"/>
     <use xlink:href="#DejaVuSans-31" x="1693.167969"/>
     <use xlink:href="#DejaVuSans-31" x="1756.791016"/>
     <use xlink:href="#DejaVuSans-32" x="1820.414062"/>
     <use xlink:href="#DejaVuSans-36" x="1884.037109"/>
     <use xlink:href="#DejaVuSans-31" x="1947.660156"/>
     <use xlink:href="#DejaVuSans-35" x="2011.283203"/>
     <use xlink:href="#DejaVuSans-34" x="2074.90625"/>
     <use xlink:href="#DejaVuSans-34" x="2138.529297"/>
     <use xlink:href="#DejaVuSans-31" x="2202.152344"/>
     <use xlink:href="#DejaVuSans-31" x="2265.775391"/>
    </g>
   </g>
   <g id="legend_1">
    <g id="patch_7">
     <path d="M 79 95.234375 
L 161.517188 95.234375 
Q 163.517188 95.234375 163.517188 93.234375 
L 163.517188 50.2 
Q 163.517188 48.2 161.517188 48.2 
L 79 48.2 
Q 77 48.2 77 50.2 
L 77 93.234375 
Q 77 95.234375 79 95.234375 
z
" style="fill: #ffffff; opacity: 0.8; stroke: #cccccc; stroke-linejoin: miter"/>
    </g>
    <g id="line2d_16">
     <path d="M 81 56.298437 
L 91 56.298437 
L 101 56.298437 
" style="fill: none; stroke: #1f77b4; stroke-width: 1.5; stroke-linecap: square"/>
    </g>
    <g id="text_14">
     <!-- Measured -->
     <g transform="translate(109 59.798437) scale(0.1 -0.1)">
      <defs>
       <path id="DejaVuSans-4d" d="M 628 4666 
L 1569 4666 
L 2759 1491 
L 3956 4666 
L 4897 4666 
L 4897 0 
L 4281 0 
L 4281 4097 
L 3078 897 
L 2444 897 
L 1241 4097 
L 1241 0 
L 628 0 
L 628 4666 
z
" transform="scale(0.015625)"/>
       <path id="DejaVuSans-75" d="M 544 1381 
L 544 3500 
L 1119 3500 
L 1119 1403 
Q 1119 906 1312 657 
Q 1506 409 1894 409 
Q 2359 409 2629 706 
Q 2900 1003 2900 1516 
L 2900 3500 
L 3475 3500 
L 3475 0 
L 2900 0 
L 2900 538 
Q 2691 219 2414 64 
Q 2138 -91 1772 -91 
Q 1169 -91 856 284 
Q 544 659 544 1381 
z
M 1991 3584 
L 1991 3584 
z
" transform="scale(0.015625)"/>
      </defs>
      <use xlink:href="#DejaVuSans-4d"/>
      <use xlink:href="#DejaVuSans-65" x="86.279297"/>
      <use xlink:href="#DejaVuSans-61" x="147.802734"/>
      <use xlink:href="#DejaVuSans-73" x="209.082031"/>
      <use xlink:href="#DejaVuSans-75" x="261.181641"/>
      <use xlink:href="#DejaVuSans-72" x="324.560547"/>
      <use xlink:href="#DejaVuSans-65" x="363.423828"/>
      <use xlink:href="#DejaVuSans-64" x="424.947266"/>
     </g>
    </g>
    <g id="line2d_17">
     <path d="M 81 70.976562 
L 91 70.976562 
L 101 70.976562 
" style="fill: none; stroke: #ff7f0e; stroke-width: 1.5; stroke-linecap: square"/>
    </g>
    <g id="text_15">
     <!-- Fitted -->
     <g transform="translate(109 74.476562) scale(0.1 -0.1)">
      <defs>
       <path id="DejaVuSans-46" d="M 628 4666 
L 3309 4666 
L 3309 4134 
L 1259 4134 
L 1259 2759 
L 3109 2759 
L 3109 2228 
L 1259 2228 
L 1259 0 
L 628 0 
L 628 4666 
z
" transform="scale(0.015625)"/>
       <path id="DejaVuSans-74" d="M 1172 4494 
L 1172 3500 
L 2356 3500 
L 2356 3053 
L 1172 3053 
L 1172 1153 
Q 1172 725 1289 603 
Q 1406 481 1766 481 
L 2356 481 
L 2356 0 
L 1766 0 
Q 1100 0 847 248 
Q 594 497 594 1153 
L 594 3053 
L 172 3053 
L 172 3500 
L 594 3500 
L 594 4494 
L 1172 4494 
z
" transform="scale(0.015625)"/>
      </defs>
      <use xlink:href="#DejaVuSans-46"/>
      <use xlink:href="#DejaVuSans-69" x="50.269531"/>
      <use xlink:href="#DejaVuSans-74" x="78.052734"/>
      <use xlink:href="#DejaVuSans-74" x="117.261719"/>
      <use xlink:href="#DejaVuSans-65" x="156.470703"/>
      <use xlink:href="#DejaVuSans-64" x="217.994141"/>
     </g>
    </g>
    <g id="line2d_18">
     <path d="M 81 85.654687 
L 91 85.654687 
L 101 85.654687 
" style="fill: none; stroke: #2ca02c; stroke-width: 1.5; stroke-linecap: square"/>
    </g>
    <g id="text_16">
     <!-- Estimated -->
     <g transform="translate(109 89.154687) scale(0.1 -0.1)">
      <defs>
       <path id="DejaVuSans-45" d="M 628 4666 
L 3578 4666 
L 3578 4134 
L 1259 4134 
L 1259 2753 
L 3481 2753 
L 3481 2222 
L 1259 2222 
L 1259 531 
L 3634 531 
L 3634 0 
L 628 0 
L 628 4666 
z
" transform="scale(0.015625)"/>
      </defs>
      <use xlink:href="#DejaVuSans-45"/>
      <use xlink:href="#DejaVuSans-73" x="63.183594"/>
      <use xlink:href="#DejaVuSans-74" x="115.283203"/>
      <use xlink:href="#DejaVuSans-69" x="154.492188"/>
      <use xlink:href="#DejaVuSans-6d" x="182.275391"/>
      <use xlink:href="#DejaVuSans-61" x="279.6875"/>
      <use xlink:href="#DejaVuSans-74" x="340.966797"/>
      <use xlink:href="#DejaVuSans-65" x="380.175781"/>
      <use xlink:href="#DejaVuSans-64" x="441.699219"/>
     </g>
    </g>
   </g>
  </g>
 </g>
 <defs>
  <clipPath id="pe2da99ad5f">
   <rect x="72" y="43.2" width="446.4" height="277.2"/>
  </clipPath>
 </defs>
</svg>
