<?xml version="1.0" encoding="utf-8" standalone="no"?>
<!DOCTYPE svg PUBLIC "-//W3C//DTD SVG 1.1//EN"
  "http://www.w3.org/Graphics/SVG/1.1/DTD/svg11.dtd">
<svg xmlns:xlink="http://www.w3.org/1999/xlink" width="576pt" height="360pt" viewBox="0 0 576 360" xmlns="http://www.w3.org/2000/svg" version="1.1">
 <metadata>
  <rdf:RDF xmlns:dc="http://purl.org/dc/elements/1.1/" xmlns:cc="http://creativecommons.org/ns#" xmlns:rdf="http://www.w3.org/1999/02/22-rdf-syntax-ns#">
   <cc:Work>
    <dc:type rdf:resource="http://purl.org/dc/dcmitype/StillImage"/>
    <dc:date>2023-11-23T16:36:22.643446</dc:date>
    <dc:format>image/svg+xml</dc:format>
    <dc:creator>
     <cc:Agent>
      <dc:title>Matplotlib v3.8.1, https://matplotlib.org/</dc:title>
     </cc:Agent>
    </dc:creator>
   </cc:Work>
  </rdf:RDF>
 </metadata>
 <defs>
  <style type="text/css">*{stroke-linejoin: round; stroke-linecap: butt}</style>
 </defs>
 <g id="figure_1">
  <g id="patch_1">
   <path d="M 0 360 
L 576 360 
L 576 0 
L 0 0 
z
" style="fill: #ffffff"/>
  </g>
  <g id="axes_1">
   <g id="patch_2">
    <path d="M 72 320.4 
L 518.4 320.4 
L 518.4 43.2 
L 72 43.2 
z
" style="fill: #ffffff"/>
   </g>
   <g id="matplotlib.axis_1">
    <g id="xtick_1">
     <g id="line2d_1">
      <defs>
       <path id="mb95459ff49" d="M 0 0 
L 0 3.5 
" style="stroke: #000000; stroke-width: 0.8"/>
      </defs>
      <g>
       <use xlink:href="#mb95459ff49" x="129.874161" y="320.4" style="stroke: #000000; stroke-width: 0.8"/>
      </g>
     </g>
     <g id="text_1">
      <!-- 2020-05-15 -->
      <g transform="translate(100.816349 334.998438) scale(0.1 -0.1)">
       <defs>
        <path id="DejaVuSans-32" d="M 1228 531 
L 3431 531 
L 3431 0 
L 469 0 
L 469 531 
Q 828 903 1448 1529 
Q 2069 2156 2228 2338 
Q 2531 2678 2651 2914 
Q 2772 3150 2772 3378 
Q 2772 3750 2511 3984 
Q 2250 4219 1831 4219 
Q 1534 4219 1204 4116 
Q 875 4013 500 3803 
L 500 4441 
Q 881 4594 1212 4672 
Q 1544 4750 1819 4750 
Q 2544 4750 2975 4387 
Q 3406 4025 3406 3419 
Q 3406 3131 3298 2873 
Q 3191 2616 2906 2266 
Q 2828 2175 2409 1742 
Q 1991 1309 1228 531 
z
" transform="scale(0.015625)"/>
        <path id="DejaVuSans-30" d="M 2034 4250 
Q 1547 4250 1301 3770 
Q 1056 3291 1056 2328 
Q 1056 1369 1301 889 
Q 1547 409 2034 409 
Q 2525 409 2770 889 
Q 3016 1369 3016 2328 
Q 3016 3291 2770 3770 
Q 2525 4250 2034 4250 
z
M 2034 4750 
Q 2819 4750 3233 4129 
Q 3647 3509 3647 2328 
Q 3647 1150 3233 529 
Q 2819 -91 2034 -91 
Q 1250 -91 836 529 
Q 422 1150 422 2328 
Q 422 3509 836 4129 
Q 1250 4750 2034 4750 
z
" transform="scale(0.015625)"/>
        <path id="DejaVuSans-2d" d="M 313 2009 
L 1997 2009 
L 1997 1497 
L 313 1497 
L 313 2009 
z
" transform="scale(0.015625)"/>
        <path id="DejaVuSans-35" d="M 691 4666 
L 3169 4666 
L 3169 4134 
L 1269 4134 
L 1269 2991 
Q 1406 3038 1543 3061 
Q 1681 3084 1819 3084 
Q 2600 3084 3056 2656 
Q 3513 2228 3513 1497 
Q 3513 744 3044 326 
Q 2575 -91 1722 -91 
Q 1428 -91 1123 -41 
Q 819 9 494 109 
L 494 744 
Q 775 591 1075 516 
Q 1375 441 1709 441 
Q 2250 441 2565 725 
Q 2881 1009 2881 1497 
Q 2881 1984 2565 2268 
Q 2250 2553 1709 2553 
Q 1456 2553 1204 2497 
Q 953 2441 691 2322 
L 691 4666 
z
" transform="scale(0.015625)"/>
        <path id="DejaVuSans-31" d="M 794 531 
L 1825 531 
L 1825 4091 
L 703 3866 
L 703 4441 
L 1819 4666 
L 2450 4666 
L 2450 531 
L 3481 531 
L 3481 0 
L 794 0 
L 794 531 
z
" transform="scale(0.015625)"/>
       </defs>
       <use xlink:href="#DejaVuSans-32"/>
       <use xlink:href="#DejaVuSans-30" x="63.623047"/>
       <use xlink:href="#DejaVuSans-32" x="127.246094"/>
       <use xlink:href="#DejaVuSans-30" x="190.869141"/>
       <use xlink:href="#DejaVuSans-2d" x="254.492188"/>
       <use xlink:href="#DejaVuSans-30" x="290.576172"/>
       <use xlink:href="#DejaVuSans-35" x="354.199219"/>
       <use xlink:href="#DejaVuSans-2d" x="417.822266"/>
       <use xlink:href="#DejaVuSans-31" x="453.90625"/>
       <use xlink:href="#DejaVuSans-35" x="517.529297"/>
      </g>
     </g>
    </g>
    <g id="xtick_2">
     <g id="line2d_2">
      <g>
       <use xlink:href="#mb95459ff49" x="212.435902" y="320.4" style="stroke: #000000; stroke-width: 0.8"/>
      </g>
     </g>
     <g id="text_2">
      <!-- 2020-06-01 -->
      <g transform="translate(183.37809 334.998438) scale(0.1 -0.1)">
       <defs>
        <path id="DejaVuSans-36" d="M 2113 2584 
Q 1688 2584 1439 2293 
Q 1191 2003 1191 1497 
Q 1191 994 1439 701 
Q 1688 409 2113 409 
Q 2538 409 2786 701 
Q 3034 994 3034 1497 
Q 3034 2003 2786 2293 
Q 2538 2584 2113 2584 
z
M 3366 4563 
L 3366 3988 
Q 3128 4100 2886 4159 
Q 2644 4219 2406 4219 
Q 1781 4219 1451 3797 
Q 1122 3375 1075 2522 
Q 1259 2794 1537 2939 
Q 1816 3084 2150 3084 
Q 2853 3084 3261 2657 
Q 3669 2231 3669 1497 
Q 3669 778 3244 343 
Q 2819 -91 2113 -91 
Q 1303 -91 875 529 
Q 447 1150 447 2328 
Q 447 3434 972 4092 
Q 1497 4750 2381 4750 
Q 2619 4750 2861 4703 
Q 3103 4656 3366 4563 
z
" transform="scale(0.015625)"/>
       </defs>
       <use xlink:href="#DejaVuSans-32"/>
       <use xlink:href="#DejaVuSans-30" x="63.623047"/>
       <use xlink:href="#DejaVuSans-32" x="127.246094"/>
       <use xlink:href="#DejaVuSans-30" x="190.869141"/>
       <use xlink:href="#DejaVuSans-2d" x="254.492188"/>
       <use xlink:href="#DejaVuSans-30" x="290.576172"/>
       <use xlink:href="#DejaVuSans-36" x="354.199219"/>
       <use xlink:href="#DejaVuSans-2d" x="417.822266"/>
       <use xlink:href="#DejaVuSans-30" x="453.90625"/>
       <use xlink:href="#DejaVuSans-31" x="517.529297"/>
      </g>
     </g>
    </g>
    <g id="xtick_3">
     <g id="line2d_3">
      <g>
       <use xlink:href="#mb95459ff49" x="280.427924" y="320.4" style="stroke: #000000; stroke-width: 0.8"/>
      </g>
     </g>
     <g id="text_3">
      <!-- 2020-06-15 -->
      <g transform="translate(251.370111 334.998438) scale(0.1 -0.1)">
       <use xlink:href="#DejaVuSans-32"/>
       <use xlink:href="#DejaVuSans-30" x="63.623047"/>
       <use xlink:href="#DejaVuSans-32" x="127.246094"/>
       <use xlink:href="#DejaVuSans-30" x="190.869141"/>
       <use xlink:href="#DejaVuSans-2d" x="254.492188"/>
       <use xlink:href="#DejaVuSans-30" x="290.576172"/>
       <use xlink:href="#DejaVuSans-36" x="354.199219"/>
       <use xlink:href="#DejaVuSans-2d" x="417.822266"/>
       <use xlink:href="#DejaVuSans-31" x="453.90625"/>
       <use xlink:href="#DejaVuSans-35" x="517.529297"/>
      </g>
     </g>
    </g>
    <g id="xtick_4">
     <g id="line2d_4">
      <g>
       <use xlink:href="#mb95459ff49" x="358.133092" y="320.4" style="stroke: #000000; stroke-width: 0.8"/>
      </g>
     </g>
     <g id="text_4">
      <!-- 2020-07-01 -->
      <g transform="translate(329.075279 334.998438) scale(0.1 -0.1)">
       <defs>
        <path id="DejaVuSans-37" d="M 525 4666 
L 3525 4666 
L 3525 4397 
L 1831 0 
L 1172 0 
L 2766 4134 
L 525 4134 
L 525 4666 
z
" transform="scale(0.015625)"/>
       </defs>
       <use xlink:href="#DejaVuSans-32"/>
       <use xlink:href="#DejaVuSans-30" x="63.623047"/>
       <use xlink:href="#DejaVuSans-32" x="127.246094"/>
       <use xlink:href="#DejaVuSans-30" x="190.869141"/>
       <use xlink:href="#DejaVuSans-2d" x="254.492188"/>
       <use xlink:href="#DejaVuSans-30" x="290.576172"/>
       <use xlink:href="#DejaVuSans-37" x="354.199219"/>
       <use xlink:href="#DejaVuSans-2d" x="417.822266"/>
       <use xlink:href="#DejaVuSans-30" x="453.90625"/>
       <use xlink:href="#DejaVuSans-31" x="517.529297"/>
      </g>
     </g>
    </g>
    <g id="xtick_5">
     <g id="line2d_5">
      <g>
       <use xlink:href="#mb95459ff49" x="426.125113" y="320.4" style="stroke: #000000; stroke-width: 0.8"/>
      </g>
     </g>
     <g id="text_5">
      <!-- 2020-07-15 -->
      <g transform="translate(397.067301 334.998438) scale(0.1 -0.1)">
       <use xlink:href="#DejaVuSans-32"/>
       <use xlink:href="#DejaVuSans-30" x="63.623047"/>
       <use xlink:href="#DejaVuSans-32" x="127.246094"/>
       <use xlink:href="#DejaVuSans-30" x="190.869141"/>
       <use xlink:href="#DejaVuSans-2d" x="254.492188"/>
       <use xlink:href="#DejaVuSans-30" x="290.576172"/>
       <use xlink:href="#DejaVuSans-37" x="354.199219"/>
       <use xlink:href="#DejaVuSans-2d" x="417.822266"/>
       <use xlink:href="#DejaVuSans-31" x="453.90625"/>
       <use xlink:href="#DejaVuSans-35" x="517.529297"/>
      </g>
     </g>
    </g>
    <g id="xtick_6">
     <g id="line2d_6">
      <g>
       <use xlink:href="#mb95459ff49" x="508.686854" y="320.4" style="stroke: #000000; stroke-width: 0.8"/>
      </g>
     </g>
     <g id="text_6">
      <!-- 2020-08-01 -->
      <g transform="translate(479.629042 334.998438) scale(0.1 -0.1)">
       <defs>
        <path id="DejaVuSans-38" d="M 2034 2216 
Q 1584 2216 1326 1975 
Q 1069 1734 1069 1313 
Q 1069 891 1326 650 
Q 1584 409 2034 409 
Q 2484 409 2743 651 
Q 3003 894 3003 1313 
Q 3003 1734 2745 1975 
Q 2488 2216 2034 2216 
z
M 1403 2484 
Q 997 2584 770 2862 
Q 544 3141 544 3541 
Q 544 4100 942 4425 
Q 1341 4750 2034 4750 
Q 2731 4750 3128 4425 
Q 3525 4100 3525 3541 
Q 3525 3141 3298 2862 
Q 3072 2584 2669 2484 
Q 3125 2378 3379 2068 
Q 3634 1759 3634 1313 
Q 3634 634 3220 271 
Q 2806 -91 2034 -91 
Q 1263 -91 848 271 
Q 434 634 434 1313 
Q 434 1759 690 2068 
Q 947 2378 1403 2484 
z
M 1172 3481 
Q 1172 3119 1398 2916 
Q 1625 2713 2034 2713 
Q 2441 2713 2670 2916 
Q 2900 3119 2900 3481 
Q 2900 3844 2670 4047 
Q 2441 4250 2034 4250 
Q 1625 4250 1398 4047 
Q 1172 3844 1172 3481 
z
" transform="scale(0.015625)"/>
       </defs>
       <use xlink:href="#DejaVuSans-32"/>
       <use xlink:href="#DejaVuSans-30" x="63.623047"/>
       <use xlink:href="#DejaVuSans-32" x="127.246094"/>
       <use xlink:href="#DejaVuSans-30" x="190.869141"/>
       <use xlink:href="#DejaVuSans-2d" x="254.492188"/>
       <use xlink:href="#DejaVuSans-30" x="290.576172"/>
       <use xlink:href="#DejaVuSans-38" x="354.199219"/>
       <use xlink:href="#DejaVuSans-2d" x="417.822266"/>
       <use xlink:href="#DejaVuSans-30" x="453.90625"/>
       <use xlink:href="#DejaVuSans-31" x="517.529297"/>
      </g>
     </g>
    </g>
   </g>
   <g id="matplotlib.axis_2">
    <g id="ytick_1">
     <g id="line2d_7">
      <defs>
       <path id="me85582c4a6" d="M 0 0 
L -3.5 0 
" style="stroke: #000000; stroke-width: 0.8"/>
      </defs>
      <g>
       <use xlink:href="#me85582c4a6" x="72" y="315.662941" style="stroke: #000000; stroke-width: 0.8"/>
      </g>
     </g>
     <g id="text_7">
      <!-- −2 -->
      <g transform="translate(50.257812 319.46216) scale(0.1 -0.1)">
       <defs>
        <path id="DejaVuSans-2212" d="M 678 2272 
L 4684 2272 
L 4684 1741 
L 678 1741 
L 678 2272 
z
" transform="scale(0.015625)"/>
       </defs>
       <use xlink:href="#DejaVuSans-2212"/>
       <use xlink:href="#DejaVuSans-32" x="83.789062"/>
      </g>
     </g>
    </g>
    <g id="ytick_2">
     <g id="line2d_8">
      <g>
       <use xlink:href="#me85582c4a6" x="72" y="264.265116" style="stroke: #000000; stroke-width: 0.8"/>
      </g>
     </g>
     <g id="text_8">
      <!-- −1 -->
      <g transform="translate(50.257812 268.064335) scale(0.1 -0.1)">
       <use xlink:href="#DejaVuSans-2212"/>
       <use xlink:href="#DejaVuSans-31" x="83.789062"/>
      </g>
     </g>
    </g>
    <g id="ytick_3">
     <g id="line2d_9">
      <g>
       <use xlink:href="#me85582c4a6" x="72" y="212.867291" style="stroke: #000000; stroke-width: 0.8"/>
      </g>
     </g>
     <g id="text_9">
      <!-- 0 -->
      <g transform="translate(58.6375 216.66651) scale(0.1 -0.1)">
       <use xlink:href="#DejaVuSans-30"/>
      </g>
     </g>
    </g>
    <g id="ytick_4">
     <g id="line2d_10">
      <g>
       <use xlink:href="#me85582c4a6" x="72" y="161.469467" style="stroke: #000000; stroke-width: 0.8"/>
      </g>
     </g>
     <g id="text_10">
      <!-- 1 -->
      <g transform="translate(58.6375 165.268686) scale(0.1 -0.1)">
       <use xlink:href="#DejaVuSans-31"/>
      </g>
     </g>
    </g>
    <g id="ytick_5">
     <g id="line2d_11">
      <g>
       <use xlink:href="#me85582c4a6" x="72" y="110.071642" style="stroke: #000000; stroke-width: 0.8"/>
      </g>
     </g>
     <g id="text_11">
      <!-- 2 -->
      <g transform="translate(58.6375 113.870861) scale(0.1 -0.1)">
       <use xlink:href="#DejaVuSans-32"/>
      </g>
     </g>
    </g>
    <g id="ytick_6">
     <g id="line2d_12">
      <g>
       <use xlink:href="#me85582c4a6" x="72" y="58.673817" style="stroke: #000000; stroke-width: 0.8"/>
      </g>
     </g>
     <g id="text_12">
      <!-- 3 -->
      <g transform="translate(58.6375 62.473036) scale(0.1 -0.1)">
       <defs>
        <path id="DejaVuSans-33" d="M 2597 2516 
Q 3050 2419 3304 2112 
Q 3559 1806 3559 1356 
Q 3559 666 3084 287 
Q 2609 -91 1734 -91 
Q 1441 -91 1130 -33 
Q 819 25 488 141 
L 488 750 
Q 750 597 1062 519 
Q 1375 441 1716 441 
Q 2309 441 2620 675 
Q 2931 909 2931 1356 
Q 2931 1769 2642 2001 
Q 2353 2234 1838 2234 
L 1294 2234 
L 1294 2753 
L 1863 2753 
Q 2328 2753 2575 2939 
Q 2822 3125 2822 3475 
Q 2822 3834 2567 4026 
Q 2313 4219 1838 4219 
Q 1578 4219 1281 4162 
Q 984 4106 628 3988 
L 628 4550 
Q 988 4650 1302 4700 
Q 1616 4750 1894 4750 
Q 2613 4750 3031 4423 
Q 3450 4097 3450 3541 
Q 3450 3153 3228 2886 
Q 3006 2619 2597 2516 
z
" transform="scale(0.015625)"/>
       </defs>
       <use xlink:href="#DejaVuSans-33"/>
      </g>
     </g>
    </g>
   </g>
   <g id="line2d_13">
    <path d="M 72 287.931587 
L 72.404714 298.823915 
L 72.607072 297.169895 
L 72.809429 286.923038 
L 73.214143 257.231359 
L 73.618858 245.290141 
L 75.035358 165.61478 
L 75.237715 162.770672 
L 75.440073 167.631877 
L 75.64243 175.51873 
L 75.844787 178.685573 
L 76.047144 193.329703 
L 76.654216 260.821793 
L 77.05893 283.937734 
L 77.261287 288.133297 
L 77.463645 287.770219 
L 77.666002 277.483021 
L 78.070716 250.111004 
L 78.475431 238.129444 
L 78.677788 229.355069 
L 79.487217 174.611036 
L 79.891931 158.978528 
L 80.094288 160.854429 
L 80.903717 201.599804 
L 81.713146 273.973271 
L 82.11786 288.052613 
L 82.320218 290.009198 
L 82.522575 289.726804 
L 82.724932 287.306287 
L 82.927289 280.750719 
L 83.332004 258.663499 
L 83.736718 244.906892 
L 83.939075 241.9821 
L 84.141432 242.244323 
L 84.546147 248.396471 
L 84.748504 250.413569 
L 84.950861 250.43374 
L 85.355576 254.467936 
L 85.557933 251.26075 
L 85.76029 257.150676 
L 86.569719 300.356909 
L 86.772076 306.206493 
L 86.974433 307.739487 
L 87.176791 307.8 
L 87.379148 306.509057 
L 87.581505 302.918623 
L 87.783862 296.423569 
L 88.188577 275.223871 
L 88.390934 270.24164 
L 89.200363 262.475814 
L 89.40272 258.502131 
L 89.807434 244.281592 
L 90.212149 241.921588 
L 90.414506 239.319531 
L 90.616863 246.964332 
L 91.223935 295.596559 
L 91.628649 306.206493 
L 91.831006 306.267006 
L 92.033364 303.866659 
L 92.842792 259.490509 
L 93.04515 257.433069 
L 93.449864 249.162968 
L 93.652221 248.658694 
L 93.854578 245.834757 
L 94.056936 245.229628 
L 94.259293 242.708256 
L 94.46165 236.556108 
L 94.664007 233.812855 
L 94.866364 234.700378 
L 95.068722 237.726024 
L 95.271079 234.034735 
L 95.473436 243.757146 
L 96.080508 295.959636 
L 96.485222 304.814695 
L 96.687579 306.650254 
L 96.889937 302.474862 
L 97.699365 258.784525 
L 98.306437 248.678865 
L 98.508794 248.315787 
L 99.52058 227.902758 
L 99.722937 229.113017 
L 99.925295 233.30858 
L 100.127652 231.553705 
L 100.330009 241.316458 
L 100.937081 293.579461 
L 101.341795 305.379483 
L 101.544152 306.327519 
L 101.74651 302.757256 
L 101.948867 291.259798 
L 102.353581 262.374959 
L 102.555938 260.882306 
L 103.567724 243.777317 
L 104.377153 222.517107 
L 104.57951 223.747537 
L 104.781868 228.931478 
L 104.984225 228.911307 
L 105.186582 237.463802 
L 105.793654 290.553814 
L 106.198368 302.817769 
L 106.400725 304.512131 
L 106.603083 300.639303 
L 107.412511 256.464862 
L 107.614869 254.810842 
L 107.817226 251.280921 
L 108.22194 237.302434 
L 108.626655 216.425472 
L 108.829012 210.717085 
L 109.031369 208.901697 
L 109.638441 217.252482 
L 109.840798 222.476765 
L 110.043155 232.48157 
L 110.650227 285.430386 
L 111.054941 299.146651 
L 111.257298 300.98221 
L 111.459655 299.308018 
L 111.662013 288.335007 
L 112.066727 260.196493 
L 112.471442 245.774244 
L 113.887942 179.976516 
L 114.090299 177.697195 
L 114.292656 184.252763 
L 114.495014 195.245946 
L 114.697371 199.66339 
L 115.102085 232.380715 
L 115.709157 279.863196 
L 116.113871 293.276896 
L 116.316228 293.438264 
L 116.518586 291.844757 
L 116.720943 288.355178 
L 117.125657 262.153078 
L 118.542158 161.479729 
L 118.744515 151.757318 
L 118.946872 148.025687 
L 119.149229 151.555608 
L 119.756301 187.984394 
L 120.56573 264.311373 
L 120.970444 283.372946 
L 121.172801 287.306287 
L 121.375159 288.879623 
L 121.577516 287.487826 
L 121.779873 279.863196 
L 122.589302 230.807379 
L 123.196374 206.319812 
L 123.398731 201.922539 
L 123.601088 202.124249 
L 123.803445 201.579633 
L 124.410517 214.468887 
L 124.612874 225.018308 
L 125.219946 279.157212 
L 125.62466 293.135699 
L 125.827017 295.051942 
L 126.029374 292.611254 
L 127.04116 238.371496 
L 127.648232 202.386472 
L 128.255304 161.620926 
L 128.457661 154.359374 
L 128.660018 154.036639 
L 129.26709 196.678085 
L 130.278876 284.05876 
L 130.481233 291.582534 
L 130.68359 292.913819 
L 130.885947 290.432788 
L 132.504805 185.664731 
L 133.111877 144.616792 
L 133.314234 135.560023 
L 133.516591 137.193872 
L 133.921306 151.979199 
L 134.123663 159.119725 
L 135.135449 264.815647 
L 135.540163 276.958575 
L 135.74252 276.050881 
L 135.944878 265.864538 
L 136.349592 235.648414 
L 136.551949 229.133188 
L 136.754306 217.716415 
L 136.956664 222.113688 
L 137.159021 211.241531 
L 137.766092 202.749549 
L 137.96845 203.132798 
L 138.373164 197.928686 
L 138.777879 205.190238 
L 138.980236 205.997077 
L 139.182593 217.353337 
L 139.789665 271.835147 
L 140.194379 286.620474 
L 140.396736 288.6174 
L 140.599093 285.71278 
L 141.003808 256.646401 
L 141.408522 236.273714 
L 142.015594 223.384459 
L 142.622665 214.589913 
L 142.825023 214.32769 
L 143.02738 213.157774 
L 143.229737 213.823416 
L 143.634451 218.906502 
L 143.836809 217.716415 
L 144.039166 227.51951 
L 144.646238 275.001991 
L 145.050952 286.640645 
L 145.253309 287.891245 
L 145.455666 284.865599 
L 145.860381 256.323665 
L 146.062738 240.489448 
L 146.66981 224.63506 
L 146.872167 222.053175 
L 147.074524 221.004284 
L 147.479238 210.313666 
L 147.681596 218.462741 
L 147.883953 219.410777 
L 148.08631 221.932149 
L 148.491024 230.908234 
L 148.693382 229.59712 
L 149.098096 252.370154 
L 149.502811 279.500119 
L 149.907525 292.147321 
L 150.109882 294.144248 
L 150.312239 293.579461 
L 150.514597 290.836208 
L 150.716954 285.289189 
L 151.121668 264.997186 
L 151.526383 245.06826 
L 151.931097 239.420386 
L 152.133454 238.996796 
L 152.335811 240.913039 
L 152.538169 241.417313 
L 152.740526 239.420386 
L 152.942883 239.70278 
L 153.14524 238.754744 
L 153.347597 238.795086 
L 153.549955 235.950978 
L 153.752312 238.089102 
L 154.764098 288.153468 
L 154.966455 292.006125 
L 155.168812 293.35758 
L 155.573527 289.525094 
L 155.775884 278.753792 
L 156.78767 202.931088 
L 157.799456 161.459558 
L 158.001813 163.416143 
L 158.406528 176.265056 
L 158.608885 189.456875 
L 159.215956 256.242982 
L 159.620671 277.26114 
L 159.823028 280.387642 
L 160.025385 279.500119 
L 160.227743 269.959246 
L 160.632457 238.371496 
L 161.8466 189.416533 
L 162.251315 179.633609 
L 162.453672 179.774806 
L 162.656029 182.558401 
L 163.465458 213.520851 
L 164.072529 271.774634 
L 164.477244 289.888172 
L 164.679601 290.210908 
L 164.881958 287.064235 
L 165.084316 277.180456 
L 165.48903 246.258348 
L 166.500816 212.108883 
L 167.310245 170.334788 
L 167.512602 173.602487 
L 167.917316 193.632267 
L 168.119674 197.969028 
L 168.322031 209.022723 
L 168.929102 266.852916 
L 169.333817 281.638242 
L 169.536174 285.067308 
L 169.738531 281.497045 
L 170.143246 254.931868 
L 170.54796 225.421728 
L 171.357389 182.033955 
L 171.559746 176.164201 
L 172.166818 152.604499 
L 172.369175 154.177835 
L 172.571532 161.883149 
L 173.178604 199.824758 
L 173.785675 269.031381 
L 174.19039 287.911416 
L 174.392747 290.816037 
L 174.595104 289.040991 
L 174.999819 265.481289 
L 175.404533 241.134919 
L 177.023391 164.949137 
L 177.225748 165.453412 
L 177.428105 169.265727 
L 177.630462 185.42268 
L 177.83282 187.802855 
L 178.237534 230.767037 
L 178.642248 272.561302 
L 179.046963 291.259798 
L 179.24932 294.890574 
L 179.451677 292.429715 
L 179.654034 283.957905 
L 180.261106 245.128773 
L 181.879964 150.647914 
L 182.082321 147.4609 
L 182.284678 152.987748 
L 183.094107 207.893149 
L 183.498821 245.915441 
L 183.903536 266.832745 
L 184.30825 274.477545 
L 184.510607 275.80883 
L 184.712965 272.258738 
L 184.915322 259.208115 
L 185.724751 179.23019 
L 186.129465 158.373399 
L 186.331822 152.463302 
L 186.53418 151.716976 
L 186.736537 154.198006 
L 187.748323 193.652438 
L 188.557752 256.283324 
L 188.962466 270.120614 
L 189.164823 272.117541 
L 189.36718 272.198225 
L 189.569538 271.47207 
L 189.771895 260.942819 
L 190.986038 167.248629 
L 191.188395 162.064688 
L 191.390752 162.024346 
L 191.795467 170.960089 
L 192.604896 201.539291 
L 193.414325 263.403679 
L 193.819039 276.797208 
L 194.021396 277.846098 
L 194.426111 273.973271 
L 194.628468 265.219067 
L 195.437897 205.694512 
L 195.640254 200.792964 
L 195.842611 201.983052 
L 196.247325 207.91332 
L 196.449683 208.478107 
L 196.65204 208.094858 
L 197.056754 216.122907 
L 197.259112 216.949917 
L 197.461469 225.179676 
L 198.06854 272.460447 
L 198.473255 286.33808 
L 198.675612 286.438935 
L 198.877969 282.868672 
L 199.282684 252.753402 
L 199.687398 230.42413 
L 201.306256 165.453412 
L 201.508613 164.323837 
L 202.115684 183.103017 
L 202.318042 194.015516 
L 202.925113 256.706914 
L 203.329828 273.973271 
L 203.532185 276.03071 
L 203.734542 273.105919 
L 203.936899 261.830342 
L 204.341614 228.5684 
L 205.758114 175.074968 
L 205.960471 172.63428 
L 206.162829 172.775477 
L 206.365186 174.167274 
L 206.7699 185.765586 
L 206.972257 188.892088 
L 207.174615 199.502022 
L 207.781686 257.291872 
L 208.186401 273.105919 
L 208.388758 276.091223 
L 208.591115 272.823525 
L 208.793472 261.205042 
L 209.198187 228.124639 
L 209.805258 206.319812 
L 210.209973 186.854819 
L 210.817044 146.048932 
L 211.019402 137.738489 
L 211.221759 140.64311 
L 211.626473 164.606231 
L 211.82883 169.709488 
L 212.031188 184.131737 
L 212.638259 247.811513 
L 213.042974 266.005735 
L 213.245331 269.918904 
L 213.447688 268.244713 
L 213.650045 257.755805 
L 214.257117 215.396752 
L 214.661831 189.598072 
L 215.47126 131.485486 
L 215.875975 115.106652 
L 216.078332 114.64272 
L 216.280689 120.068713 
L 217.090118 182.518059 
L 217.697189 243.152017 
L 218.101904 261.225213 
L 218.304261 264.513082 
L 218.506618 265.844367 
L 218.708976 264.613937 
L 218.911333 252.148273 
L 219.518404 198.493473 
L 220.125476 164.021272 
L 220.327833 161.90332 
L 220.53019 164.081785 
L 221.541976 205.512973 
L 221.744334 210.555718 
L 222.553762 266.267957 
L 222.958477 276.918233 
L 223.160834 278.592425 
L 223.363191 278.935331 
L 223.565549 277.402337 
L 223.767906 268.870013 
L 224.374977 231.45285 
L 224.779692 224.029931 
L 225.386763 226.047028 
L 225.589121 229.496265 
L 225.791478 230.363617 
L 226.196192 238.573205 
L 226.398549 238.230299 
L 226.600907 244.523644 
L 227.410335 297.028698 
L 227.612693 300.98221 
L 227.81505 302.63623 
L 228.017407 299.509728 
L 228.826836 257.796147 
L 229.029193 255.516826 
L 229.23155 249.889124 
L 230.648051 187.782684 
L 230.850408 188.347471 
L 231.255122 202.467156 
L 231.45748 213.137603 
L 232.064551 275.506265 
L 232.469266 292.32886 
L 232.671623 294.991429 
L 232.87398 293.801342 
L 233.278694 269.031381 
L 233.683409 246.964332 
L 235.302267 183.708147 
L 235.504624 183.123188 
L 236.111695 201.841855 
L 236.314053 211.987857 
L 236.921124 272.843696 
L 237.325839 288.39552 
L 237.528196 291.461508 
L 237.730553 289.383898 
L 238.135267 265.925051 
L 238.539982 244.584157 
L 239.349411 214.287348 
L 239.754125 204.484253 
L 240.15884 194.479448 
L 240.361197 194.237397 
L 240.563554 199.582706 
L 240.968268 216.828892 
L 241.170626 224.251811 
L 241.777697 278.652938 
L 242.182412 294.18459 
L 242.384769 296.625278 
L 242.587126 293.700487 
L 242.99184 269.495314 
L 243.396555 251.906221 
L 245.21777 178.786428 
L 245.420127 182.941649 
L 246.027199 209.184091 
L 246.836627 281.154139 
L 247.038985 289.343556 
L 247.241342 292.449886 
L 247.443699 289.968856 
L 247.848413 266.893258 
L 249.467271 157.203482 
L 249.669628 149.296459 
L 249.871985 147.400387 
L 250.074343 147.561755 
L 250.2767 154.359374 
L 250.883772 185.805928 
L 251.6932 259.228286 
L 252.097915 273.448825 
L 252.300272 276.454301 
L 252.502629 276.716524 
L 252.704986 272.92438 
L 253.109701 240.852526 
L 253.91913 169.164872 
L 254.323844 153.693732 
L 254.728558 145.060554 
L 254.930916 143.830124 
L 255.133273 151.17236 
L 255.740345 187.863368 
L 256.549773 261.507607 
L 256.954488 276.656011 
L 257.156845 280.387642 
L 257.359202 282.021491 
L 257.561559 281.073455 
L 257.966274 252.793744 
L 258.573345 203.455533 
L 258.97806 182.235665 
L 259.382774 171.444192 
L 259.585131 168.075639 
L 259.787489 167.652048 
L 259.989846 170.213763 
L 260.39456 185.866441 
L 260.596917 198.937235 
L 261.203989 259.631706 
L 261.608704 277.946953 
L 261.811061 280.811232 
L 262.013418 280.044735 
L 262.418132 256.585888 
L 262.62049 244.826208 
L 263.025204 235.36602 
L 263.227561 232.622767 
L 263.429918 231.634389 
L 263.834633 232.88499 
L 264.03699 232.582425 
L 264.239347 233.51029 
L 264.441704 233.590974 
L 264.644062 233.328751 
L 264.846419 235.325678 
L 265.048776 239.279189 
L 265.251133 239.279189 
L 265.45349 243.21253 
L 266.060562 284.784915 
L 266.465277 297.351434 
L 266.667634 298.864257 
L 266.869991 294.769549 
L 267.072348 286.983551 
L 267.477063 261.043674 
L 268.084134 239.339702 
L 268.488849 229.274385 
L 269.09592 218.261031 
L 269.500635 214.388203 
L 269.702992 216.526327 
L 269.905349 220.056248 
L 270.107706 220.72189 
L 270.310063 226.894209 
L 270.917135 274.719597 
L 271.32185 286.438935 
L 271.524207 288.536717 
L 271.726564 286.862525 
L 274.15485 148.267739 
L 274.357208 141.248239 
L 274.559565 144.515937 
L 275.166636 169.144701 
L 275.976065 249.001601 
L 276.38078 261.305897 
L 276.583137 260.620084 
L 276.987851 239.238848 
L 277.392566 210.938966 
L 278.404352 155.186384 
L 278.606709 152.20108 
L 279.011423 139.251312 
L 279.213781 137.677976 
L 279.416138 141.853368 
L 280.023209 182.699598 
L 280.630281 252.551693 
L 281.034995 274.860794 
L 281.237353 279.641315 
L 281.43971 278.128492 
L 281.642067 272.359593 
L 282.249139 231.473021 
L 282.85621 198.533815 
L 283.867996 156.638695 
L 284.070354 155.468778 
L 284.272711 163.456485 
L 285.284497 244.806037 
L 285.689211 276.313104 
L 286.093926 290.755524 
L 286.296283 292.994503 
L 286.49864 291.219457 
L 286.700997 288.335007 
L 287.105712 257.957515 
L 287.712783 207.469558 
L 288.522212 164.928966 
L 288.724569 157.949808 
L 288.926927 156.053736 
L 289.129284 159.563486 
L 289.736355 192.684232 
L 290.545784 261.326068 
L 290.950499 276.292933 
L 291.152856 279.016015 
L 291.355213 279.096699 
L 291.55757 277.644389 
L 291.759927 265.420776 
L 292.771714 168.761452 
L 293.176428 147.218848 
L 293.581142 136.205495 
L 293.7835 134.511132 
L 293.985857 137.96037 
L 294.592928 162.972382 
L 295.402357 244.563986 
L 295.807072 258.966064 
L 296.009429 258.804696 
L 296.414143 238.916112 
L 297.830644 106.513816 
L 298.235358 93.463193 
L 298.437715 90.92165 
L 298.640073 91.183873 
L 298.84243 93.200971 
L 299.044787 101.087823 
L 299.449501 127.552145 
L 300.056573 205.069212 
L 300.461287 229.839172 
L 300.663645 235.749268 
L 300.866002 236.455253 
L 301.068359 229.758488 
L 301.473073 200.268519 
L 302.484859 96.932601 
L 302.687217 85.818393 
L 302.889574 85.919248 
L 303.091931 93.866613 
L 303.496646 102.358594 
L 303.90136 124.203763 
L 304.306074 151.636292 
L 304.913146 219.592315 
L 305.31786 244.483302 
L 305.520218 249.949637 
L 305.722575 248.194762 
L 305.924932 241.195432 
L 306.532004 201.962881 
L 307.54379 133.22019 
L 307.746147 123.195214 
L 307.948504 122.327862 
L 308.757933 154.016468 
L 309.162647 179.613438 
L 309.769719 241.477826 
L 310.174433 261.003332 
L 310.376791 265.319921 
L 310.579148 264.755134 
L 310.983862 241.76022 
L 312.198005 139.594219 
L 312.60272 128.177446 
L 312.805077 123.881027 
L 313.007434 124.425644 
L 313.209791 128.05642 
L 313.816863 155.146042 
L 314.01922 168.579913 
L 314.626292 230.040882 
L 315.031006 250.171517 
L 315.233364 254.669645 
L 315.435721 254.024174 
L 315.840435 235.587901 
L 316.24515 217.21214 
L 316.649864 205.412118 
L 317.054578 190.38474 
L 317.66165 183.002162 
L 317.864007 182.558401 
L 318.066364 181.670878 
L 318.268722 186.269861 
L 318.875793 208.014174 
L 319.685222 265.561973 
L 320.089937 278.108321 
L 320.292294 279.721999 
L 320.697008 271.936002 
L 321.101723 246.177664 
L 322.315866 169.648975 
L 322.72058 159.583657 
L 322.922937 157.304337 
L 323.125295 161.358703 
L 323.732366 188.488668 
L 324.541795 255.79922 
L 324.94651 269.83822 
L 325.148867 272.682328 
L 325.351224 272.742841 
L 325.553581 270.524034 
L 325.755938 258.421447 
L 326.970082 148.025687 
L 327.172439 141.813026 
L 327.374796 140.259861 
L 327.77951 134.793526 
L 327.981868 139.695074 
L 328.184225 148.328252 
L 328.791296 199.05826 
L 329.196011 242.002271 
L 329.398368 256.969137 
L 329.803083 266.893258 
L 330.00544 265.965393 
L 330.207797 260.458716 
L 330.814869 212.814867 
L 331.42194 175.276678 
L 331.826655 153.007919 
L 332.029012 150.163811 
L 332.231369 150.183982 
L 332.433726 150.365521 
L 332.636083 152.42296 
L 332.838441 156.880746 
L 333.243155 179.391557 
L 333.445512 188.246616 
L 334.052584 252.793744 
L 334.457298 274.195152 
L 334.659655 279.52029 
L 334.862013 277.160285 
L 335.266727 257.675121 
L 335.671442 233.752342 
L 336.48087 194.358423 
L 336.683228 189.376191 
L 336.885585 188.286958 
L 337.087942 182.215494 
L 337.290299 180.400106 
L 337.695014 186.753964 
L 338.099728 200.954332 
L 338.302085 206.723232 
L 339.111514 271.371215 
L 339.313871 277.46285 
L 339.516228 279.661486 
L 339.718586 275.667633 
L 340.1233 252.733231 
L 340.932729 209.063065 
L 342.349229 148.408936 
L 342.551587 148.328252 
L 343.158658 172.573767 
L 343.76573 234.216274 
L 344.170444 251.906221 
L 344.372801 256.585888 
L 344.575159 254.488107 
L 344.777516 247.690487 
L 345.18223 217.353337 
L 346.194016 136.185324 
L 346.598731 121.682391 
L 347.003445 115.187336 
L 347.205802 114.360326 
L 347.40816 117.486827 
L 347.610517 125.192141 
L 348.015231 150.829453 
L 348.82466 240.32808 
L 349.229374 257.130505 
L 349.431732 256.384178 
L 349.634089 250.695963 
L 349.836446 239.763293 
L 351.050589 137.193872 
L 351.455304 119.161019 
L 351.860018 110.467327 
L 352.062375 109.579804 
L 352.264733 113.150067 
L 352.46709 124.042395 
L 353.276519 205.65417 
L 353.681233 242.909965 
L 354.085947 262.738036 
L 354.288305 267.921978 
L 354.490662 268.486765 
L 354.693019 266.288128 
L 355.097733 224.998137 
L 355.704805 152.483473 
L 356.109519 128.217787 
L 356.716591 110.346301 
L 356.918948 109.27724 
L 357.121306 113.997248 
L 357.52602 139.170628 
L 357.728377 151.636292 
L 358.740163 245.431338 
L 359.144878 258.179395 
L 359.347235 260.014954 
L 359.549592 259.692219 
L 359.751949 245.935612 
L 360.763735 127.431119 
L 361.16845 108.692281 
L 361.573164 97.779782 
L 361.775521 95.520633 
L 361.977879 98.747989 
L 362.180236 105.626293 
L 362.58495 130.96104 
L 363.394379 218.160176 
L 363.799093 235.507217 
L 364.001451 236.314056 
L 364.203808 230.524985 
L 364.406165 220.641206 
L 365.013237 152.261593 
L 365.620308 88.803697 
L 366.025023 72.908967 
L 366.429737 66.837503 
L 366.632094 67.321606 
L 366.834451 69.923663 
L 367.036809 78.496328 
L 367.441523 107.199629 
L 368.048595 185.503364 
L 368.453309 215.517778 
L 368.655666 223.908905 
L 368.858024 226.248738 
L 369.060381 222.416252 
L 369.262738 212.714012 
L 369.86981 150.224324 
L 370.476881 92.999261 
L 370.881596 76.640598 
L 371.083953 76.196837 
L 371.28631 76.902821 
L 371.488667 80.775648 
L 371.691024 86.907626 
L 372.298096 125.272825 
L 373.107525 208.942039 
L 373.512239 230.82755 
L 373.714597 235.123968 
L 374.119311 234.438155 
L 374.321668 221.891807 
L 375.333454 119.665293 
L 375.738169 106.614671 
L 375.940526 103.952102 
L 376.142883 102.862869 
L 376.34524 107.966126 
L 376.749955 133.805148 
L 377.559383 191.816879 
L 377.964098 225.946173 
L 378.368812 239.541412 
L 378.57117 239.763293 
L 378.773527 233.913709 
L 378.975884 222.860014 
L 380.392384 107.945955 
L 380.797099 98.163031 
L 381.201813 90.679598 
L 381.40417 94.391058 
L 382.011242 130.880356 
L 382.820671 212.552644 
L 383.225385 228.427204 
L 383.427743 229.072675 
L 383.6301 223.80805 
L 384.034814 201.882197 
L 385.0466 129.488559 
L 385.451315 113.029041 
L 385.653672 112.565109 
L 385.856029 116.29674 
L 386.058386 123.820514 
L 387.070172 192.825428 
L 387.474887 232.380715 
L 387.879601 253.963661 
L 388.284316 262.980088 
L 388.68903 265.461118 
L 388.891387 259.793074 
L 389.700816 216.849063 
L 390.307888 205.795367 
L 390.914959 193.228848 
L 391.117316 197.948857 
L 391.926745 236.979698 
L 392.533817 280.56918 
L 392.938531 292.772622 
L 393.140888 294.608181 
L 393.343246 294.164419 
L 393.545603 294.628352 
L 393.74796 285.793464 
L 394.355032 245.189286 
L 395.569175 189.477046 
L 395.771532 183.546779 
L 395.973889 184.736866 
L 396.176247 192.946454 
L 396.783318 234.417984 
L 397.188033 272.420105 
L 397.592747 290.009198 
L 397.795104 292.752451 
L 397.997461 290.25125 
L 398.402176 272.359593 
L 400.628105 146.452351 
L 400.830462 149.256117 
L 401.03282 159.079383 
L 401.639891 215.35641 
L 402.044606 259.10726 
L 402.44932 279.157212 
L 402.651677 283.110724 
L 402.854034 281.476874 
L 403.258749 263.524704 
L 403.663463 235.487046 
L 404.877607 130.860186 
L 405.282321 110.608524 
L 405.484678 106.453303 
L 405.687035 107.522365 
L 405.889393 117.890247 
L 406.294107 154.762794 
L 406.901179 231.150286 
L 407.305893 254.891526 
L 407.50825 260.418374 
L 407.710607 259.893928 
L 408.115322 238.936283 
L 409.73418 108.409888 
L 409.936537 103.548682 
L 410.138894 103.407485 
L 410.341251 107.945955 
L 410.948323 143.567901 
L 411.15068 159.260922 
L 411.757752 228.911307 
L 412.162466 252.652548 
L 412.364823 259.046747 
L 412.56718 260.801622 
L 412.971895 242.990649 
L 414.388395 146.210299 
L 414.79311 132.857112 
L 415.197824 126.281374 
L 415.400181 132.957967 
L 416.20961 194.660987 
L 416.614325 239.279189 
L 417.019039 262.032052 
L 417.221396 266.227615 
L 417.423753 265.682999 
L 417.828468 249.747927 
L 419.244968 153.350825 
L 419.649683 139.937125 
L 419.85204 136.165153 
L 420.054397 137.577121 
L 420.256754 146.109444 
L 421.066183 210.434692 
L 421.673255 264.694621 
L 422.077969 280.528838 
L 422.280326 282.969527 
L 422.482684 282.324055 
L 422.685041 282.162688 
L 423.089755 251.88605 
L 423.899184 183.909856 
L 424.708613 145.221921 
L 424.91097 142.09542 
L 425.113327 146.028761 
L 425.518042 171.726586 
L 425.720399 183.324898 
L 426.529828 256.686743 
L 426.934542 274.941478 
L 427.136899 279.338751 
L 427.339257 280.125419 
L 427.541614 280.3473 
L 427.743971 271.89566 
L 428.148685 232.239518 
L 428.755757 171.424021 
L 429.160471 146.23047 
L 429.565186 138.121737 
L 429.9699 141.974394 
L 430.374615 157.909466 
L 430.576972 169.346411 
L 431.386401 243.999198 
L 431.791115 256.021101 
L 431.993472 254.024174 
L 432.398187 234.075077 
L 433.207616 170.133079 
L 434.017044 101.007139 
L 434.219402 96.206446 
L 435.02883 123.134701 
L 435.433545 147.682781 
L 436.040617 217.61556 
L 436.445331 239.743122 
L 436.647688 244.785866 
L 436.850045 244.120224 
L 437.25476 223.888734 
L 437.659474 189.598072 
L 438.468903 117.446485 
L 438.67126 107.885442 
L 438.873617 108.833478 
L 439.075975 115.812636 
L 439.278332 115.368875 
L 439.480689 117.567511 
L 439.885403 135.781904 
L 440.290118 160.087932 
L 440.897189 232.179005 
L 441.301904 254.084687 
L 441.504261 259.409825 
L 441.706618 259.93427 
L 442.111333 245.47168 
L 442.920762 194.398765 
L 443.527833 160.168616 
L 444.134905 137.839344 
L 444.337262 135.297801 
L 444.539619 141.591146 
L 445.146691 185.826099 
L 445.753762 253.74178 
L 446.158477 274.558229 
L 446.360834 279.419435 
L 446.563191 277.46285 
L 446.967906 258.905551 
L 448.586763 151.132018 
L 448.991478 138.18225 
L 449.193835 135.90293 
L 449.396192 142.438327 
L 450.003264 182.074297 
L 450.812693 260.640255 
L 451.217407 273.690877 
L 451.419764 273.811903 
L 451.824479 256.948966 
L 452.43155 207.469558 
L 453.038622 166.340935 
L 453.443336 149.619195 
L 453.848051 141.89371 
L 454.050408 145.201751 
L 454.252765 155.004846 
L 454.65748 182.881136 
L 454.859837 191.171408 
L 455.669266 254.689816 
L 456.07398 267.98249 
L 456.276337 269.475143 
L 456.478694 267.518558 
L 456.681052 264.47274 
L 456.883409 256.62623 
L 457.288123 230.121566 
L 457.692838 219.370435 
L 457.895195 220.056248 
L 458.299909 225.704122 
L 458.502267 225.562925 
L 458.906981 221.811123 
L 459.109338 222.335568 
L 459.514053 226.410106 
L 459.71641 230.62584 
L 460.728196 287.245774 
L 461.13291 291.582534 
L 461.537625 288.335007 
L 461.739982 279.580803 
L 462.144696 245.733902 
L 463.561197 177.878734 
L 463.763554 170.758379 
L 463.965911 171.908125 
L 464.572983 191.01004 
L 465.382412 256.706914 
L 465.584769 263.484362 
L 465.787126 266.146931 
L 465.989483 263.766756 
L 467.608341 172.997357 
L 468.620127 152.221251 
L 468.822484 155.287239 
L 469.429556 181.025407 
L 470.036627 236.656962 
L 470.441342 254.104858 
L 470.643699 256.686743 
L 470.846056 254.165371 
L 471.857842 204.222031 
L 472.869628 174.550523 
L 473.071985 175.034626 
L 473.274343 173.279751 
L 473.4767 174.510181 
L 473.679057 178.221641 
L 473.881414 184.676353 
L 474.083772 185.805928 
L 474.286129 193.329703 
L 474.8932 244.44296 
L 475.297915 260.378032 
L 475.500272 262.011881 
L 475.702629 260.014954 
L 476.107344 236.112346 
L 476.512058 214.5294 
L 477.321487 183.647634 
L 477.726201 163.880076 
L 477.928558 160.390497 
L 478.333273 164.989479 
L 478.53563 169.366582 
L 479.142702 193.813806 
L 479.952131 260.277177 
L 480.356845 269.939075 
L 480.559202 269.535656 
L 480.963917 247.872026 
L 482.785131 121.964784 
L 482.987489 116.175714 
L 483.189846 113.593829 
L 483.392203 119.120677 
L 483.999275 158.212031 
L 484.606346 227.9431 
L 485.011061 250.716134 
L 485.213418 255.032723 
L 485.415775 255.960588 
L 485.82049 236.576279 
L 486.225204 205.976906 
L 487.23699 117.74905 
L 487.439347 114.723404 
L 487.844062 121.157945 
L 488.248776 139.41268 
L 489.260562 215.437094 
L 489.665277 246.964332 
L 490.069991 261.769829 
L 490.272348 264.069321 
L 490.474705 262.959917 
L 490.677063 261.225213 
L 490.87942 251.684341 
L 491.891206 173.521803 
L 492.29592 156.154591 
L 492.498277 148.91321 
L 492.700635 146.936455 
L 492.902992 148.529962 
L 493.105349 153.249971 
L 493.712421 186.108493 
L 494.52185 256.686743 
L 495.128921 274.598571 
L 495.331278 274.739768 
L 495.533636 274.134639 
L 495.735993 266.73189 
L 496.950136 177.031553 
L 497.557208 153.149116 
L 497.759565 149.861246 
L 497.961922 153.007919 
L 498.568994 183.889685 
L 499.378422 256.242982 
L 499.58078 262.939746 
L 499.783137 265.380434 
L 499.985494 262.132907 
L 500.187851 253.782122 
L 500.794923 217.595389 
L 500.99728 212.592986 
L 501.401995 199.764245 
L 501.806709 188.73072 
L 502.009066 188.286958 
L 502.211423 190.304056 
L 502.413781 190.929356 
L 502.616138 189.295507 
L 503.020852 198.816209 
L 503.223209 199.360825 
L 503.425567 206.723232 
L 504.032638 256.404349 
L 504.437353 269.21292 
L 504.63971 270.806427 
L 504.842067 268.486765 
L 505.246782 244.604328 
L 505.651496 221.266507 
L 507.270354 149.578853 
L 507.472711 146.533035 
L 507.675068 149.861246 
L 508.28214 177.334118 
L 508.889211 234.196103 
L 509.293926 250.978356 
L 509.496283 254.427594 
L 509.69864 252.632377 
L 510.103354 229.556778 
L 511.722212 125.313167 
L 512.126927 107.905613 
L 512.329284 109.458778 
L 512.936355 143.144311 
L 513.34107 181.3078 
L 513.745784 223.908905 
L 514.150499 246.177664 
L 514.352856 251.643999 
L 514.555213 252.128102 
L 514.75757 243.41424 
L 516.174071 148.590475 
L 516.376428 147.521413 
L 516.781142 156.658866 
L 516.9835 153.976126 
L 517.185857 154.500571 
L 517.590571 171.847612 
L 517.792928 176.002833 
L 517.995286 186.491741 
L 518.4 225.361215 
L 518.4 225.361215 
" clip-path="url(#p77f514d55d)" style="fill: none; stroke: #1f77b4; stroke-width: 1.5; stroke-linecap: square"/>
   </g>
   <g id="line2d_14">
    <path d="M 72 277.436331 
L 72.202357 277.436331 
L 72.404714 280.043111 
L 72.607072 284.099734 
L 72.809429 285.468436 
L 73.011786 280.953046 
L 73.618858 252.577725 
L 74.428286 219.638375 
L 74.833001 194.785091 
L 75.440073 169.613753 
L 75.64243 169.724662 
L 76.047144 189.277651 
L 76.654216 244.642279 
L 77.05893 276.173959 
L 77.261287 281.129519 
L 77.463645 278.803807 
L 77.666002 274.036998 
L 78.273073 242.81265 
L 79.891931 166.363925 
L 80.094288 163.198277 
L 80.296646 165.507607 
L 81.106074 219.782964 
L 81.713146 268.379597 
L 82.11786 280.861746 
L 82.320218 282.411737 
L 83.129646 261.428052 
L 83.736718 237.469962 
L 84.141432 228.750928 
L 84.546147 230.705952 
L 84.748504 233.330839 
L 85.962647 264.5043 
L 86.772076 299.151961 
L 86.974433 305.21883 
L 87.176791 307.648059 
L 87.379148 304.468634 
L 87.581505 298.511428 
L 88.390934 262.233818 
L 88.593291 258.743721 
L 88.998005 257.646349 
L 89.200363 255.8472 
L 89.605077 251.339264 
L 89.807434 248.525042 
L 90.009791 243.50459 
L 90.212149 241.259112 
L 90.414506 241.939502 
L 90.616863 244.372965 
L 90.81922 251.946362 
L 91.628649 304.732461 
L 91.831006 304.743625 
L 92.033364 301.585142 
L 92.235721 295.54212 
L 93.04515 246.647996 
L 93.247507 244.287566 
L 93.449864 246.310666 
L 93.652221 246.147161 
L 93.854578 244.549891 
L 94.259293 236.346399 
L 94.46165 234.147457 
L 94.664007 233.224649 
L 94.866364 231.198325 
L 95.068722 231.033151 
L 95.271079 234.201572 
L 95.473436 240.684381 
L 95.87815 266.641615 
L 96.282865 296.677747 
L 96.485222 301.01357 
L 96.687579 298.908029 
L 96.889937 293.829437 
L 97.294651 271.08734 
L 97.699365 249.459376 
L 98.10408 243.696454 
L 98.306437 244.98247 
L 98.508794 243.244764 
L 98.711151 243.196541 
L 99.115866 235.973461 
L 99.318223 230.632353 
L 99.52058 229.910149 
L 99.722937 228.466104 
L 99.925295 228.592284 
L 100.330009 240.552572 
L 100.734723 268.917416 
L 101.139438 294.060925 
L 101.341795 297.99288 
L 101.544152 299.142955 
L 101.74651 294.845531 
L 102.758296 245.242762 
L 102.960653 246.18976 
L 103.16301 246.022034 
L 103.365367 244.981907 
L 103.567724 245.00114 
L 103.972439 232.842332 
L 104.174796 226.538303 
L 104.57951 223.891783 
L 104.781868 224.759251 
L 105.186582 238.201816 
L 106.198368 296.351994 
L 106.400725 296.858503 
L 106.603083 293.277122 
L 107.614869 244.020684 
L 107.817226 244.033616 
L 108.019583 243.443003 
L 108.424297 233.740368 
L 108.829012 213.197608 
L 109.031369 207.462731 
L 109.233726 207.676872 
L 109.436083 209.183347 
L 110.043155 233.100644 
L 110.852584 286.617971 
L 111.257298 292.643353 
L 111.459655 289.866932 
L 111.86437 271.803163 
L 112.269084 249.111032 
L 112.876156 226.256 
L 113.483228 199.304921 
L 113.887942 186.974738 
L 114.090299 183.944242 
L 114.292656 186.0827 
L 114.697371 205.020408 
L 115.102085 230.759423 
L 115.5068 264.150166 
L 115.911514 281.384124 
L 116.113871 284.436473 
L 116.316228 284.525788 
L 116.9233 266.661051 
L 117.530372 239.362662 
L 117.935086 206.250963 
L 118.339801 177.995788 
L 118.744515 162.417911 
L 119.149229 155.191305 
L 119.351587 161.465245 
L 119.958658 204.30537 
L 120.56573 260.779422 
L 120.970444 278.967572 
L 121.172801 281.913689 
L 121.375159 280.673951 
L 121.577516 278.533516 
L 121.98223 260.616454 
L 123.196374 198.128652 
L 123.398731 195.942463 
L 123.601088 197.058969 
L 124.005802 203.926816 
L 124.410517 214.41429 
L 124.815231 236.550914 
L 125.62466 293.76362 
L 125.827017 295.878712 
L 126.029374 296.438257 
L 126.231732 292.094794 
L 126.636446 262.921327 
L 127.445875 212.065249 
L 128.457661 164.75391 
L 128.660018 162.17434 
L 128.862375 162.283715 
L 129.064733 170.507298 
L 129.469447 204.048388 
L 130.076519 272.841798 
L 130.278876 284.849697 
L 130.481233 287.545706 
L 130.68359 286.340132 
L 131.088305 273.9428 
L 132.504805 184.460144 
L 132.909519 160.780383 
L 133.111877 155.462068 
L 133.516591 150.749539 
L 133.718948 152.973969 
L 134.32602 184.685311 
L 135.337806 273.559373 
L 135.540163 275.191429 
L 135.74252 273.231113 
L 135.944878 266.329513 
L 137.159021 196.810281 
L 137.361378 192.940982 
L 137.563735 195.022256 
L 137.766092 194.964698 
L 137.96845 199.970444 
L 138.170807 199.051126 
L 138.575521 202.953731 
L 139.182593 226.093373 
L 140.194379 283.756751 
L 140.396736 286.463721 
L 140.599093 286.388211 
L 141.206165 253.827687 
L 141.813237 218.722912 
L 142.015594 215.8724 
L 142.217951 216.500569 
L 142.420308 215.175229 
L 142.825023 209.359674 
L 143.02738 209.229767 
L 143.229737 211.745287 
L 143.432094 211.690216 
L 143.634451 215.72584 
L 144.039166 231.628333 
L 144.44388 255.879943 
L 144.848595 280.289573 
L 145.050952 284.538171 
L 145.253309 284.811427 
L 145.455666 280.714383 
L 145.860381 259.811267 
L 146.265095 233.685174 
L 146.66981 216.520856 
L 146.872167 215.989026 
L 147.074524 213.516747 
L 147.276881 214.036264 
L 147.681596 206.573571 
L 147.883953 209.852499 
L 148.895739 236.697084 
L 149.502811 272.075273 
L 149.907525 282.58922 
L 150.109882 285.51513 
L 150.312239 284.57016 
L 151.324025 246.465142 
L 151.931097 233.503058 
L 152.133454 232.846149 
L 152.335811 233.168253 
L 152.538169 234.68382 
L 152.740526 235.051831 
L 152.942883 237.84189 
L 153.14524 237.740573 
L 153.347597 236.748899 
L 153.752312 245.179493 
L 153.954669 249.154706 
L 154.359383 266.052666 
L 154.764098 283.019435 
L 154.966455 287.894019 
L 155.168812 289.630034 
L 155.37117 285.944395 
L 155.775884 272.318262 
L 157.799456 164.309273 
L 158.001813 161.929918 
L 158.20417 165.749539 
L 158.811242 205.160279 
L 159.418314 264.981233 
L 159.620671 276.174289 
L 159.823028 280.099431 
L 160.025385 279.556135 
L 160.227743 274.665014 
L 160.4301 264.608038 
L 161.441886 193.969826 
L 161.8466 176.570049 
L 162.048957 172.401944 
L 162.251315 171.275544 
L 162.453672 174.237687 
L 162.858386 186.934278 
L 163.465458 217.440185 
L 164.477244 286.840526 
L 164.679601 286.678072 
L 164.881958 284.397866 
L 165.084316 276.157624 
L 165.893744 225.220465 
L 166.298459 214.162098 
L 166.500816 210.343728 
L 166.90553 196.422044 
L 167.107888 187.134438 
L 167.512602 179.681457 
L 167.714959 180.801837 
L 168.524388 229.905011 
L 168.929102 265.954939 
L 169.13146 276.0155 
L 169.333817 279.842583 
L 169.536174 279.451313 
L 169.738531 277.5217 
L 170.143246 258.962823 
L 171.762103 163.224911 
L 171.964461 160.074357 
L 172.166818 160.40125 
L 172.369175 160.486576 
L 172.571532 164.716948 
L 173.583318 240.635797 
L 173.988033 275.249239 
L 174.19039 281.222645 
L 174.392747 283.657743 
L 174.595104 281.291679 
L 174.797461 274.673071 
L 176.213962 197.646661 
L 176.821034 180.79208 
L 177.225748 178.870922 
L 177.428105 180.567485 
L 178.035177 206.237181 
L 178.439891 246.667949 
L 178.844606 283.63764 
L 179.046963 290.67517 
L 179.24932 290.834193 
L 179.451677 288.097524 
L 179.856392 268.937721 
L 180.463463 230.431642 
L 181.677607 163.743971 
L 181.879964 161.169435 
L 182.082321 160.111978 
L 182.284678 159.783344 
L 182.487035 168.994107 
L 183.296464 232.292598 
L 183.701179 262.550154 
L 183.903536 268.792117 
L 184.105893 271.140106 
L 184.30825 272.01209 
L 185.117679 245.785583 
L 186.331822 146.839457 
L 186.53418 140.402671 
L 186.736537 144.255391 
L 187.141251 163.089416 
L 187.748323 202.845132 
L 188.962466 269.282995 
L 189.164823 272.371592 
L 189.36718 271.529195 
L 189.569538 266.115935 
L 189.771895 256.693521 
L 190.986038 172.789823 
L 191.188395 165.652103 
L 191.390752 163.104495 
L 191.59311 162.143251 
L 191.795467 167.016549 
L 192.200181 184.807718 
L 193.819039 275.838292 
L 194.021396 278.903942 
L 194.223753 277.409451 
L 194.426111 270.139649 
L 195.842611 191.667947 
L 196.044968 190.876658 
L 196.449683 203.143284 
L 196.65204 212.126043 
L 197.461469 225.97498 
L 197.866183 246.679202 
L 198.473255 287.395463 
L 198.675612 291.019354 
L 198.877969 291.131357 
L 199.080326 283.5552 
L 199.889755 219.69144 
L 200.496827 197.407485 
L 200.901541 187.069062 
L 201.103898 178.871155 
L 201.306256 176.550072 
L 201.508613 176.106118 
L 201.71097 176.172456 
L 201.913327 181.936092 
L 202.520399 217.286005 
L 203.127471 268.37673 
L 203.329828 276.664739 
L 203.532185 275.319094 
L 203.734542 269.663666 
L 204.139257 247.259554 
L 204.948685 203.213833 
L 205.151043 197.643707 
L 205.758114 173.545046 
L 205.960471 171.699233 
L 206.365186 177.492692 
L 206.567543 184.20521 
L 206.972257 201.947276 
L 207.174615 209.68205 
L 207.579329 237.8116 
L 207.984044 264.849274 
L 208.186401 270.166817 
L 208.388758 271.884487 
L 208.591115 270.90939 
L 208.793472 263.293383 
L 209.805258 200.45962 
L 210.614687 172.793223 
L 211.019402 158.41732 
L 211.221759 153.441767 
L 211.424116 152.197164 
L 211.82883 179.080153 
L 212.233545 205.972291 
L 212.638259 246.822015 
L 212.840617 258.654266 
L 213.245331 266.289117 
L 213.447688 264.36682 
L 213.650045 256.462453 
L 215.673617 132.500473 
L 216.078332 124.214498 
L 216.280689 126.087117 
L 216.685403 156.377033 
L 217.090118 184.283812 
L 217.697189 238.586769 
L 218.101904 256.013367 
L 218.304261 258.600121 
L 218.708976 247.431364 
L 219.11369 230.938768 
L 220.53019 152.660948 
L 220.732548 155.813316 
L 221.137262 180.358621 
L 221.541976 206.599799 
L 222.149048 239.660105 
L 222.553762 264.538593 
L 222.958477 276.461362 
L 223.160834 279.954145 
L 223.363191 281.079583 
L 223.565549 276.248127 
L 223.970263 252.150612 
L 224.577335 217.286149 
L 224.779692 212.729735 
L 224.982049 213.35706 
L 225.589121 226.030812 
L 225.993835 236.26135 
L 226.196192 236.272476 
L 226.398549 238.418192 
L 226.803264 250.996775 
L 227.207978 275.786438 
L 227.612693 299.608014 
L 227.81505 301.631194 
L 228.017407 301.540623 
L 228.219764 296.953111 
L 229.029193 240.241218 
L 229.23155 236.661552 
L 229.433908 237.799434 
L 229.636265 237.434374 
L 230.040979 224.351485 
L 230.445694 205.294344 
L 230.850408 196.055438 
L 231.052765 196.131259 
L 231.45748 213.798653 
L 231.862194 249.349817 
L 232.266908 285.066228 
L 232.469266 290.904495 
L 232.671623 290.704568 
L 232.87398 286.224213 
L 233.278694 268.037332 
L 233.683409 244.697597 
L 234.290481 224.880163 
L 235.099909 185.250312 
L 235.302267 184.105541 
L 235.504624 185.18168 
L 235.706981 189.100082 
L 236.51641 229.197995 
L 237.123481 278.902233 
L 237.325839 286.241724 
L 237.528196 286.752626 
L 237.730553 283.758068 
L 237.93291 277.777708 
L 239.147053 213.738718 
L 239.551768 199.437838 
L 239.956482 195.120605 
L 240.15884 196.394058 
L 240.361197 198.484033 
L 240.765911 207.343666 
L 240.968268 213.893488 
L 241.372983 239.935322 
L 241.980054 283.309743 
L 242.182412 288.724265 
L 242.384769 289.600704 
L 242.587126 287.566477 
L 242.789483 280.534712 
L 243.801269 228.273815 
L 245.015413 190.596494 
L 245.420127 187.907077 
L 245.622484 193.58592 
L 246.229556 227.673551 
L 246.836627 276.661614 
L 247.038985 284.616597 
L 247.241342 286.527186 
L 247.443699 284.591121 
L 247.848413 267.239369 
L 249.669628 151.822479 
L 249.871985 148.361717 
L 250.074343 149.183403 
L 250.2767 151.502155 
L 250.479057 162.572332 
L 251.490843 244.583866 
L 251.895558 267.240741 
L 252.097915 271.199288 
L 252.300272 271.015095 
L 252.502629 268.084657 
L 252.907344 255.237683 
L 253.312058 230.264476 
L 254.121487 161.89261 
L 254.526201 146.232348 
L 254.728558 145.943988 
L 254.930916 149.753848 
L 255.133273 155.887239 
L 255.942702 206.251524 
L 256.549773 256.895737 
L 256.954488 275.400621 
L 257.156845 278.402838 
L 257.359202 276.880511 
L 257.763917 262.935836 
L 259.180417 173.882355 
L 259.382774 169.953114 
L 259.585131 170.86691 
L 259.989846 177.709267 
L 260.39456 193.115031 
L 260.799275 212.83827 
L 261.608704 281.964085 
L 261.811061 286.173334 
L 262.013418 286.492543 
L 262.215775 281.129286 
L 262.62049 251.34109 
L 263.025204 222.178865 
L 263.227561 214.000949 
L 263.429918 211.665703 
L 263.632276 212.799037 
L 264.239347 228.912397 
L 264.441704 229.844617 
L 264.846419 229.178292 
L 265.048776 230.689831 
L 265.251133 235.665871 
L 265.655848 255.558353 
L 266.262919 290.175101 
L 266.465277 295.825866 
L 266.869991 292.629996 
L 267.274705 272.745222 
L 267.881777 243.51818 
L 268.286491 233.238667 
L 268.691206 227.111729 
L 269.298277 212.073058 
L 269.500635 212.312561 
L 269.702992 213.38786 
L 270.107706 225.617782 
L 270.714778 254.701114 
L 271.119492 278.495994 
L 271.32185 283.931441 
L 271.524207 285.046138 
L 271.726564 282.245184 
L 271.928921 275.039545 
L 272.940707 219.899246 
L 273.345422 198.639802 
L 274.15485 159.882536 
L 274.559565 150.68529 
L 274.761922 156.102594 
L 275.368994 190.642404 
L 275.976065 248.552639 
L 276.38078 262.810267 
L 276.583137 261.650775 
L 276.987851 243.125929 
L 277.594923 204.249809 
L 278.404352 154.923618 
L 278.606709 145.990254 
L 278.809066 142.53511 
L 279.011423 144.416778 
L 279.416138 151.594086 
L 280.023209 186.798103 
L 280.427924 221.807222 
L 280.832638 261.406482 
L 281.034995 270.960619 
L 281.237353 274.609085 
L 281.43971 273.566768 
L 281.642067 267.262921 
L 282.249139 231.490842 
L 283.058568 186.185865 
L 283.665639 164.047119 
L 283.867996 163.808358 
L 284.070354 165.084424 
L 284.272711 169.772475 
L 284.475068 177.777792 
L 285.08214 219.267075 
L 285.689211 275.285836 
L 285.891568 284.854819 
L 286.093926 286.209631 
L 286.296283 284.863495 
L 286.49864 281.139868 
L 286.903354 266.247857 
L 287.510426 229.593291 
L 288.522212 167.630111 
L 288.724569 163.203699 
L 289.129284 164.113928 
L 289.331641 169.741739 
L 290.14107 228.568589 
L 290.545784 264.162598 
L 290.950499 278.920933 
L 291.152856 279.478021 
L 291.355213 277.433408 
L 291.55757 273.486877 
L 291.759927 265.41429 
L 292.164642 234.160771 
L 292.771714 177.5886 
L 293.176428 149.140722 
L 293.378785 140.872828 
L 293.581142 137.941569 
L 293.7835 139.964271 
L 293.985857 143.613522 
L 294.188214 150.389584 
L 295.807072 265.13074 
L 296.009429 266.320182 
L 296.211786 263.375125 
L 296.6165 235.441166 
L 298.033001 98.371703 
L 298.235358 90.803352 
L 298.437715 89.014926 
L 298.84243 99.254287 
L 299.044787 108.620561 
L 300.461287 235.022045 
L 300.663645 239.860271 
L 300.866002 238.521528 
L 301.068359 232.715078 
L 301.877788 170.05094 
L 302.889574 74.744608 
L 303.091931 69.537138 
L 303.294288 76.07197 
L 303.699003 108.839801 
L 304.508432 180.354997 
L 305.31786 242.52415 
L 305.520218 248.940695 
L 305.722575 251.232806 
L 305.924932 244.831398 
L 307.341432 144.120741 
L 307.746147 125.129176 
L 307.948504 122.220428 
L 308.150861 126.228181 
L 308.555576 144.254521 
L 309.567362 219.965291 
L 310.174433 266.151012 
L 310.376791 269.508619 
L 310.579148 267.283429 
L 310.781505 258.716839 
L 311.793291 182.074497 
L 312.400363 131.121073 
L 312.60272 119.97799 
L 312.805077 116.380268 
L 313.007434 118.114604 
L 313.412149 137.331096 
L 315.031006 254.611046 
L 315.233364 260.335459 
L 315.435721 258.872737 
L 315.638078 250.635411 
L 316.447507 194.229287 
L 316.649864 189.922381 
L 317.054578 186.888457 
L 317.256936 184.07981 
L 317.459293 185.865216 
L 317.864007 191.32533 
L 318.268722 196.217395 
L 319.07815 227.970904 
L 319.685222 263.789065 
L 320.089937 274.820899 
L 320.292294 276.016002 
L 320.697008 264.405316 
L 321.101723 247.741389 
L 322.113509 193.941244 
L 322.518223 165.640299 
L 322.72058 159.864847 
L 322.922937 158.539072 
L 323.125295 159.560018 
L 323.327652 166.885166 
L 324.744152 264.235357 
L 325.148867 271.207633 
L 325.351224 269.247409 
L 325.755938 256.312853 
L 326.160653 230.818145 
L 327.374796 135.173021 
L 327.577153 132.361743 
L 327.77951 135.420899 
L 327.981868 140.408186 
L 328.386582 165.240849 
L 329.600725 264.594742 
L 329.803083 270.184696 
L 330.00544 271.207676 
L 330.207797 267.952245 
L 330.612511 240.950668 
L 331.42194 168.391862 
L 332.029012 138.566098 
L 332.231369 138.534917 
L 332.636083 156.849181 
L 333.243155 190.005043 
L 333.850227 230.592967 
L 334.457298 275.602527 
L 334.659655 278.337216 
L 334.862013 277.049061 
L 335.06437 271.134616 
L 335.873799 217.086083 
L 336.48087 194.596726 
L 336.885585 185.952861 
L 337.087942 184.564773 
L 337.290299 185.226346 
L 337.492656 187.637773 
L 337.897371 196.67952 
L 338.7068 241.713167 
L 339.313871 280.60814 
L 339.516228 282.694502 
L 339.718586 280.203966 
L 339.920943 272.618961 
L 340.932729 209.277275 
L 342.146872 164.680029 
L 342.349229 162.915235 
L 342.551587 162.149183 
L 342.753944 165.946589 
L 343.563373 216.232269 
L 343.968087 250.504524 
L 344.170444 258.034721 
L 344.372801 258.156804 
L 344.575159 256.590123 
L 344.777516 249.930837 
L 345.384587 211.304028 
L 345.991659 164.607632 
L 346.598731 118.906458 
L 346.801088 110.567049 
L 347.003445 109.616828 
L 347.40816 122.629638 
L 347.610517 134.074708 
L 348.015231 164.742713 
L 348.419946 192.003001 
L 349.027017 246.203423 
L 349.229374 253.599805 
L 349.431732 254.728141 
L 349.634089 251.226081 
L 350.038803 225.499272 
L 351.252947 130.161576 
L 351.657661 113.678751 
L 351.860018 113.777164 
L 352.264733 124.441783 
L 352.46709 132.852836 
L 354.085947 261.775097 
L 354.288305 261.301901 
L 354.490662 256.509846 
L 355.097733 225.445239 
L 355.502448 197.368895 
L 356.311877 115.102608 
L 356.514234 107.16067 
L 356.716591 104.783809 
L 357.121306 119.194517 
L 357.323663 129.534014 
L 358.94252 259.333072 
L 359.144878 262.422306 
L 359.347235 260.708783 
L 359.751949 241.17931 
L 360.561378 164.094533 
L 361.16845 102.506882 
L 361.370807 96.31551 
L 361.573164 96.378583 
L 361.977879 106.638813 
L 362.180236 113.176433 
L 362.787307 161.447281 
L 363.596736 237.726078 
L 363.799093 245.58174 
L 364.001451 247.482069 
L 364.203808 241.674854 
L 364.810879 190.038595 
L 365.215594 150.505282 
L 365.822665 74.594935 
L 366.025023 59.865955 
L 366.22738 55.8 
L 366.429737 58.803087 
L 366.834451 75.678451 
L 367.239166 103.930795 
L 368.655666 222.724708 
L 368.858024 223.04371 
L 369.060381 217.837525 
L 370.072167 144.312042 
L 370.679238 80.891423 
L 370.881596 68.306498 
L 371.083953 63.898835 
L 371.28631 67.099545 
L 371.691024 89.211581 
L 372.095739 122.853369 
L 372.905168 191.316134 
L 373.512239 230.360604 
L 373.714597 231.668969 
L 373.916954 226.608113 
L 374.726383 185.323828 
L 374.92874 171.732595 
L 375.535811 109.491835 
L 375.738169 95.665253 
L 375.940526 91.504255 
L 376.142883 93.407504 
L 376.547597 113.540701 
L 376.952312 147.14395 
L 377.559383 199.911993 
L 378.166455 237.188805 
L 378.368812 244.100266 
L 378.57117 246.455719 
L 378.773527 242.625302 
L 378.975884 231.687245 
L 379.98767 138.216639 
L 380.392384 100.941996 
L 380.594742 91.8965 
L 380.797099 90.172837 
L 381.40417 105.348593 
L 381.606528 111.48528 
L 382.213599 158.392156 
L 383.023028 227.922633 
L 383.225385 232.183195 
L 383.427743 228.689971 
L 383.832457 207.75198 
L 384.237171 185.301109 
L 384.237171 185.301109 
" clip-path="url(#p77f514d55d)" style="fill: none; stroke: #ff7f0e; stroke-width: 1.5; stroke-linecap: square"/>
   </g>
   <g id="line2d_15">
    <path d="M 384.439529 174.866152 
L 385.248957 129.379213 
L 385.451315 122.496031 
L 385.653672 119.882119 
L 385.856029 122.640459 
L 386.260743 138.299814 
L 386.665458 167.65847 
L 387.474887 229.036471 
L 387.879601 247.158234 
L 388.081958 249.404489 
L 388.284316 248.829127 
L 388.486673 243.949975 
L 389.093744 215.571401 
L 390.307888 156.089752 
L 390.510245 153.914044 
L 390.712602 155.469965 
L 391.117316 168.81329 
L 391.522031 190.383347 
L 392.533817 254.120501 
L 392.736174 260.976356 
L 392.938531 263.548589 
L 393.140888 262.465437 
L 393.343246 258.035934 
L 393.74796 241.750006 
L 394.355032 213.766571 
L 394.962103 194.866511 
L 395.164461 193.102923 
L 395.366818 192.935752 
L 395.569175 194.074326 
L 395.973889 204.620791 
L 396.580961 227.446755 
L 397.39039 261.277133 
L 397.592747 265.538437 
L 397.795104 267.436796 
L 397.997461 266.864348 
L 398.199819 263.085521 
L 398.604533 247.492672 
L 399.211605 219.385828 
L 399.616319 210.872358 
L 400.021034 206.714708 
L 400.223391 206.765713 
L 400.628105 211.897257 
L 401.03282 219.750487 
L 401.639891 238.452062 
L 402.246963 256.294861 
L 402.44932 259.399955 
L 402.651677 259.777868 
L 402.854034 257.907921 
L 403.056392 254.120244 
L 404.472892 206.268968 
L 404.675249 204.123248 
L 404.877607 203.81519 
L 405.079964 204.918985 
L 405.282321 207.445645 
L 406.294107 228.893813 
L 406.901179 243.682937 
L 407.305893 248.603129 
L 407.50825 248.471586 
L 407.710607 246.227279 
L 408.115322 236.406132 
L 408.722393 217.903156 
L 409.127108 209.616593 
L 409.329465 207.52587 
L 409.531822 206.769247 
L 409.73418 207.333173 
L 410.138894 212.667406 
L 411.757752 240.118927 
L 411.960109 241.502441 
L 412.162466 241.708443 
L 412.364823 241.024892 
L 412.56718 239.002435 
L 412.971895 230.929758 
L 413.578966 217.706673 
L 413.983681 213.153842 
L 414.186038 213.01008 
L 414.388395 213.596519 
L 414.79311 217.657402 
L 416.007253 231.598992 
L 416.411967 235.435154 
L 416.614325 236.362936 
L 416.816682 236.75515 
L 417.019039 236.56453 
L 417.221396 235.503007 
L 417.626111 230.629657 
L 418.435539 218.726217 
L 418.637897 217.310672 
L 418.840254 217.050547 
L 419.042611 217.555035 
L 419.447325 220.471126 
L 420.256754 227.472342 
L 421.066183 231.344642 
L 421.26854 231.75933 
L 421.673255 231.945234 
L 421.875612 231.58523 
L 422.077969 230.706322 
L 422.482684 227.301851 
L 423.089755 221.642328 
L 423.49447 219.466576 
L 423.696827 219.339747 
L 423.899184 219.940876 
L 424.303898 222.600486 
L 424.91097 226.707797 
L 425.315684 228.010926 
L 425.518042 228.439223 
L 425.720399 228.604915 
L 426.327471 228.23867 
L 426.529828 228.133876 
L 426.934542 227.413862 
L 427.339257 225.719759 
L 428.148685 221.338959 
L 428.351043 220.814934 
L 428.5534 220.784112 
L 428.755757 221.279767 
L 429.160471 223.390726 
L 429.767543 226.724461 
L 429.9699 227.241536 
L 430.172257 227.420553 
L 430.374615 227.338105 
L 430.779329 226.698284 
L 431.386401 225.763055 
L 431.791115 225.580607 
L 432.19583 224.915437 
L 432.802901 223.031885 
L 433.207616 221.972057 
L 433.409973 221.866847 
L 433.61233 222.128438 
L 434.017044 223.622811 
L 434.624116 226.414714 
L 434.826473 226.817416 
L 435.02883 226.911739 
L 435.231188 226.672284 
L 436.242974 224.399965 
L 436.647688 224.420752 
L 437.052403 224.506451 
L 437.25476 224.403869 
L 437.659474 223.767939 
L 438.266546 222.747462 
L 438.468903 222.765838 
L 438.67126 223.025804 
L 439.075975 224.419352 
L 439.480689 225.912881 
L 439.683046 226.309509 
L 439.885403 226.427591 
L 440.087761 226.220744 
L 440.492475 225.163487 
L 440.897189 224.030497 
L 441.099547 223.679706 
L 441.301904 223.58156 
L 441.504261 223.693135 
L 442.111333 224.403602 
L 442.31369 224.446725 
L 442.516047 224.330253 
L 443.325476 223.258613 
L 443.527833 223.27649 
L 443.73019 223.525559 
L 444.741976 225.969967 
L 444.944334 225.897178 
L 445.349048 225.034345 
L 445.95612 223.45521 
L 446.158477 223.23811 
L 446.360834 223.299423 
L 446.765549 223.971645 
L 447.170263 224.587399 
L 447.37262 224.673846 
L 447.574977 224.570159 
L 448.384406 223.518352 
L 448.586763 223.510822 
L 448.789121 223.745263 
L 449.598549 225.511785 
L 449.800907 225.604986 
L 450.003264 225.431499 
L 450.407978 224.524284 
L 450.812693 223.507301 
L 451.01505 223.211242 
L 451.217407 223.142251 
L 451.419764 223.334445 
L 452.229193 224.80665 
L 452.43155 224.861172 
L 452.633908 224.723936 
L 453.443336 223.583005 
L 453.645694 223.568933 
L 453.848051 223.791427 
L 454.65748 225.289255 
L 454.859837 225.303492 
L 455.062194 225.092651 
L 456.07398 223.167722 
L 456.276337 223.211789 
L 456.681052 223.937556 
L 457.085766 224.76159 
L 457.288123 224.961578 
L 457.490481 224.952159 
L 457.895195 224.431496 
L 458.299909 223.734266 
L 458.502267 223.551001 
L 458.704624 223.548935 
L 459.109338 224.160341 
L 459.514053 224.93756 
L 459.71641 225.122969 
L 459.918767 225.095114 
L 460.323481 224.498809 
L 460.930553 223.326563 
L 461.13291 223.213002 
L 461.335267 223.345748 
L 461.739982 224.139532 
L 462.144696 224.892179 
L 462.347053 225.02864 
L 462.549411 224.956963 
L 462.954125 224.349601 
L 463.35884 223.654436 
L 463.561197 223.490167 
L 463.763554 223.528163 
L 464.168268 224.16076 
L 464.572983 224.875239 
L 464.77534 225.02316 
L 464.977697 224.968017 
L 465.382412 224.366901 
L 465.787126 223.569079 
L 465.989483 223.340122 
L 466.19184 223.293437 
L 466.394198 223.487481 
L 467.203626 224.956732 
L 467.405984 225.029881 
L 467.608341 224.904853 
L 468.013055 224.234138 
L 468.41777 223.572321 
L 468.620127 223.441965 
L 468.822484 223.529246 
L 469.227199 224.190474 
L 469.631913 224.85439 
L 469.83427 224.967315 
L 470.036627 224.886753 
L 470.441342 224.272636 
L 470.846056 223.54708 
L 471.048413 223.3657 
L 471.250771 223.377058 
L 471.655485 223.983748 
L 472.060199 224.760402 
L 472.262557 224.973109 
L 472.464914 224.9877 
L 472.667271 224.821461 
L 473.679057 223.417638 
L 473.881414 223.554613 
L 474.8932 224.930362 
L 475.095558 224.822434 
L 475.500272 224.192481 
L 475.904986 223.529745 
L 476.107344 223.389647 
L 476.309701 223.453005 
L 476.714415 224.088494 
L 477.11913 224.79951 
L 477.321487 224.960761 
L 477.523844 224.927744 
L 477.928558 224.396295 
L 478.53563 223.464506 
L 478.737987 223.427975 
L 479.142702 223.923153 
L 479.749773 224.860144 
L 479.952131 224.899773 
L 480.154488 224.764453 
L 481.166274 223.411628 
L 481.368631 223.52038 
L 482.380417 224.932641 
L 482.582774 224.862138 
L 482.987489 224.291345 
L 483.392203 223.613339 
L 483.59456 223.442969 
L 483.796917 223.455726 
L 484.201632 223.998655 
L 484.606346 224.684581 
L 484.808704 224.864239 
L 485.011061 224.865518 
L 485.415775 224.40753 
L 486.022847 223.496192 
L 486.225204 223.439141 
L 486.427561 223.583641 
L 487.439347 224.899095 
L 487.641704 224.796158 
L 488.046419 224.197553 
L 488.451133 223.570362 
L 488.65349 223.438644 
L 488.855848 223.499241 
L 489.260562 224.076713 
L 489.665277 224.719272 
L 489.867634 224.861035 
L 490.069991 224.828434 
L 490.474705 224.329924 
L 491.081777 223.484295 
L 491.284134 223.468923 
L 491.688849 223.951794 
L 492.29592 224.829177 
L 492.498277 224.861939 
L 492.700635 224.730189 
L 493.712421 223.451747 
L 493.914778 223.551438 
L 494.926564 224.851251 
L 495.128921 224.785789 
L 495.533636 224.253051 
L 495.93835 223.627897 
L 496.140707 223.478611 
L 496.343064 223.503607 
L 496.747779 224.022197 
L 497.152493 224.661811 
L 497.35485 224.825799 
L 497.557208 224.822079 
L 497.961922 224.381123 
L 498.568994 223.518995 
L 498.771351 223.472489 
L 498.973708 223.607881 
L 499.985494 224.832602 
L 500.187851 224.736639 
L 500.592566 224.177736 
L 500.99728 223.594232 
L 501.199637 223.483038 
L 501.401995 223.545573 
L 501.806709 224.092427 
L 502.211423 224.690012 
L 502.413781 224.81816 
L 502.616138 224.783323 
L 503.020852 224.305855 
L 503.627924 223.510293 
L 503.830281 223.501338 
L 504.234995 223.957215 
L 504.842067 224.77706 
L 505.044424 224.806947 
L 505.449139 224.42996 
L 506.05621 223.570141 
L 506.258568 223.495288 
L 506.460925 223.593064 
L 507.472711 224.805601 
L 507.675068 224.740519 
L 508.079782 224.233585 
L 508.484497 223.646335 
L 508.686854 223.510419 
L 508.889211 223.537303 
L 509.293926 224.028027 
L 509.69864 224.627102 
L 509.900997 224.77959 
L 510.103354 224.775082 
L 510.508069 224.358268 
L 511.115141 223.554526 
L 511.317498 223.515121 
L 511.722212 223.906016 
L 512.329284 224.728266 
L 512.531641 224.786833 
L 512.733998 224.693521 
L 513.138713 224.164054 
L 513.543427 223.618871 
L 513.745784 223.517747 
L 513.948141 223.579998 
L 514.352856 224.096805 
L 514.75757 224.656482 
L 514.959927 224.774797 
L 515.162285 224.740124 
L 515.566999 224.288722 
L 516.174071 223.547355 
L 516.376428 223.541797 
L 516.781142 223.972918 
L 517.388214 224.737064 
L 517.590571 224.761711 
L 517.995286 224.402601 
L 518.4 223.805025 
L 518.4 223.805025 
" clip-path="url(#p77f514d55d)" style="fill: none; stroke: #2ca02c; stroke-width: 1.5; stroke-linecap: square"/>
   </g>
   <g id="patch_3">
    <path d="M 72 320.4 
L 72 43.2 
" style="fill: none; stroke: #000000; stroke-width: 0.8; stroke-linejoin: miter; stroke-linecap: square"/>
   </g>
   <g id="patch_4">
    <path d="M 518.4 320.4 
L 518.4 43.2 
" style="fill: none; stroke: #000000; stroke-width: 0.8; stroke-linejoin: miter; stroke-linecap: square"/>
   </g>
   <g id="patch_5">
    <path d="M 72 320.4 
L 518.4 320.4 
" style="fill: none; stroke: #000000; stroke-width: 0.8; stroke-linejoin: miter; stroke-linecap: square"/>
   </g>
   <g id="patch_6">
    <path d="M 72 43.2 
L 518.4 43.2 
" style="fill: none; stroke: #000000; stroke-width: 0.8; stroke-linejoin: miter; stroke-linecap: square"/>
   </g>
   <g id="text_13">
    <!-- Classic Transformer - model_20231123163547 -->
    <g transform="translate(155.436563 37.2) scale(0.12 -0.12)">
     <defs>
      <path id="DejaVuSans-43" d="M 4122 4306 
L 4122 3641 
Q 3803 3938 3442 4084 
Q 3081 4231 2675 4231 
Q 1875 4231 1450 3742 
Q 1025 3253 1025 2328 
Q 1025 1406 1450 917 
Q 1875 428 2675 428 
Q 3081 428 3442 575 
Q 3803 722 4122 1019 
L 4122 359 
Q 3791 134 3420 21 
Q 3050 -91 2638 -91 
Q 1578 -91 968 557 
Q 359 1206 359 2328 
Q 359 3453 968 4101 
Q 1578 4750 2638 4750 
Q 3056 4750 3426 4639 
Q 3797 4528 4122 4306 
z
" transform="scale(0.015625)"/>
      <path id="DejaVuSans-6c" d="M 603 4863 
L 1178 4863 
L 1178 0 
L 603 0 
L 603 4863 
z
" transform="scale(0.015625)"/>
      <path id="DejaVuSans-61" d="M 2194 1759 
Q 1497 1759 1228 1600 
Q 959 1441 959 1056 
Q 959 750 1161 570 
Q 1363 391 1709 391 
Q 2188 391 2477 730 
Q 2766 1069 2766 1631 
L 2766 1759 
L 2194 1759 
z
M 3341 1997 
L 3341 0 
L 2766 0 
L 2766 531 
Q 2569 213 2275 61 
Q 1981 -91 1556 -91 
Q 1019 -91 701 211 
Q 384 513 384 1019 
Q 384 1609 779 1909 
Q 1175 2209 1959 2209 
L 2766 2209 
L 2766 2266 
Q 2766 2663 2505 2880 
Q 2244 3097 1772 3097 
Q 1472 3097 1187 3025 
Q 903 2953 641 2809 
L 641 3341 
Q 956 3463 1253 3523 
Q 1550 3584 1831 3584 
Q 2591 3584 2966 3190 
Q 3341 2797 3341 1997 
z
" transform="scale(0.015625)"/>
      <path id="DejaVuSans-73" d="M 2834 3397 
L 2834 2853 
Q 2591 2978 2328 3040 
Q 2066 3103 1784 3103 
Q 1356 3103 1142 2972 
Q 928 2841 928 2578 
Q 928 2378 1081 2264 
Q 1234 2150 1697 2047 
L 1894 2003 
Q 2506 1872 2764 1633 
Q 3022 1394 3022 966 
Q 3022 478 2636 193 
Q 2250 -91 1575 -91 
Q 1294 -91 989 -36 
Q 684 19 347 128 
L 347 722 
Q 666 556 975 473 
Q 1284 391 1588 391 
Q 1994 391 2212 530 
Q 2431 669 2431 922 
Q 2431 1156 2273 1281 
Q 2116 1406 1581 1522 
L 1381 1569 
Q 847 1681 609 1914 
Q 372 2147 372 2553 
Q 372 3047 722 3315 
Q 1072 3584 1716 3584 
Q 2034 3584 2315 3537 
Q 2597 3491 2834 3397 
z
" transform="scale(0.015625)"/>
      <path id="DejaVuSans-69" d="M 603 3500 
L 1178 3500 
L 1178 0 
L 603 0 
L 603 3500 
z
M 603 4863 
L 1178 4863 
L 1178 4134 
L 603 4134 
L 603 4863 
z
" transform="scale(0.015625)"/>
      <path id="DejaVuSans-63" d="M 3122 3366 
L 3122 2828 
Q 2878 2963 2633 3030 
Q 2388 3097 2138 3097 
Q 1578 3097 1268 2742 
Q 959 2388 959 1747 
Q 959 1106 1268 751 
Q 1578 397 2138 397 
Q 2388 397 2633 464 
Q 2878 531 3122 666 
L 3122 134 
Q 2881 22 2623 -34 
Q 2366 -91 2075 -91 
Q 1284 -91 818 406 
Q 353 903 353 1747 
Q 353 2603 823 3093 
Q 1294 3584 2113 3584 
Q 2378 3584 2631 3529 
Q 2884 3475 3122 3366 
z
" transform="scale(0.015625)"/>
      <path id="DejaVuSans-20" transform="scale(0.015625)"/>
      <path id="DejaVuSans-54" d="M -19 4666 
L 3928 4666 
L 3928 4134 
L 2272 4134 
L 2272 0 
L 1638 0 
L 1638 4134 
L -19 4134 
L -19 4666 
z
" transform="scale(0.015625)"/>
      <path id="DejaVuSans-72" d="M 2631 2963 
Q 2534 3019 2420 3045 
Q 2306 3072 2169 3072 
Q 1681 3072 1420 2755 
Q 1159 2438 1159 1844 
L 1159 0 
L 581 0 
L 581 3500 
L 1159 3500 
L 1159 2956 
Q 1341 3275 1631 3429 
Q 1922 3584 2338 3584 
Q 2397 3584 2469 3576 
Q 2541 3569 2628 3553 
L 2631 2963 
z
" transform="scale(0.015625)"/>
      <path id="DejaVuSans-6e" d="M 3513 2113 
L 3513 0 
L 2938 0 
L 2938 2094 
Q 2938 2591 2744 2837 
Q 2550 3084 2163 3084 
Q 1697 3084 1428 2787 
Q 1159 2491 1159 1978 
L 1159 0 
L 581 0 
L 581 3500 
L 1159 3500 
L 1159 2956 
Q 1366 3272 1645 3428 
Q 1925 3584 2291 3584 
Q 2894 3584 3203 3211 
Q 3513 2838 3513 2113 
z
" transform="scale(0.015625)"/>
      <path id="DejaVuSans-66" d="M 2375 4863 
L 2375 4384 
L 1825 4384 
Q 1516 4384 1395 4259 
Q 1275 4134 1275 3809 
L 1275 3500 
L 2222 3500 
L 2222 3053 
L 1275 3053 
L 1275 0 
L 697 0 
L 697 3053 
L 147 3053 
L 147 3500 
L 697 3500 
L 697 3744 
Q 697 4328 969 4595 
Q 1241 4863 1831 4863 
L 2375 4863 
z
" transform="scale(0.015625)"/>
      <path id="DejaVuSans-6f" d="M 1959 3097 
Q 1497 3097 1228 2736 
Q 959 2375 959 1747 
Q 959 1119 1226 758 
Q 1494 397 1959 397 
Q 2419 397 2687 759 
Q 2956 1122 2956 1747 
Q 2956 2369 2687 2733 
Q 2419 3097 1959 3097 
z
M 1959 3584 
Q 2709 3584 3137 3096 
Q 3566 2609 3566 1747 
Q 3566 888 3137 398 
Q 2709 -91 1959 -91 
Q 1206 -91 779 398 
Q 353 888 353 1747 
Q 353 2609 779 3096 
Q 1206 3584 1959 3584 
z
" transform="scale(0.015625)"/>
      <path id="DejaVuSans-6d" d="M 3328 2828 
Q 3544 3216 3844 3400 
Q 4144 3584 4550 3584 
Q 5097 3584 5394 3201 
Q 5691 2819 5691 2113 
L 5691 0 
L 5113 0 
L 5113 2094 
Q 5113 2597 4934 2840 
Q 4756 3084 4391 3084 
Q 3944 3084 3684 2787 
Q 3425 2491 3425 1978 
L 3425 0 
L 2847 0 
L 2847 2094 
Q 2847 2600 2669 2842 
Q 2491 3084 2119 3084 
Q 1678 3084 1418 2786 
Q 1159 2488 1159 1978 
L 1159 0 
L 581 0 
L 581 3500 
L 1159 3500 
L 1159 2956 
Q 1356 3278 1631 3431 
Q 1906 3584 2284 3584 
Q 2666 3584 2933 3390 
Q 3200 3197 3328 2828 
z
" transform="scale(0.015625)"/>
      <path id="DejaVuSans-65" d="M 3597 1894 
L 3597 1613 
L 953 1613 
Q 991 1019 1311 708 
Q 1631 397 2203 397 
Q 2534 397 2845 478 
Q 3156 559 3463 722 
L 3463 178 
Q 3153 47 2828 -22 
Q 2503 -91 2169 -91 
Q 1331 -91 842 396 
Q 353 884 353 1716 
Q 353 2575 817 3079 
Q 1281 3584 2069 3584 
Q 2775 3584 3186 3129 
Q 3597 2675 3597 1894 
z
M 3022 2063 
Q 3016 2534 2758 2815 
Q 2500 3097 2075 3097 
Q 1594 3097 1305 2825 
Q 1016 2553 972 2059 
L 3022 2063 
z
" transform="scale(0.015625)"/>
      <path id="DejaVuSans-64" d="M 2906 2969 
L 2906 4863 
L 3481 4863 
L 3481 0 
L 2906 0 
L 2906 525 
Q 2725 213 2448 61 
Q 2172 -91 1784 -91 
Q 1150 -91 751 415 
Q 353 922 353 1747 
Q 353 2572 751 3078 
Q 1150 3584 1784 3584 
Q 2172 3584 2448 3432 
Q 2725 3281 2906 2969 
z
M 947 1747 
Q 947 1113 1208 752 
Q 1469 391 1925 391 
Q 2381 391 2643 752 
Q 2906 1113 2906 1747 
Q 2906 2381 2643 2742 
Q 2381 3103 1925 3103 
Q 1469 3103 1208 2742 
Q 947 2381 947 1747 
z
" transform="scale(0.015625)"/>
      <path id="DejaVuSans-5f" d="M 3263 -1063 
L 3263 -1509 
L -63 -1509 
L -63 -1063 
L 3263 -1063 
z
" transform="scale(0.015625)"/>
      <path id="DejaVuSans-34" d="M 2419 4116 
L 825 1625 
L 2419 1625 
L 2419 4116 
z
M 2253 4666 
L 3047 4666 
L 3047 1625 
L 3713 1625 
L 3713 1100 
L 3047 1100 
L 3047 0 
L 2419 0 
L 2419 1100 
L 313 1100 
L 313 1709 
L 2253 4666 
z
" transform="scale(0.015625)"/>
     </defs>
     <use xlink:href="#DejaVuSans-43"/>
     <use xlink:href="#DejaVuSans-6c" x="69.824219"/>
     <use xlink:href="#DejaVuSans-61" x="97.607422"/>
     <use xlink:href="#DejaVuSans-73" x="158.886719"/>
     <use xlink:href="#DejaVuSans-73" x="210.986328"/>
     <use xlink:href="#DejaVuSans-69" x="263.085938"/>
     <use xlink:href="#DejaVuSans-63" x="290.869141"/>
     <use xlink:href="#DejaVuSans-20" x="345.849609"/>
     <use xlink:href="#DejaVuSans-54" x="377.636719"/>
     <use xlink:href="#DejaVuSans-72" x="423.970703"/>
     <use xlink:href="#DejaVuSans-61" x="465.083984"/>
     <use xlink:href="#DejaVuSans-6e" x="526.363281"/>
     <use xlink:href="#DejaVuSans-73" x="589.742188"/>
     <use xlink:href="#DejaVuSans-66" x="641.841797"/>
     <use xlink:href="#DejaVuSans-6f" x="677.046875"/>
     <use xlink:href="#DejaVuSans-72" x="738.228516"/>
     <use xlink:href="#DejaVuSans-6d" x="777.591797"/>
     <use xlink:href="#DejaVuSans-65" x="875.003906"/>
     <use xlink:href="#DejaVuSans-72" x="936.527344"/>
     <use xlink:href="#DejaVuSans-20" x="977.640625"/>
     <use xlink:href="#DejaVuSans-2d" x="1009.427734"/>
     <use xlink:href="#DejaVuSans-20" x="1045.511719"/>
     <use xlink:href="#DejaVuSans-6d" x="1077.298828"/>
     <use xlink:href="#DejaVuSans-6f" x="1174.710938"/>
     <use xlink:href="#DejaVuSans-64" x="1235.892578"/>
     <use xlink:href="#DejaVuSans-65" x="1299.369141"/>
     <use xlink:href="#DejaVuSans-6c" x="1360.892578"/>
     <use xlink:href="#DejaVuSans-5f" x="1388.675781"/>
     <use xlink:href="#DejaVuSans-32" x="1438.675781"/>
     <use xlink:href="#DejaVuSans-30" x="1502.298828"/>
     <use xlink:href="#DejaVuSans-32" x="1565.921875"/>
     <use xlink:href="#DejaVuSans-33" x="1629.544922"/>
     <use xlink:href="#DejaVuSans-31" x="1693.167969"/>
     <use xlink:href="#DejaVuSans-31" x="1756.791016"/>
     <use xlink:href="#DejaVuSans-32" x="1820.414062"/>
     <use xlink:href="#DejaVuSans-33" x="1884.037109"/>
     <use xlink:href="#DejaVuSans-31" x="1947.660156"/>
     <use xlink:href="#DejaVuSans-36" x="2011.283203"/>
     <use xlink:href="#DejaVuSans-33" x="2074.90625"/>
     <use xlink:href="#DejaVuSans-35" x="2138.529297"/>
     <use xlink:href="#DejaVuSans-34" x="2202.152344"/>
     <use xlink:href="#DejaVuSans-37" x="2265.775391"/>
    </g>
   </g>
   <g id="legend_1">
    <g id="patch_7">
     <path d="M 428.882812 95.234375 
L 511.4 95.234375 
Q 513.4 95.234375 513.4 93.234375 
L 513.4 50.2 
Q 513.4 48.2 511.4 48.2 
L 428.882812 48.2 
Q 426.882812 48.2 426.882812 50.2 
L 426.882812 93.234375 
Q 426.882812 95.234375 428.882812 95.234375 
z
" style="fill: #ffffff; opacity: 0.8; stroke: #cccccc; stroke-linejoin: miter"/>
    </g>
    <g id="line2d_16">
     <path d="M 430.882812 56.298437 
L 440.882812 56.298437 
L 450.882812 56.298437 
" style="fill: none; stroke: #1f77b4; stroke-width: 1.5; stroke-linecap: square"/>
    </g>
    <g id="text_14">
     <!-- Measured -->
     <g transform="translate(458.882812 59.798437) scale(0.1 -0.1)">
      <defs>
       <path id="DejaVuSans-4d" d="M 628 4666 
L 1569 4666 
L 2759 1491 
L 3956 4666 
L 4897 4666 
L 4897 0 
L 4281 0 
L 4281 4097 
L 3078 897 
L 2444 897 
L 1241 4097 
L 1241 0 
L 628 0 
L 628 4666 
z
" transform="scale(0.015625)"/>
       <path id="DejaVuSans-75" d="M 544 1381 
L 544 3500 
L 1119 3500 
L 1119 1403 
Q 1119 906 1312 657 
Q 1506 409 1894 409 
Q 2359 409 2629 706 
Q 2900 1003 2900 1516 
L 2900 3500 
L 3475 3500 
L 3475 0 
L 2900 0 
L 2900 538 
Q 2691 219 2414 64 
Q 2138 -91 1772 -91 
Q 1169 -91 856 284 
Q 544 659 544 1381 
z
M 1991 3584 
L 1991 3584 
z
" transform="scale(0.015625)"/>
      </defs>
      <use xlink:href="#DejaVuSans-4d"/>
      <use xlink:href="#DejaVuSans-65" x="86.279297"/>
      <use xlink:href="#DejaVuSans-61" x="147.802734"/>
      <use xlink:href="#DejaVuSans-73" x="209.082031"/>
      <use xlink:href="#DejaVuSans-75" x="261.181641"/>
      <use xlink:href="#DejaVuSans-72" x="324.560547"/>
      <use xlink:href="#DejaVuSans-65" x="363.423828"/>
      <use xlink:href="#DejaVuSans-64" x="424.947266"/>
     </g>
    </g>
    <g id="line2d_17">
     <path d="M 430.882812 70.976562 
L 440.882812 70.976562 
L 450.882812 70.976562 
" style="fill: none; stroke: #ff7f0e; stroke-width: 1.5; stroke-linecap: square"/>
    </g>
    <g id="text_15">
     <!-- Fitted -->
     <g transform="translate(458.882812 74.476562) scale(0.1 -0.1)">
      <defs>
       <path id="DejaVuSans-46" d="M 628 4666 
L 3309 4666 
L 3309 4134 
L 1259 4134 
L 1259 2759 
L 3109 2759 
L 3109 2228 
L 1259 2228 
L 1259 0 
L 628 0 
L 628 4666 
z
" transform="scale(0.015625)"/>
       <path id="DejaVuSans-74" d="M 1172 4494 
L 1172 3500 
L 2356 3500 
L 2356 3053 
L 1172 3053 
L 1172 1153 
Q 1172 725 1289 603 
Q 1406 481 1766 481 
L 2356 481 
L 2356 0 
L 1766 0 
Q 1100 0 847 248 
Q 594 497 594 1153 
L 594 3053 
L 172 3053 
L 172 3500 
L 594 3500 
L 594 4494 
L 1172 4494 
z
" transform="scale(0.015625)"/>
      </defs>
      <use xlink:href="#DejaVuSans-46"/>
      <use xlink:href="#DejaVuSans-69" x="50.269531"/>
      <use xlink:href="#DejaVuSans-74" x="78.052734"/>
      <use xlink:href="#DejaVuSans-74" x="117.261719"/>
      <use xlink:href="#DejaVuSans-65" x="156.470703"/>
      <use xlink:href="#DejaVuSans-64" x="217.994141"/>
     </g>
    </g>
    <g id="line2d_18">
     <path d="M 430.882812 85.654687 
L 440.882812 85.654687 
L 450.882812 85.654687 
" style="fill: none; stroke: #2ca02c; stroke-width: 1.5; stroke-linecap: square"/>
    </g>
    <g id="text_16">
     <!-- Estimated -->
     <g transform="translate(458.882812 89.154687) scale(0.1 -0.1)">
      <defs>
       <path id="DejaVuSans-45" d="M 628 4666 
L 3578 4666 
L 3578 4134 
L 1259 4134 
L 1259 2753 
L 3481 2753 
L 3481 2222 
L 1259 2222 
L 1259 531 
L 3634 531 
L 3634 0 
L 628 0 
L 628 4666 
z
" transform="scale(0.015625)"/>
      </defs>
      <use xlink:href="#DejaVuSans-45"/>
      <use xlink:href="#DejaVuSans-73" x="63.183594"/>
      <use xlink:href="#DejaVuSans-74" x="115.283203"/>
      <use xlink:href="#DejaVuSans-69" x="154.492188"/>
      <use xlink:href="#DejaVuSans-6d" x="182.275391"/>
      <use xlink:href="#DejaVuSans-61" x="279.6875"/>
      <use xlink:href="#DejaVuSans-74" x="340.966797"/>
      <use xlink:href="#DejaVuSans-65" x="380.175781"/>
      <use xlink:href="#DejaVuSans-64" x="441.699219"/>
     </g>
    </g>
   </g>
  </g>
 </g>
 <defs>
  <clipPath id="p77f514d55d">
   <rect x="72" y="43.2" width="446.4" height="277.2"/>
  </clipPath>
 </defs>
</svg>
