<?xml version="1.0" encoding="utf-8" standalone="no"?>
<!DOCTYPE svg PUBLIC "-//W3C//DTD SVG 1.1//EN"
  "http://www.w3.org/Graphics/SVG/1.1/DTD/svg11.dtd">
<svg xmlns:xlink="http://www.w3.org/1999/xlink" width="576pt" height="360pt" viewBox="0 0 576 360" xmlns="http://www.w3.org/2000/svg" version="1.1">
 <metadata>
  <rdf:RDF xmlns:dc="http://purl.org/dc/elements/1.1/" xmlns:cc="http://creativecommons.org/ns#" xmlns:rdf="http://www.w3.org/1999/02/22-rdf-syntax-ns#">
   <cc:Work>
    <dc:type rdf:resource="http://purl.org/dc/dcmitype/StillImage"/>
    <dc:date>2023-11-26T19:22:48.600426</dc:date>
    <dc:format>image/svg+xml</dc:format>
    <dc:creator>
     <cc:Agent>
      <dc:title>Matplotlib v3.8.1, https://matplotlib.org/</dc:title>
     </cc:Agent>
    </dc:creator>
   </cc:Work>
  </rdf:RDF>
 </metadata>
 <defs>
  <style type="text/css">*{stroke-linejoin: round; stroke-linecap: butt}</style>
 </defs>
 <g id="figure_1">
  <g id="patch_1">
   <path d="M 0 360 
L 576 360 
L 576 0 
L 0 0 
z
" style="fill: #ffffff"/>
  </g>
  <g id="axes_1">
   <g id="patch_2">
    <path d="M 72 320.4 
L 518.4 320.4 
L 518.4 43.2 
L 72 43.2 
z
" style="fill: #ffffff"/>
   </g>
   <g id="matplotlib.axis_1">
    <g id="xtick_1">
     <g id="line2d_1">
      <defs>
       <path id="mc8345435b5" d="M 0 0 
L 0 3.5 
" style="stroke: #000000; stroke-width: 0.8"/>
      </defs>
      <g>
       <use xlink:href="#mc8345435b5" x="129.874161" y="320.4" style="stroke: #000000; stroke-width: 0.8"/>
      </g>
     </g>
     <g id="text_1">
      <!-- 2020-05-15 -->
      <g transform="translate(100.816349 334.998438) scale(0.1 -0.1)">
       <defs>
        <path id="DejaVuSans-32" d="M 1228 531 
L 3431 531 
L 3431 0 
L 469 0 
L 469 531 
Q 828 903 1448 1529 
Q 2069 2156 2228 2338 
Q 2531 2678 2651 2914 
Q 2772 3150 2772 3378 
Q 2772 3750 2511 3984 
Q 2250 4219 1831 4219 
Q 1534 4219 1204 4116 
Q 875 4013 500 3803 
L 500 4441 
Q 881 4594 1212 4672 
Q 1544 4750 1819 4750 
Q 2544 4750 2975 4387 
Q 3406 4025 3406 3419 
Q 3406 3131 3298 2873 
Q 3191 2616 2906 2266 
Q 2828 2175 2409 1742 
Q 1991 1309 1228 531 
z
" transform="scale(0.015625)"/>
        <path id="DejaVuSans-30" d="M 2034 4250 
Q 1547 4250 1301 3770 
Q 1056 3291 1056 2328 
Q 1056 1369 1301 889 
Q 1547 409 2034 409 
Q 2525 409 2770 889 
Q 3016 1369 3016 2328 
Q 3016 3291 2770 3770 
Q 2525 4250 2034 4250 
z
M 2034 4750 
Q 2819 4750 3233 4129 
Q 3647 3509 3647 2328 
Q 3647 1150 3233 529 
Q 2819 -91 2034 -91 
Q 1250 -91 836 529 
Q 422 1150 422 2328 
Q 422 3509 836 4129 
Q 1250 4750 2034 4750 
z
" transform="scale(0.015625)"/>
        <path id="DejaVuSans-2d" d="M 313 2009 
L 1997 2009 
L 1997 1497 
L 313 1497 
L 313 2009 
z
" transform="scale(0.015625)"/>
        <path id="DejaVuSans-35" d="M 691 4666 
L 3169 4666 
L 3169 4134 
L 1269 4134 
L 1269 2991 
Q 1406 3038 1543 3061 
Q 1681 3084 1819 3084 
Q 2600 3084 3056 2656 
Q 3513 2228 3513 1497 
Q 3513 744 3044 326 
Q 2575 -91 1722 -91 
Q 1428 -91 1123 -41 
Q 819 9 494 109 
L 494 744 
Q 775 591 1075 516 
Q 1375 441 1709 441 
Q 2250 441 2565 725 
Q 2881 1009 2881 1497 
Q 2881 1984 2565 2268 
Q 2250 2553 1709 2553 
Q 1456 2553 1204 2497 
Q 953 2441 691 2322 
L 691 4666 
z
" transform="scale(0.015625)"/>
        <path id="DejaVuSans-31" d="M 794 531 
L 1825 531 
L 1825 4091 
L 703 3866 
L 703 4441 
L 1819 4666 
L 2450 4666 
L 2450 531 
L 3481 531 
L 3481 0 
L 794 0 
L 794 531 
z
" transform="scale(0.015625)"/>
       </defs>
       <use xlink:href="#DejaVuSans-32"/>
       <use xlink:href="#DejaVuSans-30" x="63.623047"/>
       <use xlink:href="#DejaVuSans-32" x="127.246094"/>
       <use xlink:href="#DejaVuSans-30" x="190.869141"/>
       <use xlink:href="#DejaVuSans-2d" x="254.492188"/>
       <use xlink:href="#DejaVuSans-30" x="290.576172"/>
       <use xlink:href="#DejaVuSans-35" x="354.199219"/>
       <use xlink:href="#DejaVuSans-2d" x="417.822266"/>
       <use xlink:href="#DejaVuSans-31" x="453.90625"/>
       <use xlink:href="#DejaVuSans-35" x="517.529297"/>
      </g>
     </g>
    </g>
    <g id="xtick_2">
     <g id="line2d_2">
      <g>
       <use xlink:href="#mc8345435b5" x="212.435902" y="320.4" style="stroke: #000000; stroke-width: 0.8"/>
      </g>
     </g>
     <g id="text_2">
      <!-- 2020-06-01 -->
      <g transform="translate(183.37809 334.998438) scale(0.1 -0.1)">
       <defs>
        <path id="DejaVuSans-36" d="M 2113 2584 
Q 1688 2584 1439 2293 
Q 1191 2003 1191 1497 
Q 1191 994 1439 701 
Q 1688 409 2113 409 
Q 2538 409 2786 701 
Q 3034 994 3034 1497 
Q 3034 2003 2786 2293 
Q 2538 2584 2113 2584 
z
M 3366 4563 
L 3366 3988 
Q 3128 4100 2886 4159 
Q 2644 4219 2406 4219 
Q 1781 4219 1451 3797 
Q 1122 3375 1075 2522 
Q 1259 2794 1537 2939 
Q 1816 3084 2150 3084 
Q 2853 3084 3261 2657 
Q 3669 2231 3669 1497 
Q 3669 778 3244 343 
Q 2819 -91 2113 -91 
Q 1303 -91 875 529 
Q 447 1150 447 2328 
Q 447 3434 972 4092 
Q 1497 4750 2381 4750 
Q 2619 4750 2861 4703 
Q 3103 4656 3366 4563 
z
" transform="scale(0.015625)"/>
       </defs>
       <use xlink:href="#DejaVuSans-32"/>
       <use xlink:href="#DejaVuSans-30" x="63.623047"/>
       <use xlink:href="#DejaVuSans-32" x="127.246094"/>
       <use xlink:href="#DejaVuSans-30" x="190.869141"/>
       <use xlink:href="#DejaVuSans-2d" x="254.492188"/>
       <use xlink:href="#DejaVuSans-30" x="290.576172"/>
       <use xlink:href="#DejaVuSans-36" x="354.199219"/>
       <use xlink:href="#DejaVuSans-2d" x="417.822266"/>
       <use xlink:href="#DejaVuSans-30" x="453.90625"/>
       <use xlink:href="#DejaVuSans-31" x="517.529297"/>
      </g>
     </g>
    </g>
    <g id="xtick_3">
     <g id="line2d_3">
      <g>
       <use xlink:href="#mc8345435b5" x="280.427924" y="320.4" style="stroke: #000000; stroke-width: 0.8"/>
      </g>
     </g>
     <g id="text_3">
      <!-- 2020-06-15 -->
      <g transform="translate(251.370111 334.998438) scale(0.1 -0.1)">
       <use xlink:href="#DejaVuSans-32"/>
       <use xlink:href="#DejaVuSans-30" x="63.623047"/>
       <use xlink:href="#DejaVuSans-32" x="127.246094"/>
       <use xlink:href="#DejaVuSans-30" x="190.869141"/>
       <use xlink:href="#DejaVuSans-2d" x="254.492188"/>
       <use xlink:href="#DejaVuSans-30" x="290.576172"/>
       <use xlink:href="#DejaVuSans-36" x="354.199219"/>
       <use xlink:href="#DejaVuSans-2d" x="417.822266"/>
       <use xlink:href="#DejaVuSans-31" x="453.90625"/>
       <use xlink:href="#DejaVuSans-35" x="517.529297"/>
      </g>
     </g>
    </g>
    <g id="xtick_4">
     <g id="line2d_4">
      <g>
       <use xlink:href="#mc8345435b5" x="358.133092" y="320.4" style="stroke: #000000; stroke-width: 0.8"/>
      </g>
     </g>
     <g id="text_4">
      <!-- 2020-07-01 -->
      <g transform="translate(329.075279 334.998438) scale(0.1 -0.1)">
       <defs>
        <path id="DejaVuSans-37" d="M 525 4666 
L 3525 4666 
L 3525 4397 
L 1831 0 
L 1172 0 
L 2766 4134 
L 525 4134 
L 525 4666 
z
" transform="scale(0.015625)"/>
       </defs>
       <use xlink:href="#DejaVuSans-32"/>
       <use xlink:href="#DejaVuSans-30" x="63.623047"/>
       <use xlink:href="#DejaVuSans-32" x="127.246094"/>
       <use xlink:href="#DejaVuSans-30" x="190.869141"/>
       <use xlink:href="#DejaVuSans-2d" x="254.492188"/>
       <use xlink:href="#DejaVuSans-30" x="290.576172"/>
       <use xlink:href="#DejaVuSans-37" x="354.199219"/>
       <use xlink:href="#DejaVuSans-2d" x="417.822266"/>
       <use xlink:href="#DejaVuSans-30" x="453.90625"/>
       <use xlink:href="#DejaVuSans-31" x="517.529297"/>
      </g>
     </g>
    </g>
    <g id="xtick_5">
     <g id="line2d_5">
      <g>
       <use xlink:href="#mc8345435b5" x="426.125113" y="320.4" style="stroke: #000000; stroke-width: 0.8"/>
      </g>
     </g>
     <g id="text_5">
      <!-- 2020-07-15 -->
      <g transform="translate(397.067301 334.998438) scale(0.1 -0.1)">
       <use xlink:href="#DejaVuSans-32"/>
       <use xlink:href="#DejaVuSans-30" x="63.623047"/>
       <use xlink:href="#DejaVuSans-32" x="127.246094"/>
       <use xlink:href="#DejaVuSans-30" x="190.869141"/>
       <use xlink:href="#DejaVuSans-2d" x="254.492188"/>
       <use xlink:href="#DejaVuSans-30" x="290.576172"/>
       <use xlink:href="#DejaVuSans-37" x="354.199219"/>
       <use xlink:href="#DejaVuSans-2d" x="417.822266"/>
       <use xlink:href="#DejaVuSans-31" x="453.90625"/>
       <use xlink:href="#DejaVuSans-35" x="517.529297"/>
      </g>
     </g>
    </g>
    <g id="xtick_6">
     <g id="line2d_6">
      <g>
       <use xlink:href="#mc8345435b5" x="508.686854" y="320.4" style="stroke: #000000; stroke-width: 0.8"/>
      </g>
     </g>
     <g id="text_6">
      <!-- 2020-08-01 -->
      <g transform="translate(479.629042 334.998438) scale(0.1 -0.1)">
       <defs>
        <path id="DejaVuSans-38" d="M 2034 2216 
Q 1584 2216 1326 1975 
Q 1069 1734 1069 1313 
Q 1069 891 1326 650 
Q 1584 409 2034 409 
Q 2484 409 2743 651 
Q 3003 894 3003 1313 
Q 3003 1734 2745 1975 
Q 2488 2216 2034 2216 
z
M 1403 2484 
Q 997 2584 770 2862 
Q 544 3141 544 3541 
Q 544 4100 942 4425 
Q 1341 4750 2034 4750 
Q 2731 4750 3128 4425 
Q 3525 4100 3525 3541 
Q 3525 3141 3298 2862 
Q 3072 2584 2669 2484 
Q 3125 2378 3379 2068 
Q 3634 1759 3634 1313 
Q 3634 634 3220 271 
Q 2806 -91 2034 -91 
Q 1263 -91 848 271 
Q 434 634 434 1313 
Q 434 1759 690 2068 
Q 947 2378 1403 2484 
z
M 1172 3481 
Q 1172 3119 1398 2916 
Q 1625 2713 2034 2713 
Q 2441 2713 2670 2916 
Q 2900 3119 2900 3481 
Q 2900 3844 2670 4047 
Q 2441 4250 2034 4250 
Q 1625 4250 1398 4047 
Q 1172 3844 1172 3481 
z
" transform="scale(0.015625)"/>
       </defs>
       <use xlink:href="#DejaVuSans-32"/>
       <use xlink:href="#DejaVuSans-30" x="63.623047"/>
       <use xlink:href="#DejaVuSans-32" x="127.246094"/>
       <use xlink:href="#DejaVuSans-30" x="190.869141"/>
       <use xlink:href="#DejaVuSans-2d" x="254.492188"/>
       <use xlink:href="#DejaVuSans-30" x="290.576172"/>
       <use xlink:href="#DejaVuSans-38" x="354.199219"/>
       <use xlink:href="#DejaVuSans-2d" x="417.822266"/>
       <use xlink:href="#DejaVuSans-30" x="453.90625"/>
       <use xlink:href="#DejaVuSans-31" x="517.529297"/>
      </g>
     </g>
    </g>
   </g>
   <g id="matplotlib.axis_2">
    <g id="ytick_1">
     <g id="line2d_7">
      <defs>
       <path id="m65e0041354" d="M 0 0 
L -3.5 0 
" style="stroke: #000000; stroke-width: 0.8"/>
      </defs>
      <g>
       <use xlink:href="#m65e0041354" x="72" y="316.02311" style="stroke: #000000; stroke-width: 0.8"/>
      </g>
     </g>
     <g id="text_7">
      <!-- −2 -->
      <g transform="translate(50.257812 319.822329) scale(0.1 -0.1)">
       <defs>
        <path id="DejaVuSans-2212" d="M 678 2272 
L 4684 2272 
L 4684 1741 
L 678 1741 
L 678 2272 
z
" transform="scale(0.015625)"/>
       </defs>
       <use xlink:href="#DejaVuSans-2212"/>
       <use xlink:href="#DejaVuSans-32" x="83.789062"/>
      </g>
     </g>
    </g>
    <g id="ytick_2">
     <g id="line2d_8">
      <g>
       <use xlink:href="#m65e0041354" x="72" y="262.270962" style="stroke: #000000; stroke-width: 0.8"/>
      </g>
     </g>
     <g id="text_8">
      <!-- −1 -->
      <g transform="translate(50.257812 266.070181) scale(0.1 -0.1)">
       <use xlink:href="#DejaVuSans-2212"/>
       <use xlink:href="#DejaVuSans-31" x="83.789062"/>
      </g>
     </g>
    </g>
    <g id="ytick_3">
     <g id="line2d_9">
      <g>
       <use xlink:href="#m65e0041354" x="72" y="208.518814" style="stroke: #000000; stroke-width: 0.8"/>
      </g>
     </g>
     <g id="text_9">
      <!-- 0 -->
      <g transform="translate(58.6375 212.318032) scale(0.1 -0.1)">
       <use xlink:href="#DejaVuSans-30"/>
      </g>
     </g>
    </g>
    <g id="ytick_4">
     <g id="line2d_10">
      <g>
       <use xlink:href="#m65e0041354" x="72" y="154.766666" style="stroke: #000000; stroke-width: 0.8"/>
      </g>
     </g>
     <g id="text_10">
      <!-- 1 -->
      <g transform="translate(58.6375 158.565884) scale(0.1 -0.1)">
       <use xlink:href="#DejaVuSans-31"/>
      </g>
     </g>
    </g>
    <g id="ytick_5">
     <g id="line2d_11">
      <g>
       <use xlink:href="#m65e0041354" x="72" y="101.014518" style="stroke: #000000; stroke-width: 0.8"/>
      </g>
     </g>
     <g id="text_11">
      <!-- 2 -->
      <g transform="translate(58.6375 104.813736) scale(0.1 -0.1)">
       <use xlink:href="#DejaVuSans-32"/>
      </g>
     </g>
    </g>
    <g id="ytick_6">
     <g id="line2d_12">
      <g>
       <use xlink:href="#m65e0041354" x="72" y="47.262369" style="stroke: #000000; stroke-width: 0.8"/>
      </g>
     </g>
     <g id="text_12">
      <!-- 3 -->
      <g transform="translate(58.6375 51.061588) scale(0.1 -0.1)">
       <defs>
        <path id="DejaVuSans-33" d="M 2597 2516 
Q 3050 2419 3304 2112 
Q 3559 1806 3559 1356 
Q 3559 666 3084 287 
Q 2609 -91 1734 -91 
Q 1441 -91 1130 -33 
Q 819 25 488 141 
L 488 750 
Q 750 597 1062 519 
Q 1375 441 1716 441 
Q 2309 441 2620 675 
Q 2931 909 2931 1356 
Q 2931 1769 2642 2001 
Q 2353 2234 1838 2234 
L 1294 2234 
L 1294 2753 
L 1863 2753 
Q 2328 2753 2575 2939 
Q 2822 3125 2822 3475 
Q 2822 3834 2567 4026 
Q 2313 4219 1838 4219 
Q 1578 4219 1281 4162 
Q 984 4106 628 3988 
L 628 4550 
Q 988 4650 1302 4700 
Q 1616 4750 1894 4750 
Q 2613 4750 3031 4423 
Q 3450 4097 3450 3541 
Q 3450 3153 3228 2886 
Q 3006 2619 2597 2516 
z
" transform="scale(0.015625)"/>
       </defs>
       <use xlink:href="#DejaVuSans-33"/>
      </g>
     </g>
    </g>
   </g>
   <g id="line2d_13">
    <path d="M 72 287.021497 
L 72.404714 298.412757 
L 72.607072 296.682973 
L 72.809429 285.96675 
L 73.214143 254.915018 
L 73.618858 242.426821 
L 75.035358 159.101858 
L 75.237715 156.127474 
L 75.440073 161.211351 
L 75.64243 169.459468 
L 75.844787 172.771371 
L 76.047144 188.086288 
L 76.654216 258.669915 
L 77.05893 282.844701 
L 77.261287 287.232446 
L 77.463645 286.852737 
L 77.666002 276.094324 
L 78.070716 247.468508 
L 78.475431 234.938122 
L 78.677788 225.761828 
L 79.487217 168.510196 
L 79.891931 152.161627 
L 80.094288 154.123456 
L 80.903717 196.735208 
L 81.713146 272.423807 
L 82.11786 287.148066 
L 82.320218 289.194274 
L 82.522575 288.898945 
L 82.724932 286.367554 
L 82.927289 279.511703 
L 83.332004 256.412757 
L 83.736718 242.026017 
L 83.939075 238.967253 
L 84.141432 239.241487 
L 84.546147 245.675439 
L 84.748504 247.784932 
L 84.950861 247.806027 
L 85.355576 252.025013 
L 85.557933 248.670919 
L 85.76029 254.830638 
L 86.569719 300.015972 
L 86.772076 306.133501 
L 86.974433 307.736715 
L 87.176791 307.8 
L 87.379148 306.449925 
L 87.581505 302.695028 
L 87.783862 295.902461 
L 88.188577 273.731693 
L 88.390934 268.521246 
L 89.200363 260.399699 
L 89.40272 256.243998 
L 89.807434 241.372074 
L 90.212149 238.903968 
L 90.414506 236.182722 
L 90.616863 244.1777 
L 91.223935 295.037569 
L 91.628649 306.133501 
L 91.831006 306.196786 
L 92.033364 303.686489 
L 92.842792 257.277649 
L 93.04515 255.125967 
L 93.449864 246.477047 
L 93.652221 245.949674 
L 93.854578 242.996384 
L 94.056936 242.363536 
L 94.259293 239.72667 
L 94.46165 233.292717 
L 94.664007 230.423807 
L 94.866364 231.351984 
L 95.068722 234.516223 
L 95.271079 230.655851 
L 95.473436 240.823606 
L 96.080508 295.417278 
L 96.485222 304.677951 
L 96.687579 306.597589 
L 96.889937 302.230939 
L 97.699365 256.539327 
L 98.306437 245.970768 
L 98.508794 245.59106 
L 99.52058 224.242993 
L 99.722937 225.508689 
L 99.925295 229.896434 
L 100.127652 228.061175 
L 100.330009 238.27112 
L 100.937081 292.928076 
L 101.341795 305.268609 
L 101.544152 306.26007 
L 101.74651 302.526268 
L 101.948867 290.50216 
L 102.353581 260.294224 
L 102.555938 258.733199 
L 103.567724 240.844701 
L 104.377153 218.610648 
L 104.57951 219.897438 
L 104.781868 225.318835 
L 104.984225 225.29774 
L 105.186582 234.241989 
L 105.793654 289.763837 
L 106.198368 302.589553 
L 106.400725 304.361527 
L 106.603083 300.311301 
L 107.412511 254.11341 
L 107.614869 252.383626 
L 107.817226 248.692014 
L 108.22194 234.07323 
L 108.626655 212.23998 
L 108.829012 206.270116 
L 109.031369 204.371572 
L 109.638441 213.104872 
L 109.840798 218.568458 
L 110.043155 229.031542 
L 110.650227 284.405726 
L 111.054941 298.750276 
L 111.257298 300.669915 
L 111.459655 298.919036 
L 111.662013 287.443395 
L 112.066727 258.015972 
L 112.471442 242.933099 
L 113.887942 174.121447 
L 114.090299 171.73772 
L 114.292656 178.593571 
L 114.495014 190.090306 
L 114.697371 194.710095 
L 115.102085 228.926067 
L 115.709157 278.583526 
L 116.113871 292.611652 
L 116.316228 292.780412 
L 116.518586 291.113913 
L 116.720943 287.46449 
L 117.125657 260.06218 
L 118.542158 154.777398 
L 118.744515 144.609643 
L 118.946872 140.707082 
L 119.149229 144.398694 
L 119.756301 182.496133 
L 120.56573 262.319337 
L 120.970444 282.254043 
L 121.172801 286.367554 
L 121.375159 288.012958 
L 121.577516 286.557408 
L 121.779873 278.583526 
L 122.589302 227.280663 
L 123.196374 201.671421 
L 123.398731 197.072727 
L 123.601088 197.283677 
L 123.803445 196.714114 
L 124.410517 210.193772 
L 124.612874 221.226419 
L 125.219946 277.845203 
L 125.62466 292.463988 
L 125.827017 294.468006 
L 126.029374 291.91552 
L 127.04116 235.191261 
L 127.648232 197.557911 
L 128.255304 154.925063 
L 128.457661 147.330889 
L 128.660018 146.99337 
L 129.26709 191.588046 
L 130.278876 282.971271 
L 130.481233 290.839679 
L 130.68359 292.231944 
L 130.885947 289.637268 
L 132.504805 180.070216 
L 133.111877 137.142039 
L 133.314234 127.670417 
L 133.516591 129.379106 
L 133.921306 144.841688 
L 134.123663 152.309292 
L 135.135449 262.84671 
L 135.540163 275.545856 
L 135.74252 274.596585 
L 135.944878 263.943646 
L 136.349592 232.343446 
L 136.551949 225.529784 
L 136.754306 213.590055 
L 136.956664 218.188749 
L 137.159021 206.818584 
L 137.766092 197.937619 
L 137.96845 198.338423 
L 138.373164 192.895932 
L 138.777879 200.490105 
L 138.980236 201.333903 
L 139.182593 213.210347 
L 139.789665 270.187745 
L 140.194379 285.650326 
L 140.396736 287.738724 
L 140.599093 284.701055 
L 141.003808 254.303265 
L 141.408522 232.997388 
L 142.015594 219.51773 
L 142.622665 210.320342 
L 142.825023 210.046107 
L 143.02738 208.822602 
L 143.229737 209.518734 
L 143.634451 214.834656 
L 143.836809 213.590055 
L 144.039166 223.84219 
L 144.646238 273.499648 
L 145.050952 285.671421 
L 145.253309 286.979307 
L 145.455666 283.815068 
L 145.860381 253.965746 
L 146.062738 237.406228 
L 146.66981 220.825615 
L 146.872167 218.125465 
L 147.074524 217.028528 
L 147.479238 205.848217 
L 147.681596 214.370568 
L 147.883953 215.362029 
L 148.08631 217.998895 
L 148.491024 227.386138 
L 148.693382 226.014967 
L 149.098096 249.83114 
L 149.502811 278.203817 
L 149.907525 291.430337 
L 150.109882 293.518734 
L 150.312239 292.928076 
L 150.514597 290.059166 
L 150.716954 284.258061 
L 151.121668 263.036565 
L 151.526383 242.194776 
L 151.931097 236.288197 
L 152.133454 235.845203 
L 152.335811 237.849221 
L 152.538169 238.376595 
L 152.740526 236.288197 
L 152.942883 236.583526 
L 153.14524 235.592064 
L 153.347597 235.634254 
L 153.549955 232.659869 
L 153.752312 234.895932 
L 154.764098 287.253541 
L 154.966455 291.282672 
L 155.168812 292.696032 
L 155.573527 288.687996 
L 155.775884 277.423305 
L 156.78767 198.127474 
L 157.799456 154.756303 
L 158.001813 156.802511 
L 158.406528 170.23998 
L 158.608885 184.036062 
L 159.215956 253.881366 
L 159.620671 275.86228 
L 159.823028 279.131994 
L 160.025385 278.203817 
L 160.227743 268.225917 
L 160.632457 235.191261 
L 161.8466 183.993872 
L 162.251315 173.762833 
L 162.453672 173.910497 
L 162.656029 176.821597 
L 163.465458 209.20231 
L 164.072529 270.12446 
L 164.477244 289.067705 
L 164.679601 289.405224 
L 164.881958 286.114415 
L 165.084316 275.777901 
L 165.48903 243.439377 
L 166.500816 207.725665 
L 167.310245 164.038071 
L 167.512602 167.45545 
L 167.917316 188.402712 
L 168.119674 192.938122 
L 168.322031 204.498142 
L 168.929102 264.977298 
L 169.333817 280.439879 
L 169.536174 284.026017 
L 169.738531 280.292215 
L 170.143246 252.510196 
L 170.54796 221.648317 
L 171.357389 176.273129 
L 171.559746 170.134505 
L 172.166818 145.49563 
L 172.369175 147.141035 
L 172.571532 155.199297 
L 173.178604 194.878855 
L 173.785675 267.25555 
L 174.19039 287.000402 
L 174.392747 290.038071 
L 174.595104 288.181718 
L 174.999819 263.542843 
L 175.404533 238.081266 
L 177.023391 158.405726 
L 177.225748 158.933099 
L 177.428105 162.92004 
L 177.630462 179.817077 
L 177.83282 182.306278 
L 178.237534 227.238473 
L 178.642248 270.947162 
L 179.046963 290.50216 
L 179.24932 294.299247 
L 179.451677 291.725665 
L 179.654034 282.865796 
L 180.261106 242.258061 
L 181.879964 143.449422 
L 182.082321 140.116424 
L 182.284678 145.896434 
L 183.094107 203.316826 
L 183.498821 243.080763 
L 183.903536 264.956203 
L 184.30825 272.95118 
L 184.510607 274.343446 
L 184.712965 270.630738 
L 184.915322 256.98232 
L 185.724751 173.340934 
L 186.129465 151.52878 
L 186.331822 145.347966 
L 186.53418 144.567454 
L 186.736537 147.16213 
L 187.748323 188.423807 
L 188.557752 253.923556 
L 188.962466 268.394676 
L 189.164823 270.483074 
L 189.36718 270.567454 
L 189.569538 269.808036 
L 189.771895 258.796484 
L 190.986038 160.810547 
L 191.188395 155.389151 
L 191.390752 155.346961 
L 191.795467 164.692014 
L 192.604896 196.671924 
L 193.414325 261.370065 
L 193.819039 275.377097 
L 194.021396 276.474033 
L 194.426111 272.423807 
L 194.628468 263.268609 
L 195.437897 201.017479 
L 195.640254 195.891411 
L 195.842611 197.136012 
L 196.247325 203.337921 
L 196.449683 203.928579 
L 196.65204 203.527775 
L 197.056754 211.923556 
L 197.259112 212.788448 
L 197.461469 221.395178 
L 198.06854 270.841688 
L 198.473255 285.354997 
L 198.675612 285.460472 
L 198.877969 281.72667 
L 199.282684 250.231944 
L 199.687398 226.879859 
L 201.306256 158.933099 
L 201.508613 157.751783 
L 202.115684 177.39116 
L 202.318042 188.803516 
L 202.925113 254.366549 
L 203.329828 272.423807 
L 203.532185 274.57549 
L 203.734542 271.516725 
L 203.936899 259.724661 
L 204.341614 224.939126 
L 205.758114 168.995379 
L 205.960471 166.442893 
L 206.162829 166.590558 
L 206.365186 168.046107 
L 206.7699 180.175691 
L 206.972257 183.445404 
L 207.174615 194.541336 
L 207.781686 254.978302 
L 208.186401 271.516725 
L 208.388758 274.638774 
L 208.591115 271.221396 
L 208.793472 259.070718 
L 209.198187 224.475038 
L 209.805258 201.671421 
L 210.209973 181.314817 
L 210.817044 138.639779 
L 211.019402 129.948669 
L 211.221759 132.986339 
L 211.626473 158.047112 
L 211.82883 163.384129 
L 212.031188 178.467002 
L 212.638259 245.063687 
L 213.042974 264.091311 
L 213.245331 268.183727 
L 213.447688 266.432848 
L 213.650045 255.463486 
L 214.257117 211.164139 
L 214.661831 184.183727 
L 215.47126 123.409242 
L 215.875975 106.280161 
L 216.078332 105.794977 
L 216.280689 111.469513 
L 217.090118 176.779407 
L 217.697189 240.190758 
L 218.101904 259.091813 
L 218.304261 262.530286 
L 218.506618 263.922551 
L 218.708976 262.635761 
L 218.911333 249.599096 
L 219.518404 193.48659 
L 220.125476 157.435359 
L 220.327833 155.220392 
L 220.53019 157.498644 
L 221.541976 200.827624 
L 221.744334 206.101356 
L 222.553762 264.365545 
L 222.958477 275.503666 
L 223.160834 277.254545 
L 223.363191 277.613159 
L 223.565549 276.009945 
L 223.767906 267.086791 
L 224.374977 227.955701 
L 224.779692 220.192767 
L 225.386763 222.30226 
L 225.589121 225.909493 
L 225.791478 226.816575 
L 226.196192 235.40221 
L 226.398549 235.043596 
L 226.600907 241.625213 
L 227.410335 296.535309 
L 227.612693 300.669915 
L 227.81505 302.399699 
L 228.017407 299.129985 
L 228.826836 255.505676 
L 229.029193 253.121949 
L 229.23155 247.236464 
L 230.648051 182.285183 
L 230.850408 182.875841 
L 231.255122 197.64229 
L 231.45748 208.801507 
L 232.064551 274.027022 
L 232.469266 291.620191 
L 232.671623 294.404721 
L 232.87398 293.160121 
L 233.278694 267.25555 
L 233.683409 244.1777 
L 235.302267 178.024008 
L 235.504624 177.412255 
L 236.111695 196.988348 
L 236.314053 207.599096 
L 236.921124 271.242491 
L 237.325839 287.50668 
L 237.528196 290.713109 
L 237.730553 288.540331 
L 238.135267 264.006931 
L 238.539982 241.688498 
L 239.349411 210.003918 
L 239.754125 199.751783 
L 240.15884 189.288699 
L 240.361197 189.03556 
L 240.563554 194.625716 
L 240.968268 212.661878 
L 241.170626 220.424812 
L 241.777697 277.31783 
L 242.182412 293.560924 
L 242.384769 296.11341 
L 242.587126 293.054646 
L 242.99184 267.740733 
L 243.396555 249.345957 
L 245.21777 172.876846 
L 245.420127 177.222401 
L 246.027199 204.666901 
L 246.836627 279.933601 
L 247.038985 288.498142 
L 247.241342 291.74676 
L 247.443699 289.152084 
L 247.848413 265.019488 
L 249.467271 150.305274 
L 249.669628 142.036062 
L 249.871985 140.053139 
L 250.074343 140.221899 
L 250.2767 147.330889 
L 250.883772 180.21788 
L 251.6932 257.003415 
L 252.097915 271.875339 
L 252.300272 275.018483 
L 252.502629 275.292717 
L 252.704986 271.326871 
L 253.109701 237.785937 
L 253.91913 162.814566 
L 254.323844 146.634756 
L 254.728558 137.606128 
L 254.930916 136.319337 
L 255.133273 143.997891 
L 255.740345 182.369563 
L 256.549773 259.387142 
L 256.954488 275.229432 
L 257.156845 279.131994 
L 257.359202 280.840683 
L 257.561559 279.849221 
L 257.966274 250.274134 
L 258.573345 198.675942 
L 258.97806 176.484078 
L 259.382774 165.198292 
L 259.585131 161.675439 
L 259.787489 161.232446 
L 259.989846 163.911502 
L 260.39456 180.281165 
L 260.596917 193.950678 
L 261.203989 257.425314 
L 261.608704 276.579508 
L 261.811061 279.574987 
L 262.013418 278.77338 
L 262.418132 254.23998 
L 262.62049 241.941637 
L 263.025204 232.048117 
L 263.227561 229.179206 
L 263.429918 228.145555 
L 263.834633 229.45344 
L 264.03699 229.137017 
L 264.239347 230.107383 
L 264.441704 230.191763 
L 264.644062 229.917529 
L 264.846419 232.005927 
L 265.048776 236.140532 
L 265.251133 236.140532 
L 265.45349 240.254043 
L 266.060562 283.730688 
L 266.465277 296.872828 
L 266.667634 298.454947 
L 266.869991 294.172677 
L 267.072348 286.030035 
L 267.477063 258.901959 
L 268.084134 236.203817 
L 268.488849 225.677449 
L 269.09592 214.159618 
L 269.500635 210.109392 
L 269.702992 212.345455 
L 269.905349 216.037067 
L 270.107706 216.733199 
L 270.310063 223.188247 
L 270.917135 273.204319 
L 271.32185 285.460472 
L 271.524207 287.654345 
L 271.726564 285.903466 
L 274.15485 140.960221 
L 274.357208 133.619186 
L 274.559565 137.036565 
L 275.166636 162.793471 
L 275.976065 246.308287 
L 276.38078 259.176193 
L 276.583137 258.458965 
L 276.987851 236.098343 
L 277.392566 206.50216 
L 278.404352 148.195781 
L 278.606709 145.073732 
L 279.011423 131.530789 
L 279.213781 129.885384 
L 279.416138 134.252034 
L 280.023209 176.969262 
L 280.630281 250.020994 
L 281.034995 273.351984 
L 281.237353 278.351482 
L 281.43971 276.769362 
L 281.642067 270.736213 
L 282.249139 227.976796 
L 282.85621 193.52878 
L 283.867996 149.714616 
L 284.070354 148.49111 
L 284.272711 156.844701 
L 285.284497 241.920542 
L 285.689211 274.870819 
L 286.093926 289.974787 
L 286.296283 292.316323 
L 286.49864 290.45997 
L 286.700997 287.443395 
L 287.105712 255.674435 
L 287.712783 202.873832 
L 288.522212 158.384631 
L 288.724569 151.085786 
L 288.926927 149.102863 
L 289.129284 152.77338 
L 289.736355 187.411251 
L 290.545784 259.197288 
L 290.950499 274.849724 
L 291.152856 277.697539 
L 291.355213 277.781919 
L 291.55757 276.263084 
L 291.759927 263.479558 
L 292.771714 162.392667 
L 293.176428 139.863285 
L 293.581142 128.345455 
L 293.7835 126.573481 
L 293.985857 130.180713 
L 294.592928 156.338423 
L 295.402357 241.667403 
L 295.807072 256.729181 
L 296.009429 256.560422 
L 296.414143 235.760824 
L 297.830644 97.293722 
L 298.235358 83.645304 
L 298.437715 80.987343 
L 298.640073 81.261577 
L 298.84243 83.37107 
L 299.044787 91.619186 
L 299.449501 119.295731 
L 300.056573 200.363536 
L 300.461287 226.268106 
L 300.663645 232.44892 
L 300.866002 233.187243 
L 301.068359 226.183727 
L 301.473073 195.342943 
L 302.484859 87.273631 
L 302.687217 75.650326 
L 302.889574 75.755801 
L 303.091931 84.067202 
L 303.496646 92.948167 
L 303.90136 115.793973 
L 304.306074 144.483074 
L 304.913146 215.551883 
L 305.31786 241.583024 
L 305.520218 247.299749 
L 305.722575 245.46449 
L 305.924932 238.14455 
L 306.532004 197.114917 
L 307.54379 125.223405 
L 307.746147 114.739227 
L 307.948504 113.832145 
L 308.757933 146.972275 
L 309.162647 173.741738 
L 309.769719 238.439879 
L 310.174433 258.859769 
L 310.376791 263.374083 
L 310.579148 262.783425 
L 310.983862 238.735208 
L 312.198005 131.889402 
L 312.60272 119.949674 
L 312.805077 115.456454 
L 313.007434 116.026017 
L 313.209791 119.823104 
L 313.816863 148.153591 
L 314.01922 162.202813 
L 314.626292 226.479056 
L 315.031006 247.531793 
L 315.233364 252.235962 
L 315.435721 251.560924 
L 315.840435 232.280161 
L 316.24515 213.062682 
L 316.649864 200.72215 
L 317.054578 185.006429 
L 317.66165 177.285686 
L 317.864007 176.821597 
L 318.066364 175.89342 
L 318.268722 180.703064 
L 318.875793 203.443395 
L 319.685222 263.627223 
L 320.089937 276.748267 
L 320.292294 278.435861 
L 320.697008 270.293219 
L 321.101723 243.354997 
L 322.315866 163.320844 
L 322.72058 152.794475 
L 322.922937 150.410748 
L 323.125295 154.650829 
L 323.732366 183.023506 
L 324.541795 253.417278 
L 324.94651 268.099347 
L 325.148867 271.073732 
L 325.351224 271.137017 
L 325.553581 268.816575 
L 325.755938 256.159618 
L 326.970082 140.707082 
L 327.172439 134.209844 
L 327.374796 132.585535 
L 327.77951 126.86881 
L 327.981868 131.994877 
L 328.184225 141.023506 
L 328.791296 194.077248 
L 329.196011 238.988348 
L 329.398368 254.640784 
L 329.803083 265.019488 
L 330.00544 264.049121 
L 330.207797 258.290206 
L 330.814869 208.463988 
L 331.42194 169.206328 
L 331.826655 145.917529 
L 332.029012 142.943144 
L 332.231369 142.964239 
L 332.433726 143.154093 
L 332.636083 145.305776 
L 332.838441 149.967755 
L 333.243155 173.509694 
L 333.445512 182.770367 
L 334.052584 250.274134 
L 334.457298 272.655851 
L 334.659655 278.224912 
L 334.862013 275.756806 
L 335.266727 255.379106 
L 335.671442 230.360522 
L 336.48087 189.16213 
L 336.683228 183.951683 
L 336.885585 182.812557 
L 337.087942 176.462983 
L 337.290299 174.56444 
L 337.695014 181.209342 
L 338.099728 196.060171 
L 338.302085 202.09332 
L 339.111514 269.702562 
L 339.313871 276.07323 
L 339.516228 278.372577 
L 339.718586 274.195781 
L 340.1233 250.210849 
L 340.932729 204.540331 
L 342.349229 141.107885 
L 342.551587 141.023506 
L 343.158658 166.379608 
L 343.76573 230.845706 
L 344.170444 249.345957 
L 344.372801 254.23998 
L 344.575159 252.046107 
L 344.777516 244.937117 
L 345.18223 213.210347 
L 346.194016 128.32436 
L 346.598731 113.157107 
L 347.003445 106.36454 
L 347.205802 105.499648 
L 347.40816 108.769362 
L 347.610517 116.827624 
L 348.015231 143.639277 
L 348.82466 237.237469 
L 349.229374 254.809543 
L 349.431732 254.029031 
L 349.634089 248.080261 
L 349.836446 236.646811 
L 351.050589 129.379106 
L 351.455304 110.520241 
L 351.860018 101.428327 
L 352.062375 100.500151 
L 352.264733 104.233953 
L 352.46709 115.625213 
L 353.276519 200.975289 
L 353.681233 239.937619 
L 354.085947 260.673933 
L 354.288305 266.095329 
L 354.490662 266.685987 
L 354.693019 264.38664 
L 355.097733 221.205324 
L 355.704805 145.369061 
L 356.109519 119.991863 
L 356.716591 101.301758 
L 356.918948 100.183727 
L 357.121306 105.11994 
L 357.52602 131.446409 
L 357.728377 144.483074 
L 358.740163 242.574485 
L 359.144878 255.906479 
L 359.347235 257.826118 
L 359.549592 257.488599 
L 359.751949 243.101858 
L 360.763735 119.169161 
L 361.16845 99.571974 
L 361.573164 88.159618 
L 361.775521 85.796986 
L 361.977879 89.172175 
L 362.180236 96.365545 
L 362.58495 122.860773 
L 363.394379 214.054144 
L 363.799093 232.195781 
L 364.001451 233.039578 
L 364.203808 226.985334 
L 364.406165 216.64882 
L 365.013237 145.137017 
L 365.620308 78.772376 
L 366.025023 62.149573 
L 366.429737 55.8 
L 366.632094 56.306278 
L 366.834451 59.027524 
L 367.036809 67.992868 
L 367.441523 98.010949 
L 368.048595 179.901457 
L 368.453309 211.290708 
L 368.655666 220.066198 
L 368.858024 222.513209 
L 369.060381 218.505173 
L 369.262738 208.358513 
L 369.86981 143.006429 
L 370.476881 83.160121 
L 370.881596 66.052135 
L 371.083953 65.588046 
L 371.28631 66.326369 
L 371.488667 70.376595 
L 371.691024 76.789453 
L 372.298096 116.912004 
L 373.107525 204.413762 
L 373.512239 227.301758 
L 373.714597 231.794977 
L 374.119311 231.07775 
L 374.321668 217.956705 
L 375.333454 111.047614 
L 375.738169 97.399196 
L 375.940526 94.614666 
L 376.142883 93.47554 
L 376.34524 98.812557 
L 376.749955 125.835158 
L 377.559383 186.504169 
L 377.964098 222.196786 
L 378.368812 236.414766 
L 378.57117 236.646811 
L 378.773527 230.529282 
L 378.975884 218.969262 
L 380.392384 98.791462 
L 380.797099 88.560422 
L 381.201813 80.734204 
L 381.40417 84.615671 
L 382.011242 122.776394 
L 382.820671 208.189754 
L 383.225385 224.791462 
L 383.427743 225.466499 
L 383.6301 219.960723 
L 384.034814 197.030537 
L 385.0466 121.320844 
L 385.451315 104.107383 
L 385.653672 103.6222 
L 385.856029 107.524761 
L 386.058386 115.393169 
L 387.070172 187.558915 
L 387.474887 228.926067 
L 387.879601 251.497639 
L 388.284316 260.927072 
L 388.68903 263.521748 
L 388.891387 257.594073 
L 389.700816 212.682973 
L 390.307888 201.122953 
L 390.914959 187.980814 
L 391.117316 192.917027 
L 391.926745 233.735711 
L 392.533817 279.321848 
L 392.938531 292.084279 
L 393.140888 294.003918 
L 393.343246 293.539829 
L 393.545603 294.025013 
L 393.74796 284.785434 
L 394.355032 242.321346 
L 395.569175 184.057157 
L 395.771532 177.855249 
L 395.973889 179.099849 
L 396.176247 187.685485 
L 396.783318 231.056655 
L 397.188033 270.799498 
L 397.592747 289.194274 
L 397.795104 292.063184 
L 397.997461 289.447413 
L 398.402176 270.736213 
L 400.628105 139.061678 
L 400.830462 141.993872 
L 401.03282 152.267102 
L 401.639891 211.121949 
L 402.044606 256.876846 
L 402.44932 277.845203 
L 402.651677 281.979809 
L 402.854034 280.27112 
L 403.258749 261.496635 
L 403.663463 232.174686 
L 404.877607 122.755299 
L 405.282321 101.575992 
L 405.484678 97.230437 
L 405.687035 98.348468 
L 405.889393 109.191261 
L 406.294107 147.752788 
L 406.901179 227.639277 
L 407.305893 252.468006 
L 407.50825 258.248016 
L 407.710607 257.699548 
L 408.115322 235.781919 
L 409.73418 99.276645 
L 409.936537 94.192767 
L 410.138894 94.045103 
L 410.341251 98.791462 
L 410.948323 136.045103 
L 411.15068 152.456956 
L 411.757752 225.29774 
L 412.162466 250.126469 
L 412.364823 256.813561 
L 412.56718 258.64882 
L 412.971895 240.021999 
L 414.388395 138.808538 
L 414.79311 124.843697 
L 415.197824 117.96675 
L 415.400181 124.949171 
L 416.20961 189.478553 
L 416.614325 236.140532 
L 417.019039 259.93561 
L 417.221396 264.323355 
L 417.423753 263.753792 
L 417.828468 247.0888 
L 419.244968 146.276143 
L 419.649683 132.248016 
L 419.85204 128.303265 
L 420.054397 129.77991 
L 420.256754 138.703064 
L 421.066183 205.974787 
L 421.673255 262.720141 
L 422.077969 279.279658 
L 422.280326 281.832145 
L 422.482684 281.157107 
L 422.685041 280.988348 
L 423.089755 249.324862 
L 423.899184 178.234957 
L 424.708613 137.774887 
L 424.91097 134.505173 
L 425.113327 138.618684 
L 425.518042 165.493621 
L 425.720399 177.623204 
L 426.529828 254.345455 
L 426.934542 273.436364 
L 427.136899 278.035058 
L 427.339257 278.85776 
L 427.541614 279.089804 
L 427.743971 270.25103 
L 428.148685 228.778403 
L 428.755757 165.177197 
L 429.160471 138.829633 
L 429.565186 130.349473 
L 429.9699 134.378604 
L 430.374615 151.043596 
L 430.576972 163.00442 
L 431.386401 241.076745 
L 431.791115 253.649322 
L 431.993472 251.560924 
L 432.398187 230.698041 
L 433.207616 163.827122 
L 434.017044 91.534807 
L 434.219402 86.514214 
L 435.02883 114.675942 
L 435.433545 140.348468 
L 436.040617 213.484581 
L 436.445331 236.625716 
L 436.647688 241.899448 
L 436.850045 241.203315 
L 437.25476 220.045103 
L 437.659474 184.183727 
L 438.468903 108.727172 
L 438.67126 98.728177 
L 438.873617 99.719638 
L 439.075975 107.018483 
L 439.278332 106.554395 
L 439.480689 108.853742 
L 439.885403 127.902461 
L 440.290118 153.321848 
L 440.897189 228.715118 
L 441.301904 251.624209 
L 441.504261 257.19327 
L 441.706618 257.741738 
L 442.111333 242.616675 
L 442.920762 189.204319 
L 443.527833 153.406228 
L 444.134905 130.054144 
L 444.337262 127.396183 
L 444.539619 133.9778 
L 445.146691 180.238975 
L 445.753762 251.265595 
L 446.158477 273.03556 
L 446.360834 278.119437 
L 446.563191 276.07323 
L 446.967906 256.665897 
L 448.586763 143.955701 
L 448.991478 130.412757 
L 449.193835 128.029031 
L 449.396192 134.863787 
L 450.003264 176.315319 
L 450.812693 258.48006 
L 451.217407 272.128478 
L 451.419764 272.255048 
L 451.824479 254.619689 
L 452.43155 202.873832 
L 453.038622 159.861276 
L 453.443336 142.373581 
L 453.848051 134.294224 
L 454.050408 137.753792 
L 454.252765 148.005927 
L 454.65748 177.159116 
L 454.859837 185.829131 
L 455.669266 252.257057 
L 456.07398 266.158614 
L 456.276337 267.719638 
L 456.478694 265.67343 
L 456.681052 262.488096 
L 456.883409 254.28217 
L 457.288123 226.563435 
L 457.692838 215.319839 
L 457.895195 216.037067 
L 458.299909 221.943646 
L 458.502267 221.795982 
L 458.906981 217.872325 
L 459.109338 218.420794 
L 459.514053 222.681969 
L 459.71641 227.090809 
L 460.728196 286.304269 
L 461.13291 290.839679 
L 461.537625 287.443395 
L 461.739982 278.288197 
L 462.144696 242.890909 
L 463.561197 171.927574 
L 463.763554 164.481065 
L 463.965911 165.683476 
L 464.572983 185.660372 
L 465.382412 254.366549 
L 465.584769 261.454445 
L 465.787126 264.238975 
L 465.989483 261.749774 
L 467.608341 166.822602 
L 468.620127 145.094827 
L 468.822484 148.301256 
L 469.429556 175.218383 
L 470.036627 233.398192 
L 470.441342 251.645304 
L 470.643699 254.345455 
L 470.846056 251.708589 
L 471.857842 199.477549 
L 472.869628 168.446911 
L 473.071985 168.953189 
L 473.274343 167.117931 
L 473.4767 168.404721 
L 473.679057 172.286188 
L 473.881414 179.036565 
L 474.083772 180.21788 
L 474.286129 188.086288 
L 474.8932 241.540834 
L 475.297915 258.205826 
L 475.500272 259.914515 
L 475.702629 257.826118 
L 476.107344 232.828629 
L 476.512058 210.257057 
L 477.321487 177.960723 
L 477.726201 157.287695 
L 477.928558 153.638272 
L 478.333273 158.447916 
L 478.53563 163.025515 
L 479.142702 188.592567 
L 479.952131 258.100352 
L 480.356845 268.204822 
L 480.559202 267.782923 
L 480.963917 245.126971 
L 482.785131 113.452436 
L 482.987489 107.398192 
L 483.189846 104.698041 
L 483.392203 110.478051 
L 483.999275 151.36002 
L 484.606346 224.285183 
L 485.011061 248.101356 
L 485.213418 252.615671 
L 485.415775 253.586037 
L 485.82049 233.313812 
L 486.225204 201.312808 
L 487.23699 109.043596 
L 487.439347 105.879357 
L 487.844062 112.608639 
L 488.248776 131.699548 
L 489.260562 211.206328 
L 489.665277 244.1777 
L 490.069991 259.661376 
L 490.272348 262.066198 
L 490.474705 260.905977 
L 490.677063 259.091813 
L 490.87942 249.113913 
L 491.891206 167.37107 
L 492.29592 149.208338 
L 492.498277 141.635259 
L 492.700635 139.567956 
L 492.902992 141.234455 
L 493.105349 146.170668 
L 493.712421 180.534304 
L 494.52185 254.345455 
L 495.128921 273.07775 
L 495.331278 273.225414 
L 495.533636 272.592567 
L 495.735993 264.850728 
L 496.950136 171.041587 
L 497.557208 146.065193 
L 497.759565 142.62672 
L 497.961922 145.917529 
L 498.568994 178.213862 
L 499.378422 253.881366 
L 499.58078 260.884882 
L 499.783137 263.437368 
L 499.985494 260.041085 
L 500.187851 251.307785 
L 500.794923 213.463486 
L 500.99728 208.231944 
L 501.401995 194.81557 
L 501.806709 183.276645 
L 502.009066 182.812557 
L 502.211423 184.922049 
L 502.413781 185.575992 
L 502.616138 183.867303 
L 503.020852 193.824108 
L 503.223209 194.393672 
L 503.425567 202.09332 
L 504.032638 254.050126 
L 504.437353 267.445404 
L 504.63971 269.111904 
L 504.842067 266.685987 
L 505.246782 241.709593 
L 505.651496 217.302762 
L 507.270354 142.331391 
L 507.472711 139.146057 
L 507.675068 142.62672 
L 508.28214 171.358011 
L 508.889211 230.824611 
L 509.293926 248.37559 
L 509.496283 251.982823 
L 509.69864 250.105374 
L 510.103354 225.972777 
L 511.722212 116.954194 
L 512.126927 98.749272 
L 512.329284 100.373581 
L 512.936355 135.602109 
L 513.34107 175.513712 
L 513.745784 220.066198 
L 514.150499 243.354997 
L 514.352856 249.071723 
L 514.555213 249.578001 
L 514.75757 240.464992 
L 516.174071 141.29774 
L 516.376428 140.179709 
L 516.781142 149.735711 
L 516.9835 146.930085 
L 517.185857 147.478553 
L 517.590571 165.620191 
L 517.792928 169.965746 
L 517.995286 180.935108 
L 518.4 221.585033 
L 518.4 221.585033 
" clip-path="url(#pa52fe94188)" style="fill: none; stroke: #1f77b4; stroke-width: 1.5; stroke-linecap: square"/>
   </g>
   <g id="line2d_14">
    <path d="M 72 266.88775 
L 72.202357 266.88775 
L 72.607072 272.236354 
L 72.809429 272.249759 
L 73.011786 268.103781 
L 73.618858 241.346629 
L 73.821215 234.656884 
L 74.225929 210.012407 
L 74.630644 184.990958 
L 75.237715 169.020887 
L 75.440073 167.782025 
L 75.64243 172.115756 
L 76.249501 205.775151 
L 76.856573 267.189158 
L 77.05893 273.270348 
L 77.463645 277.060253 
L 77.666002 274.233229 
L 78.070716 246.633219 
L 78.273073 232.472266 
L 78.880145 212.80093 
L 79.689574 161.528472 
L 79.891931 155.506451 
L 80.094288 153.122436 
L 80.296646 157.165867 
L 80.70136 181.499244 
L 81.915503 270.743117 
L 82.320218 275.320977 
L 82.522575 273.051036 
L 83.129646 254.83539 
L 83.736718 233.32657 
L 84.141432 223.060008 
L 84.34379 223.542921 
L 85.153218 239.395243 
L 85.557933 242.29935 
L 85.76029 240.930862 
L 85.962647 247.058204 
L 86.569719 288.25564 
L 86.772076 293.275489 
L 86.974433 294.766817 
L 87.176791 293.494954 
L 87.783862 276.308355 
L 88.593291 251.281402 
L 88.998005 249.661095 
L 89.200363 250.180444 
L 89.40272 249.562858 
L 89.605077 246.387527 
L 90.212149 231.294366 
L 90.616863 235.663424 
L 90.81922 243.880947 
L 91.426292 285.611031 
L 91.628649 291.871716 
L 91.831006 292.721641 
L 92.033364 290.927085 
L 92.235721 284.214359 
L 93.04515 241.557867 
L 93.247507 244.64744 
L 93.449864 244.405044 
L 93.652221 241.782936 
L 93.854578 241.017924 
L 94.259293 237.097451 
L 94.46165 233.05285 
L 94.664007 226.519448 
L 94.866364 224.48365 
L 95.068722 227.519696 
L 95.271079 235.958732 
L 95.473436 239.565468 
L 95.675793 248.714183 
L 96.282865 292.785936 
L 96.485222 295.269274 
L 96.687579 293.15064 
L 96.889937 289.69472 
L 97.092294 282.985774 
L 97.699365 244.282996 
L 97.901723 242.231565 
L 98.10408 243.263246 
L 98.306437 243.050711 
L 98.508794 241.598524 
L 98.711151 241.324939 
L 98.913509 238.60252 
L 99.52058 220.527435 
L 99.722937 220.102841 
L 99.925295 222.051618 
L 100.532366 247.759136 
L 100.937081 281.28959 
L 101.139438 291.327134 
L 101.341795 294.820373 
L 101.544152 293.321407 
L 101.74651 289.654774 
L 101.948867 283.115557 
L 102.555938 245.04285 
L 102.758296 244.349985 
L 102.960653 245.775612 
L 103.365367 244.767121 
L 103.567724 242.610911 
L 103.770082 237.564426 
L 104.174796 219.19189 
L 104.377153 216.076216 
L 104.57951 215.89302 
L 104.781868 219.128938 
L 104.984225 225.279243 
L 105.388939 244.932233 
L 105.793654 278.862704 
L 105.996011 289.278049 
L 106.198368 293.067454 
L 106.400725 291.427825 
L 106.603083 288.61468 
L 106.80544 282.437104 
L 107.412511 244.450142 
L 107.614869 240.830846 
L 107.817226 243.574388 
L 108.019583 243.338239 
L 108.22194 238.396556 
L 109.031369 194.67993 
L 109.233726 196.701445 
L 109.840798 217.477299 
L 110.447869 259.976726 
L 110.852584 284.894747 
L 111.054941 289.08779 
L 111.257298 288.985842 
L 111.662013 280.144665 
L 113.28087 198.645342 
L 113.887942 175.137128 
L 114.090299 172.372076 
L 114.292656 173.137511 
L 114.495014 181.885065 
L 115.709157 273.19457 
L 115.911514 277.682549 
L 116.113871 278.415917 
L 116.316228 280.066298 
L 116.518586 277.609437 
L 117.125657 256.401589 
L 117.530372 234.455601 
L 118.137443 179.252131 
L 118.542158 156.962107 
L 118.946872 146.399944 
L 119.149229 147.047397 
L 119.351587 152.707815 
L 119.756301 181.842159 
L 120.768087 268.07312 
L 120.970444 273.290571 
L 121.172801 275.593262 
L 121.375159 275.426673 
L 121.779873 264.32252 
L 122.386945 232.616656 
L 122.994016 202.458472 
L 123.398731 190.496165 
L 123.601088 190.254676 
L 123.803445 192.269419 
L 124.20816 204.507149 
L 124.815231 227.968376 
L 125.422303 283.359897 
L 125.62466 289.181446 
L 125.827017 289.139949 
L 126.029374 287.024454 
L 126.231732 279.694187 
L 127.04116 226.902263 
L 127.243518 221.478964 
L 127.648232 198.738642 
L 128.457661 152.024403 
L 128.660018 149.146705 
L 128.862375 152.253954 
L 129.26709 183.983163 
L 130.076519 268.790943 
L 130.278876 276.22126 
L 130.481233 278.407817 
L 130.68359 278.302102 
L 130.885947 276.415505 
L 131.088305 269.861717 
L 131.493019 244.332335 
L 132.707162 167.16308 
L 133.314234 141.830202 
L 133.516591 139.27948 
L 133.718948 142.405413 
L 133.921306 150.237382 
L 134.528377 198.094914 
L 134.933092 245.978046 
L 135.135449 260.360278 
L 135.540163 267.322952 
L 135.74252 267.175112 
L 135.944878 262.845007 
L 136.956664 199.625112 
L 137.159021 197.819893 
L 137.361378 191.331356 
L 137.766092 188.421892 
L 137.96845 189.264813 
L 139.182593 213.333892 
L 139.38495 220.86587 
L 139.789665 267.569317 
L 139.992022 279.230599 
L 140.194379 283.284299 
L 140.396736 283.123874 
L 140.599093 278.685978 
L 140.801451 269.311445 
L 141.408522 225.583639 
L 142.015594 210.274079 
L 142.420308 207.351542 
L 142.825023 202.98048 
L 143.02738 204.160446 
L 143.432094 211.158521 
L 144.039166 223.440911 
L 144.241523 235.723468 
L 144.646238 270.726687 
L 144.848595 281.167099 
L 145.050952 284.945176 
L 145.253309 284.482869 
L 145.455666 280.762744 
L 145.658024 272.305276 
L 146.467452 218.605619 
L 147.074524 207.157957 
L 147.276881 206.693529 
L 147.681596 197.266135 
L 148.895739 238.153305 
L 149.705168 282.817827 
L 150.109882 286.899554 
L 150.312239 282.895578 
L 151.931097 230.801863 
L 152.133454 228.3485 
L 152.335811 230.519238 
L 152.740526 237.122406 
L 152.942883 236.056963 
L 153.14524 235.907732 
L 153.347597 235.160079 
L 153.752312 239.424289 
L 153.954669 243.892206 
L 154.764098 284.82066 
L 154.966455 288.791841 
L 155.168812 289.085137 
L 155.37117 286.609962 
L 155.978241 265.065743 
L 156.382956 236.487676 
L 156.78767 198.848687 
L 157.192384 176.524497 
L 157.597099 161.404866 
L 157.799456 158.464732 
L 158.001813 158.657605 
L 158.20417 163.522386 
L 158.608885 185.093322 
L 158.811242 200.135339 
L 159.418314 265.111507 
L 159.620671 273.352521 
L 159.823028 276.462205 
L 160.025385 276.421657 
L 160.227743 271.828962 
L 160.4301 259.833833 
L 161.037171 212.17592 
L 161.644243 179.217882 
L 162.251315 167.205884 
L 162.453672 166.544527 
L 162.656029 170.740658 
L 163.060743 188.61274 
L 163.667815 220.877041 
L 164.072529 261.685834 
L 164.477244 279.178683 
L 164.679601 280.631296 
L 164.881958 277.461546 
L 165.084316 268.486702 
L 165.691387 227.15985 
L 166.703173 201.283591 
L 167.512602 164.787514 
L 167.714959 168.610778 
L 168.524388 223.084866 
L 168.929102 258.675256 
L 169.13146 269.182251 
L 169.333817 273.306757 
L 169.738531 273.729361 
L 169.940888 267.375815 
L 170.54796 223.193198 
L 171.357389 166.715922 
L 171.762103 158.559182 
L 172.166818 150.914503 
L 172.369175 149.945099 
L 172.571532 153.631186 
L 172.773889 162.626748 
L 173.380961 213.499013 
L 173.988033 269.654336 
L 174.19039 275.870372 
L 174.392747 277.597967 
L 174.595104 274.797432 
L 174.797461 267.751823 
L 175.404533 228.027786 
L 175.809248 214.409449 
L 176.416319 182.564633 
L 177.023391 167.029491 
L 177.225748 165.177919 
L 177.428105 167.21629 
L 177.630462 172.317661 
L 178.237534 218.142516 
L 178.642248 262.711521 
L 178.844606 275.657679 
L 179.24932 281.913141 
L 179.451677 279.470928 
L 179.654034 274.82915 
L 180.261106 234.802524 
L 180.66582 215.839258 
L 181.475249 164.48312 
L 181.879964 150.75272 
L 182.082321 148.476954 
L 182.284678 149.649137 
L 182.487035 156.877935 
L 183.094107 207.23461 
L 183.701179 253.406399 
L 183.903536 259.235461 
L 184.30825 262.567705 
L 184.510607 262.497463 
L 184.712965 259.226672 
L 184.915322 252.672253 
L 185.320036 223.756177 
L 185.927108 154.060287 
L 186.129465 142.944088 
L 186.331822 139.454783 
L 186.53418 138.281843 
L 186.736537 140.484894 
L 186.938894 146.454384 
L 187.748323 192.970549 
L 188.760109 257.622433 
L 188.962466 262.623664 
L 189.164823 263.559183 
L 189.36718 261.235536 
L 190.176609 226.342325 
L 190.378966 214.262638 
L 190.986038 161.376877 
L 191.390752 151.319896 
L 191.59311 151.719419 
L 191.795467 156.229143 
L 192.200181 174.508668 
L 193.211967 239.932008 
L 193.616682 264.774844 
L 193.819039 269.346841 
L 194.021396 270.067919 
L 194.223753 266.797881 
L 195.033182 230.502081 
L 195.235539 219.871935 
L 195.640254 188.473147 
L 195.842611 183.235775 
L 196.044968 185.923873 
L 196.65204 202.869357 
L 196.854397 206.156942 
L 197.663826 227.326595 
L 198.270898 277.957237 
L 198.473255 282.389007 
L 198.675612 283.995124 
L 198.877969 281.649283 
L 199.080326 273.291545 
L 199.889755 213.47081 
L 201.306256 158.67645 
L 201.508613 158.400295 
L 201.71097 161.807581 
L 202.115684 182.863407 
L 202.722756 224.928457 
L 203.127471 259.845341 
L 203.329828 265.982846 
L 203.532185 267.169242 
L 203.734542 266.430428 
L 203.936899 260.733998 
L 205.151043 182.413923 
L 205.555757 169.825605 
L 205.960471 160.333752 
L 206.162829 159.671889 
L 206.567543 170.207373 
L 207.174615 197.553043 
L 207.579329 224.148944 
L 207.984044 258.144569 
L 208.186401 265.188797 
L 208.388758 266.886353 
L 208.591115 265.5735 
L 208.793472 257.785447 
L 209.805258 191.821466 
L 210.817044 148.793074 
L 211.019402 138.280575 
L 211.221759 133.631402 
L 211.424116 137.753742 
L 212.031188 181.218979 
L 213.042974 256.052777 
L 213.245331 258.445849 
L 213.447688 258.741346 
L 213.650045 254.369728 
L 214.661831 181.813516 
L 215.066546 151.200852 
L 215.673617 125.550044 
L 215.875975 119.665469 
L 216.078332 117.739413 
L 216.280689 120.576369 
L 216.483046 128.327408 
L 217.090118 177.97916 
L 217.697189 232.376161 
L 218.101904 249.483546 
L 218.304261 252.040144 
L 218.506618 251.924958 
L 218.911333 237.94248 
L 219.316047 216.455854 
L 220.125476 151.727839 
L 220.327833 146.977988 
L 220.53019 146.829033 
L 220.732548 151.757276 
L 221.137262 176.359638 
L 221.541976 202.993004 
L 222.351405 242.69863 
L 222.75612 265.947815 
L 222.958477 269.129669 
L 223.160834 268.720111 
L 223.565549 257.603095 
L 223.970263 244.645783 
L 224.577335 216.417677 
L 224.779692 211.354975 
L 224.982049 210.021163 
L 225.184406 211.421217 
L 225.993835 228.339845 
L 226.196192 230.965891 
L 226.803264 246.519084 
L 227.207978 281.164498 
L 227.612693 294.548492 
L 227.81505 294.328026 
L 228.017407 291.255879 
L 228.219764 283.497074 
L 228.826836 244.431681 
L 229.029193 239.917043 
L 229.23155 241.505586 
L 229.433908 240.093666 
L 229.838622 221.979172 
L 230.445694 190.958434 
L 230.648051 185.290082 
L 230.850408 183.102968 
L 231.052765 185.914159 
L 231.45748 208.146693 
L 231.862194 245.485058 
L 232.266908 279.480463 
L 232.469266 284.353074 
L 232.671623 284.449075 
L 232.87398 282.459403 
L 233.076337 277.672566 
L 233.481052 253.690199 
L 233.885766 231.240831 
L 235.099909 179.85018 
L 235.302267 175.250155 
L 235.504624 175.532544 
L 235.706981 179.286765 
L 236.111695 199.577326 
L 236.718767 244.405175 
L 237.123481 276.097187 
L 237.325839 281.465457 
L 237.528196 281.587205 
L 237.730553 279.930941 
L 237.93291 274.510467 
L 238.742339 227.728649 
L 239.754125 193.2431 
L 239.956482 190.01379 
L 240.15884 189.428492 
L 240.361197 189.975788 
L 240.563554 192.501152 
L 240.765911 199.225433 
L 241.57534 253.907213 
L 241.980054 280.86136 
L 242.182412 285.258695 
L 242.384769 286.024755 
L 242.587126 283.005741 
L 242.789483 276.801149 
L 243.598912 234.371135 
L 243.801269 229.71657 
L 245.015413 178.68657 
L 245.21777 176.191992 
L 245.420127 176.535733 
L 245.622484 182.186665 
L 246.229556 222.371083 
L 246.836627 273.16257 
L 247.038985 278.865523 
L 247.241342 281.308967 
L 247.443699 280.679161 
L 247.646056 275.999392 
L 248.455485 224.545018 
L 248.860199 193.607848 
L 249.264914 160.930314 
L 249.669628 142.003814 
L 249.871985 137.100035 
L 250.074343 140.047808 
L 250.2767 146.348387 
L 250.681414 172.327795 
L 251.6932 250.456349 
L 251.895558 259.055931 
L 252.300272 263.831981 
L 252.502629 263.463663 
L 252.704986 258.756561 
L 253.109701 239.855845 
L 253.514415 206.035591 
L 253.91913 160.328761 
L 254.323844 143.669061 
L 254.728558 139.990446 
L 254.930916 140.813586 
L 255.133273 144.000752 
L 255.33563 151.474694 
L 255.740345 181.411282 
L 256.752131 263.220476 
L 256.954488 267.716913 
L 257.156845 269.23846 
L 257.359202 267.222247 
L 257.763917 253.463162 
L 258.370988 218.978369 
L 258.97806 171.150934 
L 259.382774 161.718033 
L 259.585131 161.746976 
L 259.787489 163.312679 
L 260.192203 171.270394 
L 260.39456 178.334287 
L 260.799275 206.585293 
L 261.406346 266.62416 
L 261.811061 277.002955 
L 262.013418 275.830298 
L 262.215775 270.231291 
L 263.025204 222.085435 
L 263.429918 216.66839 
L 263.632276 215.925823 
L 264.03699 223.875028 
L 264.239347 223.000283 
L 264.441704 223.405715 
L 265.048776 227.129031 
L 265.45349 235.884203 
L 265.655848 244.121962 
L 266.060562 283.682464 
L 266.262919 291.011116 
L 266.465277 293.833873 
L 266.667634 292.537866 
L 266.869991 288.049016 
L 267.274705 269.373741 
L 267.67942 247.355838 
L 268.488849 220.898064 
L 269.09592 207.289351 
L 269.298277 205.538157 
L 269.702992 210.03098 
L 270.310063 227.86194 
L 270.512421 237.183254 
L 271.119492 278.729192 
L 271.32185 283.67967 
L 271.524207 283.45436 
L 271.726564 282.272501 
L 271.928921 277.240132 
L 273.952493 151.053282 
L 274.15485 146.14257 
L 274.357208 144.72957 
L 274.559565 144.612706 
L 274.761922 150.251659 
L 275.368994 187.904613 
L 276.178422 251.870236 
L 276.38078 254.090068 
L 276.583137 255.024226 
L 276.785494 252.759427 
L 276.987851 243.765387 
L 278.201995 149.040875 
L 278.809066 135.495405 
L 279.011423 132.972954 
L 279.213781 133.407951 
L 279.416138 136.121392 
L 279.820852 154.444561 
L 280.427924 214.626278 
L 280.832638 252.911503 
L 281.034995 263.579028 
L 281.237353 267.027413 
L 281.43971 264.159417 
L 281.642067 257.517352 
L 282.653853 201.765083 
L 283.058568 175.472049 
L 283.463282 164.970045 
L 283.867996 155.321792 
L 284.070354 155.041581 
L 284.272711 157.832466 
L 284.475068 165.756065 
L 284.879782 197.24333 
L 285.689211 265.686872 
L 285.891568 273.143129 
L 286.093926 275.648548 
L 286.296283 276.117134 
L 286.49864 272.246466 
L 287.105712 248.876482 
L 287.712783 206.137128 
L 288.117498 173.374589 
L 288.522212 161.226679 
L 288.926927 154.538985 
L 289.129284 156.20958 
L 289.331641 161.17725 
L 289.533998 171.736686 
L 290.748141 265.30993 
L 290.950499 269.700267 
L 291.152856 270.455716 
L 291.355213 269.290414 
L 291.55757 264.538391 
L 291.962285 246.159129 
L 292.366999 208.34941 
L 292.771714 163.058881 
L 293.176428 138.711727 
L 293.581142 130.99957 
L 293.7835 131.584957 
L 293.985857 135.081541 
L 294.188214 141.66155 
L 294.592928 166.108537 
L 294.997643 199.678554 
L 295.402357 237.844435 
L 295.807072 257.205718 
L 296.009429 257.847182 
L 296.211786 254.345193 
L 296.414143 242.95907 
L 297.021215 182.635477 
L 297.425929 136.874739 
L 297.830644 111.021214 
L 298.235358 95.295814 
L 298.437715 93.039028 
L 298.640073 96.109996 
L 299.044787 112.855703 
L 299.449501 143.186403 
L 300.461287 233.525143 
L 300.663645 238.852026 
L 300.866002 237.863713 
L 301.068359 234.653985 
L 301.473073 208.953529 
L 302.687217 91.955887 
L 302.889574 85.610825 
L 303.091931 85.042892 
L 303.294288 91.481969 
L 303.90136 128.863853 
L 305.31786 240.063831 
L 305.520218 244.76434 
L 305.722575 241.74909 
L 306.127289 224.02167 
L 307.54379 133.263866 
L 308.150861 120.179537 
L 308.555576 135.042249 
L 309.162647 171.235853 
L 310.174433 250.478686 
L 310.376791 254.073898 
L 310.579148 252.452631 
L 310.781505 244.690708 
L 311.590934 187.008309 
L 311.995648 148.780605 
L 312.400363 130.10952 
L 312.60272 125.006717 
L 313.007434 122.296634 
L 313.209791 124.649587 
L 313.412149 131.465401 
L 314.01922 171.463056 
L 315.031006 242.351858 
L 315.233364 246.101936 
L 315.435721 246.006329 
L 315.638078 240.999031 
L 316.24515 205.584563 
L 316.852221 183.518681 
L 317.256936 173.762908 
L 317.66165 170.431459 
L 318.066364 176.516814 
L 318.471079 186.256016 
L 319.07815 210.591982 
L 319.685222 261.015224 
L 319.887579 267.716618 
L 320.089937 269.367122 
L 320.292294 267.110201 
L 320.899365 248.152226 
L 321.506437 221.605184 
L 322.315866 166.422985 
L 322.72058 152.814146 
L 322.922937 151.15191 
L 323.125295 154.087021 
L 323.327652 160.648405 
L 323.732366 187.450643 
L 324.744152 258.833483 
L 325.148867 264.903396 
L 325.351224 264.052254 
L 325.553581 259.738707 
L 325.958296 241.044202 
L 326.36301 206.912787 
L 326.970082 142.351563 
L 327.172439 132.475289 
L 327.374796 128.675721 
L 327.577153 127.962679 
L 327.981868 134.795986 
L 328.386582 153.197086 
L 329.600725 260.43655 
L 329.803083 264.35281 
L 330.00544 263.07279 
L 330.410154 248.228212 
L 331.624297 152.024826 
L 332.029012 139.790357 
L 332.231369 138.443255 
L 332.433726 139.823255 
L 332.838441 152.186327 
L 333.040798 160.047383 
L 333.647869 199.892354 
L 334.254941 252.083262 
L 334.457298 263.218028 
L 334.659655 266.774691 
L 334.862013 264.857491 
L 335.06437 258.260277 
L 335.671442 223.961608 
L 336.076156 207.427394 
L 336.48087 184.605042 
L 336.683228 178.138076 
L 336.885585 176.251322 
L 337.087942 175.792613 
L 337.290299 174.239504 
L 337.492656 176.570915 
L 337.897371 188.694811 
L 338.504442 217.44404 
L 339.313871 271.411875 
L 339.516228 273.664508 
L 339.718586 271.022149 
L 339.920943 265.28153 
L 340.528015 224.307475 
L 340.730372 216.603047 
L 341.337443 181.452029 
L 341.742158 167.362996 
L 342.146872 148.970031 
L 342.349229 146.391793 
L 342.551587 147.570103 
L 342.753944 151.859211 
L 343.361015 187.375717 
L 344.170444 246.519139 
L 344.372801 248.41661 
L 344.575159 248.959613 
L 344.777516 247.129032 
L 344.979873 237.76306 
L 345.384587 204.502343 
L 345.991659 137.529701 
L 346.396374 114.811901 
L 346.598731 110.238084 
L 346.801088 108.612308 
L 347.003445 109.075666 
L 347.40816 118.672382 
L 347.812874 138.728964 
L 348.419946 189.907962 
L 348.82466 230.528047 
L 349.229374 248.579553 
L 349.431732 249.958146 
L 349.634089 244.38775 
L 350.038803 221.890782 
L 350.443518 186.894478 
L 350.848232 146.565597 
L 351.252947 125.259234 
L 351.657661 114.463614 
L 351.860018 112.361909 
L 352.062375 113.171529 
L 352.264733 117.402313 
L 352.46709 124.624559 
L 352.669447 136.293402 
L 353.276519 196.343665 
L 353.681233 234.335064 
L 354.085947 252.991414 
L 354.288305 254.557184 
L 354.490662 251.730749 
L 354.895376 235.358687 
L 355.097733 225.838136 
L 355.300091 209.87647 
L 355.907162 136.235386 
L 356.311877 117.785151 
L 356.514234 115.646166 
L 356.716591 115.072044 
L 356.918948 116.636254 
L 357.121306 119.617936 
L 357.323663 126.882024 
L 357.728377 154.425286 
L 358.740163 240.596755 
L 358.94252 249.712527 
L 359.144878 252.056468 
L 359.347235 251.338447 
L 359.549592 246.01621 
L 359.954306 225.13772 
L 360.359021 177.352757 
L 360.763735 128.682231 
L 361.16845 108.535403 
L 361.370807 104.92098 
L 361.573164 104.287048 
L 361.775521 105.717938 
L 361.977879 108.619857 
L 362.180236 115.104851 
L 362.58495 140.635156 
L 362.989665 179.750014 
L 363.394379 224.125895 
L 363.799093 239.698356 
L 364.001451 240.745303 
L 364.203808 236.274695 
L 364.608522 211.00045 
L 365.822665 85.868762 
L 366.025023 78.799381 
L 366.22738 76.791703 
L 366.429737 78.224221 
L 366.632094 83.891073 
L 367.036809 104.75707 
L 367.441523 138.789479 
L 368.453309 231.5595 
L 368.655666 236.161556 
L 368.858024 237.734725 
L 369.060381 234.598737 
L 369.465095 208.157471 
L 370.679238 93.403783 
L 370.881596 86.252472 
L 371.083953 83.12887 
L 371.28631 84.840241 
L 371.691024 101.5337 
L 372.095739 128.671261 
L 373.107525 222.556118 
L 373.512239 235.349545 
L 373.714597 236.817512 
L 373.916954 233.521789 
L 374.524025 204.175857 
L 374.92874 164.432159 
L 375.333454 122.417664 
L 375.738169 104.500375 
L 375.940526 102.477549 
L 376.142883 103.368381 
L 376.34524 107.443021 
L 376.749955 125.725834 
L 377.559383 192.917131 
L 377.964098 223.641025 
L 378.368812 236.302566 
L 378.57117 236.262043 
L 378.773527 231.077203 
L 378.975884 222.24477 
L 379.380598 188.167078 
L 379.98767 126.620087 
L 380.392384 108.377938 
L 380.797099 101.467341 
L 380.999456 100.841547 
L 381.201813 101.128089 
L 381.40417 103.891613 
L 381.606528 111.0516 
L 382.011242 140.57004 
L 383.023028 226.436646 
L 383.225385 229.114059 
L 383.427743 230.14644 
L 383.832457 218.347614 
L 384.237171 188.182649 
L 384.237171 188.182649 
" clip-path="url(#pa52fe94188)" style="fill: none; stroke: #ff7f0e; stroke-width: 1.5; stroke-linecap: square"/>
   </g>
   <g id="line2d_15">
    <path d="M 384.439529 171.137837 
L 385.248957 118.11938 
L 385.653672 107.85117 
L 385.856029 107.217366 
L 386.058386 111.126545 
L 386.463101 125.877877 
L 387.677244 183.807283 
L 387.879601 186.932992 
L 388.081958 187.183074 
L 388.284316 184.120442 
L 388.68903 166.653638 
L 389.700816 98.802855 
L 389.903173 94.107688 
L 390.10553 93.352034 
L 390.307888 95.860683 
L 390.712602 108.989892 
L 391.319674 143.605855 
L 392.33146 206.422696 
L 392.533817 211.166914 
L 392.736174 211.712242 
L 392.938531 208.114023 
L 393.343246 190.919257 
L 393.74796 164.519663 
L 394.355032 121.639762 
L 394.759746 107.629948 
L 394.962103 105.305215 
L 395.164461 106.070595 
L 395.366818 109.507446 
L 395.771532 122.730106 
L 397.188033 184.68205 
L 397.39039 187.369761 
L 397.592747 186.100138 
L 397.795104 181.821353 
L 398.199819 163.373816 
L 399.009248 110.637057 
L 399.413962 100.007282 
L 399.616319 99.590009 
L 399.818676 101.745796 
L 400.223391 112.725408 
L 400.830462 141.681017 
L 401.639891 183.346783 
L 402.044606 194.418244 
L 402.246963 194.685658 
L 402.44932 191.61644 
L 402.854034 178.178108 
L 404.068178 110.673094 
L 404.270535 106.486728 
L 404.472892 104.938294 
L 404.675249 105.886783 
L 404.877607 109.131452 
L 405.282321 121.39182 
L 406.698821 176.07054 
L 406.901179 178.916756 
L 407.103536 179.025444 
L 407.305893 175.931062 
L 407.710607 160.698398 
L 408.722393 109.165285 
L 408.924751 104.916751 
L 409.127108 103.335355 
L 409.329465 104.187292 
L 409.531822 107.056223 
L 409.936537 118.027288 
L 411.555394 174.235676 
L 411.757752 175.776398 
L 411.960109 174.600248 
L 412.162466 170.718388 
L 412.56718 155.221318 
L 413.376609 117.56243 
L 413.781324 108.340402 
L 413.983681 106.968911 
L 414.186038 107.625988 
L 414.388395 109.988156 
L 414.79311 118.978801 
L 416.007253 153.757367 
L 416.411967 158.624913 
L 416.614325 157.992301 
L 416.816682 155.225701 
L 417.221396 143.9174 
L 418.030825 115.468453 
L 418.435539 109.275947 
L 418.637897 108.79903 
L 418.840254 109.951055 
L 419.244968 116.210932 
L 420.459112 143.141075 
L 420.863826 146.928827 
L 421.066183 146.735172 
L 421.26854 145.079575 
L 421.673255 137.767467 
L 422.482684 117.927173 
L 422.887398 113.498619 
L 423.089755 113.329134 
L 423.292112 114.342508 
L 423.696827 119.247029 
L 424.708613 135.484845 
L 425.113327 137.993533 
L 425.315684 137.786639 
L 425.518042 136.574612 
L 425.922756 131.464492 
L 426.934542 115.611935 
L 427.136899 114.671508 
L 427.339257 114.896535 
L 427.541614 116.19754 
L 427.946328 121.238637 
L 429.160471 139.68345 
L 429.362829 140.749239 
L 429.565186 140.84392 
L 429.767543 139.957061 
L 430.172257 135.408619 
L 431.386401 116.335973 
L 431.588758 115.42456 
L 431.791115 115.496058 
L 431.993472 116.417454 
L 432.398187 120.310858 
L 433.409973 131.948982 
L 433.61233 133.06033 
L 433.814687 133.516639 
L 434.017044 133.283743 
L 434.219402 132.406227 
L 434.624116 129.037247 
L 435.433545 120.938318 
L 435.635902 119.932416 
L 435.838259 119.637928 
L 436.040617 120.075667 
L 436.445331 122.812099 
L 437.659474 134.324375 
L 437.861831 134.856373 
L 438.064189 134.694885 
L 438.266546 133.823173 
L 438.67126 130.199191 
L 439.683046 117.917459 
L 439.885403 116.650991 
L 440.087761 116.154672 
L 440.290118 116.448852 
L 440.492475 117.465481 
L 440.897189 121.208956 
L 441.908976 132.985116 
L 442.31369 135.30876 
L 442.516047 135.57986 
L 442.718404 135.245618 
L 443.123119 132.945452 
L 444.337262 122.437079 
L 444.539619 121.760766 
L 444.741976 121.569982 
L 444.944334 121.825779 
L 445.349048 123.258002 
L 446.158477 126.579411 
L 446.360834 126.823495 
L 446.563191 126.72183 
L 446.765549 126.258383 
L 447.170263 124.516088 
L 447.979692 120.433797 
L 448.182049 119.953741 
L 448.384406 119.889753 
L 448.586763 120.31451 
L 448.991478 122.611575 
L 449.598549 128.689088 
L 450.407978 136.701691 
L 450.812693 138.391839 
L 451.01505 138.349432 
L 451.217407 137.673312 
L 451.622121 134.531692 
L 452.43155 124.197354 
L 453.038622 118.081471 
L 453.443336 116.583889 
L 453.645694 116.641815 
L 453.848051 117.181028 
L 454.252765 119.291909 
L 455.669266 127.891707 
L 456.07398 128.917934 
L 456.478694 129.280882 
L 457.085766 129.58971 
L 457.490481 130.242212 
L 458.502267 132.68968 
L 458.704624 132.758307 
L 458.906981 132.506739 
L 459.109338 131.878599 
L 459.514053 129.392377 
L 460.121124 123.130808 
L 460.728196 116.595795 
L 461.13291 114.12053 
L 461.335267 113.782675 
L 461.537625 114.07665 
L 461.739982 114.992626 
L 462.144696 118.453634 
L 462.954125 129.128019 
L 463.763554 138.770627 
L 464.168268 141.468113 
L 464.370626 142.113335 
L 464.572983 142.245976 
L 464.77534 141.869212 
L 465.180054 139.710312 
L 465.584769 135.966568 
L 467.608341 113.908344 
L 467.810698 113.201568 
L 468.013055 112.922626 
L 468.215413 113.147154 
L 468.41777 113.874408 
L 468.822484 116.761179 
L 469.429556 123.579082 
L 470.643699 138.007361 
L 471.250771 143.26973 
L 471.655485 145.284046 
L 471.857842 145.64429 
L 472.060199 145.477919 
L 472.262557 144.713666 
L 472.667271 141.256503 
L 473.071985 135.303557 
L 474.488486 109.610906 
L 474.690843 108.02951 
L 474.8932 107.341266 
L 475.095558 107.626668 
L 475.297915 108.892596 
L 475.702629 114.11138 
L 476.512058 130.564804 
L 477.321487 145.687363 
L 477.726201 150.607122 
L 478.130916 153.148259 
L 478.333273 153.420806 
L 478.53563 152.976505 
L 478.737987 151.778601 
L 479.142702 147.116857 
L 479.749773 135.182348 
L 480.761559 113.11828 
L 481.166274 108.13083 
L 481.368631 106.999502 
L 481.570988 106.880497 
L 481.773345 107.814786 
L 482.17806 112.884487 
L 482.785131 125.754912 
L 483.59456 142.523649 
L 483.999275 148.068921 
L 484.403989 151.142965 
L 484.606346 151.698479 
L 484.808704 151.583613 
L 485.011061 150.776441 
L 485.415775 147.100735 
L 486.022847 137.207032 
L 487.23699 114.743851 
L 487.641704 110.324794 
L 487.844062 109.093441 
L 488.046419 108.650153 
L 488.248776 109.050727 
L 488.451133 110.404148 
L 488.855848 115.652355 
L 490.474705 142.75552 
L 490.87942 146.446759 
L 491.284134 148.401471 
L 491.486491 148.622 
L 491.688849 148.26364 
L 491.891206 147.300029 
L 492.29592 143.538894 
L 492.902992 134.055801 
L 494.117135 111.998807 
L 494.52185 108.076005 
L 494.724207 107.357721 
L 494.926564 107.578609 
L 495.128921 108.856444 
L 495.533636 114.206099 
L 496.545422 134.767754 
L 497.35485 148.209725 
L 497.759565 152.283532 
L 497.961922 153.453717 
L 498.164279 153.954649 
L 498.366636 153.715858 
L 498.568994 152.681172 
L 498.973708 148.192655 
L 499.58078 136.145459 
L 500.592566 112.948642 
L 500.99728 107.526091 
L 501.199637 106.290971 
L 501.401995 106.148142 
L 501.604352 107.148316 
L 502.009066 112.561472 
L 502.616138 126.248079 
L 503.425567 144.12728 
L 503.830281 150.023645 
L 504.234995 153.230099 
L 504.437353 153.729878 
L 504.63971 153.45892 
L 504.842067 152.410995 
L 505.246782 148.02158 
L 505.853853 136.853324 
L 506.865639 116.587298 
L 507.270354 111.42489 
L 507.675068 108.984599 
L 507.877425 108.949472 
L 508.079782 109.787311 
L 508.484497 114.18234 
L 509.293926 128.963724 
L 509.900997 138.673344 
L 510.305712 142.999079 
L 510.710426 145.535205 
L 510.912783 146.149811 
L 511.115141 146.325755 
L 511.317498 146.004714 
L 511.519855 145.180523 
L 511.924569 142.024319 
L 512.531641 134.140139 
L 514.150499 110.450578 
L 514.555213 108.514513 
L 514.75757 108.793417 
L 514.959927 109.995666 
L 515.364642 114.845952 
L 516.174071 129.530836 
L 516.9835 143.632435 
L 517.590571 151.107581 
L 517.995286 153.627572 
L 518.197643 153.866376 
L 518.4 153.325613 
L 518.4 153.325613 
" clip-path="url(#pa52fe94188)" style="fill: none; stroke: #2ca02c; stroke-width: 1.5; stroke-linecap: square"/>
   </g>
   <g id="patch_3">
    <path d="M 72 320.4 
L 72 43.2 
" style="fill: none; stroke: #000000; stroke-width: 0.8; stroke-linejoin: miter; stroke-linecap: square"/>
   </g>
   <g id="patch_4">
    <path d="M 518.4 320.4 
L 518.4 43.2 
" style="fill: none; stroke: #000000; stroke-width: 0.8; stroke-linejoin: miter; stroke-linecap: square"/>
   </g>
   <g id="patch_5">
    <path d="M 72 320.4 
L 518.4 320.4 
" style="fill: none; stroke: #000000; stroke-width: 0.8; stroke-linejoin: miter; stroke-linecap: square"/>
   </g>
   <g id="patch_6">
    <path d="M 72 43.2 
L 518.4 43.2 
" style="fill: none; stroke: #000000; stroke-width: 0.8; stroke-linejoin: miter; stroke-linecap: square"/>
   </g>
   <g id="text_13">
    <!-- Classic Transformer - model_20231126192149 -->
    <g transform="translate(155.436563 37.2) scale(0.12 -0.12)">
     <defs>
      <path id="DejaVuSans-43" d="M 4122 4306 
L 4122 3641 
Q 3803 3938 3442 4084 
Q 3081 4231 2675 4231 
Q 1875 4231 1450 3742 
Q 1025 3253 1025 2328 
Q 1025 1406 1450 917 
Q 1875 428 2675 428 
Q 3081 428 3442 575 
Q 3803 722 4122 1019 
L 4122 359 
Q 3791 134 3420 21 
Q 3050 -91 2638 -91 
Q 1578 -91 968 557 
Q 359 1206 359 2328 
Q 359 3453 968 4101 
Q 1578 4750 2638 4750 
Q 3056 4750 3426 4639 
Q 3797 4528 4122 4306 
z
" transform="scale(0.015625)"/>
      <path id="DejaVuSans-6c" d="M 603 4863 
L 1178 4863 
L 1178 0 
L 603 0 
L 603 4863 
z
" transform="scale(0.015625)"/>
      <path id="DejaVuSans-61" d="M 2194 1759 
Q 1497 1759 1228 1600 
Q 959 1441 959 1056 
Q 959 750 1161 570 
Q 1363 391 1709 391 
Q 2188 391 2477 730 
Q 2766 1069 2766 1631 
L 2766 1759 
L 2194 1759 
z
M 3341 1997 
L 3341 0 
L 2766 0 
L 2766 531 
Q 2569 213 2275 61 
Q 1981 -91 1556 -91 
Q 1019 -91 701 211 
Q 384 513 384 1019 
Q 384 1609 779 1909 
Q 1175 2209 1959 2209 
L 2766 2209 
L 2766 2266 
Q 2766 2663 2505 2880 
Q 2244 3097 1772 3097 
Q 1472 3097 1187 3025 
Q 903 2953 641 2809 
L 641 3341 
Q 956 3463 1253 3523 
Q 1550 3584 1831 3584 
Q 2591 3584 2966 3190 
Q 3341 2797 3341 1997 
z
" transform="scale(0.015625)"/>
      <path id="DejaVuSans-73" d="M 2834 3397 
L 2834 2853 
Q 2591 2978 2328 3040 
Q 2066 3103 1784 3103 
Q 1356 3103 1142 2972 
Q 928 2841 928 2578 
Q 928 2378 1081 2264 
Q 1234 2150 1697 2047 
L 1894 2003 
Q 2506 1872 2764 1633 
Q 3022 1394 3022 966 
Q 3022 478 2636 193 
Q 2250 -91 1575 -91 
Q 1294 -91 989 -36 
Q 684 19 347 128 
L 347 722 
Q 666 556 975 473 
Q 1284 391 1588 391 
Q 1994 391 2212 530 
Q 2431 669 2431 922 
Q 2431 1156 2273 1281 
Q 2116 1406 1581 1522 
L 1381 1569 
Q 847 1681 609 1914 
Q 372 2147 372 2553 
Q 372 3047 722 3315 
Q 1072 3584 1716 3584 
Q 2034 3584 2315 3537 
Q 2597 3491 2834 3397 
z
" transform="scale(0.015625)"/>
      <path id="DejaVuSans-69" d="M 603 3500 
L 1178 3500 
L 1178 0 
L 603 0 
L 603 3500 
z
M 603 4863 
L 1178 4863 
L 1178 4134 
L 603 4134 
L 603 4863 
z
" transform="scale(0.015625)"/>
      <path id="DejaVuSans-63" d="M 3122 3366 
L 3122 2828 
Q 2878 2963 2633 3030 
Q 2388 3097 2138 3097 
Q 1578 3097 1268 2742 
Q 959 2388 959 1747 
Q 959 1106 1268 751 
Q 1578 397 2138 397 
Q 2388 397 2633 464 
Q 2878 531 3122 666 
L 3122 134 
Q 2881 22 2623 -34 
Q 2366 -91 2075 -91 
Q 1284 -91 818 406 
Q 353 903 353 1747 
Q 353 2603 823 3093 
Q 1294 3584 2113 3584 
Q 2378 3584 2631 3529 
Q 2884 3475 3122 3366 
z
" transform="scale(0.015625)"/>
      <path id="DejaVuSans-20" transform="scale(0.015625)"/>
      <path id="DejaVuSans-54" d="M -19 4666 
L 3928 4666 
L 3928 4134 
L 2272 4134 
L 2272 0 
L 1638 0 
L 1638 4134 
L -19 4134 
L -19 4666 
z
" transform="scale(0.015625)"/>
      <path id="DejaVuSans-72" d="M 2631 2963 
Q 2534 3019 2420 3045 
Q 2306 3072 2169 3072 
Q 1681 3072 1420 2755 
Q 1159 2438 1159 1844 
L 1159 0 
L 581 0 
L 581 3500 
L 1159 3500 
L 1159 2956 
Q 1341 3275 1631 3429 
Q 1922 3584 2338 3584 
Q 2397 3584 2469 3576 
Q 2541 3569 2628 3553 
L 2631 2963 
z
" transform="scale(0.015625)"/>
      <path id="DejaVuSans-6e" d="M 3513 2113 
L 3513 0 
L 2938 0 
L 2938 2094 
Q 2938 2591 2744 2837 
Q 2550 3084 2163 3084 
Q 1697 3084 1428 2787 
Q 1159 2491 1159 1978 
L 1159 0 
L 581 0 
L 581 3500 
L 1159 3500 
L 1159 2956 
Q 1366 3272 1645 3428 
Q 1925 3584 2291 3584 
Q 2894 3584 3203 3211 
Q 3513 2838 3513 2113 
z
" transform="scale(0.015625)"/>
      <path id="DejaVuSans-66" d="M 2375 4863 
L 2375 4384 
L 1825 4384 
Q 1516 4384 1395 4259 
Q 1275 4134 1275 3809 
L 1275 3500 
L 2222 3500 
L 2222 3053 
L 1275 3053 
L 1275 0 
L 697 0 
L 697 3053 
L 147 3053 
L 147 3500 
L 697 3500 
L 697 3744 
Q 697 4328 969 4595 
Q 1241 4863 1831 4863 
L 2375 4863 
z
" transform="scale(0.015625)"/>
      <path id="DejaVuSans-6f" d="M 1959 3097 
Q 1497 3097 1228 2736 
Q 959 2375 959 1747 
Q 959 1119 1226 758 
Q 1494 397 1959 397 
Q 2419 397 2687 759 
Q 2956 1122 2956 1747 
Q 2956 2369 2687 2733 
Q 2419 3097 1959 3097 
z
M 1959 3584 
Q 2709 3584 3137 3096 
Q 3566 2609 3566 1747 
Q 3566 888 3137 398 
Q 2709 -91 1959 -91 
Q 1206 -91 779 398 
Q 353 888 353 1747 
Q 353 2609 779 3096 
Q 1206 3584 1959 3584 
z
" transform="scale(0.015625)"/>
      <path id="DejaVuSans-6d" d="M 3328 2828 
Q 3544 3216 3844 3400 
Q 4144 3584 4550 3584 
Q 5097 3584 5394 3201 
Q 5691 2819 5691 2113 
L 5691 0 
L 5113 0 
L 5113 2094 
Q 5113 2597 4934 2840 
Q 4756 3084 4391 3084 
Q 3944 3084 3684 2787 
Q 3425 2491 3425 1978 
L 3425 0 
L 2847 0 
L 2847 2094 
Q 2847 2600 2669 2842 
Q 2491 3084 2119 3084 
Q 1678 3084 1418 2786 
Q 1159 2488 1159 1978 
L 1159 0 
L 581 0 
L 581 3500 
L 1159 3500 
L 1159 2956 
Q 1356 3278 1631 3431 
Q 1906 3584 2284 3584 
Q 2666 3584 2933 3390 
Q 3200 3197 3328 2828 
z
" transform="scale(0.015625)"/>
      <path id="DejaVuSans-65" d="M 3597 1894 
L 3597 1613 
L 953 1613 
Q 991 1019 1311 708 
Q 1631 397 2203 397 
Q 2534 397 2845 478 
Q 3156 559 3463 722 
L 3463 178 
Q 3153 47 2828 -22 
Q 2503 -91 2169 -91 
Q 1331 -91 842 396 
Q 353 884 353 1716 
Q 353 2575 817 3079 
Q 1281 3584 2069 3584 
Q 2775 3584 3186 3129 
Q 3597 2675 3597 1894 
z
M 3022 2063 
Q 3016 2534 2758 2815 
Q 2500 3097 2075 3097 
Q 1594 3097 1305 2825 
Q 1016 2553 972 2059 
L 3022 2063 
z
" transform="scale(0.015625)"/>
      <path id="DejaVuSans-64" d="M 2906 2969 
L 2906 4863 
L 3481 4863 
L 3481 0 
L 2906 0 
L 2906 525 
Q 2725 213 2448 61 
Q 2172 -91 1784 -91 
Q 1150 -91 751 415 
Q 353 922 353 1747 
Q 353 2572 751 3078 
Q 1150 3584 1784 3584 
Q 2172 3584 2448 3432 
Q 2725 3281 2906 2969 
z
M 947 1747 
Q 947 1113 1208 752 
Q 1469 391 1925 391 
Q 2381 391 2643 752 
Q 2906 1113 2906 1747 
Q 2906 2381 2643 2742 
Q 2381 3103 1925 3103 
Q 1469 3103 1208 2742 
Q 947 2381 947 1747 
z
" transform="scale(0.015625)"/>
      <path id="DejaVuSans-5f" d="M 3263 -1063 
L 3263 -1509 
L -63 -1509 
L -63 -1063 
L 3263 -1063 
z
" transform="scale(0.015625)"/>
      <path id="DejaVuSans-39" d="M 703 97 
L 703 672 
Q 941 559 1184 500 
Q 1428 441 1663 441 
Q 2288 441 2617 861 
Q 2947 1281 2994 2138 
Q 2813 1869 2534 1725 
Q 2256 1581 1919 1581 
Q 1219 1581 811 2004 
Q 403 2428 403 3163 
Q 403 3881 828 4315 
Q 1253 4750 1959 4750 
Q 2769 4750 3195 4129 
Q 3622 3509 3622 2328 
Q 3622 1225 3098 567 
Q 2575 -91 1691 -91 
Q 1453 -91 1209 -44 
Q 966 3 703 97 
z
M 1959 2075 
Q 2384 2075 2632 2365 
Q 2881 2656 2881 3163 
Q 2881 3666 2632 3958 
Q 2384 4250 1959 4250 
Q 1534 4250 1286 3958 
Q 1038 3666 1038 3163 
Q 1038 2656 1286 2365 
Q 1534 2075 1959 2075 
z
" transform="scale(0.015625)"/>
      <path id="DejaVuSans-34" d="M 2419 4116 
L 825 1625 
L 2419 1625 
L 2419 4116 
z
M 2253 4666 
L 3047 4666 
L 3047 1625 
L 3713 1625 
L 3713 1100 
L 3047 1100 
L 3047 0 
L 2419 0 
L 2419 1100 
L 313 1100 
L 313 1709 
L 2253 4666 
z
" transform="scale(0.015625)"/>
     </defs>
     <use xlink:href="#DejaVuSans-43"/>
     <use xlink:href="#DejaVuSans-6c" x="69.824219"/>
     <use xlink:href="#DejaVuSans-61" x="97.607422"/>
     <use xlink:href="#DejaVuSans-73" x="158.886719"/>
     <use xlink:href="#DejaVuSans-73" x="210.986328"/>
     <use xlink:href="#DejaVuSans-69" x="263.085938"/>
     <use xlink:href="#DejaVuSans-63" x="290.869141"/>
     <use xlink:href="#DejaVuSans-20" x="345.849609"/>
     <use xlink:href="#DejaVuSans-54" x="377.636719"/>
     <use xlink:href="#DejaVuSans-72" x="423.970703"/>
     <use xlink:href="#DejaVuSans-61" x="465.083984"/>
     <use xlink:href="#DejaVuSans-6e" x="526.363281"/>
     <use xlink:href="#DejaVuSans-73" x="589.742188"/>
     <use xlink:href="#DejaVuSans-66" x="641.841797"/>
     <use xlink:href="#DejaVuSans-6f" x="677.046875"/>
     <use xlink:href="#DejaVuSans-72" x="738.228516"/>
     <use xlink:href="#DejaVuSans-6d" x="777.591797"/>
     <use xlink:href="#DejaVuSans-65" x="875.003906"/>
     <use xlink:href="#DejaVuSans-72" x="936.527344"/>
     <use xlink:href="#DejaVuSans-20" x="977.640625"/>
     <use xlink:href="#DejaVuSans-2d" x="1009.427734"/>
     <use xlink:href="#DejaVuSans-20" x="1045.511719"/>
     <use xlink:href="#DejaVuSans-6d" x="1077.298828"/>
     <use xlink:href="#DejaVuSans-6f" x="1174.710938"/>
     <use xlink:href="#DejaVuSans-64" x="1235.892578"/>
     <use xlink:href="#DejaVuSans-65" x="1299.369141"/>
     <use xlink:href="#DejaVuSans-6c" x="1360.892578"/>
     <use xlink:href="#DejaVuSans-5f" x="1388.675781"/>
     <use xlink:href="#DejaVuSans-32" x="1438.675781"/>
     <use xlink:href="#DejaVuSans-30" x="1502.298828"/>
     <use xlink:href="#DejaVuSans-32" x="1565.921875"/>
     <use xlink:href="#DejaVuSans-33" x="1629.544922"/>
     <use xlink:href="#DejaVuSans-31" x="1693.167969"/>
     <use xlink:href="#DejaVuSans-31" x="1756.791016"/>
     <use xlink:href="#DejaVuSans-32" x="1820.414062"/>
     <use xlink:href="#DejaVuSans-36" x="1884.037109"/>
     <use xlink:href="#DejaVuSans-31" x="1947.660156"/>
     <use xlink:href="#DejaVuSans-39" x="2011.283203"/>
     <use xlink:href="#DejaVuSans-32" x="2074.90625"/>
     <use xlink:href="#DejaVuSans-31" x="2138.529297"/>
     <use xlink:href="#DejaVuSans-34" x="2202.152344"/>
     <use xlink:href="#DejaVuSans-39" x="2265.775391"/>
    </g>
   </g>
   <g id="legend_1">
    <g id="patch_7">
     <path d="M 79 95.234375 
L 161.517188 95.234375 
Q 163.517188 95.234375 163.517188 93.234375 
L 163.517188 50.2 
Q 163.517188 48.2 161.517188 48.2 
L 79 48.2 
Q 77 48.2 77 50.2 
L 77 93.234375 
Q 77 95.234375 79 95.234375 
z
" style="fill: #ffffff; opacity: 0.8; stroke: #cccccc; stroke-linejoin: miter"/>
    </g>
    <g id="line2d_16">
     <path d="M 81 56.298437 
L 91 56.298437 
L 101 56.298437 
" style="fill: none; stroke: #1f77b4; stroke-width: 1.5; stroke-linecap: square"/>
    </g>
    <g id="text_14">
     <!-- Measured -->
     <g transform="translate(109 59.798437) scale(0.1 -0.1)">
      <defs>
       <path id="DejaVuSans-4d" d="M 628 4666 
L 1569 4666 
L 2759 1491 
L 3956 4666 
L 4897 4666 
L 4897 0 
L 4281 0 
L 4281 4097 
L 3078 897 
L 2444 897 
L 1241 4097 
L 1241 0 
L 628 0 
L 628 4666 
z
" transform="scale(0.015625)"/>
       <path id="DejaVuSans-75" d="M 544 1381 
L 544 3500 
L 1119 3500 
L 1119 1403 
Q 1119 906 1312 657 
Q 1506 409 1894 409 
Q 2359 409 2629 706 
Q 2900 1003 2900 1516 
L 2900 3500 
L 3475 3500 
L 3475 0 
L 2900 0 
L 2900 538 
Q 2691 219 2414 64 
Q 2138 -91 1772 -91 
Q 1169 -91 856 284 
Q 544 659 544 1381 
z
M 1991 3584 
L 1991 3584 
z
" transform="scale(0.015625)"/>
      </defs>
      <use xlink:href="#DejaVuSans-4d"/>
      <use xlink:href="#DejaVuSans-65" x="86.279297"/>
      <use xlink:href="#DejaVuSans-61" x="147.802734"/>
      <use xlink:href="#DejaVuSans-73" x="209.082031"/>
      <use xlink:href="#DejaVuSans-75" x="261.181641"/>
      <use xlink:href="#DejaVuSans-72" x="324.560547"/>
      <use xlink:href="#DejaVuSans-65" x="363.423828"/>
      <use xlink:href="#DejaVuSans-64" x="424.947266"/>
     </g>
    </g>
    <g id="line2d_17">
     <path d="M 81 70.976562 
L 91 70.976562 
L 101 70.976562 
" style="fill: none; stroke: #ff7f0e; stroke-width: 1.5; stroke-linecap: square"/>
    </g>
    <g id="text_15">
     <!-- Fitted -->
     <g transform="translate(109 74.476562) scale(0.1 -0.1)">
      <defs>
       <path id="DejaVuSans-46" d="M 628 4666 
L 3309 4666 
L 3309 4134 
L 1259 4134 
L 1259 2759 
L 3109 2759 
L 3109 2228 
L 1259 2228 
L 1259 0 
L 628 0 
L 628 4666 
z
" transform="scale(0.015625)"/>
       <path id="DejaVuSans-74" d="M 1172 4494 
L 1172 3500 
L 2356 3500 
L 2356 3053 
L 1172 3053 
L 1172 1153 
Q 1172 725 1289 603 
Q 1406 481 1766 481 
L 2356 481 
L 2356 0 
L 1766 0 
Q 1100 0 847 248 
Q 594 497 594 1153 
L 594 3053 
L 172 3053 
L 172 3500 
L 594 3500 
L 594 4494 
L 1172 4494 
z
" transform="scale(0.015625)"/>
      </defs>
      <use xlink:href="#DejaVuSans-46"/>
      <use xlink:href="#DejaVuSans-69" x="50.269531"/>
      <use xlink:href="#DejaVuSans-74" x="78.052734"/>
      <use xlink:href="#DejaVuSans-74" x="117.261719"/>
      <use xlink:href="#DejaVuSans-65" x="156.470703"/>
      <use xlink:href="#DejaVuSans-64" x="217.994141"/>
     </g>
    </g>
    <g id="line2d_18">
     <path d="M 81 85.654687 
L 91 85.654687 
L 101 85.654687 
" style="fill: none; stroke: #2ca02c; stroke-width: 1.5; stroke-linecap: square"/>
    </g>
    <g id="text_16">
     <!-- Estimated -->
     <g transform="translate(109 89.154687) scale(0.1 -0.1)">
      <defs>
       <path id="DejaVuSans-45" d="M 628 4666 
L 3578 4666 
L 3578 4134 
L 1259 4134 
L 1259 2753 
L 3481 2753 
L 3481 2222 
L 1259 2222 
L 1259 531 
L 3634 531 
L 3634 0 
L 628 0 
L 628 4666 
z
" transform="scale(0.015625)"/>
      </defs>
      <use xlink:href="#DejaVuSans-45"/>
      <use xlink:href="#DejaVuSans-73" x="63.183594"/>
      <use xlink:href="#DejaVuSans-74" x="115.283203"/>
      <use xlink:href="#DejaVuSans-69" x="154.492188"/>
      <use xlink:href="#DejaVuSans-6d" x="182.275391"/>
      <use xlink:href="#DejaVuSans-61" x="279.6875"/>
      <use xlink:href="#DejaVuSans-74" x="340.966797"/>
      <use xlink:href="#DejaVuSans-65" x="380.175781"/>
      <use xlink:href="#DejaVuSans-64" x="441.699219"/>
     </g>
    </g>
   </g>
  </g>
 </g>
 <defs>
  <clipPath id="pa52fe94188">
   <rect x="72" y="43.2" width="446.4" height="277.2"/>
  </clipPath>
 </defs>
</svg>
