<?xml version="1.0" encoding="utf-8" standalone="no"?>
<!DOCTYPE svg PUBLIC "-//W3C//DTD SVG 1.1//EN"
  "http://www.w3.org/Graphics/SVG/1.1/DTD/svg11.dtd">
<svg xmlns:xlink="http://www.w3.org/1999/xlink" width="576pt" height="360pt" viewBox="0 0 576 360" xmlns="http://www.w3.org/2000/svg" version="1.1">
 <metadata>
  <rdf:RDF xmlns:dc="http://purl.org/dc/elements/1.1/" xmlns:cc="http://creativecommons.org/ns#" xmlns:rdf="http://www.w3.org/1999/02/22-rdf-syntax-ns#">
   <cc:Work>
    <dc:type rdf:resource="http://purl.org/dc/dcmitype/StillImage"/>
    <dc:date>2023-11-26T16:36:33.830361</dc:date>
    <dc:format>image/svg+xml</dc:format>
    <dc:creator>
     <cc:Agent>
      <dc:title>Matplotlib v3.8.1, https://matplotlib.org/</dc:title>
     </cc:Agent>
    </dc:creator>
   </cc:Work>
  </rdf:RDF>
 </metadata>
 <defs>
  <style type="text/css">*{stroke-linejoin: round; stroke-linecap: butt}</style>
 </defs>
 <g id="figure_1">
  <g id="patch_1">
   <path d="M 0 360 
L 576 360 
L 576 0 
L 0 0 
z
" style="fill: #ffffff"/>
  </g>
  <g id="axes_1">
   <g id="patch_2">
    <path d="M 72 320.4 
L 518.4 320.4 
L 518.4 43.2 
L 72 43.2 
z
" style="fill: #ffffff"/>
   </g>
   <g id="matplotlib.axis_1">
    <g id="xtick_1">
     <g id="line2d_1">
      <defs>
       <path id="m1d1eecf712" d="M 0 0 
L 0 3.5 
" style="stroke: #000000; stroke-width: 0.8"/>
      </defs>
      <g>
       <use xlink:href="#m1d1eecf712" x="129.874161" y="320.4" style="stroke: #000000; stroke-width: 0.8"/>
      </g>
     </g>
     <g id="text_1">
      <!-- 2020-05-15 -->
      <g transform="translate(100.816349 334.998438) scale(0.1 -0.1)">
       <defs>
        <path id="DejaVuSans-32" d="M 1228 531 
L 3431 531 
L 3431 0 
L 469 0 
L 469 531 
Q 828 903 1448 1529 
Q 2069 2156 2228 2338 
Q 2531 2678 2651 2914 
Q 2772 3150 2772 3378 
Q 2772 3750 2511 3984 
Q 2250 4219 1831 4219 
Q 1534 4219 1204 4116 
Q 875 4013 500 3803 
L 500 4441 
Q 881 4594 1212 4672 
Q 1544 4750 1819 4750 
Q 2544 4750 2975 4387 
Q 3406 4025 3406 3419 
Q 3406 3131 3298 2873 
Q 3191 2616 2906 2266 
Q 2828 2175 2409 1742 
Q 1991 1309 1228 531 
z
" transform="scale(0.015625)"/>
        <path id="DejaVuSans-30" d="M 2034 4250 
Q 1547 4250 1301 3770 
Q 1056 3291 1056 2328 
Q 1056 1369 1301 889 
Q 1547 409 2034 409 
Q 2525 409 2770 889 
Q 3016 1369 3016 2328 
Q 3016 3291 2770 3770 
Q 2525 4250 2034 4250 
z
M 2034 4750 
Q 2819 4750 3233 4129 
Q 3647 3509 3647 2328 
Q 3647 1150 3233 529 
Q 2819 -91 2034 -91 
Q 1250 -91 836 529 
Q 422 1150 422 2328 
Q 422 3509 836 4129 
Q 1250 4750 2034 4750 
z
" transform="scale(0.015625)"/>
        <path id="DejaVuSans-2d" d="M 313 2009 
L 1997 2009 
L 1997 1497 
L 313 1497 
L 313 2009 
z
" transform="scale(0.015625)"/>
        <path id="DejaVuSans-35" d="M 691 4666 
L 3169 4666 
L 3169 4134 
L 1269 4134 
L 1269 2991 
Q 1406 3038 1543 3061 
Q 1681 3084 1819 3084 
Q 2600 3084 3056 2656 
Q 3513 2228 3513 1497 
Q 3513 744 3044 326 
Q 2575 -91 1722 -91 
Q 1428 -91 1123 -41 
Q 819 9 494 109 
L 494 744 
Q 775 591 1075 516 
Q 1375 441 1709 441 
Q 2250 441 2565 725 
Q 2881 1009 2881 1497 
Q 2881 1984 2565 2268 
Q 2250 2553 1709 2553 
Q 1456 2553 1204 2497 
Q 953 2441 691 2322 
L 691 4666 
z
" transform="scale(0.015625)"/>
        <path id="DejaVuSans-31" d="M 794 531 
L 1825 531 
L 1825 4091 
L 703 3866 
L 703 4441 
L 1819 4666 
L 2450 4666 
L 2450 531 
L 3481 531 
L 3481 0 
L 794 0 
L 794 531 
z
" transform="scale(0.015625)"/>
       </defs>
       <use xlink:href="#DejaVuSans-32"/>
       <use xlink:href="#DejaVuSans-30" x="63.623047"/>
       <use xlink:href="#DejaVuSans-32" x="127.246094"/>
       <use xlink:href="#DejaVuSans-30" x="190.869141"/>
       <use xlink:href="#DejaVuSans-2d" x="254.492188"/>
       <use xlink:href="#DejaVuSans-30" x="290.576172"/>
       <use xlink:href="#DejaVuSans-35" x="354.199219"/>
       <use xlink:href="#DejaVuSans-2d" x="417.822266"/>
       <use xlink:href="#DejaVuSans-31" x="453.90625"/>
       <use xlink:href="#DejaVuSans-35" x="517.529297"/>
      </g>
     </g>
    </g>
    <g id="xtick_2">
     <g id="line2d_2">
      <g>
       <use xlink:href="#m1d1eecf712" x="212.435902" y="320.4" style="stroke: #000000; stroke-width: 0.8"/>
      </g>
     </g>
     <g id="text_2">
      <!-- 2020-06-01 -->
      <g transform="translate(183.37809 334.998438) scale(0.1 -0.1)">
       <defs>
        <path id="DejaVuSans-36" d="M 2113 2584 
Q 1688 2584 1439 2293 
Q 1191 2003 1191 1497 
Q 1191 994 1439 701 
Q 1688 409 2113 409 
Q 2538 409 2786 701 
Q 3034 994 3034 1497 
Q 3034 2003 2786 2293 
Q 2538 2584 2113 2584 
z
M 3366 4563 
L 3366 3988 
Q 3128 4100 2886 4159 
Q 2644 4219 2406 4219 
Q 1781 4219 1451 3797 
Q 1122 3375 1075 2522 
Q 1259 2794 1537 2939 
Q 1816 3084 2150 3084 
Q 2853 3084 3261 2657 
Q 3669 2231 3669 1497 
Q 3669 778 3244 343 
Q 2819 -91 2113 -91 
Q 1303 -91 875 529 
Q 447 1150 447 2328 
Q 447 3434 972 4092 
Q 1497 4750 2381 4750 
Q 2619 4750 2861 4703 
Q 3103 4656 3366 4563 
z
" transform="scale(0.015625)"/>
       </defs>
       <use xlink:href="#DejaVuSans-32"/>
       <use xlink:href="#DejaVuSans-30" x="63.623047"/>
       <use xlink:href="#DejaVuSans-32" x="127.246094"/>
       <use xlink:href="#DejaVuSans-30" x="190.869141"/>
       <use xlink:href="#DejaVuSans-2d" x="254.492188"/>
       <use xlink:href="#DejaVuSans-30" x="290.576172"/>
       <use xlink:href="#DejaVuSans-36" x="354.199219"/>
       <use xlink:href="#DejaVuSans-2d" x="417.822266"/>
       <use xlink:href="#DejaVuSans-30" x="453.90625"/>
       <use xlink:href="#DejaVuSans-31" x="517.529297"/>
      </g>
     </g>
    </g>
    <g id="xtick_3">
     <g id="line2d_3">
      <g>
       <use xlink:href="#m1d1eecf712" x="280.427924" y="320.4" style="stroke: #000000; stroke-width: 0.8"/>
      </g>
     </g>
     <g id="text_3">
      <!-- 2020-06-15 -->
      <g transform="translate(251.370111 334.998438) scale(0.1 -0.1)">
       <use xlink:href="#DejaVuSans-32"/>
       <use xlink:href="#DejaVuSans-30" x="63.623047"/>
       <use xlink:href="#DejaVuSans-32" x="127.246094"/>
       <use xlink:href="#DejaVuSans-30" x="190.869141"/>
       <use xlink:href="#DejaVuSans-2d" x="254.492188"/>
       <use xlink:href="#DejaVuSans-30" x="290.576172"/>
       <use xlink:href="#DejaVuSans-36" x="354.199219"/>
       <use xlink:href="#DejaVuSans-2d" x="417.822266"/>
       <use xlink:href="#DejaVuSans-31" x="453.90625"/>
       <use xlink:href="#DejaVuSans-35" x="517.529297"/>
      </g>
     </g>
    </g>
    <g id="xtick_4">
     <g id="line2d_4">
      <g>
       <use xlink:href="#m1d1eecf712" x="358.133092" y="320.4" style="stroke: #000000; stroke-width: 0.8"/>
      </g>
     </g>
     <g id="text_4">
      <!-- 2020-07-01 -->
      <g transform="translate(329.075279 334.998438) scale(0.1 -0.1)">
       <defs>
        <path id="DejaVuSans-37" d="M 525 4666 
L 3525 4666 
L 3525 4397 
L 1831 0 
L 1172 0 
L 2766 4134 
L 525 4134 
L 525 4666 
z
" transform="scale(0.015625)"/>
       </defs>
       <use xlink:href="#DejaVuSans-32"/>
       <use xlink:href="#DejaVuSans-30" x="63.623047"/>
       <use xlink:href="#DejaVuSans-32" x="127.246094"/>
       <use xlink:href="#DejaVuSans-30" x="190.869141"/>
       <use xlink:href="#DejaVuSans-2d" x="254.492188"/>
       <use xlink:href="#DejaVuSans-30" x="290.576172"/>
       <use xlink:href="#DejaVuSans-37" x="354.199219"/>
       <use xlink:href="#DejaVuSans-2d" x="417.822266"/>
       <use xlink:href="#DejaVuSans-30" x="453.90625"/>
       <use xlink:href="#DejaVuSans-31" x="517.529297"/>
      </g>
     </g>
    </g>
    <g id="xtick_5">
     <g id="line2d_5">
      <g>
       <use xlink:href="#m1d1eecf712" x="426.125113" y="320.4" style="stroke: #000000; stroke-width: 0.8"/>
      </g>
     </g>
     <g id="text_5">
      <!-- 2020-07-15 -->
      <g transform="translate(397.067301 334.998438) scale(0.1 -0.1)">
       <use xlink:href="#DejaVuSans-32"/>
       <use xlink:href="#DejaVuSans-30" x="63.623047"/>
       <use xlink:href="#DejaVuSans-32" x="127.246094"/>
       <use xlink:href="#DejaVuSans-30" x="190.869141"/>
       <use xlink:href="#DejaVuSans-2d" x="254.492188"/>
       <use xlink:href="#DejaVuSans-30" x="290.576172"/>
       <use xlink:href="#DejaVuSans-37" x="354.199219"/>
       <use xlink:href="#DejaVuSans-2d" x="417.822266"/>
       <use xlink:href="#DejaVuSans-31" x="453.90625"/>
       <use xlink:href="#DejaVuSans-35" x="517.529297"/>
      </g>
     </g>
    </g>
    <g id="xtick_6">
     <g id="line2d_6">
      <g>
       <use xlink:href="#m1d1eecf712" x="508.686854" y="320.4" style="stroke: #000000; stroke-width: 0.8"/>
      </g>
     </g>
     <g id="text_6">
      <!-- 2020-08-01 -->
      <g transform="translate(479.629042 334.998438) scale(0.1 -0.1)">
       <defs>
        <path id="DejaVuSans-38" d="M 2034 2216 
Q 1584 2216 1326 1975 
Q 1069 1734 1069 1313 
Q 1069 891 1326 650 
Q 1584 409 2034 409 
Q 2484 409 2743 651 
Q 3003 894 3003 1313 
Q 3003 1734 2745 1975 
Q 2488 2216 2034 2216 
z
M 1403 2484 
Q 997 2584 770 2862 
Q 544 3141 544 3541 
Q 544 4100 942 4425 
Q 1341 4750 2034 4750 
Q 2731 4750 3128 4425 
Q 3525 4100 3525 3541 
Q 3525 3141 3298 2862 
Q 3072 2584 2669 2484 
Q 3125 2378 3379 2068 
Q 3634 1759 3634 1313 
Q 3634 634 3220 271 
Q 2806 -91 2034 -91 
Q 1263 -91 848 271 
Q 434 634 434 1313 
Q 434 1759 690 2068 
Q 947 2378 1403 2484 
z
M 1172 3481 
Q 1172 3119 1398 2916 
Q 1625 2713 2034 2713 
Q 2441 2713 2670 2916 
Q 2900 3119 2900 3481 
Q 2900 3844 2670 4047 
Q 2441 4250 2034 4250 
Q 1625 4250 1398 4047 
Q 1172 3844 1172 3481 
z
" transform="scale(0.015625)"/>
       </defs>
       <use xlink:href="#DejaVuSans-32"/>
       <use xlink:href="#DejaVuSans-30" x="63.623047"/>
       <use xlink:href="#DejaVuSans-32" x="127.246094"/>
       <use xlink:href="#DejaVuSans-30" x="190.869141"/>
       <use xlink:href="#DejaVuSans-2d" x="254.492188"/>
       <use xlink:href="#DejaVuSans-30" x="290.576172"/>
       <use xlink:href="#DejaVuSans-38" x="354.199219"/>
       <use xlink:href="#DejaVuSans-2d" x="417.822266"/>
       <use xlink:href="#DejaVuSans-30" x="453.90625"/>
       <use xlink:href="#DejaVuSans-31" x="517.529297"/>
      </g>
     </g>
    </g>
   </g>
   <g id="matplotlib.axis_2">
    <g id="ytick_1">
     <g id="line2d_7">
      <defs>
       <path id="m372d1f1d3a" d="M 0 0 
L -3.5 0 
" style="stroke: #000000; stroke-width: 0.8"/>
      </defs>
      <g>
       <use xlink:href="#m372d1f1d3a" x="72" y="312.769661" style="stroke: #000000; stroke-width: 0.8"/>
      </g>
     </g>
     <g id="text_7">
      <!-- −2 -->
      <g transform="translate(50.257812 316.568879) scale(0.1 -0.1)">
       <defs>
        <path id="DejaVuSans-2212" d="M 678 2272 
L 4684 2272 
L 4684 1741 
L 678 1741 
L 678 2272 
z
" transform="scale(0.015625)"/>
       </defs>
       <use xlink:href="#DejaVuSans-2212"/>
       <use xlink:href="#DejaVuSans-32" x="83.789062"/>
      </g>
     </g>
    </g>
    <g id="ytick_2">
     <g id="line2d_8">
      <g>
       <use xlink:href="#m372d1f1d3a" x="72" y="259.689551" style="stroke: #000000; stroke-width: 0.8"/>
      </g>
     </g>
     <g id="text_8">
      <!-- −1 -->
      <g transform="translate(50.257812 263.48877) scale(0.1 -0.1)">
       <use xlink:href="#DejaVuSans-2212"/>
       <use xlink:href="#DejaVuSans-31" x="83.789062"/>
      </g>
     </g>
    </g>
    <g id="ytick_3">
     <g id="line2d_9">
      <g>
       <use xlink:href="#m372d1f1d3a" x="72" y="206.609441" style="stroke: #000000; stroke-width: 0.8"/>
      </g>
     </g>
     <g id="text_9">
      <!-- 0 -->
      <g transform="translate(58.6375 210.40866) scale(0.1 -0.1)">
       <use xlink:href="#DejaVuSans-30"/>
      </g>
     </g>
    </g>
    <g id="ytick_4">
     <g id="line2d_10">
      <g>
       <use xlink:href="#m372d1f1d3a" x="72" y="153.529331" style="stroke: #000000; stroke-width: 0.8"/>
      </g>
     </g>
     <g id="text_10">
      <!-- 1 -->
      <g transform="translate(58.6375 157.32855) scale(0.1 -0.1)">
       <use xlink:href="#DejaVuSans-31"/>
      </g>
     </g>
    </g>
    <g id="ytick_5">
     <g id="line2d_11">
      <g>
       <use xlink:href="#m372d1f1d3a" x="72" y="100.449221" style="stroke: #000000; stroke-width: 0.8"/>
      </g>
     </g>
     <g id="text_11">
      <!-- 2 -->
      <g transform="translate(58.6375 104.24844) scale(0.1 -0.1)">
       <use xlink:href="#DejaVuSans-32"/>
      </g>
     </g>
    </g>
    <g id="ytick_6">
     <g id="line2d_12">
      <g>
       <use xlink:href="#m372d1f1d3a" x="72" y="47.369111" style="stroke: #000000; stroke-width: 0.8"/>
      </g>
     </g>
     <g id="text_12">
      <!-- 3 -->
      <g transform="translate(58.6375 51.16833) scale(0.1 -0.1)">
       <defs>
        <path id="DejaVuSans-33" d="M 2597 2516 
Q 3050 2419 3304 2112 
Q 3559 1806 3559 1356 
Q 3559 666 3084 287 
Q 2609 -91 1734 -91 
Q 1441 -91 1130 -33 
Q 819 25 488 141 
L 488 750 
Q 750 597 1062 519 
Q 1375 441 1716 441 
Q 2309 441 2620 675 
Q 2931 909 2931 1356 
Q 2931 1769 2642 2001 
Q 2353 2234 1838 2234 
L 1294 2234 
L 1294 2753 
L 1863 2753 
Q 2328 2753 2575 2939 
Q 2822 3125 2822 3475 
Q 2822 3834 2567 4026 
Q 2313 4219 1838 4219 
Q 1578 4219 1281 4162 
Q 984 4106 628 3988 
L 628 4550 
Q 988 4650 1302 4700 
Q 1616 4750 1894 4750 
Q 2613 4750 3031 4423 
Q 3450 4097 3450 3541 
Q 3450 3153 3228 2886 
Q 3006 2619 2597 2516 
z
" transform="scale(0.015625)"/>
       </defs>
       <use xlink:href="#DejaVuSans-33"/>
      </g>
     </g>
    </g>
   </g>
   <g id="line2d_13">
    <path d="M 72 284.130641 
L 72.404714 295.379482 
L 72.607072 293.671325 
L 72.809429 283.089082 
L 73.214143 252.425574 
L 73.618858 240.093512 
L 75.035358 157.810323 
L 75.237715 154.873126 
L 75.440073 159.893442 
L 75.64243 168.038436 
L 75.844787 171.308932 
L 76.047144 186.432374 
L 76.654216 256.133526 
L 77.05893 280.006066 
L 77.261287 284.338953 
L 77.463645 283.963992 
L 77.666002 273.340086 
L 78.070716 245.072165 
L 78.475431 232.69844 
L 78.677788 223.636874 
L 79.487217 167.101032 
L 79.891931 150.956862 
L 80.094288 152.894163 
L 80.903717 194.973161 
L 81.713146 269.71546 
L 82.11786 284.255628 
L 82.320218 286.276253 
L 82.522575 285.984617 
L 82.724932 283.484874 
L 82.927289 276.714739 
L 83.332004 253.904589 
L 83.736718 239.697719 
L 83.939075 236.677197 
L 84.141432 236.948003 
L 84.546147 243.301515 
L 84.748504 245.384633 
L 84.950861 245.405464 
L 85.355576 249.571702 
L 85.557933 246.259543 
L 85.76029 252.34225 
L 86.569719 296.962652 
L 86.772076 303.003697 
L 86.974433 304.586867 
L 87.176791 304.64936 
L 87.379148 303.316164 
L 87.581505 299.608213 
L 87.783862 292.900571 
L 88.188577 271.006993 
L 88.390934 265.86169 
L 89.200363 257.841683 
L 89.40272 253.737939 
L 89.807434 239.051952 
L 90.212149 236.614704 
L 90.414506 233.92748 
L 90.616863 241.8225 
L 91.223935 292.046492 
L 91.628649 303.003697 
L 91.831006 303.06619 
L 92.033364 300.587279 
L 92.842792 254.758667 
L 93.04515 252.633886 
L 93.449864 244.0931 
L 93.652221 243.57232 
L 93.854578 240.655954 
L 94.056936 240.031018 
L 94.259293 237.42712 
L 94.46165 231.073608 
L 94.664007 228.240566 
L 94.866364 229.157139 
L 95.068722 232.281817 
L 95.271079 228.469709 
L 95.473436 238.510342 
L 96.080508 292.421454 
L 96.485222 301.566345 
L 96.687579 303.461983 
L 96.889937 299.149927 
L 97.699365 254.029576 
L 98.306437 243.593151 
L 98.508794 243.21819 
L 99.52058 222.137029 
L 99.722937 223.3869 
L 99.925295 227.719787 
L 100.127652 225.907473 
L 100.330009 235.989768 
L 100.937081 289.963374 
L 101.341795 302.149618 
L 101.544152 303.128684 
L 101.74651 299.441564 
L 101.948867 287.567787 
L 102.353581 257.737527 
L 102.555938 256.196019 
L 103.567724 238.531173 
L 104.377153 216.575102 
L 104.57951 217.845804 
L 104.781868 223.199419 
L 104.984225 223.178588 
L 105.186582 232.011011 
L 105.793654 286.838695 
L 106.198368 299.504057 
L 106.400725 301.253877 
L 106.603083 297.254289 
L 107.412511 251.633989 
L 107.614869 249.925832 
L 107.817226 246.280374 
L 108.22194 231.844362 
L 108.626655 210.284083 
L 108.829012 204.388857 
L 109.031369 202.51405 
L 109.638441 211.138162 
L 109.840798 216.533439 
L 110.043155 226.865708 
L 110.650227 281.547574 
L 111.054941 295.712781 
L 111.257298 297.608419 
L 111.459655 295.879431 
L 111.662013 284.547265 
L 112.066727 255.487759 
L 112.471442 240.59346 
L 113.887942 172.642128 
L 114.090299 170.288204 
L 114.292656 177.05834 
L 114.495014 188.411337 
L 114.697371 192.973367 
L 115.102085 226.761552 
L 115.709157 275.798166 
L 116.113871 289.650906 
L 116.316228 289.817555 
L 116.518586 288.171891 
L 116.720943 284.568096 
L 117.125657 257.508384 
L 118.542158 153.53993 
L 118.744515 143.499297 
L 118.946872 139.645528 
L 119.149229 143.290986 
L 119.756301 180.912109 
L 120.56573 259.737321 
L 120.970444 279.422793 
L 121.172801 283.484874 
L 121.375159 285.109707 
L 121.577516 283.672355 
L 121.779873 275.798166 
L 122.589302 225.136719 
L 123.196374 199.847658 
L 123.398731 195.30646 
L 123.601088 195.514771 
L 123.803445 194.952329 
L 124.410517 208.263458 
L 124.612874 219.158169 
L 125.219946 275.069075 
L 125.62466 289.505087 
L 125.827017 291.48405 
L 126.029374 288.963477 
L 127.04116 232.948415 
L 127.648232 195.785577 
L 128.255304 153.685748 
L 128.457661 146.186521 
L 128.660018 145.853222 
L 129.26709 189.890351 
L 130.278876 280.131053 
L 130.481233 287.901086 
L 130.68359 289.275944 
L 130.885947 286.713708 
L 132.504805 178.516523 
L 133.111877 136.125057 
L 133.314234 126.771854 
L 133.516591 128.45918 
L 133.921306 143.728441 
L 134.123663 151.102681 
L 135.135449 260.258101 
L 135.540163 272.798475 
L 135.74252 271.861072 
L 135.944878 261.341323 
L 136.349592 230.136204 
L 136.551949 223.407731 
L 136.754306 211.617279 
L 136.956664 216.158478 
L 137.159021 204.930468 
L 137.766092 196.160538 
L 137.96845 196.556331 
L 138.373164 191.181885 
L 138.777879 198.681112 
L 138.980236 199.514359 
L 139.182593 211.242318 
L 139.789665 267.507354 
L 140.194379 282.776614 
L 140.396736 284.838902 
L 140.599093 281.839211 
L 141.003808 251.82147 
L 141.408522 230.781971 
L 142.015594 217.470843 
L 142.622665 208.388445 
L 142.825023 208.11764 
L 143.02738 206.909431 
L 143.229737 207.59686 
L 143.634451 212.846319 
L 143.836809 211.617279 
L 144.039166 221.741236 
L 144.646238 270.77785 
L 145.050952 282.797445 
L 145.253309 284.088979 
L 145.455666 280.964301 
L 145.860381 251.488171 
L 146.062738 235.135689 
L 146.66981 218.762376 
L 146.872167 216.095984 
L 147.074524 215.012763 
L 147.479238 203.972233 
L 147.681596 212.388033 
L 147.883953 213.367099 
L 148.08631 215.970997 
L 148.491024 225.240875 
L 148.693382 223.886848 
L 149.098096 247.405258 
L 149.502811 275.423205 
L 149.907525 288.484359 
L 150.109882 290.546647 
L 150.312239 289.963374 
L 150.514597 287.130332 
L 150.716954 281.401756 
L 151.121668 260.445581 
L 151.526383 239.864369 
L 151.931097 234.031636 
L 152.133454 233.594181 
L 152.335811 235.573144 
L 152.538169 236.093924 
L 152.740526 234.031636 
L 152.942883 234.323273 
L 153.14524 233.344207 
L 153.347597 233.38587 
L 153.549955 230.448672 
L 153.752312 232.656778 
L 154.764098 284.359784 
L 154.966455 288.338541 
L 155.168812 289.73423 
L 155.573527 285.776305 
L 155.775884 274.652451 
L 156.78767 196.348019 
L 157.799456 153.519098 
L 158.001813 155.539724 
L 158.406528 168.80919 
L 158.608885 182.432786 
L 159.215956 251.404846 
L 159.620671 273.110943 
L 159.823028 276.339777 
L 160.025385 275.423205 
L 160.227743 265.570054 
L 160.632457 232.948415 
L 161.8466 182.391124 
L 162.251315 172.287998 
L 162.453672 172.433816 
L 162.656029 175.30852 
L 163.465458 207.284392 
L 164.072529 267.44486 
L 164.477244 286.151266 
L 164.679601 286.484565 
L 164.881958 283.2349 
L 165.084316 273.027618 
L 165.48903 241.093409 
L 166.500816 205.826209 
L 167.310245 162.684821 
L 167.512602 166.059473 
L 167.917316 186.744842 
L 168.119674 191.223547 
L 168.322031 202.639037 
L 168.929102 262.362051 
L 169.333817 277.631311 
L 169.536174 281.172613 
L 169.738531 277.485492 
L 170.143246 250.050819 
L 170.54796 219.574793 
L 171.357389 174.766909 
L 171.559746 168.705034 
L 172.166818 144.374207 
L 172.369175 145.99904 
L 172.571532 153.956553 
L 173.178604 193.140016 
L 173.785675 264.611819 
L 174.19039 284.10981 
L 174.392747 287.109501 
L 174.595104 285.276356 
L 174.999819 260.94553 
L 175.404533 235.802287 
L 177.023391 157.122894 
L 177.225748 157.643673 
L 177.428105 161.580768 
L 177.630462 178.266549 
L 177.83282 180.724629 
L 178.237534 225.095057 
L 178.642248 268.257277 
L 179.046963 287.567787 
L 179.24932 291.317401 
L 179.451677 288.775996 
L 179.654034 280.026897 
L 180.261106 239.926862 
L 181.879964 142.353582 
L 182.082321 139.062255 
L 182.284678 144.77 
L 183.094107 201.472491 
L 183.498821 240.739279 
L 183.903536 262.34122 
L 184.30825 270.236239 
L 184.510607 271.611098 
L 184.712965 267.944809 
L 184.915322 254.467031 
L 185.724751 171.871374 
L 186.129465 150.331927 
L 186.331822 144.228389 
L 186.53418 143.457635 
L 186.736537 146.019871 
L 187.748323 186.765673 
L 188.557752 251.446509 
L 188.962466 265.736703 
L 189.164823 267.798991 
L 189.36718 267.882315 
L 189.569538 267.132393 
L 189.771895 256.258513 
L 190.986038 159.497649 
L 191.188395 154.144034 
L 191.390752 154.102372 
L 191.795467 163.330588 
L 192.604896 194.910667 
L 193.414325 258.799918 
L 193.819039 272.631826 
L 194.021396 273.715048 
L 194.426111 269.71546 
L 194.628468 260.674725 
L 195.437897 199.201892 
L 195.640254 194.139913 
L 195.842611 195.368953 
L 196.247325 201.493322 
L 196.449683 202.076595 
L 196.65204 201.680803 
L 197.056754 209.971615 
L 197.259112 210.825694 
L 197.461469 219.324818 
L 198.06854 268.153121 
L 198.473255 282.484977 
L 198.675612 282.589133 
L 198.877969 278.902013 
L 199.282684 247.801051 
L 199.687398 224.740927 
L 201.306256 157.643673 
L 201.508613 156.477127 
L 202.115684 175.870962 
L 202.318042 187.140634 
L 202.925113 251.883964 
L 203.329828 269.71546 
L 203.532185 271.840241 
L 203.734542 268.819719 
L 203.936899 257.175085 
L 204.341614 222.824458 
L 205.758114 167.58015 
L 205.960471 165.059576 
L 206.162829 165.205394 
L 206.365186 166.642746 
L 206.7699 178.620679 
L 206.972257 181.849513 
L 207.174615 192.806717 
L 207.781686 252.488068 
L 208.186401 268.819719 
L 208.388758 271.902734 
L 208.591115 268.528082 
L 208.793472 256.529318 
L 209.198187 222.366172 
L 209.805258 199.847658 
L 210.209973 179.745563 
L 210.817044 137.604072 
L 211.019402 129.021622 
L 211.221759 132.021313 
L 211.626473 156.768764 
L 211.82883 162.039054 
L 212.031188 176.933353 
L 212.638259 242.69741 
L 213.042974 261.487141 
L 213.245331 265.528391 
L 213.447688 263.799403 
L 213.650045 252.967185 
L 214.257117 209.221693 
L 214.661831 182.578604 
L 215.47126 122.563954 
L 215.875975 105.649031 
L 216.078332 105.169913 
L 216.280689 110.773503 
L 217.090118 175.266858 
L 217.697189 237.885406 
L 218.101904 256.55015 
L 218.304261 259.945633 
L 218.506618 261.320491 
L 218.708976 260.049789 
L 218.911333 247.176115 
L 219.518404 191.765158 
L 220.125476 156.164659 
L 220.327833 153.977385 
L 220.53019 156.227153 
L 221.541976 199.014411 
L 221.744334 204.222208 
L 222.553762 261.757946 
L 222.958477 272.756813 
L 223.160834 274.485802 
L 223.363191 274.839932 
L 223.565549 273.256762 
L 223.767906 264.445169 
L 224.374977 225.803317 
L 224.779692 218.137441 
L 225.386763 220.220559 
L 225.589121 223.782692 
L 225.791478 224.678433 
L 226.196192 233.156726 
L 226.398549 232.802596 
L 226.600907 239.301927 
L 227.410335 293.525507 
L 227.612693 297.608419 
L 227.81505 299.316577 
L 228.017407 296.087743 
L 228.826836 253.008848 
L 229.029193 250.654924 
L 229.23155 244.843022 
L 230.648051 180.703797 
L 230.850408 181.287071 
L 231.255122 195.868902 
L 231.45748 206.8886 
L 232.064551 271.29863 
L 232.469266 288.67184 
L 232.671623 291.421557 
L 232.87398 290.192517 
L 233.278694 264.611819 
L 233.683409 241.8225 
L 235.302267 176.495898 
L 235.504624 175.891793 
L 236.111695 195.223135 
L 236.314053 205.701222 
L 236.921124 268.548913 
L 237.325839 284.609758 
L 237.528196 287.776099 
L 237.730553 285.630487 
L 238.135267 261.403816 
L 238.539982 239.36442 
L 239.349411 208.075977 
L 239.754125 197.95202 
L 240.15884 187.619752 
L 240.361197 187.369777 
L 240.563554 192.890042 
L 240.968268 210.700707 
L 241.170626 218.366584 
L 241.777697 274.548295 
L 242.182412 290.588309 
L 242.384769 293.108883 
L 242.587126 290.088361 
L 242.99184 265.090936 
L 243.396555 246.926141 
L 245.21777 171.413088 
L 245.420127 175.704313 
L 246.027199 202.805687 
L 246.836627 277.131362 
L 247.038985 285.588824 
L 247.241342 288.796827 
L 247.443699 286.234591 
L 247.848413 262.403713 
L 249.467271 149.123718 
L 249.669628 140.957893 
L 249.871985 138.999761 
L 250.074343 139.166411 
L 250.2767 146.186521 
L 250.883772 178.662341 
L 251.6932 254.487862 
L 252.097915 269.173849 
L 252.300272 272.277696 
L 252.502629 272.548501 
L 252.704986 268.632238 
L 253.109701 235.510651 
L 253.91913 161.476612 
L 254.323844 145.499091 
L 254.728558 136.583343 
L 254.930916 135.312641 
L 255.133273 142.895193 
L 255.740345 180.787122 
L 256.549773 256.841786 
L 256.954488 272.486008 
L 257.156845 276.339777 
L 257.359202 278.027103 
L 257.561559 277.048038 
L 257.966274 247.842713 
L 258.573345 196.88963 
L 258.97806 174.975221 
L 259.382774 163.830536 
L 259.585131 160.351728 
L 259.787489 159.914273 
L 259.989846 162.559834 
L 260.39456 178.724835 
L 260.596917 192.223444 
L 261.203989 254.904486 
L 261.608704 273.819204 
L 261.811061 276.777232 
L 262.013418 275.985647 
L 262.418132 251.758976 
L 262.62049 239.614394 
L 263.025204 229.844568 
L 263.227561 227.011526 
L 263.429918 225.990798 
L 263.834633 227.282332 
L 264.03699 226.969864 
L 264.239347 227.928099 
L 264.441704 228.011423 
L 264.644062 227.740618 
L 264.846419 229.802905 
L 265.048776 233.885818 
L 265.251133 233.885818 
L 265.45349 237.947899 
L 266.060562 280.880976 
L 266.465277 293.858806 
L 266.667634 295.421145 
L 266.869991 291.192414 
L 267.072348 283.151575 
L 267.477063 256.362669 
L 268.084134 233.948312 
L 268.488849 223.553549 
L 269.09592 212.179721 
L 269.500635 208.180133 
L 269.702992 210.388239 
L 269.905349 214.033697 
L 270.107706 214.721126 
L 270.310063 221.095469 
L 270.917135 270.486214 
L 271.32185 282.589133 
L 271.524207 284.755577 
L 271.726564 283.026588 
L 274.15485 139.895502 
L 274.357208 132.646249 
L 274.559565 136.020901 
L 275.166636 161.455781 
L 275.976065 243.92645 
L 276.38078 256.633474 
L 276.583137 255.925214 
L 276.987851 233.844156 
L 277.392566 204.618 
L 278.404352 147.040599 
L 278.606709 143.957584 
L 279.011423 130.583961 
L 279.213781 128.959129 
L 279.416138 133.271185 
L 280.023209 175.454338 
L 280.630281 247.592739 
L 281.034995 270.632032 
L 281.237353 275.569023 
L 281.43971 274.006684 
L 281.642067 268.048965 
L 282.249139 225.824149 
L 282.85621 191.80682 
L 283.867996 148.540445 
L 284.070354 147.332236 
L 284.272711 155.581386 
L 285.284497 239.593563 
L 285.689211 272.131877 
L 286.093926 287.047007 
L 286.296283 289.359269 
L 286.49864 287.526125 
L 286.700997 284.547265 
L 287.105712 253.175497 
L 287.712783 201.035036 
L 288.522212 157.102063 
L 288.724569 149.894472 
L 288.926927 147.93634 
L 289.129284 151.560967 
L 289.736355 185.765776 
L 290.545784 256.654305 
L 290.950499 272.111046 
L 291.152856 274.923256 
L 291.355213 275.006581 
L 291.55757 273.506736 
L 291.759927 260.883036 
L 292.771714 161.059988 
L 293.176428 138.81228 
L 293.581142 127.438452 
L 293.7835 125.688633 
L 293.985857 129.250766 
L 294.592928 155.081437 
L 295.402357 239.343589 
L 295.807072 254.217057 
L 296.009429 254.050407 
L 296.414143 233.510857 
L 297.830644 96.774945 
L 298.235358 83.297167 
L 298.437715 80.672437 
L 298.640073 80.943243 
L 298.84243 83.026361 
L 299.044787 91.171356 
L 299.449501 118.501873 
L 300.056573 198.556125 
L 300.461287 224.136822 
L 300.663645 230.24036 
L 300.866002 230.969452 
L 301.068359 224.053498 
L 301.473073 193.598302 
L 302.484859 86.880131 
L 302.687217 75.402147 
L 302.889574 75.506303 
L 303.091931 83.713791 
L 303.496646 92.48372 
L 303.90136 115.043896 
L 304.306074 143.37431 
L 304.913146 213.554579 
L 305.31786 239.260264 
L 305.520218 244.905516 
L 305.722575 243.093203 
L 305.924932 235.864781 
L 306.532004 195.348122 
L 307.54379 124.355437 
L 307.746147 114.002337 
L 307.948504 113.106596 
L 308.757933 145.83239 
L 309.162647 172.267167 
L 309.769719 236.156417 
L 310.174433 256.321006 
L 310.376791 260.77888 
L 310.579148 260.195607 
L 310.983862 236.448054 
L 312.198005 130.938092 
L 312.60272 119.14764 
L 312.805077 114.710597 
L 313.007434 115.273039 
L 313.209791 119.022653 
L 313.816863 146.998937 
L 314.01922 160.872507 
L 314.626292 224.345134 
L 315.031006 245.134659 
L 315.233364 249.780014 
L 315.435721 249.113416 
L 315.840435 230.073711 
L 316.24515 211.096499 
L 316.649864 198.910255 
L 317.054578 183.391021 
L 317.66165 175.766806 
L 317.864007 175.30852 
L 318.066364 174.391948 
L 318.268722 179.141458 
L 318.875793 201.597478 
L 319.685222 261.028855 
L 320.089937 273.985853 
L 320.292294 275.652348 
L 320.697008 267.61151 
L 321.101723 241.010084 
L 322.315866 161.97656 
L 322.72058 151.581798 
L 322.922937 149.227874 
L 323.125295 153.414942 
L 323.732366 181.432889 
L 324.541795 250.94656 
L 324.94651 265.445066 
L 325.148867 268.382264 
L 325.351224 268.444757 
L 325.553581 266.153327 
L 325.755938 253.654615 
L 326.970082 139.645528 
L 327.172439 133.229522 
L 327.374796 131.625521 
L 327.77951 125.980269 
L 327.981868 131.042248 
L 328.184225 139.957996 
L 328.791296 192.348431 
L 329.196011 236.698028 
L 329.398368 252.154769 
L 329.803083 262.403713 
L 330.00544 261.445478 
L 330.207797 255.758564 
L 330.814869 206.555301 
L 331.42194 167.788462 
L 331.826655 144.790831 
L 332.029012 141.853634 
L 332.231369 141.874465 
L 332.433726 142.061946 
L 332.636083 144.186727 
L 332.838441 148.790419 
L 333.243155 172.038024 
L 333.445512 181.182915 
L 334.052584 247.842713 
L 334.457298 269.944603 
L 334.659655 275.444036 
L 334.862013 273.006787 
L 335.266727 252.883861 
L 335.671442 228.178073 
L 336.48087 187.494764 
L 336.683228 182.349461 
L 336.885585 181.224577 
L 337.087942 174.95439 
L 337.290299 173.079583 
L 337.695014 179.641407 
L 338.099728 194.306563 
L 338.302085 200.264282 
L 339.111514 267.028237 
L 339.313871 273.319255 
L 339.516228 275.589854 
L 339.718586 271.465279 
L 340.1233 247.78022 
L 340.932729 202.6807 
L 342.349229 140.04132 
L 342.551587 139.957996 
L 343.158658 164.997082 
L 343.76573 228.65719 
L 344.170444 246.926141 
L 344.372801 251.758976 
L 344.575159 249.592533 
L 344.777516 242.572423 
L 345.18223 211.242318 
L 346.194016 127.417621 
L 346.598731 112.439998 
L 347.003445 105.732355 
L 347.205802 104.878277 
L 347.40816 108.107111 
L 347.610517 116.064624 
L 348.015231 142.541063 
L 348.82466 234.96904 
L 349.229374 252.321419 
L 349.431732 251.550665 
L 349.634089 245.67627 
L 349.836446 234.385767 
L 351.050589 128.45918 
L 351.455304 109.836099 
L 351.860018 100.857858 
L 352.062375 99.941285 
L 352.264733 103.628405 
L 352.46709 114.877246 
L 353.276519 199.160229 
L 353.681233 237.635432 
L 354.085947 258.112489 
L 354.288305 263.466104 
L 354.490662 264.049377 
L 354.693019 261.778777 
L 355.097733 219.137338 
L 355.704805 144.24922 
L 356.109519 119.189302 
L 356.716591 100.73287 
L 356.918948 99.628818 
L 357.121306 104.503315 
L 357.52602 130.500637 
L 357.728377 143.37431 
L 358.740163 240.23933 
L 359.144878 253.40464 
L 359.347235 255.300278 
L 359.549592 254.966979 
L 359.751949 240.76011 
L 360.763735 118.376886 
L 361.16845 99.024713 
L 361.573164 87.755041 
L 361.775521 85.421948 
L 361.977879 88.754938 
L 362.180236 95.858373 
L 362.58495 122.022344 
L 363.394379 212.075565 
L 363.799093 229.990386 
L 364.001451 230.823634 
L 364.203808 224.845083 
L 364.406165 214.637801 
L 365.013237 144.020077 
L 365.620308 78.485163 
L 366.025023 62.070187 
L 366.429737 55.8 
L 366.632094 56.299948 
L 366.834451 58.987172 
L 367.036809 67.840426 
L 367.441523 97.483205 
L 368.048595 178.349873 
L 368.453309 209.34668 
L 368.655666 218.012453 
L 368.858024 220.428871 
L 369.060381 216.470946 
L 369.262738 206.451145 
L 369.86981 141.916127 
L 370.476881 82.81805 
L 370.881596 65.923957 
L 371.083953 65.465671 
L 371.28631 66.194762 
L 371.488667 70.19435 
L 371.691024 76.527031 
L 372.298096 116.147949 
L 373.107525 202.555713 
L 373.512239 225.157551 
L 373.714597 229.594593 
L 374.119311 228.886333 
L 374.321668 215.929335 
L 375.333454 110.356879 
L 375.738169 96.879101 
L 375.940526 94.129384 
L 376.142883 93.0045 
L 376.34524 98.27479 
L 376.749955 124.959541 
L 377.559383 184.870035 
L 377.964098 220.116403 
L 378.368812 234.156623 
L 378.57117 234.385767 
L 378.773527 228.344722 
L 378.975884 216.929232 
L 380.392384 98.253959 
L 380.797099 88.150833 
L 381.201813 80.422463 
L 381.40417 84.255401 
L 382.011242 121.939019 
L 382.820671 206.284495 
L 383.225385 222.678639 
L 383.427743 223.345237 
L 383.6301 217.908298 
L 384.034814 195.264797 
L 385.0466 120.501667 
L 385.451315 103.503418 
L 385.653672 103.024301 
L 385.856029 106.878071 
L 386.058386 114.648103 
L 387.070172 185.911594 
L 387.474887 226.761552 
L 387.879601 249.050922 
L 388.284316 258.362463 
L 388.68903 260.924699 
L 388.891387 255.071135 
L 389.700816 210.721538 
L 390.307888 199.306048 
L 390.914959 186.328218 
L 391.117316 191.202716 
L 391.926745 231.511063 
L 392.533817 276.527258 
L 392.938531 289.130126 
L 393.140888 291.025764 
L 393.343246 290.567478 
L 393.545603 291.046595 
L 393.74796 281.922535 
L 394.355032 239.989356 
L 395.569175 182.453617 
L 395.771532 176.329248 
L 395.973889 177.558288 
L 396.176247 186.036581 
L 396.783318 228.865502 
L 397.188033 268.111458 
L 397.592747 286.276253 
L 397.795104 289.109295 
L 397.997461 286.526228 
L 398.402176 268.048965 
L 400.628105 138.020695 
L 400.830462 140.91623 
L 401.03282 151.061018 
L 401.639891 209.18003 
L 402.044606 254.362875 
L 402.44932 275.069075 
L 402.651677 279.151987 
L 402.854034 277.464661 
L 403.258749 258.924905 
L 403.663463 229.969555 
L 404.877607 121.918188 
L 405.282321 101.003676 
L 405.484678 96.712451 
L 405.687035 97.816504 
L 405.889393 108.523734 
L 406.294107 146.603144 
L 406.901179 225.49085 
L 407.305893 250.009157 
L 407.50825 255.716902 
L 407.710607 255.175291 
L 408.115322 233.531688 
L 409.73418 98.733076 
L 409.936537 93.71276 
L 410.138894 93.566942 
L 410.341251 98.253959 
L 410.948323 135.041836 
L 411.15068 151.248499 
L 411.757752 223.178588 
L 412.162466 247.696895 
L 412.364823 254.300381 
L 412.56718 256.112695 
L 412.971895 237.718756 
L 414.388395 137.770721 
L 414.79311 123.980475 
L 415.197824 117.189508 
L 415.400181 124.084631 
L 416.20961 187.807232 
L 416.614325 233.885818 
L 417.019039 257.383397 
L 417.221396 261.716284 
L 417.423753 261.153842 
L 417.828468 244.697204 
L 419.244968 145.144961 
L 419.649683 131.292222 
L 419.85204 127.39679 
L 420.054397 128.854973 
L 420.256754 137.666565 
L 421.066183 204.097221 
L 421.673255 260.133114 
L 422.077969 276.485596 
L 422.280326 279.006169 
L 422.482684 278.339571 
L 422.685041 278.172922 
L 423.089755 246.90531 
L 423.899184 176.70421 
L 424.708613 136.749993 
L 424.91097 133.521159 
L 425.113327 137.58324 
L 425.518042 164.122173 
L 425.720399 176.100105 
L 426.529828 251.863132 
L 426.934542 270.715357 
L 427.136899 275.256555 
L 427.339257 276.068972 
L 427.541614 276.298115 
L 427.743971 267.569847 
L 428.148685 226.615734 
L 428.755757 163.809705 
L 429.160471 137.791552 
L 429.565186 129.417415 
L 429.9699 133.396172 
L 430.374615 149.852809 
L 430.576972 161.664093 
L 431.386401 238.760316 
L 431.791115 251.175703 
L 431.993472 249.113416 
L 432.398187 228.511372 
L 433.207616 162.476509 
L 434.017044 91.088031 
L 434.219402 86.130208 
L 435.02883 113.939843 
L 435.433545 139.291398 
L 436.040617 211.513123 
L 436.445331 234.364935 
L 436.647688 239.572732 
L 436.850045 238.885303 
L 437.25476 217.991622 
L 437.659474 182.578604 
L 438.468903 108.065448 
L 438.67126 98.191466 
L 438.873617 99.170531 
L 439.075975 106.378122 
L 439.278332 105.919836 
L 439.480689 108.190435 
L 439.885403 127.000997 
L 440.290118 152.102578 
L 440.897189 226.55324 
L 441.301904 249.175909 
L 441.504261 254.675343 
L 441.706618 255.216954 
L 442.111333 240.280992 
L 442.920762 187.536427 
L 443.527833 152.185902 
L 444.134905 129.125778 
L 444.337262 126.501049 
L 444.539619 133.000379 
L 445.146691 178.683172 
L 445.753762 248.821779 
L 446.158477 270.319564 
L 446.360834 275.33988 
L 446.563191 273.319255 
L 446.967906 254.154563 
L 448.586763 142.853531 
L 448.991478 129.479909 
L 449.193835 127.125984 
L 449.396192 133.875289 
L 450.003264 174.808572 
L 450.812693 255.946045 
L 451.217407 269.423823 
L 451.419764 269.54881 
L 451.824479 252.133938 
L 452.43155 201.035036 
L 453.038622 158.560246 
L 453.443336 141.291192 
L 453.848051 133.312847 
L 454.050408 136.729162 
L 454.252765 146.853119 
L 454.65748 175.641819 
L 454.859837 184.203437 
L 455.669266 249.800845 
L 456.07398 263.528597 
L 456.276337 265.070105 
L 456.478694 263.04948 
L 456.681052 259.903971 
L 456.883409 251.800639 
L 457.288123 224.428459 
L 457.692838 213.325436 
L 457.895195 214.033697 
L 458.299909 219.866429 
L 458.502267 219.720611 
L 458.906981 215.84601 
L 459.109338 216.387621 
L 459.514053 220.595521 
L 459.71641 224.949239 
L 460.728196 283.422381 
L 461.13291 287.901086 
L 461.537625 284.547265 
L 461.739982 275.50653 
L 462.144696 240.551798 
L 463.561197 170.475685 
L 463.763554 163.122276 
L 463.965911 164.309653 
L 464.572983 184.036787 
L 465.382412 251.883964 
L 465.584769 258.883242 
L 465.787126 261.632959 
L 465.989483 259.174879 
L 467.608341 165.434537 
L 468.620127 143.978415 
L 468.822484 147.144755 
L 469.429556 173.72535 
L 470.036627 231.177764 
L 470.441342 249.19674 
L 470.643699 251.863132 
L 470.846056 249.259234 
L 471.857842 197.681215 
L 472.869628 167.038539 
L 473.071985 167.538487 
L 473.274343 165.726174 
L 473.4767 166.996876 
L 473.679057 170.829815 
L 473.881414 177.495795 
L 474.083772 178.662341 
L 474.286129 186.432374 
L 474.8932 239.218602 
L 475.297915 255.67524 
L 475.500272 257.362566 
L 475.702629 255.300278 
L 476.107344 230.615322 
L 476.512058 208.325952 
L 477.321487 176.433404 
L 477.726201 156.018841 
L 477.928558 152.415045 
L 478.333273 157.164556 
L 478.53563 161.684924 
L 479.142702 186.932322 
L 479.952131 255.571084 
L 480.356845 265.549222 
L 480.559202 265.132599 
L 480.963917 242.759904 
L 482.785131 112.731634 
L 482.987489 106.753084 
L 483.189846 104.086692 
L 483.392203 109.794437 
L 483.999275 150.165277 
L 484.606346 222.178691 
L 485.011061 245.697101 
L 485.213418 250.154975 
L 485.415775 251.11321 
L 485.82049 231.094439 
L 486.225204 199.493528 
L 487.23699 108.377916 
L 487.439347 105.253238 
L 487.844062 111.898387 
L 488.248776 130.750611 
L 489.260562 209.263355 
L 489.665277 241.8225 
L 490.069991 257.112592 
L 490.272348 259.487347 
L 490.474705 258.341632 
L 490.677063 256.55015 
L 490.87942 246.696998 
L 491.891206 165.976148 
L 492.29592 148.040496 
L 492.498277 140.5621 
L 492.700635 138.520644 
L 492.902992 140.166308 
L 493.105349 145.040805 
L 493.712421 178.974809 
L 494.52185 251.863132 
L 495.128921 270.361227 
L 495.331278 270.507045 
L 495.533636 269.882109 
L 495.735993 262.237064 
L 496.950136 169.600775 
L 497.557208 144.936649 
L 497.759565 141.541166 
L 497.961922 144.790831 
L 498.568994 176.683378 
L 499.378422 251.404846 
L 499.58078 258.3208 
L 499.783137 260.841374 
L 499.985494 257.487553 
L 500.187851 248.863441 
L 500.794923 211.492292 
L 500.99728 206.326158 
L 501.401995 193.077523 
L 501.806709 181.682863 
L 502.009066 181.224577 
L 502.211423 183.307696 
L 502.413781 183.953463 
L 502.616138 182.266137 
L 503.020852 192.098457 
L 503.223209 192.660899 
L 503.425567 200.264282 
L 504.032638 251.571496 
L 504.437353 264.7993 
L 504.63971 266.444963 
L 504.842067 264.049377 
L 505.246782 239.385251 
L 505.651496 215.283568 
L 507.270354 141.249529 
L 507.472711 138.10402 
L 507.675068 141.541166 
L 508.28214 169.913243 
L 508.889211 228.636359 
L 509.293926 245.967906 
L 509.496283 249.530039 
L 509.69864 247.676064 
L 510.103354 223.845186 
L 511.722212 116.189611 
L 512.126927 98.212297 
L 512.329284 99.816298 
L 512.936355 134.604381 
L 513.34107 174.016986 
L 513.745784 218.012453 
L 514.150499 241.010084 
L 514.352856 246.655336 
L 514.555213 247.155284 
L 514.75757 238.156211 
L 516.174071 140.228801 
L 516.376428 139.124748 
L 516.781142 148.561276 
L 516.9835 145.790728 
L 517.185857 146.332339 
L 517.590571 164.24716 
L 517.792928 168.538384 
L 517.995286 179.370602 
L 518.4 219.512299 
L 518.4 219.512299 
" clip-path="url(#p58f51a59a9)" style="fill: none; stroke: #1f77b4; stroke-width: 1.5; stroke-linecap: square"/>
   </g>
   <g id="line2d_14">
    <path d="M 72 221.53422 
L 72.202357 221.53422 
L 72.809429 227.77311 
L 73.214143 219.092705 
L 73.821215 197.654746 
L 74.428286 181.21007 
L 74.833001 169.489315 
L 75.64243 154.833341 
L 75.844787 158.657072 
L 76.249501 173.103614 
L 76.654216 198.876327 
L 77.05893 228.281872 
L 77.261287 233.221409 
L 77.463645 234.712265 
L 77.666002 233.231679 
L 77.868359 228.284852 
L 79.487217 168.035068 
L 79.891931 160.132261 
L 80.094288 158.32694 
L 80.296646 161.134363 
L 80.70136 174.215441 
L 81.308432 215.201387 
L 81.713146 246.428588 
L 81.915503 253.183301 
L 82.11786 255.18545 
L 82.320218 255.545584 
L 82.522575 254.151393 
L 82.927289 243.605482 
L 83.534361 227.027265 
L 83.736718 224.061644 
L 84.141432 213.137202 
L 84.34379 212.263157 
L 84.748504 218.88709 
L 85.962647 247.999665 
L 86.569719 267.849811 
L 86.772076 271.792173 
L 86.974433 271.54511 
L 87.176791 269.313724 
L 87.581505 259.598398 
L 88.390934 234.191089 
L 88.593291 231.900052 
L 88.795648 231.392414 
L 89.200363 229.744019 
L 89.40272 229.189417 
L 89.605077 229.004798 
L 89.807434 227.428864 
L 90.009791 224.895787 
L 90.212149 224.84288 
L 90.616863 228.307138 
L 90.81922 234.054924 
L 91.628649 267.45191 
L 91.831006 269.877725 
L 92.235721 258.6899 
L 92.640435 241.739757 
L 92.842792 227.537936 
L 93.04515 223.595829 
L 93.247507 223.014677 
L 93.652221 214.46593 
L 93.854578 213.19175 
L 94.056936 211.118316 
L 94.259293 210.26862 
L 94.664007 211.066377 
L 95.068722 214.083234 
L 95.473436 219.197756 
L 95.675793 225.888011 
L 96.282865 266.005246 
L 96.485222 267.90359 
L 96.687579 265.068711 
L 96.889937 260.335407 
L 97.294651 241.588951 
L 97.699365 222.913427 
L 98.10408 219.240847 
L 98.508794 210.45231 
L 98.711151 211.124478 
L 98.913509 210.429588 
L 99.115866 209.243283 
L 99.318223 209.636204 
L 99.52058 209.487776 
L 99.722937 209.617676 
L 99.925295 210.43447 
L 100.127652 213.773913 
L 100.330009 219.231956 
L 100.532366 228.667416 
L 101.139438 268.343367 
L 101.341795 268.928813 
L 101.544152 266.412354 
L 101.74651 262.447966 
L 102.151224 245.285303 
L 102.555938 223.884799 
L 102.758296 221.45259 
L 102.960653 221.956053 
L 103.365367 216.160955 
L 103.567724 218.217311 
L 103.972439 212.314513 
L 104.174796 213.147823 
L 104.377153 213.460102 
L 104.57951 211.650799 
L 104.781868 211.840759 
L 104.984225 215.606443 
L 105.186582 221.54448 
L 105.388939 231.315388 
L 105.793654 260.810442 
L 105.996011 268.019341 
L 106.198368 269.373938 
L 106.400725 267.42553 
L 106.603083 263.543547 
L 107.007797 248.012188 
L 107.412511 226.875828 
L 107.614869 222.650004 
L 107.817226 222.97855 
L 109.031369 198.576949 
L 109.233726 198.773791 
L 109.436083 199.852899 
L 109.840798 208.527481 
L 110.043155 215.306048 
L 110.852584 264.008432 
L 111.054941 266.15997 
L 111.257298 264.949732 
L 111.459655 262.05917 
L 111.662013 257.005849 
L 112.876156 208.202575 
L 113.887942 182.746191 
L 114.292656 179.465476 
L 114.495014 184.217763 
L 115.911514 260.410915 
L 116.113871 260.346904 
L 116.316228 258.294935 
L 116.720943 249.759541 
L 117.125657 235.197858 
L 118.137443 188.71523 
L 118.744515 157.241287 
L 118.946872 155.531489 
L 119.149229 157.379394 
L 119.351587 162.73687 
L 119.756301 188.041997 
L 120.768087 254.243121 
L 120.970444 257.876188 
L 121.172801 258.855238 
L 121.375159 258.2498 
L 121.577516 255.109616 
L 121.98223 241.49856 
L 122.589302 215.570289 
L 123.601088 183.563393 
L 123.803445 185.834855 
L 124.005802 190.680045 
L 124.815231 227.522491 
L 125.219946 254.992412 
L 125.62466 270.240578 
L 125.827017 270.752883 
L 126.029374 268.894239 
L 126.231732 265.105728 
L 126.636446 244.652978 
L 127.04116 225.729597 
L 127.445875 210.731061 
L 128.255304 165.885657 
L 128.457661 158.506259 
L 128.660018 158.730555 
L 128.862375 160.836692 
L 129.064733 168.661157 
L 129.469447 205.257903 
L 130.076519 253.851402 
L 130.278876 260.332161 
L 130.481233 262.488419 
L 130.68359 262.402021 
L 130.885947 258.26324 
L 131.290662 241.484785 
L 131.695376 224.144798 
L 131.897733 220.89954 
L 132.100091 212.300779 
L 132.909519 159.511418 
L 133.314234 143.743753 
L 133.516591 140.202602 
L 133.718948 142.773915 
L 133.921306 149.855129 
L 134.32602 176.658186 
L 135.135449 255.257012 
L 135.337806 258.725797 
L 135.540163 259.399457 
L 135.74252 257.085783 
L 135.944878 252.065017 
L 137.361378 191.421331 
L 137.563735 188.10085 
L 137.766092 182.485637 
L 137.96845 180.953763 
L 138.777879 201.307159 
L 139.38495 229.699485 
L 139.789665 258.689555 
L 139.992022 266.006132 
L 140.194379 268.767927 
L 140.396736 268.078454 
L 140.801451 258.966659 
L 141.610879 219.531219 
L 141.813237 218.286422 
L 142.217951 207.07429 
L 142.420308 207.740993 
L 142.825023 203.547793 
L 143.432094 210.118333 
L 143.836809 223.234726 
L 144.241523 237.767975 
L 144.646238 260.800033 
L 145.050952 268.604249 
L 145.253309 270.19867 
L 145.658024 255.459917 
L 146.467452 217.626938 
L 146.872167 209.177634 
L 147.074524 208.146722 
L 147.276881 208.501491 
L 147.479238 205.141286 
L 147.681596 203.933192 
L 147.883953 206.369233 
L 148.693382 226.360834 
L 148.895739 233.048402 
L 149.502811 267.299129 
L 149.705168 272.3323 
L 149.907525 272.584526 
L 150.109882 270.784869 
L 150.312239 267.665234 
L 151.526383 226.834313 
L 151.931097 220.1035 
L 152.133454 220.437193 
L 152.538169 223.147632 
L 152.942883 226.555055 
L 153.549955 235.901185 
L 153.752312 237.469134 
L 153.954669 240.326336 
L 154.764098 269.808602 
L 154.966455 269.570411 
L 155.168812 268.783847 
L 155.573527 259.261521 
L 155.978241 244.585507 
L 156.78767 206.475052 
L 156.990027 200.278106 
L 157.394742 180.085404 
L 157.597099 176.863755 
L 157.799456 176.71765 
L 158.001813 172.584744 
L 158.20417 173.524829 
L 158.608885 185.845634 
L 158.811242 192.783761 
L 159.418314 245.179786 
L 159.620671 253.610474 
L 159.823028 256.702806 
L 160.025385 255.956745 
L 160.227743 251.348102 
L 160.4301 243.819615 
L 161.441886 186.227039 
L 161.8466 169.916206 
L 162.048957 164.061891 
L 162.251315 162.475671 
L 162.453672 167.238045 
L 163.667815 216.600294 
L 164.274887 262.727237 
L 164.477244 268.280337 
L 164.679601 268.534924 
L 164.881958 264.686389 
L 165.084316 258.233709 
L 165.893744 215.77493 
L 166.096102 213.842078 
L 167.107888 180.268318 
L 167.310245 177.595654 
L 167.512602 177.965856 
L 167.714959 181.218824 
L 168.119674 198.850568 
L 169.13146 262.644743 
L 169.333817 264.084864 
L 169.536174 264.025302 
L 169.738531 261.011806 
L 170.143246 244.768553 
L 170.952675 201.425912 
L 171.357389 178.062818 
L 171.964461 156.652893 
L 172.166818 157.435755 
L 172.369175 156.975729 
L 172.571532 159.431746 
L 172.773889 167.024667 
L 173.988033 263.565991 
L 174.19039 267.734306 
L 174.392747 267.207827 
L 174.595104 263.379148 
L 174.999819 246.910469 
L 175.404533 224.371867 
L 175.809248 213.362354 
L 177.023391 169.715506 
L 177.428105 170.960214 
L 177.630462 175.8202 
L 178.237534 222.338582 
L 178.642248 257.962829 
L 178.844606 268.484125 
L 179.046963 271.579829 
L 179.24932 270.355038 
L 179.451677 267.620314 
L 179.856392 252.962125 
L 181.677607 163.351486 
L 181.879964 160.288825 
L 182.082321 159.105183 
L 182.284678 160.851163 
L 182.487035 167.145129 
L 182.89175 193.499088 
L 183.701179 251.911221 
L 183.903536 256.627564 
L 184.105893 258.653883 
L 184.30825 255.657913 
L 185.117679 231.405503 
L 185.522393 208.787353 
L 186.129465 154.718741 
L 186.53418 139.816267 
L 186.736537 139.714323 
L 187.141251 158.276952 
L 188.760109 256.908641 
L 188.962466 258.513258 
L 189.164823 259.112214 
L 189.36718 256.773536 
L 189.771895 243.006441 
L 190.783681 182.764449 
L 191.188395 153.296411 
L 191.390752 146.426812 
L 191.59311 149.389902 
L 191.997824 167.034478 
L 192.402539 190.705555 
L 193.211967 243.635035 
L 193.616682 260.746197 
L 193.819039 263.584341 
L 194.021396 264.317968 
L 194.223753 260.159682 
L 194.830825 237.559499 
L 195.842611 181.783503 
L 196.044968 178.747228 
L 196.247325 182.208252 
L 197.259112 221.452139 
L 197.461469 224.880979 
L 197.866183 242.067463 
L 198.270898 265.589292 
L 198.473255 270.69813 
L 198.675612 271.956185 
L 198.877969 268.122792 
L 199.282684 251.074229 
L 199.687398 225.259552 
L 200.092112 209.512852 
L 200.496827 190.347283 
L 201.103898 171.517062 
L 201.306256 169.328811 
L 201.913327 177.907651 
L 202.115684 185.582645 
L 202.722756 220.309368 
L 203.127471 254.64293 
L 203.329828 259.909683 
L 203.532185 260.599092 
L 203.734542 256.226704 
L 204.139257 237.305596 
L 204.543971 217.012323 
L 204.746328 211.325954 
L 205.3534 178.870934 
L 205.960471 160.451465 
L 206.162829 161.38807 
L 206.7699 183.286802 
L 207.781686 248.341155 
L 207.984044 260.268511 
L 208.186401 264.627801 
L 208.388758 264.699461 
L 208.591115 262.497948 
L 208.793472 255.653632 
L 210.007616 188.744944 
L 211.221759 144.553153 
L 211.424116 144.466021 
L 211.626473 152.393292 
L 212.233545 198.05016 
L 212.638259 242.389521 
L 212.840617 254.184005 
L 213.042974 258.465959 
L 213.245331 258.917961 
L 213.447688 256.092947 
L 213.852403 241.381258 
L 215.875975 110.689605 
L 216.078332 106.081221 
L 216.280689 108.104055 
L 216.483046 117.380302 
L 217.090118 168.537856 
L 217.697189 237.01671 
L 218.101904 251.735012 
L 218.304261 252.564863 
L 218.708976 244.970114 
L 218.911333 239.221653 
L 219.518404 201.624785 
L 220.125476 150.835527 
L 220.53019 133.461378 
L 220.732548 135.063063 
L 220.934905 144.025491 
L 222.351405 248.785245 
L 222.75612 265.621057 
L 222.958477 266.766354 
L 223.160834 266.907593 
L 223.363191 264.968734 
L 223.767906 250.125769 
L 224.577335 208.174015 
L 224.779692 206.227964 
L 224.982049 206.454384 
L 225.184406 207.923149 
L 225.386763 210.283282 
L 226.803264 245.915631 
L 227.81505 277.439182 
L 228.017407 274.883675 
L 228.624479 252.604148 
L 229.029193 228.687606 
L 230.648051 201.025668 
L 231.052765 192.233022 
L 231.255122 193.946594 
L 231.862194 233.103582 
L 232.266908 266.348046 
L 232.469266 272.632578 
L 232.671623 273.192037 
L 232.87398 267.454808 
L 233.885766 222.505105 
L 234.088123 219.687929 
L 234.695195 193.81074 
L 235.099909 181.468165 
L 235.302267 178.475526 
L 235.504624 179.646554 
L 235.706981 183.501294 
L 235.909338 189.934769 
L 236.718767 231.505423 
L 237.123481 262.539375 
L 237.325839 267.073498 
L 237.528196 265.409746 
L 237.730553 262.52212 
L 237.93291 257.215193 
L 239.147053 205.809943 
L 239.754125 190.019562 
L 239.956482 184.999565 
L 240.15884 185.825946 
L 240.361197 187.693831 
L 240.563554 190.973438 
L 240.968268 207.734074 
L 241.372983 230.099484 
L 241.980054 265.735619 
L 242.182412 268.355206 
L 242.384769 267.506872 
L 242.587126 264.569757 
L 242.99184 249.912404 
L 243.396555 229.739438 
L 245.015413 184.009558 
L 245.21777 181.819906 
L 245.420127 183.899207 
L 245.622484 189.635063 
L 246.431913 234.797679 
L 246.836627 260.294448 
L 247.038985 264.364704 
L 247.241342 265.170206 
L 247.443699 262.742834 
L 247.848413 248.171942 
L 248.860199 199.81757 
L 249.669628 150.73028 
L 249.871985 147.817501 
L 250.074343 147.545312 
L 250.2767 152.296339 
L 250.681414 176.319141 
L 251.6932 248.452908 
L 251.895558 254.704438 
L 252.097915 256.92824 
L 252.300272 256.666096 
L 252.502629 253.636418 
L 252.907344 241.180264 
L 253.514415 211.212933 
L 254.121487 158.392083 
L 254.526201 139.48525 
L 254.728558 140.434421 
L 255.133273 151.269825 
L 255.537987 173.242069 
L 256.549773 252.462146 
L 256.752131 260.390495 
L 256.954488 262.900627 
L 257.156845 263.235011 
L 257.359202 261.215063 
L 257.763917 249.276248 
L 258.573345 205.735787 
L 258.97806 178.723335 
L 259.382774 157.180726 
L 259.585131 156.320438 
L 259.989846 170.280245 
L 260.39456 186.615629 
L 261.001632 228.839524 
L 261.406346 259.116099 
L 261.811061 267.735141 
L 262.013418 267.003021 
L 262.215775 261.774648 
L 263.227561 214.414167 
L 263.632276 205.223188 
L 263.834633 205.632977 
L 264.644062 217.592902 
L 265.048776 223.45048 
L 265.655848 245.073036 
L 266.262919 269.937572 
L 266.465277 272.2304 
L 266.667634 272.654554 
L 266.869991 268.740408 
L 267.881777 227.750717 
L 268.084134 226.05669 
L 268.691206 215.052616 
L 269.298277 207.274336 
L 269.702992 209.006511 
L 270.310063 224.005278 
L 270.714778 243.25761 
L 271.119492 263.677187 
L 271.32185 268.641665 
L 271.524207 269.542101 
L 271.928921 253.59158 
L 272.535993 223.656463 
L 272.73835 220.532565 
L 272.940707 214.324699 
L 273.952493 163.847618 
L 274.559565 152.958344 
L 274.761922 153.257553 
L 275.368994 187.439729 
L 276.178422 245.955903 
L 276.38078 249.56973 
L 276.583137 247.841411 
L 276.785494 243.607851 
L 277.190209 225.042745 
L 277.79728 187.390534 
L 278.201995 156.72311 
L 278.606709 147.751928 
L 278.809066 142.513925 
L 279.011423 141.578105 
L 279.416138 150.353532 
L 279.618495 155.027195 
L 279.820852 164.69437 
L 280.225567 197.363469 
L 280.832638 254.657886 
L 281.034995 262.548968 
L 281.237353 264.951004 
L 281.43971 262.308935 
L 281.642067 258.189719 
L 282.046782 240.033534 
L 283.260925 173.31391 
L 283.665639 157.190432 
L 283.867996 156.022527 
L 284.070354 156.774725 
L 284.272711 159.332212 
L 284.475068 167.319874 
L 284.879782 197.355036 
L 285.486854 255.067562 
L 285.689211 267.275128 
L 285.891568 272.231874 
L 286.093926 272.131454 
L 286.296283 270.551955 
L 286.700997 258.992216 
L 287.105712 242.094102 
L 288.724569 164.658239 
L 288.926927 160.558237 
L 289.129284 161.908695 
L 289.331641 167.459645 
L 289.736355 190.764993 
L 290.748141 265.044103 
L 290.950499 269.818486 
L 291.355213 258.526635 
L 291.962285 235.296218 
L 292.569356 196.040924 
L 293.378785 139.596679 
L 293.581142 137.215423 
L 293.985857 142.784716 
L 294.188214 148.388799 
L 294.997643 201.084024 
L 295.604714 249.277286 
L 295.807072 253.399061 
L 296.009429 253.771665 
L 296.211786 249.867357 
L 296.6165 228.830749 
L 296.818858 216.566442 
L 298.033001 93.573175 
L 298.235358 86.309459 
L 298.437715 87.454079 
L 298.84243 102.941192 
L 299.651859 152.464876 
L 300.663645 237.228424 
L 300.866002 237.655755 
L 301.068359 232.897491 
L 301.473073 210.686538 
L 301.877788 169.306573 
L 302.484859 97.329441 
L 302.687217 86.473687 
L 302.889574 84.375593 
L 303.091931 87.767374 
L 303.496646 109.111618 
L 304.710789 198.973632 
L 305.31786 245.884882 
L 305.520218 249.849137 
L 305.722575 249.874571 
L 305.924932 244.5832 
L 306.532004 200.587146 
L 307.54379 131.377831 
L 307.746147 126.295178 
L 307.948504 124.896706 
L 308.150861 127.313283 
L 308.555576 144.962798 
L 308.96029 169.97058 
L 309.972076 255.153071 
L 310.174433 261.304435 
L 310.376791 264.074531 
L 310.579148 262.542634 
L 310.983862 244.495936 
L 311.793291 185.023458 
L 312.400363 141.71008 
L 312.60272 132.718684 
L 312.805077 129.731404 
L 313.412149 144.233234 
L 313.816863 165.325341 
L 314.221578 191.505365 
L 315.031006 255.559565 
L 315.233364 259.140688 
L 315.435721 256.141993 
L 315.638078 249.001723 
L 316.042792 218.658218 
L 317.054578 184.56093 
L 317.66165 173.773107 
L 317.864007 174.472299 
L 318.066364 180.468648 
L 318.471079 184.537999 
L 318.673436 190.245491 
L 319.07815 218.977197 
L 319.685222 258.698215 
L 319.887579 264.400094 
L 320.089937 266.077242 
L 320.292294 262.84955 
L 320.899365 244.639225 
L 321.708794 210.314267 
L 322.518223 162.090925 
L 322.72058 153.980691 
L 322.922937 150.878777 
L 323.125295 151.079072 
L 323.530009 166.432953 
L 324.137081 210.127154 
L 324.541795 248.14553 
L 324.94651 268.313064 
L 325.351224 260.220554 
L 326.36301 212.506554 
L 327.374796 131.553531 
L 327.577153 127.802423 
L 327.981868 136.52907 
L 328.184225 142.566039 
L 328.588939 166.828918 
L 328.993654 206.144284 
L 329.398368 247.598895 
L 329.600725 258.613434 
L 329.803083 262.753389 
L 330.00544 262.281663 
L 330.207797 257.386444 
L 330.612511 235.281038 
L 331.42194 166.242523 
L 331.826655 133.619652 
L 332.029012 129.443864 
L 332.231369 128.761111 
L 332.636083 141.8192 
L 333.647869 203.56716 
L 334.457298 265.202674 
L 334.659655 266.488311 
L 334.862013 264.664014 
L 335.266727 247.497611 
L 335.873799 213.947506 
L 336.278513 194.87089 
L 336.683228 174.183742 
L 336.885585 173.633949 
L 337.087942 168.304104 
L 337.290299 169.076256 
L 337.492656 171.884198 
L 337.897371 183.527585 
L 338.099728 192.850866 
L 338.909157 252.321967 
L 339.111514 263.37046 
L 339.516228 268.926997 
L 339.718586 266.712727 
L 340.528015 222.604983 
L 340.932729 206.224541 
L 341.337443 186.52888 
L 341.539801 181.601216 
L 342.146872 158.444122 
L 342.349229 156.366719 
L 342.551587 156.091036 
L 342.753944 159.145895 
L 343.361015 188.773687 
L 344.170444 250.462418 
L 344.372801 253.072296 
L 344.575159 250.119109 
L 345.18223 221.789173 
L 345.384587 212.014459 
L 345.991659 156.637637 
L 346.396374 122.988764 
L 346.801088 104.0145 
L 347.003445 101.641659 
L 347.205802 102.173358 
L 347.40816 107.638404 
L 347.812874 129.913957 
L 348.217588 159.677417 
L 349.027017 243.918586 
L 349.229374 249.07799 
L 349.431732 250.410972 
L 349.634089 246.305885 
L 349.836446 237.374491 
L 350.443518 186.43718 
L 351.252947 110.57996 
L 351.455304 107.515407 
L 351.657661 106.377722 
L 352.062375 116.250122 
L 352.669447 141.316292 
L 353.074161 173.382843 
L 353.88359 253.19452 
L 354.085947 257.502487 
L 354.288305 257.964702 
L 354.490662 256.109399 
L 354.895376 242.585991 
L 355.300091 212.444511 
L 356.109519 126.018989 
L 356.311877 119.090664 
L 356.514234 116.100771 
L 356.716591 118.589338 
L 357.52602 153.277042 
L 358.335449 217.488632 
L 358.740163 250.237613 
L 358.94252 256.636283 
L 359.144878 257.687222 
L 359.347235 254.427215 
L 359.751949 240.421678 
L 360.156664 212.79521 
L 360.966092 126.175649 
L 361.370807 115.863453 
L 361.573164 117.521915 
L 362.382593 144.599085 
L 362.787307 170.175988 
L 363.799093 244.57151 
L 364.001451 245.859419 
L 364.203808 239.065278 
L 364.810879 204.947619 
L 365.822665 94.721857 
L 366.025023 89.159088 
L 366.22738 88.425727 
L 366.632094 101.465941 
L 367.64388 157.076016 
L 368.453309 227.808415 
L 368.655666 233.95435 
L 368.858024 233.859144 
L 369.060381 227.90713 
L 369.86981 176.520126 
L 370.679238 96.630907 
L 370.881596 92.94832 
L 371.083953 94.321001 
L 371.28631 100.679946 
L 372.298096 157.642106 
L 373.309882 241.79465 
L 373.512239 246.86069 
L 373.714597 247.746965 
L 373.916954 244.307885 
L 374.524025 215.531076 
L 374.92874 184.688976 
L 375.535811 128.279799 
L 375.738169 120.306793 
L 375.940526 119.356235 
L 376.142883 123.671643 
L 376.749955 152.257905 
L 377.559383 212.197054 
L 377.964098 244.559984 
L 378.166455 253.813402 
L 378.368812 257.97887 
L 378.57117 257.40351 
L 378.773527 254.013083 
L 379.380598 213.897329 
L 380.594742 121.992369 
L 380.797099 118.689985 
L 380.999456 121.275877 
L 382.011242 159.498149 
L 382.618314 212.449267 
L 383.023028 241.438305 
L 383.225385 245.055935 
L 383.427743 242.653855 
L 383.6301 236.595226 
L 384.034814 213.955391 
L 384.237171 208.785436 
L 384.237171 208.785436 
" clip-path="url(#p58f51a59a9)" style="fill: none; stroke: #ff7f0e; stroke-width: 1.5; stroke-linecap: square"/>
   </g>
   <g id="line2d_15">
    <path d="M 384.439529 194.598873 
L 384.844243 183.21257 
L 385.248957 179.007105 
L 385.451315 179.260106 
L 385.653672 180.764683 
L 385.856029 180.058575 
L 386.665458 216.352116 
L 387.272529 256.184363 
L 387.677244 271.936816 
L 387.879601 276.721678 
L 388.081958 274.873861 
L 388.284316 269.604922 
L 389.296102 229.271537 
L 389.903173 217.338616 
L 390.307888 213.002596 
L 391.117316 225.284869 
L 391.319674 230.722282 
L 391.926745 255.352452 
L 392.33146 279.87981 
L 392.533817 291.88436 
L 392.736174 295.58374 
L 392.938531 294.066599 
L 393.140888 289.181096 
L 393.545603 265.632858 
L 394.152675 231.839345 
L 394.355032 230.450861 
L 394.759746 225.511782 
L 395.164461 220.841852 
L 395.569175 224.85571 
L 395.771532 225.094602 
L 396.176247 229.668729 
L 396.378604 229.446413 
L 396.580961 237.010092 
L 396.985675 268.811366 
L 397.39039 302.61737 
L 397.795104 307.8 
L 397.997461 300.310856 
L 399.009248 220.831565 
L 399.211605 215.222892 
L 399.616319 200.729774 
L 400.021034 193.575525 
L 400.223391 193.874426 
L 400.425748 195.745302 
L 400.628105 198.873412 
L 401.235177 218.713643 
L 401.639891 245.084252 
L 402.044606 279.604197 
L 402.44932 299.170197 
L 402.651677 299.689064 
L 403.056392 278.052128 
L 404.675249 161.355982 
L 405.282321 140.59246 
L 405.484678 141.339109 
L 405.687035 142.722864 
L 405.889393 148.77333 
L 406.294107 172.861509 
L 407.305893 255.350592 
L 407.50825 257.563605 
L 407.710607 255.610541 
L 407.912965 249.105984 
L 408.722393 206.102876 
L 409.531822 142.415619 
L 409.936537 127.444556 
L 410.138894 122.833806 
L 410.341251 123.266769 
L 410.745966 138.733488 
L 411.353037 188.500612 
L 411.960109 238.325279 
L 412.364823 250.543922 
L 412.56718 250.872592 
L 412.769538 247.782254 
L 412.971895 242.563161 
L 413.376609 221.329675 
L 413.983681 174.261857 
L 414.388395 134.094529 
L 414.79311 117.592734 
L 414.995467 112.914588 
L 415.197824 117.751172 
L 415.804896 155.725298 
L 416.816682 238.307613 
L 417.221396 251.909645 
L 417.423753 253.799456 
L 417.626111 251.570588 
L 417.828468 246.274494 
L 418.233182 224.978173 
L 419.042611 161.233447 
L 419.447325 125.40119 
L 419.649683 114.246278 
L 419.85204 109.270821 
L 420.054397 109.605351 
L 420.256754 114.478939 
L 420.661469 139.81416 
L 421.066183 175.408524 
L 421.673255 228.897982 
L 422.077969 249.386254 
L 422.280326 253.178613 
L 422.482684 252.211347 
L 422.685041 247.292801 
L 423.089755 227.408088 
L 423.899184 174.6237 
L 424.506256 128.842706 
L 424.91097 117.215796 
L 425.113327 120.969025 
L 425.518042 139.996909 
L 425.922756 174.98802 
L 426.529828 228.410804 
L 426.934542 249.883752 
L 427.136899 254.996788 
L 427.339257 255.520283 
L 427.541614 251.2196 
L 427.946328 234.599178 
L 429.160471 155.07245 
L 429.565186 130.223442 
L 429.767543 125.05465 
L 429.9699 123.482706 
L 430.172257 127.942656 
L 430.576972 151.290542 
L 431.588758 238.801795 
L 431.993472 253.724334 
L 432.19583 255.967442 
L 432.398187 252.167047 
L 432.802901 236.843972 
L 433.814687 176.75131 
L 434.421759 133.642191 
L 434.826473 120.926009 
L 435.02883 122.790702 
L 435.231188 127.390442 
L 435.635902 153.217992 
L 436.647688 238.333284 
L 436.850045 246.75953 
L 437.052403 250.52491 
L 437.25476 250.091584 
L 437.457117 245.982527 
L 437.861831 227.94146 
L 438.67126 178.129752 
L 439.278332 128.548521 
L 439.683046 111.76776 
L 439.885403 110.970287 
L 440.087761 115.879556 
L 440.290118 124.926572 
L 440.694832 158.501817 
L 441.301904 214.383527 
L 441.706618 238.907422 
L 441.908976 245.903862 
L 442.111333 248.512616 
L 442.31369 246.946255 
L 442.718404 233.690905 
L 443.527833 186.537239 
L 444.134905 133.218732 
L 444.539619 113.166346 
L 444.741976 109.9883 
L 444.944334 113.84198 
L 445.349048 135.103876 
L 446.765549 247.8428 
L 446.967906 252.547861 
L 447.170263 253.113485 
L 447.37262 249.884018 
L 447.777335 233.832486 
L 448.789121 168.811628 
L 449.396192 128.414293 
L 449.598549 123.164337 
L 449.800907 121.453703 
L 450.003264 127.04701 
L 450.407978 150.544943 
L 451.419764 240.78061 
L 451.824479 256.539252 
L 452.026836 258.171784 
L 452.229193 255.465337 
L 452.633908 240.508411 
L 453.848051 168.08176 
L 454.455122 133.13884 
L 454.65748 129.435549 
L 454.859837 130.193544 
L 455.062194 134.448883 
L 455.466908 161.25972 
L 456.478694 244.704394 
L 456.883409 259.16547 
L 457.085766 257.14039 
L 457.288123 251.992939 
L 458.097552 211.77875 
L 458.502267 189.339157 
L 459.109338 143.48456 
L 459.514053 123.589187 
L 459.71641 120.971992 
L 459.918767 122.839222 
L 460.121124 129.848858 
L 460.525839 159.561646 
L 461.335267 229.369144 
L 461.739982 247.032754 
L 461.942339 249.000141 
L 462.144696 246.752984 
L 462.347053 241.441146 
L 462.954125 211.136776 
L 463.35884 185.814793 
L 464.168268 119.091417 
L 464.572983 106.71701 
L 464.77534 109.105923 
L 464.977697 116.597067 
L 465.382412 145.392597 
L 465.989483 204.907105 
L 466.596555 239.692211 
L 466.798912 245.236153 
L 467.001269 246.814422 
L 467.203626 244.126566 
L 467.405984 238.217665 
L 468.013055 204.775598 
L 468.41777 174.936355 
L 469.024841 122.526491 
L 469.429556 107.020788 
L 469.631913 108.048346 
L 470.036627 126.232661 
L 470.441342 161.981185 
L 471.048413 218.37282 
L 471.453128 244.502931 
L 471.857842 254.250022 
L 472.060199 253.384672 
L 472.464914 240.874471 
L 473.4767 181.892155 
L 474.083772 139.03536 
L 474.286129 129.539867 
L 474.488486 126.213185 
L 474.690843 127.930241 
L 474.8932 134.813982 
L 475.297915 162.897244 
L 476.107344 238.48336 
L 476.512058 257.087001 
L 476.714415 261.862621 
L 476.916772 259.48089 
L 477.11913 255.053408 
L 477.523844 236.543374 
L 479.345059 137.27029 
L 479.547416 135.749878 
L 479.749773 137.604851 
L 479.952131 144.387337 
L 480.356845 173.987573 
L 481.368631 251.818255 
L 481.570988 261.201111 
L 481.773345 263.216351 
L 481.975703 259.983615 
L 482.380417 239.581323 
L 483.59456 165.822481 
L 484.201632 128.85986 
L 484.403989 123.728351 
L 484.606346 124.075403 
L 484.808704 126.608947 
L 485.011061 135.034854 
L 485.415775 168.276509 
L 486.225204 235.331526 
L 486.629918 248.971161 
L 486.832276 248.831984 
L 487.034633 244.686309 
L 487.439347 226.4141 
L 488.046419 189.77685 
L 488.855848 120.208986 
L 489.260562 105.045437 
L 489.462919 105.455709 
L 489.665277 111.405793 
L 490.069991 136.210378 
L 491.081777 225.532438 
L 491.486491 241.868487 
L 491.688849 245.516907 
L 491.891206 244.721814 
L 492.093563 240.338134 
L 492.498277 220.216346 
L 493.105349 177.442152 
L 493.712421 121.110656 
L 494.117135 105.397507 
L 494.319492 105.238051 
L 494.52185 111.140285 
L 494.926564 136.684021 
L 496.140707 241.998514 
L 496.545422 253.602558 
L 496.747779 254.167851 
L 496.950136 250.715964 
L 497.35485 234.001181 
L 498.973708 131.022674 
L 499.176065 127.01801 
L 499.378422 127.628298 
L 499.783137 145.057283 
L 500.187851 178.816902 
L 500.99728 248.694156 
L 501.401995 261.984555 
L 501.604352 262.086202 
L 501.806709 257.430089 
L 502.211423 239.91068 
L 504.032638 140.852134 
L 504.234995 138.775187 
L 504.437353 140.336507 
L 504.63971 145.772863 
L 505.044424 172.936263 
L 506.05621 252.439057 
L 506.258568 263.152106 
L 506.460925 266.845013 
L 506.663282 263.95142 
L 506.865639 256.802944 
L 507.472711 220.434119 
L 508.079782 188.163023 
L 508.686854 145.870979 
L 508.889211 133.919905 
L 509.091568 128.774019 
L 509.293926 127.935354 
L 509.496283 128.455043 
L 509.69864 135.675288 
L 510.103354 165.520514 
L 510.912783 235.086915 
L 511.317498 250.577262 
L 511.519855 250.815551 
L 511.722212 246.658129 
L 512.126927 228.18075 
L 512.936355 175.60115 
L 513.543427 122.913053 
L 513.948141 106.543709 
L 514.150499 105.55647 
L 514.352856 110.524644 
L 514.555213 118.877422 
L 514.959927 151.341467 
L 515.566999 209.650666 
L 515.971714 233.402481 
L 516.376428 244.492048 
L 516.578785 244.237357 
L 516.781142 240.195866 
L 517.185857 220.643971 
L 517.792928 176.797957 
L 518.4 119.011303 
L 518.4 119.011303 
" clip-path="url(#p58f51a59a9)" style="fill: none; stroke: #2ca02c; stroke-width: 1.5; stroke-linecap: square"/>
   </g>
   <g id="patch_3">
    <path d="M 72 320.4 
L 72 43.2 
" style="fill: none; stroke: #000000; stroke-width: 0.8; stroke-linejoin: miter; stroke-linecap: square"/>
   </g>
   <g id="patch_4">
    <path d="M 518.4 320.4 
L 518.4 43.2 
" style="fill: none; stroke: #000000; stroke-width: 0.8; stroke-linejoin: miter; stroke-linecap: square"/>
   </g>
   <g id="patch_5">
    <path d="M 72 320.4 
L 518.4 320.4 
" style="fill: none; stroke: #000000; stroke-width: 0.8; stroke-linejoin: miter; stroke-linecap: square"/>
   </g>
   <g id="patch_6">
    <path d="M 72 43.2 
L 518.4 43.2 
" style="fill: none; stroke: #000000; stroke-width: 0.8; stroke-linejoin: miter; stroke-linecap: square"/>
   </g>
   <g id="text_13">
    <!-- Classic Transformer - model_20231126163527 -->
    <g transform="translate(155.436563 37.2) scale(0.12 -0.12)">
     <defs>
      <path id="DejaVuSans-43" d="M 4122 4306 
L 4122 3641 
Q 3803 3938 3442 4084 
Q 3081 4231 2675 4231 
Q 1875 4231 1450 3742 
Q 1025 3253 1025 2328 
Q 1025 1406 1450 917 
Q 1875 428 2675 428 
Q 3081 428 3442 575 
Q 3803 722 4122 1019 
L 4122 359 
Q 3791 134 3420 21 
Q 3050 -91 2638 -91 
Q 1578 -91 968 557 
Q 359 1206 359 2328 
Q 359 3453 968 4101 
Q 1578 4750 2638 4750 
Q 3056 4750 3426 4639 
Q 3797 4528 4122 4306 
z
" transform="scale(0.015625)"/>
      <path id="DejaVuSans-6c" d="M 603 4863 
L 1178 4863 
L 1178 0 
L 603 0 
L 603 4863 
z
" transform="scale(0.015625)"/>
      <path id="DejaVuSans-61" d="M 2194 1759 
Q 1497 1759 1228 1600 
Q 959 1441 959 1056 
Q 959 750 1161 570 
Q 1363 391 1709 391 
Q 2188 391 2477 730 
Q 2766 1069 2766 1631 
L 2766 1759 
L 2194 1759 
z
M 3341 1997 
L 3341 0 
L 2766 0 
L 2766 531 
Q 2569 213 2275 61 
Q 1981 -91 1556 -91 
Q 1019 -91 701 211 
Q 384 513 384 1019 
Q 384 1609 779 1909 
Q 1175 2209 1959 2209 
L 2766 2209 
L 2766 2266 
Q 2766 2663 2505 2880 
Q 2244 3097 1772 3097 
Q 1472 3097 1187 3025 
Q 903 2953 641 2809 
L 641 3341 
Q 956 3463 1253 3523 
Q 1550 3584 1831 3584 
Q 2591 3584 2966 3190 
Q 3341 2797 3341 1997 
z
" transform="scale(0.015625)"/>
      <path id="DejaVuSans-73" d="M 2834 3397 
L 2834 2853 
Q 2591 2978 2328 3040 
Q 2066 3103 1784 3103 
Q 1356 3103 1142 2972 
Q 928 2841 928 2578 
Q 928 2378 1081 2264 
Q 1234 2150 1697 2047 
L 1894 2003 
Q 2506 1872 2764 1633 
Q 3022 1394 3022 966 
Q 3022 478 2636 193 
Q 2250 -91 1575 -91 
Q 1294 -91 989 -36 
Q 684 19 347 128 
L 347 722 
Q 666 556 975 473 
Q 1284 391 1588 391 
Q 1994 391 2212 530 
Q 2431 669 2431 922 
Q 2431 1156 2273 1281 
Q 2116 1406 1581 1522 
L 1381 1569 
Q 847 1681 609 1914 
Q 372 2147 372 2553 
Q 372 3047 722 3315 
Q 1072 3584 1716 3584 
Q 2034 3584 2315 3537 
Q 2597 3491 2834 3397 
z
" transform="scale(0.015625)"/>
      <path id="DejaVuSans-69" d="M 603 3500 
L 1178 3500 
L 1178 0 
L 603 0 
L 603 3500 
z
M 603 4863 
L 1178 4863 
L 1178 4134 
L 603 4134 
L 603 4863 
z
" transform="scale(0.015625)"/>
      <path id="DejaVuSans-63" d="M 3122 3366 
L 3122 2828 
Q 2878 2963 2633 3030 
Q 2388 3097 2138 3097 
Q 1578 3097 1268 2742 
Q 959 2388 959 1747 
Q 959 1106 1268 751 
Q 1578 397 2138 397 
Q 2388 397 2633 464 
Q 2878 531 3122 666 
L 3122 134 
Q 2881 22 2623 -34 
Q 2366 -91 2075 -91 
Q 1284 -91 818 406 
Q 353 903 353 1747 
Q 353 2603 823 3093 
Q 1294 3584 2113 3584 
Q 2378 3584 2631 3529 
Q 2884 3475 3122 3366 
z
" transform="scale(0.015625)"/>
      <path id="DejaVuSans-20" transform="scale(0.015625)"/>
      <path id="DejaVuSans-54" d="M -19 4666 
L 3928 4666 
L 3928 4134 
L 2272 4134 
L 2272 0 
L 1638 0 
L 1638 4134 
L -19 4134 
L -19 4666 
z
" transform="scale(0.015625)"/>
      <path id="DejaVuSans-72" d="M 2631 2963 
Q 2534 3019 2420 3045 
Q 2306 3072 2169 3072 
Q 1681 3072 1420 2755 
Q 1159 2438 1159 1844 
L 1159 0 
L 581 0 
L 581 3500 
L 1159 3500 
L 1159 2956 
Q 1341 3275 1631 3429 
Q 1922 3584 2338 3584 
Q 2397 3584 2469 3576 
Q 2541 3569 2628 3553 
L 2631 2963 
z
" transform="scale(0.015625)"/>
      <path id="DejaVuSans-6e" d="M 3513 2113 
L 3513 0 
L 2938 0 
L 2938 2094 
Q 2938 2591 2744 2837 
Q 2550 3084 2163 3084 
Q 1697 3084 1428 2787 
Q 1159 2491 1159 1978 
L 1159 0 
L 581 0 
L 581 3500 
L 1159 3500 
L 1159 2956 
Q 1366 3272 1645 3428 
Q 1925 3584 2291 3584 
Q 2894 3584 3203 3211 
Q 3513 2838 3513 2113 
z
" transform="scale(0.015625)"/>
      <path id="DejaVuSans-66" d="M 2375 4863 
L 2375 4384 
L 1825 4384 
Q 1516 4384 1395 4259 
Q 1275 4134 1275 3809 
L 1275 3500 
L 2222 3500 
L 2222 3053 
L 1275 3053 
L 1275 0 
L 697 0 
L 697 3053 
L 147 3053 
L 147 3500 
L 697 3500 
L 697 3744 
Q 697 4328 969 4595 
Q 1241 4863 1831 4863 
L 2375 4863 
z
" transform="scale(0.015625)"/>
      <path id="DejaVuSans-6f" d="M 1959 3097 
Q 1497 3097 1228 2736 
Q 959 2375 959 1747 
Q 959 1119 1226 758 
Q 1494 397 1959 397 
Q 2419 397 2687 759 
Q 2956 1122 2956 1747 
Q 2956 2369 2687 2733 
Q 2419 3097 1959 3097 
z
M 1959 3584 
Q 2709 3584 3137 3096 
Q 3566 2609 3566 1747 
Q 3566 888 3137 398 
Q 2709 -91 1959 -91 
Q 1206 -91 779 398 
Q 353 888 353 1747 
Q 353 2609 779 3096 
Q 1206 3584 1959 3584 
z
" transform="scale(0.015625)"/>
      <path id="DejaVuSans-6d" d="M 3328 2828 
Q 3544 3216 3844 3400 
Q 4144 3584 4550 3584 
Q 5097 3584 5394 3201 
Q 5691 2819 5691 2113 
L 5691 0 
L 5113 0 
L 5113 2094 
Q 5113 2597 4934 2840 
Q 4756 3084 4391 3084 
Q 3944 3084 3684 2787 
Q 3425 2491 3425 1978 
L 3425 0 
L 2847 0 
L 2847 2094 
Q 2847 2600 2669 2842 
Q 2491 3084 2119 3084 
Q 1678 3084 1418 2786 
Q 1159 2488 1159 1978 
L 1159 0 
L 581 0 
L 581 3500 
L 1159 3500 
L 1159 2956 
Q 1356 3278 1631 3431 
Q 1906 3584 2284 3584 
Q 2666 3584 2933 3390 
Q 3200 3197 3328 2828 
z
" transform="scale(0.015625)"/>
      <path id="DejaVuSans-65" d="M 3597 1894 
L 3597 1613 
L 953 1613 
Q 991 1019 1311 708 
Q 1631 397 2203 397 
Q 2534 397 2845 478 
Q 3156 559 3463 722 
L 3463 178 
Q 3153 47 2828 -22 
Q 2503 -91 2169 -91 
Q 1331 -91 842 396 
Q 353 884 353 1716 
Q 353 2575 817 3079 
Q 1281 3584 2069 3584 
Q 2775 3584 3186 3129 
Q 3597 2675 3597 1894 
z
M 3022 2063 
Q 3016 2534 2758 2815 
Q 2500 3097 2075 3097 
Q 1594 3097 1305 2825 
Q 1016 2553 972 2059 
L 3022 2063 
z
" transform="scale(0.015625)"/>
      <path id="DejaVuSans-64" d="M 2906 2969 
L 2906 4863 
L 3481 4863 
L 3481 0 
L 2906 0 
L 2906 525 
Q 2725 213 2448 61 
Q 2172 -91 1784 -91 
Q 1150 -91 751 415 
Q 353 922 353 1747 
Q 353 2572 751 3078 
Q 1150 3584 1784 3584 
Q 2172 3584 2448 3432 
Q 2725 3281 2906 2969 
z
M 947 1747 
Q 947 1113 1208 752 
Q 1469 391 1925 391 
Q 2381 391 2643 752 
Q 2906 1113 2906 1747 
Q 2906 2381 2643 2742 
Q 2381 3103 1925 3103 
Q 1469 3103 1208 2742 
Q 947 2381 947 1747 
z
" transform="scale(0.015625)"/>
      <path id="DejaVuSans-5f" d="M 3263 -1063 
L 3263 -1509 
L -63 -1509 
L -63 -1063 
L 3263 -1063 
z
" transform="scale(0.015625)"/>
     </defs>
     <use xlink:href="#DejaVuSans-43"/>
     <use xlink:href="#DejaVuSans-6c" x="69.824219"/>
     <use xlink:href="#DejaVuSans-61" x="97.607422"/>
     <use xlink:href="#DejaVuSans-73" x="158.886719"/>
     <use xlink:href="#DejaVuSans-73" x="210.986328"/>
     <use xlink:href="#DejaVuSans-69" x="263.085938"/>
     <use xlink:href="#DejaVuSans-63" x="290.869141"/>
     <use xlink:href="#DejaVuSans-20" x="345.849609"/>
     <use xlink:href="#DejaVuSans-54" x="377.636719"/>
     <use xlink:href="#DejaVuSans-72" x="423.970703"/>
     <use xlink:href="#DejaVuSans-61" x="465.083984"/>
     <use xlink:href="#DejaVuSans-6e" x="526.363281"/>
     <use xlink:href="#DejaVuSans-73" x="589.742188"/>
     <use xlink:href="#DejaVuSans-66" x="641.841797"/>
     <use xlink:href="#DejaVuSans-6f" x="677.046875"/>
     <use xlink:href="#DejaVuSans-72" x="738.228516"/>
     <use xlink:href="#DejaVuSans-6d" x="777.591797"/>
     <use xlink:href="#DejaVuSans-65" x="875.003906"/>
     <use xlink:href="#DejaVuSans-72" x="936.527344"/>
     <use xlink:href="#DejaVuSans-20" x="977.640625"/>
     <use xlink:href="#DejaVuSans-2d" x="1009.427734"/>
     <use xlink:href="#DejaVuSans-20" x="1045.511719"/>
     <use xlink:href="#DejaVuSans-6d" x="1077.298828"/>
     <use xlink:href="#DejaVuSans-6f" x="1174.710938"/>
     <use xlink:href="#DejaVuSans-64" x="1235.892578"/>
     <use xlink:href="#DejaVuSans-65" x="1299.369141"/>
     <use xlink:href="#DejaVuSans-6c" x="1360.892578"/>
     <use xlink:href="#DejaVuSans-5f" x="1388.675781"/>
     <use xlink:href="#DejaVuSans-32" x="1438.675781"/>
     <use xlink:href="#DejaVuSans-30" x="1502.298828"/>
     <use xlink:href="#DejaVuSans-32" x="1565.921875"/>
     <use xlink:href="#DejaVuSans-33" x="1629.544922"/>
     <use xlink:href="#DejaVuSans-31" x="1693.167969"/>
     <use xlink:href="#DejaVuSans-31" x="1756.791016"/>
     <use xlink:href="#DejaVuSans-32" x="1820.414062"/>
     <use xlink:href="#DejaVuSans-36" x="1884.037109"/>
     <use xlink:href="#DejaVuSans-31" x="1947.660156"/>
     <use xlink:href="#DejaVuSans-36" x="2011.283203"/>
     <use xlink:href="#DejaVuSans-33" x="2074.90625"/>
     <use xlink:href="#DejaVuSans-35" x="2138.529297"/>
     <use xlink:href="#DejaVuSans-32" x="2202.152344"/>
     <use xlink:href="#DejaVuSans-37" x="2265.775391"/>
    </g>
   </g>
   <g id="legend_1">
    <g id="patch_7">
     <path d="M 79 95.234375 
L 161.517188 95.234375 
Q 163.517188 95.234375 163.517188 93.234375 
L 163.517188 50.2 
Q 163.517188 48.2 161.517188 48.2 
L 79 48.2 
Q 77 48.2 77 50.2 
L 77 93.234375 
Q 77 95.234375 79 95.234375 
z
" style="fill: #ffffff; opacity: 0.8; stroke: #cccccc; stroke-linejoin: miter"/>
    </g>
    <g id="line2d_16">
     <path d="M 81 56.298437 
L 91 56.298437 
L 101 56.298437 
" style="fill: none; stroke: #1f77b4; stroke-width: 1.5; stroke-linecap: square"/>
    </g>
    <g id="text_14">
     <!-- Measured -->
     <g transform="translate(109 59.798437) scale(0.1 -0.1)">
      <defs>
       <path id="DejaVuSans-4d" d="M 628 4666 
L 1569 4666 
L 2759 1491 
L 3956 4666 
L 4897 4666 
L 4897 0 
L 4281 0 
L 4281 4097 
L 3078 897 
L 2444 897 
L 1241 4097 
L 1241 0 
L 628 0 
L 628 4666 
z
" transform="scale(0.015625)"/>
       <path id="DejaVuSans-75" d="M 544 1381 
L 544 3500 
L 1119 3500 
L 1119 1403 
Q 1119 906 1312 657 
Q 1506 409 1894 409 
Q 2359 409 2629 706 
Q 2900 1003 2900 1516 
L 2900 3500 
L 3475 3500 
L 3475 0 
L 2900 0 
L 2900 538 
Q 2691 219 2414 64 
Q 2138 -91 1772 -91 
Q 1169 -91 856 284 
Q 544 659 544 1381 
z
M 1991 3584 
L 1991 3584 
z
" transform="scale(0.015625)"/>
      </defs>
      <use xlink:href="#DejaVuSans-4d"/>
      <use xlink:href="#DejaVuSans-65" x="86.279297"/>
      <use xlink:href="#DejaVuSans-61" x="147.802734"/>
      <use xlink:href="#DejaVuSans-73" x="209.082031"/>
      <use xlink:href="#DejaVuSans-75" x="261.181641"/>
      <use xlink:href="#DejaVuSans-72" x="324.560547"/>
      <use xlink:href="#DejaVuSans-65" x="363.423828"/>
      <use xlink:href="#DejaVuSans-64" x="424.947266"/>
     </g>
    </g>
    <g id="line2d_17">
     <path d="M 81 70.976562 
L 91 70.976562 
L 101 70.976562 
" style="fill: none; stroke: #ff7f0e; stroke-width: 1.5; stroke-linecap: square"/>
    </g>
    <g id="text_15">
     <!-- Fitted -->
     <g transform="translate(109 74.476562) scale(0.1 -0.1)">
      <defs>
       <path id="DejaVuSans-46" d="M 628 4666 
L 3309 4666 
L 3309 4134 
L 1259 4134 
L 1259 2759 
L 3109 2759 
L 3109 2228 
L 1259 2228 
L 1259 0 
L 628 0 
L 628 4666 
z
" transform="scale(0.015625)"/>
       <path id="DejaVuSans-74" d="M 1172 4494 
L 1172 3500 
L 2356 3500 
L 2356 3053 
L 1172 3053 
L 1172 1153 
Q 1172 725 1289 603 
Q 1406 481 1766 481 
L 2356 481 
L 2356 0 
L 1766 0 
Q 1100 0 847 248 
Q 594 497 594 1153 
L 594 3053 
L 172 3053 
L 172 3500 
L 594 3500 
L 594 4494 
L 1172 4494 
z
" transform="scale(0.015625)"/>
      </defs>
      <use xlink:href="#DejaVuSans-46"/>
      <use xlink:href="#DejaVuSans-69" x="50.269531"/>
      <use xlink:href="#DejaVuSans-74" x="78.052734"/>
      <use xlink:href="#DejaVuSans-74" x="117.261719"/>
      <use xlink:href="#DejaVuSans-65" x="156.470703"/>
      <use xlink:href="#DejaVuSans-64" x="217.994141"/>
     </g>
    </g>
    <g id="line2d_18">
     <path d="M 81 85.654687 
L 91 85.654687 
L 101 85.654687 
" style="fill: none; stroke: #2ca02c; stroke-width: 1.5; stroke-linecap: square"/>
    </g>
    <g id="text_16">
     <!-- Estimated -->
     <g transform="translate(109 89.154687) scale(0.1 -0.1)">
      <defs>
       <path id="DejaVuSans-45" d="M 628 4666 
L 3578 4666 
L 3578 4134 
L 1259 4134 
L 1259 2753 
L 3481 2753 
L 3481 2222 
L 1259 2222 
L 1259 531 
L 3634 531 
L 3634 0 
L 628 0 
L 628 4666 
z
" transform="scale(0.015625)"/>
      </defs>
      <use xlink:href="#DejaVuSans-45"/>
      <use xlink:href="#DejaVuSans-73" x="63.183594"/>
      <use xlink:href="#DejaVuSans-74" x="115.283203"/>
      <use xlink:href="#DejaVuSans-69" x="154.492188"/>
      <use xlink:href="#DejaVuSans-6d" x="182.275391"/>
      <use xlink:href="#DejaVuSans-61" x="279.6875"/>
      <use xlink:href="#DejaVuSans-74" x="340.966797"/>
      <use xlink:href="#DejaVuSans-65" x="380.175781"/>
      <use xlink:href="#DejaVuSans-64" x="441.699219"/>
     </g>
    </g>
   </g>
  </g>
 </g>
 <defs>
  <clipPath id="p58f51a59a9">
   <rect x="72" y="43.2" width="446.4" height="277.2"/>
  </clipPath>
 </defs>
</svg>
