<?xml version="1.0" encoding="utf-8" standalone="no"?>
<!DOCTYPE svg PUBLIC "-//W3C//DTD SVG 1.1//EN"
  "http://www.w3.org/Graphics/SVG/1.1/DTD/svg11.dtd">
<svg xmlns:xlink="http://www.w3.org/1999/xlink" width="576pt" height="360pt" viewBox="0 0 576 360" xmlns="http://www.w3.org/2000/svg" version="1.1">
 <metadata>
  <rdf:RDF xmlns:dc="http://purl.org/dc/elements/1.1/" xmlns:cc="http://creativecommons.org/ns#" xmlns:rdf="http://www.w3.org/1999/02/22-rdf-syntax-ns#">
   <cc:Work>
    <dc:type rdf:resource="http://purl.org/dc/dcmitype/StillImage"/>
    <dc:date>2023-11-26T17:00:09.224982</dc:date>
    <dc:format>image/svg+xml</dc:format>
    <dc:creator>
     <cc:Agent>
      <dc:title>Matplotlib v3.8.1, https://matplotlib.org/</dc:title>
     </cc:Agent>
    </dc:creator>
   </cc:Work>
  </rdf:RDF>
 </metadata>
 <defs>
  <style type="text/css">*{stroke-linejoin: round; stroke-linecap: butt}</style>
 </defs>
 <g id="figure_1">
  <g id="patch_1">
   <path d="M 0 360 
L 576 360 
L 576 0 
L 0 0 
z
" style="fill: #ffffff"/>
  </g>
  <g id="axes_1">
   <g id="patch_2">
    <path d="M 72 320.4 
L 518.4 320.4 
L 518.4 43.2 
L 72 43.2 
z
" style="fill: #ffffff"/>
   </g>
   <g id="matplotlib.axis_1">
    <g id="xtick_1">
     <g id="line2d_1">
      <defs>
       <path id="mdb9618027d" d="M 0 0 
L 0 3.5 
" style="stroke: #000000; stroke-width: 0.8"/>
      </defs>
      <g>
       <use xlink:href="#mdb9618027d" x="129.874161" y="320.4" style="stroke: #000000; stroke-width: 0.8"/>
      </g>
     </g>
     <g id="text_1">
      <!-- 2020-05-15 -->
      <g transform="translate(100.816349 334.998438) scale(0.1 -0.1)">
       <defs>
        <path id="DejaVuSans-32" d="M 1228 531 
L 3431 531 
L 3431 0 
L 469 0 
L 469 531 
Q 828 903 1448 1529 
Q 2069 2156 2228 2338 
Q 2531 2678 2651 2914 
Q 2772 3150 2772 3378 
Q 2772 3750 2511 3984 
Q 2250 4219 1831 4219 
Q 1534 4219 1204 4116 
Q 875 4013 500 3803 
L 500 4441 
Q 881 4594 1212 4672 
Q 1544 4750 1819 4750 
Q 2544 4750 2975 4387 
Q 3406 4025 3406 3419 
Q 3406 3131 3298 2873 
Q 3191 2616 2906 2266 
Q 2828 2175 2409 1742 
Q 1991 1309 1228 531 
z
" transform="scale(0.015625)"/>
        <path id="DejaVuSans-30" d="M 2034 4250 
Q 1547 4250 1301 3770 
Q 1056 3291 1056 2328 
Q 1056 1369 1301 889 
Q 1547 409 2034 409 
Q 2525 409 2770 889 
Q 3016 1369 3016 2328 
Q 3016 3291 2770 3770 
Q 2525 4250 2034 4250 
z
M 2034 4750 
Q 2819 4750 3233 4129 
Q 3647 3509 3647 2328 
Q 3647 1150 3233 529 
Q 2819 -91 2034 -91 
Q 1250 -91 836 529 
Q 422 1150 422 2328 
Q 422 3509 836 4129 
Q 1250 4750 2034 4750 
z
" transform="scale(0.015625)"/>
        <path id="DejaVuSans-2d" d="M 313 2009 
L 1997 2009 
L 1997 1497 
L 313 1497 
L 313 2009 
z
" transform="scale(0.015625)"/>
        <path id="DejaVuSans-35" d="M 691 4666 
L 3169 4666 
L 3169 4134 
L 1269 4134 
L 1269 2991 
Q 1406 3038 1543 3061 
Q 1681 3084 1819 3084 
Q 2600 3084 3056 2656 
Q 3513 2228 3513 1497 
Q 3513 744 3044 326 
Q 2575 -91 1722 -91 
Q 1428 -91 1123 -41 
Q 819 9 494 109 
L 494 744 
Q 775 591 1075 516 
Q 1375 441 1709 441 
Q 2250 441 2565 725 
Q 2881 1009 2881 1497 
Q 2881 1984 2565 2268 
Q 2250 2553 1709 2553 
Q 1456 2553 1204 2497 
Q 953 2441 691 2322 
L 691 4666 
z
" transform="scale(0.015625)"/>
        <path id="DejaVuSans-31" d="M 794 531 
L 1825 531 
L 1825 4091 
L 703 3866 
L 703 4441 
L 1819 4666 
L 2450 4666 
L 2450 531 
L 3481 531 
L 3481 0 
L 794 0 
L 794 531 
z
" transform="scale(0.015625)"/>
       </defs>
       <use xlink:href="#DejaVuSans-32"/>
       <use xlink:href="#DejaVuSans-30" x="63.623047"/>
       <use xlink:href="#DejaVuSans-32" x="127.246094"/>
       <use xlink:href="#DejaVuSans-30" x="190.869141"/>
       <use xlink:href="#DejaVuSans-2d" x="254.492188"/>
       <use xlink:href="#DejaVuSans-30" x="290.576172"/>
       <use xlink:href="#DejaVuSans-35" x="354.199219"/>
       <use xlink:href="#DejaVuSans-2d" x="417.822266"/>
       <use xlink:href="#DejaVuSans-31" x="453.90625"/>
       <use xlink:href="#DejaVuSans-35" x="517.529297"/>
      </g>
     </g>
    </g>
    <g id="xtick_2">
     <g id="line2d_2">
      <g>
       <use xlink:href="#mdb9618027d" x="212.435902" y="320.4" style="stroke: #000000; stroke-width: 0.8"/>
      </g>
     </g>
     <g id="text_2">
      <!-- 2020-06-01 -->
      <g transform="translate(183.37809 334.998438) scale(0.1 -0.1)">
       <defs>
        <path id="DejaVuSans-36" d="M 2113 2584 
Q 1688 2584 1439 2293 
Q 1191 2003 1191 1497 
Q 1191 994 1439 701 
Q 1688 409 2113 409 
Q 2538 409 2786 701 
Q 3034 994 3034 1497 
Q 3034 2003 2786 2293 
Q 2538 2584 2113 2584 
z
M 3366 4563 
L 3366 3988 
Q 3128 4100 2886 4159 
Q 2644 4219 2406 4219 
Q 1781 4219 1451 3797 
Q 1122 3375 1075 2522 
Q 1259 2794 1537 2939 
Q 1816 3084 2150 3084 
Q 2853 3084 3261 2657 
Q 3669 2231 3669 1497 
Q 3669 778 3244 343 
Q 2819 -91 2113 -91 
Q 1303 -91 875 529 
Q 447 1150 447 2328 
Q 447 3434 972 4092 
Q 1497 4750 2381 4750 
Q 2619 4750 2861 4703 
Q 3103 4656 3366 4563 
z
" transform="scale(0.015625)"/>
       </defs>
       <use xlink:href="#DejaVuSans-32"/>
       <use xlink:href="#DejaVuSans-30" x="63.623047"/>
       <use xlink:href="#DejaVuSans-32" x="127.246094"/>
       <use xlink:href="#DejaVuSans-30" x="190.869141"/>
       <use xlink:href="#DejaVuSans-2d" x="254.492188"/>
       <use xlink:href="#DejaVuSans-30" x="290.576172"/>
       <use xlink:href="#DejaVuSans-36" x="354.199219"/>
       <use xlink:href="#DejaVuSans-2d" x="417.822266"/>
       <use xlink:href="#DejaVuSans-30" x="453.90625"/>
       <use xlink:href="#DejaVuSans-31" x="517.529297"/>
      </g>
     </g>
    </g>
    <g id="xtick_3">
     <g id="line2d_3">
      <g>
       <use xlink:href="#mdb9618027d" x="280.427924" y="320.4" style="stroke: #000000; stroke-width: 0.8"/>
      </g>
     </g>
     <g id="text_3">
      <!-- 2020-06-15 -->
      <g transform="translate(251.370111 334.998438) scale(0.1 -0.1)">
       <use xlink:href="#DejaVuSans-32"/>
       <use xlink:href="#DejaVuSans-30" x="63.623047"/>
       <use xlink:href="#DejaVuSans-32" x="127.246094"/>
       <use xlink:href="#DejaVuSans-30" x="190.869141"/>
       <use xlink:href="#DejaVuSans-2d" x="254.492188"/>
       <use xlink:href="#DejaVuSans-30" x="290.576172"/>
       <use xlink:href="#DejaVuSans-36" x="354.199219"/>
       <use xlink:href="#DejaVuSans-2d" x="417.822266"/>
       <use xlink:href="#DejaVuSans-31" x="453.90625"/>
       <use xlink:href="#DejaVuSans-35" x="517.529297"/>
      </g>
     </g>
    </g>
    <g id="xtick_4">
     <g id="line2d_4">
      <g>
       <use xlink:href="#mdb9618027d" x="358.133092" y="320.4" style="stroke: #000000; stroke-width: 0.8"/>
      </g>
     </g>
     <g id="text_4">
      <!-- 2020-07-01 -->
      <g transform="translate(329.075279 334.998438) scale(0.1 -0.1)">
       <defs>
        <path id="DejaVuSans-37" d="M 525 4666 
L 3525 4666 
L 3525 4397 
L 1831 0 
L 1172 0 
L 2766 4134 
L 525 4134 
L 525 4666 
z
" transform="scale(0.015625)"/>
       </defs>
       <use xlink:href="#DejaVuSans-32"/>
       <use xlink:href="#DejaVuSans-30" x="63.623047"/>
       <use xlink:href="#DejaVuSans-32" x="127.246094"/>
       <use xlink:href="#DejaVuSans-30" x="190.869141"/>
       <use xlink:href="#DejaVuSans-2d" x="254.492188"/>
       <use xlink:href="#DejaVuSans-30" x="290.576172"/>
       <use xlink:href="#DejaVuSans-37" x="354.199219"/>
       <use xlink:href="#DejaVuSans-2d" x="417.822266"/>
       <use xlink:href="#DejaVuSans-30" x="453.90625"/>
       <use xlink:href="#DejaVuSans-31" x="517.529297"/>
      </g>
     </g>
    </g>
    <g id="xtick_5">
     <g id="line2d_5">
      <g>
       <use xlink:href="#mdb9618027d" x="426.125113" y="320.4" style="stroke: #000000; stroke-width: 0.8"/>
      </g>
     </g>
     <g id="text_5">
      <!-- 2020-07-15 -->
      <g transform="translate(397.067301 334.998438) scale(0.1 -0.1)">
       <use xlink:href="#DejaVuSans-32"/>
       <use xlink:href="#DejaVuSans-30" x="63.623047"/>
       <use xlink:href="#DejaVuSans-32" x="127.246094"/>
       <use xlink:href="#DejaVuSans-30" x="190.869141"/>
       <use xlink:href="#DejaVuSans-2d" x="254.492188"/>
       <use xlink:href="#DejaVuSans-30" x="290.576172"/>
       <use xlink:href="#DejaVuSans-37" x="354.199219"/>
       <use xlink:href="#DejaVuSans-2d" x="417.822266"/>
       <use xlink:href="#DejaVuSans-31" x="453.90625"/>
       <use xlink:href="#DejaVuSans-35" x="517.529297"/>
      </g>
     </g>
    </g>
    <g id="xtick_6">
     <g id="line2d_6">
      <g>
       <use xlink:href="#mdb9618027d" x="508.686854" y="320.4" style="stroke: #000000; stroke-width: 0.8"/>
      </g>
     </g>
     <g id="text_6">
      <!-- 2020-08-01 -->
      <g transform="translate(479.629042 334.998438) scale(0.1 -0.1)">
       <defs>
        <path id="DejaVuSans-38" d="M 2034 2216 
Q 1584 2216 1326 1975 
Q 1069 1734 1069 1313 
Q 1069 891 1326 650 
Q 1584 409 2034 409 
Q 2484 409 2743 651 
Q 3003 894 3003 1313 
Q 3003 1734 2745 1975 
Q 2488 2216 2034 2216 
z
M 1403 2484 
Q 997 2584 770 2862 
Q 544 3141 544 3541 
Q 544 4100 942 4425 
Q 1341 4750 2034 4750 
Q 2731 4750 3128 4425 
Q 3525 4100 3525 3541 
Q 3525 3141 3298 2862 
Q 3072 2584 2669 2484 
Q 3125 2378 3379 2068 
Q 3634 1759 3634 1313 
Q 3634 634 3220 271 
Q 2806 -91 2034 -91 
Q 1263 -91 848 271 
Q 434 634 434 1313 
Q 434 1759 690 2068 
Q 947 2378 1403 2484 
z
M 1172 3481 
Q 1172 3119 1398 2916 
Q 1625 2713 2034 2713 
Q 2441 2713 2670 2916 
Q 2900 3119 2900 3481 
Q 2900 3844 2670 4047 
Q 2441 4250 2034 4250 
Q 1625 4250 1398 4047 
Q 1172 3844 1172 3481 
z
" transform="scale(0.015625)"/>
       </defs>
       <use xlink:href="#DejaVuSans-32"/>
       <use xlink:href="#DejaVuSans-30" x="63.623047"/>
       <use xlink:href="#DejaVuSans-32" x="127.246094"/>
       <use xlink:href="#DejaVuSans-30" x="190.869141"/>
       <use xlink:href="#DejaVuSans-2d" x="254.492188"/>
       <use xlink:href="#DejaVuSans-30" x="290.576172"/>
       <use xlink:href="#DejaVuSans-38" x="354.199219"/>
       <use xlink:href="#DejaVuSans-2d" x="417.822266"/>
       <use xlink:href="#DejaVuSans-30" x="453.90625"/>
       <use xlink:href="#DejaVuSans-31" x="517.529297"/>
      </g>
     </g>
    </g>
   </g>
   <g id="matplotlib.axis_2">
    <g id="ytick_1">
     <g id="line2d_7">
      <defs>
       <path id="m543eefd28b" d="M 0 0 
L -3.5 0 
" style="stroke: #000000; stroke-width: 0.8"/>
      </defs>
      <g>
       <use xlink:href="#m543eefd28b" x="72" y="316.02311" style="stroke: #000000; stroke-width: 0.8"/>
      </g>
     </g>
     <g id="text_7">
      <!-- −2 -->
      <g transform="translate(50.257812 319.822329) scale(0.1 -0.1)">
       <defs>
        <path id="DejaVuSans-2212" d="M 678 2272 
L 4684 2272 
L 4684 1741 
L 678 1741 
L 678 2272 
z
" transform="scale(0.015625)"/>
       </defs>
       <use xlink:href="#DejaVuSans-2212"/>
       <use xlink:href="#DejaVuSans-32" x="83.789062"/>
      </g>
     </g>
    </g>
    <g id="ytick_2">
     <g id="line2d_8">
      <g>
       <use xlink:href="#m543eefd28b" x="72" y="262.270962" style="stroke: #000000; stroke-width: 0.8"/>
      </g>
     </g>
     <g id="text_8">
      <!-- −1 -->
      <g transform="translate(50.257812 266.070181) scale(0.1 -0.1)">
       <use xlink:href="#DejaVuSans-2212"/>
       <use xlink:href="#DejaVuSans-31" x="83.789062"/>
      </g>
     </g>
    </g>
    <g id="ytick_3">
     <g id="line2d_9">
      <g>
       <use xlink:href="#m543eefd28b" x="72" y="208.518814" style="stroke: #000000; stroke-width: 0.8"/>
      </g>
     </g>
     <g id="text_9">
      <!-- 0 -->
      <g transform="translate(58.6375 212.318032) scale(0.1 -0.1)">
       <use xlink:href="#DejaVuSans-30"/>
      </g>
     </g>
    </g>
    <g id="ytick_4">
     <g id="line2d_10">
      <g>
       <use xlink:href="#m543eefd28b" x="72" y="154.766666" style="stroke: #000000; stroke-width: 0.8"/>
      </g>
     </g>
     <g id="text_10">
      <!-- 1 -->
      <g transform="translate(58.6375 158.565884) scale(0.1 -0.1)">
       <use xlink:href="#DejaVuSans-31"/>
      </g>
     </g>
    </g>
    <g id="ytick_5">
     <g id="line2d_11">
      <g>
       <use xlink:href="#m543eefd28b" x="72" y="101.014518" style="stroke: #000000; stroke-width: 0.8"/>
      </g>
     </g>
     <g id="text_11">
      <!-- 2 -->
      <g transform="translate(58.6375 104.813736) scale(0.1 -0.1)">
       <use xlink:href="#DejaVuSans-32"/>
      </g>
     </g>
    </g>
    <g id="ytick_6">
     <g id="line2d_12">
      <g>
       <use xlink:href="#m543eefd28b" x="72" y="47.262369" style="stroke: #000000; stroke-width: 0.8"/>
      </g>
     </g>
     <g id="text_12">
      <!-- 3 -->
      <g transform="translate(58.6375 51.061588) scale(0.1 -0.1)">
       <defs>
        <path id="DejaVuSans-33" d="M 2597 2516 
Q 3050 2419 3304 2112 
Q 3559 1806 3559 1356 
Q 3559 666 3084 287 
Q 2609 -91 1734 -91 
Q 1441 -91 1130 -33 
Q 819 25 488 141 
L 488 750 
Q 750 597 1062 519 
Q 1375 441 1716 441 
Q 2309 441 2620 675 
Q 2931 909 2931 1356 
Q 2931 1769 2642 2001 
Q 2353 2234 1838 2234 
L 1294 2234 
L 1294 2753 
L 1863 2753 
Q 2328 2753 2575 2939 
Q 2822 3125 2822 3475 
Q 2822 3834 2567 4026 
Q 2313 4219 1838 4219 
Q 1578 4219 1281 4162 
Q 984 4106 628 3988 
L 628 4550 
Q 988 4650 1302 4700 
Q 1616 4750 1894 4750 
Q 2613 4750 3031 4423 
Q 3450 4097 3450 3541 
Q 3450 3153 3228 2886 
Q 3006 2619 2597 2516 
z
" transform="scale(0.015625)"/>
       </defs>
       <use xlink:href="#DejaVuSans-33"/>
      </g>
     </g>
    </g>
   </g>
   <g id="line2d_13">
    <path d="M 72 287.021497 
L 72.404714 298.412757 
L 72.607072 296.682973 
L 72.809429 285.96675 
L 73.214143 254.915018 
L 73.618858 242.426821 
L 75.035358 159.101858 
L 75.237715 156.127474 
L 75.440073 161.211351 
L 75.64243 169.459468 
L 75.844787 172.771371 
L 76.047144 188.086288 
L 76.654216 258.669915 
L 77.05893 282.844701 
L 77.261287 287.232446 
L 77.463645 286.852737 
L 77.666002 276.094324 
L 78.070716 247.468508 
L 78.475431 234.938122 
L 78.677788 225.761828 
L 79.487217 168.510196 
L 79.891931 152.161627 
L 80.094288 154.123456 
L 80.903717 196.735208 
L 81.713146 272.423807 
L 82.11786 287.148066 
L 82.320218 289.194274 
L 82.522575 288.898945 
L 82.724932 286.367554 
L 82.927289 279.511703 
L 83.332004 256.412757 
L 83.736718 242.026017 
L 83.939075 238.967253 
L 84.141432 239.241487 
L 84.546147 245.675439 
L 84.748504 247.784932 
L 84.950861 247.806027 
L 85.355576 252.025013 
L 85.557933 248.670919 
L 85.76029 254.830638 
L 86.569719 300.015972 
L 86.772076 306.133501 
L 86.974433 307.736715 
L 87.176791 307.8 
L 87.379148 306.449925 
L 87.581505 302.695028 
L 87.783862 295.902461 
L 88.188577 273.731693 
L 88.390934 268.521246 
L 89.200363 260.399699 
L 89.40272 256.243998 
L 89.807434 241.372074 
L 90.212149 238.903968 
L 90.414506 236.182722 
L 90.616863 244.1777 
L 91.223935 295.037569 
L 91.628649 306.133501 
L 91.831006 306.196786 
L 92.033364 303.686489 
L 92.842792 257.277649 
L 93.04515 255.125967 
L 93.449864 246.477047 
L 93.652221 245.949674 
L 93.854578 242.996384 
L 94.056936 242.363536 
L 94.259293 239.72667 
L 94.46165 233.292717 
L 94.664007 230.423807 
L 94.866364 231.351984 
L 95.068722 234.516223 
L 95.271079 230.655851 
L 95.473436 240.823606 
L 96.080508 295.417278 
L 96.485222 304.677951 
L 96.687579 306.597589 
L 96.889937 302.230939 
L 97.699365 256.539327 
L 98.306437 245.970768 
L 98.508794 245.59106 
L 99.52058 224.242993 
L 99.722937 225.508689 
L 99.925295 229.896434 
L 100.127652 228.061175 
L 100.330009 238.27112 
L 100.937081 292.928076 
L 101.341795 305.268609 
L 101.544152 306.26007 
L 101.74651 302.526268 
L 101.948867 290.50216 
L 102.353581 260.294224 
L 102.555938 258.733199 
L 103.567724 240.844701 
L 104.377153 218.610648 
L 104.57951 219.897438 
L 104.781868 225.318835 
L 104.984225 225.29774 
L 105.186582 234.241989 
L 105.793654 289.763837 
L 106.198368 302.589553 
L 106.400725 304.361527 
L 106.603083 300.311301 
L 107.412511 254.11341 
L 107.614869 252.383626 
L 107.817226 248.692014 
L 108.22194 234.07323 
L 108.626655 212.23998 
L 108.829012 206.270116 
L 109.031369 204.371572 
L 109.638441 213.104872 
L 109.840798 218.568458 
L 110.043155 229.031542 
L 110.650227 284.405726 
L 111.054941 298.750276 
L 111.257298 300.669915 
L 111.459655 298.919036 
L 111.662013 287.443395 
L 112.066727 258.015972 
L 112.471442 242.933099 
L 113.887942 174.121447 
L 114.090299 171.73772 
L 114.292656 178.593571 
L 114.495014 190.090306 
L 114.697371 194.710095 
L 115.102085 228.926067 
L 115.709157 278.583526 
L 116.113871 292.611652 
L 116.316228 292.780412 
L 116.518586 291.113913 
L 116.720943 287.46449 
L 117.125657 260.06218 
L 118.542158 154.777398 
L 118.744515 144.609643 
L 118.946872 140.707082 
L 119.149229 144.398694 
L 119.756301 182.496133 
L 120.56573 262.319337 
L 120.970444 282.254043 
L 121.172801 286.367554 
L 121.375159 288.012958 
L 121.577516 286.557408 
L 121.779873 278.583526 
L 122.589302 227.280663 
L 123.196374 201.671421 
L 123.398731 197.072727 
L 123.601088 197.283677 
L 123.803445 196.714114 
L 124.410517 210.193772 
L 124.612874 221.226419 
L 125.219946 277.845203 
L 125.62466 292.463988 
L 125.827017 294.468006 
L 126.029374 291.91552 
L 127.04116 235.191261 
L 127.648232 197.557911 
L 128.255304 154.925063 
L 128.457661 147.330889 
L 128.660018 146.99337 
L 129.26709 191.588046 
L 130.278876 282.971271 
L 130.481233 290.839679 
L 130.68359 292.231944 
L 130.885947 289.637268 
L 132.504805 180.070216 
L 133.111877 137.142039 
L 133.314234 127.670417 
L 133.516591 129.379106 
L 133.921306 144.841688 
L 134.123663 152.309292 
L 135.135449 262.84671 
L 135.540163 275.545856 
L 135.74252 274.596585 
L 135.944878 263.943646 
L 136.349592 232.343446 
L 136.551949 225.529784 
L 136.754306 213.590055 
L 136.956664 218.188749 
L 137.159021 206.818584 
L 137.766092 197.937619 
L 137.96845 198.338423 
L 138.373164 192.895932 
L 138.777879 200.490105 
L 138.980236 201.333903 
L 139.182593 213.210347 
L 139.789665 270.187745 
L 140.194379 285.650326 
L 140.396736 287.738724 
L 140.599093 284.701055 
L 141.003808 254.303265 
L 141.408522 232.997388 
L 142.015594 219.51773 
L 142.622665 210.320342 
L 142.825023 210.046107 
L 143.02738 208.822602 
L 143.229737 209.518734 
L 143.634451 214.834656 
L 143.836809 213.590055 
L 144.039166 223.84219 
L 144.646238 273.499648 
L 145.050952 285.671421 
L 145.253309 286.979307 
L 145.455666 283.815068 
L 145.860381 253.965746 
L 146.062738 237.406228 
L 146.66981 220.825615 
L 146.872167 218.125465 
L 147.074524 217.028528 
L 147.479238 205.848217 
L 147.681596 214.370568 
L 147.883953 215.362029 
L 148.08631 217.998895 
L 148.491024 227.386138 
L 148.693382 226.014967 
L 149.098096 249.83114 
L 149.502811 278.203817 
L 149.907525 291.430337 
L 150.109882 293.518734 
L 150.312239 292.928076 
L 150.514597 290.059166 
L 150.716954 284.258061 
L 151.121668 263.036565 
L 151.526383 242.194776 
L 151.931097 236.288197 
L 152.133454 235.845203 
L 152.335811 237.849221 
L 152.538169 238.376595 
L 152.740526 236.288197 
L 152.942883 236.583526 
L 153.14524 235.592064 
L 153.347597 235.634254 
L 153.549955 232.659869 
L 153.752312 234.895932 
L 154.764098 287.253541 
L 154.966455 291.282672 
L 155.168812 292.696032 
L 155.573527 288.687996 
L 155.775884 277.423305 
L 156.78767 198.127474 
L 157.799456 154.756303 
L 158.001813 156.802511 
L 158.406528 170.23998 
L 158.608885 184.036062 
L 159.215956 253.881366 
L 159.620671 275.86228 
L 159.823028 279.131994 
L 160.025385 278.203817 
L 160.227743 268.225917 
L 160.632457 235.191261 
L 161.8466 183.993872 
L 162.251315 173.762833 
L 162.453672 173.910497 
L 162.656029 176.821597 
L 163.465458 209.20231 
L 164.072529 270.12446 
L 164.477244 289.067705 
L 164.679601 289.405224 
L 164.881958 286.114415 
L 165.084316 275.777901 
L 165.48903 243.439377 
L 166.500816 207.725665 
L 167.310245 164.038071 
L 167.512602 167.45545 
L 167.917316 188.402712 
L 168.119674 192.938122 
L 168.322031 204.498142 
L 168.929102 264.977298 
L 169.333817 280.439879 
L 169.536174 284.026017 
L 169.738531 280.292215 
L 170.143246 252.510196 
L 170.54796 221.648317 
L 171.357389 176.273129 
L 171.559746 170.134505 
L 172.166818 145.49563 
L 172.369175 147.141035 
L 172.571532 155.199297 
L 173.178604 194.878855 
L 173.785675 267.25555 
L 174.19039 287.000402 
L 174.392747 290.038071 
L 174.595104 288.181718 
L 174.999819 263.542843 
L 175.404533 238.081266 
L 177.023391 158.405726 
L 177.225748 158.933099 
L 177.428105 162.92004 
L 177.630462 179.817077 
L 177.83282 182.306278 
L 178.237534 227.238473 
L 178.642248 270.947162 
L 179.046963 290.50216 
L 179.24932 294.299247 
L 179.451677 291.725665 
L 179.654034 282.865796 
L 180.261106 242.258061 
L 181.879964 143.449422 
L 182.082321 140.116424 
L 182.284678 145.896434 
L 183.094107 203.316826 
L 183.498821 243.080763 
L 183.903536 264.956203 
L 184.30825 272.95118 
L 184.510607 274.343446 
L 184.712965 270.630738 
L 184.915322 256.98232 
L 185.724751 173.340934 
L 186.129465 151.52878 
L 186.331822 145.347966 
L 186.53418 144.567454 
L 186.736537 147.16213 
L 187.748323 188.423807 
L 188.557752 253.923556 
L 188.962466 268.394676 
L 189.164823 270.483074 
L 189.36718 270.567454 
L 189.569538 269.808036 
L 189.771895 258.796484 
L 190.986038 160.810547 
L 191.188395 155.389151 
L 191.390752 155.346961 
L 191.795467 164.692014 
L 192.604896 196.671924 
L 193.414325 261.370065 
L 193.819039 275.377097 
L 194.021396 276.474033 
L 194.426111 272.423807 
L 194.628468 263.268609 
L 195.437897 201.017479 
L 195.640254 195.891411 
L 195.842611 197.136012 
L 196.247325 203.337921 
L 196.449683 203.928579 
L 196.65204 203.527775 
L 197.056754 211.923556 
L 197.259112 212.788448 
L 197.461469 221.395178 
L 198.06854 270.841688 
L 198.473255 285.354997 
L 198.675612 285.460472 
L 198.877969 281.72667 
L 199.282684 250.231944 
L 199.687398 226.879859 
L 201.306256 158.933099 
L 201.508613 157.751783 
L 202.115684 177.39116 
L 202.318042 188.803516 
L 202.925113 254.366549 
L 203.329828 272.423807 
L 203.532185 274.57549 
L 203.734542 271.516725 
L 203.936899 259.724661 
L 204.341614 224.939126 
L 205.758114 168.995379 
L 205.960471 166.442893 
L 206.162829 166.590558 
L 206.365186 168.046107 
L 206.7699 180.175691 
L 206.972257 183.445404 
L 207.174615 194.541336 
L 207.781686 254.978302 
L 208.186401 271.516725 
L 208.388758 274.638774 
L 208.591115 271.221396 
L 208.793472 259.070718 
L 209.198187 224.475038 
L 209.805258 201.671421 
L 210.209973 181.314817 
L 210.817044 138.639779 
L 211.019402 129.948669 
L 211.221759 132.986339 
L 211.626473 158.047112 
L 211.82883 163.384129 
L 212.031188 178.467002 
L 212.638259 245.063687 
L 213.042974 264.091311 
L 213.245331 268.183727 
L 213.447688 266.432848 
L 213.650045 255.463486 
L 214.257117 211.164139 
L 214.661831 184.183727 
L 215.47126 123.409242 
L 215.875975 106.280161 
L 216.078332 105.794977 
L 216.280689 111.469513 
L 217.090118 176.779407 
L 217.697189 240.190758 
L 218.101904 259.091813 
L 218.304261 262.530286 
L 218.506618 263.922551 
L 218.708976 262.635761 
L 218.911333 249.599096 
L 219.518404 193.48659 
L 220.125476 157.435359 
L 220.327833 155.220392 
L 220.53019 157.498644 
L 221.541976 200.827624 
L 221.744334 206.101356 
L 222.553762 264.365545 
L 222.958477 275.503666 
L 223.160834 277.254545 
L 223.363191 277.613159 
L 223.565549 276.009945 
L 223.767906 267.086791 
L 224.374977 227.955701 
L 224.779692 220.192767 
L 225.386763 222.30226 
L 225.589121 225.909493 
L 225.791478 226.816575 
L 226.196192 235.40221 
L 226.398549 235.043596 
L 226.600907 241.625213 
L 227.410335 296.535309 
L 227.612693 300.669915 
L 227.81505 302.399699 
L 228.017407 299.129985 
L 228.826836 255.505676 
L 229.029193 253.121949 
L 229.23155 247.236464 
L 230.648051 182.285183 
L 230.850408 182.875841 
L 231.255122 197.64229 
L 231.45748 208.801507 
L 232.064551 274.027022 
L 232.469266 291.620191 
L 232.671623 294.404721 
L 232.87398 293.160121 
L 233.278694 267.25555 
L 233.683409 244.1777 
L 235.302267 178.024008 
L 235.504624 177.412255 
L 236.111695 196.988348 
L 236.314053 207.599096 
L 236.921124 271.242491 
L 237.325839 287.50668 
L 237.528196 290.713109 
L 237.730553 288.540331 
L 238.135267 264.006931 
L 238.539982 241.688498 
L 239.349411 210.003918 
L 239.754125 199.751783 
L 240.15884 189.288699 
L 240.361197 189.03556 
L 240.563554 194.625716 
L 240.968268 212.661878 
L 241.170626 220.424812 
L 241.777697 277.31783 
L 242.182412 293.560924 
L 242.384769 296.11341 
L 242.587126 293.054646 
L 242.99184 267.740733 
L 243.396555 249.345957 
L 245.21777 172.876846 
L 245.420127 177.222401 
L 246.027199 204.666901 
L 246.836627 279.933601 
L 247.038985 288.498142 
L 247.241342 291.74676 
L 247.443699 289.152084 
L 247.848413 265.019488 
L 249.467271 150.305274 
L 249.669628 142.036062 
L 249.871985 140.053139 
L 250.074343 140.221899 
L 250.2767 147.330889 
L 250.883772 180.21788 
L 251.6932 257.003415 
L 252.097915 271.875339 
L 252.300272 275.018483 
L 252.502629 275.292717 
L 252.704986 271.326871 
L 253.109701 237.785937 
L 253.91913 162.814566 
L 254.323844 146.634756 
L 254.728558 137.606128 
L 254.930916 136.319337 
L 255.133273 143.997891 
L 255.740345 182.369563 
L 256.549773 259.387142 
L 256.954488 275.229432 
L 257.156845 279.131994 
L 257.359202 280.840683 
L 257.561559 279.849221 
L 257.966274 250.274134 
L 258.573345 198.675942 
L 258.97806 176.484078 
L 259.382774 165.198292 
L 259.585131 161.675439 
L 259.787489 161.232446 
L 259.989846 163.911502 
L 260.39456 180.281165 
L 260.596917 193.950678 
L 261.203989 257.425314 
L 261.608704 276.579508 
L 261.811061 279.574987 
L 262.013418 278.77338 
L 262.418132 254.23998 
L 262.62049 241.941637 
L 263.025204 232.048117 
L 263.227561 229.179206 
L 263.429918 228.145555 
L 263.834633 229.45344 
L 264.03699 229.137017 
L 264.239347 230.107383 
L 264.441704 230.191763 
L 264.644062 229.917529 
L 264.846419 232.005927 
L 265.048776 236.140532 
L 265.251133 236.140532 
L 265.45349 240.254043 
L 266.060562 283.730688 
L 266.465277 296.872828 
L 266.667634 298.454947 
L 266.869991 294.172677 
L 267.072348 286.030035 
L 267.477063 258.901959 
L 268.084134 236.203817 
L 268.488849 225.677449 
L 269.09592 214.159618 
L 269.500635 210.109392 
L 269.702992 212.345455 
L 269.905349 216.037067 
L 270.107706 216.733199 
L 270.310063 223.188247 
L 270.917135 273.204319 
L 271.32185 285.460472 
L 271.524207 287.654345 
L 271.726564 285.903466 
L 274.15485 140.960221 
L 274.357208 133.619186 
L 274.559565 137.036565 
L 275.166636 162.793471 
L 275.976065 246.308287 
L 276.38078 259.176193 
L 276.583137 258.458965 
L 276.987851 236.098343 
L 277.392566 206.50216 
L 278.404352 148.195781 
L 278.606709 145.073732 
L 279.011423 131.530789 
L 279.213781 129.885384 
L 279.416138 134.252034 
L 280.023209 176.969262 
L 280.630281 250.020994 
L 281.034995 273.351984 
L 281.237353 278.351482 
L 281.43971 276.769362 
L 281.642067 270.736213 
L 282.249139 227.976796 
L 282.85621 193.52878 
L 283.867996 149.714616 
L 284.070354 148.49111 
L 284.272711 156.844701 
L 285.284497 241.920542 
L 285.689211 274.870819 
L 286.093926 289.974787 
L 286.296283 292.316323 
L 286.49864 290.45997 
L 286.700997 287.443395 
L 287.105712 255.674435 
L 287.712783 202.873832 
L 288.522212 158.384631 
L 288.724569 151.085786 
L 288.926927 149.102863 
L 289.129284 152.77338 
L 289.736355 187.411251 
L 290.545784 259.197288 
L 290.950499 274.849724 
L 291.152856 277.697539 
L 291.355213 277.781919 
L 291.55757 276.263084 
L 291.759927 263.479558 
L 292.771714 162.392667 
L 293.176428 139.863285 
L 293.581142 128.345455 
L 293.7835 126.573481 
L 293.985857 130.180713 
L 294.592928 156.338423 
L 295.402357 241.667403 
L 295.807072 256.729181 
L 296.009429 256.560422 
L 296.414143 235.760824 
L 297.830644 97.293722 
L 298.235358 83.645304 
L 298.437715 80.987343 
L 298.640073 81.261577 
L 298.84243 83.37107 
L 299.044787 91.619186 
L 299.449501 119.295731 
L 300.056573 200.363536 
L 300.461287 226.268106 
L 300.663645 232.44892 
L 300.866002 233.187243 
L 301.068359 226.183727 
L 301.473073 195.342943 
L 302.484859 87.273631 
L 302.687217 75.650326 
L 302.889574 75.755801 
L 303.091931 84.067202 
L 303.496646 92.948167 
L 303.90136 115.793973 
L 304.306074 144.483074 
L 304.913146 215.551883 
L 305.31786 241.583024 
L 305.520218 247.299749 
L 305.722575 245.46449 
L 305.924932 238.14455 
L 306.532004 197.114917 
L 307.54379 125.223405 
L 307.746147 114.739227 
L 307.948504 113.832145 
L 308.757933 146.972275 
L 309.162647 173.741738 
L 309.769719 238.439879 
L 310.174433 258.859769 
L 310.376791 263.374083 
L 310.579148 262.783425 
L 310.983862 238.735208 
L 312.198005 131.889402 
L 312.60272 119.949674 
L 312.805077 115.456454 
L 313.007434 116.026017 
L 313.209791 119.823104 
L 313.816863 148.153591 
L 314.01922 162.202813 
L 314.626292 226.479056 
L 315.031006 247.531793 
L 315.233364 252.235962 
L 315.435721 251.560924 
L 315.840435 232.280161 
L 316.24515 213.062682 
L 316.649864 200.72215 
L 317.054578 185.006429 
L 317.66165 177.285686 
L 317.864007 176.821597 
L 318.066364 175.89342 
L 318.268722 180.703064 
L 318.875793 203.443395 
L 319.685222 263.627223 
L 320.089937 276.748267 
L 320.292294 278.435861 
L 320.697008 270.293219 
L 321.101723 243.354997 
L 322.315866 163.320844 
L 322.72058 152.794475 
L 322.922937 150.410748 
L 323.125295 154.650829 
L 323.732366 183.023506 
L 324.541795 253.417278 
L 324.94651 268.099347 
L 325.148867 271.073732 
L 325.351224 271.137017 
L 325.553581 268.816575 
L 325.755938 256.159618 
L 326.970082 140.707082 
L 327.172439 134.209844 
L 327.374796 132.585535 
L 327.77951 126.86881 
L 327.981868 131.994877 
L 328.184225 141.023506 
L 328.791296 194.077248 
L 329.196011 238.988348 
L 329.398368 254.640784 
L 329.803083 265.019488 
L 330.00544 264.049121 
L 330.207797 258.290206 
L 330.814869 208.463988 
L 331.42194 169.206328 
L 331.826655 145.917529 
L 332.029012 142.943144 
L 332.231369 142.964239 
L 332.433726 143.154093 
L 332.636083 145.305776 
L 332.838441 149.967755 
L 333.243155 173.509694 
L 333.445512 182.770367 
L 334.052584 250.274134 
L 334.457298 272.655851 
L 334.659655 278.224912 
L 334.862013 275.756806 
L 335.266727 255.379106 
L 335.671442 230.360522 
L 336.48087 189.16213 
L 336.683228 183.951683 
L 336.885585 182.812557 
L 337.087942 176.462983 
L 337.290299 174.56444 
L 337.695014 181.209342 
L 338.099728 196.060171 
L 338.302085 202.09332 
L 339.111514 269.702562 
L 339.313871 276.07323 
L 339.516228 278.372577 
L 339.718586 274.195781 
L 340.1233 250.210849 
L 340.932729 204.540331 
L 342.349229 141.107885 
L 342.551587 141.023506 
L 343.158658 166.379608 
L 343.76573 230.845706 
L 344.170444 249.345957 
L 344.372801 254.23998 
L 344.575159 252.046107 
L 344.777516 244.937117 
L 345.18223 213.210347 
L 346.194016 128.32436 
L 346.598731 113.157107 
L 347.003445 106.36454 
L 347.205802 105.499648 
L 347.40816 108.769362 
L 347.610517 116.827624 
L 348.015231 143.639277 
L 348.82466 237.237469 
L 349.229374 254.809543 
L 349.431732 254.029031 
L 349.634089 248.080261 
L 349.836446 236.646811 
L 351.050589 129.379106 
L 351.455304 110.520241 
L 351.860018 101.428327 
L 352.062375 100.500151 
L 352.264733 104.233953 
L 352.46709 115.625213 
L 353.276519 200.975289 
L 353.681233 239.937619 
L 354.085947 260.673933 
L 354.288305 266.095329 
L 354.490662 266.685987 
L 354.693019 264.38664 
L 355.097733 221.205324 
L 355.704805 145.369061 
L 356.109519 119.991863 
L 356.716591 101.301758 
L 356.918948 100.183727 
L 357.121306 105.11994 
L 357.52602 131.446409 
L 357.728377 144.483074 
L 358.740163 242.574485 
L 359.144878 255.906479 
L 359.347235 257.826118 
L 359.549592 257.488599 
L 359.751949 243.101858 
L 360.763735 119.169161 
L 361.16845 99.571974 
L 361.573164 88.159618 
L 361.775521 85.796986 
L 361.977879 89.172175 
L 362.180236 96.365545 
L 362.58495 122.860773 
L 363.394379 214.054144 
L 363.799093 232.195781 
L 364.001451 233.039578 
L 364.203808 226.985334 
L 364.406165 216.64882 
L 365.013237 145.137017 
L 365.620308 78.772376 
L 366.025023 62.149573 
L 366.429737 55.8 
L 366.632094 56.306278 
L 366.834451 59.027524 
L 367.036809 67.992868 
L 367.441523 98.010949 
L 368.048595 179.901457 
L 368.453309 211.290708 
L 368.655666 220.066198 
L 368.858024 222.513209 
L 369.060381 218.505173 
L 369.262738 208.358513 
L 369.86981 143.006429 
L 370.476881 83.160121 
L 370.881596 66.052135 
L 371.083953 65.588046 
L 371.28631 66.326369 
L 371.488667 70.376595 
L 371.691024 76.789453 
L 372.298096 116.912004 
L 373.107525 204.413762 
L 373.512239 227.301758 
L 373.714597 231.794977 
L 374.119311 231.07775 
L 374.321668 217.956705 
L 375.333454 111.047614 
L 375.738169 97.399196 
L 375.940526 94.614666 
L 376.142883 93.47554 
L 376.34524 98.812557 
L 376.749955 125.835158 
L 377.559383 186.504169 
L 377.964098 222.196786 
L 378.368812 236.414766 
L 378.57117 236.646811 
L 378.773527 230.529282 
L 378.975884 218.969262 
L 380.392384 98.791462 
L 380.797099 88.560422 
L 381.201813 80.734204 
L 381.40417 84.615671 
L 382.011242 122.776394 
L 382.820671 208.189754 
L 383.225385 224.791462 
L 383.427743 225.466499 
L 383.6301 219.960723 
L 384.034814 197.030537 
L 385.0466 121.320844 
L 385.451315 104.107383 
L 385.653672 103.6222 
L 385.856029 107.524761 
L 386.058386 115.393169 
L 387.070172 187.558915 
L 387.474887 228.926067 
L 387.879601 251.497639 
L 388.284316 260.927072 
L 388.68903 263.521748 
L 388.891387 257.594073 
L 389.700816 212.682973 
L 390.307888 201.122953 
L 390.914959 187.980814 
L 391.117316 192.917027 
L 391.926745 233.735711 
L 392.533817 279.321848 
L 392.938531 292.084279 
L 393.140888 294.003918 
L 393.343246 293.539829 
L 393.545603 294.025013 
L 393.74796 284.785434 
L 394.355032 242.321346 
L 395.569175 184.057157 
L 395.771532 177.855249 
L 395.973889 179.099849 
L 396.176247 187.685485 
L 396.783318 231.056655 
L 397.188033 270.799498 
L 397.592747 289.194274 
L 397.795104 292.063184 
L 397.997461 289.447413 
L 398.402176 270.736213 
L 400.628105 139.061678 
L 400.830462 141.993872 
L 401.03282 152.267102 
L 401.639891 211.121949 
L 402.044606 256.876846 
L 402.44932 277.845203 
L 402.651677 281.979809 
L 402.854034 280.27112 
L 403.258749 261.496635 
L 403.663463 232.174686 
L 404.877607 122.755299 
L 405.282321 101.575992 
L 405.484678 97.230437 
L 405.687035 98.348468 
L 405.889393 109.191261 
L 406.294107 147.752788 
L 406.901179 227.639277 
L 407.305893 252.468006 
L 407.50825 258.248016 
L 407.710607 257.699548 
L 408.115322 235.781919 
L 409.73418 99.276645 
L 409.936537 94.192767 
L 410.138894 94.045103 
L 410.341251 98.791462 
L 410.948323 136.045103 
L 411.15068 152.456956 
L 411.757752 225.29774 
L 412.162466 250.126469 
L 412.364823 256.813561 
L 412.56718 258.64882 
L 412.971895 240.021999 
L 414.388395 138.808538 
L 414.79311 124.843697 
L 415.197824 117.96675 
L 415.400181 124.949171 
L 416.20961 189.478553 
L 416.614325 236.140532 
L 417.019039 259.93561 
L 417.221396 264.323355 
L 417.423753 263.753792 
L 417.828468 247.0888 
L 419.244968 146.276143 
L 419.649683 132.248016 
L 419.85204 128.303265 
L 420.054397 129.77991 
L 420.256754 138.703064 
L 421.066183 205.974787 
L 421.673255 262.720141 
L 422.077969 279.279658 
L 422.280326 281.832145 
L 422.482684 281.157107 
L 422.685041 280.988348 
L 423.089755 249.324862 
L 423.899184 178.234957 
L 424.708613 137.774887 
L 424.91097 134.505173 
L 425.113327 138.618684 
L 425.518042 165.493621 
L 425.720399 177.623204 
L 426.529828 254.345455 
L 426.934542 273.436364 
L 427.136899 278.035058 
L 427.339257 278.85776 
L 427.541614 279.089804 
L 427.743971 270.25103 
L 428.148685 228.778403 
L 428.755757 165.177197 
L 429.160471 138.829633 
L 429.565186 130.349473 
L 429.9699 134.378604 
L 430.374615 151.043596 
L 430.576972 163.00442 
L 431.386401 241.076745 
L 431.791115 253.649322 
L 431.993472 251.560924 
L 432.398187 230.698041 
L 433.207616 163.827122 
L 434.017044 91.534807 
L 434.219402 86.514214 
L 435.02883 114.675942 
L 435.433545 140.348468 
L 436.040617 213.484581 
L 436.445331 236.625716 
L 436.647688 241.899448 
L 436.850045 241.203315 
L 437.25476 220.045103 
L 437.659474 184.183727 
L 438.468903 108.727172 
L 438.67126 98.728177 
L 438.873617 99.719638 
L 439.075975 107.018483 
L 439.278332 106.554395 
L 439.480689 108.853742 
L 439.885403 127.902461 
L 440.290118 153.321848 
L 440.897189 228.715118 
L 441.301904 251.624209 
L 441.504261 257.19327 
L 441.706618 257.741738 
L 442.111333 242.616675 
L 442.920762 189.204319 
L 443.527833 153.406228 
L 444.134905 130.054144 
L 444.337262 127.396183 
L 444.539619 133.9778 
L 445.146691 180.238975 
L 445.753762 251.265595 
L 446.158477 273.03556 
L 446.360834 278.119437 
L 446.563191 276.07323 
L 446.967906 256.665897 
L 448.586763 143.955701 
L 448.991478 130.412757 
L 449.193835 128.029031 
L 449.396192 134.863787 
L 450.003264 176.315319 
L 450.812693 258.48006 
L 451.217407 272.128478 
L 451.419764 272.255048 
L 451.824479 254.619689 
L 452.43155 202.873832 
L 453.038622 159.861276 
L 453.443336 142.373581 
L 453.848051 134.294224 
L 454.050408 137.753792 
L 454.252765 148.005927 
L 454.65748 177.159116 
L 454.859837 185.829131 
L 455.669266 252.257057 
L 456.07398 266.158614 
L 456.276337 267.719638 
L 456.478694 265.67343 
L 456.681052 262.488096 
L 456.883409 254.28217 
L 457.288123 226.563435 
L 457.692838 215.319839 
L 457.895195 216.037067 
L 458.299909 221.943646 
L 458.502267 221.795982 
L 458.906981 217.872325 
L 459.109338 218.420794 
L 459.514053 222.681969 
L 459.71641 227.090809 
L 460.728196 286.304269 
L 461.13291 290.839679 
L 461.537625 287.443395 
L 461.739982 278.288197 
L 462.144696 242.890909 
L 463.561197 171.927574 
L 463.763554 164.481065 
L 463.965911 165.683476 
L 464.572983 185.660372 
L 465.382412 254.366549 
L 465.584769 261.454445 
L 465.787126 264.238975 
L 465.989483 261.749774 
L 467.608341 166.822602 
L 468.620127 145.094827 
L 468.822484 148.301256 
L 469.429556 175.218383 
L 470.036627 233.398192 
L 470.441342 251.645304 
L 470.643699 254.345455 
L 470.846056 251.708589 
L 471.857842 199.477549 
L 472.869628 168.446911 
L 473.071985 168.953189 
L 473.274343 167.117931 
L 473.4767 168.404721 
L 473.679057 172.286188 
L 473.881414 179.036565 
L 474.083772 180.21788 
L 474.286129 188.086288 
L 474.8932 241.540834 
L 475.297915 258.205826 
L 475.500272 259.914515 
L 475.702629 257.826118 
L 476.107344 232.828629 
L 476.512058 210.257057 
L 477.321487 177.960723 
L 477.726201 157.287695 
L 477.928558 153.638272 
L 478.333273 158.447916 
L 478.53563 163.025515 
L 479.142702 188.592567 
L 479.952131 258.100352 
L 480.356845 268.204822 
L 480.559202 267.782923 
L 480.963917 245.126971 
L 482.785131 113.452436 
L 482.987489 107.398192 
L 483.189846 104.698041 
L 483.392203 110.478051 
L 483.999275 151.36002 
L 484.606346 224.285183 
L 485.011061 248.101356 
L 485.213418 252.615671 
L 485.415775 253.586037 
L 485.82049 233.313812 
L 486.225204 201.312808 
L 487.23699 109.043596 
L 487.439347 105.879357 
L 487.844062 112.608639 
L 488.248776 131.699548 
L 489.260562 211.206328 
L 489.665277 244.1777 
L 490.069991 259.661376 
L 490.272348 262.066198 
L 490.474705 260.905977 
L 490.677063 259.091813 
L 490.87942 249.113913 
L 491.891206 167.37107 
L 492.29592 149.208338 
L 492.498277 141.635259 
L 492.700635 139.567956 
L 492.902992 141.234455 
L 493.105349 146.170668 
L 493.712421 180.534304 
L 494.52185 254.345455 
L 495.128921 273.07775 
L 495.331278 273.225414 
L 495.533636 272.592567 
L 495.735993 264.850728 
L 496.950136 171.041587 
L 497.557208 146.065193 
L 497.759565 142.62672 
L 497.961922 145.917529 
L 498.568994 178.213862 
L 499.378422 253.881366 
L 499.58078 260.884882 
L 499.783137 263.437368 
L 499.985494 260.041085 
L 500.187851 251.307785 
L 500.794923 213.463486 
L 500.99728 208.231944 
L 501.401995 194.81557 
L 501.806709 183.276645 
L 502.009066 182.812557 
L 502.211423 184.922049 
L 502.413781 185.575992 
L 502.616138 183.867303 
L 503.020852 193.824108 
L 503.223209 194.393672 
L 503.425567 202.09332 
L 504.032638 254.050126 
L 504.437353 267.445404 
L 504.63971 269.111904 
L 504.842067 266.685987 
L 505.246782 241.709593 
L 505.651496 217.302762 
L 507.270354 142.331391 
L 507.472711 139.146057 
L 507.675068 142.62672 
L 508.28214 171.358011 
L 508.889211 230.824611 
L 509.293926 248.37559 
L 509.496283 251.982823 
L 509.69864 250.105374 
L 510.103354 225.972777 
L 511.722212 116.954194 
L 512.126927 98.749272 
L 512.329284 100.373581 
L 512.936355 135.602109 
L 513.34107 175.513712 
L 513.745784 220.066198 
L 514.150499 243.354997 
L 514.352856 249.071723 
L 514.555213 249.578001 
L 514.75757 240.464992 
L 516.174071 141.29774 
L 516.376428 140.179709 
L 516.781142 149.735711 
L 516.9835 146.930085 
L 517.185857 147.478553 
L 517.590571 165.620191 
L 517.792928 169.965746 
L 517.995286 180.935108 
L 518.4 221.585033 
L 518.4 221.585033 
" clip-path="url(#pd38d3cd4d3)" style="fill: none; stroke: #1f77b4; stroke-width: 1.5; stroke-linecap: square"/>
   </g>
   <g id="line2d_14">
    <path d="M 72 264.53529 
L 72.202357 264.53529 
L 72.607072 267.808909 
L 72.809429 268.008838 
L 73.011786 265.967122 
L 73.618858 245.880401 
L 74.225929 211.327988 
L 74.833001 178.961338 
L 75.237715 169.305709 
L 75.440073 166.976438 
L 75.64243 170.297777 
L 76.047144 187.108797 
L 77.05893 261.34945 
L 77.261287 265.139323 
L 77.463645 265.494941 
L 77.666002 262.661265 
L 78.070716 249.438951 
L 78.677788 224.765046 
L 78.880145 218.442588 
L 79.689574 176.441834 
L 80.094288 168.33965 
L 80.296646 170.819137 
L 80.903717 205.408302 
L 81.510789 261.150111 
L 81.915503 275.355387 
L 82.11786 277.527456 
L 82.320218 276.073068 
L 82.522575 272.957361 
L 82.927289 259.536651 
L 83.534361 235.967901 
L 83.939075 228.611484 
L 84.141432 224.46186 
L 84.34379 223.625248 
L 84.950861 233.389952 
L 85.76029 250.385543 
L 86.569719 287.191133 
L 86.772076 292.280826 
L 86.974433 294.152595 
L 87.176791 294.487387 
L 87.379148 291.299337 
L 88.390934 257.337009 
L 88.593291 253.856727 
L 88.795648 252.409266 
L 88.998005 252.620799 
L 89.200363 254.091795 
L 89.40272 252.511803 
L 89.807434 246.771028 
L 90.212149 240.112623 
L 90.414506 240.862901 
L 90.616863 240.392181 
L 90.81922 247.243302 
L 91.426292 278.538792 
L 91.628649 285.675974 
L 91.831006 288.722695 
L 92.033364 288.830813 
L 92.235721 285.362385 
L 93.449864 241.058552 
L 94.056936 234.703792 
L 94.46165 231.094214 
L 94.866364 228.173668 
L 95.068722 231.720737 
L 95.473436 243.519755 
L 95.675793 249.717048 
L 96.282865 280.440203 
L 96.485222 286.001911 
L 96.687579 286.155614 
L 96.889937 282.968262 
L 97.294651 270.392971 
L 97.901723 244.811655 
L 98.10408 240.092529 
L 98.306437 238.392054 
L 98.508794 238.853057 
L 98.711151 239.684736 
L 99.115866 236.258294 
L 99.52058 232.614457 
L 99.722937 231.262328 
L 99.925295 234.16374 
L 100.127652 241.719384 
L 100.330009 245.046294 
L 101.341795 288.824739 
L 101.544152 288.884773 
L 101.74651 286.188197 
L 101.948867 281.966358 
L 102.960653 241.53544 
L 103.16301 239.716624 
L 103.365367 240.965175 
L 103.567724 240.967796 
L 103.770082 238.585553 
L 104.377153 228.124588 
L 104.57951 226.158386 
L 104.781868 228.614432 
L 106.198368 288.803362 
L 106.400725 288.633762 
L 106.80544 281.33513 
L 107.817226 240.67979 
L 108.019583 238.514222 
L 108.22194 238.122275 
L 108.626655 226.338764 
L 109.031369 211.325505 
L 109.233726 209.47259 
L 109.436083 209.156387 
L 109.638441 213.354402 
L 111.054941 286.336998 
L 111.257298 286.249692 
L 111.662013 278.540759 
L 112.269084 251.118366 
L 113.483228 202.351924 
L 113.887942 190.830729 
L 114.292656 185.19655 
L 114.495014 190.05053 
L 114.899728 213.49215 
L 115.5068 265.179487 
L 115.911514 278.361771 
L 116.113871 278.796114 
L 116.316228 277.641751 
L 116.720943 268.185326 
L 117.732729 226.008657 
L 118.542158 172.681795 
L 118.946872 160.87871 
L 119.149229 160.246725 
L 119.351587 165.294031 
L 119.958658 206.773814 
L 120.363373 252.702382 
L 120.768087 273.52432 
L 121.172801 278.930062 
L 121.375159 275.860478 
L 121.98223 252.105144 
L 122.386945 234.04071 
L 123.398731 196.340062 
L 123.601088 195.953636 
L 124.005802 202.832993 
L 124.612874 228.489442 
L 125.827017 291.30033 
L 126.029374 290.4479 
L 126.231732 285.487419 
L 126.838803 251.821159 
L 127.445875 219.007202 
L 128.660018 167.558109 
L 128.862375 166.435899 
L 129.064733 172.56693 
L 129.469447 204.64956 
L 129.874161 247.139099 
L 130.278876 271.044428 
L 130.481233 276.854161 
L 130.68359 277.425252 
L 131.088305 268.822578 
L 131.493019 251.769234 
L 133.111877 158.456213 
L 133.516591 151.253652 
L 133.718948 152.656009 
L 133.921306 159.34468 
L 134.32602 184.687277 
L 134.730734 231.687711 
L 135.135449 265.261827 
L 135.337806 271.108525 
L 135.540163 272.4073 
L 135.74252 268.390785 
L 136.147235 250.637362 
L 136.754306 216.186087 
L 136.956664 206.13464 
L 137.159021 201.853529 
L 137.563735 190.979562 
L 137.766092 189.410056 
L 137.96845 190.035129 
L 138.373164 198.661422 
L 138.575521 202.92654 
L 139.38495 234.49407 
L 139.992022 273.38415 
L 140.194379 277.276073 
L 140.396736 277.707712 
L 140.801451 268.19952 
L 142.015594 215.188385 
L 142.420308 211.262046 
L 142.622665 210.06889 
L 143.432094 215.917929 
L 144.039166 230.625938 
L 144.44388 253.550782 
L 144.848595 272.239936 
L 145.050952 276.879785 
L 145.253309 276.607155 
L 145.455666 274.530491 
L 145.860381 261.275511 
L 146.467452 229.415995 
L 147.074524 214.028155 
L 147.276881 214.357468 
L 147.479238 212.363385 
L 147.681596 212.115892 
L 148.08631 223.231027 
L 148.288667 225.470209 
L 149.300453 260.106839 
L 149.705168 275.800514 
L 149.907525 279.201354 
L 150.109882 277.998618 
L 150.312239 276.1127 
L 150.919311 259.145867 
L 151.72874 233.947027 
L 152.133454 232.224885 
L 152.335811 232.992069 
L 153.14524 241.563102 
L 153.549955 248.557353 
L 153.752312 248.234062 
L 154.764098 279.896922 
L 154.966455 280.342203 
L 155.168812 281.438654 
L 155.37117 280.497015 
L 155.775884 267.08104 
L 156.382956 239.982437 
L 156.78767 217.908764 
L 157.192384 191.448081 
L 157.597099 176.548818 
L 158.001813 168.049385 
L 158.20417 169.85725 
L 158.406528 176.044143 
L 158.811242 200.746378 
L 159.215956 244.559013 
L 159.620671 266.952365 
L 159.823028 272.479734 
L 160.025385 274.404867 
L 160.227743 270.66869 
L 160.632457 250.424586 
L 161.644243 190.969989 
L 162.048957 180.299379 
L 162.251315 178.233391 
L 162.453672 179.705079 
L 162.858386 188.401292 
L 163.465458 217.240241 
L 164.072529 260.694801 
L 164.477244 277.995901 
L 164.679601 279.643854 
L 165.084316 268.905122 
L 165.48903 249.143464 
L 166.096102 220.195517 
L 166.90553 199.352095 
L 167.310245 185.736278 
L 167.512602 182.624438 
L 167.714959 181.71488 
L 168.119674 200.579036 
L 168.524388 229.504531 
L 168.929102 258.882387 
L 169.333817 273.135567 
L 169.536174 273.781155 
L 169.738531 271.028121 
L 169.940888 266.133986 
L 170.345603 247.767658 
L 171.357389 185.67898 
L 171.762103 169.667049 
L 171.964461 165.637115 
L 172.166818 165.868224 
L 172.369175 166.403342 
L 172.571532 168.420676 
L 172.773889 174.651526 
L 173.380961 217.437953 
L 173.785675 256.477922 
L 174.19039 273.438071 
L 174.392747 273.349964 
L 174.595104 269.673284 
L 174.797461 263.874926 
L 176.618676 184.784957 
L 176.821034 179.88012 
L 177.225748 176.953845 
L 177.428105 177.949527 
L 177.630462 181.933032 
L 178.237534 224.696595 
L 178.642248 262.485654 
L 179.046963 279.807136 
L 179.24932 281.148581 
L 179.451677 279.315899 
L 179.856392 263.974752 
L 180.868178 211.194053 
L 181.879964 166.269522 
L 182.082321 163.519147 
L 182.284678 162.423831 
L 182.487035 166.955466 
L 183.094107 212.472897 
L 183.498821 252.533625 
L 183.903536 269.323305 
L 184.105893 270.395054 
L 184.30825 267.914291 
L 184.712965 256.732169 
L 185.320036 227.713661 
L 186.331822 150.862939 
L 186.53418 146.673254 
L 186.736537 148.433311 
L 187.141251 163.576817 
L 188.760109 261.971124 
L 188.962466 265.85471 
L 189.164823 265.781726 
L 189.36718 260.511463 
L 190.176609 223.005928 
L 190.581324 198.852784 
L 191.188395 162.214054 
L 191.390752 157.469008 
L 191.59311 157.888114 
L 191.795467 163.424863 
L 192.402539 193.313699 
L 193.616682 260.021968 
L 193.819039 264.090636 
L 194.021396 264.642504 
L 194.223753 261.918125 
L 194.628468 250.637003 
L 195.437897 208.512842 
L 195.842611 188.367783 
L 196.044968 186.781521 
L 196.449683 199.080227 
L 197.866183 248.723644 
L 198.270898 266.783758 
L 198.675612 276.112348 
L 198.877969 275.433837 
L 199.080326 271.386513 
L 199.485041 251.369704 
L 199.889755 223.141939 
L 200.29447 205.468333 
L 201.103898 184.57517 
L 201.508613 178.891115 
L 201.71097 177.064501 
L 201.913327 179.968348 
L 202.318042 197.693976 
L 203.127471 254.859387 
L 203.329828 262.128671 
L 203.532185 264.512119 
L 203.734542 262.023943 
L 204.139257 248.345814 
L 205.151043 195.091252 
L 205.758114 175.442672 
L 205.960471 172.327991 
L 206.162829 174.115428 
L 206.567543 181.134669 
L 206.972257 198.609215 
L 207.376972 218.604853 
L 207.781686 249.315115 
L 208.186401 263.977027 
L 208.388758 264.625466 
L 208.591115 261.047388 
L 208.99583 246.184901 
L 209.400544 221.322827 
L 210.209973 187.028248 
L 211.221759 153.334955 
L 211.424116 151.232103 
L 211.626473 156.897206 
L 212.233545 198.229831 
L 212.840617 248.912035 
L 213.042974 254.723997 
L 213.245331 256.658053 
L 213.447688 255.121243 
L 213.650045 251.088987 
L 213.852403 242.687561 
L 215.47126 139.579555 
L 215.673617 131.744632 
L 216.078332 127.525965 
L 216.280689 128.114165 
L 216.483046 132.738635 
L 216.887761 159.774442 
L 217.292475 195.361355 
L 217.697189 235.737366 
L 217.899547 247.551681 
L 218.101904 249.841192 
L 218.304261 248.847929 
L 218.506618 245.344383 
L 219.316047 215.98278 
L 219.720762 189.989874 
L 220.327833 146.116465 
L 220.53019 143.911467 
L 220.732548 148.349132 
L 221.137262 171.970451 
L 221.744334 218.36601 
L 222.149048 239.315633 
L 222.553762 259.429404 
L 222.958477 270.61129 
L 223.160834 270.108992 
L 223.363191 267.287767 
L 223.970263 239.810366 
L 224.577335 215.187748 
L 224.982049 208.696371 
L 225.184406 210.727114 
L 225.386763 213.902945 
L 226.398549 240.009997 
L 226.600907 243.077197 
L 226.803264 248.297711 
L 227.410335 273.550418 
L 227.81505 282.270053 
L 228.017407 282.011661 
L 228.219764 279.094818 
L 228.624479 264.913238 
L 229.23155 240.26814 
L 229.636265 235.33025 
L 230.648051 203.180351 
L 231.052765 196.336548 
L 231.255122 199.913001 
L 231.659837 229.92691 
L 232.064551 260.267821 
L 232.469266 276.648606 
L 232.671623 278.187698 
L 233.076337 271.94286 
L 233.481052 258.720187 
L 234.897552 195.39652 
L 235.302267 187.901552 
L 235.504624 187.909638 
L 235.706981 189.252467 
L 235.909338 195.652571 
L 236.314053 219.518766 
L 237.123481 276.279635 
L 237.325839 282.270297 
L 237.528196 284.065981 
L 237.730553 281.294755 
L 237.93291 275.563037 
L 239.349411 212.198466 
L 239.754125 201.245991 
L 239.956482 199.739569 
L 240.15884 200.163964 
L 240.361197 201.244488 
L 240.563554 202.947884 
L 240.765911 207.943593 
L 242.182412 283.037914 
L 242.384769 283.668097 
L 242.587126 280.727976 
L 242.789483 275.595646 
L 244.610698 203.278463 
L 244.813055 197.493977 
L 245.420127 190.480737 
L 245.622484 193.534718 
L 246.027199 214.809205 
L 246.836627 271.667384 
L 247.038985 277.777467 
L 247.241342 280.378702 
L 247.443699 277.974185 
L 247.646056 273.506461 
L 248.050771 254.927956 
L 249.062557 195.979232 
L 249.669628 159.19586 
L 249.871985 154.733012 
L 250.074343 155.439442 
L 250.2767 157.735661 
L 250.479057 166.083563 
L 251.086129 209.977015 
L 251.490843 249.320452 
L 251.895558 266.113782 
L 252.097915 269.283943 
L 252.300272 267.372727 
L 252.704986 255.547724 
L 253.514415 215.53433 
L 254.323844 153.428739 
L 254.526201 148.804531 
L 254.728558 148.254983 
L 254.930916 150.366069 
L 255.133273 154.34014 
L 255.33563 161.998535 
L 255.942702 204.048983 
L 256.549773 253.899697 
L 256.954488 267.470708 
L 257.156845 267.626519 
L 257.359202 264.9876 
L 257.763917 249.30549 
L 258.573345 207.28192 
L 259.180417 171.865383 
L 259.382774 167.304375 
L 259.585131 166.778029 
L 259.787489 168.94847 
L 260.192203 179.301557 
L 260.596917 199.60829 
L 261.608704 269.505978 
L 261.811061 275.099705 
L 262.013418 274.550483 
L 262.215775 270.162766 
L 262.62049 249.788392 
L 263.227561 216.487727 
L 263.632276 210.06054 
L 263.834633 211.599124 
L 264.239347 218.108954 
L 265.655848 250.60538 
L 266.262919 277.773289 
L 266.465277 282.164934 
L 266.667634 282.976002 
L 266.869991 280.185739 
L 267.274705 269.248373 
L 268.286491 234.335103 
L 268.691206 229.856525 
L 269.09592 223.847209 
L 269.298277 223.158468 
L 269.500635 221.713457 
L 269.702992 219.062293 
L 269.905349 219.74828 
L 270.512421 241.34495 
L 270.917135 264.34776 
L 271.32185 276.536676 
L 271.524207 278.266456 
L 271.726564 276.106325 
L 271.928921 272.529208 
L 272.333636 254.473121 
L 273.952493 167.772224 
L 274.559565 154.292992 
L 274.761922 156.507006 
L 275.166636 176.905698 
L 275.368994 188.498171 
L 275.976065 247.636555 
L 276.38078 258.728248 
L 276.583137 257.628066 
L 276.785494 254.216522 
L 277.594923 210.619515 
L 278.404352 159.478647 
L 278.606709 149.75698 
L 279.011423 144.624522 
L 279.213781 144.556888 
L 279.416138 145.453205 
L 279.618495 150.285569 
L 280.023209 178.521106 
L 281.034995 259.683299 
L 281.237353 263.897173 
L 281.642067 258.414192 
L 283.463282 169.100046 
L 283.665639 163.216656 
L 283.867996 161.438536 
L 284.070354 161.17997 
L 284.272711 162.605254 
L 284.475068 169.501427 
L 285.08214 215.226928 
L 285.486854 251.186804 
L 285.891568 268.238344 
L 286.093926 272.053663 
L 286.296283 271.559843 
L 286.49864 267.776243 
L 286.903354 252.340761 
L 288.724569 167.029738 
L 288.926927 166.077225 
L 289.129284 167.845381 
L 289.331641 173.074776 
L 289.736355 197.448127 
L 289.938713 211.527457 
L 290.343427 250.427431 
L 290.748141 270.160632 
L 290.950499 274.61665 
L 291.152856 273.64888 
L 291.355213 270.261535 
L 291.759927 254.671249 
L 292.164642 231.817092 
L 293.378785 145.731474 
L 293.581142 141.801752 
L 293.7835 141.886693 
L 293.985857 145.060576 
L 294.390571 161.499333 
L 294.795286 186.196233 
L 295.604714 253.944417 
L 295.807072 261.175447 
L 296.009429 261.556407 
L 296.211786 256.723351 
L 296.6165 235.495659 
L 297.830644 119.347054 
L 298.235358 96.359232 
L 298.437715 92.581668 
L 298.640073 94.498868 
L 299.044787 104.731721 
L 299.449501 128.798084 
L 299.854216 165.639319 
L 300.461287 219.679096 
L 300.663645 228.789868 
L 300.866002 230.510371 
L 301.068359 225.436667 
L 301.473073 204.441404 
L 302.687217 87.458193 
L 302.889574 80.686003 
L 303.091931 81.804221 
L 303.496646 100.458145 
L 304.103717 139.124784 
L 304.710789 192.811219 
L 305.115503 223.202528 
L 305.520218 240.333662 
L 305.722575 239.651217 
L 305.924932 234.449959 
L 306.734361 181.853271 
L 307.341432 141.795126 
L 307.746147 127.247516 
L 307.948504 123.603906 
L 308.150861 124.5836 
L 308.555576 136.236988 
L 308.96029 160.243284 
L 309.567362 208.991435 
L 309.972076 236.698321 
L 310.174433 245.562092 
L 310.376791 248.9642 
L 310.579148 248.052319 
L 310.781505 242.866004 
L 311.388577 204.17743 
L 312.400363 121.043162 
L 312.60272 114.967802 
L 312.805077 113.710434 
L 313.007434 115.061496 
L 313.412149 126.154263 
L 313.816863 148.17281 
L 314.221578 175.643447 
L 314.828649 227.458945 
L 315.031006 236.097219 
L 315.233364 239.71508 
L 315.435721 238.782258 
L 315.638078 231.838129 
L 316.447507 189.042154 
L 317.054578 171.305262 
L 317.256936 167.127713 
L 317.459293 166.133601 
L 317.66165 168.745254 
L 318.268722 181.621312 
L 318.471079 188.045713 
L 319.887579 260.235154 
L 320.089937 261.83016 
L 320.292294 261.371025 
L 320.494651 259.00844 
L 320.899365 248.789467 
L 321.506437 222.520922 
L 322.72058 166.036856 
L 322.922937 164.435655 
L 323.125295 164.787838 
L 323.327652 168.825826 
L 323.732366 188.392065 
L 324.137081 215.942716 
L 324.541795 245.164107 
L 324.94651 258.241919 
L 325.148867 260.4127 
L 325.351224 259.258234 
L 325.755938 245.775112 
L 326.160653 228.037698 
L 326.565367 198.547259 
L 327.172439 146.449931 
L 327.374796 139.948078 
L 327.577153 138.133209 
L 327.77951 139.925369 
L 328.184225 150.624936 
L 328.386582 160.230072 
L 328.993654 211.126374 
L 329.398368 246.055361 
L 329.803083 262.079171 
L 330.00544 261.117374 
L 330.207797 257.732836 
L 330.612511 238.983791 
L 331.42194 170.540329 
L 331.826655 149.990671 
L 332.231369 142.24117 
L 332.433726 144.378912 
L 332.838441 156.056246 
L 333.040798 164.320206 
L 334.457298 259.487196 
L 334.659655 262.781884 
L 334.862013 261.78569 
L 335.06437 256.547625 
L 335.671442 226.535282 
L 336.48087 188.240554 
L 336.885585 179.221556 
L 337.087942 179.800273 
L 337.290299 179.575841 
L 337.695014 186.514048 
L 337.897371 191.727334 
L 338.7068 238.238464 
L 339.111514 258.786713 
L 339.313871 265.060706 
L 339.516228 267.303004 
L 339.718586 265.3506 
L 339.920943 261.504549 
L 340.325657 242.01795 
L 340.730372 219.744192 
L 341.944515 171.578873 
L 342.349229 164.579028 
L 342.551587 162.26349 
L 342.753944 161.925083 
L 343.158658 179.481327 
L 343.361015 190.332119 
L 343.968087 241.520824 
L 344.372801 252.813352 
L 344.575159 251.532092 
L 344.777516 247.031404 
L 345.384587 215.637566 
L 345.789302 182.549387 
L 346.396374 132.526897 
L 346.598731 122.816905 
L 346.801088 118.650455 
L 347.003445 118.718979 
L 347.610517 128.255449 
L 348.015231 150.112495 
L 348.217588 162.748691 
L 349.027017 235.203671 
L 349.229374 242.067002 
L 349.431732 241.178214 
L 349.634089 237.053519 
L 350.038803 220.303776 
L 350.645875 167.214692 
L 351.252947 116.927345 
L 351.657661 103.351951 
L 351.860018 102.700654 
L 352.062375 105.268024 
L 352.46709 116.026145 
L 352.871804 144.965869 
L 354.085947 244.319267 
L 354.288305 244.859998 
L 354.490662 241.276874 
L 355.097733 217.289264 
L 355.502448 180.224806 
L 356.109519 116.656989 
L 356.311877 106.378591 
L 356.514234 102.078231 
L 356.716591 101.702352 
L 357.121306 110.08135 
L 357.323663 117.261087 
L 357.728377 144.224204 
L 358.133092 179.648255 
L 358.740163 233.272322 
L 358.94252 244.603095 
L 359.144878 247.111815 
L 359.347235 244.417472 
L 359.954306 213.736261 
L 360.359021 173.225717 
L 360.966092 108.615705 
L 361.16845 97.51869 
L 361.370807 93.545587 
L 361.573164 92.633866 
L 361.775521 95.337682 
L 362.180236 107.872315 
L 362.58495 130.324981 
L 362.989665 164.582411 
L 363.596736 220.354143 
L 363.799093 230.961086 
L 364.001451 234.529463 
L 364.203808 230.501663 
L 364.608522 208.16231 
L 365.215594 138.399855 
L 365.620308 98.203384 
L 366.025023 78.735213 
L 366.22738 77.239349 
L 366.429737 78.872224 
L 366.834451 92.372275 
L 367.036809 98.831382 
L 367.441523 125.372421 
L 367.846238 162.656855 
L 368.250952 203.348125 
L 368.655666 223.261905 
L 368.858024 227.017409 
L 369.262738 217.418345 
L 369.465095 207.728713 
L 370.072167 150.764074 
L 370.476881 114.58358 
L 370.881596 96.925806 
L 371.083953 95.647484 
L 371.28631 98.511776 
L 371.691024 112.254284 
L 372.095739 134.59386 
L 372.702811 183.855906 
L 373.107525 217.559155 
L 373.512239 237.189306 
L 373.714597 238.125803 
L 373.916954 234.815595 
L 374.524025 210.746946 
L 375.131097 156.461209 
L 375.535811 124.736579 
L 375.738169 117.968208 
L 375.940526 115.009158 
L 376.142883 116.796204 
L 376.34524 120.729259 
L 376.749955 136.206468 
L 378.166455 233.704222 
L 378.368812 240.191737 
L 378.57117 241.396414 
L 378.773527 236.26169 
L 379.178241 213.243577 
L 379.785313 156.348945 
L 380.190027 123.286043 
L 380.594742 107.10819 
L 380.797099 104.808332 
L 380.999456 105.689808 
L 381.40417 112.458999 
L 381.606528 117.358805 
L 382.011242 137.414522 
L 382.415956 169.109772 
L 382.820671 205.210342 
L 383.225385 219.238063 
L 383.427743 221.210176 
L 383.6301 218.639368 
L 384.034814 202.845796 
L 384.237171 189.646608 
L 384.237171 189.646608 
" clip-path="url(#pd38d3cd4d3)" style="fill: none; stroke: #ff7f0e; stroke-width: 1.5; stroke-linecap: square"/>
   </g>
   <g id="line2d_15">
    <path d="M 384.439529 172.708624 
L 385.0466 141.019788 
L 385.451315 129.640248 
L 385.653672 127.333437 
L 385.856029 127.077883 
L 386.058386 129.985607 
L 386.463101 143.925013 
L 386.867815 166.848194 
L 387.474887 208.140354 
L 387.879601 220.599162 
L 388.081958 222.793447 
L 388.284316 219.329854 
L 388.68903 206.462772 
L 389.093744 188.049026 
L 389.903173 145.836863 
L 390.307888 132.313493 
L 390.510245 128.413317 
L 390.712602 127.392824 
L 390.914959 128.84247 
L 391.319674 135.441465 
L 392.736174 179.422766 
L 392.938531 181.401565 
L 393.140888 181.419115 
L 393.343246 179.356619 
L 393.74796 169.13871 
L 394.962103 125.81107 
L 395.164461 122.151293 
L 395.366818 121.019735 
L 395.569175 121.696099 
L 395.771532 123.894023 
L 396.176247 133.657341 
L 396.580961 148.268843 
L 397.592747 190.137038 
L 397.997461 198.195963 
L 398.199819 199.367301 
L 398.402176 198.444975 
L 398.80689 191.843366 
L 399.413962 175.822236 
L 400.021034 161.284186 
L 400.425748 156.955395 
L 400.628105 156.440384 
L 400.830462 157.223117 
L 401.235177 162.773464 
L 402.044606 182.07736 
L 402.44932 190.341311 
L 402.651677 192.792937 
L 402.854034 193.506028 
L 403.056392 192.942968 
L 403.258749 190.735337 
L 403.663463 182.417429 
L 404.270535 161.857629 
L 405.079964 133.390958 
L 405.484678 124.906077 
L 405.687035 122.704975 
L 405.889393 122.096456 
L 406.09175 123.045124 
L 406.496464 128.246254 
L 407.103536 141.869616 
L 407.912965 159.625128 
L 408.317679 164.040918 
L 408.520036 164.596419 
L 408.722393 164.064569 
L 408.924751 162.688932 
L 410.138894 149.802232 
L 410.341251 149.42311 
L 410.543608 150.04003 
L 410.745966 151.822052 
L 411.15068 158.494358 
L 411.757752 174.753839 
L 412.56718 198.989605 
L 412.971895 204.965994 
L 413.174252 205.701277 
L 413.376609 205.164405 
L 413.578966 203.393185 
L 413.983681 197.181084 
L 414.590752 183.304849 
L 415.400181 164.69752 
L 415.804896 158.121395 
L 416.20961 154.593253 
L 416.411967 153.880351 
L 416.614325 153.790739 
L 416.816682 154.108051 
L 417.423753 155.50662 
L 417.626111 155.508812 
L 417.828468 155.01744 
L 418.030825 153.919714 
L 418.435539 149.928759 
L 419.042611 140.290982 
L 419.85204 126.449724 
L 420.256754 122.574936 
L 420.459112 122.133082 
L 420.661469 122.635079 
L 420.863826 124.089409 
L 421.26854 129.705415 
L 421.875612 143.776314 
L 423.089755 176.226059 
L 423.696827 185.944806 
L 424.101541 188.811293 
L 424.303898 189.329151 
L 424.506256 189.329276 
L 424.91097 188.749387 
L 425.315684 188.244786 
L 425.518042 188.322849 
L 425.720399 188.725301 
L 426.125113 190.526598 
L 427.339257 197.98393 
L 427.541614 198.068455 
L 427.743971 197.562409 
L 427.946328 196.391158 
L 428.351043 192.051592 
L 428.755757 184.654832 
L 429.362829 168.157997 
L 430.779329 126.328778 
L 431.184044 120.134683 
L 431.386401 118.450353 
L 431.588758 117.775924 
L 431.791115 118.040949 
L 432.19583 120.495721 
L 433.207616 130.527799 
L 433.814687 135.958135 
L 435.231188 145.198599 
L 435.635902 150.321747 
L 436.040617 157.922306 
L 436.647688 173.908188 
L 437.659474 202.589562 
L 438.064189 207.420688 
L 438.266546 208.599454 
L 438.468903 208.958096 
L 438.67126 208.665044 
L 439.075975 206.853944 
L 440.087761 198.454548 
L 441.504261 184.522047 
L 442.111333 176.597074 
L 442.718404 163.703524 
L 443.527833 139.068882 
L 444.337262 116.596666 
L 444.741976 110.944437 
L 444.944334 109.851773 
L 445.146691 109.90747 
L 445.349048 110.998492 
L 445.753762 115.425444 
L 447.777335 143.187826 
L 448.991478 157.222957 
L 449.396192 165.00863 
L 450.003264 181.51916 
L 450.610335 199.314402 
L 451.01505 206.372927 
L 451.419764 210.209875 
L 451.622121 210.909621 
L 451.824479 210.96149 
L 452.026836 210.539413 
L 452.43155 208.628865 
L 453.038622 203.700789 
L 453.848051 195.302644 
L 454.859837 182.730035 
L 455.466908 171.630045 
L 456.07398 155.225083 
L 457.490481 113.312154 
L 457.895195 108.695622 
L 458.097552 108.163817 
L 458.299909 108.747422 
L 458.704624 112.495703 
L 460.930553 141.523014 
L 461.739982 150.554951 
L 462.144696 157.02613 
L 462.751768 171.796833 
L 463.763554 202.160675 
L 464.168268 208.497796 
L 464.572983 211.422406 
L 464.77534 211.720495 
L 464.977697 211.441856 
L 465.382412 209.700538 
L 465.787126 207.240023 
L 466.798912 198.416207 
L 467.810698 187.722269 
L 468.215413 181.603428 
L 468.620127 173.080492 
L 469.227199 155.012333 
L 470.441342 115.010337 
L 470.846056 108.307825 
L 471.048413 106.950739 
L 471.250771 106.852277 
L 471.453128 107.916413 
L 471.857842 112.422398 
L 473.4767 134.724995 
L 475.095558 151.668644 
L 475.500272 159.855135 
L 476.107344 178.039986 
L 476.916772 203.26641 
L 477.321487 209.653563 
L 477.726201 212.340263 
L 477.928558 212.459172 
L 478.130916 211.974672 
L 478.737987 208.691104 
L 479.345059 203.675398 
L 481.166274 186.499112 
L 481.570988 179.552773 
L 482.17806 163.313874 
L 483.796917 110.347439 
L 484.201632 106.069391 
L 484.403989 105.985475 
L 484.606346 107.076921 
L 485.011061 111.792644 
L 486.427561 132.476276 
L 487.23699 140.04495 
L 487.844062 145.085041 
L 488.248776 150.227232 
L 488.65349 158.226552 
L 489.260562 176.537514 
L 490.069991 202.942482 
L 490.474705 209.774043 
L 490.87942 212.763601 
L 491.081777 212.943297 
L 491.284134 212.452307 
L 491.891206 208.98645 
L 492.498277 203.895066 
L 493.712421 193.292672 
L 494.319492 187.387964 
L 494.724207 180.882197 
L 495.128921 171.198233 
L 495.735993 151.135295 
L 496.747779 115.453408 
L 497.152493 107.674764 
L 497.35485 105.909966 
L 497.557208 105.556719 
L 497.759565 106.439375 
L 498.164279 110.969709 
L 499.783137 134.328649 
L 500.592566 141.276059 
L 501.199637 146.627099 
L 501.604352 152.660501 
L 502.009066 161.924801 
L 502.616138 182.041909 
L 503.223209 201.928795 
L 503.627924 209.316499 
L 504.032638 212.783157 
L 504.234995 213.139797 
L 504.437353 212.771418 
L 504.842067 210.622731 
L 505.449139 206.201121 
L 507.675068 185.248664 
L 508.079782 177.707295 
L 508.686854 160.269492 
L 510.103354 111.789914 
L 510.508069 106.13202 
L 510.710426 105.399204 
L 510.912783 106.020487 
L 511.317498 110.203264 
L 513.138713 135.926378 
L 513.948141 142.527359 
L 514.352856 146.126166 
L 514.75757 151.760775 
L 515.162285 160.548377 
L 515.769356 180.089506 
L 516.376428 200.672064 
L 516.781142 208.648008 
L 517.185857 212.605928 
L 517.388214 213.156502 
L 517.590571 212.963398 
L 517.792928 212.186904 
L 518.4 208.425852 
L 518.4 208.425852 
" clip-path="url(#pd38d3cd4d3)" style="fill: none; stroke: #2ca02c; stroke-width: 1.5; stroke-linecap: square"/>
   </g>
   <g id="patch_3">
    <path d="M 72 320.4 
L 72 43.2 
" style="fill: none; stroke: #000000; stroke-width: 0.8; stroke-linejoin: miter; stroke-linecap: square"/>
   </g>
   <g id="patch_4">
    <path d="M 518.4 320.4 
L 518.4 43.2 
" style="fill: none; stroke: #000000; stroke-width: 0.8; stroke-linejoin: miter; stroke-linecap: square"/>
   </g>
   <g id="patch_5">
    <path d="M 72 320.4 
L 518.4 320.4 
" style="fill: none; stroke: #000000; stroke-width: 0.8; stroke-linejoin: miter; stroke-linecap: square"/>
   </g>
   <g id="patch_6">
    <path d="M 72 43.2 
L 518.4 43.2 
" style="fill: none; stroke: #000000; stroke-width: 0.8; stroke-linejoin: miter; stroke-linecap: square"/>
   </g>
   <g id="text_13">
    <!-- Classic Transformer - model_20231126165918 -->
    <g transform="translate(155.436563 37.2) scale(0.12 -0.12)">
     <defs>
      <path id="DejaVuSans-43" d="M 4122 4306 
L 4122 3641 
Q 3803 3938 3442 4084 
Q 3081 4231 2675 4231 
Q 1875 4231 1450 3742 
Q 1025 3253 1025 2328 
Q 1025 1406 1450 917 
Q 1875 428 2675 428 
Q 3081 428 3442 575 
Q 3803 722 4122 1019 
L 4122 359 
Q 3791 134 3420 21 
Q 3050 -91 2638 -91 
Q 1578 -91 968 557 
Q 359 1206 359 2328 
Q 359 3453 968 4101 
Q 1578 4750 2638 4750 
Q 3056 4750 3426 4639 
Q 3797 4528 4122 4306 
z
" transform="scale(0.015625)"/>
      <path id="DejaVuSans-6c" d="M 603 4863 
L 1178 4863 
L 1178 0 
L 603 0 
L 603 4863 
z
" transform="scale(0.015625)"/>
      <path id="DejaVuSans-61" d="M 2194 1759 
Q 1497 1759 1228 1600 
Q 959 1441 959 1056 
Q 959 750 1161 570 
Q 1363 391 1709 391 
Q 2188 391 2477 730 
Q 2766 1069 2766 1631 
L 2766 1759 
L 2194 1759 
z
M 3341 1997 
L 3341 0 
L 2766 0 
L 2766 531 
Q 2569 213 2275 61 
Q 1981 -91 1556 -91 
Q 1019 -91 701 211 
Q 384 513 384 1019 
Q 384 1609 779 1909 
Q 1175 2209 1959 2209 
L 2766 2209 
L 2766 2266 
Q 2766 2663 2505 2880 
Q 2244 3097 1772 3097 
Q 1472 3097 1187 3025 
Q 903 2953 641 2809 
L 641 3341 
Q 956 3463 1253 3523 
Q 1550 3584 1831 3584 
Q 2591 3584 2966 3190 
Q 3341 2797 3341 1997 
z
" transform="scale(0.015625)"/>
      <path id="DejaVuSans-73" d="M 2834 3397 
L 2834 2853 
Q 2591 2978 2328 3040 
Q 2066 3103 1784 3103 
Q 1356 3103 1142 2972 
Q 928 2841 928 2578 
Q 928 2378 1081 2264 
Q 1234 2150 1697 2047 
L 1894 2003 
Q 2506 1872 2764 1633 
Q 3022 1394 3022 966 
Q 3022 478 2636 193 
Q 2250 -91 1575 -91 
Q 1294 -91 989 -36 
Q 684 19 347 128 
L 347 722 
Q 666 556 975 473 
Q 1284 391 1588 391 
Q 1994 391 2212 530 
Q 2431 669 2431 922 
Q 2431 1156 2273 1281 
Q 2116 1406 1581 1522 
L 1381 1569 
Q 847 1681 609 1914 
Q 372 2147 372 2553 
Q 372 3047 722 3315 
Q 1072 3584 1716 3584 
Q 2034 3584 2315 3537 
Q 2597 3491 2834 3397 
z
" transform="scale(0.015625)"/>
      <path id="DejaVuSans-69" d="M 603 3500 
L 1178 3500 
L 1178 0 
L 603 0 
L 603 3500 
z
M 603 4863 
L 1178 4863 
L 1178 4134 
L 603 4134 
L 603 4863 
z
" transform="scale(0.015625)"/>
      <path id="DejaVuSans-63" d="M 3122 3366 
L 3122 2828 
Q 2878 2963 2633 3030 
Q 2388 3097 2138 3097 
Q 1578 3097 1268 2742 
Q 959 2388 959 1747 
Q 959 1106 1268 751 
Q 1578 397 2138 397 
Q 2388 397 2633 464 
Q 2878 531 3122 666 
L 3122 134 
Q 2881 22 2623 -34 
Q 2366 -91 2075 -91 
Q 1284 -91 818 406 
Q 353 903 353 1747 
Q 353 2603 823 3093 
Q 1294 3584 2113 3584 
Q 2378 3584 2631 3529 
Q 2884 3475 3122 3366 
z
" transform="scale(0.015625)"/>
      <path id="DejaVuSans-20" transform="scale(0.015625)"/>
      <path id="DejaVuSans-54" d="M -19 4666 
L 3928 4666 
L 3928 4134 
L 2272 4134 
L 2272 0 
L 1638 0 
L 1638 4134 
L -19 4134 
L -19 4666 
z
" transform="scale(0.015625)"/>
      <path id="DejaVuSans-72" d="M 2631 2963 
Q 2534 3019 2420 3045 
Q 2306 3072 2169 3072 
Q 1681 3072 1420 2755 
Q 1159 2438 1159 1844 
L 1159 0 
L 581 0 
L 581 3500 
L 1159 3500 
L 1159 2956 
Q 1341 3275 1631 3429 
Q 1922 3584 2338 3584 
Q 2397 3584 2469 3576 
Q 2541 3569 2628 3553 
L 2631 2963 
z
" transform="scale(0.015625)"/>
      <path id="DejaVuSans-6e" d="M 3513 2113 
L 3513 0 
L 2938 0 
L 2938 2094 
Q 2938 2591 2744 2837 
Q 2550 3084 2163 3084 
Q 1697 3084 1428 2787 
Q 1159 2491 1159 1978 
L 1159 0 
L 581 0 
L 581 3500 
L 1159 3500 
L 1159 2956 
Q 1366 3272 1645 3428 
Q 1925 3584 2291 3584 
Q 2894 3584 3203 3211 
Q 3513 2838 3513 2113 
z
" transform="scale(0.015625)"/>
      <path id="DejaVuSans-66" d="M 2375 4863 
L 2375 4384 
L 1825 4384 
Q 1516 4384 1395 4259 
Q 1275 4134 1275 3809 
L 1275 3500 
L 2222 3500 
L 2222 3053 
L 1275 3053 
L 1275 0 
L 697 0 
L 697 3053 
L 147 3053 
L 147 3500 
L 697 3500 
L 697 3744 
Q 697 4328 969 4595 
Q 1241 4863 1831 4863 
L 2375 4863 
z
" transform="scale(0.015625)"/>
      <path id="DejaVuSans-6f" d="M 1959 3097 
Q 1497 3097 1228 2736 
Q 959 2375 959 1747 
Q 959 1119 1226 758 
Q 1494 397 1959 397 
Q 2419 397 2687 759 
Q 2956 1122 2956 1747 
Q 2956 2369 2687 2733 
Q 2419 3097 1959 3097 
z
M 1959 3584 
Q 2709 3584 3137 3096 
Q 3566 2609 3566 1747 
Q 3566 888 3137 398 
Q 2709 -91 1959 -91 
Q 1206 -91 779 398 
Q 353 888 353 1747 
Q 353 2609 779 3096 
Q 1206 3584 1959 3584 
z
" transform="scale(0.015625)"/>
      <path id="DejaVuSans-6d" d="M 3328 2828 
Q 3544 3216 3844 3400 
Q 4144 3584 4550 3584 
Q 5097 3584 5394 3201 
Q 5691 2819 5691 2113 
L 5691 0 
L 5113 0 
L 5113 2094 
Q 5113 2597 4934 2840 
Q 4756 3084 4391 3084 
Q 3944 3084 3684 2787 
Q 3425 2491 3425 1978 
L 3425 0 
L 2847 0 
L 2847 2094 
Q 2847 2600 2669 2842 
Q 2491 3084 2119 3084 
Q 1678 3084 1418 2786 
Q 1159 2488 1159 1978 
L 1159 0 
L 581 0 
L 581 3500 
L 1159 3500 
L 1159 2956 
Q 1356 3278 1631 3431 
Q 1906 3584 2284 3584 
Q 2666 3584 2933 3390 
Q 3200 3197 3328 2828 
z
" transform="scale(0.015625)"/>
      <path id="DejaVuSans-65" d="M 3597 1894 
L 3597 1613 
L 953 1613 
Q 991 1019 1311 708 
Q 1631 397 2203 397 
Q 2534 397 2845 478 
Q 3156 559 3463 722 
L 3463 178 
Q 3153 47 2828 -22 
Q 2503 -91 2169 -91 
Q 1331 -91 842 396 
Q 353 884 353 1716 
Q 353 2575 817 3079 
Q 1281 3584 2069 3584 
Q 2775 3584 3186 3129 
Q 3597 2675 3597 1894 
z
M 3022 2063 
Q 3016 2534 2758 2815 
Q 2500 3097 2075 3097 
Q 1594 3097 1305 2825 
Q 1016 2553 972 2059 
L 3022 2063 
z
" transform="scale(0.015625)"/>
      <path id="DejaVuSans-64" d="M 2906 2969 
L 2906 4863 
L 3481 4863 
L 3481 0 
L 2906 0 
L 2906 525 
Q 2725 213 2448 61 
Q 2172 -91 1784 -91 
Q 1150 -91 751 415 
Q 353 922 353 1747 
Q 353 2572 751 3078 
Q 1150 3584 1784 3584 
Q 2172 3584 2448 3432 
Q 2725 3281 2906 2969 
z
M 947 1747 
Q 947 1113 1208 752 
Q 1469 391 1925 391 
Q 2381 391 2643 752 
Q 2906 1113 2906 1747 
Q 2906 2381 2643 2742 
Q 2381 3103 1925 3103 
Q 1469 3103 1208 2742 
Q 947 2381 947 1747 
z
" transform="scale(0.015625)"/>
      <path id="DejaVuSans-5f" d="M 3263 -1063 
L 3263 -1509 
L -63 -1509 
L -63 -1063 
L 3263 -1063 
z
" transform="scale(0.015625)"/>
      <path id="DejaVuSans-39" d="M 703 97 
L 703 672 
Q 941 559 1184 500 
Q 1428 441 1663 441 
Q 2288 441 2617 861 
Q 2947 1281 2994 2138 
Q 2813 1869 2534 1725 
Q 2256 1581 1919 1581 
Q 1219 1581 811 2004 
Q 403 2428 403 3163 
Q 403 3881 828 4315 
Q 1253 4750 1959 4750 
Q 2769 4750 3195 4129 
Q 3622 3509 3622 2328 
Q 3622 1225 3098 567 
Q 2575 -91 1691 -91 
Q 1453 -91 1209 -44 
Q 966 3 703 97 
z
M 1959 2075 
Q 2384 2075 2632 2365 
Q 2881 2656 2881 3163 
Q 2881 3666 2632 3958 
Q 2384 4250 1959 4250 
Q 1534 4250 1286 3958 
Q 1038 3666 1038 3163 
Q 1038 2656 1286 2365 
Q 1534 2075 1959 2075 
z
" transform="scale(0.015625)"/>
     </defs>
     <use xlink:href="#DejaVuSans-43"/>
     <use xlink:href="#DejaVuSans-6c" x="69.824219"/>
     <use xlink:href="#DejaVuSans-61" x="97.607422"/>
     <use xlink:href="#DejaVuSans-73" x="158.886719"/>
     <use xlink:href="#DejaVuSans-73" x="210.986328"/>
     <use xlink:href="#DejaVuSans-69" x="263.085938"/>
     <use xlink:href="#DejaVuSans-63" x="290.869141"/>
     <use xlink:href="#DejaVuSans-20" x="345.849609"/>
     <use xlink:href="#DejaVuSans-54" x="377.636719"/>
     <use xlink:href="#DejaVuSans-72" x="423.970703"/>
     <use xlink:href="#DejaVuSans-61" x="465.083984"/>
     <use xlink:href="#DejaVuSans-6e" x="526.363281"/>
     <use xlink:href="#DejaVuSans-73" x="589.742188"/>
     <use xlink:href="#DejaVuSans-66" x="641.841797"/>
     <use xlink:href="#DejaVuSans-6f" x="677.046875"/>
     <use xlink:href="#DejaVuSans-72" x="738.228516"/>
     <use xlink:href="#DejaVuSans-6d" x="777.591797"/>
     <use xlink:href="#DejaVuSans-65" x="875.003906"/>
     <use xlink:href="#DejaVuSans-72" x="936.527344"/>
     <use xlink:href="#DejaVuSans-20" x="977.640625"/>
     <use xlink:href="#DejaVuSans-2d" x="1009.427734"/>
     <use xlink:href="#DejaVuSans-20" x="1045.511719"/>
     <use xlink:href="#DejaVuSans-6d" x="1077.298828"/>
     <use xlink:href="#DejaVuSans-6f" x="1174.710938"/>
     <use xlink:href="#DejaVuSans-64" x="1235.892578"/>
     <use xlink:href="#DejaVuSans-65" x="1299.369141"/>
     <use xlink:href="#DejaVuSans-6c" x="1360.892578"/>
     <use xlink:href="#DejaVuSans-5f" x="1388.675781"/>
     <use xlink:href="#DejaVuSans-32" x="1438.675781"/>
     <use xlink:href="#DejaVuSans-30" x="1502.298828"/>
     <use xlink:href="#DejaVuSans-32" x="1565.921875"/>
     <use xlink:href="#DejaVuSans-33" x="1629.544922"/>
     <use xlink:href="#DejaVuSans-31" x="1693.167969"/>
     <use xlink:href="#DejaVuSans-31" x="1756.791016"/>
     <use xlink:href="#DejaVuSans-32" x="1820.414062"/>
     <use xlink:href="#DejaVuSans-36" x="1884.037109"/>
     <use xlink:href="#DejaVuSans-31" x="1947.660156"/>
     <use xlink:href="#DejaVuSans-36" x="2011.283203"/>
     <use xlink:href="#DejaVuSans-35" x="2074.90625"/>
     <use xlink:href="#DejaVuSans-39" x="2138.529297"/>
     <use xlink:href="#DejaVuSans-31" x="2202.152344"/>
     <use xlink:href="#DejaVuSans-38" x="2265.775391"/>
    </g>
   </g>
   <g id="legend_1">
    <g id="patch_7">
     <path d="M 79 95.234375 
L 161.517188 95.234375 
Q 163.517188 95.234375 163.517188 93.234375 
L 163.517188 50.2 
Q 163.517188 48.2 161.517188 48.2 
L 79 48.2 
Q 77 48.2 77 50.2 
L 77 93.234375 
Q 77 95.234375 79 95.234375 
z
" style="fill: #ffffff; opacity: 0.8; stroke: #cccccc; stroke-linejoin: miter"/>
    </g>
    <g id="line2d_16">
     <path d="M 81 56.298437 
L 91 56.298437 
L 101 56.298437 
" style="fill: none; stroke: #1f77b4; stroke-width: 1.5; stroke-linecap: square"/>
    </g>
    <g id="text_14">
     <!-- Measured -->
     <g transform="translate(109 59.798437) scale(0.1 -0.1)">
      <defs>
       <path id="DejaVuSans-4d" d="M 628 4666 
L 1569 4666 
L 2759 1491 
L 3956 4666 
L 4897 4666 
L 4897 0 
L 4281 0 
L 4281 4097 
L 3078 897 
L 2444 897 
L 1241 4097 
L 1241 0 
L 628 0 
L 628 4666 
z
" transform="scale(0.015625)"/>
       <path id="DejaVuSans-75" d="M 544 1381 
L 544 3500 
L 1119 3500 
L 1119 1403 
Q 1119 906 1312 657 
Q 1506 409 1894 409 
Q 2359 409 2629 706 
Q 2900 1003 2900 1516 
L 2900 3500 
L 3475 3500 
L 3475 0 
L 2900 0 
L 2900 538 
Q 2691 219 2414 64 
Q 2138 -91 1772 -91 
Q 1169 -91 856 284 
Q 544 659 544 1381 
z
M 1991 3584 
L 1991 3584 
z
" transform="scale(0.015625)"/>
      </defs>
      <use xlink:href="#DejaVuSans-4d"/>
      <use xlink:href="#DejaVuSans-65" x="86.279297"/>
      <use xlink:href="#DejaVuSans-61" x="147.802734"/>
      <use xlink:href="#DejaVuSans-73" x="209.082031"/>
      <use xlink:href="#DejaVuSans-75" x="261.181641"/>
      <use xlink:href="#DejaVuSans-72" x="324.560547"/>
      <use xlink:href="#DejaVuSans-65" x="363.423828"/>
      <use xlink:href="#DejaVuSans-64" x="424.947266"/>
     </g>
    </g>
    <g id="line2d_17">
     <path d="M 81 70.976562 
L 91 70.976562 
L 101 70.976562 
" style="fill: none; stroke: #ff7f0e; stroke-width: 1.5; stroke-linecap: square"/>
    </g>
    <g id="text_15">
     <!-- Fitted -->
     <g transform="translate(109 74.476562) scale(0.1 -0.1)">
      <defs>
       <path id="DejaVuSans-46" d="M 628 4666 
L 3309 4666 
L 3309 4134 
L 1259 4134 
L 1259 2759 
L 3109 2759 
L 3109 2228 
L 1259 2228 
L 1259 0 
L 628 0 
L 628 4666 
z
" transform="scale(0.015625)"/>
       <path id="DejaVuSans-74" d="M 1172 4494 
L 1172 3500 
L 2356 3500 
L 2356 3053 
L 1172 3053 
L 1172 1153 
Q 1172 725 1289 603 
Q 1406 481 1766 481 
L 2356 481 
L 2356 0 
L 1766 0 
Q 1100 0 847 248 
Q 594 497 594 1153 
L 594 3053 
L 172 3053 
L 172 3500 
L 594 3500 
L 594 4494 
L 1172 4494 
z
" transform="scale(0.015625)"/>
      </defs>
      <use xlink:href="#DejaVuSans-46"/>
      <use xlink:href="#DejaVuSans-69" x="50.269531"/>
      <use xlink:href="#DejaVuSans-74" x="78.052734"/>
      <use xlink:href="#DejaVuSans-74" x="117.261719"/>
      <use xlink:href="#DejaVuSans-65" x="156.470703"/>
      <use xlink:href="#DejaVuSans-64" x="217.994141"/>
     </g>
    </g>
    <g id="line2d_18">
     <path d="M 81 85.654687 
L 91 85.654687 
L 101 85.654687 
" style="fill: none; stroke: #2ca02c; stroke-width: 1.5; stroke-linecap: square"/>
    </g>
    <g id="text_16">
     <!-- Estimated -->
     <g transform="translate(109 89.154687) scale(0.1 -0.1)">
      <defs>
       <path id="DejaVuSans-45" d="M 628 4666 
L 3578 4666 
L 3578 4134 
L 1259 4134 
L 1259 2753 
L 3481 2753 
L 3481 2222 
L 1259 2222 
L 1259 531 
L 3634 531 
L 3634 0 
L 628 0 
L 628 4666 
z
" transform="scale(0.015625)"/>
      </defs>
      <use xlink:href="#DejaVuSans-45"/>
      <use xlink:href="#DejaVuSans-73" x="63.183594"/>
      <use xlink:href="#DejaVuSans-74" x="115.283203"/>
      <use xlink:href="#DejaVuSans-69" x="154.492188"/>
      <use xlink:href="#DejaVuSans-6d" x="182.275391"/>
      <use xlink:href="#DejaVuSans-61" x="279.6875"/>
      <use xlink:href="#DejaVuSans-74" x="340.966797"/>
      <use xlink:href="#DejaVuSans-65" x="380.175781"/>
      <use xlink:href="#DejaVuSans-64" x="441.699219"/>
     </g>
    </g>
   </g>
  </g>
 </g>
 <defs>
  <clipPath id="pd38d3cd4d3">
   <rect x="72" y="43.2" width="446.4" height="277.2"/>
  </clipPath>
 </defs>
</svg>
