<?xml version="1.0" encoding="utf-8" standalone="no"?>
<!DOCTYPE svg PUBLIC "-//W3C//DTD SVG 1.1//EN"
  "http://www.w3.org/Graphics/SVG/1.1/DTD/svg11.dtd">
<svg xmlns:xlink="http://www.w3.org/1999/xlink" width="576pt" height="360pt" viewBox="0 0 576 360" xmlns="http://www.w3.org/2000/svg" version="1.1">
 <metadata>
  <rdf:RDF xmlns:dc="http://purl.org/dc/elements/1.1/" xmlns:cc="http://creativecommons.org/ns#" xmlns:rdf="http://www.w3.org/1999/02/22-rdf-syntax-ns#">
   <cc:Work>
    <dc:type rdf:resource="http://purl.org/dc/dcmitype/StillImage"/>
    <dc:date>2023-11-23T16:42:36.631515</dc:date>
    <dc:format>image/svg+xml</dc:format>
    <dc:creator>
     <cc:Agent>
      <dc:title>Matplotlib v3.8.1, https://matplotlib.org/</dc:title>
     </cc:Agent>
    </dc:creator>
   </cc:Work>
  </rdf:RDF>
 </metadata>
 <defs>
  <style type="text/css">*{stroke-linejoin: round; stroke-linecap: butt}</style>
 </defs>
 <g id="figure_1">
  <g id="patch_1">
   <path d="M 0 360 
L 576 360 
L 576 0 
L 0 0 
z
" style="fill: #ffffff"/>
  </g>
  <g id="axes_1">
   <g id="patch_2">
    <path d="M 72 320.4 
L 518.4 320.4 
L 518.4 43.2 
L 72 43.2 
z
" style="fill: #ffffff"/>
   </g>
   <g id="matplotlib.axis_1">
    <g id="xtick_1">
     <g id="line2d_1">
      <defs>
       <path id="m1f1e4eacca" d="M 0 0 
L 0 3.5 
" style="stroke: #000000; stroke-width: 0.8"/>
      </defs>
      <g>
       <use xlink:href="#m1f1e4eacca" x="129.874161" y="320.4" style="stroke: #000000; stroke-width: 0.8"/>
      </g>
     </g>
     <g id="text_1">
      <!-- 2020-05-15 -->
      <g transform="translate(100.816349 334.998438) scale(0.1 -0.1)">
       <defs>
        <path id="DejaVuSans-32" d="M 1228 531 
L 3431 531 
L 3431 0 
L 469 0 
L 469 531 
Q 828 903 1448 1529 
Q 2069 2156 2228 2338 
Q 2531 2678 2651 2914 
Q 2772 3150 2772 3378 
Q 2772 3750 2511 3984 
Q 2250 4219 1831 4219 
Q 1534 4219 1204 4116 
Q 875 4013 500 3803 
L 500 4441 
Q 881 4594 1212 4672 
Q 1544 4750 1819 4750 
Q 2544 4750 2975 4387 
Q 3406 4025 3406 3419 
Q 3406 3131 3298 2873 
Q 3191 2616 2906 2266 
Q 2828 2175 2409 1742 
Q 1991 1309 1228 531 
z
" transform="scale(0.015625)"/>
        <path id="DejaVuSans-30" d="M 2034 4250 
Q 1547 4250 1301 3770 
Q 1056 3291 1056 2328 
Q 1056 1369 1301 889 
Q 1547 409 2034 409 
Q 2525 409 2770 889 
Q 3016 1369 3016 2328 
Q 3016 3291 2770 3770 
Q 2525 4250 2034 4250 
z
M 2034 4750 
Q 2819 4750 3233 4129 
Q 3647 3509 3647 2328 
Q 3647 1150 3233 529 
Q 2819 -91 2034 -91 
Q 1250 -91 836 529 
Q 422 1150 422 2328 
Q 422 3509 836 4129 
Q 1250 4750 2034 4750 
z
" transform="scale(0.015625)"/>
        <path id="DejaVuSans-2d" d="M 313 2009 
L 1997 2009 
L 1997 1497 
L 313 1497 
L 313 2009 
z
" transform="scale(0.015625)"/>
        <path id="DejaVuSans-35" d="M 691 4666 
L 3169 4666 
L 3169 4134 
L 1269 4134 
L 1269 2991 
Q 1406 3038 1543 3061 
Q 1681 3084 1819 3084 
Q 2600 3084 3056 2656 
Q 3513 2228 3513 1497 
Q 3513 744 3044 326 
Q 2575 -91 1722 -91 
Q 1428 -91 1123 -41 
Q 819 9 494 109 
L 494 744 
Q 775 591 1075 516 
Q 1375 441 1709 441 
Q 2250 441 2565 725 
Q 2881 1009 2881 1497 
Q 2881 1984 2565 2268 
Q 2250 2553 1709 2553 
Q 1456 2553 1204 2497 
Q 953 2441 691 2322 
L 691 4666 
z
" transform="scale(0.015625)"/>
        <path id="DejaVuSans-31" d="M 794 531 
L 1825 531 
L 1825 4091 
L 703 3866 
L 703 4441 
L 1819 4666 
L 2450 4666 
L 2450 531 
L 3481 531 
L 3481 0 
L 794 0 
L 794 531 
z
" transform="scale(0.015625)"/>
       </defs>
       <use xlink:href="#DejaVuSans-32"/>
       <use xlink:href="#DejaVuSans-30" x="63.623047"/>
       <use xlink:href="#DejaVuSans-32" x="127.246094"/>
       <use xlink:href="#DejaVuSans-30" x="190.869141"/>
       <use xlink:href="#DejaVuSans-2d" x="254.492188"/>
       <use xlink:href="#DejaVuSans-30" x="290.576172"/>
       <use xlink:href="#DejaVuSans-35" x="354.199219"/>
       <use xlink:href="#DejaVuSans-2d" x="417.822266"/>
       <use xlink:href="#DejaVuSans-31" x="453.90625"/>
       <use xlink:href="#DejaVuSans-35" x="517.529297"/>
      </g>
     </g>
    </g>
    <g id="xtick_2">
     <g id="line2d_2">
      <g>
       <use xlink:href="#m1f1e4eacca" x="212.435902" y="320.4" style="stroke: #000000; stroke-width: 0.8"/>
      </g>
     </g>
     <g id="text_2">
      <!-- 2020-06-01 -->
      <g transform="translate(183.37809 334.998438) scale(0.1 -0.1)">
       <defs>
        <path id="DejaVuSans-36" d="M 2113 2584 
Q 1688 2584 1439 2293 
Q 1191 2003 1191 1497 
Q 1191 994 1439 701 
Q 1688 409 2113 409 
Q 2538 409 2786 701 
Q 3034 994 3034 1497 
Q 3034 2003 2786 2293 
Q 2538 2584 2113 2584 
z
M 3366 4563 
L 3366 3988 
Q 3128 4100 2886 4159 
Q 2644 4219 2406 4219 
Q 1781 4219 1451 3797 
Q 1122 3375 1075 2522 
Q 1259 2794 1537 2939 
Q 1816 3084 2150 3084 
Q 2853 3084 3261 2657 
Q 3669 2231 3669 1497 
Q 3669 778 3244 343 
Q 2819 -91 2113 -91 
Q 1303 -91 875 529 
Q 447 1150 447 2328 
Q 447 3434 972 4092 
Q 1497 4750 2381 4750 
Q 2619 4750 2861 4703 
Q 3103 4656 3366 4563 
z
" transform="scale(0.015625)"/>
       </defs>
       <use xlink:href="#DejaVuSans-32"/>
       <use xlink:href="#DejaVuSans-30" x="63.623047"/>
       <use xlink:href="#DejaVuSans-32" x="127.246094"/>
       <use xlink:href="#DejaVuSans-30" x="190.869141"/>
       <use xlink:href="#DejaVuSans-2d" x="254.492188"/>
       <use xlink:href="#DejaVuSans-30" x="290.576172"/>
       <use xlink:href="#DejaVuSans-36" x="354.199219"/>
       <use xlink:href="#DejaVuSans-2d" x="417.822266"/>
       <use xlink:href="#DejaVuSans-30" x="453.90625"/>
       <use xlink:href="#DejaVuSans-31" x="517.529297"/>
      </g>
     </g>
    </g>
    <g id="xtick_3">
     <g id="line2d_3">
      <g>
       <use xlink:href="#m1f1e4eacca" x="280.427924" y="320.4" style="stroke: #000000; stroke-width: 0.8"/>
      </g>
     </g>
     <g id="text_3">
      <!-- 2020-06-15 -->
      <g transform="translate(251.370111 334.998438) scale(0.1 -0.1)">
       <use xlink:href="#DejaVuSans-32"/>
       <use xlink:href="#DejaVuSans-30" x="63.623047"/>
       <use xlink:href="#DejaVuSans-32" x="127.246094"/>
       <use xlink:href="#DejaVuSans-30" x="190.869141"/>
       <use xlink:href="#DejaVuSans-2d" x="254.492188"/>
       <use xlink:href="#DejaVuSans-30" x="290.576172"/>
       <use xlink:href="#DejaVuSans-36" x="354.199219"/>
       <use xlink:href="#DejaVuSans-2d" x="417.822266"/>
       <use xlink:href="#DejaVuSans-31" x="453.90625"/>
       <use xlink:href="#DejaVuSans-35" x="517.529297"/>
      </g>
     </g>
    </g>
    <g id="xtick_4">
     <g id="line2d_4">
      <g>
       <use xlink:href="#m1f1e4eacca" x="358.133092" y="320.4" style="stroke: #000000; stroke-width: 0.8"/>
      </g>
     </g>
     <g id="text_4">
      <!-- 2020-07-01 -->
      <g transform="translate(329.075279 334.998438) scale(0.1 -0.1)">
       <defs>
        <path id="DejaVuSans-37" d="M 525 4666 
L 3525 4666 
L 3525 4397 
L 1831 0 
L 1172 0 
L 2766 4134 
L 525 4134 
L 525 4666 
z
" transform="scale(0.015625)"/>
       </defs>
       <use xlink:href="#DejaVuSans-32"/>
       <use xlink:href="#DejaVuSans-30" x="63.623047"/>
       <use xlink:href="#DejaVuSans-32" x="127.246094"/>
       <use xlink:href="#DejaVuSans-30" x="190.869141"/>
       <use xlink:href="#DejaVuSans-2d" x="254.492188"/>
       <use xlink:href="#DejaVuSans-30" x="290.576172"/>
       <use xlink:href="#DejaVuSans-37" x="354.199219"/>
       <use xlink:href="#DejaVuSans-2d" x="417.822266"/>
       <use xlink:href="#DejaVuSans-30" x="453.90625"/>
       <use xlink:href="#DejaVuSans-31" x="517.529297"/>
      </g>
     </g>
    </g>
    <g id="xtick_5">
     <g id="line2d_5">
      <g>
       <use xlink:href="#m1f1e4eacca" x="426.125113" y="320.4" style="stroke: #000000; stroke-width: 0.8"/>
      </g>
     </g>
     <g id="text_5">
      <!-- 2020-07-15 -->
      <g transform="translate(397.067301 334.998438) scale(0.1 -0.1)">
       <use xlink:href="#DejaVuSans-32"/>
       <use xlink:href="#DejaVuSans-30" x="63.623047"/>
       <use xlink:href="#DejaVuSans-32" x="127.246094"/>
       <use xlink:href="#DejaVuSans-30" x="190.869141"/>
       <use xlink:href="#DejaVuSans-2d" x="254.492188"/>
       <use xlink:href="#DejaVuSans-30" x="290.576172"/>
       <use xlink:href="#DejaVuSans-37" x="354.199219"/>
       <use xlink:href="#DejaVuSans-2d" x="417.822266"/>
       <use xlink:href="#DejaVuSans-31" x="453.90625"/>
       <use xlink:href="#DejaVuSans-35" x="517.529297"/>
      </g>
     </g>
    </g>
    <g id="xtick_6">
     <g id="line2d_6">
      <g>
       <use xlink:href="#m1f1e4eacca" x="508.686854" y="320.4" style="stroke: #000000; stroke-width: 0.8"/>
      </g>
     </g>
     <g id="text_6">
      <!-- 2020-08-01 -->
      <g transform="translate(479.629042 334.998438) scale(0.1 -0.1)">
       <defs>
        <path id="DejaVuSans-38" d="M 2034 2216 
Q 1584 2216 1326 1975 
Q 1069 1734 1069 1313 
Q 1069 891 1326 650 
Q 1584 409 2034 409 
Q 2484 409 2743 651 
Q 3003 894 3003 1313 
Q 3003 1734 2745 1975 
Q 2488 2216 2034 2216 
z
M 1403 2484 
Q 997 2584 770 2862 
Q 544 3141 544 3541 
Q 544 4100 942 4425 
Q 1341 4750 2034 4750 
Q 2731 4750 3128 4425 
Q 3525 4100 3525 3541 
Q 3525 3141 3298 2862 
Q 3072 2584 2669 2484 
Q 3125 2378 3379 2068 
Q 3634 1759 3634 1313 
Q 3634 634 3220 271 
Q 2806 -91 2034 -91 
Q 1263 -91 848 271 
Q 434 634 434 1313 
Q 434 1759 690 2068 
Q 947 2378 1403 2484 
z
M 1172 3481 
Q 1172 3119 1398 2916 
Q 1625 2713 2034 2713 
Q 2441 2713 2670 2916 
Q 2900 3119 2900 3481 
Q 2900 3844 2670 4047 
Q 2441 4250 2034 4250 
Q 1625 4250 1398 4047 
Q 1172 3844 1172 3481 
z
" transform="scale(0.015625)"/>
       </defs>
       <use xlink:href="#DejaVuSans-32"/>
       <use xlink:href="#DejaVuSans-30" x="63.623047"/>
       <use xlink:href="#DejaVuSans-32" x="127.246094"/>
       <use xlink:href="#DejaVuSans-30" x="190.869141"/>
       <use xlink:href="#DejaVuSans-2d" x="254.492188"/>
       <use xlink:href="#DejaVuSans-30" x="290.576172"/>
       <use xlink:href="#DejaVuSans-38" x="354.199219"/>
       <use xlink:href="#DejaVuSans-2d" x="417.822266"/>
       <use xlink:href="#DejaVuSans-30" x="453.90625"/>
       <use xlink:href="#DejaVuSans-31" x="517.529297"/>
      </g>
     </g>
    </g>
   </g>
   <g id="matplotlib.axis_2">
    <g id="ytick_1">
     <g id="line2d_7">
      <defs>
       <path id="ma96f1db38c" d="M 0 0 
L -3.5 0 
" style="stroke: #000000; stroke-width: 0.8"/>
      </defs>
      <g>
       <use xlink:href="#ma96f1db38c" x="72" y="315.806379" style="stroke: #000000; stroke-width: 0.8"/>
      </g>
     </g>
     <g id="text_7">
      <!-- −2 -->
      <g transform="translate(50.257812 319.605598) scale(0.1 -0.1)">
       <defs>
        <path id="DejaVuSans-2212" d="M 678 2272 
L 4684 2272 
L 4684 1741 
L 678 1741 
L 678 2272 
z
" transform="scale(0.015625)"/>
       </defs>
       <use xlink:href="#DejaVuSans-2212"/>
       <use xlink:href="#DejaVuSans-32" x="83.789062"/>
      </g>
     </g>
    </g>
    <g id="ytick_2">
     <g id="line2d_8">
      <g>
       <use xlink:href="#ma96f1db38c" x="72" y="263.470937" style="stroke: #000000; stroke-width: 0.8"/>
      </g>
     </g>
     <g id="text_8">
      <!-- −1 -->
      <g transform="translate(50.257812 267.270156) scale(0.1 -0.1)">
       <use xlink:href="#DejaVuSans-2212"/>
       <use xlink:href="#DejaVuSans-31" x="83.789062"/>
      </g>
     </g>
    </g>
    <g id="ytick_3">
     <g id="line2d_9">
      <g>
       <use xlink:href="#ma96f1db38c" x="72" y="211.135495" style="stroke: #000000; stroke-width: 0.8"/>
      </g>
     </g>
     <g id="text_9">
      <!-- 0 -->
      <g transform="translate(58.6375 214.934714) scale(0.1 -0.1)">
       <use xlink:href="#DejaVuSans-30"/>
      </g>
     </g>
    </g>
    <g id="ytick_4">
     <g id="line2d_10">
      <g>
       <use xlink:href="#ma96f1db38c" x="72" y="158.800053" style="stroke: #000000; stroke-width: 0.8"/>
      </g>
     </g>
     <g id="text_10">
      <!-- 1 -->
      <g transform="translate(58.6375 162.599271) scale(0.1 -0.1)">
       <use xlink:href="#DejaVuSans-31"/>
      </g>
     </g>
    </g>
    <g id="ytick_5">
     <g id="line2d_11">
      <g>
       <use xlink:href="#ma96f1db38c" x="72" y="106.46461" style="stroke: #000000; stroke-width: 0.8"/>
      </g>
     </g>
     <g id="text_11">
      <!-- 2 -->
      <g transform="translate(58.6375 110.263829) scale(0.1 -0.1)">
       <use xlink:href="#DejaVuSans-32"/>
      </g>
     </g>
    </g>
    <g id="ytick_6">
     <g id="line2d_12">
      <g>
       <use xlink:href="#ma96f1db38c" x="72" y="54.129168" style="stroke: #000000; stroke-width: 0.8"/>
      </g>
     </g>
     <g id="text_12">
      <!-- 3 -->
      <g transform="translate(58.6375 57.928387) scale(0.1 -0.1)">
       <defs>
        <path id="DejaVuSans-33" d="M 2597 2516 
Q 3050 2419 3304 2112 
Q 3559 1806 3559 1356 
Q 3559 666 3084 287 
Q 2609 -91 1734 -91 
Q 1441 -91 1130 -33 
Q 819 25 488 141 
L 488 750 
Q 750 597 1062 519 
Q 1375 441 1716 441 
Q 2309 441 2620 675 
Q 2931 909 2931 1356 
Q 2931 1769 2642 2001 
Q 2353 2234 1838 2234 
L 1294 2234 
L 1294 2753 
L 1863 2753 
Q 2328 2753 2575 2939 
Q 2822 3125 2822 3475 
Q 2822 3834 2567 4026 
Q 2313 4219 1838 4219 
Q 1578 4219 1281 4162 
Q 984 4106 628 3988 
L 628 4550 
Q 988 4650 1302 4700 
Q 1616 4750 1894 4750 
Q 2613 4750 3031 4423 
Q 3450 4097 3450 3541 
Q 3450 3153 3228 2886 
Q 3006 2619 2597 2516 
z
" transform="scale(0.015625)"/>
       </defs>
       <use xlink:href="#DejaVuSans-33"/>
      </g>
     </g>
    </g>
   </g>
   <g id="line2d_13">
    <path d="M 72 287.56914 
L 72.404714 298.66017 
L 72.607072 296.975977 
L 72.809429 286.542193 
L 73.214143 256.308868 
L 73.618858 244.149813 
L 75.035358 163.020986 
L 75.237715 160.124995 
L 75.440073 165.07488 
L 75.64243 173.105607 
L 75.844787 176.330221 
L 76.047144 191.241494 
L 76.654216 259.9648 
L 77.05893 283.50243 
L 77.261287 287.77453 
L 77.463645 287.404829 
L 77.666002 276.929968 
L 78.070716 249.058621 
L 78.475431 236.858488 
L 78.677788 227.924048 
L 79.487217 172.181355 
L 79.891931 156.263673 
L 80.094288 158.173795 
L 80.903717 199.662461 
L 81.713146 273.356191 
L 82.11786 287.692374 
L 82.320218 289.684652 
L 82.522575 289.397106 
L 82.724932 286.932433 
L 82.927289 280.257276 
L 83.332004 257.767133 
L 83.736718 243.759574 
L 83.939075 240.781427 
L 84.141432 241.048433 
L 84.546147 247.312811 
L 84.748504 249.366705 
L 84.950861 249.387244 
L 85.355576 253.495033 
L 85.557933 250.229341 
L 85.76029 256.226712 
L 86.569719 300.22113 
L 86.772076 306.177423 
L 86.974433 307.738383 
L 87.176791 307.8 
L 87.379148 306.485508 
L 87.581505 302.829576 
L 87.783862 296.216036 
L 88.188577 274.629606 
L 88.390934 269.556487 
L 89.200363 261.648993 
L 89.40272 257.602822 
L 89.807434 243.122866 
L 90.212149 240.71981 
L 90.414506 238.070286 
L 90.616863 245.854546 
L 91.223935 295.373939 
L 91.628649 306.177423 
L 91.831006 306.23904 
L 92.033364 303.794906 
L 92.842792 258.60923 
L 93.04515 256.514258 
L 93.449864 248.093291 
L 93.652221 247.579817 
L 93.854578 244.704365 
L 94.056936 244.088197 
L 94.259293 241.520829 
L 94.46165 235.256451 
L 94.664007 232.463154 
L 94.866364 233.366868 
L 95.068722 236.44771 
L 95.271079 232.689083 
L 95.473436 242.588854 
L 96.080508 295.74364 
L 96.485222 304.760236 
L 96.687579 306.62928 
L 96.889937 302.377719 
L 97.699365 257.890367 
L 98.306437 247.600356 
L 98.508794 247.230655 
L 99.52058 226.445244 
L 99.722937 227.677581 
L 99.925295 231.949681 
L 100.127652 230.162793 
L 100.330009 240.103642 
L 100.937081 293.320045 
L 101.341795 305.335327 
L 101.544152 306.300657 
L 101.74651 302.665264 
L 101.948867 290.958066 
L 102.353581 261.546299 
L 102.555938 260.026417 
L 103.567724 242.609393 
L 104.377153 220.961346 
L 104.57951 222.214222 
L 104.781868 227.49273 
L 104.984225 227.472191 
L 105.186582 236.180703 
L 105.793654 290.239203 
L 106.198368 302.726881 
L 106.400725 304.452152 
L 106.603083 300.508675 
L 107.412511 255.528388 
L 107.614869 253.844195 
L 107.817226 250.24988 
L 108.22194 236.016392 
L 108.626655 214.758585 
L 108.829012 208.946064 
L 109.031369 207.097559 
L 109.638441 215.600682 
L 109.840798 220.920268 
L 110.043155 231.107584 
L 110.650227 285.022311 
L 111.054941 298.988793 
L 111.257298 300.857837 
L 111.459655 299.153105 
L 111.662013 287.979919 
L 112.066727 259.328093 
L 112.471442 244.642748 
L 113.887942 177.644714 
L 114.090299 175.323813 
L 114.292656 181.99897 
L 114.495014 193.192694 
L 114.697371 197.690723 
L 115.102085 231.004889 
L 115.709157 279.353563 
L 116.113871 293.011961 
L 116.316228 293.176272 
L 116.518586 291.553696 
L 116.720943 288.000458 
L 117.125657 261.32037 
L 118.542158 158.810502 
L 118.744515 148.910731 
L 118.946872 145.111027 
L 119.149229 148.705342 
L 119.756301 185.798674 
L 120.56573 263.518037 
L 120.970444 282.927339 
L 121.172801 286.932433 
L 121.375159 288.534471 
L 121.577516 287.117284 
L 121.779873 279.353563 
L 122.589302 229.402852 
L 123.196374 204.468574 
L 123.398731 199.991084 
L 123.601088 200.196474 
L 123.803445 199.641922 
L 124.410517 212.766307 
L 124.612874 223.508175 
L 125.219946 278.6347 
L 125.62466 292.868188 
L 125.827017 294.819388 
L 126.029374 292.334175 
L 127.04116 237.104956 
L 127.648232 200.46348 
L 128.255304 158.954275 
L 128.457661 151.560255 
L 128.660018 151.231632 
L 129.26709 194.650959 
L 130.278876 283.625663 
L 130.481233 291.286689 
L 130.68359 292.64226 
L 130.885947 290.115969 
L 132.504805 183.436696 
L 133.111877 141.639945 
L 133.314234 132.41796 
L 133.516591 134.081614 
L 133.921306 149.13666 
L 134.123663 156.407446 
L 135.135449 264.031511 
L 135.540163 276.395955 
L 135.74252 275.471703 
L 135.944878 265.099536 
L 136.349592 234.332198 
L 136.551949 227.69812 
L 136.754306 216.073077 
L 136.956664 220.550567 
L 137.159021 209.480076 
L 137.766092 200.833181 
L 137.96845 201.223421 
L 138.373164 195.924374 
L 138.777879 203.318393 
L 138.980236 204.139951 
L 139.182593 215.703376 
L 139.789665 271.179063 
L 140.194379 286.234109 
L 140.396736 288.267465 
L 140.599093 285.309857 
L 141.003808 255.713239 
L 141.408522 234.968906 
L 142.015594 221.844521 
L 142.622665 212.889541 
L 142.825023 212.622535 
L 143.02738 211.431276 
L 143.229737 212.109061 
L 143.634451 217.284875 
L 143.836809 216.073077 
L 144.039166 226.055004 
L 144.646238 274.403678 
L 145.050952 286.254648 
L 145.253309 287.528063 
L 145.455666 284.447221 
L 145.860381 255.384616 
L 146.062738 239.261545 
L 146.66981 223.117935 
L 146.872167 220.48895 
L 147.074524 219.420925 
L 147.479238 208.535285 
L 147.681596 216.833018 
L 147.883953 217.798349 
L 148.08631 220.365717 
L 148.491024 229.505547 
L 148.693382 228.170515 
L 149.098096 251.358983 
L 149.502811 278.983862 
L 149.907525 291.86178 
L 150.109882 293.895135 
L 150.312239 293.320045 
L 150.514597 290.526748 
L 150.716954 284.878539 
L 151.121668 264.216361 
L 151.526383 243.923885 
L 151.931097 238.172981 
L 152.133454 237.741663 
L 152.335811 239.692863 
L 152.538169 240.206336 
L 152.740526 238.172981 
L 152.942883 238.460526 
L 153.14524 237.495196 
L 153.347597 237.536274 
L 153.549955 234.640283 
L 153.752312 236.817411 
L 154.764098 287.795069 
L 154.966455 291.718007 
L 155.168812 293.094116 
L 155.573527 289.191717 
L 155.775884 278.223921 
L 156.78767 201.018032 
L 157.799456 158.789963 
L 158.001813 160.782241 
L 158.406528 173.865548 
L 158.608885 187.298017 
L 159.215956 255.30246 
L 159.620671 276.704039 
L 159.823028 279.887576 
L 160.025385 278.983862 
L 160.227743 269.268942 
L 160.632457 237.104956 
L 161.8466 187.256939 
L 162.251315 177.295552 
L 162.453672 177.439324 
L 162.656029 180.273699 
L 163.465458 211.800977 
L 164.072529 271.117447 
L 164.477244 289.561418 
L 164.679601 289.890041 
L 164.881958 286.685966 
L 165.084316 276.621883 
L 165.48903 245.135683 
L 166.500816 210.363251 
L 167.310245 167.827099 
L 167.512602 171.154408 
L 167.917316 191.549579 
L 168.119674 195.965452 
L 168.322031 207.220793 
L 168.929102 266.105944 
L 169.333817 281.16099 
L 169.536174 284.65261 
L 169.738531 281.017217 
L 170.143246 253.967429 
L 170.54796 223.918954 
L 171.357389 179.739686 
L 171.559746 173.762853 
L 172.166818 149.773367 
L 172.369175 151.375405 
L 172.571532 159.221281 
L 173.178604 197.855034 
L 173.785675 268.32415 
L 174.19039 287.548602 
L 174.392747 290.506209 
L 174.595104 288.698782 
L 174.999819 264.709296 
L 175.404533 239.918791 
L 177.023391 162.343201 
L 177.225748 162.856674 
L 177.428105 166.738535 
L 177.630462 183.190229 
L 177.83282 185.613824 
L 178.237534 229.361774 
L 178.642248 271.918465 
L 179.046963 290.958066 
L 179.24932 294.655076 
L 179.451677 292.149325 
L 179.654034 283.522969 
L 180.261106 243.985502 
L 181.879964 147.78109 
L 182.082321 144.535936 
L 182.284678 150.163607 
L 183.094107 206.070612 
L 183.498821 244.786521 
L 183.903536 266.085405 
L 184.30825 273.869665 
L 184.510607 275.225235 
L 184.712965 271.610381 
L 184.915322 258.321685 
L 185.724751 176.884773 
L 186.129465 155.647505 
L 186.331822 149.629595 
L 186.53418 148.869654 
L 186.736537 151.395944 
L 187.748323 191.570118 
L 188.557752 255.343538 
L 188.962466 269.433253 
L 189.164823 271.466609 
L 189.36718 271.548764 
L 189.569538 270.809362 
L 189.771895 260.088034 
L 190.986038 164.68464 
L 191.188395 159.406132 
L 191.390752 159.365054 
L 191.795467 168.463806 
L 192.604896 199.600845 
L 193.414325 262.593785 
L 193.819039 276.231644 
L 194.021396 277.299669 
L 194.426111 273.356191 
L 194.628468 264.44229 
L 195.437897 203.831867 
L 195.640254 198.840904 
L 195.842611 200.052701 
L 196.247325 206.091151 
L 196.449683 206.666241 
L 196.65204 206.276001 
L 197.056754 214.450501 
L 197.259112 215.292598 
L 197.461469 223.672487 
L 198.06854 271.815771 
L 198.473255 285.946564 
L 198.675612 286.049259 
L 198.877969 282.413866 
L 199.282684 251.749223 
L 199.687398 229.012612 
L 201.306256 162.856674 
L 201.508613 161.706493 
L 202.115684 180.82825 
L 202.318042 191.939819 
L 202.925113 255.774856 
L 203.329828 273.356191 
L 203.532185 275.451164 
L 203.734542 272.473017 
L 203.936899 260.991747 
L 204.341614 227.123029 
L 205.758114 172.65375 
L 205.960471 170.168538 
L 206.162829 170.312311 
L 206.365186 171.729498 
L 206.7699 183.539391 
L 206.972257 186.722927 
L 207.174615 197.526411 
L 207.781686 256.370485 
L 208.186401 272.473017 
L 208.388758 275.51278 
L 208.591115 272.185472 
L 208.793472 260.35504 
L 209.198187 226.671172 
L 209.805258 204.468574 
L 210.209973 184.648494 
L 210.817044 143.09821 
L 211.019402 134.636166 
L 211.221759 137.593774 
L 211.626473 161.994039 
L 211.82883 167.190391 
L 212.031188 181.875736 
L 212.638259 246.717181 
L 213.042974 265.243309 
L 213.245331 269.227864 
L 213.447688 267.523131 
L 213.650045 256.842881 
L 214.257117 213.711099 
L 214.661831 187.44179 
L 215.47126 128.269093 
L 215.875975 111.591471 
L 216.078332 111.119075 
L 216.280689 116.644051 
L 217.090118 180.232621 
L 217.697189 241.972685 
L 218.101904 260.375579 
L 218.304261 263.723427 
L 218.506618 265.078997 
L 218.708976 263.826122 
L 218.911333 251.133054 
L 219.518404 196.499464 
L 220.125476 161.398409 
L 220.327833 159.24182 
L 220.53019 161.460026 
L 221.541976 203.647016 
L 221.744334 208.781752 
L 222.553762 265.510315 
L 222.958477 276.354877 
L 223.160834 278.05961 
L 223.363191 278.408772 
L 223.565549 276.847812 
L 223.767906 268.159839 
L 224.374977 230.060098 
L 224.779692 222.501767 
L 225.386763 224.555661 
L 225.589121 228.067821 
L 225.791478 228.950995 
L 226.196192 237.310345 
L 226.398549 236.961183 
L 226.600907 243.369334 
L 227.410335 296.832204 
L 227.612693 300.857837 
L 227.81505 302.54203 
L 228.017407 299.358494 
L 228.826836 256.883959 
L 229.029193 254.563058 
L 229.23155 248.832693 
L 230.648051 185.593285 
L 230.850408 186.168375 
L 231.255122 200.545636 
L 231.45748 211.410737 
L 232.064551 274.917151 
L 232.469266 292.04663 
L 232.671623 294.757771 
L 232.87398 293.545973 
L 233.278694 268.32415 
L 233.683409 245.854546 
L 235.302267 181.444418 
L 235.504624 180.848789 
L 236.111695 199.908929 
L 236.314053 210.240017 
L 236.921124 272.206011 
L 237.325839 288.041536 
L 237.528196 291.163456 
L 237.730553 289.047944 
L 238.135267 265.161153 
L 238.539982 243.43095 
L 239.349411 212.581457 
L 239.754125 202.59953 
L 240.15884 192.412214 
L 240.361197 192.165747 
L 240.563554 197.608567 
L 240.968268 215.169364 
L 241.170626 222.727695 
L 241.777697 278.121226 
L 242.182412 293.936213 
L 242.384769 296.421425 
L 242.587126 293.443278 
L 242.99184 268.796546 
L 243.396555 250.886587 
L 245.21777 176.432916 
L 245.420127 180.663938 
L 246.027199 207.385104 
L 246.836627 280.668055 
L 247.038985 289.006867 
L 247.241342 292.169864 
L 247.443699 289.643574 
L 247.848413 266.147022 
L 249.467271 154.456246 
L 249.669628 146.40498 
L 249.871985 144.47432 
L 250.074343 144.638631 
L 250.2767 151.560255 
L 250.883772 183.580468 
L 251.6932 258.342224 
L 252.097915 272.822179 
L 252.300272 275.882481 
L 252.502629 276.149488 
L 252.704986 272.288166 
L 253.109701 239.631246 
L 253.91913 166.63584 
L 254.323844 150.88247 
L 254.728558 142.091802 
L 254.930916 140.838927 
L 255.133273 148.315102 
L 255.740345 185.675441 
L 256.549773 260.663124 
L 256.954488 276.087871 
L 257.156845 279.887576 
L 257.359202 281.55123 
L 257.561559 280.5859 
L 257.966274 251.790301 
L 258.573345 201.552044 
L 258.97806 179.945075 
L 259.382774 168.956741 
L 259.585131 165.526737 
L 259.787489 165.095419 
L 259.989846 167.703865 
L 260.39456 183.642085 
L 260.596917 196.951321 
L 261.203989 258.753002 
L 261.608704 277.402363 
L 261.811061 280.318893 
L 262.013418 279.538413 
L 262.418132 255.651622 
L 262.62049 243.677418 
L 263.025204 234.044653 
L 263.227561 231.251357 
L 263.429918 230.244949 
L 263.834633 231.518363 
L 264.03699 231.210279 
L 264.239347 232.15507 
L 264.441704 232.237226 
L 264.644062 231.97022 
L 264.846419 234.003575 
L 265.048776 238.029208 
L 265.251133 238.029208 
L 265.45349 242.034302 
L 266.060562 284.365065 
L 266.465277 297.160827 
L 266.667634 298.701248 
L 266.869991 294.531842 
L 267.072348 286.60381 
L 267.477063 260.190728 
L 268.084134 238.090825 
L 268.488849 227.841892 
L 269.09592 216.627629 
L 269.500635 212.684152 
L 269.702992 214.86128 
L 269.905349 218.455595 
L 270.107706 219.13338 
L 270.310063 225.418297 
L 270.917135 274.116132 
L 271.32185 286.049259 
L 271.524207 288.185309 
L 271.726564 286.480576 
L 274.15485 145.357494 
L 274.357208 138.209942 
L 274.559565 141.537251 
L 275.166636 166.615301 
L 275.976065 247.928979 
L 276.38078 260.457735 
L 276.583137 259.759411 
L 276.987851 237.98813 
L 277.392566 209.171992 
L 278.404352 152.402352 
L 278.606709 149.362588 
L 279.011423 136.176586 
L 279.213781 134.574549 
L 279.416138 138.82611 
L 280.023209 180.417471 
L 280.630281 251.543833 
L 281.034995 274.259905 
L 281.237353 279.127635 
L 281.43971 277.587214 
L 281.642067 271.713076 
L 282.249139 230.080637 
L 282.85621 196.540542 
L 283.867996 153.881156 
L 284.070354 152.689897 
L 284.272711 160.823319 
L 285.284497 243.656879 
L 285.689211 275.738709 
L 286.093926 290.444593 
L 286.296283 292.724415 
L 286.49864 290.916988 
L 286.700997 287.979919 
L 287.105712 257.04827 
L 287.712783 205.639294 
L 288.522212 162.322662 
L 288.724569 155.216187 
L 288.926927 153.285527 
L 289.129284 156.859303 
L 289.736355 190.584248 
L 290.545784 260.478274 
L 290.950499 275.71817 
L 291.152856 278.490927 
L 291.355213 278.573083 
L 291.55757 277.094279 
L 291.759927 264.647679 
L 292.771714 166.225061 
L 293.176428 144.289469 
L 293.581142 133.075206 
L 293.7835 131.349935 
L 293.985857 134.862094 
L 294.592928 160.330384 
L 295.402357 243.410411 
L 295.807072 258.075217 
L 296.009429 257.910906 
L 296.414143 237.659507 
L 297.830644 102.841881 
L 298.235358 89.553184 
L 298.437715 86.965277 
L 298.640073 87.232284 
L 298.84243 89.286178 
L 299.044787 97.316905 
L 299.449501 124.263999 
L 300.056573 203.19516 
L 300.461287 228.416983 
L 300.663645 234.434893 
L 300.866002 235.153756 
L 301.068359 228.334827 
L 301.473073 198.306891 
L 302.484859 93.085883 
L 302.687217 81.768925 
L 302.889574 81.871619 
L 303.091931 89.963963 
L 303.496646 98.610858 
L 303.90136 120.854534 
L 304.306074 148.787498 
L 304.913146 217.983199 
L 305.31786 243.328256 
L 305.520218 248.894309 
L 305.722575 247.107421 
L 305.924932 239.980408 
L 306.532004 200.032162 
L 307.54379 130.035442 
L 307.746147 119.827587 
L 307.948504 118.944413 
L 308.757933 151.211093 
L 309.162647 177.275013 
L 309.769719 240.267953 
L 310.174433 260.149651 
L 310.376791 264.544985 
L 310.579148 263.969894 
L 310.983862 240.555498 
L 312.198005 136.525748 
L 312.60272 124.900706 
L 312.805077 120.525911 
L 313.007434 121.080463 
L 313.209791 124.777473 
L 313.816863 152.361274 
L 314.01922 166.040211 
L 314.626292 228.622372 
L 315.031006 249.120238 
L 315.233364 253.700422 
L 315.435721 253.043176 
L 315.840435 234.270582 
L 316.24515 215.559604 
L 316.649864 203.544322 
L 317.054578 188.242809 
L 317.66165 180.725555 
L 317.864007 180.273699 
L 318.066364 179.369985 
L 318.268722 184.052864 
L 318.875793 206.193845 
L 319.685222 264.791452 
L 320.089937 277.566675 
L 320.292294 279.20979 
L 320.697008 271.281758 
L 321.101723 245.053527 
L 322.315866 167.128775 
L 322.72058 156.879842 
L 322.922937 154.558941 
L 323.125295 158.687269 
L 323.732366 186.312148 
L 324.541795 254.850603 
L 324.94651 269.145708 
L 325.148867 272.041699 
L 325.351224 272.103316 
L 325.553581 269.844032 
L 325.755938 257.520666 
L 326.970082 145.111027 
L 327.172439 138.785032 
L 327.374796 137.203534 
L 327.77951 131.63748 
L 327.981868 136.628443 
L 328.184225 145.419111 
L 328.791296 197.074554 
L 329.196011 240.801966 
L 329.398368 256.041862 
L 329.803083 266.147022 
L 330.00544 265.202231 
L 330.207797 259.595099 
L 330.814869 211.082114 
L 331.42194 172.85914 
L 331.826655 150.184146 
L 332.029012 147.288155 
L 332.231369 147.308694 
L 332.433726 147.493544 
L 332.636083 149.588517 
L 332.838441 154.127623 
L 333.243155 177.049084 
L 333.445512 186.065681 
L 334.052584 251.790301 
L 334.457298 273.58212 
L 334.659655 279.004401 
L 334.862013 276.601345 
L 335.266727 256.760725 
L 335.671442 232.401538 
L 336.48087 192.288981 
L 336.683228 187.215862 
L 336.885585 186.106759 
L 337.087942 179.924536 
L 337.290299 178.076032 
L 337.695014 184.545799 
L 338.099728 199.005215 
L 338.302085 204.879353 
L 339.111514 270.706668 
L 339.313871 276.909429 
L 339.516228 279.148174 
L 339.718586 275.081463 
L 340.1233 251.728684 
L 340.932729 207.261871 
L 342.349229 145.501267 
L 342.551587 145.419111 
L 343.158658 170.106921 
L 343.76573 232.873933 
L 344.170444 250.886587 
L 344.372801 255.651622 
L 344.575159 253.515572 
L 344.777516 246.593948 
L 345.18223 215.703376 
L 346.194016 133.054667 
L 346.598731 118.287166 
L 347.003445 111.673627 
L 347.205802 110.83153 
L 347.40816 114.015066 
L 347.610517 121.860943 
L 348.015231 147.96594 
L 348.82466 239.097233 
L 349.229374 256.206173 
L 349.431732 255.446232 
L 349.634089 249.65425 
L 349.836446 238.522143 
L 351.050589 134.081614 
L 351.455304 115.719798 
L 351.860018 106.867514 
L 352.062375 105.9638 
L 352.264733 109.599193 
L 352.46709 120.690223 
L 353.276519 203.790789 
L 353.681233 241.726218 
L 354.085947 261.916 
L 354.288305 267.194508 
L 354.490662 267.769599 
L 354.693019 265.530854 
L 355.097733 223.487636 
L 355.704805 149.650133 
L 356.109519 124.941784 
L 356.716591 106.74428 
L 356.918948 105.655716 
L 357.121306 110.461829 
L 357.52602 136.094431 
L 357.728377 148.787498 
L 358.740163 244.293586 
L 359.144878 257.274198 
L 359.347235 259.143242 
L 359.549592 258.814619 
L 359.751949 244.80706 
L 360.763735 124.140765 
L 361.16845 105.060087 
L 361.573164 93.948518 
L 361.775521 91.648156 
L 361.977879 94.934387 
L 362.180236 101.938167 
L 362.58495 127.735081 
L 363.394379 216.524934 
L 363.799093 234.188426 
L 364.001451 235.009984 
L 364.203808 229.115307 
L 364.406165 219.051224 
L 365.013237 149.424205 
L 365.620308 84.808688 
L 366.025023 68.624001 
L 366.429737 62.441778 
L 366.632094 62.934713 
L 366.834451 65.584237 
L 367.036809 74.313288 
L 367.441523 103.540205 
L 368.048595 183.272384 
L 368.453309 213.834333 
L 368.655666 222.378533 
L 368.858024 224.761051 
L 369.060381 220.858651 
L 369.262738 210.979419 
L 369.86981 147.349772 
L 370.476881 89.080788 
L 370.881596 72.423705 
L 371.083953 71.971848 
L 371.28631 72.690711 
L 371.488667 76.634189 
L 371.691024 82.878027 
L 372.298096 121.943098 
L 373.107525 207.138637 
L 373.512239 229.423391 
L 373.714597 233.798186 
L 374.119311 233.099862 
L 374.321668 220.324639 
L 375.333454 116.233272 
L 375.738169 102.944575 
L 375.940526 100.233435 
L 376.142883 99.124332 
L 376.34524 104.320685 
L 376.749955 130.631072 
L 377.559383 189.701074 
L 377.964098 224.452966 
L 378.368812 238.296215 
L 378.57117 238.522143 
L 378.773527 232.565849 
L 378.975884 221.310508 
L 380.392384 104.300146 
L 380.797099 94.338758 
L 381.201813 86.71881 
L 381.40417 90.497976 
L 382.011242 127.652925 
L 382.820671 210.815108 
L 383.225385 226.979257 
L 383.427743 227.636503 
L 383.6301 222.275838 
L 384.034814 199.950007 
L 385.0466 126.235738 
L 385.451315 109.47596 
L 385.653672 109.003564 
L 385.856029 112.803268 
L 386.058386 120.464294 
L 387.070172 190.728021 
L 387.474887 231.004889 
L 387.879601 252.981559 
L 388.284316 262.162467 
L 388.68903 264.688757 
L 388.891387 258.917314 
L 389.700816 215.189903 
L 390.307888 203.934562 
L 390.914959 191.1388 
L 391.117316 195.944913 
L 391.926745 235.687769 
L 392.533817 280.072426 
L 392.938531 292.498487 
L 393.140888 294.367531 
L 393.343246 293.915674 
L 393.545603 294.38807 
L 393.74796 285.392012 
L 394.355032 244.047119 
L 395.569175 187.318556 
L 395.771532 181.280107 
L 395.973889 182.491904 
L 396.176247 190.851255 
L 396.783318 233.079323 
L 397.188033 271.774693 
L 397.592747 289.684652 
L 397.795104 292.477948 
L 397.997461 289.931119 
L 398.402176 271.713076 
L 400.628105 143.508989 
L 400.830462 146.363902 
L 401.03282 156.366368 
L 401.639891 213.670021 
L 402.044606 258.21899 
L 402.44932 278.6347 
L 402.651677 282.660333 
L 402.854034 280.996678 
L 403.258749 262.717019 
L 403.663463 234.167887 
L 404.877607 127.632386 
L 405.282321 107.011286 
L 405.484678 102.780264 
L 405.687035 103.868828 
L 405.889393 114.425845 
L 406.294107 151.971034 
L 406.901179 229.752014 
L 407.305893 253.926351 
L 407.50825 259.554021 
L 407.710607 259.020009 
L 408.115322 237.680046 
L 409.73418 104.772541 
L 409.936537 99.822656 
L 410.138894 99.678883 
L 410.341251 104.300146 
L 410.948323 140.57192 
L 411.15068 156.551219 
L 411.757752 227.472191 
L 412.162466 251.646528 
L 412.364823 258.157373 
L 412.56718 259.944261 
L 412.971895 241.808374 
L 414.388395 143.262522 
L 414.79311 129.665741 
L 415.197824 122.970046 
L 415.400181 129.768436 
L 416.20961 192.597065 
L 416.614325 238.029208 
L 417.019039 261.197137 
L 417.221396 265.469237 
L 417.423753 264.914686 
L 417.828468 248.68892 
L 419.244968 150.533308 
L 419.649683 136.87491 
L 419.85204 133.034128 
L 420.054397 134.471854 
L 420.256754 143.159827 
L 421.066183 208.658519 
L 421.673255 263.908277 
L 422.077969 280.031348 
L 422.280326 282.51656 
L 422.482684 281.859314 
L 422.685041 281.695003 
L 423.089755 250.866048 
L 423.899184 181.649808 
L 424.708613 142.256114 
L 424.91097 139.072577 
L 425.113327 143.077671 
L 425.518042 169.244286 
L 425.720399 181.054178 
L 426.529828 255.754317 
L 426.934542 274.342061 
L 427.136899 278.81955 
L 427.339257 279.620569 
L 427.541614 279.846498 
L 427.743971 271.24068 
L 428.148685 230.861117 
L 428.755757 168.936202 
L 429.160471 143.283061 
L 429.565186 135.026406 
L 429.9699 138.949344 
L 430.374615 155.175109 
L 430.576972 166.82069 
L 431.386401 242.835321 
L 431.791115 255.076532 
L 431.993472 253.043176 
L 432.398187 232.730161 
L 433.207616 167.621709 
L 434.017044 97.234749 
L 434.219402 92.346481 
L 435.02883 119.76597 
L 435.433545 144.761865 
L 436.040617 215.970383 
L 436.445331 238.501604 
L 436.647688 243.63634 
L 436.850045 242.958555 
L 437.25476 222.357994 
L 437.659474 187.44179 
L 438.468903 113.973988 
L 438.67126 104.238529 
L 438.873617 105.203859 
L 439.075975 112.310334 
L 439.278332 111.858477 
L 439.480689 114.097222 
L 439.885403 132.643888 
L 440.290118 157.393315 
L 440.897189 230.7995 
L 441.301904 253.104793 
L 441.504261 258.527074 
L 441.706618 259.061087 
L 442.111333 244.334664 
L 442.920762 192.330058 
L 443.527833 157.475471 
L 444.134905 134.73886 
L 444.337262 132.150953 
L 444.539619 138.559104 
L 445.146691 183.601007 
L 445.753762 252.755631 
L 446.158477 273.951821 
L 446.360834 278.901706 
L 446.563191 276.909429 
L 446.967906 258.0136 
L 448.586763 148.274024 
L 448.991478 135.088022 
L 449.193835 132.767122 
L 449.396192 139.42174 
L 450.003264 179.780764 
L 450.812693 259.77995 
L 451.217407 273.068646 
L 451.419764 273.19188 
L 451.824479 256.021323 
L 452.43155 205.639294 
L 453.038622 163.760388 
L 453.443336 146.733603 
L 453.848051 138.867188 
L 454.050408 142.235575 
L 454.252765 152.217501 
L 454.65748 180.602322 
L 454.859837 189.043827 
L 455.669266 253.720961 
L 456.07398 267.256125 
L 456.276337 268.776007 
L 456.478694 266.783729 
L 456.681052 263.682349 
L 456.883409 255.6927 
L 457.288123 228.704528 
L 457.692838 217.757271 
L 457.895195 218.455595 
L 458.299909 224.206499 
L 458.502267 224.062727 
L 458.906981 220.242483 
L 459.109338 220.776496 
L 459.514053 224.925362 
L 459.71641 229.218001 
L 460.728196 286.870816 
L 461.13291 291.286689 
L 461.537625 287.979919 
L 461.739982 279.066018 
L 462.144696 244.60167 
L 463.561197 175.508664 
L 463.763554 168.258416 
L 463.965911 169.429136 
L 464.572983 188.879516 
L 465.382412 255.774856 
L 465.584769 262.675941 
L 465.787126 265.387081 
L 465.989483 262.963486 
L 467.608341 170.538239 
L 468.620127 149.383127 
L 468.822484 152.505047 
L 469.429556 178.712739 
L 470.036627 235.359146 
L 470.441342 253.125332 
L 470.643699 255.754317 
L 470.846056 253.186949 
L 471.857842 202.332524 
L 472.869628 172.119738 
L 473.071985 172.612673 
L 473.274343 170.825784 
L 473.4767 172.07866 
L 473.679057 175.857826 
L 473.881414 182.430288 
L 474.083772 183.580468 
L 474.286129 191.241494 
L 474.8932 243.287178 
L 475.297915 259.512943 
L 475.500272 261.176598 
L 475.702629 259.143242 
L 476.107344 234.804594 
L 476.512058 212.827924 
L 477.321487 181.382801 
L 477.726201 161.254637 
L 477.928558 157.701399 
L 478.333273 162.384279 
L 478.53563 166.841229 
L 479.142702 191.734429 
L 479.952131 259.410249 
L 480.356845 269.248403 
L 480.559202 268.837624 
L 480.963917 246.778798 
L 482.785131 118.574712 
L 482.987489 112.680035 
L 483.189846 110.05105 
L 483.392203 115.678721 
L 483.999275 155.483193 
L 484.606346 226.486322 
L 485.011061 249.674789 
L 485.213418 254.070123 
L 485.415775 255.014915 
L 485.82049 235.27699 
L 486.225204 204.119412 
L 487.23699 114.282072 
L 487.439347 111.201231 
L 487.844062 117.753154 
L 488.248776 136.340898 
L 489.260562 213.752177 
L 489.665277 245.854546 
L 490.069991 260.93013 
L 490.272348 263.27157 
L 490.474705 262.141928 
L 490.677063 260.375579 
L 490.87942 250.660659 
L 491.891206 171.072252 
L 492.29592 153.388221 
L 492.498277 146.01474 
L 492.700635 144.001924 
L 492.902992 145.624501 
L 493.105349 150.430613 
L 493.712421 183.888553 
L 494.52185 255.754317 
L 495.128921 273.992899 
L 495.331278 274.136671 
L 495.533636 273.520503 
L 495.735993 265.982711 
L 496.950136 174.646028 
L 497.557208 150.327919 
L 497.759565 146.980071 
L 497.961922 150.184146 
L 498.568994 181.629269 
L 499.378422 255.30246 
L 499.58078 262.121389 
L 499.783137 264.606601 
L 499.985494 261.299831 
L 500.187851 252.796709 
L 500.794923 215.949844 
L 500.99728 210.856186 
L 501.401995 197.793418 
L 501.806709 186.558615 
L 502.009066 186.106759 
L 502.211423 188.160653 
L 502.413781 188.79736 
L 502.616138 187.133706 
L 503.020852 196.828087 
L 503.223209 197.382639 
L 503.425567 204.879353 
L 504.032638 255.466771 
L 504.437353 268.509001 
L 504.63971 270.131577 
L 504.842067 267.769599 
L 505.246782 243.451489 
L 505.651496 219.687932 
L 507.270354 146.692526 
L 507.472711 143.591145 
L 507.675068 146.980071 
L 508.28214 174.954112 
L 508.889211 232.853394 
L 509.293926 249.941796 
L 509.496283 253.453955 
L 509.69864 251.625989 
L 510.103354 228.129437 
L 511.722212 121.984176 
L 512.126927 104.259068 
L 512.329284 105.840567 
L 512.936355 140.140603 
L 513.34107 179.000284 
L 513.745784 222.378533 
L 514.150499 245.053527 
L 514.352856 250.619581 
L 514.555213 251.112515 
L 514.75757 242.239692 
L 516.174071 145.686117 
L 516.376428 144.597553 
L 516.781142 153.901695 
L 516.9835 151.170015 
L 517.185857 151.704028 
L 517.590571 169.367519 
L 517.792928 173.598542 
L 517.995286 184.278793 
L 518.4 223.857337 
L 518.4 223.857337 
" clip-path="url(#pb8af66767c)" style="fill: none; stroke: #1f77b4; stroke-width: 1.5; stroke-linecap: square"/>
   </g>
   <g id="line2d_14">
    <path d="M 72 276.011717 
L 72.202357 276.011717 
L 72.404714 277.475331 
L 72.809429 282.602847 
L 73.011786 281.28093 
L 73.4165 264.321433 
L 73.821215 246.445183 
L 74.023572 240.641417 
L 74.428286 213.278219 
L 74.833001 189.964682 
L 75.237715 175.191828 
L 75.440073 170.945852 
L 75.64243 174.266123 
L 76.249501 203.302045 
L 77.05893 275.628251 
L 77.261287 285.071 
L 77.463645 285.178889 
L 77.868359 264.059581 
L 78.475431 227.848051 
L 79.487217 175.367795 
L 79.689574 160.965381 
L 79.891931 155.137498 
L 80.094288 155.622677 
L 80.296646 162.273603 
L 80.70136 183.968366 
L 81.713146 267.466185 
L 82.11786 282.53357 
L 82.320218 281.047758 
L 83.129646 260.032043 
L 83.736718 228.228142 
L 84.34379 217.240783 
L 84.950861 230.771567 
L 85.355576 244.717231 
L 85.76029 254.944032 
L 86.569719 295.357682 
L 86.974433 305.782136 
L 87.986219 281.185887 
L 88.390934 262.64083 
L 88.795648 254.014437 
L 89.200363 256.42096 
L 89.40272 254.408862 
L 89.807434 244.02443 
L 90.009791 241.431112 
L 90.414506 243.332473 
L 90.616863 245.537 
L 90.81922 253.032077 
L 91.628649 298.644843 
L 91.831006 304.653549 
L 92.033364 301.145551 
L 92.438078 286.124652 
L 93.247507 239.817606 
L 93.449864 240.350892 
L 93.652221 239.69164 
L 94.056936 236.230286 
L 94.259293 235.794167 
L 94.46165 236.321355 
L 94.664007 232.981859 
L 94.866364 231.568546 
L 95.068722 231.144324 
L 95.473436 242.983022 
L 95.675793 251.797333 
L 96.282865 291.965133 
L 96.687579 299.055155 
L 97.092294 286.911585 
L 97.901723 246.084795 
L 98.10408 239.958299 
L 98.306437 240.495465 
L 98.508794 240.269677 
L 99.115866 229.890801 
L 99.318223 229.023729 
L 99.52058 229.362865 
L 99.722937 230.380272 
L 99.925295 229.244875 
L 100.330009 238.33087 
L 101.139438 291.259205 
L 101.544152 296.056435 
L 101.74651 291.80389 
L 102.353581 264.659211 
L 102.960653 240.931659 
L 103.16301 240.760936 
L 103.365367 240.14515 
L 103.972439 227.733785 
L 104.174796 225.052741 
L 104.377153 225.298056 
L 104.57951 224.18221 
L 104.781868 223.822921 
L 105.186582 236.224503 
L 105.996011 289.240986 
L 106.400725 294.743203 
L 106.603083 291.303763 
L 107.817226 239.462907 
L 108.22194 236.039442 
L 108.829012 207.446421 
L 109.031369 205.510351 
L 109.436083 210.223231 
L 109.638441 213.421045 
L 110.043155 230.903622 
L 110.852584 286.232447 
L 111.054941 290.690975 
L 111.257298 291.795087 
L 111.459655 288.473137 
L 112.269084 255.243379 
L 113.483228 197.846862 
L 113.887942 186.414309 
L 114.090299 185.009403 
L 114.292656 184.943598 
L 114.495014 189.808701 
L 115.102085 228.483 
L 115.709157 276.185382 
L 116.113871 284.40754 
L 116.316228 282.34112 
L 117.125657 262.269237 
L 117.530372 235.098583 
L 118.339801 176.916854 
L 118.744515 158.81307 
L 118.946872 157.072584 
L 119.149229 159.217105 
L 119.351587 164.511074 
L 119.756301 188.896144 
L 120.56573 258.25555 
L 120.970444 281.547192 
L 121.172801 283.338684 
L 121.779873 270.007814 
L 122.184587 246.493937 
L 122.589302 214.894558 
L 122.994016 197.739332 
L 123.398731 188.644518 
L 123.601088 188.555689 
L 124.005802 196.132832 
L 124.815231 236.400576 
L 125.62466 292.046519 
L 125.827017 301.004827 
L 126.029374 298.597902 
L 126.434089 278.282641 
L 128.457661 155.826569 
L 128.660018 148.304126 
L 128.862375 146.625782 
L 129.064733 156.801954 
L 129.671804 228.084529 
L 130.076519 270.804524 
L 130.481233 289.187426 
L 130.68359 291.697143 
L 130.885947 286.243147 
L 131.290662 265.354976 
L 133.314234 144.05402 
L 133.516591 143.765952 
L 133.921306 158.470553 
L 134.32602 185.016796 
L 135.135449 265.398124 
L 135.540163 279.656995 
L 135.74252 276.076426 
L 136.147235 255.028506 
L 136.956664 198.137725 
L 137.361378 188.596604 
L 137.766092 183.539849 
L 137.96845 181.457286 
L 138.980236 210.957964 
L 139.38495 236.710252 
L 139.789665 267.877832 
L 140.194379 286.9453 
L 140.396736 289.256602 
L 140.599093 282.730569 
L 141.813237 219.615318 
L 142.217951 213.544859 
L 142.825023 200.97634 
L 143.02738 202.539464 
L 143.836809 224.584707 
L 144.039166 229.621952 
L 144.44388 254.58453 
L 144.848595 277.616828 
L 145.050952 282.674955 
L 145.253309 282.795029 
L 146.062738 248.899686 
L 146.66981 217.376457 
L 146.872167 213.27621 
L 147.074524 212.648322 
L 147.681596 201.249917 
L 148.693382 233.274459 
L 148.895739 238.815038 
L 149.300453 260.477443 
L 149.705168 280.44411 
L 149.907525 283.276008 
L 150.109882 282.177393 
L 150.716954 266.859081 
L 151.121668 257.254373 
L 151.72874 231.471475 
L 151.931097 229.285409 
L 152.133454 225.567585 
L 152.335811 226.946513 
L 152.538169 229.47975 
L 152.740526 233.519478 
L 152.942883 234.36788 
L 153.14524 236.985673 
L 153.347597 241.33007 
L 153.549955 243.109824 
L 153.752312 242.467214 
L 153.954669 247.492409 
L 154.764098 280.617575 
L 154.966455 283.623014 
L 155.168812 282.118872 
L 155.573527 274.529816 
L 155.775884 272.747402 
L 155.978241 266.183804 
L 156.990027 199.149534 
L 157.597099 173.486857 
L 158.001813 164.923645 
L 158.20417 167.508487 
L 158.406528 174.993997 
L 158.811242 208.247939 
L 159.418314 262.45849 
L 159.823028 282.887314 
L 160.025385 281.996129 
L 160.4301 265.355519 
L 161.239529 199.685558 
L 161.644243 182.473589 
L 161.8466 176.891103 
L 162.048957 175.026869 
L 162.453672 169.125019 
L 163.060743 187.761525 
L 163.465458 212.261681 
L 164.274887 275.321186 
L 164.679601 289.765831 
L 164.881958 286.261645 
L 165.286673 263.865221 
L 165.691387 235.138169 
L 166.096102 218.997991 
L 166.500816 211.296143 
L 166.90553 194.503242 
L 167.310245 175.982468 
L 167.512602 175.601538 
L 167.714959 177.770584 
L 168.119674 197.662666 
L 168.726745 245.124636 
L 169.13146 273.362343 
L 169.333817 280.620102 
L 169.536174 281.506577 
L 169.738531 276.06597 
L 170.750317 219.174416 
L 171.357389 178.584445 
L 171.762103 161.612782 
L 172.166818 155.375798 
L 172.571532 165.016694 
L 172.773889 170.913466 
L 173.178604 200.744213 
L 174.19039 282.577142 
L 174.392747 285.946183 
L 174.595104 281.907774 
L 175.60689 221.840382 
L 175.809248 209.161192 
L 176.213962 200.425738 
L 177.023391 171.999928 
L 177.225748 172.113962 
L 177.630462 181.433194 
L 178.035177 205.321593 
L 178.642248 263.357028 
L 178.844606 279.313664 
L 179.24932 292.160291 
L 179.451677 287.968862 
L 180.463463 232.135812 
L 181.272892 178.196478 
L 181.879964 154.026848 
L 182.082321 153.413249 
L 182.284678 155.592886 
L 182.487035 161.34131 
L 183.094107 213.712768 
L 183.498821 250.986888 
L 183.903536 269.138396 
L 184.105893 274.477853 
L 184.30825 272.102184 
L 185.117679 244.311992 
L 185.522393 204.041327 
L 185.927108 165.590798 
L 186.331822 144.024347 
L 186.53418 137.305807 
L 186.736537 136.999292 
L 187.343608 176.911005 
L 188.557752 255.526824 
L 188.962466 274.166146 
L 189.164823 274.091086 
L 189.771895 250.419157 
L 191.188395 161.086028 
L 191.390752 159.142688 
L 191.59311 160.156205 
L 191.795467 164.692791 
L 192.402539 195.741511 
L 193.211967 244.669417 
L 193.819039 277.918559 
L 194.021396 277.528841 
L 194.426111 263.917391 
L 194.830825 242.069698 
L 195.437897 202.762893 
L 195.842611 185.234195 
L 196.044968 187.505721 
L 196.247325 192.477032 
L 196.65204 208.510622 
L 196.854397 210.357275 
L 197.056754 214.507143 
L 197.663826 238.799756 
L 198.473255 280.678904 
L 198.675612 288.806505 
L 198.877969 286.118899 
L 199.282684 265.978633 
L 200.092112 206.909927 
L 200.699184 186.378663 
L 200.901541 183.712004 
L 201.306256 171.439528 
L 201.71097 163.322676 
L 201.913327 168.928966 
L 202.520399 214.630147 
L 202.925113 251.013874 
L 203.329828 270.604543 
L 203.532185 275.900764 
L 203.734542 273.317585 
L 204.139257 245.550963 
L 204.746328 205.367207 
L 205.3534 183.366764 
L 205.758114 172.004966 
L 205.960471 167.830996 
L 206.162829 168.08382 
L 206.567543 180.285211 
L 207.174615 204.660454 
L 207.984044 263.784958 
L 208.186401 270.856513 
L 208.388758 273.416658 
L 208.591115 268.759497 
L 209.198187 233.830997 
L 210.007616 192.404729 
L 210.209973 188.362047 
L 211.221759 146.25941 
L 211.424116 148.561778 
L 211.626473 156.790213 
L 212.233545 202.619902 
L 212.840617 257.465609 
L 213.042974 264.42632 
L 213.245331 267.341377 
L 213.447688 262.91978 
L 214.257117 216.702222 
L 215.875975 119.259249 
L 216.078332 121.638137 
L 216.483046 133.696633 
L 216.887761 165.896681 
L 217.697189 241.970905 
L 218.101904 257.773135 
L 218.304261 256.894222 
L 219.316047 215.262642 
L 219.923119 169.610082 
L 220.53019 144.628582 
L 220.732548 146.403553 
L 222.553762 266.318826 
L 222.958477 282.843037 
L 223.160834 280.203289 
L 223.767906 260.433066 
L 224.779692 207.698614 
L 224.982049 203.601657 
L 226.803264 252.021742 
L 227.81505 298.663447 
L 228.017407 295.241738 
L 228.826836 255.16963 
L 229.23155 236.939187 
L 229.636265 231.518083 
L 230.850408 188.199269 
L 231.052765 188.553287 
L 231.45748 208.323102 
L 232.469266 286.160082 
L 232.671623 291.675887 
L 232.87398 289.730613 
L 233.481052 259.423033 
L 234.492838 207.421348 
L 235.099909 188.210836 
L 235.302267 181.63164 
L 235.504624 181.598231 
L 235.706981 185.494044 
L 236.111695 201.443686 
L 236.51641 229.333498 
L 236.921124 264.830967 
L 237.325839 283.426546 
L 237.528196 287.189989 
L 237.730553 286.373982 
L 238.337625 256.423905 
L 238.944696 222.24451 
L 239.551768 201.028675 
L 239.956482 194.088735 
L 240.15884 193.264524 
L 240.563554 199.506197 
L 240.968268 213.073889 
L 241.170626 223.311442 
L 241.777697 270.138406 
L 242.182412 286.471258 
L 242.384769 289.627703 
L 242.587126 288.279059 
L 244.003626 222.495736 
L 244.205984 217.465097 
L 244.610698 196.537635 
L 245.015413 186.929746 
L 245.21777 184.420347 
L 245.420127 184.729536 
L 245.622484 189.619629 
L 246.027199 211.648276 
L 246.836627 272.655323 
L 247.241342 285.756047 
L 247.443699 286.133779 
L 248.050771 256.637714 
L 249.062557 189.224799 
L 249.467271 161.56357 
L 249.871985 146.01416 
L 250.074343 148.489857 
L 250.479057 162.921448 
L 250.883772 192.273055 
L 251.490843 247.756176 
L 251.895558 266.760419 
L 252.097915 272.275974 
L 252.300272 272.36849 
L 253.109701 240.545292 
L 253.514415 206.380514 
L 253.91913 168.586193 
L 254.323844 147.840315 
L 254.526201 144.907472 
L 254.728558 143.746998 
L 255.133273 156.779332 
L 255.537987 175.976538 
L 256.752131 267.533241 
L 256.954488 276.83224 
L 257.156845 278.585918 
L 257.561559 266.790129 
L 257.966274 244.581183 
L 258.97806 179.329447 
L 259.382774 167.91101 
L 259.585131 165.516001 
L 259.989846 173.298362 
L 260.39456 188.33055 
L 261.811061 286.177121 
L 262.013418 286.57687 
L 262.418132 267.259361 
L 263.025204 219.054946 
L 263.429918 210.020166 
L 263.632276 207.971551 
L 263.834633 209.168118 
L 264.239347 220.277838 
L 264.846419 226.271273 
L 265.048776 229.103128 
L 266.262919 286.167413 
L 266.667634 294.856975 
L 266.869991 291.500705 
L 267.67942 254.425925 
L 268.084134 238.379521 
L 268.488849 232.024348 
L 269.09592 212.051136 
L 269.298277 211.286798 
L 269.702992 214.521261 
L 270.310063 230.867992 
L 270.714778 252.52053 
L 271.119492 275.430366 
L 271.32185 281.325463 
L 271.524207 283.104601 
L 271.726564 279.726764 
L 272.333636 252.106821 
L 273.750136 177.118101 
L 274.15485 160.920766 
L 274.559565 153.284379 
L 274.761922 154.022862 
L 274.964279 162.677832 
L 275.571351 216.115238 
L 275.976065 250.523954 
L 276.38078 263.84376 
L 276.583137 261.290792 
L 276.987851 241.688484 
L 278.201995 160.737306 
L 278.809066 139.530451 
L 279.011423 137.871617 
L 279.416138 144.064881 
L 279.820852 162.725478 
L 280.427924 224.467001 
L 280.832638 258.097332 
L 281.237353 271.841755 
L 281.43971 272.948194 
L 281.844424 250.442375 
L 282.451496 218.766626 
L 283.058568 188.23032 
L 283.260925 183.521993 
L 283.867996 159.359483 
L 284.070354 159.575747 
L 284.272711 163.360315 
L 284.677425 186.520551 
L 284.879782 199.781732 
L 285.486854 259.482109 
L 285.891568 279.265088 
L 286.093926 283.356671 
L 286.296283 285.185096 
L 287.308069 244.558895 
L 288.319855 171.719092 
L 288.724569 159.273992 
L 288.926927 158.293394 
L 289.129284 163.42052 
L 289.533998 182.556668 
L 290.14107 232.763458 
L 290.748141 272.148957 
L 290.950499 280.574128 
L 291.152856 282.570854 
L 291.962285 248.124085 
L 293.176428 143.324689 
L 293.581142 130.365725 
L 293.7835 132.070309 
L 293.985857 138.039318 
L 294.390571 161.229952 
L 294.795286 192.46592 
L 295.2 231.301588 
L 295.807072 270.398985 
L 296.009429 272.874974 
L 296.211786 264.387639 
L 296.6165 231.274436 
L 297.830644 110.012694 
L 298.235358 90.697112 
L 298.437715 85.818564 
L 298.640073 87.143314 
L 298.84243 92.5189 
L 299.247144 113.084576 
L 299.651859 151.312759 
L 300.25893 228.745104 
L 300.461287 242.526577 
L 300.663645 248.63022 
L 300.866002 245.451649 
L 301.270716 220.564414 
L 302.080145 141.392249 
L 302.484859 94.894612 
L 302.889574 72.27737 
L 303.091931 71.740228 
L 303.294288 78.221167 
L 303.90136 120.714017 
L 304.508432 172.951443 
L 305.31786 244.134159 
L 305.520218 250.584244 
L 305.722575 250.236461 
L 305.924932 241.022806 
L 307.54379 130.974464 
L 307.948504 119.812288 
L 308.150861 120.597481 
L 308.555576 139.52624 
L 310.174433 261.97883 
L 310.376791 266.544168 
L 310.579148 264.484854 
L 310.983862 245.649967 
L 311.186219 232.745325 
L 312.400363 118.428431 
L 312.60272 112.326915 
L 312.805077 113.95377 
L 313.007434 117.561185 
L 313.614506 142.812709 
L 315.031006 255.8361 
L 315.233364 259.637282 
L 315.435721 254.868779 
L 315.840435 232.733895 
L 316.24515 204.11975 
L 316.852221 179.340424 
L 317.054578 178.950866 
L 317.66165 170.63943 
L 318.066364 180.771512 
L 318.673436 198.084154 
L 319.887579 269.298704 
L 320.089937 273.445388 
L 320.292294 270.781896 
L 321.101723 249.315061 
L 321.30408 241.31529 
L 322.315866 171.69724 
L 322.72058 155.172149 
L 322.922937 156.637866 
L 323.125295 159.431099 
L 323.327652 165.5566 
L 323.732366 190.027617 
L 324.541795 252.33372 
L 324.94651 266.362754 
L 325.148867 268.543414 
L 325.553581 259.708595 
L 325.755938 253.620409 
L 326.160653 224.271774 
L 326.970082 151.308292 
L 327.374796 135.169162 
L 327.577153 133.117391 
L 328.184225 153.368448 
L 328.386582 163.162468 
L 328.993654 218.137122 
L 329.600725 264.1853 
L 329.803083 272.198512 
L 330.00544 274.782104 
L 330.207797 268.210377 
L 330.410154 256.567028 
L 331.219583 179.934281 
L 331.826655 147.969897 
L 332.231369 144.592116 
L 332.433726 143.753911 
L 332.838441 156.815911 
L 333.243155 182.15165 
L 333.647869 207.882335 
L 334.052584 247.388192 
L 334.457298 270.661941 
L 334.659655 275.391997 
L 334.862013 277.21779 
L 335.266727 255.110573 
L 335.671442 224.9345 
L 336.683228 180.949426 
L 336.885585 178.752267 
L 337.087942 179.683522 
L 337.290299 179.790163 
L 337.492656 183.379242 
L 338.302085 213.168775 
L 339.111514 268.72464 
L 339.516228 279.399311 
L 339.718586 276.998107 
L 340.932729 206.672008 
L 341.539801 176.553605 
L 341.944515 161.080357 
L 342.146872 155.786528 
L 342.349229 154.253107 
L 342.551587 156.488382 
L 342.753944 157.220158 
L 342.956301 164.152639 
L 343.361015 195.835955 
L 343.968087 249.700791 
L 344.372801 260.239012 
L 344.575159 259.595347 
L 345.384587 211.332594 
L 345.789302 175.698792 
L 346.194016 140.316861 
L 346.598731 118.689004 
L 346.801088 111.332652 
L 347.003445 109.50853 
L 347.40816 120.436212 
L 347.812874 138.20237 
L 348.419946 195.832945 
L 348.82466 235.430837 
L 349.027017 247.56711 
L 349.229374 251.685117 
L 349.431732 251.586209 
L 349.836446 229.3028 
L 351.252947 131.146108 
L 351.657661 117.391618 
L 351.860018 112.652896 
L 352.062375 115.22313 
L 352.264733 119.763937 
L 352.669447 140.010844 
L 353.88359 253.906221 
L 354.085947 260.065584 
L 354.288305 261.888663 
L 354.693019 245.355355 
L 355.097733 223.032559 
L 355.502448 185.943789 
L 355.907162 137.959703 
L 356.311877 114.632315 
L 356.716591 106.714228 
L 356.918948 109.847825 
L 357.323663 127.577873 
L 357.728377 158.061707 
L 358.740163 250.735711 
L 358.94252 261.246621 
L 359.144878 264.993222 
L 359.347235 258.535566 
L 359.954306 221.056692 
L 360.359021 176.594994 
L 360.763735 124.381082 
L 361.16845 96.885548 
L 361.573164 90.890143 
L 361.775521 92.479982 
L 361.977879 97.897817 
L 362.382593 120.874325 
L 362.787307 157.370971 
L 363.394379 223.143337 
L 363.799093 254.376214 
L 364.001451 257.449107 
L 364.203808 247.116947 
L 364.810879 188.287726 
L 365.822665 67.432812 
L 366.025023 59.181917 
L 366.429737 55.8 
L 366.632094 58.606007 
L 366.834451 64.124388 
L 367.239166 87.804322 
L 367.846238 155.748796 
L 368.453309 223.305635 
L 368.655666 233.662907 
L 368.858024 233.355165 
L 369.465095 188.628322 
L 370.072167 131.369135 
L 370.476881 85.994763 
L 370.881596 66.661413 
L 371.083953 63.740698 
L 371.28631 64.905819 
L 371.691024 81.383675 
L 372.095739 110.331787 
L 373.309882 225.141473 
L 373.512239 234.108889 
L 373.714597 237.084241 
L 374.119311 217.356356 
L 374.726383 180.586988 
L 375.535811 98.332092 
L 375.738169 92.446067 
L 375.940526 91.064519 
L 376.142883 92.403643 
L 376.547597 109.071997 
L 376.952312 139.6117 
L 377.559383 198.070233 
L 378.368812 248.825278 
L 378.57117 252.153794 
L 378.773527 245.880943 
L 379.178241 216.328345 
L 380.190027 109.382455 
L 380.594742 90.195182 
L 380.797099 87.321745 
L 380.999456 87.940729 
L 381.201813 89.905274 
L 381.40417 93.992284 
L 381.606528 101.768462 
L 382.011242 130.766809 
L 383.225385 237.429456 
L 383.427743 236.737821 
L 383.832457 209.256323 
L 384.237171 181.17556 
L 384.237171 181.17556 
" clip-path="url(#pb8af66767c)" style="fill: none; stroke: #ff7f0e; stroke-width: 1.5; stroke-linecap: square"/>
   </g>
   <g id="line2d_15">
    <path d="M 384.439529 168.353773 
L 385.248957 102.673872 
L 385.653672 86.939764 
L 385.856029 82.539089 
L 386.058386 84.242027 
L 386.260743 90.627536 
L 386.665458 120.661554 
L 387.677244 219.569588 
L 388.081958 235.946109 
L 388.284316 237.42911 
L 388.486673 231.3996 
L 388.891387 206.321946 
L 390.307888 107.132569 
L 390.712602 95.522117 
L 390.914959 95.477709 
L 391.319674 116.495167 
L 391.926745 170.5301 
L 392.533817 227.254728 
L 392.938531 243.648235 
L 393.140888 244.897722 
L 393.343246 241.775844 
L 393.74796 218.371153 
L 394.355032 176.018304 
L 395.164461 118.931428 
L 395.569175 102.282782 
L 395.771532 103.264381 
L 395.973889 109.421386 
L 396.378604 137.251411 
L 397.592747 243.072259 
L 397.795104 249.167396 
L 397.997461 250.672343 
L 398.199819 247.289196 
L 398.604533 226.490064 
L 400.425748 110.718809 
L 400.628105 109.641418 
L 400.830462 116.334504 
L 401.235177 143.450359 
L 402.44932 247.829898 
L 402.651677 254.896707 
L 402.854034 256.416668 
L 403.056392 252.631445 
L 403.461106 234.935443 
L 404.068178 196.059154 
L 404.877607 140.651508 
L 405.282321 123.173411 
L 405.484678 122.046683 
L 405.687035 127.9094 
L 406.09175 153.706957 
L 406.698821 209.197431 
L 407.103536 241.860025 
L 407.50825 259.950015 
L 407.710607 261.842065 
L 407.912965 258.509516 
L 408.317679 241.696604 
L 408.722393 217.743929 
L 409.936537 141.72324 
L 410.138894 134.898826 
L 410.341251 133.728638 
L 410.543608 138.688628 
L 410.948323 161.950024 
L 411.555394 213.882294 
L 411.960109 245.171053 
L 412.364823 262.771145 
L 412.56718 264.933591 
L 412.769538 261.868162 
L 413.376609 235.249894 
L 414.79311 151.851117 
L 414.995467 146.069499 
L 415.197824 144.853799 
L 415.400181 149.376163 
L 415.804896 170.592345 
L 416.411967 219.076645 
L 416.816682 248.484586 
L 417.221396 264.326854 
L 417.423753 266.443591 
L 417.626111 263.055815 
L 418.233182 236.699986 
L 419.649683 161.635292 
L 419.85204 157.178944 
L 420.054397 157.076153 
L 420.256754 161.705847 
L 420.661469 180.866605 
L 421.26854 225.469241 
L 421.673255 251.198258 
L 422.077969 265.090012 
L 422.280326 266.095187 
L 422.482684 262.510529 
L 423.089755 236.692927 
L 424.303898 176.965065 
L 424.708613 167.371425 
L 424.91097 168.428165 
L 425.113327 173.406188 
L 425.518042 191.690965 
L 426.732185 260.108214 
L 426.934542 264.106896 
L 427.136899 263.865134 
L 427.339257 259.689342 
L 427.946328 234.657289 
L 428.958114 190.18775 
L 429.362829 178.525784 
L 429.565186 177.249564 
L 429.767543 179.568115 
L 430.172257 193.548916 
L 430.779329 225.71826 
L 431.386401 254.053296 
L 431.588758 259.375992 
L 431.791115 261.762762 
L 431.993472 259.959392 
L 432.398187 248.032627 
L 433.814687 194.328691 
L 434.219402 186.904453 
L 434.421759 187.641014 
L 434.624116 191.590844 
L 435.231188 214.079424 
L 436.040617 248.35371 
L 436.445331 257.333906 
L 436.647688 257.684893 
L 436.850045 254.600024 
L 437.25476 242.354306 
L 438.266546 207.361729 
L 438.67126 198.154121 
L 438.873617 195.264852 
L 439.075975 194.363451 
L 439.278332 196.482093 
L 439.683046 207.404673 
L 440.897189 247.639378 
L 441.099547 251.233701 
L 441.301904 252.742297 
L 441.504261 251.485221 
L 441.908976 241.858328 
L 442.920762 210.639296 
L 443.527833 201.644855 
L 443.73019 200.657535 
L 443.932548 201.62419 
L 444.134905 204.574395 
L 444.944334 226.672614 
L 445.551405 241.886865 
L 445.95612 246.721559 
L 446.158477 246.717058 
L 446.360834 244.406623 
L 446.765549 234.280817 
L 447.37262 217.310214 
L 447.777335 209.945735 
L 448.182049 206.780505 
L 448.384406 206.223781 
L 448.586763 207.140087 
L 448.789121 209.146331 
L 449.396192 221.450945 
L 450.205621 237.17754 
L 450.610335 240.88206 
L 450.812693 241.343325 
L 451.01505 240.128682 
L 451.419764 232.378176 
L 452.026836 217.903793 
L 452.43155 212.185388 
L 452.633908 211.078781 
L 452.836265 210.669421 
L 453.038622 211.0268 
L 453.240979 211.85125 
L 453.645694 215.979385 
L 454.859837 232.85015 
L 455.062194 234.798665 
L 455.466908 236.025467 
L 455.669266 235.219455 
L 456.07398 229.48899 
L 456.681052 217.613835 
L 457.085766 213.64383 
L 457.288123 213.215288 
L 457.490481 213.369415 
L 457.895195 214.87262 
L 458.299909 217.772901 
L 459.311695 227.310593 
L 459.71641 229.902 
L 459.918767 230.577432 
L 460.121124 230.799199 
L 460.323481 230.036114 
L 460.728196 225.746316 
L 461.335267 216.836674 
L 461.739982 214.777579 
L 461.942339 214.757788 
L 462.347053 215.817701 
L 462.954125 218.173259 
L 463.965911 224.117533 
L 464.572983 225.963656 
L 464.77534 225.92228 
L 464.977697 225.246299 
L 465.382412 222.144988 
L 465.989483 216.495014 
L 466.19184 215.852096 
L 466.394198 215.708542 
L 466.596555 215.956648 
L 467.203626 217.37549 
L 467.608341 218.122733 
L 468.013055 219.671063 
L 468.41777 221.10133 
L 468.822484 221.769178 
L 469.227199 222.092559 
L 469.429556 221.844727 
L 469.83427 220.645966 
L 470.643699 216.789862 
L 470.846056 216.548721 
L 471.048413 216.561783 
L 471.857842 217.559307 
L 472.262557 217.863122 
L 473.274343 219.818454 
L 473.679057 219.962811 
L 473.881414 219.882229 
L 474.286129 219.352158 
L 475.297915 217.017769 
L 475.500272 216.897805 
L 475.904986 217.126636 
L 476.512058 217.569793 
L 476.916772 217.723217 
L 477.321487 218.204174 
L 477.726201 218.68613 
L 478.130916 218.801539 
L 478.53563 218.684553 
L 478.940345 218.295625 
L 479.749773 217.319059 
L 480.154488 217.192017 
L 480.761559 217.424826 
L 481.975703 217.905734 
L 482.380417 218.164784 
L 482.785131 218.195733 
L 483.392203 217.954461 
L 484.403989 217.409518 
L 485.011061 217.433499 
L 487.439347 217.873528 
L 488.248776 217.65442 
L 489.058205 217.507421 
L 491.284134 217.680004 
L 492.093563 217.739446 
L 494.319492 217.618523 
L 501.401995 217.672613 
L 504.032638 217.650995 
L 513.34107 217.650235 
L 518.4 217.651644 
L 518.4 217.651644 
" clip-path="url(#pb8af66767c)" style="fill: none; stroke: #2ca02c; stroke-width: 1.5; stroke-linecap: square"/>
   </g>
   <g id="patch_3">
    <path d="M 72 320.4 
L 72 43.2 
" style="fill: none; stroke: #000000; stroke-width: 0.8; stroke-linejoin: miter; stroke-linecap: square"/>
   </g>
   <g id="patch_4">
    <path d="M 518.4 320.4 
L 518.4 43.2 
" style="fill: none; stroke: #000000; stroke-width: 0.8; stroke-linejoin: miter; stroke-linecap: square"/>
   </g>
   <g id="patch_5">
    <path d="M 72 320.4 
L 518.4 320.4 
" style="fill: none; stroke: #000000; stroke-width: 0.8; stroke-linejoin: miter; stroke-linecap: square"/>
   </g>
   <g id="patch_6">
    <path d="M 72 43.2 
L 518.4 43.2 
" style="fill: none; stroke: #000000; stroke-width: 0.8; stroke-linejoin: miter; stroke-linecap: square"/>
   </g>
   <g id="text_13">
    <!-- Classic Transformer - model_20231123164207 -->
    <g transform="translate(155.436563 37.2) scale(0.12 -0.12)">
     <defs>
      <path id="DejaVuSans-43" d="M 4122 4306 
L 4122 3641 
Q 3803 3938 3442 4084 
Q 3081 4231 2675 4231 
Q 1875 4231 1450 3742 
Q 1025 3253 1025 2328 
Q 1025 1406 1450 917 
Q 1875 428 2675 428 
Q 3081 428 3442 575 
Q 3803 722 4122 1019 
L 4122 359 
Q 3791 134 3420 21 
Q 3050 -91 2638 -91 
Q 1578 -91 968 557 
Q 359 1206 359 2328 
Q 359 3453 968 4101 
Q 1578 4750 2638 4750 
Q 3056 4750 3426 4639 
Q 3797 4528 4122 4306 
z
" transform="scale(0.015625)"/>
      <path id="DejaVuSans-6c" d="M 603 4863 
L 1178 4863 
L 1178 0 
L 603 0 
L 603 4863 
z
" transform="scale(0.015625)"/>
      <path id="DejaVuSans-61" d="M 2194 1759 
Q 1497 1759 1228 1600 
Q 959 1441 959 1056 
Q 959 750 1161 570 
Q 1363 391 1709 391 
Q 2188 391 2477 730 
Q 2766 1069 2766 1631 
L 2766 1759 
L 2194 1759 
z
M 3341 1997 
L 3341 0 
L 2766 0 
L 2766 531 
Q 2569 213 2275 61 
Q 1981 -91 1556 -91 
Q 1019 -91 701 211 
Q 384 513 384 1019 
Q 384 1609 779 1909 
Q 1175 2209 1959 2209 
L 2766 2209 
L 2766 2266 
Q 2766 2663 2505 2880 
Q 2244 3097 1772 3097 
Q 1472 3097 1187 3025 
Q 903 2953 641 2809 
L 641 3341 
Q 956 3463 1253 3523 
Q 1550 3584 1831 3584 
Q 2591 3584 2966 3190 
Q 3341 2797 3341 1997 
z
" transform="scale(0.015625)"/>
      <path id="DejaVuSans-73" d="M 2834 3397 
L 2834 2853 
Q 2591 2978 2328 3040 
Q 2066 3103 1784 3103 
Q 1356 3103 1142 2972 
Q 928 2841 928 2578 
Q 928 2378 1081 2264 
Q 1234 2150 1697 2047 
L 1894 2003 
Q 2506 1872 2764 1633 
Q 3022 1394 3022 966 
Q 3022 478 2636 193 
Q 2250 -91 1575 -91 
Q 1294 -91 989 -36 
Q 684 19 347 128 
L 347 722 
Q 666 556 975 473 
Q 1284 391 1588 391 
Q 1994 391 2212 530 
Q 2431 669 2431 922 
Q 2431 1156 2273 1281 
Q 2116 1406 1581 1522 
L 1381 1569 
Q 847 1681 609 1914 
Q 372 2147 372 2553 
Q 372 3047 722 3315 
Q 1072 3584 1716 3584 
Q 2034 3584 2315 3537 
Q 2597 3491 2834 3397 
z
" transform="scale(0.015625)"/>
      <path id="DejaVuSans-69" d="M 603 3500 
L 1178 3500 
L 1178 0 
L 603 0 
L 603 3500 
z
M 603 4863 
L 1178 4863 
L 1178 4134 
L 603 4134 
L 603 4863 
z
" transform="scale(0.015625)"/>
      <path id="DejaVuSans-63" d="M 3122 3366 
L 3122 2828 
Q 2878 2963 2633 3030 
Q 2388 3097 2138 3097 
Q 1578 3097 1268 2742 
Q 959 2388 959 1747 
Q 959 1106 1268 751 
Q 1578 397 2138 397 
Q 2388 397 2633 464 
Q 2878 531 3122 666 
L 3122 134 
Q 2881 22 2623 -34 
Q 2366 -91 2075 -91 
Q 1284 -91 818 406 
Q 353 903 353 1747 
Q 353 2603 823 3093 
Q 1294 3584 2113 3584 
Q 2378 3584 2631 3529 
Q 2884 3475 3122 3366 
z
" transform="scale(0.015625)"/>
      <path id="DejaVuSans-20" transform="scale(0.015625)"/>
      <path id="DejaVuSans-54" d="M -19 4666 
L 3928 4666 
L 3928 4134 
L 2272 4134 
L 2272 0 
L 1638 0 
L 1638 4134 
L -19 4134 
L -19 4666 
z
" transform="scale(0.015625)"/>
      <path id="DejaVuSans-72" d="M 2631 2963 
Q 2534 3019 2420 3045 
Q 2306 3072 2169 3072 
Q 1681 3072 1420 2755 
Q 1159 2438 1159 1844 
L 1159 0 
L 581 0 
L 581 3500 
L 1159 3500 
L 1159 2956 
Q 1341 3275 1631 3429 
Q 1922 3584 2338 3584 
Q 2397 3584 2469 3576 
Q 2541 3569 2628 3553 
L 2631 2963 
z
" transform="scale(0.015625)"/>
      <path id="DejaVuSans-6e" d="M 3513 2113 
L 3513 0 
L 2938 0 
L 2938 2094 
Q 2938 2591 2744 2837 
Q 2550 3084 2163 3084 
Q 1697 3084 1428 2787 
Q 1159 2491 1159 1978 
L 1159 0 
L 581 0 
L 581 3500 
L 1159 3500 
L 1159 2956 
Q 1366 3272 1645 3428 
Q 1925 3584 2291 3584 
Q 2894 3584 3203 3211 
Q 3513 2838 3513 2113 
z
" transform="scale(0.015625)"/>
      <path id="DejaVuSans-66" d="M 2375 4863 
L 2375 4384 
L 1825 4384 
Q 1516 4384 1395 4259 
Q 1275 4134 1275 3809 
L 1275 3500 
L 2222 3500 
L 2222 3053 
L 1275 3053 
L 1275 0 
L 697 0 
L 697 3053 
L 147 3053 
L 147 3500 
L 697 3500 
L 697 3744 
Q 697 4328 969 4595 
Q 1241 4863 1831 4863 
L 2375 4863 
z
" transform="scale(0.015625)"/>
      <path id="DejaVuSans-6f" d="M 1959 3097 
Q 1497 3097 1228 2736 
Q 959 2375 959 1747 
Q 959 1119 1226 758 
Q 1494 397 1959 397 
Q 2419 397 2687 759 
Q 2956 1122 2956 1747 
Q 2956 2369 2687 2733 
Q 2419 3097 1959 3097 
z
M 1959 3584 
Q 2709 3584 3137 3096 
Q 3566 2609 3566 1747 
Q 3566 888 3137 398 
Q 2709 -91 1959 -91 
Q 1206 -91 779 398 
Q 353 888 353 1747 
Q 353 2609 779 3096 
Q 1206 3584 1959 3584 
z
" transform="scale(0.015625)"/>
      <path id="DejaVuSans-6d" d="M 3328 2828 
Q 3544 3216 3844 3400 
Q 4144 3584 4550 3584 
Q 5097 3584 5394 3201 
Q 5691 2819 5691 2113 
L 5691 0 
L 5113 0 
L 5113 2094 
Q 5113 2597 4934 2840 
Q 4756 3084 4391 3084 
Q 3944 3084 3684 2787 
Q 3425 2491 3425 1978 
L 3425 0 
L 2847 0 
L 2847 2094 
Q 2847 2600 2669 2842 
Q 2491 3084 2119 3084 
Q 1678 3084 1418 2786 
Q 1159 2488 1159 1978 
L 1159 0 
L 581 0 
L 581 3500 
L 1159 3500 
L 1159 2956 
Q 1356 3278 1631 3431 
Q 1906 3584 2284 3584 
Q 2666 3584 2933 3390 
Q 3200 3197 3328 2828 
z
" transform="scale(0.015625)"/>
      <path id="DejaVuSans-65" d="M 3597 1894 
L 3597 1613 
L 953 1613 
Q 991 1019 1311 708 
Q 1631 397 2203 397 
Q 2534 397 2845 478 
Q 3156 559 3463 722 
L 3463 178 
Q 3153 47 2828 -22 
Q 2503 -91 2169 -91 
Q 1331 -91 842 396 
Q 353 884 353 1716 
Q 353 2575 817 3079 
Q 1281 3584 2069 3584 
Q 2775 3584 3186 3129 
Q 3597 2675 3597 1894 
z
M 3022 2063 
Q 3016 2534 2758 2815 
Q 2500 3097 2075 3097 
Q 1594 3097 1305 2825 
Q 1016 2553 972 2059 
L 3022 2063 
z
" transform="scale(0.015625)"/>
      <path id="DejaVuSans-64" d="M 2906 2969 
L 2906 4863 
L 3481 4863 
L 3481 0 
L 2906 0 
L 2906 525 
Q 2725 213 2448 61 
Q 2172 -91 1784 -91 
Q 1150 -91 751 415 
Q 353 922 353 1747 
Q 353 2572 751 3078 
Q 1150 3584 1784 3584 
Q 2172 3584 2448 3432 
Q 2725 3281 2906 2969 
z
M 947 1747 
Q 947 1113 1208 752 
Q 1469 391 1925 391 
Q 2381 391 2643 752 
Q 2906 1113 2906 1747 
Q 2906 2381 2643 2742 
Q 2381 3103 1925 3103 
Q 1469 3103 1208 2742 
Q 947 2381 947 1747 
z
" transform="scale(0.015625)"/>
      <path id="DejaVuSans-5f" d="M 3263 -1063 
L 3263 -1509 
L -63 -1509 
L -63 -1063 
L 3263 -1063 
z
" transform="scale(0.015625)"/>
      <path id="DejaVuSans-34" d="M 2419 4116 
L 825 1625 
L 2419 1625 
L 2419 4116 
z
M 2253 4666 
L 3047 4666 
L 3047 1625 
L 3713 1625 
L 3713 1100 
L 3047 1100 
L 3047 0 
L 2419 0 
L 2419 1100 
L 313 1100 
L 313 1709 
L 2253 4666 
z
" transform="scale(0.015625)"/>
     </defs>
     <use xlink:href="#DejaVuSans-43"/>
     <use xlink:href="#DejaVuSans-6c" x="69.824219"/>
     <use xlink:href="#DejaVuSans-61" x="97.607422"/>
     <use xlink:href="#DejaVuSans-73" x="158.886719"/>
     <use xlink:href="#DejaVuSans-73" x="210.986328"/>
     <use xlink:href="#DejaVuSans-69" x="263.085938"/>
     <use xlink:href="#DejaVuSans-63" x="290.869141"/>
     <use xlink:href="#DejaVuSans-20" x="345.849609"/>
     <use xlink:href="#DejaVuSans-54" x="377.636719"/>
     <use xlink:href="#DejaVuSans-72" x="423.970703"/>
     <use xlink:href="#DejaVuSans-61" x="465.083984"/>
     <use xlink:href="#DejaVuSans-6e" x="526.363281"/>
     <use xlink:href="#DejaVuSans-73" x="589.742188"/>
     <use xlink:href="#DejaVuSans-66" x="641.841797"/>
     <use xlink:href="#DejaVuSans-6f" x="677.046875"/>
     <use xlink:href="#DejaVuSans-72" x="738.228516"/>
     <use xlink:href="#DejaVuSans-6d" x="777.591797"/>
     <use xlink:href="#DejaVuSans-65" x="875.003906"/>
     <use xlink:href="#DejaVuSans-72" x="936.527344"/>
     <use xlink:href="#DejaVuSans-20" x="977.640625"/>
     <use xlink:href="#DejaVuSans-2d" x="1009.427734"/>
     <use xlink:href="#DejaVuSans-20" x="1045.511719"/>
     <use xlink:href="#DejaVuSans-6d" x="1077.298828"/>
     <use xlink:href="#DejaVuSans-6f" x="1174.710938"/>
     <use xlink:href="#DejaVuSans-64" x="1235.892578"/>
     <use xlink:href="#DejaVuSans-65" x="1299.369141"/>
     <use xlink:href="#DejaVuSans-6c" x="1360.892578"/>
     <use xlink:href="#DejaVuSans-5f" x="1388.675781"/>
     <use xlink:href="#DejaVuSans-32" x="1438.675781"/>
     <use xlink:href="#DejaVuSans-30" x="1502.298828"/>
     <use xlink:href="#DejaVuSans-32" x="1565.921875"/>
     <use xlink:href="#DejaVuSans-33" x="1629.544922"/>
     <use xlink:href="#DejaVuSans-31" x="1693.167969"/>
     <use xlink:href="#DejaVuSans-31" x="1756.791016"/>
     <use xlink:href="#DejaVuSans-32" x="1820.414062"/>
     <use xlink:href="#DejaVuSans-33" x="1884.037109"/>
     <use xlink:href="#DejaVuSans-31" x="1947.660156"/>
     <use xlink:href="#DejaVuSans-36" x="2011.283203"/>
     <use xlink:href="#DejaVuSans-34" x="2074.90625"/>
     <use xlink:href="#DejaVuSans-32" x="2138.529297"/>
     <use xlink:href="#DejaVuSans-30" x="2202.152344"/>
     <use xlink:href="#DejaVuSans-37" x="2265.775391"/>
    </g>
   </g>
   <g id="legend_1">
    <g id="patch_7">
     <path d="M 79 95.234375 
L 161.517188 95.234375 
Q 163.517188 95.234375 163.517188 93.234375 
L 163.517188 50.2 
Q 163.517188 48.2 161.517188 48.2 
L 79 48.2 
Q 77 48.2 77 50.2 
L 77 93.234375 
Q 77 95.234375 79 95.234375 
z
" style="fill: #ffffff; opacity: 0.8; stroke: #cccccc; stroke-linejoin: miter"/>
    </g>
    <g id="line2d_16">
     <path d="M 81 56.298437 
L 91 56.298437 
L 101 56.298437 
" style="fill: none; stroke: #1f77b4; stroke-width: 1.5; stroke-linecap: square"/>
    </g>
    <g id="text_14">
     <!-- Measured -->
     <g transform="translate(109 59.798437) scale(0.1 -0.1)">
      <defs>
       <path id="DejaVuSans-4d" d="M 628 4666 
L 1569 4666 
L 2759 1491 
L 3956 4666 
L 4897 4666 
L 4897 0 
L 4281 0 
L 4281 4097 
L 3078 897 
L 2444 897 
L 1241 4097 
L 1241 0 
L 628 0 
L 628 4666 
z
" transform="scale(0.015625)"/>
       <path id="DejaVuSans-75" d="M 544 1381 
L 544 3500 
L 1119 3500 
L 1119 1403 
Q 1119 906 1312 657 
Q 1506 409 1894 409 
Q 2359 409 2629 706 
Q 2900 1003 2900 1516 
L 2900 3500 
L 3475 3500 
L 3475 0 
L 2900 0 
L 2900 538 
Q 2691 219 2414 64 
Q 2138 -91 1772 -91 
Q 1169 -91 856 284 
Q 544 659 544 1381 
z
M 1991 3584 
L 1991 3584 
z
" transform="scale(0.015625)"/>
      </defs>
      <use xlink:href="#DejaVuSans-4d"/>
      <use xlink:href="#DejaVuSans-65" x="86.279297"/>
      <use xlink:href="#DejaVuSans-61" x="147.802734"/>
      <use xlink:href="#DejaVuSans-73" x="209.082031"/>
      <use xlink:href="#DejaVuSans-75" x="261.181641"/>
      <use xlink:href="#DejaVuSans-72" x="324.560547"/>
      <use xlink:href="#DejaVuSans-65" x="363.423828"/>
      <use xlink:href="#DejaVuSans-64" x="424.947266"/>
     </g>
    </g>
    <g id="line2d_17">
     <path d="M 81 70.976562 
L 91 70.976562 
L 101 70.976562 
" style="fill: none; stroke: #ff7f0e; stroke-width: 1.5; stroke-linecap: square"/>
    </g>
    <g id="text_15">
     <!-- Fitted -->
     <g transform="translate(109 74.476562) scale(0.1 -0.1)">
      <defs>
       <path id="DejaVuSans-46" d="M 628 4666 
L 3309 4666 
L 3309 4134 
L 1259 4134 
L 1259 2759 
L 3109 2759 
L 3109 2228 
L 1259 2228 
L 1259 0 
L 628 0 
L 628 4666 
z
" transform="scale(0.015625)"/>
       <path id="DejaVuSans-74" d="M 1172 4494 
L 1172 3500 
L 2356 3500 
L 2356 3053 
L 1172 3053 
L 1172 1153 
Q 1172 725 1289 603 
Q 1406 481 1766 481 
L 2356 481 
L 2356 0 
L 1766 0 
Q 1100 0 847 248 
Q 594 497 594 1153 
L 594 3053 
L 172 3053 
L 172 3500 
L 594 3500 
L 594 4494 
L 1172 4494 
z
" transform="scale(0.015625)"/>
      </defs>
      <use xlink:href="#DejaVuSans-46"/>
      <use xlink:href="#DejaVuSans-69" x="50.269531"/>
      <use xlink:href="#DejaVuSans-74" x="78.052734"/>
      <use xlink:href="#DejaVuSans-74" x="117.261719"/>
      <use xlink:href="#DejaVuSans-65" x="156.470703"/>
      <use xlink:href="#DejaVuSans-64" x="217.994141"/>
     </g>
    </g>
    <g id="line2d_18">
     <path d="M 81 85.654687 
L 91 85.654687 
L 101 85.654687 
" style="fill: none; stroke: #2ca02c; stroke-width: 1.5; stroke-linecap: square"/>
    </g>
    <g id="text_16">
     <!-- Estimated -->
     <g transform="translate(109 89.154687) scale(0.1 -0.1)">
      <defs>
       <path id="DejaVuSans-45" d="M 628 4666 
L 3578 4666 
L 3578 4134 
L 1259 4134 
L 1259 2753 
L 3481 2753 
L 3481 2222 
L 1259 2222 
L 1259 531 
L 3634 531 
L 3634 0 
L 628 0 
L 628 4666 
z
" transform="scale(0.015625)"/>
      </defs>
      <use xlink:href="#DejaVuSans-45"/>
      <use xlink:href="#DejaVuSans-73" x="63.183594"/>
      <use xlink:href="#DejaVuSans-74" x="115.283203"/>
      <use xlink:href="#DejaVuSans-69" x="154.492188"/>
      <use xlink:href="#DejaVuSans-6d" x="182.275391"/>
      <use xlink:href="#DejaVuSans-61" x="279.6875"/>
      <use xlink:href="#DejaVuSans-74" x="340.966797"/>
      <use xlink:href="#DejaVuSans-65" x="380.175781"/>
      <use xlink:href="#DejaVuSans-64" x="441.699219"/>
     </g>
    </g>
   </g>
  </g>
 </g>
 <defs>
  <clipPath id="pb8af66767c">
   <rect x="72" y="43.2" width="446.4" height="277.2"/>
  </clipPath>
 </defs>
</svg>
