<?xml version="1.0" encoding="utf-8" standalone="no"?>
<!DOCTYPE svg PUBLIC "-//W3C//DTD SVG 1.1//EN"
  "http://www.w3.org/Graphics/SVG/1.1/DTD/svg11.dtd">
<svg xmlns:xlink="http://www.w3.org/1999/xlink" width="576pt" height="360pt" viewBox="0 0 576 360" xmlns="http://www.w3.org/2000/svg" version="1.1">
 <metadata>
  <rdf:RDF xmlns:dc="http://purl.org/dc/elements/1.1/" xmlns:cc="http://creativecommons.org/ns#" xmlns:rdf="http://www.w3.org/1999/02/22-rdf-syntax-ns#">
   <cc:Work>
    <dc:type rdf:resource="http://purl.org/dc/dcmitype/StillImage"/>
    <dc:date>2023-11-23T16:33:54.629138</dc:date>
    <dc:format>image/svg+xml</dc:format>
    <dc:creator>
     <cc:Agent>
      <dc:title>Matplotlib v3.8.1, https://matplotlib.org/</dc:title>
     </cc:Agent>
    </dc:creator>
   </cc:Work>
  </rdf:RDF>
 </metadata>
 <defs>
  <style type="text/css">*{stroke-linejoin: round; stroke-linecap: butt}</style>
 </defs>
 <g id="figure_1">
  <g id="patch_1">
   <path d="M 0 360 
L 576 360 
L 576 0 
L 0 0 
z
" style="fill: #ffffff"/>
  </g>
  <g id="axes_1">
   <g id="patch_2">
    <path d="M 72 320.4 
L 518.4 320.4 
L 518.4 43.2 
L 72 43.2 
z
" style="fill: #ffffff"/>
   </g>
   <g id="matplotlib.axis_1">
    <g id="xtick_1">
     <g id="line2d_1">
      <defs>
       <path id="m5718e2c162" d="M 0 0 
L 0 3.5 
" style="stroke: #000000; stroke-width: 0.8"/>
      </defs>
      <g>
       <use xlink:href="#m5718e2c162" x="129.874161" y="320.4" style="stroke: #000000; stroke-width: 0.8"/>
      </g>
     </g>
     <g id="text_1">
      <!-- 2020-05-15 -->
      <g transform="translate(100.816349 334.998438) scale(0.1 -0.1)">
       <defs>
        <path id="DejaVuSans-32" d="M 1228 531 
L 3431 531 
L 3431 0 
L 469 0 
L 469 531 
Q 828 903 1448 1529 
Q 2069 2156 2228 2338 
Q 2531 2678 2651 2914 
Q 2772 3150 2772 3378 
Q 2772 3750 2511 3984 
Q 2250 4219 1831 4219 
Q 1534 4219 1204 4116 
Q 875 4013 500 3803 
L 500 4441 
Q 881 4594 1212 4672 
Q 1544 4750 1819 4750 
Q 2544 4750 2975 4387 
Q 3406 4025 3406 3419 
Q 3406 3131 3298 2873 
Q 3191 2616 2906 2266 
Q 2828 2175 2409 1742 
Q 1991 1309 1228 531 
z
" transform="scale(0.015625)"/>
        <path id="DejaVuSans-30" d="M 2034 4250 
Q 1547 4250 1301 3770 
Q 1056 3291 1056 2328 
Q 1056 1369 1301 889 
Q 1547 409 2034 409 
Q 2525 409 2770 889 
Q 3016 1369 3016 2328 
Q 3016 3291 2770 3770 
Q 2525 4250 2034 4250 
z
M 2034 4750 
Q 2819 4750 3233 4129 
Q 3647 3509 3647 2328 
Q 3647 1150 3233 529 
Q 2819 -91 2034 -91 
Q 1250 -91 836 529 
Q 422 1150 422 2328 
Q 422 3509 836 4129 
Q 1250 4750 2034 4750 
z
" transform="scale(0.015625)"/>
        <path id="DejaVuSans-2d" d="M 313 2009 
L 1997 2009 
L 1997 1497 
L 313 1497 
L 313 2009 
z
" transform="scale(0.015625)"/>
        <path id="DejaVuSans-35" d="M 691 4666 
L 3169 4666 
L 3169 4134 
L 1269 4134 
L 1269 2991 
Q 1406 3038 1543 3061 
Q 1681 3084 1819 3084 
Q 2600 3084 3056 2656 
Q 3513 2228 3513 1497 
Q 3513 744 3044 326 
Q 2575 -91 1722 -91 
Q 1428 -91 1123 -41 
Q 819 9 494 109 
L 494 744 
Q 775 591 1075 516 
Q 1375 441 1709 441 
Q 2250 441 2565 725 
Q 2881 1009 2881 1497 
Q 2881 1984 2565 2268 
Q 2250 2553 1709 2553 
Q 1456 2553 1204 2497 
Q 953 2441 691 2322 
L 691 4666 
z
" transform="scale(0.015625)"/>
        <path id="DejaVuSans-31" d="M 794 531 
L 1825 531 
L 1825 4091 
L 703 3866 
L 703 4441 
L 1819 4666 
L 2450 4666 
L 2450 531 
L 3481 531 
L 3481 0 
L 794 0 
L 794 531 
z
" transform="scale(0.015625)"/>
       </defs>
       <use xlink:href="#DejaVuSans-32"/>
       <use xlink:href="#DejaVuSans-30" x="63.623047"/>
       <use xlink:href="#DejaVuSans-32" x="127.246094"/>
       <use xlink:href="#DejaVuSans-30" x="190.869141"/>
       <use xlink:href="#DejaVuSans-2d" x="254.492188"/>
       <use xlink:href="#DejaVuSans-30" x="290.576172"/>
       <use xlink:href="#DejaVuSans-35" x="354.199219"/>
       <use xlink:href="#DejaVuSans-2d" x="417.822266"/>
       <use xlink:href="#DejaVuSans-31" x="453.90625"/>
       <use xlink:href="#DejaVuSans-35" x="517.529297"/>
      </g>
     </g>
    </g>
    <g id="xtick_2">
     <g id="line2d_2">
      <g>
       <use xlink:href="#m5718e2c162" x="212.435902" y="320.4" style="stroke: #000000; stroke-width: 0.8"/>
      </g>
     </g>
     <g id="text_2">
      <!-- 2020-06-01 -->
      <g transform="translate(183.37809 334.998438) scale(0.1 -0.1)">
       <defs>
        <path id="DejaVuSans-36" d="M 2113 2584 
Q 1688 2584 1439 2293 
Q 1191 2003 1191 1497 
Q 1191 994 1439 701 
Q 1688 409 2113 409 
Q 2538 409 2786 701 
Q 3034 994 3034 1497 
Q 3034 2003 2786 2293 
Q 2538 2584 2113 2584 
z
M 3366 4563 
L 3366 3988 
Q 3128 4100 2886 4159 
Q 2644 4219 2406 4219 
Q 1781 4219 1451 3797 
Q 1122 3375 1075 2522 
Q 1259 2794 1537 2939 
Q 1816 3084 2150 3084 
Q 2853 3084 3261 2657 
Q 3669 2231 3669 1497 
Q 3669 778 3244 343 
Q 2819 -91 2113 -91 
Q 1303 -91 875 529 
Q 447 1150 447 2328 
Q 447 3434 972 4092 
Q 1497 4750 2381 4750 
Q 2619 4750 2861 4703 
Q 3103 4656 3366 4563 
z
" transform="scale(0.015625)"/>
       </defs>
       <use xlink:href="#DejaVuSans-32"/>
       <use xlink:href="#DejaVuSans-30" x="63.623047"/>
       <use xlink:href="#DejaVuSans-32" x="127.246094"/>
       <use xlink:href="#DejaVuSans-30" x="190.869141"/>
       <use xlink:href="#DejaVuSans-2d" x="254.492188"/>
       <use xlink:href="#DejaVuSans-30" x="290.576172"/>
       <use xlink:href="#DejaVuSans-36" x="354.199219"/>
       <use xlink:href="#DejaVuSans-2d" x="417.822266"/>
       <use xlink:href="#DejaVuSans-30" x="453.90625"/>
       <use xlink:href="#DejaVuSans-31" x="517.529297"/>
      </g>
     </g>
    </g>
    <g id="xtick_3">
     <g id="line2d_3">
      <g>
       <use xlink:href="#m5718e2c162" x="280.427924" y="320.4" style="stroke: #000000; stroke-width: 0.8"/>
      </g>
     </g>
     <g id="text_3">
      <!-- 2020-06-15 -->
      <g transform="translate(251.370111 334.998438) scale(0.1 -0.1)">
       <use xlink:href="#DejaVuSans-32"/>
       <use xlink:href="#DejaVuSans-30" x="63.623047"/>
       <use xlink:href="#DejaVuSans-32" x="127.246094"/>
       <use xlink:href="#DejaVuSans-30" x="190.869141"/>
       <use xlink:href="#DejaVuSans-2d" x="254.492188"/>
       <use xlink:href="#DejaVuSans-30" x="290.576172"/>
       <use xlink:href="#DejaVuSans-36" x="354.199219"/>
       <use xlink:href="#DejaVuSans-2d" x="417.822266"/>
       <use xlink:href="#DejaVuSans-31" x="453.90625"/>
       <use xlink:href="#DejaVuSans-35" x="517.529297"/>
      </g>
     </g>
    </g>
    <g id="xtick_4">
     <g id="line2d_4">
      <g>
       <use xlink:href="#m5718e2c162" x="358.133092" y="320.4" style="stroke: #000000; stroke-width: 0.8"/>
      </g>
     </g>
     <g id="text_4">
      <!-- 2020-07-01 -->
      <g transform="translate(329.075279 334.998438) scale(0.1 -0.1)">
       <defs>
        <path id="DejaVuSans-37" d="M 525 4666 
L 3525 4666 
L 3525 4397 
L 1831 0 
L 1172 0 
L 2766 4134 
L 525 4134 
L 525 4666 
z
" transform="scale(0.015625)"/>
       </defs>
       <use xlink:href="#DejaVuSans-32"/>
       <use xlink:href="#DejaVuSans-30" x="63.623047"/>
       <use xlink:href="#DejaVuSans-32" x="127.246094"/>
       <use xlink:href="#DejaVuSans-30" x="190.869141"/>
       <use xlink:href="#DejaVuSans-2d" x="254.492188"/>
       <use xlink:href="#DejaVuSans-30" x="290.576172"/>
       <use xlink:href="#DejaVuSans-37" x="354.199219"/>
       <use xlink:href="#DejaVuSans-2d" x="417.822266"/>
       <use xlink:href="#DejaVuSans-30" x="453.90625"/>
       <use xlink:href="#DejaVuSans-31" x="517.529297"/>
      </g>
     </g>
    </g>
    <g id="xtick_5">
     <g id="line2d_5">
      <g>
       <use xlink:href="#m5718e2c162" x="426.125113" y="320.4" style="stroke: #000000; stroke-width: 0.8"/>
      </g>
     </g>
     <g id="text_5">
      <!-- 2020-07-15 -->
      <g transform="translate(397.067301 334.998438) scale(0.1 -0.1)">
       <use xlink:href="#DejaVuSans-32"/>
       <use xlink:href="#DejaVuSans-30" x="63.623047"/>
       <use xlink:href="#DejaVuSans-32" x="127.246094"/>
       <use xlink:href="#DejaVuSans-30" x="190.869141"/>
       <use xlink:href="#DejaVuSans-2d" x="254.492188"/>
       <use xlink:href="#DejaVuSans-30" x="290.576172"/>
       <use xlink:href="#DejaVuSans-37" x="354.199219"/>
       <use xlink:href="#DejaVuSans-2d" x="417.822266"/>
       <use xlink:href="#DejaVuSans-31" x="453.90625"/>
       <use xlink:href="#DejaVuSans-35" x="517.529297"/>
      </g>
     </g>
    </g>
    <g id="xtick_6">
     <g id="line2d_6">
      <g>
       <use xlink:href="#m5718e2c162" x="508.686854" y="320.4" style="stroke: #000000; stroke-width: 0.8"/>
      </g>
     </g>
     <g id="text_6">
      <!-- 2020-08-01 -->
      <g transform="translate(479.629042 334.998438) scale(0.1 -0.1)">
       <defs>
        <path id="DejaVuSans-38" d="M 2034 2216 
Q 1584 2216 1326 1975 
Q 1069 1734 1069 1313 
Q 1069 891 1326 650 
Q 1584 409 2034 409 
Q 2484 409 2743 651 
Q 3003 894 3003 1313 
Q 3003 1734 2745 1975 
Q 2488 2216 2034 2216 
z
M 1403 2484 
Q 997 2584 770 2862 
Q 544 3141 544 3541 
Q 544 4100 942 4425 
Q 1341 4750 2034 4750 
Q 2731 4750 3128 4425 
Q 3525 4100 3525 3541 
Q 3525 3141 3298 2862 
Q 3072 2584 2669 2484 
Q 3125 2378 3379 2068 
Q 3634 1759 3634 1313 
Q 3634 634 3220 271 
Q 2806 -91 2034 -91 
Q 1263 -91 848 271 
Q 434 634 434 1313 
Q 434 1759 690 2068 
Q 947 2378 1403 2484 
z
M 1172 3481 
Q 1172 3119 1398 2916 
Q 1625 2713 2034 2713 
Q 2441 2713 2670 2916 
Q 2900 3119 2900 3481 
Q 2900 3844 2670 4047 
Q 2441 4250 2034 4250 
Q 1625 4250 1398 4047 
Q 1172 3844 1172 3481 
z
" transform="scale(0.015625)"/>
       </defs>
       <use xlink:href="#DejaVuSans-32"/>
       <use xlink:href="#DejaVuSans-30" x="63.623047"/>
       <use xlink:href="#DejaVuSans-32" x="127.246094"/>
       <use xlink:href="#DejaVuSans-30" x="190.869141"/>
       <use xlink:href="#DejaVuSans-2d" x="254.492188"/>
       <use xlink:href="#DejaVuSans-30" x="290.576172"/>
       <use xlink:href="#DejaVuSans-38" x="354.199219"/>
       <use xlink:href="#DejaVuSans-2d" x="417.822266"/>
       <use xlink:href="#DejaVuSans-30" x="453.90625"/>
       <use xlink:href="#DejaVuSans-31" x="517.529297"/>
      </g>
     </g>
    </g>
   </g>
   <g id="matplotlib.axis_2">
    <g id="ytick_1">
     <g id="line2d_7">
      <defs>
       <path id="m770d81963d" d="M 0 0 
L -3.5 0 
" style="stroke: #000000; stroke-width: 0.8"/>
      </defs>
      <g>
       <use xlink:href="#m770d81963d" x="72" y="315.829931" style="stroke: #000000; stroke-width: 0.8"/>
      </g>
     </g>
     <g id="text_7">
      <!-- −2 -->
      <g transform="translate(50.257812 319.62915) scale(0.1 -0.1)">
       <defs>
        <path id="DejaVuSans-2212" d="M 678 2272 
L 4684 2272 
L 4684 1741 
L 678 1741 
L 678 2272 
z
" transform="scale(0.015625)"/>
       </defs>
       <use xlink:href="#DejaVuSans-2212"/>
       <use xlink:href="#DejaVuSans-32" x="83.789062"/>
      </g>
     </g>
    </g>
    <g id="ytick_2">
     <g id="line2d_8">
      <g>
       <use xlink:href="#m770d81963d" x="72" y="263.340539" style="stroke: #000000; stroke-width: 0.8"/>
      </g>
     </g>
     <g id="text_8">
      <!-- −1 -->
      <g transform="translate(50.257812 267.139758) scale(0.1 -0.1)">
       <use xlink:href="#DejaVuSans-2212"/>
       <use xlink:href="#DejaVuSans-31" x="83.789062"/>
      </g>
     </g>
    </g>
    <g id="ytick_3">
     <g id="line2d_9">
      <g>
       <use xlink:href="#m770d81963d" x="72" y="210.851148" style="stroke: #000000; stroke-width: 0.8"/>
      </g>
     </g>
     <g id="text_9">
      <!-- 0 -->
      <g transform="translate(58.6375 214.650366) scale(0.1 -0.1)">
       <use xlink:href="#DejaVuSans-30"/>
      </g>
     </g>
    </g>
    <g id="ytick_4">
     <g id="line2d_10">
      <g>
       <use xlink:href="#m770d81963d" x="72" y="158.361756" style="stroke: #000000; stroke-width: 0.8"/>
      </g>
     </g>
     <g id="text_10">
      <!-- 1 -->
      <g transform="translate(58.6375 162.160975) scale(0.1 -0.1)">
       <use xlink:href="#DejaVuSans-31"/>
      </g>
     </g>
    </g>
    <g id="ytick_5">
     <g id="line2d_11">
      <g>
       <use xlink:href="#m770d81963d" x="72" y="105.872364" style="stroke: #000000; stroke-width: 0.8"/>
      </g>
     </g>
     <g id="text_11">
      <!-- 2 -->
      <g transform="translate(58.6375 109.671583) scale(0.1 -0.1)">
       <use xlink:href="#DejaVuSans-32"/>
      </g>
     </g>
    </g>
    <g id="ytick_6">
     <g id="line2d_12">
      <g>
       <use xlink:href="#m770d81963d" x="72" y="53.382972" style="stroke: #000000; stroke-width: 0.8"/>
      </g>
     </g>
     <g id="text_12">
      <!-- 3 -->
      <g transform="translate(58.6375 57.182191) scale(0.1 -0.1)">
       <defs>
        <path id="DejaVuSans-33" d="M 2597 2516 
Q 3050 2419 3304 2112 
Q 3559 1806 3559 1356 
Q 3559 666 3084 287 
Q 2609 -91 1734 -91 
Q 1441 -91 1130 -33 
Q 819 25 488 141 
L 488 750 
Q 750 597 1062 519 
Q 1375 441 1716 441 
Q 2309 441 2620 675 
Q 2931 909 2931 1356 
Q 2931 1769 2642 2001 
Q 2353 2234 1838 2234 
L 1294 2234 
L 1294 2753 
L 1863 2753 
Q 2328 2753 2575 2939 
Q 2822 3125 2822 3475 
Q 2822 3834 2567 4026 
Q 2313 4219 1838 4219 
Q 1578 4219 1281 4162 
Q 984 4106 628 3988 
L 628 4550 
Q 988 4650 1302 4700 
Q 1616 4750 1894 4750 
Q 2613 4750 3031 4423 
Q 3450 4097 3450 3541 
Q 3450 3153 3228 2886 
Q 3006 2619 2597 2516 
z
" transform="scale(0.015625)"/>
       </defs>
       <use xlink:href="#DejaVuSans-33"/>
      </g>
     </g>
    </g>
   </g>
   <g id="line2d_13">
    <path d="M 72 287.50963 
L 72.404714 298.633284 
L 72.607072 296.944137 
L 72.809429 286.479662 
L 73.214143 256.157402 
L 73.618858 243.962581 
L 75.035358 162.595105 
L 75.237715 159.690595 
L 75.440073 164.655041 
L 75.64243 172.709391 
L 75.844787 175.943491 
L 76.047144 190.898627 
L 76.654216 259.824089 
L 77.05893 283.430956 
L 77.261287 287.715623 
L 77.463645 287.344835 
L 77.666002 276.839161 
L 78.070716 248.885828 
L 78.475431 236.649808 
L 78.677788 227.689086 
L 79.487217 171.78242 
L 79.891931 155.817916 
L 80.094288 157.733656 
L 80.903717 199.344365 
L 81.713146 273.254872 
L 82.11786 287.633226 
L 82.320218 289.631364 
L 82.522575 289.342973 
L 82.724932 286.871049 
L 82.927289 280.176257 
L 83.332004 257.619957 
L 83.736718 243.571193 
L 83.939075 240.584286 
L 84.141432 240.852077 
L 84.546147 247.134882 
L 84.748504 249.194818 
L 84.950861 249.215418 
L 85.355576 253.33529 
L 85.557933 250.059992 
L 85.76029 256.075005 
L 86.569719 300.198836 
L 86.772076 306.17265 
L 86.974433 307.738202 
L 87.176791 307.8 
L 87.379148 306.481641 
L 87.581505 302.814955 
L 87.783862 296.18196 
L 88.188577 274.532032 
L 88.390934 269.44399 
L 89.200363 261.513236 
L 89.40272 257.455162 
L 89.807434 242.932613 
L 90.212149 240.522487 
L 90.414506 237.86517 
L 90.616863 245.672328 
L 91.223935 295.337387 
L 91.628649 306.17265 
L 91.831006 306.234449 
L 92.033364 303.783125 
L 92.842792 258.464531 
L 93.04515 256.363396 
L 93.449864 247.917658 
L 93.652221 247.402674 
L 93.854578 244.518763 
L 94.056936 243.900783 
L 94.259293 241.325863 
L 94.46165 235.043057 
L 94.664007 232.241544 
L 94.866364 233.147916 
L 95.068722 236.23782 
L 95.271079 232.468137 
L 95.473436 242.397029 
L 96.080508 295.708175 
L 96.485222 304.751295 
L 96.687579 306.625836 
L 96.889937 302.361769 
L 97.699365 257.743553 
L 98.306437 247.423273 
L 98.508794 247.052485 
L 99.52058 226.205932 
L 99.722937 227.441893 
L 99.925295 231.72656 
L 100.127652 229.934416 
L 100.330009 239.904507 
L 100.937081 293.277451 
L 101.341795 305.328077 
L 101.544152 306.296247 
L 101.74651 302.65016 
L 101.948867 290.908524 
L 102.353581 261.410239 
L 102.555938 259.885887 
L 103.567724 242.417629 
L 104.377153 220.705902 
L 104.57951 221.962463 
L 104.781868 227.256499 
L 104.984225 227.2359 
L 105.186582 235.970029 
L 105.793654 290.187546 
L 106.198368 302.711958 
L 106.400725 304.442304 
L 106.603083 300.487227 
L 107.412511 255.374627 
L 107.614869 253.685479 
L 107.817226 250.080591 
L 108.22194 235.805234 
L 108.626655 214.484895 
L 108.829012 208.655276 
L 109.031369 206.801334 
L 109.638441 215.329469 
L 109.840798 220.664704 
L 110.043155 230.881987 
L 110.650227 284.955309 
L 111.054941 298.962874 
L 111.257298 300.837416 
L 111.459655 299.127669 
L 111.662013 287.921617 
L 112.066727 259.185508 
L 112.471442 244.456965 
L 113.887942 177.26185 
L 114.090299 174.934122 
L 114.292656 181.628915 
L 114.495014 192.855566 
L 114.697371 197.366826 
L 115.102085 230.77899 
L 115.709157 279.269885 
L 116.113871 292.96846 
L 116.316228 293.133255 
L 116.518586 291.505906 
L 116.720943 287.942216 
L 117.125657 261.183646 
L 118.542158 158.372236 
L 118.744515 148.443344 
L 118.946872 144.632463 
L 119.149229 148.237351 
L 119.756301 185.439796 
L 120.56573 263.387778 
L 120.970444 282.854174 
L 121.172801 286.871049 
L 121.375159 288.4778 
L 121.577516 287.056444 
L 121.779873 279.269885 
L 122.589302 229.17224 
L 123.196374 204.164616 
L 123.398731 199.673955 
L 123.601088 199.879948 
L 123.803445 199.323766 
L 124.410517 212.486757 
L 124.612874 223.260223 
L 125.219946 278.548908 
L 125.62466 292.824265 
L 125.827017 294.781204 
L 126.029374 292.288681 
L 127.04116 236.897 
L 127.648232 200.14774 
L 128.255304 158.516432 
L 128.457661 151.100662 
L 128.660018 150.771072 
L 129.26709 194.318121 
L 130.278876 283.554552 
L 130.481233 291.238114 
L 130.68359 292.597672 
L 130.885947 290.06395 
L 132.504805 183.07087 
L 133.111877 141.151171 
L 133.314234 131.902058 
L 133.516591 133.570606 
L 133.921306 148.669937 
L 134.123663 155.962111 
L 135.135449 263.902762 
L 135.540163 276.303577 
L 135.74252 275.376606 
L 135.944878 264.973929 
L 136.349592 234.116086 
L 136.551949 227.462493 
L 136.754306 215.803254 
L 136.956664 220.293915 
L 137.159021 209.19086 
L 137.766092 200.518529 
L 137.96845 200.909917 
L 138.373164 195.595281 
L 138.777879 203.011051 
L 138.980236 203.835026 
L 139.182593 215.432466 
L 139.789665 271.07134 
L 140.194379 286.170671 
L 140.396736 288.210008 
L 140.599093 285.2437 
L 141.003808 255.560021 
L 141.408522 234.754666 
L 142.015594 221.591675 
L 142.622665 212.610353 
L 142.825023 212.342562 
L 143.02738 211.147799 
L 143.229737 211.827578 
L 143.634451 217.018617 
L 143.836809 215.803254 
L 144.039166 225.814544 
L 144.646238 274.305439 
L 145.050952 286.19127 
L 145.253309 287.468431 
L 145.455666 284.378527 
L 145.860381 255.230431 
L 146.062738 239.059933 
L 146.66981 222.868835 
L 146.872167 220.232117 
L 147.074524 219.16095 
L 147.479238 208.243289 
L 147.681596 216.565431 
L 147.883953 217.533601 
L 148.08631 220.108521 
L 148.491024 229.275236 
L 148.693382 227.936278 
L 149.098096 251.192956 
L 149.502811 278.899097 
L 149.907525 291.814896 
L 150.109882 293.854233 
L 150.312239 293.277451 
L 150.514597 290.475938 
L 150.716954 284.811113 
L 151.121668 264.088156 
L 151.526383 243.735988 
L 151.931097 237.968167 
L 152.133454 237.53558 
L 152.335811 239.492519 
L 152.538169 240.007503 
L 152.740526 237.968167 
L 152.942883 238.256558 
L 153.14524 237.288388 
L 153.347597 237.329587 
L 153.549955 234.425077 
L 153.752312 236.608609 
L 154.764098 287.736223 
L 154.966455 291.6707 
L 155.168812 293.050858 
L 155.573527 289.136979 
L 155.775884 278.13692 
L 156.78767 200.703923 
L 157.799456 158.351637 
L 158.001813 160.349775 
L 158.406528 173.471568 
L 158.608885 186.94355 
L 159.215956 255.148034 
L 159.620671 276.612568 
L 159.823028 279.805469 
L 160.025385 278.899097 
L 160.227743 269.155599 
L 160.632457 236.897 
L 161.8466 186.902351 
L 162.251315 176.911661 
L 162.453672 177.055857 
L 162.656029 179.898568 
L 163.465458 211.518587 
L 164.072529 271.009542 
L 164.477244 289.507768 
L 164.679601 289.837357 
L 164.881958 286.623857 
L 165.084316 276.53017 
L 165.48903 244.95135 
L 166.500816 210.076632 
L 167.310245 167.415356 
L 167.512602 170.752452 
L 167.917316 191.207618 
L 168.119674 195.63648 
L 168.322031 206.92493 
L 168.929102 265.983297 
L 169.333817 281.082629 
L 169.536174 284.58452 
L 169.738531 280.938433 
L 170.143246 253.809075 
L 170.54796 223.67221 
L 171.357389 179.362985 
L 171.559746 173.368571 
L 172.166818 149.308518 
L 172.369175 150.915268 
L 172.571532 158.784224 
L 173.178604 197.531621 
L 173.785675 268.208028 
L 174.19039 287.48903 
L 174.392747 290.455338 
L 174.595104 288.642594 
L 174.999819 264.582541 
L 175.404533 239.719112 
L 177.023391 161.915326 
L 177.225748 162.43031 
L 177.428105 166.32359 
L 177.630462 182.823678 
L 177.83282 185.254402 
L 178.237534 229.131041 
L 178.642248 271.812917 
L 179.046963 290.908524 
L 179.24932 294.616409 
L 179.451677 292.103287 
L 179.654034 283.451555 
L 180.261106 243.797786 
L 181.879964 147.31038 
L 182.082321 144.055681 
L 182.284678 149.699905 
L 183.094107 205.771366 
L 183.498821 244.601161 
L 183.903536 265.962698 
L 184.30825 273.769856 
L 184.510607 275.129414 
L 184.712965 271.503926 
L 184.915322 258.17614 
L 185.724751 176.499674 
L 186.129465 155.199935 
L 186.331822 149.164322 
L 186.53418 148.402146 
L 186.736537 150.935867 
L 187.748323 191.228217 
L 188.557752 255.189232 
L 188.962466 269.320394 
L 189.164823 271.359731 
L 189.36718 271.442128 
L 189.569538 270.700551 
L 189.771895 259.947685 
L 190.986038 164.263654 
L 191.188395 158.969618 
L 191.390752 158.928419 
L 191.795467 168.053936 
L 192.604896 199.282567 
L 193.414325 262.460807 
L 193.819039 276.138782 
L 194.021396 277.209949 
L 194.426111 273.254872 
L 194.628468 264.314749 
L 195.437897 203.526035 
L 195.640254 198.520391 
L 195.842611 199.735753 
L 196.247325 205.791965 
L 196.449683 206.368747 
L 196.65204 205.977359 
L 197.056754 214.175905 
L 197.259112 215.020479 
L 197.461469 223.425018 
L 198.06854 271.70992 
L 198.473255 285.88228 
L 198.675612 285.985277 
L 198.877969 282.33919 
L 199.282684 251.584344 
L 199.687398 228.780852 
L 201.306256 162.43031 
L 201.508613 161.276746 
L 202.115684 180.454751 
L 202.318042 191.599005 
L 202.925113 255.621819 
L 203.329828 273.254872 
L 203.532185 275.356007 
L 203.734542 272.369099 
L 203.936899 260.854057 
L 204.341614 226.885711 
L 205.758114 172.256206 
L 205.960471 169.763683 
L 206.162829 169.907878 
L 206.365186 171.329234 
L 206.7699 183.173867 
L 206.972257 186.366768 
L 207.174615 197.202032 
L 207.781686 256.2192 
L 208.186401 272.369099 
L 208.388758 275.417805 
L 208.591115 272.080708 
L 208.793472 260.215476 
L 209.198187 226.432525 
L 209.805258 204.164616 
L 210.209973 184.286232 
L 210.817044 142.613725 
L 211.019402 134.126789 
L 211.221759 137.093097 
L 211.626473 161.565137 
L 211.82883 166.776776 
L 212.031188 181.505319 
L 212.638259 246.537501 
L 213.042974 265.118124 
L 213.245331 269.1144 
L 213.447688 267.404653 
L 213.650045 256.692986 
L 214.257117 213.434328 
L 214.661831 187.087745 
L 215.47126 127.740987 
L 215.875975 111.014306 
L 216.078332 110.54052 
L 216.280689 116.081748 
L 217.090118 179.85737 
L 217.697189 241.779048 
L 218.101904 260.236076 
L 218.304261 263.593772 
L 218.506618 264.953329 
L 218.708976 263.696768 
L 218.911333 250.966363 
L 219.518404 196.172064 
L 220.125476 160.967756 
L 220.327833 158.804823 
L 220.53019 161.029554 
L 221.541976 203.340641 
L 221.744334 208.490481 
L 222.553762 265.385916 
L 222.958477 276.262379 
L 223.160834 277.972125 
L 223.363191 278.322315 
L 223.565549 276.756763 
L 223.767906 268.043234 
L 224.374977 229.831419 
L 224.779692 222.250854 
L 225.386763 224.31079 
L 225.589121 227.833281 
L 225.791478 228.719054 
L 226.196192 237.102994 
L 226.398549 236.752804 
L 226.600907 243.179805 
L 227.410335 296.799941 
L 227.612693 300.837416 
L 227.81505 302.526564 
L 228.017407 299.333663 
L 228.826836 256.734184 
L 229.029193 254.406457 
L 229.23155 248.659235 
L 230.648051 185.233803 
L 230.850408 185.810585 
L 231.255122 200.230138 
L 231.45748 211.127199 
L 232.064551 274.820423 
L 232.469266 292.00029 
L 232.671623 294.719406 
L 232.87398 293.504044 
L 233.278694 268.208028 
L 233.683409 245.672328 
L 235.302267 181.072732 
L 235.504624 180.475351 
L 236.111695 199.591557 
L 236.314053 209.953036 
L 236.921124 272.101308 
L 237.325839 287.983415 
L 237.528196 291.114518 
L 237.730553 288.992784 
L 238.135267 265.035727 
L 238.539982 243.241603 
L 239.349411 212.301363 
L 239.754125 202.290074 
L 240.15884 192.072791 
L 240.361197 191.825598 
L 240.563554 197.284429 
L 240.968268 214.896883 
L 241.170626 222.477447 
L 241.777697 278.033924 
L 242.182412 293.895431 
L 242.384769 296.387954 
L 242.587126 293.401047 
L 242.99184 268.681814 
L 243.396555 250.719171 
L 245.21777 176.046488 
L 245.420127 180.289956 
L 246.027199 207.089725 
L 246.836627 280.588244 
L 247.038985 288.951585 
L 247.241342 292.123886 
L 247.443699 289.590165 
L 247.848413 266.024496 
L 249.467271 154.005172 
L 249.669628 145.930222 
L 249.871985 143.993882 
L 250.074343 144.158677 
L 250.2767 151.100662 
L 250.883772 183.215066 
L 251.6932 258.196739 
L 252.097915 272.719288 
L 252.300272 275.788593 
L 252.502629 276.056385 
L 252.704986 272.183705 
L 253.109701 239.430721 
L 253.91913 166.220593 
L 254.323844 150.420883 
L 254.728558 141.604357 
L 254.930916 140.347796 
L 255.133273 147.845963 
L 255.740345 185.3162 
L 256.549773 260.524467 
L 256.954488 275.994587 
L 257.156845 279.805469 
L 257.359202 281.474017 
L 257.561559 280.505847 
L 257.966274 251.625543 
L 258.573345 201.239506 
L 258.97806 179.568979 
L 259.382774 168.548321 
L 259.585131 165.108227 
L 259.787489 164.675641 
L 259.989846 167.29176 
L 260.39456 183.276864 
L 260.596917 196.625249 
L 261.203989 258.608726 
L 261.608704 277.312946 
L 261.811061 280.238055 
L 262.013418 279.455279 
L 262.418132 255.498223 
L 262.62049 243.488795 
L 263.025204 233.827695 
L 263.227561 231.026182 
L 263.429918 230.016813 
L 263.834633 231.293974 
L 264.03699 230.984983 
L 264.239347 231.932554 
L 264.441704 232.014951 
L 264.644062 231.74716 
L 264.846419 233.786496 
L 265.048776 237.823971 
L 265.251133 237.823971 
L 265.45349 241.840847 
L 266.060562 284.296129 
L 266.465277 297.129531 
L 266.667634 298.674483 
L 266.869991 294.492813 
L 267.072348 286.54146 
L 267.477063 260.050682 
L 268.084134 237.885769 
L 268.488849 227.606688 
L 269.09592 216.359437 
L 269.500635 212.40436 
L 269.702992 214.587892 
L 269.905349 218.19278 
L 270.107706 218.872559 
L 270.310063 225.175964 
L 270.917135 274.017048 
L 271.32185 285.985277 
L 271.524207 288.12761 
L 271.726564 286.417863 
L 274.15485 144.879655 
L 274.357208 137.711077 
L 274.559565 141.048174 
L 275.166636 166.199993 
L 275.976065 247.752863 
L 276.38078 260.318473 
L 276.583137 259.618095 
L 276.987851 237.782772 
L 277.392566 208.881869 
L 278.404352 151.945236 
L 278.606709 148.89653 
L 279.011423 135.671741 
L 279.213781 134.064991 
L 279.416138 138.329058 
L 280.023209 180.042764 
L 280.630281 251.378351 
L 281.034995 274.161244 
L 281.237353 279.043292 
L 281.43971 277.49834 
L 281.642067 271.606923 
L 282.249139 229.852019 
L 282.85621 196.213262 
L 283.867996 153.42839 
L 284.070354 152.233627 
L 284.272711 160.390974 
L 285.284497 243.468196 
L 285.689211 275.644398 
L 286.093926 290.39354 
L 286.296283 292.680069 
L 286.49864 290.867325 
L 286.700997 287.921617 
L 287.105712 256.898979 
L 287.712783 205.338779 
L 288.522212 161.894727 
L 288.724569 154.767348 
L 288.926927 152.831008 
L 289.129284 156.415297 
L 289.736355 190.239448 
L 290.545784 260.339073 
L 290.950499 275.623798 
L 291.152856 278.404712 
L 291.355213 278.487109 
L 291.55757 277.003956 
L 291.759927 264.520743 
L 292.771714 165.808606 
L 293.176428 143.808488 
L 293.581142 132.561237 
L 293.7835 130.830891 
L 293.985857 134.353382 
L 294.592928 159.896589 
L 295.402357 243.221004 
L 295.807072 257.928947 
L 296.009429 257.764152 
L 296.414143 237.453183 
L 297.830644 102.238978 
L 298.235358 88.911192 
L 298.437715 86.315672 
L 298.640073 86.583464 
L 298.84243 88.6434 
L 299.044787 96.69775 
L 299.449501 123.724111 
L 300.056573 202.887455 
L 300.461287 228.18347 
L 300.663645 234.219083 
L 300.866002 234.940061 
L 301.068359 228.101073 
L 301.473073 197.984807 
L 302.484859 92.454282 
L 302.687217 81.104034 
L 302.889574 81.207031 
L 303.091931 89.323179 
L 303.496646 97.99551 
L 303.90136 120.304617 
L 304.306074 148.319748 
L 304.913146 217.718995 
L 305.31786 243.138606 
L 305.520218 248.721033 
L 305.722575 246.928889 
L 305.924932 239.78091 
L 306.532004 199.715154 
L 307.54379 129.512532 
L 307.746147 119.274649 
L 307.948504 118.388877 
L 308.757933 150.750473 
L 309.162647 176.891062 
L 309.769719 240.069301 
L 310.174433 260.009483 
L 310.376791 264.417746 
L 310.579148 263.840964 
L 310.983862 240.357693 
L 312.198005 136.02193 
L 312.60272 124.362692 
L 312.805077 119.975028 
L 313.007434 120.53121 
L 313.209791 124.239095 
L 313.816863 151.904037 
L 314.01922 165.623211 
L 314.626292 228.389464 
L 315.031006 248.947626 
L 315.233364 253.541283 
L 315.435721 252.882104 
L 315.840435 234.054288 
L 316.24515 215.28827 
L 316.649864 203.237644 
L 317.054578 187.89112 
L 317.66165 180.351754 
L 317.864007 179.898568 
L 318.066364 178.992197 
L 318.268722 183.688851 
L 318.875793 205.894962 
L 319.685222 264.664938 
L 320.089937 277.477741 
L 320.292294 279.12569 
L 320.697008 271.174336 
L 321.101723 244.868953 
L 322.315866 166.714977 
L 322.72058 156.435896 
L 322.922937 154.108169 
L 323.125295 158.24864 
L 323.732366 185.954781 
L 324.541795 254.694848 
L 324.94651 269.032003 
L 325.148867 271.936513 
L 325.351224 271.998311 
L 325.553581 269.732381 
L 325.755938 257.372765 
L 326.970082 144.632463 
L 327.172439 138.287859 
L 327.374796 136.701709 
L 327.77951 131.119282 
L 327.981868 136.124927 
L 328.184225 144.941453 
L 328.791296 196.748846 
L 329.196011 240.604885 
L 329.398368 255.889611 
L 329.803083 266.024496 
L 330.00544 265.076926 
L 330.207797 259.4533 
L 330.814869 210.79761 
L 331.42194 172.462199 
L 331.826655 149.720505 
L 332.029012 146.815995 
L 332.231369 146.836594 
L 332.433726 147.021988 
L 332.636083 149.123123 
L 332.838441 153.675582 
L 333.243155 176.664469 
L 333.445512 185.707588 
L 334.052584 251.625543 
L 334.457298 273.481465 
L 334.659655 278.919696 
L 334.862013 276.509571 
L 335.266727 256.610588 
L 335.671442 232.179746 
L 336.48087 191.949195 
L 336.683228 186.861152 
L 336.885585 185.748787 
L 337.087942 179.548379 
L 337.290299 177.694437 
L 337.695014 184.183235 
L 338.099728 198.685186 
L 338.302085 204.576603 
L 339.111514 270.597554 
L 339.313871 276.818561 
L 339.516228 279.063892 
L 339.718586 274.985218 
L 340.1233 251.563745 
L 340.932729 206.966129 
L 342.349229 145.02385 
L 342.551587 144.941453 
L 343.158658 169.701885 
L 343.76573 232.653532 
L 344.170444 250.719171 
L 344.372801 255.498223 
L 344.575159 253.355889 
L 344.777516 246.413905 
L 345.18223 215.432466 
L 346.194016 132.540638 
L 346.598731 117.729697 
L 347.003445 111.096703 
L 347.205802 110.252129 
L 347.40816 113.44503 
L 347.610517 121.313986 
L 348.015231 147.495774 
L 348.82466 238.895138 
L 349.229374 256.054406 
L 349.431732 255.292229 
L 349.634089 249.483209 
L 349.836446 238.318356 
L 351.050589 133.570606 
L 351.455304 115.154777 
L 351.860018 106.276453 
L 352.062375 105.370081 
L 352.264733 109.016168 
L 352.46709 120.139823 
L 353.276519 203.484837 
L 353.681233 241.531856 
L 354.085947 261.781028 
L 354.288305 267.075064 
L 354.490662 267.651846 
L 354.693019 265.406515 
L 355.097733 223.239624 
L 355.704805 149.184921 
L 356.109519 124.40389 
L 356.716591 106.152857 
L 356.918948 105.06109 
L 357.121306 109.881341 
L 357.52602 135.589343 
L 357.728377 148.319748 
L 358.740163 244.106776 
L 359.144878 257.125572 
L 359.347235 259.000114 
L 359.549592 258.670524 
L 359.751949 244.62176 
L 360.763735 123.600515 
L 361.16845 104.463709 
L 361.573164 93.319455 
L 361.775521 91.012326 
L 361.977879 94.308224 
L 362.180236 101.332606 
L 362.58495 127.205403 
L 363.394379 216.25644 
L 363.799093 233.971891 
L 364.001451 234.795865 
L 364.203808 228.883849 
L 364.406165 218.790162 
L 365.013237 148.958328 
L 365.620308 84.152739 
L 366.025023 67.920443 
L 366.429737 61.720035 
L 366.632094 62.21442 
L 366.834451 64.871737 
L 367.036809 73.626466 
L 367.441523 102.939356 
L 368.048595 182.906075 
L 368.453309 213.557924 
L 368.655666 222.127258 
L 368.858024 224.516784 
L 369.060381 220.602905 
L 369.262738 210.694613 
L 369.86981 146.877793 
L 370.476881 88.437406 
L 370.881596 71.731325 
L 371.083953 71.278139 
L 371.28631 71.999116 
L 371.488667 75.954194 
L 371.691024 82.216399 
L 372.298096 121.396384 
L 373.107525 206.842532 
L 373.512239 229.192839 
L 373.714597 233.580503 
L 374.119311 232.880125 
L 374.321668 220.067322 
L 375.333454 115.669761 
L 375.738169 102.341975 
L 375.940526 99.622859 
L 376.142883 98.510494 
L 376.34524 103.722132 
L 376.749955 130.109913 
L 377.559383 189.353675 
L 377.964098 224.207794 
L 378.368812 238.091763 
L 378.57117 238.318356 
L 378.773527 232.344541 
L 378.975884 221.056091 
L 380.392384 103.701533 
L 380.797099 93.710843 
L 381.201813 86.06848 
L 381.40417 89.858762 
L 382.011242 127.123006 
L 382.820671 210.529818 
L 383.225385 226.741515 
L 383.427743 227.400695 
L 383.6301 222.024261 
L 384.034814 199.632756 
L 385.0466 125.70165 
L 385.451315 108.892572 
L 385.653672 108.418786 
L 385.856029 112.229668 
L 386.058386 119.91323 
L 387.070172 190.383643 
L 387.474887 230.77899 
L 387.879601 252.820306 
L 388.284316 262.02822 
L 388.68903 264.561942 
L 388.891387 258.773521 
L 389.700816 214.917482 
L 390.307888 203.629032 
L 390.914959 190.79563 
L 391.117316 195.615881 
L 391.926745 235.475644 
L 392.533817 279.990863 
L 392.938531 292.453476 
L 393.140888 294.328018 
L 393.343246 293.874832 
L 393.545603 294.348617 
L 393.74796 285.326097 
L 394.355032 243.859584 
L 395.569175 186.964149 
L 395.771532 180.907937 
L 395.973889 182.123299 
L 396.176247 190.507239 
L 396.783318 232.859525 
L 397.188033 271.668721 
L 397.592747 289.631364 
L 397.795104 292.432877 
L 397.997461 289.878556 
L 398.402176 271.606923 
L 400.628105 143.025712 
L 400.830462 145.889024 
L 401.03282 155.920912 
L 401.639891 213.393129 
L 402.044606 258.073143 
L 402.44932 278.548908 
L 402.651677 282.586382 
L 402.854034 280.917834 
L 403.258749 262.584403 
L 403.663463 233.951291 
L 404.877607 127.102407 
L 405.282321 106.420648 
L 405.484678 102.17718 
L 405.687035 103.268946 
L 405.889393 113.857018 
L 406.294107 151.512649 
L 406.901179 229.522429 
L 407.305893 253.767876 
L 407.50825 259.412101 
L 407.710607 258.876518 
L 408.115322 237.473782 
L 409.73418 104.175318 
L 409.936537 99.210872 
L 410.138894 99.066676 
L 410.341251 103.701533 
L 410.948323 140.080004 
L 411.15068 156.106307 
L 411.757752 227.2359 
L 412.162466 251.481347 
L 412.364823 258.011345 
L 412.56718 259.803489 
L 412.971895 241.614254 
L 414.388395 142.77852 
L 414.79311 129.141743 
L 415.197824 122.426352 
L 415.400181 129.24474 
L 416.20961 192.258185 
L 416.614325 237.823971 
L 417.019039 261.06005 
L 417.221396 265.344717 
L 417.423753 264.788535 
L 417.828468 248.515039 
L 419.244968 150.070694 
L 419.649683 136.372119 
L 419.85204 132.520038 
L 420.054397 133.961994 
L 420.256754 142.675523 
L 421.066183 208.366885 
L 421.673255 263.779166 
L 422.077969 279.949664 
L 422.280326 282.442187 
L 422.482684 281.783007 
L 422.685041 281.618212 
L 423.089755 250.698572 
L 423.899184 181.278726 
L 424.708613 141.769151 
L 424.91097 138.576251 
L 425.113327 142.593126 
L 425.518042 168.836712 
L 425.720399 180.681344 
L 426.529828 255.60122 
L 426.934542 274.243641 
L 427.136899 278.734302 
L 427.339257 279.537677 
L 427.541614 279.76427 
L 427.743971 271.133138 
L 428.148685 230.634794 
L 428.755757 168.527721 
L 429.160471 142.79912 
L 429.565186 134.518176 
L 429.9699 138.452654 
L 430.374615 154.726149 
L 430.576972 166.405987 
L 431.386401 242.644222 
L 431.791115 254.921441 
L 431.993472 252.882104 
L 432.398187 232.509336 
L 433.207616 167.209362 
L 434.017044 96.615352 
L 434.219402 91.712705 
L 435.02883 119.212851 
L 435.433545 144.282274 
L 436.040617 215.700258 
L 436.445331 238.297756 
L 436.647688 243.447597 
L 436.850045 242.767818 
L 437.25476 222.106659 
L 437.659474 187.087745 
L 438.468903 113.403832 
L 438.67126 103.639735 
L 438.873617 104.607904 
L 439.075975 111.735283 
L 439.278332 111.282097 
L 439.480689 113.527428 
L 439.885403 132.128651 
L 440.290118 156.95088 
L 440.897189 230.572996 
L 441.301904 252.943902 
L 441.504261 258.382133 
L 441.706618 258.917717 
L 442.111333 244.147975 
L 442.920762 191.990393 
L 443.527833 157.033278 
L 444.134905 134.229785 
L 444.337262 131.634266 
L 444.539619 138.061267 
L 445.146691 183.235665 
L 445.753762 252.593713 
L 446.158477 273.852253 
L 446.360834 278.816699 
L 446.563191 276.818561 
L 446.967906 257.867149 
L 448.586763 147.804764 
L 448.991478 134.579975 
L 449.193835 132.252247 
L 449.396192 138.92644 
L 450.003264 179.404184 
L 450.812693 259.638694 
L 451.217407 272.966481 
L 451.419764 273.090077 
L 451.824479 255.869011 
L 452.43155 205.338779 
L 453.038622 163.336682 
L 453.443336 146.259812 
L 453.848051 138.370257 
L 454.050408 141.748552 
L 454.252765 151.759841 
L 454.65748 180.228158 
L 454.859837 188.694496 
L 455.669266 253.561883 
L 456.07398 267.136862 
L 456.276337 268.661214 
L 456.478694 266.663076 
L 456.681052 263.552573 
L 456.883409 255.539422 
L 457.288123 228.471861 
L 457.692838 217.492402 
L 457.895195 218.19278 
L 458.299909 223.960601 
L 458.502267 223.816406 
L 458.906981 219.984925 
L 459.109338 220.520508 
L 459.514053 224.681579 
L 459.71641 228.986845 
L 460.728196 286.809251 
L 461.13291 291.238114 
L 461.537625 287.921617 
L 461.739982 278.981494 
L 462.144696 244.415767 
L 463.561197 175.119517 
L 463.763554 167.847942 
L 463.965911 169.022106 
L 464.572983 188.529701 
L 465.382412 255.621819 
L 465.584769 262.543204 
L 465.787126 265.26232 
L 465.989483 262.831595 
L 467.608341 170.134471 
L 468.620127 148.91713 
L 468.822484 152.048233 
L 469.429556 178.333017 
L 470.036627 235.146054 
L 470.441342 252.964501 
L 470.643699 255.60122 
L 470.846056 253.026299 
L 471.857842 202.022282 
L 472.869628 171.720622 
L 473.071985 172.215007 
L 473.274343 170.422862 
L 473.4767 171.679423 
L 473.679057 175.469706 
L 473.881414 182.061501 
L 474.083772 183.215066 
L 474.286129 190.898627 
L 474.8932 243.097408 
L 475.297915 259.370903 
L 475.500272 261.039451 
L 475.702629 259.000114 
L 476.107344 234.589872 
L 476.512058 212.548555 
L 477.321487 181.010934 
L 477.726201 160.82356 
L 477.928558 157.259871 
L 478.333273 161.956525 
L 478.53563 166.426586 
L 479.142702 191.393012 
L 479.952131 259.267906 
L 480.356845 269.135 
L 480.559202 268.723012 
L 480.963917 246.599299 
L 482.785131 118.018088 
L 482.987489 112.106072 
L 483.189846 109.469354 
L 483.392203 115.113579 
L 483.999275 155.03514 
L 484.606346 226.24713 
L 485.011061 249.503809 
L 485.213418 253.912072 
L 485.415775 254.859643 
L 485.82049 235.063657 
L 486.225204 203.814426 
L 487.23699 113.712822 
L 487.439347 110.622918 
L 487.844062 117.194114 
L 488.248776 135.836536 
L 489.260562 213.475527 
L 489.665277 245.672328 
L 490.069991 260.792259 
L 490.272348 263.140586 
L 490.474705 262.007621 
L 490.677063 260.236076 
L 490.87942 250.492578 
L 491.891206 170.670055 
L 492.29592 152.934005 
L 492.498277 145.538835 
L 492.700635 143.520097 
L 492.902992 145.147447 
L 493.105349 149.967697 
L 493.712421 183.524056 
L 494.52185 255.60122 
L 495.128921 273.893452 
L 495.331278 274.037648 
L 495.533636 273.419667 
L 495.735993 265.859701 
L 496.950136 174.254344 
L 497.557208 149.8647 
L 497.759565 146.507004 
L 497.961922 149.720505 
L 498.568994 181.258126 
L 499.378422 255.148034 
L 499.58078 261.987021 
L 499.783137 264.479544 
L 499.985494 261.163047 
L 500.187851 252.634912 
L 500.794923 215.679658 
L 500.99728 210.571017 
L 501.401995 197.469823 
L 501.806709 186.201973 
L 502.009066 185.748787 
L 502.211423 187.808723 
L 502.413781 188.447303 
L 502.616138 186.778755 
L 503.020852 196.501653 
L 503.223209 197.057836 
L 503.425567 204.576603 
L 504.032638 255.312829 
L 504.437353 268.393423 
L 504.63971 270.020772 
L 504.842067 267.651846 
L 505.246782 243.262202 
L 505.651496 219.428742 
L 507.270354 146.218613 
L 507.472711 143.10811 
L 507.675068 146.507004 
L 508.28214 174.563334 
L 508.889211 232.632932 
L 509.293926 249.7716 
L 509.496283 253.294091 
L 509.69864 251.460748 
L 510.103354 227.895079 
L 511.722212 121.437582 
L 512.126927 103.660334 
L 512.329284 105.246485 
L 512.936355 139.647417 
L 513.34107 178.621408 
L 513.745784 222.127258 
L 514.150499 244.868953 
L 514.352856 250.451379 
L 514.555213 250.945764 
L 514.75757 242.04684 
L 516.174071 145.209245 
L 516.376428 144.117479 
L 516.781142 153.448989 
L 516.9835 150.709274 
L 517.185857 151.244857 
L 517.590571 168.960308 
L 517.792928 173.203776 
L 517.995286 183.915444 
L 518.4 223.610412 
L 518.4 223.610412 
" clip-path="url(#pda60848c24)" style="fill: none; stroke: #1f77b4; stroke-width: 1.5; stroke-linecap: square"/>
   </g>
   <g id="line2d_14">
    <path d="M 72 273.397811 
L 72.202357 273.397811 
L 72.404714 275.092443 
L 72.809429 281.052047 
L 73.011786 278.089265 
L 74.428286 215.988954 
L 74.833001 181.961229 
L 75.035358 172.126295 
L 75.237715 168.384275 
L 75.440073 170.195435 
L 75.64243 173.383634 
L 76.047144 193.092837 
L 76.249501 205.453931 
L 76.856573 256.17309 
L 77.261287 272.186995 
L 77.463645 272.156272 
L 77.666002 266.469996 
L 78.677788 218.572573 
L 79.082502 202.172315 
L 79.284859 195.004492 
L 79.689574 165.194931 
L 79.891931 158.676794 
L 80.094288 157.746133 
L 81.106074 212.105564 
L 81.510789 252.10863 
L 81.915503 274.535099 
L 82.11786 279.944006 
L 82.320218 279.753073 
L 82.522575 276.895243 
L 83.129646 259.636345 
L 83.534361 240.009294 
L 84.141432 226.036217 
L 84.34379 226.583874 
L 84.950861 234.701706 
L 86.165005 266.838996 
L 86.772076 301.649574 
L 86.974433 305.558111 
L 87.176791 304.645583 
L 87.581505 290.932065 
L 88.188577 265.515919 
L 88.795648 252.052208 
L 88.998005 250.525346 
L 89.40272 251.503412 
L 89.605077 250.22789 
L 90.414506 238.229045 
L 90.616863 239.363179 
L 91.021578 261.360848 
L 91.426292 290.856165 
L 91.628649 299.116913 
L 91.831006 302.717845 
L 92.033364 297.31855 
L 92.438078 275.386157 
L 93.04515 242.874877 
L 93.247507 245.220801 
L 93.449864 243.921354 
L 93.652221 240.12514 
L 93.854578 240.430399 
L 94.056936 239.07434 
L 94.664007 229.679412 
L 94.866364 229.53436 
L 95.068722 230.351373 
L 95.271079 233.143587 
L 95.473436 239.642455 
L 95.87815 264.952588 
L 96.282865 286.708965 
L 96.485222 292.104856 
L 96.687579 293.890549 
L 96.889937 291.301692 
L 97.901723 241.657835 
L 98.306437 240.907443 
L 98.508794 240.797792 
L 98.711151 241.4008 
L 98.913509 238.495472 
L 99.318223 226.486276 
L 99.52058 227.986084 
L 99.722937 228.072502 
L 99.925295 229.661127 
L 100.127652 232.889087 
L 100.532366 250.5778 
L 101.139438 289.086059 
L 101.341795 293.125591 
L 101.544152 293.741621 
L 101.74651 289.348049 
L 102.758296 240.936802 
L 102.960653 243.073412 
L 103.16301 241.587015 
L 103.365367 241.283753 
L 103.567724 241.302506 
L 103.770082 238.270074 
L 104.174796 223.427893 
L 104.377153 224.982172 
L 104.57951 224.184581 
L 104.781868 224.681761 
L 105.186582 237.686325 
L 106.198368 290.916822 
L 106.400725 291.596926 
L 106.603083 288.011869 
L 106.80544 280.487658 
L 107.412511 248.474873 
L 107.614869 239.906575 
L 108.019583 239.293155 
L 108.22194 236.75808 
L 108.424297 232.762594 
L 108.626655 224.322239 
L 108.829012 211.059372 
L 109.031369 207.506889 
L 109.233726 209.195577 
L 109.840798 223.990335 
L 110.447869 259.017737 
L 110.852584 281.18236 
L 111.054941 286.598174 
L 111.257298 287.511441 
L 111.459655 285.247378 
L 111.662013 279.713189 
L 112.066727 257.676858 
L 112.471442 236.84695 
L 113.28087 211.282739 
L 113.887942 190.082919 
L 114.292656 185.360593 
L 114.495014 191.085498 
L 115.304442 246.132275 
L 115.709157 270.990376 
L 115.911514 277.852798 
L 116.113871 280.343116 
L 116.316228 281.172849 
L 117.125657 257.956724 
L 117.732729 221.95859 
L 118.137443 190.557201 
L 118.946872 154.4477 
L 119.149229 152.258786 
L 119.351587 158.646973 
L 119.553944 169.66996 
L 120.768087 270.77514 
L 120.970444 277.574783 
L 121.172801 279.994839 
L 121.375159 278.219771 
L 121.577516 274.308525 
L 121.98223 256.080358 
L 122.791659 213.994029 
L 123.196374 204.891871 
L 123.398731 202.437939 
L 123.601088 202.819909 
L 124.005802 208.185259 
L 124.612874 225.766387 
L 125.017588 249.648365 
L 125.62466 293.366738 
L 125.827017 298.821685 
L 126.029374 297.439189 
L 126.434089 277.014637 
L 127.04116 228.75053 
L 127.243518 220.343249 
L 127.445875 216.710738 
L 127.850589 198.127174 
L 128.457661 162.588022 
L 128.660018 161.035348 
L 128.862375 164.484086 
L 129.064733 173.151222 
L 129.469447 210.017796 
L 129.874161 256.156046 
L 130.278876 275.805497 
L 130.68359 282.170326 
L 130.885947 280.255202 
L 131.088305 272.660723 
L 132.302448 197.774739 
L 133.314234 144.794444 
L 133.516591 143.73865 
L 133.718948 148.709764 
L 133.921306 157.230813 
L 134.528377 197.78831 
L 134.933092 249.03684 
L 135.337806 271.045997 
L 135.540163 273.670958 
L 135.74252 271.41088 
L 136.147235 253.041988 
L 136.956664 200.91354 
L 137.159021 201.637401 
L 137.361378 199.320772 
L 137.563735 201.724157 
L 137.766092 197.637649 
L 137.96845 196.112707 
L 138.170807 197.77222 
L 138.980236 218.726283 
L 139.182593 224.331499 
L 139.587307 249.160401 
L 139.992022 279.305982 
L 140.194379 285.668289 
L 140.396736 285.167836 
L 140.599093 283.613517 
L 141.610879 222.648538 
L 141.813237 223.479664 
L 142.015594 219.128239 
L 142.217951 217.587986 
L 142.420308 217.280487 
L 142.622665 216.266914 
L 142.825023 211.930005 
L 143.02738 210.966443 
L 143.634451 219.029793 
L 143.836809 224.248801 
L 144.44388 254.56703 
L 145.050952 281.401144 
L 145.253309 282.769017 
L 145.455666 277.506542 
L 146.467452 221.544182 
L 146.66981 218.770278 
L 146.872167 218.546069 
L 147.074524 215.846562 
L 147.276881 216.404583 
L 147.479238 214.451192 
L 147.681596 209.848196 
L 147.883953 212.712143 
L 148.288667 221.275989 
L 148.491024 225.32361 
L 149.300453 256.023987 
L 149.705168 275.4564 
L 149.907525 280.982967 
L 150.109882 281.756973 
L 150.312239 279.449948 
L 150.919311 256.98362 
L 151.931097 234.192906 
L 152.133454 230.660487 
L 152.335811 229.37645 
L 152.538169 233.511356 
L 152.740526 233.744406 
L 152.942883 232.907355 
L 153.14524 234.906342 
L 153.347597 239.557954 
L 153.954669 246.121309 
L 154.157026 251.373187 
L 154.966455 286.758497 
L 155.168812 285.768617 
L 156.180598 249.576763 
L 156.585313 225.892554 
L 156.990027 194.707733 
L 157.597099 181.067479 
L 158.001813 165.221105 
L 158.20417 165.272834 
L 158.406528 172.428644 
L 158.608885 186.15037 
L 159.215956 244.432832 
L 159.620671 270.758771 
L 159.823028 277.782561 
L 160.025385 278.031923 
L 160.4301 256.438353 
L 161.037171 210.418949 
L 162.048957 179.091961 
L 162.251315 174.012867 
L 162.453672 174.68254 
L 163.465458 214.297071 
L 164.477244 281.582672 
L 164.679601 285.151354 
L 164.881958 284.192347 
L 165.48903 246.369201 
L 165.893744 222.557546 
L 166.096102 219.53048 
L 166.298459 219.947224 
L 166.703173 210.650686 
L 167.310245 177.769159 
L 167.512602 174.023028 
L 167.714959 180.536635 
L 168.322031 217.994948 
L 168.929102 260.44342 
L 169.333817 275.285766 
L 169.536174 276.292159 
L 169.738531 274.636879 
L 169.940888 269.299656 
L 171.559746 174.709809 
L 171.964461 164.708 
L 172.369175 158.709132 
L 172.571532 163.238998 
L 172.773889 171.784544 
L 173.380961 220.564159 
L 173.988033 268.57124 
L 174.19039 279.746302 
L 174.392747 282.631358 
L 174.595104 280.195934 
L 174.797461 271.148959 
L 175.404533 230.048159 
L 176.416319 193.161235 
L 176.821034 176.547117 
L 177.023391 174.577875 
L 177.225748 174.502889 
L 177.428105 175.946092 
L 177.630462 182.562192 
L 178.237534 224.471678 
L 178.642248 267.465676 
L 179.046963 286.672498 
L 179.451677 287.272428 
L 180.868178 208.597368 
L 181.475249 174.930745 
L 181.879964 158.700885 
L 182.082321 155.930017 
L 182.284678 157.165262 
L 182.487035 164.610713 
L 182.689393 176.616766 
L 183.498821 247.840641 
L 183.903536 266.207486 
L 184.105893 269.10831 
L 184.30825 268.411067 
L 184.712965 259.806654 
L 185.320036 228.033922 
L 185.927108 164.18648 
L 186.129465 153.578778 
L 186.331822 150.216015 
L 186.53418 149.828818 
L 186.938894 153.278275 
L 187.343608 175.916714 
L 187.748323 204.157403 
L 188.153037 227.732325 
L 188.962466 272.108961 
L 189.164823 272.992362 
L 189.36718 268.929203 
L 189.974252 239.037647 
L 190.986038 167.88468 
L 191.188395 160.752478 
L 191.390752 160.438766 
L 191.59311 163.871241 
L 191.997824 177.261504 
L 193.414325 256.688704 
L 193.819039 278.294464 
L 194.021396 281.039132 
L 194.426111 264.213491 
L 195.842611 185.105751 
L 196.044968 191.173553 
L 196.449683 211.343383 
L 197.056754 221.890955 
L 197.259112 223.139361 
L 197.461469 227.894021 
L 197.866183 243.759135 
L 198.473255 285.922745 
L 198.675612 291.785337 
L 198.877969 289.641901 
L 199.282684 261.059806 
L 199.889755 216.046538 
L 200.29447 206.559642 
L 200.496827 203.090841 
L 200.901541 187.41212 
L 201.306256 172.101642 
L 201.508613 173.876271 
L 201.913327 182.59441 
L 202.318042 198.889766 
L 203.127471 260.339237 
L 203.329828 266.88209 
L 203.532185 269.392888 
L 203.734542 266.779734 
L 203.936899 257.97716 
L 204.543971 216.361898 
L 204.948685 200.582534 
L 205.3534 186.633653 
L 205.555757 184.015776 
L 205.960471 169.796174 
L 206.162829 169.991512 
L 206.365186 175.138516 
L 207.376972 219.08781 
L 207.984044 261.145631 
L 208.186401 268.831259 
L 208.388758 271.211444 
L 208.591115 269.302891 
L 208.793472 261.390113 
L 209.602901 207.158336 
L 210.41233 185.735929 
L 211.019402 149.696353 
L 211.221759 144.121317 
L 211.424116 146.841689 
L 211.626473 158.07734 
L 212.638259 241.614541 
L 213.042974 260.763577 
L 213.245331 263.287372 
L 213.447688 261.846915 
L 213.650045 254.231462 
L 215.875975 120.980004 
L 216.078332 119.947324 
L 216.280689 124.340959 
L 216.483046 132.208365 
L 217.090118 180.071679 
L 217.697189 237.589275 
L 218.101904 254.907411 
L 218.304261 258.009141 
L 218.506618 253.521454 
L 219.316047 217.033828 
L 220.125476 158.241192 
L 220.327833 154.671002 
L 220.53019 154.641812 
L 220.732548 159.366278 
L 221.137262 182.815027 
L 221.541976 210.600725 
L 222.351405 250.190259 
L 222.75612 275.365126 
L 222.958477 281.021687 
L 223.160834 281.018271 
L 223.363191 276.866653 
L 223.565549 270.009869 
L 224.374977 224.876854 
L 224.779692 215.13425 
L 224.982049 213.303015 
L 225.386763 227.229454 
L 225.589121 230.994541 
L 225.791478 231.495105 
L 225.993835 231.569936 
L 226.398549 238.870123 
L 226.803264 249.991436 
L 227.207978 271.802001 
L 227.612693 295.364319 
L 227.81505 301.652058 
L 228.017407 299.251518 
L 228.422121 273.230387 
L 228.826836 246.293054 
L 229.029193 239.431971 
L 229.23155 237.195774 
L 229.433908 237.080721 
L 229.838622 230.002396 
L 230.243336 210.544983 
L 230.445694 201.017341 
L 230.648051 197.843132 
L 230.850408 198.360496 
L 231.052765 197.498174 
L 231.255122 199.181312 
L 231.659837 232.709352 
L 232.064551 264.348296 
L 232.469266 280.955392 
L 232.671623 285.099814 
L 232.87398 283.122074 
L 233.076337 275.628943 
L 233.683409 242.195061 
L 235.099909 190.16884 
L 235.302267 185.298324 
L 235.504624 186.027584 
L 235.706981 189.825459 
L 236.111695 207.829926 
L 236.51641 228.111297 
L 237.123481 274.893813 
L 237.325839 282.362685 
L 237.528196 284.103833 
L 237.730553 282.245587 
L 237.93291 274.8555 
L 238.742339 228.534496 
L 239.551768 208.292675 
L 239.956482 199.863481 
L 240.15884 200.526825 
L 240.361197 200.724857 
L 240.563554 204.311874 
L 240.968268 218.281189 
L 241.372983 240.164986 
L 241.980054 279.443303 
L 242.182412 285.700601 
L 242.384769 287.473685 
L 242.587126 285.845856 
L 242.789483 278.670917 
L 243.598912 234.556528 
L 244.003626 226.194419 
L 244.813055 194.769092 
L 245.21777 189.767627 
L 245.420127 188.870917 
L 245.622484 193.353034 
L 246.027199 215.568493 
L 247.038985 278.775194 
L 247.241342 282.551215 
L 247.443699 282.801536 
L 247.848413 264.928159 
L 249.669628 152.43534 
L 249.871985 146.00339 
L 250.074343 148.024122 
L 250.479057 164.935081 
L 251.086129 207.70892 
L 251.490843 241.763431 
L 251.895558 263.50558 
L 252.097915 268.063554 
L 252.300272 269.611234 
L 252.502629 266.488066 
L 252.907344 250.824623 
L 253.312058 225.731015 
L 254.121487 158.565353 
L 254.526201 151.132129 
L 254.728558 149.834162 
L 254.930916 149.321733 
L 255.133273 150.808812 
L 255.33563 158.71435 
L 256.145059 223.786525 
L 256.752131 270.709008 
L 256.954488 277.549992 
L 257.156845 278.361141 
L 257.359202 273.661216 
L 257.763917 256.34997 
L 258.573345 204.778721 
L 258.97806 177.041506 
L 259.180417 173.043717 
L 259.382774 171.756086 
L 259.585131 171.847104 
L 259.787489 172.942669 
L 259.989846 175.444744 
L 260.192203 180.701675 
L 260.596917 202.806112 
L 261.001632 231.373284 
L 261.406346 269.806729 
L 261.608704 280.804806 
L 261.811061 285.538389 
L 262.013418 284.888664 
L 262.418132 264.948539 
L 263.025204 220.750254 
L 263.227561 216.186096 
L 263.632276 219.41462 
L 264.239347 225.800669 
L 264.644062 229.250737 
L 264.846419 229.469631 
L 265.251133 236.607719 
L 265.655848 252.141624 
L 266.060562 276.682466 
L 266.465277 290.171024 
L 266.667634 292.117658 
L 266.869991 289.967426 
L 267.881777 240.710647 
L 268.488849 228.203894 
L 268.893563 222.202723 
L 269.298277 215.976834 
L 269.500635 215.978613 
L 270.107706 224.222233 
L 270.714778 250.440936 
L 271.119492 272.894017 
L 271.32185 278.769713 
L 271.524207 280.366005 
L 271.726564 277.597785 
L 271.928921 270.452593 
L 272.73835 226.532894 
L 273.143064 210.535372 
L 273.952493 165.466269 
L 274.357208 155.777322 
L 274.559565 152.616104 
L 274.761922 153.066656 
L 275.166636 175.805617 
L 275.368994 188.473952 
L 275.976065 243.581267 
L 276.38078 257.878716 
L 276.583137 257.379502 
L 276.785494 250.66893 
L 277.190209 223.361347 
L 277.594923 197.699295 
L 277.999637 176.607136 
L 278.404352 158.047944 
L 278.809066 145.900696 
L 279.213781 141.59818 
L 279.416138 145.022232 
L 279.618495 154.470839 
L 280.427924 218.857617 
L 280.832638 260.699284 
L 281.237353 272.860122 
L 281.43971 271.280305 
L 281.642067 264.686743 
L 282.451496 216.902707 
L 282.85621 191.759861 
L 283.260925 175.59321 
L 283.463282 173.937961 
L 283.665639 164.978444 
L 284.070354 159.814908 
L 284.272711 162.211287 
L 284.475068 171.376029 
L 285.486854 259.566395 
L 285.689211 274.468885 
L 286.093926 283.276934 
L 286.49864 276.942797 
L 287.105712 253.946883 
L 287.712783 212.323673 
L 288.117498 183.73402 
L 288.926927 161.95307 
L 289.129284 160.506832 
L 289.331641 167.404031 
L 289.533998 178.392979 
L 290.545784 261.781502 
L 290.950499 277.584795 
L 291.152856 279.033642 
L 291.355213 274.460351 
L 291.759927 258.327753 
L 292.164642 231.558922 
L 292.974071 155.108012 
L 293.378785 142.438938 
L 293.581142 140.384066 
L 293.985857 140.528708 
L 294.188214 147.126574 
L 294.795286 188.220109 
L 295.604714 258.244569 
L 295.807072 265.992206 
L 296.009429 267.972542 
L 296.211786 261.872482 
L 296.6165 231.639179 
L 298.033001 96.654761 
L 298.235358 90.231722 
L 298.437715 88.095931 
L 298.84243 100.326425 
L 299.247144 115.982785 
L 299.651859 149.286893 
L 300.461287 235.817765 
L 300.663645 244.339555 
L 300.866002 241.858986 
L 301.270716 218.877218 
L 302.080145 141.580534 
L 302.687217 75.1723 
L 302.889574 71.086421 
L 303.091931 72.55802 
L 303.294288 81.659701 
L 304.913146 211.017019 
L 305.31786 247.238114 
L 305.520218 254.145143 
L 305.722575 252.954932 
L 306.329646 209.982193 
L 307.139075 152.545679 
L 307.54379 126.417043 
L 307.948504 121.209306 
L 308.150861 120.762572 
L 308.353218 129.444262 
L 309.567362 218.908796 
L 310.174433 265.200668 
L 310.376791 268.468215 
L 310.579148 266.429042 
L 311.186219 227.433335 
L 311.793291 169.049431 
L 312.198005 135.947269 
L 312.400363 125.532215 
L 312.805077 118.269738 
L 313.007434 120.772758 
L 313.412149 135.228195 
L 314.221578 191.941959 
L 314.828649 242.395718 
L 315.233364 259.470791 
L 315.435721 258.419984 
L 315.638078 247.903225 
L 316.042792 213.64769 
L 316.447507 197.437745 
L 316.649864 194.57716 
L 317.054578 185.119668 
L 317.256936 183.688048 
L 317.459293 184.595564 
L 317.66165 183.251663 
L 318.066364 190.350575 
L 318.268722 194.869066 
L 319.07815 226.078916 
L 319.887579 268.943845 
L 320.089937 272.649829 
L 320.292294 272.500713 
L 320.697008 259.390824 
L 321.506437 228.107292 
L 322.315866 177.421339 
L 322.72058 164.366913 
L 322.922937 160.484106 
L 323.125295 159.93307 
L 323.327652 166.177566 
L 323.530009 176.336405 
L 324.541795 251.334943 
L 324.744152 262.424845 
L 324.94651 266.673668 
L 325.148867 267.582261 
L 325.351224 265.248942 
L 325.755938 251.08028 
L 326.160653 225.200989 
L 326.565367 191.695996 
L 326.970082 150.134884 
L 327.172439 141.451711 
L 327.374796 137.588576 
L 327.577153 136.68656 
L 327.981868 141.376136 
L 328.184225 148.498933 
L 328.588939 175.284923 
L 329.398368 252.017781 
L 329.803083 270.757902 
L 330.00544 272.130536 
L 330.410154 253.196448 
L 331.017226 199.039544 
L 331.42194 167.751376 
L 331.826655 146.724059 
L 332.231369 142.961535 
L 332.433726 145.312267 
L 333.040798 173.544551 
L 333.445512 197.868803 
L 333.647869 208.605168 
L 334.457298 272.967721 
L 334.659655 275.571715 
L 334.862013 274.825372 
L 335.06437 267.262204 
L 335.873799 215.975465 
L 336.683228 187.291434 
L 336.885585 187.179949 
L 337.087942 185.171981 
L 337.290299 184.517893 
L 337.492656 186.363278 
L 337.695014 190.380628 
L 338.302085 219.90466 
L 338.7068 243.462737 
L 339.313871 276.929776 
L 339.516228 280.854657 
L 339.718586 278.093751 
L 340.1233 254.306085 
L 340.528015 227.845216 
L 341.539801 185.118876 
L 341.742158 180.389052 
L 342.146872 161.364047 
L 342.349229 159.597858 
L 342.551587 159.076506 
L 342.753944 161.188131 
L 343.158658 179.537381 
L 343.563373 212.111698 
L 343.968087 245.557618 
L 344.170444 253.135828 
L 344.372801 256.457006 
L 344.575159 253.911686 
L 344.979873 236.867258 
L 346.396374 125.505453 
L 346.801088 115.447768 
L 347.003445 114.755631 
L 347.205802 117.432922 
L 347.40816 121.965954 
L 347.812874 139.170665 
L 348.419946 190.786666 
L 349.027017 244.810339 
L 349.229374 253.371406 
L 349.431732 253.841687 
L 349.634089 245.971226 
L 350.443518 190.74906 
L 351.252947 123.8784 
L 351.860018 112.121866 
L 352.062375 112.788072 
L 352.264733 116.685402 
L 352.669447 138.224078 
L 353.276519 196.605802 
L 353.681233 245.245057 
L 353.88359 257.451122 
L 354.085947 262.395886 
L 354.288305 260.669018 
L 354.490662 255.247603 
L 355.097733 223.459935 
L 355.300091 210.638871 
L 356.109519 115.937539 
L 356.311877 113.06329 
L 356.514234 115.968907 
L 356.918948 113.006837 
L 357.121306 110.548037 
L 357.52602 134.200021 
L 358.740163 253.910723 
L 358.94252 260.895542 
L 359.144878 261.175584 
L 359.549592 246.397496 
L 359.954306 222.947782 
L 360.359021 180.630011 
L 360.966092 102.564358 
L 361.16845 97.418142 
L 361.370807 100.013426 
L 361.573164 101.034267 
L 361.775521 101.302752 
L 361.977879 99.532984 
L 362.180236 104.605151 
L 362.382593 115.012202 
L 362.989665 177.415764 
L 363.596736 241.989089 
L 363.799093 250.144087 
L 364.001451 249.557754 
L 364.203808 242.220484 
L 364.608522 211.387423 
L 366.025023 55.8 
L 366.22738 57.609927 
L 366.429737 60.916694 
L 367.239166 88.79868 
L 367.64388 128.787154 
L 368.453309 218.647337 
L 368.655666 229.599751 
L 368.858024 229.203899 
L 369.262738 208.017908 
L 369.667452 178.716484 
L 370.072167 131.378532 
L 370.679238 67.963303 
L 370.881596 63.918697 
L 371.083953 63.853196 
L 371.28631 66.774969 
L 371.691024 84.314891 
L 372.095739 108.215281 
L 373.512239 236.633743 
L 373.714597 236.962771 
L 374.524025 199.379139 
L 374.726383 186.015086 
L 375.535811 91.689567 
L 375.738169 91.128407 
L 376.547597 107.260416 
L 376.749955 118.156006 
L 378.166455 243.326949 
L 378.368812 251.073185 
L 378.57117 251.68892 
L 378.975884 230.490152 
L 380.392384 96.749245 
L 380.594742 91.871377 
L 380.797099 90.631746 
L 381.201813 96.457584 
L 381.606528 104.709534 
L 381.808885 113.641007 
L 382.213599 146.404609 
L 382.820671 215.527137 
L 383.225385 230.400928 
L 383.427743 231.995598 
L 383.6301 225.480917 
L 384.237171 185.716491 
L 384.237171 185.716491 
" clip-path="url(#pda60848c24)" style="fill: none; stroke: #ff7f0e; stroke-width: 1.5; stroke-linecap: square"/>
   </g>
   <g id="line2d_15">
    <path d="M 384.439529 168.881687 
L 385.248957 110.715017 
L 385.653672 97.396718 
L 385.856029 95.705641 
L 386.058386 99.792483 
L 386.260743 106.934678 
L 386.867815 151.164973 
L 387.677244 225.285255 
L 388.081958 244.967774 
L 388.284316 245.247359 
L 388.68903 229.901302 
L 389.093744 200.602605 
L 390.10553 129.331275 
L 390.510245 117.176 
L 390.712602 114.997936 
L 390.914959 118.939148 
L 391.117316 125.106267 
L 391.522031 151.041656 
L 392.736174 252.065774 
L 392.938531 258.517509 
L 393.140888 258.261138 
L 393.343246 253.11165 
L 393.545603 244.722134 
L 394.962103 145.274229 
L 395.366818 133.162304 
L 395.569175 132.45913 
L 395.771532 135.771178 
L 396.176247 156.56368 
L 397.592747 265.696058 
L 397.795104 270.450234 
L 397.997461 268.837597 
L 398.402176 252.685521 
L 399.818676 162.702235 
L 400.021034 157.040668 
L 400.223391 154.81779 
L 400.425748 157.777581 
L 400.628105 164.256698 
L 401.03282 189.58607 
L 402.044606 262.928614 
L 402.44932 276.026533 
L 402.651677 276.615419 
L 402.854034 272.946378 
L 403.258749 254.704501 
L 404.472892 181.753965 
L 404.675249 176.059629 
L 404.877607 175.349272 
L 405.079964 176.827128 
L 405.282321 182.937087 
L 406.901179 269.234881 
L 407.103536 273.791891 
L 407.305893 274.4436 
L 407.50825 273.330108 
L 407.710607 268.291761 
L 408.115322 249.386356 
L 408.924751 202.814813 
L 409.127108 196.958612 
L 409.329465 194.655067 
L 409.531822 194.252351 
L 409.936537 205.304481 
L 410.543608 229.100878 
L 411.555394 262.412293 
L 411.960109 267.786747 
L 412.162466 267.627732 
L 412.364823 265.078239 
L 412.769538 250.154543 
L 413.376609 220.174279 
L 413.781324 209.610969 
L 413.983681 210.305253 
L 414.186038 213.013136 
L 415.197824 235.440221 
L 416.007253 248.598378 
L 416.614325 257.545256 
L 416.816682 258.874653 
L 417.019039 256.458608 
L 417.221396 252.350221 
L 418.030825 223.267254 
L 418.233182 219.118996 
L 418.435539 217.76812 
L 418.637897 218.375642 
L 419.649683 232.33845 
L 420.054397 234.842839 
L 420.459112 236.612933 
L 421.470898 246.472902 
L 421.673255 245.310576 
L 422.077969 237.297148 
L 422.685041 223.408195 
L 422.887398 221.022304 
L 423.089755 220.041387 
L 423.696827 225.549086 
L 424.101541 228.92132 
L 424.303898 230.199547 
L 424.506256 230.190336 
L 424.708613 230.02149 
L 424.91097 229.206783 
L 425.315684 230.009346 
L 425.720399 232.971883 
L 426.125113 234.941503 
L 426.327471 234.309558 
L 426.529828 233.286781 
L 427.136899 225.459667 
L 427.541614 222.312482 
L 427.743971 222.27567 
L 428.755757 227.949341 
L 428.958114 228.314812 
L 429.160471 228.180971 
L 429.565186 226.427621 
L 429.767543 225.913494 
L 429.9699 225.993315 
L 430.172257 226.318321 
L 430.374615 227.16151 
L 430.576972 227.50715 
L 430.981686 228.449994 
L 431.184044 228.056409 
L 431.993472 224.579421 
L 432.398187 224.232125 
L 433.409973 226.972938 
L 433.61233 226.901203 
L 434.421759 224.857798 
L 434.624116 224.641479 
L 434.826473 224.804039 
L 435.02883 225.114298 
L 435.433545 226.22517 
L 435.635902 226.450694 
L 436.040617 226.01396 
L 436.850045 224.880946 
L 437.052403 224.845368 
L 437.25476 224.975956 
L 437.659474 225.733737 
L 437.861831 225.944499 
L 438.468903 225.497132 
L 439.075975 224.79816 
L 439.278332 224.739552 
L 439.480689 224.805626 
L 440.290118 225.763717 
L 440.492475 225.753973 
L 441.706618 224.86598 
L 442.111333 225.109366 
L 442.516047 225.42126 
L 442.920762 225.315302 
L 443.325476 225.125333 
L 443.932548 224.906025 
L 444.337262 224.983418 
L 444.741976 225.285033 
L 444.944334 225.344003 
L 446.563191 224.899067 
L 447.170263 225.185861 
L 447.979692 225.07589 
L 448.789121 224.922309 
L 450.003264 225.082311 
L 451.824479 225.056895 
L 452.43155 225.070287 
L 453.443336 224.939018 
L 455.062194 225.028424 
L 455.871623 224.964303 
L 457.895195 224.969412 
L 464.77534 225.004123 
L 466.19184 225.014234 
L 486.832276 225.004989 
L 508.889211 225.004841 
L 518.4 225.005143 
L 518.4 225.005143 
" clip-path="url(#pda60848c24)" style="fill: none; stroke: #2ca02c; stroke-width: 1.5; stroke-linecap: square"/>
   </g>
   <g id="patch_3">
    <path d="M 72 320.4 
L 72 43.2 
" style="fill: none; stroke: #000000; stroke-width: 0.8; stroke-linejoin: miter; stroke-linecap: square"/>
   </g>
   <g id="patch_4">
    <path d="M 518.4 320.4 
L 518.4 43.2 
" style="fill: none; stroke: #000000; stroke-width: 0.8; stroke-linejoin: miter; stroke-linecap: square"/>
   </g>
   <g id="patch_5">
    <path d="M 72 320.4 
L 518.4 320.4 
" style="fill: none; stroke: #000000; stroke-width: 0.8; stroke-linejoin: miter; stroke-linecap: square"/>
   </g>
   <g id="patch_6">
    <path d="M 72 43.2 
L 518.4 43.2 
" style="fill: none; stroke: #000000; stroke-width: 0.8; stroke-linejoin: miter; stroke-linecap: square"/>
   </g>
   <g id="text_13">
    <!-- Classic Transformer - model_20231123163315 -->
    <g transform="translate(155.436563 37.2) scale(0.12 -0.12)">
     <defs>
      <path id="DejaVuSans-43" d="M 4122 4306 
L 4122 3641 
Q 3803 3938 3442 4084 
Q 3081 4231 2675 4231 
Q 1875 4231 1450 3742 
Q 1025 3253 1025 2328 
Q 1025 1406 1450 917 
Q 1875 428 2675 428 
Q 3081 428 3442 575 
Q 3803 722 4122 1019 
L 4122 359 
Q 3791 134 3420 21 
Q 3050 -91 2638 -91 
Q 1578 -91 968 557 
Q 359 1206 359 2328 
Q 359 3453 968 4101 
Q 1578 4750 2638 4750 
Q 3056 4750 3426 4639 
Q 3797 4528 4122 4306 
z
" transform="scale(0.015625)"/>
      <path id="DejaVuSans-6c" d="M 603 4863 
L 1178 4863 
L 1178 0 
L 603 0 
L 603 4863 
z
" transform="scale(0.015625)"/>
      <path id="DejaVuSans-61" d="M 2194 1759 
Q 1497 1759 1228 1600 
Q 959 1441 959 1056 
Q 959 750 1161 570 
Q 1363 391 1709 391 
Q 2188 391 2477 730 
Q 2766 1069 2766 1631 
L 2766 1759 
L 2194 1759 
z
M 3341 1997 
L 3341 0 
L 2766 0 
L 2766 531 
Q 2569 213 2275 61 
Q 1981 -91 1556 -91 
Q 1019 -91 701 211 
Q 384 513 384 1019 
Q 384 1609 779 1909 
Q 1175 2209 1959 2209 
L 2766 2209 
L 2766 2266 
Q 2766 2663 2505 2880 
Q 2244 3097 1772 3097 
Q 1472 3097 1187 3025 
Q 903 2953 641 2809 
L 641 3341 
Q 956 3463 1253 3523 
Q 1550 3584 1831 3584 
Q 2591 3584 2966 3190 
Q 3341 2797 3341 1997 
z
" transform="scale(0.015625)"/>
      <path id="DejaVuSans-73" d="M 2834 3397 
L 2834 2853 
Q 2591 2978 2328 3040 
Q 2066 3103 1784 3103 
Q 1356 3103 1142 2972 
Q 928 2841 928 2578 
Q 928 2378 1081 2264 
Q 1234 2150 1697 2047 
L 1894 2003 
Q 2506 1872 2764 1633 
Q 3022 1394 3022 966 
Q 3022 478 2636 193 
Q 2250 -91 1575 -91 
Q 1294 -91 989 -36 
Q 684 19 347 128 
L 347 722 
Q 666 556 975 473 
Q 1284 391 1588 391 
Q 1994 391 2212 530 
Q 2431 669 2431 922 
Q 2431 1156 2273 1281 
Q 2116 1406 1581 1522 
L 1381 1569 
Q 847 1681 609 1914 
Q 372 2147 372 2553 
Q 372 3047 722 3315 
Q 1072 3584 1716 3584 
Q 2034 3584 2315 3537 
Q 2597 3491 2834 3397 
z
" transform="scale(0.015625)"/>
      <path id="DejaVuSans-69" d="M 603 3500 
L 1178 3500 
L 1178 0 
L 603 0 
L 603 3500 
z
M 603 4863 
L 1178 4863 
L 1178 4134 
L 603 4134 
L 603 4863 
z
" transform="scale(0.015625)"/>
      <path id="DejaVuSans-63" d="M 3122 3366 
L 3122 2828 
Q 2878 2963 2633 3030 
Q 2388 3097 2138 3097 
Q 1578 3097 1268 2742 
Q 959 2388 959 1747 
Q 959 1106 1268 751 
Q 1578 397 2138 397 
Q 2388 397 2633 464 
Q 2878 531 3122 666 
L 3122 134 
Q 2881 22 2623 -34 
Q 2366 -91 2075 -91 
Q 1284 -91 818 406 
Q 353 903 353 1747 
Q 353 2603 823 3093 
Q 1294 3584 2113 3584 
Q 2378 3584 2631 3529 
Q 2884 3475 3122 3366 
z
" transform="scale(0.015625)"/>
      <path id="DejaVuSans-20" transform="scale(0.015625)"/>
      <path id="DejaVuSans-54" d="M -19 4666 
L 3928 4666 
L 3928 4134 
L 2272 4134 
L 2272 0 
L 1638 0 
L 1638 4134 
L -19 4134 
L -19 4666 
z
" transform="scale(0.015625)"/>
      <path id="DejaVuSans-72" d="M 2631 2963 
Q 2534 3019 2420 3045 
Q 2306 3072 2169 3072 
Q 1681 3072 1420 2755 
Q 1159 2438 1159 1844 
L 1159 0 
L 581 0 
L 581 3500 
L 1159 3500 
L 1159 2956 
Q 1341 3275 1631 3429 
Q 1922 3584 2338 3584 
Q 2397 3584 2469 3576 
Q 2541 3569 2628 3553 
L 2631 2963 
z
" transform="scale(0.015625)"/>
      <path id="DejaVuSans-6e" d="M 3513 2113 
L 3513 0 
L 2938 0 
L 2938 2094 
Q 2938 2591 2744 2837 
Q 2550 3084 2163 3084 
Q 1697 3084 1428 2787 
Q 1159 2491 1159 1978 
L 1159 0 
L 581 0 
L 581 3500 
L 1159 3500 
L 1159 2956 
Q 1366 3272 1645 3428 
Q 1925 3584 2291 3584 
Q 2894 3584 3203 3211 
Q 3513 2838 3513 2113 
z
" transform="scale(0.015625)"/>
      <path id="DejaVuSans-66" d="M 2375 4863 
L 2375 4384 
L 1825 4384 
Q 1516 4384 1395 4259 
Q 1275 4134 1275 3809 
L 1275 3500 
L 2222 3500 
L 2222 3053 
L 1275 3053 
L 1275 0 
L 697 0 
L 697 3053 
L 147 3053 
L 147 3500 
L 697 3500 
L 697 3744 
Q 697 4328 969 4595 
Q 1241 4863 1831 4863 
L 2375 4863 
z
" transform="scale(0.015625)"/>
      <path id="DejaVuSans-6f" d="M 1959 3097 
Q 1497 3097 1228 2736 
Q 959 2375 959 1747 
Q 959 1119 1226 758 
Q 1494 397 1959 397 
Q 2419 397 2687 759 
Q 2956 1122 2956 1747 
Q 2956 2369 2687 2733 
Q 2419 3097 1959 3097 
z
M 1959 3584 
Q 2709 3584 3137 3096 
Q 3566 2609 3566 1747 
Q 3566 888 3137 398 
Q 2709 -91 1959 -91 
Q 1206 -91 779 398 
Q 353 888 353 1747 
Q 353 2609 779 3096 
Q 1206 3584 1959 3584 
z
" transform="scale(0.015625)"/>
      <path id="DejaVuSans-6d" d="M 3328 2828 
Q 3544 3216 3844 3400 
Q 4144 3584 4550 3584 
Q 5097 3584 5394 3201 
Q 5691 2819 5691 2113 
L 5691 0 
L 5113 0 
L 5113 2094 
Q 5113 2597 4934 2840 
Q 4756 3084 4391 3084 
Q 3944 3084 3684 2787 
Q 3425 2491 3425 1978 
L 3425 0 
L 2847 0 
L 2847 2094 
Q 2847 2600 2669 2842 
Q 2491 3084 2119 3084 
Q 1678 3084 1418 2786 
Q 1159 2488 1159 1978 
L 1159 0 
L 581 0 
L 581 3500 
L 1159 3500 
L 1159 2956 
Q 1356 3278 1631 3431 
Q 1906 3584 2284 3584 
Q 2666 3584 2933 3390 
Q 3200 3197 3328 2828 
z
" transform="scale(0.015625)"/>
      <path id="DejaVuSans-65" d="M 3597 1894 
L 3597 1613 
L 953 1613 
Q 991 1019 1311 708 
Q 1631 397 2203 397 
Q 2534 397 2845 478 
Q 3156 559 3463 722 
L 3463 178 
Q 3153 47 2828 -22 
Q 2503 -91 2169 -91 
Q 1331 -91 842 396 
Q 353 884 353 1716 
Q 353 2575 817 3079 
Q 1281 3584 2069 3584 
Q 2775 3584 3186 3129 
Q 3597 2675 3597 1894 
z
M 3022 2063 
Q 3016 2534 2758 2815 
Q 2500 3097 2075 3097 
Q 1594 3097 1305 2825 
Q 1016 2553 972 2059 
L 3022 2063 
z
" transform="scale(0.015625)"/>
      <path id="DejaVuSans-64" d="M 2906 2969 
L 2906 4863 
L 3481 4863 
L 3481 0 
L 2906 0 
L 2906 525 
Q 2725 213 2448 61 
Q 2172 -91 1784 -91 
Q 1150 -91 751 415 
Q 353 922 353 1747 
Q 353 2572 751 3078 
Q 1150 3584 1784 3584 
Q 2172 3584 2448 3432 
Q 2725 3281 2906 2969 
z
M 947 1747 
Q 947 1113 1208 752 
Q 1469 391 1925 391 
Q 2381 391 2643 752 
Q 2906 1113 2906 1747 
Q 2906 2381 2643 2742 
Q 2381 3103 1925 3103 
Q 1469 3103 1208 2742 
Q 947 2381 947 1747 
z
" transform="scale(0.015625)"/>
      <path id="DejaVuSans-5f" d="M 3263 -1063 
L 3263 -1509 
L -63 -1509 
L -63 -1063 
L 3263 -1063 
z
" transform="scale(0.015625)"/>
     </defs>
     <use xlink:href="#DejaVuSans-43"/>
     <use xlink:href="#DejaVuSans-6c" x="69.824219"/>
     <use xlink:href="#DejaVuSans-61" x="97.607422"/>
     <use xlink:href="#DejaVuSans-73" x="158.886719"/>
     <use xlink:href="#DejaVuSans-73" x="210.986328"/>
     <use xlink:href="#DejaVuSans-69" x="263.085938"/>
     <use xlink:href="#DejaVuSans-63" x="290.869141"/>
     <use xlink:href="#DejaVuSans-20" x="345.849609"/>
     <use xlink:href="#DejaVuSans-54" x="377.636719"/>
     <use xlink:href="#DejaVuSans-72" x="423.970703"/>
     <use xlink:href="#DejaVuSans-61" x="465.083984"/>
     <use xlink:href="#DejaVuSans-6e" x="526.363281"/>
     <use xlink:href="#DejaVuSans-73" x="589.742188"/>
     <use xlink:href="#DejaVuSans-66" x="641.841797"/>
     <use xlink:href="#DejaVuSans-6f" x="677.046875"/>
     <use xlink:href="#DejaVuSans-72" x="738.228516"/>
     <use xlink:href="#DejaVuSans-6d" x="777.591797"/>
     <use xlink:href="#DejaVuSans-65" x="875.003906"/>
     <use xlink:href="#DejaVuSans-72" x="936.527344"/>
     <use xlink:href="#DejaVuSans-20" x="977.640625"/>
     <use xlink:href="#DejaVuSans-2d" x="1009.427734"/>
     <use xlink:href="#DejaVuSans-20" x="1045.511719"/>
     <use xlink:href="#DejaVuSans-6d" x="1077.298828"/>
     <use xlink:href="#DejaVuSans-6f" x="1174.710938"/>
     <use xlink:href="#DejaVuSans-64" x="1235.892578"/>
     <use xlink:href="#DejaVuSans-65" x="1299.369141"/>
     <use xlink:href="#DejaVuSans-6c" x="1360.892578"/>
     <use xlink:href="#DejaVuSans-5f" x="1388.675781"/>
     <use xlink:href="#DejaVuSans-32" x="1438.675781"/>
     <use xlink:href="#DejaVuSans-30" x="1502.298828"/>
     <use xlink:href="#DejaVuSans-32" x="1565.921875"/>
     <use xlink:href="#DejaVuSans-33" x="1629.544922"/>
     <use xlink:href="#DejaVuSans-31" x="1693.167969"/>
     <use xlink:href="#DejaVuSans-31" x="1756.791016"/>
     <use xlink:href="#DejaVuSans-32" x="1820.414062"/>
     <use xlink:href="#DejaVuSans-33" x="1884.037109"/>
     <use xlink:href="#DejaVuSans-31" x="1947.660156"/>
     <use xlink:href="#DejaVuSans-36" x="2011.283203"/>
     <use xlink:href="#DejaVuSans-33" x="2074.90625"/>
     <use xlink:href="#DejaVuSans-33" x="2138.529297"/>
     <use xlink:href="#DejaVuSans-31" x="2202.152344"/>
     <use xlink:href="#DejaVuSans-35" x="2265.775391"/>
    </g>
   </g>
   <g id="legend_1">
    <g id="patch_7">
     <path d="M 79 95.234375 
L 161.517188 95.234375 
Q 163.517188 95.234375 163.517188 93.234375 
L 163.517188 50.2 
Q 163.517188 48.2 161.517188 48.2 
L 79 48.2 
Q 77 48.2 77 50.2 
L 77 93.234375 
Q 77 95.234375 79 95.234375 
z
" style="fill: #ffffff; opacity: 0.8; stroke: #cccccc; stroke-linejoin: miter"/>
    </g>
    <g id="line2d_16">
     <path d="M 81 56.298437 
L 91 56.298437 
L 101 56.298437 
" style="fill: none; stroke: #1f77b4; stroke-width: 1.5; stroke-linecap: square"/>
    </g>
    <g id="text_14">
     <!-- Measured -->
     <g transform="translate(109 59.798437) scale(0.1 -0.1)">
      <defs>
       <path id="DejaVuSans-4d" d="M 628 4666 
L 1569 4666 
L 2759 1491 
L 3956 4666 
L 4897 4666 
L 4897 0 
L 4281 0 
L 4281 4097 
L 3078 897 
L 2444 897 
L 1241 4097 
L 1241 0 
L 628 0 
L 628 4666 
z
" transform="scale(0.015625)"/>
       <path id="DejaVuSans-75" d="M 544 1381 
L 544 3500 
L 1119 3500 
L 1119 1403 
Q 1119 906 1312 657 
Q 1506 409 1894 409 
Q 2359 409 2629 706 
Q 2900 1003 2900 1516 
L 2900 3500 
L 3475 3500 
L 3475 0 
L 2900 0 
L 2900 538 
Q 2691 219 2414 64 
Q 2138 -91 1772 -91 
Q 1169 -91 856 284 
Q 544 659 544 1381 
z
M 1991 3584 
L 1991 3584 
z
" transform="scale(0.015625)"/>
      </defs>
      <use xlink:href="#DejaVuSans-4d"/>
      <use xlink:href="#DejaVuSans-65" x="86.279297"/>
      <use xlink:href="#DejaVuSans-61" x="147.802734"/>
      <use xlink:href="#DejaVuSans-73" x="209.082031"/>
      <use xlink:href="#DejaVuSans-75" x="261.181641"/>
      <use xlink:href="#DejaVuSans-72" x="324.560547"/>
      <use xlink:href="#DejaVuSans-65" x="363.423828"/>
      <use xlink:href="#DejaVuSans-64" x="424.947266"/>
     </g>
    </g>
    <g id="line2d_17">
     <path d="M 81 70.976562 
L 91 70.976562 
L 101 70.976562 
" style="fill: none; stroke: #ff7f0e; stroke-width: 1.5; stroke-linecap: square"/>
    </g>
    <g id="text_15">
     <!-- Fitted -->
     <g transform="translate(109 74.476562) scale(0.1 -0.1)">
      <defs>
       <path id="DejaVuSans-46" d="M 628 4666 
L 3309 4666 
L 3309 4134 
L 1259 4134 
L 1259 2759 
L 3109 2759 
L 3109 2228 
L 1259 2228 
L 1259 0 
L 628 0 
L 628 4666 
z
" transform="scale(0.015625)"/>
       <path id="DejaVuSans-74" d="M 1172 4494 
L 1172 3500 
L 2356 3500 
L 2356 3053 
L 1172 3053 
L 1172 1153 
Q 1172 725 1289 603 
Q 1406 481 1766 481 
L 2356 481 
L 2356 0 
L 1766 0 
Q 1100 0 847 248 
Q 594 497 594 1153 
L 594 3053 
L 172 3053 
L 172 3500 
L 594 3500 
L 594 4494 
L 1172 4494 
z
" transform="scale(0.015625)"/>
      </defs>
      <use xlink:href="#DejaVuSans-46"/>
      <use xlink:href="#DejaVuSans-69" x="50.269531"/>
      <use xlink:href="#DejaVuSans-74" x="78.052734"/>
      <use xlink:href="#DejaVuSans-74" x="117.261719"/>
      <use xlink:href="#DejaVuSans-65" x="156.470703"/>
      <use xlink:href="#DejaVuSans-64" x="217.994141"/>
     </g>
    </g>
    <g id="line2d_18">
     <path d="M 81 85.654687 
L 91 85.654687 
L 101 85.654687 
" style="fill: none; stroke: #2ca02c; stroke-width: 1.5; stroke-linecap: square"/>
    </g>
    <g id="text_16">
     <!-- Estimated -->
     <g transform="translate(109 89.154687) scale(0.1 -0.1)">
      <defs>
       <path id="DejaVuSans-45" d="M 628 4666 
L 3578 4666 
L 3578 4134 
L 1259 4134 
L 1259 2753 
L 3481 2753 
L 3481 2222 
L 1259 2222 
L 1259 531 
L 3634 531 
L 3634 0 
L 628 0 
L 628 4666 
z
" transform="scale(0.015625)"/>
      </defs>
      <use xlink:href="#DejaVuSans-45"/>
      <use xlink:href="#DejaVuSans-73" x="63.183594"/>
      <use xlink:href="#DejaVuSans-74" x="115.283203"/>
      <use xlink:href="#DejaVuSans-69" x="154.492188"/>
      <use xlink:href="#DejaVuSans-6d" x="182.275391"/>
      <use xlink:href="#DejaVuSans-61" x="279.6875"/>
      <use xlink:href="#DejaVuSans-74" x="340.966797"/>
      <use xlink:href="#DejaVuSans-65" x="380.175781"/>
      <use xlink:href="#DejaVuSans-64" x="441.699219"/>
     </g>
    </g>
   </g>
  </g>
 </g>
 <defs>
  <clipPath id="pda60848c24">
   <rect x="72" y="43.2" width="446.4" height="277.2"/>
  </clipPath>
 </defs>
</svg>
