<?xml version="1.0" encoding="utf-8" standalone="no"?>
<!DOCTYPE svg PUBLIC "-//W3C//DTD SVG 1.1//EN"
  "http://www.w3.org/Graphics/SVG/1.1/DTD/svg11.dtd">
<svg xmlns:xlink="http://www.w3.org/1999/xlink" width="576pt" height="360pt" viewBox="0 0 576 360" xmlns="http://www.w3.org/2000/svg" version="1.1">
 <metadata>
  <rdf:RDF xmlns:dc="http://purl.org/dc/elements/1.1/" xmlns:cc="http://creativecommons.org/ns#" xmlns:rdf="http://www.w3.org/1999/02/22-rdf-syntax-ns#">
   <cc:Work>
    <dc:type rdf:resource="http://purl.org/dc/dcmitype/StillImage"/>
    <dc:date>2023-11-23T17:01:19.126581</dc:date>
    <dc:format>image/svg+xml</dc:format>
    <dc:creator>
     <cc:Agent>
      <dc:title>Matplotlib v3.8.1, https://matplotlib.org/</dc:title>
     </cc:Agent>
    </dc:creator>
   </cc:Work>
  </rdf:RDF>
 </metadata>
 <defs>
  <style type="text/css">*{stroke-linejoin: round; stroke-linecap: butt}</style>
 </defs>
 <g id="figure_1">
  <g id="patch_1">
   <path d="M 0 360 
L 576 360 
L 576 0 
L 0 0 
z
" style="fill: #ffffff"/>
  </g>
  <g id="axes_1">
   <g id="patch_2">
    <path d="M 72 320.4 
L 518.4 320.4 
L 518.4 43.2 
L 72 43.2 
z
" style="fill: #ffffff"/>
   </g>
   <g id="matplotlib.axis_1">
    <g id="xtick_1">
     <g id="line2d_1">
      <defs>
       <path id="mda6be55562" d="M 0 0 
L 0 3.5 
" style="stroke: #000000; stroke-width: 0.8"/>
      </defs>
      <g>
       <use xlink:href="#mda6be55562" x="129.874161" y="320.4" style="stroke: #000000; stroke-width: 0.8"/>
      </g>
     </g>
     <g id="text_1">
      <!-- 2020-05-15 -->
      <g transform="translate(100.816349 334.998438) scale(0.1 -0.1)">
       <defs>
        <path id="DejaVuSans-32" d="M 1228 531 
L 3431 531 
L 3431 0 
L 469 0 
L 469 531 
Q 828 903 1448 1529 
Q 2069 2156 2228 2338 
Q 2531 2678 2651 2914 
Q 2772 3150 2772 3378 
Q 2772 3750 2511 3984 
Q 2250 4219 1831 4219 
Q 1534 4219 1204 4116 
Q 875 4013 500 3803 
L 500 4441 
Q 881 4594 1212 4672 
Q 1544 4750 1819 4750 
Q 2544 4750 2975 4387 
Q 3406 4025 3406 3419 
Q 3406 3131 3298 2873 
Q 3191 2616 2906 2266 
Q 2828 2175 2409 1742 
Q 1991 1309 1228 531 
z
" transform="scale(0.015625)"/>
        <path id="DejaVuSans-30" d="M 2034 4250 
Q 1547 4250 1301 3770 
Q 1056 3291 1056 2328 
Q 1056 1369 1301 889 
Q 1547 409 2034 409 
Q 2525 409 2770 889 
Q 3016 1369 3016 2328 
Q 3016 3291 2770 3770 
Q 2525 4250 2034 4250 
z
M 2034 4750 
Q 2819 4750 3233 4129 
Q 3647 3509 3647 2328 
Q 3647 1150 3233 529 
Q 2819 -91 2034 -91 
Q 1250 -91 836 529 
Q 422 1150 422 2328 
Q 422 3509 836 4129 
Q 1250 4750 2034 4750 
z
" transform="scale(0.015625)"/>
        <path id="DejaVuSans-2d" d="M 313 2009 
L 1997 2009 
L 1997 1497 
L 313 1497 
L 313 2009 
z
" transform="scale(0.015625)"/>
        <path id="DejaVuSans-35" d="M 691 4666 
L 3169 4666 
L 3169 4134 
L 1269 4134 
L 1269 2991 
Q 1406 3038 1543 3061 
Q 1681 3084 1819 3084 
Q 2600 3084 3056 2656 
Q 3513 2228 3513 1497 
Q 3513 744 3044 326 
Q 2575 -91 1722 -91 
Q 1428 -91 1123 -41 
Q 819 9 494 109 
L 494 744 
Q 775 591 1075 516 
Q 1375 441 1709 441 
Q 2250 441 2565 725 
Q 2881 1009 2881 1497 
Q 2881 1984 2565 2268 
Q 2250 2553 1709 2553 
Q 1456 2553 1204 2497 
Q 953 2441 691 2322 
L 691 4666 
z
" transform="scale(0.015625)"/>
        <path id="DejaVuSans-31" d="M 794 531 
L 1825 531 
L 1825 4091 
L 703 3866 
L 703 4441 
L 1819 4666 
L 2450 4666 
L 2450 531 
L 3481 531 
L 3481 0 
L 794 0 
L 794 531 
z
" transform="scale(0.015625)"/>
       </defs>
       <use xlink:href="#DejaVuSans-32"/>
       <use xlink:href="#DejaVuSans-30" x="63.623047"/>
       <use xlink:href="#DejaVuSans-32" x="127.246094"/>
       <use xlink:href="#DejaVuSans-30" x="190.869141"/>
       <use xlink:href="#DejaVuSans-2d" x="254.492188"/>
       <use xlink:href="#DejaVuSans-30" x="290.576172"/>
       <use xlink:href="#DejaVuSans-35" x="354.199219"/>
       <use xlink:href="#DejaVuSans-2d" x="417.822266"/>
       <use xlink:href="#DejaVuSans-31" x="453.90625"/>
       <use xlink:href="#DejaVuSans-35" x="517.529297"/>
      </g>
     </g>
    </g>
    <g id="xtick_2">
     <g id="line2d_2">
      <g>
       <use xlink:href="#mda6be55562" x="212.435902" y="320.4" style="stroke: #000000; stroke-width: 0.8"/>
      </g>
     </g>
     <g id="text_2">
      <!-- 2020-06-01 -->
      <g transform="translate(183.37809 334.998438) scale(0.1 -0.1)">
       <defs>
        <path id="DejaVuSans-36" d="M 2113 2584 
Q 1688 2584 1439 2293 
Q 1191 2003 1191 1497 
Q 1191 994 1439 701 
Q 1688 409 2113 409 
Q 2538 409 2786 701 
Q 3034 994 3034 1497 
Q 3034 2003 2786 2293 
Q 2538 2584 2113 2584 
z
M 3366 4563 
L 3366 3988 
Q 3128 4100 2886 4159 
Q 2644 4219 2406 4219 
Q 1781 4219 1451 3797 
Q 1122 3375 1075 2522 
Q 1259 2794 1537 2939 
Q 1816 3084 2150 3084 
Q 2853 3084 3261 2657 
Q 3669 2231 3669 1497 
Q 3669 778 3244 343 
Q 2819 -91 2113 -91 
Q 1303 -91 875 529 
Q 447 1150 447 2328 
Q 447 3434 972 4092 
Q 1497 4750 2381 4750 
Q 2619 4750 2861 4703 
Q 3103 4656 3366 4563 
z
" transform="scale(0.015625)"/>
       </defs>
       <use xlink:href="#DejaVuSans-32"/>
       <use xlink:href="#DejaVuSans-30" x="63.623047"/>
       <use xlink:href="#DejaVuSans-32" x="127.246094"/>
       <use xlink:href="#DejaVuSans-30" x="190.869141"/>
       <use xlink:href="#DejaVuSans-2d" x="254.492188"/>
       <use xlink:href="#DejaVuSans-30" x="290.576172"/>
       <use xlink:href="#DejaVuSans-36" x="354.199219"/>
       <use xlink:href="#DejaVuSans-2d" x="417.822266"/>
       <use xlink:href="#DejaVuSans-30" x="453.90625"/>
       <use xlink:href="#DejaVuSans-31" x="517.529297"/>
      </g>
     </g>
    </g>
    <g id="xtick_3">
     <g id="line2d_3">
      <g>
       <use xlink:href="#mda6be55562" x="280.427924" y="320.4" style="stroke: #000000; stroke-width: 0.8"/>
      </g>
     </g>
     <g id="text_3">
      <!-- 2020-06-15 -->
      <g transform="translate(251.370111 334.998438) scale(0.1 -0.1)">
       <use xlink:href="#DejaVuSans-32"/>
       <use xlink:href="#DejaVuSans-30" x="63.623047"/>
       <use xlink:href="#DejaVuSans-32" x="127.246094"/>
       <use xlink:href="#DejaVuSans-30" x="190.869141"/>
       <use xlink:href="#DejaVuSans-2d" x="254.492188"/>
       <use xlink:href="#DejaVuSans-30" x="290.576172"/>
       <use xlink:href="#DejaVuSans-36" x="354.199219"/>
       <use xlink:href="#DejaVuSans-2d" x="417.822266"/>
       <use xlink:href="#DejaVuSans-31" x="453.90625"/>
       <use xlink:href="#DejaVuSans-35" x="517.529297"/>
      </g>
     </g>
    </g>
    <g id="xtick_4">
     <g id="line2d_4">
      <g>
       <use xlink:href="#mda6be55562" x="358.133092" y="320.4" style="stroke: #000000; stroke-width: 0.8"/>
      </g>
     </g>
     <g id="text_4">
      <!-- 2020-07-01 -->
      <g transform="translate(329.075279 334.998438) scale(0.1 -0.1)">
       <defs>
        <path id="DejaVuSans-37" d="M 525 4666 
L 3525 4666 
L 3525 4397 
L 1831 0 
L 1172 0 
L 2766 4134 
L 525 4134 
L 525 4666 
z
" transform="scale(0.015625)"/>
       </defs>
       <use xlink:href="#DejaVuSans-32"/>
       <use xlink:href="#DejaVuSans-30" x="63.623047"/>
       <use xlink:href="#DejaVuSans-32" x="127.246094"/>
       <use xlink:href="#DejaVuSans-30" x="190.869141"/>
       <use xlink:href="#DejaVuSans-2d" x="254.492188"/>
       <use xlink:href="#DejaVuSans-30" x="290.576172"/>
       <use xlink:href="#DejaVuSans-37" x="354.199219"/>
       <use xlink:href="#DejaVuSans-2d" x="417.822266"/>
       <use xlink:href="#DejaVuSans-30" x="453.90625"/>
       <use xlink:href="#DejaVuSans-31" x="517.529297"/>
      </g>
     </g>
    </g>
    <g id="xtick_5">
     <g id="line2d_5">
      <g>
       <use xlink:href="#mda6be55562" x="426.125113" y="320.4" style="stroke: #000000; stroke-width: 0.8"/>
      </g>
     </g>
     <g id="text_5">
      <!-- 2020-07-15 -->
      <g transform="translate(397.067301 334.998438) scale(0.1 -0.1)">
       <use xlink:href="#DejaVuSans-32"/>
       <use xlink:href="#DejaVuSans-30" x="63.623047"/>
       <use xlink:href="#DejaVuSans-32" x="127.246094"/>
       <use xlink:href="#DejaVuSans-30" x="190.869141"/>
       <use xlink:href="#DejaVuSans-2d" x="254.492188"/>
       <use xlink:href="#DejaVuSans-30" x="290.576172"/>
       <use xlink:href="#DejaVuSans-37" x="354.199219"/>
       <use xlink:href="#DejaVuSans-2d" x="417.822266"/>
       <use xlink:href="#DejaVuSans-31" x="453.90625"/>
       <use xlink:href="#DejaVuSans-35" x="517.529297"/>
      </g>
     </g>
    </g>
    <g id="xtick_6">
     <g id="line2d_6">
      <g>
       <use xlink:href="#mda6be55562" x="508.686854" y="320.4" style="stroke: #000000; stroke-width: 0.8"/>
      </g>
     </g>
     <g id="text_6">
      <!-- 2020-08-01 -->
      <g transform="translate(479.629042 334.998438) scale(0.1 -0.1)">
       <defs>
        <path id="DejaVuSans-38" d="M 2034 2216 
Q 1584 2216 1326 1975 
Q 1069 1734 1069 1313 
Q 1069 891 1326 650 
Q 1584 409 2034 409 
Q 2484 409 2743 651 
Q 3003 894 3003 1313 
Q 3003 1734 2745 1975 
Q 2488 2216 2034 2216 
z
M 1403 2484 
Q 997 2584 770 2862 
Q 544 3141 544 3541 
Q 544 4100 942 4425 
Q 1341 4750 2034 4750 
Q 2731 4750 3128 4425 
Q 3525 4100 3525 3541 
Q 3525 3141 3298 2862 
Q 3072 2584 2669 2484 
Q 3125 2378 3379 2068 
Q 3634 1759 3634 1313 
Q 3634 634 3220 271 
Q 2806 -91 2034 -91 
Q 1263 -91 848 271 
Q 434 634 434 1313 
Q 434 1759 690 2068 
Q 947 2378 1403 2484 
z
M 1172 3481 
Q 1172 3119 1398 2916 
Q 1625 2713 2034 2713 
Q 2441 2713 2670 2916 
Q 2900 3119 2900 3481 
Q 2900 3844 2670 4047 
Q 2441 4250 2034 4250 
Q 1625 4250 1398 4047 
Q 1172 3844 1172 3481 
z
" transform="scale(0.015625)"/>
       </defs>
       <use xlink:href="#DejaVuSans-32"/>
       <use xlink:href="#DejaVuSans-30" x="63.623047"/>
       <use xlink:href="#DejaVuSans-32" x="127.246094"/>
       <use xlink:href="#DejaVuSans-30" x="190.869141"/>
       <use xlink:href="#DejaVuSans-2d" x="254.492188"/>
       <use xlink:href="#DejaVuSans-30" x="290.576172"/>
       <use xlink:href="#DejaVuSans-38" x="354.199219"/>
       <use xlink:href="#DejaVuSans-2d" x="417.822266"/>
       <use xlink:href="#DejaVuSans-30" x="453.90625"/>
       <use xlink:href="#DejaVuSans-31" x="517.529297"/>
      </g>
     </g>
    </g>
   </g>
   <g id="matplotlib.axis_2">
    <g id="ytick_1">
     <g id="line2d_7">
      <defs>
       <path id="m74478897aa" d="M 0 0 
L -3.5 0 
" style="stroke: #000000; stroke-width: 0.8"/>
      </defs>
      <g>
       <use xlink:href="#m74478897aa" x="72" y="310.112447" style="stroke: #000000; stroke-width: 0.8"/>
      </g>
     </g>
     <g id="text_7">
      <!-- −2 -->
      <g transform="translate(50.257812 313.911665) scale(0.1 -0.1)">
       <defs>
        <path id="DejaVuSans-2212" d="M 678 2272 
L 4684 2272 
L 4684 1741 
L 678 1741 
L 678 2272 
z
" transform="scale(0.015625)"/>
       </defs>
       <use xlink:href="#DejaVuSans-2212"/>
       <use xlink:href="#DejaVuSans-32" x="83.789062"/>
      </g>
     </g>
    </g>
    <g id="ytick_2">
     <g id="line2d_8">
      <g>
       <use xlink:href="#m74478897aa" x="72" y="257.581216" style="stroke: #000000; stroke-width: 0.8"/>
      </g>
     </g>
     <g id="text_8">
      <!-- −1 -->
      <g transform="translate(50.257812 261.380434) scale(0.1 -0.1)">
       <use xlink:href="#DejaVuSans-2212"/>
       <use xlink:href="#DejaVuSans-31" x="83.789062"/>
      </g>
     </g>
    </g>
    <g id="ytick_3">
     <g id="line2d_9">
      <g>
       <use xlink:href="#m74478897aa" x="72" y="205.049985" style="stroke: #000000; stroke-width: 0.8"/>
      </g>
     </g>
     <g id="text_9">
      <!-- 0 -->
      <g transform="translate(58.6375 208.849203) scale(0.1 -0.1)">
       <use xlink:href="#DejaVuSans-30"/>
      </g>
     </g>
    </g>
    <g id="ytick_4">
     <g id="line2d_10">
      <g>
       <use xlink:href="#m74478897aa" x="72" y="152.518754" style="stroke: #000000; stroke-width: 0.8"/>
      </g>
     </g>
     <g id="text_10">
      <!-- 1 -->
      <g transform="translate(58.6375 156.317972) scale(0.1 -0.1)">
       <use xlink:href="#DejaVuSans-31"/>
      </g>
     </g>
    </g>
    <g id="ytick_5">
     <g id="line2d_11">
      <g>
       <use xlink:href="#m74478897aa" x="72" y="99.987523" style="stroke: #000000; stroke-width: 0.8"/>
      </g>
     </g>
     <g id="text_11">
      <!-- 2 -->
      <g transform="translate(58.6375 103.786741) scale(0.1 -0.1)">
       <use xlink:href="#DejaVuSans-32"/>
      </g>
     </g>
    </g>
    <g id="ytick_6">
     <g id="line2d_12">
      <g>
       <use xlink:href="#m74478897aa" x="72" y="47.456292" style="stroke: #000000; stroke-width: 0.8"/>
      </g>
     </g>
     <g id="text_12">
      <!-- 3 -->
      <g transform="translate(58.6375 51.25551) scale(0.1 -0.1)">
       <defs>
        <path id="DejaVuSans-33" d="M 2597 2516 
Q 3050 2419 3304 2112 
Q 3559 1806 3559 1356 
Q 3559 666 3084 287 
Q 2609 -91 1734 -91 
Q 1441 -91 1130 -33 
Q 819 25 488 141 
L 488 750 
Q 750 597 1062 519 
Q 1375 441 1716 441 
Q 2309 441 2620 675 
Q 2931 909 2931 1356 
Q 2931 1769 2642 2001 
Q 2353 2234 1838 2234 
L 1294 2234 
L 1294 2753 
L 1863 2753 
Q 2328 2753 2575 2939 
Q 2822 3125 2822 3475 
Q 2822 3834 2567 4026 
Q 2313 4219 1838 4219 
Q 1578 4219 1281 4162 
Q 984 4106 628 3988 
L 628 4550 
Q 988 4650 1302 4700 
Q 1616 4750 1894 4750 
Q 2613 4750 3031 4423 
Q 3450 4097 3450 3541 
Q 3450 3153 3228 2886 
Q 3006 2619 2597 2516 
z
" transform="scale(0.015625)"/>
       </defs>
       <use xlink:href="#DejaVuSans-33"/>
      </g>
     </g>
    </g>
   </g>
   <g id="line2d_13">
    <path d="M 72 281.769571 
L 72.404714 292.902093 
L 72.607072 291.211599 
L 72.809429 280.738782 
L 73.214143 250.392353 
L 73.618858 238.187811 
L 75.035358 156.755478 
L 75.237715 153.848652 
L 75.440073 158.817056 
L 75.64243 166.877826 
L 75.844787 170.114503 
L 76.047144 185.08156 
L 76.654216 254.061962 
L 77.05893 277.687647 
L 77.261287 281.975729 
L 77.463645 281.604645 
L 77.666002 271.090597 
L 78.070716 243.114982 
L 78.475431 230.869209 
L 78.677788 221.901344 
L 79.487217 165.950116 
L 79.891931 149.972886 
L 80.094288 151.890153 
L 80.903717 193.53403 
L 81.713146 267.503451 
L 82.11786 281.893266 
L 82.320218 283.892996 
L 82.522575 283.604376 
L 82.724932 281.130482 
L 82.927289 274.430353 
L 83.332004 251.856073 
L 83.736718 237.796111 
L 83.939075 234.806823 
L 84.141432 235.074828 
L 84.546147 241.362641 
L 84.748504 243.424219 
L 84.950861 243.444835 
L 85.355576 247.567991 
L 85.557933 244.290082 
L 85.76029 250.30989 
L 86.569719 294.468892 
L 86.772076 300.447468 
L 86.974433 302.014268 
L 87.176791 302.076115 
L 87.379148 300.756705 
L 87.581505 297.087096 
L 87.783862 290.448815 
L 88.188577 268.781629 
L 88.390934 263.689531 
L 89.200363 255.752456 
L 89.40272 251.691147 
L 89.807434 237.157022 
L 90.212149 234.744976 
L 90.414506 232.08554 
L 90.616863 239.898921 
L 91.223935 289.603568 
L 91.628649 300.447468 
L 91.831006 300.509316 
L 92.033364 298.056038 
L 92.842792 252.70132 
L 93.04515 250.598511 
L 93.449864 242.146041 
L 93.652221 241.630646 
L 93.854578 238.744437 
L 94.056936 238.125964 
L 94.259293 235.548991 
L 94.46165 229.261178 
L 94.664007 226.457432 
L 94.866364 227.364526 
L 95.068722 230.456893 
L 95.271079 226.684205 
L 95.473436 236.621012 
L 96.080508 289.974652 
L 96.485222 299.024979 
L 96.687579 300.901015 
L 96.889937 296.633549 
L 97.699365 251.979768 
L 98.306437 241.651262 
L 98.508794 241.280178 
L 99.52058 220.417008 
L 99.722937 221.653955 
L 99.925295 225.942037 
L 100.127652 224.148464 
L 100.330009 234.126502 
L 100.937081 287.54199 
L 101.341795 299.602221 
L 101.544152 300.571163 
L 101.74651 296.92217 
L 101.948867 285.171175 
L 102.353581 255.649377 
L 102.555938 254.123809 
L 103.567724 236.641627 
L 104.377153 214.912595 
L 104.57951 216.170157 
L 104.781868 221.468413 
L 104.984225 221.447797 
L 105.186582 230.188888 
L 105.793654 284.449623 
L 106.198368 296.984017 
L 106.400725 298.715743 
L 106.603083 294.757513 
L 107.412511 249.608953 
L 107.614869 247.918459 
L 107.817226 244.310698 
L 108.22194 230.023962 
L 108.626655 208.686629 
L 108.829012 202.852363 
L 109.031369 200.996943 
L 109.638441 209.531876 
L 109.840798 214.871363 
L 110.043155 225.09679 
L 110.650227 279.213214 
L 111.054941 293.231945 
L 111.257298 295.107981 
L 111.459655 293.396871 
L 111.662013 282.181887 
L 112.066727 253.422873 
L 112.471442 238.68259 
L 113.887942 171.433913 
L 114.090299 169.10433 
L 114.292656 175.804459 
L 114.495014 187.040059 
L 114.697371 191.554915 
L 115.102085 224.993711 
L 115.709157 273.523259 
L 116.113871 287.232753 
L 116.316228 287.397679 
L 116.518586 285.769033 
L 116.720943 282.202502 
L 117.125657 255.422603 
L 118.542158 152.529243 
L 118.744515 142.592436 
L 118.946872 138.778517 
L 119.149229 142.386278 
L 119.756301 179.618378 
L 120.56573 257.628492 
L 120.970444 277.110405 
L 121.172801 281.130482 
L 121.375159 282.738513 
L 121.577516 281.316024 
L 121.779873 273.523259 
L 122.589302 223.38568 
L 123.196374 198.358123 
L 123.398731 193.863883 
L 123.601088 194.07004 
L 123.803445 193.513414 
L 124.410517 206.686898 
L 124.612874 217.468951 
L 125.219946 272.801707 
L 125.62466 287.088442 
L 125.827017 289.046942 
L 126.029374 286.552432 
L 127.04116 231.116598 
L 127.648232 194.338046 
L 128.255304 152.673553 
L 128.457661 145.251872 
L 128.660018 144.922019 
L 129.26709 188.50378 
L 130.278876 277.811341 
L 130.481233 285.501027 
L 130.68359 286.861669 
L 130.885947 284.325928 
L 132.504805 177.247563 
L 133.111877 135.29445 
L 133.314234 126.037964 
L 133.516591 127.707843 
L 133.921306 142.81921 
L 134.123663 150.117196 
L 135.135449 258.143887 
L 135.540163 270.554586 
L 135.74252 269.626876 
L 135.944878 259.215907 
L 136.349592 228.333468 
L 136.551949 221.674571 
L 136.754306 210.006039 
L 136.956664 214.500279 
L 137.159021 203.388373 
L 137.766092 194.70913 
L 137.96845 195.100829 
L 138.373164 189.781958 
L 138.777879 197.203639 
L 138.980236 198.02827 
L 139.182593 209.634955 
L 139.789665 265.318178 
L 140.194379 280.429545 
L 140.396736 282.470508 
L 140.599093 279.501835 
L 141.003808 249.794495 
L 141.408522 228.972557 
L 142.015594 215.799073 
L 142.622665 206.810593 
L 142.825023 206.542588 
L 143.02738 205.346872 
L 143.229737 206.027193 
L 143.634451 211.22237 
L 143.836809 210.006039 
L 144.039166 220.025308 
L 144.646238 268.554856 
L 145.050952 280.450161 
L 145.253309 281.72834 
L 145.455666 278.635972 
L 145.860381 249.464643 
L 146.062738 233.281255 
L 146.66981 217.077252 
L 146.872167 214.438432 
L 147.074524 213.366411 
L 147.479238 202.440047 
L 147.681596 210.768823 
L 147.883953 211.737764 
L 148.08631 214.314737 
L 148.491024 223.488759 
L 148.693382 222.148734 
L 149.098096 245.42395 
L 149.502811 273.152175 
L 149.907525 286.078269 
L 150.109882 288.119231 
L 150.312239 287.54199 
L 150.514597 284.738243 
L 150.716954 279.068904 
L 151.121668 258.329429 
L 151.526383 237.961037 
L 151.931097 232.188619 
L 152.133454 231.755687 
L 152.335811 233.714187 
L 152.538169 234.229581 
L 152.740526 232.188619 
L 152.942883 232.47724 
L 153.14524 231.508298 
L 153.347597 231.54953 
L 153.549955 228.642704 
L 153.752312 230.827977 
L 154.764098 281.996345 
L 154.966455 285.933959 
L 155.168812 287.315216 
L 155.573527 283.398218 
L 155.775884 272.389391 
L 156.78767 194.894672 
L 157.799456 152.508627 
L 158.001813 154.508357 
L 158.406528 167.64061 
L 158.608885 181.12333 
L 159.215956 249.38218 
L 159.620671 270.863823 
L 159.823028 274.059269 
L 160.025385 273.152175 
L 160.227743 263.400911 
L 160.632457 231.116598 
L 161.8466 181.082099 
L 162.251315 171.083445 
L 162.453672 171.227756 
L 162.656029 174.072733 
L 163.465458 205.717956 
L 164.072529 265.256331 
L 164.477244 283.769302 
L 164.679601 284.099154 
L 164.881958 280.883093 
L 165.084316 270.78136 
L 165.48903 239.177368 
L 166.500816 204.274852 
L 167.310245 161.57957 
L 167.512602 164.919327 
L 167.917316 185.390797 
L 168.119674 189.82319 
L 168.322031 201.120637 
L 168.929102 260.22608 
L 169.333817 275.337448 
L 169.536174 278.84213 
L 169.738531 275.193137 
L 170.143246 248.042154 
L 170.54796 217.881267 
L 171.357389 173.536723 
L 171.559746 167.537531 
L 172.166818 143.458299 
L 172.369175 145.06633 
L 172.571532 152.941558 
L 173.178604 191.719841 
L 173.785675 262.452585 
L 174.19039 281.748955 
L 174.392747 284.717628 
L 174.595104 282.903439 
L 174.999819 258.824207 
L 175.404533 233.94096 
L 177.023391 156.075157 
L 177.225748 156.590551 
L 177.428105 160.486934 
L 177.630462 177.000174 
L 177.83282 179.432836 
L 178.237534 223.344449 
L 178.642248 266.060346 
L 179.046963 285.171175 
L 179.24932 288.882015 
L 179.451677 286.36689 
L 179.654034 277.708262 
L 180.261106 238.022885 
L 181.879964 141.458568 
L 182.082321 138.201275 
L 182.284678 143.849999 
L 183.094107 199.966154 
L 183.498821 238.8269 
L 183.903536 260.205465 
L 184.30825 268.018845 
L 184.510607 269.379487 
L 184.712965 265.75111 
L 184.915322 252.4127 
L 185.724751 170.671129 
L 186.129465 149.354412 
L 186.331822 143.313989 
L 186.53418 142.551205 
L 186.736537 145.086946 
L 187.748323 185.411413 
L 188.557752 249.423411 
L 188.962466 263.565837 
L 189.164823 265.606799 
L 189.36718 265.689262 
L 189.569538 264.947094 
L 189.771895 254.185657 
L 190.986038 158.425356 
L 191.188395 153.1271 
L 191.390752 153.085869 
L 191.795467 162.218659 
L 192.604896 193.472183 
L 193.414325 256.700782 
L 193.819039 270.38966 
L 194.021396 271.461681 
L 194.426111 267.503451 
L 194.628468 258.556202 
L 195.437897 197.719034 
L 195.640254 192.709399 
L 195.842611 193.92573 
L 196.247325 199.986769 
L 196.449683 200.564011 
L 196.65204 200.172311 
L 197.056754 208.377392 
L 197.259112 209.222639 
L 197.461469 217.633878 
L 198.06854 265.957267 
L 198.473255 280.140924 
L 198.675612 280.244003 
L 198.877969 276.59501 
L 199.282684 245.81565 
L 199.687398 222.993981 
L 201.306256 156.590551 
L 201.508613 155.436068 
L 202.115684 174.629359 
L 202.318042 185.782497 
L 202.925113 249.856343 
L 203.329828 267.503451 
L 203.532185 269.606261 
L 203.734542 266.616972 
L 203.936899 255.092751 
L 204.341614 221.097329 
L 205.758114 166.424279 
L 205.960471 163.929769 
L 206.162829 164.07408 
L 206.365186 165.496569 
L 206.7699 177.350642 
L 206.972257 180.546088 
L 207.174615 191.389989 
L 207.781686 250.4542 
L 208.186401 266.616972 
L 208.388758 269.668108 
L 208.591115 266.328351 
L 208.793472 254.453662 
L 209.198187 220.643782 
L 209.805258 198.358123 
L 210.209973 178.463895 
L 210.817044 136.75817 
L 211.019402 128.264469 
L 211.221759 131.233141 
L 211.626473 155.724689 
L 211.82883 160.940481 
L 212.031188 175.680764 
L 212.638259 240.764783 
L 213.042974 259.360218 
L 213.245331 263.359679 
L 213.447688 261.648569 
L 213.650045 250.928363 
L 214.257117 207.635224 
L 214.661831 181.267641 
L 215.47126 121.873577 
L 215.875975 105.133563 
L 216.078332 104.6594 
L 216.280689 110.205045 
L 217.090118 174.031502 
L 217.697189 236.002538 
L 218.101904 254.474278 
L 218.304261 257.83465 
L 218.506618 259.195291 
L 218.708976 257.937729 
L 218.911333 245.197176 
L 219.518404 190.3592 
L 220.125476 155.126831 
L 220.327833 152.962174 
L 220.53019 155.188678 
L 221.541976 197.533492 
L 221.744334 202.687437 
L 222.553762 259.628223 
L 222.958477 270.513355 
L 223.160834 272.224465 
L 223.363191 272.574933 
L 223.565549 271.008134 
L 223.767906 262.287658 
L 224.374977 224.045385 
L 224.779692 216.458778 
L 225.386763 218.520356 
L 225.589121 222.045655 
L 225.791478 222.932133 
L 226.196192 231.322756 
L 226.398549 230.972288 
L 226.600907 237.404411 
L 227.410335 291.067288 
L 227.612693 295.107981 
L 227.81505 296.798475 
L 228.017407 293.603029 
L 228.826836 250.969595 
L 229.029193 248.640012 
L 229.23155 242.888209 
L 230.648051 179.41222 
L 230.850408 179.989462 
L 231.255122 194.420509 
L 231.45748 205.326257 
L 232.064551 269.07025 
L 232.469266 286.263811 
L 232.671623 288.985094 
L 232.87398 287.768763 
L 233.278694 262.452585 
L 233.683409 239.898921 
L 235.302267 175.247833 
L 235.504624 174.649975 
L 236.111695 193.78142 
L 236.314053 204.151157 
L 236.921124 266.348967 
L 237.325839 282.243734 
L 237.528196 285.377333 
L 237.730553 283.253907 
L 238.135267 259.277754 
L 238.539982 237.466259 
L 239.349411 206.501356 
L 239.754125 196.482087 
L 240.15884 186.25666 
L 240.361197 186.00927 
L 240.563554 191.472452 
L 240.968268 209.098944 
L 241.170626 216.685552 
L 241.777697 272.286312 
L 242.182412 288.160463 
L 242.384769 290.654973 
L 242.587126 287.665684 
L 242.99184 262.926748 
L 243.396555 244.949787 
L 245.21777 170.217582 
L 245.420127 174.464433 
L 246.027199 201.285564 
L 246.836627 274.842669 
L 247.038985 283.212676 
L 247.241342 286.387506 
L 247.443699 283.851765 
L 247.848413 260.267312 
L 249.467271 148.158697 
L 249.669628 140.077311 
L 249.871985 138.139428 
L 250.074343 138.304354 
L 250.2767 145.251872 
L 250.883772 177.391874 
L 251.6932 252.433315 
L 252.097915 266.967441 
L 252.300272 270.039192 
L 252.502629 270.307197 
L 252.704986 266.43143 
L 253.109701 233.652339 
L 253.91913 160.383855 
L 254.323844 144.571551 
L 254.728558 135.747997 
L 254.930916 134.490435 
L 255.133273 141.994579 
L 255.740345 179.494684 
L 256.549773 254.762898 
L 256.954488 270.24535 
L 257.156845 274.059269 
L 257.359202 275.729147 
L 257.561559 274.760206 
L 257.966274 245.856881 
L 258.573345 195.430682 
L 258.97806 173.742881 
L 259.382774 162.713438 
L 259.585131 159.270603 
L 259.787489 158.837671 
L 259.989846 161.455876 
L 260.39456 177.453721 
L 260.596917 190.812747 
L 261.203989 252.845631 
L 261.608704 271.56476 
L 261.811061 274.492201 
L 262.013418 273.708801 
L 262.418132 249.732648 
L 262.62049 237.713648 
L 263.025204 228.044847 
L 263.227561 225.241101 
L 263.429918 224.230927 
L 263.834633 225.509106 
L 264.03699 225.199869 
L 264.239347 226.148195 
L 264.441704 226.230658 
L 264.644062 225.962653 
L 264.846419 228.003615 
L 265.048776 232.044308 
L 265.251133 232.044308 
L 265.45349 236.064385 
L 266.060562 278.553509 
L 266.465277 291.397141 
L 266.667634 292.943324 
L 266.869991 288.758321 
L 267.072348 280.800629 
L 267.477063 254.288736 
L 268.084134 232.106156 
L 268.488849 221.818881 
L 269.09592 210.562665 
L 269.500635 206.604435 
L 269.702992 208.789708 
L 269.905349 212.397469 
L 270.107706 213.07779 
L 270.310063 219.386219 
L 270.917135 268.266235 
L 271.32185 280.244003 
L 271.524207 282.388044 
L 271.726564 280.676935 
L 274.15485 139.025906 
L 274.357208 131.851615 
L 274.559565 135.191371 
L 275.166636 160.363239 
L 275.976065 241.981115 
L 276.38078 254.556741 
L 276.583137 253.855804 
L 276.987851 232.003077 
L 277.392566 203.079137 
L 278.404352 146.097119 
L 278.606709 143.045983 
L 279.011423 129.810652 
L 279.213781 128.202621 
L 279.416138 132.470088 
L 280.023209 174.217044 
L 280.630281 245.609492 
L 281.034995 268.410545 
L 281.237353 273.296485 
L 281.43971 271.750302 
L 281.642067 265.854188 
L 282.249139 224.066001 
L 282.85621 190.400431 
L 283.867996 147.581455 
L 284.070354 146.38574 
L 284.272711 154.549589 
L 285.284497 237.693032 
L 285.689211 269.894881 
L 286.093926 284.65578 
L 286.296283 286.944132 
L 286.49864 285.129943 
L 286.700997 282.181887 
L 287.105712 251.134521 
L 287.712783 199.533222 
L 288.522212 156.054541 
L 288.724569 148.921481 
L 288.926927 146.983598 
L 289.129284 150.570743 
L 289.736355 184.421855 
L 290.545784 254.577356 
L 290.950499 269.874266 
L 291.152856 272.657396 
L 291.355213 272.739859 
L 291.55757 271.255523 
L 291.759927 258.76236 
L 292.771714 159.971539 
L 293.176428 137.953886 
L 293.581142 126.697669 
L 293.7835 124.965944 
L 293.985857 128.491242 
L 294.592928 154.05481 
L 295.402357 237.445643 
L 295.807072 252.16531 
L 296.009429 252.000384 
L 296.414143 231.673224 
L 297.830644 96.35124 
L 298.235358 83.01283 
L 298.437715 80.415242 
L 298.640073 80.683247 
L 298.84243 82.744825 
L 299.044787 90.805595 
L 299.449501 117.8535 
L 300.056573 197.079944 
L 300.461287 222.396123 
L 300.663645 228.436547 
L 300.866002 229.158099 
L 301.068359 222.31366 
L 301.473073 192.173389 
L 302.484859 86.558745 
L 302.687217 75.19945 
L 302.889574 75.302528 
L 303.091931 83.425146 
L 303.496646 92.10439 
L 303.90136 114.43128 
L 304.306074 142.468742 
L 304.913146 211.923306 
L 305.31786 237.36318 
L 305.520218 242.950056 
L 305.722575 241.156483 
L 305.924932 234.002807 
L 306.532004 193.905114 
L 307.54379 123.646534 
L 307.746147 113.400491 
L 307.948504 112.514012 
L 308.757933 144.901404 
L 309.162647 171.062829 
L 309.769719 234.291428 
L 310.174433 254.247504 
L 310.376791 258.659281 
L 310.579148 258.082039 
L 310.983862 234.580049 
L 312.198005 130.161121 
L 312.60272 118.492589 
L 312.805077 114.101428 
L 313.007434 114.658054 
L 313.209791 118.368894 
L 313.816863 146.055887 
L 314.01922 159.785997 
L 314.626292 222.602281 
L 315.031006 243.17683 
L 315.233364 247.774149 
L 315.435721 247.114444 
L 315.840435 228.27162 
L 316.24515 209.490644 
L 316.649864 197.430413 
L 317.054578 182.071656 
L 317.66165 174.52628 
L 317.864007 174.072733 
L 318.066364 173.165639 
L 318.268722 177.866037 
L 318.875793 200.089848 
L 319.685222 258.90667 
L 320.089937 271.729686 
L 320.292294 273.378948 
L 320.697008 265.421257 
L 321.101723 239.094905 
L 322.315866 160.878634 
L 322.72058 150.591359 
L 322.922937 148.261776 
L 323.125295 152.405548 
L 323.732366 180.133773 
L 324.541795 248.928633 
L 324.94651 263.277216 
L 325.148867 266.184041 
L 325.351224 266.245888 
L 325.553581 263.978152 
L 325.755938 251.608684 
L 326.970082 138.778517 
L 327.172439 132.428856 
L 327.374796 130.841441 
L 327.77951 125.254565 
L 327.981868 130.264199 
L 328.184225 139.087754 
L 328.791296 190.936442 
L 329.196011 234.827439 
L 329.398368 250.124348 
L 329.803083 260.267312 
L 330.00544 259.318986 
L 330.207797 253.690878 
L 330.814869 204.996404 
L 331.42194 166.630436 
L 331.826655 143.870615 
L 332.029012 140.96379 
L 332.231369 140.984405 
L 332.433726 141.169947 
L 332.636083 143.272757 
L 332.838441 147.828845 
L 333.243155 170.836056 
L 333.445512 179.886383 
L 334.052584 245.856881 
L 334.457298 267.730224 
L 334.659655 273.172791 
L 334.862013 270.760744 
L 335.266727 250.8459 
L 335.671442 226.395584 
L 336.48087 186.132965 
L 336.683228 181.040867 
L 336.885585 179.927615 
L 337.087942 173.722265 
L 337.290299 171.866845 
L 337.695014 178.360816 
L 338.099728 192.874325 
L 338.302085 198.770438 
L 339.111514 264.844015 
L 339.313871 271.069981 
L 339.516228 273.317101 
L 339.718586 269.235176 
L 340.1233 245.795034 
L 340.932729 201.161869 
L 342.349229 139.170217 
L 342.551587 139.087754 
L 343.158658 163.867922 
L 343.76573 226.869747 
L 344.170444 244.949787 
L 344.372801 249.732648 
L 344.575159 247.588607 
L 344.777516 240.641089 
L 345.18223 209.634955 
L 346.194016 126.677054 
L 346.598731 111.854307 
L 347.003445 105.216026 
L 347.205802 104.370779 
L 347.40816 107.566225 
L 347.610517 115.441453 
L 348.015231 141.64411 
L 348.82466 233.116329 
L 349.229374 250.289274 
L 349.431732 249.52649 
L 349.634089 243.71284 
L 349.836446 232.539087 
L 351.050589 127.707843 
L 351.455304 109.277335 
L 351.860018 100.391933 
L 352.062375 99.484839 
L 352.264733 103.133832 
L 352.46709 114.266354 
L 353.276519 197.677802 
L 353.681233 235.755149 
L 354.085947 256.020461 
L 354.288305 261.318717 
L 354.490662 261.895959 
L 354.693019 259.648838 
L 355.097733 217.448336 
L 355.704805 143.334604 
L 356.109519 118.53382 
L 356.716591 100.268239 
L 356.918948 99.175602 
L 357.121306 103.999695 
L 357.52602 129.728189 
L 357.728377 142.468742 
L 358.740163 238.332121 
L 359.144878 251.361295 
L 359.347235 253.237331 
L 359.549592 252.907478 
L 359.751949 238.847516 
L 360.763735 117.729805 
L 361.16845 98.577745 
L 361.573164 87.424607 
L 361.775521 85.11564 
L 361.977879 88.414165 
L 362.180236 95.444146 
L 362.58495 121.337567 
L 363.394379 210.459586 
L 363.799093 228.189157 
L 364.001451 229.013789 
L 364.203808 223.09706 
L 364.406165 212.995327 
L 365.013237 143.107831 
L 365.620308 78.250585 
L 366.025023 62.00535 
L 366.429737 55.8 
L 366.632094 56.294779 
L 366.834451 58.954214 
L 367.036809 67.715921 
L 367.441523 97.052177 
L 368.048595 177.082637 
L 368.453309 207.758919 
L 368.655666 216.335083 
L 368.858024 218.726514 
L 369.060381 214.809516 
L 369.262738 204.893325 
L 369.86981 141.025637 
L 370.476881 82.538667 
L 370.881596 65.819269 
L 371.083953 65.365722 
L 371.28631 66.087275 
L 371.488667 70.045504 
L 371.691024 76.312702 
L 372.298096 115.523916 
L 373.107525 201.038174 
L 373.512239 223.406296 
L 373.714597 227.797457 
L 374.119311 227.096521 
L 374.321668 214.273505 
L 375.333454 109.792729 
L 375.738169 96.454319 
L 375.940526 93.733036 
L 376.142883 92.619784 
L 376.34524 97.835577 
L 376.749955 124.244392 
L 377.559383 183.535377 
L 377.964098 218.417277 
L 378.368812 232.312313 
L 378.57117 232.539087 
L 378.773527 226.560511 
L 378.975884 215.263063 
L 380.392384 97.814961 
L 380.797099 87.816307 
L 381.201813 80.167853 
L 381.40417 83.961156 
L 382.011242 121.255103 
L 382.820671 204.728399 
L 383.225385 220.953018 
L 383.427743 221.612723 
L 383.6301 216.232005 
L 384.034814 193.822651 
L 385.0466 119.832615 
L 385.451315 103.010138 
L 385.653672 102.535975 
L 385.856029 106.349894 
L 386.058386 114.03958 
L 387.070172 184.566166 
L 387.474887 224.993711 
L 387.879601 247.052597 
L 388.284316 256.26785 
L 388.68903 258.803591 
L 388.891387 253.010557 
L 389.700816 209.11956 
L 390.307888 197.822112 
L 390.914959 184.978481 
L 391.117316 189.802574 
L 391.926745 229.694109 
L 392.533817 274.244811 
L 392.938531 286.717358 
L 393.140888 288.593394 
L 393.343246 288.139847 
L 393.545603 288.61401 
L 393.74796 279.584298 
L 394.355032 238.084732 
L 395.569175 181.143946 
L 395.771532 175.082907 
L 395.973889 176.299238 
L 396.176247 184.68986 
L 396.783318 227.075905 
L 397.188033 265.916036 
L 397.592747 283.892996 
L 397.795104 286.696743 
L 397.997461 284.140386 
L 398.402176 265.854188 
L 400.628105 137.170486 
L 400.830462 140.036079 
L 401.03282 150.075965 
L 401.639891 207.593992 
L 402.044606 252.309621 
L 402.44932 272.801707 
L 402.651677 276.8424 
L 402.854034 275.172521 
L 403.258749 256.824477 
L 403.663463 228.168542 
L 404.877607 121.234488 
L 405.282321 100.536244 
L 405.484678 96.289393 
L 405.687035 97.382029 
L 405.889393 107.978541 
L 406.294107 145.664188 
L 406.901179 223.736149 
L 407.305893 248.000922 
L 407.50825 253.649646 
L 407.710607 253.113636 
L 408.115322 231.69384 
L 409.73418 98.289124 
L 409.936537 93.320721 
L 410.138894 93.17641 
L 410.341251 97.814961 
L 410.948323 134.222429 
L 411.15068 150.261507 
L 411.757752 221.447797 
L 412.162466 245.712571 
L 412.364823 252.247773 
L 412.56718 254.041346 
L 412.971895 235.837612 
L 414.388395 136.923097 
L 414.79311 123.27545 
L 415.197824 116.554705 
L 415.400181 123.378529 
L 416.20961 186.442202 
L 416.614325 232.044308 
L 417.019039 255.298909 
L 417.221396 259.586991 
L 417.423753 259.030365 
L 417.828468 242.743898 
L 419.244968 144.221083 
L 419.649683 130.511589 
L 419.85204 126.656438 
L 420.054397 128.099543 
L 420.256754 136.820018 
L 421.066183 202.563742 
L 421.673255 258.020192 
L 422.077969 274.20358 
L 422.280326 276.698089 
L 422.482684 276.038384 
L 422.685041 275.873458 
L 423.089755 244.929171 
L 423.899184 175.453991 
L 424.708613 135.912923 
L 424.91097 132.717477 
L 425.113327 136.737555 
L 425.518042 163.002059 
L 425.720399 174.856133 
L 426.529828 249.835727 
L 426.934542 268.493008 
L 427.136899 272.987249 
L 427.339257 273.791264 
L 427.541614 274.018038 
L 427.743971 265.380025 
L 428.148685 224.849401 
L 428.755757 162.692822 
L 429.160471 136.943712 
L 429.565186 128.656169 
L 429.9699 132.593783 
L 430.374615 148.880249 
L 430.576972 160.569397 
L 431.386401 236.868401 
L 431.791115 249.155406 
L 431.993472 247.114444 
L 432.398187 226.725437 
L 433.207616 161.373412 
L 434.017044 90.723132 
L 434.219402 85.816577 
L 435.02883 113.338644 
L 435.433545 138.428049 
L 436.040617 209.90296 
L 436.445331 232.518471 
L 436.647688 237.672416 
L 436.850045 236.992096 
L 437.25476 216.314468 
L 437.659474 181.267641 
L 438.468903 107.524994 
L 438.67126 97.753114 
L 438.873617 98.722055 
L 439.075975 105.855115 
L 439.278332 105.401568 
L 439.480689 107.648688 
L 439.885403 126.264738 
L 440.290118 151.106754 
L 440.897189 224.787554 
L 441.301904 247.176291 
L 441.504261 252.618857 
L 441.706618 253.154868 
L 442.111333 238.373353 
L 442.920762 186.174196 
L 443.527833 151.189217 
L 444.134905 128.367548 
L 444.337262 125.769959 
L 444.539619 132.202083 
L 445.146691 177.41249 
L 445.753762 246.825823 
L 446.158477 268.101309 
L 446.360834 273.069712 
L 446.563191 271.069981 
L 446.967906 252.103463 
L 448.586763 141.953347 
L 448.991478 128.718016 
L 449.193835 126.388433 
L 449.396192 133.067946 
L 450.003264 173.577955 
L 450.812693 253.87642 
L 451.217407 267.21483 
L 451.419764 267.338525 
L 451.824479 250.103732 
L 452.43155 199.533222 
L 453.038622 157.497646 
L 453.443336 140.407164 
L 453.848051 132.51132 
L 454.050408 135.892308 
L 454.252765 145.911577 
L 454.65748 174.402586 
L 454.859837 182.875672 
L 455.669266 247.794765 
L 456.07398 261.380564 
L 456.276337 262.906132 
L 456.478694 260.906401 
L 456.681052 257.793418 
L 456.883409 249.77388 
L 457.288123 222.684744 
L 457.692838 211.696533 
L 457.895195 212.397469 
L 458.299909 218.169888 
L 458.502267 218.025577 
L 458.906981 214.191042 
L 459.109338 214.727053 
L 459.514053 218.89144 
L 459.71641 223.200138 
L 460.728196 281.068635 
L 461.13291 285.501027 
L 461.537625 282.181887 
L 461.739982 273.234638 
L 462.144696 238.641358 
L 463.561197 169.289872 
L 463.763554 162.012502 
L 463.965911 163.187601 
L 464.572983 182.710745 
L 465.382412 249.856343 
L 465.584769 256.783245 
L 465.787126 259.504528 
L 465.989483 257.071866 
L 467.608341 164.300853 
L 468.620127 143.066599 
L 468.822484 146.200198 
L 469.429556 172.505934 
L 470.036627 229.364257 
L 470.441342 247.196907 
L 470.643699 249.835727 
L 470.846056 247.258754 
L 471.857842 196.214082 
L 472.869628 165.888268 
L 473.071985 166.383047 
L 473.274343 164.589474 
L 473.4767 165.847037 
L 473.679057 169.64034 
L 473.881414 176.23739 
L 474.083772 177.391874 
L 474.286129 185.08156 
L 474.8932 237.321948 
L 475.297915 253.608415 
L 475.500272 255.278293 
L 475.702629 253.237331 
L 476.107344 228.807631 
L 476.512058 206.748745 
L 477.321487 175.185985 
L 477.726201 154.98252 
L 477.928558 151.41599 
L 478.333273 156.116388 
L 478.53563 160.590013 
L 479.142702 185.576339 
L 479.952131 253.505336 
L 480.356845 263.380295 
L 480.559202 262.967979 
L 480.963917 240.826631 
L 482.785131 112.142928 
L 482.987489 106.226199 
L 483.189846 103.587379 
L 483.392203 109.236103 
L 483.999275 149.189486 
L 484.606346 220.45824 
L 485.011061 243.733456 
L 485.213418 248.145233 
L 485.415775 249.093559 
L 485.82049 229.281794 
L 486.225204 198.007655 
L 487.23699 107.83423 
L 487.439347 104.741863 
L 487.844062 111.318297 
L 488.248776 129.975579 
L 489.260562 207.676456 
L 489.665277 239.898921 
L 490.069991 255.030904 
L 490.272348 257.381103 
L 490.474705 256.247235 
L 490.677063 254.474278 
L 490.87942 244.723013 
L 491.891206 164.836864 
L 492.29592 147.086676 
L 492.498277 139.685611 
L 492.700635 137.665265 
L 492.902992 139.293911 
L 493.105349 144.118004 
L 493.712421 177.701111 
L 494.52185 249.835727 
L 495.128921 268.14254 
L 495.331278 268.286851 
L 495.533636 267.668377 
L 495.735993 260.102386 
L 496.950136 168.424009 
L 497.557208 144.014925 
L 497.759565 140.654553 
L 497.961922 143.870615 
L 498.568994 175.433375 
L 499.378422 249.38218 
L 499.58078 256.226619 
L 499.783137 258.721128 
L 499.985494 255.401988 
L 500.187851 246.867055 
L 500.794923 209.882344 
L 500.99728 204.769631 
L 501.401995 191.657994 
L 501.806709 180.381162 
L 502.009066 179.927615 
L 502.211423 181.989193 
L 502.413781 182.628282 
L 502.616138 180.958404 
L 503.020852 190.689052 
L 503.223209 191.245678 
L 503.425567 198.770438 
L 504.032638 249.547106 
L 504.437353 262.638127 
L 504.63971 264.266773 
L 504.842067 261.895959 
L 505.246782 237.486874 
L 505.651496 213.634416 
L 507.270354 140.365932 
L 507.472711 137.252949 
L 507.675068 140.654553 
L 508.28214 168.733246 
L 508.889211 226.849132 
L 509.293926 244.001461 
L 509.496283 247.52676 
L 509.69864 245.691955 
L 510.103354 222.107502 
L 511.722212 115.565148 
L 512.126927 97.773729 
L 512.329284 99.361144 
L 512.936355 133.789498 
L 513.34107 172.794555 
L 513.745784 216.335083 
L 514.150499 239.094905 
L 514.352856 244.681782 
L 514.555213 245.176561 
L 514.75757 236.270543 
L 516.174071 139.355759 
L 516.376428 138.263122 
L 516.781142 147.602071 
L 516.9835 144.860172 
L 517.185857 145.396182 
L 517.590571 163.125754 
L 517.792928 167.372605 
L 517.995286 178.09281 
L 518.4 217.81942 
L 518.4 217.81942 
" clip-path="url(#p77fb2b3231)" style="fill: none; stroke: #1f77b4; stroke-width: 1.5; stroke-linecap: square"/>
   </g>
   <g id="line2d_14">
    <path d="M 72 280.19404 
L 72.202357 280.19404 
L 72.607072 289.035405 
L 72.809429 288.837062 
L 73.011786 281.412697 
L 73.618858 243.842933 
L 74.023572 226.101098 
L 75.035358 164.154711 
L 75.237715 160.896684 
L 75.440073 161.326591 
L 75.64243 167.643395 
L 76.249501 204.973553 
L 76.856573 258.308239 
L 77.261287 276.619476 
L 77.463645 276.287685 
L 77.666002 268.879045 
L 78.273073 229.473535 
L 78.475431 225.858686 
L 78.880145 210.727438 
L 79.689574 154.726703 
L 79.891931 148.950621 
L 80.094288 150.542769 
L 80.499003 170.131353 
L 80.903717 194.392111 
L 81.510789 251.933923 
L 81.915503 275.126371 
L 82.11786 279.881368 
L 82.320218 281.038499 
L 82.724932 271.214004 
L 83.129646 259.445651 
L 83.534361 237.368878 
L 83.939075 227.194054 
L 84.141432 226.576727 
L 84.34379 228.855749 
L 85.355576 247.898729 
L 85.557933 250.14583 
L 85.76029 253.722967 
L 86.165005 275.194335 
L 86.569719 297.125974 
L 86.974433 307.8 
L 87.176791 306.660716 
L 87.581505 295.214422 
L 88.188577 269.085316 
L 88.390934 260.606903 
L 88.593291 257.140988 
L 88.795648 256.611594 
L 88.998005 256.487508 
L 89.200363 256.871407 
L 89.40272 255.322605 
L 89.605077 252.003715 
L 90.009791 238.861783 
L 90.212149 236.697601 
L 90.414506 237.950306 
L 90.616863 240.256168 
L 90.81922 249.831504 
L 91.426292 299.394898 
L 91.628649 304.578381 
L 91.831006 304.857381 
L 92.033364 300.421256 
L 92.235721 291.994412 
L 92.842792 248.119122 
L 93.04515 246.998155 
L 93.247507 246.705315 
L 93.449864 245.022797 
L 94.664007 226.653998 
L 94.866364 226.682284 
L 95.068722 228.779907 
L 95.473436 237.266692 
L 95.87815 270.428924 
L 96.282865 297.902369 
L 96.485222 300.92646 
L 96.687579 298.615685 
L 96.889937 294.176993 
L 97.092294 284.192311 
L 97.497008 252.499876 
L 97.699365 246.266929 
L 97.901723 247.37234 
L 98.306437 242.627313 
L 99.115866 228.744055 
L 99.52058 222.746986 
L 99.722937 223.804169 
L 99.925295 226.186566 
L 100.127652 230.0801 
L 100.330009 238.080948 
L 101.139438 294.77886 
L 101.341795 300.048767 
L 101.544152 299.418125 
L 101.74651 295.081513 
L 101.948867 285.665972 
L 102.555938 247.654704 
L 102.758296 248.721409 
L 103.365367 242.756784 
L 103.770082 232.208285 
L 104.174796 219.927141 
L 104.377153 217.178655 
L 104.57951 218.753706 
L 104.781868 221.271233 
L 104.984225 225.647917 
L 105.388939 249.677473 
L 105.793654 281.5071 
L 106.198368 297.68621 
L 106.400725 297.092678 
L 106.603083 293.753936 
L 106.80544 284.785956 
L 107.412511 245.900821 
L 107.614869 245.124119 
L 108.019583 240.713744 
L 108.22194 236.211346 
L 109.031369 196.762541 
L 109.233726 197.924322 
L 109.638441 211.694985 
L 109.840798 216.443407 
L 110.447869 261.752011 
L 110.852584 285.942636 
L 111.054941 292.931051 
L 111.257298 293.430299 
L 111.459655 290.556959 
L 111.662013 283.521209 
L 112.269084 244.802041 
L 112.471442 240.56367 
L 112.876156 221.332362 
L 113.685585 183.021342 
L 113.887942 177.15533 
L 114.090299 175.068981 
L 114.292656 178.338224 
L 114.697371 194.872992 
L 115.102085 226.085183 
L 115.5068 260.063042 
L 115.911514 279.492221 
L 116.316228 284.00318 
L 116.720943 272.552114 
L 117.125657 257.392654 
L 117.530372 229.068201 
L 118.339801 168.177224 
L 118.744515 149.48517 
L 118.946872 144.502661 
L 119.149229 146.078915 
L 119.351587 152.642151 
L 119.756301 179.038523 
L 120.768087 266.959365 
L 121.172801 279.043766 
L 121.375159 278.073035 
L 121.577516 275.434033 
L 121.779873 269.103815 
L 121.98223 258.977989 
L 122.589302 215.228596 
L 122.994016 202.202825 
L 123.601088 191.92957 
L 123.803445 193.462463 
L 124.005802 196.639496 
L 124.612874 220.433944 
L 125.017588 252.862865 
L 125.422303 285.393365 
L 125.62466 293.310804 
L 125.827017 295.755802 
L 126.029374 294.082396 
L 126.231732 286.384454 
L 127.04116 225.090772 
L 127.445875 208.353583 
L 128.660018 150.476027 
L 128.862375 155.841627 
L 129.469447 202.316926 
L 130.076519 267.577714 
L 130.278876 278.200841 
L 130.481233 282.309108 
L 130.68359 282.675672 
L 131.088305 271.812365 
L 133.111877 140.814162 
L 133.314234 134.032607 
L 133.516591 132.382252 
L 134.123663 161.268703 
L 134.32602 172.78117 
L 135.135449 257.800042 
L 135.337806 266.679319 
L 135.540163 270.405866 
L 135.74252 268.743625 
L 135.944878 261.043692 
L 136.551949 212.563935 
L 136.956664 193.930836 
L 137.159021 197.872699 
L 137.361378 194.560279 
L 137.563735 193.15895 
L 137.766092 193.39692 
L 138.170807 191.533663 
L 138.575521 195.266995 
L 138.980236 204.237455 
L 139.182593 213.743617 
L 139.992022 278.191454 
L 140.194379 283.255127 
L 140.396736 285.200139 
L 140.599093 281.159716 
L 140.801451 271.915535 
L 141.408522 227.872832 
L 141.813237 215.999067 
L 142.015594 212.004506 
L 142.217951 211.115377 
L 142.420308 211.536379 
L 143.02738 203.423498 
L 143.836809 214.273487 
L 144.039166 222.663645 
L 144.848595 277.590263 
L 145.050952 282.218713 
L 145.253309 282.844182 
L 145.455666 277.992146 
L 145.658024 269.652159 
L 146.265095 223.945485 
L 146.872167 211.874458 
L 147.276881 210.055942 
L 147.681596 201.265548 
L 148.08631 212.462333 
L 148.895739 234.041381 
L 149.705168 278.752197 
L 149.907525 284.668915 
L 150.109882 285.506123 
L 150.312239 282.788499 
L 150.716954 269.737789 
L 151.121668 255.596965 
L 151.931097 229.446446 
L 152.335811 228.155878 
L 152.740526 234.611352 
L 152.942883 234.710783 
L 153.14524 234.2932 
L 153.347597 234.230014 
L 153.549955 235.294158 
L 153.752312 238.491605 
L 154.157026 254.952521 
L 154.561741 277.057292 
L 154.764098 283.988238 
L 155.168812 287.233535 
L 155.37117 284.104715 
L 155.978241 261.249462 
L 157.192384 179.742527 
L 157.799456 159.506798 
L 158.001813 156.383464 
L 158.20417 160.163679 
L 158.608885 183.656327 
L 159.013599 223.038672 
L 159.418314 262.442419 
L 159.620671 271.347828 
L 159.823028 275.282688 
L 160.025385 272.996793 
L 160.227743 265.922167 
L 160.632457 234.287044 
L 161.037171 207.891882 
L 161.441886 189.897021 
L 161.8466 181.292853 
L 162.453672 169.001374 
L 162.656029 173.149594 
L 163.060743 189.717139 
L 163.667815 227.284596 
L 164.274887 277.013112 
L 164.477244 283.69285 
L 164.679601 285.622086 
L 164.881958 280.835653 
L 165.084316 270.881857 
L 165.691387 224.831754 
L 166.703173 200.536225 
L 167.310245 164.973708 
L 167.512602 164.109185 
L 168.322031 204.436319 
L 169.13146 270.075697 
L 169.333817 275.901545 
L 169.536174 277.466045 
L 169.738531 275.59506 
L 169.940888 267.363421 
L 171.357389 170.765439 
L 171.964461 155.065113 
L 172.166818 151.42251 
L 172.369175 151.541392 
L 172.976247 178.00582 
L 173.380961 212.303591 
L 173.785675 257.129096 
L 174.19039 280.010745 
L 174.392747 283.026074 
L 174.595104 280.587519 
L 174.797461 272.260307 
L 175.60689 218.533365 
L 176.011605 201.66805 
L 176.416319 183.984774 
L 177.225748 160.695166 
L 177.630462 174.014249 
L 178.035177 197.877139 
L 178.844606 278.661389 
L 179.046963 286.338533 
L 179.24932 287.65016 
L 179.451677 285.819359 
L 179.856392 264.731508 
L 180.261106 234.83309 
L 180.66582 212.75086 
L 181.475249 163.908331 
L 181.879964 148.103732 
L 182.082321 146.243386 
L 182.284678 149.840199 
L 182.689393 169.548917 
L 183.094107 205.284113 
L 183.498821 243.058304 
L 183.903536 261.221439 
L 184.105893 264.041381 
L 184.30825 264.880849 
L 184.712965 258.712334 
L 184.915322 251.858889 
L 185.117679 238.213914 
L 185.927108 153.029431 
L 186.129465 143.317431 
L 186.331822 140.882783 
L 186.53418 140.845442 
L 186.736537 142.517634 
L 186.938894 147.873978 
L 187.95068 202.864043 
L 188.557752 250.686202 
L 188.962466 265.474695 
L 189.164823 267.932969 
L 189.36718 264.930552 
L 189.771895 250.901629 
L 191.188395 154.386101 
L 191.390752 151.467379 
L 191.59311 153.818883 
L 191.997824 167.503416 
L 192.807253 207.308709 
L 193.414325 257.565372 
L 193.819039 270.7696 
L 194.021396 272.09645 
L 194.426111 260.613898 
L 194.628468 253.985104 
L 195.033182 228.240402 
L 195.640254 185.687152 
L 195.842611 183.457893 
L 196.044968 187.738618 
L 196.65204 206.297469 
L 196.854397 206.511198 
L 197.259112 214.456865 
L 197.461469 219.101061 
L 197.866183 245.38184 
L 198.270898 278.510044 
L 198.473255 284.88999 
L 198.675612 287.393829 
L 198.877969 283.148926 
L 199.080326 272.610202 
L 199.889755 208.326175 
L 201.103898 170.621985 
L 201.306256 164.223865 
L 201.508613 162.224297 
L 201.71097 165.010693 
L 202.318042 194.368806 
L 203.329828 269.323362 
L 203.532185 269.243713 
L 203.734542 263.489586 
L 204.139257 238.679265 
L 204.543971 209.472659 
L 205.960471 162.932422 
L 206.162829 161.870019 
L 206.365186 167.260624 
L 206.7699 183.827316 
L 207.174615 195.92035 
L 208.186401 267.634086 
L 208.388758 270.144068 
L 208.591115 267.502843 
L 208.793472 258.137738 
L 209.400544 208.660079 
L 210.41233 172.353085 
L 211.221759 134.10679 
L 211.424116 141.708813 
L 212.435902 219.629141 
L 212.840617 249.777111 
L 213.042974 258.016583 
L 213.245331 260.702051 
L 213.447688 259.12817 
L 213.650045 252.609672 
L 215.066546 152.754983 
L 215.875975 111.14863 
L 216.078332 111.629217 
L 216.685403 139.650468 
L 217.090118 171.409708 
L 217.697189 231.506666 
L 218.101904 248.021419 
L 218.304261 250.67349 
L 218.506618 248.060351 
L 218.911333 235.98488 
L 219.518404 189.759711 
L 219.923119 157.317373 
L 220.125476 149.735188 
L 220.327833 146.733554 
L 220.53019 148.016544 
L 220.732548 150.804805 
L 221.137262 175.081799 
L 221.541976 198.517132 
L 221.744334 204.394551 
L 221.946691 214.046461 
L 222.553762 261.566637 
L 222.958477 274.610051 
L 223.160834 276.5678 
L 223.363191 273.411727 
L 223.767906 259.779677 
L 224.577335 211.467136 
L 224.779692 210.268068 
L 226.398549 233.677371 
L 226.600907 236.616643 
L 226.803264 245.031169 
L 227.612693 298.40922 
L 227.81505 300.172383 
L 228.017407 297.548003 
L 228.219764 288.672134 
L 228.826836 243.854907 
L 229.029193 239.595808 
L 229.23155 239.385448 
L 229.433908 236.590642 
L 229.838622 224.633901 
L 230.445694 191.515087 
L 230.648051 186.251675 
L 230.850408 184.340858 
L 231.052765 187.834787 
L 231.255122 194.975147 
L 231.659837 223.194793 
L 232.266908 280.97991 
L 232.469266 287.328257 
L 232.671623 287.763111 
L 233.076337 276.188792 
L 233.683409 239.11926 
L 234.088123 223.273597 
L 234.897552 188.147927 
L 235.302267 176.730151 
L 235.504624 175.972774 
L 235.909338 189.449617 
L 236.314053 208.37259 
L 237.123481 275.819046 
L 237.325839 283.541536 
L 237.528196 285.092429 
L 237.730553 283.623884 
L 237.93291 275.833243 
L 238.539982 234.496885 
L 238.944696 218.430646 
L 239.349411 203.876274 
L 239.754125 194.642096 
L 240.15884 190.915873 
L 240.361197 190.446652 
L 240.765911 198.945013 
L 240.968268 206.778385 
L 241.57534 255.640964 
L 241.980054 281.348027 
L 242.182412 287.660943 
L 242.384769 289.425572 
L 242.587126 287.650604 
L 242.789483 279.91105 
L 243.396555 239.482155 
L 243.598912 234.687826 
L 245.015413 180.126312 
L 245.21777 176.833352 
L 245.420127 180.003604 
L 245.824841 192.776429 
L 246.229556 221.596095 
L 246.63427 260.610472 
L 247.038985 281.34164 
L 247.241342 285.175415 
L 247.443699 283.792344 
L 247.646056 276.385338 
L 249.062557 176.452516 
L 249.467271 151.73522 
L 249.871985 137.705275 
L 250.074343 140.228746 
L 250.479057 159.012992 
L 250.883772 183.774188 
L 251.895558 260.958589 
L 252.097915 266.010652 
L 252.300272 266.978965 
L 252.502629 264.154364 
L 252.907344 250.172018 
L 253.312058 217.69222 
L 254.121487 146.543728 
L 254.323844 142.743474 
L 254.728558 140.501521 
L 254.930916 141.509055 
L 255.133273 144.978069 
L 255.740345 179.69314 
L 256.752131 264.9615 
L 256.954488 271.199533 
L 257.156845 272.220379 
L 257.359202 270.630154 
L 257.763917 259.806868 
L 258.168631 227.862677 
L 258.775703 180.237085 
L 259.180417 167.112341 
L 259.382774 163.717734 
L 259.585131 162.2095 
L 259.787489 161.718599 
L 259.989846 164.355716 
L 260.39456 180.199662 
L 260.596917 190.112738 
L 261.001632 227.970211 
L 261.406346 267.886153 
L 261.811061 279.668791 
L 262.013418 277.475777 
L 262.215775 271.063035 
L 263.025204 216.922243 
L 263.227561 213.647547 
L 263.429918 214.686942 
L 263.632276 216.388743 
L 263.834633 221.551113 
L 264.03699 223.332094 
L 264.644062 225.329977 
L 264.846419 224.831328 
L 265.048776 227.918839 
L 265.655848 251.670584 
L 266.262919 289.679723 
L 266.465277 293.472463 
L 266.667634 293.503166 
L 266.869991 289.620846 
L 267.274705 268.802897 
L 267.67942 243.932953 
L 268.084134 235.179296 
L 268.488849 224.852028 
L 268.691206 220.917769 
L 269.09592 211.348306 
L 269.298277 208.552032 
L 269.500635 208.82716 
L 269.905349 214.539896 
L 270.310063 225.187687 
L 270.714778 252.014812 
L 271.119492 276.153937 
L 271.32185 281.375719 
L 271.524207 282.394894 
L 271.726564 279.502266 
L 271.928921 272.668221 
L 272.535993 231.667117 
L 272.73835 225.994111 
L 274.15485 147.36833 
L 274.357208 142.262887 
L 274.559565 142.456389 
L 274.761922 147.768059 
L 275.166636 167.140245 
L 276.178422 251.553512 
L 276.38078 254.143782 
L 276.583137 252.551884 
L 276.785494 247.303538 
L 277.594923 190.918055 
L 278.404352 148.966634 
L 278.606709 141.899929 
L 279.213781 133.628463 
L 279.820852 156.718399 
L 280.225567 192.438024 
L 280.832638 257.350453 
L 281.034995 266.346106 
L 281.237353 269.497626 
L 281.43971 268.785569 
L 281.642067 263.100916 
L 282.85621 182.910266 
L 283.260925 167.546607 
L 283.463282 163.926529 
L 283.867996 151.773144 
L 284.070354 149.203577 
L 284.272711 154.667544 
L 284.879782 194.360649 
L 285.891568 277.084921 
L 286.093926 280.513525 
L 286.296283 281.421032 
L 286.49864 279.608949 
L 286.903354 266.059497 
L 287.308069 235.911812 
L 287.915141 184.088623 
L 288.319855 167.33448 
L 288.724569 155.291009 
L 288.926927 151.416711 
L 289.129284 154.191584 
L 289.533998 173.53442 
L 289.938713 204.159494 
L 290.545784 257.266746 
L 290.950499 271.438054 
L 291.152856 273.377304 
L 291.355213 271.850339 
L 291.759927 260.089951 
L 292.164642 222.993919 
L 292.771714 162.827818 
L 293.176428 139.611667 
L 293.581142 131.248422 
L 293.7835 130.092493 
L 293.985857 133.379327 
L 294.592928 165.701477 
L 294.795286 177.448414 
L 295.604714 250.931086 
L 295.807072 255.928267 
L 296.009429 256.339338 
L 296.211786 251.110448 
L 296.818858 196.371703 
L 297.628286 117.842432 
L 298.235358 83.879063 
L 298.437715 81.177357 
L 298.640073 84.17261 
L 299.044787 99.853035 
L 299.449501 126.196835 
L 299.854216 170.989814 
L 300.25893 213.348511 
L 300.461287 223.766333 
L 300.663645 226.325252 
L 300.866002 223.882105 
L 301.068359 216.461318 
L 301.675431 173.296149 
L 302.687217 72.099419 
L 302.889574 66.121738 
L 303.091931 69.019112 
L 304.306074 143.750751 
L 305.31786 233.487485 
L 305.520218 238.305057 
L 305.722575 237.039179 
L 305.924932 228.844986 
L 307.54379 122.520904 
L 307.948504 112.46598 
L 308.150861 113.134521 
L 308.96029 158.368817 
L 309.365005 187.65291 
L 309.972076 246.751699 
L 310.174433 255.782602 
L 310.376791 257.113472 
L 310.579148 253.811653 
L 310.781505 247.642273 
L 311.186219 218.007342 
L 312.198005 131.188894 
L 312.400363 120.205865 
L 312.60272 115.757429 
L 312.805077 115.870562 
L 313.007434 117.461314 
L 313.412149 132.08687 
L 314.221578 181.032435 
L 314.828649 236.548216 
L 315.031006 244.454338 
L 315.233364 247.010641 
L 315.435721 245.499877 
L 315.638078 236.901987 
L 316.24515 197.597846 
L 316.447507 191.125947 
L 316.649864 188.407126 
L 317.256936 177.172927 
L 317.66165 173.366442 
L 317.864007 174.537532 
L 318.471079 186.807221 
L 318.875793 200.724516 
L 319.280508 232.415824 
L 319.685222 260.909042 
L 319.887579 268.159235 
L 320.089937 271.348604 
L 320.292294 270.388056 
L 320.494651 266.013533 
L 321.101723 242.68837 
L 321.708794 202.42881 
L 322.113509 174.201107 
L 322.518223 158.486152 
L 322.72058 154.586949 
L 322.922937 153.443782 
L 323.125295 155.384798 
L 323.530009 171.545717 
L 324.137081 215.707047 
L 324.541795 247.303982 
L 324.94651 262.297055 
L 325.148867 264.423244 
L 325.351224 263.014829 
L 325.755938 251.467519 
L 326.160653 219.006134 
L 327.172439 131.728571 
L 327.374796 128.099532 
L 327.77951 131.784612 
L 327.981868 134.780171 
L 328.386582 153.691209 
L 328.993654 208.015415 
L 329.398368 247.804865 
L 329.600725 259.031857 
L 329.803083 262.993168 
L 330.00544 260.722315 
L 330.207797 255.62321 
L 330.612511 226.134272 
L 331.219583 170.735305 
L 331.624297 150.91626 
L 332.029012 139.64621 
L 332.231369 138.338685 
L 332.636083 145.593143 
L 333.040798 161.915032 
L 333.850227 222.586603 
L 334.254941 259.645641 
L 334.457298 268.307969 
L 334.659655 270.738903 
L 334.862013 269.599181 
L 335.06437 261.803217 
L 335.873799 208.035249 
L 336.076156 202.58763 
L 336.48087 185.466651 
L 336.683228 177.529334 
L 336.885585 175.219587 
L 337.087942 176.774093 
L 337.290299 174.998806 
L 337.492656 175.911492 
L 338.099728 194.200127 
L 338.504442 217.160192 
L 339.111514 268.031311 
L 339.313871 274.498935 
L 339.516228 276.292426 
L 339.718586 274.072553 
L 340.1233 248.693535 
L 340.528015 220.358504 
L 340.932729 204.425039 
L 341.337443 183.523255 
L 341.539801 177.959323 
L 342.146872 152.287697 
L 342.349229 148.377867 
L 342.551587 150.0906 
L 342.753944 155.194665 
L 343.158658 172.252432 
L 343.361015 186.214177 
L 343.968087 240.99349 
L 344.170444 249.235787 
L 344.372801 250.17307 
L 344.575159 248.097122 
L 344.777516 240.386725 
L 345.586945 183.07959 
L 346.396374 116.943517 
L 346.598731 110.573677 
L 346.801088 107.838337 
L 347.003445 108.335782 
L 347.205802 110.920597 
L 347.812874 132.387619 
L 348.217588 163.127164 
L 348.82466 226.593967 
L 349.229374 243.678312 
L 349.431732 244.733501 
L 349.634089 237.25066 
L 350.443518 177.138209 
L 351.050589 127.313694 
L 351.455304 111.044946 
L 351.657661 106.185276 
L 351.860018 104.272058 
L 352.062375 104.508908 
L 352.264733 109.831862 
L 352.669447 130.461788 
L 353.276519 192.327334 
L 353.681233 235.170717 
L 353.88359 244.698708 
L 354.085947 248.749457 
L 354.288305 249.971753 
L 354.490662 248.77232 
L 354.895376 236.922383 
L 355.300091 198.251475 
L 355.907162 122.750139 
L 356.109519 111.276091 
L 356.311877 107.790957 
L 356.918948 104.498725 
L 357.121306 108.092621 
L 357.52602 131.040843 
L 358.133092 185.564535 
L 358.537806 229.873172 
L 358.94252 247.051202 
L 359.144878 248.977596 
L 359.347235 247.692152 
L 359.751949 234.411781 
L 359.954306 219.331514 
L 360.966092 104.130971 
L 361.370807 94.03578 
L 361.775521 90.040777 
L 361.977879 92.732113 
L 362.382593 114.425331 
L 362.989665 168.322031 
L 363.596736 228.580854 
L 363.799093 233.087568 
L 364.001451 232.14039 
L 364.203808 225.233376 
L 364.810879 176.864238 
L 365.620308 78.558463 
L 366.025023 59.853114 
L 366.22738 56.466761 
L 366.429737 56.421423 
L 366.632094 59.166425 
L 367.036809 74.803541 
L 367.441523 106.170397 
L 368.655666 212.681293 
L 368.858024 212.321044 
L 369.060381 206.323505 
L 369.465095 183.456218 
L 370.072167 120.625008 
L 370.476881 77.809365 
L 370.881596 62.062497 
L 371.083953 59.37914 
L 371.28631 62.759694 
L 371.691024 78.706602 
L 372.095739 104.740822 
L 372.905168 180.394103 
L 373.309882 212.230279 
L 373.512239 218.737519 
L 373.714597 219.629313 
L 373.916954 217.479804 
L 374.524025 192.286146 
L 374.92874 149.53471 
L 375.333454 101.698428 
L 375.535811 92.763812 
L 375.738169 90.73974 
L 375.940526 90.470515 
L 376.34524 95.655 
L 376.547597 104.061385 
L 378.368812 234.739126 
L 378.57117 234.108872 
L 378.773527 229.677699 
L 379.178241 201.758454 
L 379.582956 161.809357 
L 379.98767 118.051389 
L 380.392384 99.113819 
L 380.797099 90.572013 
L 380.999456 88.38178 
L 381.201813 87.922785 
L 381.40417 90.475225 
L 381.808885 114.273109 
L 382.618314 185.18254 
L 383.023028 216.515555 
L 383.225385 220.39917 
L 383.427743 218.348356 
L 383.6301 210.762272 
L 384.237171 175.056268 
L 384.237171 175.056268 
" clip-path="url(#p77fb2b3231)" style="fill: none; stroke: #ff7f0e; stroke-width: 1.5; stroke-linecap: square"/>
   </g>
   <g id="line2d_15">
    <path d="M 384.439529 161.650359 
L 385.248957 107.799837 
L 385.653672 95.92703 
L 385.856029 94.640484 
L 386.058386 98.219387 
L 386.463101 119.815316 
L 387.677244 210.136882 
L 387.879601 218.461473 
L 388.081958 220.580848 
L 388.284316 218.371449 
L 388.486673 213.611716 
L 388.891387 191.967458 
L 390.10553 109.836433 
L 390.307888 104.421876 
L 390.510245 102.539806 
L 390.712602 104.309845 
L 390.914959 110.167617 
L 391.319674 133.762042 
L 392.33146 200.072737 
L 392.736174 215.960714 
L 392.938531 217.905886 
L 393.140888 216.208133 
L 393.343246 210.673059 
L 393.950317 176.102878 
L 394.759746 129.049347 
L 395.164461 118.932777 
L 395.366818 119.553143 
L 395.569175 124.085706 
L 395.973889 141.951217 
L 397.188033 209.284311 
L 397.592747 220.650329 
L 397.795104 221.357217 
L 397.997461 218.94929 
L 398.402176 204.151303 
L 399.413962 152.482232 
L 399.818676 142.066917 
L 400.021034 141.444078 
L 400.223391 144.070173 
L 400.628105 157.39701 
L 402.044606 220.322872 
L 402.44932 228.350742 
L 402.651677 228.469072 
L 402.854034 225.789598 
L 403.258749 212.01078 
L 404.068178 178.979749 
L 404.472892 170.878328 
L 404.675249 170.090786 
L 404.877607 171.682546 
L 405.282321 180.368331 
L 407.103536 237.401129 
L 407.305893 239.13511 
L 407.50825 238.555987 
L 407.710607 235.762834 
L 408.115322 223.663556 
L 408.520036 211.026229 
L 408.924751 204.447261 
L 409.127108 203.074305 
L 409.329465 202.774642 
L 409.73418 204.904443 
L 410.138894 209.031374 
L 410.543608 215.62657 
L 411.15068 230.091809 
L 411.757752 245.665738 
L 411.960109 248.038909 
L 412.162466 248.258625 
L 412.364823 246.486169 
L 412.769538 236.595251 
L 413.376609 220.556739 
L 413.781324 217.008789 
L 413.983681 216.533335 
L 414.186038 216.610314 
L 414.590752 218.485966 
L 415.197824 221.95767 
L 415.602539 227.451415 
L 416.20961 241.315393 
L 416.614325 248.773028 
L 416.816682 249.763979 
L 417.019039 248.63092 
L 417.221396 245.761763 
L 418.435539 219.792309 
L 418.637897 219.195592 
L 418.840254 219.453894 
L 420.054397 225.278367 
L 420.459112 230.247295 
L 421.470898 248.427266 
L 421.673255 248.212366 
L 421.875612 246.145091 
L 422.280326 237.594825 
L 422.887398 223.166047 
L 423.292112 219.185322 
L 423.49447 219.055901 
L 423.696827 219.753211 
L 424.506256 224.460192 
L 424.708613 225.361459 
L 425.113327 228.891682 
L 425.518042 235.496615 
L 426.125113 245.982468 
L 426.327471 246.89821 
L 426.529828 245.779234 
L 426.934542 238.813583 
L 427.743971 221.08956 
L 427.946328 219.084474 
L 428.148685 218.209765 
L 428.351043 218.521614 
L 428.755757 221.04719 
L 429.362829 225.007021 
L 429.767543 227.794652 
L 430.172257 232.977998 
L 430.779329 243.042679 
L 430.981686 244.821272 
L 431.184044 244.860223 
L 431.386401 243.058779 
L 431.791115 235.463494 
L 432.398187 222.168107 
L 432.802901 218.072707 
L 433.005258 217.839719 
L 433.207616 218.541753 
L 434.421759 227.148807 
L 434.826473 231.247234 
L 435.635902 242.566833 
L 435.838259 243.529178 
L 436.040617 242.795942 
L 436.445331 236.839928 
L 437.25476 220.694653 
L 437.457117 218.743151 
L 437.659474 217.944227 
L 437.861831 218.247442 
L 438.266546 221.121072 
L 438.873617 225.693758 
L 439.278332 228.254722 
L 439.683046 232.311617 
L 440.492475 241.965047 
L 440.694832 242.161843 
L 440.897189 240.75443 
L 441.301904 234.236261 
L 441.908976 222.329157 
L 442.31369 218.645873 
L 442.516047 218.522552 
L 442.718404 219.367069 
L 443.73019 226.747289 
L 444.134905 229.260062 
L 444.539619 233.201164 
L 445.146691 240.255964 
L 445.349048 241.184919 
L 445.551405 240.687418 
L 445.753762 238.719424 
L 446.360834 227.816167 
L 446.765549 221.361289 
L 446.967906 219.659882 
L 447.170263 219.051574 
L 447.37262 219.508191 
L 447.777335 222.58724 
L 448.182049 225.702513 
L 448.991478 230.026331 
L 449.396192 233.858872 
L 450.003264 239.902472 
L 450.205621 240.179171 
L 450.407978 239.068079 
L 450.812693 233.438546 
L 451.419764 222.90516 
L 451.824479 219.778812 
L 452.026836 219.796035 
L 452.229193 220.784778 
L 453.038622 226.683451 
L 453.645694 229.261659 
L 454.050408 232.27762 
L 454.65748 238.413158 
L 454.859837 239.321098 
L 455.062194 238.989971 
L 455.264551 237.35006 
L 455.669266 231.35251 
L 456.276337 222.068507 
L 456.478694 220.655221 
L 456.681052 220.199108 
L 456.883409 220.790834 
L 457.895195 227.316058 
L 458.299909 228.698633 
L 458.704624 230.966086 
L 459.514053 238.171262 
L 459.71641 238.52182 
L 459.918767 237.640878 
L 460.323481 232.731893 
L 460.930553 223.40978 
L 461.335267 220.764259 
L 461.537625 220.895203 
L 461.942339 223.448296 
L 462.347053 226.327912 
L 462.751768 227.765914 
L 463.156482 229.000486 
L 463.561197 231.360306 
L 464.370626 237.755955 
L 464.572983 237.562487 
L 464.77534 236.182083 
L 465.180054 230.892592 
L 465.787126 222.643699 
L 465.989483 221.455302 
L 466.19184 221.196556 
L 466.394198 221.865732 
L 467.203626 227.1797 
L 468.013055 229.271178 
L 468.41777 231.78918 
L 469.024841 236.769322 
L 469.227199 237.185477 
L 469.429556 236.47548 
L 469.83427 232.150916 
L 470.441342 223.845805 
L 470.643699 222.26813 
L 470.846056 221.646787 
L 471.048413 221.928188 
L 471.453128 224.474396 
L 471.857842 227.074725 
L 472.262557 228.064577 
L 472.667271 228.788429 
L 472.869628 229.489741 
L 473.274343 232.223633 
L 473.679057 235.621365 
L 473.881414 236.5369 
L 474.083772 236.443436 
L 474.286129 235.254374 
L 474.690843 230.538039 
L 475.297915 223.178058 
L 475.500272 222.187426 
L 475.702629 222.109959 
L 475.904986 222.856974 
L 476.714415 227.746798 
L 477.11913 228.273722 
L 477.321487 228.498707 
L 477.523844 228.938097 
L 477.726201 229.712891 
L 478.130916 232.676272 
L 478.53563 235.667004 
L 478.737987 236.126947 
L 478.940345 235.544346 
L 479.345059 231.687632 
L 479.952131 224.223523 
L 480.154488 222.860042 
L 480.356845 222.400967 
L 480.559202 222.825639 
L 480.963917 225.341658 
L 481.368631 227.708359 
L 481.570988 228.183339 
L 482.17806 228.589004 
L 482.380417 229.078959 
L 482.785131 231.445954 
L 483.392203 235.568199 
L 483.59456 235.551046 
L 483.796917 234.504133 
L 484.201632 230.242246 
L 484.808704 223.621875 
L 485.011061 222.79628 
L 485.213418 222.877772 
L 485.415775 223.695205 
L 486.225204 228.231695 
L 486.427561 228.402368 
L 486.832276 228.413255 
L 487.034633 228.658336 
L 487.23699 229.239802 
L 487.641704 231.917208 
L 488.046419 234.795811 
L 488.248776 235.287858 
L 488.451133 234.800658 
L 488.855848 231.308522 
L 489.462919 224.532752 
L 489.665277 223.346719 
L 489.867634 223.043019 
L 490.069991 223.572658 
L 491.081777 228.534294 
L 491.688849 228.4142 
L 491.891206 228.736385 
L 492.093563 229.512508 
L 492.902992 234.7999 
L 493.105349 234.839966 
L 493.307706 233.912771 
L 493.712421 229.996223 
L 494.319492 223.993098 
L 494.52185 223.332108 
L 494.724207 223.531563 
L 495.128921 225.741847 
L 495.533636 228.15131 
L 495.735993 228.652733 
L 495.93835 228.656922 
L 496.343064 228.34081 
L 496.545422 228.423791 
L 496.747779 228.856181 
L 497.152493 231.314252 
L 497.557208 234.108292 
L 497.759565 234.624502 
L 497.961922 234.209606 
L 498.366636 230.999044 
L 498.973708 224.811336 
L 499.176065 223.779355 
L 499.378422 223.617651 
L 499.58078 224.253852 
L 500.390209 228.719644 
L 500.592566 228.857484 
L 501.199637 228.276995 
L 501.401995 228.458736 
L 501.604352 229.114748 
L 502.413781 234.197476 
L 502.616138 234.277 
L 502.818495 233.441276 
L 503.223209 229.7969 
L 503.830281 224.342657 
L 504.032638 223.842943 
L 504.234995 224.151011 
L 504.63971 226.437069 
L 505.044424 228.683189 
L 505.246782 229.033148 
L 505.449139 228.880417 
L 505.853853 228.27499 
L 506.05621 228.223341 
L 506.258568 228.548959 
L 506.663282 230.840763 
L 507.067996 233.568455 
L 507.270354 234.097738 
L 507.472711 233.731073 
L 507.877425 230.73718 
L 508.484497 225.058097 
L 508.686854 224.191045 
L 508.889211 224.177389 
L 509.091568 224.898442 
L 509.900997 229.145052 
L 510.103354 229.13048 
L 510.710426 228.144893 
L 510.912783 228.217432 
L 511.115141 228.782384 
L 511.924569 233.707079 
L 512.126927 233.80682 
L 512.329284 233.035679 
L 512.733998 229.615302 
L 513.34107 224.655548 
L 513.543427 224.303076 
L 513.745784 224.735041 
L 514.75757 229.342611 
L 515.162285 228.601165 
L 515.364642 228.187635 
L 515.566999 228.031975 
L 515.769356 228.27982 
L 516.174071 230.450626 
L 516.578785 233.120523 
L 516.781142 233.649169 
L 516.9835 233.3123 
L 517.388214 230.488846 
L 517.995286 225.268125 
L 518.197643 224.551572 
L 518.4 224.675809 
L 518.4 224.675809 
" clip-path="url(#p77fb2b3231)" style="fill: none; stroke: #2ca02c; stroke-width: 1.5; stroke-linecap: square"/>
   </g>
   <g id="patch_3">
    <path d="M 72 320.4 
L 72 43.2 
" style="fill: none; stroke: #000000; stroke-width: 0.8; stroke-linejoin: miter; stroke-linecap: square"/>
   </g>
   <g id="patch_4">
    <path d="M 518.4 320.4 
L 518.4 43.2 
" style="fill: none; stroke: #000000; stroke-width: 0.8; stroke-linejoin: miter; stroke-linecap: square"/>
   </g>
   <g id="patch_5">
    <path d="M 72 320.4 
L 518.4 320.4 
" style="fill: none; stroke: #000000; stroke-width: 0.8; stroke-linejoin: miter; stroke-linecap: square"/>
   </g>
   <g id="patch_6">
    <path d="M 72 43.2 
L 518.4 43.2 
" style="fill: none; stroke: #000000; stroke-width: 0.8; stroke-linejoin: miter; stroke-linecap: square"/>
   </g>
   <g id="text_13">
    <!-- Classic Transformer - model_20231123170020 -->
    <g transform="translate(155.436563 37.2) scale(0.12 -0.12)">
     <defs>
      <path id="DejaVuSans-43" d="M 4122 4306 
L 4122 3641 
Q 3803 3938 3442 4084 
Q 3081 4231 2675 4231 
Q 1875 4231 1450 3742 
Q 1025 3253 1025 2328 
Q 1025 1406 1450 917 
Q 1875 428 2675 428 
Q 3081 428 3442 575 
Q 3803 722 4122 1019 
L 4122 359 
Q 3791 134 3420 21 
Q 3050 -91 2638 -91 
Q 1578 -91 968 557 
Q 359 1206 359 2328 
Q 359 3453 968 4101 
Q 1578 4750 2638 4750 
Q 3056 4750 3426 4639 
Q 3797 4528 4122 4306 
z
" transform="scale(0.015625)"/>
      <path id="DejaVuSans-6c" d="M 603 4863 
L 1178 4863 
L 1178 0 
L 603 0 
L 603 4863 
z
" transform="scale(0.015625)"/>
      <path id="DejaVuSans-61" d="M 2194 1759 
Q 1497 1759 1228 1600 
Q 959 1441 959 1056 
Q 959 750 1161 570 
Q 1363 391 1709 391 
Q 2188 391 2477 730 
Q 2766 1069 2766 1631 
L 2766 1759 
L 2194 1759 
z
M 3341 1997 
L 3341 0 
L 2766 0 
L 2766 531 
Q 2569 213 2275 61 
Q 1981 -91 1556 -91 
Q 1019 -91 701 211 
Q 384 513 384 1019 
Q 384 1609 779 1909 
Q 1175 2209 1959 2209 
L 2766 2209 
L 2766 2266 
Q 2766 2663 2505 2880 
Q 2244 3097 1772 3097 
Q 1472 3097 1187 3025 
Q 903 2953 641 2809 
L 641 3341 
Q 956 3463 1253 3523 
Q 1550 3584 1831 3584 
Q 2591 3584 2966 3190 
Q 3341 2797 3341 1997 
z
" transform="scale(0.015625)"/>
      <path id="DejaVuSans-73" d="M 2834 3397 
L 2834 2853 
Q 2591 2978 2328 3040 
Q 2066 3103 1784 3103 
Q 1356 3103 1142 2972 
Q 928 2841 928 2578 
Q 928 2378 1081 2264 
Q 1234 2150 1697 2047 
L 1894 2003 
Q 2506 1872 2764 1633 
Q 3022 1394 3022 966 
Q 3022 478 2636 193 
Q 2250 -91 1575 -91 
Q 1294 -91 989 -36 
Q 684 19 347 128 
L 347 722 
Q 666 556 975 473 
Q 1284 391 1588 391 
Q 1994 391 2212 530 
Q 2431 669 2431 922 
Q 2431 1156 2273 1281 
Q 2116 1406 1581 1522 
L 1381 1569 
Q 847 1681 609 1914 
Q 372 2147 372 2553 
Q 372 3047 722 3315 
Q 1072 3584 1716 3584 
Q 2034 3584 2315 3537 
Q 2597 3491 2834 3397 
z
" transform="scale(0.015625)"/>
      <path id="DejaVuSans-69" d="M 603 3500 
L 1178 3500 
L 1178 0 
L 603 0 
L 603 3500 
z
M 603 4863 
L 1178 4863 
L 1178 4134 
L 603 4134 
L 603 4863 
z
" transform="scale(0.015625)"/>
      <path id="DejaVuSans-63" d="M 3122 3366 
L 3122 2828 
Q 2878 2963 2633 3030 
Q 2388 3097 2138 3097 
Q 1578 3097 1268 2742 
Q 959 2388 959 1747 
Q 959 1106 1268 751 
Q 1578 397 2138 397 
Q 2388 397 2633 464 
Q 2878 531 3122 666 
L 3122 134 
Q 2881 22 2623 -34 
Q 2366 -91 2075 -91 
Q 1284 -91 818 406 
Q 353 903 353 1747 
Q 353 2603 823 3093 
Q 1294 3584 2113 3584 
Q 2378 3584 2631 3529 
Q 2884 3475 3122 3366 
z
" transform="scale(0.015625)"/>
      <path id="DejaVuSans-20" transform="scale(0.015625)"/>
      <path id="DejaVuSans-54" d="M -19 4666 
L 3928 4666 
L 3928 4134 
L 2272 4134 
L 2272 0 
L 1638 0 
L 1638 4134 
L -19 4134 
L -19 4666 
z
" transform="scale(0.015625)"/>
      <path id="DejaVuSans-72" d="M 2631 2963 
Q 2534 3019 2420 3045 
Q 2306 3072 2169 3072 
Q 1681 3072 1420 2755 
Q 1159 2438 1159 1844 
L 1159 0 
L 581 0 
L 581 3500 
L 1159 3500 
L 1159 2956 
Q 1341 3275 1631 3429 
Q 1922 3584 2338 3584 
Q 2397 3584 2469 3576 
Q 2541 3569 2628 3553 
L 2631 2963 
z
" transform="scale(0.015625)"/>
      <path id="DejaVuSans-6e" d="M 3513 2113 
L 3513 0 
L 2938 0 
L 2938 2094 
Q 2938 2591 2744 2837 
Q 2550 3084 2163 3084 
Q 1697 3084 1428 2787 
Q 1159 2491 1159 1978 
L 1159 0 
L 581 0 
L 581 3500 
L 1159 3500 
L 1159 2956 
Q 1366 3272 1645 3428 
Q 1925 3584 2291 3584 
Q 2894 3584 3203 3211 
Q 3513 2838 3513 2113 
z
" transform="scale(0.015625)"/>
      <path id="DejaVuSans-66" d="M 2375 4863 
L 2375 4384 
L 1825 4384 
Q 1516 4384 1395 4259 
Q 1275 4134 1275 3809 
L 1275 3500 
L 2222 3500 
L 2222 3053 
L 1275 3053 
L 1275 0 
L 697 0 
L 697 3053 
L 147 3053 
L 147 3500 
L 697 3500 
L 697 3744 
Q 697 4328 969 4595 
Q 1241 4863 1831 4863 
L 2375 4863 
z
" transform="scale(0.015625)"/>
      <path id="DejaVuSans-6f" d="M 1959 3097 
Q 1497 3097 1228 2736 
Q 959 2375 959 1747 
Q 959 1119 1226 758 
Q 1494 397 1959 397 
Q 2419 397 2687 759 
Q 2956 1122 2956 1747 
Q 2956 2369 2687 2733 
Q 2419 3097 1959 3097 
z
M 1959 3584 
Q 2709 3584 3137 3096 
Q 3566 2609 3566 1747 
Q 3566 888 3137 398 
Q 2709 -91 1959 -91 
Q 1206 -91 779 398 
Q 353 888 353 1747 
Q 353 2609 779 3096 
Q 1206 3584 1959 3584 
z
" transform="scale(0.015625)"/>
      <path id="DejaVuSans-6d" d="M 3328 2828 
Q 3544 3216 3844 3400 
Q 4144 3584 4550 3584 
Q 5097 3584 5394 3201 
Q 5691 2819 5691 2113 
L 5691 0 
L 5113 0 
L 5113 2094 
Q 5113 2597 4934 2840 
Q 4756 3084 4391 3084 
Q 3944 3084 3684 2787 
Q 3425 2491 3425 1978 
L 3425 0 
L 2847 0 
L 2847 2094 
Q 2847 2600 2669 2842 
Q 2491 3084 2119 3084 
Q 1678 3084 1418 2786 
Q 1159 2488 1159 1978 
L 1159 0 
L 581 0 
L 581 3500 
L 1159 3500 
L 1159 2956 
Q 1356 3278 1631 3431 
Q 1906 3584 2284 3584 
Q 2666 3584 2933 3390 
Q 3200 3197 3328 2828 
z
" transform="scale(0.015625)"/>
      <path id="DejaVuSans-65" d="M 3597 1894 
L 3597 1613 
L 953 1613 
Q 991 1019 1311 708 
Q 1631 397 2203 397 
Q 2534 397 2845 478 
Q 3156 559 3463 722 
L 3463 178 
Q 3153 47 2828 -22 
Q 2503 -91 2169 -91 
Q 1331 -91 842 396 
Q 353 884 353 1716 
Q 353 2575 817 3079 
Q 1281 3584 2069 3584 
Q 2775 3584 3186 3129 
Q 3597 2675 3597 1894 
z
M 3022 2063 
Q 3016 2534 2758 2815 
Q 2500 3097 2075 3097 
Q 1594 3097 1305 2825 
Q 1016 2553 972 2059 
L 3022 2063 
z
" transform="scale(0.015625)"/>
      <path id="DejaVuSans-64" d="M 2906 2969 
L 2906 4863 
L 3481 4863 
L 3481 0 
L 2906 0 
L 2906 525 
Q 2725 213 2448 61 
Q 2172 -91 1784 -91 
Q 1150 -91 751 415 
Q 353 922 353 1747 
Q 353 2572 751 3078 
Q 1150 3584 1784 3584 
Q 2172 3584 2448 3432 
Q 2725 3281 2906 2969 
z
M 947 1747 
Q 947 1113 1208 752 
Q 1469 391 1925 391 
Q 2381 391 2643 752 
Q 2906 1113 2906 1747 
Q 2906 2381 2643 2742 
Q 2381 3103 1925 3103 
Q 1469 3103 1208 2742 
Q 947 2381 947 1747 
z
" transform="scale(0.015625)"/>
      <path id="DejaVuSans-5f" d="M 3263 -1063 
L 3263 -1509 
L -63 -1509 
L -63 -1063 
L 3263 -1063 
z
" transform="scale(0.015625)"/>
     </defs>
     <use xlink:href="#DejaVuSans-43"/>
     <use xlink:href="#DejaVuSans-6c" x="69.824219"/>
     <use xlink:href="#DejaVuSans-61" x="97.607422"/>
     <use xlink:href="#DejaVuSans-73" x="158.886719"/>
     <use xlink:href="#DejaVuSans-73" x="210.986328"/>
     <use xlink:href="#DejaVuSans-69" x="263.085938"/>
     <use xlink:href="#DejaVuSans-63" x="290.869141"/>
     <use xlink:href="#DejaVuSans-20" x="345.849609"/>
     <use xlink:href="#DejaVuSans-54" x="377.636719"/>
     <use xlink:href="#DejaVuSans-72" x="423.970703"/>
     <use xlink:href="#DejaVuSans-61" x="465.083984"/>
     <use xlink:href="#DejaVuSans-6e" x="526.363281"/>
     <use xlink:href="#DejaVuSans-73" x="589.742188"/>
     <use xlink:href="#DejaVuSans-66" x="641.841797"/>
     <use xlink:href="#DejaVuSans-6f" x="677.046875"/>
     <use xlink:href="#DejaVuSans-72" x="738.228516"/>
     <use xlink:href="#DejaVuSans-6d" x="777.591797"/>
     <use xlink:href="#DejaVuSans-65" x="875.003906"/>
     <use xlink:href="#DejaVuSans-72" x="936.527344"/>
     <use xlink:href="#DejaVuSans-20" x="977.640625"/>
     <use xlink:href="#DejaVuSans-2d" x="1009.427734"/>
     <use xlink:href="#DejaVuSans-20" x="1045.511719"/>
     <use xlink:href="#DejaVuSans-6d" x="1077.298828"/>
     <use xlink:href="#DejaVuSans-6f" x="1174.710938"/>
     <use xlink:href="#DejaVuSans-64" x="1235.892578"/>
     <use xlink:href="#DejaVuSans-65" x="1299.369141"/>
     <use xlink:href="#DejaVuSans-6c" x="1360.892578"/>
     <use xlink:href="#DejaVuSans-5f" x="1388.675781"/>
     <use xlink:href="#DejaVuSans-32" x="1438.675781"/>
     <use xlink:href="#DejaVuSans-30" x="1502.298828"/>
     <use xlink:href="#DejaVuSans-32" x="1565.921875"/>
     <use xlink:href="#DejaVuSans-33" x="1629.544922"/>
     <use xlink:href="#DejaVuSans-31" x="1693.167969"/>
     <use xlink:href="#DejaVuSans-31" x="1756.791016"/>
     <use xlink:href="#DejaVuSans-32" x="1820.414062"/>
     <use xlink:href="#DejaVuSans-33" x="1884.037109"/>
     <use xlink:href="#DejaVuSans-31" x="1947.660156"/>
     <use xlink:href="#DejaVuSans-37" x="2011.283203"/>
     <use xlink:href="#DejaVuSans-30" x="2074.90625"/>
     <use xlink:href="#DejaVuSans-30" x="2138.529297"/>
     <use xlink:href="#DejaVuSans-32" x="2202.152344"/>
     <use xlink:href="#DejaVuSans-30" x="2265.775391"/>
    </g>
   </g>
   <g id="legend_1">
    <g id="patch_7">
     <path d="M 79 95.234375 
L 161.517188 95.234375 
Q 163.517188 95.234375 163.517188 93.234375 
L 163.517188 50.2 
Q 163.517188 48.2 161.517188 48.2 
L 79 48.2 
Q 77 48.2 77 50.2 
L 77 93.234375 
Q 77 95.234375 79 95.234375 
z
" style="fill: #ffffff; opacity: 0.8; stroke: #cccccc; stroke-linejoin: miter"/>
    </g>
    <g id="line2d_16">
     <path d="M 81 56.298437 
L 91 56.298437 
L 101 56.298437 
" style="fill: none; stroke: #1f77b4; stroke-width: 1.5; stroke-linecap: square"/>
    </g>
    <g id="text_14">
     <!-- Measured -->
     <g transform="translate(109 59.798437) scale(0.1 -0.1)">
      <defs>
       <path id="DejaVuSans-4d" d="M 628 4666 
L 1569 4666 
L 2759 1491 
L 3956 4666 
L 4897 4666 
L 4897 0 
L 4281 0 
L 4281 4097 
L 3078 897 
L 2444 897 
L 1241 4097 
L 1241 0 
L 628 0 
L 628 4666 
z
" transform="scale(0.015625)"/>
       <path id="DejaVuSans-75" d="M 544 1381 
L 544 3500 
L 1119 3500 
L 1119 1403 
Q 1119 906 1312 657 
Q 1506 409 1894 409 
Q 2359 409 2629 706 
Q 2900 1003 2900 1516 
L 2900 3500 
L 3475 3500 
L 3475 0 
L 2900 0 
L 2900 538 
Q 2691 219 2414 64 
Q 2138 -91 1772 -91 
Q 1169 -91 856 284 
Q 544 659 544 1381 
z
M 1991 3584 
L 1991 3584 
z
" transform="scale(0.015625)"/>
      </defs>
      <use xlink:href="#DejaVuSans-4d"/>
      <use xlink:href="#DejaVuSans-65" x="86.279297"/>
      <use xlink:href="#DejaVuSans-61" x="147.802734"/>
      <use xlink:href="#DejaVuSans-73" x="209.082031"/>
      <use xlink:href="#DejaVuSans-75" x="261.181641"/>
      <use xlink:href="#DejaVuSans-72" x="324.560547"/>
      <use xlink:href="#DejaVuSans-65" x="363.423828"/>
      <use xlink:href="#DejaVuSans-64" x="424.947266"/>
     </g>
    </g>
    <g id="line2d_17">
     <path d="M 81 70.976562 
L 91 70.976562 
L 101 70.976562 
" style="fill: none; stroke: #ff7f0e; stroke-width: 1.5; stroke-linecap: square"/>
    </g>
    <g id="text_15">
     <!-- Fitted -->
     <g transform="translate(109 74.476562) scale(0.1 -0.1)">
      <defs>
       <path id="DejaVuSans-46" d="M 628 4666 
L 3309 4666 
L 3309 4134 
L 1259 4134 
L 1259 2759 
L 3109 2759 
L 3109 2228 
L 1259 2228 
L 1259 0 
L 628 0 
L 628 4666 
z
" transform="scale(0.015625)"/>
       <path id="DejaVuSans-74" d="M 1172 4494 
L 1172 3500 
L 2356 3500 
L 2356 3053 
L 1172 3053 
L 1172 1153 
Q 1172 725 1289 603 
Q 1406 481 1766 481 
L 2356 481 
L 2356 0 
L 1766 0 
Q 1100 0 847 248 
Q 594 497 594 1153 
L 594 3053 
L 172 3053 
L 172 3500 
L 594 3500 
L 594 4494 
L 1172 4494 
z
" transform="scale(0.015625)"/>
      </defs>
      <use xlink:href="#DejaVuSans-46"/>
      <use xlink:href="#DejaVuSans-69" x="50.269531"/>
      <use xlink:href="#DejaVuSans-74" x="78.052734"/>
      <use xlink:href="#DejaVuSans-74" x="117.261719"/>
      <use xlink:href="#DejaVuSans-65" x="156.470703"/>
      <use xlink:href="#DejaVuSans-64" x="217.994141"/>
     </g>
    </g>
    <g id="line2d_18">
     <path d="M 81 85.654687 
L 91 85.654687 
L 101 85.654687 
" style="fill: none; stroke: #2ca02c; stroke-width: 1.5; stroke-linecap: square"/>
    </g>
    <g id="text_16">
     <!-- Estimated -->
     <g transform="translate(109 89.154687) scale(0.1 -0.1)">
      <defs>
       <path id="DejaVuSans-45" d="M 628 4666 
L 3578 4666 
L 3578 4134 
L 1259 4134 
L 1259 2753 
L 3481 2753 
L 3481 2222 
L 1259 2222 
L 1259 531 
L 3634 531 
L 3634 0 
L 628 0 
L 628 4666 
z
" transform="scale(0.015625)"/>
      </defs>
      <use xlink:href="#DejaVuSans-45"/>
      <use xlink:href="#DejaVuSans-73" x="63.183594"/>
      <use xlink:href="#DejaVuSans-74" x="115.283203"/>
      <use xlink:href="#DejaVuSans-69" x="154.492188"/>
      <use xlink:href="#DejaVuSans-6d" x="182.275391"/>
      <use xlink:href="#DejaVuSans-61" x="279.6875"/>
      <use xlink:href="#DejaVuSans-74" x="340.966797"/>
      <use xlink:href="#DejaVuSans-65" x="380.175781"/>
      <use xlink:href="#DejaVuSans-64" x="441.699219"/>
     </g>
    </g>
   </g>
  </g>
 </g>
 <defs>
  <clipPath id="p77fb2b3231">
   <rect x="72" y="43.2" width="446.4" height="277.2"/>
  </clipPath>
 </defs>
</svg>
