<?xml version="1.0" encoding="utf-8" standalone="no"?>
<!DOCTYPE svg PUBLIC "-//W3C//DTD SVG 1.1//EN"
  "http://www.w3.org/Graphics/SVG/1.1/DTD/svg11.dtd">
<svg xmlns:xlink="http://www.w3.org/1999/xlink" width="576pt" height="360pt" viewBox="0 0 576 360" xmlns="http://www.w3.org/2000/svg" version="1.1">
 <metadata>
  <rdf:RDF xmlns:dc="http://purl.org/dc/elements/1.1/" xmlns:cc="http://creativecommons.org/ns#" xmlns:rdf="http://www.w3.org/1999/02/22-rdf-syntax-ns#">
   <cc:Work>
    <dc:type rdf:resource="http://purl.org/dc/dcmitype/StillImage"/>
    <dc:date>2023-11-23T16:47:45.572931</dc:date>
    <dc:format>image/svg+xml</dc:format>
    <dc:creator>
     <cc:Agent>
      <dc:title>Matplotlib v3.8.1, https://matplotlib.org/</dc:title>
     </cc:Agent>
    </dc:creator>
   </cc:Work>
  </rdf:RDF>
 </metadata>
 <defs>
  <style type="text/css">*{stroke-linejoin: round; stroke-linecap: butt}</style>
 </defs>
 <g id="figure_1">
  <g id="patch_1">
   <path d="M 0 360 
L 576 360 
L 576 0 
L 0 0 
z
" style="fill: #ffffff"/>
  </g>
  <g id="axes_1">
   <g id="patch_2">
    <path d="M 72 320.4 
L 518.4 320.4 
L 518.4 43.2 
L 72 43.2 
z
" style="fill: #ffffff"/>
   </g>
   <g id="matplotlib.axis_1">
    <g id="xtick_1">
     <g id="line2d_1">
      <defs>
       <path id="mdb14d07c34" d="M 0 0 
L 0 3.5 
" style="stroke: #000000; stroke-width: 0.8"/>
      </defs>
      <g>
       <use xlink:href="#mdb14d07c34" x="129.874161" y="320.4" style="stroke: #000000; stroke-width: 0.8"/>
      </g>
     </g>
     <g id="text_1">
      <!-- 2020-05-15 -->
      <g transform="translate(100.816349 334.998438) scale(0.1 -0.1)">
       <defs>
        <path id="DejaVuSans-32" d="M 1228 531 
L 3431 531 
L 3431 0 
L 469 0 
L 469 531 
Q 828 903 1448 1529 
Q 2069 2156 2228 2338 
Q 2531 2678 2651 2914 
Q 2772 3150 2772 3378 
Q 2772 3750 2511 3984 
Q 2250 4219 1831 4219 
Q 1534 4219 1204 4116 
Q 875 4013 500 3803 
L 500 4441 
Q 881 4594 1212 4672 
Q 1544 4750 1819 4750 
Q 2544 4750 2975 4387 
Q 3406 4025 3406 3419 
Q 3406 3131 3298 2873 
Q 3191 2616 2906 2266 
Q 2828 2175 2409 1742 
Q 1991 1309 1228 531 
z
" transform="scale(0.015625)"/>
        <path id="DejaVuSans-30" d="M 2034 4250 
Q 1547 4250 1301 3770 
Q 1056 3291 1056 2328 
Q 1056 1369 1301 889 
Q 1547 409 2034 409 
Q 2525 409 2770 889 
Q 3016 1369 3016 2328 
Q 3016 3291 2770 3770 
Q 2525 4250 2034 4250 
z
M 2034 4750 
Q 2819 4750 3233 4129 
Q 3647 3509 3647 2328 
Q 3647 1150 3233 529 
Q 2819 -91 2034 -91 
Q 1250 -91 836 529 
Q 422 1150 422 2328 
Q 422 3509 836 4129 
Q 1250 4750 2034 4750 
z
" transform="scale(0.015625)"/>
        <path id="DejaVuSans-2d" d="M 313 2009 
L 1997 2009 
L 1997 1497 
L 313 1497 
L 313 2009 
z
" transform="scale(0.015625)"/>
        <path id="DejaVuSans-35" d="M 691 4666 
L 3169 4666 
L 3169 4134 
L 1269 4134 
L 1269 2991 
Q 1406 3038 1543 3061 
Q 1681 3084 1819 3084 
Q 2600 3084 3056 2656 
Q 3513 2228 3513 1497 
Q 3513 744 3044 326 
Q 2575 -91 1722 -91 
Q 1428 -91 1123 -41 
Q 819 9 494 109 
L 494 744 
Q 775 591 1075 516 
Q 1375 441 1709 441 
Q 2250 441 2565 725 
Q 2881 1009 2881 1497 
Q 2881 1984 2565 2268 
Q 2250 2553 1709 2553 
Q 1456 2553 1204 2497 
Q 953 2441 691 2322 
L 691 4666 
z
" transform="scale(0.015625)"/>
        <path id="DejaVuSans-31" d="M 794 531 
L 1825 531 
L 1825 4091 
L 703 3866 
L 703 4441 
L 1819 4666 
L 2450 4666 
L 2450 531 
L 3481 531 
L 3481 0 
L 794 0 
L 794 531 
z
" transform="scale(0.015625)"/>
       </defs>
       <use xlink:href="#DejaVuSans-32"/>
       <use xlink:href="#DejaVuSans-30" x="63.623047"/>
       <use xlink:href="#DejaVuSans-32" x="127.246094"/>
       <use xlink:href="#DejaVuSans-30" x="190.869141"/>
       <use xlink:href="#DejaVuSans-2d" x="254.492188"/>
       <use xlink:href="#DejaVuSans-30" x="290.576172"/>
       <use xlink:href="#DejaVuSans-35" x="354.199219"/>
       <use xlink:href="#DejaVuSans-2d" x="417.822266"/>
       <use xlink:href="#DejaVuSans-31" x="453.90625"/>
       <use xlink:href="#DejaVuSans-35" x="517.529297"/>
      </g>
     </g>
    </g>
    <g id="xtick_2">
     <g id="line2d_2">
      <g>
       <use xlink:href="#mdb14d07c34" x="212.435902" y="320.4" style="stroke: #000000; stroke-width: 0.8"/>
      </g>
     </g>
     <g id="text_2">
      <!-- 2020-06-01 -->
      <g transform="translate(183.37809 334.998438) scale(0.1 -0.1)">
       <defs>
        <path id="DejaVuSans-36" d="M 2113 2584 
Q 1688 2584 1439 2293 
Q 1191 2003 1191 1497 
Q 1191 994 1439 701 
Q 1688 409 2113 409 
Q 2538 409 2786 701 
Q 3034 994 3034 1497 
Q 3034 2003 2786 2293 
Q 2538 2584 2113 2584 
z
M 3366 4563 
L 3366 3988 
Q 3128 4100 2886 4159 
Q 2644 4219 2406 4219 
Q 1781 4219 1451 3797 
Q 1122 3375 1075 2522 
Q 1259 2794 1537 2939 
Q 1816 3084 2150 3084 
Q 2853 3084 3261 2657 
Q 3669 2231 3669 1497 
Q 3669 778 3244 343 
Q 2819 -91 2113 -91 
Q 1303 -91 875 529 
Q 447 1150 447 2328 
Q 447 3434 972 4092 
Q 1497 4750 2381 4750 
Q 2619 4750 2861 4703 
Q 3103 4656 3366 4563 
z
" transform="scale(0.015625)"/>
       </defs>
       <use xlink:href="#DejaVuSans-32"/>
       <use xlink:href="#DejaVuSans-30" x="63.623047"/>
       <use xlink:href="#DejaVuSans-32" x="127.246094"/>
       <use xlink:href="#DejaVuSans-30" x="190.869141"/>
       <use xlink:href="#DejaVuSans-2d" x="254.492188"/>
       <use xlink:href="#DejaVuSans-30" x="290.576172"/>
       <use xlink:href="#DejaVuSans-36" x="354.199219"/>
       <use xlink:href="#DejaVuSans-2d" x="417.822266"/>
       <use xlink:href="#DejaVuSans-30" x="453.90625"/>
       <use xlink:href="#DejaVuSans-31" x="517.529297"/>
      </g>
     </g>
    </g>
    <g id="xtick_3">
     <g id="line2d_3">
      <g>
       <use xlink:href="#mdb14d07c34" x="280.427924" y="320.4" style="stroke: #000000; stroke-width: 0.8"/>
      </g>
     </g>
     <g id="text_3">
      <!-- 2020-06-15 -->
      <g transform="translate(251.370111 334.998438) scale(0.1 -0.1)">
       <use xlink:href="#DejaVuSans-32"/>
       <use xlink:href="#DejaVuSans-30" x="63.623047"/>
       <use xlink:href="#DejaVuSans-32" x="127.246094"/>
       <use xlink:href="#DejaVuSans-30" x="190.869141"/>
       <use xlink:href="#DejaVuSans-2d" x="254.492188"/>
       <use xlink:href="#DejaVuSans-30" x="290.576172"/>
       <use xlink:href="#DejaVuSans-36" x="354.199219"/>
       <use xlink:href="#DejaVuSans-2d" x="417.822266"/>
       <use xlink:href="#DejaVuSans-31" x="453.90625"/>
       <use xlink:href="#DejaVuSans-35" x="517.529297"/>
      </g>
     </g>
    </g>
    <g id="xtick_4">
     <g id="line2d_4">
      <g>
       <use xlink:href="#mdb14d07c34" x="358.133092" y="320.4" style="stroke: #000000; stroke-width: 0.8"/>
      </g>
     </g>
     <g id="text_4">
      <!-- 2020-07-01 -->
      <g transform="translate(329.075279 334.998438) scale(0.1 -0.1)">
       <defs>
        <path id="DejaVuSans-37" d="M 525 4666 
L 3525 4666 
L 3525 4397 
L 1831 0 
L 1172 0 
L 2766 4134 
L 525 4134 
L 525 4666 
z
" transform="scale(0.015625)"/>
       </defs>
       <use xlink:href="#DejaVuSans-32"/>
       <use xlink:href="#DejaVuSans-30" x="63.623047"/>
       <use xlink:href="#DejaVuSans-32" x="127.246094"/>
       <use xlink:href="#DejaVuSans-30" x="190.869141"/>
       <use xlink:href="#DejaVuSans-2d" x="254.492188"/>
       <use xlink:href="#DejaVuSans-30" x="290.576172"/>
       <use xlink:href="#DejaVuSans-37" x="354.199219"/>
       <use xlink:href="#DejaVuSans-2d" x="417.822266"/>
       <use xlink:href="#DejaVuSans-30" x="453.90625"/>
       <use xlink:href="#DejaVuSans-31" x="517.529297"/>
      </g>
     </g>
    </g>
    <g id="xtick_5">
     <g id="line2d_5">
      <g>
       <use xlink:href="#mdb14d07c34" x="426.125113" y="320.4" style="stroke: #000000; stroke-width: 0.8"/>
      </g>
     </g>
     <g id="text_5">
      <!-- 2020-07-15 -->
      <g transform="translate(397.067301 334.998438) scale(0.1 -0.1)">
       <use xlink:href="#DejaVuSans-32"/>
       <use xlink:href="#DejaVuSans-30" x="63.623047"/>
       <use xlink:href="#DejaVuSans-32" x="127.246094"/>
       <use xlink:href="#DejaVuSans-30" x="190.869141"/>
       <use xlink:href="#DejaVuSans-2d" x="254.492188"/>
       <use xlink:href="#DejaVuSans-30" x="290.576172"/>
       <use xlink:href="#DejaVuSans-37" x="354.199219"/>
       <use xlink:href="#DejaVuSans-2d" x="417.822266"/>
       <use xlink:href="#DejaVuSans-31" x="453.90625"/>
       <use xlink:href="#DejaVuSans-35" x="517.529297"/>
      </g>
     </g>
    </g>
    <g id="xtick_6">
     <g id="line2d_6">
      <g>
       <use xlink:href="#mdb14d07c34" x="508.686854" y="320.4" style="stroke: #000000; stroke-width: 0.8"/>
      </g>
     </g>
     <g id="text_6">
      <!-- 2020-08-01 -->
      <g transform="translate(479.629042 334.998438) scale(0.1 -0.1)">
       <defs>
        <path id="DejaVuSans-38" d="M 2034 2216 
Q 1584 2216 1326 1975 
Q 1069 1734 1069 1313 
Q 1069 891 1326 650 
Q 1584 409 2034 409 
Q 2484 409 2743 651 
Q 3003 894 3003 1313 
Q 3003 1734 2745 1975 
Q 2488 2216 2034 2216 
z
M 1403 2484 
Q 997 2584 770 2862 
Q 544 3141 544 3541 
Q 544 4100 942 4425 
Q 1341 4750 2034 4750 
Q 2731 4750 3128 4425 
Q 3525 4100 3525 3541 
Q 3525 3141 3298 2862 
Q 3072 2584 2669 2484 
Q 3125 2378 3379 2068 
Q 3634 1759 3634 1313 
Q 3634 634 3220 271 
Q 2806 -91 2034 -91 
Q 1263 -91 848 271 
Q 434 634 434 1313 
Q 434 1759 690 2068 
Q 947 2378 1403 2484 
z
M 1172 3481 
Q 1172 3119 1398 2916 
Q 1625 2713 2034 2713 
Q 2441 2713 2670 2916 
Q 2900 3119 2900 3481 
Q 2900 3844 2670 4047 
Q 2441 4250 2034 4250 
Q 1625 4250 1398 4047 
Q 1172 3844 1172 3481 
z
" transform="scale(0.015625)"/>
       </defs>
       <use xlink:href="#DejaVuSans-32"/>
       <use xlink:href="#DejaVuSans-30" x="63.623047"/>
       <use xlink:href="#DejaVuSans-32" x="127.246094"/>
       <use xlink:href="#DejaVuSans-30" x="190.869141"/>
       <use xlink:href="#DejaVuSans-2d" x="254.492188"/>
       <use xlink:href="#DejaVuSans-30" x="290.576172"/>
       <use xlink:href="#DejaVuSans-38" x="354.199219"/>
       <use xlink:href="#DejaVuSans-2d" x="417.822266"/>
       <use xlink:href="#DejaVuSans-30" x="453.90625"/>
       <use xlink:href="#DejaVuSans-31" x="517.529297"/>
      </g>
     </g>
    </g>
   </g>
   <g id="matplotlib.axis_2">
    <g id="ytick_1">
     <g id="line2d_7">
      <defs>
       <path id="mf00feb2e23" d="M 0 0 
L -3.5 0 
" style="stroke: #000000; stroke-width: 0.8"/>
      </defs>
      <g>
       <use xlink:href="#mf00feb2e23" x="72" y="315.672497" style="stroke: #000000; stroke-width: 0.8"/>
      </g>
     </g>
     <g id="text_7">
      <!-- −2 -->
      <g transform="translate(50.257812 319.471715) scale(0.1 -0.1)">
       <defs>
        <path id="DejaVuSans-2212" d="M 678 2272 
L 4684 2272 
L 4684 1741 
L 678 1741 
L 678 2272 
z
" transform="scale(0.015625)"/>
       </defs>
       <use xlink:href="#DejaVuSans-2212"/>
       <use xlink:href="#DejaVuSans-32" x="83.789062"/>
      </g>
     </g>
    </g>
    <g id="ytick_2">
     <g id="line2d_8">
      <g>
       <use xlink:href="#mf00feb2e23" x="72" y="263.947201" style="stroke: #000000; stroke-width: 0.8"/>
      </g>
     </g>
     <g id="text_8">
      <!-- −1 -->
      <g transform="translate(50.257812 267.746419) scale(0.1 -0.1)">
       <use xlink:href="#DejaVuSans-2212"/>
       <use xlink:href="#DejaVuSans-31" x="83.789062"/>
      </g>
     </g>
    </g>
    <g id="ytick_3">
     <g id="line2d_9">
      <g>
       <use xlink:href="#mf00feb2e23" x="72" y="212.221904" style="stroke: #000000; stroke-width: 0.8"/>
      </g>
     </g>
     <g id="text_9">
      <!-- 0 -->
      <g transform="translate(58.6375 216.021123) scale(0.1 -0.1)">
       <use xlink:href="#DejaVuSans-30"/>
      </g>
     </g>
    </g>
    <g id="ytick_4">
     <g id="line2d_10">
      <g>
       <use xlink:href="#mf00feb2e23" x="72" y="160.496608" style="stroke: #000000; stroke-width: 0.8"/>
      </g>
     </g>
     <g id="text_10">
      <!-- 1 -->
      <g transform="translate(58.6375 164.295827) scale(0.1 -0.1)">
       <use xlink:href="#DejaVuSans-31"/>
      </g>
     </g>
    </g>
    <g id="ytick_5">
     <g id="line2d_11">
      <g>
       <use xlink:href="#mf00feb2e23" x="72" y="108.771312" style="stroke: #000000; stroke-width: 0.8"/>
      </g>
     </g>
     <g id="text_11">
      <!-- 2 -->
      <g transform="translate(58.6375 112.570531) scale(0.1 -0.1)">
       <use xlink:href="#DejaVuSans-32"/>
      </g>
     </g>
    </g>
    <g id="ytick_6">
     <g id="line2d_12">
      <g>
       <use xlink:href="#mf00feb2e23" x="72" y="57.046016" style="stroke: #000000; stroke-width: 0.8"/>
      </g>
     </g>
     <g id="text_12">
      <!-- 3 -->
      <g transform="translate(58.6375 60.845234) scale(0.1 -0.1)">
       <defs>
        <path id="DejaVuSans-33" d="M 2597 2516 
Q 3050 2419 3304 2112 
Q 3559 1806 3559 1356 
Q 3559 666 3084 287 
Q 2609 -91 1734 -91 
Q 1441 -91 1130 -33 
Q 819 25 488 141 
L 488 750 
Q 750 597 1062 519 
Q 1375 441 1716 441 
Q 2309 441 2620 675 
Q 2931 909 2931 1356 
Q 2931 1769 2642 2001 
Q 2353 2234 1838 2234 
L 1294 2234 
L 1294 2753 
L 1863 2753 
Q 2328 2753 2575 2939 
Q 2822 3125 2822 3475 
Q 2822 3834 2567 4026 
Q 2313 4219 1838 4219 
Q 1578 4219 1281 4162 
Q 984 4106 628 3988 
L 628 4550 
Q 988 4650 1302 4700 
Q 1616 4750 1894 4750 
Q 2613 4750 3031 4423 
Q 3450 4097 3450 3541 
Q 3450 3153 3228 2886 
Q 3006 2619 2597 2516 
z
" transform="scale(0.015625)"/>
       </defs>
       <use xlink:href="#DejaVuSans-33"/>
      </g>
     </g>
    </g>
   </g>
   <g id="line2d_13">
    <path d="M 72 287.764458 
L 72.404714 298.726184 
L 72.607072 297.061626 
L 72.809429 286.749483 
L 73.214143 256.86863 
L 73.618858 244.85133 
L 75.035358 164.668332 
L 75.237715 161.806104 
L 75.440073 166.698281 
L 75.64243 174.635383 
L 75.844787 177.822404 
L 76.047144 192.559836 
L 76.654216 260.481939 
L 77.05893 283.745158 
L 77.261287 287.967453 
L 77.463645 287.602062 
L 77.666002 277.249321 
L 78.070716 249.702909 
L 78.475431 237.64501 
L 78.677788 228.81473 
L 79.487217 173.721906 
L 79.891931 157.989799 
L 80.094288 159.877652 
L 80.903717 200.882628 
L 81.713146 273.717209 
L 82.11786 287.886255 
L 82.320218 289.855306 
L 82.522575 289.571113 
L 82.724932 287.135174 
L 82.927289 280.537838 
L 83.332004 258.309894 
L 83.736718 244.465639 
L 83.939075 241.522213 
L 84.141432 241.786106 
L 84.546147 247.977452 
L 84.748504 250.007401 
L 84.950861 250.0277 
L 85.355576 254.087599 
L 85.557933 250.85998 
L 85.76029 256.787432 
L 86.569719 300.268946 
L 86.772076 306.155799 
L 86.974433 307.69856 
L 87.176791 307.759459 
L 87.379148 306.460291 
L 87.581505 302.846981 
L 87.783862 296.310545 
L 88.188577 274.975777 
L 88.390934 269.961803 
L 89.200363 262.146498 
L 89.40272 258.147498 
L 89.807434 243.836355 
L 90.212149 241.461314 
L 90.414506 238.84268 
L 90.616863 246.536188 
L 91.223935 295.478265 
L 91.628649 306.155799 
L 91.831006 306.216697 
L 92.033364 303.801057 
L 92.842792 259.142173 
L 93.04515 257.071625 
L 93.449864 248.748832 
L 93.652221 248.241345 
L 93.854578 245.399416 
L 94.056936 244.790431 
L 94.259293 242.252995 
L 94.46165 236.061649 
L 94.664007 233.300918 
L 94.866364 234.194096 
L 95.068722 237.23902 
L 95.271079 233.524213 
L 95.473436 243.308568 
L 96.080508 295.843656 
L 96.485222 304.755134 
L 96.687579 306.602388 
L 96.889937 302.400392 
L 97.699365 258.431691 
L 98.306437 248.261645 
L 98.508794 247.896254 
L 99.52058 227.353167 
L 99.722937 228.571136 
L 99.925295 232.793431 
L 100.127652 231.027375 
L 100.330009 240.85233 
L 100.937081 293.448316 
L 101.341795 305.323519 
L 101.544152 306.277596 
L 101.74651 302.684585 
L 101.948867 291.113874 
L 102.353581 262.045 
L 102.555938 260.542838 
L 103.567724 243.328868 
L 104.377153 221.933202 
L 104.57951 223.171471 
L 104.781868 228.388441 
L 104.984225 228.368141 
L 105.186582 236.975126 
L 105.793654 290.403392 
L 106.198368 302.745484 
L 106.400725 304.450641 
L 106.603083 300.553139 
L 107.412511 256.097249 
L 107.614869 254.43269 
L 107.817226 250.880279 
L 108.22194 236.81273 
L 108.626655 215.802755 
L 108.829012 210.057999 
L 109.031369 208.231044 
L 109.638441 216.635034 
L 109.840798 221.892603 
L 110.043155 231.961152 
L 110.650227 285.247321 
L 111.054941 299.050976 
L 111.257298 300.89823 
L 111.459655 299.213372 
L 111.662013 288.170448 
L 112.066727 259.852655 
L 112.471442 245.338518 
L 113.887942 179.121571 
L 114.090299 176.827728 
L 114.292656 183.425064 
L 114.495014 194.488287 
L 114.697371 198.933876 
L 115.102085 231.859654 
L 115.709157 279.644661 
L 116.113871 293.143824 
L 116.316228 293.30622 
L 116.518586 291.70256 
L 116.720943 288.190747 
L 117.125657 261.821706 
L 118.542158 160.506936 
L 118.744515 150.72258 
L 118.946872 146.967174 
L 119.149229 150.519586 
L 119.756301 187.18047 
L 120.56573 263.993752 
L 120.970444 283.176773 
L 121.172801 287.135174 
L 121.375159 288.718534 
L 121.577516 287.317869 
L 121.779873 279.644661 
L 122.589302 230.276294 
L 123.196374 205.632709 
L 123.398731 201.20742 
L 123.601088 201.410415 
L 123.803445 200.862328 
L 124.410517 213.833704 
L 124.612874 224.450339 
L 125.219946 278.934179 
L 125.62466 293.001727 
L 125.827017 294.930179 
L 126.029374 292.47394 
L 127.04116 237.888604 
L 127.648232 201.674308 
L 128.255304 160.649033 
L 128.457661 153.341215 
L 128.660018 153.016423 
L 129.26709 195.929551 
L 130.278876 283.866955 
L 130.481233 291.438666 
L 130.68359 292.778433 
L 130.885947 290.281595 
L 132.504805 184.846028 
L 133.111877 143.53656 
L 133.314234 134.422088 
L 133.516591 136.066346 
L 133.921306 150.945875 
L 134.123663 158.131895 
L 135.135449 264.501239 
L 135.540163 276.721534 
L 135.74252 275.808057 
L 135.944878 265.556813 
L 136.349592 235.148172 
L 136.551949 228.591436 
L 136.754306 217.101923 
L 136.956664 221.527212 
L 137.159021 210.585785 
L 137.766092 202.039699 
L 137.96845 202.425389 
L 138.373164 197.18812 
L 138.777879 204.495938 
L 138.980236 205.307917 
L 139.182593 216.736532 
L 139.789665 271.565463 
L 140.194379 286.444991 
L 140.396736 288.454641 
L 140.599093 285.531514 
L 141.003808 256.279944 
L 141.408522 235.777456 
L 142.015594 222.80608 
L 142.622665 213.955501 
L 142.825023 213.691608 
L 143.02738 212.514237 
L 143.229737 213.184121 
L 143.634451 218.299593 
L 143.836809 217.101923 
L 144.039166 226.967476 
L 144.646238 274.752483 
L 145.050952 286.46529 
L 145.253309 287.723859 
L 145.455666 284.678935 
L 145.860381 255.955152 
L 146.062738 240.02005 
L 146.66981 224.064649 
L 146.872167 221.466314 
L 147.074524 220.41074 
L 147.479238 209.652009 
L 147.681596 217.853004 
L 147.883953 218.80708 
L 148.08631 221.344517 
L 148.491024 230.377791 
L 148.693382 229.058324 
L 149.098096 251.976452 
L 149.502811 279.27927 
L 149.907525 292.007052 
L 150.109882 294.016702 
L 150.312239 293.448316 
L 150.514597 290.687585 
L 150.716954 285.105224 
L 151.121668 264.683934 
L 151.526383 244.628035 
L 151.931097 238.944177 
L 152.133454 238.517888 
L 152.335811 240.44634 
L 152.538169 240.953827 
L 152.740526 238.944177 
L 152.942883 239.22837 
L 153.14524 238.274294 
L 153.347597 238.314893 
L 153.549955 235.452664 
L 153.752312 237.604411 
L 154.764098 287.987752 
L 154.966455 291.864956 
L 155.168812 293.225022 
L 155.573527 289.368118 
L 155.775884 278.528189 
L 156.78767 202.222394 
L 157.799456 160.486637 
L 158.001813 162.455687 
L 158.406528 175.386464 
L 158.608885 188.662333 
L 159.215956 255.873954 
L 159.620671 277.026026 
L 159.823028 280.172448 
L 160.025385 279.27927 
L 160.227743 269.67761 
L 160.632457 237.888604 
L 161.8466 188.621734 
L 162.251315 178.77648 
L 162.453672 178.918576 
L 162.656029 181.719906 
L 163.465458 212.879628 
L 164.072529 271.504564 
L 164.477244 289.733509 
L 164.679601 290.058301 
L 164.881958 286.89158 
L 165.084316 276.944828 
L 165.48903 245.825705 
L 166.500816 211.458664 
L 167.310245 169.418414 
L 167.512602 172.706931 
L 167.917316 192.864328 
L 168.119674 197.228719 
L 168.322031 208.352841 
L 168.929102 266.551488 
L 169.333817 281.431016 
L 169.536174 284.88193 
L 169.738531 281.28892 
L 170.143246 254.554487 
L 170.54796 224.856329 
L 171.357389 181.19212 
L 171.559746 175.284967 
L 172.166818 151.575159 
L 172.369175 153.15852 
L 172.571532 160.912926 
L 173.178604 199.096272 
L 173.785675 268.743833 
L 174.19039 287.744158 
L 174.392747 290.667285 
L 174.595104 288.88093 
L 174.999819 265.171122 
L 175.404533 240.669634 
L 177.023391 163.998449 
L 177.225748 164.505936 
L 177.428105 168.34254 
L 177.630462 184.602434 
L 177.83282 186.997775 
L 178.237534 230.235695 
L 178.642248 272.296244 
L 179.046963 291.113874 
L 179.24932 294.767783 
L 179.451677 292.291245 
L 179.654034 283.765458 
L 180.261106 244.688934 
L 181.879964 149.606108 
L 182.082321 146.398788 
L 182.284678 151.96085 
L 183.094107 207.21607 
L 183.498821 245.480614 
L 183.903536 266.531188 
L 184.30825 274.224696 
L 184.510607 275.564463 
L 184.712965 271.991752 
L 184.915322 258.85798 
L 185.724751 178.37049 
L 186.129465 157.380814 
L 186.331822 151.433063 
L 186.53418 150.681981 
L 186.736537 153.178819 
L 187.748323 192.884627 
L 188.557752 255.914553 
L 188.962466 269.840006 
L 189.164823 271.849655 
L 189.36718 271.930853 
L 189.569538 271.200072 
L 189.771895 260.603736 
L 190.986038 166.312591 
L 191.188395 161.095621 
L 191.390752 161.055022 
L 191.795467 170.047698 
L 192.604896 200.821729 
L 193.414325 263.080274 
L 193.819039 276.559138 
L 194.021396 277.614711 
L 194.426111 273.717209 
L 194.628468 264.907229 
L 195.437897 205.003425 
L 195.640254 200.070648 
L 195.842611 201.268318 
L 196.247325 207.236369 
L 196.449683 207.804755 
L 196.65204 207.419065 
L 197.056754 215.498263 
L 197.259112 216.330542 
L 197.461469 224.612735 
L 198.06854 272.194747 
L 198.473255 286.160798 
L 198.675612 286.262296 
L 198.877969 282.669285 
L 199.282684 252.362142 
L 199.687398 229.890603 
L 201.306256 164.505936 
L 201.508613 163.369165 
L 202.115684 182.267993 
L 202.318042 193.250018 
L 202.925113 256.340843 
L 203.329828 273.717209 
L 203.532185 275.787757 
L 203.734542 272.844331 
L 203.936899 261.496914 
L 204.341614 228.02305 
L 205.758114 174.188794 
L 205.960471 171.732556 
L 206.162829 171.874652 
L 206.365186 173.275317 
L 206.7699 184.947526 
L 206.972257 188.093947 
L 207.174615 198.77148 
L 207.781686 256.929528 
L 208.186401 272.844331 
L 208.388758 275.848656 
L 208.591115 272.560138 
L 208.793472 260.86763 
L 209.198187 227.576461 
L 209.805258 205.632709 
L 210.209973 186.043698 
L 210.817044 144.977824 
L 211.019402 136.614433 
L 211.221759 139.53756 
L 211.626473 163.653358 
L 211.82883 168.789129 
L 212.031188 183.303267 
L 212.638259 247.388766 
L 213.042974 265.698909 
L 213.245331 269.637011 
L 213.447688 267.952153 
L 213.650045 257.396416 
L 214.257117 214.767481 
L 214.661831 188.804429 
L 215.47126 130.32159 
L 215.875975 113.838402 
L 216.078332 113.371513 
L 216.280689 118.832077 
L 217.090118 181.679307 
L 217.697189 242.699583 
L 218.101904 260.887929 
L 218.304261 264.196747 
L 218.506618 265.536513 
L 218.708976 264.298244 
L 218.911333 251.753157 
L 219.518404 197.756506 
L 220.125476 163.064672 
L 220.327833 160.933225 
L 220.53019 163.125571 
L 221.541976 204.820729 
L 221.744334 209.895603 
L 222.553762 265.962802 
L 222.958477 276.680935 
L 223.160834 278.365793 
L 223.363191 278.710884 
L 223.565549 277.168123 
L 223.767906 268.581437 
L 224.374977 230.925877 
L 224.779692 223.455664 
L 225.386763 225.485613 
L 225.589121 228.956827 
L 225.791478 229.829705 
L 226.196192 238.091599 
L 226.398549 237.746507 
L 226.600907 244.079949 
L 227.410335 296.919529 
L 227.612693 300.89823 
L 227.81505 302.562788 
L 228.017407 299.416367 
L 228.826836 257.437015 
L 229.029193 255.143173 
L 229.23155 249.479614 
L 230.648051 186.977475 
L 230.850408 187.545861 
L 231.255122 201.755506 
L 231.45748 212.493938 
L 232.064551 275.25997 
L 232.469266 292.189747 
L 232.671623 294.869281 
L 232.87398 293.67161 
L 233.278694 268.743833 
L 233.683409 246.536188 
L 235.302267 182.876977 
L 235.504624 182.288292 
L 236.111695 201.126222 
L 236.314053 211.336867 
L 236.921124 272.580437 
L 237.325839 288.231346 
L 237.528196 291.316869 
L 237.730553 289.226021 
L 238.135267 265.617711 
L 238.539982 244.140847 
L 239.349411 213.651009 
L 239.754125 203.785455 
L 240.15884 193.716907 
L 240.361197 193.473313 
L 240.563554 198.852678 
L 240.968268 216.208745 
L 241.170626 223.678958 
L 241.777697 278.426691 
L 242.182412 294.057301 
L 242.384769 296.513539 
L 242.587126 293.570113 
L 242.99184 269.210721 
L 243.396555 251.509563 
L 245.21777 177.923901 
L 245.420127 182.105597 
L 246.027199 208.515237 
L 246.836627 280.943828 
L 247.038985 289.185422 
L 247.241342 292.311544 
L 247.443699 289.814707 
L 247.848413 266.592087 
L 249.467271 156.203444 
L 249.669628 148.246042 
L 249.871985 146.33789 
L 250.074343 146.500286 
L 250.2767 153.341215 
L 250.883772 184.988125 
L 251.6932 258.878279 
L 252.097915 273.189422 
L 252.300272 276.214046 
L 252.502629 276.47794 
L 252.704986 272.661635 
L 253.109701 240.385441 
L 253.91913 168.241043 
L 254.323844 152.671332 
L 254.728558 143.983149 
L 254.930916 142.74488 
L 255.133273 150.133895 
L 255.740345 187.058673 
L 256.549773 261.172122 
L 256.954488 276.417041 
L 257.156845 280.172448 
L 257.359202 281.816707 
L 257.561559 280.86263 
L 257.966274 252.402741 
L 258.573345 202.750181 
L 258.97806 181.395114 
L 259.382774 170.534886 
L 259.585131 167.14487 
L 259.787489 166.718581 
L 259.989846 169.296617 
L 260.39456 185.049023 
L 260.596917 198.203095 
L 261.203989 259.284269 
L 261.608704 277.716209 
L 261.811061 280.598737 
L 262.013418 279.827356 
L 262.418132 256.219046 
L 262.62049 244.384441 
L 263.025204 234.863979 
L 263.227561 232.103248 
L 263.429918 231.108573 
L 263.834633 232.367141 
L 264.03699 232.062649 
L 264.239347 232.996426 
L 264.441704 233.077624 
L 264.644062 232.81373 
L 264.846419 234.82338 
L 265.048776 238.802081 
L 265.251133 238.802081 
L 265.45349 242.760482 
L 266.060562 284.597737 
L 266.465277 297.244321 
L 266.667634 298.766783 
L 266.869991 294.645986 
L 267.072348 286.810382 
L 267.477063 260.705234 
L 268.084134 238.862979 
L 268.488849 228.733532 
L 269.09592 217.650009 
L 269.500635 213.752506 
L 269.702992 215.904253 
L 269.905349 219.456664 
L 270.107706 220.126547 
L 270.310063 226.338192 
L 270.917135 274.46829 
L 271.32185 286.262296 
L 271.524207 288.373443 
L 271.726564 286.688585 
L 274.15485 147.210768 
L 274.357208 140.146545 
L 274.559565 143.435062 
L 275.166636 168.220743 
L 275.976065 248.586436 
L 276.38078 260.969127 
L 276.583137 260.278944 
L 276.987851 238.761482 
L 277.392566 210.281293 
L 278.404352 154.173494 
L 278.606709 151.169169 
L 279.011423 138.136895 
L 279.213781 136.553534 
L 279.416138 140.755529 
L 280.023209 181.862003 
L 280.630281 252.159147 
L 281.034995 274.610386 
L 281.237353 279.421366 
L 281.43971 277.898904 
L 281.642067 272.093249 
L 282.249139 230.946177 
L 282.85621 197.797105 
L 283.867996 155.635058 
L 284.070354 154.457687 
L 284.272711 162.496286 
L 285.284497 244.364142 
L 285.689211 276.07195 
L 286.093926 290.606387 
L 286.296283 292.859631 
L 286.49864 291.073275 
L 286.700997 288.170448 
L 287.105712 257.599411 
L 287.712783 206.78978 
L 288.522212 163.978149 
L 288.724569 156.954525 
L 288.926927 155.046372 
L 289.129284 158.578484 
L 289.736355 191.910252 
L 290.545784 260.989427 
L 290.950499 276.05165 
L 291.152856 278.792082 
L 291.355213 278.87328 
L 291.55757 277.411717 
L 291.759927 265.110224 
L 292.771714 167.835053 
L 293.176428 146.155195 
L 293.581142 135.071671 
L 293.7835 133.366514 
L 293.985857 136.837727 
L 294.592928 162.009099 
L 295.402357 244.120548 
L 295.807072 258.614386 
L 296.009429 258.45199 
L 296.414143 238.43669 
L 297.830644 105.190818 
L 298.235358 92.057046 
L 298.437715 89.499309 
L 298.640073 89.763203 
L 298.84243 91.793152 
L 299.044787 99.730254 
L 299.449501 126.363189 
L 300.056573 204.374141 
L 300.461287 229.301918 
L 300.663645 235.249669 
L 300.866002 235.960152 
L 301.068359 229.22072 
L 301.473073 199.542861 
L 302.484859 95.548558 
L 302.687217 84.363538 
L 302.889574 84.465035 
L 303.091931 92.463035 
L 303.496646 101.009122 
L 303.90136 122.993473 
L 304.306074 150.600783 
L 304.913146 218.989776 
L 305.31786 244.03935 
L 305.520218 249.540513 
L 305.722575 247.774457 
L 305.924932 240.730533 
L 306.532004 201.248019 
L 307.54379 132.067346 
L 307.746147 121.978498 
L 307.948504 121.10562 
L 308.757933 152.996124 
L 309.162647 178.75618 
L 309.769719 241.014726 
L 310.174433 260.664635 
L 310.376791 265.008726 
L 310.579148 264.44034 
L 310.983862 241.298918 
L 312.198005 138.481986 
L 312.60272 126.992473 
L 312.805077 122.668681 
L 313.007434 123.216767 
L 313.209791 126.870676 
L 313.816863 154.132895 
L 314.01922 167.652358 
L 314.626292 229.504913 
L 315.031006 249.763807 
L 315.233364 254.290594 
L 315.435721 253.64101 
L 315.840435 235.087274 
L 316.24515 216.594435 
L 316.649864 204.719232 
L 317.054578 189.59611 
L 317.66165 182.166495 
L 317.864007 181.719906 
L 318.066364 180.826729 
L 318.268722 185.455013 
L 318.875793 207.337867 
L 319.685222 265.25232 
L 320.089937 277.878605 
L 320.292294 279.502564 
L 320.697008 271.66696 
L 321.101723 245.744507 
L 322.315866 168.728231 
L 322.72058 158.598784 
L 322.922937 156.304941 
L 323.125295 160.385139 
L 323.732366 187.687957 
L 324.541795 255.427366 
L 324.94651 269.555813 
L 325.148867 272.418041 
L 325.351224 272.47894 
L 325.553581 270.245995 
L 325.755938 258.0663 
L 326.970082 146.967174 
L 327.172439 140.71493 
L 327.374796 139.151869 
L 327.77951 133.650707 
L 327.981868 138.583484 
L 328.184225 147.271667 
L 328.791296 198.324892 
L 329.196011 241.542512 
L 329.398368 256.604736 
L 329.803083 266.592087 
L 330.00544 265.65831 
L 330.207797 260.116548 
L 330.814869 212.169146 
L 331.42194 174.391789 
L 331.826655 151.981149 
L 332.029012 149.11892 
L 332.231369 149.13922 
L 332.433726 149.321915 
L 332.636083 151.392464 
L 332.838441 155.878652 
L 333.243155 178.532886 
L 333.445512 187.444363 
L 334.052584 252.402741 
L 334.457298 273.940503 
L 334.659655 279.299569 
L 334.862013 276.924529 
L 335.266727 257.315218 
L 335.671442 233.24002 
L 336.48087 193.59511 
L 336.683228 188.581135 
L 336.885585 187.484962 
L 337.087942 181.374815 
L 337.290299 179.547861 
L 337.695014 185.942201 
L 338.099728 200.233044 
L 338.302085 206.038699 
L 339.111514 271.098574 
L 339.313871 277.229021 
L 339.516228 279.441666 
L 339.718586 275.422366 
L 340.1233 252.341843 
L 340.932729 208.39344 
L 342.349229 147.352865 
L 342.551587 147.271667 
L 343.158658 171.671657 
L 343.76573 233.706908 
L 344.170444 251.509563 
L 344.372801 256.219046 
L 344.575159 254.107899 
L 344.777516 247.266969 
L 345.18223 216.736532 
L 346.194016 135.051372 
L 346.598731 120.456036 
L 347.003445 113.9196 
L 347.205802 113.08732 
L 347.40816 116.233742 
L 347.610517 123.988148 
L 348.015231 149.788804 
L 348.82466 239.857654 
L 349.229374 256.767132 
L 349.431732 256.016051 
L 349.634089 250.291594 
L 349.836446 239.289269 
L 351.050589 136.066346 
L 351.455304 117.9186 
L 351.860018 109.169518 
L 352.062375 108.27634 
L 352.264733 111.869351 
L 352.46709 122.831077 
L 353.276519 204.962826 
L 353.681233 242.45599 
L 354.085947 262.410391 
L 354.288305 267.627361 
L 354.490662 268.195747 
L 354.693019 265.983102 
L 355.097733 224.43004 
L 355.704805 151.453362 
L 356.109519 127.033072 
L 356.716591 109.047721 
L 356.918948 107.971848 
L 357.121306 112.721929 
L 357.52602 138.055697 
L 357.728377 150.600783 
L 358.740163 244.993426 
L 359.144878 257.822706 
L 359.347235 259.66996 
L 359.549592 259.345168 
L 359.751949 245.500913 
L 360.763735 126.241392 
L 361.16845 107.383163 
L 361.573164 96.401137 
L 361.775521 94.127594 
L 361.977879 97.375513 
L 362.180236 104.29764 
L 362.58495 129.793803 
L 363.394379 217.548512 
L 363.799093 235.006076 
L 364.001451 235.818055 
L 364.203808 229.992101 
L 364.406165 220.045349 
L 365.013237 151.230068 
L 365.620308 87.367863 
L 366.025023 71.371862 
L 366.429737 65.261715 
L 366.632094 65.748903 
L 366.834451 68.367537 
L 367.036809 76.994822 
L 367.441523 105.881 
L 368.048595 184.683632 
L 368.453309 214.889278 
L 368.655666 223.333867 
L 368.858024 225.688608 
L 369.060381 221.831705 
L 369.262738 212.067648 
L 369.86981 149.179819 
L 370.476881 91.590157 
L 370.881596 75.127268 
L 371.083953 74.68068 
L 371.28631 75.391162 
L 371.488667 79.288664 
L 371.691024 85.45971 
L 372.298096 124.069346 
L 373.107525 208.271643 
L 373.512239 230.296593 
L 373.714597 234.620385 
L 374.119311 233.930202 
L 374.321668 221.303918 
L 375.333454 118.426087 
L 375.738169 105.292315 
L 375.940526 102.612782 
L 376.142883 101.516609 
L 376.34524 106.652381 
L 376.749955 132.656032 
L 377.559383 191.037374 
L 377.964098 225.384116 
L 378.368812 239.065974 
L 378.57117 239.289269 
L 378.773527 233.402416 
L 378.975884 222.278293 
L 380.392384 106.632082 
L 380.797099 96.786827 
L 381.201813 89.255716 
L 381.40417 92.990822 
L 382.011242 129.712605 
L 382.820671 211.905252 
L 383.225385 227.880954 
L 383.427743 228.530537 
L 383.6301 223.23237 
L 384.034814 201.166821 
L 385.0466 128.31194 
L 385.451315 111.747554 
L 385.653672 111.280665 
L 385.856029 115.036072 
L 386.058386 122.607783 
L 387.070172 192.052348 
L 387.474887 231.859654 
L 387.879601 253.580112 
L 388.284316 262.653985 
L 388.68903 265.150823 
L 388.891387 259.446665 
L 389.700816 216.229044 
L 390.307888 205.104922 
L 390.914959 192.458338 
L 391.117316 197.20842 
L 391.926745 236.487939 
L 392.533817 280.355143 
L 392.938531 292.636336 
L 393.140888 294.48359 
L 393.343246 294.037001 
L 393.545603 294.50389 
L 393.74796 285.612712 
L 394.355032 244.749832 
L 395.569175 188.682632 
L 395.771532 182.714581 
L 395.973889 183.912252 
L 396.176247 192.174145 
L 396.783318 233.909903 
L 397.188033 272.154148 
L 397.592747 289.855306 
L 397.795104 292.616037 
L 397.997461 290.0989 
L 398.402176 272.093249 
L 400.628105 145.383814 
L 400.830462 148.205443 
L 401.03282 158.091296 
L 401.639891 214.726882 
L 402.044606 258.756482 
L 402.44932 278.934179 
L 402.651677 282.912879 
L 402.854034 281.26862 
L 403.258749 263.202071 
L 403.663463 234.985776 
L 404.877607 129.692306 
L 405.282321 109.311615 
L 405.484678 105.129919 
L 405.687035 106.205792 
L 405.889393 116.639732 
L 406.294107 153.747205 
L 406.901179 230.621385 
L 407.305893 254.513888 
L 407.50825 260.075949 
L 407.710607 259.548163 
L 408.115322 238.456989 
L 409.73418 107.09897 
L 409.936537 102.206792 
L 410.138894 102.064696 
L 410.341251 106.632082 
L 410.948323 142.480986 
L 411.15068 158.273992 
L 411.757752 228.368141 
L 412.162466 252.260645 
L 412.364823 258.695584 
L 412.56718 260.46164 
L 412.971895 242.537187 
L 414.388395 145.14022 
L 414.79311 131.701955 
L 415.197824 125.084321 
L 415.400181 131.803453 
L 416.20961 193.899602 
L 416.614325 238.802081 
L 417.019039 261.699909 
L 417.221396 265.922203 
L 417.423753 265.374117 
L 417.828468 249.337518 
L 419.244968 152.32624 
L 419.649683 138.827078 
L 419.85204 135.031072 
L 420.054397 136.452037 
L 420.256754 145.038722 
L 421.066183 209.773806 
L 421.673255 264.379442 
L 422.077969 280.314544 
L 422.280326 282.770783 
L 422.482684 282.121199 
L 422.685041 281.958803 
L 423.089755 251.489264 
L 423.899184 183.079972 
L 424.708613 144.145545 
L 424.91097 140.999123 
L 425.113327 144.957524 
L 425.518042 170.819079 
L 425.720399 182.491287 
L 426.529828 256.320543 
L 426.934542 274.691584 
L 427.136899 279.116874 
L 427.339257 279.908554 
L 427.541614 280.131849 
L 427.743971 271.626361 
L 428.148685 231.717558 
L 428.755757 170.514586 
L 429.160471 145.160519 
L 429.565186 137.000123 
L 429.9699 140.877326 
L 430.374615 156.913926 
L 430.576972 168.423738 
L 431.386401 243.552162 
L 431.791115 255.65066 
L 431.993472 253.64101 
L 432.398187 233.564812 
L 433.207616 169.215419 
L 434.017044 99.649056 
L 434.219402 94.817777 
L 435.02883 121.9176 
L 435.433545 146.622083 
L 436.040617 217.000425 
L 436.445331 239.268969 
L 436.647688 244.343842 
L 436.850045 243.673959 
L 437.25476 223.313568 
L 437.659474 188.804429 
L 438.468903 116.193143 
L 438.67126 106.571183 
L 438.873617 107.525259 
L 439.075975 114.548884 
L 439.278332 114.102295 
L 439.480689 116.31494 
L 439.885403 134.645382 
L 440.290118 159.106271 
L 440.897189 231.656659 
L 441.301904 253.701909 
L 441.504261 259.060975 
L 441.706618 259.588762 
L 442.111333 245.034025 
L 442.920762 193.635709 
L 443.527833 159.187469 
L 444.134905 136.71593 
L 444.337262 134.158194 
L 444.539619 140.491636 
L 445.146691 185.008424 
L 445.753762 253.356817 
L 446.158477 274.305894 
L 446.360834 279.198072 
L 446.563191 277.229021 
L 446.967906 258.553487 
L 448.586763 150.093296 
L 448.991478 137.061022 
L 449.193835 134.767179 
L 449.396192 141.344215 
L 450.003264 181.232718 
L 450.812693 260.299244 
L 451.217407 273.433016 
L 451.419764 273.554813 
L 451.824479 256.584437 
L 452.43155 206.78978 
L 453.038622 165.399114 
L 453.443336 148.570834 
L 453.848051 140.796128 
L 454.050408 144.125245 
L 454.252765 153.990799 
L 454.65748 182.044698 
L 454.859837 190.38779 
L 455.669266 254.310893 
L 456.07398 267.688259 
L 456.276337 269.190422 
L 456.478694 267.221371 
L 456.681052 264.156148 
L 456.883409 256.259645 
L 457.288123 229.586111 
L 457.692838 218.766481 
L 457.895195 219.456664 
L 458.299909 225.140522 
L 458.502267 224.998425 
L 458.906981 221.22272 
L 459.109338 221.750507 
L 459.514053 225.851004 
L 459.71641 230.093598 
L 460.728196 287.074275 
L 461.13291 291.438666 
L 461.537625 288.170448 
L 461.739982 279.360468 
L 462.144696 245.297919 
L 463.561197 177.010424 
L 463.763554 169.844703 
L 463.965911 171.001774 
L 464.572983 190.225394 
L 465.382412 256.340843 
L 465.584769 263.161472 
L 465.787126 265.841005 
L 465.989483 263.445665 
L 467.608341 172.097947 
L 468.620127 151.189469 
L 468.822484 154.274992 
L 469.429556 180.177145 
L 470.036627 236.163147 
L 470.441342 253.722208 
L 470.643699 256.320543 
L 470.846056 253.783107 
L 471.857842 203.521562 
L 472.869628 173.661008 
L 473.071985 174.148195 
L 473.274343 172.38214 
L 473.4767 173.620409 
L 473.679057 177.355515 
L 473.881414 183.851353 
L 474.083772 184.988125 
L 474.286129 192.559836 
L 474.8932 243.998751 
L 475.297915 260.03535 
L 475.500272 261.679609 
L 475.702629 259.66996 
L 476.107344 235.61506 
L 476.512058 213.894603 
L 477.321487 182.816079 
L 477.726201 162.922576 
L 477.928558 159.410763 
L 478.333273 164.039048 
L 478.53563 168.444038 
L 479.142702 193.047023 
L 479.952131 259.933853 
L 480.356845 269.65731 
L 480.559202 269.25132 
L 480.963917 247.449665 
L 482.785131 120.740229 
L 482.987489 114.914275 
L 483.189846 112.31594 
L 483.392203 117.878001 
L 483.999275 157.218418 
L 484.606346 227.393766 
L 485.011061 250.311893 
L 485.213418 254.655985 
L 485.415775 255.589762 
L 485.82049 236.081949 
L 486.225204 205.287618 
L 487.23699 116.497635 
L 487.439347 113.452711 
L 487.844062 119.928249 
L 488.248776 138.299291 
L 489.260562 214.80808 
L 489.665277 246.536188 
L 490.069991 261.436016 
L 490.272348 263.750158 
L 490.474705 262.633686 
L 490.677063 260.887929 
L 490.87942 251.286269 
L 491.891206 172.625733 
L 492.29592 155.14787 
L 492.498277 147.860352 
L 492.700635 145.871002 
L 492.902992 147.474662 
L 493.105349 152.224743 
L 493.712421 185.292617 
L 494.52185 256.320543 
L 495.128921 274.346493 
L 495.331278 274.48859 
L 495.533636 273.879605 
L 495.735993 266.429691 
L 496.950136 176.157845 
L 497.557208 152.123245 
L 497.759565 148.814428 
L 497.961922 151.981149 
L 498.568994 183.059673 
L 499.378422 255.873954 
L 499.58078 262.613386 
L 499.783137 265.069625 
L 499.985494 261.801406 
L 500.187851 253.397416 
L 500.794923 216.980126 
L 500.99728 211.945851 
L 501.401995 199.035374 
L 501.806709 187.931551 
L 502.009066 187.484962 
L 502.211423 189.514912 
L 502.413781 190.144196 
L 502.616138 188.499937 
L 503.020852 198.081298 
L 503.223209 198.629384 
L 503.425567 206.038699 
L 504.032638 256.03635 
L 504.437353 268.926528 
L 504.63971 270.530188 
L 504.842067 268.195747 
L 505.246782 244.161147 
L 505.651496 220.674633 
L 507.270354 148.530235 
L 507.472711 145.465012 
L 507.675068 148.814428 
L 508.28214 176.462338 
L 508.889211 233.686609 
L 509.293926 250.575787 
L 509.496283 254.047 
L 509.69864 252.240345 
L 510.103354 229.017725 
L 511.722212 124.109945 
L 512.126927 106.591483 
L 512.329284 108.154544 
L 512.936355 142.054697 
L 513.34107 180.461338 
L 513.745784 223.333867 
L 514.150499 245.744507 
L 514.352856 251.24567 
L 514.555213 251.732858 
L 514.75757 242.963477 
L 516.174071 147.53556 
L 516.376428 146.459687 
L 516.781142 155.655357 
L 516.9835 152.955525 
L 517.185857 153.483311 
L 517.590571 170.940876 
L 517.792928 175.122571 
L 517.995286 185.678307 
L 518.4 224.795431 
L 518.4 224.795431 
" clip-path="url(#pe98a270cee)" style="fill: none; stroke: #1f77b4; stroke-width: 1.5; stroke-linecap: square"/>
   </g>
   <g id="line2d_14">
    <path d="M 72 276.538573 
L 72.202357 276.538573 
L 72.607072 284.020174 
L 72.809429 284.98412 
L 73.011786 279.563433 
L 73.4165 255.809279 
L 74.225929 229.238952 
L 75.237715 171.864481 
L 75.440073 169.071234 
L 75.64243 171.488269 
L 76.047144 191.143243 
L 76.654216 245.057031 
L 77.05893 275.454345 
L 77.261287 281.316009 
L 77.666002 271.141484 
L 78.070716 249.033547 
L 78.475431 227.162467 
L 78.880145 216.209547 
L 80.094288 151.606841 
L 80.296646 159.003515 
L 81.915503 275.924753 
L 82.320218 282.012431 
L 82.522575 280.203311 
L 82.927289 266.977634 
L 83.129646 263.241866 
L 83.736718 232.905368 
L 83.939075 227.370794 
L 84.141432 226.247841 
L 84.34379 229.445517 
L 84.546147 236.54518 
L 85.355576 245.889311 
L 85.76029 251.845419 
L 86.367362 282.588724 
L 86.772076 299.028407 
L 86.974433 306.213595 
L 87.176791 307.8 
L 87.379148 302.679844 
L 88.593291 256.640394 
L 88.795648 257.214434 
L 88.998005 257.376329 
L 89.605077 250.194217 
L 90.009791 240.175304 
L 90.212149 240.402893 
L 90.414506 242.86274 
L 90.616863 243.811709 
L 90.81922 249.950254 
L 91.628649 299.772499 
L 91.831006 302.470492 
L 92.033364 299.103233 
L 92.235721 293.170689 
L 92.842792 254.239209 
L 93.04515 248.193883 
L 93.247507 249.861203 
L 93.652221 244.684112 
L 94.259293 232.005171 
L 94.46165 232.07487 
L 94.664007 228.201667 
L 94.866364 228.175737 
L 95.068722 228.961973 
L 95.473436 241.344037 
L 95.87815 270.197159 
L 96.282865 295.77059 
L 96.485222 296.08317 
L 96.889937 289.059263 
L 97.294651 272.172524 
L 97.497008 258.277756 
L 97.901723 246.850063 
L 98.10408 245.062463 
L 98.306437 246.73143 
L 98.913509 234.826154 
L 99.52058 225.01614 
L 99.722937 226.614939 
L 100.330009 241.382501 
L 101.139438 293.118942 
L 101.544152 295.851706 
L 101.74651 293.518718 
L 102.151224 272.903759 
L 102.353581 255.925237 
L 102.758296 248.011242 
L 102.960653 247.173427 
L 103.16301 246.987087 
L 103.770082 234.441353 
L 104.174796 223.479701 
L 104.377153 221.591301 
L 104.57951 223.15381 
L 104.984225 231.232402 
L 105.388939 251.55562 
L 105.996011 290.561081 
L 106.198368 293.305702 
L 106.400725 293.778201 
L 106.603083 291.903363 
L 106.80544 284.075959 
L 107.412511 250.715182 
L 107.614869 245.979602 
L 107.817226 244.228678 
L 108.019583 244.659959 
L 109.031369 205.003276 
L 109.233726 205.388149 
L 109.638441 217.881365 
L 110.043155 234.088234 
L 110.852584 286.288177 
L 111.054941 289.824857 
L 111.257298 288.834711 
L 111.459655 288.650479 
L 111.662013 283.577026 
L 112.673799 233.150232 
L 114.090299 181.303133 
L 114.292656 181.771417 
L 114.495014 189.960714 
L 115.709157 270.359686 
L 116.113871 284.287131 
L 116.316228 284.501342 
L 116.720943 273.285295 
L 117.328015 245.858653 
L 117.732729 222.84629 
L 118.137443 188.473393 
L 118.946872 154.200607 
L 119.149229 151.980965 
L 119.351587 157.131883 
L 119.756301 185.882845 
L 120.56573 258.484701 
L 121.172801 284.416453 
L 121.375159 283.63672 
L 121.577516 277.654409 
L 122.184587 245.072727 
L 122.589302 224.944706 
L 123.398731 194.748965 
L 123.601088 195.106626 
L 123.803445 199.983949 
L 124.005802 200.813589 
L 124.410517 213.431493 
L 124.815231 232.888415 
L 125.422303 286.158356 
L 125.62466 294.483662 
L 125.827017 296.693834 
L 126.029374 294.304925 
L 126.231732 289.798355 
L 128.052947 181.627222 
L 128.660018 153.005111 
L 128.862375 156.488065 
L 129.064733 169.273051 
L 130.076519 268.668931 
L 130.278876 280.102846 
L 130.481233 282.189535 
L 130.68359 282.21476 
L 130.885947 278.839572 
L 131.088305 273.60081 
L 132.302448 201.662169 
L 132.707162 171.795651 
L 133.314234 144.940927 
L 133.516591 139.943595 
L 133.718948 143.435607 
L 134.123663 166.060858 
L 134.528377 199.867201 
L 134.933092 248.143065 
L 135.135449 263.374832 
L 135.337806 269.686609 
L 135.540163 271.917159 
L 135.74252 271.136317 
L 135.944878 265.231113 
L 136.147235 254.475772 
L 136.754306 213.293328 
L 136.956664 204.718831 
L 137.159021 205.914213 
L 137.361378 197.556518 
L 137.563735 195.202614 
L 137.766092 195.394436 
L 137.96845 196.175563 
L 138.170807 198.154969 
L 138.373164 197.594504 
L 138.575521 198.282312 
L 138.980236 213.07796 
L 139.587307 252.522122 
L 139.992022 277.906888 
L 140.194379 282.922417 
L 140.599093 283.843557 
L 141.003808 262.755888 
L 141.408522 235.388622 
L 142.217951 213.165154 
L 142.420308 213.407487 
L 142.622665 215.454445 
L 142.825023 213.494957 
L 143.02738 209.729007 
L 143.229737 208.283591 
L 143.836809 223.709011 
L 144.039166 229.619857 
L 144.241523 239.000088 
L 144.848595 277.641553 
L 145.050952 280.363995 
L 145.253309 279.799133 
L 145.455666 278.314957 
L 145.658024 270.003499 
L 146.467452 223.487234 
L 147.074524 213.464181 
L 147.276881 213.438838 
L 147.479238 211.833825 
L 147.681596 208.726393 
L 147.883953 211.075963 
L 148.08631 214.927623 
L 149.098096 248.046787 
L 149.705168 278.122703 
L 150.109882 282.397278 
L 150.312239 282.428824 
L 151.72874 235.969935 
L 151.931097 230.181672 
L 152.133454 228.653596 
L 152.538169 232.175612 
L 152.740526 230.97965 
L 152.942883 231.405089 
L 153.549955 238.630123 
L 154.157026 255.794863 
L 154.966455 286.698589 
L 155.168812 289.116454 
L 155.37117 285.747506 
L 155.978241 257.982179 
L 157.394742 180.833393 
L 157.799456 167.559353 
L 158.001813 164.737057 
L 158.20417 167.899261 
L 158.608885 186.624785 
L 159.620671 273.279567 
L 159.823028 277.57769 
L 160.025385 278.112769 
L 160.227743 272.620364 
L 160.632457 239.844096 
L 161.037171 215.343987 
L 162.048957 177.977899 
L 162.251315 176.420777 
L 162.453672 173.762553 
L 162.656029 178.453817 
L 163.060743 194.196985 
L 163.667815 231.191435 
L 164.274887 279.889399 
L 164.477244 283.950182 
L 164.679601 283.408006 
L 165.084316 271.166494 
L 166.096102 218.956829 
L 166.298459 218.401904 
L 166.90553 197.425814 
L 167.310245 173.039561 
L 167.512602 170.470527 
L 167.714959 175.622256 
L 168.726745 243.61894 
L 169.13146 271.801785 
L 169.333817 277.065457 
L 169.536174 276.620114 
L 169.738531 275.306413 
L 169.940888 269.549203 
L 171.559746 170.043568 
L 171.762103 169.8558 
L 171.964461 166.813355 
L 172.369175 156.709516 
L 172.571532 158.834539 
L 172.773889 168.956223 
L 174.19039 279.831314 
L 174.392747 281.902877 
L 174.595104 282.645156 
L 174.797461 275.861784 
L 175.404533 230.576348 
L 175.60689 223.269088 
L 175.809248 221.254807 
L 176.011605 212.90311 
L 176.416319 185.920224 
L 177.225748 170.190005 
L 177.428105 171.432324 
L 177.630462 179.841981 
L 178.237534 226.238311 
L 178.642248 266.26753 
L 178.844606 281.20344 
L 179.046963 286.3908 
L 179.24932 288.229271 
L 179.451677 287.070814 
L 179.856392 270.344745 
L 180.261106 242.20087 
L 180.868178 210.698335 
L 181.272892 178.295252 
L 181.677607 165.196724 
L 181.879964 155.811196 
L 182.082321 152.273437 
L 182.284678 153.452205 
L 182.487035 160.873294 
L 183.094107 212.403422 
L 183.701179 258.356701 
L 184.105893 267.430451 
L 184.30825 268.721794 
L 184.510607 266.27964 
L 185.117679 245.789219 
L 186.129465 152.078976 
L 186.331822 144.934989 
L 186.53418 144.761801 
L 186.736537 145.92667 
L 187.141251 163.492817 
L 188.760109 265.695763 
L 189.164823 272.308031 
L 189.36718 269.861955 
L 189.771895 250.252614 
L 190.581324 205.009362 
L 191.188395 160.211153 
L 191.390752 156.359587 
L 191.59311 158.434936 
L 191.795467 163.863975 
L 193.00961 231.909118 
L 193.616682 268.476147 
L 193.819039 273.674668 
L 194.021396 275.986809 
L 194.223753 274.307357 
L 194.426111 267.958778 
L 194.830825 243.587471 
L 195.235539 217.086702 
L 195.437897 210.078893 
L 195.842611 190.873117 
L 196.044968 190.437193 
L 196.449683 201.673278 
L 197.056754 217.454192 
L 197.663826 235.593406 
L 197.866183 246.205094 
L 198.270898 276.877205 
L 198.675612 287.940276 
L 198.877969 285.07121 
L 199.080326 277.677526 
L 199.889755 217.129876 
L 200.901541 185.470451 
L 201.508613 165.809471 
L 201.71097 171.077525 
L 202.115684 190.240629 
L 202.722756 231.1669 
L 203.127471 264.912891 
L 203.329828 270.228538 
L 203.532185 268.438509 
L 203.936899 255.707597 
L 205.151043 196.747277 
L 205.555757 180.745289 
L 205.960471 172.673 
L 206.162829 170.13927 
L 206.365186 171.831319 
L 206.567543 178.421482 
L 207.579329 236.164479 
L 207.984044 263.087786 
L 208.186401 268.074349 
L 208.388758 268.758858 
L 208.591115 267.665294 
L 208.793472 261.441409 
L 209.805258 202.188104 
L 210.007616 198.803388 
L 211.221759 139.934771 
L 211.424116 141.628146 
L 211.82883 173.329293 
L 212.840617 254.573854 
L 213.042974 261.935946 
L 213.245331 263.638385 
L 213.447688 262.196718 
L 213.650045 255.575077 
L 214.864189 180.225141 
L 215.268903 148.316048 
L 216.078332 115.415052 
L 216.280689 116.62417 
L 216.483046 125.683333 
L 217.292475 200.99692 
L 217.697189 239.104302 
L 218.304261 258.889927 
L 218.506618 256.056091 
L 219.11369 235.24509 
L 219.720762 190.578407 
L 220.327833 150.266027 
L 220.53019 148.907048 
L 220.732548 153.817585 
L 222.75612 274.459266 
L 222.958477 279.063261 
L 223.160834 280.778618 
L 223.363191 277.192443 
L 223.767906 258.251809 
L 224.374977 226.639412 
L 224.982049 214.827568 
L 225.791478 228.787595 
L 225.993835 229.463733 
L 226.398549 240.702712 
L 226.600907 242.295336 
L 226.803264 247.211913 
L 227.005621 257.75842 
L 227.410335 288.488668 
L 227.612693 295.632272 
L 227.81505 298.284265 
L 228.017407 296.70648 
L 228.219764 292.502169 
L 229.029193 238.619804 
L 229.23155 238.687144 
L 229.433908 239.496335 
L 229.636265 236.829636 
L 230.040979 217.3199 
L 230.648051 194.178407 
L 230.850408 193.398341 
L 231.052765 197.776261 
L 231.45748 217.173117 
L 232.469266 284.752224 
L 232.87398 281.37566 
L 233.076337 277.219962 
L 234.897552 197.083609 
L 235.099909 194.409452 
L 235.504624 183.196947 
L 235.706981 186.471458 
L 236.314053 217.943931 
L 237.325839 284.598268 
L 237.528196 285.327678 
L 237.730553 283.067901 
L 237.93291 276.340949 
L 238.944696 223.583375 
L 239.551768 202.666383 
L 239.754125 200.015749 
L 239.956482 199.271838 
L 240.15884 195.09196 
L 240.361197 195.388024 
L 240.563554 199.690144 
L 240.968268 217.066234 
L 241.372983 239.670177 
L 241.980054 280.928683 
L 242.182412 286.253665 
L 242.384769 288.487669 
L 242.587126 287.714516 
L 242.789483 280.733284 
L 243.598912 236.342493 
L 244.205984 214.463218 
L 244.408341 203.418448 
L 244.813055 195.396749 
L 245.21777 183.357751 
L 245.420127 185.59402 
L 245.824841 201.132529 
L 247.038985 281.726433 
L 247.443699 283.70202 
L 247.646056 278.282085 
L 248.455485 229.641728 
L 249.669628 153.848496 
L 249.871985 146.525316 
L 250.074343 144.431087 
L 250.2767 150.564702 
L 250.681414 177.215669 
L 251.6932 255.905379 
L 251.895558 264.438037 
L 252.300272 268.860396 
L 252.502629 266.916836 
L 252.907344 253.297214 
L 253.109701 243.146426 
L 254.323844 149.957615 
L 254.728558 144.647777 
L 254.930916 145.157636 
L 255.133273 149.41441 
L 255.537987 174.44113 
L 256.954488 276.438552 
L 257.156845 280.16177 
L 257.359202 277.495163 
L 257.763917 258.71677 
L 259.180417 169.457153 
L 259.382774 165.89079 
L 259.585131 165.433183 
L 259.989846 175.277875 
L 260.596917 198.985884 
L 261.608704 278.821344 
L 261.811061 282.059263 
L 262.013418 281.867181 
L 262.215775 277.083882 
L 262.62049 247.948541 
L 263.025204 220.276687 
L 263.227561 217.379454 
L 263.632276 221.942233 
L 263.834633 222.356704 
L 264.239347 224.156994 
L 264.846419 231.440917 
L 265.048776 231.811363 
L 265.251133 235.361719 
L 265.655848 251.980279 
L 266.262919 287.895664 
L 266.465277 291.216603 
L 266.667634 289.427733 
L 266.869991 285.392694 
L 267.274705 270.491425 
L 267.67942 251.259072 
L 268.691206 222.740635 
L 269.09592 219.998765 
L 269.298277 216.471022 
L 269.500635 215.034103 
L 269.905349 222.63388 
L 270.107706 225.729707 
L 270.512421 239.668389 
L 271.119492 275.054175 
L 271.32185 279.883332 
L 271.524207 280.249378 
L 271.726564 278.708893 
L 271.928921 273.17671 
L 272.73835 228.238223 
L 273.345422 201.574798 
L 274.15485 156.906672 
L 274.357208 150.434449 
L 274.559565 148.606572 
L 274.761922 152.296505 
L 275.166636 174.73383 
L 275.368994 188.533528 
L 275.976065 244.086197 
L 276.178422 252.632835 
L 276.38078 256.376885 
L 276.583137 257.975354 
L 276.987851 239.147619 
L 278.606709 147.864662 
L 279.213781 136.605033 
L 279.416138 138.999023 
L 279.820852 164.272981 
L 280.832638 260.966999 
L 281.237353 272.65934 
L 281.43971 272.649221 
L 281.844424 256.016764 
L 282.451496 220.772178 
L 283.260925 173.781298 
L 283.867996 158.509287 
L 284.070354 158.407941 
L 284.272711 161.102243 
L 284.475068 171.285502 
L 285.891568 281.158008 
L 286.093926 283.615059 
L 286.296283 283.312721 
L 286.49864 280.146139 
L 287.105712 255.124475 
L 287.712783 211.76725 
L 288.319855 171.594771 
L 288.926927 161.499644 
L 289.129284 161.394253 
L 289.331641 167.965029 
L 289.736355 194.29979 
L 290.545784 259.841208 
L 290.748141 270.756779 
L 291.152856 277.976121 
L 291.355213 277.072628 
L 291.55757 271.168233 
L 291.759927 261.198741 
L 293.378785 137.42886 
L 293.581142 136.70445 
L 293.7835 137.786366 
L 293.985857 140.391441 
L 294.188214 147.081532 
L 294.592928 170.150304 
L 294.997643 206.008167 
L 295.402357 244.449087 
L 295.807072 262.056808 
L 296.009429 262.88119 
L 296.211786 257.718216 
L 296.6165 228.251335 
L 297.021215 190.667218 
L 297.425929 155.525124 
L 298.033001 95.751072 
L 298.437715 85.452614 
L 298.640073 86.53175 
L 299.044787 104.226118 
L 299.449501 132.79364 
L 300.461287 233.748464 
L 300.663645 234.19743 
L 300.866002 234.100507 
L 301.068359 229.5757 
L 301.473073 207.620796 
L 302.080145 148.588628 
L 302.687217 81.327284 
L 302.889574 68.539582 
L 303.091931 68.63401 
L 303.496646 90.299666 
L 304.103717 142.232551 
L 304.913146 214.734972 
L 305.31786 244.828461 
L 305.520218 251.042724 
L 305.722575 250.859842 
L 305.924932 241.417583 
L 307.54379 131.053063 
L 307.948504 120.991274 
L 308.150861 118.437297 
L 308.353218 126.830271 
L 309.567362 215.506562 
L 309.972076 254.549122 
L 310.174433 262.824042 
L 310.376791 262.664845 
L 310.579148 261.319745 
L 310.781505 256.242799 
L 311.590934 194.015981 
L 312.198005 143.1439 
L 312.60272 122.535317 
L 312.805077 122.635091 
L 313.007434 122.96226 
L 313.209791 125.683111 
L 313.412149 133.063717 
L 314.423935 210.778974 
L 314.828649 241.671896 
L 315.233364 256.483306 
L 315.435721 253.534617 
L 315.638078 245.323251 
L 316.24515 210.514443 
L 316.447507 202.831657 
L 316.649864 200.299276 
L 317.054578 189.214957 
L 317.256936 183.668432 
L 317.459293 182.561743 
L 317.66165 180.503921 
L 317.864007 181.864316 
L 318.066364 184.35381 
L 318.471079 196.07351 
L 319.280508 235.908656 
L 319.685222 260.858953 
L 320.089937 270.368337 
L 320.292294 271.183167 
L 320.494651 269.166964 
L 321.30408 235.93316 
L 321.708794 213.899363 
L 322.113509 182.920011 
L 322.72058 160.506755 
L 322.922937 159.52961 
L 323.125295 160.712438 
L 323.327652 167.255263 
L 323.934723 206.04431 
L 324.541795 250.204447 
L 324.94651 266.525046 
L 325.148867 270.048493 
L 325.351224 267.704381 
L 325.958296 241.145558 
L 327.374796 132.27196 
L 327.577153 133.565005 
L 327.981868 139.572794 
L 328.386582 161.111677 
L 328.791296 195.701439 
L 329.600725 264.151848 
L 329.803083 268.744615 
L 330.00544 270.369169 
L 330.207797 264.378916 
L 330.410154 252.838944 
L 331.017226 200.396098 
L 332.029012 140.493701 
L 332.231369 139.094216 
L 332.433726 143.392956 
L 332.838441 160.883647 
L 333.243155 184.794035 
L 333.850227 229.070732 
L 334.254941 263.349631 
L 334.457298 272.31678 
L 334.659655 274.219792 
L 334.862013 271.792801 
L 335.266727 253.167294 
L 335.671442 228.310031 
L 336.885585 183.404971 
L 337.087942 183.130587 
L 337.290299 179.009398 
L 337.492656 179.657061 
L 338.7068 240.781864 
L 339.111514 270.024156 
L 339.313871 276.239133 
L 339.516228 276.871791 
L 339.718586 274.764453 
L 339.920943 268.033123 
L 340.1233 256.849861 
L 340.528015 227.318529 
L 342.349229 154.145414 
L 342.551587 155.235599 
L 342.753944 158.86754 
L 343.158658 180.262977 
L 344.170444 250.414718 
L 344.372801 252.342937 
L 344.575159 252.547338 
L 344.979873 235.862989 
L 345.789302 181.430038 
L 346.598731 115.948891 
L 346.801088 113.329702 
L 347.003445 112.578605 
L 347.205802 112.719723 
L 347.40816 117.791653 
L 347.812874 138.68812 
L 348.419946 193.137452 
L 349.027017 246.381945 
L 349.229374 251.154254 
L 349.431732 252.14522 
L 349.634089 246.714833 
L 350.038803 221.645171 
L 351.455304 114.943774 
L 351.657661 109.253035 
L 351.860018 107.821369 
L 352.062375 108.132044 
L 352.264733 112.260334 
L 352.46709 121.745589 
L 352.871804 156.039922 
L 353.88359 255.064792 
L 354.085947 259.418954 
L 354.288305 259.805903 
L 354.490662 257.108919 
L 354.895376 241.331109 
L 355.300091 217.211476 
L 356.109519 121.406723 
L 356.311877 109.70505 
L 356.514234 106.816635 
L 356.716591 108.834133 
L 356.918948 109.403156 
L 357.121306 113.88236 
L 357.52602 136.096117 
L 357.930734 171.487409 
L 358.537806 237.576605 
L 358.94252 258.561941 
L 359.144878 259.143583 
L 359.347235 256.638951 
L 359.549592 248.970834 
L 360.156664 209.100372 
L 361.16845 96.597621 
L 361.370807 93.358636 
L 361.775521 98.282974 
L 362.180236 108.044657 
L 362.58495 130.372729 
L 363.192022 203.932904 
L 363.596736 237.974771 
L 363.799093 242.083057 
L 364.001451 242.228008 
L 364.203808 236.506518 
L 364.608522 207.837713 
L 365.417951 120.567981 
L 365.822665 71.937036 
L 366.025023 58.005022 
L 366.22738 55.8 
L 366.429737 58.684987 
L 366.632094 63.652401 
L 367.239166 94.040623 
L 367.64388 131.814457 
L 368.250952 205.185741 
L 368.453309 218.667667 
L 368.655666 223.56149 
L 368.858024 223.60253 
L 369.060381 219.403345 
L 369.262738 212.892132 
L 369.465095 201.242958 
L 370.881596 63.809391 
L 371.083953 60.573551 
L 371.28631 63.998174 
L 371.488667 70.981248 
L 372.095739 111.132338 
L 372.905168 190.854847 
L 373.309882 224.24455 
L 373.512239 230.990675 
L 373.714597 233.126893 
L 374.321668 217.576264 
L 374.726383 189.960613 
L 375.535811 102.778482 
L 375.738169 94.320788 
L 375.940526 94.571305 
L 376.34524 100.892828 
L 376.547597 110.434183 
L 377.154669 160.009218 
L 377.964098 226.397829 
L 378.166455 240.347204 
L 378.368812 246.601013 
L 378.57117 245.565204 
L 378.773527 238.857092 
L 379.785313 156.864791 
L 380.392384 103.176049 
L 380.594742 93.815448 
L 380.797099 94.303116 
L 381.201813 100.926988 
L 381.40417 102.059288 
L 381.606528 105.965708 
L 382.011242 133.29031 
L 383.023028 224.857466 
L 383.225385 229.291412 
L 383.6301 222.114182 
L 383.832457 216.418168 
L 384.237171 194.170289 
L 384.237171 194.170289 
" clip-path="url(#pe98a270cee)" style="fill: none; stroke: #ff7f0e; stroke-width: 1.5; stroke-linecap: square"/>
   </g>
   <g id="line2d_15">
    <path d="M 384.439529 177.966396 
L 384.844243 158.582695 
L 385.653672 122.142978 
L 385.856029 117.579168 
L 386.058386 117.170156 
L 386.260743 122.256392 
L 386.665458 143.855293 
L 387.070172 176.687799 
L 387.677244 224.190044 
L 388.081958 237.453408 
L 388.284316 237.681919 
L 388.486673 234.032894 
L 389.498459 201.208647 
L 390.307888 170.406846 
L 390.510245 166.484607 
L 390.712602 165.733258 
L 390.914959 166.263545 
L 391.319674 177.485518 
L 392.533817 243.129901 
L 392.736174 247.068264 
L 392.938531 247.262269 
L 393.140888 246.288667 
L 393.343246 243.57755 
L 393.545603 239.355492 
L 395.164461 186.213276 
L 395.366818 184.906203 
L 395.569175 185.000712 
L 395.973889 194.236294 
L 396.985675 236.01217 
L 397.39039 242.815329 
L 397.592747 243.306628 
L 397.997461 240.944853 
L 398.199819 237.941116 
L 399.818676 196.860703 
L 400.021034 196.936735 
L 400.223391 199.278162 
L 400.830462 214.185461 
L 401.437534 230.74497 
L 401.842248 235.832655 
L 402.044606 236.998825 
L 402.246963 237.203014 
L 402.44932 236.79936 
L 402.854034 232.296242 
L 404.068178 211.10248 
L 404.270535 209.328521 
L 404.472892 208.869046 
L 404.675249 209.91009 
L 404.877607 212.006493 
L 405.889393 228.067865 
L 406.496464 231.5743 
L 406.698821 232.174629 
L 406.901179 232.012999 
L 407.103536 231.128211 
L 408.317679 219.8252 
L 408.722393 216.996541 
L 408.924751 216.623325 
L 409.127108 216.692212 
L 409.329465 217.820119 
L 409.936537 222.723719 
L 410.341251 225.257862 
L 410.745966 225.877236 
L 411.15068 226.943837 
L 411.353037 226.95267 
L 411.555394 226.527301 
L 411.960109 224.664104 
L 412.364823 223.702743 
L 412.769538 222.358415 
L 413.174252 220.407912 
L 413.376609 219.973464 
L 413.578966 220.006963 
L 413.781324 220.344672 
L 414.186038 221.759555 
L 415.400181 223.966701 
L 415.602539 224.215453 
L 416.007253 223.891623 
L 416.411967 223.63267 
L 416.816682 223.540803 
L 417.221396 222.846909 
L 417.828468 221.386658 
L 418.030825 221.335281 
L 418.637897 221.786948 
L 419.042611 222.096579 
L 420.054397 223.253129 
L 420.863826 223.122479 
L 421.26854 223.18433 
L 421.673255 222.888736 
L 422.280326 222.374222 
L 423.089755 222.217353 
L 423.696827 222.465703 
L 424.303898 222.861971 
L 424.708613 222.90253 
L 425.315684 222.929153 
L 425.720399 222.979526 
L 426.529828 222.763384 
L 427.541614 222.500673 
L 428.148685 222.565788 
L 429.160471 222.792216 
L 430.779329 222.820337 
L 432.802901 222.674451 
L 434.624116 222.798708 
L 456.07398 222.751705 
L 512.733998 222.753525 
L 518.4 222.753525 
L 518.4 222.753525 
" clip-path="url(#pe98a270cee)" style="fill: none; stroke: #2ca02c; stroke-width: 1.5; stroke-linecap: square"/>
   </g>
   <g id="patch_3">
    <path d="M 72 320.4 
L 72 43.2 
" style="fill: none; stroke: #000000; stroke-width: 0.8; stroke-linejoin: miter; stroke-linecap: square"/>
   </g>
   <g id="patch_4">
    <path d="M 518.4 320.4 
L 518.4 43.2 
" style="fill: none; stroke: #000000; stroke-width: 0.8; stroke-linejoin: miter; stroke-linecap: square"/>
   </g>
   <g id="patch_5">
    <path d="M 72 320.4 
L 518.4 320.4 
" style="fill: none; stroke: #000000; stroke-width: 0.8; stroke-linejoin: miter; stroke-linecap: square"/>
   </g>
   <g id="patch_6">
    <path d="M 72 43.2 
L 518.4 43.2 
" style="fill: none; stroke: #000000; stroke-width: 0.8; stroke-linejoin: miter; stroke-linecap: square"/>
   </g>
   <g id="text_13">
    <!-- Classic Transformer - model_20231123164701 -->
    <g transform="translate(155.436563 37.2) scale(0.12 -0.12)">
     <defs>
      <path id="DejaVuSans-43" d="M 4122 4306 
L 4122 3641 
Q 3803 3938 3442 4084 
Q 3081 4231 2675 4231 
Q 1875 4231 1450 3742 
Q 1025 3253 1025 2328 
Q 1025 1406 1450 917 
Q 1875 428 2675 428 
Q 3081 428 3442 575 
Q 3803 722 4122 1019 
L 4122 359 
Q 3791 134 3420 21 
Q 3050 -91 2638 -91 
Q 1578 -91 968 557 
Q 359 1206 359 2328 
Q 359 3453 968 4101 
Q 1578 4750 2638 4750 
Q 3056 4750 3426 4639 
Q 3797 4528 4122 4306 
z
" transform="scale(0.015625)"/>
      <path id="DejaVuSans-6c" d="M 603 4863 
L 1178 4863 
L 1178 0 
L 603 0 
L 603 4863 
z
" transform="scale(0.015625)"/>
      <path id="DejaVuSans-61" d="M 2194 1759 
Q 1497 1759 1228 1600 
Q 959 1441 959 1056 
Q 959 750 1161 570 
Q 1363 391 1709 391 
Q 2188 391 2477 730 
Q 2766 1069 2766 1631 
L 2766 1759 
L 2194 1759 
z
M 3341 1997 
L 3341 0 
L 2766 0 
L 2766 531 
Q 2569 213 2275 61 
Q 1981 -91 1556 -91 
Q 1019 -91 701 211 
Q 384 513 384 1019 
Q 384 1609 779 1909 
Q 1175 2209 1959 2209 
L 2766 2209 
L 2766 2266 
Q 2766 2663 2505 2880 
Q 2244 3097 1772 3097 
Q 1472 3097 1187 3025 
Q 903 2953 641 2809 
L 641 3341 
Q 956 3463 1253 3523 
Q 1550 3584 1831 3584 
Q 2591 3584 2966 3190 
Q 3341 2797 3341 1997 
z
" transform="scale(0.015625)"/>
      <path id="DejaVuSans-73" d="M 2834 3397 
L 2834 2853 
Q 2591 2978 2328 3040 
Q 2066 3103 1784 3103 
Q 1356 3103 1142 2972 
Q 928 2841 928 2578 
Q 928 2378 1081 2264 
Q 1234 2150 1697 2047 
L 1894 2003 
Q 2506 1872 2764 1633 
Q 3022 1394 3022 966 
Q 3022 478 2636 193 
Q 2250 -91 1575 -91 
Q 1294 -91 989 -36 
Q 684 19 347 128 
L 347 722 
Q 666 556 975 473 
Q 1284 391 1588 391 
Q 1994 391 2212 530 
Q 2431 669 2431 922 
Q 2431 1156 2273 1281 
Q 2116 1406 1581 1522 
L 1381 1569 
Q 847 1681 609 1914 
Q 372 2147 372 2553 
Q 372 3047 722 3315 
Q 1072 3584 1716 3584 
Q 2034 3584 2315 3537 
Q 2597 3491 2834 3397 
z
" transform="scale(0.015625)"/>
      <path id="DejaVuSans-69" d="M 603 3500 
L 1178 3500 
L 1178 0 
L 603 0 
L 603 3500 
z
M 603 4863 
L 1178 4863 
L 1178 4134 
L 603 4134 
L 603 4863 
z
" transform="scale(0.015625)"/>
      <path id="DejaVuSans-63" d="M 3122 3366 
L 3122 2828 
Q 2878 2963 2633 3030 
Q 2388 3097 2138 3097 
Q 1578 3097 1268 2742 
Q 959 2388 959 1747 
Q 959 1106 1268 751 
Q 1578 397 2138 397 
Q 2388 397 2633 464 
Q 2878 531 3122 666 
L 3122 134 
Q 2881 22 2623 -34 
Q 2366 -91 2075 -91 
Q 1284 -91 818 406 
Q 353 903 353 1747 
Q 353 2603 823 3093 
Q 1294 3584 2113 3584 
Q 2378 3584 2631 3529 
Q 2884 3475 3122 3366 
z
" transform="scale(0.015625)"/>
      <path id="DejaVuSans-20" transform="scale(0.015625)"/>
      <path id="DejaVuSans-54" d="M -19 4666 
L 3928 4666 
L 3928 4134 
L 2272 4134 
L 2272 0 
L 1638 0 
L 1638 4134 
L -19 4134 
L -19 4666 
z
" transform="scale(0.015625)"/>
      <path id="DejaVuSans-72" d="M 2631 2963 
Q 2534 3019 2420 3045 
Q 2306 3072 2169 3072 
Q 1681 3072 1420 2755 
Q 1159 2438 1159 1844 
L 1159 0 
L 581 0 
L 581 3500 
L 1159 3500 
L 1159 2956 
Q 1341 3275 1631 3429 
Q 1922 3584 2338 3584 
Q 2397 3584 2469 3576 
Q 2541 3569 2628 3553 
L 2631 2963 
z
" transform="scale(0.015625)"/>
      <path id="DejaVuSans-6e" d="M 3513 2113 
L 3513 0 
L 2938 0 
L 2938 2094 
Q 2938 2591 2744 2837 
Q 2550 3084 2163 3084 
Q 1697 3084 1428 2787 
Q 1159 2491 1159 1978 
L 1159 0 
L 581 0 
L 581 3500 
L 1159 3500 
L 1159 2956 
Q 1366 3272 1645 3428 
Q 1925 3584 2291 3584 
Q 2894 3584 3203 3211 
Q 3513 2838 3513 2113 
z
" transform="scale(0.015625)"/>
      <path id="DejaVuSans-66" d="M 2375 4863 
L 2375 4384 
L 1825 4384 
Q 1516 4384 1395 4259 
Q 1275 4134 1275 3809 
L 1275 3500 
L 2222 3500 
L 2222 3053 
L 1275 3053 
L 1275 0 
L 697 0 
L 697 3053 
L 147 3053 
L 147 3500 
L 697 3500 
L 697 3744 
Q 697 4328 969 4595 
Q 1241 4863 1831 4863 
L 2375 4863 
z
" transform="scale(0.015625)"/>
      <path id="DejaVuSans-6f" d="M 1959 3097 
Q 1497 3097 1228 2736 
Q 959 2375 959 1747 
Q 959 1119 1226 758 
Q 1494 397 1959 397 
Q 2419 397 2687 759 
Q 2956 1122 2956 1747 
Q 2956 2369 2687 2733 
Q 2419 3097 1959 3097 
z
M 1959 3584 
Q 2709 3584 3137 3096 
Q 3566 2609 3566 1747 
Q 3566 888 3137 398 
Q 2709 -91 1959 -91 
Q 1206 -91 779 398 
Q 353 888 353 1747 
Q 353 2609 779 3096 
Q 1206 3584 1959 3584 
z
" transform="scale(0.015625)"/>
      <path id="DejaVuSans-6d" d="M 3328 2828 
Q 3544 3216 3844 3400 
Q 4144 3584 4550 3584 
Q 5097 3584 5394 3201 
Q 5691 2819 5691 2113 
L 5691 0 
L 5113 0 
L 5113 2094 
Q 5113 2597 4934 2840 
Q 4756 3084 4391 3084 
Q 3944 3084 3684 2787 
Q 3425 2491 3425 1978 
L 3425 0 
L 2847 0 
L 2847 2094 
Q 2847 2600 2669 2842 
Q 2491 3084 2119 3084 
Q 1678 3084 1418 2786 
Q 1159 2488 1159 1978 
L 1159 0 
L 581 0 
L 581 3500 
L 1159 3500 
L 1159 2956 
Q 1356 3278 1631 3431 
Q 1906 3584 2284 3584 
Q 2666 3584 2933 3390 
Q 3200 3197 3328 2828 
z
" transform="scale(0.015625)"/>
      <path id="DejaVuSans-65" d="M 3597 1894 
L 3597 1613 
L 953 1613 
Q 991 1019 1311 708 
Q 1631 397 2203 397 
Q 2534 397 2845 478 
Q 3156 559 3463 722 
L 3463 178 
Q 3153 47 2828 -22 
Q 2503 -91 2169 -91 
Q 1331 -91 842 396 
Q 353 884 353 1716 
Q 353 2575 817 3079 
Q 1281 3584 2069 3584 
Q 2775 3584 3186 3129 
Q 3597 2675 3597 1894 
z
M 3022 2063 
Q 3016 2534 2758 2815 
Q 2500 3097 2075 3097 
Q 1594 3097 1305 2825 
Q 1016 2553 972 2059 
L 3022 2063 
z
" transform="scale(0.015625)"/>
      <path id="DejaVuSans-64" d="M 2906 2969 
L 2906 4863 
L 3481 4863 
L 3481 0 
L 2906 0 
L 2906 525 
Q 2725 213 2448 61 
Q 2172 -91 1784 -91 
Q 1150 -91 751 415 
Q 353 922 353 1747 
Q 353 2572 751 3078 
Q 1150 3584 1784 3584 
Q 2172 3584 2448 3432 
Q 2725 3281 2906 2969 
z
M 947 1747 
Q 947 1113 1208 752 
Q 1469 391 1925 391 
Q 2381 391 2643 752 
Q 2906 1113 2906 1747 
Q 2906 2381 2643 2742 
Q 2381 3103 1925 3103 
Q 1469 3103 1208 2742 
Q 947 2381 947 1747 
z
" transform="scale(0.015625)"/>
      <path id="DejaVuSans-5f" d="M 3263 -1063 
L 3263 -1509 
L -63 -1509 
L -63 -1063 
L 3263 -1063 
z
" transform="scale(0.015625)"/>
      <path id="DejaVuSans-34" d="M 2419 4116 
L 825 1625 
L 2419 1625 
L 2419 4116 
z
M 2253 4666 
L 3047 4666 
L 3047 1625 
L 3713 1625 
L 3713 1100 
L 3047 1100 
L 3047 0 
L 2419 0 
L 2419 1100 
L 313 1100 
L 313 1709 
L 2253 4666 
z
" transform="scale(0.015625)"/>
     </defs>
     <use xlink:href="#DejaVuSans-43"/>
     <use xlink:href="#DejaVuSans-6c" x="69.824219"/>
     <use xlink:href="#DejaVuSans-61" x="97.607422"/>
     <use xlink:href="#DejaVuSans-73" x="158.886719"/>
     <use xlink:href="#DejaVuSans-73" x="210.986328"/>
     <use xlink:href="#DejaVuSans-69" x="263.085938"/>
     <use xlink:href="#DejaVuSans-63" x="290.869141"/>
     <use xlink:href="#DejaVuSans-20" x="345.849609"/>
     <use xlink:href="#DejaVuSans-54" x="377.636719"/>
     <use xlink:href="#DejaVuSans-72" x="423.970703"/>
     <use xlink:href="#DejaVuSans-61" x="465.083984"/>
     <use xlink:href="#DejaVuSans-6e" x="526.363281"/>
     <use xlink:href="#DejaVuSans-73" x="589.742188"/>
     <use xlink:href="#DejaVuSans-66" x="641.841797"/>
     <use xlink:href="#DejaVuSans-6f" x="677.046875"/>
     <use xlink:href="#DejaVuSans-72" x="738.228516"/>
     <use xlink:href="#DejaVuSans-6d" x="777.591797"/>
     <use xlink:href="#DejaVuSans-65" x="875.003906"/>
     <use xlink:href="#DejaVuSans-72" x="936.527344"/>
     <use xlink:href="#DejaVuSans-20" x="977.640625"/>
     <use xlink:href="#DejaVuSans-2d" x="1009.427734"/>
     <use xlink:href="#DejaVuSans-20" x="1045.511719"/>
     <use xlink:href="#DejaVuSans-6d" x="1077.298828"/>
     <use xlink:href="#DejaVuSans-6f" x="1174.710938"/>
     <use xlink:href="#DejaVuSans-64" x="1235.892578"/>
     <use xlink:href="#DejaVuSans-65" x="1299.369141"/>
     <use xlink:href="#DejaVuSans-6c" x="1360.892578"/>
     <use xlink:href="#DejaVuSans-5f" x="1388.675781"/>
     <use xlink:href="#DejaVuSans-32" x="1438.675781"/>
     <use xlink:href="#DejaVuSans-30" x="1502.298828"/>
     <use xlink:href="#DejaVuSans-32" x="1565.921875"/>
     <use xlink:href="#DejaVuSans-33" x="1629.544922"/>
     <use xlink:href="#DejaVuSans-31" x="1693.167969"/>
     <use xlink:href="#DejaVuSans-31" x="1756.791016"/>
     <use xlink:href="#DejaVuSans-32" x="1820.414062"/>
     <use xlink:href="#DejaVuSans-33" x="1884.037109"/>
     <use xlink:href="#DejaVuSans-31" x="1947.660156"/>
     <use xlink:href="#DejaVuSans-36" x="2011.283203"/>
     <use xlink:href="#DejaVuSans-34" x="2074.90625"/>
     <use xlink:href="#DejaVuSans-37" x="2138.529297"/>
     <use xlink:href="#DejaVuSans-30" x="2202.152344"/>
     <use xlink:href="#DejaVuSans-31" x="2265.775391"/>
    </g>
   </g>
   <g id="legend_1">
    <g id="patch_7">
     <path d="M 79 95.234375 
L 161.517188 95.234375 
Q 163.517188 95.234375 163.517188 93.234375 
L 163.517188 50.2 
Q 163.517188 48.2 161.517188 48.2 
L 79 48.2 
Q 77 48.2 77 50.2 
L 77 93.234375 
Q 77 95.234375 79 95.234375 
z
" style="fill: #ffffff; opacity: 0.8; stroke: #cccccc; stroke-linejoin: miter"/>
    </g>
    <g id="line2d_16">
     <path d="M 81 56.298437 
L 91 56.298437 
L 101 56.298437 
" style="fill: none; stroke: #1f77b4; stroke-width: 1.5; stroke-linecap: square"/>
    </g>
    <g id="text_14">
     <!-- Measured -->
     <g transform="translate(109 59.798437) scale(0.1 -0.1)">
      <defs>
       <path id="DejaVuSans-4d" d="M 628 4666 
L 1569 4666 
L 2759 1491 
L 3956 4666 
L 4897 4666 
L 4897 0 
L 4281 0 
L 4281 4097 
L 3078 897 
L 2444 897 
L 1241 4097 
L 1241 0 
L 628 0 
L 628 4666 
z
" transform="scale(0.015625)"/>
       <path id="DejaVuSans-75" d="M 544 1381 
L 544 3500 
L 1119 3500 
L 1119 1403 
Q 1119 906 1312 657 
Q 1506 409 1894 409 
Q 2359 409 2629 706 
Q 2900 1003 2900 1516 
L 2900 3500 
L 3475 3500 
L 3475 0 
L 2900 0 
L 2900 538 
Q 2691 219 2414 64 
Q 2138 -91 1772 -91 
Q 1169 -91 856 284 
Q 544 659 544 1381 
z
M 1991 3584 
L 1991 3584 
z
" transform="scale(0.015625)"/>
      </defs>
      <use xlink:href="#DejaVuSans-4d"/>
      <use xlink:href="#DejaVuSans-65" x="86.279297"/>
      <use xlink:href="#DejaVuSans-61" x="147.802734"/>
      <use xlink:href="#DejaVuSans-73" x="209.082031"/>
      <use xlink:href="#DejaVuSans-75" x="261.181641"/>
      <use xlink:href="#DejaVuSans-72" x="324.560547"/>
      <use xlink:href="#DejaVuSans-65" x="363.423828"/>
      <use xlink:href="#DejaVuSans-64" x="424.947266"/>
     </g>
    </g>
    <g id="line2d_17">
     <path d="M 81 70.976562 
L 91 70.976562 
L 101 70.976562 
" style="fill: none; stroke: #ff7f0e; stroke-width: 1.5; stroke-linecap: square"/>
    </g>
    <g id="text_15">
     <!-- Fitted -->
     <g transform="translate(109 74.476562) scale(0.1 -0.1)">
      <defs>
       <path id="DejaVuSans-46" d="M 628 4666 
L 3309 4666 
L 3309 4134 
L 1259 4134 
L 1259 2759 
L 3109 2759 
L 3109 2228 
L 1259 2228 
L 1259 0 
L 628 0 
L 628 4666 
z
" transform="scale(0.015625)"/>
       <path id="DejaVuSans-74" d="M 1172 4494 
L 1172 3500 
L 2356 3500 
L 2356 3053 
L 1172 3053 
L 1172 1153 
Q 1172 725 1289 603 
Q 1406 481 1766 481 
L 2356 481 
L 2356 0 
L 1766 0 
Q 1100 0 847 248 
Q 594 497 594 1153 
L 594 3053 
L 172 3053 
L 172 3500 
L 594 3500 
L 594 4494 
L 1172 4494 
z
" transform="scale(0.015625)"/>
      </defs>
      <use xlink:href="#DejaVuSans-46"/>
      <use xlink:href="#DejaVuSans-69" x="50.269531"/>
      <use xlink:href="#DejaVuSans-74" x="78.052734"/>
      <use xlink:href="#DejaVuSans-74" x="117.261719"/>
      <use xlink:href="#DejaVuSans-65" x="156.470703"/>
      <use xlink:href="#DejaVuSans-64" x="217.994141"/>
     </g>
    </g>
    <g id="line2d_18">
     <path d="M 81 85.654687 
L 91 85.654687 
L 101 85.654687 
" style="fill: none; stroke: #2ca02c; stroke-width: 1.5; stroke-linecap: square"/>
    </g>
    <g id="text_16">
     <!-- Estimated -->
     <g transform="translate(109 89.154687) scale(0.1 -0.1)">
      <defs>
       <path id="DejaVuSans-45" d="M 628 4666 
L 3578 4666 
L 3578 4134 
L 1259 4134 
L 1259 2753 
L 3481 2753 
L 3481 2222 
L 1259 2222 
L 1259 531 
L 3634 531 
L 3634 0 
L 628 0 
L 628 4666 
z
" transform="scale(0.015625)"/>
      </defs>
      <use xlink:href="#DejaVuSans-45"/>
      <use xlink:href="#DejaVuSans-73" x="63.183594"/>
      <use xlink:href="#DejaVuSans-74" x="115.283203"/>
      <use xlink:href="#DejaVuSans-69" x="154.492188"/>
      <use xlink:href="#DejaVuSans-6d" x="182.275391"/>
      <use xlink:href="#DejaVuSans-61" x="279.6875"/>
      <use xlink:href="#DejaVuSans-74" x="340.966797"/>
      <use xlink:href="#DejaVuSans-65" x="380.175781"/>
      <use xlink:href="#DejaVuSans-64" x="441.699219"/>
     </g>
    </g>
   </g>
  </g>
 </g>
 <defs>
  <clipPath id="pe98a270cee">
   <rect x="72" y="43.2" width="446.4" height="277.2"/>
  </clipPath>
 </defs>
</svg>
