<?xml version="1.0" encoding="utf-8" standalone="no"?>
<!DOCTYPE svg PUBLIC "-//W3C//DTD SVG 1.1//EN"
  "http://www.w3.org/Graphics/SVG/1.1/DTD/svg11.dtd">
<svg xmlns:xlink="http://www.w3.org/1999/xlink" width="576pt" height="360pt" viewBox="0 0 576 360" xmlns="http://www.w3.org/2000/svg" version="1.1">
 <metadata>
  <rdf:RDF xmlns:dc="http://purl.org/dc/elements/1.1/" xmlns:cc="http://creativecommons.org/ns#" xmlns:rdf="http://www.w3.org/1999/02/22-rdf-syntax-ns#">
   <cc:Work>
    <dc:type rdf:resource="http://purl.org/dc/dcmitype/StillImage"/>
    <dc:date>2023-11-26T17:15:41.861134</dc:date>
    <dc:format>image/svg+xml</dc:format>
    <dc:creator>
     <cc:Agent>
      <dc:title>Matplotlib v3.8.1, https://matplotlib.org/</dc:title>
     </cc:Agent>
    </dc:creator>
   </cc:Work>
  </rdf:RDF>
 </metadata>
 <defs>
  <style type="text/css">*{stroke-linejoin: round; stroke-linecap: butt}</style>
 </defs>
 <g id="figure_1">
  <g id="patch_1">
   <path d="M 0 360 
L 576 360 
L 576 0 
L 0 0 
z
" style="fill: #ffffff"/>
  </g>
  <g id="axes_1">
   <g id="patch_2">
    <path d="M 72 320.4 
L 518.4 320.4 
L 518.4 43.2 
L 72 43.2 
z
" style="fill: #ffffff"/>
   </g>
   <g id="matplotlib.axis_1">
    <g id="xtick_1">
     <g id="line2d_1">
      <defs>
       <path id="mbdfaa40557" d="M 0 0 
L 0 3.5 
" style="stroke: #000000; stroke-width: 0.8"/>
      </defs>
      <g>
       <use xlink:href="#mbdfaa40557" x="129.874161" y="320.4" style="stroke: #000000; stroke-width: 0.8"/>
      </g>
     </g>
     <g id="text_1">
      <!-- 2020-05-15 -->
      <g transform="translate(100.816349 334.998438) scale(0.1 -0.1)">
       <defs>
        <path id="DejaVuSans-32" d="M 1228 531 
L 3431 531 
L 3431 0 
L 469 0 
L 469 531 
Q 828 903 1448 1529 
Q 2069 2156 2228 2338 
Q 2531 2678 2651 2914 
Q 2772 3150 2772 3378 
Q 2772 3750 2511 3984 
Q 2250 4219 1831 4219 
Q 1534 4219 1204 4116 
Q 875 4013 500 3803 
L 500 4441 
Q 881 4594 1212 4672 
Q 1544 4750 1819 4750 
Q 2544 4750 2975 4387 
Q 3406 4025 3406 3419 
Q 3406 3131 3298 2873 
Q 3191 2616 2906 2266 
Q 2828 2175 2409 1742 
Q 1991 1309 1228 531 
z
" transform="scale(0.015625)"/>
        <path id="DejaVuSans-30" d="M 2034 4250 
Q 1547 4250 1301 3770 
Q 1056 3291 1056 2328 
Q 1056 1369 1301 889 
Q 1547 409 2034 409 
Q 2525 409 2770 889 
Q 3016 1369 3016 2328 
Q 3016 3291 2770 3770 
Q 2525 4250 2034 4250 
z
M 2034 4750 
Q 2819 4750 3233 4129 
Q 3647 3509 3647 2328 
Q 3647 1150 3233 529 
Q 2819 -91 2034 -91 
Q 1250 -91 836 529 
Q 422 1150 422 2328 
Q 422 3509 836 4129 
Q 1250 4750 2034 4750 
z
" transform="scale(0.015625)"/>
        <path id="DejaVuSans-2d" d="M 313 2009 
L 1997 2009 
L 1997 1497 
L 313 1497 
L 313 2009 
z
" transform="scale(0.015625)"/>
        <path id="DejaVuSans-35" d="M 691 4666 
L 3169 4666 
L 3169 4134 
L 1269 4134 
L 1269 2991 
Q 1406 3038 1543 3061 
Q 1681 3084 1819 3084 
Q 2600 3084 3056 2656 
Q 3513 2228 3513 1497 
Q 3513 744 3044 326 
Q 2575 -91 1722 -91 
Q 1428 -91 1123 -41 
Q 819 9 494 109 
L 494 744 
Q 775 591 1075 516 
Q 1375 441 1709 441 
Q 2250 441 2565 725 
Q 2881 1009 2881 1497 
Q 2881 1984 2565 2268 
Q 2250 2553 1709 2553 
Q 1456 2553 1204 2497 
Q 953 2441 691 2322 
L 691 4666 
z
" transform="scale(0.015625)"/>
        <path id="DejaVuSans-31" d="M 794 531 
L 1825 531 
L 1825 4091 
L 703 3866 
L 703 4441 
L 1819 4666 
L 2450 4666 
L 2450 531 
L 3481 531 
L 3481 0 
L 794 0 
L 794 531 
z
" transform="scale(0.015625)"/>
       </defs>
       <use xlink:href="#DejaVuSans-32"/>
       <use xlink:href="#DejaVuSans-30" x="63.623047"/>
       <use xlink:href="#DejaVuSans-32" x="127.246094"/>
       <use xlink:href="#DejaVuSans-30" x="190.869141"/>
       <use xlink:href="#DejaVuSans-2d" x="254.492188"/>
       <use xlink:href="#DejaVuSans-30" x="290.576172"/>
       <use xlink:href="#DejaVuSans-35" x="354.199219"/>
       <use xlink:href="#DejaVuSans-2d" x="417.822266"/>
       <use xlink:href="#DejaVuSans-31" x="453.90625"/>
       <use xlink:href="#DejaVuSans-35" x="517.529297"/>
      </g>
     </g>
    </g>
    <g id="xtick_2">
     <g id="line2d_2">
      <g>
       <use xlink:href="#mbdfaa40557" x="212.435902" y="320.4" style="stroke: #000000; stroke-width: 0.8"/>
      </g>
     </g>
     <g id="text_2">
      <!-- 2020-06-01 -->
      <g transform="translate(183.37809 334.998438) scale(0.1 -0.1)">
       <defs>
        <path id="DejaVuSans-36" d="M 2113 2584 
Q 1688 2584 1439 2293 
Q 1191 2003 1191 1497 
Q 1191 994 1439 701 
Q 1688 409 2113 409 
Q 2538 409 2786 701 
Q 3034 994 3034 1497 
Q 3034 2003 2786 2293 
Q 2538 2584 2113 2584 
z
M 3366 4563 
L 3366 3988 
Q 3128 4100 2886 4159 
Q 2644 4219 2406 4219 
Q 1781 4219 1451 3797 
Q 1122 3375 1075 2522 
Q 1259 2794 1537 2939 
Q 1816 3084 2150 3084 
Q 2853 3084 3261 2657 
Q 3669 2231 3669 1497 
Q 3669 778 3244 343 
Q 2819 -91 2113 -91 
Q 1303 -91 875 529 
Q 447 1150 447 2328 
Q 447 3434 972 4092 
Q 1497 4750 2381 4750 
Q 2619 4750 2861 4703 
Q 3103 4656 3366 4563 
z
" transform="scale(0.015625)"/>
       </defs>
       <use xlink:href="#DejaVuSans-32"/>
       <use xlink:href="#DejaVuSans-30" x="63.623047"/>
       <use xlink:href="#DejaVuSans-32" x="127.246094"/>
       <use xlink:href="#DejaVuSans-30" x="190.869141"/>
       <use xlink:href="#DejaVuSans-2d" x="254.492188"/>
       <use xlink:href="#DejaVuSans-30" x="290.576172"/>
       <use xlink:href="#DejaVuSans-36" x="354.199219"/>
       <use xlink:href="#DejaVuSans-2d" x="417.822266"/>
       <use xlink:href="#DejaVuSans-30" x="453.90625"/>
       <use xlink:href="#DejaVuSans-31" x="517.529297"/>
      </g>
     </g>
    </g>
    <g id="xtick_3">
     <g id="line2d_3">
      <g>
       <use xlink:href="#mbdfaa40557" x="280.427924" y="320.4" style="stroke: #000000; stroke-width: 0.8"/>
      </g>
     </g>
     <g id="text_3">
      <!-- 2020-06-15 -->
      <g transform="translate(251.370111 334.998438) scale(0.1 -0.1)">
       <use xlink:href="#DejaVuSans-32"/>
       <use xlink:href="#DejaVuSans-30" x="63.623047"/>
       <use xlink:href="#DejaVuSans-32" x="127.246094"/>
       <use xlink:href="#DejaVuSans-30" x="190.869141"/>
       <use xlink:href="#DejaVuSans-2d" x="254.492188"/>
       <use xlink:href="#DejaVuSans-30" x="290.576172"/>
       <use xlink:href="#DejaVuSans-36" x="354.199219"/>
       <use xlink:href="#DejaVuSans-2d" x="417.822266"/>
       <use xlink:href="#DejaVuSans-31" x="453.90625"/>
       <use xlink:href="#DejaVuSans-35" x="517.529297"/>
      </g>
     </g>
    </g>
    <g id="xtick_4">
     <g id="line2d_4">
      <g>
       <use xlink:href="#mbdfaa40557" x="358.133092" y="320.4" style="stroke: #000000; stroke-width: 0.8"/>
      </g>
     </g>
     <g id="text_4">
      <!-- 2020-07-01 -->
      <g transform="translate(329.075279 334.998438) scale(0.1 -0.1)">
       <defs>
        <path id="DejaVuSans-37" d="M 525 4666 
L 3525 4666 
L 3525 4397 
L 1831 0 
L 1172 0 
L 2766 4134 
L 525 4134 
L 525 4666 
z
" transform="scale(0.015625)"/>
       </defs>
       <use xlink:href="#DejaVuSans-32"/>
       <use xlink:href="#DejaVuSans-30" x="63.623047"/>
       <use xlink:href="#DejaVuSans-32" x="127.246094"/>
       <use xlink:href="#DejaVuSans-30" x="190.869141"/>
       <use xlink:href="#DejaVuSans-2d" x="254.492188"/>
       <use xlink:href="#DejaVuSans-30" x="290.576172"/>
       <use xlink:href="#DejaVuSans-37" x="354.199219"/>
       <use xlink:href="#DejaVuSans-2d" x="417.822266"/>
       <use xlink:href="#DejaVuSans-30" x="453.90625"/>
       <use xlink:href="#DejaVuSans-31" x="517.529297"/>
      </g>
     </g>
    </g>
    <g id="xtick_5">
     <g id="line2d_5">
      <g>
       <use xlink:href="#mbdfaa40557" x="426.125113" y="320.4" style="stroke: #000000; stroke-width: 0.8"/>
      </g>
     </g>
     <g id="text_5">
      <!-- 2020-07-15 -->
      <g transform="translate(397.067301 334.998438) scale(0.1 -0.1)">
       <use xlink:href="#DejaVuSans-32"/>
       <use xlink:href="#DejaVuSans-30" x="63.623047"/>
       <use xlink:href="#DejaVuSans-32" x="127.246094"/>
       <use xlink:href="#DejaVuSans-30" x="190.869141"/>
       <use xlink:href="#DejaVuSans-2d" x="254.492188"/>
       <use xlink:href="#DejaVuSans-30" x="290.576172"/>
       <use xlink:href="#DejaVuSans-37" x="354.199219"/>
       <use xlink:href="#DejaVuSans-2d" x="417.822266"/>
       <use xlink:href="#DejaVuSans-31" x="453.90625"/>
       <use xlink:href="#DejaVuSans-35" x="517.529297"/>
      </g>
     </g>
    </g>
    <g id="xtick_6">
     <g id="line2d_6">
      <g>
       <use xlink:href="#mbdfaa40557" x="508.686854" y="320.4" style="stroke: #000000; stroke-width: 0.8"/>
      </g>
     </g>
     <g id="text_6">
      <!-- 2020-08-01 -->
      <g transform="translate(479.629042 334.998438) scale(0.1 -0.1)">
       <defs>
        <path id="DejaVuSans-38" d="M 2034 2216 
Q 1584 2216 1326 1975 
Q 1069 1734 1069 1313 
Q 1069 891 1326 650 
Q 1584 409 2034 409 
Q 2484 409 2743 651 
Q 3003 894 3003 1313 
Q 3003 1734 2745 1975 
Q 2488 2216 2034 2216 
z
M 1403 2484 
Q 997 2584 770 2862 
Q 544 3141 544 3541 
Q 544 4100 942 4425 
Q 1341 4750 2034 4750 
Q 2731 4750 3128 4425 
Q 3525 4100 3525 3541 
Q 3525 3141 3298 2862 
Q 3072 2584 2669 2484 
Q 3125 2378 3379 2068 
Q 3634 1759 3634 1313 
Q 3634 634 3220 271 
Q 2806 -91 2034 -91 
Q 1263 -91 848 271 
Q 434 634 434 1313 
Q 434 1759 690 2068 
Q 947 2378 1403 2484 
z
M 1172 3481 
Q 1172 3119 1398 2916 
Q 1625 2713 2034 2713 
Q 2441 2713 2670 2916 
Q 2900 3119 2900 3481 
Q 2900 3844 2670 4047 
Q 2441 4250 2034 4250 
Q 1625 4250 1398 4047 
Q 1172 3844 1172 3481 
z
" transform="scale(0.015625)"/>
       </defs>
       <use xlink:href="#DejaVuSans-32"/>
       <use xlink:href="#DejaVuSans-30" x="63.623047"/>
       <use xlink:href="#DejaVuSans-32" x="127.246094"/>
       <use xlink:href="#DejaVuSans-30" x="190.869141"/>
       <use xlink:href="#DejaVuSans-2d" x="254.492188"/>
       <use xlink:href="#DejaVuSans-30" x="290.576172"/>
       <use xlink:href="#DejaVuSans-38" x="354.199219"/>
       <use xlink:href="#DejaVuSans-2d" x="417.822266"/>
       <use xlink:href="#DejaVuSans-30" x="453.90625"/>
       <use xlink:href="#DejaVuSans-31" x="517.529297"/>
      </g>
     </g>
    </g>
   </g>
   <g id="matplotlib.axis_2">
    <g id="ytick_1">
     <g id="line2d_7">
      <defs>
       <path id="m71beea23fb" d="M 0 0 
L -3.5 0 
" style="stroke: #000000; stroke-width: 0.8"/>
      </defs>
      <g>
       <use xlink:href="#m71beea23fb" x="72" y="313.476941" style="stroke: #000000; stroke-width: 0.8"/>
      </g>
     </g>
     <g id="text_7">
      <!-- −2 -->
      <g transform="translate(50.257812 317.27616) scale(0.1 -0.1)">
       <defs>
        <path id="DejaVuSans-2212" d="M 678 2272 
L 4684 2272 
L 4684 1741 
L 678 1741 
L 678 2272 
z
" transform="scale(0.015625)"/>
       </defs>
       <use xlink:href="#DejaVuSans-2212"/>
       <use xlink:href="#DejaVuSans-32" x="83.789062"/>
      </g>
     </g>
    </g>
    <g id="ytick_2">
     <g id="line2d_8">
      <g>
       <use xlink:href="#m71beea23fb" x="72" y="267.306535" style="stroke: #000000; stroke-width: 0.8"/>
      </g>
     </g>
     <g id="text_8">
      <!-- −1 -->
      <g transform="translate(50.257812 271.105754) scale(0.1 -0.1)">
       <use xlink:href="#DejaVuSans-2212"/>
       <use xlink:href="#DejaVuSans-31" x="83.789062"/>
      </g>
     </g>
    </g>
    <g id="ytick_3">
     <g id="line2d_9">
      <g>
       <use xlink:href="#m71beea23fb" x="72" y="221.136129" style="stroke: #000000; stroke-width: 0.8"/>
      </g>
     </g>
     <g id="text_9">
      <!-- 0 -->
      <g transform="translate(58.6375 224.935348) scale(0.1 -0.1)">
       <use xlink:href="#DejaVuSans-30"/>
      </g>
     </g>
    </g>
    <g id="ytick_4">
     <g id="line2d_10">
      <g>
       <use xlink:href="#m71beea23fb" x="72" y="174.965723" style="stroke: #000000; stroke-width: 0.8"/>
      </g>
     </g>
     <g id="text_10">
      <!-- 1 -->
      <g transform="translate(58.6375 178.764942) scale(0.1 -0.1)">
       <use xlink:href="#DejaVuSans-31"/>
      </g>
     </g>
    </g>
    <g id="ytick_5">
     <g id="line2d_11">
      <g>
       <use xlink:href="#m71beea23fb" x="72" y="128.795317" style="stroke: #000000; stroke-width: 0.8"/>
      </g>
     </g>
     <g id="text_11">
      <!-- 2 -->
      <g transform="translate(58.6375 132.594536) scale(0.1 -0.1)">
       <use xlink:href="#DejaVuSans-32"/>
      </g>
     </g>
    </g>
    <g id="ytick_6">
     <g id="line2d_12">
      <g>
       <use xlink:href="#m71beea23fb" x="72" y="82.624911" style="stroke: #000000; stroke-width: 0.8"/>
      </g>
     </g>
     <g id="text_12">
      <!-- 3 -->
      <g transform="translate(58.6375 86.42413) scale(0.1 -0.1)">
       <defs>
        <path id="DejaVuSans-33" d="M 2597 2516 
Q 3050 2419 3304 2112 
Q 3559 1806 3559 1356 
Q 3559 666 3084 287 
Q 2609 -91 1734 -91 
Q 1441 -91 1130 -33 
Q 819 25 488 141 
L 488 750 
Q 750 597 1062 519 
Q 1375 441 1716 441 
Q 2309 441 2620 675 
Q 2931 909 2931 1356 
Q 2931 1769 2642 2001 
Q 2353 2234 1838 2234 
L 1294 2234 
L 1294 2753 
L 1863 2753 
Q 2328 2753 2575 2939 
Q 2822 3125 2822 3475 
Q 2822 3834 2567 4026 
Q 2313 4219 1838 4219 
Q 1578 4219 1281 4162 
Q 984 4106 628 3988 
L 628 4550 
Q 988 4650 1302 4700 
Q 1616 4750 1894 4750 
Q 2613 4750 3031 4423 
Q 3450 4097 3450 3541 
Q 3450 3153 3228 2886 
Q 3006 2619 2597 2516 
z
" transform="scale(0.015625)"/>
       </defs>
       <use xlink:href="#DejaVuSans-33"/>
      </g>
     </g>
    </g>
   </g>
   <g id="line2d_13">
    <path d="M 72 288.566006 
L 72.404714 298.350529 
L 72.607072 296.864731 
L 72.809429 287.660032 
L 73.214143 260.988147 
L 73.618858 250.261411 
L 75.035358 178.689437 
L 75.237715 176.134589 
L 75.440073 180.501385 
L 75.64243 187.586105 
L 75.844787 190.430864 
L 76.047144 203.585612 
L 76.654216 264.213416 
L 77.05893 284.978348 
L 77.261287 288.747201 
L 77.463645 288.42105 
L 77.666002 279.180112 
L 78.070716 254.591968 
L 78.475431 243.828993 
L 78.677788 235.947016 
L 79.487217 186.770728 
L 79.891931 172.728125 
L 80.094288 174.413238 
L 80.903717 211.014602 
L 81.713146 276.027321 
L 82.11786 288.674723 
L 82.320218 290.432314 
L 82.522575 290.178641 
L 82.724932 288.004302 
L 82.927289 282.115469 
L 83.332004 262.274631 
L 83.736718 249.91714 
L 83.939075 247.289815 
L 84.141432 247.525368 
L 84.546147 253.051812 
L 84.748504 254.86376 
L 84.950861 254.88188 
L 85.355576 258.505777 
L 85.557933 255.624779 
L 85.76029 260.915669 
L 86.569719 299.72761 
L 86.772076 304.982262 
L 86.974433 306.359343 
L 87.176791 306.413701 
L 87.379148 305.254054 
L 87.581505 302.028785 
L 87.783862 296.19431 
L 88.188577 277.15073 
L 88.390934 272.675216 
L 89.200363 265.699214 
L 89.40272 262.129675 
L 89.807434 249.355436 
L 90.212149 247.235456 
L 90.414506 244.898043 
L 90.616863 251.765328 
L 91.223935 295.451411 
L 91.628649 304.982262 
L 91.831006 305.03662 
L 92.033364 302.880401 
L 92.842792 263.01753 
L 93.04515 261.169342 
L 93.449864 253.740352 
L 93.652221 253.287365 
L 93.854578 250.750637 
L 94.056936 250.207052 
L 94.259293 247.942116 
L 94.46165 242.415673 
L 94.664007 239.951423 
L 94.866364 240.74868 
L 95.068722 243.466603 
L 95.271079 240.150737 
L 95.473436 248.88433 
L 96.080508 295.777562 
L 96.485222 303.732017 
L 96.687579 305.38089 
L 96.889937 301.630157 
L 97.699365 262.383348 
L 98.306437 253.305485 
L 98.508794 252.979334 
L 99.52058 234.642413 
L 99.722937 235.729582 
L 99.925295 239.498435 
L 100.127652 237.92204 
L 100.330009 246.691872 
L 100.937081 293.639463 
L 101.341795 304.239363 
L 101.544152 305.090979 
L 101.74651 301.883829 
L 101.948867 291.555722 
L 102.353581 265.608616 
L 102.555938 264.267774 
L 103.567724 248.902449 
L 104.377153 229.80451 
L 104.57951 230.909798 
L 104.781868 235.566507 
L 104.984225 235.548387 
L 105.186582 243.23105 
L 105.793654 290.92154 
L 106.198368 301.938188 
L 106.400725 303.460225 
L 106.603083 299.981283 
L 107.412511 260.299607 
L 107.614869 258.813809 
L 107.817226 255.642898 
L 108.22194 243.086094 
L 108.626655 224.332425 
L 108.829012 219.20461 
L 109.031369 217.573856 
L 109.638441 225.075324 
L 109.840798 229.768271 
L 110.043155 238.755536 
L 110.650227 286.31919 
L 111.054941 298.640441 
L 111.257298 300.289315 
L 111.459655 298.785397 
L 111.662013 288.928396 
L 112.066727 263.651712 
L 112.471442 250.696278 
L 113.887942 191.590512 
L 114.090299 189.543009 
L 114.292656 195.431843 
L 114.495014 205.306963 
L 114.697371 209.275131 
L 115.102085 238.664939 
L 115.709157 281.318212 
L 116.113871 293.36767 
L 116.316228 293.512626 
L 116.518586 292.081187 
L 116.720943 288.946516 
L 117.125657 265.409302 
L 118.542158 174.974942 
L 118.744515 166.241349 
L 118.946872 162.889244 
L 119.149229 166.060154 
L 119.756301 198.783948 
L 120.56573 267.348087 
L 120.970444 284.471002 
L 121.172801 288.004302 
L 121.375159 289.417622 
L 121.577516 288.167378 
L 121.779873 281.318212 
L 122.589302 237.251619 
L 123.196374 215.254562 
L 123.398731 211.304513 
L 123.601088 211.485708 
L 123.803445 210.996482 
L 124.410517 222.574834 
L 124.612874 232.051326 
L 125.219946 280.68403 
L 125.62466 293.240834 
L 125.827017 294.962185 
L 126.029374 292.769727 
L 127.04116 244.046427 
L 127.648232 211.721262 
L 128.255304 175.101778 
L 128.457661 168.578763 
L 128.660018 168.288851 
L 129.26709 206.593447 
L 130.278876 285.087065 
L 130.481233 291.845634 
L 130.68359 293.04152 
L 130.885947 290.812823 
L 132.504805 196.700207 
L 133.111877 159.827051 
L 133.314234 151.691401 
L 133.516591 153.159079 
L 133.921306 166.440663 
L 134.123663 172.854962 
L 135.135449 267.801074 
L 135.540163 278.709005 
L 135.74252 277.893628 
L 135.944878 268.743288 
L 136.349592 241.600296 
L 136.551949 235.747702 
L 136.754306 225.492072 
L 136.956664 229.44212 
L 137.159021 219.675717 
L 137.766092 212.047412 
L 137.96845 212.391683 
L 138.373164 207.716855 
L 138.777879 214.23987 
L 138.980236 214.96465 
L 139.182593 225.165921 
L 139.789665 274.106656 
L 140.194379 287.38824 
L 140.396736 289.182069 
L 140.599093 286.572863 
L 141.003808 260.462682 
L 141.408522 242.162 
L 142.015594 230.583648 
L 142.622665 222.683551 
L 142.825023 222.447998 
L 143.02738 221.397068 
L 143.229737 221.995011 
L 143.634451 226.561122 
L 143.836809 225.492072 
L 144.039166 234.298143 
L 144.646238 276.951415 
L 145.050952 287.406359 
L 145.253309 288.529767 
L 145.455666 285.811844 
L 145.860381 260.17277 
L 146.062738 245.948973 
L 146.66981 231.707056 
L 146.872167 229.387762 
L 147.074524 228.445548 
L 147.479238 218.84222 
L 147.681596 226.162493 
L 147.883953 227.014109 
L 148.08631 229.279045 
L 148.491024 237.342216 
L 148.693382 236.16445 
L 149.098096 256.621351 
L 149.502811 280.992061 
L 149.907525 292.352979 
L 150.109882 294.146808 
L 150.312239 293.639463 
L 150.514597 291.175213 
L 150.716954 286.192354 
L 151.121668 267.96415 
L 151.526383 250.062096 
L 151.931097 244.98864 
L 152.133454 244.608131 
L 152.335811 246.329482 
L 152.538169 246.782469 
L 152.740526 244.98864 
L 152.942883 245.242313 
L 153.14524 244.390697 
L 153.347597 244.426936 
L 153.549955 241.872088 
L 153.752312 243.792754 
L 154.764098 288.765321 
L 154.966455 292.226143 
L 155.168812 293.440148 
L 155.573527 289.997446 
L 155.775884 280.32164 
L 156.78767 212.210488 
L 157.799456 174.956822 
L 158.001813 176.714413 
L 158.406528 188.256526 
L 158.608885 200.10667 
L 159.215956 260.100292 
L 159.620671 278.980798 
L 159.823028 281.789318 
L 160.025385 280.992061 
L 160.227743 272.421543 
L 160.632457 244.046427 
L 161.8466 200.070431 
L 162.251315 191.28248 
L 162.453672 191.409317 
L 162.656029 193.909806 
L 163.465458 221.723219 
L 164.072529 274.052297 
L 164.477244 290.323597 
L 164.679601 290.613508 
L 164.881958 287.786868 
L 165.084316 278.90832 
L 165.48903 251.131146 
L 166.500816 220.454854 
L 167.310245 182.929397 
L 167.512602 185.864754 
L 167.917316 203.857404 
L 168.119674 207.753094 
L 168.322031 217.682573 
L 168.929102 269.631142 
L 169.333817 282.912726 
L 169.536174 285.993039 
L 169.738531 282.78589 
L 170.143246 258.922526 
L 170.54796 232.413716 
L 171.357389 193.438699 
L 171.559746 188.165928 
L 172.166818 167.002368 
L 172.369175 168.415688 
L 172.571532 175.337332 
L 173.178604 209.420087 
L 173.785675 271.588047 
L 174.19039 288.547887 
L 174.392747 291.157093 
L 174.595104 289.562578 
L 174.999819 268.399017 
L 175.404533 246.528796 
L 177.023391 178.091494 
L 177.225748 178.544481 
L 177.428105 181.969064 
L 177.630462 196.482773 
L 177.83282 198.620873 
L 178.237534 237.21538 
L 178.642248 274.758957 
L 179.046963 291.555722 
L 179.24932 294.817229 
L 179.451677 292.606652 
L 179.654034 284.996467 
L 180.261106 250.116455 
L 181.879964 165.244777 
L 182.082321 162.381898 
L 182.284678 167.346638 
L 183.094107 216.667882 
L 183.498821 250.823115 
L 183.903536 269.613023 
L 184.30825 276.480309 
L 184.510607 277.676195 
L 184.712965 274.487165 
L 184.915322 262.763857 
L 185.724751 190.920091 
L 186.129465 172.184541 
L 186.331822 166.875531 
L 186.53418 166.20511 
L 186.736537 168.433807 
L 187.748323 203.875524 
L 188.557752 260.136531 
L 188.962466 272.566499 
L 189.164823 274.360329 
L 189.36718 274.432806 
L 189.569538 273.780505 
L 189.771895 264.322133 
L 190.986038 180.157115 
L 191.188395 175.500407 
L 191.390752 175.464168 
L 191.795467 183.491101 
L 192.604896 210.960243 
L 193.414325 266.53271 
L 193.819039 278.56405 
L 194.021396 279.506263 
L 194.426111 276.027321 
L 194.628468 268.163464 
L 195.437897 214.692858 
L 195.640254 210.289822 
L 195.842611 211.358872 
L 196.247325 216.686001 
L 196.449683 217.193347 
L 196.65204 216.849077 
L 197.056754 224.060632 
L 197.259112 224.803531 
L 197.461469 232.196282 
L 198.06854 274.66836 
L 198.473255 287.134567 
L 198.675612 287.225164 
L 198.877969 284.018015 
L 199.282684 256.965621 
L 199.687398 236.907349 
L 201.306256 178.544481 
L 201.508613 177.52979 
L 202.115684 194.399032 
L 202.318042 204.201675 
L 202.925113 260.51704 
L 203.329828 276.027321 
L 203.532185 277.875509 
L 203.734542 275.248183 
L 203.936899 265.11939 
L 204.341614 235.240356 
L 205.758114 187.187476 
L 205.960471 184.995018 
L 206.162829 185.121855 
L 206.365186 186.372099 
L 206.7699 196.790804 
L 206.972257 199.599325 
L 207.174615 209.130175 
L 207.781686 261.042506 
L 208.186401 275.248183 
L 208.388758 277.929867 
L 208.591115 274.994511 
L 208.793472 264.557686 
L 209.198187 234.841727 
L 209.805258 215.254562 
L 210.209973 197.769257 
L 210.817044 161.113534 
L 211.019402 153.648306 
L 211.221759 156.257512 
L 211.626473 177.783462 
L 211.82883 182.367693 
L 212.031188 195.323126 
L 212.638259 252.526347 
L 213.042974 268.870124 
L 213.245331 272.385304 
L 213.447688 270.881387 
L 213.650045 261.459254 
L 214.257117 223.408331 
L 214.661831 200.233507 
L 215.47126 148.031265 
L 215.875975 133.318241 
L 216.078332 132.901493 
L 216.280689 137.775635 
L 217.090118 193.873567 
L 217.697189 248.340745 
L 218.101904 264.575805 
L 218.304261 267.529282 
L 218.506618 268.725168 
L 218.708976 267.619879 
L 218.911333 256.422036 
L 219.518404 208.224201 
L 220.125476 177.257997 
L 220.327833 175.355451 
L 220.53019 177.312356 
L 221.541976 214.529782 
L 221.744334 219.059654 
L 222.553762 269.105677 
L 222.958477 278.672766 
L 223.160834 280.176684 
L 223.363191 280.484715 
L 223.565549 279.107634 
L 223.767906 271.443091 
L 224.374977 237.831443 
L 224.779692 231.163471 
L 225.386763 232.97542 
L 225.589121 236.073852 
L 225.791478 236.85299 
L 226.196192 244.227622 
L 226.398549 243.91959 
L 226.600907 249.57287 
L 227.410335 296.737895 
L 227.612693 300.289315 
L 227.81505 301.775112 
L 228.017407 298.966592 
L 228.826836 261.495493 
L 229.029193 259.447991 
L 229.23155 254.392654 
L 230.648051 198.602753 
L 230.850408 199.110099 
L 231.255122 211.79374 
L 231.45748 221.378948 
L 232.064551 277.404402 
L 232.469266 292.516055 
L 232.671623 294.907827 
L 232.87398 293.838777 
L 233.278694 271.588047 
L 233.683409 251.765328 
L 235.302267 194.942617 
L 235.504624 194.417152 
L 236.111695 211.232036 
L 236.314053 220.346138 
L 236.921124 275.01263 
L 237.325839 288.982755 
L 237.528196 291.736917 
L 237.730553 289.870609 
L 238.135267 268.797646 
L 238.539982 249.627229 
L 239.349411 222.411759 
L 239.754125 213.605688 
L 240.15884 204.618423 
L 240.361197 204.400989 
L 240.563554 209.202653 
L 240.968268 224.694814 
L 241.170626 231.362786 
L 241.777697 280.231042 
L 242.182412 294.183047 
L 242.384769 296.375505 
L 242.587126 293.74818 
L 242.99184 272.004795 
L 243.396555 256.204602 
L 245.21777 190.521462 
L 245.420127 194.254076 
L 246.027199 217.827529 
L 246.836627 282.477859 
L 247.038985 289.83437 
L 247.241342 292.624771 
L 247.443699 290.396075 
L 247.848413 269.667381 
L 249.467271 171.133611 
L 249.669628 164.030772 
L 249.871985 162.32754 
L 250.074343 162.472496 
L 250.2767 168.578763 
L 250.883772 196.827043 
L 251.6932 262.781976 
L 252.097915 275.556215 
L 252.300272 278.256018 
L 252.502629 278.491572 
L 252.704986 275.085108 
L 253.109701 246.275124 
L 253.91913 181.878466 
L 254.323844 167.98082 
L 254.728558 160.225679 
L 254.930916 159.120391 
L 255.133273 165.715884 
L 255.740345 198.675231 
L 256.549773 264.829478 
L 256.954488 278.437213 
L 257.156845 281.789318 
L 257.359202 283.256997 
L 257.561559 282.405381 
L 257.966274 257.00186 
L 258.573345 212.681594 
L 258.97806 193.619894 
L 259.382774 183.925968 
L 259.585131 180.900014 
L 259.787489 180.519505 
L 259.989846 182.82068 
L 260.39456 196.881402 
L 260.596917 208.622829 
L 261.203989 263.144366 
L 261.608704 279.59686 
L 261.811061 282.169827 
L 262.013418 281.481287 
L 262.418132 260.408323 
L 262.62049 249.844662 
L 263.025204 241.346623 
L 263.227561 238.882373 
L 263.429918 237.994518 
L 263.834633 239.117926 
L 264.03699 238.846134 
L 264.239347 239.67963 
L 264.441704 239.752108 
L 264.644062 239.516555 
L 264.846419 241.310384 
L 265.048776 244.861804 
L 265.251133 244.861804 
L 265.45349 248.395104 
L 266.060562 285.739366 
L 266.465277 297.027807 
L 266.667634 298.386768 
L 266.869991 294.708513 
L 267.072348 287.71439 
L 267.477063 264.41273 
L 268.084134 244.916162 
L 268.488849 235.874538 
L 269.09592 225.981298 
L 269.500635 222.502356 
L 269.702992 224.423022 
L 269.905349 227.593932 
L 270.107706 228.191875 
L 270.310063 233.736438 
L 270.917135 276.697742 
L 271.32185 287.225164 
L 271.524207 289.109591 
L 271.726564 287.605674 
L 274.15485 163.106678 
L 274.357208 156.801096 
L 274.559565 159.736453 
L 275.166636 181.860347 
L 275.976065 253.595396 
L 276.38078 264.648283 
L 276.583137 264.032221 
L 276.987851 244.825565 
L 277.392566 219.403924 
L 278.404352 169.321662 
L 278.606709 166.639978 
L 279.011423 155.007267 
L 279.213781 153.593947 
L 279.416138 157.344681 
L 280.023209 194.036642 
L 280.630281 256.784426 
L 281.034995 276.824579 
L 281.237353 281.118897 
L 281.43971 279.759936 
L 281.642067 274.577762 
L 282.249139 237.849562 
L 282.85621 208.26044 
L 283.867996 170.626265 
L 284.070354 169.575335 
L 284.272711 176.750652 
L 285.284497 249.826543 
L 285.689211 278.129182 
L 286.093926 291.102735 
L 286.296283 293.113998 
L 286.49864 291.519483 
L 286.700997 288.928396 
L 287.105712 261.640449 
L 287.712783 216.287372 
L 288.522212 178.073374 
L 288.724569 171.804032 
L 288.926927 170.1008 
L 289.129284 173.253591 
L 289.736355 203.005788 
L 290.545784 264.666403 
L 290.950499 278.111062 
L 291.152856 280.557193 
L 291.355213 280.629671 
L 291.55757 279.325068 
L 291.759927 268.344659 
L 292.771714 181.516077 
L 293.176428 162.164465 
L 293.581142 152.271225 
L 293.7835 150.749188 
L 293.985857 153.84762 
L 294.592928 176.315784 
L 295.402357 249.609109 
L 295.807072 262.546423 
L 296.009429 262.401467 
L 296.414143 244.535653 
L 297.830644 125.59934 
L 298.235358 113.876031 
L 298.437715 111.592976 
L 298.640073 111.828529 
L 298.84243 113.640478 
L 299.044787 120.725198 
L 299.449501 144.497965 
L 300.056573 214.131153 
L 300.461287 236.381884 
L 300.663645 241.690893 
L 300.866002 242.325075 
L 301.068359 236.309406 
L 301.473073 209.818716 
L 302.484859 116.992583 
L 302.687217 107.008746 
L 302.889574 107.099343 
L 303.091931 114.238421 
L 303.496646 121.866725 
L 303.90136 141.49013 
L 304.306074 166.132632 
L 304.913146 227.177184 
L 305.31786 249.536631 
L 305.520218 254.447012 
L 305.722575 252.870617 
L 305.924932 246.583155 
L 306.532004 211.340752 
L 307.54379 149.58954 
L 307.746147 140.584155 
L 307.948504 139.805017 
L 308.757933 168.270732 
L 309.162647 191.264361 
L 309.769719 246.836828 
L 310.174433 264.376491 
L 310.376791 268.254061 
L 310.579148 267.746716 
L 310.983862 247.0905 
L 312.198005 155.315298 
L 312.60272 145.059669 
L 312.805077 141.200218 
L 313.007434 141.689444 
L 313.209791 144.950952 
L 313.816863 169.285423 
L 314.01922 181.353001 
L 314.626292 236.563078 
L 315.031006 254.646327 
L 315.233364 258.686972 
L 315.435721 258.107149 
L 315.840435 241.545937 
L 316.24515 225.039085 
L 316.649864 214.439185 
L 317.054578 200.940167 
L 317.66165 194.308435 
L 317.864007 193.909806 
L 318.066364 193.112548 
L 318.268722 197.243792 
L 318.875793 216.776599 
L 319.685222 268.471495 
L 320.089937 279.741816 
L 320.292294 281.191375 
L 320.697008 274.197253 
L 321.101723 251.058668 
L 322.315866 182.313334 
L 322.72058 173.27171 
L 322.922937 171.224208 
L 323.125295 174.866225 
L 323.732366 199.236935 
L 324.541795 259.701663 
L 324.94651 272.312826 
L 325.148867 274.867674 
L 325.351224 274.922033 
L 325.553581 272.928889 
L 325.755938 262.057197 
L 326.970082 162.889244 
L 327.172439 157.308442 
L 327.374796 155.913241 
L 327.77951 151.00286 
L 327.981868 155.405896 
L 328.184225 163.161036 
L 328.791296 208.731546 
L 329.196011 247.307934 
L 329.398368 260.752594 
L 329.803083 269.667381 
L 330.00544 268.833885 
L 330.207797 263.887265 
L 330.814869 221.089036 
L 331.42194 187.368671 
L 331.826655 167.364757 
L 332.029012 164.80991 
L 332.231369 164.828029 
L 332.433726 164.991104 
L 332.636083 166.839292 
L 332.838441 170.843699 
L 333.243155 191.065046 
L 333.445512 199.019501 
L 334.052584 257.00186 
L 334.457298 276.226636 
L 334.659655 281.01018 
L 334.862013 278.8902 
L 335.266727 261.386776 
L 335.671442 239.897064 
L 336.48087 204.509706 
L 336.683228 200.034193 
L 336.885585 199.05574 
L 337.087942 193.601775 
L 337.290299 191.971021 
L 337.695014 197.678659 
L 338.099728 210.434778 
L 338.302085 215.616951 
L 339.111514 273.689907 
L 339.313871 279.161993 
L 339.516228 281.137017 
L 339.718586 277.549358 
L 340.1233 256.947501 
L 340.932729 217.718812 
L 342.349229 163.233514 
L 342.551587 163.161036 
L 343.158658 184.94066 
L 343.76573 240.313812 
L 344.170444 256.204602 
L 344.372801 260.408323 
L 344.575159 258.523897 
L 344.777516 252.41763 
L 345.18223 225.165921 
L 346.194016 152.253105 
L 346.598731 139.225194 
L 347.003445 133.390719 
L 347.205802 132.64782 
L 347.40816 135.456341 
L 347.610517 142.377985 
L 348.015231 165.407853 
L 348.82466 245.804017 
L 349.229374 260.89755 
L 349.431732 260.227129 
L 349.634089 255.117433 
L 349.836446 245.296671 
L 351.050589 153.159079 
L 351.455304 136.960258 
L 351.860018 129.150759 
L 352.062375 128.353502 
L 352.264733 131.560651 
L 352.46709 141.345174 
L 353.276519 214.656619 
L 353.681233 248.123311 
L 354.085947 265.934767 
L 354.288305 270.591475 
L 354.490662 271.098821 
L 354.693019 269.123797 
L 355.097733 232.033207 
L 355.704805 166.893651 
L 356.109519 145.095908 
L 356.716591 129.042042 
L 356.918948 128.081709 
L 357.121306 132.321669 
L 357.52602 154.934789 
L 357.728377 166.132632 
L 358.740163 250.388247 
L 359.144878 261.839763 
L 359.347235 263.488636 
L 359.549592 263.198724 
L 359.751949 250.841234 
L 360.763735 144.389248 
L 361.16845 127.556244 
L 361.573164 117.753602 
L 361.775521 115.724219 
L 361.977879 118.623337 
L 362.180236 124.802082 
L 362.58495 147.560158 
L 363.394379 225.890701 
L 363.799093 241.473459 
L 364.001451 242.198239 
L 364.203808 236.997946 
L 364.406165 228.119397 
L 365.013237 166.694336 
L 365.620308 109.69043 
L 366.025023 95.412274 
L 366.429737 89.958308 
L 366.632094 90.393176 
L 366.834451 92.73059 
L 367.036809 100.431372 
L 367.441523 126.215402 
L 368.048595 196.555251 
L 368.453309 223.517048 
L 368.655666 231.054754 
L 368.858024 233.156615 
L 369.060381 229.713912 
L 369.262738 220.998439 
L 369.86981 164.864268 
L 370.476881 113.459283 
L 370.881596 98.764379 
L 371.083953 98.365751 
L 371.28631 98.999933 
L 371.488667 102.478874 
L 371.691024 107.987198 
L 372.298096 142.450463 
L 373.107525 217.610095 
L 373.512239 237.269738 
L 373.714597 241.129189 
L 374.119311 240.513127 
L 374.321668 229.242806 
L 375.333454 137.413245 
L 375.738169 125.689937 
L 375.940526 123.298165 
L 376.142883 122.319712 
L 376.34524 126.903943 
L 376.749955 150.115006 
L 377.559383 202.22665 
L 377.964098 232.884823 
L 378.368812 245.097357 
L 378.57117 245.296671 
L 378.773527 240.04202 
L 378.975884 230.112541 
L 380.392384 126.885823 
L 380.797099 118.097872 
L 381.201813 111.375542 
L 381.40417 114.709528 
L 382.011242 147.48768 
L 382.820671 220.853483 
L 383.225385 235.113519 
L 383.427743 235.693343 
L 383.6301 230.964157 
L 384.034814 211.268275 
L 385.0466 146.237435 
L 385.451315 131.451934 
L 385.653672 131.035186 
L 385.856029 134.387291 
L 386.058386 141.145859 
L 387.070172 203.132625 
L 387.474887 238.664939 
L 387.879601 258.05279 
L 388.284316 266.152201 
L 388.68903 268.380898 
L 388.891387 263.289322 
L 389.700816 224.712934 
L 390.307888 214.783455 
L 390.914959 203.495015 
L 391.117316 207.734975 
L 391.926745 242.796182 
L 392.533817 281.952394 
L 392.938531 292.914683 
L 393.140888 294.563557 
L 393.343246 294.164928 
L 393.545603 294.581676 
L 393.74796 286.645341 
L 394.355032 250.170813 
L 395.569175 200.12479 
L 395.771532 194.797661 
L 395.973889 195.86671 
L 396.176247 203.241342 
L 396.783318 240.495007 
L 397.188033 274.632121 
L 397.592747 290.432314 
L 397.795104 292.896564 
L 397.997461 290.649747 
L 398.402176 274.577762 
L 400.628105 161.475924 
L 400.830462 163.994533 
L 401.03282 172.818723 
L 401.639891 223.372092 
L 402.044606 262.673259 
L 402.44932 280.68403 
L 402.651677 284.235449 
L 402.854034 282.767771 
L 403.258749 266.641427 
L 403.663463 241.45534 
L 404.877607 147.46956 
L 405.282321 129.277595 
L 405.484678 125.544981 
L 405.687035 126.505314 
L 405.889393 135.81873 
L 406.294107 168.941153 
L 406.901179 237.55965 
L 407.305893 258.886287 
L 407.50825 263.851026 
L 407.710607 263.379919 
L 408.115322 244.553772 
L 409.73418 127.302571 
L 409.936537 122.935775 
L 410.138894 122.808939 
L 410.341251 126.885823 
L 410.948323 158.884837 
L 411.15068 172.981798 
L 411.757752 235.548387 
L 412.162466 256.875023 
L 412.364823 262.618901 
L 412.56718 264.195296 
L 412.971895 248.195789 
L 414.388395 161.25849 
L 414.79311 149.26339 
L 415.197824 143.356437 
L 415.400181 149.353987 
L 416.20961 204.781498 
L 416.614325 244.861804 
L 417.019039 265.300585 
L 417.221396 269.069438 
L 417.423753 268.580212 
L 417.828468 254.265817 
L 419.244968 167.672789 
L 419.649683 155.62333 
L 419.85204 152.234986 
L 420.054397 153.50335 
L 420.256754 161.167893 
L 421.066183 218.950937 
L 421.673255 267.692357 
L 422.077969 281.916155 
L 422.280326 284.108613 
L 422.482684 283.528789 
L 422.685041 283.383833 
L 423.089755 256.186483 
L 423.899184 195.123812 
L 424.708613 160.370635 
L 424.91097 157.562115 
L 425.113327 161.095415 
L 425.518042 184.179641 
L 425.720399 194.598346 
L 426.529828 260.498921 
L 426.934542 276.897057 
L 427.136899 280.847105 
L 427.339257 281.553765 
L 427.541614 281.753079 
L 427.743971 274.161014 
L 428.148685 238.538103 
L 428.755757 183.907849 
L 429.160471 161.27661 
L 429.565186 153.992576 
L 429.9699 157.453398 
L 430.374615 171.767793 
L 430.576972 182.041542 
L 431.386401 249.101764 
L 431.791115 259.900978 
L 431.993472 258.107149 
L 432.398187 240.186976 
L 433.207616 182.748202 
L 434.017044 120.65272 
L 434.219402 116.340282 
L 435.02883 140.529797 
L 435.433545 162.581213 
L 436.040617 225.401474 
L 436.445331 245.278552 
L 436.647688 249.808424 
L 436.850045 249.21048 
L 437.25476 231.036635 
L 437.659474 200.233507 
L 438.468903 135.420102 
L 438.67126 126.831465 
L 438.873617 127.683081 
L 439.075975 133.952423 
L 439.278332 133.553794 
L 439.480689 135.528819 
L 439.885403 151.890715 
L 440.290118 173.724697 
L 440.897189 238.483744 
L 441.301904 258.161507 
L 441.504261 262.945052 
L 441.706618 263.416158 
L 442.111333 250.424486 
L 442.920762 204.545945 
L 443.527833 173.797175 
L 444.134905 153.738903 
L 444.337262 151.455848 
L 444.539619 157.109128 
L 445.146691 196.845163 
L 445.753762 257.853476 
L 446.158477 276.552786 
L 446.360834 280.919583 
L 446.563191 279.161993 
L 446.967906 262.492064 
L 448.586763 165.679645 
L 448.991478 154.046934 
L 449.193835 151.999432 
L 449.396192 157.870146 
L 450.003264 193.474938 
L 450.812693 264.05034 
L 451.217407 275.773649 
L 451.419764 275.882365 
L 451.824479 260.734474 
L 452.43155 216.287372 
L 453.038622 179.341738 
L 453.443336 164.320683 
L 453.848051 157.38092 
L 454.050408 160.352516 
L 454.252765 169.158587 
L 454.65748 194.199718 
L 454.859837 201.646827 
L 455.669266 258.705092 
L 456.07398 270.645834 
L 456.276337 271.986676 
L 456.478694 270.229085 
L 456.681052 267.493043 
L 456.883409 260.444562 
L 457.288123 236.635556 
L 457.692838 226.97787 
L 457.895195 227.593932 
L 458.299909 232.667389 
L 458.502267 232.540552 
L 458.906981 229.170328 
L 459.109338 229.641434 
L 459.514053 233.301571 
L 459.71641 237.088544 
L 460.728196 287.949944 
L 461.13291 291.845634 
L 461.537625 288.928396 
L 461.739982 281.064539 
L 462.144696 250.660039 
L 463.561197 189.706085 
L 463.763554 183.309906 
L 463.965911 184.342717 
L 464.572983 201.501871 
L 465.382412 260.51704 
L 465.584769 266.605188 
L 465.787126 268.99696 
L 465.989483 266.858861 
L 467.608341 185.321169 
L 468.620127 166.658097 
L 468.822484 169.412259 
L 469.429556 192.532725 
L 470.036627 242.50627 
L 470.441342 258.179627 
L 470.643699 260.498921 
L 470.846056 258.233985 
L 471.857842 213.370135 
L 472.869628 186.71637 
L 473.071985 187.151237 
L 473.274343 185.574842 
L 473.4767 186.680131 
L 473.679057 190.014116 
L 473.881414 195.812352 
L 474.083772 196.827043 
L 474.286129 203.585612 
L 474.8932 249.500392 
L 475.297915 263.814787 
L 475.500272 265.282465 
L 475.702629 263.488636 
L 476.107344 242.017044 
L 476.512058 222.629193 
L 477.321487 194.888258 
L 477.726201 177.131161 
L 477.928558 173.99649 
L 478.333273 178.127733 
L 478.53563 182.059661 
L 479.142702 204.02048 
L 479.952131 263.72419 
L 480.356845 272.403424 
L 480.559202 272.041034 
L 480.963917 252.580705 
L 482.785131 139.478867 
L 482.987489 134.278574 
L 483.189846 131.95928 
L 483.392203 136.924019 
L 483.999275 172.039585 
L 484.606346 234.678652 
L 485.011061 255.135553 
L 485.213418 259.013123 
L 485.415775 259.846619 
L 485.82049 242.433792 
L 486.225204 214.94653 
L 487.23699 135.691894 
L 487.439347 132.973971 
L 487.844062 138.754087 
L 488.248776 155.152223 
L 489.260562 223.44457 
L 489.665277 251.765328 
L 490.069991 265.065032 
L 490.272348 267.130653 
L 490.474705 266.134081 
L 490.677063 264.575805 
L 490.87942 256.005288 
L 491.891206 185.792276 
L 492.29592 170.191397 
L 492.498277 163.686501 
L 492.700635 161.910792 
L 492.902992 163.342231 
L 493.105349 167.582191 
L 493.712421 197.098836 
L 494.52185 260.498921 
L 495.128921 276.589025 
L 495.331278 276.715862 
L 495.533636 276.172277 
L 495.735993 269.522425 
L 496.950136 188.945066 
L 497.557208 167.491594 
L 497.759565 164.538117 
L 497.961922 167.364757 
L 498.568994 195.105692 
L 499.378422 260.100292 
L 499.58078 266.115962 
L 499.783137 268.30842 
L 499.985494 265.391182 
L 500.187851 257.889715 
L 500.794923 225.383355 
L 500.99728 220.889722 
L 501.401995 209.365728 
L 501.806709 199.454369 
L 502.009066 199.05574 
L 502.211423 200.867689 
L 502.413781 201.429393 
L 502.616138 199.961715 
L 503.020852 208.514112 
L 503.223209 209.003339 
L 503.425567 215.616951 
L 504.032638 260.245248 
L 504.437353 271.751122 
L 504.63971 273.182562 
L 504.842067 271.098821 
L 505.246782 249.645348 
L 505.651496 228.681102 
L 507.270354 164.284445 
L 507.472711 161.548402 
L 507.675068 164.538117 
L 508.28214 189.216859 
L 508.889211 240.295693 
L 509.293926 255.371106 
L 509.496283 258.469538 
L 509.69864 256.856904 
L 510.103354 236.128211 
L 511.722212 142.486702 
L 512.126927 126.849584 
L 512.329284 128.244785 
L 512.936355 158.504328 
L 513.34107 192.786398 
L 513.745784 231.054754 
L 514.150499 251.058668 
L 514.352856 255.969049 
L 514.555213 256.403917 
L 514.75757 248.576298 
L 516.174071 163.39659 
L 516.376428 162.436257 
L 516.781142 170.644384 
L 516.9835 168.234493 
L 517.185857 168.705599 
L 517.590571 184.288358 
L 517.792928 188.020973 
L 517.995286 197.443106 
L 518.4 232.359357 
L 518.4 232.359357 
" clip-path="url(#p8b769946fc)" style="fill: none; stroke: #1f77b4; stroke-width: 1.5; stroke-linecap: square"/>
   </g>
   <g id="line2d_14">
    <path d="M 72 270.678987 
L 72.202357 270.678987 
L 72.607072 280.183952 
L 72.809429 281.200167 
L 73.011786 273.735496 
L 73.4165 244.158009 
L 75.035358 191.869568 
L 75.237715 189.458291 
L 75.440073 188.417204 
L 75.64243 192.546162 
L 76.047144 209.960565 
L 77.05893 272.110788 
L 77.261287 278.985403 
L 77.463645 279.503137 
L 77.666002 273.77584 
L 78.475431 239.743851 
L 78.880145 228.118682 
L 79.689574 185.425295 
L 79.891931 180.66935 
L 80.094288 179.849758 
L 80.296646 182.904561 
L 80.499003 191.0196 
L 81.308432 247.096767 
L 81.713146 276.024519 
L 81.915503 284.109903 
L 82.11786 285.602682 
L 82.320218 285.246373 
L 83.129646 264.079076 
L 83.534361 249.056545 
L 84.141432 238.237676 
L 84.34379 238.941528 
L 84.950861 249.240211 
L 85.355576 256.947182 
L 85.962647 270.681585 
L 86.569719 297.526916 
L 86.772076 300.536933 
L 86.974433 299.470919 
L 87.379148 294.433998 
L 87.986219 278.186308 
L 88.390934 265.109081 
L 88.593291 261.235512 
L 88.795648 260.553851 
L 88.998005 261.122098 
L 89.200363 262.719999 
L 89.40272 262.308585 
L 89.807434 256.397902 
L 90.212149 251.200046 
L 90.414506 252.159953 
L 90.616863 254.352016 
L 90.81922 262.412307 
L 91.223935 294.203966 
L 91.426292 303.721315 
L 91.628649 307.8 
L 91.831006 307.351643 
L 92.033364 304.836645 
L 92.235721 298.400171 
L 93.04515 253.992641 
L 93.247507 252.041736 
L 93.449864 252.083676 
L 93.652221 250.065054 
L 93.854578 250.451901 
L 94.056936 248.541428 
L 94.46165 242.063094 
L 94.866364 239.386943 
L 95.068722 238.711859 
L 95.271079 241.725201 
L 95.473436 247.234457 
L 96.282865 294.121374 
L 96.485222 296.627225 
L 96.687579 296.593931 
L 96.889937 294.946861 
L 97.092294 287.487072 
L 97.699365 255.802596 
L 98.508794 251.105274 
L 98.711151 252.113068 
L 98.913509 250.685937 
L 99.52058 241.782594 
L 99.722937 240.929392 
L 99.925295 241.461873 
L 100.330009 254.484254 
L 100.532366 263.537475 
L 100.937081 292.141628 
L 101.139438 300.201864 
L 101.341795 302.964281 
L 101.544152 302.552663 
L 101.74651 299.878469 
L 101.948867 292.848455 
L 102.555938 261.600052 
L 102.758296 259.695501 
L 102.960653 259.049696 
L 103.16301 257.385552 
L 103.365367 256.730098 
L 103.770082 251.939718 
L 104.174796 240.329765 
L 104.377153 237.667866 
L 104.57951 236.750516 
L 104.781868 237.272788 
L 105.388939 262.929633 
L 105.996011 298.451082 
L 106.198368 301.949476 
L 106.400725 301.89486 
L 106.603083 299.769656 
L 106.80544 292.617251 
L 107.412511 261.430618 
L 107.614869 258.399023 
L 107.817226 257.569221 
L 108.019583 256.006247 
L 108.22194 252.325586 
L 108.424297 245.801563 
L 109.031369 216.096989 
L 109.233726 218.107345 
L 109.638441 227.927389 
L 110.245512 259.38231 
L 110.852584 294.798139 
L 111.054941 298.824673 
L 111.257298 298.614538 
L 111.459655 295.953141 
L 111.662013 290.348995 
L 112.471442 254.943978 
L 112.876156 242.462905 
L 113.28087 219.391675 
L 113.685585 199.38624 
L 113.887942 194.997573 
L 114.090299 194.397957 
L 114.292656 196.073663 
L 114.495014 202.588152 
L 115.709157 282.569284 
L 115.911514 287.919786 
L 116.113871 290.062817 
L 116.316228 289.708072 
L 117.125657 266.88809 
L 117.530372 247.248222 
L 117.935086 217.58386 
L 118.542158 177.413257 
L 118.946872 167.343535 
L 119.149229 168.495928 
L 119.351587 174.792481 
L 119.756301 202.573988 
L 120.56573 269.004727 
L 120.768087 277.648045 
L 120.970444 281.127262 
L 121.172801 282.281989 
L 121.375159 280.952638 
L 121.779873 271.321589 
L 122.184587 252.125143 
L 122.589302 234.434531 
L 123.601088 206.373499 
L 124.005802 215.635227 
L 124.815231 246.423701 
L 125.422303 289.1908 
L 125.62466 294.025011 
L 125.827017 294.491795 
L 126.029374 291.659929 
L 126.231732 286.605841 
L 126.434089 278.522467 
L 127.04116 242.531028 
L 127.648232 220.946878 
L 128.457661 175.890828 
L 128.660018 175.068738 
L 128.862375 177.349758 
L 129.064733 185.622784 
L 129.469447 221.570948 
L 130.076519 276.65215 
L 130.278876 284.816136 
L 130.481233 287.19986 
L 130.68359 287.728744 
L 130.885947 284.58726 
L 131.088305 278.4129 
L 133.314234 163.643081 
L 133.516591 162.585169 
L 133.718948 166.205408 
L 134.123663 184.434228 
L 134.528377 218.078012 
L 134.933092 257.289403 
L 135.135449 270.152931 
L 135.337806 275.373959 
L 135.540163 276.841398 
L 135.74252 274.186869 
L 136.147235 258.087494 
L 136.754306 222.168417 
L 136.956664 213.676458 
L 137.159021 216.317315 
L 137.563735 206.535772 
L 137.766092 203.659927 
L 137.96845 203.865045 
L 138.373164 214.143654 
L 138.575521 216.045294 
L 138.980236 224.612658 
L 139.182593 230.09068 
L 139.38495 241.909314 
L 139.789665 274.463233 
L 139.992022 282.912267 
L 140.194379 285.238051 
L 140.396736 285.105181 
L 140.599093 281.935747 
L 141.003808 264.786135 
L 141.408522 239.519938 
L 141.610879 232.195037 
L 142.420308 223.629033 
L 142.622665 223.662951 
L 142.825023 222.08192 
L 143.02738 221.992282 
L 143.432094 225.474404 
L 143.634451 227.588156 
L 144.039166 238.871999 
L 144.848595 295.316879 
L 145.050952 298.72476 
L 145.253309 297.263304 
L 145.455666 292.384374 
L 145.860381 269.738248 
L 146.467452 232.663306 
L 146.66981 231.42846 
L 147.681596 217.24384 
L 148.08631 231.585474 
L 148.491024 240.276468 
L 149.098096 267.439043 
L 149.502811 292.790147 
L 149.705168 299.521924 
L 149.907525 302.340894 
L 150.109882 301.053021 
L 150.312239 297.649797 
L 151.526383 253.07006 
L 151.931097 244.135297 
L 152.133454 242.401996 
L 152.335811 243.992038 
L 152.740526 251.090267 
L 153.14524 254.037064 
L 153.347597 255.326299 
L 153.954669 267.855983 
L 154.764098 300.019706 
L 154.966455 301.389466 
L 155.168812 300.769337 
L 155.573527 289.421415 
L 155.978241 276.124333 
L 157.394742 188.075665 
L 157.597099 183.834204 
L 157.799456 183.172457 
L 158.001813 183.029181 
L 158.20417 186.14698 
L 158.608885 204.948485 
L 159.620671 276.969144 
L 159.823028 279.657291 
L 160.025385 279.624378 
L 160.227743 276.602516 
L 160.632457 255.310984 
L 161.239529 218.874106 
L 161.644243 204.815347 
L 162.251315 191.560409 
L 162.453672 191.511036 
L 162.858386 203.617076 
L 163.465458 226.601114 
L 163.870172 258.304253 
L 164.274887 283.225232 
L 164.477244 288.339852 
L 164.679601 289.665345 
L 164.881958 286.761971 
L 165.286673 268.124861 
L 165.691387 240.538653 
L 165.893744 232.99581 
L 166.096102 230.578947 
L 166.298459 229.661433 
L 166.500816 225.130326 
L 167.310245 187.454744 
L 167.512602 186.775241 
L 167.714959 189.966591 
L 168.119674 211.303987 
L 168.726745 257.317985 
L 169.13146 283.566939 
L 169.333817 287.253908 
L 169.536174 286.769721 
L 169.738531 284.411976 
L 170.143246 264.436915 
L 171.559746 180.950585 
L 171.964461 170.828168 
L 172.166818 170.208843 
L 172.369175 172.806945 
L 172.571532 177.305231 
L 172.773889 184.575547 
L 173.178604 212.14738 
L 173.988033 280.36523 
L 174.19039 285.676781 
L 174.392747 286.092345 
L 174.595104 283.501156 
L 174.797461 276.227241 
L 175.60689 233.222736 
L 176.011605 219.48879 
L 176.821034 189.394297 
L 177.225748 186.279713 
L 177.428105 188.97259 
L 177.630462 193.443103 
L 178.237534 235.998177 
L 178.642248 274.735458 
L 179.046963 289.16595 
L 179.24932 288.87385 
L 179.451677 286.839792 
L 179.856392 270.03993 
L 180.463463 237.59066 
L 180.868178 220.509269 
L 181.677607 175.245733 
L 181.879964 171.101824 
L 182.082321 170.92566 
L 182.284678 172.973665 
L 182.487035 177.800487 
L 182.89175 205.766676 
L 183.498821 256.653786 
L 183.701179 268.901886 
L 183.903536 273.3068 
L 184.105893 275.082058 
L 184.30825 273.842031 
L 184.510607 270.460651 
L 184.915322 258.756242 
L 185.117679 249.952228 
L 186.331822 163.313544 
L 186.53418 160.079235 
L 186.736537 160.841999 
L 186.938894 166.759875 
L 188.760109 270.352972 
L 188.962466 273.31832 
L 189.164823 273.072695 
L 189.36718 271.137614 
L 189.771895 257.929534 
L 190.176609 233.900835 
L 191.188395 174.038254 
L 191.390752 170.131898 
L 191.59311 171.295678 
L 191.997824 186.65646 
L 192.807253 225.489775 
L 193.414325 266.418196 
L 193.819039 277.020568 
L 194.021396 278.026639 
L 194.223753 275.513066 
L 194.628468 260.537684 
L 195.437897 215.02256 
L 195.842611 197.715629 
L 196.044968 198.751195 
L 196.449683 213.465156 
L 196.65204 220.299942 
L 197.056754 227.613406 
L 197.461469 235.398883 
L 197.663826 244.915423 
L 198.06854 275.293106 
L 198.473255 287.367388 
L 198.675612 288.714214 
L 198.877969 286.559014 
L 199.080326 280.643366 
L 199.485041 254.016991 
L 199.889755 227.155885 
L 200.901541 194.419709 
L 201.306256 184.232299 
L 201.508613 183.688113 
L 201.71097 184.977417 
L 201.913327 189.347926 
L 202.318042 208.451314 
L 203.127471 274.18344 
L 203.329828 278.818205 
L 203.532185 280.073758 
L 203.734542 277.089807 
L 203.936899 269.503389 
L 204.948685 211.326688 
L 205.960471 182.795798 
L 206.162829 184.148559 
L 206.972257 206.37053 
L 207.376972 227.822552 
L 207.984044 273.265619 
L 208.186401 278.476839 
L 208.388758 278.506924 
L 208.591115 275.796948 
L 208.793472 268.218412 
L 209.805258 208.598927 
L 210.209973 196.283564 
L 211.221759 159.941884 
L 211.424116 161.429165 
L 211.626473 168.194175 
L 212.233545 209.323603 
L 212.638259 251.977511 
L 213.042974 269.168298 
L 213.245331 271.03026 
L 213.447688 268.858641 
L 213.852403 249.56955 
L 215.47126 154.976641 
L 215.875975 143.250775 
L 216.078332 142.311621 
L 216.280689 142.93716 
L 216.483046 146.842333 
L 217.090118 190.210911 
L 217.697189 247.417388 
L 218.101904 260.29603 
L 218.304261 260.886267 
L 218.506618 257.95216 
L 219.11369 239.621039 
L 219.518404 211.072668 
L 220.125476 173.722295 
L 220.327833 167.446646 
L 220.53019 166.813285 
L 220.732548 170.052035 
L 221.339619 204.229268 
L 222.553762 268.051196 
L 222.75612 274.258008 
L 222.958477 275.671018 
L 223.160834 275.773699 
L 223.363191 274.936583 
L 223.767906 262.904813 
L 224.577335 224.60849 
L 224.779692 222.645568 
L 224.982049 222.187373 
L 225.184406 225.081861 
L 225.589121 235.416796 
L 225.791478 238.015857 
L 225.993835 238.875238 
L 226.196192 240.830877 
L 226.600907 250.284144 
L 227.005621 274.161314 
L 227.410335 291.395365 
L 227.612693 295.270129 
L 227.81505 296.023679 
L 228.017407 294.552927 
L 228.219764 288.432974 
L 229.029193 248.660941 
L 229.23155 246.082493 
L 229.433908 245.097631 
L 229.636265 242.860796 
L 229.838622 238.62771 
L 230.648051 213.969558 
L 230.850408 210.671362 
L 231.052765 210.066596 
L 231.255122 216.330818 
L 231.862194 260.378812 
L 232.266908 288.564138 
L 232.671623 294.859772 
L 232.87398 293.097344 
L 233.076337 287.391154 
L 233.885766 248.900923 
L 234.492838 225.200434 
L 234.897552 205.715806 
L 235.302267 196.710174 
L 235.504624 197.633444 
L 235.706981 201.417723 
L 235.909338 207.54755 
L 236.51641 242.269731 
L 237.123481 287.161431 
L 237.325839 292.352264 
L 237.528196 293.226455 
L 237.730553 290.316351 
L 238.135267 273.809634 
L 238.742339 242.693229 
L 239.754125 209.892699 
L 239.956482 206.731811 
L 240.15884 206.734285 
L 240.563554 212.24128 
L 240.765911 218.180907 
L 241.372983 252.694597 
L 241.777697 284.376492 
L 241.980054 294.325889 
L 242.182412 297.18992 
L 242.384769 296.745967 
L 242.587126 293.299762 
L 242.99184 275.999581 
L 243.396555 253.222359 
L 243.801269 242.111603 
L 244.003626 237.119134 
L 244.813055 201.324103 
L 245.015413 197.254242 
L 245.21777 196.315949 
L 245.420127 198.022176 
L 245.622484 202.420651 
L 246.027199 228.554528 
L 247.038985 291.425687 
L 247.241342 293.067408 
L 247.443699 290.683986 
L 247.848413 274.677034 
L 249.669628 161.297224 
L 249.871985 158.321584 
L 250.074343 162.027988 
L 250.479057 178.148936 
L 251.086129 222.031553 
L 251.6932 266.225759 
L 251.895558 272.831353 
L 252.097915 275.049612 
L 252.300272 274.110007 
L 252.704986 264.990631 
L 253.109701 249.571075 
L 253.716772 202.767718 
L 254.121487 174.125436 
L 254.526201 163.628969 
L 254.728558 161.876063 
L 254.930916 163.676743 
L 255.133273 168.713092 
L 255.537987 187.022555 
L 255.942702 215.719027 
L 256.549773 264.901489 
L 256.954488 276.489157 
L 257.156845 276.550779 
L 257.359202 275.592801 
L 257.763917 263.009044 
L 258.168631 240.48442 
L 258.97806 191.368918 
L 259.382774 180.151831 
L 259.585131 179.872996 
L 259.787489 181.793167 
L 260.192203 192.78645 
L 260.596917 210.376091 
L 261.001632 243.898845 
L 261.406346 274.831892 
L 261.811061 282.603078 
L 262.013418 281.752917 
L 262.215775 278.403284 
L 262.62049 255.755947 
L 263.025204 230.562811 
L 263.227561 226.884676 
L 263.429918 226.999085 
L 263.834633 233.135479 
L 264.239347 237.233184 
L 264.644062 238.807686 
L 264.846419 239.725468 
L 265.048776 242.346357 
L 265.45349 255.871638 
L 266.262919 294.222828 
L 266.465277 296.561117 
L 266.667634 296.310743 
L 266.869991 293.028974 
L 267.274705 276.243307 
L 267.881777 251.374893 
L 268.488849 238.821424 
L 269.09592 231.694949 
L 269.298277 229.279865 
L 269.500635 228.375601 
L 269.905349 233.807542 
L 270.310063 246.205129 
L 270.714778 270.790293 
L 271.119492 294.357124 
L 271.32185 298.521555 
L 271.524207 298.598368 
L 271.726564 295.80733 
L 271.928921 289.163545 
L 272.535993 252.741585 
L 272.73835 245.118769 
L 273.952493 175.622291 
L 274.15485 174.055173 
L 274.357208 173.620747 
L 274.559565 172.499412 
L 274.761922 175.38495 
L 274.964279 182.770227 
L 275.368994 207.047223 
L 275.773708 242.480568 
L 276.178422 262.972525 
L 276.38078 266.11958 
L 276.583137 265.700548 
L 276.785494 261.730368 
L 277.392566 227.496927 
L 277.999637 192.026656 
L 278.404352 171.117609 
L 278.606709 163.721072 
L 279.011423 160.567523 
L 279.213781 161.15241 
L 279.618495 166.690955 
L 279.820852 176.189202 
L 280.427924 230.231961 
L 280.832638 265.639438 
L 281.237353 275.077423 
L 281.43971 273.78316 
L 281.642067 269.493367 
L 282.249139 237.399139 
L 282.85621 202.533069 
L 283.260925 187.282567 
L 283.867996 173.084333 
L 284.070354 173.143423 
L 284.272711 175.971274 
L 284.475068 181.386393 
L 284.879782 209.589601 
L 285.689211 275.420974 
L 285.891568 281.624428 
L 286.093926 283.506753 
L 286.296283 282.389866 
L 286.49864 279.436589 
L 287.105712 255.812134 
L 287.712783 223.747509 
L 288.319855 189.056482 
L 288.724569 175.678558 
L 288.926927 173.208634 
L 289.129284 176.319954 
L 289.533998 193.453267 
L 289.938713 222.718498 
L 290.545784 269.300453 
L 290.748141 276.844854 
L 290.950499 279.189875 
L 291.152856 279.081931 
L 291.355213 277.000099 
L 291.759927 264.372816 
L 292.164642 238.12326 
L 293.176428 161.352522 
L 293.581142 150.890603 
L 293.7835 151.981165 
L 294.390571 174.576209 
L 294.795286 196.232927 
L 295.402357 252.30313 
L 295.807072 266.860262 
L 296.009429 267.259353 
L 296.211786 264.270638 
L 296.414143 254.532264 
L 297.021215 200.555002 
L 297.628286 144.511359 
L 298.235358 117.473082 
L 298.437715 115.353206 
L 298.640073 118.784121 
L 299.247144 138.536737 
L 299.651859 169.934559 
L 300.25893 231.068049 
L 300.461287 240.774863 
L 300.663645 244.80407 
L 300.866002 243.773 
L 301.270716 229.594791 
L 301.473073 220.455819 
L 301.877788 184.730417 
L 302.484859 123.653733 
L 302.889574 105.991057 
L 303.091931 106.967357 
L 303.496646 124.40643 
L 304.103717 161.088388 
L 305.115503 248.166021 
L 305.31786 254.365225 
L 305.520218 255.293542 
L 305.722575 253.582144 
L 305.924932 249.364551 
L 306.127289 241.063457 
L 307.341432 164.74988 
L 307.746147 152.741623 
L 307.948504 149.836499 
L 308.150861 150.996752 
L 308.757933 175.351464 
L 309.162647 197.895264 
L 309.972076 257.035603 
L 310.174433 262.343229 
L 310.376791 263.630676 
L 310.579148 262.04649 
L 310.781505 256.72275 
L 311.186219 237.970414 
L 311.590934 209.419906 
L 312.198005 161.709337 
L 312.60272 144.321759 
L 312.805077 143.602262 
L 313.007434 144.750891 
L 313.412149 153.594701 
L 313.816863 171.932006 
L 314.221578 199.431004 
L 314.626292 238.079068 
L 315.031006 254.647869 
L 315.233364 258.044299 
L 315.435721 257.363607 
L 315.638078 251.417584 
L 316.24515 218.854337 
L 316.649864 202.571591 
L 317.256936 187.398213 
L 317.459293 186.874427 
L 317.66165 188.495236 
L 318.471079 199.374621 
L 319.07815 225.619609 
L 319.685222 266.125494 
L 319.887579 271.103033 
L 320.089937 272.680165 
L 320.292294 272.085321 
L 320.494651 269.150779 
L 321.101723 247.229844 
L 321.708794 218.463507 
L 322.315866 185.230708 
L 322.72058 173.599766 
L 322.922937 172.383725 
L 323.125295 172.609618 
L 323.327652 175.48587 
L 323.530009 182.988612 
L 323.934723 207.998524 
L 324.541795 260.598802 
L 324.744152 269.665948 
L 324.94651 272.687502 
L 325.148867 273.061985 
L 325.351224 271.298247 
L 325.755938 260.177591 
L 326.160653 234.638954 
L 327.172439 156.194548 
L 327.374796 150.622088 
L 327.577153 149.438641 
L 327.77951 151.82252 
L 328.386582 173.839628 
L 328.791296 203.858335 
L 329.398368 259.668944 
L 329.600725 268.281063 
L 329.803083 271.98232 
L 330.00544 270.935328 
L 330.207797 267.980878 
L 330.410154 259.30638 
L 331.624297 169.650583 
L 332.029012 158.892101 
L 332.231369 158.320385 
L 332.433726 161.773145 
L 333.040798 180.167275 
L 333.647869 215.816056 
L 334.254941 266.30509 
L 334.659655 275.434646 
L 334.862013 274.706122 
L 335.06437 269.333251 
L 336.48087 199.286459 
L 336.683228 194.289139 
L 336.885585 192.238552 
L 337.087942 192.833391 
L 337.290299 191.291599 
L 337.492656 193.596325 
L 338.099728 211.518129 
L 338.504442 230.837108 
L 339.111514 273.4134 
L 339.313871 279.235277 
L 339.516228 281.174266 
L 339.718586 277.901028 
L 339.920943 271.355135 
L 340.932729 217.869735 
L 341.337443 200.318055 
L 341.742158 186.752504 
L 342.146872 173.926684 
L 342.349229 171.249495 
L 342.551587 171.952128 
L 342.753944 172.216323 
L 342.956301 178.625164 
L 343.361015 201.064865 
L 343.968087 256.159202 
L 344.170444 263.313836 
L 344.372801 264.800329 
L 344.575159 262.37524 
L 344.777516 256.855954 
L 345.18223 234.02026 
L 345.586945 200.479554 
L 345.991659 165.761256 
L 346.396374 143.033584 
L 346.598731 135.415865 
L 346.801088 133.709269 
L 347.003445 133.91472 
L 347.205802 135.977333 
L 347.610517 145.117338 
L 347.812874 153.045721 
L 348.217588 183.077349 
L 348.82466 242.484288 
L 349.229374 255.94053 
L 349.431732 256.368473 
L 349.634089 251.96483 
L 350.038803 230.665474 
L 350.443518 200.486676 
L 350.848232 164.827469 
L 351.252947 143.373683 
L 351.455304 137.558654 
L 351.657661 135.144256 
L 351.860018 134.675992 
L 352.062375 135.691381 
L 352.264733 138.547178 
L 352.46709 143.987433 
L 352.669447 153.128885 
L 353.276519 212.827344 
L 353.681233 249.870721 
L 354.085947 259.403731 
L 354.288305 260.375254 
L 354.490662 259.338108 
L 354.895376 247.479445 
L 355.300091 223.517083 
L 356.109519 148.340275 
L 356.311877 140.859318 
L 356.716591 136.84678 
L 356.918948 137.620281 
L 357.121306 141.219694 
L 357.52602 156.923457 
L 357.930734 189.206263 
L 358.537806 246.848872 
L 358.94252 258.023161 
L 359.144878 259.410996 
L 359.347235 258.732217 
L 359.549592 254.092775 
L 359.954306 235.761549 
L 360.359021 196.958154 
L 360.763735 153.61577 
L 361.16845 131.690775 
L 361.370807 128.144652 
L 361.573164 126.953577 
L 361.775521 127.877975 
L 361.977879 131.512051 
L 362.382593 145.543739 
L 362.787307 173.668213 
L 363.394379 237.868444 
L 363.596736 245.748635 
L 363.799093 248.653172 
L 364.001451 249.099266 
L 364.203808 245.950533 
L 364.608522 227.160729 
L 365.013237 189.310054 
L 365.620308 122.465884 
L 366.025023 102.426474 
L 366.22738 99.548044 
L 366.429737 100.864543 
L 366.632094 105.338851 
L 367.239166 130.866813 
L 367.64388 164.982905 
L 368.250952 228.233716 
L 368.655666 242.11884 
L 368.858024 242.73616 
L 369.262738 231.253599 
L 369.465095 223.112989 
L 369.86981 192.59103 
L 370.476881 131.70524 
L 370.881596 113.366416 
L 371.083953 111.616349 
L 371.28631 114.566429 
L 371.691024 130.02394 
L 372.095739 152.813493 
L 373.309882 250.113879 
L 373.512239 253.293187 
L 373.714597 253.211861 
L 373.916954 251.024135 
L 374.321668 236.794277 
L 374.726383 217.704909 
L 375.535811 148.023771 
L 375.738169 141.244715 
L 375.940526 139.070339 
L 376.142883 139.553926 
L 376.34524 142.53824 
L 376.547597 149.349197 
L 376.952312 174.002247 
L 377.964098 248.97483 
L 378.166455 255.356359 
L 378.368812 256.79729 
L 378.57117 256.320555 
L 378.773527 253.578698 
L 378.975884 246.964384 
L 379.380598 220.587002 
L 380.392384 137.899546 
L 380.797099 128.476793 
L 380.999456 127.897371 
L 381.201813 129.376005 
L 381.40417 133.137949 
L 381.808885 148.865945 
L 382.213599 174.175819 
L 382.820671 232.063318 
L 383.023028 239.087924 
L 383.225385 241.115381 
L 383.427743 240.485315 
L 383.6301 237.358952 
L 384.034814 223.22982 
L 384.237171 212.251437 
L 384.237171 212.251437 
" clip-path="url(#p8b769946fc)" style="fill: none; stroke: #ff7f0e; stroke-width: 1.5; stroke-linecap: square"/>
   </g>
   <g id="line2d_15">
    <path d="M 384.439529 197.566978 
L 385.0466 166.362138 
L 385.451315 152.320978 
L 385.856029 146.480878 
L 386.058386 149.359935 
L 386.665458 172.359706 
L 387.070172 202.465348 
L 387.677244 253.5942 
L 387.879601 260.314557 
L 388.081958 260.868677 
L 388.284316 258.245289 
L 388.68903 246.930887 
L 390.712602 159.042072 
L 390.914959 157.117564 
L 391.117316 156.698703 
L 391.522031 158.171591 
L 391.926745 170.487716 
L 392.533817 207.1213 
L 392.938531 230.424136 
L 393.140888 235.542007 
L 393.343246 235.170131 
L 393.74796 226.711402 
L 394.152675 210.574877 
L 394.759746 168.529909 
L 395.366818 125.510752 
L 395.973889 101.477484 
L 396.176247 96.775786 
L 396.378604 95.764228 
L 396.580961 99.143571 
L 396.783318 106.011983 
L 397.188033 132.591594 
L 398.402176 240.784531 
L 398.604533 242.426764 
L 398.80689 239.719207 
L 399.616319 215.587338 
L 400.021034 198.259891 
L 400.830462 159.505956 
L 401.03282 154.812937 
L 401.235177 153.389398 
L 401.437534 155.34808 
L 401.639891 160.818117 
L 402.044606 184.81144 
L 402.854034 267.094512 
L 403.056392 275.291372 
L 403.258749 277.891242 
L 403.461106 275.496736 
L 404.068178 254.498528 
L 405.079964 215.377561 
L 406.09175 166.049041 
L 406.496464 158.624527 
L 406.698821 157.267453 
L 406.901179 158.292045 
L 407.103536 162.259919 
L 407.50825 178.643988 
L 408.115322 206.757696 
L 408.520036 215.821087 
L 408.722393 215.434634 
L 408.924751 213.301125 
L 409.329465 200.83944 
L 409.936537 169.626284 
L 410.745966 125.433422 
L 411.353037 102.850805 
L 411.555394 99.033756 
L 411.757752 98.01196 
L 411.960109 100.921553 
L 412.162466 109.118672 
L 412.56718 137.176851 
L 413.781324 231.737367 
L 413.983681 233.829145 
L 414.186038 232.520919 
L 414.995467 218.472125 
L 415.602539 202.13034 
L 416.20961 185.20091 
L 416.411967 181.321842 
L 416.614325 180.203546 
L 416.816682 182.363799 
L 417.221396 198.155666 
L 418.435539 279.813923 
L 418.637897 280.71735 
L 418.840254 277.355257 
L 420.661469 219.596106 
L 422.077969 155.043531 
L 422.482684 148.352202 
L 422.887398 144.221466 
L 423.292112 145.060647 
L 423.49447 144.576107 
L 423.696827 143.060256 
L 423.899184 142.807009 
L 424.101541 143.511568 
L 424.506256 148.288197 
L 424.91097 158.589483 
L 425.922756 192.602561 
L 426.125113 196.619546 
L 426.327471 198.319356 
L 426.529828 198.044071 
L 426.732185 195.633716 
L 426.934542 191.049068 
L 427.541614 172.514102 
L 428.148685 162.306196 
L 428.351043 160.225849 
L 428.5534 159.928741 
L 428.755757 160.903841 
L 428.958114 163.228943 
L 429.362829 173.746462 
L 429.767543 192.362451 
L 430.576972 240.568628 
L 430.779329 244.440356 
L 430.981686 245.818061 
L 431.184044 245.308223 
L 431.588758 240.980168 
L 432.398187 230.729678 
L 433.207616 220.955929 
L 433.61233 214.68309 
L 434.017044 211.479023 
L 434.219402 211.100165 
L 434.421759 211.208093 
L 434.624116 211.797901 
L 434.826473 213.95403 
L 435.635902 227.546277 
L 435.838259 228.66755 
L 436.040617 227.240591 
L 436.242974 223.251009 
L 436.445331 216.077694 
L 436.850045 188.968407 
L 438.064189 83.346258 
L 438.468903 61.509899 
L 438.67126 56.119515 
L 438.873617 55.8 
L 439.075975 60.9375 
L 439.278332 72.076233 
L 439.683046 112.314833 
L 440.897189 268.366044 
L 441.099547 271.044586 
L 441.301904 268.660488 
L 441.504261 261.802184 
L 442.111333 223.446727 
L 442.718404 170.952601 
L 443.123119 140.329894 
L 443.325476 133.130078 
L 443.527833 131.034706 
L 443.73019 134.645687 
L 443.932548 144.079135 
L 444.337262 182.382611 
L 445.146691 285.617895 
L 445.349048 298.223005 
L 445.551405 303.490645 
L 445.753762 301.851687 
L 445.95612 295.791611 
L 447.979692 204.057595 
L 448.182049 200.564689 
L 448.384406 200.277997 
L 448.586763 202.587698 
L 448.991478 211.433815 
L 449.193835 218.961785 
L 450.205621 279.459491 
L 450.407978 280.130399 
L 450.610335 275.503214 
L 451.01505 254.449006 
L 451.419764 226.824871 
L 451.824479 182.076069 
L 452.43155 112.759595 
L 452.836265 86.977461 
L 453.240979 74.62283 
L 453.443336 73.358277 
L 453.645694 77.348998 
L 453.848051 87.104668 
L 454.252765 122.237426 
L 455.466908 254.987886 
L 455.669266 257.029474 
L 455.871623 254.308967 
L 456.07398 248.82798 
L 456.478694 229.29297 
L 456.883409 191.987105 
L 457.490481 126.367231 
L 457.895195 107.960687 
L 458.097552 106.205172 
L 458.299909 109.700956 
L 458.502267 118.460599 
L 458.906981 150.362357 
L 459.918767 271.35328 
L 460.121124 279.366259 
L 460.323481 280.924662 
L 460.525839 277.539821 
L 461.13291 255.111147 
L 462.549411 190.066303 
L 462.751768 186.618313 
L 462.954125 186.825354 
L 463.156482 191.07907 
L 463.763554 218.6265 
L 464.77534 284.763056 
L 464.977697 284.317809 
L 465.382412 272.384835 
L 465.989483 242.885914 
L 466.394198 216.09153 
L 467.405984 128.696059 
L 467.810698 112.005313 
L 468.215413 105.808051 
L 468.41777 106.885481 
L 468.620127 110.790769 
L 468.822484 117.863862 
L 469.227199 146.362379 
L 470.238985 236.620458 
L 470.441342 243.28801 
L 470.643699 245.927964 
L 470.846056 244.98521 
L 471.048413 241.307466 
L 471.453128 225.75283 
L 471.857842 195.82017 
L 472.667271 125.564988 
L 473.071985 112.230457 
L 473.274343 111.221706 
L 473.4767 115.008285 
L 473.679057 123.784254 
L 474.083772 157.065332 
L 475.095558 260.670106 
L 475.297915 264.744024 
L 475.500272 264.505734 
L 475.702629 260.446574 
L 476.512058 228.91817 
L 476.916772 208.184541 
L 477.726201 163.04838 
L 477.928558 157.139954 
L 478.130916 155.591195 
L 478.333273 157.23744 
L 478.737987 168.608313 
L 479.142702 191.829984 
L 479.952131 260.822301 
L 480.154488 263.979826 
L 480.356845 262.486456 
L 480.761559 253.482544 
L 481.368631 225.026933 
L 481.975703 180.429136 
L 482.582774 138.719765 
L 482.987489 122.106223 
L 483.189846 117.625123 
L 483.392203 115.799202 
L 483.59456 116.838346 
L 483.796917 120.644806 
L 483.999275 127.394454 
L 484.403989 152.829867 
L 485.415775 234.174906 
L 485.618132 237.158617 
L 485.82049 237.044341 
L 486.022847 234.02071 
L 486.427561 223.074564 
L 486.832276 203.350465 
L 487.844062 135.190214 
L 488.248776 122.776372 
L 488.451133 121.097196 
L 488.65349 123.302009 
L 488.855848 129.728697 
L 489.260562 155.54762 
L 490.272348 252.596627 
L 490.474705 257.006913 
L 490.677063 256.17242 
L 490.87942 252.392569 
L 491.891206 216.112839 
L 493.105349 156.103947 
L 493.307706 153.077407 
L 493.510063 152.818639 
L 493.712421 155.030778 
L 493.914778 159.757629 
L 494.319492 178.445532 
L 495.331278 256.259643 
L 495.533636 256.944488 
L 495.735993 254.253484 
L 495.93835 249.539364 
L 496.545422 225.976876 
L 497.152493 185.598105 
L 497.961922 132.552935 
L 498.366636 118.82441 
L 498.568994 115.598902 
L 498.771351 115.240497 
L 498.973708 117.714122 
L 499.176065 123.414015 
L 499.58078 146.708521 
L 500.592566 232.335102 
L 500.794923 237.055916 
L 500.99728 237.826724 
L 501.199637 235.43219 
L 501.604352 225.352289 
L 502.009066 209.224516 
L 502.616138 167.446866 
L 503.020852 143.608404 
L 503.425567 128.988208 
L 503.627924 125.660283 
L 503.830281 125.938672 
L 504.032638 130.230668 
L 504.437353 151.347331 
L 504.842067 189.928171 
L 505.246782 239.063462 
L 505.651496 257.373204 
L 505.853853 258.041938 
L 506.05621 254.929335 
L 506.258568 249.626134 
L 507.675068 187.269341 
L 508.28214 157.251288 
L 508.484497 152.129133 
L 508.686854 150.233207 
L 508.889211 150.780491 
L 509.091568 153.827512 
L 509.293926 159.341509 
L 509.69864 181.018872 
L 510.508069 249.298176 
L 510.710426 253.25945 
L 510.912783 252.839673 
L 511.115141 249.122735 
L 511.722212 227.892806 
L 512.126927 205.420013 
L 513.138713 134.965929 
L 513.543427 119.023366 
L 513.745784 114.426651 
L 513.948141 112.670497 
L 514.150499 114.009958 
L 514.352856 118.649715 
L 514.555213 126.72993 
L 514.959927 155.285853 
L 515.769356 229.479402 
L 515.971714 236.309529 
L 516.174071 238.113377 
L 516.376428 236.668882 
L 516.781142 227.056872 
L 517.185857 212.87593 
L 517.590571 189.911838 
L 518.197643 150.119589 
L 518.4 141.248848 
L 518.4 141.248848 
" clip-path="url(#p8b769946fc)" style="fill: none; stroke: #2ca02c; stroke-width: 1.5; stroke-linecap: square"/>
   </g>
   <g id="patch_3">
    <path d="M 72 320.4 
L 72 43.2 
" style="fill: none; stroke: #000000; stroke-width: 0.8; stroke-linejoin: miter; stroke-linecap: square"/>
   </g>
   <g id="patch_4">
    <path d="M 518.4 320.4 
L 518.4 43.2 
" style="fill: none; stroke: #000000; stroke-width: 0.8; stroke-linejoin: miter; stroke-linecap: square"/>
   </g>
   <g id="patch_5">
    <path d="M 72 320.4 
L 518.4 320.4 
" style="fill: none; stroke: #000000; stroke-width: 0.8; stroke-linejoin: miter; stroke-linecap: square"/>
   </g>
   <g id="patch_6">
    <path d="M 72 43.2 
L 518.4 43.2 
" style="fill: none; stroke: #000000; stroke-width: 0.8; stroke-linejoin: miter; stroke-linecap: square"/>
   </g>
   <g id="text_13">
    <!-- Classic Transformer - model_20231126171447 -->
    <g transform="translate(155.436563 37.2) scale(0.12 -0.12)">
     <defs>
      <path id="DejaVuSans-43" d="M 4122 4306 
L 4122 3641 
Q 3803 3938 3442 4084 
Q 3081 4231 2675 4231 
Q 1875 4231 1450 3742 
Q 1025 3253 1025 2328 
Q 1025 1406 1450 917 
Q 1875 428 2675 428 
Q 3081 428 3442 575 
Q 3803 722 4122 1019 
L 4122 359 
Q 3791 134 3420 21 
Q 3050 -91 2638 -91 
Q 1578 -91 968 557 
Q 359 1206 359 2328 
Q 359 3453 968 4101 
Q 1578 4750 2638 4750 
Q 3056 4750 3426 4639 
Q 3797 4528 4122 4306 
z
" transform="scale(0.015625)"/>
      <path id="DejaVuSans-6c" d="M 603 4863 
L 1178 4863 
L 1178 0 
L 603 0 
L 603 4863 
z
" transform="scale(0.015625)"/>
      <path id="DejaVuSans-61" d="M 2194 1759 
Q 1497 1759 1228 1600 
Q 959 1441 959 1056 
Q 959 750 1161 570 
Q 1363 391 1709 391 
Q 2188 391 2477 730 
Q 2766 1069 2766 1631 
L 2766 1759 
L 2194 1759 
z
M 3341 1997 
L 3341 0 
L 2766 0 
L 2766 531 
Q 2569 213 2275 61 
Q 1981 -91 1556 -91 
Q 1019 -91 701 211 
Q 384 513 384 1019 
Q 384 1609 779 1909 
Q 1175 2209 1959 2209 
L 2766 2209 
L 2766 2266 
Q 2766 2663 2505 2880 
Q 2244 3097 1772 3097 
Q 1472 3097 1187 3025 
Q 903 2953 641 2809 
L 641 3341 
Q 956 3463 1253 3523 
Q 1550 3584 1831 3584 
Q 2591 3584 2966 3190 
Q 3341 2797 3341 1997 
z
" transform="scale(0.015625)"/>
      <path id="DejaVuSans-73" d="M 2834 3397 
L 2834 2853 
Q 2591 2978 2328 3040 
Q 2066 3103 1784 3103 
Q 1356 3103 1142 2972 
Q 928 2841 928 2578 
Q 928 2378 1081 2264 
Q 1234 2150 1697 2047 
L 1894 2003 
Q 2506 1872 2764 1633 
Q 3022 1394 3022 966 
Q 3022 478 2636 193 
Q 2250 -91 1575 -91 
Q 1294 -91 989 -36 
Q 684 19 347 128 
L 347 722 
Q 666 556 975 473 
Q 1284 391 1588 391 
Q 1994 391 2212 530 
Q 2431 669 2431 922 
Q 2431 1156 2273 1281 
Q 2116 1406 1581 1522 
L 1381 1569 
Q 847 1681 609 1914 
Q 372 2147 372 2553 
Q 372 3047 722 3315 
Q 1072 3584 1716 3584 
Q 2034 3584 2315 3537 
Q 2597 3491 2834 3397 
z
" transform="scale(0.015625)"/>
      <path id="DejaVuSans-69" d="M 603 3500 
L 1178 3500 
L 1178 0 
L 603 0 
L 603 3500 
z
M 603 4863 
L 1178 4863 
L 1178 4134 
L 603 4134 
L 603 4863 
z
" transform="scale(0.015625)"/>
      <path id="DejaVuSans-63" d="M 3122 3366 
L 3122 2828 
Q 2878 2963 2633 3030 
Q 2388 3097 2138 3097 
Q 1578 3097 1268 2742 
Q 959 2388 959 1747 
Q 959 1106 1268 751 
Q 1578 397 2138 397 
Q 2388 397 2633 464 
Q 2878 531 3122 666 
L 3122 134 
Q 2881 22 2623 -34 
Q 2366 -91 2075 -91 
Q 1284 -91 818 406 
Q 353 903 353 1747 
Q 353 2603 823 3093 
Q 1294 3584 2113 3584 
Q 2378 3584 2631 3529 
Q 2884 3475 3122 3366 
z
" transform="scale(0.015625)"/>
      <path id="DejaVuSans-20" transform="scale(0.015625)"/>
      <path id="DejaVuSans-54" d="M -19 4666 
L 3928 4666 
L 3928 4134 
L 2272 4134 
L 2272 0 
L 1638 0 
L 1638 4134 
L -19 4134 
L -19 4666 
z
" transform="scale(0.015625)"/>
      <path id="DejaVuSans-72" d="M 2631 2963 
Q 2534 3019 2420 3045 
Q 2306 3072 2169 3072 
Q 1681 3072 1420 2755 
Q 1159 2438 1159 1844 
L 1159 0 
L 581 0 
L 581 3500 
L 1159 3500 
L 1159 2956 
Q 1341 3275 1631 3429 
Q 1922 3584 2338 3584 
Q 2397 3584 2469 3576 
Q 2541 3569 2628 3553 
L 2631 2963 
z
" transform="scale(0.015625)"/>
      <path id="DejaVuSans-6e" d="M 3513 2113 
L 3513 0 
L 2938 0 
L 2938 2094 
Q 2938 2591 2744 2837 
Q 2550 3084 2163 3084 
Q 1697 3084 1428 2787 
Q 1159 2491 1159 1978 
L 1159 0 
L 581 0 
L 581 3500 
L 1159 3500 
L 1159 2956 
Q 1366 3272 1645 3428 
Q 1925 3584 2291 3584 
Q 2894 3584 3203 3211 
Q 3513 2838 3513 2113 
z
" transform="scale(0.015625)"/>
      <path id="DejaVuSans-66" d="M 2375 4863 
L 2375 4384 
L 1825 4384 
Q 1516 4384 1395 4259 
Q 1275 4134 1275 3809 
L 1275 3500 
L 2222 3500 
L 2222 3053 
L 1275 3053 
L 1275 0 
L 697 0 
L 697 3053 
L 147 3053 
L 147 3500 
L 697 3500 
L 697 3744 
Q 697 4328 969 4595 
Q 1241 4863 1831 4863 
L 2375 4863 
z
" transform="scale(0.015625)"/>
      <path id="DejaVuSans-6f" d="M 1959 3097 
Q 1497 3097 1228 2736 
Q 959 2375 959 1747 
Q 959 1119 1226 758 
Q 1494 397 1959 397 
Q 2419 397 2687 759 
Q 2956 1122 2956 1747 
Q 2956 2369 2687 2733 
Q 2419 3097 1959 3097 
z
M 1959 3584 
Q 2709 3584 3137 3096 
Q 3566 2609 3566 1747 
Q 3566 888 3137 398 
Q 2709 -91 1959 -91 
Q 1206 -91 779 398 
Q 353 888 353 1747 
Q 353 2609 779 3096 
Q 1206 3584 1959 3584 
z
" transform="scale(0.015625)"/>
      <path id="DejaVuSans-6d" d="M 3328 2828 
Q 3544 3216 3844 3400 
Q 4144 3584 4550 3584 
Q 5097 3584 5394 3201 
Q 5691 2819 5691 2113 
L 5691 0 
L 5113 0 
L 5113 2094 
Q 5113 2597 4934 2840 
Q 4756 3084 4391 3084 
Q 3944 3084 3684 2787 
Q 3425 2491 3425 1978 
L 3425 0 
L 2847 0 
L 2847 2094 
Q 2847 2600 2669 2842 
Q 2491 3084 2119 3084 
Q 1678 3084 1418 2786 
Q 1159 2488 1159 1978 
L 1159 0 
L 581 0 
L 581 3500 
L 1159 3500 
L 1159 2956 
Q 1356 3278 1631 3431 
Q 1906 3584 2284 3584 
Q 2666 3584 2933 3390 
Q 3200 3197 3328 2828 
z
" transform="scale(0.015625)"/>
      <path id="DejaVuSans-65" d="M 3597 1894 
L 3597 1613 
L 953 1613 
Q 991 1019 1311 708 
Q 1631 397 2203 397 
Q 2534 397 2845 478 
Q 3156 559 3463 722 
L 3463 178 
Q 3153 47 2828 -22 
Q 2503 -91 2169 -91 
Q 1331 -91 842 396 
Q 353 884 353 1716 
Q 353 2575 817 3079 
Q 1281 3584 2069 3584 
Q 2775 3584 3186 3129 
Q 3597 2675 3597 1894 
z
M 3022 2063 
Q 3016 2534 2758 2815 
Q 2500 3097 2075 3097 
Q 1594 3097 1305 2825 
Q 1016 2553 972 2059 
L 3022 2063 
z
" transform="scale(0.015625)"/>
      <path id="DejaVuSans-64" d="M 2906 2969 
L 2906 4863 
L 3481 4863 
L 3481 0 
L 2906 0 
L 2906 525 
Q 2725 213 2448 61 
Q 2172 -91 1784 -91 
Q 1150 -91 751 415 
Q 353 922 353 1747 
Q 353 2572 751 3078 
Q 1150 3584 1784 3584 
Q 2172 3584 2448 3432 
Q 2725 3281 2906 2969 
z
M 947 1747 
Q 947 1113 1208 752 
Q 1469 391 1925 391 
Q 2381 391 2643 752 
Q 2906 1113 2906 1747 
Q 2906 2381 2643 2742 
Q 2381 3103 1925 3103 
Q 1469 3103 1208 2742 
Q 947 2381 947 1747 
z
" transform="scale(0.015625)"/>
      <path id="DejaVuSans-5f" d="M 3263 -1063 
L 3263 -1509 
L -63 -1509 
L -63 -1063 
L 3263 -1063 
z
" transform="scale(0.015625)"/>
      <path id="DejaVuSans-34" d="M 2419 4116 
L 825 1625 
L 2419 1625 
L 2419 4116 
z
M 2253 4666 
L 3047 4666 
L 3047 1625 
L 3713 1625 
L 3713 1100 
L 3047 1100 
L 3047 0 
L 2419 0 
L 2419 1100 
L 313 1100 
L 313 1709 
L 2253 4666 
z
" transform="scale(0.015625)"/>
     </defs>
     <use xlink:href="#DejaVuSans-43"/>
     <use xlink:href="#DejaVuSans-6c" x="69.824219"/>
     <use xlink:href="#DejaVuSans-61" x="97.607422"/>
     <use xlink:href="#DejaVuSans-73" x="158.886719"/>
     <use xlink:href="#DejaVuSans-73" x="210.986328"/>
     <use xlink:href="#DejaVuSans-69" x="263.085938"/>
     <use xlink:href="#DejaVuSans-63" x="290.869141"/>
     <use xlink:href="#DejaVuSans-20" x="345.849609"/>
     <use xlink:href="#DejaVuSans-54" x="377.636719"/>
     <use xlink:href="#DejaVuSans-72" x="423.970703"/>
     <use xlink:href="#DejaVuSans-61" x="465.083984"/>
     <use xlink:href="#DejaVuSans-6e" x="526.363281"/>
     <use xlink:href="#DejaVuSans-73" x="589.742188"/>
     <use xlink:href="#DejaVuSans-66" x="641.841797"/>
     <use xlink:href="#DejaVuSans-6f" x="677.046875"/>
     <use xlink:href="#DejaVuSans-72" x="738.228516"/>
     <use xlink:href="#DejaVuSans-6d" x="777.591797"/>
     <use xlink:href="#DejaVuSans-65" x="875.003906"/>
     <use xlink:href="#DejaVuSans-72" x="936.527344"/>
     <use xlink:href="#DejaVuSans-20" x="977.640625"/>
     <use xlink:href="#DejaVuSans-2d" x="1009.427734"/>
     <use xlink:href="#DejaVuSans-20" x="1045.511719"/>
     <use xlink:href="#DejaVuSans-6d" x="1077.298828"/>
     <use xlink:href="#DejaVuSans-6f" x="1174.710938"/>
     <use xlink:href="#DejaVuSans-64" x="1235.892578"/>
     <use xlink:href="#DejaVuSans-65" x="1299.369141"/>
     <use xlink:href="#DejaVuSans-6c" x="1360.892578"/>
     <use xlink:href="#DejaVuSans-5f" x="1388.675781"/>
     <use xlink:href="#DejaVuSans-32" x="1438.675781"/>
     <use xlink:href="#DejaVuSans-30" x="1502.298828"/>
     <use xlink:href="#DejaVuSans-32" x="1565.921875"/>
     <use xlink:href="#DejaVuSans-33" x="1629.544922"/>
     <use xlink:href="#DejaVuSans-31" x="1693.167969"/>
     <use xlink:href="#DejaVuSans-31" x="1756.791016"/>
     <use xlink:href="#DejaVuSans-32" x="1820.414062"/>
     <use xlink:href="#DejaVuSans-36" x="1884.037109"/>
     <use xlink:href="#DejaVuSans-31" x="1947.660156"/>
     <use xlink:href="#DejaVuSans-37" x="2011.283203"/>
     <use xlink:href="#DejaVuSans-31" x="2074.90625"/>
     <use xlink:href="#DejaVuSans-34" x="2138.529297"/>
     <use xlink:href="#DejaVuSans-34" x="2202.152344"/>
     <use xlink:href="#DejaVuSans-37" x="2265.775391"/>
    </g>
   </g>
   <g id="legend_1">
    <g id="patch_7">
     <path d="M 79 95.234375 
L 161.517188 95.234375 
Q 163.517188 95.234375 163.517188 93.234375 
L 163.517188 50.2 
Q 163.517188 48.2 161.517188 48.2 
L 79 48.2 
Q 77 48.2 77 50.2 
L 77 93.234375 
Q 77 95.234375 79 95.234375 
z
" style="fill: #ffffff; opacity: 0.8; stroke: #cccccc; stroke-linejoin: miter"/>
    </g>
    <g id="line2d_16">
     <path d="M 81 56.298437 
L 91 56.298437 
L 101 56.298437 
" style="fill: none; stroke: #1f77b4; stroke-width: 1.5; stroke-linecap: square"/>
    </g>
    <g id="text_14">
     <!-- Measured -->
     <g transform="translate(109 59.798437) scale(0.1 -0.1)">
      <defs>
       <path id="DejaVuSans-4d" d="M 628 4666 
L 1569 4666 
L 2759 1491 
L 3956 4666 
L 4897 4666 
L 4897 0 
L 4281 0 
L 4281 4097 
L 3078 897 
L 2444 897 
L 1241 4097 
L 1241 0 
L 628 0 
L 628 4666 
z
" transform="scale(0.015625)"/>
       <path id="DejaVuSans-75" d="M 544 1381 
L 544 3500 
L 1119 3500 
L 1119 1403 
Q 1119 906 1312 657 
Q 1506 409 1894 409 
Q 2359 409 2629 706 
Q 2900 1003 2900 1516 
L 2900 3500 
L 3475 3500 
L 3475 0 
L 2900 0 
L 2900 538 
Q 2691 219 2414 64 
Q 2138 -91 1772 -91 
Q 1169 -91 856 284 
Q 544 659 544 1381 
z
M 1991 3584 
L 1991 3584 
z
" transform="scale(0.015625)"/>
      </defs>
      <use xlink:href="#DejaVuSans-4d"/>
      <use xlink:href="#DejaVuSans-65" x="86.279297"/>
      <use xlink:href="#DejaVuSans-61" x="147.802734"/>
      <use xlink:href="#DejaVuSans-73" x="209.082031"/>
      <use xlink:href="#DejaVuSans-75" x="261.181641"/>
      <use xlink:href="#DejaVuSans-72" x="324.560547"/>
      <use xlink:href="#DejaVuSans-65" x="363.423828"/>
      <use xlink:href="#DejaVuSans-64" x="424.947266"/>
     </g>
    </g>
    <g id="line2d_17">
     <path d="M 81 70.976562 
L 91 70.976562 
L 101 70.976562 
" style="fill: none; stroke: #ff7f0e; stroke-width: 1.5; stroke-linecap: square"/>
    </g>
    <g id="text_15">
     <!-- Fitted -->
     <g transform="translate(109 74.476562) scale(0.1 -0.1)">
      <defs>
       <path id="DejaVuSans-46" d="M 628 4666 
L 3309 4666 
L 3309 4134 
L 1259 4134 
L 1259 2759 
L 3109 2759 
L 3109 2228 
L 1259 2228 
L 1259 0 
L 628 0 
L 628 4666 
z
" transform="scale(0.015625)"/>
       <path id="DejaVuSans-74" d="M 1172 4494 
L 1172 3500 
L 2356 3500 
L 2356 3053 
L 1172 3053 
L 1172 1153 
Q 1172 725 1289 603 
Q 1406 481 1766 481 
L 2356 481 
L 2356 0 
L 1766 0 
Q 1100 0 847 248 
Q 594 497 594 1153 
L 594 3053 
L 172 3053 
L 172 3500 
L 594 3500 
L 594 4494 
L 1172 4494 
z
" transform="scale(0.015625)"/>
      </defs>
      <use xlink:href="#DejaVuSans-46"/>
      <use xlink:href="#DejaVuSans-69" x="50.269531"/>
      <use xlink:href="#DejaVuSans-74" x="78.052734"/>
      <use xlink:href="#DejaVuSans-74" x="117.261719"/>
      <use xlink:href="#DejaVuSans-65" x="156.470703"/>
      <use xlink:href="#DejaVuSans-64" x="217.994141"/>
     </g>
    </g>
    <g id="line2d_18">
     <path d="M 81 85.654687 
L 91 85.654687 
L 101 85.654687 
" style="fill: none; stroke: #2ca02c; stroke-width: 1.5; stroke-linecap: square"/>
    </g>
    <g id="text_16">
     <!-- Estimated -->
     <g transform="translate(109 89.154687) scale(0.1 -0.1)">
      <defs>
       <path id="DejaVuSans-45" d="M 628 4666 
L 3578 4666 
L 3578 4134 
L 1259 4134 
L 1259 2753 
L 3481 2753 
L 3481 2222 
L 1259 2222 
L 1259 531 
L 3634 531 
L 3634 0 
L 628 0 
L 628 4666 
z
" transform="scale(0.015625)"/>
      </defs>
      <use xlink:href="#DejaVuSans-45"/>
      <use xlink:href="#DejaVuSans-73" x="63.183594"/>
      <use xlink:href="#DejaVuSans-74" x="115.283203"/>
      <use xlink:href="#DejaVuSans-69" x="154.492188"/>
      <use xlink:href="#DejaVuSans-6d" x="182.275391"/>
      <use xlink:href="#DejaVuSans-61" x="279.6875"/>
      <use xlink:href="#DejaVuSans-74" x="340.966797"/>
      <use xlink:href="#DejaVuSans-65" x="380.175781"/>
      <use xlink:href="#DejaVuSans-64" x="441.699219"/>
     </g>
    </g>
   </g>
  </g>
 </g>
 <defs>
  <clipPath id="p8b769946fc">
   <rect x="72" y="43.2" width="446.4" height="277.2"/>
  </clipPath>
 </defs>
</svg>
