<?xml version="1.0" encoding="utf-8" standalone="no"?>
<!DOCTYPE svg PUBLIC "-//W3C//DTD SVG 1.1//EN"
  "http://www.w3.org/Graphics/SVG/1.1/DTD/svg11.dtd">
<svg xmlns:xlink="http://www.w3.org/1999/xlink" width="576pt" height="360pt" viewBox="0 0 576 360" xmlns="http://www.w3.org/2000/svg" version="1.1">
 <metadata>
  <rdf:RDF xmlns:dc="http://purl.org/dc/elements/1.1/" xmlns:cc="http://creativecommons.org/ns#" xmlns:rdf="http://www.w3.org/1999/02/22-rdf-syntax-ns#">
   <cc:Work>
    <dc:type rdf:resource="http://purl.org/dc/dcmitype/StillImage"/>
    <dc:date>2023-11-23T16:54:12.199319</dc:date>
    <dc:format>image/svg+xml</dc:format>
    <dc:creator>
     <cc:Agent>
      <dc:title>Matplotlib v3.8.1, https://matplotlib.org/</dc:title>
     </cc:Agent>
    </dc:creator>
   </cc:Work>
  </rdf:RDF>
 </metadata>
 <defs>
  <style type="text/css">*{stroke-linejoin: round; stroke-linecap: butt}</style>
 </defs>
 <g id="figure_1">
  <g id="patch_1">
   <path d="M 0 360 
L 576 360 
L 576 0 
L 0 0 
z
" style="fill: #ffffff"/>
  </g>
  <g id="axes_1">
   <g id="patch_2">
    <path d="M 72 320.4 
L 518.4 320.4 
L 518.4 43.2 
L 72 43.2 
z
" style="fill: #ffffff"/>
   </g>
   <g id="matplotlib.axis_1">
    <g id="xtick_1">
     <g id="line2d_1">
      <defs>
       <path id="m7621c54e1f" d="M 0 0 
L 0 3.5 
" style="stroke: #000000; stroke-width: 0.8"/>
      </defs>
      <g>
       <use xlink:href="#m7621c54e1f" x="129.874161" y="320.4" style="stroke: #000000; stroke-width: 0.8"/>
      </g>
     </g>
     <g id="text_1">
      <!-- 2020-05-15 -->
      <g transform="translate(100.816349 334.998438) scale(0.1 -0.1)">
       <defs>
        <path id="DejaVuSans-32" d="M 1228 531 
L 3431 531 
L 3431 0 
L 469 0 
L 469 531 
Q 828 903 1448 1529 
Q 2069 2156 2228 2338 
Q 2531 2678 2651 2914 
Q 2772 3150 2772 3378 
Q 2772 3750 2511 3984 
Q 2250 4219 1831 4219 
Q 1534 4219 1204 4116 
Q 875 4013 500 3803 
L 500 4441 
Q 881 4594 1212 4672 
Q 1544 4750 1819 4750 
Q 2544 4750 2975 4387 
Q 3406 4025 3406 3419 
Q 3406 3131 3298 2873 
Q 3191 2616 2906 2266 
Q 2828 2175 2409 1742 
Q 1991 1309 1228 531 
z
" transform="scale(0.015625)"/>
        <path id="DejaVuSans-30" d="M 2034 4250 
Q 1547 4250 1301 3770 
Q 1056 3291 1056 2328 
Q 1056 1369 1301 889 
Q 1547 409 2034 409 
Q 2525 409 2770 889 
Q 3016 1369 3016 2328 
Q 3016 3291 2770 3770 
Q 2525 4250 2034 4250 
z
M 2034 4750 
Q 2819 4750 3233 4129 
Q 3647 3509 3647 2328 
Q 3647 1150 3233 529 
Q 2819 -91 2034 -91 
Q 1250 -91 836 529 
Q 422 1150 422 2328 
Q 422 3509 836 4129 
Q 1250 4750 2034 4750 
z
" transform="scale(0.015625)"/>
        <path id="DejaVuSans-2d" d="M 313 2009 
L 1997 2009 
L 1997 1497 
L 313 1497 
L 313 2009 
z
" transform="scale(0.015625)"/>
        <path id="DejaVuSans-35" d="M 691 4666 
L 3169 4666 
L 3169 4134 
L 1269 4134 
L 1269 2991 
Q 1406 3038 1543 3061 
Q 1681 3084 1819 3084 
Q 2600 3084 3056 2656 
Q 3513 2228 3513 1497 
Q 3513 744 3044 326 
Q 2575 -91 1722 -91 
Q 1428 -91 1123 -41 
Q 819 9 494 109 
L 494 744 
Q 775 591 1075 516 
Q 1375 441 1709 441 
Q 2250 441 2565 725 
Q 2881 1009 2881 1497 
Q 2881 1984 2565 2268 
Q 2250 2553 1709 2553 
Q 1456 2553 1204 2497 
Q 953 2441 691 2322 
L 691 4666 
z
" transform="scale(0.015625)"/>
        <path id="DejaVuSans-31" d="M 794 531 
L 1825 531 
L 1825 4091 
L 703 3866 
L 703 4441 
L 1819 4666 
L 2450 4666 
L 2450 531 
L 3481 531 
L 3481 0 
L 794 0 
L 794 531 
z
" transform="scale(0.015625)"/>
       </defs>
       <use xlink:href="#DejaVuSans-32"/>
       <use xlink:href="#DejaVuSans-30" x="63.623047"/>
       <use xlink:href="#DejaVuSans-32" x="127.246094"/>
       <use xlink:href="#DejaVuSans-30" x="190.869141"/>
       <use xlink:href="#DejaVuSans-2d" x="254.492188"/>
       <use xlink:href="#DejaVuSans-30" x="290.576172"/>
       <use xlink:href="#DejaVuSans-35" x="354.199219"/>
       <use xlink:href="#DejaVuSans-2d" x="417.822266"/>
       <use xlink:href="#DejaVuSans-31" x="453.90625"/>
       <use xlink:href="#DejaVuSans-35" x="517.529297"/>
      </g>
     </g>
    </g>
    <g id="xtick_2">
     <g id="line2d_2">
      <g>
       <use xlink:href="#m7621c54e1f" x="212.435902" y="320.4" style="stroke: #000000; stroke-width: 0.8"/>
      </g>
     </g>
     <g id="text_2">
      <!-- 2020-06-01 -->
      <g transform="translate(183.37809 334.998438) scale(0.1 -0.1)">
       <defs>
        <path id="DejaVuSans-36" d="M 2113 2584 
Q 1688 2584 1439 2293 
Q 1191 2003 1191 1497 
Q 1191 994 1439 701 
Q 1688 409 2113 409 
Q 2538 409 2786 701 
Q 3034 994 3034 1497 
Q 3034 2003 2786 2293 
Q 2538 2584 2113 2584 
z
M 3366 4563 
L 3366 3988 
Q 3128 4100 2886 4159 
Q 2644 4219 2406 4219 
Q 1781 4219 1451 3797 
Q 1122 3375 1075 2522 
Q 1259 2794 1537 2939 
Q 1816 3084 2150 3084 
Q 2853 3084 3261 2657 
Q 3669 2231 3669 1497 
Q 3669 778 3244 343 
Q 2819 -91 2113 -91 
Q 1303 -91 875 529 
Q 447 1150 447 2328 
Q 447 3434 972 4092 
Q 1497 4750 2381 4750 
Q 2619 4750 2861 4703 
Q 3103 4656 3366 4563 
z
" transform="scale(0.015625)"/>
       </defs>
       <use xlink:href="#DejaVuSans-32"/>
       <use xlink:href="#DejaVuSans-30" x="63.623047"/>
       <use xlink:href="#DejaVuSans-32" x="127.246094"/>
       <use xlink:href="#DejaVuSans-30" x="190.869141"/>
       <use xlink:href="#DejaVuSans-2d" x="254.492188"/>
       <use xlink:href="#DejaVuSans-30" x="290.576172"/>
       <use xlink:href="#DejaVuSans-36" x="354.199219"/>
       <use xlink:href="#DejaVuSans-2d" x="417.822266"/>
       <use xlink:href="#DejaVuSans-30" x="453.90625"/>
       <use xlink:href="#DejaVuSans-31" x="517.529297"/>
      </g>
     </g>
    </g>
    <g id="xtick_3">
     <g id="line2d_3">
      <g>
       <use xlink:href="#m7621c54e1f" x="280.427924" y="320.4" style="stroke: #000000; stroke-width: 0.8"/>
      </g>
     </g>
     <g id="text_3">
      <!-- 2020-06-15 -->
      <g transform="translate(251.370111 334.998438) scale(0.1 -0.1)">
       <use xlink:href="#DejaVuSans-32"/>
       <use xlink:href="#DejaVuSans-30" x="63.623047"/>
       <use xlink:href="#DejaVuSans-32" x="127.246094"/>
       <use xlink:href="#DejaVuSans-30" x="190.869141"/>
       <use xlink:href="#DejaVuSans-2d" x="254.492188"/>
       <use xlink:href="#DejaVuSans-30" x="290.576172"/>
       <use xlink:href="#DejaVuSans-36" x="354.199219"/>
       <use xlink:href="#DejaVuSans-2d" x="417.822266"/>
       <use xlink:href="#DejaVuSans-31" x="453.90625"/>
       <use xlink:href="#DejaVuSans-35" x="517.529297"/>
      </g>
     </g>
    </g>
    <g id="xtick_4">
     <g id="line2d_4">
      <g>
       <use xlink:href="#m7621c54e1f" x="358.133092" y="320.4" style="stroke: #000000; stroke-width: 0.8"/>
      </g>
     </g>
     <g id="text_4">
      <!-- 2020-07-01 -->
      <g transform="translate(329.075279 334.998438) scale(0.1 -0.1)">
       <defs>
        <path id="DejaVuSans-37" d="M 525 4666 
L 3525 4666 
L 3525 4397 
L 1831 0 
L 1172 0 
L 2766 4134 
L 525 4134 
L 525 4666 
z
" transform="scale(0.015625)"/>
       </defs>
       <use xlink:href="#DejaVuSans-32"/>
       <use xlink:href="#DejaVuSans-30" x="63.623047"/>
       <use xlink:href="#DejaVuSans-32" x="127.246094"/>
       <use xlink:href="#DejaVuSans-30" x="190.869141"/>
       <use xlink:href="#DejaVuSans-2d" x="254.492188"/>
       <use xlink:href="#DejaVuSans-30" x="290.576172"/>
       <use xlink:href="#DejaVuSans-37" x="354.199219"/>
       <use xlink:href="#DejaVuSans-2d" x="417.822266"/>
       <use xlink:href="#DejaVuSans-30" x="453.90625"/>
       <use xlink:href="#DejaVuSans-31" x="517.529297"/>
      </g>
     </g>
    </g>
    <g id="xtick_5">
     <g id="line2d_5">
      <g>
       <use xlink:href="#m7621c54e1f" x="426.125113" y="320.4" style="stroke: #000000; stroke-width: 0.8"/>
      </g>
     </g>
     <g id="text_5">
      <!-- 2020-07-15 -->
      <g transform="translate(397.067301 334.998438) scale(0.1 -0.1)">
       <use xlink:href="#DejaVuSans-32"/>
       <use xlink:href="#DejaVuSans-30" x="63.623047"/>
       <use xlink:href="#DejaVuSans-32" x="127.246094"/>
       <use xlink:href="#DejaVuSans-30" x="190.869141"/>
       <use xlink:href="#DejaVuSans-2d" x="254.492188"/>
       <use xlink:href="#DejaVuSans-30" x="290.576172"/>
       <use xlink:href="#DejaVuSans-37" x="354.199219"/>
       <use xlink:href="#DejaVuSans-2d" x="417.822266"/>
       <use xlink:href="#DejaVuSans-31" x="453.90625"/>
       <use xlink:href="#DejaVuSans-35" x="517.529297"/>
      </g>
     </g>
    </g>
    <g id="xtick_6">
     <g id="line2d_6">
      <g>
       <use xlink:href="#m7621c54e1f" x="508.686854" y="320.4" style="stroke: #000000; stroke-width: 0.8"/>
      </g>
     </g>
     <g id="text_6">
      <!-- 2020-08-01 -->
      <g transform="translate(479.629042 334.998438) scale(0.1 -0.1)">
       <defs>
        <path id="DejaVuSans-38" d="M 2034 2216 
Q 1584 2216 1326 1975 
Q 1069 1734 1069 1313 
Q 1069 891 1326 650 
Q 1584 409 2034 409 
Q 2484 409 2743 651 
Q 3003 894 3003 1313 
Q 3003 1734 2745 1975 
Q 2488 2216 2034 2216 
z
M 1403 2484 
Q 997 2584 770 2862 
Q 544 3141 544 3541 
Q 544 4100 942 4425 
Q 1341 4750 2034 4750 
Q 2731 4750 3128 4425 
Q 3525 4100 3525 3541 
Q 3525 3141 3298 2862 
Q 3072 2584 2669 2484 
Q 3125 2378 3379 2068 
Q 3634 1759 3634 1313 
Q 3634 634 3220 271 
Q 2806 -91 2034 -91 
Q 1263 -91 848 271 
Q 434 634 434 1313 
Q 434 1759 690 2068 
Q 947 2378 1403 2484 
z
M 1172 3481 
Q 1172 3119 1398 2916 
Q 1625 2713 2034 2713 
Q 2441 2713 2670 2916 
Q 2900 3119 2900 3481 
Q 2900 3844 2670 4047 
Q 2441 4250 2034 4250 
Q 1625 4250 1398 4047 
Q 1172 3844 1172 3481 
z
" transform="scale(0.015625)"/>
       </defs>
       <use xlink:href="#DejaVuSans-32"/>
       <use xlink:href="#DejaVuSans-30" x="63.623047"/>
       <use xlink:href="#DejaVuSans-32" x="127.246094"/>
       <use xlink:href="#DejaVuSans-30" x="190.869141"/>
       <use xlink:href="#DejaVuSans-2d" x="254.492188"/>
       <use xlink:href="#DejaVuSans-30" x="290.576172"/>
       <use xlink:href="#DejaVuSans-38" x="354.199219"/>
       <use xlink:href="#DejaVuSans-2d" x="417.822266"/>
       <use xlink:href="#DejaVuSans-30" x="453.90625"/>
       <use xlink:href="#DejaVuSans-31" x="517.529297"/>
      </g>
     </g>
    </g>
   </g>
   <g id="matplotlib.axis_2">
    <g id="ytick_1">
     <g id="line2d_7">
      <defs>
       <path id="mb821015553" d="M 0 0 
L -3.5 0 
" style="stroke: #000000; stroke-width: 0.8"/>
      </defs>
      <g>
       <use xlink:href="#mb821015553" x="72" y="303.583191" style="stroke: #000000; stroke-width: 0.8"/>
      </g>
     </g>
     <g id="text_7">
      <!-- 0 -->
      <g transform="translate(58.6375 307.38241) scale(0.1 -0.1)">
       <use xlink:href="#DejaVuSans-30"/>
      </g>
     </g>
    </g>
    <g id="ytick_2">
     <g id="line2d_8">
      <g>
       <use xlink:href="#mb821015553" x="72" y="258.925272" style="stroke: #000000; stroke-width: 0.8"/>
      </g>
     </g>
     <g id="text_8">
      <!-- 20 -->
      <g transform="translate(52.275 262.724491) scale(0.1 -0.1)">
       <use xlink:href="#DejaVuSans-32"/>
       <use xlink:href="#DejaVuSans-30" x="63.623047"/>
      </g>
     </g>
    </g>
    <g id="ytick_3">
     <g id="line2d_9">
      <g>
       <use xlink:href="#mb821015553" x="72" y="214.267352" style="stroke: #000000; stroke-width: 0.8"/>
      </g>
     </g>
     <g id="text_9">
      <!-- 40 -->
      <g transform="translate(52.275 218.066571) scale(0.1 -0.1)">
       <defs>
        <path id="DejaVuSans-34" d="M 2419 4116 
L 825 1625 
L 2419 1625 
L 2419 4116 
z
M 2253 4666 
L 3047 4666 
L 3047 1625 
L 3713 1625 
L 3713 1100 
L 3047 1100 
L 3047 0 
L 2419 0 
L 2419 1100 
L 313 1100 
L 313 1709 
L 2253 4666 
z
" transform="scale(0.015625)"/>
       </defs>
       <use xlink:href="#DejaVuSans-34"/>
       <use xlink:href="#DejaVuSans-30" x="63.623047"/>
      </g>
     </g>
    </g>
    <g id="ytick_4">
     <g id="line2d_10">
      <g>
       <use xlink:href="#mb821015553" x="72" y="169.609433" style="stroke: #000000; stroke-width: 0.8"/>
      </g>
     </g>
     <g id="text_10">
      <!-- 60 -->
      <g transform="translate(52.275 173.408652) scale(0.1 -0.1)">
       <use xlink:href="#DejaVuSans-36"/>
       <use xlink:href="#DejaVuSans-30" x="63.623047"/>
      </g>
     </g>
    </g>
    <g id="ytick_5">
     <g id="line2d_11">
      <g>
       <use xlink:href="#mb821015553" x="72" y="124.951513" style="stroke: #000000; stroke-width: 0.8"/>
      </g>
     </g>
     <g id="text_11">
      <!-- 80 -->
      <g transform="translate(52.275 128.750732) scale(0.1 -0.1)">
       <use xlink:href="#DejaVuSans-38"/>
       <use xlink:href="#DejaVuSans-30" x="63.623047"/>
      </g>
     </g>
    </g>
    <g id="ytick_6">
     <g id="line2d_12">
      <g>
       <use xlink:href="#mb821015553" x="72" y="80.293594" style="stroke: #000000; stroke-width: 0.8"/>
      </g>
     </g>
     <g id="text_12">
      <!-- 100 -->
      <g transform="translate(45.9125 84.092813) scale(0.1 -0.1)">
       <use xlink:href="#DejaVuSans-31"/>
       <use xlink:href="#DejaVuSans-30" x="63.623047"/>
       <use xlink:href="#DejaVuSans-30" x="127.246094"/>
      </g>
     </g>
    </g>
   </g>
   <g id="line2d_13">
    <path d="M 72 306.844239 
L 72.404714 307.317439 
L 72.607072 307.245583 
L 72.809429 306.800424 
L 73.214143 305.510517 
L 73.618858 304.99175 
L 75.035358 301.530382 
L 75.237715 301.406824 
L 75.844787 302.098222 
L 76.047144 302.734412 
L 76.654216 305.666498 
L 77.05893 306.670733 
L 77.261287 306.853002 
L 77.463645 306.837229 
L 77.868359 305.680519 
L 78.273073 304.979482 
L 78.677788 304.299476 
L 79.487217 301.92121 
L 79.891931 301.242081 
L 80.094288 301.323576 
L 80.903717 303.093694 
L 81.713146 306.237843 
L 82.11786 306.849497 
L 82.522575 306.92223 
L 82.724932 306.817074 
L 82.927289 306.532278 
L 83.332004 305.572734 
L 83.939075 304.848038 
L 84.141432 304.859429 
L 84.748504 305.214329 
L 85.153218 305.315103 
L 85.355576 305.390465 
L 85.557933 305.251134 
L 85.76029 305.507012 
L 86.569719 307.384037 
L 86.772076 307.638163 
L 87.176791 307.707391 
L 87.581505 307.495327 
L 87.783862 307.21316 
L 88.188577 306.292173 
L 88.593291 305.99949 
L 89.40272 305.565724 
L 90.009791 304.888347 
L 90.414506 304.732367 
L 90.616863 305.064483 
L 91.223935 307.177232 
L 91.628649 307.638163 
L 92.033364 307.536513 
L 92.842792 305.608662 
L 93.247507 305.344897 
L 93.449864 305.159999 
L 94.056936 304.989121 
L 94.259293 304.879584 
L 94.664007 304.493138 
L 95.271079 304.502777 
L 95.473436 304.925152 
L 96.080508 307.193005 
L 96.485222 307.577699 
L 96.687579 307.657442 
L 96.889937 307.476048 
L 97.699365 305.577992 
L 98.306437 305.138968 
L 98.508794 305.123194 
L 99.52058 304.236383 
L 99.722937 304.288961 
L 99.925295 304.47123 
L 100.127652 304.394993 
L 100.330009 304.81912 
L 100.937081 307.089602 
L 101.341795 307.602235 
L 101.544152 307.643421 
L 101.74651 307.488317 
L 101.948867 306.988828 
L 102.353581 305.733973 
L 102.758296 305.524538 
L 103.16301 305.276546 
L 103.567724 304.926028 
L 104.377153 304.002412 
L 104.57951 304.055866 
L 104.781868 304.281074 
L 104.984225 304.280198 
L 105.186582 304.651747 
L 105.793654 306.958158 
L 106.198368 307.490946 
L 106.400725 307.564554 
L 106.603083 307.396306 
L 107.412511 305.477218 
L 107.817226 305.25201 
L 108.22194 304.644737 
L 108.829012 303.489779 
L 109.031369 303.410913 
L 109.638441 303.773699 
L 109.840798 304.00066 
L 110.043155 304.435302 
L 110.650227 306.735579 
L 111.054941 307.33146 
L 111.257298 307.411203 
L 111.459655 307.33847 
L 113.078513 303.780709 
L 113.887942 302.154304 
L 114.090299 302.055283 
L 114.292656 302.340079 
L 114.495014 302.81766 
L 114.697371 303.009569 
L 115.102085 304.430921 
L 115.709157 306.493721 
L 116.113871 307.076458 
L 116.518586 307.014241 
L 116.720943 306.862641 
L 117.125657 305.724333 
L 118.744515 300.928367 
L 118.946872 300.766252 
L 119.149229 300.919604 
L 119.756301 302.502194 
L 120.56573 305.818097 
L 120.970444 306.646196 
L 121.375159 306.885425 
L 121.577516 306.824961 
L 121.779873 306.493721 
L 122.589302 304.36257 
L 123.196374 303.298747 
L 123.398731 303.107714 
L 123.803445 303.092817 
L 124.612874 304.111073 
L 125.219946 306.463051 
L 125.62466 307.070324 
L 125.827017 307.153572 
L 126.029374 307.04754 
L 127.04116 304.691181 
L 127.648232 303.127869 
L 128.255304 301.356875 
L 128.457661 301.041409 
L 128.660018 301.027388 
L 129.26709 302.879877 
L 130.278876 306.67599 
L 130.481233 307.002849 
L 130.68359 307.060684 
L 130.885947 306.9529 
L 132.504805 302.40142 
L 133.111877 300.618158 
L 133.314234 300.224701 
L 133.516591 300.295681 
L 133.921306 300.938006 
L 134.123663 301.248215 
L 135.135449 305.840004 
L 135.540163 306.367534 
L 135.74252 306.328101 
L 135.944878 305.885572 
L 136.349592 304.572881 
L 136.551949 304.289837 
L 136.754306 303.793854 
L 136.956664 303.984886 
L 137.159021 303.512563 
L 137.766092 303.143642 
L 137.96845 303.160292 
L 138.373164 302.934208 
L 138.777879 303.249674 
L 138.980236 303.284726 
L 139.182593 303.77808 
L 139.789665 306.144955 
L 140.194379 306.78728 
L 140.396736 306.874033 
L 140.599093 306.747847 
L 141.003808 305.485105 
L 141.408522 304.600046 
L 142.217951 303.925298 
L 142.825023 303.646636 
L 143.229737 303.624729 
L 143.634451 303.845555 
L 143.836809 303.793854 
L 144.039166 304.219734 
L 144.646238 306.282534 
L 145.050952 306.788156 
L 145.253309 306.842487 
L 145.455666 306.711042 
L 145.860381 305.471084 
L 146.062738 304.783192 
L 146.66981 304.094423 
L 147.276881 303.639626 
L 147.479238 303.472253 
L 147.681596 303.826277 
L 148.08631 303.977 
L 148.491024 304.366951 
L 148.693382 304.309992 
L 149.098096 305.29933 
L 149.502811 306.477948 
L 149.907525 307.027385 
L 150.312239 307.089602 
L 150.716954 306.729445 
L 151.121668 305.847891 
L 151.526383 304.982111 
L 151.931097 304.736748 
L 152.335811 304.801594 
L 152.740526 304.736748 
L 153.347597 304.709583 
L 153.549955 304.586025 
L 153.752312 304.678913 
L 154.764098 306.853879 
L 155.168812 307.079963 
L 155.573527 306.913467 
L 155.978241 305.70856 
L 156.78767 303.151529 
L 157.799456 301.349865 
L 158.001813 301.434866 
L 158.608885 302.566163 
L 159.215956 305.467579 
L 159.620671 306.380679 
L 159.823028 306.516505 
L 160.025385 306.477948 
L 160.227743 306.06346 
L 160.632457 304.691181 
L 161.8466 302.564411 
L 162.251315 302.139407 
L 162.453672 302.145542 
L 162.656029 302.26647 
L 163.465458 303.611584 
L 164.072529 306.142326 
L 164.477244 306.92924 
L 164.679601 306.943261 
L 164.881958 306.806559 
L 165.084316 306.377174 
L 165.48903 305.033812 
L 166.500816 303.550244 
L 167.310245 301.735435 
L 167.512602 301.877395 
L 167.917316 302.747557 
L 168.119674 302.93596 
L 168.322031 303.41617 
L 168.929102 305.92851 
L 169.333817 306.570835 
L 169.536174 306.719805 
L 169.738531 306.564701 
L 170.143246 305.410619 
L 170.54796 304.128599 
L 171.357389 302.243687 
L 171.762103 301.591723 
L 172.166818 300.965171 
L 172.369175 301.033522 
L 172.773889 301.908942 
L 173.178604 303.016579 
L 173.785675 306.02315 
L 174.19039 306.843363 
L 174.392747 306.96955 
L 174.595104 306.892436 
L 174.999819 305.868922 
L 175.404533 304.811233 
L 177.023391 301.501464 
L 177.225748 301.523372 
L 177.428105 301.688991 
L 177.630462 302.390904 
L 177.83282 302.494307 
L 178.237534 304.360817 
L 178.642248 306.176502 
L 179.046963 306.988828 
L 179.24932 307.146561 
L 179.451677 307.039653 
L 179.654034 306.671609 
L 180.463463 304.44757 
L 181.677607 301.23507 
L 182.082321 300.741716 
L 182.284678 300.981821 
L 183.094107 303.367098 
L 183.498821 305.018915 
L 183.903536 305.927634 
L 184.30825 306.25975 
L 184.510607 306.317586 
L 184.712965 306.163357 
L 184.915322 305.596394 
L 185.724751 302.121882 
L 186.129465 301.215792 
L 186.331822 300.959037 
L 186.53418 300.926614 
L 186.736537 301.034399 
L 187.748323 302.748433 
L 188.557752 305.469331 
L 188.962466 306.07047 
L 189.36718 306.160729 
L 189.569538 306.129182 
L 189.771895 305.671756 
L 190.986038 301.601362 
L 191.188395 301.376154 
L 191.390752 301.374401 
L 191.795467 301.7626 
L 192.604896 303.091065 
L 193.414325 305.778664 
L 193.819039 306.360524 
L 194.021396 306.406091 
L 194.426111 306.237843 
L 194.628468 305.85753 
L 195.437897 303.271582 
L 195.640254 303.058642 
L 196.044968 303.253179 
L 196.449683 303.39251 
L 196.65204 303.375861 
L 197.056754 303.724626 
L 197.259112 303.760555 
L 197.461469 304.118083 
L 198.06854 306.17212 
L 198.473255 306.775012 
L 198.675612 306.779393 
L 198.877969 306.624289 
L 199.282684 305.315979 
L 199.687398 304.34592 
L 201.306256 301.523372 
L 201.508613 301.474299 
L 202.115684 302.29013 
L 202.318042 302.764206 
L 202.925113 305.487733 
L 203.329828 306.237843 
L 203.532185 306.327225 
L 203.734542 306.200162 
L 204.139257 304.935667 
L 204.543971 303.930556 
L 205.151043 302.907919 
L 205.758114 301.941365 
L 206.162829 301.841467 
L 206.365186 301.901931 
L 207.174615 303.002559 
L 207.781686 305.513146 
L 208.186401 306.200162 
L 208.388758 306.329854 
L 208.591115 306.187894 
L 208.99583 304.899739 
L 209.400544 303.957721 
L 210.209973 302.453121 
L 210.817044 300.680375 
L 211.019402 300.319341 
L 211.221759 300.445528 
L 212.233545 303.333799 
L 212.638259 305.101287 
L 213.042974 305.891706 
L 213.245331 306.061707 
L 213.447688 305.988975 
L 213.650045 305.533301 
L 214.257117 303.69308 
L 214.661831 302.572298 
L 215.47126 300.04769 
L 215.875975 299.336137 
L 216.078332 299.315983 
L 216.280689 299.551706 
L 217.090118 302.264718 
L 217.697189 304.898863 
L 218.101904 305.684024 
L 218.506618 305.884695 
L 218.708976 305.831241 
L 218.911333 305.289691 
L 219.518404 302.958744 
L 220.125476 301.461155 
L 220.327833 301.369144 
L 220.53019 301.463783 
L 221.946691 304.118083 
L 222.553762 305.903098 
L 222.958477 306.365782 
L 223.363191 306.453411 
L 223.565549 306.386813 
L 223.767906 306.01614 
L 224.374977 304.390611 
L 224.779692 304.068134 
L 225.791478 304.343291 
L 226.196192 304.699944 
L 226.398549 304.685047 
L 226.600907 304.958451 
L 227.410335 307.239449 
L 227.81505 307.483059 
L 228.017407 307.347233 
L 228.826836 305.535053 
L 229.029193 305.436032 
L 229.433908 304.805099 
L 230.648051 302.493431 
L 230.850408 302.517967 
L 231.255122 303.131374 
L 231.45748 303.594935 
L 232.064551 306.304441 
L 232.469266 307.035272 
L 232.671623 307.150943 
L 232.87398 307.099241 
L 233.278694 306.02315 
L 233.683409 305.064483 
L 235.302267 302.316419 
L 235.504624 302.291007 
L 236.111695 303.104209 
L 236.314053 303.544986 
L 236.921124 306.18877 
L 237.325839 306.864394 
L 237.528196 306.997591 
L 237.730553 306.907333 
L 238.135267 305.888201 
L 238.539982 304.96108 
L 239.349411 303.644884 
L 240.15884 302.784361 
L 240.361197 302.773846 
L 240.563554 303.006064 
L 240.968268 303.755297 
L 241.170626 304.077774 
L 241.777697 306.441143 
L 242.182412 307.115891 
L 242.384769 307.221923 
L 242.587126 307.09486 
L 245.015413 302.203377 
L 245.21777 302.102603 
L 245.420127 302.28312 
L 246.027199 303.423181 
L 246.836627 306.549804 
L 247.241342 307.04053 
L 247.443699 306.932745 
L 247.848413 305.930263 
L 249.467271 301.164967 
L 249.669628 300.821459 
L 250.074343 300.746097 
L 250.479057 301.528629 
L 250.883772 302.407554 
L 251.6932 305.59727 
L 252.097915 306.215059 
L 252.502629 306.357019 
L 252.704986 306.192275 
L 253.109701 304.798965 
L 253.91913 301.68461 
L 254.323844 301.012491 
L 254.728558 300.637437 
L 254.930916 300.583983 
L 255.133273 300.902954 
L 255.942702 303.36885 
L 256.549773 305.696292 
L 256.954488 306.35439 
L 257.359202 306.587485 
L 257.561559 306.546299 
L 257.966274 305.317732 
L 258.573345 303.174313 
L 258.97806 302.25245 
L 259.382774 301.783631 
L 259.787489 301.618888 
L 259.989846 301.730177 
L 260.39456 302.410183 
L 260.596917 302.978022 
L 261.203989 305.614796 
L 261.811061 306.534907 
L 262.013418 306.501608 
L 262.418132 305.482476 
L 262.822847 304.742882 
L 263.227561 304.441436 
L 263.632276 304.435302 
L 264.846419 304.55886 
L 265.048776 304.730614 
L 265.251133 304.730614 
L 265.45349 304.901492 
L 266.060562 306.707537 
L 266.465277 307.253469 
L 266.667634 307.319192 
L 266.869991 307.141304 
L 267.072348 306.803053 
L 267.477063 305.676137 
L 268.286491 304.468602 
L 269.298277 303.712358 
L 269.500635 303.649265 
L 270.107706 303.924422 
L 270.310063 304.192568 
L 270.917135 306.270266 
L 271.32185 306.779393 
L 271.524207 306.870528 
L 271.726564 306.797796 
L 274.15485 300.776768 
L 274.357208 300.471817 
L 274.559565 300.613777 
L 275.166636 301.683734 
L 275.976065 305.152988 
L 276.38078 305.687529 
L 276.583137 305.657735 
L 276.987851 304.728861 
L 277.392566 303.499418 
L 278.404352 301.077337 
L 278.606709 300.947645 
L 279.011423 300.385063 
L 279.213781 300.316712 
L 279.416138 300.498106 
L 280.023209 302.272604 
L 280.630281 305.307217 
L 281.034995 306.2764 
L 281.237353 306.484082 
L 281.43971 306.41836 
L 281.642067 306.167739 
L 283.463282 301.717909 
L 283.867996 301.14043 
L 284.070354 301.089605 
L 284.272711 301.436618 
L 285.284497 304.970719 
L 285.689211 306.339493 
L 286.093926 306.966921 
L 286.296283 307.064189 
L 286.700997 306.861765 
L 287.105712 305.542064 
L 287.915141 302.822042 
L 288.724569 301.19739 
L 288.926927 301.115018 
L 289.129284 301.267493 
L 289.736355 302.706371 
L 290.748141 306.090625 
L 291.152856 306.456917 
L 291.55757 306.397328 
L 291.759927 305.866293 
L 292.771714 301.667084 
L 293.176428 300.7312 
L 293.581142 300.252743 
L 293.7835 300.179134 
L 293.985857 300.32898 
L 294.592928 301.415587 
L 295.402357 304.960203 
L 295.807072 305.585879 
L 296.009429 305.578868 
L 296.414143 304.714841 
L 297.830644 298.962835 
L 298.235358 298.395872 
L 298.640073 298.296851 
L 298.84243 298.38448 
L 299.044787 298.727112 
L 299.449501 299.876812 
L 300.056573 303.244416 
L 300.461287 304.320508 
L 300.663645 304.577262 
L 300.866002 304.607933 
L 301.068359 304.317002 
L 301.473073 303.035858 
L 302.484859 298.546595 
L 302.687217 298.063756 
L 302.889574 298.068137 
L 303.294288 298.563245 
L 303.496646 298.782319 
L 303.90136 299.731347 
L 304.306074 300.923109 
L 304.913146 303.875349 
L 305.31786 304.956698 
L 305.520218 305.194174 
L 305.722575 305.117937 
L 305.924932 304.813862 
L 306.532004 303.109467 
L 307.54379 300.123051 
L 307.746147 299.687532 
L 307.948504 299.649851 
L 308.757933 301.026512 
L 309.162647 302.138531 
L 309.769719 304.82613 
L 310.174433 305.674384 
L 310.376791 305.861912 
L 310.579148 305.837375 
L 310.983862 304.838398 
L 312.198005 300.39996 
L 312.60272 299.903977 
L 312.805077 299.717326 
L 313.007434 299.740986 
L 313.209791 299.898719 
L 314.01922 301.659197 
L 314.626292 304.329271 
L 315.031006 305.203814 
L 315.233364 305.399228 
L 315.435721 305.371186 
L 315.840435 304.570252 
L 316.24515 303.771946 
L 316.649864 303.259313 
L 317.054578 302.606473 
L 317.66165 302.285749 
L 318.066364 302.227913 
L 318.673436 302.95261 
L 319.07815 304.033083 
L 319.685222 305.872427 
L 320.089937 306.417483 
L 320.292294 306.487587 
L 320.697008 306.149337 
L 321.30408 304.469478 
L 322.315866 301.705641 
L 322.72058 301.26837 
L 322.922937 301.169348 
L 323.125295 301.345484 
L 323.732366 302.524101 
L 324.541795 305.4483 
L 324.94651 306.058202 
L 325.351224 306.184389 
L 325.553581 306.087996 
L 325.755938 305.562219 
L 326.970082 300.766252 
L 327.172439 300.496353 
L 327.77951 300.191402 
L 327.981868 300.404342 
L 328.184225 300.779396 
L 328.791296 302.98328 
L 329.398368 305.499125 
L 329.803083 305.930263 
L 330.00544 305.889953 
L 330.207797 305.650724 
L 331.826655 300.982697 
L 332.231369 300.860016 
L 332.636083 300.957285 
L 332.838441 301.150946 
L 333.243155 302.128892 
L 333.445512 302.513586 
L 334.052584 305.317732 
L 334.457298 306.247482 
L 334.659655 306.478824 
L 334.862013 306.376297 
L 335.266727 305.529796 
L 335.671442 304.490509 
L 336.48087 302.779103 
L 336.683228 302.562658 
L 336.885585 302.515338 
L 337.087942 302.251573 
L 337.290299 302.172707 
L 337.695014 302.44874 
L 338.099728 303.065652 
L 338.302085 303.316273 
L 339.111514 306.1248 
L 339.516228 306.484958 
L 339.718586 306.311451 
L 340.1233 305.315103 
L 340.932729 303.417923 
L 342.349229 300.782902 
L 342.551587 300.779396 
L 343.158658 301.832704 
L 343.76573 304.510664 
L 344.170444 305.279175 
L 344.372801 305.482476 
L 344.575159 305.391341 
L 344.777516 305.096029 
L 345.18223 303.77808 
L 346.194016 300.251866 
L 346.598731 299.62181 
L 347.003445 299.339643 
L 347.205802 299.303714 
L 347.40816 299.43954 
L 347.610517 299.774285 
L 348.015231 300.888057 
L 348.82466 304.776181 
L 349.229374 305.506136 
L 349.431732 305.473713 
L 349.634089 305.226597 
L 349.836446 304.751645 
L 351.050589 300.295681 
L 351.455304 299.512273 
L 351.860018 299.134589 
L 352.062375 299.096032 
L 352.264733 299.251137 
L 352.46709 299.724336 
L 353.276519 303.269829 
L 353.681233 304.888347 
L 354.085947 305.749746 
L 354.288305 305.974954 
L 354.490662 305.99949 
L 354.693019 305.903974 
L 355.097733 304.110197 
L 355.704805 300.959913 
L 356.109519 299.90573 
L 356.716591 299.129332 
L 356.918948 299.082888 
L 357.121306 299.287941 
L 357.52602 300.381558 
L 357.728377 300.923109 
L 358.740163 304.997884 
L 359.144878 305.551703 
L 359.549592 305.617425 
L 359.751949 305.019792 
L 360.763735 299.871554 
L 361.16845 299.057475 
L 361.573164 298.583399 
L 361.775521 298.485254 
L 361.977879 298.625462 
L 362.180236 298.924278 
L 362.58495 300.024906 
L 363.394379 303.813132 
L 363.799093 304.566747 
L 364.001451 304.601798 
L 364.203808 304.350302 
L 364.406165 303.920917 
L 365.013237 300.950274 
L 365.620308 298.193448 
L 366.025023 297.502927 
L 366.429737 297.239162 
L 366.834451 297.373235 
L 367.036809 297.745661 
L 367.441523 298.992629 
L 368.048595 302.39441 
L 368.453309 303.698338 
L 368.655666 304.062877 
L 368.858024 304.164527 
L 369.060381 303.998031 
L 369.262738 303.576532 
L 369.86981 300.861768 
L 370.476881 298.375717 
L 370.881596 297.665041 
L 371.28631 297.676433 
L 371.691024 298.111076 
L 372.298096 299.77779 
L 373.107525 303.412665 
L 373.512239 304.363446 
L 373.714597 304.550097 
L 374.119311 304.520303 
L 374.321668 303.975247 
L 375.333454 299.53418 
L 375.738169 298.967217 
L 376.142883 298.804226 
L 376.34524 299.025929 
L 376.749955 300.148464 
L 377.559383 302.66869 
L 377.964098 304.151382 
L 378.368812 304.742006 
L 378.57117 304.751645 
L 378.773527 304.497519 
L 379.178241 303.269829 
L 379.98767 300.064339 
L 380.392384 299.025052 
L 380.797099 298.600049 
L 381.201813 298.274943 
L 381.40417 298.436182 
L 382.011242 300.021401 
L 382.820671 303.569522 
L 383.225385 304.259167 
L 383.427743 304.287208 
L 383.6301 304.058495 
L 384.034814 303.105962 
L 385.0466 299.960936 
L 385.451315 299.245879 
L 385.653672 299.225724 
L 385.856029 299.387839 
L 386.058386 299.714697 
L 387.070172 302.712505 
L 387.474887 304.430921 
L 387.879601 305.368557 
L 388.284316 305.760261 
L 388.68903 305.868046 
L 388.891387 305.621807 
L 389.700816 303.756173 
L 390.510245 303.098951 
L 390.914959 302.730031 
L 391.117316 302.935084 
L 391.926745 304.630716 
L 392.533817 306.524391 
L 392.938531 307.05455 
L 393.343246 307.115015 
L 393.545603 307.135169 
L 393.74796 306.751352 
L 394.355032 304.987369 
L 395.569175 302.56704 
L 395.771532 302.309409 
L 395.973889 302.36111 
L 396.378604 303.277716 
L 396.580961 303.672925 
L 397.39039 306.65233 
L 397.795104 307.053674 
L 397.997461 306.945013 
L 398.402176 306.167739 
L 400.628105 300.697901 
L 400.830462 300.819706 
L 401.03282 301.246462 
L 401.639891 303.691327 
L 402.044606 305.592013 
L 402.44932 306.463051 
L 402.651677 306.634805 
L 402.854034 306.563825 
L 403.258749 305.783921 
L 403.663463 304.56587 
L 404.877607 300.020524 
L 405.282321 299.140723 
L 405.484678 298.960207 
L 405.687035 299.00665 
L 405.889393 299.457066 
L 406.496464 302.27611 
L 406.901179 304.377467 
L 407.305893 305.408867 
L 407.50825 305.648972 
L 407.710607 305.626188 
L 408.115322 304.715717 
L 409.73418 299.045207 
L 409.936537 298.83402 
L 410.138894 298.827886 
L 410.341251 299.025052 
L 410.948323 300.572591 
L 411.353037 302.321677 
L 411.757752 304.280198 
L 412.162466 305.311598 
L 412.364823 305.589384 
L 412.56718 305.665621 
L 412.971895 304.891852 
L 414.388395 300.687385 
L 414.995467 299.921503 
L 415.197824 299.821605 
L 415.400181 300.111659 
L 416.20961 302.792248 
L 416.614325 304.730614 
L 417.019039 305.719076 
L 417.221396 305.901345 
L 417.423753 305.877685 
L 417.828468 305.185411 
L 419.244968 300.997594 
L 419.649683 300.414857 
L 419.85204 300.25099 
L 420.054397 300.312331 
L 420.256754 300.683004 
L 421.066183 303.477511 
L 421.673255 305.834747 
L 422.077969 306.522639 
L 422.280326 306.628671 
L 422.685041 306.593619 
L 423.089755 305.278299 
L 423.899184 302.325182 
L 424.708613 300.644447 
L 424.91097 300.508621 
L 425.113327 300.679499 
L 425.720399 302.29977 
L 426.529828 305.486857 
L 426.934542 306.279905 
L 427.136899 306.470937 
L 427.541614 306.514752 
L 427.743971 306.147584 
L 428.351043 303.461738 
L 428.958114 301.172853 
L 429.362829 300.457796 
L 429.565186 300.335991 
L 429.9699 300.503363 
L 430.374615 301.195637 
L 430.576972 301.692497 
L 431.386401 304.935667 
L 431.791115 305.457939 
L 431.993472 305.371186 
L 432.398187 304.50453 
L 433.207616 301.726672 
L 434.017044 298.723607 
L 434.219402 298.515048 
L 435.02883 299.684903 
L 435.433545 300.751355 
L 436.040617 303.789472 
L 436.445331 304.750769 
L 436.647688 304.969843 
L 436.850045 304.940925 
L 437.25476 304.062 
L 437.659474 302.572298 
L 438.468903 299.437788 
L 438.67126 299.022424 
L 438.873617 299.063609 
L 439.075975 299.366808 
L 439.278332 299.347529 
L 439.480689 299.443046 
L 439.885403 300.234341 
L 440.290118 301.290277 
L 440.897189 304.422158 
L 441.301904 305.373815 
L 441.504261 305.605157 
L 441.706618 305.627941 
L 442.111333 304.999637 
L 443.123119 302.174459 
L 443.932548 300.51826 
L 444.337262 300.213309 
L 444.539619 300.486714 
L 445.146691 302.40843 
L 445.753762 305.358918 
L 446.158477 306.263255 
L 446.360834 306.474442 
L 446.563191 306.389442 
L 446.967906 305.58325 
L 448.586763 300.901202 
L 448.991478 300.33862 
L 449.193835 300.239598 
L 449.396192 300.523518 
L 450.003264 302.245439 
L 450.812693 305.658611 
L 451.217407 306.225574 
L 451.419764 306.230832 
L 451.824479 305.498249 
L 452.43155 303.348696 
L 453.038622 301.561929 
L 453.443336 300.835479 
L 453.848051 300.499858 
L 454.050408 300.643571 
L 454.252765 301.06945 
L 454.65748 302.280491 
L 454.859837 302.640649 
L 455.669266 305.400104 
L 456.07398 305.977583 
L 456.276337 306.042429 
L 456.681052 305.825107 
L 456.883409 305.484228 
L 457.288123 304.332776 
L 457.692838 303.86571 
L 458.097552 303.996278 
L 458.299909 304.140867 
L 458.704624 304.051485 
L 459.109338 303.994526 
L 459.71641 304.354683 
L 460.728196 306.814445 
L 461.13291 307.002849 
L 461.537625 306.861765 
L 461.739982 306.481453 
L 462.144696 305.011029 
L 463.561197 302.06317 
L 463.763554 301.753837 
L 463.965911 301.803786 
L 464.572983 302.633638 
L 465.382412 305.487733 
L 465.787126 305.89784 
L 465.989483 305.794437 
L 467.608341 301.851106 
L 468.620127 300.948522 
L 468.822484 301.081719 
L 469.429556 302.199872 
L 470.036627 304.616696 
L 470.441342 305.374691 
L 470.643699 305.486857 
L 470.846056 305.37732 
L 471.857842 303.207612 
L 472.869628 301.918581 
L 473.679057 302.078067 
L 473.881414 302.358481 
L 474.083772 302.407554 
L 474.286129 302.734412 
L 474.8932 304.954946 
L 475.297915 305.647219 
L 475.500272 305.718199 
L 475.702629 305.631446 
L 476.107344 304.593036 
L 476.512058 303.655399 
L 477.321487 302.31379 
L 477.726201 301.455021 
L 477.928558 301.303421 
L 478.333273 301.503217 
L 478.53563 301.693373 
L 479.142702 302.755443 
L 479.952131 305.642838 
L 480.356845 306.062583 
L 480.559202 306.045058 
L 480.963917 305.103916 
L 482.785131 299.634078 
L 483.189846 299.270415 
L 483.392203 299.51052 
L 483.999275 301.208781 
L 484.808704 304.870821 
L 485.213418 305.415001 
L 485.415775 305.455311 
L 485.82049 304.61319 
L 486.225204 303.28385 
L 487.23699 299.450932 
L 487.439347 299.319488 
L 487.844062 299.599026 
L 488.248776 300.392074 
L 489.260562 303.694832 
L 489.665277 305.064483 
L 490.069991 305.707684 
L 490.272348 305.807581 
L 490.677063 305.684024 
L 490.87942 305.269536 
L 491.891206 301.87389 
L 492.29592 301.119399 
L 492.498277 300.804809 
L 492.700635 300.718932 
L 492.902992 300.788159 
L 493.105349 300.993213 
L 493.712421 302.420698 
L 494.52185 305.486857 
L 495.128921 306.265008 
L 495.533636 306.244853 
L 495.735993 305.923252 
L 496.950136 302.026365 
L 497.557208 300.988831 
L 497.759565 300.845995 
L 497.961922 300.982697 
L 498.568994 302.324306 
L 499.378422 305.467579 
L 499.783137 305.864541 
L 499.985494 305.723457 
L 500.390209 304.770047 
L 500.794923 303.788596 
L 501.401995 303.013951 
L 501.806709 302.534617 
L 502.211423 302.602968 
L 502.818495 302.751938 
L 503.020852 302.972765 
L 503.223209 302.996425 
L 503.425567 303.316273 
L 504.032638 305.474589 
L 504.437353 306.031037 
L 504.63971 306.100264 
L 504.842067 305.99949 
L 507.270354 300.833727 
L 507.472711 300.701406 
L 507.675068 300.845995 
L 508.28214 302.03951 
L 509.091568 304.990874 
L 509.496283 305.388712 
L 509.69864 305.310722 
L 510.103354 304.308239 
L 511.722212 299.779543 
L 512.126927 299.0233 
L 512.329284 299.090775 
L 512.936355 300.554188 
L 513.34107 302.21214 
L 513.745784 304.062877 
L 514.150499 305.030307 
L 514.352856 305.267783 
L 514.555213 305.288814 
L 514.959927 304.304734 
L 516.174071 300.790788 
L 516.376428 300.744345 
L 516.781142 301.141307 
L 516.9835 301.024759 
L 517.185857 301.047543 
L 517.995286 302.437348 
L 518.4 304.12597 
L 518.4 304.12597 
" clip-path="url(#p3380d361c0)" style="fill: none; stroke: #1f77b4; stroke-width: 1.5; stroke-linecap: square"/>
   </g>
   <g id="line2d_14">
    <path d="M 72 306.252371 
L 72.202357 306.252371 
L 72.809429 306.655298 
L 73.011786 306.441116 
L 73.618858 305.01123 
L 74.225929 304.053723 
L 75.035358 302.010931 
L 75.440073 301.585261 
L 75.64243 301.700355 
L 76.047144 302.587761 
L 77.05893 306.311547 
L 77.261287 306.606461 
L 77.463645 306.55884 
L 77.868359 305.596306 
L 78.273073 304.59961 
L 78.880145 303.739327 
L 79.284859 302.690196 
L 79.689574 301.650427 
L 80.094288 301.266013 
L 80.296646 301.416533 
L 81.106074 303.735402 
L 81.713146 306.016813 
L 82.11786 306.681048 
L 82.320218 306.761484 
L 82.927289 306.070839 
L 83.939075 304.508798 
L 84.141432 304.442743 
L 85.153218 305.104343 
L 85.557933 305.386908 
L 85.76029 305.419562 
L 85.962647 305.722818 
L 86.772076 307.6936 
L 86.974433 307.8 
L 87.379148 307.58749 
L 88.593291 305.604816 
L 89.40272 305.424207 
L 89.807434 305.0363 
L 90.212149 304.660808 
L 90.414506 304.642441 
L 90.616863 304.818786 
L 91.021578 305.755229 
L 91.426292 307.13456 
L 91.628649 307.445393 
L 91.831006 307.458752 
L 92.033364 307.326961 
L 92.438078 306.520344 
L 92.842792 305.167637 
L 93.247507 304.860198 
L 95.068722 304.386077 
L 95.271079 304.493364 
L 95.473436 304.770103 
L 96.485222 307.273043 
L 96.687579 307.263689 
L 96.889937 307.038137 
L 97.699365 305.20365 
L 97.901723 305.16198 
L 98.306437 304.791671 
L 99.115866 304.504038 
L 99.318223 304.428944 
L 99.722937 304.157056 
L 100.127652 304.492226 
L 100.330009 304.771633 
L 101.341795 307.230084 
L 101.544152 307.228083 
L 101.74651 307.080271 
L 101.948867 306.762055 
L 102.555938 305.123568 
L 102.758296 305.158158 
L 103.365367 304.819009 
L 103.567724 304.767036 
L 104.57951 303.990218 
L 104.984225 304.331787 
L 105.388939 305.226563 
L 105.996011 306.889022 
L 106.198368 307.166679 
L 106.400725 307.173688 
L 106.603083 307.056894 
L 107.007797 306.159224 
L 107.412511 305.115611 
L 107.817226 304.884352 
L 108.424297 304.406062 
L 109.031369 303.362783 
L 109.233726 303.417108 
L 109.840798 304.016559 
L 110.245512 305.033395 
L 110.852584 306.732575 
L 111.054941 307.00374 
L 111.257298 307.050037 
L 111.459655 306.964412 
L 111.662013 306.721938 
L 112.471442 304.882781 
L 114.090299 302.375003 
L 114.292656 302.413451 
L 114.495014 302.588525 
L 114.899728 303.644707 
L 115.709157 306.244539 
L 116.113871 306.704055 
L 116.316228 306.691843 
L 116.9233 305.981012 
L 117.328015 305.135439 
L 118.542158 301.7193 
L 118.946872 301.103949 
L 119.149229 300.94165 
L 119.351587 301.202954 
L 119.958658 303.212569 
L 120.56573 305.724537 
L 120.970444 306.466492 
L 121.172801 306.641382 
L 121.375159 306.643547 
L 121.779873 306.115191 
L 122.994016 303.525278 
L 123.398731 303.091343 
L 123.601088 302.967532 
L 124.005802 303.170936 
L 124.815231 304.525162 
L 125.62466 307.298358 
L 125.827017 307.436476 
L 126.029374 307.356159 
L 126.231732 307.091094 
L 126.636446 305.678941 
L 127.04116 304.327127 
L 127.648232 303.444258 
L 127.850589 302.958408 
L 128.255304 301.603355 
L 128.660018 301.125253 
L 128.862375 301.265082 
L 129.064733 301.715164 
L 129.469447 303.307948 
L 130.076519 306.005258 
L 130.481233 306.833922 
L 130.68359 306.906664 
L 130.885947 306.696913 
L 131.290662 305.738059 
L 132.100091 303.629178 
L 132.707162 301.980938 
L 133.111877 300.895943 
L 133.516591 300.544556 
L 133.718948 300.671559 
L 134.123663 301.560719 
L 134.32602 302.138158 
L 135.135449 305.810613 
L 135.540163 306.356074 
L 135.74252 306.321792 
L 135.944878 306.006792 
L 136.956664 303.251978 
L 137.159021 303.377256 
L 137.96845 302.936617 
L 138.980236 303.602528 
L 139.38495 304.691381 
L 139.992022 306.542919 
L 140.396736 306.874707 
L 140.599093 306.757281 
L 140.801451 306.46542 
L 141.610879 304.317216 
L 141.813237 304.029389 
L 142.420308 303.942003 
L 142.825023 303.585349 
L 143.634451 303.806533 
L 143.836809 304.005673 
L 144.241523 304.884672 
L 144.848595 306.396263 
L 145.050952 306.641878 
L 145.253309 306.622583 
L 145.658024 306.145328 
L 146.265095 304.355161 
L 146.872167 303.755184 
L 147.479238 303.647081 
L 147.681596 303.49929 
L 148.288667 304.073252 
L 148.693382 304.434671 
L 148.895739 304.660764 
L 149.705168 306.449359 
L 150.109882 306.682177 
L 150.514597 306.388457 
L 151.72874 304.594202 
L 152.335811 304.392494 
L 153.14524 304.583484 
L 153.549955 304.674644 
L 153.954669 305.033265 
L 154.966455 306.743587 
L 155.37117 306.589679 
L 155.775884 306.076679 
L 156.585313 304.092247 
L 157.597099 301.900453 
L 158.001813 301.458991 
L 158.20417 301.476049 
L 158.608885 302.363945 
L 159.013599 304.208095 
L 159.418314 305.869287 
L 159.620671 306.357846 
L 159.823028 306.529289 
L 160.025385 306.418347 
L 160.227743 306.137074 
L 160.632457 304.855945 
L 161.037171 303.70366 
L 161.441886 302.958575 
L 161.8466 302.490505 
L 162.251315 301.853563 
L 162.453672 301.891702 
L 162.656029 302.092001 
L 163.465458 303.679335 
L 164.477244 306.713551 
L 164.679601 306.919905 
L 164.881958 306.747325 
L 165.286673 305.76115 
L 165.691387 304.530775 
L 166.298459 303.88929 
L 166.500816 303.763296 
L 166.90553 303.013656 
L 167.310245 301.890812 
L 167.512602 301.862009 
L 167.917316 302.570805 
L 168.322031 303.549468 
L 169.13146 306.207041 
L 169.333817 306.509678 
L 169.536174 306.569481 
L 169.738531 306.467916 
L 170.143246 305.639795 
L 170.952675 303.064891 
L 171.559746 301.868336 
L 171.964461 301.370912 
L 172.369175 301.209428 
L 172.571532 301.347593 
L 172.976247 302.335761 
L 173.380961 303.733888 
L 173.988033 306.277852 
L 174.19039 306.67701 
L 174.392747 306.793762 
L 174.595104 306.654098 
L 174.999819 305.748473 
L 175.404533 304.599476 
L 177.023391 301.91236 
L 177.225748 301.839153 
L 177.428105 301.945305 
L 177.630462 302.209981 
L 178.237534 304.165238 
L 178.844606 306.576006 
L 179.24932 307.065843 
L 179.451677 306.949732 
L 179.654034 306.684188 
L 180.66582 303.986992 
L 181.677607 301.393591 
L 182.082321 301.110231 
L 182.284678 301.114996 
L 182.487035 301.442748 
L 182.89175 302.787598 
L 183.701179 305.6613 
L 183.903536 306.003123 
L 184.30825 306.084555 
L 184.712965 305.670997 
L 184.915322 305.458496 
L 185.320036 304.270775 
L 185.927108 301.6344 
L 186.331822 300.766225 
L 186.736537 300.718135 
L 186.938894 301.011192 
L 188.153037 304.153984 
L 188.557752 305.547914 
L 188.962466 306.160077 
L 189.36718 306.049914 
L 189.569538 305.816346 
L 189.974252 304.885961 
L 190.783681 302.290099 
L 191.188395 301.32235 
L 191.390752 301.139248 
L 191.59311 301.192283 
L 191.997824 301.967856 
L 193.211967 305.052588 
L 193.616682 306.181824 
L 193.819039 306.450716 
L 194.021396 306.469385 
L 194.223753 306.267014 
L 195.033182 304.563104 
L 195.640254 302.882375 
L 195.842611 302.609741 
L 196.044968 302.681926 
L 196.65204 303.558209 
L 197.056754 303.864978 
L 197.461469 304.101087 
L 197.866183 305.096488 
L 198.270898 306.537336 
L 198.473255 306.918036 
L 198.675612 307.030617 
L 198.877969 306.804709 
L 199.282684 305.683085 
L 199.889755 303.777353 
L 200.699184 302.768969 
L 201.103898 301.982014 
L 201.508613 301.689262 
L 201.71097 301.730972 
L 202.115684 302.484514 
L 202.520399 303.65403 
L 203.127471 305.729583 
L 203.329828 306.161529 
L 203.532185 306.29222 
L 203.734542 306.025657 
L 204.341614 304.358821 
L 204.948685 303.025342 
L 205.960471 301.717042 
L 206.162829 301.714089 
L 206.7699 302.548503 
L 207.174615 303.237685 
L 208.186401 306.118792 
L 208.388758 306.200088 
L 208.591115 306.091884 
L 208.793472 305.783246 
L 209.805258 303.088002 
L 210.41233 302.297139 
L 210.817044 301.080112 
L 211.221759 300.569213 
L 211.424116 300.708107 
L 212.031188 302.446414 
L 212.435902 304.079983 
L 212.840617 305.508998 
L 213.245331 305.991801 
L 213.650045 305.554264 
L 214.257117 303.814879 
L 215.47126 300.246383 
L 215.875975 299.59056 
L 216.078332 299.504531 
L 216.280689 299.6115 
L 216.483046 299.922969 
L 217.292475 303.06027 
L 217.697189 304.697976 
L 218.101904 305.558476 
L 218.304261 305.661693 
L 218.708976 305.245866 
L 219.11369 304.610986 
L 220.327833 301.043403 
L 220.53019 300.983379 
L 220.732548 301.17754 
L 221.137262 302.214993 
L 221.541976 303.349852 
L 221.744334 303.616313 
L 222.149048 304.775294 
L 222.553762 306.064581 
L 222.75612 306.465187 
L 222.958477 306.613909 
L 223.363191 306.492905 
L 223.565549 306.273164 
L 223.970263 305.327038 
L 224.374977 304.228504 
L 224.577335 303.912156 
L 224.982049 303.81272 
L 225.386763 304.036976 
L 225.791478 304.342925 
L 226.196192 304.551566 
L 226.803264 305.145224 
L 227.612693 307.471236 
L 227.81505 307.517487 
L 228.017407 307.384158 
L 228.422121 306.527182 
L 229.029193 304.833577 
L 229.433908 304.76933 
L 229.838622 304.229563 
L 230.445694 303.179123 
L 230.850408 302.811058 
L 231.052765 302.84683 
L 231.255122 303.100988 
L 231.862194 305.120094 
L 232.469266 306.883917 
L 232.671623 307.012897 
L 233.076337 306.400871 
L 233.885766 304.602807 
L 234.492838 303.634053 
L 235.302267 302.471027 
L 235.706981 302.542994 
L 235.909338 302.795448 
L 236.314053 303.709182 
L 237.325839 306.725381 
L 237.528196 306.800654 
L 237.730553 306.734617 
L 237.93291 306.43791 
L 238.944696 304.093566 
L 239.349411 303.652776 
L 239.956482 303.083503 
L 240.361197 302.942555 
L 240.765911 303.304656 
L 241.170626 304.135219 
L 241.980054 306.609134 
L 242.384769 306.973979 
L 242.587126 306.931987 
L 242.789483 306.616901 
L 243.598912 304.703493 
L 244.408341 303.556044 
L 244.813055 302.758148 
L 245.21777 302.482694 
L 245.420127 302.462109 
L 245.622484 302.602957 
L 246.027199 303.590171 
L 247.038985 306.606692 
L 247.241342 306.824905 
L 247.443699 306.755961 
L 247.646056 306.47648 
L 249.871985 300.698112 
L 250.074343 300.751062 
L 250.479057 301.342981 
L 251.086129 303.393985 
L 251.6932 305.522866 
L 252.097915 306.126987 
L 252.300272 306.135323 
L 252.704986 305.673666 
L 253.109701 304.875931 
L 253.514415 303.4222 
L 254.121487 301.289988 
L 254.526201 300.716015 
L 254.930916 300.738739 
L 255.133273 300.867966 
L 255.33563 301.247131 
L 256.145059 304.048229 
L 256.549773 305.676225 
L 256.954488 306.439908 
L 257.359202 306.350501 
L 257.763917 305.732082 
L 258.370988 304.052288 
L 258.97806 302.112076 
L 259.382774 301.678903 
L 259.787489 301.7116 
L 260.192203 302.230012 
L 260.596917 302.965798 
L 261.001632 304.476039 
L 261.406346 306.165717 
L 261.811061 306.785548 
L 262.013418 306.723787 
L 262.215775 306.470577 
L 263.025204 304.119895 
L 263.429918 303.940146 
L 263.632276 303.995976 
L 264.239347 304.417545 
L 265.251133 304.620393 
L 265.655848 305.53177 
L 266.262919 306.868979 
L 266.667634 307.212453 
L 266.869991 307.043139 
L 268.084134 304.780831 
L 269.09592 303.930916 
L 269.702992 303.763775 
L 269.905349 303.842257 
L 270.512421 304.767186 
L 271.119492 306.287787 
L 271.32185 306.576956 
L 271.524207 306.610265 
L 271.928921 306.147628 
L 272.940707 303.83929 
L 273.547779 302.635837 
L 273.952493 301.485407 
L 274.559565 300.791121 
L 274.761922 300.900767 
L 275.166636 301.837066 
L 275.571351 303.409179 
L 275.976065 305.051773 
L 276.38078 305.71128 
L 276.583137 305.612264 
L 276.987851 304.720536 
L 278.606709 300.763669 
L 278.809066 300.503895 
L 279.213781 300.468702 
L 279.618495 300.87346 
L 280.225567 302.926696 
L 281.034995 306.149751 
L 281.237353 306.305683 
L 281.43971 306.253247 
L 281.642067 306.046962 
L 282.653853 303.433423 
L 283.058568 302.373447 
L 283.867996 301.182646 
L 284.070354 301.187689 
L 284.272711 301.385052 
L 284.475068 301.755879 
L 285.284497 304.874902 
L 285.689211 306.32131 
L 285.891568 306.663696 
L 286.296283 306.774564 
L 286.49864 306.681146 
L 286.903354 306.104192 
L 287.510426 304.409609 
L 288.117498 302.401986 
L 288.724569 301.45141 
L 288.926927 301.328548 
L 289.129284 301.387319 
L 289.331641 301.665625 
L 289.736355 302.809225 
L 290.748141 306.22145 
L 290.950499 306.462289 
L 291.355213 306.368664 
L 291.759927 305.737417 
L 292.164642 304.454093 
L 292.771714 301.967018 
L 293.176428 300.712578 
L 293.581142 300.291156 
L 293.7835 300.259915 
L 294.188214 300.796087 
L 294.795286 302.275111 
L 295.402357 305.033868 
L 295.807072 305.883395 
L 296.009429 305.900447 
L 296.211786 305.633377 
L 297.021215 302.637863 
L 297.628286 300.04346 
L 298.235358 298.09721 
L 298.437715 298.076866 
L 298.640073 298.219621 
L 299.044787 298.919183 
L 299.449501 300.04071 
L 299.854216 301.925488 
L 300.25893 303.851134 
L 300.461287 304.41011 
L 300.663645 304.640395 
L 300.866002 304.60822 
L 301.068359 304.289011 
L 301.877788 301.63559 
L 302.484859 298.695189 
L 302.889574 297.467857 
L 303.091931 297.453695 
L 303.699003 299.034038 
L 304.508432 301.747603 
L 305.31786 305.084539 
L 305.520218 305.372375 
L 305.722575 305.285876 
L 305.924932 304.88253 
L 306.532004 302.952349 
L 307.746147 299.675328 
L 307.948504 299.429381 
L 308.150861 299.565875 
L 308.757933 301.096663 
L 309.365005 302.968686 
L 309.972076 305.48567 
L 310.174433 305.88977 
L 310.376791 306.039122 
L 310.579148 305.930839 
L 310.781505 305.664416 
L 311.186219 304.318865 
L 312.198005 300.417639 
L 312.60272 299.71711 
L 312.805077 299.564018 
L 313.007434 299.594219 
L 313.209791 299.831095 
L 313.816863 301.257265 
L 314.221578 302.54192 
L 314.828649 304.939894 
L 315.233364 305.599944 
L 315.435721 305.464163 
L 315.840435 304.455687 
L 316.24515 303.422433 
L 316.852221 302.72236 
L 317.66165 302.206798 
L 318.268722 302.550546 
L 318.673436 303.128569 
L 319.07815 304.116226 
L 319.482865 305.371362 
L 319.887579 306.095868 
L 320.089937 306.29667 
L 320.292294 306.319494 
L 320.697008 305.839675 
L 321.30408 304.907005 
L 321.708794 303.679864 
L 322.315866 301.930661 
L 322.72058 301.341593 
L 323.125295 301.308135 
L 323.327652 301.501275 
L 323.732366 302.535038 
L 324.137081 303.860355 
L 324.541795 305.379393 
L 324.94651 305.979838 
L 325.148867 306.02507 
L 325.351224 305.937657 
L 325.553581 305.724285 
L 325.958296 304.865479 
L 326.565367 302.659511 
L 327.172439 300.50439 
L 327.374796 300.173119 
L 327.577153 300.157224 
L 327.981868 300.379874 
L 328.386582 301.188464 
L 328.791296 302.678814 
L 329.600725 305.929147 
L 329.803083 306.221131 
L 330.00544 306.160708 
L 330.207797 305.846163 
L 330.612511 304.542895 
L 331.42194 301.75719 
L 332.029012 300.431818 
L 332.231369 300.350897 
L 332.636083 300.833585 
L 333.647869 303.313075 
L 334.254941 305.852327 
L 334.659655 306.388704 
L 334.862013 306.368626 
L 335.06437 306.068416 
L 335.671442 304.165868 
L 335.873799 303.966306 
L 336.885585 302.271057 
L 337.492656 302.351561 
L 338.099728 303.194952 
L 338.504442 304.197704 
L 339.111514 306.119991 
L 339.313871 306.495025 
L 339.516228 306.574569 
L 339.718586 306.424189 
L 339.920943 306.074653 
L 340.528015 304.261584 
L 340.932729 303.558898 
L 341.337443 302.62754 
L 341.539801 302.413157 
L 341.944515 301.55739 
L 342.349229 301.123319 
L 342.753944 301.224741 
L 343.158658 302.167398 
L 343.361015 302.682456 
L 343.968087 305.00379 
L 344.170444 305.394503 
L 344.372801 305.497899 
L 344.575159 305.392848 
L 344.777516 305.119831 
L 345.586945 302.84055 
L 346.396374 299.96875 
L 346.598731 299.423673 
L 346.801088 299.207244 
L 347.205802 299.346927 
L 347.610517 299.810811 
L 348.015231 300.976582 
L 349.229374 305.351605 
L 349.431732 305.313732 
L 349.634089 305.089769 
L 350.24116 303.532975 
L 351.252947 299.859942 
L 351.657661 299.075704 
L 351.860018 299.030394 
L 352.062375 299.10421 
L 352.46709 299.677901 
L 352.871804 301.090489 
L 353.88359 305.492818 
L 354.085947 305.730407 
L 354.288305 305.758148 
L 354.490662 305.62444 
L 355.097733 304.569934 
L 355.502448 302.541208 
L 355.907162 300.398501 
L 356.311877 299.343858 
L 356.716591 299.126497 
L 356.918948 299.107892 
L 357.121306 299.27286 
L 357.323663 299.620575 
L 357.728377 300.977133 
L 358.133092 302.803173 
L 358.740163 305.384691 
L 358.94252 305.686314 
L 359.144878 305.646371 
L 359.549592 305.24631 
L 359.751949 304.948543 
L 359.954306 304.395101 
L 360.359021 302.242675 
L 360.763735 300.008917 
L 361.16845 298.83424 
L 361.573164 298.576902 
L 361.775521 298.543896 
L 361.977879 298.72115 
L 362.382593 299.552593 
L 362.787307 300.889371 
L 363.596736 304.722656 
L 363.799093 304.981938 
L 364.001451 304.891695 
L 364.203808 304.541998 
L 364.810879 302.512341 
L 365.822665 297.606433 
L 366.025023 297.072039 
L 366.22738 296.877616 
L 366.632094 297.1765 
L 367.036809 297.936122 
L 367.441523 299.15039 
L 367.846238 301.120112 
L 368.250952 303.141041 
L 368.655666 304.017174 
L 368.858024 304.030086 
L 369.060381 303.689448 
L 369.86981 301.28984 
L 370.476881 298.41531 
L 370.881596 297.322017 
L 371.083953 297.123542 
L 371.488667 297.592198 
L 371.893382 298.575422 
L 372.500453 300.675968 
L 373.107525 303.433394 
L 373.512239 304.367915 
L 373.714597 304.400809 
L 373.916954 304.187808 
L 374.321668 303.562521 
L 374.524025 303.233667 
L 374.92874 301.417939 
L 375.333454 299.410756 
L 375.738169 298.621942 
L 375.940526 298.557912 
L 376.34524 298.766289 
L 376.547597 299.144563 
L 376.952312 300.535673 
L 377.964098 304.304057 
L 378.368812 305.155995 
L 378.57117 305.073081 
L 378.975884 304.199182 
L 379.380598 302.776057 
L 379.98767 299.91389 
L 380.392384 298.896921 
L 380.797099 298.445939 
L 381.201813 298.499661 
L 381.40417 298.646399 
L 381.808885 299.466751 
L 382.415956 301.77222 
L 382.820671 303.545667 
L 383.023028 304.046302 
L 383.225385 304.205174 
L 383.427743 304.165644 
L 383.832457 303.364139 
L 384.237171 302.461201 
L 384.237171 302.461201 
" clip-path="url(#p3380d361c0)" style="fill: none; stroke: #ff7f0e; stroke-width: 1.5; stroke-linecap: square"/>
   </g>
   <g id="line2d_15">
    <path d="M 384.439529 301.876079 
L 385.248957 299.758629 
L 385.653672 299.039687 
L 385.856029 298.960456 
L 386.058386 299.098794 
L 386.463101 299.796446 
L 387.879601 304.116885 
L 388.081958 304.262986 
L 388.284316 304.228321 
L 388.486673 304.002895 
L 389.093744 302.592059 
L 390.307888 299.225509 
L 390.712602 298.817169 
L 390.914959 298.859919 
L 391.319674 299.557106 
L 391.724388 300.623817 
L 392.533817 303.065167 
L 392.938531 303.562698 
L 393.140888 303.501987 
L 393.545603 302.927879 
L 394.152675 301.473525 
L 394.962103 299.406911 
L 395.366818 298.860294 
L 395.569175 298.819267 
L 395.771532 298.924233 
L 395.973889 299.172754 
L 396.580961 300.692445 
L 397.39039 302.756814 
L 397.795104 302.989734 
L 397.997461 302.938452 
L 398.402176 302.449642 
L 399.009248 301.148875 
L 399.818676 299.126432 
L 400.223391 298.619835 
L 400.425748 298.579107 
L 400.830462 299.008711 
L 401.235177 299.818292 
L 402.044606 301.741843 
L 402.44932 302.32003 
L 402.651677 302.367319 
L 403.056392 302.117948 
L 403.461106 301.502336 
L 404.877607 298.632805 
L 405.282321 298.511128 
L 405.484678 298.621785 
L 405.889393 299.25999 
L 407.103536 301.647671 
L 407.50825 301.872664 
L 407.710607 301.814004 
L 408.115322 301.385588 
L 408.722393 300.28715 
L 409.531822 298.681341 
L 409.936537 298.32416 
L 410.341251 298.486167 
L 410.745966 299.006423 
L 411.960109 301.111458 
L 412.364823 301.281725 
L 412.769538 301.094536 
L 413.174252 300.584758 
L 414.590752 298.276411 
L 414.995467 298.181079 
L 415.400181 298.520662 
L 416.20961 299.81634 
L 416.816682 300.610916 
L 417.221396 300.820076 
L 417.626111 300.645815 
L 418.030825 300.209235 
L 419.447325 298.085171 
L 419.85204 298.029379 
L 420.256754 298.273041 
L 421.26854 299.646142 
L 421.673255 300.07905 
L 422.077969 300.224744 
L 422.482684 300.096838 
L 423.089755 299.384034 
L 424.101541 297.93467 
L 424.506256 297.68532 
L 424.91097 297.770676 
L 425.518042 298.342742 
L 426.327471 299.302913 
L 426.732185 299.582794 
L 427.136899 299.579327 
L 427.541614 299.328929 
L 428.148685 298.558943 
L 428.958114 297.523288 
L 429.362829 297.310761 
L 429.767543 297.337996 
L 430.172257 297.63221 
L 431.386401 298.780654 
L 431.791115 298.894125 
L 432.19583 298.769412 
L 432.802901 298.188254 
L 433.814687 296.964889 
L 434.219402 296.721275 
L 434.624116 296.744292 
L 435.02883 296.954563 
L 436.242974 297.94971 
L 436.647688 298.035354 
L 437.052403 297.919722 
L 437.457117 297.596409 
L 438.873617 296.100042 
L 439.278332 295.957949 
L 439.683046 296.041033 
L 440.492475 296.584892 
L 441.099547 296.949412 
L 441.504261 297.027775 
L 441.908976 296.896935 
L 442.516047 296.390412 
L 443.73019 295.130961 
L 444.134905 294.978558 
L 444.539619 294.988542 
L 445.146691 295.281839 
L 446.158477 295.745691 
L 446.563191 295.706736 
L 446.967906 295.487135 
L 447.777335 294.672455 
L 448.586763 293.888072 
L 448.991478 293.679912 
L 449.598549 293.68452 
L 451.217407 294.141029 
L 451.824479 293.850769 
L 452.633908 293.03061 
L 453.443336 292.20945 
L 454.050408 291.898028 
L 454.65748 291.901421 
L 456.07398 292.063335 
L 456.478694 291.882044 
L 457.085766 291.354507 
L 458.502267 289.857141 
L 459.109338 289.567118 
L 459.71641 289.519844 
L 460.728196 289.490246 
L 461.335267 289.189195 
L 461.942339 288.603405 
L 463.561197 286.799311 
L 464.168268 286.476018 
L 466.19184 285.700575 
L 467.001269 284.776683 
L 468.41777 282.986407 
L 469.227199 282.390807 
L 470.643699 281.5975 
L 471.250771 280.979302 
L 472.262557 279.493675 
L 473.4767 277.771554 
L 474.488486 276.83154 
L 475.500272 275.906526 
L 476.309701 274.790352 
L 479.142702 270.130237 
L 480.559202 268.224477 
L 481.368631 266.706682 
L 484.201632 260.88673 
L 485.415775 258.585884 
L 486.427561 256.133062 
L 491.486491 242.311911 
L 495.93835 226.804718 
L 498.366636 216.265472 
L 500.390209 207.057306 
L 502.009066 198.316989 
L 505.044424 180.680089 
L 506.663282 169.638479 
L 509.496283 148.470089 
L 511.115141 134.672239 
L 513.543427 111.657254 
L 515.364642 92.552103 
L 517.388214 68.567858 
L 518.4 55.8 
L 518.4 55.8 
" clip-path="url(#p3380d361c0)" style="fill: none; stroke: #2ca02c; stroke-width: 1.5; stroke-linecap: square"/>
   </g>
   <g id="patch_3">
    <path d="M 72 320.4 
L 72 43.2 
" style="fill: none; stroke: #000000; stroke-width: 0.8; stroke-linejoin: miter; stroke-linecap: square"/>
   </g>
   <g id="patch_4">
    <path d="M 518.4 320.4 
L 518.4 43.2 
" style="fill: none; stroke: #000000; stroke-width: 0.8; stroke-linejoin: miter; stroke-linecap: square"/>
   </g>
   <g id="patch_5">
    <path d="M 72 320.4 
L 518.4 320.4 
" style="fill: none; stroke: #000000; stroke-width: 0.8; stroke-linejoin: miter; stroke-linecap: square"/>
   </g>
   <g id="patch_6">
    <path d="M 72 43.2 
L 518.4 43.2 
" style="fill: none; stroke: #000000; stroke-width: 0.8; stroke-linejoin: miter; stroke-linecap: square"/>
   </g>
   <g id="text_13">
    <!-- Classic Transformer - model_20231123165327 -->
    <g transform="translate(155.436563 37.2) scale(0.12 -0.12)">
     <defs>
      <path id="DejaVuSans-43" d="M 4122 4306 
L 4122 3641 
Q 3803 3938 3442 4084 
Q 3081 4231 2675 4231 
Q 1875 4231 1450 3742 
Q 1025 3253 1025 2328 
Q 1025 1406 1450 917 
Q 1875 428 2675 428 
Q 3081 428 3442 575 
Q 3803 722 4122 1019 
L 4122 359 
Q 3791 134 3420 21 
Q 3050 -91 2638 -91 
Q 1578 -91 968 557 
Q 359 1206 359 2328 
Q 359 3453 968 4101 
Q 1578 4750 2638 4750 
Q 3056 4750 3426 4639 
Q 3797 4528 4122 4306 
z
" transform="scale(0.015625)"/>
      <path id="DejaVuSans-6c" d="M 603 4863 
L 1178 4863 
L 1178 0 
L 603 0 
L 603 4863 
z
" transform="scale(0.015625)"/>
      <path id="DejaVuSans-61" d="M 2194 1759 
Q 1497 1759 1228 1600 
Q 959 1441 959 1056 
Q 959 750 1161 570 
Q 1363 391 1709 391 
Q 2188 391 2477 730 
Q 2766 1069 2766 1631 
L 2766 1759 
L 2194 1759 
z
M 3341 1997 
L 3341 0 
L 2766 0 
L 2766 531 
Q 2569 213 2275 61 
Q 1981 -91 1556 -91 
Q 1019 -91 701 211 
Q 384 513 384 1019 
Q 384 1609 779 1909 
Q 1175 2209 1959 2209 
L 2766 2209 
L 2766 2266 
Q 2766 2663 2505 2880 
Q 2244 3097 1772 3097 
Q 1472 3097 1187 3025 
Q 903 2953 641 2809 
L 641 3341 
Q 956 3463 1253 3523 
Q 1550 3584 1831 3584 
Q 2591 3584 2966 3190 
Q 3341 2797 3341 1997 
z
" transform="scale(0.015625)"/>
      <path id="DejaVuSans-73" d="M 2834 3397 
L 2834 2853 
Q 2591 2978 2328 3040 
Q 2066 3103 1784 3103 
Q 1356 3103 1142 2972 
Q 928 2841 928 2578 
Q 928 2378 1081 2264 
Q 1234 2150 1697 2047 
L 1894 2003 
Q 2506 1872 2764 1633 
Q 3022 1394 3022 966 
Q 3022 478 2636 193 
Q 2250 -91 1575 -91 
Q 1294 -91 989 -36 
Q 684 19 347 128 
L 347 722 
Q 666 556 975 473 
Q 1284 391 1588 391 
Q 1994 391 2212 530 
Q 2431 669 2431 922 
Q 2431 1156 2273 1281 
Q 2116 1406 1581 1522 
L 1381 1569 
Q 847 1681 609 1914 
Q 372 2147 372 2553 
Q 372 3047 722 3315 
Q 1072 3584 1716 3584 
Q 2034 3584 2315 3537 
Q 2597 3491 2834 3397 
z
" transform="scale(0.015625)"/>
      <path id="DejaVuSans-69" d="M 603 3500 
L 1178 3500 
L 1178 0 
L 603 0 
L 603 3500 
z
M 603 4863 
L 1178 4863 
L 1178 4134 
L 603 4134 
L 603 4863 
z
" transform="scale(0.015625)"/>
      <path id="DejaVuSans-63" d="M 3122 3366 
L 3122 2828 
Q 2878 2963 2633 3030 
Q 2388 3097 2138 3097 
Q 1578 3097 1268 2742 
Q 959 2388 959 1747 
Q 959 1106 1268 751 
Q 1578 397 2138 397 
Q 2388 397 2633 464 
Q 2878 531 3122 666 
L 3122 134 
Q 2881 22 2623 -34 
Q 2366 -91 2075 -91 
Q 1284 -91 818 406 
Q 353 903 353 1747 
Q 353 2603 823 3093 
Q 1294 3584 2113 3584 
Q 2378 3584 2631 3529 
Q 2884 3475 3122 3366 
z
" transform="scale(0.015625)"/>
      <path id="DejaVuSans-20" transform="scale(0.015625)"/>
      <path id="DejaVuSans-54" d="M -19 4666 
L 3928 4666 
L 3928 4134 
L 2272 4134 
L 2272 0 
L 1638 0 
L 1638 4134 
L -19 4134 
L -19 4666 
z
" transform="scale(0.015625)"/>
      <path id="DejaVuSans-72" d="M 2631 2963 
Q 2534 3019 2420 3045 
Q 2306 3072 2169 3072 
Q 1681 3072 1420 2755 
Q 1159 2438 1159 1844 
L 1159 0 
L 581 0 
L 581 3500 
L 1159 3500 
L 1159 2956 
Q 1341 3275 1631 3429 
Q 1922 3584 2338 3584 
Q 2397 3584 2469 3576 
Q 2541 3569 2628 3553 
L 2631 2963 
z
" transform="scale(0.015625)"/>
      <path id="DejaVuSans-6e" d="M 3513 2113 
L 3513 0 
L 2938 0 
L 2938 2094 
Q 2938 2591 2744 2837 
Q 2550 3084 2163 3084 
Q 1697 3084 1428 2787 
Q 1159 2491 1159 1978 
L 1159 0 
L 581 0 
L 581 3500 
L 1159 3500 
L 1159 2956 
Q 1366 3272 1645 3428 
Q 1925 3584 2291 3584 
Q 2894 3584 3203 3211 
Q 3513 2838 3513 2113 
z
" transform="scale(0.015625)"/>
      <path id="DejaVuSans-66" d="M 2375 4863 
L 2375 4384 
L 1825 4384 
Q 1516 4384 1395 4259 
Q 1275 4134 1275 3809 
L 1275 3500 
L 2222 3500 
L 2222 3053 
L 1275 3053 
L 1275 0 
L 697 0 
L 697 3053 
L 147 3053 
L 147 3500 
L 697 3500 
L 697 3744 
Q 697 4328 969 4595 
Q 1241 4863 1831 4863 
L 2375 4863 
z
" transform="scale(0.015625)"/>
      <path id="DejaVuSans-6f" d="M 1959 3097 
Q 1497 3097 1228 2736 
Q 959 2375 959 1747 
Q 959 1119 1226 758 
Q 1494 397 1959 397 
Q 2419 397 2687 759 
Q 2956 1122 2956 1747 
Q 2956 2369 2687 2733 
Q 2419 3097 1959 3097 
z
M 1959 3584 
Q 2709 3584 3137 3096 
Q 3566 2609 3566 1747 
Q 3566 888 3137 398 
Q 2709 -91 1959 -91 
Q 1206 -91 779 398 
Q 353 888 353 1747 
Q 353 2609 779 3096 
Q 1206 3584 1959 3584 
z
" transform="scale(0.015625)"/>
      <path id="DejaVuSans-6d" d="M 3328 2828 
Q 3544 3216 3844 3400 
Q 4144 3584 4550 3584 
Q 5097 3584 5394 3201 
Q 5691 2819 5691 2113 
L 5691 0 
L 5113 0 
L 5113 2094 
Q 5113 2597 4934 2840 
Q 4756 3084 4391 3084 
Q 3944 3084 3684 2787 
Q 3425 2491 3425 1978 
L 3425 0 
L 2847 0 
L 2847 2094 
Q 2847 2600 2669 2842 
Q 2491 3084 2119 3084 
Q 1678 3084 1418 2786 
Q 1159 2488 1159 1978 
L 1159 0 
L 581 0 
L 581 3500 
L 1159 3500 
L 1159 2956 
Q 1356 3278 1631 3431 
Q 1906 3584 2284 3584 
Q 2666 3584 2933 3390 
Q 3200 3197 3328 2828 
z
" transform="scale(0.015625)"/>
      <path id="DejaVuSans-65" d="M 3597 1894 
L 3597 1613 
L 953 1613 
Q 991 1019 1311 708 
Q 1631 397 2203 397 
Q 2534 397 2845 478 
Q 3156 559 3463 722 
L 3463 178 
Q 3153 47 2828 -22 
Q 2503 -91 2169 -91 
Q 1331 -91 842 396 
Q 353 884 353 1716 
Q 353 2575 817 3079 
Q 1281 3584 2069 3584 
Q 2775 3584 3186 3129 
Q 3597 2675 3597 1894 
z
M 3022 2063 
Q 3016 2534 2758 2815 
Q 2500 3097 2075 3097 
Q 1594 3097 1305 2825 
Q 1016 2553 972 2059 
L 3022 2063 
z
" transform="scale(0.015625)"/>
      <path id="DejaVuSans-64" d="M 2906 2969 
L 2906 4863 
L 3481 4863 
L 3481 0 
L 2906 0 
L 2906 525 
Q 2725 213 2448 61 
Q 2172 -91 1784 -91 
Q 1150 -91 751 415 
Q 353 922 353 1747 
Q 353 2572 751 3078 
Q 1150 3584 1784 3584 
Q 2172 3584 2448 3432 
Q 2725 3281 2906 2969 
z
M 947 1747 
Q 947 1113 1208 752 
Q 1469 391 1925 391 
Q 2381 391 2643 752 
Q 2906 1113 2906 1747 
Q 2906 2381 2643 2742 
Q 2381 3103 1925 3103 
Q 1469 3103 1208 2742 
Q 947 2381 947 1747 
z
" transform="scale(0.015625)"/>
      <path id="DejaVuSans-5f" d="M 3263 -1063 
L 3263 -1509 
L -63 -1509 
L -63 -1063 
L 3263 -1063 
z
" transform="scale(0.015625)"/>
      <path id="DejaVuSans-33" d="M 2597 2516 
Q 3050 2419 3304 2112 
Q 3559 1806 3559 1356 
Q 3559 666 3084 287 
Q 2609 -91 1734 -91 
Q 1441 -91 1130 -33 
Q 819 25 488 141 
L 488 750 
Q 750 597 1062 519 
Q 1375 441 1716 441 
Q 2309 441 2620 675 
Q 2931 909 2931 1356 
Q 2931 1769 2642 2001 
Q 2353 2234 1838 2234 
L 1294 2234 
L 1294 2753 
L 1863 2753 
Q 2328 2753 2575 2939 
Q 2822 3125 2822 3475 
Q 2822 3834 2567 4026 
Q 2313 4219 1838 4219 
Q 1578 4219 1281 4162 
Q 984 4106 628 3988 
L 628 4550 
Q 988 4650 1302 4700 
Q 1616 4750 1894 4750 
Q 2613 4750 3031 4423 
Q 3450 4097 3450 3541 
Q 3450 3153 3228 2886 
Q 3006 2619 2597 2516 
z
" transform="scale(0.015625)"/>
     </defs>
     <use xlink:href="#DejaVuSans-43"/>
     <use xlink:href="#DejaVuSans-6c" x="69.824219"/>
     <use xlink:href="#DejaVuSans-61" x="97.607422"/>
     <use xlink:href="#DejaVuSans-73" x="158.886719"/>
     <use xlink:href="#DejaVuSans-73" x="210.986328"/>
     <use xlink:href="#DejaVuSans-69" x="263.085938"/>
     <use xlink:href="#DejaVuSans-63" x="290.869141"/>
     <use xlink:href="#DejaVuSans-20" x="345.849609"/>
     <use xlink:href="#DejaVuSans-54" x="377.636719"/>
     <use xlink:href="#DejaVuSans-72" x="423.970703"/>
     <use xlink:href="#DejaVuSans-61" x="465.083984"/>
     <use xlink:href="#DejaVuSans-6e" x="526.363281"/>
     <use xlink:href="#DejaVuSans-73" x="589.742188"/>
     <use xlink:href="#DejaVuSans-66" x="641.841797"/>
     <use xlink:href="#DejaVuSans-6f" x="677.046875"/>
     <use xlink:href="#DejaVuSans-72" x="738.228516"/>
     <use xlink:href="#DejaVuSans-6d" x="777.591797"/>
     <use xlink:href="#DejaVuSans-65" x="875.003906"/>
     <use xlink:href="#DejaVuSans-72" x="936.527344"/>
     <use xlink:href="#DejaVuSans-20" x="977.640625"/>
     <use xlink:href="#DejaVuSans-2d" x="1009.427734"/>
     <use xlink:href="#DejaVuSans-20" x="1045.511719"/>
     <use xlink:href="#DejaVuSans-6d" x="1077.298828"/>
     <use xlink:href="#DejaVuSans-6f" x="1174.710938"/>
     <use xlink:href="#DejaVuSans-64" x="1235.892578"/>
     <use xlink:href="#DejaVuSans-65" x="1299.369141"/>
     <use xlink:href="#DejaVuSans-6c" x="1360.892578"/>
     <use xlink:href="#DejaVuSans-5f" x="1388.675781"/>
     <use xlink:href="#DejaVuSans-32" x="1438.675781"/>
     <use xlink:href="#DejaVuSans-30" x="1502.298828"/>
     <use xlink:href="#DejaVuSans-32" x="1565.921875"/>
     <use xlink:href="#DejaVuSans-33" x="1629.544922"/>
     <use xlink:href="#DejaVuSans-31" x="1693.167969"/>
     <use xlink:href="#DejaVuSans-31" x="1756.791016"/>
     <use xlink:href="#DejaVuSans-32" x="1820.414062"/>
     <use xlink:href="#DejaVuSans-33" x="1884.037109"/>
     <use xlink:href="#DejaVuSans-31" x="1947.660156"/>
     <use xlink:href="#DejaVuSans-36" x="2011.283203"/>
     <use xlink:href="#DejaVuSans-35" x="2074.90625"/>
     <use xlink:href="#DejaVuSans-33" x="2138.529297"/>
     <use xlink:href="#DejaVuSans-32" x="2202.152344"/>
     <use xlink:href="#DejaVuSans-37" x="2265.775391"/>
    </g>
   </g>
   <g id="legend_1">
    <g id="patch_7">
     <path d="M 428.882812 95.234375 
L 511.4 95.234375 
Q 513.4 95.234375 513.4 93.234375 
L 513.4 50.2 
Q 513.4 48.2 511.4 48.2 
L 428.882812 48.2 
Q 426.882812 48.2 426.882812 50.2 
L 426.882812 93.234375 
Q 426.882812 95.234375 428.882812 95.234375 
z
" style="fill: #ffffff; opacity: 0.8; stroke: #cccccc; stroke-linejoin: miter"/>
    </g>
    <g id="line2d_16">
     <path d="M 430.882812 56.298437 
L 440.882812 56.298437 
L 450.882812 56.298437 
" style="fill: none; stroke: #1f77b4; stroke-width: 1.5; stroke-linecap: square"/>
    </g>
    <g id="text_14">
     <!-- Measured -->
     <g transform="translate(458.882812 59.798437) scale(0.1 -0.1)">
      <defs>
       <path id="DejaVuSans-4d" d="M 628 4666 
L 1569 4666 
L 2759 1491 
L 3956 4666 
L 4897 4666 
L 4897 0 
L 4281 0 
L 4281 4097 
L 3078 897 
L 2444 897 
L 1241 4097 
L 1241 0 
L 628 0 
L 628 4666 
z
" transform="scale(0.015625)"/>
       <path id="DejaVuSans-75" d="M 544 1381 
L 544 3500 
L 1119 3500 
L 1119 1403 
Q 1119 906 1312 657 
Q 1506 409 1894 409 
Q 2359 409 2629 706 
Q 2900 1003 2900 1516 
L 2900 3500 
L 3475 3500 
L 3475 0 
L 2900 0 
L 2900 538 
Q 2691 219 2414 64 
Q 2138 -91 1772 -91 
Q 1169 -91 856 284 
Q 544 659 544 1381 
z
M 1991 3584 
L 1991 3584 
z
" transform="scale(0.015625)"/>
      </defs>
      <use xlink:href="#DejaVuSans-4d"/>
      <use xlink:href="#DejaVuSans-65" x="86.279297"/>
      <use xlink:href="#DejaVuSans-61" x="147.802734"/>
      <use xlink:href="#DejaVuSans-73" x="209.082031"/>
      <use xlink:href="#DejaVuSans-75" x="261.181641"/>
      <use xlink:href="#DejaVuSans-72" x="324.560547"/>
      <use xlink:href="#DejaVuSans-65" x="363.423828"/>
      <use xlink:href="#DejaVuSans-64" x="424.947266"/>
     </g>
    </g>
    <g id="line2d_17">
     <path d="M 430.882812 70.976562 
L 440.882812 70.976562 
L 450.882812 70.976562 
" style="fill: none; stroke: #ff7f0e; stroke-width: 1.5; stroke-linecap: square"/>
    </g>
    <g id="text_15">
     <!-- Fitted -->
     <g transform="translate(458.882812 74.476562) scale(0.1 -0.1)">
      <defs>
       <path id="DejaVuSans-46" d="M 628 4666 
L 3309 4666 
L 3309 4134 
L 1259 4134 
L 1259 2759 
L 3109 2759 
L 3109 2228 
L 1259 2228 
L 1259 0 
L 628 0 
L 628 4666 
z
" transform="scale(0.015625)"/>
       <path id="DejaVuSans-74" d="M 1172 4494 
L 1172 3500 
L 2356 3500 
L 2356 3053 
L 1172 3053 
L 1172 1153 
Q 1172 725 1289 603 
Q 1406 481 1766 481 
L 2356 481 
L 2356 0 
L 1766 0 
Q 1100 0 847 248 
Q 594 497 594 1153 
L 594 3053 
L 172 3053 
L 172 3500 
L 594 3500 
L 594 4494 
L 1172 4494 
z
" transform="scale(0.015625)"/>
      </defs>
      <use xlink:href="#DejaVuSans-46"/>
      <use xlink:href="#DejaVuSans-69" x="50.269531"/>
      <use xlink:href="#DejaVuSans-74" x="78.052734"/>
      <use xlink:href="#DejaVuSans-74" x="117.261719"/>
      <use xlink:href="#DejaVuSans-65" x="156.470703"/>
      <use xlink:href="#DejaVuSans-64" x="217.994141"/>
     </g>
    </g>
    <g id="line2d_18">
     <path d="M 430.882812 85.654687 
L 440.882812 85.654687 
L 450.882812 85.654687 
" style="fill: none; stroke: #2ca02c; stroke-width: 1.5; stroke-linecap: square"/>
    </g>
    <g id="text_16">
     <!-- Estimated -->
     <g transform="translate(458.882812 89.154687) scale(0.1 -0.1)">
      <defs>
       <path id="DejaVuSans-45" d="M 628 4666 
L 3578 4666 
L 3578 4134 
L 1259 4134 
L 1259 2753 
L 3481 2753 
L 3481 2222 
L 1259 2222 
L 1259 531 
L 3634 531 
L 3634 0 
L 628 0 
L 628 4666 
z
" transform="scale(0.015625)"/>
      </defs>
      <use xlink:href="#DejaVuSans-45"/>
      <use xlink:href="#DejaVuSans-73" x="63.183594"/>
      <use xlink:href="#DejaVuSans-74" x="115.283203"/>
      <use xlink:href="#DejaVuSans-69" x="154.492188"/>
      <use xlink:href="#DejaVuSans-6d" x="182.275391"/>
      <use xlink:href="#DejaVuSans-61" x="279.6875"/>
      <use xlink:href="#DejaVuSans-74" x="340.966797"/>
      <use xlink:href="#DejaVuSans-65" x="380.175781"/>
      <use xlink:href="#DejaVuSans-64" x="441.699219"/>
     </g>
    </g>
   </g>
  </g>
 </g>
 <defs>
  <clipPath id="p3380d361c0">
   <rect x="72" y="43.2" width="446.4" height="277.2"/>
  </clipPath>
 </defs>
</svg>
