<?xml version="1.0" encoding="utf-8" standalone="no"?>
<!DOCTYPE svg PUBLIC "-//W3C//DTD SVG 1.1//EN"
  "http://www.w3.org/Graphics/SVG/1.1/DTD/svg11.dtd">
<svg xmlns:xlink="http://www.w3.org/1999/xlink" width="576pt" height="360pt" viewBox="0 0 576 360" xmlns="http://www.w3.org/2000/svg" version="1.1">
 <metadata>
  <rdf:RDF xmlns:dc="http://purl.org/dc/elements/1.1/" xmlns:cc="http://creativecommons.org/ns#" xmlns:rdf="http://www.w3.org/1999/02/22-rdf-syntax-ns#">
   <cc:Work>
    <dc:type rdf:resource="http://purl.org/dc/dcmitype/StillImage"/>
    <dc:date>2023-11-26T15:46:14.416732</dc:date>
    <dc:format>image/svg+xml</dc:format>
    <dc:creator>
     <cc:Agent>
      <dc:title>Matplotlib v3.8.1, https://matplotlib.org/</dc:title>
     </cc:Agent>
    </dc:creator>
   </cc:Work>
  </rdf:RDF>
 </metadata>
 <defs>
  <style type="text/css">*{stroke-linejoin: round; stroke-linecap: butt}</style>
 </defs>
 <g id="figure_1">
  <g id="patch_1">
   <path d="M 0 360 
L 576 360 
L 576 0 
L 0 0 
z
" style="fill: #ffffff"/>
  </g>
  <g id="axes_1">
   <g id="patch_2">
    <path d="M 72 320.4 
L 518.4 320.4 
L 518.4 43.2 
L 72 43.2 
z
" style="fill: #ffffff"/>
   </g>
   <g id="matplotlib.axis_1">
    <g id="xtick_1">
     <g id="line2d_1">
      <defs>
       <path id="m02498106dd" d="M 0 0 
L 0 3.5 
" style="stroke: #000000; stroke-width: 0.8"/>
      </defs>
      <g>
       <use xlink:href="#m02498106dd" x="129.874161" y="320.4" style="stroke: #000000; stroke-width: 0.8"/>
      </g>
     </g>
     <g id="text_1">
      <!-- 2020-05-15 -->
      <g transform="translate(100.816349 334.998438) scale(0.1 -0.1)">
       <defs>
        <path id="DejaVuSans-32" d="M 1228 531 
L 3431 531 
L 3431 0 
L 469 0 
L 469 531 
Q 828 903 1448 1529 
Q 2069 2156 2228 2338 
Q 2531 2678 2651 2914 
Q 2772 3150 2772 3378 
Q 2772 3750 2511 3984 
Q 2250 4219 1831 4219 
Q 1534 4219 1204 4116 
Q 875 4013 500 3803 
L 500 4441 
Q 881 4594 1212 4672 
Q 1544 4750 1819 4750 
Q 2544 4750 2975 4387 
Q 3406 4025 3406 3419 
Q 3406 3131 3298 2873 
Q 3191 2616 2906 2266 
Q 2828 2175 2409 1742 
Q 1991 1309 1228 531 
z
" transform="scale(0.015625)"/>
        <path id="DejaVuSans-30" d="M 2034 4250 
Q 1547 4250 1301 3770 
Q 1056 3291 1056 2328 
Q 1056 1369 1301 889 
Q 1547 409 2034 409 
Q 2525 409 2770 889 
Q 3016 1369 3016 2328 
Q 3016 3291 2770 3770 
Q 2525 4250 2034 4250 
z
M 2034 4750 
Q 2819 4750 3233 4129 
Q 3647 3509 3647 2328 
Q 3647 1150 3233 529 
Q 2819 -91 2034 -91 
Q 1250 -91 836 529 
Q 422 1150 422 2328 
Q 422 3509 836 4129 
Q 1250 4750 2034 4750 
z
" transform="scale(0.015625)"/>
        <path id="DejaVuSans-2d" d="M 313 2009 
L 1997 2009 
L 1997 1497 
L 313 1497 
L 313 2009 
z
" transform="scale(0.015625)"/>
        <path id="DejaVuSans-35" d="M 691 4666 
L 3169 4666 
L 3169 4134 
L 1269 4134 
L 1269 2991 
Q 1406 3038 1543 3061 
Q 1681 3084 1819 3084 
Q 2600 3084 3056 2656 
Q 3513 2228 3513 1497 
Q 3513 744 3044 326 
Q 2575 -91 1722 -91 
Q 1428 -91 1123 -41 
Q 819 9 494 109 
L 494 744 
Q 775 591 1075 516 
Q 1375 441 1709 441 
Q 2250 441 2565 725 
Q 2881 1009 2881 1497 
Q 2881 1984 2565 2268 
Q 2250 2553 1709 2553 
Q 1456 2553 1204 2497 
Q 953 2441 691 2322 
L 691 4666 
z
" transform="scale(0.015625)"/>
        <path id="DejaVuSans-31" d="M 794 531 
L 1825 531 
L 1825 4091 
L 703 3866 
L 703 4441 
L 1819 4666 
L 2450 4666 
L 2450 531 
L 3481 531 
L 3481 0 
L 794 0 
L 794 531 
z
" transform="scale(0.015625)"/>
       </defs>
       <use xlink:href="#DejaVuSans-32"/>
       <use xlink:href="#DejaVuSans-30" x="63.623047"/>
       <use xlink:href="#DejaVuSans-32" x="127.246094"/>
       <use xlink:href="#DejaVuSans-30" x="190.869141"/>
       <use xlink:href="#DejaVuSans-2d" x="254.492188"/>
       <use xlink:href="#DejaVuSans-30" x="290.576172"/>
       <use xlink:href="#DejaVuSans-35" x="354.199219"/>
       <use xlink:href="#DejaVuSans-2d" x="417.822266"/>
       <use xlink:href="#DejaVuSans-31" x="453.90625"/>
       <use xlink:href="#DejaVuSans-35" x="517.529297"/>
      </g>
     </g>
    </g>
    <g id="xtick_2">
     <g id="line2d_2">
      <g>
       <use xlink:href="#m02498106dd" x="212.435902" y="320.4" style="stroke: #000000; stroke-width: 0.8"/>
      </g>
     </g>
     <g id="text_2">
      <!-- 2020-06-01 -->
      <g transform="translate(183.37809 334.998438) scale(0.1 -0.1)">
       <defs>
        <path id="DejaVuSans-36" d="M 2113 2584 
Q 1688 2584 1439 2293 
Q 1191 2003 1191 1497 
Q 1191 994 1439 701 
Q 1688 409 2113 409 
Q 2538 409 2786 701 
Q 3034 994 3034 1497 
Q 3034 2003 2786 2293 
Q 2538 2584 2113 2584 
z
M 3366 4563 
L 3366 3988 
Q 3128 4100 2886 4159 
Q 2644 4219 2406 4219 
Q 1781 4219 1451 3797 
Q 1122 3375 1075 2522 
Q 1259 2794 1537 2939 
Q 1816 3084 2150 3084 
Q 2853 3084 3261 2657 
Q 3669 2231 3669 1497 
Q 3669 778 3244 343 
Q 2819 -91 2113 -91 
Q 1303 -91 875 529 
Q 447 1150 447 2328 
Q 447 3434 972 4092 
Q 1497 4750 2381 4750 
Q 2619 4750 2861 4703 
Q 3103 4656 3366 4563 
z
" transform="scale(0.015625)"/>
       </defs>
       <use xlink:href="#DejaVuSans-32"/>
       <use xlink:href="#DejaVuSans-30" x="63.623047"/>
       <use xlink:href="#DejaVuSans-32" x="127.246094"/>
       <use xlink:href="#DejaVuSans-30" x="190.869141"/>
       <use xlink:href="#DejaVuSans-2d" x="254.492188"/>
       <use xlink:href="#DejaVuSans-30" x="290.576172"/>
       <use xlink:href="#DejaVuSans-36" x="354.199219"/>
       <use xlink:href="#DejaVuSans-2d" x="417.822266"/>
       <use xlink:href="#DejaVuSans-30" x="453.90625"/>
       <use xlink:href="#DejaVuSans-31" x="517.529297"/>
      </g>
     </g>
    </g>
    <g id="xtick_3">
     <g id="line2d_3">
      <g>
       <use xlink:href="#m02498106dd" x="280.427924" y="320.4" style="stroke: #000000; stroke-width: 0.8"/>
      </g>
     </g>
     <g id="text_3">
      <!-- 2020-06-15 -->
      <g transform="translate(251.370111 334.998438) scale(0.1 -0.1)">
       <use xlink:href="#DejaVuSans-32"/>
       <use xlink:href="#DejaVuSans-30" x="63.623047"/>
       <use xlink:href="#DejaVuSans-32" x="127.246094"/>
       <use xlink:href="#DejaVuSans-30" x="190.869141"/>
       <use xlink:href="#DejaVuSans-2d" x="254.492188"/>
       <use xlink:href="#DejaVuSans-30" x="290.576172"/>
       <use xlink:href="#DejaVuSans-36" x="354.199219"/>
       <use xlink:href="#DejaVuSans-2d" x="417.822266"/>
       <use xlink:href="#DejaVuSans-31" x="453.90625"/>
       <use xlink:href="#DejaVuSans-35" x="517.529297"/>
      </g>
     </g>
    </g>
    <g id="xtick_4">
     <g id="line2d_4">
      <g>
       <use xlink:href="#m02498106dd" x="358.133092" y="320.4" style="stroke: #000000; stroke-width: 0.8"/>
      </g>
     </g>
     <g id="text_4">
      <!-- 2020-07-01 -->
      <g transform="translate(329.075279 334.998438) scale(0.1 -0.1)">
       <defs>
        <path id="DejaVuSans-37" d="M 525 4666 
L 3525 4666 
L 3525 4397 
L 1831 0 
L 1172 0 
L 2766 4134 
L 525 4134 
L 525 4666 
z
" transform="scale(0.015625)"/>
       </defs>
       <use xlink:href="#DejaVuSans-32"/>
       <use xlink:href="#DejaVuSans-30" x="63.623047"/>
       <use xlink:href="#DejaVuSans-32" x="127.246094"/>
       <use xlink:href="#DejaVuSans-30" x="190.869141"/>
       <use xlink:href="#DejaVuSans-2d" x="254.492188"/>
       <use xlink:href="#DejaVuSans-30" x="290.576172"/>
       <use xlink:href="#DejaVuSans-37" x="354.199219"/>
       <use xlink:href="#DejaVuSans-2d" x="417.822266"/>
       <use xlink:href="#DejaVuSans-30" x="453.90625"/>
       <use xlink:href="#DejaVuSans-31" x="517.529297"/>
      </g>
     </g>
    </g>
    <g id="xtick_5">
     <g id="line2d_5">
      <g>
       <use xlink:href="#m02498106dd" x="426.125113" y="320.4" style="stroke: #000000; stroke-width: 0.8"/>
      </g>
     </g>
     <g id="text_5">
      <!-- 2020-07-15 -->
      <g transform="translate(397.067301 334.998438) scale(0.1 -0.1)">
       <use xlink:href="#DejaVuSans-32"/>
       <use xlink:href="#DejaVuSans-30" x="63.623047"/>
       <use xlink:href="#DejaVuSans-32" x="127.246094"/>
       <use xlink:href="#DejaVuSans-30" x="190.869141"/>
       <use xlink:href="#DejaVuSans-2d" x="254.492188"/>
       <use xlink:href="#DejaVuSans-30" x="290.576172"/>
       <use xlink:href="#DejaVuSans-37" x="354.199219"/>
       <use xlink:href="#DejaVuSans-2d" x="417.822266"/>
       <use xlink:href="#DejaVuSans-31" x="453.90625"/>
       <use xlink:href="#DejaVuSans-35" x="517.529297"/>
      </g>
     </g>
    </g>
    <g id="xtick_6">
     <g id="line2d_6">
      <g>
       <use xlink:href="#m02498106dd" x="508.686854" y="320.4" style="stroke: #000000; stroke-width: 0.8"/>
      </g>
     </g>
     <g id="text_6">
      <!-- 2020-08-01 -->
      <g transform="translate(479.629042 334.998438) scale(0.1 -0.1)">
       <defs>
        <path id="DejaVuSans-38" d="M 2034 2216 
Q 1584 2216 1326 1975 
Q 1069 1734 1069 1313 
Q 1069 891 1326 650 
Q 1584 409 2034 409 
Q 2484 409 2743 651 
Q 3003 894 3003 1313 
Q 3003 1734 2745 1975 
Q 2488 2216 2034 2216 
z
M 1403 2484 
Q 997 2584 770 2862 
Q 544 3141 544 3541 
Q 544 4100 942 4425 
Q 1341 4750 2034 4750 
Q 2731 4750 3128 4425 
Q 3525 4100 3525 3541 
Q 3525 3141 3298 2862 
Q 3072 2584 2669 2484 
Q 3125 2378 3379 2068 
Q 3634 1759 3634 1313 
Q 3634 634 3220 271 
Q 2806 -91 2034 -91 
Q 1263 -91 848 271 
Q 434 634 434 1313 
Q 434 1759 690 2068 
Q 947 2378 1403 2484 
z
M 1172 3481 
Q 1172 3119 1398 2916 
Q 1625 2713 2034 2713 
Q 2441 2713 2670 2916 
Q 2900 3119 2900 3481 
Q 2900 3844 2670 4047 
Q 2441 4250 2034 4250 
Q 1625 4250 1398 4047 
Q 1172 3844 1172 3481 
z
" transform="scale(0.015625)"/>
       </defs>
       <use xlink:href="#DejaVuSans-32"/>
       <use xlink:href="#DejaVuSans-30" x="63.623047"/>
       <use xlink:href="#DejaVuSans-32" x="127.246094"/>
       <use xlink:href="#DejaVuSans-30" x="190.869141"/>
       <use xlink:href="#DejaVuSans-2d" x="254.492188"/>
       <use xlink:href="#DejaVuSans-30" x="290.576172"/>
       <use xlink:href="#DejaVuSans-38" x="354.199219"/>
       <use xlink:href="#DejaVuSans-2d" x="417.822266"/>
       <use xlink:href="#DejaVuSans-30" x="453.90625"/>
       <use xlink:href="#DejaVuSans-31" x="517.529297"/>
      </g>
     </g>
    </g>
   </g>
   <g id="matplotlib.axis_2">
    <g id="ytick_1">
     <g id="line2d_7">
      <defs>
       <path id="m8ace4aad04" d="M 0 0 
L -3.5 0 
" style="stroke: #000000; stroke-width: 0.8"/>
      </defs>
      <g>
       <use xlink:href="#m8ace4aad04" x="72" y="316.02311" style="stroke: #000000; stroke-width: 0.8"/>
      </g>
     </g>
     <g id="text_7">
      <!-- −2 -->
      <g transform="translate(50.257812 319.822329) scale(0.1 -0.1)">
       <defs>
        <path id="DejaVuSans-2212" d="M 678 2272 
L 4684 2272 
L 4684 1741 
L 678 1741 
L 678 2272 
z
" transform="scale(0.015625)"/>
       </defs>
       <use xlink:href="#DejaVuSans-2212"/>
       <use xlink:href="#DejaVuSans-32" x="83.789062"/>
      </g>
     </g>
    </g>
    <g id="ytick_2">
     <g id="line2d_8">
      <g>
       <use xlink:href="#m8ace4aad04" x="72" y="262.270962" style="stroke: #000000; stroke-width: 0.8"/>
      </g>
     </g>
     <g id="text_8">
      <!-- −1 -->
      <g transform="translate(50.257812 266.070181) scale(0.1 -0.1)">
       <use xlink:href="#DejaVuSans-2212"/>
       <use xlink:href="#DejaVuSans-31" x="83.789062"/>
      </g>
     </g>
    </g>
    <g id="ytick_3">
     <g id="line2d_9">
      <g>
       <use xlink:href="#m8ace4aad04" x="72" y="208.518814" style="stroke: #000000; stroke-width: 0.8"/>
      </g>
     </g>
     <g id="text_9">
      <!-- 0 -->
      <g transform="translate(58.6375 212.318032) scale(0.1 -0.1)">
       <use xlink:href="#DejaVuSans-30"/>
      </g>
     </g>
    </g>
    <g id="ytick_4">
     <g id="line2d_10">
      <g>
       <use xlink:href="#m8ace4aad04" x="72" y="154.766666" style="stroke: #000000; stroke-width: 0.8"/>
      </g>
     </g>
     <g id="text_10">
      <!-- 1 -->
      <g transform="translate(58.6375 158.565884) scale(0.1 -0.1)">
       <use xlink:href="#DejaVuSans-31"/>
      </g>
     </g>
    </g>
    <g id="ytick_5">
     <g id="line2d_11">
      <g>
       <use xlink:href="#m8ace4aad04" x="72" y="101.014518" style="stroke: #000000; stroke-width: 0.8"/>
      </g>
     </g>
     <g id="text_11">
      <!-- 2 -->
      <g transform="translate(58.6375 104.813736) scale(0.1 -0.1)">
       <use xlink:href="#DejaVuSans-32"/>
      </g>
     </g>
    </g>
    <g id="ytick_6">
     <g id="line2d_12">
      <g>
       <use xlink:href="#m8ace4aad04" x="72" y="47.262369" style="stroke: #000000; stroke-width: 0.8"/>
      </g>
     </g>
     <g id="text_12">
      <!-- 3 -->
      <g transform="translate(58.6375 51.061588) scale(0.1 -0.1)">
       <defs>
        <path id="DejaVuSans-33" d="M 2597 2516 
Q 3050 2419 3304 2112 
Q 3559 1806 3559 1356 
Q 3559 666 3084 287 
Q 2609 -91 1734 -91 
Q 1441 -91 1130 -33 
Q 819 25 488 141 
L 488 750 
Q 750 597 1062 519 
Q 1375 441 1716 441 
Q 2309 441 2620 675 
Q 2931 909 2931 1356 
Q 2931 1769 2642 2001 
Q 2353 2234 1838 2234 
L 1294 2234 
L 1294 2753 
L 1863 2753 
Q 2328 2753 2575 2939 
Q 2822 3125 2822 3475 
Q 2822 3834 2567 4026 
Q 2313 4219 1838 4219 
Q 1578 4219 1281 4162 
Q 984 4106 628 3988 
L 628 4550 
Q 988 4650 1302 4700 
Q 1616 4750 1894 4750 
Q 2613 4750 3031 4423 
Q 3450 4097 3450 3541 
Q 3450 3153 3228 2886 
Q 3006 2619 2597 2516 
z
" transform="scale(0.015625)"/>
       </defs>
       <use xlink:href="#DejaVuSans-33"/>
      </g>
     </g>
    </g>
   </g>
   <g id="line2d_13">
    <path d="M 72 287.021497 
L 72.404714 298.412757 
L 72.607072 296.682973 
L 72.809429 285.96675 
L 73.214143 254.915018 
L 73.618858 242.426821 
L 75.035358 159.101858 
L 75.237715 156.127474 
L 75.440073 161.211351 
L 75.64243 169.459468 
L 75.844787 172.771371 
L 76.047144 188.086288 
L 76.654216 258.669915 
L 77.05893 282.844701 
L 77.261287 287.232446 
L 77.463645 286.852737 
L 77.666002 276.094324 
L 78.070716 247.468508 
L 78.475431 234.938122 
L 78.677788 225.761828 
L 79.487217 168.510196 
L 79.891931 152.161627 
L 80.094288 154.123456 
L 80.903717 196.735208 
L 81.713146 272.423807 
L 82.11786 287.148066 
L 82.320218 289.194274 
L 82.522575 288.898945 
L 82.724932 286.367554 
L 82.927289 279.511703 
L 83.332004 256.412757 
L 83.736718 242.026017 
L 83.939075 238.967253 
L 84.141432 239.241487 
L 84.546147 245.675439 
L 84.748504 247.784932 
L 84.950861 247.806027 
L 85.355576 252.025013 
L 85.557933 248.670919 
L 85.76029 254.830638 
L 86.569719 300.015972 
L 86.772076 306.133501 
L 86.974433 307.736715 
L 87.176791 307.8 
L 87.379148 306.449925 
L 87.581505 302.695028 
L 87.783862 295.902461 
L 88.188577 273.731693 
L 88.390934 268.521246 
L 89.200363 260.399699 
L 89.40272 256.243998 
L 89.807434 241.372074 
L 90.212149 238.903968 
L 90.414506 236.182722 
L 90.616863 244.1777 
L 91.223935 295.037569 
L 91.628649 306.133501 
L 91.831006 306.196786 
L 92.033364 303.686489 
L 92.842792 257.277649 
L 93.04515 255.125967 
L 93.449864 246.477047 
L 93.652221 245.949674 
L 93.854578 242.996384 
L 94.056936 242.363536 
L 94.259293 239.72667 
L 94.46165 233.292717 
L 94.664007 230.423807 
L 94.866364 231.351984 
L 95.068722 234.516223 
L 95.271079 230.655851 
L 95.473436 240.823606 
L 96.080508 295.417278 
L 96.485222 304.677951 
L 96.687579 306.597589 
L 96.889937 302.230939 
L 97.699365 256.539327 
L 98.306437 245.970768 
L 98.508794 245.59106 
L 99.52058 224.242993 
L 99.722937 225.508689 
L 99.925295 229.896434 
L 100.127652 228.061175 
L 100.330009 238.27112 
L 100.937081 292.928076 
L 101.341795 305.268609 
L 101.544152 306.26007 
L 101.74651 302.526268 
L 101.948867 290.50216 
L 102.353581 260.294224 
L 102.555938 258.733199 
L 103.567724 240.844701 
L 104.377153 218.610648 
L 104.57951 219.897438 
L 104.781868 225.318835 
L 104.984225 225.29774 
L 105.186582 234.241989 
L 105.793654 289.763837 
L 106.198368 302.589553 
L 106.400725 304.361527 
L 106.603083 300.311301 
L 107.412511 254.11341 
L 107.614869 252.383626 
L 107.817226 248.692014 
L 108.22194 234.07323 
L 108.626655 212.23998 
L 108.829012 206.270116 
L 109.031369 204.371572 
L 109.638441 213.104872 
L 109.840798 218.568458 
L 110.043155 229.031542 
L 110.650227 284.405726 
L 111.054941 298.750276 
L 111.257298 300.669915 
L 111.459655 298.919036 
L 111.662013 287.443395 
L 112.066727 258.015972 
L 112.471442 242.933099 
L 113.887942 174.121447 
L 114.090299 171.73772 
L 114.292656 178.593571 
L 114.495014 190.090306 
L 114.697371 194.710095 
L 115.102085 228.926067 
L 115.709157 278.583526 
L 116.113871 292.611652 
L 116.316228 292.780412 
L 116.518586 291.113913 
L 116.720943 287.46449 
L 117.125657 260.06218 
L 118.542158 154.777398 
L 118.744515 144.609643 
L 118.946872 140.707082 
L 119.149229 144.398694 
L 119.756301 182.496133 
L 120.56573 262.319337 
L 120.970444 282.254043 
L 121.172801 286.367554 
L 121.375159 288.012958 
L 121.577516 286.557408 
L 121.779873 278.583526 
L 122.589302 227.280663 
L 123.196374 201.671421 
L 123.398731 197.072727 
L 123.601088 197.283677 
L 123.803445 196.714114 
L 124.410517 210.193772 
L 124.612874 221.226419 
L 125.219946 277.845203 
L 125.62466 292.463988 
L 125.827017 294.468006 
L 126.029374 291.91552 
L 127.04116 235.191261 
L 127.648232 197.557911 
L 128.255304 154.925063 
L 128.457661 147.330889 
L 128.660018 146.99337 
L 129.26709 191.588046 
L 130.278876 282.971271 
L 130.481233 290.839679 
L 130.68359 292.231944 
L 130.885947 289.637268 
L 132.504805 180.070216 
L 133.111877 137.142039 
L 133.314234 127.670417 
L 133.516591 129.379106 
L 133.921306 144.841688 
L 134.123663 152.309292 
L 135.135449 262.84671 
L 135.540163 275.545856 
L 135.74252 274.596585 
L 135.944878 263.943646 
L 136.349592 232.343446 
L 136.551949 225.529784 
L 136.754306 213.590055 
L 136.956664 218.188749 
L 137.159021 206.818584 
L 137.766092 197.937619 
L 137.96845 198.338423 
L 138.373164 192.895932 
L 138.777879 200.490105 
L 138.980236 201.333903 
L 139.182593 213.210347 
L 139.789665 270.187745 
L 140.194379 285.650326 
L 140.396736 287.738724 
L 140.599093 284.701055 
L 141.003808 254.303265 
L 141.408522 232.997388 
L 142.015594 219.51773 
L 142.622665 210.320342 
L 142.825023 210.046107 
L 143.02738 208.822602 
L 143.229737 209.518734 
L 143.634451 214.834656 
L 143.836809 213.590055 
L 144.039166 223.84219 
L 144.646238 273.499648 
L 145.050952 285.671421 
L 145.253309 286.979307 
L 145.455666 283.815068 
L 145.860381 253.965746 
L 146.062738 237.406228 
L 146.66981 220.825615 
L 146.872167 218.125465 
L 147.074524 217.028528 
L 147.479238 205.848217 
L 147.681596 214.370568 
L 147.883953 215.362029 
L 148.08631 217.998895 
L 148.491024 227.386138 
L 148.693382 226.014967 
L 149.098096 249.83114 
L 149.502811 278.203817 
L 149.907525 291.430337 
L 150.109882 293.518734 
L 150.312239 292.928076 
L 150.514597 290.059166 
L 150.716954 284.258061 
L 151.121668 263.036565 
L 151.526383 242.194776 
L 151.931097 236.288197 
L 152.133454 235.845203 
L 152.335811 237.849221 
L 152.538169 238.376595 
L 152.740526 236.288197 
L 152.942883 236.583526 
L 153.14524 235.592064 
L 153.347597 235.634254 
L 153.549955 232.659869 
L 153.752312 234.895932 
L 154.764098 287.253541 
L 154.966455 291.282672 
L 155.168812 292.696032 
L 155.573527 288.687996 
L 155.775884 277.423305 
L 156.78767 198.127474 
L 157.799456 154.756303 
L 158.001813 156.802511 
L 158.406528 170.23998 
L 158.608885 184.036062 
L 159.215956 253.881366 
L 159.620671 275.86228 
L 159.823028 279.131994 
L 160.025385 278.203817 
L 160.227743 268.225917 
L 160.632457 235.191261 
L 161.8466 183.993872 
L 162.251315 173.762833 
L 162.453672 173.910497 
L 162.656029 176.821597 
L 163.465458 209.20231 
L 164.072529 270.12446 
L 164.477244 289.067705 
L 164.679601 289.405224 
L 164.881958 286.114415 
L 165.084316 275.777901 
L 165.48903 243.439377 
L 166.500816 207.725665 
L 167.310245 164.038071 
L 167.512602 167.45545 
L 167.917316 188.402712 
L 168.119674 192.938122 
L 168.322031 204.498142 
L 168.929102 264.977298 
L 169.333817 280.439879 
L 169.536174 284.026017 
L 169.738531 280.292215 
L 170.143246 252.510196 
L 170.54796 221.648317 
L 171.357389 176.273129 
L 171.559746 170.134505 
L 172.166818 145.49563 
L 172.369175 147.141035 
L 172.571532 155.199297 
L 173.178604 194.878855 
L 173.785675 267.25555 
L 174.19039 287.000402 
L 174.392747 290.038071 
L 174.595104 288.181718 
L 174.999819 263.542843 
L 175.404533 238.081266 
L 177.023391 158.405726 
L 177.225748 158.933099 
L 177.428105 162.92004 
L 177.630462 179.817077 
L 177.83282 182.306278 
L 178.237534 227.238473 
L 178.642248 270.947162 
L 179.046963 290.50216 
L 179.24932 294.299247 
L 179.451677 291.725665 
L 179.654034 282.865796 
L 180.261106 242.258061 
L 181.879964 143.449422 
L 182.082321 140.116424 
L 182.284678 145.896434 
L 183.094107 203.316826 
L 183.498821 243.080763 
L 183.903536 264.956203 
L 184.30825 272.95118 
L 184.510607 274.343446 
L 184.712965 270.630738 
L 184.915322 256.98232 
L 185.724751 173.340934 
L 186.129465 151.52878 
L 186.331822 145.347966 
L 186.53418 144.567454 
L 186.736537 147.16213 
L 187.748323 188.423807 
L 188.557752 253.923556 
L 188.962466 268.394676 
L 189.164823 270.483074 
L 189.36718 270.567454 
L 189.569538 269.808036 
L 189.771895 258.796484 
L 190.986038 160.810547 
L 191.188395 155.389151 
L 191.390752 155.346961 
L 191.795467 164.692014 
L 192.604896 196.671924 
L 193.414325 261.370065 
L 193.819039 275.377097 
L 194.021396 276.474033 
L 194.426111 272.423807 
L 194.628468 263.268609 
L 195.437897 201.017479 
L 195.640254 195.891411 
L 195.842611 197.136012 
L 196.247325 203.337921 
L 196.449683 203.928579 
L 196.65204 203.527775 
L 197.056754 211.923556 
L 197.259112 212.788448 
L 197.461469 221.395178 
L 198.06854 270.841688 
L 198.473255 285.354997 
L 198.675612 285.460472 
L 198.877969 281.72667 
L 199.282684 250.231944 
L 199.687398 226.879859 
L 201.306256 158.933099 
L 201.508613 157.751783 
L 202.115684 177.39116 
L 202.318042 188.803516 
L 202.925113 254.366549 
L 203.329828 272.423807 
L 203.532185 274.57549 
L 203.734542 271.516725 
L 203.936899 259.724661 
L 204.341614 224.939126 
L 205.758114 168.995379 
L 205.960471 166.442893 
L 206.162829 166.590558 
L 206.365186 168.046107 
L 206.7699 180.175691 
L 206.972257 183.445404 
L 207.174615 194.541336 
L 207.781686 254.978302 
L 208.186401 271.516725 
L 208.388758 274.638774 
L 208.591115 271.221396 
L 208.793472 259.070718 
L 209.198187 224.475038 
L 209.805258 201.671421 
L 210.209973 181.314817 
L 210.817044 138.639779 
L 211.019402 129.948669 
L 211.221759 132.986339 
L 211.626473 158.047112 
L 211.82883 163.384129 
L 212.031188 178.467002 
L 212.638259 245.063687 
L 213.042974 264.091311 
L 213.245331 268.183727 
L 213.447688 266.432848 
L 213.650045 255.463486 
L 214.257117 211.164139 
L 214.661831 184.183727 
L 215.47126 123.409242 
L 215.875975 106.280161 
L 216.078332 105.794977 
L 216.280689 111.469513 
L 217.090118 176.779407 
L 217.697189 240.190758 
L 218.101904 259.091813 
L 218.304261 262.530286 
L 218.506618 263.922551 
L 218.708976 262.635761 
L 218.911333 249.599096 
L 219.518404 193.48659 
L 220.125476 157.435359 
L 220.327833 155.220392 
L 220.53019 157.498644 
L 221.541976 200.827624 
L 221.744334 206.101356 
L 222.553762 264.365545 
L 222.958477 275.503666 
L 223.160834 277.254545 
L 223.363191 277.613159 
L 223.565549 276.009945 
L 223.767906 267.086791 
L 224.374977 227.955701 
L 224.779692 220.192767 
L 225.386763 222.30226 
L 225.589121 225.909493 
L 225.791478 226.816575 
L 226.196192 235.40221 
L 226.398549 235.043596 
L 226.600907 241.625213 
L 227.410335 296.535309 
L 227.612693 300.669915 
L 227.81505 302.399699 
L 228.017407 299.129985 
L 228.826836 255.505676 
L 229.029193 253.121949 
L 229.23155 247.236464 
L 230.648051 182.285183 
L 230.850408 182.875841 
L 231.255122 197.64229 
L 231.45748 208.801507 
L 232.064551 274.027022 
L 232.469266 291.620191 
L 232.671623 294.404721 
L 232.87398 293.160121 
L 233.278694 267.25555 
L 233.683409 244.1777 
L 235.302267 178.024008 
L 235.504624 177.412255 
L 236.111695 196.988348 
L 236.314053 207.599096 
L 236.921124 271.242491 
L 237.325839 287.50668 
L 237.528196 290.713109 
L 237.730553 288.540331 
L 238.135267 264.006931 
L 238.539982 241.688498 
L 239.349411 210.003918 
L 239.754125 199.751783 
L 240.15884 189.288699 
L 240.361197 189.03556 
L 240.563554 194.625716 
L 240.968268 212.661878 
L 241.170626 220.424812 
L 241.777697 277.31783 
L 242.182412 293.560924 
L 242.384769 296.11341 
L 242.587126 293.054646 
L 242.99184 267.740733 
L 243.396555 249.345957 
L 245.21777 172.876846 
L 245.420127 177.222401 
L 246.027199 204.666901 
L 246.836627 279.933601 
L 247.038985 288.498142 
L 247.241342 291.74676 
L 247.443699 289.152084 
L 247.848413 265.019488 
L 249.467271 150.305274 
L 249.669628 142.036062 
L 249.871985 140.053139 
L 250.074343 140.221899 
L 250.2767 147.330889 
L 250.883772 180.21788 
L 251.6932 257.003415 
L 252.097915 271.875339 
L 252.300272 275.018483 
L 252.502629 275.292717 
L 252.704986 271.326871 
L 253.109701 237.785937 
L 253.91913 162.814566 
L 254.323844 146.634756 
L 254.728558 137.606128 
L 254.930916 136.319337 
L 255.133273 143.997891 
L 255.740345 182.369563 
L 256.549773 259.387142 
L 256.954488 275.229432 
L 257.156845 279.131994 
L 257.359202 280.840683 
L 257.561559 279.849221 
L 257.966274 250.274134 
L 258.573345 198.675942 
L 258.97806 176.484078 
L 259.382774 165.198292 
L 259.585131 161.675439 
L 259.787489 161.232446 
L 259.989846 163.911502 
L 260.39456 180.281165 
L 260.596917 193.950678 
L 261.203989 257.425314 
L 261.608704 276.579508 
L 261.811061 279.574987 
L 262.013418 278.77338 
L 262.418132 254.23998 
L 262.62049 241.941637 
L 263.025204 232.048117 
L 263.227561 229.179206 
L 263.429918 228.145555 
L 263.834633 229.45344 
L 264.03699 229.137017 
L 264.239347 230.107383 
L 264.441704 230.191763 
L 264.644062 229.917529 
L 264.846419 232.005927 
L 265.048776 236.140532 
L 265.251133 236.140532 
L 265.45349 240.254043 
L 266.060562 283.730688 
L 266.465277 296.872828 
L 266.667634 298.454947 
L 266.869991 294.172677 
L 267.072348 286.030035 
L 267.477063 258.901959 
L 268.084134 236.203817 
L 268.488849 225.677449 
L 269.09592 214.159618 
L 269.500635 210.109392 
L 269.702992 212.345455 
L 269.905349 216.037067 
L 270.107706 216.733199 
L 270.310063 223.188247 
L 270.917135 273.204319 
L 271.32185 285.460472 
L 271.524207 287.654345 
L 271.726564 285.903466 
L 274.15485 140.960221 
L 274.357208 133.619186 
L 274.559565 137.036565 
L 275.166636 162.793471 
L 275.976065 246.308287 
L 276.38078 259.176193 
L 276.583137 258.458965 
L 276.987851 236.098343 
L 277.392566 206.50216 
L 278.404352 148.195781 
L 278.606709 145.073732 
L 279.011423 131.530789 
L 279.213781 129.885384 
L 279.416138 134.252034 
L 280.023209 176.969262 
L 280.630281 250.020994 
L 281.034995 273.351984 
L 281.237353 278.351482 
L 281.43971 276.769362 
L 281.642067 270.736213 
L 282.249139 227.976796 
L 282.85621 193.52878 
L 283.867996 149.714616 
L 284.070354 148.49111 
L 284.272711 156.844701 
L 285.284497 241.920542 
L 285.689211 274.870819 
L 286.093926 289.974787 
L 286.296283 292.316323 
L 286.49864 290.45997 
L 286.700997 287.443395 
L 287.105712 255.674435 
L 287.712783 202.873832 
L 288.522212 158.384631 
L 288.724569 151.085786 
L 288.926927 149.102863 
L 289.129284 152.77338 
L 289.736355 187.411251 
L 290.545784 259.197288 
L 290.950499 274.849724 
L 291.152856 277.697539 
L 291.355213 277.781919 
L 291.55757 276.263084 
L 291.759927 263.479558 
L 292.771714 162.392667 
L 293.176428 139.863285 
L 293.581142 128.345455 
L 293.7835 126.573481 
L 293.985857 130.180713 
L 294.592928 156.338423 
L 295.402357 241.667403 
L 295.807072 256.729181 
L 296.009429 256.560422 
L 296.414143 235.760824 
L 297.830644 97.293722 
L 298.235358 83.645304 
L 298.437715 80.987343 
L 298.640073 81.261577 
L 298.84243 83.37107 
L 299.044787 91.619186 
L 299.449501 119.295731 
L 300.056573 200.363536 
L 300.461287 226.268106 
L 300.663645 232.44892 
L 300.866002 233.187243 
L 301.068359 226.183727 
L 301.473073 195.342943 
L 302.484859 87.273631 
L 302.687217 75.650326 
L 302.889574 75.755801 
L 303.091931 84.067202 
L 303.496646 92.948167 
L 303.90136 115.793973 
L 304.306074 144.483074 
L 304.913146 215.551883 
L 305.31786 241.583024 
L 305.520218 247.299749 
L 305.722575 245.46449 
L 305.924932 238.14455 
L 306.532004 197.114917 
L 307.54379 125.223405 
L 307.746147 114.739227 
L 307.948504 113.832145 
L 308.757933 146.972275 
L 309.162647 173.741738 
L 309.769719 238.439879 
L 310.174433 258.859769 
L 310.376791 263.374083 
L 310.579148 262.783425 
L 310.983862 238.735208 
L 312.198005 131.889402 
L 312.60272 119.949674 
L 312.805077 115.456454 
L 313.007434 116.026017 
L 313.209791 119.823104 
L 313.816863 148.153591 
L 314.01922 162.202813 
L 314.626292 226.479056 
L 315.031006 247.531793 
L 315.233364 252.235962 
L 315.435721 251.560924 
L 315.840435 232.280161 
L 316.24515 213.062682 
L 316.649864 200.72215 
L 317.054578 185.006429 
L 317.66165 177.285686 
L 317.864007 176.821597 
L 318.066364 175.89342 
L 318.268722 180.703064 
L 318.875793 203.443395 
L 319.685222 263.627223 
L 320.089937 276.748267 
L 320.292294 278.435861 
L 320.697008 270.293219 
L 321.101723 243.354997 
L 322.315866 163.320844 
L 322.72058 152.794475 
L 322.922937 150.410748 
L 323.125295 154.650829 
L 323.732366 183.023506 
L 324.541795 253.417278 
L 324.94651 268.099347 
L 325.148867 271.073732 
L 325.351224 271.137017 
L 325.553581 268.816575 
L 325.755938 256.159618 
L 326.970082 140.707082 
L 327.172439 134.209844 
L 327.374796 132.585535 
L 327.77951 126.86881 
L 327.981868 131.994877 
L 328.184225 141.023506 
L 328.791296 194.077248 
L 329.196011 238.988348 
L 329.398368 254.640784 
L 329.803083 265.019488 
L 330.00544 264.049121 
L 330.207797 258.290206 
L 330.814869 208.463988 
L 331.42194 169.206328 
L 331.826655 145.917529 
L 332.029012 142.943144 
L 332.231369 142.964239 
L 332.433726 143.154093 
L 332.636083 145.305776 
L 332.838441 149.967755 
L 333.243155 173.509694 
L 333.445512 182.770367 
L 334.052584 250.274134 
L 334.457298 272.655851 
L 334.659655 278.224912 
L 334.862013 275.756806 
L 335.266727 255.379106 
L 335.671442 230.360522 
L 336.48087 189.16213 
L 336.683228 183.951683 
L 336.885585 182.812557 
L 337.087942 176.462983 
L 337.290299 174.56444 
L 337.695014 181.209342 
L 338.099728 196.060171 
L 338.302085 202.09332 
L 339.111514 269.702562 
L 339.313871 276.07323 
L 339.516228 278.372577 
L 339.718586 274.195781 
L 340.1233 250.210849 
L 340.932729 204.540331 
L 342.349229 141.107885 
L 342.551587 141.023506 
L 343.158658 166.379608 
L 343.76573 230.845706 
L 344.170444 249.345957 
L 344.372801 254.23998 
L 344.575159 252.046107 
L 344.777516 244.937117 
L 345.18223 213.210347 
L 346.194016 128.32436 
L 346.598731 113.157107 
L 347.003445 106.36454 
L 347.205802 105.499648 
L 347.40816 108.769362 
L 347.610517 116.827624 
L 348.015231 143.639277 
L 348.82466 237.237469 
L 349.229374 254.809543 
L 349.431732 254.029031 
L 349.634089 248.080261 
L 349.836446 236.646811 
L 351.050589 129.379106 
L 351.455304 110.520241 
L 351.860018 101.428327 
L 352.062375 100.500151 
L 352.264733 104.233953 
L 352.46709 115.625213 
L 353.276519 200.975289 
L 353.681233 239.937619 
L 354.085947 260.673933 
L 354.288305 266.095329 
L 354.490662 266.685987 
L 354.693019 264.38664 
L 355.097733 221.205324 
L 355.704805 145.369061 
L 356.109519 119.991863 
L 356.716591 101.301758 
L 356.918948 100.183727 
L 357.121306 105.11994 
L 357.52602 131.446409 
L 357.728377 144.483074 
L 358.740163 242.574485 
L 359.144878 255.906479 
L 359.347235 257.826118 
L 359.549592 257.488599 
L 359.751949 243.101858 
L 360.763735 119.169161 
L 361.16845 99.571974 
L 361.573164 88.159618 
L 361.775521 85.796986 
L 361.977879 89.172175 
L 362.180236 96.365545 
L 362.58495 122.860773 
L 363.394379 214.054144 
L 363.799093 232.195781 
L 364.001451 233.039578 
L 364.203808 226.985334 
L 364.406165 216.64882 
L 365.013237 145.137017 
L 365.620308 78.772376 
L 366.025023 62.149573 
L 366.429737 55.8 
L 366.632094 56.306278 
L 366.834451 59.027524 
L 367.036809 67.992868 
L 367.441523 98.010949 
L 368.048595 179.901457 
L 368.453309 211.290708 
L 368.655666 220.066198 
L 368.858024 222.513209 
L 369.060381 218.505173 
L 369.262738 208.358513 
L 369.86981 143.006429 
L 370.476881 83.160121 
L 370.881596 66.052135 
L 371.083953 65.588046 
L 371.28631 66.326369 
L 371.488667 70.376595 
L 371.691024 76.789453 
L 372.298096 116.912004 
L 373.107525 204.413762 
L 373.512239 227.301758 
L 373.714597 231.794977 
L 374.119311 231.07775 
L 374.321668 217.956705 
L 375.333454 111.047614 
L 375.738169 97.399196 
L 375.940526 94.614666 
L 376.142883 93.47554 
L 376.34524 98.812557 
L 376.749955 125.835158 
L 377.559383 186.504169 
L 377.964098 222.196786 
L 378.368812 236.414766 
L 378.57117 236.646811 
L 378.773527 230.529282 
L 378.975884 218.969262 
L 380.392384 98.791462 
L 380.797099 88.560422 
L 381.201813 80.734204 
L 381.40417 84.615671 
L 382.011242 122.776394 
L 382.820671 208.189754 
L 383.225385 224.791462 
L 383.427743 225.466499 
L 383.6301 219.960723 
L 384.034814 197.030537 
L 385.0466 121.320844 
L 385.451315 104.107383 
L 385.653672 103.6222 
L 385.856029 107.524761 
L 386.058386 115.393169 
L 387.070172 187.558915 
L 387.474887 228.926067 
L 387.879601 251.497639 
L 388.284316 260.927072 
L 388.68903 263.521748 
L 388.891387 257.594073 
L 389.700816 212.682973 
L 390.307888 201.122953 
L 390.914959 187.980814 
L 391.117316 192.917027 
L 391.926745 233.735711 
L 392.533817 279.321848 
L 392.938531 292.084279 
L 393.140888 294.003918 
L 393.343246 293.539829 
L 393.545603 294.025013 
L 393.74796 284.785434 
L 394.355032 242.321346 
L 395.569175 184.057157 
L 395.771532 177.855249 
L 395.973889 179.099849 
L 396.176247 187.685485 
L 396.783318 231.056655 
L 397.188033 270.799498 
L 397.592747 289.194274 
L 397.795104 292.063184 
L 397.997461 289.447413 
L 398.402176 270.736213 
L 400.628105 139.061678 
L 400.830462 141.993872 
L 401.03282 152.267102 
L 401.639891 211.121949 
L 402.044606 256.876846 
L 402.44932 277.845203 
L 402.651677 281.979809 
L 402.854034 280.27112 
L 403.258749 261.496635 
L 403.663463 232.174686 
L 404.877607 122.755299 
L 405.282321 101.575992 
L 405.484678 97.230437 
L 405.687035 98.348468 
L 405.889393 109.191261 
L 406.294107 147.752788 
L 406.901179 227.639277 
L 407.305893 252.468006 
L 407.50825 258.248016 
L 407.710607 257.699548 
L 408.115322 235.781919 
L 409.73418 99.276645 
L 409.936537 94.192767 
L 410.138894 94.045103 
L 410.341251 98.791462 
L 410.948323 136.045103 
L 411.15068 152.456956 
L 411.757752 225.29774 
L 412.162466 250.126469 
L 412.364823 256.813561 
L 412.56718 258.64882 
L 412.971895 240.021999 
L 414.388395 138.808538 
L 414.79311 124.843697 
L 415.197824 117.96675 
L 415.400181 124.949171 
L 416.20961 189.478553 
L 416.614325 236.140532 
L 417.019039 259.93561 
L 417.221396 264.323355 
L 417.423753 263.753792 
L 417.828468 247.0888 
L 419.244968 146.276143 
L 419.649683 132.248016 
L 419.85204 128.303265 
L 420.054397 129.77991 
L 420.256754 138.703064 
L 421.066183 205.974787 
L 421.673255 262.720141 
L 422.077969 279.279658 
L 422.280326 281.832145 
L 422.482684 281.157107 
L 422.685041 280.988348 
L 423.089755 249.324862 
L 423.899184 178.234957 
L 424.708613 137.774887 
L 424.91097 134.505173 
L 425.113327 138.618684 
L 425.518042 165.493621 
L 425.720399 177.623204 
L 426.529828 254.345455 
L 426.934542 273.436364 
L 427.136899 278.035058 
L 427.339257 278.85776 
L 427.541614 279.089804 
L 427.743971 270.25103 
L 428.148685 228.778403 
L 428.755757 165.177197 
L 429.160471 138.829633 
L 429.565186 130.349473 
L 429.9699 134.378604 
L 430.374615 151.043596 
L 430.576972 163.00442 
L 431.386401 241.076745 
L 431.791115 253.649322 
L 431.993472 251.560924 
L 432.398187 230.698041 
L 433.207616 163.827122 
L 434.017044 91.534807 
L 434.219402 86.514214 
L 435.02883 114.675942 
L 435.433545 140.348468 
L 436.040617 213.484581 
L 436.445331 236.625716 
L 436.647688 241.899448 
L 436.850045 241.203315 
L 437.25476 220.045103 
L 437.659474 184.183727 
L 438.468903 108.727172 
L 438.67126 98.728177 
L 438.873617 99.719638 
L 439.075975 107.018483 
L 439.278332 106.554395 
L 439.480689 108.853742 
L 439.885403 127.902461 
L 440.290118 153.321848 
L 440.897189 228.715118 
L 441.301904 251.624209 
L 441.504261 257.19327 
L 441.706618 257.741738 
L 442.111333 242.616675 
L 442.920762 189.204319 
L 443.527833 153.406228 
L 444.134905 130.054144 
L 444.337262 127.396183 
L 444.539619 133.9778 
L 445.146691 180.238975 
L 445.753762 251.265595 
L 446.158477 273.03556 
L 446.360834 278.119437 
L 446.563191 276.07323 
L 446.967906 256.665897 
L 448.586763 143.955701 
L 448.991478 130.412757 
L 449.193835 128.029031 
L 449.396192 134.863787 
L 450.003264 176.315319 
L 450.812693 258.48006 
L 451.217407 272.128478 
L 451.419764 272.255048 
L 451.824479 254.619689 
L 452.43155 202.873832 
L 453.038622 159.861276 
L 453.443336 142.373581 
L 453.848051 134.294224 
L 454.050408 137.753792 
L 454.252765 148.005927 
L 454.65748 177.159116 
L 454.859837 185.829131 
L 455.669266 252.257057 
L 456.07398 266.158614 
L 456.276337 267.719638 
L 456.478694 265.67343 
L 456.681052 262.488096 
L 456.883409 254.28217 
L 457.288123 226.563435 
L 457.692838 215.319839 
L 457.895195 216.037067 
L 458.299909 221.943646 
L 458.502267 221.795982 
L 458.906981 217.872325 
L 459.109338 218.420794 
L 459.514053 222.681969 
L 459.71641 227.090809 
L 460.728196 286.304269 
L 461.13291 290.839679 
L 461.537625 287.443395 
L 461.739982 278.288197 
L 462.144696 242.890909 
L 463.561197 171.927574 
L 463.763554 164.481065 
L 463.965911 165.683476 
L 464.572983 185.660372 
L 465.382412 254.366549 
L 465.584769 261.454445 
L 465.787126 264.238975 
L 465.989483 261.749774 
L 467.608341 166.822602 
L 468.620127 145.094827 
L 468.822484 148.301256 
L 469.429556 175.218383 
L 470.036627 233.398192 
L 470.441342 251.645304 
L 470.643699 254.345455 
L 470.846056 251.708589 
L 471.857842 199.477549 
L 472.869628 168.446911 
L 473.071985 168.953189 
L 473.274343 167.117931 
L 473.4767 168.404721 
L 473.679057 172.286188 
L 473.881414 179.036565 
L 474.083772 180.21788 
L 474.286129 188.086288 
L 474.8932 241.540834 
L 475.297915 258.205826 
L 475.500272 259.914515 
L 475.702629 257.826118 
L 476.107344 232.828629 
L 476.512058 210.257057 
L 477.321487 177.960723 
L 477.726201 157.287695 
L 477.928558 153.638272 
L 478.333273 158.447916 
L 478.53563 163.025515 
L 479.142702 188.592567 
L 479.952131 258.100352 
L 480.356845 268.204822 
L 480.559202 267.782923 
L 480.963917 245.126971 
L 482.785131 113.452436 
L 482.987489 107.398192 
L 483.189846 104.698041 
L 483.392203 110.478051 
L 483.999275 151.36002 
L 484.606346 224.285183 
L 485.011061 248.101356 
L 485.213418 252.615671 
L 485.415775 253.586037 
L 485.82049 233.313812 
L 486.225204 201.312808 
L 487.23699 109.043596 
L 487.439347 105.879357 
L 487.844062 112.608639 
L 488.248776 131.699548 
L 489.260562 211.206328 
L 489.665277 244.1777 
L 490.069991 259.661376 
L 490.272348 262.066198 
L 490.474705 260.905977 
L 490.677063 259.091813 
L 490.87942 249.113913 
L 491.891206 167.37107 
L 492.29592 149.208338 
L 492.498277 141.635259 
L 492.700635 139.567956 
L 492.902992 141.234455 
L 493.105349 146.170668 
L 493.712421 180.534304 
L 494.52185 254.345455 
L 495.128921 273.07775 
L 495.331278 273.225414 
L 495.533636 272.592567 
L 495.735993 264.850728 
L 496.950136 171.041587 
L 497.557208 146.065193 
L 497.759565 142.62672 
L 497.961922 145.917529 
L 498.568994 178.213862 
L 499.378422 253.881366 
L 499.58078 260.884882 
L 499.783137 263.437368 
L 499.985494 260.041085 
L 500.187851 251.307785 
L 500.794923 213.463486 
L 500.99728 208.231944 
L 501.401995 194.81557 
L 501.806709 183.276645 
L 502.009066 182.812557 
L 502.211423 184.922049 
L 502.413781 185.575992 
L 502.616138 183.867303 
L 503.020852 193.824108 
L 503.223209 194.393672 
L 503.425567 202.09332 
L 504.032638 254.050126 
L 504.437353 267.445404 
L 504.63971 269.111904 
L 504.842067 266.685987 
L 505.246782 241.709593 
L 505.651496 217.302762 
L 507.270354 142.331391 
L 507.472711 139.146057 
L 507.675068 142.62672 
L 508.28214 171.358011 
L 508.889211 230.824611 
L 509.293926 248.37559 
L 509.496283 251.982823 
L 509.69864 250.105374 
L 510.103354 225.972777 
L 511.722212 116.954194 
L 512.126927 98.749272 
L 512.329284 100.373581 
L 512.936355 135.602109 
L 513.34107 175.513712 
L 513.745784 220.066198 
L 514.150499 243.354997 
L 514.352856 249.071723 
L 514.555213 249.578001 
L 514.75757 240.464992 
L 516.174071 141.29774 
L 516.376428 140.179709 
L 516.781142 149.735711 
L 516.9835 146.930085 
L 517.185857 147.478553 
L 517.590571 165.620191 
L 517.792928 169.965746 
L 517.995286 180.935108 
L 518.4 221.585033 
L 518.4 221.585033 
" clip-path="url(#p545d6104e3)" style="fill: none; stroke: #1f77b4; stroke-width: 1.5; stroke-linecap: square"/>
   </g>
   <g id="line2d_14">
    <path d="M 72 266.894241 
L 72.202357 266.894241 
L 72.607072 271.62788 
L 72.809429 272.164171 
L 73.011786 268.71337 
L 74.225929 210.992253 
L 74.630644 186.304926 
L 75.035358 169.898215 
L 75.237715 162.292578 
L 75.440073 159.963112 
L 75.64243 163.110986 
L 76.047144 182.207785 
L 76.856573 252.052675 
L 77.261287 260.072442 
L 77.463645 261.597141 
L 77.666002 257.949876 
L 77.868359 251.653426 
L 78.273073 224.241835 
L 78.677788 210.415376 
L 78.880145 209.414126 
L 79.284859 190.819594 
L 79.891931 162.839002 
L 80.094288 159.875848 
L 80.296646 162.412934 
L 80.903717 200.802667 
L 81.713146 264.476018 
L 81.915503 271.679014 
L 82.320218 275.718418 
L 82.724932 271.305775 
L 83.129646 260.256255 
L 83.736718 232.102179 
L 84.141432 225.345169 
L 84.748504 235.396326 
L 85.153218 240.107715 
L 85.962647 260.856604 
L 86.772076 296.595193 
L 86.974433 298.556729 
L 87.176791 297.697756 
L 87.379148 294.398903 
L 87.986219 274.993977 
L 88.593291 249.417805 
L 88.795648 247.918826 
L 89.200363 248.647433 
L 89.40272 248.81315 
L 89.605077 249.238523 
L 89.807434 247.368641 
L 90.009791 244.187065 
L 90.212149 243.234322 
L 90.414506 243.184569 
L 90.616863 243.688439 
L 91.021578 263.584327 
L 91.426292 290.888465 
L 91.628649 296.53116 
L 91.831006 296.234942 
L 92.033364 293.027848 
L 92.235721 287.721611 
L 92.640435 263.04202 
L 93.04515 241.880209 
L 93.652221 231.105902 
L 93.854578 231.315499 
L 94.056936 230.622308 
L 94.259293 227.028503 
L 94.46165 226.988558 
L 95.068722 231.780324 
L 95.473436 237.121381 
L 96.485222 290.313292 
L 96.687579 291.72132 
L 96.889937 291.37243 
L 97.092294 286.930811 
L 97.901723 246.951675 
L 98.306437 238.080612 
L 98.508794 236.741462 
L 98.711151 234.585114 
L 99.318223 223.959752 
L 99.52058 223.168892 
L 99.722937 225.510577 
L 100.330009 244.017022 
L 101.139438 291.623069 
L 101.341795 296.291779 
L 101.74651 294.113655 
L 101.948867 288.626252 
L 102.758296 251.689938 
L 102.960653 247.508493 
L 103.16301 240.902953 
L 103.567724 236.381057 
L 103.770082 234.856886 
L 104.377153 225.659809 
L 104.57951 225.690163 
L 104.781868 228.514634 
L 105.186582 241.233843 
L 105.996011 289.795174 
L 106.198368 294.595851 
L 106.603083 291.913296 
L 106.80544 287.349757 
L 107.817226 245.944655 
L 108.22194 234.982948 
L 108.829012 217.423473 
L 109.031369 210.299196 
L 109.233726 207.101836 
L 109.638441 216.080037 
L 110.245512 249.379468 
L 110.650227 280.280465 
L 111.054941 292.147589 
L 111.257298 291.397311 
L 111.662013 286.228579 
L 112.066727 266.456283 
L 112.876156 226.618619 
L 113.685585 193.264314 
L 113.887942 183.275343 
L 114.090299 180.137183 
L 114.292656 182.901556 
L 114.697371 201.854607 
L 115.304442 248.938217 
L 115.709157 277.898234 
L 115.911514 282.647156 
L 116.113871 283.393 
L 116.316228 283.227814 
L 116.518586 279.892513 
L 116.9233 266.473155 
L 117.328015 246.743849 
L 118.137443 189.8422 
L 118.744515 157.981558 
L 118.946872 150.07071 
L 119.149229 146.672024 
L 119.351587 153.41907 
L 119.958658 203.152795 
L 120.363373 242.952185 
L 120.768087 270.548417 
L 120.970444 273.664188 
L 121.172801 273.892721 
L 121.375159 272.017773 
L 121.779873 262.597187 
L 122.184587 241.091568 
L 122.589302 219.301523 
L 123.398731 192.581288 
L 123.601088 189.958776 
L 123.803445 193.212355 
L 124.005802 198.359439 
L 124.410517 213.224338 
L 124.612874 219.276586 
L 125.017588 247.067556 
L 125.422303 280.96949 
L 125.62466 289.084227 
L 125.827017 291.596195 
L 126.029374 288.022347 
L 126.231732 281.396337 
L 128.457661 155.615347 
L 128.660018 152.538369 
L 128.862375 156.899461 
L 129.064733 166.487584 
L 129.671804 220.296965 
L 130.076519 265.397709 
L 130.278876 278.115207 
L 130.481233 283.462658 
L 130.68359 283.861387 
L 130.885947 279.721208 
L 131.088305 272.472512 
L 131.493019 243.629622 
L 131.897733 217.172797 
L 132.504805 188.582403 
L 133.314234 141.668214 
L 133.516591 137.130671 
L 133.718948 139.121375 
L 134.123663 160.472112 
L 134.528377 195.447634 
L 134.933092 244.992539 
L 135.337806 265.855326 
L 135.74252 267.801143 
L 135.944878 262.869363 
L 136.147235 252.743885 
L 136.754306 209.610422 
L 136.956664 197.447382 
L 137.159021 198.601561 
L 137.766092 183.138403 
L 137.96845 184.412207 
L 138.575521 198.790668 
L 138.980236 210.62 
L 139.182593 214.926258 
L 139.38495 225.404447 
L 139.992022 273.531688 
L 140.194379 277.521061 
L 140.599093 274.93136 
L 141.003808 259.054967 
L 141.610879 221.171085 
L 142.015594 208.511317 
L 142.217951 207.401597 
L 142.420308 207.106497 
L 142.622665 208.04035 
L 143.229737 214.032684 
L 143.634451 220.071367 
L 143.836809 220.924417 
L 144.039166 223.435197 
L 144.44388 251.990433 
L 144.848595 278.266904 
L 145.050952 281.979603 
L 145.253309 280.090987 
L 145.658024 267.024658 
L 146.872167 208.724803 
L 147.074524 206.54155 
L 147.276881 208.787272 
L 147.479238 208.063423 
L 147.681596 204.918956 
L 148.895739 237.587234 
L 149.502811 279.662142 
L 149.705168 286.54566 
L 149.907525 288.952439 
L 150.109882 287.911108 
L 150.716954 277.367006 
L 151.121668 262.902914 
L 151.72874 235.505399 
L 151.931097 233.279137 
L 152.335811 235.36397 
L 152.538169 238.00064 
L 153.14524 240.835646 
L 153.752312 251.451118 
L 154.157026 263.483892 
L 154.561741 282.866225 
L 154.764098 287.946267 
L 154.966455 288.716236 
L 155.168812 287.788669 
L 155.37117 284.377474 
L 155.978241 266.303164 
L 156.382956 242.55064 
L 157.192384 190.678668 
L 158.001813 164.595291 
L 158.20417 167.349914 
L 158.608885 190.831421 
L 159.013599 224.881913 
L 159.620671 275.013354 
L 159.823028 277.368505 
L 160.227743 267.855071 
L 160.632457 241.197584 
L 161.239529 202.045654 
L 161.644243 187.393229 
L 162.048957 171.216181 
L 162.251315 168.996201 
L 162.453672 169.276826 
L 162.656029 173.712684 
L 163.667815 222.901181 
L 164.072529 260.265642 
L 164.477244 279.269013 
L 164.679601 281.802537 
L 164.881958 280.736146 
L 165.084316 274.433683 
L 165.48903 247.627613 
L 165.893744 222.782525 
L 166.500816 210.948316 
L 166.90553 189.4377 
L 167.310245 170.326977 
L 167.512602 170.159914 
L 167.714959 176.235004 
L 168.726745 242.581769 
L 169.13146 273.530785 
L 169.333817 280.69224 
L 169.536174 280.88717 
L 169.738531 278.345297 
L 170.143246 260.153256 
L 171.357389 177.367902 
L 171.762103 163.182893 
L 172.166818 156.716847 
L 172.369175 156.165049 
L 172.571532 159.31275 
L 172.773889 168.811104 
L 173.583318 233.658176 
L 173.988033 270.251853 
L 174.19039 274.987755 
L 174.392747 275.533305 
L 174.595104 273.161346 
L 174.797461 267.24543 
L 175.202176 245.47684 
L 175.60689 221.819319 
L 176.821034 172.896234 
L 177.023391 170.453222 
L 177.225748 169.961748 
L 177.428105 173.384572 
L 177.630462 181.063565 
L 178.237534 217.14416 
L 178.642248 265.378473 
L 179.046963 283.483368 
L 179.24932 284.447293 
L 179.451677 281.976815 
L 179.654034 276.454676 
L 179.856392 267.396481 
L 180.463463 227.500866 
L 181.272892 182.688828 
L 181.677607 164.128947 
L 181.879964 158.279577 
L 182.082321 156.086112 
L 182.284678 158.41594 
L 182.487035 164.752931 
L 183.903536 263.60894 
L 184.105893 266.006395 
L 184.510607 260.114083 
L 184.712965 255.892583 
L 185.117679 237.507598 
L 186.331822 147.518886 
L 186.53418 144.979543 
L 186.736537 145.455479 
L 186.938894 150.004146 
L 187.343608 173.915035 
L 187.748323 198.689367 
L 188.153037 222.125868 
L 188.557752 252.524824 
L 188.962466 264.006003 
L 189.164823 262.8635 
L 189.569538 251.773982 
L 189.974252 238.924379 
L 190.378966 211.44485 
L 190.986038 166.284484 
L 191.188395 158.019793 
L 191.390752 155.46588 
L 191.59311 155.247324 
L 191.795467 162.591611 
L 192.604896 203.150638 
L 192.807253 211.670919 
L 193.616682 270.483417 
L 193.819039 273.125488 
L 194.021396 271.969824 
L 194.223753 265.928707 
L 195.437897 202.323246 
L 195.640254 188.941503 
L 195.842611 182.930538 
L 196.044968 182.454442 
L 196.247325 187.774023 
L 196.854397 209.823485 
L 197.259112 219.713105 
L 197.663826 233.927198 
L 198.473255 280.821901 
L 198.675612 283.723653 
L 198.877969 279.425196 
L 199.282684 258.83522 
L 199.889755 220.831586 
L 200.901541 172.667563 
L 201.103898 166.938706 
L 201.306256 164.876838 
L 201.508613 165.315548 
L 201.71097 169.734875 
L 202.318042 194.862746 
L 202.520399 206.696557 
L 203.127471 259.391829 
L 203.329828 268.439195 
L 203.532185 270.468781 
L 203.734542 266.82537 
L 203.936899 259.681985 
L 204.341614 232.751323 
L 204.746328 202.541782 
L 205.960471 161.713413 
L 206.162829 163.617218 
L 206.567543 179.369364 
L 206.972257 194.481283 
L 207.174615 200.434658 
L 207.579329 229.232367 
L 207.984044 260.688916 
L 208.186401 267.173926 
L 208.388758 269.244913 
L 208.591115 268.121262 
L 208.793472 262.927097 
L 209.198187 235.639308 
L 209.602901 208.180697 
L 211.019402 145.537146 
L 211.221759 140.841268 
L 211.424116 144.075358 
L 212.233545 195.566372 
L 212.840617 250.068414 
L 213.042974 258.231519 
L 213.245331 258.805997 
L 213.447688 256.813175 
L 213.852403 240.572735 
L 214.864189 168.72077 
L 215.268903 148.216267 
L 215.673617 125.486805 
L 215.875975 118.780007 
L 216.078332 116.589663 
L 216.280689 118.370179 
L 216.483046 125.920437 
L 217.292475 191.130232 
L 217.697189 232.383877 
L 218.101904 246.866154 
L 218.304261 247.723025 
L 218.506618 246.524822 
L 218.708976 242.594869 
L 219.11369 224.19152 
L 219.518404 192.872068 
L 219.923119 165.030176 
L 220.327833 147.651078 
L 220.53019 145.367712 
L 220.732548 150.996932 
L 221.137262 176.932187 
L 221.541976 202.6326 
L 221.946691 219.040955 
L 222.75612 268.290055 
L 222.958477 269.895524 
L 223.160834 266.977445 
L 223.767906 251.735471 
L 224.374977 225.977243 
L 224.577335 214.216649 
L 224.779692 210.004323 
L 224.982049 210.478545 
L 226.600907 241.106819 
L 227.005621 259.237149 
L 227.612693 293.744459 
L 227.81505 294.503746 
L 228.017407 289.36217 
L 228.422121 270.564494 
L 229.029193 240.069243 
L 229.636265 227.49261 
L 230.445694 202.034115 
L 230.850408 193.105403 
L 231.052765 191.871712 
L 231.255122 196.63079 
L 231.45748 206.194674 
L 232.469266 286.808103 
L 232.671623 288.674265 
L 232.87398 286.114277 
L 233.076337 279.969951 
L 233.481052 255.16314 
L 233.885766 229.152696 
L 235.099909 182.559911 
L 235.302267 181.242777 
L 235.504624 182.911501 
L 236.111695 206.264663 
L 236.51641 227.52549 
L 237.123481 277.358829 
L 237.325839 284.390348 
L 237.528196 286.132027 
L 237.730553 285.066616 
L 237.93291 278.915933 
L 239.147053 216.164086 
L 239.349411 211.327132 
L 239.754125 196.268413 
L 239.956482 193.249805 
L 240.15884 193.903835 
L 240.361197 195.009244 
L 240.765911 206.278044 
L 241.170626 224.968105 
L 241.57534 255.998045 
L 241.980054 283.837627 
L 242.182412 288.357171 
L 242.384769 288.090846 
L 242.587126 285.860447 
L 242.789483 280.283297 
L 243.194198 258.236966 
L 243.598912 234.507789 
L 244.813055 192.5691 
L 245.21777 186.369949 
L 245.420127 187.477103 
L 245.622484 192.698806 
L 246.027199 212.67131 
L 246.431913 244.621498 
L 246.836627 277.436575 
L 247.038985 283.899302 
L 247.241342 285.448787 
L 247.443699 283.444428 
L 247.646056 278.109934 
L 248.050771 254.830497 
L 249.467271 160.577772 
L 249.871985 142.402274 
L 250.074343 142.036801 
L 250.479057 158.135024 
L 251.895558 259.487382 
L 252.097915 262.425805 
L 252.300272 262.503595 
L 252.502629 260.546997 
L 252.704986 255.560815 
L 253.109701 236.79373 
L 254.121487 159.624753 
L 254.323844 148.967019 
L 254.526201 144.262041 
L 254.728558 142.392521 
L 254.930916 143.240466 
L 255.133273 146.964217 
L 255.33563 157.608768 
L 256.549773 254.20437 
L 256.954488 268.820886 
L 257.156845 268.760653 
L 257.359202 266.280333 
L 257.966274 243.765015 
L 258.573345 202.106331 
L 258.97806 177.037752 
L 259.180417 169.019051 
L 259.585131 164.655998 
L 259.787489 166.488308 
L 260.192203 179.938815 
L 260.799275 208.844497 
L 261.608704 276.4295 
L 261.811061 279.916953 
L 262.013418 277.487234 
L 262.418132 258.325944 
L 263.025204 221.296006 
L 263.227561 212.887038 
L 263.429918 210.634536 
L 263.632276 210.986763 
L 263.834633 212.655516 
L 264.846419 232.985979 
L 265.048776 233.571205 
L 265.251133 235.372472 
L 265.45349 240.170976 
L 265.655848 247.92774 
L 266.262919 283.933141 
L 266.465277 290.650981 
L 266.667634 292.041342 
L 266.869991 287.857398 
L 267.274705 271.955035 
L 267.881777 240.265942 
L 268.488849 220.553815 
L 269.09592 213.594896 
L 269.298277 213.288229 
L 269.500635 214.159621 
L 269.905349 219.882103 
L 270.310063 229.203846 
L 270.714778 256.477861 
L 271.119492 279.899767 
L 271.32185 284.609435 
L 271.524207 285.785316 
L 271.726564 282.812809 
L 271.928921 276.794857 
L 274.15485 153.95363 
L 274.559565 148.564407 
L 274.761922 151.453971 
L 275.166636 172.222583 
L 275.571351 203.673887 
L 275.976065 246.253419 
L 276.178422 253.282246 
L 276.38078 255.28021 
L 276.583137 255.289808 
L 276.785494 251.425724 
L 277.190209 226.877717 
L 278.201995 159.384383 
L 278.606709 141.651445 
L 278.809066 138.688454 
L 279.213781 141.055716 
L 279.416138 145.435417 
L 279.618495 153.317943 
L 280.427924 216.960937 
L 280.832638 253.037024 
L 281.237353 266.526237 
L 281.43971 267.011048 
L 281.642067 262.577156 
L 282.046782 241.907999 
L 282.85621 193.204157 
L 283.463282 165.666729 
L 283.867996 159.13307 
L 284.070354 159.275723 
L 284.272711 163.516757 
L 285.08214 212.077923 
L 285.689211 271.12086 
L 285.891568 280.495458 
L 286.093926 283.474596 
L 286.296283 281.94509 
L 286.700997 268.5478 
L 286.903354 261.604036 
L 287.712783 212.519269 
L 288.117498 184.540753 
L 288.724569 162.63835 
L 288.926927 160.392989 
L 289.129284 162.424837 
L 289.331641 169.451889 
L 290.14107 224.789143 
L 290.748141 270.695821 
L 290.950499 273.637186 
L 291.152856 270.936535 
L 291.759927 253.266935 
L 292.164642 229.236553 
L 292.974071 160.441688 
L 293.378785 139.929809 
L 293.581142 137.271321 
L 293.7835 136.676329 
L 293.985857 140.145193 
L 294.188214 147.018036 
L 294.795286 184.923454 
L 295.604714 250.598479 
L 295.807072 256.673752 
L 296.009429 256.315069 
L 296.211786 250.115101 
L 296.6165 227.891989 
L 297.021215 190.111686 
L 297.628286 134.414769 
L 298.235358 91.1847 
L 298.437715 89.189146 
L 298.640073 91.747609 
L 299.247144 117.878147 
L 299.651859 147.991765 
L 300.25893 221.232899 
L 300.461287 235.737113 
L 300.663645 240.530242 
L 300.866002 239.804987 
L 301.068359 233.189542 
L 301.473073 208.14952 
L 301.877788 163.985535 
L 302.484859 95.736667 
L 302.889574 76.7581 
L 303.091931 76.288745 
L 303.90136 125.942563 
L 304.306074 159.213007 
L 304.913146 218.558781 
L 305.520218 247.941731 
L 305.722575 246.672954 
L 305.924932 241.099988 
L 306.127289 232.03938 
L 307.139075 148.171823 
L 307.54379 126.736247 
L 307.746147 121.013583 
L 307.948504 119.206411 
L 308.150861 123.193944 
L 308.555576 146.663437 
L 309.162647 188.912383 
L 309.365005 197.903278 
L 309.769719 231.689071 
L 310.174433 253.271705 
L 310.376791 257.13563 
L 310.579148 257.490228 
L 310.781505 254.567683 
L 311.186219 231.89592 
L 311.793291 173.671024 
L 312.198005 142.61157 
L 312.60272 128.184022 
L 313.007434 129.629144 
L 313.209791 132.387471 
L 313.614506 154.231701 
L 314.828649 235.538325 
L 315.031006 244.63894 
L 315.233364 248.366921 
L 315.435721 247.858529 
L 315.638078 242.937723 
L 316.042792 222.918028 
L 316.649864 187.266465 
L 317.054578 170.432567 
L 317.256936 164.980192 
L 317.459293 164.29313 
L 317.864007 170.396745 
L 318.066364 175.095548 
L 319.280508 226.51941 
L 319.685222 258.303392 
L 319.887579 265.349965 
L 320.089937 266.444589 
L 320.292294 265.990536 
L 320.494651 262.675503 
L 321.30408 231.010388 
L 321.506437 221.869012 
L 322.315866 168.52049 
L 322.518223 161.186211 
L 322.922937 157.172457 
L 323.125295 160.497768 
L 323.327652 167.138228 
L 324.137081 215.018083 
L 324.744152 259.117955 
L 324.94651 261.681064 
L 325.148867 260.678084 
L 325.553581 251.750658 
L 325.755938 245.409716 
L 326.160653 223.456376 
L 327.172439 139.929553 
L 327.374796 132.493622 
L 327.577153 130.321367 
L 327.77951 131.9713 
L 328.184225 142.821514 
L 328.588939 169.383563 
L 329.600725 256.340495 
L 329.803083 261.165835 
L 330.00544 259.452841 
L 330.207797 254.10998 
L 330.612511 232.50632 
L 331.624297 157.136888 
L 332.029012 138.486366 
L 332.231369 135.956008 
L 332.433726 138.905984 
L 332.838441 157.146641 
L 333.647869 200.168238 
L 334.457298 267.228937 
L 334.659655 270.612321 
L 334.862013 268.867522 
L 335.266727 252.132554 
L 336.076156 204.566917 
L 336.683228 178.789981 
L 336.885585 171.371005 
L 337.087942 170.484127 
L 337.290299 171.745231 
L 337.492656 175.561334 
L 338.099728 199.119234 
L 338.504442 218.548538 
L 339.313871 275.081173 
L 339.516228 276.306439 
L 339.718586 271.879942 
L 340.1233 251.772668 
L 341.337443 181.10138 
L 341.742158 167.050871 
L 341.944515 158.241617 
L 342.349229 152.454562 
L 342.551587 154.848794 
L 342.753944 160.032085 
L 343.361015 191.232 
L 343.563373 203.064976 
L 343.968087 239.999203 
L 344.170444 249.76187 
L 344.372801 251.420239 
L 344.575159 249.362378 
L 344.777516 243.712962 
L 345.18223 222.632944 
L 345.586945 185.640976 
L 345.991659 148.999615 
L 346.598731 114.037441 
L 346.801088 108.939482 
L 347.003445 108.287506 
L 347.205802 110.570999 
L 347.610517 121.420188 
L 348.217588 161.476354 
L 348.82466 228.001866 
L 349.027017 238.811465 
L 349.229374 242.236185 
L 349.431732 243.620812 
L 349.634089 238.836237 
L 350.038803 218.639943 
L 351.252947 122.810273 
L 351.455304 113.97608 
L 351.657661 111.991316 
L 351.860018 112.39257 
L 352.264733 121.78616 
L 352.46709 128.506319 
L 352.871804 156.882 
L 353.88359 251.991439 
L 354.085947 257.241386 
L 354.288305 258.796715 
L 354.490662 255.210436 
L 354.895376 239.833168 
L 355.300091 209.659424 
L 355.907162 137.829257 
L 356.311877 122.643787 
L 356.514234 121.454578 
L 356.716591 121.170362 
L 356.918948 122.579568 
L 357.121306 126.774675 
L 357.323663 133.573495 
L 357.728377 164.385844 
L 358.740163 249.071389 
L 358.94252 257.612742 
L 359.144878 257.872089 
L 359.347235 253.639174 
L 359.751949 239.783457 
L 359.954306 227.905353 
L 360.359021 185.849027 
L 360.763735 131.60006 
L 361.16845 112.409974 
L 361.370807 109.725867 
L 361.775521 110.354135 
L 361.977879 114.250326 
L 362.382593 130.198806 
L 362.989665 184.183902 
L 363.394379 224.918946 
L 363.799093 246.249228 
L 364.001451 244.355708 
L 364.406165 228.862822 
L 364.810879 198.261111 
L 365.620308 99.332059 
L 366.025023 78.012624 
L 366.22738 75.063185 
L 366.429737 77.967962 
L 367.036809 97.546858 
L 367.239166 107.164732 
L 367.64388 145.257217 
L 368.250952 212.758109 
L 368.655666 228.697563 
L 368.858024 230.515142 
L 369.262738 219.133783 
L 369.86981 169.310515 
L 370.679238 91.994615 
L 371.083953 81.574938 
L 371.28631 85.287002 
L 371.691024 104.530197 
L 372.095739 132.145155 
L 373.107525 221.819802 
L 373.309882 231.038668 
L 373.512239 233.441535 
L 373.916954 228.824015 
L 374.321668 218.427046 
L 374.726383 191.50882 
L 375.535811 127.151515 
L 375.738169 121.271028 
L 375.940526 122.408392 
L 376.142883 124.300627 
L 376.34524 127.938771 
L 376.749955 148.262557 
L 377.559383 211.430778 
L 377.964098 228.461246 
L 378.368812 235.993827 
L 378.57117 235.73976 
L 378.773527 231.955105 
L 379.178241 212.689352 
L 379.582956 188.583774 
L 380.190027 142.514941 
L 380.594742 121.459839 
L 380.797099 118.244222 
L 381.40417 121.871877 
L 381.606528 124.985469 
L 381.808885 134.773367 
L 382.820671 214.755273 
L 383.225385 225.858495 
L 383.427743 225.365077 
L 383.832457 214.03819 
L 384.237171 195.651118 
L 384.237171 195.651118 
" clip-path="url(#p545d6104e3)" style="fill: none; stroke: #ff7f0e; stroke-width: 1.5; stroke-linecap: square"/>
   </g>
   <g id="line2d_15">
    <path d="M 384.439529 181.756996 
L 385.0466 150.273509 
L 385.451315 140.410532 
L 385.653672 141.674603 
L 386.058386 152.581333 
L 386.463101 171.235987 
L 387.474887 223.577161 
L 387.677244 227.488544 
L 387.879601 228.645815 
L 388.081958 227.145119 
L 388.284316 223.592464 
L 388.68903 210.948217 
L 390.307888 147.385585 
L 390.510245 144.019245 
L 390.712602 142.733657 
L 390.914959 145.074288 
L 391.319674 158.614225 
L 392.533817 207.946211 
L 392.736174 209.765438 
L 392.938531 209.793816 
L 393.140888 208.024112 
L 394.152675 177.21532 
L 394.759746 150.633542 
L 395.164461 142.714286 
L 395.366818 141.833611 
L 395.973889 148.285356 
L 397.39039 184.036837 
L 397.592747 186.053891 
L 397.795104 184.909948 
L 397.997461 182.675442 
L 398.402176 173.865945 
L 399.616319 140.358174 
L 399.818676 138.292115 
L 400.021034 137.420404 
L 400.223391 138.188508 
L 400.425748 140.724531 
L 400.830462 151.20305 
L 401.842248 181.253632 
L 402.246963 188.984006 
L 402.44932 190.678114 
L 402.651677 190.866476 
L 402.854034 190.155299 
L 403.258749 184.004696 
L 404.472892 156.891093 
L 404.675249 156.571609 
L 404.877607 157.80794 
L 405.282321 163.077236 
L 405.889393 174.287735 
L 406.698821 190.351401 
L 407.103536 194.588773 
L 407.305893 195.156355 
L 407.50825 194.554461 
L 407.710607 192.860159 
L 408.115322 186.401472 
L 409.329465 164.768198 
L 409.531822 163.022395 
L 409.73418 162.339956 
L 409.936537 162.684883 
L 410.138894 164.157257 
L 410.543608 169.608632 
L 411.555394 184.421527 
L 411.960109 187.282586 
L 412.162466 187.321374 
L 412.364823 186.421951 
L 412.56718 184.658915 
L 412.971895 178.353447 
L 414.186038 155.769447 
L 414.388395 154.287494 
L 414.590752 153.783844 
L 414.79311 154.062338 
L 414.995467 155.139719 
L 415.602539 161.20471 
L 416.20961 166.673483 
L 416.614325 168.097126 
L 416.816682 167.884751 
L 417.019039 167.120789 
L 417.423753 164.022649 
L 418.233182 157.011616 
L 418.637897 155.450027 
L 418.840254 155.2466 
L 419.042611 155.44046 
L 419.244968 156.098402 
L 419.649683 159.792473 
L 420.863826 174.086276 
L 421.470898 178.565149 
L 421.875612 179.556974 
L 422.077969 179.497019 
L 422.482684 178.366717 
L 423.089755 176.115823 
L 423.292112 175.620811 
L 423.49447 175.467394 
L 423.696827 175.627799 
L 424.101541 176.877869 
L 424.506256 179.852134 
L 425.720399 190.961191 
L 426.125113 192.235464 
L 426.327471 192.190986 
L 426.529828 191.682722 
L 426.934542 189.491846 
L 427.541614 184.345601 
L 428.755757 174.011898 
L 429.160471 172.177338 
L 429.565186 171.315194 
L 430.374615 170.27724 
L 430.779329 169.008222 
L 431.184044 166.862493 
L 431.993472 160.571858 
L 432.802901 154.686806 
L 433.207616 152.95388 
L 433.409973 152.494392 
L 433.61233 152.311579 
L 433.814687 152.355453 
L 434.219402 153.183489 
L 435.433545 156.924945 
L 435.838259 157.465144 
L 436.445331 157.844958 
L 436.850045 157.898898 
L 437.25476 158.236898 
L 437.659474 159.229558 
L 437.861831 160.128791 
L 438.468903 165.004753 
L 440.492475 183.487981 
L 441.099547 186.410254 
L 442.718404 192.381173 
L 443.325476 194.459489 
L 443.73019 195.309037 
L 444.134905 195.586832 
L 444.337262 195.488095 
L 444.539619 195.240512 
L 444.944334 194.062267 
L 445.551405 190.718431 
L 446.158477 185.738029 
L 448.182049 167.236494 
L 448.991478 162.91997 
L 450.205621 157.152081 
L 451.419764 150.693211 
L 451.824479 149.594127 
L 452.026836 149.335189 
L 452.229193 149.263134 
L 452.43155 149.365588 
L 452.836265 150.158029 
L 454.252765 154.232099 
L 455.669266 157.716828 
L 456.276337 160.713543 
L 456.883409 164.894626 
L 457.692838 172.072052 
L 459.109338 185.465318 
L 459.918767 191.116678 
L 460.525839 194.22687 
L 461.13291 196.140073 
L 461.739982 197.251023 
L 462.144696 197.558162 
L 462.549411 197.508957 
L 462.954125 197.00566 
L 463.35884 195.936199 
L 463.763554 194.056872 
L 464.370626 189.719459 
L 465.180054 181.701605 
L 466.394198 169.377114 
L 467.203626 163.707522 
L 469.024841 153.965357 
L 469.83427 150.261879 
L 470.441342 148.615836 
L 470.643699 148.331222 
L 470.846056 148.239111 
L 471.048413 148.321495 
L 471.655485 149.370733 
L 472.464914 150.96513 
L 473.071985 152.626008 
L 473.881414 155.655851 
L 474.488486 158.507039 
L 475.297915 163.693736 
L 476.107344 170.309964 
L 478.737987 193.849877 
L 479.345059 196.640926 
L 479.749773 197.760615 
L 480.154488 198.415536 
L 480.559202 198.675377 
L 480.963917 198.57631 
L 481.368631 198.052582 
L 481.773345 197.048409 
L 482.17806 195.578345 
L 482.785131 191.808554 
L 483.59456 184.508173 
L 485.213418 168.191246 
L 486.022847 162.554219 
L 488.248776 150.60775 
L 489.058205 147.952569 
L 489.462919 147.373417 
L 489.665277 147.35213 
L 490.272348 147.958445 
L 490.677063 148.640294 
L 491.486491 150.695505 
L 492.093563 152.950874 
L 492.700635 156.002344 
L 493.510063 160.700962 
L 494.319492 166.519441 
L 495.331278 175.561379 
L 497.152493 192.87342 
L 497.759565 196.443617 
L 498.164279 197.894693 
L 498.568994 198.735983 
L 498.973708 199.136767 
L 499.378422 199.14395 
L 499.783137 198.758465 
L 500.187851 198.004509 
L 500.794923 196.142191 
L 501.199637 194.113412 
L 501.806709 189.543371 
L 502.616138 181.477711 
L 504.032638 167.266713 
L 504.842067 161.696743 
L 506.258568 153.411265 
L 507.270354 148.914456 
L 507.877425 147.086574 
L 508.28214 146.627874 
L 508.889211 146.879289 
L 509.293926 147.331721 
L 509.69864 148.167081 
L 510.305712 150.313218 
L 511.115141 154.135104 
L 512.531641 162.860686 
L 513.543427 170.671515 
L 514.352856 178.572124 
L 515.769356 192.57967 
L 516.376428 196.538773 
L 516.781142 198.104497 
L 517.185857 199.000279 
L 517.590571 199.428229 
L 517.995286 199.443577 
L 518.4 199.091937 
L 518.4 199.091937 
" clip-path="url(#p545d6104e3)" style="fill: none; stroke: #2ca02c; stroke-width: 1.5; stroke-linecap: square"/>
   </g>
   <g id="patch_3">
    <path d="M 72 320.4 
L 72 43.2 
" style="fill: none; stroke: #000000; stroke-width: 0.8; stroke-linejoin: miter; stroke-linecap: square"/>
   </g>
   <g id="patch_4">
    <path d="M 518.4 320.4 
L 518.4 43.2 
" style="fill: none; stroke: #000000; stroke-width: 0.8; stroke-linejoin: miter; stroke-linecap: square"/>
   </g>
   <g id="patch_5">
    <path d="M 72 320.4 
L 518.4 320.4 
" style="fill: none; stroke: #000000; stroke-width: 0.8; stroke-linejoin: miter; stroke-linecap: square"/>
   </g>
   <g id="patch_6">
    <path d="M 72 43.2 
L 518.4 43.2 
" style="fill: none; stroke: #000000; stroke-width: 0.8; stroke-linejoin: miter; stroke-linecap: square"/>
   </g>
   <g id="text_13">
    <!-- Classic Transformer - model_20231126154523 -->
    <g transform="translate(155.436563 37.2) scale(0.12 -0.12)">
     <defs>
      <path id="DejaVuSans-43" d="M 4122 4306 
L 4122 3641 
Q 3803 3938 3442 4084 
Q 3081 4231 2675 4231 
Q 1875 4231 1450 3742 
Q 1025 3253 1025 2328 
Q 1025 1406 1450 917 
Q 1875 428 2675 428 
Q 3081 428 3442 575 
Q 3803 722 4122 1019 
L 4122 359 
Q 3791 134 3420 21 
Q 3050 -91 2638 -91 
Q 1578 -91 968 557 
Q 359 1206 359 2328 
Q 359 3453 968 4101 
Q 1578 4750 2638 4750 
Q 3056 4750 3426 4639 
Q 3797 4528 4122 4306 
z
" transform="scale(0.015625)"/>
      <path id="DejaVuSans-6c" d="M 603 4863 
L 1178 4863 
L 1178 0 
L 603 0 
L 603 4863 
z
" transform="scale(0.015625)"/>
      <path id="DejaVuSans-61" d="M 2194 1759 
Q 1497 1759 1228 1600 
Q 959 1441 959 1056 
Q 959 750 1161 570 
Q 1363 391 1709 391 
Q 2188 391 2477 730 
Q 2766 1069 2766 1631 
L 2766 1759 
L 2194 1759 
z
M 3341 1997 
L 3341 0 
L 2766 0 
L 2766 531 
Q 2569 213 2275 61 
Q 1981 -91 1556 -91 
Q 1019 -91 701 211 
Q 384 513 384 1019 
Q 384 1609 779 1909 
Q 1175 2209 1959 2209 
L 2766 2209 
L 2766 2266 
Q 2766 2663 2505 2880 
Q 2244 3097 1772 3097 
Q 1472 3097 1187 3025 
Q 903 2953 641 2809 
L 641 3341 
Q 956 3463 1253 3523 
Q 1550 3584 1831 3584 
Q 2591 3584 2966 3190 
Q 3341 2797 3341 1997 
z
" transform="scale(0.015625)"/>
      <path id="DejaVuSans-73" d="M 2834 3397 
L 2834 2853 
Q 2591 2978 2328 3040 
Q 2066 3103 1784 3103 
Q 1356 3103 1142 2972 
Q 928 2841 928 2578 
Q 928 2378 1081 2264 
Q 1234 2150 1697 2047 
L 1894 2003 
Q 2506 1872 2764 1633 
Q 3022 1394 3022 966 
Q 3022 478 2636 193 
Q 2250 -91 1575 -91 
Q 1294 -91 989 -36 
Q 684 19 347 128 
L 347 722 
Q 666 556 975 473 
Q 1284 391 1588 391 
Q 1994 391 2212 530 
Q 2431 669 2431 922 
Q 2431 1156 2273 1281 
Q 2116 1406 1581 1522 
L 1381 1569 
Q 847 1681 609 1914 
Q 372 2147 372 2553 
Q 372 3047 722 3315 
Q 1072 3584 1716 3584 
Q 2034 3584 2315 3537 
Q 2597 3491 2834 3397 
z
" transform="scale(0.015625)"/>
      <path id="DejaVuSans-69" d="M 603 3500 
L 1178 3500 
L 1178 0 
L 603 0 
L 603 3500 
z
M 603 4863 
L 1178 4863 
L 1178 4134 
L 603 4134 
L 603 4863 
z
" transform="scale(0.015625)"/>
      <path id="DejaVuSans-63" d="M 3122 3366 
L 3122 2828 
Q 2878 2963 2633 3030 
Q 2388 3097 2138 3097 
Q 1578 3097 1268 2742 
Q 959 2388 959 1747 
Q 959 1106 1268 751 
Q 1578 397 2138 397 
Q 2388 397 2633 464 
Q 2878 531 3122 666 
L 3122 134 
Q 2881 22 2623 -34 
Q 2366 -91 2075 -91 
Q 1284 -91 818 406 
Q 353 903 353 1747 
Q 353 2603 823 3093 
Q 1294 3584 2113 3584 
Q 2378 3584 2631 3529 
Q 2884 3475 3122 3366 
z
" transform="scale(0.015625)"/>
      <path id="DejaVuSans-20" transform="scale(0.015625)"/>
      <path id="DejaVuSans-54" d="M -19 4666 
L 3928 4666 
L 3928 4134 
L 2272 4134 
L 2272 0 
L 1638 0 
L 1638 4134 
L -19 4134 
L -19 4666 
z
" transform="scale(0.015625)"/>
      <path id="DejaVuSans-72" d="M 2631 2963 
Q 2534 3019 2420 3045 
Q 2306 3072 2169 3072 
Q 1681 3072 1420 2755 
Q 1159 2438 1159 1844 
L 1159 0 
L 581 0 
L 581 3500 
L 1159 3500 
L 1159 2956 
Q 1341 3275 1631 3429 
Q 1922 3584 2338 3584 
Q 2397 3584 2469 3576 
Q 2541 3569 2628 3553 
L 2631 2963 
z
" transform="scale(0.015625)"/>
      <path id="DejaVuSans-6e" d="M 3513 2113 
L 3513 0 
L 2938 0 
L 2938 2094 
Q 2938 2591 2744 2837 
Q 2550 3084 2163 3084 
Q 1697 3084 1428 2787 
Q 1159 2491 1159 1978 
L 1159 0 
L 581 0 
L 581 3500 
L 1159 3500 
L 1159 2956 
Q 1366 3272 1645 3428 
Q 1925 3584 2291 3584 
Q 2894 3584 3203 3211 
Q 3513 2838 3513 2113 
z
" transform="scale(0.015625)"/>
      <path id="DejaVuSans-66" d="M 2375 4863 
L 2375 4384 
L 1825 4384 
Q 1516 4384 1395 4259 
Q 1275 4134 1275 3809 
L 1275 3500 
L 2222 3500 
L 2222 3053 
L 1275 3053 
L 1275 0 
L 697 0 
L 697 3053 
L 147 3053 
L 147 3500 
L 697 3500 
L 697 3744 
Q 697 4328 969 4595 
Q 1241 4863 1831 4863 
L 2375 4863 
z
" transform="scale(0.015625)"/>
      <path id="DejaVuSans-6f" d="M 1959 3097 
Q 1497 3097 1228 2736 
Q 959 2375 959 1747 
Q 959 1119 1226 758 
Q 1494 397 1959 397 
Q 2419 397 2687 759 
Q 2956 1122 2956 1747 
Q 2956 2369 2687 2733 
Q 2419 3097 1959 3097 
z
M 1959 3584 
Q 2709 3584 3137 3096 
Q 3566 2609 3566 1747 
Q 3566 888 3137 398 
Q 2709 -91 1959 -91 
Q 1206 -91 779 398 
Q 353 888 353 1747 
Q 353 2609 779 3096 
Q 1206 3584 1959 3584 
z
" transform="scale(0.015625)"/>
      <path id="DejaVuSans-6d" d="M 3328 2828 
Q 3544 3216 3844 3400 
Q 4144 3584 4550 3584 
Q 5097 3584 5394 3201 
Q 5691 2819 5691 2113 
L 5691 0 
L 5113 0 
L 5113 2094 
Q 5113 2597 4934 2840 
Q 4756 3084 4391 3084 
Q 3944 3084 3684 2787 
Q 3425 2491 3425 1978 
L 3425 0 
L 2847 0 
L 2847 2094 
Q 2847 2600 2669 2842 
Q 2491 3084 2119 3084 
Q 1678 3084 1418 2786 
Q 1159 2488 1159 1978 
L 1159 0 
L 581 0 
L 581 3500 
L 1159 3500 
L 1159 2956 
Q 1356 3278 1631 3431 
Q 1906 3584 2284 3584 
Q 2666 3584 2933 3390 
Q 3200 3197 3328 2828 
z
" transform="scale(0.015625)"/>
      <path id="DejaVuSans-65" d="M 3597 1894 
L 3597 1613 
L 953 1613 
Q 991 1019 1311 708 
Q 1631 397 2203 397 
Q 2534 397 2845 478 
Q 3156 559 3463 722 
L 3463 178 
Q 3153 47 2828 -22 
Q 2503 -91 2169 -91 
Q 1331 -91 842 396 
Q 353 884 353 1716 
Q 353 2575 817 3079 
Q 1281 3584 2069 3584 
Q 2775 3584 3186 3129 
Q 3597 2675 3597 1894 
z
M 3022 2063 
Q 3016 2534 2758 2815 
Q 2500 3097 2075 3097 
Q 1594 3097 1305 2825 
Q 1016 2553 972 2059 
L 3022 2063 
z
" transform="scale(0.015625)"/>
      <path id="DejaVuSans-64" d="M 2906 2969 
L 2906 4863 
L 3481 4863 
L 3481 0 
L 2906 0 
L 2906 525 
Q 2725 213 2448 61 
Q 2172 -91 1784 -91 
Q 1150 -91 751 415 
Q 353 922 353 1747 
Q 353 2572 751 3078 
Q 1150 3584 1784 3584 
Q 2172 3584 2448 3432 
Q 2725 3281 2906 2969 
z
M 947 1747 
Q 947 1113 1208 752 
Q 1469 391 1925 391 
Q 2381 391 2643 752 
Q 2906 1113 2906 1747 
Q 2906 2381 2643 2742 
Q 2381 3103 1925 3103 
Q 1469 3103 1208 2742 
Q 947 2381 947 1747 
z
" transform="scale(0.015625)"/>
      <path id="DejaVuSans-5f" d="M 3263 -1063 
L 3263 -1509 
L -63 -1509 
L -63 -1063 
L 3263 -1063 
z
" transform="scale(0.015625)"/>
      <path id="DejaVuSans-34" d="M 2419 4116 
L 825 1625 
L 2419 1625 
L 2419 4116 
z
M 2253 4666 
L 3047 4666 
L 3047 1625 
L 3713 1625 
L 3713 1100 
L 3047 1100 
L 3047 0 
L 2419 0 
L 2419 1100 
L 313 1100 
L 313 1709 
L 2253 4666 
z
" transform="scale(0.015625)"/>
     </defs>
     <use xlink:href="#DejaVuSans-43"/>
     <use xlink:href="#DejaVuSans-6c" x="69.824219"/>
     <use xlink:href="#DejaVuSans-61" x="97.607422"/>
     <use xlink:href="#DejaVuSans-73" x="158.886719"/>
     <use xlink:href="#DejaVuSans-73" x="210.986328"/>
     <use xlink:href="#DejaVuSans-69" x="263.085938"/>
     <use xlink:href="#DejaVuSans-63" x="290.869141"/>
     <use xlink:href="#DejaVuSans-20" x="345.849609"/>
     <use xlink:href="#DejaVuSans-54" x="377.636719"/>
     <use xlink:href="#DejaVuSans-72" x="423.970703"/>
     <use xlink:href="#DejaVuSans-61" x="465.083984"/>
     <use xlink:href="#DejaVuSans-6e" x="526.363281"/>
     <use xlink:href="#DejaVuSans-73" x="589.742188"/>
     <use xlink:href="#DejaVuSans-66" x="641.841797"/>
     <use xlink:href="#DejaVuSans-6f" x="677.046875"/>
     <use xlink:href="#DejaVuSans-72" x="738.228516"/>
     <use xlink:href="#DejaVuSans-6d" x="777.591797"/>
     <use xlink:href="#DejaVuSans-65" x="875.003906"/>
     <use xlink:href="#DejaVuSans-72" x="936.527344"/>
     <use xlink:href="#DejaVuSans-20" x="977.640625"/>
     <use xlink:href="#DejaVuSans-2d" x="1009.427734"/>
     <use xlink:href="#DejaVuSans-20" x="1045.511719"/>
     <use xlink:href="#DejaVuSans-6d" x="1077.298828"/>
     <use xlink:href="#DejaVuSans-6f" x="1174.710938"/>
     <use xlink:href="#DejaVuSans-64" x="1235.892578"/>
     <use xlink:href="#DejaVuSans-65" x="1299.369141"/>
     <use xlink:href="#DejaVuSans-6c" x="1360.892578"/>
     <use xlink:href="#DejaVuSans-5f" x="1388.675781"/>
     <use xlink:href="#DejaVuSans-32" x="1438.675781"/>
     <use xlink:href="#DejaVuSans-30" x="1502.298828"/>
     <use xlink:href="#DejaVuSans-32" x="1565.921875"/>
     <use xlink:href="#DejaVuSans-33" x="1629.544922"/>
     <use xlink:href="#DejaVuSans-31" x="1693.167969"/>
     <use xlink:href="#DejaVuSans-31" x="1756.791016"/>
     <use xlink:href="#DejaVuSans-32" x="1820.414062"/>
     <use xlink:href="#DejaVuSans-36" x="1884.037109"/>
     <use xlink:href="#DejaVuSans-31" x="1947.660156"/>
     <use xlink:href="#DejaVuSans-35" x="2011.283203"/>
     <use xlink:href="#DejaVuSans-34" x="2074.90625"/>
     <use xlink:href="#DejaVuSans-35" x="2138.529297"/>
     <use xlink:href="#DejaVuSans-32" x="2202.152344"/>
     <use xlink:href="#DejaVuSans-33" x="2265.775391"/>
    </g>
   </g>
   <g id="legend_1">
    <g id="patch_7">
     <path d="M 79 95.234375 
L 161.517188 95.234375 
Q 163.517188 95.234375 163.517188 93.234375 
L 163.517188 50.2 
Q 163.517188 48.2 161.517188 48.2 
L 79 48.2 
Q 77 48.2 77 50.2 
L 77 93.234375 
Q 77 95.234375 79 95.234375 
z
" style="fill: #ffffff; opacity: 0.8; stroke: #cccccc; stroke-linejoin: miter"/>
    </g>
    <g id="line2d_16">
     <path d="M 81 56.298437 
L 91 56.298437 
L 101 56.298437 
" style="fill: none; stroke: #1f77b4; stroke-width: 1.5; stroke-linecap: square"/>
    </g>
    <g id="text_14">
     <!-- Measured -->
     <g transform="translate(109 59.798437) scale(0.1 -0.1)">
      <defs>
       <path id="DejaVuSans-4d" d="M 628 4666 
L 1569 4666 
L 2759 1491 
L 3956 4666 
L 4897 4666 
L 4897 0 
L 4281 0 
L 4281 4097 
L 3078 897 
L 2444 897 
L 1241 4097 
L 1241 0 
L 628 0 
L 628 4666 
z
" transform="scale(0.015625)"/>
       <path id="DejaVuSans-75" d="M 544 1381 
L 544 3500 
L 1119 3500 
L 1119 1403 
Q 1119 906 1312 657 
Q 1506 409 1894 409 
Q 2359 409 2629 706 
Q 2900 1003 2900 1516 
L 2900 3500 
L 3475 3500 
L 3475 0 
L 2900 0 
L 2900 538 
Q 2691 219 2414 64 
Q 2138 -91 1772 -91 
Q 1169 -91 856 284 
Q 544 659 544 1381 
z
M 1991 3584 
L 1991 3584 
z
" transform="scale(0.015625)"/>
      </defs>
      <use xlink:href="#DejaVuSans-4d"/>
      <use xlink:href="#DejaVuSans-65" x="86.279297"/>
      <use xlink:href="#DejaVuSans-61" x="147.802734"/>
      <use xlink:href="#DejaVuSans-73" x="209.082031"/>
      <use xlink:href="#DejaVuSans-75" x="261.181641"/>
      <use xlink:href="#DejaVuSans-72" x="324.560547"/>
      <use xlink:href="#DejaVuSans-65" x="363.423828"/>
      <use xlink:href="#DejaVuSans-64" x="424.947266"/>
     </g>
    </g>
    <g id="line2d_17">
     <path d="M 81 70.976562 
L 91 70.976562 
L 101 70.976562 
" style="fill: none; stroke: #ff7f0e; stroke-width: 1.5; stroke-linecap: square"/>
    </g>
    <g id="text_15">
     <!-- Fitted -->
     <g transform="translate(109 74.476562) scale(0.1 -0.1)">
      <defs>
       <path id="DejaVuSans-46" d="M 628 4666 
L 3309 4666 
L 3309 4134 
L 1259 4134 
L 1259 2759 
L 3109 2759 
L 3109 2228 
L 1259 2228 
L 1259 0 
L 628 0 
L 628 4666 
z
" transform="scale(0.015625)"/>
       <path id="DejaVuSans-74" d="M 1172 4494 
L 1172 3500 
L 2356 3500 
L 2356 3053 
L 1172 3053 
L 1172 1153 
Q 1172 725 1289 603 
Q 1406 481 1766 481 
L 2356 481 
L 2356 0 
L 1766 0 
Q 1100 0 847 248 
Q 594 497 594 1153 
L 594 3053 
L 172 3053 
L 172 3500 
L 594 3500 
L 594 4494 
L 1172 4494 
z
" transform="scale(0.015625)"/>
      </defs>
      <use xlink:href="#DejaVuSans-46"/>
      <use xlink:href="#DejaVuSans-69" x="50.269531"/>
      <use xlink:href="#DejaVuSans-74" x="78.052734"/>
      <use xlink:href="#DejaVuSans-74" x="117.261719"/>
      <use xlink:href="#DejaVuSans-65" x="156.470703"/>
      <use xlink:href="#DejaVuSans-64" x="217.994141"/>
     </g>
    </g>
    <g id="line2d_18">
     <path d="M 81 85.654687 
L 91 85.654687 
L 101 85.654687 
" style="fill: none; stroke: #2ca02c; stroke-width: 1.5; stroke-linecap: square"/>
    </g>
    <g id="text_16">
     <!-- Estimated -->
     <g transform="translate(109 89.154687) scale(0.1 -0.1)">
      <defs>
       <path id="DejaVuSans-45" d="M 628 4666 
L 3578 4666 
L 3578 4134 
L 1259 4134 
L 1259 2753 
L 3481 2753 
L 3481 2222 
L 1259 2222 
L 1259 531 
L 3634 531 
L 3634 0 
L 628 0 
L 628 4666 
z
" transform="scale(0.015625)"/>
      </defs>
      <use xlink:href="#DejaVuSans-45"/>
      <use xlink:href="#DejaVuSans-73" x="63.183594"/>
      <use xlink:href="#DejaVuSans-74" x="115.283203"/>
      <use xlink:href="#DejaVuSans-69" x="154.492188"/>
      <use xlink:href="#DejaVuSans-6d" x="182.275391"/>
      <use xlink:href="#DejaVuSans-61" x="279.6875"/>
      <use xlink:href="#DejaVuSans-74" x="340.966797"/>
      <use xlink:href="#DejaVuSans-65" x="380.175781"/>
      <use xlink:href="#DejaVuSans-64" x="441.699219"/>
     </g>
    </g>
   </g>
  </g>
 </g>
 <defs>
  <clipPath id="p545d6104e3">
   <rect x="72" y="43.2" width="446.4" height="277.2"/>
  </clipPath>
 </defs>
</svg>
