<?xml version="1.0" encoding="utf-8" standalone="no"?>
<!DOCTYPE svg PUBLIC "-//W3C//DTD SVG 1.1//EN"
  "http://www.w3.org/Graphics/SVG/1.1/DTD/svg11.dtd">
<svg xmlns:xlink="http://www.w3.org/1999/xlink" width="576pt" height="360pt" viewBox="0 0 576 360" xmlns="http://www.w3.org/2000/svg" version="1.1">
 <metadata>
  <rdf:RDF xmlns:dc="http://purl.org/dc/elements/1.1/" xmlns:cc="http://creativecommons.org/ns#" xmlns:rdf="http://www.w3.org/1999/02/22-rdf-syntax-ns#">
   <cc:Work>
    <dc:type rdf:resource="http://purl.org/dc/dcmitype/StillImage"/>
    <dc:date>2023-11-26T17:23:21.429023</dc:date>
    <dc:format>image/svg+xml</dc:format>
    <dc:creator>
     <cc:Agent>
      <dc:title>Matplotlib v3.8.1, https://matplotlib.org/</dc:title>
     </cc:Agent>
    </dc:creator>
   </cc:Work>
  </rdf:RDF>
 </metadata>
 <defs>
  <style type="text/css">*{stroke-linejoin: round; stroke-linecap: butt}</style>
 </defs>
 <g id="figure_1">
  <g id="patch_1">
   <path d="M 0 360 
L 576 360 
L 576 0 
L 0 0 
z
" style="fill: #ffffff"/>
  </g>
  <g id="axes_1">
   <g id="patch_2">
    <path d="M 72 320.4 
L 518.4 320.4 
L 518.4 43.2 
L 72 43.2 
z
" style="fill: #ffffff"/>
   </g>
   <g id="matplotlib.axis_1">
    <g id="xtick_1">
     <g id="line2d_1">
      <defs>
       <path id="m83f1529447" d="M 0 0 
L 0 3.5 
" style="stroke: #000000; stroke-width: 0.8"/>
      </defs>
      <g>
       <use xlink:href="#m83f1529447" x="129.874161" y="320.4" style="stroke: #000000; stroke-width: 0.8"/>
      </g>
     </g>
     <g id="text_1">
      <!-- 2020-05-15 -->
      <g transform="translate(100.816349 334.998438) scale(0.1 -0.1)">
       <defs>
        <path id="DejaVuSans-32" d="M 1228 531 
L 3431 531 
L 3431 0 
L 469 0 
L 469 531 
Q 828 903 1448 1529 
Q 2069 2156 2228 2338 
Q 2531 2678 2651 2914 
Q 2772 3150 2772 3378 
Q 2772 3750 2511 3984 
Q 2250 4219 1831 4219 
Q 1534 4219 1204 4116 
Q 875 4013 500 3803 
L 500 4441 
Q 881 4594 1212 4672 
Q 1544 4750 1819 4750 
Q 2544 4750 2975 4387 
Q 3406 4025 3406 3419 
Q 3406 3131 3298 2873 
Q 3191 2616 2906 2266 
Q 2828 2175 2409 1742 
Q 1991 1309 1228 531 
z
" transform="scale(0.015625)"/>
        <path id="DejaVuSans-30" d="M 2034 4250 
Q 1547 4250 1301 3770 
Q 1056 3291 1056 2328 
Q 1056 1369 1301 889 
Q 1547 409 2034 409 
Q 2525 409 2770 889 
Q 3016 1369 3016 2328 
Q 3016 3291 2770 3770 
Q 2525 4250 2034 4250 
z
M 2034 4750 
Q 2819 4750 3233 4129 
Q 3647 3509 3647 2328 
Q 3647 1150 3233 529 
Q 2819 -91 2034 -91 
Q 1250 -91 836 529 
Q 422 1150 422 2328 
Q 422 3509 836 4129 
Q 1250 4750 2034 4750 
z
" transform="scale(0.015625)"/>
        <path id="DejaVuSans-2d" d="M 313 2009 
L 1997 2009 
L 1997 1497 
L 313 1497 
L 313 2009 
z
" transform="scale(0.015625)"/>
        <path id="DejaVuSans-35" d="M 691 4666 
L 3169 4666 
L 3169 4134 
L 1269 4134 
L 1269 2991 
Q 1406 3038 1543 3061 
Q 1681 3084 1819 3084 
Q 2600 3084 3056 2656 
Q 3513 2228 3513 1497 
Q 3513 744 3044 326 
Q 2575 -91 1722 -91 
Q 1428 -91 1123 -41 
Q 819 9 494 109 
L 494 744 
Q 775 591 1075 516 
Q 1375 441 1709 441 
Q 2250 441 2565 725 
Q 2881 1009 2881 1497 
Q 2881 1984 2565 2268 
Q 2250 2553 1709 2553 
Q 1456 2553 1204 2497 
Q 953 2441 691 2322 
L 691 4666 
z
" transform="scale(0.015625)"/>
        <path id="DejaVuSans-31" d="M 794 531 
L 1825 531 
L 1825 4091 
L 703 3866 
L 703 4441 
L 1819 4666 
L 2450 4666 
L 2450 531 
L 3481 531 
L 3481 0 
L 794 0 
L 794 531 
z
" transform="scale(0.015625)"/>
       </defs>
       <use xlink:href="#DejaVuSans-32"/>
       <use xlink:href="#DejaVuSans-30" x="63.623047"/>
       <use xlink:href="#DejaVuSans-32" x="127.246094"/>
       <use xlink:href="#DejaVuSans-30" x="190.869141"/>
       <use xlink:href="#DejaVuSans-2d" x="254.492188"/>
       <use xlink:href="#DejaVuSans-30" x="290.576172"/>
       <use xlink:href="#DejaVuSans-35" x="354.199219"/>
       <use xlink:href="#DejaVuSans-2d" x="417.822266"/>
       <use xlink:href="#DejaVuSans-31" x="453.90625"/>
       <use xlink:href="#DejaVuSans-35" x="517.529297"/>
      </g>
     </g>
    </g>
    <g id="xtick_2">
     <g id="line2d_2">
      <g>
       <use xlink:href="#m83f1529447" x="212.435902" y="320.4" style="stroke: #000000; stroke-width: 0.8"/>
      </g>
     </g>
     <g id="text_2">
      <!-- 2020-06-01 -->
      <g transform="translate(183.37809 334.998438) scale(0.1 -0.1)">
       <defs>
        <path id="DejaVuSans-36" d="M 2113 2584 
Q 1688 2584 1439 2293 
Q 1191 2003 1191 1497 
Q 1191 994 1439 701 
Q 1688 409 2113 409 
Q 2538 409 2786 701 
Q 3034 994 3034 1497 
Q 3034 2003 2786 2293 
Q 2538 2584 2113 2584 
z
M 3366 4563 
L 3366 3988 
Q 3128 4100 2886 4159 
Q 2644 4219 2406 4219 
Q 1781 4219 1451 3797 
Q 1122 3375 1075 2522 
Q 1259 2794 1537 2939 
Q 1816 3084 2150 3084 
Q 2853 3084 3261 2657 
Q 3669 2231 3669 1497 
Q 3669 778 3244 343 
Q 2819 -91 2113 -91 
Q 1303 -91 875 529 
Q 447 1150 447 2328 
Q 447 3434 972 4092 
Q 1497 4750 2381 4750 
Q 2619 4750 2861 4703 
Q 3103 4656 3366 4563 
z
" transform="scale(0.015625)"/>
       </defs>
       <use xlink:href="#DejaVuSans-32"/>
       <use xlink:href="#DejaVuSans-30" x="63.623047"/>
       <use xlink:href="#DejaVuSans-32" x="127.246094"/>
       <use xlink:href="#DejaVuSans-30" x="190.869141"/>
       <use xlink:href="#DejaVuSans-2d" x="254.492188"/>
       <use xlink:href="#DejaVuSans-30" x="290.576172"/>
       <use xlink:href="#DejaVuSans-36" x="354.199219"/>
       <use xlink:href="#DejaVuSans-2d" x="417.822266"/>
       <use xlink:href="#DejaVuSans-30" x="453.90625"/>
       <use xlink:href="#DejaVuSans-31" x="517.529297"/>
      </g>
     </g>
    </g>
    <g id="xtick_3">
     <g id="line2d_3">
      <g>
       <use xlink:href="#m83f1529447" x="280.427924" y="320.4" style="stroke: #000000; stroke-width: 0.8"/>
      </g>
     </g>
     <g id="text_3">
      <!-- 2020-06-15 -->
      <g transform="translate(251.370111 334.998438) scale(0.1 -0.1)">
       <use xlink:href="#DejaVuSans-32"/>
       <use xlink:href="#DejaVuSans-30" x="63.623047"/>
       <use xlink:href="#DejaVuSans-32" x="127.246094"/>
       <use xlink:href="#DejaVuSans-30" x="190.869141"/>
       <use xlink:href="#DejaVuSans-2d" x="254.492188"/>
       <use xlink:href="#DejaVuSans-30" x="290.576172"/>
       <use xlink:href="#DejaVuSans-36" x="354.199219"/>
       <use xlink:href="#DejaVuSans-2d" x="417.822266"/>
       <use xlink:href="#DejaVuSans-31" x="453.90625"/>
       <use xlink:href="#DejaVuSans-35" x="517.529297"/>
      </g>
     </g>
    </g>
    <g id="xtick_4">
     <g id="line2d_4">
      <g>
       <use xlink:href="#m83f1529447" x="358.133092" y="320.4" style="stroke: #000000; stroke-width: 0.8"/>
      </g>
     </g>
     <g id="text_4">
      <!-- 2020-07-01 -->
      <g transform="translate(329.075279 334.998438) scale(0.1 -0.1)">
       <defs>
        <path id="DejaVuSans-37" d="M 525 4666 
L 3525 4666 
L 3525 4397 
L 1831 0 
L 1172 0 
L 2766 4134 
L 525 4134 
L 525 4666 
z
" transform="scale(0.015625)"/>
       </defs>
       <use xlink:href="#DejaVuSans-32"/>
       <use xlink:href="#DejaVuSans-30" x="63.623047"/>
       <use xlink:href="#DejaVuSans-32" x="127.246094"/>
       <use xlink:href="#DejaVuSans-30" x="190.869141"/>
       <use xlink:href="#DejaVuSans-2d" x="254.492188"/>
       <use xlink:href="#DejaVuSans-30" x="290.576172"/>
       <use xlink:href="#DejaVuSans-37" x="354.199219"/>
       <use xlink:href="#DejaVuSans-2d" x="417.822266"/>
       <use xlink:href="#DejaVuSans-30" x="453.90625"/>
       <use xlink:href="#DejaVuSans-31" x="517.529297"/>
      </g>
     </g>
    </g>
    <g id="xtick_5">
     <g id="line2d_5">
      <g>
       <use xlink:href="#m83f1529447" x="426.125113" y="320.4" style="stroke: #000000; stroke-width: 0.8"/>
      </g>
     </g>
     <g id="text_5">
      <!-- 2020-07-15 -->
      <g transform="translate(397.067301 334.998438) scale(0.1 -0.1)">
       <use xlink:href="#DejaVuSans-32"/>
       <use xlink:href="#DejaVuSans-30" x="63.623047"/>
       <use xlink:href="#DejaVuSans-32" x="127.246094"/>
       <use xlink:href="#DejaVuSans-30" x="190.869141"/>
       <use xlink:href="#DejaVuSans-2d" x="254.492188"/>
       <use xlink:href="#DejaVuSans-30" x="290.576172"/>
       <use xlink:href="#DejaVuSans-37" x="354.199219"/>
       <use xlink:href="#DejaVuSans-2d" x="417.822266"/>
       <use xlink:href="#DejaVuSans-31" x="453.90625"/>
       <use xlink:href="#DejaVuSans-35" x="517.529297"/>
      </g>
     </g>
    </g>
    <g id="xtick_6">
     <g id="line2d_6">
      <g>
       <use xlink:href="#m83f1529447" x="508.686854" y="320.4" style="stroke: #000000; stroke-width: 0.8"/>
      </g>
     </g>
     <g id="text_6">
      <!-- 2020-08-01 -->
      <g transform="translate(479.629042 334.998438) scale(0.1 -0.1)">
       <defs>
        <path id="DejaVuSans-38" d="M 2034 2216 
Q 1584 2216 1326 1975 
Q 1069 1734 1069 1313 
Q 1069 891 1326 650 
Q 1584 409 2034 409 
Q 2484 409 2743 651 
Q 3003 894 3003 1313 
Q 3003 1734 2745 1975 
Q 2488 2216 2034 2216 
z
M 1403 2484 
Q 997 2584 770 2862 
Q 544 3141 544 3541 
Q 544 4100 942 4425 
Q 1341 4750 2034 4750 
Q 2731 4750 3128 4425 
Q 3525 4100 3525 3541 
Q 3525 3141 3298 2862 
Q 3072 2584 2669 2484 
Q 3125 2378 3379 2068 
Q 3634 1759 3634 1313 
Q 3634 634 3220 271 
Q 2806 -91 2034 -91 
Q 1263 -91 848 271 
Q 434 634 434 1313 
Q 434 1759 690 2068 
Q 947 2378 1403 2484 
z
M 1172 3481 
Q 1172 3119 1398 2916 
Q 1625 2713 2034 2713 
Q 2441 2713 2670 2916 
Q 2900 3119 2900 3481 
Q 2900 3844 2670 4047 
Q 2441 4250 2034 4250 
Q 1625 4250 1398 4047 
Q 1172 3844 1172 3481 
z
" transform="scale(0.015625)"/>
       </defs>
       <use xlink:href="#DejaVuSans-32"/>
       <use xlink:href="#DejaVuSans-30" x="63.623047"/>
       <use xlink:href="#DejaVuSans-32" x="127.246094"/>
       <use xlink:href="#DejaVuSans-30" x="190.869141"/>
       <use xlink:href="#DejaVuSans-2d" x="254.492188"/>
       <use xlink:href="#DejaVuSans-30" x="290.576172"/>
       <use xlink:href="#DejaVuSans-38" x="354.199219"/>
       <use xlink:href="#DejaVuSans-2d" x="417.822266"/>
       <use xlink:href="#DejaVuSans-30" x="453.90625"/>
       <use xlink:href="#DejaVuSans-31" x="517.529297"/>
      </g>
     </g>
    </g>
   </g>
   <g id="matplotlib.axis_2">
    <g id="ytick_1">
     <g id="line2d_7">
      <defs>
       <path id="m15f20b0b78" d="M 0 0 
L -3.5 0 
" style="stroke: #000000; stroke-width: 0.8"/>
      </defs>
      <g>
       <use xlink:href="#m15f20b0b78" x="72" y="316.02311" style="stroke: #000000; stroke-width: 0.8"/>
      </g>
     </g>
     <g id="text_7">
      <!-- −2 -->
      <g transform="translate(50.257812 319.822329) scale(0.1 -0.1)">
       <defs>
        <path id="DejaVuSans-2212" d="M 678 2272 
L 4684 2272 
L 4684 1741 
L 678 1741 
L 678 2272 
z
" transform="scale(0.015625)"/>
       </defs>
       <use xlink:href="#DejaVuSans-2212"/>
       <use xlink:href="#DejaVuSans-32" x="83.789062"/>
      </g>
     </g>
    </g>
    <g id="ytick_2">
     <g id="line2d_8">
      <g>
       <use xlink:href="#m15f20b0b78" x="72" y="262.270962" style="stroke: #000000; stroke-width: 0.8"/>
      </g>
     </g>
     <g id="text_8">
      <!-- −1 -->
      <g transform="translate(50.257812 266.070181) scale(0.1 -0.1)">
       <use xlink:href="#DejaVuSans-2212"/>
       <use xlink:href="#DejaVuSans-31" x="83.789062"/>
      </g>
     </g>
    </g>
    <g id="ytick_3">
     <g id="line2d_9">
      <g>
       <use xlink:href="#m15f20b0b78" x="72" y="208.518814" style="stroke: #000000; stroke-width: 0.8"/>
      </g>
     </g>
     <g id="text_9">
      <!-- 0 -->
      <g transform="translate(58.6375 212.318032) scale(0.1 -0.1)">
       <use xlink:href="#DejaVuSans-30"/>
      </g>
     </g>
    </g>
    <g id="ytick_4">
     <g id="line2d_10">
      <g>
       <use xlink:href="#m15f20b0b78" x="72" y="154.766666" style="stroke: #000000; stroke-width: 0.8"/>
      </g>
     </g>
     <g id="text_10">
      <!-- 1 -->
      <g transform="translate(58.6375 158.565884) scale(0.1 -0.1)">
       <use xlink:href="#DejaVuSans-31"/>
      </g>
     </g>
    </g>
    <g id="ytick_5">
     <g id="line2d_11">
      <g>
       <use xlink:href="#m15f20b0b78" x="72" y="101.014518" style="stroke: #000000; stroke-width: 0.8"/>
      </g>
     </g>
     <g id="text_11">
      <!-- 2 -->
      <g transform="translate(58.6375 104.813736) scale(0.1 -0.1)">
       <use xlink:href="#DejaVuSans-32"/>
      </g>
     </g>
    </g>
    <g id="ytick_6">
     <g id="line2d_12">
      <g>
       <use xlink:href="#m15f20b0b78" x="72" y="47.262369" style="stroke: #000000; stroke-width: 0.8"/>
      </g>
     </g>
     <g id="text_12">
      <!-- 3 -->
      <g transform="translate(58.6375 51.061588) scale(0.1 -0.1)">
       <defs>
        <path id="DejaVuSans-33" d="M 2597 2516 
Q 3050 2419 3304 2112 
Q 3559 1806 3559 1356 
Q 3559 666 3084 287 
Q 2609 -91 1734 -91 
Q 1441 -91 1130 -33 
Q 819 25 488 141 
L 488 750 
Q 750 597 1062 519 
Q 1375 441 1716 441 
Q 2309 441 2620 675 
Q 2931 909 2931 1356 
Q 2931 1769 2642 2001 
Q 2353 2234 1838 2234 
L 1294 2234 
L 1294 2753 
L 1863 2753 
Q 2328 2753 2575 2939 
Q 2822 3125 2822 3475 
Q 2822 3834 2567 4026 
Q 2313 4219 1838 4219 
Q 1578 4219 1281 4162 
Q 984 4106 628 3988 
L 628 4550 
Q 988 4650 1302 4700 
Q 1616 4750 1894 4750 
Q 2613 4750 3031 4423 
Q 3450 4097 3450 3541 
Q 3450 3153 3228 2886 
Q 3006 2619 2597 2516 
z
" transform="scale(0.015625)"/>
       </defs>
       <use xlink:href="#DejaVuSans-33"/>
      </g>
     </g>
    </g>
   </g>
   <g id="line2d_13">
    <path d="M 72 287.021497 
L 72.404714 298.412757 
L 72.607072 296.682973 
L 72.809429 285.96675 
L 73.214143 254.915018 
L 73.618858 242.426821 
L 75.035358 159.101858 
L 75.237715 156.127474 
L 75.440073 161.211351 
L 75.64243 169.459468 
L 75.844787 172.771371 
L 76.047144 188.086288 
L 76.654216 258.669915 
L 77.05893 282.844701 
L 77.261287 287.232446 
L 77.463645 286.852737 
L 77.666002 276.094324 
L 78.070716 247.468508 
L 78.475431 234.938122 
L 78.677788 225.761828 
L 79.487217 168.510196 
L 79.891931 152.161627 
L 80.094288 154.123456 
L 80.903717 196.735208 
L 81.713146 272.423807 
L 82.11786 287.148066 
L 82.320218 289.194274 
L 82.522575 288.898945 
L 82.724932 286.367554 
L 82.927289 279.511703 
L 83.332004 256.412757 
L 83.736718 242.026017 
L 83.939075 238.967253 
L 84.141432 239.241487 
L 84.546147 245.675439 
L 84.748504 247.784932 
L 84.950861 247.806027 
L 85.355576 252.025013 
L 85.557933 248.670919 
L 85.76029 254.830638 
L 86.569719 300.015972 
L 86.772076 306.133501 
L 86.974433 307.736715 
L 87.176791 307.8 
L 87.379148 306.449925 
L 87.581505 302.695028 
L 87.783862 295.902461 
L 88.188577 273.731693 
L 88.390934 268.521246 
L 89.200363 260.399699 
L 89.40272 256.243998 
L 89.807434 241.372074 
L 90.212149 238.903968 
L 90.414506 236.182722 
L 90.616863 244.1777 
L 91.223935 295.037569 
L 91.628649 306.133501 
L 91.831006 306.196786 
L 92.033364 303.686489 
L 92.842792 257.277649 
L 93.04515 255.125967 
L 93.449864 246.477047 
L 93.652221 245.949674 
L 93.854578 242.996384 
L 94.056936 242.363536 
L 94.259293 239.72667 
L 94.46165 233.292717 
L 94.664007 230.423807 
L 94.866364 231.351984 
L 95.068722 234.516223 
L 95.271079 230.655851 
L 95.473436 240.823606 
L 96.080508 295.417278 
L 96.485222 304.677951 
L 96.687579 306.597589 
L 96.889937 302.230939 
L 97.699365 256.539327 
L 98.306437 245.970768 
L 98.508794 245.59106 
L 99.52058 224.242993 
L 99.722937 225.508689 
L 99.925295 229.896434 
L 100.127652 228.061175 
L 100.330009 238.27112 
L 100.937081 292.928076 
L 101.341795 305.268609 
L 101.544152 306.26007 
L 101.74651 302.526268 
L 101.948867 290.50216 
L 102.353581 260.294224 
L 102.555938 258.733199 
L 103.567724 240.844701 
L 104.377153 218.610648 
L 104.57951 219.897438 
L 104.781868 225.318835 
L 104.984225 225.29774 
L 105.186582 234.241989 
L 105.793654 289.763837 
L 106.198368 302.589553 
L 106.400725 304.361527 
L 106.603083 300.311301 
L 107.412511 254.11341 
L 107.614869 252.383626 
L 107.817226 248.692014 
L 108.22194 234.07323 
L 108.626655 212.23998 
L 108.829012 206.270116 
L 109.031369 204.371572 
L 109.638441 213.104872 
L 109.840798 218.568458 
L 110.043155 229.031542 
L 110.650227 284.405726 
L 111.054941 298.750276 
L 111.257298 300.669915 
L 111.459655 298.919036 
L 111.662013 287.443395 
L 112.066727 258.015972 
L 112.471442 242.933099 
L 113.887942 174.121447 
L 114.090299 171.73772 
L 114.292656 178.593571 
L 114.495014 190.090306 
L 114.697371 194.710095 
L 115.102085 228.926067 
L 115.709157 278.583526 
L 116.113871 292.611652 
L 116.316228 292.780412 
L 116.518586 291.113913 
L 116.720943 287.46449 
L 117.125657 260.06218 
L 118.542158 154.777398 
L 118.744515 144.609643 
L 118.946872 140.707082 
L 119.149229 144.398694 
L 119.756301 182.496133 
L 120.56573 262.319337 
L 120.970444 282.254043 
L 121.172801 286.367554 
L 121.375159 288.012958 
L 121.577516 286.557408 
L 121.779873 278.583526 
L 122.589302 227.280663 
L 123.196374 201.671421 
L 123.398731 197.072727 
L 123.601088 197.283677 
L 123.803445 196.714114 
L 124.410517 210.193772 
L 124.612874 221.226419 
L 125.219946 277.845203 
L 125.62466 292.463988 
L 125.827017 294.468006 
L 126.029374 291.91552 
L 127.04116 235.191261 
L 127.648232 197.557911 
L 128.255304 154.925063 
L 128.457661 147.330889 
L 128.660018 146.99337 
L 129.26709 191.588046 
L 130.278876 282.971271 
L 130.481233 290.839679 
L 130.68359 292.231944 
L 130.885947 289.637268 
L 132.504805 180.070216 
L 133.111877 137.142039 
L 133.314234 127.670417 
L 133.516591 129.379106 
L 133.921306 144.841688 
L 134.123663 152.309292 
L 135.135449 262.84671 
L 135.540163 275.545856 
L 135.74252 274.596585 
L 135.944878 263.943646 
L 136.349592 232.343446 
L 136.551949 225.529784 
L 136.754306 213.590055 
L 136.956664 218.188749 
L 137.159021 206.818584 
L 137.766092 197.937619 
L 137.96845 198.338423 
L 138.373164 192.895932 
L 138.777879 200.490105 
L 138.980236 201.333903 
L 139.182593 213.210347 
L 139.789665 270.187745 
L 140.194379 285.650326 
L 140.396736 287.738724 
L 140.599093 284.701055 
L 141.003808 254.303265 
L 141.408522 232.997388 
L 142.015594 219.51773 
L 142.622665 210.320342 
L 142.825023 210.046107 
L 143.02738 208.822602 
L 143.229737 209.518734 
L 143.634451 214.834656 
L 143.836809 213.590055 
L 144.039166 223.84219 
L 144.646238 273.499648 
L 145.050952 285.671421 
L 145.253309 286.979307 
L 145.455666 283.815068 
L 145.860381 253.965746 
L 146.062738 237.406228 
L 146.66981 220.825615 
L 146.872167 218.125465 
L 147.074524 217.028528 
L 147.479238 205.848217 
L 147.681596 214.370568 
L 147.883953 215.362029 
L 148.08631 217.998895 
L 148.491024 227.386138 
L 148.693382 226.014967 
L 149.098096 249.83114 
L 149.502811 278.203817 
L 149.907525 291.430337 
L 150.109882 293.518734 
L 150.312239 292.928076 
L 150.514597 290.059166 
L 150.716954 284.258061 
L 151.121668 263.036565 
L 151.526383 242.194776 
L 151.931097 236.288197 
L 152.133454 235.845203 
L 152.335811 237.849221 
L 152.538169 238.376595 
L 152.740526 236.288197 
L 152.942883 236.583526 
L 153.14524 235.592064 
L 153.347597 235.634254 
L 153.549955 232.659869 
L 153.752312 234.895932 
L 154.764098 287.253541 
L 154.966455 291.282672 
L 155.168812 292.696032 
L 155.573527 288.687996 
L 155.775884 277.423305 
L 156.78767 198.127474 
L 157.799456 154.756303 
L 158.001813 156.802511 
L 158.406528 170.23998 
L 158.608885 184.036062 
L 159.215956 253.881366 
L 159.620671 275.86228 
L 159.823028 279.131994 
L 160.025385 278.203817 
L 160.227743 268.225917 
L 160.632457 235.191261 
L 161.8466 183.993872 
L 162.251315 173.762833 
L 162.453672 173.910497 
L 162.656029 176.821597 
L 163.465458 209.20231 
L 164.072529 270.12446 
L 164.477244 289.067705 
L 164.679601 289.405224 
L 164.881958 286.114415 
L 165.084316 275.777901 
L 165.48903 243.439377 
L 166.500816 207.725665 
L 167.310245 164.038071 
L 167.512602 167.45545 
L 167.917316 188.402712 
L 168.119674 192.938122 
L 168.322031 204.498142 
L 168.929102 264.977298 
L 169.333817 280.439879 
L 169.536174 284.026017 
L 169.738531 280.292215 
L 170.143246 252.510196 
L 170.54796 221.648317 
L 171.357389 176.273129 
L 171.559746 170.134505 
L 172.166818 145.49563 
L 172.369175 147.141035 
L 172.571532 155.199297 
L 173.178604 194.878855 
L 173.785675 267.25555 
L 174.19039 287.000402 
L 174.392747 290.038071 
L 174.595104 288.181718 
L 174.999819 263.542843 
L 175.404533 238.081266 
L 177.023391 158.405726 
L 177.225748 158.933099 
L 177.428105 162.92004 
L 177.630462 179.817077 
L 177.83282 182.306278 
L 178.237534 227.238473 
L 178.642248 270.947162 
L 179.046963 290.50216 
L 179.24932 294.299247 
L 179.451677 291.725665 
L 179.654034 282.865796 
L 180.261106 242.258061 
L 181.879964 143.449422 
L 182.082321 140.116424 
L 182.284678 145.896434 
L 183.094107 203.316826 
L 183.498821 243.080763 
L 183.903536 264.956203 
L 184.30825 272.95118 
L 184.510607 274.343446 
L 184.712965 270.630738 
L 184.915322 256.98232 
L 185.724751 173.340934 
L 186.129465 151.52878 
L 186.331822 145.347966 
L 186.53418 144.567454 
L 186.736537 147.16213 
L 187.748323 188.423807 
L 188.557752 253.923556 
L 188.962466 268.394676 
L 189.164823 270.483074 
L 189.36718 270.567454 
L 189.569538 269.808036 
L 189.771895 258.796484 
L 190.986038 160.810547 
L 191.188395 155.389151 
L 191.390752 155.346961 
L 191.795467 164.692014 
L 192.604896 196.671924 
L 193.414325 261.370065 
L 193.819039 275.377097 
L 194.021396 276.474033 
L 194.426111 272.423807 
L 194.628468 263.268609 
L 195.437897 201.017479 
L 195.640254 195.891411 
L 195.842611 197.136012 
L 196.247325 203.337921 
L 196.449683 203.928579 
L 196.65204 203.527775 
L 197.056754 211.923556 
L 197.259112 212.788448 
L 197.461469 221.395178 
L 198.06854 270.841688 
L 198.473255 285.354997 
L 198.675612 285.460472 
L 198.877969 281.72667 
L 199.282684 250.231944 
L 199.687398 226.879859 
L 201.306256 158.933099 
L 201.508613 157.751783 
L 202.115684 177.39116 
L 202.318042 188.803516 
L 202.925113 254.366549 
L 203.329828 272.423807 
L 203.532185 274.57549 
L 203.734542 271.516725 
L 203.936899 259.724661 
L 204.341614 224.939126 
L 205.758114 168.995379 
L 205.960471 166.442893 
L 206.162829 166.590558 
L 206.365186 168.046107 
L 206.7699 180.175691 
L 206.972257 183.445404 
L 207.174615 194.541336 
L 207.781686 254.978302 
L 208.186401 271.516725 
L 208.388758 274.638774 
L 208.591115 271.221396 
L 208.793472 259.070718 
L 209.198187 224.475038 
L 209.805258 201.671421 
L 210.209973 181.314817 
L 210.817044 138.639779 
L 211.019402 129.948669 
L 211.221759 132.986339 
L 211.626473 158.047112 
L 211.82883 163.384129 
L 212.031188 178.467002 
L 212.638259 245.063687 
L 213.042974 264.091311 
L 213.245331 268.183727 
L 213.447688 266.432848 
L 213.650045 255.463486 
L 214.257117 211.164139 
L 214.661831 184.183727 
L 215.47126 123.409242 
L 215.875975 106.280161 
L 216.078332 105.794977 
L 216.280689 111.469513 
L 217.090118 176.779407 
L 217.697189 240.190758 
L 218.101904 259.091813 
L 218.304261 262.530286 
L 218.506618 263.922551 
L 218.708976 262.635761 
L 218.911333 249.599096 
L 219.518404 193.48659 
L 220.125476 157.435359 
L 220.327833 155.220392 
L 220.53019 157.498644 
L 221.541976 200.827624 
L 221.744334 206.101356 
L 222.553762 264.365545 
L 222.958477 275.503666 
L 223.160834 277.254545 
L 223.363191 277.613159 
L 223.565549 276.009945 
L 223.767906 267.086791 
L 224.374977 227.955701 
L 224.779692 220.192767 
L 225.386763 222.30226 
L 225.589121 225.909493 
L 225.791478 226.816575 
L 226.196192 235.40221 
L 226.398549 235.043596 
L 226.600907 241.625213 
L 227.410335 296.535309 
L 227.612693 300.669915 
L 227.81505 302.399699 
L 228.017407 299.129985 
L 228.826836 255.505676 
L 229.029193 253.121949 
L 229.23155 247.236464 
L 230.648051 182.285183 
L 230.850408 182.875841 
L 231.255122 197.64229 
L 231.45748 208.801507 
L 232.064551 274.027022 
L 232.469266 291.620191 
L 232.671623 294.404721 
L 232.87398 293.160121 
L 233.278694 267.25555 
L 233.683409 244.1777 
L 235.302267 178.024008 
L 235.504624 177.412255 
L 236.111695 196.988348 
L 236.314053 207.599096 
L 236.921124 271.242491 
L 237.325839 287.50668 
L 237.528196 290.713109 
L 237.730553 288.540331 
L 238.135267 264.006931 
L 238.539982 241.688498 
L 239.349411 210.003918 
L 239.754125 199.751783 
L 240.15884 189.288699 
L 240.361197 189.03556 
L 240.563554 194.625716 
L 240.968268 212.661878 
L 241.170626 220.424812 
L 241.777697 277.31783 
L 242.182412 293.560924 
L 242.384769 296.11341 
L 242.587126 293.054646 
L 242.99184 267.740733 
L 243.396555 249.345957 
L 245.21777 172.876846 
L 245.420127 177.222401 
L 246.027199 204.666901 
L 246.836627 279.933601 
L 247.038985 288.498142 
L 247.241342 291.74676 
L 247.443699 289.152084 
L 247.848413 265.019488 
L 249.467271 150.305274 
L 249.669628 142.036062 
L 249.871985 140.053139 
L 250.074343 140.221899 
L 250.2767 147.330889 
L 250.883772 180.21788 
L 251.6932 257.003415 
L 252.097915 271.875339 
L 252.300272 275.018483 
L 252.502629 275.292717 
L 252.704986 271.326871 
L 253.109701 237.785937 
L 253.91913 162.814566 
L 254.323844 146.634756 
L 254.728558 137.606128 
L 254.930916 136.319337 
L 255.133273 143.997891 
L 255.740345 182.369563 
L 256.549773 259.387142 
L 256.954488 275.229432 
L 257.156845 279.131994 
L 257.359202 280.840683 
L 257.561559 279.849221 
L 257.966274 250.274134 
L 258.573345 198.675942 
L 258.97806 176.484078 
L 259.382774 165.198292 
L 259.585131 161.675439 
L 259.787489 161.232446 
L 259.989846 163.911502 
L 260.39456 180.281165 
L 260.596917 193.950678 
L 261.203989 257.425314 
L 261.608704 276.579508 
L 261.811061 279.574987 
L 262.013418 278.77338 
L 262.418132 254.23998 
L 262.62049 241.941637 
L 263.025204 232.048117 
L 263.227561 229.179206 
L 263.429918 228.145555 
L 263.834633 229.45344 
L 264.03699 229.137017 
L 264.239347 230.107383 
L 264.441704 230.191763 
L 264.644062 229.917529 
L 264.846419 232.005927 
L 265.048776 236.140532 
L 265.251133 236.140532 
L 265.45349 240.254043 
L 266.060562 283.730688 
L 266.465277 296.872828 
L 266.667634 298.454947 
L 266.869991 294.172677 
L 267.072348 286.030035 
L 267.477063 258.901959 
L 268.084134 236.203817 
L 268.488849 225.677449 
L 269.09592 214.159618 
L 269.500635 210.109392 
L 269.702992 212.345455 
L 269.905349 216.037067 
L 270.107706 216.733199 
L 270.310063 223.188247 
L 270.917135 273.204319 
L 271.32185 285.460472 
L 271.524207 287.654345 
L 271.726564 285.903466 
L 274.15485 140.960221 
L 274.357208 133.619186 
L 274.559565 137.036565 
L 275.166636 162.793471 
L 275.976065 246.308287 
L 276.38078 259.176193 
L 276.583137 258.458965 
L 276.987851 236.098343 
L 277.392566 206.50216 
L 278.404352 148.195781 
L 278.606709 145.073732 
L 279.011423 131.530789 
L 279.213781 129.885384 
L 279.416138 134.252034 
L 280.023209 176.969262 
L 280.630281 250.020994 
L 281.034995 273.351984 
L 281.237353 278.351482 
L 281.43971 276.769362 
L 281.642067 270.736213 
L 282.249139 227.976796 
L 282.85621 193.52878 
L 283.867996 149.714616 
L 284.070354 148.49111 
L 284.272711 156.844701 
L 285.284497 241.920542 
L 285.689211 274.870819 
L 286.093926 289.974787 
L 286.296283 292.316323 
L 286.49864 290.45997 
L 286.700997 287.443395 
L 287.105712 255.674435 
L 287.712783 202.873832 
L 288.522212 158.384631 
L 288.724569 151.085786 
L 288.926927 149.102863 
L 289.129284 152.77338 
L 289.736355 187.411251 
L 290.545784 259.197288 
L 290.950499 274.849724 
L 291.152856 277.697539 
L 291.355213 277.781919 
L 291.55757 276.263084 
L 291.759927 263.479558 
L 292.771714 162.392667 
L 293.176428 139.863285 
L 293.581142 128.345455 
L 293.7835 126.573481 
L 293.985857 130.180713 
L 294.592928 156.338423 
L 295.402357 241.667403 
L 295.807072 256.729181 
L 296.009429 256.560422 
L 296.414143 235.760824 
L 297.830644 97.293722 
L 298.235358 83.645304 
L 298.437715 80.987343 
L 298.640073 81.261577 
L 298.84243 83.37107 
L 299.044787 91.619186 
L 299.449501 119.295731 
L 300.056573 200.363536 
L 300.461287 226.268106 
L 300.663645 232.44892 
L 300.866002 233.187243 
L 301.068359 226.183727 
L 301.473073 195.342943 
L 302.484859 87.273631 
L 302.687217 75.650326 
L 302.889574 75.755801 
L 303.091931 84.067202 
L 303.496646 92.948167 
L 303.90136 115.793973 
L 304.306074 144.483074 
L 304.913146 215.551883 
L 305.31786 241.583024 
L 305.520218 247.299749 
L 305.722575 245.46449 
L 305.924932 238.14455 
L 306.532004 197.114917 
L 307.54379 125.223405 
L 307.746147 114.739227 
L 307.948504 113.832145 
L 308.757933 146.972275 
L 309.162647 173.741738 
L 309.769719 238.439879 
L 310.174433 258.859769 
L 310.376791 263.374083 
L 310.579148 262.783425 
L 310.983862 238.735208 
L 312.198005 131.889402 
L 312.60272 119.949674 
L 312.805077 115.456454 
L 313.007434 116.026017 
L 313.209791 119.823104 
L 313.816863 148.153591 
L 314.01922 162.202813 
L 314.626292 226.479056 
L 315.031006 247.531793 
L 315.233364 252.235962 
L 315.435721 251.560924 
L 315.840435 232.280161 
L 316.24515 213.062682 
L 316.649864 200.72215 
L 317.054578 185.006429 
L 317.66165 177.285686 
L 317.864007 176.821597 
L 318.066364 175.89342 
L 318.268722 180.703064 
L 318.875793 203.443395 
L 319.685222 263.627223 
L 320.089937 276.748267 
L 320.292294 278.435861 
L 320.697008 270.293219 
L 321.101723 243.354997 
L 322.315866 163.320844 
L 322.72058 152.794475 
L 322.922937 150.410748 
L 323.125295 154.650829 
L 323.732366 183.023506 
L 324.541795 253.417278 
L 324.94651 268.099347 
L 325.148867 271.073732 
L 325.351224 271.137017 
L 325.553581 268.816575 
L 325.755938 256.159618 
L 326.970082 140.707082 
L 327.172439 134.209844 
L 327.374796 132.585535 
L 327.77951 126.86881 
L 327.981868 131.994877 
L 328.184225 141.023506 
L 328.791296 194.077248 
L 329.196011 238.988348 
L 329.398368 254.640784 
L 329.803083 265.019488 
L 330.00544 264.049121 
L 330.207797 258.290206 
L 330.814869 208.463988 
L 331.42194 169.206328 
L 331.826655 145.917529 
L 332.029012 142.943144 
L 332.231369 142.964239 
L 332.433726 143.154093 
L 332.636083 145.305776 
L 332.838441 149.967755 
L 333.243155 173.509694 
L 333.445512 182.770367 
L 334.052584 250.274134 
L 334.457298 272.655851 
L 334.659655 278.224912 
L 334.862013 275.756806 
L 335.266727 255.379106 
L 335.671442 230.360522 
L 336.48087 189.16213 
L 336.683228 183.951683 
L 336.885585 182.812557 
L 337.087942 176.462983 
L 337.290299 174.56444 
L 337.695014 181.209342 
L 338.099728 196.060171 
L 338.302085 202.09332 
L 339.111514 269.702562 
L 339.313871 276.07323 
L 339.516228 278.372577 
L 339.718586 274.195781 
L 340.1233 250.210849 
L 340.932729 204.540331 
L 342.349229 141.107885 
L 342.551587 141.023506 
L 343.158658 166.379608 
L 343.76573 230.845706 
L 344.170444 249.345957 
L 344.372801 254.23998 
L 344.575159 252.046107 
L 344.777516 244.937117 
L 345.18223 213.210347 
L 346.194016 128.32436 
L 346.598731 113.157107 
L 347.003445 106.36454 
L 347.205802 105.499648 
L 347.40816 108.769362 
L 347.610517 116.827624 
L 348.015231 143.639277 
L 348.82466 237.237469 
L 349.229374 254.809543 
L 349.431732 254.029031 
L 349.634089 248.080261 
L 349.836446 236.646811 
L 351.050589 129.379106 
L 351.455304 110.520241 
L 351.860018 101.428327 
L 352.062375 100.500151 
L 352.264733 104.233953 
L 352.46709 115.625213 
L 353.276519 200.975289 
L 353.681233 239.937619 
L 354.085947 260.673933 
L 354.288305 266.095329 
L 354.490662 266.685987 
L 354.693019 264.38664 
L 355.097733 221.205324 
L 355.704805 145.369061 
L 356.109519 119.991863 
L 356.716591 101.301758 
L 356.918948 100.183727 
L 357.121306 105.11994 
L 357.52602 131.446409 
L 357.728377 144.483074 
L 358.740163 242.574485 
L 359.144878 255.906479 
L 359.347235 257.826118 
L 359.549592 257.488599 
L 359.751949 243.101858 
L 360.763735 119.169161 
L 361.16845 99.571974 
L 361.573164 88.159618 
L 361.775521 85.796986 
L 361.977879 89.172175 
L 362.180236 96.365545 
L 362.58495 122.860773 
L 363.394379 214.054144 
L 363.799093 232.195781 
L 364.001451 233.039578 
L 364.203808 226.985334 
L 364.406165 216.64882 
L 365.013237 145.137017 
L 365.620308 78.772376 
L 366.025023 62.149573 
L 366.429737 55.8 
L 366.632094 56.306278 
L 366.834451 59.027524 
L 367.036809 67.992868 
L 367.441523 98.010949 
L 368.048595 179.901457 
L 368.453309 211.290708 
L 368.655666 220.066198 
L 368.858024 222.513209 
L 369.060381 218.505173 
L 369.262738 208.358513 
L 369.86981 143.006429 
L 370.476881 83.160121 
L 370.881596 66.052135 
L 371.083953 65.588046 
L 371.28631 66.326369 
L 371.488667 70.376595 
L 371.691024 76.789453 
L 372.298096 116.912004 
L 373.107525 204.413762 
L 373.512239 227.301758 
L 373.714597 231.794977 
L 374.119311 231.07775 
L 374.321668 217.956705 
L 375.333454 111.047614 
L 375.738169 97.399196 
L 375.940526 94.614666 
L 376.142883 93.47554 
L 376.34524 98.812557 
L 376.749955 125.835158 
L 377.559383 186.504169 
L 377.964098 222.196786 
L 378.368812 236.414766 
L 378.57117 236.646811 
L 378.773527 230.529282 
L 378.975884 218.969262 
L 380.392384 98.791462 
L 380.797099 88.560422 
L 381.201813 80.734204 
L 381.40417 84.615671 
L 382.011242 122.776394 
L 382.820671 208.189754 
L 383.225385 224.791462 
L 383.427743 225.466499 
L 383.6301 219.960723 
L 384.034814 197.030537 
L 385.0466 121.320844 
L 385.451315 104.107383 
L 385.653672 103.6222 
L 385.856029 107.524761 
L 386.058386 115.393169 
L 387.070172 187.558915 
L 387.474887 228.926067 
L 387.879601 251.497639 
L 388.284316 260.927072 
L 388.68903 263.521748 
L 388.891387 257.594073 
L 389.700816 212.682973 
L 390.307888 201.122953 
L 390.914959 187.980814 
L 391.117316 192.917027 
L 391.926745 233.735711 
L 392.533817 279.321848 
L 392.938531 292.084279 
L 393.140888 294.003918 
L 393.343246 293.539829 
L 393.545603 294.025013 
L 393.74796 284.785434 
L 394.355032 242.321346 
L 395.569175 184.057157 
L 395.771532 177.855249 
L 395.973889 179.099849 
L 396.176247 187.685485 
L 396.783318 231.056655 
L 397.188033 270.799498 
L 397.592747 289.194274 
L 397.795104 292.063184 
L 397.997461 289.447413 
L 398.402176 270.736213 
L 400.628105 139.061678 
L 400.830462 141.993872 
L 401.03282 152.267102 
L 401.639891 211.121949 
L 402.044606 256.876846 
L 402.44932 277.845203 
L 402.651677 281.979809 
L 402.854034 280.27112 
L 403.258749 261.496635 
L 403.663463 232.174686 
L 404.877607 122.755299 
L 405.282321 101.575992 
L 405.484678 97.230437 
L 405.687035 98.348468 
L 405.889393 109.191261 
L 406.294107 147.752788 
L 406.901179 227.639277 
L 407.305893 252.468006 
L 407.50825 258.248016 
L 407.710607 257.699548 
L 408.115322 235.781919 
L 409.73418 99.276645 
L 409.936537 94.192767 
L 410.138894 94.045103 
L 410.341251 98.791462 
L 410.948323 136.045103 
L 411.15068 152.456956 
L 411.757752 225.29774 
L 412.162466 250.126469 
L 412.364823 256.813561 
L 412.56718 258.64882 
L 412.971895 240.021999 
L 414.388395 138.808538 
L 414.79311 124.843697 
L 415.197824 117.96675 
L 415.400181 124.949171 
L 416.20961 189.478553 
L 416.614325 236.140532 
L 417.019039 259.93561 
L 417.221396 264.323355 
L 417.423753 263.753792 
L 417.828468 247.0888 
L 419.244968 146.276143 
L 419.649683 132.248016 
L 419.85204 128.303265 
L 420.054397 129.77991 
L 420.256754 138.703064 
L 421.066183 205.974787 
L 421.673255 262.720141 
L 422.077969 279.279658 
L 422.280326 281.832145 
L 422.482684 281.157107 
L 422.685041 280.988348 
L 423.089755 249.324862 
L 423.899184 178.234957 
L 424.708613 137.774887 
L 424.91097 134.505173 
L 425.113327 138.618684 
L 425.518042 165.493621 
L 425.720399 177.623204 
L 426.529828 254.345455 
L 426.934542 273.436364 
L 427.136899 278.035058 
L 427.339257 278.85776 
L 427.541614 279.089804 
L 427.743971 270.25103 
L 428.148685 228.778403 
L 428.755757 165.177197 
L 429.160471 138.829633 
L 429.565186 130.349473 
L 429.9699 134.378604 
L 430.374615 151.043596 
L 430.576972 163.00442 
L 431.386401 241.076745 
L 431.791115 253.649322 
L 431.993472 251.560924 
L 432.398187 230.698041 
L 433.207616 163.827122 
L 434.017044 91.534807 
L 434.219402 86.514214 
L 435.02883 114.675942 
L 435.433545 140.348468 
L 436.040617 213.484581 
L 436.445331 236.625716 
L 436.647688 241.899448 
L 436.850045 241.203315 
L 437.25476 220.045103 
L 437.659474 184.183727 
L 438.468903 108.727172 
L 438.67126 98.728177 
L 438.873617 99.719638 
L 439.075975 107.018483 
L 439.278332 106.554395 
L 439.480689 108.853742 
L 439.885403 127.902461 
L 440.290118 153.321848 
L 440.897189 228.715118 
L 441.301904 251.624209 
L 441.504261 257.19327 
L 441.706618 257.741738 
L 442.111333 242.616675 
L 442.920762 189.204319 
L 443.527833 153.406228 
L 444.134905 130.054144 
L 444.337262 127.396183 
L 444.539619 133.9778 
L 445.146691 180.238975 
L 445.753762 251.265595 
L 446.158477 273.03556 
L 446.360834 278.119437 
L 446.563191 276.07323 
L 446.967906 256.665897 
L 448.586763 143.955701 
L 448.991478 130.412757 
L 449.193835 128.029031 
L 449.396192 134.863787 
L 450.003264 176.315319 
L 450.812693 258.48006 
L 451.217407 272.128478 
L 451.419764 272.255048 
L 451.824479 254.619689 
L 452.43155 202.873832 
L 453.038622 159.861276 
L 453.443336 142.373581 
L 453.848051 134.294224 
L 454.050408 137.753792 
L 454.252765 148.005927 
L 454.65748 177.159116 
L 454.859837 185.829131 
L 455.669266 252.257057 
L 456.07398 266.158614 
L 456.276337 267.719638 
L 456.478694 265.67343 
L 456.681052 262.488096 
L 456.883409 254.28217 
L 457.288123 226.563435 
L 457.692838 215.319839 
L 457.895195 216.037067 
L 458.299909 221.943646 
L 458.502267 221.795982 
L 458.906981 217.872325 
L 459.109338 218.420794 
L 459.514053 222.681969 
L 459.71641 227.090809 
L 460.728196 286.304269 
L 461.13291 290.839679 
L 461.537625 287.443395 
L 461.739982 278.288197 
L 462.144696 242.890909 
L 463.561197 171.927574 
L 463.763554 164.481065 
L 463.965911 165.683476 
L 464.572983 185.660372 
L 465.382412 254.366549 
L 465.584769 261.454445 
L 465.787126 264.238975 
L 465.989483 261.749774 
L 467.608341 166.822602 
L 468.620127 145.094827 
L 468.822484 148.301256 
L 469.429556 175.218383 
L 470.036627 233.398192 
L 470.441342 251.645304 
L 470.643699 254.345455 
L 470.846056 251.708589 
L 471.857842 199.477549 
L 472.869628 168.446911 
L 473.071985 168.953189 
L 473.274343 167.117931 
L 473.4767 168.404721 
L 473.679057 172.286188 
L 473.881414 179.036565 
L 474.083772 180.21788 
L 474.286129 188.086288 
L 474.8932 241.540834 
L 475.297915 258.205826 
L 475.500272 259.914515 
L 475.702629 257.826118 
L 476.107344 232.828629 
L 476.512058 210.257057 
L 477.321487 177.960723 
L 477.726201 157.287695 
L 477.928558 153.638272 
L 478.333273 158.447916 
L 478.53563 163.025515 
L 479.142702 188.592567 
L 479.952131 258.100352 
L 480.356845 268.204822 
L 480.559202 267.782923 
L 480.963917 245.126971 
L 482.785131 113.452436 
L 482.987489 107.398192 
L 483.189846 104.698041 
L 483.392203 110.478051 
L 483.999275 151.36002 
L 484.606346 224.285183 
L 485.011061 248.101356 
L 485.213418 252.615671 
L 485.415775 253.586037 
L 485.82049 233.313812 
L 486.225204 201.312808 
L 487.23699 109.043596 
L 487.439347 105.879357 
L 487.844062 112.608639 
L 488.248776 131.699548 
L 489.260562 211.206328 
L 489.665277 244.1777 
L 490.069991 259.661376 
L 490.272348 262.066198 
L 490.474705 260.905977 
L 490.677063 259.091813 
L 490.87942 249.113913 
L 491.891206 167.37107 
L 492.29592 149.208338 
L 492.498277 141.635259 
L 492.700635 139.567956 
L 492.902992 141.234455 
L 493.105349 146.170668 
L 493.712421 180.534304 
L 494.52185 254.345455 
L 495.128921 273.07775 
L 495.331278 273.225414 
L 495.533636 272.592567 
L 495.735993 264.850728 
L 496.950136 171.041587 
L 497.557208 146.065193 
L 497.759565 142.62672 
L 497.961922 145.917529 
L 498.568994 178.213862 
L 499.378422 253.881366 
L 499.58078 260.884882 
L 499.783137 263.437368 
L 499.985494 260.041085 
L 500.187851 251.307785 
L 500.794923 213.463486 
L 500.99728 208.231944 
L 501.401995 194.81557 
L 501.806709 183.276645 
L 502.009066 182.812557 
L 502.211423 184.922049 
L 502.413781 185.575992 
L 502.616138 183.867303 
L 503.020852 193.824108 
L 503.223209 194.393672 
L 503.425567 202.09332 
L 504.032638 254.050126 
L 504.437353 267.445404 
L 504.63971 269.111904 
L 504.842067 266.685987 
L 505.246782 241.709593 
L 505.651496 217.302762 
L 507.270354 142.331391 
L 507.472711 139.146057 
L 507.675068 142.62672 
L 508.28214 171.358011 
L 508.889211 230.824611 
L 509.293926 248.37559 
L 509.496283 251.982823 
L 509.69864 250.105374 
L 510.103354 225.972777 
L 511.722212 116.954194 
L 512.126927 98.749272 
L 512.329284 100.373581 
L 512.936355 135.602109 
L 513.34107 175.513712 
L 513.745784 220.066198 
L 514.150499 243.354997 
L 514.352856 249.071723 
L 514.555213 249.578001 
L 514.75757 240.464992 
L 516.174071 141.29774 
L 516.376428 140.179709 
L 516.781142 149.735711 
L 516.9835 146.930085 
L 517.185857 147.478553 
L 517.590571 165.620191 
L 517.792928 169.965746 
L 517.995286 180.935108 
L 518.4 221.585033 
L 518.4 221.585033 
" clip-path="url(#pf05aedf6eb)" style="fill: none; stroke: #1f77b4; stroke-width: 1.5; stroke-linecap: square"/>
   </g>
   <g id="line2d_14">
    <path d="M 72 264.53024 
L 72.202357 264.53024 
L 72.809429 270.559861 
L 73.011786 266.277783 
L 74.428286 202.836309 
L 75.035358 174.504821 
L 75.237715 167.637065 
L 75.440073 168.06197 
L 76.047144 195.348936 
L 76.451859 225.53181 
L 77.05893 261.63835 
L 77.261287 265.523756 
L 77.463645 264.777516 
L 77.666002 260.721003 
L 78.070716 244.982261 
L 78.475431 228.61777 
L 78.677788 224.859143 
L 78.880145 217.264146 
L 79.487217 182.779029 
L 79.689574 177.498171 
L 79.891931 168.915899 
L 80.094288 166.253407 
L 80.296646 172.298835 
L 81.915503 268.165815 
L 82.320218 271.31861 
L 82.522575 269.285852 
L 82.724932 266.002525 
L 83.129646 252.366648 
L 83.534361 238.009649 
L 84.141432 227.763903 
L 84.546147 232.818397 
L 84.950861 234.876933 
L 85.355576 242.3872 
L 86.974433 288.77818 
L 87.176791 287.548243 
L 87.581505 280.133612 
L 88.593291 251.443816 
L 88.795648 250.778403 
L 89.200363 253.270488 
L 89.807434 245.429234 
L 90.212149 238.005446 
L 90.414506 236.457816 
L 90.81922 245.795357 
L 91.628649 285.470093 
L 91.831006 285.453055 
L 92.033364 281.950825 
L 92.438078 268.574322 
L 92.842792 249.231913 
L 93.04515 244.999081 
L 93.247507 244.459446 
L 93.652221 239.165307 
L 93.854578 240.007126 
L 94.46165 233.521654 
L 94.866364 228.579064 
L 95.068722 230.444355 
L 95.675793 242.566601 
L 96.282865 282.057297 
L 96.485222 283.733444 
L 96.687579 281.957816 
L 97.092294 268.3871 
L 97.901723 241.614313 
L 98.10408 242.505052 
L 98.306437 242.417839 
L 98.508794 240.244066 
L 98.913509 238.340315 
L 99.52058 224.986809 
L 99.722937 225.358166 
L 99.925295 227.930599 
L 100.734723 258.648248 
L 101.139438 280.802049 
L 101.341795 283.093572 
L 101.544152 283.084095 
L 101.74651 279.702235 
L 102.758296 242.95931 
L 102.960653 244.125967 
L 103.16301 244.328004 
L 103.770082 237.754595 
L 104.377153 221.050773 
L 104.57951 221.119337 
L 104.984225 232.344136 
L 105.388939 245.130495 
L 105.996011 279.244638 
L 106.198368 281.99452 
L 106.400725 281.541517 
L 106.603083 279.536473 
L 107.614869 241.393389 
L 108.019583 242.7709 
L 108.424297 232.028782 
L 108.829012 215.445471 
L 109.233726 203.150001 
L 109.436083 208.575457 
L 111.054941 279.985362 
L 111.257298 279.638388 
L 111.459655 277.124741 
L 111.86437 262.503147 
L 112.471442 240.128739 
L 112.673799 235.733852 
L 113.685585 197.148721 
L 114.090299 184.133884 
L 114.292656 184.45588 
L 114.697371 204.764561 
L 115.709157 266.439745 
L 116.113871 272.372385 
L 116.316228 272.526491 
L 116.518586 269.988418 
L 116.9233 258.990287 
L 117.732729 222.496307 
L 118.137443 190.129576 
L 118.946872 160.981727 
L 119.149229 163.332258 
L 119.351587 168.147943 
L 119.756301 191.821019 
L 120.363373 243.577377 
L 120.768087 263.247023 
L 120.970444 267.75584 
L 121.172801 269.701318 
L 121.375159 269.225395 
L 121.577516 266.851834 
L 121.779873 262.118528 
L 121.98223 254.462942 
L 122.589302 224.61778 
L 123.196374 201.189939 
L 123.398731 199.333349 
L 123.601088 199.035385 
L 123.803445 201.052037 
L 124.005802 204.949507 
L 124.815231 237.470007 
L 125.62466 279.870477 
L 125.827017 282.619571 
L 126.029374 280.07136 
L 126.231732 274.644126 
L 127.850589 197.203475 
L 128.255304 179.098457 
L 128.457661 171.206595 
L 128.660018 168.586528 
L 128.862375 169.307356 
L 129.26709 197.872371 
L 130.076519 261.705561 
L 130.278876 270.37344 
L 130.481233 273.098524 
L 130.68359 273.201881 
L 130.885947 270.994179 
L 131.088305 265.555033 
L 131.493019 247.727686 
L 131.897733 222.961382 
L 133.314234 157.802622 
L 133.516591 153.243126 
L 133.921306 167.009054 
L 134.32602 189.009225 
L 134.730734 229.666345 
L 135.135449 257.071357 
L 135.540163 263.867608 
L 135.74252 260.997824 
L 135.944878 256.420848 
L 136.147235 249.290131 
L 136.551949 222.857422 
L 136.754306 219.1946 
L 136.956664 207.533732 
L 137.159021 204.913306 
L 137.361378 197.134124 
L 137.563735 196.303 
L 137.766092 196.009522 
L 137.96845 200.483042 
L 138.170807 200.580827 
L 138.373164 202.527894 
L 138.980236 220.20786 
L 139.182593 222.420277 
L 139.789665 257.073068 
L 139.992022 267.860094 
L 140.194379 271.965005 
L 140.396736 273.343441 
L 140.801451 265.200331 
L 141.206165 243.527316 
L 141.408522 229.14302 
L 141.610879 226.177389 
L 142.015594 216.045775 
L 142.420308 210.950853 
L 142.622665 213.514827 
L 143.432094 214.997825 
L 143.836809 226.193199 
L 144.241523 238.761599 
L 144.848595 269.913998 
L 145.050952 273.805787 
L 145.253309 272.783128 
L 145.455666 270.5665 
L 146.062738 245.026148 
L 146.265095 229.539617 
L 147.074524 213.661822 
L 147.276881 215.312567 
L 147.681596 212.370437 
L 147.883953 218.155399 
L 148.08631 218.751034 
L 148.491024 229.134906 
L 148.895739 241.398711 
L 149.098096 245.282067 
L 149.907525 274.135113 
L 150.109882 275.492385 
L 150.312239 272.707722 
L 150.716954 261.465174 
L 150.919311 257.687257 
L 151.324025 244.515225 
L 151.72874 237.055086 
L 152.133454 229.990238 
L 152.335811 232.643976 
L 152.740526 235.200696 
L 152.942883 236.38306 
L 153.14524 238.747454 
L 153.347597 238.71745 
L 153.549955 239.220981 
L 153.752312 241.477212 
L 154.157026 252.604953 
L 154.561741 269.288018 
L 154.764098 273.836217 
L 154.966455 275.266306 
L 155.168812 274.778388 
L 155.37117 272.088277 
L 155.978241 255.917531 
L 156.382956 240.46587 
L 157.192384 191.675623 
L 157.597099 178.93654 
L 158.001813 171.228215 
L 158.20417 173.774753 
L 158.608885 191.984782 
L 159.013599 226.853029 
L 159.418314 258.728883 
L 159.620671 267.11065 
L 159.823028 268.921161 
L 160.025385 266.738878 
L 160.4301 254.857125 
L 160.834814 231.353095 
L 161.239529 209.213948 
L 161.644243 190.147899 
L 162.048957 183.10139 
L 162.251315 184.703255 
L 162.453672 183.974994 
L 162.656029 184.285011 
L 162.858386 190.82823 
L 164.274887 268.45178 
L 164.679601 275.719283 
L 164.881958 271.734979 
L 165.286673 255.212826 
L 165.893744 224.34999 
L 166.703173 207.518523 
L 167.512602 176.251113 
L 167.714959 180.484423 
L 168.524388 230.609759 
L 169.13146 264.313818 
L 169.333817 268.816939 
L 169.536174 270.21406 
L 169.738531 269.405824 
L 170.143246 253.335373 
L 170.345603 243.209527 
L 170.54796 223.364127 
L 170.952675 204.419047 
L 171.357389 181.682078 
L 171.559746 175.240476 
L 171.762103 174.177679 
L 171.964461 174.103894 
L 172.369175 167.062674 
L 172.571532 170.946709 
L 172.976247 190.839379 
L 173.380961 221.381663 
L 173.785675 252.976827 
L 174.19039 269.10011 
L 174.392747 270.931652 
L 174.595104 270.533775 
L 174.797461 265.50561 
L 175.202176 244.668682 
L 175.404533 230.195092 
L 175.809248 219.173724 
L 176.416319 191.221791 
L 176.821034 183.119982 
L 177.023391 180.846153 
L 177.225748 176.638193 
L 177.428105 179.05953 
L 177.630462 185.165168 
L 178.237534 225.961261 
L 178.642248 259.326771 
L 179.046963 274.551053 
L 179.24932 277.47381 
L 179.654034 269.694545 
L 180.058749 250.791462 
L 180.463463 227.33109 
L 180.66582 221.684709 
L 181.272892 187.941363 
L 181.677607 173.781231 
L 182.082321 163.322121 
L 182.284678 167.298005 
L 182.487035 173.907515 
L 183.094107 212.885665 
L 183.498821 246.425762 
L 183.903536 260.29333 
L 184.105893 261.039263 
L 184.30825 260.430962 
L 184.915322 250.630486 
L 185.320036 225.874735 
L 186.129465 160.916765 
L 186.331822 157.049223 
L 186.53418 158.22479 
L 186.736537 160.544673 
L 186.938894 165.449336 
L 187.748323 205.325788 
L 188.557752 250.099946 
L 188.962466 259.428142 
L 189.164823 260.537888 
L 189.36718 258.047617 
L 189.771895 248.406982 
L 189.974252 240.086502 
L 190.783681 185.397334 
L 191.188395 165.355962 
L 191.390752 162.102866 
L 191.795467 172.876584 
L 192.807253 218.760766 
L 193.414325 253.169386 
L 193.616682 260.923142 
L 193.819039 264.147838 
L 194.021396 264.588493 
L 194.223753 262.099516 
L 194.628468 252.141572 
L 194.830825 244.034541 
L 195.437897 206.290353 
L 195.640254 195.030212 
L 195.842611 191.935009 
L 196.044968 193.464832 
L 197.056754 220.608899 
L 197.259112 223.726003 
L 197.461469 225.075217 
L 198.473255 273.703878 
L 198.675612 276.129168 
L 199.080326 267.795684 
L 200.29447 203.347689 
L 201.103898 185.216279 
L 201.306256 178.321824 
L 201.508613 175.502008 
L 201.71097 177.14249 
L 202.318042 203.982543 
L 202.520399 212.347448 
L 203.127471 259.522054 
L 203.329828 264.109776 
L 203.532185 264.837966 
L 203.734542 261.306889 
L 204.341614 234.634098 
L 204.746328 210.813066 
L 205.3534 187.718793 
L 205.555757 182.055055 
L 206.162829 176.307899 
L 206.365186 177.748843 
L 206.567543 183.394641 
L 206.972257 200.784597 
L 207.174615 206.724858 
L 208.186401 262.131676 
L 208.388758 263.249734 
L 208.591115 261.378842 
L 208.99583 245.182529 
L 209.400544 216.799013 
L 211.019402 158.681426 
L 211.221759 151.254344 
L 211.424116 154.5449 
L 212.031188 190.730335 
L 212.840617 248.69371 
L 213.245331 257.922371 
L 213.447688 256.598932 
L 213.852403 242.874135 
L 214.257117 213.618898 
L 214.661831 193.045031 
L 215.268903 155.708939 
L 215.875975 138.853249 
L 216.078332 135.608432 
L 216.280689 138.092879 
L 216.483046 145.029825 
L 217.292475 202.469946 
L 217.697189 236.815981 
L 218.101904 246.911681 
L 218.304261 248.305592 
L 218.708976 243.74088 
L 218.911333 238.307344 
L 219.316047 217.153125 
L 220.327833 157.740255 
L 220.53019 159.944337 
L 220.934905 173.37307 
L 221.744334 219.30038 
L 222.351405 241.511033 
L 222.75612 260.822585 
L 222.958477 264.656755 
L 223.160834 264.669949 
L 223.363191 261.254564 
L 223.970263 244.88387 
L 224.374977 222.624986 
L 224.779692 213.518654 
L 224.982049 212.972484 
L 225.184406 213.879037 
L 225.589121 223.963632 
L 225.993835 232.232808 
L 226.398549 237.261544 
L 227.005621 254.142141 
L 227.612693 283.399215 
L 227.81505 286.132168 
L 228.017407 283.196282 
L 228.219764 277.753842 
L 229.029193 243.004645 
L 229.23155 242.217055 
L 229.636265 237.23837 
L 230.040979 218.591743 
L 230.243336 214.254843 
L 230.648051 199.749767 
L 230.850408 195.766764 
L 231.052765 197.100983 
L 231.45748 214.010925 
L 232.266908 272.682123 
L 232.469266 276.681786 
L 232.671623 275.884917 
L 232.87398 273.290962 
L 233.278694 259.601183 
L 234.290481 219.413943 
L 234.695195 201.486438 
L 235.302267 191.549987 
L 235.504624 186.866356 
L 235.706981 189.381496 
L 236.314053 218.66387 
L 237.123481 269.406094 
L 237.325839 273.857837 
L 237.528196 275.099435 
L 237.730553 273.356315 
L 238.135267 258.96795 
L 238.742339 231.009462 
L 238.944696 225.960825 
L 239.349411 208.816768 
L 239.551768 204.847394 
L 240.15884 200.165858 
L 240.361197 196.627998 
L 240.563554 200.214903 
L 241.372983 240.982604 
L 241.980054 272.206488 
L 242.182412 276.301248 
L 242.384769 277.968194 
L 242.587126 276.569323 
L 242.789483 271.139199 
L 243.598912 234.91723 
L 243.801269 233.032983 
L 244.813055 197.819511 
L 245.21777 186.649915 
L 245.420127 187.423741 
L 245.824841 204.645119 
L 246.229556 229.659335 
L 246.836627 267.071864 
L 247.038985 272.503064 
L 247.241342 274.720231 
L 247.443699 274.005741 
L 247.646056 269.074063 
L 248.253128 239.977929 
L 249.467271 168.139427 
L 249.871985 158.215717 
L 250.074343 157.947834 
L 250.479057 175.283683 
L 251.086129 210.938778 
L 251.6932 253.556325 
L 251.895558 259.512224 
L 252.097915 261.92873 
L 252.300272 261.219731 
L 252.704986 254.075276 
L 252.907344 249.262869 
L 253.514415 213.494207 
L 254.121487 164.235829 
L 254.323844 158.551483 
L 254.526201 157.836493 
L 254.728558 157.822088 
L 255.133273 162.313963 
L 255.537987 180.866895 
L 255.942702 209.868317 
L 256.347416 240.819841 
L 256.752131 258.412333 
L 257.156845 264.739191 
L 257.359202 263.214273 
L 257.763917 255.338456 
L 257.966274 246.158347 
L 258.775703 191.441208 
L 259.180417 175.801109 
L 259.382774 173.502314 
L 259.585131 175.704147 
L 259.787489 175.455719 
L 260.192203 185.262601 
L 260.596917 202.05669 
L 261.608704 267.395583 
L 261.811061 270.123365 
L 262.013418 268.80841 
L 262.215775 264.710042 
L 262.62049 245.390057 
L 263.025204 220.242457 
L 263.227561 216.353805 
L 263.429918 215.438304 
L 263.632276 217.663144 
L 264.239347 227.412864 
L 264.441704 229.712008 
L 264.644062 229.310191 
L 265.251133 237.822376 
L 265.655848 247.80794 
L 266.465277 280.433879 
L 266.667634 281.765276 
L 266.869991 277.574296 
L 267.477063 254.040181 
L 267.881777 241.96607 
L 268.084134 240.437311 
L 268.286491 237.524576 
L 268.893563 222.478966 
L 269.09592 222.154916 
L 269.500635 215.982373 
L 269.702992 216.995808 
L 270.310063 231.983631 
L 270.714778 248.743043 
L 271.119492 270.174448 
L 271.32185 272.838497 
L 271.524207 272.243294 
L 271.726564 269.91676 
L 272.131278 256.621475 
L 273.143064 212.375067 
L 273.547779 190.012487 
L 273.952493 172.509631 
L 274.357208 159.039613 
L 274.559565 158.093752 
L 275.166636 180.492105 
L 275.571351 211.958481 
L 275.976065 244.816082 
L 276.38078 257.201812 
L 276.583137 254.437744 
L 276.987851 243.07523 
L 277.999637 183.084922 
L 278.404352 161.334487 
L 278.606709 156.772165 
L 278.809066 159.456367 
L 279.213781 153.444938 
L 279.416138 154.286251 
L 279.820852 172.253001 
L 280.832638 251.584838 
L 281.034995 258.458847 
L 281.237353 261.360926 
L 281.43971 259.870674 
L 281.642067 256.013084 
L 282.046782 241.112525 
L 282.451496 215.546383 
L 282.85621 193.24009 
L 283.260925 178.759653 
L 283.463282 173.938824 
L 283.665639 172.161985 
L 284.070354 164.97472 
L 284.272711 167.948508 
L 284.475068 176.122497 
L 285.08214 219.675352 
L 285.486854 249.968427 
L 285.891568 266.801642 
L 286.093926 270.203532 
L 286.296283 270.317212 
L 286.700997 263.216029 
L 287.105712 250.227563 
L 287.915141 198.897346 
L 288.319855 180.354595 
L 288.724569 172.100861 
L 288.926927 169.322061 
L 289.129284 171.770055 
L 289.331641 177.103319 
L 289.736355 200.034636 
L 290.545784 256.633342 
L 290.950499 265.228218 
L 291.152856 266.242098 
L 291.355213 264.749084 
L 291.759927 256.074787 
L 291.962285 246.97235 
L 292.974071 166.636507 
L 293.378785 151.429308 
L 293.581142 152.070788 
L 293.985857 157.531868 
L 294.188214 162.496277 
L 294.592928 181.52039 
L 294.997643 207.961975 
L 295.402357 243.384276 
L 295.604714 252.579398 
L 295.807072 254.884127 
L 296.009429 254.390996 
L 296.211786 250.036916 
L 296.6165 228.455348 
L 297.223572 174.516188 
L 298.033001 119.432214 
L 298.235358 114.251389 
L 298.437715 116.07669 
L 298.84243 123.628377 
L 299.247144 137.210954 
L 300.056573 200.304791 
L 300.461287 228.109382 
L 300.663645 233.324009 
L 300.866002 230.862843 
L 301.068359 226.676329 
L 301.270716 218.542328 
L 302.687217 104.219946 
L 302.889574 98.463142 
L 303.091931 101.736185 
L 304.306074 169.045592 
L 305.520218 249.404461 
L 305.722575 246.71892 
L 305.924932 238.344669 
L 306.532004 195.992416 
L 307.341432 149.897284 
L 307.948504 135.547795 
L 308.150861 137.715763 
L 308.353218 141.898284 
L 308.757933 162.792943 
L 309.567362 208.72139 
L 309.972076 245.041456 
L 310.174433 253.10147 
L 310.376791 255.496577 
L 310.579148 252.932453 
L 310.781505 246.438045 
L 311.388577 203.733241 
L 311.793291 169.534889 
L 312.400363 139.525102 
L 312.60272 136.750967 
L 313.007434 139.649835 
L 313.412149 147.459383 
L 314.221578 192.128629 
L 314.828649 237.264168 
L 315.233364 246.727112 
L 315.435721 244.699903 
L 315.638078 240.456015 
L 316.24515 205.856675 
L 316.447507 196.994339 
L 316.852221 188.829552 
L 317.054578 183.465411 
L 317.256936 181.985752 
L 317.66165 183.955441 
L 318.066364 185.86046 
L 318.268722 188.773375 
L 318.875793 207.991853 
L 319.280508 226.913009 
L 319.685222 252.008294 
L 319.887579 257.904986 
L 320.089937 259.621534 
L 320.292294 259.155133 
L 320.494651 257.042067 
L 321.101723 241.665146 
L 322.113509 185.129528 
L 322.72058 168.830138 
L 322.922937 167.064186 
L 323.125295 167.89624 
L 323.327652 171.505581 
L 323.934723 206.688068 
L 324.541795 249.280462 
L 324.94651 258.662338 
L 325.148867 260.202673 
L 325.351224 258.320773 
L 325.755938 249.350037 
L 325.958296 241.194329 
L 327.172439 149.157573 
L 327.374796 145.732153 
L 327.577153 148.359231 
L 327.77951 152.47044 
L 327.981868 153.550589 
L 328.386582 170.010921 
L 328.993654 217.421274 
L 329.398368 248.473821 
L 329.600725 255.84711 
L 329.803083 258.231353 
L 330.00544 257.426263 
L 330.207797 253.686787 
L 330.410154 246.508149 
L 331.624297 164.972221 
L 332.029012 153.10518 
L 332.231369 153.941225 
L 332.838441 169.493334 
L 333.040798 175.794016 
L 334.457298 259.775436 
L 334.659655 263.34016 
L 334.862013 261.287378 
L 335.266727 247.866097 
L 335.469084 238.216117 
L 335.873799 212.093177 
L 336.48087 192.991472 
L 336.683228 186.817174 
L 336.885585 185.350233 
L 337.087942 187.097151 
L 337.492656 184.00704 
L 338.099728 205.782765 
L 339.313871 265.973799 
L 339.516228 267.774807 
L 339.718586 265.94167 
L 339.920943 260.983567 
L 340.325657 237.07304 
L 340.730372 217.410746 
L 340.932729 210.622694 
L 341.337443 193.030595 
L 341.539801 189.403824 
L 341.944515 175.158527 
L 342.349229 162.969631 
L 342.551587 163.739311 
L 342.753944 168.049693 
L 343.361015 193.494295 
L 343.968087 243.854054 
L 344.170444 250.388689 
L 344.372801 251.75606 
L 344.575159 249.962759 
L 344.979873 236.493414 
L 345.384587 213.320233 
L 346.194016 146.87053 
L 346.598731 131.596684 
L 346.801088 132.242777 
L 347.003445 136.179279 
L 347.205802 135.740579 
L 347.40816 138.554006 
L 347.812874 151.973692 
L 348.419946 196.410669 
L 348.82466 230.44498 
L 349.027017 241.907339 
L 349.229374 244.291973 
L 349.431732 244.497697 
L 349.634089 239.885648 
L 350.24116 205.13929 
L 351.050589 146.050029 
L 351.455304 129.979917 
L 351.657661 127.284469 
L 352.062375 128.937241 
L 352.264733 131.368702 
L 352.46709 137.200291 
L 352.669447 147.892874 
L 353.88359 245.253642 
L 354.085947 248.954544 
L 354.288305 249.075843 
L 354.490662 246.950166 
L 354.895376 236.257439 
L 355.097733 224.812797 
L 356.109519 134.218622 
L 356.311877 128.492972 
L 356.514234 128.380561 
L 356.716591 129.895662 
L 356.918948 130.510684 
L 357.121306 132.705526 
L 357.323663 137.839708 
L 357.52602 147.716232 
L 358.740163 241.117769 
L 358.94252 246.006791 
L 359.144878 247.473295 
L 359.347235 246.333977 
L 359.549592 241.9022 
L 359.751949 234.307777 
L 360.156664 203.051507 
L 360.763735 140.946931 
L 361.16845 120.92112 
L 361.370807 117.99703 
L 361.573164 118.62927 
L 362.382593 135.914594 
L 362.989665 180.333161 
L 363.596736 229.28529 
L 363.799093 235.795001 
L 364.001451 235.739539 
L 364.203808 233.416086 
L 364.406165 223.254609 
L 364.810879 183.618938 
L 365.620308 112.563997 
L 366.025023 93.815597 
L 366.22738 92.872516 
L 366.834451 108.70772 
L 367.239166 123.899912 
L 367.846238 172.383802 
L 368.453309 221.266376 
L 368.655666 229.702787 
L 368.858024 230.579418 
L 369.060381 228.918765 
L 369.262738 220.941401 
L 369.667452 187.373101 
L 370.072167 149.371983 
L 370.679238 108.17266 
L 370.881596 102.34874 
L 371.083953 102.141449 
L 371.691024 119.646066 
L 372.095739 141.980387 
L 373.309882 237.714418 
L 373.512239 246.217324 
L 373.714597 246.936264 
L 373.916954 244.032427 
L 374.726383 196.651454 
L 375.333454 140.144053 
L 375.738169 126.500192 
L 375.940526 125.223677 
L 376.547597 136.431783 
L 377.154669 175.31717 
L 378.166455 242.14476 
L 378.368812 248.49127 
L 378.57117 248.128363 
L 378.773527 244.506537 
L 379.380598 193.599991 
L 379.785313 156.080166 
L 380.190027 135.007666 
L 380.594742 119.567186 
L 380.797099 117.842398 
L 380.999456 119.037483 
L 381.606528 128.326511 
L 382.213599 162.181925 
L 383.023028 223.186715 
L 383.225385 229.20234 
L 383.427743 229.68667 
L 383.832457 220.554576 
L 384.237171 190.129797 
L 384.237171 190.129797 
" clip-path="url(#pf05aedf6eb)" style="fill: none; stroke: #ff7f0e; stroke-width: 1.5; stroke-linecap: square"/>
   </g>
   <g id="line2d_15">
    <path d="M 384.439529 170.833536 
L 384.844243 161.677174 
L 385.248957 153.544707 
L 385.451315 154.416802 
L 385.856029 163.805625 
L 386.665458 191.387854 
L 387.070172 202.17187 
L 387.272529 205.092909 
L 387.474887 204.706223 
L 387.879601 193.996157 
L 388.284316 175.044245 
L 388.891387 147.609901 
L 389.093744 141.379532 
L 389.296102 139.691537 
L 389.498459 142.847529 
L 390.10553 164.805414 
L 390.914959 195.237095 
L 391.117316 197.808159 
L 391.319674 195.921598 
L 391.724388 188.801108 
L 392.129102 171.03538 
L 393.140888 123.044746 
L 393.545603 113.398287 
L 393.74796 114.231346 
L 393.950317 120.203387 
L 394.557389 153.917638 
L 395.164461 191.134671 
L 395.569175 202.231426 
L 395.771532 205.144265 
L 395.973889 202.562717 
L 396.378604 187.750172 
L 397.592747 137.570512 
L 397.795104 135.325452 
L 397.997461 137.52824 
L 398.402176 147.735307 
L 398.80689 167.304624 
L 399.413962 195.943845 
L 399.818676 208.056515 
L 400.021034 210.347843 
L 400.223391 209.533958 
L 400.425748 205.86456 
L 400.628105 198.405295 
L 401.437534 153.422472 
L 401.842248 140.06789 
L 402.044606 138.392076 
L 402.246963 139.226084 
L 402.44932 142.501562 
L 402.854034 156.233106 
L 403.663463 190.300961 
L 404.068178 196.852949 
L 404.270535 195.734786 
L 404.472892 192.937532 
L 404.877607 179.343515 
L 405.282321 160.867156 
L 405.889393 133.521368 
L 406.09175 129.756459 
L 406.294107 128.304635 
L 406.496464 129.13417 
L 406.698821 133.490438 
L 407.103536 149.859331 
L 407.912965 188.532225 
L 408.317679 196.863961 
L 408.520036 196.49389 
L 408.924751 187.143181 
L 410.341251 138.22484 
L 410.543608 136.573369 
L 410.745966 138.341192 
L 410.948323 142.587958 
L 411.353037 158.918353 
L 412.162466 193.84065 
L 412.364823 199.388904 
L 412.56718 201.701207 
L 412.769538 201.197115 
L 412.971895 198.331868 
L 413.578966 176.128956 
L 414.186038 149.527762 
L 414.590752 140.997604 
L 414.79311 139.641415 
L 414.995467 141.512448 
L 415.197824 145.20459 
L 415.804896 168.332537 
L 416.411967 190.819653 
L 416.614325 194.547217 
L 416.816682 195.283757 
L 417.019039 193.999095 
L 417.221396 190.380369 
L 417.828468 170.012036 
L 418.435539 144.672266 
L 418.840254 136.553556 
L 419.042611 136.179875 
L 419.244968 138.155566 
L 419.447325 142.038992 
L 420.863826 192.406864 
L 421.066183 192.804785 
L 421.26854 192.11706 
L 421.673255 183.211142 
L 422.077969 169.235582 
L 422.685041 147.467835 
L 423.089755 140.316921 
L 423.292112 140.339835 
L 423.49447 142.460591 
L 423.696827 146.780334 
L 424.91097 190.543876 
L 425.113327 192.889534 
L 425.315684 193.211396 
L 425.518042 192.265627 
L 426.125113 177.784291 
L 426.934542 149.995297 
L 427.339257 143.424106 
L 427.541614 144.308094 
L 427.743971 146.073193 
L 428.148685 157.167908 
L 429.160471 189.029781 
L 429.362829 190.813777 
L 429.565186 191.004094 
L 429.767543 189.128845 
L 430.172257 181.31843 
L 431.386401 144.787375 
L 431.588758 143.463026 
L 431.791115 144.037379 
L 431.993472 145.639587 
L 432.600544 163.226248 
L 433.409973 186.840123 
L 433.61233 188.600907 
L 433.814687 188.936728 
L 434.017044 187.288054 
L 434.219402 184.346955 
L 434.624116 173.989823 
L 435.231188 154.12384 
L 435.635902 146.666494 
L 435.838259 145.441446 
L 436.040617 145.679712 
L 436.242974 148.092104 
L 437.052403 169.872065 
L 437.457117 182.773377 
L 437.861831 188.137296 
L 438.064189 187.81754 
L 438.266546 186.342426 
L 438.468903 183.8535 
L 438.873617 174.092808 
L 439.480689 155.918396 
L 439.885403 148.688955 
L 440.087761 147.688915 
L 440.290118 148.255957 
L 440.492475 150.57568 
L 440.897189 159.702611 
L 441.908976 184.992729 
L 442.111333 186.670087 
L 442.516047 185.087608 
L 442.718404 182.586754 
L 443.123119 172.97652 
L 443.73019 155.852799 
L 444.134905 149.856941 
L 444.337262 148.736564 
L 444.539619 149.400017 
L 444.741976 151.601427 
L 445.146691 160.44791 
L 446.158477 183.554944 
L 446.360834 184.897654 
L 446.563191 184.46184 
L 446.765549 183.528371 
L 447.170263 177.00983 
L 448.182049 153.040826 
L 448.586763 149.829586 
L 448.991478 152.89564 
L 449.396192 161.26998 
L 450.407978 182.654186 
L 450.610335 183.507513 
L 450.812693 183.265166 
L 451.01505 182.25886 
L 451.217407 180.026178 
L 451.622121 171.525028 
L 452.229193 157.174764 
L 452.633908 152.17196 
L 452.836265 151.659673 
L 453.038622 152.55526 
L 453.240979 154.190416 
L 454.252765 174.886454 
L 454.65748 181.329452 
L 454.859837 182.09377 
L 455.062194 182.072263 
L 455.466908 178.813415 
L 455.871623 171.098714 
L 456.478694 158.098064 
L 456.883409 153.469557 
L 457.085766 153.16711 
L 457.288123 153.711398 
L 457.490481 155.575683 
L 458.299909 170.521715 
L 458.704624 178.066796 
L 459.109338 180.695936 
L 459.311695 180.258203 
L 459.71641 177.429461 
L 460.121124 170.330604 
L 460.525839 161.711987 
L 461.13291 154.87092 
L 461.335267 154.668281 
L 461.537625 155.037291 
L 461.942339 159.806263 
L 462.954125 177.185877 
L 463.156482 178.782523 
L 463.35884 179.418858 
L 463.763554 178.027414 
L 463.965911 176.337407 
L 464.370626 169.962363 
L 464.77534 162.359599 
L 465.180054 157.425884 
L 465.584769 155.914295 
L 465.787126 156.421468 
L 466.19184 160.71956 
L 467.001269 173.893341 
L 467.405984 177.822872 
L 467.608341 178.286127 
L 468.013055 177.282884 
L 468.41777 173.193602 
L 469.227199 160.880087 
L 469.631913 157.7215 
L 469.83427 157.10078 
L 470.036627 157.849257 
L 470.238985 159.188107 
L 470.441342 161.372972 
L 471.048413 170.055916 
L 471.453128 174.992701 
L 471.655485 176.650393 
L 471.857842 176.868975 
L 472.060199 176.748451 
L 472.262557 176.259277 
L 472.667271 172.676438 
L 473.274343 164.018612 
L 473.679057 160.168109 
L 473.881414 158.999027 
L 474.083772 158.495319 
L 474.488486 159.986148 
L 475.297915 169.490816 
L 475.904986 175.175495 
L 476.309701 175.637199 
L 476.512058 175.059835 
L 476.916772 172.068131 
L 477.523844 164.707042 
L 478.130916 160.289049 
L 478.333273 160.048982 
L 478.53563 160.366544 
L 478.737987 161.053417 
L 480.154488 173.872478 
L 480.356845 174.425813 
L 480.559202 174.653833 
L 480.761559 174.191161 
L 480.963917 173.300368 
L 481.368631 169.412834 
L 481.975703 163.961724 
L 482.380417 161.600832 
L 482.582774 161.491003 
L 482.785131 161.530737 
L 482.987489 162.191281 
L 483.59456 167.086107 
L 484.403989 172.619383 
L 484.606346 173.375646 
L 484.808704 173.646617 
L 485.011061 173.389801 
L 485.213418 172.580847 
L 485.82049 167.608596 
L 486.427561 163.414175 
L 486.629918 162.746122 
L 486.832276 162.564026 
L 487.034633 162.585255 
L 487.439347 164.11303 
L 488.451133 170.842333 
L 488.855848 172.303282 
L 489.058205 172.531777 
L 489.260562 172.422217 
L 489.665277 170.668888 
L 490.87942 163.759278 
L 491.081777 163.532616 
L 491.284134 163.637216 
L 491.486491 164.058975 
L 491.688849 164.739222 
L 492.700635 170.248732 
L 493.105349 171.429591 
L 493.307706 171.679103 
L 493.510063 171.631186 
L 493.914778 170.308209 
L 494.52185 166.922267 
L 494.926564 164.982954 
L 495.331278 164.221136 
L 495.735993 164.671389 
L 495.93835 165.231062 
L 496.950136 169.728095 
L 497.35485 170.736176 
L 497.557208 171.044415 
L 497.759565 170.996933 
L 498.164279 170.10564 
L 498.771351 167.307604 
L 499.176065 165.558332 
L 499.58078 164.728643 
L 499.985494 164.895353 
L 500.390209 166.101024 
L 501.401995 169.681844 
L 501.806709 170.373997 
L 502.009066 170.370755 
L 502.211423 170.233039 
L 502.413781 169.917239 
L 502.818495 168.700458 
L 503.425567 166.266786 
L 503.830281 165.369553 
L 504.032638 165.207103 
L 504.234995 165.244365 
L 504.63971 166.018774 
L 505.853853 169.415743 
L 506.05621 169.719733 
L 506.460925 169.820995 
L 506.865639 169.331596 
L 507.270354 168.162956 
L 508.079782 165.93059 
L 508.28214 165.661445 
L 508.484497 165.649033 
L 508.889211 166.072163 
L 510.103354 168.954525 
L 510.710426 169.467556 
L 511.115141 169.235544 
L 511.519855 168.403561 
L 512.531641 166.059899 
L 512.936355 165.978738 
L 513.34107 166.497472 
L 513.745784 167.337266 
L 514.352856 168.571515 
L 514.959927 169.144387 
L 515.364642 169.138184 
L 515.769356 168.596877 
L 516.9835 166.275757 
L 517.185857 166.167908 
L 517.590571 166.419348 
L 518.197643 167.443269 
L 518.4 167.873845 
L 518.4 167.873845 
" clip-path="url(#pf05aedf6eb)" style="fill: none; stroke: #2ca02c; stroke-width: 1.5; stroke-linecap: square"/>
   </g>
   <g id="patch_3">
    <path d="M 72 320.4 
L 72 43.2 
" style="fill: none; stroke: #000000; stroke-width: 0.8; stroke-linejoin: miter; stroke-linecap: square"/>
   </g>
   <g id="patch_4">
    <path d="M 518.4 320.4 
L 518.4 43.2 
" style="fill: none; stroke: #000000; stroke-width: 0.8; stroke-linejoin: miter; stroke-linecap: square"/>
   </g>
   <g id="patch_5">
    <path d="M 72 320.4 
L 518.4 320.4 
" style="fill: none; stroke: #000000; stroke-width: 0.8; stroke-linejoin: miter; stroke-linecap: square"/>
   </g>
   <g id="patch_6">
    <path d="M 72 43.2 
L 518.4 43.2 
" style="fill: none; stroke: #000000; stroke-width: 0.8; stroke-linejoin: miter; stroke-linecap: square"/>
   </g>
   <g id="text_13">
    <!-- Classic Transformer - model_20231126172209 -->
    <g transform="translate(155.436563 37.2) scale(0.12 -0.12)">
     <defs>
      <path id="DejaVuSans-43" d="M 4122 4306 
L 4122 3641 
Q 3803 3938 3442 4084 
Q 3081 4231 2675 4231 
Q 1875 4231 1450 3742 
Q 1025 3253 1025 2328 
Q 1025 1406 1450 917 
Q 1875 428 2675 428 
Q 3081 428 3442 575 
Q 3803 722 4122 1019 
L 4122 359 
Q 3791 134 3420 21 
Q 3050 -91 2638 -91 
Q 1578 -91 968 557 
Q 359 1206 359 2328 
Q 359 3453 968 4101 
Q 1578 4750 2638 4750 
Q 3056 4750 3426 4639 
Q 3797 4528 4122 4306 
z
" transform="scale(0.015625)"/>
      <path id="DejaVuSans-6c" d="M 603 4863 
L 1178 4863 
L 1178 0 
L 603 0 
L 603 4863 
z
" transform="scale(0.015625)"/>
      <path id="DejaVuSans-61" d="M 2194 1759 
Q 1497 1759 1228 1600 
Q 959 1441 959 1056 
Q 959 750 1161 570 
Q 1363 391 1709 391 
Q 2188 391 2477 730 
Q 2766 1069 2766 1631 
L 2766 1759 
L 2194 1759 
z
M 3341 1997 
L 3341 0 
L 2766 0 
L 2766 531 
Q 2569 213 2275 61 
Q 1981 -91 1556 -91 
Q 1019 -91 701 211 
Q 384 513 384 1019 
Q 384 1609 779 1909 
Q 1175 2209 1959 2209 
L 2766 2209 
L 2766 2266 
Q 2766 2663 2505 2880 
Q 2244 3097 1772 3097 
Q 1472 3097 1187 3025 
Q 903 2953 641 2809 
L 641 3341 
Q 956 3463 1253 3523 
Q 1550 3584 1831 3584 
Q 2591 3584 2966 3190 
Q 3341 2797 3341 1997 
z
" transform="scale(0.015625)"/>
      <path id="DejaVuSans-73" d="M 2834 3397 
L 2834 2853 
Q 2591 2978 2328 3040 
Q 2066 3103 1784 3103 
Q 1356 3103 1142 2972 
Q 928 2841 928 2578 
Q 928 2378 1081 2264 
Q 1234 2150 1697 2047 
L 1894 2003 
Q 2506 1872 2764 1633 
Q 3022 1394 3022 966 
Q 3022 478 2636 193 
Q 2250 -91 1575 -91 
Q 1294 -91 989 -36 
Q 684 19 347 128 
L 347 722 
Q 666 556 975 473 
Q 1284 391 1588 391 
Q 1994 391 2212 530 
Q 2431 669 2431 922 
Q 2431 1156 2273 1281 
Q 2116 1406 1581 1522 
L 1381 1569 
Q 847 1681 609 1914 
Q 372 2147 372 2553 
Q 372 3047 722 3315 
Q 1072 3584 1716 3584 
Q 2034 3584 2315 3537 
Q 2597 3491 2834 3397 
z
" transform="scale(0.015625)"/>
      <path id="DejaVuSans-69" d="M 603 3500 
L 1178 3500 
L 1178 0 
L 603 0 
L 603 3500 
z
M 603 4863 
L 1178 4863 
L 1178 4134 
L 603 4134 
L 603 4863 
z
" transform="scale(0.015625)"/>
      <path id="DejaVuSans-63" d="M 3122 3366 
L 3122 2828 
Q 2878 2963 2633 3030 
Q 2388 3097 2138 3097 
Q 1578 3097 1268 2742 
Q 959 2388 959 1747 
Q 959 1106 1268 751 
Q 1578 397 2138 397 
Q 2388 397 2633 464 
Q 2878 531 3122 666 
L 3122 134 
Q 2881 22 2623 -34 
Q 2366 -91 2075 -91 
Q 1284 -91 818 406 
Q 353 903 353 1747 
Q 353 2603 823 3093 
Q 1294 3584 2113 3584 
Q 2378 3584 2631 3529 
Q 2884 3475 3122 3366 
z
" transform="scale(0.015625)"/>
      <path id="DejaVuSans-20" transform="scale(0.015625)"/>
      <path id="DejaVuSans-54" d="M -19 4666 
L 3928 4666 
L 3928 4134 
L 2272 4134 
L 2272 0 
L 1638 0 
L 1638 4134 
L -19 4134 
L -19 4666 
z
" transform="scale(0.015625)"/>
      <path id="DejaVuSans-72" d="M 2631 2963 
Q 2534 3019 2420 3045 
Q 2306 3072 2169 3072 
Q 1681 3072 1420 2755 
Q 1159 2438 1159 1844 
L 1159 0 
L 581 0 
L 581 3500 
L 1159 3500 
L 1159 2956 
Q 1341 3275 1631 3429 
Q 1922 3584 2338 3584 
Q 2397 3584 2469 3576 
Q 2541 3569 2628 3553 
L 2631 2963 
z
" transform="scale(0.015625)"/>
      <path id="DejaVuSans-6e" d="M 3513 2113 
L 3513 0 
L 2938 0 
L 2938 2094 
Q 2938 2591 2744 2837 
Q 2550 3084 2163 3084 
Q 1697 3084 1428 2787 
Q 1159 2491 1159 1978 
L 1159 0 
L 581 0 
L 581 3500 
L 1159 3500 
L 1159 2956 
Q 1366 3272 1645 3428 
Q 1925 3584 2291 3584 
Q 2894 3584 3203 3211 
Q 3513 2838 3513 2113 
z
" transform="scale(0.015625)"/>
      <path id="DejaVuSans-66" d="M 2375 4863 
L 2375 4384 
L 1825 4384 
Q 1516 4384 1395 4259 
Q 1275 4134 1275 3809 
L 1275 3500 
L 2222 3500 
L 2222 3053 
L 1275 3053 
L 1275 0 
L 697 0 
L 697 3053 
L 147 3053 
L 147 3500 
L 697 3500 
L 697 3744 
Q 697 4328 969 4595 
Q 1241 4863 1831 4863 
L 2375 4863 
z
" transform="scale(0.015625)"/>
      <path id="DejaVuSans-6f" d="M 1959 3097 
Q 1497 3097 1228 2736 
Q 959 2375 959 1747 
Q 959 1119 1226 758 
Q 1494 397 1959 397 
Q 2419 397 2687 759 
Q 2956 1122 2956 1747 
Q 2956 2369 2687 2733 
Q 2419 3097 1959 3097 
z
M 1959 3584 
Q 2709 3584 3137 3096 
Q 3566 2609 3566 1747 
Q 3566 888 3137 398 
Q 2709 -91 1959 -91 
Q 1206 -91 779 398 
Q 353 888 353 1747 
Q 353 2609 779 3096 
Q 1206 3584 1959 3584 
z
" transform="scale(0.015625)"/>
      <path id="DejaVuSans-6d" d="M 3328 2828 
Q 3544 3216 3844 3400 
Q 4144 3584 4550 3584 
Q 5097 3584 5394 3201 
Q 5691 2819 5691 2113 
L 5691 0 
L 5113 0 
L 5113 2094 
Q 5113 2597 4934 2840 
Q 4756 3084 4391 3084 
Q 3944 3084 3684 2787 
Q 3425 2491 3425 1978 
L 3425 0 
L 2847 0 
L 2847 2094 
Q 2847 2600 2669 2842 
Q 2491 3084 2119 3084 
Q 1678 3084 1418 2786 
Q 1159 2488 1159 1978 
L 1159 0 
L 581 0 
L 581 3500 
L 1159 3500 
L 1159 2956 
Q 1356 3278 1631 3431 
Q 1906 3584 2284 3584 
Q 2666 3584 2933 3390 
Q 3200 3197 3328 2828 
z
" transform="scale(0.015625)"/>
      <path id="DejaVuSans-65" d="M 3597 1894 
L 3597 1613 
L 953 1613 
Q 991 1019 1311 708 
Q 1631 397 2203 397 
Q 2534 397 2845 478 
Q 3156 559 3463 722 
L 3463 178 
Q 3153 47 2828 -22 
Q 2503 -91 2169 -91 
Q 1331 -91 842 396 
Q 353 884 353 1716 
Q 353 2575 817 3079 
Q 1281 3584 2069 3584 
Q 2775 3584 3186 3129 
Q 3597 2675 3597 1894 
z
M 3022 2063 
Q 3016 2534 2758 2815 
Q 2500 3097 2075 3097 
Q 1594 3097 1305 2825 
Q 1016 2553 972 2059 
L 3022 2063 
z
" transform="scale(0.015625)"/>
      <path id="DejaVuSans-64" d="M 2906 2969 
L 2906 4863 
L 3481 4863 
L 3481 0 
L 2906 0 
L 2906 525 
Q 2725 213 2448 61 
Q 2172 -91 1784 -91 
Q 1150 -91 751 415 
Q 353 922 353 1747 
Q 353 2572 751 3078 
Q 1150 3584 1784 3584 
Q 2172 3584 2448 3432 
Q 2725 3281 2906 2969 
z
M 947 1747 
Q 947 1113 1208 752 
Q 1469 391 1925 391 
Q 2381 391 2643 752 
Q 2906 1113 2906 1747 
Q 2906 2381 2643 2742 
Q 2381 3103 1925 3103 
Q 1469 3103 1208 2742 
Q 947 2381 947 1747 
z
" transform="scale(0.015625)"/>
      <path id="DejaVuSans-5f" d="M 3263 -1063 
L 3263 -1509 
L -63 -1509 
L -63 -1063 
L 3263 -1063 
z
" transform="scale(0.015625)"/>
      <path id="DejaVuSans-39" d="M 703 97 
L 703 672 
Q 941 559 1184 500 
Q 1428 441 1663 441 
Q 2288 441 2617 861 
Q 2947 1281 2994 2138 
Q 2813 1869 2534 1725 
Q 2256 1581 1919 1581 
Q 1219 1581 811 2004 
Q 403 2428 403 3163 
Q 403 3881 828 4315 
Q 1253 4750 1959 4750 
Q 2769 4750 3195 4129 
Q 3622 3509 3622 2328 
Q 3622 1225 3098 567 
Q 2575 -91 1691 -91 
Q 1453 -91 1209 -44 
Q 966 3 703 97 
z
M 1959 2075 
Q 2384 2075 2632 2365 
Q 2881 2656 2881 3163 
Q 2881 3666 2632 3958 
Q 2384 4250 1959 4250 
Q 1534 4250 1286 3958 
Q 1038 3666 1038 3163 
Q 1038 2656 1286 2365 
Q 1534 2075 1959 2075 
z
" transform="scale(0.015625)"/>
     </defs>
     <use xlink:href="#DejaVuSans-43"/>
     <use xlink:href="#DejaVuSans-6c" x="69.824219"/>
     <use xlink:href="#DejaVuSans-61" x="97.607422"/>
     <use xlink:href="#DejaVuSans-73" x="158.886719"/>
     <use xlink:href="#DejaVuSans-73" x="210.986328"/>
     <use xlink:href="#DejaVuSans-69" x="263.085938"/>
     <use xlink:href="#DejaVuSans-63" x="290.869141"/>
     <use xlink:href="#DejaVuSans-20" x="345.849609"/>
     <use xlink:href="#DejaVuSans-54" x="377.636719"/>
     <use xlink:href="#DejaVuSans-72" x="423.970703"/>
     <use xlink:href="#DejaVuSans-61" x="465.083984"/>
     <use xlink:href="#DejaVuSans-6e" x="526.363281"/>
     <use xlink:href="#DejaVuSans-73" x="589.742188"/>
     <use xlink:href="#DejaVuSans-66" x="641.841797"/>
     <use xlink:href="#DejaVuSans-6f" x="677.046875"/>
     <use xlink:href="#DejaVuSans-72" x="738.228516"/>
     <use xlink:href="#DejaVuSans-6d" x="777.591797"/>
     <use xlink:href="#DejaVuSans-65" x="875.003906"/>
     <use xlink:href="#DejaVuSans-72" x="936.527344"/>
     <use xlink:href="#DejaVuSans-20" x="977.640625"/>
     <use xlink:href="#DejaVuSans-2d" x="1009.427734"/>
     <use xlink:href="#DejaVuSans-20" x="1045.511719"/>
     <use xlink:href="#DejaVuSans-6d" x="1077.298828"/>
     <use xlink:href="#DejaVuSans-6f" x="1174.710938"/>
     <use xlink:href="#DejaVuSans-64" x="1235.892578"/>
     <use xlink:href="#DejaVuSans-65" x="1299.369141"/>
     <use xlink:href="#DejaVuSans-6c" x="1360.892578"/>
     <use xlink:href="#DejaVuSans-5f" x="1388.675781"/>
     <use xlink:href="#DejaVuSans-32" x="1438.675781"/>
     <use xlink:href="#DejaVuSans-30" x="1502.298828"/>
     <use xlink:href="#DejaVuSans-32" x="1565.921875"/>
     <use xlink:href="#DejaVuSans-33" x="1629.544922"/>
     <use xlink:href="#DejaVuSans-31" x="1693.167969"/>
     <use xlink:href="#DejaVuSans-31" x="1756.791016"/>
     <use xlink:href="#DejaVuSans-32" x="1820.414062"/>
     <use xlink:href="#DejaVuSans-36" x="1884.037109"/>
     <use xlink:href="#DejaVuSans-31" x="1947.660156"/>
     <use xlink:href="#DejaVuSans-37" x="2011.283203"/>
     <use xlink:href="#DejaVuSans-32" x="2074.90625"/>
     <use xlink:href="#DejaVuSans-32" x="2138.529297"/>
     <use xlink:href="#DejaVuSans-30" x="2202.152344"/>
     <use xlink:href="#DejaVuSans-39" x="2265.775391"/>
    </g>
   </g>
   <g id="legend_1">
    <g id="patch_7">
     <path d="M 79 95.234375 
L 161.517188 95.234375 
Q 163.517188 95.234375 163.517188 93.234375 
L 163.517188 50.2 
Q 163.517188 48.2 161.517188 48.2 
L 79 48.2 
Q 77 48.2 77 50.2 
L 77 93.234375 
Q 77 95.234375 79 95.234375 
z
" style="fill: #ffffff; opacity: 0.8; stroke: #cccccc; stroke-linejoin: miter"/>
    </g>
    <g id="line2d_16">
     <path d="M 81 56.298437 
L 91 56.298437 
L 101 56.298437 
" style="fill: none; stroke: #1f77b4; stroke-width: 1.5; stroke-linecap: square"/>
    </g>
    <g id="text_14">
     <!-- Measured -->
     <g transform="translate(109 59.798437) scale(0.1 -0.1)">
      <defs>
       <path id="DejaVuSans-4d" d="M 628 4666 
L 1569 4666 
L 2759 1491 
L 3956 4666 
L 4897 4666 
L 4897 0 
L 4281 0 
L 4281 4097 
L 3078 897 
L 2444 897 
L 1241 4097 
L 1241 0 
L 628 0 
L 628 4666 
z
" transform="scale(0.015625)"/>
       <path id="DejaVuSans-75" d="M 544 1381 
L 544 3500 
L 1119 3500 
L 1119 1403 
Q 1119 906 1312 657 
Q 1506 409 1894 409 
Q 2359 409 2629 706 
Q 2900 1003 2900 1516 
L 2900 3500 
L 3475 3500 
L 3475 0 
L 2900 0 
L 2900 538 
Q 2691 219 2414 64 
Q 2138 -91 1772 -91 
Q 1169 -91 856 284 
Q 544 659 544 1381 
z
M 1991 3584 
L 1991 3584 
z
" transform="scale(0.015625)"/>
      </defs>
      <use xlink:href="#DejaVuSans-4d"/>
      <use xlink:href="#DejaVuSans-65" x="86.279297"/>
      <use xlink:href="#DejaVuSans-61" x="147.802734"/>
      <use xlink:href="#DejaVuSans-73" x="209.082031"/>
      <use xlink:href="#DejaVuSans-75" x="261.181641"/>
      <use xlink:href="#DejaVuSans-72" x="324.560547"/>
      <use xlink:href="#DejaVuSans-65" x="363.423828"/>
      <use xlink:href="#DejaVuSans-64" x="424.947266"/>
     </g>
    </g>
    <g id="line2d_17">
     <path d="M 81 70.976562 
L 91 70.976562 
L 101 70.976562 
" style="fill: none; stroke: #ff7f0e; stroke-width: 1.5; stroke-linecap: square"/>
    </g>
    <g id="text_15">
     <!-- Fitted -->
     <g transform="translate(109 74.476562) scale(0.1 -0.1)">
      <defs>
       <path id="DejaVuSans-46" d="M 628 4666 
L 3309 4666 
L 3309 4134 
L 1259 4134 
L 1259 2759 
L 3109 2759 
L 3109 2228 
L 1259 2228 
L 1259 0 
L 628 0 
L 628 4666 
z
" transform="scale(0.015625)"/>
       <path id="DejaVuSans-74" d="M 1172 4494 
L 1172 3500 
L 2356 3500 
L 2356 3053 
L 1172 3053 
L 1172 1153 
Q 1172 725 1289 603 
Q 1406 481 1766 481 
L 2356 481 
L 2356 0 
L 1766 0 
Q 1100 0 847 248 
Q 594 497 594 1153 
L 594 3053 
L 172 3053 
L 172 3500 
L 594 3500 
L 594 4494 
L 1172 4494 
z
" transform="scale(0.015625)"/>
      </defs>
      <use xlink:href="#DejaVuSans-46"/>
      <use xlink:href="#DejaVuSans-69" x="50.269531"/>
      <use xlink:href="#DejaVuSans-74" x="78.052734"/>
      <use xlink:href="#DejaVuSans-74" x="117.261719"/>
      <use xlink:href="#DejaVuSans-65" x="156.470703"/>
      <use xlink:href="#DejaVuSans-64" x="217.994141"/>
     </g>
    </g>
    <g id="line2d_18">
     <path d="M 81 85.654687 
L 91 85.654687 
L 101 85.654687 
" style="fill: none; stroke: #2ca02c; stroke-width: 1.5; stroke-linecap: square"/>
    </g>
    <g id="text_16">
     <!-- Estimated -->
     <g transform="translate(109 89.154687) scale(0.1 -0.1)">
      <defs>
       <path id="DejaVuSans-45" d="M 628 4666 
L 3578 4666 
L 3578 4134 
L 1259 4134 
L 1259 2753 
L 3481 2753 
L 3481 2222 
L 1259 2222 
L 1259 531 
L 3634 531 
L 3634 0 
L 628 0 
L 628 4666 
z
" transform="scale(0.015625)"/>
      </defs>
      <use xlink:href="#DejaVuSans-45"/>
      <use xlink:href="#DejaVuSans-73" x="63.183594"/>
      <use xlink:href="#DejaVuSans-74" x="115.283203"/>
      <use xlink:href="#DejaVuSans-69" x="154.492188"/>
      <use xlink:href="#DejaVuSans-6d" x="182.275391"/>
      <use xlink:href="#DejaVuSans-61" x="279.6875"/>
      <use xlink:href="#DejaVuSans-74" x="340.966797"/>
      <use xlink:href="#DejaVuSans-65" x="380.175781"/>
      <use xlink:href="#DejaVuSans-64" x="441.699219"/>
     </g>
    </g>
   </g>
  </g>
 </g>
 <defs>
  <clipPath id="pf05aedf6eb">
   <rect x="72" y="43.2" width="446.4" height="277.2"/>
  </clipPath>
 </defs>
</svg>
