<?xml version="1.0" encoding="utf-8" standalone="no"?>
<!DOCTYPE svg PUBLIC "-//W3C//DTD SVG 1.1//EN"
  "http://www.w3.org/Graphics/SVG/1.1/DTD/svg11.dtd">
<svg xmlns:xlink="http://www.w3.org/1999/xlink" width="576pt" height="360pt" viewBox="0 0 576 360" xmlns="http://www.w3.org/2000/svg" version="1.1">
 <metadata>
  <rdf:RDF xmlns:dc="http://purl.org/dc/elements/1.1/" xmlns:cc="http://creativecommons.org/ns#" xmlns:rdf="http://www.w3.org/1999/02/22-rdf-syntax-ns#">
   <cc:Work>
    <dc:type rdf:resource="http://purl.org/dc/dcmitype/StillImage"/>
    <dc:date>2023-11-26T17:39:13.287692</dc:date>
    <dc:format>image/svg+xml</dc:format>
    <dc:creator>
     <cc:Agent>
      <dc:title>Matplotlib v3.8.1, https://matplotlib.org/</dc:title>
     </cc:Agent>
    </dc:creator>
   </cc:Work>
  </rdf:RDF>
 </metadata>
 <defs>
  <style type="text/css">*{stroke-linejoin: round; stroke-linecap: butt}</style>
 </defs>
 <g id="figure_1">
  <g id="patch_1">
   <path d="M 0 360 
L 576 360 
L 576 0 
L 0 0 
z
" style="fill: #ffffff"/>
  </g>
  <g id="axes_1">
   <g id="patch_2">
    <path d="M 72 320.4 
L 518.4 320.4 
L 518.4 43.2 
L 72 43.2 
z
" style="fill: #ffffff"/>
   </g>
   <g id="matplotlib.axis_1">
    <g id="xtick_1">
     <g id="line2d_1">
      <defs>
       <path id="ma63310f887" d="M 0 0 
L 0 3.5 
" style="stroke: #000000; stroke-width: 0.8"/>
      </defs>
      <g>
       <use xlink:href="#ma63310f887" x="129.874161" y="320.4" style="stroke: #000000; stroke-width: 0.8"/>
      </g>
     </g>
     <g id="text_1">
      <!-- 2020-05-15 -->
      <g transform="translate(100.816349 334.998438) scale(0.1 -0.1)">
       <defs>
        <path id="DejaVuSans-32" d="M 1228 531 
L 3431 531 
L 3431 0 
L 469 0 
L 469 531 
Q 828 903 1448 1529 
Q 2069 2156 2228 2338 
Q 2531 2678 2651 2914 
Q 2772 3150 2772 3378 
Q 2772 3750 2511 3984 
Q 2250 4219 1831 4219 
Q 1534 4219 1204 4116 
Q 875 4013 500 3803 
L 500 4441 
Q 881 4594 1212 4672 
Q 1544 4750 1819 4750 
Q 2544 4750 2975 4387 
Q 3406 4025 3406 3419 
Q 3406 3131 3298 2873 
Q 3191 2616 2906 2266 
Q 2828 2175 2409 1742 
Q 1991 1309 1228 531 
z
" transform="scale(0.015625)"/>
        <path id="DejaVuSans-30" d="M 2034 4250 
Q 1547 4250 1301 3770 
Q 1056 3291 1056 2328 
Q 1056 1369 1301 889 
Q 1547 409 2034 409 
Q 2525 409 2770 889 
Q 3016 1369 3016 2328 
Q 3016 3291 2770 3770 
Q 2525 4250 2034 4250 
z
M 2034 4750 
Q 2819 4750 3233 4129 
Q 3647 3509 3647 2328 
Q 3647 1150 3233 529 
Q 2819 -91 2034 -91 
Q 1250 -91 836 529 
Q 422 1150 422 2328 
Q 422 3509 836 4129 
Q 1250 4750 2034 4750 
z
" transform="scale(0.015625)"/>
        <path id="DejaVuSans-2d" d="M 313 2009 
L 1997 2009 
L 1997 1497 
L 313 1497 
L 313 2009 
z
" transform="scale(0.015625)"/>
        <path id="DejaVuSans-35" d="M 691 4666 
L 3169 4666 
L 3169 4134 
L 1269 4134 
L 1269 2991 
Q 1406 3038 1543 3061 
Q 1681 3084 1819 3084 
Q 2600 3084 3056 2656 
Q 3513 2228 3513 1497 
Q 3513 744 3044 326 
Q 2575 -91 1722 -91 
Q 1428 -91 1123 -41 
Q 819 9 494 109 
L 494 744 
Q 775 591 1075 516 
Q 1375 441 1709 441 
Q 2250 441 2565 725 
Q 2881 1009 2881 1497 
Q 2881 1984 2565 2268 
Q 2250 2553 1709 2553 
Q 1456 2553 1204 2497 
Q 953 2441 691 2322 
L 691 4666 
z
" transform="scale(0.015625)"/>
        <path id="DejaVuSans-31" d="M 794 531 
L 1825 531 
L 1825 4091 
L 703 3866 
L 703 4441 
L 1819 4666 
L 2450 4666 
L 2450 531 
L 3481 531 
L 3481 0 
L 794 0 
L 794 531 
z
" transform="scale(0.015625)"/>
       </defs>
       <use xlink:href="#DejaVuSans-32"/>
       <use xlink:href="#DejaVuSans-30" x="63.623047"/>
       <use xlink:href="#DejaVuSans-32" x="127.246094"/>
       <use xlink:href="#DejaVuSans-30" x="190.869141"/>
       <use xlink:href="#DejaVuSans-2d" x="254.492188"/>
       <use xlink:href="#DejaVuSans-30" x="290.576172"/>
       <use xlink:href="#DejaVuSans-35" x="354.199219"/>
       <use xlink:href="#DejaVuSans-2d" x="417.822266"/>
       <use xlink:href="#DejaVuSans-31" x="453.90625"/>
       <use xlink:href="#DejaVuSans-35" x="517.529297"/>
      </g>
     </g>
    </g>
    <g id="xtick_2">
     <g id="line2d_2">
      <g>
       <use xlink:href="#ma63310f887" x="212.435902" y="320.4" style="stroke: #000000; stroke-width: 0.8"/>
      </g>
     </g>
     <g id="text_2">
      <!-- 2020-06-01 -->
      <g transform="translate(183.37809 334.998438) scale(0.1 -0.1)">
       <defs>
        <path id="DejaVuSans-36" d="M 2113 2584 
Q 1688 2584 1439 2293 
Q 1191 2003 1191 1497 
Q 1191 994 1439 701 
Q 1688 409 2113 409 
Q 2538 409 2786 701 
Q 3034 994 3034 1497 
Q 3034 2003 2786 2293 
Q 2538 2584 2113 2584 
z
M 3366 4563 
L 3366 3988 
Q 3128 4100 2886 4159 
Q 2644 4219 2406 4219 
Q 1781 4219 1451 3797 
Q 1122 3375 1075 2522 
Q 1259 2794 1537 2939 
Q 1816 3084 2150 3084 
Q 2853 3084 3261 2657 
Q 3669 2231 3669 1497 
Q 3669 778 3244 343 
Q 2819 -91 2113 -91 
Q 1303 -91 875 529 
Q 447 1150 447 2328 
Q 447 3434 972 4092 
Q 1497 4750 2381 4750 
Q 2619 4750 2861 4703 
Q 3103 4656 3366 4563 
z
" transform="scale(0.015625)"/>
       </defs>
       <use xlink:href="#DejaVuSans-32"/>
       <use xlink:href="#DejaVuSans-30" x="63.623047"/>
       <use xlink:href="#DejaVuSans-32" x="127.246094"/>
       <use xlink:href="#DejaVuSans-30" x="190.869141"/>
       <use xlink:href="#DejaVuSans-2d" x="254.492188"/>
       <use xlink:href="#DejaVuSans-30" x="290.576172"/>
       <use xlink:href="#DejaVuSans-36" x="354.199219"/>
       <use xlink:href="#DejaVuSans-2d" x="417.822266"/>
       <use xlink:href="#DejaVuSans-30" x="453.90625"/>
       <use xlink:href="#DejaVuSans-31" x="517.529297"/>
      </g>
     </g>
    </g>
    <g id="xtick_3">
     <g id="line2d_3">
      <g>
       <use xlink:href="#ma63310f887" x="280.427924" y="320.4" style="stroke: #000000; stroke-width: 0.8"/>
      </g>
     </g>
     <g id="text_3">
      <!-- 2020-06-15 -->
      <g transform="translate(251.370111 334.998438) scale(0.1 -0.1)">
       <use xlink:href="#DejaVuSans-32"/>
       <use xlink:href="#DejaVuSans-30" x="63.623047"/>
       <use xlink:href="#DejaVuSans-32" x="127.246094"/>
       <use xlink:href="#DejaVuSans-30" x="190.869141"/>
       <use xlink:href="#DejaVuSans-2d" x="254.492188"/>
       <use xlink:href="#DejaVuSans-30" x="290.576172"/>
       <use xlink:href="#DejaVuSans-36" x="354.199219"/>
       <use xlink:href="#DejaVuSans-2d" x="417.822266"/>
       <use xlink:href="#DejaVuSans-31" x="453.90625"/>
       <use xlink:href="#DejaVuSans-35" x="517.529297"/>
      </g>
     </g>
    </g>
    <g id="xtick_4">
     <g id="line2d_4">
      <g>
       <use xlink:href="#ma63310f887" x="358.133092" y="320.4" style="stroke: #000000; stroke-width: 0.8"/>
      </g>
     </g>
     <g id="text_4">
      <!-- 2020-07-01 -->
      <g transform="translate(329.075279 334.998438) scale(0.1 -0.1)">
       <defs>
        <path id="DejaVuSans-37" d="M 525 4666 
L 3525 4666 
L 3525 4397 
L 1831 0 
L 1172 0 
L 2766 4134 
L 525 4134 
L 525 4666 
z
" transform="scale(0.015625)"/>
       </defs>
       <use xlink:href="#DejaVuSans-32"/>
       <use xlink:href="#DejaVuSans-30" x="63.623047"/>
       <use xlink:href="#DejaVuSans-32" x="127.246094"/>
       <use xlink:href="#DejaVuSans-30" x="190.869141"/>
       <use xlink:href="#DejaVuSans-2d" x="254.492188"/>
       <use xlink:href="#DejaVuSans-30" x="290.576172"/>
       <use xlink:href="#DejaVuSans-37" x="354.199219"/>
       <use xlink:href="#DejaVuSans-2d" x="417.822266"/>
       <use xlink:href="#DejaVuSans-30" x="453.90625"/>
       <use xlink:href="#DejaVuSans-31" x="517.529297"/>
      </g>
     </g>
    </g>
    <g id="xtick_5">
     <g id="line2d_5">
      <g>
       <use xlink:href="#ma63310f887" x="426.125113" y="320.4" style="stroke: #000000; stroke-width: 0.8"/>
      </g>
     </g>
     <g id="text_5">
      <!-- 2020-07-15 -->
      <g transform="translate(397.067301 334.998438) scale(0.1 -0.1)">
       <use xlink:href="#DejaVuSans-32"/>
       <use xlink:href="#DejaVuSans-30" x="63.623047"/>
       <use xlink:href="#DejaVuSans-32" x="127.246094"/>
       <use xlink:href="#DejaVuSans-30" x="190.869141"/>
       <use xlink:href="#DejaVuSans-2d" x="254.492188"/>
       <use xlink:href="#DejaVuSans-30" x="290.576172"/>
       <use xlink:href="#DejaVuSans-37" x="354.199219"/>
       <use xlink:href="#DejaVuSans-2d" x="417.822266"/>
       <use xlink:href="#DejaVuSans-31" x="453.90625"/>
       <use xlink:href="#DejaVuSans-35" x="517.529297"/>
      </g>
     </g>
    </g>
    <g id="xtick_6">
     <g id="line2d_6">
      <g>
       <use xlink:href="#ma63310f887" x="508.686854" y="320.4" style="stroke: #000000; stroke-width: 0.8"/>
      </g>
     </g>
     <g id="text_6">
      <!-- 2020-08-01 -->
      <g transform="translate(479.629042 334.998438) scale(0.1 -0.1)">
       <defs>
        <path id="DejaVuSans-38" d="M 2034 2216 
Q 1584 2216 1326 1975 
Q 1069 1734 1069 1313 
Q 1069 891 1326 650 
Q 1584 409 2034 409 
Q 2484 409 2743 651 
Q 3003 894 3003 1313 
Q 3003 1734 2745 1975 
Q 2488 2216 2034 2216 
z
M 1403 2484 
Q 997 2584 770 2862 
Q 544 3141 544 3541 
Q 544 4100 942 4425 
Q 1341 4750 2034 4750 
Q 2731 4750 3128 4425 
Q 3525 4100 3525 3541 
Q 3525 3141 3298 2862 
Q 3072 2584 2669 2484 
Q 3125 2378 3379 2068 
Q 3634 1759 3634 1313 
Q 3634 634 3220 271 
Q 2806 -91 2034 -91 
Q 1263 -91 848 271 
Q 434 634 434 1313 
Q 434 1759 690 2068 
Q 947 2378 1403 2484 
z
M 1172 3481 
Q 1172 3119 1398 2916 
Q 1625 2713 2034 2713 
Q 2441 2713 2670 2916 
Q 2900 3119 2900 3481 
Q 2900 3844 2670 4047 
Q 2441 4250 2034 4250 
Q 1625 4250 1398 4047 
Q 1172 3844 1172 3481 
z
" transform="scale(0.015625)"/>
       </defs>
       <use xlink:href="#DejaVuSans-32"/>
       <use xlink:href="#DejaVuSans-30" x="63.623047"/>
       <use xlink:href="#DejaVuSans-32" x="127.246094"/>
       <use xlink:href="#DejaVuSans-30" x="190.869141"/>
       <use xlink:href="#DejaVuSans-2d" x="254.492188"/>
       <use xlink:href="#DejaVuSans-30" x="290.576172"/>
       <use xlink:href="#DejaVuSans-38" x="354.199219"/>
       <use xlink:href="#DejaVuSans-2d" x="417.822266"/>
       <use xlink:href="#DejaVuSans-30" x="453.90625"/>
       <use xlink:href="#DejaVuSans-31" x="517.529297"/>
      </g>
     </g>
    </g>
   </g>
   <g id="matplotlib.axis_2">
    <g id="ytick_1">
     <g id="line2d_7">
      <defs>
       <path id="m58e3f41c26" d="M 0 0 
L -3.5 0 
" style="stroke: #000000; stroke-width: 0.8"/>
      </defs>
      <g>
       <use xlink:href="#m58e3f41c26" x="72" y="316.02311" style="stroke: #000000; stroke-width: 0.8"/>
      </g>
     </g>
     <g id="text_7">
      <!-- −2 -->
      <g transform="translate(50.257812 319.822329) scale(0.1 -0.1)">
       <defs>
        <path id="DejaVuSans-2212" d="M 678 2272 
L 4684 2272 
L 4684 1741 
L 678 1741 
L 678 2272 
z
" transform="scale(0.015625)"/>
       </defs>
       <use xlink:href="#DejaVuSans-2212"/>
       <use xlink:href="#DejaVuSans-32" x="83.789062"/>
      </g>
     </g>
    </g>
    <g id="ytick_2">
     <g id="line2d_8">
      <g>
       <use xlink:href="#m58e3f41c26" x="72" y="262.270962" style="stroke: #000000; stroke-width: 0.8"/>
      </g>
     </g>
     <g id="text_8">
      <!-- −1 -->
      <g transform="translate(50.257812 266.070181) scale(0.1 -0.1)">
       <use xlink:href="#DejaVuSans-2212"/>
       <use xlink:href="#DejaVuSans-31" x="83.789062"/>
      </g>
     </g>
    </g>
    <g id="ytick_3">
     <g id="line2d_9">
      <g>
       <use xlink:href="#m58e3f41c26" x="72" y="208.518814" style="stroke: #000000; stroke-width: 0.8"/>
      </g>
     </g>
     <g id="text_9">
      <!-- 0 -->
      <g transform="translate(58.6375 212.318032) scale(0.1 -0.1)">
       <use xlink:href="#DejaVuSans-30"/>
      </g>
     </g>
    </g>
    <g id="ytick_4">
     <g id="line2d_10">
      <g>
       <use xlink:href="#m58e3f41c26" x="72" y="154.766666" style="stroke: #000000; stroke-width: 0.8"/>
      </g>
     </g>
     <g id="text_10">
      <!-- 1 -->
      <g transform="translate(58.6375 158.565884) scale(0.1 -0.1)">
       <use xlink:href="#DejaVuSans-31"/>
      </g>
     </g>
    </g>
    <g id="ytick_5">
     <g id="line2d_11">
      <g>
       <use xlink:href="#m58e3f41c26" x="72" y="101.014518" style="stroke: #000000; stroke-width: 0.8"/>
      </g>
     </g>
     <g id="text_11">
      <!-- 2 -->
      <g transform="translate(58.6375 104.813736) scale(0.1 -0.1)">
       <use xlink:href="#DejaVuSans-32"/>
      </g>
     </g>
    </g>
    <g id="ytick_6">
     <g id="line2d_12">
      <g>
       <use xlink:href="#m58e3f41c26" x="72" y="47.262369" style="stroke: #000000; stroke-width: 0.8"/>
      </g>
     </g>
     <g id="text_12">
      <!-- 3 -->
      <g transform="translate(58.6375 51.061588) scale(0.1 -0.1)">
       <defs>
        <path id="DejaVuSans-33" d="M 2597 2516 
Q 3050 2419 3304 2112 
Q 3559 1806 3559 1356 
Q 3559 666 3084 287 
Q 2609 -91 1734 -91 
Q 1441 -91 1130 -33 
Q 819 25 488 141 
L 488 750 
Q 750 597 1062 519 
Q 1375 441 1716 441 
Q 2309 441 2620 675 
Q 2931 909 2931 1356 
Q 2931 1769 2642 2001 
Q 2353 2234 1838 2234 
L 1294 2234 
L 1294 2753 
L 1863 2753 
Q 2328 2753 2575 2939 
Q 2822 3125 2822 3475 
Q 2822 3834 2567 4026 
Q 2313 4219 1838 4219 
Q 1578 4219 1281 4162 
Q 984 4106 628 3988 
L 628 4550 
Q 988 4650 1302 4700 
Q 1616 4750 1894 4750 
Q 2613 4750 3031 4423 
Q 3450 4097 3450 3541 
Q 3450 3153 3228 2886 
Q 3006 2619 2597 2516 
z
" transform="scale(0.015625)"/>
       </defs>
       <use xlink:href="#DejaVuSans-33"/>
      </g>
     </g>
    </g>
   </g>
   <g id="line2d_13">
    <path d="M 72 287.021497 
L 72.404714 298.412757 
L 72.607072 296.682973 
L 72.809429 285.96675 
L 73.214143 254.915018 
L 73.618858 242.426821 
L 75.035358 159.101858 
L 75.237715 156.127474 
L 75.440073 161.211351 
L 75.64243 169.459468 
L 75.844787 172.771371 
L 76.047144 188.086288 
L 76.654216 258.669915 
L 77.05893 282.844701 
L 77.261287 287.232446 
L 77.463645 286.852737 
L 77.666002 276.094324 
L 78.070716 247.468508 
L 78.475431 234.938122 
L 78.677788 225.761828 
L 79.487217 168.510196 
L 79.891931 152.161627 
L 80.094288 154.123456 
L 80.903717 196.735208 
L 81.713146 272.423807 
L 82.11786 287.148066 
L 82.320218 289.194274 
L 82.522575 288.898945 
L 82.724932 286.367554 
L 82.927289 279.511703 
L 83.332004 256.412757 
L 83.736718 242.026017 
L 83.939075 238.967253 
L 84.141432 239.241487 
L 84.546147 245.675439 
L 84.748504 247.784932 
L 84.950861 247.806027 
L 85.355576 252.025013 
L 85.557933 248.670919 
L 85.76029 254.830638 
L 86.569719 300.015972 
L 86.772076 306.133501 
L 86.974433 307.736715 
L 87.176791 307.8 
L 87.379148 306.449925 
L 87.581505 302.695028 
L 87.783862 295.902461 
L 88.188577 273.731693 
L 88.390934 268.521246 
L 89.200363 260.399699 
L 89.40272 256.243998 
L 89.807434 241.372074 
L 90.212149 238.903968 
L 90.414506 236.182722 
L 90.616863 244.1777 
L 91.223935 295.037569 
L 91.628649 306.133501 
L 91.831006 306.196786 
L 92.033364 303.686489 
L 92.842792 257.277649 
L 93.04515 255.125967 
L 93.449864 246.477047 
L 93.652221 245.949674 
L 93.854578 242.996384 
L 94.056936 242.363536 
L 94.259293 239.72667 
L 94.46165 233.292717 
L 94.664007 230.423807 
L 94.866364 231.351984 
L 95.068722 234.516223 
L 95.271079 230.655851 
L 95.473436 240.823606 
L 96.080508 295.417278 
L 96.485222 304.677951 
L 96.687579 306.597589 
L 96.889937 302.230939 
L 97.699365 256.539327 
L 98.306437 245.970768 
L 98.508794 245.59106 
L 99.52058 224.242993 
L 99.722937 225.508689 
L 99.925295 229.896434 
L 100.127652 228.061175 
L 100.330009 238.27112 
L 100.937081 292.928076 
L 101.341795 305.268609 
L 101.544152 306.26007 
L 101.74651 302.526268 
L 101.948867 290.50216 
L 102.353581 260.294224 
L 102.555938 258.733199 
L 103.567724 240.844701 
L 104.377153 218.610648 
L 104.57951 219.897438 
L 104.781868 225.318835 
L 104.984225 225.29774 
L 105.186582 234.241989 
L 105.793654 289.763837 
L 106.198368 302.589553 
L 106.400725 304.361527 
L 106.603083 300.311301 
L 107.412511 254.11341 
L 107.614869 252.383626 
L 107.817226 248.692014 
L 108.22194 234.07323 
L 108.626655 212.23998 
L 108.829012 206.270116 
L 109.031369 204.371572 
L 109.638441 213.104872 
L 109.840798 218.568458 
L 110.043155 229.031542 
L 110.650227 284.405726 
L 111.054941 298.750276 
L 111.257298 300.669915 
L 111.459655 298.919036 
L 111.662013 287.443395 
L 112.066727 258.015972 
L 112.471442 242.933099 
L 113.887942 174.121447 
L 114.090299 171.73772 
L 114.292656 178.593571 
L 114.495014 190.090306 
L 114.697371 194.710095 
L 115.102085 228.926067 
L 115.709157 278.583526 
L 116.113871 292.611652 
L 116.316228 292.780412 
L 116.518586 291.113913 
L 116.720943 287.46449 
L 117.125657 260.06218 
L 118.542158 154.777398 
L 118.744515 144.609643 
L 118.946872 140.707082 
L 119.149229 144.398694 
L 119.756301 182.496133 
L 120.56573 262.319337 
L 120.970444 282.254043 
L 121.172801 286.367554 
L 121.375159 288.012958 
L 121.577516 286.557408 
L 121.779873 278.583526 
L 122.589302 227.280663 
L 123.196374 201.671421 
L 123.398731 197.072727 
L 123.601088 197.283677 
L 123.803445 196.714114 
L 124.410517 210.193772 
L 124.612874 221.226419 
L 125.219946 277.845203 
L 125.62466 292.463988 
L 125.827017 294.468006 
L 126.029374 291.91552 
L 127.04116 235.191261 
L 127.648232 197.557911 
L 128.255304 154.925063 
L 128.457661 147.330889 
L 128.660018 146.99337 
L 129.26709 191.588046 
L 130.278876 282.971271 
L 130.481233 290.839679 
L 130.68359 292.231944 
L 130.885947 289.637268 
L 132.504805 180.070216 
L 133.111877 137.142039 
L 133.314234 127.670417 
L 133.516591 129.379106 
L 133.921306 144.841688 
L 134.123663 152.309292 
L 135.135449 262.84671 
L 135.540163 275.545856 
L 135.74252 274.596585 
L 135.944878 263.943646 
L 136.349592 232.343446 
L 136.551949 225.529784 
L 136.754306 213.590055 
L 136.956664 218.188749 
L 137.159021 206.818584 
L 137.766092 197.937619 
L 137.96845 198.338423 
L 138.373164 192.895932 
L 138.777879 200.490105 
L 138.980236 201.333903 
L 139.182593 213.210347 
L 139.789665 270.187745 
L 140.194379 285.650326 
L 140.396736 287.738724 
L 140.599093 284.701055 
L 141.003808 254.303265 
L 141.408522 232.997388 
L 142.015594 219.51773 
L 142.622665 210.320342 
L 142.825023 210.046107 
L 143.02738 208.822602 
L 143.229737 209.518734 
L 143.634451 214.834656 
L 143.836809 213.590055 
L 144.039166 223.84219 
L 144.646238 273.499648 
L 145.050952 285.671421 
L 145.253309 286.979307 
L 145.455666 283.815068 
L 145.860381 253.965746 
L 146.062738 237.406228 
L 146.66981 220.825615 
L 146.872167 218.125465 
L 147.074524 217.028528 
L 147.479238 205.848217 
L 147.681596 214.370568 
L 147.883953 215.362029 
L 148.08631 217.998895 
L 148.491024 227.386138 
L 148.693382 226.014967 
L 149.098096 249.83114 
L 149.502811 278.203817 
L 149.907525 291.430337 
L 150.109882 293.518734 
L 150.312239 292.928076 
L 150.514597 290.059166 
L 150.716954 284.258061 
L 151.121668 263.036565 
L 151.526383 242.194776 
L 151.931097 236.288197 
L 152.133454 235.845203 
L 152.335811 237.849221 
L 152.538169 238.376595 
L 152.740526 236.288197 
L 152.942883 236.583526 
L 153.14524 235.592064 
L 153.347597 235.634254 
L 153.549955 232.659869 
L 153.752312 234.895932 
L 154.764098 287.253541 
L 154.966455 291.282672 
L 155.168812 292.696032 
L 155.573527 288.687996 
L 155.775884 277.423305 
L 156.78767 198.127474 
L 157.799456 154.756303 
L 158.001813 156.802511 
L 158.406528 170.23998 
L 158.608885 184.036062 
L 159.215956 253.881366 
L 159.620671 275.86228 
L 159.823028 279.131994 
L 160.025385 278.203817 
L 160.227743 268.225917 
L 160.632457 235.191261 
L 161.8466 183.993872 
L 162.251315 173.762833 
L 162.453672 173.910497 
L 162.656029 176.821597 
L 163.465458 209.20231 
L 164.072529 270.12446 
L 164.477244 289.067705 
L 164.679601 289.405224 
L 164.881958 286.114415 
L 165.084316 275.777901 
L 165.48903 243.439377 
L 166.500816 207.725665 
L 167.310245 164.038071 
L 167.512602 167.45545 
L 167.917316 188.402712 
L 168.119674 192.938122 
L 168.322031 204.498142 
L 168.929102 264.977298 
L 169.333817 280.439879 
L 169.536174 284.026017 
L 169.738531 280.292215 
L 170.143246 252.510196 
L 170.54796 221.648317 
L 171.357389 176.273129 
L 171.559746 170.134505 
L 172.166818 145.49563 
L 172.369175 147.141035 
L 172.571532 155.199297 
L 173.178604 194.878855 
L 173.785675 267.25555 
L 174.19039 287.000402 
L 174.392747 290.038071 
L 174.595104 288.181718 
L 174.999819 263.542843 
L 175.404533 238.081266 
L 177.023391 158.405726 
L 177.225748 158.933099 
L 177.428105 162.92004 
L 177.630462 179.817077 
L 177.83282 182.306278 
L 178.237534 227.238473 
L 178.642248 270.947162 
L 179.046963 290.50216 
L 179.24932 294.299247 
L 179.451677 291.725665 
L 179.654034 282.865796 
L 180.261106 242.258061 
L 181.879964 143.449422 
L 182.082321 140.116424 
L 182.284678 145.896434 
L 183.094107 203.316826 
L 183.498821 243.080763 
L 183.903536 264.956203 
L 184.30825 272.95118 
L 184.510607 274.343446 
L 184.712965 270.630738 
L 184.915322 256.98232 
L 185.724751 173.340934 
L 186.129465 151.52878 
L 186.331822 145.347966 
L 186.53418 144.567454 
L 186.736537 147.16213 
L 187.748323 188.423807 
L 188.557752 253.923556 
L 188.962466 268.394676 
L 189.164823 270.483074 
L 189.36718 270.567454 
L 189.569538 269.808036 
L 189.771895 258.796484 
L 190.986038 160.810547 
L 191.188395 155.389151 
L 191.390752 155.346961 
L 191.795467 164.692014 
L 192.604896 196.671924 
L 193.414325 261.370065 
L 193.819039 275.377097 
L 194.021396 276.474033 
L 194.426111 272.423807 
L 194.628468 263.268609 
L 195.437897 201.017479 
L 195.640254 195.891411 
L 195.842611 197.136012 
L 196.247325 203.337921 
L 196.449683 203.928579 
L 196.65204 203.527775 
L 197.056754 211.923556 
L 197.259112 212.788448 
L 197.461469 221.395178 
L 198.06854 270.841688 
L 198.473255 285.354997 
L 198.675612 285.460472 
L 198.877969 281.72667 
L 199.282684 250.231944 
L 199.687398 226.879859 
L 201.306256 158.933099 
L 201.508613 157.751783 
L 202.115684 177.39116 
L 202.318042 188.803516 
L 202.925113 254.366549 
L 203.329828 272.423807 
L 203.532185 274.57549 
L 203.734542 271.516725 
L 203.936899 259.724661 
L 204.341614 224.939126 
L 205.758114 168.995379 
L 205.960471 166.442893 
L 206.162829 166.590558 
L 206.365186 168.046107 
L 206.7699 180.175691 
L 206.972257 183.445404 
L 207.174615 194.541336 
L 207.781686 254.978302 
L 208.186401 271.516725 
L 208.388758 274.638774 
L 208.591115 271.221396 
L 208.793472 259.070718 
L 209.198187 224.475038 
L 209.805258 201.671421 
L 210.209973 181.314817 
L 210.817044 138.639779 
L 211.019402 129.948669 
L 211.221759 132.986339 
L 211.626473 158.047112 
L 211.82883 163.384129 
L 212.031188 178.467002 
L 212.638259 245.063687 
L 213.042974 264.091311 
L 213.245331 268.183727 
L 213.447688 266.432848 
L 213.650045 255.463486 
L 214.257117 211.164139 
L 214.661831 184.183727 
L 215.47126 123.409242 
L 215.875975 106.280161 
L 216.078332 105.794977 
L 216.280689 111.469513 
L 217.090118 176.779407 
L 217.697189 240.190758 
L 218.101904 259.091813 
L 218.304261 262.530286 
L 218.506618 263.922551 
L 218.708976 262.635761 
L 218.911333 249.599096 
L 219.518404 193.48659 
L 220.125476 157.435359 
L 220.327833 155.220392 
L 220.53019 157.498644 
L 221.541976 200.827624 
L 221.744334 206.101356 
L 222.553762 264.365545 
L 222.958477 275.503666 
L 223.160834 277.254545 
L 223.363191 277.613159 
L 223.565549 276.009945 
L 223.767906 267.086791 
L 224.374977 227.955701 
L 224.779692 220.192767 
L 225.386763 222.30226 
L 225.589121 225.909493 
L 225.791478 226.816575 
L 226.196192 235.40221 
L 226.398549 235.043596 
L 226.600907 241.625213 
L 227.410335 296.535309 
L 227.612693 300.669915 
L 227.81505 302.399699 
L 228.017407 299.129985 
L 228.826836 255.505676 
L 229.029193 253.121949 
L 229.23155 247.236464 
L 230.648051 182.285183 
L 230.850408 182.875841 
L 231.255122 197.64229 
L 231.45748 208.801507 
L 232.064551 274.027022 
L 232.469266 291.620191 
L 232.671623 294.404721 
L 232.87398 293.160121 
L 233.278694 267.25555 
L 233.683409 244.1777 
L 235.302267 178.024008 
L 235.504624 177.412255 
L 236.111695 196.988348 
L 236.314053 207.599096 
L 236.921124 271.242491 
L 237.325839 287.50668 
L 237.528196 290.713109 
L 237.730553 288.540331 
L 238.135267 264.006931 
L 238.539982 241.688498 
L 239.349411 210.003918 
L 239.754125 199.751783 
L 240.15884 189.288699 
L 240.361197 189.03556 
L 240.563554 194.625716 
L 240.968268 212.661878 
L 241.170626 220.424812 
L 241.777697 277.31783 
L 242.182412 293.560924 
L 242.384769 296.11341 
L 242.587126 293.054646 
L 242.99184 267.740733 
L 243.396555 249.345957 
L 245.21777 172.876846 
L 245.420127 177.222401 
L 246.027199 204.666901 
L 246.836627 279.933601 
L 247.038985 288.498142 
L 247.241342 291.74676 
L 247.443699 289.152084 
L 247.848413 265.019488 
L 249.467271 150.305274 
L 249.669628 142.036062 
L 249.871985 140.053139 
L 250.074343 140.221899 
L 250.2767 147.330889 
L 250.883772 180.21788 
L 251.6932 257.003415 
L 252.097915 271.875339 
L 252.300272 275.018483 
L 252.502629 275.292717 
L 252.704986 271.326871 
L 253.109701 237.785937 
L 253.91913 162.814566 
L 254.323844 146.634756 
L 254.728558 137.606128 
L 254.930916 136.319337 
L 255.133273 143.997891 
L 255.740345 182.369563 
L 256.549773 259.387142 
L 256.954488 275.229432 
L 257.156845 279.131994 
L 257.359202 280.840683 
L 257.561559 279.849221 
L 257.966274 250.274134 
L 258.573345 198.675942 
L 258.97806 176.484078 
L 259.382774 165.198292 
L 259.585131 161.675439 
L 259.787489 161.232446 
L 259.989846 163.911502 
L 260.39456 180.281165 
L 260.596917 193.950678 
L 261.203989 257.425314 
L 261.608704 276.579508 
L 261.811061 279.574987 
L 262.013418 278.77338 
L 262.418132 254.23998 
L 262.62049 241.941637 
L 263.025204 232.048117 
L 263.227561 229.179206 
L 263.429918 228.145555 
L 263.834633 229.45344 
L 264.03699 229.137017 
L 264.239347 230.107383 
L 264.441704 230.191763 
L 264.644062 229.917529 
L 264.846419 232.005927 
L 265.048776 236.140532 
L 265.251133 236.140532 
L 265.45349 240.254043 
L 266.060562 283.730688 
L 266.465277 296.872828 
L 266.667634 298.454947 
L 266.869991 294.172677 
L 267.072348 286.030035 
L 267.477063 258.901959 
L 268.084134 236.203817 
L 268.488849 225.677449 
L 269.09592 214.159618 
L 269.500635 210.109392 
L 269.702992 212.345455 
L 269.905349 216.037067 
L 270.107706 216.733199 
L 270.310063 223.188247 
L 270.917135 273.204319 
L 271.32185 285.460472 
L 271.524207 287.654345 
L 271.726564 285.903466 
L 274.15485 140.960221 
L 274.357208 133.619186 
L 274.559565 137.036565 
L 275.166636 162.793471 
L 275.976065 246.308287 
L 276.38078 259.176193 
L 276.583137 258.458965 
L 276.987851 236.098343 
L 277.392566 206.50216 
L 278.404352 148.195781 
L 278.606709 145.073732 
L 279.011423 131.530789 
L 279.213781 129.885384 
L 279.416138 134.252034 
L 280.023209 176.969262 
L 280.630281 250.020994 
L 281.034995 273.351984 
L 281.237353 278.351482 
L 281.43971 276.769362 
L 281.642067 270.736213 
L 282.249139 227.976796 
L 282.85621 193.52878 
L 283.867996 149.714616 
L 284.070354 148.49111 
L 284.272711 156.844701 
L 285.284497 241.920542 
L 285.689211 274.870819 
L 286.093926 289.974787 
L 286.296283 292.316323 
L 286.49864 290.45997 
L 286.700997 287.443395 
L 287.105712 255.674435 
L 287.712783 202.873832 
L 288.522212 158.384631 
L 288.724569 151.085786 
L 288.926927 149.102863 
L 289.129284 152.77338 
L 289.736355 187.411251 
L 290.545784 259.197288 
L 290.950499 274.849724 
L 291.152856 277.697539 
L 291.355213 277.781919 
L 291.55757 276.263084 
L 291.759927 263.479558 
L 292.771714 162.392667 
L 293.176428 139.863285 
L 293.581142 128.345455 
L 293.7835 126.573481 
L 293.985857 130.180713 
L 294.592928 156.338423 
L 295.402357 241.667403 
L 295.807072 256.729181 
L 296.009429 256.560422 
L 296.414143 235.760824 
L 297.830644 97.293722 
L 298.235358 83.645304 
L 298.437715 80.987343 
L 298.640073 81.261577 
L 298.84243 83.37107 
L 299.044787 91.619186 
L 299.449501 119.295731 
L 300.056573 200.363536 
L 300.461287 226.268106 
L 300.663645 232.44892 
L 300.866002 233.187243 
L 301.068359 226.183727 
L 301.473073 195.342943 
L 302.484859 87.273631 
L 302.687217 75.650326 
L 302.889574 75.755801 
L 303.091931 84.067202 
L 303.496646 92.948167 
L 303.90136 115.793973 
L 304.306074 144.483074 
L 304.913146 215.551883 
L 305.31786 241.583024 
L 305.520218 247.299749 
L 305.722575 245.46449 
L 305.924932 238.14455 
L 306.532004 197.114917 
L 307.54379 125.223405 
L 307.746147 114.739227 
L 307.948504 113.832145 
L 308.757933 146.972275 
L 309.162647 173.741738 
L 309.769719 238.439879 
L 310.174433 258.859769 
L 310.376791 263.374083 
L 310.579148 262.783425 
L 310.983862 238.735208 
L 312.198005 131.889402 
L 312.60272 119.949674 
L 312.805077 115.456454 
L 313.007434 116.026017 
L 313.209791 119.823104 
L 313.816863 148.153591 
L 314.01922 162.202813 
L 314.626292 226.479056 
L 315.031006 247.531793 
L 315.233364 252.235962 
L 315.435721 251.560924 
L 315.840435 232.280161 
L 316.24515 213.062682 
L 316.649864 200.72215 
L 317.054578 185.006429 
L 317.66165 177.285686 
L 317.864007 176.821597 
L 318.066364 175.89342 
L 318.268722 180.703064 
L 318.875793 203.443395 
L 319.685222 263.627223 
L 320.089937 276.748267 
L 320.292294 278.435861 
L 320.697008 270.293219 
L 321.101723 243.354997 
L 322.315866 163.320844 
L 322.72058 152.794475 
L 322.922937 150.410748 
L 323.125295 154.650829 
L 323.732366 183.023506 
L 324.541795 253.417278 
L 324.94651 268.099347 
L 325.148867 271.073732 
L 325.351224 271.137017 
L 325.553581 268.816575 
L 325.755938 256.159618 
L 326.970082 140.707082 
L 327.172439 134.209844 
L 327.374796 132.585535 
L 327.77951 126.86881 
L 327.981868 131.994877 
L 328.184225 141.023506 
L 328.791296 194.077248 
L 329.196011 238.988348 
L 329.398368 254.640784 
L 329.803083 265.019488 
L 330.00544 264.049121 
L 330.207797 258.290206 
L 330.814869 208.463988 
L 331.42194 169.206328 
L 331.826655 145.917529 
L 332.029012 142.943144 
L 332.231369 142.964239 
L 332.433726 143.154093 
L 332.636083 145.305776 
L 332.838441 149.967755 
L 333.243155 173.509694 
L 333.445512 182.770367 
L 334.052584 250.274134 
L 334.457298 272.655851 
L 334.659655 278.224912 
L 334.862013 275.756806 
L 335.266727 255.379106 
L 335.671442 230.360522 
L 336.48087 189.16213 
L 336.683228 183.951683 
L 336.885585 182.812557 
L 337.087942 176.462983 
L 337.290299 174.56444 
L 337.695014 181.209342 
L 338.099728 196.060171 
L 338.302085 202.09332 
L 339.111514 269.702562 
L 339.313871 276.07323 
L 339.516228 278.372577 
L 339.718586 274.195781 
L 340.1233 250.210849 
L 340.932729 204.540331 
L 342.349229 141.107885 
L 342.551587 141.023506 
L 343.158658 166.379608 
L 343.76573 230.845706 
L 344.170444 249.345957 
L 344.372801 254.23998 
L 344.575159 252.046107 
L 344.777516 244.937117 
L 345.18223 213.210347 
L 346.194016 128.32436 
L 346.598731 113.157107 
L 347.003445 106.36454 
L 347.205802 105.499648 
L 347.40816 108.769362 
L 347.610517 116.827624 
L 348.015231 143.639277 
L 348.82466 237.237469 
L 349.229374 254.809543 
L 349.431732 254.029031 
L 349.634089 248.080261 
L 349.836446 236.646811 
L 351.050589 129.379106 
L 351.455304 110.520241 
L 351.860018 101.428327 
L 352.062375 100.500151 
L 352.264733 104.233953 
L 352.46709 115.625213 
L 353.276519 200.975289 
L 353.681233 239.937619 
L 354.085947 260.673933 
L 354.288305 266.095329 
L 354.490662 266.685987 
L 354.693019 264.38664 
L 355.097733 221.205324 
L 355.704805 145.369061 
L 356.109519 119.991863 
L 356.716591 101.301758 
L 356.918948 100.183727 
L 357.121306 105.11994 
L 357.52602 131.446409 
L 357.728377 144.483074 
L 358.740163 242.574485 
L 359.144878 255.906479 
L 359.347235 257.826118 
L 359.549592 257.488599 
L 359.751949 243.101858 
L 360.763735 119.169161 
L 361.16845 99.571974 
L 361.573164 88.159618 
L 361.775521 85.796986 
L 361.977879 89.172175 
L 362.180236 96.365545 
L 362.58495 122.860773 
L 363.394379 214.054144 
L 363.799093 232.195781 
L 364.001451 233.039578 
L 364.203808 226.985334 
L 364.406165 216.64882 
L 365.013237 145.137017 
L 365.620308 78.772376 
L 366.025023 62.149573 
L 366.429737 55.8 
L 366.632094 56.306278 
L 366.834451 59.027524 
L 367.036809 67.992868 
L 367.441523 98.010949 
L 368.048595 179.901457 
L 368.453309 211.290708 
L 368.655666 220.066198 
L 368.858024 222.513209 
L 369.060381 218.505173 
L 369.262738 208.358513 
L 369.86981 143.006429 
L 370.476881 83.160121 
L 370.881596 66.052135 
L 371.083953 65.588046 
L 371.28631 66.326369 
L 371.488667 70.376595 
L 371.691024 76.789453 
L 372.298096 116.912004 
L 373.107525 204.413762 
L 373.512239 227.301758 
L 373.714597 231.794977 
L 374.119311 231.07775 
L 374.321668 217.956705 
L 375.333454 111.047614 
L 375.738169 97.399196 
L 375.940526 94.614666 
L 376.142883 93.47554 
L 376.34524 98.812557 
L 376.749955 125.835158 
L 377.559383 186.504169 
L 377.964098 222.196786 
L 378.368812 236.414766 
L 378.57117 236.646811 
L 378.773527 230.529282 
L 378.975884 218.969262 
L 380.392384 98.791462 
L 380.797099 88.560422 
L 381.201813 80.734204 
L 381.40417 84.615671 
L 382.011242 122.776394 
L 382.820671 208.189754 
L 383.225385 224.791462 
L 383.427743 225.466499 
L 383.6301 219.960723 
L 384.034814 197.030537 
L 385.0466 121.320844 
L 385.451315 104.107383 
L 385.653672 103.6222 
L 385.856029 107.524761 
L 386.058386 115.393169 
L 387.070172 187.558915 
L 387.474887 228.926067 
L 387.879601 251.497639 
L 388.284316 260.927072 
L 388.68903 263.521748 
L 388.891387 257.594073 
L 389.700816 212.682973 
L 390.307888 201.122953 
L 390.914959 187.980814 
L 391.117316 192.917027 
L 391.926745 233.735711 
L 392.533817 279.321848 
L 392.938531 292.084279 
L 393.140888 294.003918 
L 393.343246 293.539829 
L 393.545603 294.025013 
L 393.74796 284.785434 
L 394.355032 242.321346 
L 395.569175 184.057157 
L 395.771532 177.855249 
L 395.973889 179.099849 
L 396.176247 187.685485 
L 396.783318 231.056655 
L 397.188033 270.799498 
L 397.592747 289.194274 
L 397.795104 292.063184 
L 397.997461 289.447413 
L 398.402176 270.736213 
L 400.628105 139.061678 
L 400.830462 141.993872 
L 401.03282 152.267102 
L 401.639891 211.121949 
L 402.044606 256.876846 
L 402.44932 277.845203 
L 402.651677 281.979809 
L 402.854034 280.27112 
L 403.258749 261.496635 
L 403.663463 232.174686 
L 404.877607 122.755299 
L 405.282321 101.575992 
L 405.484678 97.230437 
L 405.687035 98.348468 
L 405.889393 109.191261 
L 406.294107 147.752788 
L 406.901179 227.639277 
L 407.305893 252.468006 
L 407.50825 258.248016 
L 407.710607 257.699548 
L 408.115322 235.781919 
L 409.73418 99.276645 
L 409.936537 94.192767 
L 410.138894 94.045103 
L 410.341251 98.791462 
L 410.948323 136.045103 
L 411.15068 152.456956 
L 411.757752 225.29774 
L 412.162466 250.126469 
L 412.364823 256.813561 
L 412.56718 258.64882 
L 412.971895 240.021999 
L 414.388395 138.808538 
L 414.79311 124.843697 
L 415.197824 117.96675 
L 415.400181 124.949171 
L 416.20961 189.478553 
L 416.614325 236.140532 
L 417.019039 259.93561 
L 417.221396 264.323355 
L 417.423753 263.753792 
L 417.828468 247.0888 
L 419.244968 146.276143 
L 419.649683 132.248016 
L 419.85204 128.303265 
L 420.054397 129.77991 
L 420.256754 138.703064 
L 421.066183 205.974787 
L 421.673255 262.720141 
L 422.077969 279.279658 
L 422.280326 281.832145 
L 422.482684 281.157107 
L 422.685041 280.988348 
L 423.089755 249.324862 
L 423.899184 178.234957 
L 424.708613 137.774887 
L 424.91097 134.505173 
L 425.113327 138.618684 
L 425.518042 165.493621 
L 425.720399 177.623204 
L 426.529828 254.345455 
L 426.934542 273.436364 
L 427.136899 278.035058 
L 427.339257 278.85776 
L 427.541614 279.089804 
L 427.743971 270.25103 
L 428.148685 228.778403 
L 428.755757 165.177197 
L 429.160471 138.829633 
L 429.565186 130.349473 
L 429.9699 134.378604 
L 430.374615 151.043596 
L 430.576972 163.00442 
L 431.386401 241.076745 
L 431.791115 253.649322 
L 431.993472 251.560924 
L 432.398187 230.698041 
L 433.207616 163.827122 
L 434.017044 91.534807 
L 434.219402 86.514214 
L 435.02883 114.675942 
L 435.433545 140.348468 
L 436.040617 213.484581 
L 436.445331 236.625716 
L 436.647688 241.899448 
L 436.850045 241.203315 
L 437.25476 220.045103 
L 437.659474 184.183727 
L 438.468903 108.727172 
L 438.67126 98.728177 
L 438.873617 99.719638 
L 439.075975 107.018483 
L 439.278332 106.554395 
L 439.480689 108.853742 
L 439.885403 127.902461 
L 440.290118 153.321848 
L 440.897189 228.715118 
L 441.301904 251.624209 
L 441.504261 257.19327 
L 441.706618 257.741738 
L 442.111333 242.616675 
L 442.920762 189.204319 
L 443.527833 153.406228 
L 444.134905 130.054144 
L 444.337262 127.396183 
L 444.539619 133.9778 
L 445.146691 180.238975 
L 445.753762 251.265595 
L 446.158477 273.03556 
L 446.360834 278.119437 
L 446.563191 276.07323 
L 446.967906 256.665897 
L 448.586763 143.955701 
L 448.991478 130.412757 
L 449.193835 128.029031 
L 449.396192 134.863787 
L 450.003264 176.315319 
L 450.812693 258.48006 
L 451.217407 272.128478 
L 451.419764 272.255048 
L 451.824479 254.619689 
L 452.43155 202.873832 
L 453.038622 159.861276 
L 453.443336 142.373581 
L 453.848051 134.294224 
L 454.050408 137.753792 
L 454.252765 148.005927 
L 454.65748 177.159116 
L 454.859837 185.829131 
L 455.669266 252.257057 
L 456.07398 266.158614 
L 456.276337 267.719638 
L 456.478694 265.67343 
L 456.681052 262.488096 
L 456.883409 254.28217 
L 457.288123 226.563435 
L 457.692838 215.319839 
L 457.895195 216.037067 
L 458.299909 221.943646 
L 458.502267 221.795982 
L 458.906981 217.872325 
L 459.109338 218.420794 
L 459.514053 222.681969 
L 459.71641 227.090809 
L 460.728196 286.304269 
L 461.13291 290.839679 
L 461.537625 287.443395 
L 461.739982 278.288197 
L 462.144696 242.890909 
L 463.561197 171.927574 
L 463.763554 164.481065 
L 463.965911 165.683476 
L 464.572983 185.660372 
L 465.382412 254.366549 
L 465.584769 261.454445 
L 465.787126 264.238975 
L 465.989483 261.749774 
L 467.608341 166.822602 
L 468.620127 145.094827 
L 468.822484 148.301256 
L 469.429556 175.218383 
L 470.036627 233.398192 
L 470.441342 251.645304 
L 470.643699 254.345455 
L 470.846056 251.708589 
L 471.857842 199.477549 
L 472.869628 168.446911 
L 473.071985 168.953189 
L 473.274343 167.117931 
L 473.4767 168.404721 
L 473.679057 172.286188 
L 473.881414 179.036565 
L 474.083772 180.21788 
L 474.286129 188.086288 
L 474.8932 241.540834 
L 475.297915 258.205826 
L 475.500272 259.914515 
L 475.702629 257.826118 
L 476.107344 232.828629 
L 476.512058 210.257057 
L 477.321487 177.960723 
L 477.726201 157.287695 
L 477.928558 153.638272 
L 478.333273 158.447916 
L 478.53563 163.025515 
L 479.142702 188.592567 
L 479.952131 258.100352 
L 480.356845 268.204822 
L 480.559202 267.782923 
L 480.963917 245.126971 
L 482.785131 113.452436 
L 482.987489 107.398192 
L 483.189846 104.698041 
L 483.392203 110.478051 
L 483.999275 151.36002 
L 484.606346 224.285183 
L 485.011061 248.101356 
L 485.213418 252.615671 
L 485.415775 253.586037 
L 485.82049 233.313812 
L 486.225204 201.312808 
L 487.23699 109.043596 
L 487.439347 105.879357 
L 487.844062 112.608639 
L 488.248776 131.699548 
L 489.260562 211.206328 
L 489.665277 244.1777 
L 490.069991 259.661376 
L 490.272348 262.066198 
L 490.474705 260.905977 
L 490.677063 259.091813 
L 490.87942 249.113913 
L 491.891206 167.37107 
L 492.29592 149.208338 
L 492.498277 141.635259 
L 492.700635 139.567956 
L 492.902992 141.234455 
L 493.105349 146.170668 
L 493.712421 180.534304 
L 494.52185 254.345455 
L 495.128921 273.07775 
L 495.331278 273.225414 
L 495.533636 272.592567 
L 495.735993 264.850728 
L 496.950136 171.041587 
L 497.557208 146.065193 
L 497.759565 142.62672 
L 497.961922 145.917529 
L 498.568994 178.213862 
L 499.378422 253.881366 
L 499.58078 260.884882 
L 499.783137 263.437368 
L 499.985494 260.041085 
L 500.187851 251.307785 
L 500.794923 213.463486 
L 500.99728 208.231944 
L 501.401995 194.81557 
L 501.806709 183.276645 
L 502.009066 182.812557 
L 502.211423 184.922049 
L 502.413781 185.575992 
L 502.616138 183.867303 
L 503.020852 193.824108 
L 503.223209 194.393672 
L 503.425567 202.09332 
L 504.032638 254.050126 
L 504.437353 267.445404 
L 504.63971 269.111904 
L 504.842067 266.685987 
L 505.246782 241.709593 
L 505.651496 217.302762 
L 507.270354 142.331391 
L 507.472711 139.146057 
L 507.675068 142.62672 
L 508.28214 171.358011 
L 508.889211 230.824611 
L 509.293926 248.37559 
L 509.496283 251.982823 
L 509.69864 250.105374 
L 510.103354 225.972777 
L 511.722212 116.954194 
L 512.126927 98.749272 
L 512.329284 100.373581 
L 512.936355 135.602109 
L 513.34107 175.513712 
L 513.745784 220.066198 
L 514.150499 243.354997 
L 514.352856 249.071723 
L 514.555213 249.578001 
L 514.75757 240.464992 
L 516.174071 141.29774 
L 516.376428 140.179709 
L 516.781142 149.735711 
L 516.9835 146.930085 
L 517.185857 147.478553 
L 517.590571 165.620191 
L 517.792928 169.965746 
L 517.995286 180.935108 
L 518.4 221.585033 
L 518.4 221.585033 
" clip-path="url(#p756de7a3c6)" style="fill: none; stroke: #1f77b4; stroke-width: 1.5; stroke-linecap: square"/>
   </g>
   <g id="line2d_14">
    <path d="M 72 271.380765 
L 72.202357 271.380765 
L 72.809429 279.040506 
L 73.011786 272.666417 
L 73.4165 248.964816 
L 73.821215 234.948224 
L 74.833001 177.310408 
L 75.237715 161.622986 
L 75.440073 160.379318 
L 75.64243 164.004387 
L 76.047144 176.177158 
L 76.249501 190.906912 
L 76.654216 240.975761 
L 77.05893 261.352631 
L 77.463645 269.029439 
L 77.666002 267.208471 
L 78.677788 217.675072 
L 78.880145 212.653335 
L 79.689574 171.380357 
L 79.891931 162.158184 
L 80.094288 161.177692 
L 80.499003 174.352242 
L 80.903717 195.323951 
L 81.308432 236.123286 
L 81.915503 275.114474 
L 82.11786 281.002728 
L 82.320218 282.586981 
L 82.522575 277.513013 
L 82.927289 265.223092 
L 83.129646 258.75155 
L 83.534361 237.850221 
L 83.939075 228.243109 
L 84.141432 229.074041 
L 84.34379 228.38133 
L 84.546147 229.294926 
L 84.748504 232.317499 
L 85.153218 242.894614 
L 85.76029 253.728947 
L 86.569719 293.25565 
L 86.772076 298.154148 
L 86.974433 299.016696 
L 87.176791 294.93684 
L 87.581505 280.331925 
L 87.783862 277.603631 
L 88.593291 251.891958 
L 88.795648 253.732605 
L 88.998005 251.687807 
L 89.200363 248.368324 
L 89.40272 248.818812 
L 89.605077 251.675578 
L 89.807434 249.799038 
L 90.212149 239.840524 
L 90.414506 237.102023 
L 90.616863 239.081321 
L 90.81922 247.665313 
L 91.426292 297.224883 
L 91.628649 297.351282 
L 91.831006 298.23982 
L 92.033364 297.116079 
L 92.235721 290.034548 
L 92.842792 248.452202 
L 93.247507 239.80886 
L 93.449864 237.969095 
L 93.652221 238.41189 
L 93.854578 237.724402 
L 94.056936 235.529528 
L 94.259293 232.017985 
L 94.46165 231.132551 
L 94.866364 223.423813 
L 95.068722 224.830628 
L 95.473436 237.012263 
L 95.87815 261.46938 
L 96.282865 292.482465 
L 96.485222 291.408512 
L 96.687579 291.199171 
L 96.889937 291.824773 
L 97.092294 284.737424 
L 97.497008 248.955057 
L 97.699365 238.931613 
L 97.901723 238.65276 
L 98.10408 239.648756 
L 98.306437 238.686725 
L 98.508794 236.365877 
L 98.711151 235.615369 
L 99.115866 230.789797 
L 99.318223 224.343961 
L 99.52058 223.240512 
L 99.722937 223.746415 
L 99.925295 222.133344 
L 100.127652 227.91689 
L 100.734723 265.073509 
L 101.139438 291.867115 
L 101.544152 296.264847 
L 101.74651 292.308251 
L 102.758296 241.413177 
L 103.16301 239.712151 
L 103.365367 240.135845 
L 103.567724 238.003982 
L 103.972439 226.958354 
L 104.174796 218.84964 
L 104.781868 217.249288 
L 104.984225 223.356578 
L 105.996011 290.514989 
L 106.198368 293.041964 
L 106.400725 293.587751 
L 106.603083 291.132171 
L 106.80544 281.407762 
L 107.210154 252.825411 
L 107.614869 238.58306 
L 107.817226 238.926817 
L 108.019583 238.564766 
L 108.22194 235.194082 
L 109.031369 195.792079 
L 109.233726 196.358403 
L 109.840798 215.815259 
L 110.852584 284.596671 
L 111.054941 289.069464 
L 111.257298 290.776156 
L 111.459655 288.630622 
L 111.662013 281.176852 
L 112.269084 241.957858 
L 112.673799 231.829076 
L 113.483228 191.205709 
L 113.887942 177.190666 
L 114.090299 174.676186 
L 114.292656 179.017876 
L 114.899728 208.574766 
L 115.5068 259.699059 
L 115.911514 278.581019 
L 116.113871 280.475331 
L 116.316228 280.365758 
L 117.125657 256.681208 
L 117.732729 213.36479 
L 118.137443 184.906559 
L 118.542158 166.703173 
L 118.946872 153.437672 
L 119.149229 155.89658 
L 119.756301 184.305697 
L 120.768087 268.915227 
L 120.970444 275.860709 
L 121.172801 275.25665 
L 121.577516 269.885169 
L 121.779873 267.920981 
L 122.184587 247.479232 
L 122.589302 217.051158 
L 123.196374 195.58496 
L 123.398731 192.060927 
L 123.601088 191.356413 
L 123.803445 194.132922 
L 124.005802 198.732353 
L 124.815231 233.555361 
L 125.422303 283.996431 
L 125.62466 287.218571 
L 125.827017 288.079914 
L 126.029374 288.010364 
L 126.231732 283.071715 
L 127.445875 210.760362 
L 128.457661 161.233475 
L 128.660018 156.227541 
L 128.862375 158.363284 
L 129.469447 202.642877 
L 130.076519 269.349084 
L 130.278876 279.733646 
L 130.481233 279.403723 
L 130.68359 279.678129 
L 130.885947 282.683943 
L 131.088305 276.341739 
L 132.504805 184.39711 
L 133.516591 140.93163 
L 133.921306 160.209166 
L 134.528377 201.164718 
L 134.933092 248.07977 
L 135.337806 265.251094 
L 135.540163 268.8481 
L 135.74252 267.174996 
L 135.944878 260.696708 
L 136.956664 199.795243 
L 137.159021 199.38336 
L 137.361378 191.92601 
L 137.563735 191.106168 
L 137.766092 188.134417 
L 137.96845 189.411294 
L 138.170807 191.471455 
L 138.575521 203.781373 
L 138.777879 207.863716 
L 139.182593 224.409632 
L 139.992022 278.675277 
L 140.396736 285.956038 
L 140.599093 282.500297 
L 140.801451 274.133409 
L 141.206165 245.478301 
L 142.015594 215.905457 
L 142.217951 214.645764 
L 142.420308 215.610022 
L 142.622665 214.110478 
L 142.825023 216.272593 
L 143.02738 216.422064 
L 143.229737 217.240634 
L 143.432094 217.049547 
L 143.634451 218.08323 
L 143.836809 222.248128 
L 144.44388 257.770267 
L 144.848595 287.000489 
L 145.253309 290.506569 
L 145.455666 288.623317 
L 145.860381 258.334527 
L 146.265095 229.821371 
L 146.872167 213.32042 
L 147.074524 211.881298 
L 147.276881 213.949151 
L 147.681596 205.146792 
L 147.883953 210.873886 
L 148.288667 224.445783 
L 148.491024 223.458303 
L 148.693382 228.314549 
L 149.705168 283.774287 
L 150.109882 289.971227 
L 150.312239 288.409901 
L 151.526383 237.366429 
L 152.133454 227.607956 
L 152.335811 226.447867 
L 153.14524 239.953448 
L 153.347597 234.070724 
L 153.549955 235.053348 
L 154.157026 254.871014 
L 154.561741 281.087887 
L 154.966455 291.357494 
L 155.37117 281.433149 
L 155.978241 260.698438 
L 156.382956 234.789262 
L 156.990027 192.129922 
L 157.799456 161.420072 
L 158.001813 160.540934 
L 158.608885 182.063707 
L 158.811242 195.446499 
L 159.418314 263.957009 
L 159.823028 274.291578 
L 160.025385 274.489206 
L 160.227743 270.458702 
L 160.632457 240.72359 
L 161.239529 204.271331 
L 161.8466 182.597216 
L 162.048957 178.459658 
L 162.453672 166.438296 
L 162.656029 166.681701 
L 162.858386 173.761293 
L 164.477244 280.711277 
L 164.881958 284.7969 
L 165.084316 278.607047 
L 165.691387 229.542098 
L 166.096102 217.12369 
L 166.500816 210.497455 
L 166.90553 192.400717 
L 167.310245 171.25465 
L 167.512602 171.009361 
L 168.322031 211.994925 
L 168.929102 265.571398 
L 169.13146 276.667689 
L 169.536174 282.918326 
L 169.738531 283.54503 
L 169.940888 277.044708 
L 171.357389 175.652623 
L 171.559746 169.161473 
L 171.762103 166.495258 
L 172.166818 150.536201 
L 172.369175 149.720674 
L 172.571532 158.956316 
L 172.976247 182.493866 
L 173.178604 195.676546 
L 173.988033 277.792673 
L 174.19039 281.017158 
L 174.392747 282.38051 
L 174.595104 279.792866 
L 174.797461 271.759374 
L 176.011605 201.572526 
L 176.213962 192.02764 
L 176.618676 183.499762 
L 177.225748 168.465985 
L 177.428105 174.187108 
L 178.035177 205.981006 
L 178.844606 283.631612 
L 179.046963 288.432059 
L 179.24932 289.302296 
L 179.451677 286.786278 
L 179.654034 279.774348 
L 180.261106 240.845094 
L 180.868178 204.610258 
L 181.272892 181.053409 
L 182.082321 153.784139 
L 182.284678 158.870042 
L 182.89175 191.266983 
L 183.701179 260.296338 
L 184.105893 268.323523 
L 184.30825 268.530877 
L 184.915322 254.456932 
L 185.117679 245.745415 
L 186.129465 151.295354 
L 186.331822 144.575528 
L 186.53418 141.57798 
L 186.736537 141.784733 
L 186.938894 146.333034 
L 187.748323 198.382671 
L 188.760109 267.19472 
L 188.962466 268.866593 
L 189.569538 258.319414 
L 189.771895 253.366203 
L 190.176609 225.506784 
L 190.986038 158.537947 
L 191.188395 150.863471 
L 191.390752 148.640467 
L 191.59311 150.904109 
L 191.795467 154.601563 
L 192.604896 201.653108 
L 193.616682 271.812725 
L 194.021396 280.936189 
L 194.223753 279.867876 
L 194.830825 246.282616 
L 195.640254 190.854284 
L 195.842611 186.78209 
L 196.044968 188.994354 
L 196.65204 204.880203 
L 196.854397 209.718645 
L 197.259112 224.01523 
L 197.461469 227.146176 
L 197.663826 234.796495 
L 198.473255 288.802863 
L 198.675612 290.271917 
L 198.877969 289.295093 
L 199.080326 280.716647 
L 199.889755 218.078677 
L 200.496827 194.289605 
L 200.901541 181.891082 
L 201.103898 177.876546 
L 201.508613 163.376584 
L 201.71097 168.992982 
L 202.520399 212.908061 
L 202.925113 254.170515 
L 203.127471 266.006286 
L 203.532185 273.455609 
L 203.734542 275.808281 
L 203.936899 271.080664 
L 204.543971 212.658584 
L 204.948685 201.243761 
L 205.151043 194.77475 
L 205.555757 177.899281 
L 205.758114 172.619207 
L 206.162829 160.162909 
L 206.365186 163.408908 
L 207.174615 207.724943 
L 207.984044 269.301141 
L 208.186401 276.000629 
L 208.591115 277.454869 
L 208.793472 266.617701 
L 209.400544 221.351236 
L 210.209973 177.482485 
L 210.614687 159.236546 
L 211.019402 133.971385 
L 211.221759 130.103497 
L 211.424116 138.080422 
L 211.82883 169.263081 
L 212.031188 179.508525 
L 212.840617 260.671519 
L 213.245331 270.839886 
L 213.447688 272.142391 
L 213.650045 265.440109 
L 214.257117 220.094606 
L 215.875975 104.828785 
L 216.078332 104.111373 
L 216.280689 114.22895 
L 217.292475 205.790198 
L 217.697189 241.003103 
L 217.899547 250.919082 
L 218.101904 255.197293 
L 218.304261 255.368464 
L 218.911333 242.236688 
L 219.11369 235.632974 
L 219.923119 168.243742 
L 220.327833 151.336876 
L 220.53019 150.328398 
L 220.732548 153.140928 
L 220.934905 161.368989 
L 221.744334 214.409723 
L 222.149048 240.341313 
L 222.553762 266.813343 
L 222.75612 273.538718 
L 222.958477 276.142753 
L 223.160834 275.673974 
L 223.767906 260.054067 
L 224.17262 234.834337 
L 224.374977 220.029428 
L 224.577335 213.676131 
L 224.779692 211.568951 
L 224.982049 213.093218 
L 225.386763 220.057647 
L 225.589121 223.884667 
L 225.993835 238.444553 
L 226.398549 246.013054 
L 226.600907 247.952406 
L 226.803264 253.097805 
L 227.410335 297.243145 
L 227.612693 298.652249 
L 227.81505 296.945082 
L 228.017407 298.495297 
L 228.219764 293.82134 
L 228.826836 248.924802 
L 229.029193 242.921261 
L 229.433908 237.657482 
L 229.838622 227.689669 
L 230.648051 195.5095 
L 230.850408 193.585344 
L 231.45748 210.041527 
L 231.862194 244.985692 
L 232.266908 280.961449 
L 232.469266 284.161969 
L 232.671623 284.87801 
L 232.87398 288.392382 
L 233.076337 283.939056 
L 233.885766 232.260084 
L 234.290481 217.095785 
L 234.695195 198.055415 
L 235.504624 173.743672 
L 235.706981 178.34766 
L 236.314053 212.613874 
L 237.325839 283.435163 
L 237.528196 284.076823 
L 237.730553 281.23283 
L 237.93291 274.18617 
L 238.539982 237.56613 
L 239.551768 197.325039 
L 239.754125 195.085009 
L 240.15884 188.557047 
L 240.361197 188.924604 
L 240.968268 211.321819 
L 242.182412 288.589446 
L 242.384769 289.598308 
L 242.587126 287.690976 
L 242.789483 278.816004 
L 243.396555 242.48562 
L 244.813055 192.062102 
L 245.21777 181.022818 
L 245.420127 184.134373 
L 246.027199 209.682239 
L 246.836627 277.347846 
L 247.038985 283.57721 
L 247.241342 285.833252 
L 247.443699 285.227694 
L 247.646056 278.047522 
L 248.455485 228.025099 
L 249.669628 151.662749 
L 249.871985 145.712161 
L 250.074343 145.315073 
L 250.2767 150.817451 
L 250.883772 188.250356 
L 251.6932 254.891634 
L 251.895558 265.0188 
L 252.097915 268.52529 
L 252.300272 268.670823 
L 252.502629 265.773345 
L 253.109701 242.111193 
L 254.121487 155.345821 
L 254.323844 146.907028 
L 254.728558 139.659472 
L 254.930916 141.582888 
L 255.133273 146.991636 
L 255.942702 205.371615 
L 256.752131 269.801382 
L 256.954488 271.307076 
L 257.156845 271.502397 
L 257.763917 262.420403 
L 257.966274 251.870573 
L 258.775703 185.957738 
L 259.180417 169.269348 
L 259.585131 164.751413 
L 259.787489 162.887772 
L 259.989846 166.987546 
L 260.596917 196.64276 
L 261.001632 230.600317 
L 261.406346 274.678914 
L 261.811061 281.116119 
L 262.013418 281.491114 
L 262.215775 276.810069 
L 263.227561 217.937239 
L 263.429918 215.016165 
L 264.239347 227.363995 
L 264.644062 229.989334 
L 264.846419 232.61208 
L 265.048776 233.333003 
L 265.655848 253.698683 
L 266.262919 290.758151 
L 266.465277 290.171636 
L 266.667634 290.683436 
L 266.869991 290.725612 
L 267.072348 286.715549 
L 267.67942 243.18206 
L 268.488849 226.916751 
L 268.691206 225.610069 
L 269.09592 219.444524 
L 269.298277 218.868945 
L 269.702992 216.418874 
L 269.905349 216.562409 
L 270.107706 220.677259 
L 270.512421 242.908612 
L 270.917135 268.676 
L 271.119492 282.775805 
L 271.32185 287.992256 
L 271.524207 287.279431 
L 271.726564 284.828196 
L 271.928921 276.638239 
L 272.535993 234.017711 
L 272.940707 215.341569 
L 273.750136 170.924984 
L 274.15485 152.470703 
L 274.357208 149.372181 
L 274.559565 148.244737 
L 275.368994 184.491471 
L 275.976065 246.628519 
L 276.38078 257.257393 
L 276.583137 259.163313 
L 276.785494 254.609196 
L 277.594923 200.073011 
L 278.606709 142.66758 
L 279.011423 132.627602 
L 279.213781 130.509082 
L 279.416138 133.734054 
L 280.225567 202.144568 
L 280.832638 263.468699 
L 281.034995 271.388403 
L 281.237353 271.982928 
L 281.43971 269.430808 
L 281.642067 263.126679 
L 282.451496 219.046737 
L 282.85621 191.56569 
L 283.867996 150.923602 
L 284.070354 148.946386 
L 284.272711 156.385402 
L 284.879782 201.373714 
L 285.284497 244.07095 
L 285.689211 282.173424 
L 285.891568 288.675143 
L 286.093926 286.237723 
L 286.296283 286.7232 
L 286.49864 283.799315 
L 287.105712 258.070691 
L 288.117498 184.274645 
L 288.724569 164.244277 
L 288.926927 161.184119 
L 289.129284 163.068358 
L 289.736355 192.399628 
L 290.14107 228.890974 
L 290.545784 267.3234 
L 290.748141 273.788646 
L 290.950499 275.443436 
L 291.152856 274.421412 
L 291.355213 272.762226 
L 291.55757 268.866951 
L 291.759927 262.291479 
L 292.164642 234.570898 
L 292.569356 188.265575 
L 293.176428 144.198111 
L 293.581142 137.605146 
L 293.7835 135.22651 
L 293.985857 136.702691 
L 294.390571 162.7022 
L 294.997643 205.223313 
L 295.402357 247.503213 
L 295.807072 259.353274 
L 296.009429 259.891343 
L 296.211786 256.313079 
L 296.6165 228.866192 
L 298.033001 93.248549 
L 298.235358 88.169031 
L 298.437715 87.161079 
L 298.640073 87.560833 
L 298.84243 95.25729 
L 299.651859 158.5797 
L 300.25893 225.732784 
L 300.461287 230.603915 
L 300.866002 233.31487 
L 301.068359 230.989888 
L 301.675431 190.853696 
L 302.889574 78.968443 
L 303.091931 77.499939 
L 303.496646 94.234792 
L 303.90136 125.110587 
L 304.710789 207.29397 
L 305.115503 229.089998 
L 305.520218 234.552172 
L 305.722575 234.939085 
L 305.924932 231.446785 
L 306.127289 222.54555 
L 306.734361 185.908434 
L 307.341432 149.338733 
L 307.746147 128.203649 
L 307.948504 120.044526 
L 308.150861 119.256756 
L 308.353218 126.442208 
L 309.162647 187.469177 
L 309.769719 229.209816 
L 309.972076 239.394006 
L 310.376791 246.503363 
L 310.579148 249.642772 
L 310.781505 249.821776 
L 311.186219 221.976574 
L 312.198005 145.364412 
L 312.60272 121.728958 
L 312.805077 115.969693 
L 313.007434 113.641897 
L 313.209791 118.465527 
L 313.412149 128.230113 
L 314.626292 232.089168 
L 315.031006 250.034228 
L 315.233364 252.284395 
L 315.435721 250.347157 
L 315.840435 235.363376 
L 316.447507 199.483714 
L 317.256936 179.226154 
L 317.459293 179.298658 
L 317.66165 179.191578 
L 317.864007 178.661833 
L 318.066364 182.207965 
L 318.471079 194.33097 
L 319.280508 235.456934 
L 319.887579 269.815812 
L 320.292294 278.356209 
L 320.494651 272.922279 
L 320.899365 255.181402 
L 321.30408 236.628784 
L 322.113509 184.384679 
L 322.72058 157.147996 
L 322.922937 152.089775 
L 323.125295 154.163222 
L 323.530009 173.089812 
L 324.137081 227.508552 
L 324.744152 275.448665 
L 324.94651 281.484398 
L 325.148867 280.030774 
L 325.755938 259.545205 
L 325.958296 248.888708 
L 327.172439 135.398623 
L 327.577153 125.287274 
L 327.77951 124.005352 
L 327.981868 126.634313 
L 328.588939 173.585718 
L 329.196011 236.323378 
L 329.600725 267.287132 
L 329.803083 268.688316 
L 330.00544 267.983155 
L 330.410154 249.896824 
L 332.029012 131.868398 
L 332.231369 129.41524 
L 332.636083 135.828045 
L 332.838441 144.270698 
L 333.850227 227.219744 
L 334.254941 262.361696 
L 334.659655 271.368526 
L 334.862013 273.267208 
L 335.06437 268.087922 
L 335.873799 210.76738 
L 336.683228 179.622692 
L 336.885585 176.810283 
L 337.087942 177.572633 
L 337.290299 174.868656 
L 337.492656 176.089167 
L 338.099728 202.801375 
L 338.7068 243.740195 
L 339.111514 280.166298 
L 339.313871 283.544633 
L 339.516228 285.003012 
L 339.718586 285.274752 
L 339.920943 276.673584 
L 340.325657 241.043821 
L 341.742158 170.491092 
L 342.146872 151.365301 
L 342.349229 147.819262 
L 342.551587 150.485375 
L 343.158658 176.245567 
L 343.361015 190.162794 
L 343.968087 250.689082 
L 344.170444 258.145293 
L 344.372801 259.078455 
L 344.575159 261.241277 
L 344.777516 257.094995 
L 345.384587 210.309482 
L 346.396374 111.890439 
L 346.801088 95.640218 
L 347.205802 100.770459 
L 347.40816 108.799748 
L 348.217588 176.159915 
L 348.82466 240.044131 
L 349.027017 250.856978 
L 349.229374 251.060876 
L 349.431732 248.028319 
L 349.836446 234.348706 
L 350.443518 195.022777 
L 351.252947 123.177329 
L 351.657661 103.915962 
L 351.860018 101.765494 
L 352.062375 101.893444 
L 352.264733 109.043012 
L 352.669447 139.644286 
L 353.681233 235.189881 
L 354.085947 247.200242 
L 354.288305 248.408555 
L 354.490662 247.51466 
L 354.693019 243.887826 
L 355.097733 226.911773 
L 356.514234 113.808947 
L 356.716591 109.437948 
L 356.918948 107.980568 
L 357.121306 113.457199 
L 357.728377 161.808148 
L 358.740163 245.396769 
L 358.94252 248.739907 
L 359.347235 245.801938 
L 359.751949 236.839452 
L 359.954306 227.35087 
L 361.16845 108.394086 
L 361.573164 98.241856 
L 361.775521 97.709051 
L 361.977879 102.089034 
L 362.382593 130.44043 
L 362.989665 183.263588 
L 363.394379 224.340742 
L 363.596736 233.46936 
L 363.799093 235.668287 
L 364.001451 236.027984 
L 364.203808 231.527099 
L 364.608522 206.441664 
L 365.215594 151.891608 
L 365.822665 86.958247 
L 366.025023 76.298921 
L 366.22738 72.309042 
L 366.429737 72.094357 
L 366.632094 75.034466 
L 366.834451 84.39858 
L 367.64388 154.530296 
L 368.048595 201.83396 
L 368.453309 223.281899 
L 368.655666 224.984211 
L 368.858024 225.506659 
L 369.060381 221.232885 
L 369.667452 188.963123 
L 370.072167 159.126961 
L 370.679238 105.397243 
L 371.083953 90.432148 
L 371.28631 90.98433 
L 371.488667 97.465787 
L 371.893382 124.554458 
L 373.107525 223.600684 
L 373.512239 233.016592 
L 373.714597 234.494911 
L 373.916954 232.639313 
L 374.321668 218.98613 
L 374.92874 178.591847 
L 375.738169 123.613812 
L 375.940526 116.387056 
L 376.142883 113.907601 
L 376.34524 116.374433 
L 376.547597 125.936213 
L 377.559383 207.647829 
L 378.166455 236.753704 
L 378.368812 238.783642 
L 378.57117 237.348574 
L 378.773527 235.027723 
L 379.178241 211.857087 
L 380.797099 98.916272 
L 381.201813 94.966711 
L 381.40417 97.82525 
L 381.606528 110.626445 
L 382.618314 205.877552 
L 382.820671 221.161432 
L 383.023028 227.636413 
L 383.225385 228.866997 
L 383.427743 227.62719 
L 383.832457 211.618563 
L 384.237171 188.329651 
L 384.237171 188.329651 
" clip-path="url(#p756de7a3c6)" style="fill: none; stroke: #ff7f0e; stroke-width: 1.5; stroke-linecap: square"/>
   </g>
   <g id="line2d_15">
    <path d="M 384.439529 177.445996 
L 384.844243 168.835934 
L 385.451315 147.120919 
L 385.653672 143.998253 
L 385.856029 144.040544 
L 386.058386 146.887062 
L 386.260743 153.389511 
L 387.474887 227.204184 
L 387.677244 231.748048 
L 387.879601 233.073332 
L 388.284316 233.747776 
L 388.486673 231.475389 
L 388.891387 213.15202 
L 389.498459 183.458707 
L 389.903173 163.604771 
L 390.712602 109.899665 
L 391.117316 98.523272 
L 391.319674 101.80321 
L 391.724388 122.656147 
L 392.33146 161.365257 
L 392.736174 185.165259 
L 392.938531 188.886483 
L 393.140888 188.668323 
L 393.343246 188.828481 
L 393.545603 188.805897 
L 393.74796 188.431872 
L 393.950317 187.701849 
L 394.152675 183.658338 
L 394.557389 165.412571 
L 395.569175 106.458944 
L 395.771532 103.923382 
L 395.973889 104.576986 
L 396.176247 110.385744 
L 396.580961 133.53649 
L 397.795104 226.018141 
L 398.199819 231.123319 
L 398.402176 231.37879 
L 398.80689 227.009555 
L 399.009248 222.869185 
L 399.413962 207.571924 
L 400.021034 186.318046 
L 400.425748 175.91832 
L 400.628105 171.682361 
L 400.830462 170.715066 
L 401.03282 172.170222 
L 401.235177 175.39306 
L 401.437534 181.152966 
L 402.044606 214.137555 
L 402.44932 236.172511 
L 402.651677 242.431465 
L 402.854034 241.649011 
L 403.663463 225.118062 
L 403.86582 215.668909 
L 404.270535 180.334151 
L 405.282321 74.23761 
L 405.687035 61.02337 
L 405.889393 61.513205 
L 406.09175 66.249356 
L 406.496464 90.077568 
L 407.912965 198.636107 
L 408.115322 202.269532 
L 408.317679 202.682532 
L 408.520036 201.184923 
L 408.722393 198.621311 
L 410.138894 154.842562 
L 410.341251 153.202135 
L 410.543608 153.678347 
L 410.745966 157.957891 
L 411.15068 177.874912 
L 411.757752 209.169246 
L 412.364823 228.214344 
L 412.56718 232.045548 
L 412.769538 232.894844 
L 413.376609 230.804221 
L 413.578966 228.693897 
L 413.983681 211.330779 
L 414.590752 181.346102 
L 415.602539 149.626697 
L 416.20961 137.670133 
L 416.411967 135.522549 
L 416.614325 136.96901 
L 417.828468 173.48272 
L 418.030825 174.772931 
L 418.233182 172.159598 
L 418.637897 157.259125 
L 419.042611 131.454495 
L 419.85204 69.395295 
L 420.054397 64.164657 
L 420.256754 63.543207 
L 420.459112 67.606211 
L 420.863826 85.420694 
L 421.470898 132.134653 
L 422.280326 216.374127 
L 422.482684 224.089924 
L 422.685041 226.415518 
L 422.887398 225.93765 
L 423.49447 219.37611 
L 424.101541 209.600476 
L 424.303898 207.767141 
L 424.506256 208.182828 
L 424.91097 214.240271 
L 425.315684 216.450684 
L 425.720399 225.413628 
L 426.327471 240.707865 
L 426.732185 244.343802 
L 426.934542 245.243771 
L 427.136899 243.603975 
L 427.541614 235.447976 
L 427.946328 230.892014 
L 428.148685 228.003603 
L 428.351043 221.915798 
L 429.362829 164.424659 
L 430.576972 97.955596 
L 430.779329 90.733876 
L 430.981686 88.73572 
L 431.184044 91.732717 
L 431.588758 101.617218 
L 432.19583 111.802615 
L 433.409973 150.971839 
L 434.421759 172.099346 
L 435.02883 183.071281 
L 436.445331 215.316428 
L 436.850045 218.586216 
L 438.064189 231.042942 
L 438.266546 231.942939 
L 438.873617 236.559517 
L 439.075975 236.961007 
L 439.480689 234.068636 
L 440.087761 229.087471 
L 440.897189 219.760133 
L 441.301904 210.554463 
L 442.111333 185.337942 
L 442.516047 160.475293 
L 443.527833 74.79001 
L 443.73019 67.665765 
L 443.932548 64.748096 
L 444.134905 64.879865 
L 444.337262 67.056913 
L 444.539619 72.143184 
L 444.944334 89.514955 
L 446.765549 189.09532 
L 447.170263 194.775213 
L 447.37262 195.558203 
L 447.574977 195.539926 
L 448.182049 193.481667 
L 448.384406 194.27249 
L 448.789121 201.192043 
L 449.396192 211.847122 
L 449.800907 216.396814 
L 450.610335 231.239321 
L 451.01505 235.042275 
L 451.217407 235.836735 
L 451.622121 238.715918 
L 451.824479 238.426993 
L 452.026836 235.558077 
L 453.240979 209.780137 
L 453.645694 201.439957 
L 454.252765 181.318965 
L 454.859837 153.795506 
L 456.276337 78.274227 
L 456.478694 74.829494 
L 456.681052 74.185848 
L 456.883409 75.826592 
L 457.288123 84.542357 
L 457.692838 101.835902 
L 459.311695 189.655729 
L 459.71641 197.375271 
L 460.121124 199.204622 
L 460.323481 200.148517 
L 460.930553 205.560096 
L 461.942339 215.903132 
L 462.144696 217.258236 
L 462.347053 219.437643 
L 463.35884 236.151365 
L 463.763554 238.123992 
L 463.965911 238.043104 
L 464.168268 238.798931 
L 464.370626 238.57605 
L 464.77534 234.23402 
L 465.584769 217.670761 
L 466.19184 200.92452 
L 466.798912 173.609209 
L 467.608341 123.337881 
L 468.215413 85.741709 
L 468.620127 77.229045 
L 468.822484 76.024477 
L 469.024841 76.640352 
L 469.227199 79.473156 
L 469.631913 91.867972 
L 470.238985 122.349703 
L 471.048413 163.95093 
L 471.453128 180.262029 
L 471.857842 189.62741 
L 472.262557 194.480806 
L 472.869628 197.2485 
L 473.274343 203.091515 
L 473.679057 209.938005 
L 474.286129 215.26884 
L 474.488486 217.24032 
L 475.702629 235.466677 
L 476.107344 237.564977 
L 476.309701 237.482451 
L 476.512058 237.977309 
L 476.714415 236.906147 
L 477.11913 232.067757 
L 478.130916 212.382448 
L 478.737987 194.046623 
L 479.345059 167.893186 
L 479.952131 128.574991 
L 480.559202 87.234845 
L 480.963917 75.073963 
L 481.166274 72.910295 
L 481.368631 73.395528 
L 481.570988 75.98571 
L 481.975703 87.190003 
L 482.380417 105.867303 
L 483.59456 172.211462 
L 483.999275 187.351928 
L 484.403989 194.539674 
L 484.606346 196.262107 
L 484.808704 197.010818 
L 485.011061 197.147451 
L 485.213418 197.783715 
L 485.415775 199.34493 
L 486.629918 214.761069 
L 487.034633 219.064163 
L 487.844062 233.400253 
L 488.248776 236.49434 
L 488.855848 238.490087 
L 489.058205 237.76603 
L 489.260562 235.679616 
L 490.069991 220.959339 
L 490.677063 207.090423 
L 491.081777 194.630936 
L 491.688849 167.661251 
L 492.29592 129.748149 
L 492.902992 89.051302 
L 493.307706 76.897392 
L 493.510063 74.421243 
L 493.712421 74.242877 
L 493.914778 76.395973 
L 494.319492 86.995002 
L 494.724207 104.582548 
L 496.140707 179.72751 
L 496.545422 191.202782 
L 496.950136 196.003123 
L 497.152493 196.96004 
L 497.35485 197.237957 
L 497.557208 197.959929 
L 497.759565 199.642685 
L 498.973708 214.918471 
L 499.378422 218.831454 
L 500.187851 233.07183 
L 500.592566 236.502289 
L 500.794923 237.426527 
L 500.99728 237.55277 
L 501.199637 238.244224 
L 501.401995 237.828005 
L 501.604352 236.099267 
L 502.009066 229.319323 
L 503.020852 207.966218 
L 503.627924 187.606418 
L 504.234995 157.340709 
L 504.842067 115.26006 
L 505.246782 89.358554 
L 505.651496 76.938287 
L 505.853853 74.463086 
L 506.05621 74.215298 
L 506.258568 76.285388 
L 506.663282 86.841639 
L 507.067996 104.248422 
L 508.484497 179.052933 
L 508.889211 190.557034 
L 509.293926 195.585629 
L 509.496283 196.706722 
L 509.69864 196.974324 
L 509.900997 197.564439 
L 510.103354 199.123615 
L 511.317498 214.82734 
L 511.722212 218.666039 
L 512.733998 235.039597 
L 513.138713 237.312197 
L 513.34107 237.536074 
L 513.543427 238.187304 
L 513.745784 237.849266 
L 513.948141 236.181686 
L 514.352856 229.468425 
L 515.364642 208.378599 
L 515.971714 188.357479 
L 516.578785 158.765076 
L 517.185857 116.930856 
L 517.590571 90.412271 
L 517.995286 77.201338 
L 518.197643 74.424473 
L 518.4 73.935305 
L 518.4 73.935305 
" clip-path="url(#p756de7a3c6)" style="fill: none; stroke: #2ca02c; stroke-width: 1.5; stroke-linecap: square"/>
   </g>
   <g id="patch_3">
    <path d="M 72 320.4 
L 72 43.2 
" style="fill: none; stroke: #000000; stroke-width: 0.8; stroke-linejoin: miter; stroke-linecap: square"/>
   </g>
   <g id="patch_4">
    <path d="M 518.4 320.4 
L 518.4 43.2 
" style="fill: none; stroke: #000000; stroke-width: 0.8; stroke-linejoin: miter; stroke-linecap: square"/>
   </g>
   <g id="patch_5">
    <path d="M 72 320.4 
L 518.4 320.4 
" style="fill: none; stroke: #000000; stroke-width: 0.8; stroke-linejoin: miter; stroke-linecap: square"/>
   </g>
   <g id="patch_6">
    <path d="M 72 43.2 
L 518.4 43.2 
" style="fill: none; stroke: #000000; stroke-width: 0.8; stroke-linejoin: miter; stroke-linecap: square"/>
   </g>
   <g id="text_13">
    <!-- Classic Transformer - model_20231126173828 -->
    <g transform="translate(155.436563 37.2) scale(0.12 -0.12)">
     <defs>
      <path id="DejaVuSans-43" d="M 4122 4306 
L 4122 3641 
Q 3803 3938 3442 4084 
Q 3081 4231 2675 4231 
Q 1875 4231 1450 3742 
Q 1025 3253 1025 2328 
Q 1025 1406 1450 917 
Q 1875 428 2675 428 
Q 3081 428 3442 575 
Q 3803 722 4122 1019 
L 4122 359 
Q 3791 134 3420 21 
Q 3050 -91 2638 -91 
Q 1578 -91 968 557 
Q 359 1206 359 2328 
Q 359 3453 968 4101 
Q 1578 4750 2638 4750 
Q 3056 4750 3426 4639 
Q 3797 4528 4122 4306 
z
" transform="scale(0.015625)"/>
      <path id="DejaVuSans-6c" d="M 603 4863 
L 1178 4863 
L 1178 0 
L 603 0 
L 603 4863 
z
" transform="scale(0.015625)"/>
      <path id="DejaVuSans-61" d="M 2194 1759 
Q 1497 1759 1228 1600 
Q 959 1441 959 1056 
Q 959 750 1161 570 
Q 1363 391 1709 391 
Q 2188 391 2477 730 
Q 2766 1069 2766 1631 
L 2766 1759 
L 2194 1759 
z
M 3341 1997 
L 3341 0 
L 2766 0 
L 2766 531 
Q 2569 213 2275 61 
Q 1981 -91 1556 -91 
Q 1019 -91 701 211 
Q 384 513 384 1019 
Q 384 1609 779 1909 
Q 1175 2209 1959 2209 
L 2766 2209 
L 2766 2266 
Q 2766 2663 2505 2880 
Q 2244 3097 1772 3097 
Q 1472 3097 1187 3025 
Q 903 2953 641 2809 
L 641 3341 
Q 956 3463 1253 3523 
Q 1550 3584 1831 3584 
Q 2591 3584 2966 3190 
Q 3341 2797 3341 1997 
z
" transform="scale(0.015625)"/>
      <path id="DejaVuSans-73" d="M 2834 3397 
L 2834 2853 
Q 2591 2978 2328 3040 
Q 2066 3103 1784 3103 
Q 1356 3103 1142 2972 
Q 928 2841 928 2578 
Q 928 2378 1081 2264 
Q 1234 2150 1697 2047 
L 1894 2003 
Q 2506 1872 2764 1633 
Q 3022 1394 3022 966 
Q 3022 478 2636 193 
Q 2250 -91 1575 -91 
Q 1294 -91 989 -36 
Q 684 19 347 128 
L 347 722 
Q 666 556 975 473 
Q 1284 391 1588 391 
Q 1994 391 2212 530 
Q 2431 669 2431 922 
Q 2431 1156 2273 1281 
Q 2116 1406 1581 1522 
L 1381 1569 
Q 847 1681 609 1914 
Q 372 2147 372 2553 
Q 372 3047 722 3315 
Q 1072 3584 1716 3584 
Q 2034 3584 2315 3537 
Q 2597 3491 2834 3397 
z
" transform="scale(0.015625)"/>
      <path id="DejaVuSans-69" d="M 603 3500 
L 1178 3500 
L 1178 0 
L 603 0 
L 603 3500 
z
M 603 4863 
L 1178 4863 
L 1178 4134 
L 603 4134 
L 603 4863 
z
" transform="scale(0.015625)"/>
      <path id="DejaVuSans-63" d="M 3122 3366 
L 3122 2828 
Q 2878 2963 2633 3030 
Q 2388 3097 2138 3097 
Q 1578 3097 1268 2742 
Q 959 2388 959 1747 
Q 959 1106 1268 751 
Q 1578 397 2138 397 
Q 2388 397 2633 464 
Q 2878 531 3122 666 
L 3122 134 
Q 2881 22 2623 -34 
Q 2366 -91 2075 -91 
Q 1284 -91 818 406 
Q 353 903 353 1747 
Q 353 2603 823 3093 
Q 1294 3584 2113 3584 
Q 2378 3584 2631 3529 
Q 2884 3475 3122 3366 
z
" transform="scale(0.015625)"/>
      <path id="DejaVuSans-20" transform="scale(0.015625)"/>
      <path id="DejaVuSans-54" d="M -19 4666 
L 3928 4666 
L 3928 4134 
L 2272 4134 
L 2272 0 
L 1638 0 
L 1638 4134 
L -19 4134 
L -19 4666 
z
" transform="scale(0.015625)"/>
      <path id="DejaVuSans-72" d="M 2631 2963 
Q 2534 3019 2420 3045 
Q 2306 3072 2169 3072 
Q 1681 3072 1420 2755 
Q 1159 2438 1159 1844 
L 1159 0 
L 581 0 
L 581 3500 
L 1159 3500 
L 1159 2956 
Q 1341 3275 1631 3429 
Q 1922 3584 2338 3584 
Q 2397 3584 2469 3576 
Q 2541 3569 2628 3553 
L 2631 2963 
z
" transform="scale(0.015625)"/>
      <path id="DejaVuSans-6e" d="M 3513 2113 
L 3513 0 
L 2938 0 
L 2938 2094 
Q 2938 2591 2744 2837 
Q 2550 3084 2163 3084 
Q 1697 3084 1428 2787 
Q 1159 2491 1159 1978 
L 1159 0 
L 581 0 
L 581 3500 
L 1159 3500 
L 1159 2956 
Q 1366 3272 1645 3428 
Q 1925 3584 2291 3584 
Q 2894 3584 3203 3211 
Q 3513 2838 3513 2113 
z
" transform="scale(0.015625)"/>
      <path id="DejaVuSans-66" d="M 2375 4863 
L 2375 4384 
L 1825 4384 
Q 1516 4384 1395 4259 
Q 1275 4134 1275 3809 
L 1275 3500 
L 2222 3500 
L 2222 3053 
L 1275 3053 
L 1275 0 
L 697 0 
L 697 3053 
L 147 3053 
L 147 3500 
L 697 3500 
L 697 3744 
Q 697 4328 969 4595 
Q 1241 4863 1831 4863 
L 2375 4863 
z
" transform="scale(0.015625)"/>
      <path id="DejaVuSans-6f" d="M 1959 3097 
Q 1497 3097 1228 2736 
Q 959 2375 959 1747 
Q 959 1119 1226 758 
Q 1494 397 1959 397 
Q 2419 397 2687 759 
Q 2956 1122 2956 1747 
Q 2956 2369 2687 2733 
Q 2419 3097 1959 3097 
z
M 1959 3584 
Q 2709 3584 3137 3096 
Q 3566 2609 3566 1747 
Q 3566 888 3137 398 
Q 2709 -91 1959 -91 
Q 1206 -91 779 398 
Q 353 888 353 1747 
Q 353 2609 779 3096 
Q 1206 3584 1959 3584 
z
" transform="scale(0.015625)"/>
      <path id="DejaVuSans-6d" d="M 3328 2828 
Q 3544 3216 3844 3400 
Q 4144 3584 4550 3584 
Q 5097 3584 5394 3201 
Q 5691 2819 5691 2113 
L 5691 0 
L 5113 0 
L 5113 2094 
Q 5113 2597 4934 2840 
Q 4756 3084 4391 3084 
Q 3944 3084 3684 2787 
Q 3425 2491 3425 1978 
L 3425 0 
L 2847 0 
L 2847 2094 
Q 2847 2600 2669 2842 
Q 2491 3084 2119 3084 
Q 1678 3084 1418 2786 
Q 1159 2488 1159 1978 
L 1159 0 
L 581 0 
L 581 3500 
L 1159 3500 
L 1159 2956 
Q 1356 3278 1631 3431 
Q 1906 3584 2284 3584 
Q 2666 3584 2933 3390 
Q 3200 3197 3328 2828 
z
" transform="scale(0.015625)"/>
      <path id="DejaVuSans-65" d="M 3597 1894 
L 3597 1613 
L 953 1613 
Q 991 1019 1311 708 
Q 1631 397 2203 397 
Q 2534 397 2845 478 
Q 3156 559 3463 722 
L 3463 178 
Q 3153 47 2828 -22 
Q 2503 -91 2169 -91 
Q 1331 -91 842 396 
Q 353 884 353 1716 
Q 353 2575 817 3079 
Q 1281 3584 2069 3584 
Q 2775 3584 3186 3129 
Q 3597 2675 3597 1894 
z
M 3022 2063 
Q 3016 2534 2758 2815 
Q 2500 3097 2075 3097 
Q 1594 3097 1305 2825 
Q 1016 2553 972 2059 
L 3022 2063 
z
" transform="scale(0.015625)"/>
      <path id="DejaVuSans-64" d="M 2906 2969 
L 2906 4863 
L 3481 4863 
L 3481 0 
L 2906 0 
L 2906 525 
Q 2725 213 2448 61 
Q 2172 -91 1784 -91 
Q 1150 -91 751 415 
Q 353 922 353 1747 
Q 353 2572 751 3078 
Q 1150 3584 1784 3584 
Q 2172 3584 2448 3432 
Q 2725 3281 2906 2969 
z
M 947 1747 
Q 947 1113 1208 752 
Q 1469 391 1925 391 
Q 2381 391 2643 752 
Q 2906 1113 2906 1747 
Q 2906 2381 2643 2742 
Q 2381 3103 1925 3103 
Q 1469 3103 1208 2742 
Q 947 2381 947 1747 
z
" transform="scale(0.015625)"/>
      <path id="DejaVuSans-5f" d="M 3263 -1063 
L 3263 -1509 
L -63 -1509 
L -63 -1063 
L 3263 -1063 
z
" transform="scale(0.015625)"/>
     </defs>
     <use xlink:href="#DejaVuSans-43"/>
     <use xlink:href="#DejaVuSans-6c" x="69.824219"/>
     <use xlink:href="#DejaVuSans-61" x="97.607422"/>
     <use xlink:href="#DejaVuSans-73" x="158.886719"/>
     <use xlink:href="#DejaVuSans-73" x="210.986328"/>
     <use xlink:href="#DejaVuSans-69" x="263.085938"/>
     <use xlink:href="#DejaVuSans-63" x="290.869141"/>
     <use xlink:href="#DejaVuSans-20" x="345.849609"/>
     <use xlink:href="#DejaVuSans-54" x="377.636719"/>
     <use xlink:href="#DejaVuSans-72" x="423.970703"/>
     <use xlink:href="#DejaVuSans-61" x="465.083984"/>
     <use xlink:href="#DejaVuSans-6e" x="526.363281"/>
     <use xlink:href="#DejaVuSans-73" x="589.742188"/>
     <use xlink:href="#DejaVuSans-66" x="641.841797"/>
     <use xlink:href="#DejaVuSans-6f" x="677.046875"/>
     <use xlink:href="#DejaVuSans-72" x="738.228516"/>
     <use xlink:href="#DejaVuSans-6d" x="777.591797"/>
     <use xlink:href="#DejaVuSans-65" x="875.003906"/>
     <use xlink:href="#DejaVuSans-72" x="936.527344"/>
     <use xlink:href="#DejaVuSans-20" x="977.640625"/>
     <use xlink:href="#DejaVuSans-2d" x="1009.427734"/>
     <use xlink:href="#DejaVuSans-20" x="1045.511719"/>
     <use xlink:href="#DejaVuSans-6d" x="1077.298828"/>
     <use xlink:href="#DejaVuSans-6f" x="1174.710938"/>
     <use xlink:href="#DejaVuSans-64" x="1235.892578"/>
     <use xlink:href="#DejaVuSans-65" x="1299.369141"/>
     <use xlink:href="#DejaVuSans-6c" x="1360.892578"/>
     <use xlink:href="#DejaVuSans-5f" x="1388.675781"/>
     <use xlink:href="#DejaVuSans-32" x="1438.675781"/>
     <use xlink:href="#DejaVuSans-30" x="1502.298828"/>
     <use xlink:href="#DejaVuSans-32" x="1565.921875"/>
     <use xlink:href="#DejaVuSans-33" x="1629.544922"/>
     <use xlink:href="#DejaVuSans-31" x="1693.167969"/>
     <use xlink:href="#DejaVuSans-31" x="1756.791016"/>
     <use xlink:href="#DejaVuSans-32" x="1820.414062"/>
     <use xlink:href="#DejaVuSans-36" x="1884.037109"/>
     <use xlink:href="#DejaVuSans-31" x="1947.660156"/>
     <use xlink:href="#DejaVuSans-37" x="2011.283203"/>
     <use xlink:href="#DejaVuSans-33" x="2074.90625"/>
     <use xlink:href="#DejaVuSans-38" x="2138.529297"/>
     <use xlink:href="#DejaVuSans-32" x="2202.152344"/>
     <use xlink:href="#DejaVuSans-38" x="2265.775391"/>
    </g>
   </g>
   <g id="legend_1">
    <g id="patch_7">
     <path d="M 79 95.234375 
L 161.517188 95.234375 
Q 163.517188 95.234375 163.517188 93.234375 
L 163.517188 50.2 
Q 163.517188 48.2 161.517188 48.2 
L 79 48.2 
Q 77 48.2 77 50.2 
L 77 93.234375 
Q 77 95.234375 79 95.234375 
z
" style="fill: #ffffff; opacity: 0.8; stroke: #cccccc; stroke-linejoin: miter"/>
    </g>
    <g id="line2d_16">
     <path d="M 81 56.298437 
L 91 56.298437 
L 101 56.298437 
" style="fill: none; stroke: #1f77b4; stroke-width: 1.5; stroke-linecap: square"/>
    </g>
    <g id="text_14">
     <!-- Measured -->
     <g transform="translate(109 59.798437) scale(0.1 -0.1)">
      <defs>
       <path id="DejaVuSans-4d" d="M 628 4666 
L 1569 4666 
L 2759 1491 
L 3956 4666 
L 4897 4666 
L 4897 0 
L 4281 0 
L 4281 4097 
L 3078 897 
L 2444 897 
L 1241 4097 
L 1241 0 
L 628 0 
L 628 4666 
z
" transform="scale(0.015625)"/>
       <path id="DejaVuSans-75" d="M 544 1381 
L 544 3500 
L 1119 3500 
L 1119 1403 
Q 1119 906 1312 657 
Q 1506 409 1894 409 
Q 2359 409 2629 706 
Q 2900 1003 2900 1516 
L 2900 3500 
L 3475 3500 
L 3475 0 
L 2900 0 
L 2900 538 
Q 2691 219 2414 64 
Q 2138 -91 1772 -91 
Q 1169 -91 856 284 
Q 544 659 544 1381 
z
M 1991 3584 
L 1991 3584 
z
" transform="scale(0.015625)"/>
      </defs>
      <use xlink:href="#DejaVuSans-4d"/>
      <use xlink:href="#DejaVuSans-65" x="86.279297"/>
      <use xlink:href="#DejaVuSans-61" x="147.802734"/>
      <use xlink:href="#DejaVuSans-73" x="209.082031"/>
      <use xlink:href="#DejaVuSans-75" x="261.181641"/>
      <use xlink:href="#DejaVuSans-72" x="324.560547"/>
      <use xlink:href="#DejaVuSans-65" x="363.423828"/>
      <use xlink:href="#DejaVuSans-64" x="424.947266"/>
     </g>
    </g>
    <g id="line2d_17">
     <path d="M 81 70.976562 
L 91 70.976562 
L 101 70.976562 
" style="fill: none; stroke: #ff7f0e; stroke-width: 1.5; stroke-linecap: square"/>
    </g>
    <g id="text_15">
     <!-- Fitted -->
     <g transform="translate(109 74.476562) scale(0.1 -0.1)">
      <defs>
       <path id="DejaVuSans-46" d="M 628 4666 
L 3309 4666 
L 3309 4134 
L 1259 4134 
L 1259 2759 
L 3109 2759 
L 3109 2228 
L 1259 2228 
L 1259 0 
L 628 0 
L 628 4666 
z
" transform="scale(0.015625)"/>
       <path id="DejaVuSans-74" d="M 1172 4494 
L 1172 3500 
L 2356 3500 
L 2356 3053 
L 1172 3053 
L 1172 1153 
Q 1172 725 1289 603 
Q 1406 481 1766 481 
L 2356 481 
L 2356 0 
L 1766 0 
Q 1100 0 847 248 
Q 594 497 594 1153 
L 594 3053 
L 172 3053 
L 172 3500 
L 594 3500 
L 594 4494 
L 1172 4494 
z
" transform="scale(0.015625)"/>
      </defs>
      <use xlink:href="#DejaVuSans-46"/>
      <use xlink:href="#DejaVuSans-69" x="50.269531"/>
      <use xlink:href="#DejaVuSans-74" x="78.052734"/>
      <use xlink:href="#DejaVuSans-74" x="117.261719"/>
      <use xlink:href="#DejaVuSans-65" x="156.470703"/>
      <use xlink:href="#DejaVuSans-64" x="217.994141"/>
     </g>
    </g>
    <g id="line2d_18">
     <path d="M 81 85.654687 
L 91 85.654687 
L 101 85.654687 
" style="fill: none; stroke: #2ca02c; stroke-width: 1.5; stroke-linecap: square"/>
    </g>
    <g id="text_16">
     <!-- Estimated -->
     <g transform="translate(109 89.154687) scale(0.1 -0.1)">
      <defs>
       <path id="DejaVuSans-45" d="M 628 4666 
L 3578 4666 
L 3578 4134 
L 1259 4134 
L 1259 2753 
L 3481 2753 
L 3481 2222 
L 1259 2222 
L 1259 531 
L 3634 531 
L 3634 0 
L 628 0 
L 628 4666 
z
" transform="scale(0.015625)"/>
      </defs>
      <use xlink:href="#DejaVuSans-45"/>
      <use xlink:href="#DejaVuSans-73" x="63.183594"/>
      <use xlink:href="#DejaVuSans-74" x="115.283203"/>
      <use xlink:href="#DejaVuSans-69" x="154.492188"/>
      <use xlink:href="#DejaVuSans-6d" x="182.275391"/>
      <use xlink:href="#DejaVuSans-61" x="279.6875"/>
      <use xlink:href="#DejaVuSans-74" x="340.966797"/>
      <use xlink:href="#DejaVuSans-65" x="380.175781"/>
      <use xlink:href="#DejaVuSans-64" x="441.699219"/>
     </g>
    </g>
   </g>
  </g>
 </g>
 <defs>
  <clipPath id="p756de7a3c6">
   <rect x="72" y="43.2" width="446.4" height="277.2"/>
  </clipPath>
 </defs>
</svg>
