<?xml version="1.0" encoding="utf-8" standalone="no"?>
<!DOCTYPE svg PUBLIC "-//W3C//DTD SVG 1.1//EN"
  "http://www.w3.org/Graphics/SVG/1.1/DTD/svg11.dtd">
<svg xmlns:xlink="http://www.w3.org/1999/xlink" width="576pt" height="360pt" viewBox="0 0 576 360" xmlns="http://www.w3.org/2000/svg" version="1.1">
 <metadata>
  <rdf:RDF xmlns:dc="http://purl.org/dc/elements/1.1/" xmlns:cc="http://creativecommons.org/ns#" xmlns:rdf="http://www.w3.org/1999/02/22-rdf-syntax-ns#">
   <cc:Work>
    <dc:type rdf:resource="http://purl.org/dc/dcmitype/StillImage"/>
    <dc:date>2023-11-23T16:49:59.212662</dc:date>
    <dc:format>image/svg+xml</dc:format>
    <dc:creator>
     <cc:Agent>
      <dc:title>Matplotlib v3.8.1, https://matplotlib.org/</dc:title>
     </cc:Agent>
    </dc:creator>
   </cc:Work>
  </rdf:RDF>
 </metadata>
 <defs>
  <style type="text/css">*{stroke-linejoin: round; stroke-linecap: butt}</style>
 </defs>
 <g id="figure_1">
  <g id="patch_1">
   <path d="M 0 360 
L 576 360 
L 576 0 
L 0 0 
z
" style="fill: #ffffff"/>
  </g>
  <g id="axes_1">
   <g id="patch_2">
    <path d="M 72 320.4 
L 518.4 320.4 
L 518.4 43.2 
L 72 43.2 
z
" style="fill: #ffffff"/>
   </g>
   <g id="matplotlib.axis_1">
    <g id="xtick_1">
     <g id="line2d_1">
      <defs>
       <path id="mea7130da73" d="M 0 0 
L 0 3.5 
" style="stroke: #000000; stroke-width: 0.8"/>
      </defs>
      <g>
       <use xlink:href="#mea7130da73" x="129.874161" y="320.4" style="stroke: #000000; stroke-width: 0.8"/>
      </g>
     </g>
     <g id="text_1">
      <!-- 2020-05-15 -->
      <g transform="translate(100.816349 334.998438) scale(0.1 -0.1)">
       <defs>
        <path id="DejaVuSans-32" d="M 1228 531 
L 3431 531 
L 3431 0 
L 469 0 
L 469 531 
Q 828 903 1448 1529 
Q 2069 2156 2228 2338 
Q 2531 2678 2651 2914 
Q 2772 3150 2772 3378 
Q 2772 3750 2511 3984 
Q 2250 4219 1831 4219 
Q 1534 4219 1204 4116 
Q 875 4013 500 3803 
L 500 4441 
Q 881 4594 1212 4672 
Q 1544 4750 1819 4750 
Q 2544 4750 2975 4387 
Q 3406 4025 3406 3419 
Q 3406 3131 3298 2873 
Q 3191 2616 2906 2266 
Q 2828 2175 2409 1742 
Q 1991 1309 1228 531 
z
" transform="scale(0.015625)"/>
        <path id="DejaVuSans-30" d="M 2034 4250 
Q 1547 4250 1301 3770 
Q 1056 3291 1056 2328 
Q 1056 1369 1301 889 
Q 1547 409 2034 409 
Q 2525 409 2770 889 
Q 3016 1369 3016 2328 
Q 3016 3291 2770 3770 
Q 2525 4250 2034 4250 
z
M 2034 4750 
Q 2819 4750 3233 4129 
Q 3647 3509 3647 2328 
Q 3647 1150 3233 529 
Q 2819 -91 2034 -91 
Q 1250 -91 836 529 
Q 422 1150 422 2328 
Q 422 3509 836 4129 
Q 1250 4750 2034 4750 
z
" transform="scale(0.015625)"/>
        <path id="DejaVuSans-2d" d="M 313 2009 
L 1997 2009 
L 1997 1497 
L 313 1497 
L 313 2009 
z
" transform="scale(0.015625)"/>
        <path id="DejaVuSans-35" d="M 691 4666 
L 3169 4666 
L 3169 4134 
L 1269 4134 
L 1269 2991 
Q 1406 3038 1543 3061 
Q 1681 3084 1819 3084 
Q 2600 3084 3056 2656 
Q 3513 2228 3513 1497 
Q 3513 744 3044 326 
Q 2575 -91 1722 -91 
Q 1428 -91 1123 -41 
Q 819 9 494 109 
L 494 744 
Q 775 591 1075 516 
Q 1375 441 1709 441 
Q 2250 441 2565 725 
Q 2881 1009 2881 1497 
Q 2881 1984 2565 2268 
Q 2250 2553 1709 2553 
Q 1456 2553 1204 2497 
Q 953 2441 691 2322 
L 691 4666 
z
" transform="scale(0.015625)"/>
        <path id="DejaVuSans-31" d="M 794 531 
L 1825 531 
L 1825 4091 
L 703 3866 
L 703 4441 
L 1819 4666 
L 2450 4666 
L 2450 531 
L 3481 531 
L 3481 0 
L 794 0 
L 794 531 
z
" transform="scale(0.015625)"/>
       </defs>
       <use xlink:href="#DejaVuSans-32"/>
       <use xlink:href="#DejaVuSans-30" x="63.623047"/>
       <use xlink:href="#DejaVuSans-32" x="127.246094"/>
       <use xlink:href="#DejaVuSans-30" x="190.869141"/>
       <use xlink:href="#DejaVuSans-2d" x="254.492188"/>
       <use xlink:href="#DejaVuSans-30" x="290.576172"/>
       <use xlink:href="#DejaVuSans-35" x="354.199219"/>
       <use xlink:href="#DejaVuSans-2d" x="417.822266"/>
       <use xlink:href="#DejaVuSans-31" x="453.90625"/>
       <use xlink:href="#DejaVuSans-35" x="517.529297"/>
      </g>
     </g>
    </g>
    <g id="xtick_2">
     <g id="line2d_2">
      <g>
       <use xlink:href="#mea7130da73" x="212.435902" y="320.4" style="stroke: #000000; stroke-width: 0.8"/>
      </g>
     </g>
     <g id="text_2">
      <!-- 2020-06-01 -->
      <g transform="translate(183.37809 334.998438) scale(0.1 -0.1)">
       <defs>
        <path id="DejaVuSans-36" d="M 2113 2584 
Q 1688 2584 1439 2293 
Q 1191 2003 1191 1497 
Q 1191 994 1439 701 
Q 1688 409 2113 409 
Q 2538 409 2786 701 
Q 3034 994 3034 1497 
Q 3034 2003 2786 2293 
Q 2538 2584 2113 2584 
z
M 3366 4563 
L 3366 3988 
Q 3128 4100 2886 4159 
Q 2644 4219 2406 4219 
Q 1781 4219 1451 3797 
Q 1122 3375 1075 2522 
Q 1259 2794 1537 2939 
Q 1816 3084 2150 3084 
Q 2853 3084 3261 2657 
Q 3669 2231 3669 1497 
Q 3669 778 3244 343 
Q 2819 -91 2113 -91 
Q 1303 -91 875 529 
Q 447 1150 447 2328 
Q 447 3434 972 4092 
Q 1497 4750 2381 4750 
Q 2619 4750 2861 4703 
Q 3103 4656 3366 4563 
z
" transform="scale(0.015625)"/>
       </defs>
       <use xlink:href="#DejaVuSans-32"/>
       <use xlink:href="#DejaVuSans-30" x="63.623047"/>
       <use xlink:href="#DejaVuSans-32" x="127.246094"/>
       <use xlink:href="#DejaVuSans-30" x="190.869141"/>
       <use xlink:href="#DejaVuSans-2d" x="254.492188"/>
       <use xlink:href="#DejaVuSans-30" x="290.576172"/>
       <use xlink:href="#DejaVuSans-36" x="354.199219"/>
       <use xlink:href="#DejaVuSans-2d" x="417.822266"/>
       <use xlink:href="#DejaVuSans-30" x="453.90625"/>
       <use xlink:href="#DejaVuSans-31" x="517.529297"/>
      </g>
     </g>
    </g>
    <g id="xtick_3">
     <g id="line2d_3">
      <g>
       <use xlink:href="#mea7130da73" x="280.427924" y="320.4" style="stroke: #000000; stroke-width: 0.8"/>
      </g>
     </g>
     <g id="text_3">
      <!-- 2020-06-15 -->
      <g transform="translate(251.370111 334.998438) scale(0.1 -0.1)">
       <use xlink:href="#DejaVuSans-32"/>
       <use xlink:href="#DejaVuSans-30" x="63.623047"/>
       <use xlink:href="#DejaVuSans-32" x="127.246094"/>
       <use xlink:href="#DejaVuSans-30" x="190.869141"/>
       <use xlink:href="#DejaVuSans-2d" x="254.492188"/>
       <use xlink:href="#DejaVuSans-30" x="290.576172"/>
       <use xlink:href="#DejaVuSans-36" x="354.199219"/>
       <use xlink:href="#DejaVuSans-2d" x="417.822266"/>
       <use xlink:href="#DejaVuSans-31" x="453.90625"/>
       <use xlink:href="#DejaVuSans-35" x="517.529297"/>
      </g>
     </g>
    </g>
    <g id="xtick_4">
     <g id="line2d_4">
      <g>
       <use xlink:href="#mea7130da73" x="358.133092" y="320.4" style="stroke: #000000; stroke-width: 0.8"/>
      </g>
     </g>
     <g id="text_4">
      <!-- 2020-07-01 -->
      <g transform="translate(329.075279 334.998438) scale(0.1 -0.1)">
       <defs>
        <path id="DejaVuSans-37" d="M 525 4666 
L 3525 4666 
L 3525 4397 
L 1831 0 
L 1172 0 
L 2766 4134 
L 525 4134 
L 525 4666 
z
" transform="scale(0.015625)"/>
       </defs>
       <use xlink:href="#DejaVuSans-32"/>
       <use xlink:href="#DejaVuSans-30" x="63.623047"/>
       <use xlink:href="#DejaVuSans-32" x="127.246094"/>
       <use xlink:href="#DejaVuSans-30" x="190.869141"/>
       <use xlink:href="#DejaVuSans-2d" x="254.492188"/>
       <use xlink:href="#DejaVuSans-30" x="290.576172"/>
       <use xlink:href="#DejaVuSans-37" x="354.199219"/>
       <use xlink:href="#DejaVuSans-2d" x="417.822266"/>
       <use xlink:href="#DejaVuSans-30" x="453.90625"/>
       <use xlink:href="#DejaVuSans-31" x="517.529297"/>
      </g>
     </g>
    </g>
    <g id="xtick_5">
     <g id="line2d_5">
      <g>
       <use xlink:href="#mea7130da73" x="426.125113" y="320.4" style="stroke: #000000; stroke-width: 0.8"/>
      </g>
     </g>
     <g id="text_5">
      <!-- 2020-07-15 -->
      <g transform="translate(397.067301 334.998438) scale(0.1 -0.1)">
       <use xlink:href="#DejaVuSans-32"/>
       <use xlink:href="#DejaVuSans-30" x="63.623047"/>
       <use xlink:href="#DejaVuSans-32" x="127.246094"/>
       <use xlink:href="#DejaVuSans-30" x="190.869141"/>
       <use xlink:href="#DejaVuSans-2d" x="254.492188"/>
       <use xlink:href="#DejaVuSans-30" x="290.576172"/>
       <use xlink:href="#DejaVuSans-37" x="354.199219"/>
       <use xlink:href="#DejaVuSans-2d" x="417.822266"/>
       <use xlink:href="#DejaVuSans-31" x="453.90625"/>
       <use xlink:href="#DejaVuSans-35" x="517.529297"/>
      </g>
     </g>
    </g>
    <g id="xtick_6">
     <g id="line2d_6">
      <g>
       <use xlink:href="#mea7130da73" x="508.686854" y="320.4" style="stroke: #000000; stroke-width: 0.8"/>
      </g>
     </g>
     <g id="text_6">
      <!-- 2020-08-01 -->
      <g transform="translate(479.629042 334.998438) scale(0.1 -0.1)">
       <defs>
        <path id="DejaVuSans-38" d="M 2034 2216 
Q 1584 2216 1326 1975 
Q 1069 1734 1069 1313 
Q 1069 891 1326 650 
Q 1584 409 2034 409 
Q 2484 409 2743 651 
Q 3003 894 3003 1313 
Q 3003 1734 2745 1975 
Q 2488 2216 2034 2216 
z
M 1403 2484 
Q 997 2584 770 2862 
Q 544 3141 544 3541 
Q 544 4100 942 4425 
Q 1341 4750 2034 4750 
Q 2731 4750 3128 4425 
Q 3525 4100 3525 3541 
Q 3525 3141 3298 2862 
Q 3072 2584 2669 2484 
Q 3125 2378 3379 2068 
Q 3634 1759 3634 1313 
Q 3634 634 3220 271 
Q 2806 -91 2034 -91 
Q 1263 -91 848 271 
Q 434 634 434 1313 
Q 434 1759 690 2068 
Q 947 2378 1403 2484 
z
M 1172 3481 
Q 1172 3119 1398 2916 
Q 1625 2713 2034 2713 
Q 2441 2713 2670 2916 
Q 2900 3119 2900 3481 
Q 2900 3844 2670 4047 
Q 2441 4250 2034 4250 
Q 1625 4250 1398 4047 
Q 1172 3844 1172 3481 
z
" transform="scale(0.015625)"/>
       </defs>
       <use xlink:href="#DejaVuSans-32"/>
       <use xlink:href="#DejaVuSans-30" x="63.623047"/>
       <use xlink:href="#DejaVuSans-32" x="127.246094"/>
       <use xlink:href="#DejaVuSans-30" x="190.869141"/>
       <use xlink:href="#DejaVuSans-2d" x="254.492188"/>
       <use xlink:href="#DejaVuSans-30" x="290.576172"/>
       <use xlink:href="#DejaVuSans-38" x="354.199219"/>
       <use xlink:href="#DejaVuSans-2d" x="417.822266"/>
       <use xlink:href="#DejaVuSans-30" x="453.90625"/>
       <use xlink:href="#DejaVuSans-31" x="517.529297"/>
      </g>
     </g>
    </g>
   </g>
   <g id="matplotlib.axis_2">
    <g id="ytick_1">
     <g id="line2d_7">
      <defs>
       <path id="mc84718469b" d="M 0 0 
L -3.5 0 
" style="stroke: #000000; stroke-width: 0.8"/>
      </defs>
      <g>
       <use xlink:href="#mc84718469b" x="72" y="315.535848" style="stroke: #000000; stroke-width: 0.8"/>
      </g>
     </g>
     <g id="text_7">
      <!-- −2 -->
      <g transform="translate(50.257812 319.335067) scale(0.1 -0.1)">
       <defs>
        <path id="DejaVuSans-2212" d="M 678 2272 
L 4684 2272 
L 4684 1741 
L 678 1741 
L 678 2272 
z
" transform="scale(0.015625)"/>
       </defs>
       <use xlink:href="#DejaVuSans-2212"/>
       <use xlink:href="#DejaVuSans-32" x="83.789062"/>
      </g>
     </g>
    </g>
    <g id="ytick_2">
     <g id="line2d_8">
      <g>
       <use xlink:href="#mc84718469b" x="72" y="264.327553" style="stroke: #000000; stroke-width: 0.8"/>
      </g>
     </g>
     <g id="text_8">
      <!-- −1 -->
      <g transform="translate(50.257812 268.126772) scale(0.1 -0.1)">
       <use xlink:href="#DejaVuSans-2212"/>
       <use xlink:href="#DejaVuSans-31" x="83.789062"/>
      </g>
     </g>
    </g>
    <g id="ytick_3">
     <g id="line2d_9">
      <g>
       <use xlink:href="#mc84718469b" x="72" y="213.119258" style="stroke: #000000; stroke-width: 0.8"/>
      </g>
     </g>
     <g id="text_9">
      <!-- 0 -->
      <g transform="translate(58.6375 216.918477) scale(0.1 -0.1)">
       <use xlink:href="#DejaVuSans-30"/>
      </g>
     </g>
    </g>
    <g id="ytick_4">
     <g id="line2d_10">
      <g>
       <use xlink:href="#mc84718469b" x="72" y="161.910963" style="stroke: #000000; stroke-width: 0.8"/>
      </g>
     </g>
     <g id="text_10">
      <!-- 1 -->
      <g transform="translate(58.6375 165.710182) scale(0.1 -0.1)">
       <use xlink:href="#DejaVuSans-31"/>
      </g>
     </g>
    </g>
    <g id="ytick_5">
     <g id="line2d_11">
      <g>
       <use xlink:href="#mc84718469b" x="72" y="110.702668" style="stroke: #000000; stroke-width: 0.8"/>
      </g>
     </g>
     <g id="text_11">
      <!-- 2 -->
      <g transform="translate(58.6375 114.501887) scale(0.1 -0.1)">
       <use xlink:href="#DejaVuSans-32"/>
      </g>
     </g>
    </g>
    <g id="ytick_6">
     <g id="line2d_12">
      <g>
       <use xlink:href="#mc84718469b" x="72" y="59.494373" style="stroke: #000000; stroke-width: 0.8"/>
      </g>
     </g>
     <g id="text_12">
      <!-- 3 -->
      <g transform="translate(58.6375 63.293592) scale(0.1 -0.1)">
       <defs>
        <path id="DejaVuSans-33" d="M 2597 2516 
Q 3050 2419 3304 2112 
Q 3559 1806 3559 1356 
Q 3559 666 3084 287 
Q 2609 -91 1734 -91 
Q 1441 -91 1130 -33 
Q 819 25 488 141 
L 488 750 
Q 750 597 1062 519 
Q 1375 441 1716 441 
Q 2309 441 2620 675 
Q 2931 909 2931 1356 
Q 2931 1769 2642 2001 
Q 2353 2234 1838 2234 
L 1294 2234 
L 1294 2753 
L 1863 2753 
Q 2328 2753 2575 2939 
Q 2822 3125 2822 3475 
Q 2822 3834 2567 4026 
Q 2313 4219 1838 4219 
Q 1578 4219 1281 4162 
Q 984 4106 628 3988 
L 628 4550 
Q 988 4650 1302 4700 
Q 1616 4750 1894 4750 
Q 2613 4750 3031 4423 
Q 3450 4097 3450 3541 
Q 3450 3153 3228 2886 
Q 3006 2619 2597 2516 
z
" transform="scale(0.015625)"/>
       </defs>
       <use xlink:href="#DejaVuSans-33"/>
      </g>
     </g>
    </g>
   </g>
   <g id="line2d_13">
    <path d="M 72 287.906754 
L 72.404714 298.758916 
L 72.607072 297.110995 
L 72.809429 286.901924 
L 73.214143 257.319733 
L 73.618858 245.422548 
L 75.035358 166.04099 
L 75.237715 163.20737 
L 75.440073 168.05065 
L 75.64243 175.908419 
L 75.844787 179.063585 
L 76.047144 193.653714 
L 76.654216 260.896927 
L 77.05893 283.927627 
L 77.261287 288.10772 
L 77.463645 287.745981 
L 77.666002 277.496716 
L 78.070716 250.225634 
L 78.475431 238.288256 
L 78.677788 229.546236 
L 79.487217 175.004072 
L 79.891931 159.42921 
L 80.094288 161.298193 
L 80.903717 201.893319 
L 81.713146 273.999909 
L 82.11786 288.027333 
L 82.320218 289.976703 
L 82.522575 289.695351 
L 82.724932 287.283759 
L 82.927289 280.752365 
L 83.332004 258.746591 
L 83.736718 245.040712 
L 83.939075 242.126706 
L 84.141432 242.387962 
L 84.546147 248.517424 
L 84.748504 250.527083 
L 84.950861 250.54718 
L 85.355576 254.566499 
L 85.557933 251.37114 
L 85.76029 257.239347 
L 86.569719 300.286257 
L 86.772076 306.11427 
L 86.974433 307.641612 
L 87.176791 307.701902 
L 87.379148 306.415719 
L 87.581505 302.838525 
L 87.783862 296.367421 
L 88.188577 275.245898 
L 88.390934 270.282038 
L 89.200363 262.544848 
L 89.40272 258.585819 
L 89.807434 244.417718 
L 90.212149 242.066416 
L 90.414506 239.473955 
L 90.616863 247.090565 
L 91.223935 295.54346 
L 91.628649 306.11427 
L 91.831006 306.17456 
L 92.033364 303.783065 
L 92.842792 259.570552 
L 93.04515 257.520699 
L 93.449864 249.281094 
L 93.652221 248.778679 
L 93.854578 245.965156 
L 94.056936 245.362258 
L 94.259293 242.850183 
L 94.46165 236.720721 
L 94.664007 233.987584 
L 94.866364 234.871834 
L 95.068722 237.886324 
L 95.271079 234.208647 
L 95.473436 243.895206 
L 96.080508 295.905199 
L 96.485222 304.727605 
L 96.687579 306.556396 
L 96.889937 302.3964 
L 97.699365 258.867171 
L 98.306437 248.798776 
L 98.508794 248.437037 
L 99.52058 228.099281 
L 99.722937 229.305077 
L 99.925295 233.485169 
L 100.127652 231.736765 
L 100.330009 241.463518 
L 100.937081 293.533801 
L 101.341795 305.29031 
L 101.544152 306.23485 
L 101.74651 302.677752 
L 101.948867 291.222692 
L 102.353581 262.444365 
L 102.555938 260.957217 
L 103.567724 243.915303 
L 104.377153 222.73349 
L 104.57951 223.959382 
L 104.781868 229.124208 
L 104.984225 229.104111 
L 105.186582 237.625068 
L 105.793654 290.519311 
L 106.198368 302.738042 
L 106.400725 304.426156 
L 106.603083 300.56761 
L 107.412511 256.556062 
L 107.614869 254.908141 
L 107.817226 251.391237 
L 108.22194 237.464295 
L 108.626655 216.664318 
L 108.829012 210.976981 
L 109.031369 209.168287 
L 109.638441 217.488278 
L 109.840798 222.693297 
L 110.043155 232.661209 
L 110.650227 285.414776 
L 111.054941 299.080462 
L 111.257298 300.909252 
L 111.459655 299.241234 
L 111.662013 288.308686 
L 112.066727 260.273933 
L 112.471442 245.904866 
L 113.887942 180.349767 
L 114.090299 178.078851 
L 114.292656 184.610245 
L 114.495014 195.562891 
L 114.697371 199.964046 
L 115.102085 232.560726 
L 115.709157 279.868115 
L 116.113871 293.232352 
L 116.316228 293.393125 
L 116.518586 291.805493 
L 116.720943 288.328782 
L 117.125657 262.223303 
L 118.542158 161.921188 
L 118.744515 152.234628 
L 118.946872 148.516757 
L 119.149229 152.033662 
L 119.756301 188.328116 
L 120.56573 264.373639 
L 120.970444 283.364923 
L 121.172801 287.283759 
L 121.375159 288.851294 
L 121.577516 287.464628 
L 121.779873 279.868115 
L 122.589302 230.993191 
L 123.196374 206.595923 
L 123.398731 202.214864 
L 123.601088 202.41583 
L 123.803445 201.873222 
L 124.410517 214.714948 
L 124.612874 225.225468 
L 125.219946 279.164734 
L 125.62466 293.091676 
L 125.827017 295.000852 
L 126.029374 292.569164 
L 127.04116 238.529415 
L 127.648232 202.677086 
L 128.255304 162.061864 
L 128.457661 154.827089 
L 128.660018 154.505543 
L 129.26709 196.989749 
L 130.278876 284.048207 
L 130.481233 291.544238 
L 130.68359 292.870613 
L 130.885947 290.398732 
L 132.504805 186.017007 
L 133.111877 145.120433 
L 133.314234 136.097061 
L 133.516591 137.724885 
L 133.921306 152.45569 
L 134.123663 159.569886 
L 135.135449 264.876054 
L 135.540163 276.974205 
L 135.74252 276.069858 
L 135.944878 265.921077 
L 136.349592 235.816374 
L 136.551949 229.325174 
L 136.754306 217.9505 
L 136.956664 222.331558 
L 137.159021 211.499492 
L 137.766092 203.038825 
L 137.96845 203.42066 
L 138.373164 198.235738 
L 138.777879 205.470513 
L 138.980236 206.274377 
L 139.182593 217.588761 
L 139.789665 271.869669 
L 140.194379 286.600475 
L 140.396736 288.590038 
L 140.599093 285.696128 
L 141.003808 256.736932 
L 141.408522 236.439369 
L 142.015594 223.597643 
L 142.622665 214.835527 
L 142.825023 214.574271 
L 143.02738 213.408669 
L 143.229737 214.071857 
L 143.634451 219.136199 
L 143.836809 217.9505 
L 144.039166 227.717446 
L 144.646238 275.024835 
L 145.050952 286.620571 
L 145.253309 287.86656 
L 145.455666 284.852071 
L 145.860381 256.415386 
L 146.062738 240.639558 
L 146.66981 224.843633 
L 146.872167 222.271268 
L 147.074524 221.226245 
L 147.479238 210.575049 
L 147.681596 218.694074 
L 147.883953 219.638614 
L 148.08631 222.150689 
L 148.491024 231.093674 
L 148.693382 229.787395 
L 149.098096 252.476453 
L 149.502811 279.506376 
L 149.907525 292.106942 
L 150.109882 294.096505 
L 150.312239 293.533801 
L 150.514597 290.800664 
L 150.716954 285.274099 
L 151.121668 265.056923 
L 151.526383 245.201485 
L 151.931097 239.574438 
L 152.133454 239.15241 
L 152.335811 241.061586 
L 152.538169 241.564001 
L 152.740526 239.574438 
L 152.942883 239.85579 
L 153.14524 238.91125 
L 153.347597 238.951444 
L 153.549955 236.117823 
L 153.752312 238.248063 
L 154.764098 288.127816 
L 154.966455 291.966266 
L 155.168812 293.312738 
L 155.573527 289.494385 
L 155.775884 278.762802 
L 156.78767 203.219694 
L 157.799456 161.901091 
L 158.001813 163.850461 
L 158.406528 176.651993 
L 158.608885 189.795167 
L 159.215956 256.335 
L 159.620671 277.275654 
L 159.823028 280.390626 
L 160.025385 279.506376 
L 160.227743 270.000686 
L 160.632457 238.529415 
L 161.8466 189.754974 
L 162.251315 180.008125 
L 162.453672 180.148801 
L 162.656029 182.922131 
L 163.465458 213.770408 
L 164.072529 271.809379 
L 164.477244 289.856124 
L 164.679601 290.177669 
L 164.881958 287.0426 
L 165.084316 277.195267 
L 165.48903 246.387184 
L 166.500816 212.363646 
L 167.310245 170.743594 
L 167.512602 173.999242 
L 167.917316 193.955163 
L 168.119674 198.275931 
L 168.322031 209.288866 
L 168.929102 266.90581 
L 169.333817 281.636615 
L 169.536174 285.053037 
L 169.738531 281.495939 
L 170.143246 255.028721 
L 170.54796 225.6274 
L 171.357389 182.39962 
L 171.559746 176.55151 
L 172.166818 153.078685 
L 172.369175 154.646219 
L 172.571532 162.32312 
L 173.178604 200.124818 
L 173.785675 269.076242 
L 174.19039 287.886657 
L 174.392747 290.780567 
L 174.595104 289.012066 
L 174.999819 265.539241 
L 175.404533 241.282649 
L 177.023391 165.377802 
L 177.225748 165.880217 
L 177.428105 169.678474 
L 177.630462 185.775848 
L 177.83282 188.147247 
L 178.237534 230.952998 
L 178.642248 272.593147 
L 179.046963 291.222692 
L 179.24932 294.84008 
L 179.451677 292.388295 
L 179.654034 283.947724 
L 180.261106 245.261775 
L 181.879964 151.129315 
L 182.082321 147.954053 
L 182.284678 153.46052 
L 183.094107 208.163457 
L 183.498821 246.045542 
L 183.903536 266.885713 
L 184.30825 274.502323 
L 184.510607 275.828699 
L 184.712965 272.291698 
L 184.915322 259.2892 
L 185.724751 179.606193 
L 186.129465 158.826312 
L 186.331822 152.938009 
L 186.53418 152.194435 
L 186.736537 154.666316 
L 187.748323 193.97526 
L 188.557752 256.375193 
L 188.962466 270.161459 
L 189.164823 272.151022 
L 189.36718 272.231408 
L 189.569538 271.507931 
L 189.771895 261.017507 
L 190.986038 167.668814 
L 191.188395 162.503989 
L 191.390752 162.463796 
L 191.795467 171.366588 
L 192.604896 201.833029 
L 193.414325 263.469292 
L 193.819039 276.813432 
L 194.021396 277.858455 
L 194.426111 273.999909 
L 194.628468 265.277985 
L 195.437897 205.972928 
L 195.640254 201.089455 
L 195.842611 202.275154 
L 196.247325 208.183554 
L 196.449683 208.746258 
L 196.65204 208.364423 
L 197.056754 216.362869 
L 197.259112 217.186829 
L 197.461469 225.386241 
L 198.06854 272.492664 
L 198.473255 286.319122 
L 198.675612 286.419605 
L 198.877969 282.862508 
L 199.282684 252.858289 
L 199.687398 230.611356 
L 201.306256 165.880217 
L 201.508613 164.754808 
L 202.115684 183.464739 
L 202.318042 194.336998 
L 202.925113 256.797222 
L 203.329828 273.999909 
L 203.532185 276.049761 
L 203.734542 273.135755 
L 203.936899 261.901757 
L 204.341614 228.762469 
L 205.758114 175.466294 
L 205.960471 173.034606 
L 206.162829 173.175282 
L 206.365186 174.561947 
L 206.7699 186.11749 
L 206.972257 189.232463 
L 207.174615 199.803273 
L 207.781686 257.380023 
L 208.186401 273.135755 
L 208.388758 276.110051 
L 208.591115 272.854403 
L 208.793472 261.278763 
L 209.198187 228.320344 
L 209.805258 206.595923 
L 210.209973 187.202706 
L 210.817044 146.547291 
L 211.019402 138.267493 
L 211.221759 141.161403 
L 211.626473 165.03616 
L 211.82883 170.120599 
L 212.031188 184.489666 
L 212.638259 247.934622 
L 213.042974 266.061753 
L 213.245331 269.960493 
L 213.447688 268.292475 
L 213.650045 257.842245 
L 214.257117 215.639391 
L 214.661831 189.935844 
L 215.47126 132.037548 
L 215.875975 115.719111 
L 216.078332 115.25689 
L 216.280689 120.662874 
L 217.090118 182.881938 
L 217.697189 243.292308 
L 218.101904 261.298859 
L 218.304261 264.574605 
L 218.506618 265.90098 
L 218.708976 264.675088 
L 218.911333 252.255391 
L 219.518404 198.798443 
L 220.125476 164.453359 
L 220.327833 162.343216 
L 220.53019 164.513649 
L 221.541976 205.792059 
L 221.744334 210.816208 
L 222.553762 266.323009 
L 222.958477 276.934012 
L 223.160834 278.602029 
L 223.363191 278.943671 
L 223.565549 277.41633 
L 223.767906 268.91547 
L 224.374977 231.636282 
L 224.779692 224.240735 
L 225.386763 226.250394 
L 225.589121 229.686912 
L 225.791478 230.551066 
L 226.196192 238.730381 
L 226.398549 238.388739 
L 226.600907 244.658877 
L 227.410335 296.970319 
L 227.612693 300.909252 
L 227.81505 302.557173 
L 228.017407 299.4422 
L 228.826836 257.882438 
L 229.029193 255.611522 
L 229.23155 250.004572 
L 230.648051 188.12715 
L 230.850408 188.689855 
L 231.255122 202.757472 
L 231.45748 213.388572 
L 232.064551 275.52725 
L 232.469266 292.287812 
L 232.671623 294.940563 
L 232.87398 293.754863 
L 233.278694 269.076242 
L 233.683409 247.090565 
L 235.302267 184.067637 
L 235.504624 183.484836 
L 236.111695 202.134478 
L 236.314053 212.243066 
L 236.921124 272.874499 
L 237.325839 288.368975 
L 237.528196 291.423658 
L 237.730553 289.353709 
L 238.135267 265.981366 
L 238.539982 244.719167 
L 239.349411 214.534078 
L 239.754125 204.767132 
L 240.15884 194.79922 
L 240.361197 194.558061 
L 240.563554 199.883659 
L 240.968268 217.066249 
L 241.170626 224.461797 
L 241.777697 278.662319 
L 242.182412 294.136699 
L 242.384769 296.568387 
L 242.587126 293.65438 
L 242.99184 269.538464 
L 243.396555 252.014232 
L 245.21777 179.164068 
L 245.420127 183.303967 
L 246.027199 209.449639 
L 246.836627 281.154297 
L 247.038985 289.313515 
L 247.241342 292.408391 
L 247.443699 289.93651 
L 247.848413 266.946003 
L 249.467271 157.660709 
L 249.669628 149.782843 
L 249.871985 147.893763 
L 250.074343 148.054536 
L 250.2767 154.827089 
L 250.883772 186.157683 
L 251.6932 259.309296 
L 252.097915 273.477397 
L 252.300272 276.47179 
L 252.502629 276.733046 
L 252.704986 272.954886 
L 253.109701 241.001296 
L 253.91913 169.577991 
L 254.323844 154.163901 
L 254.728558 145.562558 
L 254.930916 144.336665 
L 255.133273 151.651827 
L 255.740345 188.207536 
L 256.549773 261.580212 
L 256.954488 276.672756 
L 257.156845 280.390626 
L 257.359202 282.018451 
L 257.561559 281.073911 
L 257.966274 252.898482 
L 258.573345 203.742206 
L 258.97806 182.600586 
L 259.382774 171.848906 
L 259.585131 168.492775 
L 259.787489 168.070746 
L 259.989846 170.623014 
L 260.39456 186.217973 
L 260.596917 199.240568 
L 261.203989 259.711228 
L 261.608704 277.958938 
L 261.811061 280.812655 
L 262.013418 280.048984 
L 262.418132 256.676642 
L 262.62049 244.960326 
L 263.025204 235.535022 
L 263.227561 232.801885 
L 263.429918 231.817152 
L 263.834633 233.063141 
L 264.03699 232.761692 
L 264.239347 233.686135 
L 264.441704 233.766522 
L 264.644062 233.505266 
L 264.846419 235.494829 
L 265.048776 239.433762 
L 265.251133 239.433762 
L 265.45349 243.352598 
L 266.060562 284.771685 
L 266.465277 297.291864 
L 266.667634 298.799109 
L 266.869991 294.7195 
L 267.072348 286.962214 
L 267.477063 261.11799 
L 268.084134 239.494052 
L 268.488849 229.46585 
L 269.09592 218.493108 
L 269.500635 214.634561 
L 269.702992 216.764801 
L 269.905349 220.281705 
L 270.107706 220.944893 
L 270.310063 227.094451 
L 270.917135 274.743483 
L 271.32185 286.419605 
L 271.524207 288.509652 
L 271.726564 286.841634 
L 274.15485 148.757917 
L 274.357208 141.764301 
L 274.559565 145.01995 
L 275.166636 169.557894 
L 275.976065 249.120322 
L 276.38078 261.379246 
L 276.583137 260.695961 
L 276.987851 239.393569 
L 277.392566 211.198043 
L 278.404352 155.651049 
L 278.606709 152.676753 
L 279.011423 139.774738 
L 279.213781 138.207203 
L 279.416138 142.367199 
L 280.023209 183.062808 
L 280.630281 252.657323 
L 281.034995 274.884159 
L 281.237353 279.647052 
L 281.43971 278.139808 
L 281.642067 272.392181 
L 282.249139 231.656379 
L 282.85621 198.838636 
L 283.867996 157.098004 
L 284.070354 155.932402 
L 284.272711 163.890654 
L 285.284497 244.940229 
L 285.689211 276.331114 
L 286.093926 290.720277 
L 286.296283 292.950999 
L 286.49864 291.182499 
L 286.700997 288.308686 
L 287.105712 258.043211 
L 287.712783 207.741429 
L 288.522212 165.357706 
L 288.724569 158.404283 
L 288.926927 156.515203 
L 289.129284 160.012011 
L 289.736355 193.010623 
L 290.545784 261.399342 
L 290.950499 276.311017 
L 291.152856 279.024058 
L 291.355213 279.104444 
L 291.55757 277.657489 
L 291.759927 265.478951 
L 292.771714 169.176059 
L 293.176428 147.712894 
L 293.581142 136.740152 
L 293.7835 135.052037 
L 293.985857 138.488556 
L 294.592928 163.408336 
L 295.402357 244.69907 
L 295.807072 259.04804 
L 296.009429 258.887268 
L 296.414143 239.072023 
L 297.830644 107.157961 
L 298.235358 94.155463 
L 298.437715 91.623292 
L 298.640073 91.884547 
L 298.84243 93.894207 
L 299.044787 101.751976 
L 299.449501 128.118712 
L 300.056573 205.349933 
L 300.461287 230.028555 
L 300.663645 235.916857 
L 300.866002 236.620238 
L 301.068359 229.948168 
L 301.473073 200.566943 
L 302.484859 97.612077 
L 302.687217 86.538853 
L 302.889574 86.639336 
L 303.091931 94.557395 
L 303.496646 103.018062 
L 303.90136 124.782676 
L 304.306074 152.114048 
L 304.913146 219.819483 
L 305.31786 244.618684 
L 305.520218 250.064862 
L 305.722575 248.316458 
L 305.924932 241.342939 
L 306.532004 202.255058 
L 307.54379 133.765855 
L 307.746147 123.777847 
L 307.948504 122.913693 
L 308.757933 154.485447 
L 309.162647 179.988028 
L 309.769719 241.624291 
L 310.174433 261.077797 
L 310.376791 265.378468 
L 310.579148 264.815764 
L 310.983862 241.905643 
L 312.198005 140.11638 
L 312.60272 128.741706 
L 312.805077 124.461131 
L 313.007434 125.003739 
L 313.209791 128.621126 
L 313.816863 155.610856 
L 314.01922 168.99519 
L 314.626292 230.22952 
L 315.031006 250.285924 
L 315.233364 254.767465 
L 315.435721 254.124374 
L 315.840435 235.756085 
L 316.24515 217.448085 
L 316.649864 205.691576 
L 317.054578 190.719611 
L 317.66165 183.364256 
L 317.864007 182.922131 
L 318.066364 182.037881 
L 318.268722 186.619905 
L 318.875793 208.284037 
L 319.685222 265.619628 
L 320.089937 278.119711 
L 320.292294 279.727439 
L 320.697008 271.970152 
L 321.101723 246.306798 
L 322.315866 170.060309 
L 322.72058 160.032107 
L 322.922937 157.761192 
L 323.125295 161.800608 
L 323.732366 188.830531 
L 324.541795 255.892875 
L 324.94651 269.880106 
L 325.148867 272.713726 
L 325.351224 272.774016 
L 325.553581 270.56339 
L 325.755938 258.505432 
L 326.970082 148.516757 
L 327.172439 142.327006 
L 327.374796 140.779568 
L 327.77951 135.33339 
L 327.981868 140.216863 
L 328.184225 148.818206 
L 328.791296 199.361148 
L 329.196011 242.146802 
L 329.398368 257.058477 
L 329.803083 266.946003 
L 330.00544 266.02156 
L 330.207797 260.535189 
L 330.814869 213.067027 
L 331.42194 175.66726 
L 331.826655 153.480617 
L 332.029012 150.646997 
L 332.231369 150.667093 
L 332.433726 150.847963 
L 332.636083 152.897816 
L 332.838441 157.339163 
L 333.243155 179.766966 
L 333.445512 188.589372 
L 334.052584 252.898482 
L 334.457298 274.220971 
L 334.659655 279.526473 
L 334.862013 277.175171 
L 335.266727 257.761858 
L 335.671442 233.927294 
L 336.48087 194.678641 
L 336.683228 189.714781 
L 336.885585 188.629565 
L 337.087942 182.580489 
L 337.290299 180.771795 
L 337.695014 187.102223 
L 338.099728 201.250228 
L 338.302085 206.997854 
L 339.111514 271.407448 
L 339.313871 277.47662 
L 339.516228 279.667149 
L 339.718586 275.688023 
L 340.1233 252.838192 
L 340.932729 209.32906 
L 342.349229 148.898593 
L 342.551587 148.818206 
L 343.158658 172.974316 
L 343.76573 234.389516 
L 344.170444 252.014232 
L 344.372801 256.676642 
L 344.575159 254.586596 
L 344.777516 247.814043 
L 345.18223 217.588761 
L 346.194016 136.720055 
L 346.598731 122.270602 
L 347.003445 115.799498 
L 347.205802 114.975537 
L 347.40816 118.09051 
L 347.610517 125.76741 
L 348.015231 151.310184 
L 348.82466 240.478785 
L 349.229374 257.21925 
L 349.431732 256.475676 
L 349.634089 250.808436 
L 349.836446 239.91608 
L 351.050589 137.724885 
L 351.455304 119.758527 
L 351.860018 111.096894 
L 352.062375 110.212644 
L 352.264733 113.769741 
L 352.46709 124.621904 
L 353.276519 205.932735 
L 353.681233 243.051149 
L 354.085947 262.806104 
L 354.288305 267.970929 
L 354.490662 268.533634 
L 354.693019 266.343105 
L 355.097733 225.205371 
L 355.704805 152.958105 
L 356.109519 128.781899 
L 356.716591 110.976314 
L 356.918948 109.911195 
L 357.121306 114.613798 
L 357.52602 139.694351 
L 357.728377 152.114048 
L 358.740163 245.563224 
L 359.144878 258.264273 
L 359.347235 260.093063 
L 359.549592 259.771518 
L 359.751949 246.065639 
L 360.763735 127.998132 
L 361.16845 109.328393 
L 361.573164 98.456135 
L 361.775521 96.205316 
L 361.977879 99.420771 
L 362.180236 106.273711 
L 362.58495 131.515036 
L 363.394379 218.392625 
L 363.799093 235.675698 
L 364.001451 236.479562 
L 364.203808 230.711839 
L 364.406165 220.864506 
L 365.013237 152.737043 
L 365.620308 89.513149 
L 366.025023 73.677031 
L 366.429737 67.627955 
L 366.632094 68.110273 
L 366.834451 70.702734 
L 367.036809 79.243788 
L 367.441523 107.841245 
L 368.048595 185.856234 
L 368.453309 215.759971 
L 368.655666 224.120155 
L 368.858024 226.45136 
L 369.060381 222.633007 
L 369.262738 212.966544 
L 369.86981 150.707286 
L 370.476881 93.693241 
L 370.881596 77.394901 
L 371.083953 76.952776 
L 371.28631 77.656157 
L 371.488667 81.514703 
L 371.691024 87.624069 
L 372.298096 125.847796 
L 373.107525 209.20848 
L 373.512239 231.013288 
L 373.714597 235.293863 
L 374.119311 234.610579 
L 374.321668 222.110495 
L 375.333454 120.260942 
L 375.738169 107.258444 
L 375.940526 104.605693 
L 376.142883 103.520477 
L 376.34524 108.604916 
L 376.749955 134.348657 
L 377.559383 192.146469 
L 377.964098 226.149911 
L 378.368812 239.695018 
L 378.57117 239.91608 
L 378.773527 234.088067 
L 378.975884 223.075132 
L 380.392384 108.584819 
L 380.797099 98.83797 
L 381.201813 91.382132 
L 381.40417 95.079906 
L 382.011242 131.43465 
L 382.820671 212.805771 
L 383.225385 228.621793 
L 383.427743 229.264884 
L 383.6301 224.019672 
L 384.034814 202.174671 
L 385.0466 130.047985 
L 385.451315 113.649162 
L 385.653672 113.18694 
L 385.856029 116.90481 
L 386.058386 124.400841 
L 387.070172 193.151299 
L 387.474887 232.560726 
L 387.879601 254.064084 
L 388.284316 263.047263 
L 388.68903 265.519145 
L 388.891387 259.872001 
L 389.700816 217.086346 
L 390.307888 206.073411 
L 390.914959 193.553231 
L 391.117316 198.255835 
L 391.926745 237.14275 
L 392.533817 280.571496 
L 392.938531 292.729937 
L 393.140888 294.558727 
L 393.343246 294.116602 
L 393.545603 294.578824 
L 393.74796 285.776514 
L 394.355032 245.322065 
L 395.569175 189.815264 
L 395.771532 183.906865 
L 395.973889 185.092564 
L 396.176247 193.271879 
L 396.783318 234.590482 
L 397.188033 272.452471 
L 397.592747 289.976703 
L 397.795104 292.70984 
L 397.997461 290.217862 
L 398.402176 272.392181 
L 400.628105 146.949223 
L 400.830462 149.74265 
L 401.03282 159.529693 
L 401.639891 215.599198 
L 402.044606 259.188717 
L 402.44932 279.164734 
L 402.651677 283.103667 
L 402.854034 281.475843 
L 403.258749 263.589871 
L 403.663463 235.655602 
L 404.877607 131.414553 
L 405.282321 111.23757 
L 405.484678 107.097671 
L 405.687035 108.162791 
L 405.889393 118.492442 
L 406.294107 155.229021 
L 406.901179 231.334833 
L 407.305893 254.988528 
L 407.50825 260.494995 
L 407.710607 259.972484 
L 408.115322 239.09212 
L 409.73418 109.047041 
L 409.936537 104.203761 
L 410.138894 104.063085 
L 410.341251 108.584819 
L 410.948323 144.07541 
L 411.15068 159.710562 
L 411.757752 229.104111 
L 412.162466 252.757806 
L 412.364823 259.128427 
L 412.56718 260.876831 
L 412.971895 243.131536 
L 414.388395 146.708064 
L 414.79311 133.404117 
L 415.197824 126.852626 
L 415.400181 133.5046 
L 416.20961 194.980089 
L 416.614325 239.433762 
L 417.019039 262.102723 
L 417.221396 266.282815 
L 417.423753 265.740207 
L 417.828468 249.863896 
L 419.244968 153.822259 
L 419.649683 140.458022 
L 419.85204 136.699958 
L 420.054397 138.10672 
L 420.256754 146.607581 
L 421.066183 210.695628 
L 421.673255 264.755474 
L 422.077969 280.531303 
L 422.280326 282.962991 
L 422.482684 282.3199 
L 422.685041 282.159127 
L 423.089755 251.994135 
L 423.899184 184.268603 
L 424.708613 145.72333 
L 424.91097 142.608358 
L 425.113327 146.527194 
L 425.518042 172.130259 
L 425.720399 183.685802 
L 426.529828 256.777125 
L 426.934542 274.964545 
L 427.136899 279.345603 
L 427.339257 280.129371 
L 427.541614 280.350433 
L 427.743971 271.929959 
L 428.148685 232.42005 
L 428.755757 171.82881 
L 429.160471 146.72816 
L 429.565186 138.649328 
L 429.9699 142.487778 
L 430.374615 158.36409 
L 430.576972 169.75886 
L 431.386401 244.136366 
L 431.791115 256.113937 
L 431.993472 254.124374 
L 432.398187 234.24884 
L 433.207616 170.542628 
L 434.017044 101.67159 
L 434.219402 96.8886 
L 435.02883 123.717557 
L 435.433545 148.175115 
L 436.040617 217.850017 
L 436.445331 239.895984 
L 436.647688 244.920133 
L 436.850045 244.256945 
L 437.25476 224.100058 
L 437.659474 189.935844 
L 438.468903 118.050317 
L 438.67126 108.52453 
L 438.873617 109.46907 
L 439.075975 116.422492 
L 439.278332 115.980367 
L 439.480689 118.170896 
L 439.885403 136.318123 
L 440.290118 160.534522 
L 440.897189 232.35976 
L 441.301904 254.184664 
L 441.504261 259.490166 
L 441.706618 260.012677 
L 442.111333 245.603417 
L 442.920762 194.718834 
L 443.527833 160.614909 
L 444.134905 138.367976 
L 444.337262 135.835805 
L 444.539619 142.105943 
L 445.146691 186.17778 
L 445.753762 253.843022 
L 446.158477 274.58271 
L 446.360834 279.42599 
L 446.563191 277.47662 
L 446.967906 258.987751 
L 448.586763 151.611633 
L 448.991478 138.709618 
L 449.193835 136.438703 
L 449.396192 142.95 
L 450.003264 182.439813 
L 450.812693 260.716058 
L 451.217407 273.718556 
L 451.419764 273.839136 
L 451.824479 257.038381 
L 452.43155 207.741429 
L 453.038622 166.764467 
L 453.443336 150.104389 
L 453.848051 142.407392 
L 454.050408 145.703234 
L 454.252765 155.47018 
L 454.65748 183.243677 
L 454.859837 191.503378 
L 455.669266 254.787562 
L 456.07398 268.031219 
L 456.276337 269.518367 
L 456.478694 267.568998 
L 456.681052 264.534411 
L 456.883409 256.716835 
L 457.288123 230.309907 
L 457.692838 219.598421 
L 457.895195 220.281705 
L 458.299909 225.908752 
L 458.502267 225.768076 
L 458.906981 222.030109 
L 459.109338 222.55262 
L 459.514053 226.612133 
L 459.71641 230.812322 
L 460.728196 287.223469 
L 461.13291 291.544238 
L 461.537625 288.308686 
L 461.739982 279.586762 
L 462.144696 245.864673 
L 463.561197 178.259721 
L 463.763554 171.165622 
L 463.965911 172.311128 
L 464.572983 191.342605 
L 465.382412 256.797222 
L 465.584769 263.549678 
L 465.787126 266.202429 
L 465.989483 263.831031 
L 467.608341 173.396344 
L 468.620127 152.69685 
L 468.822484 155.751532 
L 469.429556 181.39479 
L 470.036627 236.821204 
L 470.441342 254.204761 
L 470.643699 256.777125 
L 470.846056 254.26505 
L 471.857842 204.505876 
L 472.869628 174.943782 
L 473.071985 175.426101 
L 473.274343 173.677697 
L 473.4767 174.903589 
L 473.679057 178.601363 
L 473.881414 185.032274 
L 474.083772 186.157683 
L 474.286129 193.653714 
L 474.8932 244.578491 
L 475.297915 260.454802 
L 475.500272 262.082627 
L 475.702629 260.093063 
L 476.107344 236.278596 
L 476.512058 214.775237 
L 477.321487 184.007348 
L 477.726201 164.312683 
L 477.928558 160.835971 
L 478.333273 165.417995 
L 478.53563 169.778957 
L 479.142702 194.136032 
L 479.952131 260.354319 
L 480.356845 269.980589 
L 480.559202 269.578657 
L 480.963917 247.994912 
L 482.785131 122.551954 
L 482.987489 116.784231 
L 483.189846 114.211866 
L 483.392203 119.718334 
L 483.999275 158.665539 
L 484.606346 228.139474 
L 485.011061 250.828532 
L 485.213418 255.129204 
L 485.415775 256.053648 
L 485.82049 236.740818 
L 486.225204 206.25428 
L 487.23699 118.351765 
L 487.439347 115.337276 
L 487.844062 121.74809 
L 488.248776 139.935511 
L 489.260562 215.679584 
L 489.665277 247.090565 
L 490.069991 261.841467 
L 490.272348 264.132479 
L 490.474705 263.027167 
L 490.677063 261.298859 
L 490.87942 251.793169 
L 491.891206 173.918856 
L 492.29592 156.615686 
L 492.498277 149.401008 
L 492.700635 147.431541 
L 492.902992 149.019172 
L 493.105349 153.721776 
L 493.712421 186.459132 
L 494.52185 256.777125 
L 495.128921 274.622903 
L 495.331278 274.763579 
L 495.533636 274.160681 
L 495.735993 266.78523 
L 496.950136 177.415664 
L 497.557208 153.621293 
L 497.759565 150.345548 
L 497.961922 153.480617 
L 498.568994 184.248507 
L 499.378422 256.335 
L 499.58078 263.00707 
L 499.783137 265.438758 
L 499.985494 262.203206 
L 500.187851 253.883215 
L 500.794923 217.82992 
L 500.99728 212.845964 
L 501.401995 200.064529 
L 501.806709 189.07169 
L 502.009066 188.629565 
L 502.211423 190.639225 
L 502.413781 191.262219 
L 502.616138 189.634395 
L 503.020852 199.119988 
L 503.223209 199.662597 
L 503.425567 206.997854 
L 504.032638 256.495773 
L 504.437353 269.257112 
L 504.63971 270.844743 
L 504.842067 268.533634 
L 505.246782 244.739263 
L 505.651496 221.487501 
L 507.270354 150.064195 
L 507.472711 147.029609 
L 507.675068 150.345548 
L 508.28214 177.717113 
L 508.889211 234.369419 
L 509.293926 251.089788 
L 509.496283 254.526306 
L 509.69864 252.737709 
L 510.103354 229.747202 
L 511.722212 125.887989 
L 512.126927 108.544626 
L 512.329284 110.092064 
L 512.936355 143.653381 
L 513.34107 181.676142 
L 513.745784 224.120155 
L 514.150499 246.306798 
L 514.352856 251.752976 
L 514.555213 252.235294 
L 514.75757 243.553564 
L 516.174071 149.079462 
L 516.376428 148.014343 
L 516.781142 157.118101 
L 516.9835 154.445254 
L 517.185857 154.967765 
L 517.590571 172.250838 
L 517.792928 176.390737 
L 517.995286 186.840968 
L 518.4 225.56711 
L 518.4 225.56711 
" clip-path="url(#p3eaa1c16ce)" style="fill: none; stroke: #1f77b4; stroke-width: 1.5; stroke-linecap: square"/>
   </g>
   <g id="line2d_14">
    <path d="M 72 275.213905 
L 72.202357 275.213905 
L 72.607072 283.321975 
L 72.809429 283.967209 
L 73.011786 277.700868 
L 73.4165 255.456295 
L 74.225929 225.193694 
L 75.237715 176.272741 
L 75.440073 172.566195 
L 75.64243 175.208789 
L 76.249501 204.263582 
L 76.856573 260.241439 
L 77.261287 277.15808 
L 77.463645 279.696876 
L 77.666002 273.923516 
L 79.487217 187.304514 
L 79.891931 168.892483 
L 80.094288 166.00978 
L 80.296646 167.932916 
L 80.499003 174.021241 
L 80.903717 198.486382 
L 81.308432 235.188033 
L 81.713146 269.558533 
L 82.11786 283.452654 
L 82.320218 280.717293 
L 83.129646 261.795417 
L 83.736718 235.174747 
L 84.141432 227.28038 
L 84.34379 227.292998 
L 84.748504 236.608958 
L 85.153218 245.509096 
L 85.355576 246.983188 
L 85.76029 256.972287 
L 85.962647 262.445525 
L 86.569719 298.513059 
L 86.974433 307.8 
L 87.176791 307.141556 
L 87.379148 304.027868 
L 87.783862 290.431568 
L 88.593291 259.489382 
L 88.998005 256.492632 
L 89.200363 257.838834 
L 89.40272 258.019915 
L 89.605077 254.538113 
L 90.009791 238.297229 
L 90.212149 235.637664 
L 90.414506 237.311824 
L 90.616863 240.073468 
L 91.021578 264.96081 
L 91.426292 296.523186 
L 91.628649 301.648552 
L 91.831006 303.25201 
L 92.033364 300.836421 
L 92.235721 294.624428 
L 92.438078 283.277259 
L 92.842792 254.658869 
L 93.247507 246.66666 
L 93.449864 244.374589 
L 93.652221 240.524268 
L 93.854578 240.736943 
L 94.056936 235.362085 
L 94.46165 229.804828 
L 94.664007 225.315134 
L 94.866364 224.69267 
L 95.068722 227.422338 
L 95.675793 249.970988 
L 96.282865 296.435806 
L 96.485222 299.013323 
L 96.687579 298.649482 
L 96.889937 292.258176 
L 97.294651 270.674308 
L 97.497008 256.078154 
L 97.901723 247.764613 
L 98.306437 244.031635 
L 98.508794 243.703842 
L 98.711151 242.30149 
L 99.115866 232.958137 
L 99.52058 224.177773 
L 99.722937 223.823497 
L 99.925295 226.264533 
L 100.330009 241.57434 
L 100.532366 248.841121 
L 101.139438 297.74256 
L 101.544152 298.064903 
L 101.74651 292.509639 
L 102.151224 272.760822 
L 102.555938 249.890998 
L 102.758296 248.795224 
L 103.16301 245.107694 
L 103.365367 244.62731 
L 103.567724 241.898147 
L 103.770082 237.643537 
L 104.174796 223.957782 
L 104.377153 220.155991 
L 104.57951 218.74756 
L 104.781868 222.409059 
L 105.186582 239.178472 
L 105.388939 246.976607 
L 105.996011 294.706534 
L 106.198368 296.870959 
L 106.400725 296.390382 
L 106.603083 292.160345 
L 107.007797 271.717867 
L 107.412511 249.233955 
L 108.22194 240.193694 
L 108.626655 223.229444 
L 109.031369 202.758314 
L 109.233726 202.033454 
L 109.436083 206.226064 
L 110.245512 242.667599 
L 110.852584 288.364784 
L 111.054941 292.056837 
L 111.257298 292.827067 
L 111.459655 290.196282 
L 111.86437 270.299193 
L 112.269084 248.430392 
L 112.673799 237.6182 
L 113.078513 220.337411 
L 113.685585 189.267936 
L 114.090299 181.581059 
L 114.292656 181.527266 
L 114.495014 188.043373 
L 114.899728 215.327656 
L 115.911514 280.522638 
L 116.316228 283.863908 
L 116.9233 267.865626 
L 117.328015 248.193851 
L 118.542158 169.673973 
L 118.744515 161.061985 
L 118.946872 157.702688 
L 119.149229 157.73956 
L 119.351587 161.065794 
L 119.553944 170.513278 
L 120.768087 266.817788 
L 121.172801 281.991889 
L 121.375159 281.964889 
L 121.577516 279.641874 
L 121.779873 273.439405 
L 121.98223 262.636981 
L 122.386945 232.393758 
L 122.994016 209.784177 
L 123.601088 196.285424 
L 123.803445 197.04542 
L 124.005802 201.199747 
L 124.612874 223.271715 
L 124.815231 233.704218 
L 125.62466 292.397951 
L 125.827017 297.219734 
L 126.029374 297.610874 
L 126.231732 292.55588 
L 126.636446 259.341165 
L 127.243518 220.56642 
L 127.850589 192.695759 
L 128.255304 165.809257 
L 128.660018 154.606972 
L 128.862375 155.28296 
L 129.064733 166.227571 
L 129.671804 225.413654 
L 130.278876 282.407679 
L 130.481233 287.827014 
L 130.68359 289.922782 
L 130.885947 284.542436 
L 131.290662 261.359088 
L 132.100091 213.992942 
L 133.314234 150.540548 
L 133.516591 147.817591 
L 133.718948 149.08256 
L 133.921306 155.270513 
L 134.32602 184.853525 
L 135.135449 263.434638 
L 135.540163 273.165447 
L 135.74252 273.881206 
L 136.147235 256.465815 
L 136.551949 223.709301 
L 136.956664 201.188193 
L 137.159021 198.315914 
L 137.563735 195.751421 
L 137.96845 193.2518 
L 138.777879 207.150258 
L 138.980236 211.509313 
L 139.587307 252.167426 
L 139.992022 284.601192 
L 140.396736 291.702104 
L 140.801451 272.322928 
L 141.813237 217.904007 
L 142.015594 211.090223 
L 142.217951 212.773361 
L 142.420308 210.967205 
L 142.622665 212.845771 
L 142.825023 208.795803 
L 143.02738 210.146775 
L 143.229737 208.58448 
L 143.432094 209.263498 
L 144.039166 228.530815 
L 144.44388 254.840323 
L 144.848595 282.389695 
L 145.050952 286.407655 
L 145.253309 284.9512 
L 145.658024 268.582118 
L 146.265095 231.130143 
L 146.872167 214.194306 
L 147.074524 214.216868 
L 147.276881 213.401227 
L 147.681596 205.193945 
L 147.883953 207.879872 
L 148.895739 237.589069 
L 149.098096 245.112773 
L 149.705168 281.974589 
L 149.907525 285.704038 
L 150.109882 287.062363 
L 151.931097 230.870726 
L 152.133454 229.728134 
L 152.335811 229.57767 
L 152.740526 234.328678 
L 153.14524 233.777585 
L 153.347597 233.140079 
L 153.954669 244.393028 
L 154.764098 283.487993 
L 154.966455 286.718832 
L 155.168812 286.398627 
L 155.978241 264.463341 
L 156.990027 196.414184 
L 157.394742 178.134138 
L 157.799456 168.315385 
L 158.001813 167.362734 
L 158.20417 170.124259 
L 158.406528 175.99726 
L 158.811242 203.506384 
L 159.418314 265.024541 
L 159.823028 276.845163 
L 160.025385 277.04677 
L 160.227743 272.95812 
L 160.4301 264.664857 
L 161.239529 205.188807 
L 161.644243 187.954473 
L 162.048957 178.270965 
L 162.251315 175.256591 
L 162.453672 173.987153 
L 162.858386 183.726923 
L 163.667815 226.469022 
L 164.477244 285.661587 
L 164.679601 289.055533 
L 164.881958 284.139234 
L 166.096102 217.315988 
L 166.298459 213.273459 
L 166.500816 213.966138 
L 166.703173 207.875685 
L 167.310245 174.33109 
L 167.512602 173.573786 
L 167.714959 176.039671 
L 168.119674 197.880022 
L 168.726745 244.120648 
L 169.13146 275.600393 
L 169.333817 280.798531 
L 169.536174 281.811391 
L 169.738531 278.154957 
L 170.143246 257.016139 
L 171.357389 178.246846 
L 171.762103 167.770567 
L 172.369175 160.246454 
L 172.571532 162.589317 
L 172.773889 170.38204 
L 173.178604 199.68838 
L 173.988033 272.859745 
L 174.19039 281.076189 
L 174.392747 283.725812 
L 174.595104 281.527946 
L 174.797461 273.635164 
L 176.011605 206.760126 
L 176.213962 199.057703 
L 176.416319 195.668335 
L 177.225748 172.869345 
L 177.428105 175.70956 
L 177.630462 182.262465 
L 178.035177 205.863934 
L 178.844606 284.00925 
L 179.046963 288.399335 
L 179.24932 290.230613 
L 179.451677 287.735068 
L 179.856392 269.864204 
L 180.261106 243.437523 
L 181.879964 158.722891 
L 182.082321 155.614575 
L 182.284678 157.443955 
L 182.487035 162.983985 
L 182.689393 174.516523 
L 183.701179 262.551865 
L 183.903536 265.332879 
L 184.105893 269.73264 
L 184.510607 266.407712 
L 184.915322 255.709772 
L 185.320036 225.693456 
L 186.129465 155.108982 
L 186.53418 144.561168 
L 186.736537 145.261922 
L 186.938894 149.884796 
L 187.545966 187.277752 
L 188.355394 243.604524 
L 188.962466 266.778365 
L 189.164823 272.158533 
L 189.36718 269.269863 
L 189.771895 252.242322 
L 190.783681 184.284484 
L 191.188395 158.974696 
L 191.390752 153.771882 
L 191.59311 154.454225 
L 191.795467 160.802287 
L 193.00961 229.574783 
L 193.616682 268.200067 
L 193.819039 274.89594 
L 194.021396 277.111057 
L 194.426111 264.451132 
L 194.830825 247.125886 
L 195.640254 196.096789 
L 195.842611 189.390786 
L 196.044968 189.562692 
L 196.65204 206.499682 
L 196.854397 209.48321 
L 197.663826 231.556696 
L 198.473255 284.750783 
L 198.675612 289.53492 
L 198.877969 286.78025 
L 199.080326 280.344808 
L 200.29447 199.423131 
L 200.496827 196.978936 
L 200.699184 192.437844 
L 201.306256 169.97472 
L 201.508613 168.183045 
L 201.71097 169.993867 
L 202.115684 189.870906 
L 202.520399 213.90536 
L 203.127471 265.952108 
L 203.532185 272.281478 
L 203.734542 269.288366 
L 204.139257 246.405335 
L 204.543971 219.170594 
L 205.3534 187.154218 
L 205.555757 184.170352 
L 205.960471 172.988648 
L 206.162829 171.002691 
L 206.365186 174.629518 
L 207.174615 207.595702 
L 207.579329 234.603716 
L 207.984044 265.119905 
L 208.186401 271.652824 
L 208.388758 273.896217 
L 208.591115 268.528087 
L 208.99583 244.819074 
L 209.602901 208.496374 
L 210.007616 192.514019 
L 211.221759 149.275823 
L 211.424116 150.246341 
L 211.626473 158.645444 
L 212.435902 226.267155 
L 212.840617 257.468913 
L 213.245331 265.560113 
L 213.447688 263.453644 
L 213.650045 256.66741 
L 215.673617 136.285828 
L 215.875975 129.618116 
L 216.078332 127.504504 
L 216.280689 128.579184 
L 216.483046 133.878163 
L 216.887761 161.433639 
L 217.697189 242.234481 
L 218.101904 255.765231 
L 218.304261 256.882572 
L 218.506618 253.860763 
L 219.316047 217.240564 
L 220.125476 161.296465 
L 220.53019 153.082921 
L 220.732548 155.265734 
L 221.137262 178.688598 
L 221.744334 215.885112 
L 222.351405 254.326781 
L 222.75612 272.960213 
L 223.160834 281.791576 
L 223.363191 278.152998 
L 223.767906 263.354394 
L 224.577335 215.781056 
L 224.779692 211.959336 
L 224.982049 212.907918 
L 225.386763 220.050398 
L 226.398549 238.852168 
L 226.600907 241.594223 
L 227.005621 258.966769 
L 227.410335 291.810764 
L 227.81505 304.087533 
L 228.017407 302.211424 
L 228.219764 294.244588 
L 229.029193 245.62119 
L 229.838622 228.053092 
L 230.648051 193.689655 
L 230.850408 190.376582 
L 231.052765 192.357634 
L 231.45748 212.293693 
L 231.862194 247.299584 
L 232.266908 281.899979 
L 232.469266 289.319058 
L 232.671623 290.06302 
L 232.87398 286.341147 
L 233.076337 279.148002 
L 233.683409 247.008655 
L 234.290481 223.051756 
L 234.897552 197.80884 
L 235.504624 181.63769 
L 235.706981 184.296147 
L 235.909338 190.943821 
L 236.718767 245.100601 
L 237.123481 279.677512 
L 237.325839 284.243206 
L 237.528196 285.45893 
L 237.730553 282.732524 
L 238.135267 264.942759 
L 238.742339 229.910741 
L 239.147053 214.563809 
L 239.956482 194.126856 
L 240.361197 193.851293 
L 240.563554 196.494397 
L 240.765911 201.597966 
L 240.968268 209.866289 
L 242.182412 289.143536 
L 242.384769 289.844516 
L 242.587126 287.08064 
L 242.99184 267.105469 
L 243.396555 243.509077 
L 244.408341 207.342465 
L 245.015413 185.465441 
L 245.21777 183.18796 
L 245.420127 183.532468 
L 245.622484 187.588328 
L 246.027199 212.143842 
L 246.431913 242.635675 
L 246.836627 275.704677 
L 247.038985 282.434587 
L 247.241342 284.759 
L 247.443699 284.69525 
L 247.646056 277.911089 
L 248.860199 203.71705 
L 249.467271 164.202695 
L 249.871985 150.59812 
L 250.074343 150.454737 
L 250.2767 153.689905 
L 250.479057 162.321772 
L 251.086129 211.41744 
L 251.6932 257.938459 
L 252.097915 268.717326 
L 252.300272 270.732912 
L 252.502629 266.935605 
L 252.907344 252.382191 
L 253.312058 224.929399 
L 254.121487 159.807137 
L 254.323844 151.711422 
L 254.526201 148.092794 
L 254.728558 146.521739 
L 255.133273 152.923484 
L 255.33563 161.334398 
L 256.752131 265.957981 
L 256.954488 273.070711 
L 257.156845 275.910838 
L 257.359202 275.008629 
L 257.561559 270.565868 
L 257.763917 262.907245 
L 258.97806 180.174099 
L 259.382774 167.368472 
L 259.585131 164.561713 
L 259.787489 166.127024 
L 260.192203 181.147749 
L 260.799275 213.843329 
L 261.406346 267.798092 
L 261.811061 281.9479 
L 262.013418 283.556046 
L 262.215775 279.2805 
L 263.227561 216.496053 
L 263.429918 216.470879 
L 263.632276 216.7154 
L 263.834633 220.102684 
L 264.239347 222.840432 
L 264.644062 227.393503 
L 264.846419 228.846772 
L 265.251133 236.157688 
L 265.858205 263.361286 
L 266.262919 291.602747 
L 266.465277 297.706715 
L 266.667634 298.484148 
L 266.869991 293.653263 
L 267.67942 251.887629 
L 268.084134 241.385857 
L 268.488849 227.361241 
L 269.09592 216.735537 
L 269.500635 211.718849 
L 269.702992 212.881202 
L 270.107706 222.845906 
L 270.512421 239.875322 
L 271.119492 279.471888 
L 271.32185 282.784406 
L 271.524207 282.615537 
L 271.726564 280.028058 
L 271.928921 273.087169 
L 272.535993 236.421803 
L 272.940707 219.51113 
L 273.345422 197.726023 
L 273.952493 168.163834 
L 274.357208 157.088673 
L 274.559565 155.638987 
L 274.761922 158.357476 
L 275.166636 175.426626 
L 275.571351 213.117728 
L 275.976065 248.853522 
L 276.38078 255.987319 
L 276.583137 256.656147 
L 276.785494 251.825128 
L 277.392566 214.618499 
L 278.404352 156.673676 
L 279.011423 142.654719 
L 279.213781 145.020556 
L 279.618495 155.441348 
L 280.023209 182.649558 
L 281.034995 269.88466 
L 281.237353 273.53654 
L 281.43971 271.750881 
L 281.844424 254.181479 
L 283.260925 180.157757 
L 283.463282 176.844922 
L 284.070354 161.264453 
L 284.272711 162.651082 
L 284.677425 185.384861 
L 285.891568 282.669281 
L 286.093926 284.217109 
L 286.296283 284.158481 
L 286.700997 275.854274 
L 286.903354 268.658796 
L 287.712783 216.615232 
L 288.319855 174.546429 
L 288.724569 160.86111 
L 288.926927 160.372701 
L 289.129284 162.429849 
L 289.331641 167.484946 
L 289.736355 193.850127 
L 290.545784 260.785835 
L 290.950499 274.34654 
L 291.152856 278.431534 
L 291.355213 277.126782 
L 291.759927 265.288036 
L 292.164642 230.313721 
L 293.176428 147.608976 
L 293.378785 139.629259 
L 293.581142 136.22098 
L 293.7835 137.065056 
L 293.985857 141.664251 
L 294.592928 175.072186 
L 294.997643 208.972952 
L 295.402357 246.313609 
L 295.807072 259.851562 
L 296.009429 263.472931 
L 296.211786 259.495694 
L 296.6165 233.126396 
L 298.235358 90.653412 
L 298.437715 87.43331 
L 298.640073 92.148027 
L 299.044787 113.344154 
L 299.651859 153.768091 
L 300.461287 234.821125 
L 300.663645 237.899227 
L 300.866002 237.480315 
L 301.068359 229.385131 
L 301.877788 167.497338 
L 302.687217 85.13273 
L 302.889574 74.964909 
L 303.091931 72.838502 
L 303.294288 78.906892 
L 303.90136 125.775654 
L 305.115503 229.134312 
L 305.31786 241.414988 
L 305.520218 246.943169 
L 305.722575 244.550811 
L 306.127289 223.353689 
L 307.139075 153.186588 
L 307.54379 129.961128 
L 307.948504 117.165592 
L 308.150861 117.986849 
L 308.555576 142.461065 
L 310.174433 261.610719 
L 310.376791 265.222437 
L 310.579148 261.523604 
L 310.781505 254.271664 
L 311.388577 214.802925 
L 312.198005 142.563139 
L 312.60272 123.143282 
L 312.805077 120.853653 
L 313.007434 122.510171 
L 313.209791 127.702931 
L 313.614506 149.124047 
L 314.221578 196.451488 
L 314.828649 245.293067 
L 315.031006 253.059263 
L 315.233364 256.443588 
L 315.435721 254.335212 
L 315.840435 230.992615 
L 316.447507 197.496396 
L 317.054578 183.989426 
L 317.459293 180.520133 
L 317.66165 179.741344 
L 317.864007 182.526689 
L 318.673436 202.927559 
L 319.280508 237.982737 
L 319.685222 266.361989 
L 319.887579 274.136905 
L 320.089937 277.590981 
L 320.494651 266.433155 
L 321.506437 229.76564 
L 322.315866 175.439637 
L 322.72058 161.003333 
L 322.922937 159.061514 
L 323.125295 159.689186 
L 323.327652 165.204041 
L 323.732366 188.992217 
L 324.744152 260.280947 
L 325.148867 270.438614 
L 325.351224 269.143689 
L 325.553581 264.714005 
L 325.755938 257.771669 
L 326.565367 195.293305 
L 327.172439 144.648706 
L 327.374796 137.160579 
L 327.577153 134.522145 
L 327.77951 137.956167 
L 327.981868 143.497836 
L 328.386582 163.751273 
L 328.791296 196.756848 
L 329.398368 251.96138 
L 329.600725 262.449084 
L 329.803083 266.996869 
L 330.00544 267.275906 
L 330.207797 264.096336 
L 330.410154 254.905006 
L 331.826655 147.495933 
L 332.029012 140.937094 
L 332.231369 138.420665 
L 332.433726 140.522098 
L 332.838441 158.292554 
L 333.850227 225.442606 
L 334.254941 263.751779 
L 334.457298 272.214402 
L 334.659655 275.087768 
L 334.862013 275.653264 
L 335.266727 252.986424 
L 335.873799 214.307495 
L 336.885585 181.752223 
L 337.087942 181.801605 
L 337.290299 181.364315 
L 337.492656 183.242192 
L 337.897371 194.940974 
L 338.302085 212.613375 
L 338.7068 239.763094 
L 339.111514 274.050307 
L 339.313871 281.440646 
L 339.516228 279.973141 
L 339.718586 277.164483 
L 341.337443 189.795301 
L 342.146872 161.131442 
L 342.349229 157.622884 
L 342.551587 157.185637 
L 342.753944 161.404704 
L 343.158658 180.415929 
L 343.563373 216.305048 
L 343.968087 249.939098 
L 344.170444 253.590084 
L 344.372801 253.281058 
L 344.575159 253.285734 
L 344.777516 247.661902 
L 345.384587 214.062393 
L 346.396374 130.608328 
L 346.801088 119.867244 
L 347.003445 117.984853 
L 347.205802 120.589389 
L 347.610517 132.638942 
L 347.812874 141.431681 
L 348.217588 173.385948 
L 348.82466 235.309434 
L 349.027017 245.063895 
L 349.229374 249.134244 
L 349.431732 250.175379 
L 349.634089 244.216119 
L 350.038803 219.060079 
L 350.645875 172.765422 
L 351.252947 126.746771 
L 351.657661 116.632467 
L 351.860018 114.175716 
L 352.062375 117.397392 
L 352.264733 123.760569 
L 352.669447 145.109633 
L 353.276519 199.448055 
L 353.681233 242.926042 
L 354.085947 257.550988 
L 354.288305 260.610767 
L 354.693019 249.294966 
L 354.895376 240.33055 
L 355.300091 210.197756 
L 356.311877 115.154939 
L 356.514234 112.808612 
L 356.716591 112.062031 
L 356.918948 114.950304 
L 357.121306 120.292069 
L 357.52602 143.382217 
L 358.133092 199.144286 
L 358.537806 240.970238 
L 358.740163 251.113236 
L 359.144878 259.614909 
L 359.347235 258.875464 
L 359.751949 242.040511 
L 360.561378 162.460533 
L 360.966092 114.863925 
L 361.16845 100.051309 
L 361.370807 93.390965 
L 361.573164 92.578858 
L 361.977879 106.611673 
L 362.58495 145.461417 
L 362.989665 179.540567 
L 363.394379 225.393016 
L 363.799093 240.760564 
L 364.001451 244.214523 
L 364.203808 241.056062 
L 364.608522 210.870336 
L 365.013237 173.952833 
L 366.025023 62.047118 
L 366.22738 55.8 
L 366.429737 57.298192 
L 366.632094 64.95517 
L 367.441523 120.771633 
L 367.846238 156.934839 
L 368.250952 205.434633 
L 368.655666 223.346735 
L 368.858024 224.005159 
L 369.262738 203.837817 
L 369.667452 180.888616 
L 370.881596 66.865855 
L 371.083953 63.818145 
L 371.28631 66.060085 
L 371.691024 89.200381 
L 373.512239 226.462182 
L 373.714597 228.389969 
L 373.916954 224.768117 
L 374.524025 198.162059 
L 374.92874 166.486362 
L 375.535811 102.866511 
L 375.738169 93.954435 
L 375.940526 92.040734 
L 376.142883 94.830395 
L 376.547597 114.290932 
L 376.952312 146.073333 
L 377.357026 185.66036 
L 378.166455 233.577204 
L 378.368812 239.660758 
L 378.57117 241.511897 
L 378.773527 238.572209 
L 378.975884 230.181806 
L 379.582956 180.257318 
L 380.190027 118.776632 
L 380.594742 95.636006 
L 380.797099 91.03636 
L 380.999456 91.189363 
L 381.40417 105.250698 
L 382.213599 156.103351 
L 382.820671 212.207208 
L 383.225385 223.801576 
L 383.427743 227.184814 
L 383.6301 221.942131 
L 384.237171 190.172563 
L 384.237171 190.172563 
" clip-path="url(#p3eaa1c16ce)" style="fill: none; stroke: #ff7f0e; stroke-width: 1.5; stroke-linecap: square"/>
   </g>
   <g id="line2d_15">
    <path d="M 384.439529 176.958496 
L 385.451315 111.742607 
L 385.653672 106.450172 
L 385.856029 104.233529 
L 386.058386 108.23342 
L 386.463101 129.581538 
L 387.070172 178.367492 
L 387.677244 222.366475 
L 388.081958 235.425068 
L 388.284316 234.001974 
L 388.486673 227.540735 
L 389.093744 194.043048 
L 390.307888 120.825108 
L 390.510245 116.059102 
L 390.712602 115.64905 
L 390.914959 118.92767 
L 391.117316 125.188974 
L 391.522031 149.787576 
L 392.533817 223.83084 
L 392.736174 229.988198 
L 392.938531 230.490749 
L 393.140888 227.640974 
L 393.74796 202.951018 
L 394.557389 156.629608 
L 394.962103 135.245798 
L 395.164461 128.759566 
L 395.366818 125.918054 
L 395.569175 126.551457 
L 395.771532 130.760372 
L 396.176247 148.883926 
L 397.39039 226.0829 
L 397.592747 230.196521 
L 397.795104 229.986413 
L 398.199819 217.247305 
L 399.009248 180.955301 
L 399.818676 143.099603 
L 400.021034 138.732165 
L 400.223391 137.023191 
L 400.425748 138.614324 
L 400.628105 143.390018 
L 401.03282 160.680453 
L 402.044606 221.247695 
L 402.246963 227.143981 
L 402.44932 229.184961 
L 402.651677 227.022383 
L 403.461106 199.497889 
L 404.675249 151.992327 
L 404.877607 149.550336 
L 405.079964 149.374313 
L 405.282321 152.194454 
L 405.687035 164.792011 
L 406.901179 223.968242 
L 407.103536 227.714487 
L 407.305893 227.796394 
L 407.710607 218.27318 
L 408.520036 192.470338 
L 409.127108 170.742609 
L 409.531822 162.917208 
L 409.73418 161.72165 
L 409.936537 163.17625 
L 410.138894 166.556027 
L 410.543608 179.178827 
L 411.555394 220.247221 
L 411.757752 224.861994 
L 411.960109 226.282907 
L 412.162466 224.316951 
L 412.971895 205.353359 
L 414.186038 176.279474 
L 414.388395 174.938314 
L 414.590752 175.589885 
L 414.995467 181.597602 
L 415.602539 199.904355 
L 416.20961 217.327816 
L 416.411967 221.700066 
L 416.614325 223.501707 
L 416.816682 222.884476 
L 417.221396 217.331998 
L 418.637897 191.170045 
L 419.042611 188.076157 
L 419.244968 188.826602 
L 419.85204 196.914985 
L 421.066183 218.586739 
L 421.26854 220.039021 
L 421.470898 220.306096 
L 421.673255 219.058125 
L 422.077969 214.362605 
L 422.482684 209.911077 
L 423.292112 201.997184 
L 423.49447 200.53661 
L 423.696827 200.126687 
L 423.899184 200.983953 
L 424.91097 210.200118 
L 425.315684 214.059765 
L 425.720399 216.458891 
L 425.922756 217.020988 
L 426.125113 217.147399 
L 426.327471 216.679086 
L 427.136899 211.524603 
L 428.148685 208.629106 
L 428.351043 208.434379 
L 428.5534 208.556371 
L 428.958114 210.114378 
L 429.565186 212.680744 
L 430.172257 214.133605 
L 430.374615 214.396954 
L 430.576972 214.46851 
L 430.981686 213.936011 
L 431.588758 212.122124 
L 431.791115 211.97801 
L 432.19583 211.914459 
L 432.802901 211.460551 
L 433.005258 211.57468 
L 434.017044 212.950412 
L 434.421759 212.890612 
L 435.231188 212.767001 
L 435.635902 212.527352 
L 436.040617 212.191744 
L 436.445331 212.155858 
L 437.457117 212.372 
L 438.468903 212.446801 
L 439.885403 212.199188 
L 441.908976 212.419237 
L 443.73019 212.279066 
L 449.396192 212.349706 
L 458.299909 212.330401 
L 518.4 212.33456 
L 518.4 212.33456 
" clip-path="url(#p3eaa1c16ce)" style="fill: none; stroke: #2ca02c; stroke-width: 1.5; stroke-linecap: square"/>
   </g>
   <g id="patch_3">
    <path d="M 72 320.4 
L 72 43.2 
" style="fill: none; stroke: #000000; stroke-width: 0.8; stroke-linejoin: miter; stroke-linecap: square"/>
   </g>
   <g id="patch_4">
    <path d="M 518.4 320.4 
L 518.4 43.2 
" style="fill: none; stroke: #000000; stroke-width: 0.8; stroke-linejoin: miter; stroke-linecap: square"/>
   </g>
   <g id="patch_5">
    <path d="M 72 320.4 
L 518.4 320.4 
" style="fill: none; stroke: #000000; stroke-width: 0.8; stroke-linejoin: miter; stroke-linecap: square"/>
   </g>
   <g id="patch_6">
    <path d="M 72 43.2 
L 518.4 43.2 
" style="fill: none; stroke: #000000; stroke-width: 0.8; stroke-linejoin: miter; stroke-linecap: square"/>
   </g>
   <g id="text_13">
    <!-- Classic Transformer - model_20231123164923 -->
    <g transform="translate(155.436563 37.2) scale(0.12 -0.12)">
     <defs>
      <path id="DejaVuSans-43" d="M 4122 4306 
L 4122 3641 
Q 3803 3938 3442 4084 
Q 3081 4231 2675 4231 
Q 1875 4231 1450 3742 
Q 1025 3253 1025 2328 
Q 1025 1406 1450 917 
Q 1875 428 2675 428 
Q 3081 428 3442 575 
Q 3803 722 4122 1019 
L 4122 359 
Q 3791 134 3420 21 
Q 3050 -91 2638 -91 
Q 1578 -91 968 557 
Q 359 1206 359 2328 
Q 359 3453 968 4101 
Q 1578 4750 2638 4750 
Q 3056 4750 3426 4639 
Q 3797 4528 4122 4306 
z
" transform="scale(0.015625)"/>
      <path id="DejaVuSans-6c" d="M 603 4863 
L 1178 4863 
L 1178 0 
L 603 0 
L 603 4863 
z
" transform="scale(0.015625)"/>
      <path id="DejaVuSans-61" d="M 2194 1759 
Q 1497 1759 1228 1600 
Q 959 1441 959 1056 
Q 959 750 1161 570 
Q 1363 391 1709 391 
Q 2188 391 2477 730 
Q 2766 1069 2766 1631 
L 2766 1759 
L 2194 1759 
z
M 3341 1997 
L 3341 0 
L 2766 0 
L 2766 531 
Q 2569 213 2275 61 
Q 1981 -91 1556 -91 
Q 1019 -91 701 211 
Q 384 513 384 1019 
Q 384 1609 779 1909 
Q 1175 2209 1959 2209 
L 2766 2209 
L 2766 2266 
Q 2766 2663 2505 2880 
Q 2244 3097 1772 3097 
Q 1472 3097 1187 3025 
Q 903 2953 641 2809 
L 641 3341 
Q 956 3463 1253 3523 
Q 1550 3584 1831 3584 
Q 2591 3584 2966 3190 
Q 3341 2797 3341 1997 
z
" transform="scale(0.015625)"/>
      <path id="DejaVuSans-73" d="M 2834 3397 
L 2834 2853 
Q 2591 2978 2328 3040 
Q 2066 3103 1784 3103 
Q 1356 3103 1142 2972 
Q 928 2841 928 2578 
Q 928 2378 1081 2264 
Q 1234 2150 1697 2047 
L 1894 2003 
Q 2506 1872 2764 1633 
Q 3022 1394 3022 966 
Q 3022 478 2636 193 
Q 2250 -91 1575 -91 
Q 1294 -91 989 -36 
Q 684 19 347 128 
L 347 722 
Q 666 556 975 473 
Q 1284 391 1588 391 
Q 1994 391 2212 530 
Q 2431 669 2431 922 
Q 2431 1156 2273 1281 
Q 2116 1406 1581 1522 
L 1381 1569 
Q 847 1681 609 1914 
Q 372 2147 372 2553 
Q 372 3047 722 3315 
Q 1072 3584 1716 3584 
Q 2034 3584 2315 3537 
Q 2597 3491 2834 3397 
z
" transform="scale(0.015625)"/>
      <path id="DejaVuSans-69" d="M 603 3500 
L 1178 3500 
L 1178 0 
L 603 0 
L 603 3500 
z
M 603 4863 
L 1178 4863 
L 1178 4134 
L 603 4134 
L 603 4863 
z
" transform="scale(0.015625)"/>
      <path id="DejaVuSans-63" d="M 3122 3366 
L 3122 2828 
Q 2878 2963 2633 3030 
Q 2388 3097 2138 3097 
Q 1578 3097 1268 2742 
Q 959 2388 959 1747 
Q 959 1106 1268 751 
Q 1578 397 2138 397 
Q 2388 397 2633 464 
Q 2878 531 3122 666 
L 3122 134 
Q 2881 22 2623 -34 
Q 2366 -91 2075 -91 
Q 1284 -91 818 406 
Q 353 903 353 1747 
Q 353 2603 823 3093 
Q 1294 3584 2113 3584 
Q 2378 3584 2631 3529 
Q 2884 3475 3122 3366 
z
" transform="scale(0.015625)"/>
      <path id="DejaVuSans-20" transform="scale(0.015625)"/>
      <path id="DejaVuSans-54" d="M -19 4666 
L 3928 4666 
L 3928 4134 
L 2272 4134 
L 2272 0 
L 1638 0 
L 1638 4134 
L -19 4134 
L -19 4666 
z
" transform="scale(0.015625)"/>
      <path id="DejaVuSans-72" d="M 2631 2963 
Q 2534 3019 2420 3045 
Q 2306 3072 2169 3072 
Q 1681 3072 1420 2755 
Q 1159 2438 1159 1844 
L 1159 0 
L 581 0 
L 581 3500 
L 1159 3500 
L 1159 2956 
Q 1341 3275 1631 3429 
Q 1922 3584 2338 3584 
Q 2397 3584 2469 3576 
Q 2541 3569 2628 3553 
L 2631 2963 
z
" transform="scale(0.015625)"/>
      <path id="DejaVuSans-6e" d="M 3513 2113 
L 3513 0 
L 2938 0 
L 2938 2094 
Q 2938 2591 2744 2837 
Q 2550 3084 2163 3084 
Q 1697 3084 1428 2787 
Q 1159 2491 1159 1978 
L 1159 0 
L 581 0 
L 581 3500 
L 1159 3500 
L 1159 2956 
Q 1366 3272 1645 3428 
Q 1925 3584 2291 3584 
Q 2894 3584 3203 3211 
Q 3513 2838 3513 2113 
z
" transform="scale(0.015625)"/>
      <path id="DejaVuSans-66" d="M 2375 4863 
L 2375 4384 
L 1825 4384 
Q 1516 4384 1395 4259 
Q 1275 4134 1275 3809 
L 1275 3500 
L 2222 3500 
L 2222 3053 
L 1275 3053 
L 1275 0 
L 697 0 
L 697 3053 
L 147 3053 
L 147 3500 
L 697 3500 
L 697 3744 
Q 697 4328 969 4595 
Q 1241 4863 1831 4863 
L 2375 4863 
z
" transform="scale(0.015625)"/>
      <path id="DejaVuSans-6f" d="M 1959 3097 
Q 1497 3097 1228 2736 
Q 959 2375 959 1747 
Q 959 1119 1226 758 
Q 1494 397 1959 397 
Q 2419 397 2687 759 
Q 2956 1122 2956 1747 
Q 2956 2369 2687 2733 
Q 2419 3097 1959 3097 
z
M 1959 3584 
Q 2709 3584 3137 3096 
Q 3566 2609 3566 1747 
Q 3566 888 3137 398 
Q 2709 -91 1959 -91 
Q 1206 -91 779 398 
Q 353 888 353 1747 
Q 353 2609 779 3096 
Q 1206 3584 1959 3584 
z
" transform="scale(0.015625)"/>
      <path id="DejaVuSans-6d" d="M 3328 2828 
Q 3544 3216 3844 3400 
Q 4144 3584 4550 3584 
Q 5097 3584 5394 3201 
Q 5691 2819 5691 2113 
L 5691 0 
L 5113 0 
L 5113 2094 
Q 5113 2597 4934 2840 
Q 4756 3084 4391 3084 
Q 3944 3084 3684 2787 
Q 3425 2491 3425 1978 
L 3425 0 
L 2847 0 
L 2847 2094 
Q 2847 2600 2669 2842 
Q 2491 3084 2119 3084 
Q 1678 3084 1418 2786 
Q 1159 2488 1159 1978 
L 1159 0 
L 581 0 
L 581 3500 
L 1159 3500 
L 1159 2956 
Q 1356 3278 1631 3431 
Q 1906 3584 2284 3584 
Q 2666 3584 2933 3390 
Q 3200 3197 3328 2828 
z
" transform="scale(0.015625)"/>
      <path id="DejaVuSans-65" d="M 3597 1894 
L 3597 1613 
L 953 1613 
Q 991 1019 1311 708 
Q 1631 397 2203 397 
Q 2534 397 2845 478 
Q 3156 559 3463 722 
L 3463 178 
Q 3153 47 2828 -22 
Q 2503 -91 2169 -91 
Q 1331 -91 842 396 
Q 353 884 353 1716 
Q 353 2575 817 3079 
Q 1281 3584 2069 3584 
Q 2775 3584 3186 3129 
Q 3597 2675 3597 1894 
z
M 3022 2063 
Q 3016 2534 2758 2815 
Q 2500 3097 2075 3097 
Q 1594 3097 1305 2825 
Q 1016 2553 972 2059 
L 3022 2063 
z
" transform="scale(0.015625)"/>
      <path id="DejaVuSans-64" d="M 2906 2969 
L 2906 4863 
L 3481 4863 
L 3481 0 
L 2906 0 
L 2906 525 
Q 2725 213 2448 61 
Q 2172 -91 1784 -91 
Q 1150 -91 751 415 
Q 353 922 353 1747 
Q 353 2572 751 3078 
Q 1150 3584 1784 3584 
Q 2172 3584 2448 3432 
Q 2725 3281 2906 2969 
z
M 947 1747 
Q 947 1113 1208 752 
Q 1469 391 1925 391 
Q 2381 391 2643 752 
Q 2906 1113 2906 1747 
Q 2906 2381 2643 2742 
Q 2381 3103 1925 3103 
Q 1469 3103 1208 2742 
Q 947 2381 947 1747 
z
" transform="scale(0.015625)"/>
      <path id="DejaVuSans-5f" d="M 3263 -1063 
L 3263 -1509 
L -63 -1509 
L -63 -1063 
L 3263 -1063 
z
" transform="scale(0.015625)"/>
      <path id="DejaVuSans-34" d="M 2419 4116 
L 825 1625 
L 2419 1625 
L 2419 4116 
z
M 2253 4666 
L 3047 4666 
L 3047 1625 
L 3713 1625 
L 3713 1100 
L 3047 1100 
L 3047 0 
L 2419 0 
L 2419 1100 
L 313 1100 
L 313 1709 
L 2253 4666 
z
" transform="scale(0.015625)"/>
      <path id="DejaVuSans-39" d="M 703 97 
L 703 672 
Q 941 559 1184 500 
Q 1428 441 1663 441 
Q 2288 441 2617 861 
Q 2947 1281 2994 2138 
Q 2813 1869 2534 1725 
Q 2256 1581 1919 1581 
Q 1219 1581 811 2004 
Q 403 2428 403 3163 
Q 403 3881 828 4315 
Q 1253 4750 1959 4750 
Q 2769 4750 3195 4129 
Q 3622 3509 3622 2328 
Q 3622 1225 3098 567 
Q 2575 -91 1691 -91 
Q 1453 -91 1209 -44 
Q 966 3 703 97 
z
M 1959 2075 
Q 2384 2075 2632 2365 
Q 2881 2656 2881 3163 
Q 2881 3666 2632 3958 
Q 2384 4250 1959 4250 
Q 1534 4250 1286 3958 
Q 1038 3666 1038 3163 
Q 1038 2656 1286 2365 
Q 1534 2075 1959 2075 
z
" transform="scale(0.015625)"/>
     </defs>
     <use xlink:href="#DejaVuSans-43"/>
     <use xlink:href="#DejaVuSans-6c" x="69.824219"/>
     <use xlink:href="#DejaVuSans-61" x="97.607422"/>
     <use xlink:href="#DejaVuSans-73" x="158.886719"/>
     <use xlink:href="#DejaVuSans-73" x="210.986328"/>
     <use xlink:href="#DejaVuSans-69" x="263.085938"/>
     <use xlink:href="#DejaVuSans-63" x="290.869141"/>
     <use xlink:href="#DejaVuSans-20" x="345.849609"/>
     <use xlink:href="#DejaVuSans-54" x="377.636719"/>
     <use xlink:href="#DejaVuSans-72" x="423.970703"/>
     <use xlink:href="#DejaVuSans-61" x="465.083984"/>
     <use xlink:href="#DejaVuSans-6e" x="526.363281"/>
     <use xlink:href="#DejaVuSans-73" x="589.742188"/>
     <use xlink:href="#DejaVuSans-66" x="641.841797"/>
     <use xlink:href="#DejaVuSans-6f" x="677.046875"/>
     <use xlink:href="#DejaVuSans-72" x="738.228516"/>
     <use xlink:href="#DejaVuSans-6d" x="777.591797"/>
     <use xlink:href="#DejaVuSans-65" x="875.003906"/>
     <use xlink:href="#DejaVuSans-72" x="936.527344"/>
     <use xlink:href="#DejaVuSans-20" x="977.640625"/>
     <use xlink:href="#DejaVuSans-2d" x="1009.427734"/>
     <use xlink:href="#DejaVuSans-20" x="1045.511719"/>
     <use xlink:href="#DejaVuSans-6d" x="1077.298828"/>
     <use xlink:href="#DejaVuSans-6f" x="1174.710938"/>
     <use xlink:href="#DejaVuSans-64" x="1235.892578"/>
     <use xlink:href="#DejaVuSans-65" x="1299.369141"/>
     <use xlink:href="#DejaVuSans-6c" x="1360.892578"/>
     <use xlink:href="#DejaVuSans-5f" x="1388.675781"/>
     <use xlink:href="#DejaVuSans-32" x="1438.675781"/>
     <use xlink:href="#DejaVuSans-30" x="1502.298828"/>
     <use xlink:href="#DejaVuSans-32" x="1565.921875"/>
     <use xlink:href="#DejaVuSans-33" x="1629.544922"/>
     <use xlink:href="#DejaVuSans-31" x="1693.167969"/>
     <use xlink:href="#DejaVuSans-31" x="1756.791016"/>
     <use xlink:href="#DejaVuSans-32" x="1820.414062"/>
     <use xlink:href="#DejaVuSans-33" x="1884.037109"/>
     <use xlink:href="#DejaVuSans-31" x="1947.660156"/>
     <use xlink:href="#DejaVuSans-36" x="2011.283203"/>
     <use xlink:href="#DejaVuSans-34" x="2074.90625"/>
     <use xlink:href="#DejaVuSans-39" x="2138.529297"/>
     <use xlink:href="#DejaVuSans-32" x="2202.152344"/>
     <use xlink:href="#DejaVuSans-33" x="2265.775391"/>
    </g>
   </g>
   <g id="legend_1">
    <g id="patch_7">
     <path d="M 428.882812 95.234375 
L 511.4 95.234375 
Q 513.4 95.234375 513.4 93.234375 
L 513.4 50.2 
Q 513.4 48.2 511.4 48.2 
L 428.882812 48.2 
Q 426.882812 48.2 426.882812 50.2 
L 426.882812 93.234375 
Q 426.882812 95.234375 428.882812 95.234375 
z
" style="fill: #ffffff; opacity: 0.8; stroke: #cccccc; stroke-linejoin: miter"/>
    </g>
    <g id="line2d_16">
     <path d="M 430.882812 56.298437 
L 440.882812 56.298437 
L 450.882812 56.298437 
" style="fill: none; stroke: #1f77b4; stroke-width: 1.5; stroke-linecap: square"/>
    </g>
    <g id="text_14">
     <!-- Measured -->
     <g transform="translate(458.882812 59.798437) scale(0.1 -0.1)">
      <defs>
       <path id="DejaVuSans-4d" d="M 628 4666 
L 1569 4666 
L 2759 1491 
L 3956 4666 
L 4897 4666 
L 4897 0 
L 4281 0 
L 4281 4097 
L 3078 897 
L 2444 897 
L 1241 4097 
L 1241 0 
L 628 0 
L 628 4666 
z
" transform="scale(0.015625)"/>
       <path id="DejaVuSans-75" d="M 544 1381 
L 544 3500 
L 1119 3500 
L 1119 1403 
Q 1119 906 1312 657 
Q 1506 409 1894 409 
Q 2359 409 2629 706 
Q 2900 1003 2900 1516 
L 2900 3500 
L 3475 3500 
L 3475 0 
L 2900 0 
L 2900 538 
Q 2691 219 2414 64 
Q 2138 -91 1772 -91 
Q 1169 -91 856 284 
Q 544 659 544 1381 
z
M 1991 3584 
L 1991 3584 
z
" transform="scale(0.015625)"/>
      </defs>
      <use xlink:href="#DejaVuSans-4d"/>
      <use xlink:href="#DejaVuSans-65" x="86.279297"/>
      <use xlink:href="#DejaVuSans-61" x="147.802734"/>
      <use xlink:href="#DejaVuSans-73" x="209.082031"/>
      <use xlink:href="#DejaVuSans-75" x="261.181641"/>
      <use xlink:href="#DejaVuSans-72" x="324.560547"/>
      <use xlink:href="#DejaVuSans-65" x="363.423828"/>
      <use xlink:href="#DejaVuSans-64" x="424.947266"/>
     </g>
    </g>
    <g id="line2d_17">
     <path d="M 430.882812 70.976562 
L 440.882812 70.976562 
L 450.882812 70.976562 
" style="fill: none; stroke: #ff7f0e; stroke-width: 1.5; stroke-linecap: square"/>
    </g>
    <g id="text_15">
     <!-- Fitted -->
     <g transform="translate(458.882812 74.476562) scale(0.1 -0.1)">
      <defs>
       <path id="DejaVuSans-46" d="M 628 4666 
L 3309 4666 
L 3309 4134 
L 1259 4134 
L 1259 2759 
L 3109 2759 
L 3109 2228 
L 1259 2228 
L 1259 0 
L 628 0 
L 628 4666 
z
" transform="scale(0.015625)"/>
       <path id="DejaVuSans-74" d="M 1172 4494 
L 1172 3500 
L 2356 3500 
L 2356 3053 
L 1172 3053 
L 1172 1153 
Q 1172 725 1289 603 
Q 1406 481 1766 481 
L 2356 481 
L 2356 0 
L 1766 0 
Q 1100 0 847 248 
Q 594 497 594 1153 
L 594 3053 
L 172 3053 
L 172 3500 
L 594 3500 
L 594 4494 
L 1172 4494 
z
" transform="scale(0.015625)"/>
      </defs>
      <use xlink:href="#DejaVuSans-46"/>
      <use xlink:href="#DejaVuSans-69" x="50.269531"/>
      <use xlink:href="#DejaVuSans-74" x="78.052734"/>
      <use xlink:href="#DejaVuSans-74" x="117.261719"/>
      <use xlink:href="#DejaVuSans-65" x="156.470703"/>
      <use xlink:href="#DejaVuSans-64" x="217.994141"/>
     </g>
    </g>
    <g id="line2d_18">
     <path d="M 430.882812 85.654687 
L 440.882812 85.654687 
L 450.882812 85.654687 
" style="fill: none; stroke: #2ca02c; stroke-width: 1.5; stroke-linecap: square"/>
    </g>
    <g id="text_16">
     <!-- Estimated -->
     <g transform="translate(458.882812 89.154687) scale(0.1 -0.1)">
      <defs>
       <path id="DejaVuSans-45" d="M 628 4666 
L 3578 4666 
L 3578 4134 
L 1259 4134 
L 1259 2753 
L 3481 2753 
L 3481 2222 
L 1259 2222 
L 1259 531 
L 3634 531 
L 3634 0 
L 628 0 
L 628 4666 
z
" transform="scale(0.015625)"/>
      </defs>
      <use xlink:href="#DejaVuSans-45"/>
      <use xlink:href="#DejaVuSans-73" x="63.183594"/>
      <use xlink:href="#DejaVuSans-74" x="115.283203"/>
      <use xlink:href="#DejaVuSans-69" x="154.492188"/>
      <use xlink:href="#DejaVuSans-6d" x="182.275391"/>
      <use xlink:href="#DejaVuSans-61" x="279.6875"/>
      <use xlink:href="#DejaVuSans-74" x="340.966797"/>
      <use xlink:href="#DejaVuSans-65" x="380.175781"/>
      <use xlink:href="#DejaVuSans-64" x="441.699219"/>
     </g>
    </g>
   </g>
  </g>
 </g>
 <defs>
  <clipPath id="p3eaa1c16ce">
   <rect x="72" y="43.2" width="446.4" height="277.2"/>
  </clipPath>
 </defs>
</svg>
