<?xml version="1.0" encoding="utf-8" standalone="no"?>
<!DOCTYPE svg PUBLIC "-//W3C//DTD SVG 1.1//EN"
  "http://www.w3.org/Graphics/SVG/1.1/DTD/svg11.dtd">
<svg xmlns:xlink="http://www.w3.org/1999/xlink" width="576pt" height="360pt" viewBox="0 0 576 360" xmlns="http://www.w3.org/2000/svg" version="1.1">
 <metadata>
  <rdf:RDF xmlns:dc="http://purl.org/dc/elements/1.1/" xmlns:cc="http://creativecommons.org/ns#" xmlns:rdf="http://www.w3.org/1999/02/22-rdf-syntax-ns#">
   <cc:Work>
    <dc:type rdf:resource="http://purl.org/dc/dcmitype/StillImage"/>
    <dc:date>2023-11-26T16:28:46.638558</dc:date>
    <dc:format>image/svg+xml</dc:format>
    <dc:creator>
     <cc:Agent>
      <dc:title>Matplotlib v3.8.1, https://matplotlib.org/</dc:title>
     </cc:Agent>
    </dc:creator>
   </cc:Work>
  </rdf:RDF>
 </metadata>
 <defs>
  <style type="text/css">*{stroke-linejoin: round; stroke-linecap: butt}</style>
 </defs>
 <g id="figure_1">
  <g id="patch_1">
   <path d="M 0 360 
L 576 360 
L 576 0 
L 0 0 
z
" style="fill: #ffffff"/>
  </g>
  <g id="axes_1">
   <g id="patch_2">
    <path d="M 72 320.4 
L 518.4 320.4 
L 518.4 43.2 
L 72 43.2 
z
" style="fill: #ffffff"/>
   </g>
   <g id="matplotlib.axis_1">
    <g id="xtick_1">
     <g id="line2d_1">
      <defs>
       <path id="ma630285a12" d="M 0 0 
L 0 3.5 
" style="stroke: #000000; stroke-width: 0.8"/>
      </defs>
      <g>
       <use xlink:href="#ma630285a12" x="129.874161" y="320.4" style="stroke: #000000; stroke-width: 0.8"/>
      </g>
     </g>
     <g id="text_1">
      <!-- 2020-05-15 -->
      <g transform="translate(100.816349 334.998438) scale(0.1 -0.1)">
       <defs>
        <path id="DejaVuSans-32" d="M 1228 531 
L 3431 531 
L 3431 0 
L 469 0 
L 469 531 
Q 828 903 1448 1529 
Q 2069 2156 2228 2338 
Q 2531 2678 2651 2914 
Q 2772 3150 2772 3378 
Q 2772 3750 2511 3984 
Q 2250 4219 1831 4219 
Q 1534 4219 1204 4116 
Q 875 4013 500 3803 
L 500 4441 
Q 881 4594 1212 4672 
Q 1544 4750 1819 4750 
Q 2544 4750 2975 4387 
Q 3406 4025 3406 3419 
Q 3406 3131 3298 2873 
Q 3191 2616 2906 2266 
Q 2828 2175 2409 1742 
Q 1991 1309 1228 531 
z
" transform="scale(0.015625)"/>
        <path id="DejaVuSans-30" d="M 2034 4250 
Q 1547 4250 1301 3770 
Q 1056 3291 1056 2328 
Q 1056 1369 1301 889 
Q 1547 409 2034 409 
Q 2525 409 2770 889 
Q 3016 1369 3016 2328 
Q 3016 3291 2770 3770 
Q 2525 4250 2034 4250 
z
M 2034 4750 
Q 2819 4750 3233 4129 
Q 3647 3509 3647 2328 
Q 3647 1150 3233 529 
Q 2819 -91 2034 -91 
Q 1250 -91 836 529 
Q 422 1150 422 2328 
Q 422 3509 836 4129 
Q 1250 4750 2034 4750 
z
" transform="scale(0.015625)"/>
        <path id="DejaVuSans-2d" d="M 313 2009 
L 1997 2009 
L 1997 1497 
L 313 1497 
L 313 2009 
z
" transform="scale(0.015625)"/>
        <path id="DejaVuSans-35" d="M 691 4666 
L 3169 4666 
L 3169 4134 
L 1269 4134 
L 1269 2991 
Q 1406 3038 1543 3061 
Q 1681 3084 1819 3084 
Q 2600 3084 3056 2656 
Q 3513 2228 3513 1497 
Q 3513 744 3044 326 
Q 2575 -91 1722 -91 
Q 1428 -91 1123 -41 
Q 819 9 494 109 
L 494 744 
Q 775 591 1075 516 
Q 1375 441 1709 441 
Q 2250 441 2565 725 
Q 2881 1009 2881 1497 
Q 2881 1984 2565 2268 
Q 2250 2553 1709 2553 
Q 1456 2553 1204 2497 
Q 953 2441 691 2322 
L 691 4666 
z
" transform="scale(0.015625)"/>
        <path id="DejaVuSans-31" d="M 794 531 
L 1825 531 
L 1825 4091 
L 703 3866 
L 703 4441 
L 1819 4666 
L 2450 4666 
L 2450 531 
L 3481 531 
L 3481 0 
L 794 0 
L 794 531 
z
" transform="scale(0.015625)"/>
       </defs>
       <use xlink:href="#DejaVuSans-32"/>
       <use xlink:href="#DejaVuSans-30" x="63.623047"/>
       <use xlink:href="#DejaVuSans-32" x="127.246094"/>
       <use xlink:href="#DejaVuSans-30" x="190.869141"/>
       <use xlink:href="#DejaVuSans-2d" x="254.492188"/>
       <use xlink:href="#DejaVuSans-30" x="290.576172"/>
       <use xlink:href="#DejaVuSans-35" x="354.199219"/>
       <use xlink:href="#DejaVuSans-2d" x="417.822266"/>
       <use xlink:href="#DejaVuSans-31" x="453.90625"/>
       <use xlink:href="#DejaVuSans-35" x="517.529297"/>
      </g>
     </g>
    </g>
    <g id="xtick_2">
     <g id="line2d_2">
      <g>
       <use xlink:href="#ma630285a12" x="212.435902" y="320.4" style="stroke: #000000; stroke-width: 0.8"/>
      </g>
     </g>
     <g id="text_2">
      <!-- 2020-06-01 -->
      <g transform="translate(183.37809 334.998438) scale(0.1 -0.1)">
       <defs>
        <path id="DejaVuSans-36" d="M 2113 2584 
Q 1688 2584 1439 2293 
Q 1191 2003 1191 1497 
Q 1191 994 1439 701 
Q 1688 409 2113 409 
Q 2538 409 2786 701 
Q 3034 994 3034 1497 
Q 3034 2003 2786 2293 
Q 2538 2584 2113 2584 
z
M 3366 4563 
L 3366 3988 
Q 3128 4100 2886 4159 
Q 2644 4219 2406 4219 
Q 1781 4219 1451 3797 
Q 1122 3375 1075 2522 
Q 1259 2794 1537 2939 
Q 1816 3084 2150 3084 
Q 2853 3084 3261 2657 
Q 3669 2231 3669 1497 
Q 3669 778 3244 343 
Q 2819 -91 2113 -91 
Q 1303 -91 875 529 
Q 447 1150 447 2328 
Q 447 3434 972 4092 
Q 1497 4750 2381 4750 
Q 2619 4750 2861 4703 
Q 3103 4656 3366 4563 
z
" transform="scale(0.015625)"/>
       </defs>
       <use xlink:href="#DejaVuSans-32"/>
       <use xlink:href="#DejaVuSans-30" x="63.623047"/>
       <use xlink:href="#DejaVuSans-32" x="127.246094"/>
       <use xlink:href="#DejaVuSans-30" x="190.869141"/>
       <use xlink:href="#DejaVuSans-2d" x="254.492188"/>
       <use xlink:href="#DejaVuSans-30" x="290.576172"/>
       <use xlink:href="#DejaVuSans-36" x="354.199219"/>
       <use xlink:href="#DejaVuSans-2d" x="417.822266"/>
       <use xlink:href="#DejaVuSans-30" x="453.90625"/>
       <use xlink:href="#DejaVuSans-31" x="517.529297"/>
      </g>
     </g>
    </g>
    <g id="xtick_3">
     <g id="line2d_3">
      <g>
       <use xlink:href="#ma630285a12" x="280.427924" y="320.4" style="stroke: #000000; stroke-width: 0.8"/>
      </g>
     </g>
     <g id="text_3">
      <!-- 2020-06-15 -->
      <g transform="translate(251.370111 334.998438) scale(0.1 -0.1)">
       <use xlink:href="#DejaVuSans-32"/>
       <use xlink:href="#DejaVuSans-30" x="63.623047"/>
       <use xlink:href="#DejaVuSans-32" x="127.246094"/>
       <use xlink:href="#DejaVuSans-30" x="190.869141"/>
       <use xlink:href="#DejaVuSans-2d" x="254.492188"/>
       <use xlink:href="#DejaVuSans-30" x="290.576172"/>
       <use xlink:href="#DejaVuSans-36" x="354.199219"/>
       <use xlink:href="#DejaVuSans-2d" x="417.822266"/>
       <use xlink:href="#DejaVuSans-31" x="453.90625"/>
       <use xlink:href="#DejaVuSans-35" x="517.529297"/>
      </g>
     </g>
    </g>
    <g id="xtick_4">
     <g id="line2d_4">
      <g>
       <use xlink:href="#ma630285a12" x="358.133092" y="320.4" style="stroke: #000000; stroke-width: 0.8"/>
      </g>
     </g>
     <g id="text_4">
      <!-- 2020-07-01 -->
      <g transform="translate(329.075279 334.998438) scale(0.1 -0.1)">
       <defs>
        <path id="DejaVuSans-37" d="M 525 4666 
L 3525 4666 
L 3525 4397 
L 1831 0 
L 1172 0 
L 2766 4134 
L 525 4134 
L 525 4666 
z
" transform="scale(0.015625)"/>
       </defs>
       <use xlink:href="#DejaVuSans-32"/>
       <use xlink:href="#DejaVuSans-30" x="63.623047"/>
       <use xlink:href="#DejaVuSans-32" x="127.246094"/>
       <use xlink:href="#DejaVuSans-30" x="190.869141"/>
       <use xlink:href="#DejaVuSans-2d" x="254.492188"/>
       <use xlink:href="#DejaVuSans-30" x="290.576172"/>
       <use xlink:href="#DejaVuSans-37" x="354.199219"/>
       <use xlink:href="#DejaVuSans-2d" x="417.822266"/>
       <use xlink:href="#DejaVuSans-30" x="453.90625"/>
       <use xlink:href="#DejaVuSans-31" x="517.529297"/>
      </g>
     </g>
    </g>
    <g id="xtick_5">
     <g id="line2d_5">
      <g>
       <use xlink:href="#ma630285a12" x="426.125113" y="320.4" style="stroke: #000000; stroke-width: 0.8"/>
      </g>
     </g>
     <g id="text_5">
      <!-- 2020-07-15 -->
      <g transform="translate(397.067301 334.998438) scale(0.1 -0.1)">
       <use xlink:href="#DejaVuSans-32"/>
       <use xlink:href="#DejaVuSans-30" x="63.623047"/>
       <use xlink:href="#DejaVuSans-32" x="127.246094"/>
       <use xlink:href="#DejaVuSans-30" x="190.869141"/>
       <use xlink:href="#DejaVuSans-2d" x="254.492188"/>
       <use xlink:href="#DejaVuSans-30" x="290.576172"/>
       <use xlink:href="#DejaVuSans-37" x="354.199219"/>
       <use xlink:href="#DejaVuSans-2d" x="417.822266"/>
       <use xlink:href="#DejaVuSans-31" x="453.90625"/>
       <use xlink:href="#DejaVuSans-35" x="517.529297"/>
      </g>
     </g>
    </g>
    <g id="xtick_6">
     <g id="line2d_6">
      <g>
       <use xlink:href="#ma630285a12" x="508.686854" y="320.4" style="stroke: #000000; stroke-width: 0.8"/>
      </g>
     </g>
     <g id="text_6">
      <!-- 2020-08-01 -->
      <g transform="translate(479.629042 334.998438) scale(0.1 -0.1)">
       <defs>
        <path id="DejaVuSans-38" d="M 2034 2216 
Q 1584 2216 1326 1975 
Q 1069 1734 1069 1313 
Q 1069 891 1326 650 
Q 1584 409 2034 409 
Q 2484 409 2743 651 
Q 3003 894 3003 1313 
Q 3003 1734 2745 1975 
Q 2488 2216 2034 2216 
z
M 1403 2484 
Q 997 2584 770 2862 
Q 544 3141 544 3541 
Q 544 4100 942 4425 
Q 1341 4750 2034 4750 
Q 2731 4750 3128 4425 
Q 3525 4100 3525 3541 
Q 3525 3141 3298 2862 
Q 3072 2584 2669 2484 
Q 3125 2378 3379 2068 
Q 3634 1759 3634 1313 
Q 3634 634 3220 271 
Q 2806 -91 2034 -91 
Q 1263 -91 848 271 
Q 434 634 434 1313 
Q 434 1759 690 2068 
Q 947 2378 1403 2484 
z
M 1172 3481 
Q 1172 3119 1398 2916 
Q 1625 2713 2034 2713 
Q 2441 2713 2670 2916 
Q 2900 3119 2900 3481 
Q 2900 3844 2670 4047 
Q 2441 4250 2034 4250 
Q 1625 4250 1398 4047 
Q 1172 3844 1172 3481 
z
" transform="scale(0.015625)"/>
       </defs>
       <use xlink:href="#DejaVuSans-32"/>
       <use xlink:href="#DejaVuSans-30" x="63.623047"/>
       <use xlink:href="#DejaVuSans-32" x="127.246094"/>
       <use xlink:href="#DejaVuSans-30" x="190.869141"/>
       <use xlink:href="#DejaVuSans-2d" x="254.492188"/>
       <use xlink:href="#DejaVuSans-30" x="290.576172"/>
       <use xlink:href="#DejaVuSans-38" x="354.199219"/>
       <use xlink:href="#DejaVuSans-2d" x="417.822266"/>
       <use xlink:href="#DejaVuSans-30" x="453.90625"/>
       <use xlink:href="#DejaVuSans-31" x="517.529297"/>
      </g>
     </g>
    </g>
   </g>
   <g id="matplotlib.axis_2">
    <g id="ytick_1">
     <g id="line2d_7">
      <defs>
       <path id="m5820a4a515" d="M 0 0 
L -3.5 0 
" style="stroke: #000000; stroke-width: 0.8"/>
      </defs>
      <g>
       <use xlink:href="#m5820a4a515" x="72" y="314.642549" style="stroke: #000000; stroke-width: 0.8"/>
      </g>
     </g>
     <g id="text_7">
      <!-- −2 -->
      <g transform="translate(50.257812 318.441768) scale(0.1 -0.1)">
       <defs>
        <path id="DejaVuSans-2212" d="M 678 2272 
L 4684 2272 
L 4684 1741 
L 678 1741 
L 678 2272 
z
" transform="scale(0.015625)"/>
       </defs>
       <use xlink:href="#DejaVuSans-2212"/>
       <use xlink:href="#DejaVuSans-32" x="83.789062"/>
      </g>
     </g>
    </g>
    <g id="ytick_2">
     <g id="line2d_8">
      <g>
       <use xlink:href="#m5820a4a515" x="72" y="269.914738" style="stroke: #000000; stroke-width: 0.8"/>
      </g>
     </g>
     <g id="text_8">
      <!-- −1 -->
      <g transform="translate(50.257812 273.713957) scale(0.1 -0.1)">
       <use xlink:href="#DejaVuSans-2212"/>
       <use xlink:href="#DejaVuSans-31" x="83.789062"/>
      </g>
     </g>
    </g>
    <g id="ytick_3">
     <g id="line2d_9">
      <g>
       <use xlink:href="#m5820a4a515" x="72" y="225.186927" style="stroke: #000000; stroke-width: 0.8"/>
      </g>
     </g>
     <g id="text_9">
      <!-- 0 -->
      <g transform="translate(58.6375 228.986145) scale(0.1 -0.1)">
       <use xlink:href="#DejaVuSans-30"/>
      </g>
     </g>
    </g>
    <g id="ytick_4">
     <g id="line2d_10">
      <g>
       <use xlink:href="#m5820a4a515" x="72" y="180.459116" style="stroke: #000000; stroke-width: 0.8"/>
      </g>
     </g>
     <g id="text_10">
      <!-- 1 -->
      <g transform="translate(58.6375 184.258334) scale(0.1 -0.1)">
       <use xlink:href="#DejaVuSans-31"/>
      </g>
     </g>
    </g>
    <g id="ytick_5">
     <g id="line2d_11">
      <g>
       <use xlink:href="#m5820a4a515" x="72" y="135.731304" style="stroke: #000000; stroke-width: 0.8"/>
      </g>
     </g>
     <g id="text_11">
      <!-- 2 -->
      <g transform="translate(58.6375 139.530523) scale(0.1 -0.1)">
       <use xlink:href="#DejaVuSans-32"/>
      </g>
     </g>
    </g>
    <g id="ytick_6">
     <g id="line2d_12">
      <g>
       <use xlink:href="#m5820a4a515" x="72" y="91.003493" style="stroke: #000000; stroke-width: 0.8"/>
      </g>
     </g>
     <g id="text_12">
      <!-- 3 -->
      <g transform="translate(58.6375 94.802712) scale(0.1 -0.1)">
       <defs>
        <path id="DejaVuSans-33" d="M 2597 2516 
Q 3050 2419 3304 2112 
Q 3559 1806 3559 1356 
Q 3559 666 3084 287 
Q 2609 -91 1734 -91 
Q 1441 -91 1130 -33 
Q 819 25 488 141 
L 488 750 
Q 750 597 1062 519 
Q 1375 441 1716 441 
Q 2309 441 2620 675 
Q 2931 909 2931 1356 
Q 2931 1769 2642 2001 
Q 2353 2234 1838 2234 
L 1294 2234 
L 1294 2753 
L 1863 2753 
Q 2328 2753 2575 2939 
Q 2822 3125 2822 3475 
Q 2822 3834 2567 4026 
Q 2313 4219 1838 4219 
Q 1578 4219 1281 4162 
Q 984 4106 628 3988 
L 628 4550 
Q 988 4650 1302 4700 
Q 1616 4750 1894 4750 
Q 2613 4750 3031 4423 
Q 3450 4097 3450 3541 
Q 3450 3153 3228 2886 
Q 3006 2619 2597 2516 
z
" transform="scale(0.015625)"/>
       </defs>
       <use xlink:href="#DejaVuSans-33"/>
      </g>
     </g>
    </g>
    <g id="ytick_7">
     <g id="line2d_13">
      <g>
       <use xlink:href="#m5820a4a515" x="72" y="46.275682" style="stroke: #000000; stroke-width: 0.8"/>
      </g>
     </g>
     <g id="text_13">
      <!-- 4 -->
      <g transform="translate(58.6375 50.074901) scale(0.1 -0.1)">
       <defs>
        <path id="DejaVuSans-34" d="M 2419 4116 
L 825 1625 
L 2419 1625 
L 2419 4116 
z
M 2253 4666 
L 3047 4666 
L 3047 1625 
L 3713 1625 
L 3713 1100 
L 3047 1100 
L 3047 0 
L 2419 0 
L 2419 1100 
L 313 1100 
L 313 1709 
L 2253 4666 
z
" transform="scale(0.015625)"/>
       </defs>
       <use xlink:href="#DejaVuSans-34"/>
      </g>
     </g>
    </g>
   </g>
   <g id="line2d_14">
    <path d="M 72 290.509957 
L 72.404714 299.988762 
L 72.607072 298.549388 
L 72.809429 289.632289 
L 73.214143 263.793768 
L 73.618858 253.402189 
L 75.035358 184.066482 
L 75.237715 181.59146 
L 75.440073 185.821816 
L 75.64243 192.685173 
L 75.844787 195.441048 
L 76.047144 208.184776 
L 76.654216 266.918263 
L 77.05893 287.034395 
L 77.261287 290.68549 
L 77.463645 290.36953 
L 77.666002 281.417325 
L 78.070716 257.597438 
L 78.475431 247.170752 
L 78.677788 239.535047 
L 79.487217 191.895273 
L 79.891931 178.291432 
L 80.094288 179.923893 
L 80.903717 215.381647 
L 81.713146 278.363043 
L 82.11786 290.615277 
L 82.320218 292.317951 
L 82.522575 292.072204 
L 82.724932 289.965803 
L 82.927289 284.260966 
L 83.332004 265.040055 
L 83.736718 253.068675 
L 83.939075 250.52344 
L 84.141432 250.751634 
L 84.546147 256.105403 
L 84.748504 257.860738 
L 84.950861 257.878291 
L 85.355576 261.38896 
L 85.557933 258.597978 
L 85.76029 263.723555 
L 86.569719 301.322816 
L 86.772076 306.413286 
L 86.974433 307.74734 
L 87.176791 307.8 
L 87.379148 306.676586 
L 87.581505 303.552091 
L 87.783862 297.899914 
L 88.188577 279.45135 
L 88.390934 275.115674 
L 89.200363 268.357637 
L 89.40272 264.899629 
L 89.807434 252.524521 
L 90.212149 250.47078 
L 90.414506 248.206399 
L 90.616863 254.859116 
L 91.223935 297.180227 
L 91.628649 306.413286 
L 91.831006 306.465946 
L 92.033364 304.377098 
L 92.842792 265.759742 
L 93.04515 263.969301 
L 93.449864 256.772431 
L 93.652221 256.333597 
L 93.854578 253.876129 
L 94.056936 253.349529 
L 94.259293 251.155361 
L 94.46165 245.801591 
L 94.664007 243.414336 
L 94.866364 244.186683 
L 95.068722 246.819685 
L 95.271079 243.607423 
L 95.473436 252.068134 
L 96.080508 297.496187 
L 96.485222 305.202105 
L 96.687579 306.799459 
L 96.889937 303.165917 
L 97.699365 265.145375 
L 98.306437 256.35115 
L 98.508794 256.03519 
L 99.52058 238.271206 
L 99.722937 239.324407 
L 99.925295 242.975503 
L 100.127652 241.448362 
L 100.330009 249.94418 
L 100.937081 295.424893 
L 101.341795 305.693599 
L 101.544152 306.518606 
L 101.74651 303.411664 
L 101.948867 293.406258 
L 102.353581 268.26987 
L 102.555938 266.970923 
L 103.567724 252.085688 
L 104.377153 233.584464 
L 104.57951 234.655218 
L 104.781868 239.166427 
L 104.984225 239.148874 
L 105.186582 246.591491 
L 105.793654 292.791891 
L 106.198368 303.464324 
L 106.400725 304.938805 
L 106.603083 301.568563 
L 107.412511 263.126741 
L 107.614869 261.687367 
L 107.817226 258.615532 
L 108.22194 246.451065 
L 108.626655 228.283354 
L 108.829012 223.315758 
L 109.031369 221.735957 
L 109.638441 229.003041 
L 109.840798 233.549357 
L 110.043155 242.255815 
L 110.650227 288.333342 
L 111.054941 300.269616 
L 111.257298 301.86697 
L 111.459655 300.410042 
L 111.662013 290.861024 
L 112.066727 266.374109 
L 112.471442 253.823469 
L 113.887942 196.564462 
L 114.090299 194.580935 
L 114.292656 200.285771 
L 114.495014 209.852343 
L 114.697371 213.696526 
L 115.102085 242.168049 
L 115.709157 283.488619 
L 116.113871 295.161593 
L 116.316228 295.302019 
L 116.518586 293.915305 
L 116.720943 290.878577 
L 117.125657 268.076784 
L 118.542158 180.468046 
L 118.744515 172.007335 
L 118.946872 168.759966 
L 119.149229 171.831801 
L 119.756301 203.53314 
L 120.56573 269.954991 
L 120.970444 286.542901 
L 121.172801 289.965803 
L 121.375159 291.334964 
L 121.577516 290.123783 
L 121.779873 283.488619 
L 122.589302 240.798888 
L 123.196374 219.489129 
L 123.398731 215.6625 
L 123.601088 215.838034 
L 123.803445 215.364093 
L 124.410517 226.58068 
L 124.612874 235.761078 
L 125.219946 282.874252 
L 125.62466 295.038719 
L 125.827017 296.706287 
L 126.029374 294.582332 
L 127.04116 247.381392 
L 127.648232 216.066227 
L 128.255304 180.59092 
L 128.457661 174.271716 
L 128.660018 173.990863 
L 129.26709 211.098631 
L 130.278876 287.139715 
L 130.481233 293.687112 
L 130.68359 294.845633 
L 130.885947 292.686571 
L 132.504805 201.514505 
L 133.111877 165.793451 
L 133.314234 157.912 
L 133.516591 159.333821 
L 133.921306 172.200422 
L 134.123663 178.414305 
L 135.135449 270.393825 
L 135.540163 280.960938 
L 135.74252 280.171037 
L 135.944878 271.306599 
L 136.349592 245.01169 
L 136.551949 239.34196 
L 136.754306 229.406768 
L 136.956664 233.233397 
L 137.159021 223.772145 
L 137.766092 216.382187 
L 137.96845 216.715701 
L 138.373164 212.186938 
L 138.777879 218.506142 
L 138.980236 219.208275 
L 139.182593 229.090808 
L 139.789665 276.502389 
L 140.194379 289.368989 
L 140.396736 291.10677 
L 140.599093 288.579089 
L 141.003808 263.284721 
L 141.408522 245.555844 
L 142.015594 234.339258 
L 142.622665 226.686 
L 142.825023 226.457806 
L 143.02738 225.439712 
L 143.229737 226.018973 
L 143.634451 230.442415 
L 143.836809 229.406768 
L 144.039166 237.937693 
L 144.646238 279.258263 
L 145.050952 289.386543 
L 145.253309 290.47485 
L 145.455666 287.841848 
L 145.860381 263.003867 
L 146.062738 249.224493 
L 146.66981 235.427565 
L 146.872167 233.180737 
L 147.074524 232.267963 
L 147.479238 222.964691 
L 147.681596 230.056242 
L 147.883953 230.881249 
L 148.08631 233.075417 
L 148.491024 240.886655 
L 148.693382 239.745687 
L 149.098096 259.563412 
L 149.502811 283.172659 
L 149.907525 294.178605 
L 150.109882 295.916386 
L 150.312239 295.424893 
L 150.514597 293.037638 
L 150.716954 288.210469 
L 151.121668 270.551805 
L 151.526383 253.209102 
L 151.931097 248.294166 
L 152.133454 247.925545 
L 152.335811 249.593113 
L 152.538169 250.031947 
L 152.740526 248.294166 
L 152.942883 248.539912 
L 153.14524 247.714905 
L 153.347597 247.750012 
L 153.549955 245.274991 
L 153.752312 247.135645 
L 154.764098 290.703043 
L 154.966455 294.055732 
L 155.168812 295.231806 
L 155.573527 291.896671 
L 155.775884 282.523185 
L 156.78767 216.540167 
L 157.799456 180.450493 
L 158.001813 182.153167 
L 158.406528 193.334647 
L 158.608885 204.814534 
L 159.215956 262.933654 
L 159.620671 281.224238 
L 159.823028 283.945006 
L 160.025385 283.172659 
L 160.227743 274.869928 
L 160.632457 247.381392 
L 161.8466 204.779427 
L 162.251315 196.266056 
L 162.453672 196.388929 
L 162.656029 198.81129 
L 163.465458 225.755673 
L 164.072529 276.449729 
L 164.477244 292.212631 
L 164.679601 292.493484 
L 164.881958 289.755163 
L 165.084316 281.154025 
L 165.48903 254.244749 
L 166.500816 224.526939 
L 167.310245 188.173964 
L 167.512602 191.017606 
L 167.917316 208.448076 
L 168.119674 212.222045 
L 168.322031 221.841277 
L 168.929102 272.166713 
L 169.333817 285.033314 
L 169.536174 288.017382 
L 169.738531 284.91044 
L 170.143246 261.792687 
L 170.54796 236.112145 
L 171.357389 198.354903 
L 171.559746 193.24688 
L 172.166818 172.744575 
L 172.369175 174.113736 
L 172.571532 180.819113 
L 173.178604 213.836952 
L 173.785675 274.062474 
L 174.19039 290.492403 
L 174.392747 293.020085 
L 174.595104 291.475391 
L 174.999819 270.973085 
L 175.404533 249.7862 
L 177.023391 183.487221 
L 177.225748 183.926055 
L 177.428105 187.243637 
L 177.630462 201.303865 
L 177.83282 203.37516 
L 178.237534 240.763781 
L 178.642248 277.134309 
L 179.046963 293.406258 
L 179.24932 296.56586 
L 179.451677 294.424352 
L 179.654034 287.051948 
L 180.261106 253.261762 
L 181.879964 171.041901 
L 182.082321 168.268473 
L 182.284678 173.078089 
L 183.094107 220.85829 
L 183.498821 253.946342 
L 183.903536 272.149159 
L 184.30825 278.801877 
L 184.510607 279.960397 
L 184.712965 276.871009 
L 184.915322 265.513996 
L 185.724751 195.914989 
L 186.129465 177.764831 
L 186.331822 172.621702 
L 186.53418 171.972228 
L 186.736537 174.131289 
L 187.748323 208.465629 
L 188.557752 262.968761 
L 188.962466 275.010354 
L 189.164823 276.748135 
L 189.36718 276.818349 
L 189.569538 276.186428 
L 189.771895 267.023583 
L 190.986038 185.488303 
L 191.188395 180.977093 
L 191.390752 180.941987 
L 191.795467 188.718118 
L 192.604896 215.328987 
L 193.414325 269.165091 
L 193.819039 280.820511 
L 194.021396 281.733285 
L 194.426111 278.363043 
L 194.628468 270.744892 
L 195.437897 218.944975 
L 195.640254 214.679513 
L 195.842611 215.71516 
L 196.247325 220.875843 
L 196.449683 221.367337 
L 196.65204 221.033823 
L 197.056754 228.020054 
L 197.259112 228.739741 
L 197.461469 235.901505 
L 198.06854 277.046542 
L 198.473255 289.123243 
L 198.675612 289.211009 
L 198.877969 286.104067 
L 199.282684 259.896926 
L 199.687398 240.465374 
L 201.306256 183.926055 
L 201.508613 182.943068 
L 202.115684 199.285231 
L 202.318042 208.781589 
L 202.925113 263.337381 
L 203.329828 278.363043 
L 203.532185 280.153484 
L 203.734542 277.608249 
L 203.936899 267.79593 
L 204.341614 238.850467 
L 205.758114 192.299 
L 205.960471 190.175045 
L 206.162829 190.297919 
L 206.365186 191.509099 
L 206.7699 201.602272 
L 206.972257 204.32304 
L 207.174615 213.556099 
L 207.781686 263.846428 
L 208.186401 277.608249 
L 208.388758 280.206144 
L 208.591115 277.362502 
L 208.793472 267.251777 
L 209.198187 238.464293 
L 209.805258 219.489129 
L 210.209973 202.550152 
L 210.817044 167.039739 
L 211.019402 159.807761 
L 211.221759 162.335443 
L 211.626473 183.188815 
L 211.82883 187.629811 
L 212.031188 200.180451 
L 212.638259 255.596356 
L 213.042974 271.429472 
L 213.245331 274.834821 
L 213.447688 273.377893 
L 213.650045 264.250155 
L 214.257117 227.388134 
L 214.661831 204.937407 
L 215.47126 154.366225 
L 215.875975 140.11291 
L 216.078332 139.709183 
L 216.280689 144.431032 
L 217.090118 198.776184 
L 217.697189 251.541534 
L 218.101904 267.26933 
L 218.304261 270.130525 
L 218.506618 271.289046 
L 218.708976 270.218292 
L 218.911333 259.370325 
L 219.518404 212.678432 
L 220.125476 182.679768 
L 220.327833 180.836667 
L 220.53019 182.732428 
L 221.541976 218.786995 
L 221.744334 223.175331 
L 222.553762 271.657666 
L 222.958477 280.925831 
L 223.160834 282.382759 
L 223.363191 282.681165 
L 223.565549 281.347111 
L 223.767906 273.922047 
L 224.374977 241.360595 
L 224.779692 234.900965 
L 225.386763 236.656299 
L 225.589121 239.657921 
L 225.791478 240.412714 
L 226.196192 247.556925 
L 226.398549 247.258518 
L 226.600907 252.735162 
L 227.410335 298.426515 
L 227.612693 301.86697 
L 227.81505 303.306344 
L 228.017407 300.585576 
L 228.826836 264.285262 
L 229.029193 262.301734 
L 229.23155 257.404351 
L 230.648051 203.357606 
L 230.850408 203.8491 
L 231.255122 216.13644 
L 231.45748 225.422159 
L 232.064551 279.697097 
L 232.469266 294.336586 
L 232.671623 296.653627 
L 232.87398 295.61798 
L 233.278694 274.062474 
L 233.683409 254.859116 
L 235.302267 199.811831 
L 235.504624 199.302784 
L 236.111695 215.592287 
L 236.314053 224.421618 
L 236.921124 277.380056 
L 237.325839 290.913684 
L 237.528196 293.581792 
L 237.730553 291.773797 
L 238.135267 271.359259 
L 238.539982 252.787822 
L 239.349411 226.4227 
L 239.754125 217.891775 
L 240.15884 209.185316 
L 240.361197 208.974676 
L 240.563554 213.626312 
L 240.968268 228.634421 
L 241.170626 235.094051 
L 241.777697 282.435419 
L 242.182412 295.951493 
L 242.384769 298.075448 
L 242.587126 295.530213 
L 242.99184 274.466201 
L 243.396555 259.159685 
L 245.21777 195.528815 
L 245.420127 199.144804 
L 246.027199 221.981704 
L 246.836627 284.612033 
L 247.038985 291.738691 
L 247.241342 294.441906 
L 247.443699 292.282844 
L 247.848413 272.201819 
L 249.467271 176.746738 
L 249.669628 169.865827 
L 249.871985 168.215813 
L 250.074343 168.356239 
L 250.2767 174.271716 
L 250.883772 201.637379 
L 251.6932 265.531549 
L 252.097915 277.906656 
L 252.300272 280.522104 
L 252.502629 280.750298 
L 252.704986 277.450269 
L 253.109701 249.540453 
L 253.91913 187.15587 
L 254.323844 173.692456 
L 254.728558 166.179625 
L 254.930916 165.108871 
L 255.133273 171.498288 
L 255.740345 203.42782 
L 256.549773 267.515077 
L 256.954488 280.697638 
L 257.156845 283.945006 
L 257.359202 285.366827 
L 257.561559 284.54182 
L 257.966274 259.932032 
L 258.573345 216.996554 
L 258.97806 198.530437 
L 259.382774 189.139398 
L 259.585131 186.20799 
L 259.787489 185.839369 
L 259.989846 188.068644 
L 260.39456 201.690039 
L 260.596917 213.064605 
L 261.203989 265.882616 
L 261.608704 281.821052 
L 261.811061 284.313626 
L 262.013418 283.646599 
L 262.418132 263.232061 
L 262.62049 252.998462 
L 263.025204 244.765944 
L 263.227561 242.378689 
L 263.429918 241.518575 
L 263.834633 242.606882 
L 264.03699 242.343582 
L 264.239347 243.151036 
L 264.441704 243.221249 
L 264.644062 242.993056 
L 264.846419 244.730837 
L 265.048776 248.171292 
L 265.251133 248.171292 
L 265.45349 251.594194 
L 266.060562 287.771635 
L 266.465277 298.707368 
L 266.667634 300.023869 
L 266.869991 296.46054 
L 267.072348 289.68495 
L 267.477063 267.11135 
L 268.084134 248.223952 
L 268.488849 239.464834 
L 269.09592 229.880708 
L 269.500635 226.510466 
L 269.702992 228.371121 
L 269.905349 231.442956 
L 270.107706 232.022216 
L 270.310063 237.393539 
L 270.917135 279.012517 
L 271.32185 289.211009 
L 271.524207 291.036557 
L 271.726564 289.579629 
L 274.15485 168.970606 
L 274.357208 162.862043 
L 274.559565 165.705685 
L 275.166636 187.138317 
L 275.976065 256.632004 
L 276.38078 267.339543 
L 276.583137 266.74273 
L 276.987851 248.136186 
L 277.392566 223.508845 
L 278.404352 174.991403 
L 278.606709 172.393508 
L 279.011423 161.124262 
L 279.213781 159.755101 
L 279.416138 163.388643 
L 280.023209 198.934164 
L 280.630281 259.721392 
L 281.034995 279.13539 
L 281.237353 283.295533 
L 281.43971 281.979032 
L 281.642067 276.958776 
L 282.249139 241.378148 
L 282.85621 212.713538 
L 283.867996 176.255244 
L 284.070354 175.23715 
L 284.272711 182.188274 
L 285.284497 252.980908 
L 285.689211 280.399231 
L 286.093926 292.967425 
L 286.296283 294.915846 
L 286.49864 293.371152 
L 286.700997 290.861024 
L 287.105712 264.425688 
L 287.712783 220.48967 
L 288.522212 183.469668 
L 288.724569 177.396211 
L 288.926927 175.746197 
L 289.129284 178.800479 
L 289.736355 207.623069 
L 290.545784 267.357097 
L 290.950499 280.381677 
L 291.152856 282.751379 
L 291.355213 282.821592 
L 291.55757 281.557751 
L 291.759927 270.920425 
L 292.771714 186.804803 
L 293.176428 168.057833 
L 293.581142 158.473707 
L 293.7835 156.999226 
L 293.985857 160.000848 
L 294.592928 181.766994 
L 295.402357 252.770268 
L 295.807072 265.303355 
L 296.009429 265.162929 
L 296.414143 247.855332 
L 297.830644 132.635185 
L 298.235358 121.278172 
L 298.437715 119.066451 
L 298.640073 119.294644 
L 298.84243 121.049979 
L 299.044787 127.913336 
L 299.449501 150.943323 
L 300.056573 218.400822 
L 300.461287 239.956327 
L 300.663645 245.099457 
L 300.866002 245.713824 
L 301.068359 239.886114 
L 301.473073 214.223126 
L 302.484859 124.297347 
L 302.687217 114.625455 
L 302.889574 114.713222 
L 303.091931 121.629239 
L 303.496646 129.019197 
L 303.90136 148.029468 
L 304.306074 171.902015 
L 304.913146 231.039229 
L 305.31786 252.700055 
L 305.520218 257.457011 
L 305.722575 255.92987 
L 305.924932 249.83886 
L 306.532004 215.697607 
L 307.54379 155.875812 
L 307.746147 147.1518 
L 307.948504 146.397007 
L 308.757933 173.973309 
L 309.162647 196.248502 
L 309.769719 250.084607 
L 310.174433 267.076243 
L 310.376791 270.832659 
L 310.579148 270.341165 
L 310.983862 250.330353 
L 312.198005 161.422669 
L 312.60272 151.487476 
L 312.805077 147.748614 
L 313.007434 148.222554 
L 313.209791 151.382156 
L 313.816863 174.956297 
L 314.01922 186.646823 
L 314.626292 240.131861 
L 315.031006 257.650098 
L 315.233364 261.564493 
L 315.435721 261.002786 
L 315.840435 244.95903 
L 316.24515 228.967934 
L 316.649864 218.699228 
L 317.054578 205.621988 
L 317.66165 199.197464 
L 317.864007 198.81129 
L 318.066364 198.038943 
L 318.268722 202.041106 
L 318.875793 220.96361 
L 319.685222 271.043299 
L 320.089937 281.961478 
L 320.292294 283.365746 
L 320.697008 276.590155 
L 321.101723 254.174536 
L 322.315866 187.57715 
L 322.72058 178.818032 
L 322.922937 176.834504 
L 323.125295 180.362726 
L 323.732366 203.971973 
L 324.541795 262.547481 
L 324.94651 274.764608 
L 325.148867 277.239629 
L 325.351224 277.292289 
L 325.553581 275.361421 
L 325.755938 264.829415 
L 326.970082 168.759966 
L 327.172439 163.353536 
L 327.374796 162.001929 
L 327.77951 157.244973 
L 327.981868 161.510435 
L 328.184225 169.023266 
L 328.791296 213.169925 
L 329.196011 250.540994 
L 329.398368 263.565574 
L 329.803083 272.201819 
L 330.00544 271.394366 
L 330.207797 266.602303 
L 330.814869 225.141306 
L 331.42194 192.474533 
L 331.826655 173.095642 
L 332.029012 170.620621 
L 332.231369 170.638174 
L 332.433726 170.796154 
L 332.636083 172.586595 
L 332.838441 176.465884 
L 333.243155 196.055415 
L 333.445512 203.761333 
L 334.052584 259.932032 
L 334.457298 278.55613 
L 334.659655 283.190212 
L 334.862013 281.136471 
L 335.266727 264.179941 
L 335.671442 243.361676 
L 336.48087 209.079996 
L 336.683228 204.74432 
L 336.885585 203.79644 
L 337.087942 198.512883 
L 337.290299 196.933083 
L 337.695014 202.462386 
L 338.099728 214.81994 
L 338.302085 219.840196 
L 339.111514 276.098662 
L 339.313871 281.399771 
L 339.516228 283.313086 
L 339.718586 279.837524 
L 340.1233 259.879372 
L 340.932729 221.876384 
L 342.349229 169.09348 
L 342.551587 169.023266 
L 343.158658 190.122385 
L 343.76573 243.765403 
L 344.170444 259.159685 
L 344.372801 263.232061 
L 344.575159 261.406513 
L 344.777516 255.491036 
L 345.18223 229.090808 
L 346.194016 158.456154 
L 346.598731 145.8353 
L 347.003445 140.183123 
L 347.205802 139.463436 
L 347.40816 142.184204 
L 347.610517 148.889581 
L 348.015231 171.199881 
L 348.82466 249.084066 
L 349.229374 263.706001 
L 349.431732 263.056527 
L 349.634089 258.106485 
L 349.836446 248.592572 
L 351.050589 159.333821 
L 351.455304 143.641132 
L 351.860018 136.075641 
L 352.062375 135.303294 
L 352.264733 138.410235 
L 352.46709 147.889041 
L 353.276519 218.909869 
L 353.681233 251.330894 
L 354.085947 268.585831 
L 354.288305 273.09704 
L 354.490662 273.588534 
L 354.693019 271.675219 
L 355.097733 235.743525 
L 355.704805 172.639255 
L 356.109519 151.522583 
L 356.716591 135.970321 
L 356.918948 135.039993 
L 357.121306 139.147476 
L 357.52602 161.054048 
L 357.728377 171.902015 
L 358.740163 253.525062 
L 359.144878 264.618775 
L 359.347235 266.216129 
L 359.549592 265.935276 
L 359.751949 253.963896 
L 360.763735 150.838003 
L 361.16845 134.530946 
L 361.573164 125.034588 
L 361.775521 123.068613 
L 361.977879 125.877148 
L 362.180236 131.862838 
L 362.58495 153.909838 
L 363.394379 229.792942 
L 363.799093 244.888817 
L 364.001451 245.590951 
L 364.203808 240.553141 
L 364.406165 231.952003 
L 365.013237 172.446168 
L 365.620308 117.22335 
L 366.025023 103.391315 
L 366.429737 98.107759 
L 366.632094 98.529039 
L 366.834451 100.79342 
L 367.036809 108.253591 
L 367.441523 133.231999 
L 368.048595 201.374078 
L 368.453309 227.493454 
L 368.655666 234.795644 
L 368.858024 236.831832 
L 369.060381 233.496697 
L 369.262738 225.053539 
L 369.86981 170.673281 
L 370.476881 120.874445 
L 370.881596 106.638684 
L 371.083953 106.25251 
L 371.28631 106.866877 
L 371.488667 110.237119 
L 371.691024 115.573336 
L 372.298096 148.959795 
L 373.107525 221.771064 
L 373.512239 240.816441 
L 373.714597 244.555303 
L 374.119311 243.95849 
L 374.321668 233.04031 
L 375.333454 144.079965 
L 375.738169 132.722952 
L 375.940526 130.405911 
L 376.142883 129.45803 
L 376.34524 133.899026 
L 376.749955 156.384859 
L 377.559383 206.868275 
L 377.964098 236.568532 
L 378.368812 248.399486 
L 378.57117 248.592572 
L 378.773527 243.502103 
L 378.975884 233.882871 
L 380.392384 133.881473 
L 380.797099 125.368101 
L 381.201813 118.855811 
L 381.40417 122.085626 
L 382.011242 153.839624 
L 382.820671 224.913112 
L 383.225385 238.727593 
L 383.427743 239.2893 
L 383.6301 234.707878 
L 384.034814 215.627393 
L 385.0466 152.628444 
L 385.451315 138.304915 
L 385.653672 137.901188 
L 385.856029 141.148557 
L 386.058386 147.695954 
L 387.070172 207.745942 
L 387.474887 242.168049 
L 387.879601 260.950126 
L 388.284316 268.796471 
L 388.68903 270.955532 
L 388.891387 266.023043 
L 389.700816 228.651974 
L 390.307888 219.032742 
L 390.914959 208.097009 
L 391.117316 212.204491 
L 391.926745 246.170211 
L 392.533817 284.102986 
L 392.938531 294.722759 
L 393.140888 296.320113 
L 393.343246 295.93394 
L 393.545603 296.337667 
L 393.74796 288.649302 
L 394.355032 253.314422 
L 395.569175 204.832087 
L 395.771532 199.671404 
L 395.973889 200.707051 
L 396.176247 207.851262 
L 396.783318 243.940936 
L 397.188033 277.011436 
L 397.592747 292.317951 
L 397.795104 294.705206 
L 397.997461 292.528591 
L 398.402176 276.958776 
L 400.628105 167.390805 
L 400.830462 169.83072 
L 401.03282 178.379199 
L 401.639891 227.353027 
L 402.044606 265.426229 
L 402.44932 282.874252 
L 402.651677 286.314708 
L 402.854034 284.892887 
L 403.258749 269.270411 
L 403.663463 244.871264 
L 404.877607 153.822071 
L 405.282321 136.198514 
L 405.484678 132.582525 
L 405.687035 133.512853 
L 405.889393 142.535271 
L 406.294107 174.622783 
L 406.901179 241.097295 
L 407.305893 261.75758 
L 407.50825 266.567196 
L 407.710607 266.110809 
L 408.115322 247.872885 
L 409.73418 134.2852 
L 409.936537 130.054844 
L 410.138894 129.931971 
L 410.341251 133.881473 
L 410.948323 164.880677 
L 411.15068 178.537179 
L 411.757752 239.148874 
L 412.162466 259.809159 
L 412.364823 265.373569 
L 412.56718 266.90071 
L 412.971895 251.401107 
L 414.388395 167.180165 
L 414.79311 155.559852 
L 415.197824 149.837462 
L 415.400181 155.647619 
L 416.20961 209.343296 
L 416.614325 248.171292 
L 417.019039 267.971464 
L 417.221396 271.622559 
L 417.423753 271.148619 
L 417.828468 257.281477 
L 419.244968 173.394049 
L 419.649683 161.721076 
L 419.85204 158.4386 
L 420.054397 159.667334 
L 420.256754 167.092399 
L 421.066183 223.070011 
L 421.673255 270.288505 
L 422.077969 284.06788 
L 422.280326 286.191834 
L 422.482684 285.630127 
L 422.685041 285.4897 
L 423.089755 259.142132 
L 423.899184 199.987364 
L 424.708613 166.320052 
L 424.91097 163.599283 
L 425.113327 167.022185 
L 425.518042 189.385145 
L 425.720399 199.478317 
L 426.529828 263.319828 
L 426.934542 279.205603 
L 427.136899 283.032232 
L 427.339257 283.716813 
L 427.541614 283.9099 
L 427.743971 276.555049 
L 428.148685 242.045175 
L 428.755757 189.121845 
L 429.160471 167.197719 
L 429.565186 160.141275 
L 429.9699 163.493963 
L 430.374615 177.361105 
L 430.576972 187.31385 
L 431.386401 252.278775 
L 431.791115 262.740567 
L 431.993472 261.002786 
L 432.398187 243.64253 
L 433.207616 187.998431 
L 434.017044 127.843123 
L 434.219402 123.665427 
L 435.02883 147.09914 
L 435.433545 168.461559 
L 436.040617 229.319001 
L 436.445331 248.575019 
L 436.647688 252.963355 
L 436.850045 252.384095 
L 437.25476 234.778091 
L 437.659474 204.937407 
L 438.468903 142.149098 
L 438.67126 133.828813 
L 438.873617 134.65382 
L 439.075975 140.727277 
L 439.278332 140.341103 
L 439.480689 142.254418 
L 439.885403 158.105087 
L 440.290118 179.256866 
L 440.897189 241.992515 
L 441.301904 261.055446 
L 441.504261 265.689529 
L 441.706618 266.145916 
L 442.111333 253.560169 
L 442.920762 209.115103 
L 443.527833 179.327079 
L 444.134905 159.895528 
L 444.337262 157.683807 
L 444.539619 163.16045 
L 445.146691 201.654932 
L 445.753762 260.757039 
L 446.158477 278.87209 
L 446.360834 283.102446 
L 446.563191 281.399771 
L 446.967906 265.250695 
L 448.586763 171.463181 
L 448.991478 160.193935 
L 449.193835 158.210407 
L 449.396192 163.89769 
L 450.003264 198.39001 
L 450.812693 266.760283 
L 451.217407 278.117296 
L 451.419764 278.222616 
L 451.824479 263.548021 
L 452.43155 220.48967 
L 453.038622 184.698402 
L 453.443336 170.14668 
L 453.848051 163.42375 
L 454.050408 166.302498 
L 454.252765 174.833423 
L 454.65748 199.092144 
L 454.859837 206.306568 
L 455.669266 261.582047 
L 456.07398 273.1497 
L 456.276337 274.448647 
L 456.478694 272.745973 
L 456.681052 270.095418 
L 456.883409 263.267168 
L 457.288123 240.202074 
L 457.692838 230.846142 
L 457.895195 231.442956 
L 458.299909 236.357892 
L 458.502267 236.235019 
L 458.906981 232.970097 
L 459.109338 233.426484 
L 459.514053 236.972259 
L 459.71641 240.640908 
L 460.728196 289.913143 
L 461.13291 293.687112 
L 461.537625 290.861024 
L 461.739982 283.242872 
L 462.144696 253.788362 
L 463.561197 194.738915 
L 463.763554 188.542584 
L 463.965911 189.543125 
L 464.572983 206.166141 
L 465.382412 263.337381 
L 465.584769 269.235304 
L 465.787126 271.552346 
L 465.989483 269.481051 
L 467.608341 190.491006 
L 468.620127 172.411062 
L 468.822484 175.07917 
L 469.429556 197.477236 
L 470.036627 245.889358 
L 470.441342 261.073 
L 470.643699 263.319828 
L 470.846056 261.12566 
L 471.857842 217.663581 
L 472.869628 191.842613 
L 473.071985 192.263893 
L 473.274343 190.736752 
L 473.4767 191.807506 
L 473.679057 195.037321 
L 473.881414 200.654391 
L 474.083772 201.637379 
L 474.286129 208.184776 
L 474.8932 252.664948 
L 475.297915 266.532089 
L 475.500272 267.95391 
L 475.702629 266.216129 
L 476.107344 245.415417 
L 476.512058 226.63334 
L 477.321487 199.759171 
L 477.726201 182.556894 
L 477.928558 179.520166 
L 478.333273 183.522328 
L 478.53563 187.331404 
L 479.142702 208.606056 
L 479.952131 266.444323 
L 480.356845 274.852374 
L 480.559202 274.501307 
L 480.963917 255.649017 
L 482.785131 146.081047 
L 482.987489 141.043237 
L 483.189846 138.796409 
L 483.392203 143.606025 
L 483.999275 177.624405 
L 484.606346 238.306313 
L 485.011061 258.124038 
L 485.213418 261.880453 
L 485.415775 262.687907 
L 485.82049 245.819144 
L 486.225204 219.190722 
L 487.23699 142.412398 
L 487.439347 139.779396 
L 487.844062 145.378913 
L 488.248776 161.264689 
L 489.260562 227.42324 
L 489.665277 254.859116 
L 490.069991 267.74327 
L 490.272348 269.744351 
L 490.474705 268.778917 
L 490.677063 267.26933 
L 490.87942 258.966598 
L 491.891206 190.947392 
L 492.29592 175.833964 
L 492.498277 169.532313 
L 492.700635 167.812086 
L 492.902992 169.1988 
L 493.105349 173.306282 
L 493.712421 201.900679 
L 494.52185 263.319828 
L 495.128921 278.907197 
L 495.331278 279.03007 
L 495.533636 278.50347 
L 495.735993 272.061393 
L 496.950136 194.001674 
L 497.557208 173.218516 
L 497.759565 170.357321 
L 497.961922 173.095642 
L 498.568994 199.969811 
L 499.378422 262.933654 
L 499.58078 268.761364 
L 499.783137 270.885319 
L 499.985494 268.05923 
L 500.187851 260.792146 
L 500.794923 229.301448 
L 500.99728 224.948219 
L 501.401995 213.784292 
L 501.806709 204.182613 
L 502.009066 203.79644 
L 502.211423 205.551774 
L 502.413781 206.095928 
L 502.616138 204.674107 
L 503.020852 212.959285 
L 503.223209 213.433225 
L 503.425567 219.840196 
L 504.032638 263.074081 
L 504.437353 274.220454 
L 504.63971 275.607168 
L 504.842067 273.588534 
L 505.246782 252.805375 
L 505.651496 232.496156 
L 507.270354 170.111574 
L 507.472711 167.461019 
L 507.675068 170.357321 
L 508.28214 194.264974 
L 508.889211 243.74785 
L 509.293926 258.352231 
L 509.496283 261.353853 
L 509.69864 259.791606 
L 510.103354 239.710581 
L 511.722212 148.994902 
L 512.126927 133.846366 
L 512.329284 135.197974 
L 512.936355 164.512057 
L 513.34107 197.722983 
L 513.745784 234.795644 
L 514.150499 254.174536 
L 514.352856 258.931492 
L 514.555213 259.352772 
L 514.75757 251.769728 
L 516.174071 169.25146 
L 516.376428 168.321133 
L 516.781142 176.272797 
L 516.9835 173.938203 
L 517.185857 174.39459 
L 517.590571 189.490465 
L 517.792928 193.106454 
L 517.995286 202.234192 
L 518.4 236.059485 
L 518.4 236.059485 
" clip-path="url(#pa6908a76c7)" style="fill: none; stroke: #1f77b4; stroke-width: 1.5; stroke-linecap: square"/>
   </g>
   <g id="line2d_15">
    <path d="M 72 270.77961 
L 72.202357 270.77961 
L 72.607072 275.279489 
L 72.809429 275.39153 
L 73.011786 271.589803 
L 73.618858 252.649431 
L 73.821215 248.171228 
L 74.225929 230.738127 
L 74.833001 203.244111 
L 75.237715 192.284269 
L 75.440073 190.000746 
L 75.64243 190.973002 
L 76.047144 199.858933 
L 76.249501 213.183339 
L 76.654216 257.455101 
L 77.05893 275.298327 
L 77.261287 278.337476 
L 77.463645 277.006349 
L 77.868359 265.643536 
L 78.273073 249.416782 
L 78.475431 246.469805 
L 79.689574 192.48726 
L 79.891931 188.576044 
L 80.094288 187.340349 
L 80.296646 189.276486 
L 80.70136 203.430269 
L 80.903717 215.194415 
L 81.510789 266.721602 
L 81.915503 277.968226 
L 82.320218 282.722915 
L 82.522575 282.335441 
L 82.724932 280.335259 
L 83.332004 263.095331 
L 83.736718 251.137638 
L 83.939075 247.27972 
L 84.141432 247.386056 
L 84.546147 252.339488 
L 84.748504 251.740148 
L 84.950861 252.376922 
L 85.153218 253.408866 
L 85.557933 261.625518 
L 85.76029 263.688748 
L 85.962647 268.080724 
L 86.569719 292.528644 
L 86.772076 296.714592 
L 86.974433 298.043863 
L 87.176791 297.880577 
L 87.379148 294.352972 
L 88.188577 266.012418 
L 88.390934 263.981614 
L 88.593291 263.942216 
L 88.998005 262.869632 
L 89.200363 263.732681 
L 89.605077 256.281875 
L 90.009791 249.398787 
L 90.212149 250.663797 
L 90.414506 253.712668 
L 90.616863 252.644722 
L 90.81922 257.180078 
L 91.628649 291.667696 
L 91.831006 293.317141 
L 92.033364 292.282728 
L 92.235721 286.715217 
L 92.842792 251.566105 
L 93.04515 248.570988 
L 93.247507 248.158349 
L 93.449864 251.782004 
L 93.854578 253.293039 
L 94.259293 245.625407 
L 94.46165 244.339533 
L 94.664007 242.006577 
L 94.866364 241.422407 
L 95.271079 248.564685 
L 95.473436 248.839007 
L 95.87815 269.92642 
L 96.282865 288.531436 
L 96.485222 291.294719 
L 96.889937 286.634513 
L 97.092294 281.548767 
L 97.699365 255.465633 
L 98.10408 250.626468 
L 98.306437 250.179899 
L 98.711151 252.919143 
L 99.318223 242.21219 
L 99.52058 240.867143 
L 99.722937 238.063961 
L 99.925295 238.744724 
L 100.330009 250.074241 
L 100.937081 285.00004 
L 101.139438 291.081014 
L 101.341795 291.938026 
L 101.544152 291.512626 
L 101.74651 290.334932 
L 101.948867 285.065986 
L 102.555938 255.97052 
L 102.758296 255.896558 
L 102.960653 256.395585 
L 103.16301 255.770665 
L 103.365367 256.898731 
L 103.770082 251.570389 
L 104.377153 237.044948 
L 104.57951 235.221963 
L 104.781868 237.526129 
L 105.388939 260.218069 
L 105.793654 283.864341 
L 105.996011 289.158662 
L 106.400725 292.737923 
L 106.603083 292.434854 
L 106.80544 287.257063 
L 107.412511 254.54128 
L 107.817226 254.772123 
L 108.22194 251.981225 
L 108.424297 245.961161 
L 108.829012 226.273712 
L 109.031369 221.904544 
L 109.233726 221.496741 
L 109.638441 227.796329 
L 109.840798 234.890822 
L 110.650227 283.520818 
L 110.852584 287.202378 
L 111.459655 291.280435 
L 111.662013 288.45184 
L 112.269084 256.365979 
L 112.673799 247.622233 
L 113.483228 214.401752 
L 114.090299 202.121408 
L 114.292656 202.382336 
L 114.495014 207.98279 
L 114.899728 227.758043 
L 115.304442 263.922237 
L 115.709157 280.170485 
L 115.911514 282.944917 
L 116.113871 287.548183 
L 116.316228 289.339224 
L 116.518586 286.052603 
L 116.9233 273.459752 
L 117.732729 235.717031 
L 118.137443 208.51266 
L 118.744515 184.610791 
L 118.946872 180.95702 
L 119.149229 181.487434 
L 119.351587 185.162847 
L 119.756301 206.438884 
L 120.56573 267.823886 
L 120.970444 283.432894 
L 121.172801 286.002498 
L 121.375159 284.342704 
L 123.196374 218.647615 
L 123.398731 213.297499 
L 123.601088 211.737386 
L 123.803445 214.050542 
L 124.005802 219.27465 
L 124.410517 235.194272 
L 124.612874 239.270884 
L 124.815231 245.911758 
L 125.422303 285.11239 
L 125.62466 290.486424 
L 125.827017 292.301981 
L 126.029374 291.97767 
L 126.231732 286.629511 
L 127.445875 228.107074 
L 127.648232 221.519994 
L 128.255304 192.935455 
L 128.457661 187.459028 
L 128.660018 185.877208 
L 128.862375 188.036742 
L 129.26709 209.82433 
L 130.278876 280.46145 
L 130.481233 281.996722 
L 130.68359 282.367081 
L 130.885947 280.482752 
L 131.088305 275.672136 
L 131.695376 244.453621 
L 131.897733 238.393359 
L 133.111877 171.417069 
L 133.314234 168.301652 
L 133.516591 167.536573 
L 133.921306 181.834833 
L 134.32602 203.41038 
L 135.135449 271.213697 
L 135.337806 275.285136 
L 135.540163 275.969542 
L 135.74252 274.061395 
L 135.944878 268.461891 
L 136.956664 219.287974 
L 137.159021 221.042676 
L 137.361378 213.203925 
L 137.563735 213.187839 
L 137.766092 211.389216 
L 138.373164 217.998521 
L 138.575521 218.399634 
L 138.980236 228.691572 
L 139.587307 257.897364 
L 139.789665 271.117732 
L 140.194379 280.732864 
L 140.396736 281.664482 
L 140.599093 280.842622 
L 140.801451 275.399587 
L 141.003808 265.758152 
L 141.206165 249.796632 
L 141.610879 237.917542 
L 142.015594 230.964612 
L 142.420308 232.917843 
L 142.622665 233.205301 
L 143.02738 228.988409 
L 143.229737 231.299356 
L 143.432094 231.853953 
L 144.039166 242.16756 
L 144.848595 278.694003 
L 145.050952 281.43421 
L 145.253309 281.963184 
L 145.455666 279.679197 
L 145.658024 275.414436 
L 146.265095 240.097559 
L 146.467452 235.608954 
L 146.66981 234.068663 
L 146.872167 230.686404 
L 147.074524 231.723507 
L 147.276881 234.149689 
L 147.479238 227.681539 
L 147.681596 225.021378 
L 147.883953 233.378219 
L 148.08631 235.994329 
L 148.693382 248.68333 
L 148.895739 248.438491 
L 149.300453 272.684238 
L 149.502811 281.413436 
L 149.907525 287.071681 
L 150.312239 288.985229 
L 150.514597 286.086599 
L 150.716954 280.810572 
L 151.324025 259.923563 
L 151.72874 252.594735 
L 151.931097 249.200032 
L 152.335811 252.286129 
L 152.538169 251.993028 
L 152.740526 253.71498 
L 152.942883 252.655874 
L 153.14524 253.17576 
L 153.549955 255.555453 
L 153.752312 254.662641 
L 154.157026 268.581068 
L 154.764098 285.940429 
L 155.168812 292.085829 
L 155.37117 289.727727 
L 155.775884 277.636508 
L 156.180598 258.835796 
L 156.382956 252.774665 
L 157.597099 200.099309 
L 157.799456 196.375192 
L 158.001813 195.114239 
L 158.20417 196.78321 
L 158.608885 208.67761 
L 159.013599 242.835797 
L 159.418314 273.274237 
L 159.823028 284.763609 
L 160.025385 284.092426 
L 160.227743 278.747867 
L 160.632457 254.703356 
L 161.037171 230.777422 
L 161.441886 216.481863 
L 161.8466 204.247313 
L 162.251315 194.81474 
L 162.453672 195.627255 
L 163.060743 216.851714 
L 163.667815 244.139833 
L 164.072529 273.114672 
L 164.274887 282.885924 
L 164.477244 287.261243 
L 164.679601 287.963826 
L 164.881958 286.132204 
L 165.084316 282.136979 
L 165.286673 275.206996 
L 165.691387 250.084355 
L 166.096102 238.526599 
L 166.500816 234.61606 
L 166.90553 216.536033 
L 167.310245 199.667057 
L 167.512602 197.191045 
L 167.714959 199.433258 
L 168.322031 226.769696 
L 169.13146 279.887752 
L 169.333817 280.893185 
L 169.536174 279.48241 
L 169.738531 277.059664 
L 170.143246 263.452768 
L 171.559746 191.298537 
L 171.964461 182.942726 
L 172.166818 181.744302 
L 172.369175 182.490538 
L 172.773889 193.847848 
L 173.178604 218.366333 
L 173.785675 268.748972 
L 174.19039 282.087632 
L 174.392747 284.032746 
L 174.595104 284.329971 
L 174.797461 279.503183 
L 175.404533 242.019553 
L 175.809248 229.665605 
L 176.416319 209.588703 
L 176.821034 198.48895 
L 177.225748 193.421504 
L 177.630462 200.620725 
L 179.046963 285.696699 
L 179.451677 291.183153 
L 179.654034 285.221364 
L 180.463463 242.119583 
L 180.868178 222.782798 
L 181.272892 204.277449 
L 181.677607 189.338971 
L 181.879964 183.384656 
L 182.284678 183.400428 
L 182.689393 202.550374 
L 183.701179 261.672396 
L 184.30825 271.76225 
L 184.510607 270.975006 
L 184.915322 259.12637 
L 185.320036 236.733173 
L 185.927108 190.5952 
L 186.129465 181.115764 
L 186.53418 174.216066 
L 186.736537 175.49375 
L 186.938894 179.79978 
L 188.557752 260.867133 
L 188.962466 269.911387 
L 189.164823 270.682318 
L 189.36718 266.955478 
L 189.569538 259.280736 
L 189.771895 256.043643 
L 190.378966 223.682125 
L 190.986038 190.494487 
L 191.188395 186.281313 
L 191.390752 185.598303 
L 191.59311 188.041855 
L 192.200181 206.111861 
L 193.616682 269.831623 
L 193.819039 273.751571 
L 194.021396 275.28584 
L 194.223753 273.116128 
L 194.830825 252.628465 
L 195.235539 232.905373 
L 195.640254 210.066125 
L 195.842611 207.128766 
L 196.247325 213.187068 
L 196.854397 230.956395 
L 197.259112 238.709705 
L 197.461469 241.518467 
L 197.663826 245.924197 
L 198.473255 281.980977 
L 198.675612 282.650587 
L 199.080326 274.482658 
L 200.092112 223.689451 
L 200.496827 217.238749 
L 201.306256 192.956636 
L 201.508613 192.376752 
L 201.71097 195.129502 
L 202.115684 209.085735 
L 202.318042 216.794795 
L 203.127471 268.919224 
L 203.329828 273.311592 
L 203.532185 272.704212 
L 203.734542 270.984337 
L 203.936899 264.555849 
L 204.543971 237.783686 
L 205.3534 204.395622 
L 205.960471 189.269357 
L 206.162829 189.093368 
L 206.365186 192.619888 
L 206.7699 206.838523 
L 207.376972 234.281682 
L 207.984044 273.787689 
L 208.186401 275.44502 
L 208.388758 275.324998 
L 208.591115 273.742821 
L 208.793472 268.602316 
L 209.198187 245.353994 
L 209.805258 215.648838 
L 210.41233 203.062957 
L 211.221759 172.792894 
L 211.424116 174.139605 
L 212.031188 203.230728 
L 212.638259 254.114467 
L 213.042974 265.707189 
L 213.447688 271.327683 
L 213.650045 266.871446 
L 215.673617 154.553731 
L 215.875975 151.202614 
L 216.078332 150.767248 
L 216.280689 152.041765 
L 216.483046 157.571616 
L 216.887761 185.114502 
L 217.697189 244.699406 
L 218.304261 263.371117 
L 218.506618 262.357088 
L 218.911333 252.25752 
L 219.518404 218.170221 
L 219.923119 193.348275 
L 220.327833 182.486166 
L 220.53019 180.867689 
L 220.732548 182.545169 
L 221.137262 203.382838 
L 221.744334 232.29111 
L 221.946691 237.691967 
L 222.75612 273.511168 
L 222.958477 278.356383 
L 223.160834 280.410573 
L 223.363191 276.214051 
L 223.767906 260.966492 
L 224.17262 245.164016 
L 224.577335 231.482301 
L 224.779692 229.963372 
L 224.982049 231.776251 
L 225.184406 238.26777 
L 225.386763 240.902377 
L 225.589121 241.026721 
L 225.791478 244.106726 
L 225.993835 244.033766 
L 226.398549 249.622644 
L 226.600907 249.06364 
L 226.803264 254.050137 
L 227.612693 292.237598 
L 227.81505 293.478977 
L 228.017407 293.513405 
L 228.219764 287.50108 
L 229.029193 249.275125 
L 229.23155 246.70607 
L 229.433908 247.54047 
L 229.636265 247.557684 
L 229.838622 242.293648 
L 230.243336 222.478307 
L 230.445694 216.40798 
L 230.648051 214.809701 
L 230.850408 214.341479 
L 231.052765 215.07276 
L 231.659837 238.925513 
L 232.064551 271.127063 
L 232.469266 284.422321 
L 232.671623 284.87469 
L 232.87398 284.021975 
L 233.076337 282.044795 
L 234.088123 240.30787 
L 235.302267 200.076534 
L 235.504624 199.887566 
L 235.909338 212.153484 
L 236.51641 245.714598 
L 236.921124 276.046984 
L 237.123481 284.493785 
L 237.325839 287.157206 
L 237.528196 286.133819 
L 237.730553 285.794311 
L 237.93291 280.733482 
L 239.147053 231.073929 
L 239.349411 228.914183 
L 239.551768 225.446141 
L 239.754125 218.860031 
L 239.956482 217.149434 
L 240.15884 214.159708 
L 240.361197 214.097994 
L 240.563554 216.192989 
L 240.765911 220.915851 
L 242.182412 290.293028 
L 242.384769 292.412817 
L 242.587126 291.093522 
L 242.789483 286.160095 
L 243.396555 254.366725 
L 244.003626 239.334176 
L 244.610698 214.826037 
L 245.015413 205.759225 
L 245.21777 204.250582 
L 245.420127 206.549989 
L 245.824841 218.361572 
L 246.027199 226.715427 
L 246.63427 271.975465 
L 247.038985 284.839601 
L 247.241342 288.238983 
L 247.443699 287.54709 
L 247.646056 282.946495 
L 248.860199 216.981831 
L 249.467271 185.307674 
L 249.871985 173.813342 
L 250.074343 175.359848 
L 250.2767 180.06962 
L 250.681414 199.324289 
L 251.6932 264.125799 
L 252.097915 272.601246 
L 252.300272 274.114283 
L 252.502629 272.075375 
L 252.907344 260.586247 
L 253.312058 239.35682 
L 253.91913 192.764869 
L 254.323844 181.3433 
L 254.728558 176.187199 
L 254.930916 176.422403 
L 255.133273 179.670363 
L 255.537987 197.129946 
L 256.954488 276.687092 
L 257.156845 277.350869 
L 257.359202 275.475285 
L 257.966274 254.105698 
L 259.180417 196.559353 
L 259.382774 192.424719 
L 259.585131 192.525389 
L 259.787489 194.795516 
L 260.192203 204.911471 
L 260.799275 232.972554 
L 261.203989 257.217159 
L 261.406346 269.853863 
L 261.811061 279.901423 
L 262.013418 280.693034 
L 262.215775 275.969516 
L 262.822847 241.568607 
L 263.025204 233.839414 
L 263.227561 230.885563 
L 264.03699 239.843503 
L 264.441704 243.525593 
L 264.644062 243.395825 
L 264.846419 243.662586 
L 265.048776 246.935899 
L 265.251133 252.247093 
L 265.45349 254.601612 
L 265.655848 259.649828 
L 266.262919 286.000301 
L 266.465277 286.335624 
L 266.667634 285.656176 
L 266.869991 283.631254 
L 267.477063 264.808267 
L 267.881777 251.189428 
L 268.488849 242.806486 
L 268.691206 242.107871 
L 269.298277 232.955375 
L 269.500635 233.121663 
L 269.702992 232.370753 
L 269.905349 234.443141 
L 270.310063 244.231469 
L 270.512421 252.224067 
L 270.917135 276.323607 
L 271.119492 283.090309 
L 271.32185 284.950548 
L 271.524207 283.730652 
L 271.928921 275.068242 
L 273.952493 189.360302 
L 274.15485 186.061694 
L 274.357208 180.60157 
L 274.559565 178.43688 
L 274.761922 182.263113 
L 275.166636 197.330641 
L 275.368994 209.019648 
L 275.976065 261.650429 
L 276.178422 267.718171 
L 276.583137 269.721523 
L 276.785494 266.273898 
L 278.201995 187.937087 
L 279.011423 171.2698 
L 279.213781 170.5369 
L 279.416138 173.18449 
L 279.820852 188.906722 
L 281.034995 272.067606 
L 281.43971 276.957279 
L 281.642067 273.208077 
L 282.249139 240.971708 
L 282.85621 212.69099 
L 283.867996 186.266703 
L 284.070354 184.283061 
L 284.272711 187.045043 
L 284.677425 207.584524 
L 285.486854 263.162821 
L 285.891568 278.607428 
L 286.296283 287.827877 
L 286.903354 270.863573 
L 287.308069 248.730395 
L 287.712783 229.775807 
L 288.117498 207.538755 
L 288.724569 186.621018 
L 288.926927 184.145102 
L 289.129284 187.301633 
L 289.331641 192.405353 
L 289.938713 223.862956 
L 290.545784 264.232254 
L 290.748141 274.676822 
L 290.950499 278.265388 
L 291.152856 279.244588 
L 291.355213 277.538229 
L 291.759927 264.248063 
L 291.962285 256.017818 
L 292.974071 185.04179 
L 293.378785 171.729187 
L 293.581142 169.489317 
L 293.7835 171.049441 
L 294.188214 181.608832 
L 294.795286 206.646073 
L 295.402357 250.389931 
L 295.807072 263.153986 
L 296.009429 264.539085 
L 296.211786 259.788577 
L 297.021215 206.72371 
L 298.033001 136.446018 
L 298.235358 132.692327 
L 298.437715 132.50302 
L 298.640073 136.406455 
L 299.247144 155.398667 
L 299.651859 183.439474 
L 300.056573 223.553246 
L 300.461287 241.964479 
L 300.663645 243.347336 
L 300.866002 242.459619 
L 301.270716 234.873854 
L 301.473073 226.459635 
L 301.877788 187.1836 
L 302.484859 127.338633 
L 302.687217 117.969113 
L 302.889574 114.436992 
L 303.091931 117.706525 
L 303.699003 142.872439 
L 304.306074 183.234262 
L 304.913146 233.697364 
L 305.31786 249.362303 
L 305.520218 250.988356 
L 305.722575 248.003943 
L 306.329646 228.654925 
L 307.54379 155.403791 
L 307.948504 148.05496 
L 308.150861 148.784272 
L 308.757933 173.639157 
L 309.365005 214.352838 
L 309.972076 254.065039 
L 310.376791 266.336908 
L 310.579148 266.459904 
L 310.781505 259.997939 
L 311.590934 213.7105 
L 312.400363 157.252535 
L 312.60272 150.467426 
L 313.007434 146.963021 
L 313.209791 149.82792 
L 313.614506 168.217332 
L 314.828649 247.850017 
L 315.233364 255.087008 
L 315.435721 254.275234 
L 315.840435 245.230375 
L 316.24515 229.217519 
L 316.852221 201.536683 
L 317.054578 198.214114 
L 317.459293 195.973609 
L 317.66165 193.653815 
L 318.268722 201.190996 
L 318.471079 205.77199 
L 319.280508 239.491047 
L 320.089937 272.108487 
L 320.292294 275.048551 
L 320.494651 273.766911 
L 321.506437 236.818425 
L 322.113509 206.056445 
L 322.315866 200.386127 
L 322.72058 184.946646 
L 322.922937 183.548219 
L 323.125295 185.500622 
L 323.327652 191.058745 
L 323.934723 221.260756 
L 324.339438 243.788237 
L 324.744152 261.053851 
L 325.148867 269.072801 
L 325.351224 268.71385 
L 325.755938 259.808737 
L 326.160653 241.07931 
L 326.970082 179.087344 
L 327.374796 165.549907 
L 327.577153 164.863736 
L 327.77951 165.490227 
L 327.981868 167.875308 
L 328.184225 173.044152 
L 328.588939 195.852669 
L 329.600725 271.369833 
L 329.803083 275.750212 
L 330.00544 276.677292 
L 330.207797 270.674293 
L 331.826655 176.280824 
L 332.029012 171.990139 
L 332.231369 170.602611 
L 332.433726 172.265903 
L 332.838441 184.284837 
L 333.040798 192.415825 
L 333.850227 239.141738 
L 334.457298 270.212603 
L 334.862013 274.910746 
L 335.06437 268.389168 
L 335.671442 236.818437 
L 335.873799 233.215783 
L 336.076156 227.195805 
L 336.48087 210.568196 
L 336.885585 201.71588 
L 337.087942 201.088518 
L 337.290299 197.517518 
L 337.492656 198.924988 
L 337.897371 212.084313 
L 338.302085 231.463968 
L 338.504442 237.162405 
L 339.111514 271.746499 
L 339.313871 276.10226 
L 339.516228 276.185327 
L 339.718586 273.128455 
L 340.1233 255.685388 
L 340.528015 236.644964 
L 340.932729 223.35805 
L 341.742158 195.994505 
L 342.146872 184.346362 
L 342.349229 182.135567 
L 342.551587 182.174885 
L 342.753944 185.652834 
L 343.158658 199.640171 
L 343.361015 209.85343 
L 343.76573 241.536951 
L 344.170444 253.442497 
L 344.575159 258.963459 
L 344.777516 255.269212 
L 345.384587 226.943492 
L 346.194016 161.161909 
L 346.598731 147.235351 
L 346.801088 143.602354 
L 347.003445 142.787437 
L 347.205802 144.335473 
L 347.610517 153.053715 
L 347.812874 162.115745 
L 348.419946 214.780211 
L 348.82466 242.440049 
L 349.027017 249.60234 
L 349.431732 254.545634 
L 349.634089 250.08684 
L 350.24116 223.696726 
L 350.848232 170.025009 
L 351.252947 153.254959 
L 351.657661 145.187362 
L 352.062375 141.866638 
L 352.264733 143.961014 
L 352.46709 148.515968 
L 352.669447 158.084461 
L 353.681233 244.214368 
L 354.288305 263.939924 
L 354.490662 263.191195 
L 355.097733 237.959345 
L 355.300091 227.047343 
L 356.109519 155.658739 
L 356.514234 145.041512 
L 356.716591 142.045589 
L 356.918948 141.640829 
L 357.323663 154.91253 
L 357.930734 196.16171 
L 358.740163 255.084773 
L 358.94252 260.64993 
L 359.144878 262.186526 
L 359.751949 249.089175 
L 359.954306 241.201908 
L 361.16845 142.402106 
L 361.370807 139.054279 
L 361.573164 138.134866 
L 361.775521 139.95824 
L 362.180236 150.545092 
L 362.382593 157.85782 
L 362.989665 200.359859 
L 363.596736 246.132856 
L 363.799093 250.862653 
L 364.001451 251.61004 
L 364.406165 241.840937 
L 364.608522 231.323376 
L 365.822665 112.534076 
L 366.025023 108.065917 
L 366.22738 107.73591 
L 366.429737 111.038298 
L 366.632094 116.770316 
L 367.441523 156.60711 
L 367.846238 193.766477 
L 368.250952 227.26855 
L 368.655666 238.500649 
L 368.858024 238.05362 
L 369.060381 236.128248 
L 369.262738 231.188797 
L 369.465095 221.789946 
L 369.86981 181.297963 
L 370.476881 121.255378 
L 370.881596 107.319121 
L 371.083953 106.383509 
L 371.28631 110.125273 
L 371.691024 125.530104 
L 372.095739 148.718076 
L 372.702811 199.975365 
L 373.107525 233.075549 
L 373.512239 245.143805 
L 373.714597 244.488356 
L 374.524025 227.553305 
L 374.726383 214.036858 
L 375.333454 149.386412 
L 375.738169 136.341916 
L 375.940526 133.649884 
L 376.142883 133.44984 
L 376.34524 136.896761 
L 376.749955 159.461933 
L 377.761741 238.689021 
L 378.166455 261.876158 
L 378.368812 265.574026 
L 378.57117 264.395828 
L 379.178241 238.899894 
L 379.380598 224.301619 
L 379.98767 163.376372 
L 380.392384 138.494422 
L 380.797099 125.566372 
L 380.999456 125.639132 
L 381.201813 127.183697 
L 381.40417 131.523164 
L 381.808885 149.771087 
L 382.415956 198.080569 
L 382.820671 234.772126 
L 383.225385 247.889759 
L 383.427743 250.568245 
L 383.6301 248.438312 
L 383.832457 244.172309 
L 384.237171 220.265256 
L 384.237171 220.265256 
" clip-path="url(#pa6908a76c7)" style="fill: none; stroke: #ff7f0e; stroke-width: 1.5; stroke-linecap: square"/>
   </g>
   <g id="line2d_16">
    <path d="M 384.439529 199.229737 
L 384.844243 170.251884 
L 385.653672 103.719806 
L 386.058386 85.271497 
L 386.260743 87.780147 
L 386.463101 95.431556 
L 386.867815 125.248586 
L 387.879601 225.814385 
L 388.284316 245.616767 
L 388.486673 249.608067 
L 388.68903 250.612471 
L 388.891387 250.270404 
L 389.093744 247.581305 
L 389.296102 242.448974 
L 389.700816 217.098003 
L 390.510245 145.625512 
L 390.914959 128.76484 
L 391.117316 129.089503 
L 391.319674 135.061086 
L 391.724388 164.129513 
L 392.533817 236.503368 
L 393.140888 272.483457 
L 393.343246 277.387084 
L 393.545603 278.035361 
L 393.74796 275.684362 
L 393.950317 268.097514 
L 394.557389 222.675053 
L 395.569175 136.314638 
L 395.771532 128.142897 
L 395.973889 126.220125 
L 396.176247 129.057991 
L 396.378604 135.86784 
L 397.39039 200.733774 
L 397.997461 261.814067 
L 398.199819 266.172001 
L 398.402176 264.805446 
L 399.009248 248.115147 
L 399.211605 237.490651 
L 399.616319 197.130681 
L 400.223391 119.223161 
L 400.628105 90.083974 
L 401.03282 76.892561 
L 401.235177 77.144273 
L 401.437534 83.463756 
L 401.842248 109.636054 
L 403.056392 215.746741 
L 403.461106 225.751525 
L 403.663463 224.976173 
L 403.86582 218.249567 
L 404.270535 187.704554 
L 405.079964 98.552487 
L 405.484678 77.812241 
L 405.687035 76.659981 
L 405.889393 81.210658 
L 406.294107 105.197924 
L 406.901179 171.724895 
L 407.50825 238.093596 
L 407.912965 251.367526 
L 408.115322 255.237918 
L 408.317679 254.382971 
L 408.722393 237.129304 
L 409.127108 216.949327 
L 410.138894 147.322406 
L 410.341251 143.788205 
L 410.543608 144.507019 
L 410.745966 148.116603 
L 410.948323 156.369571 
L 411.353037 189.198994 
L 411.757752 231.489091 
L 412.769538 270.468511 
L 412.971895 270.49275 
L 413.376609 254.768654 
L 415.197824 169.646599 
L 415.400181 164.717214 
L 415.602539 162.797747 
L 415.804896 163.631875 
L 416.007253 170.311848 
L 416.614325 208.921388 
L 417.221396 261.488076 
L 417.423753 264.785539 
L 417.626111 263.029351 
L 418.030825 255.284725 
L 418.637897 236.339577 
L 419.042611 201.460425 
L 420.054397 84.496282 
L 420.459112 59.048407 
L 420.661469 57.151185 
L 420.863826 61.985086 
L 421.26854 88.042607 
L 422.077969 161.866342 
L 422.685041 195.174656 
L 422.887398 198.763045 
L 423.089755 197.150615 
L 423.292112 190.916331 
L 423.696827 163.759112 
L 424.708613 76.416683 
L 424.91097 69.945387 
L 425.113327 70.969179 
L 425.315684 78.078295 
L 425.720399 103.615929 
L 426.327471 161.642799 
L 426.934542 224.492069 
L 427.339257 243.341497 
L 427.541614 247.164918 
L 427.743971 245.432035 
L 429.565186 165.98193 
L 429.767543 167.232272 
L 429.9699 170.810771 
L 430.172257 176.797753 
L 430.576972 202.49249 
L 430.981686 232.317974 
L 431.386401 242.235961 
L 431.791115 261.024029 
L 432.19583 275.493227 
L 432.398187 274.214012 
L 432.802901 253.512589 
L 433.207616 234.022848 
L 433.814687 222.613508 
L 434.219402 219.167998 
L 434.624116 214.458004 
L 434.826473 216.685147 
L 435.02883 223.427701 
L 436.242974 285.97185 
L 436.445331 287.472656 
L 436.850045 273.625054 
L 437.659474 244.467402 
L 438.064189 219.273648 
L 438.67126 150.724662 
L 439.278332 91.338682 
L 439.683046 71.040798 
L 439.885403 67.078024 
L 440.087761 67.072447 
L 440.290118 71.15872 
L 440.694832 89.627024 
L 441.301904 121.552048 
L 441.908976 142.994659 
L 442.111333 145.864037 
L 442.31369 144.828334 
L 442.516047 140.895739 
L 442.920762 124.645242 
L 443.73019 82.105149 
L 443.932548 76.955681 
L 444.134905 76.954252 
L 444.337262 81.985798 
L 444.741976 102.53244 
L 445.551405 161.593537 
L 446.158477 204.79624 
L 446.360834 210.430754 
L 446.563191 212.845766 
L 446.765549 213.170022 
L 446.967906 212.531567 
L 447.170263 210.113819 
L 447.574977 197.47153 
L 448.384406 171.818065 
L 448.586763 170.060835 
L 448.789121 170.364656 
L 448.991478 173.392335 
L 449.396192 188.457343 
L 450.205621 237.621311 
L 451.01505 258.937098 
L 451.217407 261.170671 
L 451.419764 261.307148 
L 451.622121 258.661619 
L 452.43155 238.40566 
L 452.633908 236.73726 
L 452.836265 236.564088 
L 453.038622 238.099344 
L 453.848051 254.420653 
L 454.455122 274.286676 
L 455.062194 296.929935 
L 455.264551 300.894047 
L 455.466908 300.9532 
L 455.669266 296.698303 
L 457.288123 222.010974 
L 458.299909 147.771838 
L 459.311695 90.074653 
L 459.71641 84.272264 
L 459.918767 83.341782 
L 460.121124 83.7298 
L 460.525839 89.054114 
L 461.335267 103.253557 
L 461.537625 103.899109 
L 461.739982 103.294784 
L 462.144696 100.194392 
L 462.549411 97.485485 
L 462.954125 96.1788 
L 463.156482 97.142991 
L 463.561197 104.519004 
L 463.965911 116.454365 
L 465.382412 171.545154 
L 465.787126 178.531224 
L 465.989483 179.360223 
L 466.19184 178.305543 
L 467.203626 167.204866 
L 467.405984 167.929939 
L 468.013055 177.751509 
L 468.41777 190.942007 
L 469.024841 221.19006 
L 469.429556 236.954775 
L 470.441342 253.062144 
L 470.643699 254.580849 
L 470.846056 254.789676 
L 471.453128 253.309019 
L 471.655485 253.079697 
L 471.857842 252.180926 
L 472.262557 249.106517 
L 472.464914 249.996415 
L 472.869628 256.508063 
L 473.4767 278.316164 
L 473.881414 289.409158 
L 474.286129 295.282105 
L 474.488486 295.766856 
L 474.690843 293.978006 
L 475.095558 283.043313 
L 476.714415 227.872797 
L 477.726201 174.494288 
L 478.53563 130.413144 
L 479.142702 90.677251 
L 479.547416 75.59911 
L 479.952131 70.179066 
L 480.154488 70.31629 
L 480.559202 73.502068 
L 480.963917 80.532527 
L 481.773345 99.053372 
L 482.987489 119.235243 
L 483.796917 128.620386 
L 485.213418 155.510063 
L 485.82049 162.945608 
L 486.427561 169.544231 
L 486.832276 177.737726 
L 488.248776 211.96424 
L 488.855848 232.565104 
L 489.260562 239.084956 
L 490.069991 247.245478 
L 491.081777 260.675243 
L 491.891206 267.190575 
L 492.093563 267.834056 
L 492.29592 267.871415 
L 492.498277 268.340991 
L 492.902992 272.651068 
L 493.307706 277.871691 
L 493.510063 279.254362 
L 493.712421 279.369148 
L 493.914778 278.394021 
L 495.128921 267.519326 
L 495.735993 255.548172 
L 496.140707 247.191569 
L 496.343064 244.104257 
L 496.747779 231.783038 
L 497.35485 198.36279 
L 497.961922 155.385321 
L 498.973708 68.696597 
L 499.378422 56.986044 
L 499.58078 55.8 
L 499.783137 56.776071 
L 499.985494 59.419406 
L 500.390209 70.670887 
L 501.604352 114.612553 
L 502.009066 122.009905 
L 502.211423 123.888955 
L 502.413781 124.281825 
L 502.616138 123.591101 
L 503.020852 119.920359 
L 503.223209 118.201438 
L 503.425567 118.012772 
L 503.627924 119.936163 
L 504.032638 128.045738 
L 504.63971 145.815783 
L 505.853853 181.711718 
L 506.460925 194.315987 
L 506.865639 197.700051 
L 507.675068 202.192201 
L 508.079782 206.922933 
L 508.484497 215.875189 
L 509.496283 242.036823 
L 510.508069 261.650186 
L 510.710426 261.395411 
L 511.115141 259.383368 
L 511.317498 258.708519 
L 511.924569 253.031616 
L 512.126927 252.97623 
L 512.329284 254.144344 
L 512.733998 260.814832 
L 513.34107 273.429818 
L 513.948141 280.183388 
L 514.352856 283.020386 
L 514.555213 282.738586 
L 514.75757 280.513378 
L 515.162285 272.332349 
L 515.769356 255.746551 
L 516.376428 233.67215 
L 517.185857 177.952658 
L 517.995286 111.403048 
L 518.4 78.47894 
L 518.4 78.47894 
" clip-path="url(#pa6908a76c7)" style="fill: none; stroke: #2ca02c; stroke-width: 1.5; stroke-linecap: square"/>
   </g>
   <g id="patch_3">
    <path d="M 72 320.4 
L 72 43.2 
" style="fill: none; stroke: #000000; stroke-width: 0.8; stroke-linejoin: miter; stroke-linecap: square"/>
   </g>
   <g id="patch_4">
    <path d="M 518.4 320.4 
L 518.4 43.2 
" style="fill: none; stroke: #000000; stroke-width: 0.8; stroke-linejoin: miter; stroke-linecap: square"/>
   </g>
   <g id="patch_5">
    <path d="M 72 320.4 
L 518.4 320.4 
" style="fill: none; stroke: #000000; stroke-width: 0.8; stroke-linejoin: miter; stroke-linecap: square"/>
   </g>
   <g id="patch_6">
    <path d="M 72 43.2 
L 518.4 43.2 
" style="fill: none; stroke: #000000; stroke-width: 0.8; stroke-linejoin: miter; stroke-linecap: square"/>
   </g>
   <g id="text_14">
    <!-- Classic Transformer - model_20231126162730 -->
    <g transform="translate(155.436563 37.2) scale(0.12 -0.12)">
     <defs>
      <path id="DejaVuSans-43" d="M 4122 4306 
L 4122 3641 
Q 3803 3938 3442 4084 
Q 3081 4231 2675 4231 
Q 1875 4231 1450 3742 
Q 1025 3253 1025 2328 
Q 1025 1406 1450 917 
Q 1875 428 2675 428 
Q 3081 428 3442 575 
Q 3803 722 4122 1019 
L 4122 359 
Q 3791 134 3420 21 
Q 3050 -91 2638 -91 
Q 1578 -91 968 557 
Q 359 1206 359 2328 
Q 359 3453 968 4101 
Q 1578 4750 2638 4750 
Q 3056 4750 3426 4639 
Q 3797 4528 4122 4306 
z
" transform="scale(0.015625)"/>
      <path id="DejaVuSans-6c" d="M 603 4863 
L 1178 4863 
L 1178 0 
L 603 0 
L 603 4863 
z
" transform="scale(0.015625)"/>
      <path id="DejaVuSans-61" d="M 2194 1759 
Q 1497 1759 1228 1600 
Q 959 1441 959 1056 
Q 959 750 1161 570 
Q 1363 391 1709 391 
Q 2188 391 2477 730 
Q 2766 1069 2766 1631 
L 2766 1759 
L 2194 1759 
z
M 3341 1997 
L 3341 0 
L 2766 0 
L 2766 531 
Q 2569 213 2275 61 
Q 1981 -91 1556 -91 
Q 1019 -91 701 211 
Q 384 513 384 1019 
Q 384 1609 779 1909 
Q 1175 2209 1959 2209 
L 2766 2209 
L 2766 2266 
Q 2766 2663 2505 2880 
Q 2244 3097 1772 3097 
Q 1472 3097 1187 3025 
Q 903 2953 641 2809 
L 641 3341 
Q 956 3463 1253 3523 
Q 1550 3584 1831 3584 
Q 2591 3584 2966 3190 
Q 3341 2797 3341 1997 
z
" transform="scale(0.015625)"/>
      <path id="DejaVuSans-73" d="M 2834 3397 
L 2834 2853 
Q 2591 2978 2328 3040 
Q 2066 3103 1784 3103 
Q 1356 3103 1142 2972 
Q 928 2841 928 2578 
Q 928 2378 1081 2264 
Q 1234 2150 1697 2047 
L 1894 2003 
Q 2506 1872 2764 1633 
Q 3022 1394 3022 966 
Q 3022 478 2636 193 
Q 2250 -91 1575 -91 
Q 1294 -91 989 -36 
Q 684 19 347 128 
L 347 722 
Q 666 556 975 473 
Q 1284 391 1588 391 
Q 1994 391 2212 530 
Q 2431 669 2431 922 
Q 2431 1156 2273 1281 
Q 2116 1406 1581 1522 
L 1381 1569 
Q 847 1681 609 1914 
Q 372 2147 372 2553 
Q 372 3047 722 3315 
Q 1072 3584 1716 3584 
Q 2034 3584 2315 3537 
Q 2597 3491 2834 3397 
z
" transform="scale(0.015625)"/>
      <path id="DejaVuSans-69" d="M 603 3500 
L 1178 3500 
L 1178 0 
L 603 0 
L 603 3500 
z
M 603 4863 
L 1178 4863 
L 1178 4134 
L 603 4134 
L 603 4863 
z
" transform="scale(0.015625)"/>
      <path id="DejaVuSans-63" d="M 3122 3366 
L 3122 2828 
Q 2878 2963 2633 3030 
Q 2388 3097 2138 3097 
Q 1578 3097 1268 2742 
Q 959 2388 959 1747 
Q 959 1106 1268 751 
Q 1578 397 2138 397 
Q 2388 397 2633 464 
Q 2878 531 3122 666 
L 3122 134 
Q 2881 22 2623 -34 
Q 2366 -91 2075 -91 
Q 1284 -91 818 406 
Q 353 903 353 1747 
Q 353 2603 823 3093 
Q 1294 3584 2113 3584 
Q 2378 3584 2631 3529 
Q 2884 3475 3122 3366 
z
" transform="scale(0.015625)"/>
      <path id="DejaVuSans-20" transform="scale(0.015625)"/>
      <path id="DejaVuSans-54" d="M -19 4666 
L 3928 4666 
L 3928 4134 
L 2272 4134 
L 2272 0 
L 1638 0 
L 1638 4134 
L -19 4134 
L -19 4666 
z
" transform="scale(0.015625)"/>
      <path id="DejaVuSans-72" d="M 2631 2963 
Q 2534 3019 2420 3045 
Q 2306 3072 2169 3072 
Q 1681 3072 1420 2755 
Q 1159 2438 1159 1844 
L 1159 0 
L 581 0 
L 581 3500 
L 1159 3500 
L 1159 2956 
Q 1341 3275 1631 3429 
Q 1922 3584 2338 3584 
Q 2397 3584 2469 3576 
Q 2541 3569 2628 3553 
L 2631 2963 
z
" transform="scale(0.015625)"/>
      <path id="DejaVuSans-6e" d="M 3513 2113 
L 3513 0 
L 2938 0 
L 2938 2094 
Q 2938 2591 2744 2837 
Q 2550 3084 2163 3084 
Q 1697 3084 1428 2787 
Q 1159 2491 1159 1978 
L 1159 0 
L 581 0 
L 581 3500 
L 1159 3500 
L 1159 2956 
Q 1366 3272 1645 3428 
Q 1925 3584 2291 3584 
Q 2894 3584 3203 3211 
Q 3513 2838 3513 2113 
z
" transform="scale(0.015625)"/>
      <path id="DejaVuSans-66" d="M 2375 4863 
L 2375 4384 
L 1825 4384 
Q 1516 4384 1395 4259 
Q 1275 4134 1275 3809 
L 1275 3500 
L 2222 3500 
L 2222 3053 
L 1275 3053 
L 1275 0 
L 697 0 
L 697 3053 
L 147 3053 
L 147 3500 
L 697 3500 
L 697 3744 
Q 697 4328 969 4595 
Q 1241 4863 1831 4863 
L 2375 4863 
z
" transform="scale(0.015625)"/>
      <path id="DejaVuSans-6f" d="M 1959 3097 
Q 1497 3097 1228 2736 
Q 959 2375 959 1747 
Q 959 1119 1226 758 
Q 1494 397 1959 397 
Q 2419 397 2687 759 
Q 2956 1122 2956 1747 
Q 2956 2369 2687 2733 
Q 2419 3097 1959 3097 
z
M 1959 3584 
Q 2709 3584 3137 3096 
Q 3566 2609 3566 1747 
Q 3566 888 3137 398 
Q 2709 -91 1959 -91 
Q 1206 -91 779 398 
Q 353 888 353 1747 
Q 353 2609 779 3096 
Q 1206 3584 1959 3584 
z
" transform="scale(0.015625)"/>
      <path id="DejaVuSans-6d" d="M 3328 2828 
Q 3544 3216 3844 3400 
Q 4144 3584 4550 3584 
Q 5097 3584 5394 3201 
Q 5691 2819 5691 2113 
L 5691 0 
L 5113 0 
L 5113 2094 
Q 5113 2597 4934 2840 
Q 4756 3084 4391 3084 
Q 3944 3084 3684 2787 
Q 3425 2491 3425 1978 
L 3425 0 
L 2847 0 
L 2847 2094 
Q 2847 2600 2669 2842 
Q 2491 3084 2119 3084 
Q 1678 3084 1418 2786 
Q 1159 2488 1159 1978 
L 1159 0 
L 581 0 
L 581 3500 
L 1159 3500 
L 1159 2956 
Q 1356 3278 1631 3431 
Q 1906 3584 2284 3584 
Q 2666 3584 2933 3390 
Q 3200 3197 3328 2828 
z
" transform="scale(0.015625)"/>
      <path id="DejaVuSans-65" d="M 3597 1894 
L 3597 1613 
L 953 1613 
Q 991 1019 1311 708 
Q 1631 397 2203 397 
Q 2534 397 2845 478 
Q 3156 559 3463 722 
L 3463 178 
Q 3153 47 2828 -22 
Q 2503 -91 2169 -91 
Q 1331 -91 842 396 
Q 353 884 353 1716 
Q 353 2575 817 3079 
Q 1281 3584 2069 3584 
Q 2775 3584 3186 3129 
Q 3597 2675 3597 1894 
z
M 3022 2063 
Q 3016 2534 2758 2815 
Q 2500 3097 2075 3097 
Q 1594 3097 1305 2825 
Q 1016 2553 972 2059 
L 3022 2063 
z
" transform="scale(0.015625)"/>
      <path id="DejaVuSans-64" d="M 2906 2969 
L 2906 4863 
L 3481 4863 
L 3481 0 
L 2906 0 
L 2906 525 
Q 2725 213 2448 61 
Q 2172 -91 1784 -91 
Q 1150 -91 751 415 
Q 353 922 353 1747 
Q 353 2572 751 3078 
Q 1150 3584 1784 3584 
Q 2172 3584 2448 3432 
Q 2725 3281 2906 2969 
z
M 947 1747 
Q 947 1113 1208 752 
Q 1469 391 1925 391 
Q 2381 391 2643 752 
Q 2906 1113 2906 1747 
Q 2906 2381 2643 2742 
Q 2381 3103 1925 3103 
Q 1469 3103 1208 2742 
Q 947 2381 947 1747 
z
" transform="scale(0.015625)"/>
      <path id="DejaVuSans-5f" d="M 3263 -1063 
L 3263 -1509 
L -63 -1509 
L -63 -1063 
L 3263 -1063 
z
" transform="scale(0.015625)"/>
     </defs>
     <use xlink:href="#DejaVuSans-43"/>
     <use xlink:href="#DejaVuSans-6c" x="69.824219"/>
     <use xlink:href="#DejaVuSans-61" x="97.607422"/>
     <use xlink:href="#DejaVuSans-73" x="158.886719"/>
     <use xlink:href="#DejaVuSans-73" x="210.986328"/>
     <use xlink:href="#DejaVuSans-69" x="263.085938"/>
     <use xlink:href="#DejaVuSans-63" x="290.869141"/>
     <use xlink:href="#DejaVuSans-20" x="345.849609"/>
     <use xlink:href="#DejaVuSans-54" x="377.636719"/>
     <use xlink:href="#DejaVuSans-72" x="423.970703"/>
     <use xlink:href="#DejaVuSans-61" x="465.083984"/>
     <use xlink:href="#DejaVuSans-6e" x="526.363281"/>
     <use xlink:href="#DejaVuSans-73" x="589.742188"/>
     <use xlink:href="#DejaVuSans-66" x="641.841797"/>
     <use xlink:href="#DejaVuSans-6f" x="677.046875"/>
     <use xlink:href="#DejaVuSans-72" x="738.228516"/>
     <use xlink:href="#DejaVuSans-6d" x="777.591797"/>
     <use xlink:href="#DejaVuSans-65" x="875.003906"/>
     <use xlink:href="#DejaVuSans-72" x="936.527344"/>
     <use xlink:href="#DejaVuSans-20" x="977.640625"/>
     <use xlink:href="#DejaVuSans-2d" x="1009.427734"/>
     <use xlink:href="#DejaVuSans-20" x="1045.511719"/>
     <use xlink:href="#DejaVuSans-6d" x="1077.298828"/>
     <use xlink:href="#DejaVuSans-6f" x="1174.710938"/>
     <use xlink:href="#DejaVuSans-64" x="1235.892578"/>
     <use xlink:href="#DejaVuSans-65" x="1299.369141"/>
     <use xlink:href="#DejaVuSans-6c" x="1360.892578"/>
     <use xlink:href="#DejaVuSans-5f" x="1388.675781"/>
     <use xlink:href="#DejaVuSans-32" x="1438.675781"/>
     <use xlink:href="#DejaVuSans-30" x="1502.298828"/>
     <use xlink:href="#DejaVuSans-32" x="1565.921875"/>
     <use xlink:href="#DejaVuSans-33" x="1629.544922"/>
     <use xlink:href="#DejaVuSans-31" x="1693.167969"/>
     <use xlink:href="#DejaVuSans-31" x="1756.791016"/>
     <use xlink:href="#DejaVuSans-32" x="1820.414062"/>
     <use xlink:href="#DejaVuSans-36" x="1884.037109"/>
     <use xlink:href="#DejaVuSans-31" x="1947.660156"/>
     <use xlink:href="#DejaVuSans-36" x="2011.283203"/>
     <use xlink:href="#DejaVuSans-32" x="2074.90625"/>
     <use xlink:href="#DejaVuSans-37" x="2138.529297"/>
     <use xlink:href="#DejaVuSans-33" x="2202.152344"/>
     <use xlink:href="#DejaVuSans-30" x="2265.775391"/>
    </g>
   </g>
   <g id="legend_1">
    <g id="patch_7">
     <path d="M 79 95.234375 
L 161.517188 95.234375 
Q 163.517188 95.234375 163.517188 93.234375 
L 163.517188 50.2 
Q 163.517188 48.2 161.517188 48.2 
L 79 48.2 
Q 77 48.2 77 50.2 
L 77 93.234375 
Q 77 95.234375 79 95.234375 
z
" style="fill: #ffffff; opacity: 0.8; stroke: #cccccc; stroke-linejoin: miter"/>
    </g>
    <g id="line2d_17">
     <path d="M 81 56.298437 
L 91 56.298437 
L 101 56.298437 
" style="fill: none; stroke: #1f77b4; stroke-width: 1.5; stroke-linecap: square"/>
    </g>
    <g id="text_15">
     <!-- Measured -->
     <g transform="translate(109 59.798437) scale(0.1 -0.1)">
      <defs>
       <path id="DejaVuSans-4d" d="M 628 4666 
L 1569 4666 
L 2759 1491 
L 3956 4666 
L 4897 4666 
L 4897 0 
L 4281 0 
L 4281 4097 
L 3078 897 
L 2444 897 
L 1241 4097 
L 1241 0 
L 628 0 
L 628 4666 
z
" transform="scale(0.015625)"/>
       <path id="DejaVuSans-75" d="M 544 1381 
L 544 3500 
L 1119 3500 
L 1119 1403 
Q 1119 906 1312 657 
Q 1506 409 1894 409 
Q 2359 409 2629 706 
Q 2900 1003 2900 1516 
L 2900 3500 
L 3475 3500 
L 3475 0 
L 2900 0 
L 2900 538 
Q 2691 219 2414 64 
Q 2138 -91 1772 -91 
Q 1169 -91 856 284 
Q 544 659 544 1381 
z
M 1991 3584 
L 1991 3584 
z
" transform="scale(0.015625)"/>
      </defs>
      <use xlink:href="#DejaVuSans-4d"/>
      <use xlink:href="#DejaVuSans-65" x="86.279297"/>
      <use xlink:href="#DejaVuSans-61" x="147.802734"/>
      <use xlink:href="#DejaVuSans-73" x="209.082031"/>
      <use xlink:href="#DejaVuSans-75" x="261.181641"/>
      <use xlink:href="#DejaVuSans-72" x="324.560547"/>
      <use xlink:href="#DejaVuSans-65" x="363.423828"/>
      <use xlink:href="#DejaVuSans-64" x="424.947266"/>
     </g>
    </g>
    <g id="line2d_18">
     <path d="M 81 70.976562 
L 91 70.976562 
L 101 70.976562 
" style="fill: none; stroke: #ff7f0e; stroke-width: 1.5; stroke-linecap: square"/>
    </g>
    <g id="text_16">
     <!-- Fitted -->
     <g transform="translate(109 74.476562) scale(0.1 -0.1)">
      <defs>
       <path id="DejaVuSans-46" d="M 628 4666 
L 3309 4666 
L 3309 4134 
L 1259 4134 
L 1259 2759 
L 3109 2759 
L 3109 2228 
L 1259 2228 
L 1259 0 
L 628 0 
L 628 4666 
z
" transform="scale(0.015625)"/>
       <path id="DejaVuSans-74" d="M 1172 4494 
L 1172 3500 
L 2356 3500 
L 2356 3053 
L 1172 3053 
L 1172 1153 
Q 1172 725 1289 603 
Q 1406 481 1766 481 
L 2356 481 
L 2356 0 
L 1766 0 
Q 1100 0 847 248 
Q 594 497 594 1153 
L 594 3053 
L 172 3053 
L 172 3500 
L 594 3500 
L 594 4494 
L 1172 4494 
z
" transform="scale(0.015625)"/>
      </defs>
      <use xlink:href="#DejaVuSans-46"/>
      <use xlink:href="#DejaVuSans-69" x="50.269531"/>
      <use xlink:href="#DejaVuSans-74" x="78.052734"/>
      <use xlink:href="#DejaVuSans-74" x="117.261719"/>
      <use xlink:href="#DejaVuSans-65" x="156.470703"/>
      <use xlink:href="#DejaVuSans-64" x="217.994141"/>
     </g>
    </g>
    <g id="line2d_19">
     <path d="M 81 85.654687 
L 91 85.654687 
L 101 85.654687 
" style="fill: none; stroke: #2ca02c; stroke-width: 1.5; stroke-linecap: square"/>
    </g>
    <g id="text_17">
     <!-- Estimated -->
     <g transform="translate(109 89.154687) scale(0.1 -0.1)">
      <defs>
       <path id="DejaVuSans-45" d="M 628 4666 
L 3578 4666 
L 3578 4134 
L 1259 4134 
L 1259 2753 
L 3481 2753 
L 3481 2222 
L 1259 2222 
L 1259 531 
L 3634 531 
L 3634 0 
L 628 0 
L 628 4666 
z
" transform="scale(0.015625)"/>
      </defs>
      <use xlink:href="#DejaVuSans-45"/>
      <use xlink:href="#DejaVuSans-73" x="63.183594"/>
      <use xlink:href="#DejaVuSans-74" x="115.283203"/>
      <use xlink:href="#DejaVuSans-69" x="154.492188"/>
      <use xlink:href="#DejaVuSans-6d" x="182.275391"/>
      <use xlink:href="#DejaVuSans-61" x="279.6875"/>
      <use xlink:href="#DejaVuSans-74" x="340.966797"/>
      <use xlink:href="#DejaVuSans-65" x="380.175781"/>
      <use xlink:href="#DejaVuSans-64" x="441.699219"/>
     </g>
    </g>
   </g>
  </g>
 </g>
 <defs>
  <clipPath id="pa6908a76c7">
   <rect x="72" y="43.2" width="446.4" height="277.2"/>
  </clipPath>
 </defs>
</svg>
