<?xml version="1.0" encoding="utf-8" standalone="no"?>
<!DOCTYPE svg PUBLIC "-//W3C//DTD SVG 1.1//EN"
  "http://www.w3.org/Graphics/SVG/1.1/DTD/svg11.dtd">
<svg xmlns:xlink="http://www.w3.org/1999/xlink" width="576pt" height="360pt" viewBox="0 0 576 360" xmlns="http://www.w3.org/2000/svg" version="1.1">
 <metadata>
  <rdf:RDF xmlns:dc="http://purl.org/dc/elements/1.1/" xmlns:cc="http://creativecommons.org/ns#" xmlns:rdf="http://www.w3.org/1999/02/22-rdf-syntax-ns#">
   <cc:Work>
    <dc:type rdf:resource="http://purl.org/dc/dcmitype/StillImage"/>
    <dc:date>2023-11-23T16:27:25.667555</dc:date>
    <dc:format>image/svg+xml</dc:format>
    <dc:creator>
     <cc:Agent>
      <dc:title>Matplotlib v3.8.1, https://matplotlib.org/</dc:title>
     </cc:Agent>
    </dc:creator>
   </cc:Work>
  </rdf:RDF>
 </metadata>
 <defs>
  <style type="text/css">*{stroke-linejoin: round; stroke-linecap: butt}</style>
 </defs>
 <g id="figure_1">
  <g id="patch_1">
   <path d="M 0 360 
L 576 360 
L 576 0 
L 0 0 
z
" style="fill: #ffffff"/>
  </g>
  <g id="axes_1">
   <g id="patch_2">
    <path d="M 72 320.4 
L 518.4 320.4 
L 518.4 43.2 
L 72 43.2 
z
" style="fill: #ffffff"/>
   </g>
   <g id="matplotlib.axis_1">
    <g id="xtick_1">
     <g id="line2d_1">
      <defs>
       <path id="m295b9ffac4" d="M 0 0 
L 0 3.5 
" style="stroke: #000000; stroke-width: 0.8"/>
      </defs>
      <g>
       <use xlink:href="#m295b9ffac4" x="129.874161" y="320.4" style="stroke: #000000; stroke-width: 0.8"/>
      </g>
     </g>
     <g id="text_1">
      <!-- 2020-05-15 -->
      <g transform="translate(100.816349 334.998438) scale(0.1 -0.1)">
       <defs>
        <path id="DejaVuSans-32" d="M 1228 531 
L 3431 531 
L 3431 0 
L 469 0 
L 469 531 
Q 828 903 1448 1529 
Q 2069 2156 2228 2338 
Q 2531 2678 2651 2914 
Q 2772 3150 2772 3378 
Q 2772 3750 2511 3984 
Q 2250 4219 1831 4219 
Q 1534 4219 1204 4116 
Q 875 4013 500 3803 
L 500 4441 
Q 881 4594 1212 4672 
Q 1544 4750 1819 4750 
Q 2544 4750 2975 4387 
Q 3406 4025 3406 3419 
Q 3406 3131 3298 2873 
Q 3191 2616 2906 2266 
Q 2828 2175 2409 1742 
Q 1991 1309 1228 531 
z
" transform="scale(0.015625)"/>
        <path id="DejaVuSans-30" d="M 2034 4250 
Q 1547 4250 1301 3770 
Q 1056 3291 1056 2328 
Q 1056 1369 1301 889 
Q 1547 409 2034 409 
Q 2525 409 2770 889 
Q 3016 1369 3016 2328 
Q 3016 3291 2770 3770 
Q 2525 4250 2034 4250 
z
M 2034 4750 
Q 2819 4750 3233 4129 
Q 3647 3509 3647 2328 
Q 3647 1150 3233 529 
Q 2819 -91 2034 -91 
Q 1250 -91 836 529 
Q 422 1150 422 2328 
Q 422 3509 836 4129 
Q 1250 4750 2034 4750 
z
" transform="scale(0.015625)"/>
        <path id="DejaVuSans-2d" d="M 313 2009 
L 1997 2009 
L 1997 1497 
L 313 1497 
L 313 2009 
z
" transform="scale(0.015625)"/>
        <path id="DejaVuSans-35" d="M 691 4666 
L 3169 4666 
L 3169 4134 
L 1269 4134 
L 1269 2991 
Q 1406 3038 1543 3061 
Q 1681 3084 1819 3084 
Q 2600 3084 3056 2656 
Q 3513 2228 3513 1497 
Q 3513 744 3044 326 
Q 2575 -91 1722 -91 
Q 1428 -91 1123 -41 
Q 819 9 494 109 
L 494 744 
Q 775 591 1075 516 
Q 1375 441 1709 441 
Q 2250 441 2565 725 
Q 2881 1009 2881 1497 
Q 2881 1984 2565 2268 
Q 2250 2553 1709 2553 
Q 1456 2553 1204 2497 
Q 953 2441 691 2322 
L 691 4666 
z
" transform="scale(0.015625)"/>
        <path id="DejaVuSans-31" d="M 794 531 
L 1825 531 
L 1825 4091 
L 703 3866 
L 703 4441 
L 1819 4666 
L 2450 4666 
L 2450 531 
L 3481 531 
L 3481 0 
L 794 0 
L 794 531 
z
" transform="scale(0.015625)"/>
       </defs>
       <use xlink:href="#DejaVuSans-32"/>
       <use xlink:href="#DejaVuSans-30" x="63.623047"/>
       <use xlink:href="#DejaVuSans-32" x="127.246094"/>
       <use xlink:href="#DejaVuSans-30" x="190.869141"/>
       <use xlink:href="#DejaVuSans-2d" x="254.492188"/>
       <use xlink:href="#DejaVuSans-30" x="290.576172"/>
       <use xlink:href="#DejaVuSans-35" x="354.199219"/>
       <use xlink:href="#DejaVuSans-2d" x="417.822266"/>
       <use xlink:href="#DejaVuSans-31" x="453.90625"/>
       <use xlink:href="#DejaVuSans-35" x="517.529297"/>
      </g>
     </g>
    </g>
    <g id="xtick_2">
     <g id="line2d_2">
      <g>
       <use xlink:href="#m295b9ffac4" x="212.435902" y="320.4" style="stroke: #000000; stroke-width: 0.8"/>
      </g>
     </g>
     <g id="text_2">
      <!-- 2020-06-01 -->
      <g transform="translate(183.37809 334.998438) scale(0.1 -0.1)">
       <defs>
        <path id="DejaVuSans-36" d="M 2113 2584 
Q 1688 2584 1439 2293 
Q 1191 2003 1191 1497 
Q 1191 994 1439 701 
Q 1688 409 2113 409 
Q 2538 409 2786 701 
Q 3034 994 3034 1497 
Q 3034 2003 2786 2293 
Q 2538 2584 2113 2584 
z
M 3366 4563 
L 3366 3988 
Q 3128 4100 2886 4159 
Q 2644 4219 2406 4219 
Q 1781 4219 1451 3797 
Q 1122 3375 1075 2522 
Q 1259 2794 1537 2939 
Q 1816 3084 2150 3084 
Q 2853 3084 3261 2657 
Q 3669 2231 3669 1497 
Q 3669 778 3244 343 
Q 2819 -91 2113 -91 
Q 1303 -91 875 529 
Q 447 1150 447 2328 
Q 447 3434 972 4092 
Q 1497 4750 2381 4750 
Q 2619 4750 2861 4703 
Q 3103 4656 3366 4563 
z
" transform="scale(0.015625)"/>
       </defs>
       <use xlink:href="#DejaVuSans-32"/>
       <use xlink:href="#DejaVuSans-30" x="63.623047"/>
       <use xlink:href="#DejaVuSans-32" x="127.246094"/>
       <use xlink:href="#DejaVuSans-30" x="190.869141"/>
       <use xlink:href="#DejaVuSans-2d" x="254.492188"/>
       <use xlink:href="#DejaVuSans-30" x="290.576172"/>
       <use xlink:href="#DejaVuSans-36" x="354.199219"/>
       <use xlink:href="#DejaVuSans-2d" x="417.822266"/>
       <use xlink:href="#DejaVuSans-30" x="453.90625"/>
       <use xlink:href="#DejaVuSans-31" x="517.529297"/>
      </g>
     </g>
    </g>
    <g id="xtick_3">
     <g id="line2d_3">
      <g>
       <use xlink:href="#m295b9ffac4" x="280.427924" y="320.4" style="stroke: #000000; stroke-width: 0.8"/>
      </g>
     </g>
     <g id="text_3">
      <!-- 2020-06-15 -->
      <g transform="translate(251.370111 334.998438) scale(0.1 -0.1)">
       <use xlink:href="#DejaVuSans-32"/>
       <use xlink:href="#DejaVuSans-30" x="63.623047"/>
       <use xlink:href="#DejaVuSans-32" x="127.246094"/>
       <use xlink:href="#DejaVuSans-30" x="190.869141"/>
       <use xlink:href="#DejaVuSans-2d" x="254.492188"/>
       <use xlink:href="#DejaVuSans-30" x="290.576172"/>
       <use xlink:href="#DejaVuSans-36" x="354.199219"/>
       <use xlink:href="#DejaVuSans-2d" x="417.822266"/>
       <use xlink:href="#DejaVuSans-31" x="453.90625"/>
       <use xlink:href="#DejaVuSans-35" x="517.529297"/>
      </g>
     </g>
    </g>
    <g id="xtick_4">
     <g id="line2d_4">
      <g>
       <use xlink:href="#m295b9ffac4" x="358.133092" y="320.4" style="stroke: #000000; stroke-width: 0.8"/>
      </g>
     </g>
     <g id="text_4">
      <!-- 2020-07-01 -->
      <g transform="translate(329.075279 334.998438) scale(0.1 -0.1)">
       <defs>
        <path id="DejaVuSans-37" d="M 525 4666 
L 3525 4666 
L 3525 4397 
L 1831 0 
L 1172 0 
L 2766 4134 
L 525 4134 
L 525 4666 
z
" transform="scale(0.015625)"/>
       </defs>
       <use xlink:href="#DejaVuSans-32"/>
       <use xlink:href="#DejaVuSans-30" x="63.623047"/>
       <use xlink:href="#DejaVuSans-32" x="127.246094"/>
       <use xlink:href="#DejaVuSans-30" x="190.869141"/>
       <use xlink:href="#DejaVuSans-2d" x="254.492188"/>
       <use xlink:href="#DejaVuSans-30" x="290.576172"/>
       <use xlink:href="#DejaVuSans-37" x="354.199219"/>
       <use xlink:href="#DejaVuSans-2d" x="417.822266"/>
       <use xlink:href="#DejaVuSans-30" x="453.90625"/>
       <use xlink:href="#DejaVuSans-31" x="517.529297"/>
      </g>
     </g>
    </g>
    <g id="xtick_5">
     <g id="line2d_5">
      <g>
       <use xlink:href="#m295b9ffac4" x="426.125113" y="320.4" style="stroke: #000000; stroke-width: 0.8"/>
      </g>
     </g>
     <g id="text_5">
      <!-- 2020-07-15 -->
      <g transform="translate(397.067301 334.998438) scale(0.1 -0.1)">
       <use xlink:href="#DejaVuSans-32"/>
       <use xlink:href="#DejaVuSans-30" x="63.623047"/>
       <use xlink:href="#DejaVuSans-32" x="127.246094"/>
       <use xlink:href="#DejaVuSans-30" x="190.869141"/>
       <use xlink:href="#DejaVuSans-2d" x="254.492188"/>
       <use xlink:href="#DejaVuSans-30" x="290.576172"/>
       <use xlink:href="#DejaVuSans-37" x="354.199219"/>
       <use xlink:href="#DejaVuSans-2d" x="417.822266"/>
       <use xlink:href="#DejaVuSans-31" x="453.90625"/>
       <use xlink:href="#DejaVuSans-35" x="517.529297"/>
      </g>
     </g>
    </g>
    <g id="xtick_6">
     <g id="line2d_6">
      <g>
       <use xlink:href="#m295b9ffac4" x="508.686854" y="320.4" style="stroke: #000000; stroke-width: 0.8"/>
      </g>
     </g>
     <g id="text_6">
      <!-- 2020-08-01 -->
      <g transform="translate(479.629042 334.998438) scale(0.1 -0.1)">
       <defs>
        <path id="DejaVuSans-38" d="M 2034 2216 
Q 1584 2216 1326 1975 
Q 1069 1734 1069 1313 
Q 1069 891 1326 650 
Q 1584 409 2034 409 
Q 2484 409 2743 651 
Q 3003 894 3003 1313 
Q 3003 1734 2745 1975 
Q 2488 2216 2034 2216 
z
M 1403 2484 
Q 997 2584 770 2862 
Q 544 3141 544 3541 
Q 544 4100 942 4425 
Q 1341 4750 2034 4750 
Q 2731 4750 3128 4425 
Q 3525 4100 3525 3541 
Q 3525 3141 3298 2862 
Q 3072 2584 2669 2484 
Q 3125 2378 3379 2068 
Q 3634 1759 3634 1313 
Q 3634 634 3220 271 
Q 2806 -91 2034 -91 
Q 1263 -91 848 271 
Q 434 634 434 1313 
Q 434 1759 690 2068 
Q 947 2378 1403 2484 
z
M 1172 3481 
Q 1172 3119 1398 2916 
Q 1625 2713 2034 2713 
Q 2441 2713 2670 2916 
Q 2900 3119 2900 3481 
Q 2900 3844 2670 4047 
Q 2441 4250 2034 4250 
Q 1625 4250 1398 4047 
Q 1172 3844 1172 3481 
z
" transform="scale(0.015625)"/>
       </defs>
       <use xlink:href="#DejaVuSans-32"/>
       <use xlink:href="#DejaVuSans-30" x="63.623047"/>
       <use xlink:href="#DejaVuSans-32" x="127.246094"/>
       <use xlink:href="#DejaVuSans-30" x="190.869141"/>
       <use xlink:href="#DejaVuSans-2d" x="254.492188"/>
       <use xlink:href="#DejaVuSans-30" x="290.576172"/>
       <use xlink:href="#DejaVuSans-38" x="354.199219"/>
       <use xlink:href="#DejaVuSans-2d" x="417.822266"/>
       <use xlink:href="#DejaVuSans-30" x="453.90625"/>
       <use xlink:href="#DejaVuSans-31" x="517.529297"/>
      </g>
     </g>
    </g>
   </g>
   <g id="matplotlib.axis_2">
    <g id="ytick_1">
     <g id="line2d_7">
      <defs>
       <path id="m67094ac044" d="M 0 0 
L -3.5 0 
" style="stroke: #000000; stroke-width: 0.8"/>
      </defs>
      <g>
       <use xlink:href="#m67094ac044" x="72" y="315.975982" style="stroke: #000000; stroke-width: 0.8"/>
      </g>
     </g>
     <g id="text_7">
      <!-- −2 -->
      <g transform="translate(50.257812 319.7752) scale(0.1 -0.1)">
       <defs>
        <path id="DejaVuSans-2212" d="M 678 2272 
L 4684 2272 
L 4684 1741 
L 678 1741 
L 678 2272 
z
" transform="scale(0.015625)"/>
       </defs>
       <use xlink:href="#DejaVuSans-2212"/>
       <use xlink:href="#DejaVuSans-32" x="83.789062"/>
      </g>
     </g>
    </g>
    <g id="ytick_2">
     <g id="line2d_8">
      <g>
       <use xlink:href="#m67094ac044" x="72" y="262.531898" style="stroke: #000000; stroke-width: 0.8"/>
      </g>
     </g>
     <g id="text_8">
      <!-- −1 -->
      <g transform="translate(50.257812 266.331117) scale(0.1 -0.1)">
       <use xlink:href="#DejaVuSans-2212"/>
       <use xlink:href="#DejaVuSans-31" x="83.789062"/>
      </g>
     </g>
    </g>
    <g id="ytick_3">
     <g id="line2d_9">
      <g>
       <use xlink:href="#m67094ac044" x="72" y="209.087814" style="stroke: #000000; stroke-width: 0.8"/>
      </g>
     </g>
     <g id="text_9">
      <!-- 0 -->
      <g transform="translate(58.6375 212.887033) scale(0.1 -0.1)">
       <use xlink:href="#DejaVuSans-30"/>
      </g>
     </g>
    </g>
    <g id="ytick_4">
     <g id="line2d_10">
      <g>
       <use xlink:href="#m67094ac044" x="72" y="155.643731" style="stroke: #000000; stroke-width: 0.8"/>
      </g>
     </g>
     <g id="text_10">
      <!-- 1 -->
      <g transform="translate(58.6375 159.442949) scale(0.1 -0.1)">
       <use xlink:href="#DejaVuSans-31"/>
      </g>
     </g>
    </g>
    <g id="ytick_5">
     <g id="line2d_11">
      <g>
       <use xlink:href="#m67094ac044" x="72" y="102.199647" style="stroke: #000000; stroke-width: 0.8"/>
      </g>
     </g>
     <g id="text_11">
      <!-- 2 -->
      <g transform="translate(58.6375 105.998866) scale(0.1 -0.1)">
       <use xlink:href="#DejaVuSans-32"/>
      </g>
     </g>
    </g>
    <g id="ytick_6">
     <g id="line2d_12">
      <g>
       <use xlink:href="#m67094ac044" x="72" y="48.755564" style="stroke: #000000; stroke-width: 0.8"/>
      </g>
     </g>
     <g id="text_12">
      <!-- 3 -->
      <g transform="translate(58.6375 52.554782) scale(0.1 -0.1)">
       <defs>
        <path id="DejaVuSans-33" d="M 2597 2516 
Q 3050 2419 3304 2112 
Q 3559 1806 3559 1356 
Q 3559 666 3084 287 
Q 2609 -91 1734 -91 
Q 1441 -91 1130 -33 
Q 819 25 488 141 
L 488 750 
Q 750 597 1062 519 
Q 1375 441 1716 441 
Q 2309 441 2620 675 
Q 2931 909 2931 1356 
Q 2931 1769 2642 2001 
Q 2353 2234 1838 2234 
L 1294 2234 
L 1294 2753 
L 1863 2753 
Q 2328 2753 2575 2939 
Q 2822 3125 2822 3475 
Q 2822 3834 2567 4026 
Q 2313 4219 1838 4219 
Q 1578 4219 1281 4162 
Q 984 4106 628 3988 
L 628 4550 
Q 988 4650 1302 4700 
Q 1616 4750 1894 4750 
Q 2613 4750 3031 4423 
Q 3450 4097 3450 3541 
Q 3450 3153 3228 2886 
Q 3006 2619 2597 2516 
z
" transform="scale(0.015625)"/>
       </defs>
       <use xlink:href="#DejaVuSans-33"/>
      </g>
     </g>
    </g>
   </g>
   <g id="line2d_13">
    <path d="M 72 287.140583 
L 72.404714 298.466558 
L 72.607072 296.746687 
L 72.809429 286.091881 
L 73.214143 255.218112 
L 73.618858 242.801488 
L 75.035358 159.954078 
L 75.237715 156.99674 
L 75.440073 162.05148 
L 75.64243 170.252325 
L 75.844787 173.545248 
L 76.047144 188.772392 
L 76.654216 258.951489 
L 77.05893 282.987725 
L 77.261287 287.350323 
L 77.463645 286.97279 
L 77.666002 276.276036 
L 78.070716 247.81428 
L 78.475431 235.355708 
L 78.677788 226.232006 
L 79.487217 169.308494 
L 79.891931 153.053622 
L 80.094288 155.004207 
L 80.903717 197.371743 
L 81.713146 272.626555 
L 82.11786 287.266427 
L 82.320218 289.300907 
L 82.522575 289.007271 
L 82.724932 286.490388 
L 82.927289 279.673829 
L 83.332004 256.707268 
L 83.736718 242.402981 
L 83.939075 239.361747 
L 84.141432 239.634409 
L 84.546147 246.031488 
L 84.748504 248.128891 
L 84.950861 248.149865 
L 85.355576 252.34467 
L 85.557933 249.0098 
L 85.76029 255.134216 
L 86.569719 300.060584 
L 86.772076 306.143052 
L 86.974433 307.737078 
L 87.176791 307.8 
L 87.379148 306.457662 
L 87.581505 302.724285 
L 87.783862 295.970648 
L 88.188577 273.926945 
L 88.390934 268.74636 
L 89.200363 260.671359 
L 89.40272 256.539476 
L 89.807434 241.752786 
L 90.212149 239.298825 
L 90.414506 236.593175 
L 90.616863 244.542332 
L 91.223935 295.110713 
L 91.628649 306.143052 
L 91.831006 306.205974 
L 92.033364 303.710065 
L 92.842792 257.567203 
L 93.04515 255.427852 
L 93.449864 246.828501 
L 93.652221 246.30415 
L 93.854578 243.367786 
L 94.056936 242.738566 
L 94.259293 240.116812 
L 94.46165 233.719734 
L 94.664007 230.867266 
L 94.866364 231.790123 
L 95.068722 234.936227 
L 95.271079 231.09798 
L 95.473436 241.207462 
L 96.080508 295.488246 
L 96.485222 304.695844 
L 96.687579 306.60448 
L 96.889937 302.262857 
L 97.699365 256.833112 
L 98.306437 246.325124 
L 98.508794 245.947592 
L 99.52058 224.721876 
L 99.722937 225.980317 
L 99.925295 230.342915 
L 100.127652 228.518175 
L 100.330009 238.669604 
L 100.937081 293.01331 
L 101.341795 305.283117 
L 101.544152 306.268896 
L 101.74651 302.556493 
L 101.948867 290.601297 
L 102.353581 260.566489 
L 102.555938 259.014411 
L 103.567724 241.228436 
L 104.377153 219.12181 
L 104.57951 220.401226 
L 104.781868 225.791551 
L 104.984225 225.770577 
L 105.186582 234.663565 
L 105.793654 289.867206 
L 106.198368 302.619415 
L 106.400725 304.381233 
L 106.603083 300.35422 
L 107.412511 254.421099 
L 107.614869 252.701229 
L 107.817226 249.030774 
L 108.22194 234.495773 
L 108.626655 212.787654 
L 108.829012 206.852004 
L 109.031369 204.964341 
L 109.638441 213.647589 
L 109.840798 219.079862 
L 110.043155 229.48298 
L 110.650227 284.539803 
L 111.054941 298.802142 
L 111.257298 300.710779 
L 111.459655 298.969934 
L 111.662013 287.560063 
L 112.066727 258.301294 
L 112.471442 243.304864 
L 113.887942 174.887585 
L 114.090299 172.51752 
L 114.292656 179.334079 
L 114.495014 190.764925 
L 114.697371 195.358237 
L 115.102085 229.37811 
L 115.709157 278.750971 
L 116.113871 292.6987 
L 116.316228 292.866492 
L 116.518586 291.209544 
L 116.720943 287.581037 
L 117.125657 260.335775 
L 118.542158 155.654402 
L 118.744515 145.54492 
L 118.946872 141.664725 
L 119.149229 145.33518 
L 119.756301 183.214275 
L 120.56573 262.579996 
L 120.970444 282.400452 
L 121.172801 286.490388 
L 121.375159 288.126362 
L 121.577516 286.679154 
L 121.779873 278.750971 
L 122.589302 227.742136 
L 123.196374 202.279666 
L 123.398731 197.707328 
L 123.601088 197.917068 
L 123.803445 197.350769 
L 124.410517 210.753173 
L 124.612874 221.72259 
L 125.219946 278.01688 
L 125.62466 292.551882 
L 125.827017 294.544414 
L 126.029374 292.006557 
L 127.04116 235.607396 
L 127.648232 198.18973 
L 128.255304 155.80122 
L 128.457661 148.25057 
L 128.660018 147.914986 
L 129.26709 192.254081 
L 130.278876 283.113569 
L 130.481233 290.936882 
L 130.68359 292.321167 
L 130.885947 289.741362 
L 132.504805 180.802261 
L 133.111877 138.120115 
L 133.314234 128.702776 
L 133.516591 130.401672 
L 133.921306 145.775635 
L 134.123663 153.200441 
L 135.135449 263.104347 
L 135.540163 275.730711 
L 135.74252 274.78688 
L 135.944878 264.194996 
L 136.349592 232.775902 
L 136.551949 226.001291 
L 136.754306 214.129992 
L 136.956664 218.70233 
L 137.159021 207.397329 
L 137.766092 198.567263 
L 137.96845 198.965769 
L 138.373164 193.55447 
L 138.777879 201.10512 
L 138.980236 201.944081 
L 139.182593 213.752459 
L 139.789665 270.403308 
L 140.194379 285.777271 
L 140.396736 287.8537 
L 140.599093 284.833439 
L 141.003808 254.609865 
L 141.408522 233.426097 
L 142.015594 220.023693 
L 142.622665 210.879017 
L 142.825023 210.606355 
L 143.02738 209.389861 
L 143.229737 210.082004 
L 143.634451 215.367459 
L 143.836809 214.129992 
L 144.039166 224.323369 
L 144.646238 273.696231 
L 145.050952 285.798245 
L 145.253309 287.098635 
L 145.455666 283.95253 
L 145.860381 254.274281 
L 146.062738 237.809669 
L 146.66981 221.324083 
L 146.872167 218.639408 
L 147.074524 217.548758 
L 147.479238 206.432523 
L 147.681596 214.906031 
L 147.883953 215.89181 
L 148.08631 218.513563 
L 148.491024 227.847006 
L 148.693382 226.483694 
L 149.098096 250.163371 
L 149.502811 278.373439 
L 149.907525 291.524154 
L 150.109882 293.600583 
L 150.312239 293.01331 
L 150.514597 290.160843 
L 150.716954 284.392985 
L 151.121668 263.293113 
L 151.526383 242.570773 
L 151.931097 236.698046 
L 152.133454 236.257591 
L 152.335811 238.250124 
L 152.538169 238.774474 
L 152.740526 236.698046 
L 152.942883 236.991682 
L 153.14524 236.005903 
L 153.347597 236.047851 
L 153.549955 233.090513 
L 153.752312 235.31376 
L 154.764098 287.371297 
L 154.966455 291.377336 
L 155.168812 292.782596 
L 155.573527 288.797531 
L 155.775884 277.5974 
L 156.78767 198.756029 
L 157.799456 155.633428 
L 158.001813 157.667909 
L 158.406528 171.028364 
L 158.608885 184.745379 
L 159.215956 254.190385 
L 159.620671 276.045322 
L 159.823028 279.296296 
L 160.025385 278.373439 
L 160.227743 268.452724 
L 160.632457 235.607396 
L 161.8466 184.70343 
L 162.251315 174.531027 
L 162.453672 174.677845 
L 162.656029 177.572261 
L 163.465458 209.767394 
L 164.072529 270.340386 
L 164.477244 289.175063 
L 164.679601 289.510648 
L 164.881958 286.238699 
L 165.084316 275.961426 
L 165.48903 243.808241 
L 166.500816 208.299212 
L 167.310245 164.862 
L 167.512602 168.259793 
L 167.917316 189.087002 
L 168.119674 193.596418 
L 168.322031 205.090186 
L 168.929102 265.222723 
L 169.333817 280.596686 
L 169.536174 284.162271 
L 169.738531 280.449868 
L 170.143246 252.827073 
L 170.54796 222.14207 
L 171.357389 177.026936 
L 171.559746 170.923494 
L 172.166818 146.42583 
L 172.369175 148.061804 
L 172.571532 156.073882 
L 173.178604 195.526029 
L 173.785675 267.487918 
L 174.19039 287.119609 
L 174.392747 290.139869 
L 174.595104 288.294154 
L 174.999819 263.79649 
L 175.404533 238.480838 
L 177.023391 159.261935 
L 177.225748 159.786285 
L 177.428105 163.750377 
L 177.630462 180.550573 
L 177.83282 183.025508 
L 178.237534 227.700188 
L 178.642248 271.158373 
L 179.046963 290.601297 
L 179.24932 294.376622 
L 179.451677 291.817791 
L 179.654034 283.008699 
L 180.261106 242.633695 
L 181.879964 144.391349 
L 182.082321 141.077453 
L 182.284678 146.824336 
L 183.094107 203.91564 
L 183.498821 243.451683 
L 183.903536 265.201749 
L 184.30825 273.150906 
L 184.510607 274.535192 
L 184.712965 270.843763 
L 184.915322 257.273567 
L 185.724751 174.111546 
L 186.129465 152.424402 
L 186.331822 146.279011 
L 186.53418 145.502972 
L 186.736537 148.082778 
L 187.748323 189.107976 
L 188.557752 254.232333 
L 188.962466 268.620516 
L 189.164823 270.696945 
L 189.36718 270.780841 
L 189.569538 270.025776 
L 189.771895 259.077333 
L 190.986038 161.652974 
L 191.188395 156.262649 
L 191.390752 156.220701 
L 191.795467 165.512195 
L 192.604896 197.308821 
L 193.414325 261.636165 
L 193.819039 275.562919 
L 194.021396 276.653569 
L 194.426111 272.626555 
L 194.628468 263.523827 
L 195.437897 201.629471 
L 195.640254 196.532782 
L 195.842611 197.77025 
L 196.247325 203.936614 
L 196.449683 204.523887 
L 196.65204 204.12538 
L 197.056754 212.473043 
L 197.259112 213.332979 
L 197.461469 221.890382 
L 198.06854 271.053503 
L 198.473255 285.483634 
L 198.675612 285.588504 
L 198.877969 281.876102 
L 199.282684 250.561878 
L 199.687398 227.343629 
L 201.306256 159.786285 
L 201.508613 158.61174 
L 202.115684 178.13856 
L 202.318042 189.485509 
L 202.925113 254.672787 
L 203.329828 272.626555 
L 203.532185 274.765906 
L 203.734542 271.724672 
L 203.936899 260.000191 
L 204.341614 225.414019 
L 205.758114 169.790897 
L 205.960471 167.253039 
L 206.162829 167.399857 
L 206.365186 168.847065 
L 206.7699 180.907131 
L 206.972257 184.158106 
L 207.174615 195.190444 
L 207.781686 255.281034 
L 208.186401 271.724672 
L 208.388758 274.828828 
L 208.591115 271.431036 
L 208.793472 259.349996 
L 209.198187 224.95259 
L 209.805258 202.279666 
L 210.209973 182.039729 
L 210.817044 139.609271 
L 211.019402 130.967971 
L 211.221759 133.988231 
L 211.626473 158.905376 
L 211.82883 164.211805 
L 212.031188 179.208235 
L 212.638259 245.423241 
L 213.042974 264.341814 
L 213.245331 268.410776 
L 213.447688 266.669931 
L 213.650045 255.763437 
L 214.257117 211.717978 
L 214.661831 184.892197 
L 215.47126 124.466022 
L 215.875975 107.435112 
L 216.078332 106.952709 
L 216.280689 112.594723 
L 217.090118 177.530313 
L 217.697189 240.578241 
L 218.101904 259.37097 
L 218.304261 262.789736 
L 218.506618 264.174022 
L 218.708976 262.894606 
L 218.911333 249.932657 
L 219.518404 194.141743 
L 220.125476 158.297129 
L 220.327833 156.094856 
L 220.53019 158.360051 
L 221.541976 201.440705 
L 221.744334 206.684212 
L 222.553762 264.614477 
L 222.958477 275.688763 
L 223.160834 277.429608 
L 223.363191 277.786166 
L 223.565549 276.19214 
L 223.767906 267.320126 
L 224.374977 228.413305 
L 224.779692 220.694862 
L 225.386763 222.792265 
L 225.589121 226.378824 
L 225.791478 227.280707 
L 226.196192 235.817136 
L 226.398549 235.460578 
L 226.600907 242.004475 
L 227.410335 296.599869 
L 227.612693 300.710779 
L 227.81505 302.430649 
L 228.017407 299.179675 
L 228.826836 255.805385 
L 229.029193 253.43532 
L 229.23155 247.583566 
L 230.648051 183.004534 
L 230.850408 183.591807 
L 231.255122 198.273627 
L 231.45748 209.368887 
L 232.064551 274.220581 
L 232.469266 291.712921 
L 232.671623 294.481492 
L 232.87398 293.244025 
L 233.278694 267.487918 
L 233.683409 244.542332 
L 235.302267 178.767781 
L 235.504624 178.159534 
L 236.111695 197.623432 
L 236.314053 208.173368 
L 236.921124 271.45201 
L 237.325839 287.622985 
L 237.528196 290.811037 
L 237.730553 288.650713 
L 238.135267 264.257918 
L 238.539982 242.067397 
L 239.349411 210.564407 
L 239.754125 200.371029 
L 240.15884 189.967911 
L 240.361197 189.716223 
L 240.563554 195.274341 
L 240.968268 213.207134 
L 241.170626 220.925577 
L 241.777697 277.49253 
L 242.182412 293.642531 
L 242.384769 296.180389 
L 242.587126 293.139155 
L 242.99184 267.970321 
L 243.396555 249.680969 
L 245.21777 173.650118 
L 245.420127 177.970768 
L 246.027199 205.257978 
L 246.836627 280.093309 
L 247.038985 288.608765 
L 247.241342 291.838765 
L 247.443699 289.258959 
L 247.848413 265.264671 
L 249.467271 151.207908 
L 249.669628 142.986089 
L 249.871985 141.01453 
L 250.074343 141.182323 
L 250.2767 148.25057 
L 250.883772 180.949079 
L 251.6932 257.294541 
L 252.097915 272.081231 
L 252.300272 275.206361 
L 252.502629 275.479023 
L 252.704986 271.535906 
L 253.109701 238.187202 
L 253.91913 163.645507 
L 254.323844 147.558427 
L 254.728558 138.581543 
L 254.930916 137.302128 
L 255.133273 144.936674 
L 255.740345 183.08843 
L 256.549773 259.664606 
L 256.954488 275.416101 
L 257.156845 279.296296 
L 257.359202 280.995192 
L 257.561559 280.009413 
L 257.966274 250.603826 
L 258.573345 199.301354 
L 258.97806 177.236677 
L 259.382774 166.015572 
L 259.585131 162.512909 
L 259.787489 162.072454 
L 259.989846 164.736156 
L 260.39456 181.012002 
L 260.596917 194.603172 
L 261.203989 257.714021 
L 261.608704 276.758439 
L 261.811061 279.736751 
L 262.013418 278.939738 
L 262.418132 254.546943 
L 262.62049 242.319085 
L 263.025204 232.482266 
L 263.227561 229.629798 
L 263.429918 228.602071 
L 263.834633 229.902461 
L 264.03699 229.58785 
L 264.239347 230.552655 
L 264.441704 230.636551 
L 264.644062 230.363889 
L 264.846419 232.440318 
L 265.048776 236.551227 
L 265.251133 236.551227 
L 265.45349 240.641163 
L 266.060562 283.868634 
L 266.465277 296.935454 
L 266.667634 298.508506 
L 266.869991 294.250778 
L 267.072348 286.154803 
L 267.477063 259.182203 
L 268.084134 236.614149 
L 268.488849 226.14811 
L 269.09592 214.69629 
L 269.500635 210.669277 
L 269.702992 212.892524 
L 269.905349 216.562979 
L 270.107706 217.255122 
L 270.310063 223.673174 
L 270.917135 273.402594 
L 271.32185 285.588504 
L 271.524207 287.769803 
L 271.726564 286.028959 
L 274.15485 141.916414 
L 274.357208 134.617452 
L 274.559565 138.015244 
L 275.166636 163.624532 
L 275.976065 246.660709 
L 276.38078 259.454866 
L 276.583137 258.741749 
L 276.987851 236.509279 
L 277.392566 207.082718 
L 278.404352 149.110505 
L 278.606709 146.006349 
L 279.011423 132.541023 
L 279.213781 130.905049 
L 279.416138 135.246673 
L 280.023209 177.719079 
L 280.630281 250.352138 
L 281.034995 273.549413 
L 281.237353 278.520257 
L 281.43971 276.947205 
L 281.642067 270.948633 
L 282.249139 228.434279 
L 282.85621 194.183691 
L 283.867996 150.620635 
L 284.070354 149.404142 
L 284.272711 157.709857 
L 285.284497 242.298111 
L 285.689211 275.059543 
L 286.093926 290.076946 
L 286.296283 292.405064 
L 286.49864 290.559349 
L 286.700997 287.560063 
L 287.105712 255.973177 
L 287.712783 203.475185 
L 288.522212 159.240961 
L 288.724569 151.983947 
L 288.926927 150.012388 
L 289.129284 153.661869 
L 289.736355 188.101223 
L 290.545784 259.47584 
L 290.950499 275.038568 
L 291.152856 277.870062 
L 291.355213 277.953958 
L 291.55757 276.443828 
L 291.759927 263.733567 
L 292.771714 163.226026 
L 293.176428 140.825764 
L 293.581142 129.373945 
L 293.7835 127.612127 
L 293.985857 131.198685 
L 294.592928 157.20648 
L 295.402357 242.046423 
L 295.807072 257.021879 
L 296.009429 256.854086 
L 296.414143 236.173695 
L 297.830644 98.500176 
L 298.235358 84.92998 
L 298.437715 82.287252 
L 298.640073 82.559915 
L 298.84243 84.657318 
L 299.044787 92.858162 
L 299.449501 120.376087 
L 300.056573 200.979276 
L 300.461287 226.735382 
L 300.663645 232.880772 
L 300.866002 233.614863 
L 301.068359 226.651486 
L 301.473073 195.987457 
L 302.484859 88.537513 
L 302.687217 76.980823 
L 302.889574 77.085694 
L 303.091931 85.34946 
L 303.496646 94.179526 
L 303.90136 116.894398 
L 304.306074 145.419076 
L 304.913146 216.080576 
L 305.31786 241.962527 
L 305.520218 247.646488 
L 305.722575 245.821748 
L 305.924932 238.54376 
L 306.532004 197.749276 
L 307.54379 126.269789 
L 307.746147 115.845697 
L 307.948504 114.943814 
L 308.757933 147.894012 
L 309.162647 174.510053 
L 309.769719 238.837396 
L 310.174433 259.140255 
L 310.376791 263.628697 
L 310.579148 263.041425 
L 310.983862 239.131033 
L 312.198005 132.897582 
L 312.60272 121.026282 
L 312.805077 116.558814 
L 313.007434 117.125113 
L 313.209791 120.900438 
L 313.816863 149.068557 
L 314.01922 163.03726 
L 314.626292 226.945123 
L 315.031006 247.877202 
L 315.233364 252.554411 
L 315.435721 251.883242 
L 315.840435 232.71298 
L 316.24515 213.605641 
L 316.649864 201.335835 
L 317.054578 185.710184 
L 317.66165 178.03369 
L 317.864007 177.572261 
L 318.066364 176.649404 
L 318.268722 181.431482 
L 318.875793 204.041484 
L 319.685222 263.880386 
L 320.089937 276.926231 
L 320.292294 278.604153 
L 320.697008 270.508178 
L 321.101723 243.724345 
L 322.315866 164.148883 
L 322.72058 153.682843 
L 322.922937 151.312778 
L 323.125295 155.528558 
L 323.732366 183.738625 
L 324.541795 253.728956 
L 324.94651 268.32688 
L 325.148867 271.284217 
L 325.351224 271.34714 
L 325.553581 269.039997 
L 325.755938 256.45558 
L 326.970082 141.664725 
L 327.172439 135.204725 
L 327.374796 133.589725 
L 327.77951 127.905763 
L 327.981868 133.002452 
L 328.184225 141.979336 
L 328.791296 194.729016 
L 329.196011 239.382721 
L 329.398368 254.94545 
L 329.803083 265.264671 
L 330.00544 264.299866 
L 330.207797 258.573957 
L 330.814869 209.033303 
L 331.42194 170.000637 
L 331.826655 146.84531 
L 332.029012 143.887972 
L 332.231369 143.908946 
L 332.433726 144.097713 
L 332.636083 146.237063 
L 332.838441 150.872324 
L 333.243155 174.279339 
L 333.445512 183.486937 
L 334.052584 250.603826 
L 334.457298 272.85727 
L 334.659655 278.394413 
L 334.862013 275.940452 
L 335.266727 255.679541 
L 335.671442 230.804344 
L 336.48087 189.842067 
L 336.683228 184.661482 
L 336.885585 183.528885 
L 337.087942 177.215703 
L 337.290299 175.32804 
L 337.695014 181.934859 
L 338.099728 196.700574 
L 338.302085 202.699146 
L 339.111514 269.920906 
L 339.313871 276.255062 
L 339.516228 278.541231 
L 339.718586 274.388374 
L 340.1233 250.540904 
L 340.932729 205.132134 
L 342.349229 142.063232 
L 342.551587 141.979336 
L 343.158658 167.190117 
L 343.76573 231.286746 
L 344.170444 249.680969 
L 344.372801 254.546943 
L 344.575159 252.365644 
L 344.777516 245.297397 
L 345.18223 213.752459 
L 346.194016 129.352971 
L 346.598731 114.272645 
L 347.003445 107.519008 
L 347.205802 106.659073 
L 347.40816 109.910047 
L 347.610517 117.922126 
L 348.015231 144.580115 
L 348.82466 237.641877 
L 349.229374 255.113242 
L 349.431732 254.337203 
L 349.634089 248.422527 
L 349.836446 237.054604 
L 351.050589 130.401672 
L 351.455304 111.650891 
L 351.860018 102.611085 
L 352.062375 101.688228 
L 352.264733 105.400631 
L 352.46709 116.726606 
L 353.276519 201.587523 
L 353.681233 240.326552 
L 354.085947 260.944022 
L 354.288305 266.334347 
L 354.490662 266.92162 
L 354.693019 264.635451 
L 355.097733 221.701616 
L 355.704805 146.299985 
L 356.109519 121.06823 
L 356.716591 102.485241 
L 356.918948 101.373618 
L 357.121306 106.28154 
L 357.52602 132.457127 
L 357.728377 145.419076 
L 358.740163 242.948306 
L 359.144878 256.203891 
L 359.347235 258.112528 
L 359.549592 257.776944 
L 359.751949 243.472657 
L 360.763735 120.250243 
L 361.16845 100.765371 
L 361.573164 89.418422 
L 361.775521 87.069331 
L 361.977879 90.425175 
L 362.180236 97.577319 
L 362.58495 123.920698 
L 363.394379 214.59142 
L 363.799093 232.629084 
L 364.001451 233.468045 
L 364.203808 227.448499 
L 364.406165 217.171226 
L 365.013237 146.069271 
L 365.620308 80.08498 
L 366.025023 63.557446 
L 366.429737 57.244263 
L 366.632094 57.74764 
L 366.834451 60.453289 
L 367.036809 69.367251 
L 367.441523 99.213293 
L 368.048595 180.634469 
L 368.453309 211.843823 
L 368.655666 220.569018 
L 368.858024 223.002005 
L 369.060381 219.01694 
L 369.262738 208.928433 
L 369.86981 143.950894 
L 370.476881 84.447577 
L 370.881596 67.437641 
L 371.083953 66.976212 
L 371.28631 67.710303 
L 371.488667 71.737316 
L 371.691024 78.113421 
L 372.298096 118.006022 
L 373.107525 205.006289 
L 373.512239 227.76311 
L 373.714597 232.230578 
L 374.119311 231.517461 
L 374.321668 218.471615 
L 375.333454 112.175242 
L 375.738169 98.605046 
L 375.940526 95.836474 
L 376.142883 94.703877 
L 376.34524 100.010306 
L 376.749955 126.878036 
L 377.559383 187.19934 
L 377.964098 222.687395 
L 378.368812 236.82389 
L 378.57117 237.054604 
L 378.773527 230.972136 
L 378.975884 219.478369 
L 380.392384 99.989332 
L 380.797099 89.816928 
L 381.201813 82.035564 
L 381.40417 85.894785 
L 382.011242 123.836802 
L 382.820671 208.76064 
L 383.225385 225.2672 
L 383.427743 225.938369 
L 383.6301 220.464148 
L 384.034814 197.66538 
L 385.0466 122.389594 
L 385.451315 105.274787 
L 385.653672 104.792384 
L 385.856029 108.672579 
L 386.058386 116.495892 
L 387.070172 188.248041 
L 387.474887 229.37811 
L 387.879601 251.82032 
L 388.284316 261.19571 
L 388.68903 263.775516 
L 388.891387 257.881814 
L 389.700816 213.228108 
L 390.307888 201.734341 
L 390.914959 188.667522 
L 391.117316 193.575444 
L 391.926745 234.160188 
L 392.533817 279.485062 
L 392.938531 292.174349 
L 393.140888 294.082986 
L 393.343246 293.621557 
L 393.545603 294.10396 
L 393.74796 284.917336 
L 394.355032 242.696618 
L 395.569175 184.766353 
L 395.771532 178.599988 
L 395.973889 179.837456 
L 396.176247 188.373885 
L 396.783318 231.496487 
L 397.188033 271.011555 
L 397.592747 289.300907 
L 397.795104 292.153375 
L 397.997461 289.552596 
L 398.402176 270.948633 
L 400.628105 140.028751 
L 400.830462 142.944141 
L 401.03282 153.158493 
L 401.639891 211.67603 
L 402.044606 257.168697 
L 402.44932 278.01688 
L 402.651677 282.12779 
L 402.854034 280.428894 
L 403.258749 261.762009 
L 403.663463 232.60811 
L 404.877607 123.815828 
L 405.282321 102.757904 
L 405.484678 98.437254 
L 405.687035 99.548877 
L 405.889393 110.329528 
L 406.294107 148.670051 
L 406.901179 228.098694 
L 407.305893 252.785125 
L 407.50825 258.532009 
L 407.710607 257.986684 
L 408.115322 236.194669 
L 409.73418 100.471735 
L 409.936537 95.416994 
L 410.138894 95.270176 
L 410.341251 99.989332 
L 410.948323 137.029465 
L 411.15068 153.347259 
L 411.757752 225.770577 
L 412.162466 250.457008 
L 412.364823 257.105775 
L 412.56718 258.930515 
L 412.971895 240.410448 
L 414.388395 139.777063 
L 414.79311 125.892256 
L 415.197824 119.054723 
L 415.400181 125.997126 
L 416.20961 190.156678 
L 416.614325 236.551227 
L 417.019039 260.209931 
L 417.221396 264.572529 
L 417.423753 264.00623 
L 417.828468 247.436748 
L 419.244968 147.201869 
L 419.649683 133.25414 
L 419.85204 129.331997 
L 420.054397 130.800179 
L 420.256754 139.672193 
L 421.066183 206.558368 
L 421.673255 262.978502 
L 422.077969 279.443114 
L 422.280326 281.980972 
L 422.482684 281.309803 
L 422.685041 281.142011 
L 423.089755 249.659995 
L 423.899184 178.977521 
L 424.708613 138.749335 
L 424.91097 135.498361 
L 425.113327 139.588297 
L 425.518042 166.309208 
L 425.720399 178.369274 
L 426.529828 254.651813 
L 426.934542 273.633309 
L 427.136899 278.205647 
L 427.339257 279.023634 
L 427.541614 279.254348 
L 427.743971 270.46623 
L 428.148685 229.231292 
L 428.755757 165.994598 
L 429.160471 139.798037 
L 429.565186 131.366478 
L 429.9699 135.372517 
L 430.374615 151.941999 
L 430.576972 163.834273 
L 431.386401 241.45915 
L 431.791115 253.95967 
L 431.993472 251.883242 
L 432.398187 231.139928 
L 433.207616 164.65226 
L 434.017044 92.774266 
L 434.219402 87.782448 
L 435.02883 115.782775 
L 435.433545 141.308167 
L 436.040617 214.025121 
L 436.445331 237.03363 
L 436.647688 242.277137 
L 436.850045 241.584994 
L 437.25476 220.548044 
L 437.659474 184.892197 
L 438.468903 109.868099 
L 438.67126 99.92641 
L 438.873617 100.912189 
L 439.075975 108.169203 
L 439.278332 107.707774 
L 439.480689 109.993943 
L 439.885403 128.93349 
L 440.290118 154.207194 
L 440.897189 229.16837 
L 441.301904 251.946164 
L 441.504261 257.483307 
L 441.706618 258.028632 
L 442.111333 242.990254 
L 442.920762 189.884015 
L 443.527833 154.29109 
L 444.134905 131.072841 
L 444.337262 128.430114 
L 444.539619 134.97401 
L 445.146691 180.970054 
L 445.753762 251.589605 
L 446.158477 273.234802 
L 446.360834 278.289543 
L 446.563191 276.255062 
L 446.967906 256.958956 
L 448.586763 144.894726 
L 448.991478 131.4294 
L 449.193835 129.059335 
L 449.396192 135.85492 
L 450.003264 177.068884 
L 450.812693 258.762723 
L 451.217407 272.332919 
L 451.419764 272.458763 
L 451.824479 254.924476 
L 452.43155 203.475185 
L 453.038622 160.709143 
L 453.443336 143.321674 
L 453.848051 135.288621 
L 454.050408 138.728361 
L 454.252765 148.921739 
L 454.65748 177.907845 
L 454.859837 186.528171 
L 455.669266 252.575385 
L 456.07398 266.397269 
L 456.276337 267.949347 
L 456.478694 265.914866 
L 456.681052 262.747788 
L 456.883409 254.588891 
L 457.288123 227.029019 
L 457.692838 215.849862 
L 457.895195 216.562979 
L 458.299909 222.435707 
L 458.502267 222.288888 
L 458.906981 218.387719 
L 459.109338 218.933044 
L 459.514053 223.169798 
L 459.71641 227.553369 
L 460.728196 286.427466 
L 461.13291 290.936882 
L 461.537625 287.560063 
L 461.739982 278.457335 
L 462.144696 243.262916 
L 463.561197 172.706287 
L 463.763554 165.302455 
L 463.965911 166.497974 
L 464.572983 186.360379 
L 465.382412 254.672787 
L 465.584769 261.720061 
L 465.787126 264.488632 
L 465.989483 262.013697 
L 467.608341 167.630572 
L 468.620127 146.027323 
L 468.822484 149.215375 
L 469.429556 175.978235 
L 470.036627 233.824604 
L 470.441342 251.967138 
L 470.643699 254.651813 
L 470.846056 252.03006 
L 471.857842 200.098367 
L 472.869628 169.245572 
L 473.071985 169.748949 
L 473.274343 167.924208 
L 473.4767 169.203624 
L 473.679057 173.062845 
L 473.881414 179.774534 
L 474.083772 180.949079 
L 474.286129 188.772392 
L 474.8932 241.920578 
L 475.297915 258.49006 
L 475.500272 260.188957 
L 475.702629 258.112528 
L 476.107344 233.258305 
L 476.512058 210.816095 
L 477.321487 178.704859 
L 477.726201 158.150311 
L 477.928558 154.521804 
L 478.333273 159.303883 
L 478.53563 163.855247 
L 479.142702 189.275769 
L 479.952131 258.38519 
L 480.356845 268.43175 
L 480.559202 268.012269 
L 480.963917 245.486163 
L 482.785131 114.566281 
L 482.987489 108.546735 
L 483.189846 105.86206 
L 483.392203 111.608943 
L 483.999275 152.256609 
L 484.606346 224.763824 
L 485.011061 248.443501 
L 485.213418 252.931943 
L 485.415775 253.896748 
L 485.82049 233.740708 
L 486.225204 201.923107 
L 487.23699 110.182709 
L 487.439347 107.036605 
L 487.844062 113.72732 
L 488.248776 132.708815 
L 489.260562 211.759926 
L 489.665277 244.542332 
L 490.069991 259.937268 
L 490.272348 262.328308 
L 490.474705 261.174736 
L 490.677063 259.37097 
L 490.87942 249.450254 
L 491.891206 168.175897 
L 492.29592 150.117259 
L 492.498277 142.587583 
L 492.700635 140.532128 
L 492.902992 142.189076 
L 493.105349 147.096999 
L 493.712421 181.26369 
L 494.52185 254.651813 
L 495.128921 273.27675 
L 495.331278 273.423568 
L 495.533636 272.794347 
L 495.735993 265.096879 
L 496.950136 171.825377 
L 497.557208 146.992128 
L 497.759565 143.573362 
L 497.961922 146.84531 
L 498.568994 178.956547 
L 499.378422 254.190385 
L 499.58078 261.153762 
L 499.783137 263.691619 
L 499.985494 260.314801 
L 500.187851 251.631553 
L 500.794923 214.004147 
L 500.99728 208.802588 
L 501.401995 195.463107 
L 501.806709 183.990314 
L 502.009066 183.528885 
L 502.211423 185.626288 
L 502.413781 186.276483 
L 502.616138 184.577586 
L 503.020852 194.477327 
L 503.223209 195.043626 
L 503.425567 202.699146 
L 504.032638 254.358177 
L 504.437353 267.676685 
L 504.63971 269.333633 
L 504.842067 266.92162 
L 505.246782 242.088371 
L 505.651496 217.82142 
L 507.270354 143.279725 
L 507.472711 140.112647 
L 507.675068 143.573362 
L 508.28214 172.139988 
L 508.889211 231.265772 
L 509.293926 248.716164 
L 509.496283 252.302722 
L 509.69864 250.436034 
L 510.103354 226.441746 
L 511.722212 118.04797 
L 512.126927 99.947384 
L 512.329284 101.562384 
L 512.936355 136.589011 
L 513.34107 176.271871 
L 513.745784 220.569018 
L 514.150499 243.724345 
L 514.352856 249.408306 
L 514.555213 249.911683 
L 514.75757 240.850903 
L 516.174071 142.251998 
L 516.376428 141.140375 
L 516.781142 150.641609 
L 516.9835 147.852064 
L 517.185857 148.397388 
L 517.590571 166.435052 
L 517.792928 170.755702 
L 517.995286 181.662196 
L 518.4 222.079148 
L 518.4 222.079148 
" clip-path="url(#p2dca77f6b2)" style="fill: none; stroke: #1f77b4; stroke-width: 1.5; stroke-linecap: square"/>
   </g>
   <g id="line2d_14">
    <path d="M 72 276.215943 
L 72.202357 276.215943 
L 72.607072 283.906255 
L 72.809429 285.175709 
L 73.011786 279.875285 
L 73.618858 247.600969 
L 74.023572 233.496283 
L 75.237715 167.045331 
L 75.440073 163.127434 
L 75.64243 165.584639 
L 76.047144 187.864106 
L 77.05893 268.389157 
L 77.261287 279.020764 
L 77.463645 280.339421 
L 77.666002 275.587173 
L 77.868359 262.873041 
L 78.273073 233.134963 
L 78.475431 227.781404 
L 79.284859 191.379941 
L 79.689574 160.344204 
L 79.891931 154.956182 
L 80.094288 154.39757 
L 80.296646 159.429171 
L 80.70136 185.123072 
L 81.713146 264.562174 
L 81.915503 276.30127 
L 82.11786 281.051957 
L 82.320218 282.447181 
L 82.522575 277.880228 
L 83.939075 227.157515 
L 84.141432 227.56528 
L 84.546147 234.001404 
L 84.748504 235.692664 
L 84.950861 238.42649 
L 85.557933 251.634348 
L 85.76029 253.086204 
L 86.165005 270.032577 
L 86.772076 301.748488 
L 86.974433 305.547699 
L 87.176791 305.741283 
L 87.986219 275.699405 
L 88.390934 260.249957 
L 88.795648 252.803139 
L 88.998005 251.533431 
L 89.200363 255.04866 
L 89.605077 253.644873 
L 90.009791 242.199806 
L 90.414506 237.703476 
L 90.616863 238.544265 
L 90.81922 246.96479 
L 91.426292 295.647996 
L 91.628649 305.043477 
L 91.831006 305.752464 
L 92.033364 300.378538 
L 92.438078 276.968585 
L 92.842792 251.378818 
L 93.247507 243.952165 
L 93.449864 244.107987 
L 94.056936 235.387116 
L 94.259293 234.467215 
L 94.46165 232.980347 
L 94.664007 224.863332 
L 94.866364 224.913943 
L 95.473436 238.033652 
L 96.485222 300.825478 
L 96.687579 299.133428 
L 96.889937 293.214912 
L 97.294651 267.210191 
L 97.699365 246.895263 
L 98.10408 242.865213 
L 98.306437 243.749101 
L 99.52058 223.588527 
L 99.722937 224.754585 
L 100.330009 240.072229 
L 101.341795 299.67459 
L 101.544152 298.479614 
L 101.74651 294.261647 
L 102.151224 268.821399 
L 102.555938 246.609955 
L 102.960653 242.976527 
L 103.16301 244.535796 
L 103.365367 242.962431 
L 104.377153 218.487514 
L 104.57951 221.265673 
L 105.186582 239.12722 
L 105.591296 265.799351 
L 106.198368 297.044233 
L 106.400725 296.390514 
L 106.603083 292.624305 
L 106.80544 283.780695 
L 107.412511 245.80588 
L 107.817226 239.628745 
L 108.019583 241.983535 
L 108.22194 237.435539 
L 109.031369 203.634654 
L 109.233726 204.129719 
L 110.043155 234.965739 
L 111.054941 290.869557 
L 111.257298 292.417424 
L 111.459655 291.196263 
L 111.662013 284.149355 
L 112.269084 243.676398 
L 112.673799 231.319703 
L 113.078513 216.761092 
L 113.685585 185.260772 
L 113.887942 180.074976 
L 114.090299 180.446044 
L 114.292656 183.127961 
L 114.697371 202.863395 
L 115.102085 228.086797 
L 115.709157 271.663382 
L 115.911514 281.497464 
L 116.113871 284.024393 
L 116.316228 283.284513 
L 116.720943 271.774391 
L 117.125657 256.767793 
L 117.732729 215.754866 
L 118.542158 157.749793 
L 118.744515 150.940298 
L 118.946872 148.161056 
L 119.149229 150.559062 
L 119.351587 158.06535 
L 119.756301 183.148005 
L 120.56573 258.635901 
L 120.970444 277.62596 
L 121.172801 281.958408 
L 121.375159 279.480255 
L 121.779873 270.580995 
L 121.98223 260.941615 
L 122.386945 230.033554 
L 122.589302 222.387271 
L 122.994016 202.036287 
L 123.398731 193.632648 
L 123.601088 192.541217 
L 123.803445 194.063836 
L 124.005802 199.579257 
L 124.410517 216.590588 
L 124.612874 219.938789 
L 125.017588 252.293157 
L 125.422303 283.261756 
L 125.62466 293.699747 
L 125.827017 296.257245 
L 126.029374 294.571317 
L 126.231732 287.663603 
L 127.243518 217.916641 
L 127.445875 213.231913 
L 128.052947 180.309277 
L 128.457661 156.491654 
L 128.660018 150.721676 
L 128.862375 153.454453 
L 129.26709 185.528661 
L 130.076519 267.89902 
L 130.481233 286.27784 
L 130.68359 286.31355 
L 130.885947 281.280174 
L 131.290662 258.608875 
L 131.695376 233.51783 
L 132.100091 209.307124 
L 133.314234 137.298767 
L 133.516591 135.631398 
L 133.718948 142.021332 
L 134.123663 165.117849 
L 134.32602 177.901339 
L 134.933092 244.3439 
L 135.337806 268.171949 
L 135.540163 272.561647 
L 135.74252 271.64885 
L 135.944878 265.732105 
L 136.956664 197.325262 
L 137.159021 200.21024 
L 137.361378 195.016602 
L 137.563735 194.307213 
L 137.766092 194.444719 
L 137.96845 193.303151 
L 138.170807 195.818915 
L 138.373164 196.323077 
L 138.777879 207.632504 
L 139.182593 217.936836 
L 139.992022 274.450607 
L 140.194379 284.238562 
L 140.396736 285.724675 
L 140.801451 272.549083 
L 141.206165 245.255757 
L 141.610879 222.68176 
L 142.420308 207.531767 
L 142.622665 212.953998 
L 143.02738 210.889356 
L 143.229737 213.170132 
L 143.432094 213.145122 
L 143.634451 218.68249 
L 143.836809 219.048739 
L 144.039166 226.542267 
L 145.050952 283.433824 
L 145.253309 283.088604 
L 145.455666 278.480233 
L 145.658024 269.058306 
L 146.265095 224.800434 
L 146.66981 213.904285 
L 146.872167 215.507697 
L 147.074524 215.078532 
L 147.479238 209.651913 
L 147.681596 205.85744 
L 148.288667 219.980519 
L 148.693382 231.14608 
L 148.895739 235.951121 
L 149.300453 258.965054 
L 149.907525 283.594005 
L 150.109882 284.680737 
L 150.312239 283.31331 
L 150.514597 276.583768 
L 150.919311 258.771387 
L 151.72874 234.354136 
L 151.931097 229.927384 
L 152.335811 226.304415 
L 152.740526 234.225578 
L 152.942883 232.410726 
L 153.347597 237.770901 
L 153.549955 237.752909 
L 153.752312 239.239045 
L 154.157026 251.394899 
L 154.764098 283.095268 
L 155.168812 287.38854 
L 155.37117 282.51681 
L 156.382956 234.653938 
L 156.990027 191.566854 
L 157.799456 162.64465 
L 158.001813 161.788447 
L 158.20417 165.88121 
L 158.608885 183.334905 
L 159.013599 226.013051 
L 159.418314 264.254574 
L 159.823028 281.094038 
L 160.025385 278.300404 
L 160.227743 269.966675 
L 161.441886 191.745966 
L 161.8466 181.582359 
L 162.251315 170.767243 
L 162.453672 169.974732 
L 162.656029 173.425244 
L 162.858386 180.563902 
L 163.870172 248.632687 
L 164.274887 276.453226 
L 164.477244 284.675284 
L 164.679601 286.667346 
L 165.084316 272.709678 
L 165.691387 230.259579 
L 166.096102 213.831591 
L 166.298459 215.458131 
L 166.500816 213.712188 
L 167.310245 169.512061 
L 167.512602 168.903239 
L 167.714959 174.124579 
L 169.333817 276.964641 
L 169.536174 278.408228 
L 169.738531 275.685542 
L 169.940888 269.203782 
L 170.54796 222.561577 
L 171.155032 186.553467 
L 171.964461 152.539783 
L 172.166818 150.797867 
L 172.369175 153.056761 
L 172.773889 172.384485 
L 173.380961 215.455958 
L 173.988033 271.356968 
L 174.19039 282.458929 
L 174.392747 286.695805 
L 174.595104 282.737802 
L 174.797461 273.396099 
L 175.60689 217.414279 
L 175.809248 212.061453 
L 176.821034 170.87377 
L 177.023391 166.365921 
L 177.225748 164.968101 
L 177.428105 169.94869 
L 177.630462 177.857927 
L 179.046963 288.29501 
L 179.24932 289.605608 
L 179.451677 285.878886 
L 179.654034 278.458584 
L 181.475249 165.460971 
L 181.879964 149.947621 
L 182.082321 150.254475 
L 182.284678 151.335741 
L 182.689393 175.427044 
L 182.89175 189.018429 
L 183.296464 229.615688 
L 183.701179 255.279552 
L 183.903536 264.213755 
L 184.105893 266.672954 
L 184.30825 266.835052 
L 184.915322 252.128281 
L 185.117679 242.411146 
L 186.129465 144.345968 
L 186.53418 134.519264 
L 186.938894 148.021926 
L 187.545966 188.631695 
L 187.95068 208.949773 
L 188.557752 253.045076 
L 188.962466 266.996213 
L 189.164823 269.682004 
L 189.36718 267.257356 
L 189.771895 251.539662 
L 191.188395 155.816102 
L 191.390752 151.93358 
L 191.59311 151.783625 
L 191.795467 159.174164 
L 193.819039 276.111445 
L 194.021396 276.528518 
L 194.223753 271.307497 
L 194.830825 243.082178 
L 195.437897 203.720885 
L 195.842611 185.027745 
L 196.044968 188.474744 
L 196.247325 194.460347 
L 196.65204 210.888623 
L 196.854397 213.173924 
L 197.056754 218.77402 
L 197.259112 220.265879 
L 197.461469 222.6189 
L 197.663826 230.595632 
L 198.473255 287.367923 
L 198.675612 290.945187 
L 198.877969 284.766886 
L 199.080326 274.126296 
L 199.889755 213.189579 
L 200.29447 200.708717 
L 200.901541 184.343481 
L 201.306256 168.967637 
L 201.508613 165.258162 
L 201.71097 164.244104 
L 202.115684 184.097693 
L 202.722756 230.016617 
L 203.127471 261.956498 
L 203.329828 270.692979 
L 203.532185 272.83634 
L 203.734542 266.61578 
L 204.139257 241.907685 
L 204.543971 217.887639 
L 205.151043 192.548872 
L 205.555757 178.694622 
L 205.960471 161.859564 
L 206.162829 162.828116 
L 206.567543 178.518179 
L 206.972257 199.372528 
L 207.174615 204.555444 
L 208.186401 268.56127 
L 208.388758 271.978468 
L 208.591115 269.229113 
L 208.793472 260.35449 
L 209.602901 202.198706 
L 210.007616 192.618957 
L 210.209973 187.616378 
L 210.614687 164.056359 
L 211.019402 142.485245 
L 211.221759 138.906942 
L 211.424116 143.97664 
L 212.031188 182.109941 
L 212.638259 241.279065 
L 213.042974 262.473867 
L 213.245331 264.032416 
L 213.447688 261.660828 
L 213.650045 255.159994 
L 215.875975 111.695453 
L 216.078332 113.274487 
L 216.280689 120.275231 
L 216.685403 146.701574 
L 217.090118 177.652079 
L 217.697189 236.592037 
L 218.101904 255.418629 
L 218.304261 257.839968 
L 218.506618 253.769768 
L 219.11369 230.741911 
L 220.327833 144.564743 
L 220.53019 143.704189 
L 220.732548 149.784879 
L 221.744334 215.890454 
L 222.958477 275.091481 
L 223.160834 277.934567 
L 223.363191 274.763807 
L 223.767906 258.326555 
L 224.374977 220.123264 
L 224.982049 207.447946 
L 225.184406 210.80678 
L 225.589121 224.087716 
L 226.398549 239.0745 
L 226.600907 238.716881 
L 226.803264 244.381993 
L 227.612693 298.771394 
L 227.81505 302.428168 
L 228.017407 298.493744 
L 228.219764 289.396154 
L 229.029193 238.242966 
L 229.23155 235.055927 
L 229.433908 236.687224 
L 229.636265 233.688411 
L 230.040979 217.282533 
L 230.648051 190.337366 
L 230.850408 187.509832 
L 231.052765 192.00728 
L 231.659837 226.53597 
L 232.266908 278.179425 
L 232.469266 288.179809 
L 232.671623 290.48697 
L 232.87398 286.02333 
L 233.278694 263.660055 
L 233.683409 241.086762 
L 234.290481 218.977776 
L 235.302267 178.835858 
L 235.504624 180.22164 
L 235.909338 193.686318 
L 236.718767 247.161291 
L 237.123481 276.089351 
L 237.325839 284.405126 
L 237.528196 286.327114 
L 237.730553 282.981761 
L 237.93291 275.616047 
L 238.944696 217.666464 
L 239.147053 210.420853 
L 239.349411 207.48596 
L 239.754125 195.97065 
L 240.15884 191.278581 
L 240.361197 193.640166 
L 240.765911 206.350549 
L 241.372983 238.371794 
L 241.980054 280.497059 
L 242.182412 287.899675 
L 242.384769 291.22032 
L 242.587126 287.158189 
L 242.789483 278.912437 
L 243.396555 240.820137 
L 245.015413 182.76105 
L 245.21777 180.315486 
L 245.420127 182.250737 
L 245.824841 199.286675 
L 246.431913 242.794042 
L 246.836627 271.514886 
L 247.241342 286.629706 
L 247.443699 284.800665 
L 247.646056 277.750533 
L 249.669628 143.884056 
L 249.871985 139.386592 
L 250.074343 142.035998 
L 250.2767 148.037841 
L 250.883772 191.778586 
L 251.895558 262.499727 
L 252.097915 269.208025 
L 252.300272 269.591956 
L 252.502629 265.718688 
L 252.907344 249.95244 
L 253.312058 222.986499 
L 254.323844 140.24161 
L 254.526201 136.429605 
L 254.728558 137.800562 
L 255.133273 149.830088 
L 255.740345 185.458051 
L 256.954488 275.644156 
L 257.156845 275.984133 
L 257.359202 272.891717 
L 257.763917 259.296175 
L 258.168631 230.371522 
L 259.180417 166.996759 
L 259.382774 163.109914 
L 259.585131 161.987223 
L 259.787489 163.080674 
L 259.989846 167.943 
L 260.596917 197.26159 
L 261.608704 277.997685 
L 261.811061 283.104519 
L 262.013418 280.546307 
L 262.215775 274.487941 
L 263.227561 211.252632 
L 263.632276 216.277053 
L 264.239347 227.05325 
L 264.441704 227.914084 
L 264.644062 227.715314 
L 264.846419 225.654668 
L 265.048776 228.313481 
L 265.655848 251.418918 
L 266.262919 285.969756 
L 266.465277 291.526506 
L 266.667634 292.980528 
L 267.072348 278.983022 
L 267.67942 247.67852 
L 268.084134 236.303171 
L 268.488849 230.236895 
L 268.893563 220.232178 
L 269.09592 219.508709 
L 269.500635 216.639431 
L 269.702992 216.160514 
L 269.905349 219.079397 
L 270.310063 228.730443 
L 270.512421 236.627142 
L 271.119492 274.321682 
L 271.32185 282.115926 
L 271.524207 283.633027 
L 271.726564 280.190893 
L 271.928921 273.112085 
L 272.535993 231.817981 
L 272.73835 225.921512 
L 273.750136 169.535611 
L 273.952493 156.040891 
L 274.357208 145.9752 
L 274.559565 144.578485 
L 274.761922 149.833898 
L 275.166636 170.228764 
L 275.368994 184.262776 
L 275.773708 225.810714 
L 276.178422 253.406727 
L 276.38078 258.318442 
L 276.583137 257.773945 
L 276.785494 250.924022 
L 277.999637 173.403436 
L 278.606709 140.487149 
L 279.011423 134.554235 
L 279.213781 135.861016 
L 279.618495 150.544415 
L 280.225567 197.195097 
L 280.832638 260.531502 
L 281.237353 274.064535 
L 281.43971 273.652801 
L 281.642067 264.597851 
L 282.249139 225.231272 
L 283.463282 164.478201 
L 283.867996 154.6163 
L 284.070354 155.567712 
L 284.272711 158.821579 
L 284.879782 202.889865 
L 285.689211 272.391706 
L 286.093926 282.408152 
L 286.296283 281.357951 
L 286.49864 278.318676 
L 286.903354 265.792439 
L 287.308069 239.388493 
L 287.712783 205.719618 
L 288.117498 177.287293 
L 288.522212 160.52022 
L 288.724569 155.578517 
L 288.926927 154.944937 
L 289.129284 158.458863 
L 289.736355 192.830504 
L 290.545784 259.636707 
L 290.950499 273.711325 
L 291.152856 275.727253 
L 291.355213 273.692377 
L 291.759927 261.091194 
L 291.962285 248.322386 
L 292.974071 151.170929 
L 293.378785 134.210307 
L 293.581142 129.976732 
L 293.7835 130.119519 
L 293.985857 134.466308 
L 294.795286 179.459751 
L 295.604714 255.042225 
L 295.807072 262.297326 
L 296.009429 261.959091 
L 296.211786 257.495333 
L 296.818858 211.758749 
L 298.033001 94.44391 
L 298.437715 82.734987 
L 298.640073 85.9401 
L 299.044787 103.96297 
L 299.651859 146.982951 
L 300.25893 220.416706 
L 300.663645 240.115068 
L 300.866002 238.649931 
L 301.068359 230.763499 
L 301.675431 190.88271 
L 302.080145 143.368372 
L 302.687217 78.995166 
L 302.889574 66.436424 
L 303.091931 66.73901 
L 303.496646 90.929879 
L 304.508432 171.486794 
L 304.913146 217.255867 
L 305.31786 243.996813 
L 305.520218 249.655318 
L 305.722575 247.61847 
L 305.924932 240.168903 
L 307.948504 109.02334 
L 308.150861 111.652881 
L 308.555576 134.063067 
L 310.174433 258.683725 
L 310.376791 262.59845 
L 310.579148 260.34528 
L 310.781505 251.400238 
L 312.60272 112.899858 
L 312.805077 109.980479 
L 313.007434 113.272792 
L 313.614506 146.057661 
L 314.423935 209.224892 
L 314.828649 241.12107 
L 315.031006 250.327633 
L 315.233364 254.296095 
L 315.435721 251.526031 
L 315.638078 243.795727 
L 316.24515 207.177011 
L 316.649864 191.192871 
L 317.459293 175.591853 
L 317.66165 172.730974 
L 317.864007 173.926791 
L 318.875793 209.468359 
L 319.887579 267.513497 
L 320.089937 272.542757 
L 320.292294 271.131656 
L 320.494651 265.986144 
L 321.506437 218.57659 
L 321.911151 192.200526 
L 322.518223 158.054003 
L 322.72058 154.829997 
L 323.125295 159.549896 
L 323.530009 174.735192 
L 323.934723 202.838369 
L 324.339438 235.486552 
L 324.744152 259.246704 
L 324.94651 266.371438 
L 325.148867 267.753359 
L 325.351224 265.163147 
L 325.755938 252.517322 
L 325.958296 241.661148 
L 327.172439 133.166631 
L 327.374796 126.056547 
L 327.577153 126.817191 
L 327.77951 130.122259 
L 328.184225 147.390684 
L 328.791296 190.189122 
L 329.398368 251.944566 
L 329.803083 270.974445 
L 330.00544 269.287459 
L 330.207797 262.106026 
L 331.017226 199.909677 
L 331.624297 153.517539 
L 331.826655 144.174263 
L 332.231369 138.498101 
L 332.433726 141.813917 
L 332.838441 155.207379 
L 333.445512 193.890567 
L 334.457298 271.110848 
L 334.659655 275.65951 
L 334.862013 272.089031 
L 335.06437 264.303682 
L 335.873799 214.198883 
L 336.683228 181.186476 
L 336.885585 174.13498 
L 337.087942 175.024978 
L 337.290299 173.933582 
L 337.897371 195.505677 
L 338.504442 222.193723 
L 339.111514 267.100921 
L 339.313871 275.749813 
L 339.516228 279.527114 
L 339.718586 275.536816 
L 340.1233 250.792607 
L 340.528015 223.699083 
L 341.135086 196.783441 
L 341.539801 180.629794 
L 342.146872 153.922546 
L 342.349229 151.522667 
L 342.551587 151.985293 
L 342.753944 155.698385 
L 343.361015 188.529847 
L 343.968087 241.74048 
L 344.170444 251.358839 
L 344.372801 254.935077 
L 344.575159 252.296706 
L 344.777516 244.264807 
L 345.586945 195.615953 
L 346.194016 136.425993 
L 346.598731 110.906247 
L 346.801088 105.984791 
L 347.003445 107.056348 
L 347.40816 119.66295 
L 348.015231 153.380855 
L 348.217588 167.487551 
L 348.82466 232.214944 
L 349.229374 252.602579 
L 349.431732 254.187105 
L 349.634089 247.12024 
L 350.443518 191.242957 
L 351.252947 121.035677 
L 351.657661 105.883619 
L 351.860018 105.930204 
L 352.062375 109.166822 
L 352.264733 114.927528 
L 352.669447 137.250111 
L 353.276519 200.928891 
L 353.681233 242.849658 
L 354.085947 257.949926 
L 354.288305 258.181124 
L 354.693019 245.128168 
L 354.895376 237.734006 
L 355.300091 208.578431 
L 356.311877 105.3825 
L 356.514234 101.772049 
L 356.716591 101.145484 
L 357.121306 113.293333 
L 357.52602 137.345587 
L 358.133092 194.511162 
L 358.537806 237.288289 
L 358.94252 252.871366 
L 359.144878 255.40999 
L 359.347235 253.198936 
L 359.751949 236.577362 
L 360.156664 202.821522 
L 361.16845 95.388492 
L 361.573164 88.652477 
L 361.775521 90.869023 
L 361.977879 96.427098 
L 362.58495 134.840396 
L 362.989665 173.933028 
L 363.596736 238.653623 
L 363.799093 243.523149 
L 364.001451 243.748734 
L 364.203808 239.075048 
L 364.810879 191.215995 
L 365.215594 139.105629 
L 365.620308 85.512247 
L 366.025023 59.985818 
L 366.22738 56.481012 
L 366.429737 55.8 
L 366.632094 59.729474 
L 367.036809 78.710738 
L 367.64388 126.738311 
L 368.250952 202.747357 
L 368.655666 225.381711 
L 368.858024 226.635769 
L 369.060381 219.770083 
L 369.667452 181.706301 
L 370.881596 60.567876 
L 371.083953 57.265133 
L 371.28631 60.435868 
L 371.691024 80.750271 
L 372.095739 110.50572 
L 373.309882 220.964665 
L 373.512239 229.560448 
L 373.714597 229.089071 
L 373.916954 224.761153 
L 374.726383 179.15599 
L 375.738169 85.126851 
L 375.940526 83.154864 
L 376.142883 86.084162 
L 376.547597 104.632948 
L 378.166455 237.353092 
L 378.368812 239.968263 
L 378.57117 239.071445 
L 378.773527 234.204821 
L 379.380598 189.386923 
L 380.392384 97.378892 
L 380.797099 88.178307 
L 380.999456 86.15971 
L 381.201813 87.072194 
L 381.40417 90.342521 
L 381.808885 115.532311 
L 382.415956 166.543256 
L 383.023028 223.506407 
L 383.225385 229.976814 
L 383.427743 229.945201 
L 383.832457 207.288623 
L 384.237171 187.846771 
L 384.237171 187.846771 
" clip-path="url(#p2dca77f6b2)" style="fill: none; stroke: #ff7f0e; stroke-width: 1.5; stroke-linecap: square"/>
   </g>
   <g id="line2d_15">
    <path d="M 384.439529 172.722475 
L 385.248957 121.137436 
L 385.653672 108.074872 
L 385.856029 105.272867 
L 386.058386 107.120198 
L 386.463101 127.123465 
L 387.070172 182.047055 
L 387.677244 234.341958 
L 387.879601 241.673878 
L 388.081958 244.428074 
L 388.284316 242.873113 
L 388.486673 235.321647 
L 390.510245 115.548079 
L 390.712602 112.033538 
L 390.914959 115.05965 
L 391.319674 133.715469 
L 391.926745 183.606126 
L 392.33146 220.131817 
L 392.736174 238.202471 
L 392.938531 240.497314 
L 393.140888 238.318029 
L 393.343246 231.108175 
L 395.164461 133.510265 
L 395.366818 127.742366 
L 395.569175 126.544759 
L 395.771532 131.249632 
L 396.176247 152.469549 
L 397.39039 240.608718 
L 397.592747 245.756281 
L 397.795104 246.748385 
L 397.997461 242.946411 
L 398.604533 214.511464 
L 400.021034 145.622041 
L 400.223391 141.855768 
L 400.425748 142.443164 
L 400.628105 147.738957 
L 401.03282 169.014394 
L 402.246963 243.6594 
L 402.44932 246.473172 
L 402.651677 245.169905 
L 402.854034 240.69371 
L 403.461106 213.026572 
L 404.675249 159.888083 
L 404.877607 155.350434 
L 405.079964 153.526777 
L 405.282321 156.450109 
L 405.687035 173.577945 
L 406.901179 241.622909 
L 407.103536 244.744625 
L 407.305893 244.896606 
L 407.50825 241.51299 
L 407.912965 226.967938 
L 409.127108 176.142387 
L 409.531822 165.819153 
L 409.73418 164.056636 
L 409.936537 165.405508 
L 410.138894 170.304678 
L 410.745966 201.616559 
L 411.353037 233.473417 
L 411.757752 242.359993 
L 411.960109 242.149373 
L 412.162466 239.171219 
L 412.56718 226.502076 
L 413.781324 181.716915 
L 414.186038 173.784296 
L 414.388395 172.752463 
L 414.590752 173.883945 
L 414.79311 178.156232 
L 415.197824 195.667113 
L 415.804896 224.991046 
L 416.20961 237.578948 
L 416.411967 239.609581 
L 416.614325 238.97062 
L 416.816682 235.885738 
L 417.221396 224.476967 
L 418.233182 191.73331 
L 418.637897 181.981239 
L 418.840254 179.686174 
L 419.042611 179.730908 
L 419.244968 181.859406 
L 419.447325 186.212853 
L 419.85204 202.297137 
L 420.459112 226.571721 
L 420.863826 235.521178 
L 421.066183 236.497217 
L 421.26854 234.786516 
L 421.673255 226.784169 
L 423.089755 189.715633 
L 423.292112 186.638055 
L 423.49447 185.737701 
L 423.696827 186.599466 
L 423.899184 189.524177 
L 424.303898 201.854587 
L 424.91097 222.612048 
L 425.315684 231.409423 
L 425.518042 232.981083 
L 425.720399 232.490437 
L 425.922756 230.29003 
L 426.327471 222.401041 
L 427.339257 198.81583 
L 427.743971 192.769915 
L 427.946328 191.432123 
L 428.148685 192.148478 
L 428.351043 194.1351 
L 428.755757 203.806508 
L 429.160471 216.470105 
L 429.767543 228.144696 
L 429.9699 229.652713 
L 430.172257 229.576962 
L 430.374615 228.081849 
L 430.779329 222.107639 
L 431.993472 200.025821 
L 432.398187 196.821345 
L 432.600544 197.566501 
L 432.802901 199.53439 
L 433.207616 208.076217 
L 433.814687 220.6526 
L 434.219402 225.681764 
L 434.421759 226.638247 
L 434.624116 226.577502 
L 434.826473 225.480494 
L 435.231188 220.796106 
L 436.242974 204.711023 
L 436.647688 201.992175 
L 436.850045 201.70577 
L 437.052403 202.882393 
L 437.457117 209.064429 
L 438.064189 219.159167 
L 438.468903 222.483199 
L 438.67126 223.636317 
L 438.873617 224.037288 
L 439.075975 223.691139 
L 439.480689 221.065719 
L 440.087761 213.278872 
L 440.492475 207.81855 
L 440.897189 205.521526 
L 441.099547 205.543253 
L 441.301904 206.59406 
L 441.504261 208.573015 
L 442.111333 216.938823 
L 442.516047 220.053217 
L 442.920762 221.157551 
L 443.123119 221.357246 
L 443.325476 221.357507 
L 443.527833 220.827452 
L 443.932548 218.44915 
L 444.944334 208.267153 
L 445.146691 207.885237 
L 445.349048 208.087836 
L 445.551405 209.13774 
L 446.563191 218.802229 
L 446.765549 219.467978 
L 446.967906 219.670858 
L 447.574977 218.963853 
L 447.979692 218.043879 
L 448.384406 215.910725 
L 449.193835 209.650053 
L 449.396192 209.323623 
L 449.598549 209.655893 
L 449.800907 210.661532 
L 450.610335 217.305323 
L 450.812693 218.379865 
L 451.01505 218.752134 
L 451.217407 218.697771 
L 451.622121 217.778955 
L 452.43155 215.758582 
L 452.836265 213.721348 
L 453.240979 211.262493 
L 453.443336 210.592568 
L 453.645694 210.446464 
L 453.848051 210.846698 
L 454.252765 213.146653 
L 454.859837 216.866963 
L 455.062194 217.715979 
L 455.264551 217.965856 
L 455.466908 217.844376 
L 456.07398 216.421586 
L 456.883409 214.38922 
L 457.692838 211.509005 
L 457.895195 211.372836 
L 458.097552 211.726536 
L 458.704624 214.501194 
L 459.109338 216.494456 
L 459.311695 217.112522 
L 459.514053 217.321459 
L 459.71641 217.228627 
L 460.121124 216.418059 
L 460.728196 215.214466 
L 461.13291 214.29236 
L 461.942339 212.436314 
L 462.144696 212.449585 
L 462.549411 213.26889 
L 463.763554 216.843334 
L 463.965911 216.813701 
L 464.168268 216.568658 
L 464.977697 215.052101 
L 466.19184 213.43958 
L 466.596555 213.760569 
L 467.001269 214.392914 
L 467.810698 216.264947 
L 468.013055 216.477273 
L 468.215413 216.481431 
L 468.41777 216.345967 
L 469.631913 214.580213 
L 470.036627 214.230276 
L 470.441342 214.299877 
L 470.846056 214.463453 
L 471.250771 214.822654 
L 472.262557 216.156274 
L 472.667271 216.124759 
L 473.071985 215.688297 
L 473.881414 214.704631 
L 474.286129 214.56909 
L 474.8932 214.765898 
L 476.107344 215.555444 
L 476.714415 215.888883 
L 477.11913 215.816667 
L 478.333273 214.738272 
L 478.737987 214.760992 
L 480.356845 215.45759 
L 481.368631 215.612773 
L 482.987489 214.849558 
L 484.808704 215.406334 
L 486.022847 215.296489 
L 487.034633 214.95842 
L 487.439347 214.977384 
L 488.855848 215.383537 
L 489.867634 215.266813 
L 491.688849 215.031182 
L 493.510063 215.319404 
L 496.140707 215.113213 
L 496.950136 215.225503 
L 497.557208 215.317636 
L 500.390209 215.149683 
L 503.223209 215.111779 
L 504.437353 215.151394 
L 506.663282 215.233474 
L 508.079782 215.111132 
L 508.889211 215.162717 
L 509.69864 215.205317 
L 517.995286 215.19037 
L 518.4 215.202271 
L 518.4 215.202271 
" clip-path="url(#p2dca77f6b2)" style="fill: none; stroke: #2ca02c; stroke-width: 1.5; stroke-linecap: square"/>
   </g>
   <g id="patch_3">
    <path d="M 72 320.4 
L 72 43.2 
" style="fill: none; stroke: #000000; stroke-width: 0.8; stroke-linejoin: miter; stroke-linecap: square"/>
   </g>
   <g id="patch_4">
    <path d="M 518.4 320.4 
L 518.4 43.2 
" style="fill: none; stroke: #000000; stroke-width: 0.8; stroke-linejoin: miter; stroke-linecap: square"/>
   </g>
   <g id="patch_5">
    <path d="M 72 320.4 
L 518.4 320.4 
" style="fill: none; stroke: #000000; stroke-width: 0.8; stroke-linejoin: miter; stroke-linecap: square"/>
   </g>
   <g id="patch_6">
    <path d="M 72 43.2 
L 518.4 43.2 
" style="fill: none; stroke: #000000; stroke-width: 0.8; stroke-linejoin: miter; stroke-linecap: square"/>
   </g>
   <g id="text_13">
    <!-- Classic Transformer - model_20231123162629 -->
    <g transform="translate(155.436563 37.2) scale(0.12 -0.12)">
     <defs>
      <path id="DejaVuSans-43" d="M 4122 4306 
L 4122 3641 
Q 3803 3938 3442 4084 
Q 3081 4231 2675 4231 
Q 1875 4231 1450 3742 
Q 1025 3253 1025 2328 
Q 1025 1406 1450 917 
Q 1875 428 2675 428 
Q 3081 428 3442 575 
Q 3803 722 4122 1019 
L 4122 359 
Q 3791 134 3420 21 
Q 3050 -91 2638 -91 
Q 1578 -91 968 557 
Q 359 1206 359 2328 
Q 359 3453 968 4101 
Q 1578 4750 2638 4750 
Q 3056 4750 3426 4639 
Q 3797 4528 4122 4306 
z
" transform="scale(0.015625)"/>
      <path id="DejaVuSans-6c" d="M 603 4863 
L 1178 4863 
L 1178 0 
L 603 0 
L 603 4863 
z
" transform="scale(0.015625)"/>
      <path id="DejaVuSans-61" d="M 2194 1759 
Q 1497 1759 1228 1600 
Q 959 1441 959 1056 
Q 959 750 1161 570 
Q 1363 391 1709 391 
Q 2188 391 2477 730 
Q 2766 1069 2766 1631 
L 2766 1759 
L 2194 1759 
z
M 3341 1997 
L 3341 0 
L 2766 0 
L 2766 531 
Q 2569 213 2275 61 
Q 1981 -91 1556 -91 
Q 1019 -91 701 211 
Q 384 513 384 1019 
Q 384 1609 779 1909 
Q 1175 2209 1959 2209 
L 2766 2209 
L 2766 2266 
Q 2766 2663 2505 2880 
Q 2244 3097 1772 3097 
Q 1472 3097 1187 3025 
Q 903 2953 641 2809 
L 641 3341 
Q 956 3463 1253 3523 
Q 1550 3584 1831 3584 
Q 2591 3584 2966 3190 
Q 3341 2797 3341 1997 
z
" transform="scale(0.015625)"/>
      <path id="DejaVuSans-73" d="M 2834 3397 
L 2834 2853 
Q 2591 2978 2328 3040 
Q 2066 3103 1784 3103 
Q 1356 3103 1142 2972 
Q 928 2841 928 2578 
Q 928 2378 1081 2264 
Q 1234 2150 1697 2047 
L 1894 2003 
Q 2506 1872 2764 1633 
Q 3022 1394 3022 966 
Q 3022 478 2636 193 
Q 2250 -91 1575 -91 
Q 1294 -91 989 -36 
Q 684 19 347 128 
L 347 722 
Q 666 556 975 473 
Q 1284 391 1588 391 
Q 1994 391 2212 530 
Q 2431 669 2431 922 
Q 2431 1156 2273 1281 
Q 2116 1406 1581 1522 
L 1381 1569 
Q 847 1681 609 1914 
Q 372 2147 372 2553 
Q 372 3047 722 3315 
Q 1072 3584 1716 3584 
Q 2034 3584 2315 3537 
Q 2597 3491 2834 3397 
z
" transform="scale(0.015625)"/>
      <path id="DejaVuSans-69" d="M 603 3500 
L 1178 3500 
L 1178 0 
L 603 0 
L 603 3500 
z
M 603 4863 
L 1178 4863 
L 1178 4134 
L 603 4134 
L 603 4863 
z
" transform="scale(0.015625)"/>
      <path id="DejaVuSans-63" d="M 3122 3366 
L 3122 2828 
Q 2878 2963 2633 3030 
Q 2388 3097 2138 3097 
Q 1578 3097 1268 2742 
Q 959 2388 959 1747 
Q 959 1106 1268 751 
Q 1578 397 2138 397 
Q 2388 397 2633 464 
Q 2878 531 3122 666 
L 3122 134 
Q 2881 22 2623 -34 
Q 2366 -91 2075 -91 
Q 1284 -91 818 406 
Q 353 903 353 1747 
Q 353 2603 823 3093 
Q 1294 3584 2113 3584 
Q 2378 3584 2631 3529 
Q 2884 3475 3122 3366 
z
" transform="scale(0.015625)"/>
      <path id="DejaVuSans-20" transform="scale(0.015625)"/>
      <path id="DejaVuSans-54" d="M -19 4666 
L 3928 4666 
L 3928 4134 
L 2272 4134 
L 2272 0 
L 1638 0 
L 1638 4134 
L -19 4134 
L -19 4666 
z
" transform="scale(0.015625)"/>
      <path id="DejaVuSans-72" d="M 2631 2963 
Q 2534 3019 2420 3045 
Q 2306 3072 2169 3072 
Q 1681 3072 1420 2755 
Q 1159 2438 1159 1844 
L 1159 0 
L 581 0 
L 581 3500 
L 1159 3500 
L 1159 2956 
Q 1341 3275 1631 3429 
Q 1922 3584 2338 3584 
Q 2397 3584 2469 3576 
Q 2541 3569 2628 3553 
L 2631 2963 
z
" transform="scale(0.015625)"/>
      <path id="DejaVuSans-6e" d="M 3513 2113 
L 3513 0 
L 2938 0 
L 2938 2094 
Q 2938 2591 2744 2837 
Q 2550 3084 2163 3084 
Q 1697 3084 1428 2787 
Q 1159 2491 1159 1978 
L 1159 0 
L 581 0 
L 581 3500 
L 1159 3500 
L 1159 2956 
Q 1366 3272 1645 3428 
Q 1925 3584 2291 3584 
Q 2894 3584 3203 3211 
Q 3513 2838 3513 2113 
z
" transform="scale(0.015625)"/>
      <path id="DejaVuSans-66" d="M 2375 4863 
L 2375 4384 
L 1825 4384 
Q 1516 4384 1395 4259 
Q 1275 4134 1275 3809 
L 1275 3500 
L 2222 3500 
L 2222 3053 
L 1275 3053 
L 1275 0 
L 697 0 
L 697 3053 
L 147 3053 
L 147 3500 
L 697 3500 
L 697 3744 
Q 697 4328 969 4595 
Q 1241 4863 1831 4863 
L 2375 4863 
z
" transform="scale(0.015625)"/>
      <path id="DejaVuSans-6f" d="M 1959 3097 
Q 1497 3097 1228 2736 
Q 959 2375 959 1747 
Q 959 1119 1226 758 
Q 1494 397 1959 397 
Q 2419 397 2687 759 
Q 2956 1122 2956 1747 
Q 2956 2369 2687 2733 
Q 2419 3097 1959 3097 
z
M 1959 3584 
Q 2709 3584 3137 3096 
Q 3566 2609 3566 1747 
Q 3566 888 3137 398 
Q 2709 -91 1959 -91 
Q 1206 -91 779 398 
Q 353 888 353 1747 
Q 353 2609 779 3096 
Q 1206 3584 1959 3584 
z
" transform="scale(0.015625)"/>
      <path id="DejaVuSans-6d" d="M 3328 2828 
Q 3544 3216 3844 3400 
Q 4144 3584 4550 3584 
Q 5097 3584 5394 3201 
Q 5691 2819 5691 2113 
L 5691 0 
L 5113 0 
L 5113 2094 
Q 5113 2597 4934 2840 
Q 4756 3084 4391 3084 
Q 3944 3084 3684 2787 
Q 3425 2491 3425 1978 
L 3425 0 
L 2847 0 
L 2847 2094 
Q 2847 2600 2669 2842 
Q 2491 3084 2119 3084 
Q 1678 3084 1418 2786 
Q 1159 2488 1159 1978 
L 1159 0 
L 581 0 
L 581 3500 
L 1159 3500 
L 1159 2956 
Q 1356 3278 1631 3431 
Q 1906 3584 2284 3584 
Q 2666 3584 2933 3390 
Q 3200 3197 3328 2828 
z
" transform="scale(0.015625)"/>
      <path id="DejaVuSans-65" d="M 3597 1894 
L 3597 1613 
L 953 1613 
Q 991 1019 1311 708 
Q 1631 397 2203 397 
Q 2534 397 2845 478 
Q 3156 559 3463 722 
L 3463 178 
Q 3153 47 2828 -22 
Q 2503 -91 2169 -91 
Q 1331 -91 842 396 
Q 353 884 353 1716 
Q 353 2575 817 3079 
Q 1281 3584 2069 3584 
Q 2775 3584 3186 3129 
Q 3597 2675 3597 1894 
z
M 3022 2063 
Q 3016 2534 2758 2815 
Q 2500 3097 2075 3097 
Q 1594 3097 1305 2825 
Q 1016 2553 972 2059 
L 3022 2063 
z
" transform="scale(0.015625)"/>
      <path id="DejaVuSans-64" d="M 2906 2969 
L 2906 4863 
L 3481 4863 
L 3481 0 
L 2906 0 
L 2906 525 
Q 2725 213 2448 61 
Q 2172 -91 1784 -91 
Q 1150 -91 751 415 
Q 353 922 353 1747 
Q 353 2572 751 3078 
Q 1150 3584 1784 3584 
Q 2172 3584 2448 3432 
Q 2725 3281 2906 2969 
z
M 947 1747 
Q 947 1113 1208 752 
Q 1469 391 1925 391 
Q 2381 391 2643 752 
Q 2906 1113 2906 1747 
Q 2906 2381 2643 2742 
Q 2381 3103 1925 3103 
Q 1469 3103 1208 2742 
Q 947 2381 947 1747 
z
" transform="scale(0.015625)"/>
      <path id="DejaVuSans-5f" d="M 3263 -1063 
L 3263 -1509 
L -63 -1509 
L -63 -1063 
L 3263 -1063 
z
" transform="scale(0.015625)"/>
      <path id="DejaVuSans-39" d="M 703 97 
L 703 672 
Q 941 559 1184 500 
Q 1428 441 1663 441 
Q 2288 441 2617 861 
Q 2947 1281 2994 2138 
Q 2813 1869 2534 1725 
Q 2256 1581 1919 1581 
Q 1219 1581 811 2004 
Q 403 2428 403 3163 
Q 403 3881 828 4315 
Q 1253 4750 1959 4750 
Q 2769 4750 3195 4129 
Q 3622 3509 3622 2328 
Q 3622 1225 3098 567 
Q 2575 -91 1691 -91 
Q 1453 -91 1209 -44 
Q 966 3 703 97 
z
M 1959 2075 
Q 2384 2075 2632 2365 
Q 2881 2656 2881 3163 
Q 2881 3666 2632 3958 
Q 2384 4250 1959 4250 
Q 1534 4250 1286 3958 
Q 1038 3666 1038 3163 
Q 1038 2656 1286 2365 
Q 1534 2075 1959 2075 
z
" transform="scale(0.015625)"/>
     </defs>
     <use xlink:href="#DejaVuSans-43"/>
     <use xlink:href="#DejaVuSans-6c" x="69.824219"/>
     <use xlink:href="#DejaVuSans-61" x="97.607422"/>
     <use xlink:href="#DejaVuSans-73" x="158.886719"/>
     <use xlink:href="#DejaVuSans-73" x="210.986328"/>
     <use xlink:href="#DejaVuSans-69" x="263.085938"/>
     <use xlink:href="#DejaVuSans-63" x="290.869141"/>
     <use xlink:href="#DejaVuSans-20" x="345.849609"/>
     <use xlink:href="#DejaVuSans-54" x="377.636719"/>
     <use xlink:href="#DejaVuSans-72" x="423.970703"/>
     <use xlink:href="#DejaVuSans-61" x="465.083984"/>
     <use xlink:href="#DejaVuSans-6e" x="526.363281"/>
     <use xlink:href="#DejaVuSans-73" x="589.742188"/>
     <use xlink:href="#DejaVuSans-66" x="641.841797"/>
     <use xlink:href="#DejaVuSans-6f" x="677.046875"/>
     <use xlink:href="#DejaVuSans-72" x="738.228516"/>
     <use xlink:href="#DejaVuSans-6d" x="777.591797"/>
     <use xlink:href="#DejaVuSans-65" x="875.003906"/>
     <use xlink:href="#DejaVuSans-72" x="936.527344"/>
     <use xlink:href="#DejaVuSans-20" x="977.640625"/>
     <use xlink:href="#DejaVuSans-2d" x="1009.427734"/>
     <use xlink:href="#DejaVuSans-20" x="1045.511719"/>
     <use xlink:href="#DejaVuSans-6d" x="1077.298828"/>
     <use xlink:href="#DejaVuSans-6f" x="1174.710938"/>
     <use xlink:href="#DejaVuSans-64" x="1235.892578"/>
     <use xlink:href="#DejaVuSans-65" x="1299.369141"/>
     <use xlink:href="#DejaVuSans-6c" x="1360.892578"/>
     <use xlink:href="#DejaVuSans-5f" x="1388.675781"/>
     <use xlink:href="#DejaVuSans-32" x="1438.675781"/>
     <use xlink:href="#DejaVuSans-30" x="1502.298828"/>
     <use xlink:href="#DejaVuSans-32" x="1565.921875"/>
     <use xlink:href="#DejaVuSans-33" x="1629.544922"/>
     <use xlink:href="#DejaVuSans-31" x="1693.167969"/>
     <use xlink:href="#DejaVuSans-31" x="1756.791016"/>
     <use xlink:href="#DejaVuSans-32" x="1820.414062"/>
     <use xlink:href="#DejaVuSans-33" x="1884.037109"/>
     <use xlink:href="#DejaVuSans-31" x="1947.660156"/>
     <use xlink:href="#DejaVuSans-36" x="2011.283203"/>
     <use xlink:href="#DejaVuSans-32" x="2074.90625"/>
     <use xlink:href="#DejaVuSans-36" x="2138.529297"/>
     <use xlink:href="#DejaVuSans-32" x="2202.152344"/>
     <use xlink:href="#DejaVuSans-39" x="2265.775391"/>
    </g>
   </g>
   <g id="legend_1">
    <g id="patch_7">
     <path d="M 79 95.234375 
L 161.517188 95.234375 
Q 163.517188 95.234375 163.517188 93.234375 
L 163.517188 50.2 
Q 163.517188 48.2 161.517188 48.2 
L 79 48.2 
Q 77 48.2 77 50.2 
L 77 93.234375 
Q 77 95.234375 79 95.234375 
z
" style="fill: #ffffff; opacity: 0.8; stroke: #cccccc; stroke-linejoin: miter"/>
    </g>
    <g id="line2d_16">
     <path d="M 81 56.298437 
L 91 56.298437 
L 101 56.298437 
" style="fill: none; stroke: #1f77b4; stroke-width: 1.5; stroke-linecap: square"/>
    </g>
    <g id="text_14">
     <!-- Measured -->
     <g transform="translate(109 59.798437) scale(0.1 -0.1)">
      <defs>
       <path id="DejaVuSans-4d" d="M 628 4666 
L 1569 4666 
L 2759 1491 
L 3956 4666 
L 4897 4666 
L 4897 0 
L 4281 0 
L 4281 4097 
L 3078 897 
L 2444 897 
L 1241 4097 
L 1241 0 
L 628 0 
L 628 4666 
z
" transform="scale(0.015625)"/>
       <path id="DejaVuSans-75" d="M 544 1381 
L 544 3500 
L 1119 3500 
L 1119 1403 
Q 1119 906 1312 657 
Q 1506 409 1894 409 
Q 2359 409 2629 706 
Q 2900 1003 2900 1516 
L 2900 3500 
L 3475 3500 
L 3475 0 
L 2900 0 
L 2900 538 
Q 2691 219 2414 64 
Q 2138 -91 1772 -91 
Q 1169 -91 856 284 
Q 544 659 544 1381 
z
M 1991 3584 
L 1991 3584 
z
" transform="scale(0.015625)"/>
      </defs>
      <use xlink:href="#DejaVuSans-4d"/>
      <use xlink:href="#DejaVuSans-65" x="86.279297"/>
      <use xlink:href="#DejaVuSans-61" x="147.802734"/>
      <use xlink:href="#DejaVuSans-73" x="209.082031"/>
      <use xlink:href="#DejaVuSans-75" x="261.181641"/>
      <use xlink:href="#DejaVuSans-72" x="324.560547"/>
      <use xlink:href="#DejaVuSans-65" x="363.423828"/>
      <use xlink:href="#DejaVuSans-64" x="424.947266"/>
     </g>
    </g>
    <g id="line2d_17">
     <path d="M 81 70.976562 
L 91 70.976562 
L 101 70.976562 
" style="fill: none; stroke: #ff7f0e; stroke-width: 1.5; stroke-linecap: square"/>
    </g>
    <g id="text_15">
     <!-- Fitted -->
     <g transform="translate(109 74.476562) scale(0.1 -0.1)">
      <defs>
       <path id="DejaVuSans-46" d="M 628 4666 
L 3309 4666 
L 3309 4134 
L 1259 4134 
L 1259 2759 
L 3109 2759 
L 3109 2228 
L 1259 2228 
L 1259 0 
L 628 0 
L 628 4666 
z
" transform="scale(0.015625)"/>
       <path id="DejaVuSans-74" d="M 1172 4494 
L 1172 3500 
L 2356 3500 
L 2356 3053 
L 1172 3053 
L 1172 1153 
Q 1172 725 1289 603 
Q 1406 481 1766 481 
L 2356 481 
L 2356 0 
L 1766 0 
Q 1100 0 847 248 
Q 594 497 594 1153 
L 594 3053 
L 172 3053 
L 172 3500 
L 594 3500 
L 594 4494 
L 1172 4494 
z
" transform="scale(0.015625)"/>
      </defs>
      <use xlink:href="#DejaVuSans-46"/>
      <use xlink:href="#DejaVuSans-69" x="50.269531"/>
      <use xlink:href="#DejaVuSans-74" x="78.052734"/>
      <use xlink:href="#DejaVuSans-74" x="117.261719"/>
      <use xlink:href="#DejaVuSans-65" x="156.470703"/>
      <use xlink:href="#DejaVuSans-64" x="217.994141"/>
     </g>
    </g>
    <g id="line2d_18">
     <path d="M 81 85.654687 
L 91 85.654687 
L 101 85.654687 
" style="fill: none; stroke: #2ca02c; stroke-width: 1.5; stroke-linecap: square"/>
    </g>
    <g id="text_16">
     <!-- Estimated -->
     <g transform="translate(109 89.154687) scale(0.1 -0.1)">
      <defs>
       <path id="DejaVuSans-45" d="M 628 4666 
L 3578 4666 
L 3578 4134 
L 1259 4134 
L 1259 2753 
L 3481 2753 
L 3481 2222 
L 1259 2222 
L 1259 531 
L 3634 531 
L 3634 0 
L 628 0 
L 628 4666 
z
" transform="scale(0.015625)"/>
      </defs>
      <use xlink:href="#DejaVuSans-45"/>
      <use xlink:href="#DejaVuSans-73" x="63.183594"/>
      <use xlink:href="#DejaVuSans-74" x="115.283203"/>
      <use xlink:href="#DejaVuSans-69" x="154.492188"/>
      <use xlink:href="#DejaVuSans-6d" x="182.275391"/>
      <use xlink:href="#DejaVuSans-61" x="279.6875"/>
      <use xlink:href="#DejaVuSans-74" x="340.966797"/>
      <use xlink:href="#DejaVuSans-65" x="380.175781"/>
      <use xlink:href="#DejaVuSans-64" x="441.699219"/>
     </g>
    </g>
   </g>
  </g>
 </g>
 <defs>
  <clipPath id="p2dca77f6b2">
   <rect x="72" y="43.2" width="446.4" height="277.2"/>
  </clipPath>
 </defs>
</svg>
