<?xml version="1.0" encoding="utf-8" standalone="no"?>
<!DOCTYPE svg PUBLIC "-//W3C//DTD SVG 1.1//EN"
  "http://www.w3.org/Graphics/SVG/1.1/DTD/svg11.dtd">
<svg xmlns:xlink="http://www.w3.org/1999/xlink" width="576pt" height="360pt" viewBox="0 0 576 360" xmlns="http://www.w3.org/2000/svg" version="1.1">
 <metadata>
  <rdf:RDF xmlns:dc="http://purl.org/dc/elements/1.1/" xmlns:cc="http://creativecommons.org/ns#" xmlns:rdf="http://www.w3.org/1999/02/22-rdf-syntax-ns#">
   <cc:Work>
    <dc:type rdf:resource="http://purl.org/dc/dcmitype/StillImage"/>
    <dc:date>2023-11-23T16:39:00.525851</dc:date>
    <dc:format>image/svg+xml</dc:format>
    <dc:creator>
     <cc:Agent>
      <dc:title>Matplotlib v3.8.1, https://matplotlib.org/</dc:title>
     </cc:Agent>
    </dc:creator>
   </cc:Work>
  </rdf:RDF>
 </metadata>
 <defs>
  <style type="text/css">*{stroke-linejoin: round; stroke-linecap: butt}</style>
 </defs>
 <g id="figure_1">
  <g id="patch_1">
   <path d="M 0 360 
L 576 360 
L 576 0 
L 0 0 
z
" style="fill: #ffffff"/>
  </g>
  <g id="axes_1">
   <g id="patch_2">
    <path d="M 72 320.4 
L 518.4 320.4 
L 518.4 43.2 
L 72 43.2 
z
" style="fill: #ffffff"/>
   </g>
   <g id="matplotlib.axis_1">
    <g id="xtick_1">
     <g id="line2d_1">
      <defs>
       <path id="m2db9b0011a" d="M 0 0 
L 0 3.5 
" style="stroke: #000000; stroke-width: 0.8"/>
      </defs>
      <g>
       <use xlink:href="#m2db9b0011a" x="129.874161" y="320.4" style="stroke: #000000; stroke-width: 0.8"/>
      </g>
     </g>
     <g id="text_1">
      <!-- 2020-05-15 -->
      <g transform="translate(100.816349 334.998438) scale(0.1 -0.1)">
       <defs>
        <path id="DejaVuSans-32" d="M 1228 531 
L 3431 531 
L 3431 0 
L 469 0 
L 469 531 
Q 828 903 1448 1529 
Q 2069 2156 2228 2338 
Q 2531 2678 2651 2914 
Q 2772 3150 2772 3378 
Q 2772 3750 2511 3984 
Q 2250 4219 1831 4219 
Q 1534 4219 1204 4116 
Q 875 4013 500 3803 
L 500 4441 
Q 881 4594 1212 4672 
Q 1544 4750 1819 4750 
Q 2544 4750 2975 4387 
Q 3406 4025 3406 3419 
Q 3406 3131 3298 2873 
Q 3191 2616 2906 2266 
Q 2828 2175 2409 1742 
Q 1991 1309 1228 531 
z
" transform="scale(0.015625)"/>
        <path id="DejaVuSans-30" d="M 2034 4250 
Q 1547 4250 1301 3770 
Q 1056 3291 1056 2328 
Q 1056 1369 1301 889 
Q 1547 409 2034 409 
Q 2525 409 2770 889 
Q 3016 1369 3016 2328 
Q 3016 3291 2770 3770 
Q 2525 4250 2034 4250 
z
M 2034 4750 
Q 2819 4750 3233 4129 
Q 3647 3509 3647 2328 
Q 3647 1150 3233 529 
Q 2819 -91 2034 -91 
Q 1250 -91 836 529 
Q 422 1150 422 2328 
Q 422 3509 836 4129 
Q 1250 4750 2034 4750 
z
" transform="scale(0.015625)"/>
        <path id="DejaVuSans-2d" d="M 313 2009 
L 1997 2009 
L 1997 1497 
L 313 1497 
L 313 2009 
z
" transform="scale(0.015625)"/>
        <path id="DejaVuSans-35" d="M 691 4666 
L 3169 4666 
L 3169 4134 
L 1269 4134 
L 1269 2991 
Q 1406 3038 1543 3061 
Q 1681 3084 1819 3084 
Q 2600 3084 3056 2656 
Q 3513 2228 3513 1497 
Q 3513 744 3044 326 
Q 2575 -91 1722 -91 
Q 1428 -91 1123 -41 
Q 819 9 494 109 
L 494 744 
Q 775 591 1075 516 
Q 1375 441 1709 441 
Q 2250 441 2565 725 
Q 2881 1009 2881 1497 
Q 2881 1984 2565 2268 
Q 2250 2553 1709 2553 
Q 1456 2553 1204 2497 
Q 953 2441 691 2322 
L 691 4666 
z
" transform="scale(0.015625)"/>
        <path id="DejaVuSans-31" d="M 794 531 
L 1825 531 
L 1825 4091 
L 703 3866 
L 703 4441 
L 1819 4666 
L 2450 4666 
L 2450 531 
L 3481 531 
L 3481 0 
L 794 0 
L 794 531 
z
" transform="scale(0.015625)"/>
       </defs>
       <use xlink:href="#DejaVuSans-32"/>
       <use xlink:href="#DejaVuSans-30" x="63.623047"/>
       <use xlink:href="#DejaVuSans-32" x="127.246094"/>
       <use xlink:href="#DejaVuSans-30" x="190.869141"/>
       <use xlink:href="#DejaVuSans-2d" x="254.492188"/>
       <use xlink:href="#DejaVuSans-30" x="290.576172"/>
       <use xlink:href="#DejaVuSans-35" x="354.199219"/>
       <use xlink:href="#DejaVuSans-2d" x="417.822266"/>
       <use xlink:href="#DejaVuSans-31" x="453.90625"/>
       <use xlink:href="#DejaVuSans-35" x="517.529297"/>
      </g>
     </g>
    </g>
    <g id="xtick_2">
     <g id="line2d_2">
      <g>
       <use xlink:href="#m2db9b0011a" x="212.435902" y="320.4" style="stroke: #000000; stroke-width: 0.8"/>
      </g>
     </g>
     <g id="text_2">
      <!-- 2020-06-01 -->
      <g transform="translate(183.37809 334.998438) scale(0.1 -0.1)">
       <defs>
        <path id="DejaVuSans-36" d="M 2113 2584 
Q 1688 2584 1439 2293 
Q 1191 2003 1191 1497 
Q 1191 994 1439 701 
Q 1688 409 2113 409 
Q 2538 409 2786 701 
Q 3034 994 3034 1497 
Q 3034 2003 2786 2293 
Q 2538 2584 2113 2584 
z
M 3366 4563 
L 3366 3988 
Q 3128 4100 2886 4159 
Q 2644 4219 2406 4219 
Q 1781 4219 1451 3797 
Q 1122 3375 1075 2522 
Q 1259 2794 1537 2939 
Q 1816 3084 2150 3084 
Q 2853 3084 3261 2657 
Q 3669 2231 3669 1497 
Q 3669 778 3244 343 
Q 2819 -91 2113 -91 
Q 1303 -91 875 529 
Q 447 1150 447 2328 
Q 447 3434 972 4092 
Q 1497 4750 2381 4750 
Q 2619 4750 2861 4703 
Q 3103 4656 3366 4563 
z
" transform="scale(0.015625)"/>
       </defs>
       <use xlink:href="#DejaVuSans-32"/>
       <use xlink:href="#DejaVuSans-30" x="63.623047"/>
       <use xlink:href="#DejaVuSans-32" x="127.246094"/>
       <use xlink:href="#DejaVuSans-30" x="190.869141"/>
       <use xlink:href="#DejaVuSans-2d" x="254.492188"/>
       <use xlink:href="#DejaVuSans-30" x="290.576172"/>
       <use xlink:href="#DejaVuSans-36" x="354.199219"/>
       <use xlink:href="#DejaVuSans-2d" x="417.822266"/>
       <use xlink:href="#DejaVuSans-30" x="453.90625"/>
       <use xlink:href="#DejaVuSans-31" x="517.529297"/>
      </g>
     </g>
    </g>
    <g id="xtick_3">
     <g id="line2d_3">
      <g>
       <use xlink:href="#m2db9b0011a" x="280.427924" y="320.4" style="stroke: #000000; stroke-width: 0.8"/>
      </g>
     </g>
     <g id="text_3">
      <!-- 2020-06-15 -->
      <g transform="translate(251.370111 334.998438) scale(0.1 -0.1)">
       <use xlink:href="#DejaVuSans-32"/>
       <use xlink:href="#DejaVuSans-30" x="63.623047"/>
       <use xlink:href="#DejaVuSans-32" x="127.246094"/>
       <use xlink:href="#DejaVuSans-30" x="190.869141"/>
       <use xlink:href="#DejaVuSans-2d" x="254.492188"/>
       <use xlink:href="#DejaVuSans-30" x="290.576172"/>
       <use xlink:href="#DejaVuSans-36" x="354.199219"/>
       <use xlink:href="#DejaVuSans-2d" x="417.822266"/>
       <use xlink:href="#DejaVuSans-31" x="453.90625"/>
       <use xlink:href="#DejaVuSans-35" x="517.529297"/>
      </g>
     </g>
    </g>
    <g id="xtick_4">
     <g id="line2d_4">
      <g>
       <use xlink:href="#m2db9b0011a" x="358.133092" y="320.4" style="stroke: #000000; stroke-width: 0.8"/>
      </g>
     </g>
     <g id="text_4">
      <!-- 2020-07-01 -->
      <g transform="translate(329.075279 334.998438) scale(0.1 -0.1)">
       <defs>
        <path id="DejaVuSans-37" d="M 525 4666 
L 3525 4666 
L 3525 4397 
L 1831 0 
L 1172 0 
L 2766 4134 
L 525 4134 
L 525 4666 
z
" transform="scale(0.015625)"/>
       </defs>
       <use xlink:href="#DejaVuSans-32"/>
       <use xlink:href="#DejaVuSans-30" x="63.623047"/>
       <use xlink:href="#DejaVuSans-32" x="127.246094"/>
       <use xlink:href="#DejaVuSans-30" x="190.869141"/>
       <use xlink:href="#DejaVuSans-2d" x="254.492188"/>
       <use xlink:href="#DejaVuSans-30" x="290.576172"/>
       <use xlink:href="#DejaVuSans-37" x="354.199219"/>
       <use xlink:href="#DejaVuSans-2d" x="417.822266"/>
       <use xlink:href="#DejaVuSans-30" x="453.90625"/>
       <use xlink:href="#DejaVuSans-31" x="517.529297"/>
      </g>
     </g>
    </g>
    <g id="xtick_5">
     <g id="line2d_5">
      <g>
       <use xlink:href="#m2db9b0011a" x="426.125113" y="320.4" style="stroke: #000000; stroke-width: 0.8"/>
      </g>
     </g>
     <g id="text_5">
      <!-- 2020-07-15 -->
      <g transform="translate(397.067301 334.998438) scale(0.1 -0.1)">
       <use xlink:href="#DejaVuSans-32"/>
       <use xlink:href="#DejaVuSans-30" x="63.623047"/>
       <use xlink:href="#DejaVuSans-32" x="127.246094"/>
       <use xlink:href="#DejaVuSans-30" x="190.869141"/>
       <use xlink:href="#DejaVuSans-2d" x="254.492188"/>
       <use xlink:href="#DejaVuSans-30" x="290.576172"/>
       <use xlink:href="#DejaVuSans-37" x="354.199219"/>
       <use xlink:href="#DejaVuSans-2d" x="417.822266"/>
       <use xlink:href="#DejaVuSans-31" x="453.90625"/>
       <use xlink:href="#DejaVuSans-35" x="517.529297"/>
      </g>
     </g>
    </g>
    <g id="xtick_6">
     <g id="line2d_6">
      <g>
       <use xlink:href="#m2db9b0011a" x="508.686854" y="320.4" style="stroke: #000000; stroke-width: 0.8"/>
      </g>
     </g>
     <g id="text_6">
      <!-- 2020-08-01 -->
      <g transform="translate(479.629042 334.998438) scale(0.1 -0.1)">
       <defs>
        <path id="DejaVuSans-38" d="M 2034 2216 
Q 1584 2216 1326 1975 
Q 1069 1734 1069 1313 
Q 1069 891 1326 650 
Q 1584 409 2034 409 
Q 2484 409 2743 651 
Q 3003 894 3003 1313 
Q 3003 1734 2745 1975 
Q 2488 2216 2034 2216 
z
M 1403 2484 
Q 997 2584 770 2862 
Q 544 3141 544 3541 
Q 544 4100 942 4425 
Q 1341 4750 2034 4750 
Q 2731 4750 3128 4425 
Q 3525 4100 3525 3541 
Q 3525 3141 3298 2862 
Q 3072 2584 2669 2484 
Q 3125 2378 3379 2068 
Q 3634 1759 3634 1313 
Q 3634 634 3220 271 
Q 2806 -91 2034 -91 
Q 1263 -91 848 271 
Q 434 634 434 1313 
Q 434 1759 690 2068 
Q 947 2378 1403 2484 
z
M 1172 3481 
Q 1172 3119 1398 2916 
Q 1625 2713 2034 2713 
Q 2441 2713 2670 2916 
Q 2900 3119 2900 3481 
Q 2900 3844 2670 4047 
Q 2441 4250 2034 4250 
Q 1625 4250 1398 4047 
Q 1172 3844 1172 3481 
z
" transform="scale(0.015625)"/>
       </defs>
       <use xlink:href="#DejaVuSans-32"/>
       <use xlink:href="#DejaVuSans-30" x="63.623047"/>
       <use xlink:href="#DejaVuSans-32" x="127.246094"/>
       <use xlink:href="#DejaVuSans-30" x="190.869141"/>
       <use xlink:href="#DejaVuSans-2d" x="254.492188"/>
       <use xlink:href="#DejaVuSans-30" x="290.576172"/>
       <use xlink:href="#DejaVuSans-38" x="354.199219"/>
       <use xlink:href="#DejaVuSans-2d" x="417.822266"/>
       <use xlink:href="#DejaVuSans-30" x="453.90625"/>
       <use xlink:href="#DejaVuSans-31" x="517.529297"/>
      </g>
     </g>
    </g>
   </g>
   <g id="matplotlib.axis_2">
    <g id="ytick_1">
     <g id="line2d_7">
      <defs>
       <path id="m84e8201f59" d="M 0 0 
L -3.5 0 
" style="stroke: #000000; stroke-width: 0.8"/>
      </defs>
      <g>
       <use xlink:href="#m84e8201f59" x="72" y="315.783235" style="stroke: #000000; stroke-width: 0.8"/>
      </g>
     </g>
     <g id="text_7">
      <!-- −2 -->
      <g transform="translate(50.257812 319.582454) scale(0.1 -0.1)">
       <defs>
        <path id="DejaVuSans-2212" d="M 678 2272 
L 4684 2272 
L 4684 1741 
L 678 1741 
L 678 2272 
z
" transform="scale(0.015625)"/>
       </defs>
       <use xlink:href="#DejaVuSans-2212"/>
       <use xlink:href="#DejaVuSans-32" x="83.789062"/>
      </g>
     </g>
    </g>
    <g id="ytick_2">
     <g id="line2d_8">
      <g>
       <use xlink:href="#m84e8201f59" x="72" y="263.59908" style="stroke: #000000; stroke-width: 0.8"/>
      </g>
     </g>
     <g id="text_8">
      <!-- −1 -->
      <g transform="translate(50.257812 267.398299) scale(0.1 -0.1)">
       <use xlink:href="#DejaVuSans-2212"/>
       <use xlink:href="#DejaVuSans-31" x="83.789062"/>
      </g>
     </g>
    </g>
    <g id="ytick_3">
     <g id="line2d_9">
      <g>
       <use xlink:href="#m84e8201f59" x="72" y="211.414924" style="stroke: #000000; stroke-width: 0.8"/>
      </g>
     </g>
     <g id="text_9">
      <!-- 0 -->
      <g transform="translate(58.6375 215.214143) scale(0.1 -0.1)">
       <use xlink:href="#DejaVuSans-30"/>
      </g>
     </g>
    </g>
    <g id="ytick_4">
     <g id="line2d_10">
      <g>
       <use xlink:href="#m84e8201f59" x="72" y="159.230769" style="stroke: #000000; stroke-width: 0.8"/>
      </g>
     </g>
     <g id="text_10">
      <!-- 1 -->
      <g transform="translate(58.6375 163.029988) scale(0.1 -0.1)">
       <use xlink:href="#DejaVuSans-31"/>
      </g>
     </g>
    </g>
    <g id="ytick_5">
     <g id="line2d_11">
      <g>
       <use xlink:href="#m84e8201f59" x="72" y="107.046613" style="stroke: #000000; stroke-width: 0.8"/>
      </g>
     </g>
     <g id="text_11">
      <!-- 2 -->
      <g transform="translate(58.6375 110.845832) scale(0.1 -0.1)">
       <use xlink:href="#DejaVuSans-32"/>
      </g>
     </g>
    </g>
    <g id="ytick_6">
     <g id="line2d_12">
      <g>
       <use xlink:href="#m84e8201f59" x="72" y="54.862458" style="stroke: #000000; stroke-width: 0.8"/>
      </g>
     </g>
     <g id="text_12">
      <!-- 3 -->
      <g transform="translate(58.6375 58.661677) scale(0.1 -0.1)">
       <defs>
        <path id="DejaVuSans-33" d="M 2597 2516 
Q 3050 2419 3304 2112 
Q 3559 1806 3559 1356 
Q 3559 666 3084 287 
Q 2609 -91 1734 -91 
Q 1441 -91 1130 -33 
Q 819 25 488 141 
L 488 750 
Q 750 597 1062 519 
Q 1375 441 1716 441 
Q 2309 441 2620 675 
Q 2931 909 2931 1356 
Q 2931 1769 2642 2001 
Q 2353 2234 1838 2234 
L 1294 2234 
L 1294 2753 
L 1863 2753 
Q 2328 2753 2575 2939 
Q 2822 3125 2822 3475 
Q 2822 3834 2567 4026 
Q 2313 4219 1838 4219 
Q 1578 4219 1281 4162 
Q 984 4106 628 3988 
L 628 4550 
Q 988 4650 1302 4700 
Q 1616 4750 1894 4750 
Q 2613 4750 3031 4423 
Q 3450 4097 3450 3541 
Q 3450 3153 3228 2886 
Q 3006 2619 2597 2516 
z
" transform="scale(0.015625)"/>
       </defs>
       <use xlink:href="#DejaVuSans-33"/>
      </g>
     </g>
    </g>
   </g>
   <g id="line2d_13">
    <path d="M 72 287.627622 
L 72.404714 298.686591 
L 72.607072 297.007266 
L 72.809429 286.603644 
L 73.214143 256.457714 
L 73.618858 244.333808 
L 75.035358 163.439501 
L 75.237715 160.551881 
L 75.440073 165.487458 
L 75.64243 173.49497 
L 75.844787 176.710263 
L 76.047144 191.578432 
L 76.654216 260.103078 
L 77.05893 283.572667 
L 77.261287 287.832418 
L 77.463645 287.463786 
L 77.666002 277.019204 
L 78.070716 249.228426 
L 78.475431 237.06356 
L 78.677788 228.154946 
L 79.487217 172.573389 
L 79.891931 156.701722 
L 80.094288 158.606322 
L 80.903717 199.975056 
L 81.713146 273.455759 
L 82.11786 287.7505 
L 82.320218 289.737018 
L 82.522575 289.450304 
L 82.724932 286.992755 
L 82.927289 280.336895 
L 83.332004 257.911764 
L 83.736718 243.944696 
L 83.939075 240.975158 
L 84.141432 241.241393 
L 84.546147 247.487662 
L 84.748504 249.535619 
L 84.950861 249.556099 
L 85.355576 253.652013 
L 85.557933 250.395761 
L 85.76029 256.375796 
L 86.569719 300.243038 
L 86.772076 306.182114 
L 86.974433 307.738561 
L 87.176791 307.8 
L 87.379148 306.489307 
L 87.581505 302.843944 
L 87.783862 296.249522 
L 88.188577 274.725492 
L 88.390934 269.667038 
L 89.200363 261.782403 
L 89.40272 257.747927 
L 89.807434 243.309829 
L 90.212149 240.913719 
L 90.414506 238.271855 
L 90.616863 246.033612 
L 91.223935 295.409859 
L 91.628649 306.182114 
L 91.831006 306.243553 
L 92.033364 303.806484 
L 92.842792 258.751426 
L 93.04515 256.66251 
L 93.449864 248.265886 
L 93.652221 247.753896 
L 93.854578 244.886756 
L 94.056936 244.272369 
L 94.259293 241.712423 
L 94.46165 235.466153 
L 94.664007 232.680932 
L 94.866364 233.582033 
L 95.068722 236.653969 
L 95.271079 232.906207 
L 95.473436 242.777361 
L 96.080508 295.778492 
L 96.485222 304.769023 
L 96.687579 306.632664 
L 96.889937 302.393393 
L 97.699365 258.034641 
L 98.306437 247.774376 
L 98.508794 247.405744 
L 99.52058 226.680417 
L 99.722937 227.909192 
L 99.925295 232.168942 
L 100.127652 230.38722 
L 100.330009 240.299332 
L 100.937081 293.361902 
L 101.341795 305.342451 
L 101.544152 306.304991 
L 101.74651 302.680107 
L 101.948867 291.006751 
L 102.353581 261.680005 
L 102.555938 260.164517 
L 103.567724 242.79784 
L 104.377153 221.212372 
L 104.57951 222.461626 
L 104.781868 227.724875 
L 104.984225 227.704396 
L 105.186582 236.387734 
L 105.793654 290.289966 
L 106.198368 302.741546 
L 106.400725 304.46183 
L 106.603083 300.529752 
L 107.412511 255.679491 
L 107.614869 254.000166 
L 107.817226 250.416241 
L 108.22194 236.223898 
L 108.626655 215.027541 
L 108.829012 209.231822 
L 109.031369 207.388661 
L 109.638441 215.867204 
L 109.840798 221.171413 
L 110.043155 231.32928 
L 110.650227 285.088155 
L 111.054941 299.014264 
L 111.257298 300.877905 
L 111.459655 299.1781 
L 111.662013 288.037214 
L 112.066727 259.468211 
L 112.471442 244.825318 
L 113.887942 178.020955 
L 114.090299 175.706764 
L 114.292656 182.362625 
L 114.495014 193.523991 
L 114.697371 198.009017 
L 115.102085 231.226882 
L 115.709157 279.435793 
L 116.113871 293.054709 
L 116.316228 293.218545 
L 116.518586 291.600659 
L 116.720943 288.057693 
L 117.125657 261.45473 
L 118.542158 159.241188 
L 118.744515 149.370035 
L 118.946872 145.581314 
L 119.149229 149.165239 
L 119.756301 186.151345 
L 120.56573 263.646044 
L 120.970444 282.999239 
L 121.172801 286.992755 
L 121.375159 288.590162 
L 121.577516 287.177072 
L 121.779873 279.435793 
L 122.589302 229.629476 
L 123.196374 204.767276 
L 123.398731 200.302729 
L 123.601088 200.507525 
L 123.803445 199.954577 
L 124.410517 213.041023 
L 124.612874 223.751839 
L 125.219946 278.719008 
L 125.62466 292.911352 
L 125.827017 294.856911 
L 126.029374 292.378883 
L 127.04116 237.309315 
L 127.648232 200.773759 
L 128.255304 159.384545 
L 128.457661 152.0119 
L 128.660018 151.684226 
L 129.26709 194.978041 
L 130.278876 283.695544 
L 130.481233 291.334425 
L 130.68359 292.686076 
L 130.885947 290.167089 
L 132.504805 183.796195 
L 133.111877 142.120267 
L 133.314234 132.924939 
L 133.516591 134.583784 
L 133.921306 149.59531 
L 134.123663 156.845079 
L 135.135449 264.158033 
L 135.540163 276.486735 
L 135.74252 275.565154 
L 135.944878 265.222971 
L 136.349592 234.544573 
L 136.551949 227.929671 
L 136.754306 216.338234 
L 136.956664 220.80278 
L 137.159021 209.764291 
L 137.766092 201.142392 
L 137.96845 201.531504 
L 138.373164 196.247774 
L 138.777879 203.62042 
L 138.980236 204.439603 
L 139.182593 215.969601 
L 139.789665 271.284924 
L 140.194379 286.29645 
L 140.396736 288.323928 
L 140.599093 285.374869 
L 141.003808 255.863807 
L 141.408522 235.179439 
L 142.015594 222.092993 
L 142.622665 213.1639 
L 142.825023 212.897666 
L 143.02738 211.709851 
L 143.229737 212.385676 
L 143.634451 217.546528 
L 143.836809 216.338234 
L 144.039166 226.291305 
L 144.646238 274.500217 
L 145.050952 286.31693 
L 145.253309 287.586663 
L 145.455666 284.514727 
L 145.860381 255.536134 
L 146.062738 239.45967 
L 146.66981 223.362727 
L 146.872167 220.741342 
L 147.074524 219.676404 
L 147.479238 208.822231 
L 147.681596 217.095978 
L 147.883953 218.058518 
L 148.08631 220.618464 
L 148.491024 229.731873 
L 148.693382 228.400701 
L 149.098096 251.522138 
L 149.502811 279.067161 
L 149.907525 291.907853 
L 150.109882 293.93533 
L 150.312239 293.361902 
L 150.514597 290.57668 
L 150.716954 284.944798 
L 151.121668 264.342349 
L 151.526383 244.108533 
L 151.931097 238.374253 
L 152.133454 237.944182 
L 152.335811 239.889741 
L 152.538169 240.40173 
L 152.740526 238.374253 
L 152.942883 238.660967 
L 153.14524 237.698427 
L 153.347597 237.739386 
L 153.549955 234.851766 
L 153.752312 237.022601 
L 154.764098 287.852897 
L 154.966455 291.764496 
L 155.168812 293.136627 
L 155.573527 289.245508 
L 155.775884 278.309417 
L 156.78767 201.326708 
L 157.799456 159.220709 
L 158.001813 161.207227 
L 158.406528 174.252714 
L 158.608885 187.646354 
L 159.215956 255.454215 
L 159.620671 276.793929 
L 159.823028 279.968262 
L 160.025385 279.067161 
L 160.227743 269.380324 
L 160.632457 237.309315 
L 161.8466 187.605395 
L 162.251315 177.672803 
L 162.453672 177.81616 
L 162.656029 180.642341 
L 163.465458 212.078483 
L 164.072529 271.223485 
L 164.477244 289.614141 
L 164.679601 289.941814 
L 164.881958 286.747001 
L 165.084316 276.71201 
L 165.48903 245.316827 
L 166.500816 210.644913 
L 167.310245 168.23172 
L 167.512602 171.549411 
L 167.917316 191.885625 
L 168.119674 196.288733 
L 168.322031 207.511538 
L 168.929102 266.22647 
L 169.333817 281.237996 
L 169.536174 284.719523 
L 169.738531 281.094639 
L 170.143246 254.123043 
L 170.54796 224.16143 
L 171.357389 180.109872 
L 171.559746 174.150316 
L 172.166818 150.230177 
L 172.369175 151.827583 
L 172.571532 159.65078 
L 173.178604 198.172854 
L 173.785675 268.438264 
L 174.19039 287.607143 
L 174.392747 290.556201 
L 174.595104 288.753999 
L 174.999819 264.833859 
L 175.404533 240.115016 
L 177.023391 162.763675 
L 177.225748 163.275664 
L 177.428105 167.146303 
L 177.630462 183.55044 
L 177.83282 185.967029 
L 178.237534 229.588516 
L 178.642248 272.022189 
L 179.046963 291.006751 
L 179.24932 294.693074 
L 179.451677 292.194567 
L 179.654034 283.593146 
L 180.261106 244.169971 
L 181.879964 148.243658 
L 182.082321 145.007886 
L 182.284678 150.619289 
L 183.094107 206.364682 
L 183.498821 244.968675 
L 183.903536 266.20599 
L 184.30825 273.967748 
L 184.510607 275.3194 
L 184.712965 271.714995 
L 184.915322 258.464712 
L 185.724751 177.263211 
L 186.129465 156.087334 
L 186.331822 150.08682 
L 186.53418 149.329076 
L 186.736537 151.848063 
L 187.748323 191.906105 
L 188.557752 255.495174 
L 188.962466 269.54416 
L 189.164823 271.571638 
L 189.36718 271.653556 
L 189.569538 270.916292 
L 189.771895 260.225955 
L 190.986038 165.098346 
L 191.188395 159.835096 
L 191.390752 159.794137 
L 191.795467 168.866587 
L 192.604896 199.913617 
L 193.414325 262.724463 
L 193.819039 276.322899 
L 194.021396 277.387836 
L 194.426111 273.455759 
L 194.628468 264.567625 
L 195.437897 204.132409 
L 195.640254 199.155873 
L 195.842611 200.364168 
L 196.247325 206.385162 
L 196.449683 206.95859 
L 196.65204 206.569478 
L 197.056754 214.720348 
L 197.259112 215.56001 
L 197.461469 223.915675 
L 198.06854 271.919791 
L 198.473255 286.009736 
L 198.675612 286.112134 
L 198.877969 282.48725 
L 199.282684 251.911249 
L 199.687398 229.240364 
L 201.306256 163.275664 
L 201.508613 162.128808 
L 202.115684 181.195289 
L 202.318042 192.274737 
L 202.925113 255.925245 
L 203.329828 273.455759 
L 203.532185 275.544675 
L 203.734542 272.575137 
L 203.936899 261.127057 
L 204.341614 227.356243 
L 205.758114 173.04442 
L 205.960471 170.566391 
L 206.162829 170.709748 
L 206.365186 172.122839 
L 206.7699 183.898592 
L 206.972257 187.072926 
L 207.174615 197.845181 
L 207.781686 256.519153 
L 208.186401 272.575137 
L 208.388758 275.606114 
L 208.591115 272.288423 
L 208.793472 260.49219 
L 209.198187 226.905693 
L 209.805258 204.767276 
L 210.209973 185.004489 
L 210.817044 143.574316 
L 211.019402 135.136733 
L 211.221759 138.085791 
L 211.626473 162.415522 
L 211.82883 167.596854 
L 212.031188 182.239747 
L 212.638259 246.893754 
L 213.042974 265.366328 
L 213.245331 269.339365 
L 213.447688 267.63956 
L 213.650045 256.990183 
L 214.257117 213.983083 
L 214.661831 187.789711 
L 215.47126 128.788066 
L 215.875975 112.158654 
L 216.078332 111.687623 
L 216.280689 117.196628 
L 217.090118 180.601381 
L 217.697189 242.162973 
L 218.101904 260.512669 
L 218.304261 263.85084 
L 218.506618 265.202491 
L 218.708976 263.953237 
L 218.911333 251.296862 
L 219.518404 196.821202 
L 220.125476 161.821614 
L 220.327833 159.671259 
L 220.53019 161.883053 
L 221.541976 203.948093 
L 221.744334 209.067986 
L 222.553762 265.632562 
L 222.958477 276.445776 
L 223.160834 278.14558 
L 223.363191 278.493733 
L 223.565549 276.937286 
L 223.767906 268.274427 
L 224.374977 230.284822 
L 224.779692 222.74834 
L 225.386763 224.796297 
L 225.589121 228.298303 
L 225.791478 229.178925 
L 226.196192 237.514111 
L 226.398549 237.165958 
L 226.600907 243.555584 
L 227.410335 296.863909 
L 227.612693 300.877905 
L 227.81505 302.55723 
L 228.017407 299.382896 
L 228.826836 257.031142 
L 229.029193 254.716951 
L 229.23155 249.00315 
L 230.648051 185.94655 
L 230.850408 186.519978 
L 231.255122 200.855678 
L 231.45748 211.689371 
L 232.064551 275.012206 
L 232.469266 292.092169 
L 232.671623 294.795472 
L 232.87398 293.587177 
L 233.278694 268.438264 
L 233.683409 246.033612 
L 235.302267 181.809676 
L 235.504624 181.215769 
L 236.111695 200.220811 
L 236.314053 210.522035 
L 236.921124 272.308903 
L 237.325839 288.098652 
L 237.528196 291.211547 
L 237.730553 289.102151 
L 238.135267 265.28441 
L 238.539982 243.617023 
L 239.349411 212.856707 
L 239.754125 202.903635 
L 240.15884 192.745767 
L 240.361197 192.500012 
L 240.563554 197.927099 
L 240.968268 215.437133 
L 241.170626 222.973615 
L 241.777697 278.207019 
L 242.182412 293.976289 
L 242.384769 296.454317 
L 242.587126 293.48478 
L 242.99184 268.909294 
L 243.396555 251.051107 
L 245.21777 176.812661 
L 245.420127 181.031452 
L 246.027199 207.675375 
L 246.836627 280.746486 
L 247.038985 289.061192 
L 247.241342 292.215046 
L 247.443699 289.696059 
L 247.848413 266.267429 
L 249.467271 154.899519 
L 249.669628 146.871527 
L 249.871985 144.946447 
L 250.074343 145.110284 
L 250.2767 152.0119 
L 250.883772 183.939552 
L 251.6932 258.485192 
L 252.097915 272.92329 
L 252.300272 275.974746 
L 252.502629 276.24098 
L 252.704986 272.390821 
L 253.109701 239.828302 
L 253.91913 167.043905 
L 254.323844 151.336074 
L 254.728558 142.570817 
L 254.930916 141.321563 
L 255.133273 148.776127 
L 255.740345 186.028468 
L 256.549773 260.799383 
L 256.954488 276.179542 
L 257.156845 279.968262 
L 257.359202 281.627108 
L 257.561559 280.664568 
L 257.966274 251.952209 
L 258.573345 201.859177 
L 258.97806 180.314667 
L 259.382774 169.358097 
L 259.585131 165.938008 
L 259.787489 165.507937 
L 259.989846 168.108843 
L 260.39456 184.00099 
L 260.596917 197.271753 
L 261.203989 258.894783 
L 261.608704 277.490234 
L 261.811061 280.398333 
L 262.013418 279.62011 
L 262.418132 255.802368 
L 262.62049 243.862778 
L 263.025204 234.257859 
L 263.227561 231.472637 
L 263.429918 230.469138 
L 263.834633 231.738871 
L 264.03699 231.431678 
L 264.239347 232.373738 
L 264.441704 232.455656 
L 264.644062 232.189422 
L 264.846419 234.2169 
L 265.048776 238.230896 
L 265.251133 238.230896 
L 265.45349 242.224412 
L 266.060562 284.432809 
L 266.465277 297.191582 
L 266.667634 298.72755 
L 266.869991 294.570197 
L 267.072348 286.665082 
L 267.477063 260.328353 
L 268.084134 238.292334 
L 268.488849 228.073028 
L 269.09592 216.891182 
L 269.500635 212.959104 
L 269.702992 215.129939 
L 269.905349 218.713864 
L 270.107706 219.38969 
L 270.310063 225.656439 
L 270.917135 274.213503 
L 271.32185 286.112134 
L 271.524207 288.242009 
L 271.726564 286.542205 
L 274.15485 145.827069 
L 274.357208 138.700178 
L 274.559565 142.017869 
L 275.166636 167.023426 
L 275.976065 248.102049 
L 276.38078 260.594588 
L 276.583137 259.898282 
L 276.987851 238.189936 
L 277.392566 209.457098 
L 278.404352 152.851562 
L 278.606709 149.820585 
L 279.011423 136.672701 
L 279.213781 135.075294 
L 279.416138 139.314565 
L 280.023209 180.785698 
L 280.630281 251.706454 
L 281.034995 274.35686 
L 281.237353 279.210518 
L 281.43971 277.67455 
L 281.642067 271.817393 
L 282.249139 230.305301 
L 282.85621 196.862161 
L 283.867996 154.326091 
L 284.070354 153.138276 
L 284.272711 161.248186 
L 285.284497 243.842298 
L 285.689211 275.831389 
L 286.093926 290.494762 
L 286.296283 292.767995 
L 286.49864 290.965792 
L 286.700997 288.037214 
L 287.105712 257.194979 
L 287.712783 205.934611 
L 288.522212 162.743195 
L 288.724569 155.657263 
L 288.926927 153.732184 
L 289.129284 157.295629 
L 289.736355 190.923085 
L 290.545784 260.615067 
L 290.950499 275.810909 
L 291.152856 278.575651 
L 291.355213 278.65757 
L 291.55757 277.183041 
L 291.759927 264.77242 
L 292.771714 166.634314 
L 293.176428 144.762131 
L 293.581142 133.580285 
L 293.7835 131.860001 
L 293.985857 135.362008 
L 294.592928 160.756677 
L 295.402357 243.596543 
L 295.807072 258.218957 
L 296.009429 258.055121 
L 296.414143 237.862263 
L 297.830644 103.434356 
L 298.235358 90.184073 
L 298.437715 87.603647 
L 298.640073 87.869882 
L 298.84243 89.917839 
L 299.044787 97.925351 
L 299.449501 124.794549 
L 300.056573 203.497542 
L 300.461287 228.646456 
L 300.663645 234.646971 
L 300.866002 235.363756 
L 301.068359 228.564538 
L 301.473073 198.623404 
L 302.484859 93.70656 
L 302.687217 82.422316 
L 302.889574 82.524714 
L 303.091931 90.593665 
L 303.496646 99.215564 
L 303.90136 121.39494 
L 304.306074 149.247157 
L 304.913146 218.242834 
L 305.31786 243.514625 
L 305.520218 249.064589 
L 305.722575 247.282866 
L 305.924932 240.176455 
L 306.532004 200.343688 
L 307.54379 130.549309 
L 307.746147 120.370962 
L 307.948504 119.49034 
L 308.757933 151.663747 
L 309.162647 177.652323 
L 309.769719 240.463169 
L 310.174433 260.287394 
L 310.376791 264.670022 
L 310.579148 264.096594 
L 310.983862 240.749883 
L 312.198005 137.020853 
L 312.60272 125.429416 
L 312.805077 121.067267 
L 313.007434 121.620216 
L 313.209791 125.306538 
L 313.816863 152.810603 
L 314.01922 166.449998 
L 314.626292 228.851252 
L 315.031006 249.289864 
L 315.233364 253.856809 
L 315.435721 253.201462 
L 315.840435 234.483134 
L 316.24515 215.826244 
L 316.649864 203.845695 
L 317.054578 188.588414 
L 317.66165 181.092891 
L 317.864007 180.642341 
L 318.066364 179.741239 
L 318.268722 184.410582 
L 318.875793 206.48756 
L 319.685222 264.915777 
L 320.089937 277.654071 
L 320.292294 279.292436 
L 320.697008 271.387322 
L 321.101723 245.234909 
L 322.315866 167.535415 
L 322.72058 157.316109 
L 322.922937 155.001917 
L 323.125295 159.118311 
L 323.732366 186.663335 
L 324.541795 255.003665 
L 324.94651 269.257446 
L 325.148867 272.145066 
L 325.351224 272.206505 
L 325.553581 269.953752 
L 325.755938 257.666009 
L 326.970082 145.581314 
L 327.172439 139.273606 
L 327.374796 137.696679 
L 327.77951 132.146715 
L 327.981868 137.123251 
L 328.184225 145.888508 
L 328.791296 197.39463 
L 329.196011 240.995638 
L 329.398368 256.19148 
L 329.803083 266.267429 
L 330.00544 265.325369 
L 330.207797 259.734446 
L 330.814869 211.361698 
L 331.42194 173.249215 
L 331.826655 150.639768 
L 332.029012 147.752149 
L 332.231369 147.772628 
L 332.433726 147.956944 
L 332.636083 150.045861 
L 332.838441 154.571846 
L 333.243155 177.427048 
L 333.445512 186.41758 
L 334.052584 251.952209 
L 334.457298 273.681034 
L 334.659655 279.087641 
L 334.862013 276.691531 
L 335.266727 256.908265 
L 335.671442 232.619493 
L 336.48087 192.62289 
L 336.683228 187.564436 
L 336.885585 186.458539 
L 337.087942 180.294188 
L 337.290299 178.451026 
L 337.695014 184.902091 
L 338.099728 199.31971 
L 338.302085 205.176867 
L 339.111514 270.813894 
L 339.313871 276.998724 
L 339.516228 279.230998 
L 339.718586 275.176043 
L 340.1233 251.89077 
L 340.932729 207.552498 
L 342.349229 145.970426 
L 342.551587 145.888508 
L 343.158658 170.504953 
L 343.76573 233.090523 
L 344.170444 251.051107 
L 344.372801 255.802368 
L 344.575159 253.672493 
L 344.777516 246.770877 
L 345.18223 215.969601 
L 346.194016 133.559806 
L 346.598731 118.834994 
L 347.003445 112.240572 
L 347.205802 111.400909 
L 347.40816 114.575243 
L 347.610517 122.398439 
L 348.015231 148.427975 
L 348.82466 239.295833 
L 349.229374 256.355316 
L 349.431732 255.597572 
L 349.634089 249.822333 
L 349.836446 238.722405 
L 351.050589 134.583784 
L 351.455304 116.275047 
L 351.860018 107.448352 
L 352.062375 106.547251 
L 352.264733 110.172135 
L 352.46709 121.231104 
L 353.276519 204.09145 
L 353.681233 241.917219 
L 354.085947 262.048637 
L 354.288305 267.311887 
L 354.490662 267.885315 
L 354.693019 265.653042 
L 355.097733 223.731359 
L 355.704805 150.107299 
L 356.109519 125.470375 
L 356.716591 107.325475 
L 356.918948 106.240057 
L 357.121306 111.032277 
L 357.52602 136.590782 
L 357.728377 149.247157 
L 358.740163 244.477165 
L 359.144878 257.420254 
L 359.347235 259.283895 
L 359.549592 258.956222 
L 359.751949 244.989154 
L 360.763735 124.671672 
L 361.16845 105.64615 
L 361.573164 94.566702 
L 361.775521 92.27299 
L 361.977879 95.549721 
L 362.180236 102.533255 
L 362.58495 128.255597 
L 363.394379 216.788784 
L 363.799093 234.401216 
L 364.001451 235.220399 
L 364.203808 229.342762 
L 364.406165 219.307772 
L 365.013237 149.882024 
L 365.620308 85.453292 
L 366.025023 69.31539 
L 366.429737 63.151039 
L 366.632094 63.642549 
L 366.834451 66.284413 
L 367.036809 74.988231 
L 367.441523 104.130661 
L 368.048595 183.632358 
L 368.453309 214.10596 
L 368.655666 222.625462 
L 368.858024 225.001092 
L 369.060381 221.109974 
L 369.262738 211.2593 
L 369.86981 147.813587 
L 370.476881 89.713043 
L 370.881596 73.104111 
L 371.083953 72.65356 
L 371.28631 73.370345 
L 371.488667 77.302423 
L 371.691024 83.528213 
L 372.298096 122.480358 
L 373.107525 207.42962 
L 373.512239 229.649955 
L 373.714597 234.012104 
L 374.119311 233.315798 
L 374.321668 220.577505 
L 375.333454 116.787037 
L 375.738169 103.536754 
L 375.940526 100.83345 
L 376.142883 99.727554 
L 376.34524 104.908885 
L 376.749955 131.143216 
L 377.559383 190.042464 
L 377.964098 224.693899 
L 378.368812 238.49713 
L 378.57117 238.722405 
L 378.773527 232.78333 
L 378.975884 221.560524 
L 380.392384 104.888406 
L 380.797099 94.955813 
L 381.201813 87.357892 
L 381.40417 91.126134 
L 382.011242 128.173678 
L 382.820671 211.095463 
L 383.225385 227.212886 
L 383.427743 227.868232 
L 383.6301 222.523064 
L 384.034814 200.26177 
L 385.0466 126.760588 
L 385.451315 110.049258 
L 385.653672 109.578228 
L 385.856029 113.366948 
L 386.058386 121.005828 
L 387.070172 191.066442 
L 387.474887 231.226882 
L 387.879601 253.140024 
L 388.284316 262.294392 
L 388.68903 264.813379 
L 388.891387 259.05862 
L 389.700816 215.457612 
L 390.307888 204.234807 
L 390.914959 191.476034 
L 391.117316 196.268254 
L 391.926745 235.896224 
L 392.533817 280.152578 
L 392.938531 292.542719 
L 393.140888 294.40636 
L 393.343246 293.95581 
L 393.545603 294.42684 
L 393.74796 285.456787 
L 394.355032 244.23141 
L 395.569175 187.666834 
L 395.771532 181.64584 
L 395.973889 182.854134 
L 396.176247 191.18932 
L 396.783318 233.295319 
L 397.188033 271.878832 
L 397.592747 289.737018 
L 397.795104 292.52224 
L 397.997461 289.982773 
L 398.402176 271.817393 
L 400.628105 143.983908 
L 400.830462 146.830568 
L 401.03282 156.804119 
L 401.639891 213.942124 
L 402.044606 258.362314 
L 402.44932 278.719008 
L 402.651677 282.733004 
L 402.854034 281.074159 
L 403.258749 262.847341 
L 403.663463 234.380736 
L 404.877607 128.153199 
L 405.282321 107.591709 
L 405.484678 103.372917 
L 405.687035 104.458335 
L 405.889393 114.984834 
L 406.294107 152.421491 
L 406.901179 229.977628 
L 407.305893 254.082084 
L 407.50825 259.693487 
L 407.710607 259.161018 
L 408.115322 237.882743 
L 409.73418 105.359436 
L 409.936537 100.423859 
L 410.138894 100.280502 
L 410.341251 104.888406 
L 410.948323 141.055329 
L 411.15068 156.988436 
L 411.757752 227.704396 
L 412.162466 251.808852 
L 412.364823 258.300876 
L 412.56718 260.082598 
L 412.971895 241.999137 
L 414.388395 143.738153 
L 414.79311 130.180676 
L 415.197824 123.504336 
L 415.400181 130.283074 
L 416.20961 192.930083 
L 416.614325 238.230896 
L 417.019039 261.331852 
L 417.221396 265.591603 
L 417.423753 265.038655 
L 417.828468 248.859793 
L 419.244968 150.987921 
L 419.649683 137.369006 
L 419.85204 133.539326 
L 420.054397 134.972896 
L 420.256754 143.635755 
L 421.066183 208.945108 
L 421.673255 264.035156 
L 422.077969 280.111619 
L 422.280326 282.589647 
L 422.482684 281.934301 
L 422.685041 281.770465 
L 423.089755 251.030628 
L 423.899184 182.014472 
L 424.708613 142.734654 
L 424.91097 139.56032 
L 425.113327 143.553837 
L 425.518042 169.644811 
L 425.720399 181.420564 
L 426.529828 255.904766 
L 426.934542 274.438778 
L 427.136899 278.903325 
L 427.339257 279.702028 
L 427.541614 279.927303 
L 427.743971 271.346363 
L 428.148685 231.083525 
L 428.755757 169.337617 
L 429.160471 143.758632 
L 429.565186 135.525845 
L 429.9699 139.437443 
L 430.374615 155.616304 
L 430.576972 167.228221 
L 431.386401 243.023115 
L 431.791115 255.22894 
L 431.993472 253.201462 
L 432.398187 232.947166 
L 433.207616 168.026925 
L 434.017044 97.843433 
L 434.219402 92.969295 
L 435.02883 120.309523 
L 435.433545 145.233161 
L 436.040617 216.235836 
L 436.445331 238.701926 
L 436.647688 243.821819 
L 436.850045 243.145993 
L 437.25476 222.604983 
L 437.659474 187.789711 
L 438.468903 114.534284 
L 438.67126 104.826967 
L 438.873617 105.789507 
L 439.075975 112.875439 
L 439.278332 112.424888 
L 439.480689 114.657161 
L 439.885403 133.150214 
L 440.290118 157.828098 
L 440.897189 231.022086 
L 441.301904 253.262901 
L 441.504261 258.669508 
L 441.706618 259.201977 
L 442.111333 244.518124 
L 442.920762 192.663849 
L 443.527833 157.910016 
L 444.134905 135.239131 
L 444.337262 132.658705 
L 444.539619 139.048331 
L 445.146691 183.960031 
L 445.753762 252.914748 
L 446.158477 274.049666 
L 446.360834 278.985243 
L 446.563191 276.998724 
L 446.967906 258.157519 
L 448.586763 148.735168 
L 448.991478 135.587283 
L 449.193835 133.273092 
L 449.396192 139.908473 
L 450.003264 180.150831 
L 450.812693 259.918762 
L 451.217407 273.169045 
L 451.419764 273.291922 
L 451.824479 256.171 
L 452.43155 205.934611 
L 453.038622 164.176765 
L 453.443336 147.1992 
L 453.848051 139.355524 
L 454.050408 142.714174 
L 454.252765 152.667246 
L 454.65748 180.970014 
L 454.859837 189.387118 
L 455.669266 253.877288 
L 456.07398 267.373326 
L 456.276337 268.888814 
L 456.478694 266.902296 
L 456.681052 263.80988 
L 456.883409 255.843327 
L 457.288123 228.93317 
L 457.692838 218.017559 
L 457.895195 218.713864 
L 458.299909 224.448144 
L 458.502267 224.304787 
L 458.906981 220.495587 
L 459.109338 221.028056 
L 459.514053 225.164929 
L 459.71641 229.445159 
L 460.728196 286.931317 
L 461.13291 291.334425 
L 461.537625 288.037214 
L 461.739982 279.149079 
L 462.144696 244.784359 
L 463.561197 175.89108 
L 463.763554 168.661791 
L 463.965911 169.829127 
L 464.572983 189.223281 
L 465.382412 255.925245 
L 465.584769 262.806381 
L 465.787126 265.509685 
L 465.989483 263.093095 
L 467.608341 170.935024 
L 468.620127 149.841065 
L 468.822484 152.95396 
L 469.429556 179.085893 
L 470.036627 235.568551 
L 470.441342 253.283381 
L 470.643699 255.904766 
L 470.846056 253.344819 
L 471.857842 202.6374 
L 472.869628 172.511951 
L 473.071985 173.00346 
L 473.274343 171.221738 
L 473.4767 172.470992 
L 473.679057 176.239233 
L 473.881414 182.792696 
L 474.083772 183.939552 
L 474.286129 191.578432 
L 474.8932 243.473666 
L 475.297915 259.652527 
L 475.500272 261.311373 
L 475.702629 259.283895 
L 476.107344 235.015603 
L 476.512058 213.102461 
L 477.321487 181.748237 
L 477.726201 161.678257 
L 477.928558 158.135292 
L 478.333273 162.804634 
L 478.53563 167.248701 
L 479.142702 192.069941 
L 479.952131 259.55013 
L 480.356845 269.359844 
L 480.559202 268.950253 
L 480.963917 246.955193 
L 482.785131 119.121708 
L 482.987489 113.244071 
L 483.189846 110.622686 
L 483.392203 116.234088 
L 483.999275 155.923498 
L 484.606346 226.721376 
L 485.011061 249.842813 
L 485.213418 254.225441 
L 485.415775 255.167501 
L 485.82049 235.486633 
L 486.225204 204.419123 
L 487.23699 114.841477 
L 487.439347 111.769542 
L 487.844062 118.302525 
L 488.248776 136.836537 
L 489.260562 214.024042 
L 489.665277 246.033612 
L 490.069991 261.065618 
L 490.272348 263.400289 
L 490.474705 262.273913 
L 490.677063 260.512669 
L 490.87942 250.825832 
L 491.891206 171.467493 
L 492.29592 153.834582 
L 492.498277 146.482415 
L 492.700635 144.475417 
L 492.902992 146.093303 
L 493.105349 150.885523 
L 493.712421 184.246745 
L 494.52185 255.904766 
L 495.128921 274.090625 
L 495.331278 274.233982 
L 495.533636 273.619595 
L 495.735993 266.103592 
L 496.950136 175.030938 
L 497.557208 150.783125 
L 497.759565 147.444955 
L 497.961922 150.639768 
L 498.568994 181.993992 
L 499.378422 255.454215 
L 499.58078 262.253433 
L 499.783137 264.731461 
L 499.985494 261.43425 
L 500.187851 252.955708 
L 500.794923 216.215356 
L 500.99728 211.136423 
L 501.401995 198.111415 
L 501.806709 186.909089 
L 502.009066 186.458539 
L 502.211423 188.506496 
L 502.413781 189.141363 
L 502.616138 187.482517 
L 503.020852 197.148875 
L 503.223209 197.701824 
L 503.425567 205.176867 
L 504.032638 255.618052 
L 504.437353 268.62258 
L 504.63971 270.240466 
L 504.842067 267.885315 
L 505.246782 243.637503 
L 505.651496 219.942638 
L 507.270354 147.158241 
L 507.472711 144.065826 
L 507.675068 147.444955 
L 508.28214 175.338132 
L 508.889211 233.070044 
L 509.293926 250.109047 
L 509.496283 253.611054 
L 509.69864 251.788372 
L 510.103354 228.359742 
L 511.722212 122.521317 
L 512.126927 104.847446 
L 512.329284 106.424373 
L 512.936355 140.625258 
L 513.34107 179.372607 
L 513.745784 222.625462 
L 514.150499 245.234909 
L 514.352856 250.784873 
L 514.555213 251.276383 
L 514.75757 242.429208 
L 516.174071 146.154742 
L 516.376428 145.069325 
L 516.781142 154.346571 
L 516.9835 151.622788 
L 517.185857 152.155257 
L 517.590571 169.767688 
L 517.792928 173.98648 
L 517.995286 184.635857 
L 518.4 224.099991 
L 518.4 224.099991 
" clip-path="url(#pcab2f950ee)" style="fill: none; stroke: #1f77b4; stroke-width: 1.5; stroke-linecap: square"/>
   </g>
   <g id="line2d_14">
    <path d="M 72 280.535437 
L 72.202357 280.535437 
L 72.607072 289.175556 
L 72.809429 289.627431 
L 73.011786 282.176699 
L 73.618858 246.240558 
L 74.023572 232.310193 
L 74.428286 205.794719 
L 75.035358 169.355911 
L 75.237715 164.554153 
L 75.440073 165.201767 
L 75.844787 182.524232 
L 76.047144 191.121027 
L 77.05893 278.52373 
L 77.261287 285.547851 
L 77.463645 285.738668 
L 77.666002 280.562485 
L 78.273073 238.226687 
L 78.677788 228.069479 
L 79.082502 202.579087 
L 79.891931 157.343137 
L 80.094288 155.987256 
L 80.296646 163.154129 
L 80.903717 196.0255 
L 81.713146 268.073534 
L 82.11786 283.471628 
L 82.320218 285.596162 
L 82.522575 281.838105 
L 83.129646 264.739844 
L 83.736718 232.762759 
L 83.939075 230.918978 
L 84.141432 232.807574 
L 84.34379 233.55809 
L 85.76029 254.673222 
L 86.165005 274.158706 
L 86.569719 297.93254 
L 86.974433 304.898881 
L 87.176791 304.859329 
L 87.986219 280.503611 
L 88.593291 257.36862 
L 88.795648 255.915346 
L 88.998005 256.133619 
L 89.40272 253.996942 
L 89.605077 251.74951 
L 89.807434 247.517752 
L 90.009791 240.777395 
L 90.212149 238.869393 
L 90.414506 240.46054 
L 90.616863 243.476977 
L 90.81922 251.913958 
L 91.426292 299.80643 
L 91.628649 304.657239 
L 91.831006 304.314104 
L 92.033364 299.874312 
L 92.235721 292.666496 
L 92.842792 252.58732 
L 93.04515 249.895897 
L 93.247507 249.934348 
L 93.854578 244.656083 
L 94.259293 236.185413 
L 94.46165 234.850749 
L 94.664007 232.131459 
L 94.866364 232.837347 
L 95.271079 238.237446 
L 95.473436 242.490445 
L 95.87815 272.38272 
L 96.282865 299.883033 
L 96.485222 301.56664 
L 96.687579 300.043282 
L 96.889937 295.299627 
L 97.294651 273.477662 
L 97.699365 251.707071 
L 97.901723 251.077243 
L 98.306437 247.138782 
L 98.711151 243.743213 
L 99.318223 229.467019 
L 99.52058 227.472663 
L 99.722937 228.158407 
L 99.925295 230.222086 
L 100.127652 233.764895 
L 100.330009 240.336683 
L 101.139438 296.597461 
L 101.544152 300.928619 
L 101.74651 296.236771 
L 102.151224 273.353419 
L 102.353581 257.978097 
L 102.555938 251.665286 
L 102.758296 251.484564 
L 103.16301 248.433829 
L 103.567724 243.098193 
L 104.377153 222.675003 
L 104.57951 223.386509 
L 104.781868 225.972343 
L 104.984225 230.084151 
L 105.186582 238.425309 
L 105.996011 293.930477 
L 106.198368 297.986313 
L 106.400725 298.398213 
L 106.603083 295.131658 
L 107.007797 272.33202 
L 107.412511 250.141716 
L 108.019583 245.392913 
L 108.424297 232.037469 
L 108.829012 207.323798 
L 109.031369 203.620759 
L 109.233726 205.945774 
L 109.638441 218.511038 
L 109.840798 223.160049 
L 110.245512 248.039851 
L 110.852584 289.496165 
L 111.054941 293.895136 
L 111.257298 294.956853 
L 111.459655 292.360848 
L 111.662013 285.647683 
L 112.269084 248.951788 
L 112.673799 236.967429 
L 113.483228 197.512043 
L 113.887942 182.703063 
L 114.090299 181.776056 
L 114.292656 184.397111 
L 114.495014 190.167845 
L 114.899728 213.690667 
L 115.5068 265.649337 
L 115.911514 282.439722 
L 116.316228 287.881641 
L 116.518586 283.909867 
L 117.125657 262.574567 
L 117.530372 234.953361 
L 118.137443 186.268012 
L 118.542158 162.032301 
L 118.946872 150.722264 
L 119.149229 150.744628 
L 119.351587 157.388362 
L 119.756301 184.816368 
L 120.768087 272.856356 
L 120.970444 281.117415 
L 121.172801 284.294377 
L 121.375159 282.909028 
L 121.577516 280.443207 
L 121.779873 275.375154 
L 122.184587 249.612186 
L 122.589302 220.796666 
L 123.398731 199.54594 
L 123.601088 196.505779 
L 123.803445 198.52564 
L 124.005802 201.872878 
L 124.410517 214.818831 
L 124.815231 235.961572 
L 125.422303 287.568042 
L 125.62466 294.634501 
L 125.827017 295.72897 
L 126.029374 293.920393 
L 126.231732 287.321473 
L 127.243518 221.966156 
L 128.052947 177.459707 
L 128.457661 155.749744 
L 128.660018 151.651607 
L 128.862375 156.624071 
L 129.26709 190.207848 
L 130.076519 272.586092 
L 130.278876 283.216007 
L 130.481233 286.353418 
L 130.68359 287.500888 
L 130.885947 285.033885 
L 131.088305 278.26737 
L 133.111877 146.264214 
L 133.314234 140.425996 
L 133.516591 139.340647 
L 133.921306 155.737073 
L 134.32602 178.057824 
L 135.135449 266.640702 
L 135.540163 276.950288 
L 135.74252 274.81758 
L 135.944878 267.491171 
L 136.754306 211.078118 
L 136.956664 200.804107 
L 137.159021 203.753051 
L 137.361378 202.337042 
L 137.96845 194.877802 
L 138.373164 198.696662 
L 138.575521 200.735594 
L 138.980236 212.596265 
L 139.182593 220.072554 
L 139.992022 281.413371 
L 140.194379 282.929526 
L 140.396736 286.207371 
L 140.599093 283.993251 
L 140.801451 275.116529 
L 141.408522 231.042779 
L 142.015594 212.054298 
L 142.420308 213.534883 
L 142.825023 207.343367 
L 143.229737 210.655272 
L 143.634451 217.05177 
L 144.039166 228.859632 
L 144.848595 280.198554 
L 145.050952 283.472934 
L 145.253309 284.013674 
L 145.455666 281.462845 
L 145.860381 256.954042 
L 146.265095 230.413131 
L 146.66981 219.862716 
L 146.872167 216.461296 
L 147.074524 215.245535 
L 147.276881 215.751475 
L 147.681596 205.899881 
L 148.895739 238.028716 
L 149.705168 281.786907 
L 150.109882 287.079371 
L 150.312239 284.322974 
L 150.716954 272.541942 
L 151.72874 234.360323 
L 152.133454 231.904131 
L 152.335811 232.178392 
L 152.740526 236.759142 
L 152.942883 236.944247 
L 153.14524 237.725947 
L 153.347597 236.47001 
L 153.549955 237.647559 
L 153.752312 240.925893 
L 153.954669 247.021227 
L 154.561741 279.652078 
L 154.966455 287.466705 
L 155.168812 287.736894 
L 155.37117 284.792977 
L 155.978241 263.45987 
L 157.192384 185.568414 
L 157.799456 163.748449 
L 158.001813 159.138788 
L 158.20417 162.302111 
L 158.608885 187.671215 
L 159.620671 278.944887 
L 159.823028 282.828151 
L 160.025385 280.514199 
L 160.227743 273.436069 
L 160.632457 241.866144 
L 161.239529 204.396711 
L 161.644243 191.191677 
L 162.251315 178.626462 
L 162.453672 176.049449 
L 162.656029 177.723675 
L 162.858386 184.107186 
L 163.870172 249.138152 
L 164.274887 281.097663 
L 164.477244 285.998252 
L 164.679601 287.855432 
L 164.881958 283.642707 
L 165.084316 275.057624 
L 165.893744 226.572981 
L 166.298459 218.001224 
L 166.500816 214.944648 
L 166.90553 194.24914 
L 167.310245 170.774401 
L 167.512602 169.247596 
L 167.714959 176.734649 
L 168.524388 230.534692 
L 169.13146 274.198694 
L 169.333817 278.911176 
L 169.536174 280.875256 
L 169.738531 279.959493 
L 169.940888 271.959728 
L 171.559746 168.833286 
L 171.964461 158.702937 
L 172.166818 156.500351 
L 172.369175 157.420742 
L 172.773889 174.238492 
L 173.178604 198.737827 
L 173.988033 278.012788 
L 174.19039 284.402781 
L 174.392747 286.361841 
L 174.595104 285.212423 
L 174.797461 276.803227 
L 175.60689 225.268505 
L 176.213962 199.735649 
L 177.023391 169.428116 
L 177.225748 167.239271 
L 177.630462 177.987943 
L 178.035177 202.021316 
L 178.642248 269.35665 
L 178.844606 282.944082 
L 179.24932 291.435884 
L 179.451677 289.975879 
L 179.654034 282.474403 
L 181.677607 157.901955 
L 181.879964 152.617715 
L 182.082321 151.127396 
L 182.284678 154.444271 
L 182.487035 163.224063 
L 183.094107 211.531705 
L 183.498821 249.515595 
L 183.903536 265.835576 
L 184.105893 270.650827 
L 184.30825 271.390186 
L 184.712965 263.760734 
L 184.915322 258.302324 
L 185.320036 223.788736 
L 185.927108 162.581532 
L 186.331822 143.304197 
L 186.53418 141.713019 
L 186.736537 146.08259 
L 187.141251 165.024106 
L 187.95068 210.638541 
L 188.557752 256.418011 
L 188.962466 268.838909 
L 189.164823 271.613302 
L 189.36718 269.121061 
L 189.771895 256.368736 
L 190.378966 211.668258 
L 190.986038 168.904007 
L 191.390752 156.529103 
L 191.59311 158.22774 
L 191.997824 173.29044 
L 193.00961 230.495404 
L 193.414325 262.241096 
L 193.616682 271.555759 
L 193.819039 275.43725 
L 194.021396 276.637511 
L 194.223753 273.5641 
L 194.628468 258.904305 
L 195.235539 217.727925 
L 195.640254 194.478692 
L 195.842611 191.392678 
L 196.247325 199.713371 
L 196.65204 212.555823 
L 197.259112 218.303095 
L 197.461469 224.152026 
L 197.663826 233.949545 
L 198.270898 280.96572 
L 198.473255 286.721536 
L 198.675612 288.245616 
L 198.877969 284.685916 
L 199.080326 275.970245 
L 199.889755 215.922919 
L 201.306256 169.618501 
L 201.508613 165.595434 
L 201.71097 167.420422 
L 202.115684 187.993511 
L 202.520399 215.790626 
L 203.127471 267.54332 
L 203.329828 274.571708 
L 203.532185 275.353082 
L 203.734542 271.253302 
L 203.936899 261.850736 
L 204.543971 219.018129 
L 204.948685 203.340689 
L 205.960471 168.578648 
L 206.162829 167.746649 
L 206.365186 172.817321 
L 207.376972 217.756221 
L 207.781686 254.617807 
L 207.984044 266.258916 
L 208.186401 271.068313 
L 208.388758 273.021911 
L 208.591115 271.768667 
L 208.793472 263.188943 
L 209.400544 217.483226 
L 210.41233 178.933028 
L 211.019402 144.340694 
L 211.221759 140.527421 
L 211.424116 145.141104 
L 212.031188 184.838707 
L 212.840617 258.005201 
L 213.245331 267.681895 
L 213.447688 267.35942 
L 213.650045 259.684914 
L 214.459474 203.763003 
L 214.661831 193.785149 
L 215.673617 122.710013 
L 215.875975 117.490725 
L 216.078332 117.759428 
L 216.280689 123.444557 
L 216.685403 146.991429 
L 217.090118 176.957582 
L 217.494832 227.178249 
L 217.899547 251.686742 
L 218.101904 258.388234 
L 218.304261 261.205837 
L 218.506618 257.513957 
L 218.911333 245.721632 
L 220.327833 150.53376 
L 220.53019 149.942183 
L 220.732548 155.660351 
L 221.744334 214.546581 
L 222.149048 236.94517 
L 222.553762 265.359794 
L 222.958477 277.209566 
L 223.160834 278.013105 
L 223.363191 276.095638 
L 223.767906 261.437884 
L 224.577335 216.757473 
L 224.779692 212.855308 
L 224.982049 215.199893 
L 225.184406 219.74177 
L 225.589121 223.848714 
L 225.993835 232.129497 
L 226.398549 236.442841 
L 226.600907 240.613019 
L 226.803264 248.579795 
L 227.612693 298.982138 
L 227.81505 298.361187 
L 228.017407 296.64632 
L 228.219764 290.074006 
L 229.029193 241.802744 
L 229.23155 240.955224 
L 229.433908 238.967157 
L 229.838622 227.427829 
L 230.445694 198.989999 
L 230.648051 192.440245 
L 230.850408 190.391176 
L 231.052765 192.262646 
L 231.255122 198.811265 
L 231.659837 229.322491 
L 232.266908 284.240032 
L 232.469266 290.124638 
L 232.671623 290.598473 
L 232.87398 288.230412 
L 233.076337 281.525022 
L 233.885766 237.090253 
L 234.290481 219.407588 
L 234.695195 200.789595 
L 235.302267 182.537819 
L 235.504624 182.435523 
L 235.909338 195.169917 
L 236.314053 213.510421 
L 237.123481 280.605832 
L 237.325839 286.532373 
L 237.528196 287.445492 
L 237.730553 286.122059 
L 237.93291 278.892489 
L 238.539982 240.381168 
L 238.944696 224.60596 
L 239.349411 208.641256 
L 239.956482 196.215431 
L 240.15884 194.747759 
L 240.361197 195.64968 
L 240.765911 205.06349 
L 240.968268 213.248411 
L 242.182412 289.254355 
L 242.384769 290.480868 
L 242.587126 289.788489 
L 242.789483 282.68211 
L 243.396555 243.924438 
L 243.801269 231.995991 
L 245.015413 185.792274 
L 245.21777 183.091087 
L 245.420127 184.214026 
L 245.622484 189.64527 
L 246.027199 212.236055 
L 247.038985 284.712386 
L 247.241342 288.550797 
L 247.443699 287.831644 
L 247.646056 280.532693 
L 249.669628 145.887704 
L 249.871985 141.49374 
L 250.074343 144.990174 
L 250.479057 163.822225 
L 251.086129 208.159263 
L 251.6932 258.316088 
L 252.097915 272.231977 
L 252.300272 273.746701 
L 252.704986 264.239944 
L 252.907344 256.779068 
L 253.312058 226.226729 
L 254.121487 156.421433 
L 254.323844 147.75867 
L 254.526201 144.336594 
L 254.728558 145.196382 
L 255.133273 151.293187 
L 255.33563 159.640569 
L 255.942702 203.375714 
L 256.549773 259.666659 
L 256.954488 275.054183 
L 257.156845 278.033267 
L 257.359202 276.31664 
L 257.763917 265.534102 
L 259.180417 173.277538 
L 259.382774 169.149926 
L 259.585131 167.504562 
L 259.787489 167.958194 
L 259.989846 170.465757 
L 260.39456 185.692803 
L 260.799275 211.981354 
L 261.406346 271.842005 
L 261.811061 282.635572 
L 262.013418 281.727063 
L 262.215775 276.264472 
L 262.62049 245.094957 
L 263.025204 222.032101 
L 263.227561 217.528143 
L 263.429918 218.597597 
L 263.632276 220.70346 
L 264.03699 227.105248 
L 264.239347 226.874756 
L 264.441704 227.217285 
L 264.846419 232.455226 
L 265.048776 233.916979 
L 265.251133 238.488199 
L 265.655848 254.692727 
L 266.262919 290.695605 
L 266.465277 293.374907 
L 266.667634 293.677046 
L 266.869991 290.529633 
L 267.274705 272.464885 
L 267.67942 249.128152 
L 268.893563 217.081996 
L 269.09592 213.014827 
L 269.298277 212.037308 
L 269.500635 212.968927 
L 269.905349 219.931378 
L 270.310063 230.170471 
L 270.714778 255.224425 
L 271.119492 280.185851 
L 271.32185 284.169873 
L 271.524207 285.208174 
L 271.726564 282.355044 
L 271.928921 275.473032 
L 272.535993 236.834066 
L 272.73835 230.583028 
L 273.750136 171.911778 
L 274.15485 151.871601 
L 274.357208 146.958596 
L 274.559565 146.189159 
L 274.761922 150.685548 
L 275.166636 173.159401 
L 275.571351 214.156804 
L 275.976065 250.82584 
L 276.178422 259.409928 
L 276.38078 262.774704 
L 276.583137 261.313314 
L 276.785494 255.234721 
L 278.201995 165.514124 
L 278.809066 144.224824 
L 279.011423 142.123003 
L 279.213781 141.20966 
L 279.618495 151.908739 
L 280.225567 198.709502 
L 280.630281 247.306813 
L 281.034995 272.363187 
L 281.237353 276.026786 
L 281.43971 274.522003 
L 281.642067 268.651363 
L 283.463282 168.653973 
L 283.867996 155.606603 
L 284.070354 155.123524 
L 284.272711 160.619611 
L 284.475068 169.631749 
L 285.08214 221.807289 
L 285.689211 273.52504 
L 285.891568 282.627467 
L 286.296283 286.833368 
L 286.49864 283.819578 
L 286.903354 269.392028 
L 287.308069 239.650093 
L 287.915141 192.804127 
L 288.522212 163.066664 
L 288.724569 158.225469 
L 288.926927 156.574167 
L 289.129284 158.92043 
L 289.533998 179.334813 
L 289.938713 208.77578 
L 290.545784 263.22531 
L 290.950499 275.592964 
L 291.152856 278.0197 
L 291.355213 276.398755 
L 291.759927 265.572298 
L 291.962285 251.558281 
L 292.569356 187.984161 
L 293.176428 144.237135 
L 293.378785 137.323603 
L 293.581142 135.250124 
L 293.7835 136.386135 
L 293.985857 139.608205 
L 294.188214 146.421451 
L 294.997643 204.852784 
L 295.402357 248.931577 
L 295.604714 259.190386 
L 295.807072 262.884396 
L 296.009429 263.648461 
L 296.211786 259.486781 
L 296.818858 206.929912 
L 297.628286 125.521955 
L 298.033001 96.110632 
L 298.235358 88.142749 
L 298.437715 84.978682 
L 298.640073 87.926214 
L 299.044787 102.443083 
L 299.651859 147.226353 
L 300.25893 227.031366 
L 300.461287 239.033617 
L 300.663645 241.070241 
L 300.866002 239.842344 
L 301.068359 232.358106 
L 301.877788 162.790222 
L 302.687217 78.460889 
L 302.889574 70.175407 
L 303.091931 71.291549 
L 303.699003 109.976808 
L 304.306074 153.032838 
L 304.710789 193.999103 
L 305.115503 236.922181 
L 305.31786 248.105997 
L 305.520218 251.562558 
L 305.722575 250.585361 
L 305.924932 244.141116 
L 307.341432 138.622613 
L 307.746147 122.198187 
L 307.948504 116.821394 
L 308.150861 118.16079 
L 308.555576 138.757779 
L 309.365005 198.112229 
L 309.972076 255.520484 
L 310.174433 263.719683 
L 310.376791 266.850027 
L 310.579148 264.588865 
L 310.781505 256.3623 
L 311.388577 204.852523 
L 312.400363 122.424607 
L 312.60272 117.680623 
L 312.805077 116.79997 
L 313.007434 118.864317 
L 313.412149 134.664351 
L 314.01922 172.923905 
L 314.423935 212.43897 
L 314.828649 245.691504 
L 315.031006 253.035341 
L 315.233364 256.294415 
L 315.435721 257.0083 
L 315.638078 249.372553 
L 316.24515 203.672275 
L 316.649864 196.805474 
L 316.852221 194.477292 
L 317.459293 181.973897 
L 317.66165 181.388149 
L 318.268722 188.021669 
L 318.673436 201.150542 
L 318.875793 208.817844 
L 319.685222 263.638395 
L 320.089937 273.310657 
L 320.292294 274.816591 
L 320.494651 270.583244 
L 321.101723 246.369886 
L 322.518223 160.474703 
L 322.72058 156.373035 
L 322.922937 156.265402 
L 323.125295 157.162963 
L 323.327652 163.908735 
L 323.934723 204.036153 
L 324.541795 252.618511 
L 324.94651 268.01471 
L 325.148867 271.229103 
L 325.351224 269.01675 
L 325.755938 257.717065 
L 326.160653 225.934944 
L 327.172439 138.522762 
L 327.374796 133.68577 
L 327.577153 134.627306 
L 327.981868 139.877524 
L 328.184225 147.430371 
L 328.588939 177.07162 
L 328.993654 215.826821 
L 329.398368 255.527231 
L 329.600725 265.856136 
L 329.803083 269.952283 
L 330.00544 268.80699 
L 330.207797 263.939671 
L 330.612511 234.910745 
L 331.219583 179.621061 
L 331.826655 151.55468 
L 332.029012 145.293066 
L 332.231369 144.101894 
L 332.433726 146.704176 
L 332.838441 158.604486 
L 333.040798 167.479458 
L 333.850227 229.914677 
L 334.254941 265.712055 
L 334.457298 274.922551 
L 334.659655 276.737119 
L 334.862013 276.786873 
L 335.06437 269.555362 
L 335.873799 216.229926 
L 336.278513 200.314966 
L 336.683228 184.437083 
L 336.885585 181.211835 
L 337.087942 180.326442 
L 337.290299 178.485454 
L 337.492656 181.009552 
L 337.897371 193.331576 
L 338.302085 210.28795 
L 339.313871 276.852067 
L 339.516228 279.099071 
L 339.718586 279.021086 
L 339.920943 270.041875 
L 340.528015 225.085712 
L 342.146872 156.842472 
L 342.349229 153.631948 
L 342.753944 157.781196 
L 343.158658 178.37611 
L 343.361015 192.716077 
L 343.76573 235.618362 
L 344.170444 256.470614 
L 344.372801 257.140409 
L 344.575159 256.375308 
L 344.777516 249.971066 
L 345.586945 192.415334 
L 346.396374 124.399493 
L 346.598731 115.0205 
L 346.801088 111.102443 
L 347.003445 112.268688 
L 347.610517 130.025044 
L 348.015231 154.323991 
L 348.419946 193.070419 
L 348.82466 238.905213 
L 349.027017 250.890935 
L 349.229374 254.565063 
L 349.431732 255.81566 
L 349.634089 249.837511 
L 350.443518 188.552991 
L 351.455304 116.943883 
L 351.657661 110.428017 
L 351.860018 109.011744 
L 352.062375 110.748005 
L 352.264733 114.183505 
L 352.46709 122.284446 
L 352.871804 155.211804 
L 353.276519 199.266187 
L 353.681233 244.888799 
L 354.085947 261.313134 
L 354.288305 263.270952 
L 354.490662 260.84306 
L 354.895376 243.59214 
L 355.300091 207.178246 
L 356.311877 110.154873 
L 356.716591 106.604001 
L 356.918948 108.444815 
L 357.121306 111.461709 
L 357.323663 120.760148 
L 357.930734 170.8152 
L 358.537806 237.296682 
L 358.94252 255.793455 
L 359.144878 258.529624 
L 359.347235 258.53499 
L 359.751949 241.970754 
L 360.156664 201.656639 
L 360.966092 108.95924 
L 361.370807 94.832487 
L 361.573164 93.198497 
L 361.775521 93.782683 
L 361.977879 97.024237 
L 362.180236 105.027417 
L 362.787307 151.705274 
L 363.596736 239.161825 
L 363.799093 243.123562 
L 364.001451 243.705253 
L 364.203808 238.838109 
L 364.810879 182.978083 
L 365.822665 67.417536 
L 366.025023 58.707893 
L 366.22738 55.8 
L 366.429737 56.475085 
L 366.632094 60.067606 
L 367.036809 76.245848 
L 367.64388 127.171074 
L 368.453309 223.631727 
L 368.655666 229.244264 
L 368.858024 228.655458 
L 369.060381 222.355747 
L 369.667452 175.521904 
L 370.679238 72.474242 
L 370.881596 64.764847 
L 371.083953 61.355903 
L 371.28631 63.781071 
L 371.691024 81.409042 
L 372.095739 110.328633 
L 372.702811 167.017931 
L 373.107525 213.247565 
L 373.512239 233.960171 
L 373.714597 234.355872 
L 373.916954 231.022076 
L 374.524025 200.859194 
L 374.92874 162.280537 
L 375.333454 109.483968 
L 375.535811 97.082339 
L 375.738169 92.161932 
L 375.940526 90.112017 
L 376.142883 93.039343 
L 376.34524 97.973686 
L 376.749955 122.363761 
L 377.964098 227.670274 
L 378.368812 244.159518 
L 378.57117 243.982986 
L 378.773527 238.482252 
L 379.178241 208.452344 
L 379.785313 145.574733 
L 380.190027 108.110606 
L 380.594742 92.222373 
L 380.797099 88.664752 
L 381.201813 90.055046 
L 381.40417 92.602267 
L 381.606528 99.307906 
L 382.213599 147.914688 
L 383.023028 230.326216 
L 383.225385 232.747195 
L 383.427743 230.927161 
L 383.6301 224.323876 
L 384.237171 182.528693 
L 384.237171 182.528693 
" clip-path="url(#pcab2f950ee)" style="fill: none; stroke: #ff7f0e; stroke-width: 1.5; stroke-linecap: square"/>
   </g>
   <g id="line2d_15">
    <path d="M 384.439529 168.232247 
L 385.248957 118.71814 
L 385.653672 105.82718 
L 385.856029 103.574852 
L 386.058386 107.039683 
L 386.463101 125.957862 
L 387.070172 172.550521 
L 387.879601 241.052029 
L 388.081958 246.746123 
L 388.284316 247.997077 
L 388.486673 243.599897 
L 388.891387 218.732318 
L 390.10553 132.262343 
L 390.510245 113.228333 
L 390.712602 108.281567 
L 390.914959 107.812243 
L 391.117316 111.596203 
L 391.522031 131.755165 
L 392.129102 181.980276 
L 392.736174 236.969584 
L 392.938531 245.825308 
L 393.140888 248.742417 
L 393.343246 246.023703 
L 393.545603 237.08983 
L 395.164461 124.713788 
L 395.569175 113.345023 
L 395.771532 114.231362 
L 395.973889 120.372633 
L 396.378604 145.148003 
L 396.985675 194.353302 
L 397.39039 232.401347 
L 397.795104 253.025385 
L 397.997461 256.527236 
L 398.199819 253.831014 
L 398.402176 246.509522 
L 399.009248 200.624249 
L 400.021034 135.060394 
L 400.425748 122.853839 
L 400.628105 123.090778 
L 400.830462 128.565555 
L 401.235177 153.150667 
L 401.842248 202.423358 
L 402.246963 239.38562 
L 402.651677 258.367024 
L 402.854034 260.827931 
L 403.056392 258.383369 
L 403.258749 251.328565 
L 403.663463 221.07773 
L 404.472892 163.736984 
L 404.877607 140.588845 
L 405.079964 133.159786 
L 405.282321 129.826538 
L 405.484678 130.867059 
L 405.687035 137.348884 
L 406.294107 178.974552 
L 407.305893 255.256469 
L 407.50825 261.392867 
L 407.710607 262.672129 
L 407.912965 259.893766 
L 408.115322 252.980915 
L 408.520036 223.871615 
L 409.329465 168.774698 
L 409.73418 148.098489 
L 409.936537 142.209958 
L 410.138894 140.223396 
L 410.341251 142.720166 
L 410.745966 162.820443 
L 412.162466 258.877126 
L 412.364823 262.816041 
L 412.56718 262.71295 
L 412.769538 259.297375 
L 412.971895 252.173388 
L 413.578966 209.797569 
L 414.388395 163.760212 
L 414.79311 152.902779 
L 414.995467 152.917348 
L 415.197824 157.212269 
L 415.602539 177.366407 
L 417.019039 260.828917 
L 417.221396 262.685192 
L 417.423753 261.16989 
L 417.626111 256.748798 
L 418.030825 236.617926 
L 418.637897 198.151016 
L 419.244968 171.988683 
L 419.447325 167.461013 
L 419.649683 166.197007 
L 419.85204 168.196095 
L 420.256754 182.365355 
L 421.875612 260.724372 
L 422.077969 260.937934 
L 422.280326 258.037008 
L 422.482684 252.195718 
L 422.887398 230.691196 
L 423.49447 199.20534 
L 423.899184 185.817546 
L 424.303898 179.757419 
L 424.506256 180.271213 
L 424.708613 183.930396 
L 425.113327 197.437869 
L 426.529828 257.466704 
L 426.732185 258.66722 
L 426.934542 256.984098 
L 427.136899 252.422993 
L 427.541614 234.509959 
L 428.148685 205.356887 
L 428.5534 195.217475 
L 428.958114 190.563161 
L 429.160471 190.871692 
L 429.362829 193.114226 
L 429.767543 203.430148 
L 431.386401 255.437632 
L 431.588758 254.435132 
L 431.791115 250.56891 
L 432.19583 235.062049 
L 432.802901 209.010434 
L 433.207616 201.184769 
L 433.409973 199.359019 
L 433.61233 198.771368 
L 433.814687 199.879986 
L 434.017044 202.000312 
L 434.421759 210.146233 
L 435.231188 232.935599 
L 435.838259 249.356752 
L 436.040617 251.627637 
L 436.242974 251.351367 
L 436.445331 248.33912 
L 436.850045 234.756217 
L 437.457117 211.476968 
L 437.861831 205.781904 
L 438.064189 205.274723 
L 438.266546 205.761529 
L 438.67126 210.139309 
L 439.683046 227.51538 
L 440.694832 247.532147 
L 440.897189 247.82787 
L 441.099547 245.597271 
L 441.504261 234.055449 
L 442.111333 213.769013 
L 442.31369 210.7308 
L 442.516047 209.774218 
L 442.718404 210.204653 
L 443.123119 213.597222 
L 444.337262 227.55968 
L 445.551405 244.012065 
L 445.753762 242.386473 
L 446.158477 232.962964 
L 446.765549 216.009817 
L 446.967906 213.63957 
L 447.170263 213.328005 
L 447.37262 214.257448 
L 447.777335 217.5757 
L 448.586763 224.339561 
L 448.991478 226.825553 
L 449.598549 234.181956 
L 450.003264 239.097651 
L 450.205621 239.945458 
L 450.407978 238.821166 
L 450.812693 231.412353 
L 451.419764 217.902312 
L 451.622121 215.982073 
L 451.824479 215.778249 
L 452.026836 216.472994 
L 453.240979 224.548182 
L 453.645694 225.830835 
L 454.050408 229.071166 
L 454.65748 235.003818 
L 454.859837 235.78291 
L 455.062194 235.061131 
L 455.466908 229.556854 
L 456.07398 219.133536 
L 456.276337 217.490483 
L 456.478694 217.150226 
L 456.681052 217.627204 
L 457.288123 221.545544 
L 457.692838 223.775753 
L 458.097552 224.627511 
L 458.299909 224.977445 
L 458.704624 227.095027 
L 459.514053 231.968299 
L 459.71641 231.648097 
L 459.918767 230.252419 
L 460.930553 218.676721 
L 461.13291 218.272102 
L 461.335267 218.613352 
L 461.739982 220.735811 
L 462.144696 223.030819 
L 462.549411 224.134482 
L 462.954125 224.339944 
L 463.156482 224.753793 
L 463.763554 227.469649 
L 464.168268 228.992189 
L 464.370626 228.896597 
L 464.572983 228.112656 
L 464.977697 224.523884 
L 465.382412 220.748797 
L 465.584769 219.640918 
L 465.787126 219.261988 
L 465.989483 219.468682 
L 466.394198 221.188861 
L 466.798912 223.032923 
L 467.203626 223.830796 
L 467.810698 223.916722 
L 468.215413 224.95375 
L 468.822484 226.810284 
L 469.024841 226.841758 
L 469.227199 226.449721 
L 469.631913 224.13375 
L 470.238985 220.452378 
L 470.441342 220.080843 
L 470.643699 220.194945 
L 471.048413 221.529131 
L 471.453128 223.000746 
L 471.655485 223.434136 
L 471.857842 223.596029 
L 472.262557 223.458521 
L 472.464914 223.372546 
L 472.667271 223.502461 
L 473.071985 224.352043 
L 473.4767 225.244815 
L 473.679057 225.403977 
L 473.881414 225.235075 
L 474.286129 223.832803 
L 474.8932 221.174098 
L 475.095558 220.838209 
L 475.297915 220.875138 
L 475.702629 221.808173 
L 476.107344 222.936704 
L 476.512058 223.398184 
L 476.916772 223.190497 
L 477.321487 223.01854 
L 477.523844 223.159635 
L 478.333273 224.412525 
L 478.53563 224.397512 
L 478.737987 224.106527 
L 479.142702 222.930426 
L 479.547416 221.729065 
L 479.749773 221.441655 
L 479.952131 221.418928 
L 480.356845 222.016051 
L 480.963917 223.116747 
L 481.166274 223.218929 
L 481.570988 223.036145 
L 481.975703 222.81755 
L 482.17806 222.856775 
L 482.582774 223.283279 
L 482.987489 223.768691 
L 483.189846 223.826126 
L 483.392203 223.69761 
L 483.796917 222.960227 
L 484.201632 222.093122 
L 484.403989 221.844144 
L 484.606346 221.783742 
L 484.808704 221.903842 
L 485.82049 223.085884 
L 486.225204 222.948529 
L 486.629918 222.725025 
L 487.034633 222.794106 
L 487.844062 223.421748 
L 488.046419 223.387958 
L 488.451133 222.945262 
L 489.058205 222.124214 
L 489.260562 222.044932 
L 489.665277 222.260319 
L 490.474705 222.974879 
L 490.87942 222.895192 
L 491.486491 222.647949 
L 491.891206 222.768488 
L 492.498277 223.140854 
L 492.902992 223.077358 
L 493.914778 222.232026 
L 494.319492 222.339368 
L 495.128921 222.882267 
L 495.533636 222.853903 
L 496.343064 222.619727 
L 496.950136 222.861288 
L 497.35485 222.987242 
L 497.759565 222.870257 
L 498.568994 222.364944 
L 498.973708 222.400866 
L 499.985494 222.836269 
L 500.592566 222.684894 
L 501.199637 222.617771 
L 502.211423 222.868834 
L 502.818495 222.635153 
L 503.425567 222.430898 
L 504.032638 222.596716 
L 504.63971 222.783937 
L 505.246782 222.687439 
L 505.853853 222.599992 
L 507.270354 222.733599 
L 508.28214 222.492747 
L 509.900997 222.687545 
L 510.710426 222.609643 
L 511.924569 222.719854 
L 513.138713 222.546363 
L 514.352856 222.710444 
L 515.566999 222.622071 
L 516.578785 222.704 
L 517.995286 222.58689 
L 518.4 222.654119 
L 518.4 222.654119 
" clip-path="url(#pcab2f950ee)" style="fill: none; stroke: #2ca02c; stroke-width: 1.5; stroke-linecap: square"/>
   </g>
   <g id="patch_3">
    <path d="M 72 320.4 
L 72 43.2 
" style="fill: none; stroke: #000000; stroke-width: 0.8; stroke-linejoin: miter; stroke-linecap: square"/>
   </g>
   <g id="patch_4">
    <path d="M 518.4 320.4 
L 518.4 43.2 
" style="fill: none; stroke: #000000; stroke-width: 0.8; stroke-linejoin: miter; stroke-linecap: square"/>
   </g>
   <g id="patch_5">
    <path d="M 72 320.4 
L 518.4 320.4 
" style="fill: none; stroke: #000000; stroke-width: 0.8; stroke-linejoin: miter; stroke-linecap: square"/>
   </g>
   <g id="patch_6">
    <path d="M 72 43.2 
L 518.4 43.2 
" style="fill: none; stroke: #000000; stroke-width: 0.8; stroke-linejoin: miter; stroke-linecap: square"/>
   </g>
   <g id="text_13">
    <!-- Classic Transformer - model_20231123163815 -->
    <g transform="translate(155.436563 37.2) scale(0.12 -0.12)">
     <defs>
      <path id="DejaVuSans-43" d="M 4122 4306 
L 4122 3641 
Q 3803 3938 3442 4084 
Q 3081 4231 2675 4231 
Q 1875 4231 1450 3742 
Q 1025 3253 1025 2328 
Q 1025 1406 1450 917 
Q 1875 428 2675 428 
Q 3081 428 3442 575 
Q 3803 722 4122 1019 
L 4122 359 
Q 3791 134 3420 21 
Q 3050 -91 2638 -91 
Q 1578 -91 968 557 
Q 359 1206 359 2328 
Q 359 3453 968 4101 
Q 1578 4750 2638 4750 
Q 3056 4750 3426 4639 
Q 3797 4528 4122 4306 
z
" transform="scale(0.015625)"/>
      <path id="DejaVuSans-6c" d="M 603 4863 
L 1178 4863 
L 1178 0 
L 603 0 
L 603 4863 
z
" transform="scale(0.015625)"/>
      <path id="DejaVuSans-61" d="M 2194 1759 
Q 1497 1759 1228 1600 
Q 959 1441 959 1056 
Q 959 750 1161 570 
Q 1363 391 1709 391 
Q 2188 391 2477 730 
Q 2766 1069 2766 1631 
L 2766 1759 
L 2194 1759 
z
M 3341 1997 
L 3341 0 
L 2766 0 
L 2766 531 
Q 2569 213 2275 61 
Q 1981 -91 1556 -91 
Q 1019 -91 701 211 
Q 384 513 384 1019 
Q 384 1609 779 1909 
Q 1175 2209 1959 2209 
L 2766 2209 
L 2766 2266 
Q 2766 2663 2505 2880 
Q 2244 3097 1772 3097 
Q 1472 3097 1187 3025 
Q 903 2953 641 2809 
L 641 3341 
Q 956 3463 1253 3523 
Q 1550 3584 1831 3584 
Q 2591 3584 2966 3190 
Q 3341 2797 3341 1997 
z
" transform="scale(0.015625)"/>
      <path id="DejaVuSans-73" d="M 2834 3397 
L 2834 2853 
Q 2591 2978 2328 3040 
Q 2066 3103 1784 3103 
Q 1356 3103 1142 2972 
Q 928 2841 928 2578 
Q 928 2378 1081 2264 
Q 1234 2150 1697 2047 
L 1894 2003 
Q 2506 1872 2764 1633 
Q 3022 1394 3022 966 
Q 3022 478 2636 193 
Q 2250 -91 1575 -91 
Q 1294 -91 989 -36 
Q 684 19 347 128 
L 347 722 
Q 666 556 975 473 
Q 1284 391 1588 391 
Q 1994 391 2212 530 
Q 2431 669 2431 922 
Q 2431 1156 2273 1281 
Q 2116 1406 1581 1522 
L 1381 1569 
Q 847 1681 609 1914 
Q 372 2147 372 2553 
Q 372 3047 722 3315 
Q 1072 3584 1716 3584 
Q 2034 3584 2315 3537 
Q 2597 3491 2834 3397 
z
" transform="scale(0.015625)"/>
      <path id="DejaVuSans-69" d="M 603 3500 
L 1178 3500 
L 1178 0 
L 603 0 
L 603 3500 
z
M 603 4863 
L 1178 4863 
L 1178 4134 
L 603 4134 
L 603 4863 
z
" transform="scale(0.015625)"/>
      <path id="DejaVuSans-63" d="M 3122 3366 
L 3122 2828 
Q 2878 2963 2633 3030 
Q 2388 3097 2138 3097 
Q 1578 3097 1268 2742 
Q 959 2388 959 1747 
Q 959 1106 1268 751 
Q 1578 397 2138 397 
Q 2388 397 2633 464 
Q 2878 531 3122 666 
L 3122 134 
Q 2881 22 2623 -34 
Q 2366 -91 2075 -91 
Q 1284 -91 818 406 
Q 353 903 353 1747 
Q 353 2603 823 3093 
Q 1294 3584 2113 3584 
Q 2378 3584 2631 3529 
Q 2884 3475 3122 3366 
z
" transform="scale(0.015625)"/>
      <path id="DejaVuSans-20" transform="scale(0.015625)"/>
      <path id="DejaVuSans-54" d="M -19 4666 
L 3928 4666 
L 3928 4134 
L 2272 4134 
L 2272 0 
L 1638 0 
L 1638 4134 
L -19 4134 
L -19 4666 
z
" transform="scale(0.015625)"/>
      <path id="DejaVuSans-72" d="M 2631 2963 
Q 2534 3019 2420 3045 
Q 2306 3072 2169 3072 
Q 1681 3072 1420 2755 
Q 1159 2438 1159 1844 
L 1159 0 
L 581 0 
L 581 3500 
L 1159 3500 
L 1159 2956 
Q 1341 3275 1631 3429 
Q 1922 3584 2338 3584 
Q 2397 3584 2469 3576 
Q 2541 3569 2628 3553 
L 2631 2963 
z
" transform="scale(0.015625)"/>
      <path id="DejaVuSans-6e" d="M 3513 2113 
L 3513 0 
L 2938 0 
L 2938 2094 
Q 2938 2591 2744 2837 
Q 2550 3084 2163 3084 
Q 1697 3084 1428 2787 
Q 1159 2491 1159 1978 
L 1159 0 
L 581 0 
L 581 3500 
L 1159 3500 
L 1159 2956 
Q 1366 3272 1645 3428 
Q 1925 3584 2291 3584 
Q 2894 3584 3203 3211 
Q 3513 2838 3513 2113 
z
" transform="scale(0.015625)"/>
      <path id="DejaVuSans-66" d="M 2375 4863 
L 2375 4384 
L 1825 4384 
Q 1516 4384 1395 4259 
Q 1275 4134 1275 3809 
L 1275 3500 
L 2222 3500 
L 2222 3053 
L 1275 3053 
L 1275 0 
L 697 0 
L 697 3053 
L 147 3053 
L 147 3500 
L 697 3500 
L 697 3744 
Q 697 4328 969 4595 
Q 1241 4863 1831 4863 
L 2375 4863 
z
" transform="scale(0.015625)"/>
      <path id="DejaVuSans-6f" d="M 1959 3097 
Q 1497 3097 1228 2736 
Q 959 2375 959 1747 
Q 959 1119 1226 758 
Q 1494 397 1959 397 
Q 2419 397 2687 759 
Q 2956 1122 2956 1747 
Q 2956 2369 2687 2733 
Q 2419 3097 1959 3097 
z
M 1959 3584 
Q 2709 3584 3137 3096 
Q 3566 2609 3566 1747 
Q 3566 888 3137 398 
Q 2709 -91 1959 -91 
Q 1206 -91 779 398 
Q 353 888 353 1747 
Q 353 2609 779 3096 
Q 1206 3584 1959 3584 
z
" transform="scale(0.015625)"/>
      <path id="DejaVuSans-6d" d="M 3328 2828 
Q 3544 3216 3844 3400 
Q 4144 3584 4550 3584 
Q 5097 3584 5394 3201 
Q 5691 2819 5691 2113 
L 5691 0 
L 5113 0 
L 5113 2094 
Q 5113 2597 4934 2840 
Q 4756 3084 4391 3084 
Q 3944 3084 3684 2787 
Q 3425 2491 3425 1978 
L 3425 0 
L 2847 0 
L 2847 2094 
Q 2847 2600 2669 2842 
Q 2491 3084 2119 3084 
Q 1678 3084 1418 2786 
Q 1159 2488 1159 1978 
L 1159 0 
L 581 0 
L 581 3500 
L 1159 3500 
L 1159 2956 
Q 1356 3278 1631 3431 
Q 1906 3584 2284 3584 
Q 2666 3584 2933 3390 
Q 3200 3197 3328 2828 
z
" transform="scale(0.015625)"/>
      <path id="DejaVuSans-65" d="M 3597 1894 
L 3597 1613 
L 953 1613 
Q 991 1019 1311 708 
Q 1631 397 2203 397 
Q 2534 397 2845 478 
Q 3156 559 3463 722 
L 3463 178 
Q 3153 47 2828 -22 
Q 2503 -91 2169 -91 
Q 1331 -91 842 396 
Q 353 884 353 1716 
Q 353 2575 817 3079 
Q 1281 3584 2069 3584 
Q 2775 3584 3186 3129 
Q 3597 2675 3597 1894 
z
M 3022 2063 
Q 3016 2534 2758 2815 
Q 2500 3097 2075 3097 
Q 1594 3097 1305 2825 
Q 1016 2553 972 2059 
L 3022 2063 
z
" transform="scale(0.015625)"/>
      <path id="DejaVuSans-64" d="M 2906 2969 
L 2906 4863 
L 3481 4863 
L 3481 0 
L 2906 0 
L 2906 525 
Q 2725 213 2448 61 
Q 2172 -91 1784 -91 
Q 1150 -91 751 415 
Q 353 922 353 1747 
Q 353 2572 751 3078 
Q 1150 3584 1784 3584 
Q 2172 3584 2448 3432 
Q 2725 3281 2906 2969 
z
M 947 1747 
Q 947 1113 1208 752 
Q 1469 391 1925 391 
Q 2381 391 2643 752 
Q 2906 1113 2906 1747 
Q 2906 2381 2643 2742 
Q 2381 3103 1925 3103 
Q 1469 3103 1208 2742 
Q 947 2381 947 1747 
z
" transform="scale(0.015625)"/>
      <path id="DejaVuSans-5f" d="M 3263 -1063 
L 3263 -1509 
L -63 -1509 
L -63 -1063 
L 3263 -1063 
z
" transform="scale(0.015625)"/>
     </defs>
     <use xlink:href="#DejaVuSans-43"/>
     <use xlink:href="#DejaVuSans-6c" x="69.824219"/>
     <use xlink:href="#DejaVuSans-61" x="97.607422"/>
     <use xlink:href="#DejaVuSans-73" x="158.886719"/>
     <use xlink:href="#DejaVuSans-73" x="210.986328"/>
     <use xlink:href="#DejaVuSans-69" x="263.085938"/>
     <use xlink:href="#DejaVuSans-63" x="290.869141"/>
     <use xlink:href="#DejaVuSans-20" x="345.849609"/>
     <use xlink:href="#DejaVuSans-54" x="377.636719"/>
     <use xlink:href="#DejaVuSans-72" x="423.970703"/>
     <use xlink:href="#DejaVuSans-61" x="465.083984"/>
     <use xlink:href="#DejaVuSans-6e" x="526.363281"/>
     <use xlink:href="#DejaVuSans-73" x="589.742188"/>
     <use xlink:href="#DejaVuSans-66" x="641.841797"/>
     <use xlink:href="#DejaVuSans-6f" x="677.046875"/>
     <use xlink:href="#DejaVuSans-72" x="738.228516"/>
     <use xlink:href="#DejaVuSans-6d" x="777.591797"/>
     <use xlink:href="#DejaVuSans-65" x="875.003906"/>
     <use xlink:href="#DejaVuSans-72" x="936.527344"/>
     <use xlink:href="#DejaVuSans-20" x="977.640625"/>
     <use xlink:href="#DejaVuSans-2d" x="1009.427734"/>
     <use xlink:href="#DejaVuSans-20" x="1045.511719"/>
     <use xlink:href="#DejaVuSans-6d" x="1077.298828"/>
     <use xlink:href="#DejaVuSans-6f" x="1174.710938"/>
     <use xlink:href="#DejaVuSans-64" x="1235.892578"/>
     <use xlink:href="#DejaVuSans-65" x="1299.369141"/>
     <use xlink:href="#DejaVuSans-6c" x="1360.892578"/>
     <use xlink:href="#DejaVuSans-5f" x="1388.675781"/>
     <use xlink:href="#DejaVuSans-32" x="1438.675781"/>
     <use xlink:href="#DejaVuSans-30" x="1502.298828"/>
     <use xlink:href="#DejaVuSans-32" x="1565.921875"/>
     <use xlink:href="#DejaVuSans-33" x="1629.544922"/>
     <use xlink:href="#DejaVuSans-31" x="1693.167969"/>
     <use xlink:href="#DejaVuSans-31" x="1756.791016"/>
     <use xlink:href="#DejaVuSans-32" x="1820.414062"/>
     <use xlink:href="#DejaVuSans-33" x="1884.037109"/>
     <use xlink:href="#DejaVuSans-31" x="1947.660156"/>
     <use xlink:href="#DejaVuSans-36" x="2011.283203"/>
     <use xlink:href="#DejaVuSans-33" x="2074.90625"/>
     <use xlink:href="#DejaVuSans-38" x="2138.529297"/>
     <use xlink:href="#DejaVuSans-31" x="2202.152344"/>
     <use xlink:href="#DejaVuSans-35" x="2265.775391"/>
    </g>
   </g>
   <g id="legend_1">
    <g id="patch_7">
     <path d="M 79 95.234375 
L 161.517188 95.234375 
Q 163.517188 95.234375 163.517188 93.234375 
L 163.517188 50.2 
Q 163.517188 48.2 161.517188 48.2 
L 79 48.2 
Q 77 48.2 77 50.2 
L 77 93.234375 
Q 77 95.234375 79 95.234375 
z
" style="fill: #ffffff; opacity: 0.8; stroke: #cccccc; stroke-linejoin: miter"/>
    </g>
    <g id="line2d_16">
     <path d="M 81 56.298437 
L 91 56.298437 
L 101 56.298437 
" style="fill: none; stroke: #1f77b4; stroke-width: 1.5; stroke-linecap: square"/>
    </g>
    <g id="text_14">
     <!-- Measured -->
     <g transform="translate(109 59.798437) scale(0.1 -0.1)">
      <defs>
       <path id="DejaVuSans-4d" d="M 628 4666 
L 1569 4666 
L 2759 1491 
L 3956 4666 
L 4897 4666 
L 4897 0 
L 4281 0 
L 4281 4097 
L 3078 897 
L 2444 897 
L 1241 4097 
L 1241 0 
L 628 0 
L 628 4666 
z
" transform="scale(0.015625)"/>
       <path id="DejaVuSans-75" d="M 544 1381 
L 544 3500 
L 1119 3500 
L 1119 1403 
Q 1119 906 1312 657 
Q 1506 409 1894 409 
Q 2359 409 2629 706 
Q 2900 1003 2900 1516 
L 2900 3500 
L 3475 3500 
L 3475 0 
L 2900 0 
L 2900 538 
Q 2691 219 2414 64 
Q 2138 -91 1772 -91 
Q 1169 -91 856 284 
Q 544 659 544 1381 
z
M 1991 3584 
L 1991 3584 
z
" transform="scale(0.015625)"/>
      </defs>
      <use xlink:href="#DejaVuSans-4d"/>
      <use xlink:href="#DejaVuSans-65" x="86.279297"/>
      <use xlink:href="#DejaVuSans-61" x="147.802734"/>
      <use xlink:href="#DejaVuSans-73" x="209.082031"/>
      <use xlink:href="#DejaVuSans-75" x="261.181641"/>
      <use xlink:href="#DejaVuSans-72" x="324.560547"/>
      <use xlink:href="#DejaVuSans-65" x="363.423828"/>
      <use xlink:href="#DejaVuSans-64" x="424.947266"/>
     </g>
    </g>
    <g id="line2d_17">
     <path d="M 81 70.976562 
L 91 70.976562 
L 101 70.976562 
" style="fill: none; stroke: #ff7f0e; stroke-width: 1.5; stroke-linecap: square"/>
    </g>
    <g id="text_15">
     <!-- Fitted -->
     <g transform="translate(109 74.476562) scale(0.1 -0.1)">
      <defs>
       <path id="DejaVuSans-46" d="M 628 4666 
L 3309 4666 
L 3309 4134 
L 1259 4134 
L 1259 2759 
L 3109 2759 
L 3109 2228 
L 1259 2228 
L 1259 0 
L 628 0 
L 628 4666 
z
" transform="scale(0.015625)"/>
       <path id="DejaVuSans-74" d="M 1172 4494 
L 1172 3500 
L 2356 3500 
L 2356 3053 
L 1172 3053 
L 1172 1153 
Q 1172 725 1289 603 
Q 1406 481 1766 481 
L 2356 481 
L 2356 0 
L 1766 0 
Q 1100 0 847 248 
Q 594 497 594 1153 
L 594 3053 
L 172 3053 
L 172 3500 
L 594 3500 
L 594 4494 
L 1172 4494 
z
" transform="scale(0.015625)"/>
      </defs>
      <use xlink:href="#DejaVuSans-46"/>
      <use xlink:href="#DejaVuSans-69" x="50.269531"/>
      <use xlink:href="#DejaVuSans-74" x="78.052734"/>
      <use xlink:href="#DejaVuSans-74" x="117.261719"/>
      <use xlink:href="#DejaVuSans-65" x="156.470703"/>
      <use xlink:href="#DejaVuSans-64" x="217.994141"/>
     </g>
    </g>
    <g id="line2d_18">
     <path d="M 81 85.654687 
L 91 85.654687 
L 101 85.654687 
" style="fill: none; stroke: #2ca02c; stroke-width: 1.5; stroke-linecap: square"/>
    </g>
    <g id="text_16">
     <!-- Estimated -->
     <g transform="translate(109 89.154687) scale(0.1 -0.1)">
      <defs>
       <path id="DejaVuSans-45" d="M 628 4666 
L 3578 4666 
L 3578 4134 
L 1259 4134 
L 1259 2753 
L 3481 2753 
L 3481 2222 
L 1259 2222 
L 1259 531 
L 3634 531 
L 3634 0 
L 628 0 
L 628 4666 
z
" transform="scale(0.015625)"/>
      </defs>
      <use xlink:href="#DejaVuSans-45"/>
      <use xlink:href="#DejaVuSans-73" x="63.183594"/>
      <use xlink:href="#DejaVuSans-74" x="115.283203"/>
      <use xlink:href="#DejaVuSans-69" x="154.492188"/>
      <use xlink:href="#DejaVuSans-6d" x="182.275391"/>
      <use xlink:href="#DejaVuSans-61" x="279.6875"/>
      <use xlink:href="#DejaVuSans-74" x="340.966797"/>
      <use xlink:href="#DejaVuSans-65" x="380.175781"/>
      <use xlink:href="#DejaVuSans-64" x="441.699219"/>
     </g>
    </g>
   </g>
  </g>
 </g>
 <defs>
  <clipPath id="pcab2f950ee">
   <rect x="72" y="43.2" width="446.4" height="277.2"/>
  </clipPath>
 </defs>
</svg>
