<?xml version="1.0" encoding="utf-8" standalone="no"?>
<!DOCTYPE svg PUBLIC "-//W3C//DTD SVG 1.1//EN"
  "http://www.w3.org/Graphics/SVG/1.1/DTD/svg11.dtd">
<svg xmlns:xlink="http://www.w3.org/1999/xlink" width="576pt" height="360pt" viewBox="0 0 576 360" xmlns="http://www.w3.org/2000/svg" version="1.1">
 <metadata>
  <rdf:RDF xmlns:dc="http://purl.org/dc/elements/1.1/" xmlns:cc="http://creativecommons.org/ns#" xmlns:rdf="http://www.w3.org/1999/02/22-rdf-syntax-ns#">
   <cc:Work>
    <dc:type rdf:resource="http://purl.org/dc/dcmitype/StillImage"/>
    <dc:date>2023-11-26T17:31:03.472175</dc:date>
    <dc:format>image/svg+xml</dc:format>
    <dc:creator>
     <cc:Agent>
      <dc:title>Matplotlib v3.8.1, https://matplotlib.org/</dc:title>
     </cc:Agent>
    </dc:creator>
   </cc:Work>
  </rdf:RDF>
 </metadata>
 <defs>
  <style type="text/css">*{stroke-linejoin: round; stroke-linecap: butt}</style>
 </defs>
 <g id="figure_1">
  <g id="patch_1">
   <path d="M 0 360 
L 576 360 
L 576 0 
L 0 0 
z
" style="fill: #ffffff"/>
  </g>
  <g id="axes_1">
   <g id="patch_2">
    <path d="M 72 320.4 
L 518.4 320.4 
L 518.4 43.2 
L 72 43.2 
z
" style="fill: #ffffff"/>
   </g>
   <g id="matplotlib.axis_1">
    <g id="xtick_1">
     <g id="line2d_1">
      <defs>
       <path id="m6e565cbce0" d="M 0 0 
L 0 3.5 
" style="stroke: #000000; stroke-width: 0.8"/>
      </defs>
      <g>
       <use xlink:href="#m6e565cbce0" x="129.874161" y="320.4" style="stroke: #000000; stroke-width: 0.8"/>
      </g>
     </g>
     <g id="text_1">
      <!-- 2020-05-15 -->
      <g transform="translate(100.816349 334.998438) scale(0.1 -0.1)">
       <defs>
        <path id="DejaVuSans-32" d="M 1228 531 
L 3431 531 
L 3431 0 
L 469 0 
L 469 531 
Q 828 903 1448 1529 
Q 2069 2156 2228 2338 
Q 2531 2678 2651 2914 
Q 2772 3150 2772 3378 
Q 2772 3750 2511 3984 
Q 2250 4219 1831 4219 
Q 1534 4219 1204 4116 
Q 875 4013 500 3803 
L 500 4441 
Q 881 4594 1212 4672 
Q 1544 4750 1819 4750 
Q 2544 4750 2975 4387 
Q 3406 4025 3406 3419 
Q 3406 3131 3298 2873 
Q 3191 2616 2906 2266 
Q 2828 2175 2409 1742 
Q 1991 1309 1228 531 
z
" transform="scale(0.015625)"/>
        <path id="DejaVuSans-30" d="M 2034 4250 
Q 1547 4250 1301 3770 
Q 1056 3291 1056 2328 
Q 1056 1369 1301 889 
Q 1547 409 2034 409 
Q 2525 409 2770 889 
Q 3016 1369 3016 2328 
Q 3016 3291 2770 3770 
Q 2525 4250 2034 4250 
z
M 2034 4750 
Q 2819 4750 3233 4129 
Q 3647 3509 3647 2328 
Q 3647 1150 3233 529 
Q 2819 -91 2034 -91 
Q 1250 -91 836 529 
Q 422 1150 422 2328 
Q 422 3509 836 4129 
Q 1250 4750 2034 4750 
z
" transform="scale(0.015625)"/>
        <path id="DejaVuSans-2d" d="M 313 2009 
L 1997 2009 
L 1997 1497 
L 313 1497 
L 313 2009 
z
" transform="scale(0.015625)"/>
        <path id="DejaVuSans-35" d="M 691 4666 
L 3169 4666 
L 3169 4134 
L 1269 4134 
L 1269 2991 
Q 1406 3038 1543 3061 
Q 1681 3084 1819 3084 
Q 2600 3084 3056 2656 
Q 3513 2228 3513 1497 
Q 3513 744 3044 326 
Q 2575 -91 1722 -91 
Q 1428 -91 1123 -41 
Q 819 9 494 109 
L 494 744 
Q 775 591 1075 516 
Q 1375 441 1709 441 
Q 2250 441 2565 725 
Q 2881 1009 2881 1497 
Q 2881 1984 2565 2268 
Q 2250 2553 1709 2553 
Q 1456 2553 1204 2497 
Q 953 2441 691 2322 
L 691 4666 
z
" transform="scale(0.015625)"/>
        <path id="DejaVuSans-31" d="M 794 531 
L 1825 531 
L 1825 4091 
L 703 3866 
L 703 4441 
L 1819 4666 
L 2450 4666 
L 2450 531 
L 3481 531 
L 3481 0 
L 794 0 
L 794 531 
z
" transform="scale(0.015625)"/>
       </defs>
       <use xlink:href="#DejaVuSans-32"/>
       <use xlink:href="#DejaVuSans-30" x="63.623047"/>
       <use xlink:href="#DejaVuSans-32" x="127.246094"/>
       <use xlink:href="#DejaVuSans-30" x="190.869141"/>
       <use xlink:href="#DejaVuSans-2d" x="254.492188"/>
       <use xlink:href="#DejaVuSans-30" x="290.576172"/>
       <use xlink:href="#DejaVuSans-35" x="354.199219"/>
       <use xlink:href="#DejaVuSans-2d" x="417.822266"/>
       <use xlink:href="#DejaVuSans-31" x="453.90625"/>
       <use xlink:href="#DejaVuSans-35" x="517.529297"/>
      </g>
     </g>
    </g>
    <g id="xtick_2">
     <g id="line2d_2">
      <g>
       <use xlink:href="#m6e565cbce0" x="212.435902" y="320.4" style="stroke: #000000; stroke-width: 0.8"/>
      </g>
     </g>
     <g id="text_2">
      <!-- 2020-06-01 -->
      <g transform="translate(183.37809 334.998438) scale(0.1 -0.1)">
       <defs>
        <path id="DejaVuSans-36" d="M 2113 2584 
Q 1688 2584 1439 2293 
Q 1191 2003 1191 1497 
Q 1191 994 1439 701 
Q 1688 409 2113 409 
Q 2538 409 2786 701 
Q 3034 994 3034 1497 
Q 3034 2003 2786 2293 
Q 2538 2584 2113 2584 
z
M 3366 4563 
L 3366 3988 
Q 3128 4100 2886 4159 
Q 2644 4219 2406 4219 
Q 1781 4219 1451 3797 
Q 1122 3375 1075 2522 
Q 1259 2794 1537 2939 
Q 1816 3084 2150 3084 
Q 2853 3084 3261 2657 
Q 3669 2231 3669 1497 
Q 3669 778 3244 343 
Q 2819 -91 2113 -91 
Q 1303 -91 875 529 
Q 447 1150 447 2328 
Q 447 3434 972 4092 
Q 1497 4750 2381 4750 
Q 2619 4750 2861 4703 
Q 3103 4656 3366 4563 
z
" transform="scale(0.015625)"/>
       </defs>
       <use xlink:href="#DejaVuSans-32"/>
       <use xlink:href="#DejaVuSans-30" x="63.623047"/>
       <use xlink:href="#DejaVuSans-32" x="127.246094"/>
       <use xlink:href="#DejaVuSans-30" x="190.869141"/>
       <use xlink:href="#DejaVuSans-2d" x="254.492188"/>
       <use xlink:href="#DejaVuSans-30" x="290.576172"/>
       <use xlink:href="#DejaVuSans-36" x="354.199219"/>
       <use xlink:href="#DejaVuSans-2d" x="417.822266"/>
       <use xlink:href="#DejaVuSans-30" x="453.90625"/>
       <use xlink:href="#DejaVuSans-31" x="517.529297"/>
      </g>
     </g>
    </g>
    <g id="xtick_3">
     <g id="line2d_3">
      <g>
       <use xlink:href="#m6e565cbce0" x="280.427924" y="320.4" style="stroke: #000000; stroke-width: 0.8"/>
      </g>
     </g>
     <g id="text_3">
      <!-- 2020-06-15 -->
      <g transform="translate(251.370111 334.998438) scale(0.1 -0.1)">
       <use xlink:href="#DejaVuSans-32"/>
       <use xlink:href="#DejaVuSans-30" x="63.623047"/>
       <use xlink:href="#DejaVuSans-32" x="127.246094"/>
       <use xlink:href="#DejaVuSans-30" x="190.869141"/>
       <use xlink:href="#DejaVuSans-2d" x="254.492188"/>
       <use xlink:href="#DejaVuSans-30" x="290.576172"/>
       <use xlink:href="#DejaVuSans-36" x="354.199219"/>
       <use xlink:href="#DejaVuSans-2d" x="417.822266"/>
       <use xlink:href="#DejaVuSans-31" x="453.90625"/>
       <use xlink:href="#DejaVuSans-35" x="517.529297"/>
      </g>
     </g>
    </g>
    <g id="xtick_4">
     <g id="line2d_4">
      <g>
       <use xlink:href="#m6e565cbce0" x="358.133092" y="320.4" style="stroke: #000000; stroke-width: 0.8"/>
      </g>
     </g>
     <g id="text_4">
      <!-- 2020-07-01 -->
      <g transform="translate(329.075279 334.998438) scale(0.1 -0.1)">
       <defs>
        <path id="DejaVuSans-37" d="M 525 4666 
L 3525 4666 
L 3525 4397 
L 1831 0 
L 1172 0 
L 2766 4134 
L 525 4134 
L 525 4666 
z
" transform="scale(0.015625)"/>
       </defs>
       <use xlink:href="#DejaVuSans-32"/>
       <use xlink:href="#DejaVuSans-30" x="63.623047"/>
       <use xlink:href="#DejaVuSans-32" x="127.246094"/>
       <use xlink:href="#DejaVuSans-30" x="190.869141"/>
       <use xlink:href="#DejaVuSans-2d" x="254.492188"/>
       <use xlink:href="#DejaVuSans-30" x="290.576172"/>
       <use xlink:href="#DejaVuSans-37" x="354.199219"/>
       <use xlink:href="#DejaVuSans-2d" x="417.822266"/>
       <use xlink:href="#DejaVuSans-30" x="453.90625"/>
       <use xlink:href="#DejaVuSans-31" x="517.529297"/>
      </g>
     </g>
    </g>
    <g id="xtick_5">
     <g id="line2d_5">
      <g>
       <use xlink:href="#m6e565cbce0" x="426.125113" y="320.4" style="stroke: #000000; stroke-width: 0.8"/>
      </g>
     </g>
     <g id="text_5">
      <!-- 2020-07-15 -->
      <g transform="translate(397.067301 334.998438) scale(0.1 -0.1)">
       <use xlink:href="#DejaVuSans-32"/>
       <use xlink:href="#DejaVuSans-30" x="63.623047"/>
       <use xlink:href="#DejaVuSans-32" x="127.246094"/>
       <use xlink:href="#DejaVuSans-30" x="190.869141"/>
       <use xlink:href="#DejaVuSans-2d" x="254.492188"/>
       <use xlink:href="#DejaVuSans-30" x="290.576172"/>
       <use xlink:href="#DejaVuSans-37" x="354.199219"/>
       <use xlink:href="#DejaVuSans-2d" x="417.822266"/>
       <use xlink:href="#DejaVuSans-31" x="453.90625"/>
       <use xlink:href="#DejaVuSans-35" x="517.529297"/>
      </g>
     </g>
    </g>
    <g id="xtick_6">
     <g id="line2d_6">
      <g>
       <use xlink:href="#m6e565cbce0" x="508.686854" y="320.4" style="stroke: #000000; stroke-width: 0.8"/>
      </g>
     </g>
     <g id="text_6">
      <!-- 2020-08-01 -->
      <g transform="translate(479.629042 334.998438) scale(0.1 -0.1)">
       <defs>
        <path id="DejaVuSans-38" d="M 2034 2216 
Q 1584 2216 1326 1975 
Q 1069 1734 1069 1313 
Q 1069 891 1326 650 
Q 1584 409 2034 409 
Q 2484 409 2743 651 
Q 3003 894 3003 1313 
Q 3003 1734 2745 1975 
Q 2488 2216 2034 2216 
z
M 1403 2484 
Q 997 2584 770 2862 
Q 544 3141 544 3541 
Q 544 4100 942 4425 
Q 1341 4750 2034 4750 
Q 2731 4750 3128 4425 
Q 3525 4100 3525 3541 
Q 3525 3141 3298 2862 
Q 3072 2584 2669 2484 
Q 3125 2378 3379 2068 
Q 3634 1759 3634 1313 
Q 3634 634 3220 271 
Q 2806 -91 2034 -91 
Q 1263 -91 848 271 
Q 434 634 434 1313 
Q 434 1759 690 2068 
Q 947 2378 1403 2484 
z
M 1172 3481 
Q 1172 3119 1398 2916 
Q 1625 2713 2034 2713 
Q 2441 2713 2670 2916 
Q 2900 3119 2900 3481 
Q 2900 3844 2670 4047 
Q 2441 4250 2034 4250 
Q 1625 4250 1398 4047 
Q 1172 3844 1172 3481 
z
" transform="scale(0.015625)"/>
       </defs>
       <use xlink:href="#DejaVuSans-32"/>
       <use xlink:href="#DejaVuSans-30" x="63.623047"/>
       <use xlink:href="#DejaVuSans-32" x="127.246094"/>
       <use xlink:href="#DejaVuSans-30" x="190.869141"/>
       <use xlink:href="#DejaVuSans-2d" x="254.492188"/>
       <use xlink:href="#DejaVuSans-30" x="290.576172"/>
       <use xlink:href="#DejaVuSans-38" x="354.199219"/>
       <use xlink:href="#DejaVuSans-2d" x="417.822266"/>
       <use xlink:href="#DejaVuSans-30" x="453.90625"/>
       <use xlink:href="#DejaVuSans-31" x="517.529297"/>
      </g>
     </g>
    </g>
   </g>
   <g id="matplotlib.axis_2">
    <g id="ytick_1">
     <g id="line2d_7">
      <defs>
       <path id="me943a03cdc" d="M 0 0 
L -3.5 0 
" style="stroke: #000000; stroke-width: 0.8"/>
      </defs>
      <g>
       <use xlink:href="#me943a03cdc" x="72" y="315.452152" style="stroke: #000000; stroke-width: 0.8"/>
      </g>
     </g>
     <g id="text_7">
      <!-- −2 -->
      <g transform="translate(50.257812 319.251371) scale(0.1 -0.1)">
       <defs>
        <path id="DejaVuSans-2212" d="M 678 2272 
L 4684 2272 
L 4684 1741 
L 678 1741 
L 678 2272 
z
" transform="scale(0.015625)"/>
       </defs>
       <use xlink:href="#DejaVuSans-2212"/>
       <use xlink:href="#DejaVuSans-32" x="83.789062"/>
      </g>
     </g>
    </g>
    <g id="ytick_2">
     <g id="line2d_8">
      <g>
       <use xlink:href="#me943a03cdc" x="72" y="265.432195" style="stroke: #000000; stroke-width: 0.8"/>
      </g>
     </g>
     <g id="text_8">
      <!-- −1 -->
      <g transform="translate(50.257812 269.231414) scale(0.1 -0.1)">
       <use xlink:href="#DejaVuSans-2212"/>
       <use xlink:href="#DejaVuSans-31" x="83.789062"/>
      </g>
     </g>
    </g>
    <g id="ytick_3">
     <g id="line2d_9">
      <g>
       <use xlink:href="#me943a03cdc" x="72" y="215.412238" style="stroke: #000000; stroke-width: 0.8"/>
      </g>
     </g>
     <g id="text_9">
      <!-- 0 -->
      <g transform="translate(58.6375 219.211457) scale(0.1 -0.1)">
       <use xlink:href="#DejaVuSans-30"/>
      </g>
     </g>
    </g>
    <g id="ytick_4">
     <g id="line2d_10">
      <g>
       <use xlink:href="#me943a03cdc" x="72" y="165.392282" style="stroke: #000000; stroke-width: 0.8"/>
      </g>
     </g>
     <g id="text_10">
      <!-- 1 -->
      <g transform="translate(58.6375 169.1915) scale(0.1 -0.1)">
       <use xlink:href="#DejaVuSans-31"/>
      </g>
     </g>
    </g>
    <g id="ytick_5">
     <g id="line2d_11">
      <g>
       <use xlink:href="#me943a03cdc" x="72" y="115.372325" style="stroke: #000000; stroke-width: 0.8"/>
      </g>
     </g>
     <g id="text_11">
      <!-- 2 -->
      <g transform="translate(58.6375 119.171544) scale(0.1 -0.1)">
       <use xlink:href="#DejaVuSans-32"/>
      </g>
     </g>
    </g>
    <g id="ytick_6">
     <g id="line2d_12">
      <g>
       <use xlink:href="#me943a03cdc" x="72" y="65.352368" style="stroke: #000000; stroke-width: 0.8"/>
      </g>
     </g>
     <g id="text_12">
      <!-- 3 -->
      <g transform="translate(58.6375 69.151587) scale(0.1 -0.1)">
       <defs>
        <path id="DejaVuSans-33" d="M 2597 2516 
Q 3050 2419 3304 2112 
Q 3559 1806 3559 1356 
Q 3559 666 3084 287 
Q 2609 -91 1734 -91 
Q 1441 -91 1130 -33 
Q 819 25 488 141 
L 488 750 
Q 750 597 1062 519 
Q 1375 441 1716 441 
Q 2309 441 2620 675 
Q 2931 909 2931 1356 
Q 2931 1769 2642 2001 
Q 2353 2234 1838 2234 
L 1294 2234 
L 1294 2753 
L 1863 2753 
Q 2328 2753 2575 2939 
Q 2822 3125 2822 3475 
Q 2822 3834 2567 4026 
Q 2313 4219 1838 4219 
Q 1578 4219 1281 4162 
Q 984 4106 628 3988 
L 628 4550 
Q 988 4650 1302 4700 
Q 1616 4750 1894 4750 
Q 2613 4750 3031 4423 
Q 3450 4097 3450 3541 
Q 3450 3153 3228 2886 
Q 3006 2619 2597 2516 
z
" transform="scale(0.015625)"/>
       </defs>
       <use xlink:href="#DejaVuSans-33"/>
      </g>
     </g>
    </g>
   </g>
   <g id="line2d_13">
    <path d="M 72 288.464218 
L 72.404714 299.064545 
L 72.607072 297.454866 
L 72.809429 287.482706 
L 73.214143 258.586999 
L 73.618858 246.965899 
L 75.035358 169.426467 
L 75.237715 166.658604 
L 75.440073 171.389491 
L 75.64243 179.064913 
L 75.844787 182.14686 
L 76.047144 196.398411 
L 76.654216 262.081181 
L 77.05893 284.577431 
L 77.261287 288.66052 
L 77.463645 288.307176 
L 77.666002 278.295755 
L 78.070716 251.657525 
L 78.475431 239.997165 
L 78.677788 231.458013 
L 79.487217 178.181553 
L 79.891931 162.96812 
L 80.094288 164.793732 
L 80.903717 204.446808 
L 81.713146 274.880094 
L 82.11786 288.581999 
L 82.320218 290.486132 
L 82.522575 290.211309 
L 82.724932 287.85568 
L 82.927289 281.475854 
L 83.332004 259.980745 
L 83.736718 246.592925 
L 83.939075 243.74654 
L 84.141432 244.001733 
L 84.546147 249.988955 
L 84.748504 251.951979 
L 84.950861 251.971609 
L 85.355576 255.897656 
L 85.557933 252.776449 
L 85.76029 258.508478 
L 86.569719 300.556443 
L 86.772076 306.249211 
L 86.974433 307.741109 
L 87.176791 307.8 
L 87.379148 306.543665 
L 87.581505 303.049483 
L 87.783862 296.728547 
L 88.188577 276.097169 
L 88.390934 271.248501 
L 89.200363 263.69086 
L 89.40272 259.823704 
L 89.807434 245.984387 
L 90.212149 243.68765 
L 90.414506 241.155349 
L 90.616863 248.595209 
L 91.223935 295.923707 
L 91.628649 306.249211 
L 91.831006 306.308102 
L 92.033364 303.972104 
L 92.842792 260.785585 
L 93.04515 258.783301 
L 93.449864 250.734904 
L 93.652221 250.244148 
L 93.854578 247.495915 
L 94.056936 246.907008 
L 94.259293 244.453229 
L 94.46165 238.466007 
L 94.664007 235.796295 
L 94.866364 236.660025 
L 95.068722 239.604561 
L 95.271079 236.012227 
L 95.473436 245.474001 
L 96.080508 296.277052 
L 96.485222 304.894725 
L 96.687579 306.681077 
L 96.889937 302.617618 
L 97.699365 260.098527 
L 98.306437 250.263779 
L 98.508794 249.910434 
L 99.52058 230.044636 
L 99.722937 231.22245 
L 99.925295 235.305539 
L 100.127652 233.597708 
L 100.330009 243.098743 
L 100.937081 293.960684 
L 101.341795 305.444372 
L 101.544152 306.366993 
L 101.74651 302.892441 
L 101.948867 291.703207 
L 102.353581 263.592709 
L 102.555938 262.140071 
L 103.567724 245.493631 
L 104.377153 224.803363 
L 104.57951 226.000807 
L 104.781868 231.045778 
L 104.984225 231.026148 
L 105.186582 239.349368 
L 105.793654 291.016148 
L 106.198368 302.951332 
L 106.400725 304.600272 
L 106.603083 300.831266 
L 107.412511 257.84105 
L 107.614869 256.23137 
L 107.817226 252.796079 
L 108.22194 239.192326 
L 108.626655 218.875032 
L 108.829012 213.319675 
L 109.031369 211.552954 
L 109.638441 219.679871 
L 109.840798 224.764102 
L 110.043155 234.500699 
L 110.650227 286.030068 
L 111.054941 299.378629 
L 111.257298 301.16498 
L 111.459655 299.535671 
L 111.662013 288.856822 
L 112.066727 261.472643 
L 112.471442 247.437025 
L 113.887942 183.403195 
L 114.090299 181.184979 
L 114.292656 187.564805 
L 114.495014 198.263284 
L 114.697371 202.562306 
L 115.102085 234.402548 
L 115.709157 280.612123 
L 116.113871 293.66623 
L 116.316228 293.823272 
L 116.518586 292.272483 
L 116.720943 288.876453 
L 117.125657 263.376776 
L 118.542158 165.402269 
L 118.744515 155.940495 
L 118.946872 152.308902 
L 119.149229 155.744193 
L 119.756301 191.196399 
L 120.56573 265.477211 
L 120.970444 284.027784 
L 121.172801 287.85568 
L 121.375159 289.386839 
L 121.577516 288.032352 
L 121.779873 280.612123 
L 122.589302 232.87139 
L 123.196374 209.040283 
L 123.398731 204.760892 
L 123.601088 204.957194 
L 123.803445 204.427178 
L 124.410517 216.970899 
L 124.612874 227.237512 
L 125.219946 279.925065 
L 125.62466 293.528819 
L 125.827017 295.393691 
L 126.029374 293.018432 
L 127.04116 240.232728 
L 127.648232 205.212387 
L 128.255304 165.539681 
L 128.457661 158.472796 
L 128.660018 158.158712 
L 129.26709 199.657031 
L 130.278876 284.695212 
L 130.481233 292.01729 
L 130.68359 293.312886 
L 130.885947 290.898367 
L 132.504805 188.938922 
L 133.111877 148.991392 
L 133.314234 140.177416 
L 133.516591 141.767465 
L 133.921306 156.156428 
L 134.123663 163.105531 
L 135.135449 265.967967 
L 135.540163 277.785369 
L 135.74252 276.902009 
L 135.944878 266.98874 
L 136.349592 237.582646 
L 136.551949 231.24208 
L 136.754306 220.131367 
L 136.956664 224.410758 
L 137.159021 213.830061 
L 137.766092 205.565732 
L 137.96845 205.938706 
L 138.373164 200.874105 
L 138.777879 207.94099 
L 138.980236 208.7262 
L 139.182593 219.778022 
L 139.789665 272.799289 
L 140.194379 287.188252 
L 140.396736 289.131646 
L 140.599093 286.304892 
L 141.003808 258.017722 
L 141.408522 238.191184 
L 142.015594 225.647463 
L 142.622665 217.08868 
L 142.825023 216.833487 
L 143.02738 215.694933 
L 143.229737 216.342731 
L 143.634451 221.289551 
L 143.836809 220.131367 
L 144.039166 229.671661 
L 144.646238 275.881236 
L 145.050952 287.207883 
L 145.253309 288.424957 
L 145.455666 285.480422 
L 145.860381 257.703638 
L 146.062738 242.293903 
L 146.66981 226.864538 
L 146.872167 224.351867 
L 147.074524 223.331095 
L 147.479238 212.92707 
L 147.681596 220.857685 
L 147.883953 221.780306 
L 148.08631 224.234086 
L 148.491024 232.969541 
L 148.693382 231.693576 
L 149.098096 253.856112 
L 149.502811 280.258779 
L 149.907525 292.566937 
L 150.109882 294.51033 
L 150.312239 293.960684 
L 150.514597 291.290972 
L 150.716954 285.892657 
L 151.121668 266.144639 
L 151.526383 246.749966 
L 151.931097 241.2535 
L 152.133454 240.841265 
L 152.335811 242.706138 
L 152.538169 243.196894 
L 152.740526 241.2535 
L 152.942883 241.528324 
L 153.14524 240.605703 
L 153.347597 240.644963 
L 153.549955 237.8771 
L 153.752312 239.957905 
L 154.764098 288.68015 
L 154.966455 292.429525 
L 155.168812 293.744751 
L 155.573527 290.015006 
L 155.775884 279.53246 
L 156.78767 205.742404 
L 157.799456 165.382639 
L 158.001813 167.286772 
L 158.406528 179.791232 
L 158.608885 192.629406 
L 159.215956 257.625117 
L 159.620671 278.079823 
L 159.823028 281.122509 
L 160.025385 280.258779 
L 160.227743 270.973678 
L 160.632457 240.232728 
L 161.8466 192.590146 
L 162.251315 183.069481 
L 162.453672 183.206893 
L 162.656029 185.915865 
L 163.465458 216.048278 
L 164.072529 272.740399 
L 164.477244 290.368351 
L 164.679601 290.682434 
L 164.881958 287.620118 
L 165.084316 278.001302 
L 165.48903 247.90815 
L 166.500816 214.674161 
L 167.310245 174.019943 
L 167.512602 177.200041 
L 167.917316 196.692865 
L 168.119674 200.913366 
L 168.322031 211.670735 
L 168.929102 267.950621 
L 169.333817 282.339584 
L 169.536174 285.676724 
L 169.738531 282.202172 
L 170.143246 256.349152 
L 170.54796 227.630117 
L 171.357389 185.405479 
L 171.559746 179.693081 
L 172.166818 156.764965 
L 172.369175 158.296124 
L 172.571532 165.794874 
L 173.178604 202.719347 
L 173.785675 270.070687 
L 174.19039 288.444587 
L 174.392747 291.271341 
L 174.595104 289.543881 
L 174.999819 266.615765 
L 175.404533 242.92207 
L 177.023391 168.77867 
L 177.225748 169.269425 
L 177.428105 172.97954 
L 177.630462 188.703359 
L 177.83282 191.019727 
L 178.237534 232.832129 
L 178.642248 273.505978 
L 179.046963 291.703207 
L 179.24932 295.236649 
L 179.451677 292.84176 
L 179.654034 284.597061 
L 180.261106 246.808857 
L 181.879964 154.860832 
L 182.082321 151.759255 
L 182.284678 157.13794 
L 183.094107 210.571442 
L 183.498821 247.574436 
L 183.903536 267.930991 
L 184.30825 275.37085 
L 184.510607 276.666446 
L 184.712965 273.211524 
L 184.915322 260.510762 
L 185.724751 182.676877 
L 186.129465 162.379213 
L 186.331822 156.627554 
L 186.53418 155.901235 
L 186.736537 158.315754 
L 187.748323 196.712495 
L 188.557752 257.664378 
L 188.962466 271.130719 
L 189.164823 273.074113 
L 189.36718 273.152634 
L 189.569538 272.445945 
L 189.771895 262.198962 
L 190.986038 171.016516 
L 191.188395 165.971546 
L 191.390752 165.932285 
L 191.795467 174.62848 
L 192.604896 204.387917 
L 193.414325 264.593851 
L 193.819039 277.628327 
L 194.021396 278.6491 
L 194.426111 274.880094 
L 194.628468 266.360572 
L 195.437897 208.431746 
L 195.640254 203.661599 
L 195.842611 204.819783 
L 196.247325 210.591072 
L 196.449683 211.140719 
L 196.65204 210.767744 
L 197.056754 218.580578 
L 197.259112 219.385418 
L 197.461469 227.394554 
L 198.06854 273.407827 
L 198.473255 286.913429 
L 198.675612 287.01158 
L 198.877969 283.537028 
L 199.282684 254.229086 
L 199.687398 232.498415 
L 201.306256 169.269425 
L 201.508613 168.170132 
L 202.115684 186.445882 
L 202.318042 197.065839 
L 202.925113 258.076613 
L 203.329828 274.880094 
L 203.532185 276.882379 
L 203.734542 274.035994 
L 203.936899 263.062692 
L 204.341614 230.692434 
L 205.758114 178.633048 
L 205.960471 176.257789 
L 206.162829 176.395201 
L 206.365186 177.749687 
L 206.7699 189.037073 
L 206.972257 192.07976 
L 207.174615 202.405264 
L 207.781686 258.645889 
L 208.186401 274.035994 
L 208.388758 276.941269 
L 208.591115 273.761171 
L 208.793472 262.454155 
L 209.198187 230.260568 
L 209.805258 209.040283 
L 210.209973 190.097106 
L 210.817044 150.385139 
L 211.019402 142.297481 
L 211.221759 145.124235 
L 211.626473 168.444956 
L 211.82883 173.411405 
L 212.031188 187.447024 
L 212.638259 249.419679 
L 213.042974 267.126151 
L 213.245331 270.934417 
L 213.447688 269.305107 
L 213.650045 259.097385 
L 214.257117 217.873889 
L 214.661831 192.766818 
L 215.47126 136.212108 
L 215.875975 120.272357 
L 216.078332 119.820861 
L 216.280689 125.101395 
L 217.090118 185.876605 
L 217.697189 244.885094 
L 218.101904 262.473785 
L 218.304261 265.673514 
L 218.506618 266.969109 
L 218.708976 265.771665 
L 218.911333 253.640179 
L 219.518404 201.423752 
L 220.125476 167.875679 
L 220.327833 165.814504 
L 220.53019 167.934569 
L 221.541976 208.255074 
L 221.744334 213.162633 
L 222.553762 267.381344 
L 222.958477 277.746109 
L 223.160834 279.375418 
L 223.363191 279.709132 
L 223.565549 278.217235 
L 223.767906 269.913645 
L 224.374977 233.499557 
L 224.779692 226.27563 
L 225.386763 228.238654 
L 225.589121 231.595424 
L 225.791478 232.439524 
L 226.196192 240.42903 
L 226.398549 240.095316 
L 226.600907 246.21995 
L 227.410335 297.317454 
L 227.612693 301.16498 
L 227.81505 302.77466 
L 228.017407 299.731973 
L 228.826836 259.136645 
L 229.029193 256.918429 
L 229.23155 251.441593 
L 230.648051 191.000097 
L 230.850408 191.549743 
L 231.255122 205.290908 
L 231.45748 215.675303 
L 232.064551 276.371992 
L 232.469266 292.743609 
L 232.671623 295.3348 
L 232.87398 294.176616 
L 233.278694 270.070687 
L 233.683409 248.595209 
L 235.302267 187.034789 
L 235.504624 186.465512 
L 236.111695 204.682371 
L 236.314053 214.55638 
L 236.921124 273.780801 
L 237.325839 288.915713 
L 237.528196 291.899509 
L 237.730553 289.877595 
L 238.135267 267.04763 
L 238.539982 246.278841 
L 239.349411 216.794227 
L 239.754125 207.253932 
L 240.15884 197.517335 
L 240.361197 197.281772 
L 240.563554 202.483785 
L 240.968268 219.267636 
L 241.170626 226.491563 
L 241.777697 279.434309 
L 242.182412 294.549591 
L 242.384769 296.924849 
L 242.587126 294.078465 
L 242.99184 270.522182 
L 243.396555 253.404616 
L 245.21777 182.245011 
L 245.420127 186.28884 
L 246.027199 211.827777 
L 246.836627 281.868458 
L 247.038985 289.838334 
L 247.241342 292.861391 
L 247.443699 290.446871 
L 247.848413 267.989882 
L 249.467271 161.240659 
L 249.669628 153.545607 
L 249.871985 151.700364 
L 250.074343 151.857406 
L 250.2767 158.472796 
L 250.883772 189.076333 
L 251.6932 260.530392 
L 252.097915 274.369708 
L 252.300272 277.294613 
L 252.502629 277.549807 
L 252.704986 273.859322 
L 253.109701 242.647247 
L 253.91913 172.881389 
L 254.323844 157.824998 
L 254.728558 149.423257 
L 254.930916 148.225813 
L 255.133273 155.371218 
L 255.740345 191.078618 
L 256.549773 262.748609 
L 256.954488 277.490916 
L 257.156845 281.122509 
L 257.359202 282.712559 
L 257.561559 281.789937 
L 257.966274 254.268347 
L 258.573345 206.25279 
L 258.97806 185.601782 
L 259.382774 175.099606 
L 259.585131 171.821356 
L 259.787489 171.409121 
L 259.989846 173.902161 
L 260.39456 189.135224 
L 260.596917 201.855617 
L 261.203989 260.922997 
L 261.608704 278.747251 
L 261.811061 281.534744 
L 262.013418 280.788795 
L 262.418132 257.958831 
L 262.62049 246.514404 
L 263.025204 237.307823 
L 263.227561 234.638111 
L 263.429918 233.676229 
L 263.834633 234.893304 
L 264.03699 234.59885 
L 264.239347 235.501841 
L 264.441704 235.580362 
L 264.644062 235.325169 
L 264.846419 237.268563 
L 265.048776 241.116089 
L 265.251133 241.116089 
L 265.45349 244.943985 
L 266.060562 285.401901 
L 266.465277 297.631538 
L 266.667634 299.103806 
L 266.869991 295.118868 
L 267.072348 287.541597 
L 267.477063 262.297113 
L 268.084134 241.174979 
L 268.488849 231.379492 
L 269.09592 220.661383 
L 269.500635 216.892378 
L 269.702992 218.973183 
L 269.905349 222.408474 
L 270.107706 223.056272 
L 270.310063 229.063124 
L 270.917135 275.606413 
L 271.32185 287.01158 
L 271.524207 289.053125 
L 271.726564 287.423815 
L 274.15485 152.544465 
L 274.357208 145.713142 
L 274.559565 148.893241 
L 275.166636 172.861759 
L 275.976065 250.577862 
L 276.38078 262.552306 
L 276.583137 261.884878 
L 276.987851 241.076828 
L 277.392566 213.535607 
L 278.404352 159.277635 
L 278.606709 156.372361 
L 279.011423 143.769749 
L 279.213781 142.238591 
L 279.416138 146.30205 
L 280.023209 186.053277 
L 280.630281 254.032784 
L 281.034995 275.743825 
L 281.237353 280.396191 
L 281.43971 278.923923 
L 281.642067 273.309676 
L 282.249139 233.519187 
L 282.85621 201.463012 
L 283.867996 160.691012 
L 284.070354 159.552459 
L 284.272711 167.326032 
L 285.284497 246.494773 
L 285.689211 277.157202 
L 286.093926 291.212451 
L 286.296283 293.391407 
L 286.49864 291.663946 
L 286.700997 288.856822 
L 287.105712 259.293687 
L 287.712783 210.159207 
L 288.522212 168.759039 
L 288.724569 161.966978 
L 288.926927 160.121736 
L 289.129284 163.537397 
L 289.736355 195.770244 
L 290.545784 262.571937 
L 290.950499 277.137572 
L 291.152856 279.787653 
L 291.355213 279.866174 
L 291.55757 278.452797 
L 291.759927 266.556874 
L 292.771714 172.488784 
L 293.176428 151.523692 
L 293.581142 140.805583 
L 293.7835 139.156644 
L 293.985857 142.513414 
L 294.592928 166.854906 
L 295.402357 246.259211 
L 295.807072 260.275199 
L 296.009429 260.118157 
L 296.414143 240.762745 
L 297.830644 111.909876 
L 298.235358 99.209114 
L 298.437715 96.735704 
L 298.640073 96.990897 
L 298.84243 98.953921 
L 299.044787 106.629343 
L 299.449501 132.384212 
L 300.056573 207.823209 
L 300.461287 231.929138 
L 300.663645 237.680797 
L 300.866002 238.367856 
L 301.068359 231.850617 
L 301.473073 203.151213 
L 302.484859 102.585514 
L 302.687217 91.769254 
L 302.889574 91.867405 
L 303.091931 99.601718 
L 303.496646 107.866048 
L 303.90136 129.125593 
L 304.306074 155.822714 
L 304.913146 221.956979 
L 305.31786 246.18069 
L 305.520218 251.500484 
L 305.722575 249.792653 
L 305.924932 242.980961 
L 306.532004 204.800152 
L 307.54379 137.900309 
L 307.746147 128.144081 
L 307.948504 127.299981 
L 308.757933 158.139082 
L 309.162647 183.049851 
L 309.769719 243.255784 
L 310.174433 262.257853 
L 310.376791 266.458723 
L 310.579148 265.909077 
L 310.983862 243.530608 
L 312.198005 144.103463 
L 312.60272 132.99275 
L 312.805077 128.811509 
L 313.007434 129.341526 
L 313.209791 132.874968 
L 313.816863 159.238375 
L 314.01922 172.312112 
L 314.626292 232.125441 
L 315.031006 251.716416 
L 315.233364 256.093959 
L 315.435721 255.465791 
L 315.840435 237.523756 
L 316.24515 219.640611 
L 316.649864 208.156923 
L 317.054578 193.532397 
L 317.66165 186.347731 
L 317.864007 185.915865 
L 318.066364 185.052135 
L 318.268722 189.527829 
L 318.875793 210.689223 
L 319.685222 266.694286 
L 320.089937 278.904293 
L 320.292294 280.474712 
L 320.697008 272.897441 
L 321.101723 247.829629 
L 322.315866 173.352515 
L 322.72058 163.557027 
L 322.922937 161.33881 
L 323.125295 165.284488 
L 323.732366 191.687155 
L 324.541795 257.193252 
L 324.94651 270.855896 
L 325.148867 273.623759 
L 325.351224 273.68265 
L 325.553581 271.523324 
L 325.755938 259.745183 
L 326.970082 152.308902 
L 327.172439 146.262789 
L 327.374796 144.751261 
L 327.77951 139.431467 
L 327.981868 144.201614 
L 328.184225 152.603355 
L 328.791296 201.973398 
L 329.196011 243.766171 
L 329.398368 258.331806 
L 329.803083 267.989882 
L 330.00544 267.086891 
L 330.207797 261.727836 
L 330.814869 215.361219 
L 331.42194 178.82935 
L 331.826655 157.15757 
L 332.029012 154.389707 
L 332.231369 154.409337 
L 332.433726 154.586009 
L 332.636083 156.588293 
L 332.838441 160.926575 
L 333.243155 182.833918 
L 333.445512 191.451592 
L 334.052584 254.268347 
L 334.457298 275.096027 
L 334.659655 280.278409 
L 334.862013 277.981672 
L 335.266727 259.018864 
L 335.671442 235.737404 
L 336.48087 197.399553 
L 336.683228 192.550885 
L 336.885585 191.490852 
L 337.087942 185.582151 
L 337.290299 183.81543 
L 337.695014 189.998955 
L 338.099728 203.818641 
L 338.302085 209.432888 
L 339.111514 272.347794 
L 339.313871 278.276125 
L 339.516228 280.415821 
L 339.718586 276.529034 
L 340.1233 254.209456 
L 340.932729 211.709995 
L 342.349229 152.681876 
L 342.551587 152.603355 
L 343.158658 176.198899 
L 343.76573 236.1889 
L 344.170444 253.404616 
L 344.372801 257.958831 
L 344.575159 255.917287 
L 344.777516 249.301897 
L 345.18223 219.778022 
L 346.194016 140.785953 
L 346.598731 126.671814 
L 347.003445 120.350878 
L 347.205802 119.546038 
L 347.40816 122.588725 
L 347.610517 130.087475 
L 348.015231 155.037504 
L 348.82466 242.136861 
L 349.229374 258.488847 
L 349.431732 257.762529 
L 349.634089 252.226802 
L 349.836446 241.587214 
L 351.050589 141.767465 
L 351.455304 124.218034 
L 351.860018 115.757402 
L 352.062375 114.893672 
L 352.264733 118.368224 
L 352.46709 128.968551 
L 353.276519 208.392486 
L 353.681233 244.649531 
L 354.085947 263.946053 
L 354.288305 268.991024 
L 354.490662 269.54067 
L 354.693019 267.400975 
L 355.097733 227.217882 
L 355.704805 156.647184 
L 356.109519 133.03201 
L 356.716591 115.639621 
L 356.918948 114.599219 
L 357.121306 119.192694 
L 357.52602 143.691228 
L 357.728377 155.822714 
L 358.740163 247.103311 
L 359.144878 259.50962 
L 359.347235 261.295971 
L 359.549592 260.981887 
L 359.751949 247.594067 
L 360.763735 132.266431 
L 361.16845 114.029942 
L 361.573164 103.409984 
L 361.775521 101.211398 
L 361.977879 104.352235 
L 362.180236 111.046146 
L 362.58495 135.701722 
L 363.394379 220.563232 
L 363.799093 237.445235 
L 364.001451 238.230444 
L 364.203808 232.596566 
L 364.406165 222.977751 
L 365.013237 156.431251 
L 365.620308 94.674529 
L 366.025023 79.205903 
L 366.429737 73.297202 
L 366.632094 73.768328 
L 366.834451 76.300628 
L 367.036809 84.643479 
L 367.441523 112.577304 
L 368.048595 188.78188 
L 368.453309 217.991671 
L 368.655666 226.157849 
L 368.858024 228.434956 
L 369.060381 224.705212 
L 369.262738 215.263068 
L 369.86981 154.448597 
L 370.476881 98.757618 
L 370.881596 82.837497 
L 371.083953 82.405632 
L 371.28631 83.09269 
L 371.488667 86.861695 
L 371.691024 92.829287 
L 372.298096 130.165996 
L 373.107525 211.592214 
L 373.512239 232.89102 
L 373.714597 237.07226 
L 374.119311 236.404832 
L 374.321668 224.194825 
L 375.333454 124.70879 
L 375.738169 112.008027 
L 375.940526 109.416836 
L 376.142883 108.356804 
L 376.34524 113.323253 
L 376.749955 138.469585 
L 377.559383 194.926144 
L 377.964098 228.140503 
L 378.368812 241.371282 
L 378.57117 241.587214 
L 378.773527 235.894446 
L 378.975884 225.137077 
L 380.392384 113.303623 
L 380.797099 103.782959 
L 381.201813 96.500141 
L 381.40417 100.112105 
L 382.011242 135.623201 
L 382.820671 215.106026 
L 383.225385 230.555022 
L 383.427743 231.183189 
L 383.6301 226.059698 
L 384.034814 204.721631 
L 385.0466 134.268715 
L 385.451315 118.250442 
L 385.653672 117.798947 
L 385.856029 121.430541 
L 386.058386 128.752619 
L 387.070172 195.907656 
L 387.474887 234.402548 
L 387.879601 255.4069 
L 388.284316 264.181616 
L 388.68903 266.596135 
L 388.891387 261.080039 
L 389.700816 219.287266 
L 390.307888 208.529897 
L 390.914959 196.30026 
L 391.117316 200.893735 
L 391.926745 238.878242 
L 392.533817 281.299182 
L 392.938531 293.175474 
L 393.140888 294.961826 
L 393.343246 294.529961 
L 393.545603 294.981456 
L 393.74796 286.383413 
L 394.355032 246.867748 
L 395.569175 192.649036 
L 395.771532 186.877747 
L 395.973889 188.035931 
L 396.176247 196.025437 
L 396.783318 236.385202 
L 397.188033 273.368566 
L 397.592747 290.486132 
L 397.795104 293.155844 
L 397.997461 290.721695 
L 398.402176 273.309676 
L 400.628105 150.777743 
L 400.830462 153.506346 
L 401.03282 163.066271 
L 401.639891 217.834629 
L 402.044606 260.412611 
L 402.44932 279.925065 
L 402.651677 283.772591 
L 402.854034 282.182542 
L 403.258749 264.711632 
L 403.663463 237.425604 
L 404.877607 135.603571 
L 405.282321 115.894814 
L 405.484678 111.850986 
L 405.687035 112.891388 
L 405.889393 122.981329 
L 406.294107 158.8654 
L 406.901179 233.205104 
L 407.305893 256.309891 
L 407.50825 261.688576 
L 407.710607 261.17819 
L 408.115322 240.782375 
L 409.73418 113.755118 
L 409.936537 109.024232 
L 410.138894 108.88682 
L 410.341251 113.303623 
L 410.948323 147.97062 
L 411.15068 163.242943 
L 411.757752 231.026148 
L 412.162466 254.130935 
L 412.364823 260.35372 
L 412.56718 262.06155 
L 412.971895 244.728052 
L 414.388395 150.54218 
L 414.79311 137.546964 
L 415.197824 131.147507 
L 415.400181 137.645115 
L 416.20961 197.694007 
L 416.614325 241.116089 
L 417.019039 263.258995 
L 417.221396 267.342084 
L 417.423753 266.812068 
L 417.828468 251.304181 
L 419.244968 157.491284 
L 419.649683 144.437177 
L 419.85204 140.766323 
L 420.054397 142.140439 
L 420.256754 150.444029 
L 421.066183 213.044851 
L 421.673255 265.850186 
L 422.077969 281.259921 
L 422.280326 283.63518 
L 422.482684 283.007012 
L 422.685041 282.84997 
L 423.089755 253.384986 
L 423.899184 187.231091 
L 424.708613 149.580299 
L 424.91097 146.537612 
L 425.113327 150.365508 
L 425.518042 175.374429 
L 425.720399 186.661814 
L 426.529828 258.056982 
L 426.934542 275.822346 
L 427.136899 280.101737 
L 427.339257 280.867316 
L 427.541614 281.083249 
L 427.743971 272.85818 
L 428.148685 234.265136 
L 428.755757 175.079975 
L 429.160471 150.561811 
L 429.565186 142.670456 
L 429.9699 146.419831 
L 430.374615 161.927717 
L 430.576972 173.058061 
L 431.386401 245.709564 
L 431.791115 257.409185 
L 431.993472 255.465791 
L 432.398187 236.051488 
L 433.207616 173.82364 
L 434.017044 106.550822 
L 434.219402 101.878826 
L 435.02883 128.085191 
L 435.433545 151.975188 
L 436.040617 220.033215 
L 436.445331 241.567584 
L 436.647688 246.475143 
L 436.850045 245.827345 
L 437.25476 226.138219 
L 437.659474 192.766818 
L 438.468903 122.549464 
L 438.67126 113.244732 
L 438.873617 114.167353 
L 439.075975 120.959415 
L 439.278332 120.52755 
L 439.480689 122.667246 
L 439.885403 140.393349 
L 440.290118 164.047783 
L 440.897189 234.206246 
L 441.301904 255.524682 
L 441.504261 260.707064 
L 441.706618 261.21745 
L 442.111333 247.142571 
L 442.920762 197.438814 
L 443.527833 164.126304 
L 444.134905 142.395633 
L 444.337262 139.922223 
L 444.539619 146.046856 
L 445.146691 189.095964 
L 445.753762 255.190968 
L 446.158477 275.449371 
L 446.360834 280.180258 
L 446.563191 278.276125 
L 446.967906 260.216308 
L 448.586763 155.331958 
L 448.991478 142.729347 
L 449.193835 140.51113 
L 449.396192 146.871326 
L 450.003264 185.44474 
L 450.812693 261.904509 
L 451.217407 274.605271 
L 451.419764 274.723053 
L 451.824479 258.312175 
L 452.43155 210.159207 
L 453.038622 170.133156 
L 453.443336 153.85969 
L 453.848051 146.34131 
L 454.050408 149.560669 
L 454.252765 159.100963 
L 454.65748 186.229949 
L 454.859837 194.297976 
L 455.669266 256.113589 
L 456.07398 269.049914 
L 456.276337 270.502552 
L 456.478694 268.598419 
L 456.681052 265.634253 
L 456.883409 257.998092 
L 457.288123 232.203962 
L 457.692838 221.741046 
L 457.895195 222.408474 
L 458.299909 227.90494 
L 458.502267 227.767528 
L 458.906981 224.116304 
L 459.109338 224.626691 
L 459.514053 228.591998 
L 459.71641 232.694718 
L 460.728196 287.79679 
L 461.13291 292.01729 
L 461.537625 288.856822 
L 461.739982 280.3373 
L 462.144696 247.397764 
L 463.561197 181.361651 
L 463.763554 174.432178 
L 463.965911 175.551101 
L 464.572983 194.140934 
L 465.382412 258.076613 
L 465.584769 264.672372 
L 465.787126 267.263563 
L 465.989483 264.947195 
L 467.608341 176.611134 
L 468.620127 156.391991 
L 468.822484 159.375787 
L 469.429556 184.423968 
L 470.036627 238.564158 
L 470.441342 255.544312 
L 470.643699 258.056982 
L 470.846056 255.603203 
L 471.857842 206.998739 
L 472.869628 178.122662 
L 473.071985 178.593788 
L 473.274343 176.885957 
L 473.4767 178.083401 
L 473.679057 181.695365 
L 473.881414 187.97704 
L 474.083772 189.076333 
L 474.286129 196.398411 
L 474.8932 246.141429 
L 475.297915 261.649315 
L 475.500272 263.239365 
L 475.702629 261.295971 
L 476.107344 238.034142 
L 476.512058 217.029789 
L 477.321487 186.975898 
L 477.726201 167.738267 
L 477.928558 164.342236 
L 478.333273 168.81793 
L 478.53563 173.077691 
L 479.142702 196.869537 
L 479.952131 261.551164 
L 480.356845 270.954047 
L 480.559202 270.561443 
L 480.963917 249.478569 
L 482.785131 126.946637 
L 482.987489 121.312759 
L 483.189846 118.800089 
L 483.392203 124.178774 
L 483.999275 162.222171 
L 484.606346 230.083896 
L 485.011061 252.246432 
L 485.213418 256.447303 
L 485.415775 257.350294 
L 485.82049 238.485637 
L 486.225204 208.706569 
L 487.23699 122.843918 
L 487.439347 119.899382 
L 487.844062 126.161428 
L 488.248776 143.926791 
L 489.260562 217.91315 
L 489.665277 248.595209 
L 490.069991 263.003802 
L 490.272348 265.241649 
L 490.474705 264.161986 
L 490.677063 262.473785 
L 490.87942 253.188684 
L 491.891206 177.12152 
L 492.29592 160.219887 
L 492.498277 153.172632 
L 492.700635 151.248869 
L 492.902992 152.799658 
L 493.105349 157.393133 
L 493.712421 189.370787 
L 494.52185 258.056982 
L 495.128921 275.488632 
L 495.331278 275.626043 
L 495.533636 275.037136 
L 495.735993 267.83284 
L 496.950136 180.537181 
L 497.557208 157.294982 
L 497.759565 154.095253 
L 497.961922 157.15757 
L 498.568994 187.211461 
L 499.378422 257.625117 
L 499.58078 264.142355 
L 499.783137 266.517614 
L 499.985494 263.357146 
L 500.187851 255.230228 
L 500.794923 220.013585 
L 500.99728 215.145287 
L 501.401995 202.660457 
L 501.806709 191.922718 
L 502.009066 191.490852 
L 502.211423 193.453876 
L 502.413781 194.062413 
L 502.616138 192.472364 
L 503.020852 201.737836 
L 503.223209 202.267852 
L 503.425567 209.432888 
L 504.032638 257.782159 
L 504.437353 270.247359 
L 504.63971 271.798147 
L 504.842067 269.54067 
L 505.246782 246.298471 
L 505.651496 223.586288 
L 507.270354 153.82043 
L 507.472711 150.856264 
L 507.675068 154.095253 
L 508.28214 180.831634 
L 508.889211 236.169269 
L 509.293926 252.501626 
L 509.496283 255.858396 
L 509.69864 254.111305 
L 510.103354 231.654315 
L 511.722212 130.205256 
L 512.126927 113.264363 
L 512.329284 114.775891 
L 512.936355 147.558385 
L 513.34107 184.698791 
L 513.745784 226.157849 
L 514.150499 247.829629 
L 514.352856 253.149423 
L 514.555213 253.620549 
L 514.75757 245.140287 
L 516.174071 152.858548 
L 516.376428 151.818146 
L 516.781142 160.710643 
L 516.9835 158.099821 
L 517.185857 158.610207 
L 517.590571 175.49221 
L 517.792928 179.536039 
L 517.995286 189.743761 
L 518.4 227.571226 
L 518.4 227.571226 
" clip-path="url(#p34f1bf669c)" style="fill: none; stroke: #1f77b4; stroke-width: 1.5; stroke-linecap: square"/>
   </g>
   <g id="line2d_14">
    <path d="M 72 256.034321 
L 72.202357 256.034321 
L 72.404714 255.857702 
L 72.607072 256.418931 
L 72.809429 258.101759 
L 73.011786 258.731465 
L 73.214143 258.578005 
L 73.4165 255.368758 
L 73.821215 239.88616 
L 74.630644 198.066628 
L 75.035358 185.43853 
L 75.440073 177.900702 
L 75.64243 180.204134 
L 75.844787 185.665464 
L 76.249501 205.158652 
L 77.05893 249.761189 
L 77.261287 251.562794 
L 77.463645 250.958967 
L 77.666002 251.505187 
L 77.868359 247.689122 
L 79.284859 202.881994 
L 79.689574 185.96165 
L 79.891931 181.193865 
L 80.094288 181.115996 
L 80.296646 184.137974 
L 80.903717 205.441493 
L 81.106074 215.569651 
L 81.510789 252.261923 
L 81.915503 274.256184 
L 82.11786 274.433155 
L 82.320218 273.147316 
L 82.724932 264.155971 
L 83.129646 248.647011 
L 83.332004 238.119724 
L 83.736718 230.953042 
L 83.939075 228.376122 
L 84.141432 228.106156 
L 84.34379 227.539857 
L 84.950861 233.80431 
L 85.557933 242.19491 
L 86.569719 280.441972 
L 86.772076 284.535405 
L 86.974433 285.819515 
L 87.176791 282.830866 
L 88.188577 255.686944 
L 88.390934 248.4274 
L 88.795648 242.968995 
L 88.998005 241.965332 
L 89.200363 242.721096 
L 89.40272 242.937803 
L 89.605077 244.591935 
L 90.009791 243.52308 
L 90.414506 243.508179 
L 90.616863 246.434993 
L 91.021578 257.34084 
L 91.628649 278.845552 
L 91.831006 284.853224 
L 92.033364 284.933758 
L 92.640435 267.205509 
L 93.247507 237.257305 
L 93.449864 235.143341 
L 93.652221 231.862352 
L 93.854578 232.285833 
L 94.056936 230.408755 
L 94.259293 230.139274 
L 94.866364 226.030111 
L 95.271079 232.494066 
L 95.675793 249.555182 
L 95.87815 254.087554 
L 96.485222 277.15505 
L 96.687579 281.664772 
L 96.889937 282.182431 
L 97.497008 261.639842 
L 98.10408 231.349729 
L 98.306437 234.69684 
L 98.508794 235.098584 
L 98.711151 233.100641 
L 99.115866 237.180059 
L 99.52058 234.437645 
L 99.925295 233.661118 
L 100.127652 236.70696 
L 100.532366 255.163529 
L 100.734723 258.327703 
L 101.139438 281.696757 
L 101.544152 286.227958 
L 101.74651 284.374002 
L 102.151224 268.694819 
L 102.353581 263.851848 
L 102.960653 234.747262 
L 103.16301 237.298669 
L 103.365367 236.973035 
L 103.567724 234.672493 
L 103.770082 236.063095 
L 103.972439 236.568148 
L 104.174796 233.770926 
L 104.377153 228.338872 
L 104.57951 228.554107 
L 104.781868 228.297523 
L 104.984225 231.488211 
L 105.388939 254.656499 
L 105.591296 258.016725 
L 105.996011 282.287031 
L 106.400725 286.605895 
L 106.603083 285.86686 
L 107.412511 252.886751 
L 107.614869 239.653163 
L 107.817226 235.192864 
L 108.019583 238.107199 
L 108.22194 236.002116 
L 108.626655 229.834283 
L 109.031369 212.164503 
L 109.233726 204.888733 
L 109.436083 206.304108 
L 109.840798 218.921694 
L 110.245512 250.446836 
L 110.447869 257.077765 
L 110.852584 281.480044 
L 111.054941 285.38257 
L 111.459655 283.865861 
L 112.269084 251.380167 
L 112.471442 239.055069 
L 113.078513 226.711518 
L 113.685585 198.498352 
L 114.090299 187.190595 
L 114.292656 187.206507 
L 114.697371 196.839802 
L 115.709157 272.317312 
L 115.911514 277.310275 
L 116.113871 278.893219 
L 116.316228 276.372546 
L 117.125657 250.076758 
L 117.530372 233.246367 
L 117.732729 231.866809 
L 118.744515 171.902744 
L 119.149229 166.003798 
L 119.351587 169.216829 
L 119.756301 188.707032 
L 120.56573 259.623336 
L 120.970444 272.014304 
L 121.172801 273.265368 
L 121.577516 264.191939 
L 122.184587 240.28909 
L 122.589302 228.311637 
L 123.398731 204.941421 
L 123.601088 199.74075 
L 123.803445 198.516202 
L 124.005802 203.311509 
L 124.410517 222.016265 
L 125.017588 249.240586 
L 125.422303 273.252119 
L 125.827017 285.012563 
L 126.029374 284.491673 
L 126.434089 273.072041 
L 127.850589 206.998501 
L 128.255304 185.077295 
L 128.660018 175.000828 
L 128.862375 176.136619 
L 129.26709 189.998066 
L 130.278876 270.95733 
L 130.68359 276.944961 
L 130.885947 275.844536 
L 131.493019 252.018033 
L 131.897733 231.120908 
L 132.302448 212.995417 
L 132.909519 176.508414 
L 133.314234 165.206527 
L 133.516591 162.397789 
L 133.718948 164.99995 
L 133.921306 169.858621 
L 134.32602 193.425931 
L 134.933092 250.552417 
L 135.337806 268.475368 
L 135.540163 271.000537 
L 135.74252 269.620878 
L 136.551949 235.923323 
L 137.361378 202.186297 
L 137.563735 198.44587 
L 137.766092 191.765503 
L 137.96845 193.956437 
L 138.170807 193.247022 
L 138.575521 209.34992 
L 138.980236 221.949901 
L 139.38495 234.307762 
L 139.587307 244.823177 
L 139.992022 271.9822 
L 140.396736 278.550666 
L 140.599093 275.747097 
L 141.003808 262.721272 
L 141.206165 255.447923 
L 141.610879 232.626476 
L 142.015594 227.36397 
L 142.420308 224.036425 
L 142.622665 224.877526 
L 142.825023 219.265379 
L 143.02738 221.971545 
L 143.229737 217.98295 
L 143.432094 225.402123 
L 143.634451 227.451682 
L 144.241523 246.045542 
L 144.848595 279.781718 
L 145.050952 284.133497 
L 145.253309 285.010095 
L 145.455666 280.729679 
L 146.872167 223.98459 
L 147.883953 214.644707 
L 148.08631 220.096333 
L 148.288667 230.604231 
L 148.491024 231.402419 
L 148.895739 251.294681 
L 149.502811 277.464367 
L 149.705168 284.944658 
L 149.907525 286.477038 
L 150.109882 284.811329 
L 150.514597 273.809132 
L 151.526383 234.816139 
L 151.931097 234.255298 
L 152.133454 232.91051 
L 152.335811 232.999198 
L 152.538169 236.70679 
L 152.740526 237.668412 
L 152.942883 239.32229 
L 153.549955 253.328067 
L 153.954669 265.358533 
L 154.157026 264.833555 
L 154.561741 278.396645 
L 154.966455 281.902726 
L 155.168812 281.335111 
L 155.978241 260.621137 
L 156.382956 241.480836 
L 156.585313 238.476056 
L 157.192384 204.217368 
L 157.799456 177.397295 
L 158.001813 175.942683 
L 158.20417 177.620854 
L 158.406528 182.345841 
L 158.811242 202.743328 
L 159.418314 250.781828 
L 159.823028 266.053106 
L 160.025385 269.683243 
L 160.227743 267.461858 
L 160.4301 262.367407 
L 160.834814 242.945042 
L 161.8466 185.80994 
L 162.048957 183.046958 
L 162.251315 183.228217 
L 162.453672 182.640957 
L 162.656029 185.157537 
L 162.858386 191.650331 
L 163.263101 212.246226 
L 163.465458 218.549972 
L 164.477244 273.30768 
L 164.679601 277.820062 
L 164.881958 277.247289 
L 165.084316 271.835896 
L 165.691387 240.055524 
L 165.893744 228.476062 
L 166.096102 224.78853 
L 166.298459 223.70394 
L 166.500816 221.111527 
L 166.703173 216.96561 
L 166.90553 209.751787 
L 167.310245 189.836449 
L 167.512602 183.39317 
L 167.714959 186.280444 
L 168.119674 199.18131 
L 169.13146 273.661027 
L 169.536174 276.641655 
L 169.738531 273.956235 
L 170.750317 230.393124 
L 171.559746 175.068328 
L 171.964461 164.799444 
L 172.369175 162.905955 
L 172.773889 174.808115 
L 172.976247 183.848525 
L 173.178604 197.919948 
L 173.583318 238.309137 
L 173.785675 248.98147 
L 173.988033 265.771672 
L 174.392747 275.937581 
L 174.595104 273.547709 
L 175.809248 223.217288 
L 176.416319 201.3213 
L 176.821034 187.037108 
L 177.023391 182.203034 
L 177.225748 180.725972 
L 177.428105 183.987475 
L 178.035177 208.463063 
L 178.642248 259.34101 
L 178.844606 272.61921 
L 179.24932 279.838389 
L 179.451677 279.165947 
L 180.058749 250.641547 
L 180.463463 234.392709 
L 180.868178 220.986717 
L 181.677607 176.96388 
L 181.879964 169.518328 
L 182.082321 166.200321 
L 182.284678 167.1226 
L 182.689393 179.508926 
L 183.094107 216.712073 
L 183.701179 263.386829 
L 183.903536 267.978747 
L 184.105893 268.091707 
L 184.30825 269.121866 
L 184.712965 254.51707 
L 185.522393 225.666741 
L 186.129465 164.418561 
L 186.53418 155.624667 
L 186.736537 155.906733 
L 186.938894 157.273488 
L 187.343608 176.037821 
L 187.95068 215.516616 
L 188.355394 243.730113 
L 188.760109 262.007964 
L 189.164823 265.494089 
L 189.36718 262.555198 
L 189.974252 238.404799 
L 190.581324 210.514958 
L 191.188395 174.058192 
L 191.390752 167.284986 
L 191.59311 165.037027 
L 191.795467 169.51054 
L 191.997824 177.720785 
L 192.402539 200.686695 
L 192.807253 218.3346 
L 193.211967 248.067477 
L 193.616682 263.091549 
L 193.819039 268.01958 
L 194.021396 269.38085 
L 194.223753 266.434144 
L 194.426111 260.381601 
L 195.033182 232.36498 
L 195.235539 229.556361 
L 195.842611 195.665668 
L 196.044968 190.497147 
L 196.247325 192.87811 
L 196.449683 197.964753 
L 197.259112 231.864412 
L 197.461469 234.289359 
L 198.06854 261.802219 
L 198.473255 272.198407 
L 198.675612 275.904069 
L 198.877969 276.931408 
L 199.080326 273.20206 
L 199.485041 257.25688 
L 200.496827 202.126126 
L 201.103898 189.267257 
L 201.306256 185.611088 
L 201.508613 179.218732 
L 201.71097 178.27349 
L 201.913327 183.401485 
L 202.318042 204.692598 
L 202.722756 236.635355 
L 203.329828 262.691574 
L 203.734542 268.277825 
L 203.936899 263.859856 
L 204.341614 245.382021 
L 205.151043 197.972746 
L 205.555757 181.823448 
L 205.960471 175.414065 
L 206.162829 175.385647 
L 206.365186 176.816407 
L 206.7699 192.292264 
L 207.376972 218.970937 
L 207.984044 261.092184 
L 208.388758 267.021019 
L 208.591115 266.902549 
L 208.99583 252.489945 
L 210.614687 174.304762 
L 211.221759 154.18433 
L 211.424116 154.434579 
L 211.626473 159.356823 
L 212.031188 184.125547 
L 212.638259 243.861427 
L 212.840617 255.525485 
L 213.042974 260.779886 
L 213.245331 261.81545 
L 213.447688 261.75694 
L 214.257117 231.605058 
L 214.459474 220.043683 
L 214.864189 184.534503 
L 215.268903 158.167319 
L 215.875975 139.254169 
L 216.078332 136.811061 
L 216.280689 140.918196 
L 216.685403 158.425558 
L 217.090118 188.742759 
L 217.494832 228.498873 
L 217.899547 250.182783 
L 218.101904 252.997678 
L 218.304261 253.664515 
L 218.506618 248.633258 
L 218.708976 240.513928 
L 218.911333 238.293497 
L 219.518404 221.097322 
L 220.327833 164.864522 
L 220.53019 163.070768 
L 220.732548 163.064721 
L 220.934905 169.073392 
L 221.339619 196.976107 
L 221.744334 225.741695 
L 222.149048 241.079602 
L 222.553762 264.782958 
L 222.958477 272.497616 
L 223.160834 273.133374 
L 223.363191 268.573361 
L 224.577335 225.130785 
L 224.779692 226.288106 
L 224.982049 226.337199 
L 225.184406 224.636982 
L 225.386763 225.978361 
L 225.791478 233.025178 
L 226.398549 240.734592 
L 226.600907 245.738396 
L 227.005621 264.578745 
L 227.410335 274.811855 
L 227.81505 280.847815 
L 228.017407 280.510259 
L 228.422121 270.443655 
L 229.23155 237.274415 
L 229.636265 234.178623 
L 229.838622 233.785561 
L 230.040979 233.912391 
L 230.445694 223.445812 
L 230.850408 207.55059 
L 231.052765 208.94368 
L 231.255122 212.712533 
L 231.659837 234.685129 
L 232.064551 257.250187 
L 232.469266 274.538847 
L 232.87398 280.754854 
L 233.076337 275.652938 
L 234.088123 230.962899 
L 234.492838 219.457015 
L 234.897552 197.079747 
L 235.302267 188.654959 
L 235.504624 188.01514 
L 235.706981 189.261753 
L 236.111695 203.587994 
L 236.51641 230.906046 
L 237.123481 272.641905 
L 237.528196 281.213803 
L 237.730553 279.217932 
L 238.135267 265.133486 
L 238.539982 247.469508 
L 238.944696 228.522078 
L 240.15884 198.26875 
L 240.361197 197.086995 
L 240.765911 206.958016 
L 241.170626 227.943005 
L 241.57534 254.718298 
L 241.980054 278.936855 
L 242.384769 284.601652 
L 242.587126 281.237964 
L 243.396555 246.415116 
L 243.801269 230.125096 
L 244.003626 228.341427 
L 244.205984 224.630386 
L 245.015413 196.186138 
L 245.21777 191.315037 
L 245.420127 190.415545 
L 245.622484 193.473953 
L 245.824841 200.061589 
L 247.038985 276.298213 
L 247.241342 279.816851 
L 247.443699 279.806261 
L 247.848413 263.738339 
L 248.050771 256.657653 
L 248.455485 234.716402 
L 248.860199 218.02025 
L 249.467271 168.790789 
L 249.871985 156.167715 
L 250.074343 153.030091 
L 250.2767 157.538978 
L 250.681414 179.80852 
L 251.086129 214.272751 
L 251.6932 257.083209 
L 251.895558 263.089266 
L 252.097915 264.236409 
L 252.300272 266.833118 
L 252.502629 262.389127 
L 253.514415 226.026539 
L 254.323844 164.487289 
L 254.526201 160.515653 
L 254.728558 159.311982 
L 254.930916 159.781031 
L 255.133273 163.125256 
L 255.537987 179.380388 
L 255.942702 207.78479 
L 256.549773 256.020506 
L 256.752131 264.768754 
L 257.156845 268.505886 
L 257.359202 265.494805 
L 257.966274 241.001113 
L 258.168631 231.409832 
L 258.370988 228.722812 
L 259.180417 181.94738 
L 259.585131 174.298239 
L 259.787489 174.978396 
L 260.192203 189.76366 
L 260.799275 216.579302 
L 261.203989 250.504124 
L 261.608704 270.673761 
L 261.811061 275.671256 
L 262.013418 277.552819 
L 262.215775 274.466094 
L 262.62049 254.774745 
L 263.025204 234.564676 
L 263.429918 216.070035 
L 263.632276 214.916407 
L 263.834633 217.057636 
L 264.441704 228.634896 
L 264.846419 232.776939 
L 265.048776 234.270497 
L 265.251133 237.198878 
L 265.45349 242.385024 
L 266.060562 272.491725 
L 266.465277 281.207864 
L 266.667634 282.339003 
L 266.869991 280.985819 
L 267.072348 277.540351 
L 267.67942 253.700611 
L 267.881777 242.433943 
L 268.084134 238.401539 
L 268.286491 237.686211 
L 268.488849 238.45263 
L 268.893563 234.111143 
L 269.09592 233.738462 
L 269.500635 231.232026 
L 269.702992 231.478154 
L 270.107706 237.447745 
L 270.917135 266.189858 
L 271.119492 276.284988 
L 271.32185 280.75049 
L 271.524207 281.887031 
L 271.726564 280.605199 
L 272.131278 265.20838 
L 272.535993 247.276398 
L 273.952493 176.993223 
L 274.15485 168.405327 
L 274.357208 164.585318 
L 274.559565 165.002288 
L 274.964279 174.400871 
L 275.166636 182.513844 
L 276.178422 251.479433 
L 276.38078 256.838175 
L 276.583137 258.702601 
L 276.785494 257.038118 
L 277.190209 244.565335 
L 277.79728 207.877786 
L 278.201995 175.667284 
L 278.404352 163.294494 
L 279.011423 155.602139 
L 279.213781 156.052417 
L 279.618495 164.346768 
L 280.023209 188.073928 
L 280.832638 247.858312 
L 281.237353 262.108861 
L 281.43971 264.909304 
L 281.642067 260.103092 
L 283.058568 196.508054 
L 283.260925 183.000213 
L 283.463282 179.156066 
L 283.665639 172.146379 
L 283.867996 172.569908 
L 284.070354 169.597759 
L 284.475068 178.046959 
L 285.08214 221.531254 
L 285.486854 251.989626 
L 285.891568 272.996748 
L 286.093926 275.53005 
L 286.296283 275.663838 
L 286.49864 269.949264 
L 287.105712 242.693219 
L 287.510426 230.98051 
L 287.712783 226.681899 
L 288.724569 175.449026 
L 288.926927 173.374511 
L 289.129284 174.964831 
L 289.331641 179.201032 
L 289.736355 194.741365 
L 290.545784 262.232161 
L 290.748141 269.72964 
L 291.152856 274.135168 
L 291.355213 269.14366 
L 292.164642 237.341925 
L 292.366999 229.915633 
L 292.974071 169.362149 
L 293.378785 151.959176 
L 293.7835 147.343005 
L 293.985857 150.730293 
L 294.592928 179.277592 
L 294.997643 211.653789 
L 295.402357 242.510831 
L 295.807072 260.831754 
L 296.009429 263.654549 
L 296.211786 262.435258 
L 296.6165 242.416988 
L 297.021215 214.704517 
L 297.628286 139.212548 
L 298.033001 119.669806 
L 298.235358 113.933014 
L 298.437715 113.512335 
L 298.640073 114.511708 
L 299.044787 134.107484 
L 300.056573 207.894986 
L 300.461287 235.215277 
L 300.663645 241.555091 
L 300.866002 241.865401 
L 301.270716 231.370748 
L 301.675431 211.638799 
L 302.687217 116.606669 
L 302.889574 111.314646 
L 303.091931 111.580123 
L 303.699003 138.558663 
L 304.508432 195.236 
L 304.913146 225.929751 
L 305.31786 240.672215 
L 305.520218 245.535057 
L 305.722575 246.192478 
L 305.924932 242.516358 
L 306.734361 202.765822 
L 307.139075 172.009353 
L 307.341432 166.729476 
L 307.54379 156.338109 
L 307.746147 157.020867 
L 308.150861 154.778349 
L 308.555576 168.092946 
L 308.96029 188.561384 
L 310.174433 257.952652 
L 310.376791 260.76071 
L 310.579148 261.303072 
L 310.983862 243.160068 
L 311.590934 213.871873 
L 311.995648 174.909156 
L 312.400363 149.93448 
L 312.60272 143.974916 
L 312.805077 142.16957 
L 313.007434 143.01813 
L 313.412149 154.227179 
L 314.01922 180.698886 
L 314.828649 239.240563 
L 315.233364 249.009731 
L 315.435721 247.334873 
L 316.042792 231.625991 
L 316.447507 209.356276 
L 316.852221 189.440552 
L 317.459293 181.417274 
L 317.66165 182.69146 
L 318.066364 191.156127 
L 319.280508 233.316499 
L 319.685222 259.08459 
L 320.089937 268.015454 
L 320.292294 267.150472 
L 320.494651 263.624502 
L 320.697008 257.395412 
L 321.101723 239.020801 
L 321.30408 233.062926 
L 321.708794 229.68423 
L 321.911151 221.043051 
L 322.315866 191.682214 
L 322.72058 178.825456 
L 322.922937 175.120157 
L 323.125295 174.364235 
L 323.327652 174.914164 
L 323.530009 177.172305 
L 323.732366 184.367439 
L 324.541795 252.152475 
L 324.94651 262.752896 
L 325.148867 264.508876 
L 325.351224 261.972693 
L 325.553581 257.450047 
L 326.160653 233.510263 
L 326.36301 228.885607 
L 326.970082 163.053917 
L 327.374796 144.087721 
L 327.577153 143.028255 
L 327.77951 144.506098 
L 327.981868 149.253834 
L 328.791296 195.73673 
L 329.196011 235.369196 
L 329.600725 260.314057 
L 330.00544 267.097343 
L 330.207797 264.772809 
L 330.612511 244.05533 
L 331.017226 222.485484 
L 331.624297 159.308416 
L 331.826655 151.155122 
L 332.029012 148.647866 
L 332.231369 149.64335 
L 332.636083 156.937768 
L 333.040798 178.737382 
L 334.254941 255.12497 
L 334.659655 265.470763 
L 334.862013 267.533453 
L 335.06437 263.061986 
L 336.076156 217.380126 
L 336.48087 203.802758 
L 336.885585 187.929439 
L 337.087942 183.817137 
L 337.290299 185.573576 
L 337.695014 195.021266 
L 338.504442 228.059838 
L 338.909157 252.416146 
L 339.111514 264.337867 
L 339.516228 271.450314 
L 339.718586 273.139773 
L 340.1233 257.096542 
L 341.539801 190.693548 
L 342.349229 169.07929 
L 342.551587 165.930318 
L 342.753944 168.662624 
L 343.158658 179.883229 
L 344.170444 255.815127 
L 344.372801 256.458864 
L 344.575159 258.126132 
L 344.777516 255.194908 
L 345.384587 230.103181 
L 345.586945 216.693989 
L 346.194016 145.242533 
L 346.396374 131.3337 
L 346.598731 127.052545 
L 346.801088 125.799072 
L 347.003445 125.364393 
L 347.205802 127.96114 
L 347.610517 143.007242 
L 348.015231 164.799324 
L 348.419946 200.677259 
L 348.82466 230.933806 
L 349.229374 243.140063 
L 349.431732 245.928205 
L 349.634089 243.859027 
L 350.24116 224.15085 
L 350.443518 210.451805 
L 350.848232 167.489613 
L 351.252947 143.080442 
L 351.657661 135.59482 
L 351.860018 135.303857 
L 352.062375 136.367056 
L 352.264733 140.636905 
L 352.46709 147.592597 
L 353.074161 186.0255 
L 353.478876 225.748102 
L 354.085947 252.605922 
L 354.288305 253.549712 
L 354.490662 250.939128 
L 354.895376 233.892208 
L 355.300091 225.745951 
L 356.311877 139.949436 
L 356.514234 138.642811 
L 356.716591 138.563886 
L 357.121306 144.12716 
L 357.52602 159.13039 
L 357.930734 183.592475 
L 358.537806 236.931631 
L 358.94252 252.935947 
L 359.144878 253.577916 
L 359.347235 250.94753 
L 360.156664 223.668203 
L 360.966092 140.560354 
L 361.370807 127.868763 
L 361.775521 130.278742 
L 361.977879 135.333742 
L 362.58495 161.200045 
L 362.989665 187.661996 
L 363.394379 228.357133 
L 363.799093 245.073855 
L 364.001451 249.573157 
L 364.810879 217.893911 
L 365.822665 112.409853 
L 366.22738 103.12332 
L 366.834451 119.890646 
L 367.441523 154.442187 
L 367.846238 184.350964 
L 368.453309 232.368648 
L 368.655666 238.877849 
L 368.858024 239.60017 
L 369.667452 211.009656 
L 370.679238 127.020799 
L 370.881596 119.843336 
L 371.083953 119.915797 
L 371.488667 128.64608 
L 371.893382 146.148921 
L 372.500453 189.479731 
L 372.905168 220.982241 
L 373.309882 242.615619 
L 373.512239 244.972498 
L 373.714597 249.147926 
L 373.916954 247.098839 
L 374.321668 229.78146 
L 374.524025 224.219591 
L 374.726383 214.296537 
L 375.535811 146.527037 
L 375.738169 143.294007 
L 375.940526 144.118836 
L 376.142883 144.421498 
L 376.34524 145.816469 
L 377.154669 182.839976 
L 377.559383 219.435069 
L 378.368812 254.519026 
L 378.57117 254.514074 
L 378.773527 251.617521 
L 379.582956 201.88305 
L 379.98767 153.271955 
L 380.392384 132.31962 
L 380.594742 129.363159 
L 380.797099 129.745008 
L 380.999456 129.331318 
L 381.201813 130.396258 
L 381.606528 143.882779 
L 382.415956 187.678353 
L 383.225385 244.089726 
L 383.427743 245.750554 
L 384.237171 213.160791 
L 384.237171 213.160791 
" clip-path="url(#p34f1bf669c)" style="fill: none; stroke: #ff7f0e; stroke-width: 1.5; stroke-linecap: square"/>
   </g>
   <g id="line2d_15">
    <path d="M 384.439529 196.233417 
L 384.844243 166.646157 
L 385.451315 153.568297 
L 385.653672 152.863846 
L 385.856029 155.457457 
L 386.260743 169.384766 
L 386.665458 196.348419 
L 387.070172 224.939061 
L 387.474887 237.906386 
L 387.879601 253.758519 
L 388.081958 251.65769 
L 388.486673 242.190009 
L 388.891387 221.403803 
L 389.296102 203.641885 
L 389.700816 179.761807 
L 389.903173 174.98814 
L 390.307888 154.143485 
L 390.510245 158.960007 
L 390.712602 158.109515 
L 390.914959 154.706663 
L 391.117316 156.276 
L 391.522031 163.007979 
L 391.724388 165.373999 
L 392.129102 181.563015 
L 392.33146 180.936571 
L 392.736174 193.92983 
L 392.938531 183.272482 
L 393.343246 174.118608 
L 394.355032 106.760178 
L 394.962103 90.47799 
L 395.164461 90.676397 
L 395.569175 96.962069 
L 395.771532 104.052367 
L 396.176247 126.565286 
L 396.378604 133.189337 
L 396.985675 182.809953 
L 397.592747 218.071475 
L 398.199819 228.574424 
L 398.604533 222.60394 
L 398.80689 222.998344 
L 399.211605 217.390841 
L 399.413962 217.18975 
L 399.616319 218.194386 
L 399.818676 220.20836 
L 400.021034 220.865221 
L 400.223391 225.125231 
L 400.628105 227.297005 
L 401.235177 231.388293 
L 401.437534 236.269427 
L 401.639891 238.006892 
L 401.842248 237.381682 
L 402.044606 241.087163 
L 402.246963 247.024539 
L 402.651677 238.726144 
L 403.258749 232.171645 
L 403.461106 232.291734 
L 403.663463 228.944958 
L 404.068178 212.193442 
L 404.270535 207.898254 
L 405.484678 137.930275 
L 405.889393 111.049406 
L 406.294107 86.595225 
L 406.698821 66.342117 
L 406.901179 67.270138 
L 407.103536 72.713415 
L 407.305893 74.53473 
L 407.710607 89.354912 
L 409.127108 145.891529 
L 409.329465 148.658098 
L 409.936537 161.938328 
L 410.138894 160.91285 
L 410.341251 165.913693 
L 410.745966 167.2045 
L 410.948323 171.531384 
L 411.15068 181.053517 
L 411.353037 184.133955 
L 412.971895 235.622703 
L 413.174252 241.437498 
L 413.376609 239.840825 
L 413.781324 243.549883 
L 413.983681 240.087042 
L 414.186038 234.689888 
L 414.388395 233.553751 
L 414.79311 227.856672 
L 414.995467 226.824777 
L 415.197824 227.421395 
L 415.400181 226.373169 
L 415.602539 226.762504 
L 415.804896 228.045302 
L 416.007253 231.103911 
L 416.20961 231.29531 
L 416.411967 232.205857 
L 416.614325 235.973706 
L 416.816682 235.320918 
L 417.019039 236.203991 
L 417.221396 240.648602 
L 417.423753 240.264526 
L 417.626111 237.902455 
L 417.828468 239.709869 
L 418.030825 239.681885 
L 418.435539 226.623088 
L 418.637897 220.457885 
L 419.447325 136.558153 
L 419.85204 91.875024 
L 420.256754 63.120678 
L 420.459112 56.098142 
L 420.661469 55.8 
L 421.066183 62.625142 
L 422.887398 165.374679 
L 423.49447 175.51597 
L 424.101541 161.95853 
L 424.506256 146.815758 
L 424.91097 151.333447 
L 425.113327 150.736614 
L 426.732185 237.736313 
L 426.934542 244.632333 
L 427.136899 244.821287 
L 427.339257 248.978718 
L 427.541614 249.786609 
L 428.148685 240.611415 
L 428.5534 223.63317 
L 428.755757 222.922197 
L 429.160471 219.920436 
L 429.565186 221.326845 
L 429.767543 220.879394 
L 429.9699 219.770177 
L 430.172257 225.615987 
L 430.374615 227.981932 
L 430.576972 228.204052 
L 430.779329 234.482497 
L 431.386401 242.801856 
L 431.588758 247.103076 
L 431.791115 246.506839 
L 431.993472 244.432462 
L 432.19583 245.848977 
L 432.398187 241.308653 
L 433.005258 204.779148 
L 433.409973 156.760517 
L 434.421759 79.173404 
L 434.624116 71.082744 
L 434.826473 68.053047 
L 435.02883 72.929699 
L 435.231188 74.032491 
L 435.433545 78.725058 
L 436.445331 137.528725 
L 436.850045 153.529991 
L 437.052403 162.528411 
L 437.25476 165.939954 
L 437.457117 164.375056 
L 437.659474 164.028233 
L 437.861831 162.34627 
L 438.266546 147.640873 
L 438.468903 145.167103 
L 438.67126 139.597855 
L 438.873617 137.680682 
L 439.075975 146.123341 
L 439.278332 148.087287 
L 439.480689 155.148069 
L 440.694832 224.760547 
L 441.301904 242.402224 
L 441.504261 243.309345 
L 441.706618 246.116852 
L 441.908976 245.435954 
L 442.31369 234.289665 
L 442.920762 220.806815 
L 443.123119 220.3681 
L 443.325476 220.476673 
L 443.527833 220.446119 
L 443.73019 220.638902 
L 443.932548 226.569909 
L 444.134905 225.951788 
L 444.337262 228.177688 
L 444.539619 232.418642 
L 445.146691 236.624085 
L 445.349048 241.452823 
L 445.551405 242.678044 
L 445.753762 245.436536 
L 445.95612 246.274783 
L 446.158477 245.236778 
L 446.563191 241.572968 
L 446.765549 234.340267 
L 448.384406 98.873614 
L 448.991478 74.133227 
L 449.193835 74.977101 
L 449.800907 81.150123 
L 450.205621 102.248881 
L 450.407978 110.186953 
L 450.812693 133.469984 
L 451.419764 155.829216 
L 451.622121 158.647006 
L 451.824479 156.02277 
L 452.026836 157.179478 
L 452.229193 154.016536 
L 452.633908 142.991655 
L 452.836265 143.473644 
L 453.038622 140.818115 
L 453.645694 156.543553 
L 453.848051 163.941832 
L 454.65748 212.213036 
L 455.264551 233.858483 
L 455.669266 240.580408 
L 456.07398 243.361758 
L 456.276337 242.678276 
L 456.681052 230.373842 
L 457.085766 223.323138 
L 457.288123 221.85007 
L 457.490481 221.442209 
L 457.692838 221.991993 
L 457.895195 222.05411 
L 458.299909 228.39496 
L 458.502267 230.929286 
L 459.311695 235.415131 
L 459.71641 242.368194 
L 459.918767 243.704142 
L 460.121124 244.018047 
L 460.323481 244.82343 
L 460.525839 243.135039 
L 460.930553 237.233163 
L 461.13291 227.632106 
L 462.954125 84.332302 
L 463.156482 75.748848 
L 463.35884 72.425553 
L 463.561197 73.333622 
L 463.763554 76.133797 
L 463.965911 76.833334 
L 464.168268 83.771079 
L 465.180054 137.285703 
L 465.989483 160.001096 
L 466.394198 156.858117 
L 466.596555 153.473333 
L 466.798912 146.672399 
L 467.001269 144.614646 
L 467.203626 145.23031 
L 467.405984 145.334504 
L 467.608341 148.854287 
L 468.013055 162.369454 
L 468.215413 170.195933 
L 468.620127 198.216373 
L 469.227199 222.455381 
L 469.83427 239.239351 
L 470.036627 243.085127 
L 470.238985 243.00098 
L 470.441342 243.957068 
L 470.643699 240.397824 
L 471.048413 229.537833 
L 471.453128 223.389023 
L 471.655485 221.457092 
L 471.857842 221.463863 
L 472.060199 221.946234 
L 472.262557 223.392187 
L 472.667271 230.259118 
L 473.679057 236.568039 
L 474.083772 243.449442 
L 474.286129 243.967825 
L 474.488486 243.642033 
L 474.690843 244.281798 
L 474.8932 243.35268 
L 475.297915 233.429137 
L 475.702629 203.169432 
L 477.11913 84.891127 
L 477.523844 72.101818 
L 477.726201 71.989096 
L 477.928558 72.694691 
L 478.333273 80.525909 
L 479.952131 155.906685 
L 480.154488 161.592579 
L 480.356845 161.800062 
L 480.963917 151.614178 
L 481.166274 144.60402 
L 481.368631 143.740744 
L 481.975703 149.141064 
L 482.582774 177.907333 
L 482.987489 203.630011 
L 483.392203 219.864307 
L 483.999275 237.407874 
L 484.201632 242.941816 
L 484.403989 244.761628 
L 484.606346 242.636838 
L 484.808704 244.147458 
L 485.415775 226.150328 
L 485.618132 224.697911 
L 486.022847 220.462611 
L 486.225204 221.041384 
L 486.427561 222.241681 
L 487.034633 231.047577 
L 487.439347 233.257505 
L 488.046419 238.771386 
L 488.451133 244.75882 
L 488.65349 243.753145 
L 488.855848 243.420591 
L 489.058205 244.749953 
L 489.260562 241.180416 
L 489.665277 226.966351 
L 489.867634 212.380132 
L 490.272348 173.879957 
L 491.284134 89.10328 
L 491.688849 73.287267 
L 491.891206 73.478364 
L 492.093563 72.879039 
L 492.29592 75.663126 
L 492.700635 87.162828 
L 494.117135 153.613066 
L 494.52185 162.291042 
L 494.724207 160.515785 
L 495.533636 142.258536 
L 495.735993 143.446382 
L 495.93835 147.16214 
L 496.140707 146.856198 
L 496.747779 173.341482 
L 497.35485 211.131233 
L 498.164279 236.680565 
L 498.366636 239.661438 
L 498.568994 245.222046 
L 499.176065 239.588474 
L 499.58078 226.450994 
L 500.187851 220.703739 
L 500.390209 220.492102 
L 500.592566 221.928235 
L 500.99728 226.421311 
L 501.401995 231.82196 
L 501.806709 234.21186 
L 502.009066 235.479434 
L 502.616138 244.289926 
L 502.818495 245.051679 
L 503.020852 243.183323 
L 503.425567 244.548522 
L 504.032638 219.522191 
L 505.044424 124.964322 
L 505.449139 94.261342 
L 505.853853 74.201669 
L 506.05621 72.77767 
L 506.258568 74.02753 
L 506.460925 73.348171 
L 506.865639 85.346462 
L 507.270354 103.598583 
L 507.877425 135.288771 
L 508.28214 152.305009 
L 508.686854 160.36731 
L 508.889211 161.944613 
L 509.900997 141.555815 
L 510.508069 150.099401 
L 511.115141 181.943424 
L 511.722212 216.501717 
L 511.924569 220.875934 
L 512.329284 237.408658 
L 512.531641 237.450079 
L 512.733998 243.225767 
L 512.936355 245.411334 
L 513.543427 236.566679 
L 513.948141 224.357339 
L 514.150499 223.869538 
L 514.555213 220.557861 
L 514.75757 220.999868 
L 515.769356 232.45375 
L 516.174071 234.990871 
L 516.9835 245.300601 
L 517.388214 243.426089 
L 517.590571 244.415962 
L 517.792928 241.939689 
L 518.4 211.592903 
L 518.4 211.592903 
" clip-path="url(#p34f1bf669c)" style="fill: none; stroke: #2ca02c; stroke-width: 1.5; stroke-linecap: square"/>
   </g>
   <g id="patch_3">
    <path d="M 72 320.4 
L 72 43.2 
" style="fill: none; stroke: #000000; stroke-width: 0.8; stroke-linejoin: miter; stroke-linecap: square"/>
   </g>
   <g id="patch_4">
    <path d="M 518.4 320.4 
L 518.4 43.2 
" style="fill: none; stroke: #000000; stroke-width: 0.8; stroke-linejoin: miter; stroke-linecap: square"/>
   </g>
   <g id="patch_5">
    <path d="M 72 320.4 
L 518.4 320.4 
" style="fill: none; stroke: #000000; stroke-width: 0.8; stroke-linejoin: miter; stroke-linecap: square"/>
   </g>
   <g id="patch_6">
    <path d="M 72 43.2 
L 518.4 43.2 
" style="fill: none; stroke: #000000; stroke-width: 0.8; stroke-linejoin: miter; stroke-linecap: square"/>
   </g>
   <g id="text_13">
    <!-- Classic Transformer - model_20231126173014 -->
    <g transform="translate(155.436563 37.2) scale(0.12 -0.12)">
     <defs>
      <path id="DejaVuSans-43" d="M 4122 4306 
L 4122 3641 
Q 3803 3938 3442 4084 
Q 3081 4231 2675 4231 
Q 1875 4231 1450 3742 
Q 1025 3253 1025 2328 
Q 1025 1406 1450 917 
Q 1875 428 2675 428 
Q 3081 428 3442 575 
Q 3803 722 4122 1019 
L 4122 359 
Q 3791 134 3420 21 
Q 3050 -91 2638 -91 
Q 1578 -91 968 557 
Q 359 1206 359 2328 
Q 359 3453 968 4101 
Q 1578 4750 2638 4750 
Q 3056 4750 3426 4639 
Q 3797 4528 4122 4306 
z
" transform="scale(0.015625)"/>
      <path id="DejaVuSans-6c" d="M 603 4863 
L 1178 4863 
L 1178 0 
L 603 0 
L 603 4863 
z
" transform="scale(0.015625)"/>
      <path id="DejaVuSans-61" d="M 2194 1759 
Q 1497 1759 1228 1600 
Q 959 1441 959 1056 
Q 959 750 1161 570 
Q 1363 391 1709 391 
Q 2188 391 2477 730 
Q 2766 1069 2766 1631 
L 2766 1759 
L 2194 1759 
z
M 3341 1997 
L 3341 0 
L 2766 0 
L 2766 531 
Q 2569 213 2275 61 
Q 1981 -91 1556 -91 
Q 1019 -91 701 211 
Q 384 513 384 1019 
Q 384 1609 779 1909 
Q 1175 2209 1959 2209 
L 2766 2209 
L 2766 2266 
Q 2766 2663 2505 2880 
Q 2244 3097 1772 3097 
Q 1472 3097 1187 3025 
Q 903 2953 641 2809 
L 641 3341 
Q 956 3463 1253 3523 
Q 1550 3584 1831 3584 
Q 2591 3584 2966 3190 
Q 3341 2797 3341 1997 
z
" transform="scale(0.015625)"/>
      <path id="DejaVuSans-73" d="M 2834 3397 
L 2834 2853 
Q 2591 2978 2328 3040 
Q 2066 3103 1784 3103 
Q 1356 3103 1142 2972 
Q 928 2841 928 2578 
Q 928 2378 1081 2264 
Q 1234 2150 1697 2047 
L 1894 2003 
Q 2506 1872 2764 1633 
Q 3022 1394 3022 966 
Q 3022 478 2636 193 
Q 2250 -91 1575 -91 
Q 1294 -91 989 -36 
Q 684 19 347 128 
L 347 722 
Q 666 556 975 473 
Q 1284 391 1588 391 
Q 1994 391 2212 530 
Q 2431 669 2431 922 
Q 2431 1156 2273 1281 
Q 2116 1406 1581 1522 
L 1381 1569 
Q 847 1681 609 1914 
Q 372 2147 372 2553 
Q 372 3047 722 3315 
Q 1072 3584 1716 3584 
Q 2034 3584 2315 3537 
Q 2597 3491 2834 3397 
z
" transform="scale(0.015625)"/>
      <path id="DejaVuSans-69" d="M 603 3500 
L 1178 3500 
L 1178 0 
L 603 0 
L 603 3500 
z
M 603 4863 
L 1178 4863 
L 1178 4134 
L 603 4134 
L 603 4863 
z
" transform="scale(0.015625)"/>
      <path id="DejaVuSans-63" d="M 3122 3366 
L 3122 2828 
Q 2878 2963 2633 3030 
Q 2388 3097 2138 3097 
Q 1578 3097 1268 2742 
Q 959 2388 959 1747 
Q 959 1106 1268 751 
Q 1578 397 2138 397 
Q 2388 397 2633 464 
Q 2878 531 3122 666 
L 3122 134 
Q 2881 22 2623 -34 
Q 2366 -91 2075 -91 
Q 1284 -91 818 406 
Q 353 903 353 1747 
Q 353 2603 823 3093 
Q 1294 3584 2113 3584 
Q 2378 3584 2631 3529 
Q 2884 3475 3122 3366 
z
" transform="scale(0.015625)"/>
      <path id="DejaVuSans-20" transform="scale(0.015625)"/>
      <path id="DejaVuSans-54" d="M -19 4666 
L 3928 4666 
L 3928 4134 
L 2272 4134 
L 2272 0 
L 1638 0 
L 1638 4134 
L -19 4134 
L -19 4666 
z
" transform="scale(0.015625)"/>
      <path id="DejaVuSans-72" d="M 2631 2963 
Q 2534 3019 2420 3045 
Q 2306 3072 2169 3072 
Q 1681 3072 1420 2755 
Q 1159 2438 1159 1844 
L 1159 0 
L 581 0 
L 581 3500 
L 1159 3500 
L 1159 2956 
Q 1341 3275 1631 3429 
Q 1922 3584 2338 3584 
Q 2397 3584 2469 3576 
Q 2541 3569 2628 3553 
L 2631 2963 
z
" transform="scale(0.015625)"/>
      <path id="DejaVuSans-6e" d="M 3513 2113 
L 3513 0 
L 2938 0 
L 2938 2094 
Q 2938 2591 2744 2837 
Q 2550 3084 2163 3084 
Q 1697 3084 1428 2787 
Q 1159 2491 1159 1978 
L 1159 0 
L 581 0 
L 581 3500 
L 1159 3500 
L 1159 2956 
Q 1366 3272 1645 3428 
Q 1925 3584 2291 3584 
Q 2894 3584 3203 3211 
Q 3513 2838 3513 2113 
z
" transform="scale(0.015625)"/>
      <path id="DejaVuSans-66" d="M 2375 4863 
L 2375 4384 
L 1825 4384 
Q 1516 4384 1395 4259 
Q 1275 4134 1275 3809 
L 1275 3500 
L 2222 3500 
L 2222 3053 
L 1275 3053 
L 1275 0 
L 697 0 
L 697 3053 
L 147 3053 
L 147 3500 
L 697 3500 
L 697 3744 
Q 697 4328 969 4595 
Q 1241 4863 1831 4863 
L 2375 4863 
z
" transform="scale(0.015625)"/>
      <path id="DejaVuSans-6f" d="M 1959 3097 
Q 1497 3097 1228 2736 
Q 959 2375 959 1747 
Q 959 1119 1226 758 
Q 1494 397 1959 397 
Q 2419 397 2687 759 
Q 2956 1122 2956 1747 
Q 2956 2369 2687 2733 
Q 2419 3097 1959 3097 
z
M 1959 3584 
Q 2709 3584 3137 3096 
Q 3566 2609 3566 1747 
Q 3566 888 3137 398 
Q 2709 -91 1959 -91 
Q 1206 -91 779 398 
Q 353 888 353 1747 
Q 353 2609 779 3096 
Q 1206 3584 1959 3584 
z
" transform="scale(0.015625)"/>
      <path id="DejaVuSans-6d" d="M 3328 2828 
Q 3544 3216 3844 3400 
Q 4144 3584 4550 3584 
Q 5097 3584 5394 3201 
Q 5691 2819 5691 2113 
L 5691 0 
L 5113 0 
L 5113 2094 
Q 5113 2597 4934 2840 
Q 4756 3084 4391 3084 
Q 3944 3084 3684 2787 
Q 3425 2491 3425 1978 
L 3425 0 
L 2847 0 
L 2847 2094 
Q 2847 2600 2669 2842 
Q 2491 3084 2119 3084 
Q 1678 3084 1418 2786 
Q 1159 2488 1159 1978 
L 1159 0 
L 581 0 
L 581 3500 
L 1159 3500 
L 1159 2956 
Q 1356 3278 1631 3431 
Q 1906 3584 2284 3584 
Q 2666 3584 2933 3390 
Q 3200 3197 3328 2828 
z
" transform="scale(0.015625)"/>
      <path id="DejaVuSans-65" d="M 3597 1894 
L 3597 1613 
L 953 1613 
Q 991 1019 1311 708 
Q 1631 397 2203 397 
Q 2534 397 2845 478 
Q 3156 559 3463 722 
L 3463 178 
Q 3153 47 2828 -22 
Q 2503 -91 2169 -91 
Q 1331 -91 842 396 
Q 353 884 353 1716 
Q 353 2575 817 3079 
Q 1281 3584 2069 3584 
Q 2775 3584 3186 3129 
Q 3597 2675 3597 1894 
z
M 3022 2063 
Q 3016 2534 2758 2815 
Q 2500 3097 2075 3097 
Q 1594 3097 1305 2825 
Q 1016 2553 972 2059 
L 3022 2063 
z
" transform="scale(0.015625)"/>
      <path id="DejaVuSans-64" d="M 2906 2969 
L 2906 4863 
L 3481 4863 
L 3481 0 
L 2906 0 
L 2906 525 
Q 2725 213 2448 61 
Q 2172 -91 1784 -91 
Q 1150 -91 751 415 
Q 353 922 353 1747 
Q 353 2572 751 3078 
Q 1150 3584 1784 3584 
Q 2172 3584 2448 3432 
Q 2725 3281 2906 2969 
z
M 947 1747 
Q 947 1113 1208 752 
Q 1469 391 1925 391 
Q 2381 391 2643 752 
Q 2906 1113 2906 1747 
Q 2906 2381 2643 2742 
Q 2381 3103 1925 3103 
Q 1469 3103 1208 2742 
Q 947 2381 947 1747 
z
" transform="scale(0.015625)"/>
      <path id="DejaVuSans-5f" d="M 3263 -1063 
L 3263 -1509 
L -63 -1509 
L -63 -1063 
L 3263 -1063 
z
" transform="scale(0.015625)"/>
      <path id="DejaVuSans-34" d="M 2419 4116 
L 825 1625 
L 2419 1625 
L 2419 4116 
z
M 2253 4666 
L 3047 4666 
L 3047 1625 
L 3713 1625 
L 3713 1100 
L 3047 1100 
L 3047 0 
L 2419 0 
L 2419 1100 
L 313 1100 
L 313 1709 
L 2253 4666 
z
" transform="scale(0.015625)"/>
     </defs>
     <use xlink:href="#DejaVuSans-43"/>
     <use xlink:href="#DejaVuSans-6c" x="69.824219"/>
     <use xlink:href="#DejaVuSans-61" x="97.607422"/>
     <use xlink:href="#DejaVuSans-73" x="158.886719"/>
     <use xlink:href="#DejaVuSans-73" x="210.986328"/>
     <use xlink:href="#DejaVuSans-69" x="263.085938"/>
     <use xlink:href="#DejaVuSans-63" x="290.869141"/>
     <use xlink:href="#DejaVuSans-20" x="345.849609"/>
     <use xlink:href="#DejaVuSans-54" x="377.636719"/>
     <use xlink:href="#DejaVuSans-72" x="423.970703"/>
     <use xlink:href="#DejaVuSans-61" x="465.083984"/>
     <use xlink:href="#DejaVuSans-6e" x="526.363281"/>
     <use xlink:href="#DejaVuSans-73" x="589.742188"/>
     <use xlink:href="#DejaVuSans-66" x="641.841797"/>
     <use xlink:href="#DejaVuSans-6f" x="677.046875"/>
     <use xlink:href="#DejaVuSans-72" x="738.228516"/>
     <use xlink:href="#DejaVuSans-6d" x="777.591797"/>
     <use xlink:href="#DejaVuSans-65" x="875.003906"/>
     <use xlink:href="#DejaVuSans-72" x="936.527344"/>
     <use xlink:href="#DejaVuSans-20" x="977.640625"/>
     <use xlink:href="#DejaVuSans-2d" x="1009.427734"/>
     <use xlink:href="#DejaVuSans-20" x="1045.511719"/>
     <use xlink:href="#DejaVuSans-6d" x="1077.298828"/>
     <use xlink:href="#DejaVuSans-6f" x="1174.710938"/>
     <use xlink:href="#DejaVuSans-64" x="1235.892578"/>
     <use xlink:href="#DejaVuSans-65" x="1299.369141"/>
     <use xlink:href="#DejaVuSans-6c" x="1360.892578"/>
     <use xlink:href="#DejaVuSans-5f" x="1388.675781"/>
     <use xlink:href="#DejaVuSans-32" x="1438.675781"/>
     <use xlink:href="#DejaVuSans-30" x="1502.298828"/>
     <use xlink:href="#DejaVuSans-32" x="1565.921875"/>
     <use xlink:href="#DejaVuSans-33" x="1629.544922"/>
     <use xlink:href="#DejaVuSans-31" x="1693.167969"/>
     <use xlink:href="#DejaVuSans-31" x="1756.791016"/>
     <use xlink:href="#DejaVuSans-32" x="1820.414062"/>
     <use xlink:href="#DejaVuSans-36" x="1884.037109"/>
     <use xlink:href="#DejaVuSans-31" x="1947.660156"/>
     <use xlink:href="#DejaVuSans-37" x="2011.283203"/>
     <use xlink:href="#DejaVuSans-33" x="2074.90625"/>
     <use xlink:href="#DejaVuSans-30" x="2138.529297"/>
     <use xlink:href="#DejaVuSans-31" x="2202.152344"/>
     <use xlink:href="#DejaVuSans-34" x="2265.775391"/>
    </g>
   </g>
   <g id="legend_1">
    <g id="patch_7">
     <path d="M 79 95.234375 
L 161.517188 95.234375 
Q 163.517188 95.234375 163.517188 93.234375 
L 163.517188 50.2 
Q 163.517188 48.2 161.517188 48.2 
L 79 48.2 
Q 77 48.2 77 50.2 
L 77 93.234375 
Q 77 95.234375 79 95.234375 
z
" style="fill: #ffffff; opacity: 0.8; stroke: #cccccc; stroke-linejoin: miter"/>
    </g>
    <g id="line2d_16">
     <path d="M 81 56.298437 
L 91 56.298437 
L 101 56.298437 
" style="fill: none; stroke: #1f77b4; stroke-width: 1.5; stroke-linecap: square"/>
    </g>
    <g id="text_14">
     <!-- Measured -->
     <g transform="translate(109 59.798437) scale(0.1 -0.1)">
      <defs>
       <path id="DejaVuSans-4d" d="M 628 4666 
L 1569 4666 
L 2759 1491 
L 3956 4666 
L 4897 4666 
L 4897 0 
L 4281 0 
L 4281 4097 
L 3078 897 
L 2444 897 
L 1241 4097 
L 1241 0 
L 628 0 
L 628 4666 
z
" transform="scale(0.015625)"/>
       <path id="DejaVuSans-75" d="M 544 1381 
L 544 3500 
L 1119 3500 
L 1119 1403 
Q 1119 906 1312 657 
Q 1506 409 1894 409 
Q 2359 409 2629 706 
Q 2900 1003 2900 1516 
L 2900 3500 
L 3475 3500 
L 3475 0 
L 2900 0 
L 2900 538 
Q 2691 219 2414 64 
Q 2138 -91 1772 -91 
Q 1169 -91 856 284 
Q 544 659 544 1381 
z
M 1991 3584 
L 1991 3584 
z
" transform="scale(0.015625)"/>
      </defs>
      <use xlink:href="#DejaVuSans-4d"/>
      <use xlink:href="#DejaVuSans-65" x="86.279297"/>
      <use xlink:href="#DejaVuSans-61" x="147.802734"/>
      <use xlink:href="#DejaVuSans-73" x="209.082031"/>
      <use xlink:href="#DejaVuSans-75" x="261.181641"/>
      <use xlink:href="#DejaVuSans-72" x="324.560547"/>
      <use xlink:href="#DejaVuSans-65" x="363.423828"/>
      <use xlink:href="#DejaVuSans-64" x="424.947266"/>
     </g>
    </g>
    <g id="line2d_17">
     <path d="M 81 70.976562 
L 91 70.976562 
L 101 70.976562 
" style="fill: none; stroke: #ff7f0e; stroke-width: 1.5; stroke-linecap: square"/>
    </g>
    <g id="text_15">
     <!-- Fitted -->
     <g transform="translate(109 74.476562) scale(0.1 -0.1)">
      <defs>
       <path id="DejaVuSans-46" d="M 628 4666 
L 3309 4666 
L 3309 4134 
L 1259 4134 
L 1259 2759 
L 3109 2759 
L 3109 2228 
L 1259 2228 
L 1259 0 
L 628 0 
L 628 4666 
z
" transform="scale(0.015625)"/>
       <path id="DejaVuSans-74" d="M 1172 4494 
L 1172 3500 
L 2356 3500 
L 2356 3053 
L 1172 3053 
L 1172 1153 
Q 1172 725 1289 603 
Q 1406 481 1766 481 
L 2356 481 
L 2356 0 
L 1766 0 
Q 1100 0 847 248 
Q 594 497 594 1153 
L 594 3053 
L 172 3053 
L 172 3500 
L 594 3500 
L 594 4494 
L 1172 4494 
z
" transform="scale(0.015625)"/>
      </defs>
      <use xlink:href="#DejaVuSans-46"/>
      <use xlink:href="#DejaVuSans-69" x="50.269531"/>
      <use xlink:href="#DejaVuSans-74" x="78.052734"/>
      <use xlink:href="#DejaVuSans-74" x="117.261719"/>
      <use xlink:href="#DejaVuSans-65" x="156.470703"/>
      <use xlink:href="#DejaVuSans-64" x="217.994141"/>
     </g>
    </g>
    <g id="line2d_18">
     <path d="M 81 85.654687 
L 91 85.654687 
L 101 85.654687 
" style="fill: none; stroke: #2ca02c; stroke-width: 1.5; stroke-linecap: square"/>
    </g>
    <g id="text_16">
     <!-- Estimated -->
     <g transform="translate(109 89.154687) scale(0.1 -0.1)">
      <defs>
       <path id="DejaVuSans-45" d="M 628 4666 
L 3578 4666 
L 3578 4134 
L 1259 4134 
L 1259 2753 
L 3481 2753 
L 3481 2222 
L 1259 2222 
L 1259 531 
L 3634 531 
L 3634 0 
L 628 0 
L 628 4666 
z
" transform="scale(0.015625)"/>
      </defs>
      <use xlink:href="#DejaVuSans-45"/>
      <use xlink:href="#DejaVuSans-73" x="63.183594"/>
      <use xlink:href="#DejaVuSans-74" x="115.283203"/>
      <use xlink:href="#DejaVuSans-69" x="154.492188"/>
      <use xlink:href="#DejaVuSans-6d" x="182.275391"/>
      <use xlink:href="#DejaVuSans-61" x="279.6875"/>
      <use xlink:href="#DejaVuSans-74" x="340.966797"/>
      <use xlink:href="#DejaVuSans-65" x="380.175781"/>
      <use xlink:href="#DejaVuSans-64" x="441.699219"/>
     </g>
    </g>
   </g>
  </g>
 </g>
 <defs>
  <clipPath id="p34f1bf669c">
   <rect x="72" y="43.2" width="446.4" height="277.2"/>
  </clipPath>
 </defs>
</svg>
