<?xml version="1.0" encoding="utf-8" standalone="no"?>
<!DOCTYPE svg PUBLIC "-//W3C//DTD SVG 1.1//EN"
  "http://www.w3.org/Graphics/SVG/1.1/DTD/svg11.dtd">
<svg xmlns:xlink="http://www.w3.org/1999/xlink" width="576pt" height="360pt" viewBox="0 0 576 360" xmlns="http://www.w3.org/2000/svg" version="1.1">
 <metadata>
  <rdf:RDF xmlns:dc="http://purl.org/dc/elements/1.1/" xmlns:cc="http://creativecommons.org/ns#" xmlns:rdf="http://www.w3.org/1999/02/22-rdf-syntax-ns#">
   <cc:Work>
    <dc:type rdf:resource="http://purl.org/dc/dcmitype/StillImage"/>
    <dc:date>2023-11-26T15:43:20.704896</dc:date>
    <dc:format>image/svg+xml</dc:format>
    <dc:creator>
     <cc:Agent>
      <dc:title>Matplotlib v3.8.1, https://matplotlib.org/</dc:title>
     </cc:Agent>
    </dc:creator>
   </cc:Work>
  </rdf:RDF>
 </metadata>
 <defs>
  <style type="text/css">*{stroke-linejoin: round; stroke-linecap: butt}</style>
 </defs>
 <g id="figure_1">
  <g id="patch_1">
   <path d="M 0 360 
L 576 360 
L 576 0 
L 0 0 
z
" style="fill: #ffffff"/>
  </g>
  <g id="axes_1">
   <g id="patch_2">
    <path d="M 72 320.4 
L 518.4 320.4 
L 518.4 43.2 
L 72 43.2 
z
" style="fill: #ffffff"/>
   </g>
   <g id="matplotlib.axis_1">
    <g id="xtick_1">
     <g id="line2d_1">
      <defs>
       <path id="mc4dea62f83" d="M 0 0 
L 0 3.5 
" style="stroke: #000000; stroke-width: 0.8"/>
      </defs>
      <g>
       <use xlink:href="#mc4dea62f83" x="129.874161" y="320.4" style="stroke: #000000; stroke-width: 0.8"/>
      </g>
     </g>
     <g id="text_1">
      <!-- 2020-05-15 -->
      <g transform="translate(100.816349 334.998438) scale(0.1 -0.1)">
       <defs>
        <path id="DejaVuSans-32" d="M 1228 531 
L 3431 531 
L 3431 0 
L 469 0 
L 469 531 
Q 828 903 1448 1529 
Q 2069 2156 2228 2338 
Q 2531 2678 2651 2914 
Q 2772 3150 2772 3378 
Q 2772 3750 2511 3984 
Q 2250 4219 1831 4219 
Q 1534 4219 1204 4116 
Q 875 4013 500 3803 
L 500 4441 
Q 881 4594 1212 4672 
Q 1544 4750 1819 4750 
Q 2544 4750 2975 4387 
Q 3406 4025 3406 3419 
Q 3406 3131 3298 2873 
Q 3191 2616 2906 2266 
Q 2828 2175 2409 1742 
Q 1991 1309 1228 531 
z
" transform="scale(0.015625)"/>
        <path id="DejaVuSans-30" d="M 2034 4250 
Q 1547 4250 1301 3770 
Q 1056 3291 1056 2328 
Q 1056 1369 1301 889 
Q 1547 409 2034 409 
Q 2525 409 2770 889 
Q 3016 1369 3016 2328 
Q 3016 3291 2770 3770 
Q 2525 4250 2034 4250 
z
M 2034 4750 
Q 2819 4750 3233 4129 
Q 3647 3509 3647 2328 
Q 3647 1150 3233 529 
Q 2819 -91 2034 -91 
Q 1250 -91 836 529 
Q 422 1150 422 2328 
Q 422 3509 836 4129 
Q 1250 4750 2034 4750 
z
" transform="scale(0.015625)"/>
        <path id="DejaVuSans-2d" d="M 313 2009 
L 1997 2009 
L 1997 1497 
L 313 1497 
L 313 2009 
z
" transform="scale(0.015625)"/>
        <path id="DejaVuSans-35" d="M 691 4666 
L 3169 4666 
L 3169 4134 
L 1269 4134 
L 1269 2991 
Q 1406 3038 1543 3061 
Q 1681 3084 1819 3084 
Q 2600 3084 3056 2656 
Q 3513 2228 3513 1497 
Q 3513 744 3044 326 
Q 2575 -91 1722 -91 
Q 1428 -91 1123 -41 
Q 819 9 494 109 
L 494 744 
Q 775 591 1075 516 
Q 1375 441 1709 441 
Q 2250 441 2565 725 
Q 2881 1009 2881 1497 
Q 2881 1984 2565 2268 
Q 2250 2553 1709 2553 
Q 1456 2553 1204 2497 
Q 953 2441 691 2322 
L 691 4666 
z
" transform="scale(0.015625)"/>
        <path id="DejaVuSans-31" d="M 794 531 
L 1825 531 
L 1825 4091 
L 703 3866 
L 703 4441 
L 1819 4666 
L 2450 4666 
L 2450 531 
L 3481 531 
L 3481 0 
L 794 0 
L 794 531 
z
" transform="scale(0.015625)"/>
       </defs>
       <use xlink:href="#DejaVuSans-32"/>
       <use xlink:href="#DejaVuSans-30" x="63.623047"/>
       <use xlink:href="#DejaVuSans-32" x="127.246094"/>
       <use xlink:href="#DejaVuSans-30" x="190.869141"/>
       <use xlink:href="#DejaVuSans-2d" x="254.492188"/>
       <use xlink:href="#DejaVuSans-30" x="290.576172"/>
       <use xlink:href="#DejaVuSans-35" x="354.199219"/>
       <use xlink:href="#DejaVuSans-2d" x="417.822266"/>
       <use xlink:href="#DejaVuSans-31" x="453.90625"/>
       <use xlink:href="#DejaVuSans-35" x="517.529297"/>
      </g>
     </g>
    </g>
    <g id="xtick_2">
     <g id="line2d_2">
      <g>
       <use xlink:href="#mc4dea62f83" x="212.435902" y="320.4" style="stroke: #000000; stroke-width: 0.8"/>
      </g>
     </g>
     <g id="text_2">
      <!-- 2020-06-01 -->
      <g transform="translate(183.37809 334.998438) scale(0.1 -0.1)">
       <defs>
        <path id="DejaVuSans-36" d="M 2113 2584 
Q 1688 2584 1439 2293 
Q 1191 2003 1191 1497 
Q 1191 994 1439 701 
Q 1688 409 2113 409 
Q 2538 409 2786 701 
Q 3034 994 3034 1497 
Q 3034 2003 2786 2293 
Q 2538 2584 2113 2584 
z
M 3366 4563 
L 3366 3988 
Q 3128 4100 2886 4159 
Q 2644 4219 2406 4219 
Q 1781 4219 1451 3797 
Q 1122 3375 1075 2522 
Q 1259 2794 1537 2939 
Q 1816 3084 2150 3084 
Q 2853 3084 3261 2657 
Q 3669 2231 3669 1497 
Q 3669 778 3244 343 
Q 2819 -91 2113 -91 
Q 1303 -91 875 529 
Q 447 1150 447 2328 
Q 447 3434 972 4092 
Q 1497 4750 2381 4750 
Q 2619 4750 2861 4703 
Q 3103 4656 3366 4563 
z
" transform="scale(0.015625)"/>
       </defs>
       <use xlink:href="#DejaVuSans-32"/>
       <use xlink:href="#DejaVuSans-30" x="63.623047"/>
       <use xlink:href="#DejaVuSans-32" x="127.246094"/>
       <use xlink:href="#DejaVuSans-30" x="190.869141"/>
       <use xlink:href="#DejaVuSans-2d" x="254.492188"/>
       <use xlink:href="#DejaVuSans-30" x="290.576172"/>
       <use xlink:href="#DejaVuSans-36" x="354.199219"/>
       <use xlink:href="#DejaVuSans-2d" x="417.822266"/>
       <use xlink:href="#DejaVuSans-30" x="453.90625"/>
       <use xlink:href="#DejaVuSans-31" x="517.529297"/>
      </g>
     </g>
    </g>
    <g id="xtick_3">
     <g id="line2d_3">
      <g>
       <use xlink:href="#mc4dea62f83" x="280.427924" y="320.4" style="stroke: #000000; stroke-width: 0.8"/>
      </g>
     </g>
     <g id="text_3">
      <!-- 2020-06-15 -->
      <g transform="translate(251.370111 334.998438) scale(0.1 -0.1)">
       <use xlink:href="#DejaVuSans-32"/>
       <use xlink:href="#DejaVuSans-30" x="63.623047"/>
       <use xlink:href="#DejaVuSans-32" x="127.246094"/>
       <use xlink:href="#DejaVuSans-30" x="190.869141"/>
       <use xlink:href="#DejaVuSans-2d" x="254.492188"/>
       <use xlink:href="#DejaVuSans-30" x="290.576172"/>
       <use xlink:href="#DejaVuSans-36" x="354.199219"/>
       <use xlink:href="#DejaVuSans-2d" x="417.822266"/>
       <use xlink:href="#DejaVuSans-31" x="453.90625"/>
       <use xlink:href="#DejaVuSans-35" x="517.529297"/>
      </g>
     </g>
    </g>
    <g id="xtick_4">
     <g id="line2d_4">
      <g>
       <use xlink:href="#mc4dea62f83" x="358.133092" y="320.4" style="stroke: #000000; stroke-width: 0.8"/>
      </g>
     </g>
     <g id="text_4">
      <!-- 2020-07-01 -->
      <g transform="translate(329.075279 334.998438) scale(0.1 -0.1)">
       <defs>
        <path id="DejaVuSans-37" d="M 525 4666 
L 3525 4666 
L 3525 4397 
L 1831 0 
L 1172 0 
L 2766 4134 
L 525 4134 
L 525 4666 
z
" transform="scale(0.015625)"/>
       </defs>
       <use xlink:href="#DejaVuSans-32"/>
       <use xlink:href="#DejaVuSans-30" x="63.623047"/>
       <use xlink:href="#DejaVuSans-32" x="127.246094"/>
       <use xlink:href="#DejaVuSans-30" x="190.869141"/>
       <use xlink:href="#DejaVuSans-2d" x="254.492188"/>
       <use xlink:href="#DejaVuSans-30" x="290.576172"/>
       <use xlink:href="#DejaVuSans-37" x="354.199219"/>
       <use xlink:href="#DejaVuSans-2d" x="417.822266"/>
       <use xlink:href="#DejaVuSans-30" x="453.90625"/>
       <use xlink:href="#DejaVuSans-31" x="517.529297"/>
      </g>
     </g>
    </g>
    <g id="xtick_5">
     <g id="line2d_5">
      <g>
       <use xlink:href="#mc4dea62f83" x="426.125113" y="320.4" style="stroke: #000000; stroke-width: 0.8"/>
      </g>
     </g>
     <g id="text_5">
      <!-- 2020-07-15 -->
      <g transform="translate(397.067301 334.998438) scale(0.1 -0.1)">
       <use xlink:href="#DejaVuSans-32"/>
       <use xlink:href="#DejaVuSans-30" x="63.623047"/>
       <use xlink:href="#DejaVuSans-32" x="127.246094"/>
       <use xlink:href="#DejaVuSans-30" x="190.869141"/>
       <use xlink:href="#DejaVuSans-2d" x="254.492188"/>
       <use xlink:href="#DejaVuSans-30" x="290.576172"/>
       <use xlink:href="#DejaVuSans-37" x="354.199219"/>
       <use xlink:href="#DejaVuSans-2d" x="417.822266"/>
       <use xlink:href="#DejaVuSans-31" x="453.90625"/>
       <use xlink:href="#DejaVuSans-35" x="517.529297"/>
      </g>
     </g>
    </g>
    <g id="xtick_6">
     <g id="line2d_6">
      <g>
       <use xlink:href="#mc4dea62f83" x="508.686854" y="320.4" style="stroke: #000000; stroke-width: 0.8"/>
      </g>
     </g>
     <g id="text_6">
      <!-- 2020-08-01 -->
      <g transform="translate(479.629042 334.998438) scale(0.1 -0.1)">
       <defs>
        <path id="DejaVuSans-38" d="M 2034 2216 
Q 1584 2216 1326 1975 
Q 1069 1734 1069 1313 
Q 1069 891 1326 650 
Q 1584 409 2034 409 
Q 2484 409 2743 651 
Q 3003 894 3003 1313 
Q 3003 1734 2745 1975 
Q 2488 2216 2034 2216 
z
M 1403 2484 
Q 997 2584 770 2862 
Q 544 3141 544 3541 
Q 544 4100 942 4425 
Q 1341 4750 2034 4750 
Q 2731 4750 3128 4425 
Q 3525 4100 3525 3541 
Q 3525 3141 3298 2862 
Q 3072 2584 2669 2484 
Q 3125 2378 3379 2068 
Q 3634 1759 3634 1313 
Q 3634 634 3220 271 
Q 2806 -91 2034 -91 
Q 1263 -91 848 271 
Q 434 634 434 1313 
Q 434 1759 690 2068 
Q 947 2378 1403 2484 
z
M 1172 3481 
Q 1172 3119 1398 2916 
Q 1625 2713 2034 2713 
Q 2441 2713 2670 2916 
Q 2900 3119 2900 3481 
Q 2900 3844 2670 4047 
Q 2441 4250 2034 4250 
Q 1625 4250 1398 4047 
Q 1172 3844 1172 3481 
z
" transform="scale(0.015625)"/>
       </defs>
       <use xlink:href="#DejaVuSans-32"/>
       <use xlink:href="#DejaVuSans-30" x="63.623047"/>
       <use xlink:href="#DejaVuSans-32" x="127.246094"/>
       <use xlink:href="#DejaVuSans-30" x="190.869141"/>
       <use xlink:href="#DejaVuSans-2d" x="254.492188"/>
       <use xlink:href="#DejaVuSans-30" x="290.576172"/>
       <use xlink:href="#DejaVuSans-38" x="354.199219"/>
       <use xlink:href="#DejaVuSans-2d" x="417.822266"/>
       <use xlink:href="#DejaVuSans-30" x="453.90625"/>
       <use xlink:href="#DejaVuSans-31" x="517.529297"/>
      </g>
     </g>
    </g>
   </g>
   <g id="matplotlib.axis_2">
    <g id="ytick_1">
     <g id="line2d_7">
      <defs>
       <path id="m2d8529acbd" d="M 0 0 
L -3.5 0 
" style="stroke: #000000; stroke-width: 0.8"/>
      </defs>
      <g>
       <use xlink:href="#m2d8529acbd" x="72" y="315.391881" style="stroke: #000000; stroke-width: 0.8"/>
      </g>
     </g>
     <g id="text_7">
      <!-- −2 -->
      <g transform="translate(50.257812 319.191099) scale(0.1 -0.1)">
       <defs>
        <path id="DejaVuSans-2212" d="M 678 2272 
L 4684 2272 
L 4684 1741 
L 678 1741 
L 678 2272 
z
" transform="scale(0.015625)"/>
       </defs>
       <use xlink:href="#DejaVuSans-2212"/>
       <use xlink:href="#DejaVuSans-32" x="83.789062"/>
      </g>
     </g>
    </g>
    <g id="ytick_2">
     <g id="line2d_8">
      <g>
       <use xlink:href="#m2d8529acbd" x="72" y="265.7659" style="stroke: #000000; stroke-width: 0.8"/>
      </g>
     </g>
     <g id="text_8">
      <!-- −1 -->
      <g transform="translate(50.257812 269.565119) scale(0.1 -0.1)">
       <use xlink:href="#DejaVuSans-2212"/>
       <use xlink:href="#DejaVuSans-31" x="83.789062"/>
      </g>
     </g>
    </g>
    <g id="ytick_3">
     <g id="line2d_9">
      <g>
       <use xlink:href="#m2d8529acbd" x="72" y="216.13992" style="stroke: #000000; stroke-width: 0.8"/>
      </g>
     </g>
     <g id="text_9">
      <!-- 0 -->
      <g transform="translate(58.6375 219.939138) scale(0.1 -0.1)">
       <use xlink:href="#DejaVuSans-30"/>
      </g>
     </g>
    </g>
    <g id="ytick_4">
     <g id="line2d_10">
      <g>
       <use xlink:href="#m2d8529acbd" x="72" y="166.513939" style="stroke: #000000; stroke-width: 0.8"/>
      </g>
     </g>
     <g id="text_10">
      <!-- 1 -->
      <g transform="translate(58.6375 170.313158) scale(0.1 -0.1)">
       <use xlink:href="#DejaVuSans-31"/>
      </g>
     </g>
    </g>
    <g id="ytick_5">
     <g id="line2d_11">
      <g>
       <use xlink:href="#m2d8529acbd" x="72" y="116.887958" style="stroke: #000000; stroke-width: 0.8"/>
      </g>
     </g>
     <g id="text_11">
      <!-- 2 -->
      <g transform="translate(58.6375 120.687177) scale(0.1 -0.1)">
       <use xlink:href="#DejaVuSans-32"/>
      </g>
     </g>
    </g>
    <g id="ytick_6">
     <g id="line2d_12">
      <g>
       <use xlink:href="#m2d8529acbd" x="72" y="67.261978" style="stroke: #000000; stroke-width: 0.8"/>
      </g>
     </g>
     <g id="text_12">
      <!-- 3 -->
      <g transform="translate(58.6375 71.061197) scale(0.1 -0.1)">
       <defs>
        <path id="DejaVuSans-33" d="M 2597 2516 
Q 3050 2419 3304 2112 
Q 3559 1806 3559 1356 
Q 3559 666 3084 287 
Q 2609 -91 1734 -91 
Q 1441 -91 1130 -33 
Q 819 25 488 141 
L 488 750 
Q 750 597 1062 519 
Q 1375 441 1716 441 
Q 2309 441 2620 675 
Q 2931 909 2931 1356 
Q 2931 1769 2642 2001 
Q 2353 2234 1838 2234 
L 1294 2234 
L 1294 2753 
L 1863 2753 
Q 2328 2753 2575 2939 
Q 2822 3125 2822 3475 
Q 2822 3834 2567 4026 
Q 2313 4219 1838 4219 
Q 1578 4219 1281 4162 
Q 984 4106 628 3988 
L 628 4550 
Q 988 4650 1302 4700 
Q 1616 4750 1894 4750 
Q 2613 4750 3031 4423 
Q 3450 4097 3450 3541 
Q 3450 3153 3228 2886 
Q 3006 2619 2597 2516 
z
" transform="scale(0.015625)"/>
       </defs>
       <use xlink:href="#DejaVuSans-33"/>
      </g>
     </g>
    </g>
   </g>
   <g id="line2d_13">
    <path d="M 72 288.616514 
L 72.404714 299.133349 
L 72.607072 297.536348 
L 72.809429 287.642733 
L 73.214143 258.974619 
L 73.618858 247.445052 
L 75.035358 170.51635 
L 75.237715 167.770288 
L 75.440073 172.463912 
L 75.64243 180.07888 
L 75.844787 183.136552 
L 76.047144 197.275853 
L 76.654216 262.44128 
L 77.05893 284.760341 
L 77.261287 288.81127 
L 77.463645 288.460709 
L 77.666002 278.528142 
L 78.070716 252.099725 
L 78.475431 240.531206 
L 78.677788 232.059311 
L 79.487217 179.202477 
L 79.891931 164.108871 
L 80.094288 165.920104 
L 80.903717 205.260857 
L 81.713146 275.139384 
L 82.11786 288.733367 
L 82.320218 290.622503 
L 82.522575 290.349844 
L 82.724932 288.012769 
L 82.927289 281.683193 
L 83.332004 260.357388 
L 83.736718 247.075015 
L 83.939075 244.25105 
L 84.141432 244.504233 
L 84.546147 250.444297 
L 84.748504 252.391859 
L 84.950861 252.411335 
L 85.355576 256.306459 
L 85.557933 253.209835 
L 85.76029 258.896717 
L 86.569719 300.613496 
L 86.772076 306.261426 
L 86.974433 307.741573 
L 87.176791 307.8 
L 87.379148 306.55356 
L 87.581505 303.0869 
L 87.783862 296.81575 
L 88.188577 276.346873 
L 88.390934 271.536394 
L 89.200363 264.03828 
L 89.40272 260.201583 
L 89.807434 246.471271 
L 90.212149 244.192623 
L 90.414506 241.680268 
L 90.616863 249.061528 
L 91.223935 296.01725 
L 91.628649 306.261426 
L 91.831006 306.319853 
L 92.033364 304.002254 
L 92.842792 261.155889 
L 93.04515 259.169375 
L 93.449864 251.184371 
L 93.652221 250.69748 
L 93.854578 247.970893 
L 94.056936 247.386625 
L 94.259293 244.952172 
L 94.46165 239.012108 
L 94.664007 236.363423 
L 94.866364 237.220351 
L 95.068722 240.141694 
L 95.271079 236.577655 
L 95.473436 245.964904 
L 96.080508 296.367811 
L 96.485222 304.917608 
L 96.687579 306.68989 
L 96.889937 302.658436 
L 97.699365 260.474242 
L 98.306437 250.716956 
L 98.508794 250.366395 
L 99.52058 230.657067 
L 99.722937 231.825604 
L 99.925295 235.876533 
L 100.127652 234.182154 
L 100.330009 243.608354 
L 100.937081 294.069687 
L 101.341795 305.462926 
L 101.544152 306.37828 
L 101.74651 302.931095 
L 101.948867 291.829991 
L 102.353581 263.940902 
L 102.555938 262.499706 
L 103.567724 245.98438 
L 104.377153 225.457076 
L 104.57951 226.645089 
L 104.781868 231.650323 
L 104.984225 231.630848 
L 105.186582 239.888511 
L 105.793654 291.148344 
L 106.198368 302.989522 
L 106.400725 304.625474 
L 106.603083 300.886155 
L 107.412511 258.234545 
L 107.614869 256.637545 
L 107.817226 253.229311 
L 108.22194 239.732706 
L 108.626655 219.575438 
L 108.829012 214.063838 
L 109.031369 212.311032 
L 109.638441 220.373939 
L 109.840798 225.418125 
L 110.043155 235.078032 
L 110.650227 286.201537 
L 111.054941 299.444959 
L 111.257298 301.21724 
L 111.459655 299.600764 
L 111.662013 289.006026 
L 112.066727 261.837535 
L 112.471442 247.912466 
L 113.887942 184.382992 
L 114.090299 182.182247 
L 114.292656 188.511824 
L 114.495014 199.126037 
L 114.697371 203.391198 
L 115.102085 234.980654 
L 115.709157 280.826265 
L 116.113871 293.777553 
L 116.316228 293.933358 
L 116.518586 292.394784 
L 116.720943 289.025502 
L 117.125657 263.72667 
L 118.542158 166.523848 
L 118.744515 157.136599 
L 118.946872 153.533609 
L 119.149229 156.941842 
L 119.756301 192.114813 
L 120.56573 265.810562 
L 120.970444 284.215023 
L 121.172801 288.012769 
L 121.375159 289.531868 
L 121.577516 288.18805 
L 121.779873 280.826265 
L 122.589302 233.461556 
L 123.196374 209.818153 
L 123.398731 205.572467 
L 123.601088 205.767223 
L 123.803445 205.241382 
L 124.410517 217.686303 
L 124.612874 227.872053 
L 125.219946 280.144619 
L 125.62466 293.641224 
L 125.827017 295.491408 
L 126.029374 293.134858 
L 127.04116 240.764914 
L 127.648232 206.020406 
L 128.255304 166.660177 
L 128.457661 159.648954 
L 128.660018 159.337344 
L 129.26709 200.508806 
L 130.278876 284.877194 
L 130.481233 292.141601 
L 130.68359 293.426992 
L 130.885947 291.031491 
L 132.504805 189.875117 
L 133.111877 150.242229 
L 133.314234 141.497675 
L 133.516591 143.075201 
L 133.921306 157.35083 
L 134.123663 164.2452 
L 135.135449 266.297452 
L 135.540163 278.021776 
L 135.74252 277.145373 
L 135.944878 267.310185 
L 136.349592 238.135705 
L 136.551949 231.845079 
L 136.754306 220.821878 
L 136.956664 225.067563 
L 137.159021 214.570204 
L 137.766092 206.370968 
L 137.96845 206.741004 
L 138.373164 201.716294 
L 138.777879 208.727518 
L 138.980236 209.506543 
L 139.182593 220.471317 
L 139.789665 273.074968 
L 140.194379 287.350598 
L 140.396736 289.278685 
L 140.599093 286.474195 
L 141.003808 258.409826 
L 141.408522 238.739449 
L 142.015594 226.294528 
L 142.622665 217.803157 
L 142.825023 217.549974 
L 143.02738 216.420388 
L 143.229737 217.063083 
L 143.634451 221.97094 
L 143.836809 220.821878 
L 144.039166 230.28703 
L 144.646238 276.132641 
L 145.050952 287.370074 
L 145.253309 288.577562 
L 145.455666 285.656219 
L 145.860381 258.098216 
L 146.062738 242.809854 
L 146.66981 227.502016 
L 146.872167 225.009137 
L 147.074524 223.996404 
L 147.479238 213.674325 
L 147.681596 221.542476 
L 147.883953 222.45783 
L 148.08631 224.892283 
L 148.491024 233.558934 
L 148.693382 232.293019 
L 149.098096 254.280994 
L 149.502811 280.475704 
L 149.907525 292.686918 
L 150.109882 294.615005 
L 150.312239 294.069687 
L 150.514597 291.421003 
L 150.716954 286.065207 
L 151.121668 266.472733 
L 151.526383 247.23082 
L 151.931097 241.777646 
L 152.133454 241.368658 
L 152.335811 243.218842 
L 152.538169 243.705732 
L 152.740526 241.777646 
L 152.942883 242.050305 
L 153.14524 241.134951 
L 153.347597 241.173902 
L 153.549955 238.427839 
L 153.752312 240.492255 
L 154.764098 288.830745 
L 154.966455 292.550589 
L 155.168812 293.855456 
L 155.573527 290.155088 
L 155.775884 279.755106 
L 156.78767 206.546248 
L 157.799456 166.504372 
L 158.001813 168.393507 
L 158.406528 180.799478 
L 158.608885 193.536534 
L 159.215956 258.020314 
L 159.620671 278.31391 
L 159.823028 281.332632 
L 160.025385 280.475704 
L 160.227743 271.263736 
L 160.632457 240.764914 
L 161.8466 193.497582 
L 162.251315 184.051906 
L 162.453672 184.188236 
L 162.656029 186.875871 
L 163.465458 216.770949 
L 164.072529 273.016542 
L 164.477244 290.505649 
L 164.679601 290.817259 
L 164.881958 287.779062 
L 165.084316 278.236008 
L 165.48903 248.379881 
L 166.500816 215.407656 
L 167.310245 175.073645 
L 167.512602 178.228696 
L 167.917316 197.567987 
L 168.119674 201.755246 
L 168.322031 212.427886 
L 168.929102 268.26449 
L 169.333817 282.54012 
L 169.536174 285.850976 
L 169.738531 282.403791 
L 170.143246 256.754398 
L 170.54796 228.261565 
L 171.357389 186.369505 
L 171.559746 180.7021 
L 172.166818 157.954575 
L 172.369175 159.473673 
L 172.571532 166.91336 
L 173.178604 203.547003 
L 173.785675 270.367857 
L 174.19039 288.597038 
L 174.392747 291.401527 
L 174.595104 289.687673 
L 174.999819 266.940148 
L 175.404533 243.433074 
L 177.023391 169.873655 
L 177.225748 170.360545 
L 177.428105 174.041437 
L 177.630462 189.64141 
L 177.83282 191.939533 
L 178.237534 233.422605 
L 178.642248 273.776091 
L 179.046963 291.829991 
L 179.24932 295.335603 
L 179.451677 292.959577 
L 179.654034 284.779816 
L 180.261106 247.289247 
L 181.879964 156.06544 
L 182.082321 152.988291 
L 182.284678 158.324611 
L 183.094107 211.337251 
L 183.498821 248.048796 
L 183.903536 268.245014 
L 184.30825 275.626275 
L 184.510607 276.911666 
L 184.712965 273.483956 
L 184.915322 260.88323 
L 185.724751 183.662394 
L 186.129465 163.524602 
L 186.331822 157.818245 
L 186.53418 157.097647 
L 186.736537 159.493149 
L 187.748323 197.587463 
L 188.557752 258.059265 
L 188.962466 271.419541 
L 189.164823 273.347627 
L 189.36718 273.42553 
L 189.569538 272.724407 
L 189.771895 262.558133 
L 190.986038 172.093875 
L 191.188395 167.088641 
L 191.390752 167.04969 
L 191.795467 175.677389 
L 192.604896 205.20243 
L 193.414325 264.934159 
L 193.819039 277.865971 
L 194.021396 278.878703 
L 194.426111 275.139384 
L 194.628468 266.686965 
L 195.437897 209.214408 
L 195.640254 204.481832 
L 195.842611 205.630894 
L 196.247325 211.356727 
L 196.449683 211.902044 
L 196.65204 211.532007 
L 197.056754 219.283304 
L 197.259112 220.081805 
L 197.461469 228.027858 
L 198.06854 273.678713 
L 198.473255 287.07794 
L 198.675612 287.175318 
L 198.877969 283.728133 
L 199.282684 254.651031 
L 199.687398 233.091519 
L 201.306256 170.360545 
L 201.508613 169.26991 
L 202.115684 187.401713 
L 202.318042 197.938024 
L 202.925113 258.468253 
L 203.329828 275.139384 
L 203.532185 277.125897 
L 203.734542 274.301932 
L 203.936899 263.415061 
L 204.341614 231.299762 
L 205.758114 179.650416 
L 205.960471 177.293866 
L 206.162829 177.430195 
L 206.365186 178.774013 
L 206.7699 189.972495 
L 206.972257 192.991216 
L 207.174615 203.235393 
L 207.781686 259.033046 
L 208.186401 274.301932 
L 208.388758 277.184324 
L 208.591115 274.029274 
L 208.793472 262.811316 
L 209.198187 230.871298 
L 209.805258 209.818153 
L 210.209973 191.024179 
L 210.817044 151.624998 
L 211.019402 143.601042 
L 211.221759 146.405532 
L 211.626473 169.542569 
L 211.82883 174.469901 
L 212.031188 188.39497 
L 212.638259 249.879504 
L 213.042974 267.446514 
L 213.245331 271.224784 
L 213.447688 269.608308 
L 213.650045 259.480985 
L 214.257117 218.582182 
L 214.661831 193.672863 
L 215.47126 137.5636 
L 215.875975 121.749396 
L 216.078332 121.301457 
L 216.280689 126.540399 
L 217.090118 186.83692 
L 217.697189 245.380636 
L 218.101904 262.830792 
L 218.304261 266.005318 
L 218.506618 267.290709 
L 218.708976 266.102696 
L 218.911333 254.066763 
L 219.518404 202.261612 
L 220.125476 168.977776 
L 220.327833 166.932836 
L 220.53019 169.036203 
L 221.541976 209.039128 
L 221.744334 213.908033 
L 222.553762 267.699697 
L 222.958477 277.982825 
L 223.160834 279.599301 
L 223.363191 279.930387 
L 223.565549 278.45024 
L 223.767906 270.212052 
L 224.374977 234.084776 
L 224.779692 226.917747 
L 225.386763 228.865309 
L 225.589121 232.195641 
L 225.791478 233.033092 
L 226.196192 240.95967 
L 226.398549 240.628584 
L 226.600907 246.704978 
L 227.410335 297.400019 
L 227.612693 301.21724 
L 227.81505 302.814241 
L 228.017407 299.79552 
L 228.826836 259.519936 
L 229.029193 257.319191 
L 229.23155 251.885493 
L 230.648051 191.920057 
L 230.850408 192.465374 
L 231.255122 206.098309 
L 231.45748 216.400912 
L 232.064551 276.619531 
L 232.469266 292.862199 
L 232.671623 295.432981 
L 232.87398 294.283919 
L 233.278694 270.367857 
L 233.683409 249.061528 
L 235.302267 187.985982 
L 235.504624 187.421189 
L 236.111695 205.494565 
L 236.314053 215.290802 
L 236.921124 274.048749 
L 237.325839 289.064453 
L 237.528196 292.024747 
L 237.730553 290.018758 
L 238.135267 267.368612 
L 238.539982 246.763405 
L 239.349411 217.511023 
L 239.754125 208.045871 
L 240.15884 198.385963 
L 240.361197 198.152256 
L 240.563554 203.313295 
L 240.968268 219.964951 
L 241.170626 227.131979 
L 241.777697 279.657728 
L 242.182412 294.653956 
L 242.384769 297.010506 
L 242.587126 294.186541 
L 242.99184 270.815796 
L 243.396555 253.833055 
L 245.21777 183.23393 
L 245.420127 187.245908 
L 246.027199 212.583691 
L 246.836627 282.072705 
L 247.038985 289.979807 
L 247.241342 292.979053 
L 247.443699 290.583551 
L 247.848413 268.303441 
L 249.467271 162.395016 
L 249.669628 154.760573 
L 249.871985 152.929865 
L 250.074343 153.08567 
L 250.2767 159.648954 
L 250.883772 190.011446 
L 251.6932 260.902705 
L 252.097915 274.633018 
L 252.300272 277.534886 
L 252.502629 277.788069 
L 252.704986 274.126652 
L 253.109701 243.160415 
L 253.91913 173.944059 
L 254.323844 159.006258 
L 254.728558 150.670693 
L 254.930916 149.48268 
L 255.133273 156.571806 
L 255.740345 191.99796 
L 256.549773 263.103451 
L 256.954488 277.729642 
L 257.156845 281.332632 
L 257.359202 282.910157 
L 257.561559 281.994803 
L 257.966274 254.689982 
L 258.573345 207.052614 
L 258.97806 186.564261 
L 259.382774 176.144804 
L 259.585131 172.892376 
L 259.787489 172.483388 
L 259.989846 174.956792 
L 260.39456 190.069873 
L 260.596917 202.690075 
L 261.203989 261.292218 
L 261.608704 278.976081 
L 261.811061 281.74162 
L 262.013418 281.001546 
L 262.418132 258.351399 
L 262.62049 246.997112 
L 263.025204 237.863046 
L 263.227561 235.214362 
L 263.429918 234.260056 
L 263.834633 235.467545 
L 264.03699 235.175411 
L 264.239347 236.071289 
L 264.441704 236.149192 
L 264.644062 235.896009 
L 264.846419 237.824095 
L 265.048776 241.641317 
L 265.251133 241.641317 
L 265.45349 245.439063 
L 266.060562 285.578317 
L 266.465277 297.711629 
L 266.667634 299.1723 
L 266.869991 295.218749 
L 267.072348 287.701159 
L 267.477063 262.655511 
L 268.084134 241.699744 
L 268.488849 231.981409 
L 269.09592 221.34772 
L 269.500635 217.608401 
L 269.702992 219.672817 
L 269.905349 223.08105 
L 270.107706 223.723746 
L 270.310063 229.683286 
L 270.917135 275.859982 
L 271.32185 287.175318 
L 271.524207 289.200782 
L 271.726564 287.584306 
L 274.15485 153.767316 
L 274.357208 146.9898 
L 274.559565 150.144851 
L 275.166636 173.924584 
L 275.976065 251.028566 
L 276.38078 262.908694 
L 276.583137 262.246523 
L 276.987851 241.602365 
L 277.392566 214.27807 
L 278.404352 160.447454 
L 278.606709 157.565062 
L 279.011423 145.061714 
L 279.213781 143.542615 
L 279.416138 147.574069 
L 280.023209 187.012201 
L 280.630281 254.456275 
L 281.034995 275.996311 
L 281.237353 280.612034 
L 281.43971 279.151362 
L 281.642067 273.581335 
L 282.249139 234.104251 
L 282.85621 202.300563 
L 283.867996 161.849699 
L 284.070354 160.720113 
L 284.272711 168.432459 
L 285.284497 246.977637 
L 285.689211 277.398556 
L 286.093926 291.343101 
L 286.296283 293.504894 
L 286.49864 291.79104 
L 286.700997 289.006026 
L 287.105712 259.675741 
L 287.712783 210.928263 
L 288.522212 169.854179 
L 288.724569 163.115614 
L 288.926927 161.284906 
L 289.129284 164.673664 
L 289.736355 196.652633 
L 290.545784 262.92817 
L 290.950499 277.379081 
L 291.152856 280.008289 
L 291.355213 280.086192 
L 291.55757 278.683947 
L 291.759927 266.881721 
L 292.771714 173.554547 
L 293.176428 152.754584 
L 293.581142 142.120895 
L 293.7835 140.484943 
L 293.985857 143.815274 
L 294.592928 167.965044 
L 295.402357 246.743929 
L 295.807072 260.649522 
L 296.009429 260.493717 
L 296.414143 241.290755 
L 297.830644 113.452782 
L 298.235358 100.852055 
L 298.437715 98.398127 
L 298.640073 98.65131 
L 298.84243 100.598872 
L 299.044787 108.21384 
L 299.449501 133.765854 
L 300.056573 208.610664 
L 300.461287 232.526726 
L 300.663645 238.233083 
L 300.866002 238.91473 
L 301.068359 232.448824 
L 301.473073 203.975466 
L 302.484859 104.201862 
L 302.687217 93.470795 
L 302.889574 93.568173 
L 303.091931 101.241567 
L 303.496646 109.440804 
L 303.90136 130.532901 
L 304.306074 157.019745 
L 304.913146 222.633111 
L 305.31786 246.666027 
L 305.520218 251.94392 
L 305.722575 250.249541 
L 305.924932 243.491501 
L 306.532004 205.611418 
L 307.54379 139.238503 
L 307.746147 129.55912 
L 307.948504 128.721668 
L 308.757933 159.317868 
L 309.162647 184.032431 
L 309.769719 243.764159 
L 310.174433 262.61656 
L 310.376791 266.784343 
L 310.579148 266.239026 
L 310.983862 244.036818 
L 312.198005 145.392799 
L 312.60272 134.369598 
L 312.805077 130.221291 
L 313.007434 130.747133 
L 313.209791 134.252744 
L 313.816863 160.408503 
L 314.01922 173.379266 
L 314.626292 232.721482 
L 315.031006 252.158152 
L 315.233364 256.501215 
L 315.435721 255.877995 
L 315.840435 238.077278 
L 316.24515 220.334988 
L 316.649864 208.94175 
L 317.054578 194.432412 
L 317.66165 187.304335 
L 317.864007 186.875871 
L 318.066364 186.018944 
L 318.268722 190.459386 
L 318.875793 211.454105 
L 319.685222 267.01805 
L 320.089937 279.131886 
L 320.292294 280.689936 
L 320.697008 273.172346 
L 321.101723 248.301979 
L 322.315866 174.411474 
L 322.72058 164.693139 
L 322.922937 162.492394 
L 323.125295 166.406994 
L 323.732366 192.601704 
L 324.541795 257.59185 
L 324.94651 271.146882 
L 325.148867 273.892944 
L 325.351224 273.951371 
L 325.553581 271.809053 
L 325.755938 260.123681 
L 326.970082 153.533609 
L 327.172439 147.535118 
L 327.374796 146.035495 
L 327.77951 140.757602 
L 327.981868 145.490177 
L 328.184225 153.825743 
L 328.791296 202.806929 
L 329.196011 244.270525 
L 329.398368 258.721436 
L 329.803083 268.303441 
L 330.00544 267.407563 
L 330.207797 262.090718 
L 330.814869 216.089302 
L 331.42194 179.845172 
L 331.826655 158.344087 
L 332.029012 155.598025 
L 332.231369 155.6175 
L 332.433726 155.792781 
L 332.636083 157.779294 
L 332.838441 162.083406 
L 333.243155 183.818199 
L 333.445512 192.367996 
L 334.052584 254.689982 
L 334.457298 275.353616 
L 334.659655 280.49518 
L 334.862013 278.216532 
L 335.266727 259.403083 
L 335.671442 236.304997 
L 336.48087 198.269109 
L 336.683228 193.458631 
L 336.885585 192.406948 
L 337.087942 186.544786 
L 337.290299 184.79198 
L 337.695014 190.9268 
L 338.099728 204.637637 
L 338.302085 210.207665 
L 339.111514 272.627029 
L 339.313871 278.508667 
L 339.516228 280.631509 
L 339.718586 276.775336 
L 340.1233 254.631556 
L 340.932729 212.466837 
L 342.349229 153.903646 
L 342.551587 153.825743 
L 343.158658 177.235439 
L 343.76573 236.752936 
L 344.170444 253.833055 
L 344.372801 258.351399 
L 344.575159 256.325935 
L 344.777516 249.76265 
L 345.18223 220.471317 
L 346.194016 142.101419 
L 346.598731 128.098448 
L 347.003445 121.827298 
L 347.205802 121.028798 
L 347.40816 124.047519 
L 347.610517 131.487206 
L 348.015231 156.24072 
L 348.82466 242.654049 
L 349.229374 258.877241 
L 349.431732 258.156643 
L 349.634089 252.664518 
L 349.836446 242.108732 
L 351.050589 143.075201 
L 351.455304 125.663996 
L 351.860018 117.270003 
L 352.062375 116.413076 
L 352.264733 119.860261 
L 352.46709 130.377096 
L 353.276519 209.175457 
L 353.681233 245.146928 
L 354.085947 264.291463 
L 354.288305 269.296698 
L 354.490662 269.842015 
L 354.693019 267.719173 
L 355.097733 227.852577 
L 355.704805 157.837721 
L 356.109519 134.408549 
L 356.716591 117.153149 
L 356.918948 116.120942 
L 357.121306 120.678237 
L 357.52602 144.983811 
L 357.728377 157.019745 
L 358.740163 247.581381 
L 359.144878 259.889973 
L 359.347235 261.662255 
L 359.549592 261.350645 
L 359.751949 248.068271 
L 360.763735 133.649 
L 361.16845 115.556149 
L 361.573164 105.019838 
L 361.775521 102.838568 
L 361.977879 105.954668 
L 362.180236 112.595854 
L 362.58495 137.057234 
L 363.394379 221.250342 
L 363.799093 237.999376 
L 364.001451 238.7784 
L 364.203808 233.188897 
L 364.406165 223.645843 
L 365.013237 157.623489 
L 365.620308 96.353187 
L 366.025023 81.006398 
L 366.429737 75.144236 
L 366.632094 75.611651 
L 366.834451 78.124006 
L 367.036809 86.401144 
L 367.441523 114.114953 
L 368.048595 189.719312 
L 368.453309 218.699036 
L 368.655666 226.800894 
L 368.858024 229.060066 
L 369.060381 225.359698 
L 369.262738 215.991924 
L 369.86981 155.656451 
L 370.476881 100.404116 
L 370.881596 84.609387 
L 371.083953 84.180924 
L 371.28631 84.86257 
L 371.488667 88.60189 
L 371.691024 94.522478 
L 372.298096 131.565109 
L 373.107525 212.349983 
L 373.512239 233.481032 
L 373.714597 237.629339 
L 374.119311 236.967168 
L 374.321668 224.853332 
L 375.333454 126.150886 
L 375.738169 113.55016 
L 375.940526 110.979378 
L 376.142883 109.927694 
L 376.34524 114.855026 
L 376.749955 139.803296 
L 377.559383 195.815181 
L 377.964098 228.767931 
L 378.368812 241.8945 
L 378.57117 242.108732 
L 378.773527 236.460802 
L 378.975884 225.788161 
L 380.392384 114.835551 
L 380.797099 105.389875 
L 381.201813 98.164419 
L 381.40417 101.747934 
L 382.011242 136.979331 
L 382.820671 215.836119 
L 383.225385 231.163433 
L 383.427743 231.786653 
L 383.6301 226.703516 
L 384.034814 205.533516 
L 385.0466 135.635513 
L 385.451315 119.743407 
L 385.653672 119.295468 
L 385.856029 122.898458 
L 386.058386 130.162864 
L 387.070172 196.788962 
L 387.474887 234.980654 
L 387.879601 255.819568 
L 388.284316 264.525171 
L 388.68903 266.920672 
L 388.891387 261.448023 
L 389.700816 219.984426 
L 390.307888 209.311786 
L 390.914959 197.178475 
L 391.117316 201.73577 
L 391.926745 239.421096 
L 392.533817 281.507912 
L 392.938531 293.290663 
L 393.140888 295.062944 
L 393.343246 294.63448 
L 393.545603 295.08242 
L 393.74796 286.552098 
L 394.355032 247.347673 
L 395.569175 193.556009 
L 395.771532 187.830177 
L 395.973889 188.979238 
L 396.176247 196.905816 
L 396.783318 236.947692 
L 397.188033 273.639761 
L 397.592747 290.622503 
L 397.795104 293.271187 
L 397.997461 290.85621 
L 398.402176 273.581335 
L 400.628105 152.01451 
L 400.830462 154.721622 
L 401.03282 164.206249 
L 401.639891 218.543231 
L 402.044606 260.785852 
L 402.44932 280.144619 
L 402.651677 283.96184 
L 402.854034 282.384315 
L 403.258749 265.051013 
L 403.663463 237.9799 
L 404.877607 136.959856 
L 405.282321 117.406333 
L 405.484678 113.394355 
L 405.687035 114.426563 
L 405.889393 124.437032 
L 406.294107 160.038466 
L 406.901179 233.792642 
L 407.305893 256.715447 
L 407.50825 262.051767 
L 407.710607 261.545401 
L 408.115322 241.310231 
L 409.73418 115.28349 
L 409.936537 110.589865 
L 410.138894 110.453536 
L 410.341251 114.835551 
L 410.948323 149.229497 
L 411.15068 164.38153 
L 411.757752 231.630848 
L 412.162466 254.553653 
L 412.364823 260.727425 
L 412.56718 262.421804 
L 412.971895 245.224831 
L 414.388395 151.780803 
L 414.79311 138.887942 
L 415.197824 132.53889 
L 415.400181 138.98532 
L 416.20961 198.561244 
L 416.614325 241.641317 
L 417.019039 263.609817 
L 417.221396 267.660746 
L 417.423753 267.134904 
L 417.828468 251.749164 
L 419.244968 158.675173 
L 419.649683 145.723885 
L 419.85204 142.081944 
L 420.054397 143.445237 
L 420.256754 151.683425 
L 421.066183 213.791179 
L 421.673255 266.180599 
L 422.077969 281.468961 
L 422.280326 283.825511 
L 422.482684 283.202291 
L 422.685041 283.046486 
L 423.089755 253.81358 
L 423.899184 188.180738 
L 424.708613 150.826498 
L 424.91097 147.807776 
L 425.113327 151.605522 
L 425.518042 176.417463 
L 425.720399 187.615945 
L 426.529828 258.448777 
L 426.934542 276.074214 
L 427.136899 280.319899 
L 427.339257 281.079448 
L 427.541614 281.29368 
L 427.743971 273.133395 
L 428.148685 234.844325 
L 428.755757 176.125329 
L 429.160471 151.800279 
L 429.565186 143.971079 
L 429.9699 147.690923 
L 430.374615 163.076663 
L 430.576972 174.11934 
L 431.386401 246.198612 
L 431.791115 257.806082 
L 431.993472 255.877995 
L 432.398187 236.616607 
L 433.207616 174.878889 
L 434.017044 108.135937 
L 434.219402 103.500739 
L 435.02883 129.500693 
L 435.433545 153.202523 
L 436.040617 220.7245 
L 436.445331 242.089256 
L 436.647688 246.958161 
L 436.850045 246.315466 
L 437.25476 226.781418 
L 437.659474 193.672863 
L 438.468903 124.008568 
L 438.67126 114.777124 
L 438.873617 115.692478 
L 439.075975 122.431043 
L 439.278332 122.002579 
L 439.480689 124.125422 
L 439.885403 141.711907 
L 440.290118 165.18003 
L 440.897189 234.785898 
L 441.301904 255.936422 
L 441.504261 261.077986 
L 441.706618 261.584352 
L 442.111333 247.620332 
L 442.920762 198.308061 
L 443.527833 165.257932 
L 444.134905 143.69842 
L 444.337262 141.244492 
L 444.539619 147.320886 
L 445.146691 190.030922 
L 445.753762 255.605337 
L 446.158477 275.704177 
L 446.360834 280.397802 
L 446.563191 278.508667 
L 446.967906 260.591096 
L 448.586763 156.532854 
L 448.991478 144.029506 
L 449.193835 141.828761 
L 449.396192 148.138862 
L 450.003264 186.408456 
L 450.812693 262.265999 
L 451.217407 274.866725 
L 451.419764 274.983579 
L 451.824479 258.70196 
L 452.43155 210.928263 
L 453.038622 171.217472 
L 453.443336 155.072183 
L 453.848051 147.61302 
L 454.050408 150.807022 
L 454.252765 160.272174 
L 454.65748 187.187481 
L 454.859837 195.191961 
L 455.669266 256.520691 
L 456.07398 269.355125 
L 456.276337 270.796321 
L 456.478694 268.907186 
L 456.681052 265.966367 
L 456.883409 258.39035 
L 457.288123 232.799385 
L 457.692838 222.418879 
L 457.895195 223.08105 
L 458.299909 228.534224 
L 458.502267 228.397895 
L 458.906981 224.775429 
L 459.109338 225.281795 
L 459.514053 229.215871 
L 459.71641 233.286275 
L 460.728196 287.954343 
L 461.13291 292.141601 
L 461.537625 289.006026 
L 461.739982 280.553607 
L 462.144696 247.873515 
L 463.561197 182.357527 
L 463.763554 175.482633 
L 463.965911 176.592744 
L 464.572983 195.036156 
L 465.382412 258.468253 
L 465.584769 265.012061 
L 465.787126 267.582843 
L 465.989483 265.28472 
L 467.608341 177.644427 
L 468.620127 157.584538 
L 468.822484 160.544832 
L 469.429556 185.395724 
L 470.036627 239.109486 
L 470.441342 255.955898 
L 470.643699 258.448777 
L 470.846056 256.014325 
L 471.857842 207.792688 
L 472.869628 179.14405 
L 473.071985 179.611465 
L 473.274343 177.917086 
L 473.4767 179.105099 
L 473.679057 182.688613 
L 473.881414 188.920812 
L 474.083772 190.011446 
L 474.286129 197.275853 
L 474.8932 246.627076 
L 475.297915 262.012816 
L 475.500272 263.590341 
L 475.702629 261.662255 
L 476.107344 238.583644 
L 476.512058 217.74473 
L 477.321487 187.927555 
L 477.726201 168.841447 
L 477.928558 165.472164 
L 478.333273 169.912606 
L 478.53563 174.138815 
L 479.142702 197.743268 
L 479.952131 261.915438 
L 480.356845 271.24426 
L 480.559202 270.854748 
L 480.963917 249.937931 
L 482.785131 128.371107 
L 482.987489 122.781604 
L 483.189846 120.288724 
L 483.392203 125.625044 
L 483.999275 163.368797 
L 484.606346 230.696018 
L 485.011061 252.683994 
L 485.213418 256.851776 
L 485.415775 257.747655 
L 485.82049 239.031583 
L 486.225204 209.487067 
L 487.23699 124.300702 
L 487.439347 121.379359 
L 487.844062 127.592082 
L 488.248776 145.217519 
L 489.260562 218.621133 
L 489.665277 249.061528 
L 490.069991 263.356634 
L 490.272348 265.576854 
L 490.474705 264.505695 
L 490.677063 262.830792 
L 490.87942 253.618823 
L 491.891206 178.150793 
L 492.29592 161.382284 
L 492.498277 154.390536 
L 492.700635 152.481925 
L 492.902992 154.020499 
L 493.105349 158.577795 
L 493.712421 190.303581 
L 494.52185 258.448777 
L 495.128921 275.743128 
L 495.331278 275.879458 
L 495.533636 275.295189 
L 495.735993 268.147636 
L 496.950136 181.539551 
L 497.557208 158.480416 
L 497.759565 155.30589 
L 497.961922 158.344087 
L 498.568994 188.161262 
L 499.378422 258.020314 
L 499.58078 264.48622 
L 499.783137 266.84277 
L 499.985494 263.707195 
L 500.187851 255.644288 
L 500.794923 220.705024 
L 500.99728 215.875071 
L 501.401995 203.488576 
L 501.806709 192.835411 
L 502.009066 192.406948 
L 502.211423 194.35451 
L 502.413781 194.958254 
L 502.616138 193.380729 
L 503.020852 202.573222 
L 503.223209 203.099063 
L 503.425567 210.207665 
L 504.032638 258.176119 
L 504.437353 270.543138 
L 504.63971 272.081712 
L 504.842067 269.842015 
L 505.246782 246.78288 
L 505.651496 224.249587 
L 507.270354 155.033232 
L 507.472711 152.092413 
L 507.675068 155.30589 
L 508.28214 181.831686 
L 508.889211 236.73346 
L 509.293926 252.937177 
L 509.496283 256.267508 
L 509.69864 254.534178 
L 510.103354 232.254067 
L 511.722212 131.60406 
L 512.126927 114.796599 
L 512.329284 116.296222 
L 512.936355 148.820509 
L 513.34107 185.668383 
L 513.745784 226.800894 
L 514.150499 248.301979 
L 514.352856 253.579872 
L 514.555213 254.047287 
L 514.75757 245.633819 
L 516.174071 154.078926 
L 516.376428 153.046718 
L 516.781142 161.869174 
L 516.9835 159.278917 
L 517.185857 159.785283 
L 517.590571 176.534317 
L 517.792928 180.546295 
L 517.995286 190.673617 
L 518.4 228.203138 
L 518.4 228.203138 
" clip-path="url(#pe41928f6e8)" style="fill: none; stroke: #1f77b4; stroke-width: 1.5; stroke-linecap: square"/>
   </g>
   <g id="line2d_14">
    <path d="M 72 276.373744 
L 72.202357 276.373744 
L 72.809429 281.124052 
L 73.011786 278.448069 
L 73.4165 261.731668 
L 74.225929 226.752175 
L 75.035358 181.311052 
L 75.440073 173.980333 
L 75.64243 176.355244 
L 76.047144 194.373895 
L 76.451859 226.713151 
L 76.856573 260.161824 
L 77.261287 274.993368 
L 77.463645 278.581738 
L 77.666002 277.447351 
L 77.868359 270.48657 
L 78.677788 226.501909 
L 79.082502 212.081889 
L 79.891931 170.861695 
L 80.094288 172.284097 
L 80.70136 194.29248 
L 81.106074 222.333672 
L 81.713146 270.837712 
L 82.11786 285.883133 
L 82.320218 286.483523 
L 82.724932 281.344288 
L 83.129646 271.013745 
L 83.736718 248.523391 
L 83.939075 244.133886 
L 84.34379 240.890793 
L 84.546147 242.845559 
L 84.748504 246.538007 
L 84.950861 246.111189 
L 85.153218 246.329218 
L 85.355576 250.076667 
L 86.367362 284.400413 
L 86.772076 300.040337 
L 86.974433 303.997545 
L 87.176791 303.588225 
L 87.581505 293.01903 
L 87.986219 278.80876 
L 88.390934 263.21437 
L 88.795648 255.812069 
L 88.998005 254.879206 
L 89.200363 255.787713 
L 89.40272 254.703676 
L 89.807434 247.115042 
L 90.009791 243.084282 
L 90.414506 248.000856 
L 90.616863 251.853063 
L 91.021578 268.341401 
L 91.426292 292.785957 
L 91.628649 299.142496 
L 91.831006 301.870722 
L 92.033364 299.584099 
L 92.235721 294.322641 
L 93.247507 247.296458 
L 93.449864 245.76934 
L 93.652221 243.184083 
L 93.854578 244.356036 
L 94.056936 243.104615 
L 94.259293 239.300871 
L 94.46165 238.59254 
L 94.866364 232.896141 
L 95.271079 241.232113 
L 95.473436 245.309132 
L 96.485222 301.043487 
L 96.687579 301.380532 
L 96.889937 297.690349 
L 97.497008 267.31712 
L 97.901723 249.472797 
L 98.10408 247.581101 
L 98.508794 250.150414 
L 98.711151 247.702217 
L 99.318223 232.845992 
L 99.722937 229.782846 
L 99.925295 230.921402 
L 100.330009 241.478547 
L 101.139438 299.625587 
L 101.341795 303.123598 
L 101.544152 302.924836 
L 101.74651 299.353261 
L 102.151224 280.442176 
L 102.555938 259.089548 
L 102.758296 253.457189 
L 102.960653 251.832955 
L 103.16301 252.386444 
L 103.365367 251.450333 
L 103.567724 248.199973 
L 103.972439 236.247894 
L 104.377153 223.635874 
L 104.57951 224.505051 
L 104.781868 227.774792 
L 105.186582 244.03205 
L 105.996011 297.589377 
L 106.198368 301.069156 
L 106.400725 300.647644 
L 106.603083 297.902031 
L 107.007797 279.053169 
L 107.614869 251.373862 
L 107.817226 249.544291 
L 108.019583 249.467923 
L 108.22194 246.730167 
L 109.031369 206.482812 
L 109.233726 207.484437 
L 109.840798 227.179079 
L 110.043155 237.933847 
L 110.650227 284.747107 
L 110.852584 294.987858 
L 111.054941 297.694715 
L 111.257298 296.556453 
L 111.459655 293.901561 
L 111.662013 287.971834 
L 113.887942 186.346825 
L 114.090299 185.137761 
L 114.292656 190.223506 
L 114.697371 209.995477 
L 115.709157 283.439668 
L 116.113871 288.765727 
L 116.316228 288.518786 
L 116.9233 271.163985 
L 117.328015 251.624278 
L 117.935086 211.684833 
L 118.542158 173.288477 
L 118.946872 160.394868 
L 119.149229 161.478539 
L 119.351587 168.96862 
L 119.756301 197.49368 
L 120.363373 254.191018 
L 120.768087 274.661712 
L 121.172801 284.121923 
L 121.375159 281.421644 
L 121.779873 270.880111 
L 123.196374 211.375862 
L 123.398731 204.974148 
L 123.601088 203.024053 
L 123.803445 202.470608 
L 124.005802 204.143899 
L 124.612874 233.208918 
L 125.62466 292.661486 
L 125.827017 295.948165 
L 126.029374 294.785405 
L 126.231732 290.057364 
L 127.04116 244.523799 
L 128.255304 170.797703 
L 128.457661 162.403262 
L 128.660018 159.839119 
L 128.862375 163.834916 
L 129.469447 211.627825 
L 130.076519 272.096789 
L 130.278876 283.238073 
L 130.481233 288.086549 
L 130.68359 288.122482 
L 131.088305 275.621688 
L 131.897733 230.743362 
L 133.314234 148.52731 
L 133.516591 147.863477 
L 133.921306 162.843539 
L 134.32602 189.782518 
L 135.135449 271.572944 
L 135.337806 277.172831 
L 135.540163 278.297812 
L 135.74252 275.950664 
L 136.147235 259.863167 
L 136.754306 221.434209 
L 136.956664 210.110349 
L 137.159021 208.349412 
L 137.361378 205.170508 
L 137.563735 204.785302 
L 137.766092 201.033094 
L 137.96845 200.19414 
L 138.170807 204.593133 
L 138.373164 205.17631 
L 138.575521 207.858554 
L 139.182593 230.164994 
L 140.194379 286.773005 
L 140.396736 287.325211 
L 140.599093 284.307273 
L 141.003808 267.169773 
L 141.813237 223.378544 
L 142.217951 221.266168 
L 142.622665 215.424743 
L 142.825023 213.407759 
L 143.229737 218.795946 
L 143.432094 220.569673 
L 143.836809 231.070807 
L 144.241523 251.963849 
L 144.848595 282.685104 
L 145.050952 285.652987 
L 145.253309 285.741992 
L 145.455666 282.981134 
L 145.860381 264.513603 
L 146.467452 228.390193 
L 146.66981 220.821733 
L 147.074524 222.116883 
L 147.276881 220.83793 
L 147.681596 214.693552 
L 147.883953 217.378907 
L 148.895739 246.292339 
L 149.705168 285.111028 
L 150.109882 288.699552 
L 150.312239 287.813377 
L 150.919311 265.744751 
L 151.72874 241.318381 
L 151.931097 239.822881 
L 152.335811 236.010071 
L 152.538169 239.120863 
L 152.740526 238.86242 
L 152.942883 239.441433 
L 153.954669 261.107063 
L 154.157026 266.61526 
L 154.561741 284.078423 
L 154.966455 292.28038 
L 155.168812 293.546886 
L 155.37117 289.820031 
L 155.978241 267.5429 
L 156.585313 234.287379 
L 156.990027 203.504085 
L 157.799456 175.191106 
L 158.001813 174.301577 
L 158.406528 185.126178 
L 158.811242 212.366844 
L 159.215956 249.663934 
L 159.620671 274.669261 
L 159.823028 281.057764 
L 160.025385 283.320516 
L 160.227743 277.829091 
L 161.239529 216.562457 
L 161.644243 192.600723 
L 162.251315 183.34008 
L 162.453672 183.94011 
L 162.858386 194.255849 
L 163.263101 213.338837 
L 164.072529 265.923073 
L 164.477244 287.889148 
L 164.679601 290.373905 
L 165.084316 279.289851 
L 166.096102 225.647271 
L 166.298459 223.548691 
L 166.500816 222.806117 
L 166.703173 215.34738 
L 167.107888 187.963078 
L 167.310245 180.710035 
L 167.512602 178.057597 
L 167.714959 183.412514 
L 168.524388 237.41872 
L 168.929102 272.114045 
L 169.13146 283.341707 
L 169.333817 287.769168 
L 169.536174 285.892805 
L 169.738531 281.949938 
L 170.143246 265.418573 
L 170.750317 224.095824 
L 171.155032 195.113025 
L 171.964461 160.499023 
L 172.166818 157.53841 
L 172.369175 157.896274 
L 172.773889 179.419941 
L 173.380961 230.172546 
L 173.988033 277.712152 
L 174.19039 283.257193 
L 174.392747 284.709008 
L 174.595104 282.276867 
L 174.999819 263.467883 
L 175.809248 222.642083 
L 177.023391 176.308213 
L 177.225748 175.358052 
L 177.630462 188.124546 
L 178.844606 285.26148 
L 179.046963 290.341113 
L 179.24932 290.846613 
L 179.451677 289.833011 
L 179.856392 273.631279 
L 181.879964 160.814316 
L 182.082321 158.992048 
L 182.284678 162.493171 
L 182.689393 185.926549 
L 183.701179 269.733052 
L 183.903536 275.082964 
L 184.105893 275.333555 
L 184.30825 273.226786 
L 184.712965 261.642237 
L 184.915322 255.853989 
L 185.117679 246.854252 
L 186.331822 154.0322 
L 186.53418 147.972631 
L 186.736537 149.07696 
L 186.938894 153.210958 
L 188.760109 270.570723 
L 188.962466 273.73192 
L 189.164823 274.075886 
L 189.36718 270.366879 
L 189.974252 246.064571 
L 190.986038 173.611744 
L 191.390752 159.101172 
L 191.59311 157.421495 
L 191.795467 163.407056 
L 192.200181 189.301735 
L 192.604896 215.007121 
L 193.819039 278.661437 
L 194.021396 279.112493 
L 194.223753 276.277114 
L 194.628468 264.987175 
L 195.235539 222.224776 
L 195.640254 198.713721 
L 195.842611 191.136722 
L 196.044968 190.183029 
L 196.247325 196.582052 
L 196.65204 213.060763 
L 197.259112 225.894814 
L 197.461469 231.891608 
L 198.473255 284.987451 
L 198.675612 288.323787 
L 198.877969 287.274654 
L 199.080326 282.154716 
L 199.485041 256.879193 
L 199.889755 225.521788 
L 200.901541 183.81112 
L 201.103898 177.430893 
L 201.508613 173.098423 
L 201.71097 175.55847 
L 202.318042 203.915703 
L 203.329828 275.307696 
L 203.532185 277.294449 
L 203.734542 274.333872 
L 204.139257 255.309728 
L 204.948685 208.616525 
L 205.758114 177.985252 
L 205.960471 171.767741 
L 206.162829 172.566308 
L 206.567543 188.458498 
L 206.972257 208.041491 
L 207.174615 215.223606 
L 208.186401 279.012592 
L 208.388758 278.999612 
L 208.591115 275.589689 
L 208.99583 256.505072 
L 209.602901 219.486708 
L 210.007616 203.11199 
L 210.41233 188.015641 
L 211.019402 151.582417 
L 211.221759 147.40731 
L 211.424116 152.819823 
L 212.031188 192.770828 
L 212.840617 264.489295 
L 213.042974 269.625573 
L 213.245331 270.347493 
L 213.447688 268.699957 
L 213.852403 249.702085 
L 214.257117 219.699907 
L 214.459474 210.182659 
L 215.066546 162.343606 
L 215.875975 114.792484 
L 216.078332 114.08388 
L 216.280689 120.732516 
L 216.685403 146.812445 
L 217.899547 253.732425 
L 218.101904 257.328137 
L 218.304261 258.421775 
L 218.506618 253.998728 
L 219.316047 221.725518 
L 220.327833 154.330206 
L 220.53019 150.651335 
L 220.732548 151.574851 
L 220.934905 159.884577 
L 221.744334 216.774986 
L 222.149048 242.674697 
L 222.553762 267.037447 
L 222.958477 277.680431 
L 223.160834 278.687603 
L 223.363191 276.592945 
L 223.767906 263.172255 
L 224.577335 219.878293 
L 224.779692 217.01754 
L 224.982049 216.293272 
L 225.386763 224.508892 
L 225.589121 224.109284 
L 225.791478 226.329255 
L 225.993835 230.255541 
L 227.207978 275.054704 
L 227.612693 293.557653 
L 227.81505 296.002585 
L 228.017407 294.822048 
L 228.219764 290.266988 
L 228.826836 259.070747 
L 229.23155 239.630963 
L 229.636265 237.016136 
L 229.838622 232.230658 
L 230.445694 205.830247 
L 230.648051 200.545623 
L 230.850408 199.662799 
L 231.052765 203.249291 
L 231.45748 217.40114 
L 232.064551 267.971328 
L 232.469266 287.878972 
L 232.671623 289.097413 
L 232.87398 286.81777 
L 233.076337 282.406389 
L 234.088123 234.572461 
L 234.492838 221.191643 
L 234.897552 197.255247 
L 235.302267 188.599165 
L 235.504624 190.693268 
L 235.909338 203.924243 
L 236.51641 237.088886 
L 237.123481 283.588482 
L 237.325839 290.302962 
L 237.528196 290.992523 
L 237.730553 288.407828 
L 237.93291 281.702808 
L 239.147053 223.930537 
L 239.349411 218.674204 
L 239.754125 202.364675 
L 239.956482 197.278354 
L 240.15884 195.495173 
L 240.563554 202.322397 
L 241.170626 234.455548 
L 241.980054 287.792382 
L 242.182412 293.212397 
L 242.384769 293.129113 
L 242.587126 291.720122 
L 242.789483 285.573093 
L 243.801269 235.616562 
L 244.408341 213.591044 
L 244.813055 195.722709 
L 245.015413 189.97495 
L 245.21777 187.66874 
L 245.420127 191.116519 
L 245.824841 211.338973 
L 246.229556 238.746264 
L 246.63427 270.444306 
L 247.038985 286.396424 
L 247.241342 289.108209 
L 247.443699 288.74243 
L 247.646056 282.452066 
L 249.062557 195.584603 
L 249.669628 157.250633 
L 249.871985 152.348227 
L 250.074343 152.207932 
L 250.2767 159.926455 
L 250.883772 202.222549 
L 251.6932 264.409969 
L 251.895558 271.04536 
L 252.097915 273.803212 
L 252.300272 272.987116 
L 252.704986 263.198019 
L 253.109701 247.726714 
L 254.323844 160.506844 
L 254.526201 154.222863 
L 254.728558 151.523548 
L 254.930916 152.36349 
L 255.133273 156.984164 
L 255.537987 182.827114 
L 256.752131 274.317231 
L 256.954488 278.91227 
L 257.156845 280.024509 
L 257.359202 276.495362 
L 257.763917 263.872139 
L 257.966274 254.971606 
L 258.97806 183.457871 
L 259.382774 172.852986 
L 259.585131 171.005646 
L 259.787489 170.244876 
L 259.989846 175.269119 
L 260.596917 209.483582 
L 261.608704 282.861054 
L 261.811061 286.666584 
L 262.013418 286.132179 
L 262.215775 281.199946 
L 262.62049 258.585693 
L 263.227561 219.988247 
L 263.429918 215.44837 
L 263.632276 216.069669 
L 264.03699 225.803092 
L 264.644062 231.638301 
L 264.846419 231.963026 
L 265.048776 235.462704 
L 265.655848 255.429578 
L 266.262919 288.286044 
L 266.465277 293.902259 
L 266.667634 292.669715 
L 266.869991 289.087912 
L 267.274705 274.316793 
L 268.084134 237.864149 
L 268.488849 235.660465 
L 268.691206 232.620056 
L 269.09592 221.353441 
L 269.500635 219.133122 
L 269.702992 220.784767 
L 270.310063 237.087851 
L 270.917135 271.278581 
L 271.32185 287.57476 
L 271.524207 288.752109 
L 271.726564 285.826186 
L 271.928921 279.455017 
L 272.940707 225.774817 
L 274.15485 165.038513 
L 274.357208 160.360917 
L 274.559565 161.886942 
L 274.761922 166.421219 
L 275.166636 185.10342 
L 276.178422 260.281189 
L 276.38078 263.696141 
L 276.583137 264.77489 
L 276.785494 258.999053 
L 277.594923 214.606909 
L 278.201995 175.502062 
L 278.809066 156.875915 
L 279.213781 151.684791 
L 279.416138 156.334269 
L 279.820852 176.705518 
L 281.034995 273.191475 
L 281.237353 277.437584 
L 281.43971 276.76092 
L 281.844424 260.886389 
L 283.463282 175.157374 
L 283.867996 159.335003 
L 284.070354 157.504731 
L 284.272711 161.511124 
L 284.475068 172.75309 
L 285.689211 280.17902 
L 285.891568 289.168557 
L 286.093926 289.463416 
L 286.296283 288.379935 
L 286.700997 274.04303 
L 287.105712 258.166588 
L 288.319855 177.765075 
L 288.724569 160.910461 
L 288.926927 156.757597 
L 289.129284 159.439507 
L 289.331641 168.425312 
L 290.748141 277.207072 
L 290.950499 280.949504 
L 291.152856 280.506026 
L 291.55757 269.381383 
L 291.759927 263.281113 
L 291.962285 253.090972 
L 293.378785 143.130651 
L 293.581142 138.528258 
L 293.7835 137.929695 
L 293.985857 142.057457 
L 294.390571 166.984671 
L 294.795286 194.523058 
L 295.402357 250.858379 
L 295.807072 266.517755 
L 296.009429 267.52139 
L 296.211786 263.951542 
L 296.6165 238.711916 
L 297.830644 115.871563 
L 298.235358 91.632744 
L 298.437715 90.184183 
L 298.640073 93.211467 
L 298.84243 100.239246 
L 299.449501 143.677733 
L 299.854216 189.830863 
L 300.25893 228.911969 
L 300.461287 240.298164 
L 300.663645 244.828422 
L 300.866002 243.588569 
L 301.068359 236.952398 
L 301.473073 211.700356 
L 301.877788 173.671104 
L 302.484859 104.722902 
L 302.889574 83.5814 
L 303.091931 81.191599 
L 303.294288 87.600671 
L 303.699003 113.01546 
L 304.913146 228.863214 
L 305.520218 254.474678 
L 305.722575 254.328414 
L 306.127289 236.095561 
L 306.936718 176.653487 
L 307.341432 148.66483 
L 307.948504 124.739293 
L 308.150861 124.663747 
L 308.555576 143.740199 
L 309.972076 257.204785 
L 310.174433 267.307951 
L 310.376791 270.572734 
L 310.579148 268.517783 
L 310.781505 262.280732 
L 311.388577 221.904624 
L 312.400363 136.4286 
L 312.805077 119.960435 
L 313.007434 122.665292 
L 313.209791 128.08148 
L 313.614506 152.688266 
L 314.626292 233.579354 
L 315.031006 255.933261 
L 315.233364 258.119178 
L 315.435721 254.97693 
L 315.840435 236.906395 
L 316.447507 205.831643 
L 317.054578 183.832796 
L 317.459293 177.565183 
L 317.66165 173.452193 
L 317.864007 173.916495 
L 318.066364 177.233125 
L 318.268722 182.960251 
L 318.875793 213.338073 
L 319.887579 269.225139 
L 320.089937 272.908713 
L 320.292294 273.784151 
L 320.494651 269.634642 
L 321.30408 233.978988 
L 321.708794 211.385528 
L 322.518223 159.269296 
L 322.72058 154.058679 
L 322.922937 152.837299 
L 323.125295 155.687462 
L 323.732366 188.705651 
L 324.137081 225.198254 
L 324.541795 256.009328 
L 324.744152 265.837222 
L 324.94651 268.800929 
L 325.148867 269.804942 
L 325.351224 266.995787 
L 325.958296 243.751836 
L 326.565367 195.307888 
L 326.970082 154.849656 
L 327.374796 132.895111 
L 327.577153 129.995154 
L 327.77951 131.105286 
L 327.981868 134.478815 
L 328.386582 159.810403 
L 328.791296 195.854757 
L 329.196011 237.128157 
L 329.600725 264.297615 
L 329.803083 269.764968 
L 330.00544 271.142859 
L 330.207797 267.073611 
L 330.612511 244.070654 
L 331.624297 157.088106 
L 332.029012 141.726878 
L 332.231369 138.548022 
L 332.433726 140.581611 
L 332.636083 146.178328 
L 333.040798 168.84806 
L 334.457298 275.356408 
L 334.659655 277.851204 
L 334.862013 277.336718 
L 335.06437 271.07898 
L 336.076156 210.472951 
L 336.48087 189.121957 
L 336.885585 174.417445 
L 337.087942 171.724674 
L 337.290299 172.528103 
L 337.492656 176.235519 
L 337.897371 197.622629 
L 338.504442 229.084764 
L 339.111514 275.405681 
L 339.313871 284.612627 
L 339.516228 285.475848 
L 339.718586 282.68592 
L 339.920943 274.55134 
L 341.337443 191.073351 
L 341.742158 171.807188 
L 342.146872 153.516323 
L 342.349229 152.722886 
L 342.551587 155.357546 
L 342.753944 161.719694 
L 343.361015 198.992719 
L 343.76573 237.725642 
L 344.170444 259.841829 
L 344.372801 261.566751 
L 344.575159 260.298523 
L 344.777516 253.39519 
L 345.586945 201.477912 
L 346.194016 137.366456 
L 346.801088 108.313142 
L 347.003445 107.329852 
L 347.205802 109.434568 
L 347.610517 129.327778 
L 348.217588 178.903603 
L 348.622303 225.129725 
L 349.229374 254.268882 
L 349.431732 254.099008 
L 349.634089 247.443373 
L 350.24116 210.79468 
L 350.645875 174.017153 
L 351.050589 135.290403 
L 351.657661 106.886457 
L 351.860018 103.855007 
L 352.062375 104.886417 
L 352.264733 111.695498 
L 352.669447 139.153726 
L 353.88359 256.829079 
L 354.085947 262.137178 
L 354.288305 262.672056 
L 354.490662 258.668124 
L 355.097733 231.83572 
L 355.300091 216.314167 
L 356.109519 123.824485 
L 356.514234 107.860447 
L 356.716591 106.014528 
L 356.918948 107.483014 
L 357.121306 112.070209 
L 357.52602 139.920985 
L 358.740163 253.198762 
L 358.94252 261.672184 
L 359.144878 261.760632 
L 359.347235 257.000764 
L 359.954306 228.767423 
L 360.359021 187.620022 
L 360.763735 133.592516 
L 361.16845 111.285102 
L 361.370807 103.554209 
L 361.573164 101.037074 
L 361.775521 101.613694 
L 361.977879 102.622434 
L 362.382593 129.236697 
L 362.989665 190.999326 
L 363.394379 231.61543 
L 363.799093 249.117371 
L 364.001451 248.754361 
L 364.203808 243.451238 
L 364.608522 222.417262 
L 365.215594 150.226385 
L 365.620308 103.354205 
L 366.025023 81.978209 
L 366.22738 77.345 
L 366.429737 77.33027 
L 366.632094 82.019206 
L 366.834451 90.081554 
L 367.239166 120.049741 
L 367.64388 158.462891 
L 368.048595 210.895353 
L 368.453309 232.505731 
L 368.655666 237.680305 
L 368.858024 235.816938 
L 369.262738 226.954731 
L 369.465095 218.753942 
L 370.072167 160.927451 
L 370.476881 120.236446 
L 370.881596 100.113641 
L 371.083953 94.903326 
L 371.28631 95.727218 
L 371.691024 110.529253 
L 372.095739 142.860845 
L 373.107525 235.851058 
L 373.512239 250.859893 
L 373.714597 252.033722 
L 373.916954 248.466909 
L 374.524025 223.576393 
L 374.726383 212.04838 
L 375.535811 139.159961 
L 375.940526 125.771152 
L 376.142883 126.123159 
L 376.34524 129.285598 
L 376.547597 135.233965 
L 376.952312 171.320418 
L 377.559383 219.702948 
L 378.166455 257.642122 
L 378.368812 262.6498 
L 378.57117 263.083937 
L 378.773527 257.725358 
L 379.178241 233.522387 
L 379.582956 198.810472 
L 380.190027 142.635835 
L 380.594742 126.437327 
L 380.797099 119.940699 
L 380.999456 117.392754 
L 381.201813 116.308321 
L 381.40417 120.7618 
L 381.808885 146.693672 
L 382.820671 232.576472 
L 383.023028 241.857057 
L 383.225385 245.11265 
L 383.427743 243.835634 
L 383.832457 231.499522 
L 384.034814 224.293059 
L 384.237171 211.953958 
L 384.237171 211.953958 
" clip-path="url(#pe41928f6e8)" style="fill: none; stroke: #ff7f0e; stroke-width: 1.5; stroke-linecap: square"/>
   </g>
   <g id="line2d_15">
    <path d="M 384.439529 198.590457 
L 385.248957 177.158207 
L 385.451315 177.130627 
L 385.653672 177.610345 
L 385.856029 179.027588 
L 386.260743 192.068276 
L 387.070172 228.379344 
L 387.474887 248.43194 
L 387.879601 262.656355 
L 388.081958 259.435727 
L 388.486673 246.824176 
L 388.891387 228.160932 
L 390.712602 114.751688 
L 390.914959 108.834319 
L 391.117316 108.928772 
L 391.319674 111.314574 
L 391.724388 127.583375 
L 392.129102 156.080939 
L 392.736174 195.884431 
L 393.140888 206.83938 
L 393.343246 209.286471 
L 393.545603 209.173141 
L 394.355032 182.865508 
L 394.962103 160.658113 
L 395.164461 155.864193 
L 395.366818 155.723851 
L 395.569175 157.593937 
L 395.771532 157.608727 
L 395.973889 159.557606 
L 396.580961 186.558229 
L 396.985675 208.315653 
L 397.39039 219.935806 
L 397.592747 221.363527 
L 397.795104 221.998612 
L 397.997461 220.106278 
L 398.402176 209.995377 
L 398.80689 188.079769 
L 400.425748 90.688653 
L 400.628105 87.923016 
L 400.830462 88.497944 
L 401.03282 95.076365 
L 401.437534 117.892977 
L 402.651677 223.101608 
L 403.056392 233.493844 
L 403.258749 233.838327 
L 403.461106 233.194032 
L 403.86582 230.272186 
L 404.068178 229.801502 
L 404.472892 226.944744 
L 404.675249 225.626874 
L 404.877607 225.471937 
L 405.079964 224.985859 
L 406.09175 215.758146 
L 406.294107 217.62543 
L 406.496464 220.816554 
L 407.103536 239.287232 
L 407.50825 252.606953 
L 407.710607 255.839004 
L 407.912965 256.512787 
L 408.115322 254.174015 
L 409.127108 226.520794 
L 409.531822 205.078692 
L 410.948323 103.683269 
L 411.15068 100.698023 
L 411.353037 101.822312 
L 411.555394 106.335263 
L 411.960109 122.380301 
L 413.174252 181.451862 
L 413.578966 185.570295 
L 413.983681 181.786233 
L 414.388395 173.275137 
L 414.995467 157.041654 
L 415.400181 149.969855 
L 415.602539 148.643628 
L 415.804896 148.835551 
L 416.007253 149.710959 
L 416.20961 153.840472 
L 417.626111 198.265856 
L 417.828468 200.86823 
L 418.030825 201.046118 
L 418.233182 199.269381 
L 418.637897 189.772799 
L 420.256754 136.119874 
L 420.661469 130.821691 
L 420.863826 132.050904 
L 421.26854 146.371724 
L 421.673255 175.423559 
L 422.280326 224.516881 
L 422.685041 247.120727 
L 422.887398 251.422523 
L 423.089755 253.022732 
L 424.101541 230.4542 
L 424.506256 227.095606 
L 424.708613 225.99094 
L 425.113327 221.336808 
L 425.720399 211.523173 
L 425.922756 212.007033 
L 426.125113 213.629509 
L 426.529828 223.247635 
L 427.339257 256.052088 
L 427.541614 259.608329 
L 427.743971 259.916085 
L 427.946328 256.8991 
L 428.148685 251.689441 
L 428.755757 220.416534 
L 429.565186 154.53389 
L 430.576972 64.442991 
L 430.779329 59.102775 
L 430.981686 58.909172 
L 431.184044 63.304611 
L 431.588758 85.372326 
L 433.005258 187.091279 
L 433.207616 190.62604 
L 433.409973 190.15678 
L 433.814687 182.167092 
L 434.219402 171.140623 
L 434.624116 164.150226 
L 434.826473 162.979598 
L 435.231188 164.479942 
L 436.040617 179.498528 
L 436.445331 193.256723 
L 436.850045 206.507347 
L 437.25476 215.26731 
L 437.659474 217.417073 
L 438.064189 215.215728 
L 438.266546 213.033139 
L 438.873617 198.637208 
L 439.278332 189.661426 
L 440.087761 175.321504 
L 440.290118 176.042998 
L 440.694832 184.961593 
L 441.099547 201.768955 
L 442.111333 254.125292 
L 442.31369 255.666136 
L 442.516047 255.101199 
L 442.718404 251.929236 
L 444.337262 207.555299 
L 445.146691 179.561496 
L 445.349048 177.725101 
L 445.551405 177.156408 
L 445.753762 177.493838 
L 446.563191 182.008889 
L 446.765549 182.181236 
L 446.967906 178.963413 
L 447.37262 165.198413 
L 447.777335 143.897141 
L 449.193835 62.910944 
L 449.396192 57.706723 
L 449.598549 55.8 
L 449.800907 57.581141 
L 450.003264 63.489801 
L 450.407978 87.321797 
L 451.01505 148.98172 
L 451.419764 190.154964 
L 451.824479 214.754235 
L 452.229193 226.267494 
L 452.43155 226.940381 
L 452.633908 225.997858 
L 453.038622 217.820419 
L 454.252765 185.452587 
L 454.455122 182.809881 
L 454.65748 182.058796 
L 454.859837 181.911833 
L 455.062194 183.504559 
L 455.466908 192.892905 
L 455.871623 218.881126 
L 456.276337 248.997167 
L 456.681052 267.902094 
L 456.883409 271.782567 
L 457.085766 272.442081 
L 457.288123 271.340645 
L 457.692838 264.713394 
L 458.906981 234.834335 
L 459.514053 216.868126 
L 459.71641 214.044047 
L 459.918767 215.027934 
L 460.323481 220.550543 
L 461.335267 240.330063 
L 461.537625 242.160098 
L 461.739982 241.012403 
L 462.144696 230.909409 
L 462.549411 209.653445 
L 463.965911 112.040701 
L 464.572983 78.5459 
L 464.77534 72.218289 
L 464.977697 70.815468 
L 465.180054 72.763579 
L 465.584769 87.073886 
L 467.001269 160.728181 
L 467.203626 164.412761 
L 467.405984 164.543567 
L 467.608341 163.467049 
L 467.810698 161.269324 
L 468.41777 151.14518 
L 468.620127 150.401643 
L 468.822484 151.059412 
L 469.227199 156.155657 
L 469.631913 165.134753 
L 470.846056 203.358895 
L 471.250771 212.819846 
L 471.655485 217.863792 
L 471.857842 219.407856 
L 472.060199 219.822962 
L 472.464914 219.120277 
L 472.869628 219.146703 
L 473.071985 219.743669 
L 473.274343 222.010588 
L 473.4767 226.30939 
L 474.083772 245.226309 
L 474.690843 258.816643 
L 475.095558 264.6645 
L 475.297915 266.452461 
L 475.500272 266.860592 
L 475.702629 265.242611 
L 476.512058 253.332352 
L 476.916772 242.976613 
L 478.940345 170.706693 
L 479.749773 149.435089 
L 481.570988 104.417241 
L 481.975703 98.445801 
L 482.17806 98.145014 
L 482.380417 98.580233 
L 482.582774 99.924498 
L 482.785131 102.472337 
L 483.189846 114.365807 
L 483.796917 141.204139 
L 484.403989 169.806214 
L 485.011061 183.630692 
L 485.213418 184.866093 
L 485.415775 184.360368 
L 486.022847 179.099058 
L 486.832276 168.21134 
L 487.034633 167.198223 
L 487.23699 167.449435 
L 487.439347 168.333474 
L 487.641704 170.773827 
L 488.248776 185.312528 
L 488.65349 201.220044 
L 489.867634 262.611311 
L 490.069991 266.774427 
L 490.474705 269.674544 
L 490.677063 270.101564 
L 491.081777 267.62264 
L 491.688849 260.855816 
L 492.093563 254.725902 
L 492.498277 245.251535 
L 492.902992 240.628226 
L 493.307706 238.96477 
L 493.510063 239.464037 
L 493.914778 243.008322 
L 494.117135 245.177196 
L 494.319492 245.60473 
L 494.52185 245.393693 
L 494.724207 244.008283 
L 494.926564 239.976184 
L 495.331278 222.267007 
L 495.93835 182.756343 
L 497.35485 79.635912 
L 497.759565 67.130716 
L 497.961922 66.352613 
L 498.164279 68.975902 
L 498.568994 85.131987 
L 499.985494 165.03856 
L 500.390209 172.22253 
L 500.592566 172.867077 
L 500.99728 166.624205 
L 501.401995 161.090623 
L 502.009066 157.896859 
L 502.211423 158.41551 
L 502.413781 159.325485 
L 502.818495 163.668875 
L 503.223209 171.321175 
L 504.234995 197.168727 
L 505.044424 205.600048 
L 505.449139 208.70007 
L 505.853853 210.964708 
L 506.05621 212.803712 
L 506.460925 220.197225 
L 507.675068 261.209739 
L 508.079782 268.224882 
L 508.484497 270.122258 
L 508.686854 268.566234 
L 509.496283 252.94527 
L 509.900997 241.624853 
L 511.115141 201.23789 
L 511.722212 187.455017 
L 512.329284 175.622953 
L 512.936355 156.781977 
L 514.959927 86.853922 
L 515.162285 86.405143 
L 515.364642 88.080165 
L 515.769356 97.358439 
L 516.174071 113.750709 
L 517.590571 184.39788 
L 517.995286 190.874944 
L 518.197643 190.589107 
L 518.4 188.643812 
L 518.4 188.643812 
" clip-path="url(#pe41928f6e8)" style="fill: none; stroke: #2ca02c; stroke-width: 1.5; stroke-linecap: square"/>
   </g>
   <g id="patch_3">
    <path d="M 72 320.4 
L 72 43.2 
" style="fill: none; stroke: #000000; stroke-width: 0.8; stroke-linejoin: miter; stroke-linecap: square"/>
   </g>
   <g id="patch_4">
    <path d="M 518.4 320.4 
L 518.4 43.2 
" style="fill: none; stroke: #000000; stroke-width: 0.8; stroke-linejoin: miter; stroke-linecap: square"/>
   </g>
   <g id="patch_5">
    <path d="M 72 320.4 
L 518.4 320.4 
" style="fill: none; stroke: #000000; stroke-width: 0.8; stroke-linejoin: miter; stroke-linecap: square"/>
   </g>
   <g id="patch_6">
    <path d="M 72 43.2 
L 518.4 43.2 
" style="fill: none; stroke: #000000; stroke-width: 0.8; stroke-linejoin: miter; stroke-linecap: square"/>
   </g>
   <g id="text_13">
    <!-- Classic Transformer - model_20231126154217 -->
    <g transform="translate(155.436563 37.2) scale(0.12 -0.12)">
     <defs>
      <path id="DejaVuSans-43" d="M 4122 4306 
L 4122 3641 
Q 3803 3938 3442 4084 
Q 3081 4231 2675 4231 
Q 1875 4231 1450 3742 
Q 1025 3253 1025 2328 
Q 1025 1406 1450 917 
Q 1875 428 2675 428 
Q 3081 428 3442 575 
Q 3803 722 4122 1019 
L 4122 359 
Q 3791 134 3420 21 
Q 3050 -91 2638 -91 
Q 1578 -91 968 557 
Q 359 1206 359 2328 
Q 359 3453 968 4101 
Q 1578 4750 2638 4750 
Q 3056 4750 3426 4639 
Q 3797 4528 4122 4306 
z
" transform="scale(0.015625)"/>
      <path id="DejaVuSans-6c" d="M 603 4863 
L 1178 4863 
L 1178 0 
L 603 0 
L 603 4863 
z
" transform="scale(0.015625)"/>
      <path id="DejaVuSans-61" d="M 2194 1759 
Q 1497 1759 1228 1600 
Q 959 1441 959 1056 
Q 959 750 1161 570 
Q 1363 391 1709 391 
Q 2188 391 2477 730 
Q 2766 1069 2766 1631 
L 2766 1759 
L 2194 1759 
z
M 3341 1997 
L 3341 0 
L 2766 0 
L 2766 531 
Q 2569 213 2275 61 
Q 1981 -91 1556 -91 
Q 1019 -91 701 211 
Q 384 513 384 1019 
Q 384 1609 779 1909 
Q 1175 2209 1959 2209 
L 2766 2209 
L 2766 2266 
Q 2766 2663 2505 2880 
Q 2244 3097 1772 3097 
Q 1472 3097 1187 3025 
Q 903 2953 641 2809 
L 641 3341 
Q 956 3463 1253 3523 
Q 1550 3584 1831 3584 
Q 2591 3584 2966 3190 
Q 3341 2797 3341 1997 
z
" transform="scale(0.015625)"/>
      <path id="DejaVuSans-73" d="M 2834 3397 
L 2834 2853 
Q 2591 2978 2328 3040 
Q 2066 3103 1784 3103 
Q 1356 3103 1142 2972 
Q 928 2841 928 2578 
Q 928 2378 1081 2264 
Q 1234 2150 1697 2047 
L 1894 2003 
Q 2506 1872 2764 1633 
Q 3022 1394 3022 966 
Q 3022 478 2636 193 
Q 2250 -91 1575 -91 
Q 1294 -91 989 -36 
Q 684 19 347 128 
L 347 722 
Q 666 556 975 473 
Q 1284 391 1588 391 
Q 1994 391 2212 530 
Q 2431 669 2431 922 
Q 2431 1156 2273 1281 
Q 2116 1406 1581 1522 
L 1381 1569 
Q 847 1681 609 1914 
Q 372 2147 372 2553 
Q 372 3047 722 3315 
Q 1072 3584 1716 3584 
Q 2034 3584 2315 3537 
Q 2597 3491 2834 3397 
z
" transform="scale(0.015625)"/>
      <path id="DejaVuSans-69" d="M 603 3500 
L 1178 3500 
L 1178 0 
L 603 0 
L 603 3500 
z
M 603 4863 
L 1178 4863 
L 1178 4134 
L 603 4134 
L 603 4863 
z
" transform="scale(0.015625)"/>
      <path id="DejaVuSans-63" d="M 3122 3366 
L 3122 2828 
Q 2878 2963 2633 3030 
Q 2388 3097 2138 3097 
Q 1578 3097 1268 2742 
Q 959 2388 959 1747 
Q 959 1106 1268 751 
Q 1578 397 2138 397 
Q 2388 397 2633 464 
Q 2878 531 3122 666 
L 3122 134 
Q 2881 22 2623 -34 
Q 2366 -91 2075 -91 
Q 1284 -91 818 406 
Q 353 903 353 1747 
Q 353 2603 823 3093 
Q 1294 3584 2113 3584 
Q 2378 3584 2631 3529 
Q 2884 3475 3122 3366 
z
" transform="scale(0.015625)"/>
      <path id="DejaVuSans-20" transform="scale(0.015625)"/>
      <path id="DejaVuSans-54" d="M -19 4666 
L 3928 4666 
L 3928 4134 
L 2272 4134 
L 2272 0 
L 1638 0 
L 1638 4134 
L -19 4134 
L -19 4666 
z
" transform="scale(0.015625)"/>
      <path id="DejaVuSans-72" d="M 2631 2963 
Q 2534 3019 2420 3045 
Q 2306 3072 2169 3072 
Q 1681 3072 1420 2755 
Q 1159 2438 1159 1844 
L 1159 0 
L 581 0 
L 581 3500 
L 1159 3500 
L 1159 2956 
Q 1341 3275 1631 3429 
Q 1922 3584 2338 3584 
Q 2397 3584 2469 3576 
Q 2541 3569 2628 3553 
L 2631 2963 
z
" transform="scale(0.015625)"/>
      <path id="DejaVuSans-6e" d="M 3513 2113 
L 3513 0 
L 2938 0 
L 2938 2094 
Q 2938 2591 2744 2837 
Q 2550 3084 2163 3084 
Q 1697 3084 1428 2787 
Q 1159 2491 1159 1978 
L 1159 0 
L 581 0 
L 581 3500 
L 1159 3500 
L 1159 2956 
Q 1366 3272 1645 3428 
Q 1925 3584 2291 3584 
Q 2894 3584 3203 3211 
Q 3513 2838 3513 2113 
z
" transform="scale(0.015625)"/>
      <path id="DejaVuSans-66" d="M 2375 4863 
L 2375 4384 
L 1825 4384 
Q 1516 4384 1395 4259 
Q 1275 4134 1275 3809 
L 1275 3500 
L 2222 3500 
L 2222 3053 
L 1275 3053 
L 1275 0 
L 697 0 
L 697 3053 
L 147 3053 
L 147 3500 
L 697 3500 
L 697 3744 
Q 697 4328 969 4595 
Q 1241 4863 1831 4863 
L 2375 4863 
z
" transform="scale(0.015625)"/>
      <path id="DejaVuSans-6f" d="M 1959 3097 
Q 1497 3097 1228 2736 
Q 959 2375 959 1747 
Q 959 1119 1226 758 
Q 1494 397 1959 397 
Q 2419 397 2687 759 
Q 2956 1122 2956 1747 
Q 2956 2369 2687 2733 
Q 2419 3097 1959 3097 
z
M 1959 3584 
Q 2709 3584 3137 3096 
Q 3566 2609 3566 1747 
Q 3566 888 3137 398 
Q 2709 -91 1959 -91 
Q 1206 -91 779 398 
Q 353 888 353 1747 
Q 353 2609 779 3096 
Q 1206 3584 1959 3584 
z
" transform="scale(0.015625)"/>
      <path id="DejaVuSans-6d" d="M 3328 2828 
Q 3544 3216 3844 3400 
Q 4144 3584 4550 3584 
Q 5097 3584 5394 3201 
Q 5691 2819 5691 2113 
L 5691 0 
L 5113 0 
L 5113 2094 
Q 5113 2597 4934 2840 
Q 4756 3084 4391 3084 
Q 3944 3084 3684 2787 
Q 3425 2491 3425 1978 
L 3425 0 
L 2847 0 
L 2847 2094 
Q 2847 2600 2669 2842 
Q 2491 3084 2119 3084 
Q 1678 3084 1418 2786 
Q 1159 2488 1159 1978 
L 1159 0 
L 581 0 
L 581 3500 
L 1159 3500 
L 1159 2956 
Q 1356 3278 1631 3431 
Q 1906 3584 2284 3584 
Q 2666 3584 2933 3390 
Q 3200 3197 3328 2828 
z
" transform="scale(0.015625)"/>
      <path id="DejaVuSans-65" d="M 3597 1894 
L 3597 1613 
L 953 1613 
Q 991 1019 1311 708 
Q 1631 397 2203 397 
Q 2534 397 2845 478 
Q 3156 559 3463 722 
L 3463 178 
Q 3153 47 2828 -22 
Q 2503 -91 2169 -91 
Q 1331 -91 842 396 
Q 353 884 353 1716 
Q 353 2575 817 3079 
Q 1281 3584 2069 3584 
Q 2775 3584 3186 3129 
Q 3597 2675 3597 1894 
z
M 3022 2063 
Q 3016 2534 2758 2815 
Q 2500 3097 2075 3097 
Q 1594 3097 1305 2825 
Q 1016 2553 972 2059 
L 3022 2063 
z
" transform="scale(0.015625)"/>
      <path id="DejaVuSans-64" d="M 2906 2969 
L 2906 4863 
L 3481 4863 
L 3481 0 
L 2906 0 
L 2906 525 
Q 2725 213 2448 61 
Q 2172 -91 1784 -91 
Q 1150 -91 751 415 
Q 353 922 353 1747 
Q 353 2572 751 3078 
Q 1150 3584 1784 3584 
Q 2172 3584 2448 3432 
Q 2725 3281 2906 2969 
z
M 947 1747 
Q 947 1113 1208 752 
Q 1469 391 1925 391 
Q 2381 391 2643 752 
Q 2906 1113 2906 1747 
Q 2906 2381 2643 2742 
Q 2381 3103 1925 3103 
Q 1469 3103 1208 2742 
Q 947 2381 947 1747 
z
" transform="scale(0.015625)"/>
      <path id="DejaVuSans-5f" d="M 3263 -1063 
L 3263 -1509 
L -63 -1509 
L -63 -1063 
L 3263 -1063 
z
" transform="scale(0.015625)"/>
      <path id="DejaVuSans-34" d="M 2419 4116 
L 825 1625 
L 2419 1625 
L 2419 4116 
z
M 2253 4666 
L 3047 4666 
L 3047 1625 
L 3713 1625 
L 3713 1100 
L 3047 1100 
L 3047 0 
L 2419 0 
L 2419 1100 
L 313 1100 
L 313 1709 
L 2253 4666 
z
" transform="scale(0.015625)"/>
     </defs>
     <use xlink:href="#DejaVuSans-43"/>
     <use xlink:href="#DejaVuSans-6c" x="69.824219"/>
     <use xlink:href="#DejaVuSans-61" x="97.607422"/>
     <use xlink:href="#DejaVuSans-73" x="158.886719"/>
     <use xlink:href="#DejaVuSans-73" x="210.986328"/>
     <use xlink:href="#DejaVuSans-69" x="263.085938"/>
     <use xlink:href="#DejaVuSans-63" x="290.869141"/>
     <use xlink:href="#DejaVuSans-20" x="345.849609"/>
     <use xlink:href="#DejaVuSans-54" x="377.636719"/>
     <use xlink:href="#DejaVuSans-72" x="423.970703"/>
     <use xlink:href="#DejaVuSans-61" x="465.083984"/>
     <use xlink:href="#DejaVuSans-6e" x="526.363281"/>
     <use xlink:href="#DejaVuSans-73" x="589.742188"/>
     <use xlink:href="#DejaVuSans-66" x="641.841797"/>
     <use xlink:href="#DejaVuSans-6f" x="677.046875"/>
     <use xlink:href="#DejaVuSans-72" x="738.228516"/>
     <use xlink:href="#DejaVuSans-6d" x="777.591797"/>
     <use xlink:href="#DejaVuSans-65" x="875.003906"/>
     <use xlink:href="#DejaVuSans-72" x="936.527344"/>
     <use xlink:href="#DejaVuSans-20" x="977.640625"/>
     <use xlink:href="#DejaVuSans-2d" x="1009.427734"/>
     <use xlink:href="#DejaVuSans-20" x="1045.511719"/>
     <use xlink:href="#DejaVuSans-6d" x="1077.298828"/>
     <use xlink:href="#DejaVuSans-6f" x="1174.710938"/>
     <use xlink:href="#DejaVuSans-64" x="1235.892578"/>
     <use xlink:href="#DejaVuSans-65" x="1299.369141"/>
     <use xlink:href="#DejaVuSans-6c" x="1360.892578"/>
     <use xlink:href="#DejaVuSans-5f" x="1388.675781"/>
     <use xlink:href="#DejaVuSans-32" x="1438.675781"/>
     <use xlink:href="#DejaVuSans-30" x="1502.298828"/>
     <use xlink:href="#DejaVuSans-32" x="1565.921875"/>
     <use xlink:href="#DejaVuSans-33" x="1629.544922"/>
     <use xlink:href="#DejaVuSans-31" x="1693.167969"/>
     <use xlink:href="#DejaVuSans-31" x="1756.791016"/>
     <use xlink:href="#DejaVuSans-32" x="1820.414062"/>
     <use xlink:href="#DejaVuSans-36" x="1884.037109"/>
     <use xlink:href="#DejaVuSans-31" x="1947.660156"/>
     <use xlink:href="#DejaVuSans-35" x="2011.283203"/>
     <use xlink:href="#DejaVuSans-34" x="2074.90625"/>
     <use xlink:href="#DejaVuSans-32" x="2138.529297"/>
     <use xlink:href="#DejaVuSans-31" x="2202.152344"/>
     <use xlink:href="#DejaVuSans-37" x="2265.775391"/>
    </g>
   </g>
   <g id="legend_1">
    <g id="patch_7">
     <path d="M 79 95.234375 
L 161.517188 95.234375 
Q 163.517188 95.234375 163.517188 93.234375 
L 163.517188 50.2 
Q 163.517188 48.2 161.517188 48.2 
L 79 48.2 
Q 77 48.2 77 50.2 
L 77 93.234375 
Q 77 95.234375 79 95.234375 
z
" style="fill: #ffffff; opacity: 0.8; stroke: #cccccc; stroke-linejoin: miter"/>
    </g>
    <g id="line2d_16">
     <path d="M 81 56.298437 
L 91 56.298437 
L 101 56.298437 
" style="fill: none; stroke: #1f77b4; stroke-width: 1.5; stroke-linecap: square"/>
    </g>
    <g id="text_14">
     <!-- Measured -->
     <g transform="translate(109 59.798437) scale(0.1 -0.1)">
      <defs>
       <path id="DejaVuSans-4d" d="M 628 4666 
L 1569 4666 
L 2759 1491 
L 3956 4666 
L 4897 4666 
L 4897 0 
L 4281 0 
L 4281 4097 
L 3078 897 
L 2444 897 
L 1241 4097 
L 1241 0 
L 628 0 
L 628 4666 
z
" transform="scale(0.015625)"/>
       <path id="DejaVuSans-75" d="M 544 1381 
L 544 3500 
L 1119 3500 
L 1119 1403 
Q 1119 906 1312 657 
Q 1506 409 1894 409 
Q 2359 409 2629 706 
Q 2900 1003 2900 1516 
L 2900 3500 
L 3475 3500 
L 3475 0 
L 2900 0 
L 2900 538 
Q 2691 219 2414 64 
Q 2138 -91 1772 -91 
Q 1169 -91 856 284 
Q 544 659 544 1381 
z
M 1991 3584 
L 1991 3584 
z
" transform="scale(0.015625)"/>
      </defs>
      <use xlink:href="#DejaVuSans-4d"/>
      <use xlink:href="#DejaVuSans-65" x="86.279297"/>
      <use xlink:href="#DejaVuSans-61" x="147.802734"/>
      <use xlink:href="#DejaVuSans-73" x="209.082031"/>
      <use xlink:href="#DejaVuSans-75" x="261.181641"/>
      <use xlink:href="#DejaVuSans-72" x="324.560547"/>
      <use xlink:href="#DejaVuSans-65" x="363.423828"/>
      <use xlink:href="#DejaVuSans-64" x="424.947266"/>
     </g>
    </g>
    <g id="line2d_17">
     <path d="M 81 70.976562 
L 91 70.976562 
L 101 70.976562 
" style="fill: none; stroke: #ff7f0e; stroke-width: 1.5; stroke-linecap: square"/>
    </g>
    <g id="text_15">
     <!-- Fitted -->
     <g transform="translate(109 74.476562) scale(0.1 -0.1)">
      <defs>
       <path id="DejaVuSans-46" d="M 628 4666 
L 3309 4666 
L 3309 4134 
L 1259 4134 
L 1259 2759 
L 3109 2759 
L 3109 2228 
L 1259 2228 
L 1259 0 
L 628 0 
L 628 4666 
z
" transform="scale(0.015625)"/>
       <path id="DejaVuSans-74" d="M 1172 4494 
L 1172 3500 
L 2356 3500 
L 2356 3053 
L 1172 3053 
L 1172 1153 
Q 1172 725 1289 603 
Q 1406 481 1766 481 
L 2356 481 
L 2356 0 
L 1766 0 
Q 1100 0 847 248 
Q 594 497 594 1153 
L 594 3053 
L 172 3053 
L 172 3500 
L 594 3500 
L 594 4494 
L 1172 4494 
z
" transform="scale(0.015625)"/>
      </defs>
      <use xlink:href="#DejaVuSans-46"/>
      <use xlink:href="#DejaVuSans-69" x="50.269531"/>
      <use xlink:href="#DejaVuSans-74" x="78.052734"/>
      <use xlink:href="#DejaVuSans-74" x="117.261719"/>
      <use xlink:href="#DejaVuSans-65" x="156.470703"/>
      <use xlink:href="#DejaVuSans-64" x="217.994141"/>
     </g>
    </g>
    <g id="line2d_18">
     <path d="M 81 85.654687 
L 91 85.654687 
L 101 85.654687 
" style="fill: none; stroke: #2ca02c; stroke-width: 1.5; stroke-linecap: square"/>
    </g>
    <g id="text_16">
     <!-- Estimated -->
     <g transform="translate(109 89.154687) scale(0.1 -0.1)">
      <defs>
       <path id="DejaVuSans-45" d="M 628 4666 
L 3578 4666 
L 3578 4134 
L 1259 4134 
L 1259 2753 
L 3481 2753 
L 3481 2222 
L 1259 2222 
L 1259 531 
L 3634 531 
L 3634 0 
L 628 0 
L 628 4666 
z
" transform="scale(0.015625)"/>
      </defs>
      <use xlink:href="#DejaVuSans-45"/>
      <use xlink:href="#DejaVuSans-73" x="63.183594"/>
      <use xlink:href="#DejaVuSans-74" x="115.283203"/>
      <use xlink:href="#DejaVuSans-69" x="154.492188"/>
      <use xlink:href="#DejaVuSans-6d" x="182.275391"/>
      <use xlink:href="#DejaVuSans-61" x="279.6875"/>
      <use xlink:href="#DejaVuSans-74" x="340.966797"/>
      <use xlink:href="#DejaVuSans-65" x="380.175781"/>
      <use xlink:href="#DejaVuSans-64" x="441.699219"/>
     </g>
    </g>
   </g>
  </g>
 </g>
 <defs>
  <clipPath id="pe41928f6e8">
   <rect x="72" y="43.2" width="446.4" height="277.2"/>
  </clipPath>
 </defs>
</svg>
