<?xml version="1.0" encoding="utf-8" standalone="no"?>
<!DOCTYPE svg PUBLIC "-//W3C//DTD SVG 1.1//EN"
  "http://www.w3.org/Graphics/SVG/1.1/DTD/svg11.dtd">
<svg xmlns:xlink="http://www.w3.org/1999/xlink" width="576pt" height="360pt" viewBox="0 0 576 360" xmlns="http://www.w3.org/2000/svg" version="1.1">
 <metadata>
  <rdf:RDF xmlns:dc="http://purl.org/dc/elements/1.1/" xmlns:cc="http://creativecommons.org/ns#" xmlns:rdf="http://www.w3.org/1999/02/22-rdf-syntax-ns#">
   <cc:Work>
    <dc:type rdf:resource="http://purl.org/dc/dcmitype/StillImage"/>
    <dc:date>2023-11-26T19:09:33.415489</dc:date>
    <dc:format>image/svg+xml</dc:format>
    <dc:creator>
     <cc:Agent>
      <dc:title>Matplotlib v3.8.1, https://matplotlib.org/</dc:title>
     </cc:Agent>
    </dc:creator>
   </cc:Work>
  </rdf:RDF>
 </metadata>
 <defs>
  <style type="text/css">*{stroke-linejoin: round; stroke-linecap: butt}</style>
 </defs>
 <g id="figure_1">
  <g id="patch_1">
   <path d="M 0 360 
L 576 360 
L 576 0 
L 0 0 
z
" style="fill: #ffffff"/>
  </g>
  <g id="axes_1">
   <g id="patch_2">
    <path d="M 72 320.4 
L 518.4 320.4 
L 518.4 43.2 
L 72 43.2 
z
" style="fill: #ffffff"/>
   </g>
   <g id="matplotlib.axis_1">
    <g id="xtick_1">
     <g id="line2d_1">
      <defs>
       <path id="mb60879e64a" d="M 0 0 
L 0 3.5 
" style="stroke: #000000; stroke-width: 0.8"/>
      </defs>
      <g>
       <use xlink:href="#mb60879e64a" x="129.874161" y="320.4" style="stroke: #000000; stroke-width: 0.8"/>
      </g>
     </g>
     <g id="text_1">
      <!-- 2020-05-15 -->
      <g transform="translate(100.816349 334.998438) scale(0.1 -0.1)">
       <defs>
        <path id="DejaVuSans-32" d="M 1228 531 
L 3431 531 
L 3431 0 
L 469 0 
L 469 531 
Q 828 903 1448 1529 
Q 2069 2156 2228 2338 
Q 2531 2678 2651 2914 
Q 2772 3150 2772 3378 
Q 2772 3750 2511 3984 
Q 2250 4219 1831 4219 
Q 1534 4219 1204 4116 
Q 875 4013 500 3803 
L 500 4441 
Q 881 4594 1212 4672 
Q 1544 4750 1819 4750 
Q 2544 4750 2975 4387 
Q 3406 4025 3406 3419 
Q 3406 3131 3298 2873 
Q 3191 2616 2906 2266 
Q 2828 2175 2409 1742 
Q 1991 1309 1228 531 
z
" transform="scale(0.015625)"/>
        <path id="DejaVuSans-30" d="M 2034 4250 
Q 1547 4250 1301 3770 
Q 1056 3291 1056 2328 
Q 1056 1369 1301 889 
Q 1547 409 2034 409 
Q 2525 409 2770 889 
Q 3016 1369 3016 2328 
Q 3016 3291 2770 3770 
Q 2525 4250 2034 4250 
z
M 2034 4750 
Q 2819 4750 3233 4129 
Q 3647 3509 3647 2328 
Q 3647 1150 3233 529 
Q 2819 -91 2034 -91 
Q 1250 -91 836 529 
Q 422 1150 422 2328 
Q 422 3509 836 4129 
Q 1250 4750 2034 4750 
z
" transform="scale(0.015625)"/>
        <path id="DejaVuSans-2d" d="M 313 2009 
L 1997 2009 
L 1997 1497 
L 313 1497 
L 313 2009 
z
" transform="scale(0.015625)"/>
        <path id="DejaVuSans-35" d="M 691 4666 
L 3169 4666 
L 3169 4134 
L 1269 4134 
L 1269 2991 
Q 1406 3038 1543 3061 
Q 1681 3084 1819 3084 
Q 2600 3084 3056 2656 
Q 3513 2228 3513 1497 
Q 3513 744 3044 326 
Q 2575 -91 1722 -91 
Q 1428 -91 1123 -41 
Q 819 9 494 109 
L 494 744 
Q 775 591 1075 516 
Q 1375 441 1709 441 
Q 2250 441 2565 725 
Q 2881 1009 2881 1497 
Q 2881 1984 2565 2268 
Q 2250 2553 1709 2553 
Q 1456 2553 1204 2497 
Q 953 2441 691 2322 
L 691 4666 
z
" transform="scale(0.015625)"/>
        <path id="DejaVuSans-31" d="M 794 531 
L 1825 531 
L 1825 4091 
L 703 3866 
L 703 4441 
L 1819 4666 
L 2450 4666 
L 2450 531 
L 3481 531 
L 3481 0 
L 794 0 
L 794 531 
z
" transform="scale(0.015625)"/>
       </defs>
       <use xlink:href="#DejaVuSans-32"/>
       <use xlink:href="#DejaVuSans-30" x="63.623047"/>
       <use xlink:href="#DejaVuSans-32" x="127.246094"/>
       <use xlink:href="#DejaVuSans-30" x="190.869141"/>
       <use xlink:href="#DejaVuSans-2d" x="254.492188"/>
       <use xlink:href="#DejaVuSans-30" x="290.576172"/>
       <use xlink:href="#DejaVuSans-35" x="354.199219"/>
       <use xlink:href="#DejaVuSans-2d" x="417.822266"/>
       <use xlink:href="#DejaVuSans-31" x="453.90625"/>
       <use xlink:href="#DejaVuSans-35" x="517.529297"/>
      </g>
     </g>
    </g>
    <g id="xtick_2">
     <g id="line2d_2">
      <g>
       <use xlink:href="#mb60879e64a" x="212.435902" y="320.4" style="stroke: #000000; stroke-width: 0.8"/>
      </g>
     </g>
     <g id="text_2">
      <!-- 2020-06-01 -->
      <g transform="translate(183.37809 334.998438) scale(0.1 -0.1)">
       <defs>
        <path id="DejaVuSans-36" d="M 2113 2584 
Q 1688 2584 1439 2293 
Q 1191 2003 1191 1497 
Q 1191 994 1439 701 
Q 1688 409 2113 409 
Q 2538 409 2786 701 
Q 3034 994 3034 1497 
Q 3034 2003 2786 2293 
Q 2538 2584 2113 2584 
z
M 3366 4563 
L 3366 3988 
Q 3128 4100 2886 4159 
Q 2644 4219 2406 4219 
Q 1781 4219 1451 3797 
Q 1122 3375 1075 2522 
Q 1259 2794 1537 2939 
Q 1816 3084 2150 3084 
Q 2853 3084 3261 2657 
Q 3669 2231 3669 1497 
Q 3669 778 3244 343 
Q 2819 -91 2113 -91 
Q 1303 -91 875 529 
Q 447 1150 447 2328 
Q 447 3434 972 4092 
Q 1497 4750 2381 4750 
Q 2619 4750 2861 4703 
Q 3103 4656 3366 4563 
z
" transform="scale(0.015625)"/>
       </defs>
       <use xlink:href="#DejaVuSans-32"/>
       <use xlink:href="#DejaVuSans-30" x="63.623047"/>
       <use xlink:href="#DejaVuSans-32" x="127.246094"/>
       <use xlink:href="#DejaVuSans-30" x="190.869141"/>
       <use xlink:href="#DejaVuSans-2d" x="254.492188"/>
       <use xlink:href="#DejaVuSans-30" x="290.576172"/>
       <use xlink:href="#DejaVuSans-36" x="354.199219"/>
       <use xlink:href="#DejaVuSans-2d" x="417.822266"/>
       <use xlink:href="#DejaVuSans-30" x="453.90625"/>
       <use xlink:href="#DejaVuSans-31" x="517.529297"/>
      </g>
     </g>
    </g>
    <g id="xtick_3">
     <g id="line2d_3">
      <g>
       <use xlink:href="#mb60879e64a" x="280.427924" y="320.4" style="stroke: #000000; stroke-width: 0.8"/>
      </g>
     </g>
     <g id="text_3">
      <!-- 2020-06-15 -->
      <g transform="translate(251.370111 334.998438) scale(0.1 -0.1)">
       <use xlink:href="#DejaVuSans-32"/>
       <use xlink:href="#DejaVuSans-30" x="63.623047"/>
       <use xlink:href="#DejaVuSans-32" x="127.246094"/>
       <use xlink:href="#DejaVuSans-30" x="190.869141"/>
       <use xlink:href="#DejaVuSans-2d" x="254.492188"/>
       <use xlink:href="#DejaVuSans-30" x="290.576172"/>
       <use xlink:href="#DejaVuSans-36" x="354.199219"/>
       <use xlink:href="#DejaVuSans-2d" x="417.822266"/>
       <use xlink:href="#DejaVuSans-31" x="453.90625"/>
       <use xlink:href="#DejaVuSans-35" x="517.529297"/>
      </g>
     </g>
    </g>
    <g id="xtick_4">
     <g id="line2d_4">
      <g>
       <use xlink:href="#mb60879e64a" x="358.133092" y="320.4" style="stroke: #000000; stroke-width: 0.8"/>
      </g>
     </g>
     <g id="text_4">
      <!-- 2020-07-01 -->
      <g transform="translate(329.075279 334.998438) scale(0.1 -0.1)">
       <defs>
        <path id="DejaVuSans-37" d="M 525 4666 
L 3525 4666 
L 3525 4397 
L 1831 0 
L 1172 0 
L 2766 4134 
L 525 4134 
L 525 4666 
z
" transform="scale(0.015625)"/>
       </defs>
       <use xlink:href="#DejaVuSans-32"/>
       <use xlink:href="#DejaVuSans-30" x="63.623047"/>
       <use xlink:href="#DejaVuSans-32" x="127.246094"/>
       <use xlink:href="#DejaVuSans-30" x="190.869141"/>
       <use xlink:href="#DejaVuSans-2d" x="254.492188"/>
       <use xlink:href="#DejaVuSans-30" x="290.576172"/>
       <use xlink:href="#DejaVuSans-37" x="354.199219"/>
       <use xlink:href="#DejaVuSans-2d" x="417.822266"/>
       <use xlink:href="#DejaVuSans-30" x="453.90625"/>
       <use xlink:href="#DejaVuSans-31" x="517.529297"/>
      </g>
     </g>
    </g>
    <g id="xtick_5">
     <g id="line2d_5">
      <g>
       <use xlink:href="#mb60879e64a" x="426.125113" y="320.4" style="stroke: #000000; stroke-width: 0.8"/>
      </g>
     </g>
     <g id="text_5">
      <!-- 2020-07-15 -->
      <g transform="translate(397.067301 334.998438) scale(0.1 -0.1)">
       <use xlink:href="#DejaVuSans-32"/>
       <use xlink:href="#DejaVuSans-30" x="63.623047"/>
       <use xlink:href="#DejaVuSans-32" x="127.246094"/>
       <use xlink:href="#DejaVuSans-30" x="190.869141"/>
       <use xlink:href="#DejaVuSans-2d" x="254.492188"/>
       <use xlink:href="#DejaVuSans-30" x="290.576172"/>
       <use xlink:href="#DejaVuSans-37" x="354.199219"/>
       <use xlink:href="#DejaVuSans-2d" x="417.822266"/>
       <use xlink:href="#DejaVuSans-31" x="453.90625"/>
       <use xlink:href="#DejaVuSans-35" x="517.529297"/>
      </g>
     </g>
    </g>
    <g id="xtick_6">
     <g id="line2d_6">
      <g>
       <use xlink:href="#mb60879e64a" x="508.686854" y="320.4" style="stroke: #000000; stroke-width: 0.8"/>
      </g>
     </g>
     <g id="text_6">
      <!-- 2020-08-01 -->
      <g transform="translate(479.629042 334.998438) scale(0.1 -0.1)">
       <defs>
        <path id="DejaVuSans-38" d="M 2034 2216 
Q 1584 2216 1326 1975 
Q 1069 1734 1069 1313 
Q 1069 891 1326 650 
Q 1584 409 2034 409 
Q 2484 409 2743 651 
Q 3003 894 3003 1313 
Q 3003 1734 2745 1975 
Q 2488 2216 2034 2216 
z
M 1403 2484 
Q 997 2584 770 2862 
Q 544 3141 544 3541 
Q 544 4100 942 4425 
Q 1341 4750 2034 4750 
Q 2731 4750 3128 4425 
Q 3525 4100 3525 3541 
Q 3525 3141 3298 2862 
Q 3072 2584 2669 2484 
Q 3125 2378 3379 2068 
Q 3634 1759 3634 1313 
Q 3634 634 3220 271 
Q 2806 -91 2034 -91 
Q 1263 -91 848 271 
Q 434 634 434 1313 
Q 434 1759 690 2068 
Q 947 2378 1403 2484 
z
M 1172 3481 
Q 1172 3119 1398 2916 
Q 1625 2713 2034 2713 
Q 2441 2713 2670 2916 
Q 2900 3119 2900 3481 
Q 2900 3844 2670 4047 
Q 2441 4250 2034 4250 
Q 1625 4250 1398 4047 
Q 1172 3844 1172 3481 
z
" transform="scale(0.015625)"/>
       </defs>
       <use xlink:href="#DejaVuSans-32"/>
       <use xlink:href="#DejaVuSans-30" x="63.623047"/>
       <use xlink:href="#DejaVuSans-32" x="127.246094"/>
       <use xlink:href="#DejaVuSans-30" x="190.869141"/>
       <use xlink:href="#DejaVuSans-2d" x="254.492188"/>
       <use xlink:href="#DejaVuSans-30" x="290.576172"/>
       <use xlink:href="#DejaVuSans-38" x="354.199219"/>
       <use xlink:href="#DejaVuSans-2d" x="417.822266"/>
       <use xlink:href="#DejaVuSans-30" x="453.90625"/>
       <use xlink:href="#DejaVuSans-31" x="517.529297"/>
      </g>
     </g>
    </g>
   </g>
   <g id="matplotlib.axis_2">
    <g id="ytick_1">
     <g id="line2d_7">
      <defs>
       <path id="md6d35f9ac8" d="M 0 0 
L -3.5 0 
" style="stroke: #000000; stroke-width: 0.8"/>
      </defs>
      <g>
       <use xlink:href="#md6d35f9ac8" x="72" y="316.02311" style="stroke: #000000; stroke-width: 0.8"/>
      </g>
     </g>
     <g id="text_7">
      <!-- −2 -->
      <g transform="translate(50.257812 319.822329) scale(0.1 -0.1)">
       <defs>
        <path id="DejaVuSans-2212" d="M 678 2272 
L 4684 2272 
L 4684 1741 
L 678 1741 
L 678 2272 
z
" transform="scale(0.015625)"/>
       </defs>
       <use xlink:href="#DejaVuSans-2212"/>
       <use xlink:href="#DejaVuSans-32" x="83.789062"/>
      </g>
     </g>
    </g>
    <g id="ytick_2">
     <g id="line2d_8">
      <g>
       <use xlink:href="#md6d35f9ac8" x="72" y="262.270962" style="stroke: #000000; stroke-width: 0.8"/>
      </g>
     </g>
     <g id="text_8">
      <!-- −1 -->
      <g transform="translate(50.257812 266.070181) scale(0.1 -0.1)">
       <use xlink:href="#DejaVuSans-2212"/>
       <use xlink:href="#DejaVuSans-31" x="83.789062"/>
      </g>
     </g>
    </g>
    <g id="ytick_3">
     <g id="line2d_9">
      <g>
       <use xlink:href="#md6d35f9ac8" x="72" y="208.518814" style="stroke: #000000; stroke-width: 0.8"/>
      </g>
     </g>
     <g id="text_9">
      <!-- 0 -->
      <g transform="translate(58.6375 212.318032) scale(0.1 -0.1)">
       <use xlink:href="#DejaVuSans-30"/>
      </g>
     </g>
    </g>
    <g id="ytick_4">
     <g id="line2d_10">
      <g>
       <use xlink:href="#md6d35f9ac8" x="72" y="154.766666" style="stroke: #000000; stroke-width: 0.8"/>
      </g>
     </g>
     <g id="text_10">
      <!-- 1 -->
      <g transform="translate(58.6375 158.565884) scale(0.1 -0.1)">
       <use xlink:href="#DejaVuSans-31"/>
      </g>
     </g>
    </g>
    <g id="ytick_5">
     <g id="line2d_11">
      <g>
       <use xlink:href="#md6d35f9ac8" x="72" y="101.014518" style="stroke: #000000; stroke-width: 0.8"/>
      </g>
     </g>
     <g id="text_11">
      <!-- 2 -->
      <g transform="translate(58.6375 104.813736) scale(0.1 -0.1)">
       <use xlink:href="#DejaVuSans-32"/>
      </g>
     </g>
    </g>
    <g id="ytick_6">
     <g id="line2d_12">
      <g>
       <use xlink:href="#md6d35f9ac8" x="72" y="47.262369" style="stroke: #000000; stroke-width: 0.8"/>
      </g>
     </g>
     <g id="text_12">
      <!-- 3 -->
      <g transform="translate(58.6375 51.061588) scale(0.1 -0.1)">
       <defs>
        <path id="DejaVuSans-33" d="M 2597 2516 
Q 3050 2419 3304 2112 
Q 3559 1806 3559 1356 
Q 3559 666 3084 287 
Q 2609 -91 1734 -91 
Q 1441 -91 1130 -33 
Q 819 25 488 141 
L 488 750 
Q 750 597 1062 519 
Q 1375 441 1716 441 
Q 2309 441 2620 675 
Q 2931 909 2931 1356 
Q 2931 1769 2642 2001 
Q 2353 2234 1838 2234 
L 1294 2234 
L 1294 2753 
L 1863 2753 
Q 2328 2753 2575 2939 
Q 2822 3125 2822 3475 
Q 2822 3834 2567 4026 
Q 2313 4219 1838 4219 
Q 1578 4219 1281 4162 
Q 984 4106 628 3988 
L 628 4550 
Q 988 4650 1302 4700 
Q 1616 4750 1894 4750 
Q 2613 4750 3031 4423 
Q 3450 4097 3450 3541 
Q 3450 3153 3228 2886 
Q 3006 2619 2597 2516 
z
" transform="scale(0.015625)"/>
       </defs>
       <use xlink:href="#DejaVuSans-33"/>
      </g>
     </g>
    </g>
   </g>
   <g id="line2d_13">
    <path d="M 72 287.021497 
L 72.404714 298.412757 
L 72.607072 296.682973 
L 72.809429 285.96675 
L 73.214143 254.915018 
L 73.618858 242.426821 
L 75.035358 159.101858 
L 75.237715 156.127474 
L 75.440073 161.211351 
L 75.64243 169.459468 
L 75.844787 172.771371 
L 76.047144 188.086288 
L 76.654216 258.669915 
L 77.05893 282.844701 
L 77.261287 287.232446 
L 77.463645 286.852737 
L 77.666002 276.094324 
L 78.070716 247.468508 
L 78.475431 234.938122 
L 78.677788 225.761828 
L 79.487217 168.510196 
L 79.891931 152.161627 
L 80.094288 154.123456 
L 80.903717 196.735208 
L 81.713146 272.423807 
L 82.11786 287.148066 
L 82.320218 289.194274 
L 82.522575 288.898945 
L 82.724932 286.367554 
L 82.927289 279.511703 
L 83.332004 256.412757 
L 83.736718 242.026017 
L 83.939075 238.967253 
L 84.141432 239.241487 
L 84.546147 245.675439 
L 84.748504 247.784932 
L 84.950861 247.806027 
L 85.355576 252.025013 
L 85.557933 248.670919 
L 85.76029 254.830638 
L 86.569719 300.015972 
L 86.772076 306.133501 
L 86.974433 307.736715 
L 87.176791 307.8 
L 87.379148 306.449925 
L 87.581505 302.695028 
L 87.783862 295.902461 
L 88.188577 273.731693 
L 88.390934 268.521246 
L 89.200363 260.399699 
L 89.40272 256.243998 
L 89.807434 241.372074 
L 90.212149 238.903968 
L 90.414506 236.182722 
L 90.616863 244.1777 
L 91.223935 295.037569 
L 91.628649 306.133501 
L 91.831006 306.196786 
L 92.033364 303.686489 
L 92.842792 257.277649 
L 93.04515 255.125967 
L 93.449864 246.477047 
L 93.652221 245.949674 
L 93.854578 242.996384 
L 94.056936 242.363536 
L 94.259293 239.72667 
L 94.46165 233.292717 
L 94.664007 230.423807 
L 94.866364 231.351984 
L 95.068722 234.516223 
L 95.271079 230.655851 
L 95.473436 240.823606 
L 96.080508 295.417278 
L 96.485222 304.677951 
L 96.687579 306.597589 
L 96.889937 302.230939 
L 97.699365 256.539327 
L 98.306437 245.970768 
L 98.508794 245.59106 
L 99.52058 224.242993 
L 99.722937 225.508689 
L 99.925295 229.896434 
L 100.127652 228.061175 
L 100.330009 238.27112 
L 100.937081 292.928076 
L 101.341795 305.268609 
L 101.544152 306.26007 
L 101.74651 302.526268 
L 101.948867 290.50216 
L 102.353581 260.294224 
L 102.555938 258.733199 
L 103.567724 240.844701 
L 104.377153 218.610648 
L 104.57951 219.897438 
L 104.781868 225.318835 
L 104.984225 225.29774 
L 105.186582 234.241989 
L 105.793654 289.763837 
L 106.198368 302.589553 
L 106.400725 304.361527 
L 106.603083 300.311301 
L 107.412511 254.11341 
L 107.614869 252.383626 
L 107.817226 248.692014 
L 108.22194 234.07323 
L 108.626655 212.23998 
L 108.829012 206.270116 
L 109.031369 204.371572 
L 109.638441 213.104872 
L 109.840798 218.568458 
L 110.043155 229.031542 
L 110.650227 284.405726 
L 111.054941 298.750276 
L 111.257298 300.669915 
L 111.459655 298.919036 
L 111.662013 287.443395 
L 112.066727 258.015972 
L 112.471442 242.933099 
L 113.887942 174.121447 
L 114.090299 171.73772 
L 114.292656 178.593571 
L 114.495014 190.090306 
L 114.697371 194.710095 
L 115.102085 228.926067 
L 115.709157 278.583526 
L 116.113871 292.611652 
L 116.316228 292.780412 
L 116.518586 291.113913 
L 116.720943 287.46449 
L 117.125657 260.06218 
L 118.542158 154.777398 
L 118.744515 144.609643 
L 118.946872 140.707082 
L 119.149229 144.398694 
L 119.756301 182.496133 
L 120.56573 262.319337 
L 120.970444 282.254043 
L 121.172801 286.367554 
L 121.375159 288.012958 
L 121.577516 286.557408 
L 121.779873 278.583526 
L 122.589302 227.280663 
L 123.196374 201.671421 
L 123.398731 197.072727 
L 123.601088 197.283677 
L 123.803445 196.714114 
L 124.410517 210.193772 
L 124.612874 221.226419 
L 125.219946 277.845203 
L 125.62466 292.463988 
L 125.827017 294.468006 
L 126.029374 291.91552 
L 127.04116 235.191261 
L 127.648232 197.557911 
L 128.255304 154.925063 
L 128.457661 147.330889 
L 128.660018 146.99337 
L 129.26709 191.588046 
L 130.278876 282.971271 
L 130.481233 290.839679 
L 130.68359 292.231944 
L 130.885947 289.637268 
L 132.504805 180.070216 
L 133.111877 137.142039 
L 133.314234 127.670417 
L 133.516591 129.379106 
L 133.921306 144.841688 
L 134.123663 152.309292 
L 135.135449 262.84671 
L 135.540163 275.545856 
L 135.74252 274.596585 
L 135.944878 263.943646 
L 136.349592 232.343446 
L 136.551949 225.529784 
L 136.754306 213.590055 
L 136.956664 218.188749 
L 137.159021 206.818584 
L 137.766092 197.937619 
L 137.96845 198.338423 
L 138.373164 192.895932 
L 138.777879 200.490105 
L 138.980236 201.333903 
L 139.182593 213.210347 
L 139.789665 270.187745 
L 140.194379 285.650326 
L 140.396736 287.738724 
L 140.599093 284.701055 
L 141.003808 254.303265 
L 141.408522 232.997388 
L 142.015594 219.51773 
L 142.622665 210.320342 
L 142.825023 210.046107 
L 143.02738 208.822602 
L 143.229737 209.518734 
L 143.634451 214.834656 
L 143.836809 213.590055 
L 144.039166 223.84219 
L 144.646238 273.499648 
L 145.050952 285.671421 
L 145.253309 286.979307 
L 145.455666 283.815068 
L 145.860381 253.965746 
L 146.062738 237.406228 
L 146.66981 220.825615 
L 146.872167 218.125465 
L 147.074524 217.028528 
L 147.479238 205.848217 
L 147.681596 214.370568 
L 147.883953 215.362029 
L 148.08631 217.998895 
L 148.491024 227.386138 
L 148.693382 226.014967 
L 149.098096 249.83114 
L 149.502811 278.203817 
L 149.907525 291.430337 
L 150.109882 293.518734 
L 150.312239 292.928076 
L 150.514597 290.059166 
L 150.716954 284.258061 
L 151.121668 263.036565 
L 151.526383 242.194776 
L 151.931097 236.288197 
L 152.133454 235.845203 
L 152.335811 237.849221 
L 152.538169 238.376595 
L 152.740526 236.288197 
L 152.942883 236.583526 
L 153.14524 235.592064 
L 153.347597 235.634254 
L 153.549955 232.659869 
L 153.752312 234.895932 
L 154.764098 287.253541 
L 154.966455 291.282672 
L 155.168812 292.696032 
L 155.573527 288.687996 
L 155.775884 277.423305 
L 156.78767 198.127474 
L 157.799456 154.756303 
L 158.001813 156.802511 
L 158.406528 170.23998 
L 158.608885 184.036062 
L 159.215956 253.881366 
L 159.620671 275.86228 
L 159.823028 279.131994 
L 160.025385 278.203817 
L 160.227743 268.225917 
L 160.632457 235.191261 
L 161.8466 183.993872 
L 162.251315 173.762833 
L 162.453672 173.910497 
L 162.656029 176.821597 
L 163.465458 209.20231 
L 164.072529 270.12446 
L 164.477244 289.067705 
L 164.679601 289.405224 
L 164.881958 286.114415 
L 165.084316 275.777901 
L 165.48903 243.439377 
L 166.500816 207.725665 
L 167.310245 164.038071 
L 167.512602 167.45545 
L 167.917316 188.402712 
L 168.119674 192.938122 
L 168.322031 204.498142 
L 168.929102 264.977298 
L 169.333817 280.439879 
L 169.536174 284.026017 
L 169.738531 280.292215 
L 170.143246 252.510196 
L 170.54796 221.648317 
L 171.357389 176.273129 
L 171.559746 170.134505 
L 172.166818 145.49563 
L 172.369175 147.141035 
L 172.571532 155.199297 
L 173.178604 194.878855 
L 173.785675 267.25555 
L 174.19039 287.000402 
L 174.392747 290.038071 
L 174.595104 288.181718 
L 174.999819 263.542843 
L 175.404533 238.081266 
L 177.023391 158.405726 
L 177.225748 158.933099 
L 177.428105 162.92004 
L 177.630462 179.817077 
L 177.83282 182.306278 
L 178.237534 227.238473 
L 178.642248 270.947162 
L 179.046963 290.50216 
L 179.24932 294.299247 
L 179.451677 291.725665 
L 179.654034 282.865796 
L 180.261106 242.258061 
L 181.879964 143.449422 
L 182.082321 140.116424 
L 182.284678 145.896434 
L 183.094107 203.316826 
L 183.498821 243.080763 
L 183.903536 264.956203 
L 184.30825 272.95118 
L 184.510607 274.343446 
L 184.712965 270.630738 
L 184.915322 256.98232 
L 185.724751 173.340934 
L 186.129465 151.52878 
L 186.331822 145.347966 
L 186.53418 144.567454 
L 186.736537 147.16213 
L 187.748323 188.423807 
L 188.557752 253.923556 
L 188.962466 268.394676 
L 189.164823 270.483074 
L 189.36718 270.567454 
L 189.569538 269.808036 
L 189.771895 258.796484 
L 190.986038 160.810547 
L 191.188395 155.389151 
L 191.390752 155.346961 
L 191.795467 164.692014 
L 192.604896 196.671924 
L 193.414325 261.370065 
L 193.819039 275.377097 
L 194.021396 276.474033 
L 194.426111 272.423807 
L 194.628468 263.268609 
L 195.437897 201.017479 
L 195.640254 195.891411 
L 195.842611 197.136012 
L 196.247325 203.337921 
L 196.449683 203.928579 
L 196.65204 203.527775 
L 197.056754 211.923556 
L 197.259112 212.788448 
L 197.461469 221.395178 
L 198.06854 270.841688 
L 198.473255 285.354997 
L 198.675612 285.460472 
L 198.877969 281.72667 
L 199.282684 250.231944 
L 199.687398 226.879859 
L 201.306256 158.933099 
L 201.508613 157.751783 
L 202.115684 177.39116 
L 202.318042 188.803516 
L 202.925113 254.366549 
L 203.329828 272.423807 
L 203.532185 274.57549 
L 203.734542 271.516725 
L 203.936899 259.724661 
L 204.341614 224.939126 
L 205.758114 168.995379 
L 205.960471 166.442893 
L 206.162829 166.590558 
L 206.365186 168.046107 
L 206.7699 180.175691 
L 206.972257 183.445404 
L 207.174615 194.541336 
L 207.781686 254.978302 
L 208.186401 271.516725 
L 208.388758 274.638774 
L 208.591115 271.221396 
L 208.793472 259.070718 
L 209.198187 224.475038 
L 209.805258 201.671421 
L 210.209973 181.314817 
L 210.817044 138.639779 
L 211.019402 129.948669 
L 211.221759 132.986339 
L 211.626473 158.047112 
L 211.82883 163.384129 
L 212.031188 178.467002 
L 212.638259 245.063687 
L 213.042974 264.091311 
L 213.245331 268.183727 
L 213.447688 266.432848 
L 213.650045 255.463486 
L 214.257117 211.164139 
L 214.661831 184.183727 
L 215.47126 123.409242 
L 215.875975 106.280161 
L 216.078332 105.794977 
L 216.280689 111.469513 
L 217.090118 176.779407 
L 217.697189 240.190758 
L 218.101904 259.091813 
L 218.304261 262.530286 
L 218.506618 263.922551 
L 218.708976 262.635761 
L 218.911333 249.599096 
L 219.518404 193.48659 
L 220.125476 157.435359 
L 220.327833 155.220392 
L 220.53019 157.498644 
L 221.541976 200.827624 
L 221.744334 206.101356 
L 222.553762 264.365545 
L 222.958477 275.503666 
L 223.160834 277.254545 
L 223.363191 277.613159 
L 223.565549 276.009945 
L 223.767906 267.086791 
L 224.374977 227.955701 
L 224.779692 220.192767 
L 225.386763 222.30226 
L 225.589121 225.909493 
L 225.791478 226.816575 
L 226.196192 235.40221 
L 226.398549 235.043596 
L 226.600907 241.625213 
L 227.410335 296.535309 
L 227.612693 300.669915 
L 227.81505 302.399699 
L 228.017407 299.129985 
L 228.826836 255.505676 
L 229.029193 253.121949 
L 229.23155 247.236464 
L 230.648051 182.285183 
L 230.850408 182.875841 
L 231.255122 197.64229 
L 231.45748 208.801507 
L 232.064551 274.027022 
L 232.469266 291.620191 
L 232.671623 294.404721 
L 232.87398 293.160121 
L 233.278694 267.25555 
L 233.683409 244.1777 
L 235.302267 178.024008 
L 235.504624 177.412255 
L 236.111695 196.988348 
L 236.314053 207.599096 
L 236.921124 271.242491 
L 237.325839 287.50668 
L 237.528196 290.713109 
L 237.730553 288.540331 
L 238.135267 264.006931 
L 238.539982 241.688498 
L 239.349411 210.003918 
L 239.754125 199.751783 
L 240.15884 189.288699 
L 240.361197 189.03556 
L 240.563554 194.625716 
L 240.968268 212.661878 
L 241.170626 220.424812 
L 241.777697 277.31783 
L 242.182412 293.560924 
L 242.384769 296.11341 
L 242.587126 293.054646 
L 242.99184 267.740733 
L 243.396555 249.345957 
L 245.21777 172.876846 
L 245.420127 177.222401 
L 246.027199 204.666901 
L 246.836627 279.933601 
L 247.038985 288.498142 
L 247.241342 291.74676 
L 247.443699 289.152084 
L 247.848413 265.019488 
L 249.467271 150.305274 
L 249.669628 142.036062 
L 249.871985 140.053139 
L 250.074343 140.221899 
L 250.2767 147.330889 
L 250.883772 180.21788 
L 251.6932 257.003415 
L 252.097915 271.875339 
L 252.300272 275.018483 
L 252.502629 275.292717 
L 252.704986 271.326871 
L 253.109701 237.785937 
L 253.91913 162.814566 
L 254.323844 146.634756 
L 254.728558 137.606128 
L 254.930916 136.319337 
L 255.133273 143.997891 
L 255.740345 182.369563 
L 256.549773 259.387142 
L 256.954488 275.229432 
L 257.156845 279.131994 
L 257.359202 280.840683 
L 257.561559 279.849221 
L 257.966274 250.274134 
L 258.573345 198.675942 
L 258.97806 176.484078 
L 259.382774 165.198292 
L 259.585131 161.675439 
L 259.787489 161.232446 
L 259.989846 163.911502 
L 260.39456 180.281165 
L 260.596917 193.950678 
L 261.203989 257.425314 
L 261.608704 276.579508 
L 261.811061 279.574987 
L 262.013418 278.77338 
L 262.418132 254.23998 
L 262.62049 241.941637 
L 263.025204 232.048117 
L 263.227561 229.179206 
L 263.429918 228.145555 
L 263.834633 229.45344 
L 264.03699 229.137017 
L 264.239347 230.107383 
L 264.441704 230.191763 
L 264.644062 229.917529 
L 264.846419 232.005927 
L 265.048776 236.140532 
L 265.251133 236.140532 
L 265.45349 240.254043 
L 266.060562 283.730688 
L 266.465277 296.872828 
L 266.667634 298.454947 
L 266.869991 294.172677 
L 267.072348 286.030035 
L 267.477063 258.901959 
L 268.084134 236.203817 
L 268.488849 225.677449 
L 269.09592 214.159618 
L 269.500635 210.109392 
L 269.702992 212.345455 
L 269.905349 216.037067 
L 270.107706 216.733199 
L 270.310063 223.188247 
L 270.917135 273.204319 
L 271.32185 285.460472 
L 271.524207 287.654345 
L 271.726564 285.903466 
L 274.15485 140.960221 
L 274.357208 133.619186 
L 274.559565 137.036565 
L 275.166636 162.793471 
L 275.976065 246.308287 
L 276.38078 259.176193 
L 276.583137 258.458965 
L 276.987851 236.098343 
L 277.392566 206.50216 
L 278.404352 148.195781 
L 278.606709 145.073732 
L 279.011423 131.530789 
L 279.213781 129.885384 
L 279.416138 134.252034 
L 280.023209 176.969262 
L 280.630281 250.020994 
L 281.034995 273.351984 
L 281.237353 278.351482 
L 281.43971 276.769362 
L 281.642067 270.736213 
L 282.249139 227.976796 
L 282.85621 193.52878 
L 283.867996 149.714616 
L 284.070354 148.49111 
L 284.272711 156.844701 
L 285.284497 241.920542 
L 285.689211 274.870819 
L 286.093926 289.974787 
L 286.296283 292.316323 
L 286.49864 290.45997 
L 286.700997 287.443395 
L 287.105712 255.674435 
L 287.712783 202.873832 
L 288.522212 158.384631 
L 288.724569 151.085786 
L 288.926927 149.102863 
L 289.129284 152.77338 
L 289.736355 187.411251 
L 290.545784 259.197288 
L 290.950499 274.849724 
L 291.152856 277.697539 
L 291.355213 277.781919 
L 291.55757 276.263084 
L 291.759927 263.479558 
L 292.771714 162.392667 
L 293.176428 139.863285 
L 293.581142 128.345455 
L 293.7835 126.573481 
L 293.985857 130.180713 
L 294.592928 156.338423 
L 295.402357 241.667403 
L 295.807072 256.729181 
L 296.009429 256.560422 
L 296.414143 235.760824 
L 297.830644 97.293722 
L 298.235358 83.645304 
L 298.437715 80.987343 
L 298.640073 81.261577 
L 298.84243 83.37107 
L 299.044787 91.619186 
L 299.449501 119.295731 
L 300.056573 200.363536 
L 300.461287 226.268106 
L 300.663645 232.44892 
L 300.866002 233.187243 
L 301.068359 226.183727 
L 301.473073 195.342943 
L 302.484859 87.273631 
L 302.687217 75.650326 
L 302.889574 75.755801 
L 303.091931 84.067202 
L 303.496646 92.948167 
L 303.90136 115.793973 
L 304.306074 144.483074 
L 304.913146 215.551883 
L 305.31786 241.583024 
L 305.520218 247.299749 
L 305.722575 245.46449 
L 305.924932 238.14455 
L 306.532004 197.114917 
L 307.54379 125.223405 
L 307.746147 114.739227 
L 307.948504 113.832145 
L 308.757933 146.972275 
L 309.162647 173.741738 
L 309.769719 238.439879 
L 310.174433 258.859769 
L 310.376791 263.374083 
L 310.579148 262.783425 
L 310.983862 238.735208 
L 312.198005 131.889402 
L 312.60272 119.949674 
L 312.805077 115.456454 
L 313.007434 116.026017 
L 313.209791 119.823104 
L 313.816863 148.153591 
L 314.01922 162.202813 
L 314.626292 226.479056 
L 315.031006 247.531793 
L 315.233364 252.235962 
L 315.435721 251.560924 
L 315.840435 232.280161 
L 316.24515 213.062682 
L 316.649864 200.72215 
L 317.054578 185.006429 
L 317.66165 177.285686 
L 317.864007 176.821597 
L 318.066364 175.89342 
L 318.268722 180.703064 
L 318.875793 203.443395 
L 319.685222 263.627223 
L 320.089937 276.748267 
L 320.292294 278.435861 
L 320.697008 270.293219 
L 321.101723 243.354997 
L 322.315866 163.320844 
L 322.72058 152.794475 
L 322.922937 150.410748 
L 323.125295 154.650829 
L 323.732366 183.023506 
L 324.541795 253.417278 
L 324.94651 268.099347 
L 325.148867 271.073732 
L 325.351224 271.137017 
L 325.553581 268.816575 
L 325.755938 256.159618 
L 326.970082 140.707082 
L 327.172439 134.209844 
L 327.374796 132.585535 
L 327.77951 126.86881 
L 327.981868 131.994877 
L 328.184225 141.023506 
L 328.791296 194.077248 
L 329.196011 238.988348 
L 329.398368 254.640784 
L 329.803083 265.019488 
L 330.00544 264.049121 
L 330.207797 258.290206 
L 330.814869 208.463988 
L 331.42194 169.206328 
L 331.826655 145.917529 
L 332.029012 142.943144 
L 332.231369 142.964239 
L 332.433726 143.154093 
L 332.636083 145.305776 
L 332.838441 149.967755 
L 333.243155 173.509694 
L 333.445512 182.770367 
L 334.052584 250.274134 
L 334.457298 272.655851 
L 334.659655 278.224912 
L 334.862013 275.756806 
L 335.266727 255.379106 
L 335.671442 230.360522 
L 336.48087 189.16213 
L 336.683228 183.951683 
L 336.885585 182.812557 
L 337.087942 176.462983 
L 337.290299 174.56444 
L 337.695014 181.209342 
L 338.099728 196.060171 
L 338.302085 202.09332 
L 339.111514 269.702562 
L 339.313871 276.07323 
L 339.516228 278.372577 
L 339.718586 274.195781 
L 340.1233 250.210849 
L 340.932729 204.540331 
L 342.349229 141.107885 
L 342.551587 141.023506 
L 343.158658 166.379608 
L 343.76573 230.845706 
L 344.170444 249.345957 
L 344.372801 254.23998 
L 344.575159 252.046107 
L 344.777516 244.937117 
L 345.18223 213.210347 
L 346.194016 128.32436 
L 346.598731 113.157107 
L 347.003445 106.36454 
L 347.205802 105.499648 
L 347.40816 108.769362 
L 347.610517 116.827624 
L 348.015231 143.639277 
L 348.82466 237.237469 
L 349.229374 254.809543 
L 349.431732 254.029031 
L 349.634089 248.080261 
L 349.836446 236.646811 
L 351.050589 129.379106 
L 351.455304 110.520241 
L 351.860018 101.428327 
L 352.062375 100.500151 
L 352.264733 104.233953 
L 352.46709 115.625213 
L 353.276519 200.975289 
L 353.681233 239.937619 
L 354.085947 260.673933 
L 354.288305 266.095329 
L 354.490662 266.685987 
L 354.693019 264.38664 
L 355.097733 221.205324 
L 355.704805 145.369061 
L 356.109519 119.991863 
L 356.716591 101.301758 
L 356.918948 100.183727 
L 357.121306 105.11994 
L 357.52602 131.446409 
L 357.728377 144.483074 
L 358.740163 242.574485 
L 359.144878 255.906479 
L 359.347235 257.826118 
L 359.549592 257.488599 
L 359.751949 243.101858 
L 360.763735 119.169161 
L 361.16845 99.571974 
L 361.573164 88.159618 
L 361.775521 85.796986 
L 361.977879 89.172175 
L 362.180236 96.365545 
L 362.58495 122.860773 
L 363.394379 214.054144 
L 363.799093 232.195781 
L 364.001451 233.039578 
L 364.203808 226.985334 
L 364.406165 216.64882 
L 365.013237 145.137017 
L 365.620308 78.772376 
L 366.025023 62.149573 
L 366.429737 55.8 
L 366.632094 56.306278 
L 366.834451 59.027524 
L 367.036809 67.992868 
L 367.441523 98.010949 
L 368.048595 179.901457 
L 368.453309 211.290708 
L 368.655666 220.066198 
L 368.858024 222.513209 
L 369.060381 218.505173 
L 369.262738 208.358513 
L 369.86981 143.006429 
L 370.476881 83.160121 
L 370.881596 66.052135 
L 371.083953 65.588046 
L 371.28631 66.326369 
L 371.488667 70.376595 
L 371.691024 76.789453 
L 372.298096 116.912004 
L 373.107525 204.413762 
L 373.512239 227.301758 
L 373.714597 231.794977 
L 374.119311 231.07775 
L 374.321668 217.956705 
L 375.333454 111.047614 
L 375.738169 97.399196 
L 375.940526 94.614666 
L 376.142883 93.47554 
L 376.34524 98.812557 
L 376.749955 125.835158 
L 377.559383 186.504169 
L 377.964098 222.196786 
L 378.368812 236.414766 
L 378.57117 236.646811 
L 378.773527 230.529282 
L 378.975884 218.969262 
L 380.392384 98.791462 
L 380.797099 88.560422 
L 381.201813 80.734204 
L 381.40417 84.615671 
L 382.011242 122.776394 
L 382.820671 208.189754 
L 383.225385 224.791462 
L 383.427743 225.466499 
L 383.6301 219.960723 
L 384.034814 197.030537 
L 385.0466 121.320844 
L 385.451315 104.107383 
L 385.653672 103.6222 
L 385.856029 107.524761 
L 386.058386 115.393169 
L 387.070172 187.558915 
L 387.474887 228.926067 
L 387.879601 251.497639 
L 388.284316 260.927072 
L 388.68903 263.521748 
L 388.891387 257.594073 
L 389.700816 212.682973 
L 390.307888 201.122953 
L 390.914959 187.980814 
L 391.117316 192.917027 
L 391.926745 233.735711 
L 392.533817 279.321848 
L 392.938531 292.084279 
L 393.140888 294.003918 
L 393.343246 293.539829 
L 393.545603 294.025013 
L 393.74796 284.785434 
L 394.355032 242.321346 
L 395.569175 184.057157 
L 395.771532 177.855249 
L 395.973889 179.099849 
L 396.176247 187.685485 
L 396.783318 231.056655 
L 397.188033 270.799498 
L 397.592747 289.194274 
L 397.795104 292.063184 
L 397.997461 289.447413 
L 398.402176 270.736213 
L 400.628105 139.061678 
L 400.830462 141.993872 
L 401.03282 152.267102 
L 401.639891 211.121949 
L 402.044606 256.876846 
L 402.44932 277.845203 
L 402.651677 281.979809 
L 402.854034 280.27112 
L 403.258749 261.496635 
L 403.663463 232.174686 
L 404.877607 122.755299 
L 405.282321 101.575992 
L 405.484678 97.230437 
L 405.687035 98.348468 
L 405.889393 109.191261 
L 406.294107 147.752788 
L 406.901179 227.639277 
L 407.305893 252.468006 
L 407.50825 258.248016 
L 407.710607 257.699548 
L 408.115322 235.781919 
L 409.73418 99.276645 
L 409.936537 94.192767 
L 410.138894 94.045103 
L 410.341251 98.791462 
L 410.948323 136.045103 
L 411.15068 152.456956 
L 411.757752 225.29774 
L 412.162466 250.126469 
L 412.364823 256.813561 
L 412.56718 258.64882 
L 412.971895 240.021999 
L 414.388395 138.808538 
L 414.79311 124.843697 
L 415.197824 117.96675 
L 415.400181 124.949171 
L 416.20961 189.478553 
L 416.614325 236.140532 
L 417.019039 259.93561 
L 417.221396 264.323355 
L 417.423753 263.753792 
L 417.828468 247.0888 
L 419.244968 146.276143 
L 419.649683 132.248016 
L 419.85204 128.303265 
L 420.054397 129.77991 
L 420.256754 138.703064 
L 421.066183 205.974787 
L 421.673255 262.720141 
L 422.077969 279.279658 
L 422.280326 281.832145 
L 422.482684 281.157107 
L 422.685041 280.988348 
L 423.089755 249.324862 
L 423.899184 178.234957 
L 424.708613 137.774887 
L 424.91097 134.505173 
L 425.113327 138.618684 
L 425.518042 165.493621 
L 425.720399 177.623204 
L 426.529828 254.345455 
L 426.934542 273.436364 
L 427.136899 278.035058 
L 427.339257 278.85776 
L 427.541614 279.089804 
L 427.743971 270.25103 
L 428.148685 228.778403 
L 428.755757 165.177197 
L 429.160471 138.829633 
L 429.565186 130.349473 
L 429.9699 134.378604 
L 430.374615 151.043596 
L 430.576972 163.00442 
L 431.386401 241.076745 
L 431.791115 253.649322 
L 431.993472 251.560924 
L 432.398187 230.698041 
L 433.207616 163.827122 
L 434.017044 91.534807 
L 434.219402 86.514214 
L 435.02883 114.675942 
L 435.433545 140.348468 
L 436.040617 213.484581 
L 436.445331 236.625716 
L 436.647688 241.899448 
L 436.850045 241.203315 
L 437.25476 220.045103 
L 437.659474 184.183727 
L 438.468903 108.727172 
L 438.67126 98.728177 
L 438.873617 99.719638 
L 439.075975 107.018483 
L 439.278332 106.554395 
L 439.480689 108.853742 
L 439.885403 127.902461 
L 440.290118 153.321848 
L 440.897189 228.715118 
L 441.301904 251.624209 
L 441.504261 257.19327 
L 441.706618 257.741738 
L 442.111333 242.616675 
L 442.920762 189.204319 
L 443.527833 153.406228 
L 444.134905 130.054144 
L 444.337262 127.396183 
L 444.539619 133.9778 
L 445.146691 180.238975 
L 445.753762 251.265595 
L 446.158477 273.03556 
L 446.360834 278.119437 
L 446.563191 276.07323 
L 446.967906 256.665897 
L 448.586763 143.955701 
L 448.991478 130.412757 
L 449.193835 128.029031 
L 449.396192 134.863787 
L 450.003264 176.315319 
L 450.812693 258.48006 
L 451.217407 272.128478 
L 451.419764 272.255048 
L 451.824479 254.619689 
L 452.43155 202.873832 
L 453.038622 159.861276 
L 453.443336 142.373581 
L 453.848051 134.294224 
L 454.050408 137.753792 
L 454.252765 148.005927 
L 454.65748 177.159116 
L 454.859837 185.829131 
L 455.669266 252.257057 
L 456.07398 266.158614 
L 456.276337 267.719638 
L 456.478694 265.67343 
L 456.681052 262.488096 
L 456.883409 254.28217 
L 457.288123 226.563435 
L 457.692838 215.319839 
L 457.895195 216.037067 
L 458.299909 221.943646 
L 458.502267 221.795982 
L 458.906981 217.872325 
L 459.109338 218.420794 
L 459.514053 222.681969 
L 459.71641 227.090809 
L 460.728196 286.304269 
L 461.13291 290.839679 
L 461.537625 287.443395 
L 461.739982 278.288197 
L 462.144696 242.890909 
L 463.561197 171.927574 
L 463.763554 164.481065 
L 463.965911 165.683476 
L 464.572983 185.660372 
L 465.382412 254.366549 
L 465.584769 261.454445 
L 465.787126 264.238975 
L 465.989483 261.749774 
L 467.608341 166.822602 
L 468.620127 145.094827 
L 468.822484 148.301256 
L 469.429556 175.218383 
L 470.036627 233.398192 
L 470.441342 251.645304 
L 470.643699 254.345455 
L 470.846056 251.708589 
L 471.857842 199.477549 
L 472.869628 168.446911 
L 473.071985 168.953189 
L 473.274343 167.117931 
L 473.4767 168.404721 
L 473.679057 172.286188 
L 473.881414 179.036565 
L 474.083772 180.21788 
L 474.286129 188.086288 
L 474.8932 241.540834 
L 475.297915 258.205826 
L 475.500272 259.914515 
L 475.702629 257.826118 
L 476.107344 232.828629 
L 476.512058 210.257057 
L 477.321487 177.960723 
L 477.726201 157.287695 
L 477.928558 153.638272 
L 478.333273 158.447916 
L 478.53563 163.025515 
L 479.142702 188.592567 
L 479.952131 258.100352 
L 480.356845 268.204822 
L 480.559202 267.782923 
L 480.963917 245.126971 
L 482.785131 113.452436 
L 482.987489 107.398192 
L 483.189846 104.698041 
L 483.392203 110.478051 
L 483.999275 151.36002 
L 484.606346 224.285183 
L 485.011061 248.101356 
L 485.213418 252.615671 
L 485.415775 253.586037 
L 485.82049 233.313812 
L 486.225204 201.312808 
L 487.23699 109.043596 
L 487.439347 105.879357 
L 487.844062 112.608639 
L 488.248776 131.699548 
L 489.260562 211.206328 
L 489.665277 244.1777 
L 490.069991 259.661376 
L 490.272348 262.066198 
L 490.474705 260.905977 
L 490.677063 259.091813 
L 490.87942 249.113913 
L 491.891206 167.37107 
L 492.29592 149.208338 
L 492.498277 141.635259 
L 492.700635 139.567956 
L 492.902992 141.234455 
L 493.105349 146.170668 
L 493.712421 180.534304 
L 494.52185 254.345455 
L 495.128921 273.07775 
L 495.331278 273.225414 
L 495.533636 272.592567 
L 495.735993 264.850728 
L 496.950136 171.041587 
L 497.557208 146.065193 
L 497.759565 142.62672 
L 497.961922 145.917529 
L 498.568994 178.213862 
L 499.378422 253.881366 
L 499.58078 260.884882 
L 499.783137 263.437368 
L 499.985494 260.041085 
L 500.187851 251.307785 
L 500.794923 213.463486 
L 500.99728 208.231944 
L 501.401995 194.81557 
L 501.806709 183.276645 
L 502.009066 182.812557 
L 502.211423 184.922049 
L 502.413781 185.575992 
L 502.616138 183.867303 
L 503.020852 193.824108 
L 503.223209 194.393672 
L 503.425567 202.09332 
L 504.032638 254.050126 
L 504.437353 267.445404 
L 504.63971 269.111904 
L 504.842067 266.685987 
L 505.246782 241.709593 
L 505.651496 217.302762 
L 507.270354 142.331391 
L 507.472711 139.146057 
L 507.675068 142.62672 
L 508.28214 171.358011 
L 508.889211 230.824611 
L 509.293926 248.37559 
L 509.496283 251.982823 
L 509.69864 250.105374 
L 510.103354 225.972777 
L 511.722212 116.954194 
L 512.126927 98.749272 
L 512.329284 100.373581 
L 512.936355 135.602109 
L 513.34107 175.513712 
L 513.745784 220.066198 
L 514.150499 243.354997 
L 514.352856 249.071723 
L 514.555213 249.578001 
L 514.75757 240.464992 
L 516.174071 141.29774 
L 516.376428 140.179709 
L 516.781142 149.735711 
L 516.9835 146.930085 
L 517.185857 147.478553 
L 517.590571 165.620191 
L 517.792928 169.965746 
L 517.995286 180.935108 
L 518.4 221.585033 
L 518.4 221.585033 
" clip-path="url(#p592f00e60b)" style="fill: none; stroke: #1f77b4; stroke-width: 1.5; stroke-linecap: square"/>
   </g>
   <g id="line2d_14">
    <path d="M 72 262.535717 
L 72.202357 262.535717 
L 72.404714 263.831782 
L 72.607072 267.026618 
L 72.809429 267.628563 
L 73.011786 264.815763 
L 73.618858 240.897163 
L 73.821215 231.049557 
L 74.225929 203.407592 
L 74.833001 178.45342 
L 75.035358 175.927951 
L 75.237715 175.181198 
L 75.440073 176.452375 
L 75.64243 179.44322 
L 76.047144 192.657279 
L 76.249501 207.99043 
L 76.654216 248.135498 
L 77.261287 272.185573 
L 77.463645 272.98007 
L 79.284859 200.079311 
L 79.891931 162.158005 
L 80.094288 161.160837 
L 80.499003 174.374077 
L 80.903717 197.263785 
L 81.308432 244.335004 
L 82.11786 271.00554 
L 82.320218 270.721074 
L 82.927289 255.942477 
L 83.129646 252.130317 
L 83.736718 230.101556 
L 84.141432 225.456228 
L 84.34379 225.492647 
L 84.546147 224.983527 
L 84.748504 224.977161 
L 85.557933 243.692271 
L 85.962647 251.551825 
L 86.569719 277.662006 
L 86.974433 284.474014 
L 87.176791 283.979457 
L 88.188577 258.30319 
L 88.390934 250.83802 
L 88.795648 245.819178 
L 88.998005 246.584399 
L 89.200363 246.787729 
L 89.40272 248.065558 
L 89.605077 247.114759 
L 90.212149 234.483232 
L 90.414506 235.885091 
L 90.616863 238.572628 
L 90.81922 244.046306 
L 91.426292 273.507864 
L 91.831006 281.959284 
L 92.033364 281.567443 
L 92.438078 270.185245 
L 92.842792 251.117418 
L 93.247507 244.990008 
L 93.449864 243.718062 
L 93.652221 243.287083 
L 93.854578 246.926429 
L 94.056936 244.230346 
L 94.46165 232.815207 
L 94.664007 232.803335 
L 94.866364 235.043733 
L 95.068722 234.419895 
L 95.271079 237.677019 
L 95.675793 249.330442 
L 96.080508 270.427105 
L 96.485222 280.97288 
L 96.687579 283.689538 
L 96.889937 283.014814 
L 97.497008 256.921575 
L 98.10408 240.949938 
L 98.306437 239.93988 
L 98.508794 240.302693 
L 98.711151 244.203578 
L 98.913509 240.795706 
L 99.318223 227.473013 
L 99.52058 227.522593 
L 99.722937 229.430533 
L 99.925295 229.545733 
L 100.127652 233.215601 
L 101.139438 274.641954 
L 101.544152 283.189925 
L 101.74651 282.171682 
L 102.353581 256.948901 
L 102.758296 246.832545 
L 102.960653 241.964266 
L 103.16301 241.002388 
L 103.365367 242.088246 
L 103.567724 244.112434 
L 103.770082 238.76835 
L 104.174796 222.065188 
L 104.377153 221.3874 
L 104.57951 223.957592 
L 104.781868 223.900576 
L 104.984225 228.445123 
L 105.591296 257.981386 
L 105.996011 273.505494 
L 106.400725 281.787851 
L 106.603083 281.03162 
L 107.412511 250.221133 
L 107.817226 241.076145 
L 108.019583 239.916296 
L 108.22194 238.102248 
L 108.424297 235.13704 
L 109.031369 204.142395 
L 109.233726 203.413286 
L 109.840798 218.972238 
L 110.245512 246.543549 
L 111.054941 276.30196 
L 111.257298 278.831889 
L 111.459655 277.042004 
L 112.673799 236.101138 
L 112.876156 224.019004 
L 113.28087 213.107822 
L 113.887942 184.66173 
L 114.090299 181.102803 
L 114.292656 183.556815 
L 114.697371 198.154188 
L 114.899728 209.552635 
L 115.304442 248.367453 
L 115.911514 267.973826 
L 116.113871 273.406686 
L 116.316228 273.686705 
L 116.9233 258.556021 
L 117.125657 254.266461 
L 117.732729 225.991753 
L 118.744515 158.46289 
L 118.946872 154.406127 
L 119.149229 155.895308 
L 119.351587 162.024166 
L 119.958658 202.789138 
L 120.363373 245.516123 
L 120.970444 265.561389 
L 121.172801 267.499126 
L 121.375159 266.489617 
L 121.779873 257.13174 
L 122.184587 243.34071 
L 122.589302 228.630836 
L 122.994016 213.603054 
L 123.398731 201.061969 
L 123.601088 197.058087 
L 123.803445 196.925587 
L 124.20816 209.695255 
L 125.017588 248.695389 
L 125.422303 269.131015 
L 125.827017 278.175991 
L 126.029374 276.527333 
L 126.434089 263.458684 
L 126.838803 242.886438 
L 127.648232 211.023287 
L 128.660018 159.916918 
L 128.862375 163.750922 
L 129.26709 186.921863 
L 130.076519 260.56359 
L 130.278876 266.556302 
L 130.68359 271.303577 
L 130.885947 269.569459 
L 132.302448 206.253086 
L 133.314234 152.122236 
L 133.516591 149.155234 
L 133.718948 153.159498 
L 134.123663 169.747927 
L 134.32602 180.170545 
L 135.135449 255.043232 
L 135.337806 262.929653 
L 135.540163 265.714387 
L 135.74252 264.200696 
L 136.956664 210.107085 
L 137.159021 207.744792 
L 137.361378 203.287546 
L 137.563735 203.345847 
L 137.766092 199.544155 
L 137.96845 200.874059 
L 138.170807 199.056951 
L 138.777879 215.241682 
L 139.182593 224.04443 
L 139.992022 268.130476 
L 140.194379 276.471701 
L 140.396736 277.409553 
L 140.599093 277.512705 
L 141.408522 234.837589 
L 141.813237 226.187962 
L 142.015594 216.320487 
L 142.217951 214.092313 
L 142.420308 215.494791 
L 142.622665 214.605766 
L 142.825023 211.169047 
L 143.02738 210.775476 
L 144.039166 237.398439 
L 145.253309 279.098663 
L 145.455666 275.897784 
L 147.074524 214.073641 
L 147.276881 217.559713 
L 147.681596 208.877943 
L 147.883953 211.250619 
L 148.693382 240.340252 
L 149.300453 258.551401 
L 149.705168 271.376972 
L 149.907525 276.099603 
L 150.109882 277.725558 
L 150.312239 275.594159 
L 152.133454 228.337162 
L 152.335811 228.704619 
L 152.538169 233.518087 
L 152.942883 238.339937 
L 153.14524 241.224689 
L 153.347597 241.976928 
L 153.549955 243.455966 
L 153.954669 247.953547 
L 154.966455 278.224825 
L 155.168812 279.983818 
L 155.37117 277.268525 
L 155.978241 262.937388 
L 156.585313 233.725961 
L 156.990027 196.520082 
L 157.394742 175.988357 
L 157.597099 169.941095 
L 157.799456 167.916431 
L 158.001813 169.340599 
L 158.20417 173.811508 
L 158.811242 203.490256 
L 159.215956 247.465792 
L 159.823028 269.813454 
L 160.025385 269.079612 
L 160.227743 264.749065 
L 160.632457 244.852536 
L 161.441886 199.173524 
L 161.8466 187.647587 
L 162.251315 175.662029 
L 162.453672 173.697604 
L 162.656029 177.692102 
L 163.465458 218.018701 
L 163.870172 249.012835 
L 164.274887 266.954461 
L 164.679601 276.411942 
L 164.881958 275.018647 
L 165.691387 233.755375 
L 165.893744 230.855398 
L 166.096102 225.65539 
L 166.298459 216.476171 
L 166.703173 209.185595 
L 167.107888 186.91576 
L 167.310245 176.010976 
L 167.512602 173.10372 
L 167.917316 186.65333 
L 168.322031 212.174374 
L 168.726745 248.08687 
L 169.13146 262.949389 
L 169.536174 271.922733 
L 169.738531 270.840111 
L 170.345603 243.959327 
L 170.750317 226.162462 
L 171.357389 179.627629 
L 172.166818 156.785179 
L 172.369175 158.101037 
L 172.976247 184.830164 
L 173.380961 221.443473 
L 173.785675 256.751969 
L 174.19039 269.699735 
L 174.392747 273.480747 
L 174.595104 270.849722 
L 177.023391 173.751557 
L 177.225748 172.000445 
L 177.630462 180.426394 
L 178.035177 201.656436 
L 178.642248 258.610327 
L 179.046963 271.873727 
L 179.24932 275.328692 
L 179.451677 274.352073 
L 181.272892 190.097598 
L 181.677607 168.040126 
L 181.879964 158.810184 
L 182.082321 158.452765 
L 182.284678 160.845453 
L 182.487035 167.150806 
L 182.89175 191.575819 
L 183.701179 253.795289 
L 184.105893 261.974962 
L 184.30825 263.736146 
L 184.712965 253.380137 
L 185.117679 242.694846 
L 185.320036 232.392428 
L 186.331822 147.148139 
L 186.53418 144.31538 
L 186.736537 144.530616 
L 186.938894 149.417202 
L 188.557752 250.23573 
L 188.962466 260.670401 
L 189.164823 262.697789 
L 189.36718 260.357773 
L 189.771895 246.625178 
L 190.581324 207.861189 
L 190.986038 170.160029 
L 191.390752 151.661025 
L 191.59311 149.967628 
L 191.795467 154.762199 
L 193.414325 253.95392 
L 193.819039 265.378332 
L 194.021396 266.210085 
L 194.223753 264.057604 
L 194.830825 242.489212 
L 196.044968 188.364143 
L 196.449683 198.930705 
L 197.259112 226.549693 
L 197.663826 239.435426 
L 198.473255 272.523774 
L 198.675612 276.420439 
L 198.877969 275.299941 
L 199.282684 259.914087 
L 199.687398 235.534602 
L 199.889755 229.511248 
L 200.699184 192.347364 
L 201.306256 170.092286 
L 201.508613 170.424035 
L 201.913327 181.173384 
L 202.318042 198.343665 
L 203.127471 259.031515 
L 203.532185 269.737631 
L 203.734542 268.257747 
L 204.948685 205.415842 
L 205.151043 189.915208 
L 205.555757 179.551409 
L 206.162829 164.484289 
L 206.365186 169.678698 
L 207.174615 203.833628 
L 207.781686 252.061783 
L 208.186401 265.583855 
L 208.388758 269.596949 
L 208.591115 267.726845 
L 208.99583 244.517346 
L 209.198187 232.872786 
L 209.400544 228.136186 
L 209.602901 219.545358 
L 210.007616 189.475915 
L 210.41233 177.686278 
L 211.019402 143.25553 
L 211.221759 140.748554 
L 211.424116 146.204463 
L 212.031188 182.828746 
L 212.638259 246.952191 
L 213.245331 263.086131 
L 213.447688 262.142941 
L 214.459474 214.238319 
L 215.066546 162.51047 
L 215.47126 142.794127 
L 215.875975 122.8347 
L 216.078332 125.497442 
L 216.483046 138.71388 
L 216.887761 165.31881 
L 217.292475 207.948754 
L 217.494832 231.35511 
L 217.899547 247.320682 
L 218.101904 252.953906 
L 218.304261 255.458038 
L 219.316047 227.708314 
L 220.327833 164.412253 
L 220.53019 160.496577 
L 220.732548 160.800388 
L 220.934905 165.308352 
L 221.946691 231.075518 
L 222.149048 236.609654 
L 222.553762 255.315369 
L 222.958477 265.297966 
L 223.160834 266.638885 
L 223.363191 263.504698 
L 223.970263 243.085136 
L 224.374977 229.367242 
L 224.982049 215.253855 
L 225.184406 215.832019 
L 225.791478 224.135436 
L 226.398549 241.677724 
L 226.803264 250.748414 
L 227.612693 279.903906 
L 227.81505 282.378947 
L 228.017407 280.419122 
L 228.422121 266.472219 
L 228.826836 247.543351 
L 229.23155 238.67487 
L 229.838622 230.781954 
L 230.243336 208.418854 
L 230.648051 191.252981 
L 230.850408 190.599204 
L 231.052765 192.535451 
L 231.255122 196.436387 
L 231.45748 206.560735 
L 232.064551 257.338182 
L 232.469266 270.804529 
L 232.671623 275.102787 
L 232.87398 275.24213 
L 233.278694 260.173633 
L 234.695195 207.896374 
L 235.302267 186.171922 
L 235.504624 184.32885 
L 235.706981 188.606722 
L 236.111695 202.641574 
L 236.314053 212.987488 
L 236.718767 248.315563 
L 237.123481 265.467227 
L 237.528196 275.535778 
L 237.730553 274.927016 
L 238.944696 227.888677 
L 239.349411 211.798654 
L 239.551768 209.016828 
L 239.956482 200.072445 
L 240.15884 197.641148 
L 240.361197 196.823355 
L 240.563554 201.059198 
L 240.968268 218.578386 
L 241.777697 263.706818 
L 242.182412 273.881097 
L 242.384769 277.423464 
L 242.587126 277.310701 
L 242.789483 270.394804 
L 243.194198 250.717279 
L 245.015413 187.107173 
L 245.21777 182.585437 
L 245.420127 184.74273 
L 245.622484 189.634503 
L 245.824841 197.297541 
L 246.027199 209.381256 
L 246.431913 246.407083 
L 246.836627 263.32637 
L 247.241342 274.2044 
L 247.443699 274.877625 
L 247.848413 258.91811 
L 248.657842 224.20576 
L 249.467271 163.831916 
L 249.871985 148.779458 
L 250.074343 149.911432 
L 250.479057 168.106344 
L 251.086129 208.932151 
L 251.490843 245.108154 
L 251.895558 257.784796 
L 252.097915 262.552294 
L 252.300272 263.963878 
L 252.502629 260.293093 
L 253.312058 231.979094 
L 253.716772 200.892439 
L 254.121487 161.873667 
L 254.526201 146.617289 
L 254.728558 143.160458 
L 254.930916 144.277811 
L 255.133273 151.040101 
L 255.740345 189.910585 
L 256.549773 252.184194 
L 256.954488 263.116113 
L 257.156845 265.245179 
L 257.359202 262.597213 
L 257.763917 250.150503 
L 258.370988 227.650539 
L 258.775703 201.888378 
L 259.180417 175.932923 
L 259.585131 164.977802 
L 259.787489 164.089834 
L 259.989846 169.172306 
L 260.39456 187.529331 
L 260.799275 214.276626 
L 261.203989 250.383646 
L 261.608704 266.275405 
L 261.811061 268.85363 
L 262.013418 269.691027 
L 262.215775 265.216011 
L 262.62049 244.629469 
L 262.822847 233.423137 
L 263.227561 224.447339 
L 263.429918 219.377601 
L 263.632276 220.259223 
L 263.834633 222.591284 
L 264.03699 222.947736 
L 264.239347 222.05834 
L 264.441704 223.140559 
L 265.048776 234.8351 
L 265.45349 244.765448 
L 265.858205 262.241095 
L 266.262919 276.803322 
L 266.465277 280.388954 
L 266.667634 281.610484 
L 266.869991 280.160249 
L 267.881777 244.02359 
L 268.488849 229.929869 
L 268.893563 221.345697 
L 269.09592 214.873971 
L 269.298277 212.26715 
L 269.500635 213.285272 
L 270.107706 227.089873 
L 271.119492 267.530358 
L 271.524207 276.377552 
L 271.726564 276.642878 
L 272.131278 261.683992 
L 272.940707 227.570982 
L 273.952493 163.541548 
L 274.15485 158.167748 
L 274.357208 156.638813 
L 274.559565 156.455718 
L 274.761922 161.335788 
L 275.368994 191.140698 
L 275.976065 246.969831 
L 276.178422 255.776907 
L 276.583137 260.770163 
L 276.987851 243.730621 
L 277.594923 208.288746 
L 278.404352 150.997771 
L 279.011423 136.406249 
L 279.213781 135.11465 
L 279.618495 148.210372 
L 280.023209 174.682001 
L 280.832638 255.351329 
L 281.034995 262.127877 
L 281.43971 266.018307 
L 283.867996 164.555339 
L 284.070354 161.02612 
L 284.272711 163.386686 
L 284.475068 171.622394 
L 284.879782 203.148552 
L 285.486854 255.322238 
L 285.891568 267.945189 
L 286.093926 270.020482 
L 286.296283 270.470582 
L 286.49864 267.222331 
L 286.903354 252.298681 
L 287.105712 246.977117 
L 287.712783 221.114111 
L 288.319855 178.584228 
L 288.724569 163.54604 
L 288.926927 160.264103 
L 289.129284 162.986553 
L 289.533998 181.45787 
L 289.938713 209.888258 
L 290.343427 246.748444 
L 290.748141 259.95311 
L 291.152856 266.065321 
L 291.355213 264.800378 
L 291.759927 253.352475 
L 292.164642 234.474125 
L 292.569356 204.968001 
L 292.974071 160.633248 
L 293.378785 141.193733 
L 293.7835 136.988438 
L 293.985857 142.571579 
L 294.997643 205.200188 
L 295.402357 244.02229 
L 295.807072 255.76957 
L 296.009429 259.113688 
L 296.211786 255.732024 
L 296.818858 222.244953 
L 297.223572 176.549708 
L 297.628286 129.416989 
L 298.033001 109.42396 
L 298.235358 104.816899 
L 298.437715 106.625462 
L 298.640073 110.700205 
L 299.651859 166.764765 
L 300.25893 225.071279 
L 300.461287 235.11933 
L 300.663645 239.525199 
L 300.866002 238.454476 
L 301.068359 235.254084 
L 301.473073 222.153099 
L 301.877788 186.984647 
L 302.484859 122.705596 
L 302.889574 104.558295 
L 303.091931 102.039739 
L 303.699003 129.05565 
L 304.710789 200.881527 
L 304.913146 220.902254 
L 305.520218 239.624349 
L 305.722575 238.839556 
L 305.924932 236.433768 
L 306.329646 226.003161 
L 307.139075 178.49261 
L 307.746147 144.360561 
L 308.150861 129.130319 
L 308.353218 132.788186 
L 308.96029 163.101521 
L 309.365005 197.628246 
L 309.769719 233.610855 
L 310.174433 251.818779 
L 310.376791 255.151965 
L 310.579148 252.11499 
L 310.781505 246.125417 
L 310.983862 235.460154 
L 311.186219 231.200278 
L 311.388577 223.617406 
L 312.60272 131.769232 
L 312.805077 128.619903 
L 313.007434 128.277377 
L 313.209791 132.940704 
L 313.816863 166.93614 
L 314.221578 193.444737 
L 314.626292 230.050692 
L 315.031006 246.046295 
L 315.233364 251.810231 
L 315.435721 250.304716 
L 316.852221 195.394025 
L 317.256936 188.691464 
L 317.459293 185.676567 
L 317.864007 177.126201 
L 318.066364 177.636278 
L 318.673436 192.932937 
L 319.07815 217.281788 
L 319.482865 250.54079 
L 319.887579 263.588563 
L 320.089937 268.798843 
L 320.292294 268.335954 
L 320.494651 262.937509 
L 320.899365 246.810503 
L 321.101723 242.034527 
L 321.708794 217.579337 
L 322.315866 171.795718 
L 322.72058 156.725408 
L 322.922937 155.744521 
L 323.327652 168.198526 
L 323.934723 207.551153 
L 324.339438 243.80829 
L 324.744152 257.354554 
L 324.94651 261.991552 
L 325.148867 263.050888 
L 325.351224 262.64092 
L 325.958296 241.651757 
L 326.36301 219.521136 
L 327.172439 139.872582 
L 327.374796 132.305964 
L 327.577153 131.032231 
L 327.77951 133.618362 
L 328.184225 153.186443 
L 328.791296 195.480279 
L 329.196011 239.630456 
L 329.600725 255.10836 
L 329.803083 259.314513 
L 330.00544 259.537676 
L 330.207797 256.62768 
L 330.814869 226.042053 
L 332.029012 148.744189 
L 332.231369 146.176711 
L 332.433726 146.758349 
L 332.636083 149.259853 
L 333.040798 168.730337 
L 333.647869 207.450051 
L 334.052584 247.115569 
L 334.457298 260.258863 
L 334.659655 264.628561 
L 334.862013 266.481902 
L 335.06437 259.495609 
L 335.469084 234.863116 
L 335.873799 226.988217 
L 336.278513 206.548536 
L 336.683228 189.101301 
L 337.087942 180.998517 
L 337.290299 178.483069 
L 337.492656 177.63772 
L 338.504442 230.187613 
L 338.909157 254.224878 
L 339.313871 267.625654 
L 339.516228 271.534308 
L 339.718586 271.778732 
L 339.920943 263.8523 
L 340.528015 231.858903 
L 340.730372 228.345956 
L 341.944515 162.70747 
L 342.349229 154.106558 
L 342.551587 155.46265 
L 342.753944 160.603138 
L 343.158658 180.174223 
L 343.361015 192.425036 
L 343.968087 248.345538 
L 344.170444 255.14284 
L 344.372801 257.089395 
L 344.575159 257.299518 
L 345.18223 230.460013 
L 345.384587 219.303001 
L 345.789302 172.141467 
L 346.194016 126.039577 
L 346.598731 112.928669 
L 346.801088 110.72476 
L 347.003445 113.686206 
L 347.205802 118.808348 
L 348.217588 174.010981 
L 348.82466 235.035647 
L 349.229374 249.132766 
L 349.431732 249.277931 
L 349.634089 243.643835 
L 349.836446 233.699495 
L 350.038803 230.650786 
L 350.24116 222.253434 
L 351.252947 138.664829 
L 351.657661 125.390401 
L 351.860018 124.038095 
L 352.062375 124.302024 
L 352.46709 137.849628 
L 352.871804 161.152667 
L 353.276519 202.547473 
L 353.681233 238.914501 
L 354.085947 250.50021 
L 354.288305 251.107172 
L 354.490662 249.714206 
L 355.097733 231.228355 
L 355.300091 224.875651 
L 355.704805 186.761484 
L 356.109519 145.945448 
L 356.514234 131.5816 
L 356.918948 129.942887 
L 357.323663 144.516365 
L 357.930734 180.609117 
L 358.537806 233.429105 
L 358.94252 248.412621 
L 359.144878 250.338728 
L 359.347235 249.351434 
L 359.954306 231.228355 
L 360.156664 219.700308 
L 361.16845 123.013732 
L 361.370807 118.190358 
L 361.573164 118.58737 
L 361.775521 119.321263 
L 361.977879 124.684747 
L 362.787307 166.545139 
L 363.596736 233.864041 
L 363.799093 240.223298 
L 364.001451 240.955371 
L 364.203808 237.807039 
L 364.608522 223.723333 
L 365.215594 158.917469 
L 365.620308 114.069903 
L 365.822665 101.711162 
L 366.22738 94.014634 
L 366.632094 103.680765 
L 367.64388 155.523934 
L 368.453309 222.213131 
L 368.655666 231.027419 
L 368.858024 234.603088 
L 369.262738 228.83862 
L 369.465095 223.002638 
L 369.86981 194.013467 
L 370.679238 123.116013 
L 371.083953 108.014087 
L 371.28631 109.080196 
L 371.488667 113.073522 
L 372.095739 139.034441 
L 372.500453 162.850594 
L 373.309882 223.924831 
L 373.512239 231.632098 
L 373.714597 235.015171 
L 374.321668 229.117955 
L 374.524025 222.179453 
L 374.92874 190.472071 
L 375.535811 134.684248 
L 375.940526 119.546034 
L 376.142883 118.676938 
L 376.34524 119.512483 
L 376.547597 125.864479 
L 377.154669 164.30418 
L 377.964098 223.983874 
L 378.368812 235.363133 
L 378.57117 236.320283 
L 378.773527 235.057721 
L 378.975884 229.031431 
L 379.380598 204.633442 
L 380.392384 116.100674 
L 380.594742 110.268079 
L 380.797099 108.342369 
L 380.999456 107.56894 
L 381.201813 108.768151 
L 381.40417 112.719968 
L 381.808885 133.50904 
L 382.213599 157.354771 
L 382.820671 217.521678 
L 383.225385 232.181197 
L 383.427743 233.379022 
L 383.832457 226.660124 
L 384.237171 206.213782 
L 384.237171 206.213782 
" clip-path="url(#p592f00e60b)" style="fill: none; stroke: #ff7f0e; stroke-width: 1.5; stroke-linecap: square"/>
   </g>
   <g id="line2d_15">
    <path d="M 384.439529 192.379756 
L 384.641886 189.491838 
L 385.856029 152.990481 
L 386.260743 137.409947 
L 386.463101 131.362006 
L 386.867815 107.277387 
L 387.070172 102.012711 
L 387.879601 128.651929 
L 388.68903 183.126207 
L 388.891387 190.514849 
L 389.296102 224.135843 
L 389.498459 228.268413 
L 389.700816 226.247532 
L 389.903173 220.718367 
L 390.10553 220.867566 
L 390.307888 218.564514 
L 390.510245 213.968749 
L 391.522031 155.660586 
L 392.129102 110.31524 
L 392.533817 89.822642 
L 392.736174 84.269617 
L 392.938531 90.008749 
L 393.74796 153.577264 
L 394.355032 230.404222 
L 394.962103 237.130063 
L 395.164461 235.71377 
L 395.569175 222.285 
L 396.378604 194.071416 
L 396.783318 173.173987 
L 396.985675 168.919776 
L 397.188033 161.974942 
L 397.795104 131.740647 
L 398.402176 123.344231 
L 398.604533 122.844093 
L 398.80689 130.522609 
L 399.616319 185.270249 
L 400.021034 228.013735 
L 400.223391 233.346687 
L 400.425748 233.110911 
L 400.628105 233.388101 
L 400.830462 231.920957 
L 401.03282 228.58037 
L 401.437534 210.100587 
L 401.842248 191.765188 
L 402.246963 156.128512 
L 402.651677 121.366516 
L 403.258749 90.088859 
L 403.461106 88.897849 
L 403.663463 97.665107 
L 404.270535 140.654385 
L 404.675249 187.389825 
L 405.079964 231.228355 
L 405.687035 238.3397 
L 405.889393 235.57847 
L 406.698821 210.532302 
L 407.103536 190.173466 
L 407.50825 170.743551 
L 407.912965 155.428478 
L 408.520036 127.25971 
L 408.924751 122.926254 
L 409.127108 122.807415 
L 409.329465 126.075422 
L 409.73418 150.265826 
L 410.138894 179.253268 
L 410.745966 233.651016 
L 410.948323 235.084285 
L 411.15068 234.660908 
L 411.353037 233.396168 
L 411.757752 225.31021 
L 412.56718 182.229198 
L 413.578966 104.492461 
L 413.983681 90.891981 
L 414.186038 94.665111 
L 414.79311 135.160491 
L 415.197824 175.440199 
L 415.602539 226.663648 
L 416.007253 236.433146 
L 416.20961 237.655105 
L 416.411967 237.113714 
L 417.019039 219.89563 
L 417.423753 205.751077 
L 418.233182 165.089598 
L 418.637897 146.247997 
L 419.042611 125.970123 
L 419.244968 121.857607 
L 419.447325 120.02181 
L 419.649683 120.892112 
L 419.85204 122.888999 
L 420.256754 144.602755 
L 420.863826 195.392035 
L 421.26854 232.429084 
L 421.470898 236.285367 
L 421.673255 235.714949 
L 421.875612 233.835293 
L 422.280326 227.13223 
L 422.685041 209.037461 
L 423.089755 186.977037 
L 424.303898 100.899537 
L 424.506256 94.246633 
L 424.708613 94.306303 
L 425.113327 115.598485 
L 425.720399 165.599841 
L 426.327471 231.228355 
L 426.529828 235.550635 
L 426.732185 237.206956 
L 426.934542 237.788614 
L 427.339257 228.97902 
L 427.946328 208.233806 
L 429.160471 147.828073 
L 429.565186 125.569626 
L 429.767543 119.916672 
L 429.9699 117.845621 
L 430.172257 119.238706 
L 430.374615 121.716738 
L 430.576972 128.379593 
L 430.981686 156.425371 
L 431.993472 236.505169 
L 432.19583 236.453603 
L 432.398187 234.399014 
L 432.802901 227.858842 
L 433.005258 221.959444 
L 433.814687 175.882546 
L 434.624116 115.213431 
L 435.02883 97.101775 
L 435.231188 95.158111 
L 435.433545 101.10026 
L 436.040617 141.408623 
L 436.445331 183.149339 
L 436.850045 228.916336 
L 437.25476 236.799535 
L 437.457117 237.639114 
L 437.659474 235.552355 
L 438.266546 217.384336 
L 438.67126 201.678927 
L 440.087761 126.379387 
L 440.290118 118.779782 
L 440.492475 115.982515 
L 440.694832 116.488664 
L 440.897189 119.692759 
L 441.099547 125.032713 
L 441.504261 151.955276 
L 442.516047 235.281672 
L 442.718404 236.58888 
L 442.920762 235.040625 
L 443.325476 228.65638 
L 443.527833 223.60315 
L 444.134905 193.550107 
L 445.551405 100.340909 
L 445.753762 96.418465 
L 445.95612 99.839925 
L 446.360834 122.346031 
L 446.765549 153.25309 
L 447.574977 232.325326 
L 447.777335 236.528141 
L 447.979692 237.538506 
L 448.182049 236.623091 
L 448.789121 220.220837 
L 449.396192 193.793165 
L 450.003264 160.299525 
L 451.01505 114.655777 
L 451.217407 114.283101 
L 451.622121 122.50998 
L 452.026836 147.265529 
L 453.038622 234.238544 
L 453.240979 236.971125 
L 453.443336 236.005214 
L 453.848051 229.58289 
L 454.050408 225.213536 
L 454.65748 196.5726 
L 456.276337 98.397898 
L 456.478694 99.378912 
L 456.883409 118.974501 
L 457.288123 147.909297 
L 458.097552 231.228355 
L 458.299909 235.931614 
L 458.502267 237.48199 
L 458.704624 237.274468 
L 459.109338 228.663699 
L 459.514053 214.83452 
L 459.918767 196.853583 
L 460.930553 141.434978 
L 461.335267 119.197427 
L 461.537625 113.810824 
L 461.739982 112.983621 
L 461.942339 116.104134 
L 462.144696 121.347024 
L 462.549411 143.878287 
L 463.763554 237.183014 
L 463.965911 236.724763 
L 464.370626 230.072697 
L 464.572983 226.448452 
L 464.977697 209.0904 
L 465.382412 186.239742 
L 466.596555 106.360937 
L 466.798912 99.938348 
L 467.001269 99.405197 
L 467.203626 105.703091 
L 467.608341 129.523435 
L 468.013055 163.486698 
L 468.620127 229.406163 
L 468.822484 234.893221 
L 469.024841 237.166007 
L 469.227199 237.46061 
L 469.429556 234.461183 
L 469.83427 224.509668 
L 470.441342 199.250824 
L 471.857842 120.087592 
L 472.060199 113.44835 
L 472.262557 111.781309 
L 472.464914 114.508898 
L 472.869628 127.740714 
L 473.274343 157.498112 
L 474.083772 232.503069 
L 474.286129 237.142289 
L 474.488486 237.165568 
L 474.690843 234.693775 
L 475.297915 220.476983 
L 475.904986 189.098946 
L 477.11913 109.211299 
L 477.321487 101.725528 
L 477.523844 99.73262 
L 477.726201 104.580799 
L 478.130916 126.870285 
L 478.53563 158.913976 
L 479.142702 226.601442 
L 479.547416 236.835813 
L 479.749773 237.476707 
L 479.952131 235.365561 
L 480.559202 218.149371 
L 480.963917 201.465405 
L 482.582774 113.052133 
L 482.785131 110.681341 
L 482.987489 112.351932 
L 483.392203 125.082194 
L 483.796917 153.829781 
L 484.808704 236.591587 
L 485.011061 237.230796 
L 485.213418 235.355275 
L 485.82049 222.087415 
L 486.427561 192.308239 
L 487.641704 112.920351 
L 487.844062 104.230846 
L 488.046419 100.561105 
L 488.248776 103.763131 
L 488.65349 123.756917 
L 489.058205 153.611392 
L 489.867634 232.104139 
L 490.069991 236.542075 
L 490.272348 237.557297 
L 490.474705 236.301185 
L 491.081777 220.553003 
L 491.688849 193.036064 
L 492.700635 134.494418 
L 493.105349 113.495012 
L 493.307706 109.736363 
L 493.510063 110.561387 
L 493.914778 122.701739 
L 494.319492 149.535047 
L 495.331278 235.202855 
L 495.533636 237.111961 
L 495.735993 236.012451 
L 496.343064 223.852082 
L 496.950136 194.998375 
L 498.366636 106.641033 
L 498.568994 101.647354 
L 498.771351 103.078065 
L 499.176065 120.812976 
L 499.58078 148.824498 
L 500.390209 230.865973 
L 500.592566 235.939925 
L 500.794923 237.521766 
L 500.99728 236.921068 
L 501.401995 228.623247 
L 501.806709 214.691646 
L 502.211423 195.900458 
L 503.425567 125.008819 
L 503.830281 109.677963 
L 504.032638 109.772734 
L 504.234995 114.105991 
L 504.63971 131.447197 
L 505.044424 163.953375 
L 505.853853 234.268105 
L 506.05621 237.301422 
L 506.258568 236.733942 
L 506.663282 229.625982 
L 506.865639 225.159275 
L 507.472711 197.32687 
L 508.889211 108.470755 
L 509.091568 102.555679 
L 509.293926 102.635404 
L 509.496283 108.62026 
L 509.900997 130.631695 
L 510.305712 164.689011 
L 510.912783 228.782731 
L 511.115141 234.877644 
L 511.317498 237.278496 
L 511.519855 237.171073 
L 511.924569 229.389219 
L 512.126927 224.427031 
L 512.733998 198.065392 
L 514.150499 116.010645 
L 514.352856 109.738363 
L 514.555213 108.797063 
L 514.75757 112.587225 
L 515.162285 128.975854 
L 515.566999 160.371952 
L 516.376428 233.357178 
L 516.578785 237.219249 
L 516.781142 237.125017 
L 517.185857 230.105539 
L 517.388214 226.236685 
L 517.995286 199.44774 
L 518.4 173.450854 
L 518.4 173.450854 
" clip-path="url(#p592f00e60b)" style="fill: none; stroke: #2ca02c; stroke-width: 1.5; stroke-linecap: square"/>
   </g>
   <g id="patch_3">
    <path d="M 72 320.4 
L 72 43.2 
" style="fill: none; stroke: #000000; stroke-width: 0.8; stroke-linejoin: miter; stroke-linecap: square"/>
   </g>
   <g id="patch_4">
    <path d="M 518.4 320.4 
L 518.4 43.2 
" style="fill: none; stroke: #000000; stroke-width: 0.8; stroke-linejoin: miter; stroke-linecap: square"/>
   </g>
   <g id="patch_5">
    <path d="M 72 320.4 
L 518.4 320.4 
" style="fill: none; stroke: #000000; stroke-width: 0.8; stroke-linejoin: miter; stroke-linecap: square"/>
   </g>
   <g id="patch_6">
    <path d="M 72 43.2 
L 518.4 43.2 
" style="fill: none; stroke: #000000; stroke-width: 0.8; stroke-linejoin: miter; stroke-linecap: square"/>
   </g>
   <g id="text_13">
    <!-- Classic Transformer - model_20231126190846 -->
    <g transform="translate(155.436563 37.2) scale(0.12 -0.12)">
     <defs>
      <path id="DejaVuSans-43" d="M 4122 4306 
L 4122 3641 
Q 3803 3938 3442 4084 
Q 3081 4231 2675 4231 
Q 1875 4231 1450 3742 
Q 1025 3253 1025 2328 
Q 1025 1406 1450 917 
Q 1875 428 2675 428 
Q 3081 428 3442 575 
Q 3803 722 4122 1019 
L 4122 359 
Q 3791 134 3420 21 
Q 3050 -91 2638 -91 
Q 1578 -91 968 557 
Q 359 1206 359 2328 
Q 359 3453 968 4101 
Q 1578 4750 2638 4750 
Q 3056 4750 3426 4639 
Q 3797 4528 4122 4306 
z
" transform="scale(0.015625)"/>
      <path id="DejaVuSans-6c" d="M 603 4863 
L 1178 4863 
L 1178 0 
L 603 0 
L 603 4863 
z
" transform="scale(0.015625)"/>
      <path id="DejaVuSans-61" d="M 2194 1759 
Q 1497 1759 1228 1600 
Q 959 1441 959 1056 
Q 959 750 1161 570 
Q 1363 391 1709 391 
Q 2188 391 2477 730 
Q 2766 1069 2766 1631 
L 2766 1759 
L 2194 1759 
z
M 3341 1997 
L 3341 0 
L 2766 0 
L 2766 531 
Q 2569 213 2275 61 
Q 1981 -91 1556 -91 
Q 1019 -91 701 211 
Q 384 513 384 1019 
Q 384 1609 779 1909 
Q 1175 2209 1959 2209 
L 2766 2209 
L 2766 2266 
Q 2766 2663 2505 2880 
Q 2244 3097 1772 3097 
Q 1472 3097 1187 3025 
Q 903 2953 641 2809 
L 641 3341 
Q 956 3463 1253 3523 
Q 1550 3584 1831 3584 
Q 2591 3584 2966 3190 
Q 3341 2797 3341 1997 
z
" transform="scale(0.015625)"/>
      <path id="DejaVuSans-73" d="M 2834 3397 
L 2834 2853 
Q 2591 2978 2328 3040 
Q 2066 3103 1784 3103 
Q 1356 3103 1142 2972 
Q 928 2841 928 2578 
Q 928 2378 1081 2264 
Q 1234 2150 1697 2047 
L 1894 2003 
Q 2506 1872 2764 1633 
Q 3022 1394 3022 966 
Q 3022 478 2636 193 
Q 2250 -91 1575 -91 
Q 1294 -91 989 -36 
Q 684 19 347 128 
L 347 722 
Q 666 556 975 473 
Q 1284 391 1588 391 
Q 1994 391 2212 530 
Q 2431 669 2431 922 
Q 2431 1156 2273 1281 
Q 2116 1406 1581 1522 
L 1381 1569 
Q 847 1681 609 1914 
Q 372 2147 372 2553 
Q 372 3047 722 3315 
Q 1072 3584 1716 3584 
Q 2034 3584 2315 3537 
Q 2597 3491 2834 3397 
z
" transform="scale(0.015625)"/>
      <path id="DejaVuSans-69" d="M 603 3500 
L 1178 3500 
L 1178 0 
L 603 0 
L 603 3500 
z
M 603 4863 
L 1178 4863 
L 1178 4134 
L 603 4134 
L 603 4863 
z
" transform="scale(0.015625)"/>
      <path id="DejaVuSans-63" d="M 3122 3366 
L 3122 2828 
Q 2878 2963 2633 3030 
Q 2388 3097 2138 3097 
Q 1578 3097 1268 2742 
Q 959 2388 959 1747 
Q 959 1106 1268 751 
Q 1578 397 2138 397 
Q 2388 397 2633 464 
Q 2878 531 3122 666 
L 3122 134 
Q 2881 22 2623 -34 
Q 2366 -91 2075 -91 
Q 1284 -91 818 406 
Q 353 903 353 1747 
Q 353 2603 823 3093 
Q 1294 3584 2113 3584 
Q 2378 3584 2631 3529 
Q 2884 3475 3122 3366 
z
" transform="scale(0.015625)"/>
      <path id="DejaVuSans-20" transform="scale(0.015625)"/>
      <path id="DejaVuSans-54" d="M -19 4666 
L 3928 4666 
L 3928 4134 
L 2272 4134 
L 2272 0 
L 1638 0 
L 1638 4134 
L -19 4134 
L -19 4666 
z
" transform="scale(0.015625)"/>
      <path id="DejaVuSans-72" d="M 2631 2963 
Q 2534 3019 2420 3045 
Q 2306 3072 2169 3072 
Q 1681 3072 1420 2755 
Q 1159 2438 1159 1844 
L 1159 0 
L 581 0 
L 581 3500 
L 1159 3500 
L 1159 2956 
Q 1341 3275 1631 3429 
Q 1922 3584 2338 3584 
Q 2397 3584 2469 3576 
Q 2541 3569 2628 3553 
L 2631 2963 
z
" transform="scale(0.015625)"/>
      <path id="DejaVuSans-6e" d="M 3513 2113 
L 3513 0 
L 2938 0 
L 2938 2094 
Q 2938 2591 2744 2837 
Q 2550 3084 2163 3084 
Q 1697 3084 1428 2787 
Q 1159 2491 1159 1978 
L 1159 0 
L 581 0 
L 581 3500 
L 1159 3500 
L 1159 2956 
Q 1366 3272 1645 3428 
Q 1925 3584 2291 3584 
Q 2894 3584 3203 3211 
Q 3513 2838 3513 2113 
z
" transform="scale(0.015625)"/>
      <path id="DejaVuSans-66" d="M 2375 4863 
L 2375 4384 
L 1825 4384 
Q 1516 4384 1395 4259 
Q 1275 4134 1275 3809 
L 1275 3500 
L 2222 3500 
L 2222 3053 
L 1275 3053 
L 1275 0 
L 697 0 
L 697 3053 
L 147 3053 
L 147 3500 
L 697 3500 
L 697 3744 
Q 697 4328 969 4595 
Q 1241 4863 1831 4863 
L 2375 4863 
z
" transform="scale(0.015625)"/>
      <path id="DejaVuSans-6f" d="M 1959 3097 
Q 1497 3097 1228 2736 
Q 959 2375 959 1747 
Q 959 1119 1226 758 
Q 1494 397 1959 397 
Q 2419 397 2687 759 
Q 2956 1122 2956 1747 
Q 2956 2369 2687 2733 
Q 2419 3097 1959 3097 
z
M 1959 3584 
Q 2709 3584 3137 3096 
Q 3566 2609 3566 1747 
Q 3566 888 3137 398 
Q 2709 -91 1959 -91 
Q 1206 -91 779 398 
Q 353 888 353 1747 
Q 353 2609 779 3096 
Q 1206 3584 1959 3584 
z
" transform="scale(0.015625)"/>
      <path id="DejaVuSans-6d" d="M 3328 2828 
Q 3544 3216 3844 3400 
Q 4144 3584 4550 3584 
Q 5097 3584 5394 3201 
Q 5691 2819 5691 2113 
L 5691 0 
L 5113 0 
L 5113 2094 
Q 5113 2597 4934 2840 
Q 4756 3084 4391 3084 
Q 3944 3084 3684 2787 
Q 3425 2491 3425 1978 
L 3425 0 
L 2847 0 
L 2847 2094 
Q 2847 2600 2669 2842 
Q 2491 3084 2119 3084 
Q 1678 3084 1418 2786 
Q 1159 2488 1159 1978 
L 1159 0 
L 581 0 
L 581 3500 
L 1159 3500 
L 1159 2956 
Q 1356 3278 1631 3431 
Q 1906 3584 2284 3584 
Q 2666 3584 2933 3390 
Q 3200 3197 3328 2828 
z
" transform="scale(0.015625)"/>
      <path id="DejaVuSans-65" d="M 3597 1894 
L 3597 1613 
L 953 1613 
Q 991 1019 1311 708 
Q 1631 397 2203 397 
Q 2534 397 2845 478 
Q 3156 559 3463 722 
L 3463 178 
Q 3153 47 2828 -22 
Q 2503 -91 2169 -91 
Q 1331 -91 842 396 
Q 353 884 353 1716 
Q 353 2575 817 3079 
Q 1281 3584 2069 3584 
Q 2775 3584 3186 3129 
Q 3597 2675 3597 1894 
z
M 3022 2063 
Q 3016 2534 2758 2815 
Q 2500 3097 2075 3097 
Q 1594 3097 1305 2825 
Q 1016 2553 972 2059 
L 3022 2063 
z
" transform="scale(0.015625)"/>
      <path id="DejaVuSans-64" d="M 2906 2969 
L 2906 4863 
L 3481 4863 
L 3481 0 
L 2906 0 
L 2906 525 
Q 2725 213 2448 61 
Q 2172 -91 1784 -91 
Q 1150 -91 751 415 
Q 353 922 353 1747 
Q 353 2572 751 3078 
Q 1150 3584 1784 3584 
Q 2172 3584 2448 3432 
Q 2725 3281 2906 2969 
z
M 947 1747 
Q 947 1113 1208 752 
Q 1469 391 1925 391 
Q 2381 391 2643 752 
Q 2906 1113 2906 1747 
Q 2906 2381 2643 2742 
Q 2381 3103 1925 3103 
Q 1469 3103 1208 2742 
Q 947 2381 947 1747 
z
" transform="scale(0.015625)"/>
      <path id="DejaVuSans-5f" d="M 3263 -1063 
L 3263 -1509 
L -63 -1509 
L -63 -1063 
L 3263 -1063 
z
" transform="scale(0.015625)"/>
      <path id="DejaVuSans-39" d="M 703 97 
L 703 672 
Q 941 559 1184 500 
Q 1428 441 1663 441 
Q 2288 441 2617 861 
Q 2947 1281 2994 2138 
Q 2813 1869 2534 1725 
Q 2256 1581 1919 1581 
Q 1219 1581 811 2004 
Q 403 2428 403 3163 
Q 403 3881 828 4315 
Q 1253 4750 1959 4750 
Q 2769 4750 3195 4129 
Q 3622 3509 3622 2328 
Q 3622 1225 3098 567 
Q 2575 -91 1691 -91 
Q 1453 -91 1209 -44 
Q 966 3 703 97 
z
M 1959 2075 
Q 2384 2075 2632 2365 
Q 2881 2656 2881 3163 
Q 2881 3666 2632 3958 
Q 2384 4250 1959 4250 
Q 1534 4250 1286 3958 
Q 1038 3666 1038 3163 
Q 1038 2656 1286 2365 
Q 1534 2075 1959 2075 
z
" transform="scale(0.015625)"/>
      <path id="DejaVuSans-34" d="M 2419 4116 
L 825 1625 
L 2419 1625 
L 2419 4116 
z
M 2253 4666 
L 3047 4666 
L 3047 1625 
L 3713 1625 
L 3713 1100 
L 3047 1100 
L 3047 0 
L 2419 0 
L 2419 1100 
L 313 1100 
L 313 1709 
L 2253 4666 
z
" transform="scale(0.015625)"/>
     </defs>
     <use xlink:href="#DejaVuSans-43"/>
     <use xlink:href="#DejaVuSans-6c" x="69.824219"/>
     <use xlink:href="#DejaVuSans-61" x="97.607422"/>
     <use xlink:href="#DejaVuSans-73" x="158.886719"/>
     <use xlink:href="#DejaVuSans-73" x="210.986328"/>
     <use xlink:href="#DejaVuSans-69" x="263.085938"/>
     <use xlink:href="#DejaVuSans-63" x="290.869141"/>
     <use xlink:href="#DejaVuSans-20" x="345.849609"/>
     <use xlink:href="#DejaVuSans-54" x="377.636719"/>
     <use xlink:href="#DejaVuSans-72" x="423.970703"/>
     <use xlink:href="#DejaVuSans-61" x="465.083984"/>
     <use xlink:href="#DejaVuSans-6e" x="526.363281"/>
     <use xlink:href="#DejaVuSans-73" x="589.742188"/>
     <use xlink:href="#DejaVuSans-66" x="641.841797"/>
     <use xlink:href="#DejaVuSans-6f" x="677.046875"/>
     <use xlink:href="#DejaVuSans-72" x="738.228516"/>
     <use xlink:href="#DejaVuSans-6d" x="777.591797"/>
     <use xlink:href="#DejaVuSans-65" x="875.003906"/>
     <use xlink:href="#DejaVuSans-72" x="936.527344"/>
     <use xlink:href="#DejaVuSans-20" x="977.640625"/>
     <use xlink:href="#DejaVuSans-2d" x="1009.427734"/>
     <use xlink:href="#DejaVuSans-20" x="1045.511719"/>
     <use xlink:href="#DejaVuSans-6d" x="1077.298828"/>
     <use xlink:href="#DejaVuSans-6f" x="1174.710938"/>
     <use xlink:href="#DejaVuSans-64" x="1235.892578"/>
     <use xlink:href="#DejaVuSans-65" x="1299.369141"/>
     <use xlink:href="#DejaVuSans-6c" x="1360.892578"/>
     <use xlink:href="#DejaVuSans-5f" x="1388.675781"/>
     <use xlink:href="#DejaVuSans-32" x="1438.675781"/>
     <use xlink:href="#DejaVuSans-30" x="1502.298828"/>
     <use xlink:href="#DejaVuSans-32" x="1565.921875"/>
     <use xlink:href="#DejaVuSans-33" x="1629.544922"/>
     <use xlink:href="#DejaVuSans-31" x="1693.167969"/>
     <use xlink:href="#DejaVuSans-31" x="1756.791016"/>
     <use xlink:href="#DejaVuSans-32" x="1820.414062"/>
     <use xlink:href="#DejaVuSans-36" x="1884.037109"/>
     <use xlink:href="#DejaVuSans-31" x="1947.660156"/>
     <use xlink:href="#DejaVuSans-39" x="2011.283203"/>
     <use xlink:href="#DejaVuSans-30" x="2074.90625"/>
     <use xlink:href="#DejaVuSans-38" x="2138.529297"/>
     <use xlink:href="#DejaVuSans-34" x="2202.152344"/>
     <use xlink:href="#DejaVuSans-36" x="2265.775391"/>
    </g>
   </g>
   <g id="legend_1">
    <g id="patch_7">
     <path d="M 79 95.234375 
L 161.517188 95.234375 
Q 163.517188 95.234375 163.517188 93.234375 
L 163.517188 50.2 
Q 163.517188 48.2 161.517188 48.2 
L 79 48.2 
Q 77 48.2 77 50.2 
L 77 93.234375 
Q 77 95.234375 79 95.234375 
z
" style="fill: #ffffff; opacity: 0.8; stroke: #cccccc; stroke-linejoin: miter"/>
    </g>
    <g id="line2d_16">
     <path d="M 81 56.298437 
L 91 56.298437 
L 101 56.298437 
" style="fill: none; stroke: #1f77b4; stroke-width: 1.5; stroke-linecap: square"/>
    </g>
    <g id="text_14">
     <!-- Measured -->
     <g transform="translate(109 59.798437) scale(0.1 -0.1)">
      <defs>
       <path id="DejaVuSans-4d" d="M 628 4666 
L 1569 4666 
L 2759 1491 
L 3956 4666 
L 4897 4666 
L 4897 0 
L 4281 0 
L 4281 4097 
L 3078 897 
L 2444 897 
L 1241 4097 
L 1241 0 
L 628 0 
L 628 4666 
z
" transform="scale(0.015625)"/>
       <path id="DejaVuSans-75" d="M 544 1381 
L 544 3500 
L 1119 3500 
L 1119 1403 
Q 1119 906 1312 657 
Q 1506 409 1894 409 
Q 2359 409 2629 706 
Q 2900 1003 2900 1516 
L 2900 3500 
L 3475 3500 
L 3475 0 
L 2900 0 
L 2900 538 
Q 2691 219 2414 64 
Q 2138 -91 1772 -91 
Q 1169 -91 856 284 
Q 544 659 544 1381 
z
M 1991 3584 
L 1991 3584 
z
" transform="scale(0.015625)"/>
      </defs>
      <use xlink:href="#DejaVuSans-4d"/>
      <use xlink:href="#DejaVuSans-65" x="86.279297"/>
      <use xlink:href="#DejaVuSans-61" x="147.802734"/>
      <use xlink:href="#DejaVuSans-73" x="209.082031"/>
      <use xlink:href="#DejaVuSans-75" x="261.181641"/>
      <use xlink:href="#DejaVuSans-72" x="324.560547"/>
      <use xlink:href="#DejaVuSans-65" x="363.423828"/>
      <use xlink:href="#DejaVuSans-64" x="424.947266"/>
     </g>
    </g>
    <g id="line2d_17">
     <path d="M 81 70.976562 
L 91 70.976562 
L 101 70.976562 
" style="fill: none; stroke: #ff7f0e; stroke-width: 1.5; stroke-linecap: square"/>
    </g>
    <g id="text_15">
     <!-- Fitted -->
     <g transform="translate(109 74.476562) scale(0.1 -0.1)">
      <defs>
       <path id="DejaVuSans-46" d="M 628 4666 
L 3309 4666 
L 3309 4134 
L 1259 4134 
L 1259 2759 
L 3109 2759 
L 3109 2228 
L 1259 2228 
L 1259 0 
L 628 0 
L 628 4666 
z
" transform="scale(0.015625)"/>
       <path id="DejaVuSans-74" d="M 1172 4494 
L 1172 3500 
L 2356 3500 
L 2356 3053 
L 1172 3053 
L 1172 1153 
Q 1172 725 1289 603 
Q 1406 481 1766 481 
L 2356 481 
L 2356 0 
L 1766 0 
Q 1100 0 847 248 
Q 594 497 594 1153 
L 594 3053 
L 172 3053 
L 172 3500 
L 594 3500 
L 594 4494 
L 1172 4494 
z
" transform="scale(0.015625)"/>
      </defs>
      <use xlink:href="#DejaVuSans-46"/>
      <use xlink:href="#DejaVuSans-69" x="50.269531"/>
      <use xlink:href="#DejaVuSans-74" x="78.052734"/>
      <use xlink:href="#DejaVuSans-74" x="117.261719"/>
      <use xlink:href="#DejaVuSans-65" x="156.470703"/>
      <use xlink:href="#DejaVuSans-64" x="217.994141"/>
     </g>
    </g>
    <g id="line2d_18">
     <path d="M 81 85.654687 
L 91 85.654687 
L 101 85.654687 
" style="fill: none; stroke: #2ca02c; stroke-width: 1.5; stroke-linecap: square"/>
    </g>
    <g id="text_16">
     <!-- Estimated -->
     <g transform="translate(109 89.154687) scale(0.1 -0.1)">
      <defs>
       <path id="DejaVuSans-45" d="M 628 4666 
L 3578 4666 
L 3578 4134 
L 1259 4134 
L 1259 2753 
L 3481 2753 
L 3481 2222 
L 1259 2222 
L 1259 531 
L 3634 531 
L 3634 0 
L 628 0 
L 628 4666 
z
" transform="scale(0.015625)"/>
      </defs>
      <use xlink:href="#DejaVuSans-45"/>
      <use xlink:href="#DejaVuSans-73" x="63.183594"/>
      <use xlink:href="#DejaVuSans-74" x="115.283203"/>
      <use xlink:href="#DejaVuSans-69" x="154.492188"/>
      <use xlink:href="#DejaVuSans-6d" x="182.275391"/>
      <use xlink:href="#DejaVuSans-61" x="279.6875"/>
      <use xlink:href="#DejaVuSans-74" x="340.966797"/>
      <use xlink:href="#DejaVuSans-65" x="380.175781"/>
      <use xlink:href="#DejaVuSans-64" x="441.699219"/>
     </g>
    </g>
   </g>
  </g>
 </g>
 <defs>
  <clipPath id="p592f00e60b">
   <rect x="72" y="43.2" width="446.4" height="277.2"/>
  </clipPath>
 </defs>
</svg>
