<?xml version="1.0" encoding="utf-8" standalone="no"?>
<!DOCTYPE svg PUBLIC "-//W3C//DTD SVG 1.1//EN"
  "http://www.w3.org/Graphics/SVG/1.1/DTD/svg11.dtd">
<svg xmlns:xlink="http://www.w3.org/1999/xlink" width="576pt" height="360pt" viewBox="0 0 576 360" xmlns="http://www.w3.org/2000/svg" version="1.1">
 <metadata>
  <rdf:RDF xmlns:dc="http://purl.org/dc/elements/1.1/" xmlns:cc="http://creativecommons.org/ns#" xmlns:rdf="http://www.w3.org/1999/02/22-rdf-syntax-ns#">
   <cc:Work>
    <dc:type rdf:resource="http://purl.org/dc/dcmitype/StillImage"/>
    <dc:date>2023-11-26T16:44:41.835927</dc:date>
    <dc:format>image/svg+xml</dc:format>
    <dc:creator>
     <cc:Agent>
      <dc:title>Matplotlib v3.8.1, https://matplotlib.org/</dc:title>
     </cc:Agent>
    </dc:creator>
   </cc:Work>
  </rdf:RDF>
 </metadata>
 <defs>
  <style type="text/css">*{stroke-linejoin: round; stroke-linecap: butt}</style>
 </defs>
 <g id="figure_1">
  <g id="patch_1">
   <path d="M 0 360 
L 576 360 
L 576 0 
L 0 0 
z
" style="fill: #ffffff"/>
  </g>
  <g id="axes_1">
   <g id="patch_2">
    <path d="M 72 320.4 
L 518.4 320.4 
L 518.4 43.2 
L 72 43.2 
z
" style="fill: #ffffff"/>
   </g>
   <g id="matplotlib.axis_1">
    <g id="xtick_1">
     <g id="line2d_1">
      <defs>
       <path id="m864c279740" d="M 0 0 
L 0 3.5 
" style="stroke: #000000; stroke-width: 0.8"/>
      </defs>
      <g>
       <use xlink:href="#m864c279740" x="129.874161" y="320.4" style="stroke: #000000; stroke-width: 0.8"/>
      </g>
     </g>
     <g id="text_1">
      <!-- 2020-05-15 -->
      <g transform="translate(100.816349 334.998438) scale(0.1 -0.1)">
       <defs>
        <path id="DejaVuSans-32" d="M 1228 531 
L 3431 531 
L 3431 0 
L 469 0 
L 469 531 
Q 828 903 1448 1529 
Q 2069 2156 2228 2338 
Q 2531 2678 2651 2914 
Q 2772 3150 2772 3378 
Q 2772 3750 2511 3984 
Q 2250 4219 1831 4219 
Q 1534 4219 1204 4116 
Q 875 4013 500 3803 
L 500 4441 
Q 881 4594 1212 4672 
Q 1544 4750 1819 4750 
Q 2544 4750 2975 4387 
Q 3406 4025 3406 3419 
Q 3406 3131 3298 2873 
Q 3191 2616 2906 2266 
Q 2828 2175 2409 1742 
Q 1991 1309 1228 531 
z
" transform="scale(0.015625)"/>
        <path id="DejaVuSans-30" d="M 2034 4250 
Q 1547 4250 1301 3770 
Q 1056 3291 1056 2328 
Q 1056 1369 1301 889 
Q 1547 409 2034 409 
Q 2525 409 2770 889 
Q 3016 1369 3016 2328 
Q 3016 3291 2770 3770 
Q 2525 4250 2034 4250 
z
M 2034 4750 
Q 2819 4750 3233 4129 
Q 3647 3509 3647 2328 
Q 3647 1150 3233 529 
Q 2819 -91 2034 -91 
Q 1250 -91 836 529 
Q 422 1150 422 2328 
Q 422 3509 836 4129 
Q 1250 4750 2034 4750 
z
" transform="scale(0.015625)"/>
        <path id="DejaVuSans-2d" d="M 313 2009 
L 1997 2009 
L 1997 1497 
L 313 1497 
L 313 2009 
z
" transform="scale(0.015625)"/>
        <path id="DejaVuSans-35" d="M 691 4666 
L 3169 4666 
L 3169 4134 
L 1269 4134 
L 1269 2991 
Q 1406 3038 1543 3061 
Q 1681 3084 1819 3084 
Q 2600 3084 3056 2656 
Q 3513 2228 3513 1497 
Q 3513 744 3044 326 
Q 2575 -91 1722 -91 
Q 1428 -91 1123 -41 
Q 819 9 494 109 
L 494 744 
Q 775 591 1075 516 
Q 1375 441 1709 441 
Q 2250 441 2565 725 
Q 2881 1009 2881 1497 
Q 2881 1984 2565 2268 
Q 2250 2553 1709 2553 
Q 1456 2553 1204 2497 
Q 953 2441 691 2322 
L 691 4666 
z
" transform="scale(0.015625)"/>
        <path id="DejaVuSans-31" d="M 794 531 
L 1825 531 
L 1825 4091 
L 703 3866 
L 703 4441 
L 1819 4666 
L 2450 4666 
L 2450 531 
L 3481 531 
L 3481 0 
L 794 0 
L 794 531 
z
" transform="scale(0.015625)"/>
       </defs>
       <use xlink:href="#DejaVuSans-32"/>
       <use xlink:href="#DejaVuSans-30" x="63.623047"/>
       <use xlink:href="#DejaVuSans-32" x="127.246094"/>
       <use xlink:href="#DejaVuSans-30" x="190.869141"/>
       <use xlink:href="#DejaVuSans-2d" x="254.492188"/>
       <use xlink:href="#DejaVuSans-30" x="290.576172"/>
       <use xlink:href="#DejaVuSans-35" x="354.199219"/>
       <use xlink:href="#DejaVuSans-2d" x="417.822266"/>
       <use xlink:href="#DejaVuSans-31" x="453.90625"/>
       <use xlink:href="#DejaVuSans-35" x="517.529297"/>
      </g>
     </g>
    </g>
    <g id="xtick_2">
     <g id="line2d_2">
      <g>
       <use xlink:href="#m864c279740" x="212.435902" y="320.4" style="stroke: #000000; stroke-width: 0.8"/>
      </g>
     </g>
     <g id="text_2">
      <!-- 2020-06-01 -->
      <g transform="translate(183.37809 334.998438) scale(0.1 -0.1)">
       <defs>
        <path id="DejaVuSans-36" d="M 2113 2584 
Q 1688 2584 1439 2293 
Q 1191 2003 1191 1497 
Q 1191 994 1439 701 
Q 1688 409 2113 409 
Q 2538 409 2786 701 
Q 3034 994 3034 1497 
Q 3034 2003 2786 2293 
Q 2538 2584 2113 2584 
z
M 3366 4563 
L 3366 3988 
Q 3128 4100 2886 4159 
Q 2644 4219 2406 4219 
Q 1781 4219 1451 3797 
Q 1122 3375 1075 2522 
Q 1259 2794 1537 2939 
Q 1816 3084 2150 3084 
Q 2853 3084 3261 2657 
Q 3669 2231 3669 1497 
Q 3669 778 3244 343 
Q 2819 -91 2113 -91 
Q 1303 -91 875 529 
Q 447 1150 447 2328 
Q 447 3434 972 4092 
Q 1497 4750 2381 4750 
Q 2619 4750 2861 4703 
Q 3103 4656 3366 4563 
z
" transform="scale(0.015625)"/>
       </defs>
       <use xlink:href="#DejaVuSans-32"/>
       <use xlink:href="#DejaVuSans-30" x="63.623047"/>
       <use xlink:href="#DejaVuSans-32" x="127.246094"/>
       <use xlink:href="#DejaVuSans-30" x="190.869141"/>
       <use xlink:href="#DejaVuSans-2d" x="254.492188"/>
       <use xlink:href="#DejaVuSans-30" x="290.576172"/>
       <use xlink:href="#DejaVuSans-36" x="354.199219"/>
       <use xlink:href="#DejaVuSans-2d" x="417.822266"/>
       <use xlink:href="#DejaVuSans-30" x="453.90625"/>
       <use xlink:href="#DejaVuSans-31" x="517.529297"/>
      </g>
     </g>
    </g>
    <g id="xtick_3">
     <g id="line2d_3">
      <g>
       <use xlink:href="#m864c279740" x="280.427924" y="320.4" style="stroke: #000000; stroke-width: 0.8"/>
      </g>
     </g>
     <g id="text_3">
      <!-- 2020-06-15 -->
      <g transform="translate(251.370111 334.998438) scale(0.1 -0.1)">
       <use xlink:href="#DejaVuSans-32"/>
       <use xlink:href="#DejaVuSans-30" x="63.623047"/>
       <use xlink:href="#DejaVuSans-32" x="127.246094"/>
       <use xlink:href="#DejaVuSans-30" x="190.869141"/>
       <use xlink:href="#DejaVuSans-2d" x="254.492188"/>
       <use xlink:href="#DejaVuSans-30" x="290.576172"/>
       <use xlink:href="#DejaVuSans-36" x="354.199219"/>
       <use xlink:href="#DejaVuSans-2d" x="417.822266"/>
       <use xlink:href="#DejaVuSans-31" x="453.90625"/>
       <use xlink:href="#DejaVuSans-35" x="517.529297"/>
      </g>
     </g>
    </g>
    <g id="xtick_4">
     <g id="line2d_4">
      <g>
       <use xlink:href="#m864c279740" x="358.133092" y="320.4" style="stroke: #000000; stroke-width: 0.8"/>
      </g>
     </g>
     <g id="text_4">
      <!-- 2020-07-01 -->
      <g transform="translate(329.075279 334.998438) scale(0.1 -0.1)">
       <defs>
        <path id="DejaVuSans-37" d="M 525 4666 
L 3525 4666 
L 3525 4397 
L 1831 0 
L 1172 0 
L 2766 4134 
L 525 4134 
L 525 4666 
z
" transform="scale(0.015625)"/>
       </defs>
       <use xlink:href="#DejaVuSans-32"/>
       <use xlink:href="#DejaVuSans-30" x="63.623047"/>
       <use xlink:href="#DejaVuSans-32" x="127.246094"/>
       <use xlink:href="#DejaVuSans-30" x="190.869141"/>
       <use xlink:href="#DejaVuSans-2d" x="254.492188"/>
       <use xlink:href="#DejaVuSans-30" x="290.576172"/>
       <use xlink:href="#DejaVuSans-37" x="354.199219"/>
       <use xlink:href="#DejaVuSans-2d" x="417.822266"/>
       <use xlink:href="#DejaVuSans-30" x="453.90625"/>
       <use xlink:href="#DejaVuSans-31" x="517.529297"/>
      </g>
     </g>
    </g>
    <g id="xtick_5">
     <g id="line2d_5">
      <g>
       <use xlink:href="#m864c279740" x="426.125113" y="320.4" style="stroke: #000000; stroke-width: 0.8"/>
      </g>
     </g>
     <g id="text_5">
      <!-- 2020-07-15 -->
      <g transform="translate(397.067301 334.998438) scale(0.1 -0.1)">
       <use xlink:href="#DejaVuSans-32"/>
       <use xlink:href="#DejaVuSans-30" x="63.623047"/>
       <use xlink:href="#DejaVuSans-32" x="127.246094"/>
       <use xlink:href="#DejaVuSans-30" x="190.869141"/>
       <use xlink:href="#DejaVuSans-2d" x="254.492188"/>
       <use xlink:href="#DejaVuSans-30" x="290.576172"/>
       <use xlink:href="#DejaVuSans-37" x="354.199219"/>
       <use xlink:href="#DejaVuSans-2d" x="417.822266"/>
       <use xlink:href="#DejaVuSans-31" x="453.90625"/>
       <use xlink:href="#DejaVuSans-35" x="517.529297"/>
      </g>
     </g>
    </g>
    <g id="xtick_6">
     <g id="line2d_6">
      <g>
       <use xlink:href="#m864c279740" x="508.686854" y="320.4" style="stroke: #000000; stroke-width: 0.8"/>
      </g>
     </g>
     <g id="text_6">
      <!-- 2020-08-01 -->
      <g transform="translate(479.629042 334.998438) scale(0.1 -0.1)">
       <defs>
        <path id="DejaVuSans-38" d="M 2034 2216 
Q 1584 2216 1326 1975 
Q 1069 1734 1069 1313 
Q 1069 891 1326 650 
Q 1584 409 2034 409 
Q 2484 409 2743 651 
Q 3003 894 3003 1313 
Q 3003 1734 2745 1975 
Q 2488 2216 2034 2216 
z
M 1403 2484 
Q 997 2584 770 2862 
Q 544 3141 544 3541 
Q 544 4100 942 4425 
Q 1341 4750 2034 4750 
Q 2731 4750 3128 4425 
Q 3525 4100 3525 3541 
Q 3525 3141 3298 2862 
Q 3072 2584 2669 2484 
Q 3125 2378 3379 2068 
Q 3634 1759 3634 1313 
Q 3634 634 3220 271 
Q 2806 -91 2034 -91 
Q 1263 -91 848 271 
Q 434 634 434 1313 
Q 434 1759 690 2068 
Q 947 2378 1403 2484 
z
M 1172 3481 
Q 1172 3119 1398 2916 
Q 1625 2713 2034 2713 
Q 2441 2713 2670 2916 
Q 2900 3119 2900 3481 
Q 2900 3844 2670 4047 
Q 2441 4250 2034 4250 
Q 1625 4250 1398 4047 
Q 1172 3844 1172 3481 
z
" transform="scale(0.015625)"/>
       </defs>
       <use xlink:href="#DejaVuSans-32"/>
       <use xlink:href="#DejaVuSans-30" x="63.623047"/>
       <use xlink:href="#DejaVuSans-32" x="127.246094"/>
       <use xlink:href="#DejaVuSans-30" x="190.869141"/>
       <use xlink:href="#DejaVuSans-2d" x="254.492188"/>
       <use xlink:href="#DejaVuSans-30" x="290.576172"/>
       <use xlink:href="#DejaVuSans-38" x="354.199219"/>
       <use xlink:href="#DejaVuSans-2d" x="417.822266"/>
       <use xlink:href="#DejaVuSans-30" x="453.90625"/>
       <use xlink:href="#DejaVuSans-31" x="517.529297"/>
      </g>
     </g>
    </g>
   </g>
   <g id="matplotlib.axis_2">
    <g id="ytick_1">
     <g id="line2d_7">
      <defs>
       <path id="m3df586f4b2" d="M 0 0 
L -3.5 0 
" style="stroke: #000000; stroke-width: 0.8"/>
      </defs>
      <g>
       <use xlink:href="#m3df586f4b2" x="72" y="316.02311" style="stroke: #000000; stroke-width: 0.8"/>
      </g>
     </g>
     <g id="text_7">
      <!-- −2 -->
      <g transform="translate(50.257812 319.822329) scale(0.1 -0.1)">
       <defs>
        <path id="DejaVuSans-2212" d="M 678 2272 
L 4684 2272 
L 4684 1741 
L 678 1741 
L 678 2272 
z
" transform="scale(0.015625)"/>
       </defs>
       <use xlink:href="#DejaVuSans-2212"/>
       <use xlink:href="#DejaVuSans-32" x="83.789062"/>
      </g>
     </g>
    </g>
    <g id="ytick_2">
     <g id="line2d_8">
      <g>
       <use xlink:href="#m3df586f4b2" x="72" y="262.270962" style="stroke: #000000; stroke-width: 0.8"/>
      </g>
     </g>
     <g id="text_8">
      <!-- −1 -->
      <g transform="translate(50.257812 266.070181) scale(0.1 -0.1)">
       <use xlink:href="#DejaVuSans-2212"/>
       <use xlink:href="#DejaVuSans-31" x="83.789062"/>
      </g>
     </g>
    </g>
    <g id="ytick_3">
     <g id="line2d_9">
      <g>
       <use xlink:href="#m3df586f4b2" x="72" y="208.518814" style="stroke: #000000; stroke-width: 0.8"/>
      </g>
     </g>
     <g id="text_9">
      <!-- 0 -->
      <g transform="translate(58.6375 212.318032) scale(0.1 -0.1)">
       <use xlink:href="#DejaVuSans-30"/>
      </g>
     </g>
    </g>
    <g id="ytick_4">
     <g id="line2d_10">
      <g>
       <use xlink:href="#m3df586f4b2" x="72" y="154.766666" style="stroke: #000000; stroke-width: 0.8"/>
      </g>
     </g>
     <g id="text_10">
      <!-- 1 -->
      <g transform="translate(58.6375 158.565884) scale(0.1 -0.1)">
       <use xlink:href="#DejaVuSans-31"/>
      </g>
     </g>
    </g>
    <g id="ytick_5">
     <g id="line2d_11">
      <g>
       <use xlink:href="#m3df586f4b2" x="72" y="101.014518" style="stroke: #000000; stroke-width: 0.8"/>
      </g>
     </g>
     <g id="text_11">
      <!-- 2 -->
      <g transform="translate(58.6375 104.813736) scale(0.1 -0.1)">
       <use xlink:href="#DejaVuSans-32"/>
      </g>
     </g>
    </g>
    <g id="ytick_6">
     <g id="line2d_12">
      <g>
       <use xlink:href="#m3df586f4b2" x="72" y="47.262369" style="stroke: #000000; stroke-width: 0.8"/>
      </g>
     </g>
     <g id="text_12">
      <!-- 3 -->
      <g transform="translate(58.6375 51.061588) scale(0.1 -0.1)">
       <defs>
        <path id="DejaVuSans-33" d="M 2597 2516 
Q 3050 2419 3304 2112 
Q 3559 1806 3559 1356 
Q 3559 666 3084 287 
Q 2609 -91 1734 -91 
Q 1441 -91 1130 -33 
Q 819 25 488 141 
L 488 750 
Q 750 597 1062 519 
Q 1375 441 1716 441 
Q 2309 441 2620 675 
Q 2931 909 2931 1356 
Q 2931 1769 2642 2001 
Q 2353 2234 1838 2234 
L 1294 2234 
L 1294 2753 
L 1863 2753 
Q 2328 2753 2575 2939 
Q 2822 3125 2822 3475 
Q 2822 3834 2567 4026 
Q 2313 4219 1838 4219 
Q 1578 4219 1281 4162 
Q 984 4106 628 3988 
L 628 4550 
Q 988 4650 1302 4700 
Q 1616 4750 1894 4750 
Q 2613 4750 3031 4423 
Q 3450 4097 3450 3541 
Q 3450 3153 3228 2886 
Q 3006 2619 2597 2516 
z
" transform="scale(0.015625)"/>
       </defs>
       <use xlink:href="#DejaVuSans-33"/>
      </g>
     </g>
    </g>
   </g>
   <g id="line2d_13">
    <path d="M 72 287.021497 
L 72.404714 298.412757 
L 72.607072 296.682973 
L 72.809429 285.96675 
L 73.214143 254.915018 
L 73.618858 242.426821 
L 75.035358 159.101858 
L 75.237715 156.127474 
L 75.440073 161.211351 
L 75.64243 169.459468 
L 75.844787 172.771371 
L 76.047144 188.086288 
L 76.654216 258.669915 
L 77.05893 282.844701 
L 77.261287 287.232446 
L 77.463645 286.852737 
L 77.666002 276.094324 
L 78.070716 247.468508 
L 78.475431 234.938122 
L 78.677788 225.761828 
L 79.487217 168.510196 
L 79.891931 152.161627 
L 80.094288 154.123456 
L 80.903717 196.735208 
L 81.713146 272.423807 
L 82.11786 287.148066 
L 82.320218 289.194274 
L 82.522575 288.898945 
L 82.724932 286.367554 
L 82.927289 279.511703 
L 83.332004 256.412757 
L 83.736718 242.026017 
L 83.939075 238.967253 
L 84.141432 239.241487 
L 84.546147 245.675439 
L 84.748504 247.784932 
L 84.950861 247.806027 
L 85.355576 252.025013 
L 85.557933 248.670919 
L 85.76029 254.830638 
L 86.569719 300.015972 
L 86.772076 306.133501 
L 86.974433 307.736715 
L 87.176791 307.8 
L 87.379148 306.449925 
L 87.581505 302.695028 
L 87.783862 295.902461 
L 88.188577 273.731693 
L 88.390934 268.521246 
L 89.200363 260.399699 
L 89.40272 256.243998 
L 89.807434 241.372074 
L 90.212149 238.903968 
L 90.414506 236.182722 
L 90.616863 244.1777 
L 91.223935 295.037569 
L 91.628649 306.133501 
L 91.831006 306.196786 
L 92.033364 303.686489 
L 92.842792 257.277649 
L 93.04515 255.125967 
L 93.449864 246.477047 
L 93.652221 245.949674 
L 93.854578 242.996384 
L 94.056936 242.363536 
L 94.259293 239.72667 
L 94.46165 233.292717 
L 94.664007 230.423807 
L 94.866364 231.351984 
L 95.068722 234.516223 
L 95.271079 230.655851 
L 95.473436 240.823606 
L 96.080508 295.417278 
L 96.485222 304.677951 
L 96.687579 306.597589 
L 96.889937 302.230939 
L 97.699365 256.539327 
L 98.306437 245.970768 
L 98.508794 245.59106 
L 99.52058 224.242993 
L 99.722937 225.508689 
L 99.925295 229.896434 
L 100.127652 228.061175 
L 100.330009 238.27112 
L 100.937081 292.928076 
L 101.341795 305.268609 
L 101.544152 306.26007 
L 101.74651 302.526268 
L 101.948867 290.50216 
L 102.353581 260.294224 
L 102.555938 258.733199 
L 103.567724 240.844701 
L 104.377153 218.610648 
L 104.57951 219.897438 
L 104.781868 225.318835 
L 104.984225 225.29774 
L 105.186582 234.241989 
L 105.793654 289.763837 
L 106.198368 302.589553 
L 106.400725 304.361527 
L 106.603083 300.311301 
L 107.412511 254.11341 
L 107.614869 252.383626 
L 107.817226 248.692014 
L 108.22194 234.07323 
L 108.626655 212.23998 
L 108.829012 206.270116 
L 109.031369 204.371572 
L 109.638441 213.104872 
L 109.840798 218.568458 
L 110.043155 229.031542 
L 110.650227 284.405726 
L 111.054941 298.750276 
L 111.257298 300.669915 
L 111.459655 298.919036 
L 111.662013 287.443395 
L 112.066727 258.015972 
L 112.471442 242.933099 
L 113.887942 174.121447 
L 114.090299 171.73772 
L 114.292656 178.593571 
L 114.495014 190.090306 
L 114.697371 194.710095 
L 115.102085 228.926067 
L 115.709157 278.583526 
L 116.113871 292.611652 
L 116.316228 292.780412 
L 116.518586 291.113913 
L 116.720943 287.46449 
L 117.125657 260.06218 
L 118.542158 154.777398 
L 118.744515 144.609643 
L 118.946872 140.707082 
L 119.149229 144.398694 
L 119.756301 182.496133 
L 120.56573 262.319337 
L 120.970444 282.254043 
L 121.172801 286.367554 
L 121.375159 288.012958 
L 121.577516 286.557408 
L 121.779873 278.583526 
L 122.589302 227.280663 
L 123.196374 201.671421 
L 123.398731 197.072727 
L 123.601088 197.283677 
L 123.803445 196.714114 
L 124.410517 210.193772 
L 124.612874 221.226419 
L 125.219946 277.845203 
L 125.62466 292.463988 
L 125.827017 294.468006 
L 126.029374 291.91552 
L 127.04116 235.191261 
L 127.648232 197.557911 
L 128.255304 154.925063 
L 128.457661 147.330889 
L 128.660018 146.99337 
L 129.26709 191.588046 
L 130.278876 282.971271 
L 130.481233 290.839679 
L 130.68359 292.231944 
L 130.885947 289.637268 
L 132.504805 180.070216 
L 133.111877 137.142039 
L 133.314234 127.670417 
L 133.516591 129.379106 
L 133.921306 144.841688 
L 134.123663 152.309292 
L 135.135449 262.84671 
L 135.540163 275.545856 
L 135.74252 274.596585 
L 135.944878 263.943646 
L 136.349592 232.343446 
L 136.551949 225.529784 
L 136.754306 213.590055 
L 136.956664 218.188749 
L 137.159021 206.818584 
L 137.766092 197.937619 
L 137.96845 198.338423 
L 138.373164 192.895932 
L 138.777879 200.490105 
L 138.980236 201.333903 
L 139.182593 213.210347 
L 139.789665 270.187745 
L 140.194379 285.650326 
L 140.396736 287.738724 
L 140.599093 284.701055 
L 141.003808 254.303265 
L 141.408522 232.997388 
L 142.015594 219.51773 
L 142.622665 210.320342 
L 142.825023 210.046107 
L 143.02738 208.822602 
L 143.229737 209.518734 
L 143.634451 214.834656 
L 143.836809 213.590055 
L 144.039166 223.84219 
L 144.646238 273.499648 
L 145.050952 285.671421 
L 145.253309 286.979307 
L 145.455666 283.815068 
L 145.860381 253.965746 
L 146.062738 237.406228 
L 146.66981 220.825615 
L 146.872167 218.125465 
L 147.074524 217.028528 
L 147.479238 205.848217 
L 147.681596 214.370568 
L 147.883953 215.362029 
L 148.08631 217.998895 
L 148.491024 227.386138 
L 148.693382 226.014967 
L 149.098096 249.83114 
L 149.502811 278.203817 
L 149.907525 291.430337 
L 150.109882 293.518734 
L 150.312239 292.928076 
L 150.514597 290.059166 
L 150.716954 284.258061 
L 151.121668 263.036565 
L 151.526383 242.194776 
L 151.931097 236.288197 
L 152.133454 235.845203 
L 152.335811 237.849221 
L 152.538169 238.376595 
L 152.740526 236.288197 
L 152.942883 236.583526 
L 153.14524 235.592064 
L 153.347597 235.634254 
L 153.549955 232.659869 
L 153.752312 234.895932 
L 154.764098 287.253541 
L 154.966455 291.282672 
L 155.168812 292.696032 
L 155.573527 288.687996 
L 155.775884 277.423305 
L 156.78767 198.127474 
L 157.799456 154.756303 
L 158.001813 156.802511 
L 158.406528 170.23998 
L 158.608885 184.036062 
L 159.215956 253.881366 
L 159.620671 275.86228 
L 159.823028 279.131994 
L 160.025385 278.203817 
L 160.227743 268.225917 
L 160.632457 235.191261 
L 161.8466 183.993872 
L 162.251315 173.762833 
L 162.453672 173.910497 
L 162.656029 176.821597 
L 163.465458 209.20231 
L 164.072529 270.12446 
L 164.477244 289.067705 
L 164.679601 289.405224 
L 164.881958 286.114415 
L 165.084316 275.777901 
L 165.48903 243.439377 
L 166.500816 207.725665 
L 167.310245 164.038071 
L 167.512602 167.45545 
L 167.917316 188.402712 
L 168.119674 192.938122 
L 168.322031 204.498142 
L 168.929102 264.977298 
L 169.333817 280.439879 
L 169.536174 284.026017 
L 169.738531 280.292215 
L 170.143246 252.510196 
L 170.54796 221.648317 
L 171.357389 176.273129 
L 171.559746 170.134505 
L 172.166818 145.49563 
L 172.369175 147.141035 
L 172.571532 155.199297 
L 173.178604 194.878855 
L 173.785675 267.25555 
L 174.19039 287.000402 
L 174.392747 290.038071 
L 174.595104 288.181718 
L 174.999819 263.542843 
L 175.404533 238.081266 
L 177.023391 158.405726 
L 177.225748 158.933099 
L 177.428105 162.92004 
L 177.630462 179.817077 
L 177.83282 182.306278 
L 178.237534 227.238473 
L 178.642248 270.947162 
L 179.046963 290.50216 
L 179.24932 294.299247 
L 179.451677 291.725665 
L 179.654034 282.865796 
L 180.261106 242.258061 
L 181.879964 143.449422 
L 182.082321 140.116424 
L 182.284678 145.896434 
L 183.094107 203.316826 
L 183.498821 243.080763 
L 183.903536 264.956203 
L 184.30825 272.95118 
L 184.510607 274.343446 
L 184.712965 270.630738 
L 184.915322 256.98232 
L 185.724751 173.340934 
L 186.129465 151.52878 
L 186.331822 145.347966 
L 186.53418 144.567454 
L 186.736537 147.16213 
L 187.748323 188.423807 
L 188.557752 253.923556 
L 188.962466 268.394676 
L 189.164823 270.483074 
L 189.36718 270.567454 
L 189.569538 269.808036 
L 189.771895 258.796484 
L 190.986038 160.810547 
L 191.188395 155.389151 
L 191.390752 155.346961 
L 191.795467 164.692014 
L 192.604896 196.671924 
L 193.414325 261.370065 
L 193.819039 275.377097 
L 194.021396 276.474033 
L 194.426111 272.423807 
L 194.628468 263.268609 
L 195.437897 201.017479 
L 195.640254 195.891411 
L 195.842611 197.136012 
L 196.247325 203.337921 
L 196.449683 203.928579 
L 196.65204 203.527775 
L 197.056754 211.923556 
L 197.259112 212.788448 
L 197.461469 221.395178 
L 198.06854 270.841688 
L 198.473255 285.354997 
L 198.675612 285.460472 
L 198.877969 281.72667 
L 199.282684 250.231944 
L 199.687398 226.879859 
L 201.306256 158.933099 
L 201.508613 157.751783 
L 202.115684 177.39116 
L 202.318042 188.803516 
L 202.925113 254.366549 
L 203.329828 272.423807 
L 203.532185 274.57549 
L 203.734542 271.516725 
L 203.936899 259.724661 
L 204.341614 224.939126 
L 205.758114 168.995379 
L 205.960471 166.442893 
L 206.162829 166.590558 
L 206.365186 168.046107 
L 206.7699 180.175691 
L 206.972257 183.445404 
L 207.174615 194.541336 
L 207.781686 254.978302 
L 208.186401 271.516725 
L 208.388758 274.638774 
L 208.591115 271.221396 
L 208.793472 259.070718 
L 209.198187 224.475038 
L 209.805258 201.671421 
L 210.209973 181.314817 
L 210.817044 138.639779 
L 211.019402 129.948669 
L 211.221759 132.986339 
L 211.626473 158.047112 
L 211.82883 163.384129 
L 212.031188 178.467002 
L 212.638259 245.063687 
L 213.042974 264.091311 
L 213.245331 268.183727 
L 213.447688 266.432848 
L 213.650045 255.463486 
L 214.257117 211.164139 
L 214.661831 184.183727 
L 215.47126 123.409242 
L 215.875975 106.280161 
L 216.078332 105.794977 
L 216.280689 111.469513 
L 217.090118 176.779407 
L 217.697189 240.190758 
L 218.101904 259.091813 
L 218.304261 262.530286 
L 218.506618 263.922551 
L 218.708976 262.635761 
L 218.911333 249.599096 
L 219.518404 193.48659 
L 220.125476 157.435359 
L 220.327833 155.220392 
L 220.53019 157.498644 
L 221.541976 200.827624 
L 221.744334 206.101356 
L 222.553762 264.365545 
L 222.958477 275.503666 
L 223.160834 277.254545 
L 223.363191 277.613159 
L 223.565549 276.009945 
L 223.767906 267.086791 
L 224.374977 227.955701 
L 224.779692 220.192767 
L 225.386763 222.30226 
L 225.589121 225.909493 
L 225.791478 226.816575 
L 226.196192 235.40221 
L 226.398549 235.043596 
L 226.600907 241.625213 
L 227.410335 296.535309 
L 227.612693 300.669915 
L 227.81505 302.399699 
L 228.017407 299.129985 
L 228.826836 255.505676 
L 229.029193 253.121949 
L 229.23155 247.236464 
L 230.648051 182.285183 
L 230.850408 182.875841 
L 231.255122 197.64229 
L 231.45748 208.801507 
L 232.064551 274.027022 
L 232.469266 291.620191 
L 232.671623 294.404721 
L 232.87398 293.160121 
L 233.278694 267.25555 
L 233.683409 244.1777 
L 235.302267 178.024008 
L 235.504624 177.412255 
L 236.111695 196.988348 
L 236.314053 207.599096 
L 236.921124 271.242491 
L 237.325839 287.50668 
L 237.528196 290.713109 
L 237.730553 288.540331 
L 238.135267 264.006931 
L 238.539982 241.688498 
L 239.349411 210.003918 
L 239.754125 199.751783 
L 240.15884 189.288699 
L 240.361197 189.03556 
L 240.563554 194.625716 
L 240.968268 212.661878 
L 241.170626 220.424812 
L 241.777697 277.31783 
L 242.182412 293.560924 
L 242.384769 296.11341 
L 242.587126 293.054646 
L 242.99184 267.740733 
L 243.396555 249.345957 
L 245.21777 172.876846 
L 245.420127 177.222401 
L 246.027199 204.666901 
L 246.836627 279.933601 
L 247.038985 288.498142 
L 247.241342 291.74676 
L 247.443699 289.152084 
L 247.848413 265.019488 
L 249.467271 150.305274 
L 249.669628 142.036062 
L 249.871985 140.053139 
L 250.074343 140.221899 
L 250.2767 147.330889 
L 250.883772 180.21788 
L 251.6932 257.003415 
L 252.097915 271.875339 
L 252.300272 275.018483 
L 252.502629 275.292717 
L 252.704986 271.326871 
L 253.109701 237.785937 
L 253.91913 162.814566 
L 254.323844 146.634756 
L 254.728558 137.606128 
L 254.930916 136.319337 
L 255.133273 143.997891 
L 255.740345 182.369563 
L 256.549773 259.387142 
L 256.954488 275.229432 
L 257.156845 279.131994 
L 257.359202 280.840683 
L 257.561559 279.849221 
L 257.966274 250.274134 
L 258.573345 198.675942 
L 258.97806 176.484078 
L 259.382774 165.198292 
L 259.585131 161.675439 
L 259.787489 161.232446 
L 259.989846 163.911502 
L 260.39456 180.281165 
L 260.596917 193.950678 
L 261.203989 257.425314 
L 261.608704 276.579508 
L 261.811061 279.574987 
L 262.013418 278.77338 
L 262.418132 254.23998 
L 262.62049 241.941637 
L 263.025204 232.048117 
L 263.227561 229.179206 
L 263.429918 228.145555 
L 263.834633 229.45344 
L 264.03699 229.137017 
L 264.239347 230.107383 
L 264.441704 230.191763 
L 264.644062 229.917529 
L 264.846419 232.005927 
L 265.048776 236.140532 
L 265.251133 236.140532 
L 265.45349 240.254043 
L 266.060562 283.730688 
L 266.465277 296.872828 
L 266.667634 298.454947 
L 266.869991 294.172677 
L 267.072348 286.030035 
L 267.477063 258.901959 
L 268.084134 236.203817 
L 268.488849 225.677449 
L 269.09592 214.159618 
L 269.500635 210.109392 
L 269.702992 212.345455 
L 269.905349 216.037067 
L 270.107706 216.733199 
L 270.310063 223.188247 
L 270.917135 273.204319 
L 271.32185 285.460472 
L 271.524207 287.654345 
L 271.726564 285.903466 
L 274.15485 140.960221 
L 274.357208 133.619186 
L 274.559565 137.036565 
L 275.166636 162.793471 
L 275.976065 246.308287 
L 276.38078 259.176193 
L 276.583137 258.458965 
L 276.987851 236.098343 
L 277.392566 206.50216 
L 278.404352 148.195781 
L 278.606709 145.073732 
L 279.011423 131.530789 
L 279.213781 129.885384 
L 279.416138 134.252034 
L 280.023209 176.969262 
L 280.630281 250.020994 
L 281.034995 273.351984 
L 281.237353 278.351482 
L 281.43971 276.769362 
L 281.642067 270.736213 
L 282.249139 227.976796 
L 282.85621 193.52878 
L 283.867996 149.714616 
L 284.070354 148.49111 
L 284.272711 156.844701 
L 285.284497 241.920542 
L 285.689211 274.870819 
L 286.093926 289.974787 
L 286.296283 292.316323 
L 286.49864 290.45997 
L 286.700997 287.443395 
L 287.105712 255.674435 
L 287.712783 202.873832 
L 288.522212 158.384631 
L 288.724569 151.085786 
L 288.926927 149.102863 
L 289.129284 152.77338 
L 289.736355 187.411251 
L 290.545784 259.197288 
L 290.950499 274.849724 
L 291.152856 277.697539 
L 291.355213 277.781919 
L 291.55757 276.263084 
L 291.759927 263.479558 
L 292.771714 162.392667 
L 293.176428 139.863285 
L 293.581142 128.345455 
L 293.7835 126.573481 
L 293.985857 130.180713 
L 294.592928 156.338423 
L 295.402357 241.667403 
L 295.807072 256.729181 
L 296.009429 256.560422 
L 296.414143 235.760824 
L 297.830644 97.293722 
L 298.235358 83.645304 
L 298.437715 80.987343 
L 298.640073 81.261577 
L 298.84243 83.37107 
L 299.044787 91.619186 
L 299.449501 119.295731 
L 300.056573 200.363536 
L 300.461287 226.268106 
L 300.663645 232.44892 
L 300.866002 233.187243 
L 301.068359 226.183727 
L 301.473073 195.342943 
L 302.484859 87.273631 
L 302.687217 75.650326 
L 302.889574 75.755801 
L 303.091931 84.067202 
L 303.496646 92.948167 
L 303.90136 115.793973 
L 304.306074 144.483074 
L 304.913146 215.551883 
L 305.31786 241.583024 
L 305.520218 247.299749 
L 305.722575 245.46449 
L 305.924932 238.14455 
L 306.532004 197.114917 
L 307.54379 125.223405 
L 307.746147 114.739227 
L 307.948504 113.832145 
L 308.757933 146.972275 
L 309.162647 173.741738 
L 309.769719 238.439879 
L 310.174433 258.859769 
L 310.376791 263.374083 
L 310.579148 262.783425 
L 310.983862 238.735208 
L 312.198005 131.889402 
L 312.60272 119.949674 
L 312.805077 115.456454 
L 313.007434 116.026017 
L 313.209791 119.823104 
L 313.816863 148.153591 
L 314.01922 162.202813 
L 314.626292 226.479056 
L 315.031006 247.531793 
L 315.233364 252.235962 
L 315.435721 251.560924 
L 315.840435 232.280161 
L 316.24515 213.062682 
L 316.649864 200.72215 
L 317.054578 185.006429 
L 317.66165 177.285686 
L 317.864007 176.821597 
L 318.066364 175.89342 
L 318.268722 180.703064 
L 318.875793 203.443395 
L 319.685222 263.627223 
L 320.089937 276.748267 
L 320.292294 278.435861 
L 320.697008 270.293219 
L 321.101723 243.354997 
L 322.315866 163.320844 
L 322.72058 152.794475 
L 322.922937 150.410748 
L 323.125295 154.650829 
L 323.732366 183.023506 
L 324.541795 253.417278 
L 324.94651 268.099347 
L 325.148867 271.073732 
L 325.351224 271.137017 
L 325.553581 268.816575 
L 325.755938 256.159618 
L 326.970082 140.707082 
L 327.172439 134.209844 
L 327.374796 132.585535 
L 327.77951 126.86881 
L 327.981868 131.994877 
L 328.184225 141.023506 
L 328.791296 194.077248 
L 329.196011 238.988348 
L 329.398368 254.640784 
L 329.803083 265.019488 
L 330.00544 264.049121 
L 330.207797 258.290206 
L 330.814869 208.463988 
L 331.42194 169.206328 
L 331.826655 145.917529 
L 332.029012 142.943144 
L 332.231369 142.964239 
L 332.433726 143.154093 
L 332.636083 145.305776 
L 332.838441 149.967755 
L 333.243155 173.509694 
L 333.445512 182.770367 
L 334.052584 250.274134 
L 334.457298 272.655851 
L 334.659655 278.224912 
L 334.862013 275.756806 
L 335.266727 255.379106 
L 335.671442 230.360522 
L 336.48087 189.16213 
L 336.683228 183.951683 
L 336.885585 182.812557 
L 337.087942 176.462983 
L 337.290299 174.56444 
L 337.695014 181.209342 
L 338.099728 196.060171 
L 338.302085 202.09332 
L 339.111514 269.702562 
L 339.313871 276.07323 
L 339.516228 278.372577 
L 339.718586 274.195781 
L 340.1233 250.210849 
L 340.932729 204.540331 
L 342.349229 141.107885 
L 342.551587 141.023506 
L 343.158658 166.379608 
L 343.76573 230.845706 
L 344.170444 249.345957 
L 344.372801 254.23998 
L 344.575159 252.046107 
L 344.777516 244.937117 
L 345.18223 213.210347 
L 346.194016 128.32436 
L 346.598731 113.157107 
L 347.003445 106.36454 
L 347.205802 105.499648 
L 347.40816 108.769362 
L 347.610517 116.827624 
L 348.015231 143.639277 
L 348.82466 237.237469 
L 349.229374 254.809543 
L 349.431732 254.029031 
L 349.634089 248.080261 
L 349.836446 236.646811 
L 351.050589 129.379106 
L 351.455304 110.520241 
L 351.860018 101.428327 
L 352.062375 100.500151 
L 352.264733 104.233953 
L 352.46709 115.625213 
L 353.276519 200.975289 
L 353.681233 239.937619 
L 354.085947 260.673933 
L 354.288305 266.095329 
L 354.490662 266.685987 
L 354.693019 264.38664 
L 355.097733 221.205324 
L 355.704805 145.369061 
L 356.109519 119.991863 
L 356.716591 101.301758 
L 356.918948 100.183727 
L 357.121306 105.11994 
L 357.52602 131.446409 
L 357.728377 144.483074 
L 358.740163 242.574485 
L 359.144878 255.906479 
L 359.347235 257.826118 
L 359.549592 257.488599 
L 359.751949 243.101858 
L 360.763735 119.169161 
L 361.16845 99.571974 
L 361.573164 88.159618 
L 361.775521 85.796986 
L 361.977879 89.172175 
L 362.180236 96.365545 
L 362.58495 122.860773 
L 363.394379 214.054144 
L 363.799093 232.195781 
L 364.001451 233.039578 
L 364.203808 226.985334 
L 364.406165 216.64882 
L 365.013237 145.137017 
L 365.620308 78.772376 
L 366.025023 62.149573 
L 366.429737 55.8 
L 366.632094 56.306278 
L 366.834451 59.027524 
L 367.036809 67.992868 
L 367.441523 98.010949 
L 368.048595 179.901457 
L 368.453309 211.290708 
L 368.655666 220.066198 
L 368.858024 222.513209 
L 369.060381 218.505173 
L 369.262738 208.358513 
L 369.86981 143.006429 
L 370.476881 83.160121 
L 370.881596 66.052135 
L 371.083953 65.588046 
L 371.28631 66.326369 
L 371.488667 70.376595 
L 371.691024 76.789453 
L 372.298096 116.912004 
L 373.107525 204.413762 
L 373.512239 227.301758 
L 373.714597 231.794977 
L 374.119311 231.07775 
L 374.321668 217.956705 
L 375.333454 111.047614 
L 375.738169 97.399196 
L 375.940526 94.614666 
L 376.142883 93.47554 
L 376.34524 98.812557 
L 376.749955 125.835158 
L 377.559383 186.504169 
L 377.964098 222.196786 
L 378.368812 236.414766 
L 378.57117 236.646811 
L 378.773527 230.529282 
L 378.975884 218.969262 
L 380.392384 98.791462 
L 380.797099 88.560422 
L 381.201813 80.734204 
L 381.40417 84.615671 
L 382.011242 122.776394 
L 382.820671 208.189754 
L 383.225385 224.791462 
L 383.427743 225.466499 
L 383.6301 219.960723 
L 384.034814 197.030537 
L 385.0466 121.320844 
L 385.451315 104.107383 
L 385.653672 103.6222 
L 385.856029 107.524761 
L 386.058386 115.393169 
L 387.070172 187.558915 
L 387.474887 228.926067 
L 387.879601 251.497639 
L 388.284316 260.927072 
L 388.68903 263.521748 
L 388.891387 257.594073 
L 389.700816 212.682973 
L 390.307888 201.122953 
L 390.914959 187.980814 
L 391.117316 192.917027 
L 391.926745 233.735711 
L 392.533817 279.321848 
L 392.938531 292.084279 
L 393.140888 294.003918 
L 393.343246 293.539829 
L 393.545603 294.025013 
L 393.74796 284.785434 
L 394.355032 242.321346 
L 395.569175 184.057157 
L 395.771532 177.855249 
L 395.973889 179.099849 
L 396.176247 187.685485 
L 396.783318 231.056655 
L 397.188033 270.799498 
L 397.592747 289.194274 
L 397.795104 292.063184 
L 397.997461 289.447413 
L 398.402176 270.736213 
L 400.628105 139.061678 
L 400.830462 141.993872 
L 401.03282 152.267102 
L 401.639891 211.121949 
L 402.044606 256.876846 
L 402.44932 277.845203 
L 402.651677 281.979809 
L 402.854034 280.27112 
L 403.258749 261.496635 
L 403.663463 232.174686 
L 404.877607 122.755299 
L 405.282321 101.575992 
L 405.484678 97.230437 
L 405.687035 98.348468 
L 405.889393 109.191261 
L 406.294107 147.752788 
L 406.901179 227.639277 
L 407.305893 252.468006 
L 407.50825 258.248016 
L 407.710607 257.699548 
L 408.115322 235.781919 
L 409.73418 99.276645 
L 409.936537 94.192767 
L 410.138894 94.045103 
L 410.341251 98.791462 
L 410.948323 136.045103 
L 411.15068 152.456956 
L 411.757752 225.29774 
L 412.162466 250.126469 
L 412.364823 256.813561 
L 412.56718 258.64882 
L 412.971895 240.021999 
L 414.388395 138.808538 
L 414.79311 124.843697 
L 415.197824 117.96675 
L 415.400181 124.949171 
L 416.20961 189.478553 
L 416.614325 236.140532 
L 417.019039 259.93561 
L 417.221396 264.323355 
L 417.423753 263.753792 
L 417.828468 247.0888 
L 419.244968 146.276143 
L 419.649683 132.248016 
L 419.85204 128.303265 
L 420.054397 129.77991 
L 420.256754 138.703064 
L 421.066183 205.974787 
L 421.673255 262.720141 
L 422.077969 279.279658 
L 422.280326 281.832145 
L 422.482684 281.157107 
L 422.685041 280.988348 
L 423.089755 249.324862 
L 423.899184 178.234957 
L 424.708613 137.774887 
L 424.91097 134.505173 
L 425.113327 138.618684 
L 425.518042 165.493621 
L 425.720399 177.623204 
L 426.529828 254.345455 
L 426.934542 273.436364 
L 427.136899 278.035058 
L 427.339257 278.85776 
L 427.541614 279.089804 
L 427.743971 270.25103 
L 428.148685 228.778403 
L 428.755757 165.177197 
L 429.160471 138.829633 
L 429.565186 130.349473 
L 429.9699 134.378604 
L 430.374615 151.043596 
L 430.576972 163.00442 
L 431.386401 241.076745 
L 431.791115 253.649322 
L 431.993472 251.560924 
L 432.398187 230.698041 
L 433.207616 163.827122 
L 434.017044 91.534807 
L 434.219402 86.514214 
L 435.02883 114.675942 
L 435.433545 140.348468 
L 436.040617 213.484581 
L 436.445331 236.625716 
L 436.647688 241.899448 
L 436.850045 241.203315 
L 437.25476 220.045103 
L 437.659474 184.183727 
L 438.468903 108.727172 
L 438.67126 98.728177 
L 438.873617 99.719638 
L 439.075975 107.018483 
L 439.278332 106.554395 
L 439.480689 108.853742 
L 439.885403 127.902461 
L 440.290118 153.321848 
L 440.897189 228.715118 
L 441.301904 251.624209 
L 441.504261 257.19327 
L 441.706618 257.741738 
L 442.111333 242.616675 
L 442.920762 189.204319 
L 443.527833 153.406228 
L 444.134905 130.054144 
L 444.337262 127.396183 
L 444.539619 133.9778 
L 445.146691 180.238975 
L 445.753762 251.265595 
L 446.158477 273.03556 
L 446.360834 278.119437 
L 446.563191 276.07323 
L 446.967906 256.665897 
L 448.586763 143.955701 
L 448.991478 130.412757 
L 449.193835 128.029031 
L 449.396192 134.863787 
L 450.003264 176.315319 
L 450.812693 258.48006 
L 451.217407 272.128478 
L 451.419764 272.255048 
L 451.824479 254.619689 
L 452.43155 202.873832 
L 453.038622 159.861276 
L 453.443336 142.373581 
L 453.848051 134.294224 
L 454.050408 137.753792 
L 454.252765 148.005927 
L 454.65748 177.159116 
L 454.859837 185.829131 
L 455.669266 252.257057 
L 456.07398 266.158614 
L 456.276337 267.719638 
L 456.478694 265.67343 
L 456.681052 262.488096 
L 456.883409 254.28217 
L 457.288123 226.563435 
L 457.692838 215.319839 
L 457.895195 216.037067 
L 458.299909 221.943646 
L 458.502267 221.795982 
L 458.906981 217.872325 
L 459.109338 218.420794 
L 459.514053 222.681969 
L 459.71641 227.090809 
L 460.728196 286.304269 
L 461.13291 290.839679 
L 461.537625 287.443395 
L 461.739982 278.288197 
L 462.144696 242.890909 
L 463.561197 171.927574 
L 463.763554 164.481065 
L 463.965911 165.683476 
L 464.572983 185.660372 
L 465.382412 254.366549 
L 465.584769 261.454445 
L 465.787126 264.238975 
L 465.989483 261.749774 
L 467.608341 166.822602 
L 468.620127 145.094827 
L 468.822484 148.301256 
L 469.429556 175.218383 
L 470.036627 233.398192 
L 470.441342 251.645304 
L 470.643699 254.345455 
L 470.846056 251.708589 
L 471.857842 199.477549 
L 472.869628 168.446911 
L 473.071985 168.953189 
L 473.274343 167.117931 
L 473.4767 168.404721 
L 473.679057 172.286188 
L 473.881414 179.036565 
L 474.083772 180.21788 
L 474.286129 188.086288 
L 474.8932 241.540834 
L 475.297915 258.205826 
L 475.500272 259.914515 
L 475.702629 257.826118 
L 476.107344 232.828629 
L 476.512058 210.257057 
L 477.321487 177.960723 
L 477.726201 157.287695 
L 477.928558 153.638272 
L 478.333273 158.447916 
L 478.53563 163.025515 
L 479.142702 188.592567 
L 479.952131 258.100352 
L 480.356845 268.204822 
L 480.559202 267.782923 
L 480.963917 245.126971 
L 482.785131 113.452436 
L 482.987489 107.398192 
L 483.189846 104.698041 
L 483.392203 110.478051 
L 483.999275 151.36002 
L 484.606346 224.285183 
L 485.011061 248.101356 
L 485.213418 252.615671 
L 485.415775 253.586037 
L 485.82049 233.313812 
L 486.225204 201.312808 
L 487.23699 109.043596 
L 487.439347 105.879357 
L 487.844062 112.608639 
L 488.248776 131.699548 
L 489.260562 211.206328 
L 489.665277 244.1777 
L 490.069991 259.661376 
L 490.272348 262.066198 
L 490.474705 260.905977 
L 490.677063 259.091813 
L 490.87942 249.113913 
L 491.891206 167.37107 
L 492.29592 149.208338 
L 492.498277 141.635259 
L 492.700635 139.567956 
L 492.902992 141.234455 
L 493.105349 146.170668 
L 493.712421 180.534304 
L 494.52185 254.345455 
L 495.128921 273.07775 
L 495.331278 273.225414 
L 495.533636 272.592567 
L 495.735993 264.850728 
L 496.950136 171.041587 
L 497.557208 146.065193 
L 497.759565 142.62672 
L 497.961922 145.917529 
L 498.568994 178.213862 
L 499.378422 253.881366 
L 499.58078 260.884882 
L 499.783137 263.437368 
L 499.985494 260.041085 
L 500.187851 251.307785 
L 500.794923 213.463486 
L 500.99728 208.231944 
L 501.401995 194.81557 
L 501.806709 183.276645 
L 502.009066 182.812557 
L 502.211423 184.922049 
L 502.413781 185.575992 
L 502.616138 183.867303 
L 503.020852 193.824108 
L 503.223209 194.393672 
L 503.425567 202.09332 
L 504.032638 254.050126 
L 504.437353 267.445404 
L 504.63971 269.111904 
L 504.842067 266.685987 
L 505.246782 241.709593 
L 505.651496 217.302762 
L 507.270354 142.331391 
L 507.472711 139.146057 
L 507.675068 142.62672 
L 508.28214 171.358011 
L 508.889211 230.824611 
L 509.293926 248.37559 
L 509.496283 251.982823 
L 509.69864 250.105374 
L 510.103354 225.972777 
L 511.722212 116.954194 
L 512.126927 98.749272 
L 512.329284 100.373581 
L 512.936355 135.602109 
L 513.34107 175.513712 
L 513.745784 220.066198 
L 514.150499 243.354997 
L 514.352856 249.071723 
L 514.555213 249.578001 
L 514.75757 240.464992 
L 516.174071 141.29774 
L 516.376428 140.179709 
L 516.781142 149.735711 
L 516.9835 146.930085 
L 517.185857 147.478553 
L 517.590571 165.620191 
L 517.792928 169.965746 
L 517.995286 180.935108 
L 518.4 221.585033 
L 518.4 221.585033 
" clip-path="url(#p834223e526)" style="fill: none; stroke: #1f77b4; stroke-width: 1.5; stroke-linecap: square"/>
   </g>
   <g id="line2d_14">
    <path d="M 72 257.36389 
L 72.202357 257.36389 
L 72.607072 260.486194 
L 72.809429 260.904534 
L 73.011786 259.099107 
L 73.821215 234.245399 
L 74.428286 202.436878 
L 75.035358 169.768849 
L 75.237715 166.025265 
L 75.440073 166.846566 
L 75.844787 178.209355 
L 76.249501 195.455167 
L 77.05893 254.579855 
L 77.261287 260.18541 
L 77.463645 262.584955 
L 77.666002 259.686775 
L 78.070716 244.737876 
L 78.475431 225.174827 
L 79.082502 203.287814 
L 79.891931 169.279706 
L 80.094288 169.867611 
L 80.296646 173.811123 
L 80.903717 194.955524 
L 81.308432 229.054061 
L 81.713146 262.854747 
L 81.915503 271.170578 
L 82.11786 273.065896 
L 82.320218 272.196363 
L 82.724932 263.074238 
L 83.129646 252.174178 
L 83.534361 239.599884 
L 84.141432 226.874761 
L 84.546147 229.481146 
L 84.748504 231.132196 
L 85.76029 254.760637 
L 86.367362 277.746152 
L 86.974433 289.138206 
L 87.176791 289.976642 
L 87.379148 287.689938 
L 88.390934 251.904969 
L 88.593291 248.073901 
L 88.998005 249.753777 
L 89.200363 251.73434 
L 89.40272 249.284028 
L 89.807434 248.195417 
L 90.212149 246.223414 
L 90.414506 245.419475 
L 90.616863 243.719164 
L 90.81922 250.088688 
L 91.426292 278.474105 
L 91.831006 284.32215 
L 92.033364 284.94187 
L 92.235721 282.001024 
L 93.04515 245.777605 
L 93.652221 234.308187 
L 93.854578 234.96742 
L 94.056936 234.617771 
L 94.259293 234.636692 
L 94.664007 230.843594 
L 94.866364 231.005406 
L 95.068722 233.041005 
L 95.675793 246.537286 
L 96.282865 275.501708 
L 96.485222 280.355467 
L 96.687579 279.952073 
L 96.889937 278.750683 
L 97.092294 273.621743 
L 97.901723 239.439642 
L 98.306437 238.310308 
L 98.508794 236.751845 
L 98.913509 235.813609 
L 99.115866 235.870116 
L 99.318223 232.9518 
L 99.52058 232.47826 
L 99.722937 232.719957 
L 99.925295 233.469306 
L 100.532366 245.713082 
L 101.139438 276.386882 
L 101.341795 282.545151 
L 101.544152 285.26664 
L 101.74651 283.676908 
L 101.948867 278.183841 
L 102.555938 248.842761 
L 102.960653 240.262276 
L 103.16301 237.360428 
L 103.567724 240.294514 
L 103.770082 240.266832 
L 103.972439 237.718279 
L 104.174796 232.455846 
L 104.377153 232.083941 
L 104.781868 232.568286 
L 105.186582 238.785539 
L 105.388939 247.1738 
L 105.793654 270.630955 
L 106.198368 282.094462 
L 106.400725 285.480813 
L 106.603083 284.623737 
L 106.80544 280.36133 
L 107.614869 243.853509 
L 108.019583 236.690385 
L 108.22194 236.521855 
L 108.424297 235.14098 
L 108.626655 227.389322 
L 109.031369 203.630323 
L 109.233726 205.074825 
L 109.840798 226.370368 
L 110.245512 245.900979 
L 110.650227 270.530757 
L 111.257298 284.648522 
L 111.459655 283.248896 
L 111.662013 278.822181 
L 113.887942 185.073942 
L 114.090299 184.820583 
L 114.495014 196.505575 
L 114.899728 218.540021 
L 115.709157 267.899207 
L 116.113871 279.501935 
L 116.316228 279.690201 
L 116.518586 276.306701 
L 116.9233 263.52139 
L 117.732729 223.836285 
L 118.339801 181.956431 
L 118.744515 162.764224 
L 118.946872 161.306831 
L 119.149229 163.033753 
L 119.351587 166.244308 
L 119.756301 188.084347 
L 119.958658 203.272131 
L 120.363373 244.479233 
L 120.768087 269.282763 
L 120.970444 274.310506 
L 121.172801 275.169318 
L 121.375159 273.705281 
L 121.98223 254.858624 
L 122.994016 203.473941 
L 123.398731 190.765829 
L 123.601088 188.259868 
L 123.803445 191.969712 
L 124.20816 206.17697 
L 124.815231 234.336017 
L 125.219946 265.814431 
L 125.62466 282.056368 
L 125.827017 284.748163 
L 126.029374 284.7418 
L 126.231732 281.283169 
L 126.636446 259.037083 
L 128.457661 161.578968 
L 128.660018 159.021812 
L 128.862375 161.354581 
L 129.26709 187.153845 
L 129.671804 221.525735 
L 130.076519 266.302491 
L 130.278876 276.340432 
L 130.481233 279.428105 
L 130.68359 278.437415 
L 131.088305 268.688495 
L 132.302448 200.248936 
L 132.909519 156.589634 
L 133.314234 139.601514 
L 133.516591 141.022607 
L 133.921306 156.007617 
L 134.528377 195.584764 
L 134.933092 246.917451 
L 135.337806 268.666933 
L 135.540163 271.269815 
L 135.74252 269.116489 
L 135.944878 262.213138 
L 137.361378 189.825418 
L 137.766092 183.183369 
L 137.96845 181.952478 
L 138.170807 184.656313 
L 138.777879 202.070196 
L 139.587307 247.501461 
L 139.992022 269.117725 
L 140.194379 274.966359 
L 140.396736 277.338696 
L 140.599093 275.809543 
L 141.003808 258.710153 
L 141.408522 231.513436 
L 141.813237 222.465511 
L 142.217951 208.489396 
L 142.420308 206.411849 
L 142.622665 202.12569 
L 142.825023 200.431714 
L 143.02738 200.540551 
L 143.229737 204.223634 
L 144.039166 229.120492 
L 145.050952 278.090749 
L 145.253309 280.73999 
L 145.455666 276.738559 
L 145.658024 270.409772 
L 146.467452 222.611927 
L 147.681596 199.181684 
L 147.883953 203.359231 
L 148.288667 219.561874 
L 148.693382 236.876127 
L 148.895739 241.708408 
L 149.300453 264.821043 
L 149.705168 278.176971 
L 150.109882 284.143719 
L 150.312239 284.958389 
L 150.514597 281.224237 
L 151.526383 239.478307 
L 151.72874 236.268265 
L 151.931097 234.898492 
L 152.335811 239.966578 
L 152.538169 239.798746 
L 152.740526 240.79544 
L 153.14524 250.908108 
L 153.549955 254.991191 
L 153.752312 254.352982 
L 153.954669 256.653642 
L 154.359383 268.400736 
L 154.764098 279.180644 
L 154.966455 284.618457 
L 155.168812 285.760025 
L 155.37117 283.731919 
L 155.775884 272.638992 
L 156.382956 244.636412 
L 157.192384 193.616806 
L 157.597099 178.645006 
L 157.799456 176.798518 
L 158.001813 176.110047 
L 158.20417 177.432454 
L 158.608885 192.488426 
L 158.811242 205.404251 
L 159.215956 243.615429 
L 159.620671 268.782606 
L 159.823028 272.778502 
L 160.025385 272.35468 
L 160.227743 270.475856 
L 160.632457 250.030339 
L 161.644243 188.219355 
L 161.8466 178.526232 
L 162.251315 173.003128 
L 162.453672 173.622216 
L 162.656029 177.789192 
L 163.465458 215.147586 
L 164.477244 276.711755 
L 164.679601 277.951662 
L 164.881958 274.751437 
L 165.286673 260.871348 
L 165.893744 232.671518 
L 166.298459 222.288607 
L 166.90553 197.025255 
L 167.310245 177.145508 
L 167.512602 175.564199 
L 167.714959 180.243972 
L 168.119674 202.278608 
L 168.726745 245.262523 
L 169.13146 269.548871 
L 169.536174 277.723687 
L 169.738531 276.459719 
L 169.940888 270.020065 
L 170.345603 245.834618 
L 170.750317 221.266124 
L 171.964461 151.371593 
L 172.166818 148.628164 
L 172.369175 150.625987 
L 172.773889 168.316781 
L 173.380961 216.980679 
L 173.988033 265.899911 
L 174.19039 273.810189 
L 174.392747 276.668035 
L 174.595104 274.630702 
L 174.797461 268.080515 
L 176.618676 177.139456 
L 177.023391 168.259534 
L 177.225748 166.254976 
L 177.630462 178.704409 
L 178.237534 224.422667 
L 178.642248 262.627329 
L 179.046963 279.643008 
L 179.24932 280.883582 
L 179.451677 279.972322 
L 179.654034 274.858497 
L 180.058749 253.2847 
L 181.475249 168.852437 
L 181.879964 154.76821 
L 182.082321 154.711802 
L 182.487035 166.340642 
L 183.094107 210.223998 
L 183.498821 244.733361 
L 183.903536 263.195434 
L 184.105893 267.218415 
L 184.30825 265.835263 
L 184.712965 253.812805 
L 185.117679 236.396907 
L 185.522393 206.224621 
L 186.129465 152.128227 
L 186.53418 141.037915 
L 186.736537 141.391136 
L 187.141251 157.92863 
L 187.545966 181.962314 
L 188.557752 248.897034 
L 188.962466 263.849205 
L 189.164823 265.261192 
L 189.36718 261.723112 
L 189.771895 247.049451 
L 190.581324 197.852475 
L 190.986038 164.156526 
L 191.188395 156.120253 
L 191.390752 154.466027 
L 191.59311 156.116703 
L 191.795467 159.3013 
L 192.200181 176.536983 
L 193.616682 262.34897 
L 193.819039 267.175868 
L 194.021396 269.233654 
L 194.223753 267.28116 
L 194.830825 240.493487 
L 196.044968 176.541641 
L 196.247325 179.78204 
L 196.854397 201.277646 
L 197.461469 228.41874 
L 197.866183 248.173041 
L 198.473255 278.223646 
L 198.675612 280.085086 
L 198.877969 277.028535 
L 199.080326 270.695174 
L 200.699184 182.859393 
L 201.306256 164.965429 
L 201.508613 164.255872 
L 201.71097 167.237141 
L 202.115684 186.851181 
L 202.722756 228.779526 
L 203.127471 260.428873 
L 203.329828 267.541629 
L 203.532185 268.674578 
L 203.734542 265.544485 
L 204.139257 248.385933 
L 204.543971 223.099929 
L 204.746328 215.932603 
L 205.555757 169.838917 
L 205.960471 158.480524 
L 206.162829 157.938607 
L 206.365186 163.268309 
L 206.7699 182.804177 
L 207.579329 233.805492 
L 207.984044 260.579987 
L 208.388758 271.548187 
L 208.591115 270.390901 
L 208.793472 263.037816 
L 210.41233 175.786884 
L 211.221759 146.136931 
L 211.424116 150.211194 
L 211.82883 172.970365 
L 212.233545 200.271209 
L 212.638259 239.78644 
L 213.042974 256.989088 
L 213.245331 260.547961 
L 213.447688 260.618982 
L 213.650045 254.733458 
L 214.661831 192.720015 
L 215.066546 156.051235 
L 215.673617 123.152454 
L 215.875975 117.532237 
L 216.078332 118.10882 
L 216.280689 122.975497 
L 216.483046 131.335119 
L 217.292475 195.511307 
L 217.697189 235.204571 
L 218.101904 247.988774 
L 218.304261 249.050606 
L 218.506618 247.422322 
L 218.911333 232.285526 
L 219.316047 219.175545 
L 220.125476 156.393146 
L 220.327833 149.284754 
L 220.53019 146.660887 
L 220.732548 147.552776 
L 221.137262 168.471823 
L 222.553762 254.638236 
L 222.958477 267.533222 
L 223.160834 267.873237 
L 223.363191 263.827559 
L 224.17262 229.614573 
L 224.577335 214.618921 
L 224.982049 206.543296 
L 225.589121 213.221006 
L 226.398549 237.028513 
L 226.600907 240.624782 
L 226.803264 248.046607 
L 227.207978 270.033387 
L 227.612693 281.975175 
L 227.81505 283.961163 
L 228.017407 282.272322 
L 228.219764 277.445001 
L 229.23155 230.814634 
L 229.433908 227.859568 
L 229.636265 226.811788 
L 229.838622 224.796922 
L 230.445694 195.317697 
L 230.648051 190.234691 
L 230.850408 189.252577 
L 231.052765 193.397466 
L 231.45748 214.189409 
L 231.659837 225.064759 
L 232.064551 260.019155 
L 232.469266 279.983805 
L 232.671623 280.967639 
L 233.076337 273.202343 
L 233.481052 256.366513 
L 234.088123 228.077604 
L 234.290481 222.764372 
L 234.695195 198.691361 
L 235.302267 178.47058 
L 235.504624 179.330075 
L 235.909338 196.722309 
L 236.51641 231.354833 
L 237.123481 271.85829 
L 237.325839 279.592784 
L 237.528196 282.533886 
L 237.730553 280.217252 
L 238.135267 264.848174 
L 238.742339 234.516061 
L 238.944696 228.613219 
L 239.551768 201.39656 
L 239.956482 194.011542 
L 240.15884 192.457121 
L 240.361197 193.750671 
L 240.765911 207.093351 
L 242.182412 281.249977 
L 242.384769 284.42948 
L 242.587126 284.111078 
L 242.789483 279.175665 
L 243.194198 257.520342 
L 243.598912 236.648732 
L 244.205984 214.932853 
L 244.813055 187.117475 
L 245.015413 184.114762 
L 245.21777 183.470888 
L 245.622484 193.614682 
L 246.027199 216.558258 
L 246.431913 245.310274 
L 246.836627 270.29078 
L 247.241342 281.50598 
L 247.443699 281.396497 
L 247.646056 276.765375 
L 248.050771 255.758446 
L 249.062557 187.895149 
L 249.467271 159.264179 
L 249.871985 145.287897 
L 250.074343 147.95633 
L 250.479057 165.139181 
L 251.086129 205.03791 
L 251.490843 241.958714 
L 251.895558 263.296824 
L 252.097915 267.731452 
L 252.300272 267.346449 
L 252.502629 263.936453 
L 252.907344 249.742845 
L 253.312058 226.387585 
L 253.716772 194.61793 
L 254.121487 159.557937 
L 254.526201 146.217535 
L 254.728558 145.324236 
L 254.930916 148.031134 
L 255.33563 160.572887 
L 255.740345 187.48717 
L 256.752131 263.09605 
L 256.954488 268.732446 
L 257.156845 269.820067 
L 257.359202 266.967859 
L 257.763917 252.7983 
L 258.370988 219.960627 
L 259.180417 167.118024 
L 259.382774 163.460279 
L 259.585131 163.199515 
L 259.787489 163.969971 
L 260.192203 175.012264 
L 260.596917 198.68822 
L 261.406346 262.532597 
L 261.811061 274.747233 
L 262.013418 273.718154 
L 262.215775 269.176536 
L 263.429918 212.491163 
L 263.632276 209.429204 
L 263.834633 209.820004 
L 264.644062 222.661576 
L 265.45349 245.505608 
L 266.465277 283.724127 
L 266.667634 282.895437 
L 266.869991 279.376606 
L 267.274705 265.27782 
L 267.67942 245.652756 
L 267.881777 239.224134 
L 268.084134 236.964298 
L 269.09592 214.843453 
L 269.298277 208.79972 
L 269.500635 209.313765 
L 269.702992 214.033357 
L 270.714778 254.441326 
L 271.119492 273.428274 
L 271.524207 281.959681 
L 271.726564 279.996287 
L 271.928921 274.04536 
L 274.15485 158.374155 
L 274.357208 156.839203 
L 274.559565 157.192386 
L 274.761922 160.434934 
L 275.166636 176.141707 
L 275.571351 202.897738 
L 275.976065 244.282899 
L 276.38078 260.376314 
L 276.583137 261.328708 
L 276.785494 258.029604 
L 277.392566 225.040612 
L 278.201995 166.781476 
L 278.809066 147.14828 
L 279.011423 144.273953 
L 279.213781 146.762854 
L 279.618495 158.022908 
L 280.225567 196.429407 
L 280.832638 253.997499 
L 281.034995 264.547798 
L 281.237353 268.91765 
L 281.43971 266.169607 
L 281.844424 251.719465 
L 282.85621 195.498796 
L 283.260925 175.475487 
L 283.867996 160.210797 
L 284.070354 159.591199 
L 284.272711 163.543919 
L 284.475068 170.873174 
L 284.879782 199.606147 
L 285.689211 267.279699 
L 285.891568 273.312537 
L 286.093926 275.997297 
L 286.296283 274.275597 
L 286.49864 271.32371 
L 287.712783 212.279059 
L 288.319855 169.790462 
L 288.724569 155.987651 
L 288.926927 154.638754 
L 289.129284 157.304502 
L 289.331641 163.037719 
L 289.736355 191.711531 
L 290.748141 266.142842 
L 290.950499 270.119334 
L 291.152856 269.510617 
L 291.355213 266.427179 
L 291.759927 251.375951 
L 292.366999 213.235561 
L 293.176428 144.027646 
L 293.378785 138.701897 
L 293.581142 136.656574 
L 293.7835 135.908962 
L 293.985857 139.661087 
L 294.390571 158.647395 
L 294.997643 204.659131 
L 295.402357 238.862086 
L 295.807072 256.013436 
L 296.009429 257.043214 
L 296.211786 253.592352 
L 296.6165 230.668354 
L 297.223572 176.938665 
L 297.628286 132.065379 
L 298.033001 104.430966 
L 298.235358 99.759174 
L 298.437715 99.171775 
L 298.640073 101.582181 
L 299.044787 118.077588 
L 299.651859 161.049342 
L 300.461287 228.045609 
L 300.663645 233.473881 
L 300.866002 234.286005 
L 301.068359 231.188728 
L 301.473073 208.940858 
L 301.877788 178.475354 
L 302.484859 112.104138 
L 302.889574 94.384772 
L 303.091931 94.351772 
L 303.294288 99.514616 
L 303.699003 121.164102 
L 304.306074 165.524556 
L 305.115503 225.385042 
L 305.31786 233.513489 
L 305.520218 236.773734 
L 305.722575 236.88949 
L 306.127289 226.161086 
L 306.734361 191.245255 
L 307.341432 148.495254 
L 307.746147 134.483454 
L 307.948504 130.502534 
L 308.150861 131.945259 
L 308.555576 149.79608 
L 309.162647 190.616891 
L 309.567362 222.674268 
L 309.769719 228.681803 
L 310.174433 249.198971 
L 310.376791 252.990392 
L 310.579148 251.627635 
L 311.186219 228.473588 
L 311.590934 202.608174 
L 312.198005 152.223812 
L 312.60272 132.398909 
L 312.805077 128.629963 
L 313.007434 128.779226 
L 313.209791 134.636266 
L 313.614506 156.432157 
L 314.626292 226.609081 
L 315.031006 241.099232 
L 315.233364 242.189422 
L 315.435721 240.230395 
L 315.638078 234.57985 
L 317.054578 174.656229 
L 317.459293 165.902371 
L 317.66165 164.067503 
L 317.864007 165.693856 
L 318.066364 168.996016 
L 318.471079 182.716276 
L 319.887579 260.515865 
L 320.089937 262.322403 
L 320.292294 260.193369 
L 320.494651 256.071058 
L 321.708794 207.786813 
L 322.315866 168.935315 
L 322.72058 153.646539 
L 322.922937 152.960512 
L 323.125295 156.150542 
L 323.327652 163.483577 
L 323.934723 204.282704 
L 324.339438 235.600859 
L 324.744152 257.933998 
L 324.94651 261.280656 
L 325.148867 260.869509 
L 325.351224 256.812679 
L 325.958296 231.460419 
L 326.36301 209.388981 
L 327.172439 137.882884 
L 327.374796 131.133371 
L 327.577153 128.730764 
L 327.77951 129.05811 
L 327.981868 133.029816 
L 328.386582 151.789687 
L 328.993654 206.180702 
L 329.398368 245.277085 
L 329.600725 257.587828 
L 329.803083 262.679379 
L 330.00544 263.385706 
L 330.207797 258.121751 
L 330.410154 249.024638 
L 332.029012 138.662528 
L 332.231369 138.323994 
L 332.433726 140.111296 
L 332.636083 144.785337 
L 333.040798 163.610624 
L 333.647869 203.919324 
L 334.052584 241.781395 
L 334.457298 262.362574 
L 334.659655 266.251145 
L 334.862013 263.532751 
L 335.06437 257.826322 
L 335.671442 226.015023 
L 335.873799 223.342438 
L 336.885585 170.293791 
L 337.290299 166.870839 
L 337.492656 169.028497 
L 337.897371 185.392667 
L 339.313871 271.250207 
L 339.516228 272.561977 
L 339.718586 269.830614 
L 340.1233 251.61275 
L 340.528015 224.842367 
L 340.730372 219.99837 
L 341.135086 196.873537 
L 341.742158 164.546368 
L 342.146872 151.044029 
L 342.349229 150.023684 
L 342.753944 157.911554 
L 343.158658 177.968539 
L 343.563373 209.131559 
L 343.968087 241.873788 
L 344.170444 250.067827 
L 344.372801 253.475465 
L 344.575159 252.29754 
L 344.777516 247.295634 
L 345.586945 197.214156 
L 346.396374 122.330172 
L 346.801088 108.46816 
L 347.003445 107.304409 
L 347.205802 111.092699 
L 347.610517 127.370647 
L 348.015231 154.909738 
L 348.622303 210.603718 
L 348.82466 229.717453 
L 349.229374 245.206821 
L 349.431732 247.324465 
L 349.634089 241.935043 
L 350.24116 210.67978 
L 351.252947 126.148464 
L 351.657661 118.42865 
L 351.860018 117.905707 
L 352.062375 119.970811 
L 352.46709 132.652515 
L 352.871804 160.12189 
L 353.88359 243.288682 
L 354.085947 250.02717 
L 354.288305 250.17897 
L 354.490662 246.742478 
L 355.300091 216.173425 
L 356.109519 131.232044 
L 356.311877 123.605239 
L 356.514234 120.640453 
L 356.716591 120.871927 
L 356.918948 121.857088 
L 357.323663 136.705856 
L 357.728377 165.381292 
L 358.537806 231.271675 
L 358.94252 246.038942 
L 359.144878 246.932583 
L 359.347235 243.496155 
L 359.954306 222.443624 
L 360.156664 210.220264 
L 360.966092 126.202545 
L 361.16845 116.656733 
L 361.370807 113.543627 
L 361.573164 115.239286 
L 361.775521 115.958345 
L 361.977879 118.876866 
L 362.382593 136.589171 
L 362.989665 189.706185 
L 363.394379 225.16241 
L 364.001451 235.122526 
L 364.203808 234.963695 
L 364.406165 228.626046 
L 364.810879 199.779222 
L 365.215594 159.612492 
L 365.620308 113.986301 
L 366.025023 90.429277 
L 366.22738 89.349135 
L 366.429737 91.81771 
L 366.632094 96.798381 
L 367.036809 115.169659 
L 367.441523 144.062754 
L 368.453309 225.8304 
L 368.655666 229.167552 
L 368.858024 228.62891 
L 369.060381 225.168732 
L 369.667452 197.96541 
L 370.072167 164.178953 
L 370.476881 121.176187 
L 370.881596 102.082114 
L 371.083953 99.601287 
L 371.28631 102.612906 
L 371.488667 109.236449 
L 372.095739 144.541618 
L 373.107525 225.707976 
L 373.512239 233.711114 
L 373.714597 232.557792 
L 373.916954 229.612162 
L 374.524025 213.999662 
L 374.92874 187.321478 
L 375.333454 147.867897 
L 375.738169 129.549668 
L 375.940526 126.363835 
L 376.142883 128.788472 
L 376.34524 133.575321 
L 376.952312 168.583215 
L 377.559383 221.783145 
L 378.166455 234.183957 
L 378.368812 237.147995 
L 378.57117 236.502132 
L 378.773527 232.911042 
L 379.178241 221.795274 
L 379.785313 177.286876 
L 380.190027 146.726817 
L 380.594742 127.893014 
L 380.797099 124.395424 
L 380.999456 124.261508 
L 381.201813 127.233169 
L 381.606528 139.986857 
L 382.011242 166.645766 
L 382.820671 226.706659 
L 383.023028 229.612581 
L 383.225385 230.540939 
L 383.6301 226.346522 
L 383.832457 222.590961 
L 384.237171 204.957857 
L 384.237171 204.957857 
" clip-path="url(#p834223e526)" style="fill: none; stroke: #ff7f0e; stroke-width: 1.5; stroke-linecap: square"/>
   </g>
   <g id="line2d_15">
    <path d="M 384.439529 194.486284 
L 384.641886 189.565256 
L 385.0466 170.697172 
L 385.653672 156.692568 
L 385.856029 156.708497 
L 386.058386 160.938353 
L 386.260743 167.60536 
L 386.867815 206.937546 
L 387.272529 228.032292 
L 387.677244 232.906194 
L 387.879601 233.98155 
L 388.081958 233.639674 
L 388.486673 224.222505 
L 389.903173 169.191657 
L 390.10553 161.00359 
L 390.307888 157.546696 
L 390.510245 156.565393 
L 390.712602 154.884671 
L 390.914959 156.290917 
L 391.117316 161.802048 
L 392.33146 226.015861 
L 392.533817 228.124908 
L 392.736174 228.983824 
L 392.938531 227.737675 
L 393.140888 225.050425 
L 393.545603 216.885574 
L 393.74796 214.432362 
L 394.152675 200.873058 
L 394.962103 152.97673 
L 395.366818 135.794712 
L 395.569175 130.945425 
L 395.771532 130.438764 
L 395.973889 132.543083 
L 396.580961 144.324985 
L 397.592747 176.043169 
L 397.795104 178.673168 
L 397.997461 179.085686 
L 398.199819 177.976318 
L 398.402176 173.983191 
L 398.80689 160.047726 
L 399.413962 134.318147 
L 399.818676 120.868089 
L 400.021034 117.499551 
L 400.223391 116.092158 
L 400.425748 116.563179 
L 400.830462 125.922219 
L 401.235177 140.94144 
L 402.44932 205.947157 
L 402.854034 211.616458 
L 403.056392 210.148777 
L 403.461106 197.572288 
L 404.068178 175.488648 
L 404.675249 152.821515 
L 404.877607 147.732289 
L 405.079964 145.508029 
L 405.282321 146.067068 
L 405.484678 148.055311 
L 405.687035 152.302474 
L 406.09175 168.875672 
L 407.103536 222.660775 
L 407.50825 225.294783 
L 407.710607 225.069245 
L 407.912965 223.738727 
L 408.520036 213.744335 
L 409.127108 197.635078 
L 409.73418 179.831091 
L 410.138894 175.921633 
L 410.341251 176.027534 
L 410.543608 178.644346 
L 410.948323 188.728512 
L 411.960109 218.921574 
L 412.162466 221.208641 
L 412.364823 221.504164 
L 412.56718 220.931265 
L 412.971895 214.34879 
L 413.376609 205.59306 
L 413.781324 189.801924 
L 414.79311 143.227131 
L 415.197824 135.117124 
L 415.400181 135.091505 
L 415.804896 138.810996 
L 416.20961 147.108732 
L 417.423753 179.716049 
L 417.626111 180.977051 
L 417.828468 179.258119 
L 418.030825 175.353797 
L 418.637897 153.296483 
L 419.244968 130.991471 
L 419.649683 120.529516 
L 419.85204 117.703004 
L 420.054397 116.741616 
L 420.256754 117.648935 
L 420.459112 120.236592 
L 420.661469 124.561083 
L 421.066183 139.745298 
L 422.077969 184.330159 
L 422.482684 193.677373 
L 422.685041 193.706698 
L 422.887398 192.370937 
L 423.292112 185.298249 
L 424.506256 152.049149 
L 424.708613 150.274105 
L 424.91097 150.531396 
L 425.113327 152.795993 
L 425.518042 163.964742 
L 426.125113 193.704795 
L 426.529828 214.83628 
L 426.732185 221.107443 
L 426.934542 223.061487 
L 427.136899 223.461832 
L 427.339257 223.346289 
L 427.743971 219.658314 
L 428.351043 208.257147 
L 429.565186 180.887195 
L 429.767543 179.969995 
L 429.9699 180.781576 
L 430.374615 187.930375 
L 430.981686 205.80994 
L 431.386401 217.533367 
L 431.588758 220.447663 
L 431.791115 221.726161 
L 431.993472 222.114765 
L 432.19583 221.445501 
L 432.398187 219.69838 
L 433.005258 210.454424 
L 433.207616 206.361108 
L 433.814687 182.89445 
L 434.624116 153.257742 
L 435.02883 147.319303 
L 435.231188 146.82251 
L 435.433545 147.493075 
L 435.838259 151.88736 
L 436.647688 163.966133 
L 437.052403 167.252802 
L 437.25476 166.627408 
L 437.659474 160.764453 
L 438.064189 151.043862 
L 438.873617 128.123911 
L 439.278332 119.475709 
L 439.480689 117.021084 
L 439.683046 115.959678 
L 439.885403 116.421754 
L 440.087761 118.43179 
L 440.492475 126.750921 
L 441.099547 150.430038 
L 441.706618 171.319573 
L 442.111333 179.226215 
L 442.31369 180.664734 
L 442.516047 180.48557 
L 442.718404 178.501184 
L 443.123119 171.13511 
L 443.932548 154.001644 
L 444.337262 150.372932 
L 444.539619 150.874473 
L 444.741976 153.160062 
L 445.146691 162.865107 
L 445.753762 188.97071 
L 446.360834 215.71868 
L 446.563191 220.282719 
L 446.765549 221.796763 
L 446.967906 222.05557 
L 447.37262 220.180051 
L 448.182049 208.628857 
L 448.789121 199.781041 
L 449.193835 196.489589 
L 449.396192 196.746042 
L 449.598549 198.122607 
L 450.003264 205.459184 
L 450.610335 219.085331 
L 451.01505 222.865704 
L 451.217407 223.399331 
L 451.419764 223.4156 
L 451.622121 222.96205 
L 452.026836 220.344472 
L 452.43155 215.639746 
L 452.836265 209.839551 
L 453.240979 199.020889 
L 454.252765 167.530338 
L 454.65748 159.946682 
L 455.062194 156.536411 
L 455.264551 156.138874 
L 455.466908 156.33893 
L 455.871623 157.517746 
L 456.276337 158.834712 
L 456.478694 158.828971 
L 456.681052 158.705064 
L 456.883409 157.890639 
L 457.288123 152.794448 
L 457.692838 144.802978 
L 458.906981 116.858609 
L 459.311695 111.472487 
L 459.514053 110.794841 
L 459.71641 111.400374 
L 459.918767 113.6291 
L 460.323481 122.507834 
L 461.739982 163.103796 
L 462.144696 166.631618 
L 462.347053 166.818308 
L 462.751768 164.387263 
L 463.763554 155.441697 
L 463.965911 155.659791 
L 464.168268 157.128673 
L 464.572983 163.771914 
L 464.977697 175.102184 
L 466.19184 216.368779 
L 466.394198 218.668416 
L 466.798912 219.808879 
L 467.001269 219.377766 
L 467.203626 218.641169 
L 468.41777 210.632473 
L 468.620127 210.416626 
L 468.822484 210.733845 
L 469.024841 211.69196 
L 469.429556 215.419611 
L 470.036627 222.051931 
L 470.238985 223.289215 
L 470.643699 224.033455 
L 470.846056 224.110393 
L 471.048413 224.041159 
L 471.453128 222.641226 
L 472.060199 219.38566 
L 472.667271 213.080608 
L 473.071985 206.240033 
L 475.297915 157.347396 
L 475.904986 151.038364 
L 476.714415 143.614583 
L 477.321487 134.466551 
L 478.737987 110.147658 
L 479.142702 106.967028 
L 479.345059 107.398962 
L 479.547416 109.588107 
L 479.952131 117.713167 
L 481.570988 158.786007 
L 481.975703 162.663404 
L 482.17806 163.574177 
L 482.380417 163.918497 
L 482.582774 163.842771 
L 483.189846 162.423844 
L 483.392203 162.921739 
L 483.59456 163.906547 
L 483.999275 167.779567 
L 484.403989 174.644478 
L 485.011061 189.532538 
L 485.82049 210.476197 
L 486.225204 215.254368 
L 486.629918 218.278959 
L 487.034633 219.870503 
L 487.641704 220.844935 
L 488.451133 222.261109 
L 489.058205 222.623812 
L 490.272348 224.020359 
L 490.474705 223.966445 
L 490.87942 223.310885 
L 491.284134 222.097049 
L 491.891206 219.217514 
L 492.498277 214.46269 
L 492.902992 209.488714 
L 493.510063 196.534285 
L 495.533636 145.168027 
L 496.950136 126.217181 
L 497.759565 116.250039 
L 498.366636 111.242551 
L 498.568994 110.339096 
L 498.771351 110.056693 
L 498.973708 110.866916 
L 499.378422 115.578051 
L 499.985494 128.059917 
L 501.199637 155.544638 
L 501.806709 163.941597 
L 502.413781 167.986519 
L 503.425567 174.170361 
L 504.032638 180.806399 
L 504.63971 190.499975 
L 505.853853 212.735131 
L 506.663282 221.257179 
L 507.067996 223.847784 
L 507.270354 224.518675 
L 507.472711 224.579412 
L 507.675068 224.500201 
L 507.877425 224.285927 
L 508.686854 222.889663 
L 509.091568 222.582549 
L 509.496283 222.619065 
L 509.900997 222.813305 
L 510.103354 222.80448 
L 510.305712 222.680584 
L 510.710426 221.99342 
L 511.115141 220.785805 
L 511.519855 218.795663 
L 512.531641 209.317156 
L 512.936355 201.095708 
L 513.543427 184.065685 
L 514.555213 153.335404 
L 515.162285 140.439207 
L 515.971714 127.905099 
L 516.578785 120.79199 
L 517.185857 115.636656 
L 517.792928 112.529126 
L 517.995286 112.079173 
L 518.197643 112.164512 
L 518.4 112.662061 
L 518.4 112.662061 
" clip-path="url(#p834223e526)" style="fill: none; stroke: #2ca02c; stroke-width: 1.5; stroke-linecap: square"/>
   </g>
   <g id="patch_3">
    <path d="M 72 320.4 
L 72 43.2 
" style="fill: none; stroke: #000000; stroke-width: 0.8; stroke-linejoin: miter; stroke-linecap: square"/>
   </g>
   <g id="patch_4">
    <path d="M 518.4 320.4 
L 518.4 43.2 
" style="fill: none; stroke: #000000; stroke-width: 0.8; stroke-linejoin: miter; stroke-linecap: square"/>
   </g>
   <g id="patch_5">
    <path d="M 72 320.4 
L 518.4 320.4 
" style="fill: none; stroke: #000000; stroke-width: 0.8; stroke-linejoin: miter; stroke-linecap: square"/>
   </g>
   <g id="patch_6">
    <path d="M 72 43.2 
L 518.4 43.2 
" style="fill: none; stroke: #000000; stroke-width: 0.8; stroke-linejoin: miter; stroke-linecap: square"/>
   </g>
   <g id="text_13">
    <!-- Classic Transformer - model_20231126164340 -->
    <g transform="translate(155.436563 37.2) scale(0.12 -0.12)">
     <defs>
      <path id="DejaVuSans-43" d="M 4122 4306 
L 4122 3641 
Q 3803 3938 3442 4084 
Q 3081 4231 2675 4231 
Q 1875 4231 1450 3742 
Q 1025 3253 1025 2328 
Q 1025 1406 1450 917 
Q 1875 428 2675 428 
Q 3081 428 3442 575 
Q 3803 722 4122 1019 
L 4122 359 
Q 3791 134 3420 21 
Q 3050 -91 2638 -91 
Q 1578 -91 968 557 
Q 359 1206 359 2328 
Q 359 3453 968 4101 
Q 1578 4750 2638 4750 
Q 3056 4750 3426 4639 
Q 3797 4528 4122 4306 
z
" transform="scale(0.015625)"/>
      <path id="DejaVuSans-6c" d="M 603 4863 
L 1178 4863 
L 1178 0 
L 603 0 
L 603 4863 
z
" transform="scale(0.015625)"/>
      <path id="DejaVuSans-61" d="M 2194 1759 
Q 1497 1759 1228 1600 
Q 959 1441 959 1056 
Q 959 750 1161 570 
Q 1363 391 1709 391 
Q 2188 391 2477 730 
Q 2766 1069 2766 1631 
L 2766 1759 
L 2194 1759 
z
M 3341 1997 
L 3341 0 
L 2766 0 
L 2766 531 
Q 2569 213 2275 61 
Q 1981 -91 1556 -91 
Q 1019 -91 701 211 
Q 384 513 384 1019 
Q 384 1609 779 1909 
Q 1175 2209 1959 2209 
L 2766 2209 
L 2766 2266 
Q 2766 2663 2505 2880 
Q 2244 3097 1772 3097 
Q 1472 3097 1187 3025 
Q 903 2953 641 2809 
L 641 3341 
Q 956 3463 1253 3523 
Q 1550 3584 1831 3584 
Q 2591 3584 2966 3190 
Q 3341 2797 3341 1997 
z
" transform="scale(0.015625)"/>
      <path id="DejaVuSans-73" d="M 2834 3397 
L 2834 2853 
Q 2591 2978 2328 3040 
Q 2066 3103 1784 3103 
Q 1356 3103 1142 2972 
Q 928 2841 928 2578 
Q 928 2378 1081 2264 
Q 1234 2150 1697 2047 
L 1894 2003 
Q 2506 1872 2764 1633 
Q 3022 1394 3022 966 
Q 3022 478 2636 193 
Q 2250 -91 1575 -91 
Q 1294 -91 989 -36 
Q 684 19 347 128 
L 347 722 
Q 666 556 975 473 
Q 1284 391 1588 391 
Q 1994 391 2212 530 
Q 2431 669 2431 922 
Q 2431 1156 2273 1281 
Q 2116 1406 1581 1522 
L 1381 1569 
Q 847 1681 609 1914 
Q 372 2147 372 2553 
Q 372 3047 722 3315 
Q 1072 3584 1716 3584 
Q 2034 3584 2315 3537 
Q 2597 3491 2834 3397 
z
" transform="scale(0.015625)"/>
      <path id="DejaVuSans-69" d="M 603 3500 
L 1178 3500 
L 1178 0 
L 603 0 
L 603 3500 
z
M 603 4863 
L 1178 4863 
L 1178 4134 
L 603 4134 
L 603 4863 
z
" transform="scale(0.015625)"/>
      <path id="DejaVuSans-63" d="M 3122 3366 
L 3122 2828 
Q 2878 2963 2633 3030 
Q 2388 3097 2138 3097 
Q 1578 3097 1268 2742 
Q 959 2388 959 1747 
Q 959 1106 1268 751 
Q 1578 397 2138 397 
Q 2388 397 2633 464 
Q 2878 531 3122 666 
L 3122 134 
Q 2881 22 2623 -34 
Q 2366 -91 2075 -91 
Q 1284 -91 818 406 
Q 353 903 353 1747 
Q 353 2603 823 3093 
Q 1294 3584 2113 3584 
Q 2378 3584 2631 3529 
Q 2884 3475 3122 3366 
z
" transform="scale(0.015625)"/>
      <path id="DejaVuSans-20" transform="scale(0.015625)"/>
      <path id="DejaVuSans-54" d="M -19 4666 
L 3928 4666 
L 3928 4134 
L 2272 4134 
L 2272 0 
L 1638 0 
L 1638 4134 
L -19 4134 
L -19 4666 
z
" transform="scale(0.015625)"/>
      <path id="DejaVuSans-72" d="M 2631 2963 
Q 2534 3019 2420 3045 
Q 2306 3072 2169 3072 
Q 1681 3072 1420 2755 
Q 1159 2438 1159 1844 
L 1159 0 
L 581 0 
L 581 3500 
L 1159 3500 
L 1159 2956 
Q 1341 3275 1631 3429 
Q 1922 3584 2338 3584 
Q 2397 3584 2469 3576 
Q 2541 3569 2628 3553 
L 2631 2963 
z
" transform="scale(0.015625)"/>
      <path id="DejaVuSans-6e" d="M 3513 2113 
L 3513 0 
L 2938 0 
L 2938 2094 
Q 2938 2591 2744 2837 
Q 2550 3084 2163 3084 
Q 1697 3084 1428 2787 
Q 1159 2491 1159 1978 
L 1159 0 
L 581 0 
L 581 3500 
L 1159 3500 
L 1159 2956 
Q 1366 3272 1645 3428 
Q 1925 3584 2291 3584 
Q 2894 3584 3203 3211 
Q 3513 2838 3513 2113 
z
" transform="scale(0.015625)"/>
      <path id="DejaVuSans-66" d="M 2375 4863 
L 2375 4384 
L 1825 4384 
Q 1516 4384 1395 4259 
Q 1275 4134 1275 3809 
L 1275 3500 
L 2222 3500 
L 2222 3053 
L 1275 3053 
L 1275 0 
L 697 0 
L 697 3053 
L 147 3053 
L 147 3500 
L 697 3500 
L 697 3744 
Q 697 4328 969 4595 
Q 1241 4863 1831 4863 
L 2375 4863 
z
" transform="scale(0.015625)"/>
      <path id="DejaVuSans-6f" d="M 1959 3097 
Q 1497 3097 1228 2736 
Q 959 2375 959 1747 
Q 959 1119 1226 758 
Q 1494 397 1959 397 
Q 2419 397 2687 759 
Q 2956 1122 2956 1747 
Q 2956 2369 2687 2733 
Q 2419 3097 1959 3097 
z
M 1959 3584 
Q 2709 3584 3137 3096 
Q 3566 2609 3566 1747 
Q 3566 888 3137 398 
Q 2709 -91 1959 -91 
Q 1206 -91 779 398 
Q 353 888 353 1747 
Q 353 2609 779 3096 
Q 1206 3584 1959 3584 
z
" transform="scale(0.015625)"/>
      <path id="DejaVuSans-6d" d="M 3328 2828 
Q 3544 3216 3844 3400 
Q 4144 3584 4550 3584 
Q 5097 3584 5394 3201 
Q 5691 2819 5691 2113 
L 5691 0 
L 5113 0 
L 5113 2094 
Q 5113 2597 4934 2840 
Q 4756 3084 4391 3084 
Q 3944 3084 3684 2787 
Q 3425 2491 3425 1978 
L 3425 0 
L 2847 0 
L 2847 2094 
Q 2847 2600 2669 2842 
Q 2491 3084 2119 3084 
Q 1678 3084 1418 2786 
Q 1159 2488 1159 1978 
L 1159 0 
L 581 0 
L 581 3500 
L 1159 3500 
L 1159 2956 
Q 1356 3278 1631 3431 
Q 1906 3584 2284 3584 
Q 2666 3584 2933 3390 
Q 3200 3197 3328 2828 
z
" transform="scale(0.015625)"/>
      <path id="DejaVuSans-65" d="M 3597 1894 
L 3597 1613 
L 953 1613 
Q 991 1019 1311 708 
Q 1631 397 2203 397 
Q 2534 397 2845 478 
Q 3156 559 3463 722 
L 3463 178 
Q 3153 47 2828 -22 
Q 2503 -91 2169 -91 
Q 1331 -91 842 396 
Q 353 884 353 1716 
Q 353 2575 817 3079 
Q 1281 3584 2069 3584 
Q 2775 3584 3186 3129 
Q 3597 2675 3597 1894 
z
M 3022 2063 
Q 3016 2534 2758 2815 
Q 2500 3097 2075 3097 
Q 1594 3097 1305 2825 
Q 1016 2553 972 2059 
L 3022 2063 
z
" transform="scale(0.015625)"/>
      <path id="DejaVuSans-64" d="M 2906 2969 
L 2906 4863 
L 3481 4863 
L 3481 0 
L 2906 0 
L 2906 525 
Q 2725 213 2448 61 
Q 2172 -91 1784 -91 
Q 1150 -91 751 415 
Q 353 922 353 1747 
Q 353 2572 751 3078 
Q 1150 3584 1784 3584 
Q 2172 3584 2448 3432 
Q 2725 3281 2906 2969 
z
M 947 1747 
Q 947 1113 1208 752 
Q 1469 391 1925 391 
Q 2381 391 2643 752 
Q 2906 1113 2906 1747 
Q 2906 2381 2643 2742 
Q 2381 3103 1925 3103 
Q 1469 3103 1208 2742 
Q 947 2381 947 1747 
z
" transform="scale(0.015625)"/>
      <path id="DejaVuSans-5f" d="M 3263 -1063 
L 3263 -1509 
L -63 -1509 
L -63 -1063 
L 3263 -1063 
z
" transform="scale(0.015625)"/>
      <path id="DejaVuSans-34" d="M 2419 4116 
L 825 1625 
L 2419 1625 
L 2419 4116 
z
M 2253 4666 
L 3047 4666 
L 3047 1625 
L 3713 1625 
L 3713 1100 
L 3047 1100 
L 3047 0 
L 2419 0 
L 2419 1100 
L 313 1100 
L 313 1709 
L 2253 4666 
z
" transform="scale(0.015625)"/>
     </defs>
     <use xlink:href="#DejaVuSans-43"/>
     <use xlink:href="#DejaVuSans-6c" x="69.824219"/>
     <use xlink:href="#DejaVuSans-61" x="97.607422"/>
     <use xlink:href="#DejaVuSans-73" x="158.886719"/>
     <use xlink:href="#DejaVuSans-73" x="210.986328"/>
     <use xlink:href="#DejaVuSans-69" x="263.085938"/>
     <use xlink:href="#DejaVuSans-63" x="290.869141"/>
     <use xlink:href="#DejaVuSans-20" x="345.849609"/>
     <use xlink:href="#DejaVuSans-54" x="377.636719"/>
     <use xlink:href="#DejaVuSans-72" x="423.970703"/>
     <use xlink:href="#DejaVuSans-61" x="465.083984"/>
     <use xlink:href="#DejaVuSans-6e" x="526.363281"/>
     <use xlink:href="#DejaVuSans-73" x="589.742188"/>
     <use xlink:href="#DejaVuSans-66" x="641.841797"/>
     <use xlink:href="#DejaVuSans-6f" x="677.046875"/>
     <use xlink:href="#DejaVuSans-72" x="738.228516"/>
     <use xlink:href="#DejaVuSans-6d" x="777.591797"/>
     <use xlink:href="#DejaVuSans-65" x="875.003906"/>
     <use xlink:href="#DejaVuSans-72" x="936.527344"/>
     <use xlink:href="#DejaVuSans-20" x="977.640625"/>
     <use xlink:href="#DejaVuSans-2d" x="1009.427734"/>
     <use xlink:href="#DejaVuSans-20" x="1045.511719"/>
     <use xlink:href="#DejaVuSans-6d" x="1077.298828"/>
     <use xlink:href="#DejaVuSans-6f" x="1174.710938"/>
     <use xlink:href="#DejaVuSans-64" x="1235.892578"/>
     <use xlink:href="#DejaVuSans-65" x="1299.369141"/>
     <use xlink:href="#DejaVuSans-6c" x="1360.892578"/>
     <use xlink:href="#DejaVuSans-5f" x="1388.675781"/>
     <use xlink:href="#DejaVuSans-32" x="1438.675781"/>
     <use xlink:href="#DejaVuSans-30" x="1502.298828"/>
     <use xlink:href="#DejaVuSans-32" x="1565.921875"/>
     <use xlink:href="#DejaVuSans-33" x="1629.544922"/>
     <use xlink:href="#DejaVuSans-31" x="1693.167969"/>
     <use xlink:href="#DejaVuSans-31" x="1756.791016"/>
     <use xlink:href="#DejaVuSans-32" x="1820.414062"/>
     <use xlink:href="#DejaVuSans-36" x="1884.037109"/>
     <use xlink:href="#DejaVuSans-31" x="1947.660156"/>
     <use xlink:href="#DejaVuSans-36" x="2011.283203"/>
     <use xlink:href="#DejaVuSans-34" x="2074.90625"/>
     <use xlink:href="#DejaVuSans-33" x="2138.529297"/>
     <use xlink:href="#DejaVuSans-34" x="2202.152344"/>
     <use xlink:href="#DejaVuSans-30" x="2265.775391"/>
    </g>
   </g>
   <g id="legend_1">
    <g id="patch_7">
     <path d="M 79 95.234375 
L 161.517188 95.234375 
Q 163.517188 95.234375 163.517188 93.234375 
L 163.517188 50.2 
Q 163.517188 48.2 161.517188 48.2 
L 79 48.2 
Q 77 48.2 77 50.2 
L 77 93.234375 
Q 77 95.234375 79 95.234375 
z
" style="fill: #ffffff; opacity: 0.8; stroke: #cccccc; stroke-linejoin: miter"/>
    </g>
    <g id="line2d_16">
     <path d="M 81 56.298437 
L 91 56.298437 
L 101 56.298437 
" style="fill: none; stroke: #1f77b4; stroke-width: 1.5; stroke-linecap: square"/>
    </g>
    <g id="text_14">
     <!-- Measured -->
     <g transform="translate(109 59.798437) scale(0.1 -0.1)">
      <defs>
       <path id="DejaVuSans-4d" d="M 628 4666 
L 1569 4666 
L 2759 1491 
L 3956 4666 
L 4897 4666 
L 4897 0 
L 4281 0 
L 4281 4097 
L 3078 897 
L 2444 897 
L 1241 4097 
L 1241 0 
L 628 0 
L 628 4666 
z
" transform="scale(0.015625)"/>
       <path id="DejaVuSans-75" d="M 544 1381 
L 544 3500 
L 1119 3500 
L 1119 1403 
Q 1119 906 1312 657 
Q 1506 409 1894 409 
Q 2359 409 2629 706 
Q 2900 1003 2900 1516 
L 2900 3500 
L 3475 3500 
L 3475 0 
L 2900 0 
L 2900 538 
Q 2691 219 2414 64 
Q 2138 -91 1772 -91 
Q 1169 -91 856 284 
Q 544 659 544 1381 
z
M 1991 3584 
L 1991 3584 
z
" transform="scale(0.015625)"/>
      </defs>
      <use xlink:href="#DejaVuSans-4d"/>
      <use xlink:href="#DejaVuSans-65" x="86.279297"/>
      <use xlink:href="#DejaVuSans-61" x="147.802734"/>
      <use xlink:href="#DejaVuSans-73" x="209.082031"/>
      <use xlink:href="#DejaVuSans-75" x="261.181641"/>
      <use xlink:href="#DejaVuSans-72" x="324.560547"/>
      <use xlink:href="#DejaVuSans-65" x="363.423828"/>
      <use xlink:href="#DejaVuSans-64" x="424.947266"/>
     </g>
    </g>
    <g id="line2d_17">
     <path d="M 81 70.976562 
L 91 70.976562 
L 101 70.976562 
" style="fill: none; stroke: #ff7f0e; stroke-width: 1.5; stroke-linecap: square"/>
    </g>
    <g id="text_15">
     <!-- Fitted -->
     <g transform="translate(109 74.476562) scale(0.1 -0.1)">
      <defs>
       <path id="DejaVuSans-46" d="M 628 4666 
L 3309 4666 
L 3309 4134 
L 1259 4134 
L 1259 2759 
L 3109 2759 
L 3109 2228 
L 1259 2228 
L 1259 0 
L 628 0 
L 628 4666 
z
" transform="scale(0.015625)"/>
       <path id="DejaVuSans-74" d="M 1172 4494 
L 1172 3500 
L 2356 3500 
L 2356 3053 
L 1172 3053 
L 1172 1153 
Q 1172 725 1289 603 
Q 1406 481 1766 481 
L 2356 481 
L 2356 0 
L 1766 0 
Q 1100 0 847 248 
Q 594 497 594 1153 
L 594 3053 
L 172 3053 
L 172 3500 
L 594 3500 
L 594 4494 
L 1172 4494 
z
" transform="scale(0.015625)"/>
      </defs>
      <use xlink:href="#DejaVuSans-46"/>
      <use xlink:href="#DejaVuSans-69" x="50.269531"/>
      <use xlink:href="#DejaVuSans-74" x="78.052734"/>
      <use xlink:href="#DejaVuSans-74" x="117.261719"/>
      <use xlink:href="#DejaVuSans-65" x="156.470703"/>
      <use xlink:href="#DejaVuSans-64" x="217.994141"/>
     </g>
    </g>
    <g id="line2d_18">
     <path d="M 81 85.654687 
L 91 85.654687 
L 101 85.654687 
" style="fill: none; stroke: #2ca02c; stroke-width: 1.5; stroke-linecap: square"/>
    </g>
    <g id="text_16">
     <!-- Estimated -->
     <g transform="translate(109 89.154687) scale(0.1 -0.1)">
      <defs>
       <path id="DejaVuSans-45" d="M 628 4666 
L 3578 4666 
L 3578 4134 
L 1259 4134 
L 1259 2753 
L 3481 2753 
L 3481 2222 
L 1259 2222 
L 1259 531 
L 3634 531 
L 3634 0 
L 628 0 
L 628 4666 
z
" transform="scale(0.015625)"/>
      </defs>
      <use xlink:href="#DejaVuSans-45"/>
      <use xlink:href="#DejaVuSans-73" x="63.183594"/>
      <use xlink:href="#DejaVuSans-74" x="115.283203"/>
      <use xlink:href="#DejaVuSans-69" x="154.492188"/>
      <use xlink:href="#DejaVuSans-6d" x="182.275391"/>
      <use xlink:href="#DejaVuSans-61" x="279.6875"/>
      <use xlink:href="#DejaVuSans-74" x="340.966797"/>
      <use xlink:href="#DejaVuSans-65" x="380.175781"/>
      <use xlink:href="#DejaVuSans-64" x="441.699219"/>
     </g>
    </g>
   </g>
  </g>
 </g>
 <defs>
  <clipPath id="p834223e526">
   <rect x="72" y="43.2" width="446.4" height="277.2"/>
  </clipPath>
 </defs>
</svg>
