<?xml version="1.0" encoding="utf-8" standalone="no"?>
<!DOCTYPE svg PUBLIC "-//W3C//DTD SVG 1.1//EN"
  "http://www.w3.org/Graphics/SVG/1.1/DTD/svg11.dtd">
<svg xmlns:xlink="http://www.w3.org/1999/xlink" width="576pt" height="360pt" viewBox="0 0 576 360" xmlns="http://www.w3.org/2000/svg" version="1.1">
 <metadata>
  <rdf:RDF xmlns:dc="http://purl.org/dc/elements/1.1/" xmlns:cc="http://creativecommons.org/ns#" xmlns:rdf="http://www.w3.org/1999/02/22-rdf-syntax-ns#">
   <cc:Work>
    <dc:type rdf:resource="http://purl.org/dc/dcmitype/StillImage"/>
    <dc:date>2023-11-26T16:48:46.134680</dc:date>
    <dc:format>image/svg+xml</dc:format>
    <dc:creator>
     <cc:Agent>
      <dc:title>Matplotlib v3.8.1, https://matplotlib.org/</dc:title>
     </cc:Agent>
    </dc:creator>
   </cc:Work>
  </rdf:RDF>
 </metadata>
 <defs>
  <style type="text/css">*{stroke-linejoin: round; stroke-linecap: butt}</style>
 </defs>
 <g id="figure_1">
  <g id="patch_1">
   <path d="M 0 360 
L 576 360 
L 576 0 
L 0 0 
z
" style="fill: #ffffff"/>
  </g>
  <g id="axes_1">
   <g id="patch_2">
    <path d="M 72 320.4 
L 518.4 320.4 
L 518.4 43.2 
L 72 43.2 
z
" style="fill: #ffffff"/>
   </g>
   <g id="matplotlib.axis_1">
    <g id="xtick_1">
     <g id="line2d_1">
      <defs>
       <path id="med9afae198" d="M 0 0 
L 0 3.5 
" style="stroke: #000000; stroke-width: 0.8"/>
      </defs>
      <g>
       <use xlink:href="#med9afae198" x="129.874161" y="320.4" style="stroke: #000000; stroke-width: 0.8"/>
      </g>
     </g>
     <g id="text_1">
      <!-- 2020-05-15 -->
      <g transform="translate(100.816349 334.998438) scale(0.1 -0.1)">
       <defs>
        <path id="DejaVuSans-32" d="M 1228 531 
L 3431 531 
L 3431 0 
L 469 0 
L 469 531 
Q 828 903 1448 1529 
Q 2069 2156 2228 2338 
Q 2531 2678 2651 2914 
Q 2772 3150 2772 3378 
Q 2772 3750 2511 3984 
Q 2250 4219 1831 4219 
Q 1534 4219 1204 4116 
Q 875 4013 500 3803 
L 500 4441 
Q 881 4594 1212 4672 
Q 1544 4750 1819 4750 
Q 2544 4750 2975 4387 
Q 3406 4025 3406 3419 
Q 3406 3131 3298 2873 
Q 3191 2616 2906 2266 
Q 2828 2175 2409 1742 
Q 1991 1309 1228 531 
z
" transform="scale(0.015625)"/>
        <path id="DejaVuSans-30" d="M 2034 4250 
Q 1547 4250 1301 3770 
Q 1056 3291 1056 2328 
Q 1056 1369 1301 889 
Q 1547 409 2034 409 
Q 2525 409 2770 889 
Q 3016 1369 3016 2328 
Q 3016 3291 2770 3770 
Q 2525 4250 2034 4250 
z
M 2034 4750 
Q 2819 4750 3233 4129 
Q 3647 3509 3647 2328 
Q 3647 1150 3233 529 
Q 2819 -91 2034 -91 
Q 1250 -91 836 529 
Q 422 1150 422 2328 
Q 422 3509 836 4129 
Q 1250 4750 2034 4750 
z
" transform="scale(0.015625)"/>
        <path id="DejaVuSans-2d" d="M 313 2009 
L 1997 2009 
L 1997 1497 
L 313 1497 
L 313 2009 
z
" transform="scale(0.015625)"/>
        <path id="DejaVuSans-35" d="M 691 4666 
L 3169 4666 
L 3169 4134 
L 1269 4134 
L 1269 2991 
Q 1406 3038 1543 3061 
Q 1681 3084 1819 3084 
Q 2600 3084 3056 2656 
Q 3513 2228 3513 1497 
Q 3513 744 3044 326 
Q 2575 -91 1722 -91 
Q 1428 -91 1123 -41 
Q 819 9 494 109 
L 494 744 
Q 775 591 1075 516 
Q 1375 441 1709 441 
Q 2250 441 2565 725 
Q 2881 1009 2881 1497 
Q 2881 1984 2565 2268 
Q 2250 2553 1709 2553 
Q 1456 2553 1204 2497 
Q 953 2441 691 2322 
L 691 4666 
z
" transform="scale(0.015625)"/>
        <path id="DejaVuSans-31" d="M 794 531 
L 1825 531 
L 1825 4091 
L 703 3866 
L 703 4441 
L 1819 4666 
L 2450 4666 
L 2450 531 
L 3481 531 
L 3481 0 
L 794 0 
L 794 531 
z
" transform="scale(0.015625)"/>
       </defs>
       <use xlink:href="#DejaVuSans-32"/>
       <use xlink:href="#DejaVuSans-30" x="63.623047"/>
       <use xlink:href="#DejaVuSans-32" x="127.246094"/>
       <use xlink:href="#DejaVuSans-30" x="190.869141"/>
       <use xlink:href="#DejaVuSans-2d" x="254.492188"/>
       <use xlink:href="#DejaVuSans-30" x="290.576172"/>
       <use xlink:href="#DejaVuSans-35" x="354.199219"/>
       <use xlink:href="#DejaVuSans-2d" x="417.822266"/>
       <use xlink:href="#DejaVuSans-31" x="453.90625"/>
       <use xlink:href="#DejaVuSans-35" x="517.529297"/>
      </g>
     </g>
    </g>
    <g id="xtick_2">
     <g id="line2d_2">
      <g>
       <use xlink:href="#med9afae198" x="212.435902" y="320.4" style="stroke: #000000; stroke-width: 0.8"/>
      </g>
     </g>
     <g id="text_2">
      <!-- 2020-06-01 -->
      <g transform="translate(183.37809 334.998438) scale(0.1 -0.1)">
       <defs>
        <path id="DejaVuSans-36" d="M 2113 2584 
Q 1688 2584 1439 2293 
Q 1191 2003 1191 1497 
Q 1191 994 1439 701 
Q 1688 409 2113 409 
Q 2538 409 2786 701 
Q 3034 994 3034 1497 
Q 3034 2003 2786 2293 
Q 2538 2584 2113 2584 
z
M 3366 4563 
L 3366 3988 
Q 3128 4100 2886 4159 
Q 2644 4219 2406 4219 
Q 1781 4219 1451 3797 
Q 1122 3375 1075 2522 
Q 1259 2794 1537 2939 
Q 1816 3084 2150 3084 
Q 2853 3084 3261 2657 
Q 3669 2231 3669 1497 
Q 3669 778 3244 343 
Q 2819 -91 2113 -91 
Q 1303 -91 875 529 
Q 447 1150 447 2328 
Q 447 3434 972 4092 
Q 1497 4750 2381 4750 
Q 2619 4750 2861 4703 
Q 3103 4656 3366 4563 
z
" transform="scale(0.015625)"/>
       </defs>
       <use xlink:href="#DejaVuSans-32"/>
       <use xlink:href="#DejaVuSans-30" x="63.623047"/>
       <use xlink:href="#DejaVuSans-32" x="127.246094"/>
       <use xlink:href="#DejaVuSans-30" x="190.869141"/>
       <use xlink:href="#DejaVuSans-2d" x="254.492188"/>
       <use xlink:href="#DejaVuSans-30" x="290.576172"/>
       <use xlink:href="#DejaVuSans-36" x="354.199219"/>
       <use xlink:href="#DejaVuSans-2d" x="417.822266"/>
       <use xlink:href="#DejaVuSans-30" x="453.90625"/>
       <use xlink:href="#DejaVuSans-31" x="517.529297"/>
      </g>
     </g>
    </g>
    <g id="xtick_3">
     <g id="line2d_3">
      <g>
       <use xlink:href="#med9afae198" x="280.427924" y="320.4" style="stroke: #000000; stroke-width: 0.8"/>
      </g>
     </g>
     <g id="text_3">
      <!-- 2020-06-15 -->
      <g transform="translate(251.370111 334.998438) scale(0.1 -0.1)">
       <use xlink:href="#DejaVuSans-32"/>
       <use xlink:href="#DejaVuSans-30" x="63.623047"/>
       <use xlink:href="#DejaVuSans-32" x="127.246094"/>
       <use xlink:href="#DejaVuSans-30" x="190.869141"/>
       <use xlink:href="#DejaVuSans-2d" x="254.492188"/>
       <use xlink:href="#DejaVuSans-30" x="290.576172"/>
       <use xlink:href="#DejaVuSans-36" x="354.199219"/>
       <use xlink:href="#DejaVuSans-2d" x="417.822266"/>
       <use xlink:href="#DejaVuSans-31" x="453.90625"/>
       <use xlink:href="#DejaVuSans-35" x="517.529297"/>
      </g>
     </g>
    </g>
    <g id="xtick_4">
     <g id="line2d_4">
      <g>
       <use xlink:href="#med9afae198" x="358.133092" y="320.4" style="stroke: #000000; stroke-width: 0.8"/>
      </g>
     </g>
     <g id="text_4">
      <!-- 2020-07-01 -->
      <g transform="translate(329.075279 334.998438) scale(0.1 -0.1)">
       <defs>
        <path id="DejaVuSans-37" d="M 525 4666 
L 3525 4666 
L 3525 4397 
L 1831 0 
L 1172 0 
L 2766 4134 
L 525 4134 
L 525 4666 
z
" transform="scale(0.015625)"/>
       </defs>
       <use xlink:href="#DejaVuSans-32"/>
       <use xlink:href="#DejaVuSans-30" x="63.623047"/>
       <use xlink:href="#DejaVuSans-32" x="127.246094"/>
       <use xlink:href="#DejaVuSans-30" x="190.869141"/>
       <use xlink:href="#DejaVuSans-2d" x="254.492188"/>
       <use xlink:href="#DejaVuSans-30" x="290.576172"/>
       <use xlink:href="#DejaVuSans-37" x="354.199219"/>
       <use xlink:href="#DejaVuSans-2d" x="417.822266"/>
       <use xlink:href="#DejaVuSans-30" x="453.90625"/>
       <use xlink:href="#DejaVuSans-31" x="517.529297"/>
      </g>
     </g>
    </g>
    <g id="xtick_5">
     <g id="line2d_5">
      <g>
       <use xlink:href="#med9afae198" x="426.125113" y="320.4" style="stroke: #000000; stroke-width: 0.8"/>
      </g>
     </g>
     <g id="text_5">
      <!-- 2020-07-15 -->
      <g transform="translate(397.067301 334.998438) scale(0.1 -0.1)">
       <use xlink:href="#DejaVuSans-32"/>
       <use xlink:href="#DejaVuSans-30" x="63.623047"/>
       <use xlink:href="#DejaVuSans-32" x="127.246094"/>
       <use xlink:href="#DejaVuSans-30" x="190.869141"/>
       <use xlink:href="#DejaVuSans-2d" x="254.492188"/>
       <use xlink:href="#DejaVuSans-30" x="290.576172"/>
       <use xlink:href="#DejaVuSans-37" x="354.199219"/>
       <use xlink:href="#DejaVuSans-2d" x="417.822266"/>
       <use xlink:href="#DejaVuSans-31" x="453.90625"/>
       <use xlink:href="#DejaVuSans-35" x="517.529297"/>
      </g>
     </g>
    </g>
    <g id="xtick_6">
     <g id="line2d_6">
      <g>
       <use xlink:href="#med9afae198" x="508.686854" y="320.4" style="stroke: #000000; stroke-width: 0.8"/>
      </g>
     </g>
     <g id="text_6">
      <!-- 2020-08-01 -->
      <g transform="translate(479.629042 334.998438) scale(0.1 -0.1)">
       <defs>
        <path id="DejaVuSans-38" d="M 2034 2216 
Q 1584 2216 1326 1975 
Q 1069 1734 1069 1313 
Q 1069 891 1326 650 
Q 1584 409 2034 409 
Q 2484 409 2743 651 
Q 3003 894 3003 1313 
Q 3003 1734 2745 1975 
Q 2488 2216 2034 2216 
z
M 1403 2484 
Q 997 2584 770 2862 
Q 544 3141 544 3541 
Q 544 4100 942 4425 
Q 1341 4750 2034 4750 
Q 2731 4750 3128 4425 
Q 3525 4100 3525 3541 
Q 3525 3141 3298 2862 
Q 3072 2584 2669 2484 
Q 3125 2378 3379 2068 
Q 3634 1759 3634 1313 
Q 3634 634 3220 271 
Q 2806 -91 2034 -91 
Q 1263 -91 848 271 
Q 434 634 434 1313 
Q 434 1759 690 2068 
Q 947 2378 1403 2484 
z
M 1172 3481 
Q 1172 3119 1398 2916 
Q 1625 2713 2034 2713 
Q 2441 2713 2670 2916 
Q 2900 3119 2900 3481 
Q 2900 3844 2670 4047 
Q 2441 4250 2034 4250 
Q 1625 4250 1398 4047 
Q 1172 3844 1172 3481 
z
" transform="scale(0.015625)"/>
       </defs>
       <use xlink:href="#DejaVuSans-32"/>
       <use xlink:href="#DejaVuSans-30" x="63.623047"/>
       <use xlink:href="#DejaVuSans-32" x="127.246094"/>
       <use xlink:href="#DejaVuSans-30" x="190.869141"/>
       <use xlink:href="#DejaVuSans-2d" x="254.492188"/>
       <use xlink:href="#DejaVuSans-30" x="290.576172"/>
       <use xlink:href="#DejaVuSans-38" x="354.199219"/>
       <use xlink:href="#DejaVuSans-2d" x="417.822266"/>
       <use xlink:href="#DejaVuSans-30" x="453.90625"/>
       <use xlink:href="#DejaVuSans-31" x="517.529297"/>
      </g>
     </g>
    </g>
   </g>
   <g id="matplotlib.axis_2">
    <g id="ytick_1">
     <g id="line2d_7">
      <defs>
       <path id="m27f85fa23b" d="M 0 0 
L -3.5 0 
" style="stroke: #000000; stroke-width: 0.8"/>
      </defs>
      <g>
       <use xlink:href="#m27f85fa23b" x="72" y="314.279988" style="stroke: #000000; stroke-width: 0.8"/>
      </g>
     </g>
     <g id="text_7">
      <!-- −2 -->
      <g transform="translate(50.257812 318.079207) scale(0.1 -0.1)">
       <defs>
        <path id="DejaVuSans-2212" d="M 678 2272 
L 4684 2272 
L 4684 1741 
L 678 1741 
L 678 2272 
z
" transform="scale(0.015625)"/>
       </defs>
       <use xlink:href="#DejaVuSans-2212"/>
       <use xlink:href="#DejaVuSans-32" x="83.789062"/>
      </g>
     </g>
    </g>
    <g id="ytick_2">
     <g id="line2d_8">
      <g>
       <use xlink:href="#m27f85fa23b" x="72" y="271.922135" style="stroke: #000000; stroke-width: 0.8"/>
      </g>
     </g>
     <g id="text_8">
      <!-- −1 -->
      <g transform="translate(50.257812 275.721354) scale(0.1 -0.1)">
       <use xlink:href="#DejaVuSans-2212"/>
       <use xlink:href="#DejaVuSans-31" x="83.789062"/>
      </g>
     </g>
    </g>
    <g id="ytick_3">
     <g id="line2d_9">
      <g>
       <use xlink:href="#m27f85fa23b" x="72" y="229.564283" style="stroke: #000000; stroke-width: 0.8"/>
      </g>
     </g>
     <g id="text_9">
      <!-- 0 -->
      <g transform="translate(58.6375 233.363501) scale(0.1 -0.1)">
       <use xlink:href="#DejaVuSans-30"/>
      </g>
     </g>
    </g>
    <g id="ytick_4">
     <g id="line2d_10">
      <g>
       <use xlink:href="#m27f85fa23b" x="72" y="187.20643" style="stroke: #000000; stroke-width: 0.8"/>
      </g>
     </g>
     <g id="text_10">
      <!-- 1 -->
      <g transform="translate(58.6375 191.005649) scale(0.1 -0.1)">
       <use xlink:href="#DejaVuSans-31"/>
      </g>
     </g>
    </g>
    <g id="ytick_5">
     <g id="line2d_11">
      <g>
       <use xlink:href="#m27f85fa23b" x="72" y="144.848577" style="stroke: #000000; stroke-width: 0.8"/>
      </g>
     </g>
     <g id="text_11">
      <!-- 2 -->
      <g transform="translate(58.6375 148.647796) scale(0.1 -0.1)">
       <use xlink:href="#DejaVuSans-32"/>
      </g>
     </g>
    </g>
    <g id="ytick_6">
     <g id="line2d_12">
      <g>
       <use xlink:href="#m27f85fa23b" x="72" y="102.490725" style="stroke: #000000; stroke-width: 0.8"/>
      </g>
     </g>
     <g id="text_12">
      <!-- 3 -->
      <g transform="translate(58.6375 106.289943) scale(0.1 -0.1)">
       <defs>
        <path id="DejaVuSans-33" d="M 2597 2516 
Q 3050 2419 3304 2112 
Q 3559 1806 3559 1356 
Q 3559 666 3084 287 
Q 2609 -91 1734 -91 
Q 1441 -91 1130 -33 
Q 819 25 488 141 
L 488 750 
Q 750 597 1062 519 
Q 1375 441 1716 441 
Q 2309 441 2620 675 
Q 2931 909 2931 1356 
Q 2931 1769 2642 2001 
Q 2353 2234 1838 2234 
L 1294 2234 
L 1294 2753 
L 1863 2753 
Q 2328 2753 2575 2939 
Q 2822 3125 2822 3475 
Q 2822 3834 2567 4026 
Q 2313 4219 1838 4219 
Q 1578 4219 1281 4162 
Q 984 4106 628 3988 
L 628 4550 
Q 988 4650 1302 4700 
Q 1616 4750 1894 4750 
Q 2613 4750 3031 4423 
Q 3450 4097 3450 3541 
Q 3450 3153 3228 2886 
Q 3006 2619 2597 2516 
z
" transform="scale(0.015625)"/>
       </defs>
       <use xlink:href="#DejaVuSans-33"/>
      </g>
     </g>
    </g>
    <g id="ytick_7">
     <g id="line2d_13">
      <g>
       <use xlink:href="#m27f85fa23b" x="72" y="60.132872" style="stroke: #000000; stroke-width: 0.8"/>
      </g>
     </g>
     <g id="text_13">
      <!-- 4 -->
      <g transform="translate(58.6375 63.932091) scale(0.1 -0.1)">
       <defs>
        <path id="DejaVuSans-34" d="M 2419 4116 
L 825 1625 
L 2419 1625 
L 2419 4116 
z
M 2253 4666 
L 3047 4666 
L 3047 1625 
L 3713 1625 
L 3713 1100 
L 3047 1100 
L 3047 0 
L 2419 0 
L 2419 1100 
L 313 1100 
L 313 1709 
L 2253 4666 
z
" transform="scale(0.015625)"/>
       </defs>
       <use xlink:href="#DejaVuSans-34"/>
      </g>
     </g>
    </g>
   </g>
   <g id="line2d_14">
    <path d="M 72 291.426091 
L 72.404714 300.40265 
L 72.607072 299.039543 
L 72.809429 290.594928 
L 73.214143 266.125493 
L 73.618858 256.284524 
L 75.035358 190.622655 
L 75.237715 188.278776 
L 75.440073 192.284981 
L 75.64243 198.784675 
L 75.844787 201.394527 
L 76.047144 213.463012 
L 76.654216 269.084432 
L 77.05893 288.134686 
L 77.261287 291.592324 
L 77.463645 291.293105 
L 77.666002 282.815243 
L 78.070716 260.257483 
L 78.475431 250.383267 
L 78.677788 243.15215 
L 79.487217 198.036628 
L 79.891931 185.153604 
L 80.094288 186.699567 
L 80.903717 220.278547 
L 81.713146 279.922797 
L 82.11786 291.525831 
L 82.320218 293.138287 
L 82.522575 292.905561 
L 82.724932 290.91077 
L 82.927289 285.508211 
L 83.332004 267.305744 
L 83.736718 255.968682 
L 83.939075 253.55831 
L 84.141432 253.774412 
L 84.546147 258.844506 
L 84.748504 260.506831 
L 84.950861 260.523455 
L 85.355576 263.848106 
L 85.557933 261.205008 
L 85.76029 266.059 
L 86.569719 301.666018 
L 86.772076 306.486763 
L 86.974433 307.75013 
L 87.176791 307.8 
L 87.379148 306.736111 
L 87.581505 303.777172 
L 87.783862 298.424483 
L 88.188577 280.953439 
L 88.390934 276.847494 
L 89.200363 270.44754 
L 89.40272 267.172758 
L 89.807434 255.453361 
L 90.212149 253.50844 
L 90.414506 251.36404 
L 90.616863 257.664254 
L 91.223935 297.742929 
L 91.628649 306.486763 
L 91.831006 306.536632 
L 92.033364 304.558465 
L 92.842792 267.987297 
L 93.04515 266.291725 
L 93.449864 259.476189 
L 93.652221 259.060608 
L 93.854578 256.733352 
L 94.056936 256.234654 
L 94.259293 254.156747 
L 94.46165 249.086653 
L 94.664007 246.82589 
L 94.866364 247.557314 
L 95.068722 250.050802 
L 95.271079 247.008746 
L 95.473436 255.021156 
L 96.080508 298.042148 
L 96.485222 305.339758 
L 96.687579 306.852474 
L 96.889937 303.41146 
L 97.699365 267.405483 
L 98.306437 259.077231 
L 98.508794 258.778013 
L 99.52058 241.955276 
L 99.722937 242.952671 
L 99.925295 246.410309 
L 100.127652 244.964085 
L 100.330009 253.009742 
L 100.937081 296.080603 
L 101.341795 305.805209 
L 101.544152 306.586502 
L 101.74651 303.644186 
L 101.948867 294.168929 
L 102.353581 270.364423 
L 102.555938 269.134302 
L 103.567724 255.03778 
L 104.377153 237.516866 
L 104.57951 238.530885 
L 104.781868 242.803062 
L 104.984225 242.786439 
L 105.186582 249.8347 
L 105.793654 293.587115 
L 106.198368 303.694055 
L 106.400725 305.090409 
L 106.603083 301.898743 
L 107.412511 265.493809 
L 107.614869 264.130702 
L 107.817226 261.221632 
L 108.22194 249.701714 
L 108.626655 232.496642 
L 108.829012 227.79226 
L 109.031369 226.296167 
L 109.638441 233.178196 
L 109.840798 237.483619 
L 110.043155 245.728755 
L 110.650227 289.364807 
L 111.054941 300.668622 
L 111.257298 302.181339 
L 111.459655 300.801608 
L 111.662013 291.758556 
L 112.066727 268.569111 
L 112.471442 256.683482 
L 113.887942 202.458415 
L 114.090299 200.579987 
L 114.292656 205.982546 
L 114.495014 215.042221 
L 114.697371 218.682715 
L 115.102085 245.645639 
L 115.709157 284.776788 
L 116.113871 295.831254 
L 116.316228 295.96424 
L 116.518586 294.651003 
L 116.720943 291.775179 
L 117.125657 270.181568 
L 118.542158 187.214888 
L 118.744515 179.202477 
L 118.946872 176.127175 
L 119.149229 179.036245 
L 119.756301 209.057848 
L 120.56573 271.960256 
L 120.970444 287.669235 
L 121.172801 290.91077 
L 121.375159 292.207384 
L 121.577516 291.060379 
L 121.779873 284.776788 
L 122.589302 244.349025 
L 123.196374 224.16839 
L 123.398731 220.54452 
L 123.601088 220.710752 
L 123.803445 220.261924 
L 124.410517 230.884186 
L 124.612874 239.57815 
L 125.219946 284.194974 
L 125.62466 295.714892 
L 125.827017 297.294101 
L 126.029374 295.282687 
L 127.04116 250.582747 
L 127.648232 220.926855 
L 128.255304 187.33125 
L 128.457661 181.346878 
L 128.660018 181.080905 
L 129.26709 216.222473 
L 130.278876 288.234426 
L 130.481233 294.434901 
L 130.68359 295.532036 
L 130.885947 293.487375 
L 132.504805 207.146174 
L 133.111877 173.317844 
L 133.314234 165.854001 
L 133.516591 167.200485 
L 133.921306 179.385333 
L 134.123663 185.269966 
L 135.135449 272.375838 
L 135.540163 282.383039 
L 135.74252 281.634992 
L 135.944878 273.240247 
L 136.349592 248.338607 
L 136.551949 242.969294 
L 136.754306 233.56053 
L 136.956664 237.184401 
L 137.159021 228.224465 
L 137.766092 221.226073 
L 137.96845 221.541915 
L 138.373164 217.253115 
L 138.777879 223.237487 
L 138.980236 223.902418 
L 139.182593 233.261312 
L 139.789665 278.160731 
L 140.194379 290.345579 
L 140.396736 291.991282 
L 140.599093 289.597533 
L 141.003808 265.643418 
L 141.408522 248.853928 
L 142.015594 238.231666 
L 142.622665 230.983926 
L 142.825023 230.767823 
L 143.02738 229.803674 
L 143.229737 230.352242 
L 143.634451 234.541303 
L 143.836809 233.56053 
L 144.039166 241.639434 
L 144.646238 280.770583 
L 145.050952 290.362203 
L 145.253309 291.392845 
L 145.455666 288.899356 
L 145.860381 265.377446 
L 146.062738 252.328189 
L 146.66981 239.262308 
L 146.872167 237.134531 
L 147.074524 236.270122 
L 147.479238 227.459795 
L 147.681596 234.175591 
L 147.883953 234.956884 
L 148.08631 237.034791 
L 148.491024 244.432141 
L 148.693382 243.351629 
L 149.098096 262.119287 
L 149.502811 284.477569 
L 149.907525 294.900352 
L 150.109882 296.546054 
L 150.312239 296.080603 
L 150.514597 293.81984 
L 150.716954 289.248444 
L 151.121668 272.525447 
L 151.526383 256.101668 
L 151.931097 251.447156 
L 152.133454 251.098068 
L 152.335811 252.677277 
L 152.538169 253.092858 
L 152.740526 251.447156 
L 152.942883 251.679882 
L 153.14524 250.898588 
L 153.347597 250.931835 
L 153.549955 248.587956 
L 153.752312 250.350021 
L 154.764098 291.608947 
L 154.966455 294.783989 
L 155.168812 295.897747 
L 155.573527 292.739328 
L 155.775884 283.862509 
L 156.78767 221.375682 
L 157.799456 187.198264 
L 158.001813 188.81072 
L 158.406528 199.399736 
L 158.608885 210.271346 
L 159.215956 265.310953 
L 159.620671 282.632388 
L 159.823028 285.208993 
L 160.025385 284.477569 
L 160.227743 276.614768 
L 160.632457 250.582747 
L 161.8466 210.2381 
L 162.251315 202.17582 
L 162.453672 202.292182 
L 162.656029 204.586192 
L 163.465458 230.102893 
L 164.072529 278.110861 
L 164.477244 293.038547 
L 164.679601 293.304519 
L 164.881958 290.711291 
L 165.084316 282.565895 
L 165.48903 257.08244 
L 166.500816 228.939265 
L 167.310245 194.512498 
L 167.512602 197.205466 
L 167.917316 213.712361 
L 168.119674 217.286361 
L 168.322031 226.395906 
L 168.929102 274.054787 
L 169.333817 286.239635 
L 169.536174 289.065588 
L 169.738531 286.123272 
L 170.143246 264.230441 
L 170.54796 239.910615 
L 171.357389 204.153987 
L 171.559746 199.316619 
L 172.166818 179.900654 
L 172.369175 181.197268 
L 172.571532 187.547353 
L 173.178604 218.815701 
L 173.785675 275.850098 
L 174.19039 291.409468 
L 174.392747 293.803217 
L 174.595104 292.34037 
L 174.999819 272.924405 
L 175.404533 252.860133 
L 177.023391 190.074088 
L 177.225748 190.489669 
L 177.428105 193.631465 
L 177.630462 206.946695 
L 177.83282 208.908239 
L 178.237534 244.315778 
L 178.642248 278.759169 
L 179.046963 294.168929 
L 179.24932 297.161115 
L 179.451677 295.133078 
L 179.654034 288.151309 
L 180.261106 256.151538 
L 181.879964 178.288198 
L 182.082321 175.661723 
L 182.284678 180.216496 
L 183.094107 225.465004 
L 183.498821 256.799845 
L 183.903536 274.038163 
L 184.30825 280.338378 
L 184.510607 281.435513 
L 184.712965 278.50982 
L 184.915322 267.754572 
L 185.724751 201.843355 
L 186.129465 184.654906 
L 186.331822 179.784291 
L 186.53418 179.169231 
L 186.736537 181.213892 
L 187.748323 213.728984 
L 188.557752 265.344199 
L 188.962466 276.747754 
L 189.164823 278.393457 
L 189.36718 278.45995 
L 189.569538 277.861513 
L 189.771895 269.184172 
L 190.986038 191.969139 
L 191.188395 187.696962 
L 191.390752 187.663716 
L 191.795467 195.027819 
L 192.604896 220.228678 
L 193.414325 271.212209 
L 193.819039 282.250053 
L 194.021396 283.114462 
L 194.426111 279.922797 
L 194.628468 272.708303 
L 195.437897 223.653069 
L 195.640254 219.613617 
L 195.842611 220.594389 
L 196.247325 225.481627 
L 196.449683 225.947078 
L 196.65204 225.631236 
L 197.056754 232.247293 
L 197.259112 232.928847 
L 197.461469 239.711136 
L 198.06854 278.676052 
L 198.473255 290.112854 
L 198.675612 290.19597 
L 198.877969 287.253653 
L 199.282684 262.435129 
L 199.687398 244.033183 
L 201.306256 190.489669 
L 201.508613 189.558767 
L 202.115684 205.03502 
L 202.318042 214.028203 
L 202.925113 265.693288 
L 203.329828 279.922797 
L 203.532185 281.618369 
L 203.734542 279.207997 
L 203.936899 269.915595 
L 204.341614 242.503843 
L 205.758114 198.418963 
L 205.960471 196.407549 
L 206.162829 196.523912 
L 206.365186 197.670917 
L 206.7699 207.22929 
L 206.972257 209.805895 
L 207.174615 218.549729 
L 207.781686 266.175362 
L 208.186401 279.207997 
L 208.388758 281.668239 
L 208.591115 278.975271 
L 208.793472 269.400274 
L 209.198187 242.138132 
L 209.805258 224.16839 
L 210.209973 208.126946 
L 210.817044 174.498095 
L 211.019402 167.649313 
L 211.221759 170.043062 
L 211.626473 189.791493 
L 211.82883 193.997177 
L 212.031188 205.882806 
L 212.638259 258.362431 
L 213.042974 273.35661 
L 213.245331 276.581522 
L 213.447688 275.201791 
L 213.650045 266.557697 
L 214.257117 231.648856 
L 214.661831 210.387709 
L 215.47126 162.496103 
L 215.875975 148.998018 
L 216.078332 148.615683 
L 216.280689 153.087339 
L 217.090118 204.552946 
L 217.697189 254.522459 
L 218.101904 269.416898 
L 218.304261 272.126489 
L 218.506618 273.223624 
L 218.708976 272.209605 
L 218.911333 261.936432 
L 219.518404 217.718566 
L 220.125476 189.309418 
L 220.327833 187.563976 
L 220.53019 189.359288 
L 221.541976 223.503459 
L 221.744334 227.659274 
L 222.553762 273.572712 
L 222.958477 282.349792 
L 223.160834 283.729523 
L 223.363191 284.012118 
L 223.565549 282.74875 
L 223.767906 275.717112 
L 224.374977 244.880969 
L 224.779692 238.76361 
L 225.386763 240.425936 
L 225.589121 243.268513 
L 225.791478 243.983313 
L 226.196192 250.748979 
L 226.398549 250.466384 
L 226.600907 255.65284 
L 227.410335 298.92318 
L 227.612693 302.181339 
L 227.81505 303.544446 
L 228.017407 300.967841 
L 228.826836 266.590944 
L 229.029193 264.712516 
L 229.23155 260.074627 
L 230.648051 208.891616 
L 230.850408 209.357067 
L 231.255122 220.993348 
L 231.45748 229.787051 
L 232.064551 281.186164 
L 232.469266 295.049961 
L 232.671623 297.244231 
L 232.87398 296.263459 
L 233.278694 275.850098 
L 233.683409 257.664254 
L 235.302267 205.533718 
L 235.504624 205.051643 
L 236.111695 220.478027 
L 236.314053 228.839525 
L 236.921124 278.991894 
L 237.325839 291.808426 
L 237.528196 294.335161 
L 237.730553 292.622966 
L 238.135267 273.290117 
L 238.539982 255.70271 
L 239.349411 230.734577 
L 239.754125 222.655673 
L 240.15884 214.410537 
L 240.361197 214.211058 
L 240.563554 218.616222 
L 240.968268 232.829107 
L 241.170626 238.946466 
L 241.777697 283.779392 
L 242.182412 296.579301 
L 242.384769 298.590715 
L 242.587126 296.180343 
L 242.99184 276.232433 
L 243.396555 261.736953 
L 245.21777 201.477643 
L 245.420127 204.902034 
L 246.027199 226.528892 
L 246.836627 285.840676 
L 247.038985 292.589719 
L 247.241342 295.149701 
L 247.443699 293.10504 
L 247.848413 274.088033 
L 249.467271 183.690757 
L 249.669628 177.17444 
L 249.871985 175.611854 
L 250.074343 175.74484 
L 250.2767 181.346878 
L 250.883772 207.262537 
L 251.6932 267.771195 
L 252.097915 279.490592 
L 252.300272 281.967457 
L 252.502629 282.18356 
L 252.704986 279.058387 
L 253.109701 252.627407 
L 253.91913 193.548349 
L 254.323844 180.79831 
L 254.728558 173.683556 
L 254.930916 172.669537 
L 255.133273 178.720403 
L 255.740345 208.958109 
L 256.549773 269.649623 
L 256.954488 282.13369 
L 257.156845 285.208993 
L 257.359202 286.555476 
L 257.561559 285.774183 
L 257.966274 262.468376 
L 258.573345 221.807887 
L 258.97806 204.32022 
L 259.382774 195.426777 
L 259.585131 192.650693 
L 259.787489 192.301605 
L 259.989846 194.412758 
L 260.39456 207.312406 
L 260.596917 218.084277 
L 261.203989 268.10366 
L 261.608704 283.197578 
L 261.811061 285.558081 
L 262.013418 284.926397 
L 262.418132 265.593548 
L 262.62049 255.902189 
L 263.025204 248.105881 
L 263.227561 245.845118 
L 263.429918 245.030578 
L 263.834633 246.06122 
L 264.03699 245.811872 
L 264.239347 246.576541 
L 264.441704 246.643034 
L 264.644062 246.426932 
L 264.846419 248.072635 
L 265.048776 251.330793 
L 265.251133 251.330793 
L 265.45349 254.572328 
L 266.060562 288.832863 
L 266.465277 299.189152 
L 266.667634 300.435897 
L 266.869991 297.061375 
L 267.072348 290.644798 
L 267.477063 269.267288 
L 268.084134 251.380663 
L 268.488849 243.085657 
L 269.09592 234.009358 
L 269.500635 230.817693 
L 269.702992 232.579758 
L 269.905349 235.488828 
L 270.107706 236.037396 
L 270.310063 241.124113 
L 270.917135 280.537857 
L 271.32185 290.19597 
L 271.524207 291.924789 
L 271.726564 290.545058 
L 274.15485 176.326654 
L 274.357208 170.54176 
L 274.559565 173.234728 
L 275.166636 193.531726 
L 275.976065 259.343203 
L 276.38078 269.483391 
L 276.583137 268.9182 
L 276.987851 251.297547 
L 277.392566 227.975116 
L 278.404352 182.028431 
L 278.606709 179.568189 
L 279.011423 168.896057 
L 279.213781 167.599443 
L 279.416138 171.040458 
L 280.023209 204.702555 
L 280.630281 262.268897 
L 281.034995 280.65422 
L 281.237353 284.593932 
L 281.43971 283.347188 
L 281.642067 278.592936 
L 282.249139 244.897592 
L 282.85621 217.751812 
L 283.867996 183.225306 
L 284.070354 182.261157 
L 284.272711 188.843967 
L 285.284497 255.885566 
L 285.689211 281.851095 
L 286.093926 293.753347 
L 286.296283 295.598529 
L 286.49864 294.135682 
L 286.700997 291.758556 
L 287.105712 266.72393 
L 287.712783 225.115916 
L 288.522212 190.057465 
L 288.724569 184.305818 
L 288.926927 182.743231 
L 289.129284 185.635678 
L 289.736355 212.931068 
L 290.545784 269.500014 
L 290.950499 281.834471 
L 291.152856 284.078611 
L 291.355213 284.145104 
L 291.55757 282.94823 
L 291.759927 272.874535 
L 292.771714 193.215884 
L 293.176428 175.462244 
L 293.581142 166.385946 
L 293.7835 164.989592 
L 293.985857 167.832169 
L 294.592928 188.445009 
L 295.402357 255.686087 
L 295.807072 267.555093 
L 296.009429 267.422107 
L 296.414143 251.031574 
L 297.830644 141.91651 
L 298.235358 131.161262 
L 298.437715 129.066732 
L 298.640073 129.282834 
L 298.84243 130.94516 
L 299.044787 137.444854 
L 299.449501 159.254568 
L 300.056573 223.137748 
L 300.461287 243.551108 
L 300.663645 248.421723 
L 300.866002 249.003537 
L 301.068359 243.484615 
L 301.473073 219.181412 
L 302.484859 134.020463 
L 302.687217 124.861047 
L 302.889574 124.944164 
L 303.091931 131.493727 
L 303.496646 138.492119 
L 303.90136 156.495107 
L 304.306074 179.102738 
L 304.913146 235.106493 
L 305.31786 255.619594 
L 305.520218 260.124497 
L 305.722575 258.678273 
L 305.924932 252.910003 
L 306.532004 220.577766 
L 307.54379 163.925703 
L 307.746147 155.663944 
L 307.948504 154.949144 
L 308.757933 181.064282 
L 309.162647 202.159196 
L 309.769719 253.142728 
L 310.174433 269.234042 
L 310.376791 272.791419 
L 310.579148 272.325968 
L 310.983862 253.375454 
L 312.198005 169.178653 
L 312.60272 159.769889 
L 312.805077 156.229135 
L 313.007434 156.677963 
L 313.209791 159.670149 
L 313.816863 181.995185 
L 314.01922 193.066274 
L 314.626292 243.717341 
L 315.031006 260.307352 
L 315.233364 264.014339 
L 315.435721 263.482395 
L 315.840435 248.288737 
L 316.24515 233.144949 
L 316.649864 223.420343 
L 317.054578 211.036016 
L 317.66165 204.951904 
L 317.864007 204.586192 
L 318.066364 203.854769 
L 318.268722 207.644872 
L 318.875793 225.564743 
L 319.685222 272.990898 
L 320.089937 283.330564 
L 320.292294 284.660425 
L 320.697008 278.243848 
L 321.101723 257.015947 
L 322.315866 193.947307 
L 322.72058 185.652301 
L 322.922937 183.773873 
L 323.125295 187.115148 
L 323.732366 209.47343 
L 324.541795 264.945241 
L 324.94651 276.515029 
L 325.148867 278.858908 
L 325.351224 278.908778 
L 325.553581 277.08022 
L 325.755938 267.106265 
L 326.970082 176.127175 
L 327.172439 171.007211 
L 327.374796 169.72722 
L 327.77951 165.222317 
L 327.981868 169.261769 
L 328.184225 176.376524 
L 328.791296 218.184017 
L 329.196011 253.574933 
L 329.398368 265.90939 
L 329.803083 274.088033 
L 330.00544 273.323363 
L 330.207797 268.785214 
L 330.814869 229.521079 
L 331.42194 198.585196 
L 331.826655 180.233119 
L 332.029012 177.88924 
L 332.231369 177.905863 
L 332.433726 178.055473 
L 332.636083 179.751045 
L 332.838441 183.424785 
L 333.243155 201.976341 
L 333.445512 209.273951 
L 334.052584 262.468376 
L 334.457298 280.105652 
L 334.659655 284.494193 
L 334.862013 282.549271 
L 335.266727 266.491204 
L 335.671442 246.77602 
L 336.48087 214.310798 
L 336.683228 210.204853 
L 336.885585 209.307197 
L 337.087942 204.303597 
L 337.290299 202.807503 
L 337.695014 208.04383 
L 338.099728 219.746603 
L 338.302085 224.500855 
L 339.111514 277.778396 
L 339.313871 282.79862 
L 339.516228 284.610555 
L 339.718586 281.31915 
L 340.1233 262.418506 
L 340.932729 226.429153 
L 342.349229 176.443017 
L 342.551587 176.376524 
L 343.158658 196.357679 
L 343.76573 247.158355 
L 344.170444 261.736953 
L 344.372801 265.593548 
L 344.575159 263.86473 
L 344.777516 258.262692 
L 345.18223 233.261312 
L 346.194016 166.369322 
L 346.598731 154.4172 
L 347.003445 149.064511 
L 347.205802 148.382957 
L 347.40816 150.959562 
L 347.610517 157.309647 
L 348.015231 178.437807 
L 348.82466 252.195203 
L 349.229374 266.042376 
L 349.431732 265.427316 
L 349.634089 260.739557 
L 349.836446 251.729751 
L 351.050589 167.200485 
L 351.455304 152.339293 
L 351.860018 145.174669 
L 352.062375 144.443245 
L 352.264733 147.385562 
L 352.46709 156.362121 
L 353.276519 223.619822 
L 353.681233 254.32298 
L 354.085947 270.663642 
L 354.288305 274.935819 
L 354.490662 275.40127 
L 354.693019 273.589335 
L 355.097733 239.561527 
L 355.704805 179.800915 
L 356.109519 159.803135 
L 356.716591 145.074929 
L 356.918948 144.193896 
L 357.121306 148.083739 
L 357.52602 168.829564 
L 357.728377 179.102738 
L 358.740163 256.400887 
L 359.144878 266.906786 
L 359.347235 268.419502 
L 359.549592 268.15353 
L 359.751949 256.816468 
L 360.763735 159.154828 
L 361.16845 143.711822 
L 361.573164 134.718639 
L 361.775521 132.856834 
L 361.977879 135.516556 
L 362.180236 141.185087 
L 362.58495 162.063899 
L 363.394379 233.926242 
L 363.799093 248.222244 
L 364.001451 248.887174 
L 364.203808 244.116299 
L 364.406165 235.970903 
L 365.013237 179.618059 
L 365.620308 127.32129 
L 366.025023 114.222162 
L 366.429737 109.218562 
L 366.632094 109.61752 
L 366.834451 111.76192 
L 367.036809 118.826805 
L 367.441523 142.481701 
L 368.048595 207.013188 
L 368.453309 231.748595 
L 368.655666 238.663871 
L 368.858024 240.592169 
L 369.060381 237.43375 
L 369.262738 229.437963 
L 369.86981 177.93911 
L 370.476881 130.778927 
L 370.881596 117.297465 
L 371.083953 116.931753 
L 371.28631 117.513567 
L 371.488667 120.705233 
L 371.691024 125.758703 
L 372.298096 157.37614 
L 373.107525 226.329413 
L 373.512239 244.365648 
L 373.714597 247.906402 
L 374.119311 247.341211 
L 374.321668 237.001545 
L 375.333454 152.754874 
L 375.738169 141.999626 
L 375.940526 139.805356 
L 376.142883 138.9077 
L 376.34524 143.113385 
L 376.749955 164.407778 
L 377.559383 212.216267 
L 377.964098 240.34282 
L 378.368812 251.546895 
L 378.57117 251.729751 
L 378.773527 246.909007 
L 378.975884 237.799461 
L 380.392384 143.096761 
L 380.797099 135.034481 
L 381.201813 128.867253 
L 381.40417 131.925932 
L 382.011242 161.997405 
L 382.820671 229.304976 
L 383.225385 242.38748 
L 383.427743 242.919425 
L 383.6301 238.580754 
L 384.034814 220.511273 
L 385.0466 160.850401 
L 385.451315 147.285822 
L 385.653672 146.903487 
L 385.856029 149.97879 
L 386.058386 156.179265 
L 387.070172 213.04743 
L 387.474887 245.645639 
L 387.879601 263.432525 
L 388.284316 270.863121 
L 388.68903 272.907782 
L 388.891387 268.236646 
L 389.700816 232.84573 
L 390.307888 223.736185 
L 390.914959 213.379895 
L 391.117316 217.269738 
L 391.926745 249.435742 
L 392.533817 285.358602 
L 392.938531 295.415673 
L 393.140888 296.928389 
L 393.343246 296.562678 
L 393.545603 296.945013 
L 393.74796 289.664026 
L 394.355032 256.201408 
L 395.569175 210.28797 
L 395.771532 205.400732 
L 395.973889 206.381504 
L 396.176247 213.14717 
L 396.783318 247.324588 
L 397.188033 278.642806 
L 397.592747 293.138287 
L 397.795104 295.39905 
L 397.997461 293.337766 
L 398.402176 278.592936 
L 400.628105 174.830561 
L 400.830462 177.141193 
L 401.03282 185.23672 
L 401.639891 231.615609 
L 402.044606 267.671456 
L 402.44932 284.194974 
L 402.651677 287.453132 
L 402.854034 286.106649 
L 403.258749 271.311949 
L 403.663463 248.205621 
L 404.877607 161.980782 
L 405.282321 145.291031 
L 405.484678 141.86664 
L 405.687035 142.747673 
L 405.889393 151.292027 
L 406.294107 181.679343 
L 406.901179 244.63162 
L 407.305893 264.197195 
L 407.50825 268.751967 
L 407.710607 268.319763 
L 408.115322 251.048198 
L 409.73418 143.479096 
L 409.936537 139.472891 
L 410.138894 139.356528 
L 410.341251 143.096761 
L 410.948323 172.453435 
L 411.15068 185.386329 
L 411.757752 242.786439 
L 412.162466 262.352013 
L 412.364823 267.621586 
L 412.56718 269.067809 
L 412.971895 254.389473 
L 414.388395 174.631081 
L 414.79311 163.626485 
L 415.197824 158.207303 
L 415.400181 163.709601 
L 416.20961 214.560147 
L 416.614325 251.330793 
L 417.019039 270.081828 
L 417.221396 273.539466 
L 417.423753 273.090638 
L 417.828468 259.958264 
L 419.244968 180.515715 
L 419.649683 169.461248 
L 419.85204 166.352699 
L 420.054397 167.516327 
L 420.256754 174.547965 
L 421.066183 227.559534 
L 421.673255 272.276098 
L 422.077969 285.325355 
L 422.280326 287.33677 
L 422.482684 286.804825 
L 422.685041 286.671839 
L 423.089755 261.720329 
L 423.899184 205.69995 
L 424.708613 173.816542 
L 424.91097 171.239937 
L 425.113327 174.481472 
L 425.518042 195.659503 
L 425.720399 205.217876 
L 426.529828 265.676665 
L 426.934542 280.720713 
L 427.136899 284.344583 
L 427.339257 284.99289 
L 427.541614 285.175746 
L 427.743971 278.210601 
L 428.148685 245.529276 
L 428.755757 195.410154 
L 429.160471 174.647705 
L 429.565186 167.965155 
L 429.9699 171.140197 
L 430.374615 184.272571 
L 430.576972 193.697958 
L 431.386401 255.220635 
L 431.791115 265.128097 
L 431.993472 263.482395 
L 432.398187 247.041993 
L 433.207616 194.346265 
L 434.017044 137.378361 
L 434.219402 133.422025 
L 435.02883 155.614074 
L 435.433545 175.844579 
L 436.040617 233.477414 
L 436.445331 251.713128 
L 436.647688 255.868943 
L 436.850045 255.320375 
L 437.25476 238.647247 
L 437.659474 210.387709 
L 438.468903 150.926316 
L 438.67126 143.046892 
L 438.873617 143.828185 
L 439.075975 149.579832 
L 439.278332 149.21412 
L 439.480689 151.026055 
L 439.885403 166.036857 
L 440.290118 186.067883 
L 440.897189 245.479406 
L 441.301904 263.532264 
L 441.504261 267.920804 
L 441.706618 268.353009 
L 442.111333 256.434133 
L 442.920762 214.344044 
L 443.527833 186.134376 
L 444.134905 167.732429 
L 444.337262 165.637899 
L 444.539619 170.824355 
L 445.146691 207.27916 
L 445.753762 263.249669 
L 446.158477 280.404871 
L 446.360834 284.411076 
L 446.563191 282.79862 
L 446.967906 267.505223 
L 448.586763 178.687156 
L 448.991478 168.015025 
L 449.193835 166.136597 
L 449.396192 171.522532 
L 450.003264 204.187234 
L 450.812693 268.934823 
L 451.217407 279.690071 
L 451.419764 279.789811 
L 451.824479 265.892767 
L 452.43155 225.115916 
L 453.038622 191.221093 
L 453.443336 177.440412 
L 453.848051 171.073704 
L 454.050408 173.799919 
L 454.252765 181.878822 
L 454.65748 204.852164 
L 454.859837 211.684323 
L 455.669266 264.030962 
L 456.07398 274.985689 
L 456.276337 276.21581 
L 456.478694 274.603354 
L 456.681052 272.093242 
L 456.883409 265.626795 
L 457.288123 243.783834 
L 457.692838 234.923638 
L 457.895195 235.488828 
L 458.299909 240.143341 
L 458.502267 240.026978 
L 458.906981 236.935052 
L 459.109338 237.367257 
L 459.514053 240.725155 
L 459.71641 244.199416 
L 460.728196 290.8609 
L 461.13291 294.434901 
L 461.537625 291.758556 
L 461.739982 284.544062 
L 462.144696 256.650236 
L 463.561197 200.729596 
L 463.763554 194.861586 
L 463.965911 195.809112 
L 464.572983 211.551337 
L 465.382412 265.693288 
L 465.584769 271.278703 
L 465.787126 273.472973 
L 465.989483 271.511428 
L 467.608341 196.706768 
L 468.620127 179.584812 
L 468.822484 182.111547 
L 469.429556 203.322824 
L 470.036627 249.16977 
L 470.441342 263.548888 
L 470.643699 265.676665 
L 470.846056 263.598757 
L 471.857842 222.439571 
L 472.869628 197.986759 
L 473.071985 198.385717 
L 473.274343 196.939493 
L 473.4767 197.953512 
L 473.679057 201.012192 
L 473.881414 206.331634 
L 474.083772 207.262537 
L 474.286129 213.463012 
L 474.8932 255.586347 
L 475.297915 268.718721 
L 475.500272 270.065205 
L 475.702629 268.419502 
L 476.107344 248.720942 
L 476.512058 230.934056 
L 477.321487 205.483848 
L 477.726201 189.193055 
L 477.928558 186.317232 
L 478.333273 190.107334 
L 478.53563 193.714581 
L 479.142702 213.86197 
L 479.952131 268.635605 
L 480.356845 276.598145 
L 480.559202 276.26568 
L 480.963917 258.412301 
L 482.785131 154.649926 
L 482.987489 149.879051 
L 483.189846 147.751274 
L 483.392203 152.306046 
L 483.999275 184.52192 
L 484.606346 241.988522 
L 485.011061 260.75618 
L 485.213418 264.313557 
L 485.415775 265.078227 
L 485.82049 249.103277 
L 486.225204 223.885794 
L 487.23699 151.175665 
L 487.439347 148.682176 
L 487.844062 153.984995 
L 488.248776 169.029044 
L 489.260562 231.682102 
L 489.665277 257.664254 
L 490.069991 269.865726 
L 490.272348 271.760777 
L 490.474705 270.846498 
L 490.677063 269.416898 
L 490.87942 261.554097 
L 491.891206 197.138973 
L 492.29592 182.826348 
L 492.498277 176.858598 
L 492.700635 175.229519 
L 492.902992 176.542756 
L 493.105349 180.432598 
L 493.712421 207.511885 
L 494.52185 265.676665 
L 495.128921 280.438118 
L 495.331278 280.55448 
L 495.533636 280.055783 
L 495.735993 273.955047 
L 496.950136 200.031419 
L 497.557208 180.349482 
L 497.759565 177.639891 
L 497.961922 180.233119 
L 498.568994 205.683327 
L 499.378422 265.310953 
L 499.58078 270.829875 
L 499.783137 272.841289 
L 499.985494 270.164944 
L 500.187851 263.282916 
L 500.794923 233.460791 
L 500.99728 229.338223 
L 501.401995 218.765831 
L 501.806709 209.672909 
L 502.009066 209.307197 
L 502.211423 210.969523 
L 502.413781 211.484844 
L 502.616138 210.13836 
L 503.020852 217.984538 
L 503.223209 218.433366 
L 503.425567 224.500855 
L 504.032638 265.443939 
L 504.437353 275.999708 
L 504.63971 277.312945 
L 504.842067 275.40127 
L 505.246782 255.719333 
L 505.651496 236.486224 
L 507.270354 177.407165 
L 507.472711 174.897054 
L 507.675068 177.639891 
L 508.28214 200.280768 
L 508.889211 247.141732 
L 509.293926 260.972283 
L 509.496283 263.81486 
L 509.69864 262.33539 
L 510.103354 243.318383 
L 511.722212 157.409386 
L 512.126927 143.063515 
L 512.329284 144.343506 
L 512.936355 172.104346 
L 513.34107 203.55555 
L 513.745784 238.663871 
L 514.150499 257.015947 
L 514.352856 261.52085 
L 514.555213 261.919808 
L 514.75757 254.738561 
L 516.174071 176.592626 
L 516.376428 175.711593 
L 516.781142 183.241929 
L 516.9835 181.031036 
L 517.185857 181.46324 
L 517.590571 195.759242 
L 517.792928 199.183633 
L 517.995286 207.827727 
L 518.4 239.860745 
L 518.4 239.860745 
" clip-path="url(#pa68637f320)" style="fill: none; stroke: #1f77b4; stroke-width: 1.5; stroke-linecap: square"/>
   </g>
   <g id="line2d_15">
    <path d="M 72 268.629427 
L 72.202357 268.629427 
L 72.607072 271.174471 
L 72.809429 272.048902 
L 73.4165 258.229182 
L 73.618858 253.063542 
L 73.821215 244.463279 
L 74.428286 210.48645 
L 75.035358 197.688019 
L 75.440073 193.069151 
L 75.64243 193.898554 
L 76.047144 198.866773 
L 76.249501 208.658544 
L 76.856573 261.801067 
L 77.261287 273.148303 
L 77.463645 273.920834 
L 77.666002 271.902251 
L 78.070716 261.249354 
L 79.082502 221.029603 
L 79.689574 192.942425 
L 79.891931 187.502714 
L 80.094288 185.617641 
L 80.296646 185.016868 
L 80.499003 189.026083 
L 80.70136 195.779128 
L 81.106074 222.871526 
L 81.713146 271.153804 
L 81.915503 279.810885 
L 82.11786 283.293067 
L 82.320218 282.259535 
L 83.129646 266.806106 
L 83.534361 255.523738 
L 84.141432 247.300759 
L 84.34379 246.80912 
L 85.153218 256.291405 
L 85.557933 260.12934 
L 85.76029 262.758452 
L 86.165005 274.586589 
L 86.569719 286.746829 
L 86.772076 289.140173 
L 86.974433 289.875781 
L 87.176791 288.353953 
L 87.379148 284.913051 
L 87.783862 271.274246 
L 88.593291 258.3048 
L 88.795648 258.979896 
L 88.998005 260.627686 
L 89.200363 263.648272 
L 89.40272 264.34662 
L 89.605077 262.79339 
L 90.414506 251.429058 
L 90.616863 250.283308 
L 90.81922 254.966937 
L 91.426292 283.06114 
L 91.628649 287.612845 
L 91.831006 288.64462 
L 92.033364 287.264236 
L 92.235721 281.928251 
L 92.842792 250.777906 
L 93.04515 249.21724 
L 93.247507 249.175436 
L 93.652221 248.295905 
L 93.854578 251.908736 
L 94.259293 254.651783 
L 94.46165 252.616376 
L 94.866364 242.099016 
L 95.068722 241.204955 
L 95.271079 244.048263 
L 95.473436 244.646716 
L 95.675793 253.225304 
L 96.282865 289.885284 
L 96.485222 293.727895 
L 96.687579 293.42054 
L 96.889937 289.492175 
L 97.294651 273.874217 
L 97.699365 255.719487 
L 97.901723 252.063163 
L 98.10408 250.733307 
L 98.306437 251.318619 
L 98.508794 250.665097 
L 98.711151 251.079045 
L 99.115866 244.115216 
L 99.52058 235.662978 
L 99.722937 232.923978 
L 99.925295 234.578313 
L 100.330009 243.04244 
L 101.139438 288.816563 
L 101.341795 292.699898 
L 101.544152 291.517176 
L 101.948867 278.646356 
L 102.555938 254.562287 
L 102.758296 252.590313 
L 102.960653 253.113496 
L 103.16301 252.74423 
L 103.365367 252.645059 
L 103.567724 251.750993 
L 103.972439 242.079439 
L 104.377153 233.708802 
L 104.57951 230.773621 
L 104.781868 233.258899 
L 105.186582 242.904451 
L 105.996011 288.687843 
L 106.198368 292.711068 
L 106.400725 292.930436 
L 106.603083 289.953457 
L 106.80544 283.773486 
L 107.412511 255.569789 
L 107.614869 252.688969 
L 107.817226 252.923983 
L 108.019583 253.361301 
L 108.22194 250.495564 
L 108.424297 245.2494 
L 109.031369 220.010331 
L 109.233726 219.542656 
L 109.436083 221.174836 
L 109.638441 223.767803 
L 110.043155 238.469496 
L 110.650227 277.067509 
L 111.054941 289.967227 
L 111.257298 290.097765 
L 111.459655 287.249154 
L 111.662013 282.428934 
L 112.269084 256.907181 
L 112.673799 248.060793 
L 113.887942 203.872777 
L 114.090299 202.164637 
L 114.292656 201.827722 
L 114.495014 205.185684 
L 114.899728 221.650761 
L 115.5068 266.834727 
L 115.911514 280.44545 
L 116.113871 282.642162 
L 116.316228 282.486563 
L 116.518586 279.043334 
L 117.530372 249.115562 
L 118.137443 208.901837 
L 118.542158 191.416446 
L 118.946872 183.749143 
L 119.149229 183.309527 
L 119.351587 186.475154 
L 119.756301 203.189124 
L 120.161015 234.460688 
L 120.56573 262.662962 
L 120.970444 274.996311 
L 121.172801 278.138518 
L 121.375159 278.409905 
L 121.98223 264.669497 
L 123.398731 209.108016 
L 123.601088 206.431621 
L 123.803445 207.873304 
L 124.005802 210.213924 
L 124.815231 244.023498 
L 125.422303 279.574278 
L 125.62466 284.087784 
L 125.827017 286.102893 
L 126.029374 285.419258 
L 126.231732 282.640072 
L 127.243518 239.240771 
L 127.648232 218.276392 
L 128.255304 187.87599 
L 128.457661 183.811044 
L 128.660018 182.076225 
L 128.862375 183.094931 
L 129.064733 188.707816 
L 129.26709 197.744109 
L 129.671804 232.196605 
L 130.076519 273.673118 
L 130.278876 283.427715 
L 130.481233 287.183592 
L 130.68359 286.235234 
L 131.290662 264.819171 
L 132.100091 225.762502 
L 132.909519 176.562145 
L 133.314234 166.598071 
L 133.516591 165.827429 
L 133.718948 167.847654 
L 133.921306 173.017987 
L 134.32602 193.383035 
L 135.337806 276.626884 
L 135.540163 274.985465 
L 135.944878 261.988911 
L 136.349592 245.943596 
L 136.956664 216.468296 
L 137.159021 214.90921 
L 137.361378 208.763934 
L 137.563735 208.61499 
L 137.766092 205.988825 
L 138.170807 209.589183 
L 138.373164 210.494807 
L 138.575521 212.156177 
L 139.182593 230.952735 
L 140.194379 285.441688 
L 140.396736 284.538897 
L 140.599093 281.379684 
L 141.610879 237.336036 
L 142.015594 229.592766 
L 142.217951 230.692036 
L 142.420308 233.288234 
L 142.622665 232.016411 
L 142.825023 229.162893 
L 143.432094 232.477399 
L 144.039166 240.811437 
L 145.050952 291.721527 
L 145.253309 290.455377 
L 145.455666 286.026909 
L 145.860381 264.386365 
L 146.467452 240.582904 
L 146.872167 228.737492 
L 147.074524 229.993548 
L 147.276881 232.78965 
L 147.681596 223.434746 
L 147.883953 230.382455 
L 148.08631 232.716647 
L 148.288667 236.758784 
L 149.098096 262.234981 
L 149.705168 296.646881 
L 149.907525 300.723534 
L 150.109882 299.827378 
L 150.312239 296.326837 
L 151.931097 247.292174 
L 152.133454 246.961434 
L 152.335811 247.852394 
L 152.538169 251.375483 
L 152.740526 252.310053 
L 152.942883 250.58939 
L 153.14524 250.222265 
L 153.549955 251.462092 
L 153.752312 253.198691 
L 153.954669 257.598183 
L 154.359383 274.408959 
L 154.764098 289.98895 
L 154.966455 293.293552 
L 155.168812 294.467185 
L 155.37117 291.80656 
L 156.180598 261.644059 
L 156.585313 238.371045 
L 156.990027 216.472628 
L 157.597099 196.774443 
L 157.799456 193.70058 
L 158.001813 192.495564 
L 158.20417 194.653237 
L 158.608885 206.259659 
L 158.811242 216.051648 
L 159.418314 264.567299 
L 159.823028 280.819664 
L 160.025385 283.473009 
L 160.227743 281.490049 
L 160.4301 272.722968 
L 161.239529 220.289788 
L 161.644243 203.076895 
L 162.251315 194.696296 
L 162.453672 193.419099 
L 162.656029 192.989294 
L 162.858386 195.226913 
L 163.060743 201.546319 
L 163.667815 235.449633 
L 164.072529 266.087701 
L 164.477244 284.46062 
L 164.679601 287.974017 
L 164.881958 285.58483 
L 165.286673 270.99869 
L 165.893744 238.761196 
L 166.096102 235.31488 
L 166.298459 235.085541 
L 166.500816 230.85761 
L 166.90553 213.552198 
L 167.107888 202.473913 
L 167.310245 199.186994 
L 167.512602 199.477494 
L 167.714959 200.095943 
L 167.917316 205.4456 
L 168.322031 224.217149 
L 169.333817 286.553163 
L 169.536174 284.25891 
L 169.940888 270.276088 
L 170.54796 244.214607 
L 170.750317 235.718648 
L 171.357389 196.124058 
L 171.762103 182.197331 
L 171.964461 177.809546 
L 172.166818 176.625036 
L 172.369175 177.099477 
L 172.571532 180.88304 
L 172.976247 197.071976 
L 173.178604 208.598064 
L 173.988033 285.074199 
L 174.19039 292.194519 
L 174.392747 291.627052 
L 174.595104 287.731982 
L 174.797461 280.819281 
L 175.60689 237.730095 
L 176.821034 192.466479 
L 177.023391 188.699211 
L 177.225748 188.282778 
L 177.428105 190.553415 
L 177.630462 195.66348 
L 178.237534 234.62304 
L 178.844606 282.91096 
L 179.046963 289.283925 
L 179.24932 291.247798 
L 179.451677 288.819896 
L 179.654034 281.696734 
L 180.463463 241.091507 
L 180.868178 220.663068 
L 181.475249 190.528849 
L 181.879964 179.367185 
L 182.082321 178.578774 
L 182.284678 178.960623 
L 182.689393 194.078754 
L 182.89175 203.642451 
L 183.701179 267.233797 
L 183.903536 271.936203 
L 184.105893 273.52834 
L 184.30825 272.007855 
L 184.510607 269.427604 
L 184.915322 260.444398 
L 185.320036 234.385801 
L 185.927108 184.99212 
L 186.331822 171.157689 
L 186.53418 167.12233 
L 186.736537 166.991954 
L 186.938894 168.929579 
L 187.343608 183.939234 
L 188.355394 247.537744 
L 188.760109 268.531422 
L 188.962466 272.901486 
L 189.164823 274.542552 
L 189.36718 273.641988 
L 189.974252 249.761975 
L 191.188395 180.27855 
L 191.390752 177.713414 
L 191.59311 176.927321 
L 191.795467 179.31362 
L 192.200181 193.917767 
L 193.616682 272.040459 
L 194.021396 282.528529 
L 194.223753 282.621283 
L 194.830825 253.482929 
L 195.842611 200.63716 
L 196.044968 202.80884 
L 196.247325 207.172799 
L 196.65204 221.895649 
L 197.056754 228.036126 
L 197.461469 236.274089 
L 197.866183 258.311203 
L 198.270898 282.422183 
L 198.675612 291.887563 
L 198.877969 289.058472 
L 199.080326 283.463137 
L 199.282684 273.357244 
L 199.687398 243.988626 
L 200.699184 202.420671 
L 201.103898 191.653968 
L 201.306256 188.506232 
L 201.508613 188.437084 
L 201.71097 189.675911 
L 201.913327 194.467905 
L 202.318042 210.771959 
L 202.520399 223.403436 
L 203.127471 277.155582 
L 203.329828 286.024627 
L 203.532185 287.51991 
L 203.734542 282.699484 
L 204.139257 262.983552 
L 204.746328 226.334514 
L 205.3534 198.96117 
L 205.960471 184.150225 
L 206.162829 184.906017 
L 206.567543 191.152911 
L 206.972257 206.814359 
L 207.174615 216.677191 
L 207.984044 280.425222 
L 208.186401 287.276158 
L 208.388758 287.381242 
L 208.591115 281.802454 
L 210.209973 207.538135 
L 211.019402 183.581683 
L 211.221759 180.926435 
L 211.424116 182.06448 
L 211.82883 197.570857 
L 212.031188 206.284629 
L 213.042974 279.248589 
L 213.245331 279.972771 
L 213.447688 278.28936 
L 213.650045 271.503099 
L 215.268903 172.974541 
L 215.673617 158.41105 
L 216.078332 153.230962 
L 216.280689 154.772382 
L 216.483046 160.652865 
L 216.887761 185.413648 
L 217.292475 220.581378 
L 217.697189 256.026827 
L 218.101904 270.163894 
L 218.304261 270.690509 
L 218.708976 261.72247 
L 218.911333 256.175195 
L 219.518404 215.225947 
L 219.923119 189.456563 
L 220.327833 174.410676 
L 220.53019 172.309903 
L 220.732548 172.672776 
L 220.934905 177.697908 
L 221.137262 187.366157 
L 221.744334 228.830591 
L 222.149048 248.993325 
L 222.75612 278.693594 
L 223.160834 284.23182 
L 223.363191 281.065971 
L 224.17262 249.137459 
L 224.577335 231.534189 
L 224.779692 230.741424 
L 224.982049 229.478225 
L 225.184406 231.744865 
L 225.993835 250.224502 
L 226.398549 256.721464 
L 226.600907 256.695899 
L 226.803264 260.753356 
L 227.81505 297.129624 
L 228.017407 297.273356 
L 228.219764 292.258697 
L 229.029193 250.357123 
L 229.433908 246.091228 
L 230.040979 234.123428 
L 230.850408 210.216095 
L 231.052765 210.812286 
L 231.255122 215.903002 
L 231.659837 236.521148 
L 232.266908 285.615278 
L 232.469266 292.152073 
L 232.671623 292.705993 
L 233.278694 273.778439 
L 234.088123 240.915479 
L 234.695195 220.821346 
L 235.302267 198.284309 
L 235.504624 197.39965 
L 235.706981 199.026578 
L 235.909338 203.729312 
L 236.314053 221.839811 
L 237.123481 285.031208 
L 237.325839 290.635173 
L 237.528196 289.727984 
L 237.730553 285.121795 
L 239.147053 233.762694 
L 239.956482 212.557032 
L 240.15884 209.788182 
L 240.361197 209.697529 
L 240.563554 211.224705 
L 240.765911 216.658016 
L 241.170626 237.597796 
L 241.980054 285.47304 
L 242.182412 290.011925 
L 242.384769 290.557472 
L 242.587126 288.399555 
L 242.789483 282.047685 
L 243.598912 247.453094 
L 244.003626 236.26232 
L 244.813055 206.274336 
L 245.015413 201.746105 
L 245.21777 199.975324 
L 245.420127 201.21102 
L 245.824841 212.635102 
L 246.027199 222.51355 
L 246.836627 280.849961 
L 247.038985 286.619452 
L 247.241342 288.763807 
L 247.443699 286.451522 
L 247.646056 281.074056 
L 248.657842 231.260205 
L 249.264914 193.31558 
L 249.669628 178.535889 
L 249.871985 174.788799 
L 250.074343 175.291936 
L 250.2767 177.77831 
L 250.681414 192.212714 
L 251.086129 215.500404 
L 251.6932 263.479696 
L 251.895558 271.051247 
L 252.097915 274.428909 
L 252.300272 275.135661 
L 252.502629 273.144193 
L 252.907344 263.823313 
L 253.109701 254.59037 
L 254.121487 184.143904 
L 254.526201 175.93062 
L 254.728558 173.154918 
L 254.930916 172.696943 
L 255.133273 174.339706 
L 255.33563 180.274268 
L 255.740345 201.582205 
L 256.549773 261.131575 
L 256.954488 275.924056 
L 257.156845 278.734136 
L 257.359202 277.716379 
L 257.763917 264.980925 
L 258.168631 243.340969 
L 258.775703 205.519652 
L 259.382774 185.389194 
L 259.787489 182.803628 
L 259.989846 184.854614 
L 260.39456 198.726681 
L 260.799275 225.738706 
L 261.406346 269.894918 
L 261.811061 282.902986 
L 262.013418 283.577058 
L 262.215775 279.244933 
L 263.025204 236.663049 
L 263.429918 228.834415 
L 263.632276 226.639787 
L 263.834633 230.441478 
L 264.239347 242.748168 
L 264.644062 248.539276 
L 264.846419 247.220857 
L 265.048776 247.395568 
L 265.45349 254.544109 
L 266.465277 294.642558 
L 266.667634 292.640042 
L 267.072348 279.065753 
L 268.084134 245.775136 
L 268.488849 242.151109 
L 268.691206 242.029397 
L 269.298277 234.68219 
L 269.702992 233.195783 
L 269.905349 234.259221 
L 270.310063 240.972885 
L 270.714778 264.553618 
L 271.119492 286.21791 
L 271.32185 290.311054 
L 271.524207 289.200039 
L 271.928921 276.981739 
L 272.535993 252.950664 
L 272.73835 247.089677 
L 273.750136 193.193181 
L 274.15485 181.370569 
L 274.559565 179.165141 
L 274.761922 182.158298 
L 274.964279 186.941127 
L 275.368994 206.257975 
L 276.178422 266.723785 
L 276.38078 270.359568 
L 276.583137 271.445624 
L 276.785494 267.363586 
L 277.190209 248.457162 
L 277.999637 196.364511 
L 278.404352 185.718241 
L 278.606709 180.149016 
L 278.809066 180.017352 
L 279.011423 177.079744 
L 279.213781 176.110063 
L 279.416138 176.407703 
L 279.618495 180.034035 
L 279.820852 187.724395 
L 280.225567 215.165858 
L 280.832638 265.686381 
L 281.034995 275.098512 
L 281.237353 278.599765 
L 281.43971 279.893797 
L 281.844424 265.438892 
L 282.85621 215.332068 
L 283.665639 189.266022 
L 283.867996 187.310057 
L 284.070354 187.711221 
L 284.272711 188.753584 
L 284.677425 204.669969 
L 285.891568 288.301858 
L 286.093926 290.652457 
L 286.296283 289.803362 
L 287.105712 259.219894 
L 288.522212 185.190599 
L 288.724569 178.533349 
L 288.926927 176.564771 
L 289.129284 177.62105 
L 289.331641 184.440397 
L 289.938713 222.433072 
L 290.545784 268.952675 
L 290.950499 280.877637 
L 291.152856 280.757546 
L 291.355213 277.867938 
L 291.55757 272.777881 
L 291.962285 254.821829 
L 292.569356 206.010888 
L 292.974071 177.33263 
L 293.378785 164.403959 
L 293.581142 159.28 
L 293.7835 158.034755 
L 293.985857 160.631354 
L 294.188214 166.829755 
L 294.795286 200.374685 
L 295.807072 266.459083 
L 296.009429 269.311598 
L 296.211786 266.765749 
L 296.6165 239.743226 
L 297.223572 188.235409 
L 297.830644 145.555152 
L 298.235358 136.451141 
L 298.437715 132.932018 
L 298.640073 132.892976 
L 298.84243 135.236566 
L 299.247144 149.932924 
L 299.651859 182.105249 
L 300.25893 235.797242 
L 300.663645 252.129397 
L 300.866002 253.2545 
L 301.270716 234.770485 
L 301.675431 212.579283 
L 302.687217 121.528139 
L 302.889574 117.170717 
L 303.294288 122.212067 
L 303.90136 147.782929 
L 304.508432 201.358237 
L 304.913146 230.99158 
L 305.31786 253.41794 
L 305.520218 259.004543 
L 305.722575 256.628335 
L 306.734361 215.162616 
L 307.54379 160.312224 
L 307.746147 156.660219 
L 307.948504 155.102298 
L 308.150861 155.24961 
L 308.353218 157.576306 
L 308.555576 165.062357 
L 309.365005 219.71568 
L 309.972076 264.552769 
L 310.174433 271.007082 
L 310.376791 273.098915 
L 310.579148 270.723444 
L 310.983862 253.592333 
L 311.793291 207.142243 
L 312.198005 171.538079 
L 312.60272 152.6886 
L 313.007434 147.296758 
L 313.209791 148.679256 
L 313.412149 151.762551 
L 313.816863 176.249104 
L 315.031006 267.349993 
L 315.233364 269.384668 
L 315.435721 266.196895 
L 315.840435 245.764216 
L 316.24515 227.251258 
L 317.256936 194.488269 
L 317.66165 190.357481 
L 317.864007 190.361712 
L 318.066364 189.627684 
L 318.268722 191.781133 
L 318.875793 220.485579 
L 319.887579 288.192224 
L 320.089937 289.675389 
L 320.292294 286.441974 
L 320.697008 269.237192 
L 322.113509 205.849909 
L 322.518223 184.597748 
L 322.72058 180.294547 
L 322.922937 180.434437 
L 323.125295 183.494756 
L 323.327652 189.109146 
L 323.732366 210.333439 
L 324.744152 276.985052 
L 325.148867 283.235361 
L 325.351224 281.810927 
L 325.755938 270.959965 
L 326.160653 243.470166 
L 326.565367 208.345746 
L 326.970082 174.125266 
L 327.374796 157.88106 
L 327.577153 154.576276 
L 327.77951 154.383963 
L 327.981868 157.669842 
L 328.184225 164.651695 
L 328.588939 190.235471 
L 328.993654 224.59537 
L 329.600725 275.83506 
L 329.803083 282.936131 
L 330.00544 285.304333 
L 330.207797 281.825111 
L 330.410154 271.689424 
L 331.017226 218.174368 
L 331.624297 178.216203 
L 332.029012 166.251457 
L 332.231369 165.779041 
L 332.636083 168.573966 
L 332.838441 172.721907 
L 333.040798 179.360035 
L 333.647869 218.065792 
L 334.457298 280.332953 
L 334.659655 284.383818 
L 334.862013 283.284573 
L 335.266727 263.810106 
L 335.671442 236.667523 
L 336.278513 214.497374 
L 336.683228 197.334088 
L 336.885585 194.630562 
L 337.087942 195.245091 
L 337.290299 192.415985 
L 337.492656 194.440632 
L 337.897371 204.147598 
L 338.302085 221.214063 
L 338.7068 250.926322 
L 339.111514 281.743956 
L 339.313871 288.46291 
L 339.516228 287.163146 
L 339.920943 270.717102 
L 340.730372 235.61887 
L 341.135086 214.287262 
L 341.742158 187.531779 
L 342.146872 175.069164 
L 342.349229 175.136271 
L 342.551587 175.357624 
L 342.753944 180.206292 
L 343.361015 210.286734 
L 343.968087 263.356514 
L 344.170444 271.356478 
L 344.372801 273.474366 
L 344.575159 270.023843 
L 344.979873 254.64964 
L 345.586945 212.719652 
L 345.991659 175.609895 
L 346.396374 154.826012 
L 346.801088 145.546295 
L 347.003445 145.484611 
L 347.205802 145.575622 
L 347.40816 148.484297 
L 347.610517 153.755311 
L 347.812874 162.835792 
L 348.419946 212.964844 
L 348.82466 248.210673 
L 349.229374 266.910986 
L 349.431732 267.298458 
L 349.634089 260.836387 
L 350.443518 211.092172 
L 350.848232 175.997975 
L 351.252947 157.404998 
L 351.860018 147.488061 
L 352.062375 147.15101 
L 352.264733 150.49116 
L 352.46709 157.059777 
L 352.871804 187.46247 
L 353.681233 252.513228 
L 354.085947 270.599849 
L 354.288305 272.787535 
L 354.490662 269.189709 
L 355.300091 228.904194 
L 356.109519 158.571108 
L 356.716591 145.392782 
L 356.918948 142.993501 
L 357.121306 146.125336 
L 357.323663 153.117551 
L 357.930734 200.939001 
L 358.740163 260.727539 
L 358.94252 267.347316 
L 359.144878 269.446251 
L 359.347235 265.147716 
L 359.751949 249.680002 
L 360.359021 205.289286 
L 360.763735 162.24686 
L 361.16845 142.481113 
L 361.775521 129.473327 
L 361.977879 130.887324 
L 362.180236 138.342442 
L 362.58495 166.727024 
L 363.596736 250.174497 
L 363.799093 258.257388 
L 364.001451 259.33484 
L 364.203808 252.921739 
L 365.013237 197.572448 
L 365.620308 133.687416 
L 366.025023 114.423281 
L 366.22738 112.734169 
L 366.429737 108.789549 
L 366.632094 110.104911 
L 366.834451 113.086146 
L 367.036809 121.486128 
L 367.441523 152.198531 
L 368.453309 240.699814 
L 368.655666 249.377876 
L 368.858024 249.833682 
L 369.262738 231.563577 
L 369.86981 197.925694 
L 370.476881 140.832831 
L 370.881596 124.996727 
L 371.28631 121.78759 
L 371.691024 130.947352 
L 371.893382 140.89813 
L 373.309882 246.027594 
L 373.512239 253.601377 
L 373.714597 252.790801 
L 374.726383 223.374905 
L 375.131097 187.157253 
L 375.535811 159.094337 
L 375.738169 154.147098 
L 375.940526 152.411077 
L 376.142883 149.49038 
L 376.34524 148.215778 
L 376.547597 152.314517 
L 376.952312 178.368626 
L 377.761741 239.062444 
L 378.166455 259.588827 
L 378.368812 263.860879 
L 378.57117 263.374346 
L 378.773527 257.073154 
L 379.582956 217.463386 
L 380.392384 152.341001 
L 380.594742 144.34338 
L 381.40417 134.112741 
L 381.606528 141.763677 
L 382.213599 188.272664 
L 382.820671 241.264574 
L 383.225385 259.533215 
L 383.427743 258.812636 
L 383.832457 237.463551 
L 384.237171 219.162983 
L 384.237171 219.162983 
" clip-path="url(#pa68637f320)" style="fill: none; stroke: #ff7f0e; stroke-width: 1.5; stroke-linecap: square"/>
   </g>
   <g id="line2d_16">
    <path d="M 384.439529 209.245119 
L 384.641886 203.243807 
L 386.058386 139.788231 
L 386.260743 138.164581 
L 386.463101 140.878195 
L 386.665458 148.877831 
L 387.070172 180.773169 
L 387.474887 223.341097 
L 388.081958 257.690936 
L 388.284316 258.602041 
L 388.68903 243.592368 
L 388.891387 235.245038 
L 389.093744 231.561017 
L 389.296102 231.274861 
L 389.498459 228.678487 
L 389.903173 221.64109 
L 390.10553 219.860319 
L 390.510245 221.794326 
L 390.712602 221.332287 
L 391.117316 227.095732 
L 391.319674 227.991639 
L 391.522031 232.124525 
L 391.926745 248.223524 
L 392.736174 286.953877 
L 392.938531 285.946911 
L 393.140888 279.213061 
L 393.545603 257.051807 
L 394.152675 238.921336 
L 394.962103 220.872939 
L 395.366818 202.31335 
L 395.973889 170.194001 
L 396.176247 163.624955 
L 396.378604 160.968011 
L 396.580961 162.873648 
L 396.783318 167.577957 
L 397.188033 187.28731 
L 397.592747 210.53573 
L 397.997461 222.235822 
L 398.199819 226.012526 
L 398.402176 226.287311 
L 398.604533 223.78781 
L 398.80689 216.899864 
L 399.211605 186.367489 
L 400.425748 68.114779 
L 400.830462 55.8 
L 401.03282 57.318794 
L 401.437534 73.011877 
L 401.842248 106.347838 
L 402.854034 212.298763 
L 403.258749 232.814508 
L 403.461106 237.076643 
L 403.663463 237.944717 
L 403.86582 236.585751 
L 404.270535 231.506239 
L 404.472892 230.183314 
L 404.675249 230.38464 
L 404.877607 231.827828 
L 405.079964 234.418377 
L 405.484678 250.289385 
L 406.09175 276.423679 
L 406.294107 282.41834 
L 406.496464 284.525905 
L 407.103536 276.819839 
L 407.305893 273.058055 
L 407.912965 268.234495 
L 408.115322 268.736839 
L 408.317679 268.258275 
L 408.520036 265.50148 
L 409.329465 244.082162 
L 409.531822 241.693025 
L 409.73418 240.834056 
L 409.936537 240.471953 
L 410.745966 244.350987 
L 412.971895 277.653675 
L 413.174252 277.571293 
L 413.376609 275.665171 
L 413.781324 265.024921 
L 414.388395 241.767439 
L 414.79311 212.032912 
L 415.197824 168.990273 
L 415.602539 143.359192 
L 416.007253 130.488559 
L 416.614325 118.349915 
L 416.816682 117.002883 
L 417.019039 117.988091 
L 417.423753 121.629068 
L 418.435539 138.322245 
L 418.840254 140.646123 
L 419.042611 140.844404 
L 419.244968 140.744264 
L 419.649683 139.383205 
L 419.85204 139.304322 
L 420.256754 143.693415 
L 420.459112 148.280572 
L 421.066183 168.347605 
L 421.875612 191.432085 
L 423.292112 247.666971 
L 423.696827 264.341884 
L 423.899184 269.739236 
L 424.101541 271.038613 
L 424.303898 269.852924 
L 424.91097 263.506284 
L 425.113327 264.015937 
L 425.922756 269.627007 
L 426.327471 266.499302 
L 427.136899 258.87634 
L 427.339257 257.50241 
L 427.541614 257.953631 
L 428.755757 271.020344 
L 428.958114 270.263459 
L 429.160471 268.720825 
L 429.362829 266.189591 
L 429.767543 258.380759 
L 429.9699 256.556481 
L 430.172257 255.881489 
L 430.374615 255.995313 
L 430.779329 256.625793 
L 430.981686 256.211056 
L 431.791115 252.105798 
L 431.993472 252.0917 
L 432.19583 251.937204 
L 432.600544 251.062347 
L 432.802901 250.190282 
L 433.005258 248.737184 
L 433.207616 245.059372 
L 433.409973 238.315616 
L 433.814687 211.881946 
L 435.433545 68.573693 
L 435.635902 62.543903 
L 435.838259 60.313238 
L 436.040617 62.181575 
L 436.445331 76.142424 
L 437.25476 121.916927 
L 437.861831 158.031645 
L 438.266546 171.104256 
L 438.468903 172.632401 
L 438.67126 172.151623 
L 439.683046 163.96648 
L 439.885403 164.799659 
L 440.290118 170.318773 
L 440.694832 180.208741 
L 441.099547 193.185991 
L 441.504261 214.340389 
L 442.31369 262.303176 
L 442.516047 267.938168 
L 442.718404 269.791684 
L 442.920762 269.331068 
L 443.325476 263.439093 
L 443.73019 257.21655 
L 443.932548 255.984858 
L 444.134905 256.095858 
L 444.337262 257.043097 
L 444.741976 259.811207 
L 444.944334 260.08926 
L 445.349048 262.312717 
L 445.551405 262.905616 
L 445.753762 263.143614 
L 445.95612 263.643979 
L 446.360834 266.301409 
L 446.967906 273.070436 
L 447.170263 273.767174 
L 447.37262 273.269162 
L 448.182049 266.210251 
L 448.586763 262.28614 
L 448.991478 258.089181 
L 449.598549 254.704656 
L 450.003264 249.78909 
L 450.610335 239.822418 
L 451.217407 224.653777 
L 451.622121 208.347905 
L 452.633908 155.404921 
L 453.645694 97.938282 
L 454.050408 85.525221 
L 454.252765 82.969371 
L 454.455122 82.916766 
L 454.65748 84.608978 
L 455.062194 92.689592 
L 455.871623 120.646404 
L 456.681052 152.631299 
L 457.085766 161.907925 
L 457.692838 168.537651 
L 458.299909 174.530711 
L 458.704624 182.845943 
L 459.109338 195.559934 
L 459.71641 229.004317 
L 460.323481 259.751071 
L 460.525839 265.536084 
L 460.728196 267.748369 
L 460.930553 267.782309 
L 461.335267 264.266536 
L 461.739982 261.125004 
L 461.942339 261.452473 
L 462.549411 263.414649 
L 462.751768 263.119367 
L 463.763554 258.090542 
L 463.965911 258.393135 
L 464.370626 261.957933 
L 465.180054 274.001761 
L 465.382412 274.748343 
L 465.584769 273.716902 
L 465.989483 269.006662 
L 466.394198 263.431562 
L 466.798912 261.353829 
L 467.001269 261.062373 
L 467.405984 261.134284 
L 467.608341 260.798337 
L 468.013055 256.023805 
L 468.41777 251.478899 
L 468.822484 248.361538 
L 469.227199 241.962598 
L 469.631913 232.547907 
L 469.83427 225.696559 
L 470.643699 176.879059 
L 472.060199 80.299333 
L 472.262557 75.45573 
L 472.464914 73.546088 
L 472.667271 74.223331 
L 472.869628 77.787848 
L 473.274343 90.810843 
L 474.8932 157.403887 
L 475.297915 163.777828 
L 475.702629 165.786145 
L 476.107344 165.878318 
L 476.309701 166.599995 
L 476.512058 168.045774 
L 476.916772 174.464382 
L 477.523844 193.681387 
L 478.130916 229.428336 
L 478.737987 261.956178 
L 478.940345 267.092299 
L 479.142702 268.217251 
L 479.345059 267.286915 
L 480.154488 259.042426 
L 480.356845 259.455754 
L 480.963917 262.467612 
L 481.166274 262.393698 
L 481.570988 260.759249 
L 481.773345 260.510796 
L 481.975703 259.992485 
L 482.17806 260.131529 
L 482.582774 262.754378 
L 482.987489 267.634837 
L 483.59456 275.36788 
L 483.796917 274.854144 
L 484.201632 270.224659 
L 484.606346 264.83669 
L 485.213418 260.889005 
L 485.618132 259.687872 
L 485.82049 259.492304 
L 486.022847 258.12614 
L 487.23699 243.937001 
L 487.844062 230.84619 
L 488.248776 215.773186 
L 489.665277 124.722421 
L 490.272348 87.43773 
L 490.677063 77.174916 
L 490.87942 76.521921 
L 491.081777 78.160841 
L 491.486491 87.702503 
L 492.29592 119.728576 
L 493.105349 153.102594 
L 493.510063 161.76185 
L 493.914778 165.298085 
L 494.724207 169.105037 
L 495.128921 174.694222 
L 495.533636 185.803799 
L 495.93835 201.852018 
L 497.152493 264.984416 
L 497.35485 267.499391 
L 497.557208 267.434056 
L 497.961922 263.176759 
L 498.366636 259.793335 
L 498.568994 260.057573 
L 499.176065 262.495558 
L 499.378422 262.591861 
L 499.58078 261.876233 
L 499.783137 260.649711 
L 500.390209 259.552946 
L 500.592566 260.238608 
L 500.99728 263.582795 
L 501.806709 274.664638 
L 502.009066 275.090281 
L 502.211423 273.759625 
L 503.223209 262.453264 
L 503.627924 260.576568 
L 504.234995 259.406613 
L 505.651496 242.953247 
L 506.258568 228.967945 
L 506.663282 210.484496 
L 507.877425 130.113637 
L 508.484497 89.472072 
L 508.889211 76.866515 
L 509.091568 75.12694 
L 509.293926 76.008654 
L 509.496283 79.370608 
L 509.900997 91.700708 
L 511.722212 160.971035 
L 512.126927 164.724372 
L 512.531641 166.203058 
L 512.733998 166.778751 
L 512.936355 167.851506 
L 513.138713 169.568203 
L 513.543427 176.587412 
L 514.150499 196.615264 
L 515.364642 262.712038 
L 515.566999 266.884459 
L 515.769356 267.772849 
L 515.971714 266.551147 
L 516.578785 259.891552 
L 516.781142 259.58652 
L 516.9835 260.2248 
L 517.388214 262.041511 
L 517.590571 262.501125 
L 517.792928 262.220691 
L 518.197643 260.475321 
L 518.4 260.14747 
L 518.4 260.14747 
" clip-path="url(#pa68637f320)" style="fill: none; stroke: #2ca02c; stroke-width: 1.5; stroke-linecap: square"/>
   </g>
   <g id="patch_3">
    <path d="M 72 320.4 
L 72 43.2 
" style="fill: none; stroke: #000000; stroke-width: 0.8; stroke-linejoin: miter; stroke-linecap: square"/>
   </g>
   <g id="patch_4">
    <path d="M 518.4 320.4 
L 518.4 43.2 
" style="fill: none; stroke: #000000; stroke-width: 0.8; stroke-linejoin: miter; stroke-linecap: square"/>
   </g>
   <g id="patch_5">
    <path d="M 72 320.4 
L 518.4 320.4 
" style="fill: none; stroke: #000000; stroke-width: 0.8; stroke-linejoin: miter; stroke-linecap: square"/>
   </g>
   <g id="patch_6">
    <path d="M 72 43.2 
L 518.4 43.2 
" style="fill: none; stroke: #000000; stroke-width: 0.8; stroke-linejoin: miter; stroke-linecap: square"/>
   </g>
   <g id="text_14">
    <!-- Classic Transformer - model_20231126164743 -->
    <g transform="translate(155.436563 37.2) scale(0.12 -0.12)">
     <defs>
      <path id="DejaVuSans-43" d="M 4122 4306 
L 4122 3641 
Q 3803 3938 3442 4084 
Q 3081 4231 2675 4231 
Q 1875 4231 1450 3742 
Q 1025 3253 1025 2328 
Q 1025 1406 1450 917 
Q 1875 428 2675 428 
Q 3081 428 3442 575 
Q 3803 722 4122 1019 
L 4122 359 
Q 3791 134 3420 21 
Q 3050 -91 2638 -91 
Q 1578 -91 968 557 
Q 359 1206 359 2328 
Q 359 3453 968 4101 
Q 1578 4750 2638 4750 
Q 3056 4750 3426 4639 
Q 3797 4528 4122 4306 
z
" transform="scale(0.015625)"/>
      <path id="DejaVuSans-6c" d="M 603 4863 
L 1178 4863 
L 1178 0 
L 603 0 
L 603 4863 
z
" transform="scale(0.015625)"/>
      <path id="DejaVuSans-61" d="M 2194 1759 
Q 1497 1759 1228 1600 
Q 959 1441 959 1056 
Q 959 750 1161 570 
Q 1363 391 1709 391 
Q 2188 391 2477 730 
Q 2766 1069 2766 1631 
L 2766 1759 
L 2194 1759 
z
M 3341 1997 
L 3341 0 
L 2766 0 
L 2766 531 
Q 2569 213 2275 61 
Q 1981 -91 1556 -91 
Q 1019 -91 701 211 
Q 384 513 384 1019 
Q 384 1609 779 1909 
Q 1175 2209 1959 2209 
L 2766 2209 
L 2766 2266 
Q 2766 2663 2505 2880 
Q 2244 3097 1772 3097 
Q 1472 3097 1187 3025 
Q 903 2953 641 2809 
L 641 3341 
Q 956 3463 1253 3523 
Q 1550 3584 1831 3584 
Q 2591 3584 2966 3190 
Q 3341 2797 3341 1997 
z
" transform="scale(0.015625)"/>
      <path id="DejaVuSans-73" d="M 2834 3397 
L 2834 2853 
Q 2591 2978 2328 3040 
Q 2066 3103 1784 3103 
Q 1356 3103 1142 2972 
Q 928 2841 928 2578 
Q 928 2378 1081 2264 
Q 1234 2150 1697 2047 
L 1894 2003 
Q 2506 1872 2764 1633 
Q 3022 1394 3022 966 
Q 3022 478 2636 193 
Q 2250 -91 1575 -91 
Q 1294 -91 989 -36 
Q 684 19 347 128 
L 347 722 
Q 666 556 975 473 
Q 1284 391 1588 391 
Q 1994 391 2212 530 
Q 2431 669 2431 922 
Q 2431 1156 2273 1281 
Q 2116 1406 1581 1522 
L 1381 1569 
Q 847 1681 609 1914 
Q 372 2147 372 2553 
Q 372 3047 722 3315 
Q 1072 3584 1716 3584 
Q 2034 3584 2315 3537 
Q 2597 3491 2834 3397 
z
" transform="scale(0.015625)"/>
      <path id="DejaVuSans-69" d="M 603 3500 
L 1178 3500 
L 1178 0 
L 603 0 
L 603 3500 
z
M 603 4863 
L 1178 4863 
L 1178 4134 
L 603 4134 
L 603 4863 
z
" transform="scale(0.015625)"/>
      <path id="DejaVuSans-63" d="M 3122 3366 
L 3122 2828 
Q 2878 2963 2633 3030 
Q 2388 3097 2138 3097 
Q 1578 3097 1268 2742 
Q 959 2388 959 1747 
Q 959 1106 1268 751 
Q 1578 397 2138 397 
Q 2388 397 2633 464 
Q 2878 531 3122 666 
L 3122 134 
Q 2881 22 2623 -34 
Q 2366 -91 2075 -91 
Q 1284 -91 818 406 
Q 353 903 353 1747 
Q 353 2603 823 3093 
Q 1294 3584 2113 3584 
Q 2378 3584 2631 3529 
Q 2884 3475 3122 3366 
z
" transform="scale(0.015625)"/>
      <path id="DejaVuSans-20" transform="scale(0.015625)"/>
      <path id="DejaVuSans-54" d="M -19 4666 
L 3928 4666 
L 3928 4134 
L 2272 4134 
L 2272 0 
L 1638 0 
L 1638 4134 
L -19 4134 
L -19 4666 
z
" transform="scale(0.015625)"/>
      <path id="DejaVuSans-72" d="M 2631 2963 
Q 2534 3019 2420 3045 
Q 2306 3072 2169 3072 
Q 1681 3072 1420 2755 
Q 1159 2438 1159 1844 
L 1159 0 
L 581 0 
L 581 3500 
L 1159 3500 
L 1159 2956 
Q 1341 3275 1631 3429 
Q 1922 3584 2338 3584 
Q 2397 3584 2469 3576 
Q 2541 3569 2628 3553 
L 2631 2963 
z
" transform="scale(0.015625)"/>
      <path id="DejaVuSans-6e" d="M 3513 2113 
L 3513 0 
L 2938 0 
L 2938 2094 
Q 2938 2591 2744 2837 
Q 2550 3084 2163 3084 
Q 1697 3084 1428 2787 
Q 1159 2491 1159 1978 
L 1159 0 
L 581 0 
L 581 3500 
L 1159 3500 
L 1159 2956 
Q 1366 3272 1645 3428 
Q 1925 3584 2291 3584 
Q 2894 3584 3203 3211 
Q 3513 2838 3513 2113 
z
" transform="scale(0.015625)"/>
      <path id="DejaVuSans-66" d="M 2375 4863 
L 2375 4384 
L 1825 4384 
Q 1516 4384 1395 4259 
Q 1275 4134 1275 3809 
L 1275 3500 
L 2222 3500 
L 2222 3053 
L 1275 3053 
L 1275 0 
L 697 0 
L 697 3053 
L 147 3053 
L 147 3500 
L 697 3500 
L 697 3744 
Q 697 4328 969 4595 
Q 1241 4863 1831 4863 
L 2375 4863 
z
" transform="scale(0.015625)"/>
      <path id="DejaVuSans-6f" d="M 1959 3097 
Q 1497 3097 1228 2736 
Q 959 2375 959 1747 
Q 959 1119 1226 758 
Q 1494 397 1959 397 
Q 2419 397 2687 759 
Q 2956 1122 2956 1747 
Q 2956 2369 2687 2733 
Q 2419 3097 1959 3097 
z
M 1959 3584 
Q 2709 3584 3137 3096 
Q 3566 2609 3566 1747 
Q 3566 888 3137 398 
Q 2709 -91 1959 -91 
Q 1206 -91 779 398 
Q 353 888 353 1747 
Q 353 2609 779 3096 
Q 1206 3584 1959 3584 
z
" transform="scale(0.015625)"/>
      <path id="DejaVuSans-6d" d="M 3328 2828 
Q 3544 3216 3844 3400 
Q 4144 3584 4550 3584 
Q 5097 3584 5394 3201 
Q 5691 2819 5691 2113 
L 5691 0 
L 5113 0 
L 5113 2094 
Q 5113 2597 4934 2840 
Q 4756 3084 4391 3084 
Q 3944 3084 3684 2787 
Q 3425 2491 3425 1978 
L 3425 0 
L 2847 0 
L 2847 2094 
Q 2847 2600 2669 2842 
Q 2491 3084 2119 3084 
Q 1678 3084 1418 2786 
Q 1159 2488 1159 1978 
L 1159 0 
L 581 0 
L 581 3500 
L 1159 3500 
L 1159 2956 
Q 1356 3278 1631 3431 
Q 1906 3584 2284 3584 
Q 2666 3584 2933 3390 
Q 3200 3197 3328 2828 
z
" transform="scale(0.015625)"/>
      <path id="DejaVuSans-65" d="M 3597 1894 
L 3597 1613 
L 953 1613 
Q 991 1019 1311 708 
Q 1631 397 2203 397 
Q 2534 397 2845 478 
Q 3156 559 3463 722 
L 3463 178 
Q 3153 47 2828 -22 
Q 2503 -91 2169 -91 
Q 1331 -91 842 396 
Q 353 884 353 1716 
Q 353 2575 817 3079 
Q 1281 3584 2069 3584 
Q 2775 3584 3186 3129 
Q 3597 2675 3597 1894 
z
M 3022 2063 
Q 3016 2534 2758 2815 
Q 2500 3097 2075 3097 
Q 1594 3097 1305 2825 
Q 1016 2553 972 2059 
L 3022 2063 
z
" transform="scale(0.015625)"/>
      <path id="DejaVuSans-64" d="M 2906 2969 
L 2906 4863 
L 3481 4863 
L 3481 0 
L 2906 0 
L 2906 525 
Q 2725 213 2448 61 
Q 2172 -91 1784 -91 
Q 1150 -91 751 415 
Q 353 922 353 1747 
Q 353 2572 751 3078 
Q 1150 3584 1784 3584 
Q 2172 3584 2448 3432 
Q 2725 3281 2906 2969 
z
M 947 1747 
Q 947 1113 1208 752 
Q 1469 391 1925 391 
Q 2381 391 2643 752 
Q 2906 1113 2906 1747 
Q 2906 2381 2643 2742 
Q 2381 3103 1925 3103 
Q 1469 3103 1208 2742 
Q 947 2381 947 1747 
z
" transform="scale(0.015625)"/>
      <path id="DejaVuSans-5f" d="M 3263 -1063 
L 3263 -1509 
L -63 -1509 
L -63 -1063 
L 3263 -1063 
z
" transform="scale(0.015625)"/>
     </defs>
     <use xlink:href="#DejaVuSans-43"/>
     <use xlink:href="#DejaVuSans-6c" x="69.824219"/>
     <use xlink:href="#DejaVuSans-61" x="97.607422"/>
     <use xlink:href="#DejaVuSans-73" x="158.886719"/>
     <use xlink:href="#DejaVuSans-73" x="210.986328"/>
     <use xlink:href="#DejaVuSans-69" x="263.085938"/>
     <use xlink:href="#DejaVuSans-63" x="290.869141"/>
     <use xlink:href="#DejaVuSans-20" x="345.849609"/>
     <use xlink:href="#DejaVuSans-54" x="377.636719"/>
     <use xlink:href="#DejaVuSans-72" x="423.970703"/>
     <use xlink:href="#DejaVuSans-61" x="465.083984"/>
     <use xlink:href="#DejaVuSans-6e" x="526.363281"/>
     <use xlink:href="#DejaVuSans-73" x="589.742188"/>
     <use xlink:href="#DejaVuSans-66" x="641.841797"/>
     <use xlink:href="#DejaVuSans-6f" x="677.046875"/>
     <use xlink:href="#DejaVuSans-72" x="738.228516"/>
     <use xlink:href="#DejaVuSans-6d" x="777.591797"/>
     <use xlink:href="#DejaVuSans-65" x="875.003906"/>
     <use xlink:href="#DejaVuSans-72" x="936.527344"/>
     <use xlink:href="#DejaVuSans-20" x="977.640625"/>
     <use xlink:href="#DejaVuSans-2d" x="1009.427734"/>
     <use xlink:href="#DejaVuSans-20" x="1045.511719"/>
     <use xlink:href="#DejaVuSans-6d" x="1077.298828"/>
     <use xlink:href="#DejaVuSans-6f" x="1174.710938"/>
     <use xlink:href="#DejaVuSans-64" x="1235.892578"/>
     <use xlink:href="#DejaVuSans-65" x="1299.369141"/>
     <use xlink:href="#DejaVuSans-6c" x="1360.892578"/>
     <use xlink:href="#DejaVuSans-5f" x="1388.675781"/>
     <use xlink:href="#DejaVuSans-32" x="1438.675781"/>
     <use xlink:href="#DejaVuSans-30" x="1502.298828"/>
     <use xlink:href="#DejaVuSans-32" x="1565.921875"/>
     <use xlink:href="#DejaVuSans-33" x="1629.544922"/>
     <use xlink:href="#DejaVuSans-31" x="1693.167969"/>
     <use xlink:href="#DejaVuSans-31" x="1756.791016"/>
     <use xlink:href="#DejaVuSans-32" x="1820.414062"/>
     <use xlink:href="#DejaVuSans-36" x="1884.037109"/>
     <use xlink:href="#DejaVuSans-31" x="1947.660156"/>
     <use xlink:href="#DejaVuSans-36" x="2011.283203"/>
     <use xlink:href="#DejaVuSans-34" x="2074.90625"/>
     <use xlink:href="#DejaVuSans-37" x="2138.529297"/>
     <use xlink:href="#DejaVuSans-34" x="2202.152344"/>
     <use xlink:href="#DejaVuSans-33" x="2265.775391"/>
    </g>
   </g>
   <g id="legend_1">
    <g id="patch_7">
     <path d="M 79 95.234375 
L 161.517188 95.234375 
Q 163.517188 95.234375 163.517188 93.234375 
L 163.517188 50.2 
Q 163.517188 48.2 161.517188 48.2 
L 79 48.2 
Q 77 48.2 77 50.2 
L 77 93.234375 
Q 77 95.234375 79 95.234375 
z
" style="fill: #ffffff; opacity: 0.8; stroke: #cccccc; stroke-linejoin: miter"/>
    </g>
    <g id="line2d_17">
     <path d="M 81 56.298437 
L 91 56.298437 
L 101 56.298437 
" style="fill: none; stroke: #1f77b4; stroke-width: 1.5; stroke-linecap: square"/>
    </g>
    <g id="text_15">
     <!-- Measured -->
     <g transform="translate(109 59.798437) scale(0.1 -0.1)">
      <defs>
       <path id="DejaVuSans-4d" d="M 628 4666 
L 1569 4666 
L 2759 1491 
L 3956 4666 
L 4897 4666 
L 4897 0 
L 4281 0 
L 4281 4097 
L 3078 897 
L 2444 897 
L 1241 4097 
L 1241 0 
L 628 0 
L 628 4666 
z
" transform="scale(0.015625)"/>
       <path id="DejaVuSans-75" d="M 544 1381 
L 544 3500 
L 1119 3500 
L 1119 1403 
Q 1119 906 1312 657 
Q 1506 409 1894 409 
Q 2359 409 2629 706 
Q 2900 1003 2900 1516 
L 2900 3500 
L 3475 3500 
L 3475 0 
L 2900 0 
L 2900 538 
Q 2691 219 2414 64 
Q 2138 -91 1772 -91 
Q 1169 -91 856 284 
Q 544 659 544 1381 
z
M 1991 3584 
L 1991 3584 
z
" transform="scale(0.015625)"/>
      </defs>
      <use xlink:href="#DejaVuSans-4d"/>
      <use xlink:href="#DejaVuSans-65" x="86.279297"/>
      <use xlink:href="#DejaVuSans-61" x="147.802734"/>
      <use xlink:href="#DejaVuSans-73" x="209.082031"/>
      <use xlink:href="#DejaVuSans-75" x="261.181641"/>
      <use xlink:href="#DejaVuSans-72" x="324.560547"/>
      <use xlink:href="#DejaVuSans-65" x="363.423828"/>
      <use xlink:href="#DejaVuSans-64" x="424.947266"/>
     </g>
    </g>
    <g id="line2d_18">
     <path d="M 81 70.976562 
L 91 70.976562 
L 101 70.976562 
" style="fill: none; stroke: #ff7f0e; stroke-width: 1.5; stroke-linecap: square"/>
    </g>
    <g id="text_16">
     <!-- Fitted -->
     <g transform="translate(109 74.476562) scale(0.1 -0.1)">
      <defs>
       <path id="DejaVuSans-46" d="M 628 4666 
L 3309 4666 
L 3309 4134 
L 1259 4134 
L 1259 2759 
L 3109 2759 
L 3109 2228 
L 1259 2228 
L 1259 0 
L 628 0 
L 628 4666 
z
" transform="scale(0.015625)"/>
       <path id="DejaVuSans-74" d="M 1172 4494 
L 1172 3500 
L 2356 3500 
L 2356 3053 
L 1172 3053 
L 1172 1153 
Q 1172 725 1289 603 
Q 1406 481 1766 481 
L 2356 481 
L 2356 0 
L 1766 0 
Q 1100 0 847 248 
Q 594 497 594 1153 
L 594 3053 
L 172 3053 
L 172 3500 
L 594 3500 
L 594 4494 
L 1172 4494 
z
" transform="scale(0.015625)"/>
      </defs>
      <use xlink:href="#DejaVuSans-46"/>
      <use xlink:href="#DejaVuSans-69" x="50.269531"/>
      <use xlink:href="#DejaVuSans-74" x="78.052734"/>
      <use xlink:href="#DejaVuSans-74" x="117.261719"/>
      <use xlink:href="#DejaVuSans-65" x="156.470703"/>
      <use xlink:href="#DejaVuSans-64" x="217.994141"/>
     </g>
    </g>
    <g id="line2d_19">
     <path d="M 81 85.654687 
L 91 85.654687 
L 101 85.654687 
" style="fill: none; stroke: #2ca02c; stroke-width: 1.5; stroke-linecap: square"/>
    </g>
    <g id="text_17">
     <!-- Estimated -->
     <g transform="translate(109 89.154687) scale(0.1 -0.1)">
      <defs>
       <path id="DejaVuSans-45" d="M 628 4666 
L 3578 4666 
L 3578 4134 
L 1259 4134 
L 1259 2753 
L 3481 2753 
L 3481 2222 
L 1259 2222 
L 1259 531 
L 3634 531 
L 3634 0 
L 628 0 
L 628 4666 
z
" transform="scale(0.015625)"/>
      </defs>
      <use xlink:href="#DejaVuSans-45"/>
      <use xlink:href="#DejaVuSans-73" x="63.183594"/>
      <use xlink:href="#DejaVuSans-74" x="115.283203"/>
      <use xlink:href="#DejaVuSans-69" x="154.492188"/>
      <use xlink:href="#DejaVuSans-6d" x="182.275391"/>
      <use xlink:href="#DejaVuSans-61" x="279.6875"/>
      <use xlink:href="#DejaVuSans-74" x="340.966797"/>
      <use xlink:href="#DejaVuSans-65" x="380.175781"/>
      <use xlink:href="#DejaVuSans-64" x="441.699219"/>
     </g>
    </g>
   </g>
  </g>
 </g>
 <defs>
  <clipPath id="pa68637f320">
   <rect x="72" y="43.2" width="446.4" height="277.2"/>
  </clipPath>
 </defs>
</svg>
