<?xml version="1.0" encoding="utf-8" standalone="no"?>
<!DOCTYPE svg PUBLIC "-//W3C//DTD SVG 1.1//EN"
  "http://www.w3.org/Graphics/SVG/1.1/DTD/svg11.dtd">
<svg xmlns:xlink="http://www.w3.org/1999/xlink" width="576pt" height="360pt" viewBox="0 0 576 360" xmlns="http://www.w3.org/2000/svg" version="1.1">
 <metadata>
  <rdf:RDF xmlns:dc="http://purl.org/dc/elements/1.1/" xmlns:cc="http://creativecommons.org/ns#" xmlns:rdf="http://www.w3.org/1999/02/22-rdf-syntax-ns#">
   <cc:Work>
    <dc:type rdf:resource="http://purl.org/dc/dcmitype/StillImage"/>
    <dc:date>2023-11-26T17:42:35.422489</dc:date>
    <dc:format>image/svg+xml</dc:format>
    <dc:creator>
     <cc:Agent>
      <dc:title>Matplotlib v3.8.1, https://matplotlib.org/</dc:title>
     </cc:Agent>
    </dc:creator>
   </cc:Work>
  </rdf:RDF>
 </metadata>
 <defs>
  <style type="text/css">*{stroke-linejoin: round; stroke-linecap: butt}</style>
 </defs>
 <g id="figure_1">
  <g id="patch_1">
   <path d="M 0 360 
L 576 360 
L 576 0 
L 0 0 
z
" style="fill: #ffffff"/>
  </g>
  <g id="axes_1">
   <g id="patch_2">
    <path d="M 72 320.4 
L 518.4 320.4 
L 518.4 43.2 
L 72 43.2 
z
" style="fill: #ffffff"/>
   </g>
   <g id="matplotlib.axis_1">
    <g id="xtick_1">
     <g id="line2d_1">
      <defs>
       <path id="m551b92e99a" d="M 0 0 
L 0 3.5 
" style="stroke: #000000; stroke-width: 0.8"/>
      </defs>
      <g>
       <use xlink:href="#m551b92e99a" x="129.874161" y="320.4" style="stroke: #000000; stroke-width: 0.8"/>
      </g>
     </g>
     <g id="text_1">
      <!-- 2020-05-15 -->
      <g transform="translate(100.816349 334.998438) scale(0.1 -0.1)">
       <defs>
        <path id="DejaVuSans-32" d="M 1228 531 
L 3431 531 
L 3431 0 
L 469 0 
L 469 531 
Q 828 903 1448 1529 
Q 2069 2156 2228 2338 
Q 2531 2678 2651 2914 
Q 2772 3150 2772 3378 
Q 2772 3750 2511 3984 
Q 2250 4219 1831 4219 
Q 1534 4219 1204 4116 
Q 875 4013 500 3803 
L 500 4441 
Q 881 4594 1212 4672 
Q 1544 4750 1819 4750 
Q 2544 4750 2975 4387 
Q 3406 4025 3406 3419 
Q 3406 3131 3298 2873 
Q 3191 2616 2906 2266 
Q 2828 2175 2409 1742 
Q 1991 1309 1228 531 
z
" transform="scale(0.015625)"/>
        <path id="DejaVuSans-30" d="M 2034 4250 
Q 1547 4250 1301 3770 
Q 1056 3291 1056 2328 
Q 1056 1369 1301 889 
Q 1547 409 2034 409 
Q 2525 409 2770 889 
Q 3016 1369 3016 2328 
Q 3016 3291 2770 3770 
Q 2525 4250 2034 4250 
z
M 2034 4750 
Q 2819 4750 3233 4129 
Q 3647 3509 3647 2328 
Q 3647 1150 3233 529 
Q 2819 -91 2034 -91 
Q 1250 -91 836 529 
Q 422 1150 422 2328 
Q 422 3509 836 4129 
Q 1250 4750 2034 4750 
z
" transform="scale(0.015625)"/>
        <path id="DejaVuSans-2d" d="M 313 2009 
L 1997 2009 
L 1997 1497 
L 313 1497 
L 313 2009 
z
" transform="scale(0.015625)"/>
        <path id="DejaVuSans-35" d="M 691 4666 
L 3169 4666 
L 3169 4134 
L 1269 4134 
L 1269 2991 
Q 1406 3038 1543 3061 
Q 1681 3084 1819 3084 
Q 2600 3084 3056 2656 
Q 3513 2228 3513 1497 
Q 3513 744 3044 326 
Q 2575 -91 1722 -91 
Q 1428 -91 1123 -41 
Q 819 9 494 109 
L 494 744 
Q 775 591 1075 516 
Q 1375 441 1709 441 
Q 2250 441 2565 725 
Q 2881 1009 2881 1497 
Q 2881 1984 2565 2268 
Q 2250 2553 1709 2553 
Q 1456 2553 1204 2497 
Q 953 2441 691 2322 
L 691 4666 
z
" transform="scale(0.015625)"/>
        <path id="DejaVuSans-31" d="M 794 531 
L 1825 531 
L 1825 4091 
L 703 3866 
L 703 4441 
L 1819 4666 
L 2450 4666 
L 2450 531 
L 3481 531 
L 3481 0 
L 794 0 
L 794 531 
z
" transform="scale(0.015625)"/>
       </defs>
       <use xlink:href="#DejaVuSans-32"/>
       <use xlink:href="#DejaVuSans-30" x="63.623047"/>
       <use xlink:href="#DejaVuSans-32" x="127.246094"/>
       <use xlink:href="#DejaVuSans-30" x="190.869141"/>
       <use xlink:href="#DejaVuSans-2d" x="254.492188"/>
       <use xlink:href="#DejaVuSans-30" x="290.576172"/>
       <use xlink:href="#DejaVuSans-35" x="354.199219"/>
       <use xlink:href="#DejaVuSans-2d" x="417.822266"/>
       <use xlink:href="#DejaVuSans-31" x="453.90625"/>
       <use xlink:href="#DejaVuSans-35" x="517.529297"/>
      </g>
     </g>
    </g>
    <g id="xtick_2">
     <g id="line2d_2">
      <g>
       <use xlink:href="#m551b92e99a" x="212.435902" y="320.4" style="stroke: #000000; stroke-width: 0.8"/>
      </g>
     </g>
     <g id="text_2">
      <!-- 2020-06-01 -->
      <g transform="translate(183.37809 334.998438) scale(0.1 -0.1)">
       <defs>
        <path id="DejaVuSans-36" d="M 2113 2584 
Q 1688 2584 1439 2293 
Q 1191 2003 1191 1497 
Q 1191 994 1439 701 
Q 1688 409 2113 409 
Q 2538 409 2786 701 
Q 3034 994 3034 1497 
Q 3034 2003 2786 2293 
Q 2538 2584 2113 2584 
z
M 3366 4563 
L 3366 3988 
Q 3128 4100 2886 4159 
Q 2644 4219 2406 4219 
Q 1781 4219 1451 3797 
Q 1122 3375 1075 2522 
Q 1259 2794 1537 2939 
Q 1816 3084 2150 3084 
Q 2853 3084 3261 2657 
Q 3669 2231 3669 1497 
Q 3669 778 3244 343 
Q 2819 -91 2113 -91 
Q 1303 -91 875 529 
Q 447 1150 447 2328 
Q 447 3434 972 4092 
Q 1497 4750 2381 4750 
Q 2619 4750 2861 4703 
Q 3103 4656 3366 4563 
z
" transform="scale(0.015625)"/>
       </defs>
       <use xlink:href="#DejaVuSans-32"/>
       <use xlink:href="#DejaVuSans-30" x="63.623047"/>
       <use xlink:href="#DejaVuSans-32" x="127.246094"/>
       <use xlink:href="#DejaVuSans-30" x="190.869141"/>
       <use xlink:href="#DejaVuSans-2d" x="254.492188"/>
       <use xlink:href="#DejaVuSans-30" x="290.576172"/>
       <use xlink:href="#DejaVuSans-36" x="354.199219"/>
       <use xlink:href="#DejaVuSans-2d" x="417.822266"/>
       <use xlink:href="#DejaVuSans-30" x="453.90625"/>
       <use xlink:href="#DejaVuSans-31" x="517.529297"/>
      </g>
     </g>
    </g>
    <g id="xtick_3">
     <g id="line2d_3">
      <g>
       <use xlink:href="#m551b92e99a" x="280.427924" y="320.4" style="stroke: #000000; stroke-width: 0.8"/>
      </g>
     </g>
     <g id="text_3">
      <!-- 2020-06-15 -->
      <g transform="translate(251.370111 334.998438) scale(0.1 -0.1)">
       <use xlink:href="#DejaVuSans-32"/>
       <use xlink:href="#DejaVuSans-30" x="63.623047"/>
       <use xlink:href="#DejaVuSans-32" x="127.246094"/>
       <use xlink:href="#DejaVuSans-30" x="190.869141"/>
       <use xlink:href="#DejaVuSans-2d" x="254.492188"/>
       <use xlink:href="#DejaVuSans-30" x="290.576172"/>
       <use xlink:href="#DejaVuSans-36" x="354.199219"/>
       <use xlink:href="#DejaVuSans-2d" x="417.822266"/>
       <use xlink:href="#DejaVuSans-31" x="453.90625"/>
       <use xlink:href="#DejaVuSans-35" x="517.529297"/>
      </g>
     </g>
    </g>
    <g id="xtick_4">
     <g id="line2d_4">
      <g>
       <use xlink:href="#m551b92e99a" x="358.133092" y="320.4" style="stroke: #000000; stroke-width: 0.8"/>
      </g>
     </g>
     <g id="text_4">
      <!-- 2020-07-01 -->
      <g transform="translate(329.075279 334.998438) scale(0.1 -0.1)">
       <defs>
        <path id="DejaVuSans-37" d="M 525 4666 
L 3525 4666 
L 3525 4397 
L 1831 0 
L 1172 0 
L 2766 4134 
L 525 4134 
L 525 4666 
z
" transform="scale(0.015625)"/>
       </defs>
       <use xlink:href="#DejaVuSans-32"/>
       <use xlink:href="#DejaVuSans-30" x="63.623047"/>
       <use xlink:href="#DejaVuSans-32" x="127.246094"/>
       <use xlink:href="#DejaVuSans-30" x="190.869141"/>
       <use xlink:href="#DejaVuSans-2d" x="254.492188"/>
       <use xlink:href="#DejaVuSans-30" x="290.576172"/>
       <use xlink:href="#DejaVuSans-37" x="354.199219"/>
       <use xlink:href="#DejaVuSans-2d" x="417.822266"/>
       <use xlink:href="#DejaVuSans-30" x="453.90625"/>
       <use xlink:href="#DejaVuSans-31" x="517.529297"/>
      </g>
     </g>
    </g>
    <g id="xtick_5">
     <g id="line2d_5">
      <g>
       <use xlink:href="#m551b92e99a" x="426.125113" y="320.4" style="stroke: #000000; stroke-width: 0.8"/>
      </g>
     </g>
     <g id="text_5">
      <!-- 2020-07-15 -->
      <g transform="translate(397.067301 334.998438) scale(0.1 -0.1)">
       <use xlink:href="#DejaVuSans-32"/>
       <use xlink:href="#DejaVuSans-30" x="63.623047"/>
       <use xlink:href="#DejaVuSans-32" x="127.246094"/>
       <use xlink:href="#DejaVuSans-30" x="190.869141"/>
       <use xlink:href="#DejaVuSans-2d" x="254.492188"/>
       <use xlink:href="#DejaVuSans-30" x="290.576172"/>
       <use xlink:href="#DejaVuSans-37" x="354.199219"/>
       <use xlink:href="#DejaVuSans-2d" x="417.822266"/>
       <use xlink:href="#DejaVuSans-31" x="453.90625"/>
       <use xlink:href="#DejaVuSans-35" x="517.529297"/>
      </g>
     </g>
    </g>
    <g id="xtick_6">
     <g id="line2d_6">
      <g>
       <use xlink:href="#m551b92e99a" x="508.686854" y="320.4" style="stroke: #000000; stroke-width: 0.8"/>
      </g>
     </g>
     <g id="text_6">
      <!-- 2020-08-01 -->
      <g transform="translate(479.629042 334.998438) scale(0.1 -0.1)">
       <defs>
        <path id="DejaVuSans-38" d="M 2034 2216 
Q 1584 2216 1326 1975 
Q 1069 1734 1069 1313 
Q 1069 891 1326 650 
Q 1584 409 2034 409 
Q 2484 409 2743 651 
Q 3003 894 3003 1313 
Q 3003 1734 2745 1975 
Q 2488 2216 2034 2216 
z
M 1403 2484 
Q 997 2584 770 2862 
Q 544 3141 544 3541 
Q 544 4100 942 4425 
Q 1341 4750 2034 4750 
Q 2731 4750 3128 4425 
Q 3525 4100 3525 3541 
Q 3525 3141 3298 2862 
Q 3072 2584 2669 2484 
Q 3125 2378 3379 2068 
Q 3634 1759 3634 1313 
Q 3634 634 3220 271 
Q 2806 -91 2034 -91 
Q 1263 -91 848 271 
Q 434 634 434 1313 
Q 434 1759 690 2068 
Q 947 2378 1403 2484 
z
M 1172 3481 
Q 1172 3119 1398 2916 
Q 1625 2713 2034 2713 
Q 2441 2713 2670 2916 
Q 2900 3119 2900 3481 
Q 2900 3844 2670 4047 
Q 2441 4250 2034 4250 
Q 1625 4250 1398 4047 
Q 1172 3844 1172 3481 
z
" transform="scale(0.015625)"/>
       </defs>
       <use xlink:href="#DejaVuSans-32"/>
       <use xlink:href="#DejaVuSans-30" x="63.623047"/>
       <use xlink:href="#DejaVuSans-32" x="127.246094"/>
       <use xlink:href="#DejaVuSans-30" x="190.869141"/>
       <use xlink:href="#DejaVuSans-2d" x="254.492188"/>
       <use xlink:href="#DejaVuSans-30" x="290.576172"/>
       <use xlink:href="#DejaVuSans-38" x="354.199219"/>
       <use xlink:href="#DejaVuSans-2d" x="417.822266"/>
       <use xlink:href="#DejaVuSans-30" x="453.90625"/>
       <use xlink:href="#DejaVuSans-31" x="517.529297"/>
      </g>
     </g>
    </g>
   </g>
   <g id="matplotlib.axis_2">
    <g id="ytick_1">
     <g id="line2d_7">
      <defs>
       <path id="m76554f9ec0" d="M 0 0 
L -3.5 0 
" style="stroke: #000000; stroke-width: 0.8"/>
      </defs>
      <g>
       <use xlink:href="#m76554f9ec0" x="72" y="315.757912" style="stroke: #000000; stroke-width: 0.8"/>
      </g>
     </g>
     <g id="text_7">
      <!-- −2 -->
      <g transform="translate(50.257812 319.557131) scale(0.1 -0.1)">
       <defs>
        <path id="DejaVuSans-2212" d="M 678 2272 
L 4684 2272 
L 4684 1741 
L 678 1741 
L 678 2272 
z
" transform="scale(0.015625)"/>
       </defs>
       <use xlink:href="#DejaVuSans-2212"/>
       <use xlink:href="#DejaVuSans-32" x="83.789062"/>
      </g>
     </g>
    </g>
    <g id="ytick_2">
     <g id="line2d_8">
      <g>
       <use xlink:href="#m76554f9ec0" x="72" y="263.739286" style="stroke: #000000; stroke-width: 0.8"/>
      </g>
     </g>
     <g id="text_8">
      <!-- −1 -->
      <g transform="translate(50.257812 267.538504) scale(0.1 -0.1)">
       <use xlink:href="#DejaVuSans-2212"/>
       <use xlink:href="#DejaVuSans-31" x="83.789062"/>
      </g>
     </g>
    </g>
    <g id="ytick_3">
     <g id="line2d_9">
      <g>
       <use xlink:href="#m76554f9ec0" x="72" y="211.720659" style="stroke: #000000; stroke-width: 0.8"/>
      </g>
     </g>
     <g id="text_9">
      <!-- 0 -->
      <g transform="translate(58.6375 215.519878) scale(0.1 -0.1)">
       <use xlink:href="#DejaVuSans-30"/>
      </g>
     </g>
    </g>
    <g id="ytick_4">
     <g id="line2d_10">
      <g>
       <use xlink:href="#m76554f9ec0" x="72" y="159.702032" style="stroke: #000000; stroke-width: 0.8"/>
      </g>
     </g>
     <g id="text_10">
      <!-- 1 -->
      <g transform="translate(58.6375 163.501251) scale(0.1 -0.1)">
       <use xlink:href="#DejaVuSans-31"/>
      </g>
     </g>
    </g>
    <g id="ytick_5">
     <g id="line2d_11">
      <g>
       <use xlink:href="#m76554f9ec0" x="72" y="107.683405" style="stroke: #000000; stroke-width: 0.8"/>
      </g>
     </g>
     <g id="text_11">
      <!-- 2 -->
      <g transform="translate(58.6375 111.482624) scale(0.1 -0.1)">
       <use xlink:href="#DejaVuSans-32"/>
      </g>
     </g>
    </g>
    <g id="ytick_6">
     <g id="line2d_12">
      <g>
       <use xlink:href="#m76554f9ec0" x="72" y="55.664779" style="stroke: #000000; stroke-width: 0.8"/>
      </g>
     </g>
     <g id="text_12">
      <!-- 3 -->
      <g transform="translate(58.6375 59.463997) scale(0.1 -0.1)">
       <defs>
        <path id="DejaVuSans-33" d="M 2597 2516 
Q 3050 2419 3304 2112 
Q 3559 1806 3559 1356 
Q 3559 666 3084 287 
Q 2609 -91 1734 -91 
Q 1441 -91 1130 -33 
Q 819 25 488 141 
L 488 750 
Q 750 597 1062 519 
Q 1375 441 1716 441 
Q 2309 441 2620 675 
Q 2931 909 2931 1356 
Q 2931 1769 2642 2001 
Q 2353 2234 1838 2234 
L 1294 2234 
L 1294 2753 
L 1863 2753 
Q 2328 2753 2575 2939 
Q 2822 3125 2822 3475 
Q 2822 3834 2567 4026 
Q 2313 4219 1838 4219 
Q 1578 4219 1281 4162 
Q 984 4106 628 3988 
L 628 4550 
Q 988 4650 1302 4700 
Q 1616 4750 1894 4750 
Q 2613 4750 3031 4423 
Q 3450 4097 3450 3541 
Q 3450 3153 3228 2886 
Q 3006 2619 2597 2516 
z
" transform="scale(0.015625)"/>
       </defs>
       <use xlink:href="#DejaVuSans-33"/>
      </g>
     </g>
    </g>
   </g>
   <g id="line2d_13">
    <path d="M 72 287.691609 
L 72.404714 298.715499 
L 72.607072 297.041501 
L 72.809429 286.670879 
L 73.214143 256.620573 
L 73.618858 244.535123 
L 75.035358 163.897414 
L 75.237715 161.018954 
L 75.440073 165.938875 
L 75.64243 173.920987 
L 75.844787 177.126081 
L 76.047144 191.947088 
L 76.654216 260.254373 
L 77.05893 283.649516 
L 77.261287 287.895755 
L 77.463645 287.528292 
L 77.666002 277.116841 
L 78.070716 249.414215 
L 78.475431 237.287937 
L 78.677788 228.407582 
L 79.487217 173.00233 
L 79.891931 157.181007 
L 80.094288 159.079566 
L 80.903717 200.317078 
L 81.713146 273.564699 
L 82.11786 287.814097 
L 82.320218 289.794314 
L 82.522575 289.508509 
L 82.724932 287.058756 
L 82.927289 280.424008 
L 83.332004 258.07001 
L 83.736718 244.147246 
L 83.939075 241.187127 
L 84.141432 241.452517 
L 84.546147 247.678973 
L 84.748504 249.720434 
L 84.950861 249.740849 
L 85.355576 253.823771 
L 85.557933 250.577848 
L 85.76029 256.538914 
L 86.569719 300.267009 
L 86.772076 306.187246 
L 86.974433 307.738756 
L 87.176791 307.8 
L 87.379148 306.493465 
L 87.581505 302.859664 
L 87.783862 296.28616 
L 88.188577 274.830405 
L 88.390934 269.787996 
L 89.200363 261.928371 
L 89.40272 257.906693 
L 89.807434 243.514393 
L 90.212149 241.125884 
L 90.414506 238.492399 
L 90.616863 246.229536 
L 91.223935 295.449161 
L 91.628649 306.187246 
L 91.831006 306.24849 
L 92.033364 303.819151 
L 92.842792 258.907009 
L 93.04515 256.824719 
L 93.449864 248.454729 
L 93.652221 247.944363 
L 93.854578 245.086318 
L 94.056936 244.47388 
L 94.259293 241.922053 
L 94.46165 235.695597 
L 94.664007 232.91921 
L 94.866364 233.817453 
L 95.068722 236.879645 
L 95.271079 233.143771 
L 95.473436 242.983613 
L 96.080508 295.816624 
L 96.485222 304.778638 
L 96.687579 306.636367 
L 96.889937 302.410543 
L 97.699365 258.192498 
L 98.306437 247.964778 
L 98.508794 247.597315 
L 99.52058 226.93773 
L 99.722937 228.162606 
L 99.925295 232.408845 
L 100.127652 230.632774 
L 100.330009 240.513445 
L 100.937081 293.4077 
L 101.341795 305.350247 
L 101.544152 306.309733 
L 101.74651 302.696347 
L 101.948867 291.06002 
L 102.353581 261.826298 
L 102.555938 260.315617 
L 103.567724 243.004028 
L 104.377153 221.487029 
L 104.57951 222.73232 
L 104.781868 227.978875 
L 104.984225 227.95846 
L 105.186582 236.614255 
L 105.793654 290.345508 
L 106.198368 302.757591 
L 106.400725 304.472419 
L 106.603083 300.552813 
L 107.412511 255.844817 
L 107.614869 254.170819 
L 107.817226 250.598263 
L 108.22194 236.450938 
L 108.626655 215.321816 
L 108.829012 209.544482 
L 109.031369 207.707167 
L 109.638441 216.158816 
L 109.840798 221.4462 
L 110.043155 231.571846 
L 110.650227 285.160197 
L 111.054941 299.042132 
L 111.257298 300.899862 
L 111.459655 299.205449 
L 111.662013 288.099901 
L 112.066727 259.62152 
L 112.471442 245.025074 
L 113.887942 178.432616 
L 114.090299 176.125765 
L 114.292656 182.760513 
L 114.495014 193.886476 
L 114.697371 198.357276 
L 115.102085 231.469773 
L 115.709157 279.525765 
L 116.113871 293.101481 
L 116.316228 293.264798 
L 116.518586 291.652043 
L 116.720943 288.120316 
L 117.125657 261.601737 
L 118.542158 159.712419 
L 118.744515 149.872577 
L 118.946872 146.095874 
L 119.149229 149.668431 
L 119.756301 186.537216 
L 120.56573 263.786101 
L 120.970444 283.077907 
L 121.172801 287.058756 
L 121.375159 288.651096 
L 121.577516 287.242488 
L 121.779873 279.525765 
L 122.589302 229.877433 
L 123.196374 205.094097 
L 123.398731 200.643712 
L 123.601088 200.847858 
L 123.803445 200.296663 
L 124.410517 213.341599 
L 124.612874 224.01844 
L 125.219946 278.811254 
L 125.62466 292.958578 
L 125.827017 294.897966 
L 126.029374 292.427799 
L 127.04116 237.532912 
L 127.648232 201.113248 
L 128.255304 159.855321 
L 128.457661 152.506061 
L 128.660018 152.179428 
L 129.26709 195.335913 
L 130.278876 283.772004 
L 130.481233 291.386654 
L 130.68359 292.734018 
L 130.885947 290.223021 
L 132.504805 184.189536 
L 133.111877 142.645805 
L 133.314234 133.479645 
L 133.516591 135.133228 
L 133.921306 150.097137 
L 134.123663 157.323909 
L 135.135449 264.296466 
L 135.540163 276.586061 
L 135.74252 275.667404 
L 135.944878 265.358026 
L 136.349592 234.77694 
L 136.551949 228.183021 
L 136.754306 216.628352 
L 136.956664 221.078737 
L 137.159021 210.075262 
L 137.766092 201.480711 
L 137.96845 201.868588 
L 138.373164 196.601619 
L 138.777879 203.950879 
L 138.980236 204.767463 
L 139.182593 216.260889 
L 139.789665 271.40075 
L 140.194379 286.364659 
L 140.396736 288.385706 
L 140.599093 285.446002 
L 141.003808 256.028549 
L 141.408522 235.409793 
L 142.015594 222.364857 
L 142.622665 213.464087 
L 142.825023 213.198697 
L 143.02738 212.01465 
L 143.229737 212.688332 
L 143.634451 217.832814 
L 143.836809 216.628352 
L 144.039166 226.549852 
L 144.646238 274.605844 
L 145.050952 286.385074 
L 145.253309 287.65078 
L 145.455666 284.588588 
L 145.860381 255.701915 
L 146.062738 239.676446 
L 146.66981 223.630563 
L 146.872167 221.017493 
L 147.074524 219.955933 
L 147.479238 209.13619 
L 147.681596 217.383692 
L 147.883953 218.343179 
L 148.08631 220.895005 
L 148.491024 229.979507 
L 148.693382 228.652557 
L 149.098096 251.700652 
L 149.502811 279.158302 
L 149.907525 291.958263 
L 150.109882 293.979309 
L 150.312239 293.4077 
L 150.514597 290.631313 
L 150.716954 285.017295 
L 151.121668 264.480197 
L 151.526383 244.310563 
L 151.931097 238.594472 
L 152.133454 238.165765 
L 152.335811 240.105153 
L 152.538169 240.615518 
L 152.740526 238.594472 
L 152.942883 238.880276 
L 153.14524 237.92079 
L 153.347597 237.961619 
L 153.549955 235.083159 
L 153.752312 237.247108 
L 154.764098 287.91617 
L 154.966455 291.81536 
L 155.168812 293.183139 
L 155.573527 289.304363 
L 155.775884 278.402962 
L 156.78767 201.664442 
L 157.799456 159.692004 
L 158.001813 161.672221 
L 158.406528 174.676328 
L 158.608885 188.027483 
L 159.215956 255.620257 
L 159.620671 276.89228 
L 159.823028 280.056545 
L 160.025385 279.158302 
L 160.227743 269.502192 
L 160.632457 237.532912 
L 161.8466 187.986654 
L 162.251315 178.085568 
L 162.453672 178.22847 
L 162.656029 181.045686 
L 163.465458 212.382113 
L 164.072529 271.339506 
L 164.477244 289.671826 
L 164.679601 289.99846 
L 164.881958 286.813781 
L 165.084316 276.810622 
L 165.48903 245.515025 
L 166.500816 210.95309 
L 167.310245 168.674433 
L 167.512602 171.981599 
L 167.917316 192.253307 
L 168.119674 196.642448 
L 168.322031 207.829655 
L 168.929102 266.358342 
L 169.333817 281.322251 
L 169.536174 284.792734 
L 169.738531 281.179348 
L 170.143246 254.293307 
L 170.54796 224.426733 
L 171.357389 180.514906 
L 171.559746 174.574255 
L 172.166818 150.72999 
L 172.369175 152.32233 
L 172.571532 160.120711 
L 173.178604 198.520592 
L 173.785675 268.563119 
L 174.19039 287.671194 
L 174.392747 290.610898 
L 174.595104 288.814413 
L 174.999819 264.970148 
L 175.404533 240.329714 
L 177.023391 163.223732 
L 177.225748 163.734097 
L 177.428105 167.592458 
L 177.630462 183.944561 
L 177.83282 186.353485 
L 178.237534 229.836604 
L 178.642248 272.135676 
L 179.046963 291.06002 
L 179.24932 294.73465 
L 179.451677 292.244067 
L 179.654034 283.669931 
L 180.261106 244.371807 
L 181.879964 148.749773 
L 182.082321 145.524265 
L 182.284678 151.117868 
L 183.094107 206.686436 
L 183.498821 245.167976 
L 183.903536 266.337927 
L 184.30825 274.075064 
L 184.510607 275.422428 
L 184.712965 271.829457 
L 184.915322 258.621204 
L 185.724751 177.677276 
L 186.129465 156.568569 
L 186.331822 150.587088 
L 186.53418 149.831747 
L 186.736537 152.342744 
L 187.748323 192.273722 
L 188.557752 255.661086 
L 188.962466 269.665508 
L 189.164823 271.686555 
L 189.36718 271.768213 
L 189.569538 271.033287 
L 189.771895 260.376861 
L 190.986038 165.550997 
L 191.188395 160.304442 
L 191.390752 160.263613 
L 191.795467 169.307285 
L 192.604896 200.255834 
L 193.414325 262.867443 
L 193.819039 276.422744 
L 194.021396 277.484304 
L 194.426111 273.564699 
L 194.628468 264.704758 
L 195.437897 204.461244 
L 195.640254 199.500494 
L 195.842611 200.704956 
L 196.247325 206.706851 
L 196.449683 207.27846 
L 196.65204 206.890583 
L 197.056754 215.015597 
L 197.259112 215.852596 
L 197.461469 224.181757 
L 198.06854 272.033603 
L 198.473255 286.078855 
L 198.675612 286.180928 
L 198.877969 282.567542 
L 199.282684 252.088529 
L 199.687398 229.489556 
L 201.306256 163.734097 
L 201.508613 162.590879 
L 202.115684 181.596881 
L 202.318042 192.641185 
L 202.925113 256.089793 
L 203.329828 273.564699 
L 203.532185 275.646989 
L 203.734542 272.686871 
L 203.936899 261.275104 
L 204.341614 227.611412 
L 205.758114 173.471866 
L 205.960471 171.001698 
L 206.162829 171.1446 
L 206.365186 172.553208 
L 206.7699 184.291609 
L 206.972257 187.455874 
L 207.174615 198.193959 
L 207.781686 256.681816 
L 208.186401 272.686871 
L 208.388758 275.708233 
L 208.591115 272.401066 
L 208.793472 260.642251 
L 209.198187 227.16229 
L 209.805258 205.094097 
L 210.209973 185.393998 
L 210.817044 144.095242 
L 211.019402 135.684423 
L 211.221759 138.624127 
L 211.626473 162.876683 
L 211.82883 168.04158 
L 212.031188 182.638026 
L 212.638259 247.08695 
L 213.042974 265.500928 
L 213.245331 269.461362 
L 213.447688 267.76695 
L 213.650045 257.151352 
L 214.257117 214.280671 
L 214.661831 188.170385 
L 215.47126 129.355894 
L 215.875975 112.77923 
L 216.078332 112.309694 
L 216.280689 117.801224 
L 217.090118 181.004857 
L 217.697189 242.371175 
L 218.101904 260.662665 
L 218.304261 263.990247 
L 218.506618 265.337611 
L 218.708976 264.09232 
L 218.911333 251.476091 
L 219.518404 197.173228 
L 220.125476 162.28466 
L 220.327833 160.141126 
L 220.53019 162.345903 
L 221.541976 204.277512 
L 221.744334 209.381165 
L 222.553762 265.766318 
L 222.958477 276.545232 
L 223.160834 278.239645 
L 223.363191 278.586693 
L 223.565549 277.035183 
L 223.767906 268.399803 
L 224.374977 230.530701 
L 224.779692 223.018124 
L 225.386763 225.059585 
L 225.589121 228.550484 
L 225.791478 229.428312 
L 226.196192 237.737058 
L 226.398549 237.39001 
L 226.600907 243.759368 
L 227.410335 296.898598 
L 227.612693 300.899862 
L 227.81505 302.57386 
L 228.017407 299.409595 
L 228.826836 257.192182 
L 229.029193 254.885331 
L 229.23155 249.189655 
L 230.648051 186.33307 
L 230.850408 186.904679 
L 231.255122 201.194906 
L 231.45748 211.994235 
L 232.064551 275.116209 
L 232.469266 292.141994 
L 232.671623 294.836723 
L 232.87398 293.632261 
L 233.278694 268.563119 
L 233.683409 246.229536 
L 235.302267 182.209319 
L 235.504624 181.617295 
L 236.111695 200.562053 
L 236.314053 210.830602 
L 236.921124 272.421481 
L 237.325839 288.161145 
L 237.528196 291.264166 
L 237.730553 289.161461 
L 238.135267 265.41927 
L 238.539982 243.820612 
L 239.349411 213.157868 
L 239.754125 203.236367 
L 240.15884 193.110721 
L 240.361197 192.865745 
L 240.563554 198.275617 
L 240.968268 215.730109 
L 241.170626 223.242685 
L 241.777697 278.300888 
L 242.182412 294.020138 
L 242.384769 296.490306 
L 242.587126 293.530188 
L 242.99184 269.032656 
L 243.396555 251.231116 
L 245.21777 177.228154 
L 245.420127 181.433564 
L 246.027199 207.992971 
L 246.836627 280.8323 
L 247.038985 289.120632 
L 247.241342 292.264482 
L 247.443699 289.753485 
L 247.848413 266.399171 
L 249.467271 155.384521 
L 249.669628 147.381994 
L 249.871985 145.463021 
L 250.074343 145.626338 
L 250.2767 152.506061 
L 250.883772 184.332438 
L 251.6932 258.641619 
L 252.097915 273.033919 
L 252.300272 276.075696 
L 252.502629 276.341086 
L 252.704986 272.503139 
L 253.109701 240.043909 
L 253.91913 167.490385 
L 254.323844 151.832379 
L 254.728558 143.094926 
L 254.930916 141.849635 
L 255.133273 149.280553 
L 255.740345 186.414729 
L 256.549773 260.94847 
L 256.954488 276.279842 
L 257.156845 280.056545 
L 257.359202 281.710128 
L 257.561559 280.750642 
L 257.966274 252.129358 
L 258.573345 202.195222 
L 258.97806 180.719052 
L 259.382774 169.797236 
L 259.585131 166.387996 
L 259.787489 165.959289 
L 259.989846 168.551945 
L 260.39456 184.393682 
L 260.596917 197.62235 
L 261.203989 259.049911 
L 261.608704 277.586377 
L 261.811061 280.485252 
L 262.013418 279.709497 
L 262.418132 255.967305 
L 262.62049 244.065587 
L 263.025204 234.491135 
L 263.227561 231.714748 
L 263.429918 230.714432 
L 263.834633 231.980138 
L 264.03699 231.673919 
L 264.239347 232.612991 
L 264.441704 232.69465 
L 264.644062 232.42926 
L 264.846419 234.450306 
L 265.048776 238.45157 
L 265.251133 238.45157 
L 265.45349 242.432419 
L 266.060562 284.50693 
L 266.465277 297.225232 
L 266.667634 298.756328 
L 266.869991 294.612162 
L 267.072348 286.732122 
L 267.477063 260.478934 
L 268.084134 238.512814 
L 268.488849 228.325923 
L 269.09592 217.179546 
L 269.500635 213.259941 
L 269.702992 215.42389 
L 269.905349 218.996446 
L 270.107706 219.670128 
L 270.310063 225.916999 
L 270.917135 274.32004 
L 271.32185 286.180928 
L 271.524207 288.304047 
L 271.726564 286.609635 
L 274.15485 146.340849 
L 274.357208 139.236565 
L 274.559565 142.543732 
L 275.166636 167.469971 
L 275.976065 248.291412 
L 276.38078 260.744324 
L 276.583137 260.050227 
L 276.987851 238.41074 
L 277.392566 209.769043 
L 278.404352 153.34306 
L 278.606709 150.321698 
L 279.011423 137.215518 
L 279.213781 135.623179 
L 279.416138 139.849003 
L 280.023209 181.188588 
L 280.630281 251.884383 
L 281.034995 274.462942 
L 281.237353 279.301204 
L 281.43971 277.770109 
L 281.642067 271.93153 
L 282.249139 230.551116 
L 282.85621 197.214057 
L 283.867996 154.812912 
L 284.070354 153.628865 
L 284.272711 161.713051 
L 285.284497 244.045173 
L 285.689211 275.932794 
L 286.093926 290.549655 
L 286.296283 292.815676 
L 286.49864 291.019191 
L 286.700997 288.099901 
L 287.105712 257.355499 
L 287.712783 206.25773 
L 288.522212 163.203317 
L 288.724569 156.139862 
L 288.926927 154.220889 
L 289.129284 157.773031 
L 289.736355 191.29382 
L 290.545784 260.764738 
L 290.950499 275.912379 
L 291.152856 278.668351 
L 291.355213 278.75001 
L 291.55757 277.280158 
L 291.759927 264.908904 
L 292.771714 167.082093 
L 293.176428 145.279289 
L 293.581142 134.132912 
L 293.7835 132.418085 
L 293.985857 135.908983 
L 294.592928 161.2231 
L 295.402357 243.800198 
L 295.807072 258.376229 
L 296.009429 258.212912 
L 296.414143 238.084107 
L 297.830644 104.082606 
L 298.235358 90.874354 
L 298.437715 88.302113 
L 298.640073 88.567503 
L 298.84243 90.608964 
L 299.044787 98.591076 
L 299.449501 125.375045 
L 300.056573 203.828391 
L 300.461287 228.897532 
L 300.663645 234.879013 
L 300.866002 235.593524 
L 301.068359 228.815874 
L 301.473073 198.969714 
L 302.484859 94.385667 
L 302.687217 83.137216 
L 302.889574 83.239289 
L 303.091931 91.282646 
L 303.496646 99.877197 
L 303.90136 121.986219 
L 304.306074 149.750089 
L 304.913146 218.52691 
L 305.31786 243.718539 
L 305.520218 249.250898 
L 305.722575 247.474827 
L 305.924932 240.390958 
L 306.532004 200.684541 
L 307.54379 131.11155 
L 307.746147 120.965489 
L 307.948504 120.087661 
L 308.757933 152.159013 
L 309.162647 178.065153 
L 309.769719 240.676762 
L 310.174433 260.438105 
L 310.376791 264.806831 
L 310.579148 264.235222 
L 310.983862 240.962567 
L 312.198005 137.562567 
L 312.60272 126.007898 
L 312.805077 121.659586 
L 313.007434 122.21078 
L 313.209791 125.88541 
L 313.816863 153.302231 
L 314.01922 166.898361 
L 314.626292 229.101678 
L 315.031006 249.475459 
L 315.233364 254.027917 
L 315.435721 253.37465 
L 315.840435 234.715696 
L 316.24515 216.117986 
L 316.649864 204.175439 
L 317.054578 188.966555 
L 317.66165 181.494808 
L 317.864007 181.045686 
L 318.066364 180.147443 
L 318.268722 184.801974 
L 318.875793 206.808924 
L 319.685222 265.051807 
L 320.089937 277.749694 
L 320.292294 279.382863 
L 320.697008 271.502823 
L 321.101723 245.433366 
L 322.315866 167.980336 
L 322.72058 157.793445 
L 322.922937 155.486594 
L 323.125295 159.589931 
L 323.732366 187.047582 
L 324.541795 255.171135 
L 324.94651 269.379704 
L 325.148867 272.258164 
L 325.351224 272.319408 
L 325.553581 270.073801 
L 325.755938 257.825035 
L 326.970082 146.095874 
L 327.172439 139.808174 
L 327.374796 138.236249 
L 327.77951 132.70389 
L 327.981868 137.66464 
L 328.184225 146.402093 
L 328.791296 197.744837 
L 329.196011 241.207542 
L 329.398368 256.355183 
L 329.803083 266.399171 
L 330.00544 265.460099 
L 330.207797 259.88691 
L 330.814869 211.667601 
L 331.42194 173.676012 
L 331.826655 151.138283 
L 332.029012 148.259822 
L 332.231369 148.280237 
L 332.433726 148.463969 
L 332.636083 150.546259 
L 332.838441 155.057888 
L 333.243155 177.840592 
L 333.445512 186.802606 
L 334.052584 252.129358 
L 334.457298 273.78926 
L 334.659655 279.178717 
L 334.862013 276.790207 
L 335.266727 257.069694 
L 335.671442 232.857967 
L 336.48087 192.988233 
L 336.683228 187.945824 
L 336.885585 186.843435 
L 337.087942 180.698638 
L 337.290299 178.861323 
L 337.695014 185.291925 
L 338.099728 199.663811 
L 338.302085 205.502389 
L 339.111514 270.931214 
L 339.313871 277.096426 
L 339.516228 279.321619 
L 339.718586 275.279526 
L 340.1233 252.068115 
L 340.932729 207.870484 
L 342.349229 146.483751 
L 342.551587 146.402093 
L 343.158658 170.940454 
L 343.76573 233.327503 
L 344.170444 251.231116 
L 344.372801 255.967305 
L 344.575159 253.844186 
L 344.777516 246.964462 
L 345.18223 216.260889 
L 346.194016 134.112498 
L 346.598731 119.434393 
L 347.003445 112.860889 
L 347.205802 112.02389 
L 347.40816 115.188154 
L 347.610517 122.986535 
L 348.015231 148.933505 
L 348.82466 239.513129 
L 349.229374 256.5185 
L 349.431732 255.763159 
L 349.634089 250.006239 
L 349.836446 238.94152 
L 351.050589 135.133228 
L 351.455304 116.882567 
L 351.860018 108.08387 
L 352.062375 107.185627 
L 352.264733 110.799013 
L 352.46709 121.822902 
L 353.276519 204.420415 
L 353.681233 242.126199 
L 354.085947 262.193761 
L 354.288305 267.440316 
L 354.490662 268.011925 
L 354.693019 265.786733 
L 355.097733 223.998026 
L 355.704805 150.607503 
L 356.109519 126.048727 
L 356.716591 107.961382 
L 356.918948 106.879408 
L 357.121306 111.656427 
L 357.52602 137.13386 
L 357.728377 149.750089 
L 358.740163 244.678026 
L 359.144878 257.580059 
L 359.347235 259.437789 
L 359.549592 259.111155 
L 359.751949 245.188391 
L 360.763735 125.252557 
L 361.16845 106.287384 
L 361.573164 95.24308 
L 361.775521 92.956644 
L 361.977879 96.222981 
L 362.180236 103.184364 
L 362.58495 128.825114 
L 363.394379 217.077473 
L 363.799093 234.634038 
L 364.001451 235.450622 
L 364.203808 229.591629 
L 364.406165 219.58847 
L 365.013237 150.382942 
L 365.620308 86.158579 
L 366.025023 70.071866 
L 366.429737 63.927068 
L 366.632094 64.417019 
L 366.834451 67.050504 
L 367.036809 75.726713 
L 367.441523 104.776703 
L 368.048595 184.026219 
L 368.453309 214.403159 
L 368.655666 222.895637 
L 368.858024 225.263732 
L 369.060381 221.384956 
L 369.262738 211.565528 
L 369.86981 148.321066 
L 370.476881 90.404818 
L 370.881596 73.848569 
L 371.083953 73.399447 
L 371.28631 74.113959 
L 371.488667 78.033564 
L 371.691024 84.239605 
L 372.298096 123.068194 
L 373.107525 207.747996 
L 373.512239 229.897848 
L 373.714597 234.24616 
L 374.119311 233.552063 
L 374.321668 220.854176 
L 375.333454 117.392932 
L 375.738169 104.184679 
L 375.940526 101.489951 
L 376.142883 100.387562 
L 376.34524 105.552458 
L 376.749955 131.703574 
L 377.559383 190.415992 
L 377.964098 224.957512 
L 378.368812 238.71696 
L 378.57117 238.94152 
L 378.773527 233.021283 
L 378.975884 221.834077 
L 380.392384 105.532044 
L 380.797099 95.630958 
L 381.201813 88.057137 
L 381.40417 91.813426 
L 382.011242 128.743455 
L 382.820671 211.402211 
L 383.225385 227.468509 
L 383.427743 228.121777 
L 383.6301 222.793564 
L 384.034814 200.602883 
L 385.0466 127.334847 
L 385.451315 110.676525 
L 385.653672 110.206989 
L 385.856029 113.983692 
L 386.058386 121.598342 
L 387.070172 191.436723 
L 387.474887 231.469773 
L 387.879601 253.313406 
L 388.284316 262.438736 
L 388.68903 264.949734 
L 388.891387 259.213228 
L 389.700816 215.750523 
L 390.307888 204.563317 
L 390.914959 191.845015 
L 391.117316 196.622034 
L 391.926745 236.124304 
L 392.533817 280.240276 
L 392.938531 292.591116 
L 393.140888 294.448845 
L 393.343246 293.999724 
L 393.545603 294.46926 
L 393.74796 285.52766 
L 394.355032 244.43305 
L 395.569175 188.047897 
L 395.771532 182.046002 
L 395.973889 183.250464 
L 396.176247 191.55921 
L 396.783318 233.531649 
L 397.188033 271.992774 
L 397.592747 289.794314 
L 397.795104 292.570701 
L 397.997461 290.039289 
L 398.402176 271.93153 
L 400.628105 144.503534 
L 400.830462 147.341165 
L 401.03282 157.28308 
L 401.639891 214.239842 
L 402.044606 258.519131 
L 402.44932 278.811254 
L 402.651677 282.812517 
L 402.854034 281.158934 
L 403.258749 262.989931 
L 403.663463 234.613623 
L 404.877607 128.723041 
L 405.282321 108.226772 
L 405.484678 104.021363 
L 405.687035 105.103337 
L 405.889393 115.596446 
L 406.294107 152.914354 
L 406.901179 230.224482 
L 407.305893 254.252478 
L 407.50825 259.846081 
L 407.710607 259.315301 
L 408.115322 238.104521 
L 409.73418 106.00158 
L 409.936537 101.081659 
L 410.138894 100.938756 
L 410.341251 105.532044 
L 410.948323 141.584245 
L 411.15068 157.466812 
L 411.757752 227.95846 
L 412.162466 251.986456 
L 412.364823 258.457888 
L 412.56718 260.233959 
L 412.971895 242.207858 
L 414.388395 144.258559 
L 414.79311 130.744087 
L 415.197824 124.088924 
L 415.400181 130.84616 
L 416.20961 193.294452 
L 416.614325 238.45157 
L 417.019039 261.47925 
L 417.221396 265.725489 
L 417.423753 265.174294 
L 417.828468 249.046752 
L 419.244968 151.485331 
L 419.649683 137.909615 
L 419.85204 134.092083 
L 420.054397 135.521106 
L 420.256754 144.156486 
L 421.066183 209.258677 
L 421.673255 264.173978 
L 422.077969 280.199447 
L 422.280326 282.669615 
L 422.482684 282.016348 
L 422.685041 281.853031 
L 423.089755 251.210701 
L 423.899184 182.413465 
L 424.708613 143.258243 
L 424.91097 140.093978 
L 425.113327 144.074827 
L 425.518042 170.083041 
L 425.720399 181.821441 
L 426.529828 256.069378 
L 426.934542 274.5446 
L 427.136899 278.994985 
L 427.339257 279.791155 
L 427.541614 280.015716 
L 427.743971 271.461994 
L 428.148685 231.326871 
L 428.755757 169.776821 
L 429.160471 144.278974 
L 429.565186 136.0723 
L 429.9699 139.971491 
L 430.374615 156.099033 
L 430.576972 167.674117 
L 431.386401 243.228588 
L 431.791115 255.395696 
L 431.993472 253.37465 
L 432.398187 233.1846 
L 433.207616 168.470286 
L 434.017044 98.509418 
L 434.219402 93.650741 
L 435.02883 120.904245 
L 435.433545 145.748825 
L 436.040617 216.526278 
L 436.445331 238.921106 
L 436.647688 244.024758 
L 436.850045 243.351076 
L 437.25476 222.875222 
L 437.659474 188.170385 
L 438.468903 115.147325 
L 438.67126 105.4708 
L 438.873617 106.430287 
L 439.075975 113.493742 
L 439.278332 113.04462 
L 439.480689 115.269813 
L 439.885403 133.704206 
L 440.290118 158.303811 
L 440.897189 231.265627 
L 441.301904 253.435893 
L 441.504261 258.82535 
L 441.706618 259.35613 
L 442.111333 244.718855 
L 442.920762 193.029062 
L 443.527833 158.385469 
L 444.134905 135.786496 
L 444.337262 133.214255 
L 444.539619 139.583613 
L 445.146691 184.352853 
L 445.753762 253.088845 
L 446.158477 274.156723 
L 446.360834 279.076644 
L 446.563191 277.096426 
L 446.967906 258.314985 
L 448.586763 149.239724 
L 448.991478 136.133544 
L 449.193835 133.826693 
L 449.396192 140.441027 
L 450.003264 180.555736 
L 450.812693 260.070642 
L 451.217407 273.278894 
L 451.419764 273.401382 
L 451.824479 256.334768 
L 452.43155 206.25773 
L 453.038622 164.63234 
L 453.443336 147.708628 
L 453.848051 139.889832 
L 454.050408 143.237828 
L 454.252765 153.159329 
L 454.65748 181.37232 
L 454.859837 189.762725 
L 455.669266 254.048332 
L 456.07398 267.50156 
L 456.276337 269.012241 
L 456.478694 267.032024 
L 456.681052 263.949418 
L 456.883409 256.008134 
L 457.288123 229.183337 
L 457.692838 218.30235 
L 457.895195 218.996446 
L 458.299909 224.712537 
L 458.502267 224.569635 
L 458.906981 220.772517 
L 459.109338 221.303297 
L 459.514053 225.427048 
L 459.71641 229.693702 
L 460.728196 286.997512 
L 461.13291 291.386654 
L 461.537625 288.099901 
L 461.739982 279.239961 
L 462.144696 244.984245 
L 463.561197 176.309497 
L 463.763554 169.103139 
L 463.965911 170.266772 
L 464.572983 189.599408 
L 465.382412 256.089793 
L 465.584769 262.949102 
L 465.787126 265.64383 
L 465.989483 263.234906 
L 467.608341 171.369161 
L 468.620127 150.342113 
L 468.822484 153.445133 
L 469.429556 179.494176 
L 470.036627 235.79767 
L 470.441342 253.456308 
L 470.643699 256.069378 
L 470.846056 253.517552 
L 471.857842 202.970977 
L 472.869628 172.941086 
L 473.071985 173.431037 
L 473.274343 171.654966 
L 473.4767 172.900257 
L 473.679057 176.656545 
L 473.881414 183.18922 
L 474.083772 184.332438 
L 474.286129 191.947088 
L 474.8932 243.67771 
L 475.297915 259.805252 
L 475.500272 261.458835 
L 475.702629 259.437789 
L 476.107344 235.246476 
L 476.512058 213.402843 
L 477.321487 182.148075 
L 477.726201 162.141757 
L 477.928558 158.61003 
L 478.333273 163.264561 
L 478.53563 167.694531 
L 479.142702 192.437039 
L 479.952131 259.703179 
L 480.356845 269.481777 
L 480.559202 269.073485 
L 480.963917 247.148194 
L 482.785131 119.720198 
L 482.987489 113.861205 
L 483.189846 111.248134 
L 483.392203 116.841738 
L 483.999275 156.405252 
L 484.606346 226.978559 
L 485.011061 250.026654 
L 485.213418 254.39538 
L 485.415775 255.334452 
L 485.82049 235.716012 
L 486.225204 204.747048 
L 487.23699 115.453544 
L 487.439347 112.391353 
L 487.844062 118.903613 
L 488.248776 137.378835 
L 489.260562 214.321501 
L 489.665277 246.229536 
L 490.069991 261.21386 
L 490.272348 263.541125 
L 490.474705 262.418322 
L 490.677063 260.662665 
L 490.87942 251.006555 
L 491.891206 171.899941 
L 492.29592 154.322962 
L 492.498277 146.994117 
L 492.700635 144.993485 
L 492.902992 146.606239 
L 493.105349 151.383258 
L 493.712421 184.638658 
L 494.52185 256.069378 
L 495.128921 274.197552 
L 495.331278 274.340454 
L 495.533636 273.728016 
L 495.735993 266.235854 
L 496.950136 175.452083 
L 497.557208 151.281185 
L 497.759565 147.953603 
L 497.961922 151.138283 
L 498.568994 182.39305 
L 499.378422 255.620257 
L 499.58078 262.397907 
L 499.783137 264.868075 
L 499.985494 261.581323 
L 500.187851 253.129674 
L 500.794923 216.505864 
L 500.99728 211.443041 
L 501.401995 198.459349 
L 501.806709 187.292557 
L 502.009066 186.843435 
L 502.211423 188.884896 
L 502.413781 189.517749 
L 502.616138 187.864166 
L 503.020852 197.499862 
L 503.223209 198.051056 
L 503.425567 205.502389 
L 504.032638 255.783574 
L 504.437353 268.746851 
L 504.63971 270.359605 
L 504.842067 268.011925 
L 505.246782 243.841027 
L 505.651496 220.221323 
L 507.270354 147.667799 
L 507.472711 144.585193 
L 507.675068 147.953603 
L 508.28214 175.758302 
L 508.889211 233.307088 
L 509.293926 250.292044 
L 509.496283 253.782942 
L 509.69864 251.966042 
L 510.103354 228.611728 
L 511.722212 123.109023 
L 512.126927 105.491214 
L 512.329284 107.063139 
L 512.936355 141.155538 
L 513.34107 179.77998 
L 513.745784 222.895637 
L 514.150499 245.433366 
L 514.352856 250.965726 
L 514.555213 251.455676 
L 514.75757 242.636565 
L 516.174071 146.667483 
L 516.376428 145.585509 
L 516.781142 154.833327 
L 516.9835 152.118184 
L 517.185857 152.648964 
L 517.590571 170.205528 
L 517.792928 174.410938 
L 517.995286 185.026535 
L 518.4 224.365489 
L 518.4 224.365489 
" clip-path="url(#p40f51d9d79)" style="fill: none; stroke: #1f77b4; stroke-width: 1.5; stroke-linecap: square"/>
   </g>
   <g id="line2d_14">
    <path d="M 72 278.283844 
L 72.202357 278.283844 
L 72.607072 286.282226 
L 72.809429 285.027011 
L 73.011786 277.629758 
L 73.4165 254.720323 
L 73.821215 242.4676 
L 74.428286 206.945246 
L 74.833001 176.281399 
L 75.237715 161.606351 
L 75.440073 163.251838 
L 75.844787 182.467409 
L 76.047144 191.652595 
L 76.249501 206.179028 
L 76.654216 252.535054 
L 77.05893 273.271399 
L 77.261287 280.40792 
L 77.463645 280.783744 
L 77.666002 274.176754 
L 78.475431 232.507719 
L 78.880145 217.400265 
L 79.689574 167.464415 
L 79.891931 161.685992 
L 80.094288 159.633101 
L 80.296646 164.52526 
L 80.903717 201.040338 
L 81.510789 261.031977 
L 81.915503 283.006641 
L 82.11786 285.642396 
L 82.320218 284.209879 
L 83.129646 266.925264 
L 83.534361 245.362287 
L 84.141432 233.452792 
L 84.34379 234.021418 
L 84.748504 241.878622 
L 84.950861 245.612077 
L 85.153218 247.161066 
L 85.76029 257.224267 
L 85.962647 264.172811 
L 86.367362 285.597661 
L 86.772076 295.701776 
L 86.974433 297.754155 
L 87.176791 295.714551 
L 87.783862 282.136763 
L 87.986219 276.045028 
L 88.390934 257.242579 
L 88.593291 255.497861 
L 88.795648 256.877703 
L 88.998005 256.726238 
L 89.200363 257.974892 
L 89.40272 257.510962 
L 89.605077 254.694948 
L 90.212149 239.468911 
L 90.616863 243.768461 
L 90.81922 252.811022 
L 91.223935 288.409744 
L 91.426292 297.605478 
L 91.628649 301.64546 
L 91.831006 303.248284 
L 92.033364 300.798711 
L 92.235721 292.945076 
L 92.842792 251.261872 
L 93.449864 246.984198 
L 93.652221 246.857274 
L 93.854578 248.197686 
L 94.056936 246.216741 
L 94.664007 231.513104 
L 94.866364 230.005723 
L 95.068722 232.462135 
L 95.675793 253.820853 
L 96.080508 288.662501 
L 96.282865 297.886673 
L 96.485222 300.807331 
L 96.687579 299.129263 
L 96.889937 293.306842 
L 97.294651 268.841101 
L 97.699365 247.861317 
L 97.901723 247.816241 
L 98.508794 244.343905 
L 98.711151 245.046797 
L 99.318223 230.297454 
L 99.722937 225.971313 
L 99.925295 226.561061 
L 100.532366 253.687731 
L 100.937081 287.593461 
L 101.341795 299.047904 
L 101.544152 299.441333 
L 101.74651 293.453938 
L 102.151224 271.249572 
L 102.555938 248.514194 
L 102.758296 249.213787 
L 103.16301 245.643836 
L 103.365367 246.912911 
L 103.567724 245.352642 
L 103.770082 238.805206 
L 103.972439 228.25028 
L 104.377153 221.430062 
L 104.57951 220.489798 
L 104.781868 221.497605 
L 105.388939 250.954492 
L 105.793654 284.763141 
L 106.198368 296.93925 
L 106.400725 297.246 
L 106.603083 291.835444 
L 107.007797 269.972933 
L 107.412511 246.929468 
L 107.614869 246.01079 
L 107.817226 245.916604 
L 108.22194 241.172645 
L 108.424297 232.681851 
L 108.829012 206.386903 
L 109.031369 200.554709 
L 109.233726 202.760623 
L 109.840798 221.19876 
L 110.852584 288.783403 
L 111.054941 293.505569 
L 111.257298 293.860743 
L 111.662013 280.604793 
L 112.269084 246.42347 
L 112.471442 242.836637 
L 112.673799 237.11015 
L 113.28087 204.939294 
L 113.887942 179.852906 
L 114.090299 177.406893 
L 114.292656 179.561826 
L 114.495014 188.461383 
L 115.911514 282.816844 
L 116.113871 284.45876 
L 116.316228 283.782858 
L 116.9233 271.52678 
L 117.530372 236.415329 
L 118.339801 175.311931 
L 118.744515 156.3731 
L 118.946872 152.44103 
L 119.149229 152.608714 
L 119.351587 158.978785 
L 119.958658 207.024812 
L 120.363373 251.08536 
L 120.768087 274.55481 
L 120.970444 281.412046 
L 121.172801 283.761155 
L 121.375159 282.871705 
L 121.577516 280.115278 
L 121.779873 275.787838 
L 121.98223 266.537496 
L 122.589302 226.585276 
L 123.398731 197.468036 
L 123.601088 196.008002 
L 124.005802 205.297606 
L 124.815231 239.443818 
L 125.422303 287.522428 
L 125.62466 292.863271 
L 125.827017 294.895775 
L 126.029374 292.839806 
L 126.231732 285.905713 
L 127.04116 234.852015 
L 127.445875 219.182565 
L 128.457661 155.073932 
L 128.660018 151.951167 
L 128.862375 157.29663 
L 129.26709 194.061606 
L 130.076519 277.68602 
L 130.278876 287.373316 
L 130.481233 290.948537 
L 130.68359 290.952674 
L 130.885947 285.47935 
L 131.290662 263.351518 
L 131.695376 235.642182 
L 132.100091 213.398698 
L 132.504805 187.3008 
L 133.111877 149.99302 
L 133.314234 144.353675 
L 133.516591 142.597249 
L 133.718948 147.404084 
L 134.32602 182.970275 
L 135.135449 268.434681 
L 135.337806 274.812044 
L 135.540163 277.257431 
L 135.74252 274.163012 
L 135.944878 266.621062 
L 136.956664 203.936886 
L 137.159021 203.852924 
L 137.563735 194.01147 
L 137.766092 195.713136 
L 137.96845 194.662201 
L 138.373164 205.126203 
L 138.575521 206.989311 
L 138.980236 218.430766 
L 139.182593 225.404563 
L 139.587307 254.916756 
L 139.992022 279.967902 
L 140.194379 284.846503 
L 140.396736 286.957129 
L 140.801451 274.528468 
L 141.408522 233.150798 
L 141.813237 225.633215 
L 142.015594 219.065351 
L 142.420308 215.289649 
L 142.825023 208.866888 
L 143.432094 216.611635 
L 143.634451 218.180162 
L 144.039166 229.792653 
L 144.848595 284.365167 
L 145.050952 288.316206 
L 145.253309 289.30354 
L 145.658024 275.048282 
L 146.467452 224.690745 
L 147.074524 214.354654 
L 147.276881 215.031122 
L 147.681596 203.902108 
L 148.08631 221.232623 
L 148.288667 223.821677 
L 148.491024 228.445888 
L 149.907525 289.917455 
L 150.109882 290.631754 
L 150.514597 279.537236 
L 151.931097 236.749023 
L 152.133454 235.251283 
L 152.538169 236.767611 
L 152.740526 240.199518 
L 152.942883 240.716163 
L 153.347597 240.260069 
L 153.549955 243.414062 
L 153.752312 244.062986 
L 153.954669 247.874292 
L 154.561741 278.333056 
L 154.966455 287.340295 
L 155.168812 287.473582 
L 155.37117 286.37425 
L 155.775884 276.190283 
L 156.180598 251.250874 
L 157.394742 176.166105 
L 157.799456 165.701987 
L 158.001813 163.589991 
L 158.20417 168.034954 
L 158.608885 189.357821 
L 158.811242 205.448746 
L 159.215956 251.907738 
L 159.620671 275.652703 
L 159.823028 281.589609 
L 160.025385 281.509565 
L 160.227743 276.551572 
L 160.632457 244.859716 
L 161.037171 219.822385 
L 161.8466 184.189164 
L 162.251315 175.648855 
L 162.453672 174.421248 
L 162.656029 178.899858 
L 163.060743 197.492366 
L 163.667815 234.057071 
L 164.274887 283.945885 
L 164.679601 292.220464 
L 164.881958 285.976083 
L 165.286673 261.564633 
L 165.691387 231.497435 
L 166.096102 224.027023 
L 166.298459 220.720276 
L 166.500816 214.124745 
L 167.310245 166.643861 
L 167.512602 166.601954 
L 167.714959 173.239937 
L 168.524388 230.192912 
L 168.929102 268.164982 
L 169.333817 283.016532 
L 169.536174 284.803684 
L 169.738531 281.84298 
L 170.143246 259.797328 
L 171.155032 189.158257 
L 171.559746 167.199721 
L 172.166818 153.857604 
L 172.369175 154.870951 
L 172.571532 159.722325 
L 172.773889 170.01816 
L 173.380961 223.934208 
L 173.785675 269.23621 
L 174.19039 287.663484 
L 174.392747 289.672009 
L 174.595104 285.656168 
L 174.797461 277.556659 
L 175.809248 218.755888 
L 176.416319 188.134585 
L 177.023391 169.851673 
L 177.225748 168.06129 
L 177.428105 171.508062 
L 177.630462 179.239635 
L 178.237534 228.746142 
L 178.642248 273.746155 
L 178.844606 286.061603 
L 179.24932 294.583959 
L 179.451677 291.2141 
L 179.856392 269.614695 
L 181.475249 168.665237 
L 181.879964 152.794902 
L 182.082321 150.808323 
L 182.284678 154.44948 
L 182.487035 162.045811 
L 183.094107 214.872549 
L 183.498821 253.71598 
L 183.903536 269.170392 
L 184.105893 272.148168 
L 184.30825 270.199695 
L 184.915322 259.679488 
L 185.320036 226.011057 
L 186.129465 147.620044 
L 186.53418 140.358142 
L 186.736537 143.645304 
L 187.343608 176.890778 
L 188.760109 264.199891 
L 189.164823 271.996222 
L 189.36718 269.757357 
L 189.771895 256.721342 
L 190.378966 212.82065 
L 190.986038 158.912303 
L 191.188395 151.438318 
L 191.390752 148.513362 
L 191.59311 150.652117 
L 191.997824 170.637452 
L 193.00961 233.708733 
L 193.414325 264.411901 
L 193.819039 278.563619 
L 194.021396 280.1338 
L 194.223753 277.160514 
L 194.830825 251.686272 
L 195.437897 206.193525 
L 195.842611 186.207514 
L 196.044968 188.857785 
L 197.259112 222.19353 
L 197.663826 236.302906 
L 198.270898 282.743436 
L 198.675612 290.277845 
L 198.877969 287.984156 
L 199.080326 280.441456 
L 200.092112 211.157793 
L 200.496827 196.919704 
L 201.103898 170.372063 
L 201.306256 163.667195 
L 201.508613 162.121259 
L 201.71097 165.872747 
L 202.115684 189.589441 
L 202.520399 215.840389 
L 203.127471 269.193683 
L 203.329828 276.636285 
L 203.532185 279.544789 
L 203.734542 275.673936 
L 203.936899 265.845894 
L 204.746328 209.101303 
L 205.151043 195.244842 
L 205.555757 177.932467 
L 205.960471 166.781686 
L 206.162829 167.362004 
L 206.567543 178.845778 
L 207.174615 206.382933 
L 207.376972 219.343872 
L 207.781686 255.922357 
L 208.186401 272.48482 
L 208.388758 274.480081 
L 208.591115 271.638475 
L 208.793472 261.896529 
L 209.602901 206.285403 
L 210.209973 180.917176 
L 211.221759 132.992769 
L 211.424116 138.210303 
L 212.233545 200.924991 
L 212.638259 248.916034 
L 213.042974 265.151178 
L 213.245331 267.819878 
L 213.447688 265.874295 
L 213.650045 258.382394 
L 215.673617 118.452397 
L 215.875975 113.552769 
L 216.078332 113.444386 
L 216.280689 117.836999 
L 216.483046 126.611263 
L 217.090118 177.002141 
L 217.697189 244.63199 
L 217.899547 253.168633 
L 218.101904 256.779362 
L 218.304261 256.017696 
L 218.911333 246.750597 
L 219.11369 234.896248 
L 219.923119 162.44789 
L 220.327833 145.786712 
L 220.53019 144.471372 
L 220.732548 151.262696 
L 222.351405 258.112513 
L 222.75612 273.385828 
L 222.958477 277.67936 
L 223.160834 279.087755 
L 223.363191 275.917186 
L 223.767906 264.26486 
L 224.17262 238.633172 
L 224.577335 219.20884 
L 224.779692 216.759722 
L 224.982049 215.8549 
L 225.386763 225.34601 
L 225.589121 227.058778 
L 225.791478 232.662499 
L 225.993835 235.141771 
L 226.600907 246.764661 
L 226.803264 252.971376 
L 227.410335 294.757261 
L 227.612693 298.228614 
L 227.81505 299.029909 
L 228.017407 297.802524 
L 228.219764 291.273599 
L 229.029193 245.610394 
L 229.433908 240.981859 
L 229.838622 228.353863 
L 230.648051 191.344149 
L 230.850408 189.633299 
L 231.052765 192.496807 
L 231.45748 217.05268 
L 232.469266 290.767143 
L 232.671623 292.206258 
L 232.87398 288.576708 
L 233.278694 268.986883 
L 233.683409 243.727261 
L 234.492838 211.109008 
L 235.099909 187.131439 
L 235.302267 181.61276 
L 235.504624 181.241079 
L 235.706981 185.55216 
L 236.111695 205.699303 
L 236.51641 234.171733 
L 237.123481 282.762138 
L 237.325839 287.482406 
L 237.528196 288.264216 
L 237.730553 285.401154 
L 237.93291 277.542359 
L 238.742339 233.745977 
L 239.551768 202.143719 
L 239.956482 194.931137 
L 240.15884 193.901239 
L 240.361197 194.620676 
L 240.765911 207.381991 
L 241.170626 232.102249 
L 241.57534 261.161233 
L 241.980054 287.982171 
L 242.182412 291.506209 
L 242.384769 292.677114 
L 242.587126 289.416505 
L 242.99184 268.747222 
L 243.396555 245.282811 
L 244.003626 225.203139 
L 244.813055 188.587346 
L 245.21777 181.097225 
L 245.420127 182.341576 
L 245.622484 189.656909 
L 246.229556 231.37776 
L 246.836627 280.100333 
L 247.241342 290.143529 
L 247.443699 287.770366 
L 247.848413 268.505565 
L 249.871985 141.372128 
L 250.074343 145.228123 
L 250.479057 162.868703 
L 251.086129 211.678512 
L 251.490843 251.045841 
L 251.895558 269.363798 
L 252.097915 273.178878 
L 252.300272 272.619706 
L 252.704986 264.752304 
L 252.907344 258.919717 
L 253.312058 227.602321 
L 254.323844 147.265521 
L 254.526201 144.007653 
L 254.728558 143.179793 
L 254.930916 146.067164 
L 255.133273 150.631132 
L 255.33563 158.778582 
L 255.942702 207.289309 
L 256.347416 249.2152 
L 256.752131 271.112255 
L 257.156845 278.906286 
L 257.359202 277.621789 
L 257.561559 274.119437 
L 257.763917 267.853619 
L 259.180417 167.052011 
L 259.382774 162.880126 
L 259.585131 161.744158 
L 259.787489 165.029366 
L 260.192203 176.590766 
L 260.596917 199.017668 
L 260.799275 214.19706 
L 261.406346 275.196426 
L 261.811061 286.807465 
L 262.013418 286.396158 
L 262.215775 279.891902 
L 263.025204 224.362863 
L 263.227561 220.0917 
L 263.429918 219.358564 
L 263.834633 226.744818 
L 264.03699 230.367433 
L 264.239347 231.005868 
L 264.644062 233.536696 
L 264.846419 234.502893 
L 265.048776 238.837666 
L 265.45349 250.965344 
L 265.655848 256.282431 
L 266.262919 291.389399 
L 266.465277 293.95433 
L 266.667634 294.192471 
L 266.869991 289.65219 
L 267.274705 269.759943 
L 267.67942 247.965433 
L 268.286491 235.776696 
L 268.691206 227.192037 
L 269.09592 218.363766 
L 269.298277 216.718639 
L 269.500635 217.002361 
L 269.905349 221.209248 
L 270.310063 234.295739 
L 270.512421 243.774938 
L 271.119492 283.073799 
L 271.32185 286.897189 
L 271.524207 287.770838 
L 271.726564 284.91425 
L 271.928921 277.503695 
L 272.535993 239.086975 
L 272.73835 232.290888 
L 274.15485 152.915439 
L 274.559565 149.374069 
L 274.761922 155.146826 
L 275.368994 191.171436 
L 275.976065 252.446478 
L 276.178422 260.301828 
L 276.38078 262.780121 
L 276.583137 261.845186 
L 276.785494 257.104914 
L 277.392566 216.322237 
L 278.404352 154.560455 
L 278.809066 142.407179 
L 279.213781 140.249536 
L 279.416138 143.650035 
L 279.618495 150.381488 
L 280.023209 182.249059 
L 280.427924 227.215945 
L 280.832638 265.522388 
L 281.034995 273.843916 
L 281.237353 276.589702 
L 281.43971 275.208344 
L 281.642067 268.087487 
L 283.260925 167.759235 
L 283.867996 149.99844 
L 284.070354 150.43341 
L 284.272711 154.546763 
L 284.475068 165.123921 
L 285.284497 243.680957 
L 285.689211 276.705353 
L 285.891568 283.840789 
L 286.296283 289.232735 
L 286.49864 285.724008 
L 287.105712 260.140373 
L 288.319855 171.074617 
L 288.724569 157.017407 
L 288.926927 155.902517 
L 289.129284 159.198645 
L 289.331641 166.119229 
L 289.736355 196.253389 
L 290.748141 273.174779 
L 290.950499 277.857692 
L 291.152856 279.221097 
L 291.355213 277.28058 
L 291.759927 266.690403 
L 291.962285 253.889459 
L 292.974071 151.323715 
L 293.176428 139.636929 
L 293.378785 134.40073 
L 293.581142 132.330442 
L 293.7835 134.173931 
L 294.188214 147.607307 
L 294.795286 185.00464 
L 295.604714 258.823023 
L 295.807072 264.387196 
L 296.009429 265.616639 
L 296.211786 259.385683 
L 296.818858 208.137185 
L 297.830644 97.377283 
L 298.033001 86.060964 
L 298.235358 82.201632 
L 298.437715 82.460367 
L 298.640073 87.392378 
L 299.247144 117.485056 
L 299.854216 177.686228 
L 300.25893 228.464646 
L 300.461287 239.273935 
L 300.663645 241.894063 
L 300.866002 239.283017 
L 301.270716 217.239848 
L 301.473073 204.292358 
L 302.080145 138.583504 
L 302.484859 90.406771 
L 302.687217 78.595976 
L 302.889574 73.782345 
L 303.091931 76.995248 
L 303.699003 116.00724 
L 304.508432 182.896172 
L 305.115503 240.773443 
L 305.31786 247.139245 
L 305.520218 249.769164 
L 305.722575 248.458709 
L 306.127289 227.490087 
L 307.746147 126.500747 
L 307.948504 121.440058 
L 308.150861 122.345661 
L 309.162647 187.701304 
L 309.567362 223.95607 
L 309.972076 254.636329 
L 310.376791 264.486853 
L 310.579148 262.881081 
L 310.781505 255.697654 
L 311.388577 208.378824 
L 312.400363 124.468894 
L 312.60272 118.817016 
L 312.805077 117.749973 
L 313.007434 117.406494 
L 313.209791 123.167127 
L 313.614506 143.322146 
L 314.423935 207.743903 
L 314.828649 241.27576 
L 315.031006 247.41121 
L 315.233364 250.067151 
L 315.435721 248.659817 
L 315.638078 241.662458 
L 316.649864 191.008992 
L 317.054578 179.645097 
L 317.256936 174.415006 
L 317.459293 173.30059 
L 317.66165 173.352754 
L 317.864007 175.728573 
L 318.471079 191.79683 
L 319.07815 219.897464 
L 319.685222 263.332239 
L 320.089937 275.134223 
L 320.292294 275.063555 
L 320.494651 270.834297 
L 321.101723 248.65277 
L 322.72058 150.382704 
L 322.922937 150.108789 
L 323.125295 150.969384 
L 323.327652 156.138022 
L 323.934723 197.993611 
L 324.541795 253.817604 
L 324.94651 267.383488 
L 325.148867 271.088015 
L 325.351224 271.201774 
L 325.553581 267.29893 
L 325.755938 260.66947 
L 325.958296 247.987159 
L 326.970082 143.254554 
L 327.374796 125.665204 
L 327.577153 126.851928 
L 328.184225 143.996789 
L 328.588939 173.32039 
L 329.600725 269.580576 
L 329.803083 272.660404 
L 330.00544 271.617273 
L 330.207797 265.185767 
L 330.410154 253.601753 
L 331.42194 163.831945 
L 331.826655 138.382099 
L 332.029012 132.477222 
L 332.231369 133.289579 
L 332.433726 136.688379 
L 333.040798 163.875471 
L 333.850227 230.219298 
L 334.254941 265.769533 
L 334.659655 277.88368 
L 334.862013 278.10617 
L 335.06437 268.684101 
L 335.671442 224.040884 
L 336.683228 178.280331 
L 336.885585 173.7238 
L 337.087942 174.782722 
L 337.290299 173.946733 
L 337.492656 176.275015 
L 338.099728 202.59688 
L 338.504442 222.545429 
L 339.111514 271.989469 
L 339.516228 280.372276 
L 339.718586 278.994943 
L 339.920943 270.061143 
L 340.730372 218.758662 
L 341.135086 199.593658 
L 341.944515 157.119992 
L 342.146872 150.082918 
L 342.349229 147.221425 
L 342.551587 148.902736 
L 342.753944 153.308676 
L 343.158658 178.116473 
L 343.361015 191.063881 
L 343.968087 249.537543 
L 344.170444 255.578537 
L 344.372801 256.311089 
L 344.575159 255.895417 
L 344.777516 248.224177 
L 345.384587 207.185985 
L 346.396374 113.319992 
L 346.598731 107.716017 
L 346.801088 105.716304 
L 347.003445 106.435793 
L 347.40816 116.994654 
L 347.812874 134.810232 
L 348.419946 192.293628 
L 348.82466 240.16607 
L 349.027017 249.785795 
L 349.229374 252.733611 
L 349.431732 253.841038 
L 349.634089 246.355937 
L 350.24116 204.839853 
L 351.050589 123.423803 
L 351.252947 111.229736 
L 351.657661 103.061773 
L 351.860018 102.320393 
L 352.264733 112.572548 
L 352.669447 134.34523 
L 353.276519 198.807975 
L 353.681233 245.609501 
L 353.88359 253.747339 
L 354.288305 259.292722 
L 354.490662 256.526069 
L 354.895376 241.444145 
L 355.300091 209.083106 
L 356.109519 114.045136 
L 356.311877 107.532309 
L 356.514234 107.368179 
L 356.716591 107.052604 
L 356.918948 110.372694 
L 357.121306 115.568673 
L 357.52602 136.498638 
L 358.133092 195.536138 
L 358.537806 238.952452 
L 358.94252 253.496942 
L 359.144878 255.668602 
L 359.347235 253.691548 
L 359.751949 239.705743 
L 360.156664 205.937352 
L 360.966092 103.187667 
L 361.16845 95.075371 
L 361.370807 94.677918 
L 361.573164 96.031098 
L 361.775521 98.634209 
L 362.180236 112.157868 
L 362.58495 137.908359 
L 362.989665 177.648457 
L 363.394379 227.331701 
L 363.799093 242.873382 
L 364.001451 244.462265 
L 364.203808 237.070048 
L 364.810879 188.190035 
L 365.822665 73.961928 
L 366.025023 68.04083 
L 366.22738 69.206129 
L 366.429737 73.035818 
L 366.834451 88.718459 
L 367.239166 111.084357 
L 367.846238 172.470411 
L 368.250952 219.058333 
L 368.655666 234.333876 
L 368.858024 234.067148 
L 369.060381 227.036486 
L 369.667452 186.858069 
L 370.679238 89.909319 
L 370.881596 85.00241 
L 371.083953 84.648141 
L 371.28631 89.458846 
L 371.691024 109.711582 
L 372.298096 154.422841 
L 372.702811 190.405107 
L 373.107525 229.809503 
L 373.512239 242.791539 
L 373.714597 243.296359 
L 373.916954 239.124278 
L 374.524025 214.930992 
L 374.92874 179.013444 
L 375.535811 119.26409 
L 375.738169 114.622471 
L 375.940526 113.2444 
L 376.142883 115.077496 
L 376.34524 120.849812 
L 376.749955 142.561543 
L 377.964098 237.19815 
L 378.368812 247.095735 
L 378.57117 246.807331 
L 378.773527 242.3594 
L 378.975884 233.237412 
L 379.380598 198.965259 
L 380.190027 121.887473 
L 380.392384 108.804708 
L 380.594742 103.83665 
L 380.797099 102.093594 
L 380.999456 103.069065 
L 381.201813 104.93742 
L 381.40417 108.935278 
L 381.606528 115.328541 
L 382.213599 160.238573 
L 382.820671 220.327919 
L 383.023028 230.491171 
L 383.225385 233.753353 
L 383.427743 232.351951 
L 383.832457 214.28228 
L 384.237171 189.308038 
L 384.237171 189.308038 
" clip-path="url(#p40f51d9d79)" style="fill: none; stroke: #ff7f0e; stroke-width: 1.5; stroke-linecap: square"/>
   </g>
   <g id="line2d_15">
    <path d="M 384.439529 175.071052 
L 385.653672 112.056368 
L 385.856029 107.605879 
L 386.058386 107.699535 
L 386.260743 112.029852 
L 386.665458 134.164976 
L 387.272529 194.935785 
L 387.677244 234.985147 
L 387.879601 246.442489 
L 388.081958 250.730905 
L 388.284316 247.897922 
L 388.891387 216.32668 
L 390.712602 98.810011 
L 390.914959 95.69284 
L 391.117316 98.149717 
L 391.522031 115.670173 
L 392.129102 170.412277 
L 392.736174 231.265404 
L 392.938531 239.361114 
L 393.140888 238.701322 
L 393.545603 222.84043 
L 393.950317 197.349146 
L 395.569175 75.822111 
L 395.771532 73.559911 
L 395.973889 76.83454 
L 396.176247 85.974272 
L 396.580961 118.994429 
L 397.795104 247.909136 
L 397.997461 249.665841 
L 398.199819 243.874212 
L 398.80689 209.45516 
L 400.425748 98.509356 
L 400.628105 96.846171 
L 400.830462 100.509324 
L 401.235177 125.016649 
L 401.639891 169.541196 
L 402.44932 266.826766 
L 402.651677 271.13696 
L 402.854034 265.641927 
L 403.663463 207.032081 
L 404.675249 114.406425 
L 405.079964 89.569399 
L 405.282321 84.726796 
L 405.484678 85.622248 
L 405.687035 92.644836 
L 406.09175 122.728535 
L 406.698821 198.721369 
L 407.103536 251.036731 
L 407.305893 261.2442 
L 407.50825 258.553492 
L 408.115322 219.723479 
L 409.531822 75.530163 
L 409.73418 65.737095 
L 409.936537 62.885269 
L 410.138894 66.997717 
L 410.341251 77.699247 
L 410.745966 116.791171 
L 411.353037 207.176767 
L 411.757752 265.526158 
L 411.960109 277.037651 
L 412.162466 274.993675 
L 412.56718 242.51151 
L 412.971895 209.22424 
L 413.781324 123.807806 
L 414.186038 89.728606 
L 414.388395 80.600272 
L 414.590752 78.280811 
L 414.79311 83.170592 
L 415.197824 114.237606 
L 415.602539 169.538685 
L 416.411967 294.293487 
L 416.614325 300.148426 
L 416.816682 291.010158 
L 418.840254 80.024189 
L 419.042611 74.230846 
L 419.244968 76.302758 
L 419.447325 85.277243 
L 419.85204 123.635391 
L 420.459112 219.104545 
L 420.863826 280.43017 
L 421.066183 293.43376 
L 421.26854 290.358062 
L 421.875612 227.982706 
L 423.089755 74.799958 
L 423.292112 61.149915 
L 423.49447 55.8 
L 423.696827 57.658372 
L 423.899184 68.557456 
L 424.303898 110.61352 
L 424.91097 213.001502 
L 425.315684 276.356268 
L 425.518042 291.622628 
L 425.720399 292.201948 
L 425.922756 277.438534 
L 427.541614 85.220193 
L 427.946328 64.608816 
L 428.148685 65.329025 
L 428.351043 75.246512 
L 428.755757 116.917859 
L 429.362829 220.963429 
L 429.767543 286.736326 
L 429.9699 302.916103 
L 430.172257 303.404204 
L 430.374615 288.230848 
L 431.993472 91.391643 
L 432.398187 70.563562 
L 432.600544 71.336567 
L 432.802901 80.229148 
L 433.207616 120.083926 
L 433.814687 221.655466 
L 434.219402 284.656129 
L 434.421759 300.944908 
L 434.624116 301.668887 
L 434.826473 286.383775 
L 436.445331 78.389355 
L 436.647688 64.174032 
L 436.850045 58.169045 
L 437.052403 59.921849 
L 437.25476 70.356644 
L 437.659474 113.143248 
L 438.873617 295.284231 
L 439.075975 295.834945 
L 439.278332 280.886614 
L 440.897189 77.790639 
L 441.099547 64.209341 
L 441.301904 58.512536 
L 441.504261 60.880043 
L 441.706618 71.935966 
L 442.111333 116.326448 
L 442.718404 222.78033 
L 443.123119 286.108533 
L 443.325476 300.467808 
L 443.527833 299.524422 
L 443.73019 283.192817 
L 445.349048 84.997784 
L 445.551405 72.041335 
L 445.753762 66.546723 
L 445.95612 68.983856 
L 446.158477 79.763321 
L 446.563191 123.386007 
L 447.777335 303.737284 
L 447.979692 301.403034 
L 448.384406 255.987122 
L 448.789121 208.931682 
L 449.396192 122.062419 
L 449.800907 78.981114 
L 450.003264 66.221289 
L 450.205621 61.676191 
L 450.407978 64.74782 
L 450.610335 76.602148 
L 451.01505 121.542432 
L 452.229193 299.905889 
L 452.43155 296.909813 
L 453.038622 232.445817 
L 454.252765 73.51055 
L 454.455122 61.40106 
L 454.65748 57.693085 
L 454.859837 61.697448 
L 455.062194 74.801322 
L 455.466908 121.869242 
L 456.681052 300.391572 
L 456.883409 296.136374 
L 457.490481 232.04703 
L 458.502267 96.860756 
L 458.906981 66.535524 
L 459.109338 63.144996 
L 459.311695 67.461398 
L 459.71641 101.184389 
L 460.121124 160.943347 
L 460.728196 269.078014 
L 460.930553 293.591435 
L 461.13291 303.538607 
L 461.335267 297.644067 
L 461.942339 231.122214 
L 462.954125 95.131888 
L 463.35884 65.986243 
L 463.561197 63.325523 
L 463.763554 68.203571 
L 464.168268 102.91906 
L 464.572983 163.176774 
L 465.180054 269.749302 
L 465.382412 293.233142 
L 465.584769 302.177731 
L 465.787126 295.215405 
L 466.394198 227.901133 
L 467.203626 112.232244 
L 467.608341 71.238813 
L 467.810698 60.923761 
L 468.013055 59.186423 
L 468.215413 65.091213 
L 468.620127 101.829204 
L 469.024841 163.791192 
L 469.631913 270.757273 
L 469.83427 293.202682 
L 470.036627 300.951941 
L 470.238985 292.904793 
L 471.048413 194.241407 
L 471.655485 112.133088 
L 472.060199 72.274633 
L 472.262557 62.584479 
L 472.464914 61.409258 
L 472.667271 67.901503 
L 473.071985 105.577201 
L 473.4767 168.799668 
L 474.083772 275.483884 
L 474.286129 296.530008 
L 474.488486 302.757677 
L 474.690843 293.114663 
L 475.500272 193.03528 
L 476.107344 112.030596 
L 476.512058 73.36279 
L 476.714415 64.282366 
L 476.916772 63.689602 
L 477.11913 70.710194 
L 477.523844 109.124188 
L 477.928558 172.942055 
L 478.53563 277.968691 
L 478.737987 297.807249 
L 478.940345 302.676257 
L 479.142702 291.619602 
L 480.154488 158.615028 
L 480.761559 85.161407 
L 481.166274 61.086639 
L 481.368631 61.349665 
L 481.570988 69.324954 
L 481.975703 109.381435 
L 482.380417 174.540557 
L 482.987489 278.792142 
L 483.189846 297.461736 
L 483.392203 301.058017 
L 483.59456 288.829378 
L 485.415775 68.082551 
L 485.618132 60.528689 
L 485.82049 61.487479 
L 486.022847 70.365896 
L 486.427561 111.850838 
L 487.034633 217.018946 
L 487.439347 281.920134 
L 487.641704 299.222217 
L 487.844062 301.296412 
L 488.046419 287.608629 
L 489.867634 69.306376 
L 490.069991 62.474645 
L 490.272348 63.998082 
L 490.474705 73.532663 
L 490.87942 115.862469 
L 491.486491 221.355343 
L 491.891206 285.000352 
L 492.093563 300.907131 
L 492.29592 301.425804 
L 492.498277 286.17734 
L 494.117135 81.291472 
L 494.319492 67.558644 
L 494.52185 61.502386 
L 494.724207 63.662503 
L 494.926564 74.084289 
L 495.331278 117.591448 
L 496.545422 300.562486 
L 496.747779 299.775976 
L 496.950136 283.282169 
L 498.568994 78.618461 
L 498.771351 65.508175 
L 498.973708 60.298677 
L 499.176065 63.143917 
L 499.378422 74.531326 
L 499.783137 119.405879 
L 500.99728 300.910635 
L 501.199637 298.74792 
L 501.604352 254.421049 
L 502.009066 207.642518 
L 502.616138 121.564793 
L 503.020852 78.448191 
L 503.223209 65.981803 
L 503.425567 61.506528 
L 503.627924 64.90002 
L 503.830281 77.015786 
L 504.234995 122.781617 
L 505.449139 302.140047 
L 505.651496 298.501847 
L 506.258568 233.386267 
L 507.472711 77.461831 
L 507.675068 65.571401 
L 507.877425 61.825687 
L 508.079782 65.78911 
L 508.28214 78.667648 
L 508.686854 125.244354 
L 509.69864 291.275367 
L 509.900997 302.122349 
L 510.103354 297.194301 
L 510.710426 231.364763 
L 511.722212 93.75688 
L 512.126927 63.730219 
L 512.329284 60.779585 
L 512.531641 65.479662 
L 512.936355 100.061468 
L 513.34107 160.207109 
L 513.948141 268.00846 
L 514.150499 292.204459 
L 514.352856 301.813708 
L 514.555213 295.64472 
L 515.162285 229.348381 
L 516.174071 92.079345 
L 516.578785 63.420015 
L 516.781142 61.184145 
L 516.9835 66.586782 
L 517.388214 102.410148 
L 517.792928 163.79108 
L 518.4 271.075848 
L 518.4 271.075848 
" clip-path="url(#p40f51d9d79)" style="fill: none; stroke: #2ca02c; stroke-width: 1.5; stroke-linecap: square"/>
   </g>
   <g id="patch_3">
    <path d="M 72 320.4 
L 72 43.2 
" style="fill: none; stroke: #000000; stroke-width: 0.8; stroke-linejoin: miter; stroke-linecap: square"/>
   </g>
   <g id="patch_4">
    <path d="M 518.4 320.4 
L 518.4 43.2 
" style="fill: none; stroke: #000000; stroke-width: 0.8; stroke-linejoin: miter; stroke-linecap: square"/>
   </g>
   <g id="patch_5">
    <path d="M 72 320.4 
L 518.4 320.4 
" style="fill: none; stroke: #000000; stroke-width: 0.8; stroke-linejoin: miter; stroke-linecap: square"/>
   </g>
   <g id="patch_6">
    <path d="M 72 43.2 
L 518.4 43.2 
" style="fill: none; stroke: #000000; stroke-width: 0.8; stroke-linejoin: miter; stroke-linecap: square"/>
   </g>
   <g id="text_13">
    <!-- Classic Transformer - model_20231126174128 -->
    <g transform="translate(155.436563 37.2) scale(0.12 -0.12)">
     <defs>
      <path id="DejaVuSans-43" d="M 4122 4306 
L 4122 3641 
Q 3803 3938 3442 4084 
Q 3081 4231 2675 4231 
Q 1875 4231 1450 3742 
Q 1025 3253 1025 2328 
Q 1025 1406 1450 917 
Q 1875 428 2675 428 
Q 3081 428 3442 575 
Q 3803 722 4122 1019 
L 4122 359 
Q 3791 134 3420 21 
Q 3050 -91 2638 -91 
Q 1578 -91 968 557 
Q 359 1206 359 2328 
Q 359 3453 968 4101 
Q 1578 4750 2638 4750 
Q 3056 4750 3426 4639 
Q 3797 4528 4122 4306 
z
" transform="scale(0.015625)"/>
      <path id="DejaVuSans-6c" d="M 603 4863 
L 1178 4863 
L 1178 0 
L 603 0 
L 603 4863 
z
" transform="scale(0.015625)"/>
      <path id="DejaVuSans-61" d="M 2194 1759 
Q 1497 1759 1228 1600 
Q 959 1441 959 1056 
Q 959 750 1161 570 
Q 1363 391 1709 391 
Q 2188 391 2477 730 
Q 2766 1069 2766 1631 
L 2766 1759 
L 2194 1759 
z
M 3341 1997 
L 3341 0 
L 2766 0 
L 2766 531 
Q 2569 213 2275 61 
Q 1981 -91 1556 -91 
Q 1019 -91 701 211 
Q 384 513 384 1019 
Q 384 1609 779 1909 
Q 1175 2209 1959 2209 
L 2766 2209 
L 2766 2266 
Q 2766 2663 2505 2880 
Q 2244 3097 1772 3097 
Q 1472 3097 1187 3025 
Q 903 2953 641 2809 
L 641 3341 
Q 956 3463 1253 3523 
Q 1550 3584 1831 3584 
Q 2591 3584 2966 3190 
Q 3341 2797 3341 1997 
z
" transform="scale(0.015625)"/>
      <path id="DejaVuSans-73" d="M 2834 3397 
L 2834 2853 
Q 2591 2978 2328 3040 
Q 2066 3103 1784 3103 
Q 1356 3103 1142 2972 
Q 928 2841 928 2578 
Q 928 2378 1081 2264 
Q 1234 2150 1697 2047 
L 1894 2003 
Q 2506 1872 2764 1633 
Q 3022 1394 3022 966 
Q 3022 478 2636 193 
Q 2250 -91 1575 -91 
Q 1294 -91 989 -36 
Q 684 19 347 128 
L 347 722 
Q 666 556 975 473 
Q 1284 391 1588 391 
Q 1994 391 2212 530 
Q 2431 669 2431 922 
Q 2431 1156 2273 1281 
Q 2116 1406 1581 1522 
L 1381 1569 
Q 847 1681 609 1914 
Q 372 2147 372 2553 
Q 372 3047 722 3315 
Q 1072 3584 1716 3584 
Q 2034 3584 2315 3537 
Q 2597 3491 2834 3397 
z
" transform="scale(0.015625)"/>
      <path id="DejaVuSans-69" d="M 603 3500 
L 1178 3500 
L 1178 0 
L 603 0 
L 603 3500 
z
M 603 4863 
L 1178 4863 
L 1178 4134 
L 603 4134 
L 603 4863 
z
" transform="scale(0.015625)"/>
      <path id="DejaVuSans-63" d="M 3122 3366 
L 3122 2828 
Q 2878 2963 2633 3030 
Q 2388 3097 2138 3097 
Q 1578 3097 1268 2742 
Q 959 2388 959 1747 
Q 959 1106 1268 751 
Q 1578 397 2138 397 
Q 2388 397 2633 464 
Q 2878 531 3122 666 
L 3122 134 
Q 2881 22 2623 -34 
Q 2366 -91 2075 -91 
Q 1284 -91 818 406 
Q 353 903 353 1747 
Q 353 2603 823 3093 
Q 1294 3584 2113 3584 
Q 2378 3584 2631 3529 
Q 2884 3475 3122 3366 
z
" transform="scale(0.015625)"/>
      <path id="DejaVuSans-20" transform="scale(0.015625)"/>
      <path id="DejaVuSans-54" d="M -19 4666 
L 3928 4666 
L 3928 4134 
L 2272 4134 
L 2272 0 
L 1638 0 
L 1638 4134 
L -19 4134 
L -19 4666 
z
" transform="scale(0.015625)"/>
      <path id="DejaVuSans-72" d="M 2631 2963 
Q 2534 3019 2420 3045 
Q 2306 3072 2169 3072 
Q 1681 3072 1420 2755 
Q 1159 2438 1159 1844 
L 1159 0 
L 581 0 
L 581 3500 
L 1159 3500 
L 1159 2956 
Q 1341 3275 1631 3429 
Q 1922 3584 2338 3584 
Q 2397 3584 2469 3576 
Q 2541 3569 2628 3553 
L 2631 2963 
z
" transform="scale(0.015625)"/>
      <path id="DejaVuSans-6e" d="M 3513 2113 
L 3513 0 
L 2938 0 
L 2938 2094 
Q 2938 2591 2744 2837 
Q 2550 3084 2163 3084 
Q 1697 3084 1428 2787 
Q 1159 2491 1159 1978 
L 1159 0 
L 581 0 
L 581 3500 
L 1159 3500 
L 1159 2956 
Q 1366 3272 1645 3428 
Q 1925 3584 2291 3584 
Q 2894 3584 3203 3211 
Q 3513 2838 3513 2113 
z
" transform="scale(0.015625)"/>
      <path id="DejaVuSans-66" d="M 2375 4863 
L 2375 4384 
L 1825 4384 
Q 1516 4384 1395 4259 
Q 1275 4134 1275 3809 
L 1275 3500 
L 2222 3500 
L 2222 3053 
L 1275 3053 
L 1275 0 
L 697 0 
L 697 3053 
L 147 3053 
L 147 3500 
L 697 3500 
L 697 3744 
Q 697 4328 969 4595 
Q 1241 4863 1831 4863 
L 2375 4863 
z
" transform="scale(0.015625)"/>
      <path id="DejaVuSans-6f" d="M 1959 3097 
Q 1497 3097 1228 2736 
Q 959 2375 959 1747 
Q 959 1119 1226 758 
Q 1494 397 1959 397 
Q 2419 397 2687 759 
Q 2956 1122 2956 1747 
Q 2956 2369 2687 2733 
Q 2419 3097 1959 3097 
z
M 1959 3584 
Q 2709 3584 3137 3096 
Q 3566 2609 3566 1747 
Q 3566 888 3137 398 
Q 2709 -91 1959 -91 
Q 1206 -91 779 398 
Q 353 888 353 1747 
Q 353 2609 779 3096 
Q 1206 3584 1959 3584 
z
" transform="scale(0.015625)"/>
      <path id="DejaVuSans-6d" d="M 3328 2828 
Q 3544 3216 3844 3400 
Q 4144 3584 4550 3584 
Q 5097 3584 5394 3201 
Q 5691 2819 5691 2113 
L 5691 0 
L 5113 0 
L 5113 2094 
Q 5113 2597 4934 2840 
Q 4756 3084 4391 3084 
Q 3944 3084 3684 2787 
Q 3425 2491 3425 1978 
L 3425 0 
L 2847 0 
L 2847 2094 
Q 2847 2600 2669 2842 
Q 2491 3084 2119 3084 
Q 1678 3084 1418 2786 
Q 1159 2488 1159 1978 
L 1159 0 
L 581 0 
L 581 3500 
L 1159 3500 
L 1159 2956 
Q 1356 3278 1631 3431 
Q 1906 3584 2284 3584 
Q 2666 3584 2933 3390 
Q 3200 3197 3328 2828 
z
" transform="scale(0.015625)"/>
      <path id="DejaVuSans-65" d="M 3597 1894 
L 3597 1613 
L 953 1613 
Q 991 1019 1311 708 
Q 1631 397 2203 397 
Q 2534 397 2845 478 
Q 3156 559 3463 722 
L 3463 178 
Q 3153 47 2828 -22 
Q 2503 -91 2169 -91 
Q 1331 -91 842 396 
Q 353 884 353 1716 
Q 353 2575 817 3079 
Q 1281 3584 2069 3584 
Q 2775 3584 3186 3129 
Q 3597 2675 3597 1894 
z
M 3022 2063 
Q 3016 2534 2758 2815 
Q 2500 3097 2075 3097 
Q 1594 3097 1305 2825 
Q 1016 2553 972 2059 
L 3022 2063 
z
" transform="scale(0.015625)"/>
      <path id="DejaVuSans-64" d="M 2906 2969 
L 2906 4863 
L 3481 4863 
L 3481 0 
L 2906 0 
L 2906 525 
Q 2725 213 2448 61 
Q 2172 -91 1784 -91 
Q 1150 -91 751 415 
Q 353 922 353 1747 
Q 353 2572 751 3078 
Q 1150 3584 1784 3584 
Q 2172 3584 2448 3432 
Q 2725 3281 2906 2969 
z
M 947 1747 
Q 947 1113 1208 752 
Q 1469 391 1925 391 
Q 2381 391 2643 752 
Q 2906 1113 2906 1747 
Q 2906 2381 2643 2742 
Q 2381 3103 1925 3103 
Q 1469 3103 1208 2742 
Q 947 2381 947 1747 
z
" transform="scale(0.015625)"/>
      <path id="DejaVuSans-5f" d="M 3263 -1063 
L 3263 -1509 
L -63 -1509 
L -63 -1063 
L 3263 -1063 
z
" transform="scale(0.015625)"/>
      <path id="DejaVuSans-34" d="M 2419 4116 
L 825 1625 
L 2419 1625 
L 2419 4116 
z
M 2253 4666 
L 3047 4666 
L 3047 1625 
L 3713 1625 
L 3713 1100 
L 3047 1100 
L 3047 0 
L 2419 0 
L 2419 1100 
L 313 1100 
L 313 1709 
L 2253 4666 
z
" transform="scale(0.015625)"/>
     </defs>
     <use xlink:href="#DejaVuSans-43"/>
     <use xlink:href="#DejaVuSans-6c" x="69.824219"/>
     <use xlink:href="#DejaVuSans-61" x="97.607422"/>
     <use xlink:href="#DejaVuSans-73" x="158.886719"/>
     <use xlink:href="#DejaVuSans-73" x="210.986328"/>
     <use xlink:href="#DejaVuSans-69" x="263.085938"/>
     <use xlink:href="#DejaVuSans-63" x="290.869141"/>
     <use xlink:href="#DejaVuSans-20" x="345.849609"/>
     <use xlink:href="#DejaVuSans-54" x="377.636719"/>
     <use xlink:href="#DejaVuSans-72" x="423.970703"/>
     <use xlink:href="#DejaVuSans-61" x="465.083984"/>
     <use xlink:href="#DejaVuSans-6e" x="526.363281"/>
     <use xlink:href="#DejaVuSans-73" x="589.742188"/>
     <use xlink:href="#DejaVuSans-66" x="641.841797"/>
     <use xlink:href="#DejaVuSans-6f" x="677.046875"/>
     <use xlink:href="#DejaVuSans-72" x="738.228516"/>
     <use xlink:href="#DejaVuSans-6d" x="777.591797"/>
     <use xlink:href="#DejaVuSans-65" x="875.003906"/>
     <use xlink:href="#DejaVuSans-72" x="936.527344"/>
     <use xlink:href="#DejaVuSans-20" x="977.640625"/>
     <use xlink:href="#DejaVuSans-2d" x="1009.427734"/>
     <use xlink:href="#DejaVuSans-20" x="1045.511719"/>
     <use xlink:href="#DejaVuSans-6d" x="1077.298828"/>
     <use xlink:href="#DejaVuSans-6f" x="1174.710938"/>
     <use xlink:href="#DejaVuSans-64" x="1235.892578"/>
     <use xlink:href="#DejaVuSans-65" x="1299.369141"/>
     <use xlink:href="#DejaVuSans-6c" x="1360.892578"/>
     <use xlink:href="#DejaVuSans-5f" x="1388.675781"/>
     <use xlink:href="#DejaVuSans-32" x="1438.675781"/>
     <use xlink:href="#DejaVuSans-30" x="1502.298828"/>
     <use xlink:href="#DejaVuSans-32" x="1565.921875"/>
     <use xlink:href="#DejaVuSans-33" x="1629.544922"/>
     <use xlink:href="#DejaVuSans-31" x="1693.167969"/>
     <use xlink:href="#DejaVuSans-31" x="1756.791016"/>
     <use xlink:href="#DejaVuSans-32" x="1820.414062"/>
     <use xlink:href="#DejaVuSans-36" x="1884.037109"/>
     <use xlink:href="#DejaVuSans-31" x="1947.660156"/>
     <use xlink:href="#DejaVuSans-37" x="2011.283203"/>
     <use xlink:href="#DejaVuSans-34" x="2074.90625"/>
     <use xlink:href="#DejaVuSans-31" x="2138.529297"/>
     <use xlink:href="#DejaVuSans-32" x="2202.152344"/>
     <use xlink:href="#DejaVuSans-38" x="2265.775391"/>
    </g>
   </g>
   <g id="legend_1">
    <g id="patch_7">
     <path d="M 79 95.234375 
L 161.517188 95.234375 
Q 163.517188 95.234375 163.517188 93.234375 
L 163.517188 50.2 
Q 163.517188 48.2 161.517188 48.2 
L 79 48.2 
Q 77 48.2 77 50.2 
L 77 93.234375 
Q 77 95.234375 79 95.234375 
z
" style="fill: #ffffff; opacity: 0.8; stroke: #cccccc; stroke-linejoin: miter"/>
    </g>
    <g id="line2d_16">
     <path d="M 81 56.298437 
L 91 56.298437 
L 101 56.298437 
" style="fill: none; stroke: #1f77b4; stroke-width: 1.5; stroke-linecap: square"/>
    </g>
    <g id="text_14">
     <!-- Measured -->
     <g transform="translate(109 59.798437) scale(0.1 -0.1)">
      <defs>
       <path id="DejaVuSans-4d" d="M 628 4666 
L 1569 4666 
L 2759 1491 
L 3956 4666 
L 4897 4666 
L 4897 0 
L 4281 0 
L 4281 4097 
L 3078 897 
L 2444 897 
L 1241 4097 
L 1241 0 
L 628 0 
L 628 4666 
z
" transform="scale(0.015625)"/>
       <path id="DejaVuSans-75" d="M 544 1381 
L 544 3500 
L 1119 3500 
L 1119 1403 
Q 1119 906 1312 657 
Q 1506 409 1894 409 
Q 2359 409 2629 706 
Q 2900 1003 2900 1516 
L 2900 3500 
L 3475 3500 
L 3475 0 
L 2900 0 
L 2900 538 
Q 2691 219 2414 64 
Q 2138 -91 1772 -91 
Q 1169 -91 856 284 
Q 544 659 544 1381 
z
M 1991 3584 
L 1991 3584 
z
" transform="scale(0.015625)"/>
      </defs>
      <use xlink:href="#DejaVuSans-4d"/>
      <use xlink:href="#DejaVuSans-65" x="86.279297"/>
      <use xlink:href="#DejaVuSans-61" x="147.802734"/>
      <use xlink:href="#DejaVuSans-73" x="209.082031"/>
      <use xlink:href="#DejaVuSans-75" x="261.181641"/>
      <use xlink:href="#DejaVuSans-72" x="324.560547"/>
      <use xlink:href="#DejaVuSans-65" x="363.423828"/>
      <use xlink:href="#DejaVuSans-64" x="424.947266"/>
     </g>
    </g>
    <g id="line2d_17">
     <path d="M 81 70.976562 
L 91 70.976562 
L 101 70.976562 
" style="fill: none; stroke: #ff7f0e; stroke-width: 1.5; stroke-linecap: square"/>
    </g>
    <g id="text_15">
     <!-- Fitted -->
     <g transform="translate(109 74.476562) scale(0.1 -0.1)">
      <defs>
       <path id="DejaVuSans-46" d="M 628 4666 
L 3309 4666 
L 3309 4134 
L 1259 4134 
L 1259 2759 
L 3109 2759 
L 3109 2228 
L 1259 2228 
L 1259 0 
L 628 0 
L 628 4666 
z
" transform="scale(0.015625)"/>
       <path id="DejaVuSans-74" d="M 1172 4494 
L 1172 3500 
L 2356 3500 
L 2356 3053 
L 1172 3053 
L 1172 1153 
Q 1172 725 1289 603 
Q 1406 481 1766 481 
L 2356 481 
L 2356 0 
L 1766 0 
Q 1100 0 847 248 
Q 594 497 594 1153 
L 594 3053 
L 172 3053 
L 172 3500 
L 594 3500 
L 594 4494 
L 1172 4494 
z
" transform="scale(0.015625)"/>
      </defs>
      <use xlink:href="#DejaVuSans-46"/>
      <use xlink:href="#DejaVuSans-69" x="50.269531"/>
      <use xlink:href="#DejaVuSans-74" x="78.052734"/>
      <use xlink:href="#DejaVuSans-74" x="117.261719"/>
      <use xlink:href="#DejaVuSans-65" x="156.470703"/>
      <use xlink:href="#DejaVuSans-64" x="217.994141"/>
     </g>
    </g>
    <g id="line2d_18">
     <path d="M 81 85.654687 
L 91 85.654687 
L 101 85.654687 
" style="fill: none; stroke: #2ca02c; stroke-width: 1.5; stroke-linecap: square"/>
    </g>
    <g id="text_16">
     <!-- Estimated -->
     <g transform="translate(109 89.154687) scale(0.1 -0.1)">
      <defs>
       <path id="DejaVuSans-45" d="M 628 4666 
L 3578 4666 
L 3578 4134 
L 1259 4134 
L 1259 2753 
L 3481 2753 
L 3481 2222 
L 1259 2222 
L 1259 531 
L 3634 531 
L 3634 0 
L 628 0 
L 628 4666 
z
" transform="scale(0.015625)"/>
      </defs>
      <use xlink:href="#DejaVuSans-45"/>
      <use xlink:href="#DejaVuSans-73" x="63.183594"/>
      <use xlink:href="#DejaVuSans-74" x="115.283203"/>
      <use xlink:href="#DejaVuSans-69" x="154.492188"/>
      <use xlink:href="#DejaVuSans-6d" x="182.275391"/>
      <use xlink:href="#DejaVuSans-61" x="279.6875"/>
      <use xlink:href="#DejaVuSans-74" x="340.966797"/>
      <use xlink:href="#DejaVuSans-65" x="380.175781"/>
      <use xlink:href="#DejaVuSans-64" x="441.699219"/>
     </g>
    </g>
   </g>
  </g>
 </g>
 <defs>
  <clipPath id="p40f51d9d79">
   <rect x="72" y="43.2" width="446.4" height="277.2"/>
  </clipPath>
 </defs>
</svg>
