<?xml version="1.0" encoding="utf-8" standalone="no"?>
<!DOCTYPE svg PUBLIC "-//W3C//DTD SVG 1.1//EN"
  "http://www.w3.org/Graphics/SVG/1.1/DTD/svg11.dtd">
<svg xmlns:xlink="http://www.w3.org/1999/xlink" width="576pt" height="360pt" viewBox="0 0 576 360" xmlns="http://www.w3.org/2000/svg" version="1.1">
 <metadata>
  <rdf:RDF xmlns:dc="http://purl.org/dc/elements/1.1/" xmlns:cc="http://creativecommons.org/ns#" xmlns:rdf="http://www.w3.org/1999/02/22-rdf-syntax-ns#">
   <cc:Work>
    <dc:type rdf:resource="http://purl.org/dc/dcmitype/StillImage"/>
    <dc:date>2023-11-23T16:20:25.376177</dc:date>
    <dc:format>image/svg+xml</dc:format>
    <dc:creator>
     <cc:Agent>
      <dc:title>Matplotlib v3.8.1, https://matplotlib.org/</dc:title>
     </cc:Agent>
    </dc:creator>
   </cc:Work>
  </rdf:RDF>
 </metadata>
 <defs>
  <style type="text/css">*{stroke-linejoin: round; stroke-linecap: butt}</style>
 </defs>
 <g id="figure_1">
  <g id="patch_1">
   <path d="M 0 360 
L 576 360 
L 576 0 
L 0 0 
z
" style="fill: #ffffff"/>
  </g>
  <g id="axes_1">
   <g id="patch_2">
    <path d="M 72 320.4 
L 518.4 320.4 
L 518.4 43.2 
L 72 43.2 
z
" style="fill: #ffffff"/>
   </g>
   <g id="matplotlib.axis_1">
    <g id="xtick_1">
     <g id="line2d_1">
      <defs>
       <path id="m43c4914d28" d="M 0 0 
L 0 3.5 
" style="stroke: #000000; stroke-width: 0.8"/>
      </defs>
      <g>
       <use xlink:href="#m43c4914d28" x="129.874161" y="320.4" style="stroke: #000000; stroke-width: 0.8"/>
      </g>
     </g>
     <g id="text_1">
      <!-- 2020-05-15 -->
      <g transform="translate(100.816349 334.998438) scale(0.1 -0.1)">
       <defs>
        <path id="DejaVuSans-32" d="M 1228 531 
L 3431 531 
L 3431 0 
L 469 0 
L 469 531 
Q 828 903 1448 1529 
Q 2069 2156 2228 2338 
Q 2531 2678 2651 2914 
Q 2772 3150 2772 3378 
Q 2772 3750 2511 3984 
Q 2250 4219 1831 4219 
Q 1534 4219 1204 4116 
Q 875 4013 500 3803 
L 500 4441 
Q 881 4594 1212 4672 
Q 1544 4750 1819 4750 
Q 2544 4750 2975 4387 
Q 3406 4025 3406 3419 
Q 3406 3131 3298 2873 
Q 3191 2616 2906 2266 
Q 2828 2175 2409 1742 
Q 1991 1309 1228 531 
z
" transform="scale(0.015625)"/>
        <path id="DejaVuSans-30" d="M 2034 4250 
Q 1547 4250 1301 3770 
Q 1056 3291 1056 2328 
Q 1056 1369 1301 889 
Q 1547 409 2034 409 
Q 2525 409 2770 889 
Q 3016 1369 3016 2328 
Q 3016 3291 2770 3770 
Q 2525 4250 2034 4250 
z
M 2034 4750 
Q 2819 4750 3233 4129 
Q 3647 3509 3647 2328 
Q 3647 1150 3233 529 
Q 2819 -91 2034 -91 
Q 1250 -91 836 529 
Q 422 1150 422 2328 
Q 422 3509 836 4129 
Q 1250 4750 2034 4750 
z
" transform="scale(0.015625)"/>
        <path id="DejaVuSans-2d" d="M 313 2009 
L 1997 2009 
L 1997 1497 
L 313 1497 
L 313 2009 
z
" transform="scale(0.015625)"/>
        <path id="DejaVuSans-35" d="M 691 4666 
L 3169 4666 
L 3169 4134 
L 1269 4134 
L 1269 2991 
Q 1406 3038 1543 3061 
Q 1681 3084 1819 3084 
Q 2600 3084 3056 2656 
Q 3513 2228 3513 1497 
Q 3513 744 3044 326 
Q 2575 -91 1722 -91 
Q 1428 -91 1123 -41 
Q 819 9 494 109 
L 494 744 
Q 775 591 1075 516 
Q 1375 441 1709 441 
Q 2250 441 2565 725 
Q 2881 1009 2881 1497 
Q 2881 1984 2565 2268 
Q 2250 2553 1709 2553 
Q 1456 2553 1204 2497 
Q 953 2441 691 2322 
L 691 4666 
z
" transform="scale(0.015625)"/>
        <path id="DejaVuSans-31" d="M 794 531 
L 1825 531 
L 1825 4091 
L 703 3866 
L 703 4441 
L 1819 4666 
L 2450 4666 
L 2450 531 
L 3481 531 
L 3481 0 
L 794 0 
L 794 531 
z
" transform="scale(0.015625)"/>
       </defs>
       <use xlink:href="#DejaVuSans-32"/>
       <use xlink:href="#DejaVuSans-30" x="63.623047"/>
       <use xlink:href="#DejaVuSans-32" x="127.246094"/>
       <use xlink:href="#DejaVuSans-30" x="190.869141"/>
       <use xlink:href="#DejaVuSans-2d" x="254.492188"/>
       <use xlink:href="#DejaVuSans-30" x="290.576172"/>
       <use xlink:href="#DejaVuSans-35" x="354.199219"/>
       <use xlink:href="#DejaVuSans-2d" x="417.822266"/>
       <use xlink:href="#DejaVuSans-31" x="453.90625"/>
       <use xlink:href="#DejaVuSans-35" x="517.529297"/>
      </g>
     </g>
    </g>
    <g id="xtick_2">
     <g id="line2d_2">
      <g>
       <use xlink:href="#m43c4914d28" x="212.435902" y="320.4" style="stroke: #000000; stroke-width: 0.8"/>
      </g>
     </g>
     <g id="text_2">
      <!-- 2020-06-01 -->
      <g transform="translate(183.37809 334.998438) scale(0.1 -0.1)">
       <defs>
        <path id="DejaVuSans-36" d="M 2113 2584 
Q 1688 2584 1439 2293 
Q 1191 2003 1191 1497 
Q 1191 994 1439 701 
Q 1688 409 2113 409 
Q 2538 409 2786 701 
Q 3034 994 3034 1497 
Q 3034 2003 2786 2293 
Q 2538 2584 2113 2584 
z
M 3366 4563 
L 3366 3988 
Q 3128 4100 2886 4159 
Q 2644 4219 2406 4219 
Q 1781 4219 1451 3797 
Q 1122 3375 1075 2522 
Q 1259 2794 1537 2939 
Q 1816 3084 2150 3084 
Q 2853 3084 3261 2657 
Q 3669 2231 3669 1497 
Q 3669 778 3244 343 
Q 2819 -91 2113 -91 
Q 1303 -91 875 529 
Q 447 1150 447 2328 
Q 447 3434 972 4092 
Q 1497 4750 2381 4750 
Q 2619 4750 2861 4703 
Q 3103 4656 3366 4563 
z
" transform="scale(0.015625)"/>
       </defs>
       <use xlink:href="#DejaVuSans-32"/>
       <use xlink:href="#DejaVuSans-30" x="63.623047"/>
       <use xlink:href="#DejaVuSans-32" x="127.246094"/>
       <use xlink:href="#DejaVuSans-30" x="190.869141"/>
       <use xlink:href="#DejaVuSans-2d" x="254.492188"/>
       <use xlink:href="#DejaVuSans-30" x="290.576172"/>
       <use xlink:href="#DejaVuSans-36" x="354.199219"/>
       <use xlink:href="#DejaVuSans-2d" x="417.822266"/>
       <use xlink:href="#DejaVuSans-30" x="453.90625"/>
       <use xlink:href="#DejaVuSans-31" x="517.529297"/>
      </g>
     </g>
    </g>
    <g id="xtick_3">
     <g id="line2d_3">
      <g>
       <use xlink:href="#m43c4914d28" x="280.427924" y="320.4" style="stroke: #000000; stroke-width: 0.8"/>
      </g>
     </g>
     <g id="text_3">
      <!-- 2020-06-15 -->
      <g transform="translate(251.370111 334.998438) scale(0.1 -0.1)">
       <use xlink:href="#DejaVuSans-32"/>
       <use xlink:href="#DejaVuSans-30" x="63.623047"/>
       <use xlink:href="#DejaVuSans-32" x="127.246094"/>
       <use xlink:href="#DejaVuSans-30" x="190.869141"/>
       <use xlink:href="#DejaVuSans-2d" x="254.492188"/>
       <use xlink:href="#DejaVuSans-30" x="290.576172"/>
       <use xlink:href="#DejaVuSans-36" x="354.199219"/>
       <use xlink:href="#DejaVuSans-2d" x="417.822266"/>
       <use xlink:href="#DejaVuSans-31" x="453.90625"/>
       <use xlink:href="#DejaVuSans-35" x="517.529297"/>
      </g>
     </g>
    </g>
    <g id="xtick_4">
     <g id="line2d_4">
      <g>
       <use xlink:href="#m43c4914d28" x="358.133092" y="320.4" style="stroke: #000000; stroke-width: 0.8"/>
      </g>
     </g>
     <g id="text_4">
      <!-- 2020-07-01 -->
      <g transform="translate(329.075279 334.998438) scale(0.1 -0.1)">
       <defs>
        <path id="DejaVuSans-37" d="M 525 4666 
L 3525 4666 
L 3525 4397 
L 1831 0 
L 1172 0 
L 2766 4134 
L 525 4134 
L 525 4666 
z
" transform="scale(0.015625)"/>
       </defs>
       <use xlink:href="#DejaVuSans-32"/>
       <use xlink:href="#DejaVuSans-30" x="63.623047"/>
       <use xlink:href="#DejaVuSans-32" x="127.246094"/>
       <use xlink:href="#DejaVuSans-30" x="190.869141"/>
       <use xlink:href="#DejaVuSans-2d" x="254.492188"/>
       <use xlink:href="#DejaVuSans-30" x="290.576172"/>
       <use xlink:href="#DejaVuSans-37" x="354.199219"/>
       <use xlink:href="#DejaVuSans-2d" x="417.822266"/>
       <use xlink:href="#DejaVuSans-30" x="453.90625"/>
       <use xlink:href="#DejaVuSans-31" x="517.529297"/>
      </g>
     </g>
    </g>
    <g id="xtick_5">
     <g id="line2d_5">
      <g>
       <use xlink:href="#m43c4914d28" x="426.125113" y="320.4" style="stroke: #000000; stroke-width: 0.8"/>
      </g>
     </g>
     <g id="text_5">
      <!-- 2020-07-15 -->
      <g transform="translate(397.067301 334.998438) scale(0.1 -0.1)">
       <use xlink:href="#DejaVuSans-32"/>
       <use xlink:href="#DejaVuSans-30" x="63.623047"/>
       <use xlink:href="#DejaVuSans-32" x="127.246094"/>
       <use xlink:href="#DejaVuSans-30" x="190.869141"/>
       <use xlink:href="#DejaVuSans-2d" x="254.492188"/>
       <use xlink:href="#DejaVuSans-30" x="290.576172"/>
       <use xlink:href="#DejaVuSans-37" x="354.199219"/>
       <use xlink:href="#DejaVuSans-2d" x="417.822266"/>
       <use xlink:href="#DejaVuSans-31" x="453.90625"/>
       <use xlink:href="#DejaVuSans-35" x="517.529297"/>
      </g>
     </g>
    </g>
    <g id="xtick_6">
     <g id="line2d_6">
      <g>
       <use xlink:href="#m43c4914d28" x="508.686854" y="320.4" style="stroke: #000000; stroke-width: 0.8"/>
      </g>
     </g>
     <g id="text_6">
      <!-- 2020-08-01 -->
      <g transform="translate(479.629042 334.998438) scale(0.1 -0.1)">
       <defs>
        <path id="DejaVuSans-38" d="M 2034 2216 
Q 1584 2216 1326 1975 
Q 1069 1734 1069 1313 
Q 1069 891 1326 650 
Q 1584 409 2034 409 
Q 2484 409 2743 651 
Q 3003 894 3003 1313 
Q 3003 1734 2745 1975 
Q 2488 2216 2034 2216 
z
M 1403 2484 
Q 997 2584 770 2862 
Q 544 3141 544 3541 
Q 544 4100 942 4425 
Q 1341 4750 2034 4750 
Q 2731 4750 3128 4425 
Q 3525 4100 3525 3541 
Q 3525 3141 3298 2862 
Q 3072 2584 2669 2484 
Q 3125 2378 3379 2068 
Q 3634 1759 3634 1313 
Q 3634 634 3220 271 
Q 2806 -91 2034 -91 
Q 1263 -91 848 271 
Q 434 634 434 1313 
Q 434 1759 690 2068 
Q 947 2378 1403 2484 
z
M 1172 3481 
Q 1172 3119 1398 2916 
Q 1625 2713 2034 2713 
Q 2441 2713 2670 2916 
Q 2900 3119 2900 3481 
Q 2900 3844 2670 4047 
Q 2441 4250 2034 4250 
Q 1625 4250 1398 4047 
Q 1172 3844 1172 3481 
z
" transform="scale(0.015625)"/>
       </defs>
       <use xlink:href="#DejaVuSans-32"/>
       <use xlink:href="#DejaVuSans-30" x="63.623047"/>
       <use xlink:href="#DejaVuSans-32" x="127.246094"/>
       <use xlink:href="#DejaVuSans-30" x="190.869141"/>
       <use xlink:href="#DejaVuSans-2d" x="254.492188"/>
       <use xlink:href="#DejaVuSans-30" x="290.576172"/>
       <use xlink:href="#DejaVuSans-38" x="354.199219"/>
       <use xlink:href="#DejaVuSans-2d" x="417.822266"/>
       <use xlink:href="#DejaVuSans-30" x="453.90625"/>
       <use xlink:href="#DejaVuSans-31" x="517.529297"/>
      </g>
     </g>
    </g>
   </g>
   <g id="matplotlib.axis_2">
    <g id="ytick_1">
     <g id="line2d_7">
      <defs>
       <path id="m7a2ac8497b" d="M 0 0 
L -3.5 0 
" style="stroke: #000000; stroke-width: 0.8"/>
      </defs>
      <g>
       <use xlink:href="#m7a2ac8497b" x="72" y="315.760146" style="stroke: #000000; stroke-width: 0.8"/>
      </g>
     </g>
     <g id="text_7">
      <!-- −2 -->
      <g transform="translate(50.257812 319.559365) scale(0.1 -0.1)">
       <defs>
        <path id="DejaVuSans-2212" d="M 678 2272 
L 4684 2272 
L 4684 1741 
L 678 1741 
L 678 2272 
z
" transform="scale(0.015625)"/>
       </defs>
       <use xlink:href="#DejaVuSans-2212"/>
       <use xlink:href="#DejaVuSans-32" x="83.789062"/>
      </g>
     </g>
    </g>
    <g id="ytick_2">
     <g id="line2d_8">
      <g>
       <use xlink:href="#m7a2ac8497b" x="72" y="262.986336" style="stroke: #000000; stroke-width: 0.8"/>
      </g>
     </g>
     <g id="text_8">
      <!-- −1 -->
      <g transform="translate(50.257812 266.785555) scale(0.1 -0.1)">
       <use xlink:href="#DejaVuSans-2212"/>
       <use xlink:href="#DejaVuSans-31" x="83.789062"/>
      </g>
     </g>
    </g>
    <g id="ytick_3">
     <g id="line2d_9">
      <g>
       <use xlink:href="#m7a2ac8497b" x="72" y="210.212526" style="stroke: #000000; stroke-width: 0.8"/>
      </g>
     </g>
     <g id="text_9">
      <!-- 0 -->
      <g transform="translate(58.6375 214.011744) scale(0.1 -0.1)">
       <use xlink:href="#DejaVuSans-30"/>
      </g>
     </g>
    </g>
    <g id="ytick_4">
     <g id="line2d_10">
      <g>
       <use xlink:href="#m7a2ac8497b" x="72" y="157.438716" style="stroke: #000000; stroke-width: 0.8"/>
      </g>
     </g>
     <g id="text_10">
      <!-- 1 -->
      <g transform="translate(58.6375 161.237934) scale(0.1 -0.1)">
       <use xlink:href="#DejaVuSans-31"/>
      </g>
     </g>
    </g>
    <g id="ytick_5">
     <g id="line2d_11">
      <g>
       <use xlink:href="#m7a2ac8497b" x="72" y="104.664906" style="stroke: #000000; stroke-width: 0.8"/>
      </g>
     </g>
     <g id="text_11">
      <!-- 2 -->
      <g transform="translate(58.6375 108.464124) scale(0.1 -0.1)">
       <use xlink:href="#DejaVuSans-32"/>
      </g>
     </g>
    </g>
    <g id="ytick_6">
     <g id="line2d_12">
      <g>
       <use xlink:href="#m7a2ac8497b" x="72" y="51.891095" style="stroke: #000000; stroke-width: 0.8"/>
      </g>
     </g>
     <g id="text_12">
      <!-- 3 -->
      <g transform="translate(58.6375 55.690314) scale(0.1 -0.1)">
       <defs>
        <path id="DejaVuSans-33" d="M 2597 2516 
Q 3050 2419 3304 2112 
Q 3559 1806 3559 1356 
Q 3559 666 3084 287 
Q 2609 -91 1734 -91 
Q 1441 -91 1130 -33 
Q 819 25 488 141 
L 488 750 
Q 750 597 1062 519 
Q 1375 441 1716 441 
Q 2309 441 2620 675 
Q 2931 909 2931 1356 
Q 2931 1769 2642 2001 
Q 2353 2234 1838 2234 
L 1294 2234 
L 1294 2753 
L 1863 2753 
Q 2328 2753 2575 2939 
Q 2822 3125 2822 3475 
Q 2822 3834 2567 4026 
Q 2313 4219 1838 4219 
Q 1578 4219 1281 4162 
Q 984 4106 628 3988 
L 628 4550 
Q 988 4650 1302 4700 
Q 1616 4750 1894 4750 
Q 2613 4750 3031 4423 
Q 3450 4097 3450 3541 
Q 3450 3153 3228 2886 
Q 3006 2619 2597 2516 
z
" transform="scale(0.015625)"/>
       </defs>
       <use xlink:href="#DejaVuSans-33"/>
      </g>
     </g>
    </g>
   </g>
   <g id="line2d_13">
    <path d="M 72 287.286388 
L 72.404714 298.470318 
L 72.607072 296.772017 
L 72.809429 286.250839 
L 73.214143 255.764276 
L 73.618858 243.503376 
L 75.035358 161.695004 
L 75.237715 158.774756 
L 75.440073 163.766102 
L 75.64243 171.864095 
L 75.844787 175.115719 
L 76.047144 190.151891 
L 76.654216 259.450831 
L 77.05893 283.185614 
L 77.261287 287.493498 
L 77.463645 287.120701 
L 77.666002 276.558101 
L 78.070716 248.4533 
L 78.475431 236.150978 
L 78.677788 227.141702 
L 79.487217 170.932101 
L 79.891931 154.881091 
L 80.094288 156.807213 
L 80.903717 198.643393 
L 81.713146 272.95439 
L 82.11786 287.410654 
L 82.320218 289.419619 
L 82.522575 289.129666 
L 82.724932 286.644348 
L 82.927289 279.913279 
L 83.332004 257.234756 
L 83.736718 243.109867 
L 83.939075 240.106775 
L 84.141432 240.376018 
L 84.546147 246.692867 
L 84.748504 248.763965 
L 84.950861 248.784676 
L 85.355576 252.926872 
L 85.557933 249.633826 
L 85.76029 255.681433 
L 86.569719 300.044352 
L 86.772076 306.050537 
L 86.974433 307.624571 
L 87.176791 307.686704 
L 87.379148 306.361201 
L 87.581505 302.674647 
L 87.783862 296.005711 
L 88.188577 274.238471 
L 88.390934 269.122859 
L 89.200363 261.149131 
L 89.40272 257.069068 
L 89.807434 242.467827 
L 90.212149 240.044642 
L 90.414506 237.372926 
L 90.616863 245.222387 
L 91.223935 295.156561 
L 91.628649 306.050537 
L 91.831006 306.11267 
L 92.033364 303.648063 
L 92.842792 258.083906 
L 93.04515 255.971386 
L 93.449864 247.479884 
L 93.652221 246.96211 
L 93.854578 244.062573 
L 94.056936 243.441243 
L 94.259293 240.852371 
L 94.46165 234.535522 
L 94.664007 231.718828 
L 94.866364 232.630111 
L 95.068722 235.736758 
L 95.271079 231.946649 
L 95.473436 241.929342 
L 96.080508 295.529359 
L 96.485222 304.621479 
L 96.687579 306.506178 
L 96.889937 302.219005 
L 97.699365 257.359022 
L 98.306437 246.982821 
L 98.508794 246.610023 
L 99.52058 225.650511 
L 99.722937 226.89317 
L 99.925295 231.201054 
L 100.127652 229.399199 
L 100.330009 239.423313 
L 100.937081 293.085463 
L 101.341795 305.201386 
L 101.544152 306.174803 
L 101.74651 302.508959 
L 101.948867 290.7037 
L 102.353581 261.045576 
L 102.555938 259.512964 
L 103.567724 241.950053 
L 104.377153 220.120679 
L 104.57951 221.384049 
L 104.781868 226.706771 
L 104.984225 226.68606 
L 105.186582 235.467516 
L 105.793654 289.978816 
L 106.198368 302.571092 
L 106.400725 304.310814 
L 106.603083 300.334306 
L 107.412511 254.977259 
L 107.614869 253.278959 
L 107.817226 249.654537 
L 108.22194 235.301828 
L 108.626655 213.865963 
L 108.829012 208.004756 
L 109.031369 206.140768 
L 109.638441 214.715113 
L 109.840798 220.079257 
L 110.043155 230.351904 
L 110.650227 284.718227 
L 111.054941 298.801694 
L 111.257298 300.686393 
L 111.459655 298.967381 
L 111.662013 287.700608 
L 112.066727 258.808791 
L 112.471442 244.00044 
L 113.887942 176.441222 
L 114.090299 174.100881 
L 114.292656 180.83195 
L 114.495014 192.119434 
L 114.697371 196.655139 
L 115.102085 230.248349 
L 115.709157 279.001996 
L 116.113871 292.774798 
L 116.316228 292.940486 
L 116.518586 291.304319 
L 116.720943 287.721319 
L 117.125657 260.817756 
L 118.542158 157.449253 
L 118.744515 147.46656 
L 118.946872 143.635029 
L 119.149229 147.259451 
L 119.756301 184.663481 
L 120.56573 263.033831 
L 120.970444 282.605707 
L 121.172801 286.644348 
L 121.375159 288.259805 
L 121.577516 286.830747 
L 121.779873 279.001996 
L 122.589302 228.632892 
L 123.196374 203.489762 
L 123.398731 198.974768 
L 123.601088 199.181878 
L 123.803445 198.622682 
L 124.410517 211.856998 
L 124.612874 222.688841 
L 125.219946 278.277112 
L 125.62466 292.629821 
L 125.827017 294.597365 
L 126.029374 292.091336 
L 127.04116 236.39951 
L 127.648232 199.451121 
L 128.255304 157.59423 
L 128.457661 150.138277 
L 128.660018 149.806901 
L 129.26709 193.589914 
L 130.278876 283.30988 
L 130.481233 291.035076 
L 130.68359 292.402001 
L 130.885947 289.85455 
L 132.504805 182.281718 
L 133.111877 140.134873 
L 133.314234 130.835643 
L 133.516591 132.513233 
L 133.921306 147.694381 
L 134.123663 155.026068 
L 135.135449 263.551605 
L 135.540163 276.019615 
L 135.74252 275.087621 
L 135.944878 264.628576 
L 136.349592 233.603528 
L 136.551949 226.913881 
L 136.754306 215.191466 
L 136.956664 219.70646 
L 137.159021 208.543241 
L 137.766092 199.823919 
L 137.96845 200.217427 
L 138.373164 194.873994 
L 138.777879 202.329947 
L 138.980236 203.158386 
L 139.182593 214.818668 
L 139.789665 270.759026 
L 140.194379 285.940175 
L 140.396736 287.990562 
L 140.599093 285.008181 
L 141.003808 255.163658 
L 141.408522 234.245568 
L 142.015594 221.011251 
L 142.622665 211.981264 
L 142.825023 211.712021 
L 143.02738 210.510784 
L 143.229737 211.194247 
L 143.634451 216.413414 
L 143.836809 215.191466 
L 144.039166 225.257002 
L 144.646238 274.01065 
L 145.050952 285.960886 
L 145.253309 287.244967 
L 145.455666 284.138319 
L 145.860381 254.832282 
L 146.062738 238.574163 
L 146.66981 222.295332 
L 146.872167 219.644327 
L 147.074524 218.567356 
L 147.479238 207.590536 
L 147.681596 215.957772 
L 147.883953 216.931188 
L 148.08631 219.520061 
L 148.491024 228.736447 
L 148.693382 227.390233 
L 149.098096 250.77293 
L 149.502811 278.629199 
L 149.907525 291.614983 
L 150.109882 293.66537 
L 150.312239 293.085463 
L 150.514597 290.26877 
L 150.716954 284.57325 
L 151.121668 263.738004 
L 151.526383 243.275555 
L 151.931097 237.476481 
L 152.133454 237.04155 
L 152.335811 239.009093 
L 152.538169 239.526868 
L 152.740526 237.476481 
L 152.942883 237.766435 
L 153.14524 236.793018 
L 153.347597 236.83444 
L 153.549955 233.914192 
L 153.752312 236.109556 
L 154.764098 287.514209 
L 154.966455 291.470006 
L 155.168812 292.857642 
L 155.573527 288.922556 
L 155.775884 277.862892 
L 156.78767 200.010317 
L 157.799456 157.428542 
L 158.001813 159.437507 
L 158.406528 172.630402 
L 158.608885 186.175383 
L 159.215956 254.749438 
L 159.620671 276.33028 
L 159.823028 279.540482 
L 160.025385 278.629199 
L 160.227743 268.832905 
L 160.632457 236.39951 
L 161.8466 186.133961 
L 162.251315 176.089135 
L 162.453672 176.234112 
L 162.656029 179.092227 
L 163.465458 210.883582 
L 164.072529 270.696893 
L 164.477244 289.295354 
L 164.679601 289.626729 
L 164.881958 286.395816 
L 165.084316 276.247436 
L 165.48903 244.497503 
L 166.500816 209.433814 
L 167.310245 166.541373 
L 167.512602 169.896552 
L 167.917316 190.462556 
L 168.119674 194.915416 
L 168.322031 206.265034 
L 168.929102 265.643414 
L 169.333817 280.824563 
L 169.536174 284.345429 
L 169.738531 280.679586 
L 170.143246 253.403225 
L 170.54796 223.103061 
L 171.357389 178.553742 
L 171.559746 172.526847 
L 172.166818 148.336422 
L 172.369175 149.951878 
L 172.571532 157.863473 
L 173.178604 196.820826 
L 173.785675 267.8802 
L 174.19039 287.265677 
L 174.392747 290.248059 
L 174.595104 288.425492 
L 174.999819 264.235067 
L 175.404533 239.236914 
L 177.023391 161.011542 
L 177.225748 161.529316 
L 177.428105 165.443691 
L 177.630462 182.033187 
L 177.83282 184.477082 
L 178.237534 228.59147 
L 178.642248 271.504621 
L 179.046963 290.7037 
L 179.24932 294.431677 
L 179.451677 291.904937 
L 179.654034 283.206325 
L 180.261106 243.337688 
L 181.879964 146.327457 
L 182.082321 143.055122 
L 182.284678 148.72993 
L 183.094107 205.105219 
L 183.498821 244.145416 
L 183.903536 265.622703 
L 184.30825 273.472165 
L 184.510607 274.839089 
L 184.712965 271.193957 
L 184.915322 257.793953 
L 185.724751 175.674916 
L 186.129465 154.259762 
L 186.331822 148.191445 
L 186.53418 147.425138 
L 186.736537 149.972589 
L 187.748323 190.483267 
L 188.557752 254.79086 
L 188.962466 268.998593 
L 189.164823 271.04898 
L 189.36718 271.131824 
L 189.569538 270.386229 
L 189.771895 259.575097 
L 190.986038 163.372593 
L 191.188395 158.049871 
L 191.390752 158.008449 
L 191.795467 167.183414 
L 192.604896 198.58126 
L 193.414325 262.101836 
L 193.819039 275.853927 
L 194.021396 276.930898 
L 194.426111 272.95439 
L 194.628468 263.965825 
L 195.437897 202.847722 
L 195.640254 197.814954 
L 195.842611 199.036901 
L 196.247325 205.12593 
L 196.449683 205.705837 
L 196.65204 205.312328 
L 197.056754 213.555299 
L 197.259112 214.404449 
L 197.461469 222.854529 
L 198.06854 271.401067 
L 198.473255 285.650221 
L 198.675612 285.753776 
L 198.877969 282.087932 
L 199.282684 251.166439 
L 199.687398 228.239384 
L 201.306256 161.529316 
L 201.508613 160.369501 
L 202.115684 179.651424 
L 202.318042 190.856064 
L 202.925113 255.225791 
L 203.329828 272.95439 
L 203.532185 275.06691 
L 203.734542 272.063818 
L 203.936899 260.48638 
L 204.341614 226.333973 
L 205.758114 171.408454 
L 205.960471 168.902425 
L 206.162829 169.047402 
L 206.365186 170.47646 
L 206.7699 182.385273 
L 206.972257 185.595475 
L 207.174615 196.489451 
L 207.781686 255.826409 
L 208.186401 272.063818 
L 208.388758 275.129043 
L 208.591115 271.773864 
L 208.793472 259.84434 
L 209.198187 225.878332 
L 209.805258 203.489762 
L 210.209973 183.503666 
L 210.817044 141.605353 
L 211.019402 133.072429 
L 211.221759 136.05481 
L 211.626473 160.659455 
L 211.82883 165.899333 
L 212.031188 180.707684 
L 212.638259 246.092249 
L 213.042974 264.773553 
L 213.245331 268.791483 
L 213.447688 267.072472 
L 213.650045 256.302762 
L 214.257117 212.809703 
L 214.661831 186.320359 
L 215.47126 126.652025 
L 215.875975 109.834709 
L 216.078332 109.358357 
L 216.280689 114.92961 
L 217.090118 179.050805 
L 217.697189 241.308012 
L 218.101904 259.865051 
L 218.304261 263.24094 
L 218.506618 264.607865 
L 218.708976 263.344495 
L 218.911333 250.545109 
L 219.518404 195.453902 
L 220.125476 160.058836 
L 220.327833 157.884184 
L 220.53019 160.120969 
L 221.541976 202.661323 
L 221.744334 207.839068 
L 222.553762 265.042796 
L 222.958477 275.978193 
L 223.160834 277.697205 
L 223.363191 278.049291 
L 223.565549 276.475257 
L 223.767906 267.714512 
L 224.374977 229.295644 
L 224.779692 221.674003 
L 225.386763 223.745101 
L 225.589121 227.286679 
L 225.791478 228.177251 
L 226.196192 236.60662 
L 226.398549 236.254533 
L 226.600907 242.716359 
L 227.410335 296.627041 
L 227.612693 300.686393 
L 227.81505 302.384693 
L 228.017407 299.174491 
L 228.826836 256.344184 
L 229.029193 254.003843 
L 229.23155 248.22548 
L 230.648051 184.456371 
L 230.850408 185.036279 
L 231.255122 199.533965 
L 231.45748 210.490073 
L 232.064551 274.528425 
L 232.469266 291.801382 
L 232.671623 294.535232 
L 232.87398 293.313284 
L 233.278694 267.8802 
L 233.683409 245.222387 
L 235.302267 180.272753 
L 235.504624 179.672135 
L 236.111695 198.891925 
L 236.314053 209.309548 
L 236.921124 271.794575 
L 237.325839 287.762741 
L 237.528196 290.91081 
L 237.730553 288.777579 
L 238.135267 264.690709 
L 238.539982 242.778492 
L 239.349411 211.670599 
L 239.754125 201.605063 
L 240.15884 191.332417 
L 240.361197 191.083885 
L 240.563554 196.572295 
L 240.968268 214.280183 
L 241.170626 221.901824 
L 241.777697 277.759338 
L 242.182412 293.706792 
L 242.384769 296.212821 
L 242.587126 293.209729 
L 242.99184 268.356552 
L 243.396555 250.296578 
L 245.21777 175.219274 
L 245.420127 179.485736 
L 246.027199 206.430721 
L 246.836627 280.327499 
L 247.038985 288.736157 
L 247.241342 291.925648 
L 247.443699 289.378197 
L 247.848413 265.684836 
L 249.467271 153.058525 
L 249.669628 144.939821 
L 249.871985 142.992989 
L 250.074343 143.158677 
L 250.2767 150.138277 
L 250.883772 182.426695 
L 251.6932 257.814663 
L 252.097915 272.415905 
L 252.300272 275.501841 
L 252.502629 275.771083 
L 252.704986 271.877419 
L 253.109701 238.94696 
L 253.91913 165.340136 
L 254.323844 149.454815 
L 254.728558 140.590515 
L 254.930916 139.327145 
L 255.133273 146.865942 
L 255.740345 184.539215 
L 256.549773 260.155004 
L 256.954488 275.70895 
L 257.156845 279.540482 
L 257.359202 281.218071 
L 257.561559 280.244655 
L 257.966274 251.207861 
L 258.573345 200.548803 
L 258.97806 178.760852 
L 259.382774 167.680477 
L 259.585131 164.221743 
L 259.787489 163.786813 
L 259.989846 166.417107 
L 260.39456 182.488828 
L 260.596917 195.909543 
L 261.203989 258.228883 
L 261.608704 277.034453 
L 261.811061 279.975412 
L 262.013418 279.188395 
L 262.418132 255.101525 
L 262.62049 243.027024 
L 263.025204 233.313574 
L 263.227561 230.49688 
L 263.429918 229.482042 
L 263.834633 230.766123 
L 264.03699 230.455459 
L 264.239347 231.408164 
L 264.441704 231.491008 
L 264.644062 231.221765 
L 264.846419 233.272152 
L 265.048776 237.331504 
L 265.251133 237.331504 
L 265.45349 241.370145 
L 266.060562 284.055476 
L 266.465277 296.958416 
L 266.667634 298.51174 
L 266.869991 294.307411 
L 267.072348 286.312972 
L 267.477063 259.678652 
L 268.084134 237.393637 
L 268.488849 227.058858 
L 269.09592 215.750662 
L 269.500635 211.774154 
L 269.702992 213.969518 
L 269.905349 217.59394 
L 270.107706 218.277402 
L 270.310063 224.614962 
L 270.917135 273.720696 
L 271.32185 285.753776 
L 271.524207 287.907718 
L 271.726564 286.188707 
L 274.15485 143.883561 
L 274.357208 136.67614 
L 274.559565 140.031319 
L 275.166636 165.319425 
L 275.976065 247.314196 
L 276.38078 259.947894 
L 276.583137 259.243721 
L 276.987851 237.290082 
L 277.392566 208.232577 
L 278.404352 150.987427 
L 278.606709 147.922202 
L 279.011423 134.625753 
L 279.213781 133.010296 
L 279.416138 137.297469 
L 280.023209 179.237204 
L 280.630281 250.959329 
L 281.034995 273.865673 
L 281.237353 278.774176 
L 281.43971 277.220852 
L 281.642067 271.297512 
L 282.249139 229.316355 
L 282.85621 195.495324 
L 283.867996 152.478618 
L 284.070354 151.277381 
L 284.272711 159.478929 
L 285.284497 243.006313 
L 285.689211 275.356864 
L 286.093926 290.185926 
L 286.296283 292.484845 
L 286.49864 290.662278 
L 286.700997 287.700608 
L 287.105712 256.509872 
L 287.712783 204.670288 
L 288.522212 160.990831 
L 288.724569 153.824831 
L 288.926927 151.877999 
L 289.129284 155.48171 
L 289.736355 189.489139 
L 290.545784 259.968605 
L 290.950499 275.336153 
L 291.152856 278.132135 
L 291.355213 278.214979 
L 291.55757 276.723789 
L 291.759927 264.172934 
L 292.771714 164.925917 
L 293.176428 142.80659 
L 293.581142 131.498395 
L 293.7835 129.758672 
L 293.985857 133.30025 
L 294.592928 158.981865 
L 295.402357 242.757781 
L 295.807072 257.545421 
L 296.009429 257.379733 
L 296.414143 236.958706 
L 297.830644 101.011832 
L 298.235358 87.611827 
L 298.437715 85.002244 
L 298.640073 85.271487 
L 298.84243 87.342585 
L 299.044787 95.440578 
L 299.449501 122.613384 
L 300.056573 202.205681 
L 300.461287 227.638765 
L 300.663645 233.707082 
L 300.866002 234.431967 
L 301.068359 227.555921 
L 301.473073 197.276468 
L 302.484859 91.174116 
L 302.687217 79.762366 
L 302.889574 79.865921 
L 303.091931 88.026047 
L 303.496646 96.74537 
L 303.90136 119.175361 
L 304.306074 147.342295 
L 304.913146 217.117587 
L 305.31786 242.674937 
L 305.520218 248.287613 
L 305.722575 246.485757 
L 305.924932 239.299047 
L 306.532004 199.01619 
L 307.54379 128.43317 
L 307.746147 118.139812 
L 307.948504 117.24924 
L 308.757933 149.78619 
L 309.162647 176.068424 
L 309.769719 239.589001 
L 310.174433 259.63723 
L 310.376791 264.06938 
L 310.579148 263.489472 
L 310.983862 239.878955 
L 312.198005 134.977839 
L 312.60272 123.255424 
L 312.805077 118.843986 
L 313.007434 119.403182 
L 313.209791 123.131159 
L 313.816863 150.946005 
L 314.01922 164.739518 
L 314.626292 227.845875 
L 315.031006 248.515433 
L 315.233364 253.133982 
L 315.435721 252.471231 
L 315.840435 233.541395 
L 316.24515 214.673692 
L 316.649864 202.557768 
L 317.054578 187.128088 
L 317.66165 179.547869 
L 317.864007 179.092227 
L 318.066364 178.180944 
L 318.268722 182.903048 
L 318.875793 205.229485 
L 319.685222 264.317911 
L 320.089937 277.200141 
L 320.292294 278.857019 
L 320.697008 270.862581 
L 321.101723 244.414659 
L 322.315866 165.8372 
L 322.72058 155.502421 
L 322.922937 153.16208 
L 323.125295 157.324987 
L 323.732366 185.181256 
L 324.541795 254.293797 
L 324.94651 268.708639 
L 325.148867 271.628887 
L 325.351224 271.69102 
L 325.553581 269.412812 
L 325.755938 256.986224 
L 326.970082 143.635029 
L 327.172439 137.256047 
L 327.374796 135.661302 
L 327.77951 130.048626 
L 327.981868 135.081394 
L 328.184225 143.945694 
L 328.791296 196.033809 
L 329.196011 240.127486 
L 329.398368 255.495034 
L 329.803083 265.684836 
L 330.00544 264.732131 
L 330.207797 259.078033 
L 330.814869 210.158698 
L 331.42194 171.615563 
L 331.826655 148.750641 
L 332.029012 145.830393 
L 332.231369 145.851104 
L 332.433726 146.037503 
L 332.636083 148.150023 
L 332.838441 152.727149 
L 333.243155 175.840603 
L 333.445512 184.932724 
L 334.052584 251.207861 
L 334.457298 273.182211 
L 334.659655 278.64991 
L 334.862013 276.226725 
L 335.266727 256.219918 
L 335.671442 231.656695 
L 336.48087 191.208151 
L 336.683228 186.092539 
L 336.885585 184.974146 
L 337.087942 178.740141 
L 337.290299 176.876152 
L 337.695014 183.400111 
L 338.099728 197.980641 
L 338.302085 203.903982 
L 339.111514 270.282674 
L 339.313871 276.53739 
L 339.516228 278.794887 
L 339.718586 274.694112 
L 340.1233 251.145728 
L 340.932729 206.306455 
L 342.349229 144.028538 
L 342.551587 143.945694 
L 343.158658 168.840292 
L 343.76573 232.133048 
L 344.170444 250.296578 
L 344.372801 255.101525 
L 344.575159 252.947583 
L 344.777516 245.967983 
L 345.18223 214.818668 
L 346.194016 131.477684 
L 346.598731 116.586489 
L 347.003445 109.917553 
L 347.205802 109.068403 
L 347.40816 112.278605 
L 347.610517 120.190199 
L 348.015231 146.513855 
L 348.82466 238.408475 
L 349.229374 255.660722 
L 349.431732 254.894415 
L 349.634089 249.053919 
L 349.836446 237.828567 
L 351.050589 132.513233 
L 351.455304 113.997616 
L 351.860018 105.071184 
L 352.062375 104.159901 
L 352.264733 107.825744 
L 352.46709 119.009673 
L 353.276519 202.8063 
L 353.681233 241.05948 
L 354.085947 261.418374 
L 354.288305 266.741096 
L 354.490662 267.321003 
L 354.693019 265.063507 
L 355.097733 222.66813 
L 355.704805 148.212156 
L 356.109519 123.296846 
L 356.716591 104.946918 
L 356.918948 103.849236 
L 357.121306 108.695605 
L 357.52602 134.542909 
L 357.728377 147.342295 
L 358.740163 243.648353 
L 359.144878 256.737693 
L 359.347235 258.622392 
L 359.549592 258.291016 
L 359.751949 244.166127 
L 360.763735 122.489118 
L 361.16845 103.248617 
L 361.573164 92.043977 
L 361.775521 89.724347 
L 361.977879 93.038104 
L 362.180236 100.100548 
L 362.58495 126.11354 
L 363.394379 215.647108 
L 363.799093 233.458551 
L 364.001451 234.28699 
L 364.203808 228.342939 
L 364.406165 218.194558 
L 365.013237 147.984335 
L 365.620308 82.827591 
L 366.025023 66.507338 
L 366.429737 60.273333 
L 366.632094 60.770397 
L 366.834451 63.442113 
L 367.036809 72.24428 
L 367.441523 101.716005 
L 368.048595 182.11603 
L 368.453309 212.933969 
L 368.655666 221.549737 
L 368.858024 223.952211 
L 369.060381 220.017124 
L 369.262738 210.055143 
L 369.86981 145.892526 
L 370.476881 87.135475 
L 370.881596 70.33887 
L 371.083953 69.883228 
L 371.28631 70.608113 
L 371.488667 74.584621 
L 371.691024 80.880759 
L 372.298096 120.273043 
L 373.107525 206.18219 
L 373.512239 228.653603 
L 373.714597 233.065042 
L 374.119311 232.360869 
L 374.321668 219.478639 
L 375.333454 114.515391 
L 375.738169 101.115387 
L 375.940526 98.381537 
L 376.142883 97.263144 
L 376.34524 102.503022 
L 376.749955 129.033788 
L 377.559383 188.598567 
L 377.964098 223.641546 
L 378.368812 237.600747 
L 378.57117 237.828567 
L 378.773527 231.822383 
L 378.975884 220.472766 
L 380.392384 102.482311 
L 380.797099 92.437486 
L 381.201813 84.753712 
L 381.40417 88.564532 
L 382.011242 126.030696 
L 382.820671 209.889455 
L 383.225385 226.188997 
L 383.427743 226.851748 
L 383.6301 221.446182 
L 384.034814 198.933346 
L 385.0466 124.601638 
L 385.451315 107.701478 
L 385.653672 107.225126 
L 385.856029 111.056657 
L 386.058386 118.781853 
L 387.070172 189.634116 
L 387.474887 230.248349 
L 387.879601 252.409098 
L 388.284316 261.666906 
L 388.68903 264.214356 
L 388.891387 258.394571 
L 389.700816 214.300894 
L 390.307888 202.951277 
L 390.914959 190.048336 
L 391.117316 194.894705 
L 391.926745 234.970452 
L 392.533817 279.726881 
L 392.938531 292.257024 
L 393.140888 294.141723 
L 393.343246 293.686081 
L 393.545603 294.162434 
L 393.74796 285.091025 
L 394.355032 243.399821 
L 395.569175 186.196094 
L 395.771532 180.107065 
L 395.973889 181.329013 
L 396.176247 189.758382 
L 396.783318 232.340158 
L 397.188033 271.359645 
L 397.592747 289.419619 
L 397.795104 292.236313 
L 397.997461 289.668151 
L 398.402176 271.297512 
L 400.628105 142.019573 
L 400.830462 144.898399 
L 401.03282 154.984646 
L 401.639891 212.768281 
L 402.044606 257.690398 
L 402.44932 278.277112 
L 402.651677 282.336464 
L 402.854034 280.658875 
L 403.258749 262.226102 
L 403.663463 233.43784 
L 404.877607 126.009985 
L 405.282321 105.216161 
L 405.484678 100.949699 
L 405.687035 102.047381 
L 405.889393 112.692825 
L 406.294107 150.552496 
L 406.901179 228.984979 
L 407.305893 253.361803 
L 407.50825 259.036611 
L 407.710607 258.498126 
L 408.115322 236.979417 
L 409.73418 102.958664 
L 409.936537 97.967318 
L 410.138894 97.822341 
L 410.341251 102.482311 
L 410.948323 139.057902 
L 411.15068 155.171045 
L 411.757752 226.68606 
L 412.162466 251.062884 
L 412.364823 257.628265 
L 412.56718 259.43012 
L 412.971895 241.142324 
L 414.388395 141.771041 
L 414.79311 128.060372 
L 415.197824 121.308592 
L 415.400181 128.163927 
L 416.20961 191.518816 
L 416.614325 237.331504 
L 417.019039 260.69349 
L 417.221396 265.001374 
L 417.423753 264.442177 
L 417.828468 248.080503 
L 419.244968 149.102728 
L 419.649683 135.329926 
L 419.85204 131.456973 
L 420.054397 132.906741 
L 420.256754 141.667486 
L 421.066183 207.714802 
L 421.673255 263.427339 
L 422.077969 279.685459 
L 422.280326 282.191487 
L 422.482684 281.528736 
L 422.685041 281.363048 
L 423.089755 250.275867 
L 423.899184 180.479863 
L 424.708613 140.756203 
L 424.91097 137.546001 
L 425.113327 141.584642 
L 425.518042 167.970431 
L 425.720399 179.879245 
L 426.529828 255.20508 
L 426.934542 273.948517 
L 427.136899 278.463511 
L 427.339257 279.271239 
L 427.541614 279.49906 
L 427.743971 270.821159 
L 428.148685 230.103372 
L 428.755757 167.659766 
L 429.160471 141.791752 
L 429.565186 133.465938 
L 429.9699 137.421735 
L 430.374615 153.783409 
L 430.576972 165.526535 
L 431.386401 242.177873 
L 431.791115 254.521618 
L 431.993472 252.471231 
L 432.398187 231.988071 
L 433.207616 166.334263 
L 434.017044 95.357734 
L 434.219402 90.428521 
L 435.02883 118.077679 
L 435.433545 143.282942 
L 436.040617 215.087911 
L 436.445331 237.807857 
L 436.647688 242.985602 
L 436.850045 242.302139 
L 437.25476 221.529026 
L 437.659474 186.320359 
L 438.468903 112.237183 
L 438.67126 102.420178 
L 438.873617 103.393594 
L 439.075975 110.559594 
L 439.278332 110.103952 
L 439.480689 112.361449 
L 439.885403 131.063464 
L 440.290118 156.020195 
L 440.897189 230.041239 
L 441.301904 252.533364 
L 441.504261 258.001062 
L 441.706618 258.539548 
L 442.111333 243.689775 
L 442.920762 191.249573 
L 443.527833 156.103039 
L 444.134905 133.175984 
L 444.337262 130.566401 
L 444.539619 137.028226 
L 445.146691 182.447406 
L 445.753762 252.181277 
L 446.158477 273.555009 
L 446.360834 278.546355 
L 446.563191 276.53739 
L 446.967906 257.483288 
L 448.586763 146.82452 
L 448.991478 133.528071 
L 449.193835 131.18773 
L 449.396192 137.898088 
L 450.003264 178.595164 
L 450.812693 259.264432 
L 451.217407 272.664436 
L 451.419764 272.788702 
L 451.824479 255.474323 
L 452.43155 204.670288 
L 453.038622 162.440599 
L 453.443336 145.271197 
L 453.848051 137.338891 
L 454.050408 140.735492 
L 454.252765 150.801028 
L 454.65748 179.423603 
L 454.859837 187.935816 
L 455.669266 253.154693 
L 456.07398 266.803229 
L 456.276337 268.335841 
L 456.478694 266.326876 
L 456.681052 263.199518 
L 456.883409 255.142947 
L 457.288123 227.928719 
L 457.692838 216.889766 
L 457.895195 217.59394 
L 458.299909 223.393014 
L 458.502267 223.248037 
L 458.906981 219.395795 
L 459.109338 219.934281 
L 459.514053 224.117899 
L 459.71641 228.446493 
L 460.728196 286.582215 
L 461.13291 291.035076 
L 461.537625 287.700608 
L 461.739982 278.712043 
L 462.144696 243.959018 
L 463.561197 174.28728 
L 463.763554 166.976304 
L 463.965911 168.15683 
L 464.572983 187.770128 
L 465.382412 255.225791 
L 465.584769 262.18468 
L 465.787126 264.91853 
L 465.989483 262.474634 
L 467.608341 169.275223 
L 468.620127 147.942913 
L 468.822484 151.090982 
L 469.429556 177.518193 
L 470.036627 234.639077 
L 470.441342 252.554074 
L 470.643699 255.20508 
L 470.846056 252.616207 
L 471.857842 201.33582 
L 472.869628 170.869968 
L 473.071985 171.367032 
L 473.274343 169.565176 
L 473.4767 170.828546 
L 473.679057 174.639367 
L 473.881414 181.26688 
L 474.083772 182.426695 
L 474.286129 190.151891 
L 474.8932 242.633515 
L 475.297915 258.995189 
L 475.500272 260.672779 
L 475.702629 258.622392 
L 476.107344 234.07988 
L 476.512058 211.919131 
L 477.321487 180.21062 
L 477.726201 159.91386 
L 477.928558 156.33086 
L 478.333273 161.052964 
L 478.53563 165.547246 
L 479.142702 190.648954 
L 479.952131 258.891634 
L 480.356845 268.812194 
L 480.559202 268.397974 
L 480.963917 246.154382 
L 482.785131 116.876443 
L 482.987489 110.932391 
L 483.189846 108.281386 
L 483.392203 113.956194 
L 483.999275 154.094074 
L 484.606346 225.691933 
L 485.011061 249.07463 
L 485.213418 253.50678 
L 485.415775 254.459485 
L 485.82049 234.556233 
L 486.225204 203.137675 
L 487.23699 112.547848 
L 487.439347 109.441201 
L 487.844062 116.048003 
L 488.248776 134.79144 
L 489.260562 212.851125 
L 489.665277 245.222387 
L 490.069991 260.424247 
L 490.272348 262.785299 
L 490.474705 261.646195 
L 490.677063 259.865051 
L 490.87942 250.068757 
L 491.891206 169.813708 
L 492.29592 151.981554 
L 492.498277 144.546312 
L 492.700635 142.516636 
L 492.902992 144.152804 
L 493.105349 148.999173 
L 493.712421 182.73736 
L 494.52185 255.20508 
L 495.128921 273.59643 
L 495.331278 273.741407 
L 495.533636 273.120078 
L 495.735993 265.519148 
L 496.950136 173.417419 
L 497.557208 148.895618 
L 497.759565 145.519728 
L 497.961922 148.750641 
L 498.568994 180.459152 
L 499.378422 254.749438 
L 499.58078 261.625484 
L 499.783137 264.131512 
L 499.985494 260.797045 
L 500.187851 252.222699 
L 500.794923 215.0672 
L 500.99728 209.930877 
L 501.401995 196.758694 
L 501.806709 185.429787 
L 502.009066 184.974146 
L 502.211423 187.045244 
L 502.413781 187.687284 
L 502.616138 186.009695 
L 503.020852 195.785277 
L 503.223209 196.344474 
L 503.425567 203.903982 
L 504.032638 254.915126 
L 504.437353 268.066599 
L 504.63971 269.702766 
L 504.842067 267.321003 
L 505.246782 242.799203 
L 505.651496 218.836599 
L 507.270354 145.229775 
L 507.472711 142.102417 
L 507.675068 145.519728 
L 508.28214 173.728083 
L 508.889211 232.112337 
L 509.293926 249.343873 
L 509.496283 252.88545 
L 509.69864 251.042173 
L 510.103354 227.348811 
L 511.722212 120.314465 
L 512.126927 102.440889 
L 512.329284 104.035635 
L 512.936355 138.622972 
L 513.34107 177.808147 
L 513.745784 221.549737 
L 514.150499 244.414659 
L 514.352856 250.027335 
L 514.555213 250.524398 
L 514.75757 241.577255 
L 516.174071 144.214937 
L 516.376428 143.117255 
L 516.781142 152.499329 
L 516.9835 149.744768 
L 517.185857 150.283254 
L 517.590571 168.094697 
L 517.792928 172.361159 
L 517.995286 183.130869 
L 518.4 223.040928 
L 518.4 223.040928 
" clip-path="url(#p40ffee964f)" style="fill: none; stroke: #1f77b4; stroke-width: 1.5; stroke-linecap: square"/>
   </g>
   <g id="line2d_14">
    <path d="M 72 276.011922 
L 72.202357 276.011922 
L 72.607072 283.263769 
L 72.809429 283.162601 
L 73.011786 278.472848 
L 73.618858 249.96281 
L 74.428286 224.179878 
L 75.035358 185.80061 
L 75.237715 177.945608 
L 75.440073 177.146172 
L 75.844787 187.489435 
L 76.047144 196.052281 
L 76.451859 225.451966 
L 77.05893 271.904042 
L 77.261287 280.40318 
L 77.463645 282.17451 
L 77.666002 278.706324 
L 79.284859 193.678613 
L 79.689574 176.481316 
L 80.094288 168.944199 
L 80.296646 172.75745 
L 80.70136 192.500011 
L 81.915503 274.980265 
L 82.320218 285.672076 
L 82.522575 282.987588 
L 83.332004 246.276599 
L 83.534361 235.775293 
L 83.939075 227.965603 
L 84.141432 225.430951 
L 84.34379 224.92254 
L 84.748504 231.875721 
L 85.355576 244.969038 
L 85.962647 260.904425 
L 86.367362 285.3259 
L 86.974433 306.208936 
L 87.176791 307.728376 
L 87.379148 306.073029 
L 87.581505 300.084459 
L 88.390934 254.641598 
L 88.593291 252.240082 
L 88.795648 253.897005 
L 88.998005 257.180065 
L 89.200363 252.889933 
L 89.40272 253.292377 
L 89.605077 251.245014 
L 90.009791 241.867568 
L 90.212149 241.291383 
L 90.414506 242.385466 
L 90.616863 245.226282 
L 90.81922 250.197566 
L 91.628649 304.24901 
L 91.831006 307.8 
L 92.033364 304.07998 
L 92.235721 297.363232 
L 93.04515 249.115873 
L 93.247507 246.026142 
L 93.449864 246.04405 
L 93.652221 246.890333 
L 94.259293 232.059189 
L 94.46165 230.460843 
L 94.664007 227.210469 
L 94.866364 227.349368 
L 95.068722 229.700186 
L 95.473436 237.555251 
L 95.675793 248.384759 
L 96.282865 299.218687 
L 96.485222 303.468772 
L 96.687579 300.018893 
L 97.294651 276.203625 
L 97.699365 251.579724 
L 98.10408 241.888448 
L 98.306437 244.056812 
L 98.508794 244.583282 
L 98.711151 242.877983 
L 99.115866 237.153431 
L 99.52058 225.538564 
L 99.722937 225.526667 
L 99.925295 228.029203 
L 100.330009 237.771197 
L 100.734723 271.999692 
L 101.139438 294.442695 
L 101.341795 299.071437 
L 101.544152 298.741775 
L 101.74651 295.4616 
L 101.948867 289.736837 
L 102.758296 245.747574 
L 102.960653 242.163906 
L 103.16301 243.591517 
L 103.365367 246.305497 
L 103.567724 242.555925 
L 104.377153 220.678694 
L 104.57951 221.675161 
L 104.984225 229.13741 
L 105.186582 235.221463 
L 105.591296 269.860199 
L 105.996011 293.164017 
L 106.198368 296.438637 
L 106.400725 296.53011 
L 106.603083 293.860709 
L 106.80544 288.243442 
L 107.412511 249.213691 
L 107.817226 240.967276 
L 108.019583 241.369669 
L 108.22194 240.351727 
L 108.626655 224.027872 
L 109.031369 210.433616 
L 109.233726 207.148072 
L 109.436083 210.582124 
L 110.043155 229.521949 
L 110.650227 280.940568 
L 110.852584 288.374807 
L 111.257298 292.601357 
L 111.459655 291.080288 
L 111.662013 286.342163 
L 112.471442 242.609579 
L 113.685585 197.689458 
L 114.090299 189.813683 
L 114.292656 189.339084 
L 114.495014 193.505623 
L 115.102085 231.986524 
L 115.5068 264.999849 
L 115.911514 280.035703 
L 116.113871 281.825 
L 116.316228 285.907804 
L 116.518586 285.712012 
L 117.530372 233.336141 
L 118.744515 166.516474 
L 119.149229 154.79 
L 119.351587 157.224666 
L 119.958658 205.46007 
L 120.56573 260.518222 
L 120.970444 279.263555 
L 121.375159 286.032658 
L 121.577516 281.843628 
L 121.98223 264.822899 
L 122.589302 217.749438 
L 123.398731 195.79849 
L 123.601088 195.924659 
L 123.803445 197.134439 
L 124.20816 209.329457 
L 124.612874 221.425098 
L 124.815231 231.160697 
L 125.62466 296.374317 
L 125.827017 300.119816 
L 126.029374 298.561717 
L 126.231732 292.283454 
L 126.636446 263.698164 
L 127.243518 220.39168 
L 128.457661 164.959033 
L 128.660018 161.388138 
L 128.862375 164.473245 
L 129.064733 173.165653 
L 129.469447 204.792887 
L 130.076519 272.124439 
L 130.278876 283.837708 
L 130.481233 288.223543 
L 130.68359 289.115978 
L 130.885947 285.839036 
L 131.290662 266.11029 
L 132.302448 198.120479 
L 133.111877 158.31411 
L 133.516591 149.901088 
L 133.718948 150.928354 
L 133.921306 157.595198 
L 134.32602 181.411642 
L 134.933092 252.290581 
L 135.135449 264.415171 
L 135.540163 272.446362 
L 135.74252 272.509846 
L 135.944878 268.702096 
L 136.956664 199.697903 
L 137.361378 195.142741 
L 137.563735 189.888271 
L 137.766092 193.144452 
L 138.373164 197.404097 
L 139.182593 221.663432 
L 139.587307 252.320822 
L 139.789665 267.679738 
L 139.992022 272.870114 
L 140.194379 282.967759 
L 140.396736 283.372939 
L 140.599093 286.603716 
L 141.003808 266.470004 
L 141.408522 233.702684 
L 141.813237 219.442691 
L 142.420308 209.923382 
L 142.622665 207.640622 
L 142.825023 207.376223 
L 143.229737 209.259107 
L 143.634451 217.537474 
L 144.241523 242.057976 
L 144.646238 271.585641 
L 144.848595 280.042969 
L 145.050952 283.844478 
L 145.253309 283.155618 
L 145.455666 280.758308 
L 145.860381 259.873901 
L 146.265095 230.643012 
L 146.66981 217.467948 
L 146.872167 215.028316 
L 147.074524 215.637416 
L 147.479238 208.229489 
L 147.681596 208.021109 
L 148.08631 215.02313 
L 148.288667 217.253738 
L 148.491024 222.484057 
L 148.693382 230.708082 
L 148.895739 234.383356 
L 149.705168 280.377909 
L 149.907525 283.303529 
L 150.109882 284.17183 
L 150.514597 278.626062 
L 151.121668 254.365379 
L 151.72874 233.509386 
L 151.931097 234.355948 
L 152.133454 230.698846 
L 152.538169 232.351167 
L 152.942883 231.921291 
L 153.14524 234.397102 
L 153.347597 235.347896 
L 153.549955 236.993793 
L 153.954669 244.866549 
L 154.561741 275.86018 
L 155.168812 289.123892 
L 155.37117 287.645835 
L 155.775884 269.613121 
L 156.585313 222.668873 
L 156.78767 215.980571 
L 157.394742 180.081625 
L 158.001813 169.266254 
L 158.20417 170.431443 
L 158.608885 189.006544 
L 159.215956 246.961017 
L 159.620671 277.163085 
L 159.823028 284.194063 
L 160.025385 281.210533 
L 160.227743 275.839734 
L 160.4301 264.655857 
L 160.834814 234.970192 
L 161.644243 187.505188 
L 161.8466 178.60332 
L 162.048957 175.786549 
L 162.453672 180.366535 
L 162.858386 194.094636 
L 163.870172 243.686591 
L 164.274887 279.863647 
L 164.477244 289.430578 
L 164.679601 289.637525 
L 164.881958 283.86912 
L 165.48903 248.432889 
L 165.893744 225.439853 
L 166.096102 217.264807 
L 166.500816 214.961476 
L 166.703173 208.70869 
L 167.310245 182.495132 
L 167.512602 177.661123 
L 167.714959 180.553856 
L 168.322031 211.81617 
L 168.929102 265.218799 
L 169.13146 274.648144 
L 169.333817 278.546618 
L 169.536174 278.49018 
L 169.738531 278.759195 
L 169.940888 272.438209 
L 171.559746 169.553491 
L 171.762103 164.304032 
L 172.166818 163.196916 
L 172.369175 162.429389 
L 172.571532 164.951534 
L 172.773889 173.062139 
L 173.380961 220.490329 
L 173.785675 263.619576 
L 174.19039 278.697768 
L 174.392747 281.036445 
L 174.595104 281.032029 
L 174.797461 278.122363 
L 175.202176 247.950938 
L 175.60689 221.111317 
L 176.618676 181.533766 
L 176.821034 179.830229 
L 177.023391 180.628847 
L 177.225748 177.906298 
L 177.428105 179.403391 
L 177.630462 184.434872 
L 178.035177 205.05461 
L 178.844606 282.808027 
L 179.046963 289.703531 
L 179.24932 291.998793 
L 179.654034 283.594512 
L 180.66582 215.933906 
L 181.677607 164.240344 
L 182.082321 160.223386 
L 182.284678 160.702078 
L 182.487035 165.404602 
L 182.689393 175.939263 
L 183.296464 234.606669 
L 183.701179 263.889094 
L 184.105893 271.50833 
L 184.30825 270.76548 
L 184.712965 261.998802 
L 185.117679 243.522569 
L 185.724751 188.913137 
L 186.331822 144.394036 
L 186.53418 141.302217 
L 186.736537 148.804979 
L 186.938894 150.884121 
L 187.141251 159.49269 
L 188.557752 252.951178 
L 188.962466 270.536099 
L 189.164823 272.182368 
L 189.36718 270.819049 
L 189.771895 253.159445 
L 190.176609 225.633258 
L 190.378966 215.633494 
L 191.188395 157.062399 
L 191.390752 152.781456 
L 191.59311 156.95416 
L 191.997824 171.880592 
L 193.819039 278.488148 
L 194.021396 278.63302 
L 194.223753 276.394832 
L 194.628468 257.011686 
L 195.437897 204.771448 
L 195.842611 184.57881 
L 196.044968 183.563101 
L 196.247325 189.381656 
L 196.65204 205.102948 
L 197.663826 232.216238 
L 198.675612 292.315834 
L 198.877969 290.202902 
L 199.080326 280.564233 
L 200.092112 204.965512 
L 201.103898 176.677804 
L 201.508613 174.863754 
L 201.71097 178.704331 
L 202.318042 198.962726 
L 202.520399 211.940237 
L 202.925113 255.145542 
L 203.329828 276.982379 
L 203.532185 277.080407 
L 203.734542 269.522183 
L 204.746328 210.376909 
L 205.151043 191.193894 
L 205.3534 187.427279 
L 205.758114 172.609731 
L 205.960471 172.816089 
L 206.162829 173.511649 
L 206.365186 176.458555 
L 207.174615 207.323685 
L 207.984044 262.498248 
L 208.186401 268.529845 
L 208.388758 269.016162 
L 208.591115 268.238705 
L 208.793472 263.245235 
L 209.805258 201.216465 
L 210.209973 190.370832 
L 210.817044 160.85789 
L 211.221759 149.988176 
L 211.424116 150.088149 
L 211.626473 157.926671 
L 212.435902 224.733463 
L 212.840617 255.618861 
L 213.042974 262.30511 
L 213.245331 262.596116 
L 213.447688 263.374385 
L 213.650045 259.524863 
L 215.47126 137.507226 
L 215.875975 126.646253 
L 216.078332 123.51507 
L 216.280689 126.447051 
L 216.483046 132.624882 
L 216.887761 161.846013 
L 217.899547 248.035236 
L 218.101904 253.365851 
L 218.506618 254.648552 
L 218.708976 251.619541 
L 218.911333 243.743309 
L 219.518404 199.370217 
L 220.327833 146.498588 
L 220.53019 147.068174 
L 221.137262 177.404766 
L 221.541976 206.309311 
L 222.149048 234.749131 
L 222.553762 261.57634 
L 222.958477 277.920745 
L 223.160834 282.015697 
L 223.363191 278.953905 
L 223.565549 273.083138 
L 224.374977 225.014057 
L 224.577335 214.135273 
L 224.779692 210.167969 
L 225.386763 218.258264 
L 225.791478 226.235072 
L 226.196192 235.05683 
L 226.600907 246.58967 
L 226.803264 250.193807 
L 227.005621 259.956519 
L 227.410335 289.848051 
L 227.612693 298.075998 
L 227.81505 301.191648 
L 228.017407 300.121892 
L 228.219764 295.31401 
L 228.624479 262.646838 
L 229.029193 236.08274 
L 229.23155 230.817701 
L 229.433908 228.633761 
L 229.636265 228.050577 
L 229.838622 224.246124 
L 230.243336 207.284138 
L 230.648051 200.167218 
L 230.850408 199.779132 
L 231.255122 205.051981 
L 231.45748 211.380916 
L 231.659837 224.294185 
L 232.266908 285.096161 
L 232.469266 291.359715 
L 232.671623 291.662148 
L 232.87398 287.118387 
L 233.278694 269.290223 
L 233.683409 248.277775 
L 233.885766 242.0809 
L 234.897552 195.830468 
L 235.504624 189.184684 
L 235.706981 191.495337 
L 235.909338 197.544525 
L 236.314053 215.504845 
L 237.123481 278.866075 
L 237.325839 284.461247 
L 237.528196 286.747739 
L 237.730553 286.873329 
L 237.93291 281.223216 
L 238.742339 230.793971 
L 239.349411 211.314194 
L 239.754125 200.375627 
L 239.956482 199.561796 
L 240.15884 199.570267 
L 240.361197 197.814919 
L 240.765911 205.848282 
L 240.968268 211.085019 
L 241.372983 236.724033 
L 241.980054 282.844138 
L 242.384769 290.302749 
L 242.587126 288.442991 
L 242.789483 283.729784 
L 243.194198 254.707664 
L 243.598912 232.504557 
L 244.813055 192.998957 
L 245.015413 193.451189 
L 245.21777 190.565989 
L 245.420127 190.272797 
L 245.824841 201.716162 
L 246.229556 228.33297 
L 246.836627 276.717667 
L 247.038985 283.462883 
L 247.241342 286.390548 
L 247.443699 285.856569 
L 247.848413 269.180266 
L 248.253128 240.804594 
L 248.657842 217.612333 
L 249.669628 152.204163 
L 249.871985 150.738217 
L 250.074343 151.512466 
L 250.2767 155.451669 
L 250.681414 177.671176 
L 251.086129 208.869709 
L 251.490843 247.911622 
L 251.895558 267.50202 
L 252.097915 271.774369 
L 252.300272 272.343207 
L 252.704986 262.28121 
L 253.109701 240.624013 
L 254.323844 147.911362 
L 254.526201 144.719954 
L 254.728558 147.478746 
L 255.133273 149.653526 
L 255.33563 158.255288 
L 256.954488 276.225405 
L 257.156845 280.660682 
L 257.359202 279.830002 
L 257.561559 273.701744 
L 257.966274 245.114111 
L 258.573345 202.774728 
L 259.180417 167.068071 
L 259.382774 164.898041 
L 259.989846 173.931264 
L 260.39456 190.05693 
L 260.799275 212.004233 
L 261.203989 249.430782 
L 261.608704 282.028197 
L 261.811061 288.46316 
L 262.013418 286.635392 
L 262.418132 266.94226 
L 263.227561 210.083748 
L 263.429918 206.780099 
L 263.632276 208.254633 
L 264.239347 219.065111 
L 264.441704 221.55228 
L 264.644062 221.50914 
L 264.846419 225.097331 
L 265.048776 230.967946 
L 265.45349 246.742041 
L 265.655848 253.732954 
L 266.465277 297.174322 
L 266.667634 295.731728 
L 267.072348 281.921343 
L 267.274705 274.210684 
L 267.67942 249.313226 
L 268.286491 230.354202 
L 268.488849 230.386287 
L 268.691206 226.871767 
L 268.893563 219.569665 
L 269.298277 215.32834 
L 269.500635 214.578369 
L 269.702992 214.869411 
L 269.905349 216.513131 
L 270.512421 240.185405 
L 271.119492 279.158908 
L 271.32185 284.973999 
L 271.524207 284.056615 
L 271.726564 282.127088 
L 271.928921 275.156769 
L 272.940707 221.4027 
L 273.345422 203.745437 
L 273.952493 168.873546 
L 274.559565 158.474811 
L 274.761922 158.435642 
L 274.964279 162.964462 
L 275.368994 189.098775 
L 276.178422 259.249937 
L 276.38078 260.618685 
L 276.583137 258.693735 
L 276.785494 252.973247 
L 276.987851 243.489453 
L 277.79728 190.551957 
L 278.606709 145.565714 
L 278.809066 144.567841 
L 279.213781 146.729277 
L 279.416138 149.795661 
L 279.820852 168.612276 
L 280.427924 219.764884 
L 280.832638 255.936771 
L 281.034995 266.632699 
L 281.43971 274.679738 
L 282.046782 242.44712 
L 283.058568 179.48573 
L 283.260925 173.891231 
L 283.463282 164.494458 
L 283.665639 161.676857 
L 283.867996 163.090178 
L 284.070354 162.797643 
L 284.272711 164.475686 
L 284.475068 172.246443 
L 285.08214 219.057089 
L 285.689211 274.889987 
L 285.891568 283.854028 
L 286.093926 286.240819 
L 286.296283 286.552645 
L 286.49864 282.087592 
L 286.903354 263.779886 
L 287.105712 254.363221 
L 287.915141 195.936977 
L 288.319855 171.923787 
L 288.522212 166.378415 
L 289.129284 160.645181 
L 289.331641 165.219319 
L 289.938713 211.350435 
L 290.545784 264.593279 
L 290.950499 277.714125 
L 291.152856 279.263001 
L 291.55757 275.079464 
L 291.759927 267.015369 
L 292.164642 229.396998 
L 292.771714 176.743543 
L 293.378785 136.264998 
L 293.985857 140.650519 
L 294.188214 146.769503 
L 294.795286 187.404534 
L 295.604714 258.278411 
L 295.807072 264.917335 
L 296.009429 265.289109 
L 296.211786 259.24163 
L 296.414143 249.082687 
L 297.425929 151.326991 
L 298.033001 95.453209 
L 298.235358 87.948522 
L 298.437715 88.379514 
L 298.84243 102.622906 
L 299.449501 134.808696 
L 299.854216 173.240958 
L 300.25893 224.22357 
L 300.663645 244.610258 
L 300.866002 241.256083 
L 301.675431 186.433385 
L 302.080145 150.009887 
L 302.484859 99.63462 
L 302.889574 69.493081 
L 303.091931 68.655984 
L 303.496646 95.21855 
L 304.103717 141.762507 
L 305.31786 243.260009 
L 305.520218 248.880534 
L 305.722575 249.040977 
L 305.924932 237.813115 
L 306.329646 200.893903 
L 306.734361 182.4338 
L 307.54379 127.470064 
L 307.746147 119.136722 
L 307.948504 117.497694 
L 308.150861 119.898124 
L 308.555576 139.517927 
L 309.162647 182.41497 
L 309.567362 209.985555 
L 309.972076 250.6473 
L 310.376791 269.71985 
L 310.579148 267.742133 
L 310.983862 241.310275 
L 311.388577 203.880356 
L 311.590934 192.136428 
L 312.198005 137.28406 
L 312.60272 116.81795 
L 312.805077 115.060498 
L 313.209791 126.686768 
L 313.412149 134.429165 
L 313.816863 163.057272 
L 315.031006 256.015533 
L 315.233364 259.344166 
L 315.435721 258.038687 
L 315.638078 251.176221 
L 316.24515 200.937541 
L 316.649864 191.286808 
L 316.852221 183.195155 
L 317.256936 177.598633 
L 317.459293 176.795829 
L 317.66165 178.345265 
L 318.066364 186.801529 
L 319.07815 215.504344 
L 319.685222 257.726767 
L 320.089937 271.282176 
L 320.292294 270.77391 
L 320.494651 267.607799 
L 320.899365 251.779077 
L 322.518223 163.126887 
L 323.125295 157.719725 
L 323.327652 164.09058 
L 323.934723 202.722016 
L 324.541795 253.554182 
L 324.94651 270.141274 
L 325.148867 272.057193 
L 325.351224 270.602401 
L 325.553581 265.43807 
L 325.958296 244.527841 
L 327.172439 139.067545 
L 327.374796 132.875772 
L 327.577153 133.946302 
L 327.981868 139.412626 
L 328.386582 159.234446 
L 329.803083 270.600595 
L 330.00544 273.349057 
L 330.410154 256.983259 
L 331.624297 154.396257 
L 332.029012 138.354081 
L 332.231369 138.072452 
L 332.433726 143.7834 
L 333.647869 209.174518 
L 334.457298 274.888729 
L 334.659655 281.0792 
L 334.862013 277.036212 
L 335.266727 251.360428 
L 336.278513 193.946313 
L 336.885585 176.615638 
L 337.087942 177.447823 
L 337.695014 188.433501 
L 338.504442 222.358355 
L 339.313871 276.892189 
L 339.516228 281.028084 
L 339.718586 278.933623 
L 339.920943 269.757534 
L 340.932729 205.652604 
L 341.337443 188.064882 
L 341.539801 182.018758 
L 341.944515 165.77933 
L 342.146872 164.389321 
L 342.349229 161.637443 
L 342.551587 160.687653 
L 342.956301 169.112241 
L 343.361015 192.942985 
L 344.170444 256.405812 
L 344.372801 258.163098 
L 344.777516 246.897099 
L 345.384587 210.664223 
L 345.789302 180.033709 
L 346.396374 126.403126 
L 346.598731 114.375281 
L 346.801088 111.942414 
L 347.40816 123.648983 
L 347.812874 143.393123 
L 348.419946 192.016355 
L 348.82466 235.226568 
L 349.229374 252.915903 
L 349.431732 251.997128 
L 349.634089 245.643214 
L 350.24116 206.985154 
L 350.645875 177.325139 
L 351.252947 124.772465 
L 351.455304 112.612538 
L 351.657661 108.042103 
L 352.264733 118.812773 
L 352.669447 140.049263 
L 353.276519 192.275839 
L 353.681233 245.127678 
L 354.085947 263.971394 
L 354.288305 263.79898 
L 354.490662 258.548829 
L 354.895376 236.941454 
L 355.502448 191.536717 
L 356.109519 121.956984 
L 356.311877 109.414475 
L 356.514234 106.292414 
L 356.918948 111.815239 
L 357.121306 111.894607 
L 357.323663 120.104127 
L 357.728377 155.496424 
L 358.740163 252.875023 
L 358.94252 262.941015 
L 359.144878 263.741485 
L 359.347235 260.08405 
L 359.549592 253.049911 
L 359.954306 222.200918 
L 360.359021 185.805838 
L 360.966092 112.533465 
L 361.16845 97.990157 
L 361.370807 93.143773 
L 361.977879 101.507111 
L 362.382593 119.428856 
L 362.989665 178.474421 
L 363.596736 242.10297 
L 363.799093 249.531175 
L 364.001451 248.547397 
L 364.608522 205.423966 
L 365.215594 146.642881 
L 365.822665 71.92079 
L 366.025023 58.539434 
L 366.22738 55.8 
L 366.429737 60.422268 
L 367.239166 100.290143 
L 367.64388 132.563191 
L 368.453309 220.110276 
L 368.655666 229.446641 
L 368.858024 223.150718 
L 369.465095 188.168987 
L 369.86981 163.3293 
L 370.881596 62.910233 
L 371.083953 61.286782 
L 371.488667 75.988697 
L 371.893382 100.100742 
L 372.500453 150.349967 
L 373.512239 230.093671 
L 373.714597 228.472919 
L 374.321668 198.395961 
L 374.726383 185.445221 
L 375.131097 140.854798 
L 375.535811 101.124812 
L 375.738169 90.605781 
L 375.940526 89.668994 
L 376.547597 105.792005 
L 376.952312 138.085563 
L 377.559383 196.6456 
L 378.166455 237.900373 
L 378.368812 245.097239 
L 378.57117 246.456396 
L 378.773527 237.454656 
L 379.178241 204.352414 
L 380.392384 100.669989 
L 380.594742 93.022266 
L 380.797099 89.896733 
L 380.999456 92.735114 
L 381.606528 110.000028 
L 382.011242 134.778241 
L 382.415956 169.958045 
L 382.820671 216.619099 
L 383.225385 234.213199 
L 383.6301 220.17937 
L 384.237171 185.394597 
L 384.237171 185.394597 
" clip-path="url(#p40ffee964f)" style="fill: none; stroke: #ff7f0e; stroke-width: 1.5; stroke-linecap: square"/>
   </g>
   <g id="line2d_15">
    <path d="M 384.439529 174.030233 
L 385.451315 114.4547 
L 385.653672 110.698557 
L 385.856029 113.339661 
L 386.058386 118.571791 
L 386.463101 143.178388 
L 387.677244 224.425209 
L 388.081958 237.660964 
L 388.284316 235.132771 
L 388.68903 215.164628 
L 389.700816 144.028439 
L 390.307888 119.938388 
L 390.510245 117.475675 
L 390.712602 119.724948 
L 391.117316 133.83768 
L 391.522031 159.741328 
L 392.33146 226.341041 
L 392.736174 238.223202 
L 392.938531 239.761698 
L 393.140888 234.981447 
L 393.545603 214.465827 
L 394.962103 138.648625 
L 395.164461 135.111583 
L 395.366818 135.490573 
L 395.569175 139.787539 
L 395.973889 158.600495 
L 397.188033 235.003636 
L 397.592747 244.69801 
L 397.795104 243.670046 
L 397.997461 238.906347 
L 398.402176 217.001245 
L 399.009248 180.591182 
L 399.413962 160.414894 
L 399.818676 147.188763 
L 400.021034 146.034781 
L 400.223391 148.460552 
L 400.425748 153.022903 
L 400.628105 160.20372 
L 401.235177 199.222562 
L 401.842248 231.657705 
L 402.246963 241.77076 
L 402.44932 243.287124 
L 402.651677 241.330123 
L 402.854034 235.593593 
L 403.663463 195.143087 
L 404.270535 167.597957 
L 404.472892 162.676181 
L 404.675249 160.600571 
L 404.877607 161.695903 
L 405.079964 165.393501 
L 405.484678 180.547112 
L 406.09175 212.987128 
L 406.901179 238.912235 
L 407.103536 239.457195 
L 407.305893 239.478978 
L 407.50825 235.333832 
L 407.912965 218.065759 
L 408.520036 192.14119 
L 409.127108 173.321871 
L 409.329465 171.49683 
L 409.531822 172.274341 
L 409.73418 174.87092 
L 410.138894 186.687713 
L 410.948323 219.234671 
L 411.555394 233.147835 
L 411.757752 234.302279 
L 411.960109 233.417604 
L 412.162466 230.631018 
L 412.769538 210.633725 
L 413.376609 191.991147 
L 413.781324 183.287814 
L 413.983681 182.519677 
L 414.186038 183.647623 
L 414.388395 185.942161 
L 414.590752 190.007721 
L 415.602539 218.920666 
L 416.007253 225.826178 
L 416.20961 228.255202 
L 416.411967 228.377502 
L 416.614325 227.01194 
L 417.019039 220.002319 
L 418.030825 197.346203 
L 418.435539 192.391174 
L 418.637897 192.47517 
L 418.840254 193.88393 
L 419.244968 200.537515 
L 420.054397 216.94419 
L 420.459112 221.135917 
L 420.661469 222.685814 
L 420.863826 222.841075 
L 421.066183 222.313164 
L 421.470898 218.64252 
L 422.685041 202.49591 
L 422.887398 201.297528 
L 423.089755 201.122307 
L 423.292112 201.714477 
L 423.49447 203.373211 
L 424.506256 215.712672 
L 424.91097 218.121447 
L 425.113327 218.503246 
L 425.315684 218.109905 
L 425.518042 218.106909 
L 425.720399 217.447791 
L 426.125113 214.849261 
L 426.732185 209.983325 
L 427.136899 208.247442 
L 427.339257 207.781973 
L 427.541614 207.662871 
L 427.946328 209.412813 
L 428.755757 213.932058 
L 429.160471 215.230763 
L 429.565186 215.901538 
L 429.767543 215.931932 
L 429.9699 215.846337 
L 430.172257 215.516817 
L 430.779329 213.526852 
L 431.184044 212.652569 
L 431.588758 212.220908 
L 431.993472 212.036831 
L 432.19583 212.115912 
L 433.409973 213.793219 
L 433.814687 214.241011 
L 434.017044 214.499105 
L 434.219402 214.561767 
L 434.826473 214.277362 
L 435.635902 213.514146 
L 436.242974 212.94683 
L 436.445331 212.817093 
L 437.25476 212.99113 
L 437.861831 213.428176 
L 438.266546 213.751413 
L 438.873617 213.932195 
L 439.480689 213.857497 
L 440.897189 213.236824 
L 441.504261 213.226715 
L 443.123119 213.663196 
L 443.932548 213.68709 
L 445.753762 213.395947 
L 446.967906 213.482358 
L 448.182049 213.587295 
L 450.003264 213.459109 
L 451.622121 213.501162 
L 453.645694 213.514741 
L 456.681052 213.510873 
L 461.537625 213.508589 
L 488.451133 213.50371 
L 518.4 213.503701 
L 518.4 213.503701 
" clip-path="url(#p40ffee964f)" style="fill: none; stroke: #2ca02c; stroke-width: 1.5; stroke-linecap: square"/>
   </g>
   <g id="patch_3">
    <path d="M 72 320.4 
L 72 43.2 
" style="fill: none; stroke: #000000; stroke-width: 0.8; stroke-linejoin: miter; stroke-linecap: square"/>
   </g>
   <g id="patch_4">
    <path d="M 518.4 320.4 
L 518.4 43.2 
" style="fill: none; stroke: #000000; stroke-width: 0.8; stroke-linejoin: miter; stroke-linecap: square"/>
   </g>
   <g id="patch_5">
    <path d="M 72 320.4 
L 518.4 320.4 
" style="fill: none; stroke: #000000; stroke-width: 0.8; stroke-linejoin: miter; stroke-linecap: square"/>
   </g>
   <g id="patch_6">
    <path d="M 72 43.2 
L 518.4 43.2 
" style="fill: none; stroke: #000000; stroke-width: 0.8; stroke-linejoin: miter; stroke-linecap: square"/>
   </g>
   <g id="text_13">
    <!-- Classic Transformer - model_20231123161945 -->
    <g transform="translate(155.436563 37.2) scale(0.12 -0.12)">
     <defs>
      <path id="DejaVuSans-43" d="M 4122 4306 
L 4122 3641 
Q 3803 3938 3442 4084 
Q 3081 4231 2675 4231 
Q 1875 4231 1450 3742 
Q 1025 3253 1025 2328 
Q 1025 1406 1450 917 
Q 1875 428 2675 428 
Q 3081 428 3442 575 
Q 3803 722 4122 1019 
L 4122 359 
Q 3791 134 3420 21 
Q 3050 -91 2638 -91 
Q 1578 -91 968 557 
Q 359 1206 359 2328 
Q 359 3453 968 4101 
Q 1578 4750 2638 4750 
Q 3056 4750 3426 4639 
Q 3797 4528 4122 4306 
z
" transform="scale(0.015625)"/>
      <path id="DejaVuSans-6c" d="M 603 4863 
L 1178 4863 
L 1178 0 
L 603 0 
L 603 4863 
z
" transform="scale(0.015625)"/>
      <path id="DejaVuSans-61" d="M 2194 1759 
Q 1497 1759 1228 1600 
Q 959 1441 959 1056 
Q 959 750 1161 570 
Q 1363 391 1709 391 
Q 2188 391 2477 730 
Q 2766 1069 2766 1631 
L 2766 1759 
L 2194 1759 
z
M 3341 1997 
L 3341 0 
L 2766 0 
L 2766 531 
Q 2569 213 2275 61 
Q 1981 -91 1556 -91 
Q 1019 -91 701 211 
Q 384 513 384 1019 
Q 384 1609 779 1909 
Q 1175 2209 1959 2209 
L 2766 2209 
L 2766 2266 
Q 2766 2663 2505 2880 
Q 2244 3097 1772 3097 
Q 1472 3097 1187 3025 
Q 903 2953 641 2809 
L 641 3341 
Q 956 3463 1253 3523 
Q 1550 3584 1831 3584 
Q 2591 3584 2966 3190 
Q 3341 2797 3341 1997 
z
" transform="scale(0.015625)"/>
      <path id="DejaVuSans-73" d="M 2834 3397 
L 2834 2853 
Q 2591 2978 2328 3040 
Q 2066 3103 1784 3103 
Q 1356 3103 1142 2972 
Q 928 2841 928 2578 
Q 928 2378 1081 2264 
Q 1234 2150 1697 2047 
L 1894 2003 
Q 2506 1872 2764 1633 
Q 3022 1394 3022 966 
Q 3022 478 2636 193 
Q 2250 -91 1575 -91 
Q 1294 -91 989 -36 
Q 684 19 347 128 
L 347 722 
Q 666 556 975 473 
Q 1284 391 1588 391 
Q 1994 391 2212 530 
Q 2431 669 2431 922 
Q 2431 1156 2273 1281 
Q 2116 1406 1581 1522 
L 1381 1569 
Q 847 1681 609 1914 
Q 372 2147 372 2553 
Q 372 3047 722 3315 
Q 1072 3584 1716 3584 
Q 2034 3584 2315 3537 
Q 2597 3491 2834 3397 
z
" transform="scale(0.015625)"/>
      <path id="DejaVuSans-69" d="M 603 3500 
L 1178 3500 
L 1178 0 
L 603 0 
L 603 3500 
z
M 603 4863 
L 1178 4863 
L 1178 4134 
L 603 4134 
L 603 4863 
z
" transform="scale(0.015625)"/>
      <path id="DejaVuSans-63" d="M 3122 3366 
L 3122 2828 
Q 2878 2963 2633 3030 
Q 2388 3097 2138 3097 
Q 1578 3097 1268 2742 
Q 959 2388 959 1747 
Q 959 1106 1268 751 
Q 1578 397 2138 397 
Q 2388 397 2633 464 
Q 2878 531 3122 666 
L 3122 134 
Q 2881 22 2623 -34 
Q 2366 -91 2075 -91 
Q 1284 -91 818 406 
Q 353 903 353 1747 
Q 353 2603 823 3093 
Q 1294 3584 2113 3584 
Q 2378 3584 2631 3529 
Q 2884 3475 3122 3366 
z
" transform="scale(0.015625)"/>
      <path id="DejaVuSans-20" transform="scale(0.015625)"/>
      <path id="DejaVuSans-54" d="M -19 4666 
L 3928 4666 
L 3928 4134 
L 2272 4134 
L 2272 0 
L 1638 0 
L 1638 4134 
L -19 4134 
L -19 4666 
z
" transform="scale(0.015625)"/>
      <path id="DejaVuSans-72" d="M 2631 2963 
Q 2534 3019 2420 3045 
Q 2306 3072 2169 3072 
Q 1681 3072 1420 2755 
Q 1159 2438 1159 1844 
L 1159 0 
L 581 0 
L 581 3500 
L 1159 3500 
L 1159 2956 
Q 1341 3275 1631 3429 
Q 1922 3584 2338 3584 
Q 2397 3584 2469 3576 
Q 2541 3569 2628 3553 
L 2631 2963 
z
" transform="scale(0.015625)"/>
      <path id="DejaVuSans-6e" d="M 3513 2113 
L 3513 0 
L 2938 0 
L 2938 2094 
Q 2938 2591 2744 2837 
Q 2550 3084 2163 3084 
Q 1697 3084 1428 2787 
Q 1159 2491 1159 1978 
L 1159 0 
L 581 0 
L 581 3500 
L 1159 3500 
L 1159 2956 
Q 1366 3272 1645 3428 
Q 1925 3584 2291 3584 
Q 2894 3584 3203 3211 
Q 3513 2838 3513 2113 
z
" transform="scale(0.015625)"/>
      <path id="DejaVuSans-66" d="M 2375 4863 
L 2375 4384 
L 1825 4384 
Q 1516 4384 1395 4259 
Q 1275 4134 1275 3809 
L 1275 3500 
L 2222 3500 
L 2222 3053 
L 1275 3053 
L 1275 0 
L 697 0 
L 697 3053 
L 147 3053 
L 147 3500 
L 697 3500 
L 697 3744 
Q 697 4328 969 4595 
Q 1241 4863 1831 4863 
L 2375 4863 
z
" transform="scale(0.015625)"/>
      <path id="DejaVuSans-6f" d="M 1959 3097 
Q 1497 3097 1228 2736 
Q 959 2375 959 1747 
Q 959 1119 1226 758 
Q 1494 397 1959 397 
Q 2419 397 2687 759 
Q 2956 1122 2956 1747 
Q 2956 2369 2687 2733 
Q 2419 3097 1959 3097 
z
M 1959 3584 
Q 2709 3584 3137 3096 
Q 3566 2609 3566 1747 
Q 3566 888 3137 398 
Q 2709 -91 1959 -91 
Q 1206 -91 779 398 
Q 353 888 353 1747 
Q 353 2609 779 3096 
Q 1206 3584 1959 3584 
z
" transform="scale(0.015625)"/>
      <path id="DejaVuSans-6d" d="M 3328 2828 
Q 3544 3216 3844 3400 
Q 4144 3584 4550 3584 
Q 5097 3584 5394 3201 
Q 5691 2819 5691 2113 
L 5691 0 
L 5113 0 
L 5113 2094 
Q 5113 2597 4934 2840 
Q 4756 3084 4391 3084 
Q 3944 3084 3684 2787 
Q 3425 2491 3425 1978 
L 3425 0 
L 2847 0 
L 2847 2094 
Q 2847 2600 2669 2842 
Q 2491 3084 2119 3084 
Q 1678 3084 1418 2786 
Q 1159 2488 1159 1978 
L 1159 0 
L 581 0 
L 581 3500 
L 1159 3500 
L 1159 2956 
Q 1356 3278 1631 3431 
Q 1906 3584 2284 3584 
Q 2666 3584 2933 3390 
Q 3200 3197 3328 2828 
z
" transform="scale(0.015625)"/>
      <path id="DejaVuSans-65" d="M 3597 1894 
L 3597 1613 
L 953 1613 
Q 991 1019 1311 708 
Q 1631 397 2203 397 
Q 2534 397 2845 478 
Q 3156 559 3463 722 
L 3463 178 
Q 3153 47 2828 -22 
Q 2503 -91 2169 -91 
Q 1331 -91 842 396 
Q 353 884 353 1716 
Q 353 2575 817 3079 
Q 1281 3584 2069 3584 
Q 2775 3584 3186 3129 
Q 3597 2675 3597 1894 
z
M 3022 2063 
Q 3016 2534 2758 2815 
Q 2500 3097 2075 3097 
Q 1594 3097 1305 2825 
Q 1016 2553 972 2059 
L 3022 2063 
z
" transform="scale(0.015625)"/>
      <path id="DejaVuSans-64" d="M 2906 2969 
L 2906 4863 
L 3481 4863 
L 3481 0 
L 2906 0 
L 2906 525 
Q 2725 213 2448 61 
Q 2172 -91 1784 -91 
Q 1150 -91 751 415 
Q 353 922 353 1747 
Q 353 2572 751 3078 
Q 1150 3584 1784 3584 
Q 2172 3584 2448 3432 
Q 2725 3281 2906 2969 
z
M 947 1747 
Q 947 1113 1208 752 
Q 1469 391 1925 391 
Q 2381 391 2643 752 
Q 2906 1113 2906 1747 
Q 2906 2381 2643 2742 
Q 2381 3103 1925 3103 
Q 1469 3103 1208 2742 
Q 947 2381 947 1747 
z
" transform="scale(0.015625)"/>
      <path id="DejaVuSans-5f" d="M 3263 -1063 
L 3263 -1509 
L -63 -1509 
L -63 -1063 
L 3263 -1063 
z
" transform="scale(0.015625)"/>
      <path id="DejaVuSans-39" d="M 703 97 
L 703 672 
Q 941 559 1184 500 
Q 1428 441 1663 441 
Q 2288 441 2617 861 
Q 2947 1281 2994 2138 
Q 2813 1869 2534 1725 
Q 2256 1581 1919 1581 
Q 1219 1581 811 2004 
Q 403 2428 403 3163 
Q 403 3881 828 4315 
Q 1253 4750 1959 4750 
Q 2769 4750 3195 4129 
Q 3622 3509 3622 2328 
Q 3622 1225 3098 567 
Q 2575 -91 1691 -91 
Q 1453 -91 1209 -44 
Q 966 3 703 97 
z
M 1959 2075 
Q 2384 2075 2632 2365 
Q 2881 2656 2881 3163 
Q 2881 3666 2632 3958 
Q 2384 4250 1959 4250 
Q 1534 4250 1286 3958 
Q 1038 3666 1038 3163 
Q 1038 2656 1286 2365 
Q 1534 2075 1959 2075 
z
" transform="scale(0.015625)"/>
      <path id="DejaVuSans-34" d="M 2419 4116 
L 825 1625 
L 2419 1625 
L 2419 4116 
z
M 2253 4666 
L 3047 4666 
L 3047 1625 
L 3713 1625 
L 3713 1100 
L 3047 1100 
L 3047 0 
L 2419 0 
L 2419 1100 
L 313 1100 
L 313 1709 
L 2253 4666 
z
" transform="scale(0.015625)"/>
     </defs>
     <use xlink:href="#DejaVuSans-43"/>
     <use xlink:href="#DejaVuSans-6c" x="69.824219"/>
     <use xlink:href="#DejaVuSans-61" x="97.607422"/>
     <use xlink:href="#DejaVuSans-73" x="158.886719"/>
     <use xlink:href="#DejaVuSans-73" x="210.986328"/>
     <use xlink:href="#DejaVuSans-69" x="263.085938"/>
     <use xlink:href="#DejaVuSans-63" x="290.869141"/>
     <use xlink:href="#DejaVuSans-20" x="345.849609"/>
     <use xlink:href="#DejaVuSans-54" x="377.636719"/>
     <use xlink:href="#DejaVuSans-72" x="423.970703"/>
     <use xlink:href="#DejaVuSans-61" x="465.083984"/>
     <use xlink:href="#DejaVuSans-6e" x="526.363281"/>
     <use xlink:href="#DejaVuSans-73" x="589.742188"/>
     <use xlink:href="#DejaVuSans-66" x="641.841797"/>
     <use xlink:href="#DejaVuSans-6f" x="677.046875"/>
     <use xlink:href="#DejaVuSans-72" x="738.228516"/>
     <use xlink:href="#DejaVuSans-6d" x="777.591797"/>
     <use xlink:href="#DejaVuSans-65" x="875.003906"/>
     <use xlink:href="#DejaVuSans-72" x="936.527344"/>
     <use xlink:href="#DejaVuSans-20" x="977.640625"/>
     <use xlink:href="#DejaVuSans-2d" x="1009.427734"/>
     <use xlink:href="#DejaVuSans-20" x="1045.511719"/>
     <use xlink:href="#DejaVuSans-6d" x="1077.298828"/>
     <use xlink:href="#DejaVuSans-6f" x="1174.710938"/>
     <use xlink:href="#DejaVuSans-64" x="1235.892578"/>
     <use xlink:href="#DejaVuSans-65" x="1299.369141"/>
     <use xlink:href="#DejaVuSans-6c" x="1360.892578"/>
     <use xlink:href="#DejaVuSans-5f" x="1388.675781"/>
     <use xlink:href="#DejaVuSans-32" x="1438.675781"/>
     <use xlink:href="#DejaVuSans-30" x="1502.298828"/>
     <use xlink:href="#DejaVuSans-32" x="1565.921875"/>
     <use xlink:href="#DejaVuSans-33" x="1629.544922"/>
     <use xlink:href="#DejaVuSans-31" x="1693.167969"/>
     <use xlink:href="#DejaVuSans-31" x="1756.791016"/>
     <use xlink:href="#DejaVuSans-32" x="1820.414062"/>
     <use xlink:href="#DejaVuSans-33" x="1884.037109"/>
     <use xlink:href="#DejaVuSans-31" x="1947.660156"/>
     <use xlink:href="#DejaVuSans-36" x="2011.283203"/>
     <use xlink:href="#DejaVuSans-31" x="2074.90625"/>
     <use xlink:href="#DejaVuSans-39" x="2138.529297"/>
     <use xlink:href="#DejaVuSans-34" x="2202.152344"/>
     <use xlink:href="#DejaVuSans-35" x="2265.775391"/>
    </g>
   </g>
   <g id="legend_1">
    <g id="patch_7">
     <path d="M 79 95.234375 
L 161.517188 95.234375 
Q 163.517188 95.234375 163.517188 93.234375 
L 163.517188 50.2 
Q 163.517188 48.2 161.517188 48.2 
L 79 48.2 
Q 77 48.2 77 50.2 
L 77 93.234375 
Q 77 95.234375 79 95.234375 
z
" style="fill: #ffffff; opacity: 0.8; stroke: #cccccc; stroke-linejoin: miter"/>
    </g>
    <g id="line2d_16">
     <path d="M 81 56.298437 
L 91 56.298437 
L 101 56.298437 
" style="fill: none; stroke: #1f77b4; stroke-width: 1.5; stroke-linecap: square"/>
    </g>
    <g id="text_14">
     <!-- Measured -->
     <g transform="translate(109 59.798437) scale(0.1 -0.1)">
      <defs>
       <path id="DejaVuSans-4d" d="M 628 4666 
L 1569 4666 
L 2759 1491 
L 3956 4666 
L 4897 4666 
L 4897 0 
L 4281 0 
L 4281 4097 
L 3078 897 
L 2444 897 
L 1241 4097 
L 1241 0 
L 628 0 
L 628 4666 
z
" transform="scale(0.015625)"/>
       <path id="DejaVuSans-75" d="M 544 1381 
L 544 3500 
L 1119 3500 
L 1119 1403 
Q 1119 906 1312 657 
Q 1506 409 1894 409 
Q 2359 409 2629 706 
Q 2900 1003 2900 1516 
L 2900 3500 
L 3475 3500 
L 3475 0 
L 2900 0 
L 2900 538 
Q 2691 219 2414 64 
Q 2138 -91 1772 -91 
Q 1169 -91 856 284 
Q 544 659 544 1381 
z
M 1991 3584 
L 1991 3584 
z
" transform="scale(0.015625)"/>
      </defs>
      <use xlink:href="#DejaVuSans-4d"/>
      <use xlink:href="#DejaVuSans-65" x="86.279297"/>
      <use xlink:href="#DejaVuSans-61" x="147.802734"/>
      <use xlink:href="#DejaVuSans-73" x="209.082031"/>
      <use xlink:href="#DejaVuSans-75" x="261.181641"/>
      <use xlink:href="#DejaVuSans-72" x="324.560547"/>
      <use xlink:href="#DejaVuSans-65" x="363.423828"/>
      <use xlink:href="#DejaVuSans-64" x="424.947266"/>
     </g>
    </g>
    <g id="line2d_17">
     <path d="M 81 70.976562 
L 91 70.976562 
L 101 70.976562 
" style="fill: none; stroke: #ff7f0e; stroke-width: 1.5; stroke-linecap: square"/>
    </g>
    <g id="text_15">
     <!-- Fitted -->
     <g transform="translate(109 74.476562) scale(0.1 -0.1)">
      <defs>
       <path id="DejaVuSans-46" d="M 628 4666 
L 3309 4666 
L 3309 4134 
L 1259 4134 
L 1259 2759 
L 3109 2759 
L 3109 2228 
L 1259 2228 
L 1259 0 
L 628 0 
L 628 4666 
z
" transform="scale(0.015625)"/>
       <path id="DejaVuSans-74" d="M 1172 4494 
L 1172 3500 
L 2356 3500 
L 2356 3053 
L 1172 3053 
L 1172 1153 
Q 1172 725 1289 603 
Q 1406 481 1766 481 
L 2356 481 
L 2356 0 
L 1766 0 
Q 1100 0 847 248 
Q 594 497 594 1153 
L 594 3053 
L 172 3053 
L 172 3500 
L 594 3500 
L 594 4494 
L 1172 4494 
z
" transform="scale(0.015625)"/>
      </defs>
      <use xlink:href="#DejaVuSans-46"/>
      <use xlink:href="#DejaVuSans-69" x="50.269531"/>
      <use xlink:href="#DejaVuSans-74" x="78.052734"/>
      <use xlink:href="#DejaVuSans-74" x="117.261719"/>
      <use xlink:href="#DejaVuSans-65" x="156.470703"/>
      <use xlink:href="#DejaVuSans-64" x="217.994141"/>
     </g>
    </g>
    <g id="line2d_18">
     <path d="M 81 85.654687 
L 91 85.654687 
L 101 85.654687 
" style="fill: none; stroke: #2ca02c; stroke-width: 1.5; stroke-linecap: square"/>
    </g>
    <g id="text_16">
     <!-- Estimated -->
     <g transform="translate(109 89.154687) scale(0.1 -0.1)">
      <defs>
       <path id="DejaVuSans-45" d="M 628 4666 
L 3578 4666 
L 3578 4134 
L 1259 4134 
L 1259 2753 
L 3481 2753 
L 3481 2222 
L 1259 2222 
L 1259 531 
L 3634 531 
L 3634 0 
L 628 0 
L 628 4666 
z
" transform="scale(0.015625)"/>
      </defs>
      <use xlink:href="#DejaVuSans-45"/>
      <use xlink:href="#DejaVuSans-73" x="63.183594"/>
      <use xlink:href="#DejaVuSans-74" x="115.283203"/>
      <use xlink:href="#DejaVuSans-69" x="154.492188"/>
      <use xlink:href="#DejaVuSans-6d" x="182.275391"/>
      <use xlink:href="#DejaVuSans-61" x="279.6875"/>
      <use xlink:href="#DejaVuSans-74" x="340.966797"/>
      <use xlink:href="#DejaVuSans-65" x="380.175781"/>
      <use xlink:href="#DejaVuSans-64" x="441.699219"/>
     </g>
    </g>
   </g>
  </g>
 </g>
 <defs>
  <clipPath id="p40ffee964f">
   <rect x="72" y="43.2" width="446.4" height="277.2"/>
  </clipPath>
 </defs>
</svg>
