<?xml version="1.0" encoding="utf-8" standalone="no"?>
<!DOCTYPE svg PUBLIC "-//W3C//DTD SVG 1.1//EN"
  "http://www.w3.org/Graphics/SVG/1.1/DTD/svg11.dtd">
<svg xmlns:xlink="http://www.w3.org/1999/xlink" width="576pt" height="360pt" viewBox="0 0 576 360" xmlns="http://www.w3.org/2000/svg" version="1.1">
 <metadata>
  <rdf:RDF xmlns:dc="http://purl.org/dc/elements/1.1/" xmlns:cc="http://creativecommons.org/ns#" xmlns:rdf="http://www.w3.org/1999/02/22-rdf-syntax-ns#">
   <cc:Work>
    <dc:type rdf:resource="http://purl.org/dc/dcmitype/StillImage"/>
    <dc:date>2023-11-26T19:26:28.424674</dc:date>
    <dc:format>image/svg+xml</dc:format>
    <dc:creator>
     <cc:Agent>
      <dc:title>Matplotlib v3.8.1, https://matplotlib.org/</dc:title>
     </cc:Agent>
    </dc:creator>
   </cc:Work>
  </rdf:RDF>
 </metadata>
 <defs>
  <style type="text/css">*{stroke-linejoin: round; stroke-linecap: butt}</style>
 </defs>
 <g id="figure_1">
  <g id="patch_1">
   <path d="M 0 360 
L 576 360 
L 576 0 
L 0 0 
z
" style="fill: #ffffff"/>
  </g>
  <g id="axes_1">
   <g id="patch_2">
    <path d="M 72 320.4 
L 518.4 320.4 
L 518.4 43.2 
L 72 43.2 
z
" style="fill: #ffffff"/>
   </g>
   <g id="matplotlib.axis_1">
    <g id="xtick_1">
     <g id="line2d_1">
      <defs>
       <path id="m86376c4c29" d="M 0 0 
L 0 3.5 
" style="stroke: #000000; stroke-width: 0.8"/>
      </defs>
      <g>
       <use xlink:href="#m86376c4c29" x="129.874161" y="320.4" style="stroke: #000000; stroke-width: 0.8"/>
      </g>
     </g>
     <g id="text_1">
      <!-- 2020-05-15 -->
      <g transform="translate(100.816349 334.998438) scale(0.1 -0.1)">
       <defs>
        <path id="DejaVuSans-32" d="M 1228 531 
L 3431 531 
L 3431 0 
L 469 0 
L 469 531 
Q 828 903 1448 1529 
Q 2069 2156 2228 2338 
Q 2531 2678 2651 2914 
Q 2772 3150 2772 3378 
Q 2772 3750 2511 3984 
Q 2250 4219 1831 4219 
Q 1534 4219 1204 4116 
Q 875 4013 500 3803 
L 500 4441 
Q 881 4594 1212 4672 
Q 1544 4750 1819 4750 
Q 2544 4750 2975 4387 
Q 3406 4025 3406 3419 
Q 3406 3131 3298 2873 
Q 3191 2616 2906 2266 
Q 2828 2175 2409 1742 
Q 1991 1309 1228 531 
z
" transform="scale(0.015625)"/>
        <path id="DejaVuSans-30" d="M 2034 4250 
Q 1547 4250 1301 3770 
Q 1056 3291 1056 2328 
Q 1056 1369 1301 889 
Q 1547 409 2034 409 
Q 2525 409 2770 889 
Q 3016 1369 3016 2328 
Q 3016 3291 2770 3770 
Q 2525 4250 2034 4250 
z
M 2034 4750 
Q 2819 4750 3233 4129 
Q 3647 3509 3647 2328 
Q 3647 1150 3233 529 
Q 2819 -91 2034 -91 
Q 1250 -91 836 529 
Q 422 1150 422 2328 
Q 422 3509 836 4129 
Q 1250 4750 2034 4750 
z
" transform="scale(0.015625)"/>
        <path id="DejaVuSans-2d" d="M 313 2009 
L 1997 2009 
L 1997 1497 
L 313 1497 
L 313 2009 
z
" transform="scale(0.015625)"/>
        <path id="DejaVuSans-35" d="M 691 4666 
L 3169 4666 
L 3169 4134 
L 1269 4134 
L 1269 2991 
Q 1406 3038 1543 3061 
Q 1681 3084 1819 3084 
Q 2600 3084 3056 2656 
Q 3513 2228 3513 1497 
Q 3513 744 3044 326 
Q 2575 -91 1722 -91 
Q 1428 -91 1123 -41 
Q 819 9 494 109 
L 494 744 
Q 775 591 1075 516 
Q 1375 441 1709 441 
Q 2250 441 2565 725 
Q 2881 1009 2881 1497 
Q 2881 1984 2565 2268 
Q 2250 2553 1709 2553 
Q 1456 2553 1204 2497 
Q 953 2441 691 2322 
L 691 4666 
z
" transform="scale(0.015625)"/>
        <path id="DejaVuSans-31" d="M 794 531 
L 1825 531 
L 1825 4091 
L 703 3866 
L 703 4441 
L 1819 4666 
L 2450 4666 
L 2450 531 
L 3481 531 
L 3481 0 
L 794 0 
L 794 531 
z
" transform="scale(0.015625)"/>
       </defs>
       <use xlink:href="#DejaVuSans-32"/>
       <use xlink:href="#DejaVuSans-30" x="63.623047"/>
       <use xlink:href="#DejaVuSans-32" x="127.246094"/>
       <use xlink:href="#DejaVuSans-30" x="190.869141"/>
       <use xlink:href="#DejaVuSans-2d" x="254.492188"/>
       <use xlink:href="#DejaVuSans-30" x="290.576172"/>
       <use xlink:href="#DejaVuSans-35" x="354.199219"/>
       <use xlink:href="#DejaVuSans-2d" x="417.822266"/>
       <use xlink:href="#DejaVuSans-31" x="453.90625"/>
       <use xlink:href="#DejaVuSans-35" x="517.529297"/>
      </g>
     </g>
    </g>
    <g id="xtick_2">
     <g id="line2d_2">
      <g>
       <use xlink:href="#m86376c4c29" x="212.435902" y="320.4" style="stroke: #000000; stroke-width: 0.8"/>
      </g>
     </g>
     <g id="text_2">
      <!-- 2020-06-01 -->
      <g transform="translate(183.37809 334.998438) scale(0.1 -0.1)">
       <defs>
        <path id="DejaVuSans-36" d="M 2113 2584 
Q 1688 2584 1439 2293 
Q 1191 2003 1191 1497 
Q 1191 994 1439 701 
Q 1688 409 2113 409 
Q 2538 409 2786 701 
Q 3034 994 3034 1497 
Q 3034 2003 2786 2293 
Q 2538 2584 2113 2584 
z
M 3366 4563 
L 3366 3988 
Q 3128 4100 2886 4159 
Q 2644 4219 2406 4219 
Q 1781 4219 1451 3797 
Q 1122 3375 1075 2522 
Q 1259 2794 1537 2939 
Q 1816 3084 2150 3084 
Q 2853 3084 3261 2657 
Q 3669 2231 3669 1497 
Q 3669 778 3244 343 
Q 2819 -91 2113 -91 
Q 1303 -91 875 529 
Q 447 1150 447 2328 
Q 447 3434 972 4092 
Q 1497 4750 2381 4750 
Q 2619 4750 2861 4703 
Q 3103 4656 3366 4563 
z
" transform="scale(0.015625)"/>
       </defs>
       <use xlink:href="#DejaVuSans-32"/>
       <use xlink:href="#DejaVuSans-30" x="63.623047"/>
       <use xlink:href="#DejaVuSans-32" x="127.246094"/>
       <use xlink:href="#DejaVuSans-30" x="190.869141"/>
       <use xlink:href="#DejaVuSans-2d" x="254.492188"/>
       <use xlink:href="#DejaVuSans-30" x="290.576172"/>
       <use xlink:href="#DejaVuSans-36" x="354.199219"/>
       <use xlink:href="#DejaVuSans-2d" x="417.822266"/>
       <use xlink:href="#DejaVuSans-30" x="453.90625"/>
       <use xlink:href="#DejaVuSans-31" x="517.529297"/>
      </g>
     </g>
    </g>
    <g id="xtick_3">
     <g id="line2d_3">
      <g>
       <use xlink:href="#m86376c4c29" x="280.427924" y="320.4" style="stroke: #000000; stroke-width: 0.8"/>
      </g>
     </g>
     <g id="text_3">
      <!-- 2020-06-15 -->
      <g transform="translate(251.370111 334.998438) scale(0.1 -0.1)">
       <use xlink:href="#DejaVuSans-32"/>
       <use xlink:href="#DejaVuSans-30" x="63.623047"/>
       <use xlink:href="#DejaVuSans-32" x="127.246094"/>
       <use xlink:href="#DejaVuSans-30" x="190.869141"/>
       <use xlink:href="#DejaVuSans-2d" x="254.492188"/>
       <use xlink:href="#DejaVuSans-30" x="290.576172"/>
       <use xlink:href="#DejaVuSans-36" x="354.199219"/>
       <use xlink:href="#DejaVuSans-2d" x="417.822266"/>
       <use xlink:href="#DejaVuSans-31" x="453.90625"/>
       <use xlink:href="#DejaVuSans-35" x="517.529297"/>
      </g>
     </g>
    </g>
    <g id="xtick_4">
     <g id="line2d_4">
      <g>
       <use xlink:href="#m86376c4c29" x="358.133092" y="320.4" style="stroke: #000000; stroke-width: 0.8"/>
      </g>
     </g>
     <g id="text_4">
      <!-- 2020-07-01 -->
      <g transform="translate(329.075279 334.998438) scale(0.1 -0.1)">
       <defs>
        <path id="DejaVuSans-37" d="M 525 4666 
L 3525 4666 
L 3525 4397 
L 1831 0 
L 1172 0 
L 2766 4134 
L 525 4134 
L 525 4666 
z
" transform="scale(0.015625)"/>
       </defs>
       <use xlink:href="#DejaVuSans-32"/>
       <use xlink:href="#DejaVuSans-30" x="63.623047"/>
       <use xlink:href="#DejaVuSans-32" x="127.246094"/>
       <use xlink:href="#DejaVuSans-30" x="190.869141"/>
       <use xlink:href="#DejaVuSans-2d" x="254.492188"/>
       <use xlink:href="#DejaVuSans-30" x="290.576172"/>
       <use xlink:href="#DejaVuSans-37" x="354.199219"/>
       <use xlink:href="#DejaVuSans-2d" x="417.822266"/>
       <use xlink:href="#DejaVuSans-30" x="453.90625"/>
       <use xlink:href="#DejaVuSans-31" x="517.529297"/>
      </g>
     </g>
    </g>
    <g id="xtick_5">
     <g id="line2d_5">
      <g>
       <use xlink:href="#m86376c4c29" x="426.125113" y="320.4" style="stroke: #000000; stroke-width: 0.8"/>
      </g>
     </g>
     <g id="text_5">
      <!-- 2020-07-15 -->
      <g transform="translate(397.067301 334.998438) scale(0.1 -0.1)">
       <use xlink:href="#DejaVuSans-32"/>
       <use xlink:href="#DejaVuSans-30" x="63.623047"/>
       <use xlink:href="#DejaVuSans-32" x="127.246094"/>
       <use xlink:href="#DejaVuSans-30" x="190.869141"/>
       <use xlink:href="#DejaVuSans-2d" x="254.492188"/>
       <use xlink:href="#DejaVuSans-30" x="290.576172"/>
       <use xlink:href="#DejaVuSans-37" x="354.199219"/>
       <use xlink:href="#DejaVuSans-2d" x="417.822266"/>
       <use xlink:href="#DejaVuSans-31" x="453.90625"/>
       <use xlink:href="#DejaVuSans-35" x="517.529297"/>
      </g>
     </g>
    </g>
    <g id="xtick_6">
     <g id="line2d_6">
      <g>
       <use xlink:href="#m86376c4c29" x="508.686854" y="320.4" style="stroke: #000000; stroke-width: 0.8"/>
      </g>
     </g>
     <g id="text_6">
      <!-- 2020-08-01 -->
      <g transform="translate(479.629042 334.998438) scale(0.1 -0.1)">
       <defs>
        <path id="DejaVuSans-38" d="M 2034 2216 
Q 1584 2216 1326 1975 
Q 1069 1734 1069 1313 
Q 1069 891 1326 650 
Q 1584 409 2034 409 
Q 2484 409 2743 651 
Q 3003 894 3003 1313 
Q 3003 1734 2745 1975 
Q 2488 2216 2034 2216 
z
M 1403 2484 
Q 997 2584 770 2862 
Q 544 3141 544 3541 
Q 544 4100 942 4425 
Q 1341 4750 2034 4750 
Q 2731 4750 3128 4425 
Q 3525 4100 3525 3541 
Q 3525 3141 3298 2862 
Q 3072 2584 2669 2484 
Q 3125 2378 3379 2068 
Q 3634 1759 3634 1313 
Q 3634 634 3220 271 
Q 2806 -91 2034 -91 
Q 1263 -91 848 271 
Q 434 634 434 1313 
Q 434 1759 690 2068 
Q 947 2378 1403 2484 
z
M 1172 3481 
Q 1172 3119 1398 2916 
Q 1625 2713 2034 2713 
Q 2441 2713 2670 2916 
Q 2900 3119 2900 3481 
Q 2900 3844 2670 4047 
Q 2441 4250 2034 4250 
Q 1625 4250 1398 4047 
Q 1172 3844 1172 3481 
z
" transform="scale(0.015625)"/>
       </defs>
       <use xlink:href="#DejaVuSans-32"/>
       <use xlink:href="#DejaVuSans-30" x="63.623047"/>
       <use xlink:href="#DejaVuSans-32" x="127.246094"/>
       <use xlink:href="#DejaVuSans-30" x="190.869141"/>
       <use xlink:href="#DejaVuSans-2d" x="254.492188"/>
       <use xlink:href="#DejaVuSans-30" x="290.576172"/>
       <use xlink:href="#DejaVuSans-38" x="354.199219"/>
       <use xlink:href="#DejaVuSans-2d" x="417.822266"/>
       <use xlink:href="#DejaVuSans-30" x="453.90625"/>
       <use xlink:href="#DejaVuSans-31" x="517.529297"/>
      </g>
     </g>
    </g>
   </g>
   <g id="matplotlib.axis_2">
    <g id="ytick_1">
     <g id="line2d_7">
      <defs>
       <path id="m763d5cdfd6" d="M 0 0 
L -3.5 0 
" style="stroke: #000000; stroke-width: 0.8"/>
      </defs>
      <g>
       <use xlink:href="#m763d5cdfd6" x="72" y="315.22787" style="stroke: #000000; stroke-width: 0.8"/>
      </g>
     </g>
     <g id="text_7">
      <!-- −2 -->
      <g transform="translate(50.257812 319.027089) scale(0.1 -0.1)">
       <defs>
        <path id="DejaVuSans-2212" d="M 678 2272 
L 4684 2272 
L 4684 1741 
L 678 1741 
L 678 2272 
z
" transform="scale(0.015625)"/>
       </defs>
       <use xlink:href="#DejaVuSans-2212"/>
       <use xlink:href="#DejaVuSans-32" x="83.789062"/>
      </g>
     </g>
    </g>
    <g id="ytick_2">
     <g id="line2d_8">
      <g>
       <use xlink:href="#m763d5cdfd6" x="72" y="266.673981" style="stroke: #000000; stroke-width: 0.8"/>
      </g>
     </g>
     <g id="text_8">
      <!-- −1 -->
      <g transform="translate(50.257812 270.4732) scale(0.1 -0.1)">
       <use xlink:href="#DejaVuSans-2212"/>
       <use xlink:href="#DejaVuSans-31" x="83.789062"/>
      </g>
     </g>
    </g>
    <g id="ytick_3">
     <g id="line2d_9">
      <g>
       <use xlink:href="#m763d5cdfd6" x="72" y="218.120092" style="stroke: #000000; stroke-width: 0.8"/>
      </g>
     </g>
     <g id="text_9">
      <!-- 0 -->
      <g transform="translate(58.6375 221.919311) scale(0.1 -0.1)">
       <use xlink:href="#DejaVuSans-30"/>
      </g>
     </g>
    </g>
    <g id="ytick_4">
     <g id="line2d_10">
      <g>
       <use xlink:href="#m763d5cdfd6" x="72" y="169.566204" style="stroke: #000000; stroke-width: 0.8"/>
      </g>
     </g>
     <g id="text_10">
      <!-- 1 -->
      <g transform="translate(58.6375 173.365422) scale(0.1 -0.1)">
       <use xlink:href="#DejaVuSans-31"/>
      </g>
     </g>
    </g>
    <g id="ytick_5">
     <g id="line2d_11">
      <g>
       <use xlink:href="#m763d5cdfd6" x="72" y="121.012315" style="stroke: #000000; stroke-width: 0.8"/>
      </g>
     </g>
     <g id="text_11">
      <!-- 2 -->
      <g transform="translate(58.6375 124.811533) scale(0.1 -0.1)">
       <use xlink:href="#DejaVuSans-32"/>
      </g>
     </g>
    </g>
    <g id="ytick_6">
     <g id="line2d_12">
      <g>
       <use xlink:href="#m763d5cdfd6" x="72" y="72.458426" style="stroke: #000000; stroke-width: 0.8"/>
      </g>
     </g>
     <g id="text_12">
      <!-- 3 -->
      <g transform="translate(58.6375 76.257645) scale(0.1 -0.1)">
       <defs>
        <path id="DejaVuSans-33" d="M 2597 2516 
Q 3050 2419 3304 2112 
Q 3559 1806 3559 1356 
Q 3559 666 3084 287 
Q 2609 -91 1734 -91 
Q 1441 -91 1130 -33 
Q 819 25 488 141 
L 488 750 
Q 750 597 1062 519 
Q 1375 441 1716 441 
Q 2309 441 2620 675 
Q 2931 909 2931 1356 
Q 2931 1769 2642 2001 
Q 2353 2234 1838 2234 
L 1294 2234 
L 1294 2753 
L 1863 2753 
Q 2328 2753 2575 2939 
Q 2822 3125 2822 3475 
Q 2822 3834 2567 4026 
Q 2313 4219 1838 4219 
Q 1578 4219 1281 4162 
Q 984 4106 628 3988 
L 628 4550 
Q 988 4650 1302 4700 
Q 1616 4750 1894 4750 
Q 2613 4750 3031 4423 
Q 3450 4097 3450 3541 
Q 3450 3153 3228 2886 
Q 3006 2619 2597 2516 
z
" transform="scale(0.015625)"/>
       </defs>
       <use xlink:href="#DejaVuSans-33"/>
      </g>
     </g>
    </g>
   </g>
   <g id="line2d_13">
    <path d="M 72 289.030943 
L 72.404714 299.320578 
L 72.607072 297.758078 
L 72.809429 288.078199 
L 73.214143 260.029415 
L 73.618858 248.748926 
L 75.035358 173.482149 
L 75.237715 170.795411 
L 75.440073 175.387637 
L 75.64243 182.838095 
L 75.844787 185.829711 
L 76.047144 199.663554 
L 76.654216 263.421184 
L 77.05893 285.258077 
L 77.261287 289.221492 
L 77.463645 288.878504 
L 77.666002 279.160515 
L 78.070716 253.303042 
L 78.475431 241.984443 
L 78.677788 233.69557 
L 79.487217 181.980625 
L 79.891931 167.213093 
L 80.094288 168.985197 
L 80.903717 207.476055 
L 81.713146 275.844966 
L 82.11786 289.145272 
L 82.320218 290.993596 
L 82.522575 290.726827 
L 82.724932 288.440242 
L 82.927289 282.247406 
L 83.332004 261.382312 
L 83.736718 248.386883 
L 83.939075 245.623926 
L 84.141432 245.871639 
L 84.546147 251.683378 
L 84.748504 253.588866 
L 84.950861 253.60792 
L 85.355576 257.418896 
L 85.557933 254.389171 
L 85.76029 259.953196 
L 86.569719 300.768749 
L 86.772076 306.294664 
L 86.974433 307.742835 
L 87.176791 307.8 
L 87.379148 306.580488 
L 87.581505 303.188719 
L 87.783862 297.053048 
L 88.188577 277.026368 
L 88.390934 272.319813 
L 89.200363 264.983684 
L 89.40272 261.229873 
L 89.807434 247.796182 
L 90.212149 245.566761 
L 90.414506 243.108681 
L 90.616863 250.330481 
L 91.223935 296.271797 
L 91.628649 306.294664 
L 91.831006 306.351829 
L 92.033364 304.084298 
L 92.842792 262.163562 
L 93.04515 260.219964 
L 93.449864 252.407463 
L 93.652221 251.931091 
L 93.854578 249.263408 
L 94.056936 248.691761 
L 94.259293 246.309901 
L 94.46165 240.498163 
L 94.664007 237.906699 
L 94.866364 238.745114 
L 95.068722 241.603346 
L 95.271079 238.116303 
L 95.473436 247.300755 
L 96.080508 296.614785 
L 96.485222 304.979878 
L 96.687579 306.713872 
L 96.889937 302.769512 
L 97.699365 261.496641 
L 98.306437 251.950146 
L 98.508794 251.607158 
L 99.52058 232.323619 
L 99.722937 233.466912 
L 99.925295 237.430327 
L 100.127652 235.772552 
L 100.330009 244.995115 
L 100.937081 294.366309 
L 101.341795 305.513414 
L 101.544152 306.408994 
L 101.74651 303.03628 
L 101.948867 292.174998 
L 102.353581 264.88841 
L 102.555938 263.478348 
L 103.567724 247.31981 
L 104.377153 227.235966 
L 104.57951 228.398314 
L 104.781868 233.295418 
L 104.984225 233.276363 
L 105.186582 241.355632 
L 105.793654 291.508077 
L 106.198368 303.093445 
L 106.400725 304.694055 
L 106.603083 301.035517 
L 107.412511 259.30533 
L 107.614869 257.742829 
L 107.817226 254.408225 
L 108.22194 241.203193 
L 108.626655 221.481392 
L 108.829012 216.088861 
L 109.031369 214.373922 
L 109.638441 222.262642 
L 109.840798 227.197856 
L 110.043155 236.649077 
L 110.650227 286.668138 
L 111.054941 299.625456 
L 111.257298 301.35945 
L 111.459655 299.777895 
L 111.662013 289.412041 
L 112.066727 262.830482 
L 112.471442 249.206243 
L 113.887942 187.049224 
L 114.090299 184.896022 
L 114.292656 191.088858 
L 114.495014 201.473768 
L 114.697371 205.646787 
L 115.102085 236.553803 
L 115.709157 281.408991 
L 116.113871 294.080486 
L 116.316228 294.232925 
L 116.518586 292.72759 
L 116.720943 289.431095 
L 117.125657 264.678806 
L 118.542158 169.575898 
L 118.744515 160.391446 
L 118.946872 156.866293 
L 119.149229 160.200897 
L 119.756301 194.614011 
L 120.56573 266.717678 
L 120.970444 284.72454 
L 121.172801 288.440242 
L 121.375159 289.926522 
L 121.577516 288.611736 
L 121.779873 281.408991 
L 122.589302 235.067522 
L 123.196374 211.934897 
L 123.398731 207.780933 
L 123.601088 207.971482 
L 123.803445 207.457 
L 124.410517 219.633069 
L 124.612874 229.598771 
L 125.219946 280.74207 
L 125.62466 293.947102 
L 125.827017 295.757316 
L 126.029374 293.451675 
L 127.04116 242.213102 
L 127.648232 208.219196 
L 128.255304 169.709282 
L 128.457661 162.849526 
L 128.660018 162.544647 
L 129.26709 202.826664 
L 130.278876 285.372406 
L 130.481233 292.479876 
L 130.68359 293.737498 
L 130.885947 291.393748 
L 132.504805 192.4227 
L 133.111877 153.646018 
L 133.314234 145.090377 
L 133.516591 146.633822 
L 133.921306 160.60105 
L 134.123663 167.346477 
L 135.135449 267.19405 
L 135.540163 278.665088 
L 135.74252 277.807618 
L 135.944878 268.184904 
L 136.349592 239.640693 
L 136.551949 233.485967 
L 136.754306 222.700905 
L 136.956664 226.854868 
L 137.159021 216.584288 
L 137.766092 208.562183 
L 137.96845 208.924226 
L 138.373164 204.008067 
L 138.777879 210.867824 
L 138.980236 211.630019 
L 139.182593 222.357917 
L 139.789665 273.825148 
L 140.194379 287.792376 
L 140.396736 289.678809 
L 140.599093 286.934906 
L 141.003808 259.476824 
L 141.408522 240.231394 
L 142.015594 228.055326 
L 142.622665 219.747398 
L 142.825023 219.499685 
L 143.02738 218.394502 
L 143.229737 219.023313 
L 143.634451 223.825142 
L 143.836809 222.700905 
L 144.039166 231.961576 
L 144.646238 276.816765 
L 145.050952 287.811431 
L 145.253309 288.992833 
L 145.455666 286.134601 
L 145.860381 259.171945 
L 146.062738 244.213864 
L 146.66981 229.236729 
L 146.872167 226.797704 
L 147.074524 225.80685 
L 147.479238 215.707763 
L 147.681596 223.405935 
L 147.883953 224.301515 
L 148.08631 226.683375 
L 148.491024 235.162796 
L 148.693382 233.924229 
L 149.098096 255.437189 
L 149.502811 281.066003 
L 149.907525 293.013413 
L 150.109882 294.899846 
L 150.312239 294.366309 
L 150.514597 291.774846 
L 150.716954 286.534754 
L 151.121668 267.365544 
L 151.526383 248.539322 
L 151.931097 243.203956 
L 152.133454 242.803803 
L 152.335811 244.614017 
L 152.538169 245.090389 
L 152.740526 243.203956 
L 152.942883 243.470724 
L 153.14524 242.575145 
L 153.347597 242.613254 
L 153.549955 239.926516 
L 153.752312 241.946334 
L 154.764098 289.240547 
L 154.966455 292.880029 
L 155.168812 294.156706 
L 155.573527 290.536278 
L 155.775884 280.360972 
L 156.78767 208.733677 
L 157.799456 169.556843 
L 158.001813 171.405167 
L 158.406528 183.543126 
L 158.608885 196.005017 
L 159.215956 259.095726 
L 159.620671 278.950911 
L 159.823028 281.904418 
L 160.025385 281.066003 
L 160.227743 272.053045 
L 160.632457 242.213102 
L 161.8466 195.966907 
L 162.251315 186.725291 
L 162.453672 186.858675 
L 162.656029 189.488248 
L 163.465458 218.737489 
L 164.072529 273.767984 
L 164.477244 290.879266 
L 164.679601 291.184144 
L 164.881958 288.211583 
L 165.084316 278.874692 
L 165.48903 249.66356 
L 166.500816 217.403648 
L 167.310245 177.940991 
L 167.512602 181.027881 
L 167.917316 199.949377 
L 168.119674 204.046177 
L 168.322031 214.488251 
L 168.929102 269.118593 
L 169.333817 283.08582 
L 169.536174 286.32515 
L 169.738531 282.952436 
L 170.143246 257.857159 
L 170.54796 229.979869 
L 171.357389 188.992821 
L 171.559746 183.447851 
L 172.166818 161.191751 
L 172.369175 162.678032 
L 172.571532 169.956996 
L 173.178604 205.799226 
L 173.785675 271.17652 
L 174.19039 289.011888 
L 174.392747 291.755791 
L 174.595104 290.078961 
L 174.999819 267.822861 
L 175.404533 244.823621 
L 177.023391 172.853338 
L 177.225748 173.32971 
L 177.428105 176.931082 
L 177.630462 192.194041 
L 177.83282 194.442517 
L 178.237534 235.029412 
L 178.642248 274.511124 
L 179.046963 292.174998 
L 179.24932 295.604877 
L 179.451677 293.280181 
L 179.654034 285.277131 
L 180.261106 248.596487 
L 181.879964 159.343428 
L 182.082321 156.332756 
L 182.284678 161.553794 
L 183.094107 213.421178 
L 183.498821 249.339627 
L 183.903536 269.099538 
L 184.30825 276.321338 
L 184.510607 277.57896 
L 184.712965 274.225301 
L 184.915322 261.896793 
L 185.724751 186.344193 
L 186.129465 166.641447 
L 186.331822 161.058367 
L 186.53418 160.353336 
L 186.736537 162.697086 
L 187.748323 199.968432 
L 188.557752 259.133836 
L 188.962466 272.205484 
L 189.164823 274.091917 
L 189.36718 274.168136 
L 189.569538 273.482161 
L 189.771895 263.535513 
L 190.986038 175.025594 
L 191.188395 170.12849 
L 191.390752 170.09038 
L 191.795467 178.531692 
L 192.604896 207.418891 
L 193.414325 265.860208 
L 193.819039 278.512649 
L 194.021396 279.503503 
L 194.426111 275.844966 
L 194.628468 267.575148 
L 195.437897 211.344196 
L 195.640254 206.71386 
L 195.842611 207.838098 
L 196.247325 213.440233 
L 196.449683 213.973769 
L 196.65204 213.611727 
L 197.056754 221.195569 
L 197.259112 221.976819 
L 197.461469 229.75121 
L 198.06854 274.41585 
L 198.473255 287.525607 
L 198.675612 287.620882 
L 198.877969 284.248168 
L 199.282684 255.799232 
L 199.687398 234.705479 
L 201.306256 173.32971 
L 201.508613 172.262636 
L 202.115684 190.00273 
L 202.318042 200.31142 
L 202.925113 259.533988 
L 203.329828 275.844966 
L 203.532185 277.788564 
L 203.734542 275.025606 
L 203.936899 264.373928 
L 204.341614 232.95243 
L 205.758114 182.418888 
L 205.960471 180.113247 
L 206.162829 180.246631 
L 206.365186 181.561418 
L 206.7699 192.517974 
L 206.972257 195.471481 
L 207.174615 205.494348 
L 207.781686 260.08658 
L 208.186401 275.025606 
L 208.388758 277.845728 
L 208.591115 274.758838 
L 208.793472 263.783226 
L 209.198187 232.533223 
L 209.805258 211.934897 
L 210.209973 193.546938 
L 210.817044 154.998915 
L 211.019402 147.148304 
L 211.221759 149.892207 
L 211.626473 172.529405 
L 211.82883 177.350289 
L 212.031188 190.974529 
L 212.638259 251.130786 
L 213.042974 268.318288 
L 213.245331 272.014935 
L 213.447688 270.43338 
L 213.650045 260.524842 
L 214.257117 220.509593 
L 214.661831 196.138401 
L 215.47126 141.241291 
L 215.875975 125.768728 
L 216.078332 125.330466 
L 216.280689 130.456229 
L 217.090118 189.450138 
L 217.697189 246.729109 
L 218.101904 263.802281 
L 218.304261 266.908227 
L 218.506618 268.165849 
L 218.708976 267.003501 
L 218.911333 255.227585 
L 219.518404 204.541604 
L 220.125476 171.976813 
L 220.327833 169.976051 
L 220.53019 172.033978 
L 221.541976 211.172702 
L 221.744334 215.936422 
L 222.553762 268.566001 
L 222.958477 278.626978 
L 223.160834 280.208533 
L 223.363191 280.532466 
L 223.565549 279.084295 
L 223.767906 271.024081 
L 224.374977 235.677278 
L 224.779692 228.665082 
L 225.386763 230.57057 
L 225.589121 233.828955 
L 225.791478 234.648315 
L 226.196192 242.403651 
L 226.398549 242.079718 
L 226.600907 248.02484 
L 227.410335 297.624694 
L 227.612693 301.35945 
L 227.81505 302.921951 
L 228.017407 299.968444 
L 228.826836 260.562952 
L 229.029193 258.40975 
L 229.23155 253.093439 
L 230.648051 194.423462 
L 230.850408 194.956999 
L 231.255122 208.295415 
L 231.45748 218.375447 
L 232.064551 277.293137 
L 232.469266 293.184907 
L 232.671623 295.700151 
L 232.87398 294.575913 
L 233.278694 271.17652 
L 233.683409 250.330481 
L 235.302267 190.574376 
L 235.504624 190.021785 
L 236.111695 207.704714 
L 236.314053 217.289319 
L 236.921124 274.777892 
L 237.325839 289.469205 
L 237.528196 292.365547 
L 237.730553 290.402894 
L 238.135267 268.242068 
L 238.539982 248.082005 
L 239.349411 219.461575 
L 239.754125 210.200903 
L 240.15884 200.749682 
L 240.361197 200.521024 
L 240.563554 205.570567 
L 240.968268 221.86249 
L 241.170626 228.874686 
L 241.777697 280.265698 
L 242.182412 294.937956 
L 242.384769 297.243596 
L 242.587126 294.480639 
L 242.99184 271.614782 
L 243.396555 254.998927 
L 245.21777 185.924986 
L 245.420127 189.850291 
L 246.027199 214.64069 
L 246.836627 282.628503 
L 247.038985 290.364785 
L 247.241342 293.299236 
L 247.443699 290.955486 
L 247.848413 269.156703 
L 249.467271 165.536264 
L 249.669628 158.066751 
L 249.871985 156.275592 
L 250.074343 156.428031 
L 250.2767 162.849526 
L 250.883772 192.556084 
L 251.6932 261.915848 
L 252.097915 275.349539 
L 252.300272 278.188716 
L 252.502629 278.436429 
L 252.704986 274.854112 
L 253.109701 244.556852 
L 253.91913 176.835808 
L 254.323844 162.220714 
L 254.728558 154.065226 
L 254.930916 152.902878 
L 255.133273 159.838854 
L 255.740345 194.499682 
L 256.549773 264.06905 
L 256.954488 278.379265 
L 257.156845 281.904418 
L 257.359202 283.447863 
L 257.561559 282.552284 
L 257.966274 255.837341 
L 258.573345 209.229104 
L 258.97806 189.18337 
L 259.382774 178.989009 
L 259.585131 175.806844 
L 259.787489 175.406692 
L 259.989846 177.826661 
L 260.39456 192.613249 
L 260.596917 204.960811 
L 261.203989 262.296946 
L 261.608704 279.598777 
L 261.811061 282.30457 
L 262.013418 281.580485 
L 262.418132 259.419659 
L 262.62049 248.310664 
L 263.025204 239.373925 
L 263.227561 236.782461 
L 263.429918 235.848772 
L 263.834633 237.030175 
L 264.03699 236.744351 
L 264.239347 237.620876 
L 264.441704 237.697095 
L 264.644062 237.449382 
L 264.846419 239.335815 
L 265.048776 243.070572 
L 265.251133 243.070572 
L 265.45349 246.786273 
L 266.060562 286.058382 
L 266.465277 297.929572 
L 266.667634 299.358688 
L 266.869991 295.490547 
L 267.072348 288.135364 
L 267.477063 263.630787 
L 268.084134 243.127736 
L 268.488849 233.619351 
L 269.09592 223.215386 
L 269.500635 219.556849 
L 269.702992 221.576667 
L 269.905349 224.911271 
L 270.107706 225.540082 
L 270.310063 231.370875 
L 270.917135 276.549996 
L 271.32185 287.620882 
L 271.524207 289.602589 
L 271.726564 288.021034 
L 274.15485 157.094952 
L 274.357208 150.463853 
L 274.559565 153.550744 
L 275.166636 176.816753 
L 275.976065 252.255024 
L 276.38078 263.878501 
L 276.583137 263.230635 
L 276.987851 243.032462 
L 277.392566 216.298465 
L 278.404352 163.630776 
L 278.606709 160.810653 
L 279.011423 148.57742 
L 279.213781 147.09114 
L 279.416138 151.0355 
L 280.023209 189.621632 
L 280.630281 255.608683 
L 281.034995 276.68338 
L 281.237353 281.199387 
L 281.43971 279.770271 
L 281.642067 274.320575 
L 282.249139 235.696333 
L 282.85621 204.579713 
L 283.867996 165.002727 
L 284.070354 163.897544 
L 284.272711 171.443277 
L 285.284497 248.291609 
L 285.689211 278.055332 
L 286.093926 291.698626 
L 286.296283 293.813718 
L 286.49864 292.136888 
L 286.700997 289.412041 
L 287.105712 260.715391 
L 287.712783 213.021025 
L 288.522212 172.834283 
L 288.724569 166.241294 
L 288.926927 164.450135 
L 289.129284 167.765685 
L 289.736355 199.053798 
L 290.545784 263.897556 
L 290.950499 278.036277 
L 291.152856 280.608686 
L 291.355213 280.684905 
L 291.55757 279.312954 
L 291.759927 267.765696 
L 292.771714 176.45471 
L 293.176428 156.104098 
L 293.581142 145.700133 
L 293.7835 144.099523 
L 293.985857 147.357908 
L 294.592928 170.985959 
L 295.402357 248.06295 
L 295.807072 261.668135 
L 296.009429 261.515696 
L 296.414143 242.727584 
L 297.830644 117.651349 
L 298.235358 105.322842 
L 298.437715 102.921927 
L 298.640073 103.16964 
L 298.84243 105.075128 
L 299.044787 112.525587 
L 299.449501 137.52559 
L 300.056573 210.753495 
L 300.461287 234.152888 
L 300.663645 239.735968 
L 300.866002 240.402888 
L 301.068359 234.076668 
L 301.473073 206.218433 
L 302.484859 108.600281 
L 302.687217 98.101042 
L 302.889574 98.196317 
L 303.091931 105.703939 
L 303.496646 113.726044 
L 303.90136 134.362479 
L 304.306074 160.277117 
L 304.913146 224.473008 
L 305.31786 247.986731 
L 305.520218 253.150603 
L 305.722575 251.492829 
L 305.924932 244.880785 
L 306.532004 207.819043 
L 307.54379 142.880011 
L 307.746147 133.409735 
L 307.948504 132.590376 
L 308.757933 162.525593 
L 309.162647 186.706236 
L 309.769719 245.147554 
L 310.174433 263.592678 
L 310.376791 267.670422 
L 310.579148 267.136885 
L 310.983862 245.414322 
L 312.198005 148.901353 
L 312.60272 138.116291 
L 312.805077 134.057601 
L 313.007434 134.572083 
L 313.209791 138.001962 
L 313.816863 163.592666 
L 314.01922 176.283216 
L 314.626292 234.343436 
L 315.031006 253.360207 
L 315.233364 257.609445 
L 315.435721 256.999689 
L 315.840435 239.583529 
L 316.24515 222.224533 
L 316.649864 211.077428 
L 317.054578 196.881542 
L 317.66165 189.907456 
L 317.864007 189.488248 
L 318.066364 188.649833 
L 318.268722 192.994346 
L 318.875793 213.535507 
L 319.685222 267.899081 
L 320.089937 279.751216 
L 320.292294 281.275607 
L 320.697008 273.920423 
L 321.101723 249.587341 
L 322.315866 177.293125 
L 322.72058 167.78474 
L 322.922937 165.631538 
L 323.125295 169.461569 
L 323.732366 195.090383 
L 324.541795 258.676519 
L 324.94651 271.938715 
L 325.148867 274.625453 
L 325.351224 274.682618 
L 325.553581 272.586581 
L 325.755938 261.153653 
L 326.970082 156.866293 
L 327.172439 150.99739 
L 327.374796 149.530164 
L 327.77951 144.366292 
L 327.981868 148.996628 
L 328.184225 157.152116 
L 328.791296 205.07514 
L 329.196011 245.64298 
L 329.398368 259.781702 
L 329.803083 269.156703 
L 330.00544 268.280178 
L 330.207797 263.078196 
L 330.814869 218.070569 
L 331.42194 182.609436 
L 331.826655 161.572849 
L 332.029012 158.88611 
L 332.231369 158.905165 
L 332.433726 159.076659 
L 332.636083 161.020257 
L 332.838441 165.231386 
L 333.243155 186.496632 
L 333.445512 194.861724 
L 334.052584 255.837341 
L 334.457298 276.054569 
L 334.659655 281.085058 
L 334.862013 278.855637 
L 335.266727 260.448622 
L 335.671442 237.849534 
L 336.48087 200.635353 
L 336.683228 195.928798 
L 336.885585 194.899834 
L 337.087942 189.164315 
L 337.290299 187.449376 
L 337.695014 193.451663 
L 338.099728 206.866299 
L 338.302085 212.315995 
L 339.111514 273.386886 
L 339.313871 279.14146 
L 339.516228 281.218442 
L 339.718586 277.445576 
L 340.1233 255.780177 
L 340.932729 214.526361 
L 342.349229 157.228336 
L 342.551587 157.152116 
L 343.158658 180.056082 
L 343.76573 238.287797 
L 344.170444 254.998927 
L 344.372801 259.419659 
L 344.575159 257.437951 
L 344.777516 251.016457 
L 345.18223 222.357917 
L 346.194016 145.681078 
L 346.598731 131.980619 
L 347.003445 125.844948 
L 347.205802 125.063698 
L 347.40816 128.017204 
L 347.610517 135.296169 
L 348.015231 159.514921 
L 348.82466 244.061425 
L 349.229374 259.934141 
L 349.431732 259.22911 
L 349.634089 253.855634 
L 349.836446 243.527889 
L 351.050589 146.633822 
L 351.455304 129.598759 
L 351.860018 121.386106 
L 352.062375 120.547691 
L 352.264733 123.920405 
L 352.46709 134.21004 
L 353.276519 211.306086 
L 353.681233 246.50045 
L 354.085947 265.231397 
L 354.288305 270.128502 
L 354.490662 270.662038 
L 354.693019 268.585056 
L 355.097733 229.579716 
L 355.704805 161.077422 
L 356.109519 138.154401 
L 356.716591 121.271777 
L 356.918948 120.261868 
L 357.121306 124.72071 
L 357.52602 148.501201 
L 357.728377 160.277117 
L 358.740163 248.88231 
L 359.144878 260.924994 
L 359.347235 262.658989 
L 359.549592 262.35411 
L 359.751949 249.358682 
L 360.763735 137.41126 
L 361.16845 119.709277 
L 361.573164 109.400586 
L 361.775521 107.26644 
L 361.977879 110.315221 
L 362.180236 116.812935 
L 362.58495 140.745864 
L 363.394379 223.120112 
L 363.799093 239.507309 
L 364.001451 240.269504 
L 364.203808 234.800754 
L 364.406165 225.463862 
L 365.013237 160.867818 
L 365.620308 100.921165 
L 366.025023 85.905919 
L 366.429737 80.1704 
L 366.632094 80.627717 
L 366.834451 83.085797 
L 367.036809 91.184121 
L 367.441523 118.299215 
L 368.048595 192.270261 
L 368.453309 220.623923 
L 368.655666 228.550753 
L 368.858024 230.761119 
L 369.060381 227.140692 
L 369.262738 217.975294 
L 369.86981 158.943275 
L 370.476881 104.88458 
L 370.881596 89.431072 
L 371.083953 89.011864 
L 371.28631 89.678785 
L 371.488667 93.337322 
L 371.691024 99.130006 
L 372.298096 135.372388 
L 373.107525 214.412032 
L 373.512239 235.086577 
L 373.714597 239.145266 
L 374.119311 238.4974 
L 374.321668 226.645265 
L 375.333454 130.075131 
L 375.738169 117.746624 
L 375.940526 115.23138 
L 376.142883 114.202416 
L 376.34524 119.023301 
L 376.749955 143.432602 
L 377.559383 198.234438 
L 377.964098 230.475296 
L 378.368812 243.318285 
L 378.57117 243.527889 
L 378.773527 238.001973 
L 378.975884 227.559899 
L 380.392384 119.004246 
L 380.797099 109.762629 
L 381.201813 102.693268 
L 381.40417 106.199366 
L 382.011242 140.669645 
L 382.820671 217.822855 
L 383.225385 232.819046 
L 383.427743 233.428802 
L 383.6301 228.455478 
L 384.034814 207.742824 
L 385.0466 139.354858 
L 385.451315 123.806076 
L 385.653672 123.367814 
L 385.856029 126.892966 
L 386.058386 134.000437 
L 387.070172 199.187182 
L 387.474887 236.553803 
L 387.879601 256.942524 
L 388.284316 265.460056 
L 388.68903 267.803806 
L 388.891387 262.449385 
L 389.700816 221.881545 
L 390.307888 211.43947 
L 390.914959 199.56828 
L 391.117316 204.027122 
L 391.926745 240.898315 
L 392.533817 282.075912 
L 392.938531 293.604114 
L 393.140888 295.338108 
L 393.343246 294.918901 
L 393.545603 295.357163 
L 393.74796 287.011126 
L 394.355032 248.653652 
L 395.569175 196.024072 
L 395.771532 190.421937 
L 395.973889 191.546175 
L 396.176247 199.301512 
L 396.783318 238.478345 
L 397.188033 274.37774 
L 397.592747 290.993596 
L 397.795104 293.585059 
L 397.997461 291.222254 
L 398.402176 274.320575 
L 400.628105 155.380012 
L 400.830462 158.028641 
L 401.03282 167.308368 
L 401.639891 220.471484 
L 402.044606 261.801519 
L 402.44932 280.74207 
L 402.651677 284.476827 
L 402.854034 282.933381 
L 403.258749 265.974538 
L 403.663463 239.488254 
L 404.877607 140.65059 
L 405.282321 121.51949 
L 405.484678 117.594185 
L 405.687035 118.604093 
L 405.889393 128.398302 
L 406.294107 163.230623 
L 406.901179 235.391455 
L 407.305893 257.819049 
L 407.50825 263.040086 
L 407.710607 262.544659 
L 408.115322 242.746639 
L 409.73418 119.442508 
L 409.936537 114.850282 
L 410.138894 114.716898 
L 410.341251 119.004246 
L 410.948323 152.655165 
L 411.15068 167.479861 
L 411.757752 233.276363 
L 412.162466 255.703957 
L 412.364823 261.744354 
L 412.56718 263.402129 
L 412.971895 246.57667 
L 414.388395 155.151354 
L 414.79311 142.537023 
L 415.197824 136.325132 
L 415.400181 142.632298 
L 416.20961 200.921176 
L 416.614325 243.070572 
L 417.019039 264.564477 
L 417.221396 268.527892 
L 417.423753 268.01341 
L 417.828468 252.960054 
L 419.244968 161.896782 
L 419.649683 149.225286 
L 419.85204 145.662023 
L 420.054397 146.995865 
L 420.256754 155.056079 
L 421.066183 215.822093 
L 421.673255 267.079721 
L 422.077969 282.037802 
L 422.280326 284.343442 
L 422.482684 283.733686 
L 422.685041 283.581247 
L 423.089755 254.979872 
L 423.899184 190.764925 
L 424.708613 154.217665 
L 424.91097 151.264158 
L 425.113327 154.97986 
L 425.518042 179.255777 
L 425.720399 190.212334 
L 426.529828 259.514933 
L 426.934542 276.7596 
L 427.136899 280.913564 
L 427.339257 281.656704 
L 427.541614 281.866308 
L 427.743971 273.882313 
L 428.148685 236.420418 
L 428.755757 178.969954 
L 429.160471 155.170409 
L 429.565186 147.510347 
L 429.9699 151.149829 
L 430.374615 166.203184 
L 430.576972 177.007302 
L 431.386401 247.529414 
L 431.791115 258.886122 
L 431.993472 256.999689 
L 432.398187 238.154412 
L 433.207616 177.750442 
L 434.017044 112.449367 
L 434.219402 107.914306 
L 435.02883 133.352571 
L 435.433545 156.54236 
L 436.040617 222.60563 
L 436.445331 243.508834 
L 436.647688 248.272554 
L 436.850045 247.643743 
L 437.25476 228.531698 
L 437.659474 196.138401 
L 438.468903 127.979095 
L 438.67126 118.947081 
L 438.873617 119.842661 
L 439.075975 126.435649 
L 439.278332 126.016442 
L 439.480689 128.093424 
L 439.885403 145.299981 
L 440.290118 168.261112 
L 440.897189 236.363254 
L 441.301904 257.056854 
L 441.504261 262.087342 
L 441.706618 262.582769 
L 442.111333 248.92042 
L 442.920762 200.673463 
L 443.527833 168.337331 
L 444.134905 147.243579 
L 444.337262 144.842664 
L 444.539619 150.787786 
L 445.146691 192.575139 
L 445.753762 256.732921 
L 446.158477 276.397557 
L 446.360834 280.989783 
L 446.563191 279.14146 
L 446.967906 261.61097 
L 448.586763 159.800745 
L 448.991478 147.567512 
L 449.193835 145.41431 
L 449.396192 151.588091 
L 450.003264 189.030931 
L 450.812693 263.24969 
L 451.217407 275.578197 
L 451.419764 275.692527 
L 451.824479 259.762647 
L 452.43155 213.021025 
L 453.038622 174.168124 
L 453.443336 158.371629 
L 453.848051 151.073609 
L 454.050408 154.19861 
L 454.252765 163.459282 
L 454.65748 189.793126 
L 454.859837 197.624682 
L 455.669266 257.6285 
L 456.07398 270.185666 
L 456.276337 271.595727 
L 456.478694 269.747404 
L 456.681052 266.870117 
L 456.883409 259.457769 
L 457.288123 234.419656 
L 457.692838 224.263405 
L 457.895195 224.911271 
L 458.299909 230.246637 
L 458.502267 230.113253 
L 458.906981 226.569045 
L 459.109338 227.064472 
L 459.514053 230.913558 
L 459.71641 234.896028 
L 460.728196 288.383077 
L 461.13291 292.479876 
L 461.537625 289.412041 
L 461.739982 281.142222 
L 462.144696 249.168133 
L 463.561197 185.067516 
L 463.763554 178.341143 
L 463.965911 179.427271 
L 464.572983 197.472243 
L 465.382412 259.533988 
L 465.584769 265.936428 
L 465.787126 268.451672 
L 465.989483 266.203196 
L 467.608341 180.456235 
L 468.620127 160.829708 
L 468.822484 163.72605 
L 469.429556 188.040077 
L 470.036627 240.593437 
L 470.441342 257.075909 
L 470.643699 259.514933 
L 470.846056 257.133073 
L 471.857842 209.95319 
L 472.869628 181.923461 
L 473.071985 182.380778 
L 473.274343 180.723003 
L 473.4767 181.885351 
L 473.679057 185.391449 
L 473.881414 191.489011 
L 474.083772 192.556084 
L 474.286129 199.663554 
L 474.8932 247.948621 
L 475.297915 263.001976 
L 475.500272 264.545422 
L 475.702629 262.658989 
L 476.107344 240.078955 
L 476.512058 219.690233 
L 477.321487 190.517212 
L 477.726201 171.843429 
L 477.928558 168.546935 
L 478.333273 172.891447 
L 478.53563 177.026356 
L 479.142702 200.120871 
L 479.952131 262.906702 
L 480.356845 272.03399 
L 480.559202 271.652892 
L 480.963917 251.187951 
L 482.785131 132.247388 
L 482.987489 126.778637 
L 483.189846 124.339612 
L 483.392203 129.56065 
L 483.999275 166.489008 
L 484.606346 232.361729 
L 485.011061 253.874689 
L 485.213418 257.952433 
L 485.415775 258.828958 
L 485.82049 240.517218 
L 486.225204 211.610964 
L 487.23699 128.264918 
L 487.439347 125.406686 
L 487.844062 131.485193 
L 488.248776 148.729859 
L 489.260562 220.547703 
L 489.665277 250.330481 
L 490.069991 264.316763 
L 490.272348 266.489019 
L 490.474705 265.441001 
L 490.677063 263.802281 
L 490.87942 254.789323 
L 491.891206 180.951662 
L 492.29592 164.54541 
L 492.498277 157.704708 
L 492.700635 155.83733 
L 492.902992 157.342665 
L 493.105349 161.801507 
L 493.712421 192.841907 
L 494.52185 259.514933 
L 495.128921 276.435667 
L 495.331278 276.569051 
L 495.533636 275.997405 
L 495.735993 269.004264 
L 496.950136 184.267211 
L 497.557208 161.706233 
L 497.759565 158.600287 
L 497.961922 161.572849 
L 498.568994 190.74587 
L 499.378422 259.095726 
L 499.58078 265.421946 
L 499.783137 267.727587 
L 499.985494 264.659751 
L 500.187851 256.771031 
L 500.794923 222.586575 
L 500.99728 217.860965 
L 501.401995 205.742061 
L 501.806709 195.319042 
L 502.009066 194.899834 
L 502.211423 196.805322 
L 502.413781 197.396024 
L 502.616138 195.852578 
L 503.020852 204.846482 
L 503.223209 205.360963 
L 503.425567 212.315995 
L 504.032638 259.248165 
L 504.437353 271.348014 
L 504.63971 272.85335 
L 504.842067 270.662038 
L 505.246782 248.10106 
L 505.651496 226.054563 
L 507.270354 158.333519 
L 507.472711 155.456232 
L 507.675068 158.600287 
L 508.28214 184.553034 
L 508.889211 238.268742 
L 509.293926 254.122402 
L 509.496283 257.380787 
L 509.69864 255.684902 
L 510.103354 233.886119 
L 511.722212 135.410498 
L 512.126927 118.966136 
L 512.329284 120.433362 
L 512.936355 152.255012 
L 513.34107 188.306846 
L 513.745784 228.550753 
L 514.150499 249.587341 
L 514.352856 254.751213 
L 514.555213 255.20853 
L 514.75757 246.976822 
L 516.174071 157.39983 
L 516.376428 156.389921 
L 516.781142 165.021782 
L 516.9835 162.487483 
L 517.185857 162.98291 
L 517.590571 179.370107 
L 517.792928 183.295412 
L 517.995286 193.20395 
L 518.4 229.922704 
L 518.4 229.922704 
" clip-path="url(#pa2d7559c13)" style="fill: none; stroke: #1f77b4; stroke-width: 1.5; stroke-linecap: square"/>
   </g>
   <g id="line2d_14">
    <path d="M 72 261.536252 
L 72.202357 261.536252 
L 72.404714 262.11907 
L 72.809429 267.614236 
L 73.011786 264.06626 
L 73.214143 256.527562 
L 73.618858 231.151803 
L 74.023572 224.927664 
L 74.833001 197.395521 
L 75.035358 192.872117 
L 75.237715 191.362674 
L 75.440073 191.019366 
L 75.64243 195.537092 
L 75.844787 202.942812 
L 76.856573 271.665466 
L 77.05893 273.904079 
L 77.261287 274.854221 
L 77.463645 274.34568 
L 77.666002 271.592288 
L 78.070716 253.62806 
L 78.475431 235.646874 
L 78.880145 228.312016 
L 79.082502 222.494525 
L 79.689574 188.058789 
L 79.891931 184.423722 
L 80.094288 184.924697 
L 80.296646 184.214906 
L 80.499003 188.315676 
L 81.713146 268.680261 
L 82.11786 274.224119 
L 82.320218 273.265024 
L 82.522575 270.758029 
L 82.724932 266.527294 
L 83.129646 256.184537 
L 83.332004 252.459787 
L 83.736718 237.672333 
L 83.939075 236.350455 
L 84.34379 231.406105 
L 84.546147 231.940028 
L 84.950861 244.807504 
L 85.153218 244.506237 
L 85.355576 246.092725 
L 85.76029 252.813001 
L 85.962647 252.661903 
L 86.165005 257.145279 
L 86.772076 279.422968 
L 86.974433 278.362546 
L 87.176791 275.186213 
L 87.379148 275.32247 
L 87.783862 263.142092 
L 88.188577 255.9638 
L 88.593291 244.835443 
L 88.795648 247.785216 
L 88.998005 248.079114 
L 89.200363 251.207826 
L 89.40272 250.187878 
L 89.807434 247.084231 
L 90.212149 235.783468 
L 90.414506 238.995591 
L 91.021578 255.771327 
L 91.426292 278.476531 
L 91.628649 281.032805 
L 91.831006 278.918317 
L 92.438078 264.443966 
L 93.04515 234.365886 
L 93.449864 247.735942 
L 93.652221 247.697379 
L 93.854578 245.700783 
L 94.259293 249.504471 
L 94.664007 241.14548 
L 94.866364 237.04468 
L 95.068722 238.383422 
L 95.271079 247.114355 
L 95.87815 258.33942 
L 96.282865 283.191305 
L 96.485222 282.44524 
L 96.889937 276.156456 
L 97.092294 272.951576 
L 97.901723 234.814799 
L 98.306437 245.81756 
L 98.508794 246.562196 
L 98.711151 245.638749 
L 98.913509 247.563513 
L 99.115866 247.238214 
L 99.318223 240.071037 
L 99.722937 233.795029 
L 99.925295 235.735372 
L 100.127652 245.238472 
L 100.734723 260.05585 
L 101.139438 282.686516 
L 101.544152 280.222874 
L 101.948867 272.453339 
L 102.758296 236.244898 
L 102.960653 244.446513 
L 103.16301 247.281989 
L 103.365367 248.314735 
L 103.567724 246.266822 
L 103.770082 247.51814 
L 103.972439 244.548279 
L 104.174796 235.023293 
L 104.57951 230.174457 
L 104.781868 232.985201 
L 105.186582 249.752713 
L 105.388939 253.40254 
L 105.591296 259.219537 
L 105.996011 281.863405 
L 106.198368 279.858208 
L 106.400725 280.190883 
L 106.603083 276.835062 
L 107.007797 264.109916 
L 107.614869 237.768195 
L 108.019583 246.464956 
L 108.22194 247.651879 
L 108.626655 235.494775 
L 109.031369 217.268969 
L 109.638441 228.000286 
L 110.043155 249.629282 
L 110.447869 260.985502 
L 110.852584 278.342554 
L 111.257298 279.361394 
L 111.459655 276.57237 
L 111.86437 265.164179 
L 112.471442 240.034397 
L 112.673799 239.916643 
L 113.078513 230.3248 
L 113.28087 221.546016 
L 113.483228 217.881175 
L 113.685585 209.979536 
L 113.887942 207.99286 
L 114.090299 204.391173 
L 114.292656 203.870524 
L 114.495014 205.31187 
L 115.5068 267.751136 
L 115.709157 274.375119 
L 116.113871 277.222365 
L 116.720943 268.90364 
L 117.125657 258.009529 
L 117.328015 253.488605 
L 117.935086 219.303985 
L 118.339801 193.955292 
L 118.542158 186.58239 
L 118.946872 180.911767 
L 119.149229 175.885166 
L 119.351587 175.175751 
L 119.958658 214.470734 
L 120.363373 249.957272 
L 120.768087 267.977791 
L 120.970444 269.26411 
L 121.172801 267.700114 
L 121.375159 268.04998 
L 121.779873 259.884037 
L 122.184587 250.397238 
L 122.791659 225.608556 
L 123.398731 208.2371 
L 123.601088 209.36782 
L 124.410517 227.056871 
L 124.612874 233.065448 
L 125.422303 275.19537 
L 125.62466 279.162904 
L 125.827017 278.331129 
L 126.434089 266.594818 
L 127.04116 237.477827 
L 127.445875 233.022202 
L 127.850589 214.506039 
L 128.457661 187.232796 
L 128.862375 179.519157 
L 129.064733 186.731549 
L 130.278876 275.449761 
L 130.481233 274.323165 
L 131.290662 259.330836 
L 133.111877 175.042012 
L 133.516591 167.239531 
L 133.718948 165.032231 
L 133.921306 168.745258 
L 134.32602 193.120015 
L 135.135449 261.950319 
L 135.540163 265.263219 
L 135.944878 259.052349 
L 136.754306 221.402194 
L 136.956664 212.088444 
L 137.159021 209.796228 
L 137.361378 209.77177 
L 137.563735 211.16533 
L 137.766092 203.859845 
L 138.373164 218.794098 
L 138.575521 215.724773 
L 138.980236 231.412681 
L 139.587307 257.092735 
L 139.789665 273.695321 
L 140.194379 283.955574 
L 140.396736 283.257834 
L 141.003808 267.701573 
L 141.408522 243.580776 
L 141.610879 232.775636 
L 141.813237 232.778249 
L 142.015594 233.915236 
L 142.217951 234.18667 
L 142.420308 233.835541 
L 142.622665 236.021698 
L 142.825023 234.762394 
L 143.02738 232.746667 
L 143.229737 233.261855 
L 143.432094 235.175661 
L 143.634451 238.179944 
L 144.039166 251.340419 
L 144.241523 252.582439 
L 144.44388 259.295225 
L 144.848595 279.072946 
L 145.050952 280.272796 
L 145.253309 279.919452 
L 145.455666 278.175632 
L 145.658024 273.560216 
L 146.265095 243.344883 
L 146.467452 232.867076 
L 146.66981 231.801544 
L 146.872167 235.853893 
L 147.276881 235.539316 
L 147.479238 237.913742 
L 147.681596 234.858729 
L 147.883953 234.034528 
L 148.288667 243.701967 
L 148.491024 245.915219 
L 148.693382 255.368919 
L 149.300453 262.169392 
L 149.705168 276.213631 
L 149.907525 280.016367 
L 150.109882 278.556215 
L 150.312239 277.976129 
L 150.514597 275.790476 
L 150.716954 265.722827 
L 151.121668 259.316328 
L 151.526383 246.571645 
L 151.931097 237.800322 
L 152.133454 238.885039 
L 152.335811 243.455951 
L 152.538169 243.213977 
L 152.942883 249.959683 
L 153.347597 246.799426 
L 154.157026 254.214748 
L 154.561741 272.948734 
L 154.966455 278.773476 
L 155.168812 277.730465 
L 155.37117 275.429034 
L 155.573527 271.704362 
L 156.180598 255.65867 
L 156.585313 228.059878 
L 157.394742 197.756425 
L 157.597099 194.886443 
L 157.799456 189.511116 
L 158.20417 187.74775 
L 158.608885 203.927835 
L 159.620671 274.289976 
L 159.823028 273.589862 
L 160.025385 270.360024 
L 160.227743 269.151844 
L 160.4301 262.79409 
L 161.037171 226.316472 
L 162.048957 199.063184 
L 162.251315 196.055367 
L 162.453672 196.819903 
L 163.060743 210.889094 
L 164.274887 278.117942 
L 164.679601 280.60711 
L 164.881958 278.631917 
L 165.084316 273.457072 
L 165.893744 233.733623 
L 166.096102 231.035958 
L 166.298459 229.881822 
L 166.500816 229.446728 
L 166.703173 224.734862 
L 167.310245 198.300434 
L 167.512602 195.615977 
L 167.714959 196.127134 
L 167.917316 203.85342 
L 168.524388 247.652279 
L 168.726745 253.61961 
L 169.13146 274.781876 
L 169.333817 274.817524 
L 169.536174 275.731699 
L 169.940888 271.430771 
L 170.143246 265.208481 
L 170.952675 216.957118 
L 171.559746 191.908079 
L 171.762103 189.777066 
L 171.964461 189.016554 
L 172.166818 185.731775 
L 172.369175 180.124994 
L 172.571532 178.341312 
L 172.773889 181.10774 
L 173.178604 215.444827 
L 173.583318 246.939153 
L 173.988033 275.190016 
L 174.19039 275.660314 
L 174.595104 271.422483 
L 174.797461 266.706817 
L 175.202176 247.88816 
L 175.809248 226.120974 
L 176.213962 215.355144 
L 176.618676 199.401248 
L 177.023391 194.346375 
L 177.225748 191.731797 
L 177.428105 190.943294 
L 177.630462 193.467253 
L 178.844606 277.896624 
L 179.046963 278.894123 
L 179.654034 271.837777 
L 181.677607 184.932135 
L 181.879964 184.154073 
L 182.082321 178.834231 
L 182.284678 177.302185 
L 182.487035 174.88321 
L 183.701179 262.051379 
L 183.903536 265.863492 
L 184.105893 266.408586 
L 184.30825 265.640211 
L 184.510607 264.110177 
L 184.712965 261.404347 
L 185.117679 250.375594 
L 185.320036 239.660988 
L 186.129465 166.915711 
L 186.331822 161.719253 
L 186.53418 161.915498 
L 186.938894 174.181776 
L 187.343608 182.731503 
L 188.557752 254.615217 
L 188.962466 265.931018 
L 189.164823 264.605184 
L 189.36718 264.334233 
L 189.569538 260.712137 
L 190.176609 243.406847 
L 190.783681 201.584952 
L 191.188395 176.690826 
L 191.390752 175.672217 
L 192.200181 196.349934 
L 193.00961 239.775569 
L 193.616682 268.853712 
L 193.819039 271.205343 
L 194.021396 270.551592 
L 194.223753 270.400002 
L 194.426111 265.464106 
L 194.628468 257.636123 
L 195.033182 249.533287 
L 195.640254 213.878117 
L 195.842611 207.179943 
L 196.044968 207.151801 
L 196.65204 228.341554 
L 196.854397 231.334599 
L 197.056754 232.454486 
L 197.461469 242.508185 
L 198.473255 280.30558 
L 198.877969 276.270099 
L 199.080326 274.19023 
L 199.485041 255.835858 
L 199.889755 232.210821 
L 200.092112 228.530114 
L 200.29447 227.588024 
L 200.901541 211.426763 
L 201.306256 197.677962 
L 201.508613 192.934574 
L 201.71097 191.8508 
L 201.913327 194.649881 
L 202.722756 245.135323 
L 203.127471 272.575062 
L 203.329828 274.916593 
L 203.532185 275.076564 
L 203.734542 273.58232 
L 203.936899 269.285989 
L 204.139257 261.529763 
L 204.543971 235.200822 
L 204.948685 215.959795 
L 205.3534 206.832369 
L 205.758114 194.65129 
L 205.960471 191.746186 
L 206.162829 191.544634 
L 206.567543 198.9183 
L 206.7699 204.720949 
L 207.984044 273.24649 
L 208.186401 276.607197 
L 208.388758 277.138021 
L 208.591115 276.202124 
L 208.793472 272.247862 
L 209.198187 248.164853 
L 209.805258 219.165086 
L 210.007616 215.729814 
L 210.41233 204.825721 
L 211.221759 159.207234 
L 211.424116 155.864685 
L 211.626473 163.370544 
L 212.840617 258.702486 
L 213.042974 260.603422 
L 213.245331 260.575602 
L 213.447688 260.718145 
L 213.650045 258.198521 
L 214.257117 228.245077 
L 214.864189 188.614832 
L 215.47126 148.714659 
L 215.875975 139.184531 
L 216.280689 132.814176 
L 216.483046 134.753412 
L 216.887761 165.264622 
L 217.697189 241.536917 
L 217.899547 244.110385 
L 218.101904 244.477013 
L 218.304261 243.870299 
L 218.506618 244.182548 
L 218.708976 238.773512 
L 218.911333 237.457126 
L 219.11369 235.308305 
L 219.316047 225.909628 
L 219.923119 181.954449 
L 220.327833 162.475604 
L 220.53019 161.782933 
L 220.732548 169.300797 
L 221.339619 201.153038 
L 221.744334 218.049877 
L 221.946691 225.542725 
L 222.553762 261.634018 
L 222.75612 269.64992 
L 222.958477 272.070932 
L 223.160834 272.519294 
L 223.363191 270.754967 
L 223.970263 256.137324 
L 224.17262 249.664254 
L 224.577335 232.723769 
L 224.779692 229.564773 
L 224.982049 231.591011 
L 225.184406 231.038895 
L 225.589121 237.081448 
L 225.993835 248.43408 
L 226.196192 249.295988 
L 226.398549 250.94064 
L 226.600907 256.54088 
L 226.803264 257.215937 
L 227.005621 260.508958 
L 227.410335 276.959586 
L 227.612693 280.700384 
L 227.81505 279.922687 
L 228.422121 267.674797 
L 229.029193 240.008811 
L 229.23155 241.508945 
L 229.636265 245.551725 
L 230.243336 222.074534 
L 230.648051 212.536557 
L 230.850408 209.754663 
L 231.052765 209.760437 
L 231.255122 218.436769 
L 231.862194 256.292022 
L 232.266908 278.433815 
L 232.469266 280.330833 
L 232.671623 278.590654 
L 233.076337 271.215924 
L 233.278694 265.603893 
L 233.885766 239.827229 
L 234.290481 233.048184 
L 235.302267 206.082495 
L 235.504624 208.632197 
L 235.706981 208.115096 
L 235.909338 212.115683 
L 236.111695 221.6472 
L 236.51641 247.131303 
L 236.718767 253.94626 
L 237.123481 277.723392 
L 237.325839 279.167054 
L 237.528196 278.741758 
L 237.93291 272.128292 
L 238.135267 267.126504 
L 238.539982 246.82426 
L 238.944696 234.902154 
L 239.956482 214.983367 
L 240.15884 216.632155 
L 240.361197 219.799867 
L 240.563554 219.657683 
L 240.765911 222.539726 
L 241.980054 279.718924 
L 242.182412 280.380778 
L 242.384769 279.270718 
L 242.789483 272.96736 
L 242.99184 267.21751 
L 243.598912 241.915483 
L 243.801269 241.155538 
L 244.205984 230.743481 
L 244.813055 210.081684 
L 245.015413 208.185615 
L 245.21777 209.103485 
L 245.420127 206.113591 
L 245.622484 206.614155 
L 245.824841 216.77556 
L 246.229556 246.413005 
L 246.63427 265.205327 
L 246.836627 276.5655 
L 247.038985 277.978207 
L 247.241342 278.17951 
L 247.443699 276.489948 
L 247.848413 267.044024 
L 249.669628 175.989184 
L 249.871985 172.36898 
L 250.074343 172.49233 
L 250.2767 172.143367 
L 250.479057 176.443339 
L 250.681414 187.17418 
L 251.288486 234.728752 
L 251.6932 258.45324 
L 251.895558 263.545981 
L 252.097915 265.646546 
L 252.300272 266.016514 
L 252.704986 260.418748 
L 253.312058 240.234214 
L 254.121487 171.614788 
L 254.323844 164.966178 
L 254.930916 170.243281 
L 255.133273 165.886238 
L 255.33563 169.193608 
L 255.537987 177.380278 
L 256.752131 262.889784 
L 256.954488 263.771227 
L 257.156845 262.85575 
L 257.359202 262.482799 
L 257.561559 259.211631 
L 258.168631 241.888459 
L 259.180417 186.457466 
L 259.382774 183.996533 
L 259.585131 186.407996 
L 259.787489 191.164033 
L 259.989846 190.049875 
L 260.192203 192.127858 
L 260.596917 210.414828 
L 261.406346 269.581435 
L 261.608704 274.919452 
L 261.811061 273.720105 
L 262.013418 271.030051 
L 262.215775 269.867297 
L 262.62049 253.30508 
L 263.025204 234.462895 
L 263.429918 231.334505 
L 263.632276 231.86969 
L 264.239347 239.541558 
L 264.441704 238.987489 
L 264.644062 237.574548 
L 264.846419 238.801236 
L 265.655848 257.48607 
L 265.858205 260.710759 
L 266.262919 279.514547 
L 266.465277 280.771977 
L 266.667634 280.427789 
L 267.072348 273.900641 
L 267.881777 239.153961 
L 268.084134 240.402774 
L 268.286491 238.872765 
L 268.488849 238.661476 
L 268.691206 234.587688 
L 268.893563 234.956968 
L 269.09592 236.779227 
L 269.298277 232.814934 
L 269.500635 233.498002 
L 269.702992 234.654205 
L 270.107706 243.316727 
L 270.512421 252.418382 
L 270.714778 256.548532 
L 271.119492 276.857097 
L 271.32185 278.339336 
L 271.524207 278.26632 
L 271.928921 273.143208 
L 272.131278 267.080958 
L 272.73835 240.690336 
L 273.143064 228.974318 
L 273.952493 186.676915 
L 274.15485 177.88571 
L 274.357208 177.596567 
L 274.559565 169.972086 
L 274.761922 171.695289 
L 274.964279 179.126343 
L 275.976065 254.215666 
L 276.178422 262.388925 
L 276.38078 264.737642 
L 276.785494 258.016963 
L 276.987851 250.565055 
L 278.201995 169.211487 
L 278.404352 163.338895 
L 278.606709 153.591071 
L 278.809066 153.150541 
L 279.011423 149.58889 
L 279.213781 152.331141 
L 279.416138 145.803425 
L 279.820852 158.495429 
L 280.427924 230.245603 
L 281.034995 261.037971 
L 281.237353 260.36452 
L 281.43971 259.154254 
L 282.451496 226.362442 
L 283.058568 198.143554 
L 283.867996 177.940934 
L 284.272711 175.977579 
L 284.475068 181.890959 
L 284.677425 195.418633 
L 285.08214 231.155826 
L 285.486854 259.122167 
L 285.689211 270.661826 
L 285.891568 274.335563 
L 286.093926 273.820013 
L 286.700997 265.931507 
L 287.510426 235.028372 
L 288.319855 190.001962 
L 288.724569 186.442406 
L 288.926927 187.725032 
L 289.129284 182.272926 
L 289.331641 183.845331 
L 289.533998 190.965769 
L 290.545784 262.004134 
L 290.748141 268.495152 
L 290.950499 268.881877 
L 291.55757 265.916473 
L 292.164642 248.051531 
L 292.771714 192.238196 
L 293.176428 163.126565 
L 293.378785 160.179822 
L 293.581142 160.785289 
L 293.7835 162.446953 
L 293.985857 156.605026 
L 294.188214 159.758913 
L 294.390571 164.781104 
L 294.795286 187.628446 
L 295.402357 245.149628 
L 295.604714 253.443678 
L 295.807072 254.760384 
L 296.211786 251.799758 
L 296.818858 219.843607 
L 297.021215 204.601888 
L 297.628286 132.188022 
L 298.033001 112.674744 
L 298.235358 110.925275 
L 299.044787 125.618152 
L 299.247144 134.349636 
L 300.25893 236.19134 
L 300.461287 238.814074 
L 301.068359 234.069415 
L 301.270716 228.348671 
L 301.675431 207.224317 
L 302.080145 168.713678 
L 302.484859 131.769671 
L 302.687217 124.783755 
L 302.889574 122.106539 
L 303.091931 124.810276 
L 303.90136 145.193027 
L 304.103717 156.484565 
L 304.913146 232.062311 
L 305.115503 240.762133 
L 305.31786 240.649595 
L 305.924932 235.543816 
L 306.127289 231.001869 
L 307.139075 181.264933 
L 307.54379 161.044352 
L 308.150861 140.802598 
L 308.353218 142.025711 
L 308.757933 151.203531 
L 308.96029 161.702954 
L 309.972076 240.961826 
L 310.174433 244.712122 
L 310.376791 245.937353 
L 310.579148 245.27931 
L 311.186219 231.181346 
L 311.590934 203.263642 
L 312.198005 151.447701 
L 312.400363 143.276989 
L 312.60272 141.550707 
L 312.805077 144.42191 
L 313.007434 140.48995 
L 313.209791 139.089745 
L 313.412149 140.338904 
L 313.614506 146.615562 
L 314.01922 174.664849 
L 314.828649 240.961826 
L 315.233364 243.411226 
L 315.435721 242.586943 
L 315.840435 232.989267 
L 316.24515 217.927789 
L 316.649864 202.650962 
L 316.852221 200.626366 
L 317.054578 201.158215 
L 317.459293 191.203896 
L 317.66165 189.650556 
L 317.864007 194.789406 
L 318.268722 199.604748 
L 318.471079 203.441859 
L 318.875793 228.861809 
L 319.887579 281.419483 
L 320.089937 280.995958 
L 320.494651 277.068032 
L 321.30408 250.252368 
L 321.708794 229.595049 
L 322.518223 188.085959 
L 323.125295 181.403817 
L 323.327652 182.697076 
L 323.934723 218.596201 
L 324.137081 239.196666 
L 324.94651 269.432705 
L 325.148867 266.727214 
L 325.351224 267.106663 
L 325.553581 265.949355 
L 326.160653 245.201602 
L 327.172439 154.155235 
L 327.374796 153.309678 
L 327.577153 154.354414 
L 327.77951 159.611659 
L 327.981868 154.162059 
L 328.386582 162.107141 
L 328.791296 194.473903 
L 329.196011 237.926367 
L 329.600725 257.938043 
L 329.803083 257.23821 
L 330.207797 251.401246 
L 330.814869 225.647404 
L 331.624297 169.47665 
L 332.231369 157.767283 
L 332.433726 158.54406 
L 332.636083 160.806138 
L 333.040798 172.372754 
L 333.647869 215.391472 
L 333.850227 234.718149 
L 334.052584 242.306682 
L 334.254941 260.262418 
L 334.659655 267.599645 
L 334.862013 264.92934 
L 335.266727 255.446549 
L 335.671442 236.118135 
L 336.885585 198.639094 
L 337.087942 198.260988 
L 337.695014 206.572994 
L 337.897371 211.016915 
L 338.909157 262.492363 
L 339.111514 275.653033 
L 339.516228 278.443788 
L 339.718586 277.383436 
L 340.1233 266.717617 
L 340.730372 234.515248 
L 341.539801 207.920012 
L 342.551587 172.462892 
L 342.753944 170.854328 
L 342.956301 178.57177 
L 343.968087 256.426592 
L 344.170444 261.150202 
L 344.372801 262.990997 
L 344.777516 257.06855 
L 344.979873 249.47753 
L 345.586945 206.984161 
L 346.396374 123.225999 
L 346.598731 118.09744 
L 346.801088 119.080776 
L 347.205802 124.577792 
L 347.40816 127.405405 
L 347.610517 131.986423 
L 347.812874 139.123385 
L 348.82466 240.603692 
L 349.027017 243.465162 
L 349.229374 243.727408 
L 349.431732 242.096641 
L 349.836446 235.260785 
L 350.24116 216.606485 
L 351.252947 142.696456 
L 351.455304 136.253577 
L 351.657661 134.260245 
L 351.860018 134.759536 
L 352.062375 129.748476 
L 352.264733 130.875078 
L 352.46709 133.737976 
L 352.669447 141.786988 
L 353.276519 206.62249 
L 353.478876 231.961329 
L 353.681233 240.961826 
L 353.88359 243.378309 
L 354.085947 243.192211 
L 354.288305 241.041235 
L 354.490662 240.961826 
L 354.693019 240.230436 
L 355.097733 233.523321 
L 355.502448 199.61912 
L 355.907162 155.761814 
L 356.109519 142.847826 
L 356.311877 137.414144 
L 356.514234 138.702615 
L 356.716591 142.446817 
L 357.121306 138.04215 
L 357.323663 139.417628 
L 357.52602 142.884499 
L 357.930734 175.326079 
L 358.537806 237.504754 
L 358.740163 240.025946 
L 358.94252 237.987451 
L 359.144878 238.983719 
L 359.347235 238.884769 
L 359.549592 237.997643 
L 359.954306 231.107646 
L 360.156664 217.670197 
L 360.966092 133.07964 
L 361.16845 126.381113 
L 361.370807 127.012615 
L 361.573164 132.688945 
L 361.775521 131.637993 
L 361.977879 128.714135 
L 362.180236 130.384157 
L 362.382593 134.072353 
L 362.787307 162.815422 
L 363.394379 234.303254 
L 363.596736 237.750198 
L 363.799093 235.027691 
L 364.001451 234.012775 
L 364.203808 233.870746 
L 364.406165 229.948403 
L 365.013237 189.598151 
L 365.620308 124.327932 
L 366.025023 112.128442 
L 366.429737 118.528826 
L 366.834451 122.523431 
L 367.239166 135.121129 
L 367.846238 199.340846 
L 368.250952 234.939736 
L 368.453309 236.336816 
L 368.655666 234.607921 
L 368.858024 234.289666 
L 369.060381 234.392303 
L 369.262738 230.412151 
L 369.667452 212.702993 
L 370.679238 138.012851 
L 370.881596 131.852221 
L 371.28631 134.388845 
L 371.488667 134.004296 
L 371.691024 135.764149 
L 371.893382 139.745742 
L 372.095739 147.110176 
L 373.107525 235.574073 
L 373.309882 237.511031 
L 373.512239 236.330363 
L 373.714597 236.291653 
L 373.916954 236.579941 
L 374.524025 224.826813 
L 374.726383 213.502743 
L 375.535811 146.745157 
L 375.738169 141.576672 
L 375.940526 141.393815 
L 376.142883 143.679584 
L 376.547597 139.69314 
L 376.749955 141.859223 
L 376.952312 150.153013 
L 377.761741 223.882765 
L 378.166455 238.132926 
L 378.773527 236.064067 
L 378.975884 231.294387 
L 379.582956 192.085142 
L 380.190027 139.336213 
L 380.392384 130.948818 
L 380.594742 127.619124 
L 380.797099 126.575025 
L 380.999456 126.441969 
L 381.201813 121.952969 
L 381.40417 122.51792 
L 381.606528 123.97413 
L 381.808885 134.004922 
L 382.213599 170.80095 
L 382.618314 221.27132 
L 382.820671 234.02373 
L 383.023028 236.200098 
L 383.225385 234.944173 
L 383.6301 234.839253 
L 383.832457 228.808697 
L 384.237171 209.882505 
L 384.237171 209.882505 
" clip-path="url(#pa2d7559c13)" style="fill: none; stroke: #ff7f0e; stroke-width: 1.5; stroke-linecap: square"/>
   </g>
   <g id="line2d_15">
    <path d="M 384.439529 197.84735 
L 384.844243 186.735931 
L 385.0466 191.506537 
L 385.248957 189.439882 
L 385.451315 193.279488 
L 385.856029 196.107229 
L 386.058386 201.824984 
L 386.260743 203.19277 
L 386.463101 213.850646 
L 386.665458 210.906548 
L 386.867815 215.455506 
L 387.070172 222.558318 
L 387.272529 215.635307 
L 387.474887 218.043338 
L 387.879601 180.45018 
L 388.081958 157.194808 
L 388.486673 78.51472 
L 388.68903 55.8 
L 388.891387 59.924466 
L 389.296102 95.165482 
L 390.10553 185.448941 
L 390.307888 204.224856 
L 390.510245 207.39273 
L 390.914959 239.244168 
L 391.117316 237.025227 
L 391.319674 238.761512 
L 391.724388 227.628827 
L 391.926745 224.3606 
L 392.33146 209.963775 
L 392.533817 199.794417 
L 392.736174 197.231513 
L 392.938531 183.355811 
L 393.140888 177.296333 
L 393.545603 180.153831 
L 393.74796 191.406531 
L 393.950317 192.549195 
L 394.152675 196.111147 
L 394.355032 188.125069 
L 394.557389 189.351081 
L 394.759746 184.083163 
L 395.164461 142.448356 
L 395.771532 103.504408 
L 395.973889 98.430929 
L 396.176247 103.402005 
L 396.378604 111.729806 
L 396.783318 141.072751 
L 396.985675 149.291412 
L 397.795104 232.394156 
L 397.997461 240.053615 
L 398.199819 240.961826 
L 398.402176 240.961826 
L 398.604533 239.543127 
L 399.009248 225.315798 
L 399.413962 210.161475 
L 400.425748 176.688696 
L 400.830462 168.360015 
L 401.03282 170.428632 
L 401.437534 157.257278 
L 401.842248 136.831447 
L 402.246963 129.41668 
L 402.44932 130.244873 
L 402.651677 133.214305 
L 403.258749 163.674603 
L 403.663463 194.341449 
L 404.068178 231.474146 
L 404.270535 239.915951 
L 404.472892 240.961826 
L 404.675249 240.961826 
L 404.877607 239.248179 
L 405.889393 205.211887 
L 406.496464 168.887158 
L 407.103536 135.576407 
L 407.305893 131.405544 
L 407.50825 123.010566 
L 407.710607 122.339787 
L 407.912965 118.453569 
L 408.115322 119.30371 
L 408.520036 140.53762 
L 409.127108 195.764546 
L 409.531822 235.220455 
L 409.73418 243.773837 
L 410.138894 238.486211 
L 410.543608 229.001961 
L 411.353037 193.566296 
L 411.757752 178.539959 
L 412.364823 154.69106 
L 412.56718 150.20062 
L 412.769538 141.420568 
L 412.971895 140.421083 
L 413.174252 137.88843 
L 413.376609 131.622203 
L 413.578966 132.651207 
L 413.781324 135.425454 
L 414.388395 170.678394 
L 415.197824 233.978544 
L 415.400181 240.961826 
L 415.804896 238.665439 
L 416.007253 234.399709 
L 417.019039 194.987693 
L 417.221396 180.496149 
L 417.423753 175.645945 
L 417.828468 149.948092 
L 418.233182 128.963694 
L 418.435539 125.19575 
L 418.637897 117.204989 
L 418.840254 123.114613 
L 419.042611 118.44623 
L 419.447325 138.959212 
L 419.85204 171.199673 
L 420.661469 240.961826 
L 420.863826 244.794402 
L 421.066183 238.40509 
L 421.26854 235.813765 
L 422.280326 197.965337 
L 422.482684 184.626722 
L 422.685041 182.350914 
L 423.089755 163.375476 
L 423.292112 158.694156 
L 423.49447 149.498874 
L 423.696827 145.538389 
L 423.899184 137.291807 
L 424.101541 140.876095 
L 424.303898 131.972948 
L 424.506256 130.490715 
L 425.113327 153.911036 
L 425.518042 183.205003 
L 426.125113 235.099972 
L 426.529828 241.315308 
L 426.732185 237.783239 
L 426.934542 236.389829 
L 428.5534 163.923207 
L 428.958114 140.614868 
L 429.160471 129.544643 
L 429.362829 126.812845 
L 429.565186 119.975161 
L 429.767543 119.090755 
L 429.9699 122.920643 
L 430.172257 122.576229 
L 430.981686 187.19944 
L 431.386401 232.194487 
L 431.791115 243.942644 
L 432.398187 230.535431 
L 433.005258 203.941949 
L 433.207616 199.065195 
L 433.61233 179.44331 
L 433.814687 174.828154 
L 434.017044 162.337176 
L 434.219402 160.148225 
L 434.421759 151.004688 
L 434.624116 147.826728 
L 434.826473 140.135199 
L 435.02883 137.904868 
L 435.231188 137.52884 
L 435.433545 128.750091 
L 436.040617 150.884591 
L 436.647688 197.739185 
L 437.25476 237.104332 
L 437.457117 240.961826 
L 437.659474 239.137529 
L 437.861831 234.796487 
L 438.064189 232.915739 
L 438.266546 220.528839 
L 438.468903 215.942332 
L 439.480689 168.846248 
L 439.885403 141.774659 
L 440.290118 124.729937 
L 440.492475 124.57499 
L 440.694832 116.029616 
L 440.897189 122.70873 
L 441.099547 121.4686 
L 441.504261 147.128067 
L 441.706618 160.530006 
L 442.516047 238.243831 
L 442.920762 243.693901 
L 443.123119 235.2296 
L 443.325476 234.464955 
L 443.73019 214.919281 
L 443.932548 208.744048 
L 444.539619 179.88178 
L 444.741976 176.859276 
L 445.146691 158.857588 
L 445.349048 156.043872 
L 445.551405 146.535987 
L 445.753762 143.52767 
L 445.95612 137.891151 
L 446.158477 138.400721 
L 446.360834 131.52472 
L 446.563191 131.167283 
L 446.765549 142.606869 
L 446.967906 146.124866 
L 448.182049 238.933958 
L 448.384406 239.472842 
L 448.586763 240.961826 
L 449.193835 225.224307 
L 449.396192 213.353352 
L 449.598549 209.371973 
L 450.610335 156.724197 
L 451.01505 133.453503 
L 451.419764 120.936306 
L 451.622121 119.69055 
L 451.824479 119.183144 
L 452.229193 129.446373 
L 453.038622 203.89539 
L 453.443336 239.813352 
L 453.645694 242.589644 
L 453.848051 241.63548 
L 454.455122 226.181031 
L 454.65748 214.527724 
L 454.859837 209.751185 
L 455.871623 168.618939 
L 456.276337 155.761171 
L 456.883409 140.924217 
L 457.288123 133.385297 
L 457.490481 132.068255 
L 457.895195 146.43994 
L 458.502267 187.30322 
L 458.906981 226.955056 
L 459.311695 241.48824 
L 459.514053 240.736754 
L 459.71641 238.481396 
L 460.121124 227.939761 
L 460.525839 208.605302 
L 460.728196 205.08156 
L 461.537625 157.31502 
L 462.347053 120.448915 
L 462.549411 118.244527 
L 462.751768 120.974171 
L 462.954125 119.302217 
L 463.35884 140.655072 
L 463.965911 196.569806 
L 464.370626 234.291171 
L 464.572983 242.985956 
L 464.77534 242.53213 
L 465.382412 227.84573 
L 466.798912 168.195784 
L 467.001269 163.781602 
L 467.608341 143.194347 
L 467.810698 139.806205 
L 468.013055 140.169661 
L 468.215413 131.292225 
L 468.41777 132.840592 
L 468.620127 136.918152 
L 469.024841 154.649241 
L 469.631913 200.555636 
L 469.83427 223.187132 
L 470.238985 240.674837 
L 470.441342 241.09483 
L 470.643699 239.077561 
L 470.846056 235.746623 
L 472.262557 176.301925 
L 472.667271 149.654694 
L 473.071985 128.508705 
L 473.274343 125.823883 
L 473.4767 116.256092 
L 473.679057 121.499925 
L 473.881414 119.025616 
L 474.083772 124.502778 
L 474.690843 169.963323 
L 475.500272 240.961826 
L 475.702629 244.960833 
L 475.904986 238.593768 
L 476.107344 236.201134 
L 477.11913 198.462468 
L 477.321487 185.124062 
L 477.523844 181.571978 
L 477.928558 162.957831 
L 478.130916 159.709159 
L 478.333273 150.103519 
L 478.53563 147.512349 
L 478.737987 138.72248 
L 478.940345 141.169504 
L 479.345059 130.989751 
L 479.547416 138.16209 
L 479.749773 141.35749 
L 480.356845 181.034226 
L 480.963917 234.209811 
L 481.166274 236.727638 
L 481.368631 240.961826 
L 481.773345 236.205481 
L 482.380417 214.995568 
L 482.582774 203.380115 
L 482.785131 198.753036 
L 483.999275 129.990579 
L 484.606346 116.030635 
L 484.808704 122.326231 
L 485.011061 120.887327 
L 485.82049 185.331865 
L 486.225204 232.311514 
L 486.629918 243.231972 
L 486.832276 240.84133 
L 487.439347 221.944311 
L 488.046419 199.290455 
L 488.855848 163.955232 
L 489.058205 160.821447 
L 489.665277 142.686918 
L 489.867634 139.278575 
L 490.069991 139.604154 
L 490.272348 129.835575 
L 490.677063 141.431403 
L 490.87942 148.475826 
L 491.688849 208.737224 
L 491.891206 229.029736 
L 492.29592 240.6873 
L 492.498277 240.700516 
L 492.700635 236.340342 
L 492.902992 235.367686 
L 493.307706 217.458 
L 493.914778 194.298739 
L 494.117135 178.098966 
L 494.319492 171.245891 
L 494.926564 135.018425 
L 495.128921 124.735181 
L 495.331278 123.769892 
L 495.533636 115.406402 
L 495.735993 120.049665 
L 495.93835 119.762033 
L 496.140707 128.243461 
L 496.950136 197.97096 
L 497.35485 236.800734 
L 497.759565 243.899106 
L 497.961922 236.229455 
L 498.164279 235.015659 
L 498.973708 200.688278 
L 499.176065 195.453254 
L 499.378422 182.694819 
L 499.58078 178.818985 
L 499.985494 161.519541 
L 500.187851 159.060223 
L 500.390209 149.273023 
L 500.592566 146.597931 
L 500.794923 140.543038 
L 500.99728 140.639583 
L 501.401995 130.737021 
L 501.604352 140.576331 
L 501.806709 143.318709 
L 502.616138 203.450686 
L 503.020852 235.037743 
L 503.425567 240.961826 
L 503.830281 235.521232 
L 504.032638 229.302385 
L 504.234995 218.036656 
L 504.437353 214.131736 
L 505.449139 164.43294 
L 505.853853 137.599061 
L 506.258568 122.547034 
L 506.460925 120.235891 
L 506.663282 115.563699 
L 506.865639 120.734001 
L 507.067996 122.506958 
L 507.877425 189.331818 
L 508.28214 234.062876 
L 508.484497 239.99824 
L 508.686854 242.616347 
L 509.293926 231.363518 
L 509.69864 213.94327 
L 510.912783 164.426208 
L 511.115141 160.515287 
L 511.722212 144.398364 
L 511.924569 140.452883 
L 512.126927 138.844747 
L 512.329284 130.890312 
L 512.531641 135.125886 
L 512.936355 148.939792 
L 513.745784 209.350407 
L 514.150499 235.610906 
L 514.352856 240.551961 
L 514.555213 240.961826 
L 514.959927 235.593366 
L 515.364642 217.564384 
L 515.769356 201.38263 
L 515.971714 194.195564 
L 516.781142 143.365789 
L 517.185857 124.707746 
L 517.388214 122.490566 
L 517.590571 115.9479 
L 517.792928 118.154847 
L 517.995286 119.119105 
L 518.197643 128.079218 
L 518.4 143.381533 
L 518.4 143.381533 
" clip-path="url(#pa2d7559c13)" style="fill: none; stroke: #2ca02c; stroke-width: 1.5; stroke-linecap: square"/>
   </g>
   <g id="patch_3">
    <path d="M 72 320.4 
L 72 43.2 
" style="fill: none; stroke: #000000; stroke-width: 0.8; stroke-linejoin: miter; stroke-linecap: square"/>
   </g>
   <g id="patch_4">
    <path d="M 518.4 320.4 
L 518.4 43.2 
" style="fill: none; stroke: #000000; stroke-width: 0.8; stroke-linejoin: miter; stroke-linecap: square"/>
   </g>
   <g id="patch_5">
    <path d="M 72 320.4 
L 518.4 320.4 
" style="fill: none; stroke: #000000; stroke-width: 0.8; stroke-linejoin: miter; stroke-linecap: square"/>
   </g>
   <g id="patch_6">
    <path d="M 72 43.2 
L 518.4 43.2 
" style="fill: none; stroke: #000000; stroke-width: 0.8; stroke-linejoin: miter; stroke-linecap: square"/>
   </g>
   <g id="text_13">
    <!-- Classic Transformer - model_20231126192529 -->
    <g transform="translate(155.436563 37.2) scale(0.12 -0.12)">
     <defs>
      <path id="DejaVuSans-43" d="M 4122 4306 
L 4122 3641 
Q 3803 3938 3442 4084 
Q 3081 4231 2675 4231 
Q 1875 4231 1450 3742 
Q 1025 3253 1025 2328 
Q 1025 1406 1450 917 
Q 1875 428 2675 428 
Q 3081 428 3442 575 
Q 3803 722 4122 1019 
L 4122 359 
Q 3791 134 3420 21 
Q 3050 -91 2638 -91 
Q 1578 -91 968 557 
Q 359 1206 359 2328 
Q 359 3453 968 4101 
Q 1578 4750 2638 4750 
Q 3056 4750 3426 4639 
Q 3797 4528 4122 4306 
z
" transform="scale(0.015625)"/>
      <path id="DejaVuSans-6c" d="M 603 4863 
L 1178 4863 
L 1178 0 
L 603 0 
L 603 4863 
z
" transform="scale(0.015625)"/>
      <path id="DejaVuSans-61" d="M 2194 1759 
Q 1497 1759 1228 1600 
Q 959 1441 959 1056 
Q 959 750 1161 570 
Q 1363 391 1709 391 
Q 2188 391 2477 730 
Q 2766 1069 2766 1631 
L 2766 1759 
L 2194 1759 
z
M 3341 1997 
L 3341 0 
L 2766 0 
L 2766 531 
Q 2569 213 2275 61 
Q 1981 -91 1556 -91 
Q 1019 -91 701 211 
Q 384 513 384 1019 
Q 384 1609 779 1909 
Q 1175 2209 1959 2209 
L 2766 2209 
L 2766 2266 
Q 2766 2663 2505 2880 
Q 2244 3097 1772 3097 
Q 1472 3097 1187 3025 
Q 903 2953 641 2809 
L 641 3341 
Q 956 3463 1253 3523 
Q 1550 3584 1831 3584 
Q 2591 3584 2966 3190 
Q 3341 2797 3341 1997 
z
" transform="scale(0.015625)"/>
      <path id="DejaVuSans-73" d="M 2834 3397 
L 2834 2853 
Q 2591 2978 2328 3040 
Q 2066 3103 1784 3103 
Q 1356 3103 1142 2972 
Q 928 2841 928 2578 
Q 928 2378 1081 2264 
Q 1234 2150 1697 2047 
L 1894 2003 
Q 2506 1872 2764 1633 
Q 3022 1394 3022 966 
Q 3022 478 2636 193 
Q 2250 -91 1575 -91 
Q 1294 -91 989 -36 
Q 684 19 347 128 
L 347 722 
Q 666 556 975 473 
Q 1284 391 1588 391 
Q 1994 391 2212 530 
Q 2431 669 2431 922 
Q 2431 1156 2273 1281 
Q 2116 1406 1581 1522 
L 1381 1569 
Q 847 1681 609 1914 
Q 372 2147 372 2553 
Q 372 3047 722 3315 
Q 1072 3584 1716 3584 
Q 2034 3584 2315 3537 
Q 2597 3491 2834 3397 
z
" transform="scale(0.015625)"/>
      <path id="DejaVuSans-69" d="M 603 3500 
L 1178 3500 
L 1178 0 
L 603 0 
L 603 3500 
z
M 603 4863 
L 1178 4863 
L 1178 4134 
L 603 4134 
L 603 4863 
z
" transform="scale(0.015625)"/>
      <path id="DejaVuSans-63" d="M 3122 3366 
L 3122 2828 
Q 2878 2963 2633 3030 
Q 2388 3097 2138 3097 
Q 1578 3097 1268 2742 
Q 959 2388 959 1747 
Q 959 1106 1268 751 
Q 1578 397 2138 397 
Q 2388 397 2633 464 
Q 2878 531 3122 666 
L 3122 134 
Q 2881 22 2623 -34 
Q 2366 -91 2075 -91 
Q 1284 -91 818 406 
Q 353 903 353 1747 
Q 353 2603 823 3093 
Q 1294 3584 2113 3584 
Q 2378 3584 2631 3529 
Q 2884 3475 3122 3366 
z
" transform="scale(0.015625)"/>
      <path id="DejaVuSans-20" transform="scale(0.015625)"/>
      <path id="DejaVuSans-54" d="M -19 4666 
L 3928 4666 
L 3928 4134 
L 2272 4134 
L 2272 0 
L 1638 0 
L 1638 4134 
L -19 4134 
L -19 4666 
z
" transform="scale(0.015625)"/>
      <path id="DejaVuSans-72" d="M 2631 2963 
Q 2534 3019 2420 3045 
Q 2306 3072 2169 3072 
Q 1681 3072 1420 2755 
Q 1159 2438 1159 1844 
L 1159 0 
L 581 0 
L 581 3500 
L 1159 3500 
L 1159 2956 
Q 1341 3275 1631 3429 
Q 1922 3584 2338 3584 
Q 2397 3584 2469 3576 
Q 2541 3569 2628 3553 
L 2631 2963 
z
" transform="scale(0.015625)"/>
      <path id="DejaVuSans-6e" d="M 3513 2113 
L 3513 0 
L 2938 0 
L 2938 2094 
Q 2938 2591 2744 2837 
Q 2550 3084 2163 3084 
Q 1697 3084 1428 2787 
Q 1159 2491 1159 1978 
L 1159 0 
L 581 0 
L 581 3500 
L 1159 3500 
L 1159 2956 
Q 1366 3272 1645 3428 
Q 1925 3584 2291 3584 
Q 2894 3584 3203 3211 
Q 3513 2838 3513 2113 
z
" transform="scale(0.015625)"/>
      <path id="DejaVuSans-66" d="M 2375 4863 
L 2375 4384 
L 1825 4384 
Q 1516 4384 1395 4259 
Q 1275 4134 1275 3809 
L 1275 3500 
L 2222 3500 
L 2222 3053 
L 1275 3053 
L 1275 0 
L 697 0 
L 697 3053 
L 147 3053 
L 147 3500 
L 697 3500 
L 697 3744 
Q 697 4328 969 4595 
Q 1241 4863 1831 4863 
L 2375 4863 
z
" transform="scale(0.015625)"/>
      <path id="DejaVuSans-6f" d="M 1959 3097 
Q 1497 3097 1228 2736 
Q 959 2375 959 1747 
Q 959 1119 1226 758 
Q 1494 397 1959 397 
Q 2419 397 2687 759 
Q 2956 1122 2956 1747 
Q 2956 2369 2687 2733 
Q 2419 3097 1959 3097 
z
M 1959 3584 
Q 2709 3584 3137 3096 
Q 3566 2609 3566 1747 
Q 3566 888 3137 398 
Q 2709 -91 1959 -91 
Q 1206 -91 779 398 
Q 353 888 353 1747 
Q 353 2609 779 3096 
Q 1206 3584 1959 3584 
z
" transform="scale(0.015625)"/>
      <path id="DejaVuSans-6d" d="M 3328 2828 
Q 3544 3216 3844 3400 
Q 4144 3584 4550 3584 
Q 5097 3584 5394 3201 
Q 5691 2819 5691 2113 
L 5691 0 
L 5113 0 
L 5113 2094 
Q 5113 2597 4934 2840 
Q 4756 3084 4391 3084 
Q 3944 3084 3684 2787 
Q 3425 2491 3425 1978 
L 3425 0 
L 2847 0 
L 2847 2094 
Q 2847 2600 2669 2842 
Q 2491 3084 2119 3084 
Q 1678 3084 1418 2786 
Q 1159 2488 1159 1978 
L 1159 0 
L 581 0 
L 581 3500 
L 1159 3500 
L 1159 2956 
Q 1356 3278 1631 3431 
Q 1906 3584 2284 3584 
Q 2666 3584 2933 3390 
Q 3200 3197 3328 2828 
z
" transform="scale(0.015625)"/>
      <path id="DejaVuSans-65" d="M 3597 1894 
L 3597 1613 
L 953 1613 
Q 991 1019 1311 708 
Q 1631 397 2203 397 
Q 2534 397 2845 478 
Q 3156 559 3463 722 
L 3463 178 
Q 3153 47 2828 -22 
Q 2503 -91 2169 -91 
Q 1331 -91 842 396 
Q 353 884 353 1716 
Q 353 2575 817 3079 
Q 1281 3584 2069 3584 
Q 2775 3584 3186 3129 
Q 3597 2675 3597 1894 
z
M 3022 2063 
Q 3016 2534 2758 2815 
Q 2500 3097 2075 3097 
Q 1594 3097 1305 2825 
Q 1016 2553 972 2059 
L 3022 2063 
z
" transform="scale(0.015625)"/>
      <path id="DejaVuSans-64" d="M 2906 2969 
L 2906 4863 
L 3481 4863 
L 3481 0 
L 2906 0 
L 2906 525 
Q 2725 213 2448 61 
Q 2172 -91 1784 -91 
Q 1150 -91 751 415 
Q 353 922 353 1747 
Q 353 2572 751 3078 
Q 1150 3584 1784 3584 
Q 2172 3584 2448 3432 
Q 2725 3281 2906 2969 
z
M 947 1747 
Q 947 1113 1208 752 
Q 1469 391 1925 391 
Q 2381 391 2643 752 
Q 2906 1113 2906 1747 
Q 2906 2381 2643 2742 
Q 2381 3103 1925 3103 
Q 1469 3103 1208 2742 
Q 947 2381 947 1747 
z
" transform="scale(0.015625)"/>
      <path id="DejaVuSans-5f" d="M 3263 -1063 
L 3263 -1509 
L -63 -1509 
L -63 -1063 
L 3263 -1063 
z
" transform="scale(0.015625)"/>
      <path id="DejaVuSans-39" d="M 703 97 
L 703 672 
Q 941 559 1184 500 
Q 1428 441 1663 441 
Q 2288 441 2617 861 
Q 2947 1281 2994 2138 
Q 2813 1869 2534 1725 
Q 2256 1581 1919 1581 
Q 1219 1581 811 2004 
Q 403 2428 403 3163 
Q 403 3881 828 4315 
Q 1253 4750 1959 4750 
Q 2769 4750 3195 4129 
Q 3622 3509 3622 2328 
Q 3622 1225 3098 567 
Q 2575 -91 1691 -91 
Q 1453 -91 1209 -44 
Q 966 3 703 97 
z
M 1959 2075 
Q 2384 2075 2632 2365 
Q 2881 2656 2881 3163 
Q 2881 3666 2632 3958 
Q 2384 4250 1959 4250 
Q 1534 4250 1286 3958 
Q 1038 3666 1038 3163 
Q 1038 2656 1286 2365 
Q 1534 2075 1959 2075 
z
" transform="scale(0.015625)"/>
     </defs>
     <use xlink:href="#DejaVuSans-43"/>
     <use xlink:href="#DejaVuSans-6c" x="69.824219"/>
     <use xlink:href="#DejaVuSans-61" x="97.607422"/>
     <use xlink:href="#DejaVuSans-73" x="158.886719"/>
     <use xlink:href="#DejaVuSans-73" x="210.986328"/>
     <use xlink:href="#DejaVuSans-69" x="263.085938"/>
     <use xlink:href="#DejaVuSans-63" x="290.869141"/>
     <use xlink:href="#DejaVuSans-20" x="345.849609"/>
     <use xlink:href="#DejaVuSans-54" x="377.636719"/>
     <use xlink:href="#DejaVuSans-72" x="423.970703"/>
     <use xlink:href="#DejaVuSans-61" x="465.083984"/>
     <use xlink:href="#DejaVuSans-6e" x="526.363281"/>
     <use xlink:href="#DejaVuSans-73" x="589.742188"/>
     <use xlink:href="#DejaVuSans-66" x="641.841797"/>
     <use xlink:href="#DejaVuSans-6f" x="677.046875"/>
     <use xlink:href="#DejaVuSans-72" x="738.228516"/>
     <use xlink:href="#DejaVuSans-6d" x="777.591797"/>
     <use xlink:href="#DejaVuSans-65" x="875.003906"/>
     <use xlink:href="#DejaVuSans-72" x="936.527344"/>
     <use xlink:href="#DejaVuSans-20" x="977.640625"/>
     <use xlink:href="#DejaVuSans-2d" x="1009.427734"/>
     <use xlink:href="#DejaVuSans-20" x="1045.511719"/>
     <use xlink:href="#DejaVuSans-6d" x="1077.298828"/>
     <use xlink:href="#DejaVuSans-6f" x="1174.710938"/>
     <use xlink:href="#DejaVuSans-64" x="1235.892578"/>
     <use xlink:href="#DejaVuSans-65" x="1299.369141"/>
     <use xlink:href="#DejaVuSans-6c" x="1360.892578"/>
     <use xlink:href="#DejaVuSans-5f" x="1388.675781"/>
     <use xlink:href="#DejaVuSans-32" x="1438.675781"/>
     <use xlink:href="#DejaVuSans-30" x="1502.298828"/>
     <use xlink:href="#DejaVuSans-32" x="1565.921875"/>
     <use xlink:href="#DejaVuSans-33" x="1629.544922"/>
     <use xlink:href="#DejaVuSans-31" x="1693.167969"/>
     <use xlink:href="#DejaVuSans-31" x="1756.791016"/>
     <use xlink:href="#DejaVuSans-32" x="1820.414062"/>
     <use xlink:href="#DejaVuSans-36" x="1884.037109"/>
     <use xlink:href="#DejaVuSans-31" x="1947.660156"/>
     <use xlink:href="#DejaVuSans-39" x="2011.283203"/>
     <use xlink:href="#DejaVuSans-32" x="2074.90625"/>
     <use xlink:href="#DejaVuSans-35" x="2138.529297"/>
     <use xlink:href="#DejaVuSans-32" x="2202.152344"/>
     <use xlink:href="#DejaVuSans-39" x="2265.775391"/>
    </g>
   </g>
   <g id="legend_1">
    <g id="patch_7">
     <path d="M 428.882812 95.234375 
L 511.4 95.234375 
Q 513.4 95.234375 513.4 93.234375 
L 513.4 50.2 
Q 513.4 48.2 511.4 48.2 
L 428.882812 48.2 
Q 426.882812 48.2 426.882812 50.2 
L 426.882812 93.234375 
Q 426.882812 95.234375 428.882812 95.234375 
z
" style="fill: #ffffff; opacity: 0.8; stroke: #cccccc; stroke-linejoin: miter"/>
    </g>
    <g id="line2d_16">
     <path d="M 430.882812 56.298437 
L 440.882812 56.298437 
L 450.882812 56.298437 
" style="fill: none; stroke: #1f77b4; stroke-width: 1.5; stroke-linecap: square"/>
    </g>
    <g id="text_14">
     <!-- Measured -->
     <g transform="translate(458.882812 59.798437) scale(0.1 -0.1)">
      <defs>
       <path id="DejaVuSans-4d" d="M 628 4666 
L 1569 4666 
L 2759 1491 
L 3956 4666 
L 4897 4666 
L 4897 0 
L 4281 0 
L 4281 4097 
L 3078 897 
L 2444 897 
L 1241 4097 
L 1241 0 
L 628 0 
L 628 4666 
z
" transform="scale(0.015625)"/>
       <path id="DejaVuSans-75" d="M 544 1381 
L 544 3500 
L 1119 3500 
L 1119 1403 
Q 1119 906 1312 657 
Q 1506 409 1894 409 
Q 2359 409 2629 706 
Q 2900 1003 2900 1516 
L 2900 3500 
L 3475 3500 
L 3475 0 
L 2900 0 
L 2900 538 
Q 2691 219 2414 64 
Q 2138 -91 1772 -91 
Q 1169 -91 856 284 
Q 544 659 544 1381 
z
M 1991 3584 
L 1991 3584 
z
" transform="scale(0.015625)"/>
      </defs>
      <use xlink:href="#DejaVuSans-4d"/>
      <use xlink:href="#DejaVuSans-65" x="86.279297"/>
      <use xlink:href="#DejaVuSans-61" x="147.802734"/>
      <use xlink:href="#DejaVuSans-73" x="209.082031"/>
      <use xlink:href="#DejaVuSans-75" x="261.181641"/>
      <use xlink:href="#DejaVuSans-72" x="324.560547"/>
      <use xlink:href="#DejaVuSans-65" x="363.423828"/>
      <use xlink:href="#DejaVuSans-64" x="424.947266"/>
     </g>
    </g>
    <g id="line2d_17">
     <path d="M 430.882812 70.976562 
L 440.882812 70.976562 
L 450.882812 70.976562 
" style="fill: none; stroke: #ff7f0e; stroke-width: 1.5; stroke-linecap: square"/>
    </g>
    <g id="text_15">
     <!-- Fitted -->
     <g transform="translate(458.882812 74.476562) scale(0.1 -0.1)">
      <defs>
       <path id="DejaVuSans-46" d="M 628 4666 
L 3309 4666 
L 3309 4134 
L 1259 4134 
L 1259 2759 
L 3109 2759 
L 3109 2228 
L 1259 2228 
L 1259 0 
L 628 0 
L 628 4666 
z
" transform="scale(0.015625)"/>
       <path id="DejaVuSans-74" d="M 1172 4494 
L 1172 3500 
L 2356 3500 
L 2356 3053 
L 1172 3053 
L 1172 1153 
Q 1172 725 1289 603 
Q 1406 481 1766 481 
L 2356 481 
L 2356 0 
L 1766 0 
Q 1100 0 847 248 
Q 594 497 594 1153 
L 594 3053 
L 172 3053 
L 172 3500 
L 594 3500 
L 594 4494 
L 1172 4494 
z
" transform="scale(0.015625)"/>
      </defs>
      <use xlink:href="#DejaVuSans-46"/>
      <use xlink:href="#DejaVuSans-69" x="50.269531"/>
      <use xlink:href="#DejaVuSans-74" x="78.052734"/>
      <use xlink:href="#DejaVuSans-74" x="117.261719"/>
      <use xlink:href="#DejaVuSans-65" x="156.470703"/>
      <use xlink:href="#DejaVuSans-64" x="217.994141"/>
     </g>
    </g>
    <g id="line2d_18">
     <path d="M 430.882812 85.654687 
L 440.882812 85.654687 
L 450.882812 85.654687 
" style="fill: none; stroke: #2ca02c; stroke-width: 1.5; stroke-linecap: square"/>
    </g>
    <g id="text_16">
     <!-- Estimated -->
     <g transform="translate(458.882812 89.154687) scale(0.1 -0.1)">
      <defs>
       <path id="DejaVuSans-45" d="M 628 4666 
L 3578 4666 
L 3578 4134 
L 1259 4134 
L 1259 2753 
L 3481 2753 
L 3481 2222 
L 1259 2222 
L 1259 531 
L 3634 531 
L 3634 0 
L 628 0 
L 628 4666 
z
" transform="scale(0.015625)"/>
      </defs>
      <use xlink:href="#DejaVuSans-45"/>
      <use xlink:href="#DejaVuSans-73" x="63.183594"/>
      <use xlink:href="#DejaVuSans-74" x="115.283203"/>
      <use xlink:href="#DejaVuSans-69" x="154.492188"/>
      <use xlink:href="#DejaVuSans-6d" x="182.275391"/>
      <use xlink:href="#DejaVuSans-61" x="279.6875"/>
      <use xlink:href="#DejaVuSans-74" x="340.966797"/>
      <use xlink:href="#DejaVuSans-65" x="380.175781"/>
      <use xlink:href="#DejaVuSans-64" x="441.699219"/>
     </g>
    </g>
   </g>
  </g>
 </g>
 <defs>
  <clipPath id="pa2d7559c13">
   <rect x="72" y="43.2" width="446.4" height="277.2"/>
  </clipPath>
 </defs>
</svg>
