<?xml version="1.0" encoding="utf-8" standalone="no"?>
<!DOCTYPE svg PUBLIC "-//W3C//DTD SVG 1.1//EN"
  "http://www.w3.org/Graphics/SVG/1.1/DTD/svg11.dtd">
<svg xmlns:xlink="http://www.w3.org/1999/xlink" width="576pt" height="360pt" viewBox="0 0 576 360" xmlns="http://www.w3.org/2000/svg" version="1.1">
 <metadata>
  <rdf:RDF xmlns:dc="http://purl.org/dc/elements/1.1/" xmlns:cc="http://creativecommons.org/ns#" xmlns:rdf="http://www.w3.org/1999/02/22-rdf-syntax-ns#">
   <cc:Work>
    <dc:type rdf:resource="http://purl.org/dc/dcmitype/StillImage"/>
    <dc:date>2023-11-26T18:22:16.913779</dc:date>
    <dc:format>image/svg+xml</dc:format>
    <dc:creator>
     <cc:Agent>
      <dc:title>Matplotlib v3.8.1, https://matplotlib.org/</dc:title>
     </cc:Agent>
    </dc:creator>
   </cc:Work>
  </rdf:RDF>
 </metadata>
 <defs>
  <style type="text/css">*{stroke-linejoin: round; stroke-linecap: butt}</style>
 </defs>
 <g id="figure_1">
  <g id="patch_1">
   <path d="M 0 360 
L 576 360 
L 576 0 
L 0 0 
z
" style="fill: #ffffff"/>
  </g>
  <g id="axes_1">
   <g id="patch_2">
    <path d="M 72 320.4 
L 518.4 320.4 
L 518.4 43.2 
L 72 43.2 
z
" style="fill: #ffffff"/>
   </g>
   <g id="matplotlib.axis_1">
    <g id="xtick_1">
     <g id="line2d_1">
      <defs>
       <path id="ma67c3d1ed8" d="M 0 0 
L 0 3.5 
" style="stroke: #000000; stroke-width: 0.8"/>
      </defs>
      <g>
       <use xlink:href="#ma67c3d1ed8" x="129.874161" y="320.4" style="stroke: #000000; stroke-width: 0.8"/>
      </g>
     </g>
     <g id="text_1">
      <!-- 2020-05-15 -->
      <g transform="translate(100.816349 334.998438) scale(0.1 -0.1)">
       <defs>
        <path id="DejaVuSans-32" d="M 1228 531 
L 3431 531 
L 3431 0 
L 469 0 
L 469 531 
Q 828 903 1448 1529 
Q 2069 2156 2228 2338 
Q 2531 2678 2651 2914 
Q 2772 3150 2772 3378 
Q 2772 3750 2511 3984 
Q 2250 4219 1831 4219 
Q 1534 4219 1204 4116 
Q 875 4013 500 3803 
L 500 4441 
Q 881 4594 1212 4672 
Q 1544 4750 1819 4750 
Q 2544 4750 2975 4387 
Q 3406 4025 3406 3419 
Q 3406 3131 3298 2873 
Q 3191 2616 2906 2266 
Q 2828 2175 2409 1742 
Q 1991 1309 1228 531 
z
" transform="scale(0.015625)"/>
        <path id="DejaVuSans-30" d="M 2034 4250 
Q 1547 4250 1301 3770 
Q 1056 3291 1056 2328 
Q 1056 1369 1301 889 
Q 1547 409 2034 409 
Q 2525 409 2770 889 
Q 3016 1369 3016 2328 
Q 3016 3291 2770 3770 
Q 2525 4250 2034 4250 
z
M 2034 4750 
Q 2819 4750 3233 4129 
Q 3647 3509 3647 2328 
Q 3647 1150 3233 529 
Q 2819 -91 2034 -91 
Q 1250 -91 836 529 
Q 422 1150 422 2328 
Q 422 3509 836 4129 
Q 1250 4750 2034 4750 
z
" transform="scale(0.015625)"/>
        <path id="DejaVuSans-2d" d="M 313 2009 
L 1997 2009 
L 1997 1497 
L 313 1497 
L 313 2009 
z
" transform="scale(0.015625)"/>
        <path id="DejaVuSans-35" d="M 691 4666 
L 3169 4666 
L 3169 4134 
L 1269 4134 
L 1269 2991 
Q 1406 3038 1543 3061 
Q 1681 3084 1819 3084 
Q 2600 3084 3056 2656 
Q 3513 2228 3513 1497 
Q 3513 744 3044 326 
Q 2575 -91 1722 -91 
Q 1428 -91 1123 -41 
Q 819 9 494 109 
L 494 744 
Q 775 591 1075 516 
Q 1375 441 1709 441 
Q 2250 441 2565 725 
Q 2881 1009 2881 1497 
Q 2881 1984 2565 2268 
Q 2250 2553 1709 2553 
Q 1456 2553 1204 2497 
Q 953 2441 691 2322 
L 691 4666 
z
" transform="scale(0.015625)"/>
        <path id="DejaVuSans-31" d="M 794 531 
L 1825 531 
L 1825 4091 
L 703 3866 
L 703 4441 
L 1819 4666 
L 2450 4666 
L 2450 531 
L 3481 531 
L 3481 0 
L 794 0 
L 794 531 
z
" transform="scale(0.015625)"/>
       </defs>
       <use xlink:href="#DejaVuSans-32"/>
       <use xlink:href="#DejaVuSans-30" x="63.623047"/>
       <use xlink:href="#DejaVuSans-32" x="127.246094"/>
       <use xlink:href="#DejaVuSans-30" x="190.869141"/>
       <use xlink:href="#DejaVuSans-2d" x="254.492188"/>
       <use xlink:href="#DejaVuSans-30" x="290.576172"/>
       <use xlink:href="#DejaVuSans-35" x="354.199219"/>
       <use xlink:href="#DejaVuSans-2d" x="417.822266"/>
       <use xlink:href="#DejaVuSans-31" x="453.90625"/>
       <use xlink:href="#DejaVuSans-35" x="517.529297"/>
      </g>
     </g>
    </g>
    <g id="xtick_2">
     <g id="line2d_2">
      <g>
       <use xlink:href="#ma67c3d1ed8" x="212.435902" y="320.4" style="stroke: #000000; stroke-width: 0.8"/>
      </g>
     </g>
     <g id="text_2">
      <!-- 2020-06-01 -->
      <g transform="translate(183.37809 334.998438) scale(0.1 -0.1)">
       <defs>
        <path id="DejaVuSans-36" d="M 2113 2584 
Q 1688 2584 1439 2293 
Q 1191 2003 1191 1497 
Q 1191 994 1439 701 
Q 1688 409 2113 409 
Q 2538 409 2786 701 
Q 3034 994 3034 1497 
Q 3034 2003 2786 2293 
Q 2538 2584 2113 2584 
z
M 3366 4563 
L 3366 3988 
Q 3128 4100 2886 4159 
Q 2644 4219 2406 4219 
Q 1781 4219 1451 3797 
Q 1122 3375 1075 2522 
Q 1259 2794 1537 2939 
Q 1816 3084 2150 3084 
Q 2853 3084 3261 2657 
Q 3669 2231 3669 1497 
Q 3669 778 3244 343 
Q 2819 -91 2113 -91 
Q 1303 -91 875 529 
Q 447 1150 447 2328 
Q 447 3434 972 4092 
Q 1497 4750 2381 4750 
Q 2619 4750 2861 4703 
Q 3103 4656 3366 4563 
z
" transform="scale(0.015625)"/>
       </defs>
       <use xlink:href="#DejaVuSans-32"/>
       <use xlink:href="#DejaVuSans-30" x="63.623047"/>
       <use xlink:href="#DejaVuSans-32" x="127.246094"/>
       <use xlink:href="#DejaVuSans-30" x="190.869141"/>
       <use xlink:href="#DejaVuSans-2d" x="254.492188"/>
       <use xlink:href="#DejaVuSans-30" x="290.576172"/>
       <use xlink:href="#DejaVuSans-36" x="354.199219"/>
       <use xlink:href="#DejaVuSans-2d" x="417.822266"/>
       <use xlink:href="#DejaVuSans-30" x="453.90625"/>
       <use xlink:href="#DejaVuSans-31" x="517.529297"/>
      </g>
     </g>
    </g>
    <g id="xtick_3">
     <g id="line2d_3">
      <g>
       <use xlink:href="#ma67c3d1ed8" x="280.427924" y="320.4" style="stroke: #000000; stroke-width: 0.8"/>
      </g>
     </g>
     <g id="text_3">
      <!-- 2020-06-15 -->
      <g transform="translate(251.370111 334.998438) scale(0.1 -0.1)">
       <use xlink:href="#DejaVuSans-32"/>
       <use xlink:href="#DejaVuSans-30" x="63.623047"/>
       <use xlink:href="#DejaVuSans-32" x="127.246094"/>
       <use xlink:href="#DejaVuSans-30" x="190.869141"/>
       <use xlink:href="#DejaVuSans-2d" x="254.492188"/>
       <use xlink:href="#DejaVuSans-30" x="290.576172"/>
       <use xlink:href="#DejaVuSans-36" x="354.199219"/>
       <use xlink:href="#DejaVuSans-2d" x="417.822266"/>
       <use xlink:href="#DejaVuSans-31" x="453.90625"/>
       <use xlink:href="#DejaVuSans-35" x="517.529297"/>
      </g>
     </g>
    </g>
    <g id="xtick_4">
     <g id="line2d_4">
      <g>
       <use xlink:href="#ma67c3d1ed8" x="358.133092" y="320.4" style="stroke: #000000; stroke-width: 0.8"/>
      </g>
     </g>
     <g id="text_4">
      <!-- 2020-07-01 -->
      <g transform="translate(329.075279 334.998438) scale(0.1 -0.1)">
       <defs>
        <path id="DejaVuSans-37" d="M 525 4666 
L 3525 4666 
L 3525 4397 
L 1831 0 
L 1172 0 
L 2766 4134 
L 525 4134 
L 525 4666 
z
" transform="scale(0.015625)"/>
       </defs>
       <use xlink:href="#DejaVuSans-32"/>
       <use xlink:href="#DejaVuSans-30" x="63.623047"/>
       <use xlink:href="#DejaVuSans-32" x="127.246094"/>
       <use xlink:href="#DejaVuSans-30" x="190.869141"/>
       <use xlink:href="#DejaVuSans-2d" x="254.492188"/>
       <use xlink:href="#DejaVuSans-30" x="290.576172"/>
       <use xlink:href="#DejaVuSans-37" x="354.199219"/>
       <use xlink:href="#DejaVuSans-2d" x="417.822266"/>
       <use xlink:href="#DejaVuSans-30" x="453.90625"/>
       <use xlink:href="#DejaVuSans-31" x="517.529297"/>
      </g>
     </g>
    </g>
    <g id="xtick_5">
     <g id="line2d_5">
      <g>
       <use xlink:href="#ma67c3d1ed8" x="426.125113" y="320.4" style="stroke: #000000; stroke-width: 0.8"/>
      </g>
     </g>
     <g id="text_5">
      <!-- 2020-07-15 -->
      <g transform="translate(397.067301 334.998438) scale(0.1 -0.1)">
       <use xlink:href="#DejaVuSans-32"/>
       <use xlink:href="#DejaVuSans-30" x="63.623047"/>
       <use xlink:href="#DejaVuSans-32" x="127.246094"/>
       <use xlink:href="#DejaVuSans-30" x="190.869141"/>
       <use xlink:href="#DejaVuSans-2d" x="254.492188"/>
       <use xlink:href="#DejaVuSans-30" x="290.576172"/>
       <use xlink:href="#DejaVuSans-37" x="354.199219"/>
       <use xlink:href="#DejaVuSans-2d" x="417.822266"/>
       <use xlink:href="#DejaVuSans-31" x="453.90625"/>
       <use xlink:href="#DejaVuSans-35" x="517.529297"/>
      </g>
     </g>
    </g>
    <g id="xtick_6">
     <g id="line2d_6">
      <g>
       <use xlink:href="#ma67c3d1ed8" x="508.686854" y="320.4" style="stroke: #000000; stroke-width: 0.8"/>
      </g>
     </g>
     <g id="text_6">
      <!-- 2020-08-01 -->
      <g transform="translate(479.629042 334.998438) scale(0.1 -0.1)">
       <defs>
        <path id="DejaVuSans-38" d="M 2034 2216 
Q 1584 2216 1326 1975 
Q 1069 1734 1069 1313 
Q 1069 891 1326 650 
Q 1584 409 2034 409 
Q 2484 409 2743 651 
Q 3003 894 3003 1313 
Q 3003 1734 2745 1975 
Q 2488 2216 2034 2216 
z
M 1403 2484 
Q 997 2584 770 2862 
Q 544 3141 544 3541 
Q 544 4100 942 4425 
Q 1341 4750 2034 4750 
Q 2731 4750 3128 4425 
Q 3525 4100 3525 3541 
Q 3525 3141 3298 2862 
Q 3072 2584 2669 2484 
Q 3125 2378 3379 2068 
Q 3634 1759 3634 1313 
Q 3634 634 3220 271 
Q 2806 -91 2034 -91 
Q 1263 -91 848 271 
Q 434 634 434 1313 
Q 434 1759 690 2068 
Q 947 2378 1403 2484 
z
M 1172 3481 
Q 1172 3119 1398 2916 
Q 1625 2713 2034 2713 
Q 2441 2713 2670 2916 
Q 2900 3119 2900 3481 
Q 2900 3844 2670 4047 
Q 2441 4250 2034 4250 
Q 1625 4250 1398 4047 
Q 1172 3844 1172 3481 
z
" transform="scale(0.015625)"/>
       </defs>
       <use xlink:href="#DejaVuSans-32"/>
       <use xlink:href="#DejaVuSans-30" x="63.623047"/>
       <use xlink:href="#DejaVuSans-32" x="127.246094"/>
       <use xlink:href="#DejaVuSans-30" x="190.869141"/>
       <use xlink:href="#DejaVuSans-2d" x="254.492188"/>
       <use xlink:href="#DejaVuSans-30" x="290.576172"/>
       <use xlink:href="#DejaVuSans-38" x="354.199219"/>
       <use xlink:href="#DejaVuSans-2d" x="417.822266"/>
       <use xlink:href="#DejaVuSans-30" x="453.90625"/>
       <use xlink:href="#DejaVuSans-31" x="517.529297"/>
      </g>
     </g>
    </g>
   </g>
   <g id="matplotlib.axis_2">
    <g id="ytick_1">
     <g id="line2d_7">
      <defs>
       <path id="m75441ac090" d="M 0 0 
L -3.5 0 
" style="stroke: #000000; stroke-width: 0.8"/>
      </defs>
      <g>
       <use xlink:href="#m75441ac090" x="72" y="315.753022" style="stroke: #000000; stroke-width: 0.8"/>
      </g>
     </g>
     <g id="text_7">
      <!-- −2 -->
      <g transform="translate(50.257812 319.552241) scale(0.1 -0.1)">
       <defs>
        <path id="DejaVuSans-2212" d="M 678 2272 
L 4684 2272 
L 4684 1741 
L 678 1741 
L 678 2272 
z
" transform="scale(0.015625)"/>
       </defs>
       <use xlink:href="#DejaVuSans-2212"/>
       <use xlink:href="#DejaVuSans-32" x="83.789062"/>
      </g>
     </g>
    </g>
    <g id="ytick_2">
     <g id="line2d_8">
      <g>
       <use xlink:href="#m75441ac090" x="72" y="263.766362" style="stroke: #000000; stroke-width: 0.8"/>
      </g>
     </g>
     <g id="text_8">
      <!-- −1 -->
      <g transform="translate(50.257812 267.56558) scale(0.1 -0.1)">
       <use xlink:href="#DejaVuSans-2212"/>
       <use xlink:href="#DejaVuSans-31" x="83.789062"/>
      </g>
     </g>
    </g>
    <g id="ytick_3">
     <g id="line2d_9">
      <g>
       <use xlink:href="#m75441ac090" x="72" y="211.779701" style="stroke: #000000; stroke-width: 0.8"/>
      </g>
     </g>
     <g id="text_9">
      <!-- 0 -->
      <g transform="translate(58.6375 215.57892) scale(0.1 -0.1)">
       <use xlink:href="#DejaVuSans-30"/>
      </g>
     </g>
    </g>
    <g id="ytick_4">
     <g id="line2d_10">
      <g>
       <use xlink:href="#m75441ac090" x="72" y="159.793041" style="stroke: #000000; stroke-width: 0.8"/>
      </g>
     </g>
     <g id="text_10">
      <!-- 1 -->
      <g transform="translate(58.6375 163.592259) scale(0.1 -0.1)">
       <use xlink:href="#DejaVuSans-31"/>
      </g>
     </g>
    </g>
    <g id="ytick_5">
     <g id="line2d_11">
      <g>
       <use xlink:href="#m75441ac090" x="72" y="107.80638" style="stroke: #000000; stroke-width: 0.8"/>
      </g>
     </g>
     <g id="text_11">
      <!-- 2 -->
      <g transform="translate(58.6375 111.605599) scale(0.1 -0.1)">
       <use xlink:href="#DejaVuSans-32"/>
      </g>
     </g>
    </g>
    <g id="ytick_6">
     <g id="line2d_12">
      <g>
       <use xlink:href="#m75441ac090" x="72" y="55.81972" style="stroke: #000000; stroke-width: 0.8"/>
      </g>
     </g>
     <g id="text_12">
      <!-- 3 -->
      <g transform="translate(58.6375 59.618939) scale(0.1 -0.1)">
       <defs>
        <path id="DejaVuSans-33" d="M 2597 2516 
Q 3050 2419 3304 2112 
Q 3559 1806 3559 1356 
Q 3559 666 3084 287 
Q 2609 -91 1734 -91 
Q 1441 -91 1130 -33 
Q 819 25 488 141 
L 488 750 
Q 750 597 1062 519 
Q 1375 441 1716 441 
Q 2309 441 2620 675 
Q 2931 909 2931 1356 
Q 2931 1769 2642 2001 
Q 2353 2234 1838 2234 
L 1294 2234 
L 1294 2753 
L 1863 2753 
Q 2328 2753 2575 2939 
Q 2822 3125 2822 3475 
Q 2822 3834 2567 4026 
Q 2313 4219 1838 4219 
Q 1578 4219 1281 4162 
Q 984 4106 628 3988 
L 628 4550 
Q 988 4650 1302 4700 
Q 1616 4750 1894 4750 
Q 2613 4750 3031 4423 
Q 3450 4097 3450 3541 
Q 3450 3153 3228 2886 
Q 3006 2619 2597 2516 
z
" transform="scale(0.015625)"/>
       </defs>
       <use xlink:href="#DejaVuSans-33"/>
      </g>
     </g>
    </g>
   </g>
   <g id="line2d_13">
    <path d="M 72 287.703966 
L 72.404714 298.721081 
L 72.607072 297.048112 
L 72.809429 286.683863 
L 73.214143 256.652023 
L 73.618858 244.574001 
L 75.035358 163.985844 
L 75.237715 161.109153 
L 75.440073 166.026051 
L 75.64243 174.003258 
L 75.844787 177.206382 
L 76.047144 192.018281 
L 76.654216 260.283591 
L 77.05893 283.664357 
L 77.261287 287.907987 
L 77.463645 287.54075 
L 77.666002 277.135696 
L 78.070716 249.450094 
L 78.475431 237.331268 
L 78.677788 228.456369 
L 79.487217 173.085165 
L 79.891931 157.273565 
L 80.094288 159.170957 
L 80.903717 200.383128 
L 81.713146 273.585737 
L 82.11786 287.826378 
L 82.320218 289.805379 
L 82.522575 289.51975 
L 82.724932 287.071502 
L 82.927289 280.440831 
L 83.332004 258.10057 
L 83.736718 244.186361 
L 83.939075 241.228062 
L 84.141432 241.493289 
L 84.546147 247.715919 
L 84.748504 249.756125 
L 84.950861 249.776527 
L 85.355576 253.85694 
L 85.557933 250.613012 
L 85.76029 256.570415 
L 86.569719 300.271638 
L 86.772076 306.188237 
L 86.974433 307.738794 
L 87.176791 307.8 
L 87.379148 306.494268 
L 87.581505 302.8627 
L 87.783862 296.293235 
L 88.188577 274.850665 
L 88.390934 269.811355 
L 89.200363 261.95656 
L 89.40272 257.937353 
L 89.807434 243.553897 
L 90.212149 241.166856 
L 90.414506 238.53499 
L 90.616863 246.267372 
L 91.223935 295.456751 
L 91.628649 306.188237 
L 91.831006 306.249443 
L 92.033364 303.821597 
L 92.842792 258.937054 
L 93.04515 256.856044 
L 93.449864 248.491197 
L 93.652221 247.981146 
L 93.854578 245.124856 
L 94.056936 244.512795 
L 94.259293 241.962536 
L 94.46165 235.739907 
L 94.664007 232.965226 
L 94.866364 233.862917 
L 95.068722 236.923226 
L 95.271079 233.189648 
L 95.473436 243.023444 
L 96.080508 295.823988 
L 96.485222 304.780494 
L 96.687579 306.637082 
L 96.889937 302.413855 
L 97.699365 258.222982 
L 98.306437 248.001548 
L 98.508794 247.63431 
L 99.52058 226.987421 
L 99.722937 228.211545 
L 99.925295 232.455174 
L 100.127652 230.680194 
L 100.330009 240.554794 
L 100.937081 293.416544 
L 101.341795 305.351752 
L 101.544152 306.310649 
L 101.74651 302.699484 
L 101.948867 291.070307 
L 102.353581 261.85455 
L 102.555938 260.344797 
L 103.567724 243.043846 
L 104.377153 221.540069 
L 104.57951 222.784595 
L 104.781868 228.027926 
L 104.984225 228.007524 
L 105.186582 236.658 
L 105.793654 290.356234 
L 106.198368 302.76069 
L 106.400725 304.474463 
L 106.603083 300.557267 
L 107.412511 255.876745 
L 107.614869 254.203775 
L 107.817226 250.633414 
L 108.22194 236.494783 
L 108.626655 215.378646 
L 108.829012 209.604861 
L 109.031369 207.768676 
L 109.638441 216.21513 
L 109.840798 221.499265 
L 110.043155 231.618689 
L 110.650227 285.17411 
L 111.054941 299.047514 
L 111.257298 300.904102 
L 111.459655 299.210731 
L 111.662013 288.112007 
L 112.066727 259.651127 
L 112.471442 245.06365 
L 113.887942 178.512114 
L 114.090299 176.206681 
L 114.292656 182.837352 
L 114.495014 193.956478 
L 114.697371 198.42453 
L 115.102085 231.516679 
L 115.709157 279.54314 
L 116.113871 293.110513 
L 116.316228 293.27373 
L 116.518586 291.661967 
L 116.720943 288.132409 
L 117.125657 261.630127 
L 118.542158 159.803421 
L 118.744515 149.969626 
L 118.946872 146.195244 
L 119.149229 149.765605 
L 119.756301 186.611734 
L 120.56573 263.813148 
L 120.970444 283.093099 
L 121.172801 287.071502 
L 121.375159 288.662863 
L 121.577516 287.255121 
L 121.779873 279.54314 
L 122.589302 229.925318 
L 123.196374 205.157211 
L 123.398731 200.709561 
L 123.601088 200.913582 
L 123.803445 200.362726 
L 124.410517 213.399645 
L 124.612874 224.069925 
L 125.219946 278.829068 
L 125.62466 292.967699 
L 125.827017 294.905895 
L 126.029374 292.437245 
L 127.04116 237.576092 
L 127.648232 201.178809 
L 128.255304 159.946235 
L 128.457661 152.601492 
L 128.660018 152.275059 
L 129.26709 195.405024 
L 130.278876 283.78677 
L 130.481233 291.39674 
L 130.68359 292.743276 
L 130.885947 290.233822 
L 132.504805 184.265497 
L 133.111877 142.747295 
L 133.314234 133.586767 
L 133.516591 135.239335 
L 133.921306 150.194048 
L 134.123663 157.416379 
L 135.135449 264.3232 
L 135.540163 276.605243 
L 135.74252 275.68715 
L 135.944878 265.384107 
L 136.349592 234.821814 
L 136.551949 228.231947 
L 136.754306 216.684378 
L 136.956664 221.132028 
L 137.159021 210.135315 
L 137.766092 201.546046 
L 137.96845 201.933685 
L 138.373164 196.669952 
L 138.777879 204.014696 
L 138.980236 204.830778 
L 139.182593 216.317141 
L 139.789665 271.423118 
L 140.194379 286.377832 
L 140.396736 288.397636 
L 140.599093 285.459739 
L 141.003808 256.060363 
L 141.408522 235.454278 
L 142.015594 222.417358 
L 142.622665 213.522058 
L 142.825023 213.256831 
L 143.02738 212.073511 
L 143.229737 212.746779 
L 143.634451 217.8881 
L 143.836809 216.684378 
L 144.039166 226.599782 
L 144.646238 274.626242 
L 145.050952 286.398234 
L 145.253309 287.663162 
L 145.455666 284.602852 
L 145.860381 255.73393 
L 146.062738 239.718309 
L 146.66981 223.682286 
L 146.872167 221.070822 
L 147.074524 220.009915 
L 147.479238 209.19682 
L 147.681596 217.439254 
L 147.883953 218.398151 
L 148.08631 220.94841 
L 148.491024 230.027328 
L 148.693382 228.701194 
L 149.098096 251.735126 
L 149.502811 279.175903 
L 149.907525 291.967998 
L 150.109882 293.987802 
L 150.312239 293.416544 
L 150.514597 290.641863 
L 150.716954 285.031296 
L 151.121668 264.506818 
L 151.526383 244.349578 
L 151.931097 238.637 
L 152.133454 238.208556 
L 152.335811 240.146753 
L 152.538169 240.656804 
L 152.740526 238.637 
L 152.942883 238.922629 
L 153.14524 237.963732 
L 153.347597 238.004536 
L 153.549955 235.127845 
L 153.752312 237.290464 
L 154.764098 287.928389 
L 154.966455 291.825183 
L 155.168812 293.192121 
L 155.573527 289.315729 
L 155.775884 278.421026 
L 156.78767 201.729664 
L 157.799456 159.783019 
L 158.001813 161.762019 
L 158.406528 174.758134 
L 158.608885 188.101085 
L 159.215956 255.652322 
L 159.620671 276.911274 
L 159.823028 280.073594 
L 160.025385 279.175903 
L 160.227743 269.525726 
L 160.632457 237.576092 
L 161.8466 188.060281 
L 162.251315 178.165279 
L 162.453672 178.308094 
L 162.656029 181.123579 
L 163.465458 212.440748 
L 164.072529 271.361912 
L 164.477244 289.682966 
L 164.679601 290.009399 
L 164.881958 286.826677 
L 165.084316 276.829665 
L 165.48903 245.5533 
L 166.500816 211.012604 
L 167.310245 168.759927 
L 167.512602 172.065062 
L 167.917316 192.324312 
L 168.119674 196.710756 
L 168.322031 207.891088 
L 168.929102 266.383808 
L 169.333817 281.338522 
L 169.536174 284.806873 
L 169.738531 281.195707 
L 170.143246 254.326188 
L 170.54796 224.477967 
L 171.357389 180.593125 
L 171.559746 174.656124 
L 172.166818 150.826512 
L 172.369175 152.417873 
L 172.571532 160.211462 
L 173.178604 198.587746 
L 173.785675 268.587231 
L 174.19039 287.683564 
L 174.392747 290.621461 
L 174.595104 288.82608 
L 174.999819 264.996468 
L 175.404533 240.371175 
L 177.023391 163.312576 
L 177.225748 163.822628 
L 177.428105 167.678618 
L 177.630462 184.020672 
L 177.83282 186.428116 
L 178.237534 229.884514 
L 178.642248 272.157593 
L 179.046963 291.070307 
L 179.24932 294.742678 
L 179.451677 292.253627 
L 179.654034 283.684759 
L 180.261106 244.410784 
L 181.879964 148.847512 
L 182.082321 145.623986 
L 182.284678 151.214152 
L 183.094107 206.748572 
L 183.498821 245.206465 
L 183.903536 266.363406 
L 184.30825 274.095789 
L 184.510607 275.442325 
L 184.712965 271.851562 
L 184.915322 258.651426 
L 185.724751 177.757238 
L 186.129465 156.661503 
L 186.331822 150.683698 
L 186.53418 149.928821 
L 186.736537 152.438275 
L 187.748323 192.344714 
L 188.557752 255.693126 
L 188.962466 269.688943 
L 189.164823 271.708747 
L 189.36718 271.790355 
L 189.569538 271.055881 
L 189.771895 260.406003 
L 190.986038 165.638411 
L 191.188395 160.395081 
L 191.390752 160.354277 
L 191.795467 169.392391 
L 192.604896 200.321922 
L 193.414325 262.895055 
L 193.819039 276.442026 
L 194.021396 277.502934 
L 194.426111 273.585737 
L 194.628468 264.731241 
L 195.437897 204.524747 
L 195.640254 199.567045 
L 195.842611 200.770767 
L 196.247325 206.768974 
L 196.449683 207.340232 
L 196.65204 206.952593 
L 197.056754 215.072615 
L 197.259112 215.909099 
L 197.461469 224.233142 
L 198.06854 272.055582 
L 198.473255 286.092203 
L 198.675612 286.194213 
L 198.877969 282.583048 
L 199.282684 252.122765 
L 199.687398 229.537679 
L 201.306256 163.822628 
L 201.508613 162.680112 
L 202.115684 181.674434 
L 202.318042 192.711952 
L 202.925113 256.121569 
L 203.329828 273.585737 
L 203.532185 275.666748 
L 203.734542 272.708448 
L 203.936899 261.303694 
L 204.341614 227.660689 
L 205.758114 173.554413 
L 205.960471 171.085763 
L 206.162829 171.228577 
L 206.365186 172.63632 
L 206.7699 184.367507 
L 206.972257 187.529827 
L 207.174615 198.261313 
L 207.781686 256.713229 
L 208.186401 272.708448 
L 208.388758 275.727954 
L 208.591115 272.422819 
L 208.793472 260.67123 
L 209.198187 227.211843 
L 209.805258 205.157211 
L 210.209973 185.469219 
L 210.817044 144.195841 
L 211.019402 135.79019 
L 211.221759 138.728088 
L 211.626473 162.965741 
L 211.82883 168.127463 
L 212.031188 182.71494 
L 212.638259 247.124259 
L 213.042974 265.526921 
L 213.245331 269.484922 
L 213.447688 267.791551 
L 213.650045 257.182477 
L 214.257117 214.33814 
L 214.661831 188.243899 
L 215.47126 129.46555 
L 215.875975 112.899074 
L 216.078332 112.429826 
L 216.280689 117.917982 
L 217.090118 181.082775 
L 217.697189 242.411382 
L 218.101904 260.691632 
L 218.304261 264.017169 
L 218.506618 265.363705 
L 218.708976 264.119179 
L 218.911333 251.510703 
L 219.518404 197.24121 
L 220.125476 162.374081 
L 220.327833 160.231864 
L 220.53019 162.435287 
L 221.541976 204.341129 
L 221.744334 209.441645 
L 222.553762 265.792148 
L 222.958477 276.564439 
L 223.160834 278.25781 
L 223.363191 278.604645 
L 223.565549 277.054088 
L 223.767906 268.424015 
L 224.374977 230.578184 
L 224.779692 223.070224 
L 225.386763 225.110431 
L 225.589121 228.599184 
L 225.791478 229.476473 
L 226.196192 237.780113 
L 226.398549 237.433278 
L 226.600907 243.798722 
L 227.410335 296.905297 
L 227.612693 300.904102 
L 227.81505 302.577071 
L 228.017407 299.414751 
L 228.826836 257.223281 
L 229.029193 254.917848 
L 229.23155 249.225672 
L 230.648051 186.407714 
L 230.850408 186.978971 
L 231.255122 201.260417 
L 231.45748 212.053109 
L 232.064551 275.136294 
L 232.469266 292.151616 
L 232.671623 294.844689 
L 232.87398 293.640967 
L 233.278694 268.587231 
L 233.683409 246.267372 
L 235.302267 182.286496 
L 235.504624 181.694837 
L 236.111695 200.627953 
L 236.314053 210.890191 
L 236.921124 272.443221 
L 237.325839 288.173214 
L 237.528196 291.274327 
L 237.730553 289.172915 
L 238.135267 265.445313 
L 238.539982 243.859928 
L 239.349411 213.216027 
L 239.754125 203.300623 
L 240.15884 193.181199 
L 240.361197 192.936374 
L 240.563554 198.342922 
L 240.968268 215.786687 
L 241.170626 223.294647 
L 241.777697 278.319016 
L 242.182412 294.028606 
L 242.384769 296.497256 
L 242.587126 293.538957 
L 242.99184 269.056479 
L 243.396555 251.265878 
L 245.21777 177.308393 
L 245.420127 181.511218 
L 246.027199 208.054304 
L 246.836627 280.848872 
L 247.038985 289.132111 
L 247.241342 292.274029 
L 247.443699 289.764575 
L 247.848413 266.424612 
L 249.467271 155.478183 
L 249.669628 147.480574 
L 249.871985 145.56278 
L 250.074343 145.725996 
L 250.2767 152.601492 
L 250.883772 184.408311 
L 251.6932 258.671828 
L 252.097915 273.055283 
L 252.300272 276.095191 
L 252.502629 276.360418 
L 252.704986 272.52483 
L 253.109701 240.085546 
L 253.91913 167.576608 
L 254.323844 151.928224 
L 254.728558 143.19614 
L 254.930916 141.951614 
L 255.133273 149.377966 
L 255.740345 186.489322 
L 256.549773 260.977261 
L 256.954488 276.299212 
L 257.156845 280.073594 
L 257.359202 281.726161 
L 257.561559 280.767264 
L 257.966274 252.163569 
L 258.573345 202.260118 
L 258.97806 180.797146 
L 259.382774 169.882041 
L 259.585131 166.474896 
L 259.787489 166.046453 
L 259.989846 168.637515 
L 260.39456 184.469517 
L 260.596917 197.690055 
L 261.203989 259.079869 
L 261.608704 277.604944 
L 261.811061 280.502037 
L 262.013418 279.726759 
L 262.418132 255.999157 
L 262.62049 244.104753 
L 263.025204 234.536185 
L 263.227561 231.761504 
L 263.429918 230.761803 
L 263.834633 232.026731 
L 264.03699 231.7207 
L 264.239347 232.659195 
L 264.441704 232.740803 
L 264.644062 232.475576 
L 264.846419 234.495381 
L 265.048776 238.494185 
L 265.251133 238.494185 
L 265.45349 242.472588 
L 266.060562 284.521244 
L 266.465277 297.23173 
L 266.667634 298.761885 
L 266.869991 294.620266 
L 267.072348 286.745069 
L 267.477063 260.508013 
L 268.084134 238.555392 
L 268.488849 228.374761 
L 269.09592 217.235234 
L 269.500635 213.318037 
L 269.702992 215.480656 
L 269.905349 219.051017 
L 270.107706 219.724286 
L 270.310063 225.967317 
L 270.917135 274.340613 
L 271.32185 286.194213 
L 271.524207 288.316028 
L 271.726564 286.622657 
L 274.15485 146.440068 
L 274.357208 139.34015 
L 274.559565 142.645284 
L 275.166636 167.556206 
L 275.976065 248.327981 
L 276.38078 260.77324 
L 276.583137 260.07957 
L 276.987851 238.453381 
L 277.392566 209.829284 
L 278.404352 153.437977 
L 278.606709 150.418471 
L 279.011423 137.320345 
L 279.213781 135.728984 
L 279.416138 139.952212 
L 280.023209 181.266393 
L 280.630281 251.918744 
L 281.034995 274.483428 
L 281.237353 279.318717 
L 281.43971 277.788562 
L 281.642067 271.953572 
L 282.249139 230.598586 
L 282.85621 197.282014 
L 283.867996 154.906925 
L 284.070354 153.723606 
L 284.272711 161.802823 
L 285.284497 244.084351 
L 285.689211 275.952377 
L 286.093926 290.560255 
L 286.296283 292.824884 
L 286.49864 291.029503 
L 286.700997 288.112007 
L 287.105712 257.386498 
L 287.712783 206.320129 
L 288.522212 163.292174 
L 288.724569 156.23306 
L 288.926927 154.315265 
L 289.129284 157.865225 
L 289.736355 191.365415 
L 290.545784 260.793642 
L 290.950499 275.931975 
L 291.152856 278.686253 
L 291.355213 278.767862 
L 291.55757 277.298913 
L 291.759927 264.935262 
L 292.771714 167.168566 
L 293.176428 145.379161 
L 293.581142 134.239633 
L 293.7835 132.52586 
L 293.985857 136.014613 
L 294.592928 161.313174 
L 295.402357 243.839526 
L 295.807072 258.406601 
L 296.009429 258.243384 
L 296.414143 238.126948 
L 297.830644 104.207794 
L 298.235358 91.007658 
L 298.437715 88.436998 
L 298.640073 88.702225 
L 298.84243 90.742431 
L 299.044787 98.719638 
L 299.449501 125.487148 
L 300.056573 203.892283 
L 300.461287 228.946019 
L 300.663645 234.923824 
L 300.866002 235.637896 
L 301.068359 228.864411 
L 301.473073 199.036592 
L 302.484859 94.516813 
L 302.687217 83.275275 
L 302.889574 83.377286 
L 303.091931 91.415699 
L 303.496646 100.004969 
L 303.90136 122.100405 
L 304.306074 149.847213 
L 304.913146 218.58177 
L 305.31786 243.757918 
L 305.520218 249.286878 
L 305.722575 247.511898 
L 305.924932 240.432382 
L 306.532004 200.750365 
L 307.54379 131.220128 
L 307.746147 121.080302 
L 307.948504 120.203013 
L 308.757933 152.254657 
L 309.162647 178.144877 
L 309.769719 240.71801 
L 310.174433 260.467209 
L 310.376791 264.833251 
L 310.579148 264.261993 
L 310.983862 241.003639 
L 312.198005 137.66718 
L 312.60272 126.119612 
L 312.805077 121.773972 
L 313.007434 122.324828 
L 313.209791 125.997199 
L 313.816863 153.397172 
L 314.01922 166.984948 
L 314.626292 229.15004 
L 315.031006 249.5113 
L 315.233364 254.060961 
L 315.435721 253.408095 
L 315.840435 234.760607 
L 316.24515 216.174326 
L 316.649864 204.239118 
L 317.054578 189.03958 
L 317.66165 181.572424 
L 317.864007 181.123579 
L 318.066364 180.225888 
L 318.268722 184.877559 
L 318.875793 206.870985 
L 319.685222 265.078076 
L 320.089937 277.76816 
L 320.292294 279.400326 
L 320.697008 271.525129 
L 321.101723 245.471692 
L 322.315866 168.066257 
L 322.72058 157.885627 
L 322.922937 155.580193 
L 323.125295 159.681008 
L 323.732366 187.121786 
L 324.541795 255.203477 
L 324.94651 269.403314 
L 325.148867 272.280005 
L 325.351224 272.341211 
L 325.553581 270.096984 
L 325.755938 257.855745 
L 326.970082 146.195244 
L 327.172439 139.911408 
L 327.374796 138.340449 
L 327.77951 132.811489 
L 327.981868 137.769191 
L 328.184225 146.501275 
L 328.791296 197.812468 
L 329.196011 241.248464 
L 329.398368 256.386796 
L 329.803083 266.424612 
L 330.00544 265.486117 
L 330.207797 259.916354 
L 330.814869 211.726676 
L 331.42194 173.758433 
L 331.826655 151.234554 
L 332.029012 148.357862 
L 332.231369 148.378264 
L 332.433726 148.561883 
L 332.636083 150.642894 
L 332.838441 155.15175 
L 333.243155 177.920455 
L 333.445512 186.876961 
L 334.052584 252.163569 
L 334.457298 273.81016 
L 334.659655 279.196305 
L 334.862013 276.809263 
L 335.266727 257.100869 
L 335.671442 232.90402 
L 336.48087 193.058787 
L 336.683228 188.019477 
L 336.885585 186.917765 
L 337.087942 180.776744 
L 337.290299 178.940558 
L 337.695014 185.367208 
L 338.099728 199.730262 
L 338.302085 205.565253 
L 339.111514 270.953871 
L 339.313871 277.115294 
L 339.516228 279.339119 
L 339.718586 275.299511 
L 340.1233 252.102363 
L 340.932729 207.931892 
L 342.349229 146.582883 
L 342.551587 146.501275 
L 343.158658 171.024557 
L 343.76573 233.373267 
L 344.170444 251.265878 
L 344.372801 255.999157 
L 344.575159 253.877342 
L 344.777516 247.001846 
L 345.18223 216.317141 
L 346.194016 134.219231 
L 346.598731 119.550147 
L 347.003445 112.980682 
L 347.205802 112.144197 
L 347.40816 115.306517 
L 347.610517 123.100106 
L 348.015231 149.031131 
L 348.82466 239.555093 
L 349.229374 256.550013 
L 349.431732 255.795136 
L 349.634089 250.041754 
L 349.836446 238.983835 
L 351.050589 135.239335 
L 351.455304 116.999889 
L 351.860018 108.206599 
L 352.062375 107.308908 
L 352.264733 110.920073 
L 352.46709 121.937188 
L 353.276519 204.483943 
L 353.681233 242.166557 
L 354.085947 262.221787 
L 354.288305 267.465118 
L 354.490662 268.036375 
L 354.693019 265.81255 
L 355.097733 224.049523 
L 355.704805 150.7041 
L 356.109519 126.160416 
L 356.716591 108.084186 
L 356.918948 107.002877 
L 357.121306 111.77696 
L 357.52602 137.238737 
L 357.728377 149.847213 
L 358.740163 244.716815 
L 359.144878 257.61092 
L 359.347235 259.467508 
L 359.549592 259.141075 
L 359.751949 245.226867 
L 360.763735 125.364735 
L 361.16845 106.411217 
L 361.573164 95.3737 
L 361.775521 93.088668 
L 361.977879 96.352999 
L 362.180236 103.310103 
L 362.58495 128.935097 
L 363.394379 217.133223 
L 363.799093 234.678999 
L 364.001451 235.495082 
L 364.203808 229.639689 
L 364.406165 219.642677 
L 365.013237 150.479677 
L 365.620308 86.294781 
L 366.025023 70.217954 
L 366.429737 64.076932 
L 366.632094 64.566582 
L 366.834451 67.198448 
L 367.036809 75.869326 
L 367.441523 104.901464 
L 368.048595 184.10228 
L 368.453309 214.460553 
L 368.655666 222.947812 
L 368.858024 225.314451 
L 369.060381 221.438059 
L 369.262738 211.624666 
L 369.86981 148.419069 
L 370.476881 90.53841 
L 370.881596 73.992336 
L 371.083953 73.54349 
L 371.28631 74.257563 
L 371.488667 78.174759 
L 371.691024 84.376987 
L 372.298096 123.181714 
L 373.107525 207.80948 
L 373.512239 229.94572 
L 373.714597 234.29136 
L 374.119311 233.59769 
L 374.321668 220.907605 
L 375.333454 117.50994 
L 375.738169 104.309804 
L 375.940526 101.616732 
L 376.142883 100.51502 
L 376.34524 105.676743 
L 376.749955 131.811788 
L 377.559383 190.488127 
L 377.964098 225.00842 
L 378.368812 238.759412 
L 378.57117 238.983835 
L 378.773527 233.067236 
L 378.975884 221.886905 
L 380.392384 105.65634 
L 380.797099 95.761339 
L 381.201813 88.192173 
L 381.40417 91.946153 
L 382.011242 128.853488 
L 382.820671 211.461449 
L 383.225385 227.517874 
L 383.427743 228.170741 
L 383.6301 222.845802 
L 384.034814 200.668757 
L 385.0466 127.445746 
L 385.451315 110.797661 
L 385.653672 110.328413 
L 385.856029 114.102795 
L 386.058386 121.712766 
L 387.070172 191.50823 
L 387.474887 231.516679 
L 387.879601 253.346889 
L 388.284316 262.466612 
L 388.68903 264.976066 
L 388.891387 259.243085 
L 389.700816 215.807089 
L 390.307888 204.626758 
L 390.914959 191.916271 
L 391.117316 196.690354 
L 391.926745 236.16835 
L 392.533817 280.257212 
L 392.938531 292.600462 
L 393.140888 294.45705 
L 393.343246 294.008204 
L 393.545603 294.477452 
L 393.74796 285.541347 
L 394.355032 244.47199 
L 395.569175 188.121487 
L 395.771532 182.12328 
L 395.973889 183.327002 
L 396.176247 191.630642 
L 396.783318 233.577288 
L 397.188033 272.014778 
L 397.592747 289.805379 
L 397.795104 292.58006 
L 397.997461 290.050203 
L 398.402176 271.953572 
L 400.628105 144.603882 
L 400.830462 147.43977 
L 401.03282 157.375575 
L 401.639891 214.297336 
L 402.044606 258.549415 
L 402.44932 278.829068 
L 402.651677 282.827873 
L 402.854034 281.175305 
L 403.258749 263.017467 
L 403.663463 234.658597 
L 404.877607 128.833086 
L 405.282321 108.349413 
L 405.484678 104.146588 
L 405.687035 105.227897 
L 405.889393 115.714559 
L 406.294107 153.009533 
L 406.901179 230.272153 
L 407.305893 254.285384 
L 407.50825 259.875549 
L 407.710607 259.345096 
L 408.115322 238.14735 
L 409.73418 106.125588 
L 409.936537 101.20869 
L 410.138894 101.065876 
L 410.341251 105.65634 
L 410.948323 141.686387 
L 411.15068 157.559194 
L 411.757752 228.007524 
L 412.162466 252.020754 
L 412.364823 258.488209 
L 412.56718 260.263189 
L 412.971895 242.248165 
L 414.388395 144.359058 
L 414.79311 130.852891 
L 415.197824 124.201818 
L 415.400181 130.954901 
L 416.20961 193.364818 
L 416.614325 238.494185 
L 417.019039 261.507715 
L 417.221396 265.751344 
L 417.423753 265.200488 
L 417.828468 249.082857 
L 419.244968 151.581389 
L 419.649683 138.014016 
L 419.85204 134.198829 
L 420.054397 135.626974 
L 420.256754 144.257047 
L 421.066183 209.319232 
L 421.673255 264.200787 
L 422.077969 280.216408 
L 422.280326 282.685058 
L 422.482684 282.032192 
L 422.685041 281.868975 
L 423.089755 251.245476 
L 423.899184 182.490517 
L 424.708613 143.359357 
L 424.91097 140.197036 
L 425.113327 144.175439 
L 425.518042 170.16767 
L 425.720399 181.898857 
L 426.529828 256.101167 
L 426.934542 274.565036 
L 427.136899 279.012686 
L 427.339257 279.808367 
L 427.541614 280.03279 
L 427.743971 271.484324 
L 428.148685 231.373865 
L 428.755757 169.861639 
L 429.160471 144.37946 
L 429.565186 136.17783 
L 429.9699 140.074624 
L 430.374615 156.192255 
L 430.576972 167.760226 
L 431.386401 243.268269 
L 431.791115 255.427899 
L 431.993472 253.408095 
L 432.398187 233.230453 
L 433.207616 168.555907 
L 434.017044 98.63803 
L 434.219402 93.782339 
L 435.02883 121.019095 
L 435.433545 145.848408 
L 436.040617 216.582368 
L 436.445331 238.963433 
L 436.647688 244.063949 
L 436.850045 243.390681 
L 437.25476 222.92741 
L 437.659474 188.243899 
L 438.468903 115.265713 
L 438.67126 105.595134 
L 438.873617 106.554031 
L 439.075975 113.613146 
L 439.278332 113.1643 
L 439.480689 115.388125 
L 439.885403 133.81119 
L 440.290118 158.395678 
L 440.897189 231.312659 
L 441.301904 253.469301 
L 441.504261 258.855446 
L 441.706618 259.3859 
L 442.111333 244.757619 
L 442.920762 193.099591 
L 443.527833 158.477287 
L 444.134905 135.892201 
L 444.337262 133.321541 
L 444.539619 139.686985 
L 445.146691 184.428713 
L 445.753762 253.122466 
L 446.158477 274.177397 
L 446.360834 279.094295 
L 446.563191 277.115294 
L 446.967906 258.345395 
L 448.586763 149.337162 
L 448.991478 136.239036 
L 449.193835 133.933603 
L 449.396192 140.543872 
L 450.003264 180.633929 
L 450.812693 260.099972 
L 451.217407 273.300108 
L 451.419764 273.422521 
L 451.824479 256.366394 
L 452.43155 206.320129 
L 453.038622 164.720319 
L 453.443336 147.807007 
L 453.848051 139.993016 
L 454.050408 143.338954 
L 454.252765 153.254358 
L 454.65748 181.450012 
L 454.859837 189.83526 
L 455.669266 254.081363 
L 456.07398 267.526324 
L 456.276337 269.036077 
L 456.478694 267.057076 
L 456.681052 263.976364 
L 456.883409 256.039961 
L 457.288123 229.231648 
L 457.692838 218.357347 
L 457.895195 219.051017 
L 458.299909 224.763596 
L 458.502267 224.620781 
L 458.906981 220.825997 
L 459.109338 221.356451 
L 459.514053 225.477668 
L 459.71641 229.7417 
L 460.728196 287.010296 
L 461.13291 291.39674 
L 461.537625 288.112007 
L 461.739982 279.257511 
L 462.144696 245.022846 
L 463.561197 176.3903 
L 463.763554 169.188371 
L 463.965911 170.351288 
L 464.572983 189.672044 
L 465.382412 256.121569 
L 465.584769 262.976663 
L 465.787126 265.669736 
L 465.989483 263.262292 
L 467.608341 171.453 
L 468.620127 150.438873 
L 468.822484 153.539987 
L 469.429556 179.573022 
L 470.036627 235.841917 
L 470.441342 253.489703 
L 470.643699 256.101167 
L 470.846056 253.550909 
L 471.857842 203.035396 
L 472.869628 173.023959 
L 473.071985 173.513609 
L 473.274343 171.738629 
L 473.4767 172.983155 
L 473.679057 176.737135 
L 473.881414 183.265796 
L 474.083772 184.408311 
L 474.286129 192.018281 
L 474.8932 243.717114 
L 475.297915 259.834745 
L 475.500272 261.487313 
L 475.702629 259.467508 
L 476.107344 235.291061 
L 476.512058 213.460852 
L 477.321487 182.22529 
L 477.726201 162.231267 
L 477.928558 158.701709 
L 478.333273 163.35338 
L 478.53563 167.780628 
L 479.142702 192.507931 
L 479.952131 259.732735 
L 480.356845 269.505324 
L 480.559202 269.097283 
L 480.963917 247.185465 
L 482.785131 119.835776 
L 482.987489 113.980383 
L 483.189846 111.368919 
L 483.392203 116.959084 
L 483.999275 156.498286 
L 484.606346 227.028225 
L 485.011061 250.062156 
L 485.213418 254.428198 
L 485.415775 255.366693 
L 485.82049 235.760309 
L 486.225204 204.810376 
L 487.23699 115.571744 
L 487.439347 112.511434 
L 487.844062 119.019693 
L 488.248776 137.483562 
L 489.260562 214.378945 
L 489.665277 246.267372 
L 490.069991 261.242488 
L 490.272348 263.568323 
L 490.474705 262.44621 
L 490.677063 260.691632 
L 490.87942 251.041455 
L 491.891206 171.983454 
L 492.29592 154.417276 
L 492.498277 147.092934 
L 492.700635 145.093532 
L 492.902992 146.705295 
L 493.105349 151.479378 
L 493.712421 184.714342 
L 494.52185 256.101167 
L 495.128921 274.218201 
L 495.331278 274.361016 
L 495.533636 273.748954 
L 495.735993 266.261396 
L 496.950136 175.533413 
L 497.557208 151.377368 
L 497.759565 148.051831 
L 497.961922 151.234554 
L 498.568994 182.470115 
L 499.378422 255.652322 
L 499.58078 262.425808 
L 499.783137 264.894457 
L 499.985494 261.609725 
L 500.187851 253.16327 
L 500.794923 216.561966 
L 500.99728 211.502253 
L 501.401995 198.52654 
L 501.806709 187.366611 
L 502.009066 186.917765 
L 502.211423 188.957972 
L 502.413781 189.590436 
L 502.616138 187.937868 
L 503.020852 197.567643 
L 503.223209 198.118499 
L 503.425567 205.565253 
L 504.032638 255.815539 
L 504.437353 268.77085 
L 504.63971 270.382613 
L 504.842067 268.036375 
L 505.246782 243.880331 
L 505.651496 220.275141 
L 507.270354 147.766203 
L 507.472711 144.685491 
L 507.675068 148.051831 
L 508.28214 175.839444 
L 508.889211 233.352865 
L 509.293926 250.327383 
L 509.496283 253.816136 
L 509.69864 252.000352 
L 510.103354 228.66039 
L 511.722212 123.222518 
L 512.126927 105.615536 
L 512.329284 107.186495 
L 512.936355 141.257944 
L 513.34107 179.858651 
L 513.745784 222.947812 
L 514.150499 245.471692 
L 514.352856 251.000651 
L 514.555213 251.490301 
L 514.75757 242.676609 
L 516.174071 146.766501 
L 516.376428 145.685192 
L 516.781142 154.927327 
L 516.9835 152.213853 
L 517.185857 152.744306 
L 517.590571 170.290082 
L 517.792928 174.492908 
L 517.995286 185.101981 
L 518.4 224.416761 
L 518.4 224.416761 
" clip-path="url(#p4ed7ea748a)" style="fill: none; stroke: #1f77b4; stroke-width: 1.5; stroke-linecap: square"/>
   </g>
   <g id="line2d_14">
    <path d="M 72 263.860908 
L 72.202357 263.860908 
L 72.607072 270.285542 
L 72.809429 271.203305 
L 73.011786 267.547658 
L 73.4165 241.219132 
L 74.023572 220.755226 
L 74.833001 177.626234 
L 75.237715 167.529518 
L 75.440073 165.224974 
L 75.64243 166.252755 
L 76.047144 178.880975 
L 76.451859 212.559167 
L 76.856573 259.853103 
L 77.261287 276.600453 
L 77.463645 275.944488 
L 77.666002 270.507337 
L 78.677788 216.003692 
L 78.880145 211.519518 
L 79.487217 181.762407 
L 79.891931 171.343007 
L 80.094288 169.961754 
L 80.296646 172.3068 
L 80.499003 178.888316 
L 80.903717 202.174505 
L 81.713146 270.224523 
L 81.915503 279.052232 
L 82.320218 283.927407 
L 82.724932 274.88252 
L 83.129646 261.432474 
L 83.534361 238.966237 
L 83.939075 230.304775 
L 84.141432 227.213069 
L 84.34379 228.114771 
L 84.546147 229.577375 
L 84.748504 232.3061 
L 85.355576 253.741035 
L 85.76029 259.568393 
L 87.176791 305.88718 
L 87.581505 295.541177 
L 87.986219 274.643751 
L 88.390934 258.487223 
L 88.593291 252.350654 
L 88.795648 249.686825 
L 88.998005 250.282248 
L 89.200363 253.122784 
L 89.40272 253.449022 
L 89.605077 252.533787 
L 90.009791 241.532926 
L 90.212149 240.879511 
L 90.414506 237.046854 
L 90.616863 238.360873 
L 90.81922 245.770656 
L 91.426292 292.896235 
L 91.628649 302.633527 
L 91.831006 303.267658 
L 92.033364 296.765422 
L 93.04515 239.836271 
L 93.449864 240.574378 
L 93.854578 230.063821 
L 94.056936 230.570505 
L 94.259293 232.00459 
L 94.46165 232.151061 
L 94.664007 226.196992 
L 94.866364 224.572705 
L 95.068722 224.716122 
L 95.271079 229.767604 
L 95.473436 231.852894 
L 95.675793 243.659499 
L 96.282865 292.569823 
L 96.485222 298.021266 
L 96.687579 297.161528 
L 96.889937 291.124057 
L 97.699365 244.478372 
L 97.901723 239.884201 
L 98.10408 238.290887 
L 98.306437 240.985993 
L 98.508794 241.323151 
L 99.52058 228.149886 
L 99.925295 229.470022 
L 100.532366 250.718383 
L 101.139438 293.625538 
L 101.341795 298.729678 
L 101.544152 298.834134 
L 101.74651 294.063594 
L 102.151224 271.305387 
L 102.555938 250.239029 
L 102.758296 243.525464 
L 102.960653 243.847503 
L 103.16301 244.652101 
L 103.365367 247.126829 
L 104.377153 222.743987 
L 104.57951 221.441921 
L 104.781868 224.585234 
L 105.591296 268.517801 
L 105.996011 292.220513 
L 106.198368 297.539928 
L 106.400725 296.918458 
L 106.603083 293.230783 
L 107.007797 271.049055 
L 107.614869 242.697041 
L 107.817226 241.744393 
L 108.019583 243.461164 
L 108.22194 242.010028 
L 109.031369 201.57265 
L 109.233726 202.467822 
L 109.638441 213.527542 
L 110.447869 267.702461 
L 110.852584 288.96448 
L 111.054941 293.747018 
L 111.257298 293.472341 
L 111.459655 290.715717 
L 111.662013 285.249445 
L 112.471442 242.871197 
L 113.078513 223.737686 
L 113.483228 196.01352 
L 113.887942 185.087781 
L 114.090299 183.642167 
L 114.292656 184.72858 
L 114.495014 190.128276 
L 114.899728 217.76074 
L 115.5068 264.817658 
L 115.911514 286.817874 
L 116.113871 288.865807 
L 116.316228 288.096909 
L 116.9233 269.83221 
L 117.530372 235.911329 
L 118.542158 172.734432 
L 118.946872 162.40898 
L 119.149229 162.85041 
L 119.351587 166.296808 
L 119.756301 186.155815 
L 120.768087 272.24432 
L 120.970444 280.733713 
L 121.172801 284.096965 
L 121.375159 281.312323 
L 121.779873 270.366193 
L 123.398731 187.563861 
L 123.601088 186.59132 
L 123.803445 188.983579 
L 124.005802 194.501195 
L 124.410517 215.082595 
L 124.612874 220.630236 
L 125.017588 253.295664 
L 125.62466 296.327558 
L 125.827017 297.069758 
L 126.029374 296.660787 
L 126.231732 289.422324 
L 127.04116 235.461289 
L 127.243518 229.858693 
L 127.648232 205.577203 
L 128.052947 181.798748 
L 128.660018 164.720527 
L 128.862375 164.954673 
L 129.064733 171.569326 
L 129.469447 196.797614 
L 130.076519 276.889049 
L 130.278876 290.757642 
L 130.481233 295.060199 
L 130.68359 291.329931 
L 131.088305 271.870165 
L 131.493019 247.116194 
L 132.100091 214.849007 
L 133.314234 155.300214 
L 133.516591 153.247559 
L 133.718948 156.533946 
L 133.921306 162.692314 
L 134.32602 183.233663 
L 135.337806 270.631593 
L 135.540163 274.808103 
L 135.74252 273.947826 
L 135.944878 268.397264 
L 136.956664 202.675168 
L 137.563735 184.878833 
L 137.766092 182.873237 
L 137.96845 182.479229 
L 138.575521 200.271871 
L 139.38495 232.66334 
L 139.992022 280.1966 
L 140.194379 288.498475 
L 140.396736 290.731465 
L 140.599093 288.785825 
L 141.003808 268.060776 
L 141.610879 225.407698 
L 141.813237 226.195461 
L 142.015594 224.182333 
L 142.622665 209.509831 
L 142.825023 207.354408 
L 143.02738 207.961109 
L 143.229737 214.425653 
L 143.432094 216.513958 
L 144.039166 231.647564 
L 144.848595 283.956485 
L 145.050952 287.507726 
L 145.253309 287.171925 
L 145.455666 284.992499 
L 145.860381 263.927906 
L 146.467452 225.875021 
L 146.66981 222.720909 
L 146.872167 221.830348 
L 147.276881 212.687854 
L 147.681596 206.784116 
L 148.288667 224.779841 
L 148.693382 234.088312 
L 148.895739 239.786005 
L 149.502811 275.737474 
L 149.705168 284.065855 
L 150.109882 288.456779 
L 150.312239 287.387548 
L 150.716954 273.4489 
L 150.919311 268.960139 
L 151.72874 238.240152 
L 151.931097 237.287848 
L 152.133454 234.652346 
L 152.335811 233.52345 
L 152.538169 234.099842 
L 152.740526 232.378252 
L 152.942883 234.139786 
L 153.347597 246.930653 
L 153.549955 247.597054 
L 153.752312 247.578856 
L 153.954669 250.098269 
L 154.359383 264.212852 
L 154.764098 286.401515 
L 154.966455 291.458072 
L 155.168812 291.341638 
L 155.573527 282.065344 
L 155.775884 274.750555 
L 156.78767 213.608406 
L 157.192384 189.711047 
L 157.799456 174.509938 
L 158.001813 172.340024 
L 158.20417 174.067894 
L 158.406528 178.192524 
L 158.608885 185.973295 
L 158.811242 200.590097 
L 159.418314 272.025345 
L 159.620671 285.361833 
L 159.823028 290.171205 
L 160.025385 287.212072 
L 160.4301 261.181843 
L 160.834814 232.625864 
L 162.048957 177.828037 
L 162.251315 176.159366 
L 162.453672 176.649085 
L 162.656029 178.390404 
L 162.858386 184.389563 
L 163.667815 225.087227 
L 164.072529 265.797382 
L 164.477244 290.115045 
L 164.679601 289.18907 
L 164.881958 285.702318 
L 165.286673 260.734965 
L 165.893744 225.604658 
L 166.096102 221.644301 
L 166.298459 222.677565 
L 166.703173 202.531583 
L 167.310245 181.025071 
L 167.512602 179.290328 
L 167.714959 181.440823 
L 168.119674 198.9625 
L 169.333817 284.165396 
L 169.738531 278.64983 
L 170.143246 258.744274 
L 171.762103 170.378925 
L 172.166818 161.562721 
L 172.369175 161.008454 
L 172.571532 165.863915 
L 172.976247 186.194824 
L 173.380961 218.982142 
L 174.19039 286.819665 
L 174.392747 289.369988 
L 174.595104 287.411748 
L 174.797461 278.1551 
L 175.60689 220.246306 
L 175.809248 215.332234 
L 176.416319 187.789897 
L 176.821034 179.223475 
L 177.225748 175.173575 
L 177.428105 177.339455 
L 177.630462 182.002261 
L 178.035177 206.480122 
L 178.642248 268.386382 
L 178.844606 285.21135 
L 179.046963 292.353309 
L 179.24932 291.778169 
L 179.451677 288.749546 
L 179.856392 266.474225 
L 180.66582 219.090741 
L 180.868178 209.144319 
L 181.272892 182.975799 
L 181.677607 167.855678 
L 181.879964 162.861584 
L 182.082321 160.912786 
L 182.284678 162.455162 
L 182.487035 167.608335 
L 182.89175 190.678773 
L 183.701179 259.38979 
L 183.903536 267.876146 
L 184.105893 270.145217 
L 184.30825 269.804719 
L 184.510607 265.324628 
L 185.117679 242.925647 
L 185.724751 192.575202 
L 186.129465 162.94526 
L 186.53418 148.753853 
L 186.736537 147.801713 
L 186.938894 151.593384 
L 187.343608 172.251335 
L 188.153037 225.711113 
L 188.962466 265.892665 
L 189.164823 270.54615 
L 189.36718 271.043161 
L 189.771895 255.579416 
L 189.974252 244.187124 
L 190.378966 212.604527 
L 191.188395 164.482173 
L 191.390752 160.711269 
L 191.59311 161.667654 
L 191.795467 165.36323 
L 192.200181 182.728215 
L 193.414325 260.47004 
L 193.616682 276.236641 
L 193.819039 279.957012 
L 194.021396 279.705278 
L 194.223753 274.657565 
L 195.033182 231.756799 
L 195.640254 194.297163 
L 195.842611 187.064967 
L 196.044968 186.188155 
L 196.247325 189.062943 
L 196.65204 201.187505 
L 197.056754 222.482802 
L 197.461469 225.9565 
L 197.663826 231.281593 
L 198.675612 299.657909 
L 198.877969 295.206108 
L 199.282684 265.665832 
L 199.687398 232.123562 
L 200.901541 184.282325 
L 201.306256 179.453673 
L 201.508613 177.910566 
L 201.71097 178.411121 
L 202.115684 187.892389 
L 202.318042 195.300918 
L 202.520399 209.063801 
L 202.925113 257.362646 
L 203.329828 281.688115 
L 203.532185 280.480392 
L 203.734542 274.369874 
L 204.948685 204.596263 
L 205.555757 182.174595 
L 205.960471 174.505042 
L 206.162829 173.510339 
L 206.365186 176.328825 
L 206.567543 181.365699 
L 207.174615 208.476024 
L 207.781686 249.352233 
L 208.186401 271.910633 
L 208.591115 275.012837 
L 208.793472 267.598823 
L 209.602901 214.422638 
L 210.817044 166.099468 
L 211.221759 154.823438 
L 211.424116 156.351461 
L 211.626473 162.425412 
L 212.233545 198.537457 
L 212.840617 260.892717 
L 213.042974 268.28112 
L 213.245331 268.127149 
L 213.447688 264.929866 
L 213.852403 241.699004 
L 214.257117 216.504166 
L 214.661831 198.350708 
L 215.268903 159.314164 
L 215.875975 131.113698 
L 216.078332 127.964166 
L 216.280689 129.642814 
L 216.483046 136.401446 
L 217.090118 178.453542 
L 217.697189 231.350594 
L 218.304261 256.148572 
L 218.506618 251.937459 
L 219.518404 205.609504 
L 220.125476 161.935947 
L 220.53019 148.75943 
L 220.732548 149.822377 
L 221.137262 171.978378 
L 221.744334 213.582074 
L 222.149048 233.196685 
L 222.958477 275.449864 
L 223.160834 279.551406 
L 223.363191 279.641037 
L 223.767906 262.763138 
L 224.577335 217.308286 
L 224.982049 210.374548 
L 225.386763 217.302557 
L 226.398549 248.745884 
L 226.600907 248.296723 
L 226.803264 254.996585 
L 227.207978 278.366266 
L 227.612693 303.759971 
L 227.81505 305.861684 
L 228.017407 301.491328 
L 228.422121 276.156188 
L 229.029193 240.675001 
L 229.23155 238.816584 
L 229.433908 239.22951 
L 229.636265 236.122554 
L 230.648051 199.907003 
L 230.850408 196.578492 
L 231.052765 197.334109 
L 231.255122 200.693514 
L 231.45748 211.467535 
L 232.266908 288.203564 
L 232.469266 296.480445 
L 232.671623 295.919962 
L 232.87398 290.19036 
L 233.885766 238.276568 
L 234.492838 214.024684 
L 234.897552 191.97877 
L 235.302267 183.429379 
L 235.504624 183.472543 
L 235.706981 186.137567 
L 235.909338 192.717778 
L 236.314053 216.985895 
L 237.325839 288.779441 
L 237.528196 289.850736 
L 237.730553 286.817192 
L 237.93291 281.375151 
L 239.349411 207.875187 
L 239.551768 197.580984 
L 239.956482 190.687539 
L 240.15884 189.969823 
L 240.361197 191.245924 
L 240.563554 195.64172 
L 240.765911 202.850076 
L 242.182412 292.17104 
L 242.384769 293.024841 
L 242.587126 290.614633 
L 242.789483 283.39418 
L 243.598912 235.742036 
L 244.003626 226.616934 
L 244.610698 195.627937 
L 245.015413 188.280374 
L 245.21777 185.631181 
L 245.420127 186.541649 
L 245.622484 189.805473 
L 245.824841 198.673928 
L 247.038985 287.295053 
L 247.241342 290.15886 
L 247.443699 287.471571 
L 247.646056 281.398912 
L 249.467271 168.589983 
L 249.871985 156.381468 
L 250.074343 156.351882 
L 250.2767 159.213916 
L 250.681414 176.609209 
L 251.086129 203.930376 
L 251.490843 240.727467 
L 251.895558 264.688407 
L 252.097915 270.67485 
L 252.300272 271.126446 
L 252.502629 270.265797 
L 253.109701 242.672822 
L 253.91913 179.37565 
L 254.323844 157.577471 
L 254.728558 149.555008 
L 254.930916 150.979362 
L 255.133273 154.972123 
L 255.537987 176.29878 
L 256.549773 252.987187 
L 256.752131 269.871011 
L 256.954488 276.222976 
L 257.156845 278.394359 
L 257.359202 276.200065 
L 257.966274 245.028707 
L 258.370988 214.898852 
L 258.573345 205.705649 
L 258.97806 179.902091 
L 259.382774 168.134646 
L 259.585131 168.203886 
L 259.787489 169.310288 
L 260.192203 180.026371 
L 260.596917 200.243963 
L 261.001632 229.620381 
L 261.608704 285.560611 
L 261.811061 289.211802 
L 262.013418 286.004963 
L 262.215775 277.386121 
L 263.025204 226.166289 
L 263.227561 218.433126 
L 263.632276 210.666848 
L 263.834633 214.178568 
L 264.441704 234.791289 
L 264.644062 235.194135 
L 264.846419 233.396805 
L 265.048776 233.050476 
L 265.251133 237.503146 
L 265.655848 254.448571 
L 266.060562 283.086125 
L 266.465277 299.005737 
L 266.667634 298.245769 
L 266.869991 293.354376 
L 267.67942 254.223116 
L 268.084134 239.371468 
L 268.286491 237.921035 
L 268.488849 233.504488 
L 268.893563 222.200728 
L 269.500635 214.62526 
L 269.702992 216.754546 
L 270.310063 237.278875 
L 270.714778 256.874303 
L 271.32185 286.903583 
L 271.524207 287.763581 
L 271.726564 285.619665 
L 271.928921 279.664959 
L 272.940707 223.469949 
L 273.143064 216.078735 
L 273.547779 190.227757 
L 274.15485 169.375611 
L 274.357208 165.588346 
L 274.559565 164.573899 
L 274.761922 165.225628 
L 274.964279 169.563624 
L 275.368994 186.245434 
L 276.178422 260.351771 
L 276.38078 267.475652 
L 276.583137 268.129696 
L 276.987851 244.786384 
L 278.201995 172.056247 
L 278.809066 150.856123 
L 279.011423 147.717083 
L 279.213781 148.007277 
L 279.416138 150.036928 
L 279.820852 167.86055 
L 280.427924 216.412721 
L 281.034995 271.390005 
L 281.237353 275.665257 
L 281.43971 274.066882 
L 281.642067 267.156541 
L 282.451496 215.487477 
L 282.653853 209.846199 
L 283.260925 177.295423 
L 283.867996 161.525968 
L 284.070354 160.838834 
L 284.272711 163.132746 
L 284.677425 183.293104 
L 285.891568 287.20637 
L 286.093926 286.221471 
L 286.49864 278.491972 
L 287.308069 237.243829 
L 287.915141 198.173856 
L 288.522212 170.851496 
L 288.926927 164.330457 
L 289.129284 166.060679 
L 289.331641 171.24565 
L 289.736355 195.670395 
L 290.748141 271.473879 
L 290.950499 277.459057 
L 291.152856 277.725776 
L 291.355213 275.027927 
L 291.759927 260.412895 
L 292.164642 230.862091 
L 292.974071 165.829563 
L 293.378785 148.601331 
L 293.581142 144.682882 
L 293.7835 144.591875 
L 293.985857 147.092253 
L 294.390571 162.917356 
L 294.997643 203.477822 
L 295.604714 255.983993 
L 295.807072 263.674366 
L 296.009429 261.687536 
L 296.211786 257.290984 
L 297.223572 179.93986 
L 297.830644 121.316776 
L 298.235358 105.172704 
L 298.437715 102.495201 
L 298.640073 103.104048 
L 298.84243 108.197776 
L 299.449501 140.71698 
L 299.854216 176.411156 
L 300.25893 216.277934 
L 300.663645 235.087559 
L 300.866002 232.2624 
L 301.270716 216.081291 
L 301.473073 213.820124 
L 301.675431 201.327155 
L 302.484859 106.418534 
L 302.889574 90.542507 
L 303.091931 89.822642 
L 303.294288 95.137279 
L 303.699003 116.198779 
L 304.306074 167.013504 
L 304.913146 219.81022 
L 305.520218 248.319786 
L 305.924932 232.31365 
L 306.127289 219.000932 
L 306.532004 211.304288 
L 306.734361 198.836483 
L 307.341432 149.384625 
L 307.746147 133.714355 
L 307.948504 130.584902 
L 308.353218 137.566016 
L 308.757933 157.52001 
L 309.162647 185.207085 
L 309.567362 218.334167 
L 309.769719 232.712029 
L 309.972076 255.605828 
L 310.174433 265.06568 
L 310.376791 265.569427 
L 310.579148 261.795771 
L 311.388577 214.115685 
L 311.590934 205.062978 
L 312.198005 148.592252 
L 312.60272 129.245964 
L 312.805077 124.347197 
L 313.007434 123.313073 
L 313.412149 134.861555 
L 313.816863 159.587681 
L 314.221578 191.597419 
L 314.626292 220.698828 
L 315.031006 252.611613 
L 315.233364 253.734767 
L 315.435721 250.808758 
L 316.24515 212.575087 
L 317.054578 176.691546 
L 317.256936 171.354174 
L 317.459293 170.496261 
L 317.66165 171.90728 
L 318.268722 187.233688 
L 319.07815 221.164136 
L 319.887579 277.073604 
L 320.089937 278.920379 
L 320.292294 278.378717 
L 320.494651 271.573277 
L 321.506437 221.711827 
L 321.708794 216.91614 
L 322.72058 167.942258 
L 322.922937 165.997129 
L 323.125295 166.85586 
L 323.327652 170.739908 
L 323.732366 190.056348 
L 324.339438 236.983442 
L 324.744152 265.340251 
L 325.148867 273.401194 
L 325.553581 262.593276 
L 325.755938 256.322905 
L 326.565367 199.844928 
L 327.172439 152.977927 
L 327.374796 145.833409 
L 327.577153 143.067985 
L 327.77951 143.476294 
L 327.981868 146.221769 
L 328.386582 162.584509 
L 328.791296 191.480038 
L 329.600725 265.618522 
L 329.803083 273.664758 
L 330.00544 271.446964 
L 330.207797 264.654657 
L 331.826655 150.487694 
L 332.029012 144.318909 
L 332.231369 141.904431 
L 332.433726 144.969079 
L 332.838441 157.904341 
L 333.445512 193.97906 
L 334.052584 243.43283 
L 334.457298 279.294931 
L 334.659655 280.123943 
L 334.862013 275.93906 
L 335.06437 266.528123 
L 335.671442 222.143333 
L 336.278513 199.160887 
L 336.683228 181.02874 
L 336.885585 178.171237 
L 337.087942 177.915567 
L 337.290299 178.881078 
L 337.695014 187.499431 
L 338.099728 206.429093 
L 338.504442 223.365184 
L 339.111514 273.685123 
L 339.313871 285.88481 
L 339.516228 284.051539 
L 339.718586 280.057904 
L 339.920943 273.373219 
L 340.528015 230.309038 
L 341.742158 177.816095 
L 342.349229 163.330716 
L 342.753944 166.191473 
L 343.158658 181.135132 
L 343.361015 191.401355 
L 344.170444 257.901721 
L 344.372801 260.653114 
L 344.575159 259.429177 
L 344.777516 251.765874 
L 345.18223 224.763326 
L 345.586945 203.735821 
L 346.396374 140.240272 
L 346.801088 123.431832 
L 347.003445 120.258223 
L 347.205802 119.386704 
L 347.40816 123.307322 
L 347.812874 141.621122 
L 348.419946 189.3495 
L 348.82466 225.444506 
L 349.229374 246.050786 
L 349.431732 248.807426 
L 349.634089 243.663577 
L 350.038803 219.467117 
L 350.24116 213.303155 
L 350.645875 178.579201 
L 351.050589 140.064219 
L 351.455304 119.613425 
L 351.657661 114.653782 
L 351.860018 114.831879 
L 352.062375 115.935716 
L 352.46709 128.906576 
L 352.871804 158.261157 
L 353.88359 254.82585 
L 354.085947 260.454311 
L 354.288305 258.735182 
L 354.490662 252.157233 
L 355.097733 217.809115 
L 355.300091 213.054138 
L 355.502448 200.224443 
L 356.109519 137.905095 
L 356.514234 121.857354 
L 356.716591 120.048289 
L 356.918948 120.577055 
L 357.121306 125.117117 
L 357.52602 145.684575 
L 358.94252 255.790464 
L 359.347235 248.781277 
L 359.954306 220.116434 
L 360.156664 212.776851 
L 360.561378 167.791812 
L 360.966092 128.383741 
L 361.370807 114.301366 
L 361.573164 112.48163 
L 361.775521 113.969824 
L 361.977879 117.20579 
L 362.382593 134.693874 
L 362.989665 185.282429 
L 363.394379 222.102247 
L 363.596736 236.997984 
L 363.799093 243.586842 
L 364.203808 229.107526 
L 364.406165 217.750493 
L 364.608522 216.057125 
L 364.810879 208.639588 
L 365.822665 93.750945 
L 366.025023 87.893586 
L 366.22738 86.231125 
L 366.429737 88.949059 
L 366.834451 99.859257 
L 367.441523 136.663281 
L 367.846238 173.937637 
L 368.250952 216.076669 
L 368.655666 226.732543 
L 369.465095 212.984843 
L 369.667452 203.762781 
L 370.476881 118.464683 
L 370.881596 102.756677 
L 371.083953 101.214915 
L 371.28631 104.042963 
L 371.488667 108.919067 
L 371.893382 127.33027 
L 372.298096 157.491905 
L 373.107525 223.283775 
L 373.309882 230.23706 
L 373.512239 232.059038 
L 373.714597 228.279261 
L 374.119311 217.380433 
L 374.524025 213.11436 
L 374.726383 206.524172 
L 375.535811 134.486755 
L 375.940526 123.672417 
L 376.142883 124.074039 
L 376.34524 125.545096 
L 376.547597 130.486551 
L 376.952312 153.706351 
L 377.761741 219.459634 
L 377.964098 226.489125 
L 378.166455 238.561277 
L 378.368812 240.934525 
L 378.57117 236.814701 
L 378.975884 219.727342 
L 379.178241 216.490033 
L 379.380598 211.14736 
L 380.392384 119.041291 
L 380.594742 111.351021 
L 380.797099 108.851653 
L 380.999456 108.911568 
L 381.40417 112.797556 
L 381.808885 127.164957 
L 382.213599 156.941666 
L 383.023028 227.126231 
L 383.225385 229.27029 
L 383.427743 225.983453 
L 383.6301 218.295802 
L 384.034814 212.803408 
L 384.237171 202.158866 
L 384.237171 202.158866 
" clip-path="url(#p4ed7ea748a)" style="fill: none; stroke: #ff7f0e; stroke-width: 1.5; stroke-linecap: square"/>
   </g>
   <g id="line2d_15">
    <path d="M 384.439529 179.796573 
L 385.451315 110.816294 
L 385.653672 105.498112 
L 385.856029 105.158698 
L 386.058386 107.751423 
L 386.463101 120.920707 
L 386.867815 147.441681 
L 387.272529 188.892959 
L 387.474887 213.165202 
L 387.879601 224.703117 
L 388.081958 224.371421 
L 388.284316 220.048698 
L 388.891387 213.558249 
L 389.093744 209.783742 
L 389.498459 185.593239 
L 390.307888 128.378579 
L 390.712602 112.56359 
L 390.914959 109.071273 
L 391.117316 109.26614 
L 391.522031 117.29218 
L 391.926745 134.825778 
L 392.33146 157.495543 
L 393.140888 211.769837 
L 393.343246 220.52109 
L 393.545603 222.830359 
L 393.74796 220.495611 
L 394.152675 209.507662 
L 394.557389 186.151613 
L 395.771532 89.518677 
L 395.973889 84.695659 
L 396.176247 84.614127 
L 396.378604 87.531763 
L 396.783318 100.134962 
L 397.39039 145.848586 
L 398.199819 219.402734 
L 398.402176 220.970124 
L 398.604533 221.377604 
L 399.009248 213.441425 
L 399.211605 212.558061 
L 399.413962 207.959407 
L 399.818676 184.681068 
L 400.628105 122.979962 
L 400.830462 114.043094 
L 401.03282 110.028822 
L 401.235177 111.465473 
L 401.437534 114.310377 
L 401.842248 129.859571 
L 402.246963 157.824483 
L 402.854034 219.441711 
L 403.258749 231.448565 
L 403.461106 231.088397 
L 403.86582 219.321759 
L 404.472892 208.577454 
L 405.079964 167.556845 
L 405.687035 122.289454 
L 406.09175 105.756824 
L 406.294107 101.275524 
L 406.496464 101.659955 
L 406.901179 109.130203 
L 407.305893 123.985399 
L 408.520036 184.668017 
L 408.722393 188.305033 
L 408.924751 189.171867 
L 409.127108 186.242574 
L 409.531822 172.532292 
L 410.138894 129.904402 
L 410.745966 87.949163 
L 410.948323 79.892608 
L 411.15068 76.604275 
L 411.353037 77.056206 
L 411.555394 82.063743 
L 411.960109 100.659389 
L 412.364823 129.394873 
L 412.971895 189.978598 
L 413.174252 213.080795 
L 413.376609 219.821237 
L 413.578966 221.381337 
L 413.983681 215.325528 
L 414.388395 213.054138 
L 414.590752 212.094722 
L 414.79311 208.378215 
L 415.197824 190.323115 
L 415.804896 163.596756 
L 416.007253 158.380293 
L 416.20961 157.801293 
L 416.411967 159.999621 
L 416.614325 163.681136 
L 416.816682 170.90223 
L 418.030825 233.185196 
L 418.233182 235.438909 
L 418.435539 234.080184 
L 419.447325 208.785121 
L 419.85204 184.907307 
L 421.26854 87.315341 
L 421.673255 77.060631 
L 421.875612 75.465931 
L 422.077969 78.611355 
L 423.899184 128.397444 
L 424.101541 130.115445 
L 424.303898 130.332809 
L 424.506256 129.082951 
L 424.708613 127.04543 
L 425.720399 111.007741 
L 425.922756 111.383619 
L 426.125113 113.280214 
L 426.529828 125.397309 
L 427.136899 160.868513 
L 427.743971 215.47111 
L 428.351043 239.265361 
L 428.5534 243.906102 
L 428.755757 245.411616 
L 428.958114 242.192764 
L 429.767543 218.799132 
L 430.172257 215.116639 
L 430.374615 213.845814 
L 430.576972 213.433826 
L 431.184044 215.699205 
L 431.993472 223.951085 
L 432.600544 230.161313 
L 432.802901 229.756581 
L 433.005258 227.811289 
L 433.409973 220.178558 
L 433.61233 213.386462 
L 434.017044 186.830936 
L 435.02883 91.824603 
L 435.433545 72.775265 
L 435.635902 67.996743 
L 435.838259 66.145624 
L 436.040617 67.667704 
L 436.445331 78.267752 
L 437.052403 106.58715 
L 437.861831 143.539475 
L 438.266546 152.194726 
L 438.468903 153.223067 
L 438.67126 152.151047 
L 439.075975 145.039214 
L 439.885403 127.516399 
L 440.087761 125.698498 
L 440.290118 126.770958 
L 440.492475 129.835395 
L 440.897189 145.048386 
L 441.301904 168.824176 
L 441.908976 222.030942 
L 442.718404 252.137774 
L 442.920762 250.743234 
L 443.73019 220.865266 
L 444.741976 208.249421 
L 445.146691 205.677395 
L 445.349048 207.162026 
L 445.753762 213.400928 
L 446.360834 218.318006 
L 446.765549 224.139199 
L 446.967906 224.390975 
L 447.170263 223.342988 
L 447.37262 219.059729 
L 447.574977 211.442109 
L 447.979692 178.85741 
L 448.789121 84.994567 
L 449.193835 64.507506 
L 449.396192 61.221726 
L 449.598549 60.799939 
L 449.800907 62.778809 
L 450.205621 75.391861 
L 450.812693 107.952265 
L 451.622121 153.223359 
L 452.026836 165.347811 
L 452.229193 167.84475 
L 452.43155 167.499672 
L 452.836265 158.801945 
L 453.848051 127.808 
L 454.050408 128.132621 
L 454.252765 129.112859 
L 454.455122 134.20862 
L 454.859837 152.807725 
L 455.264551 181.702913 
L 455.669266 219.264568 
L 456.478694 255.268454 
L 456.681052 256.294614 
L 456.883409 250.073366 
L 457.490481 222.37144 
L 457.895195 215.815581 
L 458.906981 196.299432 
L 459.109338 195.567678 
L 459.311695 196.967195 
L 459.71641 203.340209 
L 460.121124 205.189647 
L 460.728196 216.199505 
L 460.930553 216.03567 
L 461.13291 212.153811 
L 461.335267 205.269103 
L 461.537625 192.152876 
L 462.144696 118.506434 
L 462.549411 77.206813 
L 462.954125 59.554952 
L 463.156482 57.27327 
L 463.35884 58.245687 
L 463.561197 61.972863 
L 463.965911 76.188077 
L 464.572983 111.120878 
L 465.382412 160.004127 
L 465.787126 173.338848 
L 465.989483 176.322346 
L 466.19184 176.112924 
L 466.596555 168.233431 
L 467.405984 140.095503 
L 467.810698 137.419859 
L 468.013055 137.994515 
L 468.215413 142.32897 
L 468.620127 159.822751 
L 469.024841 189.271603 
L 469.429556 221.155051 
L 469.83427 239.93795 
L 470.238985 257.075101 
L 470.441342 256.342544 
L 470.643699 248.735147 
L 471.048413 228.121059 
L 471.453128 219.869592 
L 472.060199 205.947409 
L 472.869628 187.305775 
L 473.071985 186.369984 
L 473.274343 186.153698 
L 473.4767 185.735993 
L 473.881414 183.021477 
L 474.083772 183.344718 
L 474.286129 182.338256 
L 474.488486 177.909705 
L 474.690843 168.455437 
L 475.095558 133.72354 
L 475.702629 76.472818 
L 476.107344 60.775187 
L 476.309701 58.351363 
L 476.512058 58.663608 
L 476.916772 68.132873 
L 477.523844 94.900357 
L 478.940345 165.940792 
L 479.345059 175.018451 
L 479.547416 175.52436 
L 479.749773 174.94588 
L 480.356845 169.004939 
L 480.559202 169.391563 
L 480.761559 172.213723 
L 481.368631 187.717226 
L 482.17806 212.906727 
L 482.785131 228.406943 
L 483.189846 243.121184 
L 483.59456 250.654374 
L 483.796917 247.979514 
L 484.201632 233.992181 
L 484.606346 222.869732 
L 485.011061 217.79069 
L 485.415775 211.486045 
L 486.427561 188.143965 
L 486.832276 171.055951 
L 487.23699 140.744539 
L 488.046419 69.038744 
L 488.248776 61.745918 
L 488.451133 58.997035 
L 488.65349 59.798233 
L 489.058205 66.940278 
L 489.462919 80.064186 
L 490.069991 109.212794 
L 490.677063 138.777934 
L 491.081777 150.311319 
L 491.486491 156.94148 
L 491.688849 158.120181 
L 491.891206 158.544993 
L 492.498277 155.909396 
L 492.700635 156.855307 
L 493.105349 167.203423 
L 493.510063 181.929777 
L 493.914778 201.213174 
L 494.52185 217.247986 
L 494.926564 227.843833 
L 495.533636 245.850626 
L 495.735993 248.731283 
L 495.93835 248.058647 
L 496.140707 246.056627 
L 496.545422 230.615928 
L 496.747779 222.803774 
L 498.164279 210.229886 
L 498.366636 208.730544 
L 498.771351 207.737207 
L 498.973708 203.915823 
L 499.378422 190.701125 
L 499.783137 161.495521 
L 500.794923 64.452908 
L 500.99728 58.171493 
L 501.199637 55.8 
L 501.401995 55.85559 
L 501.604352 59.275603 
L 502.009066 73.408182 
L 502.616138 106.882686 
L 503.425567 148.244646 
L 503.830281 160.918345 
L 504.032638 164.714444 
L 504.234995 166.364588 
L 504.437353 166.137092 
L 504.63971 164.351342 
L 505.246782 153.8806 
L 505.449139 154.585232 
L 505.853853 160.671842 
L 506.460925 177.323503 
L 507.067996 208.795319 
L 508.28214 250.057739 
L 508.484497 251.126958 
L 508.686854 247.647222 
L 509.091568 233.292613 
L 509.293926 224.213025 
L 509.69864 219.943265 
L 510.912783 202.133592 
L 511.115141 201.362393 
L 511.519855 197.255695 
L 511.722212 194.254484 
L 512.126927 180.960046 
L 512.531641 152.092322 
L 513.34107 71.082983 
L 513.745784 57.379392 
L 513.948141 56.237145 
L 514.150499 57.764529 
L 514.352856 61.658784 
L 514.75757 76.226166 
L 516.578785 161.740525 
L 516.9835 167.963056 
L 517.185857 167.549898 
L 517.388214 166.143233 
L 517.792928 159.992011 
L 517.995286 159.878229 
L 518.197643 161.478571 
L 518.4 165.089678 
L 518.4 165.089678 
" clip-path="url(#p4ed7ea748a)" style="fill: none; stroke: #2ca02c; stroke-width: 1.5; stroke-linecap: square"/>
   </g>
   <g id="patch_3">
    <path d="M 72 320.4 
L 72 43.2 
" style="fill: none; stroke: #000000; stroke-width: 0.8; stroke-linejoin: miter; stroke-linecap: square"/>
   </g>
   <g id="patch_4">
    <path d="M 518.4 320.4 
L 518.4 43.2 
" style="fill: none; stroke: #000000; stroke-width: 0.8; stroke-linejoin: miter; stroke-linecap: square"/>
   </g>
   <g id="patch_5">
    <path d="M 72 320.4 
L 518.4 320.4 
" style="fill: none; stroke: #000000; stroke-width: 0.8; stroke-linejoin: miter; stroke-linecap: square"/>
   </g>
   <g id="patch_6">
    <path d="M 72 43.2 
L 518.4 43.2 
" style="fill: none; stroke: #000000; stroke-width: 0.8; stroke-linejoin: miter; stroke-linecap: square"/>
   </g>
   <g id="text_13">
    <!-- Classic Transformer - model_20231126182124 -->
    <g transform="translate(155.436563 37.2) scale(0.12 -0.12)">
     <defs>
      <path id="DejaVuSans-43" d="M 4122 4306 
L 4122 3641 
Q 3803 3938 3442 4084 
Q 3081 4231 2675 4231 
Q 1875 4231 1450 3742 
Q 1025 3253 1025 2328 
Q 1025 1406 1450 917 
Q 1875 428 2675 428 
Q 3081 428 3442 575 
Q 3803 722 4122 1019 
L 4122 359 
Q 3791 134 3420 21 
Q 3050 -91 2638 -91 
Q 1578 -91 968 557 
Q 359 1206 359 2328 
Q 359 3453 968 4101 
Q 1578 4750 2638 4750 
Q 3056 4750 3426 4639 
Q 3797 4528 4122 4306 
z
" transform="scale(0.015625)"/>
      <path id="DejaVuSans-6c" d="M 603 4863 
L 1178 4863 
L 1178 0 
L 603 0 
L 603 4863 
z
" transform="scale(0.015625)"/>
      <path id="DejaVuSans-61" d="M 2194 1759 
Q 1497 1759 1228 1600 
Q 959 1441 959 1056 
Q 959 750 1161 570 
Q 1363 391 1709 391 
Q 2188 391 2477 730 
Q 2766 1069 2766 1631 
L 2766 1759 
L 2194 1759 
z
M 3341 1997 
L 3341 0 
L 2766 0 
L 2766 531 
Q 2569 213 2275 61 
Q 1981 -91 1556 -91 
Q 1019 -91 701 211 
Q 384 513 384 1019 
Q 384 1609 779 1909 
Q 1175 2209 1959 2209 
L 2766 2209 
L 2766 2266 
Q 2766 2663 2505 2880 
Q 2244 3097 1772 3097 
Q 1472 3097 1187 3025 
Q 903 2953 641 2809 
L 641 3341 
Q 956 3463 1253 3523 
Q 1550 3584 1831 3584 
Q 2591 3584 2966 3190 
Q 3341 2797 3341 1997 
z
" transform="scale(0.015625)"/>
      <path id="DejaVuSans-73" d="M 2834 3397 
L 2834 2853 
Q 2591 2978 2328 3040 
Q 2066 3103 1784 3103 
Q 1356 3103 1142 2972 
Q 928 2841 928 2578 
Q 928 2378 1081 2264 
Q 1234 2150 1697 2047 
L 1894 2003 
Q 2506 1872 2764 1633 
Q 3022 1394 3022 966 
Q 3022 478 2636 193 
Q 2250 -91 1575 -91 
Q 1294 -91 989 -36 
Q 684 19 347 128 
L 347 722 
Q 666 556 975 473 
Q 1284 391 1588 391 
Q 1994 391 2212 530 
Q 2431 669 2431 922 
Q 2431 1156 2273 1281 
Q 2116 1406 1581 1522 
L 1381 1569 
Q 847 1681 609 1914 
Q 372 2147 372 2553 
Q 372 3047 722 3315 
Q 1072 3584 1716 3584 
Q 2034 3584 2315 3537 
Q 2597 3491 2834 3397 
z
" transform="scale(0.015625)"/>
      <path id="DejaVuSans-69" d="M 603 3500 
L 1178 3500 
L 1178 0 
L 603 0 
L 603 3500 
z
M 603 4863 
L 1178 4863 
L 1178 4134 
L 603 4134 
L 603 4863 
z
" transform="scale(0.015625)"/>
      <path id="DejaVuSans-63" d="M 3122 3366 
L 3122 2828 
Q 2878 2963 2633 3030 
Q 2388 3097 2138 3097 
Q 1578 3097 1268 2742 
Q 959 2388 959 1747 
Q 959 1106 1268 751 
Q 1578 397 2138 397 
Q 2388 397 2633 464 
Q 2878 531 3122 666 
L 3122 134 
Q 2881 22 2623 -34 
Q 2366 -91 2075 -91 
Q 1284 -91 818 406 
Q 353 903 353 1747 
Q 353 2603 823 3093 
Q 1294 3584 2113 3584 
Q 2378 3584 2631 3529 
Q 2884 3475 3122 3366 
z
" transform="scale(0.015625)"/>
      <path id="DejaVuSans-20" transform="scale(0.015625)"/>
      <path id="DejaVuSans-54" d="M -19 4666 
L 3928 4666 
L 3928 4134 
L 2272 4134 
L 2272 0 
L 1638 0 
L 1638 4134 
L -19 4134 
L -19 4666 
z
" transform="scale(0.015625)"/>
      <path id="DejaVuSans-72" d="M 2631 2963 
Q 2534 3019 2420 3045 
Q 2306 3072 2169 3072 
Q 1681 3072 1420 2755 
Q 1159 2438 1159 1844 
L 1159 0 
L 581 0 
L 581 3500 
L 1159 3500 
L 1159 2956 
Q 1341 3275 1631 3429 
Q 1922 3584 2338 3584 
Q 2397 3584 2469 3576 
Q 2541 3569 2628 3553 
L 2631 2963 
z
" transform="scale(0.015625)"/>
      <path id="DejaVuSans-6e" d="M 3513 2113 
L 3513 0 
L 2938 0 
L 2938 2094 
Q 2938 2591 2744 2837 
Q 2550 3084 2163 3084 
Q 1697 3084 1428 2787 
Q 1159 2491 1159 1978 
L 1159 0 
L 581 0 
L 581 3500 
L 1159 3500 
L 1159 2956 
Q 1366 3272 1645 3428 
Q 1925 3584 2291 3584 
Q 2894 3584 3203 3211 
Q 3513 2838 3513 2113 
z
" transform="scale(0.015625)"/>
      <path id="DejaVuSans-66" d="M 2375 4863 
L 2375 4384 
L 1825 4384 
Q 1516 4384 1395 4259 
Q 1275 4134 1275 3809 
L 1275 3500 
L 2222 3500 
L 2222 3053 
L 1275 3053 
L 1275 0 
L 697 0 
L 697 3053 
L 147 3053 
L 147 3500 
L 697 3500 
L 697 3744 
Q 697 4328 969 4595 
Q 1241 4863 1831 4863 
L 2375 4863 
z
" transform="scale(0.015625)"/>
      <path id="DejaVuSans-6f" d="M 1959 3097 
Q 1497 3097 1228 2736 
Q 959 2375 959 1747 
Q 959 1119 1226 758 
Q 1494 397 1959 397 
Q 2419 397 2687 759 
Q 2956 1122 2956 1747 
Q 2956 2369 2687 2733 
Q 2419 3097 1959 3097 
z
M 1959 3584 
Q 2709 3584 3137 3096 
Q 3566 2609 3566 1747 
Q 3566 888 3137 398 
Q 2709 -91 1959 -91 
Q 1206 -91 779 398 
Q 353 888 353 1747 
Q 353 2609 779 3096 
Q 1206 3584 1959 3584 
z
" transform="scale(0.015625)"/>
      <path id="DejaVuSans-6d" d="M 3328 2828 
Q 3544 3216 3844 3400 
Q 4144 3584 4550 3584 
Q 5097 3584 5394 3201 
Q 5691 2819 5691 2113 
L 5691 0 
L 5113 0 
L 5113 2094 
Q 5113 2597 4934 2840 
Q 4756 3084 4391 3084 
Q 3944 3084 3684 2787 
Q 3425 2491 3425 1978 
L 3425 0 
L 2847 0 
L 2847 2094 
Q 2847 2600 2669 2842 
Q 2491 3084 2119 3084 
Q 1678 3084 1418 2786 
Q 1159 2488 1159 1978 
L 1159 0 
L 581 0 
L 581 3500 
L 1159 3500 
L 1159 2956 
Q 1356 3278 1631 3431 
Q 1906 3584 2284 3584 
Q 2666 3584 2933 3390 
Q 3200 3197 3328 2828 
z
" transform="scale(0.015625)"/>
      <path id="DejaVuSans-65" d="M 3597 1894 
L 3597 1613 
L 953 1613 
Q 991 1019 1311 708 
Q 1631 397 2203 397 
Q 2534 397 2845 478 
Q 3156 559 3463 722 
L 3463 178 
Q 3153 47 2828 -22 
Q 2503 -91 2169 -91 
Q 1331 -91 842 396 
Q 353 884 353 1716 
Q 353 2575 817 3079 
Q 1281 3584 2069 3584 
Q 2775 3584 3186 3129 
Q 3597 2675 3597 1894 
z
M 3022 2063 
Q 3016 2534 2758 2815 
Q 2500 3097 2075 3097 
Q 1594 3097 1305 2825 
Q 1016 2553 972 2059 
L 3022 2063 
z
" transform="scale(0.015625)"/>
      <path id="DejaVuSans-64" d="M 2906 2969 
L 2906 4863 
L 3481 4863 
L 3481 0 
L 2906 0 
L 2906 525 
Q 2725 213 2448 61 
Q 2172 -91 1784 -91 
Q 1150 -91 751 415 
Q 353 922 353 1747 
Q 353 2572 751 3078 
Q 1150 3584 1784 3584 
Q 2172 3584 2448 3432 
Q 2725 3281 2906 2969 
z
M 947 1747 
Q 947 1113 1208 752 
Q 1469 391 1925 391 
Q 2381 391 2643 752 
Q 2906 1113 2906 1747 
Q 2906 2381 2643 2742 
Q 2381 3103 1925 3103 
Q 1469 3103 1208 2742 
Q 947 2381 947 1747 
z
" transform="scale(0.015625)"/>
      <path id="DejaVuSans-5f" d="M 3263 -1063 
L 3263 -1509 
L -63 -1509 
L -63 -1063 
L 3263 -1063 
z
" transform="scale(0.015625)"/>
      <path id="DejaVuSans-34" d="M 2419 4116 
L 825 1625 
L 2419 1625 
L 2419 4116 
z
M 2253 4666 
L 3047 4666 
L 3047 1625 
L 3713 1625 
L 3713 1100 
L 3047 1100 
L 3047 0 
L 2419 0 
L 2419 1100 
L 313 1100 
L 313 1709 
L 2253 4666 
z
" transform="scale(0.015625)"/>
     </defs>
     <use xlink:href="#DejaVuSans-43"/>
     <use xlink:href="#DejaVuSans-6c" x="69.824219"/>
     <use xlink:href="#DejaVuSans-61" x="97.607422"/>
     <use xlink:href="#DejaVuSans-73" x="158.886719"/>
     <use xlink:href="#DejaVuSans-73" x="210.986328"/>
     <use xlink:href="#DejaVuSans-69" x="263.085938"/>
     <use xlink:href="#DejaVuSans-63" x="290.869141"/>
     <use xlink:href="#DejaVuSans-20" x="345.849609"/>
     <use xlink:href="#DejaVuSans-54" x="377.636719"/>
     <use xlink:href="#DejaVuSans-72" x="423.970703"/>
     <use xlink:href="#DejaVuSans-61" x="465.083984"/>
     <use xlink:href="#DejaVuSans-6e" x="526.363281"/>
     <use xlink:href="#DejaVuSans-73" x="589.742188"/>
     <use xlink:href="#DejaVuSans-66" x="641.841797"/>
     <use xlink:href="#DejaVuSans-6f" x="677.046875"/>
     <use xlink:href="#DejaVuSans-72" x="738.228516"/>
     <use xlink:href="#DejaVuSans-6d" x="777.591797"/>
     <use xlink:href="#DejaVuSans-65" x="875.003906"/>
     <use xlink:href="#DejaVuSans-72" x="936.527344"/>
     <use xlink:href="#DejaVuSans-20" x="977.640625"/>
     <use xlink:href="#DejaVuSans-2d" x="1009.427734"/>
     <use xlink:href="#DejaVuSans-20" x="1045.511719"/>
     <use xlink:href="#DejaVuSans-6d" x="1077.298828"/>
     <use xlink:href="#DejaVuSans-6f" x="1174.710938"/>
     <use xlink:href="#DejaVuSans-64" x="1235.892578"/>
     <use xlink:href="#DejaVuSans-65" x="1299.369141"/>
     <use xlink:href="#DejaVuSans-6c" x="1360.892578"/>
     <use xlink:href="#DejaVuSans-5f" x="1388.675781"/>
     <use xlink:href="#DejaVuSans-32" x="1438.675781"/>
     <use xlink:href="#DejaVuSans-30" x="1502.298828"/>
     <use xlink:href="#DejaVuSans-32" x="1565.921875"/>
     <use xlink:href="#DejaVuSans-33" x="1629.544922"/>
     <use xlink:href="#DejaVuSans-31" x="1693.167969"/>
     <use xlink:href="#DejaVuSans-31" x="1756.791016"/>
     <use xlink:href="#DejaVuSans-32" x="1820.414062"/>
     <use xlink:href="#DejaVuSans-36" x="1884.037109"/>
     <use xlink:href="#DejaVuSans-31" x="1947.660156"/>
     <use xlink:href="#DejaVuSans-38" x="2011.283203"/>
     <use xlink:href="#DejaVuSans-32" x="2074.90625"/>
     <use xlink:href="#DejaVuSans-31" x="2138.529297"/>
     <use xlink:href="#DejaVuSans-32" x="2202.152344"/>
     <use xlink:href="#DejaVuSans-34" x="2265.775391"/>
    </g>
   </g>
   <g id="legend_1">
    <g id="patch_7">
     <path d="M 79 95.234375 
L 161.517188 95.234375 
Q 163.517188 95.234375 163.517188 93.234375 
L 163.517188 50.2 
Q 163.517188 48.2 161.517188 48.2 
L 79 48.2 
Q 77 48.2 77 50.2 
L 77 93.234375 
Q 77 95.234375 79 95.234375 
z
" style="fill: #ffffff; opacity: 0.8; stroke: #cccccc; stroke-linejoin: miter"/>
    </g>
    <g id="line2d_16">
     <path d="M 81 56.298437 
L 91 56.298437 
L 101 56.298437 
" style="fill: none; stroke: #1f77b4; stroke-width: 1.5; stroke-linecap: square"/>
    </g>
    <g id="text_14">
     <!-- Measured -->
     <g transform="translate(109 59.798437) scale(0.1 -0.1)">
      <defs>
       <path id="DejaVuSans-4d" d="M 628 4666 
L 1569 4666 
L 2759 1491 
L 3956 4666 
L 4897 4666 
L 4897 0 
L 4281 0 
L 4281 4097 
L 3078 897 
L 2444 897 
L 1241 4097 
L 1241 0 
L 628 0 
L 628 4666 
z
" transform="scale(0.015625)"/>
       <path id="DejaVuSans-75" d="M 544 1381 
L 544 3500 
L 1119 3500 
L 1119 1403 
Q 1119 906 1312 657 
Q 1506 409 1894 409 
Q 2359 409 2629 706 
Q 2900 1003 2900 1516 
L 2900 3500 
L 3475 3500 
L 3475 0 
L 2900 0 
L 2900 538 
Q 2691 219 2414 64 
Q 2138 -91 1772 -91 
Q 1169 -91 856 284 
Q 544 659 544 1381 
z
M 1991 3584 
L 1991 3584 
z
" transform="scale(0.015625)"/>
      </defs>
      <use xlink:href="#DejaVuSans-4d"/>
      <use xlink:href="#DejaVuSans-65" x="86.279297"/>
      <use xlink:href="#DejaVuSans-61" x="147.802734"/>
      <use xlink:href="#DejaVuSans-73" x="209.082031"/>
      <use xlink:href="#DejaVuSans-75" x="261.181641"/>
      <use xlink:href="#DejaVuSans-72" x="324.560547"/>
      <use xlink:href="#DejaVuSans-65" x="363.423828"/>
      <use xlink:href="#DejaVuSans-64" x="424.947266"/>
     </g>
    </g>
    <g id="line2d_17">
     <path d="M 81 70.976562 
L 91 70.976562 
L 101 70.976562 
" style="fill: none; stroke: #ff7f0e; stroke-width: 1.5; stroke-linecap: square"/>
    </g>
    <g id="text_15">
     <!-- Fitted -->
     <g transform="translate(109 74.476562) scale(0.1 -0.1)">
      <defs>
       <path id="DejaVuSans-46" d="M 628 4666 
L 3309 4666 
L 3309 4134 
L 1259 4134 
L 1259 2759 
L 3109 2759 
L 3109 2228 
L 1259 2228 
L 1259 0 
L 628 0 
L 628 4666 
z
" transform="scale(0.015625)"/>
       <path id="DejaVuSans-74" d="M 1172 4494 
L 1172 3500 
L 2356 3500 
L 2356 3053 
L 1172 3053 
L 1172 1153 
Q 1172 725 1289 603 
Q 1406 481 1766 481 
L 2356 481 
L 2356 0 
L 1766 0 
Q 1100 0 847 248 
Q 594 497 594 1153 
L 594 3053 
L 172 3053 
L 172 3500 
L 594 3500 
L 594 4494 
L 1172 4494 
z
" transform="scale(0.015625)"/>
      </defs>
      <use xlink:href="#DejaVuSans-46"/>
      <use xlink:href="#DejaVuSans-69" x="50.269531"/>
      <use xlink:href="#DejaVuSans-74" x="78.052734"/>
      <use xlink:href="#DejaVuSans-74" x="117.261719"/>
      <use xlink:href="#DejaVuSans-65" x="156.470703"/>
      <use xlink:href="#DejaVuSans-64" x="217.994141"/>
     </g>
    </g>
    <g id="line2d_18">
     <path d="M 81 85.654687 
L 91 85.654687 
L 101 85.654687 
" style="fill: none; stroke: #2ca02c; stroke-width: 1.5; stroke-linecap: square"/>
    </g>
    <g id="text_16">
     <!-- Estimated -->
     <g transform="translate(109 89.154687) scale(0.1 -0.1)">
      <defs>
       <path id="DejaVuSans-45" d="M 628 4666 
L 3578 4666 
L 3578 4134 
L 1259 4134 
L 1259 2753 
L 3481 2753 
L 3481 2222 
L 1259 2222 
L 1259 531 
L 3634 531 
L 3634 0 
L 628 0 
L 628 4666 
z
" transform="scale(0.015625)"/>
      </defs>
      <use xlink:href="#DejaVuSans-45"/>
      <use xlink:href="#DejaVuSans-73" x="63.183594"/>
      <use xlink:href="#DejaVuSans-74" x="115.283203"/>
      <use xlink:href="#DejaVuSans-69" x="154.492188"/>
      <use xlink:href="#DejaVuSans-6d" x="182.275391"/>
      <use xlink:href="#DejaVuSans-61" x="279.6875"/>
      <use xlink:href="#DejaVuSans-74" x="340.966797"/>
      <use xlink:href="#DejaVuSans-65" x="380.175781"/>
      <use xlink:href="#DejaVuSans-64" x="441.699219"/>
     </g>
    </g>
   </g>
  </g>
 </g>
 <defs>
  <clipPath id="p4ed7ea748a">
   <rect x="72" y="43.2" width="446.4" height="277.2"/>
  </clipPath>
 </defs>
</svg>
