<?xml version="1.0" encoding="utf-8" standalone="no"?>
<!DOCTYPE svg PUBLIC "-//W3C//DTD SVG 1.1//EN"
  "http://www.w3.org/Graphics/SVG/1.1/DTD/svg11.dtd">
<svg xmlns:xlink="http://www.w3.org/1999/xlink" width="576pt" height="360pt" viewBox="0 0 576 360" xmlns="http://www.w3.org/2000/svg" version="1.1">
 <metadata>
  <rdf:RDF xmlns:dc="http://purl.org/dc/elements/1.1/" xmlns:cc="http://creativecommons.org/ns#" xmlns:rdf="http://www.w3.org/1999/02/22-rdf-syntax-ns#">
   <cc:Work>
    <dc:type rdf:resource="http://purl.org/dc/dcmitype/StillImage"/>
    <dc:date>2023-11-23T17:08:03.530512</dc:date>
    <dc:format>image/svg+xml</dc:format>
    <dc:creator>
     <cc:Agent>
      <dc:title>Matplotlib v3.8.1, https://matplotlib.org/</dc:title>
     </cc:Agent>
    </dc:creator>
   </cc:Work>
  </rdf:RDF>
 </metadata>
 <defs>
  <style type="text/css">*{stroke-linejoin: round; stroke-linecap: butt}</style>
 </defs>
 <g id="figure_1">
  <g id="patch_1">
   <path d="M 0 360 
L 576 360 
L 576 0 
L 0 0 
z
" style="fill: #ffffff"/>
  </g>
  <g id="axes_1">
   <g id="patch_2">
    <path d="M 72 320.4 
L 518.4 320.4 
L 518.4 43.2 
L 72 43.2 
z
" style="fill: #ffffff"/>
   </g>
   <g id="matplotlib.axis_1">
    <g id="xtick_1">
     <g id="line2d_1">
      <defs>
       <path id="m64d363028d" d="M 0 0 
L 0 3.5 
" style="stroke: #000000; stroke-width: 0.8"/>
      </defs>
      <g>
       <use xlink:href="#m64d363028d" x="129.874161" y="320.4" style="stroke: #000000; stroke-width: 0.8"/>
      </g>
     </g>
     <g id="text_1">
      <!-- 2020-05-15 -->
      <g transform="translate(100.816349 334.998438) scale(0.1 -0.1)">
       <defs>
        <path id="DejaVuSans-32" d="M 1228 531 
L 3431 531 
L 3431 0 
L 469 0 
L 469 531 
Q 828 903 1448 1529 
Q 2069 2156 2228 2338 
Q 2531 2678 2651 2914 
Q 2772 3150 2772 3378 
Q 2772 3750 2511 3984 
Q 2250 4219 1831 4219 
Q 1534 4219 1204 4116 
Q 875 4013 500 3803 
L 500 4441 
Q 881 4594 1212 4672 
Q 1544 4750 1819 4750 
Q 2544 4750 2975 4387 
Q 3406 4025 3406 3419 
Q 3406 3131 3298 2873 
Q 3191 2616 2906 2266 
Q 2828 2175 2409 1742 
Q 1991 1309 1228 531 
z
" transform="scale(0.015625)"/>
        <path id="DejaVuSans-30" d="M 2034 4250 
Q 1547 4250 1301 3770 
Q 1056 3291 1056 2328 
Q 1056 1369 1301 889 
Q 1547 409 2034 409 
Q 2525 409 2770 889 
Q 3016 1369 3016 2328 
Q 3016 3291 2770 3770 
Q 2525 4250 2034 4250 
z
M 2034 4750 
Q 2819 4750 3233 4129 
Q 3647 3509 3647 2328 
Q 3647 1150 3233 529 
Q 2819 -91 2034 -91 
Q 1250 -91 836 529 
Q 422 1150 422 2328 
Q 422 3509 836 4129 
Q 1250 4750 2034 4750 
z
" transform="scale(0.015625)"/>
        <path id="DejaVuSans-2d" d="M 313 2009 
L 1997 2009 
L 1997 1497 
L 313 1497 
L 313 2009 
z
" transform="scale(0.015625)"/>
        <path id="DejaVuSans-35" d="M 691 4666 
L 3169 4666 
L 3169 4134 
L 1269 4134 
L 1269 2991 
Q 1406 3038 1543 3061 
Q 1681 3084 1819 3084 
Q 2600 3084 3056 2656 
Q 3513 2228 3513 1497 
Q 3513 744 3044 326 
Q 2575 -91 1722 -91 
Q 1428 -91 1123 -41 
Q 819 9 494 109 
L 494 744 
Q 775 591 1075 516 
Q 1375 441 1709 441 
Q 2250 441 2565 725 
Q 2881 1009 2881 1497 
Q 2881 1984 2565 2268 
Q 2250 2553 1709 2553 
Q 1456 2553 1204 2497 
Q 953 2441 691 2322 
L 691 4666 
z
" transform="scale(0.015625)"/>
        <path id="DejaVuSans-31" d="M 794 531 
L 1825 531 
L 1825 4091 
L 703 3866 
L 703 4441 
L 1819 4666 
L 2450 4666 
L 2450 531 
L 3481 531 
L 3481 0 
L 794 0 
L 794 531 
z
" transform="scale(0.015625)"/>
       </defs>
       <use xlink:href="#DejaVuSans-32"/>
       <use xlink:href="#DejaVuSans-30" x="63.623047"/>
       <use xlink:href="#DejaVuSans-32" x="127.246094"/>
       <use xlink:href="#DejaVuSans-30" x="190.869141"/>
       <use xlink:href="#DejaVuSans-2d" x="254.492188"/>
       <use xlink:href="#DejaVuSans-30" x="290.576172"/>
       <use xlink:href="#DejaVuSans-35" x="354.199219"/>
       <use xlink:href="#DejaVuSans-2d" x="417.822266"/>
       <use xlink:href="#DejaVuSans-31" x="453.90625"/>
       <use xlink:href="#DejaVuSans-35" x="517.529297"/>
      </g>
     </g>
    </g>
    <g id="xtick_2">
     <g id="line2d_2">
      <g>
       <use xlink:href="#m64d363028d" x="212.435902" y="320.4" style="stroke: #000000; stroke-width: 0.8"/>
      </g>
     </g>
     <g id="text_2">
      <!-- 2020-06-01 -->
      <g transform="translate(183.37809 334.998438) scale(0.1 -0.1)">
       <defs>
        <path id="DejaVuSans-36" d="M 2113 2584 
Q 1688 2584 1439 2293 
Q 1191 2003 1191 1497 
Q 1191 994 1439 701 
Q 1688 409 2113 409 
Q 2538 409 2786 701 
Q 3034 994 3034 1497 
Q 3034 2003 2786 2293 
Q 2538 2584 2113 2584 
z
M 3366 4563 
L 3366 3988 
Q 3128 4100 2886 4159 
Q 2644 4219 2406 4219 
Q 1781 4219 1451 3797 
Q 1122 3375 1075 2522 
Q 1259 2794 1537 2939 
Q 1816 3084 2150 3084 
Q 2853 3084 3261 2657 
Q 3669 2231 3669 1497 
Q 3669 778 3244 343 
Q 2819 -91 2113 -91 
Q 1303 -91 875 529 
Q 447 1150 447 2328 
Q 447 3434 972 4092 
Q 1497 4750 2381 4750 
Q 2619 4750 2861 4703 
Q 3103 4656 3366 4563 
z
" transform="scale(0.015625)"/>
       </defs>
       <use xlink:href="#DejaVuSans-32"/>
       <use xlink:href="#DejaVuSans-30" x="63.623047"/>
       <use xlink:href="#DejaVuSans-32" x="127.246094"/>
       <use xlink:href="#DejaVuSans-30" x="190.869141"/>
       <use xlink:href="#DejaVuSans-2d" x="254.492188"/>
       <use xlink:href="#DejaVuSans-30" x="290.576172"/>
       <use xlink:href="#DejaVuSans-36" x="354.199219"/>
       <use xlink:href="#DejaVuSans-2d" x="417.822266"/>
       <use xlink:href="#DejaVuSans-30" x="453.90625"/>
       <use xlink:href="#DejaVuSans-31" x="517.529297"/>
      </g>
     </g>
    </g>
    <g id="xtick_3">
     <g id="line2d_3">
      <g>
       <use xlink:href="#m64d363028d" x="280.427924" y="320.4" style="stroke: #000000; stroke-width: 0.8"/>
      </g>
     </g>
     <g id="text_3">
      <!-- 2020-06-15 -->
      <g transform="translate(251.370111 334.998438) scale(0.1 -0.1)">
       <use xlink:href="#DejaVuSans-32"/>
       <use xlink:href="#DejaVuSans-30" x="63.623047"/>
       <use xlink:href="#DejaVuSans-32" x="127.246094"/>
       <use xlink:href="#DejaVuSans-30" x="190.869141"/>
       <use xlink:href="#DejaVuSans-2d" x="254.492188"/>
       <use xlink:href="#DejaVuSans-30" x="290.576172"/>
       <use xlink:href="#DejaVuSans-36" x="354.199219"/>
       <use xlink:href="#DejaVuSans-2d" x="417.822266"/>
       <use xlink:href="#DejaVuSans-31" x="453.90625"/>
       <use xlink:href="#DejaVuSans-35" x="517.529297"/>
      </g>
     </g>
    </g>
    <g id="xtick_4">
     <g id="line2d_4">
      <g>
       <use xlink:href="#m64d363028d" x="358.133092" y="320.4" style="stroke: #000000; stroke-width: 0.8"/>
      </g>
     </g>
     <g id="text_4">
      <!-- 2020-07-01 -->
      <g transform="translate(329.075279 334.998438) scale(0.1 -0.1)">
       <defs>
        <path id="DejaVuSans-37" d="M 525 4666 
L 3525 4666 
L 3525 4397 
L 1831 0 
L 1172 0 
L 2766 4134 
L 525 4134 
L 525 4666 
z
" transform="scale(0.015625)"/>
       </defs>
       <use xlink:href="#DejaVuSans-32"/>
       <use xlink:href="#DejaVuSans-30" x="63.623047"/>
       <use xlink:href="#DejaVuSans-32" x="127.246094"/>
       <use xlink:href="#DejaVuSans-30" x="190.869141"/>
       <use xlink:href="#DejaVuSans-2d" x="254.492188"/>
       <use xlink:href="#DejaVuSans-30" x="290.576172"/>
       <use xlink:href="#DejaVuSans-37" x="354.199219"/>
       <use xlink:href="#DejaVuSans-2d" x="417.822266"/>
       <use xlink:href="#DejaVuSans-30" x="453.90625"/>
       <use xlink:href="#DejaVuSans-31" x="517.529297"/>
      </g>
     </g>
    </g>
    <g id="xtick_5">
     <g id="line2d_5">
      <g>
       <use xlink:href="#m64d363028d" x="426.125113" y="320.4" style="stroke: #000000; stroke-width: 0.8"/>
      </g>
     </g>
     <g id="text_5">
      <!-- 2020-07-15 -->
      <g transform="translate(397.067301 334.998438) scale(0.1 -0.1)">
       <use xlink:href="#DejaVuSans-32"/>
       <use xlink:href="#DejaVuSans-30" x="63.623047"/>
       <use xlink:href="#DejaVuSans-32" x="127.246094"/>
       <use xlink:href="#DejaVuSans-30" x="190.869141"/>
       <use xlink:href="#DejaVuSans-2d" x="254.492188"/>
       <use xlink:href="#DejaVuSans-30" x="290.576172"/>
       <use xlink:href="#DejaVuSans-37" x="354.199219"/>
       <use xlink:href="#DejaVuSans-2d" x="417.822266"/>
       <use xlink:href="#DejaVuSans-31" x="453.90625"/>
       <use xlink:href="#DejaVuSans-35" x="517.529297"/>
      </g>
     </g>
    </g>
    <g id="xtick_6">
     <g id="line2d_6">
      <g>
       <use xlink:href="#m64d363028d" x="508.686854" y="320.4" style="stroke: #000000; stroke-width: 0.8"/>
      </g>
     </g>
     <g id="text_6">
      <!-- 2020-08-01 -->
      <g transform="translate(479.629042 334.998438) scale(0.1 -0.1)">
       <defs>
        <path id="DejaVuSans-38" d="M 2034 2216 
Q 1584 2216 1326 1975 
Q 1069 1734 1069 1313 
Q 1069 891 1326 650 
Q 1584 409 2034 409 
Q 2484 409 2743 651 
Q 3003 894 3003 1313 
Q 3003 1734 2745 1975 
Q 2488 2216 2034 2216 
z
M 1403 2484 
Q 997 2584 770 2862 
Q 544 3141 544 3541 
Q 544 4100 942 4425 
Q 1341 4750 2034 4750 
Q 2731 4750 3128 4425 
Q 3525 4100 3525 3541 
Q 3525 3141 3298 2862 
Q 3072 2584 2669 2484 
Q 3125 2378 3379 2068 
Q 3634 1759 3634 1313 
Q 3634 634 3220 271 
Q 2806 -91 2034 -91 
Q 1263 -91 848 271 
Q 434 634 434 1313 
Q 434 1759 690 2068 
Q 947 2378 1403 2484 
z
M 1172 3481 
Q 1172 3119 1398 2916 
Q 1625 2713 2034 2713 
Q 2441 2713 2670 2916 
Q 2900 3119 2900 3481 
Q 2900 3844 2670 4047 
Q 2441 4250 2034 4250 
Q 1625 4250 1398 4047 
Q 1172 3844 1172 3481 
z
" transform="scale(0.015625)"/>
       </defs>
       <use xlink:href="#DejaVuSans-32"/>
       <use xlink:href="#DejaVuSans-30" x="63.623047"/>
       <use xlink:href="#DejaVuSans-32" x="127.246094"/>
       <use xlink:href="#DejaVuSans-30" x="190.869141"/>
       <use xlink:href="#DejaVuSans-2d" x="254.492188"/>
       <use xlink:href="#DejaVuSans-30" x="290.576172"/>
       <use xlink:href="#DejaVuSans-38" x="354.199219"/>
       <use xlink:href="#DejaVuSans-2d" x="417.822266"/>
       <use xlink:href="#DejaVuSans-30" x="453.90625"/>
       <use xlink:href="#DejaVuSans-31" x="517.529297"/>
      </g>
     </g>
    </g>
   </g>
   <g id="matplotlib.axis_2">
    <g id="ytick_1">
     <g id="line2d_7">
      <defs>
       <path id="me91d84bd78" d="M 0 0 
L -3.5 0 
" style="stroke: #000000; stroke-width: 0.8"/>
      </defs>
      <g>
       <use xlink:href="#me91d84bd78" x="72" y="315.760588" style="stroke: #000000; stroke-width: 0.8"/>
      </g>
     </g>
     <g id="text_7">
      <!-- −2 -->
      <g transform="translate(50.257812 319.559807) scale(0.1 -0.1)">
       <defs>
        <path id="DejaVuSans-2212" d="M 678 2272 
L 4684 2272 
L 4684 1741 
L 678 1741 
L 678 2272 
z
" transform="scale(0.015625)"/>
       </defs>
       <use xlink:href="#DejaVuSans-2212"/>
       <use xlink:href="#DejaVuSans-32" x="83.789062"/>
      </g>
     </g>
    </g>
    <g id="ytick_2">
     <g id="line2d_8">
      <g>
       <use xlink:href="#me91d84bd78" x="72" y="263.72447" style="stroke: #000000; stroke-width: 0.8"/>
      </g>
     </g>
     <g id="text_8">
      <!-- −1 -->
      <g transform="translate(50.257812 267.523689) scale(0.1 -0.1)">
       <use xlink:href="#DejaVuSans-2212"/>
       <use xlink:href="#DejaVuSans-31" x="83.789062"/>
      </g>
     </g>
    </g>
    <g id="ytick_3">
     <g id="line2d_9">
      <g>
       <use xlink:href="#me91d84bd78" x="72" y="211.688352" style="stroke: #000000; stroke-width: 0.8"/>
      </g>
     </g>
     <g id="text_9">
      <!-- 0 -->
      <g transform="translate(58.6375 215.487571) scale(0.1 -0.1)">
       <use xlink:href="#DejaVuSans-30"/>
      </g>
     </g>
    </g>
    <g id="ytick_4">
     <g id="line2d_10">
      <g>
       <use xlink:href="#me91d84bd78" x="72" y="159.652234" style="stroke: #000000; stroke-width: 0.8"/>
      </g>
     </g>
     <g id="text_10">
      <!-- 1 -->
      <g transform="translate(58.6375 163.451453) scale(0.1 -0.1)">
       <use xlink:href="#DejaVuSans-31"/>
      </g>
     </g>
    </g>
    <g id="ytick_5">
     <g id="line2d_11">
      <g>
       <use xlink:href="#me91d84bd78" x="72" y="107.616116" style="stroke: #000000; stroke-width: 0.8"/>
      </g>
     </g>
     <g id="text_11">
      <!-- 2 -->
      <g transform="translate(58.6375 111.415335) scale(0.1 -0.1)">
       <use xlink:href="#DejaVuSans-32"/>
      </g>
     </g>
    </g>
    <g id="ytick_6">
     <g id="line2d_12">
      <g>
       <use xlink:href="#me91d84bd78" x="72" y="55.579998" style="stroke: #000000; stroke-width: 0.8"/>
      </g>
     </g>
     <g id="text_12">
      <!-- 3 -->
      <g transform="translate(58.6375 59.379216) scale(0.1 -0.1)">
       <defs>
        <path id="DejaVuSans-33" d="M 2597 2516 
Q 3050 2419 3304 2112 
Q 3559 1806 3559 1356 
Q 3559 666 3084 287 
Q 2609 -91 1734 -91 
Q 1441 -91 1130 -33 
Q 819 25 488 141 
L 488 750 
Q 750 597 1062 519 
Q 1375 441 1716 441 
Q 2309 441 2620 675 
Q 2931 909 2931 1356 
Q 2931 1769 2642 2001 
Q 2353 2234 1838 2234 
L 1294 2234 
L 1294 2753 
L 1863 2753 
Q 2328 2753 2575 2939 
Q 2822 3125 2822 3475 
Q 2822 3834 2567 4026 
Q 2313 4219 1838 4219 
Q 1578 4219 1281 4162 
Q 984 4106 628 3988 
L 628 4550 
Q 988 4650 1302 4700 
Q 1616 4750 1894 4750 
Q 2613 4750 3031 4423 
Q 3450 4097 3450 3541 
Q 3450 3153 3228 2886 
Q 3006 2619 2597 2516 
z
" transform="scale(0.015625)"/>
       </defs>
       <use xlink:href="#DejaVuSans-33"/>
      </g>
     </g>
    </g>
   </g>
   <g id="line2d_13">
    <path d="M 72 287.684848 
L 72.404714 298.712444 
L 72.607072 297.037883 
L 72.809429 286.663774 
L 73.214143 256.603363 
L 73.618858 244.513851 
L 75.035358 163.849026 
L 75.237715 160.969598 
L 75.440073 165.891174 
L 75.64243 173.87597 
L 75.844787 177.082142 
L 76.047144 191.908132 
L 76.654216 260.238386 
L 77.05893 283.641396 
L 77.261287 287.889062 
L 77.463645 287.521476 
L 77.666002 277.106524 
L 78.070716 249.394583 
L 78.475431 237.264227 
L 78.677788 228.380886 
L 79.487217 172.957004 
L 79.891931 157.130361 
L 80.094288 159.029558 
L 80.903717 200.280937 
L 81.713146 273.553187 
L 82.11786 287.807376 
L 82.320218 289.788259 
L 82.522575 289.502359 
L 82.724932 287.051782 
L 82.927289 280.414803 
L 83.332004 258.053288 
L 83.736718 244.125842 
L 83.939075 241.164729 
L 84.141432 241.430208 
L 84.546147 247.658758 
L 84.748504 249.700905 
L 84.950861 249.721327 
L 85.355576 253.805621 
L 85.557933 250.558607 
L 85.76029 256.521678 
L 86.569719 300.264476 
L 86.772076 306.186704 
L 86.974433 307.738736 
L 87.176791 307.8 
L 87.379148 306.493026 
L 87.581505 302.858003 
L 87.783862 296.282288 
L 88.188577 274.819319 
L 88.390934 269.775214 
L 89.200363 261.912947 
L 89.40272 257.889916 
L 89.807434 243.492777 
L 90.212149 241.103464 
L 90.414506 238.469094 
L 90.616863 246.208833 
L 91.223935 295.445008 
L 91.628649 306.186704 
L 91.831006 306.247968 
L 92.033364 303.817812 
L 92.842792 258.890569 
L 93.04515 256.807578 
L 93.449864 248.434774 
L 93.652221 247.924237 
L 93.854578 245.06523 
L 94.056936 244.452586 
L 94.259293 241.899902 
L 94.46165 235.671352 
L 94.664007 232.894032 
L 94.866364 233.792576 
L 95.068722 236.855798 
L 95.271079 233.118668 
L 95.473436 242.961818 
L 96.080508 295.812594 
L 96.485222 304.777622 
L 96.687579 306.635976 
L 96.889937 302.408731 
L 97.699365 258.175817 
L 98.306437 247.944658 
L 98.508794 247.577072 
L 99.52058 226.910539 
L 99.722937 228.135828 
L 99.925295 232.383495 
L 100.127652 230.606826 
L 100.330009 240.49082 
L 100.937081 293.40286 
L 101.341795 305.349423 
L 101.544152 306.309232 
L 101.74651 302.694631 
L 101.948867 291.054391 
L 102.353581 261.810839 
L 102.555938 260.29965 
L 103.567724 242.98224 
L 104.377153 221.458006 
L 104.57951 222.703716 
L 104.781868 227.952035 
L 104.984225 227.931613 
L 105.186582 236.590318 
L 105.793654 290.339639 
L 106.198368 302.755896 
L 106.400725 304.4713 
L 106.603083 300.550377 
L 107.412511 255.827347 
L 107.614869 254.152786 
L 107.817226 250.579028 
L 108.22194 236.426947 
L 108.626655 215.29072 
L 108.829012 209.511443 
L 109.031369 207.673511 
L 109.638441 216.128001 
L 109.840798 221.417163 
L 110.043155 231.546214 
L 110.650227 285.152585 
L 111.054941 299.039187 
L 111.257298 300.897542 
L 111.459655 299.202559 
L 111.662013 288.093277 
L 112.066727 259.60532 
L 112.471442 245.003966 
L 113.887942 178.389116 
L 114.090299 176.081489 
L 114.292656 182.718469 
L 114.495014 193.848172 
L 114.697371 198.320475 
L 115.102085 231.444107 
L 115.709157 279.516258 
L 116.113871 293.096538 
L 116.316228 293.25991 
L 116.518586 291.646614 
L 116.720943 288.113699 
L 117.125657 261.586203 
L 118.542158 159.662624 
L 118.744515 149.819473 
L 118.946872 146.0415 
L 119.149229 149.615258 
L 119.756301 186.496441 
L 120.56573 263.771301 
L 120.970444 283.069594 
L 121.172801 287.051782 
L 121.375159 288.644657 
L 121.577516 287.235575 
L 121.779873 279.516258 
L 122.589302 229.851232 
L 123.196374 205.059562 
L 123.398731 200.60768 
L 123.601088 200.811895 
L 123.803445 200.260515 
L 124.410517 213.309837 
L 124.612874 223.990269 
L 125.219946 278.801506 
L 125.62466 292.953588 
L 125.827017 294.893628 
L 126.029374 292.42263 
L 127.04116 237.509285 
L 127.648232 201.077374 
L 128.255304 159.805574 
L 128.457661 152.453843 
L 128.660018 152.1271 
L 129.26709 195.298097 
L 130.278876 283.763925 
L 130.481233 291.381134 
L 130.68359 292.728952 
L 130.885947 290.21711 
L 132.504805 184.147972 
L 133.111877 142.590271 
L 133.314234 133.421029 
L 133.516591 135.075169 
L 133.921306 150.044109 
L 134.123663 157.273311 
L 135.135449 264.281838 
L 135.540163 276.575565 
L 135.74252 275.656599 
L 135.944878 265.343755 
L 136.349592 234.752386 
L 136.551949 228.156249 
L 136.754306 216.597695 
L 136.956664 221.049576 
L 137.159021 210.042402 
L 137.766092 201.444961 
L 137.96845 201.832969 
L 138.373164 196.564228 
L 138.777879 203.915959 
L 138.980236 204.732818 
L 139.182593 216.230108 
L 139.789665 271.388511 
L 140.194379 286.357452 
L 140.396736 288.379178 
L 140.599093 285.438485 
L 141.003808 256.011141 
L 141.408522 235.385451 
L 142.015594 222.336129 
L 142.622665 213.432366 
L 142.825023 213.166887 
L 143.02738 211.982442 
L 143.229737 212.65635 
L 143.634451 217.802562 
L 143.836809 216.597695 
L 144.039166 226.522531 
L 144.646238 274.594682 
L 145.050952 286.377873 
L 145.253309 287.644005 
L 145.455666 284.580783 
L 145.860381 255.684397 
L 146.062738 239.65354 
L 146.66981 223.602261 
L 146.872167 220.988312 
L 147.074524 219.926395 
L 147.479238 209.103014 
L 147.681596 217.353289 
L 147.883953 218.313099 
L 148.08631 220.865783 
L 148.491024 229.953339 
L 148.693382 228.625943 
L 149.098096 251.681788 
L 149.502811 279.148671 
L 149.907525 291.952936 
L 150.109882 293.974662 
L 150.312239 293.40286 
L 150.514597 290.62554 
L 150.716954 285.009634 
L 151.121668 264.465631 
L 151.526383 244.289214 
L 151.931097 238.571201 
L 152.133454 238.14235 
L 152.335811 240.082391 
L 152.538169 240.592927 
L 152.740526 238.571201 
L 152.942883 238.857102 
L 153.14524 237.897293 
L 153.347597 237.938136 
L 153.549955 235.058708 
L 153.752312 237.223384 
L 154.764098 287.909484 
L 154.966455 291.809985 
L 155.168812 293.178224 
L 155.573527 289.298144 
L 155.775884 278.393077 
L 156.78767 201.628754 
L 157.799456 159.642202 
L 158.001813 161.623086 
L 158.406528 174.631565 
L 158.608885 187.987209 
L 159.215956 255.602711 
L 159.620671 276.881888 
L 159.823028 280.047216 
L 160.025385 279.148671 
L 160.227743 269.489314 
L 160.632457 237.509285 
L 161.8466 187.946366 
L 162.251315 178.041951 
L 162.453672 178.184901 
L 162.656029 181.003065 
L 163.465458 212.350028 
L 164.072529 271.327247 
L 164.477244 289.665731 
L 164.679601 289.992474 
L 164.881958 286.806724 
L 165.084316 276.800202 
L 165.48903 245.494081 
L 166.500816 210.920525 
L 167.310245 168.627651 
L 167.512602 171.93593 
L 167.917316 192.214454 
L 168.119674 196.605071 
L 168.322031 207.796039 
L 168.929102 266.344407 
L 169.333817 281.313348 
L 169.536174 284.784998 
L 169.738531 281.170397 
L 170.143246 254.275315 
L 170.54796 224.398698 
L 171.357389 180.472106 
L 171.559746 174.529457 
L 172.166818 150.677175 
L 172.369175 152.27005 
L 172.571532 160.071053 
L 173.178604 198.483847 
L 173.785675 268.549926 
L 174.19039 287.664426 
L 174.392747 290.605118 
L 174.595104 288.808029 
L 174.999819 264.955746 
L 175.404533 240.307027 
L 177.023391 163.175118 
L 177.225748 163.685654 
L 177.428105 167.545313 
L 177.630462 183.902914 
L 177.83282 186.312648 
L 178.237534 229.810389 
L 178.642248 272.123684 
L 179.046963 291.054391 
L 179.24932 294.730256 
L 179.451677 292.238836 
L 179.654034 283.661817 
L 180.261106 244.350479 
L 181.879964 148.696292 
L 182.082321 145.469699 
L 182.284678 151.065183 
L 183.094107 206.652437 
L 183.498821 245.146916 
L 183.903536 266.323985 
L 184.30825 274.063724 
L 184.510607 275.411541 
L 184.712965 271.817362 
L 184.915322 258.604668 
L 185.724751 177.633522 
L 186.129465 156.517717 
L 186.331822 150.534225 
L 186.53418 149.77863 
L 186.736537 152.290472 
L 187.748323 192.234876 
L 188.557752 255.643554 
L 188.962466 269.652686 
L 189.164823 271.674412 
L 189.36718 271.756098 
L 189.569538 271.020924 
L 189.771895 260.360915 
L 190.986038 165.503166 
L 191.188395 160.254847 
L 191.390752 160.214004 
L 191.795467 169.260717 
L 192.604896 200.219672 
L 193.414325 262.852335 
L 193.819039 276.412194 
L 194.021396 277.47411 
L 194.426111 273.553187 
L 194.628468 264.690267 
L 195.437897 204.426496 
L 195.640254 199.464078 
L 195.842611 200.668945 
L 196.247325 206.672858 
L 196.449683 207.24466 
L 196.65204 206.856652 
L 197.056754 214.984398 
L 197.259112 215.821679 
L 197.461469 224.15364 
L 198.06854 272.021577 
L 198.473255 286.071551 
L 198.675612 286.173659 
L 198.877969 282.559058 
L 199.282684 252.069796 
L 199.687398 229.463224 
L 201.306256 163.685654 
L 201.508613 162.542052 
L 202.115684 181.554445 
L 202.318042 192.602462 
L 202.925113 256.072405 
L 203.329828 273.553187 
L 203.532185 275.636178 
L 203.734542 272.675064 
L 203.936899 261.25946 
L 204.341614 227.584448 
L 205.758114 173.426698 
L 205.960471 170.955699 
L 206.162829 171.09865 
L 206.365186 172.507731 
L 206.7699 184.250079 
L 206.972257 187.415408 
L 207.174615 198.157103 
L 207.781686 256.664628 
L 208.186401 272.675064 
L 208.388758 275.697442 
L 208.591115 272.389163 
L 208.793472 260.626394 
L 209.198187 227.135176 
L 209.805258 205.059562 
L 210.209973 185.352839 
L 210.817044 144.040196 
L 211.019402 135.626548 
L 211.221759 138.567241 
L 211.626473 162.827952 
L 211.82883 167.994586 
L 212.031188 182.59594 
L 212.638259 247.066535 
L 213.042974 265.486705 
L 213.245331 269.448471 
L 213.447688 267.753488 
L 213.650045 257.134322 
L 214.257117 214.249225 
L 214.661831 188.130159 
L 215.47126 129.295891 
L 215.875975 112.713654 
L 216.078332 112.24396 
L 216.280689 117.737337 
L 217.090118 180.962222 
L 217.697189 242.349174 
L 218.101904 260.646815 
L 218.304261 263.975516 
L 218.506618 265.323333 
L 218.708976 264.077623 
L 218.911333 251.457152 
L 219.518404 197.13603 
L 220.125476 162.23573 
L 220.327833 160.091475 
L 220.53019 162.296994 
L 221.541976 204.242703 
L 221.744334 209.348071 
L 222.553762 265.752184 
L 222.958477 276.534723 
L 223.160834 278.229705 
L 223.363191 278.57687 
L 223.565549 277.024838 
L 223.767906 268.386554 
L 224.374977 230.504719 
L 224.779692 222.989616 
L 225.386763 225.031764 
L 225.589121 228.523836 
L 225.791478 229.401959 
L 226.196192 237.7135 
L 226.398549 237.366334 
L 226.600907 243.737834 
L 227.410335 296.894933 
L 227.612693 300.897542 
L 227.81505 302.572103 
L 228.017407 299.406774 
L 228.826836 257.175165 
L 229.029193 254.867538 
L 229.23155 249.169947 
L 230.648051 186.292227 
L 230.850408 186.864028 
L 231.255122 201.15906 
L 231.45748 211.96202 
L 232.064551 275.105219 
L 232.469266 292.136729 
L 232.671623 294.832364 
L 232.87398 293.627497 
L 233.278694 268.549926 
L 233.683409 246.208833 
L 235.302267 182.167089 
L 235.504624 181.574866 
L 236.111695 200.525994 
L 236.314053 210.797996 
L 236.921124 272.409585 
L 237.325839 288.154542 
L 237.528196 291.258606 
L 237.730553 289.155194 
L 238.135267 265.405019 
L 238.539982 243.799099 
L 239.349411 213.126044 
L 239.754125 203.201208 
L 240.15884 193.072156 
L 240.361197 192.827099 
L 240.563554 198.238789 
L 240.968268 215.69915 
L 241.170626 223.214253 
L 241.777697 278.290969 
L 242.182412 294.015505 
L 242.384769 296.486503 
L 242.587126 293.525389 
L 242.99184 269.01962 
L 243.396555 251.212094 
L 245.21777 177.184249 
L 245.420127 181.391073 
L 246.027199 207.959411 
L 246.836627 280.823232 
L 247.038985 289.114351 
L 247.241342 292.259258 
L 247.443699 289.747417 
L 247.848413 266.38525 
L 249.467271 155.333271 
L 249.669628 147.328053 
L 249.871985 145.408435 
L 250.074343 145.571807 
L 250.2767 152.453843 
L 250.883772 184.290922 
L 251.6932 258.625089 
L 252.097915 273.022229 
L 252.300272 276.065029 
L 252.502629 276.330508 
L 252.704986 272.491271 
L 253.109701 240.021126 
L 253.91913 167.443206 
L 254.323844 151.779935 
L 254.728558 143.039544 
L 254.930916 141.793834 
L 255.133273 149.22725 
L 255.740345 186.373913 
L 256.549773 260.932716 
L 256.954488 276.269243 
L 257.156845 280.047216 
L 257.359202 281.701356 
L 257.561559 280.741546 
L 257.966274 252.110639 
L 258.573345 202.159712 
L 258.97806 180.676321 
L 259.382774 169.750832 
L 259.585131 166.340446 
L 259.787489 165.911595 
L 259.989846 168.505122 
L 260.39456 184.352187 
L 260.596917 197.585302 
L 261.203989 259.033519 
L 261.608704 277.576218 
L 261.811061 280.476067 
L 262.013418 279.700051 
L 262.418132 255.949876 
L 262.62049 244.044157 
L 263.025204 234.466485 
L 263.227561 231.689165 
L 263.429918 230.688512 
L 263.834633 231.954644 
L 264.03699 231.648322 
L 264.239347 232.587709 
L 264.441704 232.669395 
L 264.644062 232.403916 
L 264.846419 234.425642 
L 265.048776 238.428251 
L 265.251133 238.428251 
L 265.45349 242.410439 
L 266.060562 284.499098 
L 266.465277 297.221676 
L 266.667634 298.753287 
L 266.869991 294.607727 
L 267.072348 286.725038 
L 267.477063 260.463022 
L 268.084134 238.489516 
L 268.488849 228.2992 
L 269.09592 217.149075 
L 269.500635 213.228152 
L 269.702992 215.392828 
L 269.905349 218.966586 
L 270.107706 219.640495 
L 270.310063 225.889466 
L 270.917135 274.308782 
L 271.32185 286.173659 
L 271.524207 288.297492 
L 271.726564 286.602509 
L 274.15485 146.286558 
L 274.357208 139.179885 
L 274.559565 142.488164 
L 275.166636 167.422784 
L 275.976065 248.271402 
L 276.38078 260.728501 
L 276.583137 260.034171 
L 276.987851 238.387408 
L 277.392566 209.736079 
L 278.404352 153.291124 
L 278.606709 150.268746 
L 279.011423 137.158159 
L 279.213781 135.565284 
L 279.416138 139.792529 
L 280.023209 181.146015 
L 280.630281 251.865581 
L 281.034995 274.451732 
L 281.237353 279.291622 
L 281.43971 277.760011 
L 281.642067 271.919469 
L 282.249139 230.52514 
L 282.85621 197.176873 
L 283.867996 154.76147 
L 284.070354 153.577025 
L 284.272711 161.663928 
L 285.284497 244.023735 
L 285.689211 275.922078 
L 286.093926 290.543854 
L 286.296283 292.810638 
L 286.49864 291.013548 
L 286.700997 288.093277 
L 287.105712 257.338537 
L 287.712783 206.223586 
L 288.522212 163.154696 
L 288.724569 156.088866 
L 288.926927 154.169247 
L 289.129284 157.722584 
L 289.736355 191.254645 
L 290.545784 260.748923 
L 290.950499 275.901657 
L 291.152856 278.658556 
L 291.355213 278.740242 
L 291.55757 277.269896 
L 291.759927 264.894482 
L 292.771714 167.034776 
L 293.176428 145.224641 
L 293.581142 134.074516 
L 293.7835 132.359113 
L 293.985857 135.851185 
L 294.592928 161.173813 
L 295.402357 243.778677 
L 295.807072 258.35961 
L 296.009429 258.196238 
L 296.414143 238.060665 
L 297.830644 104.014106 
L 298.235358 90.801412 
L 298.437715 88.228306 
L 298.640073 88.493785 
L 298.84243 90.535933 
L 299.044787 98.520729 
L 299.449501 125.313704 
L 300.056573 203.79343 
L 300.461287 228.871001 
L 300.663645 234.854493 
L 300.866002 235.569245 
L 301.068359 228.789315 
L 301.473073 198.933119 
L 302.484859 94.313906 
L 302.687217 83.061673 
L 302.889574 83.16378 
L 303.091931 91.209841 
L 303.496646 99.807282 
L 303.90136 121.923739 
L 304.306074 149.696944 
L 304.913146 218.496892 
L 305.31786 243.696992 
L 305.520218 249.231211 
L 305.722575 247.454543 
L 305.924932 240.368291 
L 306.532004 200.648523 
L 307.54379 131.052138 
L 307.746147 120.902665 
L 307.948504 120.024542 
L 308.757933 152.106678 
L 309.162647 178.02153 
L 309.769719 240.654192 
L 310.174433 260.422179 
L 310.376791 264.792375 
L 310.579148 264.220573 
L 310.983862 240.940092 
L 312.198005 137.505324 
L 312.60272 125.94677 
L 312.805077 121.596995 
L 313.007434 122.148375 
L 313.209791 125.824241 
L 313.816863 153.250281 
L 314.01922 166.850983 
L 314.626292 229.075216 
L 315.031006 249.455847 
L 315.233364 254.009836 
L 315.435721 253.356349 
L 315.840435 234.691121 
L 316.24515 216.087158 
L 316.649864 204.140595 
L 317.054578 188.926597 
L 317.66165 181.452337 
L 317.864007 181.003065 
L 318.066364 180.10452 
L 318.268722 184.760616 
L 318.875793 206.774966 
L 319.685222 265.037432 
L 320.089937 277.73959 
L 320.292294 279.373307 
L 320.697008 271.490618 
L 321.101723 245.412395 
L 322.315866 167.933321 
L 322.72058 157.743005 
L 322.922937 155.435379 
L 323.125295 159.540095 
L 323.732366 187.006978 
L 324.541795 255.153439 
L 324.94651 269.366785 
L 325.148867 272.246213 
L 325.351224 272.307477 
L 325.553581 270.061115 
L 325.755938 257.80823 
L 326.970082 146.0415 
L 327.172439 139.751686 
L 327.374796 138.179233 
L 327.77951 132.645013 
L 327.981868 137.607431 
L 328.184225 146.347823 
L 328.791296 197.707831 
L 329.196011 241.18515 
L 329.398368 256.337884 
L 329.803083 266.38525 
L 330.00544 265.445862 
L 330.207797 259.870799 
L 330.814869 211.635277 
L 331.42194 173.630913 
L 331.826655 151.085605 
L 332.029012 148.206177 
L 332.231369 148.226598 
L 332.433726 148.410391 
L 332.636083 150.493382 
L 332.838441 155.006528 
L 333.243155 177.796893 
L 333.445512 186.761921 
L 334.052584 252.110639 
L 334.457298 273.777823 
L 334.659655 279.169093 
L 334.862013 276.77978 
L 335.266727 257.052636 
L 335.671442 232.832767 
L 336.48087 192.949627 
L 336.683228 187.905523 
L 336.885585 186.802764 
L 337.087942 180.6559 
L 337.290299 178.817967 
L 337.695014 185.250732 
L 338.099728 199.62745 
L 338.302085 205.467991 
L 339.111514 270.918817 
L 339.313871 277.086102 
L 339.516228 279.312043 
L 339.718586 275.268591 
L 340.1233 252.049375 
L 340.932729 207.836882 
L 342.349229 146.429508 
L 342.551587 146.347823 
L 343.158658 170.894435 
L 343.76573 233.302461 
L 344.170444 251.212094 
L 344.372801 255.949876 
L 344.575159 253.826043 
L 344.777516 246.944006 
L 345.18223 216.230108 
L 346.194016 134.054095 
L 346.598731 119.371055 
L 347.003445 112.79534 
L 347.205802 111.95806 
L 347.40816 115.123388 
L 347.610517 122.924391 
L 348.015231 148.880085 
L 348.82466 239.490168 
L 349.229374 256.501256 
L 349.431732 255.745661 
L 349.634089 249.986806 
L 349.836446 238.918366 
L 351.050589 135.075169 
L 351.455304 116.81837 
L 351.860018 108.016715 
L 352.062375 107.11817 
L 352.264733 110.732771 
L 352.46709 121.760367 
L 353.276519 204.385653 
L 353.681233 242.104117 
L 354.085947 262.178426 
L 354.288305 267.426745 
L 354.490662 267.998546 
L 354.693019 265.772605 
L 355.097733 223.969847 
L 355.704805 150.554646 
L 356.109519 125.987612 
L 356.716591 107.894186 
L 356.918948 106.811848 
L 357.121306 111.590473 
L 357.52602 137.076473 
L 357.728377 149.696944 
L 358.740163 244.656801 
L 359.144878 257.563173 
L 359.347235 259.421527 
L 359.549592 259.094783 
L 359.751949 245.167338 
L 360.763735 125.191175 
L 361.16845 106.219625 
L 361.573164 95.171607 
L 361.775521 92.884402 
L 361.977879 96.151838 
L 362.180236 103.115561 
L 362.58495 128.764933 
L 363.394379 217.046967 
L 363.799093 234.609435 
L 364.001451 235.426294 
L 364.203808 229.565331 
L 364.406165 219.558809 
L 365.013237 150.33001 
L 365.620308 86.084051 
L 366.025023 69.991929 
L 366.429737 63.845066 
L 366.632094 64.335181 
L 366.834451 66.969551 
L 367.036809 75.648678 
L 367.441523 104.708436 
L 368.048595 183.9846 
L 368.453309 214.371754 
L 368.655666 222.867088 
L 368.858024 225.235979 
L 369.060381 221.355898 
L 369.262738 211.533169 
L 369.86981 148.267441 
L 370.476881 90.331718 
L 370.881596 73.769902 
L 371.083953 73.32063 
L 371.28631 74.035381 
L 371.488667 77.956304 
L 371.691024 84.164433 
L 372.298096 123.006077 
L 373.107525 207.714353 
L 373.512239 229.871653 
L 373.714597 234.221427 
L 374.119311 233.527097 
L 374.321668 220.82494 
L 375.333454 117.328907 
L 375.738169 104.116213 
L 375.940526 101.420579 
L 376.142883 100.317819 
L 376.34524 105.484452 
L 376.749955 131.644361 
L 377.559383 190.376522 
L 377.964098 224.929656 
L 378.368812 238.69373 
L 378.57117 238.918366 
L 378.773527 232.996139 
L 378.975884 221.805171 
L 380.392384 105.464031 
L 380.797099 95.559615 
L 381.201813 87.983248 
L 381.40417 91.7408 
L 382.011242 128.683247 
L 382.820671 211.369797 
L 383.225385 227.441498 
L 383.427743 228.094985 
L 383.6301 222.76498 
L 384.034814 200.566837 
L 385.0466 127.274165 
L 385.451315 110.610242 
L 385.653672 110.140548 
L 385.856029 113.918521 
L 386.058386 121.535731 
L 387.070172 191.397595 
L 387.474887 231.444107 
L 387.879601 253.295085 
L 388.284316 262.423484 
L 388.68903 264.935325 
L 388.891387 259.196891 
L 389.700816 215.719571 
L 390.307888 204.528603 
L 390.914959 191.806025 
L 391.117316 196.58465 
L 391.926745 236.100203 
L 392.533817 280.231009 
L 392.938531 292.586001 
L 393.140888 294.444356 
L 393.343246 293.995083 
L 393.545603 294.464777 
L 393.74796 285.520171 
L 394.355032 244.411743 
L 395.569175 188.007631 
L 395.771532 182.003717 
L 395.973889 183.208584 
L 396.176247 191.520124 
L 396.783318 233.506676 
L 397.188033 271.980734 
L 397.592747 289.788259 
L 397.795104 292.56558 
L 397.997461 290.033317 
L 398.402176 271.919469 
L 400.628105 144.448625 
L 400.830462 147.28721 
L 401.03282 157.232468 
L 401.639891 214.208382 
L 402.044606 258.502561 
L 402.44932 278.801506 
L 402.651677 282.804115 
L 402.854034 281.149976 
L 403.258749 262.974863 
L 403.663463 234.589014 
L 404.877607 128.662826 
L 405.282321 108.159665 
L 405.484678 103.952842 
L 405.687035 105.03518 
L 405.889393 115.531818 
L 406.294107 152.862273 
L 406.901179 230.198397 
L 407.305893 254.234472 
L 407.50825 259.829956 
L 407.710607 259.298998 
L 408.115322 238.081086 
L 409.73418 105.933725 
L 409.936537 101.012149 
L 410.138894 100.869199 
L 410.341251 105.464031 
L 410.948323 141.528355 
L 411.15068 157.416262 
L 411.757752 227.931613 
L 412.162466 251.967689 
L 412.364823 258.441296 
L 412.56718 260.217964 
L 412.971895 242.185802 
L 414.388395 144.203568 
L 414.79311 130.684552 
L 415.197824 124.027151 
L 415.400181 130.786659 
L 416.20961 193.25595 
L 416.614325 238.428251 
L 417.019039 261.463674 
L 417.221396 265.711341 
L 417.423753 265.159961 
L 417.828468 249.026996 
L 419.244968 151.43277 
L 419.649683 137.852489 
L 419.85204 134.033673 
L 420.054397 135.463177 
L 420.256754 144.10146 
L 421.066183 209.225543 
L 421.673255 264.159309 
L 422.077969 280.190166 
L 422.280326 282.661165 
L 422.482684 282.007678 
L 422.685041 281.844306 
L 423.089755 251.191673 
L 423.899184 182.371304 
L 424.708613 143.202915 
L 424.91097 140.037587 
L 425.113327 144.019774 
L 425.518042 170.036733 
L 425.720399 181.779081 
L 426.529828 256.051984 
L 426.934542 274.533418 
L 427.136899 278.985299 
L 427.339257 279.781737 
L 427.541614 280.006373 
L 427.743971 271.449775 
L 428.148685 231.301157 
L 428.755757 169.730411 
L 429.160471 144.223989 
L 429.565186 136.014556 
L 429.9699 139.915058 
L 430.374615 156.048023 
L 430.576972 167.626999 
L 431.386401 243.206876 
L 431.791115 255.378075 
L 431.993472 253.356349 
L 432.398187 233.159511 
L 433.207616 168.423437 
L 434.017044 98.439043 
L 434.219402 93.578732 
L 435.02883 120.841401 
L 435.433545 145.694335 
L 436.040617 216.495587 
L 436.445331 238.897945 
L 436.647688 244.003314 
L 436.850045 243.329405 
L 437.25476 222.846666 
L 437.659474 188.130159 
L 438.468903 115.082545 
L 438.67126 105.402766 
L 438.873617 106.362575 
L 439.075975 113.428406 
L 439.278332 112.979133 
L 439.480689 115.205074 
L 439.885403 133.645665 
L 440.290118 158.253542 
L 440.897189 231.239892 
L 441.301904 253.417613 
L 441.504261 258.808883 
L 441.706618 259.339841 
L 442.111333 244.697644 
L 442.920762 192.99047 
L 443.527833 158.335228 
L 444.134905 135.728656 
L 444.337262 133.15555 
L 444.539619 139.52705 
L 445.146691 184.311344 
L 445.753762 253.070448 
L 446.158477 274.14541 
L 446.360834 279.066985 
L 446.563191 277.086102 
L 446.967906 258.298346 
L 448.586763 149.186408 
L 448.991478 136.075821 
L 449.193835 133.768194 
L 449.396192 140.384752 
L 450.003264 180.512949 
L 450.812693 260.054593 
L 451.217407 273.267287 
L 451.419764 273.389815 
L 451.824479 256.317463 
L 452.43155 206.223586 
L 453.038622 164.584199 
L 453.443336 147.654797 
L 453.848051 139.833372 
L 454.050408 143.182494 
L 454.252765 153.107331 
L 454.65748 181.329808 
L 454.859837 189.723034 
L 455.669266 254.030258 
L 456.07398 267.488009 
L 456.276337 268.999198 
L 456.478694 267.018315 
L 456.681052 263.934673 
L 456.883409 255.990719 
L 457.288123 229.156902 
L 457.692838 218.272256 
L 457.895195 218.966586 
L 458.299909 224.684599 
L 458.502267 224.541648 
L 458.906981 220.743254 
L 459.109338 221.274213 
L 459.514053 225.39935 
L 459.71641 229.667439 
L 460.728196 286.990517 
L 461.13291 291.381134 
L 461.537625 288.093277 
L 461.739982 279.230357 
L 462.144696 244.963123 
L 463.561197 176.265283 
L 463.763554 169.056502 
L 463.965911 170.220526 
L 464.572983 189.559663 
L 465.382412 256.072405 
L 465.584769 262.934021 
L 465.787126 265.629655 
L 465.989483 263.219921 
L 467.608341 171.323286 
L 468.620127 150.289167 
L 468.822484 153.393231 
L 469.429556 179.451033 
L 470.036627 235.773459 
L 470.441342 253.438035 
L 470.643699 256.051984 
L 470.846056 253.499299 
L 471.857842 202.935728 
L 472.869628 172.895739 
L 473.071985 173.385855 
L 473.274343 171.609187 
L 473.4767 172.854896 
L 473.679057 176.612448 
L 473.881414 183.14732 
L 474.083772 184.290922 
L 474.286129 191.908132 
L 474.8932 243.656149 
L 475.297915 259.789113 
L 475.500272 261.443253 
L 475.702629 259.421527 
L 476.107344 235.22208 
L 476.512058 213.371102 
L 477.321487 182.105824 
L 477.726201 162.092779 
L 477.928558 158.559864 
L 478.333273 163.215961 
L 478.53563 167.64742 
L 479.142702 192.398248 
L 479.952131 259.687006 
L 480.356845 269.468892 
L 480.559202 269.060463 
L 480.963917 247.127799 
L 482.785131 119.656955 
L 482.987489 113.795992 
L 483.189846 111.182043 
L 483.392203 116.777527 
L 483.999275 156.354345 
L 484.606346 226.951382 
L 485.011061 250.007227 
L 485.213418 254.377423 
L 485.415775 255.316811 
L 485.82049 235.691774 
L 486.225204 204.712397 
L 487.23699 115.388867 
L 487.439347 112.325646 
L 487.844062 118.840096 
L 488.248776 137.321531 
L 489.260562 214.290068 
L 489.665277 246.208833 
L 490.069991 261.198195 
L 490.272348 263.526243 
L 490.474705 262.403062 
L 490.677063 260.646815 
L 490.87942 250.987458 
L 491.891206 171.854244 
L 492.29592 154.271355 
L 492.498277 146.940045 
L 492.700635 144.938741 
L 492.902992 146.552037 
L 493.105349 151.330662 
L 493.712421 184.597244 
L 494.52185 256.051984 
L 495.128921 274.186253 
L 495.331278 274.329203 
L 495.533636 273.716559 
L 495.735993 266.221878 
L 496.950136 175.407581 
L 497.557208 151.228555 
L 497.759565 147.899855 
L 497.961922 151.085605 
L 498.568994 182.350882 
L 499.378422 255.602711 
L 499.58078 262.382641 
L 499.783137 264.853639 
L 499.985494 261.565782 
L 500.187851 253.111291 
L 500.794923 216.475166 
L 500.99728 211.41064 
L 501.401995 198.422583 
L 501.806709 187.252036 
L 502.009066 186.802764 
L 502.211423 188.844911 
L 502.413781 189.477977 
L 502.616138 187.823837 
L 503.020852 197.462773 
L 503.223209 198.014153 
L 503.425567 205.467991 
L 504.032638 255.766083 
L 504.437353 268.733719 
L 504.63971 270.347016 
L 504.842067 267.998546 
L 505.246782 243.81952 
L 505.651496 220.191874 
L 507.270354 147.613954 
L 507.472711 144.530311 
L 507.675068 147.899855 
L 508.28214 175.713903 
L 508.889211 233.28204 
L 509.293926 250.272706 
L 509.496283 253.764778 
L 509.69864 251.947267 
L 510.103354 228.5851 
L 511.722212 123.04692 
L 512.126927 105.423188 
L 512.329284 106.995641 
L 512.936355 141.099504 
L 513.34107 179.736933 
L 513.745784 222.867088 
L 514.150499 245.412395 
L 514.352856 250.946615 
L 514.555213 251.43673 
L 514.75757 242.614653 
L 516.174071 146.613302 
L 516.376428 145.530964 
L 516.781142 154.781892 
L 516.9835 152.065835 
L 517.185857 152.596794 
L 517.590571 170.159262 
L 517.792928 174.366086 
L 517.995286 184.985252 
L 518.4 224.337434 
L 518.4 224.337434 
" clip-path="url(#pfcfa3b164f)" style="fill: none; stroke: #1f77b4; stroke-width: 1.5; stroke-linecap: square"/>
   </g>
   <g id="line2d_14">
    <path d="M 72 264.893647 
L 72.202357 264.893647 
L 72.607072 267.971477 
L 72.809429 269.528155 
L 73.011786 268.13405 
L 73.4165 256.338541 
L 74.225929 231.196487 
L 74.630644 209.364385 
L 75.035358 191.878148 
L 75.440073 170.817229 
L 75.64243 166.542875 
L 75.844787 168.924069 
L 76.047144 173.13764 
L 76.249501 181.261386 
L 77.261287 263.758147 
L 77.463645 264.165325 
L 77.666002 263.45461 
L 79.082502 200.901939 
L 79.487217 180.073134 
L 80.094288 166.228163 
L 80.296646 165.565941 
L 80.499003 172.738602 
L 80.903717 197.560922 
L 81.915503 275.513264 
L 82.11786 277.456103 
L 82.320218 276.040324 
L 82.724932 268.017374 
L 83.129646 253.884349 
L 83.939075 221.18053 
L 84.34379 215.877408 
L 85.153218 227.887545 
L 86.165005 265.78007 
L 86.569719 284.323058 
L 86.772076 289.145491 
L 86.974433 290.285873 
L 87.379148 287.646602 
L 87.581505 284.622895 
L 87.986219 269.87165 
L 88.390934 249.387558 
L 88.593291 243.265886 
L 88.795648 241.865029 
L 89.200363 241.412429 
L 89.40272 242.782977 
L 89.605077 243.184763 
L 90.212149 236.134325 
L 90.414506 237.230206 
L 90.81922 248.078217 
L 91.223935 265.098743 
L 91.628649 282.540367 
L 91.831006 285.004912 
L 92.033364 284.564771 
L 92.235721 282.50664 
L 92.640435 262.620157 
L 93.04515 240.778481 
L 93.652221 227.941643 
L 93.854578 227.941614 
L 94.259293 226.230354 
L 94.664007 222.192164 
L 95.068722 223.886053 
L 95.473436 234.770836 
L 96.080508 264.030058 
L 96.485222 285.281425 
L 96.687579 288.099584 
L 96.889937 284.93468 
L 97.092294 278.923132 
L 97.901723 240.355027 
L 98.306437 235.556659 
L 98.913509 221.804035 
L 99.318223 223.624576 
L 99.52058 220.673786 
L 99.722937 219.778264 
L 99.925295 223.935187 
L 100.734723 254.359395 
L 101.139438 277.355562 
L 101.341795 284.117223 
L 101.544152 285.024893 
L 102.151224 268.765758 
L 102.758296 238.875883 
L 103.16301 234.475893 
L 103.567724 225.096994 
L 103.972439 223.007431 
L 104.174796 220.618851 
L 104.57951 214.921398 
L 104.781868 219.766661 
L 105.591296 252.94603 
L 106.198368 283.465194 
L 106.400725 284.74449 
L 107.007797 267.347362 
L 107.614869 238.324301 
L 108.019583 232.795945 
L 108.829012 208.710932 
L 109.233726 197.67252 
L 109.436083 197.905206 
L 109.840798 215.777129 
L 110.650227 263.019983 
L 111.054941 280.881739 
L 111.257298 282.753539 
L 111.86437 266.614678 
L 112.471442 239.494049 
L 112.876156 226.408212 
L 113.483228 194.687378 
L 113.887942 184.273319 
L 114.090299 178.417751 
L 114.292656 176.818306 
L 114.495014 181.337456 
L 114.899728 207.605211 
L 115.709157 266.768549 
L 115.911514 274.101226 
L 116.113871 275.697946 
L 116.9233 261.835184 
L 117.530372 233.040683 
L 117.935086 207.006478 
L 118.339801 175.750361 
L 118.946872 153.956981 
L 119.149229 152.426629 
L 119.351587 155.915414 
L 119.553944 164.907864 
L 120.768087 265.219494 
L 120.970444 269.872146 
L 121.172801 270.224016 
L 121.375159 271.356799 
L 121.577516 270.19323 
L 121.779873 265.185482 
L 122.184587 242.455247 
L 122.589302 214.280477 
L 123.398731 182.703897 
L 123.601088 179.892001 
L 123.803445 179.505514 
L 124.005802 183.921152 
L 124.410517 202.214676 
L 124.815231 233.587511 
L 125.422303 274.951113 
L 125.62466 284.202046 
L 125.827017 288.110923 
L 126.029374 288.448246 
L 126.231732 285.206894 
L 126.636446 263.799175 
L 127.04116 240.471597 
L 127.445875 221.737724 
L 127.850589 196.412718 
L 128.862375 152.455605 
L 129.064733 155.653379 
L 129.26709 164.394779 
L 129.671804 214.437937 
L 130.076519 258.252662 
L 130.481233 280.340462 
L 130.68359 282.360083 
L 130.885947 278.705574 
L 131.290662 261.400976 
L 132.707162 170.271339 
L 133.111877 159.495715 
L 133.718948 149.862169 
L 133.921306 153.02239 
L 134.32602 178.503498 
L 135.135449 264.767586 
L 135.337806 272.661088 
L 135.540163 273.836766 
L 135.944878 264.295145 
L 136.147235 255.176337 
L 136.754306 204.886142 
L 137.159021 179.501011 
L 137.361378 173.500766 
L 137.563735 171.745465 
L 138.575521 193.952893 
L 138.980236 209.934276 
L 139.992022 273.875573 
L 140.194379 284.185806 
L 140.396736 283.205801 
L 140.599093 281.063791 
L 141.003808 263.906199 
L 141.610879 231.120377 
L 141.813237 227.521845 
L 142.420308 209.310182 
L 142.622665 211.442551 
L 143.02738 212.219412 
L 143.432094 213.818897 
L 143.836809 224.02791 
L 144.848595 270.449818 
L 145.050952 276.402913 
L 145.253309 277.843052 
L 145.658024 268.191089 
L 147.074524 206.076821 
L 147.276881 204.637152 
L 147.479238 204.739949 
L 148.08631 207.73965 
L 148.288667 213.615724 
L 149.098096 246.67981 
L 149.502811 261.304795 
L 149.907525 274.947732 
L 150.109882 276.76812 
L 150.312239 273.979203 
L 152.335811 218.896604 
L 153.347597 234.736638 
L 153.954669 249.084566 
L 154.966455 272.181414 
L 155.168812 270.625474 
L 155.37117 270.741188 
L 155.573527 269.33361 
L 155.775884 264.82919 
L 156.180598 247.047238 
L 156.990027 199.449044 
L 157.394742 175.813665 
L 157.799456 163.081506 
L 158.001813 162.052226 
L 158.20417 162.766089 
L 158.406528 167.045994 
L 158.608885 176.037153 
L 159.013599 213.273506 
L 159.418314 253.320941 
L 159.823028 265.186276 
L 160.025385 267.371288 
L 160.227743 266.972584 
L 160.4301 261.185787 
L 160.834814 236.078122 
L 161.441886 187.153581 
L 161.8466 169.97171 
L 162.453672 165.176564 
L 162.656029 166.108429 
L 162.858386 172.046791 
L 163.465458 210.933228 
L 164.072529 256.597509 
L 164.477244 280.342583 
L 164.679601 285.162976 
L 164.881958 283.581311 
L 165.084316 277.45181 
L 166.096102 220.826155 
L 166.90553 197.836765 
L 167.310245 188.101074 
L 167.512602 179.657623 
L 167.714959 177.020771 
L 167.917316 180.140693 
L 168.119674 192.13329 
L 168.524388 228.561725 
L 169.13146 268.590357 
L 169.333817 275.899202 
L 169.536174 276.079082 
L 169.940888 265.968976 
L 170.54796 230.946263 
L 171.559746 164.606705 
L 171.762103 158.627039 
L 171.964461 158.314175 
L 172.166818 158.584361 
L 172.369175 157.497283 
L 172.571532 159.858084 
L 172.773889 165.948157 
L 173.178604 197.259118 
L 173.988033 267.891965 
L 174.19039 276.053388 
L 174.392747 277.849522 
L 174.797461 269.587073 
L 174.999819 262.666101 
L 175.404533 236.993147 
L 175.809248 210.795844 
L 176.416319 184.823589 
L 176.618676 177.036878 
L 177.023391 173.883121 
L 177.225748 173.017168 
L 177.428105 176.283234 
L 177.630462 182.008417 
L 178.035177 207.191681 
L 178.642248 260.523135 
L 179.046963 282.359072 
L 179.24932 284.403836 
L 179.654034 274.037662 
L 180.058749 252.953424 
L 181.272892 178.702143 
L 181.677607 161.878831 
L 182.082321 154.738198 
L 182.284678 155.234695 
L 182.487035 161.069014 
L 182.689393 170.734618 
L 183.903536 267.900488 
L 184.105893 270.174105 
L 184.510607 263.796167 
L 184.712965 259.350301 
L 184.915322 252.392674 
L 185.320036 221.117878 
L 186.331822 140.231285 
L 186.53418 132.359029 
L 186.736537 131.745261 
L 186.938894 136.357356 
L 187.343608 161.674073 
L 188.355394 243.562212 
L 188.760109 261.16897 
L 188.962466 265.646069 
L 189.36718 267.517515 
L 189.569538 264.464796 
L 189.771895 257.274274 
L 190.176609 230.415248 
L 190.581324 204.447223 
L 190.986038 182.846437 
L 191.390752 155.109844 
L 191.59311 148.43909 
L 191.795467 150.591292 
L 191.997824 161.133937 
L 193.00961 236.59948 
L 193.414325 258.522281 
L 193.819039 270.109853 
L 194.021396 271.228114 
L 194.223753 269.248465 
L 194.628468 255.185517 
L 195.033182 233.49074 
L 195.640254 200.109599 
L 196.247325 180.373685 
L 196.854397 201.512992 
L 198.473255 275.48883 
L 198.675612 278.614623 
L 198.877969 278.737099 
L 199.080326 275.4812 
L 199.485041 253.748024 
L 199.889755 227.581356 
L 200.699184 185.248423 
L 200.901541 183.450119 
L 201.508613 171.734361 
L 201.71097 170.978819 
L 201.913327 172.53345 
L 202.115684 178.600106 
L 202.318042 190.859707 
L 202.925113 245.099325 
L 203.329828 267.332077 
L 203.532185 270.516658 
L 203.734542 268.496478 
L 203.936899 262.790592 
L 204.948685 196.735319 
L 205.3534 172.177309 
L 205.555757 167.179487 
L 205.758114 166.366978 
L 205.960471 169.554058 
L 206.365186 171.608415 
L 206.567543 175.349499 
L 206.972257 196.169975 
L 207.781686 248.595631 
L 208.186401 269.871849 
L 208.388758 271.542417 
L 208.591115 267.926529 
L 208.99583 253.45623 
L 210.209973 186.425478 
L 210.614687 172.929976 
L 211.424116 156.950795 
L 211.626473 160.39216 
L 211.82883 169.324773 
L 212.233545 208.505831 
L 212.840617 256.209084 
L 213.042974 264.258534 
L 213.245331 265.349737 
L 213.447688 261.926411 
L 213.852403 248.583978 
L 215.268903 150.242481 
L 215.47126 143.986906 
L 215.673617 142.057962 
L 216.280689 132.317889 
L 216.483046 134.601618 
L 216.685403 144.000565 
L 217.292475 202.943029 
L 217.697189 246.548687 
L 217.899547 257.614314 
L 218.101904 262.441716 
L 218.304261 259.49847 
L 218.708976 246.866641 
L 219.11369 223.079251 
L 219.518404 195.059732 
L 220.327833 147.61481 
L 220.53019 143.97053 
L 220.934905 157.401953 
L 221.339619 178.953725 
L 222.553762 267.56796 
L 222.958477 282.420081 
L 223.767906 263.063796 
L 224.779692 215.542725 
L 224.982049 213.362118 
L 225.184406 213.264652 
L 225.386763 214.521045 
L 226.196192 229.974502 
L 226.600907 241.830759 
L 227.005621 260.813273 
L 227.612693 283.371352 
L 227.81505 285.467372 
L 228.017407 285.012468 
L 228.219764 281.788621 
L 228.624479 260.579506 
L 229.029193 236.722204 
L 229.433908 229.683042 
L 229.838622 225.964707 
L 230.040979 222.20046 
L 230.850408 193.150393 
L 231.052765 191.821173 
L 231.255122 194.940608 
L 231.659837 222.606391 
L 232.266908 266.908809 
L 232.469266 276.650303 
L 232.671623 280.225889 
L 232.87398 277.951589 
L 233.278694 261.848555 
L 234.088123 218.901185 
L 234.897552 185.368917 
L 235.302267 180.727155 
L 235.504624 179.758136 
L 235.706981 179.661863 
L 235.909338 185.182273 
L 236.314053 208.801806 
L 237.123481 269.044988 
L 237.325839 278.151803 
L 237.528196 280.109504 
L 237.730553 277.497695 
L 237.93291 273.308105 
L 238.337625 255.5506 
L 238.944696 223.831285 
L 239.551768 195.161048 
L 239.754125 191.076539 
L 239.956482 189.830271 
L 240.15884 190.120774 
L 240.361197 189.549476 
L 240.563554 191.537807 
L 240.765911 197.209125 
L 241.170626 224.217651 
L 241.980054 274.09127 
L 242.182412 281.025492 
L 242.384769 283.181472 
L 242.789483 274.053722 
L 242.99184 267.22158 
L 243.801269 226.357998 
L 244.205984 210.248263 
L 244.610698 197.503562 
L 245.21777 181.973686 
L 245.420127 180.704485 
L 245.622484 183.714465 
L 245.824841 192.733669 
L 246.63427 254.086582 
L 247.038985 275.559962 
L 247.241342 277.984826 
L 247.443699 275.190165 
L 247.848413 263.819484 
L 248.657842 215.260847 
L 249.467271 160.46429 
L 249.871985 148.851161 
L 250.074343 145.642872 
L 250.2767 146.392763 
L 250.479057 153.342419 
L 250.883772 185.093244 
L 251.490843 243.009337 
L 251.895558 264.412007 
L 252.097915 267.701303 
L 252.300272 266.582806 
L 252.502629 264.247151 
L 252.704986 260.36978 
L 253.109701 242.226523 
L 254.323844 150.199015 
L 254.526201 140.271444 
L 254.728558 137.398474 
L 254.930916 138.70494 
L 255.133273 143.75013 
L 255.740345 182.133911 
L 256.347416 245.121303 
L 256.752131 264.395215 
L 256.954488 268.508971 
L 257.156845 270.159863 
L 257.359202 269.517684 
L 257.561559 268.402121 
L 257.763917 261.519568 
L 259.180417 171.462476 
L 259.382774 160.671899 
L 259.585131 157.369572 
L 259.787489 160.720017 
L 259.989846 166.256632 
L 260.596917 197.736213 
L 261.406346 264.64021 
L 261.811061 277.903409 
L 262.013418 278.405917 
L 262.215775 274.974865 
L 262.62049 253.670252 
L 263.227561 212.508013 
L 263.429918 205.219336 
L 263.632276 202.98858 
L 263.834633 206.651744 
L 264.03699 213.746694 
L 264.239347 214.607646 
L 264.441704 216.133143 
L 265.048776 227.267933 
L 265.45349 242.717877 
L 266.465277 286.974226 
L 266.667634 290.388511 
L 266.869991 287.825291 
L 267.072348 281.034698 
L 267.881777 235.395926 
L 268.286491 229.53366 
L 268.691206 219.717947 
L 269.09592 219.229305 
L 269.500635 214.438146 
L 269.702992 213.675324 
L 269.905349 217.732148 
L 271.32185 271.657201 
L 271.524207 273.149142 
L 271.928921 266.118957 
L 272.333636 250.500013 
L 273.952493 168.782617 
L 274.15485 164.068647 
L 274.357208 156.607225 
L 274.559565 154.616554 
L 274.761922 155.471576 
L 274.964279 161.67519 
L 275.368994 186.330579 
L 276.178422 253.942631 
L 276.38078 258.28116 
L 276.583137 256.41418 
L 276.987851 247.032983 
L 277.392566 216.337315 
L 278.404352 143.919118 
L 278.606709 138.80086 
L 278.809066 142.419987 
L 279.011423 143.417472 
L 279.213781 141.724597 
L 279.618495 153.334826 
L 279.820852 161.648467 
L 280.225567 192.498859 
L 280.832638 254.298834 
L 281.237353 274.757431 
L 281.642067 267.103 
L 281.844424 261.017827 
L 283.058568 189.572741 
L 283.665639 167.980793 
L 283.867996 168.082736 
L 284.272711 172.436202 
L 284.677425 188.094963 
L 284.879782 200.874784 
L 285.284497 240.688554 
L 285.891568 276.840114 
L 286.093926 280.427989 
L 286.296283 278.734133 
L 286.49864 274.884025 
L 286.903354 260.580204 
L 288.522212 165.609752 
L 288.724569 161.2307 
L 288.926927 159.313726 
L 289.129284 161.042496 
L 289.533998 177.585441 
L 289.736355 191.031065 
L 290.343427 247.716233 
L 290.748141 267.141416 
L 290.950499 271.335069 
L 291.152856 271.476725 
L 291.55757 266.221012 
L 291.759927 259.21884 
L 292.164642 230.168357 
L 292.569356 192.453219 
L 293.581142 124.565485 
L 293.7835 124.918118 
L 293.985857 130.220604 
L 294.592928 167.395336 
L 295.604714 256.403129 
L 295.807072 264.330323 
L 296.009429 265.620704 
L 296.211786 262.926963 
L 296.414143 254.41827 
L 296.818858 222.274805 
L 297.830644 119.748356 
L 298.235358 93.510065 
L 298.437715 88.123799 
L 298.640073 88.923551 
L 298.84243 95.456166 
L 299.651859 150.018471 
L 300.663645 248.767835 
L 300.866002 250.99727 
L 301.068359 243.58361 
L 301.473073 213.779644 
L 302.889574 78.610738 
L 303.091931 74.130646 
L 303.496646 92.456602 
L 303.699003 102.275431 
L 304.103717 135.144794 
L 305.115503 240.566214 
L 305.31786 250.197468 
L 305.520218 253.81313 
L 305.722575 247.837372 
L 306.734361 187.326256 
L 307.746147 129.097839 
L 307.948504 128.803163 
L 308.150861 130.230591 
L 308.353218 132.617913 
L 308.555576 136.66813 
L 308.96029 168.989323 
L 309.769719 245.422095 
L 310.174433 268.950167 
L 310.376791 269.441819 
L 310.579148 263.626587 
L 310.983862 232.603127 
L 311.793291 175.636787 
L 312.198005 149.985743 
L 312.60272 124.362517 
L 312.805077 123.272474 
L 313.412149 141.886413 
L 313.816863 167.968939 
L 315.233364 260.706529 
L 315.435721 256.327214 
L 315.638078 248.680246 
L 316.042792 220.423979 
L 316.447507 189.788897 
L 317.256936 169.605346 
L 317.459293 168.631961 
L 317.864007 177.859036 
L 318.066364 181.16492 
L 318.268722 186.664466 
L 319.887579 272.384816 
L 320.089937 274.594448 
L 320.292294 271.620168 
L 320.697008 255.93632 
L 321.708794 217.17653 
L 321.911151 213.07254 
L 322.72058 168.995635 
L 322.922937 165.882701 
L 323.125295 165.562291 
L 323.327652 169.847202 
L 323.732366 191.543787 
L 324.339438 238.923619 
L 324.744152 257.357858 
L 324.94651 261.207021 
L 325.148867 262.077821 
L 325.351224 261.702134 
L 325.553581 259.776894 
L 325.755938 254.545708 
L 326.160653 228.396849 
L 327.172439 148.323406 
L 327.577153 130.003039 
L 327.77951 129.69662 
L 327.981868 134.984522 
L 328.588939 173.56477 
L 329.398368 252.213836 
L 329.803083 265.2502 
L 330.00544 267.861681 
L 330.410154 257.940781 
L 330.814869 227.744067 
L 331.624297 160.714055 
L 332.029012 141.98402 
L 332.231369 138.645253 
L 332.433726 139.409151 
L 332.838441 155.081997 
L 333.647869 210.175715 
L 334.254941 253.266797 
L 334.659655 277.778346 
L 334.862013 276.933075 
L 335.06437 271.260681 
L 335.469084 244.688543 
L 336.076156 205.527092 
L 336.683228 184.345335 
L 337.087942 177.296469 
L 337.290299 178.957947 
L 337.492656 182.979955 
L 338.099728 205.149963 
L 339.313871 273.752266 
L 339.516228 277.398041 
L 339.920943 266.610386 
L 340.1233 258.632645 
L 340.932729 209.45244 
L 341.539801 180.955888 
L 341.944515 167.963635 
L 342.551587 160.869786 
L 342.956301 168.315437 
L 343.361015 197.255033 
L 343.968087 249.952259 
L 344.372801 259.6494 
L 344.575159 256.929116 
L 344.979873 245.125211 
L 345.18223 232.574985 
L 345.991659 161.949203 
L 346.598731 116.310679 
L 346.801088 113.648022 
L 347.205802 118.293485 
L 347.40816 123.694142 
L 347.812874 141.915599 
L 348.217588 173.386748 
L 348.82466 235.826422 
L 349.229374 258.356687 
L 349.431732 259.210832 
L 349.836446 243.012892 
L 350.443518 196.774745 
L 350.848232 168.395405 
L 351.657661 122.637243 
L 351.860018 121.296368 
L 352.062375 121.344908 
L 352.264733 125.242911 
L 352.669447 147.016456 
L 353.88359 251.138383 
L 354.085947 259.05449 
L 354.288305 258.209848 
L 354.693019 239.815613 
L 355.097733 214.545293 
L 355.502448 185.516606 
L 355.907162 158.662279 
L 356.311877 121.417181 
L 356.514234 111.599853 
L 356.716591 112.699102 
L 357.121306 122.351015 
L 357.52602 144.221114 
L 357.930734 179.504472 
L 358.335449 224.82002 
L 358.740163 248.667669 
L 359.144878 258.753976 
L 359.347235 254.602753 
L 359.751949 235.691308 
L 359.954306 220.572484 
L 360.561378 161.333369 
L 361.370807 93.033449 
L 361.573164 92.636085 
L 361.977879 102.153786 
L 362.787307 157.895795 
L 363.394379 230.124123 
L 364.001451 248.888118 
L 364.203808 243.310936 
L 364.608522 218.2207 
L 365.417951 133.033216 
L 366.22738 55.881014 
L 366.429737 55.8 
L 367.036809 85.994641 
L 367.441523 116.917475 
L 368.453309 224.423691 
L 368.655666 230.19829 
L 368.858024 228.849788 
L 369.262738 209.813576 
L 369.667452 180.382295 
L 370.881596 70.883909 
L 371.083953 61.506983 
L 371.28631 62.975725 
L 371.691024 84.208197 
L 372.095739 121.590771 
L 372.905168 215.711911 
L 373.107525 228.900076 
L 373.512239 235.583804 
L 373.714597 232.604809 
L 374.321668 203.122642 
L 375.738169 100.059255 
L 375.940526 92.4602 
L 376.142883 92.766774 
L 376.547597 110.251826 
L 377.154669 163.332942 
L 377.761741 225.870102 
L 377.964098 238.047763 
L 378.368812 246.609258 
L 378.57117 245.289328 
L 378.773527 238.906452 
L 379.178241 212.598105 
L 379.785313 160.791205 
L 380.797099 96.276327 
L 380.999456 95.670338 
L 381.40417 101.280439 
L 381.808885 124.556931 
L 383.023028 232.825572 
L 383.225385 236.313363 
L 383.427743 234.808926 
L 383.832457 213.280479 
L 384.237171 177.430036 
L 384.237171 177.430036 
" clip-path="url(#pfcfa3b164f)" style="fill: none; stroke: #ff7f0e; stroke-width: 1.5; stroke-linecap: square"/>
   </g>
   <g id="line2d_15">
    <path d="M 384.439529 162.518966 
L 384.844243 138.255073 
L 385.248957 115.942935 
L 385.653672 96.773773 
L 385.856029 99.782816 
L 386.463101 131.131343 
L 386.867815 168.998811 
L 387.474887 228.545603 
L 387.879601 244.626853 
L 388.081958 247.334064 
L 388.284316 246.649889 
L 388.486673 241.14339 
L 390.10553 155.414569 
L 390.307888 148.864182 
L 390.510245 150.148111 
L 390.712602 153.726098 
L 391.117316 169.923744 
L 391.926745 229.482622 
L 392.33146 258.18608 
L 392.736174 272.828115 
L 392.938531 274.822576 
L 393.140888 270.895536 
L 393.343246 262.774312 
L 394.152675 210.090604 
L 394.557389 201.276447 
L 395.164461 182.343501 
L 395.366818 185.266115 
L 396.176247 213.093787 
L 397.39039 268.407853 
L 397.592747 271.677684 
L 397.795104 270.636938 
L 397.997461 266.47917 
L 398.402176 248.736195 
L 399.009248 221.903815 
L 399.413962 209.620156 
L 399.818676 199.301661 
L 400.021034 196.642315 
L 400.223391 197.199743 
L 400.425748 199.197794 
L 400.628105 202.750302 
L 401.03282 216.855098 
L 402.044606 260.458169 
L 402.246963 263.844992 
L 402.44932 263.898569 
L 402.651677 260.421229 
L 403.056392 247.448472 
L 403.663463 226.708919 
L 404.675249 199.316046 
L 404.877607 197.134176 
L 405.079964 196.480283 
L 405.282321 197.455792 
L 405.687035 206.094961 
L 406.901179 255.963968 
L 407.103536 258.222217 
L 407.305893 257.584582 
L 407.50825 254.334096 
L 409.329465 208.238335 
L 409.73418 203.690899 
L 409.936537 203.325395 
L 410.138894 204.687284 
L 410.341251 207.905449 
L 410.745966 221.988225 
L 411.15068 239.252447 
L 411.555394 251.522665 
L 411.757752 254.648755 
L 411.960109 255.468069 
L 412.162466 254.460296 
L 412.56718 247.217233 
L 413.578966 225.138193 
L 414.186038 215.976146 
L 414.590752 212.991831 
L 414.79311 213.018558 
L 414.995467 214.875346 
L 415.197824 218.106555 
L 415.602539 230.509273 
L 416.20961 247.454142 
L 416.411967 251.082418 
L 416.614325 252.675471 
L 416.816682 252.850544 
L 417.019039 251.301112 
L 417.423753 244.793681 
L 418.435539 226.116167 
L 419.042611 219.486888 
L 419.244968 218.567422 
L 419.447325 218.521671 
L 419.649683 219.352112 
L 419.85204 221.271019 
L 420.256754 229.787293 
L 421.066183 246.864752 
L 421.470898 249.529624 
L 421.673255 249.088502 
L 421.875612 247.460966 
L 422.482684 238.40672 
L 423.292112 226.982207 
L 423.899184 221.91614 
L 424.101541 221.564416 
L 424.303898 221.825653 
L 424.506256 223.122223 
L 424.91097 229.154022 
L 425.720399 243.733383 
L 426.125113 246.617075 
L 426.327471 246.740937 
L 426.529828 245.89958 
L 426.934542 241.769931 
L 427.946328 229.931561 
L 428.5534 224.90764 
L 428.755757 224.431941 
L 428.958114 224.442197 
L 429.160471 225.007428 
L 429.565186 229.215556 
L 430.576972 243.131856 
L 430.981686 244.841387 
L 431.184044 244.504327 
L 431.386401 243.427041 
L 431.993472 237.52625 
L 432.600544 231.880752 
L 433.409973 226.951515 
L 433.61233 226.725021 
L 433.814687 226.972582 
L 434.017044 228.0378 
L 434.421759 232.195405 
L 435.231188 241.27964 
L 435.635902 243.052524 
L 435.838259 243.150177 
L 436.040617 242.505232 
L 436.445331 239.840187 
L 437.25476 233.347409 
L 438.064189 229.241223 
L 438.266546 228.88791 
L 438.468903 228.925013 
L 438.67126 229.503932 
L 439.075975 232.520083 
L 440.087761 240.918816 
L 440.290118 241.597315 
L 440.492475 241.877333 
L 440.694832 241.598717 
L 441.099547 239.713648 
L 442.111333 233.459657 
L 442.920762 230.719999 
L 443.123119 230.663843 
L 443.325476 230.979497 
L 443.73019 233.095255 
L 444.944334 240.385857 
L 445.146691 240.72773 
L 445.349048 240.663484 
L 445.551405 240.182913 
L 445.95612 238.397332 
L 446.765549 234.332791 
L 447.37262 232.591615 
L 447.574977 232.219961 
L 447.777335 232.138365 
L 447.979692 232.313328 
L 448.384406 233.721706 
L 449.598549 239.42837 
L 449.800907 239.751115 
L 450.003264 239.783583 
L 450.205621 239.500705 
L 450.610335 238.225913 
L 451.622121 234.409953 
L 452.026836 233.63813 
L 452.43155 233.327765 
L 452.633908 233.452788 
L 452.836265 233.791205 
L 453.240979 235.054598 
L 454.050408 238.21229 
L 454.455122 238.955938 
L 454.65748 239.032495 
L 454.859837 238.855245 
L 455.264551 237.981234 
L 456.276337 234.943562 
L 456.681052 234.308811 
L 457.085766 234.148028 
L 457.288123 234.233392 
L 457.692838 234.861832 
L 459.109338 238.328417 
L 459.311695 238.396379 
L 459.514053 238.305828 
L 459.918767 237.684323 
L 461.13291 235.024652 
L 461.537625 234.737909 
L 461.942339 234.825433 
L 462.347053 235.297347 
L 463.763554 237.846563 
L 463.965911 237.908542 
L 464.370626 237.678874 
L 464.77534 237.071198 
L 465.584769 235.611163 
L 465.989483 235.207134 
L 466.394198 235.1375 
L 466.798912 235.366481 
L 467.405984 236.20806 
L 468.013055 237.136946 
L 468.41777 237.473565 
L 468.822484 237.486302 
L 469.227199 237.175378 
L 470.643699 235.493317 
L 471.048413 235.435929 
L 471.453128 235.615482 
L 472.060199 236.25069 
L 472.869628 237.098134 
L 473.274343 237.237807 
L 473.679057 237.123271 
L 474.286129 236.587095 
L 475.095558 235.813427 
L 475.500272 235.661876 
L 475.904986 235.709108 
L 476.512058 236.098436 
L 477.523844 236.914332 
L 477.928558 237.02253 
L 478.333273 236.941777 
L 478.940345 236.545959 
L 479.749773 235.957639 
L 480.356845 235.83552 
L 480.963917 236.042224 
L 482.380417 236.838022 
L 482.987489 236.803053 
L 483.796917 236.385988 
L 484.606346 236.003138 
L 485.213418 235.994112 
L 486.022847 236.318145 
L 487.034633 236.723748 
L 487.641704 236.699731 
L 488.451133 236.388964 
L 489.260562 236.097828 
L 489.867634 236.087537 
L 490.677063 236.331389 
L 491.688849 236.637932 
L 492.29592 236.621749 
L 493.510063 236.258779 
L 494.319492 236.145239 
L 495.128921 236.283088 
L 496.545422 236.585188 
L 497.35485 236.490324 
L 498.973708 236.203085 
L 499.985494 236.349358 
L 501.199637 236.53439 
L 502.211423 236.427962 
L 503.627924 236.246836 
L 504.842067 236.389763 
L 506.05621 236.4947 
L 507.675068 236.309072 
L 508.889211 236.314184 
L 511.115141 236.446658 
L 513.543427 236.329995 
L 515.971714 236.417854 
L 518.197643 236.342057 
L 518.4 236.354404 
L 518.4 236.354404 
" clip-path="url(#pfcfa3b164f)" style="fill: none; stroke: #2ca02c; stroke-width: 1.5; stroke-linecap: square"/>
   </g>
   <g id="patch_3">
    <path d="M 72 320.4 
L 72 43.2 
" style="fill: none; stroke: #000000; stroke-width: 0.8; stroke-linejoin: miter; stroke-linecap: square"/>
   </g>
   <g id="patch_4">
    <path d="M 518.4 320.4 
L 518.4 43.2 
" style="fill: none; stroke: #000000; stroke-width: 0.8; stroke-linejoin: miter; stroke-linecap: square"/>
   </g>
   <g id="patch_5">
    <path d="M 72 320.4 
L 518.4 320.4 
" style="fill: none; stroke: #000000; stroke-width: 0.8; stroke-linejoin: miter; stroke-linecap: square"/>
   </g>
   <g id="patch_6">
    <path d="M 72 43.2 
L 518.4 43.2 
" style="fill: none; stroke: #000000; stroke-width: 0.8; stroke-linejoin: miter; stroke-linecap: square"/>
   </g>
   <g id="text_13">
    <!-- Classic Transformer - model_20231123170731 -->
    <g transform="translate(155.436563 37.2) scale(0.12 -0.12)">
     <defs>
      <path id="DejaVuSans-43" d="M 4122 4306 
L 4122 3641 
Q 3803 3938 3442 4084 
Q 3081 4231 2675 4231 
Q 1875 4231 1450 3742 
Q 1025 3253 1025 2328 
Q 1025 1406 1450 917 
Q 1875 428 2675 428 
Q 3081 428 3442 575 
Q 3803 722 4122 1019 
L 4122 359 
Q 3791 134 3420 21 
Q 3050 -91 2638 -91 
Q 1578 -91 968 557 
Q 359 1206 359 2328 
Q 359 3453 968 4101 
Q 1578 4750 2638 4750 
Q 3056 4750 3426 4639 
Q 3797 4528 4122 4306 
z
" transform="scale(0.015625)"/>
      <path id="DejaVuSans-6c" d="M 603 4863 
L 1178 4863 
L 1178 0 
L 603 0 
L 603 4863 
z
" transform="scale(0.015625)"/>
      <path id="DejaVuSans-61" d="M 2194 1759 
Q 1497 1759 1228 1600 
Q 959 1441 959 1056 
Q 959 750 1161 570 
Q 1363 391 1709 391 
Q 2188 391 2477 730 
Q 2766 1069 2766 1631 
L 2766 1759 
L 2194 1759 
z
M 3341 1997 
L 3341 0 
L 2766 0 
L 2766 531 
Q 2569 213 2275 61 
Q 1981 -91 1556 -91 
Q 1019 -91 701 211 
Q 384 513 384 1019 
Q 384 1609 779 1909 
Q 1175 2209 1959 2209 
L 2766 2209 
L 2766 2266 
Q 2766 2663 2505 2880 
Q 2244 3097 1772 3097 
Q 1472 3097 1187 3025 
Q 903 2953 641 2809 
L 641 3341 
Q 956 3463 1253 3523 
Q 1550 3584 1831 3584 
Q 2591 3584 2966 3190 
Q 3341 2797 3341 1997 
z
" transform="scale(0.015625)"/>
      <path id="DejaVuSans-73" d="M 2834 3397 
L 2834 2853 
Q 2591 2978 2328 3040 
Q 2066 3103 1784 3103 
Q 1356 3103 1142 2972 
Q 928 2841 928 2578 
Q 928 2378 1081 2264 
Q 1234 2150 1697 2047 
L 1894 2003 
Q 2506 1872 2764 1633 
Q 3022 1394 3022 966 
Q 3022 478 2636 193 
Q 2250 -91 1575 -91 
Q 1294 -91 989 -36 
Q 684 19 347 128 
L 347 722 
Q 666 556 975 473 
Q 1284 391 1588 391 
Q 1994 391 2212 530 
Q 2431 669 2431 922 
Q 2431 1156 2273 1281 
Q 2116 1406 1581 1522 
L 1381 1569 
Q 847 1681 609 1914 
Q 372 2147 372 2553 
Q 372 3047 722 3315 
Q 1072 3584 1716 3584 
Q 2034 3584 2315 3537 
Q 2597 3491 2834 3397 
z
" transform="scale(0.015625)"/>
      <path id="DejaVuSans-69" d="M 603 3500 
L 1178 3500 
L 1178 0 
L 603 0 
L 603 3500 
z
M 603 4863 
L 1178 4863 
L 1178 4134 
L 603 4134 
L 603 4863 
z
" transform="scale(0.015625)"/>
      <path id="DejaVuSans-63" d="M 3122 3366 
L 3122 2828 
Q 2878 2963 2633 3030 
Q 2388 3097 2138 3097 
Q 1578 3097 1268 2742 
Q 959 2388 959 1747 
Q 959 1106 1268 751 
Q 1578 397 2138 397 
Q 2388 397 2633 464 
Q 2878 531 3122 666 
L 3122 134 
Q 2881 22 2623 -34 
Q 2366 -91 2075 -91 
Q 1284 -91 818 406 
Q 353 903 353 1747 
Q 353 2603 823 3093 
Q 1294 3584 2113 3584 
Q 2378 3584 2631 3529 
Q 2884 3475 3122 3366 
z
" transform="scale(0.015625)"/>
      <path id="DejaVuSans-20" transform="scale(0.015625)"/>
      <path id="DejaVuSans-54" d="M -19 4666 
L 3928 4666 
L 3928 4134 
L 2272 4134 
L 2272 0 
L 1638 0 
L 1638 4134 
L -19 4134 
L -19 4666 
z
" transform="scale(0.015625)"/>
      <path id="DejaVuSans-72" d="M 2631 2963 
Q 2534 3019 2420 3045 
Q 2306 3072 2169 3072 
Q 1681 3072 1420 2755 
Q 1159 2438 1159 1844 
L 1159 0 
L 581 0 
L 581 3500 
L 1159 3500 
L 1159 2956 
Q 1341 3275 1631 3429 
Q 1922 3584 2338 3584 
Q 2397 3584 2469 3576 
Q 2541 3569 2628 3553 
L 2631 2963 
z
" transform="scale(0.015625)"/>
      <path id="DejaVuSans-6e" d="M 3513 2113 
L 3513 0 
L 2938 0 
L 2938 2094 
Q 2938 2591 2744 2837 
Q 2550 3084 2163 3084 
Q 1697 3084 1428 2787 
Q 1159 2491 1159 1978 
L 1159 0 
L 581 0 
L 581 3500 
L 1159 3500 
L 1159 2956 
Q 1366 3272 1645 3428 
Q 1925 3584 2291 3584 
Q 2894 3584 3203 3211 
Q 3513 2838 3513 2113 
z
" transform="scale(0.015625)"/>
      <path id="DejaVuSans-66" d="M 2375 4863 
L 2375 4384 
L 1825 4384 
Q 1516 4384 1395 4259 
Q 1275 4134 1275 3809 
L 1275 3500 
L 2222 3500 
L 2222 3053 
L 1275 3053 
L 1275 0 
L 697 0 
L 697 3053 
L 147 3053 
L 147 3500 
L 697 3500 
L 697 3744 
Q 697 4328 969 4595 
Q 1241 4863 1831 4863 
L 2375 4863 
z
" transform="scale(0.015625)"/>
      <path id="DejaVuSans-6f" d="M 1959 3097 
Q 1497 3097 1228 2736 
Q 959 2375 959 1747 
Q 959 1119 1226 758 
Q 1494 397 1959 397 
Q 2419 397 2687 759 
Q 2956 1122 2956 1747 
Q 2956 2369 2687 2733 
Q 2419 3097 1959 3097 
z
M 1959 3584 
Q 2709 3584 3137 3096 
Q 3566 2609 3566 1747 
Q 3566 888 3137 398 
Q 2709 -91 1959 -91 
Q 1206 -91 779 398 
Q 353 888 353 1747 
Q 353 2609 779 3096 
Q 1206 3584 1959 3584 
z
" transform="scale(0.015625)"/>
      <path id="DejaVuSans-6d" d="M 3328 2828 
Q 3544 3216 3844 3400 
Q 4144 3584 4550 3584 
Q 5097 3584 5394 3201 
Q 5691 2819 5691 2113 
L 5691 0 
L 5113 0 
L 5113 2094 
Q 5113 2597 4934 2840 
Q 4756 3084 4391 3084 
Q 3944 3084 3684 2787 
Q 3425 2491 3425 1978 
L 3425 0 
L 2847 0 
L 2847 2094 
Q 2847 2600 2669 2842 
Q 2491 3084 2119 3084 
Q 1678 3084 1418 2786 
Q 1159 2488 1159 1978 
L 1159 0 
L 581 0 
L 581 3500 
L 1159 3500 
L 1159 2956 
Q 1356 3278 1631 3431 
Q 1906 3584 2284 3584 
Q 2666 3584 2933 3390 
Q 3200 3197 3328 2828 
z
" transform="scale(0.015625)"/>
      <path id="DejaVuSans-65" d="M 3597 1894 
L 3597 1613 
L 953 1613 
Q 991 1019 1311 708 
Q 1631 397 2203 397 
Q 2534 397 2845 478 
Q 3156 559 3463 722 
L 3463 178 
Q 3153 47 2828 -22 
Q 2503 -91 2169 -91 
Q 1331 -91 842 396 
Q 353 884 353 1716 
Q 353 2575 817 3079 
Q 1281 3584 2069 3584 
Q 2775 3584 3186 3129 
Q 3597 2675 3597 1894 
z
M 3022 2063 
Q 3016 2534 2758 2815 
Q 2500 3097 2075 3097 
Q 1594 3097 1305 2825 
Q 1016 2553 972 2059 
L 3022 2063 
z
" transform="scale(0.015625)"/>
      <path id="DejaVuSans-64" d="M 2906 2969 
L 2906 4863 
L 3481 4863 
L 3481 0 
L 2906 0 
L 2906 525 
Q 2725 213 2448 61 
Q 2172 -91 1784 -91 
Q 1150 -91 751 415 
Q 353 922 353 1747 
Q 353 2572 751 3078 
Q 1150 3584 1784 3584 
Q 2172 3584 2448 3432 
Q 2725 3281 2906 2969 
z
M 947 1747 
Q 947 1113 1208 752 
Q 1469 391 1925 391 
Q 2381 391 2643 752 
Q 2906 1113 2906 1747 
Q 2906 2381 2643 2742 
Q 2381 3103 1925 3103 
Q 1469 3103 1208 2742 
Q 947 2381 947 1747 
z
" transform="scale(0.015625)"/>
      <path id="DejaVuSans-5f" d="M 3263 -1063 
L 3263 -1509 
L -63 -1509 
L -63 -1063 
L 3263 -1063 
z
" transform="scale(0.015625)"/>
     </defs>
     <use xlink:href="#DejaVuSans-43"/>
     <use xlink:href="#DejaVuSans-6c" x="69.824219"/>
     <use xlink:href="#DejaVuSans-61" x="97.607422"/>
     <use xlink:href="#DejaVuSans-73" x="158.886719"/>
     <use xlink:href="#DejaVuSans-73" x="210.986328"/>
     <use xlink:href="#DejaVuSans-69" x="263.085938"/>
     <use xlink:href="#DejaVuSans-63" x="290.869141"/>
     <use xlink:href="#DejaVuSans-20" x="345.849609"/>
     <use xlink:href="#DejaVuSans-54" x="377.636719"/>
     <use xlink:href="#DejaVuSans-72" x="423.970703"/>
     <use xlink:href="#DejaVuSans-61" x="465.083984"/>
     <use xlink:href="#DejaVuSans-6e" x="526.363281"/>
     <use xlink:href="#DejaVuSans-73" x="589.742188"/>
     <use xlink:href="#DejaVuSans-66" x="641.841797"/>
     <use xlink:href="#DejaVuSans-6f" x="677.046875"/>
     <use xlink:href="#DejaVuSans-72" x="738.228516"/>
     <use xlink:href="#DejaVuSans-6d" x="777.591797"/>
     <use xlink:href="#DejaVuSans-65" x="875.003906"/>
     <use xlink:href="#DejaVuSans-72" x="936.527344"/>
     <use xlink:href="#DejaVuSans-20" x="977.640625"/>
     <use xlink:href="#DejaVuSans-2d" x="1009.427734"/>
     <use xlink:href="#DejaVuSans-20" x="1045.511719"/>
     <use xlink:href="#DejaVuSans-6d" x="1077.298828"/>
     <use xlink:href="#DejaVuSans-6f" x="1174.710938"/>
     <use xlink:href="#DejaVuSans-64" x="1235.892578"/>
     <use xlink:href="#DejaVuSans-65" x="1299.369141"/>
     <use xlink:href="#DejaVuSans-6c" x="1360.892578"/>
     <use xlink:href="#DejaVuSans-5f" x="1388.675781"/>
     <use xlink:href="#DejaVuSans-32" x="1438.675781"/>
     <use xlink:href="#DejaVuSans-30" x="1502.298828"/>
     <use xlink:href="#DejaVuSans-32" x="1565.921875"/>
     <use xlink:href="#DejaVuSans-33" x="1629.544922"/>
     <use xlink:href="#DejaVuSans-31" x="1693.167969"/>
     <use xlink:href="#DejaVuSans-31" x="1756.791016"/>
     <use xlink:href="#DejaVuSans-32" x="1820.414062"/>
     <use xlink:href="#DejaVuSans-33" x="1884.037109"/>
     <use xlink:href="#DejaVuSans-31" x="1947.660156"/>
     <use xlink:href="#DejaVuSans-37" x="2011.283203"/>
     <use xlink:href="#DejaVuSans-30" x="2074.90625"/>
     <use xlink:href="#DejaVuSans-37" x="2138.529297"/>
     <use xlink:href="#DejaVuSans-33" x="2202.152344"/>
     <use xlink:href="#DejaVuSans-31" x="2265.775391"/>
    </g>
   </g>
   <g id="legend_1">
    <g id="patch_7">
     <path d="M 79 95.234375 
L 161.517188 95.234375 
Q 163.517188 95.234375 163.517188 93.234375 
L 163.517188 50.2 
Q 163.517188 48.2 161.517188 48.2 
L 79 48.2 
Q 77 48.2 77 50.2 
L 77 93.234375 
Q 77 95.234375 79 95.234375 
z
" style="fill: #ffffff; opacity: 0.8; stroke: #cccccc; stroke-linejoin: miter"/>
    </g>
    <g id="line2d_16">
     <path d="M 81 56.298437 
L 91 56.298437 
L 101 56.298437 
" style="fill: none; stroke: #1f77b4; stroke-width: 1.5; stroke-linecap: square"/>
    </g>
    <g id="text_14">
     <!-- Measured -->
     <g transform="translate(109 59.798437) scale(0.1 -0.1)">
      <defs>
       <path id="DejaVuSans-4d" d="M 628 4666 
L 1569 4666 
L 2759 1491 
L 3956 4666 
L 4897 4666 
L 4897 0 
L 4281 0 
L 4281 4097 
L 3078 897 
L 2444 897 
L 1241 4097 
L 1241 0 
L 628 0 
L 628 4666 
z
" transform="scale(0.015625)"/>
       <path id="DejaVuSans-75" d="M 544 1381 
L 544 3500 
L 1119 3500 
L 1119 1403 
Q 1119 906 1312 657 
Q 1506 409 1894 409 
Q 2359 409 2629 706 
Q 2900 1003 2900 1516 
L 2900 3500 
L 3475 3500 
L 3475 0 
L 2900 0 
L 2900 538 
Q 2691 219 2414 64 
Q 2138 -91 1772 -91 
Q 1169 -91 856 284 
Q 544 659 544 1381 
z
M 1991 3584 
L 1991 3584 
z
" transform="scale(0.015625)"/>
      </defs>
      <use xlink:href="#DejaVuSans-4d"/>
      <use xlink:href="#DejaVuSans-65" x="86.279297"/>
      <use xlink:href="#DejaVuSans-61" x="147.802734"/>
      <use xlink:href="#DejaVuSans-73" x="209.082031"/>
      <use xlink:href="#DejaVuSans-75" x="261.181641"/>
      <use xlink:href="#DejaVuSans-72" x="324.560547"/>
      <use xlink:href="#DejaVuSans-65" x="363.423828"/>
      <use xlink:href="#DejaVuSans-64" x="424.947266"/>
     </g>
    </g>
    <g id="line2d_17">
     <path d="M 81 70.976562 
L 91 70.976562 
L 101 70.976562 
" style="fill: none; stroke: #ff7f0e; stroke-width: 1.5; stroke-linecap: square"/>
    </g>
    <g id="text_15">
     <!-- Fitted -->
     <g transform="translate(109 74.476562) scale(0.1 -0.1)">
      <defs>
       <path id="DejaVuSans-46" d="M 628 4666 
L 3309 4666 
L 3309 4134 
L 1259 4134 
L 1259 2759 
L 3109 2759 
L 3109 2228 
L 1259 2228 
L 1259 0 
L 628 0 
L 628 4666 
z
" transform="scale(0.015625)"/>
       <path id="DejaVuSans-74" d="M 1172 4494 
L 1172 3500 
L 2356 3500 
L 2356 3053 
L 1172 3053 
L 1172 1153 
Q 1172 725 1289 603 
Q 1406 481 1766 481 
L 2356 481 
L 2356 0 
L 1766 0 
Q 1100 0 847 248 
Q 594 497 594 1153 
L 594 3053 
L 172 3053 
L 172 3500 
L 594 3500 
L 594 4494 
L 1172 4494 
z
" transform="scale(0.015625)"/>
      </defs>
      <use xlink:href="#DejaVuSans-46"/>
      <use xlink:href="#DejaVuSans-69" x="50.269531"/>
      <use xlink:href="#DejaVuSans-74" x="78.052734"/>
      <use xlink:href="#DejaVuSans-74" x="117.261719"/>
      <use xlink:href="#DejaVuSans-65" x="156.470703"/>
      <use xlink:href="#DejaVuSans-64" x="217.994141"/>
     </g>
    </g>
    <g id="line2d_18">
     <path d="M 81 85.654687 
L 91 85.654687 
L 101 85.654687 
" style="fill: none; stroke: #2ca02c; stroke-width: 1.5; stroke-linecap: square"/>
    </g>
    <g id="text_16">
     <!-- Estimated -->
     <g transform="translate(109 89.154687) scale(0.1 -0.1)">
      <defs>
       <path id="DejaVuSans-45" d="M 628 4666 
L 3578 4666 
L 3578 4134 
L 1259 4134 
L 1259 2753 
L 3481 2753 
L 3481 2222 
L 1259 2222 
L 1259 531 
L 3634 531 
L 3634 0 
L 628 0 
L 628 4666 
z
" transform="scale(0.015625)"/>
      </defs>
      <use xlink:href="#DejaVuSans-45"/>
      <use xlink:href="#DejaVuSans-73" x="63.183594"/>
      <use xlink:href="#DejaVuSans-74" x="115.283203"/>
      <use xlink:href="#DejaVuSans-69" x="154.492188"/>
      <use xlink:href="#DejaVuSans-6d" x="182.275391"/>
      <use xlink:href="#DejaVuSans-61" x="279.6875"/>
      <use xlink:href="#DejaVuSans-74" x="340.966797"/>
      <use xlink:href="#DejaVuSans-65" x="380.175781"/>
      <use xlink:href="#DejaVuSans-64" x="441.699219"/>
     </g>
    </g>
   </g>
  </g>
 </g>
 <defs>
  <clipPath id="pfcfa3b164f">
   <rect x="72" y="43.2" width="446.4" height="277.2"/>
  </clipPath>
 </defs>
</svg>
