<?xml version="1.0" encoding="utf-8" standalone="no"?>
<!DOCTYPE svg PUBLIC "-//W3C//DTD SVG 1.1//EN"
  "http://www.w3.org/Graphics/SVG/1.1/DTD/svg11.dtd">
<svg xmlns:xlink="http://www.w3.org/1999/xlink" width="576pt" height="360pt" viewBox="0 0 576 360" xmlns="http://www.w3.org/2000/svg" version="1.1">
 <metadata>
  <rdf:RDF xmlns:dc="http://purl.org/dc/elements/1.1/" xmlns:cc="http://creativecommons.org/ns#" xmlns:rdf="http://www.w3.org/1999/02/22-rdf-syntax-ns#">
   <cc:Work>
    <dc:type rdf:resource="http://purl.org/dc/dcmitype/StillImage"/>
    <dc:date>2023-11-23T16:21:14.456769</dc:date>
    <dc:format>image/svg+xml</dc:format>
    <dc:creator>
     <cc:Agent>
      <dc:title>Matplotlib v3.8.1, https://matplotlib.org/</dc:title>
     </cc:Agent>
    </dc:creator>
   </cc:Work>
  </rdf:RDF>
 </metadata>
 <defs>
  <style type="text/css">*{stroke-linejoin: round; stroke-linecap: butt}</style>
 </defs>
 <g id="figure_1">
  <g id="patch_1">
   <path d="M 0 360 
L 576 360 
L 576 0 
L 0 0 
z
" style="fill: #ffffff"/>
  </g>
  <g id="axes_1">
   <g id="patch_2">
    <path d="M 72 320.4 
L 518.4 320.4 
L 518.4 43.2 
L 72 43.2 
z
" style="fill: #ffffff"/>
   </g>
   <g id="matplotlib.axis_1">
    <g id="xtick_1">
     <g id="line2d_1">
      <defs>
       <path id="m0c060cfdfc" d="M 0 0 
L 0 3.5 
" style="stroke: #000000; stroke-width: 0.8"/>
      </defs>
      <g>
       <use xlink:href="#m0c060cfdfc" x="129.874161" y="320.4" style="stroke: #000000; stroke-width: 0.8"/>
      </g>
     </g>
     <g id="text_1">
      <!-- 2020-05-15 -->
      <g transform="translate(100.816349 334.998438) scale(0.1 -0.1)">
       <defs>
        <path id="DejaVuSans-32" d="M 1228 531 
L 3431 531 
L 3431 0 
L 469 0 
L 469 531 
Q 828 903 1448 1529 
Q 2069 2156 2228 2338 
Q 2531 2678 2651 2914 
Q 2772 3150 2772 3378 
Q 2772 3750 2511 3984 
Q 2250 4219 1831 4219 
Q 1534 4219 1204 4116 
Q 875 4013 500 3803 
L 500 4441 
Q 881 4594 1212 4672 
Q 1544 4750 1819 4750 
Q 2544 4750 2975 4387 
Q 3406 4025 3406 3419 
Q 3406 3131 3298 2873 
Q 3191 2616 2906 2266 
Q 2828 2175 2409 1742 
Q 1991 1309 1228 531 
z
" transform="scale(0.015625)"/>
        <path id="DejaVuSans-30" d="M 2034 4250 
Q 1547 4250 1301 3770 
Q 1056 3291 1056 2328 
Q 1056 1369 1301 889 
Q 1547 409 2034 409 
Q 2525 409 2770 889 
Q 3016 1369 3016 2328 
Q 3016 3291 2770 3770 
Q 2525 4250 2034 4250 
z
M 2034 4750 
Q 2819 4750 3233 4129 
Q 3647 3509 3647 2328 
Q 3647 1150 3233 529 
Q 2819 -91 2034 -91 
Q 1250 -91 836 529 
Q 422 1150 422 2328 
Q 422 3509 836 4129 
Q 1250 4750 2034 4750 
z
" transform="scale(0.015625)"/>
        <path id="DejaVuSans-2d" d="M 313 2009 
L 1997 2009 
L 1997 1497 
L 313 1497 
L 313 2009 
z
" transform="scale(0.015625)"/>
        <path id="DejaVuSans-35" d="M 691 4666 
L 3169 4666 
L 3169 4134 
L 1269 4134 
L 1269 2991 
Q 1406 3038 1543 3061 
Q 1681 3084 1819 3084 
Q 2600 3084 3056 2656 
Q 3513 2228 3513 1497 
Q 3513 744 3044 326 
Q 2575 -91 1722 -91 
Q 1428 -91 1123 -41 
Q 819 9 494 109 
L 494 744 
Q 775 591 1075 516 
Q 1375 441 1709 441 
Q 2250 441 2565 725 
Q 2881 1009 2881 1497 
Q 2881 1984 2565 2268 
Q 2250 2553 1709 2553 
Q 1456 2553 1204 2497 
Q 953 2441 691 2322 
L 691 4666 
z
" transform="scale(0.015625)"/>
        <path id="DejaVuSans-31" d="M 794 531 
L 1825 531 
L 1825 4091 
L 703 3866 
L 703 4441 
L 1819 4666 
L 2450 4666 
L 2450 531 
L 3481 531 
L 3481 0 
L 794 0 
L 794 531 
z
" transform="scale(0.015625)"/>
       </defs>
       <use xlink:href="#DejaVuSans-32"/>
       <use xlink:href="#DejaVuSans-30" x="63.623047"/>
       <use xlink:href="#DejaVuSans-32" x="127.246094"/>
       <use xlink:href="#DejaVuSans-30" x="190.869141"/>
       <use xlink:href="#DejaVuSans-2d" x="254.492188"/>
       <use xlink:href="#DejaVuSans-30" x="290.576172"/>
       <use xlink:href="#DejaVuSans-35" x="354.199219"/>
       <use xlink:href="#DejaVuSans-2d" x="417.822266"/>
       <use xlink:href="#DejaVuSans-31" x="453.90625"/>
       <use xlink:href="#DejaVuSans-35" x="517.529297"/>
      </g>
     </g>
    </g>
    <g id="xtick_2">
     <g id="line2d_2">
      <g>
       <use xlink:href="#m0c060cfdfc" x="212.435902" y="320.4" style="stroke: #000000; stroke-width: 0.8"/>
      </g>
     </g>
     <g id="text_2">
      <!-- 2020-06-01 -->
      <g transform="translate(183.37809 334.998438) scale(0.1 -0.1)">
       <defs>
        <path id="DejaVuSans-36" d="M 2113 2584 
Q 1688 2584 1439 2293 
Q 1191 2003 1191 1497 
Q 1191 994 1439 701 
Q 1688 409 2113 409 
Q 2538 409 2786 701 
Q 3034 994 3034 1497 
Q 3034 2003 2786 2293 
Q 2538 2584 2113 2584 
z
M 3366 4563 
L 3366 3988 
Q 3128 4100 2886 4159 
Q 2644 4219 2406 4219 
Q 1781 4219 1451 3797 
Q 1122 3375 1075 2522 
Q 1259 2794 1537 2939 
Q 1816 3084 2150 3084 
Q 2853 3084 3261 2657 
Q 3669 2231 3669 1497 
Q 3669 778 3244 343 
Q 2819 -91 2113 -91 
Q 1303 -91 875 529 
Q 447 1150 447 2328 
Q 447 3434 972 4092 
Q 1497 4750 2381 4750 
Q 2619 4750 2861 4703 
Q 3103 4656 3366 4563 
z
" transform="scale(0.015625)"/>
       </defs>
       <use xlink:href="#DejaVuSans-32"/>
       <use xlink:href="#DejaVuSans-30" x="63.623047"/>
       <use xlink:href="#DejaVuSans-32" x="127.246094"/>
       <use xlink:href="#DejaVuSans-30" x="190.869141"/>
       <use xlink:href="#DejaVuSans-2d" x="254.492188"/>
       <use xlink:href="#DejaVuSans-30" x="290.576172"/>
       <use xlink:href="#DejaVuSans-36" x="354.199219"/>
       <use xlink:href="#DejaVuSans-2d" x="417.822266"/>
       <use xlink:href="#DejaVuSans-30" x="453.90625"/>
       <use xlink:href="#DejaVuSans-31" x="517.529297"/>
      </g>
     </g>
    </g>
    <g id="xtick_3">
     <g id="line2d_3">
      <g>
       <use xlink:href="#m0c060cfdfc" x="280.427924" y="320.4" style="stroke: #000000; stroke-width: 0.8"/>
      </g>
     </g>
     <g id="text_3">
      <!-- 2020-06-15 -->
      <g transform="translate(251.370111 334.998438) scale(0.1 -0.1)">
       <use xlink:href="#DejaVuSans-32"/>
       <use xlink:href="#DejaVuSans-30" x="63.623047"/>
       <use xlink:href="#DejaVuSans-32" x="127.246094"/>
       <use xlink:href="#DejaVuSans-30" x="190.869141"/>
       <use xlink:href="#DejaVuSans-2d" x="254.492188"/>
       <use xlink:href="#DejaVuSans-30" x="290.576172"/>
       <use xlink:href="#DejaVuSans-36" x="354.199219"/>
       <use xlink:href="#DejaVuSans-2d" x="417.822266"/>
       <use xlink:href="#DejaVuSans-31" x="453.90625"/>
       <use xlink:href="#DejaVuSans-35" x="517.529297"/>
      </g>
     </g>
    </g>
    <g id="xtick_4">
     <g id="line2d_4">
      <g>
       <use xlink:href="#m0c060cfdfc" x="358.133092" y="320.4" style="stroke: #000000; stroke-width: 0.8"/>
      </g>
     </g>
     <g id="text_4">
      <!-- 2020-07-01 -->
      <g transform="translate(329.075279 334.998438) scale(0.1 -0.1)">
       <defs>
        <path id="DejaVuSans-37" d="M 525 4666 
L 3525 4666 
L 3525 4397 
L 1831 0 
L 1172 0 
L 2766 4134 
L 525 4134 
L 525 4666 
z
" transform="scale(0.015625)"/>
       </defs>
       <use xlink:href="#DejaVuSans-32"/>
       <use xlink:href="#DejaVuSans-30" x="63.623047"/>
       <use xlink:href="#DejaVuSans-32" x="127.246094"/>
       <use xlink:href="#DejaVuSans-30" x="190.869141"/>
       <use xlink:href="#DejaVuSans-2d" x="254.492188"/>
       <use xlink:href="#DejaVuSans-30" x="290.576172"/>
       <use xlink:href="#DejaVuSans-37" x="354.199219"/>
       <use xlink:href="#DejaVuSans-2d" x="417.822266"/>
       <use xlink:href="#DejaVuSans-30" x="453.90625"/>
       <use xlink:href="#DejaVuSans-31" x="517.529297"/>
      </g>
     </g>
    </g>
    <g id="xtick_5">
     <g id="line2d_5">
      <g>
       <use xlink:href="#m0c060cfdfc" x="426.125113" y="320.4" style="stroke: #000000; stroke-width: 0.8"/>
      </g>
     </g>
     <g id="text_5">
      <!-- 2020-07-15 -->
      <g transform="translate(397.067301 334.998438) scale(0.1 -0.1)">
       <use xlink:href="#DejaVuSans-32"/>
       <use xlink:href="#DejaVuSans-30" x="63.623047"/>
       <use xlink:href="#DejaVuSans-32" x="127.246094"/>
       <use xlink:href="#DejaVuSans-30" x="190.869141"/>
       <use xlink:href="#DejaVuSans-2d" x="254.492188"/>
       <use xlink:href="#DejaVuSans-30" x="290.576172"/>
       <use xlink:href="#DejaVuSans-37" x="354.199219"/>
       <use xlink:href="#DejaVuSans-2d" x="417.822266"/>
       <use xlink:href="#DejaVuSans-31" x="453.90625"/>
       <use xlink:href="#DejaVuSans-35" x="517.529297"/>
      </g>
     </g>
    </g>
    <g id="xtick_6">
     <g id="line2d_6">
      <g>
       <use xlink:href="#m0c060cfdfc" x="508.686854" y="320.4" style="stroke: #000000; stroke-width: 0.8"/>
      </g>
     </g>
     <g id="text_6">
      <!-- 2020-08-01 -->
      <g transform="translate(479.629042 334.998438) scale(0.1 -0.1)">
       <defs>
        <path id="DejaVuSans-38" d="M 2034 2216 
Q 1584 2216 1326 1975 
Q 1069 1734 1069 1313 
Q 1069 891 1326 650 
Q 1584 409 2034 409 
Q 2484 409 2743 651 
Q 3003 894 3003 1313 
Q 3003 1734 2745 1975 
Q 2488 2216 2034 2216 
z
M 1403 2484 
Q 997 2584 770 2862 
Q 544 3141 544 3541 
Q 544 4100 942 4425 
Q 1341 4750 2034 4750 
Q 2731 4750 3128 4425 
Q 3525 4100 3525 3541 
Q 3525 3141 3298 2862 
Q 3072 2584 2669 2484 
Q 3125 2378 3379 2068 
Q 3634 1759 3634 1313 
Q 3634 634 3220 271 
Q 2806 -91 2034 -91 
Q 1263 -91 848 271 
Q 434 634 434 1313 
Q 434 1759 690 2068 
Q 947 2378 1403 2484 
z
M 1172 3481 
Q 1172 3119 1398 2916 
Q 1625 2713 2034 2713 
Q 2441 2713 2670 2916 
Q 2900 3119 2900 3481 
Q 2900 3844 2670 4047 
Q 2441 4250 2034 4250 
Q 1625 4250 1398 4047 
Q 1172 3844 1172 3481 
z
" transform="scale(0.015625)"/>
       </defs>
       <use xlink:href="#DejaVuSans-32"/>
       <use xlink:href="#DejaVuSans-30" x="63.623047"/>
       <use xlink:href="#DejaVuSans-32" x="127.246094"/>
       <use xlink:href="#DejaVuSans-30" x="190.869141"/>
       <use xlink:href="#DejaVuSans-2d" x="254.492188"/>
       <use xlink:href="#DejaVuSans-30" x="290.576172"/>
       <use xlink:href="#DejaVuSans-38" x="354.199219"/>
       <use xlink:href="#DejaVuSans-2d" x="417.822266"/>
       <use xlink:href="#DejaVuSans-30" x="453.90625"/>
       <use xlink:href="#DejaVuSans-31" x="517.529297"/>
      </g>
     </g>
    </g>
   </g>
   <g id="matplotlib.axis_2">
    <g id="ytick_1">
     <g id="line2d_7">
      <defs>
       <path id="m5fd6f715ce" d="M 0 0 
L -3.5 0 
" style="stroke: #000000; stroke-width: 0.8"/>
      </defs>
      <g>
       <use xlink:href="#m5fd6f715ce" x="72" y="315.850072" style="stroke: #000000; stroke-width: 0.8"/>
      </g>
     </g>
     <g id="text_7">
      <!-- −2 -->
      <g transform="translate(50.257812 319.649291) scale(0.1 -0.1)">
       <defs>
        <path id="DejaVuSans-2212" d="M 678 2272 
L 4684 2272 
L 4684 1741 
L 678 1741 
L 678 2272 
z
" transform="scale(0.015625)"/>
       </defs>
       <use xlink:href="#DejaVuSans-2212"/>
       <use xlink:href="#DejaVuSans-32" x="83.789062"/>
      </g>
     </g>
    </g>
    <g id="ytick_2">
     <g id="line2d_8">
      <g>
       <use xlink:href="#m5fd6f715ce" x="72" y="263.229025" style="stroke: #000000; stroke-width: 0.8"/>
      </g>
     </g>
     <g id="text_8">
      <!-- −1 -->
      <g transform="translate(50.257812 267.028244) scale(0.1 -0.1)">
       <use xlink:href="#DejaVuSans-2212"/>
       <use xlink:href="#DejaVuSans-31" x="83.789062"/>
      </g>
     </g>
    </g>
    <g id="ytick_3">
     <g id="line2d_9">
      <g>
       <use xlink:href="#m5fd6f715ce" x="72" y="210.607978" style="stroke: #000000; stroke-width: 0.8"/>
      </g>
     </g>
     <g id="text_9">
      <!-- 0 -->
      <g transform="translate(58.6375 214.407197) scale(0.1 -0.1)">
       <use xlink:href="#DejaVuSans-30"/>
      </g>
     </g>
    </g>
    <g id="ytick_4">
     <g id="line2d_10">
      <g>
       <use xlink:href="#m5fd6f715ce" x="72" y="157.986932" style="stroke: #000000; stroke-width: 0.8"/>
      </g>
     </g>
     <g id="text_10">
      <!-- 1 -->
      <g transform="translate(58.6375 161.78615) scale(0.1 -0.1)">
       <use xlink:href="#DejaVuSans-31"/>
      </g>
     </g>
    </g>
    <g id="ytick_5">
     <g id="line2d_11">
      <g>
       <use xlink:href="#m5fd6f715ce" x="72" y="105.365885" style="stroke: #000000; stroke-width: 0.8"/>
      </g>
     </g>
     <g id="text_11">
      <!-- 2 -->
      <g transform="translate(58.6375 109.165104) scale(0.1 -0.1)">
       <use xlink:href="#DejaVuSans-32"/>
      </g>
     </g>
    </g>
    <g id="ytick_6">
     <g id="line2d_12">
      <g>
       <use xlink:href="#m5fd6f715ce" x="72" y="52.744838" style="stroke: #000000; stroke-width: 0.8"/>
      </g>
     </g>
     <g id="text_12">
      <!-- 3 -->
      <g transform="translate(58.6375 56.544057) scale(0.1 -0.1)">
       <defs>
        <path id="DejaVuSans-33" d="M 2597 2516 
Q 3050 2419 3304 2112 
Q 3559 1806 3559 1356 
Q 3559 666 3084 287 
Q 2609 -91 1734 -91 
Q 1441 -91 1130 -33 
Q 819 25 488 141 
L 488 750 
Q 750 597 1062 519 
Q 1375 441 1716 441 
Q 2309 441 2620 675 
Q 2931 909 2931 1356 
Q 2931 1769 2642 2001 
Q 2353 2234 1838 2234 
L 1294 2234 
L 1294 2753 
L 1863 2753 
Q 2328 2753 2575 2939 
Q 2822 3125 2822 3475 
Q 2822 3834 2567 4026 
Q 2313 4219 1838 4219 
Q 1578 4219 1281 4162 
Q 984 4106 628 3988 
L 628 4550 
Q 988 4650 1302 4700 
Q 1616 4750 1894 4750 
Q 2613 4750 3031 4423 
Q 3450 4097 3450 3541 
Q 3450 3153 3228 2886 
Q 3006 2619 2597 2516 
z
" transform="scale(0.015625)"/>
       </defs>
       <use xlink:href="#DejaVuSans-33"/>
      </g>
     </g>
    </g>
   </g>
   <g id="line2d_13">
    <path d="M 72 287.458737 
L 72.404714 298.610292 
L 72.607072 296.916908 
L 72.809429 286.426185 
L 73.214143 256.027871 
L 73.618858 243.802462 
L 75.035358 162.230899 
L 75.237715 159.319104 
L 75.440073 164.296002 
L 75.64243 172.370554 
L 75.844787 175.612766 
L 76.047144 190.605413 
L 76.654216 259.703754 
L 77.05893 283.369833 
L 77.261287 287.665247 
L 77.463645 287.293529 
L 77.666002 276.761504 
L 78.070716 248.738058 
L 78.475431 236.471347 
L 78.677788 227.48815 
L 79.487217 171.441258 
L 79.891931 155.436711 
L 80.094288 157.357257 
L 80.903717 199.072334 
L 81.713146 273.168225 
L 82.11786 287.582643 
L 82.320218 289.585793 
L 82.522575 289.296678 
L 82.724932 286.818555 
L 82.927289 280.106971 
L 83.332004 257.494094 
L 83.736718 243.410093 
L 83.939075 240.415694 
L 84.141432 240.684157 
L 84.546147 246.982721 
L 84.748504 249.047824 
L 84.950861 249.068475 
L 85.355576 253.19868 
L 85.557933 249.915167 
L 85.76029 255.945267 
L 86.569719 300.17977 
L 86.772076 306.168569 
L 86.974433 307.738047 
L 87.176791 307.8 
L 87.379148 306.478334 
L 87.581505 302.802451 
L 87.783862 296.15282 
L 88.188577 274.448589 
L 88.390934 269.347785 
L 89.200363 261.397139 
L 89.40272 257.328886 
L 89.807434 242.769911 
L 90.212149 240.353741 
L 90.414506 237.689758 
L 90.616863 245.516498 
L 91.223935 295.306128 
L 91.628649 306.168569 
L 91.831006 306.230522 
L 92.033364 303.773049 
L 92.842792 258.340786 
L 93.04515 256.234382 
L 93.449864 247.76746 
L 93.652221 247.251184 
L 93.854578 244.36004 
L 94.056936 243.740509 
L 94.259293 241.159131 
L 94.46165 234.860567 
L 94.664007 232.052027 
L 94.866364 232.960672 
L 95.068722 236.058327 
L 95.271079 232.279188 
L 95.473436 242.232984 
L 96.080508 295.677846 
L 96.485222 304.743648 
L 96.687579 306.622891 
L 96.889937 302.348128 
L 97.699365 257.618 
L 98.306437 247.271835 
L 98.508794 246.900117 
L 99.52058 226.001276 
L 99.722937 227.240337 
L 99.925295 231.535751 
L 100.127652 229.739112 
L 100.330009 239.73421 
L 100.937081 293.241025 
L 101.341795 305.321877 
L 101.544152 306.292475 
L 101.74651 302.637243 
L 101.948867 290.866157 
L 102.353581 261.293884 
L 102.555938 259.765707 
L 103.567724 242.253635 
L 104.377153 220.487451 
L 104.57951 221.747164 
L 104.781868 227.054478 
L 104.984225 227.033827 
L 105.186582 235.789863 
L 105.793654 290.143371 
L 106.198368 302.699196 
L 106.400725 304.433882 
L 106.603083 300.468885 
L 107.412511 255.243132 
L 107.614869 253.549748 
L 107.817226 249.935818 
L 108.22194 235.624655 
L 108.626655 214.25084 
L 108.829012 208.406599 
L 109.031369 206.548007 
L 109.638441 215.097533 
L 109.840798 220.446149 
L 110.043155 230.689059 
L 110.650227 284.898009 
L 111.054941 298.940709 
L 111.257298 300.819952 
L 111.459655 299.105917 
L 111.662013 287.871757 
L 112.066727 259.063572 
L 112.471442 244.298087 
L 113.887942 176.934432 
L 114.090299 174.600865 
L 114.292656 181.31245 
L 114.495014 192.56726 
L 114.697371 197.089836 
L 115.102085 230.585804 
L 115.709157 279.198325 
L 116.113871 292.931259 
L 116.316228 293.096468 
L 116.518586 291.465036 
L 116.720943 287.892408 
L 117.125657 261.066722 
L 118.542158 157.997438 
L 118.744515 148.043643 
L 118.946872 144.223202 
L 119.149229 147.837132 
L 119.756301 185.13289 
L 120.56573 263.276382 
L 120.970444 282.791604 
L 121.172801 286.818555 
L 121.375159 288.429335 
L 121.577516 287.004414 
L 121.779873 279.198325 
L 122.589302 228.975024 
L 123.196374 203.904675 
L 123.398731 199.402751 
L 123.601088 199.609261 
L 123.803445 199.051683 
L 124.410517 212.247691 
L 124.612874 223.048179 
L 125.219946 278.475539 
L 125.62466 292.786702 
L 125.827017 294.74855 
L 126.029374 292.249775 
L 127.04116 236.71916 
L 127.648232 199.877724 
L 128.255304 158.141996 
L 128.457661 150.707625 
L 128.660018 150.377209 
L 129.26709 194.033483 
L 130.278876 283.493739 
L 130.481233 291.196573 
L 130.68359 292.559541 
L 130.885947 290.019464 
L 132.504805 182.758022 
L 133.111877 140.733179 
L 133.314234 131.460867 
L 133.516591 133.1336 
L 133.921306 148.270804 
L 134.123663 155.581268 
L 135.135449 263.792658 
L 135.540163 276.224577 
L 135.74252 275.295281 
L 135.944878 264.866512 
L 136.349592 233.931271 
L 136.551949 227.260988 
L 136.754306 215.572506 
L 136.956664 220.07443 
L 137.159021 208.943526 
L 137.766092 200.249443 
L 137.96845 200.641813 
L 138.373164 195.313847 
L 138.777879 202.748217 
L 138.980236 203.574259 
L 139.182593 215.200788 
L 139.789665 270.979216 
L 140.194379 286.11642 
L 140.396736 288.160872 
L 140.599093 285.187124 
L 141.003808 255.428991 
L 141.408522 234.571453 
L 142.015594 221.375445 
L 142.622665 212.371597 
L 142.825023 212.103133 
L 143.02738 210.905374 
L 143.229737 211.586858 
L 143.634451 216.790917 
L 143.836809 215.572506 
L 144.039166 225.608906 
L 144.646238 274.221427 
L 145.050952 286.137071 
L 145.253309 287.417435 
L 145.455666 284.31978 
L 145.860381 255.098575 
L 146.062738 238.887518 
L 146.66981 222.655809 
L 146.872167 220.012477 
L 147.074524 218.938624 
L 147.479238 207.993579 
L 147.681596 216.336594 
L 147.883953 217.307193 
L 148.08631 219.888571 
L 148.491024 229.078279 
L 148.693382 227.735962 
L 149.098096 251.050973 
L 149.502811 278.826607 
L 149.907525 291.774802 
L 150.109882 293.819254 
L 150.312239 293.241025 
L 150.514597 290.432485 
L 150.716954 284.753452 
L 151.121668 263.978517 
L 151.526383 243.575301 
L 151.931097 237.793013 
L 152.133454 237.359341 
L 152.335811 239.321189 
L 152.538169 239.837465 
L 152.740526 237.793013 
L 152.942883 238.082127 
L 153.14524 237.111529 
L 153.347597 237.152831 
L 153.549955 234.241036 
L 153.752312 236.430045 
L 154.764098 287.685898 
L 154.966455 291.630245 
L 155.168812 293.013864 
L 155.573527 289.090168 
L 155.775884 278.062519 
L 156.78767 200.435302 
L 157.799456 157.976787 
L 158.001813 159.979937 
L 158.406528 173.134642 
L 158.608885 186.640415 
L 159.215956 255.015971 
L 159.620671 276.534343 
L 159.823028 279.735252 
L 160.025385 278.826607 
L 160.227743 269.05867 
L 160.632457 236.71916 
L 161.8466 186.599113 
L 162.251315 176.583364 
L 162.453672 176.727921 
L 162.656029 179.577763 
L 163.465458 211.277092 
L 164.072529 270.917263 
L 164.477244 289.461887 
L 164.679601 289.792303 
L 164.881958 286.570743 
L 165.084316 276.451739 
L 165.48903 244.793712 
L 166.500816 209.83152 
L 167.310245 167.06324 
L 167.512602 170.408707 
L 167.917316 190.915178 
L 168.119674 195.355149 
L 168.322031 206.671913 
L 168.929102 265.878412 
L 169.333817 281.015616 
L 169.536174 284.526291 
L 169.738531 280.871059 
L 170.143246 253.673654 
L 170.54796 223.461199 
L 171.357389 179.040837 
L 171.559746 173.031387 
L 172.166818 148.910986 
L 172.369175 150.521766 
L 172.571532 158.410459 
L 173.178604 197.255044 
L 173.785675 268.108723 
L 174.19039 287.438086 
L 174.392747 290.411834 
L 174.595104 288.594543 
L 174.999819 264.474142 
L 175.404533 239.54835 
L 177.023391 161.549415 
L 177.225748 162.065691 
L 177.428105 165.968736 
L 177.630462 182.510209 
L 177.83282 184.947031 
L 178.237534 228.933722 
L 178.642248 271.722653 
L 179.046963 290.866157 
L 179.24932 294.583342 
L 179.451677 292.063916 
L 179.654034 283.390484 
L 180.261106 243.637254 
L 181.879964 146.907836 
L 182.082321 143.644974 
L 182.284678 149.303355 
L 183.094107 205.515455 
L 183.498821 244.442644 
L 183.903536 265.857761 
L 184.30825 273.684501 
L 184.510607 275.047469 
L 184.712965 271.412888 
L 184.915322 258.051672 
L 185.724751 176.170344 
L 186.129465 154.81718 
L 186.331822 148.766429 
L 186.53418 148.002341 
L 186.736537 150.542417 
L 187.748323 190.935829 
L 188.557752 255.057273 
L 188.962466 269.223879 
L 189.164823 271.26833 
L 189.36718 271.350935 
L 189.569538 270.607497 
L 189.771895 259.827661 
L 190.986038 163.903633 
L 191.188395 158.596318 
L 191.390752 158.555016 
L 191.795467 167.703422 
L 192.604896 199.010381 
L 193.414325 262.347086 
L 193.819039 276.059369 
L 194.021396 277.133223 
L 194.426111 273.168225 
L 194.628468 264.205679 
L 195.437897 203.264493 
L 195.640254 198.246293 
L 195.842611 199.464704 
L 196.247325 205.536106 
L 196.449683 206.114335 
L 196.65204 205.721966 
L 197.056754 213.941075 
L 197.259112 214.787767 
L 197.461469 223.213387 
L 198.06854 271.619398 
L 198.473255 285.827306 
L 198.675612 285.930561 
L 198.877969 282.275329 
L 199.282684 251.443343 
L 199.687398 228.582654 
L 201.306256 162.065691 
L 201.508613 160.909233 
L 202.115684 180.135341 
L 202.318042 191.307548 
L 202.925113 255.490945 
L 203.329828 273.168225 
L 203.532185 275.27463 
L 203.734542 272.280231 
L 203.936899 260.736306 
L 204.341614 226.68276 
L 205.758114 171.916232 
L 205.960471 169.417457 
L 206.162829 169.562014 
L 206.365186 170.986935 
L 206.7699 182.861277 
L 206.972257 186.062186 
L 207.174615 196.924627 
L 207.781686 256.089824 
L 208.186401 272.280231 
L 208.388758 275.336583 
L 208.591115 271.991116 
L 208.793472 260.096124 
L 209.198187 226.228437 
L 209.805258 203.904675 
L 210.209973 183.976432 
L 210.817044 142.199402 
L 211.019402 133.691178 
L 211.221759 136.664926 
L 211.626473 161.198348 
L 211.82883 166.423058 
L 212.031188 181.188544 
L 212.638259 246.383841 
L 213.042974 265.011069 
L 213.245331 269.017368 
L 213.447688 267.303333 
L 213.650045 256.564798 
L 214.257117 213.197638 
L 214.661831 186.784972 
L 215.47126 127.289359 
L 215.875975 110.520724 
L 216.078332 110.04575 
L 216.280689 115.600877 
L 217.090118 179.536461 
L 217.697189 241.613453 
L 218.101904 260.116775 
L 218.304261 263.482893 
L 218.506618 264.84586 
L 218.708976 263.586148 
L 218.911333 250.823812 
L 219.518404 195.892076 
L 220.125476 160.599468 
L 220.327833 158.43111 
L 220.53019 160.661421 
L 221.541976 203.078634 
L 221.744334 208.241391 
L 222.553762 265.279532 
L 222.958477 276.183275 
L 223.160834 277.897311 
L 223.363191 278.248378 
L 223.565549 276.6789 
L 223.767906 267.943515 
L 224.374977 229.635857 
L 224.779692 222.036278 
L 225.386763 224.101381 
L 225.589121 227.632707 
L 225.791478 228.520701 
L 226.196192 236.92567 
L 226.398549 236.574602 
L 226.600907 243.017723 
L 227.410335 296.772351 
L 227.612693 300.819952 
L 227.81505 302.513337 
L 228.017407 299.312427 
L 228.826836 256.6061 
L 229.029193 254.272534 
L 229.23155 248.510897 
L 230.648051 184.92638 
L 230.850408 185.504609 
L 231.255122 199.960329 
L 231.45748 210.884723 
L 232.064551 274.737703 
L 232.469266 291.960661 
L 232.671623 294.686597 
L 232.87398 293.468186 
L 233.278694 268.108723 
L 233.683409 245.516498 
L 235.302267 180.754872 
L 235.504624 180.155992 
L 236.111695 199.320147 
L 236.314053 209.707614 
L 236.921124 272.011767 
L 237.325839 287.93371 
L 237.528196 291.072667 
L 237.730553 288.945611 
L 238.135267 264.928465 
L 238.539982 243.079676 
L 239.349411 212.061831 
L 239.754125 202.025431 
L 240.15884 191.782521 
L 240.361197 191.534709 
L 240.563554 197.007232 
L 240.968268 214.663861 
L 241.170626 222.263439 
L 241.777697 277.959264 
L 242.182412 293.860556 
L 242.384769 296.35933 
L 242.587126 293.364931 
L 242.99184 268.583697 
L 243.396555 250.576 
L 245.21777 175.716021 
L 245.420127 179.970133 
L 246.027199 206.837121 
L 246.836627 280.519991 
L 247.038985 288.904309 
L 247.241342 292.084567 
L 247.443699 289.544491 
L 247.848413 265.919714 
L 249.467271 153.61942 
L 249.669628 145.524217 
L 249.871985 143.58302 
L 250.074343 143.748229 
L 250.2767 150.707625 
L 250.883772 182.902579 
L 251.6932 258.072323 
L 252.097915 272.631298 
L 252.300272 275.708302 
L 252.502629 275.976765 
L 252.704986 272.094372 
L 253.109701 239.259236 
L 253.91913 165.86548 
L 254.323844 150.026141 
L 254.728558 141.187501 
L 254.930916 139.927788 
L 255.133273 147.444763 
L 255.740345 185.008984 
L 256.549773 260.405889 
L 256.954488 275.914812 
L 257.156845 279.735252 
L 257.359202 281.407985 
L 257.561559 280.437387 
L 257.966274 251.484645 
L 258.573345 200.972229 
L 258.97806 179.247347 
L 259.382774 168.199047 
L 259.585131 164.750325 
L 259.787489 164.316653 
L 259.989846 166.939334 
L 260.39456 182.964532 
L 260.596917 196.346399 
L 261.203989 258.485344 
L 261.608704 277.236478 
L 261.811061 280.168924 
L 262.013418 279.384185 
L 262.418132 255.367038 
L 262.62049 243.327489 
L 263.025204 233.642156 
L 263.227561 230.833616 
L 263.429918 229.821716 
L 263.834633 231.10208 
L 264.03699 230.792314 
L 264.239347 231.742262 
L 264.441704 231.824866 
L 264.644062 231.556402 
L 264.846419 233.600854 
L 265.048776 237.648456 
L 265.251133 237.648456 
L 265.45349 241.675406 
L 266.060562 284.237176 
L 266.465277 297.102767 
L 266.667634 298.651594 
L 266.869991 294.459436 
L 267.072348 286.488138 
L 267.477063 259.930916 
L 268.084134 237.710409 
L 268.488849 227.405546 
L 269.09592 216.130084 
L 269.500635 212.165087 
L 269.702992 214.354096 
L 269.905349 217.968026 
L 270.107706 218.649509 
L 270.310063 224.968724 
L 270.917135 273.932313 
L 271.32185 285.930561 
L 271.524207 288.078268 
L 271.726564 286.364232 
L 274.15485 144.471015 
L 274.357208 137.284457 
L 274.559565 140.629923 
L 275.166636 165.844829 
L 275.976065 247.602252 
L 276.38078 260.199379 
L 276.583137 259.497244 
L 276.987851 237.607154 
L 277.392566 208.633761 
L 278.404352 151.554318 
L 278.606709 148.497965 
L 279.011423 135.240005 
L 279.213781 133.629225 
L 279.416138 137.903988 
L 280.023209 179.722321 
L 280.630281 251.236833 
L 281.034995 274.07687 
L 281.237353 278.971164 
L 281.43971 277.422337 
L 281.642067 271.516143 
L 282.249139 229.656508 
L 282.85621 195.933378 
L 283.867996 153.041192 
L 284.070354 151.843432 
L 284.272711 160.021239 
L 285.284497 243.306838 
L 285.689211 275.563744 
L 286.093926 290.349881 
L 286.296283 292.642145 
L 286.49864 290.824854 
L 286.700997 287.871757 
L 287.105712 256.771308 
L 287.712783 205.081784 
L 288.522212 161.528764 
L 288.724569 154.383508 
L 288.926927 152.442312 
L 289.129284 156.035591 
L 289.736355 189.94458 
L 290.545784 260.22003 
L 290.950499 275.543093 
L 291.152856 278.330982 
L 291.355213 278.413586 
L 291.55757 276.926712 
L 291.759927 264.412189 
L 292.771714 165.45246 
L 293.176428 143.397161 
L 293.581142 132.1217 
L 293.7835 130.387013 
L 293.985857 133.918339 
L 294.592928 159.525615 
L 295.402357 243.059025 
L 295.807072 257.80386 
L 296.009429 257.638652 
L 296.414143 237.276737 
L 297.830644 101.723385 
L 298.235358 88.36217 
L 298.437715 85.76014 
L 298.640073 86.028604 
L 298.84243 88.093707 
L 299.044787 96.168259 
L 299.449501 123.262408 
L 300.056573 202.624311 
L 300.461287 227.983774 
L 300.663645 234.034526 
L 300.866002 234.757312 
L 301.068359 227.90117 
L 301.473073 197.709366 
L 302.484859 91.914147 
L 302.687217 80.53543 
L 302.889574 80.638685 
L 303.091931 88.775191 
L 303.496646 97.469274 
L 303.90136 119.834338 
L 304.306074 147.919736 
L 304.913146 217.493052 
L 305.31786 242.976421 
L 305.520218 248.57285 
L 305.722575 246.77621 
L 305.924932 239.610304 
L 306.532004 199.444053 
L 307.54379 129.065347 
L 307.746147 118.801786 
L 307.948504 117.913792 
L 308.757933 150.356558 
L 309.162647 176.562713 
L 309.769719 239.899418 
L 310.174433 259.889614 
L 310.376791 264.308934 
L 310.579148 263.730705 
L 310.983862 240.188532 
L 312.198005 135.591072 
L 312.60272 123.90259 
L 312.805077 119.503921 
L 313.007434 120.061499 
L 313.209791 123.778684 
L 313.816863 151.513015 
L 314.01922 165.266601 
L 314.626292 228.190285 
L 315.031006 248.800011 
L 315.233364 253.405191 
L 315.435721 252.744358 
L 315.840435 233.869318 
L 316.24515 215.056231 
L 316.649864 202.975379 
L 317.054578 187.590362 
L 317.66165 180.032086 
L 317.864007 179.577763 
L 318.066364 178.669118 
L 318.268722 183.377553 
L 318.875793 205.639361 
L 319.685222 264.556746 
L 320.089937 277.401686 
L 320.292294 279.053768 
L 320.697008 271.082471 
L 321.101723 244.711108 
L 322.315866 166.361105 
L 322.72058 156.056242 
L 322.922937 153.722676 
L 323.125295 157.873532 
L 323.732366 185.649166 
L 324.541795 254.561648 
L 324.94651 268.934764 
L 325.148867 271.846559 
L 325.351224 271.908512 
L 325.553581 269.636899 
L 325.755938 257.246282 
L 326.970082 144.223202 
L 327.172439 137.862686 
L 327.374796 136.272556 
L 327.77951 130.676128 
L 327.981868 135.694328 
L 328.184225 144.532968 
L 328.791296 196.470305 
L 329.196011 240.436345 
L 329.398368 255.759408 
L 329.803083 265.919714 
L 330.00544 264.969767 
L 330.207797 259.332036 
L 330.814869 210.554306 
L 331.42194 172.122742 
L 331.826655 149.324006 
L 332.029012 146.412211 
L 332.231369 146.432862 
L 332.433726 146.618722 
L 332.636083 148.725127 
L 332.838441 153.289004 
L 333.243155 176.335552 
L 333.445512 185.401353 
L 334.052584 251.484645 
L 334.457298 273.395386 
L 334.659655 278.847258 
L 334.862013 276.431088 
L 335.266727 256.482194 
L 335.671442 231.990074 
L 336.48087 191.658615 
L 336.683228 186.557811 
L 336.885585 185.442655 
L 337.087942 179.226696 
L 337.290299 177.368103 
L 337.695014 183.873177 
L 338.099728 198.411501 
L 338.302085 204.317696 
L 339.111514 270.504242 
L 339.313871 276.740853 
L 339.516228 278.991815 
L 339.718586 274.902911 
L 340.1233 251.422692 
L 340.932729 206.713215 
L 342.349229 144.615572 
L 342.551587 144.532968 
L 343.158658 169.355504 
L 343.76573 232.465048 
L 344.170444 250.576 
L 344.372801 255.367038 
L 344.575159 253.219331 
L 344.777516 246.259935 
L 345.18223 215.200788 
L 346.194016 132.101049 
L 346.598731 117.252959 
L 347.003445 110.603328 
L 347.205802 109.756636 
L 347.40816 112.957545 
L 347.610517 120.846238 
L 348.015231 147.093695 
L 348.82466 238.722309 
L 349.229374 255.924616 
L 349.431732 255.160528 
L 349.634089 249.336938 
L 349.836446 238.14408 
L 351.050589 133.1336 
L 351.455304 114.67158 
L 351.860018 105.770987 
L 352.062375 104.862342 
L 352.264733 108.517574 
L 352.46709 119.669129 
L 353.276519 203.223191 
L 353.681233 241.365641 
L 354.085947 261.665602 
L 354.288305 266.972916 
L 354.490662 267.551145 
L 354.693019 265.300183 
L 355.097733 223.027528 
L 355.704805 148.78708 
L 356.109519 123.943892 
L 356.716591 105.647081 
L 356.918948 104.552576 
L 357.121306 109.384917 
L 357.52602 135.157401 
L 357.728377 147.919736 
L 358.740163 243.94702 
L 359.144878 256.99847 
L 359.347235 258.877713 
L 359.549592 258.547297 
L 359.751949 244.463295 
L 360.763735 123.138502 
L 361.16845 103.953697 
L 361.573164 92.78149 
L 361.775521 90.468575 
L 361.977879 93.772739 
L 362.180236 100.81474 
L 362.58495 126.752432 
L 363.394379 216.026829 
L 363.799093 233.786713 
L 364.001451 234.612755 
L 364.203808 228.685909 
L 364.406165 218.566905 
L 365.013237 148.559918 
L 365.620308 83.591782 
L 366.025023 67.318772 
L 366.429737 61.102812 
L 366.632094 61.598437 
L 366.834451 64.26242 
L 367.036809 73.039107 
L 367.441523 102.42552 
L 368.048595 182.592814 
L 368.453309 213.321544 
L 368.655666 221.912372 
L 368.858024 224.307891 
L 369.060381 220.384196 
L 369.262738 210.451051 
L 369.86981 146.474164 
L 370.476881 87.887196 
L 370.881596 71.139212 
L 371.083953 70.684889 
L 371.28631 71.407675 
L 371.488667 75.372673 
L 371.691024 81.650586 
L 372.298096 120.928842 
L 373.107525 206.589309 
L 373.512239 228.995675 
L 373.714597 233.394344 
L 374.119311 232.692209 
L 374.321668 219.847269 
L 375.333454 115.187856 
L 375.738169 101.826641 
L 375.940526 99.100705 
L 376.142883 97.985549 
L 376.34524 103.21026 
L 376.749955 129.664227 
L 377.559383 189.056585 
L 377.964098 223.998126 
L 378.368812 237.916919 
L 378.57117 238.14408 
L 378.773527 232.155282 
L 378.975884 220.838519 
L 380.392384 103.189609 
L 380.797099 93.17386 
L 381.201813 85.512328 
L 381.40417 89.312117 
L 382.011242 126.669828 
L 382.820671 210.285843 
L 383.225385 226.538202 
L 383.427743 227.199035 
L 383.6301 221.809117 
L 384.034814 199.361449 
L 385.0466 125.244907 
L 385.451315 108.393668 
L 385.653672 107.918694 
L 385.856029 111.739134 
L 386.058386 119.441968 
L 387.070172 190.089137 
L 387.474887 230.585804 
L 387.879601 252.682405 
L 388.284316 261.913414 
L 388.68903 264.453491 
L 388.891387 258.650552 
L 389.700816 214.684512 
L 390.307888 203.367748 
L 390.914959 190.502157 
L 391.117316 195.334498 
L 391.926745 235.294239 
L 392.533817 279.921111 
L 392.938531 292.414984 
L 393.140888 294.294227 
L 393.343246 293.839905 
L 393.545603 294.314878 
L 393.74796 285.269728 
L 394.355032 243.699207 
L 395.569175 186.661066 
L 395.771532 180.589664 
L 395.973889 181.808074 
L 396.176247 190.213043 
L 396.783318 232.671558 
L 397.188033 271.578096 
L 397.592747 289.585793 
L 397.795104 292.394333 
L 397.997461 289.833605 
L 398.402176 271.516143 
L 400.628105 142.612422 
L 400.830462 145.482915 
L 401.03282 155.539966 
L 401.639891 213.156336 
L 402.044606 257.948417 
L 402.44932 278.475539 
L 402.651677 282.523141 
L 402.854034 280.850408 
L 403.258749 262.470992 
L 403.663463 233.766062 
L 404.877607 126.649177 
L 405.282321 105.915544 
L 405.484678 101.661432 
L 405.687035 102.755937 
L 405.889393 113.370566 
L 406.294107 151.120646 
L 406.901179 229.326091 
L 407.305893 253.632352 
L 407.50825 259.290734 
L 407.710607 258.753807 
L 408.115322 237.297388 
L 409.73418 103.664582 
L 409.936537 98.687684 
L 410.138894 98.543127 
L 410.341251 103.189609 
L 410.948323 139.659325 
L 411.15068 155.725825 
L 411.757752 227.033827 
L 412.162466 251.340088 
L 412.364823 257.886464 
L 412.56718 259.683103 
L 412.971895 241.448245 
L 414.388395 142.36461 
L 414.79311 128.693629 
L 415.197824 121.961394 
L 415.400181 128.796884 
L 416.20961 191.968381 
L 416.614325 237.648456 
L 417.019039 260.942816 
L 417.221396 265.23823 
L 417.423753 264.680652 
L 417.828468 248.36634 
L 419.244968 149.675074 
L 419.649683 135.94214 
L 419.85204 132.080398 
L 420.054397 133.52597 
L 420.256754 142.261355 
L 421.066183 208.117485 
L 421.673255 263.668752 
L 422.077969 279.879809 
L 422.280326 282.378584 
L 422.482684 281.717751 
L 422.685041 281.552543 
L 423.089755 250.555349 
L 423.899184 180.961382 
L 424.708613 141.352709 
L 424.91097 138.1518 
L 425.113327 142.178751 
L 425.518042 168.488161 
L 425.720399 180.362502 
L 426.529828 255.470294 
L 426.934542 274.159474 
L 427.136899 278.661399 
L 427.339257 279.466789 
L 427.541614 279.69395 
L 427.743971 271.041169 
L 428.148685 230.441247 
L 428.755757 168.178396 
L 429.160471 142.385261 
L 429.565186 134.083547 
L 429.9699 138.027894 
L 430.374615 154.342206 
L 430.576972 166.05134 
L 431.386401 242.480797 
L 431.791115 254.78881 
L 431.993472 252.744358 
L 432.398187 232.32049 
L 433.207616 166.85673 
L 434.017044 96.085655 
L 434.219402 91.17071 
L 435.02883 118.739833 
L 435.433545 143.872135 
L 436.040617 215.469251 
L 436.445331 238.123429 
L 436.647688 243.286187 
L 436.850045 242.604703 
L 437.25476 221.891721 
L 437.659474 186.784972 
L 438.468903 112.916243 
L 438.67126 103.127655 
L 438.873617 104.098254 
L 439.075975 111.24351 
L 439.278332 110.789187 
L 439.480689 113.040149 
L 439.885403 131.688028 
L 440.290118 156.572517 
L 440.897189 230.379294 
L 441.301904 252.806311 
L 441.504261 258.258182 
L 441.706618 258.795109 
L 442.111333 243.988322 
L 442.920762 191.699917 
L 443.527833 156.655122 
L 444.134905 133.794433 
L 444.337262 131.192403 
L 444.539619 137.635524 
L 445.146691 182.92323 
L 445.753762 252.455243 
L 446.158477 273.767105 
L 446.360834 278.744003 
L 446.563191 276.740853 
L 446.967906 257.741907 
L 448.586763 147.403461 
L 448.991478 134.1455 
L 449.193835 131.811934 
L 449.396192 138.502867 
L 450.003264 179.082139 
L 450.812693 259.517895 
L 451.217407 272.879111 
L 451.419764 273.003017 
L 451.824479 255.738757 
L 452.43155 205.081784 
L 453.038622 162.974336 
L 453.443336 145.854634 
L 453.848051 137.94529 
L 454.050408 141.332058 
L 454.252765 151.368458 
L 454.65748 179.90818 
L 454.859837 188.395753 
L 455.669266 253.425842 
L 456.07398 267.03487 
L 456.276337 268.563046 
L 456.478694 266.559896 
L 456.681052 263.441591 
L 456.883409 255.40834 
L 457.288123 228.272889 
L 457.692838 217.265891 
L 457.895195 217.968026 
L 458.299909 223.750314 
L 458.502267 223.605756 
L 458.906981 219.764665 
L 459.109338 220.301592 
L 459.514053 224.4731 
L 459.71641 228.789165 
L 460.728196 286.756602 
L 461.13291 291.196573 
L 461.537625 287.871757 
L 461.739982 278.909211 
L 462.144696 244.256785 
L 463.561197 174.786725 
L 463.763554 167.496912 
L 463.965911 168.67402 
L 464.572983 188.230544 
L 465.382412 255.490945 
L 465.584769 262.42969 
L 465.787126 265.155626 
L 465.989483 262.718805 
L 467.608341 169.789176 
L 468.620127 148.518616 
L 468.822484 151.657573 
L 469.429556 178.008285 
L 470.036627 234.963822 
L 470.441342 252.826962 
L 470.643699 255.470294 
L 470.846056 252.888915 
L 471.857842 201.756968 
L 472.869628 171.379305 
L 473.071985 171.87493 
L 473.274343 170.07829 
L 473.4767 171.338003 
L 473.679057 175.137792 
L 473.881414 181.746121 
L 474.083772 182.902579 
L 474.286129 190.605413 
L 474.8932 242.935119 
L 475.297915 259.249432 
L 475.500272 260.922165 
L 475.702629 258.877713 
L 476.107344 234.406244 
L 476.512058 212.309644 
L 477.321487 180.692919 
L 477.726201 160.454911 
L 477.928558 156.882283 
L 478.333273 161.590717 
L 478.53563 166.071991 
L 479.142702 191.101037 
L 479.952131 259.146177 
L 480.356845 269.038019 
L 480.559202 268.624999 
L 480.963917 246.445794 
L 482.785131 117.542073 
L 482.987489 111.615228 
L 483.189846 108.971897 
L 483.392203 114.630278 
L 483.999275 154.651972 
L 484.606346 226.042578 
L 485.011061 249.357589 
L 485.213418 253.776909 
L 485.415775 254.726856 
L 485.82049 234.881218 
L 486.225204 203.553608 
L 487.23699 113.226008 
L 487.439347 110.128354 
L 487.844062 116.716032 
L 488.248776 135.405213 
L 489.260562 213.23894 
L 489.665277 245.516498 
L 490.069991 260.674353 
L 490.272348 263.02857 
L 490.474705 261.892763 
L 490.677063 260.116775 
L 490.87942 250.348838 
L 491.891206 170.326103 
L 492.29592 152.545567 
L 492.498277 145.131848 
L 492.700635 143.108047 
L 492.902992 144.739478 
L 493.105349 149.571819 
L 493.712421 183.212344 
L 494.52185 255.470294 
L 495.128921 273.808407 
L 495.331278 273.952964 
L 495.533636 273.333433 
L 495.735993 265.754506 
L 496.950136 173.919382 
L 497.557208 149.468564 
L 497.759565 146.102446 
L 497.961922 149.324006 
L 498.568994 180.940731 
L 499.378422 255.015971 
L 499.58078 261.872112 
L 499.783137 264.370887 
L 499.985494 261.046071 
L 500.187851 252.496545 
L 500.794923 215.4486 
L 500.99728 210.327145 
L 501.401995 197.193091 
L 501.806709 185.896978 
L 502.009066 185.442655 
L 502.211423 187.507758 
L 502.413781 188.14794 
L 502.616138 186.475207 
L 503.020852 196.222492 
L 503.223209 196.78007 
L 503.425567 204.317696 
L 504.032638 255.181179 
L 504.437353 268.294582 
L 504.63971 269.926014 
L 504.842067 267.551145 
L 505.246782 243.100327 
L 505.651496 219.207087 
L 507.270354 145.813332 
L 507.472711 142.695026 
L 507.675068 146.102446 
L 508.28214 174.229147 
L 508.889211 232.444397 
L 509.293926 249.626052 
L 509.496283 253.157378 
L 509.69864 251.319437 
L 510.103354 227.69466 
L 511.722212 120.970144 
L 512.126927 103.148306 
L 512.329284 104.738436 
L 512.936355 139.225653 
L 513.34107 178.2974 
L 513.745784 221.912372 
L 514.150499 244.711108 
L 514.352856 250.307536 
L 514.555213 250.803161 
L 514.75757 241.881917 
L 516.174071 144.801431 
L 516.376428 143.706927 
L 516.781142 153.061843 
L 516.9835 150.315256 
L 517.185857 150.852183 
L 517.590571 168.612067 
L 517.792928 172.866179 
L 517.995286 183.604714 
L 518.4 223.399246 
L 518.4 223.399246 
" clip-path="url(#p683a278a50)" style="fill: none; stroke: #1f77b4; stroke-width: 1.5; stroke-linecap: square"/>
   </g>
   <g id="line2d_14">
    <path d="M 72 280.198973 
L 72.202357 280.198973 
L 72.607072 288.024545 
L 72.809429 288.39104 
L 73.011786 282.065599 
L 73.618858 247.818141 
L 74.225929 223.264689 
L 75.035358 170.126859 
L 75.237715 165.18109 
L 75.440073 165.951523 
L 75.64243 172.645793 
L 76.249501 208.372489 
L 76.654216 248.884487 
L 77.05893 270.687712 
L 77.261287 277.311549 
L 77.463645 278.512939 
L 77.666002 274.999114 
L 78.475431 229.953045 
L 78.880145 215.597753 
L 79.487217 178.465636 
L 79.891931 159.85803 
L 80.094288 160.065363 
L 80.70136 187.564 
L 81.106074 218.787449 
L 81.713146 267.544541 
L 81.915503 278.859498 
L 82.11786 281.341021 
L 82.320218 282.219167 
L 83.129646 262.205348 
L 83.736718 235.736885 
L 84.141432 230.688726 
L 84.34379 231.269597 
L 84.748504 235.014579 
L 85.557933 253.583455 
L 85.962647 266.306826 
L 86.974433 306.265267 
L 87.379148 299.644315 
L 87.986219 280.477416 
L 88.390934 261.883509 
L 88.593291 258.358092 
L 88.795648 257.567591 
L 89.200363 255.088146 
L 89.40272 254.572907 
L 89.605077 252.657158 
L 90.212149 240.952424 
L 90.414506 241.245683 
L 90.616863 242.106016 
L 90.81922 250.638163 
L 91.426292 295.59903 
L 91.628649 303.052392 
L 91.831006 304.071132 
L 92.033364 301.346823 
L 92.235721 294.166766 
L 92.842792 252.615048 
L 93.247507 247.424804 
L 93.652221 243.399053 
L 93.854578 242.23102 
L 94.259293 235.493671 
L 94.46165 232.728262 
L 94.664007 231.596886 
L 94.866364 232.02642 
L 95.473436 239.941189 
L 95.675793 250.815994 
L 96.282865 297.077356 
L 96.485222 299.955678 
L 96.687579 298.271387 
L 96.889937 294.580007 
L 97.294651 271.77351 
L 97.497008 258.37745 
L 97.901723 249.106109 
L 98.508794 242.722857 
L 98.711151 240.67507 
L 99.115866 230.93518 
L 99.318223 228.565118 
L 99.52058 229.002172 
L 99.722937 230.533467 
L 99.925295 231.033762 
L 100.330009 241.724955 
L 100.734723 268.540079 
L 101.139438 294.68777 
L 101.341795 299.634919 
L 101.544152 299.441361 
L 101.948867 286.120043 
L 102.353581 258.534926 
L 102.555938 252.186049 
L 103.16301 244.829184 
L 103.365367 245.542434 
L 103.770082 235.656286 
L 104.174796 223.560045 
L 104.377153 224.859942 
L 104.57951 224.911578 
L 104.781868 226.284802 
L 105.186582 239.744853 
L 105.591296 265.490337 
L 105.996011 292.29876 
L 106.198368 297.840061 
L 106.400725 297.05875 
L 106.603083 292.658311 
L 106.80544 285.331437 
L 107.412511 250.326851 
L 107.817226 244.860006 
L 108.22194 239.055522 
L 108.424297 230.633148 
L 108.829012 206.518449 
L 109.031369 203.412842 
L 109.436083 214.94771 
L 109.638441 218.218591 
L 109.840798 223.986606 
L 110.245512 245.833472 
L 110.852584 288.074628 
L 111.054941 294.111665 
L 111.257298 293.845505 
L 111.662013 283.470858 
L 112.471442 243.363774 
L 113.078513 217.776061 
L 113.685585 189.725625 
L 113.887942 183.823611 
L 114.090299 182.855725 
L 114.292656 184.844681 
L 114.495014 191.868689 
L 115.102085 231.953487 
L 115.911514 281.796171 
L 116.113871 285.05455 
L 116.316228 284.018471 
L 116.518586 280.151111 
L 117.125657 260.730585 
L 117.732729 217.778973 
L 118.339801 174.720171 
L 118.744515 156.744618 
L 118.946872 153.413485 
L 119.149229 153.623867 
L 119.351587 161.013138 
L 119.756301 187.270412 
L 120.363373 242.115388 
L 120.768087 270.101301 
L 120.970444 277.995153 
L 121.172801 281.208932 
L 121.375159 280.21709 
L 121.779873 272.028392 
L 121.98223 263.123113 
L 122.589302 220.132587 
L 123.196374 201.715947 
L 123.601088 196.784119 
L 123.803445 198.178663 
L 124.20816 210.756378 
L 124.612874 222.494121 
L 125.017588 254.97369 
L 125.422303 285.092489 
L 125.62466 293.961378 
L 125.827017 295.710857 
L 126.029374 294.566389 
L 126.231732 287.981055 
L 127.04116 228.158727 
L 127.445875 209.635703 
L 127.850589 190.48574 
L 128.255304 166.359552 
L 128.660018 155.103949 
L 128.862375 160.074007 
L 129.26709 186.637374 
L 130.278876 280.343765 
L 130.481233 285.618473 
L 130.68359 287.035594 
L 130.885947 283.77697 
L 131.088305 275.780155 
L 132.100091 207.575512 
L 132.707162 173.626532 
L 133.111877 146.37556 
L 133.314234 140.677694 
L 133.516591 139.772894 
L 133.921306 157.998198 
L 134.32602 182.4161 
L 135.135449 260.747534 
L 135.540163 271.385411 
L 135.74252 270.333016 
L 135.944878 264.456886 
L 136.349592 235.17053 
L 136.754306 210.448197 
L 136.956664 199.231929 
L 137.159021 199.88584 
L 137.563735 195.722284 
L 137.766092 195.528197 
L 137.96845 193.521396 
L 138.575521 203.117259 
L 138.777879 204.076038 
L 139.182593 220.127493 
L 140.194379 284.58851 
L 140.396736 283.952549 
L 140.599093 280.578661 
L 140.801451 272.272546 
L 141.610879 222.717943 
L 141.813237 220.577898 
L 142.015594 210.461209 
L 142.217951 215.733307 
L 142.420308 210.982602 
L 142.622665 210.84491 
L 142.825023 207.374388 
L 144.039166 226.568541 
L 144.848595 279.075726 
L 145.050952 283.599597 
L 145.253309 284.045056 
L 145.658024 270.114951 
L 146.467452 220.0151 
L 146.66981 219.069283 
L 146.872167 216.194689 
L 147.074524 216.960529 
L 147.276881 215.854462 
L 147.681596 205.942579 
L 148.491024 226.326494 
L 148.895739 238.023282 
L 149.907525 285.979799 
L 150.109882 286.081534 
L 150.312239 282.667291 
L 151.72874 238.100489 
L 152.335811 230.324753 
L 152.538169 234.285525 
L 152.942883 234.938507 
L 153.954669 247.561353 
L 154.966455 287.183692 
L 155.168812 286.351426 
L 155.37117 283.251061 
L 155.978241 264.363946 
L 157.394742 174.92842 
L 158.001813 162.103703 
L 158.20417 166.491026 
L 158.608885 186.590854 
L 159.620671 274.307957 
L 159.823028 278.804943 
L 160.025385 278.68109 
L 160.227743 272.634519 
L 161.441886 192.945978 
L 162.048957 179.195679 
L 162.251315 175.180591 
L 162.453672 176.314427 
L 162.656029 182.200638 
L 163.060743 199.152078 
L 163.465458 212.775624 
L 163.870172 247.008038 
L 164.274887 279.005149 
L 164.477244 285.599592 
L 164.679601 286.465687 
L 164.881958 281.900251 
L 165.084316 272.934671 
L 165.691387 231.809613 
L 165.893744 223.031774 
L 166.500816 214.890934 
L 166.90553 194.636448 
L 167.310245 172.605226 
L 167.512602 173.228842 
L 167.917316 190.095844 
L 168.322031 211.616459 
L 168.929102 259.641544 
L 169.333817 280.417534 
L 169.536174 279.643256 
L 169.738531 276.974612 
L 170.143246 255.524007 
L 171.155032 184.443038 
L 171.964461 159.212697 
L 172.166818 156.57799 
L 172.369175 158.583448 
L 172.571532 164.082307 
L 172.976247 185.154067 
L 173.583318 239.685094 
L 173.988033 271.405133 
L 174.19039 281.39786 
L 174.392747 285.277791 
L 174.595104 282.513743 
L 174.999819 261.577109 
L 175.60689 220.871416 
L 176.213962 198.405286 
L 176.416319 194.66381 
L 176.821034 175.700133 
L 177.023391 170.672314 
L 177.225748 170.072843 
L 177.630462 180.422624 
L 178.237534 225.039857 
L 178.844606 279.810316 
L 179.24932 289.949302 
L 179.451677 285.687764 
L 179.654034 279.082212 
L 181.677607 160.026282 
L 181.879964 154.61032 
L 182.082321 153.358861 
L 182.284678 156.719903 
L 182.487035 164.624977 
L 182.89175 192.621584 
L 183.498821 245.926048 
L 183.903536 264.470918 
L 184.105893 267.785202 
L 184.30825 267.160846 
L 184.510607 264.617887 
L 184.915322 255.250928 
L 185.117679 243.88161 
L 185.724751 175.902478 
L 186.129465 150.322524 
L 186.331822 145.713046 
L 186.53418 143.868344 
L 186.736537 147.293351 
L 186.938894 153.414552 
L 188.962466 268.130357 
L 189.164823 269.783979 
L 189.36718 267.662899 
L 189.771895 252.79774 
L 189.974252 242.757867 
L 190.783681 177.629726 
L 191.188395 158.529138 
L 191.390752 157.386199 
L 191.795467 168.716456 
L 192.807253 215.425116 
L 193.414325 258.768165 
L 193.819039 274.820223 
L 194.021396 275.652915 
L 194.223753 271.869085 
L 194.830825 245.875651 
L 195.437897 201.428713 
L 195.640254 192.637413 
L 195.842611 188.678123 
L 196.044968 192.012995 
L 197.056754 219.18418 
L 197.461469 224.215657 
L 197.663826 233.412427 
L 198.270898 276.407045 
L 198.675612 287.982598 
L 198.877969 285.518746 
L 199.080326 275.943125 
L 199.889755 212.560625 
L 200.29447 201.107844 
L 200.496827 199.621983 
L 200.901541 185.049385 
L 201.306256 169.6387 
L 201.508613 168.150131 
L 201.913327 181.100713 
L 202.318042 197.46206 
L 203.127471 264.087838 
L 203.329828 270.971229 
L 203.532185 271.297465 
L 203.734542 268.139296 
L 203.936899 258.444721 
L 204.543971 215.369086 
L 204.948685 199.748866 
L 205.960471 168.57482 
L 206.162829 168.83147 
L 207.174615 205.009075 
L 208.186401 270.633188 
L 208.388758 271.360972 
L 208.591115 268.094024 
L 208.793472 259.260872 
L 209.602901 204.936798 
L 210.41233 180.491789 
L 211.019402 144.746785 
L 211.221759 141.148382 
L 211.424116 147.319509 
L 212.233545 204.601332 
L 212.638259 241.503208 
L 213.042974 263.833628 
L 213.245331 265.85224 
L 213.447688 263.028354 
L 213.650045 254.799347 
L 215.673617 121.823336 
L 215.875975 116.102247 
L 216.078332 117.39034 
L 216.483046 131.450558 
L 217.090118 183.956497 
L 217.697189 237.155057 
L 218.101904 253.899214 
L 218.304261 257.316568 
L 218.708976 250.015363 
L 218.911333 243.931624 
L 219.11369 234.494066 
L 219.720762 179.135007 
L 220.125476 158.960915 
L 220.327833 151.85555 
L 220.53019 150.858357 
L 220.934905 164.721963 
L 221.744334 213.844607 
L 221.946691 223.097422 
L 222.553762 264.304736 
L 222.958477 277.066931 
L 223.160834 277.238508 
L 223.363191 274.185817 
L 223.970263 252.35538 
L 224.374977 221.217347 
L 224.577335 214.323412 
L 224.779692 213.79104 
L 224.982049 213.976054 
L 225.386763 219.989616 
L 225.589121 226.766421 
L 225.993835 232.812447 
L 226.398549 240.50747 
L 226.600907 241.366803 
L 226.803264 248.748603 
L 227.612693 297.906742 
L 227.81505 299.988071 
L 228.017407 298.513333 
L 228.219764 291.264475 
L 228.826836 247.694653 
L 229.029193 241.579988 
L 229.433908 237.516982 
L 229.838622 228.64959 
L 230.648051 192.882653 
L 230.850408 191.550699 
L 231.052765 195.33694 
L 231.255122 201.251051 
L 231.659837 229.873062 
L 232.266908 280.056754 
L 232.469266 286.613715 
L 232.671623 288.291689 
L 232.87398 286.364988 
L 233.076337 279.506619 
L 233.885766 236.273434 
L 234.492838 209.855315 
L 235.302267 182.134315 
L 235.504624 182.878647 
L 235.909338 196.035814 
L 236.314053 215.665706 
L 236.718767 246.860154 
L 237.123481 277.948997 
L 237.325839 285.676962 
L 237.528196 286.642953 
L 237.730553 283.367437 
L 237.93291 276.262486 
L 239.147053 214.773943 
L 239.551768 204.914053 
L 239.956482 196.932091 
L 240.15884 196.672112 
L 240.361197 198.351115 
L 240.563554 201.592395 
L 240.968268 214.691113 
L 242.182412 288.846661 
L 242.384769 290.970269 
L 242.587126 288.050985 
L 242.99184 267.840303 
L 243.396555 244.977601 
L 244.813055 190.713801 
L 245.21777 184.52496 
L 245.420127 187.297799 
L 245.824841 200.38519 
L 247.038985 281.893615 
L 247.241342 285.899236 
L 247.443699 285.051966 
L 247.646056 277.9721 
L 248.253128 239.121249 
L 249.669628 147.881663 
L 249.871985 143.017755 
L 250.074343 147.006472 
L 250.479057 165.990735 
L 251.086129 210.849504 
L 251.6932 255.09679 
L 251.895558 264.9636 
L 252.097915 268.668698 
L 252.300272 268.583167 
L 252.502629 265.858425 
L 252.704986 261.224809 
L 253.109701 242.586465 
L 253.91913 165.749184 
L 254.323844 148.957776 
L 254.526201 146.736429 
L 254.728558 146.325452 
L 254.930916 147.904885 
L 255.133273 152.190543 
L 255.740345 188.680739 
L 256.752131 267.789618 
L 256.954488 274.34833 
L 257.156845 276.162771 
L 257.359202 273.714113 
L 257.763917 261.284897 
L 258.168631 232.128521 
L 258.573345 199.540502 
L 258.97806 177.170724 
L 259.382774 168.060917 
L 259.585131 168.132542 
L 259.787489 169.495828 
L 260.192203 182.025398 
L 260.596917 197.14883 
L 261.001632 232.786959 
L 261.406346 268.219978 
L 261.811061 281.439336 
L 262.013418 280.476914 
L 262.215775 275.249202 
L 263.025204 219.403367 
L 263.429918 216.125167 
L 263.834633 221.283448 
L 264.239347 229.882694 
L 264.441704 231.78728 
L 264.644062 232.568371 
L 264.846419 232.505211 
L 265.048776 233.42762 
L 265.45349 245.013972 
L 265.655848 252.955705 
L 266.262919 289.140428 
L 266.465277 293.073271 
L 266.667634 292.747437 
L 266.869991 289.32386 
L 267.274705 269.691284 
L 267.477063 255.094073 
L 268.286491 232.123967 
L 269.09592 212.558528 
L 269.298277 212.249967 
L 270.310063 231.083816 
L 270.714778 252.60843 
L 271.119492 275.619687 
L 271.32185 282.724337 
L 271.524207 283.650138 
L 271.726564 280.267047 
L 271.928921 274.279748 
L 272.535993 235.864227 
L 272.940707 216.899752 
L 274.15485 153.602401 
L 274.559565 148.720891 
L 274.761922 153.203732 
L 275.166636 176.023263 
L 276.178422 254.178917 
L 276.38078 257.788016 
L 276.583137 257.90988 
L 276.785494 250.494356 
L 278.404352 155.172048 
L 278.606709 146.693409 
L 279.011423 140.956688 
L 279.213781 140.314787 
L 279.618495 154.197876 
L 280.225567 199.882809 
L 281.034995 269.980228 
L 281.237353 273.099624 
L 281.43971 272.356873 
L 281.844424 255.554135 
L 283.058568 181.098568 
L 283.867996 156.280874 
L 284.070354 156.456509 
L 284.272711 161.749258 
L 284.677425 185.403453 
L 285.284497 238.865509 
L 285.689211 271.47024 
L 285.891568 280.668802 
L 286.093926 283.187592 
L 286.296283 282.74623 
L 286.49864 279.603473 
L 287.105712 257.315201 
L 288.319855 171.977144 
L 288.724569 161.439119 
L 288.926927 160.03571 
L 289.129284 161.278275 
L 289.533998 180.366393 
L 289.938713 211.011954 
L 290.545784 258.677522 
L 290.950499 274.0237 
L 291.152856 276.294703 
L 291.355213 273.881041 
L 291.55757 269.491034 
L 291.962285 250.040504 
L 292.771714 168.244883 
L 293.176428 142.817662 
L 293.378785 138.921352 
L 293.581142 137.444569 
L 293.7835 137.126733 
L 293.985857 141.178122 
L 294.592928 170.799385 
L 294.795286 183.699201 
L 295.402357 244.0466 
L 295.807072 260.753123 
L 296.009429 261.591336 
L 296.211786 257.237736 
L 296.818858 204.246221 
L 297.830644 105.775406 
L 298.235358 86.645341 
L 298.437715 86.91194 
L 298.640073 90.809529 
L 299.247144 119.633899 
L 299.651859 150.946046 
L 300.25893 220.258608 
L 300.461287 232.260195 
L 300.663645 236.878658 
L 300.866002 234.852248 
L 301.270716 215.076076 
L 301.877788 162.564004 
L 302.484859 92.417291 
L 302.889574 69.087796 
L 303.091931 69.822932 
L 304.103717 140.102756 
L 304.710789 191.881822 
L 305.31786 245.238526 
L 305.520218 248.46264 
L 305.722575 247.422138 
L 305.924932 238.222848 
L 307.139075 150.831421 
L 307.54379 128.772543 
L 307.948504 115.714643 
L 308.150861 117.12482 
L 309.365005 192.769345 
L 309.972076 250.866554 
L 310.174433 261.617211 
L 310.376791 263.798731 
L 310.579148 260.991776 
L 310.781505 254.515158 
L 312.400363 124.12295 
L 312.60272 115.963139 
L 312.805077 115.789818 
L 313.007434 119.232401 
L 313.412149 136.0536 
L 314.221578 188.02166 
L 314.626292 228.09216 
L 315.031006 250.768834 
L 315.233364 254.388057 
L 315.435721 252.022922 
L 315.638078 243.542377 
L 316.24515 203.909817 
L 316.649864 193.402302 
L 316.852221 190.420571 
L 317.256936 182.536158 
L 317.459293 180.11946 
L 317.66165 179.336869 
L 318.471079 193.272782 
L 318.673436 199.129471 
L 319.07815 222.20146 
L 319.685222 261.19426 
L 319.887579 268.781122 
L 320.089937 271.209977 
L 320.292294 270.910834 
L 320.494651 266.764968 
L 321.506437 222.467431 
L 322.113509 179.552877 
L 322.518223 160.688389 
L 322.72058 156.365859 
L 322.922937 156.083854 
L 323.125295 159.04304 
L 323.530009 177.028153 
L 323.934723 205.244388 
L 324.339438 238.200749 
L 324.744152 260.820714 
L 325.148867 268.248463 
L 325.553581 260.82624 
L 325.755938 254.484158 
L 325.958296 243.521726 
L 326.970082 147.68251 
L 327.172439 136.109598 
L 327.374796 132.435657 
L 327.981868 141.778528 
L 328.588939 176.48039 
L 329.600725 262.933163 
L 329.803083 267.119319 
L 330.00544 268.434386 
L 330.207797 262.398252 
L 330.612511 232.316043 
L 331.219583 177.674019 
L 331.624297 155.500473 
L 332.029012 142.196003 
L 332.231369 143.317777 
L 332.433726 146.517899 
L 332.636083 151.650796 
L 333.647869 205.315711 
L 334.254941 263.636809 
L 334.457298 271.377125 
L 334.659655 274.145896 
L 334.862013 271.887471 
L 335.06437 264.855931 
L 335.873799 215.203255 
L 336.683228 183.628066 
L 336.885585 181.327699 
L 337.087942 182.864213 
L 337.290299 181.02951 
L 337.492656 183.381302 
L 338.099728 202.035564 
L 338.504442 224.361902 
L 339.111514 268.306074 
L 339.313871 275.931106 
L 339.516228 279.017614 
L 339.718586 274.578389 
L 339.920943 266.591064 
L 340.528015 224.154416 
L 341.337443 188.280245 
L 341.539801 184.533494 
L 342.146872 156.53945 
L 342.349229 154.785335 
L 342.551587 156.834158 
L 342.753944 160.137031 
L 343.158658 178.440143 
L 343.361015 192.517431 
L 343.76573 233.248536 
L 344.170444 251.704095 
L 344.372801 254.800783 
L 344.575159 252.675136 
L 344.777516 245.473369 
L 345.384587 206.199665 
L 346.598731 114.913792 
L 346.801088 111.333487 
L 347.003445 110.928558 
L 347.40816 121.353708 
L 347.812874 140.847583 
L 348.419946 195.726543 
L 349.027017 245.626488 
L 349.229374 250.562486 
L 349.431732 251.748338 
L 349.634089 246.817385 
L 350.24116 204.028818 
L 351.050589 135.318759 
L 351.455304 114.760645 
L 351.657661 109.48536 
L 351.860018 108.110462 
L 352.062375 110.909777 
L 352.264733 116.233727 
L 352.669447 137.377926 
L 353.88359 252.810148 
L 354.085947 257.407557 
L 354.288305 257.846366 
L 354.490662 255.376963 
L 354.895376 241.687942 
L 355.097733 228.342853 
L 355.502448 180.034054 
L 355.907162 131.892498 
L 356.311877 109.927714 
L 356.716591 107.016014 
L 356.918948 108.062098 
L 357.121306 112.315801 
L 357.52602 136.318938 
L 358.133092 194.108551 
L 358.537806 235.099062 
L 358.94252 254.237406 
L 359.144878 254.944144 
L 359.347235 252.82679 
L 359.549592 247.186597 
L 359.954306 225.848872 
L 360.966092 106.563661 
L 361.16845 97.046579 
L 361.370807 94.005581 
L 361.775521 96.59952 
L 361.977879 100.758452 
L 362.382593 119.383353 
L 362.787307 149.916698 
L 363.394379 223.315793 
L 363.799093 242.747109 
L 364.001451 242.567553 
L 364.203808 234.655567 
L 364.608522 204.165596 
L 365.215594 132.098739 
L 365.620308 82.140734 
L 366.025023 57.670835 
L 366.22738 55.8 
L 366.632094 65.114367 
L 367.239166 94.812215 
L 367.64388 129.321354 
L 368.250952 200.997687 
L 368.655666 223.15474 
L 368.858024 223.077337 
L 369.262738 203.763678 
L 369.86981 155.436363 
L 370.476881 85.548408 
L 370.881596 63.088453 
L 371.083953 60.591581 
L 371.28631 65.325952 
L 371.691024 84.723858 
L 372.298096 128.190761 
L 373.512239 229.794075 
L 373.714597 228.183342 
L 373.916954 224.176219 
L 374.524025 201.158863 
L 375.535811 98.719076 
L 375.738169 91.468738 
L 375.940526 89.994602 
L 376.34524 99.471714 
L 376.547597 108.428499 
L 377.559383 188.199654 
L 378.166455 237.491539 
L 378.368812 243.709415 
L 378.57117 242.390314 
L 378.773527 235.720905 
L 379.178241 203.710248 
L 380.190027 111.584316 
L 380.594742 92.630307 
L 380.797099 88.283777 
L 380.999456 89.623509 
L 381.201813 92.092567 
L 381.606528 105.903386 
L 382.213599 145.187131 
L 382.820671 211.570162 
L 383.023028 223.320573 
L 383.225385 227.701503 
L 383.427743 227.830081 
L 383.6301 220.598042 
L 384.237171 185.948454 
L 384.237171 185.948454 
" clip-path="url(#p683a278a50)" style="fill: none; stroke: #ff7f0e; stroke-width: 1.5; stroke-linecap: square"/>
   </g>
   <g id="line2d_15">
    <path d="M 384.439529 171.773374 
L 385.248957 116.066717 
L 385.653672 103.591578 
L 385.856029 102.342301 
L 386.058386 105.318361 
L 386.260743 113.921216 
L 387.272529 190.951034 
L 387.879601 232.893697 
L 388.081958 238.198189 
L 388.284316 238.086419 
L 388.486673 233.957197 
L 388.891387 209.309407 
L 390.307888 114.90077 
L 390.510245 109.190671 
L 390.712602 106.969092 
L 390.914959 109.297825 
L 391.117316 117.139913 
L 391.926745 177.265859 
L 392.533817 223.818923 
L 392.938531 238.710681 
L 393.140888 239.792564 
L 393.343246 236.599568 
L 393.74796 214.554776 
L 394.962103 132.109271 
L 395.366818 122.012351 
L 395.569175 121.777355 
L 395.771532 126.004054 
L 396.176247 147.840318 
L 397.39039 234.411927 
L 397.795104 245.875419 
L 397.997461 245.81917 
L 398.199819 242.622761 
L 398.402176 235.352535 
L 399.009248 193.701975 
L 399.616319 154.429893 
L 400.021034 140.282544 
L 400.223391 138.449064 
L 400.425748 140.181374 
L 400.628105 145.693481 
L 401.03282 167.010417 
L 402.246963 243.034327 
L 402.44932 248.97929 
L 402.651677 251.530078 
L 402.854034 250.558629 
L 403.056392 246.811865 
L 403.258749 239.327515 
L 403.86582 198.33183 
L 404.472892 164.788023 
L 404.877607 155.180253 
L 405.079964 155.869452 
L 405.282321 159.877683 
L 405.687035 176.230044 
L 406.901179 243.02907 
L 407.305893 253.54445 
L 407.50825 254.701025 
L 407.710607 252.782723 
L 407.912965 247.80293 
L 408.317679 226.742986 
L 408.924751 187.812756 
L 409.329465 172.362357 
L 409.531822 169.229869 
L 409.73418 169.190921 
L 409.936537 172.47485 
L 410.341251 185.977043 
L 411.555394 241.915605 
L 411.960109 252.954776 
L 412.162466 255.023547 
L 412.364823 254.741448 
L 412.56718 251.480798 
L 412.769538 245.178905 
L 413.983681 182.755214 
L 414.186038 179.651939 
L 414.388395 180.193179 
L 414.590752 183.25568 
L 414.995467 194.916932 
L 416.007253 233.62987 
L 416.614325 251.156707 
L 416.816682 253.543653 
L 417.019039 254.035312 
L 417.221396 252.083418 
L 417.423753 247.319971 
L 417.828468 227.835157 
L 418.435539 196.700207 
L 418.637897 190.92959 
L 418.840254 188.471268 
L 419.042611 189.102706 
L 419.447325 197.323433 
L 421.066183 244.599169 
L 421.470898 251.096851 
L 421.673255 251.927028 
L 421.875612 250.898953 
L 422.077969 247.324996 
L 422.482684 230.941962 
L 423.089755 203.043519 
L 423.292112 198.21593 
L 423.49447 196.368899 
L 423.696827 197.635241 
L 424.101541 206.60031 
L 424.91097 229.078644 
L 426.125113 247.84982 
L 426.327471 249.049735 
L 426.529828 248.468894 
L 426.732185 245.918903 
L 427.136899 232.037747 
L 427.743971 208.058389 
L 427.946328 204.66079 
L 428.148685 204.038452 
L 428.351043 205.857515 
L 428.755757 215.202004 
L 429.362829 229.589869 
L 429.767543 234.33292 
L 430.172257 237.623998 
L 430.779329 244.18526 
L 430.981686 245.442581 
L 431.184044 245.269919 
L 431.386401 243.326902 
L 431.791115 231.724045 
L 432.19583 217.054604 
L 432.398187 212.387782 
L 432.600544 210.665924 
L 432.802901 211.191873 
L 433.005258 213.642766 
L 434.017044 232.139737 
L 434.421759 234.578827 
L 434.624116 234.779694 
L 434.826473 235.607912 
L 435.635902 241.628936 
L 435.838259 241.589307 
L 436.040617 239.945686 
L 436.445331 230.35419 
L 436.850045 219.145457 
L 437.052403 216.389788 
L 437.25476 216.050191 
L 437.457117 216.920008 
L 437.659474 219.219283 
L 438.266546 229.418663 
L 438.67126 232.447074 
L 438.873617 233.001377 
L 439.278332 232.469284 
L 439.480689 232.85017 
L 439.885403 235.832689 
L 440.290118 237.821959 
L 440.492475 237.677192 
L 440.694832 236.040928 
L 441.099547 228.381974 
L 441.504261 220.705848 
L 441.706618 219.623604 
L 441.908976 219.62924 
L 442.111333 220.71731 
L 443.123119 231.02991 
L 443.325476 231.310767 
L 443.527833 231.068755 
L 443.932548 229.881903 
L 444.134905 230.286532 
L 444.741976 233.893171 
L 444.944334 234.385234 
L 445.146691 234.022308 
L 445.349048 232.602154 
L 445.753762 226.763043 
L 446.158477 222.069619 
L 446.360834 221.44861 
L 446.563191 221.671192 
L 446.765549 222.922791 
L 447.37262 228.558003 
L 447.574977 229.568124 
L 447.777335 229.841405 
L 447.979692 229.501197 
L 448.384406 228.136734 
L 448.586763 227.938165 
L 448.789121 228.471733 
L 449.396192 231.535534 
L 449.598549 231.749135 
L 449.800907 231.361713 
L 450.003264 230.198772 
L 450.812693 222.802111 
L 451.01505 222.375767 
L 451.217407 222.844982 
L 452.026836 228.169431 
L 452.229193 228.643126 
L 452.43155 228.462893 
L 453.038622 226.672332 
L 453.240979 226.699822 
L 453.443336 227.312011 
L 454.050408 229.879404 
L 454.252765 229.991758 
L 454.455122 229.604412 
L 454.65748 228.630397 
L 455.264551 224.025329 
L 455.466908 223.232122 
L 455.669266 223.227465 
L 455.871623 223.868857 
L 456.681052 227.727228 
L 456.883409 227.820709 
L 457.288123 226.604312 
L 457.692838 225.809837 
L 457.895195 225.99484 
L 458.299909 227.420577 
L 458.704624 228.776791 
L 458.906981 228.879232 
L 459.109338 228.532864 
L 459.514053 226.349068 
L 459.918767 224.073063 
L 460.121124 223.612267 
L 460.323481 223.807499 
L 460.728196 225.416499 
L 461.13291 226.968113 
L 461.335267 227.276494 
L 461.537625 227.085714 
L 462.144696 225.423512 
L 462.347053 225.313422 
L 462.549411 225.572571 
L 462.954125 226.951571 
L 463.35884 228.099672 
L 463.561197 228.142587 
L 463.763554 227.761447 
L 464.77534 223.975781 
L 464.977697 224.263679 
L 465.787126 226.832671 
L 465.989483 226.915582 
L 466.19184 226.609898 
L 466.798912 225.094206 
L 467.001269 225.054257 
L 467.203626 225.350787 
L 468.013055 227.671545 
L 468.215413 227.642376 
L 468.41777 227.216832 
L 469.227199 224.374484 
L 469.429556 224.342622 
L 469.631913 224.697328 
L 470.238985 226.513005 
L 470.441342 226.735179 
L 470.643699 226.651821 
L 471.048413 225.737018 
L 471.453128 224.940036 
L 471.655485 224.965592 
L 471.857842 225.30502 
L 472.667271 227.350364 
L 472.869628 227.254788 
L 473.274343 226.181701 
L 473.679057 224.865332 
L 473.881414 224.579102 
L 474.083772 224.658621 
L 474.488486 225.617842 
L 474.8932 226.548572 
L 475.095558 226.647705 
L 475.297915 226.473002 
L 476.107344 224.880092 
L 476.309701 224.975999 
L 476.714415 225.921045 
L 477.11913 226.938356 
L 477.321487 227.092365 
L 477.523844 226.945869 
L 477.928558 225.95631 
L 478.333273 224.916503 
L 478.53563 224.769485 
L 478.737987 224.931883 
L 479.547416 226.532548 
L 479.749773 226.546228 
L 479.952131 226.316531 
L 480.761559 224.908505 
L 480.963917 225.061342 
L 481.975703 226.882536 
L 482.17806 226.699226 
L 483.189846 224.941476 
L 483.392203 225.157688 
L 484.201632 226.50807 
L 484.403989 226.448765 
L 484.808704 225.76712 
L 485.213418 225.043141 
L 485.415775 224.989937 
L 485.618132 225.180129 
L 486.427561 226.675244 
L 486.629918 226.699013 
L 486.832276 226.494402 
L 487.641704 225.060078 
L 487.844062 225.094055 
L 488.248776 225.711339 
L 488.65349 226.368712 
L 488.855848 226.456357 
L 489.058205 226.340675 
L 489.867634 225.077524 
L 490.069991 225.082373 
L 490.474705 225.662082 
L 490.87942 226.401805 
L 491.081777 226.566273 
L 491.284134 226.535316 
L 491.688849 225.94896 
L 492.093563 225.24856 
L 492.29592 225.132836 
L 492.498277 225.223873 
L 493.510063 226.380905 
L 493.712421 226.228116 
L 494.52185 225.126935 
L 494.724207 225.178413 
L 495.128921 225.747384 
L 495.533636 226.361324 
L 495.735993 226.46138 
L 495.93835 226.385034 
L 496.343064 225.81364 
L 496.747779 225.253336 
L 496.950136 225.206014 
L 497.35485 225.603024 
L 497.759565 226.182918 
L 497.961922 226.31561 
L 498.164279 226.295686 
L 498.568994 225.830842 
L 498.973708 225.270145 
L 499.176065 225.185188 
L 499.378422 225.274585 
L 500.390209 226.361191 
L 500.592566 226.249981 
L 501.401995 225.274041 
L 501.604352 225.281419 
L 502.009066 225.698529 
L 502.413781 226.18882 
L 502.616138 226.268929 
L 502.818495 226.209435 
L 503.223209 225.744251 
L 503.627924 225.284209 
L 503.830281 225.249821 
L 504.234995 225.601958 
L 504.842067 226.264782 
L 505.044424 226.265425 
L 505.449139 225.893118 
L 505.853853 225.400161 
L 506.05621 225.305565 
L 506.258568 225.355818 
L 507.270354 226.214527 
L 507.675068 225.925264 
L 508.28214 225.309025 
L 508.484497 225.316722 
L 508.889211 225.681288 
L 509.293926 226.126375 
L 509.496283 226.210857 
L 509.69864 226.17467 
L 510.103354 225.796283 
L 510.508069 225.392204 
L 510.710426 225.346578 
L 511.115141 225.611558 
L 511.722212 226.155072 
L 511.924569 226.154332 
L 512.329284 225.843189 
L 512.733998 225.424906 
L 512.936355 225.342428 
L 513.34107 225.534993 
L 513.948141 226.114593 
L 514.352856 226.090053 
L 515.364642 225.392574 
L 515.769356 225.681128 
L 516.174071 226.050266 
L 516.578785 226.091587 
L 516.9835 225.771149 
L 517.388214 225.423808 
L 517.792928 225.451132 
L 518.4 225.985421 
L 518.4 225.985421 
" clip-path="url(#p683a278a50)" style="fill: none; stroke: #2ca02c; stroke-width: 1.5; stroke-linecap: square"/>
   </g>
   <g id="patch_3">
    <path d="M 72 320.4 
L 72 43.2 
" style="fill: none; stroke: #000000; stroke-width: 0.8; stroke-linejoin: miter; stroke-linecap: square"/>
   </g>
   <g id="patch_4">
    <path d="M 518.4 320.4 
L 518.4 43.2 
" style="fill: none; stroke: #000000; stroke-width: 0.8; stroke-linejoin: miter; stroke-linecap: square"/>
   </g>
   <g id="patch_5">
    <path d="M 72 320.4 
L 518.4 320.4 
" style="fill: none; stroke: #000000; stroke-width: 0.8; stroke-linejoin: miter; stroke-linecap: square"/>
   </g>
   <g id="patch_6">
    <path d="M 72 43.2 
L 518.4 43.2 
" style="fill: none; stroke: #000000; stroke-width: 0.8; stroke-linejoin: miter; stroke-linecap: square"/>
   </g>
   <g id="text_13">
    <!-- Classic Transformer - model_20231123162025 -->
    <g transform="translate(155.436563 37.2) scale(0.12 -0.12)">
     <defs>
      <path id="DejaVuSans-43" d="M 4122 4306 
L 4122 3641 
Q 3803 3938 3442 4084 
Q 3081 4231 2675 4231 
Q 1875 4231 1450 3742 
Q 1025 3253 1025 2328 
Q 1025 1406 1450 917 
Q 1875 428 2675 428 
Q 3081 428 3442 575 
Q 3803 722 4122 1019 
L 4122 359 
Q 3791 134 3420 21 
Q 3050 -91 2638 -91 
Q 1578 -91 968 557 
Q 359 1206 359 2328 
Q 359 3453 968 4101 
Q 1578 4750 2638 4750 
Q 3056 4750 3426 4639 
Q 3797 4528 4122 4306 
z
" transform="scale(0.015625)"/>
      <path id="DejaVuSans-6c" d="M 603 4863 
L 1178 4863 
L 1178 0 
L 603 0 
L 603 4863 
z
" transform="scale(0.015625)"/>
      <path id="DejaVuSans-61" d="M 2194 1759 
Q 1497 1759 1228 1600 
Q 959 1441 959 1056 
Q 959 750 1161 570 
Q 1363 391 1709 391 
Q 2188 391 2477 730 
Q 2766 1069 2766 1631 
L 2766 1759 
L 2194 1759 
z
M 3341 1997 
L 3341 0 
L 2766 0 
L 2766 531 
Q 2569 213 2275 61 
Q 1981 -91 1556 -91 
Q 1019 -91 701 211 
Q 384 513 384 1019 
Q 384 1609 779 1909 
Q 1175 2209 1959 2209 
L 2766 2209 
L 2766 2266 
Q 2766 2663 2505 2880 
Q 2244 3097 1772 3097 
Q 1472 3097 1187 3025 
Q 903 2953 641 2809 
L 641 3341 
Q 956 3463 1253 3523 
Q 1550 3584 1831 3584 
Q 2591 3584 2966 3190 
Q 3341 2797 3341 1997 
z
" transform="scale(0.015625)"/>
      <path id="DejaVuSans-73" d="M 2834 3397 
L 2834 2853 
Q 2591 2978 2328 3040 
Q 2066 3103 1784 3103 
Q 1356 3103 1142 2972 
Q 928 2841 928 2578 
Q 928 2378 1081 2264 
Q 1234 2150 1697 2047 
L 1894 2003 
Q 2506 1872 2764 1633 
Q 3022 1394 3022 966 
Q 3022 478 2636 193 
Q 2250 -91 1575 -91 
Q 1294 -91 989 -36 
Q 684 19 347 128 
L 347 722 
Q 666 556 975 473 
Q 1284 391 1588 391 
Q 1994 391 2212 530 
Q 2431 669 2431 922 
Q 2431 1156 2273 1281 
Q 2116 1406 1581 1522 
L 1381 1569 
Q 847 1681 609 1914 
Q 372 2147 372 2553 
Q 372 3047 722 3315 
Q 1072 3584 1716 3584 
Q 2034 3584 2315 3537 
Q 2597 3491 2834 3397 
z
" transform="scale(0.015625)"/>
      <path id="DejaVuSans-69" d="M 603 3500 
L 1178 3500 
L 1178 0 
L 603 0 
L 603 3500 
z
M 603 4863 
L 1178 4863 
L 1178 4134 
L 603 4134 
L 603 4863 
z
" transform="scale(0.015625)"/>
      <path id="DejaVuSans-63" d="M 3122 3366 
L 3122 2828 
Q 2878 2963 2633 3030 
Q 2388 3097 2138 3097 
Q 1578 3097 1268 2742 
Q 959 2388 959 1747 
Q 959 1106 1268 751 
Q 1578 397 2138 397 
Q 2388 397 2633 464 
Q 2878 531 3122 666 
L 3122 134 
Q 2881 22 2623 -34 
Q 2366 -91 2075 -91 
Q 1284 -91 818 406 
Q 353 903 353 1747 
Q 353 2603 823 3093 
Q 1294 3584 2113 3584 
Q 2378 3584 2631 3529 
Q 2884 3475 3122 3366 
z
" transform="scale(0.015625)"/>
      <path id="DejaVuSans-20" transform="scale(0.015625)"/>
      <path id="DejaVuSans-54" d="M -19 4666 
L 3928 4666 
L 3928 4134 
L 2272 4134 
L 2272 0 
L 1638 0 
L 1638 4134 
L -19 4134 
L -19 4666 
z
" transform="scale(0.015625)"/>
      <path id="DejaVuSans-72" d="M 2631 2963 
Q 2534 3019 2420 3045 
Q 2306 3072 2169 3072 
Q 1681 3072 1420 2755 
Q 1159 2438 1159 1844 
L 1159 0 
L 581 0 
L 581 3500 
L 1159 3500 
L 1159 2956 
Q 1341 3275 1631 3429 
Q 1922 3584 2338 3584 
Q 2397 3584 2469 3576 
Q 2541 3569 2628 3553 
L 2631 2963 
z
" transform="scale(0.015625)"/>
      <path id="DejaVuSans-6e" d="M 3513 2113 
L 3513 0 
L 2938 0 
L 2938 2094 
Q 2938 2591 2744 2837 
Q 2550 3084 2163 3084 
Q 1697 3084 1428 2787 
Q 1159 2491 1159 1978 
L 1159 0 
L 581 0 
L 581 3500 
L 1159 3500 
L 1159 2956 
Q 1366 3272 1645 3428 
Q 1925 3584 2291 3584 
Q 2894 3584 3203 3211 
Q 3513 2838 3513 2113 
z
" transform="scale(0.015625)"/>
      <path id="DejaVuSans-66" d="M 2375 4863 
L 2375 4384 
L 1825 4384 
Q 1516 4384 1395 4259 
Q 1275 4134 1275 3809 
L 1275 3500 
L 2222 3500 
L 2222 3053 
L 1275 3053 
L 1275 0 
L 697 0 
L 697 3053 
L 147 3053 
L 147 3500 
L 697 3500 
L 697 3744 
Q 697 4328 969 4595 
Q 1241 4863 1831 4863 
L 2375 4863 
z
" transform="scale(0.015625)"/>
      <path id="DejaVuSans-6f" d="M 1959 3097 
Q 1497 3097 1228 2736 
Q 959 2375 959 1747 
Q 959 1119 1226 758 
Q 1494 397 1959 397 
Q 2419 397 2687 759 
Q 2956 1122 2956 1747 
Q 2956 2369 2687 2733 
Q 2419 3097 1959 3097 
z
M 1959 3584 
Q 2709 3584 3137 3096 
Q 3566 2609 3566 1747 
Q 3566 888 3137 398 
Q 2709 -91 1959 -91 
Q 1206 -91 779 398 
Q 353 888 353 1747 
Q 353 2609 779 3096 
Q 1206 3584 1959 3584 
z
" transform="scale(0.015625)"/>
      <path id="DejaVuSans-6d" d="M 3328 2828 
Q 3544 3216 3844 3400 
Q 4144 3584 4550 3584 
Q 5097 3584 5394 3201 
Q 5691 2819 5691 2113 
L 5691 0 
L 5113 0 
L 5113 2094 
Q 5113 2597 4934 2840 
Q 4756 3084 4391 3084 
Q 3944 3084 3684 2787 
Q 3425 2491 3425 1978 
L 3425 0 
L 2847 0 
L 2847 2094 
Q 2847 2600 2669 2842 
Q 2491 3084 2119 3084 
Q 1678 3084 1418 2786 
Q 1159 2488 1159 1978 
L 1159 0 
L 581 0 
L 581 3500 
L 1159 3500 
L 1159 2956 
Q 1356 3278 1631 3431 
Q 1906 3584 2284 3584 
Q 2666 3584 2933 3390 
Q 3200 3197 3328 2828 
z
" transform="scale(0.015625)"/>
      <path id="DejaVuSans-65" d="M 3597 1894 
L 3597 1613 
L 953 1613 
Q 991 1019 1311 708 
Q 1631 397 2203 397 
Q 2534 397 2845 478 
Q 3156 559 3463 722 
L 3463 178 
Q 3153 47 2828 -22 
Q 2503 -91 2169 -91 
Q 1331 -91 842 396 
Q 353 884 353 1716 
Q 353 2575 817 3079 
Q 1281 3584 2069 3584 
Q 2775 3584 3186 3129 
Q 3597 2675 3597 1894 
z
M 3022 2063 
Q 3016 2534 2758 2815 
Q 2500 3097 2075 3097 
Q 1594 3097 1305 2825 
Q 1016 2553 972 2059 
L 3022 2063 
z
" transform="scale(0.015625)"/>
      <path id="DejaVuSans-64" d="M 2906 2969 
L 2906 4863 
L 3481 4863 
L 3481 0 
L 2906 0 
L 2906 525 
Q 2725 213 2448 61 
Q 2172 -91 1784 -91 
Q 1150 -91 751 415 
Q 353 922 353 1747 
Q 353 2572 751 3078 
Q 1150 3584 1784 3584 
Q 2172 3584 2448 3432 
Q 2725 3281 2906 2969 
z
M 947 1747 
Q 947 1113 1208 752 
Q 1469 391 1925 391 
Q 2381 391 2643 752 
Q 2906 1113 2906 1747 
Q 2906 2381 2643 2742 
Q 2381 3103 1925 3103 
Q 1469 3103 1208 2742 
Q 947 2381 947 1747 
z
" transform="scale(0.015625)"/>
      <path id="DejaVuSans-5f" d="M 3263 -1063 
L 3263 -1509 
L -63 -1509 
L -63 -1063 
L 3263 -1063 
z
" transform="scale(0.015625)"/>
     </defs>
     <use xlink:href="#DejaVuSans-43"/>
     <use xlink:href="#DejaVuSans-6c" x="69.824219"/>
     <use xlink:href="#DejaVuSans-61" x="97.607422"/>
     <use xlink:href="#DejaVuSans-73" x="158.886719"/>
     <use xlink:href="#DejaVuSans-73" x="210.986328"/>
     <use xlink:href="#DejaVuSans-69" x="263.085938"/>
     <use xlink:href="#DejaVuSans-63" x="290.869141"/>
     <use xlink:href="#DejaVuSans-20" x="345.849609"/>
     <use xlink:href="#DejaVuSans-54" x="377.636719"/>
     <use xlink:href="#DejaVuSans-72" x="423.970703"/>
     <use xlink:href="#DejaVuSans-61" x="465.083984"/>
     <use xlink:href="#DejaVuSans-6e" x="526.363281"/>
     <use xlink:href="#DejaVuSans-73" x="589.742188"/>
     <use xlink:href="#DejaVuSans-66" x="641.841797"/>
     <use xlink:href="#DejaVuSans-6f" x="677.046875"/>
     <use xlink:href="#DejaVuSans-72" x="738.228516"/>
     <use xlink:href="#DejaVuSans-6d" x="777.591797"/>
     <use xlink:href="#DejaVuSans-65" x="875.003906"/>
     <use xlink:href="#DejaVuSans-72" x="936.527344"/>
     <use xlink:href="#DejaVuSans-20" x="977.640625"/>
     <use xlink:href="#DejaVuSans-2d" x="1009.427734"/>
     <use xlink:href="#DejaVuSans-20" x="1045.511719"/>
     <use xlink:href="#DejaVuSans-6d" x="1077.298828"/>
     <use xlink:href="#DejaVuSans-6f" x="1174.710938"/>
     <use xlink:href="#DejaVuSans-64" x="1235.892578"/>
     <use xlink:href="#DejaVuSans-65" x="1299.369141"/>
     <use xlink:href="#DejaVuSans-6c" x="1360.892578"/>
     <use xlink:href="#DejaVuSans-5f" x="1388.675781"/>
     <use xlink:href="#DejaVuSans-32" x="1438.675781"/>
     <use xlink:href="#DejaVuSans-30" x="1502.298828"/>
     <use xlink:href="#DejaVuSans-32" x="1565.921875"/>
     <use xlink:href="#DejaVuSans-33" x="1629.544922"/>
     <use xlink:href="#DejaVuSans-31" x="1693.167969"/>
     <use xlink:href="#DejaVuSans-31" x="1756.791016"/>
     <use xlink:href="#DejaVuSans-32" x="1820.414062"/>
     <use xlink:href="#DejaVuSans-33" x="1884.037109"/>
     <use xlink:href="#DejaVuSans-31" x="1947.660156"/>
     <use xlink:href="#DejaVuSans-36" x="2011.283203"/>
     <use xlink:href="#DejaVuSans-32" x="2074.90625"/>
     <use xlink:href="#DejaVuSans-30" x="2138.529297"/>
     <use xlink:href="#DejaVuSans-32" x="2202.152344"/>
     <use xlink:href="#DejaVuSans-35" x="2265.775391"/>
    </g>
   </g>
   <g id="legend_1">
    <g id="patch_7">
     <path d="M 79 95.234375 
L 161.517188 95.234375 
Q 163.517188 95.234375 163.517188 93.234375 
L 163.517188 50.2 
Q 163.517188 48.2 161.517188 48.2 
L 79 48.2 
Q 77 48.2 77 50.2 
L 77 93.234375 
Q 77 95.234375 79 95.234375 
z
" style="fill: #ffffff; opacity: 0.8; stroke: #cccccc; stroke-linejoin: miter"/>
    </g>
    <g id="line2d_16">
     <path d="M 81 56.298437 
L 91 56.298437 
L 101 56.298437 
" style="fill: none; stroke: #1f77b4; stroke-width: 1.5; stroke-linecap: square"/>
    </g>
    <g id="text_14">
     <!-- Measured -->
     <g transform="translate(109 59.798437) scale(0.1 -0.1)">
      <defs>
       <path id="DejaVuSans-4d" d="M 628 4666 
L 1569 4666 
L 2759 1491 
L 3956 4666 
L 4897 4666 
L 4897 0 
L 4281 0 
L 4281 4097 
L 3078 897 
L 2444 897 
L 1241 4097 
L 1241 0 
L 628 0 
L 628 4666 
z
" transform="scale(0.015625)"/>
       <path id="DejaVuSans-75" d="M 544 1381 
L 544 3500 
L 1119 3500 
L 1119 1403 
Q 1119 906 1312 657 
Q 1506 409 1894 409 
Q 2359 409 2629 706 
Q 2900 1003 2900 1516 
L 2900 3500 
L 3475 3500 
L 3475 0 
L 2900 0 
L 2900 538 
Q 2691 219 2414 64 
Q 2138 -91 1772 -91 
Q 1169 -91 856 284 
Q 544 659 544 1381 
z
M 1991 3584 
L 1991 3584 
z
" transform="scale(0.015625)"/>
      </defs>
      <use xlink:href="#DejaVuSans-4d"/>
      <use xlink:href="#DejaVuSans-65" x="86.279297"/>
      <use xlink:href="#DejaVuSans-61" x="147.802734"/>
      <use xlink:href="#DejaVuSans-73" x="209.082031"/>
      <use xlink:href="#DejaVuSans-75" x="261.181641"/>
      <use xlink:href="#DejaVuSans-72" x="324.560547"/>
      <use xlink:href="#DejaVuSans-65" x="363.423828"/>
      <use xlink:href="#DejaVuSans-64" x="424.947266"/>
     </g>
    </g>
    <g id="line2d_17">
     <path d="M 81 70.976562 
L 91 70.976562 
L 101 70.976562 
" style="fill: none; stroke: #ff7f0e; stroke-width: 1.5; stroke-linecap: square"/>
    </g>
    <g id="text_15">
     <!-- Fitted -->
     <g transform="translate(109 74.476562) scale(0.1 -0.1)">
      <defs>
       <path id="DejaVuSans-46" d="M 628 4666 
L 3309 4666 
L 3309 4134 
L 1259 4134 
L 1259 2759 
L 3109 2759 
L 3109 2228 
L 1259 2228 
L 1259 0 
L 628 0 
L 628 4666 
z
" transform="scale(0.015625)"/>
       <path id="DejaVuSans-74" d="M 1172 4494 
L 1172 3500 
L 2356 3500 
L 2356 3053 
L 1172 3053 
L 1172 1153 
Q 1172 725 1289 603 
Q 1406 481 1766 481 
L 2356 481 
L 2356 0 
L 1766 0 
Q 1100 0 847 248 
Q 594 497 594 1153 
L 594 3053 
L 172 3053 
L 172 3500 
L 594 3500 
L 594 4494 
L 1172 4494 
z
" transform="scale(0.015625)"/>
      </defs>
      <use xlink:href="#DejaVuSans-46"/>
      <use xlink:href="#DejaVuSans-69" x="50.269531"/>
      <use xlink:href="#DejaVuSans-74" x="78.052734"/>
      <use xlink:href="#DejaVuSans-74" x="117.261719"/>
      <use xlink:href="#DejaVuSans-65" x="156.470703"/>
      <use xlink:href="#DejaVuSans-64" x="217.994141"/>
     </g>
    </g>
    <g id="line2d_18">
     <path d="M 81 85.654687 
L 91 85.654687 
L 101 85.654687 
" style="fill: none; stroke: #2ca02c; stroke-width: 1.5; stroke-linecap: square"/>
    </g>
    <g id="text_16">
     <!-- Estimated -->
     <g transform="translate(109 89.154687) scale(0.1 -0.1)">
      <defs>
       <path id="DejaVuSans-45" d="M 628 4666 
L 3578 4666 
L 3578 4134 
L 1259 4134 
L 1259 2753 
L 3481 2753 
L 3481 2222 
L 1259 2222 
L 1259 531 
L 3634 531 
L 3634 0 
L 628 0 
L 628 4666 
z
" transform="scale(0.015625)"/>
      </defs>
      <use xlink:href="#DejaVuSans-45"/>
      <use xlink:href="#DejaVuSans-73" x="63.183594"/>
      <use xlink:href="#DejaVuSans-74" x="115.283203"/>
      <use xlink:href="#DejaVuSans-69" x="154.492188"/>
      <use xlink:href="#DejaVuSans-6d" x="182.275391"/>
      <use xlink:href="#DejaVuSans-61" x="279.6875"/>
      <use xlink:href="#DejaVuSans-74" x="340.966797"/>
      <use xlink:href="#DejaVuSans-65" x="380.175781"/>
      <use xlink:href="#DejaVuSans-64" x="441.699219"/>
     </g>
    </g>
   </g>
  </g>
 </g>
 <defs>
  <clipPath id="p683a278a50">
   <rect x="72" y="43.2" width="446.4" height="277.2"/>
  </clipPath>
 </defs>
</svg>
