<?xml version="1.0" encoding="utf-8" standalone="no"?>
<!DOCTYPE svg PUBLIC "-//W3C//DTD SVG 1.1//EN"
  "http://www.w3.org/Graphics/SVG/1.1/DTD/svg11.dtd">
<svg xmlns:xlink="http://www.w3.org/1999/xlink" width="576pt" height="360pt" viewBox="0 0 576 360" xmlns="http://www.w3.org/2000/svg" version="1.1">
 <metadata>
  <rdf:RDF xmlns:dc="http://purl.org/dc/elements/1.1/" xmlns:cc="http://creativecommons.org/ns#" xmlns:rdf="http://www.w3.org/1999/02/22-rdf-syntax-ns#">
   <cc:Work>
    <dc:type rdf:resource="http://purl.org/dc/dcmitype/StillImage"/>
    <dc:date>2023-11-23T17:02:37.882747</dc:date>
    <dc:format>image/svg+xml</dc:format>
    <dc:creator>
     <cc:Agent>
      <dc:title>Matplotlib v3.8.1, https://matplotlib.org/</dc:title>
     </cc:Agent>
    </dc:creator>
   </cc:Work>
  </rdf:RDF>
 </metadata>
 <defs>
  <style type="text/css">*{stroke-linejoin: round; stroke-linecap: butt}</style>
 </defs>
 <g id="figure_1">
  <g id="patch_1">
   <path d="M 0 360 
L 576 360 
L 576 0 
L 0 0 
z
" style="fill: #ffffff"/>
  </g>
  <g id="axes_1">
   <g id="patch_2">
    <path d="M 72 320.4 
L 518.4 320.4 
L 518.4 43.2 
L 72 43.2 
z
" style="fill: #ffffff"/>
   </g>
   <g id="matplotlib.axis_1">
    <g id="xtick_1">
     <g id="line2d_1">
      <defs>
       <path id="mccb1ab4caf" d="M 0 0 
L 0 3.5 
" style="stroke: #000000; stroke-width: 0.8"/>
      </defs>
      <g>
       <use xlink:href="#mccb1ab4caf" x="129.874161" y="320.4" style="stroke: #000000; stroke-width: 0.8"/>
      </g>
     </g>
     <g id="text_1">
      <!-- 2020-05-15 -->
      <g transform="translate(100.816349 334.998438) scale(0.1 -0.1)">
       <defs>
        <path id="DejaVuSans-32" d="M 1228 531 
L 3431 531 
L 3431 0 
L 469 0 
L 469 531 
Q 828 903 1448 1529 
Q 2069 2156 2228 2338 
Q 2531 2678 2651 2914 
Q 2772 3150 2772 3378 
Q 2772 3750 2511 3984 
Q 2250 4219 1831 4219 
Q 1534 4219 1204 4116 
Q 875 4013 500 3803 
L 500 4441 
Q 881 4594 1212 4672 
Q 1544 4750 1819 4750 
Q 2544 4750 2975 4387 
Q 3406 4025 3406 3419 
Q 3406 3131 3298 2873 
Q 3191 2616 2906 2266 
Q 2828 2175 2409 1742 
Q 1991 1309 1228 531 
z
" transform="scale(0.015625)"/>
        <path id="DejaVuSans-30" d="M 2034 4250 
Q 1547 4250 1301 3770 
Q 1056 3291 1056 2328 
Q 1056 1369 1301 889 
Q 1547 409 2034 409 
Q 2525 409 2770 889 
Q 3016 1369 3016 2328 
Q 3016 3291 2770 3770 
Q 2525 4250 2034 4250 
z
M 2034 4750 
Q 2819 4750 3233 4129 
Q 3647 3509 3647 2328 
Q 3647 1150 3233 529 
Q 2819 -91 2034 -91 
Q 1250 -91 836 529 
Q 422 1150 422 2328 
Q 422 3509 836 4129 
Q 1250 4750 2034 4750 
z
" transform="scale(0.015625)"/>
        <path id="DejaVuSans-2d" d="M 313 2009 
L 1997 2009 
L 1997 1497 
L 313 1497 
L 313 2009 
z
" transform="scale(0.015625)"/>
        <path id="DejaVuSans-35" d="M 691 4666 
L 3169 4666 
L 3169 4134 
L 1269 4134 
L 1269 2991 
Q 1406 3038 1543 3061 
Q 1681 3084 1819 3084 
Q 2600 3084 3056 2656 
Q 3513 2228 3513 1497 
Q 3513 744 3044 326 
Q 2575 -91 1722 -91 
Q 1428 -91 1123 -41 
Q 819 9 494 109 
L 494 744 
Q 775 591 1075 516 
Q 1375 441 1709 441 
Q 2250 441 2565 725 
Q 2881 1009 2881 1497 
Q 2881 1984 2565 2268 
Q 2250 2553 1709 2553 
Q 1456 2553 1204 2497 
Q 953 2441 691 2322 
L 691 4666 
z
" transform="scale(0.015625)"/>
        <path id="DejaVuSans-31" d="M 794 531 
L 1825 531 
L 1825 4091 
L 703 3866 
L 703 4441 
L 1819 4666 
L 2450 4666 
L 2450 531 
L 3481 531 
L 3481 0 
L 794 0 
L 794 531 
z
" transform="scale(0.015625)"/>
       </defs>
       <use xlink:href="#DejaVuSans-32"/>
       <use xlink:href="#DejaVuSans-30" x="63.623047"/>
       <use xlink:href="#DejaVuSans-32" x="127.246094"/>
       <use xlink:href="#DejaVuSans-30" x="190.869141"/>
       <use xlink:href="#DejaVuSans-2d" x="254.492188"/>
       <use xlink:href="#DejaVuSans-30" x="290.576172"/>
       <use xlink:href="#DejaVuSans-35" x="354.199219"/>
       <use xlink:href="#DejaVuSans-2d" x="417.822266"/>
       <use xlink:href="#DejaVuSans-31" x="453.90625"/>
       <use xlink:href="#DejaVuSans-35" x="517.529297"/>
      </g>
     </g>
    </g>
    <g id="xtick_2">
     <g id="line2d_2">
      <g>
       <use xlink:href="#mccb1ab4caf" x="212.435902" y="320.4" style="stroke: #000000; stroke-width: 0.8"/>
      </g>
     </g>
     <g id="text_2">
      <!-- 2020-06-01 -->
      <g transform="translate(183.37809 334.998438) scale(0.1 -0.1)">
       <defs>
        <path id="DejaVuSans-36" d="M 2113 2584 
Q 1688 2584 1439 2293 
Q 1191 2003 1191 1497 
Q 1191 994 1439 701 
Q 1688 409 2113 409 
Q 2538 409 2786 701 
Q 3034 994 3034 1497 
Q 3034 2003 2786 2293 
Q 2538 2584 2113 2584 
z
M 3366 4563 
L 3366 3988 
Q 3128 4100 2886 4159 
Q 2644 4219 2406 4219 
Q 1781 4219 1451 3797 
Q 1122 3375 1075 2522 
Q 1259 2794 1537 2939 
Q 1816 3084 2150 3084 
Q 2853 3084 3261 2657 
Q 3669 2231 3669 1497 
Q 3669 778 3244 343 
Q 2819 -91 2113 -91 
Q 1303 -91 875 529 
Q 447 1150 447 2328 
Q 447 3434 972 4092 
Q 1497 4750 2381 4750 
Q 2619 4750 2861 4703 
Q 3103 4656 3366 4563 
z
" transform="scale(0.015625)"/>
       </defs>
       <use xlink:href="#DejaVuSans-32"/>
       <use xlink:href="#DejaVuSans-30" x="63.623047"/>
       <use xlink:href="#DejaVuSans-32" x="127.246094"/>
       <use xlink:href="#DejaVuSans-30" x="190.869141"/>
       <use xlink:href="#DejaVuSans-2d" x="254.492188"/>
       <use xlink:href="#DejaVuSans-30" x="290.576172"/>
       <use xlink:href="#DejaVuSans-36" x="354.199219"/>
       <use xlink:href="#DejaVuSans-2d" x="417.822266"/>
       <use xlink:href="#DejaVuSans-30" x="453.90625"/>
       <use xlink:href="#DejaVuSans-31" x="517.529297"/>
      </g>
     </g>
    </g>
    <g id="xtick_3">
     <g id="line2d_3">
      <g>
       <use xlink:href="#mccb1ab4caf" x="280.427924" y="320.4" style="stroke: #000000; stroke-width: 0.8"/>
      </g>
     </g>
     <g id="text_3">
      <!-- 2020-06-15 -->
      <g transform="translate(251.370111 334.998438) scale(0.1 -0.1)">
       <use xlink:href="#DejaVuSans-32"/>
       <use xlink:href="#DejaVuSans-30" x="63.623047"/>
       <use xlink:href="#DejaVuSans-32" x="127.246094"/>
       <use xlink:href="#DejaVuSans-30" x="190.869141"/>
       <use xlink:href="#DejaVuSans-2d" x="254.492188"/>
       <use xlink:href="#DejaVuSans-30" x="290.576172"/>
       <use xlink:href="#DejaVuSans-36" x="354.199219"/>
       <use xlink:href="#DejaVuSans-2d" x="417.822266"/>
       <use xlink:href="#DejaVuSans-31" x="453.90625"/>
       <use xlink:href="#DejaVuSans-35" x="517.529297"/>
      </g>
     </g>
    </g>
    <g id="xtick_4">
     <g id="line2d_4">
      <g>
       <use xlink:href="#mccb1ab4caf" x="358.133092" y="320.4" style="stroke: #000000; stroke-width: 0.8"/>
      </g>
     </g>
     <g id="text_4">
      <!-- 2020-07-01 -->
      <g transform="translate(329.075279 334.998438) scale(0.1 -0.1)">
       <defs>
        <path id="DejaVuSans-37" d="M 525 4666 
L 3525 4666 
L 3525 4397 
L 1831 0 
L 1172 0 
L 2766 4134 
L 525 4134 
L 525 4666 
z
" transform="scale(0.015625)"/>
       </defs>
       <use xlink:href="#DejaVuSans-32"/>
       <use xlink:href="#DejaVuSans-30" x="63.623047"/>
       <use xlink:href="#DejaVuSans-32" x="127.246094"/>
       <use xlink:href="#DejaVuSans-30" x="190.869141"/>
       <use xlink:href="#DejaVuSans-2d" x="254.492188"/>
       <use xlink:href="#DejaVuSans-30" x="290.576172"/>
       <use xlink:href="#DejaVuSans-37" x="354.199219"/>
       <use xlink:href="#DejaVuSans-2d" x="417.822266"/>
       <use xlink:href="#DejaVuSans-30" x="453.90625"/>
       <use xlink:href="#DejaVuSans-31" x="517.529297"/>
      </g>
     </g>
    </g>
    <g id="xtick_5">
     <g id="line2d_5">
      <g>
       <use xlink:href="#mccb1ab4caf" x="426.125113" y="320.4" style="stroke: #000000; stroke-width: 0.8"/>
      </g>
     </g>
     <g id="text_5">
      <!-- 2020-07-15 -->
      <g transform="translate(397.067301 334.998438) scale(0.1 -0.1)">
       <use xlink:href="#DejaVuSans-32"/>
       <use xlink:href="#DejaVuSans-30" x="63.623047"/>
       <use xlink:href="#DejaVuSans-32" x="127.246094"/>
       <use xlink:href="#DejaVuSans-30" x="190.869141"/>
       <use xlink:href="#DejaVuSans-2d" x="254.492188"/>
       <use xlink:href="#DejaVuSans-30" x="290.576172"/>
       <use xlink:href="#DejaVuSans-37" x="354.199219"/>
       <use xlink:href="#DejaVuSans-2d" x="417.822266"/>
       <use xlink:href="#DejaVuSans-31" x="453.90625"/>
       <use xlink:href="#DejaVuSans-35" x="517.529297"/>
      </g>
     </g>
    </g>
    <g id="xtick_6">
     <g id="line2d_6">
      <g>
       <use xlink:href="#mccb1ab4caf" x="508.686854" y="320.4" style="stroke: #000000; stroke-width: 0.8"/>
      </g>
     </g>
     <g id="text_6">
      <!-- 2020-08-01 -->
      <g transform="translate(479.629042 334.998438) scale(0.1 -0.1)">
       <defs>
        <path id="DejaVuSans-38" d="M 2034 2216 
Q 1584 2216 1326 1975 
Q 1069 1734 1069 1313 
Q 1069 891 1326 650 
Q 1584 409 2034 409 
Q 2484 409 2743 651 
Q 3003 894 3003 1313 
Q 3003 1734 2745 1975 
Q 2488 2216 2034 2216 
z
M 1403 2484 
Q 997 2584 770 2862 
Q 544 3141 544 3541 
Q 544 4100 942 4425 
Q 1341 4750 2034 4750 
Q 2731 4750 3128 4425 
Q 3525 4100 3525 3541 
Q 3525 3141 3298 2862 
Q 3072 2584 2669 2484 
Q 3125 2378 3379 2068 
Q 3634 1759 3634 1313 
Q 3634 634 3220 271 
Q 2806 -91 2034 -91 
Q 1263 -91 848 271 
Q 434 634 434 1313 
Q 434 1759 690 2068 
Q 947 2378 1403 2484 
z
M 1172 3481 
Q 1172 3119 1398 2916 
Q 1625 2713 2034 2713 
Q 2441 2713 2670 2916 
Q 2900 3119 2900 3481 
Q 2900 3844 2670 4047 
Q 2441 4250 2034 4250 
Q 1625 4250 1398 4047 
Q 1172 3844 1172 3481 
z
" transform="scale(0.015625)"/>
       </defs>
       <use xlink:href="#DejaVuSans-32"/>
       <use xlink:href="#DejaVuSans-30" x="63.623047"/>
       <use xlink:href="#DejaVuSans-32" x="127.246094"/>
       <use xlink:href="#DejaVuSans-30" x="190.869141"/>
       <use xlink:href="#DejaVuSans-2d" x="254.492188"/>
       <use xlink:href="#DejaVuSans-30" x="290.576172"/>
       <use xlink:href="#DejaVuSans-38" x="354.199219"/>
       <use xlink:href="#DejaVuSans-2d" x="417.822266"/>
       <use xlink:href="#DejaVuSans-30" x="453.90625"/>
       <use xlink:href="#DejaVuSans-31" x="517.529297"/>
      </g>
     </g>
    </g>
   </g>
   <g id="matplotlib.axis_2">
    <g id="ytick_1">
     <g id="line2d_7">
      <defs>
       <path id="m945317391a" d="M 0 0 
L -3.5 0 
" style="stroke: #000000; stroke-width: 0.8"/>
      </defs>
      <g>
       <use xlink:href="#m945317391a" x="72" y="313.464201" style="stroke: #000000; stroke-width: 0.8"/>
      </g>
     </g>
     <g id="text_7">
      <!-- −2 -->
      <g transform="translate(50.257812 317.26342) scale(0.1 -0.1)">
       <defs>
        <path id="DejaVuSans-2212" d="M 678 2272 
L 4684 2272 
L 4684 1741 
L 678 1741 
L 678 2272 
z
" transform="scale(0.015625)"/>
       </defs>
       <use xlink:href="#DejaVuSans-2212"/>
       <use xlink:href="#DejaVuSans-32" x="83.789062"/>
      </g>
     </g>
    </g>
    <g id="ytick_2">
     <g id="line2d_8">
      <g>
       <use xlink:href="#m945317391a" x="72" y="260.240626" style="stroke: #000000; stroke-width: 0.8"/>
      </g>
     </g>
     <g id="text_8">
      <!-- −1 -->
      <g transform="translate(50.257812 264.039844) scale(0.1 -0.1)">
       <use xlink:href="#DejaVuSans-2212"/>
       <use xlink:href="#DejaVuSans-31" x="83.789062"/>
      </g>
     </g>
    </g>
    <g id="ytick_3">
     <g id="line2d_9">
      <g>
       <use xlink:href="#m945317391a" x="72" y="207.01705" style="stroke: #000000; stroke-width: 0.8"/>
      </g>
     </g>
     <g id="text_9">
      <!-- 0 -->
      <g transform="translate(58.6375 210.816269) scale(0.1 -0.1)">
       <use xlink:href="#DejaVuSans-30"/>
      </g>
     </g>
    </g>
    <g id="ytick_4">
     <g id="line2d_10">
      <g>
       <use xlink:href="#m945317391a" x="72" y="153.793475" style="stroke: #000000; stroke-width: 0.8"/>
      </g>
     </g>
     <g id="text_10">
      <!-- 1 -->
      <g transform="translate(58.6375 157.592694) scale(0.1 -0.1)">
       <use xlink:href="#DejaVuSans-31"/>
      </g>
     </g>
    </g>
    <g id="ytick_5">
     <g id="line2d_11">
      <g>
       <use xlink:href="#m945317391a" x="72" y="100.5699" style="stroke: #000000; stroke-width: 0.8"/>
      </g>
     </g>
     <g id="text_11">
      <!-- 2 -->
      <g transform="translate(58.6375 104.369118) scale(0.1 -0.1)">
       <use xlink:href="#DejaVuSans-32"/>
      </g>
     </g>
    </g>
    <g id="ytick_6">
     <g id="line2d_12">
      <g>
       <use xlink:href="#m945317391a" x="72" y="47.346324" style="stroke: #000000; stroke-width: 0.8"/>
      </g>
     </g>
     <g id="text_12">
      <!-- 3 -->
      <g transform="translate(58.6375 51.145543) scale(0.1 -0.1)">
       <defs>
        <path id="DejaVuSans-33" d="M 2597 2516 
Q 3050 2419 3304 2112 
Q 3559 1806 3559 1356 
Q 3559 666 3084 287 
Q 2609 -91 1734 -91 
Q 1441 -91 1130 -33 
Q 819 25 488 141 
L 488 750 
Q 750 597 1062 519 
Q 1375 441 1716 441 
Q 2309 441 2620 675 
Q 2931 909 2931 1356 
Q 2931 1769 2642 2001 
Q 2353 2234 1838 2234 
L 1294 2234 
L 1294 2753 
L 1863 2753 
Q 2328 2753 2575 2939 
Q 2822 3125 2822 3475 
Q 2822 3834 2567 4026 
Q 2313 4219 1838 4219 
Q 1578 4219 1281 4162 
Q 984 4106 628 3988 
L 628 4550 
Q 988 4650 1302 4700 
Q 1616 4750 1894 4750 
Q 2613 4750 3031 4423 
Q 3450 4097 3450 3541 
Q 3450 3153 3228 2886 
Q 3006 2619 2597 2516 
z
" transform="scale(0.015625)"/>
       </defs>
       <use xlink:href="#DejaVuSans-33"/>
      </g>
     </g>
    </g>
   </g>
   <g id="line2d_13">
    <path d="M 72 284.747776 
L 72.404714 296.02702 
L 72.607072 294.314246 
L 72.809429 283.703401 
L 73.214143 252.957016 
L 73.618858 240.591622 
L 75.035358 158.086038 
L 75.237715 155.140901 
L 75.440073 160.174787 
L 75.64243 168.341795 
L 75.844787 171.621131 
L 76.047144 186.785449 
L 76.654216 256.674989 
L 77.05893 280.612053 
L 77.261287 284.956651 
L 77.463645 284.580676 
L 77.666002 273.928056 
L 78.070716 245.583732 
L 78.475431 233.176563 
L 78.677788 224.090505 
L 79.487217 167.401858 
L 79.891931 151.214053 
L 80.094288 153.15659 
L 80.903717 195.349319 
L 81.713146 270.293633 
L 82.11786 284.873101 
L 82.320218 286.899187 
L 82.522575 286.606762 
L 82.724932 284.100264 
L 82.927289 277.311829 
L 83.332004 254.440028 
L 83.736718 240.19476 
L 83.939075 237.166074 
L 84.141432 237.437611 
L 84.546147 243.808296 
L 84.748504 245.897045 
L 84.950861 245.917932 
L 85.355576 250.09543 
L 85.557933 246.774319 
L 85.76029 252.873466 
L 86.569719 297.614469 
L 86.772076 303.671841 
L 86.974433 305.259291 
L 87.176791 305.321953 
L 87.379148 303.985154 
L 87.581505 300.267181 
L 87.783862 293.541409 
L 88.188577 271.588657 
L 88.390934 266.429447 
L 89.200363 258.387764 
L 89.40272 254.272928 
L 89.807434 239.547248 
L 90.212149 237.103411 
L 90.414506 234.408925 
L 90.616863 242.325284 
L 91.223935 292.685022 
L 91.628649 303.671841 
L 91.831006 303.734504 
L 92.033364 301.248893 
L 92.842792 255.296415 
L 93.04515 253.165891 
L 93.449864 244.60202 
L 93.652221 244.079833 
L 93.854578 241.155584 
L 94.056936 240.52896 
L 94.259293 237.918024 
L 94.46165 231.547339 
L 94.664007 228.706641 
L 94.866364 229.62569 
L 95.068722 232.758814 
L 95.271079 228.936403 
L 95.473436 239.004173 
L 96.080508 293.060997 
L 96.485222 302.230605 
L 96.687579 304.131366 
L 96.889937 299.807656 
L 97.699365 254.565353 
L 98.306437 244.100721 
L 98.508794 243.724746 
L 99.52058 222.586606 
L 99.722937 223.839855 
L 99.925295 228.184453 
L 100.127652 226.367242 
L 100.330009 236.476787 
L 100.937081 290.596273 
L 101.341795 302.815454 
L 101.544152 303.797166 
L 101.74651 300.100081 
L 101.948867 288.194212 
L 102.353581 258.283326 
L 102.555938 256.737652 
L 103.567724 239.025061 
L 104.377153 217.009646 
L 104.57951 218.283783 
L 104.781868 223.651868 
L 104.984225 223.630981 
L 105.186582 232.487276 
L 105.793654 287.463149 
L 106.198368 300.162743 
L 106.400725 301.917292 
L 106.603083 297.906894 
L 107.412511 252.163292 
L 107.614869 250.450517 
L 107.817226 246.795207 
L 108.22194 232.320176 
L 108.626655 210.701624 
L 108.829012 204.790465 
L 109.031369 202.910591 
L 109.638441 211.558011 
L 109.840798 216.967871 
L 110.043155 227.328066 
L 110.650227 282.157727 
L 111.054941 296.36122 
L 111.257298 298.261982 
L 111.459655 296.52832 
L 111.662013 285.165525 
L 112.066727 256.027477 
L 112.471442 241.092922 
L 113.887942 172.95793 
L 114.090299 170.597644 
L 114.292656 177.386078 
L 114.495014 188.76976 
L 114.697371 193.34412 
L 115.102085 227.223629 
L 115.709157 276.39278 
L 116.113871 290.28296 
L 116.316228 290.45006 
L 116.518586 288.799949 
L 116.720943 285.186413 
L 117.125657 258.053564 
L 118.542158 153.804102 
L 118.744515 143.736332 
L 118.946872 139.872146 
L 119.149229 143.527457 
L 119.756301 181.250264 
L 120.56573 260.288525 
L 120.970444 280.027203 
L 121.172801 284.100264 
L 121.375159 285.729488 
L 121.577516 284.288251 
L 121.779873 276.39278 
L 122.589302 225.594405 
L 123.196374 200.236992 
L 123.398731 195.683519 
L 123.601088 195.892394 
L 123.803445 195.328432 
L 124.410517 208.675538 
L 124.612874 219.599695 
L 125.219946 275.661718 
L 125.62466 290.136748 
L 125.827017 292.12106 
L 126.029374 289.593673 
L 127.04116 233.427213 
L 127.648232 196.163931 
L 128.255304 153.950315 
L 128.457661 146.430818 
L 128.660018 146.096618 
L 129.26709 190.252772 
L 130.278876 280.737378 
L 130.481233 288.528411 
L 130.68359 289.906986 
L 130.885947 287.337824 
L 132.504805 178.848202 
L 133.111877 136.342161 
L 133.314234 126.963678 
L 133.516591 128.655564 
L 133.921306 143.966094 
L 134.123663 151.360266 
L 135.135449 260.810712 
L 135.540163 273.384981 
L 135.74252 272.445044 
L 135.944878 261.896862 
L 136.349592 230.607402 
L 136.551949 223.860743 
L 136.754306 212.038424 
L 136.956664 216.591896 
L 137.159021 205.333539 
L 137.766092 196.539906 
L 137.96845 196.936769 
L 138.373164 191.547796 
L 138.777879 199.067293 
L 138.980236 199.902792 
L 139.182593 211.662449 
L 139.789665 268.079559 
L 140.194379 283.390089 
L 140.396736 285.45795 
L 140.599093 282.450152 
L 141.003808 252.351279 
L 141.408522 231.254914 
L 142.015594 217.907808 
L 142.622665 208.800863 
L 142.825023 208.529325 
L 143.02738 207.317851 
L 143.229737 208.007138 
L 143.634451 213.270786 
L 143.836809 212.038424 
L 144.039166 222.189744 
L 144.646238 271.358895 
L 145.050952 283.410976 
L 145.253309 284.706001 
L 145.455666 281.572877 
L 145.860381 252.017079 
L 146.062738 235.6204 
L 146.66981 219.202833 
L 146.872167 216.529234 
L 147.074524 215.443085 
L 147.479238 204.372715 
L 147.681596 212.811261 
L 147.883953 213.792973 
L 148.08631 216.403909 
L 148.491024 225.698842 
L 148.693382 224.341155 
L 149.098096 247.923131 
L 149.502811 276.016805 
L 149.907525 289.113261 
L 150.109882 291.181123 
L 150.312239 290.596273 
L 150.514597 287.755574 
L 150.716954 282.011515 
L 151.121668 260.9987 
L 151.526383 240.36186 
L 151.931097 234.513363 
L 152.133454 234.074725 
L 152.335811 236.059037 
L 152.538169 236.581224 
L 152.740526 234.513363 
L 152.942883 234.805788 
L 153.14524 233.824076 
L 153.347597 233.865851 
L 153.549955 230.920714 
L 153.752312 233.134788 
L 154.764098 284.977538 
L 154.966455 288.967049 
L 155.168812 290.36651 
L 155.573527 286.397887 
L 155.775884 275.243968 
L 156.78767 196.727894 
L 157.799456 153.783215 
L 158.001813 155.809301 
L 158.406528 169.114632 
L 158.608885 182.77505 
L 159.215956 251.933529 
L 159.620671 273.698294 
L 159.823028 276.935855 
L 160.025385 276.016805 
L 160.227743 266.137022 
L 160.632457 233.427213 
L 161.8466 182.733276 
L 162.251315 172.602843 
L 162.453672 172.749055 
L 162.656029 175.631529 
L 163.465458 207.693826 
L 164.072529 268.016896 
L 164.477244 286.773862 
L 164.679601 287.108062 
L 164.881958 283.849614 
L 165.084316 273.614744 
L 165.48903 241.594222 
L 166.500816 206.231702 
L 167.310245 162.97371 
L 167.512602 166.357484 
L 167.917316 187.098761 
L 168.119674 191.589571 
L 168.322031 203.035916 
L 168.929102 262.920349 
L 169.333817 278.230879 
L 169.536174 281.781752 
L 169.738531 278.084666 
L 170.143246 250.575842 
L 170.54796 220.017445 
L 171.357389 175.088454 
L 171.559746 169.010195 
L 172.166818 144.613607 
L 172.369175 146.242831 
L 172.571532 154.221852 
L 173.178604 193.51122 
L 173.785675 265.176198 
L 174.19039 284.726888 
L 174.392747 287.734687 
L 174.595104 285.896588 
L 174.999819 261.5 
L 175.404533 236.288799 
L 177.023391 157.39675 
L 177.225748 157.918938 
L 177.428105 161.866673 
L 177.630462 178.597553 
L 177.83282 181.062276 
L 178.237534 225.55263 
L 178.642248 268.831508 
L 179.046963 288.194212 
L 179.24932 291.95396 
L 179.451677 289.405686 
L 179.654034 280.63294 
L 180.261106 240.424522 
L 181.879964 142.58752 
L 182.082321 139.287297 
L 182.284678 145.010469 
L 183.094107 201.866216 
L 183.498821 241.239134 
L 183.903536 262.899461 
L 184.30825 270.81582 
L 184.510607 272.194394 
L 184.712965 268.518196 
L 184.915322 255.00399 
L 185.724751 172.185093 
L 186.129465 150.587429 
L 186.331822 144.467394 
L 186.53418 143.694557 
L 186.736537 146.263718 
L 187.748323 187.119648 
L 188.557752 251.975304 
L 188.962466 266.304122 
L 189.164823 268.371984 
L 189.36718 268.455534 
L 189.569538 267.703584 
L 189.771895 256.800314 
L 190.986038 159.777924 
L 191.188395 154.409839 
L 191.390752 154.368064 
L 191.795467 163.621222 
L 192.604896 195.286657 
L 193.414325 259.348588 
L 193.819039 273.217881 
L 194.021396 274.304031 
L 194.426111 270.293633 
L 194.628468 261.228462 
L 195.437897 199.58948 
L 195.640254 194.51382 
L 195.842611 195.746182 
L 196.247325 201.887104 
L 196.449683 202.471953 
L 196.65204 202.075091 
L 197.056754 210.388312 
L 197.259112 211.244699 
L 197.461469 219.766795 
L 198.06854 268.727071 
L 198.473255 283.097664 
L 198.675612 283.202101 
L 198.877969 279.505016 
L 199.282684 248.319993 
L 199.687398 225.197542 
L 201.306256 157.918938 
L 201.508613 156.749238 
L 202.115684 176.195491 
L 202.318042 187.495623 
L 202.925113 252.413941 
L 203.329828 270.293633 
L 203.532185 272.424157 
L 203.734542 269.395471 
L 203.936899 257.719364 
L 204.341614 223.275893 
L 205.758114 167.88227 
L 205.960471 165.354884 
L 206.162829 165.501096 
L 206.365186 166.942333 
L 206.7699 178.95264 
L 206.972257 182.190201 
L 207.174615 193.17702 
L 207.781686 253.019679 
L 208.186401 269.395471 
L 208.388758 272.486819 
L 208.591115 269.103046 
L 208.793472 257.071852 
L 209.198187 222.816368 
L 209.805258 200.236992 
L 210.209973 180.080564 
L 210.817044 137.825172 
L 211.019402 129.219527 
L 211.221759 132.227325 
L 211.626473 157.041663 
L 211.82883 162.326198 
L 212.031188 177.260753 
L 212.638259 243.202558 
L 213.042974 262.043074 
L 213.245331 266.095247 
L 213.447688 264.361586 
L 213.650045 253.500091 
L 214.257117 209.636362 
L 214.661831 182.921263 
L 215.47126 122.744405 
L 215.875975 105.783763 
L 216.078332 105.303351 
L 216.280689 110.922086 
L 217.090118 175.589754 
L 217.697189 238.377548 
L 218.101904 257.092739 
L 218.304261 260.4974 
L 218.506618 261.875974 
L 218.708976 260.601837 
L 218.911333 247.693369 
L 219.518404 192.132646 
L 220.125476 156.435926 
L 220.327833 154.242739 
L 220.53019 156.498588 
L 221.541976 199.401492 
L 221.744334 204.623365 
L 222.553762 262.314612 
L 222.958477 273.343206 
L 223.160834 275.076868 
L 223.363191 275.431955 
L 223.565549 273.844506 
L 223.767906 265.009098 
L 224.374977 226.262804 
L 224.779692 218.576208 
L 225.386763 220.664957 
L 225.589121 224.236718 
L 225.791478 225.13488 
L 226.196192 233.636088 
L 226.398549 233.281001 
L 226.600907 239.797898 
L 227.410335 294.168034 
L 227.612693 298.261982 
L 227.81505 299.974756 
L 228.017407 296.737195 
L 228.826836 253.541866 
L 229.029193 251.18158 
L 229.23155 245.35397 
L 230.648051 181.041389 
L 230.850408 181.626239 
L 231.255122 196.247481 
L 231.45748 207.296964 
L 232.064551 271.881082 
L 232.469266 289.301248 
L 232.671623 292.058397 
L 232.87398 290.826035 
L 233.278694 265.176198 
L 233.683409 242.325284 
L 235.302267 176.822116 
L 235.504624 176.216379 
L 236.111695 195.599969 
L 236.314053 206.106377 
L 236.921124 269.123933 
L 237.325839 285.228188 
L 237.528196 288.403086 
L 237.730553 286.251675 
L 238.135267 261.959524 
L 238.539982 239.86056 
L 239.349411 208.48755 
L 239.754125 198.33623 
L 240.15884 187.976035 
L 240.361197 187.725386 
L 240.563554 193.26057 
L 240.968268 211.119374 
L 241.170626 218.80597 
L 241.777697 275.13953 
L 242.182412 291.222898 
L 242.384769 293.750284 
L 242.587126 290.721598 
L 242.99184 265.65661 
L 243.396555 247.442719 
L 245.21777 171.725568 
L 245.420127 176.028391 
L 246.027199 203.203016 
L 246.836627 277.729579 
L 247.038985 286.2099 
L 247.241342 289.426573 
L 247.443699 286.857412 
L 247.848413 262.962124 
L 249.467271 149.375954 
L 249.669628 141.188058 
L 249.871985 139.224634 
L 250.074343 139.391734 
L 250.2767 146.430818 
L 250.883772 178.994415 
L 251.6932 255.024878 
L 252.097915 269.750558 
L 252.300272 272.862794 
L 252.502629 273.134331 
L 252.704986 269.207483 
L 253.109701 235.996374 
L 253.91913 161.762236 
L 254.323844 145.741531 
L 254.728558 136.801685 
L 254.930916 135.527549 
L 255.133273 143.130595 
L 255.740345 181.124939 
L 256.549773 257.385164 
L 256.954488 273.071669 
L 257.156845 276.935855 
L 257.359202 278.627741 
L 257.561559 277.646029 
L 257.966274 248.361768 
L 258.573345 197.270968 
L 258.97806 175.297329 
L 259.382774 164.122522 
L 259.585131 160.634311 
L 259.787489 160.195674 
L 259.989846 162.848385 
L 260.39456 179.057077 
L 260.596917 192.592171 
L 261.203989 255.442628 
L 261.608704 274.408468 
L 261.811061 277.374492 
L 262.013418 276.580767 
L 262.418132 252.288617 
L 262.62049 240.11121 
L 263.025204 230.314977 
L 263.227561 227.474279 
L 263.429918 226.450792 
L 263.834633 227.745816 
L 264.03699 227.432504 
L 264.239347 228.393328 
L 264.441704 228.476878 
L 264.644062 228.205341 
L 264.846419 230.273202 
L 265.048776 234.36715 
L 265.251133 234.36715 
L 265.45349 238.440211 
L 266.060562 281.489327 
L 266.465277 294.502233 
L 266.667634 296.068795 
L 266.869991 291.828635 
L 267.072348 283.766064 
L 267.477063 256.904752 
L 268.084134 234.429813 
L 268.488849 224.006955 
L 269.09592 212.602386 
L 269.500635 208.591988 
L 269.702992 210.806062 
L 269.905349 214.461373 
L 270.107706 215.15066 
L 270.310063 221.542232 
L 270.917135 271.06647 
L 271.32185 283.202101 
L 271.524207 285.3744 
L 271.726564 283.640739 
L 274.15485 140.122796 
L 274.357208 132.85395 
L 274.559565 136.237723 
L 275.166636 161.741348 
L 275.976065 244.43492 
L 276.38078 257.176289 
L 276.583137 256.466115 
L 276.987851 234.325375 
L 277.392566 205.020227 
L 278.404352 147.287205 
L 278.606709 144.195857 
L 279.011423 130.786088 
L 279.213781 129.156864 
L 279.416138 133.480575 
L 280.023209 175.777741 
L 280.630281 248.111119 
L 281.034995 271.212682 
L 281.237353 276.163017 
L 281.43971 274.596456 
L 281.642067 268.622634 
L 282.249139 226.283692 
L 282.85621 192.174421 
L 283.867996 148.791105 
L 284.070354 147.57963 
L 284.272711 155.851076 
L 285.284497 240.090322 
L 285.689211 272.716582 
L 286.093926 287.672024 
L 286.296283 289.990536 
L 286.49864 288.152437 
L 286.700997 285.165525 
L 287.105712 253.708966 
L 287.712783 201.427579 
L 288.522212 157.375863 
L 288.724569 150.148791 
L 288.926927 148.185367 
L 289.129284 151.819791 
L 289.736355 186.117049 
L 290.545784 257.197177 
L 290.950499 272.695694 
L 291.152856 275.515505 
L 291.355213 275.599055 
L 291.55757 274.095156 
L 291.759927 261.437337 
L 292.771714 161.344486 
L 293.176428 139.036647 
L 293.581142 127.632077 
L 293.7835 125.877528 
L 293.985857 129.449289 
L 294.592928 155.349776 
L 295.402357 239.839673 
L 295.807072 254.75334 
L 296.009429 254.58624 
L 296.414143 233.991175 
L 297.830644 96.885692 
L 298.235358 83.371487 
L 298.437715 80.739663 
L 298.640073 81.0112 
L 298.84243 83.099949 
L 299.044787 91.266958 
L 299.449501 118.671344 
L 300.056573 198.941968 
L 300.461287 224.591805 
L 300.663645 230.71184 
L 300.866002 231.442902 
L 301.068359 224.508255 
L 301.473073 193.970745 
L 302.484859 86.964135 
L 302.687217 75.455128 
L 302.889574 75.559565 
L 303.091931 83.789236 
L 303.496646 92.58287 
L 303.90136 115.204021 
L 304.306074 143.611007 
L 304.913146 213.98096 
L 305.31786 239.756123 
L 305.520218 245.416632 
L 305.722575 243.599421 
L 305.924932 236.351462 
L 306.532004 195.725294 
L 307.54379 124.540729 
L 307.746147 114.159646 
L 307.948504 113.261484 
L 308.757933 146.075731 
L 309.162647 172.581955 
L 309.769719 236.643887 
L 310.174433 256.862977 
L 310.376791 261.3329 
L 310.579148 260.74805 
L 310.983862 236.936312 
L 312.198005 131.141176 
L 312.60272 119.318856 
L 312.805077 114.869821 
L 313.007434 115.433783 
L 313.209791 119.193532 
L 313.816863 147.24543 
L 314.01922 161.156499 
L 314.626292 224.80068 
L 315.031006 245.646395 
L 315.233364 250.304305 
L 315.435721 249.635905 
L 315.840435 230.54474 
L 316.24515 211.516236 
L 316.649864 199.297055 
L 317.054578 183.735875 
L 317.66165 176.091054 
L 317.864007 175.631529 
L 318.066364 174.712479 
L 318.268722 179.474827 
L 318.875793 201.991541 
L 319.685222 261.58355 
L 320.089937 274.575568 
L 320.292294 276.246567 
L 320.697008 268.183996 
L 321.101723 241.510672 
L 322.315866 162.263536 
L 322.72058 151.840678 
L 322.922937 149.480392 
L 323.125295 153.678777 
L 323.732366 181.772451 
L 324.541795 251.474004 
L 324.94651 266.011697 
L 325.148867 268.956833 
L 325.351224 269.019496 
L 325.553581 266.721872 
L 325.755938 254.189378 
L 326.970082 139.872146 
L 327.172439 133.4388 
L 327.374796 131.830463 
L 327.77951 126.169953 
L 327.981868 131.245613 
L 328.184225 140.185459 
L 328.791296 192.717496 
L 329.196011 237.186961 
L 329.398368 252.685479 
L 329.803083 262.962124 
L 330.00544 262.001299 
L 330.207797 256.299015 
L 330.814869 206.962764 
L 331.42194 168.091145 
L 331.826655 145.031356 
L 332.029012 142.08622 
L 332.231369 142.107108 
L 332.433726 142.295095 
L 332.636083 144.425619 
L 332.838441 149.041754 
L 333.243155 172.352193 
L 333.445512 181.521801 
L 334.052584 248.361768 
L 334.457298 270.523395 
L 334.659655 276.037692 
L 334.862013 273.593856 
L 335.266727 253.416541 
L 335.671442 228.643978 
L 336.48087 187.850711 
L 336.683228 182.691501 
L 336.885585 181.563576 
L 337.087942 175.276442 
L 337.290299 173.396568 
L 337.695014 179.976127 
L 338.099728 194.68092 
L 338.302085 200.654742 
L 339.111514 267.599147 
L 339.313871 273.907168 
L 339.516228 276.183905 
L 339.718586 272.048182 
L 340.1233 248.299106 
L 340.932729 203.077691 
L 342.349229 140.269009 
L 342.551587 140.185459 
L 343.158658 165.292222 
L 343.76573 229.12439 
L 344.170444 247.442719 
L 344.372801 252.288617 
L 344.575159 250.116318 
L 344.777516 243.077234 
L 345.18223 211.662449 
L 346.194016 127.61119 
L 346.598731 112.593085 
L 347.003445 105.867313 
L 347.205802 105.010926 
L 347.40816 108.248487 
L 347.610517 116.227508 
L 348.015231 142.775508 
L 348.82466 235.4533 
L 349.229374 252.852579 
L 349.431732 252.079742 
L 349.634089 246.18947 
L 349.836446 234.86845 
L 351.050589 128.655564 
L 351.455304 109.982149 
L 351.860018 100.97964 
L 352.062375 100.060591 
L 352.264733 103.757677 
L 352.46709 115.036921 
L 353.276519 199.547705 
L 353.681233 238.126898 
L 354.085947 258.659301 
L 354.288305 264.027386 
L 354.490662 264.612236 
L 354.693019 262.335499 
L 355.097733 219.578808 
L 355.704805 144.488282 
L 356.109519 119.360631 
L 356.716591 100.854315 
L 356.918948 99.747279 
L 357.121306 104.634951 
L 357.52602 130.702538 
L 357.728377 143.611007 
L 358.740163 240.737835 
L 359.144878 253.938728 
L 359.347235 255.83949 
L 359.549592 255.50529 
L 359.751949 241.260022 
L 360.763735 118.546019 
L 361.16845 99.141541 
L 361.573164 87.841409 
L 361.775521 85.50201 
L 361.977879 88.844009 
L 362.180236 95.966643 
L 362.58495 122.20133 
L 363.394379 212.497948 
L 363.799093 230.46119 
L 364.001451 231.296689 
L 364.203808 225.30198 
L 364.406165 215.06711 
L 365.013237 144.258519 
L 365.620308 78.546476 
L 366.025023 62.087134 
L 366.429737 55.8 
L 366.632094 56.3013 
L 366.834451 58.995786 
L 367.036809 67.872969 
L 367.441523 97.595867 
L 368.048595 178.681102 
L 368.453309 209.761687 
L 368.655666 218.450883 
L 368.858024 220.873832 
L 369.060381 216.905209 
L 369.262738 206.858326 
L 369.86981 142.148883 
L 370.476881 82.891074 
L 370.881596 65.95132 
L 371.083953 65.491795 
L 371.28631 66.222857 
L 371.488667 70.233255 
L 371.691024 76.583052 
L 372.298096 116.311058 
L 373.107525 202.952366 
L 373.512239 225.615292 
L 373.714597 230.064327 
L 374.119311 229.354153 
L 374.321668 216.362134 
L 375.333454 110.504336 
L 375.738169 96.99013 
L 375.940526 94.232981 
L 376.142883 93.105057 
L 376.34524 98.389592 
L 376.749955 125.146466 
L 377.559383 185.218887 
L 377.964098 220.56052 
L 378.368812 234.638688 
L 378.57117 234.86845 
L 378.773527 228.811078 
L 378.975884 217.364734 
L 380.392384 98.368704 
L 380.797099 88.238272 
L 381.201813 80.489013 
L 381.40417 84.332311 
L 382.011242 122.11778 
L 382.820671 206.691226 
L 383.225385 223.129681 
L 383.427743 223.79808 
L 383.6301 218.346446 
L 384.034814 195.641744 
L 385.0466 120.676543 
L 385.451315 103.632352 
L 385.653672 103.151939 
L 385.856029 107.016125 
L 386.058386 114.807159 
L 387.070172 186.263261 
L 387.474887 227.223629 
L 387.879601 249.573243 
L 388.284316 258.909951 
L 388.68903 261.479112 
L 388.891387 255.609727 
L 389.700816 211.140262 
L 390.307888 199.693917 
L 390.914959 186.681011 
L 391.117316 191.568684 
L 391.926745 231.985976 
L 392.533817 277.123842 
L 392.938531 289.760773 
L 393.140888 291.661535 
L 393.343246 291.20201 
L 393.545603 291.682422 
L 393.74796 282.533702 
L 394.355032 240.487185 
L 395.569175 182.795938 
L 395.771532 176.655016 
L 395.973889 177.887378 
L 396.176247 186.388586 
L 396.783318 229.333265 
L 397.188033 268.685296 
L 397.592747 286.899187 
L 397.795104 289.739886 
L 397.997461 287.149837 
L 398.402176 268.622634 
L 400.628105 138.242922 
L 400.830462 141.146283 
L 401.03282 151.318491 
L 401.639891 209.594587 
L 402.044606 254.899553 
L 402.44932 275.661718 
L 402.651677 279.755666 
L 402.854034 278.063779 
L 403.258749 259.473913 
L 403.663463 230.440302 
L 404.877607 122.096893 
L 405.282321 101.125853 
L 405.484678 96.82303 
L 405.687035 97.930067 
L 405.889393 108.666237 
L 406.294107 146.848568 
L 406.901179 225.949492 
L 407.305893 250.534067 
L 407.50825 256.25724 
L 407.710607 255.714165 
L 408.115322 234.012063 
L 409.73418 98.849116 
L 409.936537 93.815231 
L 410.138894 93.669019 
L 410.341251 98.368704 
L 410.948323 135.256011 
L 411.15068 151.506478 
L 411.757752 223.630981 
L 412.162466 248.215556 
L 412.364823 254.83689 
L 412.56718 256.654102 
L 412.971895 238.210448 
L 414.388395 137.992272 
L 414.79311 124.164754 
L 415.197824 117.355432 
L 415.400181 124.269192 
L 416.20961 188.164023 
L 416.614325 234.36715 
L 417.019039 257.928239 
L 417.221396 262.272837 
L 417.423753 261.708874 
L 417.828468 245.207757 
L 419.244968 145.386444 
L 419.649683 131.496263 
L 419.85204 127.590302 
L 420.054397 129.052427 
L 420.256754 137.887835 
L 421.066183 204.49804 
L 421.673255 260.685387 
L 422.077969 277.082067 
L 422.280326 279.609453 
L 422.482684 278.941054 
L 422.685041 278.773954 
L 423.089755 247.421831 
L 423.899184 177.030991 
L 424.708613 136.968785 
L 424.91097 133.731224 
L 425.113327 137.804285 
L 425.518042 164.414947 
L 425.720399 176.425254 
L 426.529828 252.393054 
L 426.934542 271.296232 
L 427.136899 275.849705 
L 427.339257 276.664317 
L 427.541614 276.89408 
L 427.743971 268.142221 
L 428.148685 227.077416 
L 428.755757 164.101635 
L 429.160471 138.01316 
L 429.565186 129.616389 
L 429.9699 133.6059 
L 430.374615 150.107016 
L 430.576972 161.950223 
L 431.386401 239.254823 
L 431.791115 251.703767 
L 431.993472 249.635905 
L 432.398187 228.978178 
L 433.207616 162.764835 
L 434.017044 91.183408 
L 434.219402 86.212185 
L 435.02883 114.096984 
L 435.433545 139.517059 
L 436.040617 211.933986 
L 436.445331 234.847563 
L 436.647688 240.069435 
L 436.850045 239.380148 
L 437.25476 218.429996 
L 437.659474 182.921263 
L 438.468903 108.206712 
L 438.67126 98.306042 
L 438.873617 99.287754 
L 439.075975 106.514825 
L 439.278332 106.0553 
L 439.480689 108.332037 
L 439.885403 127.19344 
L 440.290118 152.362865 
L 440.897189 227.014754 
L 441.301904 249.698568 
L 441.504261 255.212865 
L 441.706618 255.75594 
L 442.111333 240.77961 
L 442.920762 187.892485 
L 443.527833 152.446415 
L 444.134905 129.323964 
L 444.337262 126.69214 
L 444.539619 133.209037 
L 445.146691 179.015302 
L 445.753762 249.34348 
L 446.158477 270.89937 
L 446.360834 275.933255 
L 446.563191 273.907168 
L 446.967906 254.690678 
L 448.586763 143.08882 
L 448.991478 129.679051 
L 449.193835 127.318765 
L 449.396192 134.086312 
L 450.003264 175.130229 
L 450.812693 256.487002 
L 451.217407 270.001208 
L 451.419764 270.126533 
L 451.824479 252.664591 
L 452.43155 201.427579 
L 453.038622 158.837987 
L 453.443336 141.522258 
L 453.848051 133.52235 
L 454.050408 136.947898 
L 454.252765 147.099218 
L 454.65748 175.965729 
L 454.859837 184.550487 
L 455.669266 250.325193 
L 456.07398 264.090048 
L 456.276337 265.635723 
L 456.478694 263.609636 
L 456.681052 260.455625 
L 456.883409 252.330392 
L 457.288123 224.88423 
L 457.692838 213.751198 
L 457.895195 214.461373 
L 458.299909 220.30987 
L 458.502267 220.163657 
L 458.906981 216.278584 
L 459.109338 216.821659 
L 459.514053 221.040932 
L 459.71641 225.406417 
L 460.728196 284.037601 
L 461.13291 288.528411 
L 461.537625 285.165525 
L 461.739982 276.100355 
L 462.144696 241.051147 
L 463.561197 170.785631 
L 463.763554 163.412347 
L 463.965911 164.602934 
L 464.572983 184.383387 
L 465.382412 252.413941 
L 465.584769 259.432138 
L 465.787126 262.189287 
L 465.989483 259.724563 
L 467.608341 165.730859 
L 468.620127 144.216744 
L 468.822484 147.391643 
L 469.429556 174.04408 
L 470.036627 231.651777 
L 470.441342 249.719455 
L 470.643699 252.393054 
L 470.846056 249.782118 
L 471.857842 198.064693 
L 472.869628 167.339196 
L 473.071985 167.840495 
L 473.274343 166.023284 
L 473.4767 167.297421 
L 473.679057 171.140719 
L 473.881414 177.824715 
L 474.083772 178.994415 
L 474.286129 186.785449 
L 474.8932 239.714348 
L 475.297915 256.215465 
L 475.500272 257.907351 
L 475.702629 255.83949 
L 476.107344 231.087814 
L 476.512058 208.7382 
L 477.321487 176.759453 
L 477.726201 156.289713 
L 477.928558 152.676178 
L 478.333273 157.438525 
L 478.53563 161.971111 
L 479.142702 187.286748 
L 479.952131 256.111027 
L 480.356845 266.116135 
L 480.559202 265.698385 
L 480.963917 243.265221 
L 482.785131 112.88551 
L 482.987489 106.8908 
L 483.189846 104.217201 
L 483.392203 109.940374 
L 483.999275 150.420329 
L 484.606346 222.628381 
L 485.011061 246.210357 
L 485.213418 250.68028 
L 485.415775 251.641104 
L 485.82049 231.568227 
L 486.225204 199.881905 
L 487.23699 108.520024 
L 487.439347 105.386901 
L 487.844062 112.05001 
L 488.248776 130.953188 
L 489.260562 209.678137 
L 489.665277 242.325284 
L 490.069991 257.656701 
L 490.272348 260.037875 
L 490.474705 258.889063 
L 490.677063 257.092739 
L 490.87942 247.212957 
L 491.891206 166.273934 
L 492.29592 148.289805 
L 492.498277 140.791196 
L 492.700635 138.744222 
L 492.902992 140.394334 
L 493.105349 145.282006 
L 493.712421 179.307727 
L 494.52185 252.393054 
L 495.128921 270.941145 
L 495.331278 271.087357 
L 495.533636 270.460733 
L 495.735993 262.795024 
L 496.950136 169.908357 
L 497.557208 145.177569 
L 497.759565 141.772908 
L 497.961922 145.031356 
L 498.568994 177.010103 
L 499.378422 251.933529 
L 499.58078 258.868176 
L 499.783137 261.395562 
L 499.985494 258.032676 
L 500.187851 249.385255 
L 500.794923 211.913099 
L 500.99728 206.733001 
L 501.401995 193.448558 
L 501.806709 182.023101 
L 502.009066 181.563576 
L 502.211423 183.652325 
L 502.413781 184.299837 
L 502.616138 182.607951 
L 503.020852 192.466846 
L 503.223209 193.030808 
L 503.425567 200.654742 
L 504.032638 252.100629 
L 504.437353 265.364185 
L 504.63971 267.014297 
L 504.842067 264.612236 
L 505.246782 239.881448 
L 505.651496 215.714622 
L 507.270354 141.480483 
L 507.472711 138.326472 
L 507.675068 141.772908 
L 508.28214 170.221669 
L 508.889211 229.103503 
L 509.293926 246.481894 
L 509.496283 250.053655 
L 509.69864 248.194669 
L 510.103354 224.29938 
L 511.722212 116.352833 
L 512.126927 98.326929 
L 512.329284 99.935266 
L 512.936355 134.817374 
L 513.34107 174.336505 
L 513.745784 218.450883 
L 514.150499 241.510672 
L 514.352856 247.171182 
L 514.555213 247.672481 
L 514.75757 238.649086 
L 516.174071 140.456996 
L 516.376428 139.349959 
L 516.781142 148.811992 
L 516.9835 146.033956 
L 517.185857 146.577031 
L 517.590571 164.540272 
L 517.792928 168.843095 
L 517.995286 179.704589 
L 518.4 219.954782 
L 518.4 219.954782 
" clip-path="url(#p594322d0f9)" style="fill: none; stroke: #1f77b4; stroke-width: 1.5; stroke-linecap: square"/>
   </g>
   <g id="line2d_14">
    <path d="M 72 276.076118 
L 72.202357 276.076118 
L 72.809429 284.972795 
L 73.011786 280.208393 
L 73.618858 248.287098 
L 74.023572 233.183808 
L 75.237715 165.429553 
L 75.440073 161.222387 
L 75.64243 164.841747 
L 76.047144 184.216621 
L 77.261287 279.423663 
L 77.463645 280.376104 
L 77.666002 277.059097 
L 77.868359 265.928099 
L 78.273073 232.569637 
L 78.880145 214.246731 
L 79.689574 167.482728 
L 80.094288 149.506052 
L 80.296646 154.539379 
L 81.308432 232.793881 
L 81.713146 264.961617 
L 81.915503 276.361841 
L 82.11786 279.115784 
L 82.320218 275.71941 
L 82.724932 264.491877 
L 82.927289 261.325913 
L 83.736718 224.574296 
L 83.939075 222.554718 
L 84.141432 218.999605 
L 84.34379 217.798155 
L 84.546147 221.617922 
L 84.950861 237.894971 
L 85.153218 241.132641 
L 85.355576 241.66138 
L 85.557933 241.494031 
L 85.76029 245.904444 
L 86.772076 306.616001 
L 86.974433 307.557237 
L 87.379148 296.70617 
L 87.783862 282.941132 
L 88.390934 257.213209 
L 88.593291 253.183588 
L 88.795648 253.74868 
L 88.998005 253.359287 
L 89.40272 249.483428 
L 89.807434 241.904564 
L 90.212149 238.963122 
L 90.414506 238.337394 
L 90.616863 242.52411 
L 91.021578 264.384765 
L 91.831006 307.8 
L 92.033364 307.779462 
L 92.235721 301.461886 
L 93.04515 242.373279 
L 93.247507 240.653482 
L 93.652221 234.36512 
L 93.854578 235.172077 
L 94.056936 234.428422 
L 94.259293 232.19675 
L 94.664007 224.218509 
L 94.866364 223.105886 
L 95.87815 256.834687 
L 96.485222 297.917838 
L 96.687579 300.993428 
L 96.889937 297.467127 
L 97.092294 290.798356 
L 97.901723 243.317793 
L 98.306437 235.766554 
L 98.711151 227.86084 
L 99.115866 225.041555 
L 99.318223 222.750696 
L 99.52058 224.540572 
L 99.722937 223.917499 
L 100.330009 237.282992 
L 101.341795 299.889163 
L 101.544152 300.037433 
L 101.948867 286.637834 
L 102.758296 242.31191 
L 102.960653 239.88297 
L 103.16301 234.044707 
L 103.365367 232.938857 
L 104.174796 220.079696 
L 104.377153 219.488466 
L 104.57951 218.51598 
L 105.186582 234.579991 
L 106.198368 298.996051 
L 106.400725 299.246961 
L 106.80544 285.506439 
L 107.614869 241.17365 
L 107.817226 238.671181 
L 108.626655 211.956914 
L 108.829012 201.952091 
L 109.031369 198.614664 
L 109.233726 199.484447 
L 109.638441 212.062378 
L 110.043155 227.007386 
L 110.852584 284.120392 
L 111.054941 291.478538 
L 111.257298 294.394088 
L 111.662013 280.647291 
L 112.066727 259.737484 
L 112.471442 238.161124 
L 112.876156 219.873176 
L 113.887942 176.516813 
L 114.090299 175.185089 
L 114.292656 178.414164 
L 115.102085 225.343431 
L 115.709157 275.299446 
L 115.911514 282.974632 
L 116.113871 281.2355 
L 116.9233 265.920485 
L 117.125657 255.659247 
L 117.530372 226.268452 
L 117.732729 217.99472 
L 118.542158 158.804913 
L 118.946872 148.614412 
L 119.149229 149.591141 
L 119.553944 166.96913 
L 119.958658 198.906251 
L 120.363373 241.651127 
L 120.970444 278.553449 
L 121.172801 279.719969 
L 121.577516 269.188606 
L 121.779873 263.066556 
L 122.994016 200.843961 
L 123.398731 190.795394 
L 123.601088 190.475857 
L 124.005802 196.603575 
L 124.612874 218.880987 
L 125.219946 263.767104 
L 125.827017 299.994594 
L 126.029374 301.467977 
L 126.231732 291.977152 
L 127.243518 216.138682 
L 127.445875 208.098315 
L 128.457661 148.050098 
L 128.660018 145.707758 
L 128.862375 153.457692 
L 129.26709 180.039986 
L 130.278876 278.668784 
L 130.481233 287.020536 
L 130.68359 289.384043 
L 130.885947 284.747722 
L 131.290662 262.559382 
L 132.100091 205.460432 
L 132.504805 180.167535 
L 133.111877 140.882757 
L 133.314234 135.985046 
L 133.516591 135.719924 
L 133.718948 143.295791 
L 134.528377 201.92379 
L 134.933092 247.256826 
L 135.337806 276.411375 
L 135.540163 279.247837 
L 135.944878 263.992781 
L 136.956664 195.585792 
L 137.159021 191.40159 
L 137.361378 184.382164 
L 137.563735 182.966868 
L 137.766092 183.348774 
L 137.96845 186.552643 
L 138.170807 187.680799 
L 138.980236 209.340971 
L 139.182593 218.943327 
L 140.194379 285.812827 
L 140.396736 286.47065 
L 140.801451 268.634076 
L 141.610879 220.368103 
L 141.813237 216.239183 
L 142.015594 207.683811 
L 142.217951 204.406256 
L 142.420308 203.561976 
L 142.825023 199.571956 
L 143.229737 206.157668 
L 143.634451 211.966015 
L 143.836809 212.628611 
L 144.44388 248.907024 
L 144.848595 273.042296 
L 145.050952 282.73758 
L 145.253309 281.743758 
L 145.658024 267.631238 
L 146.467452 221.032831 
L 146.66981 218.182039 
L 147.074524 206.408598 
L 147.276881 206.11188 
L 147.681596 197.954466 
L 148.288667 218.267529 
L 148.491024 221.549199 
L 149.098096 241.898899 
L 149.907525 280.91995 
L 150.109882 279.669071 
L 151.121668 252.398176 
L 151.526383 232.028976 
L 151.72874 226.105749 
L 151.931097 225.113743 
L 152.133454 222.682967 
L 152.335811 221.935379 
L 152.740526 225.296415 
L 153.14524 234.206911 
L 153.549955 231.336117 
L 153.954669 244.769654 
L 154.561741 274.423458 
L 154.764098 280.927412 
L 154.966455 283.07526 
L 155.168812 283.23905 
L 155.573527 275.501246 
L 155.775884 270.579844 
L 156.585313 220.799341 
L 157.192384 184.107621 
L 157.799456 160.66851 
L 158.001813 156.316314 
L 158.20417 157.501303 
L 158.406528 165.73773 
L 158.811242 200.269422 
L 159.418314 254.817699 
L 159.823028 275.654193 
L 160.025385 276.914399 
L 160.227743 272.889369 
L 160.4301 261.959963 
L 161.037171 206.789022 
L 161.441886 182.276306 
L 161.8466 171.397534 
L 162.048957 170.027066 
L 162.453672 165.291336 
L 162.656029 166.529068 
L 163.060743 186.458921 
L 164.679601 284.205868 
L 164.881958 283.105461 
L 165.286673 257.872729 
L 165.893744 218.434942 
L 166.703173 197.349747 
L 166.90553 188.921474 
L 167.310245 166.081123 
L 167.512602 166.628884 
L 167.917316 185.298609 
L 168.322031 207.476697 
L 169.333817 281.002102 
L 169.536174 279.015867 
L 169.940888 263.054101 
L 170.345603 242.474957 
L 171.155032 183.294377 
L 171.762103 155.950723 
L 171.964461 148.663749 
L 172.166818 146.62432 
L 172.369175 149.615994 
L 172.773889 170.279986 
L 173.380961 212.021093 
L 173.988033 268.572424 
L 174.19039 280.93493 
L 174.392747 282.596003 
L 175.202176 244.170463 
L 175.60689 220.42775 
L 176.011605 201.589107 
L 176.416319 184.35144 
L 176.821034 168.71575 
L 177.023391 164.285849 
L 177.225748 163.364126 
L 177.630462 179.34747 
L 178.237534 221.869309 
L 178.642248 262.757656 
L 179.046963 291.739808 
L 179.24932 296.118018 
L 179.654034 277.820111 
L 180.463463 224.996724 
L 181.070535 186.449926 
L 181.677607 149.85552 
L 181.879964 143.992659 
L 182.082321 145.254172 
L 182.284678 151.516816 
L 182.689393 174.88195 
L 183.094107 207.895303 
L 183.498821 247.278052 
L 183.903536 268.586769 
L 184.105893 271.194345 
L 184.30825 268.603456 
L 185.117679 233.965569 
L 186.331822 137.517892 
L 186.53418 136.386268 
L 186.736537 139.667574 
L 187.141251 159.052212 
L 187.95068 206.572958 
L 188.355394 241.734814 
L 188.760109 256.572142 
L 188.962466 262.853468 
L 189.164823 263.484782 
L 189.36718 260.59444 
L 189.771895 241.841085 
L 190.378966 202.959895 
L 190.986038 164.948504 
L 191.390752 154.274372 
L 191.59311 154.412992 
L 191.997824 170.341403 
L 192.604896 202.15135 
L 193.616682 260.913962 
L 193.819039 268.794287 
L 194.021396 270.771195 
L 194.223753 267.594223 
L 194.628468 247.509252 
L 195.640254 186.777115 
L 195.842611 182.255463 
L 196.044968 185.283375 
L 197.461469 223.465431 
L 198.270898 266.441338 
L 198.675612 283.553806 
L 198.877969 283.108855 
L 199.080326 274.701517 
L 199.485041 238.362312 
L 199.889755 204.846836 
L 200.092112 202.751443 
L 200.496827 187.687776 
L 200.699184 185.013264 
L 200.901541 178.524833 
L 201.306256 161.151111 
L 201.508613 158.501057 
L 201.71097 162.721254 
L 202.115684 179.94788 
L 203.127471 255.981465 
L 203.329828 265.161153 
L 203.532185 269.124988 
L 203.734542 266.645595 
L 204.139257 245.451093 
L 204.746328 199.419518 
L 205.3534 178.717069 
L 205.960471 159.855602 
L 206.162829 160.736263 
L 206.365186 164.666997 
L 207.174615 201.811319 
L 207.376972 213.565185 
L 207.781686 246.711045 
L 208.186401 266.24644 
L 208.388758 267.024592 
L 208.793472 251.396493 
L 209.198187 229.08792 
L 209.602901 203.207137 
L 210.007616 189.451823 
L 210.614687 160.89103 
L 211.019402 137.028934 
L 211.221759 135.017878 
L 211.424116 141.781833 
L 212.233545 197.693267 
L 212.638259 240.660541 
L 213.042974 260.584543 
L 213.245331 262.258077 
L 213.447688 257.532 
L 213.852403 240.427114 
L 214.864189 168.969904 
L 215.673617 115.924366 
L 215.875975 110.662821 
L 216.078332 112.745033 
L 216.483046 130.742333 
L 217.090118 169.344162 
L 217.494832 221.65863 
L 217.899547 248.986473 
L 218.101904 255.421091 
L 218.304261 252.698935 
L 219.11369 221.850982 
L 220.327833 142.150317 
L 220.53019 144.382442 
L 220.732548 150.894244 
L 221.339619 186.138912 
L 221.946691 217.673149 
L 222.553762 263.143384 
L 222.75612 271.440185 
L 222.958477 274.450113 
L 223.363191 267.514425 
L 223.767906 250.590507 
L 224.374977 215.291957 
L 224.779692 203.589356 
L 224.982049 204.017589 
L 225.386763 210.629058 
L 225.589121 210.767769 
L 225.791478 214.677444 
L 226.600907 240.5567 
L 226.803264 246.258956 
L 227.81505 297.286346 
L 228.017407 296.65611 
L 228.219764 289.214536 
L 229.029193 237.720973 
L 229.433908 233.560916 
L 229.636265 229.929043 
L 230.648051 187.534694 
L 230.850408 186.954172 
L 231.052765 189.601518 
L 231.255122 197.440428 
L 232.469266 285.711197 
L 232.671623 291.854686 
L 232.87398 290.115217 
L 233.278694 269.58816 
L 234.088123 219.458159 
L 235.302267 175.915274 
L 235.504624 173.578606 
L 235.706981 178.575359 
L 236.314053 210.848913 
L 237.325839 282.688345 
L 237.528196 286.105117 
L 237.730553 280.956889 
L 238.337625 250.919457 
L 238.944696 218.948956 
L 239.551768 195.131729 
L 239.754125 190.220862 
L 239.956482 189.492068 
L 240.15884 189.559931 
L 240.361197 188.309055 
L 240.563554 193.738136 
L 241.372983 232.472564 
L 242.182412 288.215049 
L 242.384769 291.069283 
L 242.587126 285.260168 
L 243.598912 231.56048 
L 244.205984 208.85456 
L 244.813055 183.926599 
L 245.015413 178.322854 
L 245.21777 176.146772 
L 245.420127 181.168976 
L 246.027199 207.70665 
L 246.836627 271.876272 
L 247.241342 287.880992 
L 247.443699 283.35689 
L 248.253128 238.357259 
L 249.669628 141.192888 
L 249.871985 133.972442 
L 250.074343 137.795379 
L 250.479057 158.416405 
L 251.086129 204.279094 
L 251.490843 241.849229 
L 252.097915 267.368654 
L 252.300272 265.142144 
L 252.704986 253.095752 
L 253.109701 234.334288 
L 254.323844 142.443533 
L 254.526201 139.212808 
L 254.728558 139.307655 
L 255.133273 148.784274 
L 255.33563 156.68955 
L 255.942702 201.665973 
L 256.549773 253.950373 
L 256.954488 268.262477 
L 257.156845 268.109429 
L 257.359202 265.118998 
L 257.561559 260.386288 
L 257.966274 238.852983 
L 258.97806 173.545855 
L 259.585131 162.232553 
L 259.787489 164.437346 
L 260.192203 173.620691 
L 260.596917 194.604652 
L 261.811061 283.617882 
L 262.013418 286.92572 
L 262.215775 279.308093 
L 262.62049 243.899403 
L 263.025204 208.66873 
L 263.429918 199.507618 
L 264.03699 211.587508 
L 264.644062 217.235534 
L 264.846419 220.018319 
L 265.655848 248.091966 
L 266.667634 294.28938 
L 266.869991 291.333148 
L 267.274705 267.607864 
L 267.67942 239.776052 
L 267.881777 232.212237 
L 268.084134 232.270311 
L 268.488849 222.518035 
L 268.893563 213.709156 
L 269.298277 207.334347 
L 270.107706 218.209336 
L 270.310063 224.72187 
L 271.32185 280.489155 
L 271.524207 281.231008 
L 271.726564 277.160194 
L 272.131278 258.019105 
L 273.547779 182.628401 
L 273.952493 153.349743 
L 274.357208 140.695295 
L 274.559565 139.699811 
L 274.964279 158.234939 
L 275.166636 167.838639 
L 276.178422 254.61463 
L 276.38078 261.361539 
L 276.583137 259.939228 
L 276.785494 253.002309 
L 278.404352 142.683586 
L 278.606709 134.234264 
L 278.809066 134.219183 
L 279.011423 133.473244 
L 279.213781 134.873967 
L 279.416138 138.96273 
L 279.820852 164.59335 
L 281.034995 260.870576 
L 281.237353 266.000607 
L 281.43971 263.809678 
L 282.046782 238.836525 
L 282.653853 201.323412 
L 283.260925 167.415137 
L 283.665639 155.92759 
L 283.867996 151.658164 
L 284.070354 152.591235 
L 284.272711 157.642898 
L 284.879782 192.314986 
L 285.689211 270.200396 
L 285.891568 281.503705 
L 286.093926 285.605912 
L 286.296283 284.293781 
L 286.700997 266.935771 
L 287.308069 231.931711 
L 288.319855 166.103685 
L 288.724569 154.848451 
L 288.926927 153.75712 
L 289.129284 157.142222 
L 289.533998 173.528635 
L 289.938713 207.057628 
L 290.545784 262.33014 
L 290.950499 282.160652 
L 291.152856 279.537957 
L 291.759927 253.276548 
L 292.164642 221.94541 
L 292.974071 151.175532 
L 293.378785 134.872812 
L 293.581142 129.745687 
L 293.7835 130.112655 
L 294.188214 141.710556 
L 294.592928 165.53557 
L 294.997643 205.073677 
L 295.402357 240.87282 
L 295.807072 259.056725 
L 296.009429 260.97208 
L 296.211786 256.444581 
L 296.414143 242.838241 
L 297.830644 105.171096 
L 298.235358 86.52516 
L 298.437715 81.099706 
L 298.640073 82.316983 
L 299.247144 110.105067 
L 299.651859 144.305404 
L 300.25893 216.679465 
L 300.663645 237.250666 
L 300.866002 236.705855 
L 301.068359 227.509351 
L 302.687217 75.833098 
L 302.889574 68.092865 
L 303.091931 67.749576 
L 303.496646 88.75242 
L 304.306074 149.731037 
L 305.31786 234.543569 
L 305.520218 240.746683 
L 305.722575 240.252621 
L 306.127289 216.081495 
L 306.734361 166.624379 
L 307.139075 145.631113 
L 307.54379 126.120522 
L 307.948504 118.753824 
L 308.150861 119.147007 
L 308.757933 147.701036 
L 309.365005 193.398272 
L 309.972076 242.573503 
L 310.174433 251.677847 
L 310.376791 254.995942 
L 310.579148 255.951677 
L 310.781505 250.159252 
L 311.186219 221.114107 
L 312.198005 132.671097 
L 312.60272 115.77864 
L 312.805077 113.93421 
L 313.007434 115.264195 
L 313.209791 121.190307 
L 314.01922 165.843316 
L 315.031006 244.485924 
L 315.233364 248.385842 
L 315.435721 245.242252 
L 315.638078 237.144201 
L 316.447507 187.761563 
L 317.054578 173.276511 
L 317.256936 171.565945 
L 317.459293 173.391528 
L 317.66165 170.81002 
L 317.864007 172.811914 
L 318.066364 176.999363 
L 318.875793 204.872579 
L 319.280508 233.590467 
L 319.685222 257.477537 
L 319.887579 264.722782 
L 320.089937 265.855198 
L 320.292294 263.175819 
L 321.101723 240.254284 
L 321.506437 218.371719 
L 322.113509 172.104849 
L 322.72058 151.023004 
L 323.125295 155.405361 
L 323.327652 159.611044 
L 323.530009 166.519456 
L 323.934723 196.94881 
L 324.339438 235.485022 
L 324.744152 257.841598 
L 324.94651 263.071809 
L 325.148867 263.625763 
L 325.553581 254.495367 
L 325.958296 233.770814 
L 326.565367 182.854363 
L 326.970082 146.593535 
L 327.374796 129.839196 
L 327.577153 127.897019 
L 327.981868 134.141517 
L 328.386582 150.809726 
L 328.993654 209.27343 
L 329.398368 244.843824 
L 329.803083 262.294781 
L 330.00544 264.350859 
L 330.207797 258.080583 
L 330.410154 246.196391 
L 331.219583 172.591161 
L 331.624297 147.097745 
L 332.029012 134.682343 
L 332.433726 138.826286 
L 332.636083 143.996745 
L 333.040798 162.80681 
L 334.254941 249.580493 
L 334.659655 268.339013 
L 334.862013 269.828696 
L 335.06437 263.700631 
L 335.873799 205.358745 
L 336.076156 200.342404 
L 336.683228 175.871476 
L 336.885585 174.544885 
L 337.087942 174.283936 
L 337.290299 171.359297 
L 337.492656 174.919124 
L 338.504442 221.818848 
L 339.111514 266.488232 
L 339.516228 277.99928 
L 339.920943 264.759042 
L 341.539801 175.013851 
L 342.146872 147.268578 
L 342.349229 146.001894 
L 342.551587 149.659487 
L 342.956301 163.104289 
L 343.361015 187.080292 
L 343.968087 243.478559 
L 344.372801 255.440065 
L 344.575159 251.64981 
L 344.777516 245.541657 
L 345.384587 203.153135 
L 346.194016 131.415738 
L 346.598731 109.081514 
L 346.801088 103.581636 
L 347.003445 101.559198 
L 347.40816 113.276145 
L 348.015231 147.627208 
L 348.419946 187.449243 
L 348.82466 226.045718 
L 349.229374 246.005611 
L 349.431732 246.264089 
L 349.634089 241.36601 
L 350.848232 150.72522 
L 351.252947 119.014688 
L 351.657661 106.941635 
L 351.860018 104.239218 
L 352.062375 106.417115 
L 352.264733 111.26792 
L 352.669447 131.550615 
L 353.276519 193.904725 
L 353.681233 232.697861 
L 354.085947 251.675753 
L 354.288305 255.053026 
L 354.490662 250.325189 
L 355.097733 220.140393 
L 355.502448 178.895001 
L 356.109519 118.62264 
L 356.311877 110.224444 
L 356.716591 106.853893 
L 356.918948 107.804311 
L 357.323663 118.004509 
L 357.52602 127.549594 
L 358.335449 214.242902 
L 358.740163 242.394074 
L 359.144878 255.48839 
L 359.347235 253.12226 
L 359.751949 230.170702 
L 360.156664 194.347563 
L 360.763735 125.09919 
L 360.966092 109.57478 
L 361.370807 98.925824 
L 361.573164 95.601406 
L 361.775521 95.116706 
L 361.977879 97.970369 
L 362.180236 103.004289 
L 362.382593 110.96136 
L 362.787307 148.00401 
L 363.394379 217.660324 
L 363.799093 238.656845 
L 364.001451 243.358202 
L 364.203808 235.586268 
L 364.608522 195.520069 
L 365.822665 69.867896 
L 366.22738 59.845078 
L 366.429737 57.556046 
L 366.632094 60.510109 
L 367.036809 76.349916 
L 367.441523 105.916051 
L 368.453309 204.604037 
L 368.655666 215.519102 
L 368.858024 219.359282 
L 369.060381 211.518525 
L 369.667452 165.117385 
L 370.679238 74.066594 
L 370.881596 67.865596 
L 371.083953 65.191807 
L 371.28631 65.510034 
L 371.691024 82.092163 
L 372.095739 107.338613 
L 373.309882 209.245751 
L 373.512239 219.779211 
L 373.714597 220.768001 
L 374.119311 205.305576 
L 374.726383 170.412826 
L 375.535811 101.181749 
L 375.738169 97.390942 
L 375.940526 96.581885 
L 376.142883 97.839896 
L 376.34524 102.141112 
L 376.749955 116.709134 
L 377.154669 149.378364 
L 377.761741 201.204338 
L 378.166455 228.789993 
L 378.368812 234.798818 
L 378.57117 235.256065 
L 378.773527 230.561608 
L 379.178241 200.133217 
L 380.190027 108.792587 
L 380.392384 99.32921 
L 380.797099 94.091827 
L 381.201813 92.115236 
L 381.40417 94.774597 
L 381.808885 115.708448 
L 382.415956 164.591336 
L 382.820671 201.593177 
L 383.225385 220.378849 
L 383.427743 223.180782 
L 383.832457 199.69866 
L 384.237171 172.635098 
L 384.237171 172.635098 
" clip-path="url(#p594322d0f9)" style="fill: none; stroke: #ff7f0e; stroke-width: 1.5; stroke-linecap: square"/>
   </g>
   <g id="line2d_15">
    <path d="M 384.439529 158.434418 
L 385.0466 118.740335 
L 385.451315 105.157797 
L 385.856029 102.768024 
L 386.058386 106.905394 
L 386.463101 131.243961 
L 387.474887 203.82527 
L 387.879601 221.726897 
L 388.081958 226.590391 
L 388.284316 221.616974 
L 388.891387 181.218411 
L 389.903173 104.938523 
L 390.10553 98.245071 
L 390.307888 95.425441 
L 390.510245 95.305703 
L 390.712602 97.094972 
L 390.914959 104.025831 
L 391.724388 156.963294 
L 392.33146 191.927958 
L 392.736174 202.895003 
L 392.938531 201.029224 
L 393.343246 179.78363 
L 394.557389 95.722096 
L 394.759746 87.885271 
L 394.962103 85.330039 
L 395.164461 86.003369 
L 395.366818 89.79783 
L 395.569175 95.72735 
L 395.973889 119.565412 
L 396.783318 171.507929 
L 397.188033 184.916833 
L 397.39039 188.074336 
L 397.592747 184.574404 
L 397.795104 177.142776 
L 398.402176 137.495114 
L 399.009248 97.591994 
L 399.413962 82.127212 
L 399.616319 78.398291 
L 399.818676 79.44978 
L 400.021034 83.146965 
L 400.425748 98.980592 
L 401.437534 161.378468 
L 401.842248 172.172531 
L 402.044606 172.17053 
L 402.246963 168.849303 
L 402.651677 151.569947 
L 403.86582 81.611498 
L 404.270535 72.170924 
L 404.472892 72.84433 
L 404.877607 84.934888 
L 405.484678 120.408692 
L 406.09175 153.347681 
L 406.294107 159.19612 
L 406.496464 161.785334 
L 406.698821 161.133701 
L 406.901179 156.806597 
L 407.305893 140.736378 
L 408.520036 77.18595 
L 408.924751 69.002524 
L 409.127108 70.535846 
L 409.329465 75.214613 
L 409.73418 93.927066 
L 410.543608 140.142452 
L 410.948323 152.872066 
L 411.15068 154.995928 
L 411.353037 153.606204 
L 411.757752 142.765662 
L 412.364823 113.914585 
L 413.174252 75.973596 
L 413.376609 71.043984 
L 413.578966 69.294408 
L 413.781324 71.04359 
L 413.983681 76.23165 
L 414.388395 95.107874 
L 415.197824 137.481213 
L 415.602539 148.900065 
L 415.804896 150.692151 
L 416.007253 149.404802 
L 416.411967 139.638502 
L 417.019039 112.335734 
L 417.828468 77.234322 
L 418.030825 72.990094 
L 418.233182 71.990987 
L 418.435539 74.384454 
L 418.840254 87.479232 
L 420.054397 142.787589 
L 420.256754 146.948263 
L 420.459112 148.536835 
L 420.661469 147.279567 
L 420.863826 143.857821 
L 421.26854 130.754026 
L 422.482684 80.141814 
L 422.685041 76.737174 
L 422.887398 76.310616 
L 423.089755 78.873322 
L 423.49447 91.607491 
L 424.506256 136.572392 
L 424.91097 146.148159 
L 425.113327 147.632303 
L 425.315684 146.491569 
L 425.518042 143.411912 
L 425.922756 130.929363 
L 427.136899 84.107584 
L 427.339257 81.247247 
L 427.541614 81.263743 
L 427.743971 83.903283 
L 428.148685 96.132842 
L 429.160471 137.30554 
L 429.565186 146.13953 
L 429.767543 147.423681 
L 429.9699 146.46409 
L 430.172257 143.435178 
L 430.576972 131.614754 
L 431.791115 88.409105 
L 431.993472 86.124274 
L 432.19583 86.324324 
L 432.398187 88.944323 
L 432.802901 100.489728 
L 433.814687 138.426529 
L 434.219402 146.476766 
L 434.421759 147.627411 
L 434.624116 146.584868 
L 434.826473 143.646033 
L 435.231188 132.405887 
L 436.445331 92.761423 
L 436.647688 90.807229 
L 436.850045 91.201402 
L 437.052403 93.720278 
L 437.457117 104.632706 
L 438.468903 139.713167 
L 438.873617 147.021279 
L 439.075975 147.973174 
L 439.278332 146.863656 
L 439.480689 143.907132 
L 439.885403 133.327981 
L 441.099547 96.955603 
L 441.301904 95.31385 
L 441.504261 95.804514 
L 441.706618 98.292162 
L 442.111333 108.604459 
L 443.123119 141.121002 
L 443.527833 147.693435 
L 443.73019 148.481407 
L 443.932548 147.287828 
L 444.337262 139.947656 
L 445.146691 114.863201 
L 445.551405 104.243926 
L 445.753762 100.998969 
L 445.95612 99.601907 
L 446.158477 100.210965 
L 446.360834 102.651978 
L 446.765549 112.416033 
L 447.777335 142.550289 
L 448.182049 148.461504 
L 448.384406 149.038241 
L 448.586763 147.815749 
L 448.991478 140.791875 
L 450.407978 104.852793 
L 450.610335 103.683228 
L 450.812693 104.394778 
L 451.01505 106.811745 
L 451.419764 116.064109 
L 452.43155 143.973409 
L 452.836265 149.292716 
L 453.038622 149.678109 
L 453.240979 148.413119 
L 453.645694 141.701356 
L 455.062194 108.498832 
L 455.264551 107.54219 
L 455.466908 108.349648 
L 455.669266 110.721034 
L 456.07398 119.514635 
L 456.883409 141.33345 
L 457.288123 148.348149 
L 457.490481 150.133966 
L 457.692838 150.341325 
L 457.895195 149.047365 
L 458.299909 142.622385 
L 459.71641 111.926092 
L 459.918767 111.171333 
L 460.121124 112.051197 
L 460.323481 114.374503 
L 460.728196 122.743589 
L 461.537625 142.983096 
L 461.942339 149.375604 
L 462.144696 150.965914 
L 462.347053 151.014661 
L 462.549411 149.692625 
L 462.954125 143.522932 
L 464.370626 115.14176 
L 464.572983 114.573525 
L 464.77534 115.507903 
L 465.180054 121.249135 
L 466.596555 150.365981 
L 466.798912 151.770593 
L 467.001269 151.678873 
L 467.203626 150.335887 
L 467.608341 144.402238 
L 468.822484 119.887471 
L 469.024841 118.137355 
L 469.227199 117.733328 
L 469.429556 118.712005 
L 469.83427 124.247211 
L 471.048413 149.073683 
L 471.453128 152.483755 
L 471.655485 152.284105 
L 471.857842 150.928277 
L 472.262557 145.207779 
L 473.4767 122.415306 
L 473.679057 120.887092 
L 473.881414 120.631018 
L 474.083772 121.647052 
L 474.488486 126.993953 
L 475.702629 150.125984 
L 476.107344 153.109473 
L 476.309701 152.816334 
L 476.512058 151.447715 
L 476.916772 145.929824 
L 478.130916 124.735579 
L 478.333273 123.418099 
L 478.53563 123.284352 
L 478.737987 124.330994 
L 479.142702 129.517943 
L 480.356845 151.083083 
L 480.559202 152.896455 
L 480.761559 153.676541 
L 480.963917 153.294639 
L 481.166274 151.910501 
L 481.570988 146.589347 
L 482.785131 126.874468 
L 482.987489 125.754228 
L 483.189846 125.722682 
L 483.392203 126.789798 
L 483.796917 131.834796 
L 485.011061 151.952116 
L 485.213418 153.5863 
L 485.415775 154.1888 
L 485.618132 153.729964 
L 485.82049 152.325815 
L 486.225204 147.18319 
L 487.23699 130.699315 
L 487.641704 127.889114 
L 487.844062 127.948101 
L 488.046419 129.026853 
L 488.451133 133.907282 
L 489.665277 152.715681 
L 489.867634 154.134515 
L 490.069991 154.602103 
L 490.272348 154.077812 
L 490.677063 150.46369 
L 491.284134 140.969814 
L 491.891206 132.237256 
L 492.29592 129.793102 
L 492.498277 129.943891 
L 492.700635 131.035409 
L 493.105349 135.735609 
L 494.319492 153.370496 
L 494.52185 154.588786 
L 494.724207 154.929549 
L 494.926564 154.345071 
L 495.331278 150.774462 
L 496.747779 132.158074 
L 496.950136 131.512883 
L 497.152493 131.742201 
L 497.35485 132.855907 
L 497.759565 137.389823 
L 498.973708 153.913337 
L 499.176065 154.959795 
L 499.378422 155.184398 
L 499.58078 154.54311 
L 499.985494 151.01928 
L 501.401995 133.585654 
L 501.604352 133.061565 
L 501.806709 133.363499 
L 502.009066 134.502964 
L 502.413781 138.855053 
L 503.627924 154.307282 
L 503.830281 155.213064 
L 504.032638 155.334357 
L 504.234995 154.639588 
L 504.63971 151.148446 
L 506.05621 134.818749 
L 506.258568 134.417856 
L 506.460925 134.792932 
L 506.663282 135.952167 
L 507.067996 140.125131 
L 508.079782 153.081829 
L 508.484497 155.319707 
L 508.686854 155.34763 
L 508.889211 154.606817 
L 509.293926 151.167303 
L 510.508069 136.901335 
L 510.710426 135.883644 
L 510.912783 135.587408 
L 511.115141 136.033202 
L 511.519855 138.951963 
L 512.936355 154.648839 
L 513.138713 155.298915 
L 513.34107 155.23456 
L 513.543427 154.458826 
L 513.948141 151.080526 
L 515.162285 137.695576 
L 515.364642 136.800371 
L 515.566999 136.590468 
L 515.769356 137.084032 
L 516.174071 139.953607 
L 517.590571 154.631048 
L 517.792928 155.16926 
L 517.995286 155.028051 
L 518.197643 154.220188 
L 518.4 152.814208 
L 518.4 152.814208 
" clip-path="url(#p594322d0f9)" style="fill: none; stroke: #2ca02c; stroke-width: 1.5; stroke-linecap: square"/>
   </g>
   <g id="patch_3">
    <path d="M 72 320.4 
L 72 43.2 
" style="fill: none; stroke: #000000; stroke-width: 0.8; stroke-linejoin: miter; stroke-linecap: square"/>
   </g>
   <g id="patch_4">
    <path d="M 518.4 320.4 
L 518.4 43.2 
" style="fill: none; stroke: #000000; stroke-width: 0.8; stroke-linejoin: miter; stroke-linecap: square"/>
   </g>
   <g id="patch_5">
    <path d="M 72 320.4 
L 518.4 320.4 
" style="fill: none; stroke: #000000; stroke-width: 0.8; stroke-linejoin: miter; stroke-linecap: square"/>
   </g>
   <g id="patch_6">
    <path d="M 72 43.2 
L 518.4 43.2 
" style="fill: none; stroke: #000000; stroke-width: 0.8; stroke-linejoin: miter; stroke-linecap: square"/>
   </g>
   <g id="text_13">
    <!-- Classic Transformer - model_20231123170204 -->
    <g transform="translate(155.436563 37.2) scale(0.12 -0.12)">
     <defs>
      <path id="DejaVuSans-43" d="M 4122 4306 
L 4122 3641 
Q 3803 3938 3442 4084 
Q 3081 4231 2675 4231 
Q 1875 4231 1450 3742 
Q 1025 3253 1025 2328 
Q 1025 1406 1450 917 
Q 1875 428 2675 428 
Q 3081 428 3442 575 
Q 3803 722 4122 1019 
L 4122 359 
Q 3791 134 3420 21 
Q 3050 -91 2638 -91 
Q 1578 -91 968 557 
Q 359 1206 359 2328 
Q 359 3453 968 4101 
Q 1578 4750 2638 4750 
Q 3056 4750 3426 4639 
Q 3797 4528 4122 4306 
z
" transform="scale(0.015625)"/>
      <path id="DejaVuSans-6c" d="M 603 4863 
L 1178 4863 
L 1178 0 
L 603 0 
L 603 4863 
z
" transform="scale(0.015625)"/>
      <path id="DejaVuSans-61" d="M 2194 1759 
Q 1497 1759 1228 1600 
Q 959 1441 959 1056 
Q 959 750 1161 570 
Q 1363 391 1709 391 
Q 2188 391 2477 730 
Q 2766 1069 2766 1631 
L 2766 1759 
L 2194 1759 
z
M 3341 1997 
L 3341 0 
L 2766 0 
L 2766 531 
Q 2569 213 2275 61 
Q 1981 -91 1556 -91 
Q 1019 -91 701 211 
Q 384 513 384 1019 
Q 384 1609 779 1909 
Q 1175 2209 1959 2209 
L 2766 2209 
L 2766 2266 
Q 2766 2663 2505 2880 
Q 2244 3097 1772 3097 
Q 1472 3097 1187 3025 
Q 903 2953 641 2809 
L 641 3341 
Q 956 3463 1253 3523 
Q 1550 3584 1831 3584 
Q 2591 3584 2966 3190 
Q 3341 2797 3341 1997 
z
" transform="scale(0.015625)"/>
      <path id="DejaVuSans-73" d="M 2834 3397 
L 2834 2853 
Q 2591 2978 2328 3040 
Q 2066 3103 1784 3103 
Q 1356 3103 1142 2972 
Q 928 2841 928 2578 
Q 928 2378 1081 2264 
Q 1234 2150 1697 2047 
L 1894 2003 
Q 2506 1872 2764 1633 
Q 3022 1394 3022 966 
Q 3022 478 2636 193 
Q 2250 -91 1575 -91 
Q 1294 -91 989 -36 
Q 684 19 347 128 
L 347 722 
Q 666 556 975 473 
Q 1284 391 1588 391 
Q 1994 391 2212 530 
Q 2431 669 2431 922 
Q 2431 1156 2273 1281 
Q 2116 1406 1581 1522 
L 1381 1569 
Q 847 1681 609 1914 
Q 372 2147 372 2553 
Q 372 3047 722 3315 
Q 1072 3584 1716 3584 
Q 2034 3584 2315 3537 
Q 2597 3491 2834 3397 
z
" transform="scale(0.015625)"/>
      <path id="DejaVuSans-69" d="M 603 3500 
L 1178 3500 
L 1178 0 
L 603 0 
L 603 3500 
z
M 603 4863 
L 1178 4863 
L 1178 4134 
L 603 4134 
L 603 4863 
z
" transform="scale(0.015625)"/>
      <path id="DejaVuSans-63" d="M 3122 3366 
L 3122 2828 
Q 2878 2963 2633 3030 
Q 2388 3097 2138 3097 
Q 1578 3097 1268 2742 
Q 959 2388 959 1747 
Q 959 1106 1268 751 
Q 1578 397 2138 397 
Q 2388 397 2633 464 
Q 2878 531 3122 666 
L 3122 134 
Q 2881 22 2623 -34 
Q 2366 -91 2075 -91 
Q 1284 -91 818 406 
Q 353 903 353 1747 
Q 353 2603 823 3093 
Q 1294 3584 2113 3584 
Q 2378 3584 2631 3529 
Q 2884 3475 3122 3366 
z
" transform="scale(0.015625)"/>
      <path id="DejaVuSans-20" transform="scale(0.015625)"/>
      <path id="DejaVuSans-54" d="M -19 4666 
L 3928 4666 
L 3928 4134 
L 2272 4134 
L 2272 0 
L 1638 0 
L 1638 4134 
L -19 4134 
L -19 4666 
z
" transform="scale(0.015625)"/>
      <path id="DejaVuSans-72" d="M 2631 2963 
Q 2534 3019 2420 3045 
Q 2306 3072 2169 3072 
Q 1681 3072 1420 2755 
Q 1159 2438 1159 1844 
L 1159 0 
L 581 0 
L 581 3500 
L 1159 3500 
L 1159 2956 
Q 1341 3275 1631 3429 
Q 1922 3584 2338 3584 
Q 2397 3584 2469 3576 
Q 2541 3569 2628 3553 
L 2631 2963 
z
" transform="scale(0.015625)"/>
      <path id="DejaVuSans-6e" d="M 3513 2113 
L 3513 0 
L 2938 0 
L 2938 2094 
Q 2938 2591 2744 2837 
Q 2550 3084 2163 3084 
Q 1697 3084 1428 2787 
Q 1159 2491 1159 1978 
L 1159 0 
L 581 0 
L 581 3500 
L 1159 3500 
L 1159 2956 
Q 1366 3272 1645 3428 
Q 1925 3584 2291 3584 
Q 2894 3584 3203 3211 
Q 3513 2838 3513 2113 
z
" transform="scale(0.015625)"/>
      <path id="DejaVuSans-66" d="M 2375 4863 
L 2375 4384 
L 1825 4384 
Q 1516 4384 1395 4259 
Q 1275 4134 1275 3809 
L 1275 3500 
L 2222 3500 
L 2222 3053 
L 1275 3053 
L 1275 0 
L 697 0 
L 697 3053 
L 147 3053 
L 147 3500 
L 697 3500 
L 697 3744 
Q 697 4328 969 4595 
Q 1241 4863 1831 4863 
L 2375 4863 
z
" transform="scale(0.015625)"/>
      <path id="DejaVuSans-6f" d="M 1959 3097 
Q 1497 3097 1228 2736 
Q 959 2375 959 1747 
Q 959 1119 1226 758 
Q 1494 397 1959 397 
Q 2419 397 2687 759 
Q 2956 1122 2956 1747 
Q 2956 2369 2687 2733 
Q 2419 3097 1959 3097 
z
M 1959 3584 
Q 2709 3584 3137 3096 
Q 3566 2609 3566 1747 
Q 3566 888 3137 398 
Q 2709 -91 1959 -91 
Q 1206 -91 779 398 
Q 353 888 353 1747 
Q 353 2609 779 3096 
Q 1206 3584 1959 3584 
z
" transform="scale(0.015625)"/>
      <path id="DejaVuSans-6d" d="M 3328 2828 
Q 3544 3216 3844 3400 
Q 4144 3584 4550 3584 
Q 5097 3584 5394 3201 
Q 5691 2819 5691 2113 
L 5691 0 
L 5113 0 
L 5113 2094 
Q 5113 2597 4934 2840 
Q 4756 3084 4391 3084 
Q 3944 3084 3684 2787 
Q 3425 2491 3425 1978 
L 3425 0 
L 2847 0 
L 2847 2094 
Q 2847 2600 2669 2842 
Q 2491 3084 2119 3084 
Q 1678 3084 1418 2786 
Q 1159 2488 1159 1978 
L 1159 0 
L 581 0 
L 581 3500 
L 1159 3500 
L 1159 2956 
Q 1356 3278 1631 3431 
Q 1906 3584 2284 3584 
Q 2666 3584 2933 3390 
Q 3200 3197 3328 2828 
z
" transform="scale(0.015625)"/>
      <path id="DejaVuSans-65" d="M 3597 1894 
L 3597 1613 
L 953 1613 
Q 991 1019 1311 708 
Q 1631 397 2203 397 
Q 2534 397 2845 478 
Q 3156 559 3463 722 
L 3463 178 
Q 3153 47 2828 -22 
Q 2503 -91 2169 -91 
Q 1331 -91 842 396 
Q 353 884 353 1716 
Q 353 2575 817 3079 
Q 1281 3584 2069 3584 
Q 2775 3584 3186 3129 
Q 3597 2675 3597 1894 
z
M 3022 2063 
Q 3016 2534 2758 2815 
Q 2500 3097 2075 3097 
Q 1594 3097 1305 2825 
Q 1016 2553 972 2059 
L 3022 2063 
z
" transform="scale(0.015625)"/>
      <path id="DejaVuSans-64" d="M 2906 2969 
L 2906 4863 
L 3481 4863 
L 3481 0 
L 2906 0 
L 2906 525 
Q 2725 213 2448 61 
Q 2172 -91 1784 -91 
Q 1150 -91 751 415 
Q 353 922 353 1747 
Q 353 2572 751 3078 
Q 1150 3584 1784 3584 
Q 2172 3584 2448 3432 
Q 2725 3281 2906 2969 
z
M 947 1747 
Q 947 1113 1208 752 
Q 1469 391 1925 391 
Q 2381 391 2643 752 
Q 2906 1113 2906 1747 
Q 2906 2381 2643 2742 
Q 2381 3103 1925 3103 
Q 1469 3103 1208 2742 
Q 947 2381 947 1747 
z
" transform="scale(0.015625)"/>
      <path id="DejaVuSans-5f" d="M 3263 -1063 
L 3263 -1509 
L -63 -1509 
L -63 -1063 
L 3263 -1063 
z
" transform="scale(0.015625)"/>
      <path id="DejaVuSans-34" d="M 2419 4116 
L 825 1625 
L 2419 1625 
L 2419 4116 
z
M 2253 4666 
L 3047 4666 
L 3047 1625 
L 3713 1625 
L 3713 1100 
L 3047 1100 
L 3047 0 
L 2419 0 
L 2419 1100 
L 313 1100 
L 313 1709 
L 2253 4666 
z
" transform="scale(0.015625)"/>
     </defs>
     <use xlink:href="#DejaVuSans-43"/>
     <use xlink:href="#DejaVuSans-6c" x="69.824219"/>
     <use xlink:href="#DejaVuSans-61" x="97.607422"/>
     <use xlink:href="#DejaVuSans-73" x="158.886719"/>
     <use xlink:href="#DejaVuSans-73" x="210.986328"/>
     <use xlink:href="#DejaVuSans-69" x="263.085938"/>
     <use xlink:href="#DejaVuSans-63" x="290.869141"/>
     <use xlink:href="#DejaVuSans-20" x="345.849609"/>
     <use xlink:href="#DejaVuSans-54" x="377.636719"/>
     <use xlink:href="#DejaVuSans-72" x="423.970703"/>
     <use xlink:href="#DejaVuSans-61" x="465.083984"/>
     <use xlink:href="#DejaVuSans-6e" x="526.363281"/>
     <use xlink:href="#DejaVuSans-73" x="589.742188"/>
     <use xlink:href="#DejaVuSans-66" x="641.841797"/>
     <use xlink:href="#DejaVuSans-6f" x="677.046875"/>
     <use xlink:href="#DejaVuSans-72" x="738.228516"/>
     <use xlink:href="#DejaVuSans-6d" x="777.591797"/>
     <use xlink:href="#DejaVuSans-65" x="875.003906"/>
     <use xlink:href="#DejaVuSans-72" x="936.527344"/>
     <use xlink:href="#DejaVuSans-20" x="977.640625"/>
     <use xlink:href="#DejaVuSans-2d" x="1009.427734"/>
     <use xlink:href="#DejaVuSans-20" x="1045.511719"/>
     <use xlink:href="#DejaVuSans-6d" x="1077.298828"/>
     <use xlink:href="#DejaVuSans-6f" x="1174.710938"/>
     <use xlink:href="#DejaVuSans-64" x="1235.892578"/>
     <use xlink:href="#DejaVuSans-65" x="1299.369141"/>
     <use xlink:href="#DejaVuSans-6c" x="1360.892578"/>
     <use xlink:href="#DejaVuSans-5f" x="1388.675781"/>
     <use xlink:href="#DejaVuSans-32" x="1438.675781"/>
     <use xlink:href="#DejaVuSans-30" x="1502.298828"/>
     <use xlink:href="#DejaVuSans-32" x="1565.921875"/>
     <use xlink:href="#DejaVuSans-33" x="1629.544922"/>
     <use xlink:href="#DejaVuSans-31" x="1693.167969"/>
     <use xlink:href="#DejaVuSans-31" x="1756.791016"/>
     <use xlink:href="#DejaVuSans-32" x="1820.414062"/>
     <use xlink:href="#DejaVuSans-33" x="1884.037109"/>
     <use xlink:href="#DejaVuSans-31" x="1947.660156"/>
     <use xlink:href="#DejaVuSans-37" x="2011.283203"/>
     <use xlink:href="#DejaVuSans-30" x="2074.90625"/>
     <use xlink:href="#DejaVuSans-32" x="2138.529297"/>
     <use xlink:href="#DejaVuSans-30" x="2202.152344"/>
     <use xlink:href="#DejaVuSans-34" x="2265.775391"/>
    </g>
   </g>
   <g id="legend_1">
    <g id="patch_7">
     <path d="M 79 95.234375 
L 161.517188 95.234375 
Q 163.517188 95.234375 163.517188 93.234375 
L 163.517188 50.2 
Q 163.517188 48.2 161.517188 48.2 
L 79 48.2 
Q 77 48.2 77 50.2 
L 77 93.234375 
Q 77 95.234375 79 95.234375 
z
" style="fill: #ffffff; opacity: 0.8; stroke: #cccccc; stroke-linejoin: miter"/>
    </g>
    <g id="line2d_16">
     <path d="M 81 56.298437 
L 91 56.298437 
L 101 56.298437 
" style="fill: none; stroke: #1f77b4; stroke-width: 1.5; stroke-linecap: square"/>
    </g>
    <g id="text_14">
     <!-- Measured -->
     <g transform="translate(109 59.798437) scale(0.1 -0.1)">
      <defs>
       <path id="DejaVuSans-4d" d="M 628 4666 
L 1569 4666 
L 2759 1491 
L 3956 4666 
L 4897 4666 
L 4897 0 
L 4281 0 
L 4281 4097 
L 3078 897 
L 2444 897 
L 1241 4097 
L 1241 0 
L 628 0 
L 628 4666 
z
" transform="scale(0.015625)"/>
       <path id="DejaVuSans-75" d="M 544 1381 
L 544 3500 
L 1119 3500 
L 1119 1403 
Q 1119 906 1312 657 
Q 1506 409 1894 409 
Q 2359 409 2629 706 
Q 2900 1003 2900 1516 
L 2900 3500 
L 3475 3500 
L 3475 0 
L 2900 0 
L 2900 538 
Q 2691 219 2414 64 
Q 2138 -91 1772 -91 
Q 1169 -91 856 284 
Q 544 659 544 1381 
z
M 1991 3584 
L 1991 3584 
z
" transform="scale(0.015625)"/>
      </defs>
      <use xlink:href="#DejaVuSans-4d"/>
      <use xlink:href="#DejaVuSans-65" x="86.279297"/>
      <use xlink:href="#DejaVuSans-61" x="147.802734"/>
      <use xlink:href="#DejaVuSans-73" x="209.082031"/>
      <use xlink:href="#DejaVuSans-75" x="261.181641"/>
      <use xlink:href="#DejaVuSans-72" x="324.560547"/>
      <use xlink:href="#DejaVuSans-65" x="363.423828"/>
      <use xlink:href="#DejaVuSans-64" x="424.947266"/>
     </g>
    </g>
    <g id="line2d_17">
     <path d="M 81 70.976562 
L 91 70.976562 
L 101 70.976562 
" style="fill: none; stroke: #ff7f0e; stroke-width: 1.5; stroke-linecap: square"/>
    </g>
    <g id="text_15">
     <!-- Fitted -->
     <g transform="translate(109 74.476562) scale(0.1 -0.1)">
      <defs>
       <path id="DejaVuSans-46" d="M 628 4666 
L 3309 4666 
L 3309 4134 
L 1259 4134 
L 1259 2759 
L 3109 2759 
L 3109 2228 
L 1259 2228 
L 1259 0 
L 628 0 
L 628 4666 
z
" transform="scale(0.015625)"/>
       <path id="DejaVuSans-74" d="M 1172 4494 
L 1172 3500 
L 2356 3500 
L 2356 3053 
L 1172 3053 
L 1172 1153 
Q 1172 725 1289 603 
Q 1406 481 1766 481 
L 2356 481 
L 2356 0 
L 1766 0 
Q 1100 0 847 248 
Q 594 497 594 1153 
L 594 3053 
L 172 3053 
L 172 3500 
L 594 3500 
L 594 4494 
L 1172 4494 
z
" transform="scale(0.015625)"/>
      </defs>
      <use xlink:href="#DejaVuSans-46"/>
      <use xlink:href="#DejaVuSans-69" x="50.269531"/>
      <use xlink:href="#DejaVuSans-74" x="78.052734"/>
      <use xlink:href="#DejaVuSans-74" x="117.261719"/>
      <use xlink:href="#DejaVuSans-65" x="156.470703"/>
      <use xlink:href="#DejaVuSans-64" x="217.994141"/>
     </g>
    </g>
    <g id="line2d_18">
     <path d="M 81 85.654687 
L 91 85.654687 
L 101 85.654687 
" style="fill: none; stroke: #2ca02c; stroke-width: 1.5; stroke-linecap: square"/>
    </g>
    <g id="text_16">
     <!-- Estimated -->
     <g transform="translate(109 89.154687) scale(0.1 -0.1)">
      <defs>
       <path id="DejaVuSans-45" d="M 628 4666 
L 3578 4666 
L 3578 4134 
L 1259 4134 
L 1259 2753 
L 3481 2753 
L 3481 2222 
L 1259 2222 
L 1259 531 
L 3634 531 
L 3634 0 
L 628 0 
L 628 4666 
z
" transform="scale(0.015625)"/>
      </defs>
      <use xlink:href="#DejaVuSans-45"/>
      <use xlink:href="#DejaVuSans-73" x="63.183594"/>
      <use xlink:href="#DejaVuSans-74" x="115.283203"/>
      <use xlink:href="#DejaVuSans-69" x="154.492188"/>
      <use xlink:href="#DejaVuSans-6d" x="182.275391"/>
      <use xlink:href="#DejaVuSans-61" x="279.6875"/>
      <use xlink:href="#DejaVuSans-74" x="340.966797"/>
      <use xlink:href="#DejaVuSans-65" x="380.175781"/>
      <use xlink:href="#DejaVuSans-64" x="441.699219"/>
     </g>
    </g>
   </g>
  </g>
 </g>
 <defs>
  <clipPath id="p594322d0f9">
   <rect x="72" y="43.2" width="446.4" height="277.2"/>
  </clipPath>
 </defs>
</svg>
