<?xml version="1.0" encoding="utf-8" standalone="no"?>
<!DOCTYPE svg PUBLIC "-//W3C//DTD SVG 1.1//EN"
  "http://www.w3.org/Graphics/SVG/1.1/DTD/svg11.dtd">
<svg xmlns:xlink="http://www.w3.org/1999/xlink" width="576pt" height="360pt" viewBox="0 0 576 360" xmlns="http://www.w3.org/2000/svg" version="1.1">
 <metadata>
  <rdf:RDF xmlns:dc="http://purl.org/dc/elements/1.1/" xmlns:cc="http://creativecommons.org/ns#" xmlns:rdf="http://www.w3.org/1999/02/22-rdf-syntax-ns#">
   <cc:Work>
    <dc:type rdf:resource="http://purl.org/dc/dcmitype/StillImage"/>
    <dc:date>2023-11-26T16:58:36.086251</dc:date>
    <dc:format>image/svg+xml</dc:format>
    <dc:creator>
     <cc:Agent>
      <dc:title>Matplotlib v3.8.1, https://matplotlib.org/</dc:title>
     </cc:Agent>
    </dc:creator>
   </cc:Work>
  </rdf:RDF>
 </metadata>
 <defs>
  <style type="text/css">*{stroke-linejoin: round; stroke-linecap: butt}</style>
 </defs>
 <g id="figure_1">
  <g id="patch_1">
   <path d="M 0 360 
L 576 360 
L 576 0 
L 0 0 
z
" style="fill: #ffffff"/>
  </g>
  <g id="axes_1">
   <g id="patch_2">
    <path d="M 72 320.4 
L 518.4 320.4 
L 518.4 43.2 
L 72 43.2 
z
" style="fill: #ffffff"/>
   </g>
   <g id="matplotlib.axis_1">
    <g id="xtick_1">
     <g id="line2d_1">
      <defs>
       <path id="m893eced1a7" d="M 0 0 
L 0 3.5 
" style="stroke: #000000; stroke-width: 0.8"/>
      </defs>
      <g>
       <use xlink:href="#m893eced1a7" x="129.874161" y="320.4" style="stroke: #000000; stroke-width: 0.8"/>
      </g>
     </g>
     <g id="text_1">
      <!-- 2020-05-15 -->
      <g transform="translate(100.816349 334.998438) scale(0.1 -0.1)">
       <defs>
        <path id="DejaVuSans-32" d="M 1228 531 
L 3431 531 
L 3431 0 
L 469 0 
L 469 531 
Q 828 903 1448 1529 
Q 2069 2156 2228 2338 
Q 2531 2678 2651 2914 
Q 2772 3150 2772 3378 
Q 2772 3750 2511 3984 
Q 2250 4219 1831 4219 
Q 1534 4219 1204 4116 
Q 875 4013 500 3803 
L 500 4441 
Q 881 4594 1212 4672 
Q 1544 4750 1819 4750 
Q 2544 4750 2975 4387 
Q 3406 4025 3406 3419 
Q 3406 3131 3298 2873 
Q 3191 2616 2906 2266 
Q 2828 2175 2409 1742 
Q 1991 1309 1228 531 
z
" transform="scale(0.015625)"/>
        <path id="DejaVuSans-30" d="M 2034 4250 
Q 1547 4250 1301 3770 
Q 1056 3291 1056 2328 
Q 1056 1369 1301 889 
Q 1547 409 2034 409 
Q 2525 409 2770 889 
Q 3016 1369 3016 2328 
Q 3016 3291 2770 3770 
Q 2525 4250 2034 4250 
z
M 2034 4750 
Q 2819 4750 3233 4129 
Q 3647 3509 3647 2328 
Q 3647 1150 3233 529 
Q 2819 -91 2034 -91 
Q 1250 -91 836 529 
Q 422 1150 422 2328 
Q 422 3509 836 4129 
Q 1250 4750 2034 4750 
z
" transform="scale(0.015625)"/>
        <path id="DejaVuSans-2d" d="M 313 2009 
L 1997 2009 
L 1997 1497 
L 313 1497 
L 313 2009 
z
" transform="scale(0.015625)"/>
        <path id="DejaVuSans-35" d="M 691 4666 
L 3169 4666 
L 3169 4134 
L 1269 4134 
L 1269 2991 
Q 1406 3038 1543 3061 
Q 1681 3084 1819 3084 
Q 2600 3084 3056 2656 
Q 3513 2228 3513 1497 
Q 3513 744 3044 326 
Q 2575 -91 1722 -91 
Q 1428 -91 1123 -41 
Q 819 9 494 109 
L 494 744 
Q 775 591 1075 516 
Q 1375 441 1709 441 
Q 2250 441 2565 725 
Q 2881 1009 2881 1497 
Q 2881 1984 2565 2268 
Q 2250 2553 1709 2553 
Q 1456 2553 1204 2497 
Q 953 2441 691 2322 
L 691 4666 
z
" transform="scale(0.015625)"/>
        <path id="DejaVuSans-31" d="M 794 531 
L 1825 531 
L 1825 4091 
L 703 3866 
L 703 4441 
L 1819 4666 
L 2450 4666 
L 2450 531 
L 3481 531 
L 3481 0 
L 794 0 
L 794 531 
z
" transform="scale(0.015625)"/>
       </defs>
       <use xlink:href="#DejaVuSans-32"/>
       <use xlink:href="#DejaVuSans-30" x="63.623047"/>
       <use xlink:href="#DejaVuSans-32" x="127.246094"/>
       <use xlink:href="#DejaVuSans-30" x="190.869141"/>
       <use xlink:href="#DejaVuSans-2d" x="254.492188"/>
       <use xlink:href="#DejaVuSans-30" x="290.576172"/>
       <use xlink:href="#DejaVuSans-35" x="354.199219"/>
       <use xlink:href="#DejaVuSans-2d" x="417.822266"/>
       <use xlink:href="#DejaVuSans-31" x="453.90625"/>
       <use xlink:href="#DejaVuSans-35" x="517.529297"/>
      </g>
     </g>
    </g>
    <g id="xtick_2">
     <g id="line2d_2">
      <g>
       <use xlink:href="#m893eced1a7" x="212.435902" y="320.4" style="stroke: #000000; stroke-width: 0.8"/>
      </g>
     </g>
     <g id="text_2">
      <!-- 2020-06-01 -->
      <g transform="translate(183.37809 334.998438) scale(0.1 -0.1)">
       <defs>
        <path id="DejaVuSans-36" d="M 2113 2584 
Q 1688 2584 1439 2293 
Q 1191 2003 1191 1497 
Q 1191 994 1439 701 
Q 1688 409 2113 409 
Q 2538 409 2786 701 
Q 3034 994 3034 1497 
Q 3034 2003 2786 2293 
Q 2538 2584 2113 2584 
z
M 3366 4563 
L 3366 3988 
Q 3128 4100 2886 4159 
Q 2644 4219 2406 4219 
Q 1781 4219 1451 3797 
Q 1122 3375 1075 2522 
Q 1259 2794 1537 2939 
Q 1816 3084 2150 3084 
Q 2853 3084 3261 2657 
Q 3669 2231 3669 1497 
Q 3669 778 3244 343 
Q 2819 -91 2113 -91 
Q 1303 -91 875 529 
Q 447 1150 447 2328 
Q 447 3434 972 4092 
Q 1497 4750 2381 4750 
Q 2619 4750 2861 4703 
Q 3103 4656 3366 4563 
z
" transform="scale(0.015625)"/>
       </defs>
       <use xlink:href="#DejaVuSans-32"/>
       <use xlink:href="#DejaVuSans-30" x="63.623047"/>
       <use xlink:href="#DejaVuSans-32" x="127.246094"/>
       <use xlink:href="#DejaVuSans-30" x="190.869141"/>
       <use xlink:href="#DejaVuSans-2d" x="254.492188"/>
       <use xlink:href="#DejaVuSans-30" x="290.576172"/>
       <use xlink:href="#DejaVuSans-36" x="354.199219"/>
       <use xlink:href="#DejaVuSans-2d" x="417.822266"/>
       <use xlink:href="#DejaVuSans-30" x="453.90625"/>
       <use xlink:href="#DejaVuSans-31" x="517.529297"/>
      </g>
     </g>
    </g>
    <g id="xtick_3">
     <g id="line2d_3">
      <g>
       <use xlink:href="#m893eced1a7" x="280.427924" y="320.4" style="stroke: #000000; stroke-width: 0.8"/>
      </g>
     </g>
     <g id="text_3">
      <!-- 2020-06-15 -->
      <g transform="translate(251.370111 334.998438) scale(0.1 -0.1)">
       <use xlink:href="#DejaVuSans-32"/>
       <use xlink:href="#DejaVuSans-30" x="63.623047"/>
       <use xlink:href="#DejaVuSans-32" x="127.246094"/>
       <use xlink:href="#DejaVuSans-30" x="190.869141"/>
       <use xlink:href="#DejaVuSans-2d" x="254.492188"/>
       <use xlink:href="#DejaVuSans-30" x="290.576172"/>
       <use xlink:href="#DejaVuSans-36" x="354.199219"/>
       <use xlink:href="#DejaVuSans-2d" x="417.822266"/>
       <use xlink:href="#DejaVuSans-31" x="453.90625"/>
       <use xlink:href="#DejaVuSans-35" x="517.529297"/>
      </g>
     </g>
    </g>
    <g id="xtick_4">
     <g id="line2d_4">
      <g>
       <use xlink:href="#m893eced1a7" x="358.133092" y="320.4" style="stroke: #000000; stroke-width: 0.8"/>
      </g>
     </g>
     <g id="text_4">
      <!-- 2020-07-01 -->
      <g transform="translate(329.075279 334.998438) scale(0.1 -0.1)">
       <defs>
        <path id="DejaVuSans-37" d="M 525 4666 
L 3525 4666 
L 3525 4397 
L 1831 0 
L 1172 0 
L 2766 4134 
L 525 4134 
L 525 4666 
z
" transform="scale(0.015625)"/>
       </defs>
       <use xlink:href="#DejaVuSans-32"/>
       <use xlink:href="#DejaVuSans-30" x="63.623047"/>
       <use xlink:href="#DejaVuSans-32" x="127.246094"/>
       <use xlink:href="#DejaVuSans-30" x="190.869141"/>
       <use xlink:href="#DejaVuSans-2d" x="254.492188"/>
       <use xlink:href="#DejaVuSans-30" x="290.576172"/>
       <use xlink:href="#DejaVuSans-37" x="354.199219"/>
       <use xlink:href="#DejaVuSans-2d" x="417.822266"/>
       <use xlink:href="#DejaVuSans-30" x="453.90625"/>
       <use xlink:href="#DejaVuSans-31" x="517.529297"/>
      </g>
     </g>
    </g>
    <g id="xtick_5">
     <g id="line2d_5">
      <g>
       <use xlink:href="#m893eced1a7" x="426.125113" y="320.4" style="stroke: #000000; stroke-width: 0.8"/>
      </g>
     </g>
     <g id="text_5">
      <!-- 2020-07-15 -->
      <g transform="translate(397.067301 334.998438) scale(0.1 -0.1)">
       <use xlink:href="#DejaVuSans-32"/>
       <use xlink:href="#DejaVuSans-30" x="63.623047"/>
       <use xlink:href="#DejaVuSans-32" x="127.246094"/>
       <use xlink:href="#DejaVuSans-30" x="190.869141"/>
       <use xlink:href="#DejaVuSans-2d" x="254.492188"/>
       <use xlink:href="#DejaVuSans-30" x="290.576172"/>
       <use xlink:href="#DejaVuSans-37" x="354.199219"/>
       <use xlink:href="#DejaVuSans-2d" x="417.822266"/>
       <use xlink:href="#DejaVuSans-31" x="453.90625"/>
       <use xlink:href="#DejaVuSans-35" x="517.529297"/>
      </g>
     </g>
    </g>
    <g id="xtick_6">
     <g id="line2d_6">
      <g>
       <use xlink:href="#m893eced1a7" x="508.686854" y="320.4" style="stroke: #000000; stroke-width: 0.8"/>
      </g>
     </g>
     <g id="text_6">
      <!-- 2020-08-01 -->
      <g transform="translate(479.629042 334.998438) scale(0.1 -0.1)">
       <defs>
        <path id="DejaVuSans-38" d="M 2034 2216 
Q 1584 2216 1326 1975 
Q 1069 1734 1069 1313 
Q 1069 891 1326 650 
Q 1584 409 2034 409 
Q 2484 409 2743 651 
Q 3003 894 3003 1313 
Q 3003 1734 2745 1975 
Q 2488 2216 2034 2216 
z
M 1403 2484 
Q 997 2584 770 2862 
Q 544 3141 544 3541 
Q 544 4100 942 4425 
Q 1341 4750 2034 4750 
Q 2731 4750 3128 4425 
Q 3525 4100 3525 3541 
Q 3525 3141 3298 2862 
Q 3072 2584 2669 2484 
Q 3125 2378 3379 2068 
Q 3634 1759 3634 1313 
Q 3634 634 3220 271 
Q 2806 -91 2034 -91 
Q 1263 -91 848 271 
Q 434 634 434 1313 
Q 434 1759 690 2068 
Q 947 2378 1403 2484 
z
M 1172 3481 
Q 1172 3119 1398 2916 
Q 1625 2713 2034 2713 
Q 2441 2713 2670 2916 
Q 2900 3119 2900 3481 
Q 2900 3844 2670 4047 
Q 2441 4250 2034 4250 
Q 1625 4250 1398 4047 
Q 1172 3844 1172 3481 
z
" transform="scale(0.015625)"/>
       </defs>
       <use xlink:href="#DejaVuSans-32"/>
       <use xlink:href="#DejaVuSans-30" x="63.623047"/>
       <use xlink:href="#DejaVuSans-32" x="127.246094"/>
       <use xlink:href="#DejaVuSans-30" x="190.869141"/>
       <use xlink:href="#DejaVuSans-2d" x="254.492188"/>
       <use xlink:href="#DejaVuSans-30" x="290.576172"/>
       <use xlink:href="#DejaVuSans-38" x="354.199219"/>
       <use xlink:href="#DejaVuSans-2d" x="417.822266"/>
       <use xlink:href="#DejaVuSans-30" x="453.90625"/>
       <use xlink:href="#DejaVuSans-31" x="517.529297"/>
      </g>
     </g>
    </g>
   </g>
   <g id="matplotlib.axis_2">
    <g id="ytick_1">
     <g id="line2d_7">
      <defs>
       <path id="m4b9db4acf8" d="M 0 0 
L -3.5 0 
" style="stroke: #000000; stroke-width: 0.8"/>
      </defs>
      <g>
       <use xlink:href="#m4b9db4acf8" x="72" y="299.260425" style="stroke: #000000; stroke-width: 0.8"/>
      </g>
     </g>
     <g id="text_7">
      <!-- −5 -->
      <g transform="translate(50.257812 303.059644) scale(0.1 -0.1)">
       <defs>
        <path id="DejaVuSans-2212" d="M 678 2272 
L 4684 2272 
L 4684 1741 
L 678 1741 
L 678 2272 
z
" transform="scale(0.015625)"/>
       </defs>
       <use xlink:href="#DejaVuSans-2212"/>
       <use xlink:href="#DejaVuSans-35" x="83.789062"/>
      </g>
     </g>
    </g>
    <g id="ytick_2">
     <g id="line2d_8">
      <g>
       <use xlink:href="#m4b9db4acf8" x="72" y="268.21142" style="stroke: #000000; stroke-width: 0.8"/>
      </g>
     </g>
     <g id="text_8">
      <!-- −4 -->
      <g transform="translate(50.257812 272.010639) scale(0.1 -0.1)">
       <defs>
        <path id="DejaVuSans-34" d="M 2419 4116 
L 825 1625 
L 2419 1625 
L 2419 4116 
z
M 2253 4666 
L 3047 4666 
L 3047 1625 
L 3713 1625 
L 3713 1100 
L 3047 1100 
L 3047 0 
L 2419 0 
L 2419 1100 
L 313 1100 
L 313 1709 
L 2253 4666 
z
" transform="scale(0.015625)"/>
       </defs>
       <use xlink:href="#DejaVuSans-2212"/>
       <use xlink:href="#DejaVuSans-34" x="83.789062"/>
      </g>
     </g>
    </g>
    <g id="ytick_3">
     <g id="line2d_9">
      <g>
       <use xlink:href="#m4b9db4acf8" x="72" y="237.162415" style="stroke: #000000; stroke-width: 0.8"/>
      </g>
     </g>
     <g id="text_9">
      <!-- −3 -->
      <g transform="translate(50.257812 240.961634) scale(0.1 -0.1)">
       <defs>
        <path id="DejaVuSans-33" d="M 2597 2516 
Q 3050 2419 3304 2112 
Q 3559 1806 3559 1356 
Q 3559 666 3084 287 
Q 2609 -91 1734 -91 
Q 1441 -91 1130 -33 
Q 819 25 488 141 
L 488 750 
Q 750 597 1062 519 
Q 1375 441 1716 441 
Q 2309 441 2620 675 
Q 2931 909 2931 1356 
Q 2931 1769 2642 2001 
Q 2353 2234 1838 2234 
L 1294 2234 
L 1294 2753 
L 1863 2753 
Q 2328 2753 2575 2939 
Q 2822 3125 2822 3475 
Q 2822 3834 2567 4026 
Q 2313 4219 1838 4219 
Q 1578 4219 1281 4162 
Q 984 4106 628 3988 
L 628 4550 
Q 988 4650 1302 4700 
Q 1616 4750 1894 4750 
Q 2613 4750 3031 4423 
Q 3450 4097 3450 3541 
Q 3450 3153 3228 2886 
Q 3006 2619 2597 2516 
z
" transform="scale(0.015625)"/>
       </defs>
       <use xlink:href="#DejaVuSans-2212"/>
       <use xlink:href="#DejaVuSans-33" x="83.789062"/>
      </g>
     </g>
    </g>
    <g id="ytick_4">
     <g id="line2d_10">
      <g>
       <use xlink:href="#m4b9db4acf8" x="72" y="206.11341" style="stroke: #000000; stroke-width: 0.8"/>
      </g>
     </g>
     <g id="text_10">
      <!-- −2 -->
      <g transform="translate(50.257812 209.912629) scale(0.1 -0.1)">
       <use xlink:href="#DejaVuSans-2212"/>
       <use xlink:href="#DejaVuSans-32" x="83.789062"/>
      </g>
     </g>
    </g>
    <g id="ytick_5">
     <g id="line2d_11">
      <g>
       <use xlink:href="#m4b9db4acf8" x="72" y="175.064405" style="stroke: #000000; stroke-width: 0.8"/>
      </g>
     </g>
     <g id="text_11">
      <!-- −1 -->
      <g transform="translate(50.257812 178.863623) scale(0.1 -0.1)">
       <use xlink:href="#DejaVuSans-2212"/>
       <use xlink:href="#DejaVuSans-31" x="83.789062"/>
      </g>
     </g>
    </g>
    <g id="ytick_6">
     <g id="line2d_12">
      <g>
       <use xlink:href="#m4b9db4acf8" x="72" y="144.0154" style="stroke: #000000; stroke-width: 0.8"/>
      </g>
     </g>
     <g id="text_12">
      <!-- 0 -->
      <g transform="translate(58.6375 147.814618) scale(0.1 -0.1)">
       <use xlink:href="#DejaVuSans-30"/>
      </g>
     </g>
    </g>
    <g id="ytick_7">
     <g id="line2d_13">
      <g>
       <use xlink:href="#m4b9db4acf8" x="72" y="112.966395" style="stroke: #000000; stroke-width: 0.8"/>
      </g>
     </g>
     <g id="text_13">
      <!-- 1 -->
      <g transform="translate(58.6375 116.765613) scale(0.1 -0.1)">
       <use xlink:href="#DejaVuSans-31"/>
      </g>
     </g>
    </g>
    <g id="ytick_8">
     <g id="line2d_14">
      <g>
       <use xlink:href="#m4b9db4acf8" x="72" y="81.917389" style="stroke: #000000; stroke-width: 0.8"/>
      </g>
     </g>
     <g id="text_14">
      <!-- 2 -->
      <g transform="translate(58.6375 85.716608) scale(0.1 -0.1)">
       <use xlink:href="#DejaVuSans-32"/>
      </g>
     </g>
    </g>
    <g id="ytick_9">
     <g id="line2d_15">
      <g>
       <use xlink:href="#m4b9db4acf8" x="72" y="50.868384" style="stroke: #000000; stroke-width: 0.8"/>
      </g>
     </g>
     <g id="text_15">
      <!-- 3 -->
      <g transform="translate(58.6375 54.667603) scale(0.1 -0.1)">
       <use xlink:href="#DejaVuSans-33"/>
      </g>
     </g>
    </g>
   </g>
   <g id="line2d_16">
    <path d="M 72 189.361126 
L 72.404714 195.941092 
L 72.607072 194.941912 
L 72.809429 188.75187 
L 73.214143 170.81537 
L 73.618858 163.601777 
L 75.035358 115.470544 
L 75.237715 113.752442 
L 75.440073 116.689056 
L 75.64243 121.453439 
L 75.844787 123.366503 
L 76.047144 132.212902 
L 76.654216 172.984322 
L 77.05893 186.948472 
L 77.261287 189.482977 
L 77.463645 189.263645 
L 77.666002 183.049233 
L 78.070716 166.514022 
L 78.475431 159.276059 
L 78.677788 153.975531 
L 79.487217 120.905109 
L 79.891931 111.461639 
L 80.094288 112.594855 
L 80.903717 137.208802 
L 81.713146 180.929021 
L 82.11786 189.434237 
L 82.320218 190.616194 
L 82.522575 190.445602 
L 82.724932 188.983387 
L 82.927289 185.023223 
L 83.332004 171.680514 
L 83.736718 163.37026 
L 83.939075 161.603417 
L 84.141432 161.761824 
L 84.546147 165.478286 
L 84.748504 166.696799 
L 84.950861 166.708984 
L 85.355576 169.146008 
L 85.557933 167.208574 
L 85.76029 170.766629 
L 86.569719 196.867161 
L 86.772076 200.400847 
L 86.974433 201.326916 
L 87.176791 201.363472 
L 87.379148 200.583624 
L 87.581505 198.414672 
L 87.783862 194.491063 
L 88.188577 181.684499 
L 88.390934 178.674774 
L 89.200363 173.983502 
L 89.40272 171.583033 
L 89.807434 162.992521 
L 90.212149 161.566862 
L 90.414506 159.994981 
L 90.616863 164.613143 
L 91.223935 193.991473 
L 91.628649 200.400847 
L 91.831006 200.437402 
L 92.033364 198.987373 
L 92.842792 172.180104 
L 93.04515 170.937221 
L 93.449864 165.941321 
L 93.652221 165.636693 
L 93.854578 163.930776 
L 94.056936 163.565222 
L 94.259293 162.042082 
L 94.46165 158.325619 
L 94.664007 156.668443 
L 94.866364 157.204588 
L 95.068722 159.032357 
L 95.271079 156.802479 
L 95.473436 162.675708 
L 96.080508 194.210805 
L 96.485222 199.560073 
L 96.687579 200.66892 
L 96.889937 198.146599 
L 97.699365 171.753624 
L 98.306437 165.648878 
L 98.508794 165.429546 
L 99.52058 153.098202 
L 99.722937 153.829309 
L 99.925295 156.363815 
L 100.127652 155.303709 
L 100.330009 161.201308 
L 100.937081 192.77296 
L 101.341795 199.901257 
L 101.544152 200.473958 
L 101.74651 198.317191 
L 101.948867 191.371671 
L 102.353581 173.922576 
L 102.555938 173.020877 
L 103.567724 162.687893 
L 104.377153 149.844774 
L 104.57951 150.588067 
L 104.781868 153.719643 
L 104.984225 153.707458 
L 105.186582 158.87395 
L 105.793654 190.945192 
L 106.198368 198.353746 
L 106.400725 199.377297 
L 106.603083 197.037753 
L 107.412511 170.352335 
L 107.614869 169.353155 
L 107.817226 167.220759 
L 108.22194 158.776469 
L 108.626655 146.164867 
L 108.829012 142.716478 
L 109.031369 141.619817 
L 109.638441 146.664457 
L 109.840798 149.820404 
L 110.043155 155.864225 
L 110.650227 187.850171 
L 111.054941 196.136054 
L 111.257298 197.2449 
L 111.459655 196.233535 
L 111.662013 189.604829 
L 112.066727 172.606583 
L 112.471442 163.89422 
L 113.887942 124.146351 
L 114.090299 122.769432 
L 114.292656 126.729597 
L 114.495014 133.370489 
L 114.697371 136.039031 
L 115.102085 155.803299 
L 115.709157 184.487077 
L 116.113871 192.590183 
L 116.316228 192.687664 
L 116.518586 191.72504 
L 116.720943 189.617014 
L 117.125657 173.78854 
L 118.542158 112.972594 
L 118.744515 107.099365 
L 118.946872 104.845117 
L 119.149229 106.977514 
L 119.756301 128.983845 
L 120.56573 175.092348 
L 120.970444 186.607288 
L 121.172801 188.983387 
L 121.375159 189.933827 
L 121.577516 189.093053 
L 121.779873 184.487077 
L 122.589302 154.85286 
L 123.196374 140.060121 
L 123.398731 137.403764 
L 123.601088 137.525616 
L 123.803445 137.196617 
L 124.410517 144.98291 
L 124.612874 151.355729 
L 125.219946 184.060598 
L 125.62466 192.504888 
L 125.827017 193.662474 
L 126.029374 192.188074 
L 127.04116 159.42228 
L 127.648232 137.684022 
L 128.255304 113.05789 
L 128.457661 108.671246 
L 128.660018 108.476284 
L 129.26709 134.235633 
L 130.278876 187.021583 
L 130.481233 191.566633 
L 130.68359 192.370851 
L 130.885947 190.872081 
L 132.504805 127.582556 
L 133.111877 102.785832 
L 133.314234 97.314712 
L 133.516591 98.301707 
L 133.921306 107.233401 
L 134.123663 111.546935 
L 135.135449 175.396976 
L 135.540163 182.73242 
L 135.74252 182.184089 
L 135.944878 176.030602 
L 136.349592 157.777289 
L 136.551949 153.841494 
L 136.754306 146.944715 
L 136.956664 149.601072 
L 137.159021 143.033291 
L 137.766092 137.903354 
L 137.96845 138.134872 
L 138.373164 134.99111 
L 138.777879 139.377754 
L 138.980236 139.865159 
L 139.182593 146.725383 
L 139.789665 179.637398 
L 140.194379 188.569093 
L 140.396736 189.77542 
L 140.599093 188.020763 
L 141.003808 170.462001 
L 141.408522 158.155028 
L 142.015594 150.368735 
L 142.622665 145.056021 
L 142.825023 144.897615 
L 143.02738 144.190878 
L 143.229737 144.592987 
L 143.634451 147.663637 
L 143.836809 146.944715 
L 144.039166 152.866685 
L 144.646238 181.550463 
L 145.050952 188.581278 
L 145.253309 189.336756 
L 145.455666 187.508987 
L 145.860381 170.267039 
L 146.062738 160.701718 
L 146.66981 151.124212 
L 146.872167 149.564516 
L 147.074524 148.93089 
L 147.479238 142.472775 
L 147.681596 147.395565 
L 147.883953 147.968265 
L 148.08631 149.491406 
L 148.491024 154.913785 
L 148.693382 154.121752 
L 149.098096 167.878755 
L 149.502811 184.267745 
L 149.907525 191.907817 
L 150.109882 193.114144 
L 150.312239 192.77296 
L 150.514597 191.115784 
L 150.716954 187.764875 
L 151.121668 175.506642 
L 151.526383 163.467741 
L 151.931097 160.055907 
L 152.133454 159.800019 
L 152.335811 160.957606 
L 152.538169 161.262234 
L 152.740526 160.055907 
L 152.942883 160.226499 
L 153.14524 159.653798 
L 153.347597 159.678168 
L 153.549955 157.960066 
L 153.752312 159.251689 
L 154.764098 189.495162 
L 154.966455 191.822521 
L 155.168812 192.638924 
L 155.573527 190.323751 
L 155.775884 183.816895 
L 156.78767 138.01302 
L 157.799456 112.960409 
L 158.001813 114.142366 
L 158.406528 121.904289 
L 158.608885 129.873359 
L 159.215956 170.218299 
L 159.620671 182.915196 
L 159.823028 184.80389 
L 160.025385 184.267745 
L 160.227743 178.504182 
L 160.632457 159.42228 
L 161.8466 129.848989 
L 162.251315 123.939204 
L 162.453672 124.0245 
L 162.656029 125.706047 
L 163.465458 144.41021 
L 164.072529 179.600843 
L 164.477244 190.543083 
L 164.679601 190.738045 
L 164.881958 188.837166 
L 165.084316 182.866456 
L 165.48903 164.186663 
L 166.500816 143.557251 
L 167.310245 118.321863 
L 167.512602 120.295853 
L 167.917316 132.395679 
L 168.119674 135.01548 
L 168.322031 141.692927 
L 168.929102 176.627673 
L 169.333817 185.559368 
L 169.536174 187.630839 
L 169.738531 185.474072 
L 170.143246 169.426266 
L 170.54796 151.599432 
L 171.357389 125.389234 
L 171.559746 121.843363 
L 172.166818 107.61114 
L 172.369175 108.56158 
L 172.571532 113.216297 
L 173.178604 136.136512 
L 173.785675 177.943666 
L 174.19039 189.348941 
L 174.392747 191.103599 
L 174.595104 190.031308 
L 174.999819 175.799085 
L 175.404533 161.091642 
L 177.023391 115.068435 
L 177.225748 115.373063 
L 177.428105 117.676051 
L 177.630462 127.436334 
L 177.83282 128.874179 
L 178.237534 154.828489 
L 178.642248 180.076063 
L 179.046963 191.371671 
L 179.24932 193.564993 
L 179.451677 192.078408 
L 179.654034 186.960657 
L 180.261106 163.504296 
L 181.879964 106.429183 
L 182.082321 104.503934 
L 182.284678 107.842658 
L 183.094107 141.010561 
L 183.498821 163.979516 
L 183.903536 176.615488 
L 184.30825 181.233649 
L 184.510607 182.037868 
L 184.712965 179.893286 
L 184.915322 172.009512 
L 185.724751 123.695502 
L 186.129465 111.096085 
L 186.331822 107.525844 
L 186.53418 107.074995 
L 186.736537 108.573765 
L 187.748323 132.407864 
L 188.557752 170.242669 
L 188.962466 178.601663 
L 189.164823 179.80799 
L 189.36718 179.856731 
L 189.569538 179.418066 
L 189.771895 173.057432 
L 190.986038 116.457539 
L 191.188395 113.325963 
L 191.390752 113.301592 
L 191.795467 118.699602 
L 192.604896 137.172247 
L 193.414325 174.544017 
L 193.819039 182.634939 
L 194.021396 183.268565 
L 194.426111 180.929021 
L 194.628468 175.640678 
L 195.437897 139.682382 
L 195.640254 136.721398 
L 195.842611 137.44032 
L 196.247325 141.022746 
L 196.449683 141.363929 
L 196.65204 141.132412 
L 197.056754 145.982091 
L 197.259112 146.481681 
L 197.461469 151.45321 
L 198.06854 180.015137 
L 198.473255 188.398501 
L 198.675612 188.459427 
L 198.877969 186.30266 
L 199.282684 168.110273 
L 199.687398 154.621342 
L 201.306256 115.373063 
L 201.508613 114.690696 
L 202.115684 126.035045 
L 202.318042 132.627196 
L 202.925113 170.498557 
L 203.329828 180.929021 
L 203.532185 182.171904 
L 203.734542 180.405061 
L 203.936899 173.593578 
L 204.341614 153.500311 
L 205.758114 121.185367 
L 205.960471 119.710967 
L 206.162829 119.796263 
L 206.365186 120.637036 
L 206.7699 127.643481 
L 206.972257 129.532175 
L 207.174615 135.94155 
L 207.781686 170.851925 
L 208.186401 180.405061 
L 208.388758 182.208459 
L 208.591115 180.234469 
L 208.793472 173.215839 
L 209.198187 153.232238 
L 209.805258 140.060121 
L 210.209973 128.301478 
L 210.817044 103.650975 
L 211.019402 98.630705 
L 211.221759 100.385363 
L 211.626473 114.861288 
L 211.82883 117.944124 
L 212.031188 126.656486 
L 212.638259 165.124918 
L 213.042974 176.115898 
L 213.245331 178.479812 
L 213.447688 177.468447 
L 213.650045 171.132183 
L 214.257117 145.543426 
L 214.661831 129.958655 
L 215.47126 94.853317 
L 215.875975 84.958998 
L 216.078332 84.67874 
L 216.280689 87.956538 
L 217.090118 125.681677 
L 217.697189 162.310154 
L 218.101904 173.228024 
L 218.304261 175.214199 
L 218.506618 176.018417 
L 218.708976 175.275125 
L 218.911333 167.744719 
L 219.518404 135.332294 
L 220.125476 114.507919 
L 220.327833 113.228482 
L 220.53019 114.544475 
L 221.541976 139.572716 
L 221.744334 142.618997 
L 222.553762 176.274305 
L 222.958477 182.708049 
L 223.160834 183.719414 
L 223.363191 183.926562 
L 223.565549 183.000492 
L 223.767906 177.846185 
L 224.374977 155.242783 
L 224.779692 150.758658 
L 225.386763 151.977171 
L 225.589121 154.060827 
L 225.791478 154.584787 
L 226.196192 159.544132 
L 226.398549 159.336985 
L 226.600907 163.138743 
L 227.410335 194.856616 
L 227.612693 197.2449 
L 227.81505 198.24408 
L 228.017407 196.355386 
L 228.826836 171.156553 
L 229.029193 169.779634 
L 229.23155 166.379985 
L 230.648051 128.861994 
L 230.850408 129.203177 
L 231.255122 137.732763 
L 231.45748 144.178692 
L 232.064551 181.855091 
L 232.469266 192.017483 
L 232.671623 193.625919 
L 232.87398 192.906997 
L 233.278694 177.943666 
L 233.683409 164.613143 
L 235.302267 126.400599 
L 235.504624 126.04723 
L 236.111695 137.355024 
L 236.314053 143.48414 
L 236.921124 180.246655 
L 237.325839 189.641384 
L 237.528196 191.493522 
L 237.730553 190.238455 
L 238.135267 176.067158 
L 238.539982 163.175298 
L 239.349411 144.873244 
L 239.754125 138.951275 
L 240.15884 132.907454 
L 240.361197 132.761233 
L 240.563554 135.99029 
L 240.968268 146.40857 
L 241.170626 150.892695 
L 241.777697 183.75597 
L 242.182412 193.138514 
L 242.384769 194.612914 
L 242.587126 192.846071 
L 242.99184 178.223924 
L 243.396555 167.598498 
L 245.21777 123.427429 
L 245.420127 125.937564 
L 246.027199 141.790408 
L 246.836627 185.266925 
L 247.038985 190.214085 
L 247.241342 192.090593 
L 247.443699 190.591823 
L 247.848413 176.652043 
L 249.467271 110.389348 
L 249.669628 105.61278 
L 249.871985 104.467379 
L 250.074343 104.56486 
L 250.2767 108.671246 
L 250.883772 127.667852 
L 251.6932 172.021697 
L 252.097915 180.612208 
L 252.300272 182.427791 
L 252.502629 182.586198 
L 252.704986 180.295395 
L 253.109701 160.921051 
L 253.91913 117.615126 
L 254.323844 108.269137 
L 254.728558 103.053904 
L 254.930916 102.310612 
L 255.133273 106.745997 
L 255.740345 128.910734 
L 256.549773 173.398616 
L 256.954488 182.549643 
L 257.156845 184.80389 
L 257.359202 185.790885 
L 257.561559 185.218184 
L 257.966274 168.134643 
L 258.573345 138.329834 
L 258.97806 125.511085 
L 259.382774 118.992045 
L 259.585131 116.957129 
L 259.787489 116.701242 
L 259.989846 118.248752 
L 260.39456 127.704407 
L 260.596917 135.600366 
L 261.203989 172.265399 
L 261.608704 183.329491 
L 261.811061 185.059778 
L 262.013418 184.596743 
L 262.418132 170.425446 
L 262.62049 163.32152 
L 263.025204 157.606697 
L 263.227561 155.949521 
L 263.429918 155.35245 
L 263.834633 156.107927 
L 264.03699 155.92515 
L 264.239347 156.485666 
L 264.441704 156.534406 
L 264.644062 156.376 
L 264.846419 157.582327 
L 265.048776 159.970611 
L 265.251133 159.970611 
L 265.45349 162.34671 
L 266.060562 187.460247 
L 266.465277 195.051578 
L 266.667634 195.965462 
L 266.869991 193.491883 
L 267.072348 188.788425 
L 267.477063 173.118358 
L 268.084134 160.007166 
L 268.488849 153.92679 
L 269.09592 147.273713 
L 269.500635 144.93417 
L 269.702992 146.225793 
L 269.905349 148.358189 
L 270.107706 148.760298 
L 270.310063 152.488946 
L 270.917135 181.379871 
L 271.32185 188.459427 
L 271.524207 189.72668 
L 271.726564 188.715315 
L 274.15485 104.991339 
L 274.357208 100.750916 
L 274.559565 102.724906 
L 275.166636 117.602941 
L 275.976065 165.84384 
L 276.38078 173.276765 
L 276.583137 172.86247 
L 276.987851 159.946241 
L 277.392566 142.850514 
L 278.404352 109.170836 
L 278.606709 107.367438 
L 279.011423 99.544589 
L 279.213781 98.59415 
L 279.416138 101.11647 
L 280.023209 125.791343 
L 280.630281 167.988421 
L 281.034995 181.465167 
L 281.237353 184.353041 
L 281.43971 183.439157 
L 281.642067 179.954212 
L 282.249139 155.254969 
L 282.85621 135.356664 
L 283.867996 110.048165 
L 284.070354 109.341428 
L 284.272711 114.166736 
L 285.284497 163.309334 
L 285.689211 182.342496 
L 286.093926 191.067043 
L 286.296283 192.419592 
L 286.49864 191.347301 
L 286.700997 189.604829 
L 287.105712 171.254034 
L 287.712783 140.754673 
L 288.522212 115.05625 
L 288.724569 110.840198 
L 288.926927 109.694796 
L 289.129284 111.815007 
L 289.736355 131.822978 
L 290.545784 173.28895 
L 290.950499 182.33031 
L 291.152856 183.975302 
L 291.355213 184.024042 
L 291.55757 183.146714 
L 291.759927 175.76253 
L 292.771714 117.371423 
L 293.176428 104.357713 
L 293.581142 97.704636 
L 293.7835 96.681085 
L 293.985857 98.764741 
L 294.592928 113.874293 
L 295.402357 163.163113 
L 295.807072 171.86329 
L 296.009429 171.765809 
L 296.414143 159.751279 
L 297.830644 79.768136 
L 298.235358 71.884362 
L 298.437715 70.349036 
L 298.640073 70.507443 
L 298.84243 71.725955 
L 299.044787 76.490338 
L 299.449501 92.477218 
L 300.056573 139.304643 
L 300.461287 154.267974 
L 300.663645 157.838215 
L 300.866002 158.264694 
L 301.068359 154.219233 
L 301.473073 136.404584 
L 302.484859 73.980203 
L 302.687217 67.2662 
L 302.889574 67.327126 
L 303.091931 72.128064 
L 303.496646 77.258 
L 303.90136 90.454488 
L 304.306074 107.026254 
L 304.913146 148.077932 
L 305.31786 163.114373 
L 305.520218 166.416541 
L 305.722575 165.356435 
L 305.924932 161.128198 
L 306.532004 137.428135 
L 307.54379 95.901238 
L 307.746147 89.845232 
L 307.948504 89.321272 
L 308.757933 108.464099 
L 309.162647 123.927019 
L 309.769719 161.298789 
L 310.174433 173.093988 
L 310.376791 175.701604 
L 310.579148 175.36042 
L 310.983862 161.469381 
L 312.198005 99.751736 
L 312.60272 92.854957 
L 312.805077 90.259526 
L 313.007434 90.588524 
L 313.209791 92.781846 
L 313.816863 109.146466 
L 314.01922 117.261757 
L 314.626292 154.389825 
L 315.031006 166.550577 
L 315.233364 169.267859 
L 315.435721 168.877935 
L 315.840435 157.740734 
L 316.24515 146.640087 
L 316.649864 139.511791 
L 317.054578 130.433874 
L 317.66165 125.97412 
L 317.864007 125.706047 
L 318.066364 125.169902 
L 318.268722 127.948109 
L 318.875793 141.083671 
L 319.685222 175.847825 
L 320.089937 183.426971 
L 320.292294 184.401781 
L 320.697008 179.698324 
L 321.101723 164.137923 
L 322.315866 117.907569 
L 322.72058 111.827193 
L 322.922937 110.450274 
L 323.125295 112.899483 
L 323.732366 129.288473 
L 324.541795 169.950226 
L 324.94651 178.431071 
L 325.148867 180.149174 
L 325.351224 180.185729 
L 325.553581 178.845365 
L 325.755938 171.534292 
L 326.970082 104.845117 
L 327.172439 101.0921 
L 327.374796 100.153845 
L 327.77951 96.851677 
L 327.981868 99.812662 
L 328.184225 105.027894 
L 328.791296 135.673477 
L 329.196011 161.615602 
L 329.398368 170.656963 
L 329.803083 176.652043 
L 330.00544 176.091528 
L 330.207797 172.764989 
L 330.814869 143.98373 
L 331.42194 121.307218 
L 331.826655 107.854843 
L 332.029012 106.13674 
L 332.433726 106.258592 
L 332.636083 107.501474 
L 332.838441 110.194386 
L 333.243155 123.792983 
L 333.445512 129.142251 
L 334.052584 168.134643 
L 334.457298 181.063058 
L 334.659655 184.27993 
L 334.862013 182.854271 
L 335.266727 171.083443 
L 335.671442 156.631887 
L 336.48087 132.834343 
L 336.683228 129.824618 
L 336.885585 129.166622 
L 337.087942 125.4989 
L 337.290299 124.402239 
L 337.695014 128.240552 
L 338.099728 136.818879 
L 338.302085 140.303823 
L 339.111514 179.357141 
L 339.313871 183.037048 
L 339.516228 184.365226 
L 339.718586 181.952572 
L 340.1233 168.098088 
L 340.932729 141.717298 
L 342.349229 105.076635 
L 342.551587 105.027894 
L 343.158658 119.674411 
L 343.76573 156.912145 
L 344.170444 167.598498 
L 344.372801 170.425446 
L 344.575159 169.158193 
L 344.777516 165.051807 
L 345.18223 146.725383 
L 346.194016 97.692451 
L 346.598731 88.931348 
L 347.003445 85.007738 
L 347.205802 84.508148 
L 347.40816 86.396842 
L 347.610517 91.051559 
L 348.015231 106.538849 
L 348.82466 160.604237 
L 349.229374 170.754444 
L 349.431732 170.303595 
L 349.634089 166.86739 
L 349.836446 160.263054 
L 351.050589 98.301707 
L 351.455304 87.408207 
L 351.860018 82.15642 
L 352.062375 81.620274 
L 352.264733 83.777041 
L 352.46709 90.357007 
L 353.276519 139.658012 
L 353.681233 162.163933 
L 354.085947 174.141908 
L 354.288305 177.273485 
L 354.490662 177.614668 
L 354.693019 176.28649 
L 355.097733 151.343544 
L 355.704805 107.538029 
L 356.109519 92.879327 
L 356.716591 82.083309 
L 356.918948 81.437497 
L 357.121306 84.288816 
L 357.52602 99.495849 
L 357.728377 107.026254 
L 358.740163 163.687073 
L 359.144878 171.388071 
L 359.347235 172.496917 
L 359.549592 172.301955 
L 359.751949 163.991701 
L 360.763735 92.404108 
L 361.16845 81.084129 
L 361.573164 74.491978 
L 361.775521 73.127244 
L 361.977879 75.076864 
L 362.180236 79.23199 
L 362.58495 94.536504 
L 363.394379 147.212788 
L 363.799093 157.691993 
L 364.001451 158.179398 
L 364.203808 154.682268 
L 364.406165 148.711558 
L 365.013237 107.403993 
L 365.620308 69.069598 
L 366.025023 59.467722 
L 366.429737 55.8 
L 366.632094 56.092443 
L 366.834451 57.664324 
L 367.036809 62.843001 
L 367.441523 80.18243 
L 368.048595 127.485075 
L 368.453309 145.616537 
L 368.655666 150.685548 
L 368.858024 152.099022 
L 369.060381 149.783849 
L 369.262738 143.922805 
L 369.86981 106.173296 
L 370.476881 71.604104 
L 370.881596 61.721969 
L 371.083953 61.453897 
L 371.28631 61.880376 
L 371.488667 64.21992 
L 371.691024 67.924197 
L 372.298096 91.100299 
L 373.107525 141.644187 
L 373.512239 154.865045 
L 373.714597 157.460476 
L 374.119311 157.046182 
L 374.321668 149.467035 
L 375.333454 87.712835 
L 375.738169 79.829061 
L 375.940526 78.220625 
L 376.142883 77.562629 
L 376.34524 80.645464 
L 376.749955 96.254606 
L 377.559383 131.299018 
L 377.964098 151.916245 
L 378.368812 160.129018 
L 378.57117 160.263054 
L 378.773527 156.729368 
L 378.975884 150.051921 
L 380.392384 80.633279 
L 380.797099 74.723495 
L 381.201813 70.202815 
L 381.40417 72.444877 
L 382.011242 94.487763 
L 382.820671 143.825324 
L 383.225385 153.415015 
L 383.427743 153.804939 
L 383.6301 150.624622 
L 384.034814 137.379394 
L 385.0466 93.64699 
L 385.451315 83.70393 
L 385.653672 83.423672 
L 385.856029 85.67792 
L 386.058386 90.222971 
L 387.070172 131.908274 
L 387.474887 155.803299 
L 387.879601 168.84138 
L 388.284316 174.28813 
L 388.68903 175.7869 
L 388.891387 172.36288 
L 389.700816 146.420755 
L 390.307888 139.743308 
L 390.914959 132.151977 
L 391.117316 135.003295 
L 391.926745 158.581507 
L 392.533817 184.913556 
L 392.938531 192.285555 
L 393.140888 193.394402 
L 393.343246 193.126329 
L 393.545603 193.406587 
L 393.74796 188.069503 
L 394.355032 163.540852 
L 395.569175 129.885544 
L 395.771532 126.303118 
L 395.973889 127.02204 
L 396.176247 131.981385 
L 396.783318 157.033996 
L 397.188033 179.990767 
L 397.592747 190.616194 
L 397.795104 192.27337 
L 397.997461 190.762415 
L 398.402176 179.954212 
L 400.628105 103.894678 
L 400.830462 105.58841 
L 401.03282 111.522565 
L 401.639891 145.519056 
L 402.044606 171.948586 
L 402.44932 184.060598 
L 402.651677 186.448882 
L 402.854034 185.461887 
L 403.258749 174.617128 
L 403.663463 157.679808 
L 404.877607 94.475578 
L 405.282321 82.241715 
L 405.484678 79.73158 
L 405.687035 80.377392 
L 405.889393 86.640545 
L 406.294107 108.914948 
L 406.901179 155.060007 
L 407.305893 169.401896 
L 407.50825 172.740619 
L 407.710607 172.423806 
L 408.115322 159.763464 
L 409.73418 80.913537 
L 409.936537 77.976923 
L 410.138894 77.891627 
L 410.341251 80.633279 
L 410.948323 102.152205 
L 411.15068 111.632231 
L 411.757752 153.707458 
L 412.162466 168.049347 
L 412.364823 171.912031 
L 412.56718 172.972137 
L 412.971895 162.212673 
L 414.388395 103.748456 
L 414.79311 95.681905 
L 415.197824 91.709556 
L 415.400181 95.742831 
L 416.20961 133.01712 
L 416.614325 159.970611 
L 417.019039 173.715429 
L 417.221396 176.249934 
L 417.423753 175.920936 
L 417.828468 166.294689 
L 419.244968 108.06199 
L 419.649683 99.958883 
L 419.85204 97.680266 
L 420.054397 98.533224 
L 420.256754 103.687531 
L 421.066183 142.545886 
L 421.673255 175.323865 
L 422.077969 184.889186 
L 422.280326 186.363586 
L 422.482684 185.973662 
L 422.685041 185.876181 
L 423.089755 167.586312 
L 423.899184 126.52245 
L 424.708613 103.151385 
L 424.91097 101.262691 
L 425.113327 103.63879 
L 425.518042 119.162636 
L 425.720399 126.169082 
L 426.529828 170.486372 
L 426.934542 181.513907 
L 427.136899 184.170264 
L 427.339257 184.645484 
L 427.541614 184.77952 
L 427.743971 179.673954 
L 428.148685 155.718003 
L 428.755757 118.979859 
L 429.160471 103.760642 
L 429.565186 98.862222 
L 429.9699 101.189581 
L 430.374615 110.815827 
L 430.576972 117.724792 
L 431.386401 162.82193 
L 431.791115 170.084263 
L 431.993472 168.877935 
L 432.398187 156.826849 
L 433.207616 118.200012 
L 434.017044 76.441597 
L 434.219402 73.541538 
L 435.02883 89.808676 
L 435.433545 104.63797 
L 436.040617 146.88379 
L 436.445331 160.250869 
L 436.647688 163.297149 
L 436.850045 162.89504 
L 437.25476 150.673363 
L 437.659474 129.958655 
L 438.468903 86.372472 
L 438.67126 80.596724 
L 438.873617 81.169425 
L 439.075975 85.385477 
L 439.278332 85.117404 
L 439.480689 86.445583 
L 439.885403 97.448748 
L 440.290118 112.131821 
L 440.897189 155.681448 
L 441.301904 168.914491 
L 441.504261 172.131363 
L 441.706618 172.448176 
L 442.111333 163.711444 
L 442.920762 132.858714 
L 443.527833 112.180561 
L 444.134905 98.691631 
L 444.337262 97.156305 
L 444.539619 100.958063 
L 445.146691 127.680037 
L 445.753762 168.707344 
L 446.158477 181.28239 
L 446.360834 184.219004 
L 446.563191 183.037048 
L 446.967906 171.826735 
L 448.586763 106.721626 
L 448.991478 98.898778 
L 449.193835 97.521859 
L 449.396192 101.469839 
L 450.003264 125.413604 
L 450.812693 172.874656 
L 451.217407 180.75843 
L 451.419764 180.83154 
L 451.824479 170.644778 
L 452.43155 140.754673 
L 453.038622 115.909209 
L 453.443336 105.807742 
L 453.848051 101.14084 
L 454.050408 103.1392 
L 454.252765 109.06117 
L 454.65748 125.901009 
L 454.859837 130.909094 
L 455.669266 169.280044 
L 456.07398 177.31004 
L 456.276337 178.211739 
L 456.681052 175.189829 
L 456.883409 170.449816 
L 457.288123 154.438565 
L 457.692838 147.943895 
L 457.895195 148.358189 
L 458.299909 151.770024 
L 458.502267 151.684728 
L 458.906981 149.418295 
L 459.109338 149.735108 
L 459.514053 152.196503 
L 459.71641 154.743193 
L 460.728196 188.946832 
L 461.13291 191.566633 
L 461.537625 189.604829 
L 461.739982 184.316485 
L 462.144696 163.86985 
L 463.561197 122.879099 
L 463.763554 118.57775 
L 463.965911 119.272302 
L 464.572983 130.811613 
L 465.382412 170.498557 
L 465.584769 174.592758 
L 465.787126 176.201194 
L 465.989483 174.763349 
L 467.608341 119.930299 
L 468.620127 107.379623 
L 468.822484 109.231762 
L 469.429556 124.779978 
L 470.036627 158.386545 
L 470.441342 168.926676 
L 470.643699 170.486372 
L 470.846056 168.963231 
L 471.857842 138.792868 
L 472.869628 120.868553 
L 473.071985 121.160996 
L 473.274343 120.100891 
L 473.4767 120.844183 
L 473.679057 123.086246 
L 473.881414 126.985485 
L 474.083772 127.667852 
L 474.286129 132.212902 
L 474.8932 163.090002 
L 475.297915 172.716249 
L 475.500272 173.703244 
L 475.702629 172.496917 
L 476.107344 158.057547 
L 476.512058 145.019466 
L 477.321487 126.364044 
L 477.726201 114.422624 
L 477.928558 112.314597 
L 478.333273 115.092805 
L 478.53563 117.736977 
L 479.142702 132.505345 
L 479.952131 172.655323 
L 480.356845 178.491997 
L 480.559202 178.248294 
L 480.963917 165.161473 
L 482.785131 89.101939 
L 482.987489 85.604809 
L 483.189846 84.045114 
L 483.392203 87.383837 
L 483.999275 110.998604 
L 484.606346 153.122572 
L 485.011061 166.879575 
L 485.213418 169.487192 
L 485.415775 170.047707 
L 485.82049 158.337805 
L 486.225204 139.852974 
L 487.23699 86.555249 
L 487.439347 84.72748 
L 487.844062 88.614534 
L 488.248776 99.64207 
L 489.260562 145.567796 
L 489.665277 164.613143 
L 490.069991 173.557022 
L 490.272348 174.946126 
L 490.677063 173.228024 
L 490.87942 167.464461 
L 491.891206 120.247112 
L 492.29592 109.755722 
L 492.498277 105.381263 
L 492.700635 104.187121 
L 492.902992 105.149746 
L 493.105349 108.001064 
L 493.712421 127.850628 
L 494.52185 170.486372 
L 495.128921 181.30676 
L 495.331278 181.392056 
L 495.533636 181.026502 
L 495.735993 176.554562 
L 496.950136 122.367323 
L 497.557208 107.940139 
L 497.759565 105.953964 
L 497.961922 107.854843 
L 498.568994 126.510265 
L 499.378422 170.218299 
L 499.58078 174.263759 
L 499.783137 175.738159 
L 499.985494 173.776355 
L 500.187851 168.731714 
L 500.794923 146.871604 
L 500.99728 143.849694 
L 501.401995 136.099956 
L 501.806709 129.434694 
L 502.009066 129.166622 
L 502.211423 130.385134 
L 502.413781 130.762873 
L 502.616138 129.775878 
L 503.020852 135.527256 
L 503.223209 135.856254 
L 503.425567 140.303823 
L 504.032638 170.31578 
L 504.437353 178.053333 
L 504.63971 179.015957 
L 504.842067 177.614668 
L 505.246782 163.187483 
L 505.651496 149.089297 
L 507.270354 105.783372 
L 507.472711 103.943418 
L 507.675068 105.953964 
L 508.28214 122.5501 
L 508.889211 156.89996 
L 509.293926 167.037982 
L 509.496283 169.121638 
L 509.69864 168.037162 
L 510.103354 154.097382 
L 511.722212 91.12467 
L 512.126927 80.608909 
L 512.329284 81.547164 
L 512.936355 101.896318 
L 513.34107 124.950569 
L 513.745784 150.685548 
L 514.150499 164.137923 
L 514.352856 167.440091 
L 514.555213 167.732534 
L 514.75757 162.468561 
L 516.174071 105.186301 
L 516.376428 104.540489 
L 516.781142 110.06035 
L 516.9835 108.439729 
L 517.185857 108.756542 
L 517.590571 119.235747 
L 517.792928 121.745882 
L 517.995286 128.082146 
L 518.4 151.562877 
L 518.4 151.562877 
" clip-path="url(#pdcea863af0)" style="fill: none; stroke: #1f77b4; stroke-width: 1.5; stroke-linecap: square"/>
   </g>
   <g id="line2d_17">
    <path d="M 72 143.691027 
L 73.011786 143.691027 
L 73.4165 140.297284 
L 73.618858 141.910894 
L 74.023572 155.397327 
L 74.225929 153.091149 
L 74.630644 146.870141 
L 74.833001 148.029576 
L 75.237715 154.314905 
L 75.844787 142.882147 
L 76.047144 143.709866 
L 76.249501 147.013425 
L 76.451859 148.06975 
L 76.654216 149.716768 
L 76.856573 147.513351 
L 77.05893 149.393838 
L 77.261287 149.358913 
L 78.273073 122.266904 
L 78.677788 113.122202 
L 78.880145 113.91756 
L 79.487217 129.824596 
L 80.296646 117.987563 
L 80.499003 121.013374 
L 81.106074 142.593146 
L 81.510789 160.628739 
L 81.713146 164.394065 
L 81.915503 162.559421 
L 82.11786 162.679509 
L 82.320218 160.899819 
L 82.522575 156.706073 
L 82.927289 143.93059 
L 83.129646 145.607936 
L 83.332004 145.461163 
L 83.534361 150.065906 
L 83.736718 150.838326 
L 84.34379 128.064086 
L 84.546147 126.265271 
L 84.748504 130.029348 
L 85.153218 140.799208 
L 85.557933 143.691027 
L 85.962647 151.027014 
L 86.165005 156.890784 
L 86.569719 179.222889 
L 86.772076 180.692473 
L 87.176791 181.380269 
L 87.379148 182.697472 
L 87.581505 178.958981 
L 88.188577 154.918617 
L 88.593291 143.691027 
L 88.795648 143.466547 
L 89.40272 133.875657 
L 90.009791 116.728186 
L 90.212149 117.770291 
L 91.223935 184.995062 
L 91.628649 195.96537 
L 92.033364 188.177398 
L 92.235721 187.355207 
L 92.438078 178.830671 
L 92.842792 175.700859 
L 93.04515 179.698455 
L 93.247507 181.298906 
L 93.449864 183.971066 
L 93.652221 184.564227 
L 94.056936 176.926881 
L 94.664007 144.830969 
L 94.866364 139.746135 
L 95.068722 138.435758 
L 95.271079 140.885409 
L 95.473436 150.924443 
L 95.675793 151.860391 
L 95.87815 150.035743 
L 96.080508 161.982236 
L 96.687579 168.454809 
L 96.889937 165.833081 
L 97.092294 167.838287 
L 97.497008 153.275205 
L 97.699365 158.75656 
L 98.306437 136.612293 
L 98.508794 138.212141 
L 98.711151 134.516222 
L 99.115866 121.597191 
L 99.318223 122.414252 
L 99.722937 134.246261 
L 99.925295 135.845975 
L 100.330009 136.381543 
L 100.532366 140.594001 
L 100.734723 142.318395 
L 101.139438 161.582031 
L 101.341795 161.326342 
L 101.544152 163.22522 
L 101.948867 147.952654 
L 102.353581 143.691027 
L 102.960653 143.591752 
L 103.16301 137.222267 
L 103.365367 136.75776 
L 103.567724 137.333633 
L 103.972439 125.287663 
L 104.174796 124.566716 
L 104.377153 127.923694 
L 104.57951 134.531134 
L 104.781868 134.859561 
L 104.984225 136.770982 
L 105.186582 135.142877 
L 105.388939 138.890372 
L 105.591296 145.109859 
L 105.793654 161.57327 
L 105.996011 163.857241 
L 106.198368 161.904145 
L 106.400725 161.976062 
L 106.603083 160.070312 
L 106.80544 159.776443 
L 107.007797 151.695875 
L 107.210154 149.508804 
L 107.412511 150.491079 
L 107.614869 144.474975 
L 107.817226 143.691027 
L 108.019583 137.779926 
L 108.22194 137.475522 
L 108.424297 133.068613 
L 108.829012 120.590173 
L 109.031369 120.845343 
L 109.233726 123.794276 
L 109.436083 129.354549 
L 109.638441 128.37422 
L 109.840798 128.478429 
L 110.043155 128.751293 
L 110.245512 134.310309 
L 110.650227 165.54216 
L 110.852584 164.783946 
L 111.054941 161.377126 
L 111.257298 163.039345 
L 111.459655 162.469114 
L 111.662013 166.351334 
L 112.269084 146.690969 
L 113.28087 131.520499 
L 113.685585 119.736813 
L 113.887942 120.125562 
L 114.090299 121.793783 
L 114.292656 121.182531 
L 114.495014 119.869373 
L 114.697371 122.640283 
L 114.899728 128.651593 
L 115.304442 154.867269 
L 115.5068 162.862316 
L 115.709157 165.0561 
L 115.911514 163.144054 
L 116.113871 163.728619 
L 116.316228 161.850924 
L 116.720943 151.808248 
L 116.9233 150.323205 
L 117.328015 139.098562 
L 117.530372 142.77305 
L 117.935086 137.341187 
L 118.339801 122.090311 
L 118.542158 119.577312 
L 118.744515 120.697229 
L 118.946872 119.8898 
L 119.149229 118.076332 
L 119.351587 117.57653 
L 119.553944 121.375031 
L 119.958658 136.303826 
L 120.363373 157.998696 
L 120.56573 165.067039 
L 120.768087 166.810469 
L 120.970444 166.303773 
L 121.375159 162.478081 
L 121.577516 154.288989 
L 121.98223 145.753761 
L 122.184587 140.728162 
L 122.386945 139.6409 
L 122.589302 135.529257 
L 123.196374 113.707236 
L 123.398731 112.691497 
L 123.601088 115.639945 
L 124.612874 139.005801 
L 125.219946 151.346253 
L 125.422303 151.457572 
L 125.62466 151.210415 
L 126.029374 161.629005 
L 126.231732 171.031556 
L 126.434089 170.087151 
L 126.636446 165.971923 
L 127.243518 144.284636 
L 127.445875 141.708846 
L 127.850589 131.510361 
L 128.255304 121.910197 
L 128.457661 119.751513 
L 128.862375 125.783474 
L 129.064733 127.092651 
L 129.26709 125.774939 
L 129.469447 130.541512 
L 130.278876 161.023924 
L 130.481233 159.014967 
L 131.088305 179.737545 
L 131.290662 178.276156 
L 131.897733 155.280131 
L 132.302448 137.377556 
L 132.909519 120.884311 
L 133.111877 118.894737 
L 133.314234 118.022126 
L 133.516591 122.39755 
L 133.718948 121.578752 
L 133.921306 119.730616 
L 134.123663 122.888324 
L 134.32602 132.229791 
L 134.730734 162.558018 
L 134.933092 167.996625 
L 135.135449 168.778823 
L 136.147235 152.94433 
L 136.349592 150.107201 
L 136.551949 145.126317 
L 136.956664 140.87564 
L 137.159021 133.167506 
L 137.361378 120.139905 
L 137.766092 112.909324 
L 138.575521 131.100886 
L 138.980236 137.423509 
L 139.182593 140.838019 
L 139.587307 156.822467 
L 139.789665 156.970544 
L 140.194379 154.579175 
L 140.396736 159.511202 
L 140.599093 168.076781 
L 140.801451 170.336554 
L 141.206165 159.389887 
L 141.610879 143.694653 
L 141.813237 143.691027 
L 142.015594 142.92798 
L 142.217951 138.799493 
L 142.825023 119.234423 
L 143.02738 120.041418 
L 143.229737 122.330472 
L 143.432094 129.831175 
L 143.634451 132.15646 
L 144.039166 140.025342 
L 144.646238 182.013596 
L 144.848595 185.066042 
L 145.050952 185.653413 
L 145.253309 187.36975 
L 145.455666 185.175653 
L 145.658024 181.459707 
L 146.062738 163.626592 
L 146.265095 163.839609 
L 146.467452 167.676476 
L 146.872167 156.068466 
L 147.074524 156.362831 
L 147.479238 144.887751 
L 147.883953 115.054135 
L 148.08631 117.048469 
L 148.288667 115.913515 
L 148.491024 119.174097 
L 148.895739 158.901631 
L 149.098096 163.06374 
L 149.300453 173.738886 
L 149.502811 191.857268 
L 149.705168 181.950492 
L 149.907525 179.151276 
L 150.109882 177.992875 
L 150.312239 172.840549 
L 150.514597 173.102296 
L 150.919311 146.696873 
L 151.121668 146.250379 
L 151.324025 143.691027 
L 151.526383 142.644989 
L 151.72874 138.555281 
L 152.133454 135.657537 
L 152.335811 134.319153 
L 152.942883 125.800121 
L 153.347597 137.897742 
L 153.954669 158.235146 
L 154.359383 182.461812 
L 154.764098 171.833227 
L 155.168812 162.750091 
L 155.37117 162.583707 
L 155.775884 145.048969 
L 155.978241 147.953975 
L 156.585313 140.498717 
L 156.78767 139.841137 
L 156.990027 138.646273 
L 157.597099 128.845154 
L 157.799456 136.355098 
L 158.001813 135.710293 
L 158.20417 133.691397 
L 158.406528 135.688207 
L 158.811242 144.410225 
L 159.013599 146.775122 
L 159.823028 174.944989 
L 160.025385 170.951456 
L 160.4301 154.58774 
L 160.632457 154.221877 
L 161.037171 142.969 
L 161.239529 125.708376 
L 161.441886 121.239213 
L 161.644243 125.254997 
L 161.8466 124.411969 
L 162.048957 119.918006 
L 162.453672 108.103132 
L 162.656029 109.63465 
L 163.465458 133.706565 
L 163.667815 136.983248 
L 164.072529 155.560321 
L 164.477244 161.881843 
L 164.881958 160.907011 
L 165.286673 144.98222 
L 165.691387 148.551567 
L 165.893744 146.709432 
L 166.096102 149.535503 
L 166.298459 147.197584 
L 166.703173 127.75669 
L 166.90553 125.611142 
L 167.107888 125.107199 
L 167.512602 133.288936 
L 167.714959 134.285179 
L 168.524388 142.116424 
L 169.13146 167.210379 
L 169.333817 164.452822 
L 169.536174 166.803644 
L 169.738531 167.293703 
L 169.940888 170.068418 
L 170.143246 164.806291 
L 170.54796 145.521491 
L 170.750317 143.691027 
L 171.559746 126.426242 
L 171.964461 119.379285 
L 172.166818 116.916713 
L 172.369175 116.128966 
L 172.571532 116.588397 
L 172.773889 115.79503 
L 172.976247 117.393968 
L 173.178604 128.435301 
L 173.583318 160.042456 
L 173.785675 171.627985 
L 173.988033 168.00077 
L 174.19039 162.211335 
L 174.595104 166.560627 
L 174.999819 163.788958 
L 175.404533 153.905372 
L 175.809248 138.739122 
L 176.213962 127.144557 
L 176.821034 115.182695 
L 177.023391 120.196878 
L 177.225748 128.038739 
L 177.428105 130.840655 
L 177.630462 131.555406 
L 178.035177 136.259447 
L 178.237534 143.561988 
L 178.439891 144.093271 
L 178.642248 158.653272 
L 178.844606 164.284481 
L 179.24932 160.820399 
L 179.451677 160.07415 
L 179.654034 162.752207 
L 180.261106 143.691027 
L 180.463463 143.691027 
L 180.66582 145.230317 
L 181.070535 131.157068 
L 181.677607 118.72284 
L 181.879964 119.115856 
L 182.284678 128.187353 
L 182.487035 126.743381 
L 183.094107 135.948688 
L 183.498821 167.638591 
L 183.701179 168.688357 
L 183.903536 168.455384 
L 184.510607 180.524344 
L 184.915322 168.243437 
L 185.320036 154.863971 
L 186.331822 114.923408 
L 186.53418 111.942621 
L 186.736537 112.41845 
L 187.545966 125.840715 
L 187.748323 131.120846 
L 188.355394 157.591169 
L 188.557752 158.940697 
L 188.962466 162.821782 
L 189.164823 161.643921 
L 189.36718 163.742296 
L 189.771895 152.310004 
L 189.974252 145.846824 
L 190.378966 141.499607 
L 190.783681 130.222255 
L 191.188395 125.229239 
L 191.390752 117.39999 
L 191.59311 117.604429 
L 192.402539 136.498664 
L 192.604896 142.6035 
L 192.807253 143.691027 
L 193.00961 143.691027 
L 193.211967 146.393637 
L 193.616682 155.975444 
L 194.021396 172.389257 
L 194.223753 175.695389 
L 195.033182 143.691027 
L 195.235539 143.352013 
L 195.640254 135.398397 
L 195.842611 134.70449 
L 196.247325 124.050754 
L 196.449683 115.623464 
L 196.65204 111.827921 
L 197.056754 122.142778 
L 197.866183 156.128055 
L 198.270898 181.75722 
L 198.473255 183.351519 
L 198.675612 181.969313 
L 198.877969 179.318624 
L 199.282684 169.96618 
L 199.687398 158.472292 
L 199.889755 155.534153 
L 200.29447 141.098346 
L 200.901541 131.603304 
L 201.508613 118.767659 
L 201.71097 120.163852 
L 202.115684 136.893507 
L 202.318042 155.394217 
L 202.520399 156.781548 
L 202.722756 155.834287 
L 203.127471 172.034707 
L 203.734542 182.420268 
L 203.936899 181.860217 
L 204.543971 160.685695 
L 205.151043 125.378508 
L 205.3534 122.272465 
L 205.555757 122.552117 
L 206.162829 111.805013 
L 206.365186 111.861314 
L 206.567543 115.443299 
L 207.579329 152.932192 
L 207.781686 157.808495 
L 207.984044 158.731874 
L 208.186401 158.055755 
L 208.388758 159.103042 
L 208.591115 156.718276 
L 209.198187 143.691027 
L 209.400544 143.691027 
L 209.602901 136.558052 
L 209.805258 134.13613 
L 210.007616 127.19776 
L 210.614687 119.07162 
L 210.817044 120.770356 
L 211.221759 127.531992 
L 211.424116 127.518273 
L 211.626473 127.337901 
L 212.031188 131.893414 
L 212.233545 138.393677 
L 212.638259 161.13935 
L 212.840617 161.852032 
L 213.042974 159.137783 
L 213.245331 160.345943 
L 213.650045 168.346123 
L 213.852403 165.009405 
L 214.459474 143.232151 
L 214.661831 142.464616 
L 215.268903 120.944189 
L 215.47126 116.73361 
L 215.673617 116.289783 
L 216.078332 120.395171 
L 216.483046 117.009228 
L 216.685403 119.088846 
L 216.887761 125.836326 
L 217.292475 154.94383 
L 217.494832 165.531552 
L 217.697189 169.817995 
L 218.101904 160.948066 
L 218.304261 163.080176 
L 218.506618 160.562816 
L 218.708976 153.074946 
L 219.11369 148.301187 
L 219.923119 119.942356 
L 220.125476 120.15387 
L 220.327833 117.598474 
L 220.53019 119.392843 
L 220.732548 122.479475 
L 220.934905 128.010394 
L 221.137262 128.921061 
L 221.339619 130.652427 
L 222.351405 149.937246 
L 222.553762 150.228472 
L 223.160834 166.493702 
L 223.363191 174.9679 
L 223.565549 170.010233 
L 224.17262 143.691027 
L 224.374977 143.691027 
L 224.779692 134.751907 
L 224.982049 133.666628 
L 225.791478 124.619339 
L 225.993835 124.244419 
L 226.398549 132.993278 
L 227.005621 172.518947 
L 227.410335 196.737405 
L 227.612693 198.043015 
L 228.219764 189.430613 
L 229.029193 162.074678 
L 229.23155 161.272286 
L 229.433908 155.136871 
L 229.636265 154.297399 
L 229.838622 154.248083 
L 230.040979 155.665559 
L 230.243336 152.827339 
L 230.648051 142.002058 
L 230.850408 142.248761 
L 231.052765 144.91229 
L 231.659837 175.046087 
L 231.862194 172.650597 
L 232.064551 186.938067 
L 232.266908 190.390349 
L 232.469266 184.639904 
L 232.671623 183.601466 
L 233.076337 191.040029 
L 233.278694 191.353991 
L 233.481052 187.88546 
L 233.683409 181.2745 
L 234.492838 134.270666 
L 234.897552 119.742456 
L 235.302267 117.01281 
L 235.504624 116.007094 
L 235.706981 120.415276 
L 236.111695 121.802353 
L 236.314053 126.880093 
L 236.921124 161.110375 
L 237.123481 169.651112 
L 237.528196 167.464481 
L 237.730553 164.152031 
L 237.93291 162.852703 
L 238.742339 141.845771 
L 238.944696 141.931369 
L 239.147053 142.242756 
L 239.551768 123.163769 
L 239.754125 117.118393 
L 239.956482 117.006237 
L 241.57534 144.740399 
L 241.777697 159.370368 
L 241.980054 164.489994 
L 242.182412 163.431371 
L 242.384769 164.5869 
L 242.587126 164.478137 
L 242.789483 165.969066 
L 242.99184 161.662929 
L 243.396555 146.591414 
L 243.598912 143.691027 
L 243.801269 143.606271 
L 244.813055 120.414862 
L 245.015413 119.110913 
L 245.21777 121.043977 
L 245.622484 129.335742 
L 245.824841 132.000681 
L 246.431913 147.391684 
L 246.63427 165.051334 
L 246.836627 171.245659 
L 247.038985 168.658735 
L 247.241342 170.522436 
L 247.443699 169.199614 
L 247.646056 170.227666 
L 248.050771 157.301442 
L 249.871985 112.139466 
L 250.074343 113.698307 
L 250.2767 117.159605 
L 250.479057 117.086099 
L 250.681414 119.718516 
L 250.883772 126.287135 
L 251.490843 161.862157 
L 251.6932 169.523162 
L 251.895558 170.071092 
L 252.097915 168.870401 
L 252.300272 169.725453 
L 252.502629 166.302532 
L 252.907344 147.791388 
L 253.312058 142.1592 
L 253.91913 125.428622 
L 254.121487 124.69832 
L 254.526201 115.318018 
L 254.930916 119.522227 
L 255.133273 118.338136 
L 255.33563 120.553155 
L 255.537987 125.94382 
L 255.942702 141.21365 
L 256.347416 155.193042 
L 256.549773 156.774779 
L 256.752131 157.164721 
L 256.954488 157.969493 
L 257.156845 157.612973 
L 257.359202 156.35275 
L 257.763917 151.128049 
L 258.97806 129.47228 
L 259.382774 120.718982 
L 259.585131 120.966656 
L 260.192203 131.848541 
L 260.596917 141.965935 
L 261.001632 145.926924 
L 261.406346 154.445516 
L 262.013418 171.68093 
L 262.215775 173.594285 
L 262.62049 159.239343 
L 263.025204 143.691027 
L 263.227561 143.691027 
L 263.429918 140.360164 
L 263.834633 130.905536 
L 264.644062 112.086159 
L 265.048776 119.091363 
L 265.45349 134.316932 
L 266.262919 188.556751 
L 266.465277 190.317796 
L 266.667634 189.73115 
L 266.869991 186.944922 
L 267.274705 176.11147 
L 267.477063 169.015716 
L 267.881777 164.008131 
L 268.488849 141.938991 
L 268.691206 141.867842 
L 268.893563 139.695455 
L 269.298277 125.644489 
L 269.500635 118.806497 
L 269.702992 117.888675 
L 270.107706 137.443785 
L 270.512421 160.622626 
L 270.714778 167.223045 
L 271.119492 190.321412 
L 271.32185 185.155225 
L 271.524207 184.071902 
L 272.131278 173.384952 
L 272.333636 167.821139 
L 272.535993 167.381014 
L 272.73835 173.667643 
L 272.940707 175.112663 
L 273.143064 170.406444 
L 273.345422 161.6452 
L 273.547779 159.594687 
L 273.750136 159.296273 
L 274.357208 145.002806 
L 274.559565 145.816369 
L 274.964279 140.625133 
L 275.166636 143.072733 
L 276.178422 169.729732 
L 276.38078 171.432838 
L 276.785494 152.864205 
L 277.190209 134.681453 
L 277.392566 132.857644 
L 277.79728 115.352218 
L 277.999637 114.603981 
L 278.404352 126.029361 
L 278.606709 125.240732 
L 279.011423 114.789738 
L 279.213781 115.404942 
L 279.416138 115.403252 
L 279.618495 118.766576 
L 280.225567 138.347953 
L 280.832638 163.548975 
L 281.43971 159.938981 
L 281.642067 155.329336 
L 281.844424 145.322774 
L 282.046782 140.927827 
L 282.249139 140.915626 
L 282.451496 142.589595 
L 282.653853 146.246285 
L 282.85621 152.336037 
L 283.463282 125.405889 
L 283.665639 123.468004 
L 284.475068 137.129332 
L 284.677425 138.285732 
L 285.08214 143.691027 
L 285.284497 147.434251 
L 285.689211 159.647196 
L 285.891568 160.524089 
L 286.296283 166.247398 
L 286.49864 166.557422 
L 286.903354 157.021302 
L 287.105712 146.520214 
L 287.308069 145.410138 
L 287.510426 145.3754 
L 287.712783 141.917654 
L 288.117498 131.084309 
L 288.319855 132.019576 
L 288.724569 125.880634 
L 288.926927 125.192868 
L 289.331641 129.529887 
L 289.736355 142.952747 
L 289.938713 146.019074 
L 290.14107 154.753538 
L 290.343427 172.11403 
L 290.545784 176.155135 
L 290.748141 176.059962 
L 291.355213 180.119363 
L 291.55757 177.80739 
L 291.962285 168.404613 
L 292.569356 141.213032 
L 293.176428 121.723434 
L 293.378785 115.092013 
L 293.581142 113.516542 
L 293.7835 114.574822 
L 293.985857 118.804646 
L 294.390571 122.650841 
L 294.592928 126.711753 
L 294.997643 145.680761 
L 295.604714 169.436155 
L 296.009429 173.309612 
L 296.211786 173.443059 
L 296.414143 169.727909 
L 296.818858 158.108937 
L 297.021215 147.29019 
L 297.223572 142.788046 
L 297.628286 130.222468 
L 297.830644 127.710516 
L 298.437715 112.327549 
L 298.640073 111.916242 
L 299.044787 116.98531 
L 300.056573 155.594094 
L 300.461287 167.931822 
L 300.663645 167.564485 
L 300.866002 165.969436 
L 301.270716 150.805614 
L 301.675431 138.149961 
L 301.877788 134.761424 
L 302.080145 135.297076 
L 302.687217 130.504289 
L 303.294288 115.940319 
L 303.496646 116.254349 
L 303.699003 117.010373 
L 303.90136 121.804045 
L 304.508432 145.74073 
L 304.913146 153.550009 
L 305.31786 153.757987 
L 305.520218 155.41898 
L 305.722575 158.264851 
L 306.127289 154.289785 
L 306.329646 153.670329 
L 306.532004 150.932065 
L 307.341432 132.6512 
L 307.54379 130.7738 
L 307.746147 127.594243 
L 307.948504 127.079784 
L 308.353218 131.51283 
L 308.96029 143.691027 
L 309.365005 143.691027 
L 309.567362 149.692542 
L 309.972076 167.769683 
L 310.174433 170.612008 
L 310.376791 176.126779 
L 310.579148 176.625507 
L 310.983862 165.455701 
L 311.388577 147.319224 
L 311.793291 142.714767 
L 312.198005 133.518068 
L 312.400363 132.640853 
L 312.60272 134.695663 
L 312.805077 131.550196 
L 313.209791 117.700895 
L 313.412149 114.343082 
L 313.614506 117.902936 
L 313.816863 129.793943 
L 314.01922 149.4059 
L 314.423935 167.7267 
L 314.626292 178.584791 
L 314.828649 176.513886 
L 315.031006 176.764437 
L 315.435721 182.462334 
L 315.638078 179.924025 
L 316.447507 154.027172 
L 316.852221 131.523004 
L 317.256936 124.072618 
L 317.66165 119.218918 
L 317.864007 116.312926 
L 318.066364 116.885018 
L 318.471079 127.802459 
L 318.875793 141.927947 
L 319.07815 146.487962 
L 319.482865 170.865561 
L 319.887579 178.24703 
L 320.292294 174.939037 
L 320.494651 171.13109 
L 321.101723 146.285484 
L 321.30408 143.691027 
L 321.506437 143.691027 
L 322.113509 134.796007 
L 322.315866 133.364253 
L 322.922937 123.900891 
L 323.125295 122.926229 
L 323.327652 126.960516 
L 323.934723 154.931584 
L 324.137081 161.702874 
L 324.339438 174.818311 
L 324.541795 179.132955 
L 324.744152 178.175917 
L 324.94651 179.069369 
L 325.351224 184.200212 
L 325.553581 184.096523 
L 326.160653 174.679796 
L 326.565367 159.423877 
L 326.970082 136.248843 
L 327.172439 130.778304 
L 327.374796 130.333952 
L 327.77951 120.271794 
L 327.981868 120.437999 
L 328.184225 116.63851 
L 328.386582 118.590813 
L 329.398368 167.756366 
L 329.600725 166.291722 
L 329.803083 172.296735 
L 330.00544 173.558796 
L 330.207797 171.231444 
L 331.017226 139.545667 
L 331.219583 136.292358 
L 331.624297 126.415151 
L 332.231369 115.552008 
L 332.433726 115.030204 
L 332.838441 121.36318 
L 333.040798 125.636346 
L 333.445512 140.10676 
L 333.850227 146.580683 
L 334.254941 151.902695 
L 334.457298 152.434741 
L 334.659655 162.681685 
L 334.862013 163.53412 
L 335.06437 163.808011 
L 335.671442 149.446124 
L 336.076156 144.065907 
L 336.48087 132.738427 
L 336.683228 131.183362 
L 337.087942 126.310014 
L 337.290299 127.47684 
L 337.492656 127.108173 
L 337.695014 131.667025 
L 337.897371 139.681857 
L 338.099728 143.118755 
L 338.302085 143.691027 
L 338.504442 145.116148 
L 339.313871 178.250435 
L 339.516228 178.814326 
L 339.920943 171.084703 
L 340.325657 155.003501 
L 340.730372 146.277145 
L 341.944515 126.016974 
L 342.146872 119.236538 
L 342.349229 117.07718 
L 342.551587 121.582078 
L 343.158658 149.234269 
L 343.361015 151.562017 
L 343.563373 158.362104 
L 343.76573 176.075945 
L 343.968087 176.208719 
L 344.170444 171.228866 
L 344.777516 182.791971 
L 345.18223 179.405217 
L 345.384587 175.829407 
L 345.991659 135.13353 
L 346.194016 126.319786 
L 346.396374 127.817768 
L 346.598731 124.838243 
L 347.003445 110.464851 
L 347.205802 110.035859 
L 347.40816 111.268124 
L 347.610517 114.087427 
L 348.015231 131.341284 
L 348.419946 152.296852 
L 348.82466 171.661073 
L 349.027017 171.571347 
L 349.431732 162.045329 
L 349.836446 144.344791 
L 350.24116 138.56304 
L 350.645875 134.239249 
L 350.848232 134.542292 
L 351.657661 119.492407 
L 351.860018 121.451997 
L 352.062375 121.800129 
L 352.264733 123.343491 
L 352.46709 126.537594 
L 352.871804 136.739262 
L 353.276519 144.002335 
L 353.681233 154.101665 
L 354.085947 159.761293 
L 354.288305 160.969041 
L 354.693019 149.805578 
L 354.895376 149.180846 
L 355.502448 142.238035 
L 356.109519 130.437921 
L 356.514234 123.233817 
L 356.716591 122.313313 
L 356.918948 123.181369 
L 357.121306 124.543525 
L 357.323663 127.695864 
L 357.728377 138.087183 
L 357.930734 140.616918 
L 359.144878 172.027456 
L 359.347235 170.993784 
L 360.156664 143.691027 
L 360.359021 142.703525 
L 361.573164 116.399456 
L 361.775521 116.870096 
L 362.382593 130.045527 
L 362.58495 136.357339 
L 362.787307 139.050495 
L 363.192022 152.60138 
L 363.799093 172.29819 
L 364.001451 174.146479 
L 364.203808 172.463247 
L 364.406165 167.135057 
L 365.013237 143.796099 
L 365.215594 142.822786 
L 366.22738 113.752205 
L 366.429737 110.273718 
L 366.632094 110.764999 
L 366.834451 113.738633 
L 367.239166 127.215765 
L 367.64388 142.550977 
L 368.048595 153.312074 
L 368.250952 160.059389 
L 368.453309 162.916253 
L 368.858024 165.259639 
L 369.262738 154.40662 
L 369.465095 145.457987 
L 370.072167 140.256548 
L 371.083953 116.181817 
L 371.28631 116.580632 
L 371.691024 121.849153 
L 371.893382 126.792527 
L 372.298096 141.338102 
L 372.500453 143.691027 
L 372.702811 143.691027 
L 373.107525 147.953128 
L 373.309882 150.936068 
L 373.512239 157.64342 
L 373.714597 159.95199 
L 373.916954 157.315645 
L 374.119311 151.466737 
L 374.321668 151.173518 
L 374.524025 148.986777 
L 375.131097 137.086085 
L 375.333454 132.920694 
L 375.535811 131.693901 
L 376.142883 123.449732 
L 376.34524 123.418682 
L 376.547597 127.658214 
L 376.952312 143.468415 
L 377.154669 143.691027 
L 377.357026 144.458417 
L 377.559383 147.349244 
L 377.964098 170.20258 
L 378.368812 175.324456 
L 378.57117 176.581691 
L 378.975884 168.82481 
L 379.582956 144.478193 
L 379.785313 143.691027 
L 380.392384 131.874434 
L 380.594742 130.087829 
L 381.201813 116.797952 
L 381.40417 117.290514 
L 381.606528 119.899505 
L 381.808885 128.738351 
L 382.213599 153.410124 
L 382.415956 153.177636 
L 382.820671 172.982845 
L 383.023028 174.983886 
L 383.225385 178.41671 
L 383.427743 179.668659 
L 383.6301 178.35978 
L 384.237171 160.424135 
L 384.237171 160.424135 
" clip-path="url(#pdcea863af0)" style="fill: none; stroke: #ff7f0e; stroke-width: 1.5; stroke-linecap: square"/>
   </g>
   <g id="line2d_18">
    <path d="M 384.439529 151.83549 
L 384.844243 134.643768 
L 385.0466 132.024111 
L 385.248957 126.224184 
L 385.451315 124.245274 
L 385.856029 113.599435 
L 386.058386 115.376064 
L 386.463101 128.039124 
L 386.867815 140.410249 
L 387.677244 170.192455 
L 387.879601 170.24501 
L 388.081958 170.8853 
L 388.284316 170.078425 
L 388.486673 170.623723 
L 389.296102 144.1163 
L 389.498459 143.691027 
L 389.700816 142.717859 
L 389.903173 135.700885 
L 390.914959 123.246679 
L 391.117316 122.554094 
L 391.319674 123.655347 
L 391.522031 127.710525 
L 391.926745 157.277442 
L 392.533817 189.08479 
L 392.736174 191.96796 
L 392.938531 179.85511 
L 393.140888 174.641339 
L 393.343246 173.827461 
L 393.545603 174.404926 
L 393.950317 184.728714 
L 394.355032 177.009857 
L 394.557389 171.081257 
L 394.962103 147.845794 
L 395.164461 142.826248 
L 395.569175 145.363181 
L 395.771532 148.169369 
L 395.973889 143.831472 
L 396.176247 148.692245 
L 396.378604 148.238009 
L 396.783318 167.253477 
L 396.985675 166.422236 
L 397.188033 162.266576 
L 397.39039 165.173073 
L 397.592747 177.68083 
L 397.795104 174.267843 
L 397.997461 180.332737 
L 398.199819 178.433059 
L 398.402176 181.704191 
L 398.604533 174.93846 
L 398.80689 153.05601 
L 399.009248 157.075737 
L 399.211605 141.112879 
L 399.413962 145.989267 
L 399.616319 143.571472 
L 399.818676 132.182835 
L 400.021034 131.67388 
L 400.425748 119.341745 
L 400.628105 118.198043 
L 400.830462 110.923272 
L 401.235177 135.656975 
L 401.437534 142.472195 
L 401.639891 160.946517 
L 401.842248 156.059825 
L 402.044606 163.382023 
L 402.246963 146.429563 
L 402.44932 158.330159 
L 402.651677 162.278357 
L 402.854034 161.812611 
L 403.056392 187.543945 
L 403.258749 170.976706 
L 403.461106 196.306888 
L 403.663463 166.24245 
L 404.068178 147.49731 
L 404.270535 143.812191 
L 404.472892 137.628589 
L 404.675249 122.312715 
L 404.877607 120.402557 
L 405.079964 113.621093 
L 405.484678 122.940995 
L 405.687035 122.384277 
L 405.889393 122.307108 
L 406.09175 137.849372 
L 406.294107 129.837106 
L 406.496464 131.331116 
L 406.698821 141.524626 
L 406.901179 158.126999 
L 407.103536 160.823651 
L 407.305893 159.754785 
L 407.50825 160.56768 
L 407.710607 151.176737 
L 407.912965 151.16757 
L 408.115322 142.582043 
L 408.317679 149.885671 
L 408.520036 170.676343 
L 409.329465 124.450736 
L 409.531822 123.319765 
L 409.73418 122.834014 
L 409.936537 121.924364 
L 410.341251 126.973435 
L 410.745966 121.40995 
L 410.948323 125.89561 
L 411.15068 137.012326 
L 411.353037 137.108548 
L 411.555394 155.719634 
L 411.757752 144.65686 
L 411.960109 147.541328 
L 412.162466 152.803843 
L 412.364823 150.502319 
L 412.56718 162.581968 
L 412.769538 156.69915 
L 412.971895 162.751048 
L 413.174252 153.91129 
L 413.376609 156.208368 
L 413.578966 149.557436 
L 413.781324 132.232181 
L 413.983681 142.764569 
L 414.186038 143.56085 
L 414.590752 134.457497 
L 414.79311 118.766271 
L 414.995467 113.634868 
L 415.197824 116.472316 
L 415.400181 115.633982 
L 415.602539 150.574641 
L 415.804896 153.229378 
L 416.007253 143.030282 
L 416.20961 149.318722 
L 416.411967 139.346046 
L 416.614325 142.987336 
L 416.816682 137.918204 
L 417.019039 156.688319 
L 417.221396 152.493183 
L 417.423753 155.161743 
L 417.626111 154.395291 
L 417.828468 151.892311 
L 418.030825 175.169419 
L 418.233182 143.691027 
L 418.435539 140.547875 
L 418.637897 174.177566 
L 418.840254 159.394825 
L 419.244968 112.058447 
L 419.447325 116.141306 
L 419.85204 139.307161 
L 420.054397 141.841749 
L 420.256754 125.234815 
L 420.459112 132.99033 
L 420.661469 127.120957 
L 420.863826 95.654409 
L 421.066183 147.593884 
L 421.26854 150.963202 
L 421.470898 157.413953 
L 421.673255 186.023961 
L 421.875612 149.573456 
L 422.077969 174.448211 
L 422.280326 146.22335 
L 422.482684 154.671469 
L 422.685041 157.657738 
L 422.887398 186.758268 
L 423.089755 176.589319 
L 423.292112 148.400798 
L 423.49447 170.883734 
L 423.696827 134.413586 
L 423.899184 128.788719 
L 424.101541 149.585681 
L 424.506256 136.856415 
L 424.708613 123.794063 
L 424.91097 101.700146 
L 425.113327 144.003237 
L 425.315684 134.780741 
L 425.922756 160.961775 
L 426.125113 149.221728 
L 426.327471 122.108785 
L 426.529828 136.218765 
L 426.732185 141.315362 
L 426.934542 153.093533 
L 427.136899 205.147303 
L 427.743971 143.691027 
L 427.946328 144.007809 
L 428.148685 157.07999 
L 428.351043 151.216503 
L 428.5534 173.835865 
L 428.755757 159.692103 
L 428.958114 126.352774 
L 429.160471 128.770384 
L 429.362829 116.749581 
L 429.767543 125.920288 
L 430.172257 183.733389 
L 430.374615 103.459022 
L 430.576972 146.06371 
L 430.779329 134.904033 
L 430.981686 148.345054 
L 431.184044 184.95921 
L 431.386401 158.357199 
L 431.588758 160.617045 
L 431.993472 153.936165 
L 432.19583 165.888297 
L 432.398187 163.882343 
L 432.600544 172.617689 
L 432.802901 168.974916 
L 433.005258 176.841228 
L 433.207616 168.919146 
L 433.409973 127.195272 
L 433.61233 153.091628 
L 433.814687 136.593661 
L 434.017044 142.74887 
L 434.421759 167.34128 
L 434.624116 146.588242 
L 434.826473 112.818571 
L 435.02883 116.862877 
L 435.231188 123.734836 
L 435.433545 144.958804 
L 435.635902 184.702945 
L 435.838259 147.613961 
L 436.040617 170.700994 
L 436.242974 133.389181 
L 436.647688 140.237968 
L 437.052403 171.852907 
L 437.25476 205.653782 
L 437.659474 130.87328 
L 437.861831 166.055414 
L 438.266546 133.603786 
L 438.67126 191.101678 
L 438.873617 94.202718 
L 439.480689 137.995697 
L 439.683046 143.691027 
L 439.885403 139.661278 
L 440.087761 169.454271 
L 440.290118 127.558127 
L 440.694832 101.772296 
L 440.897189 159.885245 
L 441.099547 143.785275 
L 441.301904 152.618785 
L 441.504261 176.316635 
L 441.706618 163.172707 
L 441.908976 173.824957 
L 442.111333 140.791629 
L 442.31369 144.586577 
L 442.516047 152.022473 
L 442.718404 171.694449 
L 442.920762 175.977763 
L 443.123119 202.292427 
L 443.527833 133.240237 
L 443.73019 123.111468 
L 444.134905 166.990439 
L 444.337262 140.530421 
L 444.539619 235.475349 
L 444.741976 94.744267 
L 444.944334 140.133278 
L 445.146691 142.790735 
L 445.349048 124.497575 
L 445.753762 185.293033 
L 445.95612 163.700802 
L 446.158477 114.565001 
L 446.360834 144.256964 
L 446.563191 141.036411 
L 446.765549 150.955261 
L 446.967906 202.289629 
L 447.170263 203.733225 
L 447.37262 148.091454 
L 447.574977 137.827806 
L 447.777335 118.947858 
L 447.979692 163.725731 
L 448.182049 143.691027 
L 448.384406 143.693042 
L 448.586763 193.106755 
L 448.991478 142.261346 
L 449.193835 130.382095 
L 449.396192 128.797202 
L 449.598549 130.069993 
L 449.800907 109.6024 
L 450.003264 196.892276 
L 450.205621 131.499749 
L 450.407978 154.624536 
L 450.610335 130.00712 
L 450.812693 149.082324 
L 451.01505 151.117853 
L 451.217407 145.563452 
L 451.419764 152.643453 
L 451.622121 208.86429 
L 452.026836 140.641436 
L 452.229193 167.494724 
L 452.43155 140.565936 
L 452.633908 160.702327 
L 452.836265 132.394419 
L 453.038622 255.244492 
L 453.240979 141.949123 
L 453.443336 103.013156 
L 453.645694 155.565624 
L 453.848051 113.373002 
L 454.050408 169.866884 
L 454.252765 151.010138 
L 454.455122 201.125675 
L 454.65748 134.032479 
L 454.859837 108.480209 
L 455.062194 132.33798 
L 455.264551 126.859573 
L 455.466908 182.903943 
L 455.669266 160.463006 
L 455.871623 186.594066 
L 456.276337 131.361097 
L 456.681052 162.198673 
L 456.883409 115.169826 
L 457.085766 199.921103 
L 457.288123 147.859078 
L 457.490481 167.714596 
L 457.692838 174.440614 
L 457.895195 128.934677 
L 458.097552 230.476821 
L 458.299909 125.105144 
L 458.502267 163.719224 
L 458.704624 142.695489 
L 458.906981 143.478194 
L 459.109338 135.846368 
L 459.311695 103.645939 
L 459.514053 177.17239 
L 459.71641 132.636346 
L 459.918767 131.386838 
L 460.121124 209.183752 
L 460.323481 187.321551 
L 460.525839 126.716021 
L 460.728196 126.135323 
L 460.930553 123.465583 
L 461.13291 117.382135 
L 461.335267 158.668335 
L 461.537625 226.943724 
L 461.739982 201.732716 
L 461.942339 132.195636 
L 462.144696 127.248855 
L 462.347053 116.889271 
L 462.549411 174.984349 
L 462.751768 133.583729 
L 462.954125 223.776304 
L 463.156482 210.407293 
L 463.35884 108.944156 
L 463.561197 132.278696 
L 463.763554 118.798669 
L 463.965911 135.858303 
L 464.168268 114.365675 
L 464.370626 176.64418 
L 464.572983 202.45885 
L 464.77534 74.25389 
L 464.977697 138.61194 
L 465.382412 164.06037 
L 465.584769 163.170818 
L 465.787126 140.377825 
L 465.989483 144.763702 
L 466.19184 130.881546 
L 466.394198 126.730861 
L 466.596555 194.31759 
L 466.798912 132.149904 
L 467.001269 148.929609 
L 467.203626 143.691027 
L 467.608341 224.295793 
L 467.810698 81.748157 
L 468.013055 168.038827 
L 468.215413 132.290761 
L 468.41777 125.088699 
L 468.822484 185.153412 
L 469.024841 190.98308 
L 469.227199 133.766108 
L 469.429556 108.233748 
L 469.631913 129.831951 
L 469.83427 135.851452 
L 470.036627 189.514433 
L 470.238985 199.596586 
L 470.643699 124.982022 
L 470.846056 120.938237 
L 471.048413 143.035156 
L 471.250771 152.926313 
L 471.453128 173.349993 
L 471.655485 223.301379 
L 471.857842 125.125093 
L 472.060199 114.458001 
L 472.464914 172.928961 
L 472.667271 175.20876 
L 472.869628 146.053466 
L 473.071985 199.641809 
L 473.274343 105.274161 
L 473.4767 101.404303 
L 473.881414 173.624721 
L 474.286129 139.213572 
L 474.488486 157.831564 
L 474.690843 147.769602 
L 474.8932 127.114893 
L 475.095558 121.204404 
L 475.297915 189.777631 
L 475.500272 137.942532 
L 475.702629 130.369522 
L 475.904986 172.278482 
L 476.107344 183.834395 
L 476.309701 173.751321 
L 476.512058 145.731232 
L 476.714415 136.345529 
L 476.916772 137.520686 
L 477.11913 152.329564 
L 477.321487 151.499748 
L 477.523844 307.8 
L 477.726201 149.334699 
L 477.928558 143.700801 
L 478.130916 151.824948 
L 478.333273 125.246306 
L 478.53563 153.746535 
L 478.737987 159.274783 
L 478.940345 241.346798 
L 479.142702 118.099995 
L 479.547416 143.691027 
L 479.749773 138.869946 
L 480.154488 196.073697 
L 480.559202 125.560475 
L 480.761559 120.713955 
L 480.963917 138.776144 
L 481.166274 174.474509 
L 481.368631 165.045708 
L 481.570988 169.606166 
L 481.773345 150.969602 
L 481.975703 145.844583 
L 482.17806 150.992388 
L 482.380417 149.073542 
L 482.582774 187.52847 
L 482.785131 111.835042 
L 482.987489 162.436171 
L 483.392203 130.463084 
L 483.59456 174.578614 
L 483.796917 171.113553 
L 484.201632 117.740514 
L 484.403989 129.309566 
L 484.606346 193.705938 
L 484.808704 185.756044 
L 485.011061 125.32364 
L 485.213418 196.255758 
L 485.415775 139.087147 
L 485.618132 116.782279 
L 485.82049 128.614453 
L 486.022847 234.299584 
L 486.225204 221.143874 
L 486.427561 110.315321 
L 486.629918 155.443659 
L 486.832276 141.925643 
L 487.034633 153.0242 
L 487.23699 137.548426 
L 487.439347 255.635101 
L 487.844062 119.932468 
L 488.046419 127.454399 
L 488.248776 127.661483 
L 488.451133 157.622764 
L 488.65349 140.171037 
L 488.855848 180.275355 
L 489.058205 171.927428 
L 489.260562 111.128473 
L 489.462919 135.914056 
L 489.665277 186.210941 
L 489.867634 140.158771 
L 490.069991 167.819686 
L 490.272348 143.691027 
L 490.474705 149.463743 
L 490.677063 139.658518 
L 490.87942 141.03084 
L 491.081777 225.959992 
L 491.284134 103.079362 
L 491.486491 135.696639 
L 491.688849 143.691027 
L 492.093563 204.101496 
L 492.29592 138.173657 
L 492.498277 211.863204 
L 492.700635 128.148132 
L 492.902992 113.188859 
L 493.105349 138.731466 
L 493.307706 188.501428 
L 493.510063 183.614665 
L 493.712421 125.061543 
L 493.914778 155.910099 
L 494.117135 129.626734 
L 494.319492 118.892757 
L 494.52185 203.389812 
L 494.724207 235.497557 
L 494.926564 116.027848 
L 495.128921 126.928444 
L 495.331278 111.224538 
L 495.533636 122.719201 
L 495.735993 175.71401 
L 495.93835 158.888064 
L 496.140707 261.072273 
L 496.343064 133.282071 
L 496.747779 125.131015 
L 496.950136 180.246278 
L 497.152493 116.318752 
L 497.35485 174.402677 
L 497.557208 188.818372 
L 497.759565 119.667782 
L 497.961922 133.817868 
L 498.164279 135.090697 
L 498.366636 209.180428 
L 498.568994 109.966363 
L 498.973708 164.918181 
L 499.176065 155.376661 
L 499.378422 137.738504 
L 499.58078 179.216434 
L 499.783137 171.95504 
L 499.985494 122.041117 
L 500.187851 127.493587 
L 500.390209 136.905446 
L 500.592566 234.952033 
L 500.794923 122.223905 
L 500.99728 170.819825 
L 501.199637 155.661994 
L 501.401995 122.979913 
L 501.604352 143.691027 
L 502.009066 248.010576 
L 502.211423 117.34553 
L 502.413781 131.487055 
L 502.616138 132.466012 
L 502.818495 120.923228 
L 503.020852 141.136123 
L 503.223209 218.697724 
L 503.425567 232.090423 
L 503.627924 126.407111 
L 503.830281 122.964168 
L 504.032638 155.043071 
L 504.234995 147.726307 
L 504.437353 123.868569 
L 504.63971 208.861218 
L 505.044424 122.123322 
L 505.246782 155.652723 
L 505.449139 156.427509 
L 505.651496 208.80552 
L 505.853853 114.069228 
L 506.05621 188.505351 
L 506.460925 122.57136 
L 506.663282 126.572039 
L 506.865639 188.784346 
L 507.067996 168.969388 
L 507.270354 125.481139 
L 507.472711 129.792205 
L 507.675068 164.702887 
L 507.877425 159.024267 
L 508.079782 109.90826 
L 508.28214 224.375512 
L 508.484497 139.570097 
L 508.686854 118.723128 
L 508.889211 141.438855 
L 509.091568 234.287296 
L 509.496283 127.155202 
L 509.69864 156.658251 
L 509.900997 115.407747 
L 510.103354 145.024129 
L 510.305712 137.597265 
L 510.508069 275.596728 
L 510.912783 128.91748 
L 511.115141 143.406955 
L 511.317498 147.70861 
L 511.722212 140.65299 
L 511.924569 228.880097 
L 512.126927 133.98657 
L 512.329284 111.433159 
L 512.531641 133.293337 
L 512.733998 199.537923 
L 512.936355 167.873735 
L 513.138713 158.817576 
L 513.34107 161.125591 
L 513.745784 119.542742 
L 513.948141 118.822694 
L 514.150499 245.457421 
L 514.352856 125.308897 
L 514.555213 154.956413 
L 514.75757 139.875865 
L 515.162285 160.493615 
L 515.364642 103.253372 
L 515.566999 241.700349 
L 515.769356 118.776285 
L 515.971714 128.336944 
L 516.376428 183.412936 
L 516.578785 171.386423 
L 517.185857 106.628926 
L 517.590571 162.221168 
L 517.792928 267.412806 
L 517.995286 117.971866 
L 518.197643 154.199131 
L 518.4 127.014292 
L 518.4 127.014292 
" clip-path="url(#pdcea863af0)" style="fill: none; stroke: #2ca02c; stroke-width: 1.5; stroke-linecap: square"/>
   </g>
   <g id="patch_3">
    <path d="M 72 320.4 
L 72 43.2 
" style="fill: none; stroke: #000000; stroke-width: 0.8; stroke-linejoin: miter; stroke-linecap: square"/>
   </g>
   <g id="patch_4">
    <path d="M 518.4 320.4 
L 518.4 43.2 
" style="fill: none; stroke: #000000; stroke-width: 0.8; stroke-linejoin: miter; stroke-linecap: square"/>
   </g>
   <g id="patch_5">
    <path d="M 72 320.4 
L 518.4 320.4 
" style="fill: none; stroke: #000000; stroke-width: 0.8; stroke-linejoin: miter; stroke-linecap: square"/>
   </g>
   <g id="patch_6">
    <path d="M 72 43.2 
L 518.4 43.2 
" style="fill: none; stroke: #000000; stroke-width: 0.8; stroke-linejoin: miter; stroke-linecap: square"/>
   </g>
   <g id="text_16">
    <!-- Classic Transformer - model_20231126165808 -->
    <g transform="translate(155.436563 37.2) scale(0.12 -0.12)">
     <defs>
      <path id="DejaVuSans-43" d="M 4122 4306 
L 4122 3641 
Q 3803 3938 3442 4084 
Q 3081 4231 2675 4231 
Q 1875 4231 1450 3742 
Q 1025 3253 1025 2328 
Q 1025 1406 1450 917 
Q 1875 428 2675 428 
Q 3081 428 3442 575 
Q 3803 722 4122 1019 
L 4122 359 
Q 3791 134 3420 21 
Q 3050 -91 2638 -91 
Q 1578 -91 968 557 
Q 359 1206 359 2328 
Q 359 3453 968 4101 
Q 1578 4750 2638 4750 
Q 3056 4750 3426 4639 
Q 3797 4528 4122 4306 
z
" transform="scale(0.015625)"/>
      <path id="DejaVuSans-6c" d="M 603 4863 
L 1178 4863 
L 1178 0 
L 603 0 
L 603 4863 
z
" transform="scale(0.015625)"/>
      <path id="DejaVuSans-61" d="M 2194 1759 
Q 1497 1759 1228 1600 
Q 959 1441 959 1056 
Q 959 750 1161 570 
Q 1363 391 1709 391 
Q 2188 391 2477 730 
Q 2766 1069 2766 1631 
L 2766 1759 
L 2194 1759 
z
M 3341 1997 
L 3341 0 
L 2766 0 
L 2766 531 
Q 2569 213 2275 61 
Q 1981 -91 1556 -91 
Q 1019 -91 701 211 
Q 384 513 384 1019 
Q 384 1609 779 1909 
Q 1175 2209 1959 2209 
L 2766 2209 
L 2766 2266 
Q 2766 2663 2505 2880 
Q 2244 3097 1772 3097 
Q 1472 3097 1187 3025 
Q 903 2953 641 2809 
L 641 3341 
Q 956 3463 1253 3523 
Q 1550 3584 1831 3584 
Q 2591 3584 2966 3190 
Q 3341 2797 3341 1997 
z
" transform="scale(0.015625)"/>
      <path id="DejaVuSans-73" d="M 2834 3397 
L 2834 2853 
Q 2591 2978 2328 3040 
Q 2066 3103 1784 3103 
Q 1356 3103 1142 2972 
Q 928 2841 928 2578 
Q 928 2378 1081 2264 
Q 1234 2150 1697 2047 
L 1894 2003 
Q 2506 1872 2764 1633 
Q 3022 1394 3022 966 
Q 3022 478 2636 193 
Q 2250 -91 1575 -91 
Q 1294 -91 989 -36 
Q 684 19 347 128 
L 347 722 
Q 666 556 975 473 
Q 1284 391 1588 391 
Q 1994 391 2212 530 
Q 2431 669 2431 922 
Q 2431 1156 2273 1281 
Q 2116 1406 1581 1522 
L 1381 1569 
Q 847 1681 609 1914 
Q 372 2147 372 2553 
Q 372 3047 722 3315 
Q 1072 3584 1716 3584 
Q 2034 3584 2315 3537 
Q 2597 3491 2834 3397 
z
" transform="scale(0.015625)"/>
      <path id="DejaVuSans-69" d="M 603 3500 
L 1178 3500 
L 1178 0 
L 603 0 
L 603 3500 
z
M 603 4863 
L 1178 4863 
L 1178 4134 
L 603 4134 
L 603 4863 
z
" transform="scale(0.015625)"/>
      <path id="DejaVuSans-63" d="M 3122 3366 
L 3122 2828 
Q 2878 2963 2633 3030 
Q 2388 3097 2138 3097 
Q 1578 3097 1268 2742 
Q 959 2388 959 1747 
Q 959 1106 1268 751 
Q 1578 397 2138 397 
Q 2388 397 2633 464 
Q 2878 531 3122 666 
L 3122 134 
Q 2881 22 2623 -34 
Q 2366 -91 2075 -91 
Q 1284 -91 818 406 
Q 353 903 353 1747 
Q 353 2603 823 3093 
Q 1294 3584 2113 3584 
Q 2378 3584 2631 3529 
Q 2884 3475 3122 3366 
z
" transform="scale(0.015625)"/>
      <path id="DejaVuSans-20" transform="scale(0.015625)"/>
      <path id="DejaVuSans-54" d="M -19 4666 
L 3928 4666 
L 3928 4134 
L 2272 4134 
L 2272 0 
L 1638 0 
L 1638 4134 
L -19 4134 
L -19 4666 
z
" transform="scale(0.015625)"/>
      <path id="DejaVuSans-72" d="M 2631 2963 
Q 2534 3019 2420 3045 
Q 2306 3072 2169 3072 
Q 1681 3072 1420 2755 
Q 1159 2438 1159 1844 
L 1159 0 
L 581 0 
L 581 3500 
L 1159 3500 
L 1159 2956 
Q 1341 3275 1631 3429 
Q 1922 3584 2338 3584 
Q 2397 3584 2469 3576 
Q 2541 3569 2628 3553 
L 2631 2963 
z
" transform="scale(0.015625)"/>
      <path id="DejaVuSans-6e" d="M 3513 2113 
L 3513 0 
L 2938 0 
L 2938 2094 
Q 2938 2591 2744 2837 
Q 2550 3084 2163 3084 
Q 1697 3084 1428 2787 
Q 1159 2491 1159 1978 
L 1159 0 
L 581 0 
L 581 3500 
L 1159 3500 
L 1159 2956 
Q 1366 3272 1645 3428 
Q 1925 3584 2291 3584 
Q 2894 3584 3203 3211 
Q 3513 2838 3513 2113 
z
" transform="scale(0.015625)"/>
      <path id="DejaVuSans-66" d="M 2375 4863 
L 2375 4384 
L 1825 4384 
Q 1516 4384 1395 4259 
Q 1275 4134 1275 3809 
L 1275 3500 
L 2222 3500 
L 2222 3053 
L 1275 3053 
L 1275 0 
L 697 0 
L 697 3053 
L 147 3053 
L 147 3500 
L 697 3500 
L 697 3744 
Q 697 4328 969 4595 
Q 1241 4863 1831 4863 
L 2375 4863 
z
" transform="scale(0.015625)"/>
      <path id="DejaVuSans-6f" d="M 1959 3097 
Q 1497 3097 1228 2736 
Q 959 2375 959 1747 
Q 959 1119 1226 758 
Q 1494 397 1959 397 
Q 2419 397 2687 759 
Q 2956 1122 2956 1747 
Q 2956 2369 2687 2733 
Q 2419 3097 1959 3097 
z
M 1959 3584 
Q 2709 3584 3137 3096 
Q 3566 2609 3566 1747 
Q 3566 888 3137 398 
Q 2709 -91 1959 -91 
Q 1206 -91 779 398 
Q 353 888 353 1747 
Q 353 2609 779 3096 
Q 1206 3584 1959 3584 
z
" transform="scale(0.015625)"/>
      <path id="DejaVuSans-6d" d="M 3328 2828 
Q 3544 3216 3844 3400 
Q 4144 3584 4550 3584 
Q 5097 3584 5394 3201 
Q 5691 2819 5691 2113 
L 5691 0 
L 5113 0 
L 5113 2094 
Q 5113 2597 4934 2840 
Q 4756 3084 4391 3084 
Q 3944 3084 3684 2787 
Q 3425 2491 3425 1978 
L 3425 0 
L 2847 0 
L 2847 2094 
Q 2847 2600 2669 2842 
Q 2491 3084 2119 3084 
Q 1678 3084 1418 2786 
Q 1159 2488 1159 1978 
L 1159 0 
L 581 0 
L 581 3500 
L 1159 3500 
L 1159 2956 
Q 1356 3278 1631 3431 
Q 1906 3584 2284 3584 
Q 2666 3584 2933 3390 
Q 3200 3197 3328 2828 
z
" transform="scale(0.015625)"/>
      <path id="DejaVuSans-65" d="M 3597 1894 
L 3597 1613 
L 953 1613 
Q 991 1019 1311 708 
Q 1631 397 2203 397 
Q 2534 397 2845 478 
Q 3156 559 3463 722 
L 3463 178 
Q 3153 47 2828 -22 
Q 2503 -91 2169 -91 
Q 1331 -91 842 396 
Q 353 884 353 1716 
Q 353 2575 817 3079 
Q 1281 3584 2069 3584 
Q 2775 3584 3186 3129 
Q 3597 2675 3597 1894 
z
M 3022 2063 
Q 3016 2534 2758 2815 
Q 2500 3097 2075 3097 
Q 1594 3097 1305 2825 
Q 1016 2553 972 2059 
L 3022 2063 
z
" transform="scale(0.015625)"/>
      <path id="DejaVuSans-64" d="M 2906 2969 
L 2906 4863 
L 3481 4863 
L 3481 0 
L 2906 0 
L 2906 525 
Q 2725 213 2448 61 
Q 2172 -91 1784 -91 
Q 1150 -91 751 415 
Q 353 922 353 1747 
Q 353 2572 751 3078 
Q 1150 3584 1784 3584 
Q 2172 3584 2448 3432 
Q 2725 3281 2906 2969 
z
M 947 1747 
Q 947 1113 1208 752 
Q 1469 391 1925 391 
Q 2381 391 2643 752 
Q 2906 1113 2906 1747 
Q 2906 2381 2643 2742 
Q 2381 3103 1925 3103 
Q 1469 3103 1208 2742 
Q 947 2381 947 1747 
z
" transform="scale(0.015625)"/>
      <path id="DejaVuSans-5f" d="M 3263 -1063 
L 3263 -1509 
L -63 -1509 
L -63 -1063 
L 3263 -1063 
z
" transform="scale(0.015625)"/>
     </defs>
     <use xlink:href="#DejaVuSans-43"/>
     <use xlink:href="#DejaVuSans-6c" x="69.824219"/>
     <use xlink:href="#DejaVuSans-61" x="97.607422"/>
     <use xlink:href="#DejaVuSans-73" x="158.886719"/>
     <use xlink:href="#DejaVuSans-73" x="210.986328"/>
     <use xlink:href="#DejaVuSans-69" x="263.085938"/>
     <use xlink:href="#DejaVuSans-63" x="290.869141"/>
     <use xlink:href="#DejaVuSans-20" x="345.849609"/>
     <use xlink:href="#DejaVuSans-54" x="377.636719"/>
     <use xlink:href="#DejaVuSans-72" x="423.970703"/>
     <use xlink:href="#DejaVuSans-61" x="465.083984"/>
     <use xlink:href="#DejaVuSans-6e" x="526.363281"/>
     <use xlink:href="#DejaVuSans-73" x="589.742188"/>
     <use xlink:href="#DejaVuSans-66" x="641.841797"/>
     <use xlink:href="#DejaVuSans-6f" x="677.046875"/>
     <use xlink:href="#DejaVuSans-72" x="738.228516"/>
     <use xlink:href="#DejaVuSans-6d" x="777.591797"/>
     <use xlink:href="#DejaVuSans-65" x="875.003906"/>
     <use xlink:href="#DejaVuSans-72" x="936.527344"/>
     <use xlink:href="#DejaVuSans-20" x="977.640625"/>
     <use xlink:href="#DejaVuSans-2d" x="1009.427734"/>
     <use xlink:href="#DejaVuSans-20" x="1045.511719"/>
     <use xlink:href="#DejaVuSans-6d" x="1077.298828"/>
     <use xlink:href="#DejaVuSans-6f" x="1174.710938"/>
     <use xlink:href="#DejaVuSans-64" x="1235.892578"/>
     <use xlink:href="#DejaVuSans-65" x="1299.369141"/>
     <use xlink:href="#DejaVuSans-6c" x="1360.892578"/>
     <use xlink:href="#DejaVuSans-5f" x="1388.675781"/>
     <use xlink:href="#DejaVuSans-32" x="1438.675781"/>
     <use xlink:href="#DejaVuSans-30" x="1502.298828"/>
     <use xlink:href="#DejaVuSans-32" x="1565.921875"/>
     <use xlink:href="#DejaVuSans-33" x="1629.544922"/>
     <use xlink:href="#DejaVuSans-31" x="1693.167969"/>
     <use xlink:href="#DejaVuSans-31" x="1756.791016"/>
     <use xlink:href="#DejaVuSans-32" x="1820.414062"/>
     <use xlink:href="#DejaVuSans-36" x="1884.037109"/>
     <use xlink:href="#DejaVuSans-31" x="1947.660156"/>
     <use xlink:href="#DejaVuSans-36" x="2011.283203"/>
     <use xlink:href="#DejaVuSans-35" x="2074.90625"/>
     <use xlink:href="#DejaVuSans-38" x="2138.529297"/>
     <use xlink:href="#DejaVuSans-30" x="2202.152344"/>
     <use xlink:href="#DejaVuSans-38" x="2265.775391"/>
    </g>
   </g>
   <g id="legend_1">
    <g id="patch_7">
     <path d="M 79 95.234375 
L 161.517188 95.234375 
Q 163.517188 95.234375 163.517188 93.234375 
L 163.517188 50.2 
Q 163.517188 48.2 161.517188 48.2 
L 79 48.2 
Q 77 48.2 77 50.2 
L 77 93.234375 
Q 77 95.234375 79 95.234375 
z
" style="fill: #ffffff; opacity: 0.8; stroke: #cccccc; stroke-linejoin: miter"/>
    </g>
    <g id="line2d_19">
     <path d="M 81 56.298437 
L 91 56.298437 
L 101 56.298437 
" style="fill: none; stroke: #1f77b4; stroke-width: 1.5; stroke-linecap: square"/>
    </g>
    <g id="text_17">
     <!-- Measured -->
     <g transform="translate(109 59.798437) scale(0.1 -0.1)">
      <defs>
       <path id="DejaVuSans-4d" d="M 628 4666 
L 1569 4666 
L 2759 1491 
L 3956 4666 
L 4897 4666 
L 4897 0 
L 4281 0 
L 4281 4097 
L 3078 897 
L 2444 897 
L 1241 4097 
L 1241 0 
L 628 0 
L 628 4666 
z
" transform="scale(0.015625)"/>
       <path id="DejaVuSans-75" d="M 544 1381 
L 544 3500 
L 1119 3500 
L 1119 1403 
Q 1119 906 1312 657 
Q 1506 409 1894 409 
Q 2359 409 2629 706 
Q 2900 1003 2900 1516 
L 2900 3500 
L 3475 3500 
L 3475 0 
L 2900 0 
L 2900 538 
Q 2691 219 2414 64 
Q 2138 -91 1772 -91 
Q 1169 -91 856 284 
Q 544 659 544 1381 
z
M 1991 3584 
L 1991 3584 
z
" transform="scale(0.015625)"/>
      </defs>
      <use xlink:href="#DejaVuSans-4d"/>
      <use xlink:href="#DejaVuSans-65" x="86.279297"/>
      <use xlink:href="#DejaVuSans-61" x="147.802734"/>
      <use xlink:href="#DejaVuSans-73" x="209.082031"/>
      <use xlink:href="#DejaVuSans-75" x="261.181641"/>
      <use xlink:href="#DejaVuSans-72" x="324.560547"/>
      <use xlink:href="#DejaVuSans-65" x="363.423828"/>
      <use xlink:href="#DejaVuSans-64" x="424.947266"/>
     </g>
    </g>
    <g id="line2d_20">
     <path d="M 81 70.976562 
L 91 70.976562 
L 101 70.976562 
" style="fill: none; stroke: #ff7f0e; stroke-width: 1.5; stroke-linecap: square"/>
    </g>
    <g id="text_18">
     <!-- Fitted -->
     <g transform="translate(109 74.476562) scale(0.1 -0.1)">
      <defs>
       <path id="DejaVuSans-46" d="M 628 4666 
L 3309 4666 
L 3309 4134 
L 1259 4134 
L 1259 2759 
L 3109 2759 
L 3109 2228 
L 1259 2228 
L 1259 0 
L 628 0 
L 628 4666 
z
" transform="scale(0.015625)"/>
       <path id="DejaVuSans-74" d="M 1172 4494 
L 1172 3500 
L 2356 3500 
L 2356 3053 
L 1172 3053 
L 1172 1153 
Q 1172 725 1289 603 
Q 1406 481 1766 481 
L 2356 481 
L 2356 0 
L 1766 0 
Q 1100 0 847 248 
Q 594 497 594 1153 
L 594 3053 
L 172 3053 
L 172 3500 
L 594 3500 
L 594 4494 
L 1172 4494 
z
" transform="scale(0.015625)"/>
      </defs>
      <use xlink:href="#DejaVuSans-46"/>
      <use xlink:href="#DejaVuSans-69" x="50.269531"/>
      <use xlink:href="#DejaVuSans-74" x="78.052734"/>
      <use xlink:href="#DejaVuSans-74" x="117.261719"/>
      <use xlink:href="#DejaVuSans-65" x="156.470703"/>
      <use xlink:href="#DejaVuSans-64" x="217.994141"/>
     </g>
    </g>
    <g id="line2d_21">
     <path d="M 81 85.654687 
L 91 85.654687 
L 101 85.654687 
" style="fill: none; stroke: #2ca02c; stroke-width: 1.5; stroke-linecap: square"/>
    </g>
    <g id="text_19">
     <!-- Estimated -->
     <g transform="translate(109 89.154687) scale(0.1 -0.1)">
      <defs>
       <path id="DejaVuSans-45" d="M 628 4666 
L 3578 4666 
L 3578 4134 
L 1259 4134 
L 1259 2753 
L 3481 2753 
L 3481 2222 
L 1259 2222 
L 1259 531 
L 3634 531 
L 3634 0 
L 628 0 
L 628 4666 
z
" transform="scale(0.015625)"/>
      </defs>
      <use xlink:href="#DejaVuSans-45"/>
      <use xlink:href="#DejaVuSans-73" x="63.183594"/>
      <use xlink:href="#DejaVuSans-74" x="115.283203"/>
      <use xlink:href="#DejaVuSans-69" x="154.492188"/>
      <use xlink:href="#DejaVuSans-6d" x="182.275391"/>
      <use xlink:href="#DejaVuSans-61" x="279.6875"/>
      <use xlink:href="#DejaVuSans-74" x="340.966797"/>
      <use xlink:href="#DejaVuSans-65" x="380.175781"/>
      <use xlink:href="#DejaVuSans-64" x="441.699219"/>
     </g>
    </g>
   </g>
  </g>
 </g>
 <defs>
  <clipPath id="pdcea863af0">
   <rect x="72" y="43.2" width="446.4" height="277.2"/>
  </clipPath>
 </defs>
</svg>
