<?xml version="1.0" encoding="utf-8" standalone="no"?>
<!DOCTYPE svg PUBLIC "-//W3C//DTD SVG 1.1//EN"
  "http://www.w3.org/Graphics/SVG/1.1/DTD/svg11.dtd">
<svg xmlns:xlink="http://www.w3.org/1999/xlink" width="576pt" height="360pt" viewBox="0 0 576 360" xmlns="http://www.w3.org/2000/svg" version="1.1">
 <metadata>
  <rdf:RDF xmlns:dc="http://purl.org/dc/elements/1.1/" xmlns:cc="http://creativecommons.org/ns#" xmlns:rdf="http://www.w3.org/1999/02/22-rdf-syntax-ns#">
   <cc:Work>
    <dc:type rdf:resource="http://purl.org/dc/dcmitype/StillImage"/>
    <dc:date>2023-11-26T17:00:54.607358</dc:date>
    <dc:format>image/svg+xml</dc:format>
    <dc:creator>
     <cc:Agent>
      <dc:title>Matplotlib v3.8.1, https://matplotlib.org/</dc:title>
     </cc:Agent>
    </dc:creator>
   </cc:Work>
  </rdf:RDF>
 </metadata>
 <defs>
  <style type="text/css">*{stroke-linejoin: round; stroke-linecap: butt}</style>
 </defs>
 <g id="figure_1">
  <g id="patch_1">
   <path d="M 0 360 
L 576 360 
L 576 0 
L 0 0 
z
" style="fill: #ffffff"/>
  </g>
  <g id="axes_1">
   <g id="patch_2">
    <path d="M 72 320.4 
L 518.4 320.4 
L 518.4 43.2 
L 72 43.2 
z
" style="fill: #ffffff"/>
   </g>
   <g id="matplotlib.axis_1">
    <g id="xtick_1">
     <g id="line2d_1">
      <defs>
       <path id="mdf0f4845bf" d="M 0 0 
L 0 3.5 
" style="stroke: #000000; stroke-width: 0.8"/>
      </defs>
      <g>
       <use xlink:href="#mdf0f4845bf" x="129.874161" y="320.4" style="stroke: #000000; stroke-width: 0.8"/>
      </g>
     </g>
     <g id="text_1">
      <!-- 2020-05-15 -->
      <g transform="translate(100.816349 334.998438) scale(0.1 -0.1)">
       <defs>
        <path id="DejaVuSans-32" d="M 1228 531 
L 3431 531 
L 3431 0 
L 469 0 
L 469 531 
Q 828 903 1448 1529 
Q 2069 2156 2228 2338 
Q 2531 2678 2651 2914 
Q 2772 3150 2772 3378 
Q 2772 3750 2511 3984 
Q 2250 4219 1831 4219 
Q 1534 4219 1204 4116 
Q 875 4013 500 3803 
L 500 4441 
Q 881 4594 1212 4672 
Q 1544 4750 1819 4750 
Q 2544 4750 2975 4387 
Q 3406 4025 3406 3419 
Q 3406 3131 3298 2873 
Q 3191 2616 2906 2266 
Q 2828 2175 2409 1742 
Q 1991 1309 1228 531 
z
" transform="scale(0.015625)"/>
        <path id="DejaVuSans-30" d="M 2034 4250 
Q 1547 4250 1301 3770 
Q 1056 3291 1056 2328 
Q 1056 1369 1301 889 
Q 1547 409 2034 409 
Q 2525 409 2770 889 
Q 3016 1369 3016 2328 
Q 3016 3291 2770 3770 
Q 2525 4250 2034 4250 
z
M 2034 4750 
Q 2819 4750 3233 4129 
Q 3647 3509 3647 2328 
Q 3647 1150 3233 529 
Q 2819 -91 2034 -91 
Q 1250 -91 836 529 
Q 422 1150 422 2328 
Q 422 3509 836 4129 
Q 1250 4750 2034 4750 
z
" transform="scale(0.015625)"/>
        <path id="DejaVuSans-2d" d="M 313 2009 
L 1997 2009 
L 1997 1497 
L 313 1497 
L 313 2009 
z
" transform="scale(0.015625)"/>
        <path id="DejaVuSans-35" d="M 691 4666 
L 3169 4666 
L 3169 4134 
L 1269 4134 
L 1269 2991 
Q 1406 3038 1543 3061 
Q 1681 3084 1819 3084 
Q 2600 3084 3056 2656 
Q 3513 2228 3513 1497 
Q 3513 744 3044 326 
Q 2575 -91 1722 -91 
Q 1428 -91 1123 -41 
Q 819 9 494 109 
L 494 744 
Q 775 591 1075 516 
Q 1375 441 1709 441 
Q 2250 441 2565 725 
Q 2881 1009 2881 1497 
Q 2881 1984 2565 2268 
Q 2250 2553 1709 2553 
Q 1456 2553 1204 2497 
Q 953 2441 691 2322 
L 691 4666 
z
" transform="scale(0.015625)"/>
        <path id="DejaVuSans-31" d="M 794 531 
L 1825 531 
L 1825 4091 
L 703 3866 
L 703 4441 
L 1819 4666 
L 2450 4666 
L 2450 531 
L 3481 531 
L 3481 0 
L 794 0 
L 794 531 
z
" transform="scale(0.015625)"/>
       </defs>
       <use xlink:href="#DejaVuSans-32"/>
       <use xlink:href="#DejaVuSans-30" x="63.623047"/>
       <use xlink:href="#DejaVuSans-32" x="127.246094"/>
       <use xlink:href="#DejaVuSans-30" x="190.869141"/>
       <use xlink:href="#DejaVuSans-2d" x="254.492188"/>
       <use xlink:href="#DejaVuSans-30" x="290.576172"/>
       <use xlink:href="#DejaVuSans-35" x="354.199219"/>
       <use xlink:href="#DejaVuSans-2d" x="417.822266"/>
       <use xlink:href="#DejaVuSans-31" x="453.90625"/>
       <use xlink:href="#DejaVuSans-35" x="517.529297"/>
      </g>
     </g>
    </g>
    <g id="xtick_2">
     <g id="line2d_2">
      <g>
       <use xlink:href="#mdf0f4845bf" x="212.435902" y="320.4" style="stroke: #000000; stroke-width: 0.8"/>
      </g>
     </g>
     <g id="text_2">
      <!-- 2020-06-01 -->
      <g transform="translate(183.37809 334.998438) scale(0.1 -0.1)">
       <defs>
        <path id="DejaVuSans-36" d="M 2113 2584 
Q 1688 2584 1439 2293 
Q 1191 2003 1191 1497 
Q 1191 994 1439 701 
Q 1688 409 2113 409 
Q 2538 409 2786 701 
Q 3034 994 3034 1497 
Q 3034 2003 2786 2293 
Q 2538 2584 2113 2584 
z
M 3366 4563 
L 3366 3988 
Q 3128 4100 2886 4159 
Q 2644 4219 2406 4219 
Q 1781 4219 1451 3797 
Q 1122 3375 1075 2522 
Q 1259 2794 1537 2939 
Q 1816 3084 2150 3084 
Q 2853 3084 3261 2657 
Q 3669 2231 3669 1497 
Q 3669 778 3244 343 
Q 2819 -91 2113 -91 
Q 1303 -91 875 529 
Q 447 1150 447 2328 
Q 447 3434 972 4092 
Q 1497 4750 2381 4750 
Q 2619 4750 2861 4703 
Q 3103 4656 3366 4563 
z
" transform="scale(0.015625)"/>
       </defs>
       <use xlink:href="#DejaVuSans-32"/>
       <use xlink:href="#DejaVuSans-30" x="63.623047"/>
       <use xlink:href="#DejaVuSans-32" x="127.246094"/>
       <use xlink:href="#DejaVuSans-30" x="190.869141"/>
       <use xlink:href="#DejaVuSans-2d" x="254.492188"/>
       <use xlink:href="#DejaVuSans-30" x="290.576172"/>
       <use xlink:href="#DejaVuSans-36" x="354.199219"/>
       <use xlink:href="#DejaVuSans-2d" x="417.822266"/>
       <use xlink:href="#DejaVuSans-30" x="453.90625"/>
       <use xlink:href="#DejaVuSans-31" x="517.529297"/>
      </g>
     </g>
    </g>
    <g id="xtick_3">
     <g id="line2d_3">
      <g>
       <use xlink:href="#mdf0f4845bf" x="280.427924" y="320.4" style="stroke: #000000; stroke-width: 0.8"/>
      </g>
     </g>
     <g id="text_3">
      <!-- 2020-06-15 -->
      <g transform="translate(251.370111 334.998438) scale(0.1 -0.1)">
       <use xlink:href="#DejaVuSans-32"/>
       <use xlink:href="#DejaVuSans-30" x="63.623047"/>
       <use xlink:href="#DejaVuSans-32" x="127.246094"/>
       <use xlink:href="#DejaVuSans-30" x="190.869141"/>
       <use xlink:href="#DejaVuSans-2d" x="254.492188"/>
       <use xlink:href="#DejaVuSans-30" x="290.576172"/>
       <use xlink:href="#DejaVuSans-36" x="354.199219"/>
       <use xlink:href="#DejaVuSans-2d" x="417.822266"/>
       <use xlink:href="#DejaVuSans-31" x="453.90625"/>
       <use xlink:href="#DejaVuSans-35" x="517.529297"/>
      </g>
     </g>
    </g>
    <g id="xtick_4">
     <g id="line2d_4">
      <g>
       <use xlink:href="#mdf0f4845bf" x="358.133092" y="320.4" style="stroke: #000000; stroke-width: 0.8"/>
      </g>
     </g>
     <g id="text_4">
      <!-- 2020-07-01 -->
      <g transform="translate(329.075279 334.998438) scale(0.1 -0.1)">
       <defs>
        <path id="DejaVuSans-37" d="M 525 4666 
L 3525 4666 
L 3525 4397 
L 1831 0 
L 1172 0 
L 2766 4134 
L 525 4134 
L 525 4666 
z
" transform="scale(0.015625)"/>
       </defs>
       <use xlink:href="#DejaVuSans-32"/>
       <use xlink:href="#DejaVuSans-30" x="63.623047"/>
       <use xlink:href="#DejaVuSans-32" x="127.246094"/>
       <use xlink:href="#DejaVuSans-30" x="190.869141"/>
       <use xlink:href="#DejaVuSans-2d" x="254.492188"/>
       <use xlink:href="#DejaVuSans-30" x="290.576172"/>
       <use xlink:href="#DejaVuSans-37" x="354.199219"/>
       <use xlink:href="#DejaVuSans-2d" x="417.822266"/>
       <use xlink:href="#DejaVuSans-30" x="453.90625"/>
       <use xlink:href="#DejaVuSans-31" x="517.529297"/>
      </g>
     </g>
    </g>
    <g id="xtick_5">
     <g id="line2d_5">
      <g>
       <use xlink:href="#mdf0f4845bf" x="426.125113" y="320.4" style="stroke: #000000; stroke-width: 0.8"/>
      </g>
     </g>
     <g id="text_5">
      <!-- 2020-07-15 -->
      <g transform="translate(397.067301 334.998438) scale(0.1 -0.1)">
       <use xlink:href="#DejaVuSans-32"/>
       <use xlink:href="#DejaVuSans-30" x="63.623047"/>
       <use xlink:href="#DejaVuSans-32" x="127.246094"/>
       <use xlink:href="#DejaVuSans-30" x="190.869141"/>
       <use xlink:href="#DejaVuSans-2d" x="254.492188"/>
       <use xlink:href="#DejaVuSans-30" x="290.576172"/>
       <use xlink:href="#DejaVuSans-37" x="354.199219"/>
       <use xlink:href="#DejaVuSans-2d" x="417.822266"/>
       <use xlink:href="#DejaVuSans-31" x="453.90625"/>
       <use xlink:href="#DejaVuSans-35" x="517.529297"/>
      </g>
     </g>
    </g>
    <g id="xtick_6">
     <g id="line2d_6">
      <g>
       <use xlink:href="#mdf0f4845bf" x="508.686854" y="320.4" style="stroke: #000000; stroke-width: 0.8"/>
      </g>
     </g>
     <g id="text_6">
      <!-- 2020-08-01 -->
      <g transform="translate(479.629042 334.998438) scale(0.1 -0.1)">
       <defs>
        <path id="DejaVuSans-38" d="M 2034 2216 
Q 1584 2216 1326 1975 
Q 1069 1734 1069 1313 
Q 1069 891 1326 650 
Q 1584 409 2034 409 
Q 2484 409 2743 651 
Q 3003 894 3003 1313 
Q 3003 1734 2745 1975 
Q 2488 2216 2034 2216 
z
M 1403 2484 
Q 997 2584 770 2862 
Q 544 3141 544 3541 
Q 544 4100 942 4425 
Q 1341 4750 2034 4750 
Q 2731 4750 3128 4425 
Q 3525 4100 3525 3541 
Q 3525 3141 3298 2862 
Q 3072 2584 2669 2484 
Q 3125 2378 3379 2068 
Q 3634 1759 3634 1313 
Q 3634 634 3220 271 
Q 2806 -91 2034 -91 
Q 1263 -91 848 271 
Q 434 634 434 1313 
Q 434 1759 690 2068 
Q 947 2378 1403 2484 
z
M 1172 3481 
Q 1172 3119 1398 2916 
Q 1625 2713 2034 2713 
Q 2441 2713 2670 2916 
Q 2900 3119 2900 3481 
Q 2900 3844 2670 4047 
Q 2441 4250 2034 4250 
Q 1625 4250 1398 4047 
Q 1172 3844 1172 3481 
z
" transform="scale(0.015625)"/>
       </defs>
       <use xlink:href="#DejaVuSans-32"/>
       <use xlink:href="#DejaVuSans-30" x="63.623047"/>
       <use xlink:href="#DejaVuSans-32" x="127.246094"/>
       <use xlink:href="#DejaVuSans-30" x="190.869141"/>
       <use xlink:href="#DejaVuSans-2d" x="254.492188"/>
       <use xlink:href="#DejaVuSans-30" x="290.576172"/>
       <use xlink:href="#DejaVuSans-38" x="354.199219"/>
       <use xlink:href="#DejaVuSans-2d" x="417.822266"/>
       <use xlink:href="#DejaVuSans-30" x="453.90625"/>
       <use xlink:href="#DejaVuSans-31" x="517.529297"/>
      </g>
     </g>
    </g>
   </g>
   <g id="matplotlib.axis_2">
    <g id="ytick_1">
     <g id="line2d_7">
      <defs>
       <path id="ma7324274ec" d="M 0 0 
L -3.5 0 
" style="stroke: #000000; stroke-width: 0.8"/>
      </defs>
      <g>
       <use xlink:href="#ma7324274ec" x="72" y="316.02311" style="stroke: #000000; stroke-width: 0.8"/>
      </g>
     </g>
     <g id="text_7">
      <!-- −2 -->
      <g transform="translate(50.257812 319.822329) scale(0.1 -0.1)">
       <defs>
        <path id="DejaVuSans-2212" d="M 678 2272 
L 4684 2272 
L 4684 1741 
L 678 1741 
L 678 2272 
z
" transform="scale(0.015625)"/>
       </defs>
       <use xlink:href="#DejaVuSans-2212"/>
       <use xlink:href="#DejaVuSans-32" x="83.789062"/>
      </g>
     </g>
    </g>
    <g id="ytick_2">
     <g id="line2d_8">
      <g>
       <use xlink:href="#ma7324274ec" x="72" y="262.270962" style="stroke: #000000; stroke-width: 0.8"/>
      </g>
     </g>
     <g id="text_8">
      <!-- −1 -->
      <g transform="translate(50.257812 266.070181) scale(0.1 -0.1)">
       <use xlink:href="#DejaVuSans-2212"/>
       <use xlink:href="#DejaVuSans-31" x="83.789062"/>
      </g>
     </g>
    </g>
    <g id="ytick_3">
     <g id="line2d_9">
      <g>
       <use xlink:href="#ma7324274ec" x="72" y="208.518814" style="stroke: #000000; stroke-width: 0.8"/>
      </g>
     </g>
     <g id="text_9">
      <!-- 0 -->
      <g transform="translate(58.6375 212.318032) scale(0.1 -0.1)">
       <use xlink:href="#DejaVuSans-30"/>
      </g>
     </g>
    </g>
    <g id="ytick_4">
     <g id="line2d_10">
      <g>
       <use xlink:href="#ma7324274ec" x="72" y="154.766666" style="stroke: #000000; stroke-width: 0.8"/>
      </g>
     </g>
     <g id="text_10">
      <!-- 1 -->
      <g transform="translate(58.6375 158.565884) scale(0.1 -0.1)">
       <use xlink:href="#DejaVuSans-31"/>
      </g>
     </g>
    </g>
    <g id="ytick_5">
     <g id="line2d_11">
      <g>
       <use xlink:href="#ma7324274ec" x="72" y="101.014518" style="stroke: #000000; stroke-width: 0.8"/>
      </g>
     </g>
     <g id="text_11">
      <!-- 2 -->
      <g transform="translate(58.6375 104.813736) scale(0.1 -0.1)">
       <use xlink:href="#DejaVuSans-32"/>
      </g>
     </g>
    </g>
    <g id="ytick_6">
     <g id="line2d_12">
      <g>
       <use xlink:href="#ma7324274ec" x="72" y="47.262369" style="stroke: #000000; stroke-width: 0.8"/>
      </g>
     </g>
     <g id="text_12">
      <!-- 3 -->
      <g transform="translate(58.6375 51.061588) scale(0.1 -0.1)">
       <defs>
        <path id="DejaVuSans-33" d="M 2597 2516 
Q 3050 2419 3304 2112 
Q 3559 1806 3559 1356 
Q 3559 666 3084 287 
Q 2609 -91 1734 -91 
Q 1441 -91 1130 -33 
Q 819 25 488 141 
L 488 750 
Q 750 597 1062 519 
Q 1375 441 1716 441 
Q 2309 441 2620 675 
Q 2931 909 2931 1356 
Q 2931 1769 2642 2001 
Q 2353 2234 1838 2234 
L 1294 2234 
L 1294 2753 
L 1863 2753 
Q 2328 2753 2575 2939 
Q 2822 3125 2822 3475 
Q 2822 3834 2567 4026 
Q 2313 4219 1838 4219 
Q 1578 4219 1281 4162 
Q 984 4106 628 3988 
L 628 4550 
Q 988 4650 1302 4700 
Q 1616 4750 1894 4750 
Q 2613 4750 3031 4423 
Q 3450 4097 3450 3541 
Q 3450 3153 3228 2886 
Q 3006 2619 2597 2516 
z
" transform="scale(0.015625)"/>
       </defs>
       <use xlink:href="#DejaVuSans-33"/>
      </g>
     </g>
    </g>
   </g>
   <g id="line2d_13">
    <path d="M 72 287.021497 
L 72.404714 298.412757 
L 72.607072 296.682973 
L 72.809429 285.96675 
L 73.214143 254.915018 
L 73.618858 242.426821 
L 75.035358 159.101858 
L 75.237715 156.127474 
L 75.440073 161.211351 
L 75.64243 169.459468 
L 75.844787 172.771371 
L 76.047144 188.086288 
L 76.654216 258.669915 
L 77.05893 282.844701 
L 77.261287 287.232446 
L 77.463645 286.852737 
L 77.666002 276.094324 
L 78.070716 247.468508 
L 78.475431 234.938122 
L 78.677788 225.761828 
L 79.487217 168.510196 
L 79.891931 152.161627 
L 80.094288 154.123456 
L 80.903717 196.735208 
L 81.713146 272.423807 
L 82.11786 287.148066 
L 82.320218 289.194274 
L 82.522575 288.898945 
L 82.724932 286.367554 
L 82.927289 279.511703 
L 83.332004 256.412757 
L 83.736718 242.026017 
L 83.939075 238.967253 
L 84.141432 239.241487 
L 84.546147 245.675439 
L 84.748504 247.784932 
L 84.950861 247.806027 
L 85.355576 252.025013 
L 85.557933 248.670919 
L 85.76029 254.830638 
L 86.569719 300.015972 
L 86.772076 306.133501 
L 86.974433 307.736715 
L 87.176791 307.8 
L 87.379148 306.449925 
L 87.581505 302.695028 
L 87.783862 295.902461 
L 88.188577 273.731693 
L 88.390934 268.521246 
L 89.200363 260.399699 
L 89.40272 256.243998 
L 89.807434 241.372074 
L 90.212149 238.903968 
L 90.414506 236.182722 
L 90.616863 244.1777 
L 91.223935 295.037569 
L 91.628649 306.133501 
L 91.831006 306.196786 
L 92.033364 303.686489 
L 92.842792 257.277649 
L 93.04515 255.125967 
L 93.449864 246.477047 
L 93.652221 245.949674 
L 93.854578 242.996384 
L 94.056936 242.363536 
L 94.259293 239.72667 
L 94.46165 233.292717 
L 94.664007 230.423807 
L 94.866364 231.351984 
L 95.068722 234.516223 
L 95.271079 230.655851 
L 95.473436 240.823606 
L 96.080508 295.417278 
L 96.485222 304.677951 
L 96.687579 306.597589 
L 96.889937 302.230939 
L 97.699365 256.539327 
L 98.306437 245.970768 
L 98.508794 245.59106 
L 99.52058 224.242993 
L 99.722937 225.508689 
L 99.925295 229.896434 
L 100.127652 228.061175 
L 100.330009 238.27112 
L 100.937081 292.928076 
L 101.341795 305.268609 
L 101.544152 306.26007 
L 101.74651 302.526268 
L 101.948867 290.50216 
L 102.353581 260.294224 
L 102.555938 258.733199 
L 103.567724 240.844701 
L 104.377153 218.610648 
L 104.57951 219.897438 
L 104.781868 225.318835 
L 104.984225 225.29774 
L 105.186582 234.241989 
L 105.793654 289.763837 
L 106.198368 302.589553 
L 106.400725 304.361527 
L 106.603083 300.311301 
L 107.412511 254.11341 
L 107.614869 252.383626 
L 107.817226 248.692014 
L 108.22194 234.07323 
L 108.626655 212.23998 
L 108.829012 206.270116 
L 109.031369 204.371572 
L 109.638441 213.104872 
L 109.840798 218.568458 
L 110.043155 229.031542 
L 110.650227 284.405726 
L 111.054941 298.750276 
L 111.257298 300.669915 
L 111.459655 298.919036 
L 111.662013 287.443395 
L 112.066727 258.015972 
L 112.471442 242.933099 
L 113.887942 174.121447 
L 114.090299 171.73772 
L 114.292656 178.593571 
L 114.495014 190.090306 
L 114.697371 194.710095 
L 115.102085 228.926067 
L 115.709157 278.583526 
L 116.113871 292.611652 
L 116.316228 292.780412 
L 116.518586 291.113913 
L 116.720943 287.46449 
L 117.125657 260.06218 
L 118.542158 154.777398 
L 118.744515 144.609643 
L 118.946872 140.707082 
L 119.149229 144.398694 
L 119.756301 182.496133 
L 120.56573 262.319337 
L 120.970444 282.254043 
L 121.172801 286.367554 
L 121.375159 288.012958 
L 121.577516 286.557408 
L 121.779873 278.583526 
L 122.589302 227.280663 
L 123.196374 201.671421 
L 123.398731 197.072727 
L 123.601088 197.283677 
L 123.803445 196.714114 
L 124.410517 210.193772 
L 124.612874 221.226419 
L 125.219946 277.845203 
L 125.62466 292.463988 
L 125.827017 294.468006 
L 126.029374 291.91552 
L 127.04116 235.191261 
L 127.648232 197.557911 
L 128.255304 154.925063 
L 128.457661 147.330889 
L 128.660018 146.99337 
L 129.26709 191.588046 
L 130.278876 282.971271 
L 130.481233 290.839679 
L 130.68359 292.231944 
L 130.885947 289.637268 
L 132.504805 180.070216 
L 133.111877 137.142039 
L 133.314234 127.670417 
L 133.516591 129.379106 
L 133.921306 144.841688 
L 134.123663 152.309292 
L 135.135449 262.84671 
L 135.540163 275.545856 
L 135.74252 274.596585 
L 135.944878 263.943646 
L 136.349592 232.343446 
L 136.551949 225.529784 
L 136.754306 213.590055 
L 136.956664 218.188749 
L 137.159021 206.818584 
L 137.766092 197.937619 
L 137.96845 198.338423 
L 138.373164 192.895932 
L 138.777879 200.490105 
L 138.980236 201.333903 
L 139.182593 213.210347 
L 139.789665 270.187745 
L 140.194379 285.650326 
L 140.396736 287.738724 
L 140.599093 284.701055 
L 141.003808 254.303265 
L 141.408522 232.997388 
L 142.015594 219.51773 
L 142.622665 210.320342 
L 142.825023 210.046107 
L 143.02738 208.822602 
L 143.229737 209.518734 
L 143.634451 214.834656 
L 143.836809 213.590055 
L 144.039166 223.84219 
L 144.646238 273.499648 
L 145.050952 285.671421 
L 145.253309 286.979307 
L 145.455666 283.815068 
L 145.860381 253.965746 
L 146.062738 237.406228 
L 146.66981 220.825615 
L 146.872167 218.125465 
L 147.074524 217.028528 
L 147.479238 205.848217 
L 147.681596 214.370568 
L 147.883953 215.362029 
L 148.08631 217.998895 
L 148.491024 227.386138 
L 148.693382 226.014967 
L 149.098096 249.83114 
L 149.502811 278.203817 
L 149.907525 291.430337 
L 150.109882 293.518734 
L 150.312239 292.928076 
L 150.514597 290.059166 
L 150.716954 284.258061 
L 151.121668 263.036565 
L 151.526383 242.194776 
L 151.931097 236.288197 
L 152.133454 235.845203 
L 152.335811 237.849221 
L 152.538169 238.376595 
L 152.740526 236.288197 
L 152.942883 236.583526 
L 153.14524 235.592064 
L 153.347597 235.634254 
L 153.549955 232.659869 
L 153.752312 234.895932 
L 154.764098 287.253541 
L 154.966455 291.282672 
L 155.168812 292.696032 
L 155.573527 288.687996 
L 155.775884 277.423305 
L 156.78767 198.127474 
L 157.799456 154.756303 
L 158.001813 156.802511 
L 158.406528 170.23998 
L 158.608885 184.036062 
L 159.215956 253.881366 
L 159.620671 275.86228 
L 159.823028 279.131994 
L 160.025385 278.203817 
L 160.227743 268.225917 
L 160.632457 235.191261 
L 161.8466 183.993872 
L 162.251315 173.762833 
L 162.453672 173.910497 
L 162.656029 176.821597 
L 163.465458 209.20231 
L 164.072529 270.12446 
L 164.477244 289.067705 
L 164.679601 289.405224 
L 164.881958 286.114415 
L 165.084316 275.777901 
L 165.48903 243.439377 
L 166.500816 207.725665 
L 167.310245 164.038071 
L 167.512602 167.45545 
L 167.917316 188.402712 
L 168.119674 192.938122 
L 168.322031 204.498142 
L 168.929102 264.977298 
L 169.333817 280.439879 
L 169.536174 284.026017 
L 169.738531 280.292215 
L 170.143246 252.510196 
L 170.54796 221.648317 
L 171.357389 176.273129 
L 171.559746 170.134505 
L 172.166818 145.49563 
L 172.369175 147.141035 
L 172.571532 155.199297 
L 173.178604 194.878855 
L 173.785675 267.25555 
L 174.19039 287.000402 
L 174.392747 290.038071 
L 174.595104 288.181718 
L 174.999819 263.542843 
L 175.404533 238.081266 
L 177.023391 158.405726 
L 177.225748 158.933099 
L 177.428105 162.92004 
L 177.630462 179.817077 
L 177.83282 182.306278 
L 178.237534 227.238473 
L 178.642248 270.947162 
L 179.046963 290.50216 
L 179.24932 294.299247 
L 179.451677 291.725665 
L 179.654034 282.865796 
L 180.261106 242.258061 
L 181.879964 143.449422 
L 182.082321 140.116424 
L 182.284678 145.896434 
L 183.094107 203.316826 
L 183.498821 243.080763 
L 183.903536 264.956203 
L 184.30825 272.95118 
L 184.510607 274.343446 
L 184.712965 270.630738 
L 184.915322 256.98232 
L 185.724751 173.340934 
L 186.129465 151.52878 
L 186.331822 145.347966 
L 186.53418 144.567454 
L 186.736537 147.16213 
L 187.748323 188.423807 
L 188.557752 253.923556 
L 188.962466 268.394676 
L 189.164823 270.483074 
L 189.36718 270.567454 
L 189.569538 269.808036 
L 189.771895 258.796484 
L 190.986038 160.810547 
L 191.188395 155.389151 
L 191.390752 155.346961 
L 191.795467 164.692014 
L 192.604896 196.671924 
L 193.414325 261.370065 
L 193.819039 275.377097 
L 194.021396 276.474033 
L 194.426111 272.423807 
L 194.628468 263.268609 
L 195.437897 201.017479 
L 195.640254 195.891411 
L 195.842611 197.136012 
L 196.247325 203.337921 
L 196.449683 203.928579 
L 196.65204 203.527775 
L 197.056754 211.923556 
L 197.259112 212.788448 
L 197.461469 221.395178 
L 198.06854 270.841688 
L 198.473255 285.354997 
L 198.675612 285.460472 
L 198.877969 281.72667 
L 199.282684 250.231944 
L 199.687398 226.879859 
L 201.306256 158.933099 
L 201.508613 157.751783 
L 202.115684 177.39116 
L 202.318042 188.803516 
L 202.925113 254.366549 
L 203.329828 272.423807 
L 203.532185 274.57549 
L 203.734542 271.516725 
L 203.936899 259.724661 
L 204.341614 224.939126 
L 205.758114 168.995379 
L 205.960471 166.442893 
L 206.162829 166.590558 
L 206.365186 168.046107 
L 206.7699 180.175691 
L 206.972257 183.445404 
L 207.174615 194.541336 
L 207.781686 254.978302 
L 208.186401 271.516725 
L 208.388758 274.638774 
L 208.591115 271.221396 
L 208.793472 259.070718 
L 209.198187 224.475038 
L 209.805258 201.671421 
L 210.209973 181.314817 
L 210.817044 138.639779 
L 211.019402 129.948669 
L 211.221759 132.986339 
L 211.626473 158.047112 
L 211.82883 163.384129 
L 212.031188 178.467002 
L 212.638259 245.063687 
L 213.042974 264.091311 
L 213.245331 268.183727 
L 213.447688 266.432848 
L 213.650045 255.463486 
L 214.257117 211.164139 
L 214.661831 184.183727 
L 215.47126 123.409242 
L 215.875975 106.280161 
L 216.078332 105.794977 
L 216.280689 111.469513 
L 217.090118 176.779407 
L 217.697189 240.190758 
L 218.101904 259.091813 
L 218.304261 262.530286 
L 218.506618 263.922551 
L 218.708976 262.635761 
L 218.911333 249.599096 
L 219.518404 193.48659 
L 220.125476 157.435359 
L 220.327833 155.220392 
L 220.53019 157.498644 
L 221.541976 200.827624 
L 221.744334 206.101356 
L 222.553762 264.365545 
L 222.958477 275.503666 
L 223.160834 277.254545 
L 223.363191 277.613159 
L 223.565549 276.009945 
L 223.767906 267.086791 
L 224.374977 227.955701 
L 224.779692 220.192767 
L 225.386763 222.30226 
L 225.589121 225.909493 
L 225.791478 226.816575 
L 226.196192 235.40221 
L 226.398549 235.043596 
L 226.600907 241.625213 
L 227.410335 296.535309 
L 227.612693 300.669915 
L 227.81505 302.399699 
L 228.017407 299.129985 
L 228.826836 255.505676 
L 229.029193 253.121949 
L 229.23155 247.236464 
L 230.648051 182.285183 
L 230.850408 182.875841 
L 231.255122 197.64229 
L 231.45748 208.801507 
L 232.064551 274.027022 
L 232.469266 291.620191 
L 232.671623 294.404721 
L 232.87398 293.160121 
L 233.278694 267.25555 
L 233.683409 244.1777 
L 235.302267 178.024008 
L 235.504624 177.412255 
L 236.111695 196.988348 
L 236.314053 207.599096 
L 236.921124 271.242491 
L 237.325839 287.50668 
L 237.528196 290.713109 
L 237.730553 288.540331 
L 238.135267 264.006931 
L 238.539982 241.688498 
L 239.349411 210.003918 
L 239.754125 199.751783 
L 240.15884 189.288699 
L 240.361197 189.03556 
L 240.563554 194.625716 
L 240.968268 212.661878 
L 241.170626 220.424812 
L 241.777697 277.31783 
L 242.182412 293.560924 
L 242.384769 296.11341 
L 242.587126 293.054646 
L 242.99184 267.740733 
L 243.396555 249.345957 
L 245.21777 172.876846 
L 245.420127 177.222401 
L 246.027199 204.666901 
L 246.836627 279.933601 
L 247.038985 288.498142 
L 247.241342 291.74676 
L 247.443699 289.152084 
L 247.848413 265.019488 
L 249.467271 150.305274 
L 249.669628 142.036062 
L 249.871985 140.053139 
L 250.074343 140.221899 
L 250.2767 147.330889 
L 250.883772 180.21788 
L 251.6932 257.003415 
L 252.097915 271.875339 
L 252.300272 275.018483 
L 252.502629 275.292717 
L 252.704986 271.326871 
L 253.109701 237.785937 
L 253.91913 162.814566 
L 254.323844 146.634756 
L 254.728558 137.606128 
L 254.930916 136.319337 
L 255.133273 143.997891 
L 255.740345 182.369563 
L 256.549773 259.387142 
L 256.954488 275.229432 
L 257.156845 279.131994 
L 257.359202 280.840683 
L 257.561559 279.849221 
L 257.966274 250.274134 
L 258.573345 198.675942 
L 258.97806 176.484078 
L 259.382774 165.198292 
L 259.585131 161.675439 
L 259.787489 161.232446 
L 259.989846 163.911502 
L 260.39456 180.281165 
L 260.596917 193.950678 
L 261.203989 257.425314 
L 261.608704 276.579508 
L 261.811061 279.574987 
L 262.013418 278.77338 
L 262.418132 254.23998 
L 262.62049 241.941637 
L 263.025204 232.048117 
L 263.227561 229.179206 
L 263.429918 228.145555 
L 263.834633 229.45344 
L 264.03699 229.137017 
L 264.239347 230.107383 
L 264.441704 230.191763 
L 264.644062 229.917529 
L 264.846419 232.005927 
L 265.048776 236.140532 
L 265.251133 236.140532 
L 265.45349 240.254043 
L 266.060562 283.730688 
L 266.465277 296.872828 
L 266.667634 298.454947 
L 266.869991 294.172677 
L 267.072348 286.030035 
L 267.477063 258.901959 
L 268.084134 236.203817 
L 268.488849 225.677449 
L 269.09592 214.159618 
L 269.500635 210.109392 
L 269.702992 212.345455 
L 269.905349 216.037067 
L 270.107706 216.733199 
L 270.310063 223.188247 
L 270.917135 273.204319 
L 271.32185 285.460472 
L 271.524207 287.654345 
L 271.726564 285.903466 
L 274.15485 140.960221 
L 274.357208 133.619186 
L 274.559565 137.036565 
L 275.166636 162.793471 
L 275.976065 246.308287 
L 276.38078 259.176193 
L 276.583137 258.458965 
L 276.987851 236.098343 
L 277.392566 206.50216 
L 278.404352 148.195781 
L 278.606709 145.073732 
L 279.011423 131.530789 
L 279.213781 129.885384 
L 279.416138 134.252034 
L 280.023209 176.969262 
L 280.630281 250.020994 
L 281.034995 273.351984 
L 281.237353 278.351482 
L 281.43971 276.769362 
L 281.642067 270.736213 
L 282.249139 227.976796 
L 282.85621 193.52878 
L 283.867996 149.714616 
L 284.070354 148.49111 
L 284.272711 156.844701 
L 285.284497 241.920542 
L 285.689211 274.870819 
L 286.093926 289.974787 
L 286.296283 292.316323 
L 286.49864 290.45997 
L 286.700997 287.443395 
L 287.105712 255.674435 
L 287.712783 202.873832 
L 288.522212 158.384631 
L 288.724569 151.085786 
L 288.926927 149.102863 
L 289.129284 152.77338 
L 289.736355 187.411251 
L 290.545784 259.197288 
L 290.950499 274.849724 
L 291.152856 277.697539 
L 291.355213 277.781919 
L 291.55757 276.263084 
L 291.759927 263.479558 
L 292.771714 162.392667 
L 293.176428 139.863285 
L 293.581142 128.345455 
L 293.7835 126.573481 
L 293.985857 130.180713 
L 294.592928 156.338423 
L 295.402357 241.667403 
L 295.807072 256.729181 
L 296.009429 256.560422 
L 296.414143 235.760824 
L 297.830644 97.293722 
L 298.235358 83.645304 
L 298.437715 80.987343 
L 298.640073 81.261577 
L 298.84243 83.37107 
L 299.044787 91.619186 
L 299.449501 119.295731 
L 300.056573 200.363536 
L 300.461287 226.268106 
L 300.663645 232.44892 
L 300.866002 233.187243 
L 301.068359 226.183727 
L 301.473073 195.342943 
L 302.484859 87.273631 
L 302.687217 75.650326 
L 302.889574 75.755801 
L 303.091931 84.067202 
L 303.496646 92.948167 
L 303.90136 115.793973 
L 304.306074 144.483074 
L 304.913146 215.551883 
L 305.31786 241.583024 
L 305.520218 247.299749 
L 305.722575 245.46449 
L 305.924932 238.14455 
L 306.532004 197.114917 
L 307.54379 125.223405 
L 307.746147 114.739227 
L 307.948504 113.832145 
L 308.757933 146.972275 
L 309.162647 173.741738 
L 309.769719 238.439879 
L 310.174433 258.859769 
L 310.376791 263.374083 
L 310.579148 262.783425 
L 310.983862 238.735208 
L 312.198005 131.889402 
L 312.60272 119.949674 
L 312.805077 115.456454 
L 313.007434 116.026017 
L 313.209791 119.823104 
L 313.816863 148.153591 
L 314.01922 162.202813 
L 314.626292 226.479056 
L 315.031006 247.531793 
L 315.233364 252.235962 
L 315.435721 251.560924 
L 315.840435 232.280161 
L 316.24515 213.062682 
L 316.649864 200.72215 
L 317.054578 185.006429 
L 317.66165 177.285686 
L 317.864007 176.821597 
L 318.066364 175.89342 
L 318.268722 180.703064 
L 318.875793 203.443395 
L 319.685222 263.627223 
L 320.089937 276.748267 
L 320.292294 278.435861 
L 320.697008 270.293219 
L 321.101723 243.354997 
L 322.315866 163.320844 
L 322.72058 152.794475 
L 322.922937 150.410748 
L 323.125295 154.650829 
L 323.732366 183.023506 
L 324.541795 253.417278 
L 324.94651 268.099347 
L 325.148867 271.073732 
L 325.351224 271.137017 
L 325.553581 268.816575 
L 325.755938 256.159618 
L 326.970082 140.707082 
L 327.172439 134.209844 
L 327.374796 132.585535 
L 327.77951 126.86881 
L 327.981868 131.994877 
L 328.184225 141.023506 
L 328.791296 194.077248 
L 329.196011 238.988348 
L 329.398368 254.640784 
L 329.803083 265.019488 
L 330.00544 264.049121 
L 330.207797 258.290206 
L 330.814869 208.463988 
L 331.42194 169.206328 
L 331.826655 145.917529 
L 332.029012 142.943144 
L 332.231369 142.964239 
L 332.433726 143.154093 
L 332.636083 145.305776 
L 332.838441 149.967755 
L 333.243155 173.509694 
L 333.445512 182.770367 
L 334.052584 250.274134 
L 334.457298 272.655851 
L 334.659655 278.224912 
L 334.862013 275.756806 
L 335.266727 255.379106 
L 335.671442 230.360522 
L 336.48087 189.16213 
L 336.683228 183.951683 
L 336.885585 182.812557 
L 337.087942 176.462983 
L 337.290299 174.56444 
L 337.695014 181.209342 
L 338.099728 196.060171 
L 338.302085 202.09332 
L 339.111514 269.702562 
L 339.313871 276.07323 
L 339.516228 278.372577 
L 339.718586 274.195781 
L 340.1233 250.210849 
L 340.932729 204.540331 
L 342.349229 141.107885 
L 342.551587 141.023506 
L 343.158658 166.379608 
L 343.76573 230.845706 
L 344.170444 249.345957 
L 344.372801 254.23998 
L 344.575159 252.046107 
L 344.777516 244.937117 
L 345.18223 213.210347 
L 346.194016 128.32436 
L 346.598731 113.157107 
L 347.003445 106.36454 
L 347.205802 105.499648 
L 347.40816 108.769362 
L 347.610517 116.827624 
L 348.015231 143.639277 
L 348.82466 237.237469 
L 349.229374 254.809543 
L 349.431732 254.029031 
L 349.634089 248.080261 
L 349.836446 236.646811 
L 351.050589 129.379106 
L 351.455304 110.520241 
L 351.860018 101.428327 
L 352.062375 100.500151 
L 352.264733 104.233953 
L 352.46709 115.625213 
L 353.276519 200.975289 
L 353.681233 239.937619 
L 354.085947 260.673933 
L 354.288305 266.095329 
L 354.490662 266.685987 
L 354.693019 264.38664 
L 355.097733 221.205324 
L 355.704805 145.369061 
L 356.109519 119.991863 
L 356.716591 101.301758 
L 356.918948 100.183727 
L 357.121306 105.11994 
L 357.52602 131.446409 
L 357.728377 144.483074 
L 358.740163 242.574485 
L 359.144878 255.906479 
L 359.347235 257.826118 
L 359.549592 257.488599 
L 359.751949 243.101858 
L 360.763735 119.169161 
L 361.16845 99.571974 
L 361.573164 88.159618 
L 361.775521 85.796986 
L 361.977879 89.172175 
L 362.180236 96.365545 
L 362.58495 122.860773 
L 363.394379 214.054144 
L 363.799093 232.195781 
L 364.001451 233.039578 
L 364.203808 226.985334 
L 364.406165 216.64882 
L 365.013237 145.137017 
L 365.620308 78.772376 
L 366.025023 62.149573 
L 366.429737 55.8 
L 366.632094 56.306278 
L 366.834451 59.027524 
L 367.036809 67.992868 
L 367.441523 98.010949 
L 368.048595 179.901457 
L 368.453309 211.290708 
L 368.655666 220.066198 
L 368.858024 222.513209 
L 369.060381 218.505173 
L 369.262738 208.358513 
L 369.86981 143.006429 
L 370.476881 83.160121 
L 370.881596 66.052135 
L 371.083953 65.588046 
L 371.28631 66.326369 
L 371.488667 70.376595 
L 371.691024 76.789453 
L 372.298096 116.912004 
L 373.107525 204.413762 
L 373.512239 227.301758 
L 373.714597 231.794977 
L 374.119311 231.07775 
L 374.321668 217.956705 
L 375.333454 111.047614 
L 375.738169 97.399196 
L 375.940526 94.614666 
L 376.142883 93.47554 
L 376.34524 98.812557 
L 376.749955 125.835158 
L 377.559383 186.504169 
L 377.964098 222.196786 
L 378.368812 236.414766 
L 378.57117 236.646811 
L 378.773527 230.529282 
L 378.975884 218.969262 
L 380.392384 98.791462 
L 380.797099 88.560422 
L 381.201813 80.734204 
L 381.40417 84.615671 
L 382.011242 122.776394 
L 382.820671 208.189754 
L 383.225385 224.791462 
L 383.427743 225.466499 
L 383.6301 219.960723 
L 384.034814 197.030537 
L 385.0466 121.320844 
L 385.451315 104.107383 
L 385.653672 103.6222 
L 385.856029 107.524761 
L 386.058386 115.393169 
L 387.070172 187.558915 
L 387.474887 228.926067 
L 387.879601 251.497639 
L 388.284316 260.927072 
L 388.68903 263.521748 
L 388.891387 257.594073 
L 389.700816 212.682973 
L 390.307888 201.122953 
L 390.914959 187.980814 
L 391.117316 192.917027 
L 391.926745 233.735711 
L 392.533817 279.321848 
L 392.938531 292.084279 
L 393.140888 294.003918 
L 393.343246 293.539829 
L 393.545603 294.025013 
L 393.74796 284.785434 
L 394.355032 242.321346 
L 395.569175 184.057157 
L 395.771532 177.855249 
L 395.973889 179.099849 
L 396.176247 187.685485 
L 396.783318 231.056655 
L 397.188033 270.799498 
L 397.592747 289.194274 
L 397.795104 292.063184 
L 397.997461 289.447413 
L 398.402176 270.736213 
L 400.628105 139.061678 
L 400.830462 141.993872 
L 401.03282 152.267102 
L 401.639891 211.121949 
L 402.044606 256.876846 
L 402.44932 277.845203 
L 402.651677 281.979809 
L 402.854034 280.27112 
L 403.258749 261.496635 
L 403.663463 232.174686 
L 404.877607 122.755299 
L 405.282321 101.575992 
L 405.484678 97.230437 
L 405.687035 98.348468 
L 405.889393 109.191261 
L 406.294107 147.752788 
L 406.901179 227.639277 
L 407.305893 252.468006 
L 407.50825 258.248016 
L 407.710607 257.699548 
L 408.115322 235.781919 
L 409.73418 99.276645 
L 409.936537 94.192767 
L 410.138894 94.045103 
L 410.341251 98.791462 
L 410.948323 136.045103 
L 411.15068 152.456956 
L 411.757752 225.29774 
L 412.162466 250.126469 
L 412.364823 256.813561 
L 412.56718 258.64882 
L 412.971895 240.021999 
L 414.388395 138.808538 
L 414.79311 124.843697 
L 415.197824 117.96675 
L 415.400181 124.949171 
L 416.20961 189.478553 
L 416.614325 236.140532 
L 417.019039 259.93561 
L 417.221396 264.323355 
L 417.423753 263.753792 
L 417.828468 247.0888 
L 419.244968 146.276143 
L 419.649683 132.248016 
L 419.85204 128.303265 
L 420.054397 129.77991 
L 420.256754 138.703064 
L 421.066183 205.974787 
L 421.673255 262.720141 
L 422.077969 279.279658 
L 422.280326 281.832145 
L 422.482684 281.157107 
L 422.685041 280.988348 
L 423.089755 249.324862 
L 423.899184 178.234957 
L 424.708613 137.774887 
L 424.91097 134.505173 
L 425.113327 138.618684 
L 425.518042 165.493621 
L 425.720399 177.623204 
L 426.529828 254.345455 
L 426.934542 273.436364 
L 427.136899 278.035058 
L 427.339257 278.85776 
L 427.541614 279.089804 
L 427.743971 270.25103 
L 428.148685 228.778403 
L 428.755757 165.177197 
L 429.160471 138.829633 
L 429.565186 130.349473 
L 429.9699 134.378604 
L 430.374615 151.043596 
L 430.576972 163.00442 
L 431.386401 241.076745 
L 431.791115 253.649322 
L 431.993472 251.560924 
L 432.398187 230.698041 
L 433.207616 163.827122 
L 434.017044 91.534807 
L 434.219402 86.514214 
L 435.02883 114.675942 
L 435.433545 140.348468 
L 436.040617 213.484581 
L 436.445331 236.625716 
L 436.647688 241.899448 
L 436.850045 241.203315 
L 437.25476 220.045103 
L 437.659474 184.183727 
L 438.468903 108.727172 
L 438.67126 98.728177 
L 438.873617 99.719638 
L 439.075975 107.018483 
L 439.278332 106.554395 
L 439.480689 108.853742 
L 439.885403 127.902461 
L 440.290118 153.321848 
L 440.897189 228.715118 
L 441.301904 251.624209 
L 441.504261 257.19327 
L 441.706618 257.741738 
L 442.111333 242.616675 
L 442.920762 189.204319 
L 443.527833 153.406228 
L 444.134905 130.054144 
L 444.337262 127.396183 
L 444.539619 133.9778 
L 445.146691 180.238975 
L 445.753762 251.265595 
L 446.158477 273.03556 
L 446.360834 278.119437 
L 446.563191 276.07323 
L 446.967906 256.665897 
L 448.586763 143.955701 
L 448.991478 130.412757 
L 449.193835 128.029031 
L 449.396192 134.863787 
L 450.003264 176.315319 
L 450.812693 258.48006 
L 451.217407 272.128478 
L 451.419764 272.255048 
L 451.824479 254.619689 
L 452.43155 202.873832 
L 453.038622 159.861276 
L 453.443336 142.373581 
L 453.848051 134.294224 
L 454.050408 137.753792 
L 454.252765 148.005927 
L 454.65748 177.159116 
L 454.859837 185.829131 
L 455.669266 252.257057 
L 456.07398 266.158614 
L 456.276337 267.719638 
L 456.478694 265.67343 
L 456.681052 262.488096 
L 456.883409 254.28217 
L 457.288123 226.563435 
L 457.692838 215.319839 
L 457.895195 216.037067 
L 458.299909 221.943646 
L 458.502267 221.795982 
L 458.906981 217.872325 
L 459.109338 218.420794 
L 459.514053 222.681969 
L 459.71641 227.090809 
L 460.728196 286.304269 
L 461.13291 290.839679 
L 461.537625 287.443395 
L 461.739982 278.288197 
L 462.144696 242.890909 
L 463.561197 171.927574 
L 463.763554 164.481065 
L 463.965911 165.683476 
L 464.572983 185.660372 
L 465.382412 254.366549 
L 465.584769 261.454445 
L 465.787126 264.238975 
L 465.989483 261.749774 
L 467.608341 166.822602 
L 468.620127 145.094827 
L 468.822484 148.301256 
L 469.429556 175.218383 
L 470.036627 233.398192 
L 470.441342 251.645304 
L 470.643699 254.345455 
L 470.846056 251.708589 
L 471.857842 199.477549 
L 472.869628 168.446911 
L 473.071985 168.953189 
L 473.274343 167.117931 
L 473.4767 168.404721 
L 473.679057 172.286188 
L 473.881414 179.036565 
L 474.083772 180.21788 
L 474.286129 188.086288 
L 474.8932 241.540834 
L 475.297915 258.205826 
L 475.500272 259.914515 
L 475.702629 257.826118 
L 476.107344 232.828629 
L 476.512058 210.257057 
L 477.321487 177.960723 
L 477.726201 157.287695 
L 477.928558 153.638272 
L 478.333273 158.447916 
L 478.53563 163.025515 
L 479.142702 188.592567 
L 479.952131 258.100352 
L 480.356845 268.204822 
L 480.559202 267.782923 
L 480.963917 245.126971 
L 482.785131 113.452436 
L 482.987489 107.398192 
L 483.189846 104.698041 
L 483.392203 110.478051 
L 483.999275 151.36002 
L 484.606346 224.285183 
L 485.011061 248.101356 
L 485.213418 252.615671 
L 485.415775 253.586037 
L 485.82049 233.313812 
L 486.225204 201.312808 
L 487.23699 109.043596 
L 487.439347 105.879357 
L 487.844062 112.608639 
L 488.248776 131.699548 
L 489.260562 211.206328 
L 489.665277 244.1777 
L 490.069991 259.661376 
L 490.272348 262.066198 
L 490.474705 260.905977 
L 490.677063 259.091813 
L 490.87942 249.113913 
L 491.891206 167.37107 
L 492.29592 149.208338 
L 492.498277 141.635259 
L 492.700635 139.567956 
L 492.902992 141.234455 
L 493.105349 146.170668 
L 493.712421 180.534304 
L 494.52185 254.345455 
L 495.128921 273.07775 
L 495.331278 273.225414 
L 495.533636 272.592567 
L 495.735993 264.850728 
L 496.950136 171.041587 
L 497.557208 146.065193 
L 497.759565 142.62672 
L 497.961922 145.917529 
L 498.568994 178.213862 
L 499.378422 253.881366 
L 499.58078 260.884882 
L 499.783137 263.437368 
L 499.985494 260.041085 
L 500.187851 251.307785 
L 500.794923 213.463486 
L 500.99728 208.231944 
L 501.401995 194.81557 
L 501.806709 183.276645 
L 502.009066 182.812557 
L 502.211423 184.922049 
L 502.413781 185.575992 
L 502.616138 183.867303 
L 503.020852 193.824108 
L 503.223209 194.393672 
L 503.425567 202.09332 
L 504.032638 254.050126 
L 504.437353 267.445404 
L 504.63971 269.111904 
L 504.842067 266.685987 
L 505.246782 241.709593 
L 505.651496 217.302762 
L 507.270354 142.331391 
L 507.472711 139.146057 
L 507.675068 142.62672 
L 508.28214 171.358011 
L 508.889211 230.824611 
L 509.293926 248.37559 
L 509.496283 251.982823 
L 509.69864 250.105374 
L 510.103354 225.972777 
L 511.722212 116.954194 
L 512.126927 98.749272 
L 512.329284 100.373581 
L 512.936355 135.602109 
L 513.34107 175.513712 
L 513.745784 220.066198 
L 514.150499 243.354997 
L 514.352856 249.071723 
L 514.555213 249.578001 
L 514.75757 240.464992 
L 516.174071 141.29774 
L 516.376428 140.179709 
L 516.781142 149.735711 
L 516.9835 146.930085 
L 517.185857 147.478553 
L 517.590571 165.620191 
L 517.792928 169.965746 
L 517.995286 180.935108 
L 518.4 221.585033 
L 518.4 221.585033 
" clip-path="url(#p3163a1fa96)" style="fill: none; stroke: #1f77b4; stroke-width: 1.5; stroke-linecap: square"/>
   </g>
   <g id="line2d_14">
    <path d="M 72 254.373487 
L 72.202357 254.373487 
L 72.809429 258.213981 
L 73.011786 256.8807 
L 73.4165 246.577075 
L 74.023572 225.11503 
L 75.237715 169.399134 
L 75.440073 166.117126 
L 75.64243 168.162674 
L 76.047144 179.057236 
L 76.249501 189.151038 
L 77.05893 252.858693 
L 77.261287 254.769095 
L 77.666002 246.616111 
L 78.880145 203.359336 
L 79.284859 185.831334 
L 79.689574 180.363681 
L 79.891931 174.606166 
L 80.094288 173.657164 
L 80.296646 178.009465 
L 81.106074 215.375626 
L 81.510789 255.873113 
L 81.713146 265.078135 
L 82.11786 271.843168 
L 82.320218 272.067324 
L 82.522575 269.63931 
L 82.927289 258.790231 
L 83.332004 241.073274 
L 83.534361 230.209046 
L 83.736718 225.91512 
L 84.141432 222.460225 
L 84.34379 222.632327 
L 84.950861 224.416513 
L 85.153218 226.124967 
L 85.76029 244.946794 
L 86.569719 275.632964 
L 86.772076 276.754373 
L 86.974433 280.792816 
L 87.176791 282.228928 
L 87.379148 281.879334 
L 87.783862 273.543171 
L 88.593291 239.488566 
L 88.795648 236.473665 
L 88.998005 236.196235 
L 89.200363 236.293044 
L 89.40272 235.512323 
L 89.605077 234.231832 
L 90.009791 229.476347 
L 90.212149 230.727014 
L 91.831006 281.360748 
L 92.033364 281.004349 
L 92.235721 274.847681 
L 93.04515 236.079902 
L 93.247507 229.617636 
L 93.854578 228.326712 
L 94.259293 222.002589 
L 94.46165 225.453081 
L 94.866364 222.060785 
L 95.068722 221.439477 
L 95.271079 224.541172 
L 95.473436 229.433519 
L 96.282865 267.943754 
L 96.485222 272.797994 
L 96.687579 274.171125 
L 96.889937 272.287809 
L 98.306437 226.791794 
L 98.508794 225.136828 
L 98.913509 229.006437 
L 99.52058 223.78155 
L 99.722937 223.343813 
L 99.925295 223.654795 
L 100.734723 258.095906 
L 101.139438 276.149404 
L 101.341795 276.075266 
L 101.74651 272.112415 
L 102.151224 259.958909 
L 103.16301 229.225099 
L 103.365367 227.477068 
L 103.770082 228.82386 
L 103.972439 224.657601 
L 104.174796 224.471345 
L 104.377153 220.505103 
L 104.57951 219.314584 
L 104.781868 220.835532 
L 105.388939 245.806401 
L 105.996011 275.605514 
L 106.198368 276.823756 
L 106.603083 272.421109 
L 107.210154 255.041514 
L 108.22194 224.766506 
L 108.626655 216.990803 
L 109.031369 205.554897 
L 109.233726 204.864767 
L 109.840798 219.429073 
L 110.245512 243.341946 
L 110.650227 267.330897 
L 110.852584 273.982115 
L 111.054941 275.213526 
L 111.86437 261.933408 
L 112.269084 250.051545 
L 113.28087 203.868747 
L 113.483228 200.840844 
L 113.685585 199.5051 
L 114.090299 188.323349 
L 114.292656 189.525889 
L 114.495014 193.356211 
L 114.899728 214.742561 
L 115.304442 247.565131 
L 115.709157 267.438913 
L 115.911514 272.572076 
L 116.113871 273.103714 
L 116.316228 272.167093 
L 116.518586 268.659648 
L 117.328015 241.261592 
L 118.137443 191.680051 
L 118.542158 178.347865 
L 118.744515 169.671079 
L 118.946872 166.516406 
L 119.149229 167.610223 
L 119.351587 171.230631 
L 119.756301 190.280082 
L 120.56573 257.365453 
L 120.970444 272.74761 
L 121.172801 277.118776 
L 121.375159 274.870377 
L 121.779873 258.684073 
L 122.386945 227.632645 
L 122.589302 224.759366 
L 123.398731 190.285166 
L 123.601088 185.774539 
L 123.803445 188.998816 
L 124.815231 232.200808 
L 125.62466 278.439343 
L 126.029374 287.37961 
L 126.231732 282.926893 
L 126.636446 262.424402 
L 127.243518 227.223337 
L 127.445875 220.924348 
L 128.255304 177.65702 
L 128.660018 169.532921 
L 128.862375 169.33587 
L 129.26709 188.57615 
L 129.469447 201.219576 
L 129.874161 247.787198 
L 130.481233 277.582434 
L 130.68359 279.639292 
L 130.885947 275.216697 
L 132.100091 219.481642 
L 132.707162 177.978176 
L 133.111877 165.135375 
L 133.314234 157.849648 
L 133.516591 155.7825 
L 133.921306 168.556713 
L 134.32602 189.345027 
L 135.135449 262.722914 
L 135.337806 269.652369 
L 135.540163 271.988342 
L 135.74252 269.597884 
L 135.944878 263.895853 
L 136.349592 243.44331 
L 136.754306 220.911765 
L 137.361378 192.000442 
L 137.563735 186.765937 
L 137.766092 187.769738 
L 137.96845 186.304114 
L 138.170807 185.837956 
L 138.373164 190.183171 
L 139.38495 227.67304 
L 139.789665 259.538304 
L 139.992022 269.902137 
L 140.396736 275.862298 
L 140.599093 275.128008 
L 141.003808 261.670517 
L 141.610879 227.526816 
L 142.015594 222.839966 
L 142.217951 215.467536 
L 142.420308 212.570163 
L 142.622665 212.418199 
L 143.02738 211.121186 
L 143.432094 213.73135 
L 144.039166 235.139845 
L 145.050952 274.642377 
L 145.455666 267.218012 
L 146.265095 237.162512 
L 146.467452 226.398805 
L 146.66981 223.825006 
L 147.276881 210.262017 
L 147.681596 211.212426 
L 148.08631 219.923631 
L 148.491024 227.007144 
L 149.300453 260.117245 
L 149.502811 271.023949 
L 149.705168 275.164564 
L 149.907525 274.05451 
L 151.121668 246.466695 
L 151.931097 223.891067 
L 152.133454 223.735312 
L 152.335811 226.446041 
L 152.538169 226.822525 
L 152.740526 226.040468 
L 152.942883 226.455904 
L 153.14524 228.280698 
L 153.954669 254.553865 
L 154.359383 264.708043 
L 154.561741 269.455818 
L 154.966455 272.527587 
L 155.168812 272.791586 
L 155.573527 265.196999 
L 155.775884 260.406452 
L 156.585313 224.756575 
L 156.990027 198.317874 
L 157.799456 181.289685 
L 158.20417 176.890281 
L 158.406528 179.735497 
L 158.608885 189.796485 
L 159.620671 263.769403 
L 159.823028 271.572677 
L 160.025385 274.197294 
L 160.4301 255.975483 
L 160.834814 231.632185 
L 161.037171 224.289485 
L 161.441886 193.233986 
L 161.8466 179.374683 
L 162.048957 178.12321 
L 162.251315 178.396289 
L 162.453672 179.633908 
L 162.656029 184.046438 
L 163.263101 206.353388 
L 163.465458 211.670395 
L 164.072529 254.284957 
L 164.477244 273.705441 
L 164.679601 277.086141 
L 164.881958 275.637905 
L 165.084316 268.963452 
L 165.893744 226.877643 
L 166.298459 222.346965 
L 167.310245 186.347751 
L 167.512602 185.557374 
L 167.714959 188.975927 
L 168.119674 203.049639 
L 168.322031 212.540311 
L 168.726745 250.32904 
L 169.13146 272.471327 
L 169.333817 275.85671 
L 169.536174 273.484732 
L 169.738531 268.111977 
L 170.750317 222.167746 
L 171.155032 194.581531 
L 171.357389 180.094716 
L 171.559746 174.311287 
L 171.762103 173.903305 
L 171.964461 171.601717 
L 172.166818 167.813605 
L 172.369175 167.590603 
L 172.773889 179.649588 
L 173.178604 200.444025 
L 173.988033 266.168594 
L 174.19039 272.354648 
L 174.392747 273.431625 
L 174.595104 270.282642 
L 176.011605 212.983502 
L 176.416319 190.967624 
L 177.023391 179.720022 
L 177.225748 180.833024 
L 178.035177 208.830284 
L 178.642248 263.141692 
L 179.046963 278.359163 
L 179.24932 279.872662 
L 179.451677 277.74218 
L 180.261106 240.258618 
L 180.463463 229.005361 
L 180.66582 223.995981 
L 181.475249 179.23755 
L 181.677607 175.449234 
L 181.879964 166.979284 
L 182.082321 165.187592 
L 182.284678 168.787443 
L 182.689393 184.077749 
L 182.89175 195.29449 
L 183.498821 251.292324 
L 183.903536 266.417241 
L 184.105893 270.672798 
L 184.30825 271.532526 
L 184.712965 255.884935 
L 185.320036 228.498322 
L 185.522393 213.878538 
L 185.927108 172.372775 
L 186.129465 162.321871 
L 186.53418 156.986408 
L 186.736537 152.538939 
L 186.938894 157.571327 
L 187.545966 190.486834 
L 187.95068 215.264996 
L 188.355394 242.305466 
L 188.760109 259.311168 
L 189.164823 269.058979 
L 189.36718 266.789551 
L 190.581324 204.491168 
L 190.986038 170.698832 
L 191.188395 165.043084 
L 191.390752 164.764308 
L 191.59311 165.875823 
L 192.604896 204.167328 
L 193.00961 234.376689 
L 193.819039 272.109904 
L 194.021396 273.568853 
L 194.426111 257.807646 
L 195.437897 210.863071 
L 195.842611 185.719291 
L 196.044968 184.057824 
L 196.449683 196.221897 
L 196.854397 210.198533 
L 197.259112 220.342265 
L 197.663826 240.216954 
L 198.06854 253.950344 
L 198.675612 279.818792 
L 198.877969 281.230293 
L 199.080326 274.67917 
L 200.092112 217.923217 
L 200.699184 189.670246 
L 201.103898 182.164038 
L 201.306256 181.878867 
L 201.508613 182.729458 
L 202.115684 194.049575 
L 202.318042 199.491345 
L 203.127471 260.258574 
L 203.329828 269.700998 
L 203.532185 273.340135 
L 203.734542 269.350397 
L 205.3534 182.62795 
L 205.555757 178.029868 
L 205.758114 179.256485 
L 205.960471 178.788117 
L 206.162829 177.930785 
L 206.365186 181.212139 
L 207.376972 218.70994 
L 207.781686 252.52185 
L 207.984044 261.225722 
L 208.186401 264.150876 
L 208.388758 263.939983 
L 208.591115 261.088129 
L 208.793472 256.238989 
L 210.007616 198.582223 
L 210.41233 179.362245 
L 210.817044 171.654568 
L 211.221759 156.81452 
L 211.424116 161.272133 
L 212.031188 188.936965 
L 212.233545 205.611242 
L 212.638259 249.97043 
L 213.042974 263.356474 
L 213.245331 261.429944 
L 214.05476 233.638291 
L 215.673617 140.26341 
L 215.875975 132.263519 
L 216.078332 131.438309 
L 216.280689 137.139962 
L 216.685403 155.162812 
L 217.090118 186.700799 
L 217.697189 246.960636 
L 217.899547 249.478682 
L 218.101904 250.465102 
L 218.304261 248.440001 
L 218.911333 237.336018 
L 219.11369 232.331864 
L 220.327833 155.701455 
L 220.53019 155.186739 
L 220.732548 154.227299 
L 220.934905 162.042627 
L 222.149048 235.035112 
L 222.553762 257.100775 
L 222.958477 266.054229 
L 223.160834 267.52668 
L 223.363191 265.055913 
L 223.565549 260.085084 
L 224.17262 232.477349 
L 224.577335 217.33336 
L 224.779692 216.501035 
L 224.982049 212.138946 
L 225.184406 210.278411 
L 225.386763 212.069771 
L 225.993835 223.395337 
L 226.196192 223.71788 
L 226.398549 229.136049 
L 227.005621 255.566149 
L 227.612693 280.026922 
L 227.81505 282.341404 
L 228.017407 280.920305 
L 228.422121 265.119747 
L 229.23155 228.612157 
L 229.433908 226.266021 
L 229.636265 226.881111 
L 229.838622 225.850035 
L 230.445694 204.402803 
L 230.648051 206.150091 
L 230.850408 204.43415 
L 231.052765 204.780579 
L 231.255122 207.015636 
L 231.45748 217.69288 
L 231.862194 251.024973 
L 232.469266 278.007249 
L 232.671623 281.031569 
L 232.87398 276.258784 
L 234.290481 216.662786 
L 234.695195 196.703228 
L 235.099909 194.215305 
L 235.504624 186.413636 
L 235.706981 190.93687 
L 236.314053 214.146704 
L 237.325839 272.528292 
L 237.528196 273.800692 
L 237.730553 273.492524 
L 237.93291 270.680981 
L 238.539982 244.7909 
L 238.944696 226.096821 
L 239.147053 220.323892 
L 239.551768 202.046648 
L 239.754125 198.971458 
L 239.956482 197.987134 
L 240.15884 195.72058 
L 240.361197 195.346079 
L 240.765911 206.263481 
L 241.170626 227.282376 
L 241.980054 272.991175 
L 242.182412 276.44625 
L 242.384769 277.261624 
L 242.587126 275.479601 
L 242.789483 270.093678 
L 243.801269 226.940085 
L 244.003626 224.174025 
L 244.610698 201.054338 
L 245.21777 191.703254 
L 245.622484 198.065338 
L 245.824841 203.911835 
L 246.027199 215.671001 
L 246.431913 248.112443 
L 246.836627 268.879895 
L 247.038985 274.528351 
L 247.241342 276.406976 
L 247.443699 275.641564 
L 247.646056 269.763915 
L 248.657842 222.459248 
L 249.264914 178.440733 
L 250.074343 159.048347 
L 250.479057 172.872509 
L 250.883772 193.904398 
L 251.6932 256.185792 
L 251.895558 262.630655 
L 252.300272 267.411718 
L 252.502629 264.046416 
L 253.109701 240.571451 
L 253.514415 218.042079 
L 253.91913 176.670623 
L 254.121487 164.945507 
L 254.526201 158.567471 
L 254.728558 155.571563 
L 254.930916 156.393697 
L 255.33563 173.239347 
L 255.740345 194.517139 
L 256.549773 255.248209 
L 257.156845 273.73359 
L 257.359202 270.967657 
L 258.168631 229.231612 
L 258.573345 211.862286 
L 258.97806 179.35339 
L 259.180417 172.913999 
L 259.585131 169.016995 
L 259.787489 172.56477 
L 260.596917 202.902439 
L 261.406346 261.335397 
L 261.811061 279.662744 
L 262.013418 281.917717 
L 262.215775 276.560615 
L 263.025204 225.241216 
L 263.227561 219.27652 
L 263.429918 217.455655 
L 263.632276 212.987271 
L 263.834633 211.485968 
L 264.239347 215.549497 
L 264.846419 224.016324 
L 265.048776 224.161791 
L 265.251133 226.541241 
L 265.655848 243.332065 
L 266.465277 279.219731 
L 266.667634 281.149337 
L 266.869991 277.921449 
L 268.286491 227.447092 
L 268.488849 224.831903 
L 268.893563 223.302755 
L 269.09592 220.385104 
L 269.500635 217.599658 
L 269.702992 218.071404 
L 269.905349 222.117996 
L 270.917135 264.857593 
L 271.119492 271.848691 
L 271.32185 272.367162 
L 271.524207 271.771484 
L 271.928921 263.551943 
L 272.940707 221.37293 
L 273.547779 190.608034 
L 274.559565 165.617033 
L 274.761922 166.435682 
L 275.166636 179.305005 
L 275.571351 216.218258 
L 275.976065 249.507479 
L 276.38078 260.339748 
L 276.583137 259.990506 
L 276.785494 254.843444 
L 277.392566 225.816267 
L 277.79728 191.947774 
L 278.201995 166.772403 
L 278.606709 157.395909 
L 278.809066 155.405807 
L 279.011423 150.969122 
L 279.213781 149.302061 
L 279.416138 154.847218 
L 280.023209 187.6287 
L 281.034995 260.535165 
L 281.237353 263.417463 
L 281.43971 264.087234 
L 281.642067 258.383498 
L 282.451496 219.612253 
L 282.653853 215.884144 
L 283.260925 179.208357 
L 283.463282 174.062301 
L 283.665639 172.218405 
L 283.867996 168.820744 
L 284.070354 167.81415 
L 284.272711 172.527842 
L 284.677425 193.530486 
L 285.891568 273.195217 
L 286.093926 275.248563 
L 286.296283 273.04302 
L 286.49864 267.29336 
L 287.510426 224.406946 
L 287.712783 219.328987 
L 288.117498 188.474472 
L 288.522212 176.290098 
L 288.926927 170.992653 
L 289.331641 181.473428 
L 289.736355 199.540872 
L 290.14107 238.042864 
L 290.748141 269.602895 
L 290.950499 275.819924 
L 291.152856 277.250692 
L 291.355213 272.252278 
L 292.366999 219.204359 
L 292.974071 165.471097 
L 293.378785 152.146528 
L 293.581142 147.824452 
L 293.7835 146.256378 
L 293.985857 151.694884 
L 294.592928 178.101603 
L 294.795286 192.043137 
L 295.2 232.901629 
L 295.807072 265.736981 
L 296.009429 268.986764 
L 296.211786 265.909753 
L 296.818858 222.381268 
L 297.830644 123.146309 
L 298.033001 112.769039 
L 298.235358 108.166233 
L 298.437715 108.367897 
L 298.640073 111.669276 
L 299.449501 146.874067 
L 299.854216 185.886643 
L 300.25893 222.641313 
L 300.663645 244.99607 
L 300.866002 244.996528 
L 301.270716 233.286771 
L 301.675431 200.748523 
L 302.282502 133.190106 
L 302.687217 103.424442 
L 302.889574 97.798247 
L 303.091931 101.461824 
L 303.496646 116.116809 
L 305.31786 235.471608 
L 305.520218 239.482158 
L 305.722575 240.215 
L 306.329646 223.014467 
L 307.139075 166.305156 
L 307.54379 138.319611 
L 307.746147 133.071563 
L 307.948504 133.315199 
L 308.150861 137.770588 
L 308.96029 176.173118 
L 309.365005 205.422931 
L 309.972076 246.572993 
L 310.174433 254.277556 
L 310.376791 255.723171 
L 310.781505 244.496387 
L 311.186219 229.939844 
L 312.400363 134.218481 
L 312.60272 129.116568 
L 313.209791 138.90387 
L 313.816863 167.909805 
L 315.031006 251.407381 
L 315.233364 252.178664 
L 315.435721 249.429929 
L 316.042792 224.552855 
L 316.447507 204.928089 
L 317.054578 172.003009 
L 317.256936 163.622568 
L 317.459293 164.462625 
L 317.66165 165.89645 
L 317.864007 170.183155 
L 318.471079 193.435824 
L 319.280508 233.592295 
L 319.685222 259.720201 
L 320.089937 264.574345 
L 320.292294 261.967369 
L 320.697008 252.32205 
L 321.708794 218.816831 
L 322.113509 189.028602 
L 322.518223 176.235273 
L 322.72058 171.892738 
L 322.922937 171.568902 
L 323.125295 173.126788 
L 323.530009 186.122573 
L 323.934723 208.852868 
L 324.339438 242.107499 
L 324.744152 257.119159 
L 325.148867 264.475358 
L 325.351224 261.096959 
L 325.958296 237.241923 
L 326.36301 217.354929 
L 326.970082 161.824328 
L 327.374796 147.707459 
L 327.577153 146.196786 
L 327.77951 147.675888 
L 327.981868 152.113483 
L 328.588939 180.919977 
L 329.600725 257.73017 
L 330.00544 267.592096 
L 330.207797 264.957163 
L 331.017226 210.245691 
L 331.624297 161.710769 
L 331.826655 150.576154 
L 332.029012 146.533911 
L 332.231369 147.228127 
L 332.636083 154.562008 
L 334.052584 240.897461 
L 334.457298 266.117454 
L 334.659655 270.0532 
L 334.862013 269.897466 
L 335.06437 263.385828 
L 335.469084 239.803629 
L 336.278513 205.243336 
L 336.683228 181.364368 
L 336.885585 177.662319 
L 337.492656 184.067667 
L 338.099728 204.479959 
L 339.111514 265.804217 
L 339.313871 271.493356 
L 339.516228 271.439627 
L 339.718586 268.21272 
L 340.1233 252.815742 
L 341.742158 177.554412 
L 341.944515 174.847001 
L 342.349229 167.075425 
L 342.753944 172.28702 
L 343.158658 185.278524 
L 343.361015 196.867071 
L 343.76573 240.897336 
L 344.170444 256.920249 
L 344.372801 259.708968 
L 344.575159 258.321042 
L 344.777516 252.01492 
L 345.384587 218.532365 
L 346.194016 148.280434 
L 346.598731 130.269035 
L 347.003445 121.893323 
L 347.205802 122.997527 
L 348.015231 159.136383 
L 348.82466 233.135013 
L 349.229374 244.309466 
L 349.431732 246.104644 
L 350.038803 229.065663 
L 350.645875 177.749522 
L 351.252947 131.144334 
L 351.455304 126.850376 
L 351.860018 126.46213 
L 352.062375 128.273961 
L 352.46709 145.949402 
L 352.669447 153.814025 
L 353.074161 185.945299 
L 353.478876 223.884393 
L 353.88359 249.59391 
L 354.085947 253.326203 
L 354.288305 253.396746 
L 354.490662 247.502284 
L 354.693019 238.266619 
L 354.895376 235.54144 
L 355.300091 213.717355 
L 355.704805 171.698217 
L 356.109519 136.204116 
L 356.311877 128.402667 
L 356.514234 127.850178 
L 356.918948 129.948064 
L 357.121306 134.920995 
L 357.728377 169.590264 
L 358.740163 249.936898 
L 358.94252 258.149244 
L 359.144878 259.953873 
L 359.347235 254.410434 
L 360.156664 210.45903 
L 360.966092 124.915214 
L 361.16845 114.061098 
L 361.370807 112.768718 
L 361.775521 119.937074 
L 362.382593 141.885341 
L 362.58495 152.482711 
L 362.989665 189.759794 
L 363.192022 216.054419 
L 363.394379 224.245663 
L 363.799093 254.278146 
L 364.001451 255.83259 
L 364.203808 247.055516 
L 364.810879 204.435877 
L 365.620308 114.197033 
L 366.025023 91.585018 
L 366.22738 90.250014 
L 366.429737 94.702084 
L 366.632094 102.069945 
L 367.036809 123.476942 
L 367.239166 130.329588 
L 367.64388 157.363235 
L 368.250952 211.993802 
L 368.453309 217.975326 
L 368.858024 233.974069 
L 369.060381 231.472906 
L 369.262738 226.305136 
L 369.465095 217.437056 
L 369.667452 203.473454 
L 370.476881 121.500368 
L 370.881596 102.899532 
L 371.083953 105.229097 
L 371.28631 110.015613 
L 371.893382 136.920317 
L 372.905168 214.124164 
L 373.512239 231.59381 
L 373.714597 232.369386 
L 374.524025 219.19662 
L 374.726383 208.854715 
L 375.738169 125.070673 
L 375.940526 123.975658 
L 376.34524 132.371477 
L 376.749955 151.277963 
L 377.761741 220.666265 
L 378.368812 238.310564 
L 378.57117 241.162989 
L 378.975884 225.048396 
L 379.178241 221.714854 
L 379.582956 190.415433 
L 379.98767 148.177699 
L 380.594742 111.795483 
L 380.797099 111.093449 
L 380.999456 115.006204 
L 381.40417 130.731726 
L 382.011242 154.265124 
L 382.415956 185.478638 
L 382.618314 205.530304 
L 383.225385 228.305789 
L 383.427743 235.061169 
L 383.832457 225.454997 
L 384.237171 201.418396 
L 384.237171 201.418396 
" clip-path="url(#p3163a1fa96)" style="fill: none; stroke: #ff7f0e; stroke-width: 1.5; stroke-linecap: square"/>
   </g>
   <g id="line2d_15">
    <path d="M 384.439529 181.57765 
L 385.0466 142.122127 
L 385.451315 129.399509 
L 385.653672 128.60553 
L 385.856029 131.86456 
L 386.463101 161.628968 
L 387.272529 218.98507 
L 387.474887 222.091077 
L 387.677244 228.35201 
L 388.081958 230.776969 
L 388.486673 223.700946 
L 388.68903 223.641988 
L 388.891387 218.32421 
L 389.700816 181.941355 
L 390.10553 155.94789 
L 390.307888 149.74114 
L 390.510245 148.740152 
L 390.712602 150.941652 
L 390.914959 149.936045 
L 391.319674 155.69927 
L 392.533817 204.60165 
L 392.736174 207.52351 
L 392.938531 204.991934 
L 393.140888 204.67269 
L 393.343246 203.115309 
L 393.545603 197.75782 
L 394.152675 160.121287 
L 394.962103 111.16933 
L 395.366818 101.524056 
L 395.569175 102.722101 
L 395.973889 115.960152 
L 396.580961 149.686834 
L 397.39039 194.200109 
L 397.592747 204.356853 
L 397.997461 209.639317 
L 398.199819 211.194821 
L 398.402176 207.709219 
L 398.604533 206.824067 
L 398.80689 202.576955 
L 399.211605 184.950031 
L 399.818676 153.304313 
L 400.021034 145.426856 
L 400.223391 142.74448 
L 400.425748 146.092494 
L 401.235177 179.971097 
L 401.842248 217.552168 
L 402.246963 222.799299 
L 402.44932 224.703117 
L 402.651677 224.415944 
L 402.854034 223.555478 
L 403.056392 223.555478 
L 403.258749 223.144889 
L 403.663463 214.817317 
L 404.068178 195.583659 
L 404.877607 147.791049 
L 405.282321 136.180561 
L 405.484678 138.02709 
L 406.09175 149.843299 
L 406.901179 183.03373 
L 407.103536 188.639658 
L 407.305893 190.73764 
L 407.50825 194.196486 
L 407.710607 195.439863 
L 407.912965 193.836498 
L 408.520036 169.86947 
L 409.73418 106.278636 
L 409.936537 101.833474 
L 410.138894 101.827412 
L 410.341251 107.186692 
L 410.948323 140.221112 
L 412.162466 210.048129 
L 412.56718 215.499032 
L 412.769538 217.197756 
L 413.174252 217.279826 
L 413.376609 215.657097 
L 413.578966 215.713333 
L 413.781324 213.756734 
L 413.983681 209.458407 
L 414.995467 176.322054 
L 415.197824 175.031698 
L 415.400181 176.320516 
L 415.804896 190.905831 
L 416.411967 213.293182 
L 416.816682 222.037117 
L 417.221396 225.380265 
L 417.423753 224.673319 
L 417.626111 222.694499 
L 418.030825 214.935 
L 418.435539 200.969618 
L 419.042611 159.448864 
L 419.649683 121.295147 
L 420.054397 110.106462 
L 420.256754 107.353755 
L 420.459112 108.344727 
L 420.863826 121.13535 
L 421.875612 157.368503 
L 422.077969 161.831825 
L 422.280326 162.074941 
L 422.482684 160.732324 
L 422.887398 154.977359 
L 423.49447 136.261882 
L 423.899184 123.518381 
L 424.303898 116.994242 
L 424.506256 116.849677 
L 424.708613 119.195107 
L 424.91097 123.613178 
L 425.315684 141.934988 
L 426.327471 211.368918 
L 426.732185 218.678609 
L 427.136899 222.255407 
L 427.339257 223.555478 
L 430.981686 223.555478 
L 431.184044 224.2961 
L 431.588758 218.450434 
L 431.791115 214.300279 
L 432.600544 187.197067 
L 434.219402 113.176213 
L 434.826473 100.350994 
L 435.02883 99.04312 
L 435.231188 99.33352 
L 435.433545 99.990046 
L 435.635902 101.553198 
L 436.445331 113.930393 
L 436.850045 116.957378 
L 437.25476 118.531328 
L 437.659474 118.720421 
L 438.064189 123.316947 
L 438.67126 136.555985 
L 439.075975 149.355963 
L 439.683046 175.964232 
L 440.290118 208.65152 
L 440.694832 219.372236 
L 441.099547 223.555478 
L 441.908976 223.555478 
L 442.111333 223.770271 
L 442.31369 224.368357 
L 442.516047 224.582784 
L 442.718404 224.503576 
L 442.920762 223.96074 
L 443.123119 225.198263 
L 443.325476 224.910972 
L 443.73019 223.555478 
L 444.944334 223.555478 
L 445.146691 222.421822 
L 445.349048 220.406381 
L 445.551405 216.978781 
L 446.360834 191.446165 
L 447.170263 149.62045 
L 447.979692 115.031912 
L 448.384406 105.487599 
L 448.789121 100.341562 
L 448.991478 99.677078 
L 449.396192 102.617245 
L 449.598549 103.961156 
L 450.812693 117.187583 
L 451.01505 117.470293 
L 451.622121 119.415919 
L 451.824479 121.383125 
L 452.229193 129.882981 
L 452.836265 147.258295 
L 453.645694 185.589669 
L 454.252765 214.292561 
L 454.65748 221.256281 
L 454.859837 223.346299 
L 455.062194 223.555478 
L 455.669266 223.555478 
L 456.07398 224.41265 
L 456.276337 224.753846 
L 456.478694 224.565655 
L 456.681052 224.030652 
L 456.883409 224.607706 
L 457.085766 224.667637 
L 457.288123 224.275414 
L 457.490481 223.555478 
L 458.704624 223.555478 
L 458.906981 222.772174 
L 459.311695 218.191492 
L 460.121124 193.937744 
L 461.13291 142.096963 
L 461.739982 116.330309 
L 462.144696 106.221222 
L 462.549411 100.473242 
L 462.751768 99.428572 
L 462.954125 100.443522 
L 463.561197 106.008562 
L 464.370626 115.760397 
L 464.572983 117.200591 
L 465.180054 118.238891 
L 465.382412 119.059827 
L 465.787126 123.823974 
L 466.596555 145.381784 
L 467.405984 182.352327 
L 468.013055 212.519072 
L 468.41777 220.717785 
L 468.620127 222.777181 
L 468.822484 223.555478 
L 469.429556 223.555478 
L 470.036627 224.717828 
L 470.238985 224.620708 
L 470.441342 224.249719 
L 470.643699 224.345614 
L 470.846056 224.786016 
L 471.048413 224.428136 
L 471.250771 223.555478 
L 472.464914 223.555478 
L 472.667271 223.028195 
L 473.071985 219.123109 
L 473.4767 208.047762 
L 474.083772 185.43157 
L 475.297915 126.031849 
L 475.702629 111.582335 
L 476.309701 100.921246 
L 476.512058 99.430392 
L 476.714415 100.099618 
L 477.321487 105.327417 
L 478.333273 116.910678 
L 478.737987 117.865639 
L 479.142702 118.751941 
L 479.547416 122.866649 
L 480.154488 137.526657 
L 480.559202 151.566754 
L 481.166274 179.813998 
L 481.773345 210.708342 
L 482.17806 220.202366 
L 482.582774 223.555478 
L 483.392203 223.644149 
L 483.796917 224.67855 
L 483.999275 224.698199 
L 484.403989 224.114988 
L 484.606346 225.010907 
L 485.213418 223.555478 
L 486.225204 223.555478 
L 486.427561 223.265422 
L 486.629918 221.926291 
L 486.832276 219.795472 
L 487.23699 209.514898 
L 487.844062 188.126582 
L 489.058205 128.055566 
L 489.462919 112.905562 
L 489.867634 103.891106 
L 490.272348 99.620831 
L 490.474705 99.815063 
L 490.87942 102.726292 
L 491.284134 107.13675 
L 491.891206 115.082751 
L 492.29592 117.413585 
L 492.902992 118.553242 
L 493.307706 122.140676 
L 493.914778 136.226332 
L 494.319492 149.531395 
L 494.926564 177.200813 
L 495.533636 208.957905 
L 495.93835 219.572294 
L 496.343064 223.555478 
L 497.152493 223.555478 
L 497.557208 224.589014 
L 497.759565 224.725168 
L 497.961922 224.546638 
L 498.164279 224.005324 
L 498.366636 224.884887 
L 498.568994 224.613367 
L 498.973708 223.555478 
L 500.187851 223.555478 
L 500.390209 222.388154 
L 500.592566 220.378917 
L 500.794923 216.872999 
L 501.604352 190.820182 
L 502.616138 139.202862 
L 503.223209 114.413935 
L 503.627924 104.976362 
L 504.032638 99.992224 
L 504.234995 99.596007 
L 504.437353 100.75435 
L 505.044424 106.700574 
L 505.651496 114.785572 
L 506.05621 117.316828 
L 506.663282 118.290665 
L 506.865639 119.528208 
L 507.067996 121.509319 
L 507.472711 130.02711 
L 508.079782 147.589191 
L 508.889211 186.059553 
L 509.496283 214.565416 
L 509.900997 221.375369 
L 510.103354 223.4802 
L 510.508069 223.555478 
L 510.912783 223.555478 
L 511.317498 224.454052 
L 511.519855 224.742914 
L 511.722212 224.564194 
L 511.924569 224.016537 
L 512.126927 224.683041 
L 512.329284 224.698539 
L 512.531641 224.260258 
L 512.733998 223.555478 
L 513.948141 223.555478 
L 514.150499 222.712456 
L 514.555213 218.004119 
L 515.364642 193.574062 
L 516.376428 141.67327 
L 516.9835 116.086346 
L 517.388214 106.061887 
L 517.792928 100.395644 
L 517.995286 99.445335 
L 518.197643 100.512265 
L 518.4 102.22113 
L 518.4 102.22113 
" clip-path="url(#p3163a1fa96)" style="fill: none; stroke: #2ca02c; stroke-width: 1.5; stroke-linecap: square"/>
   </g>
   <g id="patch_3">
    <path d="M 72 320.4 
L 72 43.2 
" style="fill: none; stroke: #000000; stroke-width: 0.8; stroke-linejoin: miter; stroke-linecap: square"/>
   </g>
   <g id="patch_4">
    <path d="M 518.4 320.4 
L 518.4 43.2 
" style="fill: none; stroke: #000000; stroke-width: 0.8; stroke-linejoin: miter; stroke-linecap: square"/>
   </g>
   <g id="patch_5">
    <path d="M 72 320.4 
L 518.4 320.4 
" style="fill: none; stroke: #000000; stroke-width: 0.8; stroke-linejoin: miter; stroke-linecap: square"/>
   </g>
   <g id="patch_6">
    <path d="M 72 43.2 
L 518.4 43.2 
" style="fill: none; stroke: #000000; stroke-width: 0.8; stroke-linejoin: miter; stroke-linecap: square"/>
   </g>
   <g id="text_13">
    <!-- Classic Transformer - model_20231126170009 -->
    <g transform="translate(155.436563 37.2) scale(0.12 -0.12)">
     <defs>
      <path id="DejaVuSans-43" d="M 4122 4306 
L 4122 3641 
Q 3803 3938 3442 4084 
Q 3081 4231 2675 4231 
Q 1875 4231 1450 3742 
Q 1025 3253 1025 2328 
Q 1025 1406 1450 917 
Q 1875 428 2675 428 
Q 3081 428 3442 575 
Q 3803 722 4122 1019 
L 4122 359 
Q 3791 134 3420 21 
Q 3050 -91 2638 -91 
Q 1578 -91 968 557 
Q 359 1206 359 2328 
Q 359 3453 968 4101 
Q 1578 4750 2638 4750 
Q 3056 4750 3426 4639 
Q 3797 4528 4122 4306 
z
" transform="scale(0.015625)"/>
      <path id="DejaVuSans-6c" d="M 603 4863 
L 1178 4863 
L 1178 0 
L 603 0 
L 603 4863 
z
" transform="scale(0.015625)"/>
      <path id="DejaVuSans-61" d="M 2194 1759 
Q 1497 1759 1228 1600 
Q 959 1441 959 1056 
Q 959 750 1161 570 
Q 1363 391 1709 391 
Q 2188 391 2477 730 
Q 2766 1069 2766 1631 
L 2766 1759 
L 2194 1759 
z
M 3341 1997 
L 3341 0 
L 2766 0 
L 2766 531 
Q 2569 213 2275 61 
Q 1981 -91 1556 -91 
Q 1019 -91 701 211 
Q 384 513 384 1019 
Q 384 1609 779 1909 
Q 1175 2209 1959 2209 
L 2766 2209 
L 2766 2266 
Q 2766 2663 2505 2880 
Q 2244 3097 1772 3097 
Q 1472 3097 1187 3025 
Q 903 2953 641 2809 
L 641 3341 
Q 956 3463 1253 3523 
Q 1550 3584 1831 3584 
Q 2591 3584 2966 3190 
Q 3341 2797 3341 1997 
z
" transform="scale(0.015625)"/>
      <path id="DejaVuSans-73" d="M 2834 3397 
L 2834 2853 
Q 2591 2978 2328 3040 
Q 2066 3103 1784 3103 
Q 1356 3103 1142 2972 
Q 928 2841 928 2578 
Q 928 2378 1081 2264 
Q 1234 2150 1697 2047 
L 1894 2003 
Q 2506 1872 2764 1633 
Q 3022 1394 3022 966 
Q 3022 478 2636 193 
Q 2250 -91 1575 -91 
Q 1294 -91 989 -36 
Q 684 19 347 128 
L 347 722 
Q 666 556 975 473 
Q 1284 391 1588 391 
Q 1994 391 2212 530 
Q 2431 669 2431 922 
Q 2431 1156 2273 1281 
Q 2116 1406 1581 1522 
L 1381 1569 
Q 847 1681 609 1914 
Q 372 2147 372 2553 
Q 372 3047 722 3315 
Q 1072 3584 1716 3584 
Q 2034 3584 2315 3537 
Q 2597 3491 2834 3397 
z
" transform="scale(0.015625)"/>
      <path id="DejaVuSans-69" d="M 603 3500 
L 1178 3500 
L 1178 0 
L 603 0 
L 603 3500 
z
M 603 4863 
L 1178 4863 
L 1178 4134 
L 603 4134 
L 603 4863 
z
" transform="scale(0.015625)"/>
      <path id="DejaVuSans-63" d="M 3122 3366 
L 3122 2828 
Q 2878 2963 2633 3030 
Q 2388 3097 2138 3097 
Q 1578 3097 1268 2742 
Q 959 2388 959 1747 
Q 959 1106 1268 751 
Q 1578 397 2138 397 
Q 2388 397 2633 464 
Q 2878 531 3122 666 
L 3122 134 
Q 2881 22 2623 -34 
Q 2366 -91 2075 -91 
Q 1284 -91 818 406 
Q 353 903 353 1747 
Q 353 2603 823 3093 
Q 1294 3584 2113 3584 
Q 2378 3584 2631 3529 
Q 2884 3475 3122 3366 
z
" transform="scale(0.015625)"/>
      <path id="DejaVuSans-20" transform="scale(0.015625)"/>
      <path id="DejaVuSans-54" d="M -19 4666 
L 3928 4666 
L 3928 4134 
L 2272 4134 
L 2272 0 
L 1638 0 
L 1638 4134 
L -19 4134 
L -19 4666 
z
" transform="scale(0.015625)"/>
      <path id="DejaVuSans-72" d="M 2631 2963 
Q 2534 3019 2420 3045 
Q 2306 3072 2169 3072 
Q 1681 3072 1420 2755 
Q 1159 2438 1159 1844 
L 1159 0 
L 581 0 
L 581 3500 
L 1159 3500 
L 1159 2956 
Q 1341 3275 1631 3429 
Q 1922 3584 2338 3584 
Q 2397 3584 2469 3576 
Q 2541 3569 2628 3553 
L 2631 2963 
z
" transform="scale(0.015625)"/>
      <path id="DejaVuSans-6e" d="M 3513 2113 
L 3513 0 
L 2938 0 
L 2938 2094 
Q 2938 2591 2744 2837 
Q 2550 3084 2163 3084 
Q 1697 3084 1428 2787 
Q 1159 2491 1159 1978 
L 1159 0 
L 581 0 
L 581 3500 
L 1159 3500 
L 1159 2956 
Q 1366 3272 1645 3428 
Q 1925 3584 2291 3584 
Q 2894 3584 3203 3211 
Q 3513 2838 3513 2113 
z
" transform="scale(0.015625)"/>
      <path id="DejaVuSans-66" d="M 2375 4863 
L 2375 4384 
L 1825 4384 
Q 1516 4384 1395 4259 
Q 1275 4134 1275 3809 
L 1275 3500 
L 2222 3500 
L 2222 3053 
L 1275 3053 
L 1275 0 
L 697 0 
L 697 3053 
L 147 3053 
L 147 3500 
L 697 3500 
L 697 3744 
Q 697 4328 969 4595 
Q 1241 4863 1831 4863 
L 2375 4863 
z
" transform="scale(0.015625)"/>
      <path id="DejaVuSans-6f" d="M 1959 3097 
Q 1497 3097 1228 2736 
Q 959 2375 959 1747 
Q 959 1119 1226 758 
Q 1494 397 1959 397 
Q 2419 397 2687 759 
Q 2956 1122 2956 1747 
Q 2956 2369 2687 2733 
Q 2419 3097 1959 3097 
z
M 1959 3584 
Q 2709 3584 3137 3096 
Q 3566 2609 3566 1747 
Q 3566 888 3137 398 
Q 2709 -91 1959 -91 
Q 1206 -91 779 398 
Q 353 888 353 1747 
Q 353 2609 779 3096 
Q 1206 3584 1959 3584 
z
" transform="scale(0.015625)"/>
      <path id="DejaVuSans-6d" d="M 3328 2828 
Q 3544 3216 3844 3400 
Q 4144 3584 4550 3584 
Q 5097 3584 5394 3201 
Q 5691 2819 5691 2113 
L 5691 0 
L 5113 0 
L 5113 2094 
Q 5113 2597 4934 2840 
Q 4756 3084 4391 3084 
Q 3944 3084 3684 2787 
Q 3425 2491 3425 1978 
L 3425 0 
L 2847 0 
L 2847 2094 
Q 2847 2600 2669 2842 
Q 2491 3084 2119 3084 
Q 1678 3084 1418 2786 
Q 1159 2488 1159 1978 
L 1159 0 
L 581 0 
L 581 3500 
L 1159 3500 
L 1159 2956 
Q 1356 3278 1631 3431 
Q 1906 3584 2284 3584 
Q 2666 3584 2933 3390 
Q 3200 3197 3328 2828 
z
" transform="scale(0.015625)"/>
      <path id="DejaVuSans-65" d="M 3597 1894 
L 3597 1613 
L 953 1613 
Q 991 1019 1311 708 
Q 1631 397 2203 397 
Q 2534 397 2845 478 
Q 3156 559 3463 722 
L 3463 178 
Q 3153 47 2828 -22 
Q 2503 -91 2169 -91 
Q 1331 -91 842 396 
Q 353 884 353 1716 
Q 353 2575 817 3079 
Q 1281 3584 2069 3584 
Q 2775 3584 3186 3129 
Q 3597 2675 3597 1894 
z
M 3022 2063 
Q 3016 2534 2758 2815 
Q 2500 3097 2075 3097 
Q 1594 3097 1305 2825 
Q 1016 2553 972 2059 
L 3022 2063 
z
" transform="scale(0.015625)"/>
      <path id="DejaVuSans-64" d="M 2906 2969 
L 2906 4863 
L 3481 4863 
L 3481 0 
L 2906 0 
L 2906 525 
Q 2725 213 2448 61 
Q 2172 -91 1784 -91 
Q 1150 -91 751 415 
Q 353 922 353 1747 
Q 353 2572 751 3078 
Q 1150 3584 1784 3584 
Q 2172 3584 2448 3432 
Q 2725 3281 2906 2969 
z
M 947 1747 
Q 947 1113 1208 752 
Q 1469 391 1925 391 
Q 2381 391 2643 752 
Q 2906 1113 2906 1747 
Q 2906 2381 2643 2742 
Q 2381 3103 1925 3103 
Q 1469 3103 1208 2742 
Q 947 2381 947 1747 
z
" transform="scale(0.015625)"/>
      <path id="DejaVuSans-5f" d="M 3263 -1063 
L 3263 -1509 
L -63 -1509 
L -63 -1063 
L 3263 -1063 
z
" transform="scale(0.015625)"/>
      <path id="DejaVuSans-39" d="M 703 97 
L 703 672 
Q 941 559 1184 500 
Q 1428 441 1663 441 
Q 2288 441 2617 861 
Q 2947 1281 2994 2138 
Q 2813 1869 2534 1725 
Q 2256 1581 1919 1581 
Q 1219 1581 811 2004 
Q 403 2428 403 3163 
Q 403 3881 828 4315 
Q 1253 4750 1959 4750 
Q 2769 4750 3195 4129 
Q 3622 3509 3622 2328 
Q 3622 1225 3098 567 
Q 2575 -91 1691 -91 
Q 1453 -91 1209 -44 
Q 966 3 703 97 
z
M 1959 2075 
Q 2384 2075 2632 2365 
Q 2881 2656 2881 3163 
Q 2881 3666 2632 3958 
Q 2384 4250 1959 4250 
Q 1534 4250 1286 3958 
Q 1038 3666 1038 3163 
Q 1038 2656 1286 2365 
Q 1534 2075 1959 2075 
z
" transform="scale(0.015625)"/>
     </defs>
     <use xlink:href="#DejaVuSans-43"/>
     <use xlink:href="#DejaVuSans-6c" x="69.824219"/>
     <use xlink:href="#DejaVuSans-61" x="97.607422"/>
     <use xlink:href="#DejaVuSans-73" x="158.886719"/>
     <use xlink:href="#DejaVuSans-73" x="210.986328"/>
     <use xlink:href="#DejaVuSans-69" x="263.085938"/>
     <use xlink:href="#DejaVuSans-63" x="290.869141"/>
     <use xlink:href="#DejaVuSans-20" x="345.849609"/>
     <use xlink:href="#DejaVuSans-54" x="377.636719"/>
     <use xlink:href="#DejaVuSans-72" x="423.970703"/>
     <use xlink:href="#DejaVuSans-61" x="465.083984"/>
     <use xlink:href="#DejaVuSans-6e" x="526.363281"/>
     <use xlink:href="#DejaVuSans-73" x="589.742188"/>
     <use xlink:href="#DejaVuSans-66" x="641.841797"/>
     <use xlink:href="#DejaVuSans-6f" x="677.046875"/>
     <use xlink:href="#DejaVuSans-72" x="738.228516"/>
     <use xlink:href="#DejaVuSans-6d" x="777.591797"/>
     <use xlink:href="#DejaVuSans-65" x="875.003906"/>
     <use xlink:href="#DejaVuSans-72" x="936.527344"/>
     <use xlink:href="#DejaVuSans-20" x="977.640625"/>
     <use xlink:href="#DejaVuSans-2d" x="1009.427734"/>
     <use xlink:href="#DejaVuSans-20" x="1045.511719"/>
     <use xlink:href="#DejaVuSans-6d" x="1077.298828"/>
     <use xlink:href="#DejaVuSans-6f" x="1174.710938"/>
     <use xlink:href="#DejaVuSans-64" x="1235.892578"/>
     <use xlink:href="#DejaVuSans-65" x="1299.369141"/>
     <use xlink:href="#DejaVuSans-6c" x="1360.892578"/>
     <use xlink:href="#DejaVuSans-5f" x="1388.675781"/>
     <use xlink:href="#DejaVuSans-32" x="1438.675781"/>
     <use xlink:href="#DejaVuSans-30" x="1502.298828"/>
     <use xlink:href="#DejaVuSans-32" x="1565.921875"/>
     <use xlink:href="#DejaVuSans-33" x="1629.544922"/>
     <use xlink:href="#DejaVuSans-31" x="1693.167969"/>
     <use xlink:href="#DejaVuSans-31" x="1756.791016"/>
     <use xlink:href="#DejaVuSans-32" x="1820.414062"/>
     <use xlink:href="#DejaVuSans-36" x="1884.037109"/>
     <use xlink:href="#DejaVuSans-31" x="1947.660156"/>
     <use xlink:href="#DejaVuSans-37" x="2011.283203"/>
     <use xlink:href="#DejaVuSans-30" x="2074.90625"/>
     <use xlink:href="#DejaVuSans-30" x="2138.529297"/>
     <use xlink:href="#DejaVuSans-30" x="2202.152344"/>
     <use xlink:href="#DejaVuSans-39" x="2265.775391"/>
    </g>
   </g>
   <g id="legend_1">
    <g id="patch_7">
     <path d="M 79 95.234375 
L 161.517188 95.234375 
Q 163.517188 95.234375 163.517188 93.234375 
L 163.517188 50.2 
Q 163.517188 48.2 161.517188 48.2 
L 79 48.2 
Q 77 48.2 77 50.2 
L 77 93.234375 
Q 77 95.234375 79 95.234375 
z
" style="fill: #ffffff; opacity: 0.8; stroke: #cccccc; stroke-linejoin: miter"/>
    </g>
    <g id="line2d_16">
     <path d="M 81 56.298437 
L 91 56.298437 
L 101 56.298437 
" style="fill: none; stroke: #1f77b4; stroke-width: 1.5; stroke-linecap: square"/>
    </g>
    <g id="text_14">
     <!-- Measured -->
     <g transform="translate(109 59.798437) scale(0.1 -0.1)">
      <defs>
       <path id="DejaVuSans-4d" d="M 628 4666 
L 1569 4666 
L 2759 1491 
L 3956 4666 
L 4897 4666 
L 4897 0 
L 4281 0 
L 4281 4097 
L 3078 897 
L 2444 897 
L 1241 4097 
L 1241 0 
L 628 0 
L 628 4666 
z
" transform="scale(0.015625)"/>
       <path id="DejaVuSans-75" d="M 544 1381 
L 544 3500 
L 1119 3500 
L 1119 1403 
Q 1119 906 1312 657 
Q 1506 409 1894 409 
Q 2359 409 2629 706 
Q 2900 1003 2900 1516 
L 2900 3500 
L 3475 3500 
L 3475 0 
L 2900 0 
L 2900 538 
Q 2691 219 2414 64 
Q 2138 -91 1772 -91 
Q 1169 -91 856 284 
Q 544 659 544 1381 
z
M 1991 3584 
L 1991 3584 
z
" transform="scale(0.015625)"/>
      </defs>
      <use xlink:href="#DejaVuSans-4d"/>
      <use xlink:href="#DejaVuSans-65" x="86.279297"/>
      <use xlink:href="#DejaVuSans-61" x="147.802734"/>
      <use xlink:href="#DejaVuSans-73" x="209.082031"/>
      <use xlink:href="#DejaVuSans-75" x="261.181641"/>
      <use xlink:href="#DejaVuSans-72" x="324.560547"/>
      <use xlink:href="#DejaVuSans-65" x="363.423828"/>
      <use xlink:href="#DejaVuSans-64" x="424.947266"/>
     </g>
    </g>
    <g id="line2d_17">
     <path d="M 81 70.976562 
L 91 70.976562 
L 101 70.976562 
" style="fill: none; stroke: #ff7f0e; stroke-width: 1.5; stroke-linecap: square"/>
    </g>
    <g id="text_15">
     <!-- Fitted -->
     <g transform="translate(109 74.476562) scale(0.1 -0.1)">
      <defs>
       <path id="DejaVuSans-46" d="M 628 4666 
L 3309 4666 
L 3309 4134 
L 1259 4134 
L 1259 2759 
L 3109 2759 
L 3109 2228 
L 1259 2228 
L 1259 0 
L 628 0 
L 628 4666 
z
" transform="scale(0.015625)"/>
       <path id="DejaVuSans-74" d="M 1172 4494 
L 1172 3500 
L 2356 3500 
L 2356 3053 
L 1172 3053 
L 1172 1153 
Q 1172 725 1289 603 
Q 1406 481 1766 481 
L 2356 481 
L 2356 0 
L 1766 0 
Q 1100 0 847 248 
Q 594 497 594 1153 
L 594 3053 
L 172 3053 
L 172 3500 
L 594 3500 
L 594 4494 
L 1172 4494 
z
" transform="scale(0.015625)"/>
      </defs>
      <use xlink:href="#DejaVuSans-46"/>
      <use xlink:href="#DejaVuSans-69" x="50.269531"/>
      <use xlink:href="#DejaVuSans-74" x="78.052734"/>
      <use xlink:href="#DejaVuSans-74" x="117.261719"/>
      <use xlink:href="#DejaVuSans-65" x="156.470703"/>
      <use xlink:href="#DejaVuSans-64" x="217.994141"/>
     </g>
    </g>
    <g id="line2d_18">
     <path d="M 81 85.654687 
L 91 85.654687 
L 101 85.654687 
" style="fill: none; stroke: #2ca02c; stroke-width: 1.5; stroke-linecap: square"/>
    </g>
    <g id="text_16">
     <!-- Estimated -->
     <g transform="translate(109 89.154687) scale(0.1 -0.1)">
      <defs>
       <path id="DejaVuSans-45" d="M 628 4666 
L 3578 4666 
L 3578 4134 
L 1259 4134 
L 1259 2753 
L 3481 2753 
L 3481 2222 
L 1259 2222 
L 1259 531 
L 3634 531 
L 3634 0 
L 628 0 
L 628 4666 
z
" transform="scale(0.015625)"/>
      </defs>
      <use xlink:href="#DejaVuSans-45"/>
      <use xlink:href="#DejaVuSans-73" x="63.183594"/>
      <use xlink:href="#DejaVuSans-74" x="115.283203"/>
      <use xlink:href="#DejaVuSans-69" x="154.492188"/>
      <use xlink:href="#DejaVuSans-6d" x="182.275391"/>
      <use xlink:href="#DejaVuSans-61" x="279.6875"/>
      <use xlink:href="#DejaVuSans-74" x="340.966797"/>
      <use xlink:href="#DejaVuSans-65" x="380.175781"/>
      <use xlink:href="#DejaVuSans-64" x="441.699219"/>
     </g>
    </g>
   </g>
  </g>
 </g>
 <defs>
  <clipPath id="p3163a1fa96">
   <rect x="72" y="43.2" width="446.4" height="277.2"/>
  </clipPath>
 </defs>
</svg>
