<?xml version="1.0" encoding="utf-8" standalone="no"?>
<!DOCTYPE svg PUBLIC "-//W3C//DTD SVG 1.1//EN"
  "http://www.w3.org/Graphics/SVG/1.1/DTD/svg11.dtd">
<svg xmlns:xlink="http://www.w3.org/1999/xlink" width="576pt" height="360pt" viewBox="0 0 576 360" xmlns="http://www.w3.org/2000/svg" version="1.1">
 <metadata>
  <rdf:RDF xmlns:dc="http://purl.org/dc/elements/1.1/" xmlns:cc="http://creativecommons.org/ns#" xmlns:rdf="http://www.w3.org/1999/02/22-rdf-syntax-ns#">
   <cc:Work>
    <dc:type rdf:resource="http://purl.org/dc/dcmitype/StillImage"/>
    <dc:date>2023-11-26T16:58:08.952657</dc:date>
    <dc:format>image/svg+xml</dc:format>
    <dc:creator>
     <cc:Agent>
      <dc:title>Matplotlib v3.8.1, https://matplotlib.org/</dc:title>
     </cc:Agent>
    </dc:creator>
   </cc:Work>
  </rdf:RDF>
 </metadata>
 <defs>
  <style type="text/css">*{stroke-linejoin: round; stroke-linecap: butt}</style>
 </defs>
 <g id="figure_1">
  <g id="patch_1">
   <path d="M 0 360 
L 576 360 
L 576 0 
L 0 0 
z
" style="fill: #ffffff"/>
  </g>
  <g id="axes_1">
   <g id="patch_2">
    <path d="M 72 320.4 
L 518.4 320.4 
L 518.4 43.2 
L 72 43.2 
z
" style="fill: #ffffff"/>
   </g>
   <g id="matplotlib.axis_1">
    <g id="xtick_1">
     <g id="line2d_1">
      <defs>
       <path id="ma54b9be119" d="M 0 0 
L 0 3.5 
" style="stroke: #000000; stroke-width: 0.8"/>
      </defs>
      <g>
       <use xlink:href="#ma54b9be119" x="129.874161" y="320.4" style="stroke: #000000; stroke-width: 0.8"/>
      </g>
     </g>
     <g id="text_1">
      <!-- 2020-05-15 -->
      <g transform="translate(100.816349 334.998438) scale(0.1 -0.1)">
       <defs>
        <path id="DejaVuSans-32" d="M 1228 531 
L 3431 531 
L 3431 0 
L 469 0 
L 469 531 
Q 828 903 1448 1529 
Q 2069 2156 2228 2338 
Q 2531 2678 2651 2914 
Q 2772 3150 2772 3378 
Q 2772 3750 2511 3984 
Q 2250 4219 1831 4219 
Q 1534 4219 1204 4116 
Q 875 4013 500 3803 
L 500 4441 
Q 881 4594 1212 4672 
Q 1544 4750 1819 4750 
Q 2544 4750 2975 4387 
Q 3406 4025 3406 3419 
Q 3406 3131 3298 2873 
Q 3191 2616 2906 2266 
Q 2828 2175 2409 1742 
Q 1991 1309 1228 531 
z
" transform="scale(0.015625)"/>
        <path id="DejaVuSans-30" d="M 2034 4250 
Q 1547 4250 1301 3770 
Q 1056 3291 1056 2328 
Q 1056 1369 1301 889 
Q 1547 409 2034 409 
Q 2525 409 2770 889 
Q 3016 1369 3016 2328 
Q 3016 3291 2770 3770 
Q 2525 4250 2034 4250 
z
M 2034 4750 
Q 2819 4750 3233 4129 
Q 3647 3509 3647 2328 
Q 3647 1150 3233 529 
Q 2819 -91 2034 -91 
Q 1250 -91 836 529 
Q 422 1150 422 2328 
Q 422 3509 836 4129 
Q 1250 4750 2034 4750 
z
" transform="scale(0.015625)"/>
        <path id="DejaVuSans-2d" d="M 313 2009 
L 1997 2009 
L 1997 1497 
L 313 1497 
L 313 2009 
z
" transform="scale(0.015625)"/>
        <path id="DejaVuSans-35" d="M 691 4666 
L 3169 4666 
L 3169 4134 
L 1269 4134 
L 1269 2991 
Q 1406 3038 1543 3061 
Q 1681 3084 1819 3084 
Q 2600 3084 3056 2656 
Q 3513 2228 3513 1497 
Q 3513 744 3044 326 
Q 2575 -91 1722 -91 
Q 1428 -91 1123 -41 
Q 819 9 494 109 
L 494 744 
Q 775 591 1075 516 
Q 1375 441 1709 441 
Q 2250 441 2565 725 
Q 2881 1009 2881 1497 
Q 2881 1984 2565 2268 
Q 2250 2553 1709 2553 
Q 1456 2553 1204 2497 
Q 953 2441 691 2322 
L 691 4666 
z
" transform="scale(0.015625)"/>
        <path id="DejaVuSans-31" d="M 794 531 
L 1825 531 
L 1825 4091 
L 703 3866 
L 703 4441 
L 1819 4666 
L 2450 4666 
L 2450 531 
L 3481 531 
L 3481 0 
L 794 0 
L 794 531 
z
" transform="scale(0.015625)"/>
       </defs>
       <use xlink:href="#DejaVuSans-32"/>
       <use xlink:href="#DejaVuSans-30" x="63.623047"/>
       <use xlink:href="#DejaVuSans-32" x="127.246094"/>
       <use xlink:href="#DejaVuSans-30" x="190.869141"/>
       <use xlink:href="#DejaVuSans-2d" x="254.492188"/>
       <use xlink:href="#DejaVuSans-30" x="290.576172"/>
       <use xlink:href="#DejaVuSans-35" x="354.199219"/>
       <use xlink:href="#DejaVuSans-2d" x="417.822266"/>
       <use xlink:href="#DejaVuSans-31" x="453.90625"/>
       <use xlink:href="#DejaVuSans-35" x="517.529297"/>
      </g>
     </g>
    </g>
    <g id="xtick_2">
     <g id="line2d_2">
      <g>
       <use xlink:href="#ma54b9be119" x="212.435902" y="320.4" style="stroke: #000000; stroke-width: 0.8"/>
      </g>
     </g>
     <g id="text_2">
      <!-- 2020-06-01 -->
      <g transform="translate(183.37809 334.998438) scale(0.1 -0.1)">
       <defs>
        <path id="DejaVuSans-36" d="M 2113 2584 
Q 1688 2584 1439 2293 
Q 1191 2003 1191 1497 
Q 1191 994 1439 701 
Q 1688 409 2113 409 
Q 2538 409 2786 701 
Q 3034 994 3034 1497 
Q 3034 2003 2786 2293 
Q 2538 2584 2113 2584 
z
M 3366 4563 
L 3366 3988 
Q 3128 4100 2886 4159 
Q 2644 4219 2406 4219 
Q 1781 4219 1451 3797 
Q 1122 3375 1075 2522 
Q 1259 2794 1537 2939 
Q 1816 3084 2150 3084 
Q 2853 3084 3261 2657 
Q 3669 2231 3669 1497 
Q 3669 778 3244 343 
Q 2819 -91 2113 -91 
Q 1303 -91 875 529 
Q 447 1150 447 2328 
Q 447 3434 972 4092 
Q 1497 4750 2381 4750 
Q 2619 4750 2861 4703 
Q 3103 4656 3366 4563 
z
" transform="scale(0.015625)"/>
       </defs>
       <use xlink:href="#DejaVuSans-32"/>
       <use xlink:href="#DejaVuSans-30" x="63.623047"/>
       <use xlink:href="#DejaVuSans-32" x="127.246094"/>
       <use xlink:href="#DejaVuSans-30" x="190.869141"/>
       <use xlink:href="#DejaVuSans-2d" x="254.492188"/>
       <use xlink:href="#DejaVuSans-30" x="290.576172"/>
       <use xlink:href="#DejaVuSans-36" x="354.199219"/>
       <use xlink:href="#DejaVuSans-2d" x="417.822266"/>
       <use xlink:href="#DejaVuSans-30" x="453.90625"/>
       <use xlink:href="#DejaVuSans-31" x="517.529297"/>
      </g>
     </g>
    </g>
    <g id="xtick_3">
     <g id="line2d_3">
      <g>
       <use xlink:href="#ma54b9be119" x="280.427924" y="320.4" style="stroke: #000000; stroke-width: 0.8"/>
      </g>
     </g>
     <g id="text_3">
      <!-- 2020-06-15 -->
      <g transform="translate(251.370111 334.998438) scale(0.1 -0.1)">
       <use xlink:href="#DejaVuSans-32"/>
       <use xlink:href="#DejaVuSans-30" x="63.623047"/>
       <use xlink:href="#DejaVuSans-32" x="127.246094"/>
       <use xlink:href="#DejaVuSans-30" x="190.869141"/>
       <use xlink:href="#DejaVuSans-2d" x="254.492188"/>
       <use xlink:href="#DejaVuSans-30" x="290.576172"/>
       <use xlink:href="#DejaVuSans-36" x="354.199219"/>
       <use xlink:href="#DejaVuSans-2d" x="417.822266"/>
       <use xlink:href="#DejaVuSans-31" x="453.90625"/>
       <use xlink:href="#DejaVuSans-35" x="517.529297"/>
      </g>
     </g>
    </g>
    <g id="xtick_4">
     <g id="line2d_4">
      <g>
       <use xlink:href="#ma54b9be119" x="358.133092" y="320.4" style="stroke: #000000; stroke-width: 0.8"/>
      </g>
     </g>
     <g id="text_4">
      <!-- 2020-07-01 -->
      <g transform="translate(329.075279 334.998438) scale(0.1 -0.1)">
       <defs>
        <path id="DejaVuSans-37" d="M 525 4666 
L 3525 4666 
L 3525 4397 
L 1831 0 
L 1172 0 
L 2766 4134 
L 525 4134 
L 525 4666 
z
" transform="scale(0.015625)"/>
       </defs>
       <use xlink:href="#DejaVuSans-32"/>
       <use xlink:href="#DejaVuSans-30" x="63.623047"/>
       <use xlink:href="#DejaVuSans-32" x="127.246094"/>
       <use xlink:href="#DejaVuSans-30" x="190.869141"/>
       <use xlink:href="#DejaVuSans-2d" x="254.492188"/>
       <use xlink:href="#DejaVuSans-30" x="290.576172"/>
       <use xlink:href="#DejaVuSans-37" x="354.199219"/>
       <use xlink:href="#DejaVuSans-2d" x="417.822266"/>
       <use xlink:href="#DejaVuSans-30" x="453.90625"/>
       <use xlink:href="#DejaVuSans-31" x="517.529297"/>
      </g>
     </g>
    </g>
    <g id="xtick_5">
     <g id="line2d_5">
      <g>
       <use xlink:href="#ma54b9be119" x="426.125113" y="320.4" style="stroke: #000000; stroke-width: 0.8"/>
      </g>
     </g>
     <g id="text_5">
      <!-- 2020-07-15 -->
      <g transform="translate(397.067301 334.998438) scale(0.1 -0.1)">
       <use xlink:href="#DejaVuSans-32"/>
       <use xlink:href="#DejaVuSans-30" x="63.623047"/>
       <use xlink:href="#DejaVuSans-32" x="127.246094"/>
       <use xlink:href="#DejaVuSans-30" x="190.869141"/>
       <use xlink:href="#DejaVuSans-2d" x="254.492188"/>
       <use xlink:href="#DejaVuSans-30" x="290.576172"/>
       <use xlink:href="#DejaVuSans-37" x="354.199219"/>
       <use xlink:href="#DejaVuSans-2d" x="417.822266"/>
       <use xlink:href="#DejaVuSans-31" x="453.90625"/>
       <use xlink:href="#DejaVuSans-35" x="517.529297"/>
      </g>
     </g>
    </g>
    <g id="xtick_6">
     <g id="line2d_6">
      <g>
       <use xlink:href="#ma54b9be119" x="508.686854" y="320.4" style="stroke: #000000; stroke-width: 0.8"/>
      </g>
     </g>
     <g id="text_6">
      <!-- 2020-08-01 -->
      <g transform="translate(479.629042 334.998438) scale(0.1 -0.1)">
       <defs>
        <path id="DejaVuSans-38" d="M 2034 2216 
Q 1584 2216 1326 1975 
Q 1069 1734 1069 1313 
Q 1069 891 1326 650 
Q 1584 409 2034 409 
Q 2484 409 2743 651 
Q 3003 894 3003 1313 
Q 3003 1734 2745 1975 
Q 2488 2216 2034 2216 
z
M 1403 2484 
Q 997 2584 770 2862 
Q 544 3141 544 3541 
Q 544 4100 942 4425 
Q 1341 4750 2034 4750 
Q 2731 4750 3128 4425 
Q 3525 4100 3525 3541 
Q 3525 3141 3298 2862 
Q 3072 2584 2669 2484 
Q 3125 2378 3379 2068 
Q 3634 1759 3634 1313 
Q 3634 634 3220 271 
Q 2806 -91 2034 -91 
Q 1263 -91 848 271 
Q 434 634 434 1313 
Q 434 1759 690 2068 
Q 947 2378 1403 2484 
z
M 1172 3481 
Q 1172 3119 1398 2916 
Q 1625 2713 2034 2713 
Q 2441 2713 2670 2916 
Q 2900 3119 2900 3481 
Q 2900 3844 2670 4047 
Q 2441 4250 2034 4250 
Q 1625 4250 1398 4047 
Q 1172 3844 1172 3481 
z
" transform="scale(0.015625)"/>
       </defs>
       <use xlink:href="#DejaVuSans-32"/>
       <use xlink:href="#DejaVuSans-30" x="63.623047"/>
       <use xlink:href="#DejaVuSans-32" x="127.246094"/>
       <use xlink:href="#DejaVuSans-30" x="190.869141"/>
       <use xlink:href="#DejaVuSans-2d" x="254.492188"/>
       <use xlink:href="#DejaVuSans-30" x="290.576172"/>
       <use xlink:href="#DejaVuSans-38" x="354.199219"/>
       <use xlink:href="#DejaVuSans-2d" x="417.822266"/>
       <use xlink:href="#DejaVuSans-30" x="453.90625"/>
       <use xlink:href="#DejaVuSans-31" x="517.529297"/>
      </g>
     </g>
    </g>
   </g>
   <g id="matplotlib.axis_2">
    <g id="ytick_1">
     <g id="line2d_7">
      <defs>
       <path id="m6955dc18cc" d="M 0 0 
L -3.5 0 
" style="stroke: #000000; stroke-width: 0.8"/>
      </defs>
      <g>
       <use xlink:href="#m6955dc18cc" x="72" y="297.706663" style="stroke: #000000; stroke-width: 0.8"/>
      </g>
     </g>
     <g id="text_7">
      <!-- −5 -->
      <g transform="translate(50.257812 301.505882) scale(0.1 -0.1)">
       <defs>
        <path id="DejaVuSans-2212" d="M 678 2272 
L 4684 2272 
L 4684 1741 
L 678 1741 
L 678 2272 
z
" transform="scale(0.015625)"/>
       </defs>
       <use xlink:href="#DejaVuSans-2212"/>
       <use xlink:href="#DejaVuSans-35" x="83.789062"/>
      </g>
     </g>
    </g>
    <g id="ytick_2">
     <g id="line2d_8">
      <g>
       <use xlink:href="#m6955dc18cc" x="72" y="266.855812" style="stroke: #000000; stroke-width: 0.8"/>
      </g>
     </g>
     <g id="text_8">
      <!-- −4 -->
      <g transform="translate(50.257812 270.655031) scale(0.1 -0.1)">
       <defs>
        <path id="DejaVuSans-34" d="M 2419 4116 
L 825 1625 
L 2419 1625 
L 2419 4116 
z
M 2253 4666 
L 3047 4666 
L 3047 1625 
L 3713 1625 
L 3713 1100 
L 3047 1100 
L 3047 0 
L 2419 0 
L 2419 1100 
L 313 1100 
L 313 1709 
L 2253 4666 
z
" transform="scale(0.015625)"/>
       </defs>
       <use xlink:href="#DejaVuSans-2212"/>
       <use xlink:href="#DejaVuSans-34" x="83.789062"/>
      </g>
     </g>
    </g>
    <g id="ytick_3">
     <g id="line2d_9">
      <g>
       <use xlink:href="#m6955dc18cc" x="72" y="236.004962" style="stroke: #000000; stroke-width: 0.8"/>
      </g>
     </g>
     <g id="text_9">
      <!-- −3 -->
      <g transform="translate(50.257812 239.80418) scale(0.1 -0.1)">
       <defs>
        <path id="DejaVuSans-33" d="M 2597 2516 
Q 3050 2419 3304 2112 
Q 3559 1806 3559 1356 
Q 3559 666 3084 287 
Q 2609 -91 1734 -91 
Q 1441 -91 1130 -33 
Q 819 25 488 141 
L 488 750 
Q 750 597 1062 519 
Q 1375 441 1716 441 
Q 2309 441 2620 675 
Q 2931 909 2931 1356 
Q 2931 1769 2642 2001 
Q 2353 2234 1838 2234 
L 1294 2234 
L 1294 2753 
L 1863 2753 
Q 2328 2753 2575 2939 
Q 2822 3125 2822 3475 
Q 2822 3834 2567 4026 
Q 2313 4219 1838 4219 
Q 1578 4219 1281 4162 
Q 984 4106 628 3988 
L 628 4550 
Q 988 4650 1302 4700 
Q 1616 4750 1894 4750 
Q 2613 4750 3031 4423 
Q 3450 4097 3450 3541 
Q 3450 3153 3228 2886 
Q 3006 2619 2597 2516 
z
" transform="scale(0.015625)"/>
       </defs>
       <use xlink:href="#DejaVuSans-2212"/>
       <use xlink:href="#DejaVuSans-33" x="83.789062"/>
      </g>
     </g>
    </g>
    <g id="ytick_4">
     <g id="line2d_10">
      <g>
       <use xlink:href="#m6955dc18cc" x="72" y="205.154111" style="stroke: #000000; stroke-width: 0.8"/>
      </g>
     </g>
     <g id="text_10">
      <!-- −2 -->
      <g transform="translate(50.257812 208.95333) scale(0.1 -0.1)">
       <use xlink:href="#DejaVuSans-2212"/>
       <use xlink:href="#DejaVuSans-32" x="83.789062"/>
      </g>
     </g>
    </g>
    <g id="ytick_5">
     <g id="line2d_11">
      <g>
       <use xlink:href="#m6955dc18cc" x="72" y="174.30326" style="stroke: #000000; stroke-width: 0.8"/>
      </g>
     </g>
     <g id="text_11">
      <!-- −1 -->
      <g transform="translate(50.257812 178.102479) scale(0.1 -0.1)">
       <use xlink:href="#DejaVuSans-2212"/>
       <use xlink:href="#DejaVuSans-31" x="83.789062"/>
      </g>
     </g>
    </g>
    <g id="ytick_6">
     <g id="line2d_12">
      <g>
       <use xlink:href="#m6955dc18cc" x="72" y="143.45241" style="stroke: #000000; stroke-width: 0.8"/>
      </g>
     </g>
     <g id="text_12">
      <!-- 0 -->
      <g transform="translate(58.6375 147.251628) scale(0.1 -0.1)">
       <use xlink:href="#DejaVuSans-30"/>
      </g>
     </g>
    </g>
    <g id="ytick_7">
     <g id="line2d_13">
      <g>
       <use xlink:href="#m6955dc18cc" x="72" y="112.601559" style="stroke: #000000; stroke-width: 0.8"/>
      </g>
     </g>
     <g id="text_13">
      <!-- 1 -->
      <g transform="translate(58.6375 116.400778) scale(0.1 -0.1)">
       <use xlink:href="#DejaVuSans-31"/>
      </g>
     </g>
    </g>
    <g id="ytick_8">
     <g id="line2d_14">
      <g>
       <use xlink:href="#m6955dc18cc" x="72" y="81.750708" style="stroke: #000000; stroke-width: 0.8"/>
      </g>
     </g>
     <g id="text_14">
      <!-- 2 -->
      <g transform="translate(58.6375 85.549927) scale(0.1 -0.1)">
       <use xlink:href="#DejaVuSans-32"/>
      </g>
     </g>
    </g>
    <g id="ytick_9">
     <g id="line2d_15">
      <g>
       <use xlink:href="#m6955dc18cc" x="72" y="50.899858" style="stroke: #000000; stroke-width: 0.8"/>
      </g>
     </g>
     <g id="text_15">
      <!-- 3 -->
      <g transform="translate(58.6375 54.699077) scale(0.1 -0.1)">
       <use xlink:href="#DejaVuSans-33"/>
      </g>
     </g>
    </g>
   </g>
   <g id="line2d_16">
    <path d="M 72 188.50874 
L 72.404714 195.046713 
L 72.607072 194.05391 
L 72.809429 187.903372 
L 73.214143 170.081343 
L 73.618858 162.913787 
L 75.035358 115.089727 
L 75.237715 113.38259 
L 75.440073 116.300463 
L 75.64243 121.03444 
L 75.844787 122.935295 
L 76.047144 131.725236 
L 76.654216 172.236452 
L 77.05893 186.111483 
L 77.261287 188.629814 
L 77.463645 188.411881 
L 77.666002 182.237129 
L 78.070716 165.807446 
L 78.475431 158.615676 
L 78.677788 153.348975 
L 79.487217 120.489609 
L 79.891931 111.106407 
L 80.094288 112.232391 
L 80.903717 136.689252 
L 81.713146 180.130449 
L 82.11786 188.581384 
L 82.320218 189.755798 
L 82.522575 189.586295 
L 82.724932 188.133412 
L 82.927289 184.198521 
L 83.332004 170.940965 
L 83.736718 162.683748 
L 83.939075 160.928181 
L 84.141432 161.085577 
L 84.546147 164.77832 
L 84.748504 165.989056 
L 84.950861 166.001164 
L 85.355576 168.422635 
L 85.557933 166.497565 
L 85.76029 170.032913 
L 86.569719 195.966872 
L 86.772076 199.478006 
L 86.974433 200.398165 
L 87.176791 200.434487 
L 87.379148 199.659616 
L 87.581505 197.504506 
L 87.783862 193.605937 
L 88.188577 180.881105 
L 88.390934 177.890588 
L 89.200363 173.229256 
L 89.40272 170.844106 
L 89.807434 162.30842 
L 90.212149 160.891859 
L 90.414506 159.33001 
L 90.616863 163.918698 
L 91.223935 193.109536 
L 91.628649 199.478006 
L 91.831006 199.514328 
L 92.033364 198.073552 
L 92.842792 171.437367 
L 93.04515 170.202416 
L 93.449864 165.2384 
L 93.652221 164.935716 
L 93.854578 163.240686 
L 94.056936 162.877465 
L 94.259293 161.364046 
L 94.46165 157.671302 
L 94.664007 156.024701 
L 94.866364 156.557425 
L 95.068722 158.373529 
L 95.271079 156.157882 
L 95.473436 161.993628 
L 96.080508 193.327468 
L 96.485222 198.642598 
L 96.687579 199.744367 
L 96.889937 197.238145 
L 97.699365 171.013609 
L 98.306437 164.947823 
L 98.508794 164.729891 
L 99.52058 152.477246 
L 99.722937 153.203687 
L 99.925295 155.722017 
L 100.127652 154.668677 
L 100.330009 160.528638 
L 100.937081 191.8988 
L 101.341795 198.981604 
L 101.544152 199.55065 
L 101.74651 197.407648 
L 101.948867 190.506454 
L 102.353581 173.168719 
L 102.555938 172.272774 
L 103.567724 162.005736 
L 104.377153 149.244581 
L 104.57951 149.98313 
L 104.781868 153.094721 
L 104.984225 153.082614 
L 105.186582 158.216133 
L 105.793654 190.082697 
L 106.198368 197.44397 
L 106.400725 198.460988 
L 106.603083 196.136375 
L 107.412511 169.621263 
L 107.614869 168.62846 
L 107.817226 166.509672 
L 108.22194 158.119274 
L 108.626655 145.58816 
L 108.829012 142.161778 
L 109.031369 141.072115 
L 109.638441 146.084561 
L 109.840798 149.220367 
L 110.043155 155.225616 
L 110.650227 187.007428 
L 111.054941 195.240431 
L 111.257298 196.3422 
L 111.459655 195.33729 
L 111.662013 188.750887 
L 112.066727 171.861124 
L 112.471442 163.204364 
L 113.887942 123.710165 
L 114.090299 122.342034 
L 114.292656 126.276925 
L 114.495014 132.875435 
L 114.697371 135.526946 
L 115.102085 155.165079 
L 115.709157 183.665797 
L 116.113871 191.71719 
L 116.316228 191.814049 
L 116.518586 190.857567 
L 116.720943 188.762995 
L 117.125657 173.035538 
L 118.542158 112.607719 
L 118.744515 106.771973 
L 118.946872 104.532112 
L 119.149229 106.650899 
L 119.756301 128.516786 
L 120.56573 174.331025 
L 120.970444 185.772477 
L 121.172801 188.133412 
L 121.375159 189.077786 
L 121.577516 188.242378 
L 121.779873 183.665797 
L 122.589302 154.220705 
L 123.196374 139.522374 
L 123.398731 136.88297 
L 123.601088 137.004043 
L 123.803445 136.677145 
L 124.410517 144.413746 
L 124.612874 150.745894 
L 125.219946 183.24204 
L 125.62466 191.632438 
L 125.827017 192.782637 
L 126.029374 191.317647 
L 127.04116 158.760964 
L 127.648232 137.161439 
L 128.255304 112.692471 
L 128.457661 108.333822 
L 128.660018 108.140104 
L 129.26709 133.735057 
L 130.278876 186.184128 
L 130.481233 190.700172 
L 130.68359 191.499257 
L 130.885947 190.010052 
L 132.504805 127.12444 
L 133.111877 102.485969 
L 133.314234 97.049765 
L 133.516591 98.030461 
L 133.921306 106.905154 
L 134.123663 111.191158 
L 135.135449 174.633709 
L 135.540163 181.922338 
L 135.74252 181.377507 
L 135.944878 175.263292 
L 136.349592 157.126471 
L 136.551949 153.215794 
L 136.754306 146.36303 
L 136.956664 149.002434 
L 137.159021 142.476569 
L 137.766092 137.379372 
L 137.96845 137.609411 
L 138.373164 134.485713 
L 138.777879 138.844362 
L 138.980236 139.328656 
L 139.182593 146.145098 
L 139.789665 178.847069 
L 140.194379 187.721762 
L 140.396736 188.92039 
L 140.599093 187.176931 
L 141.003808 169.730229 
L 141.408522 157.501799 
L 142.015594 149.765198 
L 142.622665 144.48639 
L 142.825023 144.328994 
L 143.02738 143.626768 
L 143.229737 144.026311 
L 143.634451 147.077364 
L 143.836809 146.36303 
L 144.039166 152.247206 
L 144.646238 180.747924 
L 145.050952 187.733869 
L 145.253309 188.484525 
L 145.455666 186.668422 
L 145.860381 169.536512 
L 146.062738 160.032236 
L 146.66981 150.515854 
L 146.872167 148.966112 
L 147.074524 148.33653 
L 147.479238 141.91963 
L 147.681596 146.811003 
L 147.883953 147.380048 
L 148.08631 148.893468 
L 148.491024 154.281242 
L 148.693382 153.494264 
L 149.098096 167.16347 
L 149.502811 183.447865 
L 149.907525 191.039178 
L 150.109882 192.237806 
L 150.312239 191.8988 
L 150.514597 190.2522 
L 150.716954 186.922676 
L 151.121668 174.742675 
L 151.526383 162.780607 
L 151.931097 159.390547 
L 152.133454 159.136292 
L 152.335811 160.286491 
L 152.538169 160.589175 
L 152.740526 159.390547 
L 152.942883 159.56005 
L 153.14524 158.991004 
L 153.347597 159.015219 
L 153.549955 157.308081 
L 153.752312 158.591461 
L 154.764098 188.641921 
L 154.966455 190.954426 
L 155.168812 191.765619 
L 155.573527 189.465221 
L 155.775884 182.999893 
L 156.78767 137.488338 
L 157.799456 112.595612 
L 158.001813 113.770025 
L 158.406528 121.482412 
L 158.608885 129.400623 
L 159.215956 169.488082 
L 159.620671 182.103948 
L 159.823028 183.980589 
L 160.025385 183.447865 
L 160.227743 177.721085 
L 160.632457 158.760964 
L 161.8466 129.376409 
L 162.251315 123.50434 
L 162.453672 123.589092 
L 162.656029 125.259907 
L 163.465458 143.8447 
L 164.072529 178.810747 
L 164.477244 189.683154 
L 164.679601 189.876872 
L 164.881958 187.988124 
L 165.084316 182.055519 
L 165.48903 163.494941 
L 166.500816 142.997185 
L 167.310245 117.922849 
L 167.512602 119.884241 
L 167.917316 131.906846 
L 168.119674 134.509928 
L 168.322031 141.14476 
L 168.929102 175.856552 
L 169.333817 184.731245 
L 169.536174 186.789495 
L 169.738531 184.646493 
L 170.143246 168.701104 
L 170.54796 150.988041 
L 171.357389 124.945116 
L 171.559746 121.421875 
L 172.166818 107.280482 
L 172.369175 108.224856 
L 172.571532 112.849866 
L 173.178604 135.623805 
L 173.785675 177.164147 
L 174.19039 188.496633 
L 174.392747 190.240092 
L 174.595104 189.174645 
L 174.999819 175.033252 
L 175.404533 160.419672 
L 177.023391 114.690184 
L 177.225748 114.992868 
L 177.428105 117.281159 
L 177.630462 126.979152 
L 177.83282 128.40782 
L 178.237534 154.19649 
L 178.642248 179.282934 
L 179.046963 190.506454 
L 179.24932 192.685778 
L 179.451677 191.208681 
L 179.654034 186.123591 
L 180.261106 162.816929 
L 181.879964 106.106068 
L 182.082321 104.193106 
L 182.284678 107.510522 
L 183.094107 140.466748 
L 183.498821 163.289116 
L 183.903536 175.844445 
L 184.30825 180.433133 
L 184.510607 181.232219 
L 184.712965 179.101324 
L 184.915322 171.267864 
L 185.724751 123.262193 
L 186.129465 110.743186 
L 186.331822 107.195731 
L 186.53418 106.747758 
L 186.736537 108.236963 
L 187.748323 131.918954 
L 188.557752 169.512297 
L 188.962466 177.817944 
L 189.164823 179.016572 
L 189.36718 179.065002 
L 189.569538 178.629137 
L 189.771895 172.309097 
L 190.986038 116.070423 
L 191.188395 112.958832 
L 191.390752 112.934618 
L 191.795467 118.298177 
L 192.604896 136.65293 
L 193.414325 173.786194 
L 193.819039 181.825479 
L 194.021396 182.455062 
L 194.426111 180.130449 
L 194.628468 174.875856 
L 195.437897 139.147046 
L 195.640254 136.204958 
L 195.842611 136.919292 
L 196.247325 140.478855 
L 196.449683 140.817861 
L 196.65204 140.587821 
L 197.056754 145.406549 
L 197.259112 145.902951 
L 197.461469 150.842753 
L 198.06854 179.222397 
L 198.473255 187.552259 
L 198.675612 187.612796 
L 198.877969 185.469794 
L 199.282684 167.39351 
L 199.687398 153.990665 
L 201.306256 114.992868 
L 201.508613 114.314856 
L 202.115684 125.586806 
L 202.318042 132.136886 
L 202.925113 169.766552 
L 203.329828 180.130449 
L 203.532185 181.3654 
L 203.734542 179.609833 
L 203.936899 172.84182 
L 204.341614 152.876789 
L 205.758114 120.768078 
L 205.960471 119.303088 
L 206.162829 119.387839 
L 206.365186 120.223247 
L 206.7699 127.184977 
L 206.972257 129.061617 
L 207.174615 135.430087 
L 207.781686 170.117665 
L 208.186401 179.609833 
L 208.388758 181.401722 
L 208.591115 179.44033 
L 208.793472 172.466492 
L 209.198187 152.610427 
L 209.805258 139.522374 
L 210.209973 127.838774 
L 210.817044 103.345591 
L 211.019402 98.35736 
L 211.221759 100.100819 
L 211.626473 114.484359 
L 211.82883 117.547521 
L 212.031188 126.204281 
L 212.638259 164.427207 
L 213.042974 175.348043 
L 213.245331 177.69687 
L 213.447688 176.69196 
L 213.650045 170.396134 
L 214.257117 144.970684 
L 214.661831 129.485375 
L 215.47126 94.604079 
L 215.875975 84.772905 
L 216.078332 84.494436 
L 216.280689 87.751315 
L 217.090118 125.235692 
L 217.697189 161.630408 
L 218.101904 172.4786 
L 218.304261 174.452099 
L 218.506618 175.251184 
L 218.708976 174.512635 
L 218.911333 167.030289 
L 219.518404 134.824719 
L 220.125476 114.133246 
L 220.327833 112.861974 
L 220.53019 114.169568 
L 221.541976 139.038079 
L 221.744334 142.064919 
L 222.553762 175.505439 
L 222.958477 181.898123 
L 223.160834 182.903034 
L 223.363191 183.108859 
L 223.565549 182.1887 
L 223.767906 177.067288 
L 224.374977 154.608141 
L 224.779692 150.152633 
L 225.386763 151.363369 
L 225.589121 153.433727 
L 225.791478 153.954343 
L 226.196192 158.882038 
L 226.398549 158.676213 
L 226.600907 162.453708 
L 227.410335 193.969158 
L 227.612693 196.3422 
L 227.81505 197.335003 
L 228.017407 195.458363 
L 228.826836 170.420349 
L 229.029193 169.052217 
L 229.23155 165.674265 
L 230.648051 128.395713 
L 230.850408 128.734719 
L 231.255122 137.209869 
L 231.45748 143.61466 
L 232.064551 181.050608 
L 232.469266 191.148144 
L 232.671623 192.746315 
L 232.87398 192.031981 
L 233.278694 177.164147 
L 233.683409 163.918698 
L 235.302267 125.950027 
L 235.504624 125.598913 
L 236.111695 136.83454 
L 236.314053 142.924541 
L 236.921124 179.452437 
L 237.325839 188.787209 
L 237.528196 190.627528 
L 237.730553 189.38047 
L 238.135267 175.299614 
L 238.539982 162.49003 
L 239.349411 144.30478 
L 239.754125 138.420604 
L 240.15884 132.415355 
L 240.361197 132.270067 
L 240.563554 135.478516 
L 240.968268 145.830307 
L 241.170626 150.285814 
L 241.777697 182.939356 
L 242.182412 192.262021 
L 242.384769 193.727011 
L 242.587126 191.971444 
L 242.99184 177.442616 
L 243.396555 166.885001 
L 245.21777 122.995831 
L 245.420127 125.489947 
L 246.027199 141.241618 
L 246.836627 184.440668 
L 247.038985 189.356255 
L 247.241342 191.220788 
L 247.443699 189.731583 
L 247.848413 175.880767 
L 249.467271 110.040959 
L 249.669628 105.294875 
L 249.871985 104.156784 
L 250.074343 104.253643 
L 250.2767 108.333822 
L 250.883772 127.209192 
L 251.6932 171.279971 
L 252.097915 179.815658 
L 252.300272 181.619654 
L 252.502629 181.77705 
L 252.704986 179.500867 
L 253.109701 160.250169 
L 253.91913 117.220622 
L 254.323844 107.934279 
L 254.728558 102.75233 
L 254.930916 102.013782 
L 255.133273 106.42086 
L 255.740345 128.444142 
L 256.549773 172.648102 
L 256.954488 181.740728 
L 257.156845 183.980589 
L 257.359202 184.961285 
L 257.561559 184.392239 
L 257.966274 167.417724 
L 258.573345 137.803129 
L 258.97806 125.066189 
L 259.382774 118.588753 
L 259.585131 116.566825 
L 259.787489 116.31257 
L 259.989846 117.850205 
L 260.39456 127.245514 
L 260.596917 135.091081 
L 261.203989 171.522118 
L 261.608704 182.515598 
L 261.811061 184.234843 
L 262.013418 183.774764 
L 262.418132 169.693907 
L 262.62049 162.635318 
L 263.025204 156.956968 
L 263.227561 155.310367 
L 263.429918 154.717107 
L 263.834633 155.467763 
L 264.03699 155.286153 
L 264.239347 155.843091 
L 264.441704 155.89152 
L 264.644062 155.734125 
L 264.846419 156.932753 
L 265.048776 159.305795 
L 265.251133 159.305795 
L 265.45349 161.66673 
L 266.060562 186.619992 
L 266.465277 194.162876 
L 266.667634 195.070928 
L 266.869991 192.613134 
L 267.072348 187.939694 
L 267.477063 172.369633 
L 268.084134 159.342117 
L 268.488849 153.300546 
L 269.09592 146.689929 
L 269.500635 144.365317 
L 269.702992 145.648696 
L 269.905349 147.767484 
L 270.107706 148.167027 
L 270.310063 151.871878 
L 270.917135 180.578421 
L 271.32185 187.612796 
L 271.524207 188.871961 
L 271.726564 187.86705 
L 274.15485 104.6774 
L 274.357208 100.46404 
L 274.559565 102.425432 
L 275.166636 117.208515 
L 275.976065 165.141541 
L 276.38078 172.527029 
L 276.583137 172.115379 
L 276.987851 159.28158 
L 277.392566 142.294958 
L 278.404352 108.830224 
L 278.606709 107.038335 
L 279.011423 99.265412 
L 279.213781 98.321038 
L 279.416138 100.827261 
L 280.023209 125.344659 
L 280.630281 167.272436 
L 281.034995 180.663173 
L 281.237353 183.532616 
L 281.43971 182.624565 
L 281.642067 179.161861 
L 282.249139 154.620248 
L 282.85621 134.848934 
L 283.867996 109.701953 
L 284.070354 108.999727 
L 284.272711 113.79424 
L 285.284497 162.623211 
L 285.689211 181.534903 
L 286.093926 190.20377 
L 286.296283 191.547687 
L 286.49864 190.482239 
L 286.700997 188.750887 
L 287.105712 170.517208 
L 287.712783 140.212493 
L 288.522212 114.678077 
L 288.724569 110.488932 
L 288.926927 109.35084 
L 289.129284 111.45752 
L 289.736355 131.3378 
L 290.545784 172.539136 
L 290.950499 181.522795 
L 291.152856 183.157288 
L 291.355213 183.205718 
L 291.55757 182.333988 
L 291.759927 174.99693 
L 292.771714 116.978475 
L 293.176428 104.047818 
L 293.581142 97.437201 
L 293.7835 96.420183 
L 293.985857 98.490541 
L 294.592928 113.503664 
L 295.402357 162.477923 
L 295.807072 171.122576 
L 296.009429 171.025717 
L 296.414143 159.087863 
L 297.830644 79.615171 
L 298.235358 71.781711 
L 298.437715 70.256184 
L 298.640073 70.41358 
L 298.84243 71.624316 
L 299.044787 76.358292 
L 299.449501 92.243145 
L 300.056573 138.771718 
L 300.461287 153.639552 
L 300.663645 157.187008 
L 300.866002 157.610765 
L 301.068359 153.591123 
L 301.473073 135.890167 
L 302.484859 73.864177 
L 302.687217 67.193023 
L 302.889574 67.25356 
L 303.091931 72.023858 
L 303.496646 77.121056 
L 303.90136 90.233323 
L 304.306074 106.699329 
L 304.913146 147.489015 
L 305.31786 162.429493 
L 305.520218 165.710587 
L 305.722575 164.657247 
L 305.924932 160.455994 
L 306.532004 136.907185 
L 307.54379 95.645312 
L 307.746147 89.627955 
L 307.948504 89.107339 
L 308.757933 108.127997 
L 309.162647 123.492233 
L 309.769719 160.625497 
L 310.174433 172.345419 
L 310.376791 174.936393 
L 310.579148 174.597387 
L 310.983862 160.795 
L 312.198005 99.471237 
L 312.60272 92.618473 
L 312.805077 90.039606 
L 313.007434 90.366504 
L 313.209791 92.545829 
L 313.816863 108.806009 
L 314.01922 116.869509 
L 314.626292 153.760626 
L 315.031006 165.843768 
L 315.233364 168.543708 
L 315.435721 168.156273 
L 315.840435 157.090149 
L 316.24515 146.060347 
L 316.649864 138.977543 
L 317.054578 129.957562 
L 317.66165 125.526269 
L 317.864007 125.259907 
L 318.066364 124.727183 
L 318.268722 127.487661 
L 318.875793 140.539392 
L 319.685222 175.081681 
L 320.089937 182.612457 
L 320.292294 183.581046 
L 320.697008 178.907606 
L 321.101723 163.446511 
L 322.315866 117.511199 
L 322.72058 111.469628 
L 322.922937 110.101496 
L 323.125295 112.535075 
L 323.732366 128.81947 
L 324.541795 169.22172 
L 324.94651 177.648441 
L 325.148867 179.355578 
L 325.351224 179.3919 
L 325.553581 178.060091 
L 325.755938 170.795677 
L 326.970082 104.532112 
L 327.172439 100.803046 
L 327.374796 99.87078 
L 327.77951 96.589686 
L 327.981868 99.531774 
L 328.184225 104.713722 
L 328.791296 135.163725 
L 329.196011 160.940288 
L 329.398368 169.923947 
L 329.803083 175.880767 
L 330.00544 175.323828 
L 330.207797 172.01852 
L 330.814869 143.420943 
L 331.42194 120.889151 
L 331.826655 107.522629 
L 332.029012 105.815492 
L 332.433726 105.936565 
L 332.636083 107.171516 
L 332.838441 109.847242 
L 333.243155 123.359052 
L 333.445512 128.674182 
L 334.052584 167.417724 
L 334.457298 180.26363 
L 334.659655 183.459972 
L 334.862013 182.043412 
L 335.266727 170.347705 
L 335.671442 155.988379 
L 336.48087 132.342711 
L 336.683228 129.352194 
L 336.885585 128.698397 
L 337.087942 125.054082 
L 337.290299 123.96442 
L 337.695014 127.778237 
L 338.099728 136.301817 
L 338.302085 139.764521 
L 339.111514 178.5686 
L 339.313871 182.225022 
L 339.516228 183.544724 
L 339.718586 181.147467 
L 340.1233 167.381402 
L 340.932729 141.168974 
L 342.349229 104.762152 
L 342.551587 104.713722 
L 343.158658 119.266765 
L 343.76573 156.266848 
L 344.170444 166.885001 
L 344.372801 169.693907 
L 344.575159 168.434742 
L 344.777516 164.354563 
L 345.18223 146.145098 
L 346.194016 97.425093 
L 346.598731 88.719904 
L 347.003445 84.821335 
L 347.205802 84.324933 
L 347.40816 86.201573 
L 347.610517 90.826584 
L 348.015231 106.215035 
L 348.82466 159.935378 
L 349.229374 170.020806 
L 349.431732 169.572834 
L 349.634089 166.158559 
L 349.836446 159.596372 
L 351.050589 98.030461 
L 351.455304 87.206484 
L 351.860018 81.988213 
L 352.062375 81.45549 
L 352.264733 83.598492 
L 352.46709 90.136464 
L 353.276519 139.122831 
L 353.681233 161.485119 
L 354.085947 173.386651 
L 354.288305 176.498242 
L 354.490662 176.837248 
L 354.693019 175.517546 
L 355.097733 150.733786 
L 355.704805 107.207838 
L 356.109519 92.642687 
L 356.716591 81.915569 
L 356.918948 81.273879 
L 357.121306 84.107001 
L 357.52602 99.216982 
L 357.728377 106.699329 
L 358.740163 162.998539 
L 359.144878 170.650389 
L 359.347235 171.752158 
L 359.549592 171.55844 
L 359.751949 163.301223 
L 360.763735 92.1705 
L 361.16845 80.922766 
L 361.573164 74.372686 
L 361.775521 73.016662 
L 361.977879 74.953839 
L 362.180236 79.082448 
L 362.58495 94.289288 
L 363.394379 146.629392 
L 363.799093 157.041719 
L 364.001451 157.526014 
L 364.203808 154.051202 
L 364.406165 148.118597 
L 365.013237 107.074657 
L 365.620308 68.984912 
L 366.025023 59.444314 
L 366.429737 55.8 
L 366.632094 56.090577 
L 366.834451 57.652426 
L 367.036809 62.798052 
L 367.441523 80.026821 
L 368.048595 127.027581 
L 368.453309 145.043329 
L 368.655666 150.079989 
L 368.858024 151.484442 
L 369.060381 149.184045 
L 369.262738 143.360406 
L 369.86981 105.851814 
L 370.476881 71.503242 
L 370.881596 61.684176 
L 371.083953 61.417814 
L 371.28631 61.841571 
L 371.488667 64.166184 
L 371.691024 67.84682 
L 372.298096 90.875013 
L 373.107525 141.09633 
L 373.512239 154.232812 
L 373.714597 156.81168 
L 374.119311 156.400029 
L 374.321668 148.869253 
L 375.333454 87.509168 
L 375.738169 79.675708 
L 375.940526 78.077537 
L 376.142883 77.42374 
L 376.34524 80.486901 
L 376.749955 95.996425 
L 377.559383 130.817184 
L 377.964098 151.302832 
L 378.368812 159.463191 
L 378.57117 159.596372 
L 378.773527 156.085238 
L 378.975884 149.450406 
L 380.392384 80.474794 
L 380.797099 74.602725 
L 381.201813 70.110896 
L 381.40417 72.33865 
L 382.011242 94.240859 
L 382.820671 143.263547 
L 383.225385 152.792037 
L 383.427743 153.179472 
L 383.6301 150.019452 
L 384.034814 136.858755 
L 385.0466 93.405451 
L 385.451315 83.525848 
L 385.653672 83.247378 
L 385.856029 85.487239 
L 386.058386 90.003284 
L 387.070172 131.422552 
L 387.474887 155.165079 
L 387.879601 168.119951 
L 388.284316 173.53194 
L 388.68903 175.021144 
L 388.891387 171.618977 
L 389.700816 145.842414 
L 390.307888 139.207582 
L 390.914959 131.664699 
L 391.117316 134.497821 
L 391.926745 157.925556 
L 392.533817 184.089555 
L 392.938531 191.414506 
L 393.140888 192.516275 
L 393.343246 192.249913 
L 393.545603 192.528383 
L 393.74796 187.22536 
L 394.355032 162.853251 
L 395.569175 129.412731 
L 395.771532 125.853168 
L 395.973889 126.567502 
L 396.176247 131.495196 
L 396.783318 156.387922 
L 397.188033 179.198183 
L 397.592747 189.755798 
L 397.795104 191.402399 
L 397.997461 189.901086 
L 398.402176 179.161861 
L 400.628105 103.587738 
L 400.830462 105.270661 
L 401.03282 111.166944 
L 401.639891 144.94647 
L 402.044606 171.207327 
L 402.44932 183.24204 
L 402.651677 185.615082 
L 402.854034 184.634386 
L 403.258749 173.858838 
L 403.663463 157.029612 
L 404.877607 94.228751 
L 405.282321 82.072965 
L 405.484678 79.578849 
L 405.687035 80.220539 
L 405.889393 86.443721 
L 406.294107 108.575969 
L 406.901179 154.42653 
L 407.305893 168.676889 
L 407.50825 171.994305 
L 407.710607 171.679514 
L 408.115322 159.09997 
L 409.73418 80.753263 
L 409.936537 77.83539 
L 410.138894 77.750638 
L 410.341251 80.474794 
L 410.948323 101.856386 
L 411.15068 111.27591 
L 411.757752 153.082614 
L 412.162466 167.332973 
L 412.364823 171.171005 
L 412.56718 172.224345 
L 412.971895 161.533549 
L 414.388395 103.44245 
L 414.79311 95.427379 
L 415.197824 91.480381 
L 415.400181 95.487916 
L 416.20961 132.524321 
L 416.614325 159.305795 
L 417.019039 172.962894 
L 417.221396 175.481224 
L 417.423753 175.154325 
L 417.828468 165.589513 
L 419.244968 107.728454 
L 419.649683 99.677062 
L 419.85204 97.412986 
L 420.054397 98.260501 
L 420.256754 103.381913 
L 421.066183 141.992275 
L 421.673255 174.561065 
L 422.077969 184.06534 
L 422.280326 185.53033 
L 422.482684 185.142895 
L 422.685041 185.046036 
L 423.089755 166.872893 
L 423.899184 126.0711 
L 424.708613 102.849189 
L 424.91097 100.972549 
L 425.113327 103.333484 
L 425.518042 118.758256 
L 425.720399 125.719987 
L 426.529828 169.754444 
L 426.934542 180.711602 
L 427.136899 183.351006 
L 427.339257 183.823193 
L 427.541614 183.956374 
L 427.743971 178.883391 
L 428.148685 155.080327 
L 428.755757 118.576646 
L 429.160471 103.454557 
L 429.565186 98.5874 
L 429.9699 100.899905 
L 430.374615 110.464717 
L 430.576972 117.329588 
L 431.386401 162.138917 
L 431.791115 169.354901 
L 431.993472 168.156273 
L 432.398187 156.182097 
L 433.207616 117.801775 
L 434.017044 76.309863 
L 434.219402 73.428312 
L 435.02883 89.591633 
L 435.433545 104.326287 
L 436.040617 146.302494 
L 436.445331 159.584264 
L 436.647688 162.611104 
L 436.850045 162.211561 
L 437.25476 150.067882 
L 437.659474 129.485375 
L 438.468903 86.177359 
L 438.67126 80.438472 
L 438.873617 81.007517 
L 439.075975 85.196663 
L 439.278332 84.930301 
L 439.480689 86.250003 
L 439.885403 97.182946 
L 440.290118 111.772311 
L 440.897189 155.044005 
L 441.301904 168.192595 
L 441.504261 171.388937 
L 441.706618 171.703729 
L 442.111333 163.022754 
L 442.920762 132.366926 
L 443.527833 111.820741 
L 444.134905 98.417897 
L 444.337262 96.89237 
L 444.539619 100.669865 
L 445.146691 127.221299 
L 445.753762 167.98677 
L 446.158477 180.481562 
L 446.360834 183.399436 
L 446.563191 182.225022 
L 446.967906 171.086253 
L 448.586763 106.396645 
L 448.991478 98.623722 
L 449.193835 97.25559 
L 449.396192 101.178374 
L 450.003264 124.969331 
L 450.812693 172.127486 
L 451.217407 179.960946 
L 451.419764 180.03359 
L 451.824479 169.91184 
L 452.43155 140.212493 
L 453.038622 115.525592 
L 453.443336 105.488593 
L 453.848051 100.851475 
L 454.050408 102.837082 
L 454.252765 108.721257 
L 454.65748 125.453625 
L 454.859837 130.429749 
L 455.669266 168.555816 
L 456.07398 176.534564 
L 456.276337 177.430509 
L 456.681052 174.427884 
L 456.883409 169.718122 
L 457.288123 153.809055 
L 457.692838 147.355834 
L 457.895195 147.767484 
L 458.299909 151.157544 
L 458.502267 151.072792 
L 458.906981 148.820824 
L 459.109338 149.135615 
L 459.514053 151.581301 
L 459.71641 154.111739 
L 460.728196 188.09709 
L 461.13291 190.700172 
L 461.537625 188.750887 
L 461.739982 183.496294 
L 462.144696 163.180149 
L 463.561197 122.451 
L 463.763554 118.177103 
L 463.965911 118.867223 
L 464.572983 130.33289 
L 465.382412 169.766552 
L 465.584769 173.834623 
L 465.787126 175.432795 
L 465.989483 174.004126 
L 467.608341 119.52102 
L 468.620127 107.050442 
L 468.822484 108.89076 
L 469.429556 124.339748 
L 470.036627 157.731839 
L 470.441342 168.204702 
L 470.643699 169.754444 
L 470.846056 168.241025 
L 471.857842 138.263209 
L 472.869628 120.453286 
L 473.071985 120.743863 
L 473.274343 119.690523 
L 473.4767 120.429072 
L 473.679057 122.656825 
L 473.881414 126.53118 
L 474.083772 127.209192 
L 474.286129 131.725236 
L 474.8932 162.405278 
L 475.297915 171.970091 
L 475.500272 172.950786 
L 475.702629 171.752158 
L 476.107344 157.40494 
L 476.512058 144.450068 
L 477.321487 125.913704 
L 477.726201 114.048495 
L 477.928558 111.953922 
L 478.333273 114.714399 
L 478.53563 117.341696 
L 479.142702 132.015812 
L 479.952131 171.909554 
L 480.356845 177.708978 
L 480.559202 177.466831 
L 480.963917 164.463529 
L 482.785131 88.889407 
L 482.987489 85.414595 
L 483.189846 83.864854 
L 483.392203 87.182269 
L 483.999275 110.646327 
L 484.606346 152.50146 
L 485.011061 166.170666 
L 485.213418 168.761641 
L 485.415775 169.318579 
L 485.82049 157.683409 
L 486.225204 139.316549 
L 487.23699 86.358969 
L 487.439347 84.542866 
L 487.844062 88.405112 
L 488.248776 99.362271 
L 489.260562 144.994899 
L 489.665277 163.918698 
L 490.069991 172.805498 
L 490.272348 174.185737 
L 490.677063 172.4786 
L 490.87942 166.75182 
L 491.891206 119.835811 
L 492.29592 109.411377 
L 492.498277 105.064836 
L 492.700635 103.878315 
L 492.902992 104.834796 
L 493.105349 107.667917 
L 493.712421 127.390802 
L 494.52185 169.754444 
L 495.128921 180.505777 
L 495.331278 180.590529 
L 495.533636 180.227308 
L 495.735993 175.783908 
L 496.950136 121.942491 
L 497.557208 107.607381 
L 497.759565 105.633881 
L 497.961922 107.522629 
L 498.568994 126.058993 
L 499.378422 169.488082 
L 499.58078 173.507725 
L 499.783137 174.972715 
L 499.985494 173.023431 
L 500.187851 168.010985 
L 500.794923 146.290386 
L 500.99728 143.287762 
L 501.401995 135.587483 
L 501.806709 128.964758 
L 502.009066 128.698397 
L 502.211423 129.909132 
L 502.413781 130.28446 
L 502.616138 129.303764 
L 503.020852 135.018437 
L 503.223209 135.345336 
L 503.425567 139.764521 
L 504.032638 169.584941 
L 504.437353 177.273113 
L 504.63971 178.229594 
L 504.842067 176.837248 
L 505.246782 162.502137 
L 505.651496 148.493925 
L 507.270354 105.464378 
L 507.472711 103.636168 
L 507.675068 105.633881 
L 508.28214 122.124102 
L 508.889211 156.254741 
L 509.293926 166.328062 
L 509.496283 168.39842 
L 509.69864 167.320865 
L 510.103354 153.470049 
L 511.722212 90.899228 
L 512.126927 80.450579 
L 512.329284 81.382845 
L 512.936355 101.602132 
L 513.34107 124.509251 
L 513.745784 150.079989 
L 514.150499 163.446511 
L 514.352856 166.727605 
L 514.555213 167.018181 
L 514.75757 161.787803 
L 516.174071 104.871118 
L 516.376428 104.229428 
L 516.781142 109.714061 
L 516.9835 108.103782 
L 517.185857 108.418574 
L 517.590571 118.830901 
L 517.792928 121.325016 
L 517.995286 127.620842 
L 518.4 150.951719 
L 518.4 150.951719 
" clip-path="url(#pe382bf44d2)" style="fill: none; stroke: #1f77b4; stroke-width: 1.5; stroke-linecap: square"/>
   </g>
   <g id="line2d_17">
    <path d="M 72 140.025918 
L 72.202357 140.025918 
L 72.404714 306.096015 
L 72.607072 307.8 
L 73.011786 295.381175 
L 73.214143 170.460596 
L 73.4165 151.326651 
L 75.035358 120.194783 
L 75.237715 118.314273 
L 75.440073 117.879462 
L 75.64243 120.33691 
L 76.047144 132.695957 
L 76.856573 174.158246 
L 77.261287 180.473311 
L 77.463645 180.672801 
L 77.666002 179.140064 
L 77.868359 174.517226 
L 78.475431 153.401366 
L 80.094288 117.721473 
L 80.296646 118.252801 
L 80.499003 121.455139 
L 80.903717 134.968603 
L 81.510789 167.844106 
L 81.915503 181.385724 
L 82.11786 184.427476 
L 82.320218 185.042455 
L 82.522575 184.004738 
L 82.927289 178.981915 
L 83.332004 169.382493 
L 83.939075 158.354898 
L 84.141432 155.999312 
L 84.34379 155.481692 
L 85.153218 160.930621 
L 85.76029 169.768069 
L 86.165005 179.323744 
L 86.772076 194.196181 
L 86.974433 196.66506 
L 87.176791 196.262329 
L 87.581505 192.797777 
L 87.986219 186.337655 
L 88.390934 177.904722 
L 88.795648 173.751876 
L 89.40272 170.18963 
L 90.009791 165.129619 
L 90.212149 165.610102 
L 90.616863 167.362776 
L 90.81922 170.978375 
L 91.628649 193.415194 
L 91.831006 195.008337 
L 92.033364 193.970396 
L 92.235721 191.233942 
L 93.247507 166.607 
L 93.652221 162.765503 
L 94.259293 158.218386 
L 94.866364 154.040678 
L 95.068722 155.615533 
L 95.473436 161.750217 
L 95.87815 178.730364 
L 96.282865 194.524836 
L 96.485222 197.572674 
L 96.687579 197.781763 
L 96.889937 195.960452 
L 97.092294 191.602768 
L 97.901723 166.357889 
L 98.306437 165.336045 
L 98.711151 163.183664 
L 99.52058 153.370593 
L 99.722937 152.755678 
L 99.925295 154.461431 
L 100.532366 169.437248 
L 101.139438 195.150804 
L 101.341795 198.668992 
L 101.544152 199.084282 
L 101.74651 195.951154 
L 102.151224 182.880477 
L 102.555938 167.463728 
L 102.758296 165.6033 
L 102.960653 165.423431 
L 103.567724 162.223084 
L 104.174796 153.189174 
L 104.377153 151.07593 
L 104.57951 150.595842 
L 104.781868 152.666321 
L 105.388939 168.122203 
L 105.996011 192.547292 
L 106.198368 195.228474 
L 106.400725 195.464571 
L 106.603083 192.836702 
L 107.007797 180.694841 
L 107.412511 166.899619 
L 107.614869 164.071478 
L 107.817226 164.094333 
L 108.019583 163.093959 
L 108.22194 161.120255 
L 108.424297 157.639635 
L 109.031369 138.60745 
L 109.233726 137.581843 
L 109.638441 145.533629 
L 110.245512 165.315727 
L 110.852584 188.804147 
L 111.054941 191.786551 
L 111.257298 192.078873 
L 111.459655 189.580279 
L 111.662013 185.681563 
L 112.471442 161.240203 
L 112.876156 154.439462 
L 113.078513 150.086603 
L 113.483228 133.419764 
L 113.887942 126.719337 
L 114.090299 124.63509 
L 114.292656 124.764313 
L 114.495014 127.660056 
L 114.899728 145.737071 
L 115.5068 174.498506 
L 115.911514 184.55706 
L 116.113871 185.856677 
L 116.316228 184.887652 
L 116.720943 178.251442 
L 117.125657 169.887197 
L 117.732729 151.792139 
L 118.339801 124.689575 
L 118.744515 114.945009 
L 118.946872 112.846818 
L 119.149229 112.633323 
L 119.351587 114.593257 
L 119.756301 129.209426 
L 120.56573 172.914764 
L 120.970444 182.898277 
L 121.172801 183.868854 
L 121.375159 182.648767 
L 121.779873 177.695093 
L 122.184587 166.064639 
L 122.589302 152.745664 
L 122.994016 143.611642 
L 123.398731 136.010397 
L 123.601088 134.458941 
L 123.803445 135.385785 
L 124.005802 138.097988 
L 124.815231 159.600245 
L 125.422303 184.091874 
L 125.827017 191.406522 
L 126.029374 191.388093 
L 126.231732 189.128623 
L 126.636446 176.50534 
L 127.243518 156.996829 
L 128.255304 124.646303 
L 128.660018 115.013503 
L 128.862375 114.838937 
L 129.064733 119.00658 
L 129.26709 127.563347 
L 130.076519 176.855362 
L 130.481233 187.394584 
L 130.68359 188.303342 
L 130.885947 186.5985 
L 131.088305 183.074778 
L 131.493019 168.595053 
L 132.302448 140.905797 
L 133.314234 107.244319 
L 133.516591 105.491259 
L 133.718948 107.332919 
L 134.123663 119.234625 
L 134.528377 137.812172 
L 134.933092 166.72592 
L 135.337806 179.935677 
L 135.540163 181.476483 
L 135.74252 179.797164 
L 135.944878 176.266756 
L 136.349592 161.568569 
L 136.956664 139.629391 
L 137.159021 138.517761 
L 137.563735 133.58522 
L 137.96845 133.061991 
L 138.170807 134.124003 
L 138.575521 137.884195 
L 138.980236 146.904979 
L 139.38495 157.444732 
L 139.992022 181.791648 
L 140.194379 185.510524 
L 140.396736 186.47088 
L 140.599093 184.84074 
L 140.801451 181.221206 
L 141.206165 167.798182 
L 141.610879 153.843404 
L 141.813237 150.331188 
L 142.217951 147.736791 
L 142.420308 148.44618 
L 143.02738 145.734109 
L 143.229737 146.666878 
L 143.432094 148.259136 
L 144.039166 155.889832 
L 144.44388 169.096562 
L 144.848595 182.428237 
L 145.050952 185.219411 
L 145.253309 185.657687 
L 145.658024 179.30117 
L 146.66981 148.135854 
L 147.074524 144.473513 
L 147.276881 144.451821 
L 147.479238 143.484912 
L 147.681596 141.195505 
L 148.288667 146.999748 
L 148.895739 156.856318 
L 149.300453 168.312337 
L 149.705168 179.291648 
L 149.907525 182.274898 
L 150.109882 183.308018 
L 150.514597 178.792749 
L 151.72874 156.566519 
L 152.133454 154.343945 
L 152.335811 153.989047 
L 153.347597 158.040131 
L 153.954669 162.694805 
L 154.966455 183.824434 
L 155.168812 183.941636 
L 155.573527 178.263427 
L 155.775884 175.415841 
L 156.382956 158.220321 
L 157.597099 119.287417 
L 157.799456 117.328054 
L 158.001813 116.653402 
L 158.20417 118.328747 
L 158.608885 128.773943 
L 158.811242 136.858624 
L 159.215956 162.655457 
L 159.620671 176.012453 
L 159.823028 179.663674 
L 160.025385 179.706277 
L 160.227743 176.930894 
L 160.4301 171.501376 
L 161.239529 139.920608 
L 161.8466 126.364791 
L 162.251315 122.691307 
L 162.453672 121.676497 
L 162.656029 122.83192 
L 163.060743 131.18988 
L 163.667815 152.484909 
L 164.274887 178.612089 
L 164.477244 183.133073 
L 164.679601 185.119683 
L 164.881958 183.879431 
L 165.084316 180.434566 
L 165.48903 166.696933 
L 165.893744 152.590818 
L 166.703173 140.376912 
L 167.310245 124.720916 
L 167.512602 122.081403 
L 167.714959 123.537242 
L 167.917316 128.45913 
L 169.333817 183.616357 
L 169.536174 184.517307 
L 169.738531 182.653956 
L 170.143246 171.839034 
L 171.155032 132.138526 
L 171.762103 117.559507 
L 172.166818 113.886433 
L 172.369175 113.980005 
L 172.571532 115.874664 
L 172.773889 120.297724 
L 173.178604 136.002351 
L 174.19039 182.687993 
L 174.392747 184.313507 
L 174.595104 182.885986 
L 174.797461 179.321316 
L 175.202176 165.440473 
L 175.60689 150.797013 
L 177.023391 123.52312 
L 177.225748 122.202117 
L 177.428105 122.944918 
L 177.630462 126.438963 
L 178.035177 140.666051 
L 178.844606 181.814299 
L 179.046963 186.613612 
L 179.24932 188.452069 
L 179.451677 187.352504 
L 179.856392 179.225185 
L 181.272892 130.320251 
L 181.879964 116.171422 
L 182.082321 113.865253 
L 182.284678 114.630253 
L 182.487035 117.13016 
L 182.89175 132.981732 
L 183.903536 176.83448 
L 184.105893 178.85791 
L 184.30825 177.922905 
L 184.712965 172.523051 
L 184.915322 168.765706 
L 185.320036 151.637399 
L 186.129465 112.671038 
L 186.331822 107.635123 
L 186.53418 105.669503 
L 186.736537 106.432454 
L 186.938894 109.924846 
L 187.95068 144.341186 
L 188.760109 173.590037 
L 188.962466 177.240028 
L 189.164823 177.675321 
L 189.36718 175.706354 
L 189.771895 168.815469 
L 190.176609 152.888393 
L 190.986038 121.861287 
L 191.390752 113.818516 
L 191.59311 114.022388 
L 191.795467 116.822882 
L 192.402539 135.018236 
L 193.819039 178.769601 
L 194.021396 180.121939 
L 194.223753 179.254426 
L 194.628468 172.205781 
L 195.033182 156.199124 
L 195.640254 134.456919 
L 195.842611 131.060277 
L 196.044968 129.98048 
L 196.449683 135.505017 
L 197.259112 149.55845 
L 197.461469 152.042003 
L 197.663826 156.189043 
L 198.473255 182.5471 
L 198.675612 185.520854 
L 198.877969 185.330651 
L 199.080326 182.047903 
L 199.485041 166.159022 
L 199.889755 148.911668 
L 200.496827 134.241721 
L 201.103898 125.399985 
L 201.508613 119.43701 
L 201.71097 120.169547 
L 201.913327 123.634339 
L 202.520399 143.782373 
L 203.127471 171.703169 
L 203.329828 176.370596 
L 203.532185 177.7769 
L 203.734542 176.086349 
L 203.936899 172.15652 
L 204.341614 156.158472 
L 204.746328 140.70795 
L 205.960471 119.844577 
L 206.162829 119.67481 
L 206.365186 121.29448 
L 206.7699 129.076608 
L 207.376972 146.29014 
L 207.984044 171.372958 
L 208.186401 175.985043 
L 208.388758 177.384073 
L 208.591115 175.643458 
L 208.793472 171.296249 
L 209.198187 155.107899 
L 209.602901 139.936649 
L 210.007616 132.371014 
L 210.817044 116.12436 
L 211.221759 108.562171 
L 211.424116 108.973125 
L 211.626473 113.762569 
L 212.233545 138.375943 
L 212.840617 168.112586 
L 213.042974 172.849975 
L 213.245331 174.146851 
L 213.447688 172.727002 
L 213.650045 169.05559 
L 214.05476 154.217423 
L 215.268903 111.247217 
L 215.673617 100.149826 
L 215.875975 96.844051 
L 216.078332 95.857801 
L 216.280689 97.336081 
L 216.483046 100.922438 
L 216.887761 116.816808 
L 217.292475 137.658587 
L 217.697189 159.718717 
L 218.101904 169.058897 
L 218.304261 169.61389 
L 218.708976 165.381602 
L 218.911333 161.921359 
L 220.53019 111.799697 
L 220.732548 112.770108 
L 220.934905 117.236275 
L 222.553762 172.595568 
L 222.958477 180.503795 
L 223.160834 180.627168 
L 223.363191 179.354872 
L 223.767906 173.020939 
L 224.779692 145.393389 
L 224.982049 144.892734 
L 225.386763 148.970473 
L 226.196192 158.25234 
L 227.005621 173.424404 
L 227.410335 185.502201 
L 227.81505 191.748417 
L 228.017407 191.629483 
L 228.219764 188.756005 
L 228.624479 175.815732 
L 229.029193 162.350331 
L 229.636265 155.793176 
L 229.838622 153.576072 
L 230.445694 140.810036 
L 230.850408 134.147175 
L 231.052765 134.848748 
L 231.255122 139.300908 
L 231.862194 163.561341 
L 232.266908 181.288397 
L 232.469266 185.529221 
L 232.671623 187.012845 
L 232.87398 186.343113 
L 233.076337 183.694648 
L 233.481052 171.65199 
L 233.885766 158.697504 
L 234.695195 140.489618 
L 235.099909 130.92694 
L 235.504624 125.671387 
L 235.706981 126.936206 
L 235.909338 130.803431 
L 236.314053 145.388265 
L 237.325839 184.788185 
L 237.528196 185.971245 
L 237.730553 184.308038 
L 237.93291 180.54361 
L 238.944696 151.138083 
L 239.754125 133.788588 
L 239.956482 132.258965 
L 240.15884 131.614666 
L 240.361197 131.616799 
L 240.563554 133.186233 
L 240.765911 137.281214 
L 241.980054 184.174192 
L 242.182412 188.064457 
L 242.384769 189.165879 
L 242.587126 187.684969 
L 242.99184 177.458612 
L 243.598912 158.333405 
L 244.408341 141.306444 
L 244.813055 131.923892 
L 245.21777 127.793799 
L 245.420127 128.202635 
L 245.622484 130.864753 
L 245.824841 136.375668 
L 246.836627 180.012549 
L 247.038985 184.570178 
L 247.241342 186.609677 
L 247.443699 185.529096 
L 247.646056 181.86162 
L 248.050771 168.709154 
L 249.467271 115.552131 
L 249.871985 107.614609 
L 250.074343 107.533361 
L 250.2767 110.484722 
L 250.681414 122.750474 
L 251.288486 153.290631 
L 251.6932 170.198578 
L 252.097915 177.934019 
L 252.300272 177.312607 
L 252.704986 171.962134 
L 252.907344 167.903083 
L 253.312058 152.46752 
L 254.121487 116.380685 
L 254.323844 111.706387 
L 254.526201 109.812893 
L 254.728558 109.222602 
L 254.930916 109.944584 
L 255.133273 111.74836 
L 255.33563 115.769805 
L 255.740345 131.012193 
L 256.752131 175.856187 
L 256.954488 179.879578 
L 257.156845 180.854678 
L 257.359202 179.344857 
L 257.763917 173.673806 
L 258.168631 158.939576 
L 258.97806 129.259877 
L 259.382774 120.8099 
L 259.585131 119.50988 
L 259.787489 119.964733 
L 259.989846 122.125308 
L 260.192203 125.529251 
L 260.596917 137.876487 
L 261.001632 154.782575 
L 261.406346 173.975218 
L 261.811061 183.625117 
L 262.013418 184.321484 
L 262.215775 182.058605 
L 262.62049 168.853033 
L 263.227561 146.609164 
L 263.429918 144.292021 
L 263.632276 144.033535 
L 264.03699 148.785319 
L 264.441704 148.735184 
L 264.644062 149.810119 
L 264.846419 151.761419 
L 265.655848 166.283831 
L 266.262919 185.984937 
L 266.465277 189.068493 
L 266.667634 190.36049 
L 266.869991 189.166489 
L 267.274705 181.25632 
L 267.881777 163.004944 
L 268.286491 157.482496 
L 268.691206 154.331808 
L 269.500635 149.214271 
L 269.702992 148.852718 
L 269.905349 150.469665 
L 270.512421 160.465226 
L 271.119492 180.821292 
L 271.32185 183.890041 
L 271.524207 184.844542 
L 271.726564 182.882184 
L 271.928921 178.83815 
L 273.143064 142.218231 
L 274.15485 112.602773 
L 274.357208 110.228783 
L 274.559565 109.305218 
L 274.761922 111.591278 
L 275.166636 123.218194 
L 275.368994 130.139194 
L 275.976065 164.5543 
L 276.38078 171.629306 
L 276.583137 171.001444 
L 276.785494 167.764908 
L 277.190209 154.266808 
L 277.79728 131.865059 
L 278.404352 112.639807 
L 278.809066 107.825209 
L 279.011423 106.824807 
L 279.213781 106.673355 
L 279.416138 108.049005 
L 279.618495 111.200882 
L 279.820852 116.779463 
L 280.427924 147.826933 
L 280.832638 169.372375 
L 281.237353 178.483373 
L 281.43971 178.216489 
L 281.642067 175.021833 
L 282.046782 163.680032 
L 282.653853 141.859532 
L 283.665639 120.125637 
L 284.070354 115.774713 
L 284.272711 116.780057 
L 284.475068 120.771753 
L 284.879782 137.923624 
L 285.689211 177.040027 
L 286.093926 185.630491 
L 286.296283 185.448893 
L 286.49864 183.397059 
L 286.903354 176.404651 
L 287.308069 161.560815 
L 288.117498 131.144219 
L 288.522212 119.931301 
L 288.724569 116.367964 
L 288.926927 114.882389 
L 289.129284 116.022591 
L 289.331641 119.740777 
L 289.736355 133.733405 
L 290.14107 150.358032 
L 290.545784 170.65158 
L 290.950499 180.930372 
L 291.152856 181.622771 
L 291.355213 179.911794 
L 291.759927 173.538569 
L 292.164642 156.312934 
L 292.771714 126.366192 
L 293.176428 107.197222 
L 293.378785 102.413492 
L 293.581142 100.410807 
L 293.7835 100.759336 
L 293.985857 103.571701 
L 294.390571 115.112034 
L 294.997643 139.88336 
L 295.604714 168.39405 
L 295.807072 172.913958 
L 296.009429 174.092004 
L 296.211786 171.751291 
L 296.6165 158.300163 
L 297.830644 91.561362 
L 298.033001 83.887302 
L 298.235358 81.332472 
L 298.437715 80.622667 
L 298.640073 81.512106 
L 299.044787 88.17843 
L 299.247144 93.20924 
L 299.854216 124.231884 
L 300.25893 147.354107 
L 300.663645 159.213525 
L 300.866002 159.772412 
L 301.068359 157.285317 
L 301.877788 127.839603 
L 302.687217 78.307734 
L 303.091931 73.6486 
L 303.294288 74.316053 
L 303.699003 86.225115 
L 304.508432 126.33924 
L 304.913146 146.455658 
L 305.520218 167.064847 
L 305.722575 167.335912 
L 305.924932 163.303773 
L 307.746147 102.403297 
L 307.948504 99.764769 
L 308.150861 99.404542 
L 308.353218 103.371571 
L 308.96029 128.294825 
L 309.769719 161.201496 
L 310.174433 175.004791 
L 310.376791 178.028705 
L 310.579148 177.91727 
L 310.781505 174.787431 
L 311.186219 161.753746 
L 312.400363 108.293702 
L 312.60272 103.180518 
L 312.805077 101.922385 
L 313.007434 101.683695 
L 313.209791 103.615775 
L 313.614506 115.779047 
L 314.423935 145.911833 
L 315.031006 167.713381 
L 315.233364 170.244685 
L 315.435721 170.019536 
L 315.638078 166.886405 
L 316.649864 137.995708 
L 317.054578 131.779846 
L 317.459293 125.626269 
L 317.66165 125.004192 
L 317.864007 125.671826 
L 318.268722 131.743697 
L 318.673436 140.174727 
L 319.280508 154.604024 
L 319.685222 169.713065 
L 320.089937 177.437661 
L 320.292294 177.89893 
L 320.494651 176.309479 
L 320.899365 168.945857 
L 322.72058 116.41183 
L 322.922937 115.548834 
L 323.125295 116.618218 
L 323.327652 119.16408 
L 323.732366 131.495789 
L 324.94651 173.643546 
L 325.148867 174.576536 
L 325.351224 173.001462 
L 325.755938 166.93587 
L 326.36301 144.351893 
L 327.374796 99.303879 
L 327.577153 97.923558 
L 327.77951 99.93301 
L 327.981868 103.078679 
L 328.386582 115.306107 
L 328.993654 142.560562 
L 329.398368 163.892125 
L 329.803083 174.668843 
L 330.00544 175.789889 
L 330.207797 173.415736 
L 330.410154 168.902759 
L 332.029012 108.344075 
L 332.231369 106.786603 
L 332.433726 107.040423 
L 332.636083 109.130524 
L 333.040798 118.164063 
L 333.850227 150.827495 
L 334.457298 175.927811 
L 334.659655 178.997641 
L 334.862013 180.004642 
L 335.06437 176.577356 
L 335.469084 163.882699 
L 336.076156 140.954734 
L 336.683228 128.309695 
L 336.885585 126.066921 
L 337.290299 125.839384 
L 337.492656 126.039231 
L 337.897371 133.591487 
L 338.504442 149.045213 
L 339.313871 179.951389 
L 339.516228 182.570718 
L 339.718586 181.80043 
L 339.920943 177.428154 
L 341.337443 130.195551 
L 341.539801 127.269765 
L 342.146872 114.423963 
L 342.349229 112.284618 
L 342.551587 112.745387 
L 342.753944 115.372458 
L 343.158658 126.387819 
L 343.563373 142.282541 
L 343.968087 161.913081 
L 344.170444 167.273127 
L 344.372801 169.313964 
L 344.575159 168.192524 
L 344.979873 158.861942 
L 345.991659 116.46754 
L 346.396374 97.955881 
L 346.598731 92.492907 
L 346.801088 90.193932 
L 347.003445 90.119362 
L 347.205802 91.367834 
L 347.610517 99.18748 
L 348.015231 112.786636 
L 348.419946 132.937661 
L 349.027017 163.305744 
L 349.229374 167.093101 
L 349.431732 167.552886 
L 349.634089 164.65876 
L 350.038803 151.324146 
L 350.848232 118.081199 
L 351.252947 102.400943 
L 351.657661 94.038619 
L 351.860018 92.391973 
L 352.062375 92.201067 
L 352.264733 94.038519 
L 352.46709 98.125071 
L 352.871804 114.95413 
L 353.88359 166.984454 
L 354.085947 171.707319 
L 354.288305 173.337792 
L 354.490662 171.699447 
L 354.895376 164.339972 
L 355.502448 137.580017 
L 356.109519 101.827684 
L 356.311877 94.966655 
L 356.514234 92.097024 
L 356.716591 91.120626 
L 356.918948 91.5838 
L 357.121306 94.301542 
L 357.52602 106.643996 
L 358.94252 170.687389 
L 359.144878 172.900665 
L 359.347235 171.699719 
L 359.751949 164.48008 
L 360.156664 146.186744 
L 360.561378 122.285759 
L 361.16845 89.066802 
L 361.370807 84.719056 
L 361.573164 83.066478 
L 361.775521 83.648487 
L 361.977879 86.511531 
L 362.382593 99.033089 
L 362.989665 129.355203 
L 363.394379 147.373389 
L 363.799093 161.789815 
L 364.001451 164.299602 
L 364.203808 162.430733 
L 364.608522 150.751492 
L 365.013237 131.922168 
L 365.822665 78.027419 
L 366.025023 72.82333 
L 366.22738 70.686434 
L 366.429737 71.176357 
L 366.834451 79.026763 
L 367.441523 96.897636 
L 367.846238 121.724643 
L 368.048595 137.496632 
L 368.655666 154.47615 
L 368.858024 156.356406 
L 369.060381 154.434176 
L 369.262738 150.508013 
L 369.86981 132.143749 
L 370.881596 77.990627 
L 371.083953 75.694413 
L 371.28631 76.47144 
L 371.488667 79.380639 
L 371.893382 93.274645 
L 372.500453 125.52835 
L 372.905168 145.186534 
L 373.512239 163.638641 
L 373.714597 165.428166 
L 373.916954 163.462698 
L 374.321668 156.405906 
L 374.92874 136.809943 
L 375.535811 104.552597 
L 375.738169 98.82837 
L 375.940526 97.067274 
L 376.142883 98.205602 
L 376.34524 100.757578 
L 376.547597 106.258318 
L 377.964098 162.649075 
L 378.368812 173.304321 
L 378.57117 174.079578 
L 378.773527 172.514497 
L 379.178241 160.619829 
L 380.594742 98.333648 
L 380.797099 94.84955 
L 380.999456 94.312751 
L 381.201813 95.611339 
L 381.40417 98.859252 
L 381.808885 112.188302 
L 382.618314 146.072623 
L 383.225385 163.289386 
L 383.427743 164.010853 
L 383.6301 162.056427 
L 384.034814 152.006918 
L 384.237171 145.080883 
L 384.237171 145.080883 
" clip-path="url(#pe382bf44d2)" style="fill: none; stroke: #ff7f0e; stroke-width: 1.5; stroke-linecap: square"/>
   </g>
   <g id="line2d_18">
    <path d="M 384.439529 138.747814 
L 384.641886 138.165134 
L 385.0466 139.432368 
L 385.248957 143.129793 
L 385.451315 149.031062 
L 386.463101 162.463576 
L 387.272529 182.261184 
L 387.677244 188.789252 
L 387.879601 188.734962 
L 388.081958 187.218348 
L 388.486673 174.56974 
L 389.093744 156.511946 
L 389.296102 152.950604 
L 389.700816 149.166214 
L 389.903173 150.266862 
L 390.10553 152.12148 
L 390.510245 160.911655 
L 390.914959 170.978307 
L 391.117316 173.780373 
L 391.319674 174.194295 
L 392.33146 165.321338 
L 393.545603 142.150959 
L 394.355032 114.070954 
L 394.759746 107.295726 
L 394.962103 106.543624 
L 395.164461 107.031038 
L 395.366818 108.0115 
L 395.569175 110.454649 
L 395.771532 111.372955 
L 396.378604 119.142771 
L 396.580961 121.042017 
L 396.985675 122.55484 
L 397.188033 122.486367 
L 397.592747 118.685441 
L 397.997461 111.365114 
L 398.80689 91.759135 
L 399.009248 85.384207 
L 399.413962 81.145247 
L 399.616319 80.958368 
L 400.021034 81.871058 
L 400.425748 86.015658 
L 400.830462 95.779153 
L 402.044606 129.307734 
L 402.44932 132.167596 
L 402.651677 132.695175 
L 402.854034 132.90133 
L 403.056392 132.792506 
L 403.663463 130.702 
L 404.068178 129.961787 
L 404.270535 130.656657 
L 404.675249 134.319436 
L 405.484678 146.706334 
L 406.09175 160.137073 
L 406.901179 172.960145 
L 407.305893 175.954309 
L 407.50825 176.674411 
L 407.912965 177.101467 
L 408.520036 179.701856 
L 408.924751 181.701522 
L 409.936537 189.603945 
L 410.138894 190.570572 
L 410.341251 190.762791 
L 410.948323 188.446846 
L 411.555394 183.125207 
L 411.960109 177.771938 
L 413.376609 153.665764 
L 413.781324 144.986831 
L 414.590752 126.148503 
L 415.197824 118.100836 
L 415.602539 115.39921 
L 416.20961 109.398334 
L 416.816682 100.933817 
L 417.423753 92.738872 
L 417.828468 89.496881 
L 418.233182 87.215577 
L 418.840254 85.000294 
L 419.042611 84.42441 
L 419.447325 84.101941 
L 419.649683 84.319223 
L 420.054397 84.343544 
L 420.661469 85.797155 
L 420.863826 86.315108 
L 421.470898 90.069816 
L 422.280326 96.964073 
L 423.089755 106.977314 
L 423.696827 118.1808 
L 424.506256 133.609499 
L 425.113327 142.325734 
L 427.946328 184.938721 
L 429.160471 206.144908 
L 429.565186 209.971489 
L 429.767543 210.946758 
L 429.9699 211.317964 
L 430.172257 210.846887 
L 430.576972 208.447351 
L 431.184044 202.452765 
L 432.19583 190.241594 
L 433.409973 171.820344 
L 434.219402 157.680466 
L 434.624116 148.173091 
L 435.838259 108.672373 
L 436.445331 96.123794 
L 436.647688 93.542613 
L 436.850045 93.132078 
L 437.052403 93.21315 
L 437.659474 91.699721 
L 438.266546 90.858847 
L 438.468903 90.794376 
L 438.67126 90.59183 
L 438.873617 89.92949 
L 440.290118 82.043454 
L 440.897189 80.060449 
L 441.099547 79.889751 
L 441.301904 79.961651 
L 441.504261 80.378975 
L 442.111333 82.877646 
L 442.516047 86.870633 
L 443.123119 98.09808 
L 444.134905 116.146688 
L 444.944334 127.322146 
L 445.753762 139.09401 
L 446.360834 149.616488 
L 448.991478 197.116807 
L 449.598549 204.803647 
L 450.407978 212.410964 
L 450.812693 214.477902 
L 451.01505 214.646989 
L 451.217407 213.817577 
L 451.622121 210.047176 
L 452.229193 200.90463 
L 454.65748 159.571607 
L 455.062194 149.924575 
L 456.681052 101.668138 
L 457.085766 95.302805 
L 457.288123 93.446059 
L 457.490481 93.280091 
L 458.097552 92.269917 
L 458.502267 91.472038 
L 458.704624 91.07058 
L 459.109338 90.751972 
L 459.311695 90.27771 
L 460.728196 82.966467 
L 461.13291 81.665577 
L 461.739982 80.692374 
L 461.942339 80.816718 
L 462.144696 81.194624 
L 462.751768 83.619389 
L 462.954125 85.083109 
L 463.35884 90.889331 
L 464.572983 111.737298 
L 467.001269 150.851382 
L 468.013055 169.025132 
L 470.238985 206.225641 
L 471.048413 214.100092 
L 471.453128 215.899212 
L 471.655485 215.635836 
L 471.857842 214.566418 
L 472.262557 210.172557 
L 473.071985 197.125395 
L 475.297915 159.050294 
L 475.904986 142.835897 
L 476.512058 122.087867 
L 477.321487 101.098928 
L 477.726201 94.815472 
L 477.928558 93.382218 
L 478.940345 91.945245 
L 479.345059 91.104267 
L 479.547416 91.023075 
L 479.749773 90.815935 
L 479.952131 90.314406 
L 481.166274 83.901215 
L 481.570988 82.204104 
L 482.17806 80.69008 
L 482.380417 80.619857 
L 482.582774 80.750835 
L 483.189846 82.394969 
L 483.59456 85.094197 
L 483.999275 90.885256 
L 485.213418 111.786002 
L 487.641704 151.215636 
L 488.65349 169.355316 
L 490.87942 206.465207 
L 491.688849 214.236836 
L 492.093563 215.976105 
L 492.29592 215.682146 
L 492.498277 214.567403 
L 492.902992 210.08196 
L 493.712421 196.910271 
L 495.93835 158.765572 
L 496.343064 148.976402 
L 497.557208 110.551399 
L 498.164279 97.009706 
L 498.568994 93.33885 
L 500.592566 90.242385 
L 501.806709 83.832214 
L 502.211423 82.153072 
L 502.818495 80.67478 
L 503.020852 80.622307 
L 503.223209 80.765884 
L 503.830281 82.431746 
L 504.234995 85.206459 
L 504.63971 91.123998 
L 505.853853 112.017396 
L 508.079782 147.863691 
L 511.317498 204.203479 
L 512.126927 212.667499 
L 512.531641 215.416093 
L 512.733998 216.001467 
L 512.936355 215.635167 
L 513.138713 214.468796 
L 513.543427 209.892558 
L 514.555213 193.277817 
L 516.578785 158.479591 
L 516.9835 148.577768 
L 518.197643 110.146866 
L 518.4 105.143241 
L 518.4 105.143241 
" clip-path="url(#pe382bf44d2)" style="fill: none; stroke: #2ca02c; stroke-width: 1.5; stroke-linecap: square"/>
   </g>
   <g id="patch_3">
    <path d="M 72 320.4 
L 72 43.2 
" style="fill: none; stroke: #000000; stroke-width: 0.8; stroke-linejoin: miter; stroke-linecap: square"/>
   </g>
   <g id="patch_4">
    <path d="M 518.4 320.4 
L 518.4 43.2 
" style="fill: none; stroke: #000000; stroke-width: 0.8; stroke-linejoin: miter; stroke-linecap: square"/>
   </g>
   <g id="patch_5">
    <path d="M 72 320.4 
L 518.4 320.4 
" style="fill: none; stroke: #000000; stroke-width: 0.8; stroke-linejoin: miter; stroke-linecap: square"/>
   </g>
   <g id="patch_6">
    <path d="M 72 43.2 
L 518.4 43.2 
" style="fill: none; stroke: #000000; stroke-width: 0.8; stroke-linejoin: miter; stroke-linecap: square"/>
   </g>
   <g id="text_16">
    <!-- Classic Transformer - model_20231126165701 -->
    <g transform="translate(155.436563 37.2) scale(0.12 -0.12)">
     <defs>
      <path id="DejaVuSans-43" d="M 4122 4306 
L 4122 3641 
Q 3803 3938 3442 4084 
Q 3081 4231 2675 4231 
Q 1875 4231 1450 3742 
Q 1025 3253 1025 2328 
Q 1025 1406 1450 917 
Q 1875 428 2675 428 
Q 3081 428 3442 575 
Q 3803 722 4122 1019 
L 4122 359 
Q 3791 134 3420 21 
Q 3050 -91 2638 -91 
Q 1578 -91 968 557 
Q 359 1206 359 2328 
Q 359 3453 968 4101 
Q 1578 4750 2638 4750 
Q 3056 4750 3426 4639 
Q 3797 4528 4122 4306 
z
" transform="scale(0.015625)"/>
      <path id="DejaVuSans-6c" d="M 603 4863 
L 1178 4863 
L 1178 0 
L 603 0 
L 603 4863 
z
" transform="scale(0.015625)"/>
      <path id="DejaVuSans-61" d="M 2194 1759 
Q 1497 1759 1228 1600 
Q 959 1441 959 1056 
Q 959 750 1161 570 
Q 1363 391 1709 391 
Q 2188 391 2477 730 
Q 2766 1069 2766 1631 
L 2766 1759 
L 2194 1759 
z
M 3341 1997 
L 3341 0 
L 2766 0 
L 2766 531 
Q 2569 213 2275 61 
Q 1981 -91 1556 -91 
Q 1019 -91 701 211 
Q 384 513 384 1019 
Q 384 1609 779 1909 
Q 1175 2209 1959 2209 
L 2766 2209 
L 2766 2266 
Q 2766 2663 2505 2880 
Q 2244 3097 1772 3097 
Q 1472 3097 1187 3025 
Q 903 2953 641 2809 
L 641 3341 
Q 956 3463 1253 3523 
Q 1550 3584 1831 3584 
Q 2591 3584 2966 3190 
Q 3341 2797 3341 1997 
z
" transform="scale(0.015625)"/>
      <path id="DejaVuSans-73" d="M 2834 3397 
L 2834 2853 
Q 2591 2978 2328 3040 
Q 2066 3103 1784 3103 
Q 1356 3103 1142 2972 
Q 928 2841 928 2578 
Q 928 2378 1081 2264 
Q 1234 2150 1697 2047 
L 1894 2003 
Q 2506 1872 2764 1633 
Q 3022 1394 3022 966 
Q 3022 478 2636 193 
Q 2250 -91 1575 -91 
Q 1294 -91 989 -36 
Q 684 19 347 128 
L 347 722 
Q 666 556 975 473 
Q 1284 391 1588 391 
Q 1994 391 2212 530 
Q 2431 669 2431 922 
Q 2431 1156 2273 1281 
Q 2116 1406 1581 1522 
L 1381 1569 
Q 847 1681 609 1914 
Q 372 2147 372 2553 
Q 372 3047 722 3315 
Q 1072 3584 1716 3584 
Q 2034 3584 2315 3537 
Q 2597 3491 2834 3397 
z
" transform="scale(0.015625)"/>
      <path id="DejaVuSans-69" d="M 603 3500 
L 1178 3500 
L 1178 0 
L 603 0 
L 603 3500 
z
M 603 4863 
L 1178 4863 
L 1178 4134 
L 603 4134 
L 603 4863 
z
" transform="scale(0.015625)"/>
      <path id="DejaVuSans-63" d="M 3122 3366 
L 3122 2828 
Q 2878 2963 2633 3030 
Q 2388 3097 2138 3097 
Q 1578 3097 1268 2742 
Q 959 2388 959 1747 
Q 959 1106 1268 751 
Q 1578 397 2138 397 
Q 2388 397 2633 464 
Q 2878 531 3122 666 
L 3122 134 
Q 2881 22 2623 -34 
Q 2366 -91 2075 -91 
Q 1284 -91 818 406 
Q 353 903 353 1747 
Q 353 2603 823 3093 
Q 1294 3584 2113 3584 
Q 2378 3584 2631 3529 
Q 2884 3475 3122 3366 
z
" transform="scale(0.015625)"/>
      <path id="DejaVuSans-20" transform="scale(0.015625)"/>
      <path id="DejaVuSans-54" d="M -19 4666 
L 3928 4666 
L 3928 4134 
L 2272 4134 
L 2272 0 
L 1638 0 
L 1638 4134 
L -19 4134 
L -19 4666 
z
" transform="scale(0.015625)"/>
      <path id="DejaVuSans-72" d="M 2631 2963 
Q 2534 3019 2420 3045 
Q 2306 3072 2169 3072 
Q 1681 3072 1420 2755 
Q 1159 2438 1159 1844 
L 1159 0 
L 581 0 
L 581 3500 
L 1159 3500 
L 1159 2956 
Q 1341 3275 1631 3429 
Q 1922 3584 2338 3584 
Q 2397 3584 2469 3576 
Q 2541 3569 2628 3553 
L 2631 2963 
z
" transform="scale(0.015625)"/>
      <path id="DejaVuSans-6e" d="M 3513 2113 
L 3513 0 
L 2938 0 
L 2938 2094 
Q 2938 2591 2744 2837 
Q 2550 3084 2163 3084 
Q 1697 3084 1428 2787 
Q 1159 2491 1159 1978 
L 1159 0 
L 581 0 
L 581 3500 
L 1159 3500 
L 1159 2956 
Q 1366 3272 1645 3428 
Q 1925 3584 2291 3584 
Q 2894 3584 3203 3211 
Q 3513 2838 3513 2113 
z
" transform="scale(0.015625)"/>
      <path id="DejaVuSans-66" d="M 2375 4863 
L 2375 4384 
L 1825 4384 
Q 1516 4384 1395 4259 
Q 1275 4134 1275 3809 
L 1275 3500 
L 2222 3500 
L 2222 3053 
L 1275 3053 
L 1275 0 
L 697 0 
L 697 3053 
L 147 3053 
L 147 3500 
L 697 3500 
L 697 3744 
Q 697 4328 969 4595 
Q 1241 4863 1831 4863 
L 2375 4863 
z
" transform="scale(0.015625)"/>
      <path id="DejaVuSans-6f" d="M 1959 3097 
Q 1497 3097 1228 2736 
Q 959 2375 959 1747 
Q 959 1119 1226 758 
Q 1494 397 1959 397 
Q 2419 397 2687 759 
Q 2956 1122 2956 1747 
Q 2956 2369 2687 2733 
Q 2419 3097 1959 3097 
z
M 1959 3584 
Q 2709 3584 3137 3096 
Q 3566 2609 3566 1747 
Q 3566 888 3137 398 
Q 2709 -91 1959 -91 
Q 1206 -91 779 398 
Q 353 888 353 1747 
Q 353 2609 779 3096 
Q 1206 3584 1959 3584 
z
" transform="scale(0.015625)"/>
      <path id="DejaVuSans-6d" d="M 3328 2828 
Q 3544 3216 3844 3400 
Q 4144 3584 4550 3584 
Q 5097 3584 5394 3201 
Q 5691 2819 5691 2113 
L 5691 0 
L 5113 0 
L 5113 2094 
Q 5113 2597 4934 2840 
Q 4756 3084 4391 3084 
Q 3944 3084 3684 2787 
Q 3425 2491 3425 1978 
L 3425 0 
L 2847 0 
L 2847 2094 
Q 2847 2600 2669 2842 
Q 2491 3084 2119 3084 
Q 1678 3084 1418 2786 
Q 1159 2488 1159 1978 
L 1159 0 
L 581 0 
L 581 3500 
L 1159 3500 
L 1159 2956 
Q 1356 3278 1631 3431 
Q 1906 3584 2284 3584 
Q 2666 3584 2933 3390 
Q 3200 3197 3328 2828 
z
" transform="scale(0.015625)"/>
      <path id="DejaVuSans-65" d="M 3597 1894 
L 3597 1613 
L 953 1613 
Q 991 1019 1311 708 
Q 1631 397 2203 397 
Q 2534 397 2845 478 
Q 3156 559 3463 722 
L 3463 178 
Q 3153 47 2828 -22 
Q 2503 -91 2169 -91 
Q 1331 -91 842 396 
Q 353 884 353 1716 
Q 353 2575 817 3079 
Q 1281 3584 2069 3584 
Q 2775 3584 3186 3129 
Q 3597 2675 3597 1894 
z
M 3022 2063 
Q 3016 2534 2758 2815 
Q 2500 3097 2075 3097 
Q 1594 3097 1305 2825 
Q 1016 2553 972 2059 
L 3022 2063 
z
" transform="scale(0.015625)"/>
      <path id="DejaVuSans-64" d="M 2906 2969 
L 2906 4863 
L 3481 4863 
L 3481 0 
L 2906 0 
L 2906 525 
Q 2725 213 2448 61 
Q 2172 -91 1784 -91 
Q 1150 -91 751 415 
Q 353 922 353 1747 
Q 353 2572 751 3078 
Q 1150 3584 1784 3584 
Q 2172 3584 2448 3432 
Q 2725 3281 2906 2969 
z
M 947 1747 
Q 947 1113 1208 752 
Q 1469 391 1925 391 
Q 2381 391 2643 752 
Q 2906 1113 2906 1747 
Q 2906 2381 2643 2742 
Q 2381 3103 1925 3103 
Q 1469 3103 1208 2742 
Q 947 2381 947 1747 
z
" transform="scale(0.015625)"/>
      <path id="DejaVuSans-5f" d="M 3263 -1063 
L 3263 -1509 
L -63 -1509 
L -63 -1063 
L 3263 -1063 
z
" transform="scale(0.015625)"/>
     </defs>
     <use xlink:href="#DejaVuSans-43"/>
     <use xlink:href="#DejaVuSans-6c" x="69.824219"/>
     <use xlink:href="#DejaVuSans-61" x="97.607422"/>
     <use xlink:href="#DejaVuSans-73" x="158.886719"/>
     <use xlink:href="#DejaVuSans-73" x="210.986328"/>
     <use xlink:href="#DejaVuSans-69" x="263.085938"/>
     <use xlink:href="#DejaVuSans-63" x="290.869141"/>
     <use xlink:href="#DejaVuSans-20" x="345.849609"/>
     <use xlink:href="#DejaVuSans-54" x="377.636719"/>
     <use xlink:href="#DejaVuSans-72" x="423.970703"/>
     <use xlink:href="#DejaVuSans-61" x="465.083984"/>
     <use xlink:href="#DejaVuSans-6e" x="526.363281"/>
     <use xlink:href="#DejaVuSans-73" x="589.742188"/>
     <use xlink:href="#DejaVuSans-66" x="641.841797"/>
     <use xlink:href="#DejaVuSans-6f" x="677.046875"/>
     <use xlink:href="#DejaVuSans-72" x="738.228516"/>
     <use xlink:href="#DejaVuSans-6d" x="777.591797"/>
     <use xlink:href="#DejaVuSans-65" x="875.003906"/>
     <use xlink:href="#DejaVuSans-72" x="936.527344"/>
     <use xlink:href="#DejaVuSans-20" x="977.640625"/>
     <use xlink:href="#DejaVuSans-2d" x="1009.427734"/>
     <use xlink:href="#DejaVuSans-20" x="1045.511719"/>
     <use xlink:href="#DejaVuSans-6d" x="1077.298828"/>
     <use xlink:href="#DejaVuSans-6f" x="1174.710938"/>
     <use xlink:href="#DejaVuSans-64" x="1235.892578"/>
     <use xlink:href="#DejaVuSans-65" x="1299.369141"/>
     <use xlink:href="#DejaVuSans-6c" x="1360.892578"/>
     <use xlink:href="#DejaVuSans-5f" x="1388.675781"/>
     <use xlink:href="#DejaVuSans-32" x="1438.675781"/>
     <use xlink:href="#DejaVuSans-30" x="1502.298828"/>
     <use xlink:href="#DejaVuSans-32" x="1565.921875"/>
     <use xlink:href="#DejaVuSans-33" x="1629.544922"/>
     <use xlink:href="#DejaVuSans-31" x="1693.167969"/>
     <use xlink:href="#DejaVuSans-31" x="1756.791016"/>
     <use xlink:href="#DejaVuSans-32" x="1820.414062"/>
     <use xlink:href="#DejaVuSans-36" x="1884.037109"/>
     <use xlink:href="#DejaVuSans-31" x="1947.660156"/>
     <use xlink:href="#DejaVuSans-36" x="2011.283203"/>
     <use xlink:href="#DejaVuSans-35" x="2074.90625"/>
     <use xlink:href="#DejaVuSans-37" x="2138.529297"/>
     <use xlink:href="#DejaVuSans-30" x="2202.152344"/>
     <use xlink:href="#DejaVuSans-31" x="2265.775391"/>
    </g>
   </g>
   <g id="legend_1">
    <g id="patch_7">
     <path d="M 79 95.234375 
L 161.517188 95.234375 
Q 163.517188 95.234375 163.517188 93.234375 
L 163.517188 50.2 
Q 163.517188 48.2 161.517188 48.2 
L 79 48.2 
Q 77 48.2 77 50.2 
L 77 93.234375 
Q 77 95.234375 79 95.234375 
z
" style="fill: #ffffff; opacity: 0.8; stroke: #cccccc; stroke-linejoin: miter"/>
    </g>
    <g id="line2d_19">
     <path d="M 81 56.298437 
L 91 56.298437 
L 101 56.298437 
" style="fill: none; stroke: #1f77b4; stroke-width: 1.5; stroke-linecap: square"/>
    </g>
    <g id="text_17">
     <!-- Measured -->
     <g transform="translate(109 59.798437) scale(0.1 -0.1)">
      <defs>
       <path id="DejaVuSans-4d" d="M 628 4666 
L 1569 4666 
L 2759 1491 
L 3956 4666 
L 4897 4666 
L 4897 0 
L 4281 0 
L 4281 4097 
L 3078 897 
L 2444 897 
L 1241 4097 
L 1241 0 
L 628 0 
L 628 4666 
z
" transform="scale(0.015625)"/>
       <path id="DejaVuSans-75" d="M 544 1381 
L 544 3500 
L 1119 3500 
L 1119 1403 
Q 1119 906 1312 657 
Q 1506 409 1894 409 
Q 2359 409 2629 706 
Q 2900 1003 2900 1516 
L 2900 3500 
L 3475 3500 
L 3475 0 
L 2900 0 
L 2900 538 
Q 2691 219 2414 64 
Q 2138 -91 1772 -91 
Q 1169 -91 856 284 
Q 544 659 544 1381 
z
M 1991 3584 
L 1991 3584 
z
" transform="scale(0.015625)"/>
      </defs>
      <use xlink:href="#DejaVuSans-4d"/>
      <use xlink:href="#DejaVuSans-65" x="86.279297"/>
      <use xlink:href="#DejaVuSans-61" x="147.802734"/>
      <use xlink:href="#DejaVuSans-73" x="209.082031"/>
      <use xlink:href="#DejaVuSans-75" x="261.181641"/>
      <use xlink:href="#DejaVuSans-72" x="324.560547"/>
      <use xlink:href="#DejaVuSans-65" x="363.423828"/>
      <use xlink:href="#DejaVuSans-64" x="424.947266"/>
     </g>
    </g>
    <g id="line2d_20">
     <path d="M 81 70.976562 
L 91 70.976562 
L 101 70.976562 
" style="fill: none; stroke: #ff7f0e; stroke-width: 1.5; stroke-linecap: square"/>
    </g>
    <g id="text_18">
     <!-- Fitted -->
     <g transform="translate(109 74.476562) scale(0.1 -0.1)">
      <defs>
       <path id="DejaVuSans-46" d="M 628 4666 
L 3309 4666 
L 3309 4134 
L 1259 4134 
L 1259 2759 
L 3109 2759 
L 3109 2228 
L 1259 2228 
L 1259 0 
L 628 0 
L 628 4666 
z
" transform="scale(0.015625)"/>
       <path id="DejaVuSans-74" d="M 1172 4494 
L 1172 3500 
L 2356 3500 
L 2356 3053 
L 1172 3053 
L 1172 1153 
Q 1172 725 1289 603 
Q 1406 481 1766 481 
L 2356 481 
L 2356 0 
L 1766 0 
Q 1100 0 847 248 
Q 594 497 594 1153 
L 594 3053 
L 172 3053 
L 172 3500 
L 594 3500 
L 594 4494 
L 1172 4494 
z
" transform="scale(0.015625)"/>
      </defs>
      <use xlink:href="#DejaVuSans-46"/>
      <use xlink:href="#DejaVuSans-69" x="50.269531"/>
      <use xlink:href="#DejaVuSans-74" x="78.052734"/>
      <use xlink:href="#DejaVuSans-74" x="117.261719"/>
      <use xlink:href="#DejaVuSans-65" x="156.470703"/>
      <use xlink:href="#DejaVuSans-64" x="217.994141"/>
     </g>
    </g>
    <g id="line2d_21">
     <path d="M 81 85.654687 
L 91 85.654687 
L 101 85.654687 
" style="fill: none; stroke: #2ca02c; stroke-width: 1.5; stroke-linecap: square"/>
    </g>
    <g id="text_19">
     <!-- Estimated -->
     <g transform="translate(109 89.154687) scale(0.1 -0.1)">
      <defs>
       <path id="DejaVuSans-45" d="M 628 4666 
L 3578 4666 
L 3578 4134 
L 1259 4134 
L 1259 2753 
L 3481 2753 
L 3481 2222 
L 1259 2222 
L 1259 531 
L 3634 531 
L 3634 0 
L 628 0 
L 628 4666 
z
" transform="scale(0.015625)"/>
      </defs>
      <use xlink:href="#DejaVuSans-45"/>
      <use xlink:href="#DejaVuSans-73" x="63.183594"/>
      <use xlink:href="#DejaVuSans-74" x="115.283203"/>
      <use xlink:href="#DejaVuSans-69" x="154.492188"/>
      <use xlink:href="#DejaVuSans-6d" x="182.275391"/>
      <use xlink:href="#DejaVuSans-61" x="279.6875"/>
      <use xlink:href="#DejaVuSans-74" x="340.966797"/>
      <use xlink:href="#DejaVuSans-65" x="380.175781"/>
      <use xlink:href="#DejaVuSans-64" x="441.699219"/>
     </g>
    </g>
   </g>
  </g>
 </g>
 <defs>
  <clipPath id="pe382bf44d2">
   <rect x="72" y="43.2" width="446.4" height="277.2"/>
  </clipPath>
 </defs>
</svg>
