<?xml version="1.0" encoding="utf-8" standalone="no"?>
<!DOCTYPE svg PUBLIC "-//W3C//DTD SVG 1.1//EN"
  "http://www.w3.org/Graphics/SVG/1.1/DTD/svg11.dtd">
<svg xmlns:xlink="http://www.w3.org/1999/xlink" width="576pt" height="360pt" viewBox="0 0 576 360" xmlns="http://www.w3.org/2000/svg" version="1.1">
 <metadata>
  <rdf:RDF xmlns:dc="http://purl.org/dc/elements/1.1/" xmlns:cc="http://creativecommons.org/ns#" xmlns:rdf="http://www.w3.org/1999/02/22-rdf-syntax-ns#">
   <cc:Work>
    <dc:type rdf:resource="http://purl.org/dc/dcmitype/StillImage"/>
    <dc:date>2023-11-23T16:48:14.945683</dc:date>
    <dc:format>image/svg+xml</dc:format>
    <dc:creator>
     <cc:Agent>
      <dc:title>Matplotlib v3.8.1, https://matplotlib.org/</dc:title>
     </cc:Agent>
    </dc:creator>
   </cc:Work>
  </rdf:RDF>
 </metadata>
 <defs>
  <style type="text/css">*{stroke-linejoin: round; stroke-linecap: butt}</style>
 </defs>
 <g id="figure_1">
  <g id="patch_1">
   <path d="M 0 360 
L 576 360 
L 576 0 
L 0 0 
z
" style="fill: #ffffff"/>
  </g>
  <g id="axes_1">
   <g id="patch_2">
    <path d="M 72 320.4 
L 518.4 320.4 
L 518.4 43.2 
L 72 43.2 
z
" style="fill: #ffffff"/>
   </g>
   <g id="matplotlib.axis_1">
    <g id="xtick_1">
     <g id="line2d_1">
      <defs>
       <path id="m163927c841" d="M 0 0 
L 0 3.5 
" style="stroke: #000000; stroke-width: 0.8"/>
      </defs>
      <g>
       <use xlink:href="#m163927c841" x="129.874161" y="320.4" style="stroke: #000000; stroke-width: 0.8"/>
      </g>
     </g>
     <g id="text_1">
      <!-- 2020-05-15 -->
      <g transform="translate(100.816349 334.998438) scale(0.1 -0.1)">
       <defs>
        <path id="DejaVuSans-32" d="M 1228 531 
L 3431 531 
L 3431 0 
L 469 0 
L 469 531 
Q 828 903 1448 1529 
Q 2069 2156 2228 2338 
Q 2531 2678 2651 2914 
Q 2772 3150 2772 3378 
Q 2772 3750 2511 3984 
Q 2250 4219 1831 4219 
Q 1534 4219 1204 4116 
Q 875 4013 500 3803 
L 500 4441 
Q 881 4594 1212 4672 
Q 1544 4750 1819 4750 
Q 2544 4750 2975 4387 
Q 3406 4025 3406 3419 
Q 3406 3131 3298 2873 
Q 3191 2616 2906 2266 
Q 2828 2175 2409 1742 
Q 1991 1309 1228 531 
z
" transform="scale(0.015625)"/>
        <path id="DejaVuSans-30" d="M 2034 4250 
Q 1547 4250 1301 3770 
Q 1056 3291 1056 2328 
Q 1056 1369 1301 889 
Q 1547 409 2034 409 
Q 2525 409 2770 889 
Q 3016 1369 3016 2328 
Q 3016 3291 2770 3770 
Q 2525 4250 2034 4250 
z
M 2034 4750 
Q 2819 4750 3233 4129 
Q 3647 3509 3647 2328 
Q 3647 1150 3233 529 
Q 2819 -91 2034 -91 
Q 1250 -91 836 529 
Q 422 1150 422 2328 
Q 422 3509 836 4129 
Q 1250 4750 2034 4750 
z
" transform="scale(0.015625)"/>
        <path id="DejaVuSans-2d" d="M 313 2009 
L 1997 2009 
L 1997 1497 
L 313 1497 
L 313 2009 
z
" transform="scale(0.015625)"/>
        <path id="DejaVuSans-35" d="M 691 4666 
L 3169 4666 
L 3169 4134 
L 1269 4134 
L 1269 2991 
Q 1406 3038 1543 3061 
Q 1681 3084 1819 3084 
Q 2600 3084 3056 2656 
Q 3513 2228 3513 1497 
Q 3513 744 3044 326 
Q 2575 -91 1722 -91 
Q 1428 -91 1123 -41 
Q 819 9 494 109 
L 494 744 
Q 775 591 1075 516 
Q 1375 441 1709 441 
Q 2250 441 2565 725 
Q 2881 1009 2881 1497 
Q 2881 1984 2565 2268 
Q 2250 2553 1709 2553 
Q 1456 2553 1204 2497 
Q 953 2441 691 2322 
L 691 4666 
z
" transform="scale(0.015625)"/>
        <path id="DejaVuSans-31" d="M 794 531 
L 1825 531 
L 1825 4091 
L 703 3866 
L 703 4441 
L 1819 4666 
L 2450 4666 
L 2450 531 
L 3481 531 
L 3481 0 
L 794 0 
L 794 531 
z
" transform="scale(0.015625)"/>
       </defs>
       <use xlink:href="#DejaVuSans-32"/>
       <use xlink:href="#DejaVuSans-30" x="63.623047"/>
       <use xlink:href="#DejaVuSans-32" x="127.246094"/>
       <use xlink:href="#DejaVuSans-30" x="190.869141"/>
       <use xlink:href="#DejaVuSans-2d" x="254.492188"/>
       <use xlink:href="#DejaVuSans-30" x="290.576172"/>
       <use xlink:href="#DejaVuSans-35" x="354.199219"/>
       <use xlink:href="#DejaVuSans-2d" x="417.822266"/>
       <use xlink:href="#DejaVuSans-31" x="453.90625"/>
       <use xlink:href="#DejaVuSans-35" x="517.529297"/>
      </g>
     </g>
    </g>
    <g id="xtick_2">
     <g id="line2d_2">
      <g>
       <use xlink:href="#m163927c841" x="212.435902" y="320.4" style="stroke: #000000; stroke-width: 0.8"/>
      </g>
     </g>
     <g id="text_2">
      <!-- 2020-06-01 -->
      <g transform="translate(183.37809 334.998438) scale(0.1 -0.1)">
       <defs>
        <path id="DejaVuSans-36" d="M 2113 2584 
Q 1688 2584 1439 2293 
Q 1191 2003 1191 1497 
Q 1191 994 1439 701 
Q 1688 409 2113 409 
Q 2538 409 2786 701 
Q 3034 994 3034 1497 
Q 3034 2003 2786 2293 
Q 2538 2584 2113 2584 
z
M 3366 4563 
L 3366 3988 
Q 3128 4100 2886 4159 
Q 2644 4219 2406 4219 
Q 1781 4219 1451 3797 
Q 1122 3375 1075 2522 
Q 1259 2794 1537 2939 
Q 1816 3084 2150 3084 
Q 2853 3084 3261 2657 
Q 3669 2231 3669 1497 
Q 3669 778 3244 343 
Q 2819 -91 2113 -91 
Q 1303 -91 875 529 
Q 447 1150 447 2328 
Q 447 3434 972 4092 
Q 1497 4750 2381 4750 
Q 2619 4750 2861 4703 
Q 3103 4656 3366 4563 
z
" transform="scale(0.015625)"/>
       </defs>
       <use xlink:href="#DejaVuSans-32"/>
       <use xlink:href="#DejaVuSans-30" x="63.623047"/>
       <use xlink:href="#DejaVuSans-32" x="127.246094"/>
       <use xlink:href="#DejaVuSans-30" x="190.869141"/>
       <use xlink:href="#DejaVuSans-2d" x="254.492188"/>
       <use xlink:href="#DejaVuSans-30" x="290.576172"/>
       <use xlink:href="#DejaVuSans-36" x="354.199219"/>
       <use xlink:href="#DejaVuSans-2d" x="417.822266"/>
       <use xlink:href="#DejaVuSans-30" x="453.90625"/>
       <use xlink:href="#DejaVuSans-31" x="517.529297"/>
      </g>
     </g>
    </g>
    <g id="xtick_3">
     <g id="line2d_3">
      <g>
       <use xlink:href="#m163927c841" x="280.427924" y="320.4" style="stroke: #000000; stroke-width: 0.8"/>
      </g>
     </g>
     <g id="text_3">
      <!-- 2020-06-15 -->
      <g transform="translate(251.370111 334.998438) scale(0.1 -0.1)">
       <use xlink:href="#DejaVuSans-32"/>
       <use xlink:href="#DejaVuSans-30" x="63.623047"/>
       <use xlink:href="#DejaVuSans-32" x="127.246094"/>
       <use xlink:href="#DejaVuSans-30" x="190.869141"/>
       <use xlink:href="#DejaVuSans-2d" x="254.492188"/>
       <use xlink:href="#DejaVuSans-30" x="290.576172"/>
       <use xlink:href="#DejaVuSans-36" x="354.199219"/>
       <use xlink:href="#DejaVuSans-2d" x="417.822266"/>
       <use xlink:href="#DejaVuSans-31" x="453.90625"/>
       <use xlink:href="#DejaVuSans-35" x="517.529297"/>
      </g>
     </g>
    </g>
    <g id="xtick_4">
     <g id="line2d_4">
      <g>
       <use xlink:href="#m163927c841" x="358.133092" y="320.4" style="stroke: #000000; stroke-width: 0.8"/>
      </g>
     </g>
     <g id="text_4">
      <!-- 2020-07-01 -->
      <g transform="translate(329.075279 334.998438) scale(0.1 -0.1)">
       <defs>
        <path id="DejaVuSans-37" d="M 525 4666 
L 3525 4666 
L 3525 4397 
L 1831 0 
L 1172 0 
L 2766 4134 
L 525 4134 
L 525 4666 
z
" transform="scale(0.015625)"/>
       </defs>
       <use xlink:href="#DejaVuSans-32"/>
       <use xlink:href="#DejaVuSans-30" x="63.623047"/>
       <use xlink:href="#DejaVuSans-32" x="127.246094"/>
       <use xlink:href="#DejaVuSans-30" x="190.869141"/>
       <use xlink:href="#DejaVuSans-2d" x="254.492188"/>
       <use xlink:href="#DejaVuSans-30" x="290.576172"/>
       <use xlink:href="#DejaVuSans-37" x="354.199219"/>
       <use xlink:href="#DejaVuSans-2d" x="417.822266"/>
       <use xlink:href="#DejaVuSans-30" x="453.90625"/>
       <use xlink:href="#DejaVuSans-31" x="517.529297"/>
      </g>
     </g>
    </g>
    <g id="xtick_5">
     <g id="line2d_5">
      <g>
       <use xlink:href="#m163927c841" x="426.125113" y="320.4" style="stroke: #000000; stroke-width: 0.8"/>
      </g>
     </g>
     <g id="text_5">
      <!-- 2020-07-15 -->
      <g transform="translate(397.067301 334.998438) scale(0.1 -0.1)">
       <use xlink:href="#DejaVuSans-32"/>
       <use xlink:href="#DejaVuSans-30" x="63.623047"/>
       <use xlink:href="#DejaVuSans-32" x="127.246094"/>
       <use xlink:href="#DejaVuSans-30" x="190.869141"/>
       <use xlink:href="#DejaVuSans-2d" x="254.492188"/>
       <use xlink:href="#DejaVuSans-30" x="290.576172"/>
       <use xlink:href="#DejaVuSans-37" x="354.199219"/>
       <use xlink:href="#DejaVuSans-2d" x="417.822266"/>
       <use xlink:href="#DejaVuSans-31" x="453.90625"/>
       <use xlink:href="#DejaVuSans-35" x="517.529297"/>
      </g>
     </g>
    </g>
    <g id="xtick_6">
     <g id="line2d_6">
      <g>
       <use xlink:href="#m163927c841" x="508.686854" y="320.4" style="stroke: #000000; stroke-width: 0.8"/>
      </g>
     </g>
     <g id="text_6">
      <!-- 2020-08-01 -->
      <g transform="translate(479.629042 334.998438) scale(0.1 -0.1)">
       <defs>
        <path id="DejaVuSans-38" d="M 2034 2216 
Q 1584 2216 1326 1975 
Q 1069 1734 1069 1313 
Q 1069 891 1326 650 
Q 1584 409 2034 409 
Q 2484 409 2743 651 
Q 3003 894 3003 1313 
Q 3003 1734 2745 1975 
Q 2488 2216 2034 2216 
z
M 1403 2484 
Q 997 2584 770 2862 
Q 544 3141 544 3541 
Q 544 4100 942 4425 
Q 1341 4750 2034 4750 
Q 2731 4750 3128 4425 
Q 3525 4100 3525 3541 
Q 3525 3141 3298 2862 
Q 3072 2584 2669 2484 
Q 3125 2378 3379 2068 
Q 3634 1759 3634 1313 
Q 3634 634 3220 271 
Q 2806 -91 2034 -91 
Q 1263 -91 848 271 
Q 434 634 434 1313 
Q 434 1759 690 2068 
Q 947 2378 1403 2484 
z
M 1172 3481 
Q 1172 3119 1398 2916 
Q 1625 2713 2034 2713 
Q 2441 2713 2670 2916 
Q 2900 3119 2900 3481 
Q 2900 3844 2670 4047 
Q 2441 4250 2034 4250 
Q 1625 4250 1398 4047 
Q 1172 3844 1172 3481 
z
" transform="scale(0.015625)"/>
       </defs>
       <use xlink:href="#DejaVuSans-32"/>
       <use xlink:href="#DejaVuSans-30" x="63.623047"/>
       <use xlink:href="#DejaVuSans-32" x="127.246094"/>
       <use xlink:href="#DejaVuSans-30" x="190.869141"/>
       <use xlink:href="#DejaVuSans-2d" x="254.492188"/>
       <use xlink:href="#DejaVuSans-30" x="290.576172"/>
       <use xlink:href="#DejaVuSans-38" x="354.199219"/>
       <use xlink:href="#DejaVuSans-2d" x="417.822266"/>
       <use xlink:href="#DejaVuSans-30" x="453.90625"/>
       <use xlink:href="#DejaVuSans-31" x="517.529297"/>
      </g>
     </g>
    </g>
   </g>
   <g id="matplotlib.axis_2">
    <g id="ytick_1">
     <g id="line2d_7">
      <defs>
       <path id="mf886f5d2a3" d="M 0 0 
L -3.5 0 
" style="stroke: #000000; stroke-width: 0.8"/>
      </defs>
      <g>
       <use xlink:href="#mf886f5d2a3" x="72" y="315.761306" style="stroke: #000000; stroke-width: 0.8"/>
      </g>
     </g>
     <g id="text_7">
      <!-- −2 -->
      <g transform="translate(50.257812 319.560525) scale(0.1 -0.1)">
       <defs>
        <path id="DejaVuSans-2212" d="M 678 2272 
L 4684 2272 
L 4684 1741 
L 678 1741 
L 678 2272 
z
" transform="scale(0.015625)"/>
       </defs>
       <use xlink:href="#DejaVuSans-2212"/>
       <use xlink:href="#DejaVuSans-32" x="83.789062"/>
      </g>
     </g>
    </g>
    <g id="ytick_2">
     <g id="line2d_8">
      <g>
       <use xlink:href="#mf886f5d2a3" x="72" y="263.720497" style="stroke: #000000; stroke-width: 0.8"/>
      </g>
     </g>
     <g id="text_8">
      <!-- −1 -->
      <g transform="translate(50.257812 267.519715) scale(0.1 -0.1)">
       <use xlink:href="#DejaVuSans-2212"/>
       <use xlink:href="#DejaVuSans-31" x="83.789062"/>
      </g>
     </g>
    </g>
    <g id="ytick_3">
     <g id="line2d_9">
      <g>
       <use xlink:href="#mf886f5d2a3" x="72" y="211.679687" style="stroke: #000000; stroke-width: 0.8"/>
      </g>
     </g>
     <g id="text_9">
      <!-- 0 -->
      <g transform="translate(58.6375 215.478906) scale(0.1 -0.1)">
       <use xlink:href="#DejaVuSans-30"/>
      </g>
     </g>
    </g>
    <g id="ytick_4">
     <g id="line2d_10">
      <g>
       <use xlink:href="#mf886f5d2a3" x="72" y="159.638878" style="stroke: #000000; stroke-width: 0.8"/>
      </g>
     </g>
     <g id="text_10">
      <!-- 1 -->
      <g transform="translate(58.6375 163.438097) scale(0.1 -0.1)">
       <use xlink:href="#DejaVuSans-31"/>
      </g>
     </g>
    </g>
    <g id="ytick_5">
     <g id="line2d_11">
      <g>
       <use xlink:href="#mf886f5d2a3" x="72" y="107.598069" style="stroke: #000000; stroke-width: 0.8"/>
      </g>
     </g>
     <g id="text_11">
      <!-- 2 -->
      <g transform="translate(58.6375 111.397288) scale(0.1 -0.1)">
       <use xlink:href="#DejaVuSans-32"/>
      </g>
     </g>
    </g>
    <g id="ytick_6">
     <g id="line2d_12">
      <g>
       <use xlink:href="#mf886f5d2a3" x="72" y="55.55726" style="stroke: #000000; stroke-width: 0.8"/>
      </g>
     </g>
     <g id="text_12">
      <!-- 3 -->
      <g transform="translate(58.6375 59.356479) scale(0.1 -0.1)">
       <defs>
        <path id="DejaVuSans-33" d="M 2597 2516 
Q 3050 2419 3304 2112 
Q 3559 1806 3559 1356 
Q 3559 666 3084 287 
Q 2609 -91 1734 -91 
Q 1441 -91 1130 -33 
Q 819 25 488 141 
L 488 750 
Q 750 597 1062 519 
Q 1375 441 1716 441 
Q 2309 441 2620 675 
Q 2931 909 2931 1356 
Q 2931 1769 2642 2001 
Q 2353 2234 1838 2234 
L 1294 2234 
L 1294 2753 
L 1863 2753 
Q 2328 2753 2575 2939 
Q 2822 3125 2822 3475 
Q 2822 3834 2567 4026 
Q 2313 4219 1838 4219 
Q 1578 4219 1281 4162 
Q 984 4106 628 3988 
L 628 4550 
Q 988 4650 1302 4700 
Q 1616 4750 1894 4750 
Q 2613 4750 3031 4423 
Q 3450 4097 3450 3541 
Q 3450 3153 3228 2886 
Q 3006 2619 2597 2516 
z
" transform="scale(0.015625)"/>
       </defs>
       <use xlink:href="#DejaVuSans-33"/>
      </g>
     </g>
    </g>
   </g>
   <g id="line2d_13">
    <path d="M 72 287.683034 
L 72.404714 298.711625 
L 72.607072 297.036913 
L 72.809429 286.661868 
L 73.214143 256.598748 
L 73.618858 244.508145 
L 75.035358 163.836049 
L 75.237715 160.956361 
L 75.440073 165.87838 
L 75.64243 173.863897 
L 75.844787 177.070357 
L 76.047144 191.897684 
L 76.654216 260.234098 
L 77.05893 283.639218 
L 77.261287 287.887267 
L 77.463645 287.519648 
L 77.666002 277.103757 
L 78.070716 249.389318 
L 78.475431 237.257868 
L 78.677788 228.373726 
L 79.487217 172.944848 
L 79.891931 157.116778 
L 80.094288 159.016146 
L 80.903717 200.271244 
L 81.713146 273.5501 
L 82.11786 287.805574 
L 82.320218 289.786636 
L 82.522575 289.500709 
L 82.724932 287.049911 
L 82.927289 280.412334 
L 83.332004 258.048803 
L 83.736718 244.120102 
L 83.939075 241.158721 
L 84.141432 241.424225 
L 84.546147 247.653336 
L 84.748504 249.695667 
L 84.950861 249.716091 
L 85.355576 253.800754 
L 85.557933 250.553447 
L 85.76029 256.517055 
L 86.569719 300.263797 
L 86.772076 306.186558 
L 86.974433 307.73873 
L 87.176791 307.8 
L 87.379148 306.492908 
L 87.581505 302.857558 
L 87.783862 296.28125 
L 88.188577 274.816345 
L 88.390934 269.771786 
L 89.200363 261.90881 
L 89.40272 257.885417 
L 89.807434 243.486979 
L 90.212149 241.097451 
L 90.414506 238.462844 
L 90.616863 246.20328 
L 91.223935 295.443894 
L 91.628649 306.186558 
L 91.831006 306.247828 
L 92.033364 303.817453 
L 92.842792 258.886159 
L 93.04515 256.802981 
L 93.449864 248.429422 
L 93.652221 247.918839 
L 93.854578 245.059575 
L 94.056936 244.446875 
L 94.259293 241.893961 
L 94.46165 235.66485 
L 94.664007 232.887279 
L 94.866364 233.785905 
L 95.068722 236.849402 
L 95.271079 233.111935 
L 95.473436 242.955973 
L 96.080508 295.811514 
L 96.485222 304.777349 
L 96.687579 306.635871 
L 96.889937 302.408245 
L 97.699365 258.171343 
L 98.306437 247.939262 
L 98.508794 247.571643 
L 99.52058 226.903247 
L 99.722937 228.128646 
L 99.925295 232.376696 
L 100.127652 230.599867 
L 100.330009 240.484752 
L 100.937081 293.401563 
L 101.341795 305.349202 
L 101.544152 306.309098 
L 101.74651 302.694171 
L 101.948867 291.052881 
L 102.353581 261.806693 
L 102.555938 260.295368 
L 103.567724 242.976397 
L 104.377153 221.450222 
L 104.57951 222.696044 
L 104.781868 227.944836 
L 104.984225 227.924413 
L 105.186582 236.583899 
L 105.793654 290.338065 
L 106.198368 302.755441 
L 106.400725 304.471 
L 106.603083 300.549723 
L 107.412511 255.822662 
L 107.614869 254.14795 
L 107.817226 250.57387 
L 108.22194 236.420512 
L 108.626655 215.282381 
L 108.829012 209.502582 
L 109.031369 207.664484 
L 109.638441 216.119737 
L 109.840798 221.409375 
L 110.043155 231.53934 
L 110.650227 285.150543 
L 111.054941 299.038398 
L 111.257298 300.896919 
L 111.459655 299.201784 
L 111.662013 288.091501 
L 112.066727 259.600975 
L 112.471442 244.998305 
L 113.887942 178.37745 
L 114.090299 176.069615 
L 114.292656 182.707192 
L 114.495014 193.837899 
L 114.697371 198.310605 
L 115.102085 231.437223 
L 115.709157 279.513708 
L 116.113871 293.095213 
L 116.316228 293.258599 
L 116.518586 291.645157 
L 116.720943 288.111924 
L 117.125657 261.582037 
L 118.542158 159.649269 
L 118.744515 149.805231 
L 118.946872 146.026918 
L 119.149229 149.600998 
L 119.756301 186.485506 
L 120.56573 263.767332 
L 120.970444 283.067365 
L 121.172801 287.049911 
L 121.375159 288.64293 
L 121.577516 287.233721 
L 121.779873 279.513708 
L 122.589302 229.844205 
L 123.196374 205.0503 
L 123.398731 200.598017 
L 123.601088 200.80225 
L 123.803445 200.25082 
L 124.410517 213.301319 
L 124.612874 223.982713 
L 125.219946 278.798892 
L 125.62466 292.95225 
L 125.827017 294.892465 
L 126.029374 292.421243 
L 127.04116 237.502948 
L 127.648232 201.067753 
L 128.255304 159.792232 
L 128.457661 152.439839 
L 128.660018 152.113066 
L 129.26709 195.287955 
L 130.278876 283.761758 
L 130.481233 291.379654 
L 130.68359 292.727593 
L 130.885947 290.215525 
L 132.504805 184.136824 
L 133.111877 142.575377 
L 133.314234 133.405309 
L 133.516591 135.059597 
L 133.921306 150.029888 
L 134.123663 157.259741 
L 135.135449 264.277915 
L 135.540163 276.572751 
L 135.74252 275.653701 
L 135.944878 265.339927 
L 136.349592 234.7458 
L 136.551949 228.149069 
L 136.754306 216.589473 
L 136.956664 221.041756 
L 137.159021 210.033589 
L 137.766092 201.435373 
L 137.96845 201.823416 
L 138.373164 196.5542 
L 138.777879 203.906594 
L 138.980236 204.723527 
L 139.182593 216.221853 
L 139.789665 271.385228 
L 140.194379 286.355519 
L 140.396736 288.377427 
L 140.599093 285.436469 
L 141.003808 256.006472 
L 141.408522 235.378923 
L 142.015594 222.328425 
L 142.622665 213.423859 
L 142.825023 213.158356 
L 143.02738 211.973804 
L 143.229737 212.647773 
L 143.634451 217.794448 
L 143.836809 216.589473 
L 144.039166 226.515204 
L 144.646238 274.591689 
L 145.050952 286.375942 
L 145.253309 287.642188 
L 145.455666 284.57869 
L 145.860381 255.679699 
L 146.062738 239.647396 
L 146.66981 223.59467 
L 146.872167 220.980486 
L 147.074524 219.918473 
L 147.479238 209.094116 
L 147.681596 217.345136 
L 147.883953 218.305031 
L 148.08631 220.857946 
L 148.491024 229.946321 
L 148.693382 228.618806 
L 149.098096 251.676729 
L 149.502811 279.146088 
L 149.907525 291.951507 
L 150.109882 293.973415 
L 150.312239 293.401563 
L 150.514597 290.623992 
L 150.716954 285.00758 
L 151.121668 264.461724 
L 151.526383 244.283489 
L 151.931097 238.56496 
L 152.133454 238.136071 
L 152.335811 240.076286 
L 152.538169 240.586869 
L 152.740526 238.56496 
L 152.942883 238.850887 
L 153.14524 237.890991 
L 153.347597 237.931838 
L 153.549955 235.05215 
L 153.752312 237.217022 
L 154.764098 287.907691 
L 154.966455 291.808544 
L 155.168812 293.176906 
L 155.573527 289.296476 
L 155.775884 278.390426 
L 156.78767 201.619183 
L 157.799456 159.628846 
L 158.001813 161.609907 
L 158.406528 174.619559 
L 158.608885 187.976408 
L 159.215956 255.598006 
L 159.620671 276.8791 
L 159.823028 280.044714 
L 160.025385 279.146088 
L 160.227743 269.48586 
L 160.632457 237.502948 
L 161.8466 187.935561 
L 162.251315 178.030253 
L 162.453672 178.173216 
L 162.656029 180.991634 
L 163.465458 212.341423 
L 164.072529 271.323958 
L 164.477244 289.664096 
L 164.679601 289.990869 
L 164.881958 286.804832 
L 165.084316 276.797407 
L 165.48903 245.488464 
L 166.500816 210.911791 
L 167.310245 168.615105 
L 167.512602 171.923682 
L 167.917316 192.204034 
L 168.119674 196.595047 
L 168.322031 207.787024 
L 168.929102 266.340669 
L 169.333817 281.31096 
L 169.536174 284.782923 
L 169.738531 281.167997 
L 170.143246 254.27049 
L 170.54796 224.391179 
L 171.357389 180.460628 
L 171.559746 174.517443 
L 172.166818 150.66301 
L 172.369175 152.256029 
L 172.571532 160.057735 
L 173.178604 198.473992 
L 173.785675 268.546388 
L 174.19039 287.662611 
L 174.392747 290.603568 
L 174.595104 288.806317 
L 174.999819 264.951884 
L 175.404533 240.300942 
L 177.023391 163.162079 
L 177.225748 163.672662 
L 177.428105 167.532669 
L 177.630462 183.891745 
L 177.83282 186.301696 
L 178.237534 229.803358 
L 178.642248 272.120468 
L 179.046963 291.052881 
L 179.24932 294.729078 
L 179.451677 292.237434 
L 179.654034 283.659641 
L 180.261106 244.344759 
L 181.879964 148.681949 
L 182.082321 145.455065 
L 182.284678 151.051053 
L 183.094107 206.643318 
L 183.498821 245.141268 
L 183.903536 266.320246 
L 184.30825 274.060683 
L 184.510607 275.408622 
L 184.712965 271.814118 
L 184.915322 258.600233 
L 185.724751 177.621787 
L 186.129465 156.504079 
L 186.331822 150.520047 
L 186.53418 149.764384 
L 186.736537 152.276452 
L 187.748323 192.224457 
L 188.557752 255.638852 
L 188.962466 269.649247 
L 189.164823 271.671155 
L 189.36718 271.752848 
L 189.569538 271.017609 
L 189.771895 260.356638 
L 190.986038 165.490337 
L 191.188395 160.241545 
L 191.390752 160.200699 
L 191.795467 169.248227 
L 192.604896 200.209974 
L 193.414325 262.848283 
L 193.819039 276.409364 
L 194.021396 277.471376 
L 194.426111 273.5501 
L 194.628468 264.686381 
L 195.437897 204.417177 
L 195.640254 199.454311 
L 195.842611 200.659287 
L 196.247325 206.663742 
L 196.449683 207.235594 
L 196.65204 206.847551 
L 197.056754 214.976031 
L 197.259112 215.813387 
L 197.461469 224.1461 
L 198.06854 272.018351 
L 198.473255 286.069592 
L 198.675612 286.171709 
L 198.877969 282.556782 
L 199.282684 252.064772 
L 199.687398 229.456162 
L 201.306256 163.672662 
L 201.508613 162.528957 
L 202.115684 181.543063 
L 202.318042 192.592077 
L 202.925113 256.067742 
L 203.329828 273.5501 
L 203.532185 275.633278 
L 203.734542 272.671897 
L 203.936899 261.255264 
L 204.341614 227.577217 
L 205.758114 173.414584 
L 205.960471 170.943363 
L 206.162829 171.086326 
L 206.365186 172.495535 
L 206.7699 184.238941 
L 206.972257 187.404555 
L 207.174615 198.147219 
L 207.781686 256.660018 
L 208.186401 272.671897 
L 208.388758 275.694548 
L 208.591115 272.385971 
L 208.793472 260.622141 
L 209.198187 227.127904 
L 209.805258 205.0503 
L 210.209973 185.3418 
L 210.817044 144.025433 
L 211.019402 135.611027 
L 211.221759 138.551984 
L 211.626473 162.814883 
L 211.82883 167.981982 
L 212.031188 182.584653 
L 212.638259 247.06106 
L 213.042974 265.48289 
L 213.245331 269.445013 
L 213.447688 267.749878 
L 213.650045 257.129754 
L 214.257117 214.240792 
L 214.661831 188.119371 
L 215.47126 129.279799 
L 215.875975 112.696067 
L 216.078332 112.226331 
L 216.280689 117.720202 
L 217.090118 180.950787 
L 217.697189 242.343274 
L 218.101904 260.642564 
L 218.304261 263.971565 
L 218.506618 265.319504 
L 218.708976 264.073681 
L 218.911333 251.452072 
L 219.518404 197.126053 
L 220.125476 162.222607 
L 220.327833 160.078159 
L 220.53019 162.283877 
L 221.541976 204.233367 
L 221.744334 209.339196 
L 222.553762 265.748393 
L 222.958477 276.531904 
L 223.160834 278.227039 
L 223.363191 278.574235 
L 223.565549 277.022064 
L 223.767906 268.383001 
L 224.374977 230.497751 
L 224.779692 222.981971 
L 225.386763 225.024302 
L 225.589121 228.516689 
L 225.791478 229.394892 
L 226.196192 237.707181 
L 226.398549 237.359985 
L 226.600907 243.732059 
L 227.410335 296.89395 
L 227.612693 300.896919 
L 227.81505 302.571631 
L 228.017407 299.406017 
L 228.826836 257.170601 
L 229.029193 254.862766 
L 229.23155 249.164661 
L 230.648051 186.281273 
L 230.850408 186.853125 
L 231.255122 201.149446 
L 231.45748 211.95338 
L 232.064551 275.102272 
L 232.469266 292.135317 
L 232.671623 294.831195 
L 232.87398 293.626219 
L 233.278694 268.546388 
L 233.683409 246.20328 
L 235.302267 182.155763 
L 235.504624 181.563487 
L 236.111695 200.516324 
L 236.314053 210.789251 
L 236.921124 272.406394 
L 237.325839 288.15277 
L 237.528196 291.257114 
L 237.730553 289.153513 
L 238.135267 265.401197 
L 238.539982 243.793329 
L 239.349411 213.117509 
L 239.754125 203.191778 
L 240.15884 193.061813 
L 240.361197 192.816734 
L 240.563554 198.228912 
L 240.968268 215.690847 
L 241.170626 223.206627 
L 241.777697 278.288309 
L 242.182412 294.014262 
L 242.384769 296.485483 
L 242.587126 293.524102 
L 242.99184 269.016124 
L 243.396555 251.206993 
L 245.21777 177.172474 
L 245.420127 181.379677 
L 246.027199 207.95041 
L 246.836627 280.8208 
L 247.038985 289.112666 
L 247.241342 292.257857 
L 247.443699 289.745789 
L 247.848413 266.381516 
L 249.467271 155.319526 
L 249.669628 147.313587 
L 249.871985 145.393795 
L 250.074343 145.557181 
L 250.2767 152.439839 
L 250.883772 184.279788 
L 251.6932 258.620656 
L 252.097915 273.019094 
L 252.300272 276.062168 
L 252.502629 276.327671 
L 252.704986 272.488087 
L 253.109701 240.015016 
L 253.91913 167.430552 
L 254.323844 151.765869 
L 254.728558 143.02469 
L 254.930916 141.778868 
L 255.133273 149.212955 
L 255.740345 186.362966 
L 256.549773 260.928491 
L 256.954488 276.266401 
L 257.156845 280.044714 
L 257.359202 281.699003 
L 257.561559 280.739107 
L 257.966274 252.105619 
L 258.573345 202.150189 
L 258.97806 180.664861 
L 259.382774 169.738387 
L 259.585131 166.327693 
L 259.787489 165.898804 
L 259.989846 168.492565 
L 260.39456 184.341058 
L 260.596917 197.575366 
L 261.203989 259.029123 
L 261.608704 277.573493 
L 261.811061 280.473604 
L 262.013418 279.697518 
L 262.418132 255.945202 
L 262.62049 244.038409 
L 263.025204 234.459874 
L 263.227561 231.682303 
L 263.429918 230.681561 
L 263.834633 231.947806 
L 264.03699 231.641456 
L 264.239347 232.580929 
L 264.441704 232.662622 
L 264.644062 232.397119 
L 264.846419 234.419027 
L 265.048776 238.421997 
L 265.251133 238.421997 
L 265.45349 242.404544 
L 266.060562 284.496997 
L 266.465277 297.220723 
L 266.667634 298.752471 
L 266.869991 294.606538 
L 267.072348 286.723138 
L 267.477063 260.458755 
L 268.084134 238.483267 
L 268.488849 228.292033 
L 269.09592 217.140902 
L 269.500635 213.219626 
L 269.702992 215.384497 
L 269.905349 218.958577 
L 270.107706 219.632547 
L 270.310063 225.882081 
L 270.917135 274.305763 
L 271.32185 286.171709 
L 271.524207 288.295734 
L 271.726564 286.600598 
L 274.15485 146.271998 
L 274.357208 139.164684 
L 274.559565 142.473261 
L 275.166636 167.410129 
L 275.976065 248.266035 
L 276.38078 260.724258 
L 276.583137 260.029865 
L 276.987851 238.381151 
L 277.392566 209.727239 
L 278.404352 153.277195 
L 278.606709 150.254544 
L 279.011423 137.142775 
L 279.213781 135.549757 
L 279.416138 139.777383 
L 280.023209 181.134597 
L 280.630281 251.860539 
L 281.034995 274.448726 
L 281.237353 279.289052 
L 281.43971 277.757303 
L 281.642067 271.916235 
L 282.249139 230.518174 
L 282.85621 197.1669 
L 283.867996 154.747673 
L 284.070354 153.563121 
L 284.272711 161.650754 
L 285.284497 244.017986 
L 285.689211 275.919204 
L 286.093926 290.542298 
L 286.296283 292.809286 
L 286.49864 291.012035 
L 286.700997 288.091501 
L 287.105712 257.333987 
L 287.712783 206.214429 
L 288.522212 163.141656 
L 288.724569 156.075189 
L 288.926927 154.155397 
L 289.129284 157.709054 
L 289.736355 191.244138 
L 290.545784 260.744681 
L 290.950499 275.898781 
L 291.152856 278.655929 
L 291.355213 278.737622 
L 291.55757 277.267143 
L 291.759927 264.890614 
L 292.771714 167.022086 
L 293.176428 145.209985 
L 293.581142 134.058855 
L 293.7835 132.343296 
L 293.985857 135.835683 
L 294.592928 161.160595 
L 295.402357 243.772906 
L 295.807072 258.355153 
L 296.009429 258.191767 
L 296.414143 238.054377 
L 297.830644 103.995734 
L 298.235358 90.781849 
L 298.437715 88.208511 
L 298.640073 88.474015 
L 298.84243 90.516346 
L 299.044787 98.501862 
L 299.449501 125.297252 
L 300.056573 203.784054 
L 300.461287 228.863885 
L 300.663645 234.847917 
L 300.866002 235.562733 
L 301.068359 228.782192 
L 301.473073 198.923305 
L 302.484859 94.294659 
L 302.687217 83.041413 
L 302.889574 83.143529 
L 303.091931 91.190316 
L 303.496646 99.788531 
L 303.90136 121.906982 
L 304.306074 149.682691 
L 304.913146 218.488841 
L 305.31786 243.691213 
L 305.520218 249.225931 
L 305.722575 247.449103 
L 305.924932 240.362212 
L 306.532004 200.638863 
L 307.54379 131.036204 
L 307.746147 120.885816 
L 307.948504 120.007614 
L 308.757933 152.092642 
L 309.162647 178.00983 
L 309.769719 240.648139 
L 310.174433 260.417908 
L 310.376791 264.788498 
L 310.579148 264.216645 
L 310.983862 240.934065 
L 312.198005 137.489972 
L 312.60272 125.930375 
L 312.805077 121.580209 
L 313.007434 122.131639 
L 313.209791 125.807835 
L 313.816863 153.236348 
L 314.01922 166.838276 
L 314.626292 229.068119 
L 315.031006 249.450588 
L 315.233364 254.004987 
L 315.435721 253.351441 
L 315.840435 234.68453 
L 316.24515 216.07889 
L 316.649864 204.13125 
L 317.054578 188.91588 
L 317.66165 181.440947 
L 317.864007 180.991634 
L 318.066364 180.093008 
L 318.268722 184.749524 
L 318.875793 206.765858 
L 319.685222 265.033577 
L 320.089937 277.73688 
L 320.292294 279.370745 
L 320.697008 271.487345 
L 321.101723 245.406771 
L 322.315866 167.920712 
L 322.72058 157.729478 
L 322.922937 155.421643 
L 323.125295 159.526729 
L 323.732366 186.996089 
L 324.541795 255.148693 
L 324.94651 269.36332 
L 325.148867 272.243008 
L 325.351224 272.304278 
L 325.553581 270.057713 
L 325.755938 257.803724 
L 326.970082 146.026918 
L 327.172439 139.736537 
L 327.374796 138.163941 
L 327.77951 132.629223 
L 327.981868 137.592088 
L 328.184225 146.333267 
L 328.791296 197.697906 
L 329.196011 241.179145 
L 329.398368 256.333245 
L 329.803083 266.381516 
L 330.00544 265.442044 
L 330.207797 259.866478 
L 330.814869 211.626607 
L 331.42194 173.618817 
L 331.826655 151.071477 
L 332.029012 148.191789 
L 332.231369 148.212212 
L 332.433726 148.396022 
L 332.636083 150.479201 
L 332.838441 154.992753 
L 333.243155 177.785173 
L 333.445512 186.751009 
L 334.052584 252.105619 
L 334.457298 273.774756 
L 334.659655 279.166512 
L 334.862013 276.776984 
L 335.266727 257.048061 
L 335.671442 232.826009 
L 336.48087 192.939273 
L 336.683228 187.894715 
L 336.885585 186.791856 
L 337.087942 180.644438 
L 337.290299 178.806339 
L 337.695014 185.239684 
L 338.099728 199.617698 
L 338.302085 205.458766 
L 339.111514 270.915492 
L 339.313871 277.083333 
L 339.516228 279.309475 
L 339.718586 275.265658 
L 340.1233 252.044349 
L 340.932729 207.82787 
L 342.349229 146.414961 
L 342.551587 146.333267 
L 343.158658 170.882093 
L 343.76573 233.295745 
L 344.170444 251.206993 
L 344.372801 255.945202 
L 344.575159 253.821177 
L 344.777516 246.93852 
L 345.18223 216.221853 
L 346.194016 134.038432 
L 346.598731 119.354068 
L 347.003445 112.77776 
L 347.205802 111.940404 
L 347.40816 115.106018 
L 347.610517 122.907725 
L 348.015231 148.865759 
L 348.82466 239.48401 
L 349.229374 256.496631 
L 349.431732 255.740969 
L 349.634089 249.981594 
L 349.836446 238.912157 
L 351.050589 135.059597 
L 351.455304 116.801153 
L 351.860018 107.998704 
L 352.062375 107.100078 
L 352.264733 110.715005 
L 352.46709 121.743596 
L 353.276519 204.37633 
L 353.681233 242.098194 
L 354.085947 262.174313 
L 354.288305 267.423105 
L 354.490662 267.994958 
L 354.693019 265.768817 
L 355.097733 223.96229 
L 355.704805 150.54047 
L 356.109519 125.971222 
L 356.716591 107.876164 
L 356.918948 106.793729 
L 357.121306 111.572784 
L 357.52602 137.061082 
L 357.728377 149.682691 
L 358.740163 244.651108 
L 359.144878 257.558644 
L 359.347235 259.417166 
L 359.549592 259.090392 
L 359.751949 245.161691 
L 360.763735 125.174713 
L 361.16845 106.201452 
L 361.573164 95.152439 
L 361.775521 92.865027 
L 361.977879 96.132758 
L 362.180236 103.097108 
L 362.58495 128.748793 
L 363.394379 217.038786 
L 363.799093 234.602837 
L 364.001451 235.41977 
L 364.203808 229.558278 
L 364.406165 219.550854 
L 365.013237 150.315814 
L 365.620308 86.064063 
L 366.025023 69.970491 
L 366.429737 63.823073 
L 366.632094 64.313232 
L 366.834451 66.94784 
L 367.036809 75.627749 
L 367.441523 104.690127 
L 368.048595 183.973438 
L 368.453309 214.363331 
L 368.655666 222.859431 
L 368.858024 225.228535 
L 369.060381 221.348105 
L 369.262738 211.524491 
L 369.86981 148.253059 
L 370.476881 90.312113 
L 370.881596 73.748804 
L 371.083953 73.299491 
L 371.28631 74.014307 
L 371.488667 77.935584 
L 371.691024 84.144272 
L 372.298096 122.989418 
L 373.107525 207.705331 
L 373.512239 229.864628 
L 373.714597 234.214794 
L 374.119311 233.520401 
L 374.321668 220.817099 
L 375.333454 117.311736 
L 375.738169 104.097851 
L 375.940526 101.401973 
L 376.142883 100.299114 
L 376.34524 105.466213 
L 376.749955 131.62848 
L 377.559383 190.365936 
L 377.964098 224.922186 
L 378.368812 238.6875 
L 378.57117 238.912157 
L 378.773527 232.989395 
L 378.975884 221.797418 
L 380.392384 105.44579 
L 380.797099 95.540482 
L 381.201813 87.963432 
L 381.40417 91.721322 
L 382.011242 128.6671 
L 382.820671 211.361104 
L 383.225385 227.434253 
L 383.427743 228.0878 
L 383.6301 222.757314 
L 384.034814 200.55717 
L 385.0466 127.257891 
L 385.451315 110.592465 
L 385.653672 110.122729 
L 385.856029 113.901042 
L 386.058386 121.518939 
L 387.070172 191.387102 
L 387.474887 231.437223 
L 387.879601 253.290171 
L 388.284316 262.419393 
L 388.68903 264.931461 
L 388.891387 259.192509 
L 389.700816 215.71127 
L 390.307888 204.519293 
L 390.914959 191.795568 
L 391.117316 196.574624 
L 391.926745 236.093739 
L 392.533817 280.228524 
L 392.938531 292.58463 
L 393.140888 294.443152 
L 393.343246 293.993839 
L 393.545603 294.463575 
L 393.74796 285.518163 
L 394.355032 244.406029 
L 395.569175 187.996831 
L 395.771532 181.992376 
L 395.973889 183.197352 
L 396.176247 191.509641 
L 396.783318 233.499978 
L 397.188033 271.977505 
L 397.592747 289.786636 
L 397.795104 292.564207 
L 397.997461 290.031715 
L 398.402176 271.916235 
L 400.628105 144.433899 
L 400.830462 147.27274 
L 401.03282 157.218895 
L 401.639891 214.199945 
L 402.044606 258.498116 
L 402.44932 278.798892 
L 402.651677 282.801862 
L 402.854034 281.147573 
L 403.258749 262.970822 
L 403.663463 234.582414 
L 404.877607 128.646676 
L 405.282321 108.141667 
L 405.484678 103.934464 
L 405.687035 105.0169 
L 405.889393 115.514484 
L 406.294107 152.848305 
L 406.901179 230.191401 
L 407.305893 254.229643 
L 407.50825 259.825632 
L 407.710607 259.294626 
L 408.115322 238.074801 
L 409.73418 105.915526 
L 409.936537 100.993507 
L 410.138894 100.850544 
L 410.341251 105.44579 
L 410.948323 141.513365 
L 411.15068 157.402704 
L 411.757752 227.924413 
L 412.162466 251.962655 
L 412.364823 258.436846 
L 412.56718 260.213675 
L 412.971895 242.179887 
L 414.388395 144.188819 
L 414.79311 130.668584 
L 415.197824 124.010584 
L 415.400181 130.770701 
L 416.20961 193.245623 
L 416.614325 238.421997 
L 417.019039 261.459497 
L 417.221396 265.707547 
L 417.423753 265.156117 
L 417.828468 249.021698 
L 419.244968 151.418673 
L 419.649683 137.837168 
L 419.85204 134.018008 
L 420.054397 135.44764 
L 420.256754 144.086703 
L 421.066183 209.216656 
L 421.673255 264.155375 
L 422.077969 280.187677 
L 422.280326 282.658899 
L 422.482684 282.005352 
L 422.685041 281.841966 
L 423.089755 251.186569 
L 423.899184 182.359996 
L 424.708613 143.188077 
L 424.91097 140.022463 
L 425.113327 144.005009 
L 425.518042 170.024313 
L 425.720399 181.76772 
L 426.529828 256.047318 
L 426.934542 274.530419 
L 427.136899 278.982702 
L 427.339257 279.779211 
L 427.541614 280.003868 
L 427.743971 271.446498 
L 428.148685 231.29426 
L 428.755757 169.717964 
L 429.160471 144.209243 
L 429.565186 135.99907 
L 429.9699 139.899923 
L 430.374615 156.034342 
L 430.576972 167.614362 
L 431.386401 243.201053 
L 431.791115 255.373349 
L 431.993472 253.351441 
L 432.398187 233.152782 
L 433.207616 168.410872 
L 434.017044 98.420169 
L 434.219402 93.55942 
L 435.02883 120.824546 
L 435.433545 145.679721 
L 436.040617 216.487356 
L 436.445331 238.891733 
L 436.647688 243.997562 
L 436.850045 243.323593 
L 437.25476 222.839007 
L 437.659474 188.119371 
L 438.468903 115.065171 
L 438.67126 105.38452 
L 438.873617 106.344416 
L 439.075975 113.410883 
L 439.278332 112.96157 
L 439.480689 115.187711 
L 439.885403 133.629965 
L 440.290118 158.24006 
L 440.897189 231.23299 
L 441.301904 253.412711 
L 441.504261 258.804466 
L 441.706618 259.335472 
L 442.111333 244.691955 
L 442.920762 192.98012 
L 443.527833 158.321754 
L 444.134905 135.713143 
L 444.337262 133.139806 
L 444.539619 139.51188 
L 445.146691 184.300211 
L 445.753762 253.065514 
L 446.158477 274.142376 
L 446.360834 279.064395 
L 446.563191 277.083333 
L 446.967906 258.293883 
L 448.586763 149.172108 
L 448.991478 136.06034 
L 449.193835 133.752505 
L 449.396192 140.369659 
L 450.003264 180.501474 
L 450.812693 260.050288 
L 451.217407 273.264173 
L 451.419764 273.386713 
L 451.824479 256.312822 
L 452.43155 206.214429 
L 453.038622 164.571288 
L 453.443336 147.64036 
L 453.848051 139.81823 
L 454.050408 143.167654 
L 454.252765 153.093385 
L 454.65748 181.318407 
L 454.859837 189.71239 
L 455.669266 254.02541 
L 456.07398 267.484375 
L 456.276337 268.995701 
L 456.478694 267.014639 
L 456.681052 263.930718 
L 456.883409 255.986049 
L 457.288123 229.149812 
L 457.692838 218.264185 
L 457.895195 218.958577 
L 458.299909 224.677106 
L 458.502267 224.534143 
L 458.906981 220.735406 
L 459.109338 221.266412 
L 459.514053 225.391922 
L 459.71641 229.660395 
L 460.728196 286.988641 
L 461.13291 291.379654 
L 461.537625 288.091501 
L 461.739982 279.227782 
L 462.144696 244.957458 
L 463.561197 176.253425 
L 463.763554 169.043994 
L 463.965911 170.208123 
L 464.572983 189.549003 
L 465.382412 256.067742 
L 465.584769 262.929976 
L 465.787126 265.625853 
L 465.989483 263.215902 
L 467.608341 171.310982 
L 468.620127 150.274967 
L 468.822484 153.379311 
L 469.429556 179.439462 
L 470.036627 235.766966 
L 470.441342 253.433134 
L 470.643699 256.047318 
L 470.846056 253.494404 
L 471.857842 202.926275 
L 472.869628 172.883578 
L 473.071985 173.373737 
L 473.274343 171.596909 
L 473.4767 172.842731 
L 473.679057 176.600621 
L 473.881414 183.136082 
L 474.083772 184.279788 
L 474.286129 191.897684 
L 474.8932 243.650366 
L 475.297915 259.784785 
L 475.500272 261.439074 
L 475.702629 259.417166 
L 476.107344 235.215537 
L 476.512058 213.362589 
L 477.321487 182.094493 
L 477.726201 162.079644 
L 477.928558 158.54641 
L 478.333273 163.202926 
L 478.53563 167.634786 
L 479.142702 192.387844 
L 479.952131 259.682669 
L 480.356845 269.465437 
L 480.559202 269.05697 
L 480.963917 247.12233 
L 482.785131 119.639994 
L 482.987489 113.778503 
L 483.189846 111.164318 
L 483.392203 116.760307 
L 483.999275 156.340692 
L 484.606346 226.944094 
L 485.011061 250.002017 
L 485.213418 254.372607 
L 485.415775 255.312079 
L 485.82049 235.685273 
L 486.225204 204.703103 
L 487.23699 115.371521 
L 487.439347 112.308024 
L 487.844062 118.823061 
L 488.248776 137.306162 
L 489.260562 214.281638 
L 489.665277 246.20328 
L 490.069991 261.193994 
L 490.272348 263.522252 
L 490.474705 262.39897 
L 490.677063 260.642564 
L 490.87942 250.982336 
L 491.891206 171.841989 
L 492.29592 154.257514 
L 492.498277 146.925544 
L 492.700635 144.924059 
L 492.902992 146.537501 
L 493.105349 151.316556 
L 493.712421 184.586137 
L 494.52185 256.047318 
L 495.128921 274.183223 
L 495.331278 274.326186 
L 495.533636 273.713486 
L 495.735993 266.21813 
L 496.950136 175.395645 
L 497.557208 151.21444 
L 497.759565 147.885439 
L 497.961922 151.071477 
L 498.568994 182.339573 
L 499.378422 255.598006 
L 499.58078 262.378546 
L 499.783137 264.849767 
L 499.985494 261.561614 
L 500.187851 253.106361 
L 500.794923 216.466933 
L 500.99728 211.401951 
L 501.401995 198.412722 
L 501.806709 187.241168 
L 502.009066 186.791856 
L 502.211423 188.834187 
L 502.413781 189.46731 
L 502.616138 187.813021 
L 503.020852 197.452826 
L 503.223209 198.004256 
L 503.425567 205.458766 
L 504.032638 255.761392 
L 504.437353 268.730197 
L 504.63971 270.343639 
L 504.842067 267.994958 
L 505.246782 243.813752 
L 505.651496 220.183976 
L 507.270354 147.599513 
L 507.472711 144.515592 
L 507.675068 147.885439 
L 508.28214 175.701995 
L 508.889211 233.275322 
L 509.293926 250.26752 
L 509.496283 253.759907 
L 509.69864 251.942232 
L 510.103354 228.577959 
L 511.722212 123.030264 
L 512.126927 105.404943 
L 512.329284 106.977538 
L 512.936355 141.084475 
L 513.34107 179.725388 
L 513.745784 222.859431 
L 514.150499 245.406771 
L 514.352856 250.94149 
L 514.555213 251.431649 
L 514.75757 242.608777 
L 516.174071 146.598771 
L 516.376428 145.516335 
L 516.781142 154.768097 
L 516.9835 152.051796 
L 517.185857 152.582802 
L 517.590571 170.146853 
L 517.792928 174.354056 
L 517.995286 184.97418 
L 518.4 224.329909 
L 518.4 224.329909 
" clip-path="url(#p7f3f752dbf)" style="fill: none; stroke: #1f77b4; stroke-width: 1.5; stroke-linecap: square"/>
   </g>
   <g id="line2d_14">
    <path d="M 72 267.150679 
L 72.202357 267.150679 
L 72.607072 270.329368 
L 72.809429 270.705234 
L 73.011786 269.06219 
L 73.4165 260.186414 
L 74.023572 234.998132 
L 75.237715 164.924192 
L 75.440073 158.582274 
L 75.64243 158.982087 
L 76.047144 173.673915 
L 76.249501 187.137361 
L 77.05893 264.889643 
L 77.261287 268.573019 
L 77.463645 269.499703 
L 77.666002 265.018042 
L 78.475431 227.577443 
L 79.082502 199.353244 
L 79.284859 193.410945 
L 79.891931 155.182317 
L 80.094288 153.567127 
L 80.70136 185.470279 
L 81.106074 219.701762 
L 81.510789 260.214473 
L 81.915503 275.298092 
L 82.11786 279.21298 
L 82.320218 279.394564 
L 82.522575 275.471915 
L 82.927289 260.250585 
L 83.939075 221.620275 
L 84.141432 218.750346 
L 84.34379 217.797658 
L 84.546147 219.972882 
L 85.355576 241.376762 
L 85.962647 259.140989 
L 86.367362 278.163126 
L 86.974433 292.830455 
L 87.176791 294.070683 
L 87.379148 292.162956 
L 88.593291 251.798717 
L 88.998005 244.67478 
L 89.40272 240.355048 
L 89.605077 239.561458 
L 90.212149 233.283818 
L 90.414506 235.741164 
L 90.616863 236.511077 
L 90.81922 242.340216 
L 91.831006 287.626683 
L 92.033364 289.591217 
L 92.235721 284.667929 
L 93.247507 238.429138 
L 93.652221 228.576015 
L 94.056936 223.328809 
L 94.46165 223.480949 
L 94.664007 223.309886 
L 94.866364 222.756267 
L 95.068722 225.739784 
L 95.271079 232.217897 
L 95.473436 234.944344 
L 95.675793 243.554836 
L 96.080508 269.620782 
L 96.485222 283.944281 
L 96.687579 286.589273 
L 96.889937 285.181085 
L 97.294651 266.533506 
L 97.699365 247.091654 
L 98.10408 236.699939 
L 98.508794 229.996498 
L 98.711151 231.670764 
L 98.913509 231.776754 
L 99.115866 228.821387 
L 99.52058 220.466009 
L 99.722937 221.737557 
L 100.330009 237.068763 
L 100.532366 245.064332 
L 100.937081 271.731725 
L 101.341795 284.413166 
L 101.544152 287.583945 
L 101.74651 285.758207 
L 101.948867 278.672441 
L 102.555938 245.174305 
L 103.365367 230.593555 
L 103.567724 231.020611 
L 103.770082 230.548903 
L 104.377153 214.06329 
L 104.57951 216.416098 
L 105.186582 233.481446 
L 105.388939 243.590755 
L 105.793654 271.638613 
L 106.198368 283.634745 
L 106.400725 286.313386 
L 106.603083 284.80149 
L 107.007797 267.048677 
L 107.412511 245.250512 
L 108.22194 225.549842 
L 108.424297 221.574637 
L 108.626655 215.319178 
L 109.031369 198.465797 
L 109.233726 194.103888 
L 109.638441 208.93237 
L 110.245512 241.518179 
L 110.650227 270.215982 
L 111.054941 281.512176 
L 111.257298 283.30919 
L 111.459655 281.551545 
L 111.662013 276.388662 
L 112.876156 218.896681 
L 113.28087 198.541311 
L 113.887942 177.101796 
L 114.090299 173.659541 
L 114.292656 178.497689 
L 114.697371 199.247699 
L 115.102085 227.663438 
L 115.5068 260.884292 
L 115.911514 274.390875 
L 116.113871 278.026389 
L 116.316228 278.841096 
L 116.720943 266.426199 
L 117.530372 231.853585 
L 118.744515 152.537336 
L 118.946872 150.467983 
L 119.149229 153.675321 
L 119.553944 171.353657 
L 119.958658 202.818817 
L 120.56573 262.417722 
L 120.970444 276.012044 
L 121.172801 279.043704 
L 121.375159 277.909163 
L 121.577516 272.110706 
L 122.386945 230.763686 
L 122.994016 194.120948 
L 123.398731 186.180015 
L 123.803445 188.38884 
L 124.005802 192.103369 
L 124.815231 233.175663 
L 125.422303 278.861562 
L 125.827017 289.849244 
L 126.029374 290.645358 
L 126.231732 285.451779 
L 126.636446 264.117685 
L 127.243518 225.41883 
L 128.255304 163.980801 
L 128.660018 149.961106 
L 128.862375 150.999502 
L 129.064733 160.402739 
L 129.469447 198.803491 
L 130.076519 261.066304 
L 130.481233 280.119043 
L 130.68359 281.64988 
L 130.885947 277.502402 
L 131.088305 270.130798 
L 132.302448 194.586716 
L 132.707162 164.561571 
L 133.314234 143.05487 
L 133.516591 141.615706 
L 133.718948 149.294284 
L 134.528377 205.10561 
L 134.933092 253.076044 
L 135.135449 265.678387 
L 135.540163 273.141335 
L 135.74252 271.932634 
L 135.944878 265.254392 
L 136.349592 239.5316 
L 136.956664 191.666057 
L 137.361378 177.862307 
L 137.563735 178.926244 
L 137.96845 187.985457 
L 138.170807 189.575155 
L 138.575521 195.754301 
L 139.182593 223.517101 
L 139.992022 277.114736 
L 140.396736 284.379263 
L 140.599093 281.955688 
L 141.003808 263.613829 
L 141.408522 238.724753 
L 142.420308 203.504985 
L 142.622665 206.05021 
L 142.825023 204.6244 
L 143.229737 206.691721 
L 143.432094 210.912466 
L 144.241523 239.379971 
L 144.646238 262.339598 
L 145.050952 275.802209 
L 145.253309 278.570532 
L 145.455666 276.312678 
L 145.658024 270.941727 
L 146.467452 225.302575 
L 147.074524 205.029744 
L 147.276881 203.023182 
L 147.479238 202.747393 
L 147.681596 201.740556 
L 148.08631 208.886797 
L 148.288667 214.292726 
L 148.895739 239.426403 
L 149.300453 256.959925 
L 149.705168 271.352633 
L 150.109882 277.993962 
L 150.312239 276.91495 
L 150.716954 265.079676 
L 151.324025 241.915502 
L 151.931097 230.452067 
L 152.133454 228.558468 
L 152.335811 228.623902 
L 152.538169 229.576804 
L 152.740526 231.980558 
L 152.942883 232.79582 
L 153.347597 238.769581 
L 153.752312 244.251138 
L 153.954669 246.913235 
L 154.764098 273.364012 
L 154.966455 278.199852 
L 155.168812 280.220543 
L 155.37117 277.304874 
L 155.573527 272.162811 
L 156.585313 226.342233 
L 156.990027 196.219962 
L 157.394742 169.182023 
L 157.799456 159.767135 
L 158.001813 158.891314 
L 158.20417 160.642756 
L 158.608885 178.865391 
L 159.620671 269.661007 
L 159.823028 275.195712 
L 160.025385 277.309434 
L 160.227743 273.370774 
L 161.8466 174.018074 
L 162.251315 164.331908 
L 162.453672 163.324295 
L 162.656029 167.135816 
L 163.263101 200.798025 
L 163.667815 231.165363 
L 164.274887 274.508938 
L 164.679601 283.183769 
L 164.881958 281.200115 
L 165.286673 262.708901 
L 166.096102 217.750529 
L 166.500816 207.736395 
L 167.512602 174.342319 
L 167.714959 177.851519 
L 168.322031 210.567908 
L 168.929102 261.685475 
L 169.333817 273.686222 
L 169.536174 276.861697 
L 169.738531 275.424742 
L 169.940888 268.689122 
L 170.54796 231.236263 
L 171.559746 161.388906 
L 171.762103 155.90988 
L 171.964461 153.880212 
L 172.166818 153.359916 
L 172.369175 156.088542 
L 172.976247 185.143478 
L 173.380961 219.372067 
L 173.785675 259.387638 
L 174.19039 274.277638 
L 174.392747 278.894659 
L 174.595104 278.583237 
L 174.797461 272.986625 
L 176.213962 193.936654 
L 177.023391 169.483265 
L 177.225748 168.611117 
L 177.630462 182.61019 
L 178.035177 204.093988 
L 178.844606 277.620968 
L 179.24932 285.153732 
L 179.451677 283.767343 
L 179.654034 276.73158 
L 180.868178 199.718511 
L 181.475249 162.5801 
L 181.879964 151.596557 
L 182.082321 150.309676 
L 182.284678 155.968114 
L 182.89175 189.41848 
L 183.701179 264.699169 
L 184.105893 271.46935 
L 184.30825 270.265748 
L 184.712965 258.103214 
L 185.117679 238.588705 
L 185.522393 204.180474 
L 186.129465 149.250622 
L 186.331822 138.461994 
L 186.53418 136.947479 
L 186.736537 140.557899 
L 186.938894 147.114411 
L 188.760109 265.733253 
L 189.164823 271.064649 
L 189.36718 269.226118 
L 189.771895 254.624692 
L 190.176609 230.901129 
L 190.783681 188.182544 
L 191.188395 163.615065 
L 191.390752 161.239917 
L 191.59311 162.347627 
L 191.795467 165.085266 
L 191.997824 170.114725 
L 192.604896 204.707799 
L 193.414325 257.060835 
L 193.819039 271.387368 
L 194.021396 274.840361 
L 194.223753 273.143103 
L 194.628468 257.833891 
L 195.033182 232.786246 
L 195.640254 196.858023 
L 195.842611 188.880252 
L 196.044968 185.87068 
L 196.247325 187.580365 
L 196.854397 208.851922 
L 198.675612 281.147792 
L 198.877969 282.729351 
L 199.080326 277.811119 
L 199.485041 254.83655 
L 200.092112 211.168706 
L 200.699184 185.531318 
L 201.508613 165.567012 
L 201.71097 166.48008 
L 202.115684 187.348112 
L 203.329828 268.747394 
L 203.532185 271.011979 
L 203.734542 268.610973 
L 203.936899 261.173765 
L 204.746328 209.58348 
L 205.555757 173.62042 
L 206.162829 164.999847 
L 206.365186 169.407151 
L 207.174615 208.731209 
L 207.984044 264.568164 
L 208.388758 272.620505 
L 208.591115 271.549465 
L 208.793472 265.45906 
L 209.198187 239.446385 
L 209.602901 212.681567 
L 210.41233 177.61273 
L 211.221759 150.849557 
L 211.424116 153.4509 
L 212.031188 185.995465 
L 212.840617 258.08106 
L 213.245331 269.270903 
L 213.447688 267.87099 
L 213.650045 260.626781 
L 214.864189 179.956574 
L 215.673617 130.679845 
L 215.875975 122.469886 
L 216.078332 122.674554 
L 216.483046 140.224324 
L 217.090118 181.933858 
L 217.697189 241.94072 
L 218.101904 259.310041 
L 218.304261 260.073208 
L 218.506618 255.964186 
L 219.316047 211.157108 
L 219.720762 181.826502 
L 220.327833 153.977698 
L 220.53019 154.98799 
L 220.732548 160.151029 
L 221.744334 209.076578 
L 222.553762 263.247095 
L 222.958477 276.675362 
L 223.160834 278.795033 
L 223.363191 276.639504 
L 223.767906 260.879199 
L 224.577335 221.039935 
L 224.982049 210.345652 
L 225.184406 211.402509 
L 225.791478 228.412867 
L 225.993835 229.631062 
L 226.600907 240.345953 
L 227.005621 254.609821 
L 227.612693 280.304306 
L 227.81505 286.133968 
L 228.017407 288.399117 
L 228.219764 285.216582 
L 228.624479 265.464792 
L 229.029193 242.461531 
L 230.243336 205.49608 
L 230.648051 192.71003 
L 230.850408 188.412539 
L 231.052765 192.262256 
L 231.45748 212.656383 
L 231.862194 241.539244 
L 232.266908 268.956187 
L 232.469266 278.268776 
L 232.671623 280.839969 
L 232.87398 278.500033 
L 233.076337 274.399876 
L 234.897552 180.16904 
L 235.302267 171.506251 
L 235.504624 171.789229 
L 235.909338 189.710386 
L 236.51641 228.008566 
L 236.921124 264.857966 
L 237.325839 279.243366 
L 237.528196 281.459394 
L 237.730553 280.681022 
L 237.93291 274.134182 
L 239.551768 191.610002 
L 239.754125 187.930365 
L 240.15884 186.012405 
L 240.361197 187.252584 
L 240.563554 192.390906 
L 240.968268 212.895961 
L 241.980054 276.50412 
L 242.384769 283.218777 
L 242.587126 282.213298 
L 242.789483 277.108631 
L 243.801269 227.863225 
L 245.015413 180.245266 
L 245.21777 176.807515 
L 245.420127 181.717086 
L 245.824841 199.727188 
L 246.229556 227.04247 
L 246.836627 269.590061 
L 247.241342 278.940623 
L 247.443699 278.950474 
L 247.646056 274.341022 
L 248.050771 253.32603 
L 248.860199 199.944352 
L 249.467271 155.077306 
L 249.871985 140.02318 
L 250.074343 139.674002 
L 250.2767 146.616231 
L 251.086129 208.000366 
L 251.490843 249.131106 
L 251.895558 265.72056 
L 252.097915 269.085672 
L 252.300272 269.578237 
L 252.502629 266.450009 
L 252.907344 249.305679 
L 253.312058 224.072812 
L 254.121487 158.374703 
L 254.323844 148.154761 
L 254.526201 144.384973 
L 254.728558 145.103559 
L 254.930916 147.496543 
L 255.33563 162.115886 
L 255.740345 185.547615 
L 256.752131 268.299576 
L 256.954488 274.617671 
L 257.156845 276.444737 
L 257.359202 274.751896 
L 257.763917 258.417347 
L 259.382774 167.47343 
L 259.787489 167.350342 
L 259.989846 170.597824 
L 260.39456 186.520951 
L 260.596917 196.278252 
L 261.608704 275.215223 
L 261.811061 280.635921 
L 262.013418 281.313699 
L 262.215775 277.101633 
L 262.62049 255.222119 
L 263.429918 204.395714 
L 263.632276 201.092393 
L 263.834633 203.734157 
L 265.048776 233.966762 
L 265.251133 236.950873 
L 265.45349 241.905749 
L 265.858205 260.752419 
L 266.262919 278.858398 
L 266.465277 283.351115 
L 266.667634 285.319372 
L 266.869991 284.161753 
L 267.274705 269.14385 
L 267.881777 244.737642 
L 268.286491 234.629772 
L 268.691206 218.591109 
L 269.09592 210.753223 
L 269.298277 206.571003 
L 269.500635 207.236461 
L 269.905349 215.718156 
L 271.32185 271.27637 
L 271.524207 275.121745 
L 271.726564 275.070756 
L 271.928921 270.358116 
L 273.143064 206.641048 
L 273.952493 159.35899 
L 274.357208 146.39606 
L 274.559565 146.886404 
L 275.166636 175.522532 
L 276.178422 257.940316 
L 276.38078 262.388614 
L 276.583137 262.999354 
L 276.785494 257.73589 
L 277.190209 232.291213 
L 277.999637 172.538319 
L 278.606709 140.448887 
L 279.011423 135.873685 
L 279.213781 135.744082 
L 280.023209 182.163123 
L 280.225567 196.698894 
L 280.630281 245.362757 
L 281.034995 269.788699 
L 281.237353 275.185488 
L 281.43971 274.302751 
L 281.642067 270.724119 
L 282.451496 218.928004 
L 282.85621 199.429565 
L 283.665639 167.696393 
L 284.070354 163.227101 
L 284.272711 167.177139 
L 284.677425 185.518824 
L 284.879782 197.930327 
L 285.689211 272.948634 
L 285.891568 279.129626 
L 286.093926 281.223701 
L 286.296283 280.061708 
L 286.49864 275.757827 
L 287.510426 228.125873 
L 288.522212 163.001601 
L 288.724569 161.574677 
L 288.926927 161.070306 
L 289.129284 163.210357 
L 289.533998 178.349115 
L 289.938713 209.32902 
L 290.545784 263.512814 
L 290.950499 274.538834 
L 291.152856 275.28285 
L 291.355213 274.047435 
L 291.759927 258.350018 
L 292.164642 231.797259 
L 292.974071 154.145658 
L 293.176428 138.976458 
L 293.378785 132.494094 
L 293.7835 131.23307 
L 293.985857 135.366826 
L 294.592928 168.095064 
L 295.2 229.199771 
L 295.604714 257.400683 
L 296.009429 265.912244 
L 296.211786 263.271395 
L 296.6165 239.095185 
L 298.033001 93.911311 
L 298.235358 86.598631 
L 298.640073 82.326854 
L 298.84243 84.991636 
L 299.247144 114.026864 
L 299.854216 178.789544 
L 300.461287 227.524103 
L 300.663645 237.308203 
L 300.866002 239.967292 
L 301.068359 233.148081 
L 302.687217 85.962895 
L 302.889574 74.45864 
L 303.091931 74.668749 
L 303.90136 126.775851 
L 305.520218 248.536545 
L 305.722575 249.681366 
L 306.127289 228.241644 
L 306.532004 197.088733 
L 307.139075 166.724123 
L 307.746147 132.087054 
L 307.948504 128.31577 
L 308.353218 135.95107 
L 308.555576 144.126493 
L 309.567362 215.768174 
L 309.972076 249.919118 
L 310.376791 269.394445 
L 310.579148 269.060311 
L 310.983862 244.788991 
L 312.400363 130.799826 
L 312.60272 121.839951 
L 312.805077 122.944231 
L 313.209791 130.600921 
L 313.412149 135.603301 
L 313.614506 144.366281 
L 314.221578 192.489485 
L 314.626292 230.559451 
L 315.031006 251.552776 
L 315.233364 257.935384 
L 315.435721 258.415759 
L 315.638078 251.407372 
L 316.649864 186.514769 
L 316.852221 183.077519 
L 317.054578 184.088016 
L 317.256936 183.334422 
L 317.459293 183.481836 
L 317.66165 182.200005 
L 318.268722 191.267024 
L 318.875793 212.414297 
L 319.887579 270.699515 
L 320.089937 274.271434 
L 320.292294 274.694803 
L 320.494651 272.110433 
L 321.708794 221.819817 
L 322.315866 175.702857 
L 322.72058 162.769711 
L 322.922937 160.375437 
L 323.125295 163.603886 
L 323.530009 178.929197 
L 324.137081 225.529702 
L 324.541795 254.436594 
L 324.94651 266.181666 
L 325.148867 269.583156 
L 325.351224 267.822396 
L 325.755938 251.140425 
L 326.160653 228.35445 
L 326.767724 178.739225 
L 327.172439 142.125946 
L 327.374796 134.885043 
L 327.577153 135.368849 
L 327.77951 133.836349 
L 327.981868 139.140616 
L 328.588939 174.473007 
L 329.398368 251.833675 
L 329.803083 267.33578 
L 330.00544 269.186731 
L 330.207797 267.158657 
L 330.612511 243.388122 
L 331.624297 159.518798 
L 331.826655 145.190027 
L 332.029012 140.152062 
L 332.231369 140.190892 
L 332.636083 149.030358 
L 332.838441 156.026882 
L 333.647869 213.851474 
L 334.254941 262.290762 
L 334.659655 273.986136 
L 334.862013 274.457416 
L 335.06437 268.869719 
L 336.278513 202.009961 
L 336.885585 181.92163 
L 337.087942 184.495007 
L 337.492656 181.395763 
L 337.897371 191.643058 
L 338.7068 243.351365 
L 339.111514 267.723285 
L 339.313871 274.322305 
L 339.516228 277.174193 
L 339.718586 276.603547 
L 339.920943 271.281724 
L 341.742158 170.659278 
L 342.146872 160.35319 
L 342.349229 158.039937 
L 342.551587 159.625838 
L 342.956301 172.651965 
L 343.361015 197.494056 
L 343.968087 251.677062 
L 344.170444 258.575412 
L 344.372801 261.63654 
L 344.575159 261.60763 
L 344.777516 257.165455 
L 345.18223 231.551798 
L 346.801088 109.616297 
L 347.003445 108.344417 
L 347.205802 110.176868 
L 347.40816 116.721853 
L 348.015231 153.200908 
L 348.419946 191.771446 
L 348.82466 232.963371 
L 349.229374 253.574956 
L 349.431732 255.629438 
L 349.634089 249.328304 
L 350.24116 209.515294 
L 351.455304 121.45744 
L 351.657661 118.996879 
L 352.062375 122.961862 
L 352.46709 138.599984 
L 352.871804 164.962438 
L 353.276519 201.823084 
L 353.681233 245.158778 
L 354.085947 263.17783 
L 354.288305 265.234652 
L 354.490662 257.49055 
L 355.502448 191.534961 
L 355.907162 151.259004 
L 356.311877 117.097409 
L 356.514234 114.205805 
L 356.716591 115.556367 
L 357.121306 126.693466 
L 357.323663 133.087073 
L 357.728377 154.802995 
L 357.930734 170.48218 
L 358.537806 240.115304 
L 358.94252 260.724967 
L 359.144878 260.828626 
L 359.347235 256.576459 
L 359.751949 235.065121 
L 360.156664 197.127111 
L 361.16845 99.979321 
L 361.370807 95.362194 
L 361.977879 107.825635 
L 362.180236 113.934292 
L 362.58495 138.137755 
L 362.989665 180.722502 
L 363.596736 237.2552 
L 363.799093 247.158357 
L 364.001451 246.155093 
L 364.406165 230.008409 
L 364.810879 185.518892 
L 365.822665 76.673875 
L 366.22738 55.8 
L 366.632094 60.624977 
L 366.834451 67.992313 
L 367.239166 99.449806 
L 368.250952 195.915435 
L 368.655666 220.117602 
L 368.858024 223.199867 
L 369.262738 197.692885 
L 370.274524 127.882699 
L 370.679238 87.481684 
L 371.083953 68.513886 
L 371.488667 77.200647 
L 371.893382 106.161976 
L 372.905168 193.66796 
L 373.512239 231.182312 
L 373.714597 231.277133 
L 374.119311 215.621923 
L 374.726383 176.859726 
L 374.92874 168.346428 
L 375.333454 137.230302 
L 375.738169 106.556187 
L 375.940526 99.904553 
L 376.142883 103.638539 
L 376.34524 110.913253 
L 377.357026 174.534803 
L 378.368812 247.221846 
L 378.57117 245.767012 
L 378.975884 232.50932 
L 379.380598 198.24621 
L 379.785313 161.301681 
L 380.797099 100.699278 
L 380.999456 100.68058 
L 381.201813 100.464578 
L 381.40417 105.648132 
L 381.606528 114.616369 
L 383.023028 226.506454 
L 383.427743 233.255918 
L 383.6301 226.051944 
L 384.237171 179.696948 
L 384.237171 179.696948 
" clip-path="url(#p7f3f752dbf)" style="fill: none; stroke: #ff7f0e; stroke-width: 1.5; stroke-linecap: square"/>
   </g>
   <g id="line2d_15">
    <path d="M 384.439529 168.295954 
L 385.451315 123.36732 
L 385.653672 124.075093 
L 385.856029 126.87258 
L 386.058386 132.093561 
L 386.463101 158.84715 
L 387.677244 249.099206 
L 387.879601 255.748023 
L 388.081958 258.675131 
L 388.284316 257.640023 
L 388.68903 245.929668 
L 389.296102 216.021013 
L 390.10553 190.072742 
L 390.307888 187.143807 
L 390.510245 187.122131 
L 390.712602 187.668601 
L 391.117316 191.69104 
L 391.319674 195.500215 
L 391.724388 210.355611 
L 392.736174 262.868741 
L 392.938531 264.701967 
L 393.140888 263.853977 
L 393.343246 261.880254 
L 393.74796 248.847501 
L 394.355032 224.285185 
L 394.759746 213.269489 
L 395.164461 202.74139 
L 395.569175 199.652973 
L 395.771532 200.762427 
L 395.973889 203.032535 
L 396.176247 208.40943 
L 397.592747 263.74324 
L 397.795104 265.128152 
L 397.997461 264.071573 
L 398.402176 255.831451 
L 400.223391 203.002256 
L 400.425748 202.41148 
L 400.628105 204.260521 
L 400.830462 207.428752 
L 401.235177 221.358507 
L 401.842248 248.095923 
L 402.246963 258.270479 
L 402.44932 260.863733 
L 402.651677 261.098563 
L 403.056392 254.915517 
L 403.663463 242.26976 
L 404.472892 221.732665 
L 404.877607 211.599468 
L 405.079964 208.731456 
L 405.282321 208.241636 
L 405.484678 209.723001 
L 405.687035 213.583378 
L 406.09175 227.93056 
L 406.698821 251.40218 
L 407.103536 258.424512 
L 407.305893 259.259772 
L 407.50825 258.19243 
L 407.912965 252.373023 
L 409.73418 220.195124 
L 409.936537 218.058392 
L 410.138894 217.988652 
L 410.341251 220.421441 
L 410.948323 236.702396 
L 411.555394 253.659786 
L 411.757752 256.628329 
L 411.960109 257.743899 
L 412.162466 257.204086 
L 412.364823 255.674236 
L 414.388395 228.813402 
L 414.590752 227.165657 
L 414.79311 226.571972 
L 414.995467 227.442142 
L 415.400181 233.536972 
L 416.614325 254.603314 
L 416.816682 254.531133 
L 417.019039 253.572673 
L 417.423753 249.297614 
L 418.233182 240.496211 
L 418.637897 237.424667 
L 419.042611 234.44039 
L 419.447325 233.336121 
L 419.649683 233.746796 
L 419.85204 234.733675 
L 420.256754 238.646831 
L 421.066183 249.484508 
L 421.26854 250.97633 
L 421.470898 251.570649 
L 421.673255 251.272292 
L 422.077969 248.627132 
L 423.089755 240.467106 
L 423.696827 238.38547 
L 423.899184 237.953115 
L 424.101541 237.839714 
L 424.303898 238.109843 
L 424.708613 239.251789 
L 425.113327 241.883776 
L 425.922756 247.865138 
L 426.125113 248.667506 
L 426.327471 248.981254 
L 426.529828 248.587949 
L 426.934542 246.556153 
L 427.743971 241.578784 
L 428.148685 240.596244 
L 428.755757 240.456566 
L 429.160471 241.099842 
L 429.565186 241.93209 
L 429.9699 243.237837 
L 430.779329 246.379458 
L 430.981686 246.819242 
L 431.184044 246.863232 
L 431.386401 246.579622 
L 431.791115 245.163641 
L 432.600544 241.908163 
L 432.802901 241.529055 
L 433.005258 241.426572 
L 433.409973 241.690628 
L 434.826473 243.733187 
L 435.635902 245.234786 
L 435.838259 245.402932 
L 436.040617 245.422412 
L 436.242974 245.293318 
L 436.647688 244.381411 
L 437.457117 242.33637 
L 437.659474 242.115275 
L 437.861831 242.078021 
L 438.266546 242.4556 
L 439.278332 243.628586 
L 440.694832 244.554992 
L 440.897189 244.580681 
L 441.301904 244.275494 
L 442.516047 242.587876 
L 442.718404 242.583087 
L 443.123119 242.887641 
L 444.134905 243.827794 
L 445.349048 244.03652 
L 445.95612 244.018194 
L 446.360834 243.772885 
L 447.170263 243.035377 
L 447.574977 242.950994 
L 447.979692 243.159161 
L 448.789121 243.776123 
L 449.193835 243.870085 
L 451.01505 243.733367 
L 452.633908 243.235361 
L 454.050408 243.826796 
L 456.883409 243.407515 
L 457.490481 243.379704 
L 459.311695 243.714787 
L 460.323481 243.569694 
L 461.739982 243.494932 
L 462.549411 243.489951 
L 463.965911 243.701343 
L 465.787126 243.564929 
L 469.631913 243.572752 
L 470.846056 243.571325 
L 474.488486 243.575773 
L 475.904986 243.580929 
L 479.749773 243.561033 
L 485.618132 243.58037 
L 489.260562 243.579738 
L 493.510063 243.589025 
L 518.4 243.584093 
L 518.4 243.584093 
" clip-path="url(#p7f3f752dbf)" style="fill: none; stroke: #2ca02c; stroke-width: 1.5; stroke-linecap: square"/>
   </g>
   <g id="patch_3">
    <path d="M 72 320.4 
L 72 43.2 
" style="fill: none; stroke: #000000; stroke-width: 0.8; stroke-linejoin: miter; stroke-linecap: square"/>
   </g>
   <g id="patch_4">
    <path d="M 518.4 320.4 
L 518.4 43.2 
" style="fill: none; stroke: #000000; stroke-width: 0.8; stroke-linejoin: miter; stroke-linecap: square"/>
   </g>
   <g id="patch_5">
    <path d="M 72 320.4 
L 518.4 320.4 
" style="fill: none; stroke: #000000; stroke-width: 0.8; stroke-linejoin: miter; stroke-linecap: square"/>
   </g>
   <g id="patch_6">
    <path d="M 72 43.2 
L 518.4 43.2 
" style="fill: none; stroke: #000000; stroke-width: 0.8; stroke-linejoin: miter; stroke-linecap: square"/>
   </g>
   <g id="text_13">
    <!-- Classic Transformer - model_20231123164745 -->
    <g transform="translate(155.436563 37.2) scale(0.12 -0.12)">
     <defs>
      <path id="DejaVuSans-43" d="M 4122 4306 
L 4122 3641 
Q 3803 3938 3442 4084 
Q 3081 4231 2675 4231 
Q 1875 4231 1450 3742 
Q 1025 3253 1025 2328 
Q 1025 1406 1450 917 
Q 1875 428 2675 428 
Q 3081 428 3442 575 
Q 3803 722 4122 1019 
L 4122 359 
Q 3791 134 3420 21 
Q 3050 -91 2638 -91 
Q 1578 -91 968 557 
Q 359 1206 359 2328 
Q 359 3453 968 4101 
Q 1578 4750 2638 4750 
Q 3056 4750 3426 4639 
Q 3797 4528 4122 4306 
z
" transform="scale(0.015625)"/>
      <path id="DejaVuSans-6c" d="M 603 4863 
L 1178 4863 
L 1178 0 
L 603 0 
L 603 4863 
z
" transform="scale(0.015625)"/>
      <path id="DejaVuSans-61" d="M 2194 1759 
Q 1497 1759 1228 1600 
Q 959 1441 959 1056 
Q 959 750 1161 570 
Q 1363 391 1709 391 
Q 2188 391 2477 730 
Q 2766 1069 2766 1631 
L 2766 1759 
L 2194 1759 
z
M 3341 1997 
L 3341 0 
L 2766 0 
L 2766 531 
Q 2569 213 2275 61 
Q 1981 -91 1556 -91 
Q 1019 -91 701 211 
Q 384 513 384 1019 
Q 384 1609 779 1909 
Q 1175 2209 1959 2209 
L 2766 2209 
L 2766 2266 
Q 2766 2663 2505 2880 
Q 2244 3097 1772 3097 
Q 1472 3097 1187 3025 
Q 903 2953 641 2809 
L 641 3341 
Q 956 3463 1253 3523 
Q 1550 3584 1831 3584 
Q 2591 3584 2966 3190 
Q 3341 2797 3341 1997 
z
" transform="scale(0.015625)"/>
      <path id="DejaVuSans-73" d="M 2834 3397 
L 2834 2853 
Q 2591 2978 2328 3040 
Q 2066 3103 1784 3103 
Q 1356 3103 1142 2972 
Q 928 2841 928 2578 
Q 928 2378 1081 2264 
Q 1234 2150 1697 2047 
L 1894 2003 
Q 2506 1872 2764 1633 
Q 3022 1394 3022 966 
Q 3022 478 2636 193 
Q 2250 -91 1575 -91 
Q 1294 -91 989 -36 
Q 684 19 347 128 
L 347 722 
Q 666 556 975 473 
Q 1284 391 1588 391 
Q 1994 391 2212 530 
Q 2431 669 2431 922 
Q 2431 1156 2273 1281 
Q 2116 1406 1581 1522 
L 1381 1569 
Q 847 1681 609 1914 
Q 372 2147 372 2553 
Q 372 3047 722 3315 
Q 1072 3584 1716 3584 
Q 2034 3584 2315 3537 
Q 2597 3491 2834 3397 
z
" transform="scale(0.015625)"/>
      <path id="DejaVuSans-69" d="M 603 3500 
L 1178 3500 
L 1178 0 
L 603 0 
L 603 3500 
z
M 603 4863 
L 1178 4863 
L 1178 4134 
L 603 4134 
L 603 4863 
z
" transform="scale(0.015625)"/>
      <path id="DejaVuSans-63" d="M 3122 3366 
L 3122 2828 
Q 2878 2963 2633 3030 
Q 2388 3097 2138 3097 
Q 1578 3097 1268 2742 
Q 959 2388 959 1747 
Q 959 1106 1268 751 
Q 1578 397 2138 397 
Q 2388 397 2633 464 
Q 2878 531 3122 666 
L 3122 134 
Q 2881 22 2623 -34 
Q 2366 -91 2075 -91 
Q 1284 -91 818 406 
Q 353 903 353 1747 
Q 353 2603 823 3093 
Q 1294 3584 2113 3584 
Q 2378 3584 2631 3529 
Q 2884 3475 3122 3366 
z
" transform="scale(0.015625)"/>
      <path id="DejaVuSans-20" transform="scale(0.015625)"/>
      <path id="DejaVuSans-54" d="M -19 4666 
L 3928 4666 
L 3928 4134 
L 2272 4134 
L 2272 0 
L 1638 0 
L 1638 4134 
L -19 4134 
L -19 4666 
z
" transform="scale(0.015625)"/>
      <path id="DejaVuSans-72" d="M 2631 2963 
Q 2534 3019 2420 3045 
Q 2306 3072 2169 3072 
Q 1681 3072 1420 2755 
Q 1159 2438 1159 1844 
L 1159 0 
L 581 0 
L 581 3500 
L 1159 3500 
L 1159 2956 
Q 1341 3275 1631 3429 
Q 1922 3584 2338 3584 
Q 2397 3584 2469 3576 
Q 2541 3569 2628 3553 
L 2631 2963 
z
" transform="scale(0.015625)"/>
      <path id="DejaVuSans-6e" d="M 3513 2113 
L 3513 0 
L 2938 0 
L 2938 2094 
Q 2938 2591 2744 2837 
Q 2550 3084 2163 3084 
Q 1697 3084 1428 2787 
Q 1159 2491 1159 1978 
L 1159 0 
L 581 0 
L 581 3500 
L 1159 3500 
L 1159 2956 
Q 1366 3272 1645 3428 
Q 1925 3584 2291 3584 
Q 2894 3584 3203 3211 
Q 3513 2838 3513 2113 
z
" transform="scale(0.015625)"/>
      <path id="DejaVuSans-66" d="M 2375 4863 
L 2375 4384 
L 1825 4384 
Q 1516 4384 1395 4259 
Q 1275 4134 1275 3809 
L 1275 3500 
L 2222 3500 
L 2222 3053 
L 1275 3053 
L 1275 0 
L 697 0 
L 697 3053 
L 147 3053 
L 147 3500 
L 697 3500 
L 697 3744 
Q 697 4328 969 4595 
Q 1241 4863 1831 4863 
L 2375 4863 
z
" transform="scale(0.015625)"/>
      <path id="DejaVuSans-6f" d="M 1959 3097 
Q 1497 3097 1228 2736 
Q 959 2375 959 1747 
Q 959 1119 1226 758 
Q 1494 397 1959 397 
Q 2419 397 2687 759 
Q 2956 1122 2956 1747 
Q 2956 2369 2687 2733 
Q 2419 3097 1959 3097 
z
M 1959 3584 
Q 2709 3584 3137 3096 
Q 3566 2609 3566 1747 
Q 3566 888 3137 398 
Q 2709 -91 1959 -91 
Q 1206 -91 779 398 
Q 353 888 353 1747 
Q 353 2609 779 3096 
Q 1206 3584 1959 3584 
z
" transform="scale(0.015625)"/>
      <path id="DejaVuSans-6d" d="M 3328 2828 
Q 3544 3216 3844 3400 
Q 4144 3584 4550 3584 
Q 5097 3584 5394 3201 
Q 5691 2819 5691 2113 
L 5691 0 
L 5113 0 
L 5113 2094 
Q 5113 2597 4934 2840 
Q 4756 3084 4391 3084 
Q 3944 3084 3684 2787 
Q 3425 2491 3425 1978 
L 3425 0 
L 2847 0 
L 2847 2094 
Q 2847 2600 2669 2842 
Q 2491 3084 2119 3084 
Q 1678 3084 1418 2786 
Q 1159 2488 1159 1978 
L 1159 0 
L 581 0 
L 581 3500 
L 1159 3500 
L 1159 2956 
Q 1356 3278 1631 3431 
Q 1906 3584 2284 3584 
Q 2666 3584 2933 3390 
Q 3200 3197 3328 2828 
z
" transform="scale(0.015625)"/>
      <path id="DejaVuSans-65" d="M 3597 1894 
L 3597 1613 
L 953 1613 
Q 991 1019 1311 708 
Q 1631 397 2203 397 
Q 2534 397 2845 478 
Q 3156 559 3463 722 
L 3463 178 
Q 3153 47 2828 -22 
Q 2503 -91 2169 -91 
Q 1331 -91 842 396 
Q 353 884 353 1716 
Q 353 2575 817 3079 
Q 1281 3584 2069 3584 
Q 2775 3584 3186 3129 
Q 3597 2675 3597 1894 
z
M 3022 2063 
Q 3016 2534 2758 2815 
Q 2500 3097 2075 3097 
Q 1594 3097 1305 2825 
Q 1016 2553 972 2059 
L 3022 2063 
z
" transform="scale(0.015625)"/>
      <path id="DejaVuSans-64" d="M 2906 2969 
L 2906 4863 
L 3481 4863 
L 3481 0 
L 2906 0 
L 2906 525 
Q 2725 213 2448 61 
Q 2172 -91 1784 -91 
Q 1150 -91 751 415 
Q 353 922 353 1747 
Q 353 2572 751 3078 
Q 1150 3584 1784 3584 
Q 2172 3584 2448 3432 
Q 2725 3281 2906 2969 
z
M 947 1747 
Q 947 1113 1208 752 
Q 1469 391 1925 391 
Q 2381 391 2643 752 
Q 2906 1113 2906 1747 
Q 2906 2381 2643 2742 
Q 2381 3103 1925 3103 
Q 1469 3103 1208 2742 
Q 947 2381 947 1747 
z
" transform="scale(0.015625)"/>
      <path id="DejaVuSans-5f" d="M 3263 -1063 
L 3263 -1509 
L -63 -1509 
L -63 -1063 
L 3263 -1063 
z
" transform="scale(0.015625)"/>
      <path id="DejaVuSans-34" d="M 2419 4116 
L 825 1625 
L 2419 1625 
L 2419 4116 
z
M 2253 4666 
L 3047 4666 
L 3047 1625 
L 3713 1625 
L 3713 1100 
L 3047 1100 
L 3047 0 
L 2419 0 
L 2419 1100 
L 313 1100 
L 313 1709 
L 2253 4666 
z
" transform="scale(0.015625)"/>
     </defs>
     <use xlink:href="#DejaVuSans-43"/>
     <use xlink:href="#DejaVuSans-6c" x="69.824219"/>
     <use xlink:href="#DejaVuSans-61" x="97.607422"/>
     <use xlink:href="#DejaVuSans-73" x="158.886719"/>
     <use xlink:href="#DejaVuSans-73" x="210.986328"/>
     <use xlink:href="#DejaVuSans-69" x="263.085938"/>
     <use xlink:href="#DejaVuSans-63" x="290.869141"/>
     <use xlink:href="#DejaVuSans-20" x="345.849609"/>
     <use xlink:href="#DejaVuSans-54" x="377.636719"/>
     <use xlink:href="#DejaVuSans-72" x="423.970703"/>
     <use xlink:href="#DejaVuSans-61" x="465.083984"/>
     <use xlink:href="#DejaVuSans-6e" x="526.363281"/>
     <use xlink:href="#DejaVuSans-73" x="589.742188"/>
     <use xlink:href="#DejaVuSans-66" x="641.841797"/>
     <use xlink:href="#DejaVuSans-6f" x="677.046875"/>
     <use xlink:href="#DejaVuSans-72" x="738.228516"/>
     <use xlink:href="#DejaVuSans-6d" x="777.591797"/>
     <use xlink:href="#DejaVuSans-65" x="875.003906"/>
     <use xlink:href="#DejaVuSans-72" x="936.527344"/>
     <use xlink:href="#DejaVuSans-20" x="977.640625"/>
     <use xlink:href="#DejaVuSans-2d" x="1009.427734"/>
     <use xlink:href="#DejaVuSans-20" x="1045.511719"/>
     <use xlink:href="#DejaVuSans-6d" x="1077.298828"/>
     <use xlink:href="#DejaVuSans-6f" x="1174.710938"/>
     <use xlink:href="#DejaVuSans-64" x="1235.892578"/>
     <use xlink:href="#DejaVuSans-65" x="1299.369141"/>
     <use xlink:href="#DejaVuSans-6c" x="1360.892578"/>
     <use xlink:href="#DejaVuSans-5f" x="1388.675781"/>
     <use xlink:href="#DejaVuSans-32" x="1438.675781"/>
     <use xlink:href="#DejaVuSans-30" x="1502.298828"/>
     <use xlink:href="#DejaVuSans-32" x="1565.921875"/>
     <use xlink:href="#DejaVuSans-33" x="1629.544922"/>
     <use xlink:href="#DejaVuSans-31" x="1693.167969"/>
     <use xlink:href="#DejaVuSans-31" x="1756.791016"/>
     <use xlink:href="#DejaVuSans-32" x="1820.414062"/>
     <use xlink:href="#DejaVuSans-33" x="1884.037109"/>
     <use xlink:href="#DejaVuSans-31" x="1947.660156"/>
     <use xlink:href="#DejaVuSans-36" x="2011.283203"/>
     <use xlink:href="#DejaVuSans-34" x="2074.90625"/>
     <use xlink:href="#DejaVuSans-37" x="2138.529297"/>
     <use xlink:href="#DejaVuSans-34" x="2202.152344"/>
     <use xlink:href="#DejaVuSans-35" x="2265.775391"/>
    </g>
   </g>
   <g id="legend_1">
    <g id="patch_7">
     <path d="M 79 95.234375 
L 161.517188 95.234375 
Q 163.517188 95.234375 163.517188 93.234375 
L 163.517188 50.2 
Q 163.517188 48.2 161.517188 48.2 
L 79 48.2 
Q 77 48.2 77 50.2 
L 77 93.234375 
Q 77 95.234375 79 95.234375 
z
" style="fill: #ffffff; opacity: 0.8; stroke: #cccccc; stroke-linejoin: miter"/>
    </g>
    <g id="line2d_16">
     <path d="M 81 56.298437 
L 91 56.298437 
L 101 56.298437 
" style="fill: none; stroke: #1f77b4; stroke-width: 1.5; stroke-linecap: square"/>
    </g>
    <g id="text_14">
     <!-- Measured -->
     <g transform="translate(109 59.798437) scale(0.1 -0.1)">
      <defs>
       <path id="DejaVuSans-4d" d="M 628 4666 
L 1569 4666 
L 2759 1491 
L 3956 4666 
L 4897 4666 
L 4897 0 
L 4281 0 
L 4281 4097 
L 3078 897 
L 2444 897 
L 1241 4097 
L 1241 0 
L 628 0 
L 628 4666 
z
" transform="scale(0.015625)"/>
       <path id="DejaVuSans-75" d="M 544 1381 
L 544 3500 
L 1119 3500 
L 1119 1403 
Q 1119 906 1312 657 
Q 1506 409 1894 409 
Q 2359 409 2629 706 
Q 2900 1003 2900 1516 
L 2900 3500 
L 3475 3500 
L 3475 0 
L 2900 0 
L 2900 538 
Q 2691 219 2414 64 
Q 2138 -91 1772 -91 
Q 1169 -91 856 284 
Q 544 659 544 1381 
z
M 1991 3584 
L 1991 3584 
z
" transform="scale(0.015625)"/>
      </defs>
      <use xlink:href="#DejaVuSans-4d"/>
      <use xlink:href="#DejaVuSans-65" x="86.279297"/>
      <use xlink:href="#DejaVuSans-61" x="147.802734"/>
      <use xlink:href="#DejaVuSans-73" x="209.082031"/>
      <use xlink:href="#DejaVuSans-75" x="261.181641"/>
      <use xlink:href="#DejaVuSans-72" x="324.560547"/>
      <use xlink:href="#DejaVuSans-65" x="363.423828"/>
      <use xlink:href="#DejaVuSans-64" x="424.947266"/>
     </g>
    </g>
    <g id="line2d_17">
     <path d="M 81 70.976562 
L 91 70.976562 
L 101 70.976562 
" style="fill: none; stroke: #ff7f0e; stroke-width: 1.5; stroke-linecap: square"/>
    </g>
    <g id="text_15">
     <!-- Fitted -->
     <g transform="translate(109 74.476562) scale(0.1 -0.1)">
      <defs>
       <path id="DejaVuSans-46" d="M 628 4666 
L 3309 4666 
L 3309 4134 
L 1259 4134 
L 1259 2759 
L 3109 2759 
L 3109 2228 
L 1259 2228 
L 1259 0 
L 628 0 
L 628 4666 
z
" transform="scale(0.015625)"/>
       <path id="DejaVuSans-74" d="M 1172 4494 
L 1172 3500 
L 2356 3500 
L 2356 3053 
L 1172 3053 
L 1172 1153 
Q 1172 725 1289 603 
Q 1406 481 1766 481 
L 2356 481 
L 2356 0 
L 1766 0 
Q 1100 0 847 248 
Q 594 497 594 1153 
L 594 3053 
L 172 3053 
L 172 3500 
L 594 3500 
L 594 4494 
L 1172 4494 
z
" transform="scale(0.015625)"/>
      </defs>
      <use xlink:href="#DejaVuSans-46"/>
      <use xlink:href="#DejaVuSans-69" x="50.269531"/>
      <use xlink:href="#DejaVuSans-74" x="78.052734"/>
      <use xlink:href="#DejaVuSans-74" x="117.261719"/>
      <use xlink:href="#DejaVuSans-65" x="156.470703"/>
      <use xlink:href="#DejaVuSans-64" x="217.994141"/>
     </g>
    </g>
    <g id="line2d_18">
     <path d="M 81 85.654687 
L 91 85.654687 
L 101 85.654687 
" style="fill: none; stroke: #2ca02c; stroke-width: 1.5; stroke-linecap: square"/>
    </g>
    <g id="text_16">
     <!-- Estimated -->
     <g transform="translate(109 89.154687) scale(0.1 -0.1)">
      <defs>
       <path id="DejaVuSans-45" d="M 628 4666 
L 3578 4666 
L 3578 4134 
L 1259 4134 
L 1259 2753 
L 3481 2753 
L 3481 2222 
L 1259 2222 
L 1259 531 
L 3634 531 
L 3634 0 
L 628 0 
L 628 4666 
z
" transform="scale(0.015625)"/>
      </defs>
      <use xlink:href="#DejaVuSans-45"/>
      <use xlink:href="#DejaVuSans-73" x="63.183594"/>
      <use xlink:href="#DejaVuSans-74" x="115.283203"/>
      <use xlink:href="#DejaVuSans-69" x="154.492188"/>
      <use xlink:href="#DejaVuSans-6d" x="182.275391"/>
      <use xlink:href="#DejaVuSans-61" x="279.6875"/>
      <use xlink:href="#DejaVuSans-74" x="340.966797"/>
      <use xlink:href="#DejaVuSans-65" x="380.175781"/>
      <use xlink:href="#DejaVuSans-64" x="441.699219"/>
     </g>
    </g>
   </g>
  </g>
 </g>
 <defs>
  <clipPath id="p7f3f752dbf">
   <rect x="72" y="43.2" width="446.4" height="277.2"/>
  </clipPath>
 </defs>
</svg>
