<?xml version="1.0" encoding="utf-8" standalone="no"?>
<!DOCTYPE svg PUBLIC "-//W3C//DTD SVG 1.1//EN"
  "http://www.w3.org/Graphics/SVG/1.1/DTD/svg11.dtd">
<svg xmlns:xlink="http://www.w3.org/1999/xlink" width="576pt" height="360pt" viewBox="0 0 576 360" xmlns="http://www.w3.org/2000/svg" version="1.1">
 <metadata>
  <rdf:RDF xmlns:dc="http://purl.org/dc/elements/1.1/" xmlns:cc="http://creativecommons.org/ns#" xmlns:rdf="http://www.w3.org/1999/02/22-rdf-syntax-ns#">
   <cc:Work>
    <dc:type rdf:resource="http://purl.org/dc/dcmitype/StillImage"/>
    <dc:date>2023-11-23T16:51:32.813067</dc:date>
    <dc:format>image/svg+xml</dc:format>
    <dc:creator>
     <cc:Agent>
      <dc:title>Matplotlib v3.8.1, https://matplotlib.org/</dc:title>
     </cc:Agent>
    </dc:creator>
   </cc:Work>
  </rdf:RDF>
 </metadata>
 <defs>
  <style type="text/css">*{stroke-linejoin: round; stroke-linecap: butt}</style>
 </defs>
 <g id="figure_1">
  <g id="patch_1">
   <path d="M 0 360 
L 576 360 
L 576 0 
L 0 0 
z
" style="fill: #ffffff"/>
  </g>
  <g id="axes_1">
   <g id="patch_2">
    <path d="M 72 320.4 
L 518.4 320.4 
L 518.4 43.2 
L 72 43.2 
z
" style="fill: #ffffff"/>
   </g>
   <g id="matplotlib.axis_1">
    <g id="xtick_1">
     <g id="line2d_1">
      <defs>
       <path id="m4333ae8b97" d="M 0 0 
L 0 3.5 
" style="stroke: #000000; stroke-width: 0.8"/>
      </defs>
      <g>
       <use xlink:href="#m4333ae8b97" x="129.874161" y="320.4" style="stroke: #000000; stroke-width: 0.8"/>
      </g>
     </g>
     <g id="text_1">
      <!-- 2020-05-15 -->
      <g transform="translate(100.816349 334.998438) scale(0.1 -0.1)">
       <defs>
        <path id="DejaVuSans-32" d="M 1228 531 
L 3431 531 
L 3431 0 
L 469 0 
L 469 531 
Q 828 903 1448 1529 
Q 2069 2156 2228 2338 
Q 2531 2678 2651 2914 
Q 2772 3150 2772 3378 
Q 2772 3750 2511 3984 
Q 2250 4219 1831 4219 
Q 1534 4219 1204 4116 
Q 875 4013 500 3803 
L 500 4441 
Q 881 4594 1212 4672 
Q 1544 4750 1819 4750 
Q 2544 4750 2975 4387 
Q 3406 4025 3406 3419 
Q 3406 3131 3298 2873 
Q 3191 2616 2906 2266 
Q 2828 2175 2409 1742 
Q 1991 1309 1228 531 
z
" transform="scale(0.015625)"/>
        <path id="DejaVuSans-30" d="M 2034 4250 
Q 1547 4250 1301 3770 
Q 1056 3291 1056 2328 
Q 1056 1369 1301 889 
Q 1547 409 2034 409 
Q 2525 409 2770 889 
Q 3016 1369 3016 2328 
Q 3016 3291 2770 3770 
Q 2525 4250 2034 4250 
z
M 2034 4750 
Q 2819 4750 3233 4129 
Q 3647 3509 3647 2328 
Q 3647 1150 3233 529 
Q 2819 -91 2034 -91 
Q 1250 -91 836 529 
Q 422 1150 422 2328 
Q 422 3509 836 4129 
Q 1250 4750 2034 4750 
z
" transform="scale(0.015625)"/>
        <path id="DejaVuSans-2d" d="M 313 2009 
L 1997 2009 
L 1997 1497 
L 313 1497 
L 313 2009 
z
" transform="scale(0.015625)"/>
        <path id="DejaVuSans-35" d="M 691 4666 
L 3169 4666 
L 3169 4134 
L 1269 4134 
L 1269 2991 
Q 1406 3038 1543 3061 
Q 1681 3084 1819 3084 
Q 2600 3084 3056 2656 
Q 3513 2228 3513 1497 
Q 3513 744 3044 326 
Q 2575 -91 1722 -91 
Q 1428 -91 1123 -41 
Q 819 9 494 109 
L 494 744 
Q 775 591 1075 516 
Q 1375 441 1709 441 
Q 2250 441 2565 725 
Q 2881 1009 2881 1497 
Q 2881 1984 2565 2268 
Q 2250 2553 1709 2553 
Q 1456 2553 1204 2497 
Q 953 2441 691 2322 
L 691 4666 
z
" transform="scale(0.015625)"/>
        <path id="DejaVuSans-31" d="M 794 531 
L 1825 531 
L 1825 4091 
L 703 3866 
L 703 4441 
L 1819 4666 
L 2450 4666 
L 2450 531 
L 3481 531 
L 3481 0 
L 794 0 
L 794 531 
z
" transform="scale(0.015625)"/>
       </defs>
       <use xlink:href="#DejaVuSans-32"/>
       <use xlink:href="#DejaVuSans-30" x="63.623047"/>
       <use xlink:href="#DejaVuSans-32" x="127.246094"/>
       <use xlink:href="#DejaVuSans-30" x="190.869141"/>
       <use xlink:href="#DejaVuSans-2d" x="254.492188"/>
       <use xlink:href="#DejaVuSans-30" x="290.576172"/>
       <use xlink:href="#DejaVuSans-35" x="354.199219"/>
       <use xlink:href="#DejaVuSans-2d" x="417.822266"/>
       <use xlink:href="#DejaVuSans-31" x="453.90625"/>
       <use xlink:href="#DejaVuSans-35" x="517.529297"/>
      </g>
     </g>
    </g>
    <g id="xtick_2">
     <g id="line2d_2">
      <g>
       <use xlink:href="#m4333ae8b97" x="212.435902" y="320.4" style="stroke: #000000; stroke-width: 0.8"/>
      </g>
     </g>
     <g id="text_2">
      <!-- 2020-06-01 -->
      <g transform="translate(183.37809 334.998438) scale(0.1 -0.1)">
       <defs>
        <path id="DejaVuSans-36" d="M 2113 2584 
Q 1688 2584 1439 2293 
Q 1191 2003 1191 1497 
Q 1191 994 1439 701 
Q 1688 409 2113 409 
Q 2538 409 2786 701 
Q 3034 994 3034 1497 
Q 3034 2003 2786 2293 
Q 2538 2584 2113 2584 
z
M 3366 4563 
L 3366 3988 
Q 3128 4100 2886 4159 
Q 2644 4219 2406 4219 
Q 1781 4219 1451 3797 
Q 1122 3375 1075 2522 
Q 1259 2794 1537 2939 
Q 1816 3084 2150 3084 
Q 2853 3084 3261 2657 
Q 3669 2231 3669 1497 
Q 3669 778 3244 343 
Q 2819 -91 2113 -91 
Q 1303 -91 875 529 
Q 447 1150 447 2328 
Q 447 3434 972 4092 
Q 1497 4750 2381 4750 
Q 2619 4750 2861 4703 
Q 3103 4656 3366 4563 
z
" transform="scale(0.015625)"/>
       </defs>
       <use xlink:href="#DejaVuSans-32"/>
       <use xlink:href="#DejaVuSans-30" x="63.623047"/>
       <use xlink:href="#DejaVuSans-32" x="127.246094"/>
       <use xlink:href="#DejaVuSans-30" x="190.869141"/>
       <use xlink:href="#DejaVuSans-2d" x="254.492188"/>
       <use xlink:href="#DejaVuSans-30" x="290.576172"/>
       <use xlink:href="#DejaVuSans-36" x="354.199219"/>
       <use xlink:href="#DejaVuSans-2d" x="417.822266"/>
       <use xlink:href="#DejaVuSans-30" x="453.90625"/>
       <use xlink:href="#DejaVuSans-31" x="517.529297"/>
      </g>
     </g>
    </g>
    <g id="xtick_3">
     <g id="line2d_3">
      <g>
       <use xlink:href="#m4333ae8b97" x="280.427924" y="320.4" style="stroke: #000000; stroke-width: 0.8"/>
      </g>
     </g>
     <g id="text_3">
      <!-- 2020-06-15 -->
      <g transform="translate(251.370111 334.998438) scale(0.1 -0.1)">
       <use xlink:href="#DejaVuSans-32"/>
       <use xlink:href="#DejaVuSans-30" x="63.623047"/>
       <use xlink:href="#DejaVuSans-32" x="127.246094"/>
       <use xlink:href="#DejaVuSans-30" x="190.869141"/>
       <use xlink:href="#DejaVuSans-2d" x="254.492188"/>
       <use xlink:href="#DejaVuSans-30" x="290.576172"/>
       <use xlink:href="#DejaVuSans-36" x="354.199219"/>
       <use xlink:href="#DejaVuSans-2d" x="417.822266"/>
       <use xlink:href="#DejaVuSans-31" x="453.90625"/>
       <use xlink:href="#DejaVuSans-35" x="517.529297"/>
      </g>
     </g>
    </g>
    <g id="xtick_4">
     <g id="line2d_4">
      <g>
       <use xlink:href="#m4333ae8b97" x="358.133092" y="320.4" style="stroke: #000000; stroke-width: 0.8"/>
      </g>
     </g>
     <g id="text_4">
      <!-- 2020-07-01 -->
      <g transform="translate(329.075279 334.998438) scale(0.1 -0.1)">
       <defs>
        <path id="DejaVuSans-37" d="M 525 4666 
L 3525 4666 
L 3525 4397 
L 1831 0 
L 1172 0 
L 2766 4134 
L 525 4134 
L 525 4666 
z
" transform="scale(0.015625)"/>
       </defs>
       <use xlink:href="#DejaVuSans-32"/>
       <use xlink:href="#DejaVuSans-30" x="63.623047"/>
       <use xlink:href="#DejaVuSans-32" x="127.246094"/>
       <use xlink:href="#DejaVuSans-30" x="190.869141"/>
       <use xlink:href="#DejaVuSans-2d" x="254.492188"/>
       <use xlink:href="#DejaVuSans-30" x="290.576172"/>
       <use xlink:href="#DejaVuSans-37" x="354.199219"/>
       <use xlink:href="#DejaVuSans-2d" x="417.822266"/>
       <use xlink:href="#DejaVuSans-30" x="453.90625"/>
       <use xlink:href="#DejaVuSans-31" x="517.529297"/>
      </g>
     </g>
    </g>
    <g id="xtick_5">
     <g id="line2d_5">
      <g>
       <use xlink:href="#m4333ae8b97" x="426.125113" y="320.4" style="stroke: #000000; stroke-width: 0.8"/>
      </g>
     </g>
     <g id="text_5">
      <!-- 2020-07-15 -->
      <g transform="translate(397.067301 334.998438) scale(0.1 -0.1)">
       <use xlink:href="#DejaVuSans-32"/>
       <use xlink:href="#DejaVuSans-30" x="63.623047"/>
       <use xlink:href="#DejaVuSans-32" x="127.246094"/>
       <use xlink:href="#DejaVuSans-30" x="190.869141"/>
       <use xlink:href="#DejaVuSans-2d" x="254.492188"/>
       <use xlink:href="#DejaVuSans-30" x="290.576172"/>
       <use xlink:href="#DejaVuSans-37" x="354.199219"/>
       <use xlink:href="#DejaVuSans-2d" x="417.822266"/>
       <use xlink:href="#DejaVuSans-31" x="453.90625"/>
       <use xlink:href="#DejaVuSans-35" x="517.529297"/>
      </g>
     </g>
    </g>
    <g id="xtick_6">
     <g id="line2d_6">
      <g>
       <use xlink:href="#m4333ae8b97" x="508.686854" y="320.4" style="stroke: #000000; stroke-width: 0.8"/>
      </g>
     </g>
     <g id="text_6">
      <!-- 2020-08-01 -->
      <g transform="translate(479.629042 334.998438) scale(0.1 -0.1)">
       <defs>
        <path id="DejaVuSans-38" d="M 2034 2216 
Q 1584 2216 1326 1975 
Q 1069 1734 1069 1313 
Q 1069 891 1326 650 
Q 1584 409 2034 409 
Q 2484 409 2743 651 
Q 3003 894 3003 1313 
Q 3003 1734 2745 1975 
Q 2488 2216 2034 2216 
z
M 1403 2484 
Q 997 2584 770 2862 
Q 544 3141 544 3541 
Q 544 4100 942 4425 
Q 1341 4750 2034 4750 
Q 2731 4750 3128 4425 
Q 3525 4100 3525 3541 
Q 3525 3141 3298 2862 
Q 3072 2584 2669 2484 
Q 3125 2378 3379 2068 
Q 3634 1759 3634 1313 
Q 3634 634 3220 271 
Q 2806 -91 2034 -91 
Q 1263 -91 848 271 
Q 434 634 434 1313 
Q 434 1759 690 2068 
Q 947 2378 1403 2484 
z
M 1172 3481 
Q 1172 3119 1398 2916 
Q 1625 2713 2034 2713 
Q 2441 2713 2670 2916 
Q 2900 3119 2900 3481 
Q 2900 3844 2670 4047 
Q 2441 4250 2034 4250 
Q 1625 4250 1398 4047 
Q 1172 3844 1172 3481 
z
" transform="scale(0.015625)"/>
       </defs>
       <use xlink:href="#DejaVuSans-32"/>
       <use xlink:href="#DejaVuSans-30" x="63.623047"/>
       <use xlink:href="#DejaVuSans-32" x="127.246094"/>
       <use xlink:href="#DejaVuSans-30" x="190.869141"/>
       <use xlink:href="#DejaVuSans-2d" x="254.492188"/>
       <use xlink:href="#DejaVuSans-30" x="290.576172"/>
       <use xlink:href="#DejaVuSans-38" x="354.199219"/>
       <use xlink:href="#DejaVuSans-2d" x="417.822266"/>
       <use xlink:href="#DejaVuSans-30" x="453.90625"/>
       <use xlink:href="#DejaVuSans-31" x="517.529297"/>
      </g>
     </g>
    </g>
   </g>
   <g id="matplotlib.axis_2">
    <g id="ytick_1">
     <g id="line2d_7">
      <defs>
       <path id="m7ef239b820" d="M 0 0 
L -3.5 0 
" style="stroke: #000000; stroke-width: 0.8"/>
      </defs>
      <g>
       <use xlink:href="#m7ef239b820" x="72" y="315.641928" style="stroke: #000000; stroke-width: 0.8"/>
      </g>
     </g>
     <g id="text_7">
      <!-- −2 -->
      <g transform="translate(50.257812 319.441147) scale(0.1 -0.1)">
       <defs>
        <path id="DejaVuSans-2212" d="M 678 2272 
L 4684 2272 
L 4684 1741 
L 678 1741 
L 678 2272 
z
" transform="scale(0.015625)"/>
       </defs>
       <use xlink:href="#DejaVuSans-2212"/>
       <use xlink:href="#DejaVuSans-32" x="83.789062"/>
      </g>
     </g>
    </g>
    <g id="ytick_2">
     <g id="line2d_8">
      <g>
       <use xlink:href="#m7ef239b820" x="72" y="264.38146" style="stroke: #000000; stroke-width: 0.8"/>
      </g>
     </g>
     <g id="text_8">
      <!-- −1 -->
      <g transform="translate(50.257812 268.180679) scale(0.1 -0.1)">
       <use xlink:href="#DejaVuSans-2212"/>
       <use xlink:href="#DejaVuSans-31" x="83.789062"/>
      </g>
     </g>
    </g>
    <g id="ytick_3">
     <g id="line2d_9">
      <g>
       <use xlink:href="#m7ef239b820" x="72" y="213.120992" style="stroke: #000000; stroke-width: 0.8"/>
      </g>
     </g>
     <g id="text_9">
      <!-- 0 -->
      <g transform="translate(58.6375 216.920211) scale(0.1 -0.1)">
       <use xlink:href="#DejaVuSans-30"/>
      </g>
     </g>
    </g>
    <g id="ytick_4">
     <g id="line2d_10">
      <g>
       <use xlink:href="#m7ef239b820" x="72" y="161.860524" style="stroke: #000000; stroke-width: 0.8"/>
      </g>
     </g>
     <g id="text_10">
      <!-- 1 -->
      <g transform="translate(58.6375 165.659743) scale(0.1 -0.1)">
       <use xlink:href="#DejaVuSans-31"/>
      </g>
     </g>
    </g>
    <g id="ytick_5">
     <g id="line2d_11">
      <g>
       <use xlink:href="#m7ef239b820" x="72" y="110.600056" style="stroke: #000000; stroke-width: 0.8"/>
      </g>
     </g>
     <g id="text_11">
      <!-- 2 -->
      <g transform="translate(58.6375 114.399275) scale(0.1 -0.1)">
       <use xlink:href="#DejaVuSans-32"/>
      </g>
     </g>
    </g>
    <g id="ytick_6">
     <g id="line2d_12">
      <g>
       <use xlink:href="#m7ef239b820" x="72" y="59.339588" style="stroke: #000000; stroke-width: 0.8"/>
      </g>
     </g>
     <g id="text_12">
      <!-- 3 -->
      <g transform="translate(58.6375 63.138807) scale(0.1 -0.1)">
       <defs>
        <path id="DejaVuSans-33" d="M 2597 2516 
Q 3050 2419 3304 2112 
Q 3559 1806 3559 1356 
Q 3559 666 3084 287 
Q 2609 -91 1734 -91 
Q 1441 -91 1130 -33 
Q 819 25 488 141 
L 488 750 
Q 750 597 1062 519 
Q 1375 441 1716 441 
Q 2309 441 2620 675 
Q 2931 909 2931 1356 
Q 2931 1769 2642 2001 
Q 2353 2234 1838 2234 
L 1294 2234 
L 1294 2753 
L 1863 2753 
Q 2328 2753 2575 2939 
Q 2822 3125 2822 3475 
Q 2822 3834 2567 4026 
Q 2313 4219 1838 4219 
Q 1578 4219 1281 4162 
Q 984 4106 628 3988 
L 628 4550 
Q 988 4650 1302 4700 
Q 1616 4750 1894 4750 
Q 2613 4750 3031 4423 
Q 3450 4097 3450 3541 
Q 3450 3153 3228 2886 
Q 3006 2619 2597 2516 
z
" transform="scale(0.015625)"/>
       </defs>
       <use xlink:href="#DejaVuSans-33"/>
      </g>
     </g>
    </g>
   </g>
   <g id="line2d_13">
    <path d="M 72 287.984684 
L 72.404714 298.847903 
L 72.607072 297.198303 
L 72.809429 286.97883 
L 73.214143 257.3665 
L 73.618858 245.457194 
L 75.035358 165.994759 
L 75.237715 163.158252 
L 75.440073 168.006466 
L 75.64243 175.872241 
L 75.844787 179.030622 
L 76.047144 193.635616 
L 76.654216 260.947339 
L 77.05893 284.001504 
L 77.261287 288.185855 
L 77.463645 287.823747 
L 77.666002 277.564041 
L 78.070716 250.265174 
L 78.475431 238.315633 
L 78.677788 229.564707 
L 79.487217 174.966973 
L 79.891931 159.376242 
L 80.094288 161.24713 
L 80.903717 201.883615 
L 81.713146 274.06367 
L 82.11786 288.105386 
L 82.320218 290.056742 
L 82.522575 289.775103 
L 82.724932 287.361055 
L 82.927289 280.823006 
L 83.332004 258.794812 
L 83.736718 245.074969 
L 83.939075 242.157994 
L 84.141432 242.419516 
L 84.546147 248.555223 
L 84.748504 250.56693 
L 84.950861 250.587047 
L 85.355576 254.610461 
L 85.557933 251.411847 
L 85.76029 257.286032 
L 86.569719 300.3768 
L 86.772076 306.210751 
L 86.974433 307.739649 
L 87.176791 307.8 
L 87.379148 306.512507 
L 87.581505 302.931669 
L 87.783862 296.453971 
L 88.188577 275.310929 
L 88.390934 270.342012 
L 89.200363 262.596939 
L 89.40272 258.633876 
L 89.807434 244.45134 
L 90.212149 242.097643 
L 90.414506 239.50254 
L 90.616863 247.126911 
L 91.223935 295.629171 
L 91.628649 306.210751 
L 91.831006 306.271103 
L 92.033364 303.877171 
L 92.842792 259.619612 
L 93.04515 257.567671 
L 93.449864 249.319671 
L 93.652221 248.816745 
L 93.854578 246.000355 
L 94.056936 245.396842 
L 94.259293 242.882208 
L 94.46165 236.746501 
L 94.664007 234.01058 
L 94.866364 234.895731 
L 95.068722 237.913292 
L 95.271079 234.231867 
L 95.473436 243.928296 
L 96.080508 295.991279 
L 96.485222 304.822673 
L 96.687579 306.653327 
L 96.889937 302.489093 
L 97.699365 258.915515 
L 98.306437 248.836862 
L 98.508794 248.474754 
L 99.52058 228.116277 
L 99.722937 229.323302 
L 99.925295 233.507653 
L 100.127652 231.757467 
L 100.330009 241.49413 
L 100.937081 293.617464 
L 101.341795 305.385951 
L 101.544152 306.331454 
L 101.74651 302.770732 
L 101.948867 291.304001 
L 102.353581 262.496354 
L 102.555938 261.00769 
L 103.567724 243.948413 
L 104.377153 222.745019 
L 104.57951 223.972161 
L 104.781868 229.142248 
L 104.984225 229.122131 
L 105.186582 237.65177 
L 105.793654 290.599903 
L 106.198368 302.831083 
L 106.400725 304.520917 
L 106.603083 300.658439 
L 107.412511 256.602052 
L 107.614869 254.952452 
L 107.817226 251.431964 
L 108.22194 237.490833 
L 108.626655 216.669663 
L 108.829012 210.976532 
L 109.031369 209.165996 
L 109.638441 217.494463 
L 109.840798 222.704785 
L 110.043155 232.682853 
L 110.650227 285.490167 
L 111.054941 299.169776 
L 111.257298 301.00043 
L 111.459655 299.330713 
L 111.662013 288.387025 
L 112.066727 260.32371 
L 112.471442 245.940003 
L 113.887942 180.318114 
L 114.090299 178.044885 
L 114.292656 184.582933 
L 114.495014 195.546738 
L 114.697371 199.952377 
L 115.102085 232.582267 
L 115.709157 279.937855 
L 116.113871 293.315708 
L 116.316228 293.476645 
L 116.518586 291.887396 
L 116.720943 288.407143 
L 117.125657 262.275066 
L 118.542158 161.870759 
L 118.744515 152.17433 
L 118.946872 148.452672 
L 119.149229 151.97316 
L 119.756301 188.304592 
L 120.56573 264.427593 
L 120.970444 283.438226 
L 121.172801 287.361055 
L 121.375159 288.930186 
L 121.577516 287.542108 
L 121.779873 279.937855 
L 122.589302 231.013136 
L 123.196374 206.59101 
L 123.398731 202.205489 
L 123.601088 202.406659 
L 123.803445 201.863498 
L 124.410517 214.718307 
L 124.612874 225.239536 
L 125.219946 279.233758 
L 125.62466 293.174889 
L 125.827017 295.08601 
L 126.029374 292.651845 
L 127.04116 238.557038 
L 127.648232 202.668181 
L 128.255304 162.011579 
L 128.457661 154.769433 
L 128.660018 154.447559 
L 129.26709 196.97505 
L 130.278876 284.122206 
L 130.481233 291.625874 
L 130.68359 292.953601 
L 130.885947 290.479201 
L 132.504805 185.991128 
L 133.111877 145.052887 
L 133.314234 136.020321 
L 133.516591 137.649804 
L 133.921306 152.395618 
L 134.123663 159.517062 
L 135.135449 264.930519 
L 135.540163 277.040997 
L 135.74252 276.135729 
L 135.944878 265.976607 
L 136.349592 235.841233 
L 136.551949 229.343419 
L 136.754306 217.957156 
L 136.956664 222.342678 
L 137.159021 211.499576 
L 137.766092 203.030289 
L 137.96845 203.412513 
L 138.373164 198.222308 
L 138.777879 205.464454 
L 138.980236 206.269137 
L 139.182593 217.595049 
L 139.789665 271.93126 
L 140.194379 286.677074 
L 140.396736 288.668664 
L 140.599093 285.771806 
L 141.003808 256.783105 
L 141.408522 236.464862 
L 142.015594 223.610053 
L 142.622665 214.83901 
L 142.825023 214.577488 
L 143.02738 213.410698 
L 143.229737 214.074561 
L 143.634451 219.144063 
L 143.836809 217.957156 
L 144.039166 227.734053 
L 144.646238 275.089641 
L 145.050952 286.697191 
L 145.253309 287.94445 
L 145.455666 284.926889 
L 145.860381 256.461232 
L 146.062738 240.66933 
L 146.66981 224.857312 
L 146.872167 222.282327 
L 147.074524 221.236239 
L 147.479238 210.574191 
L 147.681596 218.701488 
L 147.883953 219.64699 
L 148.08631 222.161624 
L 148.491024 231.113721 
L 148.693382 229.806111 
L 149.098096 252.518286 
L 149.502811 279.575748 
L 149.907525 292.189152 
L 150.109882 294.180742 
L 150.312239 293.617464 
L 150.514597 290.881542 
L 150.716954 285.349348 
L 151.121668 265.111573 
L 151.526383 245.235906 
L 151.931097 239.603126 
L 152.133454 239.180667 
L 152.335811 241.091789 
L 152.538169 241.594716 
L 152.740526 239.603126 
L 152.942883 239.884765 
L 153.14524 238.939262 
L 153.347597 238.979496 
L 153.549955 236.142989 
L 153.752312 238.275399 
L 154.764098 288.205972 
L 154.966455 292.048333 
L 155.168812 293.396176 
L 155.573527 289.573933 
L 155.775884 278.831416 
L 156.78767 203.211342 
L 157.799456 161.850642 
L 158.001813 163.801998 
L 158.406528 176.616573 
L 158.608885 189.773138 
L 159.215956 256.380764 
L 159.620671 277.342753 
L 159.823028 280.460899 
L 160.025385 279.575748 
L 160.227743 270.060373 
L 160.632457 238.557038 
L 161.8466 189.732904 
L 162.251315 179.976124 
L 162.453672 180.116943 
L 162.656029 182.893099 
L 163.465458 213.772805 
L 164.072529 271.870909 
L 164.477244 289.93604 
L 164.679601 290.257913 
L 164.881958 287.11965 
L 165.084316 277.262285 
L 165.48903 246.422813 
L 166.500816 212.36461 
L 167.310245 170.702154 
L 167.512602 173.961119 
L 167.917316 193.937372 
L 168.119674 198.262542 
L 168.322031 209.286698 
L 168.929102 266.962344 
L 169.333817 281.708157 
L 169.536174 285.12806 
L 169.738531 281.567338 
L 170.143246 255.073154 
L 170.54796 225.641878 
L 171.357389 182.370055 
L 171.559746 176.515988 
L 172.166818 153.019247 
L 172.369175 154.588379 
L 172.571532 162.2731 
L 173.178604 200.113313 
L 173.785675 269.134987 
L 174.19039 287.964567 
L 174.392747 290.861425 
L 174.595104 289.091123 
L 174.999819 265.594383 
L 175.404533 241.313077 
L 177.023391 165.330895 
L 177.225748 165.833822 
L 177.428105 169.635949 
L 177.630462 185.749724 
L 177.83282 188.123538 
L 178.237534 230.972902 
L 178.642248 272.655475 
L 179.046963 291.304001 
L 179.24932 294.925074 
L 179.451677 292.470791 
L 179.654034 284.021621 
L 180.261106 245.296257 
L 181.879964 151.067891 
L 182.082321 147.889394 
L 182.284678 153.401472 
L 183.094107 208.160142 
L 183.498821 246.080823 
L 183.903536 266.942227 
L 184.30825 274.566597 
L 184.510607 275.894324 
L 184.712965 272.353719 
L 184.915322 259.337973 
L 185.724751 179.573782 
L 186.129465 158.77273 
L 186.331822 152.878428 
L 186.53418 152.134096 
L 186.736537 154.608496 
L 187.748323 193.957489 
L 188.557752 256.420998 
L 188.962466 270.221309 
L 189.164823 272.212899 
L 189.36718 272.293368 
L 189.569538 271.569153 
L 189.771895 261.068042 
L 190.986038 167.624242 
L 191.188395 162.454154 
L 191.390752 162.41392 
L 191.795467 171.325783 
L 192.604896 201.823264 
L 193.414325 263.522324 
L 193.819039 276.88006 
L 194.021396 277.926148 
L 194.426111 274.06367 
L 194.628468 265.332861 
L 195.437897 205.967381 
L 195.640254 201.078933 
L 195.842611 202.26584 
L 196.247325 208.180259 
L 196.449683 208.743537 
L 196.65204 208.361313 
L 197.056754 216.367907 
L 197.259112 217.192707 
L 197.461469 225.400473 
L 198.06854 272.55489 
L 198.473255 286.395435 
L 198.675612 286.496021 
L 198.877969 282.935299 
L 199.282684 252.90051 
L 199.687398 230.630911 
L 201.306256 165.833822 
L 201.508613 164.707266 
L 202.115684 183.43626 
L 202.318042 194.319596 
L 202.925113 256.843456 
L 203.329828 274.06367 
L 203.532185 276.115611 
L 203.734542 273.198636 
L 203.936899 261.953193 
L 204.341614 228.780141 
L 205.758114 175.429666 
L 205.960471 172.9955 
L 206.162829 173.136319 
L 206.365186 174.524397 
L 206.7699 186.091714 
L 206.972257 189.20986 
L 207.174615 199.79144 
L 207.781686 257.426851 
L 208.186401 273.198636 
L 208.388758 276.175963 
L 208.591115 272.916997 
L 208.793472 261.329563 
L 209.198187 228.337565 
L 209.805258 206.59101 
L 210.209973 187.178036 
L 210.817044 146.481199 
L 211.019402 138.192965 
L 211.221759 141.089824 
L 211.626473 164.988905 
L 211.82883 170.078524 
L 212.031188 184.462231 
L 212.638259 247.971828 
L 213.042974 266.117427 
L 213.245331 270.020139 
L 213.447688 268.350422 
L 213.650045 257.889544 
L 214.257117 215.643693 
L 214.661831 189.913958 
L 215.47126 131.956673 
L 215.875975 115.62161 
L 216.078332 115.158918 
L 216.280689 120.57041 
L 217.090118 182.852865 
L 217.697189 243.324784 
L 218.101904 261.349681 
L 218.304261 264.628763 
L 218.506618 265.95649 
L 218.708976 264.729349 
L 218.911333 252.296998 
L 219.518404 198.785586 
L 220.125476 164.40551 
L 220.327833 162.293218 
L 220.53019 164.465861 
L 221.541976 205.786327 
L 221.744334 210.815595 
L 222.553762 266.378949 
L 222.958477 277.000763 
L 223.160834 278.67048 
L 223.363191 279.01247 
L 223.565549 277.483572 
L 223.767906 268.974051 
L 224.374977 231.656882 
L 224.779692 224.2538 
L 225.386763 226.265507 
L 225.589121 229.705526 
L 225.791478 230.57056 
L 226.196192 238.758209 
L 226.398549 238.416218 
L 226.600907 244.692745 
L 227.410335 297.057484 
L 227.612693 301.00043 
L 227.81505 302.65003 
L 228.017407 299.531883 
L 228.826836 257.929778 
L 229.029193 255.656549 
L 229.23155 250.043886 
L 230.648051 188.103421 
L 230.850408 188.666699 
L 231.255122 202.74865 
L 231.45748 213.390581 
L 232.064551 275.592568 
L 232.469266 292.370206 
L 232.671623 295.025659 
L 232.87398 293.838752 
L 233.278694 269.134987 
L 233.683409 247.126911 
L 235.302267 184.039772 
L 235.504624 183.456377 
L 236.111695 202.12502 
L 236.314053 212.243908 
L 236.921124 272.937114 
L 237.325839 288.447377 
L 237.528196 291.505172 
L 237.730553 289.433113 
L 238.135267 266.036958 
L 238.539982 244.753096 
L 239.349411 214.537254 
L 239.754125 204.760357 
L 240.15884 194.782289 
L 240.361197 194.540884 
L 240.563554 199.871908 
L 240.968268 217.072005 
L 241.170626 224.475087 
L 241.777697 278.730831 
L 242.182412 294.220976 
L 242.384769 296.655142 
L 242.587126 293.738167 
L 242.99184 269.59768 
L 243.396555 252.055593 
L 245.21777 179.131207 
L 245.420127 183.275324 
L 246.027199 209.447635 
L 246.836627 281.225348 
L 247.038985 289.392879 
L 247.241342 292.490908 
L 247.443699 290.016508 
L 247.848413 267.002578 
L 249.467271 157.60594 
L 249.669628 149.720047 
L 249.871985 147.829043 
L 250.074343 147.989979 
L 250.2767 154.769433 
L 250.883772 186.131948 
L 251.6932 259.35809 
L 252.097915 273.540626 
L 252.300272 276.53807 
L 252.502629 276.799592 
L 252.704986 273.017582 
L 253.109701 241.031438 
L 253.91913 169.535364 
L 254.323844 154.105569 
L 254.728558 145.495462 
L 254.930916 144.268321 
L 255.133273 151.590935 
L 255.740345 188.183889 
L 256.549773 261.63132 
L 256.954488 276.739241 
L 257.156845 280.460899 
L 257.359202 282.090382 
L 257.561559 281.144879 
L 257.966274 252.940744 
L 258.573345 203.734386 
L 258.97806 182.571226 
L 259.382774 171.808593 
L 259.585131 168.449042 
L 259.787489 168.026583 
L 259.989846 170.581451 
L 260.39456 186.192299 
L 260.596917 199.228162 
L 261.203989 259.760432 
L 261.608704 278.026733 
L 261.811061 280.883358 
L 262.013418 280.118909 
L 262.418132 256.722754 
L 262.62049 244.994501 
L 263.025204 235.559594 
L 263.227561 232.823672 
L 263.429918 231.837936 
L 263.834633 233.085194 
L 264.03699 232.783438 
L 264.239347 233.708823 
L 264.441704 233.789292 
L 264.644062 233.52777 
L 264.846419 235.51936 
L 265.048776 239.462306 
L 265.251133 239.462306 
L 265.45349 243.385135 
L 266.060562 284.846421 
L 266.465277 297.379357 
L 266.667634 298.888137 
L 266.869991 294.804371 
L 267.072348 287.039182 
L 267.477063 261.168627 
L 268.084134 239.522657 
L 268.488849 229.484238 
L 269.09592 218.500317 
L 269.500635 214.637839 
L 269.702992 216.770249 
L 269.905349 220.290736 
L 270.107706 220.9546 
L 270.310063 227.110424 
L 270.917135 274.808002 
L 271.32185 286.496021 
L 271.524207 288.588196 
L 271.726564 286.918479 
L 274.15485 148.694077 
L 274.357208 141.693336 
L 274.559565 144.952301 
L 275.166636 169.515246 
L 275.976065 249.158735 
L 276.38078 261.430149 
L 276.583137 260.746168 
L 276.987851 239.422072 
L 277.392566 211.19782 
L 278.404352 155.594233 
L 278.606709 152.616906 
L 279.011423 139.701746 
L 279.213781 138.132614 
L 279.416138 142.296848 
L 280.023209 183.033919 
L 280.630281 252.69934 
L 281.034995 274.948821 
L 281.237353 279.716567 
L 281.43971 278.207787 
L 281.642067 272.454304 
L 282.249139 231.676999 
L 282.85621 198.82582 
L 283.867996 157.042662 
L 284.070354 155.875872 
L 284.272711 163.842232 
L 285.284497 244.974384 
L 285.689211 276.39725 
L 286.093926 290.801074 
L 286.296283 293.034069 
L 286.49864 291.263767 
L 286.700997 288.387025 
L 287.105712 258.090715 
L 287.712783 207.737683 
L 288.522212 165.310778 
L 288.724569 158.350271 
L 288.926927 156.459267 
L 289.129284 159.959637 
L 289.736355 192.99187 
L 290.545784 261.450266 
L 290.950499 276.377133 
L 291.152856 279.092938 
L 291.355213 279.173406 
L 291.55757 277.724977 
L 291.759927 265.534032 
L 292.771714 169.133022 
L 293.176428 147.647989 
L 293.581142 136.664068 
L 293.7835 134.974234 
L 293.985857 138.414253 
L 294.592928 163.359422 
L 295.402357 244.732979 
L 295.807072 259.096568 
L 296.009429 258.935632 
L 296.414143 239.100199 
L 297.830644 107.051738 
L 298.235358 94.035992 
L 298.437715 91.501241 
L 298.640073 91.762763 
L 298.84243 93.77447 
L 299.044787 101.640245 
L 299.449501 128.033844 
L 300.056573 205.343752 
L 300.461287 230.047516 
L 300.663645 235.941818 
L 300.866002 236.645916 
L 301.068359 229.967048 
L 301.473073 200.555889 
L 302.484859 97.496128 
L 302.687217 86.411622 
L 302.889574 86.512207 
L 303.091931 94.438333 
L 303.496646 102.907621 
L 303.90136 124.69441 
L 304.306074 152.053628 
L 304.913146 219.828044 
L 305.31786 244.652511 
L 305.520218 250.104237 
L 305.722575 248.354052 
L 305.924932 241.373428 
L 306.532004 202.245723 
L 307.54379 133.686741 
L 307.746147 123.688556 
L 307.948504 122.823522 
L 308.757933 154.427442 
L 309.162647 179.956007 
L 309.769719 241.655067 
L 310.174433 261.128393 
L 310.376791 265.433446 
L 310.579148 264.870168 
L 310.983862 241.936706 
L 312.198005 140.043736 
L 312.60272 128.657473 
L 312.805077 124.372537 
L 313.007434 124.915698 
L 313.209791 128.536771 
L 313.816863 155.553998 
L 314.01922 168.951968 
L 314.626292 230.248687 
L 315.031006 250.325525 
L 315.233364 254.811632 
L 315.435721 254.167886 
L 315.840435 235.780882 
L 316.24515 217.454229 
L 316.649864 205.685742 
L 317.054578 190.698523 
L 317.66165 183.335675 
L 317.864007 182.893099 
L 318.066364 182.007948 
L 318.268722 186.594641 
L 318.875793 208.280844 
L 319.685222 265.674851 
L 320.089937 278.18767 
L 320.292294 279.797036 
L 320.697008 272.031846 
L 321.101723 246.342345 
L 322.315866 170.018173 
L 322.72058 159.979754 
L 322.922937 157.706525 
L 323.125295 161.750057 
L 323.732366 188.807519 
L 324.541795 255.938188 
L 324.94651 269.93967 
L 325.148867 272.776177 
L 325.351224 272.836529 
L 325.553581 270.623651 
L 325.755938 258.553408 
L 326.970082 148.452672 
L 327.172439 142.256614 
L 327.374796 140.707599 
L 327.77951 135.255873 
L 327.981868 140.144321 
L 328.184225 148.754428 
L 328.791296 199.348864 
L 329.196011 242.178111 
L 329.398368 257.104978 
L 329.803083 267.002578 
L 330.00544 266.077192 
L 330.207797 260.585232 
L 330.814869 213.068708 
L 331.42194 175.630836 
L 331.826655 153.421589 
L 332.029012 150.585082 
L 332.231369 150.605199 
L 332.433726 150.786252 
L 332.636083 152.838194 
L 332.838441 157.284067 
L 333.243155 179.734719 
L 333.445512 188.566114 
L 334.052584 252.940744 
L 334.457298 274.284958 
L 334.659655 279.595865 
L 334.862013 277.242167 
L 335.266727 257.809076 
L 335.671442 233.950228 
L 336.48087 194.661587 
L 336.683228 189.69267 
L 336.885585 188.606348 
L 337.087942 182.551109 
L 337.290299 180.740573 
L 337.695014 187.07745 
L 338.099728 201.239869 
L 338.302085 206.993352 
L 339.111514 271.468568 
L 339.313871 277.543924 
L 339.516228 279.736684 
L 339.718586 275.753504 
L 340.1233 252.880393 
L 340.932729 209.326932 
L 342.349229 148.834896 
L 342.551587 148.754428 
L 343.158658 172.935149 
L 343.76573 234.412921 
L 344.170444 252.055593 
L 344.372801 256.722754 
L 344.575159 254.630578 
L 344.777516 247.851125 
L 345.18223 217.595049 
L 346.194016 136.643951 
L 346.598731 122.179776 
L 347.003445 115.702079 
L 347.205802 114.877279 
L 347.40816 117.995425 
L 347.610517 125.680146 
L 348.015231 151.248945 
L 348.82466 240.508394 
L 349.229374 257.265915 
L 349.431732 256.521583 
L 349.634089 250.848569 
L 349.836446 239.945116 
L 351.050589 137.649804 
L 351.455304 119.665142 
L 351.860018 110.994684 
L 352.062375 110.109533 
L 352.264733 113.670254 
L 352.46709 124.533473 
L 353.276519 205.927147 
L 353.681233 243.083379 
L 354.085947 262.858461 
L 354.288305 268.028548 
L 354.490662 268.591826 
L 354.693019 266.399066 
L 355.097733 225.219419 
L 355.704805 152.898545 
L 356.109519 128.697707 
L 356.716591 110.873981 
L 356.918948 109.807776 
L 357.121306 114.515171 
L 357.52602 139.621277 
L 357.728377 152.053628 
L 358.740163 245.598013 
L 359.144878 258.312003 
L 359.347235 260.142656 
L 359.549592 259.820783 
L 359.751949 246.10094 
L 360.763735 127.913141 
L 361.16845 109.224381 
L 361.573164 98.341045 
L 361.775521 96.087933 
L 361.977879 99.306665 
L 362.180236 106.166586 
L 362.58495 131.433629 
L 363.394379 218.399732 
L 363.799093 235.700414 
L 364.001451 236.505097 
L 364.203808 230.731497 
L 364.406165 220.874131 
L 365.013237 152.677257 
L 365.620308 89.388948 
L 366.025023 73.536695 
L 366.429737 67.481457 
L 366.632094 67.964267 
L 366.834451 70.559369 
L 367.036809 79.109124 
L 367.441523 107.735718 
L 368.048595 185.830192 
L 368.453309 215.764395 
L 368.655666 224.133097 
L 368.858024 226.466678 
L 369.060381 222.644434 
L 369.262738 212.968122 
L 369.86981 150.645433 
L 370.476881 93.573299 
L 370.881596 77.258354 
L 371.083953 76.815778 
L 371.28631 77.519876 
L 371.488667 81.382354 
L 371.691024 87.497944 
L 372.298096 125.760615 
L 373.107525 209.20623 
L 373.512239 231.033253 
L 373.714597 235.318189 
L 374.119311 234.634209 
L 374.321668 222.12139 
L 375.333454 120.168069 
L 375.738169 107.152323 
L 375.940526 104.496869 
L 376.142883 103.410548 
L 376.34524 108.500167 
L 376.749955 134.270136 
L 377.559383 192.126835 
L 377.964098 226.164921 
L 378.368812 239.723828 
L 378.57117 239.945116 
L 378.773527 234.111165 
L 378.975884 223.087009 
L 380.392384 108.48005 
L 380.797099 98.72327 
L 381.201813 91.259836 
L 381.40417 94.961377 
L 382.011242 131.353161 
L 382.820671 212.807186 
L 383.225385 228.639321 
L 383.427743 229.283068 
L 383.6301 224.032512 
L 384.034814 202.165254 
L 385.0466 129.965083 
L 385.451315 113.549552 
L 385.653672 113.086859 
L 385.856029 116.808518 
L 386.058386 124.312185 
L 387.070172 193.132689 
L 387.474887 232.582267 
L 387.879601 254.107535 
L 388.284316 263.099866 
L 388.68903 265.574266 
L 388.891387 259.921368 
L 389.700816 217.092122 
L 390.307888 206.067966 
L 390.914959 193.535031 
L 391.117316 198.242425 
L 391.926745 237.16896 
L 392.533817 280.641953 
L 392.938531 292.812781 
L 393.140888 294.643435 
L 393.343246 294.200859 
L 393.545603 294.663552 
L 393.74796 285.852274 
L 394.355032 245.356608 
L 395.569175 189.793255 
L 395.771532 183.878836 
L 395.973889 185.065743 
L 396.176247 193.253392 
L 396.783318 234.614092 
L 397.188033 272.514656 
L 397.592747 290.056742 
L 397.795104 292.792664 
L 397.997461 290.298147 
L 398.402176 272.454304 
L 400.628105 146.88354 
L 400.830462 149.679813 
L 401.03282 159.476827 
L 401.639891 215.603459 
L 402.044606 259.237388 
L 402.44932 279.233758 
L 402.651677 283.176704 
L 402.854034 281.547221 
L 403.258749 263.643027 
L 403.663463 235.680297 
L 404.877607 131.333044 
L 405.282321 111.135503 
L 405.484678 106.991386 
L 405.687035 108.057591 
L 405.889393 118.397766 
L 406.294107 155.171774 
L 406.901179 231.355126 
L 407.305893 255.03292 
L 407.50825 260.544998 
L 407.710607 260.021954 
L 408.115322 239.120316 
L 409.73418 108.942742 
L 409.936537 104.094528 
L 410.138894 103.953708 
L 410.341251 108.48005 
L 410.948323 144.006799 
L 411.15068 159.657881 
L 411.757752 229.122131 
L 412.162466 252.799925 
L 412.364823 259.177037 
L 412.56718 260.927222 
L 412.971895 243.163847 
L 414.388395 146.642135 
L 414.79311 133.324634 
L 415.197824 126.766468 
L 415.400181 133.425219 
L 416.20961 194.963343 
L 416.614325 239.462306 
L 417.019039 262.154363 
L 417.221396 266.338714 
L 417.423753 265.795553 
L 417.828468 249.903067 
L 419.244968 153.763579 
L 419.649683 140.385726 
L 419.85204 136.623834 
L 420.054397 138.032029 
L 420.256754 146.54155 
L 421.066183 210.694893 
L 421.673255 264.809817 
L 422.077969 280.601719 
L 422.280326 283.035884 
L 422.482684 282.392138 
L 422.685041 282.231201 
L 423.089755 252.035476 
L 423.899184 184.240943 
L 424.708613 145.656399 
L 424.91097 142.538253 
L 425.113327 146.461082 
L 425.518042 172.090232 
L 425.720399 183.657548 
L 426.529828 256.823339 
L 426.934542 275.02929 
L 427.136899 279.414811 
L 427.339257 280.199377 
L 427.541614 280.420665 
L 427.743971 271.991612 
L 428.148685 232.441448 
L 428.755757 171.788476 
L 429.160471 146.662253 
L 429.565186 138.57519 
L 429.9699 142.41755 
L 430.374615 158.310037 
L 430.576972 169.716417 
L 431.386401 244.169701 
L 431.791115 256.159476 
L 431.993472 254.167886 
L 432.398187 234.272101 
L 433.207616 170.500983 
L 434.017044 101.559777 
L 434.219402 96.771914 
L 435.02883 123.628205 
L 435.433545 148.110682 
L 436.040617 217.856571 
L 436.445331 239.924999 
L 436.647688 244.954267 
L 436.850045 244.290403 
L 437.25476 224.11298 
L 437.659474 189.913958 
L 438.468903 117.955191 
L 438.67126 108.419698 
L 438.873617 109.365201 
L 439.075975 116.325708 
L 439.278332 115.883132 
L 439.480689 118.075893 
L 439.885403 136.241609 
L 440.290118 160.482681 
L 440.897189 232.381097 
L 441.301904 254.228237 
L 441.504261 259.539144 
L 441.706618 260.062188 
L 442.111333 245.638247 
L 442.920762 194.701821 
L 443.527833 160.563149 
L 444.134905 138.293551 
L 444.337262 135.758799 
L 444.539619 142.035326 
L 445.146691 186.152065 
L 445.753762 253.886247 
L 446.158477 274.647065 
L 446.360834 279.49528 
L 446.563191 277.543924 
L 446.967906 259.036217 
L 448.586763 151.550701 
L 448.991478 138.635541 
L 449.193835 136.362312 
L 449.396192 142.880243 
L 450.003264 182.41029 
L 450.812693 260.766285 
L 451.217407 273.782031 
L 451.419764 273.902734 
L 451.824479 257.084861 
L 452.43155 207.737683 
L 453.038622 166.718973 
L 453.443336 150.041921 
L 453.848051 142.337082 
L 454.050408 145.636282 
L 454.252765 155.413179 
L 454.65748 183.214973 
L 454.859837 191.483089 
L 455.669266 254.831749 
L 456.07398 268.0889 
L 456.276337 269.577563 
L 456.478694 267.626207 
L 456.681052 264.588529 
L 456.883409 256.762988 
L 457.288123 230.329155 
L 457.692838 219.606756 
L 457.895195 220.290736 
L 458.299909 225.923517 
L 458.502267 225.782697 
L 458.906981 222.040922 
L 459.109338 222.563966 
L 459.514053 226.627614 
L 459.71641 230.832082 
L 460.728196 287.300704 
L 461.13291 291.625874 
L 461.537625 288.387025 
L 461.739982 279.656216 
L 462.144696 245.899769 
L 463.561197 178.225939 
L 463.763554 171.124612 
L 463.965911 172.271285 
L 464.572983 191.322153 
L 465.382412 256.843456 
L 465.584769 263.602793 
L 465.787126 266.258246 
L 465.989483 263.884432 
L 467.608341 173.357607 
L 468.620127 152.637023 
L 468.822484 155.694818 
L 469.429556 181.364202 
L 470.036627 236.847087 
L 470.441342 254.248354 
L 470.643699 256.823339 
L 470.846056 254.308705 
L 471.857842 204.498835 
L 472.869628 174.906622 
L 473.071985 175.389431 
L 473.274343 173.639246 
L 473.4767 174.866388 
L 473.679057 178.567929 
L 473.881414 185.005392 
L 474.083772 186.131948 
L 474.286129 193.635616 
L 474.8932 244.612277 
L 475.297915 260.504764 
L 475.500272 262.134246 
L 475.702629 260.142656 
L 476.107344 236.303926 
L 476.512058 214.778659 
L 477.321487 183.979421 
L 477.726201 164.264691 
L 477.928558 160.784437 
L 478.333273 165.37113 
L 478.53563 169.736534 
L 479.142702 194.118426 
L 479.952131 260.404178 
L 480.356845 270.040256 
L 480.559202 269.637914 
L 480.963917 248.032179 
L 482.785131 122.461415 
L 482.987489 116.687815 
L 483.189846 114.11283 
L 483.392203 119.624908 
L 483.999275 158.611793 
L 484.606346 228.156512 
L 485.011061 250.868686 
L 485.213418 255.173739 
L 485.415775 256.099125 
L 485.82049 236.766618 
L 486.225204 206.24902 
L 487.23699 118.256947 
L 487.439347 115.239386 
L 487.844062 121.656732 
L 488.248776 139.862682 
L 489.260562 215.683927 
L 489.665277 247.126911 
L 490.069991 261.892841 
L 490.272348 264.186188 
L 490.474705 263.079749 
L 490.677063 261.349681 
L 490.87942 251.834305 
L 491.891206 173.880651 
L 492.29592 156.559852 
L 492.498277 149.337823 
L 492.700635 147.36635 
L 492.902992 148.955599 
L 493.105349 153.662994 
L 493.712421 186.433704 
L 494.52185 256.823339 
L 495.128921 274.687299 
L 495.331278 274.828119 
L 495.533636 274.224607 
L 495.735993 266.841641 
L 496.950136 177.381022 
L 497.557208 153.562408 
L 497.759565 150.283326 
L 497.961922 153.421589 
L 498.568994 184.220826 
L 499.378422 256.380764 
L 499.58078 263.059632 
L 499.783137 265.493797 
L 499.985494 262.254949 
L 500.187851 253.926481 
L 500.794923 217.836454 
L 500.99728 212.84742 
L 501.401995 200.052962 
L 501.806709 189.048923 
L 502.009066 188.606348 
L 502.211423 190.618055 
L 502.413781 191.241684 
L 502.616138 189.612201 
L 503.020852 199.107459 
L 503.223209 199.65062 
L 503.425567 206.993352 
L 504.032638 256.5417 
L 504.437353 269.316041 
L 504.63971 270.90529 
L 504.842067 268.591826 
L 505.246782 244.773213 
L 505.651496 221.497761 
L 507.270354 150.001686 
L 507.472711 146.964009 
L 507.675068 150.283326 
L 508.28214 177.682778 
L 508.889211 234.392804 
L 509.293926 251.130208 
L 509.496283 254.570227 
L 509.69864 252.779808 
L 510.103354 229.765877 
L 511.722212 125.800849 
L 512.126927 108.439816 
L 512.329284 109.98883 
L 512.936355 143.584341 
L 513.34107 181.645841 
L 513.745784 224.133097 
L 514.150499 246.342345 
L 514.352856 251.794071 
L 514.555213 252.276881 
L 514.75757 243.586306 
L 516.174071 149.01595 
L 516.376428 147.949745 
L 516.781142 157.062779 
L 516.9835 154.387208 
L 517.185857 154.910252 
L 517.590571 172.210934 
L 517.792928 176.355051 
L 517.995286 186.815928 
L 518.4 225.581526 
L 518.4 225.581526 
" clip-path="url(#p8f42d8d6b9)" style="fill: none; stroke: #1f77b4; stroke-width: 1.5; stroke-linecap: square"/>
   </g>
   <g id="line2d_14">
    <path d="M 72 277.131944 
L 72.202357 277.131944 
L 72.809429 285.072603 
L 73.011786 281.601535 
L 73.821215 243.575178 
L 74.225929 226.719487 
L 74.833001 187.5099 
L 75.035358 178.454448 
L 75.237715 174.505277 
L 75.440073 174.081113 
L 75.64243 180.79884 
L 76.249501 212.60655 
L 76.856573 263.889311 
L 77.261287 283.044741 
L 77.463645 285.319483 
L 77.868359 261.969988 
L 78.273073 238.917719 
L 78.475431 233.348759 
L 79.082502 205.506531 
L 79.689574 171.303154 
L 79.891931 163.13116 
L 80.094288 162.140117 
L 80.296646 168.691675 
L 82.11786 281.367494 
L 82.320218 284.099617 
L 82.522575 279.991115 
L 83.332004 252.513025 
L 83.736718 232.186998 
L 83.939075 226.235788 
L 84.141432 224.257707 
L 84.34379 226.1526 
L 85.355576 249.424574 
L 85.76029 253.611312 
L 86.367362 285.624212 
L 86.772076 301.818639 
L 86.974433 305.692673 
L 87.176791 304.913495 
L 87.783862 288.817628 
L 88.188577 272.716762 
L 88.593291 256.170886 
L 88.795648 252.810721 
L 88.998005 253.266942 
L 89.200363 256.312631 
L 89.40272 255.711079 
L 89.807434 246.061088 
L 90.009791 238.884064 
L 90.212149 235.894609 
L 90.414506 236.478599 
L 90.616863 238.165336 
L 90.81922 246.903643 
L 91.426292 297.469515 
L 91.628649 305.295635 
L 91.831006 306.952216 
L 92.033364 301.678184 
L 92.438078 282.233164 
L 93.04515 246.73327 
L 93.247507 242.457404 
L 93.449864 242.943858 
L 93.652221 244.279534 
L 93.854578 243.70592 
L 94.259293 235.865751 
L 94.46165 233.28185 
L 94.664007 232.429386 
L 94.866364 232.069751 
L 95.068722 230.819286 
L 95.271079 233.628171 
L 95.473436 239.3071 
L 95.87815 267.518626 
L 96.282865 294.521268 
L 96.485222 298.274505 
L 96.687579 296.409738 
L 96.889937 292.834848 
L 97.294651 271.228392 
L 97.699365 251.4359 
L 98.10408 243.885691 
L 98.306437 242.745562 
L 98.508794 243.728554 
L 98.711151 241.857178 
L 99.115866 234.186329 
L 99.52058 227.280829 
L 99.722937 227.873193 
L 99.925295 228.055733 
L 100.330009 238.029531 
L 100.734723 269.589911 
L 101.139438 293.037633 
L 101.341795 296.150368 
L 101.544152 297.019961 
L 101.74651 294.992606 
L 102.151224 272.676939 
L 102.555938 251.90832 
L 102.960653 243.740326 
L 103.16301 242.79596 
L 103.365367 244.986358 
L 103.567724 241.691712 
L 104.174796 225.824616 
L 104.377153 222.222922 
L 104.57951 223.601177 
L 104.781868 223.965834 
L 104.984225 228.908927 
L 105.186582 236.799314 
L 106.198368 294.072447 
L 106.400725 295.315075 
L 106.603083 294.7809 
L 107.007797 272.339798 
L 107.412511 251.213433 
L 107.817226 241.698856 
L 108.019583 239.846869 
L 108.22194 239.468946 
L 108.424297 232.44857 
L 108.829012 211.653324 
L 109.031369 206.004442 
L 109.233726 207.066086 
L 110.043155 234.296218 
L 110.447869 260.900587 
L 110.852584 285.231617 
L 111.054941 290.301587 
L 111.257298 292.354558 
L 111.459655 291.351268 
L 111.662013 284.698187 
L 112.471442 241.150186 
L 113.078513 218.141326 
L 113.483228 199.50288 
L 114.090299 183.084776 
L 114.292656 183.00395 
L 115.102085 231.137099 
L 115.709157 273.599737 
L 116.113871 285.496535 
L 116.316228 287.996646 
L 117.328015 250.555455 
L 118.339801 180.609414 
L 118.946872 153.93772 
L 119.149229 152.673215 
L 119.351587 158.976953 
L 119.958658 208.01777 
L 120.363373 247.080026 
L 121.172801 284.509677 
L 121.375159 283.291003 
L 121.577516 279.414116 
L 121.98223 263.031326 
L 122.589302 223.343194 
L 123.196374 200.108459 
L 123.398731 198.167207 
L 123.601088 197.686935 
L 123.803445 199.678407 
L 124.005802 203.296934 
L 124.815231 236.719511 
L 125.62466 295.731649 
L 125.827017 298.936632 
L 126.029374 296.050971 
L 126.231732 288.930303 
L 126.636446 262.665523 
L 127.04116 231.71319 
L 127.648232 205.149026 
L 128.457661 162.163992 
L 128.660018 159.662955 
L 128.862375 162.015642 
L 129.26709 194.092384 
L 130.076519 270.890854 
L 130.278876 282.694285 
L 130.481233 287.518671 
L 130.68359 288.013004 
L 130.885947 283.46984 
L 131.290662 263.626532 
L 132.707162 173.332476 
L 133.314234 146.244233 
L 133.516591 142.497864 
L 133.718948 147.738555 
L 134.528377 204.403597 
L 134.933092 246.231424 
L 135.337806 271.228098 
L 135.540163 278.169276 
L 135.74252 278.849803 
L 135.944878 271.184645 
L 136.956664 205.975804 
L 137.361378 198.553368 
L 137.766092 190.119191 
L 138.170807 196.558415 
L 138.575521 203.73146 
L 138.980236 211.372726 
L 139.182593 218.711145 
L 139.789665 269.731338 
L 139.992022 279.961331 
L 140.396736 284.785491 
L 140.599093 282.589896 
L 140.801451 274.709225 
L 141.408522 237.448667 
L 141.813237 221.61944 
L 142.015594 216.381563 
L 142.217951 215.221133 
L 142.420308 212.989426 
L 142.622665 206.574356 
L 142.825023 207.095027 
L 143.229737 209.179793 
L 143.432094 215.758693 
L 143.634451 218.055948 
L 144.039166 226.200596 
L 144.241523 235.850435 
L 144.646238 268.787683 
L 144.848595 279.229792 
L 145.050952 282.27091 
L 145.253309 281.672407 
L 145.455666 278.331852 
L 145.860381 258.03419 
L 146.265095 231.142042 
L 146.872167 213.940185 
L 147.074524 213.993387 
L 147.276881 217.866465 
L 147.681596 207.45499 
L 148.895739 236.182476 
L 149.300453 259.182557 
L 149.705168 281.003552 
L 149.907525 283.302492 
L 150.109882 283.80384 
L 150.514597 275.91418 
L 150.919311 259.455315 
L 151.121668 256.08936 
L 151.931097 232.212097 
L 152.133454 229.384435 
L 153.14524 238.764782 
L 153.347597 237.197293 
L 153.549955 239.085684 
L 153.752312 239.377853 
L 153.954669 245.717008 
L 154.561741 276.391947 
L 154.966455 286.520564 
L 155.168812 288.17085 
L 155.775884 272.770671 
L 155.978241 265.543628 
L 156.990027 200.114701 
L 158.001813 163.033853 
L 158.20417 166.811429 
L 158.608885 192.152864 
L 159.620671 277.971068 
L 159.823028 283.110248 
L 160.025385 278.99217 
L 160.4301 259.716441 
L 161.037171 217.635033 
L 161.8466 182.925622 
L 162.048957 178.73996 
L 162.251315 177.325889 
L 162.453672 177.979993 
L 162.858386 190.689401 
L 163.667815 227.31342 
L 164.274887 278.056429 
L 164.477244 285.45566 
L 164.679601 286.972012 
L 164.881958 283.381076 
L 165.286673 260.951578 
L 165.893744 224.215136 
L 166.298459 214.933601 
L 166.500816 211.938337 
L 166.703173 206.33626 
L 167.107888 184.501651 
L 167.310245 176.338216 
L 167.512602 175.381518 
L 167.714959 180.833711 
L 169.333817 278.223472 
L 169.536174 281.60316 
L 169.738531 280.3702 
L 170.143246 258.155983 
L 171.559746 170.617051 
L 171.762103 166.282094 
L 171.964461 165.568251 
L 172.369175 158.397827 
L 172.571532 163.037006 
L 173.178604 203.180768 
L 173.583318 240.70561 
L 173.988033 273.25574 
L 174.392747 286.597968 
L 174.595104 284.802864 
L 174.797461 276.085299 
L 175.404533 236.426224 
L 176.213962 197.175027 
L 176.821034 178.797773 
L 177.023391 176.981886 
L 177.225748 171.535664 
L 177.428105 175.683351 
L 177.630462 184.674848 
L 178.439891 248.647852 
L 178.844606 279.945504 
L 179.24932 290.483301 
L 179.451677 290.036143 
L 179.856392 270.060583 
L 180.66582 219.941438 
L 181.677607 163.930394 
L 182.082321 155.061751 
L 182.284678 156.00733 
L 182.487035 165.854026 
L 183.701179 257.864889 
L 184.105893 269.165729 
L 184.30825 271.418637 
L 184.510607 268.75273 
L 184.915322 256.040276 
L 185.117679 247.637025 
L 185.927108 169.661129 
L 186.331822 149.396413 
L 186.53418 147.729029 
L 186.736537 148.915572 
L 186.938894 153.889439 
L 187.141251 162.64526 
L 187.748323 203.119707 
L 188.962466 271.504065 
L 189.164823 272.329526 
L 189.569538 262.260993 
L 189.771895 254.793844 
L 191.188395 159.888948 
L 191.390752 157.038973 
L 191.795467 167.669045 
L 192.200181 186.440722 
L 192.807253 218.119152 
L 193.211967 243.78575 
L 193.616682 272.07194 
L 193.819039 277.935119 
L 194.021396 277.597556 
L 194.426111 264.743795 
L 194.830825 245.798727 
L 195.640254 193.412972 
L 195.842611 189.159294 
L 196.044968 191.705938 
L 196.449683 206.617345 
L 196.854397 212.432933 
L 197.259112 222.34027 
L 197.461469 225.247994 
L 197.663826 232.106889 
L 198.06854 262.767621 
L 198.473255 286.504768 
L 198.675612 290.682529 
L 198.877969 285.574697 
L 199.282684 264.732044 
L 199.889755 217.562044 
L 201.306256 171.954416 
L 201.508613 172.086915 
L 201.71097 174.696313 
L 202.520399 214.264932 
L 203.127471 265.646691 
L 203.329828 273.969656 
L 203.532185 274.500409 
L 203.734542 270.1361 
L 203.936899 260.246168 
L 204.543971 219.987684 
L 205.151043 194.829594 
L 205.758114 176.404447 
L 205.960471 173.945681 
L 206.162829 174.079946 
L 206.365186 176.338146 
L 206.567543 183.610424 
L 206.972257 201.984394 
L 207.174615 207.045199 
L 207.376972 218.692557 
L 207.781686 251.664979 
L 208.186401 269.86567 
L 208.388758 271.536225 
L 208.591115 270.055799 
L 208.793472 261.9545 
L 209.602901 209.598689 
L 210.41233 179.801842 
L 211.019402 149.891773 
L 211.221759 144.228855 
L 211.424116 148.174794 
L 212.435902 225.406408 
L 212.840617 254.412513 
L 213.042974 263.28277 
L 213.245331 267.091169 
L 213.447688 265.513753 
L 213.650045 257.272638 
L 214.459474 206.652562 
L 214.864189 179.85363 
L 215.47126 136.039134 
L 215.875975 124.474192 
L 216.078332 120.984577 
L 216.280689 124.73259 
L 216.483046 134.66537 
L 217.899547 248.680052 
L 218.304261 262.013725 
L 218.506618 258.521462 
L 219.11369 233.355551 
L 220.327833 152.243045 
L 220.53019 154.036237 
L 220.732548 158.949247 
L 220.934905 167.481788 
L 221.744334 216.998718 
L 222.75612 274.18011 
L 222.958477 279.566817 
L 223.160834 278.929499 
L 223.767906 259.190452 
L 224.779692 211.584948 
L 224.982049 209.545987 
L 225.184406 212.48035 
L 225.589121 221.886986 
L 225.993835 228.691566 
L 226.398549 237.40903 
L 226.600907 237.893338 
L 226.803264 244.961151 
L 227.207978 274.543197 
L 227.612693 299.172445 
L 227.81505 302.467659 
L 228.017407 298.408091 
L 228.422121 278.639533 
L 229.029193 239.720625 
L 229.23155 237.115657 
L 229.433908 236.987454 
L 229.636265 235.635557 
L 229.838622 231.115302 
L 230.648051 199.82281 
L 230.850408 195.347093 
L 231.052765 196.591584 
L 231.45748 214.144039 
L 231.862194 247.730455 
L 232.266908 282.688657 
L 232.469266 291.342603 
L 232.671623 293.143043 
L 232.87398 288.666326 
L 233.076337 280.571426 
L 233.683409 244.650302 
L 234.492838 210.727538 
L 234.897552 195.780352 
L 235.302267 185.806004 
L 235.504624 184.184771 
L 235.706981 188.07673 
L 236.51641 231.05963 
L 237.123481 277.15701 
L 237.325839 282.996283 
L 237.528196 285.232411 
L 237.730553 285.270517 
L 237.93291 278.27815 
L 238.944696 223.961331 
L 239.551768 203.516479 
L 239.754125 198.359044 
L 239.956482 196.992677 
L 240.15884 198.325478 
L 240.361197 198.719635 
L 240.563554 202.203902 
L 241.170626 224.010122 
L 242.182412 286.800918 
L 242.384769 288.986595 
L 242.587126 289.002758 
L 242.789483 281.970012 
L 243.396555 245.742148 
L 244.205984 215.187272 
L 244.813055 194.743298 
L 245.21777 186.587125 
L 245.420127 187.204376 
L 245.622484 194.025099 
L 246.229556 225.869822 
L 246.836627 272.203003 
L 247.241342 287.513196 
L 247.443699 288.212141 
L 247.646056 281.18229 
L 249.669628 153.284771 
L 249.871985 148.147888 
L 250.074343 148.864438 
L 250.2767 154.077496 
L 250.681414 182.255924 
L 251.288486 229.249114 
L 251.6932 254.610498 
L 252.097915 269.944559 
L 252.300272 272.365328 
L 252.502629 268.611388 
L 253.109701 242.877003 
L 254.323844 152.878658 
L 254.526201 150.532476 
L 254.728558 149.795248 
L 254.930916 148.187272 
L 255.133273 150.119446 
L 255.537987 177.55949 
L 256.752131 269.566342 
L 256.954488 276.281581 
L 257.156845 277.449054 
L 257.359202 274.342649 
L 257.763917 261.065362 
L 258.370988 217.628284 
L 258.97806 179.193479 
L 259.382774 168.44152 
L 259.787489 169.838722 
L 259.989846 173.609665 
L 260.39456 191.953884 
L 260.799275 215.634842 
L 261.811061 284.72343 
L 262.013418 282.229369 
L 262.215775 276.833239 
L 262.62049 251.455198 
L 263.025204 220.104429 
L 263.227561 216.954121 
L 263.429918 217.825996 
L 263.834633 223.892011 
L 264.03699 223.442021 
L 264.239347 223.325988 
L 264.441704 220.885897 
L 264.644062 220.11302 
L 264.846419 223.670674 
L 266.465277 292.038468 
L 266.667634 291.654568 
L 266.869991 288.967628 
L 267.477063 262.207115 
L 268.084134 237.802484 
L 268.488849 228.359818 
L 268.691206 226.383753 
L 269.09592 215.786173 
L 269.500635 212.377595 
L 269.702992 214.813574 
L 270.107706 225.304967 
L 270.512421 238.447828 
L 271.119492 275.273269 
L 271.32185 282.397005 
L 271.524207 283.897945 
L 271.726564 281.964518 
L 271.928921 273.602891 
L 272.73835 227.273869 
L 273.143064 209.526258 
L 273.952493 167.802296 
L 274.357208 153.581355 
L 274.559565 150.337941 
L 274.761922 155.543386 
L 275.368994 191.785402 
L 275.976065 246.922654 
L 276.38078 261.089133 
L 276.583137 262.327532 
L 276.785494 255.019956 
L 277.392566 214.88634 
L 277.79728 192.263377 
L 278.404352 159.912492 
L 278.606709 149.082255 
L 278.809066 148.079858 
L 279.011423 143.393336 
L 279.213781 143.691942 
L 279.416138 146.732504 
L 279.618495 156.130999 
L 281.034995 270.631643 
L 281.237353 273.535599 
L 281.43971 271.457678 
L 281.642067 265.689381 
L 283.058568 184.627777 
L 283.665639 163.297482 
L 283.867996 159.358891 
L 284.070354 158.812428 
L 284.272711 162.24469 
L 284.879782 205.690931 
L 285.891568 278.113253 
L 286.296283 283.428415 
L 286.49864 280.964174 
L 287.105712 257.824433 
L 288.319855 174.449749 
L 288.724569 164.492196 
L 288.926927 161.249995 
L 289.129284 161.989194 
L 289.331641 168.136155 
L 290.950499 277.150581 
L 291.152856 279.662712 
L 291.355213 278.380322 
L 291.759927 265.306568 
L 292.164642 232.385535 
L 292.771714 175.8582 
L 293.176428 145.737385 
L 293.378785 138.73452 
L 293.581142 138.09868 
L 293.7835 138.324771 
L 293.985857 140.335871 
L 294.188214 148.313507 
L 294.997643 209.51542 
L 295.604714 257.115513 
L 295.807072 265.174008 
L 296.009429 266.564027 
L 296.211786 260.825266 
L 296.6165 233.741942 
L 298.033001 94.627858 
L 298.235358 86.727633 
L 298.437715 87.657514 
L 298.84243 96.993674 
L 299.044787 106.285958 
L 299.651859 157.109711 
L 300.25893 227.170869 
L 300.663645 241.050554 
L 300.866002 239.493572 
L 301.068359 234.155693 
L 301.675431 193.951232 
L 302.889574 72.190636 
L 303.091931 72.735175 
L 303.90136 121.731467 
L 305.115503 238.497365 
L 305.520218 252.166196 
L 305.722575 251.346601 
L 305.924932 242.423462 
L 307.54379 130.600315 
L 307.948504 115.452185 
L 308.150861 117.550998 
L 308.555576 139.719874 
L 309.567362 218.381364 
L 309.972076 254.428551 
L 310.174433 263.184775 
L 310.376791 265.932166 
L 310.579148 262.068908 
L 310.781505 254.837196 
L 311.186219 226.188865 
L 312.198005 136.92467 
L 312.60272 119.516262 
L 312.805077 119.233855 
L 313.007434 120.673285 
L 313.209791 124.569531 
L 313.412149 133.377132 
L 314.221578 196.189798 
L 314.626292 230.901527 
L 315.031006 253.203763 
L 315.233364 258.446881 
L 315.435721 255.782852 
L 315.840435 233.825032 
L 316.24515 208.74829 
L 316.852221 189.397884 
L 317.256936 177.212474 
L 317.459293 176.151702 
L 317.66165 177.119885 
L 318.066364 184.360066 
L 318.875793 212.341867 
L 319.280508 236.111812 
L 319.685222 262.933343 
L 320.089937 272.187928 
L 320.292294 271.126923 
L 320.494651 267.254319 
L 321.101723 246.475172 
L 322.315866 174.634403 
L 322.72058 162.9369 
L 322.922937 159.71123 
L 323.125295 159.951173 
L 323.327652 167.81635 
L 324.744152 262.054197 
L 324.94651 268.018086 
L 325.148867 269.910657 
L 325.351224 267.119895 
L 325.755938 253.897324 
L 325.958296 243.335714 
L 327.374796 136.503506 
L 327.577153 139.076274 
L 327.77951 139.49712 
L 327.981868 141.252889 
L 328.184225 148.753999 
L 328.386582 161.545162 
L 329.398368 252.374077 
L 329.600725 265.939395 
L 329.803083 271.251392 
L 330.00544 269.809231 
L 330.207797 264.138837 
L 330.612511 237.404975 
L 331.219583 183.32857 
L 332.029012 141.777678 
L 332.231369 139.799888 
L 332.636083 151.750453 
L 333.040798 172.282978 
L 333.445512 202.050367 
L 333.647869 210.537432 
L 334.457298 272.32908 
L 334.659655 274.179352 
L 334.862013 274.506758 
L 335.06437 267.896745 
L 335.873799 215.589543 
L 336.48087 188.878629 
L 336.885585 177.462757 
L 337.290299 182.669314 
L 337.492656 182.781751 
L 338.504442 222.775798 
L 339.111514 269.175622 
L 339.313871 276.45534 
L 339.516228 278.965283 
L 339.718586 277.62767 
L 340.1233 255.081952 
L 340.932729 209.067799 
L 341.742158 173.281051 
L 342.146872 161.001399 
L 342.349229 157.437197 
L 342.551587 157.32432 
L 342.753944 162.707394 
L 343.361015 194.548103 
L 343.968087 245.460899 
L 344.170444 255.402445 
L 344.372801 257.692606 
L 344.575159 257.428085 
L 344.777516 249.895442 
L 345.586945 195.988156 
L 346.598731 118.080639 
L 346.801088 115.553745 
L 347.003445 115.707931 
L 347.40816 122.18938 
L 347.610517 130.253764 
L 348.015231 161.530612 
L 349.027017 248.448438 
L 349.229374 253.39769 
L 349.431732 252.790681 
L 349.634089 247.014837 
L 350.24116 211.738371 
L 351.455304 116.733823 
L 351.657661 111.065956 
L 351.860018 110.111736 
L 352.062375 110.811799 
L 352.264733 115.357701 
L 352.46709 125.860899 
L 353.276519 204.632647 
L 353.681233 243.612811 
L 353.88359 254.381492 
L 354.085947 257.84502 
L 354.288305 258.573684 
L 354.490662 255.565246 
L 354.895376 242.700654 
L 355.097733 231.763365 
L 356.311877 114.962447 
L 356.514234 111.213408 
L 356.918948 107.716051 
L 357.121306 109.557591 
L 357.323663 119.350338 
L 358.133092 203.190451 
L 358.537806 239.455331 
L 358.94252 256.999977 
L 359.144878 258.278826 
L 359.347235 255.89994 
L 359.751949 243.365999 
L 359.954306 230.9717 
L 361.16845 101.443368 
L 361.370807 95.234103 
L 361.573164 94.940067 
L 361.775521 95.064176 
L 361.977879 96.365968 
L 362.180236 105.673199 
L 362.58495 142.031243 
L 363.799093 247.059834 
L 364.001451 247.196903 
L 364.203808 240.754926 
L 364.608522 215.953761 
L 365.417951 115.82566 
L 365.822665 74.170999 
L 366.025023 60.439054 
L 366.22738 55.8 
L 366.429737 58.366345 
L 366.834451 69.54347 
L 367.036809 79.961326 
L 367.64388 138.763649 
L 368.250952 210.67052 
L 368.655666 229.247999 
L 368.858024 229.036877 
L 369.060381 224.220282 
L 369.465095 203.986151 
L 369.86981 161.251095 
L 370.476881 90.998784 
L 370.881596 66.404954 
L 371.083953 62.546545 
L 371.28631 65.491156 
L 371.488667 71.065701 
L 371.893382 95.51896 
L 373.107525 217.422816 
L 373.512239 232.960368 
L 373.714597 234.469127 
L 373.916954 229.180369 
L 374.524025 205.253553 
L 374.92874 160.369733 
L 375.333454 113.784311 
L 375.738169 95.62965 
L 375.940526 94.424517 
L 376.142883 95.462607 
L 376.34524 97.659046 
L 376.547597 104.363133 
L 376.952312 142.13647 
L 377.761741 218.097728 
L 378.166455 239.146697 
L 378.368812 246.782639 
L 378.57117 247.118301 
L 378.975884 227.410434 
L 380.392384 103.792661 
L 380.797099 88.630023 
L 380.999456 89.718233 
L 381.40417 96.638702 
L 381.606528 104.942198 
L 382.415956 176.944379 
L 382.820671 218.468827 
L 383.023028 228.779835 
L 383.225385 233.146302 
L 383.427743 234.570513 
L 383.832457 218.253133 
L 384.237171 193.276514 
L 384.237171 193.276514 
" clip-path="url(#p8f42d8d6b9)" style="fill: none; stroke: #ff7f0e; stroke-width: 1.5; stroke-linecap: square"/>
   </g>
   <g id="line2d_15">
    <path d="M 384.439529 173.867488 
L 385.451315 102.997606 
L 385.653672 93.067203 
L 385.856029 89.27534 
L 386.058386 90.045414 
L 386.260743 95.82743 
L 386.665458 123.969605 
L 387.677244 222.027475 
L 388.081958 235.625325 
L 388.284316 236.782781 
L 388.486673 231.934006 
L 388.891387 214.58852 
L 389.498459 173.115906 
L 390.510245 97.335996 
L 390.712602 91.610309 
L 390.914959 91.037013 
L 391.117316 95.204674 
L 391.522031 118.687275 
L 392.129102 176.87515 
L 392.533817 213.871486 
L 392.938531 232.578912 
L 393.140888 234.846712 
L 393.343246 234.073983 
L 393.545603 229.543812 
L 393.74796 221.081136 
L 394.759746 147.935119 
L 395.366818 103.94659 
L 395.569175 95.782235 
L 395.771532 93.312964 
L 395.973889 96.371846 
L 396.378604 117.577042 
L 396.985675 176.784644 
L 397.39039 213.194247 
L 397.795104 233.550271 
L 397.997461 237.999607 
L 398.199819 236.825367 
L 398.402176 232.907293 
L 398.80689 215.984827 
L 399.211605 189.901313 
L 400.223391 110.107507 
L 400.425748 100.969518 
L 400.628105 97.8108 
L 400.830462 98.745031 
L 401.03282 105.656248 
L 401.437534 133.519762 
L 402.44932 223.540581 
L 402.854034 238.316521 
L 403.056392 239.913641 
L 403.258749 236.840702 
L 403.663463 221.60086 
L 404.270535 181.162177 
L 405.079964 118.543918 
L 405.484678 103.541754 
L 405.687035 103.590738 
L 405.889393 108.720336 
L 406.294107 134.493152 
L 407.305893 223.469703 
L 407.710607 240.280447 
L 407.912965 242.69432 
L 408.115322 240.695597 
L 408.520036 227.303469 
L 409.127108 189.04528 
L 410.138894 116.491607 
L 410.341251 110.347915 
L 410.543608 109.718584 
L 410.745966 113.536729 
L 411.15068 137.372757 
L 412.364823 234.259697 
L 412.769538 244.177463 
L 412.971895 243.076069 
L 413.174252 238.440132 
L 413.578966 221.22275 
L 414.186038 179.819071 
L 414.995467 125.544974 
L 415.197824 118.550664 
L 415.400181 117.56256 
L 415.602539 120.560927 
L 416.007253 142.859289 
L 417.221396 235.497623 
L 417.626111 244.636342 
L 417.828468 244.143857 
L 418.030825 240.30602 
L 418.435539 224.65147 
L 419.042611 186.452799 
L 419.85204 134.814991 
L 420.054397 128.180865 
L 420.256754 127.053168 
L 420.459112 130.032971 
L 420.863826 151.417779 
L 421.875612 227.405044 
L 422.280326 242.068649 
L 422.482684 244.27741 
L 422.685041 243.691263 
L 422.887398 240.085924 
L 423.292112 226.115602 
L 423.899184 191.497321 
L 424.708613 144.789624 
L 424.91097 139.315448 
L 425.113327 138.75119 
L 425.315684 142.220138 
L 425.720399 163.58853 
L 426.732185 230.753698 
L 427.136899 242.203641 
L 427.339257 243.105541 
L 427.541614 241.904405 
L 427.946328 232.3255 
L 428.351043 216.796711 
L 429.565186 155.586937 
L 429.767543 152.134787 
L 429.9699 152.87691 
L 430.172257 157.595966 
L 430.576972 179.432073 
L 431.386401 226.732588 
L 431.791115 239.268572 
L 431.993472 241.104035 
L 432.19583 240.920829 
L 432.398187 238.975862 
L 432.802901 229.608303 
L 433.207616 215.922385 
L 434.421759 168.961579 
L 434.624116 168.262164 
L 434.826473 171.043326 
L 435.231188 187.581401 
L 436.040617 227.229616 
L 436.445331 237.241232 
L 436.647688 238.902986 
L 436.850045 238.969874 
L 437.052403 237.475325 
L 437.25476 234.787123 
L 437.861831 220.145367 
L 438.873617 188.875836 
L 439.075975 185.760656 
L 439.278332 185.148423 
L 439.480689 187.686286 
L 439.885403 200.837652 
L 440.694832 230.193184 
L 441.099547 235.936425 
L 441.301904 236.903554 
L 441.504261 236.249266 
L 441.908976 231.569399 
L 442.718404 215.368478 
L 443.123119 206.367541 
L 443.527833 200.913005 
L 443.73019 200.352395 
L 443.932548 201.415362 
L 444.539619 214.833268 
L 445.349048 231.404697 
L 445.551405 232.673165 
L 445.753762 232.949321 
L 445.95612 232.717404 
L 446.158477 231.358008 
L 446.967906 220.498826 
L 447.574977 211.914317 
L 447.777335 210.323056 
L 447.979692 210.115613 
L 448.182049 211.326983 
L 449.598549 226.95421 
L 449.800907 227.474392 
L 450.205621 227.760857 
L 450.407978 227.277281 
L 450.610335 226.120864 
L 451.419764 219.801624 
L 452.026836 216.55162 
L 452.229193 216.243741 
L 452.43155 216.80285 
L 453.038622 220.497098 
L 453.240979 221.272391 
L 453.645694 223.521512 
L 453.848051 224.022592 
L 454.050408 223.870573 
L 454.252765 223.333328 
L 454.65748 222.895176 
L 455.264551 221.99181 
L 455.871623 221.83497 
L 456.07398 221.538291 
L 456.276337 221.444085 
L 456.883409 221.915657 
L 457.288123 221.565706 
L 457.490481 221.609953 
L 458.097552 222.177396 
L 458.299909 222.342102 
L 458.502267 222.324751 
L 458.906981 222.121748 
L 459.109338 222.064531 
L 459.311695 222.138608 
L 460.121124 223.044837 
L 460.525839 222.946798 
L 461.13291 222.589771 
L 461.537625 221.971542 
L 462.144696 221.953163 
L 462.751768 222.219599 
L 463.35884 222.438953 
L 463.965911 222.573539 
L 464.370626 222.532918 
L 464.77534 222.475403 
L 465.382412 222.417648 
L 465.989483 222.286669 
L 466.798912 222.35461 
L 468.215413 222.420515 
L 469.024841 222.350745 
L 471.048413 222.398692 
L 476.107344 222.389131 
L 483.999275 222.396543 
L 500.592566 222.397062 
L 518.4 222.396936 
L 518.4 222.396936 
" clip-path="url(#p8f42d8d6b9)" style="fill: none; stroke: #2ca02c; stroke-width: 1.5; stroke-linecap: square"/>
   </g>
   <g id="patch_3">
    <path d="M 72 320.4 
L 72 43.2 
" style="fill: none; stroke: #000000; stroke-width: 0.8; stroke-linejoin: miter; stroke-linecap: square"/>
   </g>
   <g id="patch_4">
    <path d="M 518.4 320.4 
L 518.4 43.2 
" style="fill: none; stroke: #000000; stroke-width: 0.8; stroke-linejoin: miter; stroke-linecap: square"/>
   </g>
   <g id="patch_5">
    <path d="M 72 320.4 
L 518.4 320.4 
" style="fill: none; stroke: #000000; stroke-width: 0.8; stroke-linejoin: miter; stroke-linecap: square"/>
   </g>
   <g id="patch_6">
    <path d="M 72 43.2 
L 518.4 43.2 
" style="fill: none; stroke: #000000; stroke-width: 0.8; stroke-linejoin: miter; stroke-linecap: square"/>
   </g>
   <g id="text_13">
    <!-- Classic Transformer - model_20231123165041 -->
    <g transform="translate(155.436563 37.2) scale(0.12 -0.12)">
     <defs>
      <path id="DejaVuSans-43" d="M 4122 4306 
L 4122 3641 
Q 3803 3938 3442 4084 
Q 3081 4231 2675 4231 
Q 1875 4231 1450 3742 
Q 1025 3253 1025 2328 
Q 1025 1406 1450 917 
Q 1875 428 2675 428 
Q 3081 428 3442 575 
Q 3803 722 4122 1019 
L 4122 359 
Q 3791 134 3420 21 
Q 3050 -91 2638 -91 
Q 1578 -91 968 557 
Q 359 1206 359 2328 
Q 359 3453 968 4101 
Q 1578 4750 2638 4750 
Q 3056 4750 3426 4639 
Q 3797 4528 4122 4306 
z
" transform="scale(0.015625)"/>
      <path id="DejaVuSans-6c" d="M 603 4863 
L 1178 4863 
L 1178 0 
L 603 0 
L 603 4863 
z
" transform="scale(0.015625)"/>
      <path id="DejaVuSans-61" d="M 2194 1759 
Q 1497 1759 1228 1600 
Q 959 1441 959 1056 
Q 959 750 1161 570 
Q 1363 391 1709 391 
Q 2188 391 2477 730 
Q 2766 1069 2766 1631 
L 2766 1759 
L 2194 1759 
z
M 3341 1997 
L 3341 0 
L 2766 0 
L 2766 531 
Q 2569 213 2275 61 
Q 1981 -91 1556 -91 
Q 1019 -91 701 211 
Q 384 513 384 1019 
Q 384 1609 779 1909 
Q 1175 2209 1959 2209 
L 2766 2209 
L 2766 2266 
Q 2766 2663 2505 2880 
Q 2244 3097 1772 3097 
Q 1472 3097 1187 3025 
Q 903 2953 641 2809 
L 641 3341 
Q 956 3463 1253 3523 
Q 1550 3584 1831 3584 
Q 2591 3584 2966 3190 
Q 3341 2797 3341 1997 
z
" transform="scale(0.015625)"/>
      <path id="DejaVuSans-73" d="M 2834 3397 
L 2834 2853 
Q 2591 2978 2328 3040 
Q 2066 3103 1784 3103 
Q 1356 3103 1142 2972 
Q 928 2841 928 2578 
Q 928 2378 1081 2264 
Q 1234 2150 1697 2047 
L 1894 2003 
Q 2506 1872 2764 1633 
Q 3022 1394 3022 966 
Q 3022 478 2636 193 
Q 2250 -91 1575 -91 
Q 1294 -91 989 -36 
Q 684 19 347 128 
L 347 722 
Q 666 556 975 473 
Q 1284 391 1588 391 
Q 1994 391 2212 530 
Q 2431 669 2431 922 
Q 2431 1156 2273 1281 
Q 2116 1406 1581 1522 
L 1381 1569 
Q 847 1681 609 1914 
Q 372 2147 372 2553 
Q 372 3047 722 3315 
Q 1072 3584 1716 3584 
Q 2034 3584 2315 3537 
Q 2597 3491 2834 3397 
z
" transform="scale(0.015625)"/>
      <path id="DejaVuSans-69" d="M 603 3500 
L 1178 3500 
L 1178 0 
L 603 0 
L 603 3500 
z
M 603 4863 
L 1178 4863 
L 1178 4134 
L 603 4134 
L 603 4863 
z
" transform="scale(0.015625)"/>
      <path id="DejaVuSans-63" d="M 3122 3366 
L 3122 2828 
Q 2878 2963 2633 3030 
Q 2388 3097 2138 3097 
Q 1578 3097 1268 2742 
Q 959 2388 959 1747 
Q 959 1106 1268 751 
Q 1578 397 2138 397 
Q 2388 397 2633 464 
Q 2878 531 3122 666 
L 3122 134 
Q 2881 22 2623 -34 
Q 2366 -91 2075 -91 
Q 1284 -91 818 406 
Q 353 903 353 1747 
Q 353 2603 823 3093 
Q 1294 3584 2113 3584 
Q 2378 3584 2631 3529 
Q 2884 3475 3122 3366 
z
" transform="scale(0.015625)"/>
      <path id="DejaVuSans-20" transform="scale(0.015625)"/>
      <path id="DejaVuSans-54" d="M -19 4666 
L 3928 4666 
L 3928 4134 
L 2272 4134 
L 2272 0 
L 1638 0 
L 1638 4134 
L -19 4134 
L -19 4666 
z
" transform="scale(0.015625)"/>
      <path id="DejaVuSans-72" d="M 2631 2963 
Q 2534 3019 2420 3045 
Q 2306 3072 2169 3072 
Q 1681 3072 1420 2755 
Q 1159 2438 1159 1844 
L 1159 0 
L 581 0 
L 581 3500 
L 1159 3500 
L 1159 2956 
Q 1341 3275 1631 3429 
Q 1922 3584 2338 3584 
Q 2397 3584 2469 3576 
Q 2541 3569 2628 3553 
L 2631 2963 
z
" transform="scale(0.015625)"/>
      <path id="DejaVuSans-6e" d="M 3513 2113 
L 3513 0 
L 2938 0 
L 2938 2094 
Q 2938 2591 2744 2837 
Q 2550 3084 2163 3084 
Q 1697 3084 1428 2787 
Q 1159 2491 1159 1978 
L 1159 0 
L 581 0 
L 581 3500 
L 1159 3500 
L 1159 2956 
Q 1366 3272 1645 3428 
Q 1925 3584 2291 3584 
Q 2894 3584 3203 3211 
Q 3513 2838 3513 2113 
z
" transform="scale(0.015625)"/>
      <path id="DejaVuSans-66" d="M 2375 4863 
L 2375 4384 
L 1825 4384 
Q 1516 4384 1395 4259 
Q 1275 4134 1275 3809 
L 1275 3500 
L 2222 3500 
L 2222 3053 
L 1275 3053 
L 1275 0 
L 697 0 
L 697 3053 
L 147 3053 
L 147 3500 
L 697 3500 
L 697 3744 
Q 697 4328 969 4595 
Q 1241 4863 1831 4863 
L 2375 4863 
z
" transform="scale(0.015625)"/>
      <path id="DejaVuSans-6f" d="M 1959 3097 
Q 1497 3097 1228 2736 
Q 959 2375 959 1747 
Q 959 1119 1226 758 
Q 1494 397 1959 397 
Q 2419 397 2687 759 
Q 2956 1122 2956 1747 
Q 2956 2369 2687 2733 
Q 2419 3097 1959 3097 
z
M 1959 3584 
Q 2709 3584 3137 3096 
Q 3566 2609 3566 1747 
Q 3566 888 3137 398 
Q 2709 -91 1959 -91 
Q 1206 -91 779 398 
Q 353 888 353 1747 
Q 353 2609 779 3096 
Q 1206 3584 1959 3584 
z
" transform="scale(0.015625)"/>
      <path id="DejaVuSans-6d" d="M 3328 2828 
Q 3544 3216 3844 3400 
Q 4144 3584 4550 3584 
Q 5097 3584 5394 3201 
Q 5691 2819 5691 2113 
L 5691 0 
L 5113 0 
L 5113 2094 
Q 5113 2597 4934 2840 
Q 4756 3084 4391 3084 
Q 3944 3084 3684 2787 
Q 3425 2491 3425 1978 
L 3425 0 
L 2847 0 
L 2847 2094 
Q 2847 2600 2669 2842 
Q 2491 3084 2119 3084 
Q 1678 3084 1418 2786 
Q 1159 2488 1159 1978 
L 1159 0 
L 581 0 
L 581 3500 
L 1159 3500 
L 1159 2956 
Q 1356 3278 1631 3431 
Q 1906 3584 2284 3584 
Q 2666 3584 2933 3390 
Q 3200 3197 3328 2828 
z
" transform="scale(0.015625)"/>
      <path id="DejaVuSans-65" d="M 3597 1894 
L 3597 1613 
L 953 1613 
Q 991 1019 1311 708 
Q 1631 397 2203 397 
Q 2534 397 2845 478 
Q 3156 559 3463 722 
L 3463 178 
Q 3153 47 2828 -22 
Q 2503 -91 2169 -91 
Q 1331 -91 842 396 
Q 353 884 353 1716 
Q 353 2575 817 3079 
Q 1281 3584 2069 3584 
Q 2775 3584 3186 3129 
Q 3597 2675 3597 1894 
z
M 3022 2063 
Q 3016 2534 2758 2815 
Q 2500 3097 2075 3097 
Q 1594 3097 1305 2825 
Q 1016 2553 972 2059 
L 3022 2063 
z
" transform="scale(0.015625)"/>
      <path id="DejaVuSans-64" d="M 2906 2969 
L 2906 4863 
L 3481 4863 
L 3481 0 
L 2906 0 
L 2906 525 
Q 2725 213 2448 61 
Q 2172 -91 1784 -91 
Q 1150 -91 751 415 
Q 353 922 353 1747 
Q 353 2572 751 3078 
Q 1150 3584 1784 3584 
Q 2172 3584 2448 3432 
Q 2725 3281 2906 2969 
z
M 947 1747 
Q 947 1113 1208 752 
Q 1469 391 1925 391 
Q 2381 391 2643 752 
Q 2906 1113 2906 1747 
Q 2906 2381 2643 2742 
Q 2381 3103 1925 3103 
Q 1469 3103 1208 2742 
Q 947 2381 947 1747 
z
" transform="scale(0.015625)"/>
      <path id="DejaVuSans-5f" d="M 3263 -1063 
L 3263 -1509 
L -63 -1509 
L -63 -1063 
L 3263 -1063 
z
" transform="scale(0.015625)"/>
      <path id="DejaVuSans-34" d="M 2419 4116 
L 825 1625 
L 2419 1625 
L 2419 4116 
z
M 2253 4666 
L 3047 4666 
L 3047 1625 
L 3713 1625 
L 3713 1100 
L 3047 1100 
L 3047 0 
L 2419 0 
L 2419 1100 
L 313 1100 
L 313 1709 
L 2253 4666 
z
" transform="scale(0.015625)"/>
     </defs>
     <use xlink:href="#DejaVuSans-43"/>
     <use xlink:href="#DejaVuSans-6c" x="69.824219"/>
     <use xlink:href="#DejaVuSans-61" x="97.607422"/>
     <use xlink:href="#DejaVuSans-73" x="158.886719"/>
     <use xlink:href="#DejaVuSans-73" x="210.986328"/>
     <use xlink:href="#DejaVuSans-69" x="263.085938"/>
     <use xlink:href="#DejaVuSans-63" x="290.869141"/>
     <use xlink:href="#DejaVuSans-20" x="345.849609"/>
     <use xlink:href="#DejaVuSans-54" x="377.636719"/>
     <use xlink:href="#DejaVuSans-72" x="423.970703"/>
     <use xlink:href="#DejaVuSans-61" x="465.083984"/>
     <use xlink:href="#DejaVuSans-6e" x="526.363281"/>
     <use xlink:href="#DejaVuSans-73" x="589.742188"/>
     <use xlink:href="#DejaVuSans-66" x="641.841797"/>
     <use xlink:href="#DejaVuSans-6f" x="677.046875"/>
     <use xlink:href="#DejaVuSans-72" x="738.228516"/>
     <use xlink:href="#DejaVuSans-6d" x="777.591797"/>
     <use xlink:href="#DejaVuSans-65" x="875.003906"/>
     <use xlink:href="#DejaVuSans-72" x="936.527344"/>
     <use xlink:href="#DejaVuSans-20" x="977.640625"/>
     <use xlink:href="#DejaVuSans-2d" x="1009.427734"/>
     <use xlink:href="#DejaVuSans-20" x="1045.511719"/>
     <use xlink:href="#DejaVuSans-6d" x="1077.298828"/>
     <use xlink:href="#DejaVuSans-6f" x="1174.710938"/>
     <use xlink:href="#DejaVuSans-64" x="1235.892578"/>
     <use xlink:href="#DejaVuSans-65" x="1299.369141"/>
     <use xlink:href="#DejaVuSans-6c" x="1360.892578"/>
     <use xlink:href="#DejaVuSans-5f" x="1388.675781"/>
     <use xlink:href="#DejaVuSans-32" x="1438.675781"/>
     <use xlink:href="#DejaVuSans-30" x="1502.298828"/>
     <use xlink:href="#DejaVuSans-32" x="1565.921875"/>
     <use xlink:href="#DejaVuSans-33" x="1629.544922"/>
     <use xlink:href="#DejaVuSans-31" x="1693.167969"/>
     <use xlink:href="#DejaVuSans-31" x="1756.791016"/>
     <use xlink:href="#DejaVuSans-32" x="1820.414062"/>
     <use xlink:href="#DejaVuSans-33" x="1884.037109"/>
     <use xlink:href="#DejaVuSans-31" x="1947.660156"/>
     <use xlink:href="#DejaVuSans-36" x="2011.283203"/>
     <use xlink:href="#DejaVuSans-35" x="2074.90625"/>
     <use xlink:href="#DejaVuSans-30" x="2138.529297"/>
     <use xlink:href="#DejaVuSans-34" x="2202.152344"/>
     <use xlink:href="#DejaVuSans-31" x="2265.775391"/>
    </g>
   </g>
   <g id="legend_1">
    <g id="patch_7">
     <path d="M 428.882812 95.234375 
L 511.4 95.234375 
Q 513.4 95.234375 513.4 93.234375 
L 513.4 50.2 
Q 513.4 48.2 511.4 48.2 
L 428.882812 48.2 
Q 426.882812 48.2 426.882812 50.2 
L 426.882812 93.234375 
Q 426.882812 95.234375 428.882812 95.234375 
z
" style="fill: #ffffff; opacity: 0.8; stroke: #cccccc; stroke-linejoin: miter"/>
    </g>
    <g id="line2d_16">
     <path d="M 430.882812 56.298437 
L 440.882812 56.298437 
L 450.882812 56.298437 
" style="fill: none; stroke: #1f77b4; stroke-width: 1.5; stroke-linecap: square"/>
    </g>
    <g id="text_14">
     <!-- Measured -->
     <g transform="translate(458.882812 59.798437) scale(0.1 -0.1)">
      <defs>
       <path id="DejaVuSans-4d" d="M 628 4666 
L 1569 4666 
L 2759 1491 
L 3956 4666 
L 4897 4666 
L 4897 0 
L 4281 0 
L 4281 4097 
L 3078 897 
L 2444 897 
L 1241 4097 
L 1241 0 
L 628 0 
L 628 4666 
z
" transform="scale(0.015625)"/>
       <path id="DejaVuSans-75" d="M 544 1381 
L 544 3500 
L 1119 3500 
L 1119 1403 
Q 1119 906 1312 657 
Q 1506 409 1894 409 
Q 2359 409 2629 706 
Q 2900 1003 2900 1516 
L 2900 3500 
L 3475 3500 
L 3475 0 
L 2900 0 
L 2900 538 
Q 2691 219 2414 64 
Q 2138 -91 1772 -91 
Q 1169 -91 856 284 
Q 544 659 544 1381 
z
M 1991 3584 
L 1991 3584 
z
" transform="scale(0.015625)"/>
      </defs>
      <use xlink:href="#DejaVuSans-4d"/>
      <use xlink:href="#DejaVuSans-65" x="86.279297"/>
      <use xlink:href="#DejaVuSans-61" x="147.802734"/>
      <use xlink:href="#DejaVuSans-73" x="209.082031"/>
      <use xlink:href="#DejaVuSans-75" x="261.181641"/>
      <use xlink:href="#DejaVuSans-72" x="324.560547"/>
      <use xlink:href="#DejaVuSans-65" x="363.423828"/>
      <use xlink:href="#DejaVuSans-64" x="424.947266"/>
     </g>
    </g>
    <g id="line2d_17">
     <path d="M 430.882812 70.976562 
L 440.882812 70.976562 
L 450.882812 70.976562 
" style="fill: none; stroke: #ff7f0e; stroke-width: 1.5; stroke-linecap: square"/>
    </g>
    <g id="text_15">
     <!-- Fitted -->
     <g transform="translate(458.882812 74.476562) scale(0.1 -0.1)">
      <defs>
       <path id="DejaVuSans-46" d="M 628 4666 
L 3309 4666 
L 3309 4134 
L 1259 4134 
L 1259 2759 
L 3109 2759 
L 3109 2228 
L 1259 2228 
L 1259 0 
L 628 0 
L 628 4666 
z
" transform="scale(0.015625)"/>
       <path id="DejaVuSans-74" d="M 1172 4494 
L 1172 3500 
L 2356 3500 
L 2356 3053 
L 1172 3053 
L 1172 1153 
Q 1172 725 1289 603 
Q 1406 481 1766 481 
L 2356 481 
L 2356 0 
L 1766 0 
Q 1100 0 847 248 
Q 594 497 594 1153 
L 594 3053 
L 172 3053 
L 172 3500 
L 594 3500 
L 594 4494 
L 1172 4494 
z
" transform="scale(0.015625)"/>
      </defs>
      <use xlink:href="#DejaVuSans-46"/>
      <use xlink:href="#DejaVuSans-69" x="50.269531"/>
      <use xlink:href="#DejaVuSans-74" x="78.052734"/>
      <use xlink:href="#DejaVuSans-74" x="117.261719"/>
      <use xlink:href="#DejaVuSans-65" x="156.470703"/>
      <use xlink:href="#DejaVuSans-64" x="217.994141"/>
     </g>
    </g>
    <g id="line2d_18">
     <path d="M 430.882812 85.654687 
L 440.882812 85.654687 
L 450.882812 85.654687 
" style="fill: none; stroke: #2ca02c; stroke-width: 1.5; stroke-linecap: square"/>
    </g>
    <g id="text_16">
     <!-- Estimated -->
     <g transform="translate(458.882812 89.154687) scale(0.1 -0.1)">
      <defs>
       <path id="DejaVuSans-45" d="M 628 4666 
L 3578 4666 
L 3578 4134 
L 1259 4134 
L 1259 2753 
L 3481 2753 
L 3481 2222 
L 1259 2222 
L 1259 531 
L 3634 531 
L 3634 0 
L 628 0 
L 628 4666 
z
" transform="scale(0.015625)"/>
      </defs>
      <use xlink:href="#DejaVuSans-45"/>
      <use xlink:href="#DejaVuSans-73" x="63.183594"/>
      <use xlink:href="#DejaVuSans-74" x="115.283203"/>
      <use xlink:href="#DejaVuSans-69" x="154.492188"/>
      <use xlink:href="#DejaVuSans-6d" x="182.275391"/>
      <use xlink:href="#DejaVuSans-61" x="279.6875"/>
      <use xlink:href="#DejaVuSans-74" x="340.966797"/>
      <use xlink:href="#DejaVuSans-65" x="380.175781"/>
      <use xlink:href="#DejaVuSans-64" x="441.699219"/>
     </g>
    </g>
   </g>
  </g>
 </g>
 <defs>
  <clipPath id="p8f42d8d6b9">
   <rect x="72" y="43.2" width="446.4" height="277.2"/>
  </clipPath>
 </defs>
</svg>
