<?xml version="1.0" encoding="utf-8" standalone="no"?>
<!DOCTYPE svg PUBLIC "-//W3C//DTD SVG 1.1//EN"
  "http://www.w3.org/Graphics/SVG/1.1/DTD/svg11.dtd">
<svg xmlns:xlink="http://www.w3.org/1999/xlink" width="576pt" height="360pt" viewBox="0 0 576 360" xmlns="http://www.w3.org/2000/svg" version="1.1">
 <metadata>
  <rdf:RDF xmlns:dc="http://purl.org/dc/elements/1.1/" xmlns:cc="http://creativecommons.org/ns#" xmlns:rdf="http://www.w3.org/1999/02/22-rdf-syntax-ns#">
   <cc:Work>
    <dc:type rdf:resource="http://purl.org/dc/dcmitype/StillImage"/>
    <dc:date>2023-11-26T16:17:00.943096</dc:date>
    <dc:format>image/svg+xml</dc:format>
    <dc:creator>
     <cc:Agent>
      <dc:title>Matplotlib v3.8.1, https://matplotlib.org/</dc:title>
     </cc:Agent>
    </dc:creator>
   </cc:Work>
  </rdf:RDF>
 </metadata>
 <defs>
  <style type="text/css">*{stroke-linejoin: round; stroke-linecap: butt}</style>
 </defs>
 <g id="figure_1">
  <g id="patch_1">
   <path d="M 0 360 
L 576 360 
L 576 0 
L 0 0 
z
" style="fill: #ffffff"/>
  </g>
  <g id="axes_1">
   <g id="patch_2">
    <path d="M 72 320.4 
L 518.4 320.4 
L 518.4 43.2 
L 72 43.2 
z
" style="fill: #ffffff"/>
   </g>
   <g id="matplotlib.axis_1">
    <g id="xtick_1">
     <g id="line2d_1">
      <defs>
       <path id="mf981ab27eb" d="M 0 0 
L 0 3.5 
" style="stroke: #000000; stroke-width: 0.8"/>
      </defs>
      <g>
       <use xlink:href="#mf981ab27eb" x="129.874161" y="320.4" style="stroke: #000000; stroke-width: 0.8"/>
      </g>
     </g>
     <g id="text_1">
      <!-- 2020-05-15 -->
      <g transform="translate(100.816349 334.998438) scale(0.1 -0.1)">
       <defs>
        <path id="DejaVuSans-32" d="M 1228 531 
L 3431 531 
L 3431 0 
L 469 0 
L 469 531 
Q 828 903 1448 1529 
Q 2069 2156 2228 2338 
Q 2531 2678 2651 2914 
Q 2772 3150 2772 3378 
Q 2772 3750 2511 3984 
Q 2250 4219 1831 4219 
Q 1534 4219 1204 4116 
Q 875 4013 500 3803 
L 500 4441 
Q 881 4594 1212 4672 
Q 1544 4750 1819 4750 
Q 2544 4750 2975 4387 
Q 3406 4025 3406 3419 
Q 3406 3131 3298 2873 
Q 3191 2616 2906 2266 
Q 2828 2175 2409 1742 
Q 1991 1309 1228 531 
z
" transform="scale(0.015625)"/>
        <path id="DejaVuSans-30" d="M 2034 4250 
Q 1547 4250 1301 3770 
Q 1056 3291 1056 2328 
Q 1056 1369 1301 889 
Q 1547 409 2034 409 
Q 2525 409 2770 889 
Q 3016 1369 3016 2328 
Q 3016 3291 2770 3770 
Q 2525 4250 2034 4250 
z
M 2034 4750 
Q 2819 4750 3233 4129 
Q 3647 3509 3647 2328 
Q 3647 1150 3233 529 
Q 2819 -91 2034 -91 
Q 1250 -91 836 529 
Q 422 1150 422 2328 
Q 422 3509 836 4129 
Q 1250 4750 2034 4750 
z
" transform="scale(0.015625)"/>
        <path id="DejaVuSans-2d" d="M 313 2009 
L 1997 2009 
L 1997 1497 
L 313 1497 
L 313 2009 
z
" transform="scale(0.015625)"/>
        <path id="DejaVuSans-35" d="M 691 4666 
L 3169 4666 
L 3169 4134 
L 1269 4134 
L 1269 2991 
Q 1406 3038 1543 3061 
Q 1681 3084 1819 3084 
Q 2600 3084 3056 2656 
Q 3513 2228 3513 1497 
Q 3513 744 3044 326 
Q 2575 -91 1722 -91 
Q 1428 -91 1123 -41 
Q 819 9 494 109 
L 494 744 
Q 775 591 1075 516 
Q 1375 441 1709 441 
Q 2250 441 2565 725 
Q 2881 1009 2881 1497 
Q 2881 1984 2565 2268 
Q 2250 2553 1709 2553 
Q 1456 2553 1204 2497 
Q 953 2441 691 2322 
L 691 4666 
z
" transform="scale(0.015625)"/>
        <path id="DejaVuSans-31" d="M 794 531 
L 1825 531 
L 1825 4091 
L 703 3866 
L 703 4441 
L 1819 4666 
L 2450 4666 
L 2450 531 
L 3481 531 
L 3481 0 
L 794 0 
L 794 531 
z
" transform="scale(0.015625)"/>
       </defs>
       <use xlink:href="#DejaVuSans-32"/>
       <use xlink:href="#DejaVuSans-30" x="63.623047"/>
       <use xlink:href="#DejaVuSans-32" x="127.246094"/>
       <use xlink:href="#DejaVuSans-30" x="190.869141"/>
       <use xlink:href="#DejaVuSans-2d" x="254.492188"/>
       <use xlink:href="#DejaVuSans-30" x="290.576172"/>
       <use xlink:href="#DejaVuSans-35" x="354.199219"/>
       <use xlink:href="#DejaVuSans-2d" x="417.822266"/>
       <use xlink:href="#DejaVuSans-31" x="453.90625"/>
       <use xlink:href="#DejaVuSans-35" x="517.529297"/>
      </g>
     </g>
    </g>
    <g id="xtick_2">
     <g id="line2d_2">
      <g>
       <use xlink:href="#mf981ab27eb" x="212.435902" y="320.4" style="stroke: #000000; stroke-width: 0.8"/>
      </g>
     </g>
     <g id="text_2">
      <!-- 2020-06-01 -->
      <g transform="translate(183.37809 334.998438) scale(0.1 -0.1)">
       <defs>
        <path id="DejaVuSans-36" d="M 2113 2584 
Q 1688 2584 1439 2293 
Q 1191 2003 1191 1497 
Q 1191 994 1439 701 
Q 1688 409 2113 409 
Q 2538 409 2786 701 
Q 3034 994 3034 1497 
Q 3034 2003 2786 2293 
Q 2538 2584 2113 2584 
z
M 3366 4563 
L 3366 3988 
Q 3128 4100 2886 4159 
Q 2644 4219 2406 4219 
Q 1781 4219 1451 3797 
Q 1122 3375 1075 2522 
Q 1259 2794 1537 2939 
Q 1816 3084 2150 3084 
Q 2853 3084 3261 2657 
Q 3669 2231 3669 1497 
Q 3669 778 3244 343 
Q 2819 -91 2113 -91 
Q 1303 -91 875 529 
Q 447 1150 447 2328 
Q 447 3434 972 4092 
Q 1497 4750 2381 4750 
Q 2619 4750 2861 4703 
Q 3103 4656 3366 4563 
z
" transform="scale(0.015625)"/>
       </defs>
       <use xlink:href="#DejaVuSans-32"/>
       <use xlink:href="#DejaVuSans-30" x="63.623047"/>
       <use xlink:href="#DejaVuSans-32" x="127.246094"/>
       <use xlink:href="#DejaVuSans-30" x="190.869141"/>
       <use xlink:href="#DejaVuSans-2d" x="254.492188"/>
       <use xlink:href="#DejaVuSans-30" x="290.576172"/>
       <use xlink:href="#DejaVuSans-36" x="354.199219"/>
       <use xlink:href="#DejaVuSans-2d" x="417.822266"/>
       <use xlink:href="#DejaVuSans-30" x="453.90625"/>
       <use xlink:href="#DejaVuSans-31" x="517.529297"/>
      </g>
     </g>
    </g>
    <g id="xtick_3">
     <g id="line2d_3">
      <g>
       <use xlink:href="#mf981ab27eb" x="280.427924" y="320.4" style="stroke: #000000; stroke-width: 0.8"/>
      </g>
     </g>
     <g id="text_3">
      <!-- 2020-06-15 -->
      <g transform="translate(251.370111 334.998438) scale(0.1 -0.1)">
       <use xlink:href="#DejaVuSans-32"/>
       <use xlink:href="#DejaVuSans-30" x="63.623047"/>
       <use xlink:href="#DejaVuSans-32" x="127.246094"/>
       <use xlink:href="#DejaVuSans-30" x="190.869141"/>
       <use xlink:href="#DejaVuSans-2d" x="254.492188"/>
       <use xlink:href="#DejaVuSans-30" x="290.576172"/>
       <use xlink:href="#DejaVuSans-36" x="354.199219"/>
       <use xlink:href="#DejaVuSans-2d" x="417.822266"/>
       <use xlink:href="#DejaVuSans-31" x="453.90625"/>
       <use xlink:href="#DejaVuSans-35" x="517.529297"/>
      </g>
     </g>
    </g>
    <g id="xtick_4">
     <g id="line2d_4">
      <g>
       <use xlink:href="#mf981ab27eb" x="358.133092" y="320.4" style="stroke: #000000; stroke-width: 0.8"/>
      </g>
     </g>
     <g id="text_4">
      <!-- 2020-07-01 -->
      <g transform="translate(329.075279 334.998438) scale(0.1 -0.1)">
       <defs>
        <path id="DejaVuSans-37" d="M 525 4666 
L 3525 4666 
L 3525 4397 
L 1831 0 
L 1172 0 
L 2766 4134 
L 525 4134 
L 525 4666 
z
" transform="scale(0.015625)"/>
       </defs>
       <use xlink:href="#DejaVuSans-32"/>
       <use xlink:href="#DejaVuSans-30" x="63.623047"/>
       <use xlink:href="#DejaVuSans-32" x="127.246094"/>
       <use xlink:href="#DejaVuSans-30" x="190.869141"/>
       <use xlink:href="#DejaVuSans-2d" x="254.492188"/>
       <use xlink:href="#DejaVuSans-30" x="290.576172"/>
       <use xlink:href="#DejaVuSans-37" x="354.199219"/>
       <use xlink:href="#DejaVuSans-2d" x="417.822266"/>
       <use xlink:href="#DejaVuSans-30" x="453.90625"/>
       <use xlink:href="#DejaVuSans-31" x="517.529297"/>
      </g>
     </g>
    </g>
    <g id="xtick_5">
     <g id="line2d_5">
      <g>
       <use xlink:href="#mf981ab27eb" x="426.125113" y="320.4" style="stroke: #000000; stroke-width: 0.8"/>
      </g>
     </g>
     <g id="text_5">
      <!-- 2020-07-15 -->
      <g transform="translate(397.067301 334.998438) scale(0.1 -0.1)">
       <use xlink:href="#DejaVuSans-32"/>
       <use xlink:href="#DejaVuSans-30" x="63.623047"/>
       <use xlink:href="#DejaVuSans-32" x="127.246094"/>
       <use xlink:href="#DejaVuSans-30" x="190.869141"/>
       <use xlink:href="#DejaVuSans-2d" x="254.492188"/>
       <use xlink:href="#DejaVuSans-30" x="290.576172"/>
       <use xlink:href="#DejaVuSans-37" x="354.199219"/>
       <use xlink:href="#DejaVuSans-2d" x="417.822266"/>
       <use xlink:href="#DejaVuSans-31" x="453.90625"/>
       <use xlink:href="#DejaVuSans-35" x="517.529297"/>
      </g>
     </g>
    </g>
    <g id="xtick_6">
     <g id="line2d_6">
      <g>
       <use xlink:href="#mf981ab27eb" x="508.686854" y="320.4" style="stroke: #000000; stroke-width: 0.8"/>
      </g>
     </g>
     <g id="text_6">
      <!-- 2020-08-01 -->
      <g transform="translate(479.629042 334.998438) scale(0.1 -0.1)">
       <defs>
        <path id="DejaVuSans-38" d="M 2034 2216 
Q 1584 2216 1326 1975 
Q 1069 1734 1069 1313 
Q 1069 891 1326 650 
Q 1584 409 2034 409 
Q 2484 409 2743 651 
Q 3003 894 3003 1313 
Q 3003 1734 2745 1975 
Q 2488 2216 2034 2216 
z
M 1403 2484 
Q 997 2584 770 2862 
Q 544 3141 544 3541 
Q 544 4100 942 4425 
Q 1341 4750 2034 4750 
Q 2731 4750 3128 4425 
Q 3525 4100 3525 3541 
Q 3525 3141 3298 2862 
Q 3072 2584 2669 2484 
Q 3125 2378 3379 2068 
Q 3634 1759 3634 1313 
Q 3634 634 3220 271 
Q 2806 -91 2034 -91 
Q 1263 -91 848 271 
Q 434 634 434 1313 
Q 434 1759 690 2068 
Q 947 2378 1403 2484 
z
M 1172 3481 
Q 1172 3119 1398 2916 
Q 1625 2713 2034 2713 
Q 2441 2713 2670 2916 
Q 2900 3119 2900 3481 
Q 2900 3844 2670 4047 
Q 2441 4250 2034 4250 
Q 1625 4250 1398 4047 
Q 1172 3844 1172 3481 
z
" transform="scale(0.015625)"/>
       </defs>
       <use xlink:href="#DejaVuSans-32"/>
       <use xlink:href="#DejaVuSans-30" x="63.623047"/>
       <use xlink:href="#DejaVuSans-32" x="127.246094"/>
       <use xlink:href="#DejaVuSans-30" x="190.869141"/>
       <use xlink:href="#DejaVuSans-2d" x="254.492188"/>
       <use xlink:href="#DejaVuSans-30" x="290.576172"/>
       <use xlink:href="#DejaVuSans-38" x="354.199219"/>
       <use xlink:href="#DejaVuSans-2d" x="417.822266"/>
       <use xlink:href="#DejaVuSans-30" x="453.90625"/>
       <use xlink:href="#DejaVuSans-31" x="517.529297"/>
      </g>
     </g>
    </g>
   </g>
   <g id="matplotlib.axis_2">
    <g id="ytick_1">
     <g id="line2d_7">
      <defs>
       <path id="m6a10ef3c62" d="M 0 0 
L -3.5 0 
" style="stroke: #000000; stroke-width: 0.8"/>
      </defs>
      <g>
       <use xlink:href="#m6a10ef3c62" x="72" y="316.02311" style="stroke: #000000; stroke-width: 0.8"/>
      </g>
     </g>
     <g id="text_7">
      <!-- −2 -->
      <g transform="translate(50.257812 319.822329) scale(0.1 -0.1)">
       <defs>
        <path id="DejaVuSans-2212" d="M 678 2272 
L 4684 2272 
L 4684 1741 
L 678 1741 
L 678 2272 
z
" transform="scale(0.015625)"/>
       </defs>
       <use xlink:href="#DejaVuSans-2212"/>
       <use xlink:href="#DejaVuSans-32" x="83.789062"/>
      </g>
     </g>
    </g>
    <g id="ytick_2">
     <g id="line2d_8">
      <g>
       <use xlink:href="#m6a10ef3c62" x="72" y="262.270962" style="stroke: #000000; stroke-width: 0.8"/>
      </g>
     </g>
     <g id="text_8">
      <!-- −1 -->
      <g transform="translate(50.257812 266.070181) scale(0.1 -0.1)">
       <use xlink:href="#DejaVuSans-2212"/>
       <use xlink:href="#DejaVuSans-31" x="83.789062"/>
      </g>
     </g>
    </g>
    <g id="ytick_3">
     <g id="line2d_9">
      <g>
       <use xlink:href="#m6a10ef3c62" x="72" y="208.518814" style="stroke: #000000; stroke-width: 0.8"/>
      </g>
     </g>
     <g id="text_9">
      <!-- 0 -->
      <g transform="translate(58.6375 212.318032) scale(0.1 -0.1)">
       <use xlink:href="#DejaVuSans-30"/>
      </g>
     </g>
    </g>
    <g id="ytick_4">
     <g id="line2d_10">
      <g>
       <use xlink:href="#m6a10ef3c62" x="72" y="154.766666" style="stroke: #000000; stroke-width: 0.8"/>
      </g>
     </g>
     <g id="text_10">
      <!-- 1 -->
      <g transform="translate(58.6375 158.565884) scale(0.1 -0.1)">
       <use xlink:href="#DejaVuSans-31"/>
      </g>
     </g>
    </g>
    <g id="ytick_5">
     <g id="line2d_11">
      <g>
       <use xlink:href="#m6a10ef3c62" x="72" y="101.014518" style="stroke: #000000; stroke-width: 0.8"/>
      </g>
     </g>
     <g id="text_11">
      <!-- 2 -->
      <g transform="translate(58.6375 104.813736) scale(0.1 -0.1)">
       <use xlink:href="#DejaVuSans-32"/>
      </g>
     </g>
    </g>
    <g id="ytick_6">
     <g id="line2d_12">
      <g>
       <use xlink:href="#m6a10ef3c62" x="72" y="47.262369" style="stroke: #000000; stroke-width: 0.8"/>
      </g>
     </g>
     <g id="text_12">
      <!-- 3 -->
      <g transform="translate(58.6375 51.061588) scale(0.1 -0.1)">
       <defs>
        <path id="DejaVuSans-33" d="M 2597 2516 
Q 3050 2419 3304 2112 
Q 3559 1806 3559 1356 
Q 3559 666 3084 287 
Q 2609 -91 1734 -91 
Q 1441 -91 1130 -33 
Q 819 25 488 141 
L 488 750 
Q 750 597 1062 519 
Q 1375 441 1716 441 
Q 2309 441 2620 675 
Q 2931 909 2931 1356 
Q 2931 1769 2642 2001 
Q 2353 2234 1838 2234 
L 1294 2234 
L 1294 2753 
L 1863 2753 
Q 2328 2753 2575 2939 
Q 2822 3125 2822 3475 
Q 2822 3834 2567 4026 
Q 2313 4219 1838 4219 
Q 1578 4219 1281 4162 
Q 984 4106 628 3988 
L 628 4550 
Q 988 4650 1302 4700 
Q 1616 4750 1894 4750 
Q 2613 4750 3031 4423 
Q 3450 4097 3450 3541 
Q 3450 3153 3228 2886 
Q 3006 2619 2597 2516 
z
" transform="scale(0.015625)"/>
       </defs>
       <use xlink:href="#DejaVuSans-33"/>
      </g>
     </g>
    </g>
   </g>
   <g id="line2d_13">
    <path d="M 72 287.021497 
L 72.404714 298.412757 
L 72.607072 296.682973 
L 72.809429 285.96675 
L 73.214143 254.915018 
L 73.618858 242.426821 
L 75.035358 159.101858 
L 75.237715 156.127474 
L 75.440073 161.211351 
L 75.64243 169.459468 
L 75.844787 172.771371 
L 76.047144 188.086288 
L 76.654216 258.669915 
L 77.05893 282.844701 
L 77.261287 287.232446 
L 77.463645 286.852737 
L 77.666002 276.094324 
L 78.070716 247.468508 
L 78.475431 234.938122 
L 78.677788 225.761828 
L 79.487217 168.510196 
L 79.891931 152.161627 
L 80.094288 154.123456 
L 80.903717 196.735208 
L 81.713146 272.423807 
L 82.11786 287.148066 
L 82.320218 289.194274 
L 82.522575 288.898945 
L 82.724932 286.367554 
L 82.927289 279.511703 
L 83.332004 256.412757 
L 83.736718 242.026017 
L 83.939075 238.967253 
L 84.141432 239.241487 
L 84.546147 245.675439 
L 84.748504 247.784932 
L 84.950861 247.806027 
L 85.355576 252.025013 
L 85.557933 248.670919 
L 85.76029 254.830638 
L 86.569719 300.015972 
L 86.772076 306.133501 
L 86.974433 307.736715 
L 87.176791 307.8 
L 87.379148 306.449925 
L 87.581505 302.695028 
L 87.783862 295.902461 
L 88.188577 273.731693 
L 88.390934 268.521246 
L 89.200363 260.399699 
L 89.40272 256.243998 
L 89.807434 241.372074 
L 90.212149 238.903968 
L 90.414506 236.182722 
L 90.616863 244.1777 
L 91.223935 295.037569 
L 91.628649 306.133501 
L 91.831006 306.196786 
L 92.033364 303.686489 
L 92.842792 257.277649 
L 93.04515 255.125967 
L 93.449864 246.477047 
L 93.652221 245.949674 
L 93.854578 242.996384 
L 94.056936 242.363536 
L 94.259293 239.72667 
L 94.46165 233.292717 
L 94.664007 230.423807 
L 94.866364 231.351984 
L 95.068722 234.516223 
L 95.271079 230.655851 
L 95.473436 240.823606 
L 96.080508 295.417278 
L 96.485222 304.677951 
L 96.687579 306.597589 
L 96.889937 302.230939 
L 97.699365 256.539327 
L 98.306437 245.970768 
L 98.508794 245.59106 
L 99.52058 224.242993 
L 99.722937 225.508689 
L 99.925295 229.896434 
L 100.127652 228.061175 
L 100.330009 238.27112 
L 100.937081 292.928076 
L 101.341795 305.268609 
L 101.544152 306.26007 
L 101.74651 302.526268 
L 101.948867 290.50216 
L 102.353581 260.294224 
L 102.555938 258.733199 
L 103.567724 240.844701 
L 104.377153 218.610648 
L 104.57951 219.897438 
L 104.781868 225.318835 
L 104.984225 225.29774 
L 105.186582 234.241989 
L 105.793654 289.763837 
L 106.198368 302.589553 
L 106.400725 304.361527 
L 106.603083 300.311301 
L 107.412511 254.11341 
L 107.614869 252.383626 
L 107.817226 248.692014 
L 108.22194 234.07323 
L 108.626655 212.23998 
L 108.829012 206.270116 
L 109.031369 204.371572 
L 109.638441 213.104872 
L 109.840798 218.568458 
L 110.043155 229.031542 
L 110.650227 284.405726 
L 111.054941 298.750276 
L 111.257298 300.669915 
L 111.459655 298.919036 
L 111.662013 287.443395 
L 112.066727 258.015972 
L 112.471442 242.933099 
L 113.887942 174.121447 
L 114.090299 171.73772 
L 114.292656 178.593571 
L 114.495014 190.090306 
L 114.697371 194.710095 
L 115.102085 228.926067 
L 115.709157 278.583526 
L 116.113871 292.611652 
L 116.316228 292.780412 
L 116.518586 291.113913 
L 116.720943 287.46449 
L 117.125657 260.06218 
L 118.542158 154.777398 
L 118.744515 144.609643 
L 118.946872 140.707082 
L 119.149229 144.398694 
L 119.756301 182.496133 
L 120.56573 262.319337 
L 120.970444 282.254043 
L 121.172801 286.367554 
L 121.375159 288.012958 
L 121.577516 286.557408 
L 121.779873 278.583526 
L 122.589302 227.280663 
L 123.196374 201.671421 
L 123.398731 197.072727 
L 123.601088 197.283677 
L 123.803445 196.714114 
L 124.410517 210.193772 
L 124.612874 221.226419 
L 125.219946 277.845203 
L 125.62466 292.463988 
L 125.827017 294.468006 
L 126.029374 291.91552 
L 127.04116 235.191261 
L 127.648232 197.557911 
L 128.255304 154.925063 
L 128.457661 147.330889 
L 128.660018 146.99337 
L 129.26709 191.588046 
L 130.278876 282.971271 
L 130.481233 290.839679 
L 130.68359 292.231944 
L 130.885947 289.637268 
L 132.504805 180.070216 
L 133.111877 137.142039 
L 133.314234 127.670417 
L 133.516591 129.379106 
L 133.921306 144.841688 
L 134.123663 152.309292 
L 135.135449 262.84671 
L 135.540163 275.545856 
L 135.74252 274.596585 
L 135.944878 263.943646 
L 136.349592 232.343446 
L 136.551949 225.529784 
L 136.754306 213.590055 
L 136.956664 218.188749 
L 137.159021 206.818584 
L 137.766092 197.937619 
L 137.96845 198.338423 
L 138.373164 192.895932 
L 138.777879 200.490105 
L 138.980236 201.333903 
L 139.182593 213.210347 
L 139.789665 270.187745 
L 140.194379 285.650326 
L 140.396736 287.738724 
L 140.599093 284.701055 
L 141.003808 254.303265 
L 141.408522 232.997388 
L 142.015594 219.51773 
L 142.622665 210.320342 
L 142.825023 210.046107 
L 143.02738 208.822602 
L 143.229737 209.518734 
L 143.634451 214.834656 
L 143.836809 213.590055 
L 144.039166 223.84219 
L 144.646238 273.499648 
L 145.050952 285.671421 
L 145.253309 286.979307 
L 145.455666 283.815068 
L 145.860381 253.965746 
L 146.062738 237.406228 
L 146.66981 220.825615 
L 146.872167 218.125465 
L 147.074524 217.028528 
L 147.479238 205.848217 
L 147.681596 214.370568 
L 147.883953 215.362029 
L 148.08631 217.998895 
L 148.491024 227.386138 
L 148.693382 226.014967 
L 149.098096 249.83114 
L 149.502811 278.203817 
L 149.907525 291.430337 
L 150.109882 293.518734 
L 150.312239 292.928076 
L 150.514597 290.059166 
L 150.716954 284.258061 
L 151.121668 263.036565 
L 151.526383 242.194776 
L 151.931097 236.288197 
L 152.133454 235.845203 
L 152.335811 237.849221 
L 152.538169 238.376595 
L 152.740526 236.288197 
L 152.942883 236.583526 
L 153.14524 235.592064 
L 153.347597 235.634254 
L 153.549955 232.659869 
L 153.752312 234.895932 
L 154.764098 287.253541 
L 154.966455 291.282672 
L 155.168812 292.696032 
L 155.573527 288.687996 
L 155.775884 277.423305 
L 156.78767 198.127474 
L 157.799456 154.756303 
L 158.001813 156.802511 
L 158.406528 170.23998 
L 158.608885 184.036062 
L 159.215956 253.881366 
L 159.620671 275.86228 
L 159.823028 279.131994 
L 160.025385 278.203817 
L 160.227743 268.225917 
L 160.632457 235.191261 
L 161.8466 183.993872 
L 162.251315 173.762833 
L 162.453672 173.910497 
L 162.656029 176.821597 
L 163.465458 209.20231 
L 164.072529 270.12446 
L 164.477244 289.067705 
L 164.679601 289.405224 
L 164.881958 286.114415 
L 165.084316 275.777901 
L 165.48903 243.439377 
L 166.500816 207.725665 
L 167.310245 164.038071 
L 167.512602 167.45545 
L 167.917316 188.402712 
L 168.119674 192.938122 
L 168.322031 204.498142 
L 168.929102 264.977298 
L 169.333817 280.439879 
L 169.536174 284.026017 
L 169.738531 280.292215 
L 170.143246 252.510196 
L 170.54796 221.648317 
L 171.357389 176.273129 
L 171.559746 170.134505 
L 172.166818 145.49563 
L 172.369175 147.141035 
L 172.571532 155.199297 
L 173.178604 194.878855 
L 173.785675 267.25555 
L 174.19039 287.000402 
L 174.392747 290.038071 
L 174.595104 288.181718 
L 174.999819 263.542843 
L 175.404533 238.081266 
L 177.023391 158.405726 
L 177.225748 158.933099 
L 177.428105 162.92004 
L 177.630462 179.817077 
L 177.83282 182.306278 
L 178.237534 227.238473 
L 178.642248 270.947162 
L 179.046963 290.50216 
L 179.24932 294.299247 
L 179.451677 291.725665 
L 179.654034 282.865796 
L 180.261106 242.258061 
L 181.879964 143.449422 
L 182.082321 140.116424 
L 182.284678 145.896434 
L 183.094107 203.316826 
L 183.498821 243.080763 
L 183.903536 264.956203 
L 184.30825 272.95118 
L 184.510607 274.343446 
L 184.712965 270.630738 
L 184.915322 256.98232 
L 185.724751 173.340934 
L 186.129465 151.52878 
L 186.331822 145.347966 
L 186.53418 144.567454 
L 186.736537 147.16213 
L 187.748323 188.423807 
L 188.557752 253.923556 
L 188.962466 268.394676 
L 189.164823 270.483074 
L 189.36718 270.567454 
L 189.569538 269.808036 
L 189.771895 258.796484 
L 190.986038 160.810547 
L 191.188395 155.389151 
L 191.390752 155.346961 
L 191.795467 164.692014 
L 192.604896 196.671924 
L 193.414325 261.370065 
L 193.819039 275.377097 
L 194.021396 276.474033 
L 194.426111 272.423807 
L 194.628468 263.268609 
L 195.437897 201.017479 
L 195.640254 195.891411 
L 195.842611 197.136012 
L 196.247325 203.337921 
L 196.449683 203.928579 
L 196.65204 203.527775 
L 197.056754 211.923556 
L 197.259112 212.788448 
L 197.461469 221.395178 
L 198.06854 270.841688 
L 198.473255 285.354997 
L 198.675612 285.460472 
L 198.877969 281.72667 
L 199.282684 250.231944 
L 199.687398 226.879859 
L 201.306256 158.933099 
L 201.508613 157.751783 
L 202.115684 177.39116 
L 202.318042 188.803516 
L 202.925113 254.366549 
L 203.329828 272.423807 
L 203.532185 274.57549 
L 203.734542 271.516725 
L 203.936899 259.724661 
L 204.341614 224.939126 
L 205.758114 168.995379 
L 205.960471 166.442893 
L 206.162829 166.590558 
L 206.365186 168.046107 
L 206.7699 180.175691 
L 206.972257 183.445404 
L 207.174615 194.541336 
L 207.781686 254.978302 
L 208.186401 271.516725 
L 208.388758 274.638774 
L 208.591115 271.221396 
L 208.793472 259.070718 
L 209.198187 224.475038 
L 209.805258 201.671421 
L 210.209973 181.314817 
L 210.817044 138.639779 
L 211.019402 129.948669 
L 211.221759 132.986339 
L 211.626473 158.047112 
L 211.82883 163.384129 
L 212.031188 178.467002 
L 212.638259 245.063687 
L 213.042974 264.091311 
L 213.245331 268.183727 
L 213.447688 266.432848 
L 213.650045 255.463486 
L 214.257117 211.164139 
L 214.661831 184.183727 
L 215.47126 123.409242 
L 215.875975 106.280161 
L 216.078332 105.794977 
L 216.280689 111.469513 
L 217.090118 176.779407 
L 217.697189 240.190758 
L 218.101904 259.091813 
L 218.304261 262.530286 
L 218.506618 263.922551 
L 218.708976 262.635761 
L 218.911333 249.599096 
L 219.518404 193.48659 
L 220.125476 157.435359 
L 220.327833 155.220392 
L 220.53019 157.498644 
L 221.541976 200.827624 
L 221.744334 206.101356 
L 222.553762 264.365545 
L 222.958477 275.503666 
L 223.160834 277.254545 
L 223.363191 277.613159 
L 223.565549 276.009945 
L 223.767906 267.086791 
L 224.374977 227.955701 
L 224.779692 220.192767 
L 225.386763 222.30226 
L 225.589121 225.909493 
L 225.791478 226.816575 
L 226.196192 235.40221 
L 226.398549 235.043596 
L 226.600907 241.625213 
L 227.410335 296.535309 
L 227.612693 300.669915 
L 227.81505 302.399699 
L 228.017407 299.129985 
L 228.826836 255.505676 
L 229.029193 253.121949 
L 229.23155 247.236464 
L 230.648051 182.285183 
L 230.850408 182.875841 
L 231.255122 197.64229 
L 231.45748 208.801507 
L 232.064551 274.027022 
L 232.469266 291.620191 
L 232.671623 294.404721 
L 232.87398 293.160121 
L 233.278694 267.25555 
L 233.683409 244.1777 
L 235.302267 178.024008 
L 235.504624 177.412255 
L 236.111695 196.988348 
L 236.314053 207.599096 
L 236.921124 271.242491 
L 237.325839 287.50668 
L 237.528196 290.713109 
L 237.730553 288.540331 
L 238.135267 264.006931 
L 238.539982 241.688498 
L 239.349411 210.003918 
L 239.754125 199.751783 
L 240.15884 189.288699 
L 240.361197 189.03556 
L 240.563554 194.625716 
L 240.968268 212.661878 
L 241.170626 220.424812 
L 241.777697 277.31783 
L 242.182412 293.560924 
L 242.384769 296.11341 
L 242.587126 293.054646 
L 242.99184 267.740733 
L 243.396555 249.345957 
L 245.21777 172.876846 
L 245.420127 177.222401 
L 246.027199 204.666901 
L 246.836627 279.933601 
L 247.038985 288.498142 
L 247.241342 291.74676 
L 247.443699 289.152084 
L 247.848413 265.019488 
L 249.467271 150.305274 
L 249.669628 142.036062 
L 249.871985 140.053139 
L 250.074343 140.221899 
L 250.2767 147.330889 
L 250.883772 180.21788 
L 251.6932 257.003415 
L 252.097915 271.875339 
L 252.300272 275.018483 
L 252.502629 275.292717 
L 252.704986 271.326871 
L 253.109701 237.785937 
L 253.91913 162.814566 
L 254.323844 146.634756 
L 254.728558 137.606128 
L 254.930916 136.319337 
L 255.133273 143.997891 
L 255.740345 182.369563 
L 256.549773 259.387142 
L 256.954488 275.229432 
L 257.156845 279.131994 
L 257.359202 280.840683 
L 257.561559 279.849221 
L 257.966274 250.274134 
L 258.573345 198.675942 
L 258.97806 176.484078 
L 259.382774 165.198292 
L 259.585131 161.675439 
L 259.787489 161.232446 
L 259.989846 163.911502 
L 260.39456 180.281165 
L 260.596917 193.950678 
L 261.203989 257.425314 
L 261.608704 276.579508 
L 261.811061 279.574987 
L 262.013418 278.77338 
L 262.418132 254.23998 
L 262.62049 241.941637 
L 263.025204 232.048117 
L 263.227561 229.179206 
L 263.429918 228.145555 
L 263.834633 229.45344 
L 264.03699 229.137017 
L 264.239347 230.107383 
L 264.441704 230.191763 
L 264.644062 229.917529 
L 264.846419 232.005927 
L 265.048776 236.140532 
L 265.251133 236.140532 
L 265.45349 240.254043 
L 266.060562 283.730688 
L 266.465277 296.872828 
L 266.667634 298.454947 
L 266.869991 294.172677 
L 267.072348 286.030035 
L 267.477063 258.901959 
L 268.084134 236.203817 
L 268.488849 225.677449 
L 269.09592 214.159618 
L 269.500635 210.109392 
L 269.702992 212.345455 
L 269.905349 216.037067 
L 270.107706 216.733199 
L 270.310063 223.188247 
L 270.917135 273.204319 
L 271.32185 285.460472 
L 271.524207 287.654345 
L 271.726564 285.903466 
L 274.15485 140.960221 
L 274.357208 133.619186 
L 274.559565 137.036565 
L 275.166636 162.793471 
L 275.976065 246.308287 
L 276.38078 259.176193 
L 276.583137 258.458965 
L 276.987851 236.098343 
L 277.392566 206.50216 
L 278.404352 148.195781 
L 278.606709 145.073732 
L 279.011423 131.530789 
L 279.213781 129.885384 
L 279.416138 134.252034 
L 280.023209 176.969262 
L 280.630281 250.020994 
L 281.034995 273.351984 
L 281.237353 278.351482 
L 281.43971 276.769362 
L 281.642067 270.736213 
L 282.249139 227.976796 
L 282.85621 193.52878 
L 283.867996 149.714616 
L 284.070354 148.49111 
L 284.272711 156.844701 
L 285.284497 241.920542 
L 285.689211 274.870819 
L 286.093926 289.974787 
L 286.296283 292.316323 
L 286.49864 290.45997 
L 286.700997 287.443395 
L 287.105712 255.674435 
L 287.712783 202.873832 
L 288.522212 158.384631 
L 288.724569 151.085786 
L 288.926927 149.102863 
L 289.129284 152.77338 
L 289.736355 187.411251 
L 290.545784 259.197288 
L 290.950499 274.849724 
L 291.152856 277.697539 
L 291.355213 277.781919 
L 291.55757 276.263084 
L 291.759927 263.479558 
L 292.771714 162.392667 
L 293.176428 139.863285 
L 293.581142 128.345455 
L 293.7835 126.573481 
L 293.985857 130.180713 
L 294.592928 156.338423 
L 295.402357 241.667403 
L 295.807072 256.729181 
L 296.009429 256.560422 
L 296.414143 235.760824 
L 297.830644 97.293722 
L 298.235358 83.645304 
L 298.437715 80.987343 
L 298.640073 81.261577 
L 298.84243 83.37107 
L 299.044787 91.619186 
L 299.449501 119.295731 
L 300.056573 200.363536 
L 300.461287 226.268106 
L 300.663645 232.44892 
L 300.866002 233.187243 
L 301.068359 226.183727 
L 301.473073 195.342943 
L 302.484859 87.273631 
L 302.687217 75.650326 
L 302.889574 75.755801 
L 303.091931 84.067202 
L 303.496646 92.948167 
L 303.90136 115.793973 
L 304.306074 144.483074 
L 304.913146 215.551883 
L 305.31786 241.583024 
L 305.520218 247.299749 
L 305.722575 245.46449 
L 305.924932 238.14455 
L 306.532004 197.114917 
L 307.54379 125.223405 
L 307.746147 114.739227 
L 307.948504 113.832145 
L 308.757933 146.972275 
L 309.162647 173.741738 
L 309.769719 238.439879 
L 310.174433 258.859769 
L 310.376791 263.374083 
L 310.579148 262.783425 
L 310.983862 238.735208 
L 312.198005 131.889402 
L 312.60272 119.949674 
L 312.805077 115.456454 
L 313.007434 116.026017 
L 313.209791 119.823104 
L 313.816863 148.153591 
L 314.01922 162.202813 
L 314.626292 226.479056 
L 315.031006 247.531793 
L 315.233364 252.235962 
L 315.435721 251.560924 
L 315.840435 232.280161 
L 316.24515 213.062682 
L 316.649864 200.72215 
L 317.054578 185.006429 
L 317.66165 177.285686 
L 317.864007 176.821597 
L 318.066364 175.89342 
L 318.268722 180.703064 
L 318.875793 203.443395 
L 319.685222 263.627223 
L 320.089937 276.748267 
L 320.292294 278.435861 
L 320.697008 270.293219 
L 321.101723 243.354997 
L 322.315866 163.320844 
L 322.72058 152.794475 
L 322.922937 150.410748 
L 323.125295 154.650829 
L 323.732366 183.023506 
L 324.541795 253.417278 
L 324.94651 268.099347 
L 325.148867 271.073732 
L 325.351224 271.137017 
L 325.553581 268.816575 
L 325.755938 256.159618 
L 326.970082 140.707082 
L 327.172439 134.209844 
L 327.374796 132.585535 
L 327.77951 126.86881 
L 327.981868 131.994877 
L 328.184225 141.023506 
L 328.791296 194.077248 
L 329.196011 238.988348 
L 329.398368 254.640784 
L 329.803083 265.019488 
L 330.00544 264.049121 
L 330.207797 258.290206 
L 330.814869 208.463988 
L 331.42194 169.206328 
L 331.826655 145.917529 
L 332.029012 142.943144 
L 332.231369 142.964239 
L 332.433726 143.154093 
L 332.636083 145.305776 
L 332.838441 149.967755 
L 333.243155 173.509694 
L 333.445512 182.770367 
L 334.052584 250.274134 
L 334.457298 272.655851 
L 334.659655 278.224912 
L 334.862013 275.756806 
L 335.266727 255.379106 
L 335.671442 230.360522 
L 336.48087 189.16213 
L 336.683228 183.951683 
L 336.885585 182.812557 
L 337.087942 176.462983 
L 337.290299 174.56444 
L 337.695014 181.209342 
L 338.099728 196.060171 
L 338.302085 202.09332 
L 339.111514 269.702562 
L 339.313871 276.07323 
L 339.516228 278.372577 
L 339.718586 274.195781 
L 340.1233 250.210849 
L 340.932729 204.540331 
L 342.349229 141.107885 
L 342.551587 141.023506 
L 343.158658 166.379608 
L 343.76573 230.845706 
L 344.170444 249.345957 
L 344.372801 254.23998 
L 344.575159 252.046107 
L 344.777516 244.937117 
L 345.18223 213.210347 
L 346.194016 128.32436 
L 346.598731 113.157107 
L 347.003445 106.36454 
L 347.205802 105.499648 
L 347.40816 108.769362 
L 347.610517 116.827624 
L 348.015231 143.639277 
L 348.82466 237.237469 
L 349.229374 254.809543 
L 349.431732 254.029031 
L 349.634089 248.080261 
L 349.836446 236.646811 
L 351.050589 129.379106 
L 351.455304 110.520241 
L 351.860018 101.428327 
L 352.062375 100.500151 
L 352.264733 104.233953 
L 352.46709 115.625213 
L 353.276519 200.975289 
L 353.681233 239.937619 
L 354.085947 260.673933 
L 354.288305 266.095329 
L 354.490662 266.685987 
L 354.693019 264.38664 
L 355.097733 221.205324 
L 355.704805 145.369061 
L 356.109519 119.991863 
L 356.716591 101.301758 
L 356.918948 100.183727 
L 357.121306 105.11994 
L 357.52602 131.446409 
L 357.728377 144.483074 
L 358.740163 242.574485 
L 359.144878 255.906479 
L 359.347235 257.826118 
L 359.549592 257.488599 
L 359.751949 243.101858 
L 360.763735 119.169161 
L 361.16845 99.571974 
L 361.573164 88.159618 
L 361.775521 85.796986 
L 361.977879 89.172175 
L 362.180236 96.365545 
L 362.58495 122.860773 
L 363.394379 214.054144 
L 363.799093 232.195781 
L 364.001451 233.039578 
L 364.203808 226.985334 
L 364.406165 216.64882 
L 365.013237 145.137017 
L 365.620308 78.772376 
L 366.025023 62.149573 
L 366.429737 55.8 
L 366.632094 56.306278 
L 366.834451 59.027524 
L 367.036809 67.992868 
L 367.441523 98.010949 
L 368.048595 179.901457 
L 368.453309 211.290708 
L 368.655666 220.066198 
L 368.858024 222.513209 
L 369.060381 218.505173 
L 369.262738 208.358513 
L 369.86981 143.006429 
L 370.476881 83.160121 
L 370.881596 66.052135 
L 371.083953 65.588046 
L 371.28631 66.326369 
L 371.488667 70.376595 
L 371.691024 76.789453 
L 372.298096 116.912004 
L 373.107525 204.413762 
L 373.512239 227.301758 
L 373.714597 231.794977 
L 374.119311 231.07775 
L 374.321668 217.956705 
L 375.333454 111.047614 
L 375.738169 97.399196 
L 375.940526 94.614666 
L 376.142883 93.47554 
L 376.34524 98.812557 
L 376.749955 125.835158 
L 377.559383 186.504169 
L 377.964098 222.196786 
L 378.368812 236.414766 
L 378.57117 236.646811 
L 378.773527 230.529282 
L 378.975884 218.969262 
L 380.392384 98.791462 
L 380.797099 88.560422 
L 381.201813 80.734204 
L 381.40417 84.615671 
L 382.011242 122.776394 
L 382.820671 208.189754 
L 383.225385 224.791462 
L 383.427743 225.466499 
L 383.6301 219.960723 
L 384.034814 197.030537 
L 385.0466 121.320844 
L 385.451315 104.107383 
L 385.653672 103.6222 
L 385.856029 107.524761 
L 386.058386 115.393169 
L 387.070172 187.558915 
L 387.474887 228.926067 
L 387.879601 251.497639 
L 388.284316 260.927072 
L 388.68903 263.521748 
L 388.891387 257.594073 
L 389.700816 212.682973 
L 390.307888 201.122953 
L 390.914959 187.980814 
L 391.117316 192.917027 
L 391.926745 233.735711 
L 392.533817 279.321848 
L 392.938531 292.084279 
L 393.140888 294.003918 
L 393.343246 293.539829 
L 393.545603 294.025013 
L 393.74796 284.785434 
L 394.355032 242.321346 
L 395.569175 184.057157 
L 395.771532 177.855249 
L 395.973889 179.099849 
L 396.176247 187.685485 
L 396.783318 231.056655 
L 397.188033 270.799498 
L 397.592747 289.194274 
L 397.795104 292.063184 
L 397.997461 289.447413 
L 398.402176 270.736213 
L 400.628105 139.061678 
L 400.830462 141.993872 
L 401.03282 152.267102 
L 401.639891 211.121949 
L 402.044606 256.876846 
L 402.44932 277.845203 
L 402.651677 281.979809 
L 402.854034 280.27112 
L 403.258749 261.496635 
L 403.663463 232.174686 
L 404.877607 122.755299 
L 405.282321 101.575992 
L 405.484678 97.230437 
L 405.687035 98.348468 
L 405.889393 109.191261 
L 406.294107 147.752788 
L 406.901179 227.639277 
L 407.305893 252.468006 
L 407.50825 258.248016 
L 407.710607 257.699548 
L 408.115322 235.781919 
L 409.73418 99.276645 
L 409.936537 94.192767 
L 410.138894 94.045103 
L 410.341251 98.791462 
L 410.948323 136.045103 
L 411.15068 152.456956 
L 411.757752 225.29774 
L 412.162466 250.126469 
L 412.364823 256.813561 
L 412.56718 258.64882 
L 412.971895 240.021999 
L 414.388395 138.808538 
L 414.79311 124.843697 
L 415.197824 117.96675 
L 415.400181 124.949171 
L 416.20961 189.478553 
L 416.614325 236.140532 
L 417.019039 259.93561 
L 417.221396 264.323355 
L 417.423753 263.753792 
L 417.828468 247.0888 
L 419.244968 146.276143 
L 419.649683 132.248016 
L 419.85204 128.303265 
L 420.054397 129.77991 
L 420.256754 138.703064 
L 421.066183 205.974787 
L 421.673255 262.720141 
L 422.077969 279.279658 
L 422.280326 281.832145 
L 422.482684 281.157107 
L 422.685041 280.988348 
L 423.089755 249.324862 
L 423.899184 178.234957 
L 424.708613 137.774887 
L 424.91097 134.505173 
L 425.113327 138.618684 
L 425.518042 165.493621 
L 425.720399 177.623204 
L 426.529828 254.345455 
L 426.934542 273.436364 
L 427.136899 278.035058 
L 427.339257 278.85776 
L 427.541614 279.089804 
L 427.743971 270.25103 
L 428.148685 228.778403 
L 428.755757 165.177197 
L 429.160471 138.829633 
L 429.565186 130.349473 
L 429.9699 134.378604 
L 430.374615 151.043596 
L 430.576972 163.00442 
L 431.386401 241.076745 
L 431.791115 253.649322 
L 431.993472 251.560924 
L 432.398187 230.698041 
L 433.207616 163.827122 
L 434.017044 91.534807 
L 434.219402 86.514214 
L 435.02883 114.675942 
L 435.433545 140.348468 
L 436.040617 213.484581 
L 436.445331 236.625716 
L 436.647688 241.899448 
L 436.850045 241.203315 
L 437.25476 220.045103 
L 437.659474 184.183727 
L 438.468903 108.727172 
L 438.67126 98.728177 
L 438.873617 99.719638 
L 439.075975 107.018483 
L 439.278332 106.554395 
L 439.480689 108.853742 
L 439.885403 127.902461 
L 440.290118 153.321848 
L 440.897189 228.715118 
L 441.301904 251.624209 
L 441.504261 257.19327 
L 441.706618 257.741738 
L 442.111333 242.616675 
L 442.920762 189.204319 
L 443.527833 153.406228 
L 444.134905 130.054144 
L 444.337262 127.396183 
L 444.539619 133.9778 
L 445.146691 180.238975 
L 445.753762 251.265595 
L 446.158477 273.03556 
L 446.360834 278.119437 
L 446.563191 276.07323 
L 446.967906 256.665897 
L 448.586763 143.955701 
L 448.991478 130.412757 
L 449.193835 128.029031 
L 449.396192 134.863787 
L 450.003264 176.315319 
L 450.812693 258.48006 
L 451.217407 272.128478 
L 451.419764 272.255048 
L 451.824479 254.619689 
L 452.43155 202.873832 
L 453.038622 159.861276 
L 453.443336 142.373581 
L 453.848051 134.294224 
L 454.050408 137.753792 
L 454.252765 148.005927 
L 454.65748 177.159116 
L 454.859837 185.829131 
L 455.669266 252.257057 
L 456.07398 266.158614 
L 456.276337 267.719638 
L 456.478694 265.67343 
L 456.681052 262.488096 
L 456.883409 254.28217 
L 457.288123 226.563435 
L 457.692838 215.319839 
L 457.895195 216.037067 
L 458.299909 221.943646 
L 458.502267 221.795982 
L 458.906981 217.872325 
L 459.109338 218.420794 
L 459.514053 222.681969 
L 459.71641 227.090809 
L 460.728196 286.304269 
L 461.13291 290.839679 
L 461.537625 287.443395 
L 461.739982 278.288197 
L 462.144696 242.890909 
L 463.561197 171.927574 
L 463.763554 164.481065 
L 463.965911 165.683476 
L 464.572983 185.660372 
L 465.382412 254.366549 
L 465.584769 261.454445 
L 465.787126 264.238975 
L 465.989483 261.749774 
L 467.608341 166.822602 
L 468.620127 145.094827 
L 468.822484 148.301256 
L 469.429556 175.218383 
L 470.036627 233.398192 
L 470.441342 251.645304 
L 470.643699 254.345455 
L 470.846056 251.708589 
L 471.857842 199.477549 
L 472.869628 168.446911 
L 473.071985 168.953189 
L 473.274343 167.117931 
L 473.4767 168.404721 
L 473.679057 172.286188 
L 473.881414 179.036565 
L 474.083772 180.21788 
L 474.286129 188.086288 
L 474.8932 241.540834 
L 475.297915 258.205826 
L 475.500272 259.914515 
L 475.702629 257.826118 
L 476.107344 232.828629 
L 476.512058 210.257057 
L 477.321487 177.960723 
L 477.726201 157.287695 
L 477.928558 153.638272 
L 478.333273 158.447916 
L 478.53563 163.025515 
L 479.142702 188.592567 
L 479.952131 258.100352 
L 480.356845 268.204822 
L 480.559202 267.782923 
L 480.963917 245.126971 
L 482.785131 113.452436 
L 482.987489 107.398192 
L 483.189846 104.698041 
L 483.392203 110.478051 
L 483.999275 151.36002 
L 484.606346 224.285183 
L 485.011061 248.101356 
L 485.213418 252.615671 
L 485.415775 253.586037 
L 485.82049 233.313812 
L 486.225204 201.312808 
L 487.23699 109.043596 
L 487.439347 105.879357 
L 487.844062 112.608639 
L 488.248776 131.699548 
L 489.260562 211.206328 
L 489.665277 244.1777 
L 490.069991 259.661376 
L 490.272348 262.066198 
L 490.474705 260.905977 
L 490.677063 259.091813 
L 490.87942 249.113913 
L 491.891206 167.37107 
L 492.29592 149.208338 
L 492.498277 141.635259 
L 492.700635 139.567956 
L 492.902992 141.234455 
L 493.105349 146.170668 
L 493.712421 180.534304 
L 494.52185 254.345455 
L 495.128921 273.07775 
L 495.331278 273.225414 
L 495.533636 272.592567 
L 495.735993 264.850728 
L 496.950136 171.041587 
L 497.557208 146.065193 
L 497.759565 142.62672 
L 497.961922 145.917529 
L 498.568994 178.213862 
L 499.378422 253.881366 
L 499.58078 260.884882 
L 499.783137 263.437368 
L 499.985494 260.041085 
L 500.187851 251.307785 
L 500.794923 213.463486 
L 500.99728 208.231944 
L 501.401995 194.81557 
L 501.806709 183.276645 
L 502.009066 182.812557 
L 502.211423 184.922049 
L 502.413781 185.575992 
L 502.616138 183.867303 
L 503.020852 193.824108 
L 503.223209 194.393672 
L 503.425567 202.09332 
L 504.032638 254.050126 
L 504.437353 267.445404 
L 504.63971 269.111904 
L 504.842067 266.685987 
L 505.246782 241.709593 
L 505.651496 217.302762 
L 507.270354 142.331391 
L 507.472711 139.146057 
L 507.675068 142.62672 
L 508.28214 171.358011 
L 508.889211 230.824611 
L 509.293926 248.37559 
L 509.496283 251.982823 
L 509.69864 250.105374 
L 510.103354 225.972777 
L 511.722212 116.954194 
L 512.126927 98.749272 
L 512.329284 100.373581 
L 512.936355 135.602109 
L 513.34107 175.513712 
L 513.745784 220.066198 
L 514.150499 243.354997 
L 514.352856 249.071723 
L 514.555213 249.578001 
L 514.75757 240.464992 
L 516.174071 141.29774 
L 516.376428 140.179709 
L 516.781142 149.735711 
L 516.9835 146.930085 
L 517.185857 147.478553 
L 517.590571 165.620191 
L 517.792928 169.965746 
L 517.995286 180.935108 
L 518.4 221.585033 
L 518.4 221.585033 
" clip-path="url(#p28dd02112e)" style="fill: none; stroke: #1f77b4; stroke-width: 1.5; stroke-linecap: square"/>
   </g>
   <g id="line2d_14">
    <path d="M 72 252.60608 
L 72.202357 252.60608 
L 72.404714 253.733416 
L 72.809429 257.192156 
L 73.011786 256.368849 
L 73.4165 248.867668 
L 74.225929 228.939901 
L 75.237715 175.573211 
L 75.440073 172.89088 
L 75.64243 173.040706 
L 76.047144 183.533327 
L 76.249501 193.669618 
L 76.856573 237.237496 
L 77.261287 249.555297 
L 77.463645 252.146753 
L 77.666002 250.58988 
L 78.070716 239.897855 
L 78.475431 227.787966 
L 78.880145 216.708885 
L 79.689574 181.091109 
L 79.891931 175.764028 
L 80.094288 173.399348 
L 80.296646 173.360889 
L 80.499003 177.487708 
L 80.903717 197.232086 
L 81.713146 256.080481 
L 82.11786 265.580016 
L 82.320218 266.643166 
L 82.522575 264.820377 
L 82.724932 261.839098 
L 83.332004 245.617439 
L 83.534361 242.080759 
L 83.939075 230.713912 
L 84.34379 227.157624 
L 84.546147 228.003649 
L 84.950861 232.623093 
L 85.153218 234.542184 
L 85.557933 242.418992 
L 85.962647 254.032325 
L 86.772076 285.249743 
L 86.974433 288.349777 
L 87.176791 286.473015 
L 87.581505 279.305922 
L 88.188577 254.703518 
L 88.593291 243.579334 
L 88.795648 240.336946 
L 88.998005 239.445512 
L 89.605077 242.039877 
L 89.807434 240.756622 
L 90.009791 241.097092 
L 90.212149 240.543974 
L 90.616863 243.600775 
L 90.81922 248.972755 
L 91.426292 275.990773 
L 91.831006 283.676517 
L 92.033364 281.892669 
L 92.438078 267.739033 
L 93.247507 229.583113 
L 93.449864 227.25749 
L 93.652221 227.706474 
L 93.854578 229.552847 
L 94.056936 230.370008 
L 94.259293 231.858124 
L 94.866364 226.976456 
L 95.068722 228.218961 
L 95.675793 242.87368 
L 96.282865 275.360552 
L 96.485222 278.905399 
L 96.687579 278.556855 
L 96.889937 276.575404 
L 97.294651 261.959949 
L 97.699365 241.492284 
L 98.10408 231.269626 
L 98.306437 229.978808 
L 98.508794 232.340136 
L 98.711151 236.206161 
L 98.913509 237.187829 
L 99.115866 236.782032 
L 99.318223 234.08763 
L 99.722937 226.718008 
L 99.925295 228.127942 
L 100.330009 239.076015 
L 100.532366 245.080486 
L 101.341795 283.578203 
L 101.544152 282.761983 
L 101.74651 279.728193 
L 101.948867 274.573365 
L 102.353581 254.250445 
L 102.758296 239.163398 
L 103.16301 234.957429 
L 103.365367 235.18322 
L 103.567724 236.624645 
L 103.770082 236.054746 
L 104.174796 233.096078 
L 104.57951 226.653091 
L 104.781868 227.576295 
L 105.388939 246.461216 
L 105.996011 277.286076 
L 106.198368 280.889881 
L 106.400725 280.352609 
L 106.603083 278.501005 
L 107.007797 266.594595 
L 107.412511 246.59674 
L 107.817226 236.150183 
L 108.22194 233.492278 
L 108.424297 234.061005 
L 109.233726 213.489314 
L 109.436083 214.431599 
L 109.638441 217.267393 
L 110.245512 244.271852 
L 110.852584 275.577159 
L 111.054941 279.298482 
L 111.257298 278.575604 
L 111.459655 276.041459 
L 111.662013 272.100894 
L 112.066727 255.82797 
L 112.673799 234.295511 
L 113.887942 194.962903 
L 114.292656 187.604456 
L 114.495014 192.636431 
L 115.304442 247.015288 
L 115.709157 266.858787 
L 115.911514 271.205167 
L 116.113871 271.707445 
L 116.316228 269.971341 
L 116.518586 267.246155 
L 116.9233 255.816244 
L 117.732729 226.291247 
L 118.137443 199.762198 
L 118.542158 178.868605 
L 118.946872 164.812841 
L 119.149229 162.631641 
L 119.351587 165.671845 
L 119.958658 205.01055 
L 120.363373 245.396305 
L 120.768087 261.72051 
L 121.172801 266.817264 
L 121.375159 266.258963 
L 121.577516 263.585276 
L 121.779873 259.077997 
L 122.791659 215.546686 
L 122.994016 210.7183 
L 123.398731 196.211029 
L 123.601088 196.644053 
L 124.005802 202.711859 
L 124.410517 219.272539 
L 125.62466 276.080834 
L 125.827017 280.106026 
L 126.029374 278.885266 
L 126.434089 268.393784 
L 128.457661 173.892912 
L 128.660018 170.102609 
L 128.862375 168.81688 
L 129.064733 175.418765 
L 129.469447 205.041278 
L 129.874161 245.17987 
L 130.278876 271.223999 
L 130.481233 273.146243 
L 130.68359 273.514298 
L 131.088305 262.186328 
L 132.707162 177.492872 
L 133.111877 159.931861 
L 133.314234 155.634218 
L 133.718948 152.487562 
L 133.921306 156.244172 
L 134.32602 182.574192 
L 135.135449 258.656462 
L 135.337806 265.225443 
L 135.540163 265.730131 
L 135.74252 262.897647 
L 136.147235 249.32745 
L 136.551949 228.09187 
L 136.754306 221.905092 
L 136.956664 208.617854 
L 137.766092 188.14075 
L 138.170807 194.900515 
L 138.980236 217.424893 
L 139.38495 233.940182 
L 139.992022 269.865254 
L 140.194379 274.2275 
L 140.396736 273.433855 
L 140.599093 270.574951 
L 141.206165 244.506953 
L 141.610879 225.377761 
L 142.420308 209.671474 
L 142.622665 210.198942 
L 142.825023 210.319484 
L 143.02738 216.402094 
L 143.229737 216.281516 
L 143.634451 221.295091 
L 144.241523 241.49898 
L 144.848595 273.646977 
L 145.050952 275.785616 
L 145.253309 274.673788 
L 145.455666 270.162702 
L 145.860381 253.16128 
L 146.467452 222.71533 
L 146.872167 215.481378 
L 147.074524 214.509226 
L 147.276881 215.006002 
L 147.681596 209.129952 
L 148.693382 232.558033 
L 149.098096 246.402982 
L 149.705168 275.678248 
L 149.907525 279.49909 
L 150.109882 276.806481 
L 150.716954 261.293978 
L 151.72874 230.904938 
L 151.931097 228.568272 
L 152.133454 228.67776 
L 152.335811 229.394658 
L 152.538169 231.997427 
L 152.942883 239.505533 
L 153.14524 241.08427 
L 153.954669 252.75021 
L 154.561741 271.241191 
L 154.966455 278.311464 
L 155.168812 278.424215 
L 155.37117 276.6547 
L 155.573527 272.293896 
L 156.180598 247.820218 
L 157.192384 201.911747 
L 157.597099 182.999503 
L 158.001813 174.550822 
L 158.20417 176.894542 
L 158.811242 201.416648 
L 159.215956 240.805417 
L 159.620671 257.496172 
L 159.823028 262.030921 
L 160.025385 263.117971 
L 160.227743 260.499173 
L 160.632457 245.373333 
L 161.037171 221.941044 
L 161.239529 216.485396 
L 161.644243 193.073962 
L 161.8466 189.130104 
L 162.048957 182.351974 
L 162.251315 179.719234 
L 162.453672 181.841436 
L 162.858386 189.115289 
L 163.263101 208.861682 
L 163.870172 242.241504 
L 164.274887 266.479101 
L 164.477244 271.187591 
L 164.679601 272.539922 
L 164.881958 270.756317 
L 165.286673 257.147084 
L 165.893744 231.294044 
L 166.703173 211.606796 
L 167.310245 188.350428 
L 167.714959 179.595853 
L 167.917316 185.22227 
L 169.333817 276.216557 
L 169.536174 276.628646 
L 169.940888 263.608677 
L 170.345603 242.568174 
L 171.559746 174.549886 
L 171.964461 162.873239 
L 172.369175 158.89863 
L 172.571532 160.202723 
L 172.773889 166.965347 
L 173.988033 262.475696 
L 174.19039 267.573764 
L 174.392747 267.736245 
L 174.595104 264.131998 
L 174.797461 258.282249 
L 175.60689 221.300729 
L 175.809248 218.710361 
L 176.618676 182.726376 
L 176.821034 179.14938 
L 177.023391 179.93233 
L 177.225748 179.091242 
L 177.428105 177.393674 
L 177.630462 181.897498 
L 178.844606 271.616269 
L 179.046963 276.948752 
L 179.24932 275.381518 
L 179.451677 271.649654 
L 179.856392 258.53253 
L 181.070535 199.714161 
L 181.475249 174.239424 
L 182.082321 164.187251 
L 182.284678 161.474233 
L 182.487035 165.447542 
L 183.094107 210.136769 
L 183.498821 248.20401 
L 183.701179 257.681618 
L 183.903536 260.094536 
L 184.105893 260.901138 
L 184.30825 257.579806 
L 184.915322 239.313153 
L 185.522393 210.628447 
L 186.129465 159.462185 
L 186.331822 150.863683 
L 186.53418 148.21464 
L 186.736537 153.521632 
L 186.938894 155.4969 
L 187.343608 170.932074 
L 187.748323 202.355208 
L 187.95068 211.737574 
L 188.355394 239.226232 
L 188.760109 254.591049 
L 188.962466 259.096207 
L 189.164823 259.139684 
L 189.36718 257.144585 
L 189.569538 252.132105 
L 189.974252 233.627132 
L 190.783681 183.685675 
L 191.188395 161.142504 
L 191.390752 157.564516 
L 191.59311 160.188408 
L 192.200181 182.542787 
L 193.414325 251.438068 
L 193.819039 261.33302 
L 194.021396 262.693412 
L 194.223753 260.904136 
L 194.426111 257.051441 
L 194.830825 240.499319 
L 195.437897 208.790583 
L 195.842611 188.604848 
L 196.044968 185.646884 
L 196.247325 188.918879 
L 196.65204 202.677086 
L 196.854397 207.154117 
L 198.06854 255.409781 
L 198.473255 269.44338 
L 198.675612 273.541101 
L 198.877969 272.27523 
L 199.282684 257.777075 
L 200.092112 214.759137 
L 200.699184 191.614288 
L 201.103898 179.413943 
L 201.508613 175.036613 
L 201.71097 174.028974 
L 201.913327 177.071139 
L 202.520399 205.500871 
L 202.925113 247.499176 
L 203.127471 258.087902 
L 203.329828 262.776406 
L 203.532185 263.586544 
L 203.734542 260.481013 
L 204.139257 242.251295 
L 205.151043 192.528499 
L 205.758114 174.075552 
L 205.960471 171.337884 
L 206.365186 175.441103 
L 206.567543 176.138016 
L 206.7699 180.809552 
L 207.174615 205.74237 
L 207.984044 259.993062 
L 208.186401 265.884885 
L 208.388758 266.203587 
L 208.591115 262.77076 
L 208.793472 256.278929 
L 210.007616 198.140659 
L 210.209973 193.14553 
L 211.221759 151.348884 
L 211.424116 148.857792 
L 211.626473 155.296581 
L 212.435902 222.605549 
L 212.638259 243.281008 
L 212.840617 252.588132 
L 213.042974 256.723211 
L 213.245331 256.161763 
L 213.650045 245.41011 
L 214.257117 221.500836 
L 215.066546 161.531961 
L 215.673617 132.077054 
L 216.078332 128.943616 
L 216.280689 129.237752 
L 216.483046 133.30701 
L 217.090118 179.714966 
L 217.292475 194.832353 
L 217.697189 238.663926 
L 217.899547 242.33384 
L 218.101904 243.54008 
L 218.304261 242.371299 
L 218.506618 240.068442 
L 219.11369 224.97507 
L 219.316047 217.92917 
L 220.125476 163.020886 
L 220.327833 154.12029 
L 220.53019 152.174556 
L 220.934905 164.949621 
L 221.137262 172.539671 
L 222.149048 237.420885 
L 222.553762 253.327478 
L 222.75612 257.83511 
L 222.958477 259.470395 
L 223.565549 253.728206 
L 223.767906 248.859133 
L 224.17262 230.34788 
L 224.577335 212.258009 
L 224.982049 208.794966 
L 225.184406 207.901436 
L 225.386763 210.542259 
L 225.791478 224.772607 
L 225.993835 227.613954 
L 227.005621 252.911666 
L 227.410335 267.668925 
L 227.81505 274.763784 
L 228.017407 274.798937 
L 228.219764 270.381815 
L 228.624479 254.784865 
L 229.23155 228.236608 
L 229.433908 225.859513 
L 229.636265 225.412403 
L 229.838622 224.08491 
L 230.243336 214.320188 
L 230.648051 203.791404 
L 230.850408 199.87501 
L 231.052765 199.806854 
L 231.255122 204.14987 
L 231.659837 227.109362 
L 232.266908 273.326474 
L 232.469266 275.69601 
L 232.671623 275.12069 
L 232.87398 270.894916 
L 233.278694 255.181344 
L 233.885766 227.377475 
L 234.088123 221.713407 
L 234.290481 220.563143 
L 234.492838 216.202264 
L 235.099909 194.675014 
L 235.706981 187.880137 
L 235.909338 191.52186 
L 237.123481 270.226158 
L 237.325839 276.279834 
L 237.528196 276.0911 
L 237.93291 266.535778 
L 238.944696 226.635867 
L 239.956482 199.635773 
L 240.15884 200.837692 
L 240.361197 201.038366 
L 240.563554 201.806863 
L 240.765911 206.540632 
L 242.182412 279.397758 
L 242.384769 279.638914 
L 242.587126 277.594423 
L 242.99184 264.707037 
L 243.801269 228.280158 
L 244.205984 218.913406 
L 244.408341 212.928308 
L 244.813055 195.353427 
L 245.21777 192.240992 
L 245.420127 189.606514 
L 245.622484 190.938773 
L 247.038985 275.127835 
L 247.241342 275.694754 
L 247.443699 273.587051 
L 247.848413 260.172826 
L 249.062557 195.471642 
L 249.669628 157.729567 
L 249.871985 155.829706 
L 250.2767 157.662631 
L 250.479057 163.367475 
L 251.895558 258.358534 
L 252.097915 260.027267 
L 252.300272 258.735105 
L 252.704986 250.332096 
L 253.312058 224.960992 
L 253.716772 199.65874 
L 254.121487 167.8535 
L 254.526201 152.437415 
L 254.930916 156.69317 
L 255.133273 157.623115 
L 255.33563 162.69486 
L 256.752131 258.079886 
L 256.954488 262.920932 
L 257.156845 264.601956 
L 257.359202 262.218034 
L 257.763917 250.954501 
L 259.382774 167.227917 
L 259.989846 175.156662 
L 260.192203 180.489363 
L 260.596917 199.140011 
L 261.406346 257.700432 
L 261.811061 268.129079 
L 262.013418 267.853488 
L 262.418132 256.808773 
L 262.822847 234.544196 
L 263.025204 222.028232 
L 263.632276 209.553655 
L 264.03699 210.971629 
L 264.239347 211.754293 
L 264.441704 215.591429 
L 264.846419 224.828036 
L 265.048776 227.375867 
L 265.45349 238.487758 
L 265.858205 257.875184 
L 266.262919 276.085429 
L 266.465277 278.838066 
L 266.667634 278.940379 
L 266.869991 276.891057 
L 267.881777 235.229621 
L 268.286491 228.779297 
L 269.09592 224.821912 
L 269.298277 224.559357 
L 269.702992 219.616697 
L 269.905349 221.097974 
L 270.714778 252.874796 
L 271.119492 275.168524 
L 271.32185 279.686466 
L 271.524207 279.319224 
L 271.726564 276.044035 
L 272.131278 258.059401 
L 272.73835 224.378177 
L 273.143064 216.806778 
L 273.547779 198.359484 
L 273.952493 173.668583 
L 274.357208 163.502487 
L 274.559565 158.628248 
L 274.761922 161.335967 
L 275.368994 191.996546 
L 276.178422 248.079052 
L 276.38078 250.402722 
L 276.583137 250.114002 
L 276.987851 240.917079 
L 277.594923 211.500932 
L 278.201995 173.384284 
L 278.809066 153.160658 
L 279.011423 152.138518 
L 279.213781 152.155781 
L 279.416138 153.396092 
L 279.618495 157.978893 
L 280.023209 186.763823 
L 280.427924 222.375976 
L 280.832638 252.575765 
L 281.034995 259.046304 
L 281.237353 260.327073 
L 281.43971 259.882183 
L 281.844424 247.764989 
L 283.260925 179.567543 
L 283.665639 166.135895 
L 283.867996 166.703199 
L 284.070354 164.94229 
L 284.272711 166.012353 
L 284.475068 169.828896 
L 284.879782 201.236754 
L 285.284497 239.381851 
L 285.689211 263.020272 
L 285.891568 269.354178 
L 286.093926 268.929581 
L 286.296283 266.194341 
L 287.105712 240.509683 
L 288.117498 188.327972 
L 288.522212 169.128214 
L 288.724569 165.230876 
L 288.926927 163.684666 
L 289.129284 163.043057 
L 289.331641 166.804333 
L 289.533998 176.143284 
L 290.343427 244.376344 
L 290.748141 258.608584 
L 290.950499 261.363476 
L 291.152856 261.321083 
L 291.55757 252.268654 
L 291.962285 236.168861 
L 292.569356 201.289454 
L 292.974071 165.732828 
L 293.378785 144.5051 
L 293.581142 143.778269 
L 293.7835 145.454608 
L 293.985857 148.602982 
L 294.188214 153.507279 
L 294.997643 201.81028 
L 295.2 226.60634 
L 295.604714 247.178167 
L 295.807072 251.824911 
L 296.009429 253.095421 
L 296.211786 250.049604 
L 296.6165 233.025431 
L 297.021215 201.951361 
L 297.628286 135.921073 
L 298.033001 111.89561 
L 298.235358 105.289689 
L 298.437715 107.503517 
L 299.044787 125.534735 
L 299.449501 150.589251 
L 299.854216 181.3578 
L 300.461287 235.971233 
L 300.663645 240.413858 
L 300.866002 242.132963 
L 301.270716 227.185736 
L 301.675431 201.843581 
L 302.687217 106.686349 
L 302.889574 98.889847 
L 303.091931 97.399582 
L 303.90136 133.954834 
L 304.710789 202.50118 
L 304.913146 225.818648 
L 305.31786 243.43234 
L 305.520218 246.596778 
L 305.722575 246.363856 
L 306.127289 232.863929 
L 307.746147 137.447624 
L 307.948504 133.477257 
L 308.150861 136.676002 
L 308.555576 149.442763 
L 308.96029 174.39578 
L 309.972076 248.273297 
L 310.174433 251.988161 
L 310.376791 253.297759 
L 310.579148 253.422851 
L 310.983862 242.757604 
L 311.388577 218.761141 
L 312.400363 149.58513 
L 312.805077 138.693593 
L 313.007434 137.311395 
L 313.209791 140.020646 
L 313.412149 144.65244 
L 313.816863 167.267773 
L 314.828649 238.044652 
L 315.031006 243.076617 
L 315.233364 244.217668 
L 315.435721 241.858288 
L 315.840435 228.336793 
L 317.054578 184.332893 
L 317.256936 181.873228 
L 317.459293 177.691064 
L 317.66165 176.216742 
L 318.066364 181.896197 
L 318.268722 184.479548 
L 318.471079 190.597506 
L 319.685222 248.416946 
L 319.887579 252.200175 
L 320.089937 253.459971 
L 320.292294 251.841718 
L 320.899365 239.633842 
L 321.506437 218.842726 
L 322.518223 170.758437 
L 323.125295 157.926131 
L 323.327652 162.522991 
L 323.934723 200.295642 
L 324.541795 245.904334 
L 324.94651 253.321013 
L 325.148867 250.631473 
L 325.553581 240.128969 
L 326.36301 212.046043 
L 327.374796 138.262345 
L 327.577153 138.389917 
L 327.981868 141.315063 
L 328.184225 147.621794 
L 328.588939 170.229752 
L 328.993654 207.315629 
L 329.398368 238.053421 
L 329.600725 246.062269 
L 330.00544 251.828147 
L 330.207797 250.469222 
L 330.612511 234.47965 
L 331.017226 208.692197 
L 331.42194 170.628763 
L 332.029012 145.719293 
L 332.231369 140.561909 
L 333.040798 167.764791 
L 333.647869 202.24297 
L 334.052584 239.935372 
L 334.457298 256.753872 
L 334.659655 259.637496 
L 334.862013 258.63069 
L 335.266727 246.078064 
L 336.48087 188.466597 
L 336.683228 184.835947 
L 336.885585 177.366229 
L 337.087942 175.525006 
L 337.492656 178.138563 
L 337.897371 187.29855 
L 338.302085 211.915136 
L 339.111514 260.468742 
L 339.313871 266.56551 
L 339.516228 266.436259 
L 339.718586 266.101973 
L 340.1233 249.4196 
L 341.135086 196.77297 
L 341.742158 175.344666 
L 342.146872 160.896626 
L 342.349229 158.816047 
L 342.753944 157.121644 
L 343.361015 187.614805 
L 343.563373 203.495532 
L 343.968087 242.840289 
L 344.170444 246.867083 
L 344.372801 247.40957 
L 344.575159 244.676746 
L 345.18223 223.152807 
L 345.384587 215.133631 
L 346.194016 140.55033 
L 346.396374 133.089569 
L 346.598731 120.080954 
L 346.801088 117.309548 
L 347.003445 120.340692 
L 347.205802 121.642037 
L 347.610517 130.553277 
L 348.217588 172.380092 
L 349.027017 238.223809 
L 349.229374 241.919713 
L 349.431732 243.130529 
L 349.836446 230.608703 
L 350.24116 213.536632 
L 350.645875 176.957331 
L 351.252947 130.238156 
L 351.657661 119.140885 
L 352.46709 135.381713 
L 352.669447 145.800415 
L 353.88359 245.980224 
L 354.085947 249.162604 
L 354.288305 249.157106 
L 354.693019 240.591782 
L 354.895376 234.801703 
L 355.300091 216.001359 
L 356.311877 128.621197 
L 356.514234 123.388842 
L 356.716591 125.593418 
L 356.918948 126.577546 
L 357.121306 129.401874 
L 357.323663 136.099253 
L 357.728377 163.997454 
L 358.133092 196.416728 
L 358.537806 233.907483 
L 358.94252 247.414741 
L 359.144878 250.036481 
L 359.549592 240.440239 
L 359.954306 222.298221 
L 360.156664 213.799086 
L 360.561378 172.232509 
L 360.966092 135.197054 
L 361.370807 116.999413 
L 361.573164 118.377555 
L 361.775521 120.985389 
L 362.180236 132.981829 
L 362.382593 141.182327 
L 362.989665 183.303481 
L 363.394379 225.08639 
L 363.799093 239.705487 
L 364.001451 243.068027 
L 364.203808 239.458199 
L 364.406165 233.060355 
L 365.013237 187.085735 
L 365.620308 121.225994 
L 366.025023 100.463438 
L 366.22738 96.083711 
L 366.632094 104.818731 
L 367.239166 129.772543 
L 368.655666 238.013254 
L 368.858024 237.908317 
L 369.262738 225.229865 
L 369.86981 184.202393 
L 370.476881 127.55257 
L 370.881596 110.443318 
L 371.083953 105.620726 
L 371.691024 120.665822 
L 372.095739 142.024222 
L 373.107525 230.509588 
L 373.309882 240.35154 
L 373.714597 245.985815 
L 373.916954 242.816555 
L 374.321668 227.697469 
L 374.726383 206.493201 
L 375.738169 133.127407 
L 375.940526 128.128428 
L 376.547597 138.843413 
L 376.952312 163.65246 
L 377.559383 214.75839 
L 377.964098 238.621023 
L 378.368812 249.244751 
L 378.57117 251.055685 
L 378.975884 241.496759 
L 379.380598 215.31303 
L 380.594742 131.652995 
L 380.797099 128.494055 
L 380.999456 128.103028 
L 381.40417 133.391605 
L 381.808885 149.033307 
L 382.415956 191.006064 
L 382.820671 224.748348 
L 383.225385 236.636217 
L 383.427743 236.294396 
L 383.832457 224.534268 
L 384.237171 207.713913 
L 384.237171 207.713913 
" clip-path="url(#p28dd02112e)" style="fill: none; stroke: #ff7f0e; stroke-width: 1.5; stroke-linecap: square"/>
   </g>
   <g id="line2d_15">
    <path d="M 384.439529 193.569234 
L 385.0466 177.318985 
L 385.248957 175.4202 
L 385.451315 176.237048 
L 385.653672 173.251502 
L 386.058386 182.042428 
L 386.463101 194.134997 
L 386.665458 199.642552 
L 387.677244 242.748232 
L 387.879601 244.896445 
L 388.081958 244.625772 
L 388.486673 233.933421 
L 388.891387 216.772051 
L 389.498459 184.501529 
L 389.903173 170.301314 
L 390.10553 166.54883 
L 390.510245 156.679823 
L 390.712602 157.32634 
L 390.914959 159.05405 
L 391.117316 158.770827 
L 391.319674 159.930035 
L 391.724388 173.59153 
L 392.33146 204.258574 
L 392.736174 218.815385 
L 392.938531 221.166511 
L 393.140888 217.279659 
L 393.74796 194.566799 
L 393.950317 191.373235 
L 395.164461 140.093861 
L 395.366818 134.281879 
L 395.569175 132.930631 
L 395.771532 133.708103 
L 395.973889 133.935521 
L 396.176247 136.557869 
L 396.783318 149.427115 
L 396.985675 150.457072 
L 397.188033 156.243314 
L 397.39039 157.05781 
L 397.592747 159.78447 
L 397.795104 158.853327 
L 398.402176 142.765254 
L 398.604533 139.045385 
L 399.009248 124.982771 
L 399.818676 109.484128 
L 400.021034 111.445312 
L 400.425748 118.176889 
L 400.628105 121.972011 
L 401.03282 136.429214 
L 401.842248 178.694109 
L 402.246963 197.353998 
L 402.651677 202.432723 
L 402.854034 203.410115 
L 403.056392 203.276297 
L 403.258749 201.92075 
L 404.675249 167.014142 
L 405.079964 162.887554 
L 405.282321 162.53778 
L 405.484678 162.418583 
L 405.889393 171.190601 
L 406.698821 200.705711 
L 407.305893 224.055445 
L 407.50825 227.563996 
L 407.710607 228.308612 
L 407.912965 226.871785 
L 408.317679 217.276627 
L 408.722393 208.344358 
L 409.531822 191.012575 
L 410.138894 186.531279 
L 411.353037 207.366621 
L 411.757752 214.875523 
L 411.960109 214.370007 
L 412.162466 213.150104 
L 412.364823 213.939973 
L 412.56718 211.51699 
L 413.376609 190.676452 
L 414.590752 135.973289 
L 414.79311 130.538468 
L 414.995467 129.330286 
L 415.197824 129.66365 
L 415.400181 130.376333 
L 415.602539 130.102735 
L 415.804896 130.832732 
L 416.614325 144.774681 
L 417.221396 153.268641 
L 417.423753 153.356684 
L 417.828468 149.05585 
L 418.030825 147.837268 
L 418.637897 135.373043 
L 418.840254 134.0342 
L 419.042611 134.045567 
L 419.447325 128.500059 
L 419.649683 126.948338 
L 419.85204 128.595887 
L 420.459112 137.78703 
L 421.470898 165.159205 
L 422.077969 178.349224 
L 422.280326 179.047272 
L 422.685041 183.350943 
L 422.887398 182.176757 
L 423.089755 179.839072 
L 423.292112 175.899469 
L 423.49447 174.37671 
L 424.303898 162.605363 
L 424.708613 167.04001 
L 424.91097 167.631817 
L 425.315684 174.600444 
L 425.720399 186.869304 
L 425.922756 190.9136 
L 426.732185 214.491255 
L 427.339257 218.722241 
L 427.541614 218.301525 
L 427.946328 208.719087 
L 428.351043 205.583285 
L 428.958114 193.703492 
L 429.160471 193.965358 
L 429.767543 190.421914 
L 429.9699 191.373084 
L 430.172257 195.796195 
L 431.184044 206.187589 
L 431.993472 203.072438 
L 432.19583 202.641752 
L 433.207616 178.581601 
L 433.61233 161.169135 
L 434.421759 138.128897 
L 434.624116 137.200375 
L 434.826473 137.840138 
L 435.231188 136.807002 
L 435.433545 136.211863 
L 436.040617 144.432392 
L 436.242974 145.718877 
L 436.445331 146.201771 
L 436.850045 150.25997 
L 437.25476 145.342312 
L 437.457117 143.725456 
L 437.659474 143.601017 
L 437.861831 141.57236 
L 438.064189 136.592227 
L 438.468903 134.552613 
L 438.67126 134.874199 
L 438.873617 133.095496 
L 439.075975 129.568994 
L 439.278332 130.35447 
L 439.480689 131.737186 
L 440.087761 138.619231 
L 440.492475 151.181725 
L 440.897189 158.141752 
L 441.099547 160.617094 
L 441.504261 168.839846 
L 442.111333 173.007956 
L 442.31369 176.826286 
L 442.516047 176.51287 
L 442.920762 172.614533 
L 443.123119 171.634396 
L 443.325476 171.902356 
L 443.73019 166.212429 
L 443.932548 167.003716 
L 444.134905 168.310975 
L 444.337262 171.661687 
L 444.539619 172.374947 
L 444.741976 174.393486 
L 445.349048 190.808801 
L 445.551405 192.85647 
L 445.753762 196.631782 
L 446.158477 207.215318 
L 446.360834 210.505963 
L 446.563191 210.8211 
L 446.967906 214.884685 
L 447.170263 213.593026 
L 447.777335 206.516055 
L 447.979692 206.08103 
L 448.384406 197.627518 
L 448.586763 195.350487 
L 448.789121 195.40515 
L 448.991478 196.302305 
L 449.193835 193.689357 
L 449.396192 193.109512 
L 449.598549 194.413987 
L 450.003264 199.457631 
L 450.205621 198.237951 
L 450.812693 202.499863 
L 451.01505 202.632672 
L 451.217407 199.342211 
L 451.419764 199.26544 
L 451.622121 199.741177 
L 451.824479 198.145441 
L 452.026836 195.244368 
L 452.229193 190.083274 
L 452.43155 188.173971 
L 452.633908 184.729585 
L 454.050408 144.910622 
L 454.252765 141.993235 
L 454.455122 142.766433 
L 454.65748 142.265641 
L 454.859837 139.900282 
L 455.062194 139.874562 
L 455.264551 141.001634 
L 455.466908 144.061581 
L 455.669266 144.434442 
L 455.871623 142.765343 
L 456.276337 146.171828 
L 456.478694 147.198113 
L 456.681052 144.907917 
L 456.883409 140.963803 
L 457.085766 142.101718 
L 457.288123 141.712293 
L 457.490481 139.704692 
L 457.895195 133.974839 
L 458.097552 135.977108 
L 458.502267 133.372824 
L 458.704624 131.066397 
L 458.906981 130.549746 
L 459.109338 134.071653 
L 459.311695 134.884234 
L 459.514053 136.34039 
L 459.71641 138.899378 
L 460.525839 154.247157 
L 461.13291 164.893194 
L 461.335267 164.607049 
L 461.537625 165.523557 
L 461.942339 170.579635 
L 462.144696 172.355217 
L 462.347053 169.542347 
L 462.549411 168.91449 
L 462.751768 170.483384 
L 463.156482 168.82498 
L 463.35884 165.976694 
L 463.561197 166.566784 
L 463.763554 169.925557 
L 463.965911 170.882734 
L 464.370626 173.974009 
L 464.977697 188.124977 
L 465.382412 193.958764 
L 465.787126 204.888457 
L 465.989483 204.878731 
L 466.798912 211.3161 
L 467.001269 207.201653 
L 467.405984 205.766005 
L 467.608341 205.520707 
L 467.810698 203.252281 
L 468.013055 197.859636 
L 468.215413 197.328007 
L 468.620127 197.377102 
L 468.822484 196.495023 
L 469.024841 194.034783 
L 469.429556 198.895216 
L 469.631913 199.525966 
L 469.83427 199.357979 
L 470.036627 198.587214 
L 470.238985 201.755279 
L 470.441342 202.54725 
L 471.048413 197.601051 
L 471.250771 199.572131 
L 471.453128 198.126 
L 471.857842 191.565887 
L 472.060199 188.623437 
L 472.262557 187.52516 
L 473.881414 149.393923 
L 474.083772 147.873439 
L 474.286129 147.386764 
L 474.690843 142.418876 
L 474.8932 145.050849 
L 475.095558 145.351603 
L 475.297915 145.305077 
L 475.500272 143.312034 
L 475.702629 143.292522 
L 475.904986 147.24307 
L 476.309701 143.971552 
L 476.512058 141.376559 
L 476.714415 140.829368 
L 476.916772 142.992947 
L 477.321487 136.504063 
L 477.523844 135.213394 
L 477.726201 135.464084 
L 477.928558 137.059404 
L 478.333273 131.871877 
L 478.53563 132.229405 
L 478.737987 133.753957 
L 478.940345 136.209838 
L 479.142702 134.57677 
L 479.345059 136.722394 
L 479.952131 149.391828 
L 480.154488 149.163679 
L 480.761559 158.871967 
L 480.963917 159.995958 
L 481.166274 158.731009 
L 481.570988 165.001946 
L 481.975703 164.002766 
L 482.17806 162.33796 
L 482.582774 165.743228 
L 482.785131 162.225671 
L 483.189846 160.1543 
L 483.59456 164.634923 
L 483.796917 162.540836 
L 484.201632 168.49152 
L 484.606346 178.152032 
L 484.808704 178.563647 
L 485.415775 194.847103 
L 485.618132 196.662448 
L 485.82049 196.212184 
L 486.225204 204.194643 
L 486.427561 204.785583 
L 486.629918 203.373343 
L 486.832276 200.403835 
L 487.034633 203.458069 
L 487.23699 203.449813 
L 487.844062 195.828249 
L 488.046419 198.62476 
L 488.248776 197.679317 
L 488.451133 195.605505 
L 488.65349 194.880491 
L 488.855848 195.11105 
L 489.058205 199.509899 
L 489.260562 199.205563 
L 489.462919 198.05052 
L 489.867634 201.015347 
L 490.069991 204.054519 
L 490.474705 199.906113 
L 490.677063 201.102721 
L 490.87942 200.507016 
L 491.081777 200.908717 
L 491.486491 193.440704 
L 491.688849 193.947346 
L 492.093563 188.955906 
L 492.498277 178.894248 
L 492.700635 177.970045 
L 493.510063 159.833432 
L 493.712421 160.007101 
L 494.117135 153.330841 
L 494.319492 151.063951 
L 494.52185 151.721534 
L 494.724207 154.131958 
L 494.926564 150.805513 
L 495.128921 149.635072 
L 495.331278 149.312057 
L 495.735993 152.906911 
L 495.93835 147.62271 
L 496.140707 146.716506 
L 496.343064 146.477689 
L 496.545422 146.418456 
L 496.747779 145.480873 
L 496.950136 139.104836 
L 497.152493 138.64731 
L 497.35485 139.450701 
L 497.759565 137.778681 
L 497.961922 133.50326 
L 498.366636 136.931287 
L 498.771351 135.377035 
L 498.973708 133.224529 
L 499.378422 141.17854 
L 499.58078 140.951724 
L 499.985494 144.200283 
L 500.187851 150.114385 
L 500.390209 152.480199 
L 500.592566 150.921711 
L 500.794923 152.413321 
L 500.99728 153.016041 
L 501.199637 156.706396 
L 501.401995 156.43413 
L 501.604352 153.077338 
L 501.806709 154.564501 
L 502.009066 154.87431 
L 502.211423 156.53998 
L 502.413781 154.204033 
L 502.616138 150.538002 
L 502.818495 153.10616 
L 503.020852 152.906026 
L 503.223209 153.63933 
L 503.627924 150.365903 
L 503.830281 155.936273 
L 504.437353 161.192433 
L 504.63971 163.818998 
L 504.842067 173.508722 
L 505.651496 185.036827 
L 505.853853 192.874309 
L 506.05621 192.606869 
L 506.258568 192.079357 
L 506.663282 193.406307 
L 506.865639 197.109403 
L 507.270354 191.60368 
L 507.472711 192.59768 
L 507.675068 192.700121 
L 507.877425 194.811646 
L 508.079782 190.588304 
L 508.28214 189.646902 
L 508.484497 192.572293 
L 508.686854 193.138129 
L 508.889211 195.589242 
L 509.091568 192.61484 
L 509.293926 194.404968 
L 509.496283 199.316007 
L 509.69864 200.183553 
L 509.900997 201.902734 
L 510.103354 199.708922 
L 510.305712 201.758403 
L 510.508069 205.20298 
L 510.710426 203.084033 
L 510.912783 202.497481 
L 511.115141 199.246447 
L 511.317498 199.960611 
L 511.519855 201.591397 
L 511.722212 196.017486 
L 512.126927 190.860913 
L 512.329284 191.123358 
L 512.531641 190.82104 
L 512.733998 184.652909 
L 512.936355 183.598965 
L 513.138713 181.750241 
L 513.34107 182.390488 
L 513.543427 181.67288 
L 513.745784 175.774203 
L 513.948141 175.904672 
L 514.150499 175.734808 
L 514.352856 176.137561 
L 514.555213 175.397549 
L 514.75757 169.989756 
L 514.959927 171.106788 
L 515.162285 171.593085 
L 515.364642 170.096657 
L 515.566999 167.383446 
L 515.769356 161.156633 
L 515.971714 161.933452 
L 516.174071 159.84123 
L 516.781142 144.046062 
L 516.9835 146.19883 
L 517.185857 143.42747 
L 517.388214 136.826078 
L 517.792928 132.615664 
L 517.995286 136.392594 
L 518.197643 134.494751 
L 518.4 130.76199 
L 518.4 130.76199 
" clip-path="url(#p28dd02112e)" style="fill: none; stroke: #2ca02c; stroke-width: 1.5; stroke-linecap: square"/>
   </g>
   <g id="patch_3">
    <path d="M 72 320.4 
L 72 43.2 
" style="fill: none; stroke: #000000; stroke-width: 0.8; stroke-linejoin: miter; stroke-linecap: square"/>
   </g>
   <g id="patch_4">
    <path d="M 518.4 320.4 
L 518.4 43.2 
" style="fill: none; stroke: #000000; stroke-width: 0.8; stroke-linejoin: miter; stroke-linecap: square"/>
   </g>
   <g id="patch_5">
    <path d="M 72 320.4 
L 518.4 320.4 
" style="fill: none; stroke: #000000; stroke-width: 0.8; stroke-linejoin: miter; stroke-linecap: square"/>
   </g>
   <g id="patch_6">
    <path d="M 72 43.2 
L 518.4 43.2 
" style="fill: none; stroke: #000000; stroke-width: 0.8; stroke-linejoin: miter; stroke-linecap: square"/>
   </g>
   <g id="text_13">
    <!-- Classic Transformer - model_20231126161602 -->
    <g transform="translate(155.436563 37.2) scale(0.12 -0.12)">
     <defs>
      <path id="DejaVuSans-43" d="M 4122 4306 
L 4122 3641 
Q 3803 3938 3442 4084 
Q 3081 4231 2675 4231 
Q 1875 4231 1450 3742 
Q 1025 3253 1025 2328 
Q 1025 1406 1450 917 
Q 1875 428 2675 428 
Q 3081 428 3442 575 
Q 3803 722 4122 1019 
L 4122 359 
Q 3791 134 3420 21 
Q 3050 -91 2638 -91 
Q 1578 -91 968 557 
Q 359 1206 359 2328 
Q 359 3453 968 4101 
Q 1578 4750 2638 4750 
Q 3056 4750 3426 4639 
Q 3797 4528 4122 4306 
z
" transform="scale(0.015625)"/>
      <path id="DejaVuSans-6c" d="M 603 4863 
L 1178 4863 
L 1178 0 
L 603 0 
L 603 4863 
z
" transform="scale(0.015625)"/>
      <path id="DejaVuSans-61" d="M 2194 1759 
Q 1497 1759 1228 1600 
Q 959 1441 959 1056 
Q 959 750 1161 570 
Q 1363 391 1709 391 
Q 2188 391 2477 730 
Q 2766 1069 2766 1631 
L 2766 1759 
L 2194 1759 
z
M 3341 1997 
L 3341 0 
L 2766 0 
L 2766 531 
Q 2569 213 2275 61 
Q 1981 -91 1556 -91 
Q 1019 -91 701 211 
Q 384 513 384 1019 
Q 384 1609 779 1909 
Q 1175 2209 1959 2209 
L 2766 2209 
L 2766 2266 
Q 2766 2663 2505 2880 
Q 2244 3097 1772 3097 
Q 1472 3097 1187 3025 
Q 903 2953 641 2809 
L 641 3341 
Q 956 3463 1253 3523 
Q 1550 3584 1831 3584 
Q 2591 3584 2966 3190 
Q 3341 2797 3341 1997 
z
" transform="scale(0.015625)"/>
      <path id="DejaVuSans-73" d="M 2834 3397 
L 2834 2853 
Q 2591 2978 2328 3040 
Q 2066 3103 1784 3103 
Q 1356 3103 1142 2972 
Q 928 2841 928 2578 
Q 928 2378 1081 2264 
Q 1234 2150 1697 2047 
L 1894 2003 
Q 2506 1872 2764 1633 
Q 3022 1394 3022 966 
Q 3022 478 2636 193 
Q 2250 -91 1575 -91 
Q 1294 -91 989 -36 
Q 684 19 347 128 
L 347 722 
Q 666 556 975 473 
Q 1284 391 1588 391 
Q 1994 391 2212 530 
Q 2431 669 2431 922 
Q 2431 1156 2273 1281 
Q 2116 1406 1581 1522 
L 1381 1569 
Q 847 1681 609 1914 
Q 372 2147 372 2553 
Q 372 3047 722 3315 
Q 1072 3584 1716 3584 
Q 2034 3584 2315 3537 
Q 2597 3491 2834 3397 
z
" transform="scale(0.015625)"/>
      <path id="DejaVuSans-69" d="M 603 3500 
L 1178 3500 
L 1178 0 
L 603 0 
L 603 3500 
z
M 603 4863 
L 1178 4863 
L 1178 4134 
L 603 4134 
L 603 4863 
z
" transform="scale(0.015625)"/>
      <path id="DejaVuSans-63" d="M 3122 3366 
L 3122 2828 
Q 2878 2963 2633 3030 
Q 2388 3097 2138 3097 
Q 1578 3097 1268 2742 
Q 959 2388 959 1747 
Q 959 1106 1268 751 
Q 1578 397 2138 397 
Q 2388 397 2633 464 
Q 2878 531 3122 666 
L 3122 134 
Q 2881 22 2623 -34 
Q 2366 -91 2075 -91 
Q 1284 -91 818 406 
Q 353 903 353 1747 
Q 353 2603 823 3093 
Q 1294 3584 2113 3584 
Q 2378 3584 2631 3529 
Q 2884 3475 3122 3366 
z
" transform="scale(0.015625)"/>
      <path id="DejaVuSans-20" transform="scale(0.015625)"/>
      <path id="DejaVuSans-54" d="M -19 4666 
L 3928 4666 
L 3928 4134 
L 2272 4134 
L 2272 0 
L 1638 0 
L 1638 4134 
L -19 4134 
L -19 4666 
z
" transform="scale(0.015625)"/>
      <path id="DejaVuSans-72" d="M 2631 2963 
Q 2534 3019 2420 3045 
Q 2306 3072 2169 3072 
Q 1681 3072 1420 2755 
Q 1159 2438 1159 1844 
L 1159 0 
L 581 0 
L 581 3500 
L 1159 3500 
L 1159 2956 
Q 1341 3275 1631 3429 
Q 1922 3584 2338 3584 
Q 2397 3584 2469 3576 
Q 2541 3569 2628 3553 
L 2631 2963 
z
" transform="scale(0.015625)"/>
      <path id="DejaVuSans-6e" d="M 3513 2113 
L 3513 0 
L 2938 0 
L 2938 2094 
Q 2938 2591 2744 2837 
Q 2550 3084 2163 3084 
Q 1697 3084 1428 2787 
Q 1159 2491 1159 1978 
L 1159 0 
L 581 0 
L 581 3500 
L 1159 3500 
L 1159 2956 
Q 1366 3272 1645 3428 
Q 1925 3584 2291 3584 
Q 2894 3584 3203 3211 
Q 3513 2838 3513 2113 
z
" transform="scale(0.015625)"/>
      <path id="DejaVuSans-66" d="M 2375 4863 
L 2375 4384 
L 1825 4384 
Q 1516 4384 1395 4259 
Q 1275 4134 1275 3809 
L 1275 3500 
L 2222 3500 
L 2222 3053 
L 1275 3053 
L 1275 0 
L 697 0 
L 697 3053 
L 147 3053 
L 147 3500 
L 697 3500 
L 697 3744 
Q 697 4328 969 4595 
Q 1241 4863 1831 4863 
L 2375 4863 
z
" transform="scale(0.015625)"/>
      <path id="DejaVuSans-6f" d="M 1959 3097 
Q 1497 3097 1228 2736 
Q 959 2375 959 1747 
Q 959 1119 1226 758 
Q 1494 397 1959 397 
Q 2419 397 2687 759 
Q 2956 1122 2956 1747 
Q 2956 2369 2687 2733 
Q 2419 3097 1959 3097 
z
M 1959 3584 
Q 2709 3584 3137 3096 
Q 3566 2609 3566 1747 
Q 3566 888 3137 398 
Q 2709 -91 1959 -91 
Q 1206 -91 779 398 
Q 353 888 353 1747 
Q 353 2609 779 3096 
Q 1206 3584 1959 3584 
z
" transform="scale(0.015625)"/>
      <path id="DejaVuSans-6d" d="M 3328 2828 
Q 3544 3216 3844 3400 
Q 4144 3584 4550 3584 
Q 5097 3584 5394 3201 
Q 5691 2819 5691 2113 
L 5691 0 
L 5113 0 
L 5113 2094 
Q 5113 2597 4934 2840 
Q 4756 3084 4391 3084 
Q 3944 3084 3684 2787 
Q 3425 2491 3425 1978 
L 3425 0 
L 2847 0 
L 2847 2094 
Q 2847 2600 2669 2842 
Q 2491 3084 2119 3084 
Q 1678 3084 1418 2786 
Q 1159 2488 1159 1978 
L 1159 0 
L 581 0 
L 581 3500 
L 1159 3500 
L 1159 2956 
Q 1356 3278 1631 3431 
Q 1906 3584 2284 3584 
Q 2666 3584 2933 3390 
Q 3200 3197 3328 2828 
z
" transform="scale(0.015625)"/>
      <path id="DejaVuSans-65" d="M 3597 1894 
L 3597 1613 
L 953 1613 
Q 991 1019 1311 708 
Q 1631 397 2203 397 
Q 2534 397 2845 478 
Q 3156 559 3463 722 
L 3463 178 
Q 3153 47 2828 -22 
Q 2503 -91 2169 -91 
Q 1331 -91 842 396 
Q 353 884 353 1716 
Q 353 2575 817 3079 
Q 1281 3584 2069 3584 
Q 2775 3584 3186 3129 
Q 3597 2675 3597 1894 
z
M 3022 2063 
Q 3016 2534 2758 2815 
Q 2500 3097 2075 3097 
Q 1594 3097 1305 2825 
Q 1016 2553 972 2059 
L 3022 2063 
z
" transform="scale(0.015625)"/>
      <path id="DejaVuSans-64" d="M 2906 2969 
L 2906 4863 
L 3481 4863 
L 3481 0 
L 2906 0 
L 2906 525 
Q 2725 213 2448 61 
Q 2172 -91 1784 -91 
Q 1150 -91 751 415 
Q 353 922 353 1747 
Q 353 2572 751 3078 
Q 1150 3584 1784 3584 
Q 2172 3584 2448 3432 
Q 2725 3281 2906 2969 
z
M 947 1747 
Q 947 1113 1208 752 
Q 1469 391 1925 391 
Q 2381 391 2643 752 
Q 2906 1113 2906 1747 
Q 2906 2381 2643 2742 
Q 2381 3103 1925 3103 
Q 1469 3103 1208 2742 
Q 947 2381 947 1747 
z
" transform="scale(0.015625)"/>
      <path id="DejaVuSans-5f" d="M 3263 -1063 
L 3263 -1509 
L -63 -1509 
L -63 -1063 
L 3263 -1063 
z
" transform="scale(0.015625)"/>
     </defs>
     <use xlink:href="#DejaVuSans-43"/>
     <use xlink:href="#DejaVuSans-6c" x="69.824219"/>
     <use xlink:href="#DejaVuSans-61" x="97.607422"/>
     <use xlink:href="#DejaVuSans-73" x="158.886719"/>
     <use xlink:href="#DejaVuSans-73" x="210.986328"/>
     <use xlink:href="#DejaVuSans-69" x="263.085938"/>
     <use xlink:href="#DejaVuSans-63" x="290.869141"/>
     <use xlink:href="#DejaVuSans-20" x="345.849609"/>
     <use xlink:href="#DejaVuSans-54" x="377.636719"/>
     <use xlink:href="#DejaVuSans-72" x="423.970703"/>
     <use xlink:href="#DejaVuSans-61" x="465.083984"/>
     <use xlink:href="#DejaVuSans-6e" x="526.363281"/>
     <use xlink:href="#DejaVuSans-73" x="589.742188"/>
     <use xlink:href="#DejaVuSans-66" x="641.841797"/>
     <use xlink:href="#DejaVuSans-6f" x="677.046875"/>
     <use xlink:href="#DejaVuSans-72" x="738.228516"/>
     <use xlink:href="#DejaVuSans-6d" x="777.591797"/>
     <use xlink:href="#DejaVuSans-65" x="875.003906"/>
     <use xlink:href="#DejaVuSans-72" x="936.527344"/>
     <use xlink:href="#DejaVuSans-20" x="977.640625"/>
     <use xlink:href="#DejaVuSans-2d" x="1009.427734"/>
     <use xlink:href="#DejaVuSans-20" x="1045.511719"/>
     <use xlink:href="#DejaVuSans-6d" x="1077.298828"/>
     <use xlink:href="#DejaVuSans-6f" x="1174.710938"/>
     <use xlink:href="#DejaVuSans-64" x="1235.892578"/>
     <use xlink:href="#DejaVuSans-65" x="1299.369141"/>
     <use xlink:href="#DejaVuSans-6c" x="1360.892578"/>
     <use xlink:href="#DejaVuSans-5f" x="1388.675781"/>
     <use xlink:href="#DejaVuSans-32" x="1438.675781"/>
     <use xlink:href="#DejaVuSans-30" x="1502.298828"/>
     <use xlink:href="#DejaVuSans-32" x="1565.921875"/>
     <use xlink:href="#DejaVuSans-33" x="1629.544922"/>
     <use xlink:href="#DejaVuSans-31" x="1693.167969"/>
     <use xlink:href="#DejaVuSans-31" x="1756.791016"/>
     <use xlink:href="#DejaVuSans-32" x="1820.414062"/>
     <use xlink:href="#DejaVuSans-36" x="1884.037109"/>
     <use xlink:href="#DejaVuSans-31" x="1947.660156"/>
     <use xlink:href="#DejaVuSans-36" x="2011.283203"/>
     <use xlink:href="#DejaVuSans-31" x="2074.90625"/>
     <use xlink:href="#DejaVuSans-36" x="2138.529297"/>
     <use xlink:href="#DejaVuSans-30" x="2202.152344"/>
     <use xlink:href="#DejaVuSans-32" x="2265.775391"/>
    </g>
   </g>
   <g id="legend_1">
    <g id="patch_7">
     <path d="M 79 95.234375 
L 161.517188 95.234375 
Q 163.517188 95.234375 163.517188 93.234375 
L 163.517188 50.2 
Q 163.517188 48.2 161.517188 48.2 
L 79 48.2 
Q 77 48.2 77 50.2 
L 77 93.234375 
Q 77 95.234375 79 95.234375 
z
" style="fill: #ffffff; opacity: 0.8; stroke: #cccccc; stroke-linejoin: miter"/>
    </g>
    <g id="line2d_16">
     <path d="M 81 56.298437 
L 91 56.298437 
L 101 56.298437 
" style="fill: none; stroke: #1f77b4; stroke-width: 1.5; stroke-linecap: square"/>
    </g>
    <g id="text_14">
     <!-- Measured -->
     <g transform="translate(109 59.798437) scale(0.1 -0.1)">
      <defs>
       <path id="DejaVuSans-4d" d="M 628 4666 
L 1569 4666 
L 2759 1491 
L 3956 4666 
L 4897 4666 
L 4897 0 
L 4281 0 
L 4281 4097 
L 3078 897 
L 2444 897 
L 1241 4097 
L 1241 0 
L 628 0 
L 628 4666 
z
" transform="scale(0.015625)"/>
       <path id="DejaVuSans-75" d="M 544 1381 
L 544 3500 
L 1119 3500 
L 1119 1403 
Q 1119 906 1312 657 
Q 1506 409 1894 409 
Q 2359 409 2629 706 
Q 2900 1003 2900 1516 
L 2900 3500 
L 3475 3500 
L 3475 0 
L 2900 0 
L 2900 538 
Q 2691 219 2414 64 
Q 2138 -91 1772 -91 
Q 1169 -91 856 284 
Q 544 659 544 1381 
z
M 1991 3584 
L 1991 3584 
z
" transform="scale(0.015625)"/>
      </defs>
      <use xlink:href="#DejaVuSans-4d"/>
      <use xlink:href="#DejaVuSans-65" x="86.279297"/>
      <use xlink:href="#DejaVuSans-61" x="147.802734"/>
      <use xlink:href="#DejaVuSans-73" x="209.082031"/>
      <use xlink:href="#DejaVuSans-75" x="261.181641"/>
      <use xlink:href="#DejaVuSans-72" x="324.560547"/>
      <use xlink:href="#DejaVuSans-65" x="363.423828"/>
      <use xlink:href="#DejaVuSans-64" x="424.947266"/>
     </g>
    </g>
    <g id="line2d_17">
     <path d="M 81 70.976562 
L 91 70.976562 
L 101 70.976562 
" style="fill: none; stroke: #ff7f0e; stroke-width: 1.5; stroke-linecap: square"/>
    </g>
    <g id="text_15">
     <!-- Fitted -->
     <g transform="translate(109 74.476562) scale(0.1 -0.1)">
      <defs>
       <path id="DejaVuSans-46" d="M 628 4666 
L 3309 4666 
L 3309 4134 
L 1259 4134 
L 1259 2759 
L 3109 2759 
L 3109 2228 
L 1259 2228 
L 1259 0 
L 628 0 
L 628 4666 
z
" transform="scale(0.015625)"/>
       <path id="DejaVuSans-74" d="M 1172 4494 
L 1172 3500 
L 2356 3500 
L 2356 3053 
L 1172 3053 
L 1172 1153 
Q 1172 725 1289 603 
Q 1406 481 1766 481 
L 2356 481 
L 2356 0 
L 1766 0 
Q 1100 0 847 248 
Q 594 497 594 1153 
L 594 3053 
L 172 3053 
L 172 3500 
L 594 3500 
L 594 4494 
L 1172 4494 
z
" transform="scale(0.015625)"/>
      </defs>
      <use xlink:href="#DejaVuSans-46"/>
      <use xlink:href="#DejaVuSans-69" x="50.269531"/>
      <use xlink:href="#DejaVuSans-74" x="78.052734"/>
      <use xlink:href="#DejaVuSans-74" x="117.261719"/>
      <use xlink:href="#DejaVuSans-65" x="156.470703"/>
      <use xlink:href="#DejaVuSans-64" x="217.994141"/>
     </g>
    </g>
    <g id="line2d_18">
     <path d="M 81 85.654687 
L 91 85.654687 
L 101 85.654687 
" style="fill: none; stroke: #2ca02c; stroke-width: 1.5; stroke-linecap: square"/>
    </g>
    <g id="text_16">
     <!-- Estimated -->
     <g transform="translate(109 89.154687) scale(0.1 -0.1)">
      <defs>
       <path id="DejaVuSans-45" d="M 628 4666 
L 3578 4666 
L 3578 4134 
L 1259 4134 
L 1259 2753 
L 3481 2753 
L 3481 2222 
L 1259 2222 
L 1259 531 
L 3634 531 
L 3634 0 
L 628 0 
L 628 4666 
z
" transform="scale(0.015625)"/>
      </defs>
      <use xlink:href="#DejaVuSans-45"/>
      <use xlink:href="#DejaVuSans-73" x="63.183594"/>
      <use xlink:href="#DejaVuSans-74" x="115.283203"/>
      <use xlink:href="#DejaVuSans-69" x="154.492188"/>
      <use xlink:href="#DejaVuSans-6d" x="182.275391"/>
      <use xlink:href="#DejaVuSans-61" x="279.6875"/>
      <use xlink:href="#DejaVuSans-74" x="340.966797"/>
      <use xlink:href="#DejaVuSans-65" x="380.175781"/>
      <use xlink:href="#DejaVuSans-64" x="441.699219"/>
     </g>
    </g>
   </g>
  </g>
 </g>
 <defs>
  <clipPath id="p28dd02112e">
   <rect x="72" y="43.2" width="446.4" height="277.2"/>
  </clipPath>
 </defs>
</svg>
