<?xml version="1.0" encoding="utf-8" standalone="no"?>
<!DOCTYPE svg PUBLIC "-//W3C//DTD SVG 1.1//EN"
  "http://www.w3.org/Graphics/SVG/1.1/DTD/svg11.dtd">
<svg xmlns:xlink="http://www.w3.org/1999/xlink" width="576pt" height="360pt" viewBox="0 0 576 360" xmlns="http://www.w3.org/2000/svg" version="1.1">
 <metadata>
  <rdf:RDF xmlns:dc="http://purl.org/dc/elements/1.1/" xmlns:cc="http://creativecommons.org/ns#" xmlns:rdf="http://www.w3.org/1999/02/22-rdf-syntax-ns#">
   <cc:Work>
    <dc:type rdf:resource="http://purl.org/dc/dcmitype/StillImage"/>
    <dc:date>2023-11-26T19:05:49.829746</dc:date>
    <dc:format>image/svg+xml</dc:format>
    <dc:creator>
     <cc:Agent>
      <dc:title>Matplotlib v3.8.1, https://matplotlib.org/</dc:title>
     </cc:Agent>
    </dc:creator>
   </cc:Work>
  </rdf:RDF>
 </metadata>
 <defs>
  <style type="text/css">*{stroke-linejoin: round; stroke-linecap: butt}</style>
 </defs>
 <g id="figure_1">
  <g id="patch_1">
   <path d="M 0 360 
L 576 360 
L 576 0 
L 0 0 
z
" style="fill: #ffffff"/>
  </g>
  <g id="axes_1">
   <g id="patch_2">
    <path d="M 72 320.4 
L 518.4 320.4 
L 518.4 43.2 
L 72 43.2 
z
" style="fill: #ffffff"/>
   </g>
   <g id="matplotlib.axis_1">
    <g id="xtick_1">
     <g id="line2d_1">
      <defs>
       <path id="meecfa950cb" d="M 0 0 
L 0 3.5 
" style="stroke: #000000; stroke-width: 0.8"/>
      </defs>
      <g>
       <use xlink:href="#meecfa950cb" x="129.874161" y="320.4" style="stroke: #000000; stroke-width: 0.8"/>
      </g>
     </g>
     <g id="text_1">
      <!-- 2020-05-15 -->
      <g transform="translate(100.816349 334.998438) scale(0.1 -0.1)">
       <defs>
        <path id="DejaVuSans-32" d="M 1228 531 
L 3431 531 
L 3431 0 
L 469 0 
L 469 531 
Q 828 903 1448 1529 
Q 2069 2156 2228 2338 
Q 2531 2678 2651 2914 
Q 2772 3150 2772 3378 
Q 2772 3750 2511 3984 
Q 2250 4219 1831 4219 
Q 1534 4219 1204 4116 
Q 875 4013 500 3803 
L 500 4441 
Q 881 4594 1212 4672 
Q 1544 4750 1819 4750 
Q 2544 4750 2975 4387 
Q 3406 4025 3406 3419 
Q 3406 3131 3298 2873 
Q 3191 2616 2906 2266 
Q 2828 2175 2409 1742 
Q 1991 1309 1228 531 
z
" transform="scale(0.015625)"/>
        <path id="DejaVuSans-30" d="M 2034 4250 
Q 1547 4250 1301 3770 
Q 1056 3291 1056 2328 
Q 1056 1369 1301 889 
Q 1547 409 2034 409 
Q 2525 409 2770 889 
Q 3016 1369 3016 2328 
Q 3016 3291 2770 3770 
Q 2525 4250 2034 4250 
z
M 2034 4750 
Q 2819 4750 3233 4129 
Q 3647 3509 3647 2328 
Q 3647 1150 3233 529 
Q 2819 -91 2034 -91 
Q 1250 -91 836 529 
Q 422 1150 422 2328 
Q 422 3509 836 4129 
Q 1250 4750 2034 4750 
z
" transform="scale(0.015625)"/>
        <path id="DejaVuSans-2d" d="M 313 2009 
L 1997 2009 
L 1997 1497 
L 313 1497 
L 313 2009 
z
" transform="scale(0.015625)"/>
        <path id="DejaVuSans-35" d="M 691 4666 
L 3169 4666 
L 3169 4134 
L 1269 4134 
L 1269 2991 
Q 1406 3038 1543 3061 
Q 1681 3084 1819 3084 
Q 2600 3084 3056 2656 
Q 3513 2228 3513 1497 
Q 3513 744 3044 326 
Q 2575 -91 1722 -91 
Q 1428 -91 1123 -41 
Q 819 9 494 109 
L 494 744 
Q 775 591 1075 516 
Q 1375 441 1709 441 
Q 2250 441 2565 725 
Q 2881 1009 2881 1497 
Q 2881 1984 2565 2268 
Q 2250 2553 1709 2553 
Q 1456 2553 1204 2497 
Q 953 2441 691 2322 
L 691 4666 
z
" transform="scale(0.015625)"/>
        <path id="DejaVuSans-31" d="M 794 531 
L 1825 531 
L 1825 4091 
L 703 3866 
L 703 4441 
L 1819 4666 
L 2450 4666 
L 2450 531 
L 3481 531 
L 3481 0 
L 794 0 
L 794 531 
z
" transform="scale(0.015625)"/>
       </defs>
       <use xlink:href="#DejaVuSans-32"/>
       <use xlink:href="#DejaVuSans-30" x="63.623047"/>
       <use xlink:href="#DejaVuSans-32" x="127.246094"/>
       <use xlink:href="#DejaVuSans-30" x="190.869141"/>
       <use xlink:href="#DejaVuSans-2d" x="254.492188"/>
       <use xlink:href="#DejaVuSans-30" x="290.576172"/>
       <use xlink:href="#DejaVuSans-35" x="354.199219"/>
       <use xlink:href="#DejaVuSans-2d" x="417.822266"/>
       <use xlink:href="#DejaVuSans-31" x="453.90625"/>
       <use xlink:href="#DejaVuSans-35" x="517.529297"/>
      </g>
     </g>
    </g>
    <g id="xtick_2">
     <g id="line2d_2">
      <g>
       <use xlink:href="#meecfa950cb" x="212.435902" y="320.4" style="stroke: #000000; stroke-width: 0.8"/>
      </g>
     </g>
     <g id="text_2">
      <!-- 2020-06-01 -->
      <g transform="translate(183.37809 334.998438) scale(0.1 -0.1)">
       <defs>
        <path id="DejaVuSans-36" d="M 2113 2584 
Q 1688 2584 1439 2293 
Q 1191 2003 1191 1497 
Q 1191 994 1439 701 
Q 1688 409 2113 409 
Q 2538 409 2786 701 
Q 3034 994 3034 1497 
Q 3034 2003 2786 2293 
Q 2538 2584 2113 2584 
z
M 3366 4563 
L 3366 3988 
Q 3128 4100 2886 4159 
Q 2644 4219 2406 4219 
Q 1781 4219 1451 3797 
Q 1122 3375 1075 2522 
Q 1259 2794 1537 2939 
Q 1816 3084 2150 3084 
Q 2853 3084 3261 2657 
Q 3669 2231 3669 1497 
Q 3669 778 3244 343 
Q 2819 -91 2113 -91 
Q 1303 -91 875 529 
Q 447 1150 447 2328 
Q 447 3434 972 4092 
Q 1497 4750 2381 4750 
Q 2619 4750 2861 4703 
Q 3103 4656 3366 4563 
z
" transform="scale(0.015625)"/>
       </defs>
       <use xlink:href="#DejaVuSans-32"/>
       <use xlink:href="#DejaVuSans-30" x="63.623047"/>
       <use xlink:href="#DejaVuSans-32" x="127.246094"/>
       <use xlink:href="#DejaVuSans-30" x="190.869141"/>
       <use xlink:href="#DejaVuSans-2d" x="254.492188"/>
       <use xlink:href="#DejaVuSans-30" x="290.576172"/>
       <use xlink:href="#DejaVuSans-36" x="354.199219"/>
       <use xlink:href="#DejaVuSans-2d" x="417.822266"/>
       <use xlink:href="#DejaVuSans-30" x="453.90625"/>
       <use xlink:href="#DejaVuSans-31" x="517.529297"/>
      </g>
     </g>
    </g>
    <g id="xtick_3">
     <g id="line2d_3">
      <g>
       <use xlink:href="#meecfa950cb" x="280.427924" y="320.4" style="stroke: #000000; stroke-width: 0.8"/>
      </g>
     </g>
     <g id="text_3">
      <!-- 2020-06-15 -->
      <g transform="translate(251.370111 334.998438) scale(0.1 -0.1)">
       <use xlink:href="#DejaVuSans-32"/>
       <use xlink:href="#DejaVuSans-30" x="63.623047"/>
       <use xlink:href="#DejaVuSans-32" x="127.246094"/>
       <use xlink:href="#DejaVuSans-30" x="190.869141"/>
       <use xlink:href="#DejaVuSans-2d" x="254.492188"/>
       <use xlink:href="#DejaVuSans-30" x="290.576172"/>
       <use xlink:href="#DejaVuSans-36" x="354.199219"/>
       <use xlink:href="#DejaVuSans-2d" x="417.822266"/>
       <use xlink:href="#DejaVuSans-31" x="453.90625"/>
       <use xlink:href="#DejaVuSans-35" x="517.529297"/>
      </g>
     </g>
    </g>
    <g id="xtick_4">
     <g id="line2d_4">
      <g>
       <use xlink:href="#meecfa950cb" x="358.133092" y="320.4" style="stroke: #000000; stroke-width: 0.8"/>
      </g>
     </g>
     <g id="text_4">
      <!-- 2020-07-01 -->
      <g transform="translate(329.075279 334.998438) scale(0.1 -0.1)">
       <defs>
        <path id="DejaVuSans-37" d="M 525 4666 
L 3525 4666 
L 3525 4397 
L 1831 0 
L 1172 0 
L 2766 4134 
L 525 4134 
L 525 4666 
z
" transform="scale(0.015625)"/>
       </defs>
       <use xlink:href="#DejaVuSans-32"/>
       <use xlink:href="#DejaVuSans-30" x="63.623047"/>
       <use xlink:href="#DejaVuSans-32" x="127.246094"/>
       <use xlink:href="#DejaVuSans-30" x="190.869141"/>
       <use xlink:href="#DejaVuSans-2d" x="254.492188"/>
       <use xlink:href="#DejaVuSans-30" x="290.576172"/>
       <use xlink:href="#DejaVuSans-37" x="354.199219"/>
       <use xlink:href="#DejaVuSans-2d" x="417.822266"/>
       <use xlink:href="#DejaVuSans-30" x="453.90625"/>
       <use xlink:href="#DejaVuSans-31" x="517.529297"/>
      </g>
     </g>
    </g>
    <g id="xtick_5">
     <g id="line2d_5">
      <g>
       <use xlink:href="#meecfa950cb" x="426.125113" y="320.4" style="stroke: #000000; stroke-width: 0.8"/>
      </g>
     </g>
     <g id="text_5">
      <!-- 2020-07-15 -->
      <g transform="translate(397.067301 334.998438) scale(0.1 -0.1)">
       <use xlink:href="#DejaVuSans-32"/>
       <use xlink:href="#DejaVuSans-30" x="63.623047"/>
       <use xlink:href="#DejaVuSans-32" x="127.246094"/>
       <use xlink:href="#DejaVuSans-30" x="190.869141"/>
       <use xlink:href="#DejaVuSans-2d" x="254.492188"/>
       <use xlink:href="#DejaVuSans-30" x="290.576172"/>
       <use xlink:href="#DejaVuSans-37" x="354.199219"/>
       <use xlink:href="#DejaVuSans-2d" x="417.822266"/>
       <use xlink:href="#DejaVuSans-31" x="453.90625"/>
       <use xlink:href="#DejaVuSans-35" x="517.529297"/>
      </g>
     </g>
    </g>
    <g id="xtick_6">
     <g id="line2d_6">
      <g>
       <use xlink:href="#meecfa950cb" x="508.686854" y="320.4" style="stroke: #000000; stroke-width: 0.8"/>
      </g>
     </g>
     <g id="text_6">
      <!-- 2020-08-01 -->
      <g transform="translate(479.629042 334.998438) scale(0.1 -0.1)">
       <defs>
        <path id="DejaVuSans-38" d="M 2034 2216 
Q 1584 2216 1326 1975 
Q 1069 1734 1069 1313 
Q 1069 891 1326 650 
Q 1584 409 2034 409 
Q 2484 409 2743 651 
Q 3003 894 3003 1313 
Q 3003 1734 2745 1975 
Q 2488 2216 2034 2216 
z
M 1403 2484 
Q 997 2584 770 2862 
Q 544 3141 544 3541 
Q 544 4100 942 4425 
Q 1341 4750 2034 4750 
Q 2731 4750 3128 4425 
Q 3525 4100 3525 3541 
Q 3525 3141 3298 2862 
Q 3072 2584 2669 2484 
Q 3125 2378 3379 2068 
Q 3634 1759 3634 1313 
Q 3634 634 3220 271 
Q 2806 -91 2034 -91 
Q 1263 -91 848 271 
Q 434 634 434 1313 
Q 434 1759 690 2068 
Q 947 2378 1403 2484 
z
M 1172 3481 
Q 1172 3119 1398 2916 
Q 1625 2713 2034 2713 
Q 2441 2713 2670 2916 
Q 2900 3119 2900 3481 
Q 2900 3844 2670 4047 
Q 2441 4250 2034 4250 
Q 1625 4250 1398 4047 
Q 1172 3844 1172 3481 
z
" transform="scale(0.015625)"/>
       </defs>
       <use xlink:href="#DejaVuSans-32"/>
       <use xlink:href="#DejaVuSans-30" x="63.623047"/>
       <use xlink:href="#DejaVuSans-32" x="127.246094"/>
       <use xlink:href="#DejaVuSans-30" x="190.869141"/>
       <use xlink:href="#DejaVuSans-2d" x="254.492188"/>
       <use xlink:href="#DejaVuSans-30" x="290.576172"/>
       <use xlink:href="#DejaVuSans-38" x="354.199219"/>
       <use xlink:href="#DejaVuSans-2d" x="417.822266"/>
       <use xlink:href="#DejaVuSans-30" x="453.90625"/>
       <use xlink:href="#DejaVuSans-31" x="517.529297"/>
      </g>
     </g>
    </g>
   </g>
   <g id="matplotlib.axis_2">
    <g id="ytick_1">
     <g id="line2d_7">
      <defs>
       <path id="m3221b7fe49" d="M 0 0 
L -3.5 0 
" style="stroke: #000000; stroke-width: 0.8"/>
      </defs>
      <g>
       <use xlink:href="#m3221b7fe49" x="72" y="316.02311" style="stroke: #000000; stroke-width: 0.8"/>
      </g>
     </g>
     <g id="text_7">
      <!-- −2 -->
      <g transform="translate(50.257812 319.822329) scale(0.1 -0.1)">
       <defs>
        <path id="DejaVuSans-2212" d="M 678 2272 
L 4684 2272 
L 4684 1741 
L 678 1741 
L 678 2272 
z
" transform="scale(0.015625)"/>
       </defs>
       <use xlink:href="#DejaVuSans-2212"/>
       <use xlink:href="#DejaVuSans-32" x="83.789062"/>
      </g>
     </g>
    </g>
    <g id="ytick_2">
     <g id="line2d_8">
      <g>
       <use xlink:href="#m3221b7fe49" x="72" y="262.270962" style="stroke: #000000; stroke-width: 0.8"/>
      </g>
     </g>
     <g id="text_8">
      <!-- −1 -->
      <g transform="translate(50.257812 266.070181) scale(0.1 -0.1)">
       <use xlink:href="#DejaVuSans-2212"/>
       <use xlink:href="#DejaVuSans-31" x="83.789062"/>
      </g>
     </g>
    </g>
    <g id="ytick_3">
     <g id="line2d_9">
      <g>
       <use xlink:href="#m3221b7fe49" x="72" y="208.518814" style="stroke: #000000; stroke-width: 0.8"/>
      </g>
     </g>
     <g id="text_9">
      <!-- 0 -->
      <g transform="translate(58.6375 212.318032) scale(0.1 -0.1)">
       <use xlink:href="#DejaVuSans-30"/>
      </g>
     </g>
    </g>
    <g id="ytick_4">
     <g id="line2d_10">
      <g>
       <use xlink:href="#m3221b7fe49" x="72" y="154.766666" style="stroke: #000000; stroke-width: 0.8"/>
      </g>
     </g>
     <g id="text_10">
      <!-- 1 -->
      <g transform="translate(58.6375 158.565884) scale(0.1 -0.1)">
       <use xlink:href="#DejaVuSans-31"/>
      </g>
     </g>
    </g>
    <g id="ytick_5">
     <g id="line2d_11">
      <g>
       <use xlink:href="#m3221b7fe49" x="72" y="101.014518" style="stroke: #000000; stroke-width: 0.8"/>
      </g>
     </g>
     <g id="text_11">
      <!-- 2 -->
      <g transform="translate(58.6375 104.813736) scale(0.1 -0.1)">
       <use xlink:href="#DejaVuSans-32"/>
      </g>
     </g>
    </g>
    <g id="ytick_6">
     <g id="line2d_12">
      <g>
       <use xlink:href="#m3221b7fe49" x="72" y="47.262369" style="stroke: #000000; stroke-width: 0.8"/>
      </g>
     </g>
     <g id="text_12">
      <!-- 3 -->
      <g transform="translate(58.6375 51.061588) scale(0.1 -0.1)">
       <defs>
        <path id="DejaVuSans-33" d="M 2597 2516 
Q 3050 2419 3304 2112 
Q 3559 1806 3559 1356 
Q 3559 666 3084 287 
Q 2609 -91 1734 -91 
Q 1441 -91 1130 -33 
Q 819 25 488 141 
L 488 750 
Q 750 597 1062 519 
Q 1375 441 1716 441 
Q 2309 441 2620 675 
Q 2931 909 2931 1356 
Q 2931 1769 2642 2001 
Q 2353 2234 1838 2234 
L 1294 2234 
L 1294 2753 
L 1863 2753 
Q 2328 2753 2575 2939 
Q 2822 3125 2822 3475 
Q 2822 3834 2567 4026 
Q 2313 4219 1838 4219 
Q 1578 4219 1281 4162 
Q 984 4106 628 3988 
L 628 4550 
Q 988 4650 1302 4700 
Q 1616 4750 1894 4750 
Q 2613 4750 3031 4423 
Q 3450 4097 3450 3541 
Q 3450 3153 3228 2886 
Q 3006 2619 2597 2516 
z
" transform="scale(0.015625)"/>
       </defs>
       <use xlink:href="#DejaVuSans-33"/>
      </g>
     </g>
    </g>
   </g>
   <g id="line2d_13">
    <path d="M 72 287.021497 
L 72.404714 298.412757 
L 72.607072 296.682973 
L 72.809429 285.96675 
L 73.214143 254.915018 
L 73.618858 242.426821 
L 75.035358 159.101858 
L 75.237715 156.127474 
L 75.440073 161.211351 
L 75.64243 169.459468 
L 75.844787 172.771371 
L 76.047144 188.086288 
L 76.654216 258.669915 
L 77.05893 282.844701 
L 77.261287 287.232446 
L 77.463645 286.852737 
L 77.666002 276.094324 
L 78.070716 247.468508 
L 78.475431 234.938122 
L 78.677788 225.761828 
L 79.487217 168.510196 
L 79.891931 152.161627 
L 80.094288 154.123456 
L 80.903717 196.735208 
L 81.713146 272.423807 
L 82.11786 287.148066 
L 82.320218 289.194274 
L 82.522575 288.898945 
L 82.724932 286.367554 
L 82.927289 279.511703 
L 83.332004 256.412757 
L 83.736718 242.026017 
L 83.939075 238.967253 
L 84.141432 239.241487 
L 84.546147 245.675439 
L 84.748504 247.784932 
L 84.950861 247.806027 
L 85.355576 252.025013 
L 85.557933 248.670919 
L 85.76029 254.830638 
L 86.569719 300.015972 
L 86.772076 306.133501 
L 86.974433 307.736715 
L 87.176791 307.8 
L 87.379148 306.449925 
L 87.581505 302.695028 
L 87.783862 295.902461 
L 88.188577 273.731693 
L 88.390934 268.521246 
L 89.200363 260.399699 
L 89.40272 256.243998 
L 89.807434 241.372074 
L 90.212149 238.903968 
L 90.414506 236.182722 
L 90.616863 244.1777 
L 91.223935 295.037569 
L 91.628649 306.133501 
L 91.831006 306.196786 
L 92.033364 303.686489 
L 92.842792 257.277649 
L 93.04515 255.125967 
L 93.449864 246.477047 
L 93.652221 245.949674 
L 93.854578 242.996384 
L 94.056936 242.363536 
L 94.259293 239.72667 
L 94.46165 233.292717 
L 94.664007 230.423807 
L 94.866364 231.351984 
L 95.068722 234.516223 
L 95.271079 230.655851 
L 95.473436 240.823606 
L 96.080508 295.417278 
L 96.485222 304.677951 
L 96.687579 306.597589 
L 96.889937 302.230939 
L 97.699365 256.539327 
L 98.306437 245.970768 
L 98.508794 245.59106 
L 99.52058 224.242993 
L 99.722937 225.508689 
L 99.925295 229.896434 
L 100.127652 228.061175 
L 100.330009 238.27112 
L 100.937081 292.928076 
L 101.341795 305.268609 
L 101.544152 306.26007 
L 101.74651 302.526268 
L 101.948867 290.50216 
L 102.353581 260.294224 
L 102.555938 258.733199 
L 103.567724 240.844701 
L 104.377153 218.610648 
L 104.57951 219.897438 
L 104.781868 225.318835 
L 104.984225 225.29774 
L 105.186582 234.241989 
L 105.793654 289.763837 
L 106.198368 302.589553 
L 106.400725 304.361527 
L 106.603083 300.311301 
L 107.412511 254.11341 
L 107.614869 252.383626 
L 107.817226 248.692014 
L 108.22194 234.07323 
L 108.626655 212.23998 
L 108.829012 206.270116 
L 109.031369 204.371572 
L 109.638441 213.104872 
L 109.840798 218.568458 
L 110.043155 229.031542 
L 110.650227 284.405726 
L 111.054941 298.750276 
L 111.257298 300.669915 
L 111.459655 298.919036 
L 111.662013 287.443395 
L 112.066727 258.015972 
L 112.471442 242.933099 
L 113.887942 174.121447 
L 114.090299 171.73772 
L 114.292656 178.593571 
L 114.495014 190.090306 
L 114.697371 194.710095 
L 115.102085 228.926067 
L 115.709157 278.583526 
L 116.113871 292.611652 
L 116.316228 292.780412 
L 116.518586 291.113913 
L 116.720943 287.46449 
L 117.125657 260.06218 
L 118.542158 154.777398 
L 118.744515 144.609643 
L 118.946872 140.707082 
L 119.149229 144.398694 
L 119.756301 182.496133 
L 120.56573 262.319337 
L 120.970444 282.254043 
L 121.172801 286.367554 
L 121.375159 288.012958 
L 121.577516 286.557408 
L 121.779873 278.583526 
L 122.589302 227.280663 
L 123.196374 201.671421 
L 123.398731 197.072727 
L 123.601088 197.283677 
L 123.803445 196.714114 
L 124.410517 210.193772 
L 124.612874 221.226419 
L 125.219946 277.845203 
L 125.62466 292.463988 
L 125.827017 294.468006 
L 126.029374 291.91552 
L 127.04116 235.191261 
L 127.648232 197.557911 
L 128.255304 154.925063 
L 128.457661 147.330889 
L 128.660018 146.99337 
L 129.26709 191.588046 
L 130.278876 282.971271 
L 130.481233 290.839679 
L 130.68359 292.231944 
L 130.885947 289.637268 
L 132.504805 180.070216 
L 133.111877 137.142039 
L 133.314234 127.670417 
L 133.516591 129.379106 
L 133.921306 144.841688 
L 134.123663 152.309292 
L 135.135449 262.84671 
L 135.540163 275.545856 
L 135.74252 274.596585 
L 135.944878 263.943646 
L 136.349592 232.343446 
L 136.551949 225.529784 
L 136.754306 213.590055 
L 136.956664 218.188749 
L 137.159021 206.818584 
L 137.766092 197.937619 
L 137.96845 198.338423 
L 138.373164 192.895932 
L 138.777879 200.490105 
L 138.980236 201.333903 
L 139.182593 213.210347 
L 139.789665 270.187745 
L 140.194379 285.650326 
L 140.396736 287.738724 
L 140.599093 284.701055 
L 141.003808 254.303265 
L 141.408522 232.997388 
L 142.015594 219.51773 
L 142.622665 210.320342 
L 142.825023 210.046107 
L 143.02738 208.822602 
L 143.229737 209.518734 
L 143.634451 214.834656 
L 143.836809 213.590055 
L 144.039166 223.84219 
L 144.646238 273.499648 
L 145.050952 285.671421 
L 145.253309 286.979307 
L 145.455666 283.815068 
L 145.860381 253.965746 
L 146.062738 237.406228 
L 146.66981 220.825615 
L 146.872167 218.125465 
L 147.074524 217.028528 
L 147.479238 205.848217 
L 147.681596 214.370568 
L 147.883953 215.362029 
L 148.08631 217.998895 
L 148.491024 227.386138 
L 148.693382 226.014967 
L 149.098096 249.83114 
L 149.502811 278.203817 
L 149.907525 291.430337 
L 150.109882 293.518734 
L 150.312239 292.928076 
L 150.514597 290.059166 
L 150.716954 284.258061 
L 151.121668 263.036565 
L 151.526383 242.194776 
L 151.931097 236.288197 
L 152.133454 235.845203 
L 152.335811 237.849221 
L 152.538169 238.376595 
L 152.740526 236.288197 
L 152.942883 236.583526 
L 153.14524 235.592064 
L 153.347597 235.634254 
L 153.549955 232.659869 
L 153.752312 234.895932 
L 154.764098 287.253541 
L 154.966455 291.282672 
L 155.168812 292.696032 
L 155.573527 288.687996 
L 155.775884 277.423305 
L 156.78767 198.127474 
L 157.799456 154.756303 
L 158.001813 156.802511 
L 158.406528 170.23998 
L 158.608885 184.036062 
L 159.215956 253.881366 
L 159.620671 275.86228 
L 159.823028 279.131994 
L 160.025385 278.203817 
L 160.227743 268.225917 
L 160.632457 235.191261 
L 161.8466 183.993872 
L 162.251315 173.762833 
L 162.453672 173.910497 
L 162.656029 176.821597 
L 163.465458 209.20231 
L 164.072529 270.12446 
L 164.477244 289.067705 
L 164.679601 289.405224 
L 164.881958 286.114415 
L 165.084316 275.777901 
L 165.48903 243.439377 
L 166.500816 207.725665 
L 167.310245 164.038071 
L 167.512602 167.45545 
L 167.917316 188.402712 
L 168.119674 192.938122 
L 168.322031 204.498142 
L 168.929102 264.977298 
L 169.333817 280.439879 
L 169.536174 284.026017 
L 169.738531 280.292215 
L 170.143246 252.510196 
L 170.54796 221.648317 
L 171.357389 176.273129 
L 171.559746 170.134505 
L 172.166818 145.49563 
L 172.369175 147.141035 
L 172.571532 155.199297 
L 173.178604 194.878855 
L 173.785675 267.25555 
L 174.19039 287.000402 
L 174.392747 290.038071 
L 174.595104 288.181718 
L 174.999819 263.542843 
L 175.404533 238.081266 
L 177.023391 158.405726 
L 177.225748 158.933099 
L 177.428105 162.92004 
L 177.630462 179.817077 
L 177.83282 182.306278 
L 178.237534 227.238473 
L 178.642248 270.947162 
L 179.046963 290.50216 
L 179.24932 294.299247 
L 179.451677 291.725665 
L 179.654034 282.865796 
L 180.261106 242.258061 
L 181.879964 143.449422 
L 182.082321 140.116424 
L 182.284678 145.896434 
L 183.094107 203.316826 
L 183.498821 243.080763 
L 183.903536 264.956203 
L 184.30825 272.95118 
L 184.510607 274.343446 
L 184.712965 270.630738 
L 184.915322 256.98232 
L 185.724751 173.340934 
L 186.129465 151.52878 
L 186.331822 145.347966 
L 186.53418 144.567454 
L 186.736537 147.16213 
L 187.748323 188.423807 
L 188.557752 253.923556 
L 188.962466 268.394676 
L 189.164823 270.483074 
L 189.36718 270.567454 
L 189.569538 269.808036 
L 189.771895 258.796484 
L 190.986038 160.810547 
L 191.188395 155.389151 
L 191.390752 155.346961 
L 191.795467 164.692014 
L 192.604896 196.671924 
L 193.414325 261.370065 
L 193.819039 275.377097 
L 194.021396 276.474033 
L 194.426111 272.423807 
L 194.628468 263.268609 
L 195.437897 201.017479 
L 195.640254 195.891411 
L 195.842611 197.136012 
L 196.247325 203.337921 
L 196.449683 203.928579 
L 196.65204 203.527775 
L 197.056754 211.923556 
L 197.259112 212.788448 
L 197.461469 221.395178 
L 198.06854 270.841688 
L 198.473255 285.354997 
L 198.675612 285.460472 
L 198.877969 281.72667 
L 199.282684 250.231944 
L 199.687398 226.879859 
L 201.306256 158.933099 
L 201.508613 157.751783 
L 202.115684 177.39116 
L 202.318042 188.803516 
L 202.925113 254.366549 
L 203.329828 272.423807 
L 203.532185 274.57549 
L 203.734542 271.516725 
L 203.936899 259.724661 
L 204.341614 224.939126 
L 205.758114 168.995379 
L 205.960471 166.442893 
L 206.162829 166.590558 
L 206.365186 168.046107 
L 206.7699 180.175691 
L 206.972257 183.445404 
L 207.174615 194.541336 
L 207.781686 254.978302 
L 208.186401 271.516725 
L 208.388758 274.638774 
L 208.591115 271.221396 
L 208.793472 259.070718 
L 209.198187 224.475038 
L 209.805258 201.671421 
L 210.209973 181.314817 
L 210.817044 138.639779 
L 211.019402 129.948669 
L 211.221759 132.986339 
L 211.626473 158.047112 
L 211.82883 163.384129 
L 212.031188 178.467002 
L 212.638259 245.063687 
L 213.042974 264.091311 
L 213.245331 268.183727 
L 213.447688 266.432848 
L 213.650045 255.463486 
L 214.257117 211.164139 
L 214.661831 184.183727 
L 215.47126 123.409242 
L 215.875975 106.280161 
L 216.078332 105.794977 
L 216.280689 111.469513 
L 217.090118 176.779407 
L 217.697189 240.190758 
L 218.101904 259.091813 
L 218.304261 262.530286 
L 218.506618 263.922551 
L 218.708976 262.635761 
L 218.911333 249.599096 
L 219.518404 193.48659 
L 220.125476 157.435359 
L 220.327833 155.220392 
L 220.53019 157.498644 
L 221.541976 200.827624 
L 221.744334 206.101356 
L 222.553762 264.365545 
L 222.958477 275.503666 
L 223.160834 277.254545 
L 223.363191 277.613159 
L 223.565549 276.009945 
L 223.767906 267.086791 
L 224.374977 227.955701 
L 224.779692 220.192767 
L 225.386763 222.30226 
L 225.589121 225.909493 
L 225.791478 226.816575 
L 226.196192 235.40221 
L 226.398549 235.043596 
L 226.600907 241.625213 
L 227.410335 296.535309 
L 227.612693 300.669915 
L 227.81505 302.399699 
L 228.017407 299.129985 
L 228.826836 255.505676 
L 229.029193 253.121949 
L 229.23155 247.236464 
L 230.648051 182.285183 
L 230.850408 182.875841 
L 231.255122 197.64229 
L 231.45748 208.801507 
L 232.064551 274.027022 
L 232.469266 291.620191 
L 232.671623 294.404721 
L 232.87398 293.160121 
L 233.278694 267.25555 
L 233.683409 244.1777 
L 235.302267 178.024008 
L 235.504624 177.412255 
L 236.111695 196.988348 
L 236.314053 207.599096 
L 236.921124 271.242491 
L 237.325839 287.50668 
L 237.528196 290.713109 
L 237.730553 288.540331 
L 238.135267 264.006931 
L 238.539982 241.688498 
L 239.349411 210.003918 
L 239.754125 199.751783 
L 240.15884 189.288699 
L 240.361197 189.03556 
L 240.563554 194.625716 
L 240.968268 212.661878 
L 241.170626 220.424812 
L 241.777697 277.31783 
L 242.182412 293.560924 
L 242.384769 296.11341 
L 242.587126 293.054646 
L 242.99184 267.740733 
L 243.396555 249.345957 
L 245.21777 172.876846 
L 245.420127 177.222401 
L 246.027199 204.666901 
L 246.836627 279.933601 
L 247.038985 288.498142 
L 247.241342 291.74676 
L 247.443699 289.152084 
L 247.848413 265.019488 
L 249.467271 150.305274 
L 249.669628 142.036062 
L 249.871985 140.053139 
L 250.074343 140.221899 
L 250.2767 147.330889 
L 250.883772 180.21788 
L 251.6932 257.003415 
L 252.097915 271.875339 
L 252.300272 275.018483 
L 252.502629 275.292717 
L 252.704986 271.326871 
L 253.109701 237.785937 
L 253.91913 162.814566 
L 254.323844 146.634756 
L 254.728558 137.606128 
L 254.930916 136.319337 
L 255.133273 143.997891 
L 255.740345 182.369563 
L 256.549773 259.387142 
L 256.954488 275.229432 
L 257.156845 279.131994 
L 257.359202 280.840683 
L 257.561559 279.849221 
L 257.966274 250.274134 
L 258.573345 198.675942 
L 258.97806 176.484078 
L 259.382774 165.198292 
L 259.585131 161.675439 
L 259.787489 161.232446 
L 259.989846 163.911502 
L 260.39456 180.281165 
L 260.596917 193.950678 
L 261.203989 257.425314 
L 261.608704 276.579508 
L 261.811061 279.574987 
L 262.013418 278.77338 
L 262.418132 254.23998 
L 262.62049 241.941637 
L 263.025204 232.048117 
L 263.227561 229.179206 
L 263.429918 228.145555 
L 263.834633 229.45344 
L 264.03699 229.137017 
L 264.239347 230.107383 
L 264.441704 230.191763 
L 264.644062 229.917529 
L 264.846419 232.005927 
L 265.048776 236.140532 
L 265.251133 236.140532 
L 265.45349 240.254043 
L 266.060562 283.730688 
L 266.465277 296.872828 
L 266.667634 298.454947 
L 266.869991 294.172677 
L 267.072348 286.030035 
L 267.477063 258.901959 
L 268.084134 236.203817 
L 268.488849 225.677449 
L 269.09592 214.159618 
L 269.500635 210.109392 
L 269.702992 212.345455 
L 269.905349 216.037067 
L 270.107706 216.733199 
L 270.310063 223.188247 
L 270.917135 273.204319 
L 271.32185 285.460472 
L 271.524207 287.654345 
L 271.726564 285.903466 
L 274.15485 140.960221 
L 274.357208 133.619186 
L 274.559565 137.036565 
L 275.166636 162.793471 
L 275.976065 246.308287 
L 276.38078 259.176193 
L 276.583137 258.458965 
L 276.987851 236.098343 
L 277.392566 206.50216 
L 278.404352 148.195781 
L 278.606709 145.073732 
L 279.011423 131.530789 
L 279.213781 129.885384 
L 279.416138 134.252034 
L 280.023209 176.969262 
L 280.630281 250.020994 
L 281.034995 273.351984 
L 281.237353 278.351482 
L 281.43971 276.769362 
L 281.642067 270.736213 
L 282.249139 227.976796 
L 282.85621 193.52878 
L 283.867996 149.714616 
L 284.070354 148.49111 
L 284.272711 156.844701 
L 285.284497 241.920542 
L 285.689211 274.870819 
L 286.093926 289.974787 
L 286.296283 292.316323 
L 286.49864 290.45997 
L 286.700997 287.443395 
L 287.105712 255.674435 
L 287.712783 202.873832 
L 288.522212 158.384631 
L 288.724569 151.085786 
L 288.926927 149.102863 
L 289.129284 152.77338 
L 289.736355 187.411251 
L 290.545784 259.197288 
L 290.950499 274.849724 
L 291.152856 277.697539 
L 291.355213 277.781919 
L 291.55757 276.263084 
L 291.759927 263.479558 
L 292.771714 162.392667 
L 293.176428 139.863285 
L 293.581142 128.345455 
L 293.7835 126.573481 
L 293.985857 130.180713 
L 294.592928 156.338423 
L 295.402357 241.667403 
L 295.807072 256.729181 
L 296.009429 256.560422 
L 296.414143 235.760824 
L 297.830644 97.293722 
L 298.235358 83.645304 
L 298.437715 80.987343 
L 298.640073 81.261577 
L 298.84243 83.37107 
L 299.044787 91.619186 
L 299.449501 119.295731 
L 300.056573 200.363536 
L 300.461287 226.268106 
L 300.663645 232.44892 
L 300.866002 233.187243 
L 301.068359 226.183727 
L 301.473073 195.342943 
L 302.484859 87.273631 
L 302.687217 75.650326 
L 302.889574 75.755801 
L 303.091931 84.067202 
L 303.496646 92.948167 
L 303.90136 115.793973 
L 304.306074 144.483074 
L 304.913146 215.551883 
L 305.31786 241.583024 
L 305.520218 247.299749 
L 305.722575 245.46449 
L 305.924932 238.14455 
L 306.532004 197.114917 
L 307.54379 125.223405 
L 307.746147 114.739227 
L 307.948504 113.832145 
L 308.757933 146.972275 
L 309.162647 173.741738 
L 309.769719 238.439879 
L 310.174433 258.859769 
L 310.376791 263.374083 
L 310.579148 262.783425 
L 310.983862 238.735208 
L 312.198005 131.889402 
L 312.60272 119.949674 
L 312.805077 115.456454 
L 313.007434 116.026017 
L 313.209791 119.823104 
L 313.816863 148.153591 
L 314.01922 162.202813 
L 314.626292 226.479056 
L 315.031006 247.531793 
L 315.233364 252.235962 
L 315.435721 251.560924 
L 315.840435 232.280161 
L 316.24515 213.062682 
L 316.649864 200.72215 
L 317.054578 185.006429 
L 317.66165 177.285686 
L 317.864007 176.821597 
L 318.066364 175.89342 
L 318.268722 180.703064 
L 318.875793 203.443395 
L 319.685222 263.627223 
L 320.089937 276.748267 
L 320.292294 278.435861 
L 320.697008 270.293219 
L 321.101723 243.354997 
L 322.315866 163.320844 
L 322.72058 152.794475 
L 322.922937 150.410748 
L 323.125295 154.650829 
L 323.732366 183.023506 
L 324.541795 253.417278 
L 324.94651 268.099347 
L 325.148867 271.073732 
L 325.351224 271.137017 
L 325.553581 268.816575 
L 325.755938 256.159618 
L 326.970082 140.707082 
L 327.172439 134.209844 
L 327.374796 132.585535 
L 327.77951 126.86881 
L 327.981868 131.994877 
L 328.184225 141.023506 
L 328.791296 194.077248 
L 329.196011 238.988348 
L 329.398368 254.640784 
L 329.803083 265.019488 
L 330.00544 264.049121 
L 330.207797 258.290206 
L 330.814869 208.463988 
L 331.42194 169.206328 
L 331.826655 145.917529 
L 332.029012 142.943144 
L 332.231369 142.964239 
L 332.433726 143.154093 
L 332.636083 145.305776 
L 332.838441 149.967755 
L 333.243155 173.509694 
L 333.445512 182.770367 
L 334.052584 250.274134 
L 334.457298 272.655851 
L 334.659655 278.224912 
L 334.862013 275.756806 
L 335.266727 255.379106 
L 335.671442 230.360522 
L 336.48087 189.16213 
L 336.683228 183.951683 
L 336.885585 182.812557 
L 337.087942 176.462983 
L 337.290299 174.56444 
L 337.695014 181.209342 
L 338.099728 196.060171 
L 338.302085 202.09332 
L 339.111514 269.702562 
L 339.313871 276.07323 
L 339.516228 278.372577 
L 339.718586 274.195781 
L 340.1233 250.210849 
L 340.932729 204.540331 
L 342.349229 141.107885 
L 342.551587 141.023506 
L 343.158658 166.379608 
L 343.76573 230.845706 
L 344.170444 249.345957 
L 344.372801 254.23998 
L 344.575159 252.046107 
L 344.777516 244.937117 
L 345.18223 213.210347 
L 346.194016 128.32436 
L 346.598731 113.157107 
L 347.003445 106.36454 
L 347.205802 105.499648 
L 347.40816 108.769362 
L 347.610517 116.827624 
L 348.015231 143.639277 
L 348.82466 237.237469 
L 349.229374 254.809543 
L 349.431732 254.029031 
L 349.634089 248.080261 
L 349.836446 236.646811 
L 351.050589 129.379106 
L 351.455304 110.520241 
L 351.860018 101.428327 
L 352.062375 100.500151 
L 352.264733 104.233953 
L 352.46709 115.625213 
L 353.276519 200.975289 
L 353.681233 239.937619 
L 354.085947 260.673933 
L 354.288305 266.095329 
L 354.490662 266.685987 
L 354.693019 264.38664 
L 355.097733 221.205324 
L 355.704805 145.369061 
L 356.109519 119.991863 
L 356.716591 101.301758 
L 356.918948 100.183727 
L 357.121306 105.11994 
L 357.52602 131.446409 
L 357.728377 144.483074 
L 358.740163 242.574485 
L 359.144878 255.906479 
L 359.347235 257.826118 
L 359.549592 257.488599 
L 359.751949 243.101858 
L 360.763735 119.169161 
L 361.16845 99.571974 
L 361.573164 88.159618 
L 361.775521 85.796986 
L 361.977879 89.172175 
L 362.180236 96.365545 
L 362.58495 122.860773 
L 363.394379 214.054144 
L 363.799093 232.195781 
L 364.001451 233.039578 
L 364.203808 226.985334 
L 364.406165 216.64882 
L 365.013237 145.137017 
L 365.620308 78.772376 
L 366.025023 62.149573 
L 366.429737 55.8 
L 366.632094 56.306278 
L 366.834451 59.027524 
L 367.036809 67.992868 
L 367.441523 98.010949 
L 368.048595 179.901457 
L 368.453309 211.290708 
L 368.655666 220.066198 
L 368.858024 222.513209 
L 369.060381 218.505173 
L 369.262738 208.358513 
L 369.86981 143.006429 
L 370.476881 83.160121 
L 370.881596 66.052135 
L 371.083953 65.588046 
L 371.28631 66.326369 
L 371.488667 70.376595 
L 371.691024 76.789453 
L 372.298096 116.912004 
L 373.107525 204.413762 
L 373.512239 227.301758 
L 373.714597 231.794977 
L 374.119311 231.07775 
L 374.321668 217.956705 
L 375.333454 111.047614 
L 375.738169 97.399196 
L 375.940526 94.614666 
L 376.142883 93.47554 
L 376.34524 98.812557 
L 376.749955 125.835158 
L 377.559383 186.504169 
L 377.964098 222.196786 
L 378.368812 236.414766 
L 378.57117 236.646811 
L 378.773527 230.529282 
L 378.975884 218.969262 
L 380.392384 98.791462 
L 380.797099 88.560422 
L 381.201813 80.734204 
L 381.40417 84.615671 
L 382.011242 122.776394 
L 382.820671 208.189754 
L 383.225385 224.791462 
L 383.427743 225.466499 
L 383.6301 219.960723 
L 384.034814 197.030537 
L 385.0466 121.320844 
L 385.451315 104.107383 
L 385.653672 103.6222 
L 385.856029 107.524761 
L 386.058386 115.393169 
L 387.070172 187.558915 
L 387.474887 228.926067 
L 387.879601 251.497639 
L 388.284316 260.927072 
L 388.68903 263.521748 
L 388.891387 257.594073 
L 389.700816 212.682973 
L 390.307888 201.122953 
L 390.914959 187.980814 
L 391.117316 192.917027 
L 391.926745 233.735711 
L 392.533817 279.321848 
L 392.938531 292.084279 
L 393.140888 294.003918 
L 393.343246 293.539829 
L 393.545603 294.025013 
L 393.74796 284.785434 
L 394.355032 242.321346 
L 395.569175 184.057157 
L 395.771532 177.855249 
L 395.973889 179.099849 
L 396.176247 187.685485 
L 396.783318 231.056655 
L 397.188033 270.799498 
L 397.592747 289.194274 
L 397.795104 292.063184 
L 397.997461 289.447413 
L 398.402176 270.736213 
L 400.628105 139.061678 
L 400.830462 141.993872 
L 401.03282 152.267102 
L 401.639891 211.121949 
L 402.044606 256.876846 
L 402.44932 277.845203 
L 402.651677 281.979809 
L 402.854034 280.27112 
L 403.258749 261.496635 
L 403.663463 232.174686 
L 404.877607 122.755299 
L 405.282321 101.575992 
L 405.484678 97.230437 
L 405.687035 98.348468 
L 405.889393 109.191261 
L 406.294107 147.752788 
L 406.901179 227.639277 
L 407.305893 252.468006 
L 407.50825 258.248016 
L 407.710607 257.699548 
L 408.115322 235.781919 
L 409.73418 99.276645 
L 409.936537 94.192767 
L 410.138894 94.045103 
L 410.341251 98.791462 
L 410.948323 136.045103 
L 411.15068 152.456956 
L 411.757752 225.29774 
L 412.162466 250.126469 
L 412.364823 256.813561 
L 412.56718 258.64882 
L 412.971895 240.021999 
L 414.388395 138.808538 
L 414.79311 124.843697 
L 415.197824 117.96675 
L 415.400181 124.949171 
L 416.20961 189.478553 
L 416.614325 236.140532 
L 417.019039 259.93561 
L 417.221396 264.323355 
L 417.423753 263.753792 
L 417.828468 247.0888 
L 419.244968 146.276143 
L 419.649683 132.248016 
L 419.85204 128.303265 
L 420.054397 129.77991 
L 420.256754 138.703064 
L 421.066183 205.974787 
L 421.673255 262.720141 
L 422.077969 279.279658 
L 422.280326 281.832145 
L 422.482684 281.157107 
L 422.685041 280.988348 
L 423.089755 249.324862 
L 423.899184 178.234957 
L 424.708613 137.774887 
L 424.91097 134.505173 
L 425.113327 138.618684 
L 425.518042 165.493621 
L 425.720399 177.623204 
L 426.529828 254.345455 
L 426.934542 273.436364 
L 427.136899 278.035058 
L 427.339257 278.85776 
L 427.541614 279.089804 
L 427.743971 270.25103 
L 428.148685 228.778403 
L 428.755757 165.177197 
L 429.160471 138.829633 
L 429.565186 130.349473 
L 429.9699 134.378604 
L 430.374615 151.043596 
L 430.576972 163.00442 
L 431.386401 241.076745 
L 431.791115 253.649322 
L 431.993472 251.560924 
L 432.398187 230.698041 
L 433.207616 163.827122 
L 434.017044 91.534807 
L 434.219402 86.514214 
L 435.02883 114.675942 
L 435.433545 140.348468 
L 436.040617 213.484581 
L 436.445331 236.625716 
L 436.647688 241.899448 
L 436.850045 241.203315 
L 437.25476 220.045103 
L 437.659474 184.183727 
L 438.468903 108.727172 
L 438.67126 98.728177 
L 438.873617 99.719638 
L 439.075975 107.018483 
L 439.278332 106.554395 
L 439.480689 108.853742 
L 439.885403 127.902461 
L 440.290118 153.321848 
L 440.897189 228.715118 
L 441.301904 251.624209 
L 441.504261 257.19327 
L 441.706618 257.741738 
L 442.111333 242.616675 
L 442.920762 189.204319 
L 443.527833 153.406228 
L 444.134905 130.054144 
L 444.337262 127.396183 
L 444.539619 133.9778 
L 445.146691 180.238975 
L 445.753762 251.265595 
L 446.158477 273.03556 
L 446.360834 278.119437 
L 446.563191 276.07323 
L 446.967906 256.665897 
L 448.586763 143.955701 
L 448.991478 130.412757 
L 449.193835 128.029031 
L 449.396192 134.863787 
L 450.003264 176.315319 
L 450.812693 258.48006 
L 451.217407 272.128478 
L 451.419764 272.255048 
L 451.824479 254.619689 
L 452.43155 202.873832 
L 453.038622 159.861276 
L 453.443336 142.373581 
L 453.848051 134.294224 
L 454.050408 137.753792 
L 454.252765 148.005927 
L 454.65748 177.159116 
L 454.859837 185.829131 
L 455.669266 252.257057 
L 456.07398 266.158614 
L 456.276337 267.719638 
L 456.478694 265.67343 
L 456.681052 262.488096 
L 456.883409 254.28217 
L 457.288123 226.563435 
L 457.692838 215.319839 
L 457.895195 216.037067 
L 458.299909 221.943646 
L 458.502267 221.795982 
L 458.906981 217.872325 
L 459.109338 218.420794 
L 459.514053 222.681969 
L 459.71641 227.090809 
L 460.728196 286.304269 
L 461.13291 290.839679 
L 461.537625 287.443395 
L 461.739982 278.288197 
L 462.144696 242.890909 
L 463.561197 171.927574 
L 463.763554 164.481065 
L 463.965911 165.683476 
L 464.572983 185.660372 
L 465.382412 254.366549 
L 465.584769 261.454445 
L 465.787126 264.238975 
L 465.989483 261.749774 
L 467.608341 166.822602 
L 468.620127 145.094827 
L 468.822484 148.301256 
L 469.429556 175.218383 
L 470.036627 233.398192 
L 470.441342 251.645304 
L 470.643699 254.345455 
L 470.846056 251.708589 
L 471.857842 199.477549 
L 472.869628 168.446911 
L 473.071985 168.953189 
L 473.274343 167.117931 
L 473.4767 168.404721 
L 473.679057 172.286188 
L 473.881414 179.036565 
L 474.083772 180.21788 
L 474.286129 188.086288 
L 474.8932 241.540834 
L 475.297915 258.205826 
L 475.500272 259.914515 
L 475.702629 257.826118 
L 476.107344 232.828629 
L 476.512058 210.257057 
L 477.321487 177.960723 
L 477.726201 157.287695 
L 477.928558 153.638272 
L 478.333273 158.447916 
L 478.53563 163.025515 
L 479.142702 188.592567 
L 479.952131 258.100352 
L 480.356845 268.204822 
L 480.559202 267.782923 
L 480.963917 245.126971 
L 482.785131 113.452436 
L 482.987489 107.398192 
L 483.189846 104.698041 
L 483.392203 110.478051 
L 483.999275 151.36002 
L 484.606346 224.285183 
L 485.011061 248.101356 
L 485.213418 252.615671 
L 485.415775 253.586037 
L 485.82049 233.313812 
L 486.225204 201.312808 
L 487.23699 109.043596 
L 487.439347 105.879357 
L 487.844062 112.608639 
L 488.248776 131.699548 
L 489.260562 211.206328 
L 489.665277 244.1777 
L 490.069991 259.661376 
L 490.272348 262.066198 
L 490.474705 260.905977 
L 490.677063 259.091813 
L 490.87942 249.113913 
L 491.891206 167.37107 
L 492.29592 149.208338 
L 492.498277 141.635259 
L 492.700635 139.567956 
L 492.902992 141.234455 
L 493.105349 146.170668 
L 493.712421 180.534304 
L 494.52185 254.345455 
L 495.128921 273.07775 
L 495.331278 273.225414 
L 495.533636 272.592567 
L 495.735993 264.850728 
L 496.950136 171.041587 
L 497.557208 146.065193 
L 497.759565 142.62672 
L 497.961922 145.917529 
L 498.568994 178.213862 
L 499.378422 253.881366 
L 499.58078 260.884882 
L 499.783137 263.437368 
L 499.985494 260.041085 
L 500.187851 251.307785 
L 500.794923 213.463486 
L 500.99728 208.231944 
L 501.401995 194.81557 
L 501.806709 183.276645 
L 502.009066 182.812557 
L 502.211423 184.922049 
L 502.413781 185.575992 
L 502.616138 183.867303 
L 503.020852 193.824108 
L 503.223209 194.393672 
L 503.425567 202.09332 
L 504.032638 254.050126 
L 504.437353 267.445404 
L 504.63971 269.111904 
L 504.842067 266.685987 
L 505.246782 241.709593 
L 505.651496 217.302762 
L 507.270354 142.331391 
L 507.472711 139.146057 
L 507.675068 142.62672 
L 508.28214 171.358011 
L 508.889211 230.824611 
L 509.293926 248.37559 
L 509.496283 251.982823 
L 509.69864 250.105374 
L 510.103354 225.972777 
L 511.722212 116.954194 
L 512.126927 98.749272 
L 512.329284 100.373581 
L 512.936355 135.602109 
L 513.34107 175.513712 
L 513.745784 220.066198 
L 514.150499 243.354997 
L 514.352856 249.071723 
L 514.555213 249.578001 
L 514.75757 240.464992 
L 516.174071 141.29774 
L 516.376428 140.179709 
L 516.781142 149.735711 
L 516.9835 146.930085 
L 517.185857 147.478553 
L 517.590571 165.620191 
L 517.792928 169.965746 
L 517.995286 180.935108 
L 518.4 221.585033 
L 518.4 221.585033 
" clip-path="url(#pd7b7b606b5)" style="fill: none; stroke: #1f77b4; stroke-width: 1.5; stroke-linecap: square"/>
   </g>
   <g id="line2d_14">
    <path d="M 72 265.713906 
L 72.202357 265.713906 
L 72.404714 266.19575 
L 72.809429 269.423721 
L 73.011786 268.71742 
L 73.4165 254.606216 
L 74.428286 205.453952 
L 75.237715 157.498106 
L 75.440073 155.890509 
L 75.64243 162.417865 
L 76.249501 205.487971 
L 76.654216 248.742358 
L 77.05893 271.218662 
L 77.261287 275.85739 
L 77.463645 277.571631 
L 77.666002 272.983223 
L 78.070716 251.983259 
L 78.677788 219.554884 
L 79.082502 200.858449 
L 79.689574 161.766267 
L 79.891931 156.446074 
L 80.094288 156.418835 
L 80.296646 161.476688 
L 80.903717 197.07802 
L 81.713146 259.137454 
L 82.11786 272.820165 
L 82.320218 273.199747 
L 82.522575 269.474343 
L 83.332004 238.795279 
L 83.534361 227.6671 
L 84.34379 216.830163 
L 84.950861 223.178281 
L 85.355576 231.725906 
L 85.76029 239.649266 
L 85.962647 243.850853 
L 86.165005 251.350141 
L 86.569719 274.724697 
L 86.772076 280.354211 
L 86.974433 281.888837 
L 87.176791 281.929859 
L 87.379148 278.066982 
L 87.986219 258.439541 
L 88.390934 248.179622 
L 88.593291 243.450731 
L 88.795648 241.607021 
L 88.998005 241.006685 
L 89.605077 230.961163 
L 89.807434 229.991663 
L 90.009791 228.316803 
L 90.212149 227.770521 
L 90.616863 235.537217 
L 90.81922 241.440208 
L 91.628649 281.113876 
L 91.831006 281.578144 
L 92.033364 281.197421 
L 92.235721 278.353736 
L 92.438078 272.439877 
L 92.842792 256.522987 
L 93.247507 249.509664 
L 93.652221 239.142226 
L 93.854578 238.118145 
L 94.46165 225.887927 
L 94.664007 226.080422 
L 94.866364 227.621981 
L 95.068722 230.477121 
L 95.675793 250.957634 
L 96.282865 277.234756 
L 96.485222 281.049222 
L 96.687579 281.644669 
L 96.889937 279.605433 
L 97.092294 274.884564 
L 97.699365 250.623457 
L 98.10408 242.688945 
L 98.508794 234.257482 
L 98.711151 234.010391 
L 99.318223 223.665882 
L 99.52058 223.969506 
L 99.722937 225.199181 
L 99.925295 227.492815 
L 100.532366 250.915602 
L 101.139438 276.24809 
L 101.341795 280.512598 
L 101.544152 280.952247 
L 101.74651 279.06392 
L 102.151224 267.558065 
L 102.555938 250.935159 
L 102.960653 242.935672 
L 103.365367 234.772858 
L 103.567724 233.668975 
L 104.174796 220.724865 
L 104.377153 220.55636 
L 104.57951 221.591819 
L 104.781868 224.635581 
L 106.198368 278.522401 
L 106.400725 279.87973 
L 106.603083 278.162221 
L 106.80544 274.529056 
L 107.210154 260.605074 
L 107.614869 246.897638 
L 108.424297 227.070531 
L 108.829012 209.528259 
L 109.031369 206.218029 
L 109.233726 208.375698 
L 109.638441 218.228929 
L 110.043155 239.885673 
L 110.650227 266.307008 
L 111.054941 276.48799 
L 111.257298 278.750241 
L 111.459655 277.775148 
L 111.662013 274.687564 
L 111.86437 269.318993 
L 113.887942 186.902187 
L 114.090299 183.391442 
L 114.292656 182.723997 
L 114.495014 189.159421 
L 114.899728 215.592799 
L 115.304442 250.380074 
L 115.911514 276.967213 
L 116.113871 280.000388 
L 116.316228 279.74377 
L 116.518586 276.719995 
L 117.125657 255.214972 
L 117.530372 233.14416 
L 118.542158 159.411455 
L 118.946872 147.437296 
L 119.149229 145.834511 
L 119.351587 151.427764 
L 119.756301 178.412648 
L 120.161015 221.522814 
L 120.56573 255.413763 
L 120.970444 271.64165 
L 121.172801 273.922388 
L 121.375159 272.087855 
L 121.779873 258.081533 
L 122.184587 239.254119 
L 122.589302 218.484139 
L 123.601088 184.083255 
L 124.005802 191.356359 
L 125.62466 279.340402 
L 125.827017 281.512413 
L 126.029374 280.802434 
L 126.231732 277.700696 
L 126.434089 270.374671 
L 127.648232 206.007634 
L 128.255304 170.707046 
L 128.457661 159.590687 
L 128.660018 154.598385 
L 128.862375 154.867383 
L 129.064733 165.898475 
L 129.469447 202.536476 
L 129.874161 247.129577 
L 130.278876 270.607522 
L 130.481233 275.51105 
L 130.68359 276.220709 
L 130.885947 274.368266 
L 131.290662 259.368944 
L 133.314234 140.488662 
L 133.516591 134.484544 
L 133.718948 137.690895 
L 133.921306 146.312709 
L 134.528377 194.182941 
L 134.933092 243.607634 
L 135.337806 264.700296 
L 135.540163 267.706449 
L 135.74252 266.876485 
L 135.944878 262.339095 
L 136.349592 239.398255 
L 136.956664 201.052529 
L 137.361378 192.812034 
L 137.766092 183.769621 
L 137.96845 185.864368 
L 138.373164 194.426346 
L 138.777879 204.982034 
L 139.182593 220.929063 
L 139.587307 250.803832 
L 139.992022 272.859156 
L 140.194379 277.966195 
L 140.396736 277.830248 
L 140.599093 275.932239 
L 140.801451 270.385282 
L 142.015594 216.618821 
L 142.217951 213.3076 
L 142.420308 212.308198 
L 142.622665 210.48317 
L 142.825023 209.921396 
L 143.432094 221.569528 
L 143.634451 226.247952 
L 145.050952 274.90751 
L 145.253309 276.20865 
L 145.455666 274.165858 
L 145.860381 262.272077 
L 146.872167 218.713866 
L 147.074524 215.27372 
L 147.276881 215.169112 
L 147.681596 210.845527 
L 149.705168 271.152918 
L 149.907525 274.596266 
L 150.109882 275.460557 
L 150.312239 273.06068 
L 150.514597 269.290549 
L 152.133454 224.520525 
L 152.335811 222.430642 
L 152.538169 223.915935 
L 153.549955 237.730226 
L 154.157026 251.660654 
L 154.764098 276.127842 
L 154.966455 278.214034 
L 155.168812 278.434217 
L 155.37117 276.438189 
L 156.382956 245.630037 
L 156.78767 215.861041 
L 157.394742 177.580575 
L 157.799456 160.402492 
L 158.001813 156.58543 
L 158.20417 160.777416 
L 158.608885 182.720085 
L 158.811242 198.358832 
L 159.215956 245.455125 
L 159.620671 271.247939 
L 159.823028 275.1546 
L 160.025385 275.293315 
L 160.227743 271.584698 
L 160.632457 250.689354 
L 161.239529 206.779445 
L 161.8466 180.771275 
L 162.251315 170.27442 
L 162.453672 171.291898 
L 162.858386 185.75459 
L 163.870172 246.082799 
L 164.274887 268.790808 
L 164.477244 274.901878 
L 164.679601 276.244078 
L 164.881958 274.048006 
L 165.286673 257.723749 
L 165.893744 227.123063 
L 166.298459 215.948171 
L 166.703173 202.081647 
L 167.310245 171.59156 
L 167.512602 171.351455 
L 167.714959 176.176819 
L 168.322031 213.689192 
L 168.726745 246.551934 
L 169.13146 266.800021 
L 169.536174 274.729035 
L 169.738531 274.577235 
L 169.940888 270.464123 
L 170.345603 250.261399 
L 171.559746 171.761244 
L 171.964461 159.733496 
L 172.166818 158.579536 
L 172.369175 160.028727 
L 172.571532 164.110922 
L 172.773889 172.574356 
L 173.380961 214.603926 
L 173.785675 250.31195 
L 174.19039 268.983822 
L 174.392747 269.903329 
L 174.595104 268.361322 
L 174.999819 252.1931 
L 176.618676 174.038855 
L 176.821034 166.988395 
L 177.023391 164.135188 
L 177.225748 163.435474 
L 177.630462 175.334157 
L 178.844606 269.231867 
L 179.046963 275.431678 
L 179.24932 277.272376 
L 179.451677 275.385061 
L 179.654034 270.190992 
L 180.463463 228.158707 
L 180.868178 203.415673 
L 181.475249 164.909963 
L 181.879964 152.218506 
L 182.082321 152.157492 
L 182.284678 151.90468 
L 182.487035 159.339176 
L 183.094107 202.165862 
L 183.498821 242.869752 
L 183.903536 261.814672 
L 184.105893 265.341302 
L 184.30825 265.099717 
L 184.510607 261.460925 
L 184.915322 247.933183 
L 185.320036 225.050781 
L 186.331822 146.92465 
L 186.53418 142.149577 
L 186.736537 143.470177 
L 187.141251 161.911268 
L 188.760109 257.875616 
L 188.962466 260.239037 
L 189.164823 259.119583 
L 189.36718 255.305033 
L 189.771895 239.366754 
L 190.176609 225.147817 
L 190.378966 219.317559 
L 191.188395 154.178575 
L 191.390752 149.267979 
L 191.59311 150.170677 
L 191.997824 168.352831 
L 193.616682 262.817255 
L 193.819039 265.88359 
L 194.021396 265.483202 
L 194.223753 261.490593 
L 195.437897 210.18631 
L 195.842611 186.380483 
L 196.044968 184.240569 
L 196.247325 187.336998 
L 198.06854 261.956024 
L 198.473255 280.134624 
L 198.675612 280.557715 
L 198.877969 278.112125 
L 199.282684 262.608003 
L 200.092112 219.094631 
L 200.496827 201.502293 
L 201.508613 171.232857 
L 201.71097 172.253132 
L 202.115684 189.459958 
L 202.520399 212.800699 
L 202.925113 246.148277 
L 203.329828 264.534034 
L 203.532185 267.52427 
L 203.734542 266.440873 
L 203.936899 261.209681 
L 204.341614 240.378923 
L 204.948685 203.557676 
L 205.3534 183.568219 
L 205.960471 164.821305 
L 206.162829 166.887467 
L 206.7699 190.315124 
L 207.376972 216.973759 
L 207.781686 245.062425 
L 208.186401 263.034279 
L 208.388758 265.647875 
L 208.591115 264.455026 
L 208.793472 258.688088 
L 209.198187 238.19031 
L 209.805258 205.246714 
L 211.019402 147.990208 
L 211.221759 142.230443 
L 211.424116 145.436102 
L 212.233545 196.91822 
L 212.840617 245.991624 
L 213.042974 252.765371 
L 213.245331 255.408794 
L 213.447688 255.209769 
L 213.650045 251.594991 
L 214.05476 231.020957 
L 215.673617 121.038715 
L 215.875975 114.662075 
L 216.078332 111.951492 
L 216.280689 114.042497 
L 216.483046 121.870275 
L 217.090118 177.178226 
L 217.697189 236.411872 
L 217.899547 246.819236 
L 218.101904 250.973131 
L 218.304261 252.078498 
L 218.506618 251.871739 
L 218.708976 247.30059 
L 219.11369 228.759721 
L 219.518404 202.246765 
L 220.125476 158.517279 
L 220.53019 143.881485 
L 220.732548 148.724204 
L 221.137262 173.649834 
L 221.744334 213.673717 
L 222.149048 231.54258 
L 222.75612 261.649794 
L 222.958477 262.554441 
L 223.160834 261.14469 
L 223.363191 257.500644 
L 223.767906 241.851214 
L 224.17262 228.797022 
L 224.374977 226.230558 
L 224.982049 211.811415 
L 225.184406 211.29081 
L 225.386763 212.53615 
L 227.005621 253.741032 
L 227.612693 280.085246 
L 227.81505 280.194735 
L 228.017407 277.892416 
L 228.219764 273.847847 
L 228.624479 255.641722 
L 229.029193 238.86429 
L 229.636265 227.247012 
L 230.040979 215.572519 
L 230.445694 201.715203 
L 230.850408 194.090259 
L 231.052765 194.943433 
L 231.255122 201.976861 
L 232.266908 271.532193 
L 232.469266 278.412322 
L 232.671623 281.320821 
L 232.87398 280.968734 
L 233.076337 277.522009 
L 233.481052 261.759338 
L 234.088123 230.265111 
L 234.492838 206.315517 
L 235.099909 188.737022 
L 235.302267 184.917429 
L 235.504624 184.898059 
L 235.706981 188.374478 
L 235.909338 195.313654 
L 236.314053 219.4288 
L 236.921124 261.006023 
L 237.325839 278.277003 
L 237.528196 280.580713 
L 237.730553 279.336166 
L 237.93291 274.773031 
L 238.539982 245.326537 
L 239.349411 207.000861 
L 239.754125 197.130887 
L 239.956482 194.661315 
L 240.15884 195.176576 
L 240.361197 197.050258 
L 240.765911 209.149141 
L 241.777697 265.881758 
L 242.182412 280.030767 
L 242.384769 280.645136 
L 242.587126 278.556221 
L 242.789483 274.283671 
L 243.194198 256.530638 
L 244.003626 220.893024 
L 244.610698 197.279153 
L 245.015413 186.600334 
L 245.21777 183.869832 
L 245.420127 184.487511 
L 245.622484 189.460195 
L 246.027199 215.178066 
L 246.63427 258.443276 
L 247.038985 277.305626 
L 247.241342 280.528451 
L 247.443699 280.063863 
L 247.646056 275.858005 
L 248.050771 257.604828 
L 248.657842 218.956373 
L 249.467271 159.106677 
L 249.669628 149.010374 
L 249.871985 144.596802 
L 250.074343 146.911296 
L 250.2767 151.666683 
L 250.681414 175.333603 
L 251.895558 260.489542 
L 252.097915 265.222688 
L 252.300272 264.697367 
L 252.502629 260.799712 
L 253.109701 236.024398 
L 253.716772 192.08228 
L 254.121487 158.091124 
L 254.526201 142.012682 
L 254.728558 139.779643 
L 254.930916 141.532607 
L 255.133273 146.12138 
L 255.740345 188.043629 
L 256.752131 260.719372 
L 256.954488 264.117235 
L 257.156845 263.263952 
L 257.359202 259.828316 
L 257.763917 245.631158 
L 258.573345 208.247173 
L 259.180417 164.292319 
L 259.382774 157.252631 
L 259.585131 156.582854 
L 259.787489 158.678562 
L 260.192203 172.142765 
L 260.799275 211.237682 
L 261.406346 261.448315 
L 261.608704 270.55262 
L 261.811061 272.647431 
L 262.013418 272.45127 
L 262.215775 267.56032 
L 262.62049 246.78598 
L 263.025204 224.128912 
L 263.429918 217.617463 
L 263.632276 216.237906 
L 264.03699 217.205819 
L 264.239347 218.569219 
L 264.846419 225.871773 
L 265.251133 236.544683 
L 266.262919 272.905978 
L 266.465277 276.395744 
L 266.667634 275.889006 
L 266.869991 273.06423 
L 267.274705 261.812237 
L 267.881777 240.575539 
L 268.084134 236.587342 
L 268.488849 223.257217 
L 269.09592 215.444164 
L 269.298277 215.088123 
L 269.702992 221.7015 
L 269.905349 225.788951 
L 271.32185 274.40975 
L 271.524207 275.724826 
L 271.726564 275.162539 
L 271.928921 271.706388 
L 272.131278 266.034038 
L 273.143064 216.136121 
L 274.15485 150.42727 
L 274.559565 144.034733 
L 274.761922 148.783539 
L 275.368994 185.053117 
L 275.976065 242.453344 
L 276.178422 255.034286 
L 276.38078 258.608087 
L 276.583137 258.45895 
L 276.785494 255.390391 
L 276.987851 247.980572 
L 278.606709 142.600395 
L 278.809066 137.903472 
L 279.011423 135.982279 
L 279.213781 136.721895 
L 279.416138 141.125477 
L 279.618495 148.368874 
L 281.034995 252.975475 
L 281.237353 257.536339 
L 281.43971 258.387708 
L 281.642067 254.288696 
L 282.653853 207.37551 
L 283.058568 181.233685 
L 283.463282 161.436947 
L 283.665639 155.61991 
L 283.867996 153.62754 
L 284.070354 154.511932 
L 284.272711 159.419529 
L 284.475068 168.418209 
L 285.689211 259.996715 
L 285.891568 267.575949 
L 286.093926 268.71578 
L 286.49864 264.574191 
L 286.903354 250.362725 
L 287.510426 222.876796 
L 288.724569 152.273043 
L 288.926927 151.914715 
L 289.129284 154.860898 
L 289.331641 161.198835 
L 289.938713 204.070526 
L 290.343427 243.49752 
L 290.748141 266.012514 
L 290.950499 270.079068 
L 291.152856 270.658983 
L 291.355213 268.096457 
L 291.759927 253.563091 
L 292.164642 230.746164 
L 292.569356 195.33586 
L 292.974071 159.189619 
L 293.378785 137.903574 
L 293.581142 131.668694 
L 293.7835 130.7256 
L 293.985857 133.86037 
L 294.188214 140.660691 
L 294.795286 182.867166 
L 295.604714 254.322468 
L 295.807072 258.551772 
L 296.009429 259.596211 
L 296.211786 256.929608 
L 296.6165 230.694841 
L 297.223572 172.965309 
L 298.033001 94.083876 
L 298.235358 84.907996 
L 298.437715 83.242672 
L 298.640073 86.865194 
L 299.044787 104.006068 
L 299.449501 136.534263 
L 299.854216 182.713033 
L 300.461287 244.395686 
L 300.663645 252.878397 
L 300.866002 249.395324 
L 301.068359 241.89751 
L 301.473073 211.490378 
L 302.282502 123.926504 
L 302.687217 89.3518 
L 302.889574 78.694229 
L 303.091931 78.542327 
L 303.699003 114.997393 
L 304.306074 161.088057 
L 305.115503 234.238825 
L 305.31786 247.06277 
L 305.520218 251.33392 
L 305.722575 248.433042 
L 306.329646 212.658467 
L 307.746147 112.806261 
L 307.948504 105.825281 
L 308.150861 108.611834 
L 308.555576 129.240834 
L 310.174433 241.998176 
L 310.376791 247.929723 
L 310.579148 248.752312 
L 310.781505 244.976962 
L 311.590934 196.139982 
L 312.198005 141.206971 
L 312.60272 117.640868 
L 312.805077 113.641076 
L 313.007434 113.781137 
L 313.412149 130.776356 
L 314.01922 174.977082 
L 314.828649 238.4028 
L 315.031006 247.005632 
L 315.233364 248.353801 
L 315.435721 246.313434 
L 315.638078 241.356731 
L 316.042792 218.237841 
L 317.256936 171.601249 
L 317.459293 166.915052 
L 317.66165 165.054176 
L 317.864007 167.79972 
L 318.268722 176.197666 
L 318.673436 194.217537 
L 319.07815 216.968058 
L 319.685222 261.537351 
L 319.887579 267.321913 
L 320.089937 268.02578 
L 320.292294 266.020011 
L 320.697008 254.592267 
L 321.708794 214.704595 
L 322.315866 170.968348 
L 322.518223 160.178457 
L 322.72058 155.960142 
L 322.922937 156.645202 
L 323.125295 158.991087 
L 323.327652 165.894476 
L 323.934723 200.908903 
L 324.339438 237.663349 
L 324.744152 259.099328 
L 324.94651 263.449938 
L 325.148867 263.596521 
L 325.351224 261.805631 
L 325.755938 247.889255 
L 326.160653 226.426542 
L 326.36301 214.906616 
L 327.172439 141.768072 
L 327.374796 130.851026 
L 327.577153 129.66761 
L 327.77951 131.837846 
L 327.981868 135.296662 
L 328.184225 143.851349 
L 328.588939 175.689961 
L 329.600725 258.635499 
L 329.803083 262.528195 
L 330.00544 261.125931 
L 330.207797 256.280025 
L 330.612511 232.699795 
L 331.826655 148.843856 
L 332.029012 137.854952 
L 332.231369 135.86148 
L 332.636083 148.105138 
L 333.243155 181.886587 
L 334.457298 256.058733 
L 334.659655 257.408103 
L 334.862013 257.509923 
L 335.06437 253.981524 
L 335.671442 225.546966 
L 335.873799 221.258756 
L 336.076156 213.381103 
L 336.683228 178.890144 
L 336.885585 170.767036 
L 337.290299 170.097951 
L 337.492656 175.27089 
L 338.099728 207.00235 
L 339.313871 271.369923 
L 339.516228 273.443691 
L 339.718586 272.040104 
L 339.920943 266.389905 
L 340.932729 215.139283 
L 341.337443 191.805068 
L 342.146872 157.288246 
L 342.349229 156.423115 
L 342.551587 156.850609 
L 342.753944 158.698054 
L 343.361015 187.166061 
L 343.968087 239.671834 
L 344.170444 249.446208 
L 344.372801 252.437742 
L 344.575159 251.792779 
L 344.777516 248.207659 
L 345.18223 228.854947 
L 345.586945 194.39104 
L 346.194016 136.398015 
L 346.598731 111.775766 
L 346.801088 107.200154 
L 347.003445 106.101007 
L 347.40816 115.670028 
L 347.610517 123.2277 
L 348.015231 151.725481 
L 349.229374 251.499195 
L 349.431732 250.490464 
L 349.634089 246.822149 
L 350.443518 197.905344 
L 351.455304 109.70287 
L 351.657661 103.559229 
L 351.860018 104.052665 
L 352.062375 106.510219 
L 352.264733 111.19357 
L 352.46709 118.953118 
L 352.871804 153.988367 
L 353.88359 248.075823 
L 354.085947 253.456585 
L 354.288305 253.682279 
L 354.490662 252.146503 
L 354.693019 246.975252 
L 355.300091 215.207093 
L 355.704805 168.17251 
L 356.109519 124.143272 
L 356.514234 105.482556 
L 356.716591 104.781855 
L 356.918948 105.280327 
L 357.121306 110.215465 
L 357.323663 118.176793 
L 357.728377 152.313078 
L 358.740163 250.353367 
L 358.94252 254.792503 
L 359.144878 254.95732 
L 359.347235 253.616599 
L 359.751949 236.527875 
L 360.156664 209.909486 
L 360.561378 162.970649 
L 360.966092 114.944363 
L 361.370807 93.243897 
L 361.573164 93.201285 
L 361.775521 93.892836 
L 361.977879 97.685881 
L 362.180236 104.557545 
L 362.58495 134.631948 
L 362.989665 182.163863 
L 363.394379 232.21626 
L 363.799093 250.094657 
L 364.001451 249.771283 
L 364.203808 243.985842 
L 364.608522 210.894821 
L 365.215594 152.277842 
L 365.620308 98.840712 
L 366.025023 72.855995 
L 366.22738 70.206324 
L 366.632094 81.439671 
L 367.239166 115.29224 
L 367.64388 151.417832 
L 368.250952 227.232183 
L 368.655666 249.420429 
L 368.858024 248.086767 
L 369.060381 239.9487 
L 369.667452 199.602377 
L 370.274524 132.592756 
L 370.679238 95.680215 
L 370.881596 84.617251 
L 371.083953 80.98167 
L 371.28631 85.72956 
L 371.691024 104.409244 
L 372.095739 130.53982 
L 372.500453 165.073245 
L 372.905168 205.471067 
L 373.309882 236.69935 
L 373.512239 243.672811 
L 373.714597 243.574247 
L 374.119311 227.923073 
L 374.524025 212.956731 
L 374.92874 176.959952 
L 375.535811 108.137096 
L 375.940526 92.279286 
L 376.142883 94.507685 
L 376.34524 100.074128 
L 376.547597 108.754163 
L 376.952312 139.35513 
L 377.761741 212.165326 
L 378.368812 239.413518 
L 378.57117 237.981228 
L 378.975884 220.110986 
L 379.582956 176.190707 
L 380.392384 102.297735 
L 380.594742 94.179185 
L 380.797099 90.673323 
L 380.999456 91.141615 
L 381.201813 93.092405 
L 381.40417 98.53428 
L 381.808885 119.919498 
L 382.415956 180.701485 
L 383.023028 231.192871 
L 383.225385 237.638064 
L 383.427743 236.127429 
L 383.6301 231.6536 
L 384.034814 210.090197 
L 384.237171 195.024613 
L 384.237171 195.024613 
" clip-path="url(#pd7b7b606b5)" style="fill: none; stroke: #ff7f0e; stroke-width: 1.5; stroke-linecap: square"/>
   </g>
   <g id="line2d_15">
    <path d="M 384.439529 181.496938 
L 384.844243 156.620545 
L 385.653672 113.655468 
L 385.856029 110.09555 
L 386.260743 115.573784 
L 386.665458 133.080169 
L 387.272529 174.029663 
L 387.677244 201.5158 
L 388.081958 217.411772 
L 388.284316 219.603899 
L 388.486673 218.981842 
L 388.891387 211.556723 
L 389.700816 165.992681 
L 390.510245 114.129027 
L 390.712602 106.641578 
L 390.914959 103.832033 
L 391.117316 103.885397 
L 391.319674 107.186878 
L 391.724388 123.294559 
L 392.129102 148.825369 
L 392.938531 215.246169 
L 393.343246 225.598827 
L 393.545603 226.045053 
L 393.74796 222.823407 
L 393.950317 217.284984 
L 394.355032 194.885084 
L 394.759746 168.499376 
L 395.771532 101.300444 
L 395.973889 97.0652 
L 396.176247 97.261354 
L 396.378604 100.510227 
L 396.783318 118.213663 
L 397.188033 145.748756 
L 397.997461 214.269826 
L 398.402176 227.38421 
L 398.604533 228.860501 
L 398.80689 225.983233 
L 399.211605 210.24043 
L 401.03282 96.061464 
L 401.235177 96.226591 
L 401.437534 99.570966 
L 401.842248 117.405312 
L 402.246963 145.833736 
L 403.056392 214.165822 
L 403.461106 227.621967 
L 403.663463 229.220407 
L 403.86582 226.219884 
L 404.068178 219.851867 
L 404.472892 196.31731 
L 405.282321 137.345267 
L 405.687035 108.964543 
L 405.889393 99.832351 
L 406.09175 96.023312 
L 406.294107 96.412698 
L 406.496464 99.846717 
L 406.901179 117.86644 
L 407.305893 146.617513 
L 408.115322 214.492242 
L 408.520036 227.727656 
L 408.722393 229.112785 
L 408.924751 225.92121 
L 409.127108 219.489242 
L 409.531822 195.650888 
L 410.138894 152.449192 
L 410.745966 108.561034 
L 410.948323 99.631006 
L 411.15068 96.024235 
L 411.353037 96.557552 
L 411.555394 100.108333 
L 411.960109 118.3304 
L 412.364823 147.304918 
L 413.174252 214.914552 
L 413.578966 227.869133 
L 413.781324 229.048892 
L 413.983681 225.691843 
L 414.186038 219.187231 
L 414.590752 195.14033 
L 415.197824 151.983995 
L 415.804896 108.177081 
L 416.007253 99.420998 
L 416.20961 95.94424 
L 416.411967 96.597998 
L 416.614325 100.258992 
L 417.019039 118.691631 
L 417.423753 147.873234 
L 418.233182 215.285612 
L 418.637897 228.014408 
L 418.840254 229.035024 
L 419.042611 225.556157 
L 419.244968 218.962028 
L 419.649683 194.723314 
L 420.256754 151.569881 
L 420.863826 107.829781 
L 421.066183 99.223806 
L 421.26854 95.859286 
L 421.470898 96.609788 
L 421.673255 100.37173 
L 422.077969 118.996794 
L 422.482684 148.371457 
L 423.292112 215.612631 
L 423.696827 228.145544 
L 423.899184 229.027146 
L 424.101541 225.439578 
L 424.303898 218.765622 
L 424.708613 194.353663 
L 425.315684 151.189511 
L 425.922756 107.507586 
L 426.125113 99.041416 
L 426.327471 95.782355 
L 426.529828 96.622642 
L 426.732185 100.496451 
L 427.136899 119.268111 
L 427.541614 148.835327 
L 428.351043 215.970284 
L 428.755757 228.291047 
L 428.958114 229.026385 
L 429.160471 225.338617 
L 429.362829 218.582645 
L 429.767543 194.001711 
L 430.374615 150.836373 
L 430.981686 107.192068 
L 431.184044 98.862614 
L 431.386401 95.694671 
L 431.588758 96.619925 
L 431.791115 100.609573 
L 432.19583 119.529893 
L 432.600544 149.279166 
L 433.409973 216.344757 
L 433.814687 228.443806 
L 434.017044 229.031239 
L 434.219402 225.248439 
L 434.624116 207.845536 
L 436.242974 98.681774 
L 436.445331 95.607846 
L 436.647688 96.618182 
L 436.850045 100.720555 
L 437.25476 119.799532 
L 437.659474 149.729106 
L 438.468903 216.719113 
L 438.873617 228.594568 
L 439.075975 229.015636 
L 439.278332 225.150332 
L 439.683046 207.513562 
L 441.301904 98.518825 
L 441.504261 95.550138 
L 441.706618 96.650964 
L 441.908976 100.870023 
L 442.31369 120.113576 
L 442.718404 150.22406 
L 443.325476 205.367573 
L 443.73019 223.868733 
L 443.932548 228.735128 
L 444.134905 228.968468 
L 444.337262 225.023716 
L 444.741976 207.098514 
L 446.360834 98.392221 
L 446.563191 95.53094 
L 446.765549 96.74025 
L 446.967906 101.08153 
L 447.37262 120.501168 
L 447.777335 150.809915 
L 448.384406 205.781608 
L 448.789121 224.077767 
L 448.991478 228.864693 
L 449.193835 228.900357 
L 449.396192 224.859466 
L 449.800907 206.616665 
L 451.419764 98.270845 
L 451.622121 95.527364 
L 451.824479 96.848259 
L 452.026836 101.32605 
L 452.43155 120.949038 
L 452.836265 151.458604 
L 453.443336 206.227596 
L 453.848051 224.294754 
L 454.050408 228.971539 
L 454.252765 228.818267 
L 454.455122 224.661806 
L 454.859837 206.086049 
L 456.478694 98.139089 
L 456.681052 95.531478 
L 456.883409 96.977106 
L 457.085766 101.600404 
L 457.490481 121.44776 
L 457.895195 152.176926 
L 458.502267 206.725869 
L 458.906981 224.524317 
L 459.109338 229.055586 
L 459.311695 228.721047 
L 459.514053 224.426706 
L 459.918767 205.500553 
L 461.537625 97.979189 
L 461.739982 95.536912 
L 461.942339 97.101224 
L 462.144696 101.885652 
L 462.549411 121.953217 
L 462.954125 152.924231 
L 463.561197 207.246173 
L 463.965911 224.784244 
L 464.168268 229.152485 
L 464.370626 228.625198 
L 464.572983 224.186911 
L 464.977697 204.910559 
L 466.596555 97.799119 
L 466.798912 95.534913 
L 467.001269 97.224458 
L 467.203626 102.192647 
L 467.608341 122.486028 
L 468.013055 153.735081 
L 468.620127 207.828095 
L 469.024841 225.084306 
L 469.227199 229.260947 
L 469.429556 228.523458 
L 469.631913 223.929813 
L 470.036627 204.262102 
L 471.655485 97.578871 
L 471.857842 95.517009 
L 472.060199 97.355202 
L 472.262557 102.518187 
L 472.667271 123.078502 
L 473.071985 154.637261 
L 473.679057 208.484289 
L 474.083772 225.440262 
L 474.286129 229.386217 
L 474.488486 228.412857 
L 474.690843 223.649527 
L 475.095558 203.526483 
L 476.714415 97.347923 
L 476.916772 95.510871 
L 477.11913 97.512346 
L 477.321487 102.903806 
L 477.726201 123.768995 
L 478.130916 155.672171 
L 478.737987 209.127996 
L 479.142702 225.764605 
L 479.345059 229.435355 
L 479.547416 228.261851 
L 479.749773 223.303168 
L 480.154488 202.723667 
L 481.773345 97.141747 
L 481.975703 95.560326 
L 482.17806 97.724584 
L 482.380417 103.347299 
L 482.785131 124.498595 
L 483.189846 156.742356 
L 483.796917 209.802212 
L 484.201632 226.041548 
L 484.403989 229.450493 
L 484.606346 228.065377 
L 484.808704 222.918264 
L 485.213418 201.920908 
L 486.832276 96.912631 
L 487.034633 95.597709 
L 487.23699 97.928453 
L 487.439347 103.799661 
L 487.844062 125.231629 
L 488.248776 157.815508 
L 488.855848 210.409957 
L 489.260562 226.296987 
L 489.462919 229.471442 
L 489.665277 227.872068 
L 489.867634 222.536661 
L 490.272348 201.117262 
L 491.891206 96.711313 
L 492.093563 95.650252 
L 492.29592 98.150764 
L 492.498277 104.25738 
L 492.902992 125.978838 
L 493.307706 158.894599 
L 493.914778 210.965096 
L 494.319492 226.528992 
L 494.52185 229.469537 
L 494.724207 227.636941 
L 494.926564 222.084025 
L 495.331278 200.294131 
L 496.950136 96.56155 
L 497.152493 95.759389 
L 497.35485 98.419261 
L 497.557208 104.760876 
L 497.961922 126.763435 
L 498.366636 159.993946 
L 498.771351 198.53077 
L 499.176065 221.229149 
L 499.58078 229.436119 
L 499.783137 227.352588 
L 499.985494 221.577348 
L 500.390209 199.447117 
L 502.009066 96.458245 
L 502.211423 95.921775 
L 502.413781 98.739277 
L 502.818495 115.507104 
L 503.223209 142.94544 
L 504.032638 212.10563 
L 504.437353 226.912032 
L 504.63971 229.348238 
L 504.842067 227.036203 
L 505.044424 221.026229 
L 505.449139 198.559105 
L 507.067996 96.394885 
L 507.270354 96.129629 
L 507.472711 99.100521 
L 507.877425 116.163374 
L 508.28214 143.944531 
L 509.091568 212.685604 
L 509.496283 227.072684 
L 509.69864 229.237698 
L 509.900997 226.703375 
L 510.305712 211.042175 
L 511.317498 139.093719 
L 511.924569 100.570601 
L 512.126927 96.305112 
L 512.329284 96.29577 
L 512.531641 99.426214 
L 512.936355 116.774905 
L 513.34107 144.886624 
L 514.150499 213.271181 
L 514.555213 227.257764 
L 514.75757 229.153651 
L 514.959927 226.399259 
L 515.162285 220.183431 
L 515.566999 196.995955 
L 516.376428 138.265452 
L 516.781142 109.652108 
L 516.9835 100.2461 
L 517.185857 96.218236 
L 517.388214 96.415979 
L 517.590571 99.683524 
L 517.995286 117.303262 
L 518.4 145.700858 
L 518.4 145.700858 
" clip-path="url(#pd7b7b606b5)" style="fill: none; stroke: #2ca02c; stroke-width: 1.5; stroke-linecap: square"/>
   </g>
   <g id="patch_3">
    <path d="M 72 320.4 
L 72 43.2 
" style="fill: none; stroke: #000000; stroke-width: 0.8; stroke-linejoin: miter; stroke-linecap: square"/>
   </g>
   <g id="patch_4">
    <path d="M 518.4 320.4 
L 518.4 43.2 
" style="fill: none; stroke: #000000; stroke-width: 0.8; stroke-linejoin: miter; stroke-linecap: square"/>
   </g>
   <g id="patch_5">
    <path d="M 72 320.4 
L 518.4 320.4 
" style="fill: none; stroke: #000000; stroke-width: 0.8; stroke-linejoin: miter; stroke-linecap: square"/>
   </g>
   <g id="patch_6">
    <path d="M 72 43.2 
L 518.4 43.2 
" style="fill: none; stroke: #000000; stroke-width: 0.8; stroke-linejoin: miter; stroke-linecap: square"/>
   </g>
   <g id="text_13">
    <!-- Classic Transformer - model_20231126190505 -->
    <g transform="translate(155.436563 37.2) scale(0.12 -0.12)">
     <defs>
      <path id="DejaVuSans-43" d="M 4122 4306 
L 4122 3641 
Q 3803 3938 3442 4084 
Q 3081 4231 2675 4231 
Q 1875 4231 1450 3742 
Q 1025 3253 1025 2328 
Q 1025 1406 1450 917 
Q 1875 428 2675 428 
Q 3081 428 3442 575 
Q 3803 722 4122 1019 
L 4122 359 
Q 3791 134 3420 21 
Q 3050 -91 2638 -91 
Q 1578 -91 968 557 
Q 359 1206 359 2328 
Q 359 3453 968 4101 
Q 1578 4750 2638 4750 
Q 3056 4750 3426 4639 
Q 3797 4528 4122 4306 
z
" transform="scale(0.015625)"/>
      <path id="DejaVuSans-6c" d="M 603 4863 
L 1178 4863 
L 1178 0 
L 603 0 
L 603 4863 
z
" transform="scale(0.015625)"/>
      <path id="DejaVuSans-61" d="M 2194 1759 
Q 1497 1759 1228 1600 
Q 959 1441 959 1056 
Q 959 750 1161 570 
Q 1363 391 1709 391 
Q 2188 391 2477 730 
Q 2766 1069 2766 1631 
L 2766 1759 
L 2194 1759 
z
M 3341 1997 
L 3341 0 
L 2766 0 
L 2766 531 
Q 2569 213 2275 61 
Q 1981 -91 1556 -91 
Q 1019 -91 701 211 
Q 384 513 384 1019 
Q 384 1609 779 1909 
Q 1175 2209 1959 2209 
L 2766 2209 
L 2766 2266 
Q 2766 2663 2505 2880 
Q 2244 3097 1772 3097 
Q 1472 3097 1187 3025 
Q 903 2953 641 2809 
L 641 3341 
Q 956 3463 1253 3523 
Q 1550 3584 1831 3584 
Q 2591 3584 2966 3190 
Q 3341 2797 3341 1997 
z
" transform="scale(0.015625)"/>
      <path id="DejaVuSans-73" d="M 2834 3397 
L 2834 2853 
Q 2591 2978 2328 3040 
Q 2066 3103 1784 3103 
Q 1356 3103 1142 2972 
Q 928 2841 928 2578 
Q 928 2378 1081 2264 
Q 1234 2150 1697 2047 
L 1894 2003 
Q 2506 1872 2764 1633 
Q 3022 1394 3022 966 
Q 3022 478 2636 193 
Q 2250 -91 1575 -91 
Q 1294 -91 989 -36 
Q 684 19 347 128 
L 347 722 
Q 666 556 975 473 
Q 1284 391 1588 391 
Q 1994 391 2212 530 
Q 2431 669 2431 922 
Q 2431 1156 2273 1281 
Q 2116 1406 1581 1522 
L 1381 1569 
Q 847 1681 609 1914 
Q 372 2147 372 2553 
Q 372 3047 722 3315 
Q 1072 3584 1716 3584 
Q 2034 3584 2315 3537 
Q 2597 3491 2834 3397 
z
" transform="scale(0.015625)"/>
      <path id="DejaVuSans-69" d="M 603 3500 
L 1178 3500 
L 1178 0 
L 603 0 
L 603 3500 
z
M 603 4863 
L 1178 4863 
L 1178 4134 
L 603 4134 
L 603 4863 
z
" transform="scale(0.015625)"/>
      <path id="DejaVuSans-63" d="M 3122 3366 
L 3122 2828 
Q 2878 2963 2633 3030 
Q 2388 3097 2138 3097 
Q 1578 3097 1268 2742 
Q 959 2388 959 1747 
Q 959 1106 1268 751 
Q 1578 397 2138 397 
Q 2388 397 2633 464 
Q 2878 531 3122 666 
L 3122 134 
Q 2881 22 2623 -34 
Q 2366 -91 2075 -91 
Q 1284 -91 818 406 
Q 353 903 353 1747 
Q 353 2603 823 3093 
Q 1294 3584 2113 3584 
Q 2378 3584 2631 3529 
Q 2884 3475 3122 3366 
z
" transform="scale(0.015625)"/>
      <path id="DejaVuSans-20" transform="scale(0.015625)"/>
      <path id="DejaVuSans-54" d="M -19 4666 
L 3928 4666 
L 3928 4134 
L 2272 4134 
L 2272 0 
L 1638 0 
L 1638 4134 
L -19 4134 
L -19 4666 
z
" transform="scale(0.015625)"/>
      <path id="DejaVuSans-72" d="M 2631 2963 
Q 2534 3019 2420 3045 
Q 2306 3072 2169 3072 
Q 1681 3072 1420 2755 
Q 1159 2438 1159 1844 
L 1159 0 
L 581 0 
L 581 3500 
L 1159 3500 
L 1159 2956 
Q 1341 3275 1631 3429 
Q 1922 3584 2338 3584 
Q 2397 3584 2469 3576 
Q 2541 3569 2628 3553 
L 2631 2963 
z
" transform="scale(0.015625)"/>
      <path id="DejaVuSans-6e" d="M 3513 2113 
L 3513 0 
L 2938 0 
L 2938 2094 
Q 2938 2591 2744 2837 
Q 2550 3084 2163 3084 
Q 1697 3084 1428 2787 
Q 1159 2491 1159 1978 
L 1159 0 
L 581 0 
L 581 3500 
L 1159 3500 
L 1159 2956 
Q 1366 3272 1645 3428 
Q 1925 3584 2291 3584 
Q 2894 3584 3203 3211 
Q 3513 2838 3513 2113 
z
" transform="scale(0.015625)"/>
      <path id="DejaVuSans-66" d="M 2375 4863 
L 2375 4384 
L 1825 4384 
Q 1516 4384 1395 4259 
Q 1275 4134 1275 3809 
L 1275 3500 
L 2222 3500 
L 2222 3053 
L 1275 3053 
L 1275 0 
L 697 0 
L 697 3053 
L 147 3053 
L 147 3500 
L 697 3500 
L 697 3744 
Q 697 4328 969 4595 
Q 1241 4863 1831 4863 
L 2375 4863 
z
" transform="scale(0.015625)"/>
      <path id="DejaVuSans-6f" d="M 1959 3097 
Q 1497 3097 1228 2736 
Q 959 2375 959 1747 
Q 959 1119 1226 758 
Q 1494 397 1959 397 
Q 2419 397 2687 759 
Q 2956 1122 2956 1747 
Q 2956 2369 2687 2733 
Q 2419 3097 1959 3097 
z
M 1959 3584 
Q 2709 3584 3137 3096 
Q 3566 2609 3566 1747 
Q 3566 888 3137 398 
Q 2709 -91 1959 -91 
Q 1206 -91 779 398 
Q 353 888 353 1747 
Q 353 2609 779 3096 
Q 1206 3584 1959 3584 
z
" transform="scale(0.015625)"/>
      <path id="DejaVuSans-6d" d="M 3328 2828 
Q 3544 3216 3844 3400 
Q 4144 3584 4550 3584 
Q 5097 3584 5394 3201 
Q 5691 2819 5691 2113 
L 5691 0 
L 5113 0 
L 5113 2094 
Q 5113 2597 4934 2840 
Q 4756 3084 4391 3084 
Q 3944 3084 3684 2787 
Q 3425 2491 3425 1978 
L 3425 0 
L 2847 0 
L 2847 2094 
Q 2847 2600 2669 2842 
Q 2491 3084 2119 3084 
Q 1678 3084 1418 2786 
Q 1159 2488 1159 1978 
L 1159 0 
L 581 0 
L 581 3500 
L 1159 3500 
L 1159 2956 
Q 1356 3278 1631 3431 
Q 1906 3584 2284 3584 
Q 2666 3584 2933 3390 
Q 3200 3197 3328 2828 
z
" transform="scale(0.015625)"/>
      <path id="DejaVuSans-65" d="M 3597 1894 
L 3597 1613 
L 953 1613 
Q 991 1019 1311 708 
Q 1631 397 2203 397 
Q 2534 397 2845 478 
Q 3156 559 3463 722 
L 3463 178 
Q 3153 47 2828 -22 
Q 2503 -91 2169 -91 
Q 1331 -91 842 396 
Q 353 884 353 1716 
Q 353 2575 817 3079 
Q 1281 3584 2069 3584 
Q 2775 3584 3186 3129 
Q 3597 2675 3597 1894 
z
M 3022 2063 
Q 3016 2534 2758 2815 
Q 2500 3097 2075 3097 
Q 1594 3097 1305 2825 
Q 1016 2553 972 2059 
L 3022 2063 
z
" transform="scale(0.015625)"/>
      <path id="DejaVuSans-64" d="M 2906 2969 
L 2906 4863 
L 3481 4863 
L 3481 0 
L 2906 0 
L 2906 525 
Q 2725 213 2448 61 
Q 2172 -91 1784 -91 
Q 1150 -91 751 415 
Q 353 922 353 1747 
Q 353 2572 751 3078 
Q 1150 3584 1784 3584 
Q 2172 3584 2448 3432 
Q 2725 3281 2906 2969 
z
M 947 1747 
Q 947 1113 1208 752 
Q 1469 391 1925 391 
Q 2381 391 2643 752 
Q 2906 1113 2906 1747 
Q 2906 2381 2643 2742 
Q 2381 3103 1925 3103 
Q 1469 3103 1208 2742 
Q 947 2381 947 1747 
z
" transform="scale(0.015625)"/>
      <path id="DejaVuSans-5f" d="M 3263 -1063 
L 3263 -1509 
L -63 -1509 
L -63 -1063 
L 3263 -1063 
z
" transform="scale(0.015625)"/>
      <path id="DejaVuSans-39" d="M 703 97 
L 703 672 
Q 941 559 1184 500 
Q 1428 441 1663 441 
Q 2288 441 2617 861 
Q 2947 1281 2994 2138 
Q 2813 1869 2534 1725 
Q 2256 1581 1919 1581 
Q 1219 1581 811 2004 
Q 403 2428 403 3163 
Q 403 3881 828 4315 
Q 1253 4750 1959 4750 
Q 2769 4750 3195 4129 
Q 3622 3509 3622 2328 
Q 3622 1225 3098 567 
Q 2575 -91 1691 -91 
Q 1453 -91 1209 -44 
Q 966 3 703 97 
z
M 1959 2075 
Q 2384 2075 2632 2365 
Q 2881 2656 2881 3163 
Q 2881 3666 2632 3958 
Q 2384 4250 1959 4250 
Q 1534 4250 1286 3958 
Q 1038 3666 1038 3163 
Q 1038 2656 1286 2365 
Q 1534 2075 1959 2075 
z
" transform="scale(0.015625)"/>
     </defs>
     <use xlink:href="#DejaVuSans-43"/>
     <use xlink:href="#DejaVuSans-6c" x="69.824219"/>
     <use xlink:href="#DejaVuSans-61" x="97.607422"/>
     <use xlink:href="#DejaVuSans-73" x="158.886719"/>
     <use xlink:href="#DejaVuSans-73" x="210.986328"/>
     <use xlink:href="#DejaVuSans-69" x="263.085938"/>
     <use xlink:href="#DejaVuSans-63" x="290.869141"/>
     <use xlink:href="#DejaVuSans-20" x="345.849609"/>
     <use xlink:href="#DejaVuSans-54" x="377.636719"/>
     <use xlink:href="#DejaVuSans-72" x="423.970703"/>
     <use xlink:href="#DejaVuSans-61" x="465.083984"/>
     <use xlink:href="#DejaVuSans-6e" x="526.363281"/>
     <use xlink:href="#DejaVuSans-73" x="589.742188"/>
     <use xlink:href="#DejaVuSans-66" x="641.841797"/>
     <use xlink:href="#DejaVuSans-6f" x="677.046875"/>
     <use xlink:href="#DejaVuSans-72" x="738.228516"/>
     <use xlink:href="#DejaVuSans-6d" x="777.591797"/>
     <use xlink:href="#DejaVuSans-65" x="875.003906"/>
     <use xlink:href="#DejaVuSans-72" x="936.527344"/>
     <use xlink:href="#DejaVuSans-20" x="977.640625"/>
     <use xlink:href="#DejaVuSans-2d" x="1009.427734"/>
     <use xlink:href="#DejaVuSans-20" x="1045.511719"/>
     <use xlink:href="#DejaVuSans-6d" x="1077.298828"/>
     <use xlink:href="#DejaVuSans-6f" x="1174.710938"/>
     <use xlink:href="#DejaVuSans-64" x="1235.892578"/>
     <use xlink:href="#DejaVuSans-65" x="1299.369141"/>
     <use xlink:href="#DejaVuSans-6c" x="1360.892578"/>
     <use xlink:href="#DejaVuSans-5f" x="1388.675781"/>
     <use xlink:href="#DejaVuSans-32" x="1438.675781"/>
     <use xlink:href="#DejaVuSans-30" x="1502.298828"/>
     <use xlink:href="#DejaVuSans-32" x="1565.921875"/>
     <use xlink:href="#DejaVuSans-33" x="1629.544922"/>
     <use xlink:href="#DejaVuSans-31" x="1693.167969"/>
     <use xlink:href="#DejaVuSans-31" x="1756.791016"/>
     <use xlink:href="#DejaVuSans-32" x="1820.414062"/>
     <use xlink:href="#DejaVuSans-36" x="1884.037109"/>
     <use xlink:href="#DejaVuSans-31" x="1947.660156"/>
     <use xlink:href="#DejaVuSans-39" x="2011.283203"/>
     <use xlink:href="#DejaVuSans-30" x="2074.90625"/>
     <use xlink:href="#DejaVuSans-35" x="2138.529297"/>
     <use xlink:href="#DejaVuSans-30" x="2202.152344"/>
     <use xlink:href="#DejaVuSans-35" x="2265.775391"/>
    </g>
   </g>
   <g id="legend_1">
    <g id="patch_7">
     <path d="M 79 95.234375 
L 161.517188 95.234375 
Q 163.517188 95.234375 163.517188 93.234375 
L 163.517188 50.2 
Q 163.517188 48.2 161.517188 48.2 
L 79 48.2 
Q 77 48.2 77 50.2 
L 77 93.234375 
Q 77 95.234375 79 95.234375 
z
" style="fill: #ffffff; opacity: 0.8; stroke: #cccccc; stroke-linejoin: miter"/>
    </g>
    <g id="line2d_16">
     <path d="M 81 56.298437 
L 91 56.298437 
L 101 56.298437 
" style="fill: none; stroke: #1f77b4; stroke-width: 1.5; stroke-linecap: square"/>
    </g>
    <g id="text_14">
     <!-- Measured -->
     <g transform="translate(109 59.798437) scale(0.1 -0.1)">
      <defs>
       <path id="DejaVuSans-4d" d="M 628 4666 
L 1569 4666 
L 2759 1491 
L 3956 4666 
L 4897 4666 
L 4897 0 
L 4281 0 
L 4281 4097 
L 3078 897 
L 2444 897 
L 1241 4097 
L 1241 0 
L 628 0 
L 628 4666 
z
" transform="scale(0.015625)"/>
       <path id="DejaVuSans-75" d="M 544 1381 
L 544 3500 
L 1119 3500 
L 1119 1403 
Q 1119 906 1312 657 
Q 1506 409 1894 409 
Q 2359 409 2629 706 
Q 2900 1003 2900 1516 
L 2900 3500 
L 3475 3500 
L 3475 0 
L 2900 0 
L 2900 538 
Q 2691 219 2414 64 
Q 2138 -91 1772 -91 
Q 1169 -91 856 284 
Q 544 659 544 1381 
z
M 1991 3584 
L 1991 3584 
z
" transform="scale(0.015625)"/>
      </defs>
      <use xlink:href="#DejaVuSans-4d"/>
      <use xlink:href="#DejaVuSans-65" x="86.279297"/>
      <use xlink:href="#DejaVuSans-61" x="147.802734"/>
      <use xlink:href="#DejaVuSans-73" x="209.082031"/>
      <use xlink:href="#DejaVuSans-75" x="261.181641"/>
      <use xlink:href="#DejaVuSans-72" x="324.560547"/>
      <use xlink:href="#DejaVuSans-65" x="363.423828"/>
      <use xlink:href="#DejaVuSans-64" x="424.947266"/>
     </g>
    </g>
    <g id="line2d_17">
     <path d="M 81 70.976562 
L 91 70.976562 
L 101 70.976562 
" style="fill: none; stroke: #ff7f0e; stroke-width: 1.5; stroke-linecap: square"/>
    </g>
    <g id="text_15">
     <!-- Fitted -->
     <g transform="translate(109 74.476562) scale(0.1 -0.1)">
      <defs>
       <path id="DejaVuSans-46" d="M 628 4666 
L 3309 4666 
L 3309 4134 
L 1259 4134 
L 1259 2759 
L 3109 2759 
L 3109 2228 
L 1259 2228 
L 1259 0 
L 628 0 
L 628 4666 
z
" transform="scale(0.015625)"/>
       <path id="DejaVuSans-74" d="M 1172 4494 
L 1172 3500 
L 2356 3500 
L 2356 3053 
L 1172 3053 
L 1172 1153 
Q 1172 725 1289 603 
Q 1406 481 1766 481 
L 2356 481 
L 2356 0 
L 1766 0 
Q 1100 0 847 248 
Q 594 497 594 1153 
L 594 3053 
L 172 3053 
L 172 3500 
L 594 3500 
L 594 4494 
L 1172 4494 
z
" transform="scale(0.015625)"/>
      </defs>
      <use xlink:href="#DejaVuSans-46"/>
      <use xlink:href="#DejaVuSans-69" x="50.269531"/>
      <use xlink:href="#DejaVuSans-74" x="78.052734"/>
      <use xlink:href="#DejaVuSans-74" x="117.261719"/>
      <use xlink:href="#DejaVuSans-65" x="156.470703"/>
      <use xlink:href="#DejaVuSans-64" x="217.994141"/>
     </g>
    </g>
    <g id="line2d_18">
     <path d="M 81 85.654687 
L 91 85.654687 
L 101 85.654687 
" style="fill: none; stroke: #2ca02c; stroke-width: 1.5; stroke-linecap: square"/>
    </g>
    <g id="text_16">
     <!-- Estimated -->
     <g transform="translate(109 89.154687) scale(0.1 -0.1)">
      <defs>
       <path id="DejaVuSans-45" d="M 628 4666 
L 3578 4666 
L 3578 4134 
L 1259 4134 
L 1259 2753 
L 3481 2753 
L 3481 2222 
L 1259 2222 
L 1259 531 
L 3634 531 
L 3634 0 
L 628 0 
L 628 4666 
z
" transform="scale(0.015625)"/>
      </defs>
      <use xlink:href="#DejaVuSans-45"/>
      <use xlink:href="#DejaVuSans-73" x="63.183594"/>
      <use xlink:href="#DejaVuSans-74" x="115.283203"/>
      <use xlink:href="#DejaVuSans-69" x="154.492188"/>
      <use xlink:href="#DejaVuSans-6d" x="182.275391"/>
      <use xlink:href="#DejaVuSans-61" x="279.6875"/>
      <use xlink:href="#DejaVuSans-74" x="340.966797"/>
      <use xlink:href="#DejaVuSans-65" x="380.175781"/>
      <use xlink:href="#DejaVuSans-64" x="441.699219"/>
     </g>
    </g>
   </g>
  </g>
 </g>
 <defs>
  <clipPath id="pd7b7b606b5">
   <rect x="72" y="43.2" width="446.4" height="277.2"/>
  </clipPath>
 </defs>
</svg>
