<?xml version="1.0" encoding="utf-8" standalone="no"?>
<!DOCTYPE svg PUBLIC "-//W3C//DTD SVG 1.1//EN"
  "http://www.w3.org/Graphics/SVG/1.1/DTD/svg11.dtd">
<svg xmlns:xlink="http://www.w3.org/1999/xlink" width="576pt" height="360pt" viewBox="0 0 576 360" xmlns="http://www.w3.org/2000/svg" version="1.1">
 <metadata>
  <rdf:RDF xmlns:dc="http://purl.org/dc/elements/1.1/" xmlns:cc="http://creativecommons.org/ns#" xmlns:rdf="http://www.w3.org/1999/02/22-rdf-syntax-ns#">
   <cc:Work>
    <dc:type rdf:resource="http://purl.org/dc/dcmitype/StillImage"/>
    <dc:date>2023-11-26T18:24:53.270685</dc:date>
    <dc:format>image/svg+xml</dc:format>
    <dc:creator>
     <cc:Agent>
      <dc:title>Matplotlib v3.8.1, https://matplotlib.org/</dc:title>
     </cc:Agent>
    </dc:creator>
   </cc:Work>
  </rdf:RDF>
 </metadata>
 <defs>
  <style type="text/css">*{stroke-linejoin: round; stroke-linecap: butt}</style>
 </defs>
 <g id="figure_1">
  <g id="patch_1">
   <path d="M 0 360 
L 576 360 
L 576 0 
L 0 0 
z
" style="fill: #ffffff"/>
  </g>
  <g id="axes_1">
   <g id="patch_2">
    <path d="M 72 320.4 
L 518.4 320.4 
L 518.4 43.2 
L 72 43.2 
z
" style="fill: #ffffff"/>
   </g>
   <g id="matplotlib.axis_1">
    <g id="xtick_1">
     <g id="line2d_1">
      <defs>
       <path id="m90b25cbcd7" d="M 0 0 
L 0 3.5 
" style="stroke: #000000; stroke-width: 0.8"/>
      </defs>
      <g>
       <use xlink:href="#m90b25cbcd7" x="129.874161" y="320.4" style="stroke: #000000; stroke-width: 0.8"/>
      </g>
     </g>
     <g id="text_1">
      <!-- 2020-05-15 -->
      <g transform="translate(100.816349 334.998438) scale(0.1 -0.1)">
       <defs>
        <path id="DejaVuSans-32" d="M 1228 531 
L 3431 531 
L 3431 0 
L 469 0 
L 469 531 
Q 828 903 1448 1529 
Q 2069 2156 2228 2338 
Q 2531 2678 2651 2914 
Q 2772 3150 2772 3378 
Q 2772 3750 2511 3984 
Q 2250 4219 1831 4219 
Q 1534 4219 1204 4116 
Q 875 4013 500 3803 
L 500 4441 
Q 881 4594 1212 4672 
Q 1544 4750 1819 4750 
Q 2544 4750 2975 4387 
Q 3406 4025 3406 3419 
Q 3406 3131 3298 2873 
Q 3191 2616 2906 2266 
Q 2828 2175 2409 1742 
Q 1991 1309 1228 531 
z
" transform="scale(0.015625)"/>
        <path id="DejaVuSans-30" d="M 2034 4250 
Q 1547 4250 1301 3770 
Q 1056 3291 1056 2328 
Q 1056 1369 1301 889 
Q 1547 409 2034 409 
Q 2525 409 2770 889 
Q 3016 1369 3016 2328 
Q 3016 3291 2770 3770 
Q 2525 4250 2034 4250 
z
M 2034 4750 
Q 2819 4750 3233 4129 
Q 3647 3509 3647 2328 
Q 3647 1150 3233 529 
Q 2819 -91 2034 -91 
Q 1250 -91 836 529 
Q 422 1150 422 2328 
Q 422 3509 836 4129 
Q 1250 4750 2034 4750 
z
" transform="scale(0.015625)"/>
        <path id="DejaVuSans-2d" d="M 313 2009 
L 1997 2009 
L 1997 1497 
L 313 1497 
L 313 2009 
z
" transform="scale(0.015625)"/>
        <path id="DejaVuSans-35" d="M 691 4666 
L 3169 4666 
L 3169 4134 
L 1269 4134 
L 1269 2991 
Q 1406 3038 1543 3061 
Q 1681 3084 1819 3084 
Q 2600 3084 3056 2656 
Q 3513 2228 3513 1497 
Q 3513 744 3044 326 
Q 2575 -91 1722 -91 
Q 1428 -91 1123 -41 
Q 819 9 494 109 
L 494 744 
Q 775 591 1075 516 
Q 1375 441 1709 441 
Q 2250 441 2565 725 
Q 2881 1009 2881 1497 
Q 2881 1984 2565 2268 
Q 2250 2553 1709 2553 
Q 1456 2553 1204 2497 
Q 953 2441 691 2322 
L 691 4666 
z
" transform="scale(0.015625)"/>
        <path id="DejaVuSans-31" d="M 794 531 
L 1825 531 
L 1825 4091 
L 703 3866 
L 703 4441 
L 1819 4666 
L 2450 4666 
L 2450 531 
L 3481 531 
L 3481 0 
L 794 0 
L 794 531 
z
" transform="scale(0.015625)"/>
       </defs>
       <use xlink:href="#DejaVuSans-32"/>
       <use xlink:href="#DejaVuSans-30" x="63.623047"/>
       <use xlink:href="#DejaVuSans-32" x="127.246094"/>
       <use xlink:href="#DejaVuSans-30" x="190.869141"/>
       <use xlink:href="#DejaVuSans-2d" x="254.492188"/>
       <use xlink:href="#DejaVuSans-30" x="290.576172"/>
       <use xlink:href="#DejaVuSans-35" x="354.199219"/>
       <use xlink:href="#DejaVuSans-2d" x="417.822266"/>
       <use xlink:href="#DejaVuSans-31" x="453.90625"/>
       <use xlink:href="#DejaVuSans-35" x="517.529297"/>
      </g>
     </g>
    </g>
    <g id="xtick_2">
     <g id="line2d_2">
      <g>
       <use xlink:href="#m90b25cbcd7" x="212.435902" y="320.4" style="stroke: #000000; stroke-width: 0.8"/>
      </g>
     </g>
     <g id="text_2">
      <!-- 2020-06-01 -->
      <g transform="translate(183.37809 334.998438) scale(0.1 -0.1)">
       <defs>
        <path id="DejaVuSans-36" d="M 2113 2584 
Q 1688 2584 1439 2293 
Q 1191 2003 1191 1497 
Q 1191 994 1439 701 
Q 1688 409 2113 409 
Q 2538 409 2786 701 
Q 3034 994 3034 1497 
Q 3034 2003 2786 2293 
Q 2538 2584 2113 2584 
z
M 3366 4563 
L 3366 3988 
Q 3128 4100 2886 4159 
Q 2644 4219 2406 4219 
Q 1781 4219 1451 3797 
Q 1122 3375 1075 2522 
Q 1259 2794 1537 2939 
Q 1816 3084 2150 3084 
Q 2853 3084 3261 2657 
Q 3669 2231 3669 1497 
Q 3669 778 3244 343 
Q 2819 -91 2113 -91 
Q 1303 -91 875 529 
Q 447 1150 447 2328 
Q 447 3434 972 4092 
Q 1497 4750 2381 4750 
Q 2619 4750 2861 4703 
Q 3103 4656 3366 4563 
z
" transform="scale(0.015625)"/>
       </defs>
       <use xlink:href="#DejaVuSans-32"/>
       <use xlink:href="#DejaVuSans-30" x="63.623047"/>
       <use xlink:href="#DejaVuSans-32" x="127.246094"/>
       <use xlink:href="#DejaVuSans-30" x="190.869141"/>
       <use xlink:href="#DejaVuSans-2d" x="254.492188"/>
       <use xlink:href="#DejaVuSans-30" x="290.576172"/>
       <use xlink:href="#DejaVuSans-36" x="354.199219"/>
       <use xlink:href="#DejaVuSans-2d" x="417.822266"/>
       <use xlink:href="#DejaVuSans-30" x="453.90625"/>
       <use xlink:href="#DejaVuSans-31" x="517.529297"/>
      </g>
     </g>
    </g>
    <g id="xtick_3">
     <g id="line2d_3">
      <g>
       <use xlink:href="#m90b25cbcd7" x="280.427924" y="320.4" style="stroke: #000000; stroke-width: 0.8"/>
      </g>
     </g>
     <g id="text_3">
      <!-- 2020-06-15 -->
      <g transform="translate(251.370111 334.998438) scale(0.1 -0.1)">
       <use xlink:href="#DejaVuSans-32"/>
       <use xlink:href="#DejaVuSans-30" x="63.623047"/>
       <use xlink:href="#DejaVuSans-32" x="127.246094"/>
       <use xlink:href="#DejaVuSans-30" x="190.869141"/>
       <use xlink:href="#DejaVuSans-2d" x="254.492188"/>
       <use xlink:href="#DejaVuSans-30" x="290.576172"/>
       <use xlink:href="#DejaVuSans-36" x="354.199219"/>
       <use xlink:href="#DejaVuSans-2d" x="417.822266"/>
       <use xlink:href="#DejaVuSans-31" x="453.90625"/>
       <use xlink:href="#DejaVuSans-35" x="517.529297"/>
      </g>
     </g>
    </g>
    <g id="xtick_4">
     <g id="line2d_4">
      <g>
       <use xlink:href="#m90b25cbcd7" x="358.133092" y="320.4" style="stroke: #000000; stroke-width: 0.8"/>
      </g>
     </g>
     <g id="text_4">
      <!-- 2020-07-01 -->
      <g transform="translate(329.075279 334.998438) scale(0.1 -0.1)">
       <defs>
        <path id="DejaVuSans-37" d="M 525 4666 
L 3525 4666 
L 3525 4397 
L 1831 0 
L 1172 0 
L 2766 4134 
L 525 4134 
L 525 4666 
z
" transform="scale(0.015625)"/>
       </defs>
       <use xlink:href="#DejaVuSans-32"/>
       <use xlink:href="#DejaVuSans-30" x="63.623047"/>
       <use xlink:href="#DejaVuSans-32" x="127.246094"/>
       <use xlink:href="#DejaVuSans-30" x="190.869141"/>
       <use xlink:href="#DejaVuSans-2d" x="254.492188"/>
       <use xlink:href="#DejaVuSans-30" x="290.576172"/>
       <use xlink:href="#DejaVuSans-37" x="354.199219"/>
       <use xlink:href="#DejaVuSans-2d" x="417.822266"/>
       <use xlink:href="#DejaVuSans-30" x="453.90625"/>
       <use xlink:href="#DejaVuSans-31" x="517.529297"/>
      </g>
     </g>
    </g>
    <g id="xtick_5">
     <g id="line2d_5">
      <g>
       <use xlink:href="#m90b25cbcd7" x="426.125113" y="320.4" style="stroke: #000000; stroke-width: 0.8"/>
      </g>
     </g>
     <g id="text_5">
      <!-- 2020-07-15 -->
      <g transform="translate(397.067301 334.998438) scale(0.1 -0.1)">
       <use xlink:href="#DejaVuSans-32"/>
       <use xlink:href="#DejaVuSans-30" x="63.623047"/>
       <use xlink:href="#DejaVuSans-32" x="127.246094"/>
       <use xlink:href="#DejaVuSans-30" x="190.869141"/>
       <use xlink:href="#DejaVuSans-2d" x="254.492188"/>
       <use xlink:href="#DejaVuSans-30" x="290.576172"/>
       <use xlink:href="#DejaVuSans-37" x="354.199219"/>
       <use xlink:href="#DejaVuSans-2d" x="417.822266"/>
       <use xlink:href="#DejaVuSans-31" x="453.90625"/>
       <use xlink:href="#DejaVuSans-35" x="517.529297"/>
      </g>
     </g>
    </g>
    <g id="xtick_6">
     <g id="line2d_6">
      <g>
       <use xlink:href="#m90b25cbcd7" x="508.686854" y="320.4" style="stroke: #000000; stroke-width: 0.8"/>
      </g>
     </g>
     <g id="text_6">
      <!-- 2020-08-01 -->
      <g transform="translate(479.629042 334.998438) scale(0.1 -0.1)">
       <defs>
        <path id="DejaVuSans-38" d="M 2034 2216 
Q 1584 2216 1326 1975 
Q 1069 1734 1069 1313 
Q 1069 891 1326 650 
Q 1584 409 2034 409 
Q 2484 409 2743 651 
Q 3003 894 3003 1313 
Q 3003 1734 2745 1975 
Q 2488 2216 2034 2216 
z
M 1403 2484 
Q 997 2584 770 2862 
Q 544 3141 544 3541 
Q 544 4100 942 4425 
Q 1341 4750 2034 4750 
Q 2731 4750 3128 4425 
Q 3525 4100 3525 3541 
Q 3525 3141 3298 2862 
Q 3072 2584 2669 2484 
Q 3125 2378 3379 2068 
Q 3634 1759 3634 1313 
Q 3634 634 3220 271 
Q 2806 -91 2034 -91 
Q 1263 -91 848 271 
Q 434 634 434 1313 
Q 434 1759 690 2068 
Q 947 2378 1403 2484 
z
M 1172 3481 
Q 1172 3119 1398 2916 
Q 1625 2713 2034 2713 
Q 2441 2713 2670 2916 
Q 2900 3119 2900 3481 
Q 2900 3844 2670 4047 
Q 2441 4250 2034 4250 
Q 1625 4250 1398 4047 
Q 1172 3844 1172 3481 
z
" transform="scale(0.015625)"/>
       </defs>
       <use xlink:href="#DejaVuSans-32"/>
       <use xlink:href="#DejaVuSans-30" x="63.623047"/>
       <use xlink:href="#DejaVuSans-32" x="127.246094"/>
       <use xlink:href="#DejaVuSans-30" x="190.869141"/>
       <use xlink:href="#DejaVuSans-2d" x="254.492188"/>
       <use xlink:href="#DejaVuSans-30" x="290.576172"/>
       <use xlink:href="#DejaVuSans-38" x="354.199219"/>
       <use xlink:href="#DejaVuSans-2d" x="417.822266"/>
       <use xlink:href="#DejaVuSans-30" x="453.90625"/>
       <use xlink:href="#DejaVuSans-31" x="517.529297"/>
      </g>
     </g>
    </g>
   </g>
   <g id="matplotlib.axis_2">
    <g id="ytick_1">
     <g id="line2d_7">
      <defs>
       <path id="ma9541b6a77" d="M 0 0 
L -3.5 0 
" style="stroke: #000000; stroke-width: 0.8"/>
      </defs>
      <g>
       <use xlink:href="#ma9541b6a77" x="72" y="316.02311" style="stroke: #000000; stroke-width: 0.8"/>
      </g>
     </g>
     <g id="text_7">
      <!-- −2 -->
      <g transform="translate(50.257812 319.822329) scale(0.1 -0.1)">
       <defs>
        <path id="DejaVuSans-2212" d="M 678 2272 
L 4684 2272 
L 4684 1741 
L 678 1741 
L 678 2272 
z
" transform="scale(0.015625)"/>
       </defs>
       <use xlink:href="#DejaVuSans-2212"/>
       <use xlink:href="#DejaVuSans-32" x="83.789062"/>
      </g>
     </g>
    </g>
    <g id="ytick_2">
     <g id="line2d_8">
      <g>
       <use xlink:href="#ma9541b6a77" x="72" y="262.270962" style="stroke: #000000; stroke-width: 0.8"/>
      </g>
     </g>
     <g id="text_8">
      <!-- −1 -->
      <g transform="translate(50.257812 266.070181) scale(0.1 -0.1)">
       <use xlink:href="#DejaVuSans-2212"/>
       <use xlink:href="#DejaVuSans-31" x="83.789062"/>
      </g>
     </g>
    </g>
    <g id="ytick_3">
     <g id="line2d_9">
      <g>
       <use xlink:href="#ma9541b6a77" x="72" y="208.518814" style="stroke: #000000; stroke-width: 0.8"/>
      </g>
     </g>
     <g id="text_9">
      <!-- 0 -->
      <g transform="translate(58.6375 212.318032) scale(0.1 -0.1)">
       <use xlink:href="#DejaVuSans-30"/>
      </g>
     </g>
    </g>
    <g id="ytick_4">
     <g id="line2d_10">
      <g>
       <use xlink:href="#ma9541b6a77" x="72" y="154.766666" style="stroke: #000000; stroke-width: 0.8"/>
      </g>
     </g>
     <g id="text_10">
      <!-- 1 -->
      <g transform="translate(58.6375 158.565884) scale(0.1 -0.1)">
       <use xlink:href="#DejaVuSans-31"/>
      </g>
     </g>
    </g>
    <g id="ytick_5">
     <g id="line2d_11">
      <g>
       <use xlink:href="#ma9541b6a77" x="72" y="101.014518" style="stroke: #000000; stroke-width: 0.8"/>
      </g>
     </g>
     <g id="text_11">
      <!-- 2 -->
      <g transform="translate(58.6375 104.813736) scale(0.1 -0.1)">
       <use xlink:href="#DejaVuSans-32"/>
      </g>
     </g>
    </g>
    <g id="ytick_6">
     <g id="line2d_12">
      <g>
       <use xlink:href="#ma9541b6a77" x="72" y="47.262369" style="stroke: #000000; stroke-width: 0.8"/>
      </g>
     </g>
     <g id="text_12">
      <!-- 3 -->
      <g transform="translate(58.6375 51.061588) scale(0.1 -0.1)">
       <defs>
        <path id="DejaVuSans-33" d="M 2597 2516 
Q 3050 2419 3304 2112 
Q 3559 1806 3559 1356 
Q 3559 666 3084 287 
Q 2609 -91 1734 -91 
Q 1441 -91 1130 -33 
Q 819 25 488 141 
L 488 750 
Q 750 597 1062 519 
Q 1375 441 1716 441 
Q 2309 441 2620 675 
Q 2931 909 2931 1356 
Q 2931 1769 2642 2001 
Q 2353 2234 1838 2234 
L 1294 2234 
L 1294 2753 
L 1863 2753 
Q 2328 2753 2575 2939 
Q 2822 3125 2822 3475 
Q 2822 3834 2567 4026 
Q 2313 4219 1838 4219 
Q 1578 4219 1281 4162 
Q 984 4106 628 3988 
L 628 4550 
Q 988 4650 1302 4700 
Q 1616 4750 1894 4750 
Q 2613 4750 3031 4423 
Q 3450 4097 3450 3541 
Q 3450 3153 3228 2886 
Q 3006 2619 2597 2516 
z
" transform="scale(0.015625)"/>
       </defs>
       <use xlink:href="#DejaVuSans-33"/>
      </g>
     </g>
    </g>
   </g>
   <g id="line2d_13">
    <path d="M 72 287.021497 
L 72.404714 298.412757 
L 72.607072 296.682973 
L 72.809429 285.96675 
L 73.214143 254.915018 
L 73.618858 242.426821 
L 75.035358 159.101858 
L 75.237715 156.127474 
L 75.440073 161.211351 
L 75.64243 169.459468 
L 75.844787 172.771371 
L 76.047144 188.086288 
L 76.654216 258.669915 
L 77.05893 282.844701 
L 77.261287 287.232446 
L 77.463645 286.852737 
L 77.666002 276.094324 
L 78.070716 247.468508 
L 78.475431 234.938122 
L 78.677788 225.761828 
L 79.487217 168.510196 
L 79.891931 152.161627 
L 80.094288 154.123456 
L 80.903717 196.735208 
L 81.713146 272.423807 
L 82.11786 287.148066 
L 82.320218 289.194274 
L 82.522575 288.898945 
L 82.724932 286.367554 
L 82.927289 279.511703 
L 83.332004 256.412757 
L 83.736718 242.026017 
L 83.939075 238.967253 
L 84.141432 239.241487 
L 84.546147 245.675439 
L 84.748504 247.784932 
L 84.950861 247.806027 
L 85.355576 252.025013 
L 85.557933 248.670919 
L 85.76029 254.830638 
L 86.569719 300.015972 
L 86.772076 306.133501 
L 86.974433 307.736715 
L 87.176791 307.8 
L 87.379148 306.449925 
L 87.581505 302.695028 
L 87.783862 295.902461 
L 88.188577 273.731693 
L 88.390934 268.521246 
L 89.200363 260.399699 
L 89.40272 256.243998 
L 89.807434 241.372074 
L 90.212149 238.903968 
L 90.414506 236.182722 
L 90.616863 244.1777 
L 91.223935 295.037569 
L 91.628649 306.133501 
L 91.831006 306.196786 
L 92.033364 303.686489 
L 92.842792 257.277649 
L 93.04515 255.125967 
L 93.449864 246.477047 
L 93.652221 245.949674 
L 93.854578 242.996384 
L 94.056936 242.363536 
L 94.259293 239.72667 
L 94.46165 233.292717 
L 94.664007 230.423807 
L 94.866364 231.351984 
L 95.068722 234.516223 
L 95.271079 230.655851 
L 95.473436 240.823606 
L 96.080508 295.417278 
L 96.485222 304.677951 
L 96.687579 306.597589 
L 96.889937 302.230939 
L 97.699365 256.539327 
L 98.306437 245.970768 
L 98.508794 245.59106 
L 99.52058 224.242993 
L 99.722937 225.508689 
L 99.925295 229.896434 
L 100.127652 228.061175 
L 100.330009 238.27112 
L 100.937081 292.928076 
L 101.341795 305.268609 
L 101.544152 306.26007 
L 101.74651 302.526268 
L 101.948867 290.50216 
L 102.353581 260.294224 
L 102.555938 258.733199 
L 103.567724 240.844701 
L 104.377153 218.610648 
L 104.57951 219.897438 
L 104.781868 225.318835 
L 104.984225 225.29774 
L 105.186582 234.241989 
L 105.793654 289.763837 
L 106.198368 302.589553 
L 106.400725 304.361527 
L 106.603083 300.311301 
L 107.412511 254.11341 
L 107.614869 252.383626 
L 107.817226 248.692014 
L 108.22194 234.07323 
L 108.626655 212.23998 
L 108.829012 206.270116 
L 109.031369 204.371572 
L 109.638441 213.104872 
L 109.840798 218.568458 
L 110.043155 229.031542 
L 110.650227 284.405726 
L 111.054941 298.750276 
L 111.257298 300.669915 
L 111.459655 298.919036 
L 111.662013 287.443395 
L 112.066727 258.015972 
L 112.471442 242.933099 
L 113.887942 174.121447 
L 114.090299 171.73772 
L 114.292656 178.593571 
L 114.495014 190.090306 
L 114.697371 194.710095 
L 115.102085 228.926067 
L 115.709157 278.583526 
L 116.113871 292.611652 
L 116.316228 292.780412 
L 116.518586 291.113913 
L 116.720943 287.46449 
L 117.125657 260.06218 
L 118.542158 154.777398 
L 118.744515 144.609643 
L 118.946872 140.707082 
L 119.149229 144.398694 
L 119.756301 182.496133 
L 120.56573 262.319337 
L 120.970444 282.254043 
L 121.172801 286.367554 
L 121.375159 288.012958 
L 121.577516 286.557408 
L 121.779873 278.583526 
L 122.589302 227.280663 
L 123.196374 201.671421 
L 123.398731 197.072727 
L 123.601088 197.283677 
L 123.803445 196.714114 
L 124.410517 210.193772 
L 124.612874 221.226419 
L 125.219946 277.845203 
L 125.62466 292.463988 
L 125.827017 294.468006 
L 126.029374 291.91552 
L 127.04116 235.191261 
L 127.648232 197.557911 
L 128.255304 154.925063 
L 128.457661 147.330889 
L 128.660018 146.99337 
L 129.26709 191.588046 
L 130.278876 282.971271 
L 130.481233 290.839679 
L 130.68359 292.231944 
L 130.885947 289.637268 
L 132.504805 180.070216 
L 133.111877 137.142039 
L 133.314234 127.670417 
L 133.516591 129.379106 
L 133.921306 144.841688 
L 134.123663 152.309292 
L 135.135449 262.84671 
L 135.540163 275.545856 
L 135.74252 274.596585 
L 135.944878 263.943646 
L 136.349592 232.343446 
L 136.551949 225.529784 
L 136.754306 213.590055 
L 136.956664 218.188749 
L 137.159021 206.818584 
L 137.766092 197.937619 
L 137.96845 198.338423 
L 138.373164 192.895932 
L 138.777879 200.490105 
L 138.980236 201.333903 
L 139.182593 213.210347 
L 139.789665 270.187745 
L 140.194379 285.650326 
L 140.396736 287.738724 
L 140.599093 284.701055 
L 141.003808 254.303265 
L 141.408522 232.997388 
L 142.015594 219.51773 
L 142.622665 210.320342 
L 142.825023 210.046107 
L 143.02738 208.822602 
L 143.229737 209.518734 
L 143.634451 214.834656 
L 143.836809 213.590055 
L 144.039166 223.84219 
L 144.646238 273.499648 
L 145.050952 285.671421 
L 145.253309 286.979307 
L 145.455666 283.815068 
L 145.860381 253.965746 
L 146.062738 237.406228 
L 146.66981 220.825615 
L 146.872167 218.125465 
L 147.074524 217.028528 
L 147.479238 205.848217 
L 147.681596 214.370568 
L 147.883953 215.362029 
L 148.08631 217.998895 
L 148.491024 227.386138 
L 148.693382 226.014967 
L 149.098096 249.83114 
L 149.502811 278.203817 
L 149.907525 291.430337 
L 150.109882 293.518734 
L 150.312239 292.928076 
L 150.514597 290.059166 
L 150.716954 284.258061 
L 151.121668 263.036565 
L 151.526383 242.194776 
L 151.931097 236.288197 
L 152.133454 235.845203 
L 152.335811 237.849221 
L 152.538169 238.376595 
L 152.740526 236.288197 
L 152.942883 236.583526 
L 153.14524 235.592064 
L 153.347597 235.634254 
L 153.549955 232.659869 
L 153.752312 234.895932 
L 154.764098 287.253541 
L 154.966455 291.282672 
L 155.168812 292.696032 
L 155.573527 288.687996 
L 155.775884 277.423305 
L 156.78767 198.127474 
L 157.799456 154.756303 
L 158.001813 156.802511 
L 158.406528 170.23998 
L 158.608885 184.036062 
L 159.215956 253.881366 
L 159.620671 275.86228 
L 159.823028 279.131994 
L 160.025385 278.203817 
L 160.227743 268.225917 
L 160.632457 235.191261 
L 161.8466 183.993872 
L 162.251315 173.762833 
L 162.453672 173.910497 
L 162.656029 176.821597 
L 163.465458 209.20231 
L 164.072529 270.12446 
L 164.477244 289.067705 
L 164.679601 289.405224 
L 164.881958 286.114415 
L 165.084316 275.777901 
L 165.48903 243.439377 
L 166.500816 207.725665 
L 167.310245 164.038071 
L 167.512602 167.45545 
L 167.917316 188.402712 
L 168.119674 192.938122 
L 168.322031 204.498142 
L 168.929102 264.977298 
L 169.333817 280.439879 
L 169.536174 284.026017 
L 169.738531 280.292215 
L 170.143246 252.510196 
L 170.54796 221.648317 
L 171.357389 176.273129 
L 171.559746 170.134505 
L 172.166818 145.49563 
L 172.369175 147.141035 
L 172.571532 155.199297 
L 173.178604 194.878855 
L 173.785675 267.25555 
L 174.19039 287.000402 
L 174.392747 290.038071 
L 174.595104 288.181718 
L 174.999819 263.542843 
L 175.404533 238.081266 
L 177.023391 158.405726 
L 177.225748 158.933099 
L 177.428105 162.92004 
L 177.630462 179.817077 
L 177.83282 182.306278 
L 178.237534 227.238473 
L 178.642248 270.947162 
L 179.046963 290.50216 
L 179.24932 294.299247 
L 179.451677 291.725665 
L 179.654034 282.865796 
L 180.261106 242.258061 
L 181.879964 143.449422 
L 182.082321 140.116424 
L 182.284678 145.896434 
L 183.094107 203.316826 
L 183.498821 243.080763 
L 183.903536 264.956203 
L 184.30825 272.95118 
L 184.510607 274.343446 
L 184.712965 270.630738 
L 184.915322 256.98232 
L 185.724751 173.340934 
L 186.129465 151.52878 
L 186.331822 145.347966 
L 186.53418 144.567454 
L 186.736537 147.16213 
L 187.748323 188.423807 
L 188.557752 253.923556 
L 188.962466 268.394676 
L 189.164823 270.483074 
L 189.36718 270.567454 
L 189.569538 269.808036 
L 189.771895 258.796484 
L 190.986038 160.810547 
L 191.188395 155.389151 
L 191.390752 155.346961 
L 191.795467 164.692014 
L 192.604896 196.671924 
L 193.414325 261.370065 
L 193.819039 275.377097 
L 194.021396 276.474033 
L 194.426111 272.423807 
L 194.628468 263.268609 
L 195.437897 201.017479 
L 195.640254 195.891411 
L 195.842611 197.136012 
L 196.247325 203.337921 
L 196.449683 203.928579 
L 196.65204 203.527775 
L 197.056754 211.923556 
L 197.259112 212.788448 
L 197.461469 221.395178 
L 198.06854 270.841688 
L 198.473255 285.354997 
L 198.675612 285.460472 
L 198.877969 281.72667 
L 199.282684 250.231944 
L 199.687398 226.879859 
L 201.306256 158.933099 
L 201.508613 157.751783 
L 202.115684 177.39116 
L 202.318042 188.803516 
L 202.925113 254.366549 
L 203.329828 272.423807 
L 203.532185 274.57549 
L 203.734542 271.516725 
L 203.936899 259.724661 
L 204.341614 224.939126 
L 205.758114 168.995379 
L 205.960471 166.442893 
L 206.162829 166.590558 
L 206.365186 168.046107 
L 206.7699 180.175691 
L 206.972257 183.445404 
L 207.174615 194.541336 
L 207.781686 254.978302 
L 208.186401 271.516725 
L 208.388758 274.638774 
L 208.591115 271.221396 
L 208.793472 259.070718 
L 209.198187 224.475038 
L 209.805258 201.671421 
L 210.209973 181.314817 
L 210.817044 138.639779 
L 211.019402 129.948669 
L 211.221759 132.986339 
L 211.626473 158.047112 
L 211.82883 163.384129 
L 212.031188 178.467002 
L 212.638259 245.063687 
L 213.042974 264.091311 
L 213.245331 268.183727 
L 213.447688 266.432848 
L 213.650045 255.463486 
L 214.257117 211.164139 
L 214.661831 184.183727 
L 215.47126 123.409242 
L 215.875975 106.280161 
L 216.078332 105.794977 
L 216.280689 111.469513 
L 217.090118 176.779407 
L 217.697189 240.190758 
L 218.101904 259.091813 
L 218.304261 262.530286 
L 218.506618 263.922551 
L 218.708976 262.635761 
L 218.911333 249.599096 
L 219.518404 193.48659 
L 220.125476 157.435359 
L 220.327833 155.220392 
L 220.53019 157.498644 
L 221.541976 200.827624 
L 221.744334 206.101356 
L 222.553762 264.365545 
L 222.958477 275.503666 
L 223.160834 277.254545 
L 223.363191 277.613159 
L 223.565549 276.009945 
L 223.767906 267.086791 
L 224.374977 227.955701 
L 224.779692 220.192767 
L 225.386763 222.30226 
L 225.589121 225.909493 
L 225.791478 226.816575 
L 226.196192 235.40221 
L 226.398549 235.043596 
L 226.600907 241.625213 
L 227.410335 296.535309 
L 227.612693 300.669915 
L 227.81505 302.399699 
L 228.017407 299.129985 
L 228.826836 255.505676 
L 229.029193 253.121949 
L 229.23155 247.236464 
L 230.648051 182.285183 
L 230.850408 182.875841 
L 231.255122 197.64229 
L 231.45748 208.801507 
L 232.064551 274.027022 
L 232.469266 291.620191 
L 232.671623 294.404721 
L 232.87398 293.160121 
L 233.278694 267.25555 
L 233.683409 244.1777 
L 235.302267 178.024008 
L 235.504624 177.412255 
L 236.111695 196.988348 
L 236.314053 207.599096 
L 236.921124 271.242491 
L 237.325839 287.50668 
L 237.528196 290.713109 
L 237.730553 288.540331 
L 238.135267 264.006931 
L 238.539982 241.688498 
L 239.349411 210.003918 
L 239.754125 199.751783 
L 240.15884 189.288699 
L 240.361197 189.03556 
L 240.563554 194.625716 
L 240.968268 212.661878 
L 241.170626 220.424812 
L 241.777697 277.31783 
L 242.182412 293.560924 
L 242.384769 296.11341 
L 242.587126 293.054646 
L 242.99184 267.740733 
L 243.396555 249.345957 
L 245.21777 172.876846 
L 245.420127 177.222401 
L 246.027199 204.666901 
L 246.836627 279.933601 
L 247.038985 288.498142 
L 247.241342 291.74676 
L 247.443699 289.152084 
L 247.848413 265.019488 
L 249.467271 150.305274 
L 249.669628 142.036062 
L 249.871985 140.053139 
L 250.074343 140.221899 
L 250.2767 147.330889 
L 250.883772 180.21788 
L 251.6932 257.003415 
L 252.097915 271.875339 
L 252.300272 275.018483 
L 252.502629 275.292717 
L 252.704986 271.326871 
L 253.109701 237.785937 
L 253.91913 162.814566 
L 254.323844 146.634756 
L 254.728558 137.606128 
L 254.930916 136.319337 
L 255.133273 143.997891 
L 255.740345 182.369563 
L 256.549773 259.387142 
L 256.954488 275.229432 
L 257.156845 279.131994 
L 257.359202 280.840683 
L 257.561559 279.849221 
L 257.966274 250.274134 
L 258.573345 198.675942 
L 258.97806 176.484078 
L 259.382774 165.198292 
L 259.585131 161.675439 
L 259.787489 161.232446 
L 259.989846 163.911502 
L 260.39456 180.281165 
L 260.596917 193.950678 
L 261.203989 257.425314 
L 261.608704 276.579508 
L 261.811061 279.574987 
L 262.013418 278.77338 
L 262.418132 254.23998 
L 262.62049 241.941637 
L 263.025204 232.048117 
L 263.227561 229.179206 
L 263.429918 228.145555 
L 263.834633 229.45344 
L 264.03699 229.137017 
L 264.239347 230.107383 
L 264.441704 230.191763 
L 264.644062 229.917529 
L 264.846419 232.005927 
L 265.048776 236.140532 
L 265.251133 236.140532 
L 265.45349 240.254043 
L 266.060562 283.730688 
L 266.465277 296.872828 
L 266.667634 298.454947 
L 266.869991 294.172677 
L 267.072348 286.030035 
L 267.477063 258.901959 
L 268.084134 236.203817 
L 268.488849 225.677449 
L 269.09592 214.159618 
L 269.500635 210.109392 
L 269.702992 212.345455 
L 269.905349 216.037067 
L 270.107706 216.733199 
L 270.310063 223.188247 
L 270.917135 273.204319 
L 271.32185 285.460472 
L 271.524207 287.654345 
L 271.726564 285.903466 
L 274.15485 140.960221 
L 274.357208 133.619186 
L 274.559565 137.036565 
L 275.166636 162.793471 
L 275.976065 246.308287 
L 276.38078 259.176193 
L 276.583137 258.458965 
L 276.987851 236.098343 
L 277.392566 206.50216 
L 278.404352 148.195781 
L 278.606709 145.073732 
L 279.011423 131.530789 
L 279.213781 129.885384 
L 279.416138 134.252034 
L 280.023209 176.969262 
L 280.630281 250.020994 
L 281.034995 273.351984 
L 281.237353 278.351482 
L 281.43971 276.769362 
L 281.642067 270.736213 
L 282.249139 227.976796 
L 282.85621 193.52878 
L 283.867996 149.714616 
L 284.070354 148.49111 
L 284.272711 156.844701 
L 285.284497 241.920542 
L 285.689211 274.870819 
L 286.093926 289.974787 
L 286.296283 292.316323 
L 286.49864 290.45997 
L 286.700997 287.443395 
L 287.105712 255.674435 
L 287.712783 202.873832 
L 288.522212 158.384631 
L 288.724569 151.085786 
L 288.926927 149.102863 
L 289.129284 152.77338 
L 289.736355 187.411251 
L 290.545784 259.197288 
L 290.950499 274.849724 
L 291.152856 277.697539 
L 291.355213 277.781919 
L 291.55757 276.263084 
L 291.759927 263.479558 
L 292.771714 162.392667 
L 293.176428 139.863285 
L 293.581142 128.345455 
L 293.7835 126.573481 
L 293.985857 130.180713 
L 294.592928 156.338423 
L 295.402357 241.667403 
L 295.807072 256.729181 
L 296.009429 256.560422 
L 296.414143 235.760824 
L 297.830644 97.293722 
L 298.235358 83.645304 
L 298.437715 80.987343 
L 298.640073 81.261577 
L 298.84243 83.37107 
L 299.044787 91.619186 
L 299.449501 119.295731 
L 300.056573 200.363536 
L 300.461287 226.268106 
L 300.663645 232.44892 
L 300.866002 233.187243 
L 301.068359 226.183727 
L 301.473073 195.342943 
L 302.484859 87.273631 
L 302.687217 75.650326 
L 302.889574 75.755801 
L 303.091931 84.067202 
L 303.496646 92.948167 
L 303.90136 115.793973 
L 304.306074 144.483074 
L 304.913146 215.551883 
L 305.31786 241.583024 
L 305.520218 247.299749 
L 305.722575 245.46449 
L 305.924932 238.14455 
L 306.532004 197.114917 
L 307.54379 125.223405 
L 307.746147 114.739227 
L 307.948504 113.832145 
L 308.757933 146.972275 
L 309.162647 173.741738 
L 309.769719 238.439879 
L 310.174433 258.859769 
L 310.376791 263.374083 
L 310.579148 262.783425 
L 310.983862 238.735208 
L 312.198005 131.889402 
L 312.60272 119.949674 
L 312.805077 115.456454 
L 313.007434 116.026017 
L 313.209791 119.823104 
L 313.816863 148.153591 
L 314.01922 162.202813 
L 314.626292 226.479056 
L 315.031006 247.531793 
L 315.233364 252.235962 
L 315.435721 251.560924 
L 315.840435 232.280161 
L 316.24515 213.062682 
L 316.649864 200.72215 
L 317.054578 185.006429 
L 317.66165 177.285686 
L 317.864007 176.821597 
L 318.066364 175.89342 
L 318.268722 180.703064 
L 318.875793 203.443395 
L 319.685222 263.627223 
L 320.089937 276.748267 
L 320.292294 278.435861 
L 320.697008 270.293219 
L 321.101723 243.354997 
L 322.315866 163.320844 
L 322.72058 152.794475 
L 322.922937 150.410748 
L 323.125295 154.650829 
L 323.732366 183.023506 
L 324.541795 253.417278 
L 324.94651 268.099347 
L 325.148867 271.073732 
L 325.351224 271.137017 
L 325.553581 268.816575 
L 325.755938 256.159618 
L 326.970082 140.707082 
L 327.172439 134.209844 
L 327.374796 132.585535 
L 327.77951 126.86881 
L 327.981868 131.994877 
L 328.184225 141.023506 
L 328.791296 194.077248 
L 329.196011 238.988348 
L 329.398368 254.640784 
L 329.803083 265.019488 
L 330.00544 264.049121 
L 330.207797 258.290206 
L 330.814869 208.463988 
L 331.42194 169.206328 
L 331.826655 145.917529 
L 332.029012 142.943144 
L 332.231369 142.964239 
L 332.433726 143.154093 
L 332.636083 145.305776 
L 332.838441 149.967755 
L 333.243155 173.509694 
L 333.445512 182.770367 
L 334.052584 250.274134 
L 334.457298 272.655851 
L 334.659655 278.224912 
L 334.862013 275.756806 
L 335.266727 255.379106 
L 335.671442 230.360522 
L 336.48087 189.16213 
L 336.683228 183.951683 
L 336.885585 182.812557 
L 337.087942 176.462983 
L 337.290299 174.56444 
L 337.695014 181.209342 
L 338.099728 196.060171 
L 338.302085 202.09332 
L 339.111514 269.702562 
L 339.313871 276.07323 
L 339.516228 278.372577 
L 339.718586 274.195781 
L 340.1233 250.210849 
L 340.932729 204.540331 
L 342.349229 141.107885 
L 342.551587 141.023506 
L 343.158658 166.379608 
L 343.76573 230.845706 
L 344.170444 249.345957 
L 344.372801 254.23998 
L 344.575159 252.046107 
L 344.777516 244.937117 
L 345.18223 213.210347 
L 346.194016 128.32436 
L 346.598731 113.157107 
L 347.003445 106.36454 
L 347.205802 105.499648 
L 347.40816 108.769362 
L 347.610517 116.827624 
L 348.015231 143.639277 
L 348.82466 237.237469 
L 349.229374 254.809543 
L 349.431732 254.029031 
L 349.634089 248.080261 
L 349.836446 236.646811 
L 351.050589 129.379106 
L 351.455304 110.520241 
L 351.860018 101.428327 
L 352.062375 100.500151 
L 352.264733 104.233953 
L 352.46709 115.625213 
L 353.276519 200.975289 
L 353.681233 239.937619 
L 354.085947 260.673933 
L 354.288305 266.095329 
L 354.490662 266.685987 
L 354.693019 264.38664 
L 355.097733 221.205324 
L 355.704805 145.369061 
L 356.109519 119.991863 
L 356.716591 101.301758 
L 356.918948 100.183727 
L 357.121306 105.11994 
L 357.52602 131.446409 
L 357.728377 144.483074 
L 358.740163 242.574485 
L 359.144878 255.906479 
L 359.347235 257.826118 
L 359.549592 257.488599 
L 359.751949 243.101858 
L 360.763735 119.169161 
L 361.16845 99.571974 
L 361.573164 88.159618 
L 361.775521 85.796986 
L 361.977879 89.172175 
L 362.180236 96.365545 
L 362.58495 122.860773 
L 363.394379 214.054144 
L 363.799093 232.195781 
L 364.001451 233.039578 
L 364.203808 226.985334 
L 364.406165 216.64882 
L 365.013237 145.137017 
L 365.620308 78.772376 
L 366.025023 62.149573 
L 366.429737 55.8 
L 366.632094 56.306278 
L 366.834451 59.027524 
L 367.036809 67.992868 
L 367.441523 98.010949 
L 368.048595 179.901457 
L 368.453309 211.290708 
L 368.655666 220.066198 
L 368.858024 222.513209 
L 369.060381 218.505173 
L 369.262738 208.358513 
L 369.86981 143.006429 
L 370.476881 83.160121 
L 370.881596 66.052135 
L 371.083953 65.588046 
L 371.28631 66.326369 
L 371.488667 70.376595 
L 371.691024 76.789453 
L 372.298096 116.912004 
L 373.107525 204.413762 
L 373.512239 227.301758 
L 373.714597 231.794977 
L 374.119311 231.07775 
L 374.321668 217.956705 
L 375.333454 111.047614 
L 375.738169 97.399196 
L 375.940526 94.614666 
L 376.142883 93.47554 
L 376.34524 98.812557 
L 376.749955 125.835158 
L 377.559383 186.504169 
L 377.964098 222.196786 
L 378.368812 236.414766 
L 378.57117 236.646811 
L 378.773527 230.529282 
L 378.975884 218.969262 
L 380.392384 98.791462 
L 380.797099 88.560422 
L 381.201813 80.734204 
L 381.40417 84.615671 
L 382.011242 122.776394 
L 382.820671 208.189754 
L 383.225385 224.791462 
L 383.427743 225.466499 
L 383.6301 219.960723 
L 384.034814 197.030537 
L 385.0466 121.320844 
L 385.451315 104.107383 
L 385.653672 103.6222 
L 385.856029 107.524761 
L 386.058386 115.393169 
L 387.070172 187.558915 
L 387.474887 228.926067 
L 387.879601 251.497639 
L 388.284316 260.927072 
L 388.68903 263.521748 
L 388.891387 257.594073 
L 389.700816 212.682973 
L 390.307888 201.122953 
L 390.914959 187.980814 
L 391.117316 192.917027 
L 391.926745 233.735711 
L 392.533817 279.321848 
L 392.938531 292.084279 
L 393.140888 294.003918 
L 393.343246 293.539829 
L 393.545603 294.025013 
L 393.74796 284.785434 
L 394.355032 242.321346 
L 395.569175 184.057157 
L 395.771532 177.855249 
L 395.973889 179.099849 
L 396.176247 187.685485 
L 396.783318 231.056655 
L 397.188033 270.799498 
L 397.592747 289.194274 
L 397.795104 292.063184 
L 397.997461 289.447413 
L 398.402176 270.736213 
L 400.628105 139.061678 
L 400.830462 141.993872 
L 401.03282 152.267102 
L 401.639891 211.121949 
L 402.044606 256.876846 
L 402.44932 277.845203 
L 402.651677 281.979809 
L 402.854034 280.27112 
L 403.258749 261.496635 
L 403.663463 232.174686 
L 404.877607 122.755299 
L 405.282321 101.575992 
L 405.484678 97.230437 
L 405.687035 98.348468 
L 405.889393 109.191261 
L 406.294107 147.752788 
L 406.901179 227.639277 
L 407.305893 252.468006 
L 407.50825 258.248016 
L 407.710607 257.699548 
L 408.115322 235.781919 
L 409.73418 99.276645 
L 409.936537 94.192767 
L 410.138894 94.045103 
L 410.341251 98.791462 
L 410.948323 136.045103 
L 411.15068 152.456956 
L 411.757752 225.29774 
L 412.162466 250.126469 
L 412.364823 256.813561 
L 412.56718 258.64882 
L 412.971895 240.021999 
L 414.388395 138.808538 
L 414.79311 124.843697 
L 415.197824 117.96675 
L 415.400181 124.949171 
L 416.20961 189.478553 
L 416.614325 236.140532 
L 417.019039 259.93561 
L 417.221396 264.323355 
L 417.423753 263.753792 
L 417.828468 247.0888 
L 419.244968 146.276143 
L 419.649683 132.248016 
L 419.85204 128.303265 
L 420.054397 129.77991 
L 420.256754 138.703064 
L 421.066183 205.974787 
L 421.673255 262.720141 
L 422.077969 279.279658 
L 422.280326 281.832145 
L 422.482684 281.157107 
L 422.685041 280.988348 
L 423.089755 249.324862 
L 423.899184 178.234957 
L 424.708613 137.774887 
L 424.91097 134.505173 
L 425.113327 138.618684 
L 425.518042 165.493621 
L 425.720399 177.623204 
L 426.529828 254.345455 
L 426.934542 273.436364 
L 427.136899 278.035058 
L 427.339257 278.85776 
L 427.541614 279.089804 
L 427.743971 270.25103 
L 428.148685 228.778403 
L 428.755757 165.177197 
L 429.160471 138.829633 
L 429.565186 130.349473 
L 429.9699 134.378604 
L 430.374615 151.043596 
L 430.576972 163.00442 
L 431.386401 241.076745 
L 431.791115 253.649322 
L 431.993472 251.560924 
L 432.398187 230.698041 
L 433.207616 163.827122 
L 434.017044 91.534807 
L 434.219402 86.514214 
L 435.02883 114.675942 
L 435.433545 140.348468 
L 436.040617 213.484581 
L 436.445331 236.625716 
L 436.647688 241.899448 
L 436.850045 241.203315 
L 437.25476 220.045103 
L 437.659474 184.183727 
L 438.468903 108.727172 
L 438.67126 98.728177 
L 438.873617 99.719638 
L 439.075975 107.018483 
L 439.278332 106.554395 
L 439.480689 108.853742 
L 439.885403 127.902461 
L 440.290118 153.321848 
L 440.897189 228.715118 
L 441.301904 251.624209 
L 441.504261 257.19327 
L 441.706618 257.741738 
L 442.111333 242.616675 
L 442.920762 189.204319 
L 443.527833 153.406228 
L 444.134905 130.054144 
L 444.337262 127.396183 
L 444.539619 133.9778 
L 445.146691 180.238975 
L 445.753762 251.265595 
L 446.158477 273.03556 
L 446.360834 278.119437 
L 446.563191 276.07323 
L 446.967906 256.665897 
L 448.586763 143.955701 
L 448.991478 130.412757 
L 449.193835 128.029031 
L 449.396192 134.863787 
L 450.003264 176.315319 
L 450.812693 258.48006 
L 451.217407 272.128478 
L 451.419764 272.255048 
L 451.824479 254.619689 
L 452.43155 202.873832 
L 453.038622 159.861276 
L 453.443336 142.373581 
L 453.848051 134.294224 
L 454.050408 137.753792 
L 454.252765 148.005927 
L 454.65748 177.159116 
L 454.859837 185.829131 
L 455.669266 252.257057 
L 456.07398 266.158614 
L 456.276337 267.719638 
L 456.478694 265.67343 
L 456.681052 262.488096 
L 456.883409 254.28217 
L 457.288123 226.563435 
L 457.692838 215.319839 
L 457.895195 216.037067 
L 458.299909 221.943646 
L 458.502267 221.795982 
L 458.906981 217.872325 
L 459.109338 218.420794 
L 459.514053 222.681969 
L 459.71641 227.090809 
L 460.728196 286.304269 
L 461.13291 290.839679 
L 461.537625 287.443395 
L 461.739982 278.288197 
L 462.144696 242.890909 
L 463.561197 171.927574 
L 463.763554 164.481065 
L 463.965911 165.683476 
L 464.572983 185.660372 
L 465.382412 254.366549 
L 465.584769 261.454445 
L 465.787126 264.238975 
L 465.989483 261.749774 
L 467.608341 166.822602 
L 468.620127 145.094827 
L 468.822484 148.301256 
L 469.429556 175.218383 
L 470.036627 233.398192 
L 470.441342 251.645304 
L 470.643699 254.345455 
L 470.846056 251.708589 
L 471.857842 199.477549 
L 472.869628 168.446911 
L 473.071985 168.953189 
L 473.274343 167.117931 
L 473.4767 168.404721 
L 473.679057 172.286188 
L 473.881414 179.036565 
L 474.083772 180.21788 
L 474.286129 188.086288 
L 474.8932 241.540834 
L 475.297915 258.205826 
L 475.500272 259.914515 
L 475.702629 257.826118 
L 476.107344 232.828629 
L 476.512058 210.257057 
L 477.321487 177.960723 
L 477.726201 157.287695 
L 477.928558 153.638272 
L 478.333273 158.447916 
L 478.53563 163.025515 
L 479.142702 188.592567 
L 479.952131 258.100352 
L 480.356845 268.204822 
L 480.559202 267.782923 
L 480.963917 245.126971 
L 482.785131 113.452436 
L 482.987489 107.398192 
L 483.189846 104.698041 
L 483.392203 110.478051 
L 483.999275 151.36002 
L 484.606346 224.285183 
L 485.011061 248.101356 
L 485.213418 252.615671 
L 485.415775 253.586037 
L 485.82049 233.313812 
L 486.225204 201.312808 
L 487.23699 109.043596 
L 487.439347 105.879357 
L 487.844062 112.608639 
L 488.248776 131.699548 
L 489.260562 211.206328 
L 489.665277 244.1777 
L 490.069991 259.661376 
L 490.272348 262.066198 
L 490.474705 260.905977 
L 490.677063 259.091813 
L 490.87942 249.113913 
L 491.891206 167.37107 
L 492.29592 149.208338 
L 492.498277 141.635259 
L 492.700635 139.567956 
L 492.902992 141.234455 
L 493.105349 146.170668 
L 493.712421 180.534304 
L 494.52185 254.345455 
L 495.128921 273.07775 
L 495.331278 273.225414 
L 495.533636 272.592567 
L 495.735993 264.850728 
L 496.950136 171.041587 
L 497.557208 146.065193 
L 497.759565 142.62672 
L 497.961922 145.917529 
L 498.568994 178.213862 
L 499.378422 253.881366 
L 499.58078 260.884882 
L 499.783137 263.437368 
L 499.985494 260.041085 
L 500.187851 251.307785 
L 500.794923 213.463486 
L 500.99728 208.231944 
L 501.401995 194.81557 
L 501.806709 183.276645 
L 502.009066 182.812557 
L 502.211423 184.922049 
L 502.413781 185.575992 
L 502.616138 183.867303 
L 503.020852 193.824108 
L 503.223209 194.393672 
L 503.425567 202.09332 
L 504.032638 254.050126 
L 504.437353 267.445404 
L 504.63971 269.111904 
L 504.842067 266.685987 
L 505.246782 241.709593 
L 505.651496 217.302762 
L 507.270354 142.331391 
L 507.472711 139.146057 
L 507.675068 142.62672 
L 508.28214 171.358011 
L 508.889211 230.824611 
L 509.293926 248.37559 
L 509.496283 251.982823 
L 509.69864 250.105374 
L 510.103354 225.972777 
L 511.722212 116.954194 
L 512.126927 98.749272 
L 512.329284 100.373581 
L 512.936355 135.602109 
L 513.34107 175.513712 
L 513.745784 220.066198 
L 514.150499 243.354997 
L 514.352856 249.071723 
L 514.555213 249.578001 
L 514.75757 240.464992 
L 516.174071 141.29774 
L 516.376428 140.179709 
L 516.781142 149.735711 
L 516.9835 146.930085 
L 517.185857 147.478553 
L 517.590571 165.620191 
L 517.792928 169.965746 
L 517.995286 180.935108 
L 518.4 221.585033 
L 518.4 221.585033 
" clip-path="url(#pe84700f05b)" style="fill: none; stroke: #1f77b4; stroke-width: 1.5; stroke-linecap: square"/>
   </g>
   <g id="line2d_14">
    <path d="M 72 258.327895 
L 72.202357 258.327895 
L 72.404714 260.206136 
L 72.607072 263.812149 
L 72.809429 264.974958 
L 73.011786 262.053755 
L 74.428286 201.849869 
L 74.833001 175.660898 
L 75.035358 167.505774 
L 75.237715 164.858852 
L 75.440073 165.466762 
L 75.64243 167.024974 
L 76.249501 195.35529 
L 76.856573 253.400056 
L 77.261287 269.433397 
L 77.463645 269.592643 
L 77.868359 245.626458 
L 78.070716 232.218991 
L 79.082502 205.913986 
L 79.689574 165.143023 
L 79.891931 159.961942 
L 80.094288 160.351662 
L 80.499003 169.95253 
L 80.903717 195.413145 
L 81.510789 255.388799 
L 81.915503 275.165685 
L 82.11786 278.302089 
L 82.320218 275.856672 
L 82.927289 256.269961 
L 83.129646 254.037967 
L 83.939075 225.409916 
L 84.141432 224.578919 
L 84.34379 223.0464 
L 84.546147 225.365764 
L 84.950861 238.417894 
L 85.355576 245.304283 
L 85.76029 253.80937 
L 85.962647 257.509708 
L 86.772076 288.728366 
L 86.974433 290.039649 
L 87.176791 288.448091 
L 87.783862 273.274449 
L 88.593291 238.259286 
L 88.795648 237.638858 
L 89.40272 247.386018 
L 89.605077 246.519834 
L 89.807434 243.652911 
L 90.009791 238.648022 
L 90.212149 236.560965 
L 90.414506 236.834592 
L 90.616863 238.833635 
L 90.81922 246.630647 
L 91.426292 284.07804 
L 91.628649 288.338057 
L 91.831006 289.34369 
L 92.033364 286.545372 
L 92.235721 279.912243 
L 93.247507 231.274616 
L 93.652221 236.438372 
L 93.854578 236.321379 
L 94.056936 235.138438 
L 94.259293 232.504311 
L 95.068722 229.321552 
L 95.271079 229.409285 
L 95.473436 234.952668 
L 95.87815 261.329653 
L 96.080508 275.24518 
L 96.282865 280.540434 
L 96.485222 281.236726 
L 96.687579 280.689401 
L 96.889937 279.048542 
L 97.092294 271.682404 
L 97.497008 249.705645 
L 97.901723 238.574903 
L 98.306437 233.027048 
L 98.508794 233.342468 
L 98.711151 235.184922 
L 99.115866 229.655134 
L 99.52058 232.390663 
L 99.722937 231.86269 
L 99.925295 230.504021 
L 100.127652 233.431853 
L 100.532366 250.124981 
L 101.139438 283.323732 
L 101.341795 287.03158 
L 101.544152 287.21165 
L 101.74651 283.488603 
L 102.555938 246.8844 
L 102.960653 239.769337 
L 103.16301 238.237605 
L 103.365367 238.872056 
L 103.567724 238.888185 
L 103.972439 227.973935 
L 104.174796 227.224212 
L 104.377153 227.87123 
L 104.57951 225.581226 
L 104.781868 224.909112 
L 104.984225 229.663208 
L 105.388939 249.166035 
L 105.996011 282.906741 
L 106.198368 286.448256 
L 106.400725 287.276715 
L 106.603083 284.062828 
L 107.614869 242.195964 
L 108.019583 237.809397 
L 108.22194 236.236085 
L 108.424297 232.072222 
L 108.829012 209.438771 
L 109.031369 206.031197 
L 109.436083 211.21215 
L 109.638441 215.444545 
L 109.840798 222.809146 
L 111.054941 285.856628 
L 111.257298 285.854231 
L 111.662013 274.116364 
L 112.269084 247.671599 
L 112.673799 236.172671 
L 113.685585 191.169102 
L 113.887942 186.035724 
L 114.090299 184.044581 
L 114.292656 184.602767 
L 114.697371 201.144798 
L 115.102085 228.794784 
L 115.5068 262.603473 
L 115.911514 279.978576 
L 116.113871 282.203874 
L 116.316228 281.844194 
L 116.9233 259.926495 
L 117.328015 248.718274 
L 117.732729 222.359669 
L 118.542158 163.925037 
L 118.946872 147.9188 
L 119.149229 149.091432 
L 119.351587 155.416409 
L 119.958658 200.35248 
L 120.56573 258.413182 
L 120.970444 273.563356 
L 121.172801 274.266844 
L 121.375159 271.948338 
L 121.779873 259.915276 
L 122.791659 215.209681 
L 123.601088 186.399258 
L 123.803445 184.902336 
L 124.005802 189.093976 
L 124.815231 232.765706 
L 125.422303 278.044421 
L 125.62466 283.434073 
L 125.827017 284.852789 
L 126.029374 283.16241 
L 126.231732 278.594232 
L 126.434089 269.594565 
L 127.04116 227.942569 
L 127.648232 200.547971 
L 128.457661 152.551082 
L 128.660018 149.024958 
L 128.862375 150.406816 
L 129.26709 177.468532 
L 129.671804 225.403723 
L 130.076519 275.286638 
L 130.278876 282.317304 
L 130.481233 282.1775 
L 130.885947 275.996707 
L 131.290662 251.841119 
L 131.695376 232.127538 
L 132.100091 216.031462 
L 132.504805 193.070449 
L 133.111877 144.703158 
L 133.314234 138.402425 
L 133.516591 137.762303 
L 133.718948 142.113861 
L 134.123663 164.352229 
L 134.528377 196.026895 
L 134.933092 244.474149 
L 135.337806 267.677179 
L 135.540163 270.538972 
L 135.74252 267.888987 
L 136.147235 244.969125 
L 136.754306 213.232391 
L 137.159021 203.722641 
L 137.361378 201.209506 
L 137.766092 188.206793 
L 137.96845 187.832019 
L 138.170807 189.222137 
L 138.373164 193.295381 
L 138.575521 192.64476 
L 138.777879 196.478978 
L 139.38495 224.970466 
L 139.789665 264.604961 
L 139.992022 274.416439 
L 140.194379 278.644904 
L 140.396736 280.337654 
L 140.599093 278.034642 
L 140.801451 270.165022 
L 141.813237 210.989391 
L 142.217951 206.953156 
L 142.420308 207.294646 
L 142.622665 204.7325 
L 142.825023 199.696216 
L 143.02738 201.837652 
L 143.229737 205.634757 
L 143.432094 205.623292 
L 143.836809 218.303479 
L 144.039166 226.683506 
L 144.848595 284.62475 
L 145.050952 289.284046 
L 145.253309 289.908047 
L 145.455666 286.807385 
L 145.860381 264.080538 
L 146.467452 226.525254 
L 146.872167 216.49817 
L 147.074524 214.697911 
L 147.276881 215.873975 
L 147.681596 207.300731 
L 149.098096 254.63459 
L 149.705168 284.576961 
L 149.907525 286.475937 
L 150.109882 287.072474 
L 150.312239 284.766669 
L 152.133454 228.356632 
L 152.335811 229.136068 
L 153.14524 246.346978 
L 153.347597 245.587948 
L 153.549955 246.08913 
L 154.157026 258.2956 
L 154.764098 281.425178 
L 154.966455 285.5285 
L 155.168812 285.834034 
L 155.37117 283.608826 
L 155.978241 265.879284 
L 156.585313 224.307068 
L 156.990027 193.262986 
L 157.799456 163.64439 
L 158.001813 161.092347 
L 158.20417 166.597558 
L 158.811242 199.160306 
L 159.418314 264.20636 
L 159.620671 272.316426 
L 159.823028 275.197019 
L 160.025385 274.115358 
L 160.227743 268.191081 
L 160.632457 241.399877 
L 161.037171 218.047983 
L 161.8466 182.600081 
L 162.251315 171.886339 
L 162.453672 168.593663 
L 162.656029 171.156733 
L 162.858386 176.539687 
L 163.465458 211.708811 
L 163.667815 224.857382 
L 164.072529 267.581146 
L 164.274887 276.616401 
L 164.477244 279.832787 
L 164.679601 279.2134 
L 164.881958 278.215175 
L 165.084316 270.943513 
L 165.893744 223.88596 
L 166.298459 217.049535 
L 166.500816 214.023609 
L 166.90553 189.779593 
L 167.310245 168.435984 
L 167.512602 167.85978 
L 167.714959 172.986461 
L 168.119674 196.460453 
L 168.524388 226.340494 
L 168.929102 266.71838 
L 169.13146 278.994306 
L 169.333817 283.337303 
L 169.536174 283.170881 
L 169.738531 278.100027 
L 170.54796 232.027106 
L 171.357389 180.200066 
L 171.762103 160.835422 
L 172.166818 153.994031 
L 172.369175 152.594975 
L 172.571532 156.107152 
L 172.773889 163.298832 
L 173.380961 208.755334 
L 173.785675 259.836915 
L 174.19039 279.932235 
L 174.392747 283.050659 
L 174.595104 279.222166 
L 174.797461 269.721092 
L 175.404533 227.804837 
L 176.011605 210.201425 
L 176.618676 178.844265 
L 177.023391 170.457609 
L 177.225748 166.095779 
L 177.428105 167.608496 
L 177.630462 174.641783 
L 178.035177 199.99148 
L 178.844606 277.34818 
L 179.046963 282.755851 
L 179.24932 281.98892 
L 179.451677 280.107551 
L 179.654034 272.056565 
L 180.261106 235.212489 
L 180.868178 208.753648 
L 181.677607 160.794585 
L 182.082321 151.897234 
L 182.284678 154.365566 
L 182.487035 158.742188 
L 182.89175 188.189963 
L 183.296464 228.385048 
L 183.701179 259.738908 
L 184.105893 267.283595 
L 184.30825 267.154376 
L 184.712965 254.416793 
L 185.117679 239.899085 
L 185.522393 210.644774 
L 186.129465 151.881523 
L 186.331822 144.081426 
L 186.53418 142.981548 
L 186.736537 143.693859 
L 186.938894 148.595036 
L 187.141251 157.226536 
L 188.557752 252.011835 
L 188.760109 261.157912 
L 188.962466 264.78252 
L 189.164823 265.172112 
L 189.36718 265.012751 
L 189.569538 260.574057 
L 189.771895 252.019396 
L 190.176609 223.574505 
L 190.378966 216.728941 
L 191.188395 149.398133 
L 191.390752 146.158679 
L 191.795467 153.861609 
L 192.807253 211.223039 
L 193.414325 261.971476 
L 193.616682 267.592974 
L 193.819039 269.781876 
L 194.021396 270.189326 
L 194.223753 268.845767 
L 194.628468 253.517843 
L 195.842611 180.953778 
L 196.044968 180.281268 
L 197.259112 217.065148 
L 197.461469 220.858357 
L 197.866183 249.468888 
L 198.270898 278.583902 
L 198.473255 284.170414 
L 198.675612 285.650208 
L 198.877969 284.506616 
L 199.080326 277.217897 
L 199.485041 248.51138 
L 199.889755 213.141817 
L 201.306256 162.942753 
L 201.508613 160.706293 
L 201.71097 162.544883 
L 201.913327 168.845344 
L 202.520399 206.503139 
L 203.127471 272.299278 
L 203.329828 276.873903 
L 203.532185 276.722321 
L 203.734542 272.513118 
L 203.936899 262.772189 
L 204.543971 221.966906 
L 204.948685 202.676855 
L 205.151043 197.456079 
L 205.758114 169.101154 
L 205.960471 165.795685 
L 206.162829 166.749883 
L 206.365186 170.040823 
L 206.7699 182.222427 
L 207.376972 209.009158 
L 207.781686 255.704932 
L 207.984044 268.92762 
L 208.186401 274.750847 
L 208.388758 275.23453 
L 208.591115 273.010616 
L 208.793472 264.146525 
L 209.602901 207.969586 
L 210.007616 194.443344 
L 211.221759 135.715922 
L 211.424116 137.050273 
L 211.82883 162.721699 
L 212.233545 193.376733 
L 212.840617 262.553954 
L 213.042974 269.689438 
L 213.245331 271.371102 
L 213.447688 266.409411 
L 214.864189 177.273234 
L 215.47126 130.349183 
L 215.673617 120.748225 
L 216.078332 116.11001 
L 216.280689 119.723472 
L 216.483046 127.895615 
L 216.887761 158.784171 
L 217.899547 252.29616 
L 218.101904 258.275326 
L 218.304261 259.133661 
L 218.506618 253.481351 
L 218.911333 234.296813 
L 219.316047 217.047473 
L 219.720762 186.547665 
L 220.125476 156.014522 
L 220.327833 148.82428 
L 220.53019 147.882558 
L 220.934905 159.381675 
L 221.541976 197.724684 
L 221.946691 221.017611 
L 222.351405 244.08085 
L 222.75612 266.339886 
L 222.958477 267.182045 
L 223.160834 265.930995 
L 223.565549 260.929908 
L 223.767906 254.115542 
L 224.374977 222.5807 
L 224.779692 205.081703 
L 224.982049 205.675071 
L 226.600907 238.171586 
L 226.803264 246.790325 
L 227.410335 290.108327 
L 227.612693 294.124426 
L 227.81505 293.696555 
L 228.017407 292.264883 
L 228.219764 285.403189 
L 228.624479 258.39881 
L 229.029193 233.063865 
L 229.23155 228.731489 
L 229.636265 230.607751 
L 229.838622 224.892391 
L 230.648051 193.476034 
L 230.850408 192.390791 
L 231.052765 194.417116 
L 231.255122 200.856288 
L 231.45748 211.016594 
L 232.266908 284.191983 
L 232.469266 287.37078 
L 232.671623 287.706624 
L 232.87398 284.598709 
L 233.076337 277.212848 
L 233.683409 242.517268 
L 234.088123 231.817339 
L 234.492838 213.544946 
L 235.504624 186.165125 
L 235.706981 186.733176 
L 236.111695 202.085998 
L 236.51641 228.94627 
L 236.921124 265.367176 
L 237.325839 282.489622 
L 237.528196 283.558589 
L 237.730553 281.715731 
L 237.93291 274.407725 
L 238.539982 241.745412 
L 239.349411 210.432411 
L 239.551768 205.534277 
L 239.956482 192.09408 
L 240.15884 192.956926 
L 240.563554 197.508227 
L 240.765911 201.288187 
L 241.170626 224.853223 
L 241.777697 273.982602 
L 242.182412 286.850035 
L 242.384769 287.830934 
L 242.587126 286.184282 
L 242.99184 267.175041 
L 243.396555 244.982107 
L 244.610698 194.934406 
L 244.813055 186.570922 
L 245.015413 183.482544 
L 245.21777 182.601144 
L 245.420127 184.017217 
L 245.622484 189.499228 
L 246.027199 209.403348 
L 246.836627 277.642885 
L 247.038985 283.755615 
L 247.241342 286.4805 
L 247.443699 284.748471 
L 247.848413 264.36112 
L 249.062557 190.454006 
L 249.467271 155.939205 
L 249.669628 145.93897 
L 249.871985 142.262943 
L 250.074343 144.678244 
L 250.479057 158.50701 
L 251.086129 199.82295 
L 251.6932 256.809965 
L 251.895558 264.534014 
L 252.097915 266.682439 
L 252.300272 265.811477 
L 252.704986 253.393366 
L 253.109701 239.015321 
L 253.716772 195.52173 
L 254.121487 151.679973 
L 254.323844 143.129105 
L 254.526201 141.375405 
L 254.930916 144.388165 
L 255.133273 148.014737 
L 255.537987 170.572202 
L 256.752131 266.315434 
L 256.954488 269.499275 
L 257.156845 269.892263 
L 257.359202 267.596165 
L 257.763917 253.689507 
L 258.168631 227.741508 
L 258.370988 222.351274 
L 259.180417 168.478516 
L 259.382774 162.893721 
L 259.787489 158.330541 
L 259.989846 161.465202 
L 260.596917 193.372844 
L 261.001632 229.171194 
L 261.406346 267.576776 
L 261.608704 273.644869 
L 261.811061 274.581362 
L 262.013418 273.88762 
L 262.215775 270.163804 
L 262.418132 261.627873 
L 263.025204 218.28974 
L 263.227561 218.645488 
L 263.429918 215.854334 
L 263.632276 216.488806 
L 264.03699 222.296718 
L 264.239347 222.445833 
L 264.441704 223.762447 
L 264.846419 228.512294 
L 265.048776 230.460961 
L 265.45349 239.275883 
L 266.262919 286.171928 
L 266.465277 287.711711 
L 266.667634 287.170589 
L 266.869991 286.19902 
L 267.072348 279.583192 
L 267.67942 246.088925 
L 268.084134 231.721555 
L 269.09592 209.171637 
L 269.298277 208.36277 
L 270.107706 225.854629 
L 270.512421 243.68313 
L 271.119492 279.644091 
L 271.32185 285.22285 
L 271.524207 285.681465 
L 271.726564 282.954863 
L 272.131278 264.503565 
L 272.535993 243.680343 
L 273.143064 213.778159 
L 274.15485 155.86779 
L 274.357208 151.896606 
L 274.559565 150.345353 
L 274.761922 153.176684 
L 275.166636 171.811228 
L 275.571351 202.03206 
L 275.976065 246.007198 
L 276.178422 256.799424 
L 276.38078 260.074021 
L 276.583137 259.666552 
L 276.785494 251.996738 
L 277.190209 226.380052 
L 277.392566 219.828733 
L 277.999637 175.165678 
L 278.404352 151.017232 
L 278.809066 141.358873 
L 279.011423 142.472682 
L 279.213781 140.898527 
L 279.416138 142.904642 
L 279.820852 157.928275 
L 280.427924 213.177811 
L 280.832638 263.221334 
L 281.034995 271.153392 
L 281.237353 271.768165 
L 281.43971 269.823194 
L 281.642067 262.671421 
L 283.058568 184.68725 
L 283.665639 159.396368 
L 283.867996 156.454235 
L 284.070354 151.699183 
L 284.272711 153.045504 
L 284.475068 159.702415 
L 284.879782 192.078311 
L 285.689211 272.389275 
L 285.891568 278.593399 
L 286.296283 276.681222 
L 286.700997 262.868741 
L 287.510426 225.071049 
L 288.522212 164.803976 
L 288.926927 154.465886 
L 289.129284 156.287864 
L 289.533998 177.989483 
L 289.938713 206.124831 
L 290.545784 259.250637 
L 290.950499 271.93815 
L 291.152856 273.194596 
L 291.355213 271.522197 
L 291.55757 265.158386 
L 291.962285 243.150688 
L 292.569356 195.933671 
L 293.176428 145.201361 
L 293.378785 136.73596 
L 293.7835 133.073633 
L 293.985857 135.912525 
L 294.390571 157.734831 
L 295.2 219.59459 
L 295.604714 254.127688 
L 296.009429 261.127809 
L 296.211786 259.062714 
L 296.414143 249.993558 
L 297.021215 196.017965 
L 297.830644 112.038061 
L 298.235358 95.982546 
L 298.640073 102.489852 
L 299.044787 119.121668 
L 299.449501 146.328139 
L 300.461287 237.05581 
L 300.663645 241.408246 
L 300.866002 241.626667 
L 301.068359 237.345844 
L 301.675431 199.841145 
L 302.687217 87.505111 
L 302.889574 83.986446 
L 303.091931 86.203965 
L 303.90136 137.075122 
L 305.115503 235.851312 
L 305.520218 246.333939 
L 305.722575 246.250135 
L 306.127289 232.369867 
L 307.54379 137.307211 
L 307.948504 126.243568 
L 308.150861 126.34044 
L 308.353218 133.912228 
L 309.567362 218.664107 
L 309.972076 252.376324 
L 310.174433 258.604627 
L 310.376791 257.754049 
L 310.579148 254.914586 
L 311.186219 227.308392 
L 311.590934 198.247018 
L 312.198005 149.999334 
L 312.60272 127.704639 
L 312.805077 125.336281 
L 313.007434 126.388357 
L 313.209791 128.618038 
L 313.412149 134.277893 
L 313.816863 161.113659 
L 314.423935 211.954662 
L 314.828649 243.506042 
L 315.031006 253.954089 
L 315.233364 256.388242 
L 315.435721 254.189658 
L 315.638078 246.262957 
L 316.042792 221.664818 
L 317.256936 172.573046 
L 317.459293 168.594848 
L 317.66165 166.886957 
L 318.268722 176.062341 
L 318.471079 181.646799 
L 319.07815 212.789913 
L 319.685222 263.388667 
L 319.887579 268.488516 
L 320.089937 270.203725 
L 320.292294 269.044075 
L 320.697008 252.840518 
L 321.708794 205.533364 
L 322.315866 168.231131 
L 322.72058 154.435372 
L 322.922937 149.320573 
L 323.125295 148.442608 
L 323.327652 154.054879 
L 323.934723 192.182882 
L 324.744152 267.179136 
L 324.94651 271.741323 
L 325.148867 270.627944 
L 325.351224 267.772475 
L 325.755938 252.823223 
L 326.160653 227.504682 
L 326.36301 215.277816 
L 327.172439 132.764625 
L 327.374796 125.212163 
L 327.577153 126.52078 
L 327.77951 128.745258 
L 327.981868 132.225143 
L 328.588939 169.258673 
L 329.398368 253.374636 
L 329.600725 262.44911 
L 329.803083 264.889312 
L 330.00544 264.573281 
L 330.207797 260.883269 
L 330.410154 252.295644 
L 331.624297 154.960023 
L 332.029012 137.940246 
L 332.231369 134.766062 
L 332.433726 136.735088 
L 332.838441 147.749776 
L 333.040798 156.443047 
L 333.647869 203.994689 
L 334.254941 262.468526 
L 334.457298 269.13311 
L 334.659655 268.640232 
L 334.862013 267.487746 
L 335.06437 263.225794 
L 335.873799 217.199972 
L 336.885585 174.242939 
L 337.087942 172.189212 
L 337.290299 174.77764 
L 337.492656 175.761795 
L 338.302085 204.751044 
L 338.504442 215.558011 
L 339.111514 270.291639 
L 339.313871 276.044932 
L 339.516228 277.00853 
L 339.718586 274.854217 
L 340.1233 251.414981 
L 340.528015 226.182546 
L 341.944515 156.684901 
L 342.551587 146.924406 
L 342.753944 150.571226 
L 342.956301 157.912896 
L 343.563373 204.178646 
L 343.968087 251.155451 
L 344.170444 261.280775 
L 344.372801 262.73357 
L 344.575159 260.376044 
L 344.979873 237.325509 
L 345.384587 216.71289 
L 345.991659 146.763764 
L 346.396374 115.683856 
L 346.598731 109.753978 
L 346.801088 109.419686 
L 347.003445 113.605975 
L 347.205802 115.342951 
L 347.40816 119.658843 
L 347.812874 137.672556 
L 348.622303 212.472419 
L 349.027017 249.27778 
L 349.229374 253.678306 
L 349.431732 254.730838 
L 349.634089 248.680174 
L 350.24116 209.916329 
L 350.645875 169.01001 
L 351.050589 129.333041 
L 351.455304 110.986459 
L 351.657661 108.240287 
L 352.264733 117.444656 
L 352.669447 140.91165 
L 353.88359 256.489597 
L 354.085947 259.255706 
L 354.288305 258.717009 
L 354.490662 254.554342 
L 354.895376 237.89555 
L 355.300091 217.520131 
L 356.109519 133.949842 
L 356.514234 123.152966 
L 356.716591 123.691077 
L 356.918948 122.832245 
L 357.121306 125.595244 
L 357.323663 133.971423 
L 357.728377 168.246991 
L 358.740163 247.09839 
L 358.94252 254.493843 
L 359.144878 257.295042 
L 359.347235 256.161676 
L 359.549592 250.970562 
L 360.156664 214.120594 
L 360.966092 125.916208 
L 361.370807 112.801122 
L 361.573164 113.915405 
L 361.775521 114.097437 
L 361.977879 117.422178 
L 362.180236 125.977441 
L 362.58495 157.504229 
L 363.394379 224.812896 
L 363.596736 237.809356 
L 364.001451 246.439667 
L 364.203808 244.592365 
L 364.406165 236.554172 
L 366.025023 83.919767 
L 366.22738 83.678874 
L 366.632094 92.838542 
L 367.036809 112.818192 
L 367.441523 145.695065 
L 368.250952 217.069696 
L 368.655666 232.22978 
L 368.858024 234.209953 
L 369.060381 232.879714 
L 369.262738 223.690398 
L 370.072167 157.069879 
L 370.679238 100.493516 
L 370.881596 95.098134 
L 371.083953 93.612753 
L 371.488667 106.322125 
L 371.893382 132.219389 
L 372.905168 216.819427 
L 373.309882 230.842713 
L 373.714597 236.302066 
L 373.916954 235.323493 
L 374.119311 231.697868 
L 374.524025 213.075099 
L 374.92874 181.57095 
L 375.535811 127.376228 
L 375.738169 121.368727 
L 375.940526 118.910058 
L 376.34524 123.941453 
L 376.547597 131.541628 
L 376.952312 168.342152 
L 377.357026 203.464162 
L 377.964098 228.375595 
L 378.166455 235.245573 
L 378.368812 237.488414 
L 378.57117 238.368218 
L 378.773527 235.35557 
L 378.975884 228.675245 
L 379.582956 187.480733 
L 380.190027 133.890916 
L 380.594742 111.32261 
L 380.797099 106.958275 
L 380.999456 106.534709 
L 381.201813 107.742122 
L 381.40417 113.182602 
L 381.606528 122.262365 
L 383.023028 225.635367 
L 383.225385 230.750651 
L 383.427743 230.594298 
L 383.6301 227.655508 
L 384.237171 195.449495 
L 384.237171 195.449495 
" clip-path="url(#pe84700f05b)" style="fill: none; stroke: #ff7f0e; stroke-width: 1.5; stroke-linecap: square"/>
   </g>
   <g id="line2d_15">
    <path d="M 384.439529 182.00242 
L 385.0466 152.411149 
L 385.653672 132.499049 
L 386.058386 135.247989 
L 386.260743 141.228193 
L 386.867815 181.824108 
L 387.474887 227.091283 
L 387.677244 237.486174 
L 387.879601 239.824005 
L 388.486673 226.481556 
L 390.10553 146.500636 
L 390.510245 132.278699 
L 390.712602 128.633084 
L 391.117316 127.339576 
L 391.319674 128.792586 
L 391.724388 143.59395 
L 392.33146 185.564251 
L 392.533817 203.687597 
L 392.938531 214.102163 
L 393.343246 207.059636 
L 393.950317 182.009013 
L 395.366818 68.320112 
L 395.569175 64.855451 
L 395.973889 82.055981 
L 396.580961 135.617447 
L 397.39039 219.212375 
L 397.592747 228.496161 
L 397.795104 229.41848 
L 397.997461 227.707907 
L 398.402176 218.78635 
L 399.009248 194.255581 
L 400.021034 137.307736 
L 400.223391 128.194319 
L 400.425748 126.473516 
L 400.628105 126.353269 
L 400.830462 130.037869 
L 401.235177 149.789954 
L 402.044606 230.121305 
L 402.246963 240.61691 
L 402.44932 244.885735 
L 402.651677 242.913046 
L 402.854034 238.877932 
L 403.663463 202.705362 
L 404.472892 156.171685 
L 405.079964 139.216312 
L 405.484678 131.385317 
L 405.687035 130.115941 
L 405.889393 126.497994 
L 406.294107 136.193543 
L 406.698821 159.908226 
L 407.305893 203.832157 
L 407.50825 210.599603 
L 407.710607 210.882426 
L 407.912965 208.686701 
L 408.115322 201.548622 
L 408.924751 154.564539 
L 409.73418 79.507899 
L 410.138894 68.099147 
L 410.543608 83.745758 
L 411.15068 133.868169 
L 411.960109 214.966715 
L 412.162466 226.166043 
L 412.364823 228.208856 
L 412.56718 229.039713 
L 412.971895 219.866654 
L 413.174252 214.982273 
L 414.186038 160.878674 
L 414.590752 138.533604 
L 414.79311 126.794622 
L 415.197824 122.415895 
L 415.400181 125.557835 
L 415.804896 142.917726 
L 416.816682 238.371341 
L 417.019039 244.793745 
L 417.221396 245.272725 
L 417.423753 241.781584 
L 418.435539 194.256116 
L 418.637897 178.423003 
L 418.840254 171.780637 
L 419.244968 150.665484 
L 419.447325 140.860645 
L 420.459112 122.654546 
L 420.863826 132.034987 
L 421.470898 172.804391 
L 421.673255 195.493769 
L 422.077969 213.165199 
L 422.280326 213.319248 
L 422.482684 213.840682 
L 422.685041 207.126868 
L 422.887398 194.370613 
L 423.089755 189.553726 
L 424.303898 86.002813 
L 424.506256 80.369845 
L 424.708613 71.155992 
L 425.113327 82.640074 
L 425.720399 128.979628 
L 426.732185 225.308536 
L 427.136899 230.351492 
L 427.743971 217.057787 
L 428.351043 186.410856 
L 428.958114 146.948461 
L 429.160471 139.950474 
L 429.362829 125.963036 
L 429.565186 123.724602 
L 429.767543 119.413016 
L 429.9699 122.589033 
L 430.374615 136.151098 
L 431.386401 234.528985 
L 431.588758 242.809603 
L 431.791115 245.12508 
L 431.993472 243.496934 
L 433.005258 197.87359 
L 433.409973 173.536852 
L 433.814687 151.572938 
L 434.017044 139.609902 
L 434.624116 126.467621 
L 434.826473 126.540939 
L 435.02883 120.777688 
L 435.231188 126.704362 
L 435.433545 129.222379 
L 436.040617 171.345288 
L 436.242974 195.011432 
L 436.647688 214.98809 
L 436.850045 214.823734 
L 437.052403 216.924352 
L 437.25476 211.448354 
L 437.457117 198.311929 
L 437.659474 194.020532 
L 438.873617 92.505211 
L 439.278332 75.213139 
L 439.683046 81.849985 
L 440.290118 124.218256 
L 441.301904 223.782608 
L 441.706618 230.683767 
L 442.31369 218.724114 
L 442.920762 189.516032 
L 443.932548 126.606106 
L 444.134905 123.808185 
L 444.337262 117.667274 
L 444.539619 120.132556 
L 444.944334 130.749783 
L 445.349048 165.496052 
L 445.753762 213.907312 
L 446.158477 238.727683 
L 446.360834 243.110956 
L 446.563191 243.475929 
L 447.574977 201.328176 
L 448.182049 162.347703 
L 448.384406 153.909129 
L 448.586763 140.761299 
L 449.193835 125.580455 
L 449.396192 125.276227 
L 449.598549 119.430253 
L 449.800907 124.496468 
L 450.003264 125.954309 
L 450.610335 167.405428 
L 451.01505 204.758964 
L 451.217407 214.858361 
L 451.419764 215.967626 
L 451.622121 219.108693 
L 451.824479 214.526897 
L 452.836265 157.733094 
L 453.240979 119.42728 
L 453.645694 91.192044 
L 453.848051 80.369089 
L 454.050408 80.342227 
L 454.252765 80.746095 
L 454.859837 117.739989 
L 455.264551 153.968593 
L 455.669266 204.22586 
L 455.871623 219.31976 
L 456.276337 230.712171 
L 456.883409 220.341537 
L 457.490481 193.303836 
L 458.704624 124.838526 
L 458.906981 116.80397 
L 459.311695 120.231709 
L 459.514053 126.07985 
L 459.918767 154.680635 
L 460.525839 223.637414 
L 460.930553 241.093096 
L 461.13291 242.909083 
L 461.942339 215.907663 
L 462.954125 157.714461 
L 463.156482 143.500755 
L 463.763554 126.570581 
L 463.965911 124.1175 
L 464.168268 119.452039 
L 464.370626 122.341053 
L 464.572983 122.890107 
L 465.180054 162.563203 
L 465.787126 213.879148 
L 466.19184 220.75247 
L 466.394198 217.690385 
L 466.798912 202.385873 
L 467.608341 152.767497 
L 468.013055 112.130602 
L 468.41777 86.717482 
L 468.822484 80.131438 
L 469.429556 111.989388 
L 469.83427 145.290736 
L 470.441342 214.190207 
L 470.846056 229.525522 
L 471.250771 226.252118 
L 471.655485 215.692232 
L 472.262557 186.261732 
L 473.071985 133.00143 
L 473.4767 115.9466 
L 473.679057 117.805195 
L 473.881414 115.419267 
L 474.286129 130.702917 
L 474.488486 145.374024 
L 475.297915 226.647536 
L 475.500272 237.804268 
L 475.702629 241.645012 
L 476.107344 234.858294 
L 476.714415 208.320354 
L 477.11913 185.215823 
L 477.726201 147.693567 
L 478.333273 128.29619 
L 478.737987 120.531246 
L 478.940345 121.1884 
L 479.142702 121.044238 
L 479.749773 158.29285 
L 480.559202 217.518458 
L 480.761559 221.904895 
L 481.166274 216.044488 
L 481.773345 188.882914 
L 482.785131 102.680918 
L 483.189846 86.303772 
L 483.392203 81.366955 
L 483.796917 92.703262 
L 484.403989 137.343799 
L 485.213418 217.706915 
L 485.415775 228.754854 
L 485.82049 227.51793 
L 486.225204 218.571671 
L 486.832276 191.450187 
L 487.641704 136.110665 
L 488.046419 116.116123 
L 488.248776 117.070353 
L 488.451133 112.150171 
L 488.855848 124.303248 
L 489.058205 136.727796 
L 490.069991 234.00808 
L 490.272348 239.952968 
L 490.474705 239.4911 
L 490.677063 236.937305 
L 491.688849 191.278825 
L 492.29592 152.458349 
L 492.902992 129.727426 
L 493.307706 121.048301 
L 493.510063 121.201664 
L 493.712421 119.387487 
L 494.117135 135.05213 
L 495.128921 216.61054 
L 495.331278 222.855612 
L 495.533636 220.914391 
L 495.735993 220.447661 
L 496.343064 195.179969 
L 496.545422 176.605821 
L 496.747779 169.242266 
L 497.35485 111.020151 
L 497.759565 91.491055 
L 497.961922 83.439839 
L 498.366636 89.926281 
L 498.973708 129.608203 
L 499.985494 225.753776 
L 500.187851 226.565107 
L 500.390209 228.261441 
L 500.794923 221.146536 
L 501.401995 195.900806 
L 502.616138 117.528931 
L 502.818495 116.817388 
L 503.020852 110.132279 
L 503.425567 119.125923 
L 503.627924 128.406544 
L 504.032638 165.042869 
L 504.437353 213.211199 
L 504.842067 237.019247 
L 505.044424 239.551916 
L 505.246782 238.869644 
L 506.05621 208.788023 
L 506.663282 172.684336 
L 507.270354 135.701069 
L 507.877425 121.131038 
L 508.079782 121.446671 
L 508.28214 117.834517 
L 508.686854 129.860066 
L 509.69864 214.55355 
L 509.900997 222.357478 
L 510.103354 222.479517 
L 510.305712 224.133357 
L 510.912783 200.79723 
L 512.126927 106.670694 
L 512.531641 87.543878 
L 512.733998 88.166609 
L 512.936355 88.134904 
L 513.543427 121.873568 
L 513.948141 158.471742 
L 514.352856 207.445348 
L 514.555213 221.02085 
L 514.959927 228.928727 
L 515.364642 223.186768 
L 515.566999 217.347639 
L 516.174071 189.103735 
L 517.185857 121.076303 
L 517.388214 117.417679 
L 517.590571 109.964768 
L 517.995286 114.665958 
L 518.197643 121.736711 
L 518.4 136.49927 
L 518.4 136.49927 
" clip-path="url(#pe84700f05b)" style="fill: none; stroke: #2ca02c; stroke-width: 1.5; stroke-linecap: square"/>
   </g>
   <g id="patch_3">
    <path d="M 72 320.4 
L 72 43.2 
" style="fill: none; stroke: #000000; stroke-width: 0.8; stroke-linejoin: miter; stroke-linecap: square"/>
   </g>
   <g id="patch_4">
    <path d="M 518.4 320.4 
L 518.4 43.2 
" style="fill: none; stroke: #000000; stroke-width: 0.8; stroke-linejoin: miter; stroke-linecap: square"/>
   </g>
   <g id="patch_5">
    <path d="M 72 320.4 
L 518.4 320.4 
" style="fill: none; stroke: #000000; stroke-width: 0.8; stroke-linejoin: miter; stroke-linecap: square"/>
   </g>
   <g id="patch_6">
    <path d="M 72 43.2 
L 518.4 43.2 
" style="fill: none; stroke: #000000; stroke-width: 0.8; stroke-linejoin: miter; stroke-linecap: square"/>
   </g>
   <g id="text_13">
    <!-- Classic Transformer - model_20231126182355 -->
    <g transform="translate(155.436563 37.2) scale(0.12 -0.12)">
     <defs>
      <path id="DejaVuSans-43" d="M 4122 4306 
L 4122 3641 
Q 3803 3938 3442 4084 
Q 3081 4231 2675 4231 
Q 1875 4231 1450 3742 
Q 1025 3253 1025 2328 
Q 1025 1406 1450 917 
Q 1875 428 2675 428 
Q 3081 428 3442 575 
Q 3803 722 4122 1019 
L 4122 359 
Q 3791 134 3420 21 
Q 3050 -91 2638 -91 
Q 1578 -91 968 557 
Q 359 1206 359 2328 
Q 359 3453 968 4101 
Q 1578 4750 2638 4750 
Q 3056 4750 3426 4639 
Q 3797 4528 4122 4306 
z
" transform="scale(0.015625)"/>
      <path id="DejaVuSans-6c" d="M 603 4863 
L 1178 4863 
L 1178 0 
L 603 0 
L 603 4863 
z
" transform="scale(0.015625)"/>
      <path id="DejaVuSans-61" d="M 2194 1759 
Q 1497 1759 1228 1600 
Q 959 1441 959 1056 
Q 959 750 1161 570 
Q 1363 391 1709 391 
Q 2188 391 2477 730 
Q 2766 1069 2766 1631 
L 2766 1759 
L 2194 1759 
z
M 3341 1997 
L 3341 0 
L 2766 0 
L 2766 531 
Q 2569 213 2275 61 
Q 1981 -91 1556 -91 
Q 1019 -91 701 211 
Q 384 513 384 1019 
Q 384 1609 779 1909 
Q 1175 2209 1959 2209 
L 2766 2209 
L 2766 2266 
Q 2766 2663 2505 2880 
Q 2244 3097 1772 3097 
Q 1472 3097 1187 3025 
Q 903 2953 641 2809 
L 641 3341 
Q 956 3463 1253 3523 
Q 1550 3584 1831 3584 
Q 2591 3584 2966 3190 
Q 3341 2797 3341 1997 
z
" transform="scale(0.015625)"/>
      <path id="DejaVuSans-73" d="M 2834 3397 
L 2834 2853 
Q 2591 2978 2328 3040 
Q 2066 3103 1784 3103 
Q 1356 3103 1142 2972 
Q 928 2841 928 2578 
Q 928 2378 1081 2264 
Q 1234 2150 1697 2047 
L 1894 2003 
Q 2506 1872 2764 1633 
Q 3022 1394 3022 966 
Q 3022 478 2636 193 
Q 2250 -91 1575 -91 
Q 1294 -91 989 -36 
Q 684 19 347 128 
L 347 722 
Q 666 556 975 473 
Q 1284 391 1588 391 
Q 1994 391 2212 530 
Q 2431 669 2431 922 
Q 2431 1156 2273 1281 
Q 2116 1406 1581 1522 
L 1381 1569 
Q 847 1681 609 1914 
Q 372 2147 372 2553 
Q 372 3047 722 3315 
Q 1072 3584 1716 3584 
Q 2034 3584 2315 3537 
Q 2597 3491 2834 3397 
z
" transform="scale(0.015625)"/>
      <path id="DejaVuSans-69" d="M 603 3500 
L 1178 3500 
L 1178 0 
L 603 0 
L 603 3500 
z
M 603 4863 
L 1178 4863 
L 1178 4134 
L 603 4134 
L 603 4863 
z
" transform="scale(0.015625)"/>
      <path id="DejaVuSans-63" d="M 3122 3366 
L 3122 2828 
Q 2878 2963 2633 3030 
Q 2388 3097 2138 3097 
Q 1578 3097 1268 2742 
Q 959 2388 959 1747 
Q 959 1106 1268 751 
Q 1578 397 2138 397 
Q 2388 397 2633 464 
Q 2878 531 3122 666 
L 3122 134 
Q 2881 22 2623 -34 
Q 2366 -91 2075 -91 
Q 1284 -91 818 406 
Q 353 903 353 1747 
Q 353 2603 823 3093 
Q 1294 3584 2113 3584 
Q 2378 3584 2631 3529 
Q 2884 3475 3122 3366 
z
" transform="scale(0.015625)"/>
      <path id="DejaVuSans-20" transform="scale(0.015625)"/>
      <path id="DejaVuSans-54" d="M -19 4666 
L 3928 4666 
L 3928 4134 
L 2272 4134 
L 2272 0 
L 1638 0 
L 1638 4134 
L -19 4134 
L -19 4666 
z
" transform="scale(0.015625)"/>
      <path id="DejaVuSans-72" d="M 2631 2963 
Q 2534 3019 2420 3045 
Q 2306 3072 2169 3072 
Q 1681 3072 1420 2755 
Q 1159 2438 1159 1844 
L 1159 0 
L 581 0 
L 581 3500 
L 1159 3500 
L 1159 2956 
Q 1341 3275 1631 3429 
Q 1922 3584 2338 3584 
Q 2397 3584 2469 3576 
Q 2541 3569 2628 3553 
L 2631 2963 
z
" transform="scale(0.015625)"/>
      <path id="DejaVuSans-6e" d="M 3513 2113 
L 3513 0 
L 2938 0 
L 2938 2094 
Q 2938 2591 2744 2837 
Q 2550 3084 2163 3084 
Q 1697 3084 1428 2787 
Q 1159 2491 1159 1978 
L 1159 0 
L 581 0 
L 581 3500 
L 1159 3500 
L 1159 2956 
Q 1366 3272 1645 3428 
Q 1925 3584 2291 3584 
Q 2894 3584 3203 3211 
Q 3513 2838 3513 2113 
z
" transform="scale(0.015625)"/>
      <path id="DejaVuSans-66" d="M 2375 4863 
L 2375 4384 
L 1825 4384 
Q 1516 4384 1395 4259 
Q 1275 4134 1275 3809 
L 1275 3500 
L 2222 3500 
L 2222 3053 
L 1275 3053 
L 1275 0 
L 697 0 
L 697 3053 
L 147 3053 
L 147 3500 
L 697 3500 
L 697 3744 
Q 697 4328 969 4595 
Q 1241 4863 1831 4863 
L 2375 4863 
z
" transform="scale(0.015625)"/>
      <path id="DejaVuSans-6f" d="M 1959 3097 
Q 1497 3097 1228 2736 
Q 959 2375 959 1747 
Q 959 1119 1226 758 
Q 1494 397 1959 397 
Q 2419 397 2687 759 
Q 2956 1122 2956 1747 
Q 2956 2369 2687 2733 
Q 2419 3097 1959 3097 
z
M 1959 3584 
Q 2709 3584 3137 3096 
Q 3566 2609 3566 1747 
Q 3566 888 3137 398 
Q 2709 -91 1959 -91 
Q 1206 -91 779 398 
Q 353 888 353 1747 
Q 353 2609 779 3096 
Q 1206 3584 1959 3584 
z
" transform="scale(0.015625)"/>
      <path id="DejaVuSans-6d" d="M 3328 2828 
Q 3544 3216 3844 3400 
Q 4144 3584 4550 3584 
Q 5097 3584 5394 3201 
Q 5691 2819 5691 2113 
L 5691 0 
L 5113 0 
L 5113 2094 
Q 5113 2597 4934 2840 
Q 4756 3084 4391 3084 
Q 3944 3084 3684 2787 
Q 3425 2491 3425 1978 
L 3425 0 
L 2847 0 
L 2847 2094 
Q 2847 2600 2669 2842 
Q 2491 3084 2119 3084 
Q 1678 3084 1418 2786 
Q 1159 2488 1159 1978 
L 1159 0 
L 581 0 
L 581 3500 
L 1159 3500 
L 1159 2956 
Q 1356 3278 1631 3431 
Q 1906 3584 2284 3584 
Q 2666 3584 2933 3390 
Q 3200 3197 3328 2828 
z
" transform="scale(0.015625)"/>
      <path id="DejaVuSans-65" d="M 3597 1894 
L 3597 1613 
L 953 1613 
Q 991 1019 1311 708 
Q 1631 397 2203 397 
Q 2534 397 2845 478 
Q 3156 559 3463 722 
L 3463 178 
Q 3153 47 2828 -22 
Q 2503 -91 2169 -91 
Q 1331 -91 842 396 
Q 353 884 353 1716 
Q 353 2575 817 3079 
Q 1281 3584 2069 3584 
Q 2775 3584 3186 3129 
Q 3597 2675 3597 1894 
z
M 3022 2063 
Q 3016 2534 2758 2815 
Q 2500 3097 2075 3097 
Q 1594 3097 1305 2825 
Q 1016 2553 972 2059 
L 3022 2063 
z
" transform="scale(0.015625)"/>
      <path id="DejaVuSans-64" d="M 2906 2969 
L 2906 4863 
L 3481 4863 
L 3481 0 
L 2906 0 
L 2906 525 
Q 2725 213 2448 61 
Q 2172 -91 1784 -91 
Q 1150 -91 751 415 
Q 353 922 353 1747 
Q 353 2572 751 3078 
Q 1150 3584 1784 3584 
Q 2172 3584 2448 3432 
Q 2725 3281 2906 2969 
z
M 947 1747 
Q 947 1113 1208 752 
Q 1469 391 1925 391 
Q 2381 391 2643 752 
Q 2906 1113 2906 1747 
Q 2906 2381 2643 2742 
Q 2381 3103 1925 3103 
Q 1469 3103 1208 2742 
Q 947 2381 947 1747 
z
" transform="scale(0.015625)"/>
      <path id="DejaVuSans-5f" d="M 3263 -1063 
L 3263 -1509 
L -63 -1509 
L -63 -1063 
L 3263 -1063 
z
" transform="scale(0.015625)"/>
     </defs>
     <use xlink:href="#DejaVuSans-43"/>
     <use xlink:href="#DejaVuSans-6c" x="69.824219"/>
     <use xlink:href="#DejaVuSans-61" x="97.607422"/>
     <use xlink:href="#DejaVuSans-73" x="158.886719"/>
     <use xlink:href="#DejaVuSans-73" x="210.986328"/>
     <use xlink:href="#DejaVuSans-69" x="263.085938"/>
     <use xlink:href="#DejaVuSans-63" x="290.869141"/>
     <use xlink:href="#DejaVuSans-20" x="345.849609"/>
     <use xlink:href="#DejaVuSans-54" x="377.636719"/>
     <use xlink:href="#DejaVuSans-72" x="423.970703"/>
     <use xlink:href="#DejaVuSans-61" x="465.083984"/>
     <use xlink:href="#DejaVuSans-6e" x="526.363281"/>
     <use xlink:href="#DejaVuSans-73" x="589.742188"/>
     <use xlink:href="#DejaVuSans-66" x="641.841797"/>
     <use xlink:href="#DejaVuSans-6f" x="677.046875"/>
     <use xlink:href="#DejaVuSans-72" x="738.228516"/>
     <use xlink:href="#DejaVuSans-6d" x="777.591797"/>
     <use xlink:href="#DejaVuSans-65" x="875.003906"/>
     <use xlink:href="#DejaVuSans-72" x="936.527344"/>
     <use xlink:href="#DejaVuSans-20" x="977.640625"/>
     <use xlink:href="#DejaVuSans-2d" x="1009.427734"/>
     <use xlink:href="#DejaVuSans-20" x="1045.511719"/>
     <use xlink:href="#DejaVuSans-6d" x="1077.298828"/>
     <use xlink:href="#DejaVuSans-6f" x="1174.710938"/>
     <use xlink:href="#DejaVuSans-64" x="1235.892578"/>
     <use xlink:href="#DejaVuSans-65" x="1299.369141"/>
     <use xlink:href="#DejaVuSans-6c" x="1360.892578"/>
     <use xlink:href="#DejaVuSans-5f" x="1388.675781"/>
     <use xlink:href="#DejaVuSans-32" x="1438.675781"/>
     <use xlink:href="#DejaVuSans-30" x="1502.298828"/>
     <use xlink:href="#DejaVuSans-32" x="1565.921875"/>
     <use xlink:href="#DejaVuSans-33" x="1629.544922"/>
     <use xlink:href="#DejaVuSans-31" x="1693.167969"/>
     <use xlink:href="#DejaVuSans-31" x="1756.791016"/>
     <use xlink:href="#DejaVuSans-32" x="1820.414062"/>
     <use xlink:href="#DejaVuSans-36" x="1884.037109"/>
     <use xlink:href="#DejaVuSans-31" x="1947.660156"/>
     <use xlink:href="#DejaVuSans-38" x="2011.283203"/>
     <use xlink:href="#DejaVuSans-32" x="2074.90625"/>
     <use xlink:href="#DejaVuSans-33" x="2138.529297"/>
     <use xlink:href="#DejaVuSans-35" x="2202.152344"/>
     <use xlink:href="#DejaVuSans-35" x="2265.775391"/>
    </g>
   </g>
   <g id="legend_1">
    <g id="patch_7">
     <path d="M 79 95.234375 
L 161.517188 95.234375 
Q 163.517188 95.234375 163.517188 93.234375 
L 163.517188 50.2 
Q 163.517188 48.2 161.517188 48.2 
L 79 48.2 
Q 77 48.2 77 50.2 
L 77 93.234375 
Q 77 95.234375 79 95.234375 
z
" style="fill: #ffffff; opacity: 0.8; stroke: #cccccc; stroke-linejoin: miter"/>
    </g>
    <g id="line2d_16">
     <path d="M 81 56.298437 
L 91 56.298437 
L 101 56.298437 
" style="fill: none; stroke: #1f77b4; stroke-width: 1.5; stroke-linecap: square"/>
    </g>
    <g id="text_14">
     <!-- Measured -->
     <g transform="translate(109 59.798437) scale(0.1 -0.1)">
      <defs>
       <path id="DejaVuSans-4d" d="M 628 4666 
L 1569 4666 
L 2759 1491 
L 3956 4666 
L 4897 4666 
L 4897 0 
L 4281 0 
L 4281 4097 
L 3078 897 
L 2444 897 
L 1241 4097 
L 1241 0 
L 628 0 
L 628 4666 
z
" transform="scale(0.015625)"/>
       <path id="DejaVuSans-75" d="M 544 1381 
L 544 3500 
L 1119 3500 
L 1119 1403 
Q 1119 906 1312 657 
Q 1506 409 1894 409 
Q 2359 409 2629 706 
Q 2900 1003 2900 1516 
L 2900 3500 
L 3475 3500 
L 3475 0 
L 2900 0 
L 2900 538 
Q 2691 219 2414 64 
Q 2138 -91 1772 -91 
Q 1169 -91 856 284 
Q 544 659 544 1381 
z
M 1991 3584 
L 1991 3584 
z
" transform="scale(0.015625)"/>
      </defs>
      <use xlink:href="#DejaVuSans-4d"/>
      <use xlink:href="#DejaVuSans-65" x="86.279297"/>
      <use xlink:href="#DejaVuSans-61" x="147.802734"/>
      <use xlink:href="#DejaVuSans-73" x="209.082031"/>
      <use xlink:href="#DejaVuSans-75" x="261.181641"/>
      <use xlink:href="#DejaVuSans-72" x="324.560547"/>
      <use xlink:href="#DejaVuSans-65" x="363.423828"/>
      <use xlink:href="#DejaVuSans-64" x="424.947266"/>
     </g>
    </g>
    <g id="line2d_17">
     <path d="M 81 70.976562 
L 91 70.976562 
L 101 70.976562 
" style="fill: none; stroke: #ff7f0e; stroke-width: 1.5; stroke-linecap: square"/>
    </g>
    <g id="text_15">
     <!-- Fitted -->
     <g transform="translate(109 74.476562) scale(0.1 -0.1)">
      <defs>
       <path id="DejaVuSans-46" d="M 628 4666 
L 3309 4666 
L 3309 4134 
L 1259 4134 
L 1259 2759 
L 3109 2759 
L 3109 2228 
L 1259 2228 
L 1259 0 
L 628 0 
L 628 4666 
z
" transform="scale(0.015625)"/>
       <path id="DejaVuSans-74" d="M 1172 4494 
L 1172 3500 
L 2356 3500 
L 2356 3053 
L 1172 3053 
L 1172 1153 
Q 1172 725 1289 603 
Q 1406 481 1766 481 
L 2356 481 
L 2356 0 
L 1766 0 
Q 1100 0 847 248 
Q 594 497 594 1153 
L 594 3053 
L 172 3053 
L 172 3500 
L 594 3500 
L 594 4494 
L 1172 4494 
z
" transform="scale(0.015625)"/>
      </defs>
      <use xlink:href="#DejaVuSans-46"/>
      <use xlink:href="#DejaVuSans-69" x="50.269531"/>
      <use xlink:href="#DejaVuSans-74" x="78.052734"/>
      <use xlink:href="#DejaVuSans-74" x="117.261719"/>
      <use xlink:href="#DejaVuSans-65" x="156.470703"/>
      <use xlink:href="#DejaVuSans-64" x="217.994141"/>
     </g>
    </g>
    <g id="line2d_18">
     <path d="M 81 85.654687 
L 91 85.654687 
L 101 85.654687 
" style="fill: none; stroke: #2ca02c; stroke-width: 1.5; stroke-linecap: square"/>
    </g>
    <g id="text_16">
     <!-- Estimated -->
     <g transform="translate(109 89.154687) scale(0.1 -0.1)">
      <defs>
       <path id="DejaVuSans-45" d="M 628 4666 
L 3578 4666 
L 3578 4134 
L 1259 4134 
L 1259 2753 
L 3481 2753 
L 3481 2222 
L 1259 2222 
L 1259 531 
L 3634 531 
L 3634 0 
L 628 0 
L 628 4666 
z
" transform="scale(0.015625)"/>
      </defs>
      <use xlink:href="#DejaVuSans-45"/>
      <use xlink:href="#DejaVuSans-73" x="63.183594"/>
      <use xlink:href="#DejaVuSans-74" x="115.283203"/>
      <use xlink:href="#DejaVuSans-69" x="154.492188"/>
      <use xlink:href="#DejaVuSans-6d" x="182.275391"/>
      <use xlink:href="#DejaVuSans-61" x="279.6875"/>
      <use xlink:href="#DejaVuSans-74" x="340.966797"/>
      <use xlink:href="#DejaVuSans-65" x="380.175781"/>
      <use xlink:href="#DejaVuSans-64" x="441.699219"/>
     </g>
    </g>
   </g>
  </g>
 </g>
 <defs>
  <clipPath id="pe84700f05b">
   <rect x="72" y="43.2" width="446.4" height="277.2"/>
  </clipPath>
 </defs>
</svg>
