<?xml version="1.0" encoding="utf-8" standalone="no"?>
<!DOCTYPE svg PUBLIC "-//W3C//DTD SVG 1.1//EN"
  "http://www.w3.org/Graphics/SVG/1.1/DTD/svg11.dtd">
<svg xmlns:xlink="http://www.w3.org/1999/xlink" width="576pt" height="360pt" viewBox="0 0 576 360" xmlns="http://www.w3.org/2000/svg" version="1.1">
 <metadata>
  <rdf:RDF xmlns:dc="http://purl.org/dc/elements/1.1/" xmlns:cc="http://creativecommons.org/ns#" xmlns:rdf="http://www.w3.org/1999/02/22-rdf-syntax-ns#">
   <cc:Work>
    <dc:type rdf:resource="http://purl.org/dc/dcmitype/StillImage"/>
    <dc:date>2023-11-23T17:10:41.185032</dc:date>
    <dc:format>image/svg+xml</dc:format>
    <dc:creator>
     <cc:Agent>
      <dc:title>Matplotlib v3.8.1, https://matplotlib.org/</dc:title>
     </cc:Agent>
    </dc:creator>
   </cc:Work>
  </rdf:RDF>
 </metadata>
 <defs>
  <style type="text/css">*{stroke-linejoin: round; stroke-linecap: butt}</style>
 </defs>
 <g id="figure_1">
  <g id="patch_1">
   <path d="M 0 360 
L 576 360 
L 576 0 
L 0 0 
z
" style="fill: #ffffff"/>
  </g>
  <g id="axes_1">
   <g id="patch_2">
    <path d="M 72 320.4 
L 518.4 320.4 
L 518.4 43.2 
L 72 43.2 
z
" style="fill: #ffffff"/>
   </g>
   <g id="matplotlib.axis_1">
    <g id="xtick_1">
     <g id="line2d_1">
      <defs>
       <path id="m9171c03fe3" d="M 0 0 
L 0 3.5 
" style="stroke: #000000; stroke-width: 0.8"/>
      </defs>
      <g>
       <use xlink:href="#m9171c03fe3" x="129.874161" y="320.4" style="stroke: #000000; stroke-width: 0.8"/>
      </g>
     </g>
     <g id="text_1">
      <!-- 2020-05-15 -->
      <g transform="translate(100.816349 334.998438) scale(0.1 -0.1)">
       <defs>
        <path id="DejaVuSans-32" d="M 1228 531 
L 3431 531 
L 3431 0 
L 469 0 
L 469 531 
Q 828 903 1448 1529 
Q 2069 2156 2228 2338 
Q 2531 2678 2651 2914 
Q 2772 3150 2772 3378 
Q 2772 3750 2511 3984 
Q 2250 4219 1831 4219 
Q 1534 4219 1204 4116 
Q 875 4013 500 3803 
L 500 4441 
Q 881 4594 1212 4672 
Q 1544 4750 1819 4750 
Q 2544 4750 2975 4387 
Q 3406 4025 3406 3419 
Q 3406 3131 3298 2873 
Q 3191 2616 2906 2266 
Q 2828 2175 2409 1742 
Q 1991 1309 1228 531 
z
" transform="scale(0.015625)"/>
        <path id="DejaVuSans-30" d="M 2034 4250 
Q 1547 4250 1301 3770 
Q 1056 3291 1056 2328 
Q 1056 1369 1301 889 
Q 1547 409 2034 409 
Q 2525 409 2770 889 
Q 3016 1369 3016 2328 
Q 3016 3291 2770 3770 
Q 2525 4250 2034 4250 
z
M 2034 4750 
Q 2819 4750 3233 4129 
Q 3647 3509 3647 2328 
Q 3647 1150 3233 529 
Q 2819 -91 2034 -91 
Q 1250 -91 836 529 
Q 422 1150 422 2328 
Q 422 3509 836 4129 
Q 1250 4750 2034 4750 
z
" transform="scale(0.015625)"/>
        <path id="DejaVuSans-2d" d="M 313 2009 
L 1997 2009 
L 1997 1497 
L 313 1497 
L 313 2009 
z
" transform="scale(0.015625)"/>
        <path id="DejaVuSans-35" d="M 691 4666 
L 3169 4666 
L 3169 4134 
L 1269 4134 
L 1269 2991 
Q 1406 3038 1543 3061 
Q 1681 3084 1819 3084 
Q 2600 3084 3056 2656 
Q 3513 2228 3513 1497 
Q 3513 744 3044 326 
Q 2575 -91 1722 -91 
Q 1428 -91 1123 -41 
Q 819 9 494 109 
L 494 744 
Q 775 591 1075 516 
Q 1375 441 1709 441 
Q 2250 441 2565 725 
Q 2881 1009 2881 1497 
Q 2881 1984 2565 2268 
Q 2250 2553 1709 2553 
Q 1456 2553 1204 2497 
Q 953 2441 691 2322 
L 691 4666 
z
" transform="scale(0.015625)"/>
        <path id="DejaVuSans-31" d="M 794 531 
L 1825 531 
L 1825 4091 
L 703 3866 
L 703 4441 
L 1819 4666 
L 2450 4666 
L 2450 531 
L 3481 531 
L 3481 0 
L 794 0 
L 794 531 
z
" transform="scale(0.015625)"/>
       </defs>
       <use xlink:href="#DejaVuSans-32"/>
       <use xlink:href="#DejaVuSans-30" x="63.623047"/>
       <use xlink:href="#DejaVuSans-32" x="127.246094"/>
       <use xlink:href="#DejaVuSans-30" x="190.869141"/>
       <use xlink:href="#DejaVuSans-2d" x="254.492188"/>
       <use xlink:href="#DejaVuSans-30" x="290.576172"/>
       <use xlink:href="#DejaVuSans-35" x="354.199219"/>
       <use xlink:href="#DejaVuSans-2d" x="417.822266"/>
       <use xlink:href="#DejaVuSans-31" x="453.90625"/>
       <use xlink:href="#DejaVuSans-35" x="517.529297"/>
      </g>
     </g>
    </g>
    <g id="xtick_2">
     <g id="line2d_2">
      <g>
       <use xlink:href="#m9171c03fe3" x="212.435902" y="320.4" style="stroke: #000000; stroke-width: 0.8"/>
      </g>
     </g>
     <g id="text_2">
      <!-- 2020-06-01 -->
      <g transform="translate(183.37809 334.998438) scale(0.1 -0.1)">
       <defs>
        <path id="DejaVuSans-36" d="M 2113 2584 
Q 1688 2584 1439 2293 
Q 1191 2003 1191 1497 
Q 1191 994 1439 701 
Q 1688 409 2113 409 
Q 2538 409 2786 701 
Q 3034 994 3034 1497 
Q 3034 2003 2786 2293 
Q 2538 2584 2113 2584 
z
M 3366 4563 
L 3366 3988 
Q 3128 4100 2886 4159 
Q 2644 4219 2406 4219 
Q 1781 4219 1451 3797 
Q 1122 3375 1075 2522 
Q 1259 2794 1537 2939 
Q 1816 3084 2150 3084 
Q 2853 3084 3261 2657 
Q 3669 2231 3669 1497 
Q 3669 778 3244 343 
Q 2819 -91 2113 -91 
Q 1303 -91 875 529 
Q 447 1150 447 2328 
Q 447 3434 972 4092 
Q 1497 4750 2381 4750 
Q 2619 4750 2861 4703 
Q 3103 4656 3366 4563 
z
" transform="scale(0.015625)"/>
       </defs>
       <use xlink:href="#DejaVuSans-32"/>
       <use xlink:href="#DejaVuSans-30" x="63.623047"/>
       <use xlink:href="#DejaVuSans-32" x="127.246094"/>
       <use xlink:href="#DejaVuSans-30" x="190.869141"/>
       <use xlink:href="#DejaVuSans-2d" x="254.492188"/>
       <use xlink:href="#DejaVuSans-30" x="290.576172"/>
       <use xlink:href="#DejaVuSans-36" x="354.199219"/>
       <use xlink:href="#DejaVuSans-2d" x="417.822266"/>
       <use xlink:href="#DejaVuSans-30" x="453.90625"/>
       <use xlink:href="#DejaVuSans-31" x="517.529297"/>
      </g>
     </g>
    </g>
    <g id="xtick_3">
     <g id="line2d_3">
      <g>
       <use xlink:href="#m9171c03fe3" x="280.427924" y="320.4" style="stroke: #000000; stroke-width: 0.8"/>
      </g>
     </g>
     <g id="text_3">
      <!-- 2020-06-15 -->
      <g transform="translate(251.370111 334.998438) scale(0.1 -0.1)">
       <use xlink:href="#DejaVuSans-32"/>
       <use xlink:href="#DejaVuSans-30" x="63.623047"/>
       <use xlink:href="#DejaVuSans-32" x="127.246094"/>
       <use xlink:href="#DejaVuSans-30" x="190.869141"/>
       <use xlink:href="#DejaVuSans-2d" x="254.492188"/>
       <use xlink:href="#DejaVuSans-30" x="290.576172"/>
       <use xlink:href="#DejaVuSans-36" x="354.199219"/>
       <use xlink:href="#DejaVuSans-2d" x="417.822266"/>
       <use xlink:href="#DejaVuSans-31" x="453.90625"/>
       <use xlink:href="#DejaVuSans-35" x="517.529297"/>
      </g>
     </g>
    </g>
    <g id="xtick_4">
     <g id="line2d_4">
      <g>
       <use xlink:href="#m9171c03fe3" x="358.133092" y="320.4" style="stroke: #000000; stroke-width: 0.8"/>
      </g>
     </g>
     <g id="text_4">
      <!-- 2020-07-01 -->
      <g transform="translate(329.075279 334.998438) scale(0.1 -0.1)">
       <defs>
        <path id="DejaVuSans-37" d="M 525 4666 
L 3525 4666 
L 3525 4397 
L 1831 0 
L 1172 0 
L 2766 4134 
L 525 4134 
L 525 4666 
z
" transform="scale(0.015625)"/>
       </defs>
       <use xlink:href="#DejaVuSans-32"/>
       <use xlink:href="#DejaVuSans-30" x="63.623047"/>
       <use xlink:href="#DejaVuSans-32" x="127.246094"/>
       <use xlink:href="#DejaVuSans-30" x="190.869141"/>
       <use xlink:href="#DejaVuSans-2d" x="254.492188"/>
       <use xlink:href="#DejaVuSans-30" x="290.576172"/>
       <use xlink:href="#DejaVuSans-37" x="354.199219"/>
       <use xlink:href="#DejaVuSans-2d" x="417.822266"/>
       <use xlink:href="#DejaVuSans-30" x="453.90625"/>
       <use xlink:href="#DejaVuSans-31" x="517.529297"/>
      </g>
     </g>
    </g>
    <g id="xtick_5">
     <g id="line2d_5">
      <g>
       <use xlink:href="#m9171c03fe3" x="426.125113" y="320.4" style="stroke: #000000; stroke-width: 0.8"/>
      </g>
     </g>
     <g id="text_5">
      <!-- 2020-07-15 -->
      <g transform="translate(397.067301 334.998438) scale(0.1 -0.1)">
       <use xlink:href="#DejaVuSans-32"/>
       <use xlink:href="#DejaVuSans-30" x="63.623047"/>
       <use xlink:href="#DejaVuSans-32" x="127.246094"/>
       <use xlink:href="#DejaVuSans-30" x="190.869141"/>
       <use xlink:href="#DejaVuSans-2d" x="254.492188"/>
       <use xlink:href="#DejaVuSans-30" x="290.576172"/>
       <use xlink:href="#DejaVuSans-37" x="354.199219"/>
       <use xlink:href="#DejaVuSans-2d" x="417.822266"/>
       <use xlink:href="#DejaVuSans-31" x="453.90625"/>
       <use xlink:href="#DejaVuSans-35" x="517.529297"/>
      </g>
     </g>
    </g>
    <g id="xtick_6">
     <g id="line2d_6">
      <g>
       <use xlink:href="#m9171c03fe3" x="508.686854" y="320.4" style="stroke: #000000; stroke-width: 0.8"/>
      </g>
     </g>
     <g id="text_6">
      <!-- 2020-08-01 -->
      <g transform="translate(479.629042 334.998438) scale(0.1 -0.1)">
       <defs>
        <path id="DejaVuSans-38" d="M 2034 2216 
Q 1584 2216 1326 1975 
Q 1069 1734 1069 1313 
Q 1069 891 1326 650 
Q 1584 409 2034 409 
Q 2484 409 2743 651 
Q 3003 894 3003 1313 
Q 3003 1734 2745 1975 
Q 2488 2216 2034 2216 
z
M 1403 2484 
Q 997 2584 770 2862 
Q 544 3141 544 3541 
Q 544 4100 942 4425 
Q 1341 4750 2034 4750 
Q 2731 4750 3128 4425 
Q 3525 4100 3525 3541 
Q 3525 3141 3298 2862 
Q 3072 2584 2669 2484 
Q 3125 2378 3379 2068 
Q 3634 1759 3634 1313 
Q 3634 634 3220 271 
Q 2806 -91 2034 -91 
Q 1263 -91 848 271 
Q 434 634 434 1313 
Q 434 1759 690 2068 
Q 947 2378 1403 2484 
z
M 1172 3481 
Q 1172 3119 1398 2916 
Q 1625 2713 2034 2713 
Q 2441 2713 2670 2916 
Q 2900 3119 2900 3481 
Q 2900 3844 2670 4047 
Q 2441 4250 2034 4250 
Q 1625 4250 1398 4047 
Q 1172 3844 1172 3481 
z
" transform="scale(0.015625)"/>
       </defs>
       <use xlink:href="#DejaVuSans-32"/>
       <use xlink:href="#DejaVuSans-30" x="63.623047"/>
       <use xlink:href="#DejaVuSans-32" x="127.246094"/>
       <use xlink:href="#DejaVuSans-30" x="190.869141"/>
       <use xlink:href="#DejaVuSans-2d" x="254.492188"/>
       <use xlink:href="#DejaVuSans-30" x="290.576172"/>
       <use xlink:href="#DejaVuSans-38" x="354.199219"/>
       <use xlink:href="#DejaVuSans-2d" x="417.822266"/>
       <use xlink:href="#DejaVuSans-30" x="453.90625"/>
       <use xlink:href="#DejaVuSans-31" x="517.529297"/>
      </g>
     </g>
    </g>
   </g>
   <g id="matplotlib.axis_2">
    <g id="ytick_1">
     <g id="line2d_7">
      <defs>
       <path id="maaf18aeb3e" d="M 0 0 
L -3.5 0 
" style="stroke: #000000; stroke-width: 0.8"/>
      </defs>
      <g>
       <use xlink:href="#maaf18aeb3e" x="72" y="315.759392" style="stroke: #000000; stroke-width: 0.8"/>
      </g>
     </g>
     <g id="text_7">
      <!-- −2 -->
      <g transform="translate(50.257812 319.558611) scale(0.1 -0.1)">
       <defs>
        <path id="DejaVuSans-2212" d="M 678 2272 
L 4684 2272 
L 4684 1741 
L 678 1741 
L 678 2272 
z
" transform="scale(0.015625)"/>
       </defs>
       <use xlink:href="#DejaVuSans-2212"/>
       <use xlink:href="#DejaVuSans-32" x="83.789062"/>
      </g>
     </g>
    </g>
    <g id="ytick_2">
     <g id="line2d_8">
      <g>
       <use xlink:href="#maaf18aeb3e" x="72" y="263.731094" style="stroke: #000000; stroke-width: 0.8"/>
      </g>
     </g>
     <g id="text_8">
      <!-- −1 -->
      <g transform="translate(50.257812 267.530313) scale(0.1 -0.1)">
       <use xlink:href="#DejaVuSans-2212"/>
       <use xlink:href="#DejaVuSans-31" x="83.789062"/>
      </g>
     </g>
    </g>
    <g id="ytick_3">
     <g id="line2d_9">
      <g>
       <use xlink:href="#maaf18aeb3e" x="72" y="211.702796" style="stroke: #000000; stroke-width: 0.8"/>
      </g>
     </g>
     <g id="text_9">
      <!-- 0 -->
      <g transform="translate(58.6375 215.502015) scale(0.1 -0.1)">
       <use xlink:href="#DejaVuSans-30"/>
      </g>
     </g>
    </g>
    <g id="ytick_4">
     <g id="line2d_10">
      <g>
       <use xlink:href="#maaf18aeb3e" x="72" y="159.674498" style="stroke: #000000; stroke-width: 0.8"/>
      </g>
     </g>
     <g id="text_10">
      <!-- 1 -->
      <g transform="translate(58.6375 163.473717) scale(0.1 -0.1)">
       <use xlink:href="#DejaVuSans-31"/>
      </g>
     </g>
    </g>
    <g id="ytick_5">
     <g id="line2d_11">
      <g>
       <use xlink:href="#maaf18aeb3e" x="72" y="107.6462" style="stroke: #000000; stroke-width: 0.8"/>
      </g>
     </g>
     <g id="text_11">
      <!-- 2 -->
      <g transform="translate(58.6375 111.445419) scale(0.1 -0.1)">
       <use xlink:href="#DejaVuSans-32"/>
      </g>
     </g>
    </g>
    <g id="ytick_6">
     <g id="line2d_12">
      <g>
       <use xlink:href="#maaf18aeb3e" x="72" y="55.617902" style="stroke: #000000; stroke-width: 0.8"/>
      </g>
     </g>
     <g id="text_12">
      <!-- 3 -->
      <g transform="translate(58.6375 59.417121) scale(0.1 -0.1)">
       <defs>
        <path id="DejaVuSans-33" d="M 2597 2516 
Q 3050 2419 3304 2112 
Q 3559 1806 3559 1356 
Q 3559 666 3084 287 
Q 2609 -91 1734 -91 
Q 1441 -91 1130 -33 
Q 819 25 488 141 
L 488 750 
Q 750 597 1062 519 
Q 1375 441 1716 441 
Q 2309 441 2620 675 
Q 2931 909 2931 1356 
Q 2931 1769 2642 2001 
Q 2353 2234 1838 2234 
L 1294 2234 
L 1294 2753 
L 1863 2753 
Q 2328 2753 2575 2939 
Q 2822 3125 2822 3475 
Q 2822 3834 2567 4026 
Q 2313 4219 1838 4219 
Q 1578 4219 1281 4162 
Q 984 4106 628 3988 
L 628 4550 
Q 988 4650 1302 4700 
Q 1616 4750 1894 4750 
Q 2613 4750 3031 4423 
Q 3450 4097 3450 3541 
Q 3450 3153 3228 2886 
Q 3006 2619 2597 2516 
z
" transform="scale(0.015625)"/>
       </defs>
       <use xlink:href="#DejaVuSans-33"/>
      </g>
     </g>
    </g>
   </g>
   <g id="line2d_13">
    <path d="M 72 287.687871 
L 72.404714 298.71381 
L 72.607072 297.0395 
L 72.809429 286.66695 
L 73.214143 256.611057 
L 73.618858 244.523361 
L 75.035358 163.870659 
L 75.237715 160.991664 
L 75.440073 165.9125 
L 75.64243 173.896097 
L 75.844787 177.101786 
L 76.047144 191.925549 
L 76.654216 260.245534 
L 77.05893 283.645026 
L 77.261287 287.892055 
L 77.463645 287.524523 
L 77.666002 277.111136 
L 78.070716 249.40336 
L 78.475431 237.274827 
L 78.677788 228.392821 
L 79.487217 172.977268 
L 79.891931 157.153004 
L 80.094288 159.051916 
L 80.903717 200.297095 
L 81.713146 273.558334 
L 82.11786 287.810381 
L 82.320218 289.790966 
L 82.522575 289.505109 
L 82.724932 287.0549 
L 82.927289 280.418918 
L 83.332004 258.060764 
L 83.736718 244.135412 
L 83.939075 241.174743 
L 84.141432 241.440182 
L 84.546147 247.667796 
L 84.748504 249.709636 
L 84.950861 249.730055 
L 85.355576 253.813736 
L 85.557933 250.567209 
L 85.76029 256.529384 
L 86.569719 300.265608 
L 86.772076 306.186946 
L 86.974433 307.738745 
L 87.176791 307.8 
L 87.379148 306.493222 
L 87.581505 302.858746 
L 87.783862 296.284019 
L 88.188577 274.824275 
L 88.390934 269.780929 
L 89.200363 261.919843 
L 89.40272 257.897417 
L 89.807434 243.502441 
L 90.212149 241.113488 
L 90.414506 238.479513 
L 90.616863 246.218089 
L 91.223935 295.446865 
L 91.628649 306.186946 
L 91.831006 306.248201 
L 92.033364 303.818411 
L 92.842792 258.897919 
L 93.04515 256.815241 
L 93.449864 248.443695 
L 93.652221 247.933235 
L 93.854578 245.074658 
L 94.056936 244.462106 
L 94.259293 241.909805 
L 94.46165 235.682192 
L 94.664007 232.905289 
L 94.866364 233.803698 
L 95.068722 236.866459 
L 95.271079 233.129891 
L 95.473436 242.971562 
L 96.080508 295.814396 
L 96.485222 304.778076 
L 96.687579 306.636151 
L 96.889937 302.409541 
L 97.699365 258.183275 
L 98.306437 247.953653 
L 98.508794 247.586122 
L 99.52058 226.922696 
L 99.722937 228.1478 
L 99.925295 232.394828 
L 100.127652 230.618427 
L 100.330009 240.500935 
L 100.937081 293.405024 
L 101.341795 305.349791 
L 101.544152 306.309456 
L 101.74651 302.695399 
L 101.948867 291.056907 
L 102.353581 261.817751 
L 102.555938 260.306789 
L 103.567724 242.991981 
L 104.377153 221.470981 
L 104.57951 222.716504 
L 104.781868 227.964034 
L 104.984225 227.943616 
L 105.186582 236.60102 
L 105.793654 290.342263 
L 106.198368 302.756654 
L 106.400725 304.4718 
L 106.603083 300.551466 
L 107.412511 255.835158 
L 107.614869 254.160849 
L 107.817226 250.587628 
L 108.22194 236.437673 
L 108.626655 215.304623 
L 108.829012 209.526214 
L 109.031369 207.688558 
L 109.638441 216.141778 
L 109.840798 221.430145 
L 110.043155 231.557674 
L 110.650227 285.155988 
L 111.054941 299.040504 
L 111.257298 300.898579 
L 111.459655 299.203851 
L 111.662013 288.096239 
L 112.066727 259.612563 
L 112.471442 245.013403 
L 113.887942 178.408564 
L 114.090299 176.101284 
L 114.292656 182.737266 
L 114.495014 193.865297 
L 114.697371 198.336928 
L 115.102085 231.455582 
L 115.709157 279.520508 
L 116.113871 293.098748 
L 116.316228 293.262095 
L 116.518586 291.649041 
L 116.720943 288.116657 
L 117.125657 261.593148 
L 118.542158 159.684886 
L 118.744515 149.843215 
L 118.946872 146.06581 
L 119.149229 149.639031 
L 119.756301 186.514671 
L 120.56573 263.777918 
L 120.970444 283.073311 
L 121.172801 287.0549 
L 121.375159 288.647536 
L 121.577516 287.238666 
L 121.779873 279.520508 
L 122.589302 229.862946 
L 123.196374 205.075002 
L 123.398731 200.623789 
L 123.601088 200.827973 
L 123.803445 200.276676 
L 124.410517 213.324038 
L 124.612874 224.002864 
L 125.219946 278.805864 
L 125.62466 292.955819 
L 125.827017 294.895568 
L 126.029374 292.424941 
L 127.04116 237.519848 
L 127.648232 201.093413 
L 128.255304 159.827815 
L 128.457661 152.477189 
L 128.660018 152.150495 
L 129.26709 195.315004 
L 130.278876 283.767537 
L 130.481233 291.383602 
L 130.68359 292.731217 
L 130.885947 290.219753 
L 132.504805 184.166555 
L 133.111877 142.615099 
L 133.314234 133.447235 
L 133.516591 135.101126 
L 133.921306 150.067817 
L 134.123663 157.295933 
L 135.135449 264.288378 
L 135.540163 276.580258 
L 135.74252 275.66143 
L 135.944878 265.350135 
L 136.349592 234.763363 
L 136.551949 228.168218 
L 136.754306 216.611401 
L 136.956664 221.062613 
L 137.159021 210.057093 
L 137.766092 201.460944 
L 137.96845 201.848894 
L 138.373164 196.580945 
L 138.777879 203.931571 
L 138.980236 204.748307 
L 139.182593 216.24387 
L 139.789665 271.393983 
L 140.194379 286.360674 
L 140.396736 288.382096 
L 140.599093 285.441846 
L 141.003808 256.018924 
L 141.408522 235.396334 
L 142.015594 222.348973 
L 142.622665 213.446548 
L 142.825023 213.181109 
L 143.02738 211.996841 
L 143.229737 212.670649 
L 143.634451 217.816087 
L 143.836809 216.611401 
L 144.039166 226.534746 
L 144.646238 274.599673 
L 145.050952 286.381093 
L 145.253309 287.647034 
L 145.455666 284.584273 
L 145.860381 255.692229 
L 146.062738 239.663781 
L 146.66981 223.614914 
L 146.872167 221.001358 
L 147.074524 219.939601 
L 147.479238 209.117846 
L 147.681596 217.366882 
L 147.883953 218.326547 
L 148.08631 220.878848 
L 148.491024 229.965038 
L 148.693382 228.637842 
L 149.098096 251.690222 
L 149.502811 279.152977 
L 149.907525 291.955317 
L 150.109882 293.976739 
L 150.312239 293.405024 
L 150.514597 290.628121 
L 150.716954 285.013059 
L 151.121668 264.472143 
L 151.526383 244.298759 
L 151.931097 238.581605 
L 152.133454 238.152819 
L 152.335811 240.092567 
L 152.538169 240.603027 
L 152.740526 238.581605 
L 152.942883 238.867463 
L 153.14524 237.907798 
L 153.347597 237.948635 
L 153.549955 235.069639 
L 153.752312 237.23399 
L 154.764098 287.912473 
L 154.966455 291.812388 
L 155.168812 293.180422 
L 155.573527 289.300925 
L 155.775884 278.397496 
L 156.78767 201.64471 
L 157.799456 159.664468 
L 158.001813 161.645053 
L 158.406528 174.651578 
L 158.608885 188.005215 
L 159.215956 255.610555 
L 159.620671 276.886534 
L 159.823028 280.051387 
L 160.025385 279.152977 
L 160.227743 269.495071 
L 160.632457 237.519848 
L 161.8466 187.964378 
L 162.251315 178.061451 
L 162.453672 178.20438 
L 162.656029 181.02212 
L 163.465458 212.364373 
L 164.072529 271.332728 
L 164.477244 289.668456 
L 164.679601 289.99515 
L 164.881958 286.809879 
L 165.084316 276.80486 
L 165.48903 245.503445 
L 166.500816 210.935084 
L 167.310245 168.648566 
L 167.512602 171.956348 
L 167.917316 192.231825 
L 168.119674 196.621782 
L 168.322031 207.811068 
L 168.929102 266.350637 
L 169.333817 281.317328 
L 169.536174 284.788457 
L 169.738531 281.174399 
L 170.143246 254.283359 
L 170.54796 224.411232 
L 171.357389 180.491242 
L 171.559746 174.549486 
L 172.166818 150.700788 
L 172.369175 152.293423 
L 172.571532 160.093254 
L 173.178604 198.500275 
L 173.785675 268.555825 
L 174.19039 287.667452 
L 174.392747 290.607703 
L 174.595104 288.810883 
L 174.999819 264.962185 
L 175.404533 240.31717 
L 177.023391 163.196852 
L 177.225748 163.707312 
L 177.428105 167.566391 
L 177.630462 183.921534 
L 177.83282 186.330905 
L 178.237534 229.822109 
L 178.642248 272.129046 
L 179.046963 291.056907 
L 179.24932 294.73222 
L 179.451677 292.241175 
L 179.654034 283.665445 
L 180.261106 244.360014 
L 181.879964 148.720203 
L 182.082321 145.494094 
L 182.284678 151.088738 
L 183.094107 206.667637 
L 183.498821 245.156332 
L 183.903536 266.330218 
L 184.30825 274.068794 
L 184.510607 275.416409 
L 184.712965 271.822769 
L 184.915322 258.612061 
L 185.724751 177.653083 
L 186.129465 156.540452 
L 186.331822 150.557859 
L 186.53418 149.802378 
L 186.736537 152.313842 
L 187.748323 192.252243 
L 188.557752 255.651392 
L 188.962466 269.658418 
L 189.164823 271.679841 
L 189.36718 271.761514 
L 189.569538 271.026452 
L 189.771895 260.368044 
L 190.986038 165.52455 
L 191.188395 160.27702 
L 191.390752 160.236183 
L 191.795467 169.281537 
L 192.604896 200.23584 
L 193.414325 262.859089 
L 193.819039 276.416911 
L 194.021396 277.478668 
L 194.426111 273.558334 
L 194.628468 264.696746 
L 195.437897 204.442031 
L 195.640254 199.480359 
L 195.842611 200.685045 
L 196.247325 206.688056 
L 196.449683 207.259771 
L 196.65204 206.871821 
L 197.056754 214.998347 
L 197.259112 215.835501 
L 197.461469 224.166211 
L 198.06854 272.026954 
L 198.473255 286.074817 
L 198.675612 286.176909 
L 198.877969 282.562851 
L 199.282684 252.078171 
L 199.687398 229.474996 
L 201.306256 163.707312 
L 201.508613 162.563881 
L 202.115684 181.573417 
L 202.318042 192.619774 
L 202.925113 256.080179 
L 203.329828 273.558334 
L 203.532185 275.641011 
L 203.734542 272.680342 
L 203.936899 261.266454 
L 204.341614 227.596503 
L 205.758114 173.446892 
L 205.960471 170.976265 
L 206.162829 171.119193 
L 206.365186 172.528063 
L 206.7699 184.268647 
L 206.972257 187.433499 
L 207.174615 198.173581 
L 207.781686 256.672313 
L 208.186401 272.680342 
L 208.388758 275.702267 
L 208.591115 272.394485 
L 208.793472 260.633483 
L 209.198187 227.147298 
L 209.805258 205.075002 
L 210.209973 185.37124 
L 210.817044 144.064806 
L 211.019402 135.652423 
L 211.221759 138.592673 
L 211.626473 162.849739 
L 211.82883 168.015596 
L 212.031188 182.614756 
L 212.638259 247.075662 
L 213.042974 265.493064 
L 213.245331 269.454234 
L 213.447688 267.759507 
L 213.650045 257.141936 
L 214.257117 214.263284 
L 214.661831 188.148144 
L 215.47126 129.322717 
L 215.875975 112.742972 
L 216.078332 112.273349 
L 216.280689 117.7659 
L 217.090118 180.981283 
L 217.697189 242.35901 
L 218.101904 260.653902 
L 218.304261 263.982102 
L 218.506618 265.329716 
L 218.708976 264.084194 
L 218.911333 251.465619 
L 219.518404 197.15266 
L 220.125476 162.257605 
L 220.327833 160.113673 
L 220.53019 162.318861 
L 221.541976 204.258266 
L 221.744334 209.362867 
L 222.553762 265.758503 
L 222.958477 276.539421 
L 223.160834 278.234149 
L 223.363191 278.581262 
L 223.565549 277.029463 
L 223.767906 268.392477 
L 224.374977 230.516335 
L 224.779692 223.002362 
L 225.386763 225.044202 
L 225.589121 228.53575 
L 225.791478 229.413741 
L 226.196192 237.724032 
L 226.398549 237.376919 
L 226.600907 243.747462 
L 227.410335 296.896571 
L 227.612693 300.898579 
L 227.81505 302.572888 
L 228.017407 299.408035 
L 228.826836 257.182773 
L 229.029193 254.875493 
L 229.23155 249.178758 
L 230.648051 186.310487 
L 230.850408 186.882202 
L 231.255122 201.175086 
L 231.45748 211.976423 
L 232.064551 275.110133 
L 232.469266 292.139083 
L 232.671623 294.834312 
L 232.87398 293.629627 
L 233.278694 268.555825 
L 233.683409 246.218089 
L 235.302267 182.185969 
L 235.504624 181.593835 
L 236.111695 200.542116 
L 236.314053 210.812574 
L 236.921124 272.414903 
L 237.325839 288.157494 
L 237.528196 291.261092 
L 237.730553 289.157996 
L 238.135267 265.41139 
L 238.539982 243.808717 
L 239.349411 213.140272 
L 239.754125 203.216927 
L 240.15884 193.089398 
L 240.361197 192.844377 
L 240.563554 198.255254 
L 240.968268 215.712991 
L 241.170626 223.226964 
L 241.777697 278.295404 
L 242.182412 294.017576 
L 242.384769 296.488203 
L 242.587126 293.527535 
L 242.99184 269.025448 
L 243.396555 251.220598 
L 245.21777 177.203878 
L 245.420127 181.41007 
L 246.027199 207.974415 
L 246.836627 280.827286 
L 247.038985 289.117159 
L 247.241342 292.261593 
L 247.443699 289.75013 
L 247.848413 266.391474 
L 249.467271 155.356184 
L 249.669628 147.352169 
L 249.871985 145.432839 
L 250.074343 145.596186 
L 250.2767 152.477189 
L 250.883772 184.309483 
L 251.6932 258.632479 
L 252.097915 273.027455 
L 252.300272 276.069798 
L 252.502629 276.335237 
L 252.704986 272.496577 
L 253.109701 240.031312 
L 253.91913 167.464299 
L 254.323844 151.803382 
L 254.728558 143.064304 
L 254.930916 141.818781 
L 255.133273 149.251081 
L 255.740345 186.392161 
L 256.549773 260.939759 
L 256.954488 276.273982 
L 257.156845 280.051387 
L 257.359202 281.705278 
L 257.561559 280.745613 
L 257.966274 252.119008 
L 258.573345 202.175588 
L 258.97806 180.695426 
L 259.382774 169.771579 
L 259.585131 166.361705 
L 259.787489 165.932918 
L 259.989846 168.526056 
L 260.39456 184.370739 
L 260.596917 197.601865 
L 261.203989 259.040848 
L 261.608704 277.58076 
L 261.811061 280.480173 
L 262.013418 279.704274 
L 262.418132 255.957668 
L 262.62049 244.053738 
L 263.025204 234.477506 
L 263.227561 231.700603 
L 263.429918 230.700101 
L 263.834633 231.966042 
L 264.03699 231.659766 
L 264.239347 232.599012 
L 264.441704 232.680686 
L 264.644062 232.415247 
L 264.846419 234.436669 
L 265.048776 238.438676 
L 265.251133 238.438676 
L 265.45349 242.420265 
L 266.060562 284.502599 
L 266.465277 297.223266 
L 266.667634 298.754646 
L 266.869991 294.60971 
L 267.072348 286.728205 
L 267.477063 260.470136 
L 268.084134 238.499932 
L 268.488849 228.311147 
L 269.09592 217.162698 
L 269.500635 213.242364 
L 269.702992 215.406715 
L 269.905349 218.979936 
L 270.107706 219.653743 
L 270.310063 225.901775 
L 270.917135 274.313815 
L 271.32185 286.176909 
L 271.524207 288.300423 
L 271.726564 286.605695 
L 274.15485 146.310831 
L 274.357208 139.205226 
L 274.559565 142.513007 
L 275.166636 167.44388 
L 275.976065 248.280348 
L 276.38078 260.735575 
L 276.583137 260.041349 
L 276.987851 238.39784 
L 277.392566 209.750817 
L 278.404352 153.314344 
L 278.606709 150.29242 
L 279.011423 137.183803 
L 279.213781 135.591168 
L 279.416138 139.817778 
L 280.023209 181.165049 
L 280.630281 251.873987 
L 281.034995 274.456744 
L 281.237353 279.295906 
L 281.43971 277.764525 
L 281.642067 271.924861 
L 282.249139 230.536753 
L 282.85621 197.193497 
L 283.867996 154.784469 
L 284.070354 153.600201 
L 284.272711 161.68589 
L 285.284497 244.03332 
L 285.689211 275.926869 
L 286.093926 290.546447 
L 286.296283 292.81289 
L 286.49864 291.016071 
L 286.700997 288.096239 
L 287.105712 257.34612 
L 287.712783 206.238851 
L 288.522212 163.176434 
L 288.724569 156.111665 
L 288.926927 154.192335 
L 289.129284 157.745138 
L 289.736355 191.27216 
L 290.545784 260.755994 
L 290.950499 275.906451 
L 291.152856 278.662935 
L 291.355213 278.744609 
L 291.55757 277.274484 
L 291.759927 264.90093 
L 292.771714 167.055931 
L 293.176428 145.249074 
L 293.581142 134.100624 
L 293.7835 132.385478 
L 293.985857 135.877025 
L 294.592928 161.195848 
L 295.402357 243.788299 
L 295.807072 258.36704 
L 296.009429 258.203693 
L 296.414143 238.071145 
L 297.830644 104.044731 
L 298.235358 90.834023 
L 298.437715 88.261304 
L 298.640073 88.526743 
L 298.84243 90.568584 
L 299.044787 98.55218 
L 299.449501 125.341128 
L 300.056573 203.809061 
L 300.461287 228.882863 
L 300.663645 234.865455 
L 300.866002 235.5801 
L 301.068359 228.801189 
L 301.473073 198.94948 
L 302.484859 94.345989 
L 302.687217 83.095447 
L 302.889574 83.197539 
L 303.091931 91.242391 
L 303.496646 99.83854 
L 303.90136 121.951673 
L 304.306074 149.720704 
L 304.913146 218.510313 
L 305.31786 243.706625 
L 305.520218 249.240013 
L 305.722575 247.463612 
L 305.924932 240.378425 
L 306.532004 200.664626 
L 307.54379 131.0787 
L 307.746147 120.930753 
L 307.948504 120.052761 
L 308.757933 152.130076 
L 309.162647 178.041033 
L 309.769719 240.664283 
L 310.174433 260.429299 
L 310.376791 264.798838 
L 310.579148 264.227123 
L 310.983862 240.95014 
L 312.198005 137.530916 
L 312.60272 125.974099 
L 312.805077 121.624978 
L 313.007434 122.176275 
L 313.209791 125.851588 
L 313.816863 153.273507 
L 314.01922 166.872165 
L 314.626292 229.087047 
L 315.031006 249.464615 
L 315.233364 254.01792 
L 315.435721 253.364531 
L 315.840435 234.702108 
L 316.24515 216.100941 
L 316.649864 204.156174 
L 317.054578 188.944461 
L 317.66165 181.471325 
L 317.864007 181.02212 
L 318.066364 180.12371 
L 318.268722 184.779107 
L 318.875793 206.790148 
L 319.685222 265.043859 
L 320.089937 277.744107 
L 320.292294 279.37758 
L 320.697008 271.496075 
L 321.101723 245.421771 
L 322.315866 167.954341 
L 322.72058 157.765556 
L 322.922937 155.458276 
L 323.125295 159.562376 
L 323.732366 187.025131 
L 324.541795 255.161351 
L 324.94651 269.372561 
L 325.148867 272.251556 
L 325.351224 272.312811 
L 325.553581 270.066787 
L 325.755938 257.815743 
L 326.970082 146.06581 
L 327.172439 139.776941 
L 327.374796 138.204724 
L 327.77951 132.671336 
L 327.981868 137.633008 
L 328.184225 146.372086 
L 328.791296 197.724376 
L 329.196011 241.195161 
L 329.398368 256.345618 
L 329.803083 266.391474 
L 330.00544 265.452227 
L 330.207797 259.878002 
L 330.814869 211.649728 
L 331.42194 173.651076 
L 331.826655 151.109156 
L 332.029012 148.230161 
L 332.231369 148.250579 
L 332.433726 148.434345 
L 332.636083 150.517022 
L 332.838441 155.02949 
L 333.243155 177.81643 
L 333.445512 186.78011 
L 334.052584 252.119008 
L 334.457298 273.782936 
L 334.659655 279.173395 
L 334.862013 276.784442 
L 335.266727 257.060262 
L 335.671442 232.844033 
L 336.48087 192.966887 
L 336.683228 187.923541 
L 336.885585 186.820947 
L 337.087942 180.675007 
L 337.290299 178.837351 
L 337.695014 185.269148 
L 338.099728 199.643706 
L 338.302085 205.48337 
L 339.111514 270.92436 
L 339.313871 277.090718 
L 339.516228 279.316324 
L 339.718586 275.27348 
L 340.1233 252.057753 
L 340.932729 207.851905 
L 342.349229 146.453759 
L 342.551587 146.372086 
L 343.158658 170.915009 
L 343.76573 233.313657 
L 344.170444 251.220598 
L 344.372801 255.957668 
L 344.575159 253.834154 
L 344.777516 246.953152 
L 345.18223 216.24387 
L 346.194016 134.080206 
L 346.598731 119.399372 
L 347.003445 112.824646 
L 347.205802 111.987491 
L 347.40816 115.152344 
L 347.610517 122.952175 
L 348.015231 148.903968 
L 348.82466 239.500433 
L 349.229374 256.508965 
L 349.431732 255.753484 
L 349.634089 249.995494 
L 349.836446 238.928718 
L 351.050589 135.101126 
L 351.455304 116.847071 
L 351.860018 108.046739 
L 352.062375 107.148329 
L 352.264733 110.762387 
L 352.46709 121.788326 
L 353.276519 204.401194 
L 353.681233 242.113989 
L 354.085947 262.185282 
L 354.288305 267.432812 
L 354.490662 268.004528 
L 354.693019 265.778921 
L 355.097733 223.982445 
L 355.704805 150.578277 
L 356.109519 126.014936 
L 356.716591 107.924228 
L 356.918948 106.842053 
L 357.121306 111.61996 
L 357.52602 137.10213 
L 357.728377 149.720704 
L 358.740163 244.66629 
L 359.144878 257.570722 
L 359.347235 259.428797 
L 359.549592 259.102103 
L 359.751949 245.17675 
L 360.763735 125.218618 
L 361.16845 106.249919 
L 361.573164 95.203562 
L 361.775521 92.9167 
L 361.977879 96.183645 
L 362.180236 103.146321 
L 362.58495 128.791839 
L 363.394379 217.060606 
L 363.799093 234.620435 
L 364.001451 235.437171 
L 364.203808 229.577088 
L 364.406165 219.57207 
L 365.013237 150.353675 
L 365.620308 86.117371 
L 366.025023 70.027668 
L 366.429737 63.881728 
L 366.632094 64.371769 
L 366.834451 67.005744 
L 367.036809 75.683566 
L 367.441523 104.738957 
L 368.048595 184.003207 
L 368.453309 214.385795 
L 368.655666 222.879851 
L 368.858024 225.248386 
L 369.060381 221.368889 
L 369.262738 211.547636 
L 369.86981 148.291416 
L 370.476881 90.3644 
L 370.881596 73.805073 
L 371.083953 73.355868 
L 371.28631 74.070512 
L 371.488667 77.990846 
L 371.691024 84.198041 
L 372.298096 123.033848 
L 373.107525 207.729394 
L 373.512239 229.883364 
L 373.714597 234.232485 
L 374.119311 233.538259 
L 374.321668 220.838011 
L 375.333454 117.357532 
L 375.738169 104.146823 
L 375.940526 101.451594 
L 376.142883 100.349 
L 376.34524 105.514856 
L 376.749955 131.670834 
L 377.559383 190.394168 
L 377.964098 224.94211 
L 378.368812 238.704116 
L 378.57117 238.928718 
L 378.773527 233.007381 
L 378.975884 221.818094 
L 380.392384 105.494438 
L 380.797099 95.591511 
L 381.201813 88.016283 
L 381.40417 91.773269 
L 382.011242 128.710165 
L 382.820671 211.384289 
L 383.225385 227.453574 
L 383.427743 228.106963 
L 383.6301 222.777759 
L 384.034814 200.582953 
L 385.0466 127.301295 
L 385.451315 110.639876 
L 385.653672 110.170253 
L 385.856029 113.947658 
L 386.058386 121.563723 
L 387.070172 191.415088 
L 387.474887 231.455582 
L 387.879601 253.303276 
L 388.284316 262.430303 
L 388.68903 264.941767 
L 388.891387 259.204195 
L 389.700816 215.733409 
L 390.307888 204.544123 
L 390.914959 191.823457 
L 391.117316 196.601363 
L 391.926745 236.110978 
L 392.533817 280.235153 
L 392.938531 292.588288 
L 393.140888 294.446363 
L 393.343246 293.997158 
L 393.545603 294.466781 
L 393.74796 285.52352 
L 394.355032 244.421269 
L 395.569175 188.025633 
L 395.771532 182.022622 
L 395.973889 183.227308 
L 396.176247 191.537599 
L 396.783318 233.517841 
L 397.188033 271.986117 
L 397.592747 289.790966 
L 397.795104 292.567869 
L 397.997461 290.035987 
L 398.402176 271.924861 
L 400.628105 144.473174 
L 400.830462 147.311333 
L 401.03282 157.255096 
L 401.639891 214.222447 
L 402.044606 258.509969 
L 402.44932 278.805864 
L 402.651677 282.807872 
L 402.854034 281.153981 
L 403.258749 262.9816 
L 403.663463 234.600016 
L 404.877607 128.689747 
L 405.282321 108.189668 
L 405.484678 103.983476 
L 405.687035 105.065651 
L 405.889393 115.560712 
L 406.294107 152.885557 
L 406.901179 230.210059 
L 407.305893 254.242522 
L 407.50825 259.837165 
L 407.710607 259.306287 
L 408.115322 238.091564 
L 409.73418 105.964061 
L 409.936537 101.043226 
L 410.138894 100.900297 
L 410.341251 105.494438 
L 410.948323 141.553342 
L 411.15068 157.438862 
L 411.757752 227.943616 
L 412.162466 251.976079 
L 412.364823 258.448714 
L 412.56718 260.225115 
L 412.971895 242.195663 
L 414.388395 144.228153 
L 414.79311 130.711169 
L 415.197824 124.054769 
L 415.400181 130.813261 
L 416.20961 193.273163 
L 416.614325 238.438676 
L 417.019039 261.470638 
L 417.221396 265.717666 
L 417.423753 265.166369 
L 417.828468 249.035829 
L 419.244968 151.456269 
L 419.649683 137.878029 
L 419.85204 134.059787 
L 420.054397 135.489076 
L 420.256754 144.126061 
L 421.066183 209.240357 
L 421.673255 264.165867 
L 422.077969 280.194316 
L 422.280326 282.664943 
L 422.482684 282.011554 
L 422.685041 281.848207 
L 423.089755 251.20018 
L 423.899184 182.390153 
L 424.708613 143.227651 
L 424.91097 140.062799 
L 425.113327 144.044388 
L 425.518042 170.057436 
L 425.720399 181.798019 
L 426.529828 256.05976 
L 426.934542 274.538417 
L 427.136899 278.98963 
L 427.339257 279.785948 
L 427.541614 280.01055 
L 427.743971 271.455238 
L 428.148685 231.312653 
L 428.755757 169.75116 
L 429.160471 144.248572 
L 429.565186 136.040373 
L 429.9699 139.940288 
L 430.374615 156.070829 
L 430.576972 167.648064 
L 431.386401 243.216583 
L 431.791115 255.385953 
L 431.993472 253.364531 
L 432.398187 233.170728 
L 433.207616 168.444382 
L 434.017044 98.470506 
L 434.219402 93.610926 
L 435.02883 120.869497 
L 435.433545 145.718697 
L 436.040617 216.509309 
L 436.445331 238.9083 
L 436.647688 244.012901 
L 436.850045 243.339094 
L 437.25476 222.859433 
L 437.659474 188.148144 
L 438.468903 115.111507 
L 438.67126 105.433183 
L 438.873617 106.392848 
L 439.075975 113.457616 
L 439.278332 113.008411 
L 439.480689 115.234017 
L 439.885403 133.671838 
L 440.290118 158.276016 
L 440.897189 231.251398 
L 441.301904 253.425786 
L 441.504261 258.816245 
L 441.706618 259.347124 
L 442.111333 244.707127 
L 442.920762 193.007724 
L 443.527833 158.35769 
L 444.134905 135.754515 
L 444.337262 133.181796 
L 444.539619 139.552338 
L 445.146691 184.329902 
L 445.753762 253.078673 
L 446.158477 274.150468 
L 446.360834 279.071303 
L 446.563191 277.090718 
L 446.967906 258.305785 
L 448.586763 149.210244 
L 448.991478 136.101628 
L 449.193835 133.794348 
L 449.396192 140.409911 
L 450.003264 180.532078 
L 450.812693 260.061768 
L 451.217407 273.272476 
L 451.419764 273.394987 
L 451.824479 256.3252 
L 452.43155 206.238851 
L 453.038622 164.605722 
L 453.443336 147.678864 
L 453.848051 139.858615 
L 454.050408 143.207233 
L 454.252765 153.130578 
L 454.65748 181.348815 
L 454.859837 189.740779 
L 455.669266 254.038338 
L 456.07398 267.494067 
L 456.276337 269.005029 
L 456.478694 267.024444 
L 456.681052 263.941265 
L 456.883409 255.998505 
L 457.288123 229.16872 
L 457.692838 218.28571 
L 457.895195 218.979936 
L 458.299909 224.697089 
L 458.502267 224.554161 
L 458.906981 220.756337 
L 459.109338 221.287216 
L 459.514053 225.411734 
L 459.71641 229.67918 
L 460.728196 286.993645 
L 461.13291 291.383602 
L 461.537625 288.096239 
L 461.739982 279.234651 
L 462.144696 244.972566 
L 463.561197 176.28505 
L 463.763554 169.077353 
L 463.965911 170.241202 
L 464.572983 189.577432 
L 465.382412 256.080179 
L 465.584769 262.940763 
L 465.787126 265.635993 
L 465.989483 263.226621 
L 467.608341 171.343796 
L 468.620127 150.312838 
L 468.822484 153.416436 
L 469.429556 179.470321 
L 470.036627 235.784284 
L 470.441342 253.446204 
L 470.643699 256.05976 
L 470.846056 253.50746 
L 471.857842 202.951488 
L 472.869628 172.916013 
L 473.071985 173.406055 
L 473.274343 171.629654 
L 473.4767 172.875176 
L 473.679057 176.632163 
L 473.881414 183.166053 
L 474.083772 184.309483 
L 474.286129 191.925549 
L 474.8932 243.665788 
L 475.297915 259.796329 
L 475.500272 261.450219 
L 475.702629 259.428797 
L 476.107344 235.232987 
L 476.512058 213.385293 
L 477.321487 182.124714 
L 477.726201 162.114677 
L 477.928558 158.582292 
L 478.333273 163.237689 
L 478.53563 167.668483 
L 479.142702 192.41559 
L 479.952131 259.694237 
L 480.356845 269.474653 
L 480.559202 269.066285 
L 480.963917 247.136917 
L 482.785131 119.68523 
L 482.987489 113.825147 
L 483.189846 111.211592 
L 483.392203 116.806235 
L 483.999275 156.377105 
L 484.606346 226.963533 
L 485.011061 250.015912 
L 485.213418 254.385451 
L 485.415775 255.324698 
L 485.82049 235.70261 
L 486.225204 204.727889 
L 487.23699 115.417783 
L 487.439347 112.355022 
L 487.844062 118.868494 
L 488.248776 137.347151 
L 489.260562 214.304121 
L 489.665277 246.218089 
L 490.069991 261.205199 
L 490.272348 263.532897 
L 490.474705 262.409885 
L 490.677063 260.653902 
L 490.87942 250.995996 
L 491.891206 171.874674 
L 492.29592 154.294427 
L 492.498277 146.96422 
L 492.700635 144.963216 
L 492.902992 146.57627 
L 493.105349 151.354177 
L 493.712421 184.615759 
L 494.52185 256.05976 
L 495.128921 274.191304 
L 495.331278 274.334233 
L 495.533636 273.721681 
L 495.735993 266.228126 
L 496.950136 175.427477 
L 497.557208 151.252085 
L 497.759565 147.923885 
L 497.961922 151.109156 
L 498.568994 182.369735 
L 499.378422 255.610555 
L 499.58078 262.389466 
L 499.783137 264.860093 
L 499.985494 261.57273 
L 500.187851 253.11951 
L 500.794923 216.48889 
L 500.99728 211.425126 
L 501.401995 198.43902 
L 501.806709 187.270152 
L 502.009066 186.820947 
L 502.211423 188.862788 
L 502.413781 189.495758 
L 502.616138 187.841868 
L 503.020852 197.479355 
L 503.223209 198.030652 
L 503.425567 205.48337 
L 504.032638 255.773903 
L 504.437353 268.73959 
L 504.63971 270.352644 
L 504.842067 268.004528 
L 505.246782 243.829135 
L 505.651496 220.20504 
L 507.270354 147.638027 
L 507.472711 144.554848 
L 507.675068 147.923885 
L 508.28214 175.733753 
L 508.889211 233.293238 
L 509.293926 250.281352 
L 509.496283 253.772899 
L 509.69864 251.955661 
L 510.103354 228.597005 
L 511.722212 123.074685 
L 512.126927 105.453601 
L 512.329284 107.025818 
L 512.936355 141.124556 
L 513.34107 179.756179 
L 513.745784 222.879851 
L 514.150499 245.421771 
L 514.352856 250.955159 
L 514.555213 251.445201 
L 514.75757 242.62445 
L 516.174071 146.637525 
L 516.376428 145.55535 
L 516.781142 154.804887 
L 516.9835 152.089239 
L 517.185857 152.620118 
L 517.590571 170.179947 
L 517.792928 174.386138 
L 517.995286 185.003709 
L 518.4 224.349977 
L 518.4 224.349977 
" clip-path="url(#pbf5b7eb2b5)" style="fill: none; stroke: #1f77b4; stroke-width: 1.5; stroke-linecap: square"/>
   </g>
   <g id="line2d_14">
    <path d="M 72 278.133583 
L 72.202357 278.133583 
L 72.607072 286.140411 
L 72.809429 286.823019 
L 73.011786 280.266043 
L 73.618858 246.997204 
L 74.225929 220.74825 
L 75.237715 162.654248 
L 75.440073 162.505189 
L 75.64243 168.747565 
L 76.047144 188.563331 
L 77.05893 275.944732 
L 77.261287 280.61394 
L 77.463645 279.101166 
L 77.666002 274.289152 
L 78.070716 251.060731 
L 78.475431 234.215935 
L 79.082502 200.872413 
L 79.689574 158.826618 
L 79.891931 149.670748 
L 80.094288 149.041566 
L 80.296646 157.328395 
L 81.106074 223.345537 
L 81.510789 257.414936 
L 82.11786 281.415637 
L 82.320218 282.138064 
L 82.927289 267.691545 
L 83.129646 261.981685 
L 83.736718 234.730329 
L 83.939075 230.947768 
L 84.141432 229.581023 
L 84.546147 231.903737 
L 85.153218 243.32714 
L 85.962647 265.474139 
L 86.569719 294.71464 
L 86.772076 299.068797 
L 86.974433 300.450505 
L 87.176791 300.680392 
L 87.379148 297.010436 
L 87.986219 276.289001 
L 88.390934 259.064491 
L 88.593291 255.003462 
L 88.795648 255.182704 
L 88.998005 256.320539 
L 89.200363 256.144854 
L 89.40272 254.769602 
L 89.605077 251.391702 
L 90.009791 238.767923 
L 90.212149 237.486711 
L 90.616863 241.639208 
L 90.81922 250.52507 
L 91.426292 296.763859 
L 91.628649 302.351819 
L 91.831006 303.357118 
L 92.033364 300.558189 
L 92.235721 292.776893 
L 92.842792 253.884792 
L 93.04515 248.907196 
L 93.449864 246.442202 
L 94.259293 230.264095 
L 94.46165 230.498089 
L 94.664007 230.095131 
L 94.866364 231.079324 
L 95.473436 239.312826 
L 96.485222 299.864131 
L 96.687579 298.035334 
L 96.889937 293.101792 
L 97.294651 271.737401 
L 97.699365 250.81095 
L 98.10408 244.714064 
L 98.306437 241.993215 
L 98.508794 242.399924 
L 98.711151 241.947616 
L 99.318223 226.804924 
L 99.722937 225.138873 
L 100.127652 234.411235 
L 100.330009 240.253079 
L 101.341795 297.124061 
L 101.544152 296.805203 
L 101.74651 293.171016 
L 102.151224 273.279461 
L 102.555938 249.474178 
L 102.758296 248.329558 
L 103.16301 243.525448 
L 103.365367 243.878635 
L 103.567724 241.59997 
L 103.770082 235.419435 
L 103.972439 225.685713 
L 104.377153 220.154496 
L 104.57951 220.996692 
L 104.781868 223.922706 
L 105.186582 238.030643 
L 105.591296 267.494127 
L 105.996011 290.887668 
L 106.198368 295.445334 
L 106.400725 295.343034 
L 106.603083 291.49405 
L 106.80544 284.189783 
L 107.412511 249.079317 
L 107.817226 242.857915 
L 108.22194 238.227273 
L 108.424297 230.529976 
L 108.829012 203.797454 
L 109.031369 197.143504 
L 109.233726 200.565888 
L 109.436083 209.520647 
L 109.638441 213.434872 
L 109.840798 219.76636 
L 110.447869 264.300126 
L 110.852584 286.346034 
L 111.054941 291.422953 
L 111.257298 292.266838 
L 111.662013 284.009886 
L 112.673799 233.055667 
L 113.887942 179.047699 
L 114.090299 177.866398 
L 114.292656 181.788755 
L 114.495014 187.88356 
L 114.899728 213.117599 
L 115.304442 250.136008 
L 115.911514 280.809305 
L 116.113871 284.071419 
L 116.316228 284.497049 
L 116.518586 280.786164 
L 117.125657 260.114496 
L 117.530372 234.419852 
L 118.339801 170.022249 
L 118.744515 151.525496 
L 118.946872 148.215128 
L 119.149229 148.260082 
L 119.351587 154.174765 
L 119.756301 184.0055 
L 120.56573 261.459958 
L 120.970444 278.167311 
L 121.172801 281.983262 
L 121.375159 281.631358 
L 121.779873 270.881812 
L 122.184587 247.883963 
L 122.791659 213.861158 
L 123.196374 198.97893 
L 123.601088 190.668225 
L 123.803445 193.666361 
L 124.410517 214.548726 
L 124.815231 236.928917 
L 125.422303 287.414441 
L 125.62466 293.206437 
L 125.827017 294.178765 
L 126.029374 291.855939 
L 126.231732 285.629717 
L 127.243518 223.177302 
L 127.850589 190.772525 
L 128.457661 154.29079 
L 128.660018 151.375997 
L 128.862375 156.457208 
L 129.469447 201.467829 
L 129.874161 254.63221 
L 130.278876 280.433516 
L 130.481233 286.45293 
L 130.68359 287.952016 
L 130.885947 284.319583 
L 131.088305 276.508474 
L 133.111877 141.249759 
L 133.314234 135.505291 
L 133.516591 136.433359 
L 133.921306 153.780562 
L 134.32602 179.032981 
L 134.933092 250.363247 
L 135.337806 270.972427 
L 135.540163 272.941606 
L 135.74252 271.09801 
L 135.944878 264.8394 
L 136.349592 238.015667 
L 136.956664 201.774621 
L 137.159021 204.590414 
L 137.361378 198.422019 
L 137.563735 198.835235 
L 137.96845 190.511298 
L 138.170807 193.255973 
L 138.373164 199.366874 
L 138.575521 197.396355 
L 138.777879 201.084914 
L 139.182593 219.36399 
L 139.789665 271.012518 
L 139.992022 280.970433 
L 140.194379 283.851617 
L 140.396736 283.340886 
L 140.599093 279.763685 
L 140.801451 273.511953 
L 141.610879 227.352483 
L 142.217951 214.985909 
L 142.420308 215.399172 
L 142.622665 213.344812 
L 142.825023 207.004621 
L 143.229737 210.664096 
L 144.039166 226.154965 
L 144.848595 277.29675 
L 145.050952 283.008687 
L 145.455666 277.081395 
L 145.658024 269.754539 
L 146.265095 232.903495 
L 146.66981 219.813797 
L 146.872167 213.56573 
L 147.074524 213.258909 
L 147.276881 214.791917 
L 147.681596 202.079573 
L 148.08631 215.413939 
L 148.491024 225.558907 
L 148.895739 237.83026 
L 149.705168 278.950501 
L 150.109882 284.096873 
L 150.312239 280.926025 
L 151.324025 249.823011 
L 151.72874 232.217418 
L 151.931097 230.744329 
L 152.335811 233.381281 
L 152.740526 233.145711 
L 152.942883 233.626256 
L 153.347597 235.839536 
L 153.954669 247.188721 
L 154.764098 281.712136 
L 154.966455 284.811801 
L 155.168812 284.882866 
L 155.37117 282.067383 
L 155.775884 271.638977 
L 156.382956 236.503413 
L 156.990027 190.644436 
L 157.799456 161.3168 
L 158.001813 158.085548 
L 158.20417 159.51737 
L 158.608885 185.754769 
L 159.620671 276.103653 
L 159.823028 279.599778 
L 160.025385 278.853318 
L 160.227743 272.936024 
L 161.441886 194.373155 
L 161.8466 178.709186 
L 162.251315 167.756813 
L 162.453672 166.718518 
L 162.858386 183.237506 
L 163.465458 209.702401 
L 164.274887 280.352651 
L 164.477244 285.299472 
L 164.679601 286.78155 
L 164.881958 281.292033 
L 165.286673 259.359446 
L 165.691387 233.221683 
L 166.096102 217.322296 
L 166.500816 210.577382 
L 166.703173 203.839522 
L 167.310245 169.122401 
L 167.512602 170.212671 
L 168.119674 198.350046 
L 168.524388 227.323098 
L 168.929102 261.953949 
L 169.333817 278.038422 
L 169.536174 278.958576 
L 169.738531 276.520686 
L 169.940888 269.540357 
L 170.54796 229.812526 
L 171.357389 175.294859 
L 171.964461 154.793192 
L 172.166818 150.76936 
L 172.369175 155.530652 
L 172.976247 183.196338 
L 173.380961 219.279396 
L 173.785675 260.53384 
L 174.19039 280.509866 
L 174.392747 282.895477 
L 174.595104 280.508446 
L 174.797461 274.407286 
L 175.60689 224.218527 
L 175.809248 218.223063 
L 176.821034 170.971598 
L 177.023391 166.289322 
L 177.225748 165.221306 
L 177.630462 179.142792 
L 178.035177 205.343489 
L 178.642248 269.383905 
L 179.046963 286.35001 
L 179.24932 287.824187 
L 179.451677 285.431952 
L 179.654034 278.726246 
L 181.879964 149.470328 
L 182.082321 149.055484 
L 182.487035 159.675106 
L 182.89175 191.011932 
L 183.498821 248.229007 
L 183.903536 265.425184 
L 184.105893 269.82331 
L 184.30825 269.013239 
L 184.712965 261.026374 
L 184.915322 255.536753 
L 185.320036 225.782459 
L 185.927108 163.698379 
L 186.129465 148.464192 
L 186.53418 140.525025 
L 186.736537 141.981538 
L 186.938894 149.815186 
L 188.760109 263.619881 
L 189.164823 269.244218 
L 189.36718 267.663796 
L 189.771895 251.923319 
L 190.176609 224.121337 
L 190.986038 167.307869 
L 191.188395 160.700723 
L 191.390752 158.372743 
L 191.59311 157.879248 
L 191.795467 162.34501 
L 193.211967 244.938043 
L 193.616682 269.602007 
L 193.819039 274.87774 
L 194.021396 276.071941 
L 194.223753 271.530642 
L 195.033182 230.279731 
L 195.640254 195.382647 
L 195.842611 188.731027 
L 196.044968 191.410753 
L 196.65204 210.670084 
L 196.854397 212.179878 
L 197.259112 220.291357 
L 197.461469 223.585691 
L 197.866183 246.501092 
L 198.270898 276.848631 
L 198.675612 287.322945 
L 198.877969 284.391213 
L 199.080326 274.753018 
L 199.889755 218.21151 
L 201.306256 169.062999 
L 201.508613 165.635028 
L 201.71097 168.067401 
L 202.115684 184.159375 
L 202.520399 211.905656 
L 203.127471 265.418579 
L 203.329828 272.784187 
L 203.532185 274.075484 
L 203.734542 269.162596 
L 204.139257 246.723759 
L 204.543971 218.081526 
L 205.555757 176.924852 
L 205.960471 165.197291 
L 206.162829 163.829458 
L 207.174615 204.606751 
L 207.781686 252.763228 
L 208.186401 268.770985 
L 208.388758 270.167665 
L 208.591115 267.436154 
L 208.793472 260.505462 
L 209.602901 209.235034 
L 210.614687 167.427275 
L 211.019402 143.31369 
L 211.221759 141.34505 
L 211.626473 158.396417 
L 212.031188 182.423791 
L 212.840617 254.330985 
L 213.042974 263.009908 
L 213.245331 265.697873 
L 213.447688 263.263645 
L 213.650045 257.189351 
L 215.875975 113.025038 
L 216.078332 115.725302 
L 216.483046 128.74235 
L 217.090118 180.096351 
L 217.494832 225.443467 
L 218.101904 256.630642 
L 218.304261 256.211205 
L 218.708976 248.022403 
L 218.911333 243.200602 
L 219.316047 219.486934 
L 220.125476 158.697053 
L 220.327833 150.767642 
L 220.53019 149.812327 
L 220.732548 154.696536 
L 222.351405 254.077567 
L 222.75612 271.265037 
L 223.160834 275.923831 
L 223.363191 273.050164 
L 223.767906 257.257712 
L 224.577335 215.859038 
L 224.779692 212.071151 
L 224.982049 211.783231 
L 225.386763 223.145762 
L 226.398549 238.59471 
L 226.600907 240.454553 
L 227.005621 260.186318 
L 227.410335 288.267841 
L 227.612693 295.21706 
L 227.81505 297.638749 
L 228.017407 296.785964 
L 228.219764 288.359727 
L 229.029193 239.199473 
L 229.23155 240.554617 
L 229.433908 239.487255 
L 229.838622 225.177018 
L 230.648051 186.810356 
L 230.850408 186.566672 
L 231.052765 190.49832 
L 231.255122 197.646706 
L 231.659837 227.002863 
L 232.266908 280.63174 
L 232.469266 288.044001 
L 232.671623 290.007809 
L 232.87398 286.407455 
L 233.076337 280.149633 
L 234.088123 226.519847 
L 234.290481 218.549955 
L 234.897552 187.628871 
L 235.302267 176.708468 
L 235.504624 177.610084 
L 236.111695 200.149704 
L 236.51641 232.652167 
L 237.123481 278.092679 
L 237.325839 284.364903 
L 237.528196 285.290447 
L 237.730553 283.328184 
L 237.93291 276.62401 
L 239.147053 211.304291 
L 239.551768 200.33128 
L 239.956482 192.784946 
L 240.15884 191.845304 
L 240.361197 193.023209 
L 240.968268 211.933086 
L 241.372983 241.162478 
L 241.980054 281.6097 
L 242.182412 286.812847 
L 242.384769 288.646705 
L 242.587126 286.188968 
L 242.789483 280.054583 
L 243.396555 242.929557 
L 243.801269 230.135728 
L 245.015413 183.2233 
L 245.21777 180.288764 
L 245.622484 189.147248 
L 246.027199 210.895637 
L 246.836627 274.39263 
L 247.241342 285.959962 
L 247.443699 283.63692 
L 247.646056 278.218703 
L 248.455485 230.128509 
L 249.669628 144.151776 
L 249.871985 137.636448 
L 250.074343 140.609704 
L 250.681414 173.215146 
L 251.895558 265.90478 
L 252.097915 269.920437 
L 252.300272 270.131916 
L 252.502629 267.35586 
L 252.907344 254.636744 
L 253.312058 227.144662 
L 254.121487 151.694979 
L 254.526201 142.411615 
L 254.728558 140.824457 
L 254.930916 143.50173 
L 255.33563 159.026071 
L 255.942702 207.078268 
L 256.347416 243.848973 
L 256.752131 267.615046 
L 256.954488 273.587943 
L 257.156845 275.831367 
L 257.359202 273.752874 
L 257.763917 259.666337 
L 258.168631 233.18786 
L 258.97806 177.823311 
L 259.382774 167.974066 
L 259.585131 164.671203 
L 259.787489 165.072266 
L 259.989846 169.827582 
L 260.39456 186.784576 
L 260.799275 214.307352 
L 261.608704 277.574971 
L 261.811061 281.759738 
L 262.013418 280.121698 
L 262.215775 274.26673 
L 263.025204 222.544073 
L 263.227561 219.329244 
L 263.632276 221.668523 
L 263.834633 222.074553 
L 264.03699 224.992805 
L 264.239347 225.897086 
L 264.441704 229.715014 
L 264.644062 230.405282 
L 264.846419 230.497611 
L 265.048776 232.228142 
L 265.45349 242.646858 
L 266.465277 293.427008 
L 266.667634 292.38999 
L 267.072348 279.098543 
L 267.881777 242.694259 
L 269.09592 211.814703 
L 269.298277 209.717017 
L 269.500635 210.584821 
L 269.702992 213.441075 
L 270.107706 224.671379 
L 270.512421 240.135509 
L 271.119492 276.784301 
L 271.32185 281.614823 
L 271.524207 282.203367 
L 271.726564 279.410566 
L 271.928921 273.587106 
L 273.345422 193.283242 
L 273.750136 169.331988 
L 274.15485 148.689663 
L 274.357208 145.318836 
L 274.559565 144.59863 
L 274.761922 148.153583 
L 275.166636 169.628654 
L 276.178422 256.228051 
L 276.38078 260.258413 
L 276.583137 258.566773 
L 276.785494 253.116028 
L 278.606709 142.968788 
L 279.011423 137.197378 
L 279.213781 137.274063 
L 279.618495 148.809931 
L 280.023209 179.485714 
L 280.225567 196.849553 
L 280.630281 245.965047 
L 281.034995 269.982367 
L 281.237353 273.006302 
L 281.43971 272.18975 
L 281.844424 254.412638 
L 283.058568 180.945477 
L 283.463282 168.219604 
L 283.867996 155.578639 
L 284.070354 155.747161 
L 284.272711 161.077275 
L 284.677425 186.235487 
L 285.08214 221.587143 
L 285.689211 272.789731 
L 285.891568 279.68246 
L 286.093926 281.756209 
L 286.296283 282.031583 
L 286.700997 272.70236 
L 287.105712 254.068679 
L 287.510426 226.795857 
L 288.117498 179.694327 
L 288.724569 157.760258 
L 288.926927 154.349588 
L 289.129284 157.46371 
L 289.533998 178.024041 
L 290.545784 262.358894 
L 290.950499 274.53429 
L 291.152856 275.797224 
L 291.355213 274.261105 
L 291.759927 261.46136 
L 292.164642 231.570161 
L 292.771714 172.860042 
L 293.176428 143.223862 
L 293.581142 132.810137 
L 293.7835 129.256902 
L 293.985857 134.388723 
L 294.592928 170.712322 
L 294.795286 184.122819 
L 295.402357 246.76671 
L 295.604714 257.580049 
L 295.807072 262.250708 
L 296.009429 262.391816 
L 296.211786 257.47022 
L 296.818858 209.500279 
L 297.830644 110.142031 
L 298.235358 87.09862 
L 298.437715 83.415299 
L 298.640073 82.600744 
L 299.247144 112.257708 
L 299.651859 148.893816 
L 300.25893 221.33256 
L 300.461287 234.495353 
L 300.663645 238.056171 
L 300.866002 235.656039 
L 301.270716 216.692172 
L 301.675431 186.663381 
L 302.889574 69.466846 
L 303.091931 69.342428 
L 304.103717 134.381423 
L 305.31786 244.521626 
L 305.520218 250.468952 
L 305.722575 247.828812 
L 305.924932 239.681342 
L 307.746147 124.289459 
L 307.948504 118.87136 
L 308.150861 121.575128 
L 308.757933 155.273693 
L 309.162647 179.122597 
L 310.174433 260.2528 
L 310.376791 263.971208 
L 310.579148 261.164327 
L 310.781505 253.34923 
L 311.590934 191.532202 
L 312.400363 125.743634 
L 312.60272 120.728563 
L 313.007434 117.350058 
L 313.209791 123.632658 
L 314.01922 173.459199 
L 315.031006 251.222163 
L 315.233364 254.572715 
L 315.435721 252.67386 
L 315.638078 244.494932 
L 316.042792 218.480883 
L 316.852221 191.753734 
L 317.459293 181.297722 
L 317.66165 181.868051 
L 317.864007 183.332298 
L 318.471079 194.752254 
L 318.875793 209.319118 
L 319.685222 262.400511 
L 320.089937 269.75578 
L 320.292294 270.974771 
L 320.494651 268.001037 
L 321.30408 234.869949 
L 321.911151 196.932949 
L 322.315866 173.845562 
L 322.72058 157.349464 
L 322.922937 156.390682 
L 323.125295 158.833614 
L 323.327652 163.136231 
L 323.732366 191.252716 
L 324.744152 261.116837 
L 324.94651 266.59279 
L 325.148867 268.719407 
L 325.351224 266.875688 
L 325.755938 254.583643 
L 326.160653 228.219816 
L 326.767724 167.657652 
L 327.172439 136.441968 
L 327.374796 131.074653 
L 327.577153 130.459389 
L 327.77951 131.034878 
L 328.184225 145.057727 
L 328.386582 156.961662 
L 329.600725 264.165512 
L 329.803083 268.615706 
L 330.00544 268.594755 
L 330.207797 262.241157 
L 330.612511 233.519115 
L 331.624297 158.758828 
L 332.029012 142.882713 
L 332.231369 142.292984 
L 332.433726 143.647979 
L 332.636083 147.984361 
L 333.040798 168.982385 
L 333.647869 206.693795 
L 334.254941 263.823613 
L 334.457298 272.259624 
L 334.659655 274.682288 
L 334.862013 273.020852 
L 335.06437 265.246038 
L 335.873799 217.257251 
L 336.076156 210.50114 
L 336.683228 184.266935 
L 336.885585 182.3334 
L 337.087942 182.93211 
L 337.290299 180.019713 
L 337.492656 181.059785 
L 338.504442 224.933074 
L 339.111514 268.178813 
L 339.313871 275.542094 
L 339.516228 277.036367 
L 339.718586 273.128213 
L 339.920943 266.034072 
L 340.730372 220.650586 
L 342.349229 152.606971 
L 342.956301 163.930071 
L 343.361015 192.106736 
L 343.76573 232.609379 
L 344.170444 253.367582 
L 344.372801 256.08387 
L 344.575159 253.84399 
L 344.777516 248.565225 
L 345.18223 225.026685 
L 345.789302 176.043149 
L 346.194016 135.995939 
L 346.801088 108.9249 
L 347.003445 108.939091 
L 347.205802 111.364372 
L 347.812874 135.194508 
L 348.419946 194.109398 
L 348.82466 232.674802 
L 349.027017 247.293244 
L 349.229374 252.473586 
L 349.431732 252.825673 
L 349.634089 245.393261 
L 350.24116 206.5804 
L 351.050589 137.8246 
L 351.455304 116.973655 
L 351.860018 108.98474 
L 352.062375 108.572674 
L 352.264733 114.251423 
L 352.669447 135.196356 
L 353.681233 240.856242 
L 354.085947 259.170209 
L 354.288305 259.490326 
L 354.490662 255.480846 
L 354.895376 240.053341 
L 355.300091 212.028937 
L 356.109519 121.196474 
L 356.311877 113.043844 
L 356.918948 104.552539 
L 357.121306 109.302295 
L 357.52602 133.568413 
L 358.537806 237.308013 
L 358.94252 255.57508 
L 359.144878 255.435681 
L 359.347235 251.963454 
L 359.954306 224.468848 
L 360.359021 180.837946 
L 360.966092 111.088409 
L 361.16845 100.521817 
L 361.573164 95.888409 
L 361.775521 90.005097 
L 361.977879 93.092158 
L 362.382593 116.641053 
L 362.989665 177.44471 
L 363.394379 224.462452 
L 363.596736 237.639277 
L 363.799093 242.774718 
L 364.001451 240.637538 
L 364.203808 233.083371 
L 364.810879 191.298749 
L 366.025023 60.564573 
L 366.22738 55.8 
L 366.632094 57.114084 
L 366.834451 65.250552 
L 367.441523 108.441745 
L 368.453309 217.102838 
L 368.655666 224.111199 
L 368.858024 223.304686 
L 369.262738 206.283401 
L 369.667452 179.871997 
L 370.679238 74.106605 
L 371.083953 61.65813 
L 371.488667 69.828512 
L 372.095739 108.489068 
L 373.309882 224.820784 
L 373.512239 231.983596 
L 373.714597 230.617369 
L 373.916954 225.841916 
L 374.524025 201.00181 
L 374.92874 160.140008 
L 375.333454 112.144715 
L 375.535811 100.893878 
L 375.738169 96.285105 
L 375.940526 95.381312 
L 376.34524 99.150274 
L 376.547597 108.252353 
L 376.952312 141.088388 
L 377.559383 195.158971 
L 378.166455 236.987144 
L 378.368812 244.884369 
L 378.57117 244.665922 
L 378.773527 236.432454 
L 379.582956 176.459661 
L 380.190027 113.379882 
L 380.594742 93.223448 
L 380.797099 92.138003 
L 380.999456 91.991853 
L 381.201813 90.301813 
L 381.40417 93.799712 
L 381.808885 117.157044 
L 382.213599 149.509539 
L 382.820671 210.818067 
L 383.023028 223.465928 
L 383.225385 226.981301 
L 383.427743 226.094589 
L 383.6301 221.145565 
L 384.237171 189.657052 
L 384.237171 189.657052 
" clip-path="url(#pbf5b7eb2b5)" style="fill: none; stroke: #ff7f0e; stroke-width: 1.5; stroke-linecap: square"/>
   </g>
   <g id="line2d_15">
    <path d="M 384.439529 175.719571 
L 385.248957 131.356949 
L 385.653672 119.615699 
L 385.856029 117.892042 
L 386.058386 118.878889 
L 386.463101 139.850629 
L 387.070172 189.662997 
L 387.677244 238.142252 
L 387.879601 245.614532 
L 388.081958 248.182071 
L 388.284316 246.048346 
L 388.68903 228.498564 
L 389.498459 192.131172 
L 390.10553 165.734809 
L 390.510245 157.687518 
L 390.712602 156.328957 
L 390.914959 159.220834 
L 391.319674 176.973897 
L 391.724388 196.672699 
L 392.33146 240.573106 
L 392.533817 249.115244 
L 392.736174 252.648207 
L 392.938531 252.136515 
L 393.140888 248.623402 
L 394.152675 212.709529 
L 395.164461 189.477177 
L 395.366818 188.346351 
L 395.569175 189.105374 
L 395.973889 198.634607 
L 396.378604 212.030357 
L 397.188033 249.987135 
L 397.39039 252.920446 
L 397.592747 252.580451 
L 397.997461 245.222971 
L 399.009248 215.742496 
L 399.616319 202.935596 
L 399.818676 200.548276 
L 400.021034 200.2625 
L 400.223391 200.618381 
L 400.425748 202.881892 
L 400.830462 212.259754 
L 402.044606 246.468812 
L 402.246963 246.303191 
L 402.44932 243.97295 
L 403.056392 231.200305 
L 404.068178 209.659355 
L 404.270535 206.580126 
L 404.472892 205.299321 
L 404.675249 205.419045 
L 404.877607 206.896867 
L 405.282321 212.311831 
L 405.687035 220.682194 
L 406.294107 234.879596 
L 406.698821 239.678129 
L 406.901179 239.7607 
L 407.103536 238.292586 
L 407.912965 225.719992 
L 408.722393 213.064787 
L 408.924751 211.633265 
L 409.127108 211.401955 
L 409.329465 212.204175 
L 410.341251 223.208382 
L 411.15068 233.013405 
L 411.353037 234.002334 
L 411.555394 234.108827 
L 411.757752 233.228023 
L 412.162466 229.653363 
L 412.971895 220.228595 
L 413.376609 217.690807 
L 413.578966 217.469338 
L 413.983681 218.563912 
L 414.79311 222.722319 
L 415.197824 224.689986 
L 415.804896 228.39112 
L 416.007253 228.937657 
L 416.20961 229.056961 
L 416.411967 228.624821 
L 416.816682 226.511268 
L 417.626111 221.632773 
L 418.030825 220.741781 
L 418.233182 220.625417 
L 418.435539 220.717362 
L 419.042611 221.559011 
L 419.649683 222.11493 
L 420.054397 223.476922 
L 420.459112 225.15255 
L 420.661469 225.582615 
L 420.863826 225.672882 
L 421.26854 225.020011 
L 422.280326 222.127594 
L 422.685041 221.459125 
L 423.089755 221.346425 
L 423.696827 221.424436 
L 423.899184 221.464085 
L 424.101541 221.622931 
L 424.708613 222.723376 
L 425.113327 223.662929 
L 425.518042 224.053625 
L 425.720399 223.998956 
L 426.327471 223.352252 
L 427.136899 222.325093 
L 427.541614 222.094622 
L 428.5534 222.029341 
L 428.958114 222.301071 
L 429.9699 223.304103 
L 430.576972 223.343101 
L 431.386401 222.908743 
L 432.19583 222.573086 
L 433.207616 222.400788 
L 433.814687 222.59954 
L 434.624116 223.004117 
L 435.433545 223.054741 
L 437.861831 222.6104 
L 438.873617 222.80259 
L 439.885403 222.945939 
L 441.504261 222.810339 
L 442.920762 222.744503 
L 445.551405 222.862738 
L 448.384406 222.814869 
L 450.812693 222.829472 
L 453.645694 222.828272 
L 459.311695 222.830737 
L 518.4 222.823852 
L 518.4 222.823852 
" clip-path="url(#pbf5b7eb2b5)" style="fill: none; stroke: #2ca02c; stroke-width: 1.5; stroke-linecap: square"/>
   </g>
   <g id="patch_3">
    <path d="M 72 320.4 
L 72 43.2 
" style="fill: none; stroke: #000000; stroke-width: 0.8; stroke-linejoin: miter; stroke-linecap: square"/>
   </g>
   <g id="patch_4">
    <path d="M 518.4 320.4 
L 518.4 43.2 
" style="fill: none; stroke: #000000; stroke-width: 0.8; stroke-linejoin: miter; stroke-linecap: square"/>
   </g>
   <g id="patch_5">
    <path d="M 72 320.4 
L 518.4 320.4 
" style="fill: none; stroke: #000000; stroke-width: 0.8; stroke-linejoin: miter; stroke-linecap: square"/>
   </g>
   <g id="patch_6">
    <path d="M 72 43.2 
L 518.4 43.2 
" style="fill: none; stroke: #000000; stroke-width: 0.8; stroke-linejoin: miter; stroke-linecap: square"/>
   </g>
   <g id="text_13">
    <!-- Classic Transformer - model_20231123170948 -->
    <g transform="translate(155.436563 37.2) scale(0.12 -0.12)">
     <defs>
      <path id="DejaVuSans-43" d="M 4122 4306 
L 4122 3641 
Q 3803 3938 3442 4084 
Q 3081 4231 2675 4231 
Q 1875 4231 1450 3742 
Q 1025 3253 1025 2328 
Q 1025 1406 1450 917 
Q 1875 428 2675 428 
Q 3081 428 3442 575 
Q 3803 722 4122 1019 
L 4122 359 
Q 3791 134 3420 21 
Q 3050 -91 2638 -91 
Q 1578 -91 968 557 
Q 359 1206 359 2328 
Q 359 3453 968 4101 
Q 1578 4750 2638 4750 
Q 3056 4750 3426 4639 
Q 3797 4528 4122 4306 
z
" transform="scale(0.015625)"/>
      <path id="DejaVuSans-6c" d="M 603 4863 
L 1178 4863 
L 1178 0 
L 603 0 
L 603 4863 
z
" transform="scale(0.015625)"/>
      <path id="DejaVuSans-61" d="M 2194 1759 
Q 1497 1759 1228 1600 
Q 959 1441 959 1056 
Q 959 750 1161 570 
Q 1363 391 1709 391 
Q 2188 391 2477 730 
Q 2766 1069 2766 1631 
L 2766 1759 
L 2194 1759 
z
M 3341 1997 
L 3341 0 
L 2766 0 
L 2766 531 
Q 2569 213 2275 61 
Q 1981 -91 1556 -91 
Q 1019 -91 701 211 
Q 384 513 384 1019 
Q 384 1609 779 1909 
Q 1175 2209 1959 2209 
L 2766 2209 
L 2766 2266 
Q 2766 2663 2505 2880 
Q 2244 3097 1772 3097 
Q 1472 3097 1187 3025 
Q 903 2953 641 2809 
L 641 3341 
Q 956 3463 1253 3523 
Q 1550 3584 1831 3584 
Q 2591 3584 2966 3190 
Q 3341 2797 3341 1997 
z
" transform="scale(0.015625)"/>
      <path id="DejaVuSans-73" d="M 2834 3397 
L 2834 2853 
Q 2591 2978 2328 3040 
Q 2066 3103 1784 3103 
Q 1356 3103 1142 2972 
Q 928 2841 928 2578 
Q 928 2378 1081 2264 
Q 1234 2150 1697 2047 
L 1894 2003 
Q 2506 1872 2764 1633 
Q 3022 1394 3022 966 
Q 3022 478 2636 193 
Q 2250 -91 1575 -91 
Q 1294 -91 989 -36 
Q 684 19 347 128 
L 347 722 
Q 666 556 975 473 
Q 1284 391 1588 391 
Q 1994 391 2212 530 
Q 2431 669 2431 922 
Q 2431 1156 2273 1281 
Q 2116 1406 1581 1522 
L 1381 1569 
Q 847 1681 609 1914 
Q 372 2147 372 2553 
Q 372 3047 722 3315 
Q 1072 3584 1716 3584 
Q 2034 3584 2315 3537 
Q 2597 3491 2834 3397 
z
" transform="scale(0.015625)"/>
      <path id="DejaVuSans-69" d="M 603 3500 
L 1178 3500 
L 1178 0 
L 603 0 
L 603 3500 
z
M 603 4863 
L 1178 4863 
L 1178 4134 
L 603 4134 
L 603 4863 
z
" transform="scale(0.015625)"/>
      <path id="DejaVuSans-63" d="M 3122 3366 
L 3122 2828 
Q 2878 2963 2633 3030 
Q 2388 3097 2138 3097 
Q 1578 3097 1268 2742 
Q 959 2388 959 1747 
Q 959 1106 1268 751 
Q 1578 397 2138 397 
Q 2388 397 2633 464 
Q 2878 531 3122 666 
L 3122 134 
Q 2881 22 2623 -34 
Q 2366 -91 2075 -91 
Q 1284 -91 818 406 
Q 353 903 353 1747 
Q 353 2603 823 3093 
Q 1294 3584 2113 3584 
Q 2378 3584 2631 3529 
Q 2884 3475 3122 3366 
z
" transform="scale(0.015625)"/>
      <path id="DejaVuSans-20" transform="scale(0.015625)"/>
      <path id="DejaVuSans-54" d="M -19 4666 
L 3928 4666 
L 3928 4134 
L 2272 4134 
L 2272 0 
L 1638 0 
L 1638 4134 
L -19 4134 
L -19 4666 
z
" transform="scale(0.015625)"/>
      <path id="DejaVuSans-72" d="M 2631 2963 
Q 2534 3019 2420 3045 
Q 2306 3072 2169 3072 
Q 1681 3072 1420 2755 
Q 1159 2438 1159 1844 
L 1159 0 
L 581 0 
L 581 3500 
L 1159 3500 
L 1159 2956 
Q 1341 3275 1631 3429 
Q 1922 3584 2338 3584 
Q 2397 3584 2469 3576 
Q 2541 3569 2628 3553 
L 2631 2963 
z
" transform="scale(0.015625)"/>
      <path id="DejaVuSans-6e" d="M 3513 2113 
L 3513 0 
L 2938 0 
L 2938 2094 
Q 2938 2591 2744 2837 
Q 2550 3084 2163 3084 
Q 1697 3084 1428 2787 
Q 1159 2491 1159 1978 
L 1159 0 
L 581 0 
L 581 3500 
L 1159 3500 
L 1159 2956 
Q 1366 3272 1645 3428 
Q 1925 3584 2291 3584 
Q 2894 3584 3203 3211 
Q 3513 2838 3513 2113 
z
" transform="scale(0.015625)"/>
      <path id="DejaVuSans-66" d="M 2375 4863 
L 2375 4384 
L 1825 4384 
Q 1516 4384 1395 4259 
Q 1275 4134 1275 3809 
L 1275 3500 
L 2222 3500 
L 2222 3053 
L 1275 3053 
L 1275 0 
L 697 0 
L 697 3053 
L 147 3053 
L 147 3500 
L 697 3500 
L 697 3744 
Q 697 4328 969 4595 
Q 1241 4863 1831 4863 
L 2375 4863 
z
" transform="scale(0.015625)"/>
      <path id="DejaVuSans-6f" d="M 1959 3097 
Q 1497 3097 1228 2736 
Q 959 2375 959 1747 
Q 959 1119 1226 758 
Q 1494 397 1959 397 
Q 2419 397 2687 759 
Q 2956 1122 2956 1747 
Q 2956 2369 2687 2733 
Q 2419 3097 1959 3097 
z
M 1959 3584 
Q 2709 3584 3137 3096 
Q 3566 2609 3566 1747 
Q 3566 888 3137 398 
Q 2709 -91 1959 -91 
Q 1206 -91 779 398 
Q 353 888 353 1747 
Q 353 2609 779 3096 
Q 1206 3584 1959 3584 
z
" transform="scale(0.015625)"/>
      <path id="DejaVuSans-6d" d="M 3328 2828 
Q 3544 3216 3844 3400 
Q 4144 3584 4550 3584 
Q 5097 3584 5394 3201 
Q 5691 2819 5691 2113 
L 5691 0 
L 5113 0 
L 5113 2094 
Q 5113 2597 4934 2840 
Q 4756 3084 4391 3084 
Q 3944 3084 3684 2787 
Q 3425 2491 3425 1978 
L 3425 0 
L 2847 0 
L 2847 2094 
Q 2847 2600 2669 2842 
Q 2491 3084 2119 3084 
Q 1678 3084 1418 2786 
Q 1159 2488 1159 1978 
L 1159 0 
L 581 0 
L 581 3500 
L 1159 3500 
L 1159 2956 
Q 1356 3278 1631 3431 
Q 1906 3584 2284 3584 
Q 2666 3584 2933 3390 
Q 3200 3197 3328 2828 
z
" transform="scale(0.015625)"/>
      <path id="DejaVuSans-65" d="M 3597 1894 
L 3597 1613 
L 953 1613 
Q 991 1019 1311 708 
Q 1631 397 2203 397 
Q 2534 397 2845 478 
Q 3156 559 3463 722 
L 3463 178 
Q 3153 47 2828 -22 
Q 2503 -91 2169 -91 
Q 1331 -91 842 396 
Q 353 884 353 1716 
Q 353 2575 817 3079 
Q 1281 3584 2069 3584 
Q 2775 3584 3186 3129 
Q 3597 2675 3597 1894 
z
M 3022 2063 
Q 3016 2534 2758 2815 
Q 2500 3097 2075 3097 
Q 1594 3097 1305 2825 
Q 1016 2553 972 2059 
L 3022 2063 
z
" transform="scale(0.015625)"/>
      <path id="DejaVuSans-64" d="M 2906 2969 
L 2906 4863 
L 3481 4863 
L 3481 0 
L 2906 0 
L 2906 525 
Q 2725 213 2448 61 
Q 2172 -91 1784 -91 
Q 1150 -91 751 415 
Q 353 922 353 1747 
Q 353 2572 751 3078 
Q 1150 3584 1784 3584 
Q 2172 3584 2448 3432 
Q 2725 3281 2906 2969 
z
M 947 1747 
Q 947 1113 1208 752 
Q 1469 391 1925 391 
Q 2381 391 2643 752 
Q 2906 1113 2906 1747 
Q 2906 2381 2643 2742 
Q 2381 3103 1925 3103 
Q 1469 3103 1208 2742 
Q 947 2381 947 1747 
z
" transform="scale(0.015625)"/>
      <path id="DejaVuSans-5f" d="M 3263 -1063 
L 3263 -1509 
L -63 -1509 
L -63 -1063 
L 3263 -1063 
z
" transform="scale(0.015625)"/>
      <path id="DejaVuSans-39" d="M 703 97 
L 703 672 
Q 941 559 1184 500 
Q 1428 441 1663 441 
Q 2288 441 2617 861 
Q 2947 1281 2994 2138 
Q 2813 1869 2534 1725 
Q 2256 1581 1919 1581 
Q 1219 1581 811 2004 
Q 403 2428 403 3163 
Q 403 3881 828 4315 
Q 1253 4750 1959 4750 
Q 2769 4750 3195 4129 
Q 3622 3509 3622 2328 
Q 3622 1225 3098 567 
Q 2575 -91 1691 -91 
Q 1453 -91 1209 -44 
Q 966 3 703 97 
z
M 1959 2075 
Q 2384 2075 2632 2365 
Q 2881 2656 2881 3163 
Q 2881 3666 2632 3958 
Q 2384 4250 1959 4250 
Q 1534 4250 1286 3958 
Q 1038 3666 1038 3163 
Q 1038 2656 1286 2365 
Q 1534 2075 1959 2075 
z
" transform="scale(0.015625)"/>
      <path id="DejaVuSans-34" d="M 2419 4116 
L 825 1625 
L 2419 1625 
L 2419 4116 
z
M 2253 4666 
L 3047 4666 
L 3047 1625 
L 3713 1625 
L 3713 1100 
L 3047 1100 
L 3047 0 
L 2419 0 
L 2419 1100 
L 313 1100 
L 313 1709 
L 2253 4666 
z
" transform="scale(0.015625)"/>
     </defs>
     <use xlink:href="#DejaVuSans-43"/>
     <use xlink:href="#DejaVuSans-6c" x="69.824219"/>
     <use xlink:href="#DejaVuSans-61" x="97.607422"/>
     <use xlink:href="#DejaVuSans-73" x="158.886719"/>
     <use xlink:href="#DejaVuSans-73" x="210.986328"/>
     <use xlink:href="#DejaVuSans-69" x="263.085938"/>
     <use xlink:href="#DejaVuSans-63" x="290.869141"/>
     <use xlink:href="#DejaVuSans-20" x="345.849609"/>
     <use xlink:href="#DejaVuSans-54" x="377.636719"/>
     <use xlink:href="#DejaVuSans-72" x="423.970703"/>
     <use xlink:href="#DejaVuSans-61" x="465.083984"/>
     <use xlink:href="#DejaVuSans-6e" x="526.363281"/>
     <use xlink:href="#DejaVuSans-73" x="589.742188"/>
     <use xlink:href="#DejaVuSans-66" x="641.841797"/>
     <use xlink:href="#DejaVuSans-6f" x="677.046875"/>
     <use xlink:href="#DejaVuSans-72" x="738.228516"/>
     <use xlink:href="#DejaVuSans-6d" x="777.591797"/>
     <use xlink:href="#DejaVuSans-65" x="875.003906"/>
     <use xlink:href="#DejaVuSans-72" x="936.527344"/>
     <use xlink:href="#DejaVuSans-20" x="977.640625"/>
     <use xlink:href="#DejaVuSans-2d" x="1009.427734"/>
     <use xlink:href="#DejaVuSans-20" x="1045.511719"/>
     <use xlink:href="#DejaVuSans-6d" x="1077.298828"/>
     <use xlink:href="#DejaVuSans-6f" x="1174.710938"/>
     <use xlink:href="#DejaVuSans-64" x="1235.892578"/>
     <use xlink:href="#DejaVuSans-65" x="1299.369141"/>
     <use xlink:href="#DejaVuSans-6c" x="1360.892578"/>
     <use xlink:href="#DejaVuSans-5f" x="1388.675781"/>
     <use xlink:href="#DejaVuSans-32" x="1438.675781"/>
     <use xlink:href="#DejaVuSans-30" x="1502.298828"/>
     <use xlink:href="#DejaVuSans-32" x="1565.921875"/>
     <use xlink:href="#DejaVuSans-33" x="1629.544922"/>
     <use xlink:href="#DejaVuSans-31" x="1693.167969"/>
     <use xlink:href="#DejaVuSans-31" x="1756.791016"/>
     <use xlink:href="#DejaVuSans-32" x="1820.414062"/>
     <use xlink:href="#DejaVuSans-33" x="1884.037109"/>
     <use xlink:href="#DejaVuSans-31" x="1947.660156"/>
     <use xlink:href="#DejaVuSans-37" x="2011.283203"/>
     <use xlink:href="#DejaVuSans-30" x="2074.90625"/>
     <use xlink:href="#DejaVuSans-39" x="2138.529297"/>
     <use xlink:href="#DejaVuSans-34" x="2202.152344"/>
     <use xlink:href="#DejaVuSans-38" x="2265.775391"/>
    </g>
   </g>
   <g id="legend_1">
    <g id="patch_7">
     <path d="M 79 95.234375 
L 161.517188 95.234375 
Q 163.517188 95.234375 163.517188 93.234375 
L 163.517188 50.2 
Q 163.517188 48.2 161.517188 48.2 
L 79 48.2 
Q 77 48.2 77 50.2 
L 77 93.234375 
Q 77 95.234375 79 95.234375 
z
" style="fill: #ffffff; opacity: 0.8; stroke: #cccccc; stroke-linejoin: miter"/>
    </g>
    <g id="line2d_16">
     <path d="M 81 56.298437 
L 91 56.298437 
L 101 56.298437 
" style="fill: none; stroke: #1f77b4; stroke-width: 1.5; stroke-linecap: square"/>
    </g>
    <g id="text_14">
     <!-- Measured -->
     <g transform="translate(109 59.798437) scale(0.1 -0.1)">
      <defs>
       <path id="DejaVuSans-4d" d="M 628 4666 
L 1569 4666 
L 2759 1491 
L 3956 4666 
L 4897 4666 
L 4897 0 
L 4281 0 
L 4281 4097 
L 3078 897 
L 2444 897 
L 1241 4097 
L 1241 0 
L 628 0 
L 628 4666 
z
" transform="scale(0.015625)"/>
       <path id="DejaVuSans-75" d="M 544 1381 
L 544 3500 
L 1119 3500 
L 1119 1403 
Q 1119 906 1312 657 
Q 1506 409 1894 409 
Q 2359 409 2629 706 
Q 2900 1003 2900 1516 
L 2900 3500 
L 3475 3500 
L 3475 0 
L 2900 0 
L 2900 538 
Q 2691 219 2414 64 
Q 2138 -91 1772 -91 
Q 1169 -91 856 284 
Q 544 659 544 1381 
z
M 1991 3584 
L 1991 3584 
z
" transform="scale(0.015625)"/>
      </defs>
      <use xlink:href="#DejaVuSans-4d"/>
      <use xlink:href="#DejaVuSans-65" x="86.279297"/>
      <use xlink:href="#DejaVuSans-61" x="147.802734"/>
      <use xlink:href="#DejaVuSans-73" x="209.082031"/>
      <use xlink:href="#DejaVuSans-75" x="261.181641"/>
      <use xlink:href="#DejaVuSans-72" x="324.560547"/>
      <use xlink:href="#DejaVuSans-65" x="363.423828"/>
      <use xlink:href="#DejaVuSans-64" x="424.947266"/>
     </g>
    </g>
    <g id="line2d_17">
     <path d="M 81 70.976562 
L 91 70.976562 
L 101 70.976562 
" style="fill: none; stroke: #ff7f0e; stroke-width: 1.5; stroke-linecap: square"/>
    </g>
    <g id="text_15">
     <!-- Fitted -->
     <g transform="translate(109 74.476562) scale(0.1 -0.1)">
      <defs>
       <path id="DejaVuSans-46" d="M 628 4666 
L 3309 4666 
L 3309 4134 
L 1259 4134 
L 1259 2759 
L 3109 2759 
L 3109 2228 
L 1259 2228 
L 1259 0 
L 628 0 
L 628 4666 
z
" transform="scale(0.015625)"/>
       <path id="DejaVuSans-74" d="M 1172 4494 
L 1172 3500 
L 2356 3500 
L 2356 3053 
L 1172 3053 
L 1172 1153 
Q 1172 725 1289 603 
Q 1406 481 1766 481 
L 2356 481 
L 2356 0 
L 1766 0 
Q 1100 0 847 248 
Q 594 497 594 1153 
L 594 3053 
L 172 3053 
L 172 3500 
L 594 3500 
L 594 4494 
L 1172 4494 
z
" transform="scale(0.015625)"/>
      </defs>
      <use xlink:href="#DejaVuSans-46"/>
      <use xlink:href="#DejaVuSans-69" x="50.269531"/>
      <use xlink:href="#DejaVuSans-74" x="78.052734"/>
      <use xlink:href="#DejaVuSans-74" x="117.261719"/>
      <use xlink:href="#DejaVuSans-65" x="156.470703"/>
      <use xlink:href="#DejaVuSans-64" x="217.994141"/>
     </g>
    </g>
    <g id="line2d_18">
     <path d="M 81 85.654687 
L 91 85.654687 
L 101 85.654687 
" style="fill: none; stroke: #2ca02c; stroke-width: 1.5; stroke-linecap: square"/>
    </g>
    <g id="text_16">
     <!-- Estimated -->
     <g transform="translate(109 89.154687) scale(0.1 -0.1)">
      <defs>
       <path id="DejaVuSans-45" d="M 628 4666 
L 3578 4666 
L 3578 4134 
L 1259 4134 
L 1259 2753 
L 3481 2753 
L 3481 2222 
L 1259 2222 
L 1259 531 
L 3634 531 
L 3634 0 
L 628 0 
L 628 4666 
z
" transform="scale(0.015625)"/>
      </defs>
      <use xlink:href="#DejaVuSans-45"/>
      <use xlink:href="#DejaVuSans-73" x="63.183594"/>
      <use xlink:href="#DejaVuSans-74" x="115.283203"/>
      <use xlink:href="#DejaVuSans-69" x="154.492188"/>
      <use xlink:href="#DejaVuSans-6d" x="182.275391"/>
      <use xlink:href="#DejaVuSans-61" x="279.6875"/>
      <use xlink:href="#DejaVuSans-74" x="340.966797"/>
      <use xlink:href="#DejaVuSans-65" x="380.175781"/>
      <use xlink:href="#DejaVuSans-64" x="441.699219"/>
     </g>
    </g>
   </g>
  </g>
 </g>
 <defs>
  <clipPath id="pbf5b7eb2b5">
   <rect x="72" y="43.2" width="446.4" height="277.2"/>
  </clipPath>
 </defs>
</svg>
