<?xml version="1.0" encoding="utf-8" standalone="no"?>
<!DOCTYPE svg PUBLIC "-//W3C//DTD SVG 1.1//EN"
  "http://www.w3.org/Graphics/SVG/1.1/DTD/svg11.dtd">
<svg xmlns:xlink="http://www.w3.org/1999/xlink" width="576pt" height="360pt" viewBox="0 0 576 360" xmlns="http://www.w3.org/2000/svg" version="1.1">
 <metadata>
  <rdf:RDF xmlns:dc="http://purl.org/dc/elements/1.1/" xmlns:cc="http://creativecommons.org/ns#" xmlns:rdf="http://www.w3.org/1999/02/22-rdf-syntax-ns#">
   <cc:Work>
    <dc:type rdf:resource="http://purl.org/dc/dcmitype/StillImage"/>
    <dc:date>2023-11-26T17:07:31.023168</dc:date>
    <dc:format>image/svg+xml</dc:format>
    <dc:creator>
     <cc:Agent>
      <dc:title>Matplotlib v3.8.1, https://matplotlib.org/</dc:title>
     </cc:Agent>
    </dc:creator>
   </cc:Work>
  </rdf:RDF>
 </metadata>
 <defs>
  <style type="text/css">*{stroke-linejoin: round; stroke-linecap: butt}</style>
 </defs>
 <g id="figure_1">
  <g id="patch_1">
   <path d="M 0 360 
L 576 360 
L 576 0 
L 0 0 
z
" style="fill: #ffffff"/>
  </g>
  <g id="axes_1">
   <g id="patch_2">
    <path d="M 72 320.4 
L 518.4 320.4 
L 518.4 43.2 
L 72 43.2 
z
" style="fill: #ffffff"/>
   </g>
   <g id="matplotlib.axis_1">
    <g id="xtick_1">
     <g id="line2d_1">
      <defs>
       <path id="md44664a2dc" d="M 0 0 
L 0 3.5 
" style="stroke: #000000; stroke-width: 0.8"/>
      </defs>
      <g>
       <use xlink:href="#md44664a2dc" x="129.874161" y="320.4" style="stroke: #000000; stroke-width: 0.8"/>
      </g>
     </g>
     <g id="text_1">
      <!-- 2020-05-15 -->
      <g transform="translate(100.816349 334.998438) scale(0.1 -0.1)">
       <defs>
        <path id="DejaVuSans-32" d="M 1228 531 
L 3431 531 
L 3431 0 
L 469 0 
L 469 531 
Q 828 903 1448 1529 
Q 2069 2156 2228 2338 
Q 2531 2678 2651 2914 
Q 2772 3150 2772 3378 
Q 2772 3750 2511 3984 
Q 2250 4219 1831 4219 
Q 1534 4219 1204 4116 
Q 875 4013 500 3803 
L 500 4441 
Q 881 4594 1212 4672 
Q 1544 4750 1819 4750 
Q 2544 4750 2975 4387 
Q 3406 4025 3406 3419 
Q 3406 3131 3298 2873 
Q 3191 2616 2906 2266 
Q 2828 2175 2409 1742 
Q 1991 1309 1228 531 
z
" transform="scale(0.015625)"/>
        <path id="DejaVuSans-30" d="M 2034 4250 
Q 1547 4250 1301 3770 
Q 1056 3291 1056 2328 
Q 1056 1369 1301 889 
Q 1547 409 2034 409 
Q 2525 409 2770 889 
Q 3016 1369 3016 2328 
Q 3016 3291 2770 3770 
Q 2525 4250 2034 4250 
z
M 2034 4750 
Q 2819 4750 3233 4129 
Q 3647 3509 3647 2328 
Q 3647 1150 3233 529 
Q 2819 -91 2034 -91 
Q 1250 -91 836 529 
Q 422 1150 422 2328 
Q 422 3509 836 4129 
Q 1250 4750 2034 4750 
z
" transform="scale(0.015625)"/>
        <path id="DejaVuSans-2d" d="M 313 2009 
L 1997 2009 
L 1997 1497 
L 313 1497 
L 313 2009 
z
" transform="scale(0.015625)"/>
        <path id="DejaVuSans-35" d="M 691 4666 
L 3169 4666 
L 3169 4134 
L 1269 4134 
L 1269 2991 
Q 1406 3038 1543 3061 
Q 1681 3084 1819 3084 
Q 2600 3084 3056 2656 
Q 3513 2228 3513 1497 
Q 3513 744 3044 326 
Q 2575 -91 1722 -91 
Q 1428 -91 1123 -41 
Q 819 9 494 109 
L 494 744 
Q 775 591 1075 516 
Q 1375 441 1709 441 
Q 2250 441 2565 725 
Q 2881 1009 2881 1497 
Q 2881 1984 2565 2268 
Q 2250 2553 1709 2553 
Q 1456 2553 1204 2497 
Q 953 2441 691 2322 
L 691 4666 
z
" transform="scale(0.015625)"/>
        <path id="DejaVuSans-31" d="M 794 531 
L 1825 531 
L 1825 4091 
L 703 3866 
L 703 4441 
L 1819 4666 
L 2450 4666 
L 2450 531 
L 3481 531 
L 3481 0 
L 794 0 
L 794 531 
z
" transform="scale(0.015625)"/>
       </defs>
       <use xlink:href="#DejaVuSans-32"/>
       <use xlink:href="#DejaVuSans-30" x="63.623047"/>
       <use xlink:href="#DejaVuSans-32" x="127.246094"/>
       <use xlink:href="#DejaVuSans-30" x="190.869141"/>
       <use xlink:href="#DejaVuSans-2d" x="254.492188"/>
       <use xlink:href="#DejaVuSans-30" x="290.576172"/>
       <use xlink:href="#DejaVuSans-35" x="354.199219"/>
       <use xlink:href="#DejaVuSans-2d" x="417.822266"/>
       <use xlink:href="#DejaVuSans-31" x="453.90625"/>
       <use xlink:href="#DejaVuSans-35" x="517.529297"/>
      </g>
     </g>
    </g>
    <g id="xtick_2">
     <g id="line2d_2">
      <g>
       <use xlink:href="#md44664a2dc" x="212.435902" y="320.4" style="stroke: #000000; stroke-width: 0.8"/>
      </g>
     </g>
     <g id="text_2">
      <!-- 2020-06-01 -->
      <g transform="translate(183.37809 334.998438) scale(0.1 -0.1)">
       <defs>
        <path id="DejaVuSans-36" d="M 2113 2584 
Q 1688 2584 1439 2293 
Q 1191 2003 1191 1497 
Q 1191 994 1439 701 
Q 1688 409 2113 409 
Q 2538 409 2786 701 
Q 3034 994 3034 1497 
Q 3034 2003 2786 2293 
Q 2538 2584 2113 2584 
z
M 3366 4563 
L 3366 3988 
Q 3128 4100 2886 4159 
Q 2644 4219 2406 4219 
Q 1781 4219 1451 3797 
Q 1122 3375 1075 2522 
Q 1259 2794 1537 2939 
Q 1816 3084 2150 3084 
Q 2853 3084 3261 2657 
Q 3669 2231 3669 1497 
Q 3669 778 3244 343 
Q 2819 -91 2113 -91 
Q 1303 -91 875 529 
Q 447 1150 447 2328 
Q 447 3434 972 4092 
Q 1497 4750 2381 4750 
Q 2619 4750 2861 4703 
Q 3103 4656 3366 4563 
z
" transform="scale(0.015625)"/>
       </defs>
       <use xlink:href="#DejaVuSans-32"/>
       <use xlink:href="#DejaVuSans-30" x="63.623047"/>
       <use xlink:href="#DejaVuSans-32" x="127.246094"/>
       <use xlink:href="#DejaVuSans-30" x="190.869141"/>
       <use xlink:href="#DejaVuSans-2d" x="254.492188"/>
       <use xlink:href="#DejaVuSans-30" x="290.576172"/>
       <use xlink:href="#DejaVuSans-36" x="354.199219"/>
       <use xlink:href="#DejaVuSans-2d" x="417.822266"/>
       <use xlink:href="#DejaVuSans-30" x="453.90625"/>
       <use xlink:href="#DejaVuSans-31" x="517.529297"/>
      </g>
     </g>
    </g>
    <g id="xtick_3">
     <g id="line2d_3">
      <g>
       <use xlink:href="#md44664a2dc" x="280.427924" y="320.4" style="stroke: #000000; stroke-width: 0.8"/>
      </g>
     </g>
     <g id="text_3">
      <!-- 2020-06-15 -->
      <g transform="translate(251.370111 334.998438) scale(0.1 -0.1)">
       <use xlink:href="#DejaVuSans-32"/>
       <use xlink:href="#DejaVuSans-30" x="63.623047"/>
       <use xlink:href="#DejaVuSans-32" x="127.246094"/>
       <use xlink:href="#DejaVuSans-30" x="190.869141"/>
       <use xlink:href="#DejaVuSans-2d" x="254.492188"/>
       <use xlink:href="#DejaVuSans-30" x="290.576172"/>
       <use xlink:href="#DejaVuSans-36" x="354.199219"/>
       <use xlink:href="#DejaVuSans-2d" x="417.822266"/>
       <use xlink:href="#DejaVuSans-31" x="453.90625"/>
       <use xlink:href="#DejaVuSans-35" x="517.529297"/>
      </g>
     </g>
    </g>
    <g id="xtick_4">
     <g id="line2d_4">
      <g>
       <use xlink:href="#md44664a2dc" x="358.133092" y="320.4" style="stroke: #000000; stroke-width: 0.8"/>
      </g>
     </g>
     <g id="text_4">
      <!-- 2020-07-01 -->
      <g transform="translate(329.075279 334.998438) scale(0.1 -0.1)">
       <defs>
        <path id="DejaVuSans-37" d="M 525 4666 
L 3525 4666 
L 3525 4397 
L 1831 0 
L 1172 0 
L 2766 4134 
L 525 4134 
L 525 4666 
z
" transform="scale(0.015625)"/>
       </defs>
       <use xlink:href="#DejaVuSans-32"/>
       <use xlink:href="#DejaVuSans-30" x="63.623047"/>
       <use xlink:href="#DejaVuSans-32" x="127.246094"/>
       <use xlink:href="#DejaVuSans-30" x="190.869141"/>
       <use xlink:href="#DejaVuSans-2d" x="254.492188"/>
       <use xlink:href="#DejaVuSans-30" x="290.576172"/>
       <use xlink:href="#DejaVuSans-37" x="354.199219"/>
       <use xlink:href="#DejaVuSans-2d" x="417.822266"/>
       <use xlink:href="#DejaVuSans-30" x="453.90625"/>
       <use xlink:href="#DejaVuSans-31" x="517.529297"/>
      </g>
     </g>
    </g>
    <g id="xtick_5">
     <g id="line2d_5">
      <g>
       <use xlink:href="#md44664a2dc" x="426.125113" y="320.4" style="stroke: #000000; stroke-width: 0.8"/>
      </g>
     </g>
     <g id="text_5">
      <!-- 2020-07-15 -->
      <g transform="translate(397.067301 334.998438) scale(0.1 -0.1)">
       <use xlink:href="#DejaVuSans-32"/>
       <use xlink:href="#DejaVuSans-30" x="63.623047"/>
       <use xlink:href="#DejaVuSans-32" x="127.246094"/>
       <use xlink:href="#DejaVuSans-30" x="190.869141"/>
       <use xlink:href="#DejaVuSans-2d" x="254.492188"/>
       <use xlink:href="#DejaVuSans-30" x="290.576172"/>
       <use xlink:href="#DejaVuSans-37" x="354.199219"/>
       <use xlink:href="#DejaVuSans-2d" x="417.822266"/>
       <use xlink:href="#DejaVuSans-31" x="453.90625"/>
       <use xlink:href="#DejaVuSans-35" x="517.529297"/>
      </g>
     </g>
    </g>
    <g id="xtick_6">
     <g id="line2d_6">
      <g>
       <use xlink:href="#md44664a2dc" x="508.686854" y="320.4" style="stroke: #000000; stroke-width: 0.8"/>
      </g>
     </g>
     <g id="text_6">
      <!-- 2020-08-01 -->
      <g transform="translate(479.629042 334.998438) scale(0.1 -0.1)">
       <defs>
        <path id="DejaVuSans-38" d="M 2034 2216 
Q 1584 2216 1326 1975 
Q 1069 1734 1069 1313 
Q 1069 891 1326 650 
Q 1584 409 2034 409 
Q 2484 409 2743 651 
Q 3003 894 3003 1313 
Q 3003 1734 2745 1975 
Q 2488 2216 2034 2216 
z
M 1403 2484 
Q 997 2584 770 2862 
Q 544 3141 544 3541 
Q 544 4100 942 4425 
Q 1341 4750 2034 4750 
Q 2731 4750 3128 4425 
Q 3525 4100 3525 3541 
Q 3525 3141 3298 2862 
Q 3072 2584 2669 2484 
Q 3125 2378 3379 2068 
Q 3634 1759 3634 1313 
Q 3634 634 3220 271 
Q 2806 -91 2034 -91 
Q 1263 -91 848 271 
Q 434 634 434 1313 
Q 434 1759 690 2068 
Q 947 2378 1403 2484 
z
M 1172 3481 
Q 1172 3119 1398 2916 
Q 1625 2713 2034 2713 
Q 2441 2713 2670 2916 
Q 2900 3119 2900 3481 
Q 2900 3844 2670 4047 
Q 2441 4250 2034 4250 
Q 1625 4250 1398 4047 
Q 1172 3844 1172 3481 
z
" transform="scale(0.015625)"/>
       </defs>
       <use xlink:href="#DejaVuSans-32"/>
       <use xlink:href="#DejaVuSans-30" x="63.623047"/>
       <use xlink:href="#DejaVuSans-32" x="127.246094"/>
       <use xlink:href="#DejaVuSans-30" x="190.869141"/>
       <use xlink:href="#DejaVuSans-2d" x="254.492188"/>
       <use xlink:href="#DejaVuSans-30" x="290.576172"/>
       <use xlink:href="#DejaVuSans-38" x="354.199219"/>
       <use xlink:href="#DejaVuSans-2d" x="417.822266"/>
       <use xlink:href="#DejaVuSans-30" x="453.90625"/>
       <use xlink:href="#DejaVuSans-31" x="517.529297"/>
      </g>
     </g>
    </g>
   </g>
   <g id="matplotlib.axis_2">
    <g id="ytick_1">
     <g id="line2d_7">
      <defs>
       <path id="mf2bb71844c" d="M 0 0 
L -3.5 0 
" style="stroke: #000000; stroke-width: 0.8"/>
      </defs>
      <g>
       <use xlink:href="#mf2bb71844c" x="72" y="316.02311" style="stroke: #000000; stroke-width: 0.8"/>
      </g>
     </g>
     <g id="text_7">
      <!-- −2 -->
      <g transform="translate(50.257812 319.822329) scale(0.1 -0.1)">
       <defs>
        <path id="DejaVuSans-2212" d="M 678 2272 
L 4684 2272 
L 4684 1741 
L 678 1741 
L 678 2272 
z
" transform="scale(0.015625)"/>
       </defs>
       <use xlink:href="#DejaVuSans-2212"/>
       <use xlink:href="#DejaVuSans-32" x="83.789062"/>
      </g>
     </g>
    </g>
    <g id="ytick_2">
     <g id="line2d_8">
      <g>
       <use xlink:href="#mf2bb71844c" x="72" y="262.270962" style="stroke: #000000; stroke-width: 0.8"/>
      </g>
     </g>
     <g id="text_8">
      <!-- −1 -->
      <g transform="translate(50.257812 266.070181) scale(0.1 -0.1)">
       <use xlink:href="#DejaVuSans-2212"/>
       <use xlink:href="#DejaVuSans-31" x="83.789062"/>
      </g>
     </g>
    </g>
    <g id="ytick_3">
     <g id="line2d_9">
      <g>
       <use xlink:href="#mf2bb71844c" x="72" y="208.518814" style="stroke: #000000; stroke-width: 0.8"/>
      </g>
     </g>
     <g id="text_9">
      <!-- 0 -->
      <g transform="translate(58.6375 212.318032) scale(0.1 -0.1)">
       <use xlink:href="#DejaVuSans-30"/>
      </g>
     </g>
    </g>
    <g id="ytick_4">
     <g id="line2d_10">
      <g>
       <use xlink:href="#mf2bb71844c" x="72" y="154.766666" style="stroke: #000000; stroke-width: 0.8"/>
      </g>
     </g>
     <g id="text_10">
      <!-- 1 -->
      <g transform="translate(58.6375 158.565884) scale(0.1 -0.1)">
       <use xlink:href="#DejaVuSans-31"/>
      </g>
     </g>
    </g>
    <g id="ytick_5">
     <g id="line2d_11">
      <g>
       <use xlink:href="#mf2bb71844c" x="72" y="101.014518" style="stroke: #000000; stroke-width: 0.8"/>
      </g>
     </g>
     <g id="text_11">
      <!-- 2 -->
      <g transform="translate(58.6375 104.813736) scale(0.1 -0.1)">
       <use xlink:href="#DejaVuSans-32"/>
      </g>
     </g>
    </g>
    <g id="ytick_6">
     <g id="line2d_12">
      <g>
       <use xlink:href="#mf2bb71844c" x="72" y="47.262369" style="stroke: #000000; stroke-width: 0.8"/>
      </g>
     </g>
     <g id="text_12">
      <!-- 3 -->
      <g transform="translate(58.6375 51.061588) scale(0.1 -0.1)">
       <defs>
        <path id="DejaVuSans-33" d="M 2597 2516 
Q 3050 2419 3304 2112 
Q 3559 1806 3559 1356 
Q 3559 666 3084 287 
Q 2609 -91 1734 -91 
Q 1441 -91 1130 -33 
Q 819 25 488 141 
L 488 750 
Q 750 597 1062 519 
Q 1375 441 1716 441 
Q 2309 441 2620 675 
Q 2931 909 2931 1356 
Q 2931 1769 2642 2001 
Q 2353 2234 1838 2234 
L 1294 2234 
L 1294 2753 
L 1863 2753 
Q 2328 2753 2575 2939 
Q 2822 3125 2822 3475 
Q 2822 3834 2567 4026 
Q 2313 4219 1838 4219 
Q 1578 4219 1281 4162 
Q 984 4106 628 3988 
L 628 4550 
Q 988 4650 1302 4700 
Q 1616 4750 1894 4750 
Q 2613 4750 3031 4423 
Q 3450 4097 3450 3541 
Q 3450 3153 3228 2886 
Q 3006 2619 2597 2516 
z
" transform="scale(0.015625)"/>
       </defs>
       <use xlink:href="#DejaVuSans-33"/>
      </g>
     </g>
    </g>
   </g>
   <g id="line2d_13">
    <path d="M 72 287.021497 
L 72.404714 298.412757 
L 72.607072 296.682973 
L 72.809429 285.96675 
L 73.214143 254.915018 
L 73.618858 242.426821 
L 75.035358 159.101858 
L 75.237715 156.127474 
L 75.440073 161.211351 
L 75.64243 169.459468 
L 75.844787 172.771371 
L 76.047144 188.086288 
L 76.654216 258.669915 
L 77.05893 282.844701 
L 77.261287 287.232446 
L 77.463645 286.852737 
L 77.666002 276.094324 
L 78.070716 247.468508 
L 78.475431 234.938122 
L 78.677788 225.761828 
L 79.487217 168.510196 
L 79.891931 152.161627 
L 80.094288 154.123456 
L 80.903717 196.735208 
L 81.713146 272.423807 
L 82.11786 287.148066 
L 82.320218 289.194274 
L 82.522575 288.898945 
L 82.724932 286.367554 
L 82.927289 279.511703 
L 83.332004 256.412757 
L 83.736718 242.026017 
L 83.939075 238.967253 
L 84.141432 239.241487 
L 84.546147 245.675439 
L 84.748504 247.784932 
L 84.950861 247.806027 
L 85.355576 252.025013 
L 85.557933 248.670919 
L 85.76029 254.830638 
L 86.569719 300.015972 
L 86.772076 306.133501 
L 86.974433 307.736715 
L 87.176791 307.8 
L 87.379148 306.449925 
L 87.581505 302.695028 
L 87.783862 295.902461 
L 88.188577 273.731693 
L 88.390934 268.521246 
L 89.200363 260.399699 
L 89.40272 256.243998 
L 89.807434 241.372074 
L 90.212149 238.903968 
L 90.414506 236.182722 
L 90.616863 244.1777 
L 91.223935 295.037569 
L 91.628649 306.133501 
L 91.831006 306.196786 
L 92.033364 303.686489 
L 92.842792 257.277649 
L 93.04515 255.125967 
L 93.449864 246.477047 
L 93.652221 245.949674 
L 93.854578 242.996384 
L 94.056936 242.363536 
L 94.259293 239.72667 
L 94.46165 233.292717 
L 94.664007 230.423807 
L 94.866364 231.351984 
L 95.068722 234.516223 
L 95.271079 230.655851 
L 95.473436 240.823606 
L 96.080508 295.417278 
L 96.485222 304.677951 
L 96.687579 306.597589 
L 96.889937 302.230939 
L 97.699365 256.539327 
L 98.306437 245.970768 
L 98.508794 245.59106 
L 99.52058 224.242993 
L 99.722937 225.508689 
L 99.925295 229.896434 
L 100.127652 228.061175 
L 100.330009 238.27112 
L 100.937081 292.928076 
L 101.341795 305.268609 
L 101.544152 306.26007 
L 101.74651 302.526268 
L 101.948867 290.50216 
L 102.353581 260.294224 
L 102.555938 258.733199 
L 103.567724 240.844701 
L 104.377153 218.610648 
L 104.57951 219.897438 
L 104.781868 225.318835 
L 104.984225 225.29774 
L 105.186582 234.241989 
L 105.793654 289.763837 
L 106.198368 302.589553 
L 106.400725 304.361527 
L 106.603083 300.311301 
L 107.412511 254.11341 
L 107.614869 252.383626 
L 107.817226 248.692014 
L 108.22194 234.07323 
L 108.626655 212.23998 
L 108.829012 206.270116 
L 109.031369 204.371572 
L 109.638441 213.104872 
L 109.840798 218.568458 
L 110.043155 229.031542 
L 110.650227 284.405726 
L 111.054941 298.750276 
L 111.257298 300.669915 
L 111.459655 298.919036 
L 111.662013 287.443395 
L 112.066727 258.015972 
L 112.471442 242.933099 
L 113.887942 174.121447 
L 114.090299 171.73772 
L 114.292656 178.593571 
L 114.495014 190.090306 
L 114.697371 194.710095 
L 115.102085 228.926067 
L 115.709157 278.583526 
L 116.113871 292.611652 
L 116.316228 292.780412 
L 116.518586 291.113913 
L 116.720943 287.46449 
L 117.125657 260.06218 
L 118.542158 154.777398 
L 118.744515 144.609643 
L 118.946872 140.707082 
L 119.149229 144.398694 
L 119.756301 182.496133 
L 120.56573 262.319337 
L 120.970444 282.254043 
L 121.172801 286.367554 
L 121.375159 288.012958 
L 121.577516 286.557408 
L 121.779873 278.583526 
L 122.589302 227.280663 
L 123.196374 201.671421 
L 123.398731 197.072727 
L 123.601088 197.283677 
L 123.803445 196.714114 
L 124.410517 210.193772 
L 124.612874 221.226419 
L 125.219946 277.845203 
L 125.62466 292.463988 
L 125.827017 294.468006 
L 126.029374 291.91552 
L 127.04116 235.191261 
L 127.648232 197.557911 
L 128.255304 154.925063 
L 128.457661 147.330889 
L 128.660018 146.99337 
L 129.26709 191.588046 
L 130.278876 282.971271 
L 130.481233 290.839679 
L 130.68359 292.231944 
L 130.885947 289.637268 
L 132.504805 180.070216 
L 133.111877 137.142039 
L 133.314234 127.670417 
L 133.516591 129.379106 
L 133.921306 144.841688 
L 134.123663 152.309292 
L 135.135449 262.84671 
L 135.540163 275.545856 
L 135.74252 274.596585 
L 135.944878 263.943646 
L 136.349592 232.343446 
L 136.551949 225.529784 
L 136.754306 213.590055 
L 136.956664 218.188749 
L 137.159021 206.818584 
L 137.766092 197.937619 
L 137.96845 198.338423 
L 138.373164 192.895932 
L 138.777879 200.490105 
L 138.980236 201.333903 
L 139.182593 213.210347 
L 139.789665 270.187745 
L 140.194379 285.650326 
L 140.396736 287.738724 
L 140.599093 284.701055 
L 141.003808 254.303265 
L 141.408522 232.997388 
L 142.015594 219.51773 
L 142.622665 210.320342 
L 142.825023 210.046107 
L 143.02738 208.822602 
L 143.229737 209.518734 
L 143.634451 214.834656 
L 143.836809 213.590055 
L 144.039166 223.84219 
L 144.646238 273.499648 
L 145.050952 285.671421 
L 145.253309 286.979307 
L 145.455666 283.815068 
L 145.860381 253.965746 
L 146.062738 237.406228 
L 146.66981 220.825615 
L 146.872167 218.125465 
L 147.074524 217.028528 
L 147.479238 205.848217 
L 147.681596 214.370568 
L 147.883953 215.362029 
L 148.08631 217.998895 
L 148.491024 227.386138 
L 148.693382 226.014967 
L 149.098096 249.83114 
L 149.502811 278.203817 
L 149.907525 291.430337 
L 150.109882 293.518734 
L 150.312239 292.928076 
L 150.514597 290.059166 
L 150.716954 284.258061 
L 151.121668 263.036565 
L 151.526383 242.194776 
L 151.931097 236.288197 
L 152.133454 235.845203 
L 152.335811 237.849221 
L 152.538169 238.376595 
L 152.740526 236.288197 
L 152.942883 236.583526 
L 153.14524 235.592064 
L 153.347597 235.634254 
L 153.549955 232.659869 
L 153.752312 234.895932 
L 154.764098 287.253541 
L 154.966455 291.282672 
L 155.168812 292.696032 
L 155.573527 288.687996 
L 155.775884 277.423305 
L 156.78767 198.127474 
L 157.799456 154.756303 
L 158.001813 156.802511 
L 158.406528 170.23998 
L 158.608885 184.036062 
L 159.215956 253.881366 
L 159.620671 275.86228 
L 159.823028 279.131994 
L 160.025385 278.203817 
L 160.227743 268.225917 
L 160.632457 235.191261 
L 161.8466 183.993872 
L 162.251315 173.762833 
L 162.453672 173.910497 
L 162.656029 176.821597 
L 163.465458 209.20231 
L 164.072529 270.12446 
L 164.477244 289.067705 
L 164.679601 289.405224 
L 164.881958 286.114415 
L 165.084316 275.777901 
L 165.48903 243.439377 
L 166.500816 207.725665 
L 167.310245 164.038071 
L 167.512602 167.45545 
L 167.917316 188.402712 
L 168.119674 192.938122 
L 168.322031 204.498142 
L 168.929102 264.977298 
L 169.333817 280.439879 
L 169.536174 284.026017 
L 169.738531 280.292215 
L 170.143246 252.510196 
L 170.54796 221.648317 
L 171.357389 176.273129 
L 171.559746 170.134505 
L 172.166818 145.49563 
L 172.369175 147.141035 
L 172.571532 155.199297 
L 173.178604 194.878855 
L 173.785675 267.25555 
L 174.19039 287.000402 
L 174.392747 290.038071 
L 174.595104 288.181718 
L 174.999819 263.542843 
L 175.404533 238.081266 
L 177.023391 158.405726 
L 177.225748 158.933099 
L 177.428105 162.92004 
L 177.630462 179.817077 
L 177.83282 182.306278 
L 178.237534 227.238473 
L 178.642248 270.947162 
L 179.046963 290.50216 
L 179.24932 294.299247 
L 179.451677 291.725665 
L 179.654034 282.865796 
L 180.261106 242.258061 
L 181.879964 143.449422 
L 182.082321 140.116424 
L 182.284678 145.896434 
L 183.094107 203.316826 
L 183.498821 243.080763 
L 183.903536 264.956203 
L 184.30825 272.95118 
L 184.510607 274.343446 
L 184.712965 270.630738 
L 184.915322 256.98232 
L 185.724751 173.340934 
L 186.129465 151.52878 
L 186.331822 145.347966 
L 186.53418 144.567454 
L 186.736537 147.16213 
L 187.748323 188.423807 
L 188.557752 253.923556 
L 188.962466 268.394676 
L 189.164823 270.483074 
L 189.36718 270.567454 
L 189.569538 269.808036 
L 189.771895 258.796484 
L 190.986038 160.810547 
L 191.188395 155.389151 
L 191.390752 155.346961 
L 191.795467 164.692014 
L 192.604896 196.671924 
L 193.414325 261.370065 
L 193.819039 275.377097 
L 194.021396 276.474033 
L 194.426111 272.423807 
L 194.628468 263.268609 
L 195.437897 201.017479 
L 195.640254 195.891411 
L 195.842611 197.136012 
L 196.247325 203.337921 
L 196.449683 203.928579 
L 196.65204 203.527775 
L 197.056754 211.923556 
L 197.259112 212.788448 
L 197.461469 221.395178 
L 198.06854 270.841688 
L 198.473255 285.354997 
L 198.675612 285.460472 
L 198.877969 281.72667 
L 199.282684 250.231944 
L 199.687398 226.879859 
L 201.306256 158.933099 
L 201.508613 157.751783 
L 202.115684 177.39116 
L 202.318042 188.803516 
L 202.925113 254.366549 
L 203.329828 272.423807 
L 203.532185 274.57549 
L 203.734542 271.516725 
L 203.936899 259.724661 
L 204.341614 224.939126 
L 205.758114 168.995379 
L 205.960471 166.442893 
L 206.162829 166.590558 
L 206.365186 168.046107 
L 206.7699 180.175691 
L 206.972257 183.445404 
L 207.174615 194.541336 
L 207.781686 254.978302 
L 208.186401 271.516725 
L 208.388758 274.638774 
L 208.591115 271.221396 
L 208.793472 259.070718 
L 209.198187 224.475038 
L 209.805258 201.671421 
L 210.209973 181.314817 
L 210.817044 138.639779 
L 211.019402 129.948669 
L 211.221759 132.986339 
L 211.626473 158.047112 
L 211.82883 163.384129 
L 212.031188 178.467002 
L 212.638259 245.063687 
L 213.042974 264.091311 
L 213.245331 268.183727 
L 213.447688 266.432848 
L 213.650045 255.463486 
L 214.257117 211.164139 
L 214.661831 184.183727 
L 215.47126 123.409242 
L 215.875975 106.280161 
L 216.078332 105.794977 
L 216.280689 111.469513 
L 217.090118 176.779407 
L 217.697189 240.190758 
L 218.101904 259.091813 
L 218.304261 262.530286 
L 218.506618 263.922551 
L 218.708976 262.635761 
L 218.911333 249.599096 
L 219.518404 193.48659 
L 220.125476 157.435359 
L 220.327833 155.220392 
L 220.53019 157.498644 
L 221.541976 200.827624 
L 221.744334 206.101356 
L 222.553762 264.365545 
L 222.958477 275.503666 
L 223.160834 277.254545 
L 223.363191 277.613159 
L 223.565549 276.009945 
L 223.767906 267.086791 
L 224.374977 227.955701 
L 224.779692 220.192767 
L 225.386763 222.30226 
L 225.589121 225.909493 
L 225.791478 226.816575 
L 226.196192 235.40221 
L 226.398549 235.043596 
L 226.600907 241.625213 
L 227.410335 296.535309 
L 227.612693 300.669915 
L 227.81505 302.399699 
L 228.017407 299.129985 
L 228.826836 255.505676 
L 229.029193 253.121949 
L 229.23155 247.236464 
L 230.648051 182.285183 
L 230.850408 182.875841 
L 231.255122 197.64229 
L 231.45748 208.801507 
L 232.064551 274.027022 
L 232.469266 291.620191 
L 232.671623 294.404721 
L 232.87398 293.160121 
L 233.278694 267.25555 
L 233.683409 244.1777 
L 235.302267 178.024008 
L 235.504624 177.412255 
L 236.111695 196.988348 
L 236.314053 207.599096 
L 236.921124 271.242491 
L 237.325839 287.50668 
L 237.528196 290.713109 
L 237.730553 288.540331 
L 238.135267 264.006931 
L 238.539982 241.688498 
L 239.349411 210.003918 
L 239.754125 199.751783 
L 240.15884 189.288699 
L 240.361197 189.03556 
L 240.563554 194.625716 
L 240.968268 212.661878 
L 241.170626 220.424812 
L 241.777697 277.31783 
L 242.182412 293.560924 
L 242.384769 296.11341 
L 242.587126 293.054646 
L 242.99184 267.740733 
L 243.396555 249.345957 
L 245.21777 172.876846 
L 245.420127 177.222401 
L 246.027199 204.666901 
L 246.836627 279.933601 
L 247.038985 288.498142 
L 247.241342 291.74676 
L 247.443699 289.152084 
L 247.848413 265.019488 
L 249.467271 150.305274 
L 249.669628 142.036062 
L 249.871985 140.053139 
L 250.074343 140.221899 
L 250.2767 147.330889 
L 250.883772 180.21788 
L 251.6932 257.003415 
L 252.097915 271.875339 
L 252.300272 275.018483 
L 252.502629 275.292717 
L 252.704986 271.326871 
L 253.109701 237.785937 
L 253.91913 162.814566 
L 254.323844 146.634756 
L 254.728558 137.606128 
L 254.930916 136.319337 
L 255.133273 143.997891 
L 255.740345 182.369563 
L 256.549773 259.387142 
L 256.954488 275.229432 
L 257.156845 279.131994 
L 257.359202 280.840683 
L 257.561559 279.849221 
L 257.966274 250.274134 
L 258.573345 198.675942 
L 258.97806 176.484078 
L 259.382774 165.198292 
L 259.585131 161.675439 
L 259.787489 161.232446 
L 259.989846 163.911502 
L 260.39456 180.281165 
L 260.596917 193.950678 
L 261.203989 257.425314 
L 261.608704 276.579508 
L 261.811061 279.574987 
L 262.013418 278.77338 
L 262.418132 254.23998 
L 262.62049 241.941637 
L 263.025204 232.048117 
L 263.227561 229.179206 
L 263.429918 228.145555 
L 263.834633 229.45344 
L 264.03699 229.137017 
L 264.239347 230.107383 
L 264.441704 230.191763 
L 264.644062 229.917529 
L 264.846419 232.005927 
L 265.048776 236.140532 
L 265.251133 236.140532 
L 265.45349 240.254043 
L 266.060562 283.730688 
L 266.465277 296.872828 
L 266.667634 298.454947 
L 266.869991 294.172677 
L 267.072348 286.030035 
L 267.477063 258.901959 
L 268.084134 236.203817 
L 268.488849 225.677449 
L 269.09592 214.159618 
L 269.500635 210.109392 
L 269.702992 212.345455 
L 269.905349 216.037067 
L 270.107706 216.733199 
L 270.310063 223.188247 
L 270.917135 273.204319 
L 271.32185 285.460472 
L 271.524207 287.654345 
L 271.726564 285.903466 
L 274.15485 140.960221 
L 274.357208 133.619186 
L 274.559565 137.036565 
L 275.166636 162.793471 
L 275.976065 246.308287 
L 276.38078 259.176193 
L 276.583137 258.458965 
L 276.987851 236.098343 
L 277.392566 206.50216 
L 278.404352 148.195781 
L 278.606709 145.073732 
L 279.011423 131.530789 
L 279.213781 129.885384 
L 279.416138 134.252034 
L 280.023209 176.969262 
L 280.630281 250.020994 
L 281.034995 273.351984 
L 281.237353 278.351482 
L 281.43971 276.769362 
L 281.642067 270.736213 
L 282.249139 227.976796 
L 282.85621 193.52878 
L 283.867996 149.714616 
L 284.070354 148.49111 
L 284.272711 156.844701 
L 285.284497 241.920542 
L 285.689211 274.870819 
L 286.093926 289.974787 
L 286.296283 292.316323 
L 286.49864 290.45997 
L 286.700997 287.443395 
L 287.105712 255.674435 
L 287.712783 202.873832 
L 288.522212 158.384631 
L 288.724569 151.085786 
L 288.926927 149.102863 
L 289.129284 152.77338 
L 289.736355 187.411251 
L 290.545784 259.197288 
L 290.950499 274.849724 
L 291.152856 277.697539 
L 291.355213 277.781919 
L 291.55757 276.263084 
L 291.759927 263.479558 
L 292.771714 162.392667 
L 293.176428 139.863285 
L 293.581142 128.345455 
L 293.7835 126.573481 
L 293.985857 130.180713 
L 294.592928 156.338423 
L 295.402357 241.667403 
L 295.807072 256.729181 
L 296.009429 256.560422 
L 296.414143 235.760824 
L 297.830644 97.293722 
L 298.235358 83.645304 
L 298.437715 80.987343 
L 298.640073 81.261577 
L 298.84243 83.37107 
L 299.044787 91.619186 
L 299.449501 119.295731 
L 300.056573 200.363536 
L 300.461287 226.268106 
L 300.663645 232.44892 
L 300.866002 233.187243 
L 301.068359 226.183727 
L 301.473073 195.342943 
L 302.484859 87.273631 
L 302.687217 75.650326 
L 302.889574 75.755801 
L 303.091931 84.067202 
L 303.496646 92.948167 
L 303.90136 115.793973 
L 304.306074 144.483074 
L 304.913146 215.551883 
L 305.31786 241.583024 
L 305.520218 247.299749 
L 305.722575 245.46449 
L 305.924932 238.14455 
L 306.532004 197.114917 
L 307.54379 125.223405 
L 307.746147 114.739227 
L 307.948504 113.832145 
L 308.757933 146.972275 
L 309.162647 173.741738 
L 309.769719 238.439879 
L 310.174433 258.859769 
L 310.376791 263.374083 
L 310.579148 262.783425 
L 310.983862 238.735208 
L 312.198005 131.889402 
L 312.60272 119.949674 
L 312.805077 115.456454 
L 313.007434 116.026017 
L 313.209791 119.823104 
L 313.816863 148.153591 
L 314.01922 162.202813 
L 314.626292 226.479056 
L 315.031006 247.531793 
L 315.233364 252.235962 
L 315.435721 251.560924 
L 315.840435 232.280161 
L 316.24515 213.062682 
L 316.649864 200.72215 
L 317.054578 185.006429 
L 317.66165 177.285686 
L 317.864007 176.821597 
L 318.066364 175.89342 
L 318.268722 180.703064 
L 318.875793 203.443395 
L 319.685222 263.627223 
L 320.089937 276.748267 
L 320.292294 278.435861 
L 320.697008 270.293219 
L 321.101723 243.354997 
L 322.315866 163.320844 
L 322.72058 152.794475 
L 322.922937 150.410748 
L 323.125295 154.650829 
L 323.732366 183.023506 
L 324.541795 253.417278 
L 324.94651 268.099347 
L 325.148867 271.073732 
L 325.351224 271.137017 
L 325.553581 268.816575 
L 325.755938 256.159618 
L 326.970082 140.707082 
L 327.172439 134.209844 
L 327.374796 132.585535 
L 327.77951 126.86881 
L 327.981868 131.994877 
L 328.184225 141.023506 
L 328.791296 194.077248 
L 329.196011 238.988348 
L 329.398368 254.640784 
L 329.803083 265.019488 
L 330.00544 264.049121 
L 330.207797 258.290206 
L 330.814869 208.463988 
L 331.42194 169.206328 
L 331.826655 145.917529 
L 332.029012 142.943144 
L 332.231369 142.964239 
L 332.433726 143.154093 
L 332.636083 145.305776 
L 332.838441 149.967755 
L 333.243155 173.509694 
L 333.445512 182.770367 
L 334.052584 250.274134 
L 334.457298 272.655851 
L 334.659655 278.224912 
L 334.862013 275.756806 
L 335.266727 255.379106 
L 335.671442 230.360522 
L 336.48087 189.16213 
L 336.683228 183.951683 
L 336.885585 182.812557 
L 337.087942 176.462983 
L 337.290299 174.56444 
L 337.695014 181.209342 
L 338.099728 196.060171 
L 338.302085 202.09332 
L 339.111514 269.702562 
L 339.313871 276.07323 
L 339.516228 278.372577 
L 339.718586 274.195781 
L 340.1233 250.210849 
L 340.932729 204.540331 
L 342.349229 141.107885 
L 342.551587 141.023506 
L 343.158658 166.379608 
L 343.76573 230.845706 
L 344.170444 249.345957 
L 344.372801 254.23998 
L 344.575159 252.046107 
L 344.777516 244.937117 
L 345.18223 213.210347 
L 346.194016 128.32436 
L 346.598731 113.157107 
L 347.003445 106.36454 
L 347.205802 105.499648 
L 347.40816 108.769362 
L 347.610517 116.827624 
L 348.015231 143.639277 
L 348.82466 237.237469 
L 349.229374 254.809543 
L 349.431732 254.029031 
L 349.634089 248.080261 
L 349.836446 236.646811 
L 351.050589 129.379106 
L 351.455304 110.520241 
L 351.860018 101.428327 
L 352.062375 100.500151 
L 352.264733 104.233953 
L 352.46709 115.625213 
L 353.276519 200.975289 
L 353.681233 239.937619 
L 354.085947 260.673933 
L 354.288305 266.095329 
L 354.490662 266.685987 
L 354.693019 264.38664 
L 355.097733 221.205324 
L 355.704805 145.369061 
L 356.109519 119.991863 
L 356.716591 101.301758 
L 356.918948 100.183727 
L 357.121306 105.11994 
L 357.52602 131.446409 
L 357.728377 144.483074 
L 358.740163 242.574485 
L 359.144878 255.906479 
L 359.347235 257.826118 
L 359.549592 257.488599 
L 359.751949 243.101858 
L 360.763735 119.169161 
L 361.16845 99.571974 
L 361.573164 88.159618 
L 361.775521 85.796986 
L 361.977879 89.172175 
L 362.180236 96.365545 
L 362.58495 122.860773 
L 363.394379 214.054144 
L 363.799093 232.195781 
L 364.001451 233.039578 
L 364.203808 226.985334 
L 364.406165 216.64882 
L 365.013237 145.137017 
L 365.620308 78.772376 
L 366.025023 62.149573 
L 366.429737 55.8 
L 366.632094 56.306278 
L 366.834451 59.027524 
L 367.036809 67.992868 
L 367.441523 98.010949 
L 368.048595 179.901457 
L 368.453309 211.290708 
L 368.655666 220.066198 
L 368.858024 222.513209 
L 369.060381 218.505173 
L 369.262738 208.358513 
L 369.86981 143.006429 
L 370.476881 83.160121 
L 370.881596 66.052135 
L 371.083953 65.588046 
L 371.28631 66.326369 
L 371.488667 70.376595 
L 371.691024 76.789453 
L 372.298096 116.912004 
L 373.107525 204.413762 
L 373.512239 227.301758 
L 373.714597 231.794977 
L 374.119311 231.07775 
L 374.321668 217.956705 
L 375.333454 111.047614 
L 375.738169 97.399196 
L 375.940526 94.614666 
L 376.142883 93.47554 
L 376.34524 98.812557 
L 376.749955 125.835158 
L 377.559383 186.504169 
L 377.964098 222.196786 
L 378.368812 236.414766 
L 378.57117 236.646811 
L 378.773527 230.529282 
L 378.975884 218.969262 
L 380.392384 98.791462 
L 380.797099 88.560422 
L 381.201813 80.734204 
L 381.40417 84.615671 
L 382.011242 122.776394 
L 382.820671 208.189754 
L 383.225385 224.791462 
L 383.427743 225.466499 
L 383.6301 219.960723 
L 384.034814 197.030537 
L 385.0466 121.320844 
L 385.451315 104.107383 
L 385.653672 103.6222 
L 385.856029 107.524761 
L 386.058386 115.393169 
L 387.070172 187.558915 
L 387.474887 228.926067 
L 387.879601 251.497639 
L 388.284316 260.927072 
L 388.68903 263.521748 
L 388.891387 257.594073 
L 389.700816 212.682973 
L 390.307888 201.122953 
L 390.914959 187.980814 
L 391.117316 192.917027 
L 391.926745 233.735711 
L 392.533817 279.321848 
L 392.938531 292.084279 
L 393.140888 294.003918 
L 393.343246 293.539829 
L 393.545603 294.025013 
L 393.74796 284.785434 
L 394.355032 242.321346 
L 395.569175 184.057157 
L 395.771532 177.855249 
L 395.973889 179.099849 
L 396.176247 187.685485 
L 396.783318 231.056655 
L 397.188033 270.799498 
L 397.592747 289.194274 
L 397.795104 292.063184 
L 397.997461 289.447413 
L 398.402176 270.736213 
L 400.628105 139.061678 
L 400.830462 141.993872 
L 401.03282 152.267102 
L 401.639891 211.121949 
L 402.044606 256.876846 
L 402.44932 277.845203 
L 402.651677 281.979809 
L 402.854034 280.27112 
L 403.258749 261.496635 
L 403.663463 232.174686 
L 404.877607 122.755299 
L 405.282321 101.575992 
L 405.484678 97.230437 
L 405.687035 98.348468 
L 405.889393 109.191261 
L 406.294107 147.752788 
L 406.901179 227.639277 
L 407.305893 252.468006 
L 407.50825 258.248016 
L 407.710607 257.699548 
L 408.115322 235.781919 
L 409.73418 99.276645 
L 409.936537 94.192767 
L 410.138894 94.045103 
L 410.341251 98.791462 
L 410.948323 136.045103 
L 411.15068 152.456956 
L 411.757752 225.29774 
L 412.162466 250.126469 
L 412.364823 256.813561 
L 412.56718 258.64882 
L 412.971895 240.021999 
L 414.388395 138.808538 
L 414.79311 124.843697 
L 415.197824 117.96675 
L 415.400181 124.949171 
L 416.20961 189.478553 
L 416.614325 236.140532 
L 417.019039 259.93561 
L 417.221396 264.323355 
L 417.423753 263.753792 
L 417.828468 247.0888 
L 419.244968 146.276143 
L 419.649683 132.248016 
L 419.85204 128.303265 
L 420.054397 129.77991 
L 420.256754 138.703064 
L 421.066183 205.974787 
L 421.673255 262.720141 
L 422.077969 279.279658 
L 422.280326 281.832145 
L 422.482684 281.157107 
L 422.685041 280.988348 
L 423.089755 249.324862 
L 423.899184 178.234957 
L 424.708613 137.774887 
L 424.91097 134.505173 
L 425.113327 138.618684 
L 425.518042 165.493621 
L 425.720399 177.623204 
L 426.529828 254.345455 
L 426.934542 273.436364 
L 427.136899 278.035058 
L 427.339257 278.85776 
L 427.541614 279.089804 
L 427.743971 270.25103 
L 428.148685 228.778403 
L 428.755757 165.177197 
L 429.160471 138.829633 
L 429.565186 130.349473 
L 429.9699 134.378604 
L 430.374615 151.043596 
L 430.576972 163.00442 
L 431.386401 241.076745 
L 431.791115 253.649322 
L 431.993472 251.560924 
L 432.398187 230.698041 
L 433.207616 163.827122 
L 434.017044 91.534807 
L 434.219402 86.514214 
L 435.02883 114.675942 
L 435.433545 140.348468 
L 436.040617 213.484581 
L 436.445331 236.625716 
L 436.647688 241.899448 
L 436.850045 241.203315 
L 437.25476 220.045103 
L 437.659474 184.183727 
L 438.468903 108.727172 
L 438.67126 98.728177 
L 438.873617 99.719638 
L 439.075975 107.018483 
L 439.278332 106.554395 
L 439.480689 108.853742 
L 439.885403 127.902461 
L 440.290118 153.321848 
L 440.897189 228.715118 
L 441.301904 251.624209 
L 441.504261 257.19327 
L 441.706618 257.741738 
L 442.111333 242.616675 
L 442.920762 189.204319 
L 443.527833 153.406228 
L 444.134905 130.054144 
L 444.337262 127.396183 
L 444.539619 133.9778 
L 445.146691 180.238975 
L 445.753762 251.265595 
L 446.158477 273.03556 
L 446.360834 278.119437 
L 446.563191 276.07323 
L 446.967906 256.665897 
L 448.586763 143.955701 
L 448.991478 130.412757 
L 449.193835 128.029031 
L 449.396192 134.863787 
L 450.003264 176.315319 
L 450.812693 258.48006 
L 451.217407 272.128478 
L 451.419764 272.255048 
L 451.824479 254.619689 
L 452.43155 202.873832 
L 453.038622 159.861276 
L 453.443336 142.373581 
L 453.848051 134.294224 
L 454.050408 137.753792 
L 454.252765 148.005927 
L 454.65748 177.159116 
L 454.859837 185.829131 
L 455.669266 252.257057 
L 456.07398 266.158614 
L 456.276337 267.719638 
L 456.478694 265.67343 
L 456.681052 262.488096 
L 456.883409 254.28217 
L 457.288123 226.563435 
L 457.692838 215.319839 
L 457.895195 216.037067 
L 458.299909 221.943646 
L 458.502267 221.795982 
L 458.906981 217.872325 
L 459.109338 218.420794 
L 459.514053 222.681969 
L 459.71641 227.090809 
L 460.728196 286.304269 
L 461.13291 290.839679 
L 461.537625 287.443395 
L 461.739982 278.288197 
L 462.144696 242.890909 
L 463.561197 171.927574 
L 463.763554 164.481065 
L 463.965911 165.683476 
L 464.572983 185.660372 
L 465.382412 254.366549 
L 465.584769 261.454445 
L 465.787126 264.238975 
L 465.989483 261.749774 
L 467.608341 166.822602 
L 468.620127 145.094827 
L 468.822484 148.301256 
L 469.429556 175.218383 
L 470.036627 233.398192 
L 470.441342 251.645304 
L 470.643699 254.345455 
L 470.846056 251.708589 
L 471.857842 199.477549 
L 472.869628 168.446911 
L 473.071985 168.953189 
L 473.274343 167.117931 
L 473.4767 168.404721 
L 473.679057 172.286188 
L 473.881414 179.036565 
L 474.083772 180.21788 
L 474.286129 188.086288 
L 474.8932 241.540834 
L 475.297915 258.205826 
L 475.500272 259.914515 
L 475.702629 257.826118 
L 476.107344 232.828629 
L 476.512058 210.257057 
L 477.321487 177.960723 
L 477.726201 157.287695 
L 477.928558 153.638272 
L 478.333273 158.447916 
L 478.53563 163.025515 
L 479.142702 188.592567 
L 479.952131 258.100352 
L 480.356845 268.204822 
L 480.559202 267.782923 
L 480.963917 245.126971 
L 482.785131 113.452436 
L 482.987489 107.398192 
L 483.189846 104.698041 
L 483.392203 110.478051 
L 483.999275 151.36002 
L 484.606346 224.285183 
L 485.011061 248.101356 
L 485.213418 252.615671 
L 485.415775 253.586037 
L 485.82049 233.313812 
L 486.225204 201.312808 
L 487.23699 109.043596 
L 487.439347 105.879357 
L 487.844062 112.608639 
L 488.248776 131.699548 
L 489.260562 211.206328 
L 489.665277 244.1777 
L 490.069991 259.661376 
L 490.272348 262.066198 
L 490.474705 260.905977 
L 490.677063 259.091813 
L 490.87942 249.113913 
L 491.891206 167.37107 
L 492.29592 149.208338 
L 492.498277 141.635259 
L 492.700635 139.567956 
L 492.902992 141.234455 
L 493.105349 146.170668 
L 493.712421 180.534304 
L 494.52185 254.345455 
L 495.128921 273.07775 
L 495.331278 273.225414 
L 495.533636 272.592567 
L 495.735993 264.850728 
L 496.950136 171.041587 
L 497.557208 146.065193 
L 497.759565 142.62672 
L 497.961922 145.917529 
L 498.568994 178.213862 
L 499.378422 253.881366 
L 499.58078 260.884882 
L 499.783137 263.437368 
L 499.985494 260.041085 
L 500.187851 251.307785 
L 500.794923 213.463486 
L 500.99728 208.231944 
L 501.401995 194.81557 
L 501.806709 183.276645 
L 502.009066 182.812557 
L 502.211423 184.922049 
L 502.413781 185.575992 
L 502.616138 183.867303 
L 503.020852 193.824108 
L 503.223209 194.393672 
L 503.425567 202.09332 
L 504.032638 254.050126 
L 504.437353 267.445404 
L 504.63971 269.111904 
L 504.842067 266.685987 
L 505.246782 241.709593 
L 505.651496 217.302762 
L 507.270354 142.331391 
L 507.472711 139.146057 
L 507.675068 142.62672 
L 508.28214 171.358011 
L 508.889211 230.824611 
L 509.293926 248.37559 
L 509.496283 251.982823 
L 509.69864 250.105374 
L 510.103354 225.972777 
L 511.722212 116.954194 
L 512.126927 98.749272 
L 512.329284 100.373581 
L 512.936355 135.602109 
L 513.34107 175.513712 
L 513.745784 220.066198 
L 514.150499 243.354997 
L 514.352856 249.071723 
L 514.555213 249.578001 
L 514.75757 240.464992 
L 516.174071 141.29774 
L 516.376428 140.179709 
L 516.781142 149.735711 
L 516.9835 146.930085 
L 517.185857 147.478553 
L 517.590571 165.620191 
L 517.792928 169.965746 
L 517.995286 180.935108 
L 518.4 221.585033 
L 518.4 221.585033 
" clip-path="url(#p250fc0ef37)" style="fill: none; stroke: #1f77b4; stroke-width: 1.5; stroke-linecap: square"/>
   </g>
   <g id="line2d_14">
    <path d="M 72 248.38839 
L 72.202357 248.38839 
L 72.404714 249.235841 
L 72.607072 249.565437 
L 72.809429 250.738114 
L 73.011786 249.99946 
L 73.618858 241.890868 
L 73.821215 235.236735 
L 74.630644 193.973795 
L 74.833001 191.275709 
L 75.237715 178.826486 
L 75.440073 177.761982 
L 75.64243 179.053065 
L 76.249501 194.580264 
L 76.856573 238.912704 
L 77.261287 248.173333 
L 77.666002 251.983544 
L 77.868359 248.432341 
L 79.284859 189.447567 
L 79.891931 178.060478 
L 80.094288 175.173745 
L 80.296646 176.72397 
L 80.903717 196.997634 
L 81.713146 257.430973 
L 81.915503 265.448145 
L 82.11786 266.776921 
L 82.320218 269.014304 
L 82.522575 268.742865 
L 83.736718 218.63191 
L 84.34379 213.914511 
L 84.950861 217.457312 
L 85.355576 222.139911 
L 85.557933 228.241324 
L 86.367362 271.195402 
L 86.569719 277.731959 
L 86.974433 281.441582 
L 87.176791 285.494884 
L 87.379148 286.01677 
L 87.581505 281.487602 
L 88.795648 236.792073 
L 88.998005 233.860415 
L 89.200363 232.987949 
L 89.40272 233.339533 
L 89.807434 240.680264 
L 90.009791 241.99476 
L 90.212149 246.420113 
L 90.414506 247.984003 
L 90.616863 250.773568 
L 91.223935 268.064284 
L 91.426292 278.672906 
L 91.628649 282.567655 
L 91.831006 282.569116 
L 92.033364 285.643275 
L 92.235721 285.926549 
L 92.640435 265.759171 
L 93.04515 247.603632 
L 93.449864 235.906496 
L 93.854578 217.215576 
L 94.056936 213.583226 
L 94.259293 212.452073 
L 94.866364 215.384559 
L 95.068722 217.839553 
L 95.473436 229.221445 
L 95.87815 247.803798 
L 96.282865 271.726246 
L 96.485222 276.404317 
L 96.687579 274.529024 
L 96.889937 274.890389 
L 97.092294 274.853839 
L 97.294651 266.733887 
L 97.699365 241.263161 
L 98.10408 235.325011 
L 98.711151 217.984845 
L 98.913509 216.289101 
L 99.115866 217.483706 
L 99.318223 216.961112 
L 99.52058 217.558583 
L 99.722937 219.211903 
L 100.330009 240.685153 
L 101.341795 278.007858 
L 101.544152 276.817989 
L 101.74651 279.450301 
L 101.948867 279.723663 
L 102.151224 271.24198 
L 102.555938 247.351173 
L 102.758296 242.470783 
L 102.960653 240.30097 
L 103.365367 222.323142 
L 103.770082 218.211152 
L 103.972439 217.680006 
L 104.377153 215.348522 
L 104.57951 216.502945 
L 105.186582 238.087202 
L 105.996011 276.436728 
L 106.198368 278.686196 
L 106.400725 277.489227 
L 106.80544 280.486198 
L 107.007797 272.213068 
L 107.412511 250.21767 
L 108.019583 232.116126 
L 108.22194 221.677455 
L 109.233726 202.10252 
L 109.436083 205.175282 
L 109.638441 211.759747 
L 110.852584 273.220329 
L 111.054941 276.67013 
L 111.257298 276.925101 
L 111.662013 278.641957 
L 111.86437 271.057776 
L 112.269084 249.936891 
L 112.876156 227.357985 
L 113.28087 208.611359 
L 113.685585 199.175099 
L 114.090299 188.348686 
L 114.292656 188.97371 
L 114.697371 203.426035 
L 115.709157 265.131582 
L 115.911514 270.172878 
L 116.316228 273.296018 
L 116.518586 272.961225 
L 117.328015 239.131865 
L 117.732729 219.960631 
L 118.137443 196.294838 
L 118.744515 174.840302 
L 118.946872 169.176359 
L 119.149229 169.131764 
L 119.553944 180.368932 
L 119.756301 187.499811 
L 120.161015 224.379519 
L 120.56573 253.58143 
L 120.970444 265.240751 
L 121.375159 268.79539 
L 121.577516 264.537846 
L 122.184587 234.82495 
L 122.791659 206.773839 
L 123.196374 191.39996 
L 123.601088 186.639592 
L 123.803445 187.118899 
L 124.005802 192.274601 
L 124.612874 216.700213 
L 124.815231 222.544932 
L 125.219946 251.504334 
L 125.62466 274.745695 
L 126.029374 281.615091 
L 126.231732 280.457684 
L 126.434089 274.422937 
L 127.445875 216.11491 
L 127.850589 191.290178 
L 128.457661 172.321496 
L 128.660018 167.925571 
L 128.862375 168.717458 
L 129.469447 198.273061 
L 130.076519 255.309214 
L 130.481233 275.218613 
L 130.885947 272.256846 
L 131.088305 267.257618 
L 132.302448 200.204645 
L 132.909519 176.79807 
L 133.516591 158.296938 
L 133.718948 159.750486 
L 134.32602 182.167822 
L 135.135449 254.703896 
L 135.337806 259.731988 
L 135.540163 260.539266 
L 135.74252 260.844736 
L 135.944878 259.769557 
L 136.349592 234.621544 
L 136.956664 199.903843 
L 137.159021 195.196416 
L 137.563735 181.949538 
L 137.766092 182.964296 
L 138.170807 186.34892 
L 138.373164 187.073239 
L 138.575521 193.059974 
L 138.980236 211.175269 
L 139.182593 214.287723 
L 139.587307 233.569695 
L 139.992022 260.791639 
L 140.194379 264.885691 
L 140.396736 266.576922 
L 140.599093 270.298828 
L 140.801451 267.316428 
L 141.610879 223.489839 
L 142.217951 205.707717 
L 142.420308 203.681799 
L 142.622665 202.976846 
L 143.02738 204.276016 
L 143.229737 207.262719 
L 143.836809 222.071359 
L 144.241523 239.621696 
L 144.646238 260.49726 
L 144.848595 268.123101 
L 145.050952 268.601805 
L 145.253309 266.050801 
L 145.455666 265.208411 
L 145.658024 262.139548 
L 146.467452 227.182193 
L 146.66981 224.389102 
L 147.074524 211.157787 
L 147.276881 209.985212 
L 147.479238 210.016616 
L 147.681596 210.746058 
L 148.08631 216.555426 
L 148.693382 233.226937 
L 149.502811 268.725065 
L 149.705168 272.361152 
L 149.907525 270.656612 
L 150.109882 270.632884 
L 150.312239 268.714421 
L 150.514597 265.643633 
L 150.919311 248.823867 
L 151.121668 240.659878 
L 151.526383 234.156187 
L 151.931097 223.291503 
L 152.335811 220.694078 
L 152.538169 220.776065 
L 152.740526 222.112691 
L 153.14524 229.696123 
L 153.954669 261.589532 
L 154.561741 273.193429 
L 154.764098 273.567476 
L 154.966455 274.290899 
L 155.168812 277.344963 
L 155.37117 276.854468 
L 155.775884 265.51087 
L 156.180598 248.389255 
L 156.585313 232.9539 
L 157.394742 191.65829 
L 157.597099 186.056182 
L 157.799456 184.133836 
L 158.001813 184.769867 
L 158.608885 193.728782 
L 158.811242 204.536131 
L 159.215956 240.781132 
L 159.620671 259.392624 
L 160.025385 266.126073 
L 160.227743 266.380255 
L 160.4301 260.172118 
L 161.8466 185.87268 
L 162.048957 183.9096 
L 162.251315 183.134617 
L 162.453672 183.069982 
L 162.656029 183.316421 
L 162.858386 187.91882 
L 163.870172 230.845104 
L 164.274887 263.680847 
L 164.477244 269.879069 
L 164.679601 269.424964 
L 164.881958 269.323709 
L 165.084316 264.957221 
L 165.893744 221.496377 
L 167.310245 186.295291 
L 167.512602 182.920608 
L 167.714959 186.21134 
L 168.322031 207.660136 
L 168.929102 254.691801 
L 169.13146 263.864385 
L 169.333817 266.056785 
L 169.536174 263.566777 
L 169.738531 262.925597 
L 169.940888 260.045507 
L 170.54796 226.836815 
L 171.155032 193.481105 
L 171.559746 181.416431 
L 171.964461 176.150502 
L 172.369175 168.066324 
L 172.571532 172.075227 
L 173.178604 197.635691 
L 173.988033 257.058343 
L 174.19039 261.365363 
L 174.392747 260.979245 
L 174.595104 262.479201 
L 174.797461 262.304051 
L 175.202176 237.928473 
L 175.404533 223.323884 
L 175.809248 211.453001 
L 176.213962 191.87596 
L 176.618676 186.899635 
L 177.023391 181.582965 
L 177.225748 177.429445 
L 177.428105 181.084083 
L 178.035177 203.178945 
L 178.844606 267.865381 
L 179.046963 272.141891 
L 179.654034 269.35651 
L 180.058749 246.643818 
L 180.463463 224.823123 
L 181.272892 184.131485 
L 181.475249 177.683638 
L 181.677607 175.274395 
L 182.082321 163.622424 
L 182.284678 165.954786 
L 182.89175 189.069311 
L 183.903536 263.871273 
L 184.105893 262.835517 
L 184.510607 258.635836 
L 184.915322 239.900161 
L 185.320036 218.848175 
L 185.927108 178.652295 
L 186.331822 159.799551 
L 186.736537 156.435152 
L 186.938894 158.104526 
L 187.343608 176.59661 
L 188.355394 234.220325 
L 188.760109 253.154581 
L 188.962466 254.400226 
L 189.164823 253.948521 
L 189.36718 255.025883 
L 189.569538 250.041902 
L 189.771895 240.941447 
L 190.176609 218.344725 
L 190.378966 212.846506 
L 190.783681 182.990225 
L 191.188395 166.435807 
L 191.390752 163.685047 
L 191.59311 165.153698 
L 191.795467 169.171777 
L 192.200181 189.757854 
L 192.604896 209.151876 
L 193.00961 223.94214 
L 193.414325 250.258612 
L 193.616682 258.644842 
L 193.819039 260.710017 
L 194.021396 260.221464 
L 194.223753 258.962436 
L 194.628468 241.343008 
L 195.033182 219.725865 
L 195.235539 214.781911 
L 195.640254 191.305322 
L 195.842611 186.620737 
L 196.044968 184.857493 
L 196.247325 186.255755 
L 196.65204 196.400898 
L 197.056754 217.487229 
L 197.259112 217.988494 
L 197.461469 221.484838 
L 197.663826 228.131463 
L 198.473255 267.461692 
L 198.675612 269.390741 
L 198.877969 270.081747 
L 199.080326 267.684823 
L 199.485041 245.639143 
L 200.092112 211.945986 
L 200.496827 191.882366 
L 200.699184 187.170878 
L 200.901541 185.608527 
L 201.103898 185.558332 
L 201.508613 182.996264 
L 201.71097 185.672326 
L 202.318042 201.999703 
L 202.520399 212.149696 
L 202.925113 244.913836 
L 203.329828 262.06195 
L 203.734542 255.640271 
L 203.936899 250.73088 
L 205.151043 194.70279 
L 205.555757 185.779925 
L 205.758114 185.233625 
L 205.960471 185.476245 
L 206.365186 183.373428 
L 206.567543 186.516233 
L 207.376972 217.350752 
L 207.984044 251.846072 
L 208.186401 255.69004 
L 208.793472 250.777951 
L 208.99583 241.562054 
L 209.400544 217.308116 
L 210.209973 188.775241 
L 211.221759 164.567478 
L 211.424116 166.685408 
L 211.82883 181.447857 
L 212.031188 185.969709 
L 212.233545 197.311462 
L 212.638259 231.556674 
L 212.840617 243.343526 
L 213.042974 248.09298 
L 213.245331 247.488254 
L 213.447688 246.171832 
L 213.650045 243.530318 
L 215.066546 172.759672 
L 216.078332 142.333704 
L 216.280689 144.718946 
L 216.887761 169.552923 
L 217.090118 181.455931 
L 217.494832 220.089198 
L 217.899547 235.07115 
L 218.101904 236.182494 
L 218.304261 238.144638 
L 218.506618 238.334449 
L 219.316047 211.267338 
L 219.720762 183.759559 
L 220.327833 159.746456 
L 220.53019 158.874873 
L 220.732548 160.014813 
L 220.934905 163.358098 
L 221.946691 217.674719 
L 222.149048 222.267196 
L 222.75612 256.096324 
L 223.160834 260.905049 
L 223.363191 261.656846 
L 223.565549 256.154724 
L 223.970263 232.931687 
L 224.17262 220.026825 
L 224.374977 218.414875 
L 224.982049 201.695562 
L 225.184406 199.326296 
L 225.386763 201.805755 
L 226.398549 229.1533 
L 226.803264 245.555983 
L 227.612693 274.490257 
L 227.81505 274.602777 
L 228.017407 275.570124 
L 228.219764 274.223553 
L 228.624479 255.364936 
L 229.029193 234.949406 
L 229.433908 227.898205 
L 230.243336 211.402731 
L 230.648051 207.255892 
L 230.850408 207.251161 
L 231.45748 228.966767 
L 232.469266 278.892602 
L 232.87398 275.253241 
L 233.076337 273.369681 
L 234.088123 232.823255 
L 234.290481 224.5652 
L 234.695195 201.074626 
L 235.504624 189.172616 
L 235.706981 189.405532 
L 236.314053 210.193568 
L 236.921124 253.587072 
L 237.325839 271.505191 
L 237.528196 271.29749 
L 237.730553 272.063524 
L 237.93291 271.194158 
L 238.337625 251.537052 
L 238.944696 225.341057 
L 239.551768 200.678278 
L 239.754125 197.891542 
L 239.956482 197.785279 
L 240.15884 196.474878 
L 240.361197 193.804208 
L 240.563554 197.159871 
L 241.372983 234.040096 
L 241.980054 270.809232 
L 242.182412 274.079276 
L 242.384769 271.966415 
L 242.789483 269.878826 
L 243.194198 249.769675 
L 243.598912 232.067449 
L 244.003626 218.625794 
L 244.408341 203.652263 
L 245.21777 189.457034 
L 245.420127 191.077866 
L 245.824841 206.202968 
L 247.038985 272.045416 
L 247.443699 267.813529 
L 247.646056 267.543365 
L 248.050771 249.466995 
L 248.657842 220.234159 
L 249.062557 192.399482 
L 249.467271 177.154149 
L 250.074343 164.26144 
L 250.2767 165.824846 
L 250.883772 189.885247 
L 251.895558 259.22301 
L 252.097915 259.464125 
L 252.300272 258.446945 
L 252.502629 256.736843 
L 252.704986 250.560401 
L 254.323844 163.311616 
L 254.526201 159.535301 
L 254.728558 158.231329 
L 254.930916 157.75779 
L 255.133273 161.398978 
L 255.942702 203.808822 
L 256.549773 244.657801 
L 256.752131 255.384307 
L 256.954488 258.658141 
L 257.359202 260.580561 
L 257.561559 255.576674 
L 258.168631 218.916078 
L 258.370988 215.98346 
L 258.775703 186.881554 
L 259.180417 172.123651 
L 259.382774 169.379747 
L 259.787489 170.492877 
L 259.989846 175.218385 
L 261.001632 223.228686 
L 261.608704 266.514645 
L 261.811061 270.187872 
L 262.215775 268.886771 
L 262.418132 260.921421 
L 263.227561 213.762732 
L 263.632276 201.325884 
L 263.834633 200.538187 
L 264.03699 203.18523 
L 264.644062 217.747941 
L 264.846419 219.68613 
L 265.048776 220.474987 
L 265.251133 221.897452 
L 265.45349 228.452908 
L 266.465277 278.551896 
L 266.667634 277.984085 
L 267.072348 269.830018 
L 267.477063 250.024527 
L 267.881777 236.660275 
L 268.084134 234.341717 
L 268.893563 214.30695 
L 269.298277 215.977209 
L 269.500635 217.222468 
L 269.702992 221.217707 
L 270.714778 261.402298 
L 271.119492 273.378146 
L 271.32185 274.653923 
L 271.524207 272.771081 
L 271.726564 272.473121 
L 271.928921 271.844289 
L 272.333636 254.89683 
L 272.73835 237.054913 
L 272.940707 230.335601 
L 273.547779 195.465111 
L 273.952493 185.94495 
L 274.15485 182.358061 
L 274.357208 175.70334 
L 274.559565 172.805708 
L 275.166636 181.180218 
L 275.368994 189.51517 
L 275.976065 242.737547 
L 276.178422 248.278843 
L 276.38078 250.36179 
L 276.583137 250.995879 
L 276.785494 249.594695 
L 276.987851 243.342622 
L 277.999637 184.999024 
L 278.404352 169.769134 
L 278.606709 163.944804 
L 278.809066 163.505809 
L 279.011423 161.566214 
L 279.213781 157.092921 
L 279.416138 159.951062 
L 279.820852 174.275042 
L 280.225567 194.913622 
L 280.630281 224.062093 
L 281.237353 250.677016 
L 281.43971 250.371103 
L 281.642067 248.683499 
L 281.844424 240.750477 
L 282.249139 217.976629 
L 282.451496 214.022235 
L 282.85621 191.72282 
L 283.463282 173.582536 
L 283.665639 172.681305 
L 284.070354 167.950843 
L 284.272711 169.425319 
L 284.677425 187.695786 
L 285.284497 220.800663 
L 285.891568 264.950993 
L 286.093926 266.746061 
L 286.49864 262.321871 
L 286.700997 257.71186 
L 287.915141 193.606317 
L 288.319855 178.439955 
L 288.724569 170.496343 
L 288.926927 167.045239 
L 289.129284 168.389595 
L 289.736355 194.932939 
L 290.748141 264.560895 
L 290.950499 266.006811 
L 291.152856 264.407814 
L 291.355213 264.540781 
L 291.55757 261.916808 
L 291.962285 239.960782 
L 293.176428 157.657983 
L 293.378785 153.143568 
L 293.7835 150.116039 
L 293.985857 152.645032 
L 294.795286 186.449054 
L 295.604714 248.449071 
L 295.807072 252.510566 
L 296.009429 252.314377 
L 296.211786 251.422699 
L 296.414143 245.932797 
L 296.818858 218.621045 
L 297.223572 178.939718 
L 298.033001 125.70672 
L 298.235358 122.354393 
L 298.437715 122.679312 
L 298.640073 123.458463 
L 298.84243 128.197446 
L 299.651859 164.368703 
L 300.056573 204.398443 
L 300.25893 223.823225 
L 300.663645 234.523941 
L 300.866002 234.602631 
L 301.270716 225.138248 
L 301.473073 215.93133 
L 302.080145 151.36771 
L 302.484859 124.48751 
L 302.889574 109.170808 
L 303.091931 110.353552 
L 303.699003 132.285517 
L 305.115503 226.410862 
L 305.520218 235.130513 
L 305.722575 233.872325 
L 305.924932 231.235974 
L 306.532004 208.138322 
L 306.936718 174.053442 
L 307.54379 142.070346 
L 307.948504 134.082816 
L 308.150861 137.362363 
L 308.353218 143.573426 
L 309.365005 200.783102 
L 310.174433 248.530905 
L 310.376791 251.24498 
L 310.579148 248.696052 
L 310.781505 242.15456 
L 312.198005 155.811652 
L 312.60272 138.817455 
L 312.805077 137.229664 
L 313.007434 137.749263 
L 313.209791 140.400292 
L 313.412149 147.955875 
L 313.816863 170.312569 
L 314.221578 187.890018 
L 314.626292 220.074699 
L 315.031006 233.303227 
L 315.233364 237.492149 
L 315.435721 238.905569 
L 316.042792 216.774285 
L 316.649864 183.854237 
L 317.054578 172.531165 
L 317.256936 170.601498 
L 317.459293 171.005286 
L 317.864007 174.418076 
L 318.066364 177.834819 
L 318.471079 194.007458 
L 318.875793 208.756716 
L 319.280508 218.596361 
L 319.887579 250.614194 
L 320.089937 251.156489 
L 320.292294 250.900432 
L 320.494651 248.117361 
L 321.30408 218.717332 
L 321.708794 206.844417 
L 322.113509 186.204538 
L 322.72058 172.568804 
L 322.922937 170.888485 
L 323.125295 172.377994 
L 323.732366 192.452855 
L 324.339438 226.272538 
L 324.744152 246.615268 
L 324.94651 249.565934 
L 325.148867 250.72913 
L 325.351224 249.27943 
L 325.553581 245.713383 
L 325.958296 228.420788 
L 326.36301 208.468496 
L 326.970082 171.098352 
L 327.374796 156.45715 
L 327.577153 156.136679 
L 327.77951 154.923358 
L 327.981868 157.345585 
L 328.386582 174.395719 
L 328.791296 194.130938 
L 329.196011 224.31387 
L 329.600725 249.926854 
L 329.803083 254.096149 
L 330.00544 254.077576 
L 330.207797 252.118883 
L 330.410154 246.386956 
L 331.826655 156.773559 
L 332.029012 150.771469 
L 332.231369 151.584972 
L 332.838441 164.60117 
L 333.647869 204.251874 
L 334.457298 258.934303 
L 334.659655 260.737705 
L 334.862013 257.990162 
L 335.06437 251.41145 
L 336.076156 202.388164 
L 336.683228 180.418717 
L 336.885585 177.524671 
L 337.290299 180.871307 
L 337.492656 181.310357 
L 337.897371 196.54743 
L 338.302085 212.852596 
L 338.504442 217.201299 
L 338.909157 242.177388 
L 339.313871 264.254034 
L 339.516228 262.583109 
L 339.920943 258.278469 
L 340.1233 249.518532 
L 340.730372 212.016008 
L 340.932729 205.670441 
L 341.337443 188.416216 
L 342.146872 174.712361 
L 342.349229 170.834288 
L 342.551587 171.369288 
L 343.158658 186.370172 
L 343.361015 192.50495 
L 343.968087 240.79882 
L 344.170444 246.838194 
L 344.372801 247.325382 
L 344.777516 240.311491 
L 345.18223 221.940413 
L 346.194016 159.924909 
L 346.598731 145.967139 
L 347.205802 139.468188 
L 347.40816 142.239792 
L 348.015231 164.123244 
L 348.217588 174.108171 
L 348.82466 224.820928 
L 349.027017 229.922114 
L 349.229374 231.902676 
L 349.431732 231.472608 
L 349.634089 229.810201 
L 349.836446 225.592545 
L 350.038803 218.930268 
L 350.24116 207.175996 
L 350.645875 172.487307 
L 351.252947 140.890095 
L 351.455304 134.630999 
L 351.657661 133.671297 
L 352.062375 135.474016 
L 352.264733 140.478505 
L 352.871804 169.168727 
L 353.074161 179.931295 
L 353.681233 227.327407 
L 354.085947 244.90648 
L 354.490662 240.836203 
L 355.300091 208.065401 
L 355.704805 170.009155 
L 356.311877 137.802659 
L 356.514234 133.894697 
L 356.918948 135.280201 
L 357.121306 140.370009 
L 357.930734 180.357857 
L 358.740163 239.981828 
L 358.94252 247.274193 
L 359.144878 246.582627 
L 359.347235 247.250879 
L 359.549592 241.928296 
L 360.359021 183.145639 
L 360.966092 137.152541 
L 361.16845 127.558055 
L 361.370807 123.928869 
L 361.573164 124.989179 
L 361.775521 126.695379 
L 361.977879 132.552451 
L 362.989665 185.338027 
L 363.394379 224.528227 
L 363.799093 238.899049 
L 364.001451 239.499158 
L 364.203808 235.032572 
L 364.608522 220.254278 
L 365.822665 109.543253 
L 366.025023 103.322732 
L 366.22738 102.188316 
L 366.632094 109.031651 
L 367.239166 138.847353 
L 367.846238 174.517761 
L 368.250952 220.356052 
L 368.453309 228.756194 
L 368.655666 231.439869 
L 368.858024 230.911857 
L 369.060381 227.880848 
L 369.465095 214.300696 
L 370.679238 109.506049 
L 370.881596 105.03341 
L 371.083953 104.562774 
L 371.488667 114.888391 
L 372.500453 172.731913 
L 373.107525 224.696682 
L 373.512239 236.106104 
L 373.916954 231.70714 
L 374.321668 217.544374 
L 374.524025 214.382228 
L 375.131097 158.440434 
L 375.535811 132.312974 
L 375.738169 124.804206 
L 375.940526 121.457929 
L 376.34524 128.246478 
L 376.547597 137.680873 
L 377.154669 176.566551 
L 378.166455 237.176587 
L 378.368812 243.847146 
L 378.57117 240.35896 
L 378.975884 225.600707 
L 379.380598 208.450487 
L 379.98767 146.634442 
L 380.392384 124.160304 
L 380.594742 117.022026 
L 380.797099 115.400915 
L 381.201813 119.319809 
L 381.40417 124.129713 
L 382.415956 177.800255 
L 383.023028 226.803912 
L 383.225385 229.573216 
L 383.427743 228.936317 
L 383.6301 225.761476 
L 384.034814 211.851597 
L 384.237171 192.769193 
L 384.237171 192.769193 
" clip-path="url(#p250fc0ef37)" style="fill: none; stroke: #ff7f0e; stroke-width: 1.5; stroke-linecap: square"/>
   </g>
   <g id="line2d_15">
    <path d="M 384.439529 171.795673 
L 384.844243 145.099106 
L 385.248957 126.385397 
L 385.451315 123.058772 
L 385.653672 124.405798 
L 386.058386 132.702649 
L 386.260743 139.59569 
L 386.867815 178.049286 
L 387.474887 215.242278 
L 387.879601 222.184461 
L 388.081958 222.61594 
L 388.284316 220.303453 
L 388.891387 208.450004 
L 390.307888 128.958444 
L 390.510245 125.580705 
L 390.712602 126.510348 
L 390.914959 128.338455 
L 391.117316 132.340291 
L 392.33146 182.002819 
L 392.736174 188.766778 
L 392.938531 188.14058 
L 393.140888 183.268988 
L 393.74796 155.59061 
L 394.557389 114.674071 
L 394.759746 109.936644 
L 395.164461 106.949176 
L 395.366818 107.826596 
L 395.771532 117.586806 
L 396.176247 134.325734 
L 396.985675 170.992137 
L 397.592747 191.632304 
L 397.795104 196.165626 
L 397.997461 197.44693 
L 398.199819 195.070914 
L 398.604533 182.899462 
L 399.616319 139.047327 
L 399.818676 136.087533 
L 400.021034 135.626341 
L 400.223391 137.335444 
L 400.628105 147.416714 
L 401.03282 162.556971 
L 402.044606 209.747408 
L 402.246963 213.024719 
L 402.44932 213.721872 
L 402.651677 212.310792 
L 403.056392 206.035193 
L 403.258749 200.27585 
L 403.663463 178.319361 
L 404.270535 142.956224 
L 404.675249 125.938469 
L 404.877607 121.236528 
L 405.079964 120.468585 
L 405.282321 123.090055 
L 405.889393 139.971786 
L 406.698821 164.556175 
L 406.901179 169.182587 
L 407.103536 170.8977 
L 407.305893 170.618507 
L 407.50825 168.391466 
L 407.912965 157.144439 
L 409.127108 114.134224 
L 409.329465 112.255239 
L 409.531822 112.179391 
L 409.73418 113.229013 
L 409.936537 116.049425 
L 410.341251 127.557215 
L 412.162466 197.598453 
L 412.364823 200.086084 
L 412.56718 200.242823 
L 412.769538 197.591321 
L 413.174252 186.482939 
L 414.186038 150.631126 
L 414.388395 148.652847 
L 414.590752 148.299152 
L 414.79311 149.190534 
L 414.995467 151.824385 
L 415.400181 161.840011 
L 416.816682 205.876066 
L 417.019039 205.484693 
L 417.221396 203.974322 
L 417.423753 200.682488 
L 417.828468 185.255302 
L 419.042611 122.03853 
L 419.244968 117.154237 
L 419.447325 115.542386 
L 419.649683 116.684927 
L 420.054397 124.25642 
L 420.661469 142.45788 
L 421.26854 158.505017 
L 421.673255 163.497143 
L 421.875612 163.205984 
L 422.077969 161.472654 
L 422.482684 153.722721 
L 423.696827 118.528438 
L 423.899184 117.088154 
L 424.101541 117.737503 
L 424.303898 120.501194 
L 424.708613 131.310372 
L 425.518042 163.406928 
L 426.529828 204.362658 
L 426.934542 210.037838 
L 427.136899 209.375426 
L 427.339257 206.199352 
L 427.743971 193.797523 
L 428.5534 162.071523 
L 428.958114 153.962274 
L 429.160471 152.028388 
L 429.362829 151.790379 
L 429.565186 153.562283 
L 429.9699 161.76677 
L 430.981686 184.156263 
L 431.184044 186.991535 
L 431.386401 187.998881 
L 431.588758 186.438501 
L 431.791115 182.513299 
L 432.19583 168.807291 
L 433.61233 111.832603 
L 433.814687 110.613425 
L 434.017044 110.994289 
L 434.219402 113.01673 
L 434.624116 121.92105 
L 435.838259 156.995799 
L 436.242974 162.732765 
L 436.445331 163.715388 
L 436.647688 163.153306 
L 436.850045 161.202413 
L 437.25476 152.752888 
L 438.064189 133.304863 
L 438.266546 130.794695 
L 438.468903 130.379325 
L 438.67126 132.373649 
L 439.075975 141.769726 
L 439.683046 162.10557 
L 440.290118 189.481339 
L 440.694832 207.463936 
L 440.897189 212.022809 
L 441.099547 213.425948 
L 441.301904 213.425948 
L 441.504261 212.866652 
L 441.706618 210.707463 
L 441.908976 206.563615 
L 442.516047 182.043716 
L 443.123119 159.531373 
L 443.527833 148.992829 
L 443.73019 146.504974 
L 443.932548 146.426639 
L 444.337262 151.261181 
L 445.349048 164.481335 
L 445.551405 165.978789 
L 445.753762 165.701965 
L 445.95612 163.315701 
L 446.360834 153.838694 
L 447.170263 128.105956 
L 447.574977 115.997387 
L 447.979692 111.066754 
L 448.182049 110.858304 
L 448.384406 111.810829 
L 448.586763 113.84517 
L 448.991478 121.969909 
L 450.407978 160.173097 
L 450.812693 166.499077 
L 451.01505 167.478576 
L 451.217407 166.923232 
L 451.622121 163.787936 
L 452.026836 158.689003 
L 452.633908 150.551311 
L 452.836265 150.450024 
L 453.038622 152.061119 
L 453.443336 158.468205 
L 453.848051 167.870481 
L 454.455122 189.341344 
L 455.062194 209.595095 
L 455.264551 211.292916 
L 455.466908 211.806348 
L 455.669266 211.136493 
L 455.871623 209.543267 
L 456.07398 207.020328 
L 456.478694 194.287617 
L 457.692838 147.505737 
L 458.097552 138.724619 
L 458.299909 137.790612 
L 458.502267 138.295915 
L 458.906981 141.169562 
L 459.918767 149.678395 
L 460.121124 149.084159 
L 460.525839 144.359497 
L 461.13291 133.609142 
L 461.739982 120.62999 
L 462.144696 116.70852 
L 462.347053 116.36104 
L 462.549411 116.733382 
L 462.751768 117.823598 
L 463.156482 123.50661 
L 463.763554 139.304162 
L 464.77534 165.217654 
L 465.180054 172.921218 
L 465.584769 176.590792 
L 465.989483 177.946718 
L 466.19184 177.460773 
L 466.394198 175.913735 
L 467.001269 169.082242 
L 467.203626 168.446144 
L 467.405984 168.830756 
L 467.810698 170.96377 
L 468.215413 175.533256 
L 468.822484 187.523971 
L 469.429556 197.754547 
L 469.631913 199.853082 
L 469.83427 200.73037 
L 470.036627 200.180966 
L 470.238985 197.755135 
L 470.643699 187.600929 
L 471.655485 150.262135 
L 472.262557 131.574859 
L 472.464914 128.895872 
L 472.667271 127.759271 
L 472.869628 127.64365 
L 473.071985 128.35491 
L 473.274343 129.855312 
L 474.286129 141.378648 
L 474.690843 142.504727 
L 474.8932 142.441143 
L 475.095558 141.770578 
L 475.297915 140.329198 
L 475.904986 132.28546 
L 476.309701 127.840662 
L 476.714415 125.742866 
L 476.916772 125.916234 
L 477.11913 127.2314 
L 477.523844 133.20041 
L 478.333273 151.904071 
L 479.749773 188.298522 
L 480.154488 193.162953 
L 480.356845 193.5204 
L 480.559202 192.295426 
L 481.166274 183.700775 
L 481.975703 172.223461 
L 482.380417 169.4913 
L 482.582774 169.370578 
L 482.785131 169.759503 
L 483.796917 173.487074 
L 483.999275 173.61355 
L 484.201632 173.054585 
L 484.403989 171.638606 
L 484.808704 166.163176 
L 485.415775 153.109261 
L 486.427561 126.95702 
L 486.832276 121.830034 
L 487.034633 120.895514 
L 487.23699 121.063756 
L 487.439347 122.424552 
L 487.844062 127.70155 
L 489.058205 145.46884 
L 489.462919 148.126841 
L 489.665277 148.448401 
L 489.867634 148.242923 
L 490.272348 146.836453 
L 490.87942 143.855117 
L 491.081777 143.371786 
L 491.284134 143.533396 
L 491.486491 144.52879 
L 491.891206 148.910137 
L 492.498277 159.886674 
L 493.307706 181.019935 
L 493.914778 195.549768 
L 494.319492 199.74943 
L 494.52185 199.656749 
L 494.724207 198.291391 
L 495.128921 192.561566 
L 495.735993 178.498329 
L 496.343064 164.012951 
L 496.747779 157.442419 
L 497.152493 153.826712 
L 497.35485 153.128222 
L 497.557208 152.996869 
L 497.961922 153.363412 
L 498.164279 153.396047 
L 498.366636 153.18502 
L 498.568994 152.675322 
L 498.973708 150.311232 
L 499.378422 145.665308 
L 500.187851 131.384382 
L 500.794923 122.754885 
L 500.99728 121.226846 
L 501.199637 120.698726 
L 501.401995 121.086132 
L 501.604352 122.240137 
L 502.009066 126.7729 
L 503.830281 155.78777 
L 504.234995 158.621389 
L 504.63971 160.049549 
L 504.842067 160.325791 
L 505.449139 159.849848 
L 505.651496 159.984363 
L 505.853853 160.491498 
L 506.05621 161.476281 
L 506.460925 165.155345 
L 507.067996 174.421494 
L 508.079782 192.053976 
L 508.484497 195.112916 
L 508.686854 195.030074 
L 508.889211 193.894097 
L 509.293926 188.246898 
L 509.900997 173.131943 
L 510.912783 147.772421 
L 511.317498 142.296533 
L 511.519855 141.081795 
L 511.722212 140.617842 
L 511.924569 140.632253 
L 512.329284 141.559359 
L 512.733998 142.645397 
L 512.936355 142.766478 
L 513.138713 142.468613 
L 513.543427 140.649772 
L 514.150499 135.438037 
L 514.959927 128.018881 
L 515.162285 126.952073 
L 515.364642 126.492778 
L 515.566999 126.652927 
L 515.769356 127.657721 
L 516.174071 131.785379 
L 516.781142 141.681068 
L 517.995286 162.767508 
L 518.4 167.872445 
L 518.4 167.872445 
" clip-path="url(#p250fc0ef37)" style="fill: none; stroke: #2ca02c; stroke-width: 1.5; stroke-linecap: square"/>
   </g>
   <g id="patch_3">
    <path d="M 72 320.4 
L 72 43.2 
" style="fill: none; stroke: #000000; stroke-width: 0.8; stroke-linejoin: miter; stroke-linecap: square"/>
   </g>
   <g id="patch_4">
    <path d="M 518.4 320.4 
L 518.4 43.2 
" style="fill: none; stroke: #000000; stroke-width: 0.8; stroke-linejoin: miter; stroke-linecap: square"/>
   </g>
   <g id="patch_5">
    <path d="M 72 320.4 
L 518.4 320.4 
" style="fill: none; stroke: #000000; stroke-width: 0.8; stroke-linejoin: miter; stroke-linecap: square"/>
   </g>
   <g id="patch_6">
    <path d="M 72 43.2 
L 518.4 43.2 
" style="fill: none; stroke: #000000; stroke-width: 0.8; stroke-linejoin: miter; stroke-linecap: square"/>
   </g>
   <g id="text_13">
    <!-- Classic Transformer - model_20231126170653 -->
    <g transform="translate(155.436563 37.2) scale(0.12 -0.12)">
     <defs>
      <path id="DejaVuSans-43" d="M 4122 4306 
L 4122 3641 
Q 3803 3938 3442 4084 
Q 3081 4231 2675 4231 
Q 1875 4231 1450 3742 
Q 1025 3253 1025 2328 
Q 1025 1406 1450 917 
Q 1875 428 2675 428 
Q 3081 428 3442 575 
Q 3803 722 4122 1019 
L 4122 359 
Q 3791 134 3420 21 
Q 3050 -91 2638 -91 
Q 1578 -91 968 557 
Q 359 1206 359 2328 
Q 359 3453 968 4101 
Q 1578 4750 2638 4750 
Q 3056 4750 3426 4639 
Q 3797 4528 4122 4306 
z
" transform="scale(0.015625)"/>
      <path id="DejaVuSans-6c" d="M 603 4863 
L 1178 4863 
L 1178 0 
L 603 0 
L 603 4863 
z
" transform="scale(0.015625)"/>
      <path id="DejaVuSans-61" d="M 2194 1759 
Q 1497 1759 1228 1600 
Q 959 1441 959 1056 
Q 959 750 1161 570 
Q 1363 391 1709 391 
Q 2188 391 2477 730 
Q 2766 1069 2766 1631 
L 2766 1759 
L 2194 1759 
z
M 3341 1997 
L 3341 0 
L 2766 0 
L 2766 531 
Q 2569 213 2275 61 
Q 1981 -91 1556 -91 
Q 1019 -91 701 211 
Q 384 513 384 1019 
Q 384 1609 779 1909 
Q 1175 2209 1959 2209 
L 2766 2209 
L 2766 2266 
Q 2766 2663 2505 2880 
Q 2244 3097 1772 3097 
Q 1472 3097 1187 3025 
Q 903 2953 641 2809 
L 641 3341 
Q 956 3463 1253 3523 
Q 1550 3584 1831 3584 
Q 2591 3584 2966 3190 
Q 3341 2797 3341 1997 
z
" transform="scale(0.015625)"/>
      <path id="DejaVuSans-73" d="M 2834 3397 
L 2834 2853 
Q 2591 2978 2328 3040 
Q 2066 3103 1784 3103 
Q 1356 3103 1142 2972 
Q 928 2841 928 2578 
Q 928 2378 1081 2264 
Q 1234 2150 1697 2047 
L 1894 2003 
Q 2506 1872 2764 1633 
Q 3022 1394 3022 966 
Q 3022 478 2636 193 
Q 2250 -91 1575 -91 
Q 1294 -91 989 -36 
Q 684 19 347 128 
L 347 722 
Q 666 556 975 473 
Q 1284 391 1588 391 
Q 1994 391 2212 530 
Q 2431 669 2431 922 
Q 2431 1156 2273 1281 
Q 2116 1406 1581 1522 
L 1381 1569 
Q 847 1681 609 1914 
Q 372 2147 372 2553 
Q 372 3047 722 3315 
Q 1072 3584 1716 3584 
Q 2034 3584 2315 3537 
Q 2597 3491 2834 3397 
z
" transform="scale(0.015625)"/>
      <path id="DejaVuSans-69" d="M 603 3500 
L 1178 3500 
L 1178 0 
L 603 0 
L 603 3500 
z
M 603 4863 
L 1178 4863 
L 1178 4134 
L 603 4134 
L 603 4863 
z
" transform="scale(0.015625)"/>
      <path id="DejaVuSans-63" d="M 3122 3366 
L 3122 2828 
Q 2878 2963 2633 3030 
Q 2388 3097 2138 3097 
Q 1578 3097 1268 2742 
Q 959 2388 959 1747 
Q 959 1106 1268 751 
Q 1578 397 2138 397 
Q 2388 397 2633 464 
Q 2878 531 3122 666 
L 3122 134 
Q 2881 22 2623 -34 
Q 2366 -91 2075 -91 
Q 1284 -91 818 406 
Q 353 903 353 1747 
Q 353 2603 823 3093 
Q 1294 3584 2113 3584 
Q 2378 3584 2631 3529 
Q 2884 3475 3122 3366 
z
" transform="scale(0.015625)"/>
      <path id="DejaVuSans-20" transform="scale(0.015625)"/>
      <path id="DejaVuSans-54" d="M -19 4666 
L 3928 4666 
L 3928 4134 
L 2272 4134 
L 2272 0 
L 1638 0 
L 1638 4134 
L -19 4134 
L -19 4666 
z
" transform="scale(0.015625)"/>
      <path id="DejaVuSans-72" d="M 2631 2963 
Q 2534 3019 2420 3045 
Q 2306 3072 2169 3072 
Q 1681 3072 1420 2755 
Q 1159 2438 1159 1844 
L 1159 0 
L 581 0 
L 581 3500 
L 1159 3500 
L 1159 2956 
Q 1341 3275 1631 3429 
Q 1922 3584 2338 3584 
Q 2397 3584 2469 3576 
Q 2541 3569 2628 3553 
L 2631 2963 
z
" transform="scale(0.015625)"/>
      <path id="DejaVuSans-6e" d="M 3513 2113 
L 3513 0 
L 2938 0 
L 2938 2094 
Q 2938 2591 2744 2837 
Q 2550 3084 2163 3084 
Q 1697 3084 1428 2787 
Q 1159 2491 1159 1978 
L 1159 0 
L 581 0 
L 581 3500 
L 1159 3500 
L 1159 2956 
Q 1366 3272 1645 3428 
Q 1925 3584 2291 3584 
Q 2894 3584 3203 3211 
Q 3513 2838 3513 2113 
z
" transform="scale(0.015625)"/>
      <path id="DejaVuSans-66" d="M 2375 4863 
L 2375 4384 
L 1825 4384 
Q 1516 4384 1395 4259 
Q 1275 4134 1275 3809 
L 1275 3500 
L 2222 3500 
L 2222 3053 
L 1275 3053 
L 1275 0 
L 697 0 
L 697 3053 
L 147 3053 
L 147 3500 
L 697 3500 
L 697 3744 
Q 697 4328 969 4595 
Q 1241 4863 1831 4863 
L 2375 4863 
z
" transform="scale(0.015625)"/>
      <path id="DejaVuSans-6f" d="M 1959 3097 
Q 1497 3097 1228 2736 
Q 959 2375 959 1747 
Q 959 1119 1226 758 
Q 1494 397 1959 397 
Q 2419 397 2687 759 
Q 2956 1122 2956 1747 
Q 2956 2369 2687 2733 
Q 2419 3097 1959 3097 
z
M 1959 3584 
Q 2709 3584 3137 3096 
Q 3566 2609 3566 1747 
Q 3566 888 3137 398 
Q 2709 -91 1959 -91 
Q 1206 -91 779 398 
Q 353 888 353 1747 
Q 353 2609 779 3096 
Q 1206 3584 1959 3584 
z
" transform="scale(0.015625)"/>
      <path id="DejaVuSans-6d" d="M 3328 2828 
Q 3544 3216 3844 3400 
Q 4144 3584 4550 3584 
Q 5097 3584 5394 3201 
Q 5691 2819 5691 2113 
L 5691 0 
L 5113 0 
L 5113 2094 
Q 5113 2597 4934 2840 
Q 4756 3084 4391 3084 
Q 3944 3084 3684 2787 
Q 3425 2491 3425 1978 
L 3425 0 
L 2847 0 
L 2847 2094 
Q 2847 2600 2669 2842 
Q 2491 3084 2119 3084 
Q 1678 3084 1418 2786 
Q 1159 2488 1159 1978 
L 1159 0 
L 581 0 
L 581 3500 
L 1159 3500 
L 1159 2956 
Q 1356 3278 1631 3431 
Q 1906 3584 2284 3584 
Q 2666 3584 2933 3390 
Q 3200 3197 3328 2828 
z
" transform="scale(0.015625)"/>
      <path id="DejaVuSans-65" d="M 3597 1894 
L 3597 1613 
L 953 1613 
Q 991 1019 1311 708 
Q 1631 397 2203 397 
Q 2534 397 2845 478 
Q 3156 559 3463 722 
L 3463 178 
Q 3153 47 2828 -22 
Q 2503 -91 2169 -91 
Q 1331 -91 842 396 
Q 353 884 353 1716 
Q 353 2575 817 3079 
Q 1281 3584 2069 3584 
Q 2775 3584 3186 3129 
Q 3597 2675 3597 1894 
z
M 3022 2063 
Q 3016 2534 2758 2815 
Q 2500 3097 2075 3097 
Q 1594 3097 1305 2825 
Q 1016 2553 972 2059 
L 3022 2063 
z
" transform="scale(0.015625)"/>
      <path id="DejaVuSans-64" d="M 2906 2969 
L 2906 4863 
L 3481 4863 
L 3481 0 
L 2906 0 
L 2906 525 
Q 2725 213 2448 61 
Q 2172 -91 1784 -91 
Q 1150 -91 751 415 
Q 353 922 353 1747 
Q 353 2572 751 3078 
Q 1150 3584 1784 3584 
Q 2172 3584 2448 3432 
Q 2725 3281 2906 2969 
z
M 947 1747 
Q 947 1113 1208 752 
Q 1469 391 1925 391 
Q 2381 391 2643 752 
Q 2906 1113 2906 1747 
Q 2906 2381 2643 2742 
Q 2381 3103 1925 3103 
Q 1469 3103 1208 2742 
Q 947 2381 947 1747 
z
" transform="scale(0.015625)"/>
      <path id="DejaVuSans-5f" d="M 3263 -1063 
L 3263 -1509 
L -63 -1509 
L -63 -1063 
L 3263 -1063 
z
" transform="scale(0.015625)"/>
     </defs>
     <use xlink:href="#DejaVuSans-43"/>
     <use xlink:href="#DejaVuSans-6c" x="69.824219"/>
     <use xlink:href="#DejaVuSans-61" x="97.607422"/>
     <use xlink:href="#DejaVuSans-73" x="158.886719"/>
     <use xlink:href="#DejaVuSans-73" x="210.986328"/>
     <use xlink:href="#DejaVuSans-69" x="263.085938"/>
     <use xlink:href="#DejaVuSans-63" x="290.869141"/>
     <use xlink:href="#DejaVuSans-20" x="345.849609"/>
     <use xlink:href="#DejaVuSans-54" x="377.636719"/>
     <use xlink:href="#DejaVuSans-72" x="423.970703"/>
     <use xlink:href="#DejaVuSans-61" x="465.083984"/>
     <use xlink:href="#DejaVuSans-6e" x="526.363281"/>
     <use xlink:href="#DejaVuSans-73" x="589.742188"/>
     <use xlink:href="#DejaVuSans-66" x="641.841797"/>
     <use xlink:href="#DejaVuSans-6f" x="677.046875"/>
     <use xlink:href="#DejaVuSans-72" x="738.228516"/>
     <use xlink:href="#DejaVuSans-6d" x="777.591797"/>
     <use xlink:href="#DejaVuSans-65" x="875.003906"/>
     <use xlink:href="#DejaVuSans-72" x="936.527344"/>
     <use xlink:href="#DejaVuSans-20" x="977.640625"/>
     <use xlink:href="#DejaVuSans-2d" x="1009.427734"/>
     <use xlink:href="#DejaVuSans-20" x="1045.511719"/>
     <use xlink:href="#DejaVuSans-6d" x="1077.298828"/>
     <use xlink:href="#DejaVuSans-6f" x="1174.710938"/>
     <use xlink:href="#DejaVuSans-64" x="1235.892578"/>
     <use xlink:href="#DejaVuSans-65" x="1299.369141"/>
     <use xlink:href="#DejaVuSans-6c" x="1360.892578"/>
     <use xlink:href="#DejaVuSans-5f" x="1388.675781"/>
     <use xlink:href="#DejaVuSans-32" x="1438.675781"/>
     <use xlink:href="#DejaVuSans-30" x="1502.298828"/>
     <use xlink:href="#DejaVuSans-32" x="1565.921875"/>
     <use xlink:href="#DejaVuSans-33" x="1629.544922"/>
     <use xlink:href="#DejaVuSans-31" x="1693.167969"/>
     <use xlink:href="#DejaVuSans-31" x="1756.791016"/>
     <use xlink:href="#DejaVuSans-32" x="1820.414062"/>
     <use xlink:href="#DejaVuSans-36" x="1884.037109"/>
     <use xlink:href="#DejaVuSans-31" x="1947.660156"/>
     <use xlink:href="#DejaVuSans-37" x="2011.283203"/>
     <use xlink:href="#DejaVuSans-30" x="2074.90625"/>
     <use xlink:href="#DejaVuSans-36" x="2138.529297"/>
     <use xlink:href="#DejaVuSans-35" x="2202.152344"/>
     <use xlink:href="#DejaVuSans-33" x="2265.775391"/>
    </g>
   </g>
   <g id="legend_1">
    <g id="patch_7">
     <path d="M 79 95.234375 
L 161.517188 95.234375 
Q 163.517188 95.234375 163.517188 93.234375 
L 163.517188 50.2 
Q 163.517188 48.2 161.517188 48.2 
L 79 48.2 
Q 77 48.2 77 50.2 
L 77 93.234375 
Q 77 95.234375 79 95.234375 
z
" style="fill: #ffffff; opacity: 0.8; stroke: #cccccc; stroke-linejoin: miter"/>
    </g>
    <g id="line2d_16">
     <path d="M 81 56.298437 
L 91 56.298437 
L 101 56.298437 
" style="fill: none; stroke: #1f77b4; stroke-width: 1.5; stroke-linecap: square"/>
    </g>
    <g id="text_14">
     <!-- Measured -->
     <g transform="translate(109 59.798437) scale(0.1 -0.1)">
      <defs>
       <path id="DejaVuSans-4d" d="M 628 4666 
L 1569 4666 
L 2759 1491 
L 3956 4666 
L 4897 4666 
L 4897 0 
L 4281 0 
L 4281 4097 
L 3078 897 
L 2444 897 
L 1241 4097 
L 1241 0 
L 628 0 
L 628 4666 
z
" transform="scale(0.015625)"/>
       <path id="DejaVuSans-75" d="M 544 1381 
L 544 3500 
L 1119 3500 
L 1119 1403 
Q 1119 906 1312 657 
Q 1506 409 1894 409 
Q 2359 409 2629 706 
Q 2900 1003 2900 1516 
L 2900 3500 
L 3475 3500 
L 3475 0 
L 2900 0 
L 2900 538 
Q 2691 219 2414 64 
Q 2138 -91 1772 -91 
Q 1169 -91 856 284 
Q 544 659 544 1381 
z
M 1991 3584 
L 1991 3584 
z
" transform="scale(0.015625)"/>
      </defs>
      <use xlink:href="#DejaVuSans-4d"/>
      <use xlink:href="#DejaVuSans-65" x="86.279297"/>
      <use xlink:href="#DejaVuSans-61" x="147.802734"/>
      <use xlink:href="#DejaVuSans-73" x="209.082031"/>
      <use xlink:href="#DejaVuSans-75" x="261.181641"/>
      <use xlink:href="#DejaVuSans-72" x="324.560547"/>
      <use xlink:href="#DejaVuSans-65" x="363.423828"/>
      <use xlink:href="#DejaVuSans-64" x="424.947266"/>
     </g>
    </g>
    <g id="line2d_17">
     <path d="M 81 70.976562 
L 91 70.976562 
L 101 70.976562 
" style="fill: none; stroke: #ff7f0e; stroke-width: 1.5; stroke-linecap: square"/>
    </g>
    <g id="text_15">
     <!-- Fitted -->
     <g transform="translate(109 74.476562) scale(0.1 -0.1)">
      <defs>
       <path id="DejaVuSans-46" d="M 628 4666 
L 3309 4666 
L 3309 4134 
L 1259 4134 
L 1259 2759 
L 3109 2759 
L 3109 2228 
L 1259 2228 
L 1259 0 
L 628 0 
L 628 4666 
z
" transform="scale(0.015625)"/>
       <path id="DejaVuSans-74" d="M 1172 4494 
L 1172 3500 
L 2356 3500 
L 2356 3053 
L 1172 3053 
L 1172 1153 
Q 1172 725 1289 603 
Q 1406 481 1766 481 
L 2356 481 
L 2356 0 
L 1766 0 
Q 1100 0 847 248 
Q 594 497 594 1153 
L 594 3053 
L 172 3053 
L 172 3500 
L 594 3500 
L 594 4494 
L 1172 4494 
z
" transform="scale(0.015625)"/>
      </defs>
      <use xlink:href="#DejaVuSans-46"/>
      <use xlink:href="#DejaVuSans-69" x="50.269531"/>
      <use xlink:href="#DejaVuSans-74" x="78.052734"/>
      <use xlink:href="#DejaVuSans-74" x="117.261719"/>
      <use xlink:href="#DejaVuSans-65" x="156.470703"/>
      <use xlink:href="#DejaVuSans-64" x="217.994141"/>
     </g>
    </g>
    <g id="line2d_18">
     <path d="M 81 85.654687 
L 91 85.654687 
L 101 85.654687 
" style="fill: none; stroke: #2ca02c; stroke-width: 1.5; stroke-linecap: square"/>
    </g>
    <g id="text_16">
     <!-- Estimated -->
     <g transform="translate(109 89.154687) scale(0.1 -0.1)">
      <defs>
       <path id="DejaVuSans-45" d="M 628 4666 
L 3578 4666 
L 3578 4134 
L 1259 4134 
L 1259 2753 
L 3481 2753 
L 3481 2222 
L 1259 2222 
L 1259 531 
L 3634 531 
L 3634 0 
L 628 0 
L 628 4666 
z
" transform="scale(0.015625)"/>
      </defs>
      <use xlink:href="#DejaVuSans-45"/>
      <use xlink:href="#DejaVuSans-73" x="63.183594"/>
      <use xlink:href="#DejaVuSans-74" x="115.283203"/>
      <use xlink:href="#DejaVuSans-69" x="154.492188"/>
      <use xlink:href="#DejaVuSans-6d" x="182.275391"/>
      <use xlink:href="#DejaVuSans-61" x="279.6875"/>
      <use xlink:href="#DejaVuSans-74" x="340.966797"/>
      <use xlink:href="#DejaVuSans-65" x="380.175781"/>
      <use xlink:href="#DejaVuSans-64" x="441.699219"/>
     </g>
    </g>
   </g>
  </g>
 </g>
 <defs>
  <clipPath id="p250fc0ef37">
   <rect x="72" y="43.2" width="446.4" height="277.2"/>
  </clipPath>
 </defs>
</svg>
