<?xml version="1.0" encoding="utf-8" standalone="no"?>
<!DOCTYPE svg PUBLIC "-//W3C//DTD SVG 1.1//EN"
  "http://www.w3.org/Graphics/SVG/1.1/DTD/svg11.dtd">
<svg xmlns:xlink="http://www.w3.org/1999/xlink" width="576pt" height="360pt" viewBox="0 0 576 360" xmlns="http://www.w3.org/2000/svg" version="1.1">
 <metadata>
  <rdf:RDF xmlns:dc="http://purl.org/dc/elements/1.1/" xmlns:cc="http://creativecommons.org/ns#" xmlns:rdf="http://www.w3.org/1999/02/22-rdf-syntax-ns#">
   <cc:Work>
    <dc:type rdf:resource="http://purl.org/dc/dcmitype/StillImage"/>
    <dc:date>2023-11-26T18:34:36.846052</dc:date>
    <dc:format>image/svg+xml</dc:format>
    <dc:creator>
     <cc:Agent>
      <dc:title>Matplotlib v3.8.1, https://matplotlib.org/</dc:title>
     </cc:Agent>
    </dc:creator>
   </cc:Work>
  </rdf:RDF>
 </metadata>
 <defs>
  <style type="text/css">*{stroke-linejoin: round; stroke-linecap: butt}</style>
 </defs>
 <g id="figure_1">
  <g id="patch_1">
   <path d="M 0 360 
L 576 360 
L 576 0 
L 0 0 
z
" style="fill: #ffffff"/>
  </g>
  <g id="axes_1">
   <g id="patch_2">
    <path d="M 72 320.4 
L 518.4 320.4 
L 518.4 43.2 
L 72 43.2 
z
" style="fill: #ffffff"/>
   </g>
   <g id="matplotlib.axis_1">
    <g id="xtick_1">
     <g id="line2d_1">
      <defs>
       <path id="m6decb91acd" d="M 0 0 
L 0 3.5 
" style="stroke: #000000; stroke-width: 0.8"/>
      </defs>
      <g>
       <use xlink:href="#m6decb91acd" x="129.874161" y="320.4" style="stroke: #000000; stroke-width: 0.8"/>
      </g>
     </g>
     <g id="text_1">
      <!-- 2020-05-15 -->
      <g transform="translate(100.816349 334.998438) scale(0.1 -0.1)">
       <defs>
        <path id="DejaVuSans-32" d="M 1228 531 
L 3431 531 
L 3431 0 
L 469 0 
L 469 531 
Q 828 903 1448 1529 
Q 2069 2156 2228 2338 
Q 2531 2678 2651 2914 
Q 2772 3150 2772 3378 
Q 2772 3750 2511 3984 
Q 2250 4219 1831 4219 
Q 1534 4219 1204 4116 
Q 875 4013 500 3803 
L 500 4441 
Q 881 4594 1212 4672 
Q 1544 4750 1819 4750 
Q 2544 4750 2975 4387 
Q 3406 4025 3406 3419 
Q 3406 3131 3298 2873 
Q 3191 2616 2906 2266 
Q 2828 2175 2409 1742 
Q 1991 1309 1228 531 
z
" transform="scale(0.015625)"/>
        <path id="DejaVuSans-30" d="M 2034 4250 
Q 1547 4250 1301 3770 
Q 1056 3291 1056 2328 
Q 1056 1369 1301 889 
Q 1547 409 2034 409 
Q 2525 409 2770 889 
Q 3016 1369 3016 2328 
Q 3016 3291 2770 3770 
Q 2525 4250 2034 4250 
z
M 2034 4750 
Q 2819 4750 3233 4129 
Q 3647 3509 3647 2328 
Q 3647 1150 3233 529 
Q 2819 -91 2034 -91 
Q 1250 -91 836 529 
Q 422 1150 422 2328 
Q 422 3509 836 4129 
Q 1250 4750 2034 4750 
z
" transform="scale(0.015625)"/>
        <path id="DejaVuSans-2d" d="M 313 2009 
L 1997 2009 
L 1997 1497 
L 313 1497 
L 313 2009 
z
" transform="scale(0.015625)"/>
        <path id="DejaVuSans-35" d="M 691 4666 
L 3169 4666 
L 3169 4134 
L 1269 4134 
L 1269 2991 
Q 1406 3038 1543 3061 
Q 1681 3084 1819 3084 
Q 2600 3084 3056 2656 
Q 3513 2228 3513 1497 
Q 3513 744 3044 326 
Q 2575 -91 1722 -91 
Q 1428 -91 1123 -41 
Q 819 9 494 109 
L 494 744 
Q 775 591 1075 516 
Q 1375 441 1709 441 
Q 2250 441 2565 725 
Q 2881 1009 2881 1497 
Q 2881 1984 2565 2268 
Q 2250 2553 1709 2553 
Q 1456 2553 1204 2497 
Q 953 2441 691 2322 
L 691 4666 
z
" transform="scale(0.015625)"/>
        <path id="DejaVuSans-31" d="M 794 531 
L 1825 531 
L 1825 4091 
L 703 3866 
L 703 4441 
L 1819 4666 
L 2450 4666 
L 2450 531 
L 3481 531 
L 3481 0 
L 794 0 
L 794 531 
z
" transform="scale(0.015625)"/>
       </defs>
       <use xlink:href="#DejaVuSans-32"/>
       <use xlink:href="#DejaVuSans-30" x="63.623047"/>
       <use xlink:href="#DejaVuSans-32" x="127.246094"/>
       <use xlink:href="#DejaVuSans-30" x="190.869141"/>
       <use xlink:href="#DejaVuSans-2d" x="254.492188"/>
       <use xlink:href="#DejaVuSans-30" x="290.576172"/>
       <use xlink:href="#DejaVuSans-35" x="354.199219"/>
       <use xlink:href="#DejaVuSans-2d" x="417.822266"/>
       <use xlink:href="#DejaVuSans-31" x="453.90625"/>
       <use xlink:href="#DejaVuSans-35" x="517.529297"/>
      </g>
     </g>
    </g>
    <g id="xtick_2">
     <g id="line2d_2">
      <g>
       <use xlink:href="#m6decb91acd" x="212.435902" y="320.4" style="stroke: #000000; stroke-width: 0.8"/>
      </g>
     </g>
     <g id="text_2">
      <!-- 2020-06-01 -->
      <g transform="translate(183.37809 334.998438) scale(0.1 -0.1)">
       <defs>
        <path id="DejaVuSans-36" d="M 2113 2584 
Q 1688 2584 1439 2293 
Q 1191 2003 1191 1497 
Q 1191 994 1439 701 
Q 1688 409 2113 409 
Q 2538 409 2786 701 
Q 3034 994 3034 1497 
Q 3034 2003 2786 2293 
Q 2538 2584 2113 2584 
z
M 3366 4563 
L 3366 3988 
Q 3128 4100 2886 4159 
Q 2644 4219 2406 4219 
Q 1781 4219 1451 3797 
Q 1122 3375 1075 2522 
Q 1259 2794 1537 2939 
Q 1816 3084 2150 3084 
Q 2853 3084 3261 2657 
Q 3669 2231 3669 1497 
Q 3669 778 3244 343 
Q 2819 -91 2113 -91 
Q 1303 -91 875 529 
Q 447 1150 447 2328 
Q 447 3434 972 4092 
Q 1497 4750 2381 4750 
Q 2619 4750 2861 4703 
Q 3103 4656 3366 4563 
z
" transform="scale(0.015625)"/>
       </defs>
       <use xlink:href="#DejaVuSans-32"/>
       <use xlink:href="#DejaVuSans-30" x="63.623047"/>
       <use xlink:href="#DejaVuSans-32" x="127.246094"/>
       <use xlink:href="#DejaVuSans-30" x="190.869141"/>
       <use xlink:href="#DejaVuSans-2d" x="254.492188"/>
       <use xlink:href="#DejaVuSans-30" x="290.576172"/>
       <use xlink:href="#DejaVuSans-36" x="354.199219"/>
       <use xlink:href="#DejaVuSans-2d" x="417.822266"/>
       <use xlink:href="#DejaVuSans-30" x="453.90625"/>
       <use xlink:href="#DejaVuSans-31" x="517.529297"/>
      </g>
     </g>
    </g>
    <g id="xtick_3">
     <g id="line2d_3">
      <g>
       <use xlink:href="#m6decb91acd" x="280.427924" y="320.4" style="stroke: #000000; stroke-width: 0.8"/>
      </g>
     </g>
     <g id="text_3">
      <!-- 2020-06-15 -->
      <g transform="translate(251.370111 334.998438) scale(0.1 -0.1)">
       <use xlink:href="#DejaVuSans-32"/>
       <use xlink:href="#DejaVuSans-30" x="63.623047"/>
       <use xlink:href="#DejaVuSans-32" x="127.246094"/>
       <use xlink:href="#DejaVuSans-30" x="190.869141"/>
       <use xlink:href="#DejaVuSans-2d" x="254.492188"/>
       <use xlink:href="#DejaVuSans-30" x="290.576172"/>
       <use xlink:href="#DejaVuSans-36" x="354.199219"/>
       <use xlink:href="#DejaVuSans-2d" x="417.822266"/>
       <use xlink:href="#DejaVuSans-31" x="453.90625"/>
       <use xlink:href="#DejaVuSans-35" x="517.529297"/>
      </g>
     </g>
    </g>
    <g id="xtick_4">
     <g id="line2d_4">
      <g>
       <use xlink:href="#m6decb91acd" x="358.133092" y="320.4" style="stroke: #000000; stroke-width: 0.8"/>
      </g>
     </g>
     <g id="text_4">
      <!-- 2020-07-01 -->
      <g transform="translate(329.075279 334.998438) scale(0.1 -0.1)">
       <defs>
        <path id="DejaVuSans-37" d="M 525 4666 
L 3525 4666 
L 3525 4397 
L 1831 0 
L 1172 0 
L 2766 4134 
L 525 4134 
L 525 4666 
z
" transform="scale(0.015625)"/>
       </defs>
       <use xlink:href="#DejaVuSans-32"/>
       <use xlink:href="#DejaVuSans-30" x="63.623047"/>
       <use xlink:href="#DejaVuSans-32" x="127.246094"/>
       <use xlink:href="#DejaVuSans-30" x="190.869141"/>
       <use xlink:href="#DejaVuSans-2d" x="254.492188"/>
       <use xlink:href="#DejaVuSans-30" x="290.576172"/>
       <use xlink:href="#DejaVuSans-37" x="354.199219"/>
       <use xlink:href="#DejaVuSans-2d" x="417.822266"/>
       <use xlink:href="#DejaVuSans-30" x="453.90625"/>
       <use xlink:href="#DejaVuSans-31" x="517.529297"/>
      </g>
     </g>
    </g>
    <g id="xtick_5">
     <g id="line2d_5">
      <g>
       <use xlink:href="#m6decb91acd" x="426.125113" y="320.4" style="stroke: #000000; stroke-width: 0.8"/>
      </g>
     </g>
     <g id="text_5">
      <!-- 2020-07-15 -->
      <g transform="translate(397.067301 334.998438) scale(0.1 -0.1)">
       <use xlink:href="#DejaVuSans-32"/>
       <use xlink:href="#DejaVuSans-30" x="63.623047"/>
       <use xlink:href="#DejaVuSans-32" x="127.246094"/>
       <use xlink:href="#DejaVuSans-30" x="190.869141"/>
       <use xlink:href="#DejaVuSans-2d" x="254.492188"/>
       <use xlink:href="#DejaVuSans-30" x="290.576172"/>
       <use xlink:href="#DejaVuSans-37" x="354.199219"/>
       <use xlink:href="#DejaVuSans-2d" x="417.822266"/>
       <use xlink:href="#DejaVuSans-31" x="453.90625"/>
       <use xlink:href="#DejaVuSans-35" x="517.529297"/>
      </g>
     </g>
    </g>
    <g id="xtick_6">
     <g id="line2d_6">
      <g>
       <use xlink:href="#m6decb91acd" x="508.686854" y="320.4" style="stroke: #000000; stroke-width: 0.8"/>
      </g>
     </g>
     <g id="text_6">
      <!-- 2020-08-01 -->
      <g transform="translate(479.629042 334.998438) scale(0.1 -0.1)">
       <defs>
        <path id="DejaVuSans-38" d="M 2034 2216 
Q 1584 2216 1326 1975 
Q 1069 1734 1069 1313 
Q 1069 891 1326 650 
Q 1584 409 2034 409 
Q 2484 409 2743 651 
Q 3003 894 3003 1313 
Q 3003 1734 2745 1975 
Q 2488 2216 2034 2216 
z
M 1403 2484 
Q 997 2584 770 2862 
Q 544 3141 544 3541 
Q 544 4100 942 4425 
Q 1341 4750 2034 4750 
Q 2731 4750 3128 4425 
Q 3525 4100 3525 3541 
Q 3525 3141 3298 2862 
Q 3072 2584 2669 2484 
Q 3125 2378 3379 2068 
Q 3634 1759 3634 1313 
Q 3634 634 3220 271 
Q 2806 -91 2034 -91 
Q 1263 -91 848 271 
Q 434 634 434 1313 
Q 434 1759 690 2068 
Q 947 2378 1403 2484 
z
M 1172 3481 
Q 1172 3119 1398 2916 
Q 1625 2713 2034 2713 
Q 2441 2713 2670 2916 
Q 2900 3119 2900 3481 
Q 2900 3844 2670 4047 
Q 2441 4250 2034 4250 
Q 1625 4250 1398 4047 
Q 1172 3844 1172 3481 
z
" transform="scale(0.015625)"/>
       </defs>
       <use xlink:href="#DejaVuSans-32"/>
       <use xlink:href="#DejaVuSans-30" x="63.623047"/>
       <use xlink:href="#DejaVuSans-32" x="127.246094"/>
       <use xlink:href="#DejaVuSans-30" x="190.869141"/>
       <use xlink:href="#DejaVuSans-2d" x="254.492188"/>
       <use xlink:href="#DejaVuSans-30" x="290.576172"/>
       <use xlink:href="#DejaVuSans-38" x="354.199219"/>
       <use xlink:href="#DejaVuSans-2d" x="417.822266"/>
       <use xlink:href="#DejaVuSans-30" x="453.90625"/>
       <use xlink:href="#DejaVuSans-31" x="517.529297"/>
      </g>
     </g>
    </g>
   </g>
   <g id="matplotlib.axis_2">
    <g id="ytick_1">
     <g id="line2d_7">
      <defs>
       <path id="m60a7a4c09f" d="M 0 0 
L -3.5 0 
" style="stroke: #000000; stroke-width: 0.8"/>
      </defs>
      <g>
       <use xlink:href="#m60a7a4c09f" x="72" y="316.02311" style="stroke: #000000; stroke-width: 0.8"/>
      </g>
     </g>
     <g id="text_7">
      <!-- −2 -->
      <g transform="translate(50.257812 319.822329) scale(0.1 -0.1)">
       <defs>
        <path id="DejaVuSans-2212" d="M 678 2272 
L 4684 2272 
L 4684 1741 
L 678 1741 
L 678 2272 
z
" transform="scale(0.015625)"/>
       </defs>
       <use xlink:href="#DejaVuSans-2212"/>
       <use xlink:href="#DejaVuSans-32" x="83.789062"/>
      </g>
     </g>
    </g>
    <g id="ytick_2">
     <g id="line2d_8">
      <g>
       <use xlink:href="#m60a7a4c09f" x="72" y="262.270962" style="stroke: #000000; stroke-width: 0.8"/>
      </g>
     </g>
     <g id="text_8">
      <!-- −1 -->
      <g transform="translate(50.257812 266.070181) scale(0.1 -0.1)">
       <use xlink:href="#DejaVuSans-2212"/>
       <use xlink:href="#DejaVuSans-31" x="83.789062"/>
      </g>
     </g>
    </g>
    <g id="ytick_3">
     <g id="line2d_9">
      <g>
       <use xlink:href="#m60a7a4c09f" x="72" y="208.518814" style="stroke: #000000; stroke-width: 0.8"/>
      </g>
     </g>
     <g id="text_9">
      <!-- 0 -->
      <g transform="translate(58.6375 212.318032) scale(0.1 -0.1)">
       <use xlink:href="#DejaVuSans-30"/>
      </g>
     </g>
    </g>
    <g id="ytick_4">
     <g id="line2d_10">
      <g>
       <use xlink:href="#m60a7a4c09f" x="72" y="154.766666" style="stroke: #000000; stroke-width: 0.8"/>
      </g>
     </g>
     <g id="text_10">
      <!-- 1 -->
      <g transform="translate(58.6375 158.565884) scale(0.1 -0.1)">
       <use xlink:href="#DejaVuSans-31"/>
      </g>
     </g>
    </g>
    <g id="ytick_5">
     <g id="line2d_11">
      <g>
       <use xlink:href="#m60a7a4c09f" x="72" y="101.014518" style="stroke: #000000; stroke-width: 0.8"/>
      </g>
     </g>
     <g id="text_11">
      <!-- 2 -->
      <g transform="translate(58.6375 104.813736) scale(0.1 -0.1)">
       <use xlink:href="#DejaVuSans-32"/>
      </g>
     </g>
    </g>
    <g id="ytick_6">
     <g id="line2d_12">
      <g>
       <use xlink:href="#m60a7a4c09f" x="72" y="47.262369" style="stroke: #000000; stroke-width: 0.8"/>
      </g>
     </g>
     <g id="text_12">
      <!-- 3 -->
      <g transform="translate(58.6375 51.061588) scale(0.1 -0.1)">
       <defs>
        <path id="DejaVuSans-33" d="M 2597 2516 
Q 3050 2419 3304 2112 
Q 3559 1806 3559 1356 
Q 3559 666 3084 287 
Q 2609 -91 1734 -91 
Q 1441 -91 1130 -33 
Q 819 25 488 141 
L 488 750 
Q 750 597 1062 519 
Q 1375 441 1716 441 
Q 2309 441 2620 675 
Q 2931 909 2931 1356 
Q 2931 1769 2642 2001 
Q 2353 2234 1838 2234 
L 1294 2234 
L 1294 2753 
L 1863 2753 
Q 2328 2753 2575 2939 
Q 2822 3125 2822 3475 
Q 2822 3834 2567 4026 
Q 2313 4219 1838 4219 
Q 1578 4219 1281 4162 
Q 984 4106 628 3988 
L 628 4550 
Q 988 4650 1302 4700 
Q 1616 4750 1894 4750 
Q 2613 4750 3031 4423 
Q 3450 4097 3450 3541 
Q 3450 3153 3228 2886 
Q 3006 2619 2597 2516 
z
" transform="scale(0.015625)"/>
       </defs>
       <use xlink:href="#DejaVuSans-33"/>
      </g>
     </g>
    </g>
   </g>
   <g id="line2d_13">
    <path d="M 72 287.021497 
L 72.404714 298.412757 
L 72.607072 296.682973 
L 72.809429 285.96675 
L 73.214143 254.915018 
L 73.618858 242.426821 
L 75.035358 159.101858 
L 75.237715 156.127474 
L 75.440073 161.211351 
L 75.64243 169.459468 
L 75.844787 172.771371 
L 76.047144 188.086288 
L 76.654216 258.669915 
L 77.05893 282.844701 
L 77.261287 287.232446 
L 77.463645 286.852737 
L 77.666002 276.094324 
L 78.070716 247.468508 
L 78.475431 234.938122 
L 78.677788 225.761828 
L 79.487217 168.510196 
L 79.891931 152.161627 
L 80.094288 154.123456 
L 80.903717 196.735208 
L 81.713146 272.423807 
L 82.11786 287.148066 
L 82.320218 289.194274 
L 82.522575 288.898945 
L 82.724932 286.367554 
L 82.927289 279.511703 
L 83.332004 256.412757 
L 83.736718 242.026017 
L 83.939075 238.967253 
L 84.141432 239.241487 
L 84.546147 245.675439 
L 84.748504 247.784932 
L 84.950861 247.806027 
L 85.355576 252.025013 
L 85.557933 248.670919 
L 85.76029 254.830638 
L 86.569719 300.015972 
L 86.772076 306.133501 
L 86.974433 307.736715 
L 87.176791 307.8 
L 87.379148 306.449925 
L 87.581505 302.695028 
L 87.783862 295.902461 
L 88.188577 273.731693 
L 88.390934 268.521246 
L 89.200363 260.399699 
L 89.40272 256.243998 
L 89.807434 241.372074 
L 90.212149 238.903968 
L 90.414506 236.182722 
L 90.616863 244.1777 
L 91.223935 295.037569 
L 91.628649 306.133501 
L 91.831006 306.196786 
L 92.033364 303.686489 
L 92.842792 257.277649 
L 93.04515 255.125967 
L 93.449864 246.477047 
L 93.652221 245.949674 
L 93.854578 242.996384 
L 94.056936 242.363536 
L 94.259293 239.72667 
L 94.46165 233.292717 
L 94.664007 230.423807 
L 94.866364 231.351984 
L 95.068722 234.516223 
L 95.271079 230.655851 
L 95.473436 240.823606 
L 96.080508 295.417278 
L 96.485222 304.677951 
L 96.687579 306.597589 
L 96.889937 302.230939 
L 97.699365 256.539327 
L 98.306437 245.970768 
L 98.508794 245.59106 
L 99.52058 224.242993 
L 99.722937 225.508689 
L 99.925295 229.896434 
L 100.127652 228.061175 
L 100.330009 238.27112 
L 100.937081 292.928076 
L 101.341795 305.268609 
L 101.544152 306.26007 
L 101.74651 302.526268 
L 101.948867 290.50216 
L 102.353581 260.294224 
L 102.555938 258.733199 
L 103.567724 240.844701 
L 104.377153 218.610648 
L 104.57951 219.897438 
L 104.781868 225.318835 
L 104.984225 225.29774 
L 105.186582 234.241989 
L 105.793654 289.763837 
L 106.198368 302.589553 
L 106.400725 304.361527 
L 106.603083 300.311301 
L 107.412511 254.11341 
L 107.614869 252.383626 
L 107.817226 248.692014 
L 108.22194 234.07323 
L 108.626655 212.23998 
L 108.829012 206.270116 
L 109.031369 204.371572 
L 109.638441 213.104872 
L 109.840798 218.568458 
L 110.043155 229.031542 
L 110.650227 284.405726 
L 111.054941 298.750276 
L 111.257298 300.669915 
L 111.459655 298.919036 
L 111.662013 287.443395 
L 112.066727 258.015972 
L 112.471442 242.933099 
L 113.887942 174.121447 
L 114.090299 171.73772 
L 114.292656 178.593571 
L 114.495014 190.090306 
L 114.697371 194.710095 
L 115.102085 228.926067 
L 115.709157 278.583526 
L 116.113871 292.611652 
L 116.316228 292.780412 
L 116.518586 291.113913 
L 116.720943 287.46449 
L 117.125657 260.06218 
L 118.542158 154.777398 
L 118.744515 144.609643 
L 118.946872 140.707082 
L 119.149229 144.398694 
L 119.756301 182.496133 
L 120.56573 262.319337 
L 120.970444 282.254043 
L 121.172801 286.367554 
L 121.375159 288.012958 
L 121.577516 286.557408 
L 121.779873 278.583526 
L 122.589302 227.280663 
L 123.196374 201.671421 
L 123.398731 197.072727 
L 123.601088 197.283677 
L 123.803445 196.714114 
L 124.410517 210.193772 
L 124.612874 221.226419 
L 125.219946 277.845203 
L 125.62466 292.463988 
L 125.827017 294.468006 
L 126.029374 291.91552 
L 127.04116 235.191261 
L 127.648232 197.557911 
L 128.255304 154.925063 
L 128.457661 147.330889 
L 128.660018 146.99337 
L 129.26709 191.588046 
L 130.278876 282.971271 
L 130.481233 290.839679 
L 130.68359 292.231944 
L 130.885947 289.637268 
L 132.504805 180.070216 
L 133.111877 137.142039 
L 133.314234 127.670417 
L 133.516591 129.379106 
L 133.921306 144.841688 
L 134.123663 152.309292 
L 135.135449 262.84671 
L 135.540163 275.545856 
L 135.74252 274.596585 
L 135.944878 263.943646 
L 136.349592 232.343446 
L 136.551949 225.529784 
L 136.754306 213.590055 
L 136.956664 218.188749 
L 137.159021 206.818584 
L 137.766092 197.937619 
L 137.96845 198.338423 
L 138.373164 192.895932 
L 138.777879 200.490105 
L 138.980236 201.333903 
L 139.182593 213.210347 
L 139.789665 270.187745 
L 140.194379 285.650326 
L 140.396736 287.738724 
L 140.599093 284.701055 
L 141.003808 254.303265 
L 141.408522 232.997388 
L 142.015594 219.51773 
L 142.622665 210.320342 
L 142.825023 210.046107 
L 143.02738 208.822602 
L 143.229737 209.518734 
L 143.634451 214.834656 
L 143.836809 213.590055 
L 144.039166 223.84219 
L 144.646238 273.499648 
L 145.050952 285.671421 
L 145.253309 286.979307 
L 145.455666 283.815068 
L 145.860381 253.965746 
L 146.062738 237.406228 
L 146.66981 220.825615 
L 146.872167 218.125465 
L 147.074524 217.028528 
L 147.479238 205.848217 
L 147.681596 214.370568 
L 147.883953 215.362029 
L 148.08631 217.998895 
L 148.491024 227.386138 
L 148.693382 226.014967 
L 149.098096 249.83114 
L 149.502811 278.203817 
L 149.907525 291.430337 
L 150.109882 293.518734 
L 150.312239 292.928076 
L 150.514597 290.059166 
L 150.716954 284.258061 
L 151.121668 263.036565 
L 151.526383 242.194776 
L 151.931097 236.288197 
L 152.133454 235.845203 
L 152.335811 237.849221 
L 152.538169 238.376595 
L 152.740526 236.288197 
L 152.942883 236.583526 
L 153.14524 235.592064 
L 153.347597 235.634254 
L 153.549955 232.659869 
L 153.752312 234.895932 
L 154.764098 287.253541 
L 154.966455 291.282672 
L 155.168812 292.696032 
L 155.573527 288.687996 
L 155.775884 277.423305 
L 156.78767 198.127474 
L 157.799456 154.756303 
L 158.001813 156.802511 
L 158.406528 170.23998 
L 158.608885 184.036062 
L 159.215956 253.881366 
L 159.620671 275.86228 
L 159.823028 279.131994 
L 160.025385 278.203817 
L 160.227743 268.225917 
L 160.632457 235.191261 
L 161.8466 183.993872 
L 162.251315 173.762833 
L 162.453672 173.910497 
L 162.656029 176.821597 
L 163.465458 209.20231 
L 164.072529 270.12446 
L 164.477244 289.067705 
L 164.679601 289.405224 
L 164.881958 286.114415 
L 165.084316 275.777901 
L 165.48903 243.439377 
L 166.500816 207.725665 
L 167.310245 164.038071 
L 167.512602 167.45545 
L 167.917316 188.402712 
L 168.119674 192.938122 
L 168.322031 204.498142 
L 168.929102 264.977298 
L 169.333817 280.439879 
L 169.536174 284.026017 
L 169.738531 280.292215 
L 170.143246 252.510196 
L 170.54796 221.648317 
L 171.357389 176.273129 
L 171.559746 170.134505 
L 172.166818 145.49563 
L 172.369175 147.141035 
L 172.571532 155.199297 
L 173.178604 194.878855 
L 173.785675 267.25555 
L 174.19039 287.000402 
L 174.392747 290.038071 
L 174.595104 288.181718 
L 174.999819 263.542843 
L 175.404533 238.081266 
L 177.023391 158.405726 
L 177.225748 158.933099 
L 177.428105 162.92004 
L 177.630462 179.817077 
L 177.83282 182.306278 
L 178.237534 227.238473 
L 178.642248 270.947162 
L 179.046963 290.50216 
L 179.24932 294.299247 
L 179.451677 291.725665 
L 179.654034 282.865796 
L 180.261106 242.258061 
L 181.879964 143.449422 
L 182.082321 140.116424 
L 182.284678 145.896434 
L 183.094107 203.316826 
L 183.498821 243.080763 
L 183.903536 264.956203 
L 184.30825 272.95118 
L 184.510607 274.343446 
L 184.712965 270.630738 
L 184.915322 256.98232 
L 185.724751 173.340934 
L 186.129465 151.52878 
L 186.331822 145.347966 
L 186.53418 144.567454 
L 186.736537 147.16213 
L 187.748323 188.423807 
L 188.557752 253.923556 
L 188.962466 268.394676 
L 189.164823 270.483074 
L 189.36718 270.567454 
L 189.569538 269.808036 
L 189.771895 258.796484 
L 190.986038 160.810547 
L 191.188395 155.389151 
L 191.390752 155.346961 
L 191.795467 164.692014 
L 192.604896 196.671924 
L 193.414325 261.370065 
L 193.819039 275.377097 
L 194.021396 276.474033 
L 194.426111 272.423807 
L 194.628468 263.268609 
L 195.437897 201.017479 
L 195.640254 195.891411 
L 195.842611 197.136012 
L 196.247325 203.337921 
L 196.449683 203.928579 
L 196.65204 203.527775 
L 197.056754 211.923556 
L 197.259112 212.788448 
L 197.461469 221.395178 
L 198.06854 270.841688 
L 198.473255 285.354997 
L 198.675612 285.460472 
L 198.877969 281.72667 
L 199.282684 250.231944 
L 199.687398 226.879859 
L 201.306256 158.933099 
L 201.508613 157.751783 
L 202.115684 177.39116 
L 202.318042 188.803516 
L 202.925113 254.366549 
L 203.329828 272.423807 
L 203.532185 274.57549 
L 203.734542 271.516725 
L 203.936899 259.724661 
L 204.341614 224.939126 
L 205.758114 168.995379 
L 205.960471 166.442893 
L 206.162829 166.590558 
L 206.365186 168.046107 
L 206.7699 180.175691 
L 206.972257 183.445404 
L 207.174615 194.541336 
L 207.781686 254.978302 
L 208.186401 271.516725 
L 208.388758 274.638774 
L 208.591115 271.221396 
L 208.793472 259.070718 
L 209.198187 224.475038 
L 209.805258 201.671421 
L 210.209973 181.314817 
L 210.817044 138.639779 
L 211.019402 129.948669 
L 211.221759 132.986339 
L 211.626473 158.047112 
L 211.82883 163.384129 
L 212.031188 178.467002 
L 212.638259 245.063687 
L 213.042974 264.091311 
L 213.245331 268.183727 
L 213.447688 266.432848 
L 213.650045 255.463486 
L 214.257117 211.164139 
L 214.661831 184.183727 
L 215.47126 123.409242 
L 215.875975 106.280161 
L 216.078332 105.794977 
L 216.280689 111.469513 
L 217.090118 176.779407 
L 217.697189 240.190758 
L 218.101904 259.091813 
L 218.304261 262.530286 
L 218.506618 263.922551 
L 218.708976 262.635761 
L 218.911333 249.599096 
L 219.518404 193.48659 
L 220.125476 157.435359 
L 220.327833 155.220392 
L 220.53019 157.498644 
L 221.541976 200.827624 
L 221.744334 206.101356 
L 222.553762 264.365545 
L 222.958477 275.503666 
L 223.160834 277.254545 
L 223.363191 277.613159 
L 223.565549 276.009945 
L 223.767906 267.086791 
L 224.374977 227.955701 
L 224.779692 220.192767 
L 225.386763 222.30226 
L 225.589121 225.909493 
L 225.791478 226.816575 
L 226.196192 235.40221 
L 226.398549 235.043596 
L 226.600907 241.625213 
L 227.410335 296.535309 
L 227.612693 300.669915 
L 227.81505 302.399699 
L 228.017407 299.129985 
L 228.826836 255.505676 
L 229.029193 253.121949 
L 229.23155 247.236464 
L 230.648051 182.285183 
L 230.850408 182.875841 
L 231.255122 197.64229 
L 231.45748 208.801507 
L 232.064551 274.027022 
L 232.469266 291.620191 
L 232.671623 294.404721 
L 232.87398 293.160121 
L 233.278694 267.25555 
L 233.683409 244.1777 
L 235.302267 178.024008 
L 235.504624 177.412255 
L 236.111695 196.988348 
L 236.314053 207.599096 
L 236.921124 271.242491 
L 237.325839 287.50668 
L 237.528196 290.713109 
L 237.730553 288.540331 
L 238.135267 264.006931 
L 238.539982 241.688498 
L 239.349411 210.003918 
L 239.754125 199.751783 
L 240.15884 189.288699 
L 240.361197 189.03556 
L 240.563554 194.625716 
L 240.968268 212.661878 
L 241.170626 220.424812 
L 241.777697 277.31783 
L 242.182412 293.560924 
L 242.384769 296.11341 
L 242.587126 293.054646 
L 242.99184 267.740733 
L 243.396555 249.345957 
L 245.21777 172.876846 
L 245.420127 177.222401 
L 246.027199 204.666901 
L 246.836627 279.933601 
L 247.038985 288.498142 
L 247.241342 291.74676 
L 247.443699 289.152084 
L 247.848413 265.019488 
L 249.467271 150.305274 
L 249.669628 142.036062 
L 249.871985 140.053139 
L 250.074343 140.221899 
L 250.2767 147.330889 
L 250.883772 180.21788 
L 251.6932 257.003415 
L 252.097915 271.875339 
L 252.300272 275.018483 
L 252.502629 275.292717 
L 252.704986 271.326871 
L 253.109701 237.785937 
L 253.91913 162.814566 
L 254.323844 146.634756 
L 254.728558 137.606128 
L 254.930916 136.319337 
L 255.133273 143.997891 
L 255.740345 182.369563 
L 256.549773 259.387142 
L 256.954488 275.229432 
L 257.156845 279.131994 
L 257.359202 280.840683 
L 257.561559 279.849221 
L 257.966274 250.274134 
L 258.573345 198.675942 
L 258.97806 176.484078 
L 259.382774 165.198292 
L 259.585131 161.675439 
L 259.787489 161.232446 
L 259.989846 163.911502 
L 260.39456 180.281165 
L 260.596917 193.950678 
L 261.203989 257.425314 
L 261.608704 276.579508 
L 261.811061 279.574987 
L 262.013418 278.77338 
L 262.418132 254.23998 
L 262.62049 241.941637 
L 263.025204 232.048117 
L 263.227561 229.179206 
L 263.429918 228.145555 
L 263.834633 229.45344 
L 264.03699 229.137017 
L 264.239347 230.107383 
L 264.441704 230.191763 
L 264.644062 229.917529 
L 264.846419 232.005927 
L 265.048776 236.140532 
L 265.251133 236.140532 
L 265.45349 240.254043 
L 266.060562 283.730688 
L 266.465277 296.872828 
L 266.667634 298.454947 
L 266.869991 294.172677 
L 267.072348 286.030035 
L 267.477063 258.901959 
L 268.084134 236.203817 
L 268.488849 225.677449 
L 269.09592 214.159618 
L 269.500635 210.109392 
L 269.702992 212.345455 
L 269.905349 216.037067 
L 270.107706 216.733199 
L 270.310063 223.188247 
L 270.917135 273.204319 
L 271.32185 285.460472 
L 271.524207 287.654345 
L 271.726564 285.903466 
L 274.15485 140.960221 
L 274.357208 133.619186 
L 274.559565 137.036565 
L 275.166636 162.793471 
L 275.976065 246.308287 
L 276.38078 259.176193 
L 276.583137 258.458965 
L 276.987851 236.098343 
L 277.392566 206.50216 
L 278.404352 148.195781 
L 278.606709 145.073732 
L 279.011423 131.530789 
L 279.213781 129.885384 
L 279.416138 134.252034 
L 280.023209 176.969262 
L 280.630281 250.020994 
L 281.034995 273.351984 
L 281.237353 278.351482 
L 281.43971 276.769362 
L 281.642067 270.736213 
L 282.249139 227.976796 
L 282.85621 193.52878 
L 283.867996 149.714616 
L 284.070354 148.49111 
L 284.272711 156.844701 
L 285.284497 241.920542 
L 285.689211 274.870819 
L 286.093926 289.974787 
L 286.296283 292.316323 
L 286.49864 290.45997 
L 286.700997 287.443395 
L 287.105712 255.674435 
L 287.712783 202.873832 
L 288.522212 158.384631 
L 288.724569 151.085786 
L 288.926927 149.102863 
L 289.129284 152.77338 
L 289.736355 187.411251 
L 290.545784 259.197288 
L 290.950499 274.849724 
L 291.152856 277.697539 
L 291.355213 277.781919 
L 291.55757 276.263084 
L 291.759927 263.479558 
L 292.771714 162.392667 
L 293.176428 139.863285 
L 293.581142 128.345455 
L 293.7835 126.573481 
L 293.985857 130.180713 
L 294.592928 156.338423 
L 295.402357 241.667403 
L 295.807072 256.729181 
L 296.009429 256.560422 
L 296.414143 235.760824 
L 297.830644 97.293722 
L 298.235358 83.645304 
L 298.437715 80.987343 
L 298.640073 81.261577 
L 298.84243 83.37107 
L 299.044787 91.619186 
L 299.449501 119.295731 
L 300.056573 200.363536 
L 300.461287 226.268106 
L 300.663645 232.44892 
L 300.866002 233.187243 
L 301.068359 226.183727 
L 301.473073 195.342943 
L 302.484859 87.273631 
L 302.687217 75.650326 
L 302.889574 75.755801 
L 303.091931 84.067202 
L 303.496646 92.948167 
L 303.90136 115.793973 
L 304.306074 144.483074 
L 304.913146 215.551883 
L 305.31786 241.583024 
L 305.520218 247.299749 
L 305.722575 245.46449 
L 305.924932 238.14455 
L 306.532004 197.114917 
L 307.54379 125.223405 
L 307.746147 114.739227 
L 307.948504 113.832145 
L 308.757933 146.972275 
L 309.162647 173.741738 
L 309.769719 238.439879 
L 310.174433 258.859769 
L 310.376791 263.374083 
L 310.579148 262.783425 
L 310.983862 238.735208 
L 312.198005 131.889402 
L 312.60272 119.949674 
L 312.805077 115.456454 
L 313.007434 116.026017 
L 313.209791 119.823104 
L 313.816863 148.153591 
L 314.01922 162.202813 
L 314.626292 226.479056 
L 315.031006 247.531793 
L 315.233364 252.235962 
L 315.435721 251.560924 
L 315.840435 232.280161 
L 316.24515 213.062682 
L 316.649864 200.72215 
L 317.054578 185.006429 
L 317.66165 177.285686 
L 317.864007 176.821597 
L 318.066364 175.89342 
L 318.268722 180.703064 
L 318.875793 203.443395 
L 319.685222 263.627223 
L 320.089937 276.748267 
L 320.292294 278.435861 
L 320.697008 270.293219 
L 321.101723 243.354997 
L 322.315866 163.320844 
L 322.72058 152.794475 
L 322.922937 150.410748 
L 323.125295 154.650829 
L 323.732366 183.023506 
L 324.541795 253.417278 
L 324.94651 268.099347 
L 325.148867 271.073732 
L 325.351224 271.137017 
L 325.553581 268.816575 
L 325.755938 256.159618 
L 326.970082 140.707082 
L 327.172439 134.209844 
L 327.374796 132.585535 
L 327.77951 126.86881 
L 327.981868 131.994877 
L 328.184225 141.023506 
L 328.791296 194.077248 
L 329.196011 238.988348 
L 329.398368 254.640784 
L 329.803083 265.019488 
L 330.00544 264.049121 
L 330.207797 258.290206 
L 330.814869 208.463988 
L 331.42194 169.206328 
L 331.826655 145.917529 
L 332.029012 142.943144 
L 332.231369 142.964239 
L 332.433726 143.154093 
L 332.636083 145.305776 
L 332.838441 149.967755 
L 333.243155 173.509694 
L 333.445512 182.770367 
L 334.052584 250.274134 
L 334.457298 272.655851 
L 334.659655 278.224912 
L 334.862013 275.756806 
L 335.266727 255.379106 
L 335.671442 230.360522 
L 336.48087 189.16213 
L 336.683228 183.951683 
L 336.885585 182.812557 
L 337.087942 176.462983 
L 337.290299 174.56444 
L 337.695014 181.209342 
L 338.099728 196.060171 
L 338.302085 202.09332 
L 339.111514 269.702562 
L 339.313871 276.07323 
L 339.516228 278.372577 
L 339.718586 274.195781 
L 340.1233 250.210849 
L 340.932729 204.540331 
L 342.349229 141.107885 
L 342.551587 141.023506 
L 343.158658 166.379608 
L 343.76573 230.845706 
L 344.170444 249.345957 
L 344.372801 254.23998 
L 344.575159 252.046107 
L 344.777516 244.937117 
L 345.18223 213.210347 
L 346.194016 128.32436 
L 346.598731 113.157107 
L 347.003445 106.36454 
L 347.205802 105.499648 
L 347.40816 108.769362 
L 347.610517 116.827624 
L 348.015231 143.639277 
L 348.82466 237.237469 
L 349.229374 254.809543 
L 349.431732 254.029031 
L 349.634089 248.080261 
L 349.836446 236.646811 
L 351.050589 129.379106 
L 351.455304 110.520241 
L 351.860018 101.428327 
L 352.062375 100.500151 
L 352.264733 104.233953 
L 352.46709 115.625213 
L 353.276519 200.975289 
L 353.681233 239.937619 
L 354.085947 260.673933 
L 354.288305 266.095329 
L 354.490662 266.685987 
L 354.693019 264.38664 
L 355.097733 221.205324 
L 355.704805 145.369061 
L 356.109519 119.991863 
L 356.716591 101.301758 
L 356.918948 100.183727 
L 357.121306 105.11994 
L 357.52602 131.446409 
L 357.728377 144.483074 
L 358.740163 242.574485 
L 359.144878 255.906479 
L 359.347235 257.826118 
L 359.549592 257.488599 
L 359.751949 243.101858 
L 360.763735 119.169161 
L 361.16845 99.571974 
L 361.573164 88.159618 
L 361.775521 85.796986 
L 361.977879 89.172175 
L 362.180236 96.365545 
L 362.58495 122.860773 
L 363.394379 214.054144 
L 363.799093 232.195781 
L 364.001451 233.039578 
L 364.203808 226.985334 
L 364.406165 216.64882 
L 365.013237 145.137017 
L 365.620308 78.772376 
L 366.025023 62.149573 
L 366.429737 55.8 
L 366.632094 56.306278 
L 366.834451 59.027524 
L 367.036809 67.992868 
L 367.441523 98.010949 
L 368.048595 179.901457 
L 368.453309 211.290708 
L 368.655666 220.066198 
L 368.858024 222.513209 
L 369.060381 218.505173 
L 369.262738 208.358513 
L 369.86981 143.006429 
L 370.476881 83.160121 
L 370.881596 66.052135 
L 371.083953 65.588046 
L 371.28631 66.326369 
L 371.488667 70.376595 
L 371.691024 76.789453 
L 372.298096 116.912004 
L 373.107525 204.413762 
L 373.512239 227.301758 
L 373.714597 231.794977 
L 374.119311 231.07775 
L 374.321668 217.956705 
L 375.333454 111.047614 
L 375.738169 97.399196 
L 375.940526 94.614666 
L 376.142883 93.47554 
L 376.34524 98.812557 
L 376.749955 125.835158 
L 377.559383 186.504169 
L 377.964098 222.196786 
L 378.368812 236.414766 
L 378.57117 236.646811 
L 378.773527 230.529282 
L 378.975884 218.969262 
L 380.392384 98.791462 
L 380.797099 88.560422 
L 381.201813 80.734204 
L 381.40417 84.615671 
L 382.011242 122.776394 
L 382.820671 208.189754 
L 383.225385 224.791462 
L 383.427743 225.466499 
L 383.6301 219.960723 
L 384.034814 197.030537 
L 385.0466 121.320844 
L 385.451315 104.107383 
L 385.653672 103.6222 
L 385.856029 107.524761 
L 386.058386 115.393169 
L 387.070172 187.558915 
L 387.474887 228.926067 
L 387.879601 251.497639 
L 388.284316 260.927072 
L 388.68903 263.521748 
L 388.891387 257.594073 
L 389.700816 212.682973 
L 390.307888 201.122953 
L 390.914959 187.980814 
L 391.117316 192.917027 
L 391.926745 233.735711 
L 392.533817 279.321848 
L 392.938531 292.084279 
L 393.140888 294.003918 
L 393.343246 293.539829 
L 393.545603 294.025013 
L 393.74796 284.785434 
L 394.355032 242.321346 
L 395.569175 184.057157 
L 395.771532 177.855249 
L 395.973889 179.099849 
L 396.176247 187.685485 
L 396.783318 231.056655 
L 397.188033 270.799498 
L 397.592747 289.194274 
L 397.795104 292.063184 
L 397.997461 289.447413 
L 398.402176 270.736213 
L 400.628105 139.061678 
L 400.830462 141.993872 
L 401.03282 152.267102 
L 401.639891 211.121949 
L 402.044606 256.876846 
L 402.44932 277.845203 
L 402.651677 281.979809 
L 402.854034 280.27112 
L 403.258749 261.496635 
L 403.663463 232.174686 
L 404.877607 122.755299 
L 405.282321 101.575992 
L 405.484678 97.230437 
L 405.687035 98.348468 
L 405.889393 109.191261 
L 406.294107 147.752788 
L 406.901179 227.639277 
L 407.305893 252.468006 
L 407.50825 258.248016 
L 407.710607 257.699548 
L 408.115322 235.781919 
L 409.73418 99.276645 
L 409.936537 94.192767 
L 410.138894 94.045103 
L 410.341251 98.791462 
L 410.948323 136.045103 
L 411.15068 152.456956 
L 411.757752 225.29774 
L 412.162466 250.126469 
L 412.364823 256.813561 
L 412.56718 258.64882 
L 412.971895 240.021999 
L 414.388395 138.808538 
L 414.79311 124.843697 
L 415.197824 117.96675 
L 415.400181 124.949171 
L 416.20961 189.478553 
L 416.614325 236.140532 
L 417.019039 259.93561 
L 417.221396 264.323355 
L 417.423753 263.753792 
L 417.828468 247.0888 
L 419.244968 146.276143 
L 419.649683 132.248016 
L 419.85204 128.303265 
L 420.054397 129.77991 
L 420.256754 138.703064 
L 421.066183 205.974787 
L 421.673255 262.720141 
L 422.077969 279.279658 
L 422.280326 281.832145 
L 422.482684 281.157107 
L 422.685041 280.988348 
L 423.089755 249.324862 
L 423.899184 178.234957 
L 424.708613 137.774887 
L 424.91097 134.505173 
L 425.113327 138.618684 
L 425.518042 165.493621 
L 425.720399 177.623204 
L 426.529828 254.345455 
L 426.934542 273.436364 
L 427.136899 278.035058 
L 427.339257 278.85776 
L 427.541614 279.089804 
L 427.743971 270.25103 
L 428.148685 228.778403 
L 428.755757 165.177197 
L 429.160471 138.829633 
L 429.565186 130.349473 
L 429.9699 134.378604 
L 430.374615 151.043596 
L 430.576972 163.00442 
L 431.386401 241.076745 
L 431.791115 253.649322 
L 431.993472 251.560924 
L 432.398187 230.698041 
L 433.207616 163.827122 
L 434.017044 91.534807 
L 434.219402 86.514214 
L 435.02883 114.675942 
L 435.433545 140.348468 
L 436.040617 213.484581 
L 436.445331 236.625716 
L 436.647688 241.899448 
L 436.850045 241.203315 
L 437.25476 220.045103 
L 437.659474 184.183727 
L 438.468903 108.727172 
L 438.67126 98.728177 
L 438.873617 99.719638 
L 439.075975 107.018483 
L 439.278332 106.554395 
L 439.480689 108.853742 
L 439.885403 127.902461 
L 440.290118 153.321848 
L 440.897189 228.715118 
L 441.301904 251.624209 
L 441.504261 257.19327 
L 441.706618 257.741738 
L 442.111333 242.616675 
L 442.920762 189.204319 
L 443.527833 153.406228 
L 444.134905 130.054144 
L 444.337262 127.396183 
L 444.539619 133.9778 
L 445.146691 180.238975 
L 445.753762 251.265595 
L 446.158477 273.03556 
L 446.360834 278.119437 
L 446.563191 276.07323 
L 446.967906 256.665897 
L 448.586763 143.955701 
L 448.991478 130.412757 
L 449.193835 128.029031 
L 449.396192 134.863787 
L 450.003264 176.315319 
L 450.812693 258.48006 
L 451.217407 272.128478 
L 451.419764 272.255048 
L 451.824479 254.619689 
L 452.43155 202.873832 
L 453.038622 159.861276 
L 453.443336 142.373581 
L 453.848051 134.294224 
L 454.050408 137.753792 
L 454.252765 148.005927 
L 454.65748 177.159116 
L 454.859837 185.829131 
L 455.669266 252.257057 
L 456.07398 266.158614 
L 456.276337 267.719638 
L 456.478694 265.67343 
L 456.681052 262.488096 
L 456.883409 254.28217 
L 457.288123 226.563435 
L 457.692838 215.319839 
L 457.895195 216.037067 
L 458.299909 221.943646 
L 458.502267 221.795982 
L 458.906981 217.872325 
L 459.109338 218.420794 
L 459.514053 222.681969 
L 459.71641 227.090809 
L 460.728196 286.304269 
L 461.13291 290.839679 
L 461.537625 287.443395 
L 461.739982 278.288197 
L 462.144696 242.890909 
L 463.561197 171.927574 
L 463.763554 164.481065 
L 463.965911 165.683476 
L 464.572983 185.660372 
L 465.382412 254.366549 
L 465.584769 261.454445 
L 465.787126 264.238975 
L 465.989483 261.749774 
L 467.608341 166.822602 
L 468.620127 145.094827 
L 468.822484 148.301256 
L 469.429556 175.218383 
L 470.036627 233.398192 
L 470.441342 251.645304 
L 470.643699 254.345455 
L 470.846056 251.708589 
L 471.857842 199.477549 
L 472.869628 168.446911 
L 473.071985 168.953189 
L 473.274343 167.117931 
L 473.4767 168.404721 
L 473.679057 172.286188 
L 473.881414 179.036565 
L 474.083772 180.21788 
L 474.286129 188.086288 
L 474.8932 241.540834 
L 475.297915 258.205826 
L 475.500272 259.914515 
L 475.702629 257.826118 
L 476.107344 232.828629 
L 476.512058 210.257057 
L 477.321487 177.960723 
L 477.726201 157.287695 
L 477.928558 153.638272 
L 478.333273 158.447916 
L 478.53563 163.025515 
L 479.142702 188.592567 
L 479.952131 258.100352 
L 480.356845 268.204822 
L 480.559202 267.782923 
L 480.963917 245.126971 
L 482.785131 113.452436 
L 482.987489 107.398192 
L 483.189846 104.698041 
L 483.392203 110.478051 
L 483.999275 151.36002 
L 484.606346 224.285183 
L 485.011061 248.101356 
L 485.213418 252.615671 
L 485.415775 253.586037 
L 485.82049 233.313812 
L 486.225204 201.312808 
L 487.23699 109.043596 
L 487.439347 105.879357 
L 487.844062 112.608639 
L 488.248776 131.699548 
L 489.260562 211.206328 
L 489.665277 244.1777 
L 490.069991 259.661376 
L 490.272348 262.066198 
L 490.474705 260.905977 
L 490.677063 259.091813 
L 490.87942 249.113913 
L 491.891206 167.37107 
L 492.29592 149.208338 
L 492.498277 141.635259 
L 492.700635 139.567956 
L 492.902992 141.234455 
L 493.105349 146.170668 
L 493.712421 180.534304 
L 494.52185 254.345455 
L 495.128921 273.07775 
L 495.331278 273.225414 
L 495.533636 272.592567 
L 495.735993 264.850728 
L 496.950136 171.041587 
L 497.557208 146.065193 
L 497.759565 142.62672 
L 497.961922 145.917529 
L 498.568994 178.213862 
L 499.378422 253.881366 
L 499.58078 260.884882 
L 499.783137 263.437368 
L 499.985494 260.041085 
L 500.187851 251.307785 
L 500.794923 213.463486 
L 500.99728 208.231944 
L 501.401995 194.81557 
L 501.806709 183.276645 
L 502.009066 182.812557 
L 502.211423 184.922049 
L 502.413781 185.575992 
L 502.616138 183.867303 
L 503.020852 193.824108 
L 503.223209 194.393672 
L 503.425567 202.09332 
L 504.032638 254.050126 
L 504.437353 267.445404 
L 504.63971 269.111904 
L 504.842067 266.685987 
L 505.246782 241.709593 
L 505.651496 217.302762 
L 507.270354 142.331391 
L 507.472711 139.146057 
L 507.675068 142.62672 
L 508.28214 171.358011 
L 508.889211 230.824611 
L 509.293926 248.37559 
L 509.496283 251.982823 
L 509.69864 250.105374 
L 510.103354 225.972777 
L 511.722212 116.954194 
L 512.126927 98.749272 
L 512.329284 100.373581 
L 512.936355 135.602109 
L 513.34107 175.513712 
L 513.745784 220.066198 
L 514.150499 243.354997 
L 514.352856 249.071723 
L 514.555213 249.578001 
L 514.75757 240.464992 
L 516.174071 141.29774 
L 516.376428 140.179709 
L 516.781142 149.735711 
L 516.9835 146.930085 
L 517.185857 147.478553 
L 517.590571 165.620191 
L 517.792928 169.965746 
L 517.995286 180.935108 
L 518.4 221.585033 
L 518.4 221.585033 
" clip-path="url(#p4faded4f09)" style="fill: none; stroke: #1f77b4; stroke-width: 1.5; stroke-linecap: square"/>
   </g>
   <g id="line2d_14">
    <path d="M 72 281.948589 
L 72.202357 281.948589 
L 72.809429 289.625035 
L 73.011786 285.085877 
L 75.237715 153.504126 
L 75.440073 155.291583 
L 75.64243 163.195799 
L 76.249501 208.440018 
L 76.654216 255.225427 
L 77.05893 278.726231 
L 77.261287 282.878431 
L 77.463645 281.954215 
L 77.868359 267.674148 
L 78.677788 220.081165 
L 79.082502 200.970453 
L 79.891931 160.82523 
L 80.094288 156.740607 
L 80.296646 160.988545 
L 80.70136 184.448039 
L 81.106074 219.95637 
L 81.510789 256.798649 
L 81.915503 275.773378 
L 82.11786 278.892699 
L 82.320218 277.777788 
L 82.724932 270.148765 
L 82.927289 265.073791 
L 83.939075 225.225671 
L 84.141432 224.095548 
L 84.34379 223.934073 
L 85.355576 239.866825 
L 86.165005 267.980124 
L 86.772076 297.8638 
L 86.974433 300.158533 
L 87.176791 299.044641 
L 87.379148 294.37035 
L 88.188577 260.654573 
L 88.593291 247.977179 
L 88.795648 246.044709 
L 88.998005 246.839475 
L 89.200363 248.442882 
L 89.40272 248.404352 
L 89.605077 247.677203 
L 89.807434 245.057341 
L 90.212149 235.95695 
L 90.414506 237.372939 
L 90.616863 241.058764 
L 90.81922 247.302291 
L 91.628649 299.776688 
L 91.831006 302.612786 
L 92.033364 300.668994 
L 92.235721 295.074882 
L 92.640435 267.578051 
L 92.842792 253.134406 
L 93.04515 246.970043 
L 93.652221 241.179524 
L 93.854578 241.713918 
L 94.056936 240.630838 
L 94.664007 232.069503 
L 94.866364 231.079002 
L 95.068722 232.183734 
L 95.675793 252.224072 
L 96.282865 291.129589 
L 96.485222 296.702683 
L 96.687579 296.753016 
L 96.889937 292.637026 
L 97.294651 274.579587 
L 97.901723 242.704801 
L 98.10408 239.640006 
L 98.508794 236.509898 
L 98.711151 237.161935 
L 98.913509 236.520894 
L 99.52058 228.475999 
L 99.722937 226.232863 
L 99.925295 227.840256 
L 100.330009 241.498672 
L 100.734723 265.36262 
L 101.139438 289.921625 
L 101.341795 295.393181 
L 101.544152 295.617671 
L 101.74651 291.696848 
L 102.151224 274.183338 
L 102.555938 248.736363 
L 102.758296 243.153664 
L 103.365367 237.083879 
L 103.567724 236.935117 
L 103.770082 235.718688 
L 104.377153 222.352669 
L 104.57951 219.990335 
L 104.781868 221.982213 
L 105.186582 238.1446 
L 105.591296 262.745776 
L 105.996011 288.194062 
L 106.198368 293.334152 
L 106.400725 294.0911 
L 106.603083 290.044384 
L 107.007797 273.508005 
L 107.614869 242.18254 
L 108.22194 233.587238 
L 108.424297 229.285147 
L 109.031369 201.543146 
L 109.233726 200.038605 
L 109.436083 203.816168 
L 109.840798 219.63454 
L 110.852584 284.445365 
L 111.054941 289.744758 
L 111.257298 290.30395 
L 111.459655 287.117713 
L 111.86437 272.896629 
L 112.673799 232.589406 
L 113.28087 203.581498 
L 113.685585 190.284085 
L 114.090299 177.250499 
L 114.292656 176.96488 
L 114.495014 184.555324 
L 114.899728 213.440208 
L 115.5068 265.1922 
L 115.911514 282.804595 
L 116.113871 285.492712 
L 116.316228 283.58479 
L 116.9233 268.250243 
L 117.530372 235.832903 
L 118.542158 162.783024 
L 118.946872 147.785153 
L 119.149229 144.839867 
L 119.351587 149.700162 
L 119.756301 180.349309 
L 120.56573 262.687338 
L 120.970444 278.415686 
L 121.172801 280.265938 
L 121.375159 277.972929 
L 121.779873 265.916846 
L 122.184587 245.075494 
L 122.791659 211.404709 
L 123.196374 196.600886 
L 123.398731 193.015423 
L 123.601088 191.726217 
L 123.803445 193.57234 
L 124.005802 197.324998 
L 124.410517 214.003995 
L 124.815231 235.987935 
L 125.422303 280.575529 
L 125.62466 288.385301 
L 125.827017 290.889497 
L 126.029374 289.407543 
L 126.231732 283.847085 
L 126.636446 256.497552 
L 127.04116 232.997839 
L 127.445875 215.905014 
L 128.660018 152.619613 
L 128.862375 154.075878 
L 129.064733 164.507178 
L 129.469447 206.185712 
L 129.874161 256.155586 
L 130.278876 279.662065 
L 130.481233 283.859657 
L 130.68359 283.406949 
L 130.885947 279.226107 
L 131.290662 262.714577 
L 133.314234 142.578135 
L 133.516591 137.130427 
L 133.718948 140.341456 
L 134.123663 161.056666 
L 134.32602 174.276429 
L 135.135449 264.870639 
L 135.337806 271.951068 
L 135.540163 273.822222 
L 135.74252 270.731294 
L 136.147235 253.095117 
L 136.956664 195.096155 
L 137.159021 192.162371 
L 137.361378 186.895994 
L 137.563735 186.064712 
L 137.766092 189.095305 
L 137.96845 188.31684 
L 138.373164 197.58773 
L 138.575521 201.831026 
L 139.182593 222.910733 
L 139.587307 248.018441 
L 139.992022 274.507276 
L 140.194379 281.968274 
L 140.396736 282.845463 
L 140.599093 279.270961 
L 141.003808 261.796625 
L 141.408522 236.954369 
L 141.813237 222.026799 
L 142.015594 215.44283 
L 142.217951 213.957927 
L 142.420308 214.389731 
L 142.622665 215.69164 
L 142.825023 215.291047 
L 143.02738 214.359174 
L 143.432094 219.906757 
L 143.836809 229.902027 
L 144.241523 244.342043 
L 144.848595 278.906719 
L 145.050952 283.476768 
L 145.253309 284.354157 
L 145.455666 280.431239 
L 145.860381 263.024046 
L 146.467452 227.843303 
L 147.074524 213.194317 
L 147.276881 214.647961 
L 147.479238 214.566348 
L 147.681596 212.510056 
L 147.883953 216.109203 
L 149.098096 253.861802 
L 149.705168 279.922425 
L 149.907525 283.155458 
L 150.109882 284.581504 
L 150.312239 281.753345 
L 151.121668 254.835502 
L 151.72874 232.163795 
L 151.931097 227.770207 
L 152.133454 227.852319 
L 152.335811 229.189015 
L 152.740526 234.526172 
L 153.347597 238.632336 
L 153.954669 248.265457 
L 154.359383 265.722653 
L 154.764098 284.201088 
L 154.966455 288.603524 
L 155.168812 289.407594 
L 155.37117 286.872622 
L 155.775884 274.117601 
L 156.382956 241.609401 
L 157.394742 170.210436 
L 158.001813 155.64538 
L 158.20417 158.849848 
L 158.608885 184.736276 
L 159.418314 267.48997 
L 159.620671 277.499486 
L 159.823028 281.762296 
L 160.025385 281.48625 
L 160.227743 276.405234 
L 160.632457 249.383377 
L 161.239529 205.088301 
L 161.644243 187.171101 
L 161.8466 181.161492 
L 162.453672 174.35534 
L 162.656029 178.06174 
L 163.060743 195.004762 
L 163.667815 233.343131 
L 164.274887 274.20499 
L 164.477244 280.296292 
L 164.679601 282.502866 
L 164.881958 279.340139 
L 165.286673 261.573266 
L 165.893744 226.607403 
L 166.298459 216.549825 
L 166.703173 205.330485 
L 166.90553 198.937303 
L 167.310245 176.625092 
L 167.512602 171.078626 
L 167.714959 174.052273 
L 168.322031 215.298135 
L 169.13146 274.431517 
L 169.333817 278.607483 
L 169.536174 279.223467 
L 169.738531 276.253805 
L 170.143246 261.663167 
L 170.750317 220.804325 
L 171.357389 176.255983 
L 171.559746 169.178765 
L 171.964461 162.723124 
L 172.166818 159.432646 
L 172.369175 157.975304 
L 172.571532 160.791487 
L 172.773889 169.473582 
L 173.178604 200.870165 
L 173.785675 260.068773 
L 174.19039 279.534333 
L 174.392747 280.444388 
L 174.595104 276.695941 
L 174.797461 269.633825 
L 176.416319 186.563707 
L 177.225748 168.15815 
L 177.428105 170.329944 
L 177.630462 176.263163 
L 178.237534 225.751088 
L 178.642248 264.985108 
L 178.844606 278.26247 
L 179.046963 284.229603 
L 179.24932 285.718573 
L 179.451677 283.097525 
L 179.856392 265.904979 
L 180.868178 205.046747 
L 181.272892 179.487917 
L 182.082321 151.123402 
L 182.284678 151.539829 
L 182.487035 158.07251 
L 182.89175 189.21069 
L 183.498821 250.533024 
L 183.903536 269.310926 
L 184.105893 271.758131 
L 184.30825 270.016906 
L 184.915322 253.698952 
L 185.117679 243.724435 
L 185.724751 187.041472 
L 186.129465 151.499178 
L 186.53418 138.445671 
L 186.736537 139.820929 
L 186.938894 145.740708 
L 187.343608 169.127887 
L 188.153037 229.136577 
L 188.760109 261.040795 
L 188.962466 265.338502 
L 189.164823 266.043899 
L 189.36718 263.225121 
L 189.771895 247.161106 
L 190.378966 214.383775 
L 191.188395 157.9467 
L 191.390752 151.953392 
L 191.59311 152.013272 
L 191.795467 157.284356 
L 192.200181 178.062682 
L 193.211967 245.385335 
L 193.616682 265.171772 
L 193.819039 269.961646 
L 194.021396 271.86002 
L 194.223753 269.427701 
L 194.830825 244.044739 
L 195.842611 188.821553 
L 196.044968 187.971936 
L 196.247325 192.466445 
L 196.65204 208.504493 
L 197.056754 218.276704 
L 197.866183 249.084974 
L 198.473255 282.253348 
L 198.675612 285.226957 
L 198.877969 283.539167 
L 199.080326 277.153147 
L 199.485041 247.958977 
L 199.889755 219.281858 
L 201.508613 168.420586 
L 201.71097 170.823145 
L 202.115684 188.960582 
L 202.520399 218.768393 
L 202.925113 254.590306 
L 203.329828 272.724356 
L 203.532185 273.92672 
L 203.734542 270.409119 
L 204.139257 252.47732 
L 204.948685 200.272178 
L 205.555757 177.254273 
L 206.162829 168.656193 
L 206.365186 172.38262 
L 206.7699 188.415657 
L 207.376972 221.697209 
L 207.984044 262.074353 
L 208.186401 267.910594 
L 208.388758 269.665576 
L 208.591115 267.325527 
L 208.99583 249.990326 
L 209.805258 201.394738 
L 211.221759 142.26493 
L 211.424116 143.453024 
L 211.82883 168.767534 
L 212.233545 200.388743 
L 212.638259 244.877795 
L 213.042974 261.527223 
L 213.245331 262.473069 
L 213.447688 259.433781 
L 213.852403 243.844314 
L 215.875975 114.41826 
L 216.078332 111.401867 
L 216.280689 113.118915 
L 216.483046 118.323166 
L 217.090118 169.63452 
L 217.697189 237.464407 
L 217.899547 248.779651 
L 218.101904 252.837512 
L 218.304261 252.593976 
L 218.708976 242.358817 
L 218.911333 236.508415 
L 219.316047 209.888144 
L 220.125476 150.818828 
L 220.327833 142.070076 
L 220.53019 139.894361 
L 220.732548 143.592931 
L 221.137262 168.054969 
L 221.744334 217.306285 
L 222.958477 267.087383 
L 223.160834 269.166405 
L 223.363191 266.849867 
L 223.767906 252.887727 
L 224.577335 221.258912 
L 224.779692 215.788471 
L 224.982049 214.310682 
L 225.386763 219.965623 
L 226.600907 244.888923 
L 227.005621 261.529719 
L 227.410335 285.016763 
L 227.612693 291.092988 
L 227.81505 292.781457 
L 228.017407 290.522288 
L 228.219764 284.426449 
L 229.029193 238.224437 
L 229.838622 226.336681 
L 230.243336 207.148084 
L 230.648051 189.616358 
L 230.850408 185.920243 
L 231.052765 187.486568 
L 231.255122 194.702472 
L 231.659837 228.551825 
L 232.266908 279.774137 
L 232.469266 287.4551 
L 232.671623 289.133355 
L 232.87398 286.424893 
L 233.076337 280.964121 
L 233.481052 260.697445 
L 234.290481 216.091243 
L 234.695195 198.121573 
L 235.302267 183.755479 
L 235.504624 182.074699 
L 235.706981 185.473273 
L 235.909338 191.807292 
L 236.314053 216.352335 
L 237.123481 278.296752 
L 237.325839 285.263411 
L 237.528196 286.2726 
L 237.730553 283.431357 
L 238.135267 267.630473 
L 239.147053 214.111022 
L 239.551768 201.575456 
L 239.754125 199.571284 
L 239.956482 198.929195 
L 240.361197 196.566087 
L 240.563554 197.86916 
L 240.765911 203.872035 
L 241.170626 229.731765 
L 241.980054 281.466553 
L 242.182412 287.318589 
L 242.384769 288.27032 
L 242.587126 285.097251 
L 242.99184 268.652958 
L 243.598912 237.31773 
L 244.205984 213.721759 
L 244.610698 197.937095 
L 245.21777 181.970939 
L 245.420127 182.128422 
L 245.622484 186.876296 
L 245.824841 196.191304 
L 247.038985 283.655243 
L 247.241342 286.228053 
L 247.443699 284.201594 
L 247.646056 278.448385 
L 248.050771 258.007184 
L 249.871985 142.829748 
L 250.074343 143.86963 
L 250.2767 148.879348 
L 250.681414 173.055617 
L 251.086129 210.431598 
L 251.490843 248.00809 
L 251.895558 267.686989 
L 252.097915 270.697634 
L 252.300272 269.780806 
L 252.704986 259.578628 
L 253.109701 242.332798 
L 253.716772 191.226768 
L 254.121487 156.225039 
L 254.526201 140.965668 
L 254.728558 138.753384 
L 254.930916 140.09263 
L 255.133273 143.889014 
L 255.33563 152.010825 
L 255.942702 205.493422 
L 256.549773 255.683626 
L 256.954488 269.786592 
L 257.156845 270.754817 
L 257.359202 267.55761 
L 257.763917 253.813308 
L 258.370988 218.649517 
L 259.180417 169.21864 
L 259.382774 163.016202 
L 259.585131 161.345604 
L 259.787489 162.74304 
L 259.989846 166.340007 
L 260.192203 172.840839 
L 260.596917 198.015456 
L 261.608704 274.875677 
L 261.811061 279.0126 
L 262.013418 278.946831 
L 262.215775 274.048781 
L 262.62049 248.192508 
L 263.025204 223.020911 
L 263.227561 216.133383 
L 263.429918 214.07115 
L 263.834633 219.694006 
L 264.239347 226.667256 
L 264.441704 228.132677 
L 265.048776 235.196811 
L 265.45349 245.584862 
L 265.858205 263.654845 
L 266.262919 284.154875 
L 266.465277 288.435205 
L 266.667634 288.34399 
L 266.869991 285.067071 
L 267.274705 268.672796 
L 267.881777 239.916908 
L 268.691206 222.1103 
L 269.298277 215.017222 
L 269.500635 214.55907 
L 269.702992 216.002286 
L 269.905349 219.582894 
L 270.512421 242.658719 
L 271.32185 283.807697 
L 271.524207 285.178335 
L 271.726564 283.162173 
L 271.928921 277.585375 
L 272.73835 235.269341 
L 273.547779 186.072107 
L 274.15485 153.154019 
L 274.357208 147.232247 
L 274.559565 144.877212 
L 274.761922 147.765187 
L 275.166636 170.258068 
L 275.571351 210.622658 
L 275.976065 251.761096 
L 276.178422 262.251915 
L 276.38078 265.068389 
L 276.583137 263.702333 
L 276.987851 246.220448 
L 278.404352 147.087105 
L 278.809066 135.456651 
L 279.011423 132.533529 
L 279.213781 132.215186 
L 279.416138 135.63899 
L 279.618495 142.734663 
L 280.023209 171.187942 
L 281.034995 260.147211 
L 281.237353 263.320642 
L 281.43971 263.586532 
L 281.844424 249.101125 
L 282.451496 214.304713 
L 283.058568 180.051294 
L 283.463282 166.745647 
L 283.867996 156.313812 
L 284.070354 156.227403 
L 284.272711 158.354945 
L 284.475068 167.40729 
L 285.08214 222.342304 
L 285.689211 268.579038 
L 285.891568 275.698689 
L 286.093926 277.7369 
L 286.296283 276.837475 
L 286.700997 266.764484 
L 287.105712 250.07395 
L 287.712783 211.416857 
L 288.319855 171.182374 
L 288.724569 157.949532 
L 288.926927 155.256833 
L 289.129284 155.679361 
L 289.331641 161.02141 
L 289.736355 192.066831 
L 290.545784 262.700044 
L 290.748141 272.348849 
L 290.950499 276.104953 
L 291.152856 276.623148 
L 291.355213 273.767519 
L 291.759927 259.217762 
L 292.164642 234.632509 
L 292.974071 158.402695 
L 293.378785 136.252802 
L 293.581142 131.8172 
L 293.7835 130.999013 
L 293.985857 132.955551 
L 294.188214 139.538103 
L 294.795286 182.15074 
L 295.604714 256.970736 
L 295.807072 262.503211 
L 296.009429 263.569948 
L 296.211786 258.839109 
L 296.414143 246.275737 
L 298.033001 91.495259 
L 298.235358 82.193351 
L 298.437715 79.360969 
L 298.640073 84.039323 
L 299.044787 100.460785 
L 299.449501 122.959965 
L 299.651859 138.297395 
L 300.461287 236.36622 
L 300.663645 241.446849 
L 300.866002 241.163482 
L 301.068359 231.486859 
L 302.080145 146.707741 
L 302.484859 96.144444 
L 302.687217 80.781338 
L 302.889574 74.112684 
L 303.091931 74.168829 
L 303.294288 80.142485 
L 304.103717 130.269272 
L 305.31786 238.474612 
L 305.520218 243.729731 
L 305.722575 242.297806 
L 306.127289 219.814892 
L 306.734361 183.127436 
L 307.341432 138.322123 
L 307.746147 112.387572 
L 307.948504 103.779893 
L 308.150861 100.597398 
L 308.353218 106.487888 
L 308.757933 138.035625 
L 309.972076 236.737146 
L 310.174433 245.156959 
L 310.376791 248.92974 
L 310.579148 248.920202 
L 310.781505 244.440399 
L 311.388577 204.655095 
L 312.60272 115.235787 
L 313.007434 111.052362 
L 313.209791 114.33157 
L 313.412149 123.150128 
L 314.221578 184.960031 
L 314.828649 237.636884 
L 315.031006 246.435534 
L 315.233364 248.770094 
L 315.435721 246.47391 
L 315.638078 237.517498 
L 316.24515 198.906405 
L 317.054578 171.787939 
L 317.256936 165.982929 
L 317.66165 163.287077 
L 317.864007 165.29587 
L 318.268722 175.655903 
L 318.673436 191.521352 
L 319.280508 226.927334 
L 319.887579 258.730619 
L 320.089937 263.847795 
L 320.292294 264.992733 
L 320.494651 262.830666 
L 321.101723 244.681676 
L 321.708794 214.370915 
L 322.315866 175.086164 
L 322.72058 159.42618 
L 322.922937 156.7185 
L 323.125295 157.682765 
L 323.327652 163.392805 
L 323.732366 191.30131 
L 324.541795 255.041412 
L 324.744152 264.172002 
L 324.94651 267.710813 
L 325.148867 268.499428 
L 325.351224 266.390027 
L 325.755938 253.452936 
L 326.160653 229.441721 
L 327.172439 138.820294 
L 327.374796 130.235176 
L 327.577153 127.297656 
L 327.77951 129.339283 
L 327.981868 132.68861 
L 328.386582 153.033515 
L 328.993654 213.609464 
L 329.398368 249.515444 
L 329.600725 260.861012 
L 329.803083 265.015198 
L 330.00544 264.840376 
L 330.207797 259.311643 
L 330.612511 231.283481 
L 331.017226 193.967807 
L 331.826655 144.98021 
L 332.029012 137.973188 
L 332.231369 135.793872 
L 332.433726 136.472985 
L 332.838441 150.507655 
L 333.243155 177.014684 
L 334.457298 261.302186 
L 334.659655 265.078776 
L 334.862013 265.181268 
L 335.06437 259.399464 
L 336.683228 180.992231 
L 337.087942 177.025561 
L 337.290299 176.49506 
L 337.695014 186.588175 
L 338.099728 203.998374 
L 338.7068 241.636794 
L 339.111514 266.956319 
L 339.313871 274.144917 
L 339.516228 275.922909 
L 339.718586 274.179147 
L 340.1233 257.47575 
L 341.135086 201.529309 
L 341.944515 168.111922 
L 342.349229 155.918325 
L 342.551587 154.616628 
L 342.753944 156.504103 
L 343.158658 176.439742 
L 343.361015 190.136796 
L 343.968087 249.384947 
L 344.170444 257.055908 
L 344.372801 258.046646 
L 344.575159 256.187887 
L 344.979873 237.86725 
L 345.789302 171.987515 
L 346.396374 116.606996 
L 346.801088 100.332886 
L 347.003445 98.481891 
L 347.40816 106.952783 
L 347.812874 124.909492 
L 348.419946 182.787274 
L 348.82466 228.603667 
L 349.027017 242.683591 
L 349.229374 247.986515 
L 349.431732 248.748708 
L 349.634089 241.886213 
L 350.645875 169.516037 
L 351.455304 105.94797 
L 351.860018 96.908787 
L 352.062375 98.791744 
L 352.264733 103.686596 
L 352.669447 123.53335 
L 353.88359 246.160836 
L 354.085947 251.651735 
L 354.288305 252.805339 
L 354.490662 249.626609 
L 354.895376 233.270015 
L 355.300091 205.636552 
L 355.907162 139.106528 
L 356.311877 106.016892 
L 356.514234 99.797762 
L 356.716591 98.028862 
L 356.918948 99.399404 
L 357.121306 103.205707 
L 357.52602 125.22451 
L 358.740163 245.439243 
L 358.94252 252.741028 
L 359.144878 254.753249 
L 359.347235 250.72807 
L 359.751949 228.266063 
L 360.359021 181.504063 
L 361.16845 93.900166 
L 361.370807 86.687571 
L 361.573164 85.519822 
L 361.775521 88.184705 
L 361.977879 93.097198 
L 362.382593 111.602942 
L 362.787307 142.309143 
L 363.596736 234.424657 
L 363.799093 242.60112 
L 364.001451 245.253088 
L 364.203808 237.6044 
L 365.013237 166.402067 
L 365.822665 75.7421 
L 366.025023 68.863554 
L 366.22738 68.018473 
L 366.429737 70.477155 
L 367.239166 105.700298 
L 367.64388 133.878498 
L 368.048595 182.882269 
L 368.453309 227.195047 
L 368.655666 234.710511 
L 368.858024 236.68919 
L 369.060381 229.850014 
L 369.86981 175.471104 
L 370.881596 76.130576 
L 371.083953 74.179363 
L 371.28631 76.378044 
L 371.893382 104.700931 
L 372.500453 146.577791 
L 373.309882 226.532116 
L 373.512239 233.310088 
L 373.714597 235.64068 
L 373.916954 230.282979 
L 374.726383 192.43083 
L 375.131097 151.123799 
L 375.535811 101.700756 
L 375.738169 89.684811 
L 375.940526 85.114262 
L 376.142883 86.274258 
L 376.34524 91.767909 
L 376.749955 110.318598 
L 377.154669 149.591807 
L 377.559383 189.929877 
L 378.166455 225.225982 
L 378.368812 231.823021 
L 378.57117 232.199885 
L 378.773527 225.674073 
L 379.178241 199.004451 
L 379.98767 133.165635 
L 380.392384 97.923506 
L 380.594742 87.381454 
L 380.797099 84.362094 
L 380.999456 86.355239 
L 381.201813 90.211388 
L 381.606528 103.247524 
L 382.011242 123.811549 
L 382.213599 137.339589 
L 382.820671 211.164999 
L 383.023028 224.683176 
L 383.225385 229.442599 
L 383.427743 229.746951 
L 383.832457 210.205839 
L 384.237171 188.137025 
L 384.237171 188.137025 
" clip-path="url(#p4faded4f09)" style="fill: none; stroke: #ff7f0e; stroke-width: 1.5; stroke-linecap: square"/>
   </g>
   <g id="line2d_15">
    <path d="M 384.439529 175.463607 
L 385.0466 138.373699 
L 385.653672 101.755453 
L 385.856029 93.173117 
L 386.058386 91.009833 
L 386.260743 93.83068 
L 386.665458 109.266803 
L 387.474887 144.520043 
L 388.284316 201.591256 
L 388.486673 207.282457 
L 388.68903 208.455608 
L 388.891387 207.975281 
L 389.093744 205.896373 
L 389.296102 202.565244 
L 390.510245 153.506593 
L 391.522031 99.023461 
L 391.724388 94.85801 
L 391.926745 95.254984 
L 392.533817 110.548187 
L 393.140888 132.885001 
L 393.545603 162.800306 
L 394.152675 206.714711 
L 394.557389 218.063854 
L 394.759746 218.351006 
L 394.962103 214.510458 
L 395.771532 186.513015 
L 396.176247 165.021881 
L 397.39039 89.344995 
L 397.592747 87.920398 
L 397.795104 90.755394 
L 398.402176 110.069643 
L 399.009248 136.14974 
L 400.021034 209.846619 
L 400.223391 215.689114 
L 400.425748 218.299563 
L 400.628105 216.096607 
L 401.03282 203.447264 
L 401.842248 172.340422 
L 402.651677 118.996364 
L 403.056392 96.229411 
L 403.258749 91.125647 
L 403.461106 91.02179 
L 403.663463 94.368778 
L 404.270535 113.261218 
L 404.877607 139.188342 
L 405.687035 202.702992 
L 406.09175 215.559479 
L 406.294107 217.653242 
L 406.496464 215.195436 
L 407.103536 195.373481 
L 407.50825 181.297445 
L 408.115322 144.905841 
L 408.924751 94.28294 
L 409.127108 89.870226 
L 409.329465 90.579642 
L 409.531822 94.341097 
L 410.138894 113.963726 
L 410.745966 141.428429 
L 411.555394 204.82383 
L 411.960109 217.086519 
L 412.162466 218.087685 
L 412.364823 214.928624 
L 413.174252 187.141568 
L 413.578966 168.273692 
L 414.79311 92.769979 
L 414.995467 89.570753 
L 415.197824 91.167438 
L 415.602539 101.999639 
L 416.20961 124.362834 
L 416.614325 145.175082 
L 417.423753 206.356056 
L 417.828468 217.219854 
L 418.030825 217.052742 
L 418.233182 213.101132 
L 419.244968 177.145601 
L 420.054397 124.391662 
L 420.459112 99.100854 
L 420.661469 92.173276 
L 420.863826 89.902829 
L 421.066183 92.097254 
L 421.673255 109.892559 
L 422.280326 134.685696 
L 422.887398 182.534558 
L 423.292112 207.800818 
L 423.696827 217.759731 
L 423.899184 216.595862 
L 424.303898 205.264274 
L 425.113327 174.991413 
L 425.922756 121.441538 
L 426.327471 97.193804 
L 426.529828 91.243844 
L 426.732185 90.07589 
L 426.934542 92.895674 
L 427.541614 111.283631 
L 428.148685 136.569666 
L 429.160471 209.476979 
L 429.565186 218.108286 
L 429.767543 216.125342 
L 430.172257 203.982127 
L 430.981686 172.916665 
L 431.791115 118.743181 
L 432.19583 95.590045 
L 432.398187 90.429367 
L 432.600544 90.329996 
L 432.802901 93.683084 
L 433.409973 112.723031 
L 434.017044 138.946616 
L 434.826473 203.082319 
L 435.231188 216.125861 
L 435.433545 218.145852 
L 435.635902 215.546403 
L 436.242974 195.295734 
L 436.647688 181.096177 
L 437.25476 144.523497 
L 438.064189 94.078609 
L 438.266546 89.835304 
L 438.468903 90.669748 
L 438.67126 94.538776 
L 439.480689 122.628485 
L 439.885403 141.952148 
L 440.694832 204.873175 
L 441.099547 216.866914 
L 441.301904 217.717408 
L 441.504261 214.518679 
L 442.31369 186.912715 
L 442.718404 168.064229 
L 443.932548 92.890688 
L 444.134905 89.716696 
L 444.337262 91.311113 
L 444.741976 102.084683 
L 445.349048 124.383633 
L 445.753762 145.22068 
L 446.563191 206.436944 
L 446.967906 217.33604 
L 447.170263 217.154882 
L 447.37262 213.179941 
L 448.384406 177.122331 
L 449.193835 124.148949 
L 449.598549 98.89191 
L 449.800907 92.01321 
L 450.003264 89.809301 
L 450.205621 92.055194 
L 450.812693 109.95028 
L 451.419764 134.808661 
L 452.633908 214.180075 
L 452.836265 217.769167 
L 453.038622 216.528215 
L 453.443336 205.128088 
L 454.252765 174.815135 
L 455.062194 121.289046 
L 455.466908 97.137569 
L 455.669266 91.231797 
L 455.871623 90.140249 
L 456.07398 92.990547 
L 456.681052 111.397202 
L 457.288123 136.712065 
L 458.299909 209.559512 
L 458.704624 218.105937 
L 458.906981 216.0926 
L 459.311695 203.913133 
L 460.121124 172.8074 
L 460.930553 118.591747 
L 461.335267 95.491455 
L 461.537625 90.376054 
L 461.739982 90.333353 
L 461.942339 93.718763 
L 462.549411 112.804679 
L 463.156482 139.110142 
L 463.965911 203.211043 
L 464.370626 216.196481 
L 464.572983 218.147507 
L 464.77534 215.512921 
L 465.382412 195.200969 
L 465.787126 180.982408 
L 466.394198 144.345047 
L 467.203626 93.982826 
L 467.405984 89.807059 
L 467.608341 90.700056 
L 467.810698 94.605455 
L 468.620127 122.750463 
L 469.024841 142.167654 
L 469.83427 204.987122 
L 470.238985 216.897534 
L 470.441342 217.668914 
L 470.643699 214.423148 
L 471.453128 186.799538 
L 471.857842 167.894003 
L 473.071985 92.840016 
L 473.274343 89.723566 
L 473.4767 91.360516 
L 473.881414 102.172059 
L 474.488486 124.497474 
L 474.8932 145.449347 
L 475.702629 206.538299 
L 476.107344 217.373002 
L 476.309701 217.125387 
L 476.512058 213.099586 
L 477.523844 176.969128 
L 478.333273 123.908268 
L 478.737987 98.753323 
L 478.940345 91.946147 
L 479.142702 89.817849 
L 479.345059 92.113428 
L 479.952131 110.054803 
L 480.559202 134.941416 
L 481.773345 214.247663 
L 481.975703 217.7959 
L 482.17806 216.484587 
L 482.582774 205.024486 
L 483.392203 174.662048 
L 484.201632 121.096103 
L 484.606346 97.022794 
L 484.808704 91.172564 
L 485.011061 90.164137 
L 485.213418 93.051472 
L 485.82049 111.494254 
L 486.427561 136.867812 
L 487.439347 209.671431 
L 487.844062 218.117854 
L 488.046419 216.059403 
L 488.451133 203.828373 
L 489.260562 172.65198 
L 490.069991 118.407517 
L 490.474705 95.378781 
L 490.677063 90.324126 
L 490.87942 90.350372 
L 491.081777 93.771755 
L 491.688849 112.914181 
L 492.29592 139.316331 
L 493.105349 203.332469 
L 493.510063 216.259927 
L 493.712421 218.127072 
L 493.914778 215.454904 
L 494.724207 188.251401 
L 495.128921 170.28788 
L 496.545422 89.786964 
L 496.747779 90.74295 
L 496.950136 94.683066 
L 497.759565 122.885898 
L 498.164279 142.408483 
L 498.973708 205.116915 
L 499.378422 216.936032 
L 499.58078 217.61759 
L 499.783137 214.316097 
L 500.592566 186.665443 
L 500.99728 167.698054 
L 502.211423 92.77704 
L 502.413781 89.72964 
L 502.616138 91.416648 
L 503.020852 102.273904 
L 503.627924 124.632139 
L 504.032638 145.720908 
L 504.842067 206.657485 
L 505.246782 217.412423 
L 505.449139 217.087781 
L 505.651496 213.003392 
L 506.663282 176.792716 
L 507.472711 123.629864 
L 507.877425 98.595731 
L 508.079782 91.870971 
L 508.28214 89.831177 
L 508.484497 92.182965 
L 509.091568 110.170604 
L 509.69864 135.092697 
L 510.912783 214.332743 
L 511.115141 217.825422 
L 511.317498 216.43767 
L 511.722212 204.913222 
L 512.531641 174.487558 
L 513.34107 120.871825 
L 513.745784 96.889487 
L 513.948141 91.10272 
L 514.150499 90.190473 
L 514.352856 93.119394 
L 514.959927 111.607889 
L 515.566999 137.047139 
L 516.578785 209.799261 
L 516.9835 218.129285 
L 517.185857 216.016405 
L 517.590571 203.728263 
L 518.4 172.470586 
L 518.4 172.470586 
" clip-path="url(#p4faded4f09)" style="fill: none; stroke: #2ca02c; stroke-width: 1.5; stroke-linecap: square"/>
   </g>
   <g id="patch_3">
    <path d="M 72 320.4 
L 72 43.2 
" style="fill: none; stroke: #000000; stroke-width: 0.8; stroke-linejoin: miter; stroke-linecap: square"/>
   </g>
   <g id="patch_4">
    <path d="M 518.4 320.4 
L 518.4 43.2 
" style="fill: none; stroke: #000000; stroke-width: 0.8; stroke-linejoin: miter; stroke-linecap: square"/>
   </g>
   <g id="patch_5">
    <path d="M 72 320.4 
L 518.4 320.4 
" style="fill: none; stroke: #000000; stroke-width: 0.8; stroke-linejoin: miter; stroke-linecap: square"/>
   </g>
   <g id="patch_6">
    <path d="M 72 43.2 
L 518.4 43.2 
" style="fill: none; stroke: #000000; stroke-width: 0.8; stroke-linejoin: miter; stroke-linecap: square"/>
   </g>
   <g id="text_13">
    <!-- Classic Transformer - model_20231126183343 -->
    <g transform="translate(155.436563 37.2) scale(0.12 -0.12)">
     <defs>
      <path id="DejaVuSans-43" d="M 4122 4306 
L 4122 3641 
Q 3803 3938 3442 4084 
Q 3081 4231 2675 4231 
Q 1875 4231 1450 3742 
Q 1025 3253 1025 2328 
Q 1025 1406 1450 917 
Q 1875 428 2675 428 
Q 3081 428 3442 575 
Q 3803 722 4122 1019 
L 4122 359 
Q 3791 134 3420 21 
Q 3050 -91 2638 -91 
Q 1578 -91 968 557 
Q 359 1206 359 2328 
Q 359 3453 968 4101 
Q 1578 4750 2638 4750 
Q 3056 4750 3426 4639 
Q 3797 4528 4122 4306 
z
" transform="scale(0.015625)"/>
      <path id="DejaVuSans-6c" d="M 603 4863 
L 1178 4863 
L 1178 0 
L 603 0 
L 603 4863 
z
" transform="scale(0.015625)"/>
      <path id="DejaVuSans-61" d="M 2194 1759 
Q 1497 1759 1228 1600 
Q 959 1441 959 1056 
Q 959 750 1161 570 
Q 1363 391 1709 391 
Q 2188 391 2477 730 
Q 2766 1069 2766 1631 
L 2766 1759 
L 2194 1759 
z
M 3341 1997 
L 3341 0 
L 2766 0 
L 2766 531 
Q 2569 213 2275 61 
Q 1981 -91 1556 -91 
Q 1019 -91 701 211 
Q 384 513 384 1019 
Q 384 1609 779 1909 
Q 1175 2209 1959 2209 
L 2766 2209 
L 2766 2266 
Q 2766 2663 2505 2880 
Q 2244 3097 1772 3097 
Q 1472 3097 1187 3025 
Q 903 2953 641 2809 
L 641 3341 
Q 956 3463 1253 3523 
Q 1550 3584 1831 3584 
Q 2591 3584 2966 3190 
Q 3341 2797 3341 1997 
z
" transform="scale(0.015625)"/>
      <path id="DejaVuSans-73" d="M 2834 3397 
L 2834 2853 
Q 2591 2978 2328 3040 
Q 2066 3103 1784 3103 
Q 1356 3103 1142 2972 
Q 928 2841 928 2578 
Q 928 2378 1081 2264 
Q 1234 2150 1697 2047 
L 1894 2003 
Q 2506 1872 2764 1633 
Q 3022 1394 3022 966 
Q 3022 478 2636 193 
Q 2250 -91 1575 -91 
Q 1294 -91 989 -36 
Q 684 19 347 128 
L 347 722 
Q 666 556 975 473 
Q 1284 391 1588 391 
Q 1994 391 2212 530 
Q 2431 669 2431 922 
Q 2431 1156 2273 1281 
Q 2116 1406 1581 1522 
L 1381 1569 
Q 847 1681 609 1914 
Q 372 2147 372 2553 
Q 372 3047 722 3315 
Q 1072 3584 1716 3584 
Q 2034 3584 2315 3537 
Q 2597 3491 2834 3397 
z
" transform="scale(0.015625)"/>
      <path id="DejaVuSans-69" d="M 603 3500 
L 1178 3500 
L 1178 0 
L 603 0 
L 603 3500 
z
M 603 4863 
L 1178 4863 
L 1178 4134 
L 603 4134 
L 603 4863 
z
" transform="scale(0.015625)"/>
      <path id="DejaVuSans-63" d="M 3122 3366 
L 3122 2828 
Q 2878 2963 2633 3030 
Q 2388 3097 2138 3097 
Q 1578 3097 1268 2742 
Q 959 2388 959 1747 
Q 959 1106 1268 751 
Q 1578 397 2138 397 
Q 2388 397 2633 464 
Q 2878 531 3122 666 
L 3122 134 
Q 2881 22 2623 -34 
Q 2366 -91 2075 -91 
Q 1284 -91 818 406 
Q 353 903 353 1747 
Q 353 2603 823 3093 
Q 1294 3584 2113 3584 
Q 2378 3584 2631 3529 
Q 2884 3475 3122 3366 
z
" transform="scale(0.015625)"/>
      <path id="DejaVuSans-20" transform="scale(0.015625)"/>
      <path id="DejaVuSans-54" d="M -19 4666 
L 3928 4666 
L 3928 4134 
L 2272 4134 
L 2272 0 
L 1638 0 
L 1638 4134 
L -19 4134 
L -19 4666 
z
" transform="scale(0.015625)"/>
      <path id="DejaVuSans-72" d="M 2631 2963 
Q 2534 3019 2420 3045 
Q 2306 3072 2169 3072 
Q 1681 3072 1420 2755 
Q 1159 2438 1159 1844 
L 1159 0 
L 581 0 
L 581 3500 
L 1159 3500 
L 1159 2956 
Q 1341 3275 1631 3429 
Q 1922 3584 2338 3584 
Q 2397 3584 2469 3576 
Q 2541 3569 2628 3553 
L 2631 2963 
z
" transform="scale(0.015625)"/>
      <path id="DejaVuSans-6e" d="M 3513 2113 
L 3513 0 
L 2938 0 
L 2938 2094 
Q 2938 2591 2744 2837 
Q 2550 3084 2163 3084 
Q 1697 3084 1428 2787 
Q 1159 2491 1159 1978 
L 1159 0 
L 581 0 
L 581 3500 
L 1159 3500 
L 1159 2956 
Q 1366 3272 1645 3428 
Q 1925 3584 2291 3584 
Q 2894 3584 3203 3211 
Q 3513 2838 3513 2113 
z
" transform="scale(0.015625)"/>
      <path id="DejaVuSans-66" d="M 2375 4863 
L 2375 4384 
L 1825 4384 
Q 1516 4384 1395 4259 
Q 1275 4134 1275 3809 
L 1275 3500 
L 2222 3500 
L 2222 3053 
L 1275 3053 
L 1275 0 
L 697 0 
L 697 3053 
L 147 3053 
L 147 3500 
L 697 3500 
L 697 3744 
Q 697 4328 969 4595 
Q 1241 4863 1831 4863 
L 2375 4863 
z
" transform="scale(0.015625)"/>
      <path id="DejaVuSans-6f" d="M 1959 3097 
Q 1497 3097 1228 2736 
Q 959 2375 959 1747 
Q 959 1119 1226 758 
Q 1494 397 1959 397 
Q 2419 397 2687 759 
Q 2956 1122 2956 1747 
Q 2956 2369 2687 2733 
Q 2419 3097 1959 3097 
z
M 1959 3584 
Q 2709 3584 3137 3096 
Q 3566 2609 3566 1747 
Q 3566 888 3137 398 
Q 2709 -91 1959 -91 
Q 1206 -91 779 398 
Q 353 888 353 1747 
Q 353 2609 779 3096 
Q 1206 3584 1959 3584 
z
" transform="scale(0.015625)"/>
      <path id="DejaVuSans-6d" d="M 3328 2828 
Q 3544 3216 3844 3400 
Q 4144 3584 4550 3584 
Q 5097 3584 5394 3201 
Q 5691 2819 5691 2113 
L 5691 0 
L 5113 0 
L 5113 2094 
Q 5113 2597 4934 2840 
Q 4756 3084 4391 3084 
Q 3944 3084 3684 2787 
Q 3425 2491 3425 1978 
L 3425 0 
L 2847 0 
L 2847 2094 
Q 2847 2600 2669 2842 
Q 2491 3084 2119 3084 
Q 1678 3084 1418 2786 
Q 1159 2488 1159 1978 
L 1159 0 
L 581 0 
L 581 3500 
L 1159 3500 
L 1159 2956 
Q 1356 3278 1631 3431 
Q 1906 3584 2284 3584 
Q 2666 3584 2933 3390 
Q 3200 3197 3328 2828 
z
" transform="scale(0.015625)"/>
      <path id="DejaVuSans-65" d="M 3597 1894 
L 3597 1613 
L 953 1613 
Q 991 1019 1311 708 
Q 1631 397 2203 397 
Q 2534 397 2845 478 
Q 3156 559 3463 722 
L 3463 178 
Q 3153 47 2828 -22 
Q 2503 -91 2169 -91 
Q 1331 -91 842 396 
Q 353 884 353 1716 
Q 353 2575 817 3079 
Q 1281 3584 2069 3584 
Q 2775 3584 3186 3129 
Q 3597 2675 3597 1894 
z
M 3022 2063 
Q 3016 2534 2758 2815 
Q 2500 3097 2075 3097 
Q 1594 3097 1305 2825 
Q 1016 2553 972 2059 
L 3022 2063 
z
" transform="scale(0.015625)"/>
      <path id="DejaVuSans-64" d="M 2906 2969 
L 2906 4863 
L 3481 4863 
L 3481 0 
L 2906 0 
L 2906 525 
Q 2725 213 2448 61 
Q 2172 -91 1784 -91 
Q 1150 -91 751 415 
Q 353 922 353 1747 
Q 353 2572 751 3078 
Q 1150 3584 1784 3584 
Q 2172 3584 2448 3432 
Q 2725 3281 2906 2969 
z
M 947 1747 
Q 947 1113 1208 752 
Q 1469 391 1925 391 
Q 2381 391 2643 752 
Q 2906 1113 2906 1747 
Q 2906 2381 2643 2742 
Q 2381 3103 1925 3103 
Q 1469 3103 1208 2742 
Q 947 2381 947 1747 
z
" transform="scale(0.015625)"/>
      <path id="DejaVuSans-5f" d="M 3263 -1063 
L 3263 -1509 
L -63 -1509 
L -63 -1063 
L 3263 -1063 
z
" transform="scale(0.015625)"/>
      <path id="DejaVuSans-34" d="M 2419 4116 
L 825 1625 
L 2419 1625 
L 2419 4116 
z
M 2253 4666 
L 3047 4666 
L 3047 1625 
L 3713 1625 
L 3713 1100 
L 3047 1100 
L 3047 0 
L 2419 0 
L 2419 1100 
L 313 1100 
L 313 1709 
L 2253 4666 
z
" transform="scale(0.015625)"/>
     </defs>
     <use xlink:href="#DejaVuSans-43"/>
     <use xlink:href="#DejaVuSans-6c" x="69.824219"/>
     <use xlink:href="#DejaVuSans-61" x="97.607422"/>
     <use xlink:href="#DejaVuSans-73" x="158.886719"/>
     <use xlink:href="#DejaVuSans-73" x="210.986328"/>
     <use xlink:href="#DejaVuSans-69" x="263.085938"/>
     <use xlink:href="#DejaVuSans-63" x="290.869141"/>
     <use xlink:href="#DejaVuSans-20" x="345.849609"/>
     <use xlink:href="#DejaVuSans-54" x="377.636719"/>
     <use xlink:href="#DejaVuSans-72" x="423.970703"/>
     <use xlink:href="#DejaVuSans-61" x="465.083984"/>
     <use xlink:href="#DejaVuSans-6e" x="526.363281"/>
     <use xlink:href="#DejaVuSans-73" x="589.742188"/>
     <use xlink:href="#DejaVuSans-66" x="641.841797"/>
     <use xlink:href="#DejaVuSans-6f" x="677.046875"/>
     <use xlink:href="#DejaVuSans-72" x="738.228516"/>
     <use xlink:href="#DejaVuSans-6d" x="777.591797"/>
     <use xlink:href="#DejaVuSans-65" x="875.003906"/>
     <use xlink:href="#DejaVuSans-72" x="936.527344"/>
     <use xlink:href="#DejaVuSans-20" x="977.640625"/>
     <use xlink:href="#DejaVuSans-2d" x="1009.427734"/>
     <use xlink:href="#DejaVuSans-20" x="1045.511719"/>
     <use xlink:href="#DejaVuSans-6d" x="1077.298828"/>
     <use xlink:href="#DejaVuSans-6f" x="1174.710938"/>
     <use xlink:href="#DejaVuSans-64" x="1235.892578"/>
     <use xlink:href="#DejaVuSans-65" x="1299.369141"/>
     <use xlink:href="#DejaVuSans-6c" x="1360.892578"/>
     <use xlink:href="#DejaVuSans-5f" x="1388.675781"/>
     <use xlink:href="#DejaVuSans-32" x="1438.675781"/>
     <use xlink:href="#DejaVuSans-30" x="1502.298828"/>
     <use xlink:href="#DejaVuSans-32" x="1565.921875"/>
     <use xlink:href="#DejaVuSans-33" x="1629.544922"/>
     <use xlink:href="#DejaVuSans-31" x="1693.167969"/>
     <use xlink:href="#DejaVuSans-31" x="1756.791016"/>
     <use xlink:href="#DejaVuSans-32" x="1820.414062"/>
     <use xlink:href="#DejaVuSans-36" x="1884.037109"/>
     <use xlink:href="#DejaVuSans-31" x="1947.660156"/>
     <use xlink:href="#DejaVuSans-38" x="2011.283203"/>
     <use xlink:href="#DejaVuSans-33" x="2074.90625"/>
     <use xlink:href="#DejaVuSans-33" x="2138.529297"/>
     <use xlink:href="#DejaVuSans-34" x="2202.152344"/>
     <use xlink:href="#DejaVuSans-33" x="2265.775391"/>
    </g>
   </g>
   <g id="legend_1">
    <g id="patch_7">
     <path d="M 79 95.234375 
L 161.517188 95.234375 
Q 163.517188 95.234375 163.517188 93.234375 
L 163.517188 50.2 
Q 163.517188 48.2 161.517188 48.2 
L 79 48.2 
Q 77 48.2 77 50.2 
L 77 93.234375 
Q 77 95.234375 79 95.234375 
z
" style="fill: #ffffff; opacity: 0.8; stroke: #cccccc; stroke-linejoin: miter"/>
    </g>
    <g id="line2d_16">
     <path d="M 81 56.298437 
L 91 56.298437 
L 101 56.298437 
" style="fill: none; stroke: #1f77b4; stroke-width: 1.5; stroke-linecap: square"/>
    </g>
    <g id="text_14">
     <!-- Measured -->
     <g transform="translate(109 59.798437) scale(0.1 -0.1)">
      <defs>
       <path id="DejaVuSans-4d" d="M 628 4666 
L 1569 4666 
L 2759 1491 
L 3956 4666 
L 4897 4666 
L 4897 0 
L 4281 0 
L 4281 4097 
L 3078 897 
L 2444 897 
L 1241 4097 
L 1241 0 
L 628 0 
L 628 4666 
z
" transform="scale(0.015625)"/>
       <path id="DejaVuSans-75" d="M 544 1381 
L 544 3500 
L 1119 3500 
L 1119 1403 
Q 1119 906 1312 657 
Q 1506 409 1894 409 
Q 2359 409 2629 706 
Q 2900 1003 2900 1516 
L 2900 3500 
L 3475 3500 
L 3475 0 
L 2900 0 
L 2900 538 
Q 2691 219 2414 64 
Q 2138 -91 1772 -91 
Q 1169 -91 856 284 
Q 544 659 544 1381 
z
M 1991 3584 
L 1991 3584 
z
" transform="scale(0.015625)"/>
      </defs>
      <use xlink:href="#DejaVuSans-4d"/>
      <use xlink:href="#DejaVuSans-65" x="86.279297"/>
      <use xlink:href="#DejaVuSans-61" x="147.802734"/>
      <use xlink:href="#DejaVuSans-73" x="209.082031"/>
      <use xlink:href="#DejaVuSans-75" x="261.181641"/>
      <use xlink:href="#DejaVuSans-72" x="324.560547"/>
      <use xlink:href="#DejaVuSans-65" x="363.423828"/>
      <use xlink:href="#DejaVuSans-64" x="424.947266"/>
     </g>
    </g>
    <g id="line2d_17">
     <path d="M 81 70.976562 
L 91 70.976562 
L 101 70.976562 
" style="fill: none; stroke: #ff7f0e; stroke-width: 1.5; stroke-linecap: square"/>
    </g>
    <g id="text_15">
     <!-- Fitted -->
     <g transform="translate(109 74.476562) scale(0.1 -0.1)">
      <defs>
       <path id="DejaVuSans-46" d="M 628 4666 
L 3309 4666 
L 3309 4134 
L 1259 4134 
L 1259 2759 
L 3109 2759 
L 3109 2228 
L 1259 2228 
L 1259 0 
L 628 0 
L 628 4666 
z
" transform="scale(0.015625)"/>
       <path id="DejaVuSans-74" d="M 1172 4494 
L 1172 3500 
L 2356 3500 
L 2356 3053 
L 1172 3053 
L 1172 1153 
Q 1172 725 1289 603 
Q 1406 481 1766 481 
L 2356 481 
L 2356 0 
L 1766 0 
Q 1100 0 847 248 
Q 594 497 594 1153 
L 594 3053 
L 172 3053 
L 172 3500 
L 594 3500 
L 594 4494 
L 1172 4494 
z
" transform="scale(0.015625)"/>
      </defs>
      <use xlink:href="#DejaVuSans-46"/>
      <use xlink:href="#DejaVuSans-69" x="50.269531"/>
      <use xlink:href="#DejaVuSans-74" x="78.052734"/>
      <use xlink:href="#DejaVuSans-74" x="117.261719"/>
      <use xlink:href="#DejaVuSans-65" x="156.470703"/>
      <use xlink:href="#DejaVuSans-64" x="217.994141"/>
     </g>
    </g>
    <g id="line2d_18">
     <path d="M 81 85.654687 
L 91 85.654687 
L 101 85.654687 
" style="fill: none; stroke: #2ca02c; stroke-width: 1.5; stroke-linecap: square"/>
    </g>
    <g id="text_16">
     <!-- Estimated -->
     <g transform="translate(109 89.154687) scale(0.1 -0.1)">
      <defs>
       <path id="DejaVuSans-45" d="M 628 4666 
L 3578 4666 
L 3578 4134 
L 1259 4134 
L 1259 2753 
L 3481 2753 
L 3481 2222 
L 1259 2222 
L 1259 531 
L 3634 531 
L 3634 0 
L 628 0 
L 628 4666 
z
" transform="scale(0.015625)"/>
      </defs>
      <use xlink:href="#DejaVuSans-45"/>
      <use xlink:href="#DejaVuSans-73" x="63.183594"/>
      <use xlink:href="#DejaVuSans-74" x="115.283203"/>
      <use xlink:href="#DejaVuSans-69" x="154.492188"/>
      <use xlink:href="#DejaVuSans-6d" x="182.275391"/>
      <use xlink:href="#DejaVuSans-61" x="279.6875"/>
      <use xlink:href="#DejaVuSans-74" x="340.966797"/>
      <use xlink:href="#DejaVuSans-65" x="380.175781"/>
      <use xlink:href="#DejaVuSans-64" x="441.699219"/>
     </g>
    </g>
   </g>
  </g>
 </g>
 <defs>
  <clipPath id="p4faded4f09">
   <rect x="72" y="43.2" width="446.4" height="277.2"/>
  </clipPath>
 </defs>
</svg>
