<?xml version="1.0" encoding="utf-8" standalone="no"?>
<!DOCTYPE svg PUBLIC "-//W3C//DTD SVG 1.1//EN"
  "http://www.w3.org/Graphics/SVG/1.1/DTD/svg11.dtd">
<svg xmlns:xlink="http://www.w3.org/1999/xlink" width="576pt" height="360pt" viewBox="0 0 576 360" xmlns="http://www.w3.org/2000/svg" version="1.1">
 <metadata>
  <rdf:RDF xmlns:dc="http://purl.org/dc/elements/1.1/" xmlns:cc="http://creativecommons.org/ns#" xmlns:rdf="http://www.w3.org/1999/02/22-rdf-syntax-ns#">
   <cc:Work>
    <dc:type rdf:resource="http://purl.org/dc/dcmitype/StillImage"/>
    <dc:date>2023-11-23T16:26:29.008313</dc:date>
    <dc:format>image/svg+xml</dc:format>
    <dc:creator>
     <cc:Agent>
      <dc:title>Matplotlib v3.8.1, https://matplotlib.org/</dc:title>
     </cc:Agent>
    </dc:creator>
   </cc:Work>
  </rdf:RDF>
 </metadata>
 <defs>
  <style type="text/css">*{stroke-linejoin: round; stroke-linecap: butt}</style>
 </defs>
 <g id="figure_1">
  <g id="patch_1">
   <path d="M 0 360 
L 576 360 
L 576 0 
L 0 0 
z
" style="fill: #ffffff"/>
  </g>
  <g id="axes_1">
   <g id="patch_2">
    <path d="M 72 320.4 
L 518.4 320.4 
L 518.4 43.2 
L 72 43.2 
z
" style="fill: #ffffff"/>
   </g>
   <g id="matplotlib.axis_1">
    <g id="xtick_1">
     <g id="line2d_1">
      <defs>
       <path id="ma4b23e2796" d="M 0 0 
L 0 3.5 
" style="stroke: #000000; stroke-width: 0.8"/>
      </defs>
      <g>
       <use xlink:href="#ma4b23e2796" x="129.874161" y="320.4" style="stroke: #000000; stroke-width: 0.8"/>
      </g>
     </g>
     <g id="text_1">
      <!-- 2020-05-15 -->
      <g transform="translate(100.816349 334.998438) scale(0.1 -0.1)">
       <defs>
        <path id="DejaVuSans-32" d="M 1228 531 
L 3431 531 
L 3431 0 
L 469 0 
L 469 531 
Q 828 903 1448 1529 
Q 2069 2156 2228 2338 
Q 2531 2678 2651 2914 
Q 2772 3150 2772 3378 
Q 2772 3750 2511 3984 
Q 2250 4219 1831 4219 
Q 1534 4219 1204 4116 
Q 875 4013 500 3803 
L 500 4441 
Q 881 4594 1212 4672 
Q 1544 4750 1819 4750 
Q 2544 4750 2975 4387 
Q 3406 4025 3406 3419 
Q 3406 3131 3298 2873 
Q 3191 2616 2906 2266 
Q 2828 2175 2409 1742 
Q 1991 1309 1228 531 
z
" transform="scale(0.015625)"/>
        <path id="DejaVuSans-30" d="M 2034 4250 
Q 1547 4250 1301 3770 
Q 1056 3291 1056 2328 
Q 1056 1369 1301 889 
Q 1547 409 2034 409 
Q 2525 409 2770 889 
Q 3016 1369 3016 2328 
Q 3016 3291 2770 3770 
Q 2525 4250 2034 4250 
z
M 2034 4750 
Q 2819 4750 3233 4129 
Q 3647 3509 3647 2328 
Q 3647 1150 3233 529 
Q 2819 -91 2034 -91 
Q 1250 -91 836 529 
Q 422 1150 422 2328 
Q 422 3509 836 4129 
Q 1250 4750 2034 4750 
z
" transform="scale(0.015625)"/>
        <path id="DejaVuSans-2d" d="M 313 2009 
L 1997 2009 
L 1997 1497 
L 313 1497 
L 313 2009 
z
" transform="scale(0.015625)"/>
        <path id="DejaVuSans-35" d="M 691 4666 
L 3169 4666 
L 3169 4134 
L 1269 4134 
L 1269 2991 
Q 1406 3038 1543 3061 
Q 1681 3084 1819 3084 
Q 2600 3084 3056 2656 
Q 3513 2228 3513 1497 
Q 3513 744 3044 326 
Q 2575 -91 1722 -91 
Q 1428 -91 1123 -41 
Q 819 9 494 109 
L 494 744 
Q 775 591 1075 516 
Q 1375 441 1709 441 
Q 2250 441 2565 725 
Q 2881 1009 2881 1497 
Q 2881 1984 2565 2268 
Q 2250 2553 1709 2553 
Q 1456 2553 1204 2497 
Q 953 2441 691 2322 
L 691 4666 
z
" transform="scale(0.015625)"/>
        <path id="DejaVuSans-31" d="M 794 531 
L 1825 531 
L 1825 4091 
L 703 3866 
L 703 4441 
L 1819 4666 
L 2450 4666 
L 2450 531 
L 3481 531 
L 3481 0 
L 794 0 
L 794 531 
z
" transform="scale(0.015625)"/>
       </defs>
       <use xlink:href="#DejaVuSans-32"/>
       <use xlink:href="#DejaVuSans-30" x="63.623047"/>
       <use xlink:href="#DejaVuSans-32" x="127.246094"/>
       <use xlink:href="#DejaVuSans-30" x="190.869141"/>
       <use xlink:href="#DejaVuSans-2d" x="254.492188"/>
       <use xlink:href="#DejaVuSans-30" x="290.576172"/>
       <use xlink:href="#DejaVuSans-35" x="354.199219"/>
       <use xlink:href="#DejaVuSans-2d" x="417.822266"/>
       <use xlink:href="#DejaVuSans-31" x="453.90625"/>
       <use xlink:href="#DejaVuSans-35" x="517.529297"/>
      </g>
     </g>
    </g>
    <g id="xtick_2">
     <g id="line2d_2">
      <g>
       <use xlink:href="#ma4b23e2796" x="212.435902" y="320.4" style="stroke: #000000; stroke-width: 0.8"/>
      </g>
     </g>
     <g id="text_2">
      <!-- 2020-06-01 -->
      <g transform="translate(183.37809 334.998438) scale(0.1 -0.1)">
       <defs>
        <path id="DejaVuSans-36" d="M 2113 2584 
Q 1688 2584 1439 2293 
Q 1191 2003 1191 1497 
Q 1191 994 1439 701 
Q 1688 409 2113 409 
Q 2538 409 2786 701 
Q 3034 994 3034 1497 
Q 3034 2003 2786 2293 
Q 2538 2584 2113 2584 
z
M 3366 4563 
L 3366 3988 
Q 3128 4100 2886 4159 
Q 2644 4219 2406 4219 
Q 1781 4219 1451 3797 
Q 1122 3375 1075 2522 
Q 1259 2794 1537 2939 
Q 1816 3084 2150 3084 
Q 2853 3084 3261 2657 
Q 3669 2231 3669 1497 
Q 3669 778 3244 343 
Q 2819 -91 2113 -91 
Q 1303 -91 875 529 
Q 447 1150 447 2328 
Q 447 3434 972 4092 
Q 1497 4750 2381 4750 
Q 2619 4750 2861 4703 
Q 3103 4656 3366 4563 
z
" transform="scale(0.015625)"/>
       </defs>
       <use xlink:href="#DejaVuSans-32"/>
       <use xlink:href="#DejaVuSans-30" x="63.623047"/>
       <use xlink:href="#DejaVuSans-32" x="127.246094"/>
       <use xlink:href="#DejaVuSans-30" x="190.869141"/>
       <use xlink:href="#DejaVuSans-2d" x="254.492188"/>
       <use xlink:href="#DejaVuSans-30" x="290.576172"/>
       <use xlink:href="#DejaVuSans-36" x="354.199219"/>
       <use xlink:href="#DejaVuSans-2d" x="417.822266"/>
       <use xlink:href="#DejaVuSans-30" x="453.90625"/>
       <use xlink:href="#DejaVuSans-31" x="517.529297"/>
      </g>
     </g>
    </g>
    <g id="xtick_3">
     <g id="line2d_3">
      <g>
       <use xlink:href="#ma4b23e2796" x="280.427924" y="320.4" style="stroke: #000000; stroke-width: 0.8"/>
      </g>
     </g>
     <g id="text_3">
      <!-- 2020-06-15 -->
      <g transform="translate(251.370111 334.998438) scale(0.1 -0.1)">
       <use xlink:href="#DejaVuSans-32"/>
       <use xlink:href="#DejaVuSans-30" x="63.623047"/>
       <use xlink:href="#DejaVuSans-32" x="127.246094"/>
       <use xlink:href="#DejaVuSans-30" x="190.869141"/>
       <use xlink:href="#DejaVuSans-2d" x="254.492188"/>
       <use xlink:href="#DejaVuSans-30" x="290.576172"/>
       <use xlink:href="#DejaVuSans-36" x="354.199219"/>
       <use xlink:href="#DejaVuSans-2d" x="417.822266"/>
       <use xlink:href="#DejaVuSans-31" x="453.90625"/>
       <use xlink:href="#DejaVuSans-35" x="517.529297"/>
      </g>
     </g>
    </g>
    <g id="xtick_4">
     <g id="line2d_4">
      <g>
       <use xlink:href="#ma4b23e2796" x="358.133092" y="320.4" style="stroke: #000000; stroke-width: 0.8"/>
      </g>
     </g>
     <g id="text_4">
      <!-- 2020-07-01 -->
      <g transform="translate(329.075279 334.998438) scale(0.1 -0.1)">
       <defs>
        <path id="DejaVuSans-37" d="M 525 4666 
L 3525 4666 
L 3525 4397 
L 1831 0 
L 1172 0 
L 2766 4134 
L 525 4134 
L 525 4666 
z
" transform="scale(0.015625)"/>
       </defs>
       <use xlink:href="#DejaVuSans-32"/>
       <use xlink:href="#DejaVuSans-30" x="63.623047"/>
       <use xlink:href="#DejaVuSans-32" x="127.246094"/>
       <use xlink:href="#DejaVuSans-30" x="190.869141"/>
       <use xlink:href="#DejaVuSans-2d" x="254.492188"/>
       <use xlink:href="#DejaVuSans-30" x="290.576172"/>
       <use xlink:href="#DejaVuSans-37" x="354.199219"/>
       <use xlink:href="#DejaVuSans-2d" x="417.822266"/>
       <use xlink:href="#DejaVuSans-30" x="453.90625"/>
       <use xlink:href="#DejaVuSans-31" x="517.529297"/>
      </g>
     </g>
    </g>
    <g id="xtick_5">
     <g id="line2d_5">
      <g>
       <use xlink:href="#ma4b23e2796" x="426.125113" y="320.4" style="stroke: #000000; stroke-width: 0.8"/>
      </g>
     </g>
     <g id="text_5">
      <!-- 2020-07-15 -->
      <g transform="translate(397.067301 334.998438) scale(0.1 -0.1)">
       <use xlink:href="#DejaVuSans-32"/>
       <use xlink:href="#DejaVuSans-30" x="63.623047"/>
       <use xlink:href="#DejaVuSans-32" x="127.246094"/>
       <use xlink:href="#DejaVuSans-30" x="190.869141"/>
       <use xlink:href="#DejaVuSans-2d" x="254.492188"/>
       <use xlink:href="#DejaVuSans-30" x="290.576172"/>
       <use xlink:href="#DejaVuSans-37" x="354.199219"/>
       <use xlink:href="#DejaVuSans-2d" x="417.822266"/>
       <use xlink:href="#DejaVuSans-31" x="453.90625"/>
       <use xlink:href="#DejaVuSans-35" x="517.529297"/>
      </g>
     </g>
    </g>
    <g id="xtick_6">
     <g id="line2d_6">
      <g>
       <use xlink:href="#ma4b23e2796" x="508.686854" y="320.4" style="stroke: #000000; stroke-width: 0.8"/>
      </g>
     </g>
     <g id="text_6">
      <!-- 2020-08-01 -->
      <g transform="translate(479.629042 334.998438) scale(0.1 -0.1)">
       <defs>
        <path id="DejaVuSans-38" d="M 2034 2216 
Q 1584 2216 1326 1975 
Q 1069 1734 1069 1313 
Q 1069 891 1326 650 
Q 1584 409 2034 409 
Q 2484 409 2743 651 
Q 3003 894 3003 1313 
Q 3003 1734 2745 1975 
Q 2488 2216 2034 2216 
z
M 1403 2484 
Q 997 2584 770 2862 
Q 544 3141 544 3541 
Q 544 4100 942 4425 
Q 1341 4750 2034 4750 
Q 2731 4750 3128 4425 
Q 3525 4100 3525 3541 
Q 3525 3141 3298 2862 
Q 3072 2584 2669 2484 
Q 3125 2378 3379 2068 
Q 3634 1759 3634 1313 
Q 3634 634 3220 271 
Q 2806 -91 2034 -91 
Q 1263 -91 848 271 
Q 434 634 434 1313 
Q 434 1759 690 2068 
Q 947 2378 1403 2484 
z
M 1172 3481 
Q 1172 3119 1398 2916 
Q 1625 2713 2034 2713 
Q 2441 2713 2670 2916 
Q 2900 3119 2900 3481 
Q 2900 3844 2670 4047 
Q 2441 4250 2034 4250 
Q 1625 4250 1398 4047 
Q 1172 3844 1172 3481 
z
" transform="scale(0.015625)"/>
       </defs>
       <use xlink:href="#DejaVuSans-32"/>
       <use xlink:href="#DejaVuSans-30" x="63.623047"/>
       <use xlink:href="#DejaVuSans-32" x="127.246094"/>
       <use xlink:href="#DejaVuSans-30" x="190.869141"/>
       <use xlink:href="#DejaVuSans-2d" x="254.492188"/>
       <use xlink:href="#DejaVuSans-30" x="290.576172"/>
       <use xlink:href="#DejaVuSans-38" x="354.199219"/>
       <use xlink:href="#DejaVuSans-2d" x="417.822266"/>
       <use xlink:href="#DejaVuSans-30" x="453.90625"/>
       <use xlink:href="#DejaVuSans-31" x="517.529297"/>
      </g>
     </g>
    </g>
   </g>
   <g id="matplotlib.axis_2">
    <g id="ytick_1">
     <g id="line2d_7">
      <defs>
       <path id="mbfed49c7b5" d="M 0 0 
L -3.5 0 
" style="stroke: #000000; stroke-width: 0.8"/>
      </defs>
      <g>
       <use xlink:href="#mbfed49c7b5" x="72" y="313.712497" style="stroke: #000000; stroke-width: 0.8"/>
      </g>
     </g>
     <g id="text_7">
      <!-- −2 -->
      <g transform="translate(50.257812 317.511716) scale(0.1 -0.1)">
       <defs>
        <path id="DejaVuSans-2212" d="M 678 2272 
L 4684 2272 
L 4684 1741 
L 678 1741 
L 678 2272 
z
" transform="scale(0.015625)"/>
       </defs>
       <use xlink:href="#DejaVuSans-2212"/>
       <use xlink:href="#DejaVuSans-32" x="83.789062"/>
      </g>
     </g>
    </g>
    <g id="ytick_2">
     <g id="line2d_8">
      <g>
       <use xlink:href="#mbfed49c7b5" x="72" y="260.97757" style="stroke: #000000; stroke-width: 0.8"/>
      </g>
     </g>
     <g id="text_8">
      <!-- −1 -->
      <g transform="translate(50.257812 264.776789) scale(0.1 -0.1)">
       <use xlink:href="#DejaVuSans-2212"/>
       <use xlink:href="#DejaVuSans-31" x="83.789062"/>
      </g>
     </g>
    </g>
    <g id="ytick_3">
     <g id="line2d_9">
      <g>
       <use xlink:href="#mbfed49c7b5" x="72" y="208.242644" style="stroke: #000000; stroke-width: 0.8"/>
      </g>
     </g>
     <g id="text_9">
      <!-- 0 -->
      <g transform="translate(58.6375 212.041862) scale(0.1 -0.1)">
       <use xlink:href="#DejaVuSans-30"/>
      </g>
     </g>
    </g>
    <g id="ytick_4">
     <g id="line2d_10">
      <g>
       <use xlink:href="#mbfed49c7b5" x="72" y="155.507717" style="stroke: #000000; stroke-width: 0.8"/>
      </g>
     </g>
     <g id="text_10">
      <!-- 1 -->
      <g transform="translate(58.6375 159.306936) scale(0.1 -0.1)">
       <use xlink:href="#DejaVuSans-31"/>
      </g>
     </g>
    </g>
    <g id="ytick_5">
     <g id="line2d_11">
      <g>
       <use xlink:href="#mbfed49c7b5" x="72" y="102.77279" style="stroke: #000000; stroke-width: 0.8"/>
      </g>
     </g>
     <g id="text_11">
      <!-- 2 -->
      <g transform="translate(58.6375 106.572009) scale(0.1 -0.1)">
       <use xlink:href="#DejaVuSans-32"/>
      </g>
     </g>
    </g>
    <g id="ytick_6">
     <g id="line2d_12">
      <g>
       <use xlink:href="#mbfed49c7b5" x="72" y="50.037863" style="stroke: #000000; stroke-width: 0.8"/>
      </g>
     </g>
     <g id="text_12">
      <!-- 3 -->
      <g transform="translate(58.6375 53.837082) scale(0.1 -0.1)">
       <defs>
        <path id="DejaVuSans-33" d="M 2597 2516 
Q 3050 2419 3304 2112 
Q 3559 1806 3559 1356 
Q 3559 666 3084 287 
Q 2609 -91 1734 -91 
Q 1441 -91 1130 -33 
Q 819 25 488 141 
L 488 750 
Q 750 597 1062 519 
Q 1375 441 1716 441 
Q 2309 441 2620 675 
Q 2931 909 2931 1356 
Q 2931 1769 2642 2001 
Q 2353 2234 1838 2234 
L 1294 2234 
L 1294 2753 
L 1863 2753 
Q 2328 2753 2575 2939 
Q 2822 3125 2822 3475 
Q 2822 3834 2567 4026 
Q 2313 4219 1838 4219 
Q 1578 4219 1281 4162 
Q 984 4106 628 3988 
L 628 4550 
Q 988 4650 1302 4700 
Q 1616 4750 1894 4750 
Q 2613 4750 3031 4423 
Q 3450 4097 3450 3541 
Q 3450 3153 3228 2886 
Q 3006 2619 2597 2516 
z
" transform="scale(0.015625)"/>
       </defs>
       <use xlink:href="#DejaVuSans-33"/>
      </g>
     </g>
    </g>
   </g>
   <g id="line2d_13">
    <path d="M 72 285.259719 
L 72.404714 296.435408 
L 72.607072 294.738359 
L 72.809429 284.224933 
L 73.214143 253.760832 
L 73.618858 241.508966 
L 75.035358 159.760869 
L 75.237715 156.842772 
L 75.440073 161.830441 
L 75.64243 169.922468 
L 75.844787 173.171696 
L 76.047144 188.196789 
L 76.654216 257.44467 
L 77.05893 281.161966 
L 77.261287 285.466676 
L 77.463645 285.094153 
L 77.666002 274.539336 
L 78.070716 246.455243 
L 78.475431 234.161985 
L 78.677788 225.159346 
L 79.487217 168.99116 
L 79.891931 152.951977 
L 80.094288 154.876679 
L 80.903717 196.682035 
L 81.713146 270.93828 
L 82.11786 285.383893 
L 82.320218 287.391378 
L 82.522575 287.101638 
L 82.724932 284.618152 
L 82.927289 277.892042 
L 83.332004 255.230228 
L 83.736718 241.115747 
L 83.939075 238.114867 
L 84.141432 238.383912 
L 84.546147 244.696106 
L 84.748504 246.765679 
L 84.950861 246.786374 
L 85.355576 250.925518 
L 85.557933 247.634899 
L 85.76029 253.678049 
L 86.569719 298.008283 
L 86.772076 304.010042 
L 86.974433 305.582917 
L 87.176791 305.645004 
L 87.379148 304.320478 
L 87.581505 300.636639 
L 87.783862 293.972617 
L 88.188577 272.221415 
L 88.390934 267.109572 
L 89.200363 259.141719 
L 89.40272 255.064663 
L 89.807434 240.474179 
L 90.212149 238.05278 
L 90.414506 235.383032 
L 90.616863 243.22671 
L 91.223935 293.124093 
L 91.628649 304.010042 
L 91.831006 304.072129 
L 92.033364 301.609338 
L 92.842792 256.078753 
L 93.04515 253.967789 
L 93.449864 245.482544 
L 93.652221 244.965151 
L 93.854578 242.06775 
L 94.056936 241.446878 
L 94.259293 238.859913 
L 94.46165 232.547718 
L 94.664007 229.7331 
L 94.866364 230.643712 
L 95.068722 233.74807 
L 95.271079 229.960753 
L 95.473436 239.936091 
L 96.080508 293.496616 
L 96.485222 302.582037 
L 96.687579 304.465348 
L 96.889937 300.181333 
L 97.699365 255.354403 
L 98.306437 244.985847 
L 98.508794 244.613324 
L 99.52058 223.669254 
L 99.722937 224.910998 
L 99.925295 229.215707 
L 100.127652 227.41518 
L 100.330009 237.431909 
L 100.937081 291.054521 
L 101.341795 303.161517 
L 101.544152 304.134216 
L 101.74651 300.471074 
L 101.948867 288.674513 
L 102.353581 259.038241 
L 102.555938 257.506758 
L 103.567724 239.956786 
L 104.377153 218.143497 
L 104.57951 219.405936 
L 104.781868 224.724736 
L 104.984225 224.70404 
L 105.186582 233.479026 
L 105.793654 287.950163 
L 106.198368 300.533161 
L 106.400725 302.271601 
L 106.603083 298.298023 
L 107.412511 252.974395 
L 107.614869 251.277346 
L 107.817226 247.655595 
L 108.22194 233.31346 
L 108.626655 211.893389 
L 108.829012 206.0365 
L 109.031369 204.173886 
L 109.638441 212.741914 
L 109.840798 218.102105 
L 110.043155 228.367183 
L 110.650227 282.69345 
L 111.054941 296.76654 
L 111.257298 298.64985 
L 111.459655 296.932105 
L 111.662013 285.673633 
L 112.066727 256.803103 
L 112.471442 242.005663 
L 113.887942 174.496222 
L 114.090299 172.157606 
L 114.292656 178.883715 
L 114.495014 190.162883 
L 114.697371 194.695245 
L 115.102085 228.263704 
L 115.709157 276.981431 
L 116.113871 290.744085 
L 116.316228 290.909651 
L 116.518586 289.274689 
L 116.720943 285.694329 
L 117.125657 258.810588 
L 118.542158 155.518246 
L 118.744515 145.542909 
L 118.946872 141.714201 
L 119.149229 145.335952 
L 119.756301 182.712423 
L 120.56573 261.02503 
L 120.970444 280.582486 
L 121.172801 284.618152 
L 121.375159 286.232418 
L 121.577516 284.804413 
L 121.779873 276.981431 
L 122.589302 226.649438 
L 123.196374 201.524833 
L 123.398731 197.013166 
L 123.601088 197.220123 
L 123.803445 196.661339 
L 124.410517 209.885904 
L 124.612874 220.709766 
L 125.219946 276.25708 
L 125.62466 290.599215 
L 125.827017 292.565308 
L 126.029374 290.061126 
L 127.04116 234.410333 
L 127.648232 197.489168 
L 128.255304 155.663116 
L 128.457661 148.212657 
L 128.660018 147.881525 
L 129.26709 191.632279 
L 130.278876 281.286141 
L 130.481233 289.005644 
L 130.68359 290.371562 
L 130.885947 287.825988 
L 132.504805 180.332415 
L 133.111877 138.216624 
L 133.314234 128.924245 
L 133.516591 130.600599 
L 133.921306 145.770562 
L 134.123663 153.096847 
L 135.135449 261.542423 
L 135.540163 274.001247 
L 135.74252 273.069939 
L 135.944878 262.618601 
L 136.349592 231.616411 
L 136.551949 224.931693 
L 136.754306 213.217915 
L 136.956664 217.729583 
L 137.159021 206.574589 
L 137.766092 197.861691 
L 137.96845 198.254909 
L 138.373164 192.915413 
L 138.777879 200.365873 
L 138.980236 201.193702 
L 139.182593 212.845392 
L 139.789665 268.744534 
L 140.194379 283.914497 
L 140.396736 285.963373 
L 140.599093 282.98319 
L 141.003808 253.160656 
L 141.408522 232.257978 
L 142.015594 219.033413 
L 142.622665 210.010079 
L 142.825023 209.741034 
L 143.02738 208.540683 
L 143.229737 209.223641 
L 143.634451 214.438963 
L 143.836809 213.217915 
L 144.039166 223.276036 
L 144.646238 271.993762 
L 145.050952 283.935193 
L 145.253309 285.218327 
L 145.455666 282.113969 
L 145.860381 252.829525 
L 146.062738 236.583384 
L 146.66981 220.316548 
L 146.872167 217.667495 
L 147.074524 216.591318 
L 147.479238 205.622586 
L 147.681596 213.983657 
L 147.883953 214.956356 
L 148.08631 217.543321 
L 148.491024 226.752917 
L 148.693382 225.407695 
L 149.098096 248.773163 
L 149.502811 276.608908 
L 149.907525 289.585125 
L 150.109882 291.634001 
L 150.312239 291.054521 
L 150.514597 288.239903 
L 150.716954 282.54858 
L 151.121668 261.728685 
L 151.526383 241.281313 
L 151.931097 235.486511 
L 152.133454 235.051901 
L 152.335811 237.017994 
L 152.538169 237.535387 
L 152.740526 235.486511 
L 152.942883 235.776251 
L 153.14524 234.803552 
L 153.347597 234.844943 
L 153.549955 231.926847 
L 153.752312 234.120593 
L 154.764098 285.487372 
L 154.966455 289.440254 
L 155.168812 290.826868 
L 155.573527 286.894681 
L 155.775884 275.843166 
L 156.78767 198.047952 
L 157.799456 155.497551 
L 158.001813 157.505036 
L 158.406528 170.68821 
L 158.608885 184.223211 
L 159.215956 252.746742 
L 159.620671 274.311683 
L 159.823028 277.519519 
L 160.025385 276.608908 
L 160.227743 266.819832 
L 160.632457 234.410333 
L 161.8466 184.181819 
L 162.251315 174.144395 
L 162.453672 174.289265 
L 162.656029 177.145274 
L 163.465458 208.913206 
L 164.072529 268.682447 
L 164.477244 287.267204 
L 164.679601 287.598335 
L 164.881958 284.369803 
L 165.084316 274.2289 
L 165.48903 242.50236 
L 166.500816 207.464505 
L 167.310245 164.603668 
L 167.512602 167.956374 
L 167.917316 188.507225 
L 168.119674 192.956805 
L 168.322031 204.29806 
L 168.929102 263.632691 
L 169.333817 278.802654 
L 169.536174 282.320927 
L 169.738531 278.657784 
L 170.143246 251.40152 
L 170.54796 221.123681 
L 171.357389 176.607186 
L 171.559746 170.584731 
L 172.166818 146.412129 
L 172.369175 148.026395 
L 172.571532 155.932161 
L 173.178604 194.860811 
L 173.785675 265.867829 
L 174.19039 285.239023 
L 174.392747 288.219207 
L 174.595104 286.397984 
L 174.999819 262.225382 
L 175.404533 237.245647 
L 177.023391 159.07791 
L 177.225748 159.595303 
L 177.428105 163.506794 
L 177.630462 180.084067 
L 177.83282 182.526162 
L 178.237534 226.608047 
L 178.642248 269.48958 
L 179.046963 288.674513 
L 179.24932 292.399743 
L 179.451677 289.874865 
L 179.654034 281.182662 
L 180.261106 241.3434 
L 181.879964 144.404644 
L 182.082321 141.134721 
L 182.284678 146.805348 
L 183.094107 203.139099 
L 183.498821 242.150533 
L 183.903536 263.611995 
L 184.30825 271.455673 
L 184.510607 272.821591 
L 184.712965 269.179144 
L 184.915322 255.789013 
L 185.724751 173.73048 
L 186.129465 152.331105 
L 186.331822 146.267259 
L 186.53418 145.501518 
L 186.736537 148.047091 
L 187.748323 188.527921 
L 188.557752 252.788133 
L 188.962466 266.985398 
L 189.164823 269.034274 
L 189.36718 269.117057 
L 189.569538 268.372011 
L 189.771895 257.568845 
L 190.986038 161.437222 
L 191.188395 156.118422 
L 191.390752 156.077031 
L 191.795467 165.245235 
L 192.604896 196.619947 
L 193.414325 260.093723 
L 193.819039 273.835681 
L 194.021396 274.911859 
L 194.426111 270.93828 
L 194.628468 261.956337 
L 195.437897 200.883266 
L 195.640254 195.854206 
L 195.842611 197.075253 
L 196.247325 203.159795 
L 196.449683 203.739275 
L 196.65204 203.346057 
L 197.056754 211.582953 
L 197.259112 212.431478 
L 197.461469 220.875332 
L 198.06854 269.386101 
L 198.473255 283.624757 
L 198.675612 283.728236 
L 198.877969 280.065093 
L 199.282684 249.166382 
L 199.687398 226.256219 
L 201.306256 159.595303 
L 201.508613 158.436343 
L 202.115684 177.704059 
L 202.318042 188.900444 
L 202.925113 253.222743 
L 203.329828 270.93828 
L 203.532185 273.049244 
L 203.734542 270.048364 
L 203.936899 258.479456 
L 204.341614 224.352213 
L 205.758114 169.467162 
L 205.960471 166.96298 
L 206.162829 167.10785 
L 206.365186 168.535855 
L 206.7699 180.435894 
L 206.972257 183.643731 
L 207.174615 194.52968 
L 207.781686 253.822919 
L 208.186401 270.048364 
L 208.388758 273.111331 
L 208.591115 269.758624 
L 208.793472 257.837889 
L 209.198187 223.896907 
L 209.805258 201.524833 
L 210.209973 181.553463 
L 210.817044 139.68602 
L 211.019402 131.159383 
L 211.221759 134.139567 
L 211.626473 158.726083 
L 211.82883 163.9621 
L 212.031188 178.759541 
L 212.638259 244.095931 
L 213.042974 262.763471 
L 213.245331 266.77844 
L 213.447688 265.060696 
L 213.650045 254.298921 
L 214.257117 210.837908 
L 214.661831 184.368081 
L 215.47126 124.74371 
L 215.875975 107.938785 
L 216.078332 107.462783 
L 216.280689 113.029932 
L 217.090118 177.103883 
L 217.697189 239.315219 
L 218.101904 257.858585 
L 218.304261 261.231987 
L 218.506618 262.597905 
L 218.708976 261.335466 
L 218.911333 248.545511 
L 219.518404 193.494894 
L 220.125476 158.125907 
L 220.327833 155.952856 
L 220.53019 158.187994 
L 221.541976 200.697004 
L 221.744334 205.870935 
L 222.553762 263.032515 
L 222.958477 273.959855 
L 223.160834 275.6776 
L 223.363191 276.029428 
L 223.565549 274.456553 
L 223.767906 265.702263 
L 224.374977 227.311701 
L 224.779692 219.695676 
L 225.386763 221.765248 
L 225.589121 225.304216 
L 225.791478 226.194132 
L 226.196192 234.617291 
L 226.398549 234.265463 
L 226.600907 240.722528 
L 227.410335 294.593489 
L 227.612693 298.64985 
L 227.81505 300.346899 
L 228.017407 297.139063 
L 228.826836 254.340312 
L 229.029193 252.001696 
L 229.23155 246.22759 
L 230.648051 182.505466 
L 230.850408 183.084946 
L 231.255122 197.571951 
L 231.45748 208.519987 
L 232.064551 272.511155 
L 232.469266 289.771386 
L 232.671623 292.503221 
L 232.87398 291.282174 
L 233.278694 265.867829 
L 233.683409 243.22671 
L 235.302267 178.32493 
L 235.504624 177.724755 
L 236.111695 196.930383 
L 236.314053 207.340331 
L 236.921124 269.77932 
L 237.325839 285.73572 
L 237.528196 288.88147 
L 237.730553 286.749811 
L 238.135267 262.680688 
L 238.539982 240.784615 
L 239.349411 209.699643 
L 239.754125 199.641523 
L 240.15884 189.376445 
L 240.361197 189.128097 
L 240.563554 194.612463 
L 240.968268 212.307304 
L 241.170626 219.923329 
L 241.777697 275.739687 
L 242.182412 291.675392 
L 242.384769 294.179574 
L 242.587126 291.178695 
L 242.99184 266.34383 
L 243.396555 248.297162 
L 245.21777 173.275175 
L 245.420127 177.538493 
L 246.027199 204.463626 
L 246.836627 278.305957 
L 247.038985 286.708419 
L 247.241342 289.89556 
L 247.443699 287.349987 
L 247.848413 263.674082 
L 249.467271 151.130754 
L 249.669628 143.018031 
L 249.871985 141.072633 
L 250.074343 141.238199 
L 250.2767 148.212657 
L 250.883772 180.477285 
L 251.6932 255.809708 
L 252.097915 270.400191 
L 252.300272 273.483854 
L 252.502629 273.752898 
L 252.704986 269.862103 
L 253.109701 236.955907 
L 253.91913 163.403316 
L 254.323844 147.529698 
L 254.728558 138.67193 
L 254.930916 137.409491 
L 255.133273 144.942733 
L 255.740345 182.588249 
L 256.549773 258.148325 
L 256.954488 273.690811 
L 257.156845 277.519519 
L 257.359202 279.195873 
L 257.561559 278.223174 
L 257.966274 249.207774 
L 258.573345 198.586041 
L 258.97806 176.814143 
L 259.382774 165.741932 
L 259.585131 162.285747 
L 259.787489 161.851137 
L 259.989846 164.479493 
L 260.39456 180.539373 
L 260.596917 193.9502 
L 261.203989 256.223623 
L 261.608704 275.015337 
L 261.811061 277.95413 
L 262.013418 277.167692 
L 262.418132 253.098569 
L 262.62049 241.032964 
L 263.025204 231.326671 
L 263.227561 228.512053 
L 263.429918 227.497963 
L 263.834633 228.781097 
L 264.03699 228.470662 
L 264.239347 229.422665 
L 264.441704 229.505448 
L 264.644062 229.236403 
L 264.846419 231.28528 
L 265.048776 235.341641 
L 265.251133 235.341641 
L 265.45349 239.377306 
L 266.060562 282.031186 
L 266.465277 294.92462 
L 266.667634 296.476799 
L 266.869991 292.275568 
L 267.072348 284.28702 
L 267.477063 257.672323 
L 268.084134 235.403728 
L 268.488849 225.076563 
L 269.09592 213.7767 
L 269.500635 209.803122 
L 269.702992 211.996868 
L 269.905349 215.618619 
L 270.107706 216.301578 
L 270.310063 222.634468 
L 270.917135 271.704022 
L 271.32185 283.728236 
L 271.524207 285.880591 
L 271.726564 284.162846 
L 274.15485 141.962549 
L 274.357208 134.760439 
L 274.559565 138.113145 
L 275.166636 163.38262 
L 275.976065 245.316978 
L 276.38078 257.941368 
L 276.583137 257.237713 
L 276.987851 235.300249 
L 277.392566 206.264153 
L 278.404352 149.061182 
L 278.606709 145.998215 
L 279.011423 132.711562 
L 279.213781 131.097296 
L 279.416138 135.38131 
L 280.023209 177.290144 
L 280.630281 248.959425 
L 281.034995 271.848892 
L 281.237353 276.753778 
L 281.43971 275.201599 
L 281.642067 269.282623 
L 282.249139 227.332397 
L 282.85621 193.536285 
L 283.867996 150.551273 
L 284.070354 149.350922 
L 284.272711 157.546427 
L 285.284497 241.012268 
L 285.689211 273.338984 
L 286.093926 288.15712 
L 286.296283 290.454345 
L 286.49864 288.633121 
L 286.700997 285.673633 
L 287.105712 254.505878 
L 287.712783 202.704489 
L 288.522212 159.057215 
L 288.724569 151.896495 
L 288.926927 149.951097 
L 289.129284 153.552153 
L 289.736355 187.534526 
L 290.545784 257.962063 
L 290.950499 273.318288 
L 291.152856 276.11221 
L 291.355213 276.194993 
L 291.55757 274.704901 
L 291.759927 262.163295 
L 292.771714 162.989401 
L 293.176428 140.886372 
L 293.581142 129.586508 
L 293.7835 127.848068 
L 293.985857 131.387036 
L 294.592928 157.04973 
L 295.402357 240.76392 
L 295.807072 255.540664 
L 296.009429 255.375098 
L 296.414143 234.969118 
L 297.830644 99.122408 
L 298.235358 85.732276 
L 298.437715 83.124616 
L 298.640073 83.39366 
L 298.84243 85.463232 
L 299.044787 93.555259 
L 299.449501 120.708044 
L 300.056573 200.241699 
L 300.461287 225.656044 
L 300.663645 231.71989 
L 300.866002 232.44424 
L 301.068359 225.573261 
L 301.473073 195.316117 
L 302.484859 89.29194 
L 302.687217 77.888598 
L 302.889574 77.992077 
L 303.091931 86.146191 
L 303.496646 94.859089 
L 303.90136 117.272555 
L 304.306074 145.418735 
L 304.913146 215.142617 
L 305.31786 240.681137 
L 305.520218 246.289677 
L 305.722575 244.489149 
L 305.924932 237.307734 
L 306.532004 197.054558 
L 307.54379 126.523542 
L 307.746147 116.237769 
L 307.948504 115.347853 
L 308.757933 147.86083 
L 309.162647 174.123699 
L 309.769719 237.597474 
L 310.174433 257.630932 
L 310.376791 262.059816 
L 310.579148 261.480336 
L 310.983862 237.887214 
L 312.198005 133.063389 
L 312.60272 121.349612 
L 312.805077 116.941423 
L 313.007434 117.500208 
L 313.209791 121.225437 
L 313.816863 149.01979 
L 314.01922 162.80314 
L 314.626292 225.863001 
L 315.031006 246.51733 
L 315.233364 251.132476 
L 315.435721 250.470213 
L 315.840435 231.554324 
L 316.24515 212.700522 
L 316.649864 200.593526 
L 317.054578 185.175214 
L 317.66165 177.60058 
L 317.864007 177.145274 
L 318.066364 176.234663 
L 318.268722 180.953287 
L 318.875793 203.263274 
L 319.685222 262.308165 
L 320.089937 275.180903 
L 320.292294 276.836561 
L 320.697008 268.848012 
L 321.101723 242.419577 
L 322.315866 163.900013 
L 322.72058 153.572849 
L 322.922937 151.234232 
L 323.125295 155.394072 
L 323.732366 183.229816 
L 324.541795 252.291436 
L 324.94651 266.695658 
L 325.148867 269.613754 
L 325.351224 269.675841 
L 325.553581 267.399312 
L 325.755938 254.98188 
L 326.970082 141.714201 
L 327.172439 135.339919 
L 327.374796 133.746348 
L 327.77951 128.137808 
L 327.981868 133.166868 
L 328.184225 142.024636 
L 328.791296 194.074374 
L 329.196011 238.135563 
L 329.398368 253.491788 
L 329.803083 263.674082 
L 330.00544 262.722079 
L 330.207797 257.072147 
L 330.814869 208.188855 
L 331.42194 169.674119 
L 331.826655 146.826044 
L 332.029012 143.907947 
L 332.231369 143.928643 
L 332.433726 144.114904 
L 332.636083 146.225868 
L 332.838441 150.799622 
L 333.243155 173.896046 
L 333.445512 182.981468 
L 334.052584 249.207774 
L 334.457298 271.165933 
L 334.659655 276.629603 
L 334.862013 274.208204 
L 335.266727 254.216138 
L 335.671442 229.671013 
L 336.48087 189.252271 
L 336.683228 184.140428 
L 336.885585 183.022859 
L 337.087942 176.793447 
L 337.290299 174.930832 
L 337.695014 181.449984 
L 338.099728 196.019772 
L 338.302085 201.938748 
L 339.111514 268.268532 
L 339.313871 274.51864 
L 339.516228 276.774473 
L 339.718586 272.676721 
L 340.1233 249.145686 
L 340.932729 204.339451 
L 342.349229 142.107419 
L 342.551587 142.024636 
L 343.158658 166.900893 
L 343.76573 230.147015 
L 344.170444 248.297162 
L 344.372801 253.098569 
L 344.575159 250.946214 
L 344.777516 243.971756 
L 345.18223 212.845392 
L 346.194016 129.565813 
L 346.598731 114.68559 
L 347.003445 108.021568 
L 347.205802 107.173043 
L 347.40816 110.38088 
L 347.610517 118.286645 
L 348.015231 144.590906 
L 348.82466 236.417818 
L 349.229374 253.657354 
L 349.431732 252.891612 
L 349.634089 247.055419 
L 349.836446 235.838338 
L 351.050589 130.600599 
L 351.455304 112.098624 
L 351.860018 103.178769 
L 352.062375 102.268157 
L 352.264733 105.9313 
L 352.46709 117.106989 
L 353.276519 200.841874 
L 353.681233 239.06687 
L 354.085947 259.410764 
L 354.288305 264.729564 
L 354.490662 265.309044 
L 354.693019 263.053211 
L 355.097733 220.689071 
L 355.704805 146.287955 
L 356.109519 121.391003 
L 356.716591 103.054595 
L 356.918948 101.957721 
L 357.121306 106.80052 
L 357.52602 132.628779 
L 357.728377 145.418735 
L 358.740163 241.653836 
L 359.144878 254.733531 
L 359.347235 256.616842 
L 359.549592 256.28571 
L 359.751949 242.171229 
L 360.763735 120.58387 
L 361.16845 101.357545 
L 361.573164 90.161161 
L 361.775521 87.84324 
L 361.977879 91.154555 
L 362.180236 98.211796 
L 362.58495 124.205621 
L 363.394379 213.673221 
L 363.799093 231.471541 
L 364.001451 232.29937 
L 364.203808 226.359698 
L 364.406165 216.218795 
L 365.013237 146.060302 
L 365.620308 80.951565 
L 366.025023 64.643337 
L 366.429737 58.413925 
L 366.632094 58.910622 
L 366.834451 61.58037 
L 367.036809 70.376052 
L 367.441523 99.826062 
L 368.048595 180.16685 
L 368.453309 210.962082 
L 368.655666 219.571502 
L 368.858024 221.972205 
L 369.060381 218.040018 
L 369.262738 208.085377 
L 369.86981 143.970034 
L 370.476881 85.256275 
L 370.881596 68.472045 
L 371.083953 68.01674 
L 371.28631 68.74109 
L 371.488667 72.714668 
L 371.691024 79.006167 
L 372.298096 118.369428 
L 373.107525 204.215277 
L 373.512239 226.670134 
L 373.714597 231.078322 
L 374.119311 230.374668 
L 374.321668 217.50193 
L 375.333454 112.616017 
L 375.738169 99.225886 
L 375.940526 96.494051 
L 376.142883 95.376482 
L 376.34524 100.6125 
L 376.749955 127.123718 
L 377.559383 186.64461 
L 377.964098 221.661769 
L 378.368812 235.610685 
L 378.57117 235.838338 
L 378.773527 229.836579 
L 378.975884 218.495324 
L 380.392384 100.591804 
L 380.797099 90.554379 
L 381.201813 82.876267 
L 381.40417 86.68428 
L 382.011242 124.122838 
L 382.820671 207.919811 
L 383.225385 224.207343 
L 383.427743 224.869606 
L 383.6301 219.468023 
L 384.034814 196.971775 
L 385.0466 122.694833 
L 385.451315 105.807125 
L 385.653672 105.331124 
L 385.856029 109.159832 
L 386.058386 116.879336 
L 387.070172 187.679396 
L 387.474887 228.263704 
L 387.879601 250.408125 
L 388.284316 259.659112 
L 388.68903 262.204686 
L 388.891387 256.389189 
L 389.700816 212.327999 
L 390.307888 200.986745 
L 390.914959 188.093311 
L 391.117316 192.936109 
L 391.926745 232.982329 
L 392.533817 277.705781 
L 392.938531 290.226692 
L 393.140888 292.110002 
L 393.343246 291.654697 
L 393.545603 292.130698 
L 393.74796 283.065973 
L 394.355032 241.405487 
L 395.569175 184.243907 
L 395.771532 178.159365 
L 395.973889 179.380412 
L 396.176247 187.803571 
L 396.783318 230.353972 
L 397.188033 269.34471 
L 397.592747 287.391378 
L 397.795104 290.205996 
L 397.997461 287.639727 
L 398.402176 269.282623 
L 400.628105 140.099934 
L 400.830462 142.97664 
L 401.03282 153.055456 
L 401.639891 210.796516 
L 402.044606 255.685534 
L 402.44932 276.25708 
L 402.651677 280.313442 
L 402.854034 278.637088 
L 403.258749 260.217897 
L 403.663463 231.450845 
L 404.877607 124.102142 
L 405.282321 103.323639 
L 405.484678 99.06032 
L 405.687035 100.157194 
L 405.889393 110.794794 
L 406.294107 148.626571 
L 406.901179 227.001265 
L 407.305893 251.360129 
L 407.50825 257.030756 
L 407.710607 256.492667 
L 408.115322 234.989814 
L 409.73418 101.067805 
L 409.936537 96.080137 
L 410.138894 95.935267 
L 410.341251 100.591804 
L 410.948323 137.140446 
L 411.15068 153.241717 
L 411.757752 224.70404 
L 412.162466 249.062904 
L 412.364823 255.623447 
L 412.56718 257.423975 
L 412.971895 239.149653 
L 414.388395 139.851586 
L 414.79311 126.151019 
L 415.197824 119.404214 
L 415.400181 126.254497 
L 416.20961 189.562707 
L 416.614325 235.341641 
L 417.019039 258.686414 
L 417.221396 262.991124 
L 417.423753 262.432339 
L 417.828468 246.08272 
L 419.244968 147.177871 
L 419.649683 133.415217 
L 419.85204 129.545117 
L 420.054397 130.993817 
L 420.256754 139.748107 
L 421.066183 205.74676 
L 421.673255 261.418249 
L 422.077969 277.664389 
L 422.280326 280.168572 
L 422.482684 279.506309 
L 422.685041 279.340743 
L 423.089755 248.276466 
L 423.899184 178.531888 
L 424.708613 138.837496 
L 424.91097 135.629659 
L 425.113327 139.665324 
L 425.518042 166.031672 
L 425.720399 177.931712 
L 426.529828 253.202048 
L 426.934542 271.931675 
L 427.136899 276.443342 
L 427.339257 277.250475 
L 427.541614 277.478128 
L 427.743971 268.806621 
L 428.148685 228.118834 
L 428.755757 165.721237 
L 429.160471 139.872282 
L 429.565186 131.552602 
L 429.9699 135.505484 
L 430.374615 151.855104 
L 430.576972 163.589577 
L 431.386401 240.184439 
L 431.791115 252.519089 
L 431.993472 250.470213 
L 432.398187 230.002145 
L 433.207616 164.39671 
L 434.017044 93.472476 
L 434.219402 88.546894 
L 435.02883 116.175681 
L 435.433545 141.362373 
L 436.040617 213.114437 
L 436.445331 235.817642 
L 436.647688 240.991572 
L 436.850045 240.308614 
L 437.25476 219.550806 
L 437.659474 184.368081 
L 438.468903 110.339488 
L 438.67126 100.529717 
L 438.873617 101.502416 
L 439.075975 108.663135 
L 439.278332 108.207829 
L 439.480689 110.463663 
L 439.885403 129.151898 
L 440.290118 154.090242 
L 440.897189 228.056747 
L 441.301904 250.5323 
L 441.504261 255.99597 
L 441.706618 256.534059 
L 442.111333 241.695227 
L 442.920762 189.293662 
L 443.527833 154.173024 
L 444.134905 131.262862 
L 444.337262 128.655201 
L 444.539619 135.112266 
L 445.146691 180.497981 
L 445.753762 250.180472 
L 446.158477 271.538456 
L 446.360834 276.526125 
L 446.563191 274.51864 
L 446.967906 255.478577 
L 448.586763 144.901342 
L 448.991478 131.614689 
L 449.193835 129.276073 
L 449.396192 135.981486 
L 450.003264 176.648577 
L 450.812693 257.258409 
L 451.217407 270.64854 
L 451.419764 270.772714 
L 451.824479 253.471092 
L 452.43155 202.704489 
L 453.038622 160.505915 
L 453.443336 143.349163 
L 453.848051 135.422702 
L 454.050408 138.8168 
L 454.252765 148.87492 
L 454.65748 177.476406 
L 454.859837 185.982347 
L 455.669266 251.153171 
L 456.07398 264.791651 
L 456.276337 266.323135 
L 456.478694 264.31565 
L 456.681052 261.190596 
L 456.883409 253.139961 
L 457.288123 225.945784 
L 457.692838 214.914965 
L 457.895195 215.618619 
L 458.299909 221.413421 
L 458.502267 221.268551 
L 458.906981 217.419147 
L 459.109338 217.957235 
L 459.514053 222.137771 
L 459.71641 226.463177 
L 460.728196 284.556064 
L 461.13291 289.005644 
L 461.537625 285.673633 
L 461.739982 276.691691 
L 462.144696 241.964271 
L 463.561197 172.343867 
L 463.763554 165.038278 
L 463.965911 166.217934 
L 464.572983 185.816781 
L 465.382412 253.222743 
L 465.584769 260.176506 
L 465.787126 262.908341 
L 465.989483 260.466246 
L 467.608341 167.335503 
L 468.620127 146.018911 
L 468.822484 149.16466 
L 469.429556 175.5724 
L 470.036627 232.651197 
L 470.441342 250.552995 
L 470.643699 253.202048 
L 470.846056 250.615083 
L 471.857842 199.372478 
L 472.869628 168.929073 
L 473.071985 169.425771 
L 473.274343 167.625243 
L 473.4767 168.887682 
L 473.679057 172.695694 
L 473.881414 179.318325 
L 474.083772 180.477285 
L 474.286129 188.196789 
L 474.8932 240.639745 
L 475.297915 256.989365 
L 475.500272 258.665718 
L 475.702629 256.616842 
L 476.107344 232.092413 
L 476.512058 209.947992 
L 477.321487 178.262843 
L 477.726201 157.981037 
L 477.928558 154.400677 
L 478.333273 159.119302 
L 478.53563 163.610273 
L 479.142702 188.693486 
L 479.952131 256.885886 
L 480.356845 266.799136 
L 480.559202 266.385222 
L 480.963917 244.158018 
L 482.785131 114.97533 
L 482.987489 109.035658 
L 483.189846 106.386606 
L 483.392203 112.057233 
L 483.999275 152.16554 
L 484.606346 223.710646 
L 485.011061 247.076114 
L 485.213418 251.504999 
L 485.415775 252.457002 
L 485.82049 232.568414 
L 486.225204 201.173006 
L 487.23699 110.649924 
L 487.439347 107.545566 
L 487.844062 114.147501 
L 488.248776 132.877128 
L 489.260562 210.879299 
L 489.665277 243.22671 
L 490.069991 258.417369 
L 490.272348 260.776681 
L 490.474705 259.638417 
L 490.677063 257.858585 
L 490.87942 248.069509 
L 491.891206 167.873592 
L 492.29592 150.054576 
L 492.498277 142.624812 
L 492.700635 140.596632 
L 492.902992 142.231594 
L 493.105349 147.074392 
L 493.712421 180.787721 
L 494.52185 253.202048 
L 495.128921 271.579848 
L 495.331278 271.724718 
L 495.533636 271.103846 
L 495.735993 263.508517 
L 496.950136 171.474647 
L 497.557208 146.970914 
L 497.759565 143.597511 
L 497.961922 146.826044 
L 498.568994 178.511192 
L 499.378422 252.746742 
L 499.58078 259.617721 
L 499.783137 262.121903 
L 499.985494 258.789892 
L 500.187851 250.221864 
L 500.794923 213.093741 
L 500.99728 207.961202 
L 501.401995 194.798724 
L 501.806709 183.478165 
L 502.009066 183.022859 
L 502.211423 185.092431 
L 502.413781 185.733998 
L 502.616138 184.057645 
L 503.020852 193.826025 
L 503.223209 194.38481 
L 503.425567 201.938748 
L 504.032638 252.912308 
L 504.437353 266.05409 
L 504.63971 267.689052 
L 504.842067 265.309044 
L 505.246782 240.805311 
L 505.651496 216.860362 
L 507.270354 143.307771 
L 507.472711 140.182717 
L 507.675068 143.597511 
L 508.28214 171.785083 
L 508.889211 230.126319 
L 509.293926 247.345159 
L 509.496283 250.884127 
L 509.69864 249.042208 
L 510.103354 225.366303 
L 511.722212 118.410819 
L 512.126927 100.550412 
L 512.329284 102.143983 
L 512.936355 136.705836 
L 513.34107 175.86214 
L 513.745784 219.571502 
L 514.150499 242.419577 
L 514.352856 248.028118 
L 514.555213 248.524815 
L 514.75757 239.584263 
L 516.174071 142.293681 
L 516.376428 141.196808 
L 516.781142 150.571969 
L 516.9835 147.819438 
L 517.185857 148.357527 
L 517.590571 166.155847 
L 517.792928 170.419165 
L 517.995286 181.18094 
L 518.4 221.061594 
L 518.4 221.061594 
" clip-path="url(#pa73b080ccc)" style="fill: none; stroke: #1f77b4; stroke-width: 1.5; stroke-linecap: square"/>
   </g>
   <g id="line2d_14">
    <path d="M 72 277.925113 
L 72.202357 277.925113 
L 72.607072 286.977224 
L 72.809429 287.012598 
L 73.011786 279.222457 
L 73.4165 253.248006 
L 74.023572 233.075742 
L 74.428286 204.308162 
L 75.035358 164.247162 
L 75.237715 158.573099 
L 75.440073 158.631406 
L 75.64243 165.965965 
L 76.249501 204.917015 
L 76.856573 265.247633 
L 77.261287 277.242891 
L 77.463645 276.412357 
L 77.666002 270.681011 
L 78.273073 237.726881 
L 78.677788 223.41649 
L 78.880145 214.956271 
L 79.487217 174.966481 
L 79.891931 153.952049 
L 80.094288 151.958514 
L 80.296646 158.27219 
L 80.903717 197.707154 
L 81.713146 266.364818 
L 82.11786 282.391397 
L 82.320218 283.478199 
L 82.927289 269.53499 
L 83.129646 262.98403 
L 83.534361 239.414364 
L 83.736718 231.98038 
L 83.939075 229.270771 
L 84.141432 229.177312 
L 84.34379 231.941703 
L 84.748504 240.769135 
L 84.950861 242.689502 
L 85.355576 243.900268 
L 85.76029 251.1958 
L 86.772076 302.623532 
L 86.974433 307.8 
L 87.176791 306.741619 
L 87.783862 285.992884 
L 88.593291 257.703967 
L 88.795648 257.818123 
L 88.998005 256.28933 
L 89.200363 256.889671 
L 89.40272 255.152506 
L 89.605077 250.776931 
L 90.009791 236.904312 
L 90.212149 236.328903 
L 90.414506 237.484593 
L 90.616863 241.1626 
L 90.81922 250.997454 
L 91.426292 296.710626 
L 91.628649 302.860683 
L 91.831006 303.905618 
L 92.033364 299.550185 
L 92.235721 292.584713 
L 92.842792 249.252211 
L 93.04515 248.554668 
L 93.247507 250.083543 
L 93.449864 247.800295 
L 93.854578 241.054083 
L 94.259293 236.874973 
L 94.664007 230.142963 
L 94.866364 228.984044 
L 95.271079 233.240252 
L 95.473436 237.78583 
L 96.485222 299.979929 
L 96.687579 298.234648 
L 96.889937 294.611315 
L 97.092294 285.810966 
L 97.497008 256.908851 
L 97.699365 249.497598 
L 97.901723 247.873577 
L 98.508794 240.346752 
L 98.711151 239.026988 
L 98.913509 236.904117 
L 99.52058 224.423961 
L 99.722937 224.690602 
L 99.925295 226.418033 
L 100.330009 237.80924 
L 101.139438 294.437254 
L 101.544152 300.754161 
L 101.74651 295.421053 
L 101.948867 286.360632 
L 102.353581 255.265939 
L 102.555938 249.165853 
L 102.758296 248.260567 
L 102.960653 246.790043 
L 103.16301 243.519834 
L 103.365367 242.483676 
L 103.770082 235.698327 
L 104.174796 222.358191 
L 104.377153 220.371022 
L 104.57951 220.23188 
L 104.781868 222.001363 
L 105.186582 235.361208 
L 105.996011 291.990639 
L 106.198368 296.589184 
L 106.400725 297.906003 
L 106.603083 293.984828 
L 106.80544 285.177225 
L 107.210154 255.865055 
L 107.614869 244.858845 
L 107.817226 243.763354 
L 108.019583 241.176189 
L 108.22194 236.458468 
L 109.031369 200.788228 
L 109.233726 202.149531 
L 110.043155 229.344342 
L 110.852584 286.929295 
L 111.054941 292.310653 
L 111.257298 294.516791 
L 111.459655 290.440792 
L 111.662013 283.116047 
L 112.471442 240.964155 
L 112.876156 223.358416 
L 113.887942 179.631537 
L 114.090299 176.133456 
L 114.292656 179.013015 
L 114.697371 199.730831 
L 114.899728 210.178424 
L 115.5068 261.6169 
L 115.911514 279.496121 
L 116.316228 285.823313 
L 116.518586 281.505076 
L 117.125657 259.449324 
L 118.744515 150.943566 
L 118.946872 146.088501 
L 119.149229 146.233392 
L 119.351587 152.968527 
L 119.958658 202.710101 
L 120.56573 258.873324 
L 120.970444 279.166897 
L 121.172801 281.558669 
L 121.375159 280.095984 
L 121.779873 270.806289 
L 122.184587 246.600461 
L 122.589302 219.417202 
L 123.398731 196.359892 
L 123.601088 194.333463 
L 123.803445 196.378612 
L 124.005802 199.840541 
L 124.612874 219.604345 
L 124.815231 231.880667 
L 125.422303 286.445977 
L 125.62466 294.914902 
L 125.827017 297.243532 
L 126.029374 294.438197 
L 126.231732 287.017973 
L 126.838803 239.869085 
L 127.648232 202.308141 
L 128.457661 151.914433 
L 128.660018 149.145465 
L 128.862375 152.910358 
L 129.26709 184.835639 
L 130.076519 268.605783 
L 130.278876 278.597265 
L 130.68359 283.842181 
L 130.885947 281.585198 
L 131.088305 275.54985 
L 132.302448 198.588 
L 133.314234 135.179738 
L 133.516591 131.481695 
L 133.718948 138.611484 
L 134.32602 175.10303 
L 135.135449 263.26388 
L 135.337806 270.312912 
L 135.540163 272.999407 
L 135.74252 270.380511 
L 135.944878 263.095867 
L 136.754306 208.620507 
L 136.956664 199.625435 
L 137.159021 204.27796 
L 137.563735 198.452873 
L 137.766092 196.963878 
L 138.373164 198.659427 
L 138.575521 197.781823 
L 138.980236 205.712357 
L 139.182593 214.454452 
L 139.992022 280.201604 
L 140.396736 286.343998 
L 140.599093 281.260563 
L 140.801451 272.830665 
L 141.408522 232.79635 
L 142.015594 216.567302 
L 142.420308 212.406267 
L 142.622665 209.627269 
L 142.825023 208.890883 
L 143.02738 208.696838 
L 143.229737 209.282206 
L 143.432094 211.008448 
L 143.836809 219.405882 
L 144.039166 223.957811 
L 144.848595 278.335414 
L 145.050952 283.425575 
L 145.253309 284.240581 
L 145.455666 280.425491 
L 145.860381 255.627947 
L 146.265095 227.984964 
L 146.467452 221.367206 
L 147.479238 208.644577 
L 147.681596 204.069941 
L 148.895739 234.476565 
L 149.705168 279.241996 
L 149.907525 285.359583 
L 150.109882 287.076814 
L 150.312239 284.797885 
L 151.931097 228.894805 
L 152.133454 227.572403 
L 152.335811 229.497091 
L 152.538169 234.073462 
L 152.740526 234.834541 
L 152.942883 233.983515 
L 153.14524 234.91778 
L 153.347597 233.580522 
L 153.752312 240.591806 
L 153.954669 244.971373 
L 154.966455 288.362289 
L 155.168812 288.868521 
L 155.37117 284.201844 
L 155.978241 260.478429 
L 156.990027 190.43025 
L 158.001813 153.661154 
L 158.20417 157.812427 
L 158.608885 183.127382 
L 159.620671 274.166495 
L 159.823028 278.600685 
L 160.025385 276.789653 
L 160.227743 269.618141 
L 161.441886 194.362929 
L 161.8466 183.489355 
L 162.251315 176.048984 
L 162.453672 173.46467 
L 162.656029 176.4737 
L 163.060743 192.275012 
L 163.465458 209.687409 
L 164.477244 285.836049 
L 164.679601 287.629171 
L 164.881958 282.532421 
L 165.084316 273.067647 
L 165.691387 233.037203 
L 166.096102 219.850854 
L 166.500816 214.995939 
L 166.90553 190.530697 
L 167.310245 164.792339 
L 167.512602 165.35273 
L 167.714959 173.26347 
L 168.524388 225.672883 
L 168.929102 259.725175 
L 169.333817 276.741115 
L 169.536174 278.842747 
L 169.738531 277.355765 
L 169.940888 269.333351 
L 171.155032 187.079232 
L 171.559746 166.278491 
L 172.166818 152.880063 
L 172.369175 152.355858 
L 172.571532 157.328964 
L 172.976247 180.397628 
L 173.380961 215.887089 
L 173.785675 260.753539 
L 174.19039 281.444311 
L 174.392747 284.515257 
L 174.595104 282.372864 
L 174.797461 274.624629 
L 175.60689 224.29133 
L 176.821034 172.728766 
L 177.225748 163.072631 
L 177.428105 167.203077 
L 177.630462 174.691397 
L 178.035177 199.369266 
L 178.844606 280.507743 
L 179.046963 287.830351 
L 179.24932 289.420733 
L 179.451677 287.798196 
L 179.856392 266.487927 
L 180.261106 239.077987 
L 180.66582 216.391207 
L 181.677607 156.280289 
L 182.082321 147.020794 
L 182.284678 149.889893 
L 182.487035 157.261944 
L 183.094107 207.08462 
L 183.498821 245.724111 
L 183.903536 263.696705 
L 184.105893 268.93512 
L 184.30825 268.066597 
L 184.510607 265.670444 
L 184.915322 254.192866 
L 185.117679 240.940653 
L 185.927108 161.103865 
L 186.129465 148.563619 
L 186.53418 140.552326 
L 186.736537 142.094063 
L 187.141251 160.559687 
L 188.962466 270.645744 
L 189.164823 272.54204 
L 189.569538 260.042612 
L 189.771895 253.166408 
L 190.176609 224.318467 
L 190.783681 178.298335 
L 191.188395 155.62843 
L 191.390752 152.956507 
L 191.59311 156.293824 
L 192.402539 190.572199 
L 192.807253 213.312272 
L 193.414325 259.296763 
L 193.819039 275.184184 
L 194.021396 275.843712 
L 194.223753 272.579451 
L 194.830825 245.742543 
L 195.437897 201.177141 
L 195.640254 192.204404 
L 195.842611 189.228813 
L 196.044968 191.274181 
L 196.65204 210.781443 
L 196.854397 210.905166 
L 197.259112 215.02301 
L 197.461469 219.30909 
L 197.866183 247.177901 
L 198.270898 278.189643 
L 198.473255 285.393222 
L 198.675612 288.444133 
L 198.877969 285.121388 
L 199.080326 275.8362 
L 199.687398 222.328811 
L 200.901541 179.399836 
L 201.306256 164.277978 
L 201.508613 161.995962 
L 201.71097 163.507518 
L 202.115684 182.827881 
L 202.520399 210.561511 
L 202.925113 250.222324 
L 203.329828 270.547775 
L 203.532185 271.166404 
L 203.734542 266.630643 
L 203.936899 258.267677 
L 204.543971 214.385749 
L 205.758114 170.928472 
L 205.960471 165.967436 
L 206.162829 165.235047 
L 206.567543 176.839045 
L 207.174615 198.766091 
L 207.579329 235.097084 
L 207.984044 263.753409 
L 208.186401 270.747133 
L 208.388758 272.554965 
L 208.591115 269.629004 
L 208.793472 260.22922 
L 209.602901 207.443512 
L 210.41233 176.023115 
L 211.019402 138.849541 
L 211.221759 133.521323 
L 211.424116 139.832158 
L 212.233545 199.499254 
L 212.638259 242.142932 
L 213.042974 261.525526 
L 213.245331 264.872392 
L 213.447688 264.41715 
L 213.650045 256.53666 
L 214.459474 200.474627 
L 214.864189 178.203522 
L 215.47126 129.190017 
L 215.875975 110.941371 
L 216.078332 109.829655 
L 216.280689 115.592138 
L 216.483046 125.172822 
L 217.090118 174.583332 
L 217.697189 237.855622 
L 218.101904 255.217514 
L 218.304261 257.621645 
L 218.708976 247.933902 
L 218.911333 241.585612 
L 219.518404 196.914051 
L 219.923119 168.341272 
L 220.327833 152.248434 
L 220.53019 149.942882 
L 220.732548 155.549472 
L 222.75612 273.321056 
L 222.958477 280.549089 
L 223.160834 279.823396 
L 223.363191 274.941387 
L 223.970263 250.882606 
L 224.577335 216.237053 
L 224.779692 214.756074 
L 224.982049 215.532637 
L 225.184406 217.601535 
L 225.589121 224.818311 
L 225.993835 230.077605 
L 226.196192 231.968148 
L 226.600907 238.922981 
L 227.005621 261.89768 
L 227.410335 290.382806 
L 227.612693 298.092385 
L 227.81505 299.56233 
L 228.017407 297.685975 
L 228.219764 290.446092 
L 228.826836 246.365478 
L 229.029193 241.485556 
L 229.23155 241.775408 
L 229.433908 239.254958 
L 229.838622 224.267062 
L 230.445694 193.902942 
L 230.850408 184.254447 
L 231.052765 185.857562 
L 231.45748 208.823258 
L 232.266908 280.481943 
L 232.469266 286.050217 
L 232.671623 286.876325 
L 232.87398 284.528458 
L 233.076337 278.610417 
L 233.885766 235.430161 
L 234.492838 210.100453 
L 234.897552 191.429298 
L 235.302267 181.066743 
L 235.504624 179.739891 
L 235.706981 183.760466 
L 236.111695 199.773625 
L 236.51641 225.717979 
L 236.921124 265.636019 
L 237.325839 285.205363 
L 237.528196 287.442952 
L 237.730553 284.8942 
L 237.93291 277.173393 
L 238.539982 238.196891 
L 239.551768 203.836832 
L 239.956482 195.672296 
L 240.15884 193.542907 
L 240.361197 192.909184 
L 240.765911 201.247136 
L 241.170626 221.465392 
L 241.980054 281.920117 
L 242.384769 291.148708 
L 242.587126 289.25587 
L 242.789483 281.500154 
L 243.396555 242.328104 
L 244.003626 222.152635 
L 245.015413 181.492352 
L 245.21777 177.991058 
L 245.420127 180.343954 
L 245.824841 195.963424 
L 246.229556 223.863055 
L 246.63427 262.231292 
L 247.038985 281.129603 
L 247.241342 286.028064 
L 247.443699 285.12328 
L 247.646056 277.937485 
L 249.871985 137.629144 
L 250.074343 141.226288 
L 250.2767 148.166526 
L 250.883772 185.897748 
L 251.895558 264.335042 
L 252.097915 270.338768 
L 252.300272 270.106011 
L 252.502629 267.05473 
L 252.704986 261.989048 
L 252.907344 253.990624 
L 253.312058 221.439481 
L 254.121487 152.748349 
L 254.323844 145.534623 
L 254.728558 141.360102 
L 254.930916 141.770126 
L 255.133273 144.410887 
L 255.537987 168.87817 
L 256.145059 223.589811 
L 256.752131 267.989732 
L 256.954488 274.943078 
L 257.156845 277.350063 
L 257.359202 274.713426 
L 257.763917 261.890784 
L 258.370988 215.466959 
L 258.97806 179.215736 
L 259.382774 165.910907 
L 259.585131 164.716474 
L 259.787489 165.111008 
L 259.989846 167.729263 
L 260.192203 172.904166 
L 260.596917 193.740197 
L 261.001632 231.850816 
L 261.406346 270.460217 
L 261.811061 282.171093 
L 262.013418 280.406003 
L 262.215775 273.543371 
L 263.025204 223.309728 
L 263.227561 219.342676 
L 263.429918 218.484851 
L 263.632276 220.766507 
L 263.834633 225.051997 
L 264.03699 226.688368 
L 264.239347 226.839093 
L 264.441704 226.244887 
L 264.644062 227.045105 
L 265.048776 230.841095 
L 265.45349 240.970139 
L 265.655848 250.942422 
L 266.262919 290.342559 
L 266.465277 293.881314 
L 266.667634 293.522444 
L 266.869991 289.609353 
L 267.274705 270.153543 
L 267.67942 248.032782 
L 268.691206 220.450176 
L 269.09592 213.007805 
L 269.298277 210.238098 
L 269.500635 209.31617 
L 269.702992 211.297041 
L 270.310063 226.044433 
L 271.32185 281.244941 
L 271.524207 282.799893 
L 271.726564 280.24713 
L 271.928921 273.989693 
L 272.535993 234.72708 
L 272.940707 217.847652 
L 273.750136 167.089889 
L 274.15485 146.772748 
L 274.357208 141.948732 
L 274.559565 140.342577 
L 274.761922 144.85885 
L 275.166636 167.16913 
L 275.571351 209.121788 
L 275.976065 246.542493 
L 276.178422 254.849164 
L 276.38078 258.230222 
L 276.583137 256.660007 
L 276.785494 251.129515 
L 277.594923 194.760049 
L 278.606709 144.793206 
L 279.011423 136.028326 
L 279.213781 134.749301 
L 279.416138 138.233301 
L 279.618495 145.510256 
L 279.820852 157.728471 
L 281.034995 268.776839 
L 281.237353 275.18986 
L 281.43971 272.688358 
L 281.642067 266.73217 
L 282.451496 216.775341 
L 283.058568 184.686033 
L 283.867996 152.496801 
L 284.070354 150.650804 
L 284.272711 154.50619 
L 284.677425 181.606873 
L 285.08214 217.969752 
L 285.486854 258.49037 
L 285.891568 279.760795 
L 286.093926 284.022635 
L 286.296283 284.138979 
L 286.49864 280.951482 
L 286.903354 266.157245 
L 287.308069 240.57978 
L 288.117498 179.166487 
L 288.724569 156.067076 
L 288.926927 153.33005 
L 289.129284 155.481779 
L 289.331641 162.741245 
L 289.938713 207.471487 
L 290.545784 259.682905 
L 290.950499 274.710509 
L 291.152856 275.754211 
L 291.355213 272.833305 
L 291.759927 261.381597 
L 292.164642 225.888833 
L 292.569356 185.659779 
L 293.176428 142.096112 
L 293.581142 131.96292 
L 293.7835 131.293013 
L 293.985857 133.736359 
L 294.188214 140.627437 
L 294.795286 178.56365 
L 295.402357 244.095866 
L 295.807072 262.069214 
L 296.009429 261.108455 
L 296.211786 255.294015 
L 296.6165 224.024363 
L 297.830644 104.176551 
L 298.033001 89.117798 
L 298.235358 82.628062 
L 298.437715 80.871402 
L 298.640073 83.862604 
L 299.044787 94.929145 
L 299.247144 105.744616 
L 299.651859 142.149283 
L 300.25893 220.31228 
L 300.461287 231.140967 
L 300.663645 233.917813 
L 301.068359 222.746305 
L 301.473073 197.059876 
L 301.877788 159.62576 
L 302.687217 74.311007 
L 302.889574 66.004211 
L 303.091931 69.161778 
L 303.90136 116.116261 
L 304.508432 167.214758 
L 305.115503 229.37657 
L 305.31786 243.474201 
L 305.520218 249.593171 
L 305.722575 248.123182 
L 306.127289 225.445535 
L 306.734361 180.837425 
L 307.746147 119.772964 
L 307.948504 113.534185 
L 308.150861 114.300634 
L 308.96029 161.338483 
L 309.365005 192.967253 
L 309.972076 253.030494 
L 310.376791 265.4067 
L 310.579148 262.522118 
L 310.781505 255.409234 
L 311.590934 188.553465 
L 312.400363 122.336778 
L 312.60272 116.740579 
L 312.805077 117.735228 
L 313.007434 117.413115 
L 313.209791 122.550475 
L 313.614506 141.723776 
L 314.221578 185.040214 
L 314.828649 241.897397 
L 315.031006 251.687089 
L 315.233364 254.334872 
L 315.435721 252.913175 
L 315.638078 244.956593 
L 316.24515 203.801466 
L 316.649864 194.776251 
L 317.66165 178.672092 
L 318.066364 182.887304 
L 318.268722 185.401879 
L 318.673436 197.129967 
L 318.875793 205.368993 
L 319.887579 268.993415 
L 320.089937 272.928357 
L 320.292294 273.431182 
L 320.494651 270.07786 
L 321.101723 245.517776 
L 321.708794 206.880815 
L 322.315866 167.918958 
L 322.72058 153.24187 
L 322.922937 153.55947 
L 323.125295 154.973805 
L 323.530009 173.462249 
L 324.137081 219.220593 
L 324.744152 260.377116 
L 325.148867 268.201424 
L 325.351224 265.966538 
L 325.755938 254.048132 
L 326.160653 222.041065 
L 327.172439 133.747876 
L 327.374796 128.952237 
L 327.577153 130.295434 
L 327.981868 134.248733 
L 328.386582 152.085595 
L 329.600725 263.282048 
L 329.803083 267.241313 
L 330.00544 266.658228 
L 330.207797 260.930277 
L 330.410154 250.705447 
L 331.42194 166.997251 
L 332.029012 140.697946 
L 332.231369 139.920194 
L 332.433726 142.197306 
L 332.838441 153.764661 
L 333.040798 162.042363 
L 333.850227 225.184186 
L 334.254941 264.724132 
L 334.457298 272.827566 
L 334.659655 275.026248 
L 334.862013 273.780215 
L 335.06437 266.029346 
L 335.873799 216.460659 
L 336.885585 178.550216 
L 337.087942 178.485843 
L 337.290299 177.952446 
L 337.492656 179.729896 
L 338.099728 199.06494 
L 338.504442 220.360728 
L 338.909157 256.881059 
L 339.313871 275.208028 
L 339.516228 279.152551 
L 339.718586 275.989087 
L 339.920943 266.993292 
L 340.730372 215.682989 
L 341.539801 180.850909 
L 342.146872 152.332051 
L 342.349229 148.350029 
L 342.551587 149.834924 
L 342.753944 153.671218 
L 343.158658 172.738246 
L 343.361015 186.397974 
L 343.76573 231.09285 
L 344.170444 252.48189 
L 344.372801 254.599514 
L 344.575159 252.133417 
L 344.777516 245.09638 
L 345.18223 217.481722 
L 345.991659 152.424494 
L 346.396374 119.932326 
L 346.801088 106.970168 
L 347.003445 106.078932 
L 347.205802 109.281108 
L 347.610517 121.687151 
L 348.015231 147.351206 
L 348.419946 189.833583 
L 348.82466 233.750877 
L 349.229374 251.879688 
L 349.431732 251.849255 
L 349.634089 245.093972 
L 350.24116 201.534341 
L 351.252947 121.061318 
L 351.657661 107.259347 
L 351.860018 103.461853 
L 352.062375 103.757418 
L 352.264733 106.407615 
L 352.46709 115.02199 
L 352.871804 149.99218 
L 353.88359 252.682423 
L 354.085947 258.967018 
L 354.288305 259.88064 
L 354.490662 256.834671 
L 354.693019 251.663697 
L 354.895376 242.590282 
L 355.300091 205.966945 
L 355.907162 131.136881 
L 356.311877 110.264215 
L 356.514234 108.27752 
L 356.716591 104.448078 
L 356.918948 102.816519 
L 357.121306 104.590341 
L 357.323663 113.420789 
L 357.930734 168.784683 
L 358.740163 246.745572 
L 358.94252 254.993137 
L 359.144878 256.638337 
L 359.347235 254.07331 
L 359.751949 239.439341 
L 359.954306 223.904165 
L 360.966092 107.734254 
L 361.16845 97.612937 
L 361.775521 90.973583 
L 361.977879 91.128834 
L 362.180236 97.452644 
L 362.58495 128.427491 
L 362.989665 171.066134 
L 363.394379 221.521323 
L 363.596736 233.584615 
L 363.799093 237.920071 
L 364.001451 237.46486 
L 364.203808 231.164548 
L 364.608522 202.700498 
L 365.417951 104.022482 
L 365.822665 66.461063 
L 366.025023 57.545897 
L 366.22738 55.8 
L 366.429737 56.693298 
L 366.632094 59.130509 
L 366.834451 63.072215 
L 367.036809 70.018061 
L 367.239166 82.619412 
L 367.846238 153.199455 
L 368.250952 201.961062 
L 368.453309 214.811396 
L 368.655666 218.12875 
L 368.858024 217.651603 
L 369.060381 213.197052 
L 369.465095 190.793155 
L 369.86981 152.159361 
L 370.476881 83.229378 
L 370.881596 63.520191 
L 371.083953 61.262057 
L 371.28631 63.240366 
L 371.488667 67.846291 
L 371.893382 87.906202 
L 372.500453 143.026149 
L 373.309882 220.391868 
L 373.512239 228.393724 
L 373.714597 228.959185 
L 373.916954 225.24238 
L 374.321668 211.496798 
L 374.524025 200.987603 
L 374.92874 157.786747 
L 375.333454 108.776642 
L 375.535811 97.785476 
L 375.738169 93.868438 
L 375.940526 93.945724 
L 376.142883 94.820188 
L 376.34524 97.13031 
L 376.547597 103.545714 
L 376.952312 137.037277 
L 377.761741 206.189865 
L 378.166455 235.538371 
L 378.368812 242.680267 
L 378.57117 244.983192 
L 378.773527 237.073014 
L 379.178241 207.724181 
L 380.190027 112.237596 
L 380.594742 92.264326 
L 380.797099 88.698476 
L 380.999456 88.419456 
L 381.40417 91.356116 
L 381.606528 97.568429 
L 382.011242 127.363049 
L 382.415956 168.045172 
L 382.820671 211.469192 
L 383.023028 222.283526 
L 383.225385 224.942247 
L 383.427743 222.615987 
L 383.832457 207.462076 
L 384.237171 183.339966 
L 384.237171 183.339966 
" clip-path="url(#pa73b080ccc)" style="fill: none; stroke: #ff7f0e; stroke-width: 1.5; stroke-linecap: square"/>
   </g>
   <g id="line2d_15">
    <path d="M 384.439529 168.493971 
L 385.0466 136.746954 
L 385.451315 126.503918 
L 385.653672 124.321958 
L 385.856029 123.8317 
L 386.058386 127.093183 
L 386.463101 143.630727 
L 387.070172 185.716924 
L 387.879601 246.635515 
L 388.081958 252.746897 
L 388.284316 253.848605 
L 388.486673 248.979823 
L 389.700816 192.103889 
L 390.10553 184.912419 
L 390.307888 182.928726 
L 390.510245 182.240845 
L 390.712602 184.305559 
L 391.117316 193.383587 
L 391.724388 217.969496 
L 392.533817 264.536964 
L 392.736174 270.329345 
L 392.938531 272.560006 
L 393.140888 270.418795 
L 393.343246 264.157304 
L 394.557389 210.591636 
L 395.164461 195.555034 
L 395.569175 189.992204 
L 395.771532 190.648049 
L 395.973889 193.622943 
L 396.378604 207.415461 
L 397.39039 258.823893 
L 397.592747 262.057653 
L 397.795104 261.73486 
L 397.997461 257.888262 
L 398.402176 242.063568 
L 399.211605 209.597507 
L 399.616319 200.742321 
L 400.021034 196.011276 
L 400.223391 196.065852 
L 400.425748 198.506866 
L 401.03282 214.79422 
L 401.437534 228.498557 
L 402.044606 251.467552 
L 402.246963 255.0482 
L 402.44932 256.499607 
L 402.651677 255.43868 
L 402.854034 251.376065 
L 404.068178 211.010769 
L 404.472892 207.238524 
L 404.675249 207.016498 
L 404.877607 208.23708 
L 405.282321 212.939976 
L 405.889393 223.275577 
L 406.294107 233.442713 
L 406.698821 244.650127 
L 407.103536 250.316778 
L 407.305893 250.253681 
L 407.50825 247.977989 
L 407.912965 236.675233 
L 408.520036 218.976083 
L 408.924751 213.049924 
L 409.127108 212.045277 
L 409.329465 212.187196 
L 409.73418 215.201419 
L 410.745966 225.978216 
L 411.757752 243.245661 
L 411.960109 243.62595 
L 412.162466 242.225709 
L 412.56718 233.959233 
L 413.174252 219.866942 
L 413.578966 215.54165 
L 413.781324 214.962714 
L 413.983681 215.331938 
L 414.388395 218.371004 
L 414.79311 221.59331 
L 415.400181 224.97965 
L 415.804896 229.458631 
L 416.411967 237.126754 
L 416.614325 237.811988 
L 416.816682 236.930304 
L 417.221396 231.085328 
L 417.828468 220.755581 
L 418.233182 217.804064 
L 418.435539 217.517529 
L 418.637897 218.219549 
L 419.447325 223.238883 
L 420.054397 224.305718 
L 420.459112 226.852172 
L 421.066183 232.109629 
L 421.26854 232.744395 
L 421.470898 232.21716 
L 421.875612 228.26197 
L 422.482684 221.062363 
L 422.887398 219.133245 
L 423.089755 219.19525 
L 423.292112 219.89631 
L 423.899184 223.210639 
L 424.101541 223.677925 
L 424.303898 223.706596 
L 424.506256 223.534654 
L 424.708613 223.535027 
L 424.91097 223.9341 
L 425.315684 225.949713 
L 425.720399 228.142646 
L 425.922756 228.602781 
L 426.125113 228.351708 
L 426.327471 227.409121 
L 427.339257 220.238361 
L 427.541614 219.966333 
L 427.743971 220.183762 
L 428.148685 221.792186 
L 428.5534 223.271002 
L 428.755757 223.527537 
L 428.958114 223.3923 
L 429.362829 222.875299 
L 429.565186 222.904553 
L 429.767543 223.267073 
L 430.576972 225.637314 
L 430.779329 225.620953 
L 430.981686 225.153348 
L 431.993472 220.565757 
L 432.19583 220.452523 
L 432.398187 220.731298 
L 433.409973 223.080198 
L 433.61233 222.919609 
L 434.219402 222.182178 
L 434.421759 222.305466 
L 435.433545 223.900209 
L 435.635902 223.699722 
L 436.040617 222.473523 
L 436.445331 221.147415 
L 436.647688 220.81121 
L 436.850045 220.788324 
L 437.052403 221.026318 
L 437.861831 222.716197 
L 438.064189 222.749932 
L 438.468903 222.345285 
L 438.873617 221.877265 
L 439.075975 221.863516 
L 439.480689 222.338124 
L 439.885403 222.894853 
L 440.087761 223.008893 
L 440.290118 222.933111 
L 440.694832 222.205872 
L 441.099547 221.346409 
L 441.301904 221.122618 
L 441.504261 221.101447 
L 441.908976 221.570429 
L 442.516047 222.488208 
L 442.718404 222.514941 
L 443.123119 222.17313 
L 443.527833 221.762806 
L 443.73019 221.701741 
L 444.134905 221.961422 
L 444.741976 222.534829 
L 444.944334 222.524596 
L 445.349048 222.100966 
L 445.95612 221.371317 
L 446.158477 221.334853 
L 446.563191 221.649187 
L 447.170263 222.305607 
L 447.37262 222.337122 
L 447.777335 222.08453 
L 448.384406 221.663936 
L 448.789121 221.802427 
L 449.396192 222.252152 
L 449.800907 222.199806 
L 450.812693 221.497493 
L 451.217407 221.695266 
L 451.824479 222.170071 
L 452.229193 222.145522 
L 453.240979 221.675544 
L 453.848051 221.988039 
L 454.252765 222.134239 
L 454.65748 222.008681 
L 455.466908 221.606584 
L 455.871623 221.723621 
L 456.681052 222.103393 
L 457.085766 221.987306 
L 457.692838 221.709145 
L 458.097552 221.731853 
L 459.109338 222.037878 
L 460.525839 221.743147 
L 461.335267 222.030459 
L 461.942339 221.879501 
L 462.549411 221.719401 
L 463.156482 221.867266 
L 463.763554 221.990833 
L 465.382412 221.818253 
L 465.989483 221.978095 
L 466.596555 221.881349 
L 467.203626 221.745973 
L 467.810698 221.844455 
L 468.41777 221.955695 
L 469.227199 221.796361 
L 469.83427 221.771711 
L 471.048413 221.923417 
L 472.060199 221.769992 
L 473.679057 221.85822 
L 474.488486 221.785166 
L 475.904986 221.882075 
L 476.916772 221.800929 
L 478.130916 221.892717 
L 479.345059 221.816009 
L 480.559202 221.880219 
L 481.773345 221.828494 
L 482.785131 221.887172 
L 484.201632 221.840187 
L 485.213418 221.877395 
L 486.629918 221.848843 
L 487.641704 221.867841 
L 488.855848 221.839079 
L 490.069991 221.86014 
L 491.284134 221.846161 
L 492.700635 221.840052 
L 494.117135 221.872886 
L 502.009066 221.848395 
L 505.246782 221.844935 
L 508.889211 221.854023 
L 512.733998 221.856249 
L 518.4 221.851278 
L 518.4 221.851278 
" clip-path="url(#pa73b080ccc)" style="fill: none; stroke: #2ca02c; stroke-width: 1.5; stroke-linecap: square"/>
   </g>
   <g id="patch_3">
    <path d="M 72 320.4 
L 72 43.2 
" style="fill: none; stroke: #000000; stroke-width: 0.8; stroke-linejoin: miter; stroke-linecap: square"/>
   </g>
   <g id="patch_4">
    <path d="M 518.4 320.4 
L 518.4 43.2 
" style="fill: none; stroke: #000000; stroke-width: 0.8; stroke-linejoin: miter; stroke-linecap: square"/>
   </g>
   <g id="patch_5">
    <path d="M 72 320.4 
L 518.4 320.4 
" style="fill: none; stroke: #000000; stroke-width: 0.8; stroke-linejoin: miter; stroke-linecap: square"/>
   </g>
   <g id="patch_6">
    <path d="M 72 43.2 
L 518.4 43.2 
" style="fill: none; stroke: #000000; stroke-width: 0.8; stroke-linejoin: miter; stroke-linecap: square"/>
   </g>
   <g id="text_13">
    <!-- Classic Transformer - model_20231123162542 -->
    <g transform="translate(155.436563 37.2) scale(0.12 -0.12)">
     <defs>
      <path id="DejaVuSans-43" d="M 4122 4306 
L 4122 3641 
Q 3803 3938 3442 4084 
Q 3081 4231 2675 4231 
Q 1875 4231 1450 3742 
Q 1025 3253 1025 2328 
Q 1025 1406 1450 917 
Q 1875 428 2675 428 
Q 3081 428 3442 575 
Q 3803 722 4122 1019 
L 4122 359 
Q 3791 134 3420 21 
Q 3050 -91 2638 -91 
Q 1578 -91 968 557 
Q 359 1206 359 2328 
Q 359 3453 968 4101 
Q 1578 4750 2638 4750 
Q 3056 4750 3426 4639 
Q 3797 4528 4122 4306 
z
" transform="scale(0.015625)"/>
      <path id="DejaVuSans-6c" d="M 603 4863 
L 1178 4863 
L 1178 0 
L 603 0 
L 603 4863 
z
" transform="scale(0.015625)"/>
      <path id="DejaVuSans-61" d="M 2194 1759 
Q 1497 1759 1228 1600 
Q 959 1441 959 1056 
Q 959 750 1161 570 
Q 1363 391 1709 391 
Q 2188 391 2477 730 
Q 2766 1069 2766 1631 
L 2766 1759 
L 2194 1759 
z
M 3341 1997 
L 3341 0 
L 2766 0 
L 2766 531 
Q 2569 213 2275 61 
Q 1981 -91 1556 -91 
Q 1019 -91 701 211 
Q 384 513 384 1019 
Q 384 1609 779 1909 
Q 1175 2209 1959 2209 
L 2766 2209 
L 2766 2266 
Q 2766 2663 2505 2880 
Q 2244 3097 1772 3097 
Q 1472 3097 1187 3025 
Q 903 2953 641 2809 
L 641 3341 
Q 956 3463 1253 3523 
Q 1550 3584 1831 3584 
Q 2591 3584 2966 3190 
Q 3341 2797 3341 1997 
z
" transform="scale(0.015625)"/>
      <path id="DejaVuSans-73" d="M 2834 3397 
L 2834 2853 
Q 2591 2978 2328 3040 
Q 2066 3103 1784 3103 
Q 1356 3103 1142 2972 
Q 928 2841 928 2578 
Q 928 2378 1081 2264 
Q 1234 2150 1697 2047 
L 1894 2003 
Q 2506 1872 2764 1633 
Q 3022 1394 3022 966 
Q 3022 478 2636 193 
Q 2250 -91 1575 -91 
Q 1294 -91 989 -36 
Q 684 19 347 128 
L 347 722 
Q 666 556 975 473 
Q 1284 391 1588 391 
Q 1994 391 2212 530 
Q 2431 669 2431 922 
Q 2431 1156 2273 1281 
Q 2116 1406 1581 1522 
L 1381 1569 
Q 847 1681 609 1914 
Q 372 2147 372 2553 
Q 372 3047 722 3315 
Q 1072 3584 1716 3584 
Q 2034 3584 2315 3537 
Q 2597 3491 2834 3397 
z
" transform="scale(0.015625)"/>
      <path id="DejaVuSans-69" d="M 603 3500 
L 1178 3500 
L 1178 0 
L 603 0 
L 603 3500 
z
M 603 4863 
L 1178 4863 
L 1178 4134 
L 603 4134 
L 603 4863 
z
" transform="scale(0.015625)"/>
      <path id="DejaVuSans-63" d="M 3122 3366 
L 3122 2828 
Q 2878 2963 2633 3030 
Q 2388 3097 2138 3097 
Q 1578 3097 1268 2742 
Q 959 2388 959 1747 
Q 959 1106 1268 751 
Q 1578 397 2138 397 
Q 2388 397 2633 464 
Q 2878 531 3122 666 
L 3122 134 
Q 2881 22 2623 -34 
Q 2366 -91 2075 -91 
Q 1284 -91 818 406 
Q 353 903 353 1747 
Q 353 2603 823 3093 
Q 1294 3584 2113 3584 
Q 2378 3584 2631 3529 
Q 2884 3475 3122 3366 
z
" transform="scale(0.015625)"/>
      <path id="DejaVuSans-20" transform="scale(0.015625)"/>
      <path id="DejaVuSans-54" d="M -19 4666 
L 3928 4666 
L 3928 4134 
L 2272 4134 
L 2272 0 
L 1638 0 
L 1638 4134 
L -19 4134 
L -19 4666 
z
" transform="scale(0.015625)"/>
      <path id="DejaVuSans-72" d="M 2631 2963 
Q 2534 3019 2420 3045 
Q 2306 3072 2169 3072 
Q 1681 3072 1420 2755 
Q 1159 2438 1159 1844 
L 1159 0 
L 581 0 
L 581 3500 
L 1159 3500 
L 1159 2956 
Q 1341 3275 1631 3429 
Q 1922 3584 2338 3584 
Q 2397 3584 2469 3576 
Q 2541 3569 2628 3553 
L 2631 2963 
z
" transform="scale(0.015625)"/>
      <path id="DejaVuSans-6e" d="M 3513 2113 
L 3513 0 
L 2938 0 
L 2938 2094 
Q 2938 2591 2744 2837 
Q 2550 3084 2163 3084 
Q 1697 3084 1428 2787 
Q 1159 2491 1159 1978 
L 1159 0 
L 581 0 
L 581 3500 
L 1159 3500 
L 1159 2956 
Q 1366 3272 1645 3428 
Q 1925 3584 2291 3584 
Q 2894 3584 3203 3211 
Q 3513 2838 3513 2113 
z
" transform="scale(0.015625)"/>
      <path id="DejaVuSans-66" d="M 2375 4863 
L 2375 4384 
L 1825 4384 
Q 1516 4384 1395 4259 
Q 1275 4134 1275 3809 
L 1275 3500 
L 2222 3500 
L 2222 3053 
L 1275 3053 
L 1275 0 
L 697 0 
L 697 3053 
L 147 3053 
L 147 3500 
L 697 3500 
L 697 3744 
Q 697 4328 969 4595 
Q 1241 4863 1831 4863 
L 2375 4863 
z
" transform="scale(0.015625)"/>
      <path id="DejaVuSans-6f" d="M 1959 3097 
Q 1497 3097 1228 2736 
Q 959 2375 959 1747 
Q 959 1119 1226 758 
Q 1494 397 1959 397 
Q 2419 397 2687 759 
Q 2956 1122 2956 1747 
Q 2956 2369 2687 2733 
Q 2419 3097 1959 3097 
z
M 1959 3584 
Q 2709 3584 3137 3096 
Q 3566 2609 3566 1747 
Q 3566 888 3137 398 
Q 2709 -91 1959 -91 
Q 1206 -91 779 398 
Q 353 888 353 1747 
Q 353 2609 779 3096 
Q 1206 3584 1959 3584 
z
" transform="scale(0.015625)"/>
      <path id="DejaVuSans-6d" d="M 3328 2828 
Q 3544 3216 3844 3400 
Q 4144 3584 4550 3584 
Q 5097 3584 5394 3201 
Q 5691 2819 5691 2113 
L 5691 0 
L 5113 0 
L 5113 2094 
Q 5113 2597 4934 2840 
Q 4756 3084 4391 3084 
Q 3944 3084 3684 2787 
Q 3425 2491 3425 1978 
L 3425 0 
L 2847 0 
L 2847 2094 
Q 2847 2600 2669 2842 
Q 2491 3084 2119 3084 
Q 1678 3084 1418 2786 
Q 1159 2488 1159 1978 
L 1159 0 
L 581 0 
L 581 3500 
L 1159 3500 
L 1159 2956 
Q 1356 3278 1631 3431 
Q 1906 3584 2284 3584 
Q 2666 3584 2933 3390 
Q 3200 3197 3328 2828 
z
" transform="scale(0.015625)"/>
      <path id="DejaVuSans-65" d="M 3597 1894 
L 3597 1613 
L 953 1613 
Q 991 1019 1311 708 
Q 1631 397 2203 397 
Q 2534 397 2845 478 
Q 3156 559 3463 722 
L 3463 178 
Q 3153 47 2828 -22 
Q 2503 -91 2169 -91 
Q 1331 -91 842 396 
Q 353 884 353 1716 
Q 353 2575 817 3079 
Q 1281 3584 2069 3584 
Q 2775 3584 3186 3129 
Q 3597 2675 3597 1894 
z
M 3022 2063 
Q 3016 2534 2758 2815 
Q 2500 3097 2075 3097 
Q 1594 3097 1305 2825 
Q 1016 2553 972 2059 
L 3022 2063 
z
" transform="scale(0.015625)"/>
      <path id="DejaVuSans-64" d="M 2906 2969 
L 2906 4863 
L 3481 4863 
L 3481 0 
L 2906 0 
L 2906 525 
Q 2725 213 2448 61 
Q 2172 -91 1784 -91 
Q 1150 -91 751 415 
Q 353 922 353 1747 
Q 353 2572 751 3078 
Q 1150 3584 1784 3584 
Q 2172 3584 2448 3432 
Q 2725 3281 2906 2969 
z
M 947 1747 
Q 947 1113 1208 752 
Q 1469 391 1925 391 
Q 2381 391 2643 752 
Q 2906 1113 2906 1747 
Q 2906 2381 2643 2742 
Q 2381 3103 1925 3103 
Q 1469 3103 1208 2742 
Q 947 2381 947 1747 
z
" transform="scale(0.015625)"/>
      <path id="DejaVuSans-5f" d="M 3263 -1063 
L 3263 -1509 
L -63 -1509 
L -63 -1063 
L 3263 -1063 
z
" transform="scale(0.015625)"/>
      <path id="DejaVuSans-34" d="M 2419 4116 
L 825 1625 
L 2419 1625 
L 2419 4116 
z
M 2253 4666 
L 3047 4666 
L 3047 1625 
L 3713 1625 
L 3713 1100 
L 3047 1100 
L 3047 0 
L 2419 0 
L 2419 1100 
L 313 1100 
L 313 1709 
L 2253 4666 
z
" transform="scale(0.015625)"/>
     </defs>
     <use xlink:href="#DejaVuSans-43"/>
     <use xlink:href="#DejaVuSans-6c" x="69.824219"/>
     <use xlink:href="#DejaVuSans-61" x="97.607422"/>
     <use xlink:href="#DejaVuSans-73" x="158.886719"/>
     <use xlink:href="#DejaVuSans-73" x="210.986328"/>
     <use xlink:href="#DejaVuSans-69" x="263.085938"/>
     <use xlink:href="#DejaVuSans-63" x="290.869141"/>
     <use xlink:href="#DejaVuSans-20" x="345.849609"/>
     <use xlink:href="#DejaVuSans-54" x="377.636719"/>
     <use xlink:href="#DejaVuSans-72" x="423.970703"/>
     <use xlink:href="#DejaVuSans-61" x="465.083984"/>
     <use xlink:href="#DejaVuSans-6e" x="526.363281"/>
     <use xlink:href="#DejaVuSans-73" x="589.742188"/>
     <use xlink:href="#DejaVuSans-66" x="641.841797"/>
     <use xlink:href="#DejaVuSans-6f" x="677.046875"/>
     <use xlink:href="#DejaVuSans-72" x="738.228516"/>
     <use xlink:href="#DejaVuSans-6d" x="777.591797"/>
     <use xlink:href="#DejaVuSans-65" x="875.003906"/>
     <use xlink:href="#DejaVuSans-72" x="936.527344"/>
     <use xlink:href="#DejaVuSans-20" x="977.640625"/>
     <use xlink:href="#DejaVuSans-2d" x="1009.427734"/>
     <use xlink:href="#DejaVuSans-20" x="1045.511719"/>
     <use xlink:href="#DejaVuSans-6d" x="1077.298828"/>
     <use xlink:href="#DejaVuSans-6f" x="1174.710938"/>
     <use xlink:href="#DejaVuSans-64" x="1235.892578"/>
     <use xlink:href="#DejaVuSans-65" x="1299.369141"/>
     <use xlink:href="#DejaVuSans-6c" x="1360.892578"/>
     <use xlink:href="#DejaVuSans-5f" x="1388.675781"/>
     <use xlink:href="#DejaVuSans-32" x="1438.675781"/>
     <use xlink:href="#DejaVuSans-30" x="1502.298828"/>
     <use xlink:href="#DejaVuSans-32" x="1565.921875"/>
     <use xlink:href="#DejaVuSans-33" x="1629.544922"/>
     <use xlink:href="#DejaVuSans-31" x="1693.167969"/>
     <use xlink:href="#DejaVuSans-31" x="1756.791016"/>
     <use xlink:href="#DejaVuSans-32" x="1820.414062"/>
     <use xlink:href="#DejaVuSans-33" x="1884.037109"/>
     <use xlink:href="#DejaVuSans-31" x="1947.660156"/>
     <use xlink:href="#DejaVuSans-36" x="2011.283203"/>
     <use xlink:href="#DejaVuSans-32" x="2074.90625"/>
     <use xlink:href="#DejaVuSans-35" x="2138.529297"/>
     <use xlink:href="#DejaVuSans-34" x="2202.152344"/>
     <use xlink:href="#DejaVuSans-32" x="2265.775391"/>
    </g>
   </g>
   <g id="legend_1">
    <g id="patch_7">
     <path d="M 79 95.234375 
L 161.517188 95.234375 
Q 163.517188 95.234375 163.517188 93.234375 
L 163.517188 50.2 
Q 163.517188 48.2 161.517188 48.2 
L 79 48.2 
Q 77 48.2 77 50.2 
L 77 93.234375 
Q 77 95.234375 79 95.234375 
z
" style="fill: #ffffff; opacity: 0.8; stroke: #cccccc; stroke-linejoin: miter"/>
    </g>
    <g id="line2d_16">
     <path d="M 81 56.298437 
L 91 56.298437 
L 101 56.298437 
" style="fill: none; stroke: #1f77b4; stroke-width: 1.5; stroke-linecap: square"/>
    </g>
    <g id="text_14">
     <!-- Measured -->
     <g transform="translate(109 59.798437) scale(0.1 -0.1)">
      <defs>
       <path id="DejaVuSans-4d" d="M 628 4666 
L 1569 4666 
L 2759 1491 
L 3956 4666 
L 4897 4666 
L 4897 0 
L 4281 0 
L 4281 4097 
L 3078 897 
L 2444 897 
L 1241 4097 
L 1241 0 
L 628 0 
L 628 4666 
z
" transform="scale(0.015625)"/>
       <path id="DejaVuSans-75" d="M 544 1381 
L 544 3500 
L 1119 3500 
L 1119 1403 
Q 1119 906 1312 657 
Q 1506 409 1894 409 
Q 2359 409 2629 706 
Q 2900 1003 2900 1516 
L 2900 3500 
L 3475 3500 
L 3475 0 
L 2900 0 
L 2900 538 
Q 2691 219 2414 64 
Q 2138 -91 1772 -91 
Q 1169 -91 856 284 
Q 544 659 544 1381 
z
M 1991 3584 
L 1991 3584 
z
" transform="scale(0.015625)"/>
      </defs>
      <use xlink:href="#DejaVuSans-4d"/>
      <use xlink:href="#DejaVuSans-65" x="86.279297"/>
      <use xlink:href="#DejaVuSans-61" x="147.802734"/>
      <use xlink:href="#DejaVuSans-73" x="209.082031"/>
      <use xlink:href="#DejaVuSans-75" x="261.181641"/>
      <use xlink:href="#DejaVuSans-72" x="324.560547"/>
      <use xlink:href="#DejaVuSans-65" x="363.423828"/>
      <use xlink:href="#DejaVuSans-64" x="424.947266"/>
     </g>
    </g>
    <g id="line2d_17">
     <path d="M 81 70.976562 
L 91 70.976562 
L 101 70.976562 
" style="fill: none; stroke: #ff7f0e; stroke-width: 1.5; stroke-linecap: square"/>
    </g>
    <g id="text_15">
     <!-- Fitted -->
     <g transform="translate(109 74.476562) scale(0.1 -0.1)">
      <defs>
       <path id="DejaVuSans-46" d="M 628 4666 
L 3309 4666 
L 3309 4134 
L 1259 4134 
L 1259 2759 
L 3109 2759 
L 3109 2228 
L 1259 2228 
L 1259 0 
L 628 0 
L 628 4666 
z
" transform="scale(0.015625)"/>
       <path id="DejaVuSans-74" d="M 1172 4494 
L 1172 3500 
L 2356 3500 
L 2356 3053 
L 1172 3053 
L 1172 1153 
Q 1172 725 1289 603 
Q 1406 481 1766 481 
L 2356 481 
L 2356 0 
L 1766 0 
Q 1100 0 847 248 
Q 594 497 594 1153 
L 594 3053 
L 172 3053 
L 172 3500 
L 594 3500 
L 594 4494 
L 1172 4494 
z
" transform="scale(0.015625)"/>
      </defs>
      <use xlink:href="#DejaVuSans-46"/>
      <use xlink:href="#DejaVuSans-69" x="50.269531"/>
      <use xlink:href="#DejaVuSans-74" x="78.052734"/>
      <use xlink:href="#DejaVuSans-74" x="117.261719"/>
      <use xlink:href="#DejaVuSans-65" x="156.470703"/>
      <use xlink:href="#DejaVuSans-64" x="217.994141"/>
     </g>
    </g>
    <g id="line2d_18">
     <path d="M 81 85.654687 
L 91 85.654687 
L 101 85.654687 
" style="fill: none; stroke: #2ca02c; stroke-width: 1.5; stroke-linecap: square"/>
    </g>
    <g id="text_16">
     <!-- Estimated -->
     <g transform="translate(109 89.154687) scale(0.1 -0.1)">
      <defs>
       <path id="DejaVuSans-45" d="M 628 4666 
L 3578 4666 
L 3578 4134 
L 1259 4134 
L 1259 2753 
L 3481 2753 
L 3481 2222 
L 1259 2222 
L 1259 531 
L 3634 531 
L 3634 0 
L 628 0 
L 628 4666 
z
" transform="scale(0.015625)"/>
      </defs>
      <use xlink:href="#DejaVuSans-45"/>
      <use xlink:href="#DejaVuSans-73" x="63.183594"/>
      <use xlink:href="#DejaVuSans-74" x="115.283203"/>
      <use xlink:href="#DejaVuSans-69" x="154.492188"/>
      <use xlink:href="#DejaVuSans-6d" x="182.275391"/>
      <use xlink:href="#DejaVuSans-61" x="279.6875"/>
      <use xlink:href="#DejaVuSans-74" x="340.966797"/>
      <use xlink:href="#DejaVuSans-65" x="380.175781"/>
      <use xlink:href="#DejaVuSans-64" x="441.699219"/>
     </g>
    </g>
   </g>
  </g>
 </g>
 <defs>
  <clipPath id="pa73b080ccc">
   <rect x="72" y="43.2" width="446.4" height="277.2"/>
  </clipPath>
 </defs>
</svg>
