<?xml version="1.0" encoding="utf-8" standalone="no"?>
<!DOCTYPE svg PUBLIC "-//W3C//DTD SVG 1.1//EN"
  "http://www.w3.org/Graphics/SVG/1.1/DTD/svg11.dtd">
<svg xmlns:xlink="http://www.w3.org/1999/xlink" width="576pt" height="360pt" viewBox="0 0 576 360" xmlns="http://www.w3.org/2000/svg" version="1.1">
 <metadata>
  <rdf:RDF xmlns:dc="http://purl.org/dc/elements/1.1/" xmlns:cc="http://creativecommons.org/ns#" xmlns:rdf="http://www.w3.org/1999/02/22-rdf-syntax-ns#">
   <cc:Work>
    <dc:type rdf:resource="http://purl.org/dc/dcmitype/StillImage"/>
    <dc:date>2023-11-26T15:48:30.943079</dc:date>
    <dc:format>image/svg+xml</dc:format>
    <dc:creator>
     <cc:Agent>
      <dc:title>Matplotlib v3.8.1, https://matplotlib.org/</dc:title>
     </cc:Agent>
    </dc:creator>
   </cc:Work>
  </rdf:RDF>
 </metadata>
 <defs>
  <style type="text/css">*{stroke-linejoin: round; stroke-linecap: butt}</style>
 </defs>
 <g id="figure_1">
  <g id="patch_1">
   <path d="M 0 360 
L 576 360 
L 576 0 
L 0 0 
z
" style="fill: #ffffff"/>
  </g>
  <g id="axes_1">
   <g id="patch_2">
    <path d="M 72 320.4 
L 518.4 320.4 
L 518.4 43.2 
L 72 43.2 
z
" style="fill: #ffffff"/>
   </g>
   <g id="matplotlib.axis_1">
    <g id="xtick_1">
     <g id="line2d_1">
      <defs>
       <path id="mfb1b5f1864" d="M 0 0 
L 0 3.5 
" style="stroke: #000000; stroke-width: 0.8"/>
      </defs>
      <g>
       <use xlink:href="#mfb1b5f1864" x="129.874161" y="320.4" style="stroke: #000000; stroke-width: 0.8"/>
      </g>
     </g>
     <g id="text_1">
      <!-- 2020-05-15 -->
      <g transform="translate(100.816349 334.998438) scale(0.1 -0.1)">
       <defs>
        <path id="DejaVuSans-32" d="M 1228 531 
L 3431 531 
L 3431 0 
L 469 0 
L 469 531 
Q 828 903 1448 1529 
Q 2069 2156 2228 2338 
Q 2531 2678 2651 2914 
Q 2772 3150 2772 3378 
Q 2772 3750 2511 3984 
Q 2250 4219 1831 4219 
Q 1534 4219 1204 4116 
Q 875 4013 500 3803 
L 500 4441 
Q 881 4594 1212 4672 
Q 1544 4750 1819 4750 
Q 2544 4750 2975 4387 
Q 3406 4025 3406 3419 
Q 3406 3131 3298 2873 
Q 3191 2616 2906 2266 
Q 2828 2175 2409 1742 
Q 1991 1309 1228 531 
z
" transform="scale(0.015625)"/>
        <path id="DejaVuSans-30" d="M 2034 4250 
Q 1547 4250 1301 3770 
Q 1056 3291 1056 2328 
Q 1056 1369 1301 889 
Q 1547 409 2034 409 
Q 2525 409 2770 889 
Q 3016 1369 3016 2328 
Q 3016 3291 2770 3770 
Q 2525 4250 2034 4250 
z
M 2034 4750 
Q 2819 4750 3233 4129 
Q 3647 3509 3647 2328 
Q 3647 1150 3233 529 
Q 2819 -91 2034 -91 
Q 1250 -91 836 529 
Q 422 1150 422 2328 
Q 422 3509 836 4129 
Q 1250 4750 2034 4750 
z
" transform="scale(0.015625)"/>
        <path id="DejaVuSans-2d" d="M 313 2009 
L 1997 2009 
L 1997 1497 
L 313 1497 
L 313 2009 
z
" transform="scale(0.015625)"/>
        <path id="DejaVuSans-35" d="M 691 4666 
L 3169 4666 
L 3169 4134 
L 1269 4134 
L 1269 2991 
Q 1406 3038 1543 3061 
Q 1681 3084 1819 3084 
Q 2600 3084 3056 2656 
Q 3513 2228 3513 1497 
Q 3513 744 3044 326 
Q 2575 -91 1722 -91 
Q 1428 -91 1123 -41 
Q 819 9 494 109 
L 494 744 
Q 775 591 1075 516 
Q 1375 441 1709 441 
Q 2250 441 2565 725 
Q 2881 1009 2881 1497 
Q 2881 1984 2565 2268 
Q 2250 2553 1709 2553 
Q 1456 2553 1204 2497 
Q 953 2441 691 2322 
L 691 4666 
z
" transform="scale(0.015625)"/>
        <path id="DejaVuSans-31" d="M 794 531 
L 1825 531 
L 1825 4091 
L 703 3866 
L 703 4441 
L 1819 4666 
L 2450 4666 
L 2450 531 
L 3481 531 
L 3481 0 
L 794 0 
L 794 531 
z
" transform="scale(0.015625)"/>
       </defs>
       <use xlink:href="#DejaVuSans-32"/>
       <use xlink:href="#DejaVuSans-30" x="63.623047"/>
       <use xlink:href="#DejaVuSans-32" x="127.246094"/>
       <use xlink:href="#DejaVuSans-30" x="190.869141"/>
       <use xlink:href="#DejaVuSans-2d" x="254.492188"/>
       <use xlink:href="#DejaVuSans-30" x="290.576172"/>
       <use xlink:href="#DejaVuSans-35" x="354.199219"/>
       <use xlink:href="#DejaVuSans-2d" x="417.822266"/>
       <use xlink:href="#DejaVuSans-31" x="453.90625"/>
       <use xlink:href="#DejaVuSans-35" x="517.529297"/>
      </g>
     </g>
    </g>
    <g id="xtick_2">
     <g id="line2d_2">
      <g>
       <use xlink:href="#mfb1b5f1864" x="212.435902" y="320.4" style="stroke: #000000; stroke-width: 0.8"/>
      </g>
     </g>
     <g id="text_2">
      <!-- 2020-06-01 -->
      <g transform="translate(183.37809 334.998438) scale(0.1 -0.1)">
       <defs>
        <path id="DejaVuSans-36" d="M 2113 2584 
Q 1688 2584 1439 2293 
Q 1191 2003 1191 1497 
Q 1191 994 1439 701 
Q 1688 409 2113 409 
Q 2538 409 2786 701 
Q 3034 994 3034 1497 
Q 3034 2003 2786 2293 
Q 2538 2584 2113 2584 
z
M 3366 4563 
L 3366 3988 
Q 3128 4100 2886 4159 
Q 2644 4219 2406 4219 
Q 1781 4219 1451 3797 
Q 1122 3375 1075 2522 
Q 1259 2794 1537 2939 
Q 1816 3084 2150 3084 
Q 2853 3084 3261 2657 
Q 3669 2231 3669 1497 
Q 3669 778 3244 343 
Q 2819 -91 2113 -91 
Q 1303 -91 875 529 
Q 447 1150 447 2328 
Q 447 3434 972 4092 
Q 1497 4750 2381 4750 
Q 2619 4750 2861 4703 
Q 3103 4656 3366 4563 
z
" transform="scale(0.015625)"/>
       </defs>
       <use xlink:href="#DejaVuSans-32"/>
       <use xlink:href="#DejaVuSans-30" x="63.623047"/>
       <use xlink:href="#DejaVuSans-32" x="127.246094"/>
       <use xlink:href="#DejaVuSans-30" x="190.869141"/>
       <use xlink:href="#DejaVuSans-2d" x="254.492188"/>
       <use xlink:href="#DejaVuSans-30" x="290.576172"/>
       <use xlink:href="#DejaVuSans-36" x="354.199219"/>
       <use xlink:href="#DejaVuSans-2d" x="417.822266"/>
       <use xlink:href="#DejaVuSans-30" x="453.90625"/>
       <use xlink:href="#DejaVuSans-31" x="517.529297"/>
      </g>
     </g>
    </g>
    <g id="xtick_3">
     <g id="line2d_3">
      <g>
       <use xlink:href="#mfb1b5f1864" x="280.427924" y="320.4" style="stroke: #000000; stroke-width: 0.8"/>
      </g>
     </g>
     <g id="text_3">
      <!-- 2020-06-15 -->
      <g transform="translate(251.370111 334.998438) scale(0.1 -0.1)">
       <use xlink:href="#DejaVuSans-32"/>
       <use xlink:href="#DejaVuSans-30" x="63.623047"/>
       <use xlink:href="#DejaVuSans-32" x="127.246094"/>
       <use xlink:href="#DejaVuSans-30" x="190.869141"/>
       <use xlink:href="#DejaVuSans-2d" x="254.492188"/>
       <use xlink:href="#DejaVuSans-30" x="290.576172"/>
       <use xlink:href="#DejaVuSans-36" x="354.199219"/>
       <use xlink:href="#DejaVuSans-2d" x="417.822266"/>
       <use xlink:href="#DejaVuSans-31" x="453.90625"/>
       <use xlink:href="#DejaVuSans-35" x="517.529297"/>
      </g>
     </g>
    </g>
    <g id="xtick_4">
     <g id="line2d_4">
      <g>
       <use xlink:href="#mfb1b5f1864" x="358.133092" y="320.4" style="stroke: #000000; stroke-width: 0.8"/>
      </g>
     </g>
     <g id="text_4">
      <!-- 2020-07-01 -->
      <g transform="translate(329.075279 334.998438) scale(0.1 -0.1)">
       <defs>
        <path id="DejaVuSans-37" d="M 525 4666 
L 3525 4666 
L 3525 4397 
L 1831 0 
L 1172 0 
L 2766 4134 
L 525 4134 
L 525 4666 
z
" transform="scale(0.015625)"/>
       </defs>
       <use xlink:href="#DejaVuSans-32"/>
       <use xlink:href="#DejaVuSans-30" x="63.623047"/>
       <use xlink:href="#DejaVuSans-32" x="127.246094"/>
       <use xlink:href="#DejaVuSans-30" x="190.869141"/>
       <use xlink:href="#DejaVuSans-2d" x="254.492188"/>
       <use xlink:href="#DejaVuSans-30" x="290.576172"/>
       <use xlink:href="#DejaVuSans-37" x="354.199219"/>
       <use xlink:href="#DejaVuSans-2d" x="417.822266"/>
       <use xlink:href="#DejaVuSans-30" x="453.90625"/>
       <use xlink:href="#DejaVuSans-31" x="517.529297"/>
      </g>
     </g>
    </g>
    <g id="xtick_5">
     <g id="line2d_5">
      <g>
       <use xlink:href="#mfb1b5f1864" x="426.125113" y="320.4" style="stroke: #000000; stroke-width: 0.8"/>
      </g>
     </g>
     <g id="text_5">
      <!-- 2020-07-15 -->
      <g transform="translate(397.067301 334.998438) scale(0.1 -0.1)">
       <use xlink:href="#DejaVuSans-32"/>
       <use xlink:href="#DejaVuSans-30" x="63.623047"/>
       <use xlink:href="#DejaVuSans-32" x="127.246094"/>
       <use xlink:href="#DejaVuSans-30" x="190.869141"/>
       <use xlink:href="#DejaVuSans-2d" x="254.492188"/>
       <use xlink:href="#DejaVuSans-30" x="290.576172"/>
       <use xlink:href="#DejaVuSans-37" x="354.199219"/>
       <use xlink:href="#DejaVuSans-2d" x="417.822266"/>
       <use xlink:href="#DejaVuSans-31" x="453.90625"/>
       <use xlink:href="#DejaVuSans-35" x="517.529297"/>
      </g>
     </g>
    </g>
    <g id="xtick_6">
     <g id="line2d_6">
      <g>
       <use xlink:href="#mfb1b5f1864" x="508.686854" y="320.4" style="stroke: #000000; stroke-width: 0.8"/>
      </g>
     </g>
     <g id="text_6">
      <!-- 2020-08-01 -->
      <g transform="translate(479.629042 334.998438) scale(0.1 -0.1)">
       <defs>
        <path id="DejaVuSans-38" d="M 2034 2216 
Q 1584 2216 1326 1975 
Q 1069 1734 1069 1313 
Q 1069 891 1326 650 
Q 1584 409 2034 409 
Q 2484 409 2743 651 
Q 3003 894 3003 1313 
Q 3003 1734 2745 1975 
Q 2488 2216 2034 2216 
z
M 1403 2484 
Q 997 2584 770 2862 
Q 544 3141 544 3541 
Q 544 4100 942 4425 
Q 1341 4750 2034 4750 
Q 2731 4750 3128 4425 
Q 3525 4100 3525 3541 
Q 3525 3141 3298 2862 
Q 3072 2584 2669 2484 
Q 3125 2378 3379 2068 
Q 3634 1759 3634 1313 
Q 3634 634 3220 271 
Q 2806 -91 2034 -91 
Q 1263 -91 848 271 
Q 434 634 434 1313 
Q 434 1759 690 2068 
Q 947 2378 1403 2484 
z
M 1172 3481 
Q 1172 3119 1398 2916 
Q 1625 2713 2034 2713 
Q 2441 2713 2670 2916 
Q 2900 3119 2900 3481 
Q 2900 3844 2670 4047 
Q 2441 4250 2034 4250 
Q 1625 4250 1398 4047 
Q 1172 3844 1172 3481 
z
" transform="scale(0.015625)"/>
       </defs>
       <use xlink:href="#DejaVuSans-32"/>
       <use xlink:href="#DejaVuSans-30" x="63.623047"/>
       <use xlink:href="#DejaVuSans-32" x="127.246094"/>
       <use xlink:href="#DejaVuSans-30" x="190.869141"/>
       <use xlink:href="#DejaVuSans-2d" x="254.492188"/>
       <use xlink:href="#DejaVuSans-30" x="290.576172"/>
       <use xlink:href="#DejaVuSans-38" x="354.199219"/>
       <use xlink:href="#DejaVuSans-2d" x="417.822266"/>
       <use xlink:href="#DejaVuSans-30" x="453.90625"/>
       <use xlink:href="#DejaVuSans-31" x="517.529297"/>
      </g>
     </g>
    </g>
   </g>
   <g id="matplotlib.axis_2">
    <g id="ytick_1">
     <g id="line2d_7">
      <defs>
       <path id="me605f7037f" d="M 0 0 
L -3.5 0 
" style="stroke: #000000; stroke-width: 0.8"/>
      </defs>
      <g>
       <use xlink:href="#me605f7037f" x="72" y="315.767807" style="stroke: #000000; stroke-width: 0.8"/>
      </g>
     </g>
     <g id="text_7">
      <!-- −2 -->
      <g transform="translate(50.257812 319.567026) scale(0.1 -0.1)">
       <defs>
        <path id="DejaVuSans-2212" d="M 678 2272 
L 4684 2272 
L 4684 1741 
L 678 1741 
L 678 2272 
z
" transform="scale(0.015625)"/>
       </defs>
       <use xlink:href="#DejaVuSans-2212"/>
       <use xlink:href="#DejaVuSans-32" x="83.789062"/>
      </g>
     </g>
    </g>
    <g id="ytick_2">
     <g id="line2d_8">
      <g>
       <use xlink:href="#me605f7037f" x="72" y="263.684503" style="stroke: #000000; stroke-width: 0.8"/>
      </g>
     </g>
     <g id="text_8">
      <!-- −1 -->
      <g transform="translate(50.257812 267.483722) scale(0.1 -0.1)">
       <use xlink:href="#DejaVuSans-2212"/>
       <use xlink:href="#DejaVuSans-31" x="83.789062"/>
      </g>
     </g>
    </g>
    <g id="ytick_3">
     <g id="line2d_9">
      <g>
       <use xlink:href="#me605f7037f" x="72" y="211.6012" style="stroke: #000000; stroke-width: 0.8"/>
      </g>
     </g>
     <g id="text_9">
      <!-- 0 -->
      <g transform="translate(58.6375 215.400418) scale(0.1 -0.1)">
       <use xlink:href="#DejaVuSans-30"/>
      </g>
     </g>
    </g>
    <g id="ytick_4">
     <g id="line2d_10">
      <g>
       <use xlink:href="#me605f7037f" x="72" y="159.517896" style="stroke: #000000; stroke-width: 0.8"/>
      </g>
     </g>
     <g id="text_10">
      <!-- 1 -->
      <g transform="translate(58.6375 163.317115) scale(0.1 -0.1)">
       <use xlink:href="#DejaVuSans-31"/>
      </g>
     </g>
    </g>
    <g id="ytick_5">
     <g id="line2d_11">
      <g>
       <use xlink:href="#me605f7037f" x="72" y="107.434593" style="stroke: #000000; stroke-width: 0.8"/>
      </g>
     </g>
     <g id="text_11">
      <!-- 2 -->
      <g transform="translate(58.6375 111.233811) scale(0.1 -0.1)">
       <use xlink:href="#DejaVuSans-32"/>
      </g>
     </g>
    </g>
    <g id="ytick_6">
     <g id="line2d_12">
      <g>
       <use xlink:href="#me605f7037f" x="72" y="55.351289" style="stroke: #000000; stroke-width: 0.8"/>
      </g>
     </g>
     <g id="text_12">
      <!-- 3 -->
      <g transform="translate(58.6375 59.150508) scale(0.1 -0.1)">
       <defs>
        <path id="DejaVuSans-33" d="M 2597 2516 
Q 3050 2419 3304 2112 
Q 3559 1806 3559 1356 
Q 3559 666 3084 287 
Q 2609 -91 1734 -91 
Q 1441 -91 1130 -33 
Q 819 25 488 141 
L 488 750 
Q 750 597 1062 519 
Q 1375 441 1716 441 
Q 2309 441 2620 675 
Q 2931 909 2931 1356 
Q 2931 1769 2642 2001 
Q 2353 2234 1838 2234 
L 1294 2234 
L 1294 2753 
L 1863 2753 
Q 2328 2753 2575 2939 
Q 2822 3125 2822 3475 
Q 2822 3834 2567 4026 
Q 2313 4219 1838 4219 
Q 1578 4219 1281 4162 
Q 984 4106 628 3988 
L 628 4550 
Q 988 4650 1302 4700 
Q 1616 4750 1894 4750 
Q 2613 4750 3031 4423 
Q 3450 4097 3450 3541 
Q 3450 3153 3228 2886 
Q 3006 2619 2597 2516 
z
" transform="scale(0.015625)"/>
       </defs>
       <use xlink:href="#DejaVuSans-33"/>
      </g>
     </g>
    </g>
   </g>
   <g id="line2d_13">
    <path d="M 72 287.666608 
L 72.404714 298.704203 
L 72.607072 297.028124 
L 72.809429 286.644608 
L 73.214143 256.556939 
L 73.618858 244.456464 
L 75.035358 163.718494 
L 75.237715 160.836455 
L 75.440073 165.762493 
L 75.64243 173.75453 
L 75.844787 176.963609 
L 76.047144 191.803043 
L 76.654216 260.195258 
L 77.05893 283.619489 
L 77.261287 287.871007 
L 77.463645 287.503088 
L 77.666002 277.078692 
L 78.070716 249.341622 
L 78.475431 237.200266 
L 78.677788 228.30887 
L 79.487217 172.834731 
L 79.891931 156.993737 
L 80.094288 158.894656 
L 80.903717 200.18344 
L 81.713146 273.522133 
L 82.11786 287.789248 
L 82.320218 289.771927 
L 82.522575 289.485767 
L 82.724932 287.032968 
L 82.927289 280.38997 
L 83.332004 258.008179 
L 83.736718 244.068104 
L 83.939075 241.104305 
L 84.141432 241.370025 
L 84.546147 247.604223 
L 84.748504 249.648222 
L 84.950861 249.668662 
L 85.355576 253.75666 
L 85.557933 250.506701 
L 85.76029 256.475179 
L 86.569719 300.257643 
L 86.772076 306.185241 
L 86.974433 307.73868 
L 87.176791 307.8 
L 87.379148 306.49184 
L 87.581505 302.853522 
L 87.783862 296.271844 
L 88.188577 274.789412 
L 88.390934 269.740734 
L 89.200363 261.871337 
L 89.40272 257.844659 
L 89.807434 243.434464 
L 90.212149 241.042985 
L 90.414506 238.406226 
L 90.616863 246.152983 
L 91.223935 295.433805 
L 91.628649 306.185241 
L 91.831006 306.246561 
L 92.033364 303.814201 
L 92.842792 258.846218 
L 93.04515 256.761339 
L 93.449864 248.380942 
L 93.652221 247.869942 
L 93.854578 245.008344 
L 94.056936 244.395144 
L 94.259293 241.840145 
L 94.46165 235.605947 
L 94.664007 232.826108 
L 94.866364 233.725468 
L 95.068722 236.791467 
L 95.271079 233.050948 
L 95.473436 242.903024 
L 96.080508 295.801724 
L 96.485222 304.774881 
L 96.687579 306.63492 
L 96.889937 302.403842 
L 97.699365 258.130819 
L 98.306437 247.890382 
L 98.508794 247.522463 
L 99.52058 226.83719 
L 99.722937 228.06359 
L 99.925295 232.315108 
L 100.127652 230.536829 
L 100.330009 240.429785 
L 100.937081 293.389805 
L 101.341795 305.347201 
L 101.544152 306.307881 
L 101.74651 302.690002 
L 101.948867 291.039206 
L 102.353581 261.769137 
L 102.555938 260.256578 
L 103.567724 242.923464 
L 104.377153 221.379712 
L 104.57951 222.626552 
L 104.781868 227.87963 
L 104.984225 227.85919 
L 105.186582 236.525747 
L 105.793654 290.323807 
L 106.198368 302.751322 
L 106.400725 304.468281 
L 106.603083 300.543803 
L 107.412511 255.780219 
L 107.614869 254.10414 
L 107.817226 250.527141 
L 108.22194 236.362227 
L 108.626655 215.206835 
L 108.829012 209.422317 
L 109.031369 207.582718 
L 109.638441 216.044874 
L 109.840798 221.338832 
L 110.043155 231.477069 
L 110.650227 285.132048 
L 111.054941 299.031243 
L 111.257298 300.891283 
L 111.459655 299.194763 
L 111.662013 288.075407 
L 112.066727 259.561618 
L 112.471442 244.947024 
L 113.887942 178.271769 
L 114.090299 175.962049 
L 114.292656 182.605047 
L 114.495014 193.744843 
L 114.697371 198.221201 
L 115.102085 231.374869 
L 115.709157 279.490611 
L 116.113871 293.083206 
L 116.316228 293.246725 
L 116.518586 291.631966 
L 116.720943 288.095847 
L 117.125657 261.544297 
L 118.542158 159.528296 
L 118.744515 149.676219 
L 118.946872 145.894821 
L 119.149229 149.471819 
L 119.756301 186.386446 
L 120.56573 263.731377 
L 120.970444 283.047169 
L 121.172801 287.032968 
L 121.375159 288.627287 
L 121.577516 287.216928 
L 121.779873 279.490611 
L 122.589302 229.780549 
L 123.196374 204.966399 
L 123.398731 200.51048 
L 123.601088 200.71488 
L 123.803445 200.163 
L 124.410517 213.224155 
L 124.612874 223.914271 
L 125.219946 278.775211 
L 125.62466 292.940126 
L 125.827017 294.881925 
L 126.029374 292.408686 
L 127.04116 237.445546 
L 127.648232 200.9806 
L 128.255304 159.671376 
L 128.457661 152.312978 
L 128.660018 151.985938 
L 129.26709 195.196082 
L 130.278876 283.742129 
L 130.481233 291.366246 
L 130.68359 292.715286 
L 130.885947 290.201167 
L 132.504805 184.035846 
L 133.111877 142.440462 
L 133.314234 133.262905 
L 133.516591 134.918545 
L 133.921306 149.901059 
L 134.123663 157.136816 
L 135.135449 264.242376 
L 135.540163 276.547252 
L 135.74252 275.627452 
L 135.944878 265.305256 
L 136.349592 234.686147 
L 136.551949 228.08403 
L 136.754306 216.514994 
L 136.956664 220.970913 
L 137.159021 209.953757 
L 137.766092 201.34852 
L 137.96845 201.73688 
L 138.373164 196.463362 
L 138.777879 203.821759 
L 138.980236 204.639359 
L 139.182593 216.147074 
L 139.789665 271.355494 
L 140.194379 286.338008 
L 140.396736 288.361567 
L 140.599093 285.418208 
L 141.003808 255.964179 
L 141.408522 235.319787 
L 142.015594 222.258632 
L 142.622665 213.346795 
L 142.825023 213.081076 
L 143.02738 211.895556 
L 143.229737 212.570076 
L 143.634451 217.720954 
L 143.836809 216.514994 
L 144.039166 226.44883 
L 144.646238 274.564572 
L 145.050952 286.358448 
L 145.253309 287.625728 
L 145.455666 284.559729 
L 145.860381 255.63714 
L 146.062738 239.591746 
L 146.66981 223.525912 
L 146.872167 220.909593 
L 147.074524 219.846713 
L 147.479238 209.013517 
L 147.681596 217.271274 
L 147.883953 218.231954 
L 148.08631 220.786953 
L 148.491024 229.882749 
L 148.693382 228.55415 
L 149.098096 251.630901 
L 149.502811 279.122691 
L 149.907525 291.938566 
L 150.109882 293.962125 
L 150.312239 293.389805 
L 150.514597 290.609966 
L 150.716954 284.988969 
L 151.121668 264.426336 
L 151.526383 244.231624 
L 151.931097 238.508426 
L 152.133454 238.079186 
L 152.335811 240.020985 
L 152.538169 240.531985 
L 152.740526 238.508426 
L 152.942883 238.794586 
L 153.14524 237.833906 
L 153.347597 237.874786 
L 153.549955 234.992747 
L 153.752312 237.159386 
L 154.764098 287.891447 
L 154.966455 291.795486 
L 155.168812 293.164965 
L 155.573527 289.281367 
L 155.775884 278.366411 
L 156.78767 201.53248 
L 157.799456 159.507856 
L 158.001813 161.490535 
L 158.406528 174.51081 
L 158.608885 187.878565 
L 159.215956 255.55538 
L 159.620671 276.853852 
L 159.823028 280.02205 
L 160.025385 279.122691 
L 160.227743 269.454574 
L 160.632457 237.445546 
L 161.8466 187.837685 
L 162.251315 177.924289 
L 162.453672 178.067369 
L 162.656029 180.888088 
L 163.465458 212.263476 
L 164.072529 271.294174 
L 164.477244 289.649287 
L 164.679601 289.976327 
L 164.881958 286.787688 
L 165.084316 276.772092 
L 165.48903 245.437583 
L 166.500816 210.832676 
L 167.310245 168.501452 
L 167.512602 171.812731 
L 167.917316 192.109643 
L 168.119674 196.504242 
L 168.322031 207.705358 
L 168.929102 266.306816 
L 169.333817 281.28933 
L 169.536174 284.764129 
L 169.738531 281.14625 
L 170.143246 254.22678 
L 170.54796 224.323071 
L 171.357389 180.356648 
L 171.559746 174.40861 
L 172.166818 150.534699 
L 172.369175 152.129018 
L 172.571532 159.937095 
L 173.178604 198.384721 
L 173.785675 268.514335 
L 174.19039 287.646168 
L 174.392747 290.589526 
L 174.595104 288.790807 
L 174.999819 264.916896 
L 175.404533 240.245825 
L 177.023391 163.043974 
L 177.225748 163.554974 
L 177.428105 167.418133 
L 177.630462 183.790566 
L 177.83282 186.202486 
L 178.237534 229.739669 
L 178.642248 272.091333 
L 179.046963 291.039206 
L 179.24932 294.718405 
L 179.451677 292.224726 
L 179.654034 283.639929 
L 180.261106 244.292944 
L 181.879964 148.55202 
L 182.082321 145.322501 
L 182.284678 150.923059 
L 183.094107 206.560718 
L 183.498821 245.090104 
L 183.903536 266.286376 
L 184.30825 274.033133 
L 184.510607 275.382172 
L 184.712965 271.784733 
L 184.915322 258.560058 
L 185.724751 177.515489 
L 186.129465 156.380537 
L 186.331822 150.391619 
L 186.53418 149.635339 
L 186.736537 152.149458 
L 187.748323 192.130083 
L 188.557752 255.59626 
L 188.962466 269.618094 
L 189.164823 271.641654 
L 189.36718 271.723414 
L 189.569538 270.987574 
L 189.771895 260.317898 
L 190.986038 165.374133 
L 191.188395 160.121055 
L 191.390752 160.080175 
L 191.795467 169.135092 
L 192.604896 200.12212 
L 193.414325 262.811577 
L 193.819039 276.383732 
L 194.021396 277.446611 
L 194.426111 273.522133 
L 194.628468 264.651176 
L 195.437897 204.332759 
L 195.640254 199.365841 
L 195.842611 200.5718 
L 196.247325 206.581158 
L 196.449683 207.153478 
L 196.65204 206.765118 
L 197.056754 214.900235 
L 197.259112 215.738275 
L 197.461469 224.077791 
L 198.06854 271.989133 
L 198.473255 286.051848 
L 198.675612 286.154048 
L 198.877969 282.536169 
L 199.282684 252.019261 
L 199.687398 229.392189 
L 201.306256 163.554974 
L 201.508613 162.410334 
L 202.115684 181.439967 
L 202.318042 192.498003 
L 202.925113 256.025499 
L 203.329828 273.522133 
L 203.532185 275.607012 
L 203.734542 272.643213 
L 203.936899 261.217257 
L 204.341614 227.51171 
L 205.758114 173.30485 
L 205.960471 170.831611 
L 206.162829 170.974691 
L 206.365186 172.385051 
L 206.7699 184.138046 
L 206.972257 187.306245 
L 207.174615 198.057681 
L 207.781686 256.618259 
L 208.186401 272.643213 
L 208.388758 275.668332 
L 208.591115 272.357053 
L 208.793472 260.583618 
L 209.198187 227.06203 
L 209.805258 204.966399 
L 210.209973 185.241806 
L 210.817044 143.891701 
L 211.019402 135.470425 
L 211.221759 138.413783 
L 211.626473 162.696494 
L 211.82883 167.867812 
L 212.031188 182.482407 
L 212.638259 247.011463 
L 213.042974 265.448336 
L 213.245331 269.413694 
L 213.447688 267.717175 
L 213.650045 257.088379 
L 214.257117 214.164395 
L 214.661831 188.021645 
L 215.47126 129.134027 
L 215.875975 112.536753 
L 216.078332 112.066633 
L 216.280689 117.564991 
L 217.090118 180.847208 
L 217.697189 242.289825 
L 218.101904 260.604058 
L 218.304261 263.935776 
L 218.506618 265.284816 
L 218.708976 264.037976 
L 218.911333 251.406061 
L 219.518404 197.035682 
L 220.125476 162.103735 
L 220.327833 159.957535 
L 220.53019 162.165055 
L 221.541976 204.148799 
L 221.744334 209.258797 
L 222.553762 265.714056 
L 222.958477 276.506372 
L 223.160834 278.202891 
L 223.363191 278.550371 
L 223.565549 276.996932 
L 223.767906 268.350815 
L 224.374977 230.434629 
L 224.779692 222.912712 
L 225.386763 224.956711 
L 225.589121 228.45195 
L 225.791478 229.330869 
L 226.196192 237.649946 
L 226.398549 237.302466 
L 226.600907 243.679744 
L 227.410335 296.885044 
L 227.612693 300.891283 
L 227.81505 302.567362 
L 228.017407 299.399163 
L 228.826836 257.129259 
L 229.029193 254.81954 
L 229.23155 249.116782 
L 230.648051 186.182046 
L 230.850408 186.754365 
L 231.255122 201.06236 
L 231.45748 211.875116 
L 232.064551 275.075572 
L 232.469266 292.122526 
L 232.671623 294.820605 
L 232.87398 293.614645 
L 233.278694 268.514335 
L 233.683409 246.152983 
L 235.302267 182.053167 
L 235.504624 181.460407 
L 236.111695 200.42872 
L 236.314053 210.710036 
L 236.921124 272.377493 
L 237.325839 288.136727 
L 237.528196 291.243606 
L 237.730553 289.138287 
L 238.135267 265.366576 
L 238.539982 243.741064 
L 239.349411 213.040196 
L 239.754125 203.106359 
L 240.15884 192.968123 
L 240.361197 192.722843 
L 240.563554 198.139441 
L 240.968268 215.615635 
L 241.170626 223.137552 
L 241.777697 278.264211 
L 242.182412 294.003005 
L 242.384769 296.476244 
L 242.587126 293.512445 
L 242.99184 268.984455 
L 243.396555 251.160781 
L 245.21777 177.065809 
L 245.420127 181.276447 
L 246.027199 207.868877 
L 246.836627 280.79877 
L 247.038985 289.097407 
L 247.241342 292.245166 
L 247.443699 289.731047 
L 247.848413 266.347696 
L 249.467271 155.195017 
L 249.669628 147.18254 
L 249.871985 145.261181 
L 250.074343 145.424701 
L 250.2767 152.312978 
L 250.883772 184.178926 
L 251.6932 258.580498 
L 252.097915 272.990693 
L 252.300272 276.036252 
L 252.502629 276.301972 
L 252.704986 272.459253 
L 253.109701 239.959665 
L 253.91913 167.315933 
L 254.323844 151.638459 
L 254.728558 142.890142 
L 254.930916 141.643302 
L 255.133273 149.083459 
L 255.740345 186.263806 
L 256.549773 260.890218 
L 256.954488 276.240652 
L 257.156845 280.02205 
L 257.359202 281.67769 
L 257.561559 280.71701 
L 257.966274 252.060141 
L 258.573345 202.06392 
L 258.97806 180.561048 
L 259.382774 169.625652 
L 259.585131 166.212173 
L 259.787489 165.782933 
L 259.989846 168.378812 
L 260.39456 184.240246 
L 260.596917 197.485361 
L 261.203989 258.989298 
L 261.608704 277.548811 
L 261.811061 280.45129 
L 262.013418 279.674571 
L 262.418132 255.902859 
L 262.62049 243.986344 
L 263.025204 234.399988 
L 263.227561 231.620149 
L 263.429918 230.618589 
L 263.834633 231.885868 
L 264.03699 231.579269 
L 264.239347 232.519508 
L 264.441704 232.601268 
L 264.644062 232.335548 
L 264.846419 234.359108 
L 265.048776 238.365346 
L 265.251133 238.365346 
L 265.45349 242.351145 
L 266.060562 284.477969 
L 266.465277 297.212084 
L 266.667634 298.745083 
L 266.869991 294.595765 
L 267.072348 286.705928 
L 267.477063 260.420098 
L 268.084134 238.426666 
L 268.488849 228.22711 
L 269.09592 217.066874 
L 269.500635 213.142395 
L 269.702992 215.309035 
L 269.905349 218.886033 
L 270.107706 219.560553 
L 270.310063 225.815191 
L 270.917135 274.278413 
L 271.32185 286.154048 
L 271.524207 288.279807 
L 271.726564 286.583288 
L 274.15485 146.140101 
L 274.357208 139.026983 
L 274.559565 142.338262 
L 275.166636 167.295493 
L 275.976065 248.217422 
L 276.38078 260.685818 
L 276.583137 259.990858 
L 276.987851 238.324466 
L 277.392566 209.647157 
L 278.404352 153.151018 
L 278.606709 150.125899 
L 279.011423 137.003424 
L 279.213781 135.409105 
L 279.416138 139.640183 
L 280.023209 181.031168 
L 280.630281 251.814861 
L 281.034995 274.421493 
L 281.237353 279.265771 
L 281.43971 277.732771 
L 281.642067 271.886933 
L 282.249139 230.455069 
L 282.85621 197.076562 
L 283.867996 154.622697 
L 284.070354 153.437178 
L 284.272711 161.531415 
L 285.284497 243.965904 
L 285.689211 275.893172 
L 286.093926 290.528206 
L 286.296283 292.797046 
L 286.49864 290.998326 
L 286.700997 288.075407 
L 287.105712 257.292779 
L 287.712783 206.131478 
L 288.522212 163.023534 
L 288.724569 155.951297 
L 288.926927 154.029938 
L 289.129284 157.586496 
L 289.736355 191.148964 
L 290.545784 260.706258 
L 290.950499 275.872732 
L 291.152856 278.632131 
L 291.355213 278.713891 
L 291.55757 277.242211 
L 291.759927 264.855576 
L 292.771714 166.907133 
L 293.176428 145.077221 
L 293.581142 133.916985 
L 293.7835 132.200026 
L 293.985857 135.695265 
L 294.592928 161.040855 
L 295.402357 243.720624 
L 295.807072 258.314779 
L 296.009429 258.151259 
L 296.414143 237.997426 
L 297.830644 103.829316 
L 298.235358 90.604641 
L 298.437715 88.029202 
L 298.640073 88.294922 
L 298.84243 90.338922 
L 299.044787 98.330959 
L 299.449501 125.148228 
L 300.056573 203.699119 
L 300.461287 228.79943 
L 300.663645 234.788347 
L 300.866002 235.503747 
L 301.068359 228.71767 
L 301.473073 198.834401 
L 302.484859 94.12032 
L 302.687217 82.857884 
L 302.889574 82.960084 
L 303.091931 91.013441 
L 303.496646 99.618678 
L 303.90136 121.75519 
L 304.306074 149.553579 
L 304.913146 218.415914 
L 305.31786 243.638864 
L 305.520218 249.178102 
L 305.722575 247.399823 
L 305.924932 240.307145 
L 306.532004 200.55136 
L 307.54379 130.891866 
L 307.746147 120.73319 
L 307.948504 119.85427 
L 308.757933 151.965498 
L 309.162647 177.903849 
L 309.769719 240.593305 
L 310.174433 260.379218 
L 310.376791 264.753376 
L 310.579148 264.181056 
L 310.983862 240.879465 
L 312.198005 137.350904 
L 312.60272 125.781868 
L 312.805077 121.42815 
L 313.007434 121.98003 
L 313.209791 125.659228 
L 313.816863 153.110138 
L 314.01922 166.723173 
L 314.626292 229.00383 
L 315.031006 249.402942 
L 315.233364 253.96106 
L 315.435721 253.30698 
L 315.840435 234.624827 
L 316.24515 216.003994 
L 316.649864 204.046599 
L 317.054578 188.818805 
L 317.66165 181.337767 
L 317.864007 180.888088 
L 318.066364 179.988728 
L 318.268722 184.649046 
L 318.875793 206.683358 
L 319.685222 264.998656 
L 320.089937 277.712331 
L 320.292294 279.347531 
L 320.697008 271.457694 
L 321.101723 245.355823 
L 322.315866 167.806492 
L 322.72058 157.606936 
L 322.922937 155.297217 
L 323.125295 159.405656 
L 323.732366 186.897445 
L 324.541795 255.1057 
L 324.94651 269.331934 
L 325.148867 272.213973 
L 325.351224 272.275293 
L 325.553581 270.026894 
L 325.755938 257.762899 
L 326.970082 145.894821 
L 327.172439 139.599303 
L 327.374796 138.025424 
L 327.77951 132.486186 
L 327.981868 137.453104 
L 328.184225 146.201421 
L 328.791296 197.608001 
L 329.196011 241.124745 
L 329.398368 256.291219 
L 329.803083 266.347696 
L 330.00544 265.407456 
L 330.207797 259.827338 
L 330.814869 211.548076 
L 331.42194 173.50925 
L 331.826655 150.943499 
L 332.029012 148.06146 
L 332.231369 148.0819 
L 332.433726 148.26586 
L 332.636083 150.350739 
L 332.838441 154.867977 
L 333.243155 177.679009 
L 333.445512 186.652165 
L 334.052584 252.060141 
L 334.457298 273.746973 
L 334.659655 279.143131 
L 334.862013 276.751652 
L 335.266727 257.006619 
L 335.671442 232.764788 
L 336.48087 192.845483 
L 336.683228 187.796805 
L 336.885585 186.693045 
L 337.087942 180.540608 
L 337.290299 178.701008 
L 337.695014 185.139606 
L 338.099728 199.529361 
L 338.302085 205.375198 
L 339.111514 270.885374 
L 339.313871 277.058252 
L 339.516228 279.286211 
L 339.718586 275.239092 
L 340.1233 251.998821 
L 340.932729 207.746238 
L 342.349229 146.283181 
L 342.551587 146.201421 
L 343.158658 170.770291 
L 343.76573 233.234908 
L 344.170444 251.160781 
L 344.372801 255.902859 
L 344.575159 253.7771 
L 344.777516 246.888823 
L 345.18223 216.147074 
L 346.194016 133.896545 
L 346.598731 119.200191 
L 347.003445 112.618513 
L 347.205802 111.780473 
L 347.40816 114.948672 
L 347.610517 122.756749 
L 348.015231 148.73598 
L 348.82466 239.428226 
L 349.229374 256.454739 
L 349.431732 255.69846 
L 349.634089 249.934382 
L 349.836446 238.855906 
L 351.050589 134.918545 
L 351.455304 116.645192 
L 351.860018 107.835555 
L 352.062375 106.936195 
L 352.264733 110.554074 
L 352.46709 121.59167 
L 353.276519 204.291879 
L 353.681233 242.044545 
L 354.085947 262.137057 
L 354.288305 267.390135 
L 354.490662 267.962455 
L 354.693019 265.734496 
L 355.097733 223.893831 
L 355.704805 150.412059 
L 356.109519 125.822748 
L 356.716591 107.712915 
L 356.918948 106.629595 
L 357.121306 111.412554 
L 357.52602 136.921664 
L 357.728377 149.553579 
L 358.740163 244.599544 
L 359.144878 257.517619 
L 359.347235 259.377658 
L 359.549592 259.050618 
L 359.751949 245.110543 
L 360.763735 125.025589 
L 361.16845 106.036836 
L 361.573164 94.9788 
L 361.775521 92.689521 
L 361.977879 95.959919 
L 362.180236 102.929957 
L 362.58495 128.602587 
L 363.394379 216.964674 
L 363.799093 234.543067 
L 364.001451 235.360667 
L 364.203808 229.494389 
L 364.406165 219.478793 
L 365.013237 150.187219 
L 365.620308 85.883003 
L 366.025023 69.776289 
L 366.429737 63.623852 
L 366.632094 64.114411 
L 366.834451 66.75117 
L 367.036809 75.438167 
L 367.441523 104.524276 
L 368.048595 183.872326 
L 368.453309 214.287035 
L 368.655666 222.790072 
L 368.858024 225.161111 
L 369.060381 221.277512 
L 369.262738 211.445876 
L 369.86981 148.12278 
L 370.476881 90.134522 
L 370.881596 73.557688 
L 371.083953 73.108008 
L 371.28631 73.823408 
L 371.488667 77.747886 
L 371.691024 83.961644 
L 372.298096 122.838509 
L 373.107525 207.623598 
L 373.512239 229.800989 
L 373.714597 234.154708 
L 374.119311 233.459748 
L 374.321668 220.746073 
L 375.333454 117.156191 
L 375.738169 103.931516 
L 375.940526 101.233437 
L 376.142883 100.129678 
L 376.34524 105.300996 
L 376.749955 131.484626 
L 377.559383 190.270044 
L 377.964098 224.854511 
L 378.368812 238.631066 
L 378.57117 238.855906 
L 378.773527 232.928308 
L 378.975884 221.727192 
L 380.392384 105.280556 
L 380.797099 95.36716 
L 381.201813 87.783922 
L 381.40417 91.544881 
L 382.011242 128.520827 
L 382.820671 211.282356 
L 383.225385 227.36863 
L 383.427743 228.02271 
L 383.6301 222.687872 
L 384.034814 200.4696 
L 385.0466 127.110468 
L 385.451315 110.431434 
L 385.653672 109.961314 
L 385.856029 113.742713 
L 386.058386 121.36683 
L 387.070172 191.292044 
L 387.474887 231.374869 
L 387.879601 253.24566 
L 388.284316 262.382337 
L 388.68903 264.896456 
L 388.891387 259.152818 
L 389.700816 215.636075 
L 390.307888 204.434959 
L 390.914959 191.700844 
L 391.117316 196.483802 
L 391.926745 236.035187 
L 392.533817 280.20601 
L 392.938531 292.572206 
L 393.140888 294.432245 
L 393.343246 293.982565 
L 393.545603 294.452685 
L 393.74796 285.499968 
L 394.355032 244.354264 
L 395.569175 187.899005 
L 395.771532 181.889647 
L 395.973889 183.095607 
L 396.176247 191.414684 
L 396.783318 233.439308 
L 397.188033 271.948253 
L 397.592747 289.771927 
L 397.795104 292.551766 
L 397.997461 290.017207 
L 398.402176 271.886933 
L 400.628105 144.300501 
L 400.830462 147.14166 
L 401.03282 157.095936 
L 401.639891 214.123515 
L 402.044606 258.457858 
L 402.44932 278.775211 
L 402.651677 282.781449 
L 402.854034 281.12581 
L 403.258749 262.934217 
L 403.663463 234.522627 
L 404.877607 128.500387 
L 405.282321 107.978635 
L 405.484678 103.767996 
L 405.687035 104.851316 
L 405.889393 115.357472 
L 406.294107 152.721778 
L 406.901179 230.128029 
L 407.305893 254.1859 
L 407.50825 259.786458 
L 407.710607 259.255018 
L 408.115322 238.017866 
L 409.73418 105.750676 
L 409.936537 100.824638 
L 410.138894 100.681558 
L 410.341251 105.280556 
L 410.948323 141.377582 
L 411.15068 157.279896 
L 411.757752 227.85919 
L 412.162466 251.917061 
L 412.364823 258.396539 
L 412.56718 260.174818 
L 412.971895 242.126305 
L 414.388395 144.055221 
L 414.79311 130.523946 
L 415.197824 123.860509 
L 415.400181 130.626146 
L 416.20961 193.152083 
L 416.614325 238.365346 
L 417.019039 261.421657 
L 417.221396 265.673176 
L 417.423753 265.121296 
L 417.828468 248.973702 
L 419.244968 151.290979 
L 419.649683 137.698384 
L 419.85204 133.876105 
L 420.054397 135.306905 
L 420.256754 143.953021 
L 421.066183 209.136157 
L 421.673255 264.119736 
L 422.077969 280.16513 
L 422.280326 282.638369 
L 422.482684 281.98429 
L 422.685041 281.82077 
L 423.089755 251.140341 
L 423.899184 182.257567 
L 424.708613 143.053662 
L 424.91097 139.885463 
L 425.113327 143.871261 
L 425.518042 169.911812 
L 425.720399 181.664807 
L 426.529828 256.005059 
L 426.934542 274.503252 
L 427.136899 278.959171 
L 427.339257 279.756331 
L 427.541614 279.98117 
L 427.743971 271.416814 
L 428.148685 231.231789 
L 428.755757 169.605212 
L 429.160471 144.075661 
L 429.565186 135.858784 
L 429.9699 139.762823 
L 430.374615 155.910417 
L 430.576972 167.499893 
L 431.386401 243.148304 
L 431.791115 255.33054 
L 431.993472 253.30698 
L 432.398187 233.091828 
L 433.207616 168.297052 
L 434.017044 98.249199 
L 434.219402 93.38448 
L 435.02883 120.67187 
L 435.433545 145.547341 
L 436.040617 216.412794 
L 436.445331 238.835466 
L 436.647688 243.945464 
L 436.850045 243.270944 
L 437.25476 222.769632 
L 437.659474 188.021645 
L 438.468903 114.907792 
L 438.67126 105.219236 
L 438.873617 106.179916 
L 439.075975 113.252153 
L 439.278332 112.802473 
L 439.480689 115.030432 
L 439.885403 133.487745 
L 440.290118 158.117936 
L 440.897189 231.170469 
L 441.301904 253.3683 
L 441.504261 258.764458 
L 441.706618 259.295898 
L 442.111333 244.640424 
L 442.920762 192.886363 
L 443.527833 158.199696 
L 444.134905 135.572625 
L 444.337262 132.997186 
L 444.539619 139.374463 
L 445.146691 184.199366 
L 445.753762 253.020821 
L 446.158477 274.114893 
L 446.360834 279.040931 
L 446.563191 277.058252 
L 446.967906 258.253459 
L 448.586763 149.04258 
L 448.991478 135.920104 
L 449.193835 133.610385 
L 449.396192 140.232943 
L 450.003264 180.397528 
L 450.812693 260.011298 
L 451.217407 273.235973 
L 451.419764 273.358613 
L 451.824479 256.270779 
L 452.43155 206.131478 
L 453.038622 164.454334 
L 453.443336 147.50958 
L 453.848051 139.681063 
L 454.050408 143.033222 
L 454.252765 152.967058 
L 454.65748 181.215127 
L 454.859837 189.615964 
L 455.669266 253.9815 
L 456.07398 267.451455 
L 456.276337 268.964015 
L 456.478694 266.981335 
L 456.681052 263.894896 
L 456.883409 255.943739 
L 457.288123 229.08559 
L 457.692838 218.191074 
L 457.895195 218.886033 
L 458.299909 224.609231 
L 458.502267 224.466151 
L 458.906981 220.664313 
L 459.109338 221.195752 
L 459.514053 225.324631 
L 459.71641 229.596589 
L 460.728196 286.971648 
L 461.13291 291.366246 
L 461.537625 288.075407 
L 461.739982 279.204451 
L 462.144696 244.906144 
L 463.561197 176.146009 
L 463.763554 168.930692 
L 463.965911 170.095772 
L 464.572983 189.452444 
L 465.382412 256.025499 
L 465.584769 262.893337 
L 465.787126 265.591416 
L 465.989483 263.179497 
L 467.608341 171.199531 
L 468.620127 150.146339 
L 468.822484 153.253218 
L 469.429556 179.334648 
L 470.036627 235.708147 
L 470.441342 253.38874 
L 470.643699 256.005059 
L 470.846056 253.45006 
L 471.857842 202.840639 
L 472.869628 172.773411 
L 473.071985 173.26397 
L 473.274343 171.485691 
L 473.4767 172.732531 
L 473.679057 176.493489 
L 473.881414 183.034287 
L 474.083772 184.178926 
L 474.286129 191.803043 
L 474.8932 243.597984 
L 475.297915 259.745578 
L 475.500272 261.401217 
L 475.702629 259.377658 
L 476.107344 235.156267 
L 476.512058 213.285475 
L 477.321487 181.991847 
L 477.726201 161.960655 
L 477.928558 158.424536 
L 478.333273 163.084854 
L 478.53563 167.520333 
L 479.142702 192.293603 
L 479.952131 259.643378 
L 480.356845 269.434134 
L 480.559202 269.025335 
L 480.963917 247.072783 
L 482.785131 119.486351 
L 482.987489 113.620073 
L 483.189846 111.003754 
L 483.392203 116.604312 
L 483.999275 156.217017 
L 484.606346 226.87807 
L 485.011061 249.954822 
L 485.213418 254.32898 
L 485.415775 255.26922 
L 485.82049 235.626387 
L 486.225204 204.618919 
L 487.23699 115.214392 
L 487.439347 112.148393 
L 487.844062 118.668751 
L 488.248776 137.166944 
L 489.260562 214.205275 
L 489.665277 246.152983 
L 490.069991 261.155937 
L 490.272348 263.486097 
L 490.474705 262.361897 
L 490.677063 260.604058 
L 490.87942 250.935941 
L 491.891206 171.730971 
L 492.29592 154.132138 
L 492.498277 146.79418 
L 492.700635 144.791061 
L 492.902992 146.40582 
L 493.105349 151.188779 
L 493.712421 184.485526 
L 494.52185 256.005059 
L 495.128921 274.155773 
L 495.331278 274.298853 
L 495.533636 273.685653 
L 495.735993 266.184176 
L 496.950136 175.28753 
L 497.557208 151.086579 
L 497.759565 147.75486 
L 497.961922 150.943499 
L 498.568994 182.237127 
L 499.378422 255.55538 
L 499.58078 262.341457 
L 499.783137 264.814696 
L 499.985494 261.523857 
L 500.187851 253.061701 
L 500.794923 216.392354 
L 500.99728 211.323236 
L 501.401995 198.323401 
L 501.806709 187.142725 
L 502.009066 186.693045 
L 502.211423 188.737045 
L 502.413781 189.370684 
L 502.616138 187.715045 
L 503.020852 197.362721 
L 503.223209 197.914601 
L 503.425567 205.375198 
L 504.032638 255.7189 
L 504.437353 268.698295 
L 504.63971 270.313054 
L 504.842067 267.962455 
L 505.246782 243.761504 
L 505.651496 220.112433 
L 507.270354 147.4687 
L 507.472711 144.382261 
L 507.675068 147.75486 
L 508.28214 175.59413 
L 508.889211 233.214468 
L 509.293926 250.220542 
L 509.496283 253.71578 
L 509.69864 251.896621 
L 510.103354 228.51327 
L 511.722212 122.879389 
L 512.126927 105.239676 
L 512.329284 106.813555 
L 512.936355 140.948343 
L 513.34107 179.620808 
L 513.745784 222.790072 
L 514.150499 245.355823 
L 514.352856 250.895061 
L 514.555213 251.385621 
L 514.75757 242.555544 
L 516.174071 146.46714 
L 516.376428 145.383821 
L 516.781142 154.643137 
L 516.9835 151.924618 
L 517.185857 152.456058 
L 517.590571 170.034452 
L 517.792928 174.24509 
L 517.995286 184.873886 
L 518.4 224.261751 
L 518.4 224.261751 
" clip-path="url(#pace08c8328)" style="fill: none; stroke: #1f77b4; stroke-width: 1.5; stroke-linecap: square"/>
   </g>
   <g id="line2d_14">
    <path d="M 72 263.541322 
L 72.202357 263.541322 
L 72.607072 269.373732 
L 72.809429 269.481871 
L 73.011786 265.570505 
L 73.618858 235.7213 
L 74.023572 212.876799 
L 74.225929 210.679233 
L 74.428286 203.06811 
L 74.833001 175.297447 
L 75.035358 167.142003 
L 75.237715 165.410824 
L 75.440073 164.868689 
L 75.64243 167.122842 
L 76.047144 177.357531 
L 76.451859 207.341198 
L 76.856573 249.526508 
L 77.261287 260.210728 
L 77.463645 261.249438 
L 77.666002 260.086421 
L 78.070716 241.432761 
L 78.475431 221.59431 
L 78.880145 208.891404 
L 79.284859 200.72295 
L 80.094288 166.584377 
L 80.296646 164.684219 
L 80.499003 167.660501 
L 80.903717 188.084733 
L 81.308432 219.600883 
L 81.713146 261.310452 
L 81.915503 268.220147 
L 82.320218 269.823195 
L 82.522575 268.484345 
L 83.129646 252.787303 
L 83.534361 239.354572 
L 83.939075 231.476224 
L 84.34379 230.196427 
L 84.546147 231.861702 
L 84.950861 238.631499 
L 85.153218 239.185264 
L 85.962647 256.133239 
L 86.772076 283.602123 
L 86.974433 285.119271 
L 87.581505 275.75227 
L 88.795648 244.33961 
L 88.998005 241.963251 
L 89.40272 246.419922 
L 90.009791 241.788216 
L 90.212149 241.579748 
L 90.414506 242.30351 
L 90.616863 242.584713 
L 90.81922 248.280319 
L 91.426292 276.035982 
L 91.831006 285.140896 
L 92.033364 282.308982 
L 92.235721 277.667621 
L 93.247507 237.834822 
L 93.449864 235.585004 
L 93.652221 235.88941 
L 93.854578 236.762561 
L 94.056936 236.458689 
L 94.259293 237.203302 
L 94.866364 225.569537 
L 95.068722 228.240154 
L 95.271079 232.928935 
L 95.473436 233.312555 
L 95.675793 241.20116 
L 96.282865 275.291725 
L 96.687579 283.185362 
L 96.889937 282.093431 
L 97.092294 276.008061 
L 97.699365 242.115637 
L 98.10408 235.561227 
L 98.508794 236.206907 
L 98.711151 239.203772 
L 99.52058 220.143009 
L 100.330009 232.841245 
L 100.532366 242.318448 
L 101.139438 280.586167 
L 101.341795 284.62731 
L 101.544152 285.924523 
L 101.948867 275.816867 
L 102.758296 242.532137 
L 102.960653 239.521632 
L 103.16301 238.525065 
L 103.365367 238.927002 
L 103.770082 230.495917 
L 104.377153 222.231375 
L 104.57951 222.493227 
L 104.781868 224.416827 
L 105.388939 241.836371 
L 105.996011 280.410942 
L 106.400725 284.666642 
L 106.603083 282.643215 
L 106.80544 277.295446 
L 107.614869 241.832354 
L 108.019583 237.127844 
L 108.22194 235.715822 
L 108.626655 217.075252 
L 109.031369 199.79503 
L 109.233726 201.572486 
L 109.638441 217.460041 
L 110.043155 230.019999 
L 110.245512 239.295293 
L 110.852584 278.137398 
L 111.054941 280.696826 
L 111.257298 281.730836 
L 111.459655 280.177049 
L 111.662013 275.512579 
L 112.066727 256.970013 
L 112.471442 239.54363 
L 113.078513 222.898329 
L 113.483228 192.89308 
L 113.685585 182.822001 
L 113.887942 179.505725 
L 114.292656 184.644276 
L 114.495014 192.709557 
L 115.709157 270.262859 
L 116.113871 276.357797 
L 116.316228 276.82573 
L 116.720943 267.725311 
L 117.125657 252.494383 
L 117.935086 212.035974 
L 118.339801 174.582223 
L 118.744515 160.692622 
L 118.946872 156.39585 
L 119.149229 156.282657 
L 119.351587 160.917077 
L 119.756301 190.234286 
L 120.56573 258.420398 
L 120.970444 270.746749 
L 121.172801 271.017137 
L 121.375159 269.765092 
L 121.577516 266.805227 
L 121.98223 250.81208 
L 122.791659 211.666097 
L 123.398731 192.709582 
L 123.601088 192.172501 
L 123.803445 192.880244 
L 124.005802 197.775185 
L 124.410517 213.827796 
L 124.612874 221.108066 
L 125.62466 278.516819 
L 125.827017 282.831485 
L 126.029374 281.856266 
L 126.231732 276.849069 
L 127.243518 227.564236 
L 128.457661 160.600123 
L 128.660018 155.881804 
L 128.862375 158.406413 
L 129.26709 184.083682 
L 130.278876 269.894608 
L 130.481233 273.173489 
L 130.68359 274.390553 
L 130.885947 272.417324 
L 131.088305 266.30972 
L 132.100091 211.051887 
L 132.504805 191.547779 
L 133.111877 147.660037 
L 133.314234 138.095856 
L 133.516591 135.998295 
L 133.921306 151.243839 
L 134.528377 194.991942 
L 135.135449 260.494682 
L 135.337806 265.898877 
L 135.540163 268.248397 
L 135.944878 259.702884 
L 136.349592 239.758579 
L 136.956664 203.031156 
L 137.159021 202.020077 
L 137.361378 183.773241 
L 137.563735 184.280483 
L 137.766092 179.385653 
L 137.96845 179.572184 
L 138.373164 192.938759 
L 138.980236 214.251093 
L 139.182593 218.269138 
L 139.38495 226.862141 
L 139.789665 259.481677 
L 139.992022 270.549222 
L 140.194379 273.864133 
L 140.396736 273.40188 
L 140.599093 270.074254 
L 141.003808 256.582844 
L 141.610879 225.969357 
L 142.420308 199.869139 
L 142.622665 197.245052 
L 143.02738 205.81507 
L 143.432094 214.638432 
L 144.039166 226.351531 
L 144.848595 274.576035 
L 145.050952 276.812655 
L 145.253309 276.394336 
L 145.455666 272.470316 
L 145.860381 254.834938 
L 146.265095 231.10199 
L 147.479238 196.321454 
L 147.681596 196.784684 
L 148.288667 218.051956 
L 149.098096 246.200962 
L 149.705168 280.732931 
L 149.907525 283.208329 
L 150.109882 282.46265 
L 150.514597 273.175619 
L 151.931097 227.724995 
L 152.133454 227.41 
L 152.335811 229.908099 
L 152.538169 235.253062 
L 152.740526 237.475502 
L 152.942883 238.31793 
L 153.347597 240.671045 
L 153.549955 244.5757 
L 153.752312 245.171743 
L 153.954669 248.0598 
L 154.966455 284.937043 
L 155.168812 283.484466 
L 155.37117 280.191659 
L 155.775884 268.683796 
L 156.180598 249.47387 
L 156.78767 216.131616 
L 157.192384 187.901008 
L 157.597099 174.909135 
L 157.799456 168.689636 
L 158.001813 166.432521 
L 158.20417 168.63675 
L 158.406528 176.975801 
L 158.811242 208.194257 
L 159.215956 242.693721 
L 159.620671 265.390667 
L 159.823028 270.940458 
L 160.025385 271.360503 
L 160.227743 267.783109 
L 160.632457 244.555863 
L 161.441886 193.288607 
L 161.8466 184.123735 
L 162.453672 163.935119 
L 162.656029 165.518056 
L 162.858386 172.407325 
L 164.072529 254.261362 
L 164.477244 269.915004 
L 164.679601 274.245043 
L 164.881958 274.133955 
L 165.084316 270.160879 
L 165.48903 247.268524 
L 165.893744 227.204748 
L 166.096102 221.142695 
L 166.298459 220.823402 
L 166.500816 219.66517 
L 166.703173 212.234413 
L 167.512602 167.331452 
L 167.714959 172.375722 
L 169.333817 275.823504 
L 169.536174 274.71099 
L 169.738531 270.998281 
L 170.143246 254.3122 
L 171.357389 178.36873 
L 171.762103 156.925381 
L 171.964461 151.81924 
L 172.166818 151.283234 
L 172.369175 154.38633 
L 172.773889 169.346417 
L 173.380961 211.280497 
L 173.785675 255.338194 
L 174.19039 270.20598 
L 174.392747 270.472965 
L 174.595104 267.453849 
L 174.999819 251.584867 
L 175.809248 210.229129 
L 176.213962 194.515729 
L 176.618676 175.715219 
L 177.023391 170.169569 
L 177.225748 170.193945 
L 177.630462 179.972814 
L 178.237534 223.654523 
L 178.642248 261.796266 
L 178.844606 272.623543 
L 179.046963 277.011281 
L 179.24932 276.865187 
L 179.654034 269.217456 
L 180.058749 247.411786 
L 181.677607 164.455654 
L 181.879964 160.335653 
L 182.082321 158.993214 
L 182.284678 162.050142 
L 182.487035 169.774732 
L 183.094107 211.419597 
L 183.903536 262.215026 
L 184.105893 264.523028 
L 184.510607 257.59054 
L 184.712965 253.008473 
L 185.117679 235.502849 
L 185.724751 189.17664 
L 186.129465 148.76307 
L 186.53418 142.918801 
L 186.938894 150.484128 
L 187.343608 173.54252 
L 188.557752 251.224141 
L 188.962466 261.18843 
L 189.164823 260.499835 
L 189.771895 247.15517 
L 190.176609 225.07901 
L 190.581324 194.520075 
L 190.986038 163.12716 
L 191.188395 156.681418 
L 191.390752 155.24478 
L 191.795467 162.032074 
L 192.200181 180.644247 
L 192.807253 217.215487 
L 193.414325 253.918629 
L 193.819039 265.350191 
L 194.021396 266.444582 
L 194.223753 263.698262 
L 194.628468 250.296625 
L 195.033182 230.379002 
L 195.640254 191.679127 
L 195.842611 182.0232 
L 196.044968 180.322525 
L 196.247325 182.551036 
L 196.65204 192.942596 
L 197.461469 221.110435 
L 198.06854 256.505817 
L 198.473255 271.630381 
L 198.675612 274.935215 
L 198.877969 271.95722 
L 199.080326 266.268419 
L 199.485041 244.477926 
L 200.29447 197.486302 
L 201.508613 164.78649 
L 201.71097 165.252921 
L 201.913327 169.504115 
L 202.318042 189.597967 
L 202.520399 203.986004 
L 202.925113 248.211016 
L 203.329828 263.442521 
L 203.532185 266.027995 
L 203.734542 263.426055 
L 203.936899 258.034365 
L 204.543971 219.354993 
L 204.948685 194.428781 
L 205.758114 167.571578 
L 206.162829 156.695587 
L 206.365186 157.598826 
L 206.7699 178.084925 
L 207.579329 231.069554 
L 207.984044 260.571808 
L 208.186401 266.606557 
L 208.388758 266.932334 
L 208.591115 264.0185 
L 208.99583 247.927317 
L 209.805258 199.150338 
L 210.007616 193.336144 
L 210.614687 163.45786 
L 211.019402 152.439128 
L 211.221759 151.344421 
L 211.424116 155.724603 
L 211.82883 180.28426 
L 212.435902 217.283411 
L 212.638259 243.686706 
L 212.840617 255.245478 
L 213.042974 259.216864 
L 213.245331 259.582309 
L 213.447688 257.419158 
L 213.852403 242.860881 
L 215.47126 139.36798 
L 215.673617 134.105495 
L 215.875975 132.101507 
L 216.078332 132.683112 
L 216.280689 136.401732 
L 216.483046 142.936421 
L 217.494832 216.401597 
L 217.697189 241.267371 
L 218.101904 250.651316 
L 218.304261 251.145711 
L 218.708976 243.607261 
L 218.911333 238.081262 
L 219.11369 229.27595 
L 220.327833 149.89675 
L 220.53019 151.983563 
L 220.732548 155.903342 
L 221.137262 175.356071 
L 221.744334 214.763149 
L 222.149048 234.770563 
L 222.553762 257.920632 
L 222.958477 266.009263 
L 223.363191 260.648859 
L 223.565549 258.066036 
L 223.767906 252.615542 
L 224.982049 200.292018 
L 225.184406 205.161095 
L 225.791478 226.936677 
L 225.993835 229.264113 
L 226.803264 247.929148 
L 227.410335 272.634769 
L 227.612693 277.845385 
L 227.81505 279.452263 
L 228.017407 278.551899 
L 228.422121 264.221448 
L 229.029193 238.736379 
L 229.433908 228.470394 
L 229.838622 223.449457 
L 230.445694 202.541915 
L 230.648051 198.396345 
L 230.850408 198.217289 
L 231.052765 196.3399 
L 231.255122 196.958523 
L 231.45748 205.694201 
L 232.266908 270.503842 
L 232.469266 276.789092 
L 232.671623 279.387294 
L 232.87398 278.249455 
L 233.076337 272.247575 
L 234.290481 213.40847 
L 234.695195 205.991296 
L 235.504624 174.171299 
L 235.706981 175.480669 
L 236.111695 198.58863 
L 237.325839 277.774034 
L 237.528196 278.78558 
L 237.730553 276.596184 
L 237.93291 271.851999 
L 238.539982 240.947021 
L 239.147053 215.829075 
L 239.349411 211.767712 
L 239.754125 192.058402 
L 239.956482 189.197439 
L 240.15884 188.952151 
L 240.361197 190.807233 
L 240.563554 195.638978 
L 241.170626 224.471937 
L 241.372983 234.530039 
L 241.980054 276.247038 
L 242.182412 281.043992 
L 242.384769 282.376459 
L 242.587126 280.308701 
L 242.789483 274.546879 
L 243.801269 227.124556 
L 244.003626 223.137795 
L 244.205984 216.804275 
L 244.610698 191.152123 
L 244.813055 182.888491 
L 245.015413 179.192937 
L 245.21777 178.380079 
L 245.420127 182.199381 
L 245.622484 189.444808 
L 246.431913 243.682984 
L 246.836627 271.314682 
L 247.038985 277.021345 
L 247.241342 278.730147 
L 247.443699 277.542594 
L 247.646056 272.363475 
L 248.050771 249.708116 
L 249.669628 148.307188 
L 249.871985 143.142721 
L 250.074343 144.682743 
L 250.2767 150.49025 
L 250.681414 176.800061 
L 251.895558 260.677066 
L 252.097915 263.519603 
L 252.300272 263.136482 
L 252.502629 260.611718 
L 252.704986 255.851737 
L 253.109701 237.240601 
L 253.91913 173.455925 
L 254.323844 147.552413 
L 254.526201 145.365694 
L 254.728558 146.033942 
L 254.930916 148.446352 
L 255.133273 153.313006 
L 255.537987 174.19483 
L 256.549773 253.818537 
L 256.752131 261.880042 
L 256.954488 264.857584 
L 257.156845 264.468037 
L 257.561559 258.475805 
L 257.763917 252.593892 
L 258.370988 217.212078 
L 259.180417 169.962946 
L 259.382774 168.049272 
L 259.585131 168.496257 
L 259.787489 168.066476 
L 259.989846 170.711524 
L 260.192203 176.950655 
L 260.596917 201.957847 
L 261.608704 266.915781 
L 261.811061 271.500611 
L 262.013418 270.221732 
L 262.215775 266.212335 
L 262.62049 246.583171 
L 263.227561 212.914223 
L 263.429918 208.15201 
L 263.632276 209.119815 
L 264.644062 223.693771 
L 264.846419 225.287292 
L 265.655848 246.805968 
L 266.060562 266.567616 
L 266.465277 277.063336 
L 266.667634 279.560676 
L 266.869991 276.926406 
L 267.274705 262.793545 
L 267.67942 245.633362 
L 268.286491 227.985549 
L 268.691206 222.407422 
L 269.09592 213.728175 
L 269.298277 209.102928 
L 269.500635 211.736177 
L 269.905349 222.169807 
L 270.512421 238.858978 
L 271.119492 275.414051 
L 271.32185 279.757861 
L 271.524207 280.33638 
L 271.726564 276.868975 
L 272.131278 259.879401 
L 272.73835 230.688279 
L 273.143064 215.328613 
L 273.952493 162.663641 
L 274.15485 154.915824 
L 274.357208 151.625612 
L 274.559565 151.474999 
L 274.964279 162.91942 
L 275.368994 182.431585 
L 276.178422 252.555453 
L 276.38078 257.984067 
L 276.583137 258.697851 
L 276.785494 254.30691 
L 276.987851 246.962759 
L 278.606709 144.294208 
L 279.011423 140.708848 
L 279.618495 159.796653 
L 280.023209 186.329734 
L 280.427924 218.500813 
L 280.832638 253.247239 
L 281.237353 262.806459 
L 281.43971 260.986116 
L 281.642067 257.536461 
L 281.844424 251.737417 
L 282.85621 199.526622 
L 283.260925 173.525563 
L 283.665639 164.715753 
L 283.867996 163.263077 
L 284.070354 163.057671 
L 284.272711 165.746895 
L 284.677425 189.655774 
L 285.689211 266.864148 
L 285.891568 271.363527 
L 286.093926 272.980445 
L 286.296283 271.449885 
L 286.700997 260.065156 
L 286.903354 254.358052 
L 287.712783 214.342678 
L 288.117498 182.972745 
L 288.319855 171.79811 
L 288.724569 164.778307 
L 288.926927 160.816799 
L 289.129284 161.33326 
L 289.331641 167.336103 
L 289.736355 195.171408 
L 290.748141 264.446418 
L 290.950499 267.389327 
L 291.152856 266.030516 
L 291.55757 257.448954 
L 291.962285 239.25289 
L 292.164642 228.669498 
L 292.974071 158.18641 
L 293.378785 146.070022 
L 293.581142 143.582169 
L 293.7835 144.27683 
L 294.188214 155.451769 
L 294.592928 175.218638 
L 294.997643 204.348228 
L 295.402357 240.210804 
L 295.807072 256.421315 
L 296.009429 257.816355 
L 296.211786 252.981676 
L 296.6165 234.995749 
L 297.425929 152.971118 
L 297.830644 123.041805 
L 298.235358 111.01049 
L 298.437715 108.883699 
L 298.640073 110.700931 
L 299.044787 127.35418 
L 299.651859 165.861 
L 300.461287 234.367606 
L 300.663645 240.800586 
L 300.866002 241.906481 
L 301.068359 239.005866 
L 302.080145 157.935884 
L 302.484859 119.683806 
L 302.889574 100.297189 
L 303.091931 97.951561 
L 303.294288 101.885292 
L 303.496646 109.415123 
L 304.306074 169.60548 
L 305.115503 232.88076 
L 305.31786 244.577705 
L 305.520218 249.79083 
L 305.722575 251.178823 
L 305.924932 246.152167 
L 306.127289 236.224093 
L 306.532004 206.340393 
L 306.936718 184.16159 
L 307.746147 131.853521 
L 307.948504 128.275425 
L 308.150861 131.211679 
L 308.555576 150.940991 
L 308.96029 181.110728 
L 309.365005 213.898659 
L 309.769719 239.026274 
L 310.174433 258.560643 
L 310.376791 261.794168 
L 310.579148 262.475113 
L 310.781505 258.182513 
L 311.186219 238.311013 
L 311.590934 203.174495 
L 312.60272 136.685661 
L 312.805077 132.928062 
L 313.007434 132.215806 
L 313.209791 135.897849 
L 313.614506 158.759409 
L 314.626292 230.395181 
L 315.031006 249.01109 
L 315.233364 251.676378 
L 315.435721 250.532994 
L 315.638078 245.70766 
L 316.042792 224.111559 
L 316.447507 193.096313 
L 317.459293 166.249697 
L 317.66165 165.306013 
L 318.066364 173.816229 
L 318.673436 197.01943 
L 319.280508 228.927959 
L 319.685222 253.750613 
L 320.089937 263.085291 
L 320.292294 261.781179 
L 320.494651 259.358953 
L 321.101723 237.291367 
L 321.708794 208.763199 
L 322.113509 181.629859 
L 322.518223 170.22895 
L 322.72058 168.294073 
L 322.922937 164.545055 
L 323.125295 166.326996 
L 323.530009 181.576389 
L 324.541795 250.692772 
L 324.744152 256.961525 
L 324.94651 259.511733 
L 325.148867 258.384089 
L 325.553581 250.768457 
L 325.755938 244.948396 
L 326.160653 221.946311 
L 327.172439 147.838913 
L 327.374796 145.081057 
L 327.577153 145.069558 
L 327.77951 142.852838 
L 327.981868 143.707928 
L 328.184225 147.025403 
L 328.386582 153.171731 
L 328.791296 181.421287 
L 329.600725 254.838136 
L 329.803083 258.324565 
L 330.00544 258.580461 
L 330.410154 248.959973 
L 330.612511 237.051353 
L 331.017226 198.868863 
L 331.826655 149.276433 
L 332.231369 144.040429 
L 332.433726 145.093208 
L 332.636083 148.311813 
L 333.040798 163.688536 
L 333.647869 204.192877 
L 334.254941 253.170902 
L 334.457298 261.216233 
L 334.659655 264.364045 
L 334.862013 262.983404 
L 335.06437 259.104106 
L 335.266727 252.295571 
L 336.683228 176.96591 
L 336.885585 172.753665 
L 337.290299 169.716673 
L 337.492656 172.415291 
L 337.897371 185.794323 
L 338.7068 237.810334 
L 339.111514 262.784604 
L 339.313871 268.59922 
L 339.516228 270.570307 
L 339.718586 267.935492 
L 340.1233 251.420817 
L 341.539801 175.18367 
L 341.944515 163.333529 
L 342.349229 160.492283 
L 342.551587 160.250878 
L 342.753944 164.306003 
L 343.158658 183.876978 
L 343.563373 209.62122 
L 343.968087 246.074973 
L 344.170444 250.981463 
L 344.372801 253.048855 
L 344.575159 252.180944 
L 344.979873 238.232925 
L 345.18223 225.859552 
L 345.789302 174.691727 
L 346.396374 129.612481 
L 346.598731 124.509072 
L 346.801088 122.475611 
L 347.003445 122.230512 
L 347.205802 124.927323 
L 347.40816 129.973908 
L 347.812874 147.378511 
L 348.622303 206.64631 
L 348.82466 234.563429 
L 349.229374 247.175485 
L 349.431732 248.414168 
L 349.634089 244.018601 
L 349.836446 237.157665 
L 351.252947 129.484306 
L 351.455304 125.371563 
L 351.657661 124.655482 
L 352.062375 128.290376 
L 352.264733 134.237774 
L 352.669447 155.130072 
L 353.88359 252.557291 
L 354.085947 257.072613 
L 354.288305 258.327384 
L 354.693019 250.678094 
L 354.895376 244.50287 
L 355.097733 232.521931 
L 355.502448 198.803044 
L 355.704805 183.727476 
L 356.109519 136.990954 
L 356.311877 130.382672 
L 356.514234 129.183055 
L 356.918948 130.739393 
L 357.121306 134.701299 
L 357.323663 143.327769 
L 357.728377 177.031705 
L 358.335449 224.001982 
L 358.94252 256.534862 
L 359.144878 257.613382 
L 359.549592 250.024107 
L 359.751949 244.241914 
L 359.954306 232.198121 
L 360.763735 146.679609 
L 360.966092 130.385106 
L 361.16845 124.408551 
L 361.370807 122.578373 
L 361.573164 122.123348 
L 361.775521 123.598525 
L 361.977879 126.802062 
L 362.382593 145.408684 
L 363.192022 213.494247 
L 363.596736 237.263538 
L 363.799093 245.972528 
L 364.001451 248.949697 
L 364.203808 245.127558 
L 364.406165 235.898987 
L 365.215594 160.362562 
L 365.620308 123.346894 
L 366.025023 100.369484 
L 366.22738 94.579877 
L 366.429737 93.515016 
L 366.632094 97.658977 
L 367.036809 118.444986 
L 367.64388 166.466893 
L 368.250952 218.508005 
L 368.655666 234.849055 
L 368.858024 238.370745 
L 369.060381 233.716081 
L 369.86981 178.749969 
L 370.881596 103.952379 
L 371.083953 98.750151 
L 371.28631 98.314404 
L 371.488667 103.158297 
L 371.893382 130.150462 
L 373.309882 236.046772 
L 373.512239 243.583258 
L 373.714597 246.218142 
L 373.916954 244.556459 
L 374.321668 230.734232 
L 375.131097 172.576242 
L 375.535811 132.41617 
L 375.738169 123.934515 
L 375.940526 122.264611 
L 376.142883 124.322472 
L 376.34524 128.197505 
L 376.547597 136.954204 
L 376.952312 171.350988 
L 377.357026 214.025359 
L 377.761741 229.264064 
L 378.368812 251.925836 
L 378.57117 254.076395 
L 378.773527 251.667512 
L 379.178241 231.558109 
L 380.392384 132.967463 
L 380.797099 119.309389 
L 380.999456 117.998616 
L 381.201813 119.975359 
L 381.40417 126.211274 
L 381.808885 152.189882 
L 382.618314 219.891804 
L 383.023028 236.167339 
L 383.427743 242.046217 
L 383.6301 238.976107 
L 384.034814 217.253152 
L 384.237171 198.979934 
L 384.237171 198.979934 
" clip-path="url(#pace08c8328)" style="fill: none; stroke: #ff7f0e; stroke-width: 1.5; stroke-linecap: square"/>
   </g>
   <g id="line2d_15">
    <path d="M 384.439529 182.674182 
L 385.248957 151.475291 
L 385.856029 135.531647 
L 386.058386 136.287477 
L 386.463101 158.550215 
L 387.474887 234.728455 
L 387.879601 250.338037 
L 388.081958 250.881147 
L 388.486673 244.784502 
L 388.68903 239.275384 
L 389.700816 189.258807 
L 390.307888 155.569749 
L 390.510245 147.385148 
L 390.712602 145.541894 
L 391.117316 154.174777 
L 391.522031 184.408235 
L 391.926745 220.149275 
L 392.533817 249.699567 
L 392.736174 253.958639 
L 392.938531 252.74656 
L 393.545603 233.908255 
L 394.152675 206.030818 
L 394.962103 144.817586 
L 395.366818 121.221555 
L 395.569175 118.543154 
L 395.771532 120.089179 
L 396.378604 147.736716 
L 396.783318 172.835789 
L 397.188033 191.89167 
L 397.592747 209.510382 
L 397.795104 213.471068 
L 397.997461 212.652914 
L 398.402176 194.380343 
L 399.009248 157.652688 
L 400.021034 90.757583 
L 400.223391 86.329184 
L 400.425748 89.567403 
L 400.830462 108.720543 
L 402.246963 199.77732 
L 402.651677 209.029911 
L 402.854034 209.610766 
L 403.056392 206.309459 
L 403.86582 174.840795 
L 404.675249 122.30431 
L 404.877607 116.467615 
L 405.079964 117.591678 
L 405.282321 122.601191 
L 405.484678 130.788666 
L 407.103536 236.985492 
L 407.305893 240.106062 
L 407.50825 241.022122 
L 407.710607 240.012116 
L 407.912965 238.147501 
L 408.115322 234.642692 
L 408.317679 229.013942 
L 408.722393 211.178875 
L 408.924751 206.955556 
L 409.531822 170.658166 
L 409.936537 161.671187 
L 410.138894 163.675765 
L 410.543608 176.959192 
L 410.948323 199.35763 
L 411.555394 233.897512 
L 411.960109 245.207012 
L 412.162466 247.530629 
L 412.364823 246.040837 
L 413.174252 229.684237 
L 413.578966 210.236748 
L 414.186038 164.34564 
L 414.590752 142.498979 
L 414.79311 140.733267 
L 414.995467 141.721716 
L 415.197824 143.795566 
L 415.602539 152.660504 
L 416.007253 169.921664 
L 416.816682 208.229521 
L 417.221396 213.505819 
L 417.423753 211.455029 
L 417.828468 195.278805 
L 418.233182 169.526137 
L 419.042611 107.463135 
L 419.447325 92.004995 
L 419.649683 91.196757 
L 419.85204 94.055108 
L 420.256754 104.235514 
L 420.863826 128.780748 
L 421.673255 182.038536 
L 421.875612 190.058012 
L 422.077969 192.335585 
L 422.280326 193.13428 
L 422.482684 190.479758 
L 423.089755 171.160676 
L 423.899184 126.146324 
L 424.101541 119.514119 
L 424.303898 118.152327 
L 424.708613 122.91504 
L 425.113327 140.686956 
L 425.518042 165.616379 
L 426.125113 211.724296 
L 426.529828 228.628859 
L 426.934542 236.137858 
L 427.136899 237.613957 
L 427.339257 236.610428 
L 427.541614 233.088086 
L 428.958114 184.241311 
L 429.362829 177.408748 
L 429.565186 177.184535 
L 429.767543 180.374437 
L 429.9699 186.506477 
L 430.981686 237.341328 
L 431.386401 247.959931 
L 431.588758 249.217986 
L 431.791115 248.164208 
L 432.19583 243.372705 
L 432.600544 233.859883 
L 433.005258 218.071133 
L 434.219402 161.582507 
L 434.421759 158.565265 
L 434.624116 157.983506 
L 434.826473 158.655163 
L 435.02883 162.277093 
L 435.838259 197.712538 
L 436.040617 207.272033 
L 436.445331 213.887688 
L 436.647688 215.875208 
L 436.850045 211.91246 
L 437.457117 187.18931 
L 438.266546 120.722677 
L 438.67126 98.72097 
L 439.075975 84.262195 
L 439.278332 85.032672 
L 439.480689 86.254094 
L 439.683046 89.581435 
L 440.290118 108.761907 
L 441.301904 160.821418 
L 441.706618 170.431991 
L 441.908976 171.271447 
L 442.111333 168.242527 
L 442.516047 155.602823 
L 443.325476 118.544849 
L 443.73019 112.368072 
L 443.932548 113.337777 
L 444.134905 117.599519 
L 444.539619 135.474824 
L 444.944334 161.69357 
L 445.551405 208.109209 
L 446.360834 230.146733 
L 446.563191 231.953011 
L 446.765549 232.421158 
L 446.967906 230.635532 
L 447.37262 220.712284 
L 448.182049 199.980575 
L 448.586763 194.246617 
L 448.789121 193.932954 
L 448.991478 194.855193 
L 449.193835 197.710146 
L 449.800907 222.378393 
L 450.205621 238.990996 
L 450.812693 251.433384 
L 451.01505 252.829951 
L 451.217407 252.071309 
L 451.419764 250.39925 
L 451.824479 244.025953 
L 452.43155 230.279892 
L 452.836265 219.584062 
L 453.645694 189.479416 
L 454.050408 182.131407 
L 454.252765 181.72329 
L 454.455122 183.170378 
L 455.062194 200.631831 
L 455.466908 212.031942 
L 455.871623 217.705855 
L 456.07398 216.608412 
L 456.276337 213.001359 
L 456.681052 199.757836 
L 456.883409 187.937742 
L 457.895195 102.30194 
L 458.299909 81.632713 
L 458.704624 71.669827 
L 458.906981 70.522165 
L 459.311695 74.888128 
L 459.514053 78.092323 
L 459.918767 91.669533 
L 461.13291 139.170503 
L 461.335267 140.573508 
L 461.537625 140.448078 
L 461.739982 138.753475 
L 462.954125 113.482008 
L 463.156482 113.874964 
L 463.35884 116.657767 
L 463.763554 132.098298 
L 464.370626 165.612623 
L 465.180054 208.603879 
L 466.19184 226.144427 
L 466.394198 227.334981 
L 466.596555 227.389534 
L 467.001269 226.005408 
L 467.405984 223.521844 
L 467.608341 224.231418 
L 467.810698 224.0698 
L 468.013055 222.799537 
L 468.215413 223.018506 
L 468.41777 224.42872 
L 468.620127 227.062507 
L 468.822484 232.482393 
L 469.227199 245.799879 
L 470.036627 255.180086 
L 470.238985 255.121134 
L 470.643699 253.888976 
L 471.453128 246.82537 
L 471.857842 242.659045 
L 472.262557 236.929361 
L 473.071985 220.806687 
L 473.679057 208.796461 
L 473.881414 208.626466 
L 474.083772 209.643943 
L 474.690843 216.721312 
L 475.095558 215.874163 
L 475.297915 214.854212 
L 475.500272 211.5764 
L 476.107344 193.914051 
L 476.714415 145.581276 
L 477.321487 95.593938 
L 477.726201 74.646357 
L 478.130916 62.542101 
L 478.333273 58.84135 
L 478.53563 58.270077 
L 478.737987 58.662064 
L 478.940345 59.904162 
L 479.547416 74.857792 
L 480.559202 113.210981 
L 480.963917 120.17334 
L 481.368631 126.285792 
L 481.570988 126.98439 
L 481.773345 126.965993 
L 481.975703 127.44129 
L 482.17806 128.339538 
L 482.380417 129.915186 
L 482.582774 132.859566 
L 482.987489 144.354061 
L 484.808704 206.645244 
L 485.011061 209.576589 
L 486.225204 236.595454 
L 486.629918 243.371122 
L 487.034633 246.244138 
L 487.23699 246.515463 
L 487.844062 248.109688 
L 488.65349 251.866281 
L 488.855848 252.274095 
L 489.058205 252.039165 
L 489.260562 252.092009 
L 489.665277 252.544979 
L 489.867634 252.272418 
L 490.272348 251.068368 
L 490.677063 250.865377 
L 490.87942 250.177248 
L 491.486491 246.485164 
L 492.29592 236.96691 
L 492.700635 231.685954 
L 493.105349 227.982105 
L 493.914778 214.115014 
L 494.319492 208.125965 
L 494.926564 195.90045 
L 495.533636 170.69571 
L 496.950136 93.086757 
L 497.557208 69.87738 
L 497.961922 59.657784 
L 498.366636 55.8 
L 498.568994 56.335634 
L 498.771351 58.989095 
L 499.176065 69.48281 
L 500.99728 131.298062 
L 502.211423 156.778717 
L 503.223209 174.184616 
L 503.830281 189.682844 
L 505.853853 246.057908 
L 506.258568 251.252465 
L 506.460925 252.563419 
L 506.663282 252.957567 
L 506.865639 252.981514 
L 507.067996 252.764721 
L 507.675068 251.557747 
L 508.079782 250.901034 
L 508.484497 250.338826 
L 508.686854 250.12546 
L 509.091568 249.459124 
L 509.496283 249.432668 
L 509.900997 249.598506 
L 510.508069 249.190605 
L 510.912783 247.180396 
L 511.317498 243.658093 
L 511.924569 236.064774 
L 512.531641 227.49362 
L 513.543427 201.983966 
L 515.162285 145.798039 
L 515.971714 114.15297 
L 516.9835 74.30517 
L 517.388214 63.967322 
L 517.792928 58.845547 
L 517.995286 58.991243 
L 518.197643 60.612389 
L 518.4 64.009765 
L 518.4 64.009765 
" clip-path="url(#pace08c8328)" style="fill: none; stroke: #2ca02c; stroke-width: 1.5; stroke-linecap: square"/>
   </g>
   <g id="patch_3">
    <path d="M 72 320.4 
L 72 43.2 
" style="fill: none; stroke: #000000; stroke-width: 0.8; stroke-linejoin: miter; stroke-linecap: square"/>
   </g>
   <g id="patch_4">
    <path d="M 518.4 320.4 
L 518.4 43.2 
" style="fill: none; stroke: #000000; stroke-width: 0.8; stroke-linejoin: miter; stroke-linecap: square"/>
   </g>
   <g id="patch_5">
    <path d="M 72 320.4 
L 518.4 320.4 
" style="fill: none; stroke: #000000; stroke-width: 0.8; stroke-linejoin: miter; stroke-linecap: square"/>
   </g>
   <g id="patch_6">
    <path d="M 72 43.2 
L 518.4 43.2 
" style="fill: none; stroke: #000000; stroke-width: 0.8; stroke-linejoin: miter; stroke-linecap: square"/>
   </g>
   <g id="text_13">
    <!-- Classic Transformer - model_20231126154731 -->
    <g transform="translate(155.436563 37.2) scale(0.12 -0.12)">
     <defs>
      <path id="DejaVuSans-43" d="M 4122 4306 
L 4122 3641 
Q 3803 3938 3442 4084 
Q 3081 4231 2675 4231 
Q 1875 4231 1450 3742 
Q 1025 3253 1025 2328 
Q 1025 1406 1450 917 
Q 1875 428 2675 428 
Q 3081 428 3442 575 
Q 3803 722 4122 1019 
L 4122 359 
Q 3791 134 3420 21 
Q 3050 -91 2638 -91 
Q 1578 -91 968 557 
Q 359 1206 359 2328 
Q 359 3453 968 4101 
Q 1578 4750 2638 4750 
Q 3056 4750 3426 4639 
Q 3797 4528 4122 4306 
z
" transform="scale(0.015625)"/>
      <path id="DejaVuSans-6c" d="M 603 4863 
L 1178 4863 
L 1178 0 
L 603 0 
L 603 4863 
z
" transform="scale(0.015625)"/>
      <path id="DejaVuSans-61" d="M 2194 1759 
Q 1497 1759 1228 1600 
Q 959 1441 959 1056 
Q 959 750 1161 570 
Q 1363 391 1709 391 
Q 2188 391 2477 730 
Q 2766 1069 2766 1631 
L 2766 1759 
L 2194 1759 
z
M 3341 1997 
L 3341 0 
L 2766 0 
L 2766 531 
Q 2569 213 2275 61 
Q 1981 -91 1556 -91 
Q 1019 -91 701 211 
Q 384 513 384 1019 
Q 384 1609 779 1909 
Q 1175 2209 1959 2209 
L 2766 2209 
L 2766 2266 
Q 2766 2663 2505 2880 
Q 2244 3097 1772 3097 
Q 1472 3097 1187 3025 
Q 903 2953 641 2809 
L 641 3341 
Q 956 3463 1253 3523 
Q 1550 3584 1831 3584 
Q 2591 3584 2966 3190 
Q 3341 2797 3341 1997 
z
" transform="scale(0.015625)"/>
      <path id="DejaVuSans-73" d="M 2834 3397 
L 2834 2853 
Q 2591 2978 2328 3040 
Q 2066 3103 1784 3103 
Q 1356 3103 1142 2972 
Q 928 2841 928 2578 
Q 928 2378 1081 2264 
Q 1234 2150 1697 2047 
L 1894 2003 
Q 2506 1872 2764 1633 
Q 3022 1394 3022 966 
Q 3022 478 2636 193 
Q 2250 -91 1575 -91 
Q 1294 -91 989 -36 
Q 684 19 347 128 
L 347 722 
Q 666 556 975 473 
Q 1284 391 1588 391 
Q 1994 391 2212 530 
Q 2431 669 2431 922 
Q 2431 1156 2273 1281 
Q 2116 1406 1581 1522 
L 1381 1569 
Q 847 1681 609 1914 
Q 372 2147 372 2553 
Q 372 3047 722 3315 
Q 1072 3584 1716 3584 
Q 2034 3584 2315 3537 
Q 2597 3491 2834 3397 
z
" transform="scale(0.015625)"/>
      <path id="DejaVuSans-69" d="M 603 3500 
L 1178 3500 
L 1178 0 
L 603 0 
L 603 3500 
z
M 603 4863 
L 1178 4863 
L 1178 4134 
L 603 4134 
L 603 4863 
z
" transform="scale(0.015625)"/>
      <path id="DejaVuSans-63" d="M 3122 3366 
L 3122 2828 
Q 2878 2963 2633 3030 
Q 2388 3097 2138 3097 
Q 1578 3097 1268 2742 
Q 959 2388 959 1747 
Q 959 1106 1268 751 
Q 1578 397 2138 397 
Q 2388 397 2633 464 
Q 2878 531 3122 666 
L 3122 134 
Q 2881 22 2623 -34 
Q 2366 -91 2075 -91 
Q 1284 -91 818 406 
Q 353 903 353 1747 
Q 353 2603 823 3093 
Q 1294 3584 2113 3584 
Q 2378 3584 2631 3529 
Q 2884 3475 3122 3366 
z
" transform="scale(0.015625)"/>
      <path id="DejaVuSans-20" transform="scale(0.015625)"/>
      <path id="DejaVuSans-54" d="M -19 4666 
L 3928 4666 
L 3928 4134 
L 2272 4134 
L 2272 0 
L 1638 0 
L 1638 4134 
L -19 4134 
L -19 4666 
z
" transform="scale(0.015625)"/>
      <path id="DejaVuSans-72" d="M 2631 2963 
Q 2534 3019 2420 3045 
Q 2306 3072 2169 3072 
Q 1681 3072 1420 2755 
Q 1159 2438 1159 1844 
L 1159 0 
L 581 0 
L 581 3500 
L 1159 3500 
L 1159 2956 
Q 1341 3275 1631 3429 
Q 1922 3584 2338 3584 
Q 2397 3584 2469 3576 
Q 2541 3569 2628 3553 
L 2631 2963 
z
" transform="scale(0.015625)"/>
      <path id="DejaVuSans-6e" d="M 3513 2113 
L 3513 0 
L 2938 0 
L 2938 2094 
Q 2938 2591 2744 2837 
Q 2550 3084 2163 3084 
Q 1697 3084 1428 2787 
Q 1159 2491 1159 1978 
L 1159 0 
L 581 0 
L 581 3500 
L 1159 3500 
L 1159 2956 
Q 1366 3272 1645 3428 
Q 1925 3584 2291 3584 
Q 2894 3584 3203 3211 
Q 3513 2838 3513 2113 
z
" transform="scale(0.015625)"/>
      <path id="DejaVuSans-66" d="M 2375 4863 
L 2375 4384 
L 1825 4384 
Q 1516 4384 1395 4259 
Q 1275 4134 1275 3809 
L 1275 3500 
L 2222 3500 
L 2222 3053 
L 1275 3053 
L 1275 0 
L 697 0 
L 697 3053 
L 147 3053 
L 147 3500 
L 697 3500 
L 697 3744 
Q 697 4328 969 4595 
Q 1241 4863 1831 4863 
L 2375 4863 
z
" transform="scale(0.015625)"/>
      <path id="DejaVuSans-6f" d="M 1959 3097 
Q 1497 3097 1228 2736 
Q 959 2375 959 1747 
Q 959 1119 1226 758 
Q 1494 397 1959 397 
Q 2419 397 2687 759 
Q 2956 1122 2956 1747 
Q 2956 2369 2687 2733 
Q 2419 3097 1959 3097 
z
M 1959 3584 
Q 2709 3584 3137 3096 
Q 3566 2609 3566 1747 
Q 3566 888 3137 398 
Q 2709 -91 1959 -91 
Q 1206 -91 779 398 
Q 353 888 353 1747 
Q 353 2609 779 3096 
Q 1206 3584 1959 3584 
z
" transform="scale(0.015625)"/>
      <path id="DejaVuSans-6d" d="M 3328 2828 
Q 3544 3216 3844 3400 
Q 4144 3584 4550 3584 
Q 5097 3584 5394 3201 
Q 5691 2819 5691 2113 
L 5691 0 
L 5113 0 
L 5113 2094 
Q 5113 2597 4934 2840 
Q 4756 3084 4391 3084 
Q 3944 3084 3684 2787 
Q 3425 2491 3425 1978 
L 3425 0 
L 2847 0 
L 2847 2094 
Q 2847 2600 2669 2842 
Q 2491 3084 2119 3084 
Q 1678 3084 1418 2786 
Q 1159 2488 1159 1978 
L 1159 0 
L 581 0 
L 581 3500 
L 1159 3500 
L 1159 2956 
Q 1356 3278 1631 3431 
Q 1906 3584 2284 3584 
Q 2666 3584 2933 3390 
Q 3200 3197 3328 2828 
z
" transform="scale(0.015625)"/>
      <path id="DejaVuSans-65" d="M 3597 1894 
L 3597 1613 
L 953 1613 
Q 991 1019 1311 708 
Q 1631 397 2203 397 
Q 2534 397 2845 478 
Q 3156 559 3463 722 
L 3463 178 
Q 3153 47 2828 -22 
Q 2503 -91 2169 -91 
Q 1331 -91 842 396 
Q 353 884 353 1716 
Q 353 2575 817 3079 
Q 1281 3584 2069 3584 
Q 2775 3584 3186 3129 
Q 3597 2675 3597 1894 
z
M 3022 2063 
Q 3016 2534 2758 2815 
Q 2500 3097 2075 3097 
Q 1594 3097 1305 2825 
Q 1016 2553 972 2059 
L 3022 2063 
z
" transform="scale(0.015625)"/>
      <path id="DejaVuSans-64" d="M 2906 2969 
L 2906 4863 
L 3481 4863 
L 3481 0 
L 2906 0 
L 2906 525 
Q 2725 213 2448 61 
Q 2172 -91 1784 -91 
Q 1150 -91 751 415 
Q 353 922 353 1747 
Q 353 2572 751 3078 
Q 1150 3584 1784 3584 
Q 2172 3584 2448 3432 
Q 2725 3281 2906 2969 
z
M 947 1747 
Q 947 1113 1208 752 
Q 1469 391 1925 391 
Q 2381 391 2643 752 
Q 2906 1113 2906 1747 
Q 2906 2381 2643 2742 
Q 2381 3103 1925 3103 
Q 1469 3103 1208 2742 
Q 947 2381 947 1747 
z
" transform="scale(0.015625)"/>
      <path id="DejaVuSans-5f" d="M 3263 -1063 
L 3263 -1509 
L -63 -1509 
L -63 -1063 
L 3263 -1063 
z
" transform="scale(0.015625)"/>
      <path id="DejaVuSans-34" d="M 2419 4116 
L 825 1625 
L 2419 1625 
L 2419 4116 
z
M 2253 4666 
L 3047 4666 
L 3047 1625 
L 3713 1625 
L 3713 1100 
L 3047 1100 
L 3047 0 
L 2419 0 
L 2419 1100 
L 313 1100 
L 313 1709 
L 2253 4666 
z
" transform="scale(0.015625)"/>
     </defs>
     <use xlink:href="#DejaVuSans-43"/>
     <use xlink:href="#DejaVuSans-6c" x="69.824219"/>
     <use xlink:href="#DejaVuSans-61" x="97.607422"/>
     <use xlink:href="#DejaVuSans-73" x="158.886719"/>
     <use xlink:href="#DejaVuSans-73" x="210.986328"/>
     <use xlink:href="#DejaVuSans-69" x="263.085938"/>
     <use xlink:href="#DejaVuSans-63" x="290.869141"/>
     <use xlink:href="#DejaVuSans-20" x="345.849609"/>
     <use xlink:href="#DejaVuSans-54" x="377.636719"/>
     <use xlink:href="#DejaVuSans-72" x="423.970703"/>
     <use xlink:href="#DejaVuSans-61" x="465.083984"/>
     <use xlink:href="#DejaVuSans-6e" x="526.363281"/>
     <use xlink:href="#DejaVuSans-73" x="589.742188"/>
     <use xlink:href="#DejaVuSans-66" x="641.841797"/>
     <use xlink:href="#DejaVuSans-6f" x="677.046875"/>
     <use xlink:href="#DejaVuSans-72" x="738.228516"/>
     <use xlink:href="#DejaVuSans-6d" x="777.591797"/>
     <use xlink:href="#DejaVuSans-65" x="875.003906"/>
     <use xlink:href="#DejaVuSans-72" x="936.527344"/>
     <use xlink:href="#DejaVuSans-20" x="977.640625"/>
     <use xlink:href="#DejaVuSans-2d" x="1009.427734"/>
     <use xlink:href="#DejaVuSans-20" x="1045.511719"/>
     <use xlink:href="#DejaVuSans-6d" x="1077.298828"/>
     <use xlink:href="#DejaVuSans-6f" x="1174.710938"/>
     <use xlink:href="#DejaVuSans-64" x="1235.892578"/>
     <use xlink:href="#DejaVuSans-65" x="1299.369141"/>
     <use xlink:href="#DejaVuSans-6c" x="1360.892578"/>
     <use xlink:href="#DejaVuSans-5f" x="1388.675781"/>
     <use xlink:href="#DejaVuSans-32" x="1438.675781"/>
     <use xlink:href="#DejaVuSans-30" x="1502.298828"/>
     <use xlink:href="#DejaVuSans-32" x="1565.921875"/>
     <use xlink:href="#DejaVuSans-33" x="1629.544922"/>
     <use xlink:href="#DejaVuSans-31" x="1693.167969"/>
     <use xlink:href="#DejaVuSans-31" x="1756.791016"/>
     <use xlink:href="#DejaVuSans-32" x="1820.414062"/>
     <use xlink:href="#DejaVuSans-36" x="1884.037109"/>
     <use xlink:href="#DejaVuSans-31" x="1947.660156"/>
     <use xlink:href="#DejaVuSans-35" x="2011.283203"/>
     <use xlink:href="#DejaVuSans-34" x="2074.90625"/>
     <use xlink:href="#DejaVuSans-37" x="2138.529297"/>
     <use xlink:href="#DejaVuSans-33" x="2202.152344"/>
     <use xlink:href="#DejaVuSans-31" x="2265.775391"/>
    </g>
   </g>
   <g id="legend_1">
    <g id="patch_7">
     <path d="M 79 95.234375 
L 161.517188 95.234375 
Q 163.517188 95.234375 163.517188 93.234375 
L 163.517188 50.2 
Q 163.517188 48.2 161.517188 48.2 
L 79 48.2 
Q 77 48.2 77 50.2 
L 77 93.234375 
Q 77 95.234375 79 95.234375 
z
" style="fill: #ffffff; opacity: 0.8; stroke: #cccccc; stroke-linejoin: miter"/>
    </g>
    <g id="line2d_16">
     <path d="M 81 56.298437 
L 91 56.298437 
L 101 56.298437 
" style="fill: none; stroke: #1f77b4; stroke-width: 1.5; stroke-linecap: square"/>
    </g>
    <g id="text_14">
     <!-- Measured -->
     <g transform="translate(109 59.798437) scale(0.1 -0.1)">
      <defs>
       <path id="DejaVuSans-4d" d="M 628 4666 
L 1569 4666 
L 2759 1491 
L 3956 4666 
L 4897 4666 
L 4897 0 
L 4281 0 
L 4281 4097 
L 3078 897 
L 2444 897 
L 1241 4097 
L 1241 0 
L 628 0 
L 628 4666 
z
" transform="scale(0.015625)"/>
       <path id="DejaVuSans-75" d="M 544 1381 
L 544 3500 
L 1119 3500 
L 1119 1403 
Q 1119 906 1312 657 
Q 1506 409 1894 409 
Q 2359 409 2629 706 
Q 2900 1003 2900 1516 
L 2900 3500 
L 3475 3500 
L 3475 0 
L 2900 0 
L 2900 538 
Q 2691 219 2414 64 
Q 2138 -91 1772 -91 
Q 1169 -91 856 284 
Q 544 659 544 1381 
z
M 1991 3584 
L 1991 3584 
z
" transform="scale(0.015625)"/>
      </defs>
      <use xlink:href="#DejaVuSans-4d"/>
      <use xlink:href="#DejaVuSans-65" x="86.279297"/>
      <use xlink:href="#DejaVuSans-61" x="147.802734"/>
      <use xlink:href="#DejaVuSans-73" x="209.082031"/>
      <use xlink:href="#DejaVuSans-75" x="261.181641"/>
      <use xlink:href="#DejaVuSans-72" x="324.560547"/>
      <use xlink:href="#DejaVuSans-65" x="363.423828"/>
      <use xlink:href="#DejaVuSans-64" x="424.947266"/>
     </g>
    </g>
    <g id="line2d_17">
     <path d="M 81 70.976562 
L 91 70.976562 
L 101 70.976562 
" style="fill: none; stroke: #ff7f0e; stroke-width: 1.5; stroke-linecap: square"/>
    </g>
    <g id="text_15">
     <!-- Fitted -->
     <g transform="translate(109 74.476562) scale(0.1 -0.1)">
      <defs>
       <path id="DejaVuSans-46" d="M 628 4666 
L 3309 4666 
L 3309 4134 
L 1259 4134 
L 1259 2759 
L 3109 2759 
L 3109 2228 
L 1259 2228 
L 1259 0 
L 628 0 
L 628 4666 
z
" transform="scale(0.015625)"/>
       <path id="DejaVuSans-74" d="M 1172 4494 
L 1172 3500 
L 2356 3500 
L 2356 3053 
L 1172 3053 
L 1172 1153 
Q 1172 725 1289 603 
Q 1406 481 1766 481 
L 2356 481 
L 2356 0 
L 1766 0 
Q 1100 0 847 248 
Q 594 497 594 1153 
L 594 3053 
L 172 3053 
L 172 3500 
L 594 3500 
L 594 4494 
L 1172 4494 
z
" transform="scale(0.015625)"/>
      </defs>
      <use xlink:href="#DejaVuSans-46"/>
      <use xlink:href="#DejaVuSans-69" x="50.269531"/>
      <use xlink:href="#DejaVuSans-74" x="78.052734"/>
      <use xlink:href="#DejaVuSans-74" x="117.261719"/>
      <use xlink:href="#DejaVuSans-65" x="156.470703"/>
      <use xlink:href="#DejaVuSans-64" x="217.994141"/>
     </g>
    </g>
    <g id="line2d_18">
     <path d="M 81 85.654687 
L 91 85.654687 
L 101 85.654687 
" style="fill: none; stroke: #2ca02c; stroke-width: 1.5; stroke-linecap: square"/>
    </g>
    <g id="text_16">
     <!-- Estimated -->
     <g transform="translate(109 89.154687) scale(0.1 -0.1)">
      <defs>
       <path id="DejaVuSans-45" d="M 628 4666 
L 3578 4666 
L 3578 4134 
L 1259 4134 
L 1259 2753 
L 3481 2753 
L 3481 2222 
L 1259 2222 
L 1259 531 
L 3634 531 
L 3634 0 
L 628 0 
L 628 4666 
z
" transform="scale(0.015625)"/>
      </defs>
      <use xlink:href="#DejaVuSans-45"/>
      <use xlink:href="#DejaVuSans-73" x="63.183594"/>
      <use xlink:href="#DejaVuSans-74" x="115.283203"/>
      <use xlink:href="#DejaVuSans-69" x="154.492188"/>
      <use xlink:href="#DejaVuSans-6d" x="182.275391"/>
      <use xlink:href="#DejaVuSans-61" x="279.6875"/>
      <use xlink:href="#DejaVuSans-74" x="340.966797"/>
      <use xlink:href="#DejaVuSans-65" x="380.175781"/>
      <use xlink:href="#DejaVuSans-64" x="441.699219"/>
     </g>
    </g>
   </g>
  </g>
 </g>
 <defs>
  <clipPath id="pace08c8328">
   <rect x="72" y="43.2" width="446.4" height="277.2"/>
  </clipPath>
 </defs>
</svg>
