<?xml version="1.0" encoding="utf-8" standalone="no"?>
<!DOCTYPE svg PUBLIC "-//W3C//DTD SVG 1.1//EN"
  "http://www.w3.org/Graphics/SVG/1.1/DTD/svg11.dtd">
<svg xmlns:xlink="http://www.w3.org/1999/xlink" width="576pt" height="360pt" viewBox="0 0 576 360" xmlns="http://www.w3.org/2000/svg" version="1.1">
 <metadata>
  <rdf:RDF xmlns:dc="http://purl.org/dc/elements/1.1/" xmlns:cc="http://creativecommons.org/ns#" xmlns:rdf="http://www.w3.org/1999/02/22-rdf-syntax-ns#">
   <cc:Work>
    <dc:type rdf:resource="http://purl.org/dc/dcmitype/StillImage"/>
    <dc:date>2023-11-23T17:08:34.149252</dc:date>
    <dc:format>image/svg+xml</dc:format>
    <dc:creator>
     <cc:Agent>
      <dc:title>Matplotlib v3.8.1, https://matplotlib.org/</dc:title>
     </cc:Agent>
    </dc:creator>
   </cc:Work>
  </rdf:RDF>
 </metadata>
 <defs>
  <style type="text/css">*{stroke-linejoin: round; stroke-linecap: butt}</style>
 </defs>
 <g id="figure_1">
  <g id="patch_1">
   <path d="M 0 360 
L 576 360 
L 576 0 
L 0 0 
z
" style="fill: #ffffff"/>
  </g>
  <g id="axes_1">
   <g id="patch_2">
    <path d="M 72 320.4 
L 518.4 320.4 
L 518.4 43.2 
L 72 43.2 
z
" style="fill: #ffffff"/>
   </g>
   <g id="matplotlib.axis_1">
    <g id="xtick_1">
     <g id="line2d_1">
      <defs>
       <path id="mbb1614e9e7" d="M 0 0 
L 0 3.5 
" style="stroke: #000000; stroke-width: 0.8"/>
      </defs>
      <g>
       <use xlink:href="#mbb1614e9e7" x="129.874161" y="320.4" style="stroke: #000000; stroke-width: 0.8"/>
      </g>
     </g>
     <g id="text_1">
      <!-- 2020-05-15 -->
      <g transform="translate(100.816349 334.998438) scale(0.1 -0.1)">
       <defs>
        <path id="DejaVuSans-32" d="M 1228 531 
L 3431 531 
L 3431 0 
L 469 0 
L 469 531 
Q 828 903 1448 1529 
Q 2069 2156 2228 2338 
Q 2531 2678 2651 2914 
Q 2772 3150 2772 3378 
Q 2772 3750 2511 3984 
Q 2250 4219 1831 4219 
Q 1534 4219 1204 4116 
Q 875 4013 500 3803 
L 500 4441 
Q 881 4594 1212 4672 
Q 1544 4750 1819 4750 
Q 2544 4750 2975 4387 
Q 3406 4025 3406 3419 
Q 3406 3131 3298 2873 
Q 3191 2616 2906 2266 
Q 2828 2175 2409 1742 
Q 1991 1309 1228 531 
z
" transform="scale(0.015625)"/>
        <path id="DejaVuSans-30" d="M 2034 4250 
Q 1547 4250 1301 3770 
Q 1056 3291 1056 2328 
Q 1056 1369 1301 889 
Q 1547 409 2034 409 
Q 2525 409 2770 889 
Q 3016 1369 3016 2328 
Q 3016 3291 2770 3770 
Q 2525 4250 2034 4250 
z
M 2034 4750 
Q 2819 4750 3233 4129 
Q 3647 3509 3647 2328 
Q 3647 1150 3233 529 
Q 2819 -91 2034 -91 
Q 1250 -91 836 529 
Q 422 1150 422 2328 
Q 422 3509 836 4129 
Q 1250 4750 2034 4750 
z
" transform="scale(0.015625)"/>
        <path id="DejaVuSans-2d" d="M 313 2009 
L 1997 2009 
L 1997 1497 
L 313 1497 
L 313 2009 
z
" transform="scale(0.015625)"/>
        <path id="DejaVuSans-35" d="M 691 4666 
L 3169 4666 
L 3169 4134 
L 1269 4134 
L 1269 2991 
Q 1406 3038 1543 3061 
Q 1681 3084 1819 3084 
Q 2600 3084 3056 2656 
Q 3513 2228 3513 1497 
Q 3513 744 3044 326 
Q 2575 -91 1722 -91 
Q 1428 -91 1123 -41 
Q 819 9 494 109 
L 494 744 
Q 775 591 1075 516 
Q 1375 441 1709 441 
Q 2250 441 2565 725 
Q 2881 1009 2881 1497 
Q 2881 1984 2565 2268 
Q 2250 2553 1709 2553 
Q 1456 2553 1204 2497 
Q 953 2441 691 2322 
L 691 4666 
z
" transform="scale(0.015625)"/>
        <path id="DejaVuSans-31" d="M 794 531 
L 1825 531 
L 1825 4091 
L 703 3866 
L 703 4441 
L 1819 4666 
L 2450 4666 
L 2450 531 
L 3481 531 
L 3481 0 
L 794 0 
L 794 531 
z
" transform="scale(0.015625)"/>
       </defs>
       <use xlink:href="#DejaVuSans-32"/>
       <use xlink:href="#DejaVuSans-30" x="63.623047"/>
       <use xlink:href="#DejaVuSans-32" x="127.246094"/>
       <use xlink:href="#DejaVuSans-30" x="190.869141"/>
       <use xlink:href="#DejaVuSans-2d" x="254.492188"/>
       <use xlink:href="#DejaVuSans-30" x="290.576172"/>
       <use xlink:href="#DejaVuSans-35" x="354.199219"/>
       <use xlink:href="#DejaVuSans-2d" x="417.822266"/>
       <use xlink:href="#DejaVuSans-31" x="453.90625"/>
       <use xlink:href="#DejaVuSans-35" x="517.529297"/>
      </g>
     </g>
    </g>
    <g id="xtick_2">
     <g id="line2d_2">
      <g>
       <use xlink:href="#mbb1614e9e7" x="212.435902" y="320.4" style="stroke: #000000; stroke-width: 0.8"/>
      </g>
     </g>
     <g id="text_2">
      <!-- 2020-06-01 -->
      <g transform="translate(183.37809 334.998438) scale(0.1 -0.1)">
       <defs>
        <path id="DejaVuSans-36" d="M 2113 2584 
Q 1688 2584 1439 2293 
Q 1191 2003 1191 1497 
Q 1191 994 1439 701 
Q 1688 409 2113 409 
Q 2538 409 2786 701 
Q 3034 994 3034 1497 
Q 3034 2003 2786 2293 
Q 2538 2584 2113 2584 
z
M 3366 4563 
L 3366 3988 
Q 3128 4100 2886 4159 
Q 2644 4219 2406 4219 
Q 1781 4219 1451 3797 
Q 1122 3375 1075 2522 
Q 1259 2794 1537 2939 
Q 1816 3084 2150 3084 
Q 2853 3084 3261 2657 
Q 3669 2231 3669 1497 
Q 3669 778 3244 343 
Q 2819 -91 2113 -91 
Q 1303 -91 875 529 
Q 447 1150 447 2328 
Q 447 3434 972 4092 
Q 1497 4750 2381 4750 
Q 2619 4750 2861 4703 
Q 3103 4656 3366 4563 
z
" transform="scale(0.015625)"/>
       </defs>
       <use xlink:href="#DejaVuSans-32"/>
       <use xlink:href="#DejaVuSans-30" x="63.623047"/>
       <use xlink:href="#DejaVuSans-32" x="127.246094"/>
       <use xlink:href="#DejaVuSans-30" x="190.869141"/>
       <use xlink:href="#DejaVuSans-2d" x="254.492188"/>
       <use xlink:href="#DejaVuSans-30" x="290.576172"/>
       <use xlink:href="#DejaVuSans-36" x="354.199219"/>
       <use xlink:href="#DejaVuSans-2d" x="417.822266"/>
       <use xlink:href="#DejaVuSans-30" x="453.90625"/>
       <use xlink:href="#DejaVuSans-31" x="517.529297"/>
      </g>
     </g>
    </g>
    <g id="xtick_3">
     <g id="line2d_3">
      <g>
       <use xlink:href="#mbb1614e9e7" x="280.427924" y="320.4" style="stroke: #000000; stroke-width: 0.8"/>
      </g>
     </g>
     <g id="text_3">
      <!-- 2020-06-15 -->
      <g transform="translate(251.370111 334.998438) scale(0.1 -0.1)">
       <use xlink:href="#DejaVuSans-32"/>
       <use xlink:href="#DejaVuSans-30" x="63.623047"/>
       <use xlink:href="#DejaVuSans-32" x="127.246094"/>
       <use xlink:href="#DejaVuSans-30" x="190.869141"/>
       <use xlink:href="#DejaVuSans-2d" x="254.492188"/>
       <use xlink:href="#DejaVuSans-30" x="290.576172"/>
       <use xlink:href="#DejaVuSans-36" x="354.199219"/>
       <use xlink:href="#DejaVuSans-2d" x="417.822266"/>
       <use xlink:href="#DejaVuSans-31" x="453.90625"/>
       <use xlink:href="#DejaVuSans-35" x="517.529297"/>
      </g>
     </g>
    </g>
    <g id="xtick_4">
     <g id="line2d_4">
      <g>
       <use xlink:href="#mbb1614e9e7" x="358.133092" y="320.4" style="stroke: #000000; stroke-width: 0.8"/>
      </g>
     </g>
     <g id="text_4">
      <!-- 2020-07-01 -->
      <g transform="translate(329.075279 334.998438) scale(0.1 -0.1)">
       <defs>
        <path id="DejaVuSans-37" d="M 525 4666 
L 3525 4666 
L 3525 4397 
L 1831 0 
L 1172 0 
L 2766 4134 
L 525 4134 
L 525 4666 
z
" transform="scale(0.015625)"/>
       </defs>
       <use xlink:href="#DejaVuSans-32"/>
       <use xlink:href="#DejaVuSans-30" x="63.623047"/>
       <use xlink:href="#DejaVuSans-32" x="127.246094"/>
       <use xlink:href="#DejaVuSans-30" x="190.869141"/>
       <use xlink:href="#DejaVuSans-2d" x="254.492188"/>
       <use xlink:href="#DejaVuSans-30" x="290.576172"/>
       <use xlink:href="#DejaVuSans-37" x="354.199219"/>
       <use xlink:href="#DejaVuSans-2d" x="417.822266"/>
       <use xlink:href="#DejaVuSans-30" x="453.90625"/>
       <use xlink:href="#DejaVuSans-31" x="517.529297"/>
      </g>
     </g>
    </g>
    <g id="xtick_5">
     <g id="line2d_5">
      <g>
       <use xlink:href="#mbb1614e9e7" x="426.125113" y="320.4" style="stroke: #000000; stroke-width: 0.8"/>
      </g>
     </g>
     <g id="text_5">
      <!-- 2020-07-15 -->
      <g transform="translate(397.067301 334.998438) scale(0.1 -0.1)">
       <use xlink:href="#DejaVuSans-32"/>
       <use xlink:href="#DejaVuSans-30" x="63.623047"/>
       <use xlink:href="#DejaVuSans-32" x="127.246094"/>
       <use xlink:href="#DejaVuSans-30" x="190.869141"/>
       <use xlink:href="#DejaVuSans-2d" x="254.492188"/>
       <use xlink:href="#DejaVuSans-30" x="290.576172"/>
       <use xlink:href="#DejaVuSans-37" x="354.199219"/>
       <use xlink:href="#DejaVuSans-2d" x="417.822266"/>
       <use xlink:href="#DejaVuSans-31" x="453.90625"/>
       <use xlink:href="#DejaVuSans-35" x="517.529297"/>
      </g>
     </g>
    </g>
    <g id="xtick_6">
     <g id="line2d_6">
      <g>
       <use xlink:href="#mbb1614e9e7" x="508.686854" y="320.4" style="stroke: #000000; stroke-width: 0.8"/>
      </g>
     </g>
     <g id="text_6">
      <!-- 2020-08-01 -->
      <g transform="translate(479.629042 334.998438) scale(0.1 -0.1)">
       <defs>
        <path id="DejaVuSans-38" d="M 2034 2216 
Q 1584 2216 1326 1975 
Q 1069 1734 1069 1313 
Q 1069 891 1326 650 
Q 1584 409 2034 409 
Q 2484 409 2743 651 
Q 3003 894 3003 1313 
Q 3003 1734 2745 1975 
Q 2488 2216 2034 2216 
z
M 1403 2484 
Q 997 2584 770 2862 
Q 544 3141 544 3541 
Q 544 4100 942 4425 
Q 1341 4750 2034 4750 
Q 2731 4750 3128 4425 
Q 3525 4100 3525 3541 
Q 3525 3141 3298 2862 
Q 3072 2584 2669 2484 
Q 3125 2378 3379 2068 
Q 3634 1759 3634 1313 
Q 3634 634 3220 271 
Q 2806 -91 2034 -91 
Q 1263 -91 848 271 
Q 434 634 434 1313 
Q 434 1759 690 2068 
Q 947 2378 1403 2484 
z
M 1172 3481 
Q 1172 3119 1398 2916 
Q 1625 2713 2034 2713 
Q 2441 2713 2670 2916 
Q 2900 3119 2900 3481 
Q 2900 3844 2670 4047 
Q 2441 4250 2034 4250 
Q 1625 4250 1398 4047 
Q 1172 3844 1172 3481 
z
" transform="scale(0.015625)"/>
       </defs>
       <use xlink:href="#DejaVuSans-32"/>
       <use xlink:href="#DejaVuSans-30" x="63.623047"/>
       <use xlink:href="#DejaVuSans-32" x="127.246094"/>
       <use xlink:href="#DejaVuSans-30" x="190.869141"/>
       <use xlink:href="#DejaVuSans-2d" x="254.492188"/>
       <use xlink:href="#DejaVuSans-30" x="290.576172"/>
       <use xlink:href="#DejaVuSans-38" x="354.199219"/>
       <use xlink:href="#DejaVuSans-2d" x="417.822266"/>
       <use xlink:href="#DejaVuSans-30" x="453.90625"/>
       <use xlink:href="#DejaVuSans-31" x="517.529297"/>
      </g>
     </g>
    </g>
   </g>
   <g id="matplotlib.axis_2">
    <g id="ytick_1">
     <g id="line2d_7">
      <defs>
       <path id="mf02cfe8ee4" d="M 0 0 
L -3.5 0 
" style="stroke: #000000; stroke-width: 0.8"/>
      </defs>
      <g>
       <use xlink:href="#mf02cfe8ee4" x="72" y="315.814135" style="stroke: #000000; stroke-width: 0.8"/>
      </g>
     </g>
     <g id="text_7">
      <!-- −2 -->
      <g transform="translate(50.257812 319.613354) scale(0.1 -0.1)">
       <defs>
        <path id="DejaVuSans-2212" d="M 678 2272 
L 4684 2272 
L 4684 1741 
L 678 1741 
L 678 2272 
z
" transform="scale(0.015625)"/>
       </defs>
       <use xlink:href="#DejaVuSans-2212"/>
       <use xlink:href="#DejaVuSans-32" x="83.789062"/>
      </g>
     </g>
    </g>
    <g id="ytick_2">
     <g id="line2d_8">
      <g>
       <use xlink:href="#mf02cfe8ee4" x="72" y="263.427998" style="stroke: #000000; stroke-width: 0.8"/>
      </g>
     </g>
     <g id="text_8">
      <!-- −1 -->
      <g transform="translate(50.257812 267.227216) scale(0.1 -0.1)">
       <use xlink:href="#DejaVuSans-2212"/>
       <use xlink:href="#DejaVuSans-31" x="83.789062"/>
      </g>
     </g>
    </g>
    <g id="ytick_3">
     <g id="line2d_9">
      <g>
       <use xlink:href="#mf02cfe8ee4" x="72" y="211.04186" style="stroke: #000000; stroke-width: 0.8"/>
      </g>
     </g>
     <g id="text_9">
      <!-- 0 -->
      <g transform="translate(58.6375 214.841079) scale(0.1 -0.1)">
       <use xlink:href="#DejaVuSans-30"/>
      </g>
     </g>
    </g>
    <g id="ytick_4">
     <g id="line2d_10">
      <g>
       <use xlink:href="#mf02cfe8ee4" x="72" y="158.655723" style="stroke: #000000; stroke-width: 0.8"/>
      </g>
     </g>
     <g id="text_10">
      <!-- 1 -->
      <g transform="translate(58.6375 162.454942) scale(0.1 -0.1)">
       <use xlink:href="#DejaVuSans-31"/>
      </g>
     </g>
    </g>
    <g id="ytick_5">
     <g id="line2d_11">
      <g>
       <use xlink:href="#mf02cfe8ee4" x="72" y="106.269586" style="stroke: #000000; stroke-width: 0.8"/>
      </g>
     </g>
     <g id="text_11">
      <!-- 2 -->
      <g transform="translate(58.6375 110.068804) scale(0.1 -0.1)">
       <use xlink:href="#DejaVuSans-32"/>
      </g>
     </g>
    </g>
    <g id="ytick_6">
     <g id="line2d_12">
      <g>
       <use xlink:href="#mf02cfe8ee4" x="72" y="53.883448" style="stroke: #000000; stroke-width: 0.8"/>
      </g>
     </g>
     <g id="text_12">
      <!-- 3 -->
      <g transform="translate(58.6375 57.682667) scale(0.1 -0.1)">
       <defs>
        <path id="DejaVuSans-33" d="M 2597 2516 
Q 3050 2419 3304 2112 
Q 3559 1806 3559 1356 
Q 3559 666 3084 287 
Q 2609 -91 1734 -91 
Q 1441 -91 1130 -33 
Q 819 25 488 141 
L 488 750 
Q 750 597 1062 519 
Q 1375 441 1716 441 
Q 2309 441 2620 675 
Q 2931 909 2931 1356 
Q 2931 1769 2642 2001 
Q 2353 2234 1838 2234 
L 1294 2234 
L 1294 2753 
L 1863 2753 
Q 2328 2753 2575 2939 
Q 2822 3125 2822 3475 
Q 2822 3834 2567 4026 
Q 2313 4219 1838 4219 
Q 1578 4219 1281 4162 
Q 984 4106 628 3988 
L 628 4550 
Q 988 4650 1302 4700 
Q 1616 4750 1894 4750 
Q 2613 4750 3031 4423 
Q 3450 4097 3450 3541 
Q 3450 3153 3228 2886 
Q 3006 2619 2597 2516 
z
" transform="scale(0.015625)"/>
       </defs>
       <use xlink:href="#DejaVuSans-33"/>
      </g>
     </g>
    </g>
   </g>
   <g id="line2d_13">
    <path d="M 72 287.549544 
L 72.404714 298.651317 
L 72.607072 296.965492 
L 72.809429 286.521602 
L 73.214143 256.258991 
L 73.618858 244.088158 
L 75.035358 162.880745 
L 75.237715 159.981949 
L 75.440073 164.936629 
L 75.64243 172.975135 
L 75.844787 176.202872 
L 76.047144 191.128589 
L 76.654216 259.918464 
L 77.05893 283.478894 
L 77.261287 287.755132 
L 77.463645 287.385073 
L 77.666002 276.900065 
L 78.070716 249.001721 
L 78.475431 236.789771 
L 78.677788 227.846676 
L 79.487217 172.049987 
L 79.891931 156.116887 
L 80.094288 158.028859 
L 80.903717 199.557713 
L 81.713146 273.322827 
L 82.11786 287.672897 
L 82.320218 289.667104 
L 82.522575 289.37928 
L 82.724932 286.91222 
L 82.927289 280.230597 
L 83.332004 257.718669 
L 83.736718 243.69754 
L 83.939075 240.716509 
L 84.141432 240.983774 
L 84.546147 247.25422 
L 84.748504 249.310103 
L 84.950861 249.330662 
L 85.355576 253.44243 
L 85.557933 250.173575 
L 85.76029 256.176756 
L 86.569719 300.213788 
L 86.772076 306.175852 
L 86.974433 307.738323 
L 87.176791 307.8 
L 87.379148 306.484234 
L 87.581505 302.824761 
L 87.783862 296.204815 
L 88.188577 274.597475 
L 88.390934 269.519442 
L 89.200363 261.604289 
L 89.40272 257.554198 
L 89.807434 243.060216 
L 90.212149 240.654832 
L 90.414506 238.002742 
L 90.616863 245.794542 
L 91.223935 295.361902 
L 91.628649 306.175852 
L 91.831006 306.237528 
L 92.033364 303.791026 
L 92.842792 258.561581 
L 93.04515 256.464579 
L 93.449864 248.035455 
L 93.652221 247.521484 
L 93.854578 244.643247 
L 94.056936 244.026482 
L 94.259293 241.456627 
L 94.46165 235.186181 
L 94.664007 232.390179 
L 94.866364 233.294768 
L 95.068722 236.378594 
L 95.271079 232.616326 
L 95.473436 242.525687 
L 96.080508 295.731962 
L 96.485222 304.757292 
L 96.687579 306.628146 
L 96.889937 302.372467 
L 97.699365 257.842022 
L 98.306437 247.542043 
L 98.508794 247.171984 
L 99.52058 226.366439 
L 99.722937 227.59997 
L 99.925295 231.876208 
L 100.127652 230.087589 
L 100.330009 240.038067 
L 100.937081 293.306019 
L 101.341795 305.332939 
L 101.544152 306.299205 
L 101.74651 302.66029 
L 101.948867 290.941752 
L 102.353581 261.501495 
L 102.555938 259.980141 
L 103.567724 242.546245 
L 104.377153 220.877229 
L 104.57951 222.131318 
L 104.781868 227.41494 
L 104.984225 227.394381 
L 105.186582 236.111329 
L 105.793654 290.222193 
L 106.198368 302.721967 
L 106.400725 304.448909 
L 106.603083 300.501612 
L 107.412511 255.477755 
L 107.614869 253.79193 
L 107.817226 250.194133 
L 108.22194 235.946858 
L 108.626655 214.66846 
L 108.829012 208.850309 
L 109.031369 207.000013 
L 109.638441 215.511372 
L 109.840798 220.836112 
L 110.043155 231.033296 
L 110.650227 285.000248 
L 111.054941 298.980258 
L 111.257298 300.851112 
L 111.459655 299.144729 
L 111.662013 287.96072 
L 112.066727 259.28114 
L 112.471442 244.58157 
L 113.887942 177.518638 
L 114.090299 175.195489 
L 114.292656 181.877112 
L 114.495014 193.081679 
L 114.697371 197.584065 
L 115.102085 230.930501 
L 115.709157 279.326008 
L 116.113871 292.997636 
L 116.316228 293.162107 
L 116.518586 291.537958 
L 116.720943 287.981279 
L 117.125657 261.275348 
L 118.542158 158.666183 
L 118.744515 148.756823 
L 118.946872 144.953437 
L 119.149229 148.551234 
L 119.756301 185.680497 
L 120.56573 263.475143 
L 120.970444 282.903246 
L 121.172801 286.91222 
L 121.375159 288.515809 
L 121.577516 287.097249 
L 121.779873 279.326008 
L 122.589302 229.326912 
L 123.196374 204.368482 
L 123.398731 199.886655 
L 123.601088 200.092243 
L 123.803445 199.537155 
L 124.410517 212.674253 
L 124.612874 223.426525 
L 125.219946 278.606449 
L 125.62466 292.853724 
L 125.827017 294.806814 
L 126.029374 292.319194 
L 127.04116 237.036477 
L 127.648232 200.359508 
L 128.255304 158.810095 
L 128.457661 151.408913 
L 128.660018 151.079971 
L 129.26709 194.541357 
L 130.278876 283.602247 
L 130.481233 291.270694 
L 130.68359 292.627577 
L 130.885947 290.09884 
L 132.504805 183.316231 
L 133.111877 141.478994 
L 133.314234 132.248075 
L 133.516591 133.913341 
L 133.921306 148.98297 
L 134.123663 156.260799 
L 135.135449 263.989114 
L 135.540163 276.365535 
L 135.74252 275.440388 
L 135.944878 265.058174 
L 136.349592 234.261033 
L 136.551949 227.620528 
L 136.754306 215.984226 
L 136.956664 220.466052 
L 137.159021 209.384838 
L 137.766092 200.729567 
L 137.96845 201.120185 
L 138.373164 195.816005 
L 138.777879 203.217187 
L 138.980236 204.03954 
L 139.182593 215.614167 
L 139.789665 271.14359 
L 140.194379 286.213219 
L 140.396736 288.248544 
L 140.599093 285.288071 
L 141.003808 255.662785 
L 141.408522 234.898357 
L 142.015594 221.761259 
L 142.622665 212.797606 
L 142.825023 212.530341 
L 143.02738 211.337928 
L 143.229737 212.01637 
L 143.634451 217.197197 
L 143.836809 215.984226 
L 144.039166 225.975821 
L 144.646238 274.371328 
L 145.050952 286.233778 
L 145.253309 287.508426 
L 145.455666 284.4246 
L 145.860381 255.333843 
L 146.062738 239.195155 
L 146.66981 223.035907 
L 146.872167 220.404376 
L 147.074524 219.335316 
L 147.479238 208.439132 
L 147.681596 216.744903 
L 147.883953 217.711168 
L 148.08631 220.281023 
L 148.491024 229.429706 
L 148.693382 228.093382 
L 149.098096 251.304311 
L 149.502811 278.955949 
L 149.907525 291.846341 
L 150.109882 293.881666 
L 150.312239 293.306019 
L 150.514597 290.510017 
L 150.716954 284.856336 
L 151.121668 264.174144 
L 151.526383 243.862011 
L 151.931097 238.105536 
L 152.133454 237.673801 
L 152.335811 239.62689 
L 152.538169 240.140861 
L 152.740526 238.105536 
L 152.942883 238.39336 
L 153.14524 237.427095 
L 153.347597 237.468212 
L 153.549955 234.569416 
L 153.752312 236.748653 
L 154.764098 287.775691 
L 154.966455 291.702429 
L 155.168812 293.079871 
L 155.573527 289.173692 
L 155.775884 278.195272 
L 156.78767 200.914597 
L 157.799456 158.645624 
L 158.001813 160.639831 
L 158.406528 173.735812 
L 158.608885 187.181292 
L 159.215956 255.251608 
L 159.620671 276.673918 
L 159.823028 279.860538 
L 160.025385 278.955949 
L 160.227743 269.231618 
L 160.632457 237.036477 
L 161.8466 187.140175 
L 162.251315 177.169138 
L 162.453672 177.31305 
L 162.656029 180.150169 
L 163.465458 211.707987 
L 164.072529 271.081914 
L 164.477244 289.543751 
L 164.679601 289.872693 
L 164.881958 286.665514 
L 165.084316 276.591683 
L 165.48903 245.074983 
L 166.500816 210.268868 
L 167.310245 167.691513 
L 167.512602 171.022045 
L 167.917316 191.436972 
L 168.119674 195.857122 
L 168.322031 207.123366 
L 168.929102 266.065557 
L 169.333817 281.135186 
L 169.536174 284.630189 
L 169.738531 280.991274 
L 170.143246 253.915283 
L 170.54796 223.837702 
L 171.357389 179.61564 
L 171.559746 173.633018 
L 172.166818 149.620294 
L 172.369175 151.223883 
L 172.571532 159.07736 
L 173.178604 197.748536 
L 173.785675 268.285912 
L 174.19039 287.528985 
L 174.392747 290.489458 
L 174.595104 288.68028 
L 174.999819 264.667556 
L 175.404533 239.853038 
L 177.023391 162.202303 
L 177.225748 162.716274 
L 177.428105 166.601895 
L 177.630462 183.069525 
L 177.83282 185.495468 
L 178.237534 229.285794 
L 178.642248 271.883708 
L 179.046963 290.941752 
L 179.24932 294.642343 
L 179.451677 292.134165 
L 179.654034 283.499452 
L 180.261106 243.923688 
L 181.879964 147.626086 
L 182.082321 144.37779 
L 182.284678 150.010912 
L 183.094107 205.972071 
L 183.498821 244.725482 
L 183.903536 266.044998 
L 184.30825 273.836798 
L 184.510607 275.193682 
L 184.712965 271.575326 
L 184.915322 258.273757 
L 185.724751 176.757961 
L 186.129465 155.500122 
L 186.331822 149.476382 
L 186.53418 148.715705 
L 186.736537 151.244442 
L 187.748323 191.457531 
L 188.557752 255.292726 
L 188.962466 269.396089 
L 189.164823 271.431414 
L 189.36718 271.513649 
L 189.569538 270.773531 
L 189.771895 260.041817 
L 190.986038 164.546011 
L 191.188395 159.262389 
L 191.390752 159.221272 
L 191.795467 168.328837 
L 192.604896 199.496037 
L 193.414325 262.549996 
L 193.819039 276.201065 
L 194.021396 277.270124 
L 194.426111 273.322827 
L 194.628468 264.400291 
L 195.437897 203.731158 
L 195.640254 198.73536 
L 195.842611 199.948331 
L 196.247325 205.99263 
L 196.449683 206.568277 
L 196.65204 206.177659 
L 197.056754 214.360077 
L 197.259112 215.20299 
L 197.461469 223.590996 
L 198.06854 271.780914 
L 198.473255 285.925395 
L 198.675612 286.02819 
L 198.877969 282.389275 
L 199.282684 251.694929 
L 199.687398 228.936294 
L 201.306256 162.716274 
L 201.508613 161.564979 
L 202.115684 180.705258 
L 202.318042 191.82759 
L 202.925113 255.724461 
L 203.329828 273.322827 
L 203.532185 275.419829 
L 203.734542 272.438797 
L 203.936899 260.946406 
L 204.341614 227.044881 
L 205.758114 172.52284 
L 205.960471 170.035221 
L 206.162829 170.179133 
L 206.365186 171.597693 
L 206.7699 183.419025 
L 206.972257 186.605645 
L 207.174615 197.419594 
L 207.781686 256.320667 
L 208.186401 272.438797 
L 208.388758 275.481505 
L 208.591115 272.150973 
L 208.793472 260.309082 
L 209.198187 226.592586 
L 209.805258 204.368482 
L 210.209973 184.529202 
L 210.817044 142.938671 
L 211.019402 134.46843 
L 211.221759 137.428902 
L 211.626473 161.852803 
L 211.82883 167.054189 
L 212.031188 181.753759 
L 212.638259 246.658013 
L 213.042974 265.202086 
L 213.245331 269.190501 
L 213.447688 267.484117 
L 213.650045 256.793521 
L 214.257117 213.619959 
L 214.661831 187.325204 
L 215.47126 128.095189 
L 215.875975 111.401412 
L 216.078332 110.928559 
L 216.280689 116.458887 
L 217.090118 180.109052 
L 217.697189 241.908921 
L 218.101904 260.329641 
L 218.304261 263.680732 
L 218.506618 265.037615 
L 218.708976 263.783526 
L 218.911333 251.078164 
L 219.518404 196.391652 
L 220.125476 161.256597 
L 220.327833 159.097918 
L 220.53019 161.318273 
L 221.541976 203.546128 
L 221.744334 208.685838 
L 222.553762 265.469351 
L 222.958477 276.324418 
L 223.160834 278.030801 
L 223.363191 278.380302 
L 223.565549 276.81783 
L 223.767906 268.121441 
L 224.374977 229.984795 
L 224.779692 222.419142 
L 225.386763 224.475026 
L 225.589121 227.990588 
L 225.791478 228.874618 
L 226.196192 237.242065 
L 226.398549 236.892565 
L 226.600907 243.306922 
L 227.410335 296.82158 
L 227.612693 300.851112 
L 227.81505 302.536937 
L 228.017407 299.350317 
L 228.826836 256.834638 
L 229.029193 254.51149 
L 229.23155 248.775574 
L 230.648051 185.474909 
L 230.850408 186.050556 
L 231.255122 200.441743 
L 231.45748 211.317369 
L 232.064551 274.885299 
L 232.469266 292.031371 
L 232.671623 294.745137 
L 232.87398 293.532166 
L 233.278694 268.285912 
L 233.683409 245.794542 
L 235.302267 181.322023 
L 235.504624 180.725817 
L 236.111695 199.804419 
L 236.314053 210.145515 
L 236.921124 272.171532 
L 237.325839 288.022397 
L 237.528196 291.147341 
L 237.730553 289.02978 
L 238.135267 265.119851 
L 238.539982 243.368599 
L 239.349411 212.489223 
L 239.754125 202.497627 
L 240.15884 192.300443 
L 240.361197 192.053737 
L 240.563554 197.501829 
L 240.968268 215.079637 
L 241.170626 222.645289 
L 241.777697 278.092478 
L 242.182412 293.922784 
L 242.384769 296.410403 
L 242.587126 293.429372 
L 242.99184 268.758765 
L 243.396555 250.831457 
L 245.21777 176.305667 
L 245.420127 180.540787 
L 246.027199 207.287837 
L 246.836627 280.641774 
L 247.038985 288.988662 
L 247.241342 292.154724 
L 247.443699 289.625986 
L 247.848413 266.106675 
L 249.467271 154.307709 
L 249.669628 146.248644 
L 249.871985 144.316113 
L 250.074343 144.480584 
L 250.2767 151.408913 
L 250.883772 183.460143 
L 251.6932 258.294316 
L 252.097915 272.788297 
L 252.300272 275.851564 
L 252.502629 276.118829 
L 252.704986 272.253768 
L 253.109701 239.565214 
L 253.91913 166.4991 
L 254.323844 150.730471 
L 254.728558 141.931288 
L 254.930916 140.677199 
L 255.133273 148.160616 
L 255.740345 185.557144 
L 256.549773 260.617465 
L 256.954488 276.057153 
L 257.156845 279.860538 
L 257.359202 281.525804 
L 257.561559 280.559539 
L 257.966274 251.736046 
L 258.573345 201.449127 
L 258.97806 179.821228 
L 259.382774 168.822249 
L 259.585131 165.388923 
L 259.787489 164.957188 
L 259.989846 167.56816 
L 260.39456 183.521819 
L 260.596917 196.843947 
L 261.203989 258.705493 
L 261.608704 277.372918 
L 261.811061 280.292274 
L 262.013418 279.511038 
L 262.418132 255.601108 
L 262.62049 243.615305 
L 263.025204 233.97321 
L 263.227561 231.177208 
L 263.429918 230.169824 
L 263.834633 231.444472 
L 264.03699 231.13609 
L 264.239347 232.081796 
L 264.441704 232.164032 
L 264.644062 231.896767 
L 264.846419 233.932092 
L 265.048776 237.961624 
L 265.251133 237.961624 
L 265.45349 241.970598 
L 266.060562 284.342365 
L 266.465277 297.150521 
L 266.667634 298.692434 
L 266.869991 294.51899 
L 267.072348 286.583278 
L 267.477063 260.144612 
L 268.084134 238.023301 
L 268.488849 227.76444 
L 269.09592 216.539314 
L 269.500635 212.592017 
L 269.702992 214.771254 
L 269.905349 218.369051 
L 270.107706 219.047493 
L 270.310063 225.338497 
L 270.917135 274.083504 
L 271.32185 286.02819 
L 271.524207 288.166309 
L 271.726564 286.459925 
L 274.15485 145.200143 
L 274.357208 138.045667 
L 274.559565 141.376199 
L 275.166636 166.478542 
L 275.976065 247.870985 
L 276.38078 260.411876 
L 276.583137 259.712876 
L 276.987851 237.920507 
L 277.392566 209.076456 
L 278.404352 152.251825 
L 278.606709 149.209117 
L 279.011423 136.010342 
L 279.213781 134.406753 
L 279.416138 138.662433 
L 280.023209 180.294081 
L 280.630281 251.48934 
L 281.034995 274.227416 
L 281.237353 279.099861 
L 281.43971 277.557948 
L 281.642067 271.67812 
L 282.249139 230.005354 
L 282.85621 196.43277 
L 283.867996 153.732062 
L 284.070354 152.539649 
L 284.272711 160.680949 
L 285.284497 243.594746 
L 285.689211 275.707653 
L 286.093926 290.427781 
L 286.296283 292.709812 
L 286.49864 290.900634 
L 286.700997 287.96072 
L 287.105712 256.999109 
L 287.712783 205.540335 
L 288.522212 162.181744 
L 288.724569 155.068386 
L 288.926927 153.135855 
L 289.129284 156.713093 
L 289.736355 190.470707 
L 290.545784 260.432435 
L 290.950499 275.687094 
L 291.152856 278.462537 
L 291.355213 278.544772 
L 291.55757 277.064536 
L 291.759927 264.60588 
L 292.771714 166.087924 
L 293.176428 144.131084 
L 293.581142 132.905958 
L 293.7835 131.179015 
L 293.985857 134.694577 
L 294.592928 160.187537 
L 295.402357 243.34804 
L 295.807072 258.027051 
L 296.009429 257.86258 
L 296.414143 237.591565 
L 297.830644 102.643347 
L 298.235358 89.341778 
L 298.437715 86.751364 
L 298.640073 87.018629 
L 298.84243 89.074513 
L 299.044787 97.113019 
L 299.449501 124.086216 
L 300.056573 203.093834 
L 300.461287 228.340088 
L 300.663645 234.363828 
L 300.866002 235.083387 
L 301.068359 228.257852 
L 301.473073 198.20083 
L 302.484859 92.877898 
L 302.687217 81.549978 
L 302.889574 81.652772 
L 303.091931 89.752955 
L 303.496646 98.408226 
L 303.90136 120.673449 
L 304.306074 148.633469 
L 304.913146 217.896198 
L 305.31786 243.265805 
L 305.520218 248.83725 
L 305.722575 247.048631 
L 305.924932 239.914714 
L 306.532004 199.927772 
L 307.54379 129.86325 
L 307.746147 119.645507 
L 307.948504 118.761477 
L 308.757933 151.059412 
L 309.162647 177.148579 
L 309.769719 240.202538 
L 310.174433 260.103494 
L 310.376791 264.503085 
L 310.579148 263.927438 
L 310.983862 240.490362 
L 312.198005 136.359843 
L 312.60272 124.72354 
L 312.805077 120.344507 
L 313.007434 120.899596 
L 313.209791 124.600187 
L 313.816863 152.210707 
L 314.01922 165.902894 
L 314.626292 228.545676 
L 315.031006 249.063397 
L 315.233364 253.648018 
L 315.435721 252.990136 
L 315.840435 234.199357 
L 316.24515 215.470255 
L 316.649864 203.443334 
L 317.054578 188.126999 
L 317.66165 180.602464 
L 317.864007 180.150169 
L 318.066364 179.245581 
L 318.268722 183.932996 
L 318.875793 206.095424 
L 319.685222 264.749791 
L 320.089937 277.537389 
L 320.292294 279.182096 
L 320.697008 271.246384 
L 321.101723 244.992747 
L 322.315866 166.992513 
L 322.72058 156.733652 
L 322.922937 154.410503 
L 323.125295 158.54283 
L 323.732366 186.194468 
L 324.541795 254.799313 
L 324.94651 269.108265 
L 325.148867 272.007062 
L 325.351224 272.068738 
L 325.553581 269.807266 
L 325.755938 257.471962 
L 326.970082 144.953437 
L 327.172439 138.621315 
L 327.374796 137.038284 
L 327.77951 131.466839 
L 327.981868 136.462637 
L 328.184225 145.26182 
L 328.791296 196.9673 
L 329.196011 240.737068 
L 329.398368 255.991726 
L 329.803083 266.106675 
L 330.00544 265.160968 
L 330.207797 259.548405 
L 330.814869 210.988428 
L 331.42194 172.728429 
L 331.826655 150.031471 
L 332.029012 147.132674 
L 332.231369 147.153233 
L 332.433726 147.338263 
L 332.636083 149.435264 
L 332.838441 153.978768 
L 333.243155 176.922432 
L 333.445512 185.947762 
L 334.052584 251.736046 
L 334.457298 273.548974 
L 334.659655 278.976508 
L 334.862013 276.571124 
L 335.266727 256.711285 
L 335.671442 232.328503 
L 336.48087 192.17709 
L 336.683228 187.099057 
L 336.885585 185.98888 
L 337.087942 179.800669 
L 337.290299 177.950374 
L 337.695014 184.426408 
L 338.099728 198.899831 
L 338.302085 204.779658 
L 339.111514 270.670737 
L 339.313871 276.879506 
L 339.516228 279.12042 
L 339.718586 275.04977 
L 340.1233 251.67437 
L 340.932729 207.164484 
L 342.349229 145.344055 
L 342.551587 145.26182 
L 343.158658 169.973544 
L 343.76573 232.801356 
L 344.170444 250.831457 
L 344.372801 255.601108 
L 344.575159 253.462989 
L 344.777516 246.53466 
L 345.18223 215.614167 
L 346.194016 132.885399 
L 346.598731 118.103594 
L 347.003445 111.483648 
L 347.205802 110.640735 
L 347.40816 113.827355 
L 347.610517 121.680832 
L 348.015231 147.811116 
L 348.82466 239.030684 
L 349.229374 256.156197 
L 349.431732 255.39552 
L 349.634089 249.597927 
L 349.836446 238.455036 
L 351.050589 133.913341 
L 351.455304 115.533739 
L 351.860018 106.672879 
L 352.062375 105.76829 
L 352.264733 109.407205 
L 352.46709 120.508978 
L 353.276519 203.69004 
L 353.681233 241.662215 
L 354.085947 261.871554 
L 354.288305 267.155176 
L 354.490662 267.730823 
L 354.693019 265.48991 
L 355.097733 223.405966 
L 355.704805 149.496941 
L 356.109519 124.764658 
L 356.716591 106.549526 
L 356.918948 105.459908 
L 357.121306 110.270676 
L 357.52602 135.928107 
L 357.728377 148.633469 
L 358.740163 244.23207 
L 359.144878 257.225256 
L 359.347235 259.096111 
L 359.549592 258.767169 
L 359.751949 244.746041 
L 360.763735 123.962863 
L 361.16845 104.863702 
L 361.573164 93.74137 
L 361.775521 91.43878 
L 361.977879 94.728194 
L 362.180236 101.738758 
L 362.58495 127.56066 
L 363.394379 216.43652 
L 363.799093 234.117121 
L 364.001451 234.939475 
L 364.203808 229.039088 
L 364.406165 218.965257 
L 365.013237 149.270793 
L 365.620308 84.592686 
L 366.025023 68.392321 
L 366.429737 62.204111 
L 366.632094 62.697523 
L 366.834451 65.349613 
L 367.036809 74.08712 
L 367.441523 103.342347 
L 368.048595 183.15176 
L 368.453309 213.743312 
L 368.655666 222.295789 
L 368.858024 224.680614 
L 369.060381 220.774435 
L 369.262738 210.885634 
L 369.86981 147.194351 
L 370.476881 88.868925 
L 370.881596 72.195707 
L 371.083953 71.743412 
L 371.28631 72.462971 
L 371.488667 76.410269 
L 371.691024 82.660156 
L 372.298096 121.763067 
L 373.107525 207.041131 
L 373.512239 229.347471 
L 373.714597 233.726504 
L 374.119311 233.027503 
L 374.321668 220.239905 
L 375.333454 116.04771 
L 375.738169 102.746141 
L 375.940526 100.032374 
L 376.142883 98.922197 
L 376.34524 104.123583 
L 376.749955 130.459456 
L 377.559383 189.586677 
L 377.964098 224.372232 
L 378.368812 238.228889 
L 378.57117 238.455036 
L 378.773527 232.492973 
L 378.975884 221.22673 
L 380.392384 104.103024 
L 380.797099 94.131988 
L 381.201813 86.504658 
L 381.40417 90.287485 
L 382.011242 127.478424 
L 382.820671 210.721163 
L 383.225385 226.900969 
L 383.427743 227.558852 
L 383.6301 222.192995 
L 384.034814 199.845537 
L 385.0466 126.059864 
L 385.451315 109.283852 
L 385.653672 108.810999 
L 385.856029 112.614384 
L 386.058386 120.282831 
L 387.070172 190.614618 
L 387.474887 230.930501 
L 387.879601 252.928459 
L 388.284316 262.11826 
L 388.68903 264.646997 
L 388.891387 258.869963 
L 389.700816 215.100196 
L 390.307888 203.833952 
L 390.914959 191.025795 
L 391.117316 195.836564 
L 391.926745 235.617917 
L 392.533817 280.045568 
L 392.938531 292.483665 
L 393.140888 294.354519 
L 393.343246 293.902225 
L 393.545603 294.375078 
L 393.74796 285.370307 
L 394.355032 243.985364 
L 395.569175 187.201851 
L 395.771532 181.157553 
L 395.973889 182.370524 
L 396.176247 190.737971 
L 396.783318 233.006944 
L 397.188033 271.739797 
L 397.592747 289.667104 
L 397.795104 292.463106 
L 397.997461 289.91381 
L 398.402176 271.67812 
L 400.628105 143.349848 
L 400.830462 146.207527 
L 401.03282 156.219681 
L 401.639891 213.578841 
L 402.044606 258.170963 
L 402.44932 278.606449 
L 402.651677 282.635981 
L 402.854034 280.970715 
L 403.258749 262.673349 
L 403.663463 234.096563 
L 404.877607 127.457865 
L 405.282321 106.816791 
L 405.484678 102.58167 
L 405.687035 103.671289 
L 405.889393 114.238532 
L 406.294107 151.82009 
L 406.901179 229.676412 
L 407.305893 253.874166 
L 407.50825 259.507287 
L 407.710607 258.972758 
L 408.115322 237.612124 
L 409.73418 104.575878 
L 409.936537 99.621198 
L 410.138894 99.477286 
L 410.341251 104.103024 
L 410.948323 140.409934 
L 411.15068 156.404711 
L 411.757752 227.394381 
L 412.162466 251.592135 
L 412.364823 258.109286 
L 412.56718 259.897905 
L 412.971895 241.744451 
L 414.388395 143.103142 
L 414.79311 129.493191 
L 415.197824 122.791009 
L 415.400181 129.595985 
L 416.20961 192.485473 
L 416.614325 237.961624 
L 417.019039 261.151995 
L 417.221396 265.428233 
L 417.423753 264.873144 
L 417.828468 248.631662 
L 419.244968 150.380971 
L 419.649683 136.709343 
L 419.85204 132.86484 
L 420.054397 134.303959 
L 420.256754 143.000348 
L 421.066183 208.562485 
L 421.673255 263.865761 
L 422.077969 280.00445 
L 422.280326 282.492069 
L 422.482684 281.834187 
L 422.685041 281.669716 
L 423.089755 250.810899 
L 423.899184 181.527612 
L 424.708613 142.095759 
L 424.91097 138.909139 
L 425.113327 142.918112 
L 425.518042 169.110073 
L 425.720399 180.931405 
L 426.529828 255.703902 
L 426.934542 274.309651 
L 427.136899 278.791478 
L 427.339257 279.593273 
L 427.541614 279.81942 
L 427.743971 271.205267 
L 428.148685 230.78659 
L 428.755757 168.80169 
L 429.160471 143.123701 
L 429.565186 134.859047 
L 429.9699 138.785786 
L 430.374615 155.027268 
L 430.576972 166.68413 
L 431.386401 242.772393 
L 431.791115 255.025461 
L 431.993472 252.990136 
L 432.398187 232.657444 
L 433.207616 167.485925 
L 434.017044 97.030784 
L 434.219402 92.13778 
L 435.02883 119.58383 
L 435.433545 144.603937 
L 436.040617 215.881431 
L 436.445331 238.434478 
L 436.647688 243.574187 
L 436.850045 242.895746 
L 437.25476 222.27523 
L 437.659474 187.325204 
L 438.468903 113.786238 
L 438.67126 104.041348 
L 438.873617 105.007613 
L 439.075975 112.120972 
L 439.278332 111.668677 
L 439.480689 113.909591 
L 439.885403 132.474222 
L 440.290118 157.247623 
L 440.897189 230.724913 
L 441.301904 253.051812 
L 441.504261 258.479346 
L 441.706618 259.013875 
L 442.111333 244.273188 
L 442.920762 192.218208 
L 443.527833 157.329858 
L 444.134905 134.571224 
L 444.337262 131.98081 
L 444.539619 138.395168 
L 445.146691 183.480701 
L 445.753762 252.702312 
L 446.158477 273.919034 
L 446.360834 278.873714 
L 446.563191 276.879506 
L 446.967906 257.965375 
L 448.586763 148.119499 
L 448.991478 134.920724 
L 449.193835 132.597575 
L 449.396192 139.258639 
L 450.003264 179.656757 
L 450.812693 259.733435 
L 451.217407 273.035003 
L 451.419764 273.158357 
L 451.824479 255.971167 
L 452.43155 205.540335 
L 453.038622 163.620863 
L 453.443336 146.577586 
L 453.848051 138.70355 
L 454.050408 142.0752 
L 454.252765 152.066796 
L 454.65748 180.479111 
L 454.859837 188.928794 
L 455.669266 253.668577 
L 456.07398 267.216852 
L 456.276337 268.738206 
L 456.478694 266.743999 
L 456.681052 263.639614 
L 456.883409 255.642226 
L 457.288123 228.627912 
L 457.692838 217.67005 
L 457.895195 218.369051 
L 458.299909 224.125526 
L 458.502267 223.981614 
L 458.906981 220.15767 
L 459.109338 220.6922 
L 459.514053 224.845085 
L 459.71641 229.141882 
L 460.728196 286.850543 
L 461.13291 291.270694 
L 461.537625 287.96072 
L 461.739982 279.038184 
L 462.144696 244.540453 
L 463.561197 175.380519 
L 463.763554 168.123249 
L 463.965911 169.295103 
L 464.572983 188.764323 
L 465.382412 255.724461 
L 465.584769 262.632231 
L 465.787126 265.345998 
L 465.989483 262.920055 
L 467.608341 170.40528 
L 468.620127 149.229676 
L 468.822484 152.354619 
L 469.429556 178.587698 
L 470.036627 235.288975 
L 470.441342 253.072371 
L 470.643699 255.703902 
L 470.846056 253.134047 
L 471.857842 202.230362 
L 472.869628 171.98831 
L 473.071985 172.481723 
L 473.274343 170.693104 
L 473.4767 171.947193 
L 473.679057 175.730019 
L 473.881414 182.308848 
L 474.083772 183.460143 
L 474.286129 191.128589 
L 474.8932 243.224687 
L 475.297915 259.46617 
L 475.500272 261.131436 
L 475.702629 259.096111 
L 476.107344 234.733887 
L 476.512058 212.735929 
L 477.321487 181.260347 
L 477.726201 161.112685 
L 477.928558 157.556006 
L 478.333273 162.243421 
L 478.53563 166.704689 
L 479.142702 191.622002 
L 479.952131 259.363376 
L 480.356845 269.211059 
L 480.559202 268.799883 
L 480.963917 246.71969 
L 482.785131 118.391418 
L 482.987489 112.491031 
L 483.189846 109.859499 
L 483.392203 115.492621 
L 483.999275 155.335651 
L 484.606346 226.407557 
L 485.011061 249.618486 
L 485.213418 254.018078 
L 485.415775 254.963784 
L 485.82049 235.20674 
L 486.225204 204.018981 
L 487.23699 114.09462 
L 487.439347 111.010794 
L 487.844062 117.569064 
L 488.248776 136.174813 
L 489.260562 213.661077 
L 489.665277 245.794542 
L 490.069991 260.88473 
L 490.272348 263.228437 
L 490.474705 262.097701 
L 490.677063 260.329641 
L 490.87942 250.60531 
L 491.891206 170.93981 
L 492.29592 153.238649 
L 492.498277 145.858026 
L 492.700635 143.84326 
L 492.902992 145.467408 
L 493.105349 150.278177 
L 493.712421 183.768525 
L 494.52185 255.703902 
L 495.128921 273.960151 
L 495.331278 274.104063 
L 495.533636 273.487298 
L 495.735993 265.942204 
L 496.950136 174.517048 
L 497.557208 150.175382 
L 497.759565 146.824292 
L 497.961922 150.031471 
L 498.568994 181.507053 
L 499.378422 255.251608 
L 499.58078 262.077142 
L 499.783137 264.564762 
L 499.985494 261.254789 
L 500.187851 252.74343 
L 500.794923 215.860873 
L 500.99728 210.762281 
L 501.401995 197.686859 
L 501.806709 186.441174 
L 502.009066 185.98888 
L 502.211423 188.044764 
L 502.413781 188.682088 
L 502.616138 187.016822 
L 503.020852 196.720594 
L 503.223209 197.275682 
L 503.425567 204.779658 
L 504.032638 255.416079 
L 504.437353 268.470941 
L 504.63971 270.09509 
L 504.842067 267.730823 
L 505.246782 243.389158 
L 505.651496 219.602581 
L 507.270354 146.536468 
L 507.472711 143.432083 
L 507.675068 146.824292 
L 508.28214 174.82543 
L 508.889211 232.780797 
L 509.293926 249.885751 
L 509.496283 253.401312 
L 509.69864 251.571576 
L 510.103354 228.052264 
L 511.722212 121.804185 
L 512.126927 104.061907 
L 512.329284 105.644937 
L 512.936355 139.978198 
L 513.34107 178.875521 
L 513.745784 222.295789 
L 514.150499 244.992747 
L 514.352856 250.564193 
L 514.555213 251.057605 
L 514.75757 242.176186 
L 516.174071 145.529085 
L 516.376428 144.439466 
L 516.781142 153.75262 
L 516.9835 151.018295 
L 517.185857 151.552825 
L 517.590571 169.233426 
L 517.792928 173.468547 
L 517.995286 184.159143 
L 518.4 223.776026 
L 518.4 223.776026 
" clip-path="url(#p6c8ccad6fd)" style="fill: none; stroke: #1f77b4; stroke-width: 1.5; stroke-linecap: square"/>
   </g>
   <g id="line2d_14">
    <path d="M 72 278.746928 
L 72.202357 278.746928 
L 72.809429 284.465758 
L 73.011786 282.937035 
L 73.214143 276.700289 
L 74.833001 194.004423 
L 75.237715 173.470973 
L 75.440073 168.084004 
L 75.64243 167.145044 
L 76.047144 177.409781 
L 76.249501 192.142661 
L 76.654216 241.229538 
L 77.261287 275.151631 
L 77.463645 281.522337 
L 77.666002 282.552454 
L 77.868359 273.659253 
L 78.880145 204.512982 
L 79.689574 161.263708 
L 79.891931 157.673585 
L 80.094288 156.633988 
L 80.296646 157.657024 
L 80.499003 164.19277 
L 81.308432 234.142999 
L 81.713146 266.74035 
L 81.915503 275.392647 
L 82.11786 278.361461 
L 82.320218 279.609875 
L 82.522575 279.046871 
L 82.724932 274.530874 
L 83.332004 240.512731 
L 84.141432 221.809903 
L 84.34379 224.15206 
L 84.748504 231.256488 
L 84.950861 233.024191 
L 85.355576 242.596363 
L 85.557933 242.417034 
L 85.76029 247.823908 
L 86.165005 271.263916 
L 86.569719 297.960088 
L 86.772076 304.810421 
L 86.974433 305.725389 
L 87.581505 294.808816 
L 87.986219 275.750562 
L 88.390934 257.47483 
L 88.795648 250.11923 
L 88.998005 246.510491 
L 89.200363 245.895982 
L 89.605077 240.74379 
L 89.807434 241.969542 
L 90.009791 239.787313 
L 90.414506 241.240561 
L 90.81922 250.731897 
L 91.831006 305.951636 
L 92.033364 305.55948 
L 92.235721 303.088742 
L 92.640435 272.510139 
L 93.04515 245.451253 
L 93.247507 239.072895 
L 93.854578 234.632526 
L 94.056936 234.757292 
L 94.46165 227.968294 
L 94.664007 228.226718 
L 94.866364 229.875151 
L 95.675793 253.893047 
L 96.485222 295.271664 
L 96.687579 299.385889 
L 96.889937 296.387293 
L 97.092294 295.44769 
L 97.294651 285.874549 
L 97.699365 249.609354 
L 98.10408 242.248515 
L 98.306437 240.224388 
L 98.508794 233.662654 
L 98.711151 231.91099 
L 98.913509 233.551494 
L 99.115866 232.580916 
L 99.318223 227.789655 
L 99.52058 226.958208 
L 99.722937 222.226979 
L 99.925295 226.060303 
L 101.341795 295.959411 
L 101.544152 296.264269 
L 101.74651 290.498695 
L 101.948867 290.391995 
L 102.151224 283.804997 
L 102.555938 248.159916 
L 102.758296 242.563452 
L 102.960653 243.328972 
L 103.365367 233.394063 
L 103.567724 233.424117 
L 103.770082 235.682003 
L 103.972439 231.564366 
L 104.174796 224.614793 
L 104.377153 223.173893 
L 104.57951 217.93246 
L 104.781868 221.193102 
L 106.198368 295.057945 
L 106.400725 295.33412 
L 106.603083 289.688399 
L 106.80544 288.241996 
L 107.007797 282.082137 
L 107.412511 247.931071 
L 107.614869 241.762417 
L 107.817226 242.311404 
L 108.626655 221.799142 
L 109.031369 202.601987 
L 109.233726 202.667607 
L 109.436083 203.62009 
L 109.638441 208.838879 
L 110.852584 285.686483 
L 111.054941 289.454877 
L 111.257298 289.942611 
L 111.459655 286.89448 
L 111.662013 285.943792 
L 111.86437 281.253924 
L 112.471442 238.323736 
L 112.673799 233.747928 
L 113.887942 181.543565 
L 114.090299 178.676247 
L 114.292656 179.476392 
L 114.495014 184.891491 
L 115.102085 235.068654 
L 115.5068 265.261661 
L 115.911514 281.449421 
L 116.113871 283.863586 
L 116.316228 282.94213 
L 116.720943 277.348605 
L 117.530372 233.086485 
L 118.542158 168.837687 
L 118.946872 154.529415 
L 119.149229 151.691276 
L 119.351587 155.600611 
L 119.756301 182.275725 
L 120.768087 276.627954 
L 120.970444 280.146838 
L 121.172801 281.357065 
L 121.375159 279.595718 
L 121.577516 274.431518 
L 121.98223 253.927051 
L 122.994016 203.083376 
L 123.398731 193.257909 
L 123.601088 191.660582 
L 123.803445 192.963683 
L 124.20816 208.715547 
L 125.017588 248.041844 
L 125.62466 295.081775 
L 125.827017 300.92423 
L 126.029374 301.696776 
L 126.231732 296.868595 
L 126.434089 283.76255 
L 127.04116 225.780382 
L 127.445875 208.893017 
L 128.457661 153.008503 
L 128.660018 152.541571 
L 128.862375 156.203014 
L 129.26709 181.645806 
L 130.278876 279.08574 
L 130.481233 286.933867 
L 130.68359 288.23028 
L 131.088305 282.259006 
L 131.290662 269.275598 
L 131.897733 216.886171 
L 132.302448 192.744415 
L 133.314234 145.149304 
L 133.516591 142.408761 
L 133.718948 144.626642 
L 133.921306 151.412328 
L 134.32602 183.767653 
L 135.135449 270.016638 
L 135.540163 279.4342 
L 135.944878 268.965157 
L 136.754306 212.465639 
L 136.956664 193.439801 
L 137.563735 180.508423 
L 137.766092 180.520988 
L 137.96845 181.305593 
L 138.575521 200.182421 
L 139.789665 263.970169 
L 139.992022 277.537488 
L 140.396736 286.852658 
L 141.003808 265.612306 
L 141.408522 232.31956 
L 142.015594 205.277005 
L 142.217951 200.828967 
L 142.420308 199.328156 
L 143.02738 206.434107 
L 143.229737 212.643055 
L 143.432094 212.197507 
L 143.634451 214.221874 
L 144.44388 248.506749 
L 144.848595 274.12423 
L 145.050952 281.425753 
L 145.253309 281.973526 
L 145.860381 263.698146 
L 146.265095 228.640097 
L 146.467452 218.750515 
L 147.074524 208.237848 
L 147.276881 206.896654 
L 147.479238 207.607937 
L 147.681596 206.401416 
L 148.491024 222.207985 
L 149.098096 246.299013 
L 149.502811 268.266726 
L 149.907525 277.319179 
L 150.109882 279.431977 
L 150.514597 271.802022 
L 150.716954 271.728713 
L 150.919311 262.463171 
L 151.121668 246.850851 
L 151.72874 231.380286 
L 151.931097 227.423366 
L 152.133454 226.517062 
L 152.538169 231.263845 
L 152.740526 228.450461 
L 153.752312 241.386014 
L 154.359383 267.555374 
L 154.764098 282.756026 
L 154.966455 285.890292 
L 155.168812 284.917753 
L 155.37117 280.564442 
L 155.978241 256.357759 
L 156.382956 236.016137 
L 157.597099 173.921644 
L 158.001813 161.714273 
L 158.20417 161.989005 
L 158.608885 179.60198 
L 159.013599 215.486641 
L 159.418314 261.657249 
L 159.823028 281.781932 
L 160.025385 281.717041 
L 160.227743 275.698567 
L 160.632457 246.227936 
L 161.239529 201.765769 
L 161.644243 186.205396 
L 162.453672 164.419916 
L 162.656029 169.935309 
L 163.060743 191.983837 
L 163.465458 219.939222 
L 164.679601 281.940346 
L 164.881958 282.212593 
L 165.084316 276.680923 
L 165.286673 265.352412 
L 165.691387 228.831579 
L 166.096102 211.975 
L 166.298459 209.387395 
L 166.500816 204.169505 
L 167.310245 170.345556 
L 167.512602 168.747448 
L 167.714959 173.403666 
L 168.524388 227.952175 
L 169.13146 273.559334 
L 169.333817 279.311587 
L 169.536174 280.08274 
L 169.940888 268.876154 
L 170.143246 260.241465 
L 171.155032 182.713671 
L 171.357389 177.224529 
L 171.762103 162.931238 
L 172.166818 153.815733 
L 172.369175 152.636975 
L 172.571532 155.064741 
L 172.976247 179.908396 
L 173.988033 270.561963 
L 174.392747 279.790491 
L 174.595104 277.558384 
L 174.797461 271.060001 
L 175.809248 213.38196 
L 176.213962 191.315875 
L 176.618676 174.575155 
L 176.821034 174.434407 
L 177.225748 171.14572 
L 177.630462 178.955188 
L 178.035177 206.332035 
L 178.439891 246.256188 
L 178.844606 284.1155 
L 179.24932 293.154539 
L 179.654034 279.740169 
L 180.058749 249.695569 
L 180.463463 226.57549 
L 180.868178 203.578181 
L 181.475249 166.657878 
L 181.879964 153.714241 
L 182.082321 153.846546 
L 182.487035 161.750693 
L 183.296464 232.241436 
L 183.701179 268.481332 
L 183.903536 273.819591 
L 184.105893 273.526904 
L 184.30825 272.159012 
L 184.510607 269.028967 
L 184.915322 249.853399 
L 185.522393 203.537236 
L 185.927108 164.324865 
L 186.331822 143.146828 
L 186.53418 139.82469 
L 186.736537 141.264992 
L 186.938894 147.072413 
L 187.343608 169.675049 
L 188.557752 260.32584 
L 188.760109 263.720497 
L 189.164823 265.608253 
L 189.36718 262.079096 
L 189.974252 235.342792 
L 190.378966 213.399268 
L 190.986038 165.703433 
L 191.390752 148.869749 
L 191.795467 161.088763 
L 192.402539 196.686827 
L 193.414325 256.078218 
L 193.819039 271.45112 
L 194.021396 274.223543 
L 194.223753 270.015008 
L 195.640254 193.719961 
L 195.842611 187.573757 
L 196.044968 186.421589 
L 196.247325 189.996312 
L 196.854397 206.804254 
L 197.461469 229.25566 
L 197.866183 244.719446 
L 198.473255 278.277361 
L 198.675612 284.670042 
L 198.877969 286.508738 
L 199.080326 280.601443 
L 199.282684 267.216525 
L 199.889755 208.929586 
L 200.092112 200.279537 
L 200.29447 197.698032 
L 200.496827 192.135592 
L 200.901541 174.88874 
L 201.103898 170.621669 
L 201.508613 168.141894 
L 201.71097 168.655026 
L 201.913327 175.273268 
L 202.318042 200.291119 
L 203.329828 269.087863 
L 203.532185 272.610476 
L 203.734542 272.644767 
L 203.936899 266.726068 
L 204.948685 191.398133 
L 205.3534 186.788243 
L 205.960471 167.74113 
L 206.162829 166.005959 
L 206.365186 168.301752 
L 206.567543 172.785119 
L 206.972257 193.690825 
L 207.984044 259.486467 
L 208.186401 265.264808 
L 208.388758 267.198889 
L 208.591115 265.62336 
L 208.99583 249.621117 
L 209.805258 193.770048 
L 210.614687 162.139814 
L 211.019402 145.792255 
L 211.221759 143.418407 
L 211.424116 147.587031 
L 211.626473 157.123184 
L 213.042974 258.277651 
L 213.245331 260.799263 
L 213.447688 259.567151 
L 213.650045 253.781657 
L 214.05476 230.058756 
L 214.864189 173.704171 
L 215.875975 123.485596 
L 216.078332 119.350476 
L 216.280689 119.694621 
L 216.483046 126.097519 
L 217.292475 197.226742 
L 217.697189 237.289553 
L 218.101904 251.388381 
L 218.506618 249.581362 
L 218.708976 245.88771 
L 218.911333 237.7499 
L 220.327833 146.283105 
L 220.53019 147.204343 
L 220.732548 151.306958 
L 221.137262 171.92926 
L 222.75612 273.379287 
L 222.958477 276.562538 
L 223.160834 275.088027 
L 223.363191 271.084325 
L 223.970263 251.1724 
L 224.374977 221.131447 
L 224.779692 207.23271 
L 224.982049 205.862189 
L 225.184406 206.695351 
L 225.589121 210.547866 
L 225.791478 215.717917 
L 226.196192 231.652194 
L 226.600907 239.149398 
L 227.207978 268.158383 
L 227.81505 297.285812 
L 228.017407 298.754297 
L 228.219764 294.844406 
L 228.422121 284.57457 
L 229.029193 235.885598 
L 229.23155 231.651656 
L 229.433908 231.159424 
L 229.838622 222.598926 
L 230.850408 188.939026 
L 231.052765 190.585229 
L 231.45748 213.878231 
L 232.469266 287.117661 
L 232.671623 291.544487 
L 232.87398 289.487182 
L 233.076337 285.213862 
L 233.278694 275.992971 
L 233.885766 230.143588 
L 235.099909 185.580343 
L 235.302267 179.437149 
L 235.504624 178.290136 
L 235.706981 180.982893 
L 235.909338 187.797846 
L 237.325839 284.234103 
L 237.528196 286.172518 
L 237.730553 285.059575 
L 237.93291 279.50418 
L 238.135267 270.228422 
L 238.742339 230.377709 
L 239.754125 190.685412 
L 239.956482 190.21173 
L 240.361197 190.509124 
L 240.765911 202.266095 
L 241.980054 279.714634 
L 242.182412 286.450979 
L 242.384769 288.557139 
L 242.789483 279.695949 
L 242.99184 271.470267 
L 243.396555 239.529142 
L 244.003626 220.619577 
L 244.813055 190.793297 
L 245.21777 182.868707 
L 245.420127 183.51781 
L 245.622484 188.585489 
L 246.229556 229.559135 
L 247.038985 284.389508 
L 247.241342 287.921369 
L 247.848413 271.183251 
L 248.455485 227.696192 
L 249.264914 173.843176 
L 249.669628 150.830446 
L 249.871985 144.163457 
L 250.074343 144.516544 
L 250.2767 148.647848 
L 250.479057 156.087383 
L 250.883772 188.429091 
L 251.6932 263.949854 
L 252.097915 269.754327 
L 252.300272 269.377996 
L 252.502629 266.813128 
L 252.704986 261.576646 
L 253.312058 222.347178 
L 254.323844 147.57233 
L 254.526201 143.048184 
L 254.728558 141.631756 
L 254.930916 143.203732 
L 255.133273 147.158243 
L 255.537987 170.284699 
L 256.549773 261.01643 
L 256.752131 268.626745 
L 256.954488 271.570011 
L 257.156845 270.253208 
L 257.561559 261.054815 
L 257.966274 239.693311 
L 258.370988 217.999059 
L 259.180417 167.028164 
L 259.382774 163.555529 
L 259.585131 163.669836 
L 259.787489 166.670287 
L 260.192203 179.612522 
L 260.596917 202.598616 
L 261.001632 232.318511 
L 261.608704 279.356544 
L 261.811061 284.080222 
L 262.013418 284.806418 
L 262.215775 278.998373 
L 263.227561 212.748025 
L 263.429918 211.571851 
L 263.632276 209.406658 
L 263.834633 210.500536 
L 264.03699 213.457614 
L 264.239347 214.378645 
L 264.441704 217.165703 
L 265.251133 236.134325 
L 265.655848 243.933308 
L 266.465277 287.097396 
L 266.667634 294.202629 
L 266.869991 294.661418 
L 267.274705 279.449693 
L 267.881777 232.73994 
L 268.286491 221.757977 
L 268.488849 219.863321 
L 268.691206 216.86947 
L 268.893563 216.181963 
L 269.298277 213.216056 
L 269.500635 215.047852 
L 269.702992 213.523802 
L 269.905349 217.17452 
L 270.512421 238.205392 
L 271.32185 281.008649 
L 271.524207 281.617322 
L 271.928921 273.696341 
L 272.131278 265.935743 
L 272.940707 219.242184 
L 273.547779 189.491732 
L 274.15485 156.311438 
L 274.357208 149.503283 
L 274.559565 147.428273 
L 274.761922 150.082261 
L 274.964279 160.118678 
L 276.178422 255.603923 
L 276.38078 258.372718 
L 276.785494 256.895571 
L 277.190209 230.102484 
L 277.79728 186.893683 
L 278.404352 156.459324 
L 278.606709 145.382764 
L 279.011423 135.466333 
L 279.213781 136.77503 
L 279.416138 139.801471 
L 279.618495 146.744049 
L 279.820852 157.960695 
L 280.832638 248.525843 
L 281.237353 266.543592 
L 281.642067 259.036739 
L 282.046782 241.207815 
L 282.85621 185.257568 
L 283.665639 155.353568 
L 283.867996 152.015112 
L 284.272711 159.487205 
L 284.677425 182.545867 
L 285.08214 215.076572 
L 285.891568 281.897019 
L 286.093926 284.185218 
L 286.296283 280.855761 
L 287.105712 246.55122 
L 287.712783 208.294863 
L 288.117498 180.619839 
L 288.522212 164.414255 
L 288.724569 160.793429 
L 288.926927 161.164433 
L 289.129284 163.499644 
L 289.331641 169.494224 
L 289.736355 192.540999 
L 290.748141 279.127824 
L 290.950499 281.870584 
L 291.152856 279.465968 
L 291.55757 265.769135 
L 291.962285 244.786551 
L 292.366999 213.044584 
L 292.771714 169.369757 
L 293.176428 142.488071 
L 293.378785 137.409457 
L 293.581142 136.659024 
L 293.7835 137.296886 
L 294.188214 147.704467 
L 294.592928 170.693441 
L 294.997643 209.01774 
L 295.402357 251.261331 
L 295.807072 265.740521 
L 296.009429 265.627612 
L 296.211786 261.358489 
L 296.818858 210.011686 
L 298.235358 86.125628 
L 298.437715 85.333211 
L 298.640073 89.55847 
L 299.247144 117.700939 
L 299.854216 171.596063 
L 300.25893 220.711729 
L 300.461287 236.468466 
L 300.663645 242.531 
L 300.866002 241.720479 
L 301.068359 234.389997 
L 302.889574 72.923954 
L 303.091931 69.78847 
L 303.294288 76.500067 
L 303.699003 103.632221 
L 304.508432 171.35588 
L 305.115503 228.262831 
L 305.31786 238.78936 
L 305.520218 242.514233 
L 305.722575 240.361295 
L 305.924932 234.61786 
L 306.329646 210.979041 
L 307.54379 126.037812 
L 307.948504 109.304783 
L 308.150861 112.271229 
L 308.757933 150.423065 
L 309.365005 199.854537 
L 309.972076 246.818321 
L 310.376791 260.01459 
L 310.579148 258.071735 
L 310.983862 240.003421 
L 311.388577 204.761542 
L 311.995648 149.214193 
L 312.400363 130.353272 
L 312.805077 119.545424 
L 313.007434 117.273655 
L 313.209791 122.450714 
L 313.614506 146.92507 
L 314.423935 208.695272 
L 315.031006 249.871628 
L 315.233364 251.963962 
L 315.435721 251.393495 
L 315.638078 243.128317 
L 316.649864 184.316859 
L 317.054578 173.692124 
L 317.256936 171.175137 
L 317.459293 171.457981 
L 318.268722 183.827495 
L 318.471079 189.553282 
L 319.280508 233.159598 
L 319.685222 258.045113 
L 319.887579 266.117289 
L 320.089937 269.162334 
L 320.292294 269.720954 
L 320.697008 260.637039 
L 321.30408 228.392738 
L 322.315866 174.622142 
L 322.518223 166.61224 
L 322.922937 160.521888 
L 323.125295 161.383898 
L 323.327652 165.597048 
L 324.137081 211.057643 
L 324.541795 251.087101 
L 324.744152 261.099191 
L 324.94651 263.026724 
L 325.148867 263.739332 
L 325.351224 259.948747 
L 325.755938 249.591144 
L 326.36301 208.249941 
L 327.172439 143.383267 
L 327.374796 134.991763 
L 327.577153 133.196338 
L 327.77951 133.258444 
L 327.981868 136.37262 
L 328.386582 153.975466 
L 328.993654 212.193862 
L 329.398368 251.660265 
L 329.600725 261.979215 
L 329.803083 265.934413 
L 330.00544 265.174269 
L 330.207797 261.185964 
L 330.410154 250.773119 
L 331.42194 165.999995 
L 332.029012 134.635953 
L 332.231369 131.187549 
L 332.433726 134.64953 
L 333.040798 167.066792 
L 333.850227 224.813843 
L 334.457298 265.344387 
L 334.659655 270.090066 
L 334.862013 270.035354 
L 335.06437 263.540962 
L 336.278513 188.066968 
L 336.48087 185.043649 
L 336.885585 172.879661 
L 337.290299 174.645857 
L 337.695014 185.877201 
L 337.897371 190.332676 
L 339.313871 277.025967 
L 339.516228 280.351621 
L 339.718586 276.433462 
L 340.1233 256.716279 
L 340.932729 200.504782 
L 341.337443 183.795971 
L 341.539801 179.631856 
L 341.944515 164.717046 
L 342.349229 154.774609 
L 342.551587 156.432409 
L 342.753944 160.012502 
L 343.158658 184.057839 
L 343.563373 208.513193 
L 343.968087 244.151015 
L 344.170444 253.306796 
L 344.372801 256.127921 
L 344.575159 253.829505 
L 344.777516 250.233983 
L 345.18223 224.207654 
L 346.598731 119.263959 
L 347.003445 110.803624 
L 347.205802 111.80657 
L 347.610517 123.744891 
L 348.015231 150.384777 
L 348.622303 209.757169 
L 349.027017 239.829385 
L 349.229374 244.739083 
L 349.634089 240.336359 
L 350.038803 218.269416 
L 350.645875 176.869899 
L 351.050589 139.399911 
L 351.455304 112.154012 
L 351.657661 106.268237 
L 351.860018 106.801734 
L 352.264733 117.618912 
L 352.669447 138.966939 
L 353.88359 248.936193 
L 354.085947 254.544869 
L 354.288305 254.423799 
L 354.490662 250.094809 
L 354.895376 234.186012 
L 355.300091 206.364896 
L 356.311877 114.323221 
L 356.514234 108.622101 
L 356.716591 107.251667 
L 356.918948 108.81663 
L 357.121306 115.197596 
L 357.52602 138.477743 
L 358.94252 257.64847 
L 359.144878 255.071559 
L 359.549592 242.192426 
L 359.954306 221.991797 
L 360.359021 181.607915 
L 360.763735 129.042477 
L 361.16845 98.37524 
L 361.370807 94.671893 
L 361.573164 96.004233 
L 361.775521 98.415819 
L 362.382593 123.852341 
L 362.989665 175.842161 
L 363.394379 224.911719 
L 363.596736 240.807882 
L 363.799093 245.750769 
L 364.001451 245.820796 
L 364.203808 235.624695 
L 365.013237 163.482576 
L 366.025023 60.091055 
L 366.22738 55.8 
L 366.429737 58.816493 
L 366.834451 76.133078 
L 367.239166 97.636604 
L 367.846238 151.3548 
L 368.250952 203.084384 
L 368.453309 218.982005 
L 368.655666 225.795757 
L 368.858024 224.299734 
L 369.060381 216.556905 
L 370.072167 135.627034 
L 370.679238 78.631956 
L 370.881596 64.958941 
L 371.083953 61.061877 
L 371.28631 64.978787 
L 371.488667 73.107642 
L 372.095739 116.261117 
L 373.107525 205.74275 
L 373.512239 225.407096 
L 373.714597 225.586657 
L 374.524025 195.910901 
L 374.92874 158.089409 
L 375.333454 115.283526 
L 375.738169 92.119422 
L 375.940526 90.700902 
L 376.142883 93.158251 
L 376.34524 98.263456 
L 376.749955 125.173284 
L 377.357026 177.593063 
L 377.761741 206.773758 
L 378.166455 234.833403 
L 378.368812 239.559889 
L 378.57117 239.518485 
L 378.773527 232.690992 
L 379.380598 187.2791 
L 380.392384 99.472571 
L 380.594742 91.468752 
L 380.797099 88.512859 
L 381.201813 95.366128 
L 381.606528 108.223001 
L 382.415956 168.559411 
L 382.820671 208.038357 
L 383.023028 217.97493 
L 383.225385 222.210255 
L 383.427743 221.778109 
L 383.6301 216.199668 
L 384.237171 178.76602 
L 384.237171 178.76602 
" clip-path="url(#p6c8ccad6fd)" style="fill: none; stroke: #ff7f0e; stroke-width: 1.5; stroke-linecap: square"/>
   </g>
   <g id="line2d_15">
    <path d="M 384.439529 163.249004 
L 385.0466 120.1355 
L 385.451315 101.998776 
L 385.653672 98.525355 
L 385.856029 99.714786 
L 386.260743 116.321256 
L 386.665458 141.223189 
L 387.272529 187.009048 
L 387.879601 226.778011 
L 388.081958 229.6425 
L 388.284316 226.457565 
L 388.68903 207.056306 
L 390.307888 94.443829 
L 390.510245 88.690664 
L 390.712602 88.484457 
L 390.914959 93.748845 
L 391.319674 115.738893 
L 392.33146 192.547283 
L 392.736174 208.507616 
L 392.938531 209.401465 
L 393.140888 205.225216 
L 393.545603 186.80957 
L 395.164461 87.680937 
L 395.366818 87.959897 
L 395.569175 90.860897 
L 395.973889 106.32075 
L 397.39039 201.406932 
L 397.592747 205.140344 
L 397.795104 204.696491 
L 397.997461 200.413339 
L 398.402176 182.571899 
L 399.211605 125.928176 
L 399.616319 99.725528 
L 400.021034 87.595594 
L 400.223391 86.984291 
L 400.425748 91.42756 
L 400.830462 111.361408 
L 402.044606 184.615266 
L 402.44932 193.858876 
L 402.651677 191.433937 
L 402.854034 186.352283 
L 403.258749 167.338786 
L 404.472892 91.188642 
L 404.675249 85.41156 
L 404.877607 83.070991 
L 405.079964 84.405804 
L 405.282321 88.604035 
L 405.687035 108.637214 
L 406.698821 170.996004 
L 407.103536 182.924287 
L 407.305893 183.603056 
L 407.50825 181.824689 
L 407.710607 176.767161 
L 408.115322 158.227584 
L 409.329465 88.979229 
L 409.531822 84.435954 
L 409.73418 84.083791 
L 409.936537 87.161497 
L 410.341251 103.107224 
L 411.757752 175.805419 
L 411.960109 178.762757 
L 412.162466 178.630818 
L 412.364823 175.455251 
L 412.769538 160.965632 
L 414.186038 87.600502 
L 414.388395 84.66197 
L 414.590752 84.744291 
L 414.79311 88.404747 
L 415.197824 104.93481 
L 416.411967 165.282542 
L 416.614325 169.725102 
L 416.816682 171.599098 
L 417.019039 171.013175 
L 417.221396 167.39079 
L 417.626111 152.620713 
L 419.042611 87.008746 
L 419.244968 85.61412 
L 419.447325 87.690666 
L 419.649683 92.32383 
L 420.054397 109.026821 
L 421.066183 158.137439 
L 421.470898 167.933252 
L 421.673255 168.868646 
L 421.875612 167.049372 
L 422.077969 162.904135 
L 422.482684 147.886862 
L 423.696827 92.415056 
L 423.899184 89.031399 
L 424.101541 88.766615 
L 424.303898 91.218481 
L 424.708613 104.45058 
L 425.922756 157.604429 
L 426.327471 165.030316 
L 426.529828 165.108449 
L 426.732185 162.775677 
L 427.136899 151.165979 
L 428.5534 93.055697 
L 428.755757 91.154133 
L 428.958114 91.864954 
L 429.160471 95.355586 
L 429.565186 108.871348 
L 430.779329 157.642792 
L 430.981686 161.507098 
L 431.184044 162.973635 
L 431.386401 162.304661 
L 431.588758 159.214203 
L 431.993472 147.428804 
L 433.207616 98.778549 
L 433.409973 95.358646 
L 433.61233 94.403437 
L 433.814687 96.180415 
L 434.017044 100.196731 
L 434.421759 114.193995 
L 435.433545 153.190536 
L 435.838259 160.869005 
L 436.040617 161.716596 
L 436.242974 160.143633 
L 436.445331 156.679876 
L 436.850045 144.308951 
L 438.064189 100.447277 
L 438.266546 97.998259 
L 438.468903 98.058673 
L 438.67126 100.362509 
L 439.075975 111.134418 
L 440.290118 154.140931 
L 440.694832 159.914963 
L 440.897189 159.776382 
L 441.099547 157.83965 
L 441.504261 148.513601 
L 442.920762 102.435083 
L 443.123119 101.095412 
L 443.325476 101.965678 
L 443.527833 104.974927 
L 443.932548 116.251681 
L 444.944334 150.746383 
L 445.349048 158.302654 
L 445.551405 159.400957 
L 445.753762 158.752735 
L 446.158477 152.072428 
L 446.765549 132.562554 
L 447.37262 112.220221 
L 447.777335 105.170593 
L 447.979692 104.625962 
L 448.182049 106.173826 
L 448.586763 114.671606 
L 450.003264 156.04503 
L 450.205621 158.146069 
L 450.407978 158.713748 
L 450.610335 157.370064 
L 450.812693 154.537558 
L 451.217407 144.46621 
L 452.229193 113.191074 
L 452.633908 107.977301 
L 452.836265 108.22435 
L 453.038622 110.318694 
L 453.443336 119.299555 
L 454.65748 153.751929 
L 455.062194 158.140274 
L 455.264551 157.949617 
L 455.466908 156.216203 
L 455.871623 148.501424 
L 457.288123 112.054868 
L 457.490481 111.104767 
L 457.692838 111.993199 
L 457.895195 114.52984 
L 458.299909 123.878127 
L 459.311695 151.422994 
L 459.71641 157.194713 
L 459.918767 157.982309 
L 460.121124 157.348194 
L 460.323481 155.183395 
L 460.728196 147.116102 
L 461.942339 116.534083 
L 462.144696 114.593644 
L 462.347053 114.349911 
L 462.549411 115.755517 
L 462.954125 122.844806 
L 464.168268 152.930111 
L 464.572983 157.372568 
L 464.77534 157.650286 
L 464.977697 156.507579 
L 465.382412 150.49239 
L 466.798912 118.46092 
L 467.001269 117.242668 
L 467.203626 117.606934 
L 467.405984 119.472627 
L 467.810698 126.977446 
L 469.024841 154.285919 
L 469.429556 157.555307 
L 469.631913 157.303062 
L 469.83427 155.773021 
L 470.238985 149.354791 
L 471.453128 122.63201 
L 471.655485 120.635517 
L 471.857842 120.036399 
L 472.060199 120.921834 
L 472.262557 123.09404 
L 472.667271 130.804124 
L 473.679057 152.667537 
L 474.083772 156.974817 
L 474.286129 157.500127 
L 474.488486 156.824958 
L 474.690843 155.023737 
L 475.095558 148.337314 
L 476.309701 124.259441 
L 476.512058 122.867543 
L 476.714415 122.853361 
L 476.916772 124.164637 
L 477.321487 130.127999 
L 478.53563 153.98281 
L 478.940345 157.263145 
L 479.142702 157.31903 
L 479.345059 156.261442 
L 479.749773 151.191708 
L 481.166274 126.010909 
L 481.368631 125.203266 
L 481.570988 125.677055 
L 481.773345 127.321697 
L 482.17806 133.576891 
L 483.189846 152.625103 
L 483.59456 156.687644 
L 483.796917 157.386176 
L 483.999275 157.046758 
L 484.201632 155.681551 
L 484.606346 150.289849 
L 485.82049 129.32549 
L 486.022847 127.887899 
L 486.225204 127.600633 
L 486.427561 128.488216 
L 486.832276 133.223528 
L 488.248776 155.896358 
L 488.451133 157.085208 
L 488.65349 157.357899 
L 488.855848 156.643168 
L 489.058205 155.085524 
L 489.462919 149.551706 
L 490.474705 132.654442 
L 490.87942 129.856639 
L 491.081777 130.024184 
L 491.284134 131.248712 
L 491.688849 136.287052 
L 492.902992 155.009186 
L 493.307706 157.327661 
L 493.510063 157.198978 
L 493.712421 156.210058 
L 494.117135 151.899275 
L 495.533636 132.33178 
L 495.735993 131.879223 
L 495.93835 132.441534 
L 496.343064 136.19657 
L 497.759565 155.861842 
L 497.961922 157.011624 
L 498.164279 157.394588 
L 498.366636 156.966018 
L 498.568994 155.751257 
L 498.973708 151.246113 
L 500.187851 134.951946 
L 500.390209 133.993058 
L 500.592566 133.953372 
L 500.794923 134.832443 
L 501.199637 138.894123 
L 502.413781 155.099588 
L 502.818495 157.304998 
L 503.020852 157.341231 
L 503.223209 156.618164 
L 503.627924 153.180601 
L 505.044424 136.252 
L 505.246782 135.714244 
L 505.449139 136.036425 
L 505.651496 137.16919 
L 506.05621 141.440199 
L 507.067996 154.321784 
L 507.472711 157.032445 
L 507.675068 157.477714 
L 507.877425 157.21248 
L 508.079782 156.290674 
L 508.484497 152.641502 
L 509.69864 138.594941 
L 509.900997 137.656431 
L 510.103354 137.484458 
L 510.305712 138.106695 
L 510.710426 141.373791 
L 511.924569 155.313139 
L 512.329284 157.380287 
L 512.531641 157.497916 
L 512.733998 156.995806 
L 513.138713 154.253308 
L 513.948141 144.912134 
L 514.352856 140.918874 
L 514.75757 139.135476 
L 514.959927 139.291149 
L 515.162285 140.151174 
L 515.566999 143.63222 
L 516.578785 154.683683 
L 516.9835 157.144766 
L 517.185857 157.610936 
L 517.388214 157.477589 
L 517.590571 156.785459 
L 517.995286 153.819593 
L 518.4 149.587951 
L 518.4 149.587951 
" clip-path="url(#p6c8ccad6fd)" style="fill: none; stroke: #2ca02c; stroke-width: 1.5; stroke-linecap: square"/>
   </g>
   <g id="patch_3">
    <path d="M 72 320.4 
L 72 43.2 
" style="fill: none; stroke: #000000; stroke-width: 0.8; stroke-linejoin: miter; stroke-linecap: square"/>
   </g>
   <g id="patch_4">
    <path d="M 518.4 320.4 
L 518.4 43.2 
" style="fill: none; stroke: #000000; stroke-width: 0.8; stroke-linejoin: miter; stroke-linecap: square"/>
   </g>
   <g id="patch_5">
    <path d="M 72 320.4 
L 518.4 320.4 
" style="fill: none; stroke: #000000; stroke-width: 0.8; stroke-linejoin: miter; stroke-linecap: square"/>
   </g>
   <g id="patch_6">
    <path d="M 72 43.2 
L 518.4 43.2 
" style="fill: none; stroke: #000000; stroke-width: 0.8; stroke-linejoin: miter; stroke-linecap: square"/>
   </g>
   <g id="text_13">
    <!-- Classic Transformer - model_20231123170803 -->
    <g transform="translate(155.436563 37.2) scale(0.12 -0.12)">
     <defs>
      <path id="DejaVuSans-43" d="M 4122 4306 
L 4122 3641 
Q 3803 3938 3442 4084 
Q 3081 4231 2675 4231 
Q 1875 4231 1450 3742 
Q 1025 3253 1025 2328 
Q 1025 1406 1450 917 
Q 1875 428 2675 428 
Q 3081 428 3442 575 
Q 3803 722 4122 1019 
L 4122 359 
Q 3791 134 3420 21 
Q 3050 -91 2638 -91 
Q 1578 -91 968 557 
Q 359 1206 359 2328 
Q 359 3453 968 4101 
Q 1578 4750 2638 4750 
Q 3056 4750 3426 4639 
Q 3797 4528 4122 4306 
z
" transform="scale(0.015625)"/>
      <path id="DejaVuSans-6c" d="M 603 4863 
L 1178 4863 
L 1178 0 
L 603 0 
L 603 4863 
z
" transform="scale(0.015625)"/>
      <path id="DejaVuSans-61" d="M 2194 1759 
Q 1497 1759 1228 1600 
Q 959 1441 959 1056 
Q 959 750 1161 570 
Q 1363 391 1709 391 
Q 2188 391 2477 730 
Q 2766 1069 2766 1631 
L 2766 1759 
L 2194 1759 
z
M 3341 1997 
L 3341 0 
L 2766 0 
L 2766 531 
Q 2569 213 2275 61 
Q 1981 -91 1556 -91 
Q 1019 -91 701 211 
Q 384 513 384 1019 
Q 384 1609 779 1909 
Q 1175 2209 1959 2209 
L 2766 2209 
L 2766 2266 
Q 2766 2663 2505 2880 
Q 2244 3097 1772 3097 
Q 1472 3097 1187 3025 
Q 903 2953 641 2809 
L 641 3341 
Q 956 3463 1253 3523 
Q 1550 3584 1831 3584 
Q 2591 3584 2966 3190 
Q 3341 2797 3341 1997 
z
" transform="scale(0.015625)"/>
      <path id="DejaVuSans-73" d="M 2834 3397 
L 2834 2853 
Q 2591 2978 2328 3040 
Q 2066 3103 1784 3103 
Q 1356 3103 1142 2972 
Q 928 2841 928 2578 
Q 928 2378 1081 2264 
Q 1234 2150 1697 2047 
L 1894 2003 
Q 2506 1872 2764 1633 
Q 3022 1394 3022 966 
Q 3022 478 2636 193 
Q 2250 -91 1575 -91 
Q 1294 -91 989 -36 
Q 684 19 347 128 
L 347 722 
Q 666 556 975 473 
Q 1284 391 1588 391 
Q 1994 391 2212 530 
Q 2431 669 2431 922 
Q 2431 1156 2273 1281 
Q 2116 1406 1581 1522 
L 1381 1569 
Q 847 1681 609 1914 
Q 372 2147 372 2553 
Q 372 3047 722 3315 
Q 1072 3584 1716 3584 
Q 2034 3584 2315 3537 
Q 2597 3491 2834 3397 
z
" transform="scale(0.015625)"/>
      <path id="DejaVuSans-69" d="M 603 3500 
L 1178 3500 
L 1178 0 
L 603 0 
L 603 3500 
z
M 603 4863 
L 1178 4863 
L 1178 4134 
L 603 4134 
L 603 4863 
z
" transform="scale(0.015625)"/>
      <path id="DejaVuSans-63" d="M 3122 3366 
L 3122 2828 
Q 2878 2963 2633 3030 
Q 2388 3097 2138 3097 
Q 1578 3097 1268 2742 
Q 959 2388 959 1747 
Q 959 1106 1268 751 
Q 1578 397 2138 397 
Q 2388 397 2633 464 
Q 2878 531 3122 666 
L 3122 134 
Q 2881 22 2623 -34 
Q 2366 -91 2075 -91 
Q 1284 -91 818 406 
Q 353 903 353 1747 
Q 353 2603 823 3093 
Q 1294 3584 2113 3584 
Q 2378 3584 2631 3529 
Q 2884 3475 3122 3366 
z
" transform="scale(0.015625)"/>
      <path id="DejaVuSans-20" transform="scale(0.015625)"/>
      <path id="DejaVuSans-54" d="M -19 4666 
L 3928 4666 
L 3928 4134 
L 2272 4134 
L 2272 0 
L 1638 0 
L 1638 4134 
L -19 4134 
L -19 4666 
z
" transform="scale(0.015625)"/>
      <path id="DejaVuSans-72" d="M 2631 2963 
Q 2534 3019 2420 3045 
Q 2306 3072 2169 3072 
Q 1681 3072 1420 2755 
Q 1159 2438 1159 1844 
L 1159 0 
L 581 0 
L 581 3500 
L 1159 3500 
L 1159 2956 
Q 1341 3275 1631 3429 
Q 1922 3584 2338 3584 
Q 2397 3584 2469 3576 
Q 2541 3569 2628 3553 
L 2631 2963 
z
" transform="scale(0.015625)"/>
      <path id="DejaVuSans-6e" d="M 3513 2113 
L 3513 0 
L 2938 0 
L 2938 2094 
Q 2938 2591 2744 2837 
Q 2550 3084 2163 3084 
Q 1697 3084 1428 2787 
Q 1159 2491 1159 1978 
L 1159 0 
L 581 0 
L 581 3500 
L 1159 3500 
L 1159 2956 
Q 1366 3272 1645 3428 
Q 1925 3584 2291 3584 
Q 2894 3584 3203 3211 
Q 3513 2838 3513 2113 
z
" transform="scale(0.015625)"/>
      <path id="DejaVuSans-66" d="M 2375 4863 
L 2375 4384 
L 1825 4384 
Q 1516 4384 1395 4259 
Q 1275 4134 1275 3809 
L 1275 3500 
L 2222 3500 
L 2222 3053 
L 1275 3053 
L 1275 0 
L 697 0 
L 697 3053 
L 147 3053 
L 147 3500 
L 697 3500 
L 697 3744 
Q 697 4328 969 4595 
Q 1241 4863 1831 4863 
L 2375 4863 
z
" transform="scale(0.015625)"/>
      <path id="DejaVuSans-6f" d="M 1959 3097 
Q 1497 3097 1228 2736 
Q 959 2375 959 1747 
Q 959 1119 1226 758 
Q 1494 397 1959 397 
Q 2419 397 2687 759 
Q 2956 1122 2956 1747 
Q 2956 2369 2687 2733 
Q 2419 3097 1959 3097 
z
M 1959 3584 
Q 2709 3584 3137 3096 
Q 3566 2609 3566 1747 
Q 3566 888 3137 398 
Q 2709 -91 1959 -91 
Q 1206 -91 779 398 
Q 353 888 353 1747 
Q 353 2609 779 3096 
Q 1206 3584 1959 3584 
z
" transform="scale(0.015625)"/>
      <path id="DejaVuSans-6d" d="M 3328 2828 
Q 3544 3216 3844 3400 
Q 4144 3584 4550 3584 
Q 5097 3584 5394 3201 
Q 5691 2819 5691 2113 
L 5691 0 
L 5113 0 
L 5113 2094 
Q 5113 2597 4934 2840 
Q 4756 3084 4391 3084 
Q 3944 3084 3684 2787 
Q 3425 2491 3425 1978 
L 3425 0 
L 2847 0 
L 2847 2094 
Q 2847 2600 2669 2842 
Q 2491 3084 2119 3084 
Q 1678 3084 1418 2786 
Q 1159 2488 1159 1978 
L 1159 0 
L 581 0 
L 581 3500 
L 1159 3500 
L 1159 2956 
Q 1356 3278 1631 3431 
Q 1906 3584 2284 3584 
Q 2666 3584 2933 3390 
Q 3200 3197 3328 2828 
z
" transform="scale(0.015625)"/>
      <path id="DejaVuSans-65" d="M 3597 1894 
L 3597 1613 
L 953 1613 
Q 991 1019 1311 708 
Q 1631 397 2203 397 
Q 2534 397 2845 478 
Q 3156 559 3463 722 
L 3463 178 
Q 3153 47 2828 -22 
Q 2503 -91 2169 -91 
Q 1331 -91 842 396 
Q 353 884 353 1716 
Q 353 2575 817 3079 
Q 1281 3584 2069 3584 
Q 2775 3584 3186 3129 
Q 3597 2675 3597 1894 
z
M 3022 2063 
Q 3016 2534 2758 2815 
Q 2500 3097 2075 3097 
Q 1594 3097 1305 2825 
Q 1016 2553 972 2059 
L 3022 2063 
z
" transform="scale(0.015625)"/>
      <path id="DejaVuSans-64" d="M 2906 2969 
L 2906 4863 
L 3481 4863 
L 3481 0 
L 2906 0 
L 2906 525 
Q 2725 213 2448 61 
Q 2172 -91 1784 -91 
Q 1150 -91 751 415 
Q 353 922 353 1747 
Q 353 2572 751 3078 
Q 1150 3584 1784 3584 
Q 2172 3584 2448 3432 
Q 2725 3281 2906 2969 
z
M 947 1747 
Q 947 1113 1208 752 
Q 1469 391 1925 391 
Q 2381 391 2643 752 
Q 2906 1113 2906 1747 
Q 2906 2381 2643 2742 
Q 2381 3103 1925 3103 
Q 1469 3103 1208 2742 
Q 947 2381 947 1747 
z
" transform="scale(0.015625)"/>
      <path id="DejaVuSans-5f" d="M 3263 -1063 
L 3263 -1509 
L -63 -1509 
L -63 -1063 
L 3263 -1063 
z
" transform="scale(0.015625)"/>
     </defs>
     <use xlink:href="#DejaVuSans-43"/>
     <use xlink:href="#DejaVuSans-6c" x="69.824219"/>
     <use xlink:href="#DejaVuSans-61" x="97.607422"/>
     <use xlink:href="#DejaVuSans-73" x="158.886719"/>
     <use xlink:href="#DejaVuSans-73" x="210.986328"/>
     <use xlink:href="#DejaVuSans-69" x="263.085938"/>
     <use xlink:href="#DejaVuSans-63" x="290.869141"/>
     <use xlink:href="#DejaVuSans-20" x="345.849609"/>
     <use xlink:href="#DejaVuSans-54" x="377.636719"/>
     <use xlink:href="#DejaVuSans-72" x="423.970703"/>
     <use xlink:href="#DejaVuSans-61" x="465.083984"/>
     <use xlink:href="#DejaVuSans-6e" x="526.363281"/>
     <use xlink:href="#DejaVuSans-73" x="589.742188"/>
     <use xlink:href="#DejaVuSans-66" x="641.841797"/>
     <use xlink:href="#DejaVuSans-6f" x="677.046875"/>
     <use xlink:href="#DejaVuSans-72" x="738.228516"/>
     <use xlink:href="#DejaVuSans-6d" x="777.591797"/>
     <use xlink:href="#DejaVuSans-65" x="875.003906"/>
     <use xlink:href="#DejaVuSans-72" x="936.527344"/>
     <use xlink:href="#DejaVuSans-20" x="977.640625"/>
     <use xlink:href="#DejaVuSans-2d" x="1009.427734"/>
     <use xlink:href="#DejaVuSans-20" x="1045.511719"/>
     <use xlink:href="#DejaVuSans-6d" x="1077.298828"/>
     <use xlink:href="#DejaVuSans-6f" x="1174.710938"/>
     <use xlink:href="#DejaVuSans-64" x="1235.892578"/>
     <use xlink:href="#DejaVuSans-65" x="1299.369141"/>
     <use xlink:href="#DejaVuSans-6c" x="1360.892578"/>
     <use xlink:href="#DejaVuSans-5f" x="1388.675781"/>
     <use xlink:href="#DejaVuSans-32" x="1438.675781"/>
     <use xlink:href="#DejaVuSans-30" x="1502.298828"/>
     <use xlink:href="#DejaVuSans-32" x="1565.921875"/>
     <use xlink:href="#DejaVuSans-33" x="1629.544922"/>
     <use xlink:href="#DejaVuSans-31" x="1693.167969"/>
     <use xlink:href="#DejaVuSans-31" x="1756.791016"/>
     <use xlink:href="#DejaVuSans-32" x="1820.414062"/>
     <use xlink:href="#DejaVuSans-33" x="1884.037109"/>
     <use xlink:href="#DejaVuSans-31" x="1947.660156"/>
     <use xlink:href="#DejaVuSans-37" x="2011.283203"/>
     <use xlink:href="#DejaVuSans-30" x="2074.90625"/>
     <use xlink:href="#DejaVuSans-38" x="2138.529297"/>
     <use xlink:href="#DejaVuSans-30" x="2202.152344"/>
     <use xlink:href="#DejaVuSans-33" x="2265.775391"/>
    </g>
   </g>
   <g id="legend_1">
    <g id="patch_7">
     <path d="M 79 95.234375 
L 161.517188 95.234375 
Q 163.517188 95.234375 163.517188 93.234375 
L 163.517188 50.2 
Q 163.517188 48.2 161.517188 48.2 
L 79 48.2 
Q 77 48.2 77 50.2 
L 77 93.234375 
Q 77 95.234375 79 95.234375 
z
" style="fill: #ffffff; opacity: 0.8; stroke: #cccccc; stroke-linejoin: miter"/>
    </g>
    <g id="line2d_16">
     <path d="M 81 56.298437 
L 91 56.298437 
L 101 56.298437 
" style="fill: none; stroke: #1f77b4; stroke-width: 1.5; stroke-linecap: square"/>
    </g>
    <g id="text_14">
     <!-- Measured -->
     <g transform="translate(109 59.798437) scale(0.1 -0.1)">
      <defs>
       <path id="DejaVuSans-4d" d="M 628 4666 
L 1569 4666 
L 2759 1491 
L 3956 4666 
L 4897 4666 
L 4897 0 
L 4281 0 
L 4281 4097 
L 3078 897 
L 2444 897 
L 1241 4097 
L 1241 0 
L 628 0 
L 628 4666 
z
" transform="scale(0.015625)"/>
       <path id="DejaVuSans-75" d="M 544 1381 
L 544 3500 
L 1119 3500 
L 1119 1403 
Q 1119 906 1312 657 
Q 1506 409 1894 409 
Q 2359 409 2629 706 
Q 2900 1003 2900 1516 
L 2900 3500 
L 3475 3500 
L 3475 0 
L 2900 0 
L 2900 538 
Q 2691 219 2414 64 
Q 2138 -91 1772 -91 
Q 1169 -91 856 284 
Q 544 659 544 1381 
z
M 1991 3584 
L 1991 3584 
z
" transform="scale(0.015625)"/>
      </defs>
      <use xlink:href="#DejaVuSans-4d"/>
      <use xlink:href="#DejaVuSans-65" x="86.279297"/>
      <use xlink:href="#DejaVuSans-61" x="147.802734"/>
      <use xlink:href="#DejaVuSans-73" x="209.082031"/>
      <use xlink:href="#DejaVuSans-75" x="261.181641"/>
      <use xlink:href="#DejaVuSans-72" x="324.560547"/>
      <use xlink:href="#DejaVuSans-65" x="363.423828"/>
      <use xlink:href="#DejaVuSans-64" x="424.947266"/>
     </g>
    </g>
    <g id="line2d_17">
     <path d="M 81 70.976562 
L 91 70.976562 
L 101 70.976562 
" style="fill: none; stroke: #ff7f0e; stroke-width: 1.5; stroke-linecap: square"/>
    </g>
    <g id="text_15">
     <!-- Fitted -->
     <g transform="translate(109 74.476562) scale(0.1 -0.1)">
      <defs>
       <path id="DejaVuSans-46" d="M 628 4666 
L 3309 4666 
L 3309 4134 
L 1259 4134 
L 1259 2759 
L 3109 2759 
L 3109 2228 
L 1259 2228 
L 1259 0 
L 628 0 
L 628 4666 
z
" transform="scale(0.015625)"/>
       <path id="DejaVuSans-74" d="M 1172 4494 
L 1172 3500 
L 2356 3500 
L 2356 3053 
L 1172 3053 
L 1172 1153 
Q 1172 725 1289 603 
Q 1406 481 1766 481 
L 2356 481 
L 2356 0 
L 1766 0 
Q 1100 0 847 248 
Q 594 497 594 1153 
L 594 3053 
L 172 3053 
L 172 3500 
L 594 3500 
L 594 4494 
L 1172 4494 
z
" transform="scale(0.015625)"/>
      </defs>
      <use xlink:href="#DejaVuSans-46"/>
      <use xlink:href="#DejaVuSans-69" x="50.269531"/>
      <use xlink:href="#DejaVuSans-74" x="78.052734"/>
      <use xlink:href="#DejaVuSans-74" x="117.261719"/>
      <use xlink:href="#DejaVuSans-65" x="156.470703"/>
      <use xlink:href="#DejaVuSans-64" x="217.994141"/>
     </g>
    </g>
    <g id="line2d_18">
     <path d="M 81 85.654687 
L 91 85.654687 
L 101 85.654687 
" style="fill: none; stroke: #2ca02c; stroke-width: 1.5; stroke-linecap: square"/>
    </g>
    <g id="text_16">
     <!-- Estimated -->
     <g transform="translate(109 89.154687) scale(0.1 -0.1)">
      <defs>
       <path id="DejaVuSans-45" d="M 628 4666 
L 3578 4666 
L 3578 4134 
L 1259 4134 
L 1259 2753 
L 3481 2753 
L 3481 2222 
L 1259 2222 
L 1259 531 
L 3634 531 
L 3634 0 
L 628 0 
L 628 4666 
z
" transform="scale(0.015625)"/>
      </defs>
      <use xlink:href="#DejaVuSans-45"/>
      <use xlink:href="#DejaVuSans-73" x="63.183594"/>
      <use xlink:href="#DejaVuSans-74" x="115.283203"/>
      <use xlink:href="#DejaVuSans-69" x="154.492188"/>
      <use xlink:href="#DejaVuSans-6d" x="182.275391"/>
      <use xlink:href="#DejaVuSans-61" x="279.6875"/>
      <use xlink:href="#DejaVuSans-74" x="340.966797"/>
      <use xlink:href="#DejaVuSans-65" x="380.175781"/>
      <use xlink:href="#DejaVuSans-64" x="441.699219"/>
     </g>
    </g>
   </g>
  </g>
 </g>
 <defs>
  <clipPath id="p6c8ccad6fd">
   <rect x="72" y="43.2" width="446.4" height="277.2"/>
  </clipPath>
 </defs>
</svg>
