<?xml version="1.0" encoding="utf-8" standalone="no"?>
<!DOCTYPE svg PUBLIC "-//W3C//DTD SVG 1.1//EN"
  "http://www.w3.org/Graphics/SVG/1.1/DTD/svg11.dtd">
<svg xmlns:xlink="http://www.w3.org/1999/xlink" width="576pt" height="360pt" viewBox="0 0 576 360" xmlns="http://www.w3.org/2000/svg" version="1.1">
 <metadata>
  <rdf:RDF xmlns:dc="http://purl.org/dc/elements/1.1/" xmlns:cc="http://creativecommons.org/ns#" xmlns:rdf="http://www.w3.org/1999/02/22-rdf-syntax-ns#">
   <cc:Work>
    <dc:type rdf:resource="http://purl.org/dc/dcmitype/StillImage"/>
    <dc:date>2023-11-26T17:36:55.923242</dc:date>
    <dc:format>image/svg+xml</dc:format>
    <dc:creator>
     <cc:Agent>
      <dc:title>Matplotlib v3.8.1, https://matplotlib.org/</dc:title>
     </cc:Agent>
    </dc:creator>
   </cc:Work>
  </rdf:RDF>
 </metadata>
 <defs>
  <style type="text/css">*{stroke-linejoin: round; stroke-linecap: butt}</style>
 </defs>
 <g id="figure_1">
  <g id="patch_1">
   <path d="M 0 360 
L 576 360 
L 576 0 
L 0 0 
z
" style="fill: #ffffff"/>
  </g>
  <g id="axes_1">
   <g id="patch_2">
    <path d="M 72 320.4 
L 518.4 320.4 
L 518.4 43.2 
L 72 43.2 
z
" style="fill: #ffffff"/>
   </g>
   <g id="matplotlib.axis_1">
    <g id="xtick_1">
     <g id="line2d_1">
      <defs>
       <path id="m1ad4902981" d="M 0 0 
L 0 3.5 
" style="stroke: #000000; stroke-width: 0.8"/>
      </defs>
      <g>
       <use xlink:href="#m1ad4902981" x="129.874161" y="320.4" style="stroke: #000000; stroke-width: 0.8"/>
      </g>
     </g>
     <g id="text_1">
      <!-- 2020-05-15 -->
      <g transform="translate(100.816349 334.998438) scale(0.1 -0.1)">
       <defs>
        <path id="DejaVuSans-32" d="M 1228 531 
L 3431 531 
L 3431 0 
L 469 0 
L 469 531 
Q 828 903 1448 1529 
Q 2069 2156 2228 2338 
Q 2531 2678 2651 2914 
Q 2772 3150 2772 3378 
Q 2772 3750 2511 3984 
Q 2250 4219 1831 4219 
Q 1534 4219 1204 4116 
Q 875 4013 500 3803 
L 500 4441 
Q 881 4594 1212 4672 
Q 1544 4750 1819 4750 
Q 2544 4750 2975 4387 
Q 3406 4025 3406 3419 
Q 3406 3131 3298 2873 
Q 3191 2616 2906 2266 
Q 2828 2175 2409 1742 
Q 1991 1309 1228 531 
z
" transform="scale(0.015625)"/>
        <path id="DejaVuSans-30" d="M 2034 4250 
Q 1547 4250 1301 3770 
Q 1056 3291 1056 2328 
Q 1056 1369 1301 889 
Q 1547 409 2034 409 
Q 2525 409 2770 889 
Q 3016 1369 3016 2328 
Q 3016 3291 2770 3770 
Q 2525 4250 2034 4250 
z
M 2034 4750 
Q 2819 4750 3233 4129 
Q 3647 3509 3647 2328 
Q 3647 1150 3233 529 
Q 2819 -91 2034 -91 
Q 1250 -91 836 529 
Q 422 1150 422 2328 
Q 422 3509 836 4129 
Q 1250 4750 2034 4750 
z
" transform="scale(0.015625)"/>
        <path id="DejaVuSans-2d" d="M 313 2009 
L 1997 2009 
L 1997 1497 
L 313 1497 
L 313 2009 
z
" transform="scale(0.015625)"/>
        <path id="DejaVuSans-35" d="M 691 4666 
L 3169 4666 
L 3169 4134 
L 1269 4134 
L 1269 2991 
Q 1406 3038 1543 3061 
Q 1681 3084 1819 3084 
Q 2600 3084 3056 2656 
Q 3513 2228 3513 1497 
Q 3513 744 3044 326 
Q 2575 -91 1722 -91 
Q 1428 -91 1123 -41 
Q 819 9 494 109 
L 494 744 
Q 775 591 1075 516 
Q 1375 441 1709 441 
Q 2250 441 2565 725 
Q 2881 1009 2881 1497 
Q 2881 1984 2565 2268 
Q 2250 2553 1709 2553 
Q 1456 2553 1204 2497 
Q 953 2441 691 2322 
L 691 4666 
z
" transform="scale(0.015625)"/>
        <path id="DejaVuSans-31" d="M 794 531 
L 1825 531 
L 1825 4091 
L 703 3866 
L 703 4441 
L 1819 4666 
L 2450 4666 
L 2450 531 
L 3481 531 
L 3481 0 
L 794 0 
L 794 531 
z
" transform="scale(0.015625)"/>
       </defs>
       <use xlink:href="#DejaVuSans-32"/>
       <use xlink:href="#DejaVuSans-30" x="63.623047"/>
       <use xlink:href="#DejaVuSans-32" x="127.246094"/>
       <use xlink:href="#DejaVuSans-30" x="190.869141"/>
       <use xlink:href="#DejaVuSans-2d" x="254.492188"/>
       <use xlink:href="#DejaVuSans-30" x="290.576172"/>
       <use xlink:href="#DejaVuSans-35" x="354.199219"/>
       <use xlink:href="#DejaVuSans-2d" x="417.822266"/>
       <use xlink:href="#DejaVuSans-31" x="453.90625"/>
       <use xlink:href="#DejaVuSans-35" x="517.529297"/>
      </g>
     </g>
    </g>
    <g id="xtick_2">
     <g id="line2d_2">
      <g>
       <use xlink:href="#m1ad4902981" x="212.435902" y="320.4" style="stroke: #000000; stroke-width: 0.8"/>
      </g>
     </g>
     <g id="text_2">
      <!-- 2020-06-01 -->
      <g transform="translate(183.37809 334.998438) scale(0.1 -0.1)">
       <defs>
        <path id="DejaVuSans-36" d="M 2113 2584 
Q 1688 2584 1439 2293 
Q 1191 2003 1191 1497 
Q 1191 994 1439 701 
Q 1688 409 2113 409 
Q 2538 409 2786 701 
Q 3034 994 3034 1497 
Q 3034 2003 2786 2293 
Q 2538 2584 2113 2584 
z
M 3366 4563 
L 3366 3988 
Q 3128 4100 2886 4159 
Q 2644 4219 2406 4219 
Q 1781 4219 1451 3797 
Q 1122 3375 1075 2522 
Q 1259 2794 1537 2939 
Q 1816 3084 2150 3084 
Q 2853 3084 3261 2657 
Q 3669 2231 3669 1497 
Q 3669 778 3244 343 
Q 2819 -91 2113 -91 
Q 1303 -91 875 529 
Q 447 1150 447 2328 
Q 447 3434 972 4092 
Q 1497 4750 2381 4750 
Q 2619 4750 2861 4703 
Q 3103 4656 3366 4563 
z
" transform="scale(0.015625)"/>
       </defs>
       <use xlink:href="#DejaVuSans-32"/>
       <use xlink:href="#DejaVuSans-30" x="63.623047"/>
       <use xlink:href="#DejaVuSans-32" x="127.246094"/>
       <use xlink:href="#DejaVuSans-30" x="190.869141"/>
       <use xlink:href="#DejaVuSans-2d" x="254.492188"/>
       <use xlink:href="#DejaVuSans-30" x="290.576172"/>
       <use xlink:href="#DejaVuSans-36" x="354.199219"/>
       <use xlink:href="#DejaVuSans-2d" x="417.822266"/>
       <use xlink:href="#DejaVuSans-30" x="453.90625"/>
       <use xlink:href="#DejaVuSans-31" x="517.529297"/>
      </g>
     </g>
    </g>
    <g id="xtick_3">
     <g id="line2d_3">
      <g>
       <use xlink:href="#m1ad4902981" x="280.427924" y="320.4" style="stroke: #000000; stroke-width: 0.8"/>
      </g>
     </g>
     <g id="text_3">
      <!-- 2020-06-15 -->
      <g transform="translate(251.370111 334.998438) scale(0.1 -0.1)">
       <use xlink:href="#DejaVuSans-32"/>
       <use xlink:href="#DejaVuSans-30" x="63.623047"/>
       <use xlink:href="#DejaVuSans-32" x="127.246094"/>
       <use xlink:href="#DejaVuSans-30" x="190.869141"/>
       <use xlink:href="#DejaVuSans-2d" x="254.492188"/>
       <use xlink:href="#DejaVuSans-30" x="290.576172"/>
       <use xlink:href="#DejaVuSans-36" x="354.199219"/>
       <use xlink:href="#DejaVuSans-2d" x="417.822266"/>
       <use xlink:href="#DejaVuSans-31" x="453.90625"/>
       <use xlink:href="#DejaVuSans-35" x="517.529297"/>
      </g>
     </g>
    </g>
    <g id="xtick_4">
     <g id="line2d_4">
      <g>
       <use xlink:href="#m1ad4902981" x="358.133092" y="320.4" style="stroke: #000000; stroke-width: 0.8"/>
      </g>
     </g>
     <g id="text_4">
      <!-- 2020-07-01 -->
      <g transform="translate(329.075279 334.998438) scale(0.1 -0.1)">
       <defs>
        <path id="DejaVuSans-37" d="M 525 4666 
L 3525 4666 
L 3525 4397 
L 1831 0 
L 1172 0 
L 2766 4134 
L 525 4134 
L 525 4666 
z
" transform="scale(0.015625)"/>
       </defs>
       <use xlink:href="#DejaVuSans-32"/>
       <use xlink:href="#DejaVuSans-30" x="63.623047"/>
       <use xlink:href="#DejaVuSans-32" x="127.246094"/>
       <use xlink:href="#DejaVuSans-30" x="190.869141"/>
       <use xlink:href="#DejaVuSans-2d" x="254.492188"/>
       <use xlink:href="#DejaVuSans-30" x="290.576172"/>
       <use xlink:href="#DejaVuSans-37" x="354.199219"/>
       <use xlink:href="#DejaVuSans-2d" x="417.822266"/>
       <use xlink:href="#DejaVuSans-30" x="453.90625"/>
       <use xlink:href="#DejaVuSans-31" x="517.529297"/>
      </g>
     </g>
    </g>
    <g id="xtick_5">
     <g id="line2d_5">
      <g>
       <use xlink:href="#m1ad4902981" x="426.125113" y="320.4" style="stroke: #000000; stroke-width: 0.8"/>
      </g>
     </g>
     <g id="text_5">
      <!-- 2020-07-15 -->
      <g transform="translate(397.067301 334.998438) scale(0.1 -0.1)">
       <use xlink:href="#DejaVuSans-32"/>
       <use xlink:href="#DejaVuSans-30" x="63.623047"/>
       <use xlink:href="#DejaVuSans-32" x="127.246094"/>
       <use xlink:href="#DejaVuSans-30" x="190.869141"/>
       <use xlink:href="#DejaVuSans-2d" x="254.492188"/>
       <use xlink:href="#DejaVuSans-30" x="290.576172"/>
       <use xlink:href="#DejaVuSans-37" x="354.199219"/>
       <use xlink:href="#DejaVuSans-2d" x="417.822266"/>
       <use xlink:href="#DejaVuSans-31" x="453.90625"/>
       <use xlink:href="#DejaVuSans-35" x="517.529297"/>
      </g>
     </g>
    </g>
    <g id="xtick_6">
     <g id="line2d_6">
      <g>
       <use xlink:href="#m1ad4902981" x="508.686854" y="320.4" style="stroke: #000000; stroke-width: 0.8"/>
      </g>
     </g>
     <g id="text_6">
      <!-- 2020-08-01 -->
      <g transform="translate(479.629042 334.998438) scale(0.1 -0.1)">
       <defs>
        <path id="DejaVuSans-38" d="M 2034 2216 
Q 1584 2216 1326 1975 
Q 1069 1734 1069 1313 
Q 1069 891 1326 650 
Q 1584 409 2034 409 
Q 2484 409 2743 651 
Q 3003 894 3003 1313 
Q 3003 1734 2745 1975 
Q 2488 2216 2034 2216 
z
M 1403 2484 
Q 997 2584 770 2862 
Q 544 3141 544 3541 
Q 544 4100 942 4425 
Q 1341 4750 2034 4750 
Q 2731 4750 3128 4425 
Q 3525 4100 3525 3541 
Q 3525 3141 3298 2862 
Q 3072 2584 2669 2484 
Q 3125 2378 3379 2068 
Q 3634 1759 3634 1313 
Q 3634 634 3220 271 
Q 2806 -91 2034 -91 
Q 1263 -91 848 271 
Q 434 634 434 1313 
Q 434 1759 690 2068 
Q 947 2378 1403 2484 
z
M 1172 3481 
Q 1172 3119 1398 2916 
Q 1625 2713 2034 2713 
Q 2441 2713 2670 2916 
Q 2900 3119 2900 3481 
Q 2900 3844 2670 4047 
Q 2441 4250 2034 4250 
Q 1625 4250 1398 4047 
Q 1172 3844 1172 3481 
z
" transform="scale(0.015625)"/>
       </defs>
       <use xlink:href="#DejaVuSans-32"/>
       <use xlink:href="#DejaVuSans-30" x="63.623047"/>
       <use xlink:href="#DejaVuSans-32" x="127.246094"/>
       <use xlink:href="#DejaVuSans-30" x="190.869141"/>
       <use xlink:href="#DejaVuSans-2d" x="254.492188"/>
       <use xlink:href="#DejaVuSans-30" x="290.576172"/>
       <use xlink:href="#DejaVuSans-38" x="354.199219"/>
       <use xlink:href="#DejaVuSans-2d" x="417.822266"/>
       <use xlink:href="#DejaVuSans-30" x="453.90625"/>
       <use xlink:href="#DejaVuSans-31" x="517.529297"/>
      </g>
     </g>
    </g>
   </g>
   <g id="matplotlib.axis_2">
    <g id="ytick_1">
     <g id="line2d_7">
      <defs>
       <path id="m3eacc11739" d="M 0 0 
L -3.5 0 
" style="stroke: #000000; stroke-width: 0.8"/>
      </defs>
      <g>
       <use xlink:href="#m3eacc11739" x="72" y="315.470004" style="stroke: #000000; stroke-width: 0.8"/>
      </g>
     </g>
     <g id="text_7">
      <!-- −2 -->
      <g transform="translate(50.257812 319.269223) scale(0.1 -0.1)">
       <defs>
        <path id="DejaVuSans-2212" d="M 678 2272 
L 4684 2272 
L 4684 1741 
L 678 1741 
L 678 2272 
z
" transform="scale(0.015625)"/>
       </defs>
       <use xlink:href="#DejaVuSans-2212"/>
       <use xlink:href="#DejaVuSans-32" x="83.789062"/>
      </g>
     </g>
    </g>
    <g id="ytick_2">
     <g id="line2d_8">
      <g>
       <use xlink:href="#m3eacc11739" x="72" y="265.333352" style="stroke: #000000; stroke-width: 0.8"/>
      </g>
     </g>
     <g id="text_8">
      <!-- −1 -->
      <g transform="translate(50.257812 269.132571) scale(0.1 -0.1)">
       <use xlink:href="#DejaVuSans-2212"/>
       <use xlink:href="#DejaVuSans-31" x="83.789062"/>
      </g>
     </g>
    </g>
    <g id="ytick_3">
     <g id="line2d_9">
      <g>
       <use xlink:href="#m3eacc11739" x="72" y="215.1967" style="stroke: #000000; stroke-width: 0.8"/>
      </g>
     </g>
     <g id="text_9">
      <!-- 0 -->
      <g transform="translate(58.6375 218.995919) scale(0.1 -0.1)">
       <use xlink:href="#DejaVuSans-30"/>
      </g>
     </g>
    </g>
    <g id="ytick_4">
     <g id="line2d_10">
      <g>
       <use xlink:href="#m3eacc11739" x="72" y="165.060048" style="stroke: #000000; stroke-width: 0.8"/>
      </g>
     </g>
     <g id="text_10">
      <!-- 1 -->
      <g transform="translate(58.6375 168.859267) scale(0.1 -0.1)">
       <use xlink:href="#DejaVuSans-31"/>
      </g>
     </g>
    </g>
    <g id="ytick_5">
     <g id="line2d_11">
      <g>
       <use xlink:href="#m3eacc11739" x="72" y="114.923396" style="stroke: #000000; stroke-width: 0.8"/>
      </g>
     </g>
     <g id="text_11">
      <!-- 2 -->
      <g transform="translate(58.6375 118.722615) scale(0.1 -0.1)">
       <use xlink:href="#DejaVuSans-32"/>
      </g>
     </g>
    </g>
    <g id="ytick_6">
     <g id="line2d_12">
      <g>
       <use xlink:href="#m3eacc11739" x="72" y="64.786744" style="stroke: #000000; stroke-width: 0.8"/>
      </g>
     </g>
     <g id="text_12">
      <!-- 3 -->
      <g transform="translate(58.6375 68.585963) scale(0.1 -0.1)">
       <defs>
        <path id="DejaVuSans-33" d="M 2597 2516 
Q 3050 2419 3304 2112 
Q 3559 1806 3559 1356 
Q 3559 666 3084 287 
Q 2609 -91 1734 -91 
Q 1441 -91 1130 -33 
Q 819 25 488 141 
L 488 750 
Q 750 597 1062 519 
Q 1375 441 1716 441 
Q 2309 441 2620 675 
Q 2931 909 2931 1356 
Q 2931 1769 2642 2001 
Q 2353 2234 1838 2234 
L 1294 2234 
L 1294 2753 
L 1863 2753 
Q 2328 2753 2575 2939 
Q 2822 3125 2822 3475 
Q 2822 3834 2567 4026 
Q 2313 4219 1838 4219 
Q 1578 4219 1281 4162 
Q 984 4106 628 3988 
L 628 4550 
Q 988 4650 1302 4700 
Q 1616 4750 1894 4750 
Q 2613 4750 3031 4423 
Q 3450 4097 3450 3541 
Q 3450 3153 3228 2886 
Q 3006 2619 2597 2516 
z
" transform="scale(0.015625)"/>
       </defs>
       <use xlink:href="#DejaVuSans-33"/>
      </g>
     </g>
    </g>
   </g>
   <g id="line2d_13">
    <path d="M 72 288.419108 
L 72.404714 299.044165 
L 72.607072 297.430731 
L 72.809429 287.435306 
L 73.214143 258.472186 
L 73.618858 246.823975 
L 75.035358 169.103646 
L 75.237715 166.329325 
L 75.440073 171.071249 
L 75.64243 178.764578 
L 75.844787 181.853715 
L 76.047144 196.138514 
L 76.654216 261.97452 
L 77.05893 284.523253 
L 77.261287 288.615868 
L 77.463645 288.2617 
L 77.666002 278.226923 
L 78.070716 251.526546 
L 78.475431 239.838983 
L 78.677788 231.279909 
L 79.487217 177.879156 
L 79.891931 162.630231 
L 80.094288 164.460102 
L 80.903717 204.205688 
L 81.713146 274.803293 
L 82.11786 288.537164 
L 82.320218 290.445739 
L 82.522575 290.170275 
L 82.724932 287.809151 
L 82.927289 281.41444 
L 83.332004 259.869184 
L 83.736718 246.45013 
L 83.939075 243.597105 
L 84.141432 243.852894 
L 84.546147 249.854084 
L 84.748504 251.821687 
L 84.950861 251.841363 
L 85.355576 255.77657 
L 85.557933 252.64808 
L 85.76029 258.393482 
L 86.569719 300.539544 
L 86.772076 306.245593 
L 86.974433 307.740972 
L 87.176791 307.8 
L 87.379148 306.540734 
L 87.581505 303.0384 
L 87.783862 296.702718 
L 88.188577 276.023207 
L 88.390934 271.163227 
L 89.200363 263.587955 
L 89.40272 259.711776 
L 89.807434 245.840173 
L 90.212149 243.538077 
L 90.414506 240.999869 
L 90.616863 248.457085 
L 91.223935 295.896 
L 91.628649 306.245593 
L 91.831006 306.304622 
L 92.033364 303.963174 
L 92.842792 260.675902 
L 93.04515 258.668946 
L 93.449864 250.601773 
L 93.652221 250.109872 
L 93.854578 247.355228 
L 94.056936 246.764947 
L 94.259293 244.305442 
L 94.46165 238.304253 
L 94.664007 235.628312 
L 94.866364 236.494057 
L 95.068722 239.445462 
L 95.271079 235.844748 
L 95.473436 245.328596 
L 96.080508 296.250169 
L 96.485222 304.887947 
L 96.687579 306.678466 
L 96.889937 302.605527 
L 97.699365 259.987241 
L 98.306437 250.129548 
L 98.508794 249.77538 
L 99.52058 229.863234 
L 99.722937 231.043796 
L 99.925295 235.136411 
L 100.127652 233.424596 
L 100.330009 242.947796 
L 100.937081 293.928397 
L 101.341795 305.438876 
L 101.544152 306.36365 
L 101.74651 302.880992 
L 101.948867 291.665653 
L 102.353581 263.489574 
L 102.555938 262.033548 
L 103.567724 245.348272 
L 104.377153 224.609734 
L 104.57951 225.809972 
L 104.781868 230.866712 
L 104.984225 230.847036 
L 105.186582 239.189674 
L 105.793654 290.976992 
L 106.198368 302.94002 
L 106.400725 304.592807 
L 106.603083 300.815008 
L 107.412511 257.724497 
L 107.614869 256.111062 
L 107.817226 252.667756 
L 108.22194 239.032266 
L 108.626655 218.667572 
L 108.829012 213.099255 
L 109.031369 211.328412 
L 109.638441 219.474289 
L 109.840798 224.570382 
L 110.043155 234.329694 
L 110.650227 285.97928 
L 111.054941 299.358982 
L 111.257298 301.149501 
L 111.459655 299.51639 
L 111.662013 288.812628 
L 112.066727 261.364563 
L 112.471442 247.296199 
L 113.887942 183.112981 
L 114.090299 180.889589 
L 114.292656 187.2843 
L 114.495014 198.007738 
L 114.697371 202.316789 
L 115.102085 234.231314 
L 115.709157 280.548695 
L 116.113871 293.633256 
L 116.316228 293.790665 
L 116.518586 292.236258 
L 116.720943 288.832304 
L 117.125657 263.273138 
L 118.542158 165.070059 
L 118.744515 155.586211 
L 118.946872 151.946145 
L 119.149229 155.389451 
L 119.756301 190.924366 
L 120.56573 265.378474 
L 120.970444 283.972324 
L 121.172801 287.809151 
L 121.375159 289.343881 
L 121.577516 287.986235 
L 121.779873 280.548695 
L 122.589302 232.696583 
L 123.196374 208.809879 
L 123.398731 204.520504 
L 123.601088 204.717265 
L 123.803445 204.186012 
L 124.410517 216.758997 
L 124.612874 227.049562 
L 125.219946 279.860034 
L 125.62466 293.495524 
L 125.827017 295.364747 
L 126.029374 292.983947 
L 127.04116 240.075095 
L 127.648232 204.973053 
L 128.255304 165.207791 
L 128.457661 158.124419 
L 128.660018 157.809603 
L 129.26709 199.404736 
L 130.278876 284.64131 
L 130.481233 291.98047 
L 130.68359 293.279088 
L 130.885947 290.858936 
L 132.504805 188.661622 
L 133.111877 148.620895 
L 133.314234 139.786357 
L 133.516591 141.380115 
L 133.921306 155.802647 
L 134.123663 162.767963 
L 135.135449 265.870374 
L 135.540163 277.715346 
L 135.74252 276.829925 
L 135.944878 266.893528 
L 136.349592 237.418831 
L 136.551949 231.063472 
L 136.754306 219.926838 
L 136.956664 224.216213 
L 137.159021 213.610831 
L 137.766092 205.327222 
L 137.96845 205.701066 
L 138.373164 200.62465 
L 138.777879 207.708022 
L 138.980236 208.495063 
L 139.182593 219.572669 
L 139.789665 272.717634 
L 140.194379 287.140166 
L 140.396736 289.088093 
L 140.599093 286.254744 
L 141.003808 257.901581 
L 141.408522 238.028788 
L 142.015594 225.455803 
L 142.622665 216.877053 
L 142.825023 216.621264 
L 143.02738 215.480055 
L 143.229737 216.129364 
L 143.634451 221.087724 
L 143.836809 219.926838 
L 144.039166 229.48939 
L 144.646238 275.806771 
L 145.050952 287.159842 
L 145.253309 288.379756 
L 145.455666 285.428351 
L 145.860381 257.586765 
L 146.062738 242.141079 
L 146.66981 226.675717 
L 146.872167 224.157185 
L 147.074524 223.134031 
L 147.479238 212.705734 
L 147.681596 220.654851 
L 147.883953 221.579625 
L 148.08631 224.039129 
L 148.491024 232.794963 
L 148.693382 231.516021 
L 149.098096 253.730262 
L 149.502811 280.194526 
L 149.907525 292.531399 
L 150.109882 294.479326 
L 150.312239 293.928397 
L 150.514597 291.252456 
L 150.716954 285.841548 
L 151.121668 266.047459 
L 151.526383 246.607538 
L 151.931097 241.098249 
L 152.133454 240.685052 
L 152.335811 242.554276 
L 152.538169 243.046176 
L 152.740526 241.098249 
L 152.942883 241.373714 
L 153.14524 240.44894 
L 153.347597 240.488292 
L 153.549955 237.713972 
L 153.752312 239.799631 
L 154.764098 288.635544 
L 154.966455 292.393666 
L 155.168812 293.711961 
L 155.573527 289.973514 
L 155.775884 279.466513 
L 156.78767 205.504306 
L 157.799456 165.050383 
L 158.001813 166.958958 
L 158.406528 179.492591 
L 158.608885 192.360716 
L 159.215956 257.50806 
L 159.620671 278.010486 
L 159.823028 281.060272 
L 160.025385 280.194526 
L 160.227743 270.887763 
L 160.632457 240.075095 
L 161.8466 192.321364 
L 162.251315 182.778488 
L 162.453672 182.91622 
L 162.656029 185.631513 
L 163.465458 215.834223 
L 164.072529 272.658606 
L 164.477244 290.327683 
L 164.679601 290.642499 
L 164.881958 287.573038 
L 165.084316 277.931782 
L 165.48903 247.768424 
L 166.500816 214.456901 
L 167.310245 173.707837 
L 167.512602 176.895354 
L 167.917316 196.433655 
L 168.119674 200.664002 
L 168.322031 211.446468 
L 168.929102 267.857654 
L 169.333817 282.280186 
L 169.536174 285.625111 
L 169.738531 282.142453 
L 170.143246 256.229118 
L 170.54796 227.443082 
L 171.357389 185.119936 
L 171.559746 179.394211 
L 172.166818 156.412604 
L 172.369175 157.947335 
L 172.571532 165.463579 
L 173.178604 202.474197 
L 173.785675 269.982665 
L 174.19039 288.399432 
L 174.392747 291.23278 
L 174.595104 289.50129 
L 174.999819 266.519683 
L 175.404533 242.770712 
L 177.023391 168.454336 
L 177.225748 168.946237 
L 177.428105 172.665007 
L 177.630462 188.42551 
L 177.83282 190.747281 
L 178.237534 232.657231 
L 178.642248 273.425971 
L 179.046963 291.665653 
L 179.24932 295.207339 
L 179.451677 292.806863 
L 179.654034 284.542929 
L 180.261106 246.666566 
L 181.879964 154.504029 
L 182.082321 151.395216 
L 182.284678 156.786449 
L 183.094107 210.34461 
L 183.498821 247.433932 
L 183.903536 267.837978 
L 184.30825 275.295194 
L 184.510607 276.593812 
L 184.712965 273.13083 
L 184.915322 260.400437 
L 185.724751 182.384968 
L 186.129465 162.03995 
L 186.331822 156.274872 
L 186.53418 155.546859 
L 186.736537 157.967011 
L 187.748323 196.453331 
L 188.557752 257.547412 
L 188.962466 271.045171 
L 189.164823 272.993098 
L 189.36718 273.071802 
L 189.569538 272.363465 
L 189.771895 262.092576 
L 190.986038 170.697404 
L 191.188395 165.640664 
L 191.390752 165.601312 
L 191.795467 174.317794 
L 192.604896 204.14666 
L 193.414325 264.493052 
L 193.819039 277.557938 
L 194.021396 278.581091 
L 194.426111 274.803293 
L 194.628468 266.263895 
L 195.437897 208.199922 
L 195.640254 203.418647 
L 195.842611 204.579532 
L 196.247325 210.364286 
L 196.449683 210.915215 
L 196.65204 210.54137 
L 197.056754 218.372431 
L 197.259112 219.179149 
L 197.461469 227.20697 
L 198.06854 273.327591 
L 198.473255 286.864701 
L 198.675612 286.963081 
L 198.877969 283.480424 
L 199.282684 254.104107 
L 199.687398 232.322739 
L 201.306256 168.946237 
L 201.508613 167.844379 
L 202.115684 186.162766 
L 202.318042 196.8075 
L 202.925113 257.960609 
L 203.329828 274.803293 
L 203.532185 276.810248 
L 203.734542 273.957224 
L 203.936899 262.958321 
L 204.341614 230.512544 
L 205.758114 178.331705 
L 205.960471 175.950905 
L 206.162829 176.088637 
L 206.365186 177.446283 
L 206.7699 188.760002 
L 206.972257 191.809787 
L 207.174615 202.15938 
L 207.781686 258.531214 
L 208.186401 273.957224 
L 208.388758 276.869277 
L 208.591115 273.681759 
L 208.793472 262.348364 
L 209.198187 230.079671 
L 209.805258 208.809879 
L 210.209973 189.822508 
L 210.817044 150.017894 
L 211.019402 141.911368 
L 211.221759 144.744717 
L 211.626473 168.119844 
L 211.82883 173.09788 
L 212.031188 187.166244 
L 212.638259 249.283479 
L 213.042974 267.03126 
L 213.245331 270.848411 
L 213.447688 269.2153 
L 213.650045 258.983763 
L 214.257117 217.664094 
L 214.661831 192.498448 
L 215.47126 135.811798 
L 215.875975 119.83486 
L 216.078332 119.382311 
L 216.280689 124.675164 
L 217.090118 185.592161 
L 217.697189 244.738315 
L 218.101904 262.36804 
L 218.304261 265.575234 
L 218.506618 266.873852 
L 218.708976 265.673614 
L 218.911333 253.513826 
L 219.518404 201.175579 
L 220.125476 167.549239 
L 220.327833 165.483255 
L 220.53019 167.608267 
L 221.541976 208.022838 
L 221.744334 212.941846 
L 222.553762 267.287049 
L 222.958477 277.675994 
L 223.160834 279.309105 
L 223.363191 279.643597 
L 223.565549 278.148219 
L 223.767906 269.825257 
L 224.374977 233.326216 
L 224.779692 226.085436 
L 225.386763 228.053039 
L 225.589121 231.417641 
L 225.791478 232.26371 
L 226.196192 240.271856 
L 226.398549 239.937363 
L 226.600907 246.076285 
L 227.410335 297.292999 
L 227.612693 301.149501 
L 227.81505 302.762936 
L 228.017407 299.713151 
L 228.826836 259.023115 
L 229.029193 256.799723 
L 229.23155 251.31011 
L 230.648051 190.727605 
L 230.850408 191.278534 
L 231.255122 205.051757 
L 231.45748 215.460379 
L 232.064551 276.298672 
L 232.469266 292.708483 
L 232.671623 295.305719 
L 232.87398 294.144833 
L 233.278694 269.982665 
L 233.683409 248.457085 
L 235.302267 186.753047 
L 235.504624 186.182442 
L 236.111695 204.4418 
L 236.314053 214.338845 
L 236.921124 273.701435 
L 237.325839 288.871657 
L 237.528196 291.862414 
L 237.730553 289.835782 
L 238.135267 266.952556 
L 238.539982 246.135314 
L 239.349411 216.581912 
L 239.754125 207.019361 
L 240.15884 197.260048 
L 240.361197 197.023936 
L 240.563554 202.238085 
L 240.968268 219.061093 
L 241.170626 226.301873 
L 241.777697 279.368133 
L 242.182412 294.518678 
L 242.384769 296.899478 
L 242.587126 294.046453 
L 242.99184 270.435214 
L 243.396555 253.277713 
L 245.21777 181.952095 
L 245.420127 186.005358 
L 246.027199 211.603876 
L 246.836627 281.807961 
L 247.038985 289.79643 
L 247.241342 292.826539 
L 247.443699 290.406387 
L 247.848413 267.897006 
L 249.467271 160.89874 
L 249.669628 153.185735 
L 249.871985 151.336188 
L 250.074343 151.493596 
L 250.2767 158.124419 
L 250.883772 188.799354 
L 251.6932 260.420113 
L 252.097915 274.291716 
L 252.300272 277.223445 
L 252.502629 277.479234 
L 252.704986 273.780139 
L 253.109701 242.495247 
L 253.91913 172.566627 
L 254.323844 157.47511 
L 254.728558 149.053768 
L 254.930916 147.85353 
L 255.133273 155.015606 
L 255.740345 190.80631 
L 256.549773 262.643505 
L 256.954488 277.420206 
L 257.156845 281.060272 
L 257.359202 282.65403 
L 257.561559 281.729257 
L 257.966274 254.143459 
L 258.573345 206.015883 
L 258.97806 185.316696 
L 259.382774 174.790019 
L 259.585131 171.504121 
L 259.787489 171.090925 
L 259.989846 173.589781 
L 260.39456 188.858382 
L 260.596917 201.608452 
L 261.203989 260.813634 
L 261.608704 278.679472 
L 261.811061 281.473468 
L 262.013418 280.725779 
L 262.418132 257.842553 
L 262.62049 246.371426 
L 263.025204 237.143367 
L 263.227561 234.467426 
L 263.429918 233.503301 
L 263.834633 234.723215 
L 264.03699 234.428074 
L 264.239347 235.333172 
L 264.441704 235.411876 
L 264.644062 235.156087 
L 264.846419 237.104015 
L 265.048776 240.960517 
L 265.251133 240.960517 
L 265.45349 244.797343 
L 266.060562 285.349647 
L 266.465277 297.607815 
L 266.667634 299.083518 
L 266.869991 295.089283 
L 267.072348 287.494334 
L 267.477063 262.190956 
L 268.084134 241.019545 
L 268.488849 231.201205 
L 269.09592 220.458091 
L 269.500635 216.680293 
L 269.702992 218.765952 
L 269.905349 222.209258 
L 270.107706 222.858567 
L 270.310063 228.879433 
L 270.917135 275.531306 
L 271.32185 286.963081 
L 271.524207 289.009389 
L 271.726564 287.376278 
L 274.15485 152.182257 
L 274.357208 145.334998 
L 274.559565 148.522515 
L 275.166636 172.546951 
L 275.976065 250.444365 
L 276.38078 262.446745 
L 276.583137 261.77776 
L 276.987851 240.921165 
L 277.392566 213.315691 
L 278.404352 158.931137 
L 278.606709 156.019084 
L 279.011423 143.387071 
L 279.213781 141.85234 
L 279.416138 145.925279 
L 280.023209 185.769245 
L 280.630281 253.907346 
L 281.034995 275.669039 
L 281.237353 280.332258 
L 281.43971 278.856556 
L 281.642067 273.229211 
L 282.249139 233.345892 
L 282.85621 201.214931 
L 283.867996 160.347811 
L 284.070354 159.206601 
L 284.272711 166.99831 
L 285.284497 246.35175 
L 285.689211 277.085713 
L 286.093926 291.173752 
L 286.296283 293.357792 
L 286.49864 291.626301 
L 286.700997 288.812628 
L 287.105712 259.180523 
L 287.712783 209.931413 
L 288.522212 168.43466 
L 288.724569 161.626753 
L 288.926927 159.777206 
L 289.129284 163.200836 
L 289.736355 195.508881 
L 290.545784 262.466421 
L 290.950499 277.066037 
L 291.152856 279.722301 
L 291.355213 279.801005 
L 291.55757 278.384331 
L 291.759927 266.460655 
L 292.771714 172.173107 
L 293.176428 151.159104 
L 293.581142 140.41599 
L 293.7835 138.763203 
L 293.985857 142.127805 
L 294.592928 166.526085 
L 295.402357 246.115637 
L 295.807072 260.164325 
L 296.009429 260.006917 
L 296.414143 240.606348 
L 297.830644 111.45287 
L 298.235358 98.722477 
L 298.437715 96.243296 
L 298.640073 96.499085 
L 298.84243 98.466688 
L 299.044787 106.160017 
L 299.449501 131.974972 
L 300.056573 207.589965 
L 300.461287 231.752134 
L 300.663645 237.517211 
L 300.866002 238.205872 
L 301.068359 231.673429 
L 301.473073 202.90707 
L 302.484859 102.106754 
L 302.687217 91.26526 
L 302.889574 91.36364 
L 303.091931 99.115997 
L 303.496646 107.399607 
L 303.90136 128.70875 
L 304.306074 155.468155 
L 304.913146 221.756709 
L 305.31786 246.036933 
L 305.520218 251.369138 
L 305.722575 249.657323 
L 305.924932 242.82974 
L 306.532004 204.559856 
L 307.54379 137.503937 
L 307.746147 127.724949 
L 307.948504 126.878879 
L 308.757933 157.789927 
L 309.162647 182.758812 
L 309.769719 243.105204 
L 310.174433 262.151604 
L 310.376791 266.362275 
L 310.579148 265.811346 
L 310.983862 243.380669 
L 312.198005 143.721563 
L 312.60272 132.584929 
L 312.805077 128.393934 
L 313.007434 128.925187 
L 313.209791 132.466873 
L 313.816863 158.891785 
L 314.01922 171.996022 
L 314.626292 231.948894 
L 315.031006 251.585575 
L 315.233364 255.97333 
L 315.435721 255.343697 
L 315.840435 237.359803 
L 316.24515 219.434937 
L 316.649864 207.924458 
L 317.054578 193.265814 
L 317.66165 186.064386 
L 317.864007 185.631513 
L 318.066364 184.765768 
L 318.268722 189.251903 
L 318.875793 210.462666 
L 319.685222 266.598388 
L 320.089937 278.83688 
L 320.292294 280.410962 
L 320.697008 272.816014 
L 321.101723 247.68972 
L 322.315866 173.038852 
L 322.72058 163.220512 
L 322.922937 160.99712 
L 323.125295 164.952003 
L 323.732366 191.416267 
L 324.541795 257.075188 
L 324.94651 270.769706 
L 325.148867 273.544027 
L 325.351224 273.603055 
L 325.553581 271.438692 
L 325.755938 259.633072 
L 326.970082 151.946145 
L 327.172439 145.885927 
L 327.374796 144.370872 
L 327.77951 139.038668 
L 327.981868 143.819943 
L 328.184225 152.241285 
L 328.791296 201.726508 
L 329.196011 243.616781 
L 329.398368 258.216398 
L 329.803083 267.897006 
L 330.00544 266.991908 
L 330.207797 261.620351 
L 330.814869 215.145562 
L 331.42194 178.528465 
L 331.826655 156.806125 
L 332.029012 154.031804 
L 332.231369 154.05148 
L 332.433726 154.228565 
L 332.636083 156.23552 
L 332.838441 160.583923 
L 333.243155 182.542376 
L 333.445512 191.180154 
L 334.052584 254.143459 
L 334.457298 275.01973 
L 334.659655 280.214202 
L 334.862013 277.912106 
L 335.266727 258.905059 
L 335.671442 235.569284 
L 336.48087 197.141992 
L 336.683228 192.282012 
L 336.885585 191.219506 
L 337.087942 185.29702 
L 337.290299 183.526177 
L 337.695014 189.724128 
L 338.099728 203.576055 
L 338.302085 209.2034 
L 339.111514 272.265085 
L 339.313871 278.207247 
L 339.516228 280.351934 
L 339.718586 276.45608 
L 340.1233 254.084431 
L 340.932729 211.48582 
L 342.349229 152.31999 
L 342.551587 152.241285 
L 343.158658 175.891877 
L 343.76573 236.021833 
L 344.170444 253.277713 
L 344.372801 257.842553 
L 344.575159 255.796246 
L 344.777516 249.165423 
L 345.18223 219.572669 
L 346.194016 140.396314 
L 346.598731 126.249246 
L 347.003445 119.913564 
L 347.205802 119.106846 
L 347.40816 122.156631 
L 347.610517 129.672876 
L 348.015231 154.681114 
L 348.82466 241.983671 
L 349.229374 258.373806 
L 349.431732 257.645793 
L 349.634089 252.097151 
L 349.836446 241.432742 
L 351.050589 141.380115 
L 351.455304 123.789742 
L 351.860018 115.309372 
L 352.062375 114.443627 
L 352.264733 117.926284 
L 352.46709 128.551342 
L 353.276519 208.16057 
L 353.681233 244.502203 
L 354.085947 263.843743 
L 354.288305 268.900483 
L 354.490662 269.451412 
L 354.693019 267.306725 
L 355.097733 227.029886 
L 355.704805 156.294548 
L 356.109519 132.624281 
L 356.716591 115.191316 
L 356.918948 114.148486 
L 357.121306 118.752678 
L 357.52602 143.308367 
L 357.728377 155.468155 
L 358.740163 246.961707 
L 359.144878 259.39696 
L 359.347235 261.187479 
L 359.549592 260.872662 
L 359.751949 247.453608 
L 360.763735 131.856916 
L 361.16845 113.577881 
L 361.573164 102.933148 
L 361.775521 100.729432 
L 361.977879 103.877597 
L 362.180236 110.587124 
L 362.58495 135.300221 
L 363.394379 220.359711 
L 363.799093 237.281099 
L 364.001451 238.06814 
L 364.203808 232.421119 
L 364.406165 222.779863 
L 365.013237 156.078112 
L 365.620308 94.177313 
L 366.025023 78.672599 
L 366.429737 72.750113 
L 366.632094 73.222338 
L 366.834451 75.760546 
L 367.036809 84.12286 
L 367.441523 112.121855 
L 368.048595 188.504214 
L 368.453309 217.78215 
L 368.655666 225.96738 
L 368.858024 228.2498 
L 369.060381 224.511354 
L 369.262738 215.047182 
L 369.86981 154.090833 
L 370.476881 98.269928 
L 370.881596 82.312665 
L 371.083953 81.879793 
L 371.28631 82.568454 
L 371.488667 86.346252 
L 371.691024 92.327766 
L 372.298096 129.75158 
L 373.107525 211.367764 
L 373.512239 232.716259 
L 373.714597 236.907254 
L 374.119311 236.238269 
L 374.321668 223.999777 
L 375.333454 124.281643 
L 375.738169 111.55125 
L 375.940526 108.954014 
L 376.142883 107.891508 
L 376.34524 112.869544 
L 376.749955 138.074542 
L 377.559383 194.662812 
L 377.964098 227.954659 
L 378.368812 241.216305 
L 378.57117 241.432742 
L 378.773527 235.726692 
L 378.975884 224.944226 
L 380.392384 112.849868 
L 380.797099 103.306992 
L 381.201813 96.007184 
L 381.40417 99.627574 
L 382.011242 135.221517 
L 382.820671 214.889774 
L 383.225385 230.374811 
L 383.427743 231.004444 
L 383.6301 225.869 
L 384.034814 204.481152 
L 385.0466 133.863871 
L 385.451315 117.808228 
L 385.653672 117.35568 
L 385.856029 120.995746 
L 386.058386 128.334906 
L 387.070172 195.646614 
L 387.474887 234.231314 
L 387.879601 255.284669 
L 388.284316 264.079855 
L 388.68903 266.500007 
L 388.891387 260.971042 
L 389.700816 219.080769 
L 390.307888 208.298303 
L 390.914959 196.040134 
L 391.117316 200.644326 
L 391.926745 238.717449 
L 392.533817 281.237356 
L 392.938531 293.141356 
L 393.140888 294.931875 
L 393.343246 294.499002 
L 393.545603 294.951551 
L 393.74796 286.333448 
L 394.355032 246.725595 
L 395.569175 192.380392 
L 395.771532 186.595639 
L 395.973889 187.756525 
L 396.176247 195.76467 
L 396.783318 236.218593 
L 397.188033 273.288239 
L 397.592747 290.445739 
L 397.795104 293.12168 
L 397.997461 290.681852 
L 398.402176 273.229211 
L 400.628105 150.411414 
L 400.830462 153.146383 
L 401.03282 162.728611 
L 401.639891 217.624742 
L 402.044606 260.302057 
L 402.44932 279.860034 
L 402.651677 283.716536 
L 402.854034 282.122777 
L 403.258749 264.611108 
L 403.663463 237.261423 
L 404.877607 135.201841 
L 405.282321 115.447104 
L 405.484678 111.393842 
L 405.687035 112.436671 
L 405.889393 122.550152 
L 406.294107 158.51794 
L 406.901179 233.031076 
L 407.305893 256.189766 
L 407.50825 261.580999 
L 407.710607 261.069422 
L 408.115322 240.626024 
L 409.73418 113.302417 
L 409.936537 108.560493 
L 410.138894 108.422761 
L 410.341251 112.849868 
L 410.948323 147.597742 
L 411.15068 162.905695 
L 411.757752 230.847036 
L 412.162466 254.005727 
L 412.364823 260.243029 
L 412.56718 261.954844 
L 412.971895 244.580907 
L 414.388395 150.175302 
L 414.79311 137.149768 
L 415.197824 130.735382 
L 415.400181 137.248149 
L 416.20961 197.437133 
L 416.614325 240.960517 
L 417.019039 263.155082 
L 417.221396 267.247697 
L 417.423753 266.716444 
L 417.828468 251.172378 
L 419.244968 157.140618 
L 419.649683 144.056056 
L 419.85204 140.376638 
L 420.054397 141.75396 
L 420.256754 150.076922 
L 421.066183 212.82379 
L 421.673255 265.752318 
L 422.077969 281.198004 
L 422.280326 283.578804 
L 422.482684 282.949171 
L 422.685041 282.791762 
L 423.089755 253.258037 
L 423.899184 186.949807 
L 424.708613 149.211176 
L 424.91097 146.161391 
L 425.113327 149.998218 
L 425.518042 175.065483 
L 425.720399 186.379202 
L 426.529828 257.940933 
L 426.934542 275.747743 
L 427.136899 280.037118 
L 427.339257 280.804483 
L 427.541614 281.020919 
L 427.743971 272.776662 
L 428.148685 234.093582 
L 428.755757 174.770343 
L 429.160471 150.194978 
L 429.565186 142.285213 
L 429.9699 146.043335 
L 430.374615 161.587401 
L 430.576972 172.743712 
L 431.386401 245.564709 
L 431.791115 257.291624 
L 431.993472 255.343697 
L 432.398187 235.8841 
L 433.207616 173.511077 
L 434.017044 106.081313 
L 434.219402 101.398417 
L 435.02883 127.665921 
L 435.433545 151.611652 
L 436.040617 219.828458 
L 436.445331 241.413066 
L 436.647688 246.332074 
L 436.850045 245.682765 
L 437.25476 225.947704 
L 437.659474 192.498448 
L 438.468903 122.117279 
L 438.67126 112.79084 
L 438.873617 113.715613 
L 439.075975 120.523521 
L 439.278332 120.090648 
L 439.480689 122.235336 
L 439.885403 140.002793 
L 440.290118 163.712413 
L 440.897189 234.034553 
L 441.301904 255.402725 
L 441.504261 260.597198 
L 441.706618 261.108774 
L 442.111333 247.001059 
L 442.920762 197.181344 
L 443.527833 163.791117 
L 444.134905 142.009748 
L 444.337262 139.530568 
L 444.539619 145.669491 
L 445.146691 188.81903 
L 445.753762 255.068232 
L 446.158477 275.373898 
L 446.360834 280.115822 
L 446.563191 278.207247 
L 446.967906 260.105297 
L 448.586763 154.976254 
L 448.991478 142.344241 
L 449.193835 140.120849 
L 449.396192 146.495884 
L 450.003264 185.159288 
L 450.812693 261.797436 
L 451.217407 274.527829 
L 451.419764 274.645885 
L 451.824479 258.196722 
L 452.43155 209.931413 
L 453.038622 169.811983 
L 453.443336 153.500552 
L 453.848051 145.964631 
L 454.050408 149.1915 
L 454.252765 158.754052 
L 454.65748 185.946329 
L 454.859837 194.033179 
L 455.669266 255.993006 
L 456.07398 268.959511 
L 456.276337 270.415538 
L 456.478694 268.506963 
L 456.681052 265.535882 
L 456.883409 257.881905 
L 457.288123 232.027598 
L 457.692838 221.540273 
L 457.895195 222.209258 
L 458.299909 227.718547 
L 458.502267 227.580815 
L 458.906981 223.921073 
L 459.109338 224.432649 
L 459.514053 228.407208 
L 459.71641 232.519499 
L 460.728196 287.750123 
L 461.13291 291.98047 
L 461.537625 288.812628 
L 461.739982 280.27323 
L 462.144696 247.256847 
L 463.561197 181.066673 
L 463.763554 174.121034 
L 463.965911 175.242568 
L 464.572983 193.875771 
L 465.382412 257.960609 
L 465.584769 264.571756 
L 465.787126 267.168992 
L 465.989483 264.847221 
L 467.608341 176.305073 
L 468.620127 156.03876 
L 468.822484 159.029517 
L 469.429556 184.136134 
L 470.036627 238.402633 
L 470.441342 255.422401 
L 470.643699 257.940933 
L 470.846056 255.481429 
L 471.857842 206.763572 
L 472.869628 177.820128 
L 473.071985 178.292353 
L 473.274343 176.580538 
L 473.4767 177.780776 
L 473.679057 181.401166 
L 473.881414 187.697496 
L 474.083772 188.799354 
L 474.286129 196.138514 
L 474.8932 245.997581 
L 475.297915 261.541647 
L 475.500272 263.135406 
L 475.702629 261.187479 
L 476.107344 237.87138 
L 476.512058 216.818025 
L 477.321487 186.694019 
L 477.726201 167.411507 
L 477.928558 164.007553 
L 478.333273 168.493688 
L 478.53563 172.763388 
L 479.142702 196.610739 
L 479.952131 261.443267 
L 480.356845 270.868087 
L 480.559202 270.474566 
L 480.963917 249.342507 
L 482.785131 126.524711 
L 482.987489 120.877689 
L 483.189846 118.359157 
L 483.392203 123.75039 
L 483.999275 161.882542 
L 484.606346 229.902587 
L 485.011061 252.116827 
L 485.213418 256.327498 
L 485.415775 257.232596 
L 485.82049 238.323929 
L 486.225204 208.475387 
L 487.23699 122.41242 
L 487.439347 119.461015 
L 487.844062 125.737669 
L 488.248776 143.544479 
L 489.260562 217.703446 
L 489.665277 248.457085 
L 490.069991 262.899293 
L 490.272348 265.142361 
L 490.474705 264.060179 
L 490.677063 262.36804 
L 490.87942 253.061277 
L 491.891206 176.81665 
L 492.29592 159.875586 
L 492.498277 152.81189 
L 492.700635 150.883639 
L 492.902992 152.438046 
L 493.105349 157.042237 
L 493.712421 189.094495 
L 494.52185 257.940933 
L 495.128921 275.41325 
L 495.331278 275.550982 
L 495.533636 274.960701 
L 495.735993 267.739597 
L 496.950136 180.24028 
L 497.557208 156.943857 
L 497.759565 153.736664 
L 497.961922 156.806125 
L 498.568994 186.930131 
L 499.378422 257.50806 
L 499.58078 264.040503 
L 499.783137 266.421303 
L 499.985494 263.253462 
L 500.187851 255.107584 
L 500.794923 219.808782 
L 500.99728 214.929126 
L 501.401995 202.415169 
L 501.806709 191.652379 
L 502.009066 191.219506 
L 502.211423 193.18711 
L 502.413781 193.797067 
L 502.616138 192.203308 
L 503.020852 201.490395 
L 503.223209 202.021648 
L 503.425567 209.2034 
L 504.032638 257.665469 
L 504.437353 270.159749 
L 504.63971 271.714156 
L 504.842067 269.451412 
L 505.246782 246.15499 
L 505.651496 223.38982 
L 507.270354 153.4612 
L 507.472711 150.490119 
L 507.675068 153.736664 
L 508.28214 180.535421 
L 508.889211 236.002157 
L 509.293926 252.372616 
L 509.496283 255.737217 
L 509.69864 253.986051 
L 510.103354 231.476669 
L 511.722212 129.790932 
L 512.126927 112.810516 
L 512.329284 114.32557 
L 512.936355 147.184545 
L 513.34107 184.411599 
L 513.745784 225.96738 
L 514.150499 247.68972 
L 514.352856 253.021925 
L 514.555213 253.49415 
L 514.75757 244.994104 
L 516.174071 152.497074 
L 516.376428 151.454244 
L 516.781142 160.367487 
L 516.9835 157.750575 
L 517.185857 158.262151 
L 517.590571 175.18354 
L 517.792928 179.236802 
L 517.995286 189.468339 
L 518.4 227.384054 
L 518.4 227.384054 
" clip-path="url(#pde56e21658)" style="fill: none; stroke: #1f77b4; stroke-width: 1.5; stroke-linecap: square"/>
   </g>
   <g id="line2d_14">
    <path d="M 72 268.597557 
L 72.202357 268.597557 
L 72.607072 273.828203 
L 72.809429 274.8101 
L 73.011786 271.216511 
L 75.237715 168.773872 
L 75.440073 167.642096 
L 75.64243 173.015539 
L 76.249501 204.042367 
L 76.654216 245.850369 
L 77.05893 270.235331 
L 77.261287 275.580677 
L 77.463645 273.313378 
L 77.666002 268.062213 
L 78.475431 232.664389 
L 78.880145 223.133431 
L 79.487217 183.981703 
L 79.891931 169.783943 
L 80.094288 169.70768 
L 80.296646 173.924543 
L 80.903717 199.849058 
L 81.510789 255.775499 
L 81.915503 276.367445 
L 82.11786 280.791284 
L 82.320218 279.614861 
L 82.724932 271.065215 
L 82.927289 265.349268 
L 83.332004 249.011319 
L 83.939075 235.014922 
L 84.141432 233.521564 
L 84.34379 234.113861 
L 84.546147 233.379848 
L 84.748504 236.723212 
L 85.153218 247.019676 
L 85.355576 248.910046 
L 85.76029 254.936049 
L 86.974433 302.864443 
L 87.176791 300.454012 
L 87.581505 288.39665 
L 88.390934 257.417475 
L 88.593291 255.371683 
L 88.795648 256.256284 
L 89.200363 260.78067 
L 89.40272 258.732762 
L 89.807434 251.234382 
L 90.009791 244.571914 
L 90.414506 240.713728 
L 90.616863 242.066037 
L 91.021578 265.069401 
L 91.426292 289.797082 
L 91.628649 296.924864 
L 91.831006 295.044923 
L 92.235721 286.694775 
L 93.04515 244.187188 
L 93.247507 244.264557 
L 93.449864 246.515241 
L 93.854578 244.382589 
L 94.056936 244.511406 
L 94.259293 241.853265 
L 94.664007 230.748837 
L 94.866364 229.628103 
L 95.068722 231.073826 
L 95.473436 242.460814 
L 96.485222 294.438223 
L 96.687579 292.794568 
L 97.294651 269.722537 
L 97.699365 249.302994 
L 97.901723 244.808173 
L 98.10408 245.538481 
L 98.306437 248.341994 
L 98.508794 249.318701 
L 99.115866 238.189015 
L 99.52058 231.603167 
L 99.722937 230.917597 
L 99.925295 230.860497 
L 100.330009 244.349361 
L 101.139438 290.385421 
L 101.544152 298.276029 
L 101.948867 284.912692 
L 102.758296 245.702516 
L 103.365367 251.142558 
L 103.567724 247.537867 
L 104.174796 227.82229 
L 104.377153 226.161824 
L 104.57951 225.461191 
L 104.781868 225.657611 
L 104.984225 231.878673 
L 105.388939 255.271922 
L 105.996011 288.894502 
L 106.198368 294.482032 
L 106.400725 296.67647 
L 106.603083 292.481445 
L 107.007797 273.654232 
L 107.614869 244.483067 
L 107.817226 245.964615 
L 108.019583 249.144514 
L 108.22194 247.049458 
L 108.424297 238.05572 
L 108.829012 211.508519 
L 109.031369 206.040306 
L 109.233726 207.355938 
L 109.638441 215.187219 
L 109.840798 223.801099 
L 110.650227 277.04038 
L 111.054941 290.857979 
L 111.257298 294.698702 
L 111.459655 290.570031 
L 111.86437 274.530059 
L 112.471442 243.664093 
L 112.673799 240.743994 
L 113.078513 224.767366 
L 113.685585 189.936939 
L 113.887942 184.466801 
L 114.090299 182.974548 
L 114.292656 185.997935 
L 114.495014 191.549841 
L 114.899728 214.409079 
L 115.5068 268.256619 
L 115.911514 281.012436 
L 116.113871 285.318938 
L 116.316228 284.367122 
L 116.720943 274.659002 
L 116.9233 269.525663 
L 117.732729 226.173495 
L 118.339801 179.89513 
L 118.744515 158.619772 
L 118.946872 154.425226 
L 119.149229 157.886789 
L 119.351587 163.786461 
L 119.756301 190.29512 
L 120.768087 270.904476 
L 120.970444 278.45772 
L 121.172801 277.861311 
L 121.375159 276.448012 
L 121.577516 273.651536 
L 121.779873 267.836513 
L 123.196374 204.941689 
L 123.601088 195.243717 
L 124.005802 201.820209 
L 124.410517 215.092597 
L 124.612874 223.473294 
L 125.422303 282.772805 
L 125.62466 290.984627 
L 125.827017 291.385703 
L 126.029374 288.892936 
L 126.231732 283.77017 
L 127.243518 227.251075 
L 127.648232 209.853266 
L 128.255304 172.791972 
L 128.457661 164.298693 
L 128.660018 161.685142 
L 128.862375 164.308244 
L 129.26709 188.756993 
L 130.278876 282.549788 
L 130.481233 285.201657 
L 130.885947 276.60792 
L 131.088305 271.35963 
L 131.493019 251.698373 
L 133.314234 148.220249 
L 133.516591 145.87714 
L 133.921306 160.349481 
L 134.32602 186.237614 
L 135.135449 262.653967 
L 135.337806 271.030598 
L 135.540163 273.701275 
L 135.944878 261.76055 
L 136.754306 216.629984 
L 136.956664 207.027449 
L 137.159021 210.072903 
L 137.563735 197.926793 
L 137.766092 193.831296 
L 137.96845 194.168732 
L 138.373164 203.216768 
L 138.777879 208.459356 
L 139.182593 220.532326 
L 139.789665 263.47982 
L 140.194379 283.5382 
L 140.396736 288.746308 
L 140.801451 274.109678 
L 141.408522 230.865136 
L 141.610879 226.309128 
L 141.813237 224.678042 
L 142.217951 220.249478 
L 142.420308 220.969733 
L 142.825023 212.961633 
L 143.02738 212.951519 
L 143.634451 223.270108 
L 143.836809 225.929867 
L 144.039166 231.47709 
L 144.848595 280.957539 
L 145.050952 286.497746 
L 145.253309 287.181648 
L 145.658024 275.471016 
L 146.062738 245.944058 
L 146.265095 231.311156 
L 146.66981 222.806488 
L 147.074524 218.251848 
L 147.276881 219.045657 
L 147.681596 209.388251 
L 148.08631 223.792717 
L 148.491024 234.129046 
L 148.693382 236.431554 
L 149.098096 253.371574 
L 149.705168 283.187257 
L 150.109882 288.987243 
L 150.312239 286.959032 
L 150.919311 265.921728 
L 151.526383 243.753855 
L 151.72874 240.218128 
L 151.931097 238.791607 
L 152.133454 235.420154 
L 152.335811 235.997931 
L 152.740526 239.612042 
L 153.14524 245.192902 
L 153.347597 245.052413 
L 153.549955 243.254724 
L 153.752312 245.594205 
L 153.954669 251.573853 
L 154.561741 279.519096 
L 154.966455 290.269897 
L 155.168812 290.095878 
L 155.37117 286.693777 
L 155.775884 275.6942 
L 156.990027 196.930112 
L 157.192384 190.931602 
L 157.597099 173.033577 
L 157.799456 168.569945 
L 158.001813 167.33305 
L 158.20417 169.976933 
L 158.811242 205.027398 
L 159.215956 252.601702 
L 159.620671 278.201054 
L 159.823028 280.545179 
L 160.227743 272.490372 
L 160.4301 265.241896 
L 161.441886 199.578606 
L 161.8466 188.044716 
L 162.251315 182.654212 
L 162.453672 182.588492 
L 162.656029 182.863832 
L 163.263101 205.299239 
L 163.465458 214.350327 
L 164.072529 263.028321 
L 164.477244 284.648221 
L 164.679601 284.454999 
L 165.084316 273.008796 
L 165.893744 226.174979 
L 166.096102 222.481062 
L 166.298459 221.945605 
L 166.500816 218.353873 
L 167.310245 175.278721 
L 167.512602 175.07532 
L 167.714959 181.076711 
L 168.322031 212.981728 
L 168.929102 263.094304 
L 169.333817 279.159917 
L 169.536174 280.543978 
L 169.940888 269.496514 
L 170.345603 246.945777 
L 170.952675 208.553643 
L 171.762103 167.362808 
L 172.166818 157.963955 
L 172.369175 160.60176 
L 172.773889 175.616909 
L 173.178604 202.51452 
L 173.988033 275.571132 
L 174.19039 281.218849 
L 174.392747 282.922421 
L 174.595104 278.343647 
L 174.999819 262.11891 
L 175.404533 234.480337 
L 176.011605 210.604824 
L 176.821034 180.498277 
L 177.225748 173.411331 
L 177.630462 181.271595 
L 178.237534 225.842179 
L 178.642248 264.022734 
L 178.844606 280.248839 
L 179.24932 287.233484 
L 180.058749 254.148752 
L 181.677607 167.312902 
L 181.879964 160.338221 
L 182.082321 158.811769 
L 182.487035 167.271089 
L 182.89175 195.182623 
L 183.498821 249.880749 
L 183.903536 267.122386 
L 184.105893 269.790403 
L 184.510607 264.365671 
L 185.117679 243.754151 
L 185.522393 209.386202 
L 186.129465 160.270588 
L 186.53418 146.734804 
L 186.736537 147.987675 
L 186.938894 155.393723 
L 187.748323 205.241045 
L 188.557752 251.003082 
L 188.962466 267.857132 
L 189.164823 268.659601 
L 189.36718 265.140234 
L 189.569538 259.588146 
L 190.176609 227.767623 
L 190.783681 183.186765 
L 191.188395 160.508092 
L 191.390752 156.315399 
L 191.59311 157.825898 
L 191.795467 164.914837 
L 193.616682 269.182346 
L 193.819039 270.75452 
L 194.021396 268.519715 
L 194.223753 267.562855 
L 194.628468 257.541152 
L 195.033182 234.775234 
L 195.640254 195.8979 
L 195.842611 189.71348 
L 196.044968 191.37863 
L 196.449683 205.221211 
L 196.65204 208.327924 
L 197.056754 218.89753 
L 197.259112 222.846615 
L 197.461469 229.312968 
L 198.06854 264.077146 
L 198.473255 286.393613 
L 198.675612 285.779376 
L 199.080326 273.605013 
L 199.485041 247.094729 
L 199.889755 219.998293 
L 200.699184 189.423804 
L 201.508613 173.20242 
L 201.71097 174.141918 
L 201.913327 179.287043 
L 202.318042 200.901543 
L 203.329828 276.765497 
L 203.532185 274.318237 
L 203.936899 260.252417 
L 204.341614 238.115827 
L 204.746328 211.511381 
L 205.3534 190.423231 
L 205.960471 170.851201 
L 206.162829 171.671976 
L 206.567543 184.096119 
L 207.174615 206.356993 
L 207.984044 264.11439 
L 208.186401 272.172947 
L 208.388758 275.535708 
L 208.591115 271.254057 
L 208.99583 248.722068 
L 209.400544 220.347594 
L 210.614687 164.250509 
L 211.019402 144.475615 
L 211.221759 141.923373 
L 211.626473 157.480196 
L 212.233545 204.440962 
L 212.638259 246.024651 
L 213.042974 261.926327 
L 213.245331 265.424498 
L 213.447688 262.264342 
L 213.852403 246.126352 
L 214.864189 181.807234 
L 215.673617 121.761473 
L 215.875975 114.672994 
L 216.078332 116.481512 
L 216.483046 132.351792 
L 217.090118 181.412987 
L 217.494832 225.898328 
L 217.899547 245.770469 
L 218.101904 252.260268 
L 218.304261 251.988173 
L 218.506618 248.569144 
L 219.11369 229.923811 
L 219.316047 220.016227 
L 220.125476 162.969505 
L 220.327833 153.047955 
L 220.53019 150.939093 
L 220.732548 154.903522 
L 222.149048 243.67902 
L 222.553762 255.472899 
L 222.958477 272.441166 
L 223.160834 274.409532 
L 223.565549 267.06899 
L 223.767906 260.113279 
L 224.374977 225.434018 
L 224.779692 217.511759 
L 224.982049 216.500141 
L 225.386763 223.016596 
L 225.589121 223.032744 
L 226.803264 253.400833 
L 227.410335 289.847286 
L 227.612693 294.475566 
L 227.81505 292.376948 
L 228.219764 284.538225 
L 228.422121 276.600419 
L 229.029193 243.415738 
L 229.23155 242.339522 
L 229.433908 242.307737 
L 229.636265 240.402925 
L 229.838622 233.919461 
L 230.445694 204.743101 
L 230.648051 197.442912 
L 230.850408 195.069542 
L 231.052765 197.315708 
L 231.255122 202.811621 
L 231.659837 231.474157 
L 232.064551 270.83471 
L 232.469266 291.671906 
L 232.671623 288.718887 
L 233.278694 268.56839 
L 234.088123 233.010003 
L 234.492838 216.742726 
L 234.897552 197.322133 
L 235.302267 187.12334 
L 235.504624 186.259184 
L 235.706981 189.777957 
L 236.111695 203.271347 
L 236.51641 234.248867 
L 236.921124 268.723744 
L 237.325839 286.198268 
L 237.528196 289.068706 
L 237.730553 285.548087 
L 238.135267 268.067693 
L 238.742339 233.392664 
L 239.956482 198.030349 
L 240.15884 196.332222 
L 240.361197 196.818114 
L 240.765911 206.47348 
L 241.170626 227.872284 
L 241.777697 272.372033 
L 242.182412 288.599914 
L 242.384769 290.610614 
L 242.587126 286.784289 
L 242.99184 269.925143 
L 243.598912 238.210406 
L 244.003626 227.895024 
L 245.015413 187.903874 
L 245.21777 184.544579 
L 245.420127 187.432194 
L 245.622484 192.061594 
L 246.027199 212.884917 
L 246.836627 276.220567 
L 247.038985 285.281482 
L 247.241342 288.360407 
L 247.443699 283.698879 
L 247.848413 267.579046 
L 248.860199 207.552413 
L 249.467271 162.416577 
L 249.669628 153.630766 
L 249.871985 149.774378 
L 250.074343 151.961363 
L 250.479057 167.785113 
L 251.086129 210.643707 
L 251.490843 245.966695 
L 251.895558 266.567193 
L 252.097915 271.379545 
L 252.300272 269.935644 
L 252.704986 260.504747 
L 253.109701 242.395847 
L 253.514415 214.443145 
L 254.323844 152.182305 
L 254.526201 147.399216 
L 254.728558 147.596318 
L 254.930916 150.44919 
L 255.33563 166.648819 
L 255.740345 194.064461 
L 256.549773 253.923279 
L 256.752131 265.38639 
L 256.954488 269.71105 
L 257.156845 270.743516 
L 257.561559 264.168883 
L 257.966274 248.676271 
L 258.97806 184.641397 
L 259.382774 172.874475 
L 259.585131 170.353964 
L 259.787489 169.273158 
L 260.39456 188.418111 
L 260.799275 216.773135 
L 261.406346 268.929129 
L 261.608704 277.557328 
L 261.811061 279.207515 
L 262.215775 269.028815 
L 262.418132 260.422582 
L 263.025204 224.590441 
L 263.227561 219.892227 
L 263.429918 217.876848 
L 263.632276 219.851467 
L 264.239347 231.021817 
L 264.441704 229.23087 
L 264.644062 230.42847 
L 265.45349 248.360445 
L 265.858205 267.951858 
L 266.262919 289.200554 
L 266.465277 294.287961 
L 266.667634 293.75239 
L 266.869991 289.341193 
L 267.274705 272.17425 
L 267.67942 250.202962 
L 267.881777 242.352707 
L 268.084134 240.300301 
L 268.286491 240.333107 
L 268.488849 237.949093 
L 268.691206 233.985579 
L 269.09592 222.664448 
L 269.298277 219.489498 
L 269.500635 219.813036 
L 269.702992 221.432167 
L 270.310063 233.31415 
L 271.119492 282.207607 
L 271.32185 287.554771 
L 271.524207 289.195665 
L 271.928921 278.056512 
L 273.547779 189.527349 
L 273.952493 166.266378 
L 274.357208 155.748246 
L 274.559565 155.333107 
L 274.761922 160.002674 
L 275.166636 176.946163 
L 275.368994 191.354541 
L 275.976065 252.21422 
L 276.38078 264.463615 
L 276.583137 262.317066 
L 276.987851 245.330006 
L 277.392566 222.181295 
L 277.999637 181.68163 
L 278.606709 149.066767 
L 278.809066 147.783264 
L 279.011423 143.879314 
L 279.213781 145.344151 
L 279.618495 157.22922 
L 280.023209 184.212842 
L 280.832638 255.80763 
L 281.237353 271.374202 
L 281.43971 267.48854 
L 281.844424 251.542406 
L 283.463282 172.935534 
L 283.867996 158.876563 
L 284.070354 157.515507 
L 284.272711 161.536297 
L 284.475068 170.531283 
L 285.08214 219.96864 
L 285.486854 255.377959 
L 285.891568 277.244056 
L 286.093926 278.800463 
L 286.296283 277.796129 
L 286.903354 262.934516 
L 287.308069 239.636742 
L 288.724569 163.977275 
L 288.926927 160.479583 
L 289.331641 173.211218 
L 289.736355 199.619434 
L 290.748141 270.320022 
L 290.950499 274.436087 
L 291.152856 272.730136 
L 291.759927 261.445324 
L 292.164642 235.162097 
L 292.974071 165.089071 
L 293.378785 144.926035 
L 293.581142 141.493674 
L 293.7835 141.496011 
L 294.188214 154.817791 
L 294.592928 179.159965 
L 294.997643 212.884685 
L 295.402357 242.853173 
L 295.604714 255.746246 
L 295.807072 260.594867 
L 296.009429 259.196134 
L 296.211786 254.990136 
L 296.6165 232.866971 
L 297.223572 173.831485 
L 297.830644 111.968596 
L 298.033001 100.770035 
L 298.235358 96.60438 
L 298.437715 97.725476 
L 298.640073 101.25004 
L 299.247144 128.972905 
L 299.651859 164.298084 
L 300.056573 212.95772 
L 300.461287 232.054264 
L 300.663645 234.211972 
L 300.866002 233.320639 
L 301.068359 229.628929 
L 301.270716 222.102777 
L 301.473073 209.182893 
L 302.687217 88.390956 
L 302.889574 82.56527 
L 303.091931 87.525785 
L 303.699003 124.650253 
L 304.508432 191.004178 
L 304.913146 224.555998 
L 305.520218 244.555233 
L 305.722575 244.013506 
L 306.127289 231.343456 
L 306.936718 179.564622 
L 307.54379 141.019216 
L 307.948504 130.411988 
L 308.150861 130.895801 
L 308.555576 148.339563 
L 309.162647 187.098028 
L 309.769719 238.108937 
L 310.174433 254.154654 
L 310.376791 254.514589 
L 310.579148 255.987991 
L 310.781505 252.479896 
L 310.983862 243.452985 
L 312.60272 124.160542 
L 312.805077 121.505955 
L 313.007434 121.564001 
L 313.209791 126.998102 
L 313.816863 158.871597 
L 314.221578 191.062069 
L 314.626292 227.56453 
L 315.031006 244.697181 
L 315.233364 249.217147 
L 315.435721 249.612599 
L 315.840435 232.704411 
L 316.042792 224.108649 
L 316.447507 200.287163 
L 316.852221 189.221339 
L 317.256936 179.121406 
L 317.459293 179.040263 
L 317.66165 179.376877 
L 317.864007 179.352489 
L 318.066364 181.037049 
L 318.471079 189.830427 
L 318.875793 207.111605 
L 319.482865 249.739647 
L 319.887579 266.300176 
L 320.089937 267.764875 
L 320.292294 265.617786 
L 320.899365 251.999786 
L 321.708794 214.741325 
L 322.518223 165.401799 
L 322.72058 159.044421 
L 322.922937 158.078685 
L 323.327652 166.60272 
L 323.530009 175.161038 
L 324.744152 264.46952 
L 324.94651 267.765963 
L 325.148867 268.870856 
L 325.553581 261.41146 
L 325.958296 245.531396 
L 326.565367 195.017153 
L 327.172439 139.941571 
L 327.374796 133.248795 
L 327.577153 133.605404 
L 327.77951 136.504716 
L 328.184225 150.858131 
L 328.386582 161.331306 
L 329.600725 264.524288 
L 329.803083 266.206532 
L 330.00544 264.330698 
L 330.207797 258.300523 
L 330.612511 235.607414 
L 331.624297 158.338327 
L 332.029012 142.405422 
L 332.231369 143.693019 
L 332.838441 159.448234 
L 333.243155 180.589629 
L 334.457298 267.928393 
L 334.659655 270.616176 
L 334.862013 269.366932 
L 336.48087 193.495923 
L 336.885585 182.64233 
L 337.087942 183.616969 
L 337.290299 180.882807 
L 337.492656 183.369364 
L 338.302085 211.805303 
L 339.313871 275.456719 
L 339.516228 278.003217 
L 340.1233 258.087484 
L 340.730372 219.750894 
L 340.932729 213.923986 
L 341.742158 174.030111 
L 342.349229 155.777509 
L 342.551587 158.474537 
L 342.753944 159.638964 
L 343.158658 179.455501 
L 343.361015 192.202625 
L 343.76573 235.559639 
L 344.170444 256.160199 
L 344.372801 258.348427 
L 344.575159 255.794368 
L 345.18223 229.248394 
L 345.789302 177.301446 
L 346.396374 121.034245 
L 346.598731 110.083073 
L 346.801088 109.418303 
L 347.003445 109.591844 
L 347.205802 113.00677 
L 348.015231 156.462026 
L 349.027017 241.790796 
L 349.229374 247.794506 
L 349.431732 248.905223 
L 349.836446 234.717441 
L 350.038803 226.32407 
L 350.24116 211.482598 
L 350.848232 150.363507 
L 351.252947 116.734735 
L 351.455304 109.076337 
L 351.657661 106.030774 
L 351.860018 105.630116 
L 352.062375 107.769197 
L 352.669447 137.925773 
L 353.478876 224.561397 
L 353.88359 245.013522 
L 354.288305 255.643745 
L 354.895376 243.404768 
L 355.300091 213.496768 
L 356.109519 132.182835 
L 356.311877 123.056886 
L 356.716591 116.933307 
L 356.918948 115.980134 
L 357.323663 134.525526 
L 357.728377 164.565788 
L 358.537806 231.404471 
L 358.94252 247.722537 
L 359.144878 251.202332 
L 359.347235 249.238639 
L 359.751949 241.844186 
L 359.954306 229.820685 
L 360.966092 124.323397 
L 361.16845 115.912525 
L 361.573164 109.953533 
L 361.775521 108.032796 
L 361.977879 113.606765 
L 362.382593 134.595322 
L 363.596736 233.341117 
L 363.799093 239.032303 
L 364.001451 240.212598 
L 364.203808 236.571707 
L 364.608522 216.419964 
L 365.822665 87.202562 
L 366.025023 83.179633 
L 366.22738 84.854738 
L 366.632094 91.6841 
L 367.239166 123.169823 
L 368.250952 221.916652 
L 368.655666 231.851185 
L 368.858024 232.693714 
L 369.060381 229.893193 
L 369.262738 225.126978 
L 369.667452 198.736407 
L 370.476881 123.513809 
L 370.881596 106.329899 
L 371.083953 105.879502 
L 371.28631 108.792106 
L 371.488667 114.93737 
L 372.095739 150.924868 
L 373.107525 227.034278 
L 373.512239 238.873784 
L 373.714597 238.971646 
L 374.119311 233.641365 
L 374.524025 220.391299 
L 374.92874 189.028331 
L 375.535811 139.226877 
L 375.738169 132.357589 
L 375.940526 129.335485 
L 376.142883 128.562804 
L 376.34524 129.876997 
L 376.547597 138.206973 
L 377.964098 230.657657 
L 378.368812 240.206783 
L 378.57117 240.209983 
L 378.773527 237.748572 
L 379.178241 221.090092 
L 379.785313 166.026501 
L 380.190027 131.599062 
L 380.594742 113.644873 
L 380.999456 108.480168 
L 381.201813 107.325148 
L 381.40417 110.722144 
L 381.808885 131.914664 
L 383.023028 227.401593 
L 383.225385 231.441879 
L 383.427743 231.46313 
L 383.6301 227.781159 
L 384.034814 209.618804 
L 384.237171 194.025182 
L 384.237171 194.025182 
" clip-path="url(#pde56e21658)" style="fill: none; stroke: #ff7f0e; stroke-width: 1.5; stroke-linecap: square"/>
   </g>
   <g id="line2d_15">
    <path d="M 384.439529 178.058258 
L 385.653672 118.007306 
L 385.856029 115.114748 
L 386.058386 115.421642 
L 386.260743 120.425812 
L 386.665458 143.132423 
L 387.070172 182.363067 
L 387.474887 222.748924 
L 387.879601 237.130699 
L 388.081958 238.26963 
L 388.284316 235.829581 
L 388.68903 223.58778 
L 389.700816 160.815429 
L 390.307888 120.999413 
L 390.712602 102.866656 
L 390.914959 99.475565 
L 391.117316 102.408956 
L 391.522031 115.957112 
L 391.926745 148.227391 
L 392.533817 214.545179 
L 392.736174 226.954362 
L 392.938531 230.619605 
L 393.140888 229.829586 
L 393.343246 227.046149 
L 393.545603 222.530556 
L 393.950317 205.088907 
L 394.355032 181.119059 
L 395.569175 92.950551 
L 395.771532 88.926904 
L 395.973889 91.744226 
L 396.378604 110.228201 
L 396.783318 147.488276 
L 397.592747 233.128162 
L 397.795104 236.303094 
L 397.997461 236.578474 
L 398.199819 233.803052 
L 398.80689 214.212775 
L 399.211605 193.821429 
L 400.425748 123.173003 
L 400.628105 120.181171 
L 400.830462 120.688729 
L 401.03282 123.416603 
L 401.235177 130.310067 
L 401.639891 156.543208 
L 402.651677 237.003164 
L 402.854034 238.65912 
L 403.056392 237.183474 
L 403.258749 231.318089 
L 404.068178 190.628159 
L 404.675249 143.686181 
L 405.282321 98.414189 
L 405.687035 88.170988 
L 405.889393 89.210513 
L 406.09175 95.485938 
L 406.496464 118.35838 
L 406.901179 160.483312 
L 407.50825 223.941587 
L 407.710607 230.114234 
L 407.912965 230.195647 
L 408.317679 223.017203 
L 408.722393 209.784274 
L 409.329465 173.613262 
L 410.138894 115.627613 
L 410.341251 107.726762 
L 410.543608 104.299248 
L 410.745966 106.902221 
L 411.15068 125.428176 
L 411.555394 158.169053 
L 412.162466 223.4297 
L 412.364823 235.938041 
L 412.56718 241.377091 
L 412.769538 241.403858 
L 413.174252 230.685345 
L 413.781324 204.021678 
L 414.388395 167.334681 
L 414.995467 128.339919 
L 415.400181 115.182524 
L 415.602539 114.47196 
L 415.804896 116.67755 
L 416.007253 121.155884 
L 416.411967 140.382512 
L 416.816682 178.805962 
L 417.221396 218.074738 
L 417.423753 228.781822 
L 417.626111 232.024038 
L 417.828468 231.191848 
L 418.030825 227.048031 
L 418.435539 211.169895 
L 418.840254 188.628603 
L 419.447325 139.840462 
L 420.054397 88.876914 
L 420.256754 79.859988 
L 420.459112 77.421101 
L 420.661469 80.855739 
L 421.066183 102.270224 
L 421.470898 140.414936 
L 422.280326 231.593692 
L 422.482684 234.275713 
L 422.685041 234.010125 
L 422.887398 230.792315 
L 423.49447 212.934197 
L 424.101541 178.786556 
L 424.91097 130.648548 
L 425.113327 125.620663 
L 425.315684 124.517079 
L 425.518042 127.85114 
L 425.720399 134.127133 
L 426.125113 158.792393 
L 426.732185 208.582466 
L 427.136899 239.872452 
L 427.339257 244.310291 
L 427.541614 244.026332 
L 427.946328 232.452907 
L 428.755757 190.648152 
L 430.172257 103.715439 
L 430.374615 100.520828 
L 430.576972 101.212075 
L 430.779329 105.440438 
L 431.184044 122.152938 
L 431.588758 157.521316 
L 431.993472 199.029895 
L 432.398187 221.397785 
L 432.600544 223.371518 
L 432.802901 221.371604 
L 433.207616 210.392295 
L 433.61233 190.450025 
L 434.219402 146.25199 
L 434.826473 97.859319 
L 435.02883 88.426458 
L 435.231188 84.357854 
L 435.433545 87.266968 
L 435.838259 109.303143 
L 436.242974 147.560863 
L 436.850045 222.87523 
L 437.052403 233.800845 
L 437.25476 238.699341 
L 437.457117 240.149392 
L 437.659474 236.393792 
L 438.468903 206.38483 
L 439.885403 133.701797 
L 440.087761 131.095532 
L 440.290118 132.450558 
L 440.492475 136.24649 
L 440.897189 153.93454 
L 441.301904 182.05584 
L 441.908976 231.663808 
L 442.111333 239.708248 
L 442.31369 241.36558 
L 442.516047 238.398439 
L 442.920762 223.310025 
L 443.527833 187.719365 
L 444.134905 138.95154 
L 444.741976 92.145637 
L 444.944334 83.718126 
L 445.146691 80.645082 
L 445.349048 82.720965 
L 445.753762 99.726075 
L 446.158477 131.475683 
L 446.967906 219.424248 
L 447.170263 227.612097 
L 447.37262 227.891844 
L 447.777335 222.651137 
L 448.182049 208.328393 
L 448.789121 173.086561 
L 449.598549 118.294608 
L 449.800907 110.911822 
L 450.003264 108.722298 
L 450.205621 113.24657 
L 450.610335 133.135297 
L 451.01505 169.256818 
L 451.622121 227.672069 
L 451.824479 239.246164 
L 452.026836 244.029055 
L 452.229193 243.874627 
L 452.633908 233.20406 
L 453.240979 204.720645 
L 453.848051 169.099689 
L 454.455122 132.933916 
L 454.859837 121.223589 
L 455.062194 120.134959 
L 455.264551 120.900366 
L 455.466908 124.150358 
L 455.669266 130.541774 
L 456.07398 154.876991 
L 456.883409 221.675856 
L 457.085766 226.741984 
L 457.288123 227.650196 
L 457.692838 216.035124 
L 458.097552 195.305254 
L 458.704624 150.342672 
L 459.514053 76.036981 
L 459.71641 67.285745 
L 459.918767 65.483753 
L 460.121124 71.381842 
L 460.525839 99.153633 
L 460.930553 142.296377 
L 461.537625 225.165666 
L 461.739982 232.960347 
L 461.942339 235.411335 
L 462.144696 235.297267 
L 462.347053 231.102625 
L 463.156482 202.103179 
L 464.370626 139.019985 
L 464.572983 136.599621 
L 464.77534 137.549046 
L 464.977697 142.444068 
L 465.382412 163.455074 
L 465.989483 200.81231 
L 466.394198 237.745156 
L 466.596555 246.427159 
L 466.798912 248.682649 
L 467.001269 247.419312 
L 467.405984 232.667122 
L 468.013055 202.772273 
L 469.429556 113.689435 
L 469.83427 104.10033 
L 470.036627 104.383736 
L 470.441342 110.602418 
L 470.643699 117.057552 
L 471.048413 147.542575 
L 471.655485 196.926933 
L 471.857842 204.573216 
L 472.060199 206.490227 
L 472.262557 205.324506 
L 472.464914 202.67611 
L 472.667271 197.216515 
L 473.274343 168.396225 
L 473.881414 123.176816 
L 474.488486 87.74249 
L 474.690843 85.318498 
L 474.8932 89.844623 
L 475.297915 111.914554 
L 475.702629 152.738944 
L 476.309701 226.599124 
L 476.714415 240.444203 
L 476.916772 241.266258 
L 477.11913 238.614111 
L 477.523844 225.46985 
L 478.53563 183.696579 
L 479.142702 153.045193 
L 479.345059 146.644669 
L 479.547416 144.793799 
L 479.749773 146.367963 
L 479.952131 149.515442 
L 480.356845 163.68953 
L 480.761559 186.731802 
L 481.368631 232.753052 
L 481.570988 240.373621 
L 481.773345 241.928952 
L 481.975703 239.353898 
L 482.380417 223.764476 
L 482.987489 185.14917 
L 483.59456 132.157165 
L 484.201632 79.206537 
L 484.403989 69.741629 
L 484.606346 66.509125 
L 484.808704 69.967538 
L 485.213418 92.464043 
L 485.618132 127.977537 
L 486.427561 219.232167 
L 486.629918 227.152204 
L 486.832276 227.17944 
L 487.23699 221.146334 
L 487.641704 207.601522 
L 488.248776 172.181584 
L 488.855848 134.680634 
L 489.260562 121.6291 
L 489.462919 122.03834 
L 489.867634 138.835776 
L 490.474705 186.232588 
L 491.284134 245.026751 
L 491.486491 248.484707 
L 491.688849 247.263119 
L 492.093563 235.229784 
L 492.902992 194.643959 
L 494.117135 131.294313 
L 494.319492 127.780292 
L 494.52185 126.333403 
L 494.724207 125.788909 
L 494.926564 126.910638 
L 495.128921 130.389898 
L 495.533636 147.497629 
L 496.343064 203.218151 
L 496.545422 208.036411 
L 496.747779 208.602578 
L 496.950136 205.172599 
L 497.35485 187.096283 
L 497.961922 150.816969 
L 499.176065 55.8 
L 499.378422 58.784301 
L 499.783137 85.57141 
L 500.187851 129.367969 
L 500.99728 230.499917 
L 501.199637 235.387032 
L 501.401995 236.963471 
L 501.604352 236.41414 
L 502.009066 225.390669 
L 502.413781 212.544381 
L 503.627924 161.839324 
L 503.830281 158.261657 
L 504.032638 157.874423 
L 504.234995 160.81296 
L 504.63971 173.669886 
L 505.246782 199.692036 
L 505.853853 247.631854 
L 506.05621 252.150281 
L 506.258568 252.879352 
L 506.460925 249.105142 
L 507.067996 221.24841 
L 507.877425 169.577626 
L 508.686854 116.410628 
L 509.091568 101.37193 
L 509.293926 98.087846 
L 509.496283 97.700744 
L 509.69864 97.758766 
L 509.900997 99.492993 
L 510.103354 104.797985 
L 510.710426 148.994998 
L 511.115141 181.314062 
L 511.317498 189.449385 
L 511.519855 191.736229 
L 511.722212 192.317851 
L 511.924569 191.446643 
L 512.126927 188.157623 
L 512.733998 169.232851 
L 513.543427 131.595517 
L 513.948141 118.299402 
L 514.150499 118.187338 
L 514.555213 130.163439 
L 514.75757 140.141888 
L 515.162285 177.621465 
L 515.566999 219.282266 
L 515.971714 241.136972 
L 516.174071 244.46291 
L 516.376428 244.438164 
L 516.578785 242.028444 
L 516.9835 232.706594 
L 517.590571 204.301535 
L 517.995286 189.748097 
L 518.4 169.492577 
L 518.4 169.492577 
" clip-path="url(#pde56e21658)" style="fill: none; stroke: #2ca02c; stroke-width: 1.5; stroke-linecap: square"/>
   </g>
   <g id="patch_3">
    <path d="M 72 320.4 
L 72 43.2 
" style="fill: none; stroke: #000000; stroke-width: 0.8; stroke-linejoin: miter; stroke-linecap: square"/>
   </g>
   <g id="patch_4">
    <path d="M 518.4 320.4 
L 518.4 43.2 
" style="fill: none; stroke: #000000; stroke-width: 0.8; stroke-linejoin: miter; stroke-linecap: square"/>
   </g>
   <g id="patch_5">
    <path d="M 72 320.4 
L 518.4 320.4 
" style="fill: none; stroke: #000000; stroke-width: 0.8; stroke-linejoin: miter; stroke-linecap: square"/>
   </g>
   <g id="patch_6">
    <path d="M 72 43.2 
L 518.4 43.2 
" style="fill: none; stroke: #000000; stroke-width: 0.8; stroke-linejoin: miter; stroke-linecap: square"/>
   </g>
   <g id="text_13">
    <!-- Classic Transformer - model_20231126173607 -->
    <g transform="translate(155.436563 37.2) scale(0.12 -0.12)">
     <defs>
      <path id="DejaVuSans-43" d="M 4122 4306 
L 4122 3641 
Q 3803 3938 3442 4084 
Q 3081 4231 2675 4231 
Q 1875 4231 1450 3742 
Q 1025 3253 1025 2328 
Q 1025 1406 1450 917 
Q 1875 428 2675 428 
Q 3081 428 3442 575 
Q 3803 722 4122 1019 
L 4122 359 
Q 3791 134 3420 21 
Q 3050 -91 2638 -91 
Q 1578 -91 968 557 
Q 359 1206 359 2328 
Q 359 3453 968 4101 
Q 1578 4750 2638 4750 
Q 3056 4750 3426 4639 
Q 3797 4528 4122 4306 
z
" transform="scale(0.015625)"/>
      <path id="DejaVuSans-6c" d="M 603 4863 
L 1178 4863 
L 1178 0 
L 603 0 
L 603 4863 
z
" transform="scale(0.015625)"/>
      <path id="DejaVuSans-61" d="M 2194 1759 
Q 1497 1759 1228 1600 
Q 959 1441 959 1056 
Q 959 750 1161 570 
Q 1363 391 1709 391 
Q 2188 391 2477 730 
Q 2766 1069 2766 1631 
L 2766 1759 
L 2194 1759 
z
M 3341 1997 
L 3341 0 
L 2766 0 
L 2766 531 
Q 2569 213 2275 61 
Q 1981 -91 1556 -91 
Q 1019 -91 701 211 
Q 384 513 384 1019 
Q 384 1609 779 1909 
Q 1175 2209 1959 2209 
L 2766 2209 
L 2766 2266 
Q 2766 2663 2505 2880 
Q 2244 3097 1772 3097 
Q 1472 3097 1187 3025 
Q 903 2953 641 2809 
L 641 3341 
Q 956 3463 1253 3523 
Q 1550 3584 1831 3584 
Q 2591 3584 2966 3190 
Q 3341 2797 3341 1997 
z
" transform="scale(0.015625)"/>
      <path id="DejaVuSans-73" d="M 2834 3397 
L 2834 2853 
Q 2591 2978 2328 3040 
Q 2066 3103 1784 3103 
Q 1356 3103 1142 2972 
Q 928 2841 928 2578 
Q 928 2378 1081 2264 
Q 1234 2150 1697 2047 
L 1894 2003 
Q 2506 1872 2764 1633 
Q 3022 1394 3022 966 
Q 3022 478 2636 193 
Q 2250 -91 1575 -91 
Q 1294 -91 989 -36 
Q 684 19 347 128 
L 347 722 
Q 666 556 975 473 
Q 1284 391 1588 391 
Q 1994 391 2212 530 
Q 2431 669 2431 922 
Q 2431 1156 2273 1281 
Q 2116 1406 1581 1522 
L 1381 1569 
Q 847 1681 609 1914 
Q 372 2147 372 2553 
Q 372 3047 722 3315 
Q 1072 3584 1716 3584 
Q 2034 3584 2315 3537 
Q 2597 3491 2834 3397 
z
" transform="scale(0.015625)"/>
      <path id="DejaVuSans-69" d="M 603 3500 
L 1178 3500 
L 1178 0 
L 603 0 
L 603 3500 
z
M 603 4863 
L 1178 4863 
L 1178 4134 
L 603 4134 
L 603 4863 
z
" transform="scale(0.015625)"/>
      <path id="DejaVuSans-63" d="M 3122 3366 
L 3122 2828 
Q 2878 2963 2633 3030 
Q 2388 3097 2138 3097 
Q 1578 3097 1268 2742 
Q 959 2388 959 1747 
Q 959 1106 1268 751 
Q 1578 397 2138 397 
Q 2388 397 2633 464 
Q 2878 531 3122 666 
L 3122 134 
Q 2881 22 2623 -34 
Q 2366 -91 2075 -91 
Q 1284 -91 818 406 
Q 353 903 353 1747 
Q 353 2603 823 3093 
Q 1294 3584 2113 3584 
Q 2378 3584 2631 3529 
Q 2884 3475 3122 3366 
z
" transform="scale(0.015625)"/>
      <path id="DejaVuSans-20" transform="scale(0.015625)"/>
      <path id="DejaVuSans-54" d="M -19 4666 
L 3928 4666 
L 3928 4134 
L 2272 4134 
L 2272 0 
L 1638 0 
L 1638 4134 
L -19 4134 
L -19 4666 
z
" transform="scale(0.015625)"/>
      <path id="DejaVuSans-72" d="M 2631 2963 
Q 2534 3019 2420 3045 
Q 2306 3072 2169 3072 
Q 1681 3072 1420 2755 
Q 1159 2438 1159 1844 
L 1159 0 
L 581 0 
L 581 3500 
L 1159 3500 
L 1159 2956 
Q 1341 3275 1631 3429 
Q 1922 3584 2338 3584 
Q 2397 3584 2469 3576 
Q 2541 3569 2628 3553 
L 2631 2963 
z
" transform="scale(0.015625)"/>
      <path id="DejaVuSans-6e" d="M 3513 2113 
L 3513 0 
L 2938 0 
L 2938 2094 
Q 2938 2591 2744 2837 
Q 2550 3084 2163 3084 
Q 1697 3084 1428 2787 
Q 1159 2491 1159 1978 
L 1159 0 
L 581 0 
L 581 3500 
L 1159 3500 
L 1159 2956 
Q 1366 3272 1645 3428 
Q 1925 3584 2291 3584 
Q 2894 3584 3203 3211 
Q 3513 2838 3513 2113 
z
" transform="scale(0.015625)"/>
      <path id="DejaVuSans-66" d="M 2375 4863 
L 2375 4384 
L 1825 4384 
Q 1516 4384 1395 4259 
Q 1275 4134 1275 3809 
L 1275 3500 
L 2222 3500 
L 2222 3053 
L 1275 3053 
L 1275 0 
L 697 0 
L 697 3053 
L 147 3053 
L 147 3500 
L 697 3500 
L 697 3744 
Q 697 4328 969 4595 
Q 1241 4863 1831 4863 
L 2375 4863 
z
" transform="scale(0.015625)"/>
      <path id="DejaVuSans-6f" d="M 1959 3097 
Q 1497 3097 1228 2736 
Q 959 2375 959 1747 
Q 959 1119 1226 758 
Q 1494 397 1959 397 
Q 2419 397 2687 759 
Q 2956 1122 2956 1747 
Q 2956 2369 2687 2733 
Q 2419 3097 1959 3097 
z
M 1959 3584 
Q 2709 3584 3137 3096 
Q 3566 2609 3566 1747 
Q 3566 888 3137 398 
Q 2709 -91 1959 -91 
Q 1206 -91 779 398 
Q 353 888 353 1747 
Q 353 2609 779 3096 
Q 1206 3584 1959 3584 
z
" transform="scale(0.015625)"/>
      <path id="DejaVuSans-6d" d="M 3328 2828 
Q 3544 3216 3844 3400 
Q 4144 3584 4550 3584 
Q 5097 3584 5394 3201 
Q 5691 2819 5691 2113 
L 5691 0 
L 5113 0 
L 5113 2094 
Q 5113 2597 4934 2840 
Q 4756 3084 4391 3084 
Q 3944 3084 3684 2787 
Q 3425 2491 3425 1978 
L 3425 0 
L 2847 0 
L 2847 2094 
Q 2847 2600 2669 2842 
Q 2491 3084 2119 3084 
Q 1678 3084 1418 2786 
Q 1159 2488 1159 1978 
L 1159 0 
L 581 0 
L 581 3500 
L 1159 3500 
L 1159 2956 
Q 1356 3278 1631 3431 
Q 1906 3584 2284 3584 
Q 2666 3584 2933 3390 
Q 3200 3197 3328 2828 
z
" transform="scale(0.015625)"/>
      <path id="DejaVuSans-65" d="M 3597 1894 
L 3597 1613 
L 953 1613 
Q 991 1019 1311 708 
Q 1631 397 2203 397 
Q 2534 397 2845 478 
Q 3156 559 3463 722 
L 3463 178 
Q 3153 47 2828 -22 
Q 2503 -91 2169 -91 
Q 1331 -91 842 396 
Q 353 884 353 1716 
Q 353 2575 817 3079 
Q 1281 3584 2069 3584 
Q 2775 3584 3186 3129 
Q 3597 2675 3597 1894 
z
M 3022 2063 
Q 3016 2534 2758 2815 
Q 2500 3097 2075 3097 
Q 1594 3097 1305 2825 
Q 1016 2553 972 2059 
L 3022 2063 
z
" transform="scale(0.015625)"/>
      <path id="DejaVuSans-64" d="M 2906 2969 
L 2906 4863 
L 3481 4863 
L 3481 0 
L 2906 0 
L 2906 525 
Q 2725 213 2448 61 
Q 2172 -91 1784 -91 
Q 1150 -91 751 415 
Q 353 922 353 1747 
Q 353 2572 751 3078 
Q 1150 3584 1784 3584 
Q 2172 3584 2448 3432 
Q 2725 3281 2906 2969 
z
M 947 1747 
Q 947 1113 1208 752 
Q 1469 391 1925 391 
Q 2381 391 2643 752 
Q 2906 1113 2906 1747 
Q 2906 2381 2643 2742 
Q 2381 3103 1925 3103 
Q 1469 3103 1208 2742 
Q 947 2381 947 1747 
z
" transform="scale(0.015625)"/>
      <path id="DejaVuSans-5f" d="M 3263 -1063 
L 3263 -1509 
L -63 -1509 
L -63 -1063 
L 3263 -1063 
z
" transform="scale(0.015625)"/>
     </defs>
     <use xlink:href="#DejaVuSans-43"/>
     <use xlink:href="#DejaVuSans-6c" x="69.824219"/>
     <use xlink:href="#DejaVuSans-61" x="97.607422"/>
     <use xlink:href="#DejaVuSans-73" x="158.886719"/>
     <use xlink:href="#DejaVuSans-73" x="210.986328"/>
     <use xlink:href="#DejaVuSans-69" x="263.085938"/>
     <use xlink:href="#DejaVuSans-63" x="290.869141"/>
     <use xlink:href="#DejaVuSans-20" x="345.849609"/>
     <use xlink:href="#DejaVuSans-54" x="377.636719"/>
     <use xlink:href="#DejaVuSans-72" x="423.970703"/>
     <use xlink:href="#DejaVuSans-61" x="465.083984"/>
     <use xlink:href="#DejaVuSans-6e" x="526.363281"/>
     <use xlink:href="#DejaVuSans-73" x="589.742188"/>
     <use xlink:href="#DejaVuSans-66" x="641.841797"/>
     <use xlink:href="#DejaVuSans-6f" x="677.046875"/>
     <use xlink:href="#DejaVuSans-72" x="738.228516"/>
     <use xlink:href="#DejaVuSans-6d" x="777.591797"/>
     <use xlink:href="#DejaVuSans-65" x="875.003906"/>
     <use xlink:href="#DejaVuSans-72" x="936.527344"/>
     <use xlink:href="#DejaVuSans-20" x="977.640625"/>
     <use xlink:href="#DejaVuSans-2d" x="1009.427734"/>
     <use xlink:href="#DejaVuSans-20" x="1045.511719"/>
     <use xlink:href="#DejaVuSans-6d" x="1077.298828"/>
     <use xlink:href="#DejaVuSans-6f" x="1174.710938"/>
     <use xlink:href="#DejaVuSans-64" x="1235.892578"/>
     <use xlink:href="#DejaVuSans-65" x="1299.369141"/>
     <use xlink:href="#DejaVuSans-6c" x="1360.892578"/>
     <use xlink:href="#DejaVuSans-5f" x="1388.675781"/>
     <use xlink:href="#DejaVuSans-32" x="1438.675781"/>
     <use xlink:href="#DejaVuSans-30" x="1502.298828"/>
     <use xlink:href="#DejaVuSans-32" x="1565.921875"/>
     <use xlink:href="#DejaVuSans-33" x="1629.544922"/>
     <use xlink:href="#DejaVuSans-31" x="1693.167969"/>
     <use xlink:href="#DejaVuSans-31" x="1756.791016"/>
     <use xlink:href="#DejaVuSans-32" x="1820.414062"/>
     <use xlink:href="#DejaVuSans-36" x="1884.037109"/>
     <use xlink:href="#DejaVuSans-31" x="1947.660156"/>
     <use xlink:href="#DejaVuSans-37" x="2011.283203"/>
     <use xlink:href="#DejaVuSans-33" x="2074.90625"/>
     <use xlink:href="#DejaVuSans-36" x="2138.529297"/>
     <use xlink:href="#DejaVuSans-30" x="2202.152344"/>
     <use xlink:href="#DejaVuSans-37" x="2265.775391"/>
    </g>
   </g>
   <g id="legend_1">
    <g id="patch_7">
     <path d="M 79 95.234375 
L 161.517188 95.234375 
Q 163.517188 95.234375 163.517188 93.234375 
L 163.517188 50.2 
Q 163.517188 48.2 161.517188 48.2 
L 79 48.2 
Q 77 48.2 77 50.2 
L 77 93.234375 
Q 77 95.234375 79 95.234375 
z
" style="fill: #ffffff; opacity: 0.8; stroke: #cccccc; stroke-linejoin: miter"/>
    </g>
    <g id="line2d_16">
     <path d="M 81 56.298437 
L 91 56.298437 
L 101 56.298437 
" style="fill: none; stroke: #1f77b4; stroke-width: 1.5; stroke-linecap: square"/>
    </g>
    <g id="text_14">
     <!-- Measured -->
     <g transform="translate(109 59.798437) scale(0.1 -0.1)">
      <defs>
       <path id="DejaVuSans-4d" d="M 628 4666 
L 1569 4666 
L 2759 1491 
L 3956 4666 
L 4897 4666 
L 4897 0 
L 4281 0 
L 4281 4097 
L 3078 897 
L 2444 897 
L 1241 4097 
L 1241 0 
L 628 0 
L 628 4666 
z
" transform="scale(0.015625)"/>
       <path id="DejaVuSans-75" d="M 544 1381 
L 544 3500 
L 1119 3500 
L 1119 1403 
Q 1119 906 1312 657 
Q 1506 409 1894 409 
Q 2359 409 2629 706 
Q 2900 1003 2900 1516 
L 2900 3500 
L 3475 3500 
L 3475 0 
L 2900 0 
L 2900 538 
Q 2691 219 2414 64 
Q 2138 -91 1772 -91 
Q 1169 -91 856 284 
Q 544 659 544 1381 
z
M 1991 3584 
L 1991 3584 
z
" transform="scale(0.015625)"/>
      </defs>
      <use xlink:href="#DejaVuSans-4d"/>
      <use xlink:href="#DejaVuSans-65" x="86.279297"/>
      <use xlink:href="#DejaVuSans-61" x="147.802734"/>
      <use xlink:href="#DejaVuSans-73" x="209.082031"/>
      <use xlink:href="#DejaVuSans-75" x="261.181641"/>
      <use xlink:href="#DejaVuSans-72" x="324.560547"/>
      <use xlink:href="#DejaVuSans-65" x="363.423828"/>
      <use xlink:href="#DejaVuSans-64" x="424.947266"/>
     </g>
    </g>
    <g id="line2d_17">
     <path d="M 81 70.976562 
L 91 70.976562 
L 101 70.976562 
" style="fill: none; stroke: #ff7f0e; stroke-width: 1.5; stroke-linecap: square"/>
    </g>
    <g id="text_15">
     <!-- Fitted -->
     <g transform="translate(109 74.476562) scale(0.1 -0.1)">
      <defs>
       <path id="DejaVuSans-46" d="M 628 4666 
L 3309 4666 
L 3309 4134 
L 1259 4134 
L 1259 2759 
L 3109 2759 
L 3109 2228 
L 1259 2228 
L 1259 0 
L 628 0 
L 628 4666 
z
" transform="scale(0.015625)"/>
       <path id="DejaVuSans-74" d="M 1172 4494 
L 1172 3500 
L 2356 3500 
L 2356 3053 
L 1172 3053 
L 1172 1153 
Q 1172 725 1289 603 
Q 1406 481 1766 481 
L 2356 481 
L 2356 0 
L 1766 0 
Q 1100 0 847 248 
Q 594 497 594 1153 
L 594 3053 
L 172 3053 
L 172 3500 
L 594 3500 
L 594 4494 
L 1172 4494 
z
" transform="scale(0.015625)"/>
      </defs>
      <use xlink:href="#DejaVuSans-46"/>
      <use xlink:href="#DejaVuSans-69" x="50.269531"/>
      <use xlink:href="#DejaVuSans-74" x="78.052734"/>
      <use xlink:href="#DejaVuSans-74" x="117.261719"/>
      <use xlink:href="#DejaVuSans-65" x="156.470703"/>
      <use xlink:href="#DejaVuSans-64" x="217.994141"/>
     </g>
    </g>
    <g id="line2d_18">
     <path d="M 81 85.654687 
L 91 85.654687 
L 101 85.654687 
" style="fill: none; stroke: #2ca02c; stroke-width: 1.5; stroke-linecap: square"/>
    </g>
    <g id="text_16">
     <!-- Estimated -->
     <g transform="translate(109 89.154687) scale(0.1 -0.1)">
      <defs>
       <path id="DejaVuSans-45" d="M 628 4666 
L 3578 4666 
L 3578 4134 
L 1259 4134 
L 1259 2753 
L 3481 2753 
L 3481 2222 
L 1259 2222 
L 1259 531 
L 3634 531 
L 3634 0 
L 628 0 
L 628 4666 
z
" transform="scale(0.015625)"/>
      </defs>
      <use xlink:href="#DejaVuSans-45"/>
      <use xlink:href="#DejaVuSans-73" x="63.183594"/>
      <use xlink:href="#DejaVuSans-74" x="115.283203"/>
      <use xlink:href="#DejaVuSans-69" x="154.492188"/>
      <use xlink:href="#DejaVuSans-6d" x="182.275391"/>
      <use xlink:href="#DejaVuSans-61" x="279.6875"/>
      <use xlink:href="#DejaVuSans-74" x="340.966797"/>
      <use xlink:href="#DejaVuSans-65" x="380.175781"/>
      <use xlink:href="#DejaVuSans-64" x="441.699219"/>
     </g>
    </g>
   </g>
  </g>
 </g>
 <defs>
  <clipPath id="pde56e21658">
   <rect x="72" y="43.2" width="446.4" height="277.2"/>
  </clipPath>
 </defs>
</svg>
