<?xml version="1.0" encoding="utf-8" standalone="no"?>
<!DOCTYPE svg PUBLIC "-//W3C//DTD SVG 1.1//EN"
  "http://www.w3.org/Graphics/SVG/1.1/DTD/svg11.dtd">
<svg xmlns:xlink="http://www.w3.org/1999/xlink" width="576pt" height="360pt" viewBox="0 0 576 360" xmlns="http://www.w3.org/2000/svg" version="1.1">
 <metadata>
  <rdf:RDF xmlns:dc="http://purl.org/dc/elements/1.1/" xmlns:cc="http://creativecommons.org/ns#" xmlns:rdf="http://www.w3.org/1999/02/22-rdf-syntax-ns#">
   <cc:Work>
    <dc:type rdf:resource="http://purl.org/dc/dcmitype/StillImage"/>
    <dc:date>2023-11-23T16:31:05.179165</dc:date>
    <dc:format>image/svg+xml</dc:format>
    <dc:creator>
     <cc:Agent>
      <dc:title>Matplotlib v3.8.1, https://matplotlib.org/</dc:title>
     </cc:Agent>
    </dc:creator>
   </cc:Work>
  </rdf:RDF>
 </metadata>
 <defs>
  <style type="text/css">*{stroke-linejoin: round; stroke-linecap: butt}</style>
 </defs>
 <g id="figure_1">
  <g id="patch_1">
   <path d="M 0 360 
L 576 360 
L 576 0 
L 0 0 
z
" style="fill: #ffffff"/>
  </g>
  <g id="axes_1">
   <g id="patch_2">
    <path d="M 72 320.4 
L 518.4 320.4 
L 518.4 43.2 
L 72 43.2 
z
" style="fill: #ffffff"/>
   </g>
   <g id="matplotlib.axis_1">
    <g id="xtick_1">
     <g id="line2d_1">
      <defs>
       <path id="mf08a8f547b" d="M 0 0 
L 0 3.5 
" style="stroke: #000000; stroke-width: 0.8"/>
      </defs>
      <g>
       <use xlink:href="#mf08a8f547b" x="129.874161" y="320.4" style="stroke: #000000; stroke-width: 0.8"/>
      </g>
     </g>
     <g id="text_1">
      <!-- 2020-05-15 -->
      <g transform="translate(100.816349 334.998438) scale(0.1 -0.1)">
       <defs>
        <path id="DejaVuSans-32" d="M 1228 531 
L 3431 531 
L 3431 0 
L 469 0 
L 469 531 
Q 828 903 1448 1529 
Q 2069 2156 2228 2338 
Q 2531 2678 2651 2914 
Q 2772 3150 2772 3378 
Q 2772 3750 2511 3984 
Q 2250 4219 1831 4219 
Q 1534 4219 1204 4116 
Q 875 4013 500 3803 
L 500 4441 
Q 881 4594 1212 4672 
Q 1544 4750 1819 4750 
Q 2544 4750 2975 4387 
Q 3406 4025 3406 3419 
Q 3406 3131 3298 2873 
Q 3191 2616 2906 2266 
Q 2828 2175 2409 1742 
Q 1991 1309 1228 531 
z
" transform="scale(0.015625)"/>
        <path id="DejaVuSans-30" d="M 2034 4250 
Q 1547 4250 1301 3770 
Q 1056 3291 1056 2328 
Q 1056 1369 1301 889 
Q 1547 409 2034 409 
Q 2525 409 2770 889 
Q 3016 1369 3016 2328 
Q 3016 3291 2770 3770 
Q 2525 4250 2034 4250 
z
M 2034 4750 
Q 2819 4750 3233 4129 
Q 3647 3509 3647 2328 
Q 3647 1150 3233 529 
Q 2819 -91 2034 -91 
Q 1250 -91 836 529 
Q 422 1150 422 2328 
Q 422 3509 836 4129 
Q 1250 4750 2034 4750 
z
" transform="scale(0.015625)"/>
        <path id="DejaVuSans-2d" d="M 313 2009 
L 1997 2009 
L 1997 1497 
L 313 1497 
L 313 2009 
z
" transform="scale(0.015625)"/>
        <path id="DejaVuSans-35" d="M 691 4666 
L 3169 4666 
L 3169 4134 
L 1269 4134 
L 1269 2991 
Q 1406 3038 1543 3061 
Q 1681 3084 1819 3084 
Q 2600 3084 3056 2656 
Q 3513 2228 3513 1497 
Q 3513 744 3044 326 
Q 2575 -91 1722 -91 
Q 1428 -91 1123 -41 
Q 819 9 494 109 
L 494 744 
Q 775 591 1075 516 
Q 1375 441 1709 441 
Q 2250 441 2565 725 
Q 2881 1009 2881 1497 
Q 2881 1984 2565 2268 
Q 2250 2553 1709 2553 
Q 1456 2553 1204 2497 
Q 953 2441 691 2322 
L 691 4666 
z
" transform="scale(0.015625)"/>
        <path id="DejaVuSans-31" d="M 794 531 
L 1825 531 
L 1825 4091 
L 703 3866 
L 703 4441 
L 1819 4666 
L 2450 4666 
L 2450 531 
L 3481 531 
L 3481 0 
L 794 0 
L 794 531 
z
" transform="scale(0.015625)"/>
       </defs>
       <use xlink:href="#DejaVuSans-32"/>
       <use xlink:href="#DejaVuSans-30" x="63.623047"/>
       <use xlink:href="#DejaVuSans-32" x="127.246094"/>
       <use xlink:href="#DejaVuSans-30" x="190.869141"/>
       <use xlink:href="#DejaVuSans-2d" x="254.492188"/>
       <use xlink:href="#DejaVuSans-30" x="290.576172"/>
       <use xlink:href="#DejaVuSans-35" x="354.199219"/>
       <use xlink:href="#DejaVuSans-2d" x="417.822266"/>
       <use xlink:href="#DejaVuSans-31" x="453.90625"/>
       <use xlink:href="#DejaVuSans-35" x="517.529297"/>
      </g>
     </g>
    </g>
    <g id="xtick_2">
     <g id="line2d_2">
      <g>
       <use xlink:href="#mf08a8f547b" x="212.435902" y="320.4" style="stroke: #000000; stroke-width: 0.8"/>
      </g>
     </g>
     <g id="text_2">
      <!-- 2020-06-01 -->
      <g transform="translate(183.37809 334.998438) scale(0.1 -0.1)">
       <defs>
        <path id="DejaVuSans-36" d="M 2113 2584 
Q 1688 2584 1439 2293 
Q 1191 2003 1191 1497 
Q 1191 994 1439 701 
Q 1688 409 2113 409 
Q 2538 409 2786 701 
Q 3034 994 3034 1497 
Q 3034 2003 2786 2293 
Q 2538 2584 2113 2584 
z
M 3366 4563 
L 3366 3988 
Q 3128 4100 2886 4159 
Q 2644 4219 2406 4219 
Q 1781 4219 1451 3797 
Q 1122 3375 1075 2522 
Q 1259 2794 1537 2939 
Q 1816 3084 2150 3084 
Q 2853 3084 3261 2657 
Q 3669 2231 3669 1497 
Q 3669 778 3244 343 
Q 2819 -91 2113 -91 
Q 1303 -91 875 529 
Q 447 1150 447 2328 
Q 447 3434 972 4092 
Q 1497 4750 2381 4750 
Q 2619 4750 2861 4703 
Q 3103 4656 3366 4563 
z
" transform="scale(0.015625)"/>
       </defs>
       <use xlink:href="#DejaVuSans-32"/>
       <use xlink:href="#DejaVuSans-30" x="63.623047"/>
       <use xlink:href="#DejaVuSans-32" x="127.246094"/>
       <use xlink:href="#DejaVuSans-30" x="190.869141"/>
       <use xlink:href="#DejaVuSans-2d" x="254.492188"/>
       <use xlink:href="#DejaVuSans-30" x="290.576172"/>
       <use xlink:href="#DejaVuSans-36" x="354.199219"/>
       <use xlink:href="#DejaVuSans-2d" x="417.822266"/>
       <use xlink:href="#DejaVuSans-30" x="453.90625"/>
       <use xlink:href="#DejaVuSans-31" x="517.529297"/>
      </g>
     </g>
    </g>
    <g id="xtick_3">
     <g id="line2d_3">
      <g>
       <use xlink:href="#mf08a8f547b" x="280.427924" y="320.4" style="stroke: #000000; stroke-width: 0.8"/>
      </g>
     </g>
     <g id="text_3">
      <!-- 2020-06-15 -->
      <g transform="translate(251.370111 334.998438) scale(0.1 -0.1)">
       <use xlink:href="#DejaVuSans-32"/>
       <use xlink:href="#DejaVuSans-30" x="63.623047"/>
       <use xlink:href="#DejaVuSans-32" x="127.246094"/>
       <use xlink:href="#DejaVuSans-30" x="190.869141"/>
       <use xlink:href="#DejaVuSans-2d" x="254.492188"/>
       <use xlink:href="#DejaVuSans-30" x="290.576172"/>
       <use xlink:href="#DejaVuSans-36" x="354.199219"/>
       <use xlink:href="#DejaVuSans-2d" x="417.822266"/>
       <use xlink:href="#DejaVuSans-31" x="453.90625"/>
       <use xlink:href="#DejaVuSans-35" x="517.529297"/>
      </g>
     </g>
    </g>
    <g id="xtick_4">
     <g id="line2d_4">
      <g>
       <use xlink:href="#mf08a8f547b" x="358.133092" y="320.4" style="stroke: #000000; stroke-width: 0.8"/>
      </g>
     </g>
     <g id="text_4">
      <!-- 2020-07-01 -->
      <g transform="translate(329.075279 334.998438) scale(0.1 -0.1)">
       <defs>
        <path id="DejaVuSans-37" d="M 525 4666 
L 3525 4666 
L 3525 4397 
L 1831 0 
L 1172 0 
L 2766 4134 
L 525 4134 
L 525 4666 
z
" transform="scale(0.015625)"/>
       </defs>
       <use xlink:href="#DejaVuSans-32"/>
       <use xlink:href="#DejaVuSans-30" x="63.623047"/>
       <use xlink:href="#DejaVuSans-32" x="127.246094"/>
       <use xlink:href="#DejaVuSans-30" x="190.869141"/>
       <use xlink:href="#DejaVuSans-2d" x="254.492188"/>
       <use xlink:href="#DejaVuSans-30" x="290.576172"/>
       <use xlink:href="#DejaVuSans-37" x="354.199219"/>
       <use xlink:href="#DejaVuSans-2d" x="417.822266"/>
       <use xlink:href="#DejaVuSans-30" x="453.90625"/>
       <use xlink:href="#DejaVuSans-31" x="517.529297"/>
      </g>
     </g>
    </g>
    <g id="xtick_5">
     <g id="line2d_5">
      <g>
       <use xlink:href="#mf08a8f547b" x="426.125113" y="320.4" style="stroke: #000000; stroke-width: 0.8"/>
      </g>
     </g>
     <g id="text_5">
      <!-- 2020-07-15 -->
      <g transform="translate(397.067301 334.998438) scale(0.1 -0.1)">
       <use xlink:href="#DejaVuSans-32"/>
       <use xlink:href="#DejaVuSans-30" x="63.623047"/>
       <use xlink:href="#DejaVuSans-32" x="127.246094"/>
       <use xlink:href="#DejaVuSans-30" x="190.869141"/>
       <use xlink:href="#DejaVuSans-2d" x="254.492188"/>
       <use xlink:href="#DejaVuSans-30" x="290.576172"/>
       <use xlink:href="#DejaVuSans-37" x="354.199219"/>
       <use xlink:href="#DejaVuSans-2d" x="417.822266"/>
       <use xlink:href="#DejaVuSans-31" x="453.90625"/>
       <use xlink:href="#DejaVuSans-35" x="517.529297"/>
      </g>
     </g>
    </g>
    <g id="xtick_6">
     <g id="line2d_6">
      <g>
       <use xlink:href="#mf08a8f547b" x="508.686854" y="320.4" style="stroke: #000000; stroke-width: 0.8"/>
      </g>
     </g>
     <g id="text_6">
      <!-- 2020-08-01 -->
      <g transform="translate(479.629042 334.998438) scale(0.1 -0.1)">
       <defs>
        <path id="DejaVuSans-38" d="M 2034 2216 
Q 1584 2216 1326 1975 
Q 1069 1734 1069 1313 
Q 1069 891 1326 650 
Q 1584 409 2034 409 
Q 2484 409 2743 651 
Q 3003 894 3003 1313 
Q 3003 1734 2745 1975 
Q 2488 2216 2034 2216 
z
M 1403 2484 
Q 997 2584 770 2862 
Q 544 3141 544 3541 
Q 544 4100 942 4425 
Q 1341 4750 2034 4750 
Q 2731 4750 3128 4425 
Q 3525 4100 3525 3541 
Q 3525 3141 3298 2862 
Q 3072 2584 2669 2484 
Q 3125 2378 3379 2068 
Q 3634 1759 3634 1313 
Q 3634 634 3220 271 
Q 2806 -91 2034 -91 
Q 1263 -91 848 271 
Q 434 634 434 1313 
Q 434 1759 690 2068 
Q 947 2378 1403 2484 
z
M 1172 3481 
Q 1172 3119 1398 2916 
Q 1625 2713 2034 2713 
Q 2441 2713 2670 2916 
Q 2900 3119 2900 3481 
Q 2900 3844 2670 4047 
Q 2441 4250 2034 4250 
Q 1625 4250 1398 4047 
Q 1172 3844 1172 3481 
z
" transform="scale(0.015625)"/>
       </defs>
       <use xlink:href="#DejaVuSans-32"/>
       <use xlink:href="#DejaVuSans-30" x="63.623047"/>
       <use xlink:href="#DejaVuSans-32" x="127.246094"/>
       <use xlink:href="#DejaVuSans-30" x="190.869141"/>
       <use xlink:href="#DejaVuSans-2d" x="254.492188"/>
       <use xlink:href="#DejaVuSans-30" x="290.576172"/>
       <use xlink:href="#DejaVuSans-38" x="354.199219"/>
       <use xlink:href="#DejaVuSans-2d" x="417.822266"/>
       <use xlink:href="#DejaVuSans-30" x="453.90625"/>
       <use xlink:href="#DejaVuSans-31" x="517.529297"/>
      </g>
     </g>
    </g>
   </g>
   <g id="matplotlib.axis_2">
    <g id="ytick_1">
     <g id="line2d_7">
      <defs>
       <path id="mcf78c66e48" d="M 0 0 
L -3.5 0 
" style="stroke: #000000; stroke-width: 0.8"/>
      </defs>
      <g>
       <use xlink:href="#mcf78c66e48" x="72" y="308.212666" style="stroke: #000000; stroke-width: 0.8"/>
      </g>
     </g>
     <g id="text_7">
      <!-- −2 -->
      <g transform="translate(50.257812 312.011884) scale(0.1 -0.1)">
       <defs>
        <path id="DejaVuSans-2212" d="M 678 2272 
L 4684 2272 
L 4684 1741 
L 678 1741 
L 678 2272 
z
" transform="scale(0.015625)"/>
       </defs>
       <use xlink:href="#DejaVuSans-2212"/>
       <use xlink:href="#DejaVuSans-32" x="83.789062"/>
      </g>
     </g>
    </g>
    <g id="ytick_2">
     <g id="line2d_8">
      <g>
       <use xlink:href="#mcf78c66e48" x="72" y="256.581099" style="stroke: #000000; stroke-width: 0.8"/>
      </g>
     </g>
     <g id="text_8">
      <!-- −1 -->
      <g transform="translate(50.257812 260.380318) scale(0.1 -0.1)">
       <use xlink:href="#DejaVuSans-2212"/>
       <use xlink:href="#DejaVuSans-31" x="83.789062"/>
      </g>
     </g>
    </g>
    <g id="ytick_3">
     <g id="line2d_9">
      <g>
       <use xlink:href="#mcf78c66e48" x="72" y="204.949533" style="stroke: #000000; stroke-width: 0.8"/>
      </g>
     </g>
     <g id="text_9">
      <!-- 0 -->
      <g transform="translate(58.6375 208.748752) scale(0.1 -0.1)">
       <use xlink:href="#DejaVuSans-30"/>
      </g>
     </g>
    </g>
    <g id="ytick_4">
     <g id="line2d_10">
      <g>
       <use xlink:href="#mcf78c66e48" x="72" y="153.317967" style="stroke: #000000; stroke-width: 0.8"/>
      </g>
     </g>
     <g id="text_10">
      <!-- 1 -->
      <g transform="translate(58.6375 157.117186) scale(0.1 -0.1)">
       <use xlink:href="#DejaVuSans-31"/>
      </g>
     </g>
    </g>
    <g id="ytick_5">
     <g id="line2d_11">
      <g>
       <use xlink:href="#mcf78c66e48" x="72" y="101.686401" style="stroke: #000000; stroke-width: 0.8"/>
      </g>
     </g>
     <g id="text_11">
      <!-- 2 -->
      <g transform="translate(58.6375 105.48562) scale(0.1 -0.1)">
       <use xlink:href="#DejaVuSans-32"/>
      </g>
     </g>
    </g>
    <g id="ytick_6">
     <g id="line2d_12">
      <g>
       <use xlink:href="#mcf78c66e48" x="72" y="50.054835" style="stroke: #000000; stroke-width: 0.8"/>
      </g>
     </g>
     <g id="text_12">
      <!-- 3 -->
      <g transform="translate(58.6375 53.854054) scale(0.1 -0.1)">
       <defs>
        <path id="DejaVuSans-33" d="M 2597 2516 
Q 3050 2419 3304 2112 
Q 3559 1806 3559 1356 
Q 3559 666 3084 287 
Q 2609 -91 1734 -91 
Q 1441 -91 1130 -33 
Q 819 25 488 141 
L 488 750 
Q 750 597 1062 519 
Q 1375 441 1716 441 
Q 2309 441 2620 675 
Q 2931 909 2931 1356 
Q 2931 1769 2642 2001 
Q 2353 2234 1838 2234 
L 1294 2234 
L 1294 2753 
L 1863 2753 
Q 2328 2753 2575 2939 
Q 2822 3125 2822 3475 
Q 2822 3834 2567 4026 
Q 2313 4219 1838 4219 
Q 1578 4219 1281 4162 
Q 984 4106 628 3988 
L 628 4550 
Q 988 4650 1302 4700 
Q 1616 4750 1894 4750 
Q 2613 4750 3031 4423 
Q 3450 4097 3450 3541 
Q 3450 3153 3228 2886 
Q 3006 2619 2597 2516 
z
" transform="scale(0.015625)"/>
       </defs>
       <use xlink:href="#DejaVuSans-33"/>
      </g>
     </g>
    </g>
   </g>
   <g id="line2d_13">
    <path d="M 72 280.355198 
L 72.404714 291.297061 
L 72.607072 289.635519 
L 72.809429 279.342063 
L 73.214143 249.515355 
L 73.618858 237.519832 
L 75.035358 157.482132 
L 75.237715 154.62509 
L 75.440073 159.508403 
L 75.64243 167.431122 
L 75.844787 170.612367 
L 76.047144 185.323094 
L 76.654216 253.122118 
L 77.05893 276.343182 
L 77.261287 280.557825 
L 77.463645 280.193097 
L 77.666002 269.859115 
L 78.070716 242.362619 
L 78.475431 230.32657 
L 78.677788 221.512292 
L 79.487217 166.5193 
L 79.891931 150.815701 
L 80.094288 152.700133 
L 80.903717 193.630804 
L 81.713146 266.333404 
L 82.11786 280.476775 
L 82.320218 282.442257 
L 82.522575 282.158579 
L 82.724932 279.727054 
L 82.927289 273.141674 
L 83.332004 250.954008 
L 83.736718 237.13484 
L 83.939075 234.196748 
L 84.141432 234.460163 
L 84.546147 240.640289 
L 84.748504 242.66656 
L 84.950861 242.686823 
L 85.355576 246.739364 
L 85.557933 243.517594 
L 85.76029 249.434305 
L 86.569719 292.837027 
L 86.772076 298.713213 
L 86.974433 300.253178 
L 87.176791 300.313967 
L 87.379148 299.017153 
L 87.581505 295.410391 
L 87.783862 288.885799 
L 88.188577 267.589692 
L 88.390934 262.584803 
L 89.200363 254.78366 
L 89.40272 250.791906 
L 89.807434 236.506696 
L 90.212149 234.135959 
L 90.414506 231.52207 
L 90.616863 239.201637 
L 91.223935 288.055028 
L 91.628649 298.713213 
L 91.831006 298.774001 
L 92.033364 296.362738 
L 92.842792 251.784779 
L 93.04515 249.717983 
L 93.449864 241.410272 
L 93.652221 240.903704 
L 93.854578 238.066925 
L 94.056936 237.459044 
L 94.259293 234.926205 
L 94.46165 228.746079 
L 94.664007 225.99035 
L 94.866364 226.88191 
L 95.068722 229.921316 
L 95.271079 226.21324 
L 95.473436 235.979866 
L 96.080508 288.419756 
L 96.485222 297.315086 
L 96.687579 299.158992 
L 96.889937 294.964611 
L 97.699365 251.075584 
L 98.306437 240.923967 
L 98.508794 240.559238 
L 99.52058 220.053377 
L 99.722937 221.269139 
L 99.925295 225.483783 
L 100.127652 223.720927 
L 100.330009 233.528078 
L 100.937081 286.028757 
L 101.341795 297.882441 
L 101.544152 298.834789 
L 101.74651 295.248289 
L 101.948867 283.698545 
L 102.353581 254.682346 
L 102.555938 253.182906 
L 103.567724 236.000129 
L 104.377153 214.643234 
L 104.57951 215.879259 
L 104.781868 221.086775 
L 104.984225 221.066512 
L 105.186582 229.657901 
L 105.793654 282.98935 
L 106.198368 295.309077 
L 106.400725 297.011145 
L 106.603083 293.120705 
L 107.412511 248.745372 
L 107.614869 247.08383 
L 107.817226 243.537856 
L 108.22194 229.495799 
L 108.626655 208.523895 
L 108.829012 202.789549 
L 109.031369 200.965905 
L 109.638441 209.354666 
L 109.840798 214.602708 
L 110.043155 224.653012 
L 110.650227 277.842622 
L 111.054941 291.621264 
L 111.257298 293.465171 
L 111.459655 291.783366 
L 111.662013 280.760452 
L 112.066727 252.493974 
L 112.471442 238.006137 
L 113.887942 171.909181 
L 114.090299 169.619494 
L 114.292656 176.204875 
L 114.495014 187.248051 
L 114.697371 191.685584 
L 115.102085 224.551698 
L 115.709157 272.250115 
L 116.113871 285.724816 
L 116.316228 285.886918 
L 116.518586 284.286164 
L 116.720943 280.780715 
L 117.125657 254.459456 
L 118.542158 153.328277 
L 118.744515 143.561651 
L 118.946872 139.81305 
L 119.149229 143.359024 
L 119.756301 179.953476 
L 120.56573 256.627566 
L 120.970444 275.775826 
L 121.172801 279.727054 
L 121.375159 281.307546 
L 121.577516 279.909419 
L 121.779873 272.250115 
L 122.589302 222.971207 
L 123.196374 198.372278 
L 123.398731 193.955008 
L 123.601088 194.157635 
L 123.803445 193.610542 
L 124.410517 206.558413 
L 124.612874 217.155809 
L 125.219946 271.54092 
L 125.62466 285.582977 
L 125.827017 287.507935 
L 126.029374 285.056147 
L 127.04116 230.569723 
L 127.648232 194.42105 
L 128.255304 153.470115 
L 128.457661 146.17554 
L 128.660018 145.851337 
L 129.26709 188.686703 
L 130.278876 276.464758 
L 130.481233 284.022749 
L 130.68359 285.360087 
L 130.885947 282.867774 
L 132.504805 177.623264 
L 133.111877 136.388652 
L 133.314234 127.290696 
L 133.516591 128.931975 
L 133.921306 143.784541 
L 134.123663 150.95754 
L 135.135449 257.134134 
L 135.540163 269.332285 
L 135.74252 268.420463 
L 135.944878 258.187795 
L 136.349592 227.834257 
L 136.551949 221.289402 
L 136.754306 209.820709 
L 136.956664 214.237979 
L 137.159021 203.316379 
L 137.766092 194.785779 
L 137.96845 195.17077 
L 138.373164 189.942991 
L 138.777879 197.237567 
L 138.980236 198.048075 
L 139.182593 209.45598 
L 139.789665 264.185557 
L 140.194379 279.038122 
L 140.396736 281.04413 
L 140.599093 278.1263 
L 141.003808 248.927737 
L 141.408522 228.462401 
L 142.015594 215.51453 
L 142.622665 206.679989 
L 142.825023 206.416574 
L 143.02738 205.241337 
L 143.229737 205.910006 
L 143.634451 211.016209 
L 143.836809 209.820709 
L 144.039166 219.668385 
L 144.646238 267.366802 
L 145.050952 279.058385 
L 145.253309 280.314673 
L 145.455666 277.275267 
L 145.860381 248.603534 
L 146.062738 232.697307 
L 146.66981 216.770818 
L 146.872167 214.177191 
L 147.074524 213.12353 
L 147.479238 202.384295 
L 147.681596 210.570429 
L 147.883953 211.522776 
L 148.08631 214.055615 
L 148.491024 223.07252 
L 148.693382 221.755444 
L 149.098096 244.632043 
L 149.502811 271.885386 
L 149.907525 284.590104 
L 150.109882 286.596113 
L 150.312239 286.028757 
L 150.514597 283.273028 
L 150.716954 277.700783 
L 151.121668 257.316498 
L 151.526383 237.296942 
L 151.931097 231.623384 
L 152.133454 231.197867 
L 152.335811 233.122824 
L 152.538169 233.629392 
L 152.740526 231.623384 
L 152.942883 231.907061 
L 153.14524 230.954714 
L 153.347597 230.99524 
L 153.549955 228.138198 
L 153.752312 230.286045 
L 154.764098 280.578088 
L 154.966455 284.448265 
L 155.168812 285.805867 
L 155.573527 281.955952 
L 155.775884 271.135666 
L 156.78767 194.968143 
L 157.799456 153.308014 
L 158.001813 155.273497 
L 158.406528 168.180842 
L 158.608885 181.432654 
L 159.215956 248.522483 
L 159.620671 269.636225 
L 159.823028 272.776945 
L 160.025385 271.885386 
L 160.227743 262.301125 
L 160.632457 230.569723 
L 161.8466 181.392128 
L 162.251315 171.564714 
L 162.453672 171.706553 
L 162.656029 174.502807 
L 163.465458 205.606065 
L 164.072529 264.124769 
L 164.477244 282.320681 
L 164.679601 282.644884 
L 164.881958 279.483902 
L 165.084316 269.555174 
L 165.48903 238.492442 
L 166.500816 204.187676 
L 167.310245 162.223606 
L 167.512602 165.506165 
L 167.917316 185.627034 
L 168.119674 189.983517 
L 168.322031 201.087481 
L 168.929102 259.180668 
L 169.333817 274.033233 
L 169.536174 277.477894 
L 169.738531 273.891394 
L 170.143246 247.205407 
L 170.54796 217.561064 
L 171.357389 173.975977 
L 171.559746 168.079529 
L 172.166818 144.412685 
L 172.369175 145.993176 
L 172.571532 153.733531 
L 173.178604 191.847686 
L 173.785675 261.36904 
L 174.19039 280.334936 
L 174.392747 283.252766 
L 174.595104 281.469647 
L 174.999819 257.802803 
L 175.404533 233.345714 
L 177.023391 156.813462 
L 177.225748 157.32003 
L 177.428105 161.149682 
L 177.630462 177.380112 
L 177.83282 179.771112 
L 178.237534 222.930681 
L 178.642248 264.915014 
L 179.046963 283.698545 
L 179.24932 287.345833 
L 179.451677 284.873782 
L 179.654034 276.363445 
L 180.261106 237.35773 
L 181.879964 142.447202 
L 182.082321 139.245694 
L 182.284678 144.797676 
L 183.094107 199.95277 
L 183.498821 238.147976 
L 183.903536 259.160405 
L 184.30825 266.839971 
L 184.510607 268.17731 
L 184.712965 264.611074 
L 184.915322 251.501101 
L 185.724751 171.15946 
L 186.129465 150.207819 
L 186.331822 144.270846 
L 186.53418 143.521125 
L 186.736537 146.013439 
L 187.748323 185.647297 
L 188.557752 248.563008 
L 188.962466 262.463226 
L 189.164823 264.469235 
L 189.36718 264.550285 
L 189.569538 263.820828 
L 189.771895 253.243694 
L 190.986038 159.123411 
L 191.188395 153.915895 
L 191.390752 153.87537 
L 191.795467 162.85175 
L 192.604896 193.570016 
L 193.414325 255.715744 
L 193.819039 269.170183 
L 194.021396 270.223844 
L 194.426111 266.333404 
L 194.628468 257.539388 
L 195.437897 197.744134 
L 195.640254 192.820296 
L 195.842611 194.015796 
L 196.247325 199.973032 
L 196.449683 200.540388 
L 196.65204 200.155397 
L 197.056754 208.219955 
L 197.259112 209.050726 
L 197.461469 217.317911 
L 198.06854 264.813701 
L 198.473255 278.754444 
L 198.675612 278.855758 
L 198.877969 275.269258 
L 199.282684 245.017034 
L 199.687398 222.586215 
L 201.306256 157.32003 
L 201.508613 156.185318 
L 202.115684 175.0499 
L 202.318042 186.012026 
L 202.925113 248.988525 
L 203.329828 266.333404 
L 203.532185 268.4002 
L 203.734542 265.462107 
L 203.936899 254.135253 
L 204.341614 220.722046 
L 205.758114 166.985342 
L 205.960471 164.533555 
L 206.162829 164.675393 
L 206.365186 166.07352 
L 206.7699 177.724578 
L 206.972257 180.865298 
L 207.174615 191.523483 
L 207.781686 249.576144 
L 208.186401 265.462107 
L 208.388758 268.460988 
L 208.591115 265.178429 
L 208.793472 253.507109 
L 209.198187 220.276267 
L 209.805258 198.372278 
L 210.209973 178.818764 
L 210.817044 137.827304 
L 211.019402 129.479068 
L 211.221759 132.396898 
L 211.626473 156.468996 
L 211.82883 161.595462 
L 212.031188 176.083299 
L 212.638259 240.05267 
L 213.042974 258.329634 
L 213.245331 262.260599 
L 213.447688 260.578794 
L 213.650045 250.042186 
L 214.257117 207.490497 
L 214.661831 181.574493 
L 215.47126 123.197628 
L 215.875975 106.744309 
L 216.078332 106.278267 
L 216.280689 111.728935 
L 217.090118 174.462282 
L 217.697189 235.371985 
L 218.101904 253.527372 
L 218.304261 256.830193 
L 218.506618 258.167532 
L 218.708976 256.931507 
L 218.911333 244.409153 
L 219.518404 190.510347 
L 220.125476 155.881378 
L 220.327833 153.753793 
L 220.53019 155.942166 
L 221.541976 197.56177 
L 221.744334 202.627447 
L 222.553762 258.593049 
L 222.958477 269.291759 
L 223.160834 270.973564 
L 223.363191 271.31803 
L 223.565549 269.778064 
L 223.767906 261.206938 
L 224.374977 223.619614 
L 224.779692 216.162937 
L 225.386763 218.189208 
L 225.589121 221.654131 
L 225.791478 222.525427 
L 226.196192 230.77235 
L 226.398549 230.427884 
L 226.600907 236.749849 
L 227.410335 289.49368 
L 227.612693 293.465171 
L 227.81505 295.126713 
L 228.017407 291.985993 
L 228.826836 250.082711 
L 229.029193 247.793025 
L 229.23155 242.139729 
L 230.648051 179.750849 
L 230.850408 180.318205 
L 231.255122 194.502101 
L 231.45748 205.221074 
L 232.064551 267.87337 
L 232.469266 284.772469 
L 232.671623 287.447146 
L 232.87398 286.251647 
L 233.278694 261.36904 
L 233.683409 239.201637 
L 235.302267 175.657782 
L 235.504624 175.070163 
L 236.111695 193.873957 
L 236.314053 204.066099 
L 236.921124 265.198692 
L 237.325839 280.821241 
L 237.528196 283.901172 
L 237.730553 281.814113 
L 238.135267 258.248583 
L 238.539982 236.810637 
L 239.349411 206.376048 
L 239.754125 196.528372 
L 240.15884 186.478068 
L 240.361197 186.234916 
L 240.563554 191.604534 
L 240.968268 208.92915 
L 241.170626 216.385826 
L 241.777697 271.034352 
L 242.182412 286.636638 
L 242.384769 289.088426 
L 242.587126 286.150333 
L 242.99184 261.835082 
L 243.396555 244.166 
L 245.21777 170.713681 
L 245.420127 174.887799 
L 246.027199 201.249583 
L 246.836627 273.546928 
L 247.038985 281.773588 
L 247.241342 284.894045 
L 247.443699 282.401732 
L 247.848413 259.221193 
L 249.467271 149.032582 
L 249.669628 141.0896 
L 249.871985 139.184906 
L 250.074343 139.347007 
L 250.2767 146.17554 
L 250.883772 177.765103 
L 251.6932 251.521364 
L 252.097915 265.806573 
L 252.300272 268.825717 
L 252.502629 269.089132 
L 252.704986 265.279743 
L 253.109701 233.062036 
L 253.91913 161.048369 
L 254.323844 145.506871 
L 254.728558 136.834432 
L 254.930916 135.598406 
L 255.133273 142.974032 
L 255.740345 179.8319 
L 256.549773 253.81105 
L 256.954488 269.028344 
L 257.156845 272.776945 
L 257.359202 274.418225 
L 257.561559 273.465877 
L 257.966274 245.057559 
L 258.573345 195.494974 
L 258.97806 174.178604 
L 259.382774 163.338055 
L 259.585131 159.954182 
L 259.787489 159.528665 
L 259.989846 162.102029 
L 260.39456 177.825892 
L 260.596917 190.956127 
L 261.203989 251.926618 
L 261.608704 270.325157 
L 261.811061 273.202462 
L 262.013418 272.432479 
L 262.418132 248.866949 
L 262.62049 237.053789 
L 263.025204 227.550579 
L 263.227561 224.794851 
L 263.429918 223.801978 
L 263.834633 225.058266 
L 264.03699 224.754325 
L 264.239347 225.68641 
L 264.441704 225.767461 
L 264.644062 225.504045 
L 264.846419 227.510054 
L 265.048776 231.481545 
L 265.251133 231.481545 
L 265.45349 235.432773 
L 266.060562 277.194216 
L 266.465277 289.817883 
L 266.667634 291.337586 
L 266.869991 287.224257 
L 267.072348 279.402851 
L 267.477063 253.345007 
L 268.084134 231.542333 
L 268.488849 221.431241 
L 269.09592 210.367802 
L 269.500635 206.477362 
L 269.702992 208.625209 
L 269.905349 212.171183 
L 270.107706 212.839852 
L 270.310063 219.040241 
L 270.917135 267.083124 
L 271.32185 278.855758 
L 271.524207 280.96308 
L 271.726564 279.281275 
L 274.15485 140.056202 
L 274.357208 133.00478 
L 274.559565 136.287338 
L 275.166636 161.028106 
L 275.976065 241.24817 
L 276.38078 253.608423 
L 276.583137 252.919491 
L 276.987851 231.441019 
L 277.392566 203.012439 
L 278.404352 147.006311 
L 278.606709 144.00743 
L 279.011423 130.998771 
L 279.213781 129.41828 
L 279.416138 133.612661 
L 280.023209 174.644646 
L 280.630281 244.814407 
L 281.034995 267.224963 
L 281.237353 272.027225 
L 281.43971 270.507522 
L 281.642067 264.712387 
L 282.249139 223.639876 
L 282.85621 190.550873 
L 283.867996 148.465226 
L 284.070354 147.289989 
L 284.272711 155.314022 
L 285.284497 237.033527 
L 285.689211 268.683878 
L 286.093926 283.191978 
L 286.296283 285.441138 
L 286.49864 283.65802 
L 286.700997 280.760452 
L 287.105712 250.244813 
L 287.712783 199.527253 
L 288.522212 156.7932 
L 288.724569 149.782302 
L 288.926927 147.877608 
L 289.129284 151.403319 
L 289.736355 184.674687 
L 290.545784 253.628685 
L 290.950499 268.663615 
L 291.152856 271.399081 
L 291.355213 271.480132 
L 291.55757 270.021217 
L 291.759927 257.742015 
L 292.771714 160.643114 
L 293.176428 139.002541 
L 293.581142 127.939102 
L 293.7835 126.237035 
L 293.985857 129.701958 
L 294.592928 154.827717 
L 295.402357 236.790374 
L 295.807072 251.257948 
L 296.009429 251.095847 
L 296.414143 231.116816 
L 297.830644 98.112395 
L 298.235358 85.002422 
L 298.437715 82.449321 
L 298.640073 82.712736 
L 298.84243 84.739007 
L 299.044787 92.661726 
L 299.449501 119.2464 
L 300.056573 197.11599 
L 300.461287 221.998597 
L 300.663645 227.935571 
L 300.866002 228.644765 
L 301.068359 221.917546 
L 301.473073 192.293466 
L 302.484859 88.487608 
L 302.687217 77.322856 
L 302.889574 77.424169 
L 303.091931 85.407676 
L 303.496646 93.938277 
L 303.90136 115.882791 
L 304.306074 143.440075 
L 304.913146 211.705141 
L 305.31786 236.709323 
L 305.520218 242.200518 
L 305.722575 240.437662 
L 305.924932 233.406502 
L 306.532004 193.995533 
L 307.54379 124.940221 
L 307.746147 114.869655 
L 307.948504 113.998359 
L 308.757933 145.831074 
L 309.162647 171.544452 
L 309.769719 233.69018 
L 310.174433 253.304482 
L 310.376791 257.640702 
L 310.579148 257.073346 
L 310.983862 233.973858 
L 312.198005 131.343237 
L 312.60272 119.874544 
L 312.805077 115.558587 
L 313.007434 116.10568 
L 313.209791 119.752968 
L 313.816863 146.965786 
L 314.01922 160.46075 
L 314.626292 222.201224 
L 315.031006 242.423407 
L 315.233364 246.941991 
L 315.435721 246.293585 
L 315.840435 227.773469 
L 316.24515 209.314141 
L 316.649864 197.460456 
L 317.054578 182.364738 
L 317.66165 174.948587 
L 317.864007 174.502807 
L 318.066364 173.611248 
L 318.268722 178.231146 
L 318.875793 200.074346 
L 319.685222 257.883854 
L 320.089937 270.487259 
L 320.292294 272.108276 
L 320.697008 264.28687 
L 321.101723 238.411391 
L 322.315866 161.534674 
L 322.72058 151.423582 
L 322.922937 149.133896 
L 323.125295 153.2067 
L 323.732366 180.460044 
L 324.541795 248.076703 
L 324.94651 262.179548 
L 325.148867 265.03659 
L 325.351224 265.097379 
L 325.553581 262.868481 
L 325.755938 250.710855 
L 326.970082 139.81305 
L 327.172439 133.572135 
L 327.374796 132.011907 
L 327.77951 126.520713 
L 327.981868 131.444551 
L 328.184225 140.11699 
L 328.791296 191.077703 
L 329.196011 234.21701 
L 329.398368 249.25194 
L 329.803083 259.221193 
L 330.00544 258.289108 
L 330.207797 252.757389 
L 330.814869 204.896871 
L 331.42194 167.187969 
L 331.826655 144.817939 
L 332.029012 141.960897 
L 332.231369 141.98116 
L 332.433726 142.163524 
L 332.636083 144.23032 
L 332.838441 148.708379 
L 333.243155 171.321562 
L 333.445512 180.216891 
L 334.052584 245.057559 
L 334.457298 266.556294 
L 334.659655 271.905649 
L 334.862013 269.534912 
L 335.266727 249.961135 
L 335.671442 225.929562 
L 336.48087 186.356492 
L 336.683228 181.351603 
L 336.885585 180.257417 
L 337.087942 174.158341 
L 337.290299 172.334697 
L 337.695014 178.717451 
L 338.099728 192.982398 
L 338.302085 198.777532 
L 339.111514 263.719514 
L 339.313871 269.838852 
L 339.516228 272.047488 
L 339.718586 268.035471 
L 340.1233 244.996771 
L 340.932729 201.128007 
L 342.349229 140.198041 
L 342.551587 140.11699 
L 343.158658 164.472766 
L 343.76573 226.395605 
L 344.170444 244.166 
L 344.372801 248.866949 
L 344.575159 246.759627 
L 344.777516 239.931094 
L 345.18223 209.45598 
L 346.194016 127.91884 
L 346.598731 113.349952 
L 347.003445 106.82536 
L 347.205802 105.994589 
L 347.40816 109.135309 
L 347.610517 116.875663 
L 348.015231 142.629566 
L 348.82466 232.535205 
L 349.229374 249.414042 
L 349.431732 248.664322 
L 349.634089 242.950238 
L 349.836446 231.96785 
L 351.050589 128.931975 
L 351.455304 110.817113 
L 351.860018 102.083886 
L 352.062375 101.192327 
L 352.264733 104.778826 
L 352.46709 115.720689 
L 353.276519 197.703609 
L 353.681233 235.128832 
L 354.085947 255.047075 
L 354.288305 260.254591 
L 354.490662 260.821947 
L 354.693019 258.613312 
L 355.097733 217.135547 
L 355.704805 144.291108 
L 356.109519 119.91507 
L 356.716591 101.96231 
L 356.918948 100.888386 
L 357.121306 105.62986 
L 357.52602 130.917721 
L 357.728377 143.440075 
L 358.740163 237.661671 
L 359.144878 250.467703 
L 359.347235 252.311609 
L 359.549592 251.987406 
L 359.751949 238.168238 
L 360.763735 119.124824 
L 361.16845 100.300767 
L 361.573164 89.338642 
L 361.775521 87.069219 
L 361.977879 90.311252 
L 362.180236 97.220836 
L 362.58495 122.670798 
L 363.394379 210.266488 
L 363.799093 227.692418 
L 364.001451 228.502926 
L 364.203808 222.687529 
L 364.406165 212.758802 
L 365.013237 144.068219 
L 365.620308 80.321737 
L 366.025023 64.354722 
L 366.429737 58.255647 
L 366.632094 58.741952 
L 366.834451 61.355841 
L 367.036809 69.967492 
L 367.441523 98.801327 
L 368.048595 177.461163 
L 368.453309 207.612074 
L 368.655666 216.04136 
L 368.858024 218.391835 
L 369.060381 214.54192 
L 369.262738 204.795557 
L 369.86981 142.021685 
L 370.476881 84.53638 
L 370.881596 68.103323 
L 371.083953 67.657544 
L 371.28631 68.366738 
L 371.488667 72.257178 
L 371.691024 78.417042 
L 372.298096 116.956714 
L 373.107525 201.00643 
L 373.512239 222.99147 
L 373.714597 227.307427 
L 374.119311 226.618494 
L 374.321668 214.01509 
L 375.333454 111.323681 
L 375.738169 98.213708 
L 375.940526 95.539031 
L 376.142883 94.444845 
L 376.34524 99.57131 
L 376.749955 125.52784 
L 377.559383 183.803391 
L 377.964098 218.087894 
L 378.368812 231.74496 
L 378.57117 231.96785 
L 378.773527 226.091664 
L 378.975884 214.9877 
L 380.392384 99.551047 
L 380.797099 89.723633 
L 381.201813 82.206168 
L 381.40417 85.934507 
L 382.011242 122.589747 
L 382.820671 204.633455 
L 383.225385 220.580207 
L 383.427743 221.228614 
L 383.6301 215.940047 
L 384.034814 193.914482 
L 385.0466 121.19162 
L 385.451315 104.65725 
L 385.653672 104.191208 
L 385.856029 107.939809 
L 386.058386 115.497799 
L 387.070172 184.816526 
L 387.474887 224.551698 
L 387.879601 246.232797 
L 388.284316 255.290227 
L 388.68903 257.782541 
L 388.891387 252.088719 
L 389.700816 208.949412 
L 390.307888 197.845448 
L 390.914959 185.22178 
L 391.117316 189.963254 
L 391.926745 229.171596 
L 392.533817 272.95931 
L 392.938531 285.218248 
L 393.140888 287.062155 
L 393.343246 286.616375 
L 393.545603 287.082418 
L 393.74796 278.207351 
L 394.355032 237.418518 
L 395.569175 181.452916 
L 395.771532 175.49568 
L 395.973889 176.69118 
L 396.176247 184.938102 
L 396.783318 226.598232 
L 397.188033 264.773175 
L 397.592747 282.442257 
L 397.795104 285.197986 
L 397.997461 282.68541 
L 398.402176 264.712387 
L 400.628105 138.232558 
L 400.830462 141.049075 
L 401.03282 150.917014 
L 401.639891 207.449972 
L 402.044606 251.399787 
L 402.44932 271.54092 
L 402.651677 275.512411 
L 402.854034 273.871131 
L 403.258749 255.837321 
L 403.663463 227.672155 
L 404.877607 122.569485 
L 405.282321 102.225725 
L 405.484678 98.051607 
L 405.687035 99.12553 
L 405.889393 109.540563 
L 406.294107 146.580794 
L 406.901179 223.315673 
L 407.305893 247.164881 
L 407.50825 252.716863 
L 407.710607 252.190033 
L 408.115322 231.137079 
L 409.73418 100.01709 
L 409.936537 95.133777 
L 410.138894 94.991938 
L 410.341251 99.551047 
L 410.948323 135.334991 
L 411.15068 151.099379 
L 411.757752 221.066512 
L 412.162466 244.915721 
L 412.364823 251.338999 
L 412.56718 253.101855 
L 412.971895 235.209883 
L 414.388395 137.989406 
L 414.79311 124.575493 
L 415.197824 117.96985 
L 415.400181 124.676806 
L 416.20961 186.660433 
L 416.614325 231.481545 
L 417.019039 254.33788 
L 417.221396 258.552524 
L 417.423753 258.00543 
L 417.828468 241.99789 
L 419.244968 145.162405 
L 419.649683 131.687703 
L 419.85204 127.898577 
L 420.054397 129.316967 
L 420.256754 137.888092 
L 421.066183 202.505871 
L 421.673255 257.012558 
L 422.077969 272.918784 
L 422.280326 275.370572 
L 422.482684 274.722165 
L 422.685041 274.560064 
L 423.089755 244.145738 
L 423.899184 175.860409 
L 424.708613 136.996533 
L 424.91097 133.855813 
L 425.113327 137.807042 
L 425.518042 163.621733 
L 425.720399 175.27279 
L 426.529828 248.968262 
L 426.934542 267.306014 
L 427.136899 271.723284 
L 427.339257 272.51353 
L 427.541614 272.73642 
L 427.743971 264.246345 
L 428.148685 224.409859 
L 428.755757 163.317792 
L 429.160471 138.009669 
L 429.565186 129.86406 
L 429.9699 133.734237 
L 430.374615 149.741777 
L 430.576972 161.230733 
L 431.386401 236.223018 
L 431.791115 248.299593 
L 431.993472 246.293585 
L 432.398187 226.253766 
L 433.207616 162.020979 
L 434.017044 92.580675 
L 434.219402 87.758151 
L 435.02883 114.808867 
L 435.433545 139.468584 
L 436.040617 209.719395 
L 436.445331 231.947587 
L 436.647688 237.013264 
L 436.850045 236.344595 
L 437.25476 216.021098 
L 437.659474 181.574493 
L 438.468903 109.094783 
L 438.67126 99.490259 
L 438.873617 100.442606 
L 439.075975 107.453504 
L 439.278332 107.007724 
L 439.480689 109.216359 
L 439.885403 127.513585 
L 440.290118 151.93015 
L 440.897189 224.349071 
L 441.301904 246.354373 
L 441.504261 251.703728 
L 441.706618 252.230558 
L 442.111333 237.702196 
L 442.920762 186.397017 
L 443.527833 152.0112 
L 444.134905 129.580382 
L 444.337262 127.02728 
L 444.539619 133.349246 
L 445.146691 177.785366 
L 445.753762 246.009907 
L 446.158477 266.921022 
L 446.360834 271.804335 
L 446.563191 269.838852 
L 446.967906 251.19716 
L 448.586763 142.933507 
L 448.991478 129.924848 
L 449.193835 127.635162 
L 449.396192 134.200279 
L 450.003264 174.016502 
L 450.812693 252.939753 
L 451.217407 266.049726 
L 451.419764 266.171302 
L 451.824479 249.231678 
L 452.43155 199.527253 
L 453.038622 158.211589 
L 453.443336 141.413804 
L 453.848051 133.653186 
L 454.050408 136.97627 
L 454.252765 146.823947 
L 454.65748 174.827011 
L 454.859837 183.154984 
L 455.669266 246.962254 
L 456.07398 260.315379 
L 456.276337 261.81482 
L 456.478694 259.849337 
L 456.681052 256.789668 
L 456.883409 248.907474 
L 457.288123 222.282275 
L 457.692838 211.482251 
L 457.895195 212.171183 
L 458.299909 217.844742 
L 458.502267 217.702903 
L 458.906981 213.934039 
L 459.109338 214.460869 
L 459.514053 218.553936 
L 459.71641 222.788842 
L 460.728196 279.666266 
L 461.13291 284.022749 
L 461.537625 280.760452 
L 461.739982 271.966437 
L 462.144696 237.965611 
L 463.561197 169.801859 
L 463.763554 162.649123 
L 463.965911 163.804097 
L 464.572983 182.992882 
L 465.382412 248.988525 
L 465.584769 255.796795 
L 465.787126 258.471473 
L 465.989483 256.080473 
L 467.608341 164.898283 
L 468.620127 144.027693 
L 468.822484 147.107625 
L 469.429556 172.962841 
L 470.036627 228.847392 
L 470.441342 246.374636 
L 470.643699 248.968262 
L 470.846056 246.435424 
L 471.857842 196.264957 
L 472.869628 166.458512 
L 473.071985 166.944817 
L 473.274343 165.181961 
L 473.4767 166.417986 
L 473.679057 170.146325 
L 473.881414 176.630392 
L 474.083772 177.765103 
L 474.286129 185.323094 
L 474.8932 236.668798 
L 475.297915 252.676338 
L 475.500272 254.317617 
L 475.702629 252.311609 
L 476.107344 228.300299 
L 476.512058 206.619201 
L 477.321487 175.596994 
L 477.726201 155.739539 
L 477.928558 152.23409 
L 478.333273 156.853988 
L 478.53563 161.250996 
L 479.142702 185.809399 
L 479.952131 252.575024 
L 480.356845 262.280862 
L 480.559202 261.875608 
L 480.963917 240.113459 
L 482.785131 113.63363 
L 482.987489 107.818232 
L 483.189846 105.224606 
L 483.392203 110.776588 
L 483.999275 150.045718 
L 484.606346 220.093902 
L 485.011061 242.9705 
L 485.213418 247.30672 
L 485.415775 248.238805 
L 485.82049 228.766342 
L 486.225204 198.027812 
L 487.23699 109.398724 
L 487.439347 106.359317 
L 487.844062 112.823122 
L 488.248776 131.160873 
L 489.260562 207.531023 
L 489.665277 239.201637 
L 490.069991 254.074465 
L 490.272348 256.384414 
L 490.474705 255.269965 
L 490.677063 253.527372 
L 490.87942 243.94311 
L 491.891206 165.425114 
L 492.29592 147.978921 
L 492.498277 140.704609 
L 492.700635 138.718863 
L 492.902992 140.319617 
L 493.105349 145.061091 
L 493.712421 178.069044 
L 494.52185 248.968262 
L 495.128921 266.961548 
L 495.331278 267.103387 
L 495.533636 266.495505 
L 495.735993 259.059091 
L 496.950136 168.950825 
L 497.557208 144.959778 
L 497.759565 141.656956 
L 497.961922 144.817939 
L 498.568994 175.840146 
L 499.378422 248.522483 
L 499.58078 255.249702 
L 499.783137 257.70149 
L 499.985494 254.439194 
L 500.187851 246.050432 
L 500.794923 209.699133 
L 500.99728 204.673981 
L 501.401995 191.786898 
L 501.806709 180.703196 
L 502.009066 180.257417 
L 502.211423 182.283687 
L 502.413781 182.911831 
L 502.616138 181.270552 
L 503.020852 190.834551 
L 503.223209 191.381644 
L 503.425567 198.777532 
L 504.032638 248.684584 
L 504.437353 261.551404 
L 504.63971 263.152158 
L 504.842067 260.821947 
L 505.246782 236.8309 
L 505.651496 213.386946 
L 507.270354 141.373278 
L 507.472711 138.313609 
L 507.675068 141.656956 
L 508.28214 169.254766 
L 508.889211 226.375342 
L 509.293926 243.233916 
L 509.496283 246.698839 
L 509.69864 244.895458 
L 510.103354 221.714919 
L 511.722212 116.99724 
L 512.126927 99.510522 
L 512.329284 101.07075 
L 512.936355 134.909474 
L 513.34107 173.246519 
L 513.745784 216.04136 
L 514.150499 238.411391 
L 514.352856 243.902585 
L 514.555213 244.38889 
L 514.75757 235.6354 
L 516.174071 140.380406 
L 516.376428 139.306482 
L 516.781142 148.485489 
L 516.9835 145.790549 
L 517.185857 146.317379 
L 517.590571 163.743309 
L 517.792928 167.917427 
L 517.995286 178.454036 
L 518.4 217.500275 
L 518.4 217.500275 
" clip-path="url(#p9b7494e40d)" style="fill: none; stroke: #1f77b4; stroke-width: 1.5; stroke-linecap: square"/>
   </g>
   <g id="line2d_14">
    <path d="M 72 278.247835 
L 72.202357 278.247835 
L 72.607072 287.06765 
L 72.809429 287.499679 
L 73.011786 280.210652 
L 73.618858 245.912463 
L 74.023572 224.997466 
L 75.035358 162.610415 
L 75.237715 156.08061 
L 75.440073 154.622616 
L 75.64243 159.665734 
L 76.047144 180.129782 
L 76.451859 222.823299 
L 76.856573 261.56396 
L 77.261287 280.721883 
L 77.463645 281.059717 
L 77.666002 272.11367 
L 78.273073 229.334012 
L 78.475431 224.476691 
L 79.082502 197.848955 
L 79.689574 159.107854 
L 79.891931 152.060896 
L 80.094288 151.232143 
L 80.296646 157.325328 
L 80.903717 191.474211 
L 81.713146 264.222768 
L 81.915503 275.168501 
L 82.11786 279.93038 
L 82.320218 280.861687 
L 82.522575 277.644427 
L 83.129646 259.869462 
L 83.534361 237.629269 
L 83.939075 229.076947 
L 84.141432 226.881931 
L 84.34379 228.253559 
L 85.355576 245.742709 
L 85.76029 249.211295 
L 85.962647 256.93424 
L 86.569719 297.571561 
L 86.974433 307.8 
L 87.176791 306.470294 
L 87.581505 296.32334 
L 87.986219 281.843305 
L 88.390934 262.068088 
L 88.593291 257.196029 
L 88.795648 257.364325 
L 88.998005 257.78 
L 89.200363 256.552707 
L 89.40272 253.551867 
L 89.605077 248.719908 
L 90.009791 233.094662 
L 90.212149 231.910632 
L 90.616863 237.113945 
L 90.81922 247.651197 
L 91.426292 298.786181 
L 91.628649 303.135806 
L 91.831006 304.197734 
L 92.033364 300.572265 
L 92.235721 293.948036 
L 93.04515 243.129497 
L 93.247507 242.765671 
L 94.46165 228.321461 
L 94.664007 223.588732 
L 94.866364 222.438365 
L 95.271079 229.149074 
L 95.473436 234.398886 
L 95.87815 269.621249 
L 96.282865 295.385663 
L 96.485222 298.565796 
L 96.687579 297.10025 
L 96.889937 293.802791 
L 97.092294 284.527552 
L 97.497008 253.852746 
L 97.699365 246.385054 
L 97.901723 245.428228 
L 98.508794 235.785107 
L 98.711151 236.065785 
L 99.318223 223.420403 
L 99.52058 221.955868 
L 99.722937 223.145276 
L 99.925295 223.248487 
L 100.330009 234.610057 
L 100.734723 269.48981 
L 101.139438 294.455543 
L 101.341795 299.023873 
L 101.544152 299.26436 
L 101.74651 295.075662 
L 101.948867 286.062433 
L 102.555938 246.925195 
L 102.758296 245.734185 
L 102.960653 243.510206 
L 103.16301 239.706433 
L 103.365367 238.944923 
L 103.567724 236.541084 
L 103.972439 224.361564 
L 104.174796 219.055608 
L 104.377153 217.223508 
L 104.781868 218.471007 
L 105.186582 232.316669 
L 105.591296 265.979148 
L 105.996011 291.761338 
L 106.198368 297.15101 
L 106.400725 297.590998 
L 106.603083 293.736742 
L 106.80544 285.377755 
L 107.412511 245.974487 
L 108.22194 232.297105 
L 108.626655 213.870485 
L 108.829012 201.078178 
L 109.031369 195.467625 
L 109.233726 198.68082 
L 109.638441 210.469174 
L 109.840798 215.950893 
L 110.043155 225.516125 
L 110.852584 286.419987 
L 111.054941 293.174517 
L 111.257298 293.773561 
L 111.459655 290.545757 
L 111.662013 283.819688 
L 112.269084 245.240963 
L 112.673799 230.725952 
L 113.483228 189.406502 
L 113.887942 174.296332 
L 114.090299 172.484594 
L 114.292656 175.494604 
L 114.495014 182.000856 
L 114.899728 204.097165 
L 115.709157 272.742572 
L 115.911514 281.103713 
L 116.113871 283.747811 
L 116.316228 283.999167 
L 116.518586 279.592423 
L 117.328015 245.510975 
L 118.744515 147.236477 
L 118.946872 143.399898 
L 119.149229 145.17771 
L 119.351587 151.1892 
L 119.958658 196.893322 
L 120.56573 256.390634 
L 120.970444 278.050039 
L 121.172801 281.363889 
L 121.375159 280.797479 
L 121.577516 275.89763 
L 121.98223 257.550869 
L 122.589302 215.368763 
L 123.196374 198.13282 
L 123.601088 190.556119 
L 123.803445 190.227833 
L 124.005802 193.908173 
L 124.815231 230.823659 
L 125.62466 292.709399 
L 125.827017 295.811728 
L 126.029374 294.401435 
L 126.231732 286.955512 
L 126.636446 252.383871 
L 127.04116 225.284755 
L 127.445875 207.190405 
L 128.457661 149.602173 
L 128.660018 147.426917 
L 128.862375 150.736921 
L 129.26709 178.885724 
L 129.671804 222.482228 
L 130.076519 269.351305 
L 130.278876 279.727069 
L 130.481233 282.999478 
L 130.68359 284.266932 
L 130.885947 280.376873 
L 131.088305 272.985945 
L 131.695376 229.039705 
L 132.100091 208.104843 
L 133.111877 141.009311 
L 133.314234 134.766 
L 133.516591 133.055154 
L 133.718948 138.708376 
L 134.123663 158.770211 
L 134.32602 171.3241 
L 135.135449 257.898114 
L 135.337806 267.888085 
L 135.540163 271.847437 
L 135.74252 270.801586 
L 135.944878 262.665144 
L 136.754306 206.564726 
L 136.956664 194.043977 
L 137.159021 195.364241 
L 137.361378 192.790102 
L 137.563735 193.685929 
L 137.766092 192.60301 
L 137.96845 190.130445 
L 138.373164 192.1655 
L 138.980236 200.33198 
L 139.182593 210.972382 
L 139.992022 277.796461 
L 140.194379 282.369456 
L 140.396736 282.707142 
L 140.599093 282.372681 
L 140.801451 273.133892 
L 141.610879 221.237867 
L 142.015594 212.722625 
L 142.217951 209.617577 
L 142.420308 209.37662 
L 142.622665 207.588285 
L 142.825023 203.513697 
L 143.02738 204.064991 
L 143.229737 205.285053 
L 143.432094 207.870727 
L 144.039166 220.84272 
L 144.44388 252.51555 
L 144.848595 276.265641 
L 145.050952 281.597218 
L 145.253309 281.355746 
L 145.455666 277.728781 
L 145.658024 270.884838 
L 146.265095 224.757438 
L 146.66981 214.515049 
L 146.872167 211.13565 
L 147.276881 209.384335 
L 147.681596 198.784066 
L 148.895739 230.933427 
L 149.705168 278.245127 
L 149.907525 284.004374 
L 150.109882 284.484984 
L 150.514597 276.586801 
L 151.72874 230.093418 
L 151.931097 228.972839 
L 152.133454 226.589628 
L 152.335811 227.048773 
L 152.740526 232.195133 
L 152.942883 233.024637 
L 153.14524 234.446686 
L 153.347597 233.289066 
L 153.549955 233.328215 
L 153.752312 236.706012 
L 153.954669 242.610468 
L 154.359383 264.164715 
L 154.764098 282.791625 
L 155.168812 286.973565 
L 155.37117 284.086949 
L 155.978241 261.384561 
L 156.990027 185.13729 
L 157.799456 155.341608 
L 158.001813 152.770773 
L 158.20417 156.623982 
L 158.608885 179.881291 
L 159.013599 224.2265 
L 159.418314 264.17159 
L 159.823028 279.909995 
L 160.025385 278.065962 
L 160.227743 271.117286 
L 161.441886 185.856054 
L 162.251315 170.024363 
L 162.453672 168.774358 
L 162.656029 171.475266 
L 162.858386 176.930729 
L 163.667815 222.594593 
L 164.072529 263.187393 
L 164.477244 281.066574 
L 164.679601 283.38276 
L 164.881958 280.050383 
L 165.084316 271.026513 
L 165.691387 226.613745 
L 166.096102 215.859524 
L 166.298459 214.266615 
L 166.500816 210.892722 
L 166.703173 203.124399 
L 167.310245 162.778452 
L 167.512602 162.782798 
L 167.917316 181.149754 
L 168.524388 220.772772 
L 168.929102 258.968837 
L 169.333817 277.0038 
L 169.536174 278.019166 
L 169.738531 275.634659 
L 169.940888 269.074577 
L 171.559746 161.759597 
L 171.964461 151.009764 
L 172.166818 149.183224 
L 172.369175 151.876524 
L 172.773889 165.395708 
L 173.178604 190.164043 
L 174.19039 281.69763 
L 174.392747 284.540459 
L 174.595104 280.876336 
L 174.797461 271.484184 
L 175.404533 226.741428 
L 177.023391 165.297161 
L 177.225748 163.431044 
L 177.630462 172.598221 
L 178.035177 197.035 
L 178.844606 277.162013 
L 179.046963 286.694745 
L 179.24932 289.079854 
L 179.451677 287.096184 
L 179.654034 279.620188 
L 181.475249 161.721091 
L 181.879964 147.395269 
L 182.082321 146.094313 
L 182.284678 149.352559 
L 182.487035 156.139291 
L 182.89175 184.600492 
L 183.498821 242.497044 
L 183.903536 261.082617 
L 184.105893 265.653483 
L 184.30825 265.683415 
L 184.510607 262.659642 
L 184.712965 257.703445 
L 185.117679 238.092614 
L 186.129465 145.148517 
L 186.53418 134.339744 
L 186.736537 135.696452 
L 187.141251 157.933795 
L 188.153037 220.41467 
L 188.760109 259.353442 
L 188.962466 265.855175 
L 189.164823 267.08037 
L 189.36718 264.519148 
L 189.771895 249.386583 
L 191.188395 153.855222 
L 191.390752 150.359326 
L 191.59311 152.124889 
L 191.795467 157.918703 
L 192.807253 211.424675 
L 193.616682 266.146434 
L 193.819039 271.382614 
L 194.021396 272.455369 
L 194.223753 269.126365 
L 194.628468 255.259278 
L 195.033182 228.090221 
L 195.640254 187.734647 
L 195.842611 183.975755 
L 196.044968 187.265794 
L 196.449683 201.954857 
L 196.65204 205.593223 
L 196.854397 206.122642 
L 197.259112 212.931984 
L 197.461469 218.249056 
L 197.663826 227.884976 
L 198.473255 283.7655 
L 198.675612 286.078676 
L 198.877969 282.063173 
L 199.080326 272.850671 
L 199.889755 211.03017 
L 200.496827 189.167608 
L 201.508613 160.804919 
L 201.71097 162.444576 
L 201.913327 169.11381 
L 202.520399 206.625473 
L 202.925113 249.999401 
L 203.127471 262.148706 
L 203.329828 267.548301 
L 203.532185 268.397175 
L 203.734542 265.425559 
L 203.936899 256.756454 
L 204.746328 199.577183 
L 205.960471 162.15088 
L 206.162829 161.835555 
L 207.174615 196.429442 
L 207.579329 231.19284 
L 207.984044 259.435432 
L 208.186401 267.334742 
L 208.388758 269.263916 
L 208.591115 266.527297 
L 208.793472 258.646717 
L 209.400544 212.389633 
L 211.221759 135.923958 
L 211.424116 139.887495 
L 212.031188 179.040035 
L 212.435902 219.832732 
L 212.840617 252.52429 
L 213.042974 260.990724 
L 213.245331 262.699846 
L 213.447688 260.803988 
L 213.650045 253.886845 
L 214.661831 184.808484 
L 215.875975 112.176747 
L 216.078332 113.06881 
L 216.280689 117.960165 
L 216.483046 125.561352 
L 217.090118 172.556084 
L 217.697189 233.460667 
L 218.101904 253.03168 
L 218.304261 253.942726 
L 218.708976 242.435039 
L 219.11369 225.849482 
L 220.125476 154.221713 
L 220.327833 147.351888 
L 220.53019 145.565435 
L 220.732548 150.410615 
L 222.351405 247.331133 
L 222.75612 270.515571 
L 222.958477 275.039438 
L 223.160834 276.5606 
L 223.363191 274.011842 
L 223.565549 269.083724 
L 223.970263 247.61063 
L 224.374977 220.61675 
L 224.779692 211.950628 
L 224.982049 211.359063 
L 225.386763 217.789625 
L 225.791478 225.42827 
L 225.993835 225.956895 
L 226.196192 228.843397 
L 226.398549 233.68953 
L 226.600907 235.538108 
L 226.803264 243.867969 
L 227.612693 298.844647 
L 227.81505 299.361104 
L 228.017407 296.872344 
L 228.219764 289.799868 
L 229.029193 239.165227 
L 229.433908 234.457654 
L 229.838622 224.674163 
L 230.445694 193.113076 
L 230.850408 183.657581 
L 231.052765 185.168462 
L 231.255122 192.233175 
L 231.659837 221.693085 
L 232.064551 268.343854 
L 232.266908 281.091243 
L 232.469266 286.367855 
L 232.671623 288.025454 
L 232.87398 285.820851 
L 233.076337 279.443738 
L 233.885766 231.026859 
L 234.492838 204.122834 
L 235.099909 179.674687 
L 235.302267 175.326518 
L 235.504624 175.200268 
L 235.909338 187.082281 
L 236.314053 206.220633 
L 236.718767 243.689242 
L 237.123481 275.777381 
L 237.325839 283.787738 
L 237.528196 285.012151 
L 237.730553 283.227913 
L 237.93291 275.546742 
L 238.539982 235.087534 
L 239.551768 198.896545 
L 239.956482 189.063626 
L 240.15884 186.721722 
L 240.361197 188.454642 
L 240.765911 196.608155 
L 241.170626 216.033933 
L 241.980054 281.077222 
L 242.182412 287.421178 
L 242.384769 289.614413 
L 242.587126 286.998 
L 242.789483 279.995401 
L 243.396555 238.585762 
L 244.003626 218.493653 
L 245.015413 176.238124 
L 245.21777 174.448968 
L 245.420127 177.02615 
L 245.622484 182.650451 
L 246.027199 204.679422 
L 246.431913 240.471581 
L 246.836627 272.40973 
L 247.241342 285.976978 
L 247.443699 285.242445 
L 247.646056 277.520171 
L 249.669628 140.216373 
L 249.871985 135.29044 
L 250.074343 138.493174 
L 250.479057 155.568954 
L 250.883772 182.824455 
L 251.6932 252.611001 
L 252.097915 267.238269 
L 252.300272 267.724462 
L 252.502629 264.127785 
L 252.907344 247.866344 
L 253.312058 219.131524 
L 254.121487 149.921536 
L 254.526201 137.326692 
L 254.728558 136.660682 
L 255.133273 145.770272 
L 255.537987 166.792928 
L 255.942702 198.224399 
L 256.549773 252.679253 
L 256.954488 272.091137 
L 257.156845 273.286898 
L 257.359202 271.444102 
L 257.763917 258.806808 
L 258.573345 197.70887 
L 258.97806 174.303613 
L 259.382774 164.254443 
L 259.585131 161.516094 
L 259.787489 161.185517 
L 260.192203 172.566836 
L 260.596917 192.072254 
L 261.001632 229.034995 
L 261.406346 266.355869 
L 261.811061 279.289895 
L 262.013418 278.844226 
L 262.215775 273.171283 
L 263.025204 216.987956 
L 263.429918 211.527182 
L 263.632276 213.275823 
L 264.03699 221.954863 
L 264.441704 224.428027 
L 264.644062 223.662956 
L 264.846419 223.847383 
L 265.048776 226.644452 
L 265.45349 238.353763 
L 265.655848 248.446812 
L 266.060562 280.002799 
L 266.262919 287.999012 
L 266.465277 290.837256 
L 266.667634 291.673691 
L 266.869991 289.315393 
L 267.274705 269.447236 
L 267.67942 244.407261 
L 268.084134 233.781667 
L 268.286491 230.638355 
L 269.09592 209.441694 
L 269.298277 205.556237 
L 269.500635 205.811997 
L 270.107706 218.844458 
L 270.310063 223.940571 
L 270.512421 233.692149 
L 271.119492 275.948267 
L 271.32185 281.598578 
L 271.524207 282.721464 
L 271.726564 280.262145 
L 271.928921 273.417962 
L 272.535993 229.82781 
L 272.73835 223.673914 
L 274.357208 140.692447 
L 274.559565 139.257824 
L 274.761922 141.810477 
L 275.166636 162.815443 
L 275.571351 204.678867 
L 275.976065 243.76757 
L 276.178422 253.00306 
L 276.38078 256.961045 
L 276.583137 255.425573 
L 276.785494 248.467702 
L 277.999637 167.250518 
L 278.606709 140.747522 
L 279.011423 134.031774 
L 279.213781 135.50835 
L 279.416138 138.53965 
L 279.618495 145.331928 
L 279.820852 156.38533 
L 281.034995 266.533834 
L 281.237353 269.542108 
L 281.43971 269.633017 
L 281.844424 250.626555 
L 282.249139 222.830345 
L 283.260925 172.104519 
L 283.867996 151.396006 
L 284.070354 151.854656 
L 284.272711 155.151321 
L 284.677425 178.170579 
L 285.08214 212.231684 
L 285.486854 254.678225 
L 285.891568 277.646101 
L 286.093926 281.520699 
L 286.296283 282.731479 
L 286.49864 280.575291 
L 286.903354 266.348188 
L 287.712783 206.400291 
L 288.117498 174.717079 
L 288.724569 152.029364 
L 288.926927 150.5043 
L 289.129284 154.5836 
L 289.533998 173.730574 
L 290.14107 223.155704 
L 290.545784 256.856473 
L 290.950499 273.252467 
L 291.152856 275.29589 
L 291.355213 273.086296 
L 291.759927 260.415013 
L 292.164642 225.14673 
L 292.771714 164.518614 
L 293.176428 138.051223 
L 293.581142 127.744505 
L 293.7835 128.361109 
L 293.985857 133.511323 
L 294.390571 152.623768 
L 294.795286 178.996132 
L 295.604714 250.260064 
L 295.807072 257.662397 
L 296.009429 258.467435 
L 296.211786 252.854128 
L 296.6165 220.240549 
L 297.830644 103.794254 
L 298.235358 83.965735 
L 298.437715 81.562604 
L 298.640073 84.059635 
L 299.044787 99.330626 
L 299.449501 125.972085 
L 299.854216 169.58549 
L 300.25893 215.078196 
L 300.663645 230.075228 
L 300.866002 229.306567 
L 301.068359 222.308446 
L 301.675431 176.778074 
L 302.080145 135.554106 
L 302.484859 90.16702 
L 302.889574 67.432128 
L 303.091931 68.199652 
L 303.496646 89.879275 
L 304.103717 133.13768 
L 305.520218 241.104342 
L 305.722575 241.542545 
L 305.924932 234.160941 
L 307.54379 127.288385 
L 307.948504 115.982311 
L 308.150861 115.742205 
L 308.353218 123.328313 
L 309.162647 175.653556 
L 310.174433 256.649758 
L 310.376791 261.374633 
L 310.579148 260.197589 
L 310.781505 252.525896 
L 311.186219 221.0609 
L 311.995648 149.942894 
L 312.400363 123.012312 
L 312.60272 116.512025 
L 312.805077 115.365239 
L 313.007434 116.898871 
L 313.412149 130.815327 
L 314.01922 168.033744 
L 314.828649 236.97182 
L 315.233364 249.892114 
L 315.435721 248.469247 
L 315.638078 241.062562 
L 316.24515 201.889522 
L 316.649864 189.631554 
L 317.256936 181.536157 
L 317.459293 180.990002 
L 317.66165 177.288819 
L 317.864007 176.691474 
L 318.471079 187.066637 
L 318.875793 201.305553 
L 319.685222 258.553217 
L 320.089937 270.231169 
L 320.292294 270.94275 
L 320.494651 268.074999 
L 321.101723 244.366288 
L 321.708794 205.272057 
L 322.113509 172.41343 
L 322.518223 154.251097 
L 322.72058 150.036843 
L 322.922937 150.967486 
L 323.125295 154.774638 
L 323.327652 161.457289 
L 323.934723 199.593324 
L 324.744152 259.571673 
L 324.94651 264.55585 
L 325.148867 265.933565 
L 325.351224 264.444125 
L 325.755938 251.38937 
L 326.160653 218.99244 
L 327.172439 133.830101 
L 327.374796 127.115886 
L 327.577153 125.628872 
L 327.981868 133.833695 
L 328.386582 153.675891 
L 328.791296 187.534645 
L 329.600725 260.365755 
L 329.803083 264.627543 
L 330.00544 264.745595 
L 330.410154 246.601554 
L 331.219583 174.719596 
L 331.624297 151.419432 
L 332.029012 139.086574 
L 332.231369 139.364446 
L 332.433726 141.550246 
L 332.636083 145.274983 
L 333.040798 162.116104 
L 333.647869 200.798402 
L 334.254941 257.725202 
L 334.457298 265.80761 
L 334.659655 269.348959 
L 334.862013 269.60884 
L 335.06437 263.012838 
L 335.873799 211.339329 
L 336.48087 188.535757 
L 336.683228 180.93843 
L 336.885585 177.752768 
L 337.087942 177.480583 
L 337.290299 175.802691 
L 337.492656 176.905931 
L 337.897371 187.21238 
L 338.302085 204.287887 
L 338.7068 236.522139 
L 339.111514 266.348766 
L 339.313871 273.451125 
L 339.516228 276.340424 
L 339.718586 274.698354 
L 339.920943 266.017715 
L 340.730372 212.709803 
L 341.135086 192.712928 
L 341.742158 166.302205 
L 342.146872 150.577433 
L 342.349229 148.123647 
L 342.551587 149.345013 
L 342.753944 152.237254 
L 343.158658 172.13874 
L 343.361015 185.460813 
L 343.968087 242.574756 
L 344.372801 252.38637 
L 344.575159 249.640653 
L 344.777516 242.830249 
L 345.18223 215.378508 
L 345.789302 169.191554 
L 346.396374 120.326963 
L 346.598731 110.160319 
L 346.801088 105.58168 
L 347.003445 105.485022 
L 347.40816 116.008143 
L 347.812874 133.762704 
L 348.217588 165.404891 
L 348.82466 227.15324 
L 349.229374 245.69206 
L 349.431732 246.883759 
L 349.634089 239.566186 
L 350.443518 182.814986 
L 351.252947 120.700151 
L 351.657661 106.732842 
L 351.860018 103.884535 
L 352.062375 106.311301 
L 352.46709 119.515782 
L 352.871804 151.24244 
L 353.88359 247.827167 
L 354.085947 254.417975 
L 354.288305 255.285732 
L 354.490662 252.816897 
L 354.895376 238.468326 
L 355.300091 204.795062 
L 356.109519 118.193062 
L 356.514234 104.713572 
L 356.716591 102.275936 
L 356.918948 103.008438 
L 357.323663 118.705266 
L 357.728377 150.623916 
L 358.740163 242.700447 
L 358.94252 250.616683 
L 359.144878 251.256251 
L 359.347235 248.812958 
L 359.549592 244.602152 
L 359.751949 237.84236 
L 360.156664 201.569197 
L 360.966092 107.70196 
L 361.16845 96.582928 
L 361.573164 89.363723 
L 361.775521 89.758971 
L 361.977879 94.588228 
L 362.382593 116.359874 
L 362.787307 148.982935 
L 363.596736 228.744099 
L 363.799093 237.276522 
L 364.001451 237.688892 
L 364.203808 230.550934 
L 364.608522 201.750193 
L 365.215594 133.067409 
L 365.822665 68.588239 
L 366.025023 58.982583 
L 366.22738 55.8 
L 366.429737 56.345219 
L 366.632094 59.81466 
L 367.036809 77.172811 
L 367.441523 108.069146 
L 367.846238 150.636195 
L 368.250952 195.059264 
L 368.655666 216.26282 
L 368.858024 217.978359 
L 369.060381 211.557464 
L 369.465095 187.574504 
L 370.072167 128.326087 
L 370.679238 72.122689 
L 370.881596 64.105678 
L 371.083953 60.679112 
L 371.28631 62.197456 
L 371.488667 69.103286 
L 371.893382 92.185478 
L 372.500453 145.422886 
L 373.107525 201.453576 
L 373.512239 224.437135 
L 373.714597 226.468253 
L 373.916954 221.305276 
L 374.524025 196.163423 
L 374.92874 159.596878 
L 375.333454 112.059156 
L 375.738169 91.934811 
L 375.940526 90.379292 
L 376.142883 92.201826 
L 376.34524 97.123346 
L 376.547597 105.576596 
L 376.952312 135.724746 
L 377.761741 204.914925 
L 378.166455 230.660454 
L 378.368812 237.844059 
L 378.57117 237.561558 
L 378.773527 231.014294 
L 379.178241 205.825499 
L 380.392384 101.378481 
L 380.594742 93.454582 
L 380.797099 90.198324 
L 380.999456 89.893616 
L 381.201813 91.563753 
L 381.40417 95.442537 
L 381.606528 102.361194 
L 382.011242 130.052136 
L 382.618314 188.514241 
L 383.023028 217.447149 
L 383.225385 223.091028 
L 383.427743 224.847689 
L 383.6301 217.88952 
L 384.237171 181.247166 
L 384.237171 181.247166 
" clip-path="url(#p9b7494e40d)" style="fill: none; stroke: #ff7f0e; stroke-width: 1.5; stroke-linecap: square"/>
   </g>
   <g id="line2d_15">
    <path d="M 384.439529 166.742654 
L 385.0466 130.73141 
L 385.451315 117.175364 
L 385.653672 115.740051 
L 385.856029 115.397583 
L 386.058386 119.112054 
L 386.260743 126.840027 
L 386.867815 167.365068 
L 387.879601 236.586895 
L 388.081958 240.821122 
L 388.284316 241.071358 
L 388.486673 236.685313 
L 390.10553 171.583963 
L 390.307888 168.634123 
L 390.510245 167.459006 
L 390.712602 168.790859 
L 390.914959 170.907286 
L 391.319674 182.159137 
L 391.724388 200.95681 
L 392.736174 256.672765 
L 392.938531 261.89791 
L 393.140888 264.09003 
L 393.343246 262.045647 
L 393.74796 248.008259 
L 394.355032 223.041727 
L 394.962103 207.262436 
L 395.366818 201.665579 
L 395.569175 200.518253 
L 395.771532 200.23594 
L 395.973889 201.622002 
L 396.378604 210.108557 
L 396.783318 225.765805 
L 397.592747 262.627968 
L 397.997461 269.344429 
L 398.199819 268.682026 
L 398.402176 264.795358 
L 398.80689 250.065081 
L 399.413962 225.655167 
L 400.021034 207.615986 
L 400.425748 199.846827 
L 400.628105 198.332707 
L 400.830462 198.811808 
L 401.03282 201.483548 
L 401.437534 211.363814 
L 402.651677 259.556993 
L 402.854034 261.773733 
L 403.056392 261.431253 
L 403.258749 257.952554 
L 403.663463 243.175395 
L 404.472892 206.651993 
L 405.079964 187.634173 
L 405.282321 184.086564 
L 405.484678 182.791461 
L 405.687035 184.215867 
L 405.889393 187.827081 
L 406.294107 201.386119 
L 407.50825 249.110877 
L 407.710607 250.776176 
L 407.912965 249.829974 
L 408.115322 245.807583 
L 408.520036 230.17636 
L 409.329465 194.431825 
L 409.73418 183.044067 
L 409.936537 180.006449 
L 410.138894 178.73297 
L 410.341251 179.926305 
L 410.543608 183.459466 
L 410.948323 196.513063 
L 412.162466 239.205942 
L 412.364823 242.006013 
L 412.56718 242.392631 
L 412.769538 240.214335 
L 413.174252 227.998978 
L 413.983681 197.756646 
L 414.388395 188.550006 
L 414.590752 186.559526 
L 414.79311 186.297765 
L 414.995467 187.521956 
L 415.400181 195.27407 
L 417.019039 236.407484 
L 417.221396 237.397054 
L 417.423753 236.217148 
L 417.626111 232.822052 
L 418.840254 198.481214 
L 419.042611 195.96089 
L 419.244968 195.255817 
L 419.447325 195.838787 
L 419.85204 199.2308 
L 420.459112 209.77857 
L 421.673255 231.054723 
L 421.875612 232.185968 
L 422.077969 231.374688 
L 422.280326 228.645093 
L 423.49447 202.946204 
L 423.696827 202.027688 
L 423.899184 202.590821 
L 424.303898 205.325388 
L 426.327471 225.622925 
L 426.529828 226.429541 
L 426.732185 225.722677 
L 426.934542 223.380925 
L 427.743971 208.230517 
L 427.946328 206.418317 
L 428.148685 205.911285 
L 428.351043 206.343687 
L 428.958114 210.636779 
L 429.362829 213.479998 
L 429.767543 215.120751 
L 430.374615 216.271225 
L 430.981686 219.924924 
L 431.184044 220.28158 
L 431.386401 219.665011 
L 431.791115 214.883296 
L 432.19583 210.141898 
L 432.398187 208.584148 
L 432.600544 208.040599 
L 432.802901 208.581567 
L 433.409973 211.996267 
L 433.814687 214.315377 
L 434.219402 214.923995 
L 434.421759 214.838479 
L 435.02883 213.926958 
L 435.635902 214.977407 
L 435.838259 215.201889 
L 436.040617 214.618378 
L 436.850045 210.339441 
L 437.052403 209.98439 
L 437.457117 210.684494 
L 438.468903 213.669395 
L 438.67126 213.773104 
L 438.873617 213.650643 
L 439.885403 212.433181 
L 440.290118 212.386757 
L 440.492475 212.52534 
L 440.694832 212.487731 
L 441.504261 211.606048 
L 441.908976 211.689919 
L 442.31369 211.920582 
L 443.123119 212.567179 
L 443.527833 212.664371 
L 443.932548 212.491187 
L 444.539619 212.12953 
L 444.944334 212.165502 
L 445.95612 212.623814 
L 447.170263 212.029273 
L 447.777335 212.25584 
L 448.384406 212.474083 
L 448.789121 212.419945 
L 449.396192 212.258459 
L 450.003264 212.365374 
L 450.610335 212.515892 
L 451.217407 212.277557 
L 451.824479 212.098845 
L 452.43155 212.237874 
L 453.240979 212.445379 
L 453.848051 212.346823 
L 454.65748 212.248642 
L 456.07398 212.315528 
L 456.883409 212.238778 
L 458.502267 212.34522 
L 459.514053 212.258354 
L 460.930553 212.34394 
L 462.144696 212.287595 
L 463.35884 212.331353 
L 464.77534 212.316672 
L 465.989483 212.31285 
L 467.203626 212.308789 
L 468.620127 212.310047 
L 471.250771 212.30152 
L 477.11913 212.315222 
L 482.987489 212.316846 
L 492.498277 212.315874 
L 518.4 212.314147 
L 518.4 212.314147 
" clip-path="url(#p9b7494e40d)" style="fill: none; stroke: #2ca02c; stroke-width: 1.5; stroke-linecap: square"/>
   </g>
   <g id="patch_3">
    <path d="M 72 320.4 
L 72 43.2 
" style="fill: none; stroke: #000000; stroke-width: 0.8; stroke-linejoin: miter; stroke-linecap: square"/>
   </g>
   <g id="patch_4">
    <path d="M 518.4 320.4 
L 518.4 43.2 
" style="fill: none; stroke: #000000; stroke-width: 0.8; stroke-linejoin: miter; stroke-linecap: square"/>
   </g>
   <g id="patch_5">
    <path d="M 72 320.4 
L 518.4 320.4 
" style="fill: none; stroke: #000000; stroke-width: 0.8; stroke-linejoin: miter; stroke-linecap: square"/>
   </g>
   <g id="patch_6">
    <path d="M 72 43.2 
L 518.4 43.2 
" style="fill: none; stroke: #000000; stroke-width: 0.8; stroke-linejoin: miter; stroke-linecap: square"/>
   </g>
   <g id="text_13">
    <!-- Classic Transformer - model_20231123163019 -->
    <g transform="translate(155.436563 37.2) scale(0.12 -0.12)">
     <defs>
      <path id="DejaVuSans-43" d="M 4122 4306 
L 4122 3641 
Q 3803 3938 3442 4084 
Q 3081 4231 2675 4231 
Q 1875 4231 1450 3742 
Q 1025 3253 1025 2328 
Q 1025 1406 1450 917 
Q 1875 428 2675 428 
Q 3081 428 3442 575 
Q 3803 722 4122 1019 
L 4122 359 
Q 3791 134 3420 21 
Q 3050 -91 2638 -91 
Q 1578 -91 968 557 
Q 359 1206 359 2328 
Q 359 3453 968 4101 
Q 1578 4750 2638 4750 
Q 3056 4750 3426 4639 
Q 3797 4528 4122 4306 
z
" transform="scale(0.015625)"/>
      <path id="DejaVuSans-6c" d="M 603 4863 
L 1178 4863 
L 1178 0 
L 603 0 
L 603 4863 
z
" transform="scale(0.015625)"/>
      <path id="DejaVuSans-61" d="M 2194 1759 
Q 1497 1759 1228 1600 
Q 959 1441 959 1056 
Q 959 750 1161 570 
Q 1363 391 1709 391 
Q 2188 391 2477 730 
Q 2766 1069 2766 1631 
L 2766 1759 
L 2194 1759 
z
M 3341 1997 
L 3341 0 
L 2766 0 
L 2766 531 
Q 2569 213 2275 61 
Q 1981 -91 1556 -91 
Q 1019 -91 701 211 
Q 384 513 384 1019 
Q 384 1609 779 1909 
Q 1175 2209 1959 2209 
L 2766 2209 
L 2766 2266 
Q 2766 2663 2505 2880 
Q 2244 3097 1772 3097 
Q 1472 3097 1187 3025 
Q 903 2953 641 2809 
L 641 3341 
Q 956 3463 1253 3523 
Q 1550 3584 1831 3584 
Q 2591 3584 2966 3190 
Q 3341 2797 3341 1997 
z
" transform="scale(0.015625)"/>
      <path id="DejaVuSans-73" d="M 2834 3397 
L 2834 2853 
Q 2591 2978 2328 3040 
Q 2066 3103 1784 3103 
Q 1356 3103 1142 2972 
Q 928 2841 928 2578 
Q 928 2378 1081 2264 
Q 1234 2150 1697 2047 
L 1894 2003 
Q 2506 1872 2764 1633 
Q 3022 1394 3022 966 
Q 3022 478 2636 193 
Q 2250 -91 1575 -91 
Q 1294 -91 989 -36 
Q 684 19 347 128 
L 347 722 
Q 666 556 975 473 
Q 1284 391 1588 391 
Q 1994 391 2212 530 
Q 2431 669 2431 922 
Q 2431 1156 2273 1281 
Q 2116 1406 1581 1522 
L 1381 1569 
Q 847 1681 609 1914 
Q 372 2147 372 2553 
Q 372 3047 722 3315 
Q 1072 3584 1716 3584 
Q 2034 3584 2315 3537 
Q 2597 3491 2834 3397 
z
" transform="scale(0.015625)"/>
      <path id="DejaVuSans-69" d="M 603 3500 
L 1178 3500 
L 1178 0 
L 603 0 
L 603 3500 
z
M 603 4863 
L 1178 4863 
L 1178 4134 
L 603 4134 
L 603 4863 
z
" transform="scale(0.015625)"/>
      <path id="DejaVuSans-63" d="M 3122 3366 
L 3122 2828 
Q 2878 2963 2633 3030 
Q 2388 3097 2138 3097 
Q 1578 3097 1268 2742 
Q 959 2388 959 1747 
Q 959 1106 1268 751 
Q 1578 397 2138 397 
Q 2388 397 2633 464 
Q 2878 531 3122 666 
L 3122 134 
Q 2881 22 2623 -34 
Q 2366 -91 2075 -91 
Q 1284 -91 818 406 
Q 353 903 353 1747 
Q 353 2603 823 3093 
Q 1294 3584 2113 3584 
Q 2378 3584 2631 3529 
Q 2884 3475 3122 3366 
z
" transform="scale(0.015625)"/>
      <path id="DejaVuSans-20" transform="scale(0.015625)"/>
      <path id="DejaVuSans-54" d="M -19 4666 
L 3928 4666 
L 3928 4134 
L 2272 4134 
L 2272 0 
L 1638 0 
L 1638 4134 
L -19 4134 
L -19 4666 
z
" transform="scale(0.015625)"/>
      <path id="DejaVuSans-72" d="M 2631 2963 
Q 2534 3019 2420 3045 
Q 2306 3072 2169 3072 
Q 1681 3072 1420 2755 
Q 1159 2438 1159 1844 
L 1159 0 
L 581 0 
L 581 3500 
L 1159 3500 
L 1159 2956 
Q 1341 3275 1631 3429 
Q 1922 3584 2338 3584 
Q 2397 3584 2469 3576 
Q 2541 3569 2628 3553 
L 2631 2963 
z
" transform="scale(0.015625)"/>
      <path id="DejaVuSans-6e" d="M 3513 2113 
L 3513 0 
L 2938 0 
L 2938 2094 
Q 2938 2591 2744 2837 
Q 2550 3084 2163 3084 
Q 1697 3084 1428 2787 
Q 1159 2491 1159 1978 
L 1159 0 
L 581 0 
L 581 3500 
L 1159 3500 
L 1159 2956 
Q 1366 3272 1645 3428 
Q 1925 3584 2291 3584 
Q 2894 3584 3203 3211 
Q 3513 2838 3513 2113 
z
" transform="scale(0.015625)"/>
      <path id="DejaVuSans-66" d="M 2375 4863 
L 2375 4384 
L 1825 4384 
Q 1516 4384 1395 4259 
Q 1275 4134 1275 3809 
L 1275 3500 
L 2222 3500 
L 2222 3053 
L 1275 3053 
L 1275 0 
L 697 0 
L 697 3053 
L 147 3053 
L 147 3500 
L 697 3500 
L 697 3744 
Q 697 4328 969 4595 
Q 1241 4863 1831 4863 
L 2375 4863 
z
" transform="scale(0.015625)"/>
      <path id="DejaVuSans-6f" d="M 1959 3097 
Q 1497 3097 1228 2736 
Q 959 2375 959 1747 
Q 959 1119 1226 758 
Q 1494 397 1959 397 
Q 2419 397 2687 759 
Q 2956 1122 2956 1747 
Q 2956 2369 2687 2733 
Q 2419 3097 1959 3097 
z
M 1959 3584 
Q 2709 3584 3137 3096 
Q 3566 2609 3566 1747 
Q 3566 888 3137 398 
Q 2709 -91 1959 -91 
Q 1206 -91 779 398 
Q 353 888 353 1747 
Q 353 2609 779 3096 
Q 1206 3584 1959 3584 
z
" transform="scale(0.015625)"/>
      <path id="DejaVuSans-6d" d="M 3328 2828 
Q 3544 3216 3844 3400 
Q 4144 3584 4550 3584 
Q 5097 3584 5394 3201 
Q 5691 2819 5691 2113 
L 5691 0 
L 5113 0 
L 5113 2094 
Q 5113 2597 4934 2840 
Q 4756 3084 4391 3084 
Q 3944 3084 3684 2787 
Q 3425 2491 3425 1978 
L 3425 0 
L 2847 0 
L 2847 2094 
Q 2847 2600 2669 2842 
Q 2491 3084 2119 3084 
Q 1678 3084 1418 2786 
Q 1159 2488 1159 1978 
L 1159 0 
L 581 0 
L 581 3500 
L 1159 3500 
L 1159 2956 
Q 1356 3278 1631 3431 
Q 1906 3584 2284 3584 
Q 2666 3584 2933 3390 
Q 3200 3197 3328 2828 
z
" transform="scale(0.015625)"/>
      <path id="DejaVuSans-65" d="M 3597 1894 
L 3597 1613 
L 953 1613 
Q 991 1019 1311 708 
Q 1631 397 2203 397 
Q 2534 397 2845 478 
Q 3156 559 3463 722 
L 3463 178 
Q 3153 47 2828 -22 
Q 2503 -91 2169 -91 
Q 1331 -91 842 396 
Q 353 884 353 1716 
Q 353 2575 817 3079 
Q 1281 3584 2069 3584 
Q 2775 3584 3186 3129 
Q 3597 2675 3597 1894 
z
M 3022 2063 
Q 3016 2534 2758 2815 
Q 2500 3097 2075 3097 
Q 1594 3097 1305 2825 
Q 1016 2553 972 2059 
L 3022 2063 
z
" transform="scale(0.015625)"/>
      <path id="DejaVuSans-64" d="M 2906 2969 
L 2906 4863 
L 3481 4863 
L 3481 0 
L 2906 0 
L 2906 525 
Q 2725 213 2448 61 
Q 2172 -91 1784 -91 
Q 1150 -91 751 415 
Q 353 922 353 1747 
Q 353 2572 751 3078 
Q 1150 3584 1784 3584 
Q 2172 3584 2448 3432 
Q 2725 3281 2906 2969 
z
M 947 1747 
Q 947 1113 1208 752 
Q 1469 391 1925 391 
Q 2381 391 2643 752 
Q 2906 1113 2906 1747 
Q 2906 2381 2643 2742 
Q 2381 3103 1925 3103 
Q 1469 3103 1208 2742 
Q 947 2381 947 1747 
z
" transform="scale(0.015625)"/>
      <path id="DejaVuSans-5f" d="M 3263 -1063 
L 3263 -1509 
L -63 -1509 
L -63 -1063 
L 3263 -1063 
z
" transform="scale(0.015625)"/>
      <path id="DejaVuSans-39" d="M 703 97 
L 703 672 
Q 941 559 1184 500 
Q 1428 441 1663 441 
Q 2288 441 2617 861 
Q 2947 1281 2994 2138 
Q 2813 1869 2534 1725 
Q 2256 1581 1919 1581 
Q 1219 1581 811 2004 
Q 403 2428 403 3163 
Q 403 3881 828 4315 
Q 1253 4750 1959 4750 
Q 2769 4750 3195 4129 
Q 3622 3509 3622 2328 
Q 3622 1225 3098 567 
Q 2575 -91 1691 -91 
Q 1453 -91 1209 -44 
Q 966 3 703 97 
z
M 1959 2075 
Q 2384 2075 2632 2365 
Q 2881 2656 2881 3163 
Q 2881 3666 2632 3958 
Q 2384 4250 1959 4250 
Q 1534 4250 1286 3958 
Q 1038 3666 1038 3163 
Q 1038 2656 1286 2365 
Q 1534 2075 1959 2075 
z
" transform="scale(0.015625)"/>
     </defs>
     <use xlink:href="#DejaVuSans-43"/>
     <use xlink:href="#DejaVuSans-6c" x="69.824219"/>
     <use xlink:href="#DejaVuSans-61" x="97.607422"/>
     <use xlink:href="#DejaVuSans-73" x="158.886719"/>
     <use xlink:href="#DejaVuSans-73" x="210.986328"/>
     <use xlink:href="#DejaVuSans-69" x="263.085938"/>
     <use xlink:href="#DejaVuSans-63" x="290.869141"/>
     <use xlink:href="#DejaVuSans-20" x="345.849609"/>
     <use xlink:href="#DejaVuSans-54" x="377.636719"/>
     <use xlink:href="#DejaVuSans-72" x="423.970703"/>
     <use xlink:href="#DejaVuSans-61" x="465.083984"/>
     <use xlink:href="#DejaVuSans-6e" x="526.363281"/>
     <use xlink:href="#DejaVuSans-73" x="589.742188"/>
     <use xlink:href="#DejaVuSans-66" x="641.841797"/>
     <use xlink:href="#DejaVuSans-6f" x="677.046875"/>
     <use xlink:href="#DejaVuSans-72" x="738.228516"/>
     <use xlink:href="#DejaVuSans-6d" x="777.591797"/>
     <use xlink:href="#DejaVuSans-65" x="875.003906"/>
     <use xlink:href="#DejaVuSans-72" x="936.527344"/>
     <use xlink:href="#DejaVuSans-20" x="977.640625"/>
     <use xlink:href="#DejaVuSans-2d" x="1009.427734"/>
     <use xlink:href="#DejaVuSans-20" x="1045.511719"/>
     <use xlink:href="#DejaVuSans-6d" x="1077.298828"/>
     <use xlink:href="#DejaVuSans-6f" x="1174.710938"/>
     <use xlink:href="#DejaVuSans-64" x="1235.892578"/>
     <use xlink:href="#DejaVuSans-65" x="1299.369141"/>
     <use xlink:href="#DejaVuSans-6c" x="1360.892578"/>
     <use xlink:href="#DejaVuSans-5f" x="1388.675781"/>
     <use xlink:href="#DejaVuSans-32" x="1438.675781"/>
     <use xlink:href="#DejaVuSans-30" x="1502.298828"/>
     <use xlink:href="#DejaVuSans-32" x="1565.921875"/>
     <use xlink:href="#DejaVuSans-33" x="1629.544922"/>
     <use xlink:href="#DejaVuSans-31" x="1693.167969"/>
     <use xlink:href="#DejaVuSans-31" x="1756.791016"/>
     <use xlink:href="#DejaVuSans-32" x="1820.414062"/>
     <use xlink:href="#DejaVuSans-33" x="1884.037109"/>
     <use xlink:href="#DejaVuSans-31" x="1947.660156"/>
     <use xlink:href="#DejaVuSans-36" x="2011.283203"/>
     <use xlink:href="#DejaVuSans-33" x="2074.90625"/>
     <use xlink:href="#DejaVuSans-30" x="2138.529297"/>
     <use xlink:href="#DejaVuSans-31" x="2202.152344"/>
     <use xlink:href="#DejaVuSans-39" x="2265.775391"/>
    </g>
   </g>
   <g id="legend_1">
    <g id="patch_7">
     <path d="M 79 95.234375 
L 161.517188 95.234375 
Q 163.517188 95.234375 163.517188 93.234375 
L 163.517188 50.2 
Q 163.517188 48.2 161.517188 48.2 
L 79 48.2 
Q 77 48.2 77 50.2 
L 77 93.234375 
Q 77 95.234375 79 95.234375 
z
" style="fill: #ffffff; opacity: 0.8; stroke: #cccccc; stroke-linejoin: miter"/>
    </g>
    <g id="line2d_16">
     <path d="M 81 56.298437 
L 91 56.298437 
L 101 56.298437 
" style="fill: none; stroke: #1f77b4; stroke-width: 1.5; stroke-linecap: square"/>
    </g>
    <g id="text_14">
     <!-- Measured -->
     <g transform="translate(109 59.798437) scale(0.1 -0.1)">
      <defs>
       <path id="DejaVuSans-4d" d="M 628 4666 
L 1569 4666 
L 2759 1491 
L 3956 4666 
L 4897 4666 
L 4897 0 
L 4281 0 
L 4281 4097 
L 3078 897 
L 2444 897 
L 1241 4097 
L 1241 0 
L 628 0 
L 628 4666 
z
" transform="scale(0.015625)"/>
       <path id="DejaVuSans-75" d="M 544 1381 
L 544 3500 
L 1119 3500 
L 1119 1403 
Q 1119 906 1312 657 
Q 1506 409 1894 409 
Q 2359 409 2629 706 
Q 2900 1003 2900 1516 
L 2900 3500 
L 3475 3500 
L 3475 0 
L 2900 0 
L 2900 538 
Q 2691 219 2414 64 
Q 2138 -91 1772 -91 
Q 1169 -91 856 284 
Q 544 659 544 1381 
z
M 1991 3584 
L 1991 3584 
z
" transform="scale(0.015625)"/>
      </defs>
      <use xlink:href="#DejaVuSans-4d"/>
      <use xlink:href="#DejaVuSans-65" x="86.279297"/>
      <use xlink:href="#DejaVuSans-61" x="147.802734"/>
      <use xlink:href="#DejaVuSans-73" x="209.082031"/>
      <use xlink:href="#DejaVuSans-75" x="261.181641"/>
      <use xlink:href="#DejaVuSans-72" x="324.560547"/>
      <use xlink:href="#DejaVuSans-65" x="363.423828"/>
      <use xlink:href="#DejaVuSans-64" x="424.947266"/>
     </g>
    </g>
    <g id="line2d_17">
     <path d="M 81 70.976562 
L 91 70.976562 
L 101 70.976562 
" style="fill: none; stroke: #ff7f0e; stroke-width: 1.5; stroke-linecap: square"/>
    </g>
    <g id="text_15">
     <!-- Fitted -->
     <g transform="translate(109 74.476562) scale(0.1 -0.1)">
      <defs>
       <path id="DejaVuSans-46" d="M 628 4666 
L 3309 4666 
L 3309 4134 
L 1259 4134 
L 1259 2759 
L 3109 2759 
L 3109 2228 
L 1259 2228 
L 1259 0 
L 628 0 
L 628 4666 
z
" transform="scale(0.015625)"/>
       <path id="DejaVuSans-74" d="M 1172 4494 
L 1172 3500 
L 2356 3500 
L 2356 3053 
L 1172 3053 
L 1172 1153 
Q 1172 725 1289 603 
Q 1406 481 1766 481 
L 2356 481 
L 2356 0 
L 1766 0 
Q 1100 0 847 248 
Q 594 497 594 1153 
L 594 3053 
L 172 3053 
L 172 3500 
L 594 3500 
L 594 4494 
L 1172 4494 
z
" transform="scale(0.015625)"/>
      </defs>
      <use xlink:href="#DejaVuSans-46"/>
      <use xlink:href="#DejaVuSans-69" x="50.269531"/>
      <use xlink:href="#DejaVuSans-74" x="78.052734"/>
      <use xlink:href="#DejaVuSans-74" x="117.261719"/>
      <use xlink:href="#DejaVuSans-65" x="156.470703"/>
      <use xlink:href="#DejaVuSans-64" x="217.994141"/>
     </g>
    </g>
    <g id="line2d_18">
     <path d="M 81 85.654687 
L 91 85.654687 
L 101 85.654687 
" style="fill: none; stroke: #2ca02c; stroke-width: 1.5; stroke-linecap: square"/>
    </g>
    <g id="text_16">
     <!-- Estimated -->
     <g transform="translate(109 89.154687) scale(0.1 -0.1)">
      <defs>
       <path id="DejaVuSans-45" d="M 628 4666 
L 3578 4666 
L 3578 4134 
L 1259 4134 
L 1259 2753 
L 3481 2753 
L 3481 2222 
L 1259 2222 
L 1259 531 
L 3634 531 
L 3634 0 
L 628 0 
L 628 4666 
z
" transform="scale(0.015625)"/>
      </defs>
      <use xlink:href="#DejaVuSans-45"/>
      <use xlink:href="#DejaVuSans-73" x="63.183594"/>
      <use xlink:href="#DejaVuSans-74" x="115.283203"/>
      <use xlink:href="#DejaVuSans-69" x="154.492188"/>
      <use xlink:href="#DejaVuSans-6d" x="182.275391"/>
      <use xlink:href="#DejaVuSans-61" x="279.6875"/>
      <use xlink:href="#DejaVuSans-74" x="340.966797"/>
      <use xlink:href="#DejaVuSans-65" x="380.175781"/>
      <use xlink:href="#DejaVuSans-64" x="441.699219"/>
     </g>
    </g>
   </g>
  </g>
 </g>
 <defs>
  <clipPath id="p9b7494e40d">
   <rect x="72" y="43.2" width="446.4" height="277.2"/>
  </clipPath>
 </defs>
</svg>
