<?xml version="1.0" encoding="utf-8" standalone="no"?>
<!DOCTYPE svg PUBLIC "-//W3C//DTD SVG 1.1//EN"
  "http://www.w3.org/Graphics/SVG/1.1/DTD/svg11.dtd">
<svg xmlns:xlink="http://www.w3.org/1999/xlink" width="576pt" height="360pt" viewBox="0 0 576 360" xmlns="http://www.w3.org/2000/svg" version="1.1">
 <metadata>
  <rdf:RDF xmlns:dc="http://purl.org/dc/elements/1.1/" xmlns:cc="http://creativecommons.org/ns#" xmlns:rdf="http://www.w3.org/1999/02/22-rdf-syntax-ns#">
   <cc:Work>
    <dc:type rdf:resource="http://purl.org/dc/dcmitype/StillImage"/>
    <dc:date>2023-11-26T16:00:04.622258</dc:date>
    <dc:format>image/svg+xml</dc:format>
    <dc:creator>
     <cc:Agent>
      <dc:title>Matplotlib v3.8.1, https://matplotlib.org/</dc:title>
     </cc:Agent>
    </dc:creator>
   </cc:Work>
  </rdf:RDF>
 </metadata>
 <defs>
  <style type="text/css">*{stroke-linejoin: round; stroke-linecap: butt}</style>
 </defs>
 <g id="figure_1">
  <g id="patch_1">
   <path d="M 0 360 
L 576 360 
L 576 0 
L 0 0 
z
" style="fill: #ffffff"/>
  </g>
  <g id="axes_1">
   <g id="patch_2">
    <path d="M 72 320.4 
L 518.4 320.4 
L 518.4 43.2 
L 72 43.2 
z
" style="fill: #ffffff"/>
   </g>
   <g id="matplotlib.axis_1">
    <g id="xtick_1">
     <g id="line2d_1">
      <defs>
       <path id="md06c87963e" d="M 0 0 
L 0 3.5 
" style="stroke: #000000; stroke-width: 0.8"/>
      </defs>
      <g>
       <use xlink:href="#md06c87963e" x="129.874161" y="320.4" style="stroke: #000000; stroke-width: 0.8"/>
      </g>
     </g>
     <g id="text_1">
      <!-- 2020-05-15 -->
      <g transform="translate(100.816349 334.998438) scale(0.1 -0.1)">
       <defs>
        <path id="DejaVuSans-32" d="M 1228 531 
L 3431 531 
L 3431 0 
L 469 0 
L 469 531 
Q 828 903 1448 1529 
Q 2069 2156 2228 2338 
Q 2531 2678 2651 2914 
Q 2772 3150 2772 3378 
Q 2772 3750 2511 3984 
Q 2250 4219 1831 4219 
Q 1534 4219 1204 4116 
Q 875 4013 500 3803 
L 500 4441 
Q 881 4594 1212 4672 
Q 1544 4750 1819 4750 
Q 2544 4750 2975 4387 
Q 3406 4025 3406 3419 
Q 3406 3131 3298 2873 
Q 3191 2616 2906 2266 
Q 2828 2175 2409 1742 
Q 1991 1309 1228 531 
z
" transform="scale(0.015625)"/>
        <path id="DejaVuSans-30" d="M 2034 4250 
Q 1547 4250 1301 3770 
Q 1056 3291 1056 2328 
Q 1056 1369 1301 889 
Q 1547 409 2034 409 
Q 2525 409 2770 889 
Q 3016 1369 3016 2328 
Q 3016 3291 2770 3770 
Q 2525 4250 2034 4250 
z
M 2034 4750 
Q 2819 4750 3233 4129 
Q 3647 3509 3647 2328 
Q 3647 1150 3233 529 
Q 2819 -91 2034 -91 
Q 1250 -91 836 529 
Q 422 1150 422 2328 
Q 422 3509 836 4129 
Q 1250 4750 2034 4750 
z
" transform="scale(0.015625)"/>
        <path id="DejaVuSans-2d" d="M 313 2009 
L 1997 2009 
L 1997 1497 
L 313 1497 
L 313 2009 
z
" transform="scale(0.015625)"/>
        <path id="DejaVuSans-35" d="M 691 4666 
L 3169 4666 
L 3169 4134 
L 1269 4134 
L 1269 2991 
Q 1406 3038 1543 3061 
Q 1681 3084 1819 3084 
Q 2600 3084 3056 2656 
Q 3513 2228 3513 1497 
Q 3513 744 3044 326 
Q 2575 -91 1722 -91 
Q 1428 -91 1123 -41 
Q 819 9 494 109 
L 494 744 
Q 775 591 1075 516 
Q 1375 441 1709 441 
Q 2250 441 2565 725 
Q 2881 1009 2881 1497 
Q 2881 1984 2565 2268 
Q 2250 2553 1709 2553 
Q 1456 2553 1204 2497 
Q 953 2441 691 2322 
L 691 4666 
z
" transform="scale(0.015625)"/>
        <path id="DejaVuSans-31" d="M 794 531 
L 1825 531 
L 1825 4091 
L 703 3866 
L 703 4441 
L 1819 4666 
L 2450 4666 
L 2450 531 
L 3481 531 
L 3481 0 
L 794 0 
L 794 531 
z
" transform="scale(0.015625)"/>
       </defs>
       <use xlink:href="#DejaVuSans-32"/>
       <use xlink:href="#DejaVuSans-30" x="63.623047"/>
       <use xlink:href="#DejaVuSans-32" x="127.246094"/>
       <use xlink:href="#DejaVuSans-30" x="190.869141"/>
       <use xlink:href="#DejaVuSans-2d" x="254.492188"/>
       <use xlink:href="#DejaVuSans-30" x="290.576172"/>
       <use xlink:href="#DejaVuSans-35" x="354.199219"/>
       <use xlink:href="#DejaVuSans-2d" x="417.822266"/>
       <use xlink:href="#DejaVuSans-31" x="453.90625"/>
       <use xlink:href="#DejaVuSans-35" x="517.529297"/>
      </g>
     </g>
    </g>
    <g id="xtick_2">
     <g id="line2d_2">
      <g>
       <use xlink:href="#md06c87963e" x="212.435902" y="320.4" style="stroke: #000000; stroke-width: 0.8"/>
      </g>
     </g>
     <g id="text_2">
      <!-- 2020-06-01 -->
      <g transform="translate(183.37809 334.998438) scale(0.1 -0.1)">
       <defs>
        <path id="DejaVuSans-36" d="M 2113 2584 
Q 1688 2584 1439 2293 
Q 1191 2003 1191 1497 
Q 1191 994 1439 701 
Q 1688 409 2113 409 
Q 2538 409 2786 701 
Q 3034 994 3034 1497 
Q 3034 2003 2786 2293 
Q 2538 2584 2113 2584 
z
M 3366 4563 
L 3366 3988 
Q 3128 4100 2886 4159 
Q 2644 4219 2406 4219 
Q 1781 4219 1451 3797 
Q 1122 3375 1075 2522 
Q 1259 2794 1537 2939 
Q 1816 3084 2150 3084 
Q 2853 3084 3261 2657 
Q 3669 2231 3669 1497 
Q 3669 778 3244 343 
Q 2819 -91 2113 -91 
Q 1303 -91 875 529 
Q 447 1150 447 2328 
Q 447 3434 972 4092 
Q 1497 4750 2381 4750 
Q 2619 4750 2861 4703 
Q 3103 4656 3366 4563 
z
" transform="scale(0.015625)"/>
       </defs>
       <use xlink:href="#DejaVuSans-32"/>
       <use xlink:href="#DejaVuSans-30" x="63.623047"/>
       <use xlink:href="#DejaVuSans-32" x="127.246094"/>
       <use xlink:href="#DejaVuSans-30" x="190.869141"/>
       <use xlink:href="#DejaVuSans-2d" x="254.492188"/>
       <use xlink:href="#DejaVuSans-30" x="290.576172"/>
       <use xlink:href="#DejaVuSans-36" x="354.199219"/>
       <use xlink:href="#DejaVuSans-2d" x="417.822266"/>
       <use xlink:href="#DejaVuSans-30" x="453.90625"/>
       <use xlink:href="#DejaVuSans-31" x="517.529297"/>
      </g>
     </g>
    </g>
    <g id="xtick_3">
     <g id="line2d_3">
      <g>
       <use xlink:href="#md06c87963e" x="280.427924" y="320.4" style="stroke: #000000; stroke-width: 0.8"/>
      </g>
     </g>
     <g id="text_3">
      <!-- 2020-06-15 -->
      <g transform="translate(251.370111 334.998438) scale(0.1 -0.1)">
       <use xlink:href="#DejaVuSans-32"/>
       <use xlink:href="#DejaVuSans-30" x="63.623047"/>
       <use xlink:href="#DejaVuSans-32" x="127.246094"/>
       <use xlink:href="#DejaVuSans-30" x="190.869141"/>
       <use xlink:href="#DejaVuSans-2d" x="254.492188"/>
       <use xlink:href="#DejaVuSans-30" x="290.576172"/>
       <use xlink:href="#DejaVuSans-36" x="354.199219"/>
       <use xlink:href="#DejaVuSans-2d" x="417.822266"/>
       <use xlink:href="#DejaVuSans-31" x="453.90625"/>
       <use xlink:href="#DejaVuSans-35" x="517.529297"/>
      </g>
     </g>
    </g>
    <g id="xtick_4">
     <g id="line2d_4">
      <g>
       <use xlink:href="#md06c87963e" x="358.133092" y="320.4" style="stroke: #000000; stroke-width: 0.8"/>
      </g>
     </g>
     <g id="text_4">
      <!-- 2020-07-01 -->
      <g transform="translate(329.075279 334.998438) scale(0.1 -0.1)">
       <defs>
        <path id="DejaVuSans-37" d="M 525 4666 
L 3525 4666 
L 3525 4397 
L 1831 0 
L 1172 0 
L 2766 4134 
L 525 4134 
L 525 4666 
z
" transform="scale(0.015625)"/>
       </defs>
       <use xlink:href="#DejaVuSans-32"/>
       <use xlink:href="#DejaVuSans-30" x="63.623047"/>
       <use xlink:href="#DejaVuSans-32" x="127.246094"/>
       <use xlink:href="#DejaVuSans-30" x="190.869141"/>
       <use xlink:href="#DejaVuSans-2d" x="254.492188"/>
       <use xlink:href="#DejaVuSans-30" x="290.576172"/>
       <use xlink:href="#DejaVuSans-37" x="354.199219"/>
       <use xlink:href="#DejaVuSans-2d" x="417.822266"/>
       <use xlink:href="#DejaVuSans-30" x="453.90625"/>
       <use xlink:href="#DejaVuSans-31" x="517.529297"/>
      </g>
     </g>
    </g>
    <g id="xtick_5">
     <g id="line2d_5">
      <g>
       <use xlink:href="#md06c87963e" x="426.125113" y="320.4" style="stroke: #000000; stroke-width: 0.8"/>
      </g>
     </g>
     <g id="text_5">
      <!-- 2020-07-15 -->
      <g transform="translate(397.067301 334.998438) scale(0.1 -0.1)">
       <use xlink:href="#DejaVuSans-32"/>
       <use xlink:href="#DejaVuSans-30" x="63.623047"/>
       <use xlink:href="#DejaVuSans-32" x="127.246094"/>
       <use xlink:href="#DejaVuSans-30" x="190.869141"/>
       <use xlink:href="#DejaVuSans-2d" x="254.492188"/>
       <use xlink:href="#DejaVuSans-30" x="290.576172"/>
       <use xlink:href="#DejaVuSans-37" x="354.199219"/>
       <use xlink:href="#DejaVuSans-2d" x="417.822266"/>
       <use xlink:href="#DejaVuSans-31" x="453.90625"/>
       <use xlink:href="#DejaVuSans-35" x="517.529297"/>
      </g>
     </g>
    </g>
    <g id="xtick_6">
     <g id="line2d_6">
      <g>
       <use xlink:href="#md06c87963e" x="508.686854" y="320.4" style="stroke: #000000; stroke-width: 0.8"/>
      </g>
     </g>
     <g id="text_6">
      <!-- 2020-08-01 -->
      <g transform="translate(479.629042 334.998438) scale(0.1 -0.1)">
       <defs>
        <path id="DejaVuSans-38" d="M 2034 2216 
Q 1584 2216 1326 1975 
Q 1069 1734 1069 1313 
Q 1069 891 1326 650 
Q 1584 409 2034 409 
Q 2484 409 2743 651 
Q 3003 894 3003 1313 
Q 3003 1734 2745 1975 
Q 2488 2216 2034 2216 
z
M 1403 2484 
Q 997 2584 770 2862 
Q 544 3141 544 3541 
Q 544 4100 942 4425 
Q 1341 4750 2034 4750 
Q 2731 4750 3128 4425 
Q 3525 4100 3525 3541 
Q 3525 3141 3298 2862 
Q 3072 2584 2669 2484 
Q 3125 2378 3379 2068 
Q 3634 1759 3634 1313 
Q 3634 634 3220 271 
Q 2806 -91 2034 -91 
Q 1263 -91 848 271 
Q 434 634 434 1313 
Q 434 1759 690 2068 
Q 947 2378 1403 2484 
z
M 1172 3481 
Q 1172 3119 1398 2916 
Q 1625 2713 2034 2713 
Q 2441 2713 2670 2916 
Q 2900 3119 2900 3481 
Q 2900 3844 2670 4047 
Q 2441 4250 2034 4250 
Q 1625 4250 1398 4047 
Q 1172 3844 1172 3481 
z
" transform="scale(0.015625)"/>
       </defs>
       <use xlink:href="#DejaVuSans-32"/>
       <use xlink:href="#DejaVuSans-30" x="63.623047"/>
       <use xlink:href="#DejaVuSans-32" x="127.246094"/>
       <use xlink:href="#DejaVuSans-30" x="190.869141"/>
       <use xlink:href="#DejaVuSans-2d" x="254.492188"/>
       <use xlink:href="#DejaVuSans-30" x="290.576172"/>
       <use xlink:href="#DejaVuSans-38" x="354.199219"/>
       <use xlink:href="#DejaVuSans-2d" x="417.822266"/>
       <use xlink:href="#DejaVuSans-30" x="453.90625"/>
       <use xlink:href="#DejaVuSans-31" x="517.529297"/>
      </g>
     </g>
    </g>
   </g>
   <g id="matplotlib.axis_2">
    <g id="ytick_1">
     <g id="line2d_7">
      <defs>
       <path id="m220c11d529" d="M 0 0 
L -3.5 0 
" style="stroke: #000000; stroke-width: 0.8"/>
      </defs>
      <g>
       <use xlink:href="#m220c11d529" x="72" y="306.184825" style="stroke: #000000; stroke-width: 0.8"/>
      </g>
     </g>
     <g id="text_7">
      <!-- −2 -->
      <g transform="translate(50.257812 309.984044) scale(0.1 -0.1)">
       <defs>
        <path id="DejaVuSans-2212" d="M 678 2272 
L 4684 2272 
L 4684 1741 
L 678 1741 
L 678 2272 
z
" transform="scale(0.015625)"/>
       </defs>
       <use xlink:href="#DejaVuSans-2212"/>
       <use xlink:href="#DejaVuSans-32" x="83.789062"/>
      </g>
     </g>
    </g>
    <g id="ytick_2">
     <g id="line2d_8">
      <g>
       <use xlink:href="#m220c11d529" x="72" y="254.46489" style="stroke: #000000; stroke-width: 0.8"/>
      </g>
     </g>
     <g id="text_8">
      <!-- −1 -->
      <g transform="translate(50.257812 258.264109) scale(0.1 -0.1)">
       <use xlink:href="#DejaVuSans-2212"/>
       <use xlink:href="#DejaVuSans-31" x="83.789062"/>
      </g>
     </g>
    </g>
    <g id="ytick_3">
     <g id="line2d_9">
      <g>
       <use xlink:href="#m220c11d529" x="72" y="202.744956" style="stroke: #000000; stroke-width: 0.8"/>
      </g>
     </g>
     <g id="text_9">
      <!-- 0 -->
      <g transform="translate(58.6375 206.544175) scale(0.1 -0.1)">
       <use xlink:href="#DejaVuSans-30"/>
      </g>
     </g>
    </g>
    <g id="ytick_4">
     <g id="line2d_10">
      <g>
       <use xlink:href="#m220c11d529" x="72" y="151.025022" style="stroke: #000000; stroke-width: 0.8"/>
      </g>
     </g>
     <g id="text_10">
      <!-- 1 -->
      <g transform="translate(58.6375 154.82424) scale(0.1 -0.1)">
       <use xlink:href="#DejaVuSans-31"/>
      </g>
     </g>
    </g>
    <g id="ytick_5">
     <g id="line2d_11">
      <g>
       <use xlink:href="#m220c11d529" x="72" y="99.305087" style="stroke: #000000; stroke-width: 0.8"/>
      </g>
     </g>
     <g id="text_11">
      <!-- 2 -->
      <g transform="translate(58.6375 103.104306) scale(0.1 -0.1)">
       <use xlink:href="#DejaVuSans-32"/>
      </g>
     </g>
    </g>
    <g id="ytick_6">
     <g id="line2d_12">
      <g>
       <use xlink:href="#m220c11d529" x="72" y="47.585153" style="stroke: #000000; stroke-width: 0.8"/>
      </g>
     </g>
     <g id="text_12">
      <!-- 3 -->
      <g transform="translate(58.6375 51.384371) scale(0.1 -0.1)">
       <defs>
        <path id="DejaVuSans-33" d="M 2597 2516 
Q 3050 2419 3304 2112 
Q 3559 1806 3559 1356 
Q 3559 666 3084 287 
Q 2609 -91 1734 -91 
Q 1441 -91 1130 -33 
Q 819 25 488 141 
L 488 750 
Q 750 597 1062 519 
Q 1375 441 1716 441 
Q 2309 441 2620 675 
Q 2931 909 2931 1356 
Q 2931 1769 2642 2001 
Q 2353 2234 1838 2234 
L 1294 2234 
L 1294 2753 
L 1863 2753 
Q 2328 2753 2575 2939 
Q 2822 3125 2822 3475 
Q 2822 3834 2567 4026 
Q 2313 4219 1838 4219 
Q 1578 4219 1281 4162 
Q 984 4106 628 3988 
L 628 4550 
Q 988 4650 1302 4700 
Q 1616 4750 1894 4750 
Q 2613 4750 3031 4423 
Q 3450 4097 3450 3541 
Q 3450 3153 3228 2886 
Q 3006 2619 2597 2516 
z
" transform="scale(0.015625)"/>
       </defs>
       <use xlink:href="#DejaVuSans-33"/>
      </g>
     </g>
    </g>
   </g>
   <g id="line2d_13">
    <path d="M 72 278.279679 
L 72.404714 289.240269 
L 72.607072 287.575883 
L 72.809429 277.26481 
L 73.214143 247.387053 
L 73.618858 235.370999 
L 75.035358 155.196313 
L 75.237715 152.334381 
L 75.440073 157.226052 
L 75.64243 165.162331 
L 75.844787 168.349021 
L 76.047144 183.084925 
L 76.654216 250.999988 
L 77.05893 274.260796 
L 77.261287 278.482653 
L 77.463645 278.1173 
L 77.666002 267.765632 
L 78.070716 240.222075 
L 78.475431 228.165426 
L 78.677788 219.336062 
L 79.487217 164.248949 
L 79.891931 148.518472 
L 80.094288 150.406129 
L 80.903717 191.406855 
L 81.713146 264.233886 
L 82.11786 278.401463 
L 82.320218 280.37031 
L 82.522575 280.086147 
L 82.724932 277.65046 
L 82.927289 271.053809 
L 83.332004 248.828168 
L 83.736718 234.985349 
L 83.939075 232.042227 
L 84.141432 232.306093 
L 84.546147 238.496797 
L 84.748504 240.526536 
L 84.950861 240.546833 
L 85.355576 244.606311 
L 85.557933 241.379026 
L 85.76029 247.305864 
L 86.569719 290.782871 
L 86.772076 296.669113 
L 86.974433 298.211715 
L 87.176791 298.272607 
L 87.379148 296.973574 
L 87.581505 293.360639 
L 87.783862 286.82488 
L 88.188577 265.492324 
L 88.390934 260.478869 
L 89.200363 252.664374 
L 89.40272 248.665789 
L 89.807434 234.35613 
L 90.212149 231.981335 
L 90.414506 229.362972 
L 90.616863 237.055682 
L 91.223935 285.992687 
L 91.628649 296.669113 
L 91.831006 296.730005 
L 92.033364 294.314616 
L 92.842792 249.660361 
L 93.04515 247.590027 
L 93.449864 239.268098 
L 93.652221 238.760663 
L 93.854578 235.919028 
L 94.056936 235.310107 
L 94.259293 232.772933 
L 94.46165 226.58223 
L 94.664007 223.821785 
L 94.866364 224.71487 
L 95.068722 227.759478 
L 95.271079 224.045056 
L 95.473436 233.828397 
L 96.080508 286.35804 
L 96.485222 295.268593 
L 96.687579 297.115656 
L 96.889937 292.914096 
L 97.699365 248.949952 
L 98.306437 238.78096 
L 98.508794 238.415607 
L 99.52058 217.87465 
L 99.722937 219.092493 
L 99.925295 223.31435 
L 100.127652 221.548477 
L 100.330009 231.372413 
L 100.937081 283.962948 
L 101.341795 295.83692 
L 101.544152 296.790898 
L 101.74651 293.19826 
L 101.948867 281.628748 
L 102.353581 252.562887 
L 102.555938 251.060881 
L 103.567724 233.848695 
L 104.377153 212.455247 
L 104.57951 213.693388 
L 104.781868 218.909817 
L 104.984225 218.889519 
L 105.186582 227.495612 
L 105.793654 280.91834 
L 106.198368 293.259152 
L 106.400725 294.964133 
L 106.603083 291.067034 
L 107.412511 246.615752 
L 107.614869 244.951367 
L 107.817226 241.399323 
L 108.22194 227.333233 
L 108.626655 206.325436 
L 108.829012 200.581275 
L 109.031369 198.75451 
L 109.638441 207.157629 
L 109.840798 212.414652 
L 110.043155 222.482157 
L 110.650227 275.762803 
L 111.054941 289.565027 
L 111.257298 291.41209 
L 111.459655 289.727406 
L 111.662013 278.685627 
L 112.066727 250.370769 
L 112.471442 235.858136 
L 113.887942 169.648054 
L 114.090299 167.354449 
L 114.292656 173.9511 
L 114.495014 185.013177 
L 114.697371 189.458305 
L 115.102085 222.38067 
L 115.709157 270.160723 
L 116.113871 283.658487 
L 116.316228 283.820866 
L 116.518586 282.217372 
L 116.720943 278.705924 
L 117.125657 252.339616 
L 118.542158 151.035348 
L 118.744515 141.252007 
L 118.946872 137.49699 
L 119.149229 141.049033 
L 119.756301 177.706117 
L 120.56573 254.511437 
L 120.970444 273.692469 
L 121.172801 277.65046 
L 121.375159 279.233656 
L 121.577516 277.833136 
L 121.779873 270.160723 
L 122.589302 220.797474 
L 123.196374 196.156444 
L 123.398731 191.731613 
L 123.601088 191.934587 
L 123.803445 191.386557 
L 124.410517 204.356589 
L 124.612874 214.972123 
L 125.219946 269.450315 
L 125.62466 283.516405 
L 125.827017 285.444657 
L 126.029374 282.988673 
L 127.04116 228.408995 
L 127.648232 192.198453 
L 128.255304 151.17743 
L 128.457661 143.87037 
L 128.660018 143.545612 
L 129.26709 186.454292 
L 130.278876 274.38258 
L 130.481233 281.953506 
L 130.68359 283.293134 
L 130.885947 280.796555 
L 132.504805 175.371918 
L 133.111877 134.066731 
L 133.314234 124.953204 
L 133.516591 126.597292 
L 133.921306 141.475278 
L 134.123663 148.660554 
L 135.135449 255.018871 
L 135.540163 267.237899 
L 135.74252 266.324517 
L 135.944878 256.074336 
L 136.349592 225.668847 
L 136.551949 219.112791 
L 136.754306 207.624468 
L 136.956664 212.049299 
L 137.159021 201.109007 
L 137.766092 192.563806 
L 137.96845 192.949456 
L 138.373164 187.71273 
L 138.777879 195.01979 
L 138.980236 195.831686 
L 139.182593 207.259115 
L 139.789665 262.082363 
L 140.194379 276.960349 
L 140.396736 278.96979 
L 140.599093 276.046966 
L 141.003808 246.798429 
L 141.408522 226.298066 
L 142.015594 213.328035 
L 142.622665 204.478373 
L 142.825023 204.214507 
L 143.02738 203.037259 
L 143.229737 203.707072 
L 143.634451 208.822014 
L 143.836809 207.624468 
L 144.039166 217.488999 
L 144.646238 265.269053 
L 145.050952 276.980646 
L 145.253309 278.239084 
L 145.455666 275.194476 
L 145.860381 246.473671 
L 146.062738 230.54022 
L 146.66981 214.586473 
L 146.872167 211.988407 
L 147.074524 210.932943 
L 147.479238 200.175327 
L 147.681596 208.375472 
L 147.883953 209.329449 
L 148.08631 211.866623 
L 148.491024 220.898961 
L 148.693382 219.57963 
L 149.098096 242.495382 
L 149.502811 269.79537 
L 149.907525 282.521833 
L 150.109882 284.531275 
L 150.312239 283.962948 
L 150.514597 281.202503 
L 150.716954 275.620721 
L 151.121668 255.201548 
L 151.526383 235.147728 
L 151.931097 229.464459 
L 152.133454 229.038214 
L 152.335811 230.966466 
L 152.538169 231.4739 
L 152.740526 229.464459 
L 152.942883 229.748622 
L 153.14524 228.794645 
L 153.347597 228.83524 
L 153.549955 225.973308 
L 153.752312 228.124831 
L 154.764098 278.50295 
L 154.966455 282.379752 
L 155.168812 283.739677 
L 155.573527 279.883173 
L 155.775884 269.044367 
L 156.78767 192.746482 
L 157.799456 151.015051 
L 158.001813 152.983898 
L 158.406528 165.913334 
L 158.608885 179.187827 
L 159.215956 246.392481 
L 159.620671 267.54236 
L 159.823028 270.688456 
L 160.025385 269.79537 
L 160.227743 260.194706 
L 160.632457 228.408995 
L 161.8466 179.147232 
L 162.251315 169.302998 
L 162.453672 169.44508 
L 162.656029 172.24612 
L 163.465458 203.402612 
L 164.072529 262.021471 
L 164.477244 280.248526 
L 164.679601 280.573284 
L 164.881958 277.406891 
L 165.084316 267.461171 
L 165.48903 236.345274 
L 166.500816 201.981794 
L 167.310245 159.945902 
L 167.512602 163.234079 
L 167.917316 183.389386 
L 168.119674 187.753325 
L 168.322031 198.876294 
L 168.929102 257.068908 
L 169.333817 271.946894 
L 169.536174 275.39745 
L 169.738531 271.804812 
L 170.143246 245.073151 
L 170.54796 215.378071 
L 171.357389 171.718388 
L 171.559746 165.811847 
L 172.166818 142.104497 
L 172.369175 143.687694 
L 172.571532 151.441296 
L 173.178604 189.620685 
L 173.785675 259.261026 
L 174.19039 278.259382 
L 174.392747 281.182206 
L 174.595104 279.396035 
L 174.999819 255.688685 
L 175.404533 231.189737 
L 177.023391 154.526499 
L 177.225748 155.033934 
L 177.428105 158.87014 
L 177.630462 175.128349 
L 177.83282 177.523441 
L 178.237534 220.756879 
L 178.642248 262.813069 
L 179.046963 281.628748 
L 179.24932 285.282278 
L 179.451677 282.805997 
L 179.654034 274.281093 
L 180.261106 235.20862 
L 181.879964 140.135651 
L 182.082321 136.928663 
L 182.284678 142.490148 
L 183.094107 197.73964 
L 183.498821 236.000218 
L 183.903536 257.04861 
L 184.30825 264.741321 
L 184.510607 266.080948 
L 184.712965 262.508608 
L 184.915322 249.376197 
L 185.724751 168.897051 
L 186.129465 147.909551 
L 186.331822 141.962416 
L 186.53418 141.211412 
L 186.736537 143.707991 
L 187.748323 183.409684 
L 188.557752 246.433076 
L 188.962466 260.357085 
L 189.164823 262.366526 
L 189.36718 262.447716 
L 189.569538 261.71701 
L 189.771895 251.121773 
L 190.986038 156.840402 
L 191.188395 151.623973 
L 191.390752 151.583378 
L 191.795467 160.575121 
L 192.604896 191.345963 
L 193.414325 253.598054 
L 193.819039 267.07552 
L 194.021396 268.130985 
L 194.426111 264.233886 
L 194.628468 255.424819 
L 195.437897 195.527225 
L 195.640254 190.594959 
L 195.842611 191.792505 
L 196.247325 197.759937 
L 196.449683 198.328264 
L 196.65204 197.942614 
L 197.056754 206.020975 
L 197.259112 206.853168 
L 197.461469 215.134502 
L 198.06854 262.711582 
L 198.473255 276.676185 
L 198.675612 276.777672 
L 198.877969 273.185034 
L 199.282684 242.881033 
L 199.687398 220.411823 
L 201.306256 155.033934 
L 201.508613 153.89728 
L 202.115684 172.794149 
L 202.318042 183.775037 
L 202.925113 246.859321 
L 203.329828 264.233886 
L 203.532185 266.30422 
L 203.734542 263.361098 
L 203.936899 252.014858 
L 204.341614 218.544464 
L 205.758114 164.715788 
L 205.960471 162.259804 
L 206.162829 162.401886 
L 206.365186 163.802406 
L 206.7699 175.473405 
L 206.972257 178.6195 
L 207.174615 189.295926 
L 207.781686 247.447945 
L 208.186401 263.361098 
L 208.388758 266.365112 
L 208.591115 263.076935 
L 208.793472 251.385639 
L 209.198187 218.097921 
L 209.805258 196.156444 
L 210.209973 176.569464 
L 210.817044 135.507846 
L 211.019402 127.145322 
L 211.221759 130.068146 
L 211.626473 154.181444 
L 211.82883 159.316683 
L 212.031188 173.829316 
L 212.638259 237.908173 
L 213.042974 256.216417 
L 213.245331 260.154111 
L 213.447688 258.469427 
L 213.650045 247.914785 
L 214.257117 205.290269 
L 214.661831 179.329908 
L 215.47126 120.853131 
L 215.875975 104.371651 
L 216.078332 103.904812 
L 216.280689 109.364809 
L 217.090118 172.205525 
L 217.697189 233.219476 
L 218.101904 251.405936 
L 218.304261 254.714411 
L 218.506618 256.054038 
L 218.708976 254.815898 
L 218.911333 242.272111 
L 219.518404 188.281057 
L 220.125476 153.592819 
L 220.327833 151.461594 
L 220.53019 153.653712 
L 221.541976 195.344548 
L 221.744334 200.418895 
L 222.553762 256.480283 
L 222.958477 267.197305 
L 223.160834 268.881988 
L 223.363191 269.227044 
L 223.565549 267.684442 
L 223.767906 259.098647 
L 224.374977 221.44699 
L 224.779692 213.977551 
L 225.386763 216.00729 
L 225.589121 219.478144 
L 225.791478 220.350931 
L 226.196192 228.611969 
L 226.398549 228.266913 
L 226.600907 234.599698 
L 227.410335 287.433801 
L 227.612693 291.41209 
L 227.81505 293.076475 
L 228.017407 289.93038 
L 228.826836 247.95538 
L 229.029193 245.661775 
L 229.23155 239.998804 
L 230.648051 177.503143 
L 230.850408 178.07147 
L 231.255122 192.279643 
L 231.45748 203.016961 
L 232.064551 265.776487 
L 232.469266 282.70451 
L 232.671623 285.383765 
L 232.87398 284.186219 
L 233.278694 259.261026 
L 233.683409 237.055682 
L 235.302267 173.403071 
L 235.504624 172.814447 
L 236.111695 191.650423 
L 236.314053 201.86001 
L 236.921124 263.097232 
L 237.325839 278.746519 
L 237.528196 281.831722 
L 237.730553 279.741091 
L 238.135267 256.135228 
L 238.539982 234.66059 
L 239.349411 204.173912 
L 239.754125 194.309381 
L 240.15884 184.241877 
L 240.361197 183.998308 
L 240.563554 189.377116 
L 240.968268 206.731383 
L 241.170626 214.200822 
L 241.777697 268.94288 
L 242.182412 284.57187 
L 242.384769 287.027854 
L 242.587126 284.084732 
L 242.99184 259.727866 
L 243.396555 242.028543 
L 245.21777 168.450508 
L 245.420127 172.63177 
L 246.027199 199.038673 
L 246.836627 271.459756 
L 247.038985 279.700496 
L 247.241342 282.826294 
L 247.443699 280.329715 
L 247.848413 257.109502 
L 249.467271 146.732302 
L 249.669628 138.775726 
L 249.871985 136.867771 
L 250.074343 137.03015 
L 250.2767 143.87037 
L 250.883772 175.513999 
L 251.6932 249.396495 
L 252.097915 263.706154 
L 252.300272 266.730465 
L 252.502629 266.994331 
L 252.704986 263.178422 
L 253.109701 230.905573 
L 253.91913 158.768654 
L 254.323844 143.200556 
L 254.728558 134.513274 
L 254.930916 133.275133 
L 255.133273 140.663383 
L 255.740345 177.584333 
L 256.549773 251.6901 
L 256.954488 266.933439 
L 257.156845 270.688456 
L 257.359202 272.332544 
L 257.561559 271.378567 
L 257.966274 242.921628 
L 258.573345 193.274215 
L 258.97806 171.921362 
L 259.382774 161.062258 
L 259.585131 157.672595 
L 259.787489 157.246349 
L 259.989846 159.824118 
L 260.39456 175.574891 
L 260.596917 188.727599 
L 261.203989 249.802442 
L 261.608704 268.232472 
L 261.811061 271.114701 
L 262.013418 270.3434 
L 262.418132 246.737537 
L 262.62049 234.904159 
L 263.025204 225.384684 
L 263.227561 222.624239 
L 263.429918 221.629667 
L 263.834633 222.888105 
L 264.03699 222.583644 
L 264.239347 223.517324 
L 264.441704 223.598513 
L 264.644062 223.334647 
L 264.846419 225.344089 
L 265.048776 229.322377 
L 265.251133 229.322377 
L 265.45349 233.280368 
L 266.060562 275.113286 
L 266.465277 287.75856 
L 266.667634 289.280864 
L 266.869991 285.160494 
L 267.072348 277.325702 
L 267.477063 251.22326 
L 268.084134 229.383269 
L 268.488849 219.254872 
L 269.09592 208.172498 
L 269.500635 204.275399 
L 269.702992 206.426923 
L 269.905349 209.978966 
L 270.107706 210.648779 
L 270.310063 216.85978 
L 270.917135 264.984889 
L 271.32185 276.777672 
L 271.524207 278.888601 
L 271.726564 277.203917 
L 274.15485 137.740559 
L 274.357208 130.677067 
L 274.559565 133.965244 
L 275.166636 158.748356 
L 275.976065 239.105719 
L 276.38078 251.487126 
L 276.583137 250.797015 
L 276.987851 229.281782 
L 277.392566 200.804546 
L 278.404352 144.702563 
L 278.606709 141.69855 
L 279.011423 128.667626 
L 279.213781 127.08443 
L 279.416138 131.285989 
L 280.023209 172.388201 
L 280.630281 242.678059 
L 281.034995 265.126971 
L 281.237353 269.937452 
L 281.43971 268.415148 
L 281.642067 262.610095 
L 282.249139 221.467288 
L 282.85621 188.321652 
L 283.867996 146.163975 
L 284.070354 144.986727 
L 284.272711 153.024493 
L 285.284497 234.883862 
L 285.689211 266.588383 
L 286.093926 281.121313 
L 286.296283 283.374324 
L 286.49864 281.588153 
L 286.700997 278.685627 
L 287.105712 248.117759 
L 287.712783 197.313395 
L 288.522212 154.506202 
L 288.724569 147.483305 
L 288.926927 145.575351 
L 289.129284 149.107096 
L 289.736355 182.435409 
L 290.545784 251.507423 
L 290.950499 266.568086 
L 291.152856 269.308233 
L 291.355213 269.389423 
L 291.55757 267.928011 
L 291.759927 255.627793 
L 292.771714 158.362706 
L 293.176428 136.685094 
L 293.581142 125.60272 
L 293.7835 123.89774 
L 293.985857 127.368593 
L 294.592928 152.537355 
L 295.402357 234.640293 
L 295.807072 249.132629 
L 296.009429 248.97025 
L 296.414143 228.957024 
L 297.830644 95.724964 
L 298.235358 82.592553 
L 298.437715 80.035082 
L 298.640073 80.298948 
L 298.84243 82.328687 
L 299.044787 90.264966 
L 299.449501 116.89514 
L 300.056573 194.898006 
L 300.461287 219.823199 
L 300.663645 225.770334 
L 300.866002 226.480743 
L 301.068359 219.74201 
L 301.473073 190.067227 
L 302.484859 86.083704 
L 302.687217 74.899843 
L 302.889574 75.00133 
L 303.091931 82.998501 
L 303.496646 91.543702 
L 303.90136 113.525774 
L 304.306074 141.130223 
L 304.913146 209.512126 
L 305.31786 234.559103 
L 305.520218 240.059696 
L 305.722575 238.293823 
L 305.924932 231.250629 
L 306.532004 191.772208 
L 307.54379 122.598707 
L 307.746147 112.510904 
L 307.948504 111.638117 
L 308.757933 143.525315 
L 309.162647 169.282701 
L 309.769719 231.534793 
L 310.174433 251.182665 
L 310.376791 255.526306 
L 310.579148 254.957979 
L 310.983862 231.818956 
L 312.198005 129.012682 
L 312.60272 117.524359 
L 312.805077 113.201016 
L 313.007434 113.749045 
L 313.209791 117.402575 
L 313.816863 144.661968 
L 314.01922 158.180029 
L 314.626292 220.026173 
L 315.031006 240.282967 
L 315.233364 244.809285 
L 315.435721 244.159768 
L 315.840435 225.607955 
L 316.24515 207.117034 
L 316.649864 195.243061 
L 317.054578 180.121507 
L 317.66165 172.692662 
L 317.864007 172.24612 
L 318.066364 171.353035 
L 318.268722 175.980839 
L 318.875793 197.861424 
L 319.685222 255.769875 
L 320.089937 268.394851 
L 320.292294 270.018642 
L 320.697008 262.18385 
L 321.101723 236.264084 
L 322.315866 159.255791 
L 322.72058 149.127394 
L 322.922937 146.833789 
L 323.125295 150.913564 
L 323.732366 178.213552 
L 324.541795 245.945939 
L 324.94651 260.072921 
L 325.148867 262.934853 
L 325.351224 262.995745 
L 325.553581 260.763032 
L 325.755938 248.584599 
L 326.970082 137.49699 
L 327.172439 131.245394 
L 327.374796 129.682495 
L 327.77951 124.181903 
L 327.981868 129.114168 
L 328.184225 137.801451 
L 328.791296 188.849384 
L 329.196011 232.062525 
L 329.398368 247.123187 
L 329.803083 257.109502 
L 330.00544 256.175823 
L 330.207797 250.634635 
L 330.814869 202.692203 
L 331.42194 164.918762 
L 331.826655 142.510445 
L 332.029012 139.648513 
L 332.231369 139.668811 
L 332.433726 139.851487 
L 332.636083 141.921821 
L 332.838441 146.407544 
L 333.243155 169.05943 
L 333.445512 177.969983 
L 334.052584 242.921628 
L 334.457298 264.457157 
L 334.659655 269.815668 
L 334.862013 267.440873 
L 335.266727 247.833596 
L 335.671442 223.760893 
L 336.48087 184.120092 
L 336.683228 179.106637 
L 336.885585 178.010578 
L 337.087942 171.901064 
L 337.290299 170.074299 
L 337.695014 176.467977 
L 338.099728 190.757338 
L 338.302085 196.562392 
L 339.111514 261.615523 
L 339.313871 267.745334 
L 339.516228 269.95775 
L 339.718586 265.938867 
L 340.1233 242.860735 
L 340.932729 198.916889 
L 342.349229 137.88264 
L 342.551587 137.801451 
L 343.158658 162.198912 
L 343.76573 224.227733 
L 344.170444 242.028543 
L 344.372801 246.737537 
L 344.575159 244.626608 
L 344.777516 237.786388 
L 345.18223 207.259115 
L 346.194016 125.582423 
L 346.598731 110.9886 
L 347.003445 104.452841 
L 347.205802 103.620648 
L 347.40816 106.766743 
L 347.610517 114.520346 
L 348.015231 140.318327 
L 348.82466 230.377841 
L 349.229374 247.285566 
L 349.431732 246.534563 
L 349.634089 240.810699 
L 349.836446 229.809514 
L 351.050589 126.597292 
L 351.455304 108.451427 
L 351.860018 99.703252 
L 352.062375 98.810167 
L 352.264733 102.402805 
L 352.46709 113.363395 
L 353.276519 195.48663 
L 353.681233 232.975907 
L 354.085947 252.92824 
L 354.288305 258.144669 
L 354.490662 258.712996 
L 354.693019 256.500581 
L 355.097733 214.951826 
L 355.704805 141.982713 
L 356.109519 117.564954 
L 356.716591 99.581468 
L 356.918948 98.505706 
L 357.121306 103.255295 
L 357.52602 128.586436 
L 357.728377 141.130223 
L 358.740163 235.513081 
L 359.144878 248.34103 
L 359.347235 250.188093 
L 359.549592 249.863335 
L 359.751949 236.020515 
L 360.763735 116.773356 
L 361.16845 97.917082 
L 361.573164 86.936194 
L 361.775521 84.662887 
L 361.977879 87.910469 
L 362.180236 94.831879 
L 362.58495 120.325399 
L 363.394379 208.071011 
L 363.799093 225.526765 
L 364.001451 226.338661 
L 364.203808 220.51331 
L 364.406165 210.56759 
L 365.013237 141.759442 
L 365.620308 77.903856 
L 366.025023 61.909514 
L 366.429737 55.8 
L 366.632094 56.287137 
L 366.834451 58.9055 
L 367.036809 67.531891 
L 367.441523 96.415075 
L 368.048595 175.209539 
L 368.453309 205.412053 
L 368.655666 213.855767 
L 368.858024 216.210264 
L 369.060381 212.35376 
L 369.262738 202.590716 
L 369.86981 139.709405 
L 370.476881 82.125713 
L 370.881596 65.664531 
L 371.083953 65.217988 
L 371.28631 65.928397 
L 371.488667 69.825496 
L 371.691024 75.995902 
L 372.298096 114.601535 
L 373.107525 198.795104 
L 373.512239 220.817771 
L 373.714597 225.141115 
L 374.119311 224.451004 
L 374.321668 211.826028 
L 375.333454 108.958861 
L 375.738169 95.826451 
L 375.940526 93.147195 
L 376.142883 92.051136 
L 376.34524 97.186376 
L 376.749955 123.187331 
L 377.559383 181.562621 
L 377.964098 215.905803 
L 378.368812 229.586243 
L 378.57117 229.809514 
L 378.773527 223.923272 
L 378.975884 212.800303 
L 380.392384 97.166078 
L 380.797099 87.321845 
L 381.201813 79.791514 
L 381.40417 83.526233 
L 382.011242 120.24421 
L 382.820671 202.428337 
L 383.225385 218.402382 
L 383.427743 219.051898 
L 383.6301 213.75428 
L 384.034814 191.691018 
L 385.0466 118.84369 
L 385.451315 102.28102 
L 385.653672 101.81418 
L 385.856029 105.569197 
L 386.058386 113.140123 
L 387.070172 182.577491 
L 387.474887 222.38067 
L 387.879601 244.098876 
L 388.284316 253.171809 
L 388.68903 255.668388 
L 388.891387 249.964822 
L 389.700816 206.751681 
L 390.307888 195.628712 
L 390.914959 182.983438 
L 391.117316 187.733027 
L 391.926745 227.008475 
L 392.533817 270.871132 
L 392.938531 283.151052 
L 393.140888 284.998115 
L 393.343246 284.551572 
L 393.545603 285.018412 
L 393.74796 276.128156 
L 394.355032 235.269512 
L 395.569175 179.208124 
L 395.771532 173.240692 
L 395.973889 174.438238 
L 396.176247 182.699275 
L 396.783318 224.430706 
L 397.188033 262.670987 
L 397.592747 280.37031 
L 397.795104 283.130755 
L 397.997461 280.613879 
L 398.402176 262.610095 
L 400.628105 135.913794 
L 400.830462 138.735131 
L 401.03282 148.619959 
L 401.639891 205.249674 
L 402.044606 249.27471 
L 402.44932 269.450315 
L 402.651677 273.428603 
L 402.854034 271.784515 
L 403.258749 253.719839 
L 403.663463 225.506468 
L 404.877607 120.223912 
L 405.282321 99.845334 
L 405.484678 95.664072 
L 405.687035 96.739833 
L 405.889393 107.172691 
L 406.294107 144.276318 
L 406.901179 221.142529 
L 407.305893 245.032556 
L 407.50825 250.594041 
L 407.710607 250.066309 
L 408.115322 228.977322 
L 409.73418 97.632918 
L 409.936537 92.741248 
L 410.138894 92.599166 
L 410.341251 97.166078 
L 410.948323 133.011267 
L 411.15068 148.802636 
L 411.757752 218.889519 
L 412.162466 242.779546 
L 412.364823 249.213818 
L 412.56718 250.979691 
L 412.971895 233.057097 
L 414.388395 135.670225 
L 414.79311 122.233354 
L 415.197824 115.616405 
L 415.400181 122.334841 
L 416.20961 184.424553 
L 416.614325 229.322377 
L 417.019039 252.217832 
L 417.221396 256.439689 
L 417.423753 255.891659 
L 417.828468 239.856722 
L 419.244968 142.855501 
L 419.649683 129.357737 
L 419.85204 125.562125 
L 420.054397 126.982943 
L 420.256754 135.568738 
L 421.066183 200.297111 
L 421.673255 254.897087 
L 422.077969 270.830537 
L 422.280326 273.286521 
L 422.482684 272.637005 
L 422.685041 272.474626 
L 423.089755 242.008245 
L 423.899184 173.606045 
L 424.708613 134.675653 
L 424.91097 131.529558 
L 425.113327 135.487549 
L 425.518042 161.346422 
L 425.720399 173.017421 
L 426.529828 246.839024 
L 426.934542 265.208161 
L 427.136899 269.632991 
L 427.339257 270.42459 
L 427.541614 270.647861 
L 427.743971 262.143255 
L 428.148685 222.238588 
L 428.755757 161.041961 
L 429.160471 135.690522 
L 429.565186 127.530972 
L 429.9699 131.407773 
L 430.374615 147.442711 
L 430.576972 158.95133 
L 431.386401 234.071966 
L 431.791115 246.16921 
L 431.993472 244.159768 
L 432.398187 224.085651 
L 433.207616 159.742928 
L 434.017044 90.183777 
L 434.219402 85.352998 
L 435.02883 112.450012 
L 435.433545 137.151934 
L 436.040617 207.522982 
L 436.445331 229.789217 
L 436.647688 234.863564 
L 436.850045 234.19375 
L 437.25476 213.835469 
L 437.659474 179.329908 
L 438.468903 106.726149 
L 438.67126 97.105186 
L 438.873617 98.059164 
L 439.075975 105.08206 
L 439.278332 104.635518 
L 439.480689 106.847933 
L 439.885403 125.176475 
L 440.290118 149.634829 
L 440.897189 222.177696 
L 441.301904 244.220661 
L 441.504261 249.579171 
L 441.706618 250.106903 
L 442.111333 235.553675 
L 442.920762 184.160687 
L 443.527833 149.716018 
L 444.134905 127.246809 
L 444.337262 124.689338 
L 444.539619 131.022123 
L 445.146691 175.534297 
L 445.753762 243.875605 
L 446.158477 264.82251 
L 446.360834 269.714181 
L 446.563191 267.745334 
L 446.967906 249.071736 
L 448.586763 140.622788 
L 448.991478 127.591864 
L 449.193835 125.298259 
L 449.396192 131.874613 
L 450.003264 171.758982 
L 450.812693 250.817312 
L 451.217407 263.949722 
L 451.419764 264.071507 
L 451.824479 247.10289 
L 452.43155 197.313395 
L 453.038622 155.927019 
L 453.443336 139.100484 
L 453.848051 131.326584 
L 454.050408 134.655356 
L 454.252765 144.519887 
L 454.65748 172.570878 
L 454.859837 180.913105 
L 455.669266 244.829582 
L 456.07398 258.205561 
L 456.276337 259.707568 
L 456.478694 257.738721 
L 456.681052 254.673816 
L 456.883409 246.778132 
L 457.288123 220.107363 
L 457.692838 209.288854 
L 457.895195 209.978966 
L 458.299909 215.662234 
L 458.502267 215.520153 
L 458.906981 211.744838 
L 459.109338 212.272571 
L 459.514053 216.372643 
L 459.71641 220.614797 
L 460.728196 277.589568 
L 461.13291 281.953506 
L 461.537625 278.685627 
L 461.739982 269.87656 
L 462.144696 235.817542 
L 463.561197 167.537126 
L 463.763554 160.372147 
L 463.965911 161.529098 
L 464.572983 180.750726 
L 465.382412 246.859321 
L 465.584769 253.679244 
L 465.787126 256.358499 
L 465.989483 253.963407 
L 467.608341 162.625157 
L 468.620127 141.718847 
L 468.822484 144.80405 
L 469.429556 170.703518 
L 470.036627 226.683717 
L 470.441342 244.240958 
L 470.643699 246.839024 
L 470.846056 244.30185 
L 471.857842 194.045515 
L 472.869628 164.188056 
L 473.071985 164.675194 
L 473.274343 162.909321 
L 473.4767 164.147462 
L 473.679057 167.882181 
L 473.881414 174.377346 
L 474.083772 175.513999 
L 474.286129 183.084925 
L 474.8932 234.518509 
L 475.297915 250.553446 
L 475.500272 252.197534 
L 475.702629 250.188093 
L 476.107344 226.135687 
L 476.512058 204.417481 
L 477.321487 173.342179 
L 477.726201 153.450738 
L 477.928558 149.939289 
L 478.333273 154.567094 
L 478.53563 158.971627 
L 479.142702 183.572063 
L 479.952131 250.451959 
L 480.356845 260.174408 
L 480.559202 259.76846 
L 480.963917 237.969065 
L 482.785131 111.272764 
L 482.987489 105.447413 
L 483.189846 102.849347 
L 483.392203 108.410832 
L 483.999275 147.747171 
L 484.606346 217.915245 
L 485.011061 240.830997 
L 485.213418 245.174638 
L 485.415775 246.108318 
L 485.82049 226.602527 
L 486.225204 195.811388 
L 487.23699 107.030609 
L 487.439347 103.986001 
L 487.844062 110.460868 
L 488.248776 128.830005 
L 489.260562 205.330864 
L 489.665277 237.055682 
L 490.069991 251.953966 
L 490.272348 254.267868 
L 490.474705 253.151512 
L 490.677063 251.405936 
L 490.87942 241.805271 
L 491.891206 163.15289 
L 492.29592 145.676838 
L 492.498277 138.390075 
L 492.700635 136.400931 
L 492.902992 138.004425 
L 493.105349 142.754014 
L 493.712421 175.81846 
L 494.52185 246.839024 
L 495.128921 264.863105 
L 495.331278 265.005187 
L 495.533636 264.396265 
L 495.735993 256.947123 
L 496.950136 166.684635 
L 497.557208 142.652527 
L 497.759565 139.344052 
L 497.961922 142.510445 
L 498.568994 173.585747 
L 499.378422 246.392481 
L 499.58078 253.131214 
L 499.783137 255.587198 
L 499.985494 252.319319 
L 500.187851 243.9162 
L 500.794923 207.502684 
L 500.99728 202.468932 
L 501.401995 189.559792 
L 501.806709 178.457121 
L 502.009066 178.010578 
L 502.211423 180.040317 
L 502.413781 180.669536 
L 502.616138 179.025448 
L 503.020852 188.605815 
L 503.223209 189.153845 
L 503.425567 196.562392 
L 504.032638 246.55486 
L 504.437353 259.443702 
L 504.63971 261.047196 
L 504.842067 258.712996 
L 505.246782 234.680888 
L 505.651496 211.196809 
L 507.270354 139.059889 
L 507.472711 135.994983 
L 507.675068 139.344052 
L 508.28214 166.989096 
L 508.889211 224.207435 
L 509.293926 241.094863 
L 509.496283 244.565716 
L 509.69864 242.759249 
L 510.103354 219.539036 
L 511.722212 114.64213 
L 512.126927 97.125484 
L 512.329284 98.688383 
L 512.936355 132.585022 
L 513.34107 170.987682 
L 513.745784 213.855767 
L 514.150499 236.264084 
L 514.352856 241.764676 
L 514.555213 242.251814 
L 514.75757 233.483342 
L 516.174071 138.065317 
L 516.376428 136.989555 
L 516.781142 146.184272 
L 516.9835 143.48472 
L 517.185857 144.012452 
L 517.590571 161.468206 
L 517.792928 165.649468 
L 517.995286 176.204111 
L 518.4 215.317179 
L 518.4 215.317179 
" clip-path="url(#p1393e1b7f2)" style="fill: none; stroke: #1f77b4; stroke-width: 1.5; stroke-linecap: square"/>
   </g>
   <g id="line2d_14">
    <path d="M 72 263.830681 
L 72.202357 263.830681 
L 72.607072 268.588163 
L 72.809429 269.272033 
L 73.011786 265.995362 
L 74.023572 223.880393 
L 75.237715 165.768756 
L 75.440073 163.869493 
L 75.64243 165.214243 
L 76.047144 174.62575 
L 76.249501 183.732735 
L 76.856573 244.772243 
L 77.261287 259.928186 
L 77.463645 264.007865 
L 77.666002 263.973547 
L 78.880145 206.625617 
L 79.284859 182.724571 
L 79.891931 159.733406 
L 80.296646 154.932679 
L 80.499003 158.601914 
L 80.70136 166.252473 
L 80.903717 180.369139 
L 81.510789 260.538127 
L 81.915503 281.223861 
L 82.320218 285.130831 
L 82.522575 280.521056 
L 83.332004 252.529405 
L 84.546147 224.406744 
L 84.748504 227.009441 
L 85.153218 247.581449 
L 85.962647 264.58289 
L 86.772076 307.8 
L 86.974433 307.67727 
L 87.176791 305.366398 
L 87.379148 300.40027 
L 87.986219 272.136998 
L 88.593291 246.547243 
L 88.795648 247.610612 
L 88.998005 250.160323 
L 89.200363 255.200483 
L 89.807434 241.815579 
L 90.009791 240.105288 
L 90.212149 242.053662 
L 90.414506 241.493148 
L 90.616863 243.594056 
L 91.021578 263.420114 
L 91.426292 291.595959 
L 91.628649 295.474605 
L 92.033364 292.846568 
L 92.235721 289.212871 
L 93.04515 244.01959 
L 93.652221 229.201043 
L 93.854578 228.901194 
L 94.259293 226.702535 
L 94.664007 216.73411 
L 94.866364 218.126595 
L 95.068722 223.4665 
L 95.675793 252.216728 
L 96.282865 290.489135 
L 96.485222 292.880207 
L 97.092294 278.606854 
L 97.699365 243.396156 
L 97.901723 242.547821 
L 98.508794 234.003364 
L 98.711151 236.66656 
L 98.913509 237.184051 
L 99.115866 235.663606 
L 99.318223 225.123804 
L 99.52058 220.969067 
L 99.722937 223.330987 
L 100.330009 241.729348 
L 101.341795 296.806408 
L 101.544152 296.808368 
L 101.74651 293.439997 
L 101.948867 285.496014 
L 102.353581 256.215318 
L 103.16301 237.190855 
L 103.567724 238.524837 
L 103.770082 237.21569 
L 103.972439 231.375842 
L 104.174796 220.622996 
L 104.377153 219.680963 
L 105.186582 240.48557 
L 105.996011 290.741964 
L 106.198368 295.196165 
L 106.80544 288.058616 
L 107.412511 250.940924 
L 108.019583 235.851429 
L 108.424297 231.734616 
L 108.626655 225.056795 
L 109.031369 198.819548 
L 109.233726 196.505955 
L 109.840798 222.294337 
L 110.245512 248.728984 
L 110.852584 287.992115 
L 111.054941 294.575595 
L 111.257298 293.564177 
L 111.459655 290.871451 
L 111.662013 286.308182 
L 112.471442 240.68007 
L 112.673799 232.08632 
L 112.876156 218.044682 
L 113.28087 205.805941 
L 113.887942 175.85856 
L 114.090299 171.563841 
L 114.292656 171.274988 
L 114.495014 176.902305 
L 114.899728 204.277828 
L 115.5068 267.616012 
L 115.911514 284.380811 
L 116.316228 288.024163 
L 116.518586 285.519671 
L 117.530372 233.804024 
L 117.935086 194.152385 
L 118.946872 139.789557 
L 119.149229 140.639619 
L 119.351587 143.980072 
L 119.756301 167.872343 
L 120.161015 219.490621 
L 120.56573 270.041111 
L 120.768087 280.955058 
L 120.970444 284.895655 
L 121.172801 286.407693 
L 121.375159 285.990357 
L 121.577516 280.969399 
L 121.779873 272.993521 
L 122.994016 192.208869 
L 123.196374 183.04137 
L 123.601088 176.803805 
L 124.005802 186.969426 
L 124.410517 205.895037 
L 124.815231 235.959948 
L 125.422303 289.881704 
L 125.62466 297.942918 
L 125.827017 298.109831 
L 126.029374 295.384971 
L 126.231732 289.914055 
L 128.255304 152.118395 
L 128.457661 141.610629 
L 128.660018 138.869868 
L 128.862375 143.754187 
L 129.26709 171.406424 
L 129.671804 218.968771 
L 130.076519 269.30537 
L 130.278876 284.738163 
L 130.481233 290.367441 
L 130.68359 290.539384 
L 130.885947 288.381022 
L 131.088305 281.370193 
L 131.695376 227.334168 
L 133.516591 113.133205 
L 133.718948 118.751427 
L 134.123663 148.835093 
L 134.528377 193.575273 
L 134.933092 251.074854 
L 135.337806 280.69102 
L 135.540163 282.553678 
L 135.74252 278.884043 
L 135.944878 267.368406 
L 136.551949 219.56571 
L 137.361378 174.589479 
L 137.766092 172.311066 
L 137.96845 170.30383 
L 138.170807 171.437221 
L 138.373164 179.592363 
L 138.575521 182.694718 
L 139.182593 207.246432 
L 139.992022 288.882721 
L 140.194379 290.159571 
L 140.396736 285.559198 
L 140.599093 284.979419 
L 140.801451 274.719657 
L 141.610879 213.043624 
L 142.015594 194.869768 
L 142.217951 197.868385 
L 142.420308 198.090093 
L 142.825023 196.673247 
L 143.02738 193.580051 
L 143.432094 198.632065 
L 144.039166 218.921541 
L 144.848595 293.125693 
L 145.050952 297.273216 
L 145.455666 290.835587 
L 145.860381 258.039738 
L 146.265095 222.263753 
L 146.872167 195.052316 
L 147.074524 195.500127 
L 147.276881 201.509792 
L 147.681596 190.226762 
L 148.08631 194.689056 
L 149.098096 250.966042 
L 149.502811 288.291487 
L 149.907525 305.8943 
L 150.312239 295.080439 
L 150.716954 280.203588 
L 151.526383 237.273605 
L 151.72874 229.08213 
L 151.931097 228.481225 
L 152.133454 228.551367 
L 152.335811 229.174165 
L 152.538169 234.11529 
L 152.740526 233.272818 
L 152.942883 235.900669 
L 153.347597 253.216004 
L 153.752312 255.084239 
L 153.954669 259.431802 
L 154.359383 276.630005 
L 154.764098 294.143221 
L 154.966455 295.783903 
L 155.168812 295.114589 
L 155.37117 291.406012 
L 155.978241 269.350822 
L 156.382956 241.49768 
L 156.78767 207.820501 
L 158.001813 159.458721 
L 158.406528 168.036105 
L 158.608885 172.005457 
L 158.811242 187.492214 
L 159.418314 266.947117 
L 159.620671 277.09058 
L 159.823028 279.910431 
L 160.025385 280.274627 
L 160.227743 278.849621 
L 160.632457 253.854491 
L 161.239529 197.627912 
L 161.644243 176.961481 
L 162.048957 165.955872 
L 162.453672 161.640851 
L 162.656029 164.676908 
L 163.060743 182.668462 
L 163.465458 211.526778 
L 163.870172 258.511127 
L 164.274887 285.93353 
L 164.477244 291.393552 
L 164.679601 291.517885 
L 165.084316 276.8301 
L 165.691387 234.514092 
L 166.096102 221.09438 
L 166.703173 193.175348 
L 166.90553 187.597407 
L 167.310245 159.368945 
L 167.512602 157.307098 
L 167.714959 160.272672 
L 168.119674 183.919854 
L 168.322031 198.258556 
L 168.929102 265.254047 
L 169.333817 296.049168 
L 169.536174 297.20841 
L 169.738531 296.739426 
L 169.940888 284.47571 
L 170.54796 224.990835 
L 171.357389 157.561943 
L 171.762103 143.845689 
L 172.166818 130.543519 
L 172.369175 131.830986 
L 172.773889 149.39815 
L 173.380961 209.74791 
L 173.785675 263.824608 
L 174.19039 288.839119 
L 174.392747 289.422911 
L 174.595104 289.025397 
L 174.797461 279.15636 
L 175.404533 222.045535 
L 175.809248 203.8358 
L 176.213962 176.360351 
L 176.416319 173.925439 
L 177.225748 149.867986 
L 177.428105 153.666027 
L 177.630462 159.706321 
L 178.035177 187.6316 
L 178.844606 289.429132 
L 179.046963 299.421645 
L 179.451677 295.378294 
L 179.654034 285.331598 
L 181.070535 176.465596 
L 181.272892 169.815103 
L 182.082321 132.877012 
L 182.284678 136.709552 
L 182.689393 157.567566 
L 183.094107 196.937937 
L 183.498821 248.024339 
L 183.903536 270.590913 
L 184.105893 271.942908 
L 184.30825 270.022892 
L 184.510607 265.307083 
L 185.320036 210.842709 
L 185.927108 153.304686 
L 186.53418 121.715428 
L 186.736537 119.418633 
L 186.938894 126.87294 
L 187.748323 183.086517 
L 188.153037 220.732524 
L 188.557752 258.362545 
L 188.962466 275.423701 
L 189.164823 273.649148 
L 189.36718 268.557033 
L 190.378966 195.220859 
L 190.783681 159.456119 
L 191.188395 139.855657 
L 191.390752 136.861951 
L 191.59311 140.314031 
L 191.795467 146.561294 
L 192.402539 179.54491 
L 192.807253 201.961519 
L 193.414325 261.055874 
L 193.616682 272.369388 
L 194.021396 280.387271 
L 194.223753 277.877766 
L 194.628468 252.227348 
L 195.640254 168.630995 
L 195.842611 163.311263 
L 196.044968 163.355932 
L 197.663826 227.624184 
L 198.06854 264.388695 
L 198.473255 291.142709 
L 198.675612 294.292439 
L 198.877969 287.978033 
L 199.080326 276.996914 
L 199.687398 221.336499 
L 200.496827 171.80777 
L 200.901541 160.727426 
L 201.508613 150.680549 
L 201.913327 162.932917 
L 202.520399 199.911282 
L 203.127471 266.947771 
L 203.329828 278.477021 
L 203.532185 278.66383 
L 203.734542 274.808027 
L 203.936899 264.954891 
L 204.746328 195.109469 
L 205.3534 167.929127 
L 205.555757 163.855004 
L 205.960471 146.262946 
L 206.162829 142.295942 
L 206.365186 146.191624 
L 206.7699 168.435025 
L 207.376972 215.054218 
L 207.984044 274.313159 
L 208.186401 284.694697 
L 208.388758 284.909724 
L 208.591115 283.192794 
L 208.793472 271.040637 
L 209.400544 211.487655 
L 210.209973 167.875959 
L 210.41233 163.690983 
L 210.817044 142.56178 
L 211.221759 125.890369 
L 211.424116 127.767406 
L 211.626473 135.895972 
L 212.031188 165.172435 
L 213.042974 270.416011 
L 213.447688 273.902759 
L 213.650045 264.914038 
L 214.257117 203.018514 
L 214.661831 167.865838 
L 215.066546 138.582538 
L 215.47126 120.82793 
L 215.875975 97.109763 
L 216.078332 93.988826 
L 216.280689 98.437441 
L 216.685403 122.374372 
L 217.292475 195.934685 
L 217.697189 235.867468 
L 217.899547 247.337549 
L 218.304261 253.191111 
L 218.506618 249.923321 
L 219.11369 219.264473 
L 219.518404 187.202334 
L 219.923119 152.483874 
L 220.53019 132.686892 
L 220.732548 131.577257 
L 220.934905 140.576361 
L 222.149048 230.915292 
L 222.75612 280.112487 
L 222.958477 284.405843 
L 223.363191 274.303794 
L 223.767906 246.986297 
L 223.970263 237.864984 
L 224.577335 196.366226 
L 224.779692 193.731799 
L 224.982049 193.018134 
L 225.184406 199.415021 
L 225.386763 202.254749 
L 225.791478 213.859746 
L 226.196192 229.772838 
L 226.398549 233.965789 
L 226.600907 233.168667 
L 226.803264 242.021602 
L 227.410335 288.193086 
L 227.612693 296.891763 
L 227.81505 298.069521 
L 228.017407 297.104768 
L 228.219764 293.219032 
L 228.826836 246.932334 
L 229.029193 232.72813 
L 230.648051 179.350771 
L 230.850408 179.254932 
L 231.052765 183.884905 
L 231.45748 208.186318 
L 231.862194 248.143102 
L 232.266908 284.948727 
L 232.469266 294.982154 
L 232.671623 293.68031 
L 232.87398 288.66334 
L 233.076337 280.518658 
L 233.683409 239.82457 
L 233.885766 233.333443 
L 234.492838 199.728441 
L 234.897552 185.893667 
L 235.302267 163.524626 
L 235.504624 161.231166 
L 235.706981 165.741621 
L 236.111695 191.741748 
L 237.325839 296.270743 
L 237.528196 297.190105 
L 237.730553 290.437758 
L 238.135267 263.833221 
L 238.539982 238.790339 
L 238.944696 221.838565 
L 239.349411 202.786922 
L 240.15884 180.214563 
L 240.361197 178.516746 
L 240.765911 193.383502 
L 241.170626 223.532771 
L 241.980054 295.573062 
L 242.182412 300.681564 
L 242.587126 296.840713 
L 242.789483 292.224994 
L 243.598912 233.385218 
L 244.813055 178.025942 
L 245.21777 167.797031 
L 245.420127 168.704074 
L 245.824841 185.017325 
L 246.027199 200.855661 
L 246.63427 272.844464 
L 247.038985 295.526389 
L 247.241342 297.350402 
L 247.443699 295.283468 
L 247.646056 290.887864 
L 249.264914 161.534286 
L 249.871985 124.747841 
L 250.074343 123.594782 
L 250.2767 129.189588 
L 250.681414 155.53831 
L 251.086129 193.268403 
L 251.490843 249.786404 
L 251.895558 274.800671 
L 252.097915 278.65116 
L 252.502629 273.48361 
L 253.109701 232.652599 
L 253.514415 196.421184 
L 254.121487 146.465328 
L 254.728558 124.31519 
L 254.930916 124.950076 
L 255.33563 141.696064 
L 255.942702 189.682519 
L 256.549773 260.260883 
L 256.954488 281.320222 
L 257.156845 283.507456 
L 257.359202 281.645797 
L 257.561559 271.352019 
L 258.97806 158.548077 
L 259.585131 147.494664 
L 259.787489 148.598522 
L 260.596917 184.769167 
L 261.001632 224.989445 
L 261.406346 271.663882 
L 261.608704 280.806611 
L 261.811061 283.762399 
L 262.013418 282.000393 
L 262.215775 276.344277 
L 262.418132 263.045566 
L 262.822847 225.31826 
L 263.429918 193.348922 
L 263.632276 191.035791 
L 263.834633 192.967709 
L 265.251133 229.509873 
L 265.655848 254.095087 
L 266.060562 286.211655 
L 266.465277 298.266225 
L 266.667634 295.308883 
L 267.072348 282.130713 
L 267.67942 241.993262 
L 269.298277 194.623444 
L 269.500635 193.800372 
L 269.905349 204.989836 
L 270.310063 225.413372 
L 271.119492 289.915078 
L 271.32185 299.217684 
L 271.524207 299.027084 
L 271.726564 293.405458 
L 271.928921 284.132896 
L 272.535993 231.832545 
L 274.357208 137.955433 
L 274.559565 133.949463 
L 274.761922 137.547252 
L 275.166636 159.074925 
L 275.368994 175.079676 
L 275.976065 250.342723 
L 276.178422 259.85502 
L 276.38078 263.381586 
L 276.583137 263.938959 
L 276.785494 261.041922 
L 276.987851 250.544085 
L 278.201995 157.06731 
L 279.011423 130.027566 
L 279.213781 127.351863 
L 279.416138 130.059108 
L 279.618495 137.513712 
L 280.023209 168.133313 
L 280.225567 187.557319 
L 280.832638 267.889119 
L 281.034995 280.048995 
L 281.237353 282.715356 
L 281.642067 273.330225 
L 282.046782 237.458518 
L 282.85621 178.412682 
L 283.260925 160.580817 
L 283.463282 156.433232 
L 283.867996 139.14853 
L 284.070354 135.321847 
L 284.272711 138.728987 
L 284.475068 148.870187 
L 285.08214 204.584616 
L 285.689211 278.557253 
L 285.891568 291.004133 
L 286.093926 293.168235 
L 286.296283 291.745984 
L 286.49864 284.961157 
L 286.903354 255.98635 
L 287.712783 196.391634 
L 287.915141 177.464549 
L 288.117498 169.803145 
L 288.724569 139.125853 
L 288.926927 137.384292 
L 289.129284 142.15363 
L 289.533998 161.610396 
L 290.14107 214.939996 
L 290.545784 257.399297 
L 290.748141 271.592615 
L 290.950499 276.878487 
L 291.152856 275.556937 
L 291.55757 265.495883 
L 293.176428 128.870031 
L 293.581142 117.569921 
L 293.7835 117.838379 
L 294.390571 142.028353 
L 294.795286 166.490242 
L 295.402357 236.768876 
L 295.807072 260.073821 
L 296.009429 258.473961 
L 296.211786 252.861982 
L 296.6165 220.532189 
L 298.033001 82.457584 
L 298.235358 77.327792 
L 298.437715 76.279781 
L 298.640073 77.916005 
L 299.044787 98.278643 
L 299.449501 126.001842 
L 299.651859 142.016744 
L 300.25893 212.830098 
L 300.663645 232.380066 
L 300.866002 232.357722 
L 301.068359 227.813727 
L 301.675431 176.844728 
L 302.282502 110.8681 
L 302.687217 86.146166 
L 302.889574 79.711644 
L 303.091931 78.095384 
L 303.496646 86.266455 
L 304.103717 134.21834 
L 304.913146 212.049845 
L 305.115503 220.838133 
L 305.520218 241.647295 
L 305.722575 241.328582 
L 305.924932 234.033692 
L 306.734361 168.310599 
L 307.139075 142.071826 
L 307.54379 130.455242 
L 307.948504 124.065962 
L 308.150861 125.751449 
L 308.353218 130.690893 
L 308.757933 151.494872 
L 309.365005 195.022037 
L 309.972076 234.968311 
L 310.174433 247.365188 
L 310.376791 249.522952 
L 310.579148 246.601117 
L 310.781505 241.296749 
L 311.186219 215.286871 
L 311.793291 163.917855 
L 312.400363 132.375301 
L 312.805077 121.773415 
L 313.007434 122.465054 
L 313.209791 126.022743 
L 313.412149 134.193129 
L 314.221578 188.739423 
L 314.423935 208.528408 
L 314.626292 215.74145 
L 315.031006 237.978479 
L 315.233364 243.121952 
L 315.435721 242.989933 
L 315.638078 235.770318 
L 316.24515 198.628662 
L 316.649864 182.829338 
L 317.256936 169.119987 
L 317.459293 170.242822 
L 317.66165 169.923813 
L 317.864007 169.937723 
L 318.066364 170.201911 
L 318.268722 174.892288 
L 318.875793 200.276637 
L 319.280508 221.61103 
L 319.887579 262.452149 
L 320.089937 267.158446 
L 320.292294 266.717872 
L 320.494651 263.315744 
L 321.911151 185.475156 
L 322.72058 147.639936 
L 322.922937 144.434556 
L 323.125295 146.275548 
L 323.327652 150.322038 
L 323.732366 174.371599 
L 324.94651 269.035285 
L 325.148867 267.522494 
L 325.553581 251.418728 
L 326.36301 196.213361 
L 326.970082 143.099997 
L 327.374796 115.96482 
L 327.577153 111.065192 
L 327.77951 111.268456 
L 327.981868 116.007602 
L 328.386582 133.835475 
L 328.791296 170.037804 
L 329.398368 248.532268 
L 329.600725 260.64146 
L 329.803083 265.632578 
L 330.00544 265.624495 
L 330.207797 262.848776 
L 330.410154 250.43592 
L 331.826655 122.263343 
L 332.029012 116.668168 
L 332.231369 115.886685 
L 332.433726 118.023788 
L 332.636083 124.152883 
L 333.040798 149.237169 
L 334.052584 235.304999 
L 334.457298 272.686492 
L 334.659655 272.706363 
L 334.862013 270.524597 
L 335.06437 262.939828 
L 335.266727 249.706764 
L 335.671442 213.06202 
L 336.48087 166.169753 
L 336.885585 158.157302 
L 337.087942 156.258089 
L 337.290299 153.164828 
L 337.492656 155.531571 
L 338.099728 188.962213 
L 338.7068 230.288085 
L 339.313871 285.335896 
L 339.516228 285.615957 
L 339.718586 282.500933 
L 339.920943 272.779418 
L 340.528015 214.033442 
L 341.337443 168.685596 
L 342.349229 139.8863 
L 342.753944 144.111521 
L 342.956301 151.698519 
L 343.361015 177.548794 
L 343.968087 238.419068 
L 344.170444 252.083427 
L 344.372801 253.806079 
L 344.979873 230.622579 
L 346.194016 123.182576 
L 346.801088 91.944828 
L 347.003445 89.755386 
L 347.205802 88.918383 
L 347.40816 96.144592 
L 347.812874 117.735495 
L 349.027017 243.454241 
L 349.229374 252.449485 
L 349.431732 249.428487 
L 349.634089 243.405851 
L 350.24116 196.875842 
L 351.050589 121.04334 
L 351.657661 96.778454 
L 351.860018 95.729309 
L 352.062375 92.781313 
L 352.46709 108.070666 
L 352.669447 118.616797 
L 353.074161 161.068791 
L 353.478876 214.266895 
L 353.88359 241.059914 
L 354.085947 250.392429 
L 354.288305 250.612389 
L 354.490662 248.152658 
L 354.895376 227.910602 
L 356.109519 121.350714 
L 356.514234 108.226727 
L 356.918948 101.306598 
L 357.121306 106.757292 
L 357.52602 129.014131 
L 357.930734 162.345632 
L 358.335449 211.489838 
L 358.94252 244.630291 
L 359.144878 245.693389 
L 359.347235 242.157708 
L 359.549592 236.118271 
L 359.751949 225.617484 
L 360.561378 151.601338 
L 361.16845 106.571612 
L 361.370807 100.708237 
L 361.573164 100.986757 
L 361.775521 102.601587 
L 362.180236 115.240972 
L 362.58495 133.537447 
L 362.787307 147.67519 
L 363.596736 225.722242 
L 363.799093 233.253461 
L 364.001451 233.222966 
L 364.203808 229.629098 
L 364.406165 221.240062 
L 364.810879 180.694997 
L 365.417951 120.801036 
L 366.025023 79.674873 
L 366.22738 78.609426 
L 366.429737 80.766758 
L 366.632094 85.611322 
L 367.239166 113.612338 
L 367.846238 167.217539 
L 368.250952 202.716896 
L 368.655666 222.143144 
L 368.858024 222.433908 
L 369.060381 217.022953 
L 369.262738 207.34468 
L 370.476881 114.407033 
L 370.881596 96.911 
L 371.083953 93.152871 
L 371.28631 93.22555 
L 371.691024 105.800271 
L 372.298096 145.898331 
L 373.107525 210.378527 
L 373.512239 229.237454 
L 373.714597 228.015961 
L 373.916954 221.973004 
L 375.535811 127.848124 
L 375.940526 114.895254 
L 376.142883 115.435512 
L 376.34524 119.079352 
L 376.749955 141.563481 
L 377.154669 168.879224 
L 377.559383 198.417896 
L 378.368812 232.453352 
L 378.57117 233.69188 
L 378.773527 229.222355 
L 379.178241 205.433549 
L 380.190027 129.435012 
L 380.594742 111.187337 
L 380.797099 110.186134 
L 381.201813 114.983705 
L 382.011242 149.146179 
L 382.213599 159.740774 
L 382.820671 206.875886 
L 383.225385 218.038418 
L 383.427743 217.630367 
L 383.6301 214.958329 
L 384.034814 196.044059 
L 384.237171 183.530318 
L 384.237171 183.530318 
" clip-path="url(#p1393e1b7f2)" style="fill: none; stroke: #ff7f0e; stroke-width: 1.5; stroke-linecap: square"/>
   </g>
   <g id="line2d_15">
    <path d="M 384.439529 171.298583 
L 385.248957 142.187528 
L 385.451315 139.669453 
L 385.653672 139.019671 
L 385.856029 140.814238 
L 386.058386 145.045926 
L 386.260743 151.715739 
L 387.272529 210.58485 
L 387.474887 214.151435 
L 388.081958 218.146647 
L 388.284316 215.493979 
L 388.486673 205.324624 
L 389.296102 142.034044 
L 390.10553 103.73917 
L 390.510245 106.557851 
L 390.914959 114.914799 
L 391.319674 134.235264 
L 392.33146 208.427371 
L 392.533817 208.99918 
L 392.938531 203.651568 
L 393.545603 174.109735 
L 394.962103 97.659948 
L 395.164461 97.107914 
L 395.366818 100.971023 
L 395.771532 115.915928 
L 396.176247 142.453458 
L 397.188033 214.473562 
L 397.39039 216.304092 
L 397.592747 212.863114 
L 397.997461 193.955001 
L 398.604533 149.043869 
L 399.211605 107.400156 
L 399.818676 88.360899 
L 400.021034 85.669956 
L 400.223391 88.464701 
L 400.425748 95.817981 
L 400.830462 123.85829 
L 401.842248 214.643948 
L 402.044606 218.893088 
L 402.246963 219.56379 
L 402.44932 215.09135 
L 403.258749 176.694638 
L 404.068178 128.626407 
L 404.675249 110.519719 
L 404.877607 108.79304 
L 405.079964 109.823751 
L 405.282321 116.096213 
L 405.687035 145.402249 
L 406.496464 214.278097 
L 406.698821 218.85021 
L 406.901179 220.724053 
L 407.103536 219.17938 
L 407.50825 207.069593 
L 408.520036 139.750566 
L 409.329465 108.431224 
L 409.531822 105.10886 
L 409.73418 104.370073 
L 409.936537 109.580103 
L 410.341251 131.309329 
L 411.15068 209.160953 
L 411.353037 215.177587 
L 411.555394 217.611537 
L 411.757752 216.267356 
L 411.960109 212.187107 
L 412.162466 205.754366 
L 412.769538 169.340828 
L 413.578966 123.495974 
L 413.983681 104.98597 
L 414.186038 101.287066 
L 414.388395 99.739477 
L 414.590752 102.113896 
L 414.995467 121.1648 
L 415.400181 154.106577 
L 416.007253 208.988557 
L 416.20961 213.994648 
L 416.411967 214.689508 
L 416.614325 212.339965 
L 416.816682 207.003609 
L 417.221396 183.013409 
L 418.435539 107.773637 
L 418.840254 94.57932 
L 419.042611 90.498279 
L 419.244968 90.94016 
L 419.649683 111.528418 
L 420.054397 143.808092 
L 420.661469 206.655528 
L 420.863826 213.86704 
L 421.066183 216.694774 
L 421.26854 217.380979 
L 421.470898 213.411365 
L 421.875612 194.553202 
L 423.292112 110.26964 
L 423.49447 102.668803 
L 423.899184 98.909755 
L 424.101541 102.103094 
L 424.506256 122.015034 
L 425.113327 181.60361 
L 425.315684 203.663145 
L 425.518042 212.887944 
L 425.720399 216.743066 
L 425.922756 218.440324 
L 426.125113 217.252274 
L 426.529828 203.652393 
L 427.946328 118.075115 
L 428.351043 103.685469 
L 428.5534 101.373531 
L 428.755757 101.889324 
L 429.160471 117.346884 
L 429.565186 153.228561 
L 430.172257 210.863632 
L 430.576972 218.371457 
L 430.779329 217.510513 
L 430.981686 213.324488 
L 431.386401 195.647129 
L 432.600544 122.290897 
L 433.005258 103.820345 
L 433.207616 100.951367 
L 433.409973 99.79033 
L 433.61233 102.962799 
L 434.017044 123.314517 
L 435.02883 213.170353 
L 435.231188 216.370294 
L 435.433545 216.903395 
L 435.635902 213.844796 
L 436.040617 197.884429 
L 437.457117 111.139357 
L 437.861831 97.502851 
L 438.064189 94.586324 
L 438.266546 94.911739 
L 438.67126 115.250184 
L 439.075975 150.349036 
L 439.683046 209.750688 
L 439.885403 215.224861 
L 440.087761 217.387036 
L 440.290118 216.697083 
L 440.694832 203.142154 
L 441.504261 150.757901 
L 441.908976 125.285436 
L 442.516047 100.33266 
L 442.920762 96.138328 
L 443.123119 100.401935 
L 443.527833 123.603685 
L 444.539619 214.352035 
L 444.741976 217.774396 
L 444.944334 218.746601 
L 445.146691 215.993095 
L 445.551405 198.467081 
L 446.967906 113.070292 
L 447.170263 104.391048 
L 447.574977 98.801625 
L 447.777335 100.065151 
L 448.182049 119.028394 
L 448.586763 157.209659 
L 449.193835 212.358933 
L 449.396192 216.796746 
L 449.598549 218.617352 
L 449.800907 217.05336 
L 450.205621 203.945007 
L 452.026836 102.030008 
L 452.229193 99.529258 
L 452.43155 99.309939 
L 452.633908 104.614091 
L 453.038622 128.075064 
L 453.848051 209.144235 
L 454.252765 217.786283 
L 454.455122 217.424973 
L 454.65748 213.745281 
L 455.062194 195.659821 
L 456.478694 109.72117 
L 456.681052 101.604121 
L 457.085766 96.867558 
L 457.288123 99.318349 
L 457.692838 120.720527 
L 458.097552 159.645782 
L 458.502267 203.067685 
L 458.704624 212.881846 
L 458.906981 216.692586 
L 459.109338 217.779925 
L 459.311695 215.288498 
L 459.71641 200.098844 
L 461.335267 103.183893 
L 461.739982 96.525422 
L 461.942339 96.411817 
L 462.144696 103.559471 
L 462.549411 130.050773 
L 463.35884 209.996136 
L 463.561197 215.601172 
L 463.763554 217.855802 
L 463.965911 217.261827 
L 464.168268 213.161432 
L 464.572983 193.423678 
L 465.787126 118.268089 
L 466.19184 101.141437 
L 466.394198 98.3702 
L 466.596555 97.419086 
L 466.798912 101.240554 
L 467.203626 123.562148 
L 468.215413 214.682466 
L 468.41777 218.039241 
L 468.620127 218.758018 
L 468.822484 215.804369 
L 469.227199 199.151588 
L 470.846056 103.718676 
L 471.250771 98.238493 
L 471.453128 99.290623 
L 471.857842 118.612124 
L 472.262557 156.07038 
L 472.869628 211.995323 
L 473.071985 216.513239 
L 473.274343 218.189513 
L 473.4767 216.554126 
L 473.679057 211.535333 
L 474.083772 191.244302 
L 475.095558 125.562951 
L 475.702629 100.616359 
L 475.904986 98.006547 
L 476.107344 97.714734 
L 476.309701 102.999052 
L 476.714415 126.959818 
L 477.523844 209.001172 
L 477.928558 218.023294 
L 478.130916 217.770376 
L 478.333273 214.012087 
L 478.737987 195.722764 
L 480.154488 109.634137 
L 480.356845 101.511983 
L 480.761559 96.927067 
L 480.963917 99.138582 
L 481.368631 120.74337 
L 481.773345 159.974107 
L 482.17806 203.487141 
L 482.380417 213.107624 
L 482.582774 216.89246 
L 482.785131 218.056791 
L 482.987489 215.75531 
L 483.392203 200.638941 
L 485.011061 104.017271 
L 485.415775 97.171603 
L 485.618132 97.377371 
L 485.82049 104.345202 
L 486.225204 130.566671 
L 487.034633 210.326268 
L 487.23699 215.826962 
L 487.439347 218.177502 
L 487.641704 217.363225 
L 487.844062 213.139754 
L 488.248776 193.57686 
L 489.462919 118.383273 
L 489.867634 101.220207 
L 490.069991 98.462239 
L 490.272348 97.622708 
L 490.474705 101.504844 
L 490.87942 124.057528 
L 491.891206 214.846563 
L 492.093563 218.047182 
L 492.29592 218.536744 
L 492.498277 215.450359 
L 492.902992 198.635733 
L 494.52185 102.861833 
L 494.926564 97.582287 
L 495.128921 98.723422 
L 495.533636 118.593307 
L 495.93835 156.165927 
L 496.343064 200.407403 
L 496.545422 212.013736 
L 496.747779 216.517627 
L 496.950136 218.172178 
L 497.152493 216.463254 
L 497.35485 211.173945 
L 497.759565 190.789246 
L 498.973708 116.006246 
L 499.378422 100.255529 
L 499.58078 97.67985 
L 499.783137 97.326431 
L 499.985494 102.807268 
L 500.390209 127.350754 
L 501.199637 209.156271 
L 501.604352 218.111142 
L 501.806709 217.797236 
L 502.009066 214.06518 
L 502.413781 195.578293 
L 503.830281 109.623866 
L 504.032638 101.582998 
L 504.234995 98.543377 
L 504.437353 97.222049 
L 504.63971 99.642112 
L 505.044424 121.21577 
L 505.651496 183.739347 
L 506.05621 213.38617 
L 506.258568 217.139489 
L 506.460925 218.24004 
L 506.663282 215.749755 
L 507.067996 200.508124 
L 508.686854 104.03668 
L 509.091568 97.371834 
L 509.293926 97.774231 
L 509.496283 105.002185 
L 509.900997 131.2946 
L 510.710426 210.625032 
L 510.912783 215.950075 
L 511.115141 218.169105 
L 511.317498 217.174926 
L 511.519855 212.848818 
L 511.924569 193.113005 
L 513.138713 117.940726 
L 513.543427 100.928173 
L 513.745784 98.196864 
L 513.948141 97.492715 
L 514.150499 101.60454 
L 514.555213 124.504354 
L 515.566999 214.962313 
L 515.769356 218.095586 
L 515.971714 218.461821 
L 516.174071 215.215481 
L 516.578785 198.050096 
L 518.197643 102.437363 
L 518.4 99.061464 
L 518.4 99.061464 
" clip-path="url(#p1393e1b7f2)" style="fill: none; stroke: #2ca02c; stroke-width: 1.5; stroke-linecap: square"/>
   </g>
   <g id="patch_3">
    <path d="M 72 320.4 
L 72 43.2 
" style="fill: none; stroke: #000000; stroke-width: 0.8; stroke-linejoin: miter; stroke-linecap: square"/>
   </g>
   <g id="patch_4">
    <path d="M 518.4 320.4 
L 518.4 43.2 
" style="fill: none; stroke: #000000; stroke-width: 0.8; stroke-linejoin: miter; stroke-linecap: square"/>
   </g>
   <g id="patch_5">
    <path d="M 72 320.4 
L 518.4 320.4 
" style="fill: none; stroke: #000000; stroke-width: 0.8; stroke-linejoin: miter; stroke-linecap: square"/>
   </g>
   <g id="patch_6">
    <path d="M 72 43.2 
L 518.4 43.2 
" style="fill: none; stroke: #000000; stroke-width: 0.8; stroke-linejoin: miter; stroke-linecap: square"/>
   </g>
   <g id="text_13">
    <!-- Classic Transformer - model_20231126155858 -->
    <g transform="translate(155.436563 37.2) scale(0.12 -0.12)">
     <defs>
      <path id="DejaVuSans-43" d="M 4122 4306 
L 4122 3641 
Q 3803 3938 3442 4084 
Q 3081 4231 2675 4231 
Q 1875 4231 1450 3742 
Q 1025 3253 1025 2328 
Q 1025 1406 1450 917 
Q 1875 428 2675 428 
Q 3081 428 3442 575 
Q 3803 722 4122 1019 
L 4122 359 
Q 3791 134 3420 21 
Q 3050 -91 2638 -91 
Q 1578 -91 968 557 
Q 359 1206 359 2328 
Q 359 3453 968 4101 
Q 1578 4750 2638 4750 
Q 3056 4750 3426 4639 
Q 3797 4528 4122 4306 
z
" transform="scale(0.015625)"/>
      <path id="DejaVuSans-6c" d="M 603 4863 
L 1178 4863 
L 1178 0 
L 603 0 
L 603 4863 
z
" transform="scale(0.015625)"/>
      <path id="DejaVuSans-61" d="M 2194 1759 
Q 1497 1759 1228 1600 
Q 959 1441 959 1056 
Q 959 750 1161 570 
Q 1363 391 1709 391 
Q 2188 391 2477 730 
Q 2766 1069 2766 1631 
L 2766 1759 
L 2194 1759 
z
M 3341 1997 
L 3341 0 
L 2766 0 
L 2766 531 
Q 2569 213 2275 61 
Q 1981 -91 1556 -91 
Q 1019 -91 701 211 
Q 384 513 384 1019 
Q 384 1609 779 1909 
Q 1175 2209 1959 2209 
L 2766 2209 
L 2766 2266 
Q 2766 2663 2505 2880 
Q 2244 3097 1772 3097 
Q 1472 3097 1187 3025 
Q 903 2953 641 2809 
L 641 3341 
Q 956 3463 1253 3523 
Q 1550 3584 1831 3584 
Q 2591 3584 2966 3190 
Q 3341 2797 3341 1997 
z
" transform="scale(0.015625)"/>
      <path id="DejaVuSans-73" d="M 2834 3397 
L 2834 2853 
Q 2591 2978 2328 3040 
Q 2066 3103 1784 3103 
Q 1356 3103 1142 2972 
Q 928 2841 928 2578 
Q 928 2378 1081 2264 
Q 1234 2150 1697 2047 
L 1894 2003 
Q 2506 1872 2764 1633 
Q 3022 1394 3022 966 
Q 3022 478 2636 193 
Q 2250 -91 1575 -91 
Q 1294 -91 989 -36 
Q 684 19 347 128 
L 347 722 
Q 666 556 975 473 
Q 1284 391 1588 391 
Q 1994 391 2212 530 
Q 2431 669 2431 922 
Q 2431 1156 2273 1281 
Q 2116 1406 1581 1522 
L 1381 1569 
Q 847 1681 609 1914 
Q 372 2147 372 2553 
Q 372 3047 722 3315 
Q 1072 3584 1716 3584 
Q 2034 3584 2315 3537 
Q 2597 3491 2834 3397 
z
" transform="scale(0.015625)"/>
      <path id="DejaVuSans-69" d="M 603 3500 
L 1178 3500 
L 1178 0 
L 603 0 
L 603 3500 
z
M 603 4863 
L 1178 4863 
L 1178 4134 
L 603 4134 
L 603 4863 
z
" transform="scale(0.015625)"/>
      <path id="DejaVuSans-63" d="M 3122 3366 
L 3122 2828 
Q 2878 2963 2633 3030 
Q 2388 3097 2138 3097 
Q 1578 3097 1268 2742 
Q 959 2388 959 1747 
Q 959 1106 1268 751 
Q 1578 397 2138 397 
Q 2388 397 2633 464 
Q 2878 531 3122 666 
L 3122 134 
Q 2881 22 2623 -34 
Q 2366 -91 2075 -91 
Q 1284 -91 818 406 
Q 353 903 353 1747 
Q 353 2603 823 3093 
Q 1294 3584 2113 3584 
Q 2378 3584 2631 3529 
Q 2884 3475 3122 3366 
z
" transform="scale(0.015625)"/>
      <path id="DejaVuSans-20" transform="scale(0.015625)"/>
      <path id="DejaVuSans-54" d="M -19 4666 
L 3928 4666 
L 3928 4134 
L 2272 4134 
L 2272 0 
L 1638 0 
L 1638 4134 
L -19 4134 
L -19 4666 
z
" transform="scale(0.015625)"/>
      <path id="DejaVuSans-72" d="M 2631 2963 
Q 2534 3019 2420 3045 
Q 2306 3072 2169 3072 
Q 1681 3072 1420 2755 
Q 1159 2438 1159 1844 
L 1159 0 
L 581 0 
L 581 3500 
L 1159 3500 
L 1159 2956 
Q 1341 3275 1631 3429 
Q 1922 3584 2338 3584 
Q 2397 3584 2469 3576 
Q 2541 3569 2628 3553 
L 2631 2963 
z
" transform="scale(0.015625)"/>
      <path id="DejaVuSans-6e" d="M 3513 2113 
L 3513 0 
L 2938 0 
L 2938 2094 
Q 2938 2591 2744 2837 
Q 2550 3084 2163 3084 
Q 1697 3084 1428 2787 
Q 1159 2491 1159 1978 
L 1159 0 
L 581 0 
L 581 3500 
L 1159 3500 
L 1159 2956 
Q 1366 3272 1645 3428 
Q 1925 3584 2291 3584 
Q 2894 3584 3203 3211 
Q 3513 2838 3513 2113 
z
" transform="scale(0.015625)"/>
      <path id="DejaVuSans-66" d="M 2375 4863 
L 2375 4384 
L 1825 4384 
Q 1516 4384 1395 4259 
Q 1275 4134 1275 3809 
L 1275 3500 
L 2222 3500 
L 2222 3053 
L 1275 3053 
L 1275 0 
L 697 0 
L 697 3053 
L 147 3053 
L 147 3500 
L 697 3500 
L 697 3744 
Q 697 4328 969 4595 
Q 1241 4863 1831 4863 
L 2375 4863 
z
" transform="scale(0.015625)"/>
      <path id="DejaVuSans-6f" d="M 1959 3097 
Q 1497 3097 1228 2736 
Q 959 2375 959 1747 
Q 959 1119 1226 758 
Q 1494 397 1959 397 
Q 2419 397 2687 759 
Q 2956 1122 2956 1747 
Q 2956 2369 2687 2733 
Q 2419 3097 1959 3097 
z
M 1959 3584 
Q 2709 3584 3137 3096 
Q 3566 2609 3566 1747 
Q 3566 888 3137 398 
Q 2709 -91 1959 -91 
Q 1206 -91 779 398 
Q 353 888 353 1747 
Q 353 2609 779 3096 
Q 1206 3584 1959 3584 
z
" transform="scale(0.015625)"/>
      <path id="DejaVuSans-6d" d="M 3328 2828 
Q 3544 3216 3844 3400 
Q 4144 3584 4550 3584 
Q 5097 3584 5394 3201 
Q 5691 2819 5691 2113 
L 5691 0 
L 5113 0 
L 5113 2094 
Q 5113 2597 4934 2840 
Q 4756 3084 4391 3084 
Q 3944 3084 3684 2787 
Q 3425 2491 3425 1978 
L 3425 0 
L 2847 0 
L 2847 2094 
Q 2847 2600 2669 2842 
Q 2491 3084 2119 3084 
Q 1678 3084 1418 2786 
Q 1159 2488 1159 1978 
L 1159 0 
L 581 0 
L 581 3500 
L 1159 3500 
L 1159 2956 
Q 1356 3278 1631 3431 
Q 1906 3584 2284 3584 
Q 2666 3584 2933 3390 
Q 3200 3197 3328 2828 
z
" transform="scale(0.015625)"/>
      <path id="DejaVuSans-65" d="M 3597 1894 
L 3597 1613 
L 953 1613 
Q 991 1019 1311 708 
Q 1631 397 2203 397 
Q 2534 397 2845 478 
Q 3156 559 3463 722 
L 3463 178 
Q 3153 47 2828 -22 
Q 2503 -91 2169 -91 
Q 1331 -91 842 396 
Q 353 884 353 1716 
Q 353 2575 817 3079 
Q 1281 3584 2069 3584 
Q 2775 3584 3186 3129 
Q 3597 2675 3597 1894 
z
M 3022 2063 
Q 3016 2534 2758 2815 
Q 2500 3097 2075 3097 
Q 1594 3097 1305 2825 
Q 1016 2553 972 2059 
L 3022 2063 
z
" transform="scale(0.015625)"/>
      <path id="DejaVuSans-64" d="M 2906 2969 
L 2906 4863 
L 3481 4863 
L 3481 0 
L 2906 0 
L 2906 525 
Q 2725 213 2448 61 
Q 2172 -91 1784 -91 
Q 1150 -91 751 415 
Q 353 922 353 1747 
Q 353 2572 751 3078 
Q 1150 3584 1784 3584 
Q 2172 3584 2448 3432 
Q 2725 3281 2906 2969 
z
M 947 1747 
Q 947 1113 1208 752 
Q 1469 391 1925 391 
Q 2381 391 2643 752 
Q 2906 1113 2906 1747 
Q 2906 2381 2643 2742 
Q 2381 3103 1925 3103 
Q 1469 3103 1208 2742 
Q 947 2381 947 1747 
z
" transform="scale(0.015625)"/>
      <path id="DejaVuSans-5f" d="M 3263 -1063 
L 3263 -1509 
L -63 -1509 
L -63 -1063 
L 3263 -1063 
z
" transform="scale(0.015625)"/>
     </defs>
     <use xlink:href="#DejaVuSans-43"/>
     <use xlink:href="#DejaVuSans-6c" x="69.824219"/>
     <use xlink:href="#DejaVuSans-61" x="97.607422"/>
     <use xlink:href="#DejaVuSans-73" x="158.886719"/>
     <use xlink:href="#DejaVuSans-73" x="210.986328"/>
     <use xlink:href="#DejaVuSans-69" x="263.085938"/>
     <use xlink:href="#DejaVuSans-63" x="290.869141"/>
     <use xlink:href="#DejaVuSans-20" x="345.849609"/>
     <use xlink:href="#DejaVuSans-54" x="377.636719"/>
     <use xlink:href="#DejaVuSans-72" x="423.970703"/>
     <use xlink:href="#DejaVuSans-61" x="465.083984"/>
     <use xlink:href="#DejaVuSans-6e" x="526.363281"/>
     <use xlink:href="#DejaVuSans-73" x="589.742188"/>
     <use xlink:href="#DejaVuSans-66" x="641.841797"/>
     <use xlink:href="#DejaVuSans-6f" x="677.046875"/>
     <use xlink:href="#DejaVuSans-72" x="738.228516"/>
     <use xlink:href="#DejaVuSans-6d" x="777.591797"/>
     <use xlink:href="#DejaVuSans-65" x="875.003906"/>
     <use xlink:href="#DejaVuSans-72" x="936.527344"/>
     <use xlink:href="#DejaVuSans-20" x="977.640625"/>
     <use xlink:href="#DejaVuSans-2d" x="1009.427734"/>
     <use xlink:href="#DejaVuSans-20" x="1045.511719"/>
     <use xlink:href="#DejaVuSans-6d" x="1077.298828"/>
     <use xlink:href="#DejaVuSans-6f" x="1174.710938"/>
     <use xlink:href="#DejaVuSans-64" x="1235.892578"/>
     <use xlink:href="#DejaVuSans-65" x="1299.369141"/>
     <use xlink:href="#DejaVuSans-6c" x="1360.892578"/>
     <use xlink:href="#DejaVuSans-5f" x="1388.675781"/>
     <use xlink:href="#DejaVuSans-32" x="1438.675781"/>
     <use xlink:href="#DejaVuSans-30" x="1502.298828"/>
     <use xlink:href="#DejaVuSans-32" x="1565.921875"/>
     <use xlink:href="#DejaVuSans-33" x="1629.544922"/>
     <use xlink:href="#DejaVuSans-31" x="1693.167969"/>
     <use xlink:href="#DejaVuSans-31" x="1756.791016"/>
     <use xlink:href="#DejaVuSans-32" x="1820.414062"/>
     <use xlink:href="#DejaVuSans-36" x="1884.037109"/>
     <use xlink:href="#DejaVuSans-31" x="1947.660156"/>
     <use xlink:href="#DejaVuSans-35" x="2011.283203"/>
     <use xlink:href="#DejaVuSans-35" x="2074.90625"/>
     <use xlink:href="#DejaVuSans-38" x="2138.529297"/>
     <use xlink:href="#DejaVuSans-35" x="2202.152344"/>
     <use xlink:href="#DejaVuSans-38" x="2265.775391"/>
    </g>
   </g>
   <g id="legend_1">
    <g id="patch_7">
     <path d="M 79 95.234375 
L 161.517188 95.234375 
Q 163.517188 95.234375 163.517188 93.234375 
L 163.517188 50.2 
Q 163.517188 48.2 161.517188 48.2 
L 79 48.2 
Q 77 48.2 77 50.2 
L 77 93.234375 
Q 77 95.234375 79 95.234375 
z
" style="fill: #ffffff; opacity: 0.8; stroke: #cccccc; stroke-linejoin: miter"/>
    </g>
    <g id="line2d_16">
     <path d="M 81 56.298437 
L 91 56.298437 
L 101 56.298437 
" style="fill: none; stroke: #1f77b4; stroke-width: 1.5; stroke-linecap: square"/>
    </g>
    <g id="text_14">
     <!-- Measured -->
     <g transform="translate(109 59.798437) scale(0.1 -0.1)">
      <defs>
       <path id="DejaVuSans-4d" d="M 628 4666 
L 1569 4666 
L 2759 1491 
L 3956 4666 
L 4897 4666 
L 4897 0 
L 4281 0 
L 4281 4097 
L 3078 897 
L 2444 897 
L 1241 4097 
L 1241 0 
L 628 0 
L 628 4666 
z
" transform="scale(0.015625)"/>
       <path id="DejaVuSans-75" d="M 544 1381 
L 544 3500 
L 1119 3500 
L 1119 1403 
Q 1119 906 1312 657 
Q 1506 409 1894 409 
Q 2359 409 2629 706 
Q 2900 1003 2900 1516 
L 2900 3500 
L 3475 3500 
L 3475 0 
L 2900 0 
L 2900 538 
Q 2691 219 2414 64 
Q 2138 -91 1772 -91 
Q 1169 -91 856 284 
Q 544 659 544 1381 
z
M 1991 3584 
L 1991 3584 
z
" transform="scale(0.015625)"/>
      </defs>
      <use xlink:href="#DejaVuSans-4d"/>
      <use xlink:href="#DejaVuSans-65" x="86.279297"/>
      <use xlink:href="#DejaVuSans-61" x="147.802734"/>
      <use xlink:href="#DejaVuSans-73" x="209.082031"/>
      <use xlink:href="#DejaVuSans-75" x="261.181641"/>
      <use xlink:href="#DejaVuSans-72" x="324.560547"/>
      <use xlink:href="#DejaVuSans-65" x="363.423828"/>
      <use xlink:href="#DejaVuSans-64" x="424.947266"/>
     </g>
    </g>
    <g id="line2d_17">
     <path d="M 81 70.976562 
L 91 70.976562 
L 101 70.976562 
" style="fill: none; stroke: #ff7f0e; stroke-width: 1.5; stroke-linecap: square"/>
    </g>
    <g id="text_15">
     <!-- Fitted -->
     <g transform="translate(109 74.476562) scale(0.1 -0.1)">
      <defs>
       <path id="DejaVuSans-46" d="M 628 4666 
L 3309 4666 
L 3309 4134 
L 1259 4134 
L 1259 2759 
L 3109 2759 
L 3109 2228 
L 1259 2228 
L 1259 0 
L 628 0 
L 628 4666 
z
" transform="scale(0.015625)"/>
       <path id="DejaVuSans-74" d="M 1172 4494 
L 1172 3500 
L 2356 3500 
L 2356 3053 
L 1172 3053 
L 1172 1153 
Q 1172 725 1289 603 
Q 1406 481 1766 481 
L 2356 481 
L 2356 0 
L 1766 0 
Q 1100 0 847 248 
Q 594 497 594 1153 
L 594 3053 
L 172 3053 
L 172 3500 
L 594 3500 
L 594 4494 
L 1172 4494 
z
" transform="scale(0.015625)"/>
      </defs>
      <use xlink:href="#DejaVuSans-46"/>
      <use xlink:href="#DejaVuSans-69" x="50.269531"/>
      <use xlink:href="#DejaVuSans-74" x="78.052734"/>
      <use xlink:href="#DejaVuSans-74" x="117.261719"/>
      <use xlink:href="#DejaVuSans-65" x="156.470703"/>
      <use xlink:href="#DejaVuSans-64" x="217.994141"/>
     </g>
    </g>
    <g id="line2d_18">
     <path d="M 81 85.654687 
L 91 85.654687 
L 101 85.654687 
" style="fill: none; stroke: #2ca02c; stroke-width: 1.5; stroke-linecap: square"/>
    </g>
    <g id="text_16">
     <!-- Estimated -->
     <g transform="translate(109 89.154687) scale(0.1 -0.1)">
      <defs>
       <path id="DejaVuSans-45" d="M 628 4666 
L 3578 4666 
L 3578 4134 
L 1259 4134 
L 1259 2753 
L 3481 2753 
L 3481 2222 
L 1259 2222 
L 1259 531 
L 3634 531 
L 3634 0 
L 628 0 
L 628 4666 
z
" transform="scale(0.015625)"/>
      </defs>
      <use xlink:href="#DejaVuSans-45"/>
      <use xlink:href="#DejaVuSans-73" x="63.183594"/>
      <use xlink:href="#DejaVuSans-74" x="115.283203"/>
      <use xlink:href="#DejaVuSans-69" x="154.492188"/>
      <use xlink:href="#DejaVuSans-6d" x="182.275391"/>
      <use xlink:href="#DejaVuSans-61" x="279.6875"/>
      <use xlink:href="#DejaVuSans-74" x="340.966797"/>
      <use xlink:href="#DejaVuSans-65" x="380.175781"/>
      <use xlink:href="#DejaVuSans-64" x="441.699219"/>
     </g>
    </g>
   </g>
  </g>
 </g>
 <defs>
  <clipPath id="p1393e1b7f2">
   <rect x="72" y="43.2" width="446.4" height="277.2"/>
  </clipPath>
 </defs>
</svg>
