<?xml version="1.0" encoding="utf-8" standalone="no"?>
<!DOCTYPE svg PUBLIC "-//W3C//DTD SVG 1.1//EN"
  "http://www.w3.org/Graphics/SVG/1.1/DTD/svg11.dtd">
<svg xmlns:xlink="http://www.w3.org/1999/xlink" width="576pt" height="360pt" viewBox="0 0 576 360" xmlns="http://www.w3.org/2000/svg" version="1.1">
 <metadata>
  <rdf:RDF xmlns:dc="http://purl.org/dc/elements/1.1/" xmlns:cc="http://creativecommons.org/ns#" xmlns:rdf="http://www.w3.org/1999/02/22-rdf-syntax-ns#">
   <cc:Work>
    <dc:type rdf:resource="http://purl.org/dc/dcmitype/StillImage"/>
    <dc:date>2023-11-26T19:06:36.619274</dc:date>
    <dc:format>image/svg+xml</dc:format>
    <dc:creator>
     <cc:Agent>
      <dc:title>Matplotlib v3.8.1, https://matplotlib.org/</dc:title>
     </cc:Agent>
    </dc:creator>
   </cc:Work>
  </rdf:RDF>
 </metadata>
 <defs>
  <style type="text/css">*{stroke-linejoin: round; stroke-linecap: butt}</style>
 </defs>
 <g id="figure_1">
  <g id="patch_1">
   <path d="M 0 360 
L 576 360 
L 576 0 
L 0 0 
z
" style="fill: #ffffff"/>
  </g>
  <g id="axes_1">
   <g id="patch_2">
    <path d="M 72 320.4 
L 518.4 320.4 
L 518.4 43.2 
L 72 43.2 
z
" style="fill: #ffffff"/>
   </g>
   <g id="matplotlib.axis_1">
    <g id="xtick_1">
     <g id="line2d_1">
      <defs>
       <path id="m1f567b7e77" d="M 0 0 
L 0 3.5 
" style="stroke: #000000; stroke-width: 0.8"/>
      </defs>
      <g>
       <use xlink:href="#m1f567b7e77" x="129.874161" y="320.4" style="stroke: #000000; stroke-width: 0.8"/>
      </g>
     </g>
     <g id="text_1">
      <!-- 2020-05-15 -->
      <g transform="translate(100.816349 334.998438) scale(0.1 -0.1)">
       <defs>
        <path id="DejaVuSans-32" d="M 1228 531 
L 3431 531 
L 3431 0 
L 469 0 
L 469 531 
Q 828 903 1448 1529 
Q 2069 2156 2228 2338 
Q 2531 2678 2651 2914 
Q 2772 3150 2772 3378 
Q 2772 3750 2511 3984 
Q 2250 4219 1831 4219 
Q 1534 4219 1204 4116 
Q 875 4013 500 3803 
L 500 4441 
Q 881 4594 1212 4672 
Q 1544 4750 1819 4750 
Q 2544 4750 2975 4387 
Q 3406 4025 3406 3419 
Q 3406 3131 3298 2873 
Q 3191 2616 2906 2266 
Q 2828 2175 2409 1742 
Q 1991 1309 1228 531 
z
" transform="scale(0.015625)"/>
        <path id="DejaVuSans-30" d="M 2034 4250 
Q 1547 4250 1301 3770 
Q 1056 3291 1056 2328 
Q 1056 1369 1301 889 
Q 1547 409 2034 409 
Q 2525 409 2770 889 
Q 3016 1369 3016 2328 
Q 3016 3291 2770 3770 
Q 2525 4250 2034 4250 
z
M 2034 4750 
Q 2819 4750 3233 4129 
Q 3647 3509 3647 2328 
Q 3647 1150 3233 529 
Q 2819 -91 2034 -91 
Q 1250 -91 836 529 
Q 422 1150 422 2328 
Q 422 3509 836 4129 
Q 1250 4750 2034 4750 
z
" transform="scale(0.015625)"/>
        <path id="DejaVuSans-2d" d="M 313 2009 
L 1997 2009 
L 1997 1497 
L 313 1497 
L 313 2009 
z
" transform="scale(0.015625)"/>
        <path id="DejaVuSans-35" d="M 691 4666 
L 3169 4666 
L 3169 4134 
L 1269 4134 
L 1269 2991 
Q 1406 3038 1543 3061 
Q 1681 3084 1819 3084 
Q 2600 3084 3056 2656 
Q 3513 2228 3513 1497 
Q 3513 744 3044 326 
Q 2575 -91 1722 -91 
Q 1428 -91 1123 -41 
Q 819 9 494 109 
L 494 744 
Q 775 591 1075 516 
Q 1375 441 1709 441 
Q 2250 441 2565 725 
Q 2881 1009 2881 1497 
Q 2881 1984 2565 2268 
Q 2250 2553 1709 2553 
Q 1456 2553 1204 2497 
Q 953 2441 691 2322 
L 691 4666 
z
" transform="scale(0.015625)"/>
        <path id="DejaVuSans-31" d="M 794 531 
L 1825 531 
L 1825 4091 
L 703 3866 
L 703 4441 
L 1819 4666 
L 2450 4666 
L 2450 531 
L 3481 531 
L 3481 0 
L 794 0 
L 794 531 
z
" transform="scale(0.015625)"/>
       </defs>
       <use xlink:href="#DejaVuSans-32"/>
       <use xlink:href="#DejaVuSans-30" x="63.623047"/>
       <use xlink:href="#DejaVuSans-32" x="127.246094"/>
       <use xlink:href="#DejaVuSans-30" x="190.869141"/>
       <use xlink:href="#DejaVuSans-2d" x="254.492188"/>
       <use xlink:href="#DejaVuSans-30" x="290.576172"/>
       <use xlink:href="#DejaVuSans-35" x="354.199219"/>
       <use xlink:href="#DejaVuSans-2d" x="417.822266"/>
       <use xlink:href="#DejaVuSans-31" x="453.90625"/>
       <use xlink:href="#DejaVuSans-35" x="517.529297"/>
      </g>
     </g>
    </g>
    <g id="xtick_2">
     <g id="line2d_2">
      <g>
       <use xlink:href="#m1f567b7e77" x="212.435902" y="320.4" style="stroke: #000000; stroke-width: 0.8"/>
      </g>
     </g>
     <g id="text_2">
      <!-- 2020-06-01 -->
      <g transform="translate(183.37809 334.998438) scale(0.1 -0.1)">
       <defs>
        <path id="DejaVuSans-36" d="M 2113 2584 
Q 1688 2584 1439 2293 
Q 1191 2003 1191 1497 
Q 1191 994 1439 701 
Q 1688 409 2113 409 
Q 2538 409 2786 701 
Q 3034 994 3034 1497 
Q 3034 2003 2786 2293 
Q 2538 2584 2113 2584 
z
M 3366 4563 
L 3366 3988 
Q 3128 4100 2886 4159 
Q 2644 4219 2406 4219 
Q 1781 4219 1451 3797 
Q 1122 3375 1075 2522 
Q 1259 2794 1537 2939 
Q 1816 3084 2150 3084 
Q 2853 3084 3261 2657 
Q 3669 2231 3669 1497 
Q 3669 778 3244 343 
Q 2819 -91 2113 -91 
Q 1303 -91 875 529 
Q 447 1150 447 2328 
Q 447 3434 972 4092 
Q 1497 4750 2381 4750 
Q 2619 4750 2861 4703 
Q 3103 4656 3366 4563 
z
" transform="scale(0.015625)"/>
       </defs>
       <use xlink:href="#DejaVuSans-32"/>
       <use xlink:href="#DejaVuSans-30" x="63.623047"/>
       <use xlink:href="#DejaVuSans-32" x="127.246094"/>
       <use xlink:href="#DejaVuSans-30" x="190.869141"/>
       <use xlink:href="#DejaVuSans-2d" x="254.492188"/>
       <use xlink:href="#DejaVuSans-30" x="290.576172"/>
       <use xlink:href="#DejaVuSans-36" x="354.199219"/>
       <use xlink:href="#DejaVuSans-2d" x="417.822266"/>
       <use xlink:href="#DejaVuSans-30" x="453.90625"/>
       <use xlink:href="#DejaVuSans-31" x="517.529297"/>
      </g>
     </g>
    </g>
    <g id="xtick_3">
     <g id="line2d_3">
      <g>
       <use xlink:href="#m1f567b7e77" x="280.427924" y="320.4" style="stroke: #000000; stroke-width: 0.8"/>
      </g>
     </g>
     <g id="text_3">
      <!-- 2020-06-15 -->
      <g transform="translate(251.370111 334.998438) scale(0.1 -0.1)">
       <use xlink:href="#DejaVuSans-32"/>
       <use xlink:href="#DejaVuSans-30" x="63.623047"/>
       <use xlink:href="#DejaVuSans-32" x="127.246094"/>
       <use xlink:href="#DejaVuSans-30" x="190.869141"/>
       <use xlink:href="#DejaVuSans-2d" x="254.492188"/>
       <use xlink:href="#DejaVuSans-30" x="290.576172"/>
       <use xlink:href="#DejaVuSans-36" x="354.199219"/>
       <use xlink:href="#DejaVuSans-2d" x="417.822266"/>
       <use xlink:href="#DejaVuSans-31" x="453.90625"/>
       <use xlink:href="#DejaVuSans-35" x="517.529297"/>
      </g>
     </g>
    </g>
    <g id="xtick_4">
     <g id="line2d_4">
      <g>
       <use xlink:href="#m1f567b7e77" x="358.133092" y="320.4" style="stroke: #000000; stroke-width: 0.8"/>
      </g>
     </g>
     <g id="text_4">
      <!-- 2020-07-01 -->
      <g transform="translate(329.075279 334.998438) scale(0.1 -0.1)">
       <defs>
        <path id="DejaVuSans-37" d="M 525 4666 
L 3525 4666 
L 3525 4397 
L 1831 0 
L 1172 0 
L 2766 4134 
L 525 4134 
L 525 4666 
z
" transform="scale(0.015625)"/>
       </defs>
       <use xlink:href="#DejaVuSans-32"/>
       <use xlink:href="#DejaVuSans-30" x="63.623047"/>
       <use xlink:href="#DejaVuSans-32" x="127.246094"/>
       <use xlink:href="#DejaVuSans-30" x="190.869141"/>
       <use xlink:href="#DejaVuSans-2d" x="254.492188"/>
       <use xlink:href="#DejaVuSans-30" x="290.576172"/>
       <use xlink:href="#DejaVuSans-37" x="354.199219"/>
       <use xlink:href="#DejaVuSans-2d" x="417.822266"/>
       <use xlink:href="#DejaVuSans-30" x="453.90625"/>
       <use xlink:href="#DejaVuSans-31" x="517.529297"/>
      </g>
     </g>
    </g>
    <g id="xtick_5">
     <g id="line2d_5">
      <g>
       <use xlink:href="#m1f567b7e77" x="426.125113" y="320.4" style="stroke: #000000; stroke-width: 0.8"/>
      </g>
     </g>
     <g id="text_5">
      <!-- 2020-07-15 -->
      <g transform="translate(397.067301 334.998438) scale(0.1 -0.1)">
       <use xlink:href="#DejaVuSans-32"/>
       <use xlink:href="#DejaVuSans-30" x="63.623047"/>
       <use xlink:href="#DejaVuSans-32" x="127.246094"/>
       <use xlink:href="#DejaVuSans-30" x="190.869141"/>
       <use xlink:href="#DejaVuSans-2d" x="254.492188"/>
       <use xlink:href="#DejaVuSans-30" x="290.576172"/>
       <use xlink:href="#DejaVuSans-37" x="354.199219"/>
       <use xlink:href="#DejaVuSans-2d" x="417.822266"/>
       <use xlink:href="#DejaVuSans-31" x="453.90625"/>
       <use xlink:href="#DejaVuSans-35" x="517.529297"/>
      </g>
     </g>
    </g>
    <g id="xtick_6">
     <g id="line2d_6">
      <g>
       <use xlink:href="#m1f567b7e77" x="508.686854" y="320.4" style="stroke: #000000; stroke-width: 0.8"/>
      </g>
     </g>
     <g id="text_6">
      <!-- 2020-08-01 -->
      <g transform="translate(479.629042 334.998438) scale(0.1 -0.1)">
       <defs>
        <path id="DejaVuSans-38" d="M 2034 2216 
Q 1584 2216 1326 1975 
Q 1069 1734 1069 1313 
Q 1069 891 1326 650 
Q 1584 409 2034 409 
Q 2484 409 2743 651 
Q 3003 894 3003 1313 
Q 3003 1734 2745 1975 
Q 2488 2216 2034 2216 
z
M 1403 2484 
Q 997 2584 770 2862 
Q 544 3141 544 3541 
Q 544 4100 942 4425 
Q 1341 4750 2034 4750 
Q 2731 4750 3128 4425 
Q 3525 4100 3525 3541 
Q 3525 3141 3298 2862 
Q 3072 2584 2669 2484 
Q 3125 2378 3379 2068 
Q 3634 1759 3634 1313 
Q 3634 634 3220 271 
Q 2806 -91 2034 -91 
Q 1263 -91 848 271 
Q 434 634 434 1313 
Q 434 1759 690 2068 
Q 947 2378 1403 2484 
z
M 1172 3481 
Q 1172 3119 1398 2916 
Q 1625 2713 2034 2713 
Q 2441 2713 2670 2916 
Q 2900 3119 2900 3481 
Q 2900 3844 2670 4047 
Q 2441 4250 2034 4250 
Q 1625 4250 1398 4047 
Q 1172 3844 1172 3481 
z
" transform="scale(0.015625)"/>
       </defs>
       <use xlink:href="#DejaVuSans-32"/>
       <use xlink:href="#DejaVuSans-30" x="63.623047"/>
       <use xlink:href="#DejaVuSans-32" x="127.246094"/>
       <use xlink:href="#DejaVuSans-30" x="190.869141"/>
       <use xlink:href="#DejaVuSans-2d" x="254.492188"/>
       <use xlink:href="#DejaVuSans-30" x="290.576172"/>
       <use xlink:href="#DejaVuSans-38" x="354.199219"/>
       <use xlink:href="#DejaVuSans-2d" x="417.822266"/>
       <use xlink:href="#DejaVuSans-30" x="453.90625"/>
       <use xlink:href="#DejaVuSans-31" x="517.529297"/>
      </g>
     </g>
    </g>
   </g>
   <g id="matplotlib.axis_2">
    <g id="ytick_1">
     <g id="line2d_7">
      <defs>
       <path id="m2965fdee05" d="M 0 0 
L -3.5 0 
" style="stroke: #000000; stroke-width: 0.8"/>
      </defs>
      <g>
       <use xlink:href="#m2965fdee05" x="72" y="316.02311" style="stroke: #000000; stroke-width: 0.8"/>
      </g>
     </g>
     <g id="text_7">
      <!-- −2 -->
      <g transform="translate(50.257812 319.822329) scale(0.1 -0.1)">
       <defs>
        <path id="DejaVuSans-2212" d="M 678 2272 
L 4684 2272 
L 4684 1741 
L 678 1741 
L 678 2272 
z
" transform="scale(0.015625)"/>
       </defs>
       <use xlink:href="#DejaVuSans-2212"/>
       <use xlink:href="#DejaVuSans-32" x="83.789062"/>
      </g>
     </g>
    </g>
    <g id="ytick_2">
     <g id="line2d_8">
      <g>
       <use xlink:href="#m2965fdee05" x="72" y="262.270962" style="stroke: #000000; stroke-width: 0.8"/>
      </g>
     </g>
     <g id="text_8">
      <!-- −1 -->
      <g transform="translate(50.257812 266.070181) scale(0.1 -0.1)">
       <use xlink:href="#DejaVuSans-2212"/>
       <use xlink:href="#DejaVuSans-31" x="83.789062"/>
      </g>
     </g>
    </g>
    <g id="ytick_3">
     <g id="line2d_9">
      <g>
       <use xlink:href="#m2965fdee05" x="72" y="208.518814" style="stroke: #000000; stroke-width: 0.8"/>
      </g>
     </g>
     <g id="text_9">
      <!-- 0 -->
      <g transform="translate(58.6375 212.318032) scale(0.1 -0.1)">
       <use xlink:href="#DejaVuSans-30"/>
      </g>
     </g>
    </g>
    <g id="ytick_4">
     <g id="line2d_10">
      <g>
       <use xlink:href="#m2965fdee05" x="72" y="154.766666" style="stroke: #000000; stroke-width: 0.8"/>
      </g>
     </g>
     <g id="text_10">
      <!-- 1 -->
      <g transform="translate(58.6375 158.565884) scale(0.1 -0.1)">
       <use xlink:href="#DejaVuSans-31"/>
      </g>
     </g>
    </g>
    <g id="ytick_5">
     <g id="line2d_11">
      <g>
       <use xlink:href="#m2965fdee05" x="72" y="101.014518" style="stroke: #000000; stroke-width: 0.8"/>
      </g>
     </g>
     <g id="text_11">
      <!-- 2 -->
      <g transform="translate(58.6375 104.813736) scale(0.1 -0.1)">
       <use xlink:href="#DejaVuSans-32"/>
      </g>
     </g>
    </g>
    <g id="ytick_6">
     <g id="line2d_12">
      <g>
       <use xlink:href="#m2965fdee05" x="72" y="47.262369" style="stroke: #000000; stroke-width: 0.8"/>
      </g>
     </g>
     <g id="text_12">
      <!-- 3 -->
      <g transform="translate(58.6375 51.061588) scale(0.1 -0.1)">
       <defs>
        <path id="DejaVuSans-33" d="M 2597 2516 
Q 3050 2419 3304 2112 
Q 3559 1806 3559 1356 
Q 3559 666 3084 287 
Q 2609 -91 1734 -91 
Q 1441 -91 1130 -33 
Q 819 25 488 141 
L 488 750 
Q 750 597 1062 519 
Q 1375 441 1716 441 
Q 2309 441 2620 675 
Q 2931 909 2931 1356 
Q 2931 1769 2642 2001 
Q 2353 2234 1838 2234 
L 1294 2234 
L 1294 2753 
L 1863 2753 
Q 2328 2753 2575 2939 
Q 2822 3125 2822 3475 
Q 2822 3834 2567 4026 
Q 2313 4219 1838 4219 
Q 1578 4219 1281 4162 
Q 984 4106 628 3988 
L 628 4550 
Q 988 4650 1302 4700 
Q 1616 4750 1894 4750 
Q 2613 4750 3031 4423 
Q 3450 4097 3450 3541 
Q 3450 3153 3228 2886 
Q 3006 2619 2597 2516 
z
" transform="scale(0.015625)"/>
       </defs>
       <use xlink:href="#DejaVuSans-33"/>
      </g>
     </g>
    </g>
   </g>
   <g id="line2d_13">
    <path d="M 72 287.021497 
L 72.404714 298.412757 
L 72.607072 296.682973 
L 72.809429 285.96675 
L 73.214143 254.915018 
L 73.618858 242.426821 
L 75.035358 159.101858 
L 75.237715 156.127474 
L 75.440073 161.211351 
L 75.64243 169.459468 
L 75.844787 172.771371 
L 76.047144 188.086288 
L 76.654216 258.669915 
L 77.05893 282.844701 
L 77.261287 287.232446 
L 77.463645 286.852737 
L 77.666002 276.094324 
L 78.070716 247.468508 
L 78.475431 234.938122 
L 78.677788 225.761828 
L 79.487217 168.510196 
L 79.891931 152.161627 
L 80.094288 154.123456 
L 80.903717 196.735208 
L 81.713146 272.423807 
L 82.11786 287.148066 
L 82.320218 289.194274 
L 82.522575 288.898945 
L 82.724932 286.367554 
L 82.927289 279.511703 
L 83.332004 256.412757 
L 83.736718 242.026017 
L 83.939075 238.967253 
L 84.141432 239.241487 
L 84.546147 245.675439 
L 84.748504 247.784932 
L 84.950861 247.806027 
L 85.355576 252.025013 
L 85.557933 248.670919 
L 85.76029 254.830638 
L 86.569719 300.015972 
L 86.772076 306.133501 
L 86.974433 307.736715 
L 87.176791 307.8 
L 87.379148 306.449925 
L 87.581505 302.695028 
L 87.783862 295.902461 
L 88.188577 273.731693 
L 88.390934 268.521246 
L 89.200363 260.399699 
L 89.40272 256.243998 
L 89.807434 241.372074 
L 90.212149 238.903968 
L 90.414506 236.182722 
L 90.616863 244.1777 
L 91.223935 295.037569 
L 91.628649 306.133501 
L 91.831006 306.196786 
L 92.033364 303.686489 
L 92.842792 257.277649 
L 93.04515 255.125967 
L 93.449864 246.477047 
L 93.652221 245.949674 
L 93.854578 242.996384 
L 94.056936 242.363536 
L 94.259293 239.72667 
L 94.46165 233.292717 
L 94.664007 230.423807 
L 94.866364 231.351984 
L 95.068722 234.516223 
L 95.271079 230.655851 
L 95.473436 240.823606 
L 96.080508 295.417278 
L 96.485222 304.677951 
L 96.687579 306.597589 
L 96.889937 302.230939 
L 97.699365 256.539327 
L 98.306437 245.970768 
L 98.508794 245.59106 
L 99.52058 224.242993 
L 99.722937 225.508689 
L 99.925295 229.896434 
L 100.127652 228.061175 
L 100.330009 238.27112 
L 100.937081 292.928076 
L 101.341795 305.268609 
L 101.544152 306.26007 
L 101.74651 302.526268 
L 101.948867 290.50216 
L 102.353581 260.294224 
L 102.555938 258.733199 
L 103.567724 240.844701 
L 104.377153 218.610648 
L 104.57951 219.897438 
L 104.781868 225.318835 
L 104.984225 225.29774 
L 105.186582 234.241989 
L 105.793654 289.763837 
L 106.198368 302.589553 
L 106.400725 304.361527 
L 106.603083 300.311301 
L 107.412511 254.11341 
L 107.614869 252.383626 
L 107.817226 248.692014 
L 108.22194 234.07323 
L 108.626655 212.23998 
L 108.829012 206.270116 
L 109.031369 204.371572 
L 109.638441 213.104872 
L 109.840798 218.568458 
L 110.043155 229.031542 
L 110.650227 284.405726 
L 111.054941 298.750276 
L 111.257298 300.669915 
L 111.459655 298.919036 
L 111.662013 287.443395 
L 112.066727 258.015972 
L 112.471442 242.933099 
L 113.887942 174.121447 
L 114.090299 171.73772 
L 114.292656 178.593571 
L 114.495014 190.090306 
L 114.697371 194.710095 
L 115.102085 228.926067 
L 115.709157 278.583526 
L 116.113871 292.611652 
L 116.316228 292.780412 
L 116.518586 291.113913 
L 116.720943 287.46449 
L 117.125657 260.06218 
L 118.542158 154.777398 
L 118.744515 144.609643 
L 118.946872 140.707082 
L 119.149229 144.398694 
L 119.756301 182.496133 
L 120.56573 262.319337 
L 120.970444 282.254043 
L 121.172801 286.367554 
L 121.375159 288.012958 
L 121.577516 286.557408 
L 121.779873 278.583526 
L 122.589302 227.280663 
L 123.196374 201.671421 
L 123.398731 197.072727 
L 123.601088 197.283677 
L 123.803445 196.714114 
L 124.410517 210.193772 
L 124.612874 221.226419 
L 125.219946 277.845203 
L 125.62466 292.463988 
L 125.827017 294.468006 
L 126.029374 291.91552 
L 127.04116 235.191261 
L 127.648232 197.557911 
L 128.255304 154.925063 
L 128.457661 147.330889 
L 128.660018 146.99337 
L 129.26709 191.588046 
L 130.278876 282.971271 
L 130.481233 290.839679 
L 130.68359 292.231944 
L 130.885947 289.637268 
L 132.504805 180.070216 
L 133.111877 137.142039 
L 133.314234 127.670417 
L 133.516591 129.379106 
L 133.921306 144.841688 
L 134.123663 152.309292 
L 135.135449 262.84671 
L 135.540163 275.545856 
L 135.74252 274.596585 
L 135.944878 263.943646 
L 136.349592 232.343446 
L 136.551949 225.529784 
L 136.754306 213.590055 
L 136.956664 218.188749 
L 137.159021 206.818584 
L 137.766092 197.937619 
L 137.96845 198.338423 
L 138.373164 192.895932 
L 138.777879 200.490105 
L 138.980236 201.333903 
L 139.182593 213.210347 
L 139.789665 270.187745 
L 140.194379 285.650326 
L 140.396736 287.738724 
L 140.599093 284.701055 
L 141.003808 254.303265 
L 141.408522 232.997388 
L 142.015594 219.51773 
L 142.622665 210.320342 
L 142.825023 210.046107 
L 143.02738 208.822602 
L 143.229737 209.518734 
L 143.634451 214.834656 
L 143.836809 213.590055 
L 144.039166 223.84219 
L 144.646238 273.499648 
L 145.050952 285.671421 
L 145.253309 286.979307 
L 145.455666 283.815068 
L 145.860381 253.965746 
L 146.062738 237.406228 
L 146.66981 220.825615 
L 146.872167 218.125465 
L 147.074524 217.028528 
L 147.479238 205.848217 
L 147.681596 214.370568 
L 147.883953 215.362029 
L 148.08631 217.998895 
L 148.491024 227.386138 
L 148.693382 226.014967 
L 149.098096 249.83114 
L 149.502811 278.203817 
L 149.907525 291.430337 
L 150.109882 293.518734 
L 150.312239 292.928076 
L 150.514597 290.059166 
L 150.716954 284.258061 
L 151.121668 263.036565 
L 151.526383 242.194776 
L 151.931097 236.288197 
L 152.133454 235.845203 
L 152.335811 237.849221 
L 152.538169 238.376595 
L 152.740526 236.288197 
L 152.942883 236.583526 
L 153.14524 235.592064 
L 153.347597 235.634254 
L 153.549955 232.659869 
L 153.752312 234.895932 
L 154.764098 287.253541 
L 154.966455 291.282672 
L 155.168812 292.696032 
L 155.573527 288.687996 
L 155.775884 277.423305 
L 156.78767 198.127474 
L 157.799456 154.756303 
L 158.001813 156.802511 
L 158.406528 170.23998 
L 158.608885 184.036062 
L 159.215956 253.881366 
L 159.620671 275.86228 
L 159.823028 279.131994 
L 160.025385 278.203817 
L 160.227743 268.225917 
L 160.632457 235.191261 
L 161.8466 183.993872 
L 162.251315 173.762833 
L 162.453672 173.910497 
L 162.656029 176.821597 
L 163.465458 209.20231 
L 164.072529 270.12446 
L 164.477244 289.067705 
L 164.679601 289.405224 
L 164.881958 286.114415 
L 165.084316 275.777901 
L 165.48903 243.439377 
L 166.500816 207.725665 
L 167.310245 164.038071 
L 167.512602 167.45545 
L 167.917316 188.402712 
L 168.119674 192.938122 
L 168.322031 204.498142 
L 168.929102 264.977298 
L 169.333817 280.439879 
L 169.536174 284.026017 
L 169.738531 280.292215 
L 170.143246 252.510196 
L 170.54796 221.648317 
L 171.357389 176.273129 
L 171.559746 170.134505 
L 172.166818 145.49563 
L 172.369175 147.141035 
L 172.571532 155.199297 
L 173.178604 194.878855 
L 173.785675 267.25555 
L 174.19039 287.000402 
L 174.392747 290.038071 
L 174.595104 288.181718 
L 174.999819 263.542843 
L 175.404533 238.081266 
L 177.023391 158.405726 
L 177.225748 158.933099 
L 177.428105 162.92004 
L 177.630462 179.817077 
L 177.83282 182.306278 
L 178.237534 227.238473 
L 178.642248 270.947162 
L 179.046963 290.50216 
L 179.24932 294.299247 
L 179.451677 291.725665 
L 179.654034 282.865796 
L 180.261106 242.258061 
L 181.879964 143.449422 
L 182.082321 140.116424 
L 182.284678 145.896434 
L 183.094107 203.316826 
L 183.498821 243.080763 
L 183.903536 264.956203 
L 184.30825 272.95118 
L 184.510607 274.343446 
L 184.712965 270.630738 
L 184.915322 256.98232 
L 185.724751 173.340934 
L 186.129465 151.52878 
L 186.331822 145.347966 
L 186.53418 144.567454 
L 186.736537 147.16213 
L 187.748323 188.423807 
L 188.557752 253.923556 
L 188.962466 268.394676 
L 189.164823 270.483074 
L 189.36718 270.567454 
L 189.569538 269.808036 
L 189.771895 258.796484 
L 190.986038 160.810547 
L 191.188395 155.389151 
L 191.390752 155.346961 
L 191.795467 164.692014 
L 192.604896 196.671924 
L 193.414325 261.370065 
L 193.819039 275.377097 
L 194.021396 276.474033 
L 194.426111 272.423807 
L 194.628468 263.268609 
L 195.437897 201.017479 
L 195.640254 195.891411 
L 195.842611 197.136012 
L 196.247325 203.337921 
L 196.449683 203.928579 
L 196.65204 203.527775 
L 197.056754 211.923556 
L 197.259112 212.788448 
L 197.461469 221.395178 
L 198.06854 270.841688 
L 198.473255 285.354997 
L 198.675612 285.460472 
L 198.877969 281.72667 
L 199.282684 250.231944 
L 199.687398 226.879859 
L 201.306256 158.933099 
L 201.508613 157.751783 
L 202.115684 177.39116 
L 202.318042 188.803516 
L 202.925113 254.366549 
L 203.329828 272.423807 
L 203.532185 274.57549 
L 203.734542 271.516725 
L 203.936899 259.724661 
L 204.341614 224.939126 
L 205.758114 168.995379 
L 205.960471 166.442893 
L 206.162829 166.590558 
L 206.365186 168.046107 
L 206.7699 180.175691 
L 206.972257 183.445404 
L 207.174615 194.541336 
L 207.781686 254.978302 
L 208.186401 271.516725 
L 208.388758 274.638774 
L 208.591115 271.221396 
L 208.793472 259.070718 
L 209.198187 224.475038 
L 209.805258 201.671421 
L 210.209973 181.314817 
L 210.817044 138.639779 
L 211.019402 129.948669 
L 211.221759 132.986339 
L 211.626473 158.047112 
L 211.82883 163.384129 
L 212.031188 178.467002 
L 212.638259 245.063687 
L 213.042974 264.091311 
L 213.245331 268.183727 
L 213.447688 266.432848 
L 213.650045 255.463486 
L 214.257117 211.164139 
L 214.661831 184.183727 
L 215.47126 123.409242 
L 215.875975 106.280161 
L 216.078332 105.794977 
L 216.280689 111.469513 
L 217.090118 176.779407 
L 217.697189 240.190758 
L 218.101904 259.091813 
L 218.304261 262.530286 
L 218.506618 263.922551 
L 218.708976 262.635761 
L 218.911333 249.599096 
L 219.518404 193.48659 
L 220.125476 157.435359 
L 220.327833 155.220392 
L 220.53019 157.498644 
L 221.541976 200.827624 
L 221.744334 206.101356 
L 222.553762 264.365545 
L 222.958477 275.503666 
L 223.160834 277.254545 
L 223.363191 277.613159 
L 223.565549 276.009945 
L 223.767906 267.086791 
L 224.374977 227.955701 
L 224.779692 220.192767 
L 225.386763 222.30226 
L 225.589121 225.909493 
L 225.791478 226.816575 
L 226.196192 235.40221 
L 226.398549 235.043596 
L 226.600907 241.625213 
L 227.410335 296.535309 
L 227.612693 300.669915 
L 227.81505 302.399699 
L 228.017407 299.129985 
L 228.826836 255.505676 
L 229.029193 253.121949 
L 229.23155 247.236464 
L 230.648051 182.285183 
L 230.850408 182.875841 
L 231.255122 197.64229 
L 231.45748 208.801507 
L 232.064551 274.027022 
L 232.469266 291.620191 
L 232.671623 294.404721 
L 232.87398 293.160121 
L 233.278694 267.25555 
L 233.683409 244.1777 
L 235.302267 178.024008 
L 235.504624 177.412255 
L 236.111695 196.988348 
L 236.314053 207.599096 
L 236.921124 271.242491 
L 237.325839 287.50668 
L 237.528196 290.713109 
L 237.730553 288.540331 
L 238.135267 264.006931 
L 238.539982 241.688498 
L 239.349411 210.003918 
L 239.754125 199.751783 
L 240.15884 189.288699 
L 240.361197 189.03556 
L 240.563554 194.625716 
L 240.968268 212.661878 
L 241.170626 220.424812 
L 241.777697 277.31783 
L 242.182412 293.560924 
L 242.384769 296.11341 
L 242.587126 293.054646 
L 242.99184 267.740733 
L 243.396555 249.345957 
L 245.21777 172.876846 
L 245.420127 177.222401 
L 246.027199 204.666901 
L 246.836627 279.933601 
L 247.038985 288.498142 
L 247.241342 291.74676 
L 247.443699 289.152084 
L 247.848413 265.019488 
L 249.467271 150.305274 
L 249.669628 142.036062 
L 249.871985 140.053139 
L 250.074343 140.221899 
L 250.2767 147.330889 
L 250.883772 180.21788 
L 251.6932 257.003415 
L 252.097915 271.875339 
L 252.300272 275.018483 
L 252.502629 275.292717 
L 252.704986 271.326871 
L 253.109701 237.785937 
L 253.91913 162.814566 
L 254.323844 146.634756 
L 254.728558 137.606128 
L 254.930916 136.319337 
L 255.133273 143.997891 
L 255.740345 182.369563 
L 256.549773 259.387142 
L 256.954488 275.229432 
L 257.156845 279.131994 
L 257.359202 280.840683 
L 257.561559 279.849221 
L 257.966274 250.274134 
L 258.573345 198.675942 
L 258.97806 176.484078 
L 259.382774 165.198292 
L 259.585131 161.675439 
L 259.787489 161.232446 
L 259.989846 163.911502 
L 260.39456 180.281165 
L 260.596917 193.950678 
L 261.203989 257.425314 
L 261.608704 276.579508 
L 261.811061 279.574987 
L 262.013418 278.77338 
L 262.418132 254.23998 
L 262.62049 241.941637 
L 263.025204 232.048117 
L 263.227561 229.179206 
L 263.429918 228.145555 
L 263.834633 229.45344 
L 264.03699 229.137017 
L 264.239347 230.107383 
L 264.441704 230.191763 
L 264.644062 229.917529 
L 264.846419 232.005927 
L 265.048776 236.140532 
L 265.251133 236.140532 
L 265.45349 240.254043 
L 266.060562 283.730688 
L 266.465277 296.872828 
L 266.667634 298.454947 
L 266.869991 294.172677 
L 267.072348 286.030035 
L 267.477063 258.901959 
L 268.084134 236.203817 
L 268.488849 225.677449 
L 269.09592 214.159618 
L 269.500635 210.109392 
L 269.702992 212.345455 
L 269.905349 216.037067 
L 270.107706 216.733199 
L 270.310063 223.188247 
L 270.917135 273.204319 
L 271.32185 285.460472 
L 271.524207 287.654345 
L 271.726564 285.903466 
L 274.15485 140.960221 
L 274.357208 133.619186 
L 274.559565 137.036565 
L 275.166636 162.793471 
L 275.976065 246.308287 
L 276.38078 259.176193 
L 276.583137 258.458965 
L 276.987851 236.098343 
L 277.392566 206.50216 
L 278.404352 148.195781 
L 278.606709 145.073732 
L 279.011423 131.530789 
L 279.213781 129.885384 
L 279.416138 134.252034 
L 280.023209 176.969262 
L 280.630281 250.020994 
L 281.034995 273.351984 
L 281.237353 278.351482 
L 281.43971 276.769362 
L 281.642067 270.736213 
L 282.249139 227.976796 
L 282.85621 193.52878 
L 283.867996 149.714616 
L 284.070354 148.49111 
L 284.272711 156.844701 
L 285.284497 241.920542 
L 285.689211 274.870819 
L 286.093926 289.974787 
L 286.296283 292.316323 
L 286.49864 290.45997 
L 286.700997 287.443395 
L 287.105712 255.674435 
L 287.712783 202.873832 
L 288.522212 158.384631 
L 288.724569 151.085786 
L 288.926927 149.102863 
L 289.129284 152.77338 
L 289.736355 187.411251 
L 290.545784 259.197288 
L 290.950499 274.849724 
L 291.152856 277.697539 
L 291.355213 277.781919 
L 291.55757 276.263084 
L 291.759927 263.479558 
L 292.771714 162.392667 
L 293.176428 139.863285 
L 293.581142 128.345455 
L 293.7835 126.573481 
L 293.985857 130.180713 
L 294.592928 156.338423 
L 295.402357 241.667403 
L 295.807072 256.729181 
L 296.009429 256.560422 
L 296.414143 235.760824 
L 297.830644 97.293722 
L 298.235358 83.645304 
L 298.437715 80.987343 
L 298.640073 81.261577 
L 298.84243 83.37107 
L 299.044787 91.619186 
L 299.449501 119.295731 
L 300.056573 200.363536 
L 300.461287 226.268106 
L 300.663645 232.44892 
L 300.866002 233.187243 
L 301.068359 226.183727 
L 301.473073 195.342943 
L 302.484859 87.273631 
L 302.687217 75.650326 
L 302.889574 75.755801 
L 303.091931 84.067202 
L 303.496646 92.948167 
L 303.90136 115.793973 
L 304.306074 144.483074 
L 304.913146 215.551883 
L 305.31786 241.583024 
L 305.520218 247.299749 
L 305.722575 245.46449 
L 305.924932 238.14455 
L 306.532004 197.114917 
L 307.54379 125.223405 
L 307.746147 114.739227 
L 307.948504 113.832145 
L 308.757933 146.972275 
L 309.162647 173.741738 
L 309.769719 238.439879 
L 310.174433 258.859769 
L 310.376791 263.374083 
L 310.579148 262.783425 
L 310.983862 238.735208 
L 312.198005 131.889402 
L 312.60272 119.949674 
L 312.805077 115.456454 
L 313.007434 116.026017 
L 313.209791 119.823104 
L 313.816863 148.153591 
L 314.01922 162.202813 
L 314.626292 226.479056 
L 315.031006 247.531793 
L 315.233364 252.235962 
L 315.435721 251.560924 
L 315.840435 232.280161 
L 316.24515 213.062682 
L 316.649864 200.72215 
L 317.054578 185.006429 
L 317.66165 177.285686 
L 317.864007 176.821597 
L 318.066364 175.89342 
L 318.268722 180.703064 
L 318.875793 203.443395 
L 319.685222 263.627223 
L 320.089937 276.748267 
L 320.292294 278.435861 
L 320.697008 270.293219 
L 321.101723 243.354997 
L 322.315866 163.320844 
L 322.72058 152.794475 
L 322.922937 150.410748 
L 323.125295 154.650829 
L 323.732366 183.023506 
L 324.541795 253.417278 
L 324.94651 268.099347 
L 325.148867 271.073732 
L 325.351224 271.137017 
L 325.553581 268.816575 
L 325.755938 256.159618 
L 326.970082 140.707082 
L 327.172439 134.209844 
L 327.374796 132.585535 
L 327.77951 126.86881 
L 327.981868 131.994877 
L 328.184225 141.023506 
L 328.791296 194.077248 
L 329.196011 238.988348 
L 329.398368 254.640784 
L 329.803083 265.019488 
L 330.00544 264.049121 
L 330.207797 258.290206 
L 330.814869 208.463988 
L 331.42194 169.206328 
L 331.826655 145.917529 
L 332.029012 142.943144 
L 332.231369 142.964239 
L 332.433726 143.154093 
L 332.636083 145.305776 
L 332.838441 149.967755 
L 333.243155 173.509694 
L 333.445512 182.770367 
L 334.052584 250.274134 
L 334.457298 272.655851 
L 334.659655 278.224912 
L 334.862013 275.756806 
L 335.266727 255.379106 
L 335.671442 230.360522 
L 336.48087 189.16213 
L 336.683228 183.951683 
L 336.885585 182.812557 
L 337.087942 176.462983 
L 337.290299 174.56444 
L 337.695014 181.209342 
L 338.099728 196.060171 
L 338.302085 202.09332 
L 339.111514 269.702562 
L 339.313871 276.07323 
L 339.516228 278.372577 
L 339.718586 274.195781 
L 340.1233 250.210849 
L 340.932729 204.540331 
L 342.349229 141.107885 
L 342.551587 141.023506 
L 343.158658 166.379608 
L 343.76573 230.845706 
L 344.170444 249.345957 
L 344.372801 254.23998 
L 344.575159 252.046107 
L 344.777516 244.937117 
L 345.18223 213.210347 
L 346.194016 128.32436 
L 346.598731 113.157107 
L 347.003445 106.36454 
L 347.205802 105.499648 
L 347.40816 108.769362 
L 347.610517 116.827624 
L 348.015231 143.639277 
L 348.82466 237.237469 
L 349.229374 254.809543 
L 349.431732 254.029031 
L 349.634089 248.080261 
L 349.836446 236.646811 
L 351.050589 129.379106 
L 351.455304 110.520241 
L 351.860018 101.428327 
L 352.062375 100.500151 
L 352.264733 104.233953 
L 352.46709 115.625213 
L 353.276519 200.975289 
L 353.681233 239.937619 
L 354.085947 260.673933 
L 354.288305 266.095329 
L 354.490662 266.685987 
L 354.693019 264.38664 
L 355.097733 221.205324 
L 355.704805 145.369061 
L 356.109519 119.991863 
L 356.716591 101.301758 
L 356.918948 100.183727 
L 357.121306 105.11994 
L 357.52602 131.446409 
L 357.728377 144.483074 
L 358.740163 242.574485 
L 359.144878 255.906479 
L 359.347235 257.826118 
L 359.549592 257.488599 
L 359.751949 243.101858 
L 360.763735 119.169161 
L 361.16845 99.571974 
L 361.573164 88.159618 
L 361.775521 85.796986 
L 361.977879 89.172175 
L 362.180236 96.365545 
L 362.58495 122.860773 
L 363.394379 214.054144 
L 363.799093 232.195781 
L 364.001451 233.039578 
L 364.203808 226.985334 
L 364.406165 216.64882 
L 365.013237 145.137017 
L 365.620308 78.772376 
L 366.025023 62.149573 
L 366.429737 55.8 
L 366.632094 56.306278 
L 366.834451 59.027524 
L 367.036809 67.992868 
L 367.441523 98.010949 
L 368.048595 179.901457 
L 368.453309 211.290708 
L 368.655666 220.066198 
L 368.858024 222.513209 
L 369.060381 218.505173 
L 369.262738 208.358513 
L 369.86981 143.006429 
L 370.476881 83.160121 
L 370.881596 66.052135 
L 371.083953 65.588046 
L 371.28631 66.326369 
L 371.488667 70.376595 
L 371.691024 76.789453 
L 372.298096 116.912004 
L 373.107525 204.413762 
L 373.512239 227.301758 
L 373.714597 231.794977 
L 374.119311 231.07775 
L 374.321668 217.956705 
L 375.333454 111.047614 
L 375.738169 97.399196 
L 375.940526 94.614666 
L 376.142883 93.47554 
L 376.34524 98.812557 
L 376.749955 125.835158 
L 377.559383 186.504169 
L 377.964098 222.196786 
L 378.368812 236.414766 
L 378.57117 236.646811 
L 378.773527 230.529282 
L 378.975884 218.969262 
L 380.392384 98.791462 
L 380.797099 88.560422 
L 381.201813 80.734204 
L 381.40417 84.615671 
L 382.011242 122.776394 
L 382.820671 208.189754 
L 383.225385 224.791462 
L 383.427743 225.466499 
L 383.6301 219.960723 
L 384.034814 197.030537 
L 385.0466 121.320844 
L 385.451315 104.107383 
L 385.653672 103.6222 
L 385.856029 107.524761 
L 386.058386 115.393169 
L 387.070172 187.558915 
L 387.474887 228.926067 
L 387.879601 251.497639 
L 388.284316 260.927072 
L 388.68903 263.521748 
L 388.891387 257.594073 
L 389.700816 212.682973 
L 390.307888 201.122953 
L 390.914959 187.980814 
L 391.117316 192.917027 
L 391.926745 233.735711 
L 392.533817 279.321848 
L 392.938531 292.084279 
L 393.140888 294.003918 
L 393.343246 293.539829 
L 393.545603 294.025013 
L 393.74796 284.785434 
L 394.355032 242.321346 
L 395.569175 184.057157 
L 395.771532 177.855249 
L 395.973889 179.099849 
L 396.176247 187.685485 
L 396.783318 231.056655 
L 397.188033 270.799498 
L 397.592747 289.194274 
L 397.795104 292.063184 
L 397.997461 289.447413 
L 398.402176 270.736213 
L 400.628105 139.061678 
L 400.830462 141.993872 
L 401.03282 152.267102 
L 401.639891 211.121949 
L 402.044606 256.876846 
L 402.44932 277.845203 
L 402.651677 281.979809 
L 402.854034 280.27112 
L 403.258749 261.496635 
L 403.663463 232.174686 
L 404.877607 122.755299 
L 405.282321 101.575992 
L 405.484678 97.230437 
L 405.687035 98.348468 
L 405.889393 109.191261 
L 406.294107 147.752788 
L 406.901179 227.639277 
L 407.305893 252.468006 
L 407.50825 258.248016 
L 407.710607 257.699548 
L 408.115322 235.781919 
L 409.73418 99.276645 
L 409.936537 94.192767 
L 410.138894 94.045103 
L 410.341251 98.791462 
L 410.948323 136.045103 
L 411.15068 152.456956 
L 411.757752 225.29774 
L 412.162466 250.126469 
L 412.364823 256.813561 
L 412.56718 258.64882 
L 412.971895 240.021999 
L 414.388395 138.808538 
L 414.79311 124.843697 
L 415.197824 117.96675 
L 415.400181 124.949171 
L 416.20961 189.478553 
L 416.614325 236.140532 
L 417.019039 259.93561 
L 417.221396 264.323355 
L 417.423753 263.753792 
L 417.828468 247.0888 
L 419.244968 146.276143 
L 419.649683 132.248016 
L 419.85204 128.303265 
L 420.054397 129.77991 
L 420.256754 138.703064 
L 421.066183 205.974787 
L 421.673255 262.720141 
L 422.077969 279.279658 
L 422.280326 281.832145 
L 422.482684 281.157107 
L 422.685041 280.988348 
L 423.089755 249.324862 
L 423.899184 178.234957 
L 424.708613 137.774887 
L 424.91097 134.505173 
L 425.113327 138.618684 
L 425.518042 165.493621 
L 425.720399 177.623204 
L 426.529828 254.345455 
L 426.934542 273.436364 
L 427.136899 278.035058 
L 427.339257 278.85776 
L 427.541614 279.089804 
L 427.743971 270.25103 
L 428.148685 228.778403 
L 428.755757 165.177197 
L 429.160471 138.829633 
L 429.565186 130.349473 
L 429.9699 134.378604 
L 430.374615 151.043596 
L 430.576972 163.00442 
L 431.386401 241.076745 
L 431.791115 253.649322 
L 431.993472 251.560924 
L 432.398187 230.698041 
L 433.207616 163.827122 
L 434.017044 91.534807 
L 434.219402 86.514214 
L 435.02883 114.675942 
L 435.433545 140.348468 
L 436.040617 213.484581 
L 436.445331 236.625716 
L 436.647688 241.899448 
L 436.850045 241.203315 
L 437.25476 220.045103 
L 437.659474 184.183727 
L 438.468903 108.727172 
L 438.67126 98.728177 
L 438.873617 99.719638 
L 439.075975 107.018483 
L 439.278332 106.554395 
L 439.480689 108.853742 
L 439.885403 127.902461 
L 440.290118 153.321848 
L 440.897189 228.715118 
L 441.301904 251.624209 
L 441.504261 257.19327 
L 441.706618 257.741738 
L 442.111333 242.616675 
L 442.920762 189.204319 
L 443.527833 153.406228 
L 444.134905 130.054144 
L 444.337262 127.396183 
L 444.539619 133.9778 
L 445.146691 180.238975 
L 445.753762 251.265595 
L 446.158477 273.03556 
L 446.360834 278.119437 
L 446.563191 276.07323 
L 446.967906 256.665897 
L 448.586763 143.955701 
L 448.991478 130.412757 
L 449.193835 128.029031 
L 449.396192 134.863787 
L 450.003264 176.315319 
L 450.812693 258.48006 
L 451.217407 272.128478 
L 451.419764 272.255048 
L 451.824479 254.619689 
L 452.43155 202.873832 
L 453.038622 159.861276 
L 453.443336 142.373581 
L 453.848051 134.294224 
L 454.050408 137.753792 
L 454.252765 148.005927 
L 454.65748 177.159116 
L 454.859837 185.829131 
L 455.669266 252.257057 
L 456.07398 266.158614 
L 456.276337 267.719638 
L 456.478694 265.67343 
L 456.681052 262.488096 
L 456.883409 254.28217 
L 457.288123 226.563435 
L 457.692838 215.319839 
L 457.895195 216.037067 
L 458.299909 221.943646 
L 458.502267 221.795982 
L 458.906981 217.872325 
L 459.109338 218.420794 
L 459.514053 222.681969 
L 459.71641 227.090809 
L 460.728196 286.304269 
L 461.13291 290.839679 
L 461.537625 287.443395 
L 461.739982 278.288197 
L 462.144696 242.890909 
L 463.561197 171.927574 
L 463.763554 164.481065 
L 463.965911 165.683476 
L 464.572983 185.660372 
L 465.382412 254.366549 
L 465.584769 261.454445 
L 465.787126 264.238975 
L 465.989483 261.749774 
L 467.608341 166.822602 
L 468.620127 145.094827 
L 468.822484 148.301256 
L 469.429556 175.218383 
L 470.036627 233.398192 
L 470.441342 251.645304 
L 470.643699 254.345455 
L 470.846056 251.708589 
L 471.857842 199.477549 
L 472.869628 168.446911 
L 473.071985 168.953189 
L 473.274343 167.117931 
L 473.4767 168.404721 
L 473.679057 172.286188 
L 473.881414 179.036565 
L 474.083772 180.21788 
L 474.286129 188.086288 
L 474.8932 241.540834 
L 475.297915 258.205826 
L 475.500272 259.914515 
L 475.702629 257.826118 
L 476.107344 232.828629 
L 476.512058 210.257057 
L 477.321487 177.960723 
L 477.726201 157.287695 
L 477.928558 153.638272 
L 478.333273 158.447916 
L 478.53563 163.025515 
L 479.142702 188.592567 
L 479.952131 258.100352 
L 480.356845 268.204822 
L 480.559202 267.782923 
L 480.963917 245.126971 
L 482.785131 113.452436 
L 482.987489 107.398192 
L 483.189846 104.698041 
L 483.392203 110.478051 
L 483.999275 151.36002 
L 484.606346 224.285183 
L 485.011061 248.101356 
L 485.213418 252.615671 
L 485.415775 253.586037 
L 485.82049 233.313812 
L 486.225204 201.312808 
L 487.23699 109.043596 
L 487.439347 105.879357 
L 487.844062 112.608639 
L 488.248776 131.699548 
L 489.260562 211.206328 
L 489.665277 244.1777 
L 490.069991 259.661376 
L 490.272348 262.066198 
L 490.474705 260.905977 
L 490.677063 259.091813 
L 490.87942 249.113913 
L 491.891206 167.37107 
L 492.29592 149.208338 
L 492.498277 141.635259 
L 492.700635 139.567956 
L 492.902992 141.234455 
L 493.105349 146.170668 
L 493.712421 180.534304 
L 494.52185 254.345455 
L 495.128921 273.07775 
L 495.331278 273.225414 
L 495.533636 272.592567 
L 495.735993 264.850728 
L 496.950136 171.041587 
L 497.557208 146.065193 
L 497.759565 142.62672 
L 497.961922 145.917529 
L 498.568994 178.213862 
L 499.378422 253.881366 
L 499.58078 260.884882 
L 499.783137 263.437368 
L 499.985494 260.041085 
L 500.187851 251.307785 
L 500.794923 213.463486 
L 500.99728 208.231944 
L 501.401995 194.81557 
L 501.806709 183.276645 
L 502.009066 182.812557 
L 502.211423 184.922049 
L 502.413781 185.575992 
L 502.616138 183.867303 
L 503.020852 193.824108 
L 503.223209 194.393672 
L 503.425567 202.09332 
L 504.032638 254.050126 
L 504.437353 267.445404 
L 504.63971 269.111904 
L 504.842067 266.685987 
L 505.246782 241.709593 
L 505.651496 217.302762 
L 507.270354 142.331391 
L 507.472711 139.146057 
L 507.675068 142.62672 
L 508.28214 171.358011 
L 508.889211 230.824611 
L 509.293926 248.37559 
L 509.496283 251.982823 
L 509.69864 250.105374 
L 510.103354 225.972777 
L 511.722212 116.954194 
L 512.126927 98.749272 
L 512.329284 100.373581 
L 512.936355 135.602109 
L 513.34107 175.513712 
L 513.745784 220.066198 
L 514.150499 243.354997 
L 514.352856 249.071723 
L 514.555213 249.578001 
L 514.75757 240.464992 
L 516.174071 141.29774 
L 516.376428 140.179709 
L 516.781142 149.735711 
L 516.9835 146.930085 
L 517.185857 147.478553 
L 517.590571 165.620191 
L 517.792928 169.965746 
L 517.995286 180.935108 
L 518.4 221.585033 
L 518.4 221.585033 
" clip-path="url(#p60b279b323)" style="fill: none; stroke: #1f77b4; stroke-width: 1.5; stroke-linecap: square"/>
   </g>
   <g id="line2d_14">
    <path d="M 72 251.875442 
L 72.202357 251.875442 
L 72.607072 254.883637 
L 72.809429 254.482591 
L 73.214143 247.921697 
L 74.023572 229.031873 
L 74.225929 221.123392 
L 74.833001 183.901401 
L 75.237715 176.968051 
L 75.440073 174.427223 
L 75.64243 174.179774 
L 75.844787 181.131266 
L 76.249501 211.521816 
L 76.856573 256.505578 
L 77.261287 266.918975 
L 77.463645 266.181807 
L 77.868359 256.394608 
L 79.082502 206.504297 
L 79.689574 169.720041 
L 79.891931 164.343319 
L 80.094288 162.642444 
L 80.296646 164.050542 
L 80.499003 169.057921 
L 80.903717 195.000015 
L 81.510789 248.045226 
L 81.915503 262.401129 
L 82.11786 263.852844 
L 82.320218 262.438095 
L 83.129646 248.670296 
L 83.534361 231.798284 
L 83.736718 228.200058 
L 84.141432 219.904365 
L 84.34379 219.669729 
L 84.546147 217.847314 
L 84.748504 217.621464 
L 84.950861 219.549617 
L 86.772076 268.308548 
L 87.176791 271.251162 
L 87.379148 269.856501 
L 87.581505 267.597421 
L 87.986219 256.320663 
L 88.390934 240.93015 
L 88.795648 238.000195 
L 88.998005 238.947546 
L 89.605077 233.345473 
L 89.807434 233.089177 
L 90.009791 232.62194 
L 90.414506 234.796985 
L 90.616863 234.383289 
L 90.81922 239.039475 
L 91.426292 263.944719 
L 91.628649 269.246797 
L 91.831006 271.482149 
L 92.033364 272.073162 
L 92.235721 270.436826 
L 92.438078 265.605923 
L 93.04515 241.154726 
L 93.247507 236.087182 
L 93.449864 236.232945 
L 93.652221 237.053894 
L 93.854578 236.3451 
L 94.259293 229.890182 
L 94.46165 233.280618 
L 94.664007 234.493629 
L 95.068722 230.042765 
L 95.271079 231.564897 
L 95.675793 247.758601 
L 96.080508 264.082844 
L 96.687579 274.673031 
L 96.889937 273.156585 
L 97.092294 269.42656 
L 97.497008 256.550848 
L 98.10408 232.131617 
L 98.306437 232.46363 
L 98.508794 234.585434 
L 98.711151 234.309377 
L 99.115866 226.617466 
L 99.318223 227.240774 
L 99.52058 227.028897 
L 99.722937 225.5051 
L 99.925295 225.207705 
L 100.127652 227.991077 
L 100.532366 246.598861 
L 100.937081 264.925894 
L 101.544152 275.890293 
L 101.948867 269.722066 
L 102.353581 256.577703 
L 102.758296 240.971977 
L 102.960653 234.111009 
L 103.16301 233.816856 
L 103.365367 235.31989 
L 103.567724 234.186598 
L 103.972439 226.3217 
L 104.57951 218.480292 
L 104.781868 218.463514 
L 104.984225 223.195021 
L 105.388939 244.44977 
L 105.793654 264.31321 
L 106.198368 274.492326 
L 106.400725 275.889121 
L 106.80544 269.28548 
L 107.210154 256.94274 
L 107.817226 234.737404 
L 108.019583 233.631421 
L 108.22194 233.730294 
L 108.424297 229.874174 
L 108.829012 210.676778 
L 109.031369 202.623482 
L 109.233726 201.950767 
L 109.840798 217.386749 
L 110.043155 226.991014 
L 110.447869 256.010617 
L 110.852584 270.804663 
L 111.054941 273.100049 
L 111.257298 273.780982 
L 111.662013 269.237884 
L 111.86437 264.875266 
L 112.876156 224.66922 
L 113.078513 220.760851 
L 113.887942 185.096557 
L 114.090299 180.865774 
L 114.292656 180.151431 
L 114.495014 184.339371 
L 114.899728 209.510537 
L 115.304442 246.359115 
L 115.911514 269.411835 
L 116.113871 271.170322 
L 116.316228 269.053584 
L 117.125657 251.40182 
L 117.935086 209.361139 
L 118.542158 169.045362 
L 118.946872 154.004931 
L 119.149229 153.301013 
L 119.351587 156.735891 
L 119.756301 181.772617 
L 120.56573 252.287576 
L 120.970444 263.933025 
L 121.172801 264.401797 
L 121.375159 262.277293 
L 121.98223 247.829522 
L 123.196374 199.115482 
L 123.398731 193.557818 
L 123.601088 191.555824 
L 123.803445 193.38197 
L 124.612874 215.947739 
L 124.815231 225.856209 
L 125.219946 257.7814 
L 125.62466 270.970714 
L 125.827017 272.127813 
L 126.029374 271.402725 
L 126.231732 269.498628 
L 126.434089 264.252253 
L 128.052947 186.751987 
L 128.457661 162.193164 
L 128.660018 157.218715 
L 128.862375 158.215082 
L 129.064733 165.891535 
L 129.469447 200.989405 
L 129.874161 247.047766 
L 130.278876 263.800153 
L 130.481233 267.7344 
L 130.68359 268.609174 
L 130.885947 264.753012 
L 132.100091 215.893205 
L 132.302448 205.982539 
L 132.707162 176.851264 
L 133.111877 159.664453 
L 133.516591 150.529774 
L 133.718948 150.10512 
L 133.921306 153.713827 
L 134.32602 178.104082 
L 135.135449 252.883318 
L 135.337806 258.459379 
L 135.540163 259.574482 
L 135.74252 257.548203 
L 135.944878 253.921567 
L 136.551949 232.667829 
L 136.956664 207.12873 
L 137.361378 192.483292 
L 137.96845 185.75497 
L 138.980236 212.895796 
L 139.182593 216.297174 
L 139.38495 226.91663 
L 139.789665 255.705922 
L 140.396736 268.805533 
L 140.599093 267.693608 
L 140.801451 265.26371 
L 141.813237 220.53291 
L 142.420308 210.20806 
L 142.622665 208.520925 
L 142.825023 205.317405 
L 143.02738 206.424543 
L 144.039166 229.589739 
L 144.646238 261.184867 
L 145.050952 270.304679 
L 145.253309 271.115285 
L 145.455666 269.03577 
L 145.658024 265.764983 
L 145.860381 260.478059 
L 146.872167 217.427199 
L 147.074524 214.680835 
L 147.276881 214.297642 
L 147.681596 205.706778 
L 147.883953 207.391682 
L 148.288667 224.263523 
L 149.098096 248.593826 
L 149.502811 265.210507 
L 149.907525 269.924942 
L 150.109882 269.850177 
L 150.312239 268.854828 
L 150.514597 266.780952 
L 150.919311 259.045701 
L 151.526383 234.44199 
L 151.72874 227.779955 
L 151.931097 227.204258 
L 152.133454 225.152264 
L 152.335811 225.204577 
L 152.538169 223.526386 
L 152.740526 223.996688 
L 152.942883 226.558428 
L 153.347597 238.167796 
L 154.157026 249.764247 
L 154.764098 266.31125 
L 154.966455 269.03115 
L 155.168812 269.836669 
L 155.37117 269.989802 
L 155.573527 267.969571 
L 155.775884 264.62189 
L 156.180598 247.153526 
L 156.990027 204.510066 
L 157.597099 168.341047 
L 157.799456 162.344964 
L 158.001813 163.302059 
L 158.20417 168.055498 
L 158.608885 187.713407 
L 159.418314 254.732174 
L 159.823028 266.133813 
L 160.025385 265.689826 
L 160.227743 262.86639 
L 160.632457 246.101843 
L 160.834814 236.718669 
L 161.239529 209.545062 
L 161.441886 202.244271 
L 161.8466 178.994209 
L 162.251315 171.395483 
L 162.453672 172.612239 
L 162.858386 184.980916 
L 163.465458 211.803583 
L 164.274887 260.250462 
L 164.477244 265.495639 
L 164.679601 266.864541 
L 165.084316 259.34998 
L 165.286673 254.094051 
L 166.500816 209.252862 
L 166.90553 199.534453 
L 167.310245 178.863696 
L 167.512602 173.950422 
L 167.714959 173.85535 
L 167.917316 181.776846 
L 168.524388 225.622293 
L 168.929102 255.955754 
L 169.333817 266.072177 
L 169.536174 265.178372 
L 170.143246 251.618171 
L 170.345603 245.767435 
L 170.750317 223.42275 
L 171.559746 169.79951 
L 171.964461 163.852325 
L 172.166818 160.064835 
L 172.369175 159.04292 
L 172.571532 160.31862 
L 172.773889 167.101838 
L 173.178604 196.829394 
L 173.583318 233.806875 
L 173.988033 257.884924 
L 174.392747 265.825004 
L 174.797461 256.362755 
L 175.404533 233.757625 
L 176.011605 208.341948 
L 176.416319 188.026279 
L 176.821034 180.031702 
L 177.023391 176.931579 
L 177.225748 175.821723 
L 177.428105 176.336022 
L 177.630462 177.784931 
L 178.035177 200.207835 
L 178.642248 253.78157 
L 179.046963 267.604457 
L 179.24932 269.902541 
L 179.451677 266.81358 
L 179.856392 254.954657 
L 180.261106 238.575595 
L 180.868178 212.967547 
L 181.272892 182.802125 
L 181.879964 161.421485 
L 182.082321 158.422264 
L 182.284678 158.475417 
L 182.487035 160.941659 
L 182.89175 187.628748 
L 183.498821 242.135686 
L 183.903536 257.334741 
L 184.105893 259.961517 
L 184.30825 258.320036 
L 185.117679 239.263589 
L 185.320036 231.983812 
L 185.724751 197.545819 
L 186.129465 152.244836 
L 186.53418 143.690662 
L 186.736537 143.50187 
L 186.938894 148.328083 
L 187.545966 185.5795 
L 188.557752 246.769109 
L 188.760109 251.115194 
L 188.962466 252.674195 
L 189.164823 252.720423 
L 189.36718 251.721637 
L 189.569538 248.637463 
L 189.974252 236.735659 
L 190.378966 221.614696 
L 191.188395 166.772589 
L 191.59311 155.114767 
L 191.795467 156.241814 
L 192.200181 176.072017 
L 193.211967 242.256017 
L 193.616682 253.295657 
L 193.819039 256.064823 
L 194.021396 256.306867 
L 194.223753 255.582822 
L 194.628468 248.351379 
L 195.235539 224.930959 
L 195.437897 214.394605 
L 195.842611 190.358221 
L 196.044968 190.193894 
L 196.247325 192.535073 
L 196.449683 196.209591 
L 197.461469 226.806315 
L 198.270898 261.0169 
L 198.675612 269.192414 
L 198.877969 269.338447 
L 199.080326 266.379012 
L 199.485041 249.423105 
L 200.092112 214.809551 
L 200.496827 201.34277 
L 200.901541 185.777304 
L 201.306256 169.240971 
L 201.508613 167.71665 
L 201.71097 169.492463 
L 201.913327 175.1082 
L 202.318042 197.412846 
L 202.925113 245.041738 
L 203.329828 259.14242 
L 203.532185 261.241306 
L 203.734542 258.135858 
L 204.139257 246.796553 
L 204.543971 228.850194 
L 205.151043 191.16406 
L 205.555757 174.787614 
L 205.960471 166.830066 
L 206.162829 166.306424 
L 206.567543 177.151941 
L 206.972257 192.861561 
L 207.376972 215.515471 
L 207.984044 251.336871 
L 208.186401 255.460351 
L 208.388758 257.150319 
L 208.591115 255.722101 
L 208.793472 251.917836 
L 209.198187 236.966188 
L 209.602901 213.837994 
L 210.007616 190.62669 
L 210.817044 158.612261 
L 211.221759 141.559481 
L 211.424116 142.270947 
L 211.82883 166.478409 
L 212.840617 249.084977 
L 213.042974 254.250977 
L 213.245331 254.202406 
L 214.05476 235.805574 
L 214.661831 198.769182 
L 215.066546 161.295034 
L 215.673617 132.114699 
L 215.875975 127.026025 
L 216.078332 124.791859 
L 216.280689 127.56311 
L 216.483046 132.951366 
L 216.887761 160.575084 
L 217.697189 234.340714 
L 218.101904 249.556668 
L 218.304261 248.442385 
L 218.708976 241.719644 
L 219.11369 234.861098 
L 219.316047 229.011677 
L 219.720762 194.546705 
L 220.125476 163.281227 
L 220.53019 155.201227 
L 220.732548 154.505953 
L 220.934905 162.815383 
L 221.541976 205.721388 
L 222.553762 249.108455 
L 222.75612 251.441516 
L 222.958477 252.278029 
L 223.363191 252.33147 
L 223.565549 251.920723 
L 223.767906 248.785181 
L 224.779692 212.76856 
L 224.982049 211.441995 
L 225.589121 212.67264 
L 225.791478 216.078256 
L 225.993835 221.876844 
L 226.398549 237.830834 
L 226.803264 244.710617 
L 227.410335 268.962312 
L 227.612693 272.3555 
L 227.81505 273.332177 
L 228.017407 272.197017 
L 228.219764 270.34663 
L 228.422121 264.876054 
L 229.23155 229.988005 
L 229.433908 228.57554 
L 229.636265 228.670841 
L 229.838622 225.047732 
L 230.648051 193.390287 
L 230.850408 190.602709 
L 231.052765 189.759737 
L 231.255122 194.020583 
L 231.45748 206.10976 
L 232.064551 257.121933 
L 232.469266 270.041448 
L 232.671623 273.526633 
L 232.87398 272.962827 
L 233.278694 261.997235 
L 235.302267 183.521232 
L 235.504624 183.875408 
L 235.706981 186.597734 
L 235.909338 191.645651 
L 236.314053 210.852504 
L 236.921124 256.634719 
L 237.325839 269.136917 
L 237.528196 271.324185 
L 237.730553 268.513506 
L 238.135267 258.103979 
L 238.539982 242.487972 
L 238.944696 224.366535 
L 239.147053 218.430629 
L 239.551768 202.011999 
L 239.956482 195.790053 
L 240.15884 193.909264 
L 240.361197 195.556448 
L 240.765911 203.777602 
L 241.170626 222.556801 
L 241.57534 249.578836 
L 241.980054 266.924671 
L 242.384769 274.276052 
L 242.587126 271.070739 
L 242.99184 259.314526 
L 245.015413 187.783675 
L 245.21777 184.078723 
L 245.420127 182.829307 
L 245.622484 185.571711 
L 245.824841 193.214478 
L 246.836627 261.977762 
L 247.241342 271.702646 
L 247.443699 269.683806 
L 248.050771 251.431885 
L 248.860199 212.037277 
L 249.467271 161.70697 
L 249.871985 146.20586 
L 250.074343 147.167875 
L 250.2767 151.545429 
L 250.681414 173.29312 
L 251.6932 250.321427 
L 252.097915 257.919154 
L 252.300272 256.358628 
L 252.907344 245.870607 
L 253.312058 232.196024 
L 253.716772 201.559035 
L 254.121487 161.050527 
L 254.526201 148.713599 
L 254.728558 144.927846 
L 254.930916 145.217585 
L 255.133273 148.717046 
L 255.33563 155.837498 
L 255.740345 185.27986 
L 256.549773 246.886133 
L 256.954488 258.059843 
L 257.156845 257.971211 
L 257.561559 251.077952 
L 257.966274 239.744149 
L 258.573345 212.982632 
L 258.97806 182.046247 
L 259.382774 170.350846 
L 259.585131 167.620738 
L 259.787489 169.612999 
L 260.192203 177.936757 
L 260.39456 184.300585 
L 260.799275 208.686393 
L 261.203989 244.668076 
L 261.608704 259.185993 
L 261.811061 263.069477 
L 262.013418 263.836127 
L 262.215775 261.140615 
L 262.62049 245.377415 
L 263.227561 216.420582 
L 263.834633 211.633622 
L 264.441704 216.646377 
L 265.048776 224.768141 
L 265.45349 236.659029 
L 265.655848 243.547334 
L 266.060562 263.943431 
L 266.465277 271.53186 
L 266.667634 273.185612 
L 266.869991 270.8143 
L 267.274705 261.707727 
L 267.881777 237.981122 
L 268.286491 226.368696 
L 268.488849 225.466018 
L 269.298277 212.451212 
L 269.702992 215.823785 
L 269.905349 219.656843 
L 270.310063 234.00753 
L 271.119492 265.365837 
L 271.32185 270.363021 
L 271.524207 271.73166 
L 271.726564 271.04232 
L 271.928921 267.953282 
L 272.333636 255.385354 
L 273.143064 219.063595 
L 274.15485 154.433828 
L 274.357208 150.234223 
L 274.559565 151.047137 
L 274.964279 162.808136 
L 275.368994 190.142837 
L 275.773708 227.062432 
L 276.178422 248.752879 
L 276.38078 253.921464 
L 276.583137 252.969592 
L 276.785494 250.273846 
L 277.392566 228.088339 
L 278.201995 161.653721 
L 278.606709 142.315948 
L 279.011423 135.877064 
L 279.416138 141.493096 
L 279.820852 156.691049 
L 280.225567 191.914943 
L 280.630281 232.147018 
L 281.034995 251.061625 
L 281.237353 255.858465 
L 281.43971 255.24482 
L 281.844424 243.848713 
L 282.451496 223.280667 
L 283.260925 174.309698 
L 283.665639 168.203331 
L 283.867996 164.499642 
L 284.070354 164.366143 
L 284.272711 166.614746 
L 284.677425 181.335469 
L 285.689211 256.618931 
L 285.891568 261.997562 
L 286.093926 263.994193 
L 286.296283 262.12491 
L 287.105712 244.058449 
L 287.510426 228.228946 
L 287.712783 219.280982 
L 288.117498 184.168316 
L 288.724569 167.182717 
L 288.926927 163.883242 
L 289.129284 163.817787 
L 289.331641 167.241418 
L 289.533998 175.682239 
L 289.938713 208.112158 
L 290.343427 240.903542 
L 290.748141 258.791704 
L 290.950499 262.873682 
L 291.152856 262.478656 
L 291.355213 259.437145 
L 291.962285 243.497174 
L 292.366999 223.6734 
L 292.569356 206.948129 
L 292.974071 160.13532 
L 293.378785 142.065681 
L 293.581142 135.492336 
L 293.7835 134.883727 
L 294.188214 147.644695 
L 294.592928 170.85247 
L 294.997643 204.157723 
L 295.402357 238.497606 
L 295.807072 251.947011 
L 296.009429 252.644613 
L 296.211786 250.512872 
L 296.6165 236.336242 
L 296.818858 224.322743 
L 298.033001 106.095284 
L 298.437715 90.200021 
L 298.640073 90.766979 
L 299.044787 104.688244 
L 299.449501 131.456937 
L 300.461287 233.816611 
L 300.663645 238.110254 
L 301.068359 239.080225 
L 301.270716 235.999639 
L 301.473073 227.690959 
L 301.877788 190.070234 
L 302.687217 105.542962 
L 303.091931 87.383786 
L 303.294288 87.883861 
L 303.699003 111.117927 
L 304.508432 183.100144 
L 305.115503 234.22178 
L 305.520218 241.721547 
L 305.722575 242.638279 
L 306.127289 230.891951 
L 306.532004 206.172244 
L 307.341432 161.66011 
L 307.948504 135.626124 
L 308.150861 129.286553 
L 308.353218 132.452612 
L 308.555576 139.613676 
L 309.365005 193.317572 
L 309.769719 233.979413 
L 310.174433 243.491481 
L 310.376791 244.689728 
L 310.579148 243.943429 
L 310.781505 242.302118 
L 311.186219 233.889499 
L 311.388577 224.868458 
L 312.198005 151.731536 
L 312.60272 133.350038 
L 313.007434 125.465826 
L 313.209791 129.145826 
L 313.614506 147.015685 
L 314.221578 192.82982 
L 314.626292 228.480186 
L 315.031006 243.80531 
L 315.233364 246.183459 
L 316.042792 230.781256 
L 316.852221 190.119439 
L 317.459293 177.132955 
L 317.66165 174.996539 
L 317.864007 176.204779 
L 318.673436 196.397021 
L 319.280508 220.417675 
L 319.685222 244.113613 
L 320.089937 254.725317 
L 320.292294 255.804614 
L 320.494651 254.036189 
L 321.101723 239.920987 
L 321.708794 218.005852 
L 322.113509 186.880726 
L 322.72058 157.4796 
L 322.922937 154.670331 
L 323.125295 157.428159 
L 323.327652 163.033304 
L 323.732366 187.284667 
L 324.541795 247.858882 
L 324.94651 256.904153 
L 325.148867 256.568341 
L 325.351224 255.073194 
L 325.958296 240.778806 
L 326.160653 232.642779 
L 326.565367 202.482551 
L 326.970082 154.19792 
L 327.374796 132.847561 
L 327.577153 129.033415 
L 327.77951 131.843824 
L 328.184225 147.193827 
L 328.386582 156.767904 
L 328.791296 192.392927 
L 329.196011 232.156916 
L 329.600725 249.596092 
L 329.803083 254.136887 
L 330.00544 255.363965 
L 330.207797 251.861288 
L 330.814869 228.769139 
L 331.42194 178.257279 
L 331.826655 153.410733 
L 332.231369 142.608443 
L 332.433726 142.047354 
L 333.040798 166.668392 
L 333.445512 188.397794 
L 334.254941 245.732699 
L 334.659655 254.515777 
L 334.862013 253.977462 
L 335.06437 251.090617 
L 335.873799 221.818206 
L 336.683228 183.023071 
L 336.885585 181.010717 
L 337.087942 180.39497 
L 337.290299 179.41716 
L 337.897371 193.116132 
L 338.302085 210.828845 
L 338.7068 235.345 
L 339.111514 255.22031 
L 339.516228 263.627464 
L 339.718586 261.148067 
L 340.1233 250.685192 
L 340.528015 234.419155 
L 341.742158 174.87087 
L 342.349229 151.916772 
L 342.551587 152.103801 
L 342.753944 156.272456 
L 343.158658 176.618553 
L 343.361015 189.648677 
L 343.76573 226.599624 
L 344.170444 246.052068 
L 344.372801 250.560943 
L 344.575159 248.60295 
L 344.979873 239.872759 
L 345.18223 236.613745 
L 345.586945 205.324536 
L 346.598731 114.142144 
L 347.003445 109.426497 
L 347.205802 113.566292 
L 347.610517 130.456853 
L 348.015231 156.53684 
L 348.419946 193.110368 
L 348.82466 231.480409 
L 349.431732 247.62687 
L 349.836446 239.433946 
L 350.038803 234.764019 
L 350.24116 225.275837 
L 351.455304 127.01535 
L 351.860018 118.523613 
L 352.062375 119.232054 
L 352.264733 123.288183 
L 352.669447 139.029404 
L 353.074161 172.680674 
L 353.681233 234.751328 
L 354.085947 248.777203 
L 354.288305 250.323365 
L 354.490662 247.787714 
L 355.300091 225.474707 
L 355.704805 181.665886 
L 356.109519 136.438659 
L 356.311877 127.879743 
L 356.716591 120.705543 
L 356.918948 122.105023 
L 357.323663 133.919501 
L 357.728377 157.090457 
L 358.133092 191.603978 
L 358.537806 233.701755 
L 358.94252 248.710101 
L 359.144878 249.977158 
L 359.347235 247.842875 
L 360.156664 221.490582 
L 360.561378 177.520406 
L 360.966092 128.885524 
L 361.16845 117.697166 
L 361.370807 114.014873 
L 361.573164 107.531596 
L 361.775521 105.21837 
L 362.382593 120.003458 
L 362.989665 174.334124 
L 363.596736 236.815942 
L 364.001451 244.670428 
L 364.203808 243.372264 
L 364.406165 237.785298 
L 364.810879 212.106143 
L 365.417951 142.277803 
L 365.822665 95.529697 
L 366.025023 80.687951 
L 366.22738 74.006982 
L 366.429737 71.005436 
L 366.632094 72.98861 
L 367.036809 91.825514 
L 367.441523 124.441765 
L 368.453309 228.871834 
L 368.655666 234.353326 
L 368.858024 236.431438 
L 369.060381 235.37739 
L 369.465095 220.929261 
L 369.86981 193.189526 
L 370.881596 104.15458 
L 371.28631 90.437454 
L 371.691024 99.422626 
L 372.095739 120.971222 
L 373.309882 231.960818 
L 373.512239 236.555678 
L 373.714597 238.43291 
L 373.916954 235.337814 
L 374.524025 214.381479 
L 374.92874 187.354727 
L 375.738169 125.316814 
L 376.142883 113.274252 
L 376.34524 113.471111 
L 376.547597 119.467219 
L 376.952312 144.378214 
L 377.964098 231.615903 
L 378.166455 237.99857 
L 378.368812 240.409677 
L 378.57117 240.295843 
L 378.773527 239.295586 
L 379.178241 222.676549 
L 379.785313 172.949831 
L 380.190027 133.545506 
L 380.594742 113.519746 
L 381.201813 101.541882 
L 381.40417 99.717895 
L 381.606528 101.77069 
L 381.808885 111.974118 
L 382.213599 153.860423 
L 382.820671 219.528723 
L 383.023028 231.375889 
L 383.225385 235.663341 
L 383.427743 236.342278 
L 383.6301 234.731477 
L 383.832457 230.519268 
L 384.034814 223.364753 
L 384.237171 208.712243 
L 384.237171 208.712243 
" clip-path="url(#p60b279b323)" style="fill: none; stroke: #ff7f0e; stroke-width: 1.5; stroke-linecap: square"/>
   </g>
   <g id="line2d_15">
    <path d="M 384.439529 190.793545 
L 384.844243 172.554973 
L 385.653672 153.644238 
L 385.856029 151.335947 
L 386.058386 152.153653 
L 386.260743 156.677695 
L 386.463101 153.719196 
L 386.665458 154.44854 
L 387.070172 166.297325 
L 387.474887 180.864889 
L 387.677244 192.524013 
L 387.879601 194.530663 
L 388.081958 195.292228 
L 388.284316 202.696822 
L 388.486673 202.03104 
L 388.68903 202.087707 
L 388.891387 198.971859 
L 389.093744 203.541982 
L 389.296102 200.93648 
L 389.903173 185.147832 
L 390.10553 181.834734 
L 390.510245 161.730717 
L 390.914959 149.967866 
L 391.319674 134.264315 
L 391.522031 137.298682 
L 391.724388 133.530512 
L 391.926745 132.740122 
L 392.129102 137.065921 
L 392.533817 151.242676 
L 392.736174 156.429779 
L 393.343246 193.862014 
L 393.545603 198.308105 
L 393.950317 222.114196 
L 394.152675 221.880615 
L 394.355032 222.588383 
L 394.557389 225.447219 
L 394.759746 223.757299 
L 395.164461 202.889102 
L 395.366818 200.362207 
L 395.569175 190.692184 
L 395.973889 161.982497 
L 396.176247 156.598316 
L 396.783318 120.681437 
L 396.985675 117.747557 
L 397.39039 101.27532 
L 397.592747 103.842561 
L 397.795104 108.014266 
L 397.997461 109.815499 
L 398.199819 114.868847 
L 399.009248 180.703869 
L 399.413962 220.837976 
L 399.616319 223.690288 
L 400.021034 234.132634 
L 400.223391 233.075798 
L 400.628105 220.938497 
L 400.830462 218.282033 
L 401.03282 207.537214 
L 401.437534 179.213406 
L 401.639891 173.913096 
L 402.044606 143.383166 
L 402.44932 134.973628 
L 402.854034 113.767841 
L 403.056392 114.636592 
L 403.258749 116.726186 
L 403.461106 112.900128 
L 403.663463 114.145924 
L 404.270535 143.322953 
L 405.282321 218.868929 
L 405.484678 226.847051 
L 405.687035 228.426422 
L 405.889393 225.70512 
L 406.09175 226.449922 
L 406.294107 226.381907 
L 406.496464 219.150999 
L 406.698821 204.991551 
L 407.103536 194.039233 
L 407.50825 162.69782 
L 407.912965 147.25099 
L 408.317679 121.686379 
L 408.722393 114.157638 
L 408.924751 106.088928 
L 409.127108 105.064469 
L 409.531822 113.232999 
L 409.73418 116.505439 
L 409.936537 127.534218 
L 410.948323 219.082302 
L 411.757752 233.057226 
L 412.364823 217.304122 
L 412.56718 211.292733 
L 412.971895 180.267796 
L 413.174252 175.303156 
L 413.983681 134.634165 
L 414.186038 127.410362 
L 414.388395 114.664389 
L 414.590752 111.433893 
L 414.79311 114.553996 
L 415.197824 111.408813 
L 415.400181 117.821541 
L 416.007253 152.538151 
L 416.614325 204.93755 
L 417.019039 225.583749 
L 417.221396 229.147163 
L 417.626111 226.54514 
L 417.828468 226.986879 
L 418.030825 223.184426 
L 418.435539 200.624307 
L 418.637897 195.232799 
L 420.054397 119.000209 
L 420.256754 116.136929 
L 420.661469 105.896234 
L 421.26854 117.110485 
L 421.470898 124.46919 
L 422.685041 222.354426 
L 423.292112 232.080268 
L 423.49447 230.081326 
L 424.303898 201.598987 
L 424.708613 175.897456 
L 424.91097 168.579954 
L 425.315684 140.547152 
L 425.922756 118.369571 
L 426.125113 110.663014 
L 426.529828 112.573935 
L 426.732185 110.75749 
L 426.934542 113.54289 
L 427.541614 147.0361 
L 428.351043 213.383953 
L 428.755757 228.917368 
L 428.958114 229.643274 
L 429.160471 227.651437 
L 429.362829 226.917423 
L 429.565186 225.230426 
L 430.576972 171.565859 
L 430.981686 151.329667 
L 431.791115 116.095612 
L 432.19583 107.419691 
L 432.398187 107.938706 
L 433.005258 122.403278 
L 433.409973 154.570813 
L 434.219402 221.503452 
L 434.421759 224.069971 
L 434.826473 230.726867 
L 435.02883 230.868313 
L 435.433545 219.457088 
L 435.838259 205.959894 
L 436.242974 177.734951 
L 436.445331 170.346386 
L 437.25476 130.05237 
L 437.861831 109.988688 
L 438.064189 112.149639 
L 438.266546 111.018299 
L 438.468903 111.68195 
L 438.873617 131.272252 
L 439.278332 159.811575 
L 439.885403 211.340858 
L 440.290118 227.384011 
L 440.492475 230.604286 
L 441.099547 225.77 
L 441.301904 220.487637 
L 441.706618 197.458305 
L 441.908976 189.787748 
L 442.718404 145.1291 
L 443.325476 116.688227 
L 443.527833 113.980668 
L 443.73019 109.39424 
L 443.932548 107.585959 
L 444.134905 110.709253 
L 444.539619 121.218856 
L 444.741976 130.664541 
L 445.753762 217.835241 
L 446.158477 227.144084 
L 446.563191 231.136944 
L 446.765549 228.13567 
L 447.37262 208.775745 
L 448.586763 137.237053 
L 448.991478 125.702433 
L 449.396192 109.91901 
L 449.598549 111.440198 
L 449.800907 111.875182 
L 450.003264 111.345671 
L 450.205621 116.369659 
L 450.812693 154.23784 
L 451.622121 218.504584 
L 452.026836 230.072553 
L 452.229193 229.804112 
L 452.836265 222.984563 
L 454.65748 126.624848 
L 455.062194 114.048257 
L 455.466908 107.84391 
L 455.669266 108.864152 
L 456.07398 119.372307 
L 456.276337 126.882453 
L 456.681052 162.05386 
L 457.490481 222.819958 
L 457.895195 229.035396 
L 458.097552 230.592434 
L 458.299909 229.638007 
L 458.704624 216.730545 
L 459.109338 201.151716 
L 459.514053 174.294909 
L 459.918767 154.238397 
L 460.323481 132.326392 
L 460.525839 127.215861 
L 460.930553 110.94939 
L 461.13291 110.093724 
L 461.335267 111.54426 
L 461.537625 111.356193 
L 461.739982 113.768623 
L 462.144696 134.87921 
L 462.751768 184.123052 
L 463.156482 216.121245 
L 463.561197 228.846636 
L 463.763554 230.598523 
L 464.370626 224.322001 
L 464.77534 204.737964 
L 466.596555 114.170107 
L 467.203626 108.115752 
L 467.405984 111.194525 
L 467.810698 124.471304 
L 468.013055 136.005488 
L 469.024841 221.419272 
L 469.429556 228.733821 
L 469.631913 229.784714 
L 469.83427 229.911632 
L 470.036627 226.723223 
L 470.643699 204.446719 
L 471.857842 134.42169 
L 472.667271 109.189974 
L 472.869628 110.832512 
L 473.071985 111.158744 
L 473.274343 112.541615 
L 473.4767 119.019573 
L 473.881414 143.91715 
L 474.8932 221.525566 
L 475.297915 230.736086 
L 475.500272 229.772877 
L 475.904986 224.767071 
L 476.107344 220.028859 
L 477.726201 134.132546 
L 478.130916 115.801368 
L 478.737987 108.427246 
L 478.940345 110.157904 
L 479.345059 122.6999 
L 479.547416 131.896099 
L 480.761559 224.012766 
L 480.963917 227.767219 
L 481.368631 230.165844 
L 481.570988 228.072424 
L 481.773345 222.912742 
L 482.987489 161.67932 
L 483.59456 129.874394 
L 483.796917 124.600562 
L 484.201632 110.097876 
L 484.403989 110.221007 
L 484.606346 111.533341 
L 484.808704 112.097275 
L 485.011061 116.609822 
L 485.415775 139.620218 
L 486.427561 220.140657 
L 486.832276 229.977834 
L 487.034633 230.499854 
L 487.641704 222.148029 
L 488.451133 180.780422 
L 489.058205 145.412823 
L 489.867634 112.643549 
L 490.272348 108.741521 
L 490.474705 108.639099 
L 490.677063 112.693325 
L 491.081777 128.102458 
L 491.486491 162.098644 
L 492.093563 211.791328 
L 492.29592 222.891212 
L 492.700635 229.254176 
L 492.902992 229.896793 
L 493.105349 229.168262 
L 493.307706 225.00605 
L 493.914778 200.277654 
L 494.724207 154.152848 
L 495.128921 131.88229 
L 495.93835 109.555319 
L 496.343064 111.843528 
L 496.545422 114.548613 
L 496.950136 134.72156 
L 498.164279 222.99347 
L 498.366636 228.533181 
L 498.568994 230.656247 
L 498.771351 229.453287 
L 499.176065 223.54281 
L 499.58078 205.614875 
L 500.794923 139.047525 
L 501.401995 113.348248 
L 501.806709 109.642131 
L 502.009066 108.498154 
L 502.211423 110.693413 
L 502.616138 125.513148 
L 502.818495 136.679514 
L 503.830281 220.966061 
L 504.234995 229.131829 
L 504.437353 229.51421 
L 504.63971 229.274853 
L 504.842067 226.797388 
L 505.044424 220.670584 
L 507.270354 113.402432 
L 507.472711 109.235738 
L 507.877425 111.027231 
L 508.079782 113.137279 
L 508.28214 119.06494 
L 508.686854 144.117059 
L 509.496283 214.075075 
L 509.900997 226.659031 
L 510.103354 230.46153 
L 510.305712 230.21621 
L 510.710426 224.289371 
L 510.912783 219.226514 
L 511.924569 163.989873 
L 512.329284 142.284352 
L 513.138713 112.119126 
L 513.543427 109.170584 
L 513.745784 110.12889 
L 513.948141 115.198898 
L 514.352856 132.851143 
L 515.566999 224.070407 
L 515.769356 228.191302 
L 516.174071 229.588016 
L 516.376428 227.803274 
L 516.578785 223.311087 
L 518.4 129.467136 
L 518.4 129.467136 
" clip-path="url(#p60b279b323)" style="fill: none; stroke: #2ca02c; stroke-width: 1.5; stroke-linecap: square"/>
   </g>
   <g id="patch_3">
    <path d="M 72 320.4 
L 72 43.2 
" style="fill: none; stroke: #000000; stroke-width: 0.8; stroke-linejoin: miter; stroke-linecap: square"/>
   </g>
   <g id="patch_4">
    <path d="M 518.4 320.4 
L 518.4 43.2 
" style="fill: none; stroke: #000000; stroke-width: 0.8; stroke-linejoin: miter; stroke-linecap: square"/>
   </g>
   <g id="patch_5">
    <path d="M 72 320.4 
L 518.4 320.4 
" style="fill: none; stroke: #000000; stroke-width: 0.8; stroke-linejoin: miter; stroke-linecap: square"/>
   </g>
   <g id="patch_6">
    <path d="M 72 43.2 
L 518.4 43.2 
" style="fill: none; stroke: #000000; stroke-width: 0.8; stroke-linejoin: miter; stroke-linecap: square"/>
   </g>
   <g id="text_13">
    <!-- Classic Transformer - model_20231126190549 -->
    <g transform="translate(155.436563 37.2) scale(0.12 -0.12)">
     <defs>
      <path id="DejaVuSans-43" d="M 4122 4306 
L 4122 3641 
Q 3803 3938 3442 4084 
Q 3081 4231 2675 4231 
Q 1875 4231 1450 3742 
Q 1025 3253 1025 2328 
Q 1025 1406 1450 917 
Q 1875 428 2675 428 
Q 3081 428 3442 575 
Q 3803 722 4122 1019 
L 4122 359 
Q 3791 134 3420 21 
Q 3050 -91 2638 -91 
Q 1578 -91 968 557 
Q 359 1206 359 2328 
Q 359 3453 968 4101 
Q 1578 4750 2638 4750 
Q 3056 4750 3426 4639 
Q 3797 4528 4122 4306 
z
" transform="scale(0.015625)"/>
      <path id="DejaVuSans-6c" d="M 603 4863 
L 1178 4863 
L 1178 0 
L 603 0 
L 603 4863 
z
" transform="scale(0.015625)"/>
      <path id="DejaVuSans-61" d="M 2194 1759 
Q 1497 1759 1228 1600 
Q 959 1441 959 1056 
Q 959 750 1161 570 
Q 1363 391 1709 391 
Q 2188 391 2477 730 
Q 2766 1069 2766 1631 
L 2766 1759 
L 2194 1759 
z
M 3341 1997 
L 3341 0 
L 2766 0 
L 2766 531 
Q 2569 213 2275 61 
Q 1981 -91 1556 -91 
Q 1019 -91 701 211 
Q 384 513 384 1019 
Q 384 1609 779 1909 
Q 1175 2209 1959 2209 
L 2766 2209 
L 2766 2266 
Q 2766 2663 2505 2880 
Q 2244 3097 1772 3097 
Q 1472 3097 1187 3025 
Q 903 2953 641 2809 
L 641 3341 
Q 956 3463 1253 3523 
Q 1550 3584 1831 3584 
Q 2591 3584 2966 3190 
Q 3341 2797 3341 1997 
z
" transform="scale(0.015625)"/>
      <path id="DejaVuSans-73" d="M 2834 3397 
L 2834 2853 
Q 2591 2978 2328 3040 
Q 2066 3103 1784 3103 
Q 1356 3103 1142 2972 
Q 928 2841 928 2578 
Q 928 2378 1081 2264 
Q 1234 2150 1697 2047 
L 1894 2003 
Q 2506 1872 2764 1633 
Q 3022 1394 3022 966 
Q 3022 478 2636 193 
Q 2250 -91 1575 -91 
Q 1294 -91 989 -36 
Q 684 19 347 128 
L 347 722 
Q 666 556 975 473 
Q 1284 391 1588 391 
Q 1994 391 2212 530 
Q 2431 669 2431 922 
Q 2431 1156 2273 1281 
Q 2116 1406 1581 1522 
L 1381 1569 
Q 847 1681 609 1914 
Q 372 2147 372 2553 
Q 372 3047 722 3315 
Q 1072 3584 1716 3584 
Q 2034 3584 2315 3537 
Q 2597 3491 2834 3397 
z
" transform="scale(0.015625)"/>
      <path id="DejaVuSans-69" d="M 603 3500 
L 1178 3500 
L 1178 0 
L 603 0 
L 603 3500 
z
M 603 4863 
L 1178 4863 
L 1178 4134 
L 603 4134 
L 603 4863 
z
" transform="scale(0.015625)"/>
      <path id="DejaVuSans-63" d="M 3122 3366 
L 3122 2828 
Q 2878 2963 2633 3030 
Q 2388 3097 2138 3097 
Q 1578 3097 1268 2742 
Q 959 2388 959 1747 
Q 959 1106 1268 751 
Q 1578 397 2138 397 
Q 2388 397 2633 464 
Q 2878 531 3122 666 
L 3122 134 
Q 2881 22 2623 -34 
Q 2366 -91 2075 -91 
Q 1284 -91 818 406 
Q 353 903 353 1747 
Q 353 2603 823 3093 
Q 1294 3584 2113 3584 
Q 2378 3584 2631 3529 
Q 2884 3475 3122 3366 
z
" transform="scale(0.015625)"/>
      <path id="DejaVuSans-20" transform="scale(0.015625)"/>
      <path id="DejaVuSans-54" d="M -19 4666 
L 3928 4666 
L 3928 4134 
L 2272 4134 
L 2272 0 
L 1638 0 
L 1638 4134 
L -19 4134 
L -19 4666 
z
" transform="scale(0.015625)"/>
      <path id="DejaVuSans-72" d="M 2631 2963 
Q 2534 3019 2420 3045 
Q 2306 3072 2169 3072 
Q 1681 3072 1420 2755 
Q 1159 2438 1159 1844 
L 1159 0 
L 581 0 
L 581 3500 
L 1159 3500 
L 1159 2956 
Q 1341 3275 1631 3429 
Q 1922 3584 2338 3584 
Q 2397 3584 2469 3576 
Q 2541 3569 2628 3553 
L 2631 2963 
z
" transform="scale(0.015625)"/>
      <path id="DejaVuSans-6e" d="M 3513 2113 
L 3513 0 
L 2938 0 
L 2938 2094 
Q 2938 2591 2744 2837 
Q 2550 3084 2163 3084 
Q 1697 3084 1428 2787 
Q 1159 2491 1159 1978 
L 1159 0 
L 581 0 
L 581 3500 
L 1159 3500 
L 1159 2956 
Q 1366 3272 1645 3428 
Q 1925 3584 2291 3584 
Q 2894 3584 3203 3211 
Q 3513 2838 3513 2113 
z
" transform="scale(0.015625)"/>
      <path id="DejaVuSans-66" d="M 2375 4863 
L 2375 4384 
L 1825 4384 
Q 1516 4384 1395 4259 
Q 1275 4134 1275 3809 
L 1275 3500 
L 2222 3500 
L 2222 3053 
L 1275 3053 
L 1275 0 
L 697 0 
L 697 3053 
L 147 3053 
L 147 3500 
L 697 3500 
L 697 3744 
Q 697 4328 969 4595 
Q 1241 4863 1831 4863 
L 2375 4863 
z
" transform="scale(0.015625)"/>
      <path id="DejaVuSans-6f" d="M 1959 3097 
Q 1497 3097 1228 2736 
Q 959 2375 959 1747 
Q 959 1119 1226 758 
Q 1494 397 1959 397 
Q 2419 397 2687 759 
Q 2956 1122 2956 1747 
Q 2956 2369 2687 2733 
Q 2419 3097 1959 3097 
z
M 1959 3584 
Q 2709 3584 3137 3096 
Q 3566 2609 3566 1747 
Q 3566 888 3137 398 
Q 2709 -91 1959 -91 
Q 1206 -91 779 398 
Q 353 888 353 1747 
Q 353 2609 779 3096 
Q 1206 3584 1959 3584 
z
" transform="scale(0.015625)"/>
      <path id="DejaVuSans-6d" d="M 3328 2828 
Q 3544 3216 3844 3400 
Q 4144 3584 4550 3584 
Q 5097 3584 5394 3201 
Q 5691 2819 5691 2113 
L 5691 0 
L 5113 0 
L 5113 2094 
Q 5113 2597 4934 2840 
Q 4756 3084 4391 3084 
Q 3944 3084 3684 2787 
Q 3425 2491 3425 1978 
L 3425 0 
L 2847 0 
L 2847 2094 
Q 2847 2600 2669 2842 
Q 2491 3084 2119 3084 
Q 1678 3084 1418 2786 
Q 1159 2488 1159 1978 
L 1159 0 
L 581 0 
L 581 3500 
L 1159 3500 
L 1159 2956 
Q 1356 3278 1631 3431 
Q 1906 3584 2284 3584 
Q 2666 3584 2933 3390 
Q 3200 3197 3328 2828 
z
" transform="scale(0.015625)"/>
      <path id="DejaVuSans-65" d="M 3597 1894 
L 3597 1613 
L 953 1613 
Q 991 1019 1311 708 
Q 1631 397 2203 397 
Q 2534 397 2845 478 
Q 3156 559 3463 722 
L 3463 178 
Q 3153 47 2828 -22 
Q 2503 -91 2169 -91 
Q 1331 -91 842 396 
Q 353 884 353 1716 
Q 353 2575 817 3079 
Q 1281 3584 2069 3584 
Q 2775 3584 3186 3129 
Q 3597 2675 3597 1894 
z
M 3022 2063 
Q 3016 2534 2758 2815 
Q 2500 3097 2075 3097 
Q 1594 3097 1305 2825 
Q 1016 2553 972 2059 
L 3022 2063 
z
" transform="scale(0.015625)"/>
      <path id="DejaVuSans-64" d="M 2906 2969 
L 2906 4863 
L 3481 4863 
L 3481 0 
L 2906 0 
L 2906 525 
Q 2725 213 2448 61 
Q 2172 -91 1784 -91 
Q 1150 -91 751 415 
Q 353 922 353 1747 
Q 353 2572 751 3078 
Q 1150 3584 1784 3584 
Q 2172 3584 2448 3432 
Q 2725 3281 2906 2969 
z
M 947 1747 
Q 947 1113 1208 752 
Q 1469 391 1925 391 
Q 2381 391 2643 752 
Q 2906 1113 2906 1747 
Q 2906 2381 2643 2742 
Q 2381 3103 1925 3103 
Q 1469 3103 1208 2742 
Q 947 2381 947 1747 
z
" transform="scale(0.015625)"/>
      <path id="DejaVuSans-5f" d="M 3263 -1063 
L 3263 -1509 
L -63 -1509 
L -63 -1063 
L 3263 -1063 
z
" transform="scale(0.015625)"/>
      <path id="DejaVuSans-39" d="M 703 97 
L 703 672 
Q 941 559 1184 500 
Q 1428 441 1663 441 
Q 2288 441 2617 861 
Q 2947 1281 2994 2138 
Q 2813 1869 2534 1725 
Q 2256 1581 1919 1581 
Q 1219 1581 811 2004 
Q 403 2428 403 3163 
Q 403 3881 828 4315 
Q 1253 4750 1959 4750 
Q 2769 4750 3195 4129 
Q 3622 3509 3622 2328 
Q 3622 1225 3098 567 
Q 2575 -91 1691 -91 
Q 1453 -91 1209 -44 
Q 966 3 703 97 
z
M 1959 2075 
Q 2384 2075 2632 2365 
Q 2881 2656 2881 3163 
Q 2881 3666 2632 3958 
Q 2384 4250 1959 4250 
Q 1534 4250 1286 3958 
Q 1038 3666 1038 3163 
Q 1038 2656 1286 2365 
Q 1534 2075 1959 2075 
z
" transform="scale(0.015625)"/>
      <path id="DejaVuSans-34" d="M 2419 4116 
L 825 1625 
L 2419 1625 
L 2419 4116 
z
M 2253 4666 
L 3047 4666 
L 3047 1625 
L 3713 1625 
L 3713 1100 
L 3047 1100 
L 3047 0 
L 2419 0 
L 2419 1100 
L 313 1100 
L 313 1709 
L 2253 4666 
z
" transform="scale(0.015625)"/>
     </defs>
     <use xlink:href="#DejaVuSans-43"/>
     <use xlink:href="#DejaVuSans-6c" x="69.824219"/>
     <use xlink:href="#DejaVuSans-61" x="97.607422"/>
     <use xlink:href="#DejaVuSans-73" x="158.886719"/>
     <use xlink:href="#DejaVuSans-73" x="210.986328"/>
     <use xlink:href="#DejaVuSans-69" x="263.085938"/>
     <use xlink:href="#DejaVuSans-63" x="290.869141"/>
     <use xlink:href="#DejaVuSans-20" x="345.849609"/>
     <use xlink:href="#DejaVuSans-54" x="377.636719"/>
     <use xlink:href="#DejaVuSans-72" x="423.970703"/>
     <use xlink:href="#DejaVuSans-61" x="465.083984"/>
     <use xlink:href="#DejaVuSans-6e" x="526.363281"/>
     <use xlink:href="#DejaVuSans-73" x="589.742188"/>
     <use xlink:href="#DejaVuSans-66" x="641.841797"/>
     <use xlink:href="#DejaVuSans-6f" x="677.046875"/>
     <use xlink:href="#DejaVuSans-72" x="738.228516"/>
     <use xlink:href="#DejaVuSans-6d" x="777.591797"/>
     <use xlink:href="#DejaVuSans-65" x="875.003906"/>
     <use xlink:href="#DejaVuSans-72" x="936.527344"/>
     <use xlink:href="#DejaVuSans-20" x="977.640625"/>
     <use xlink:href="#DejaVuSans-2d" x="1009.427734"/>
     <use xlink:href="#DejaVuSans-20" x="1045.511719"/>
     <use xlink:href="#DejaVuSans-6d" x="1077.298828"/>
     <use xlink:href="#DejaVuSans-6f" x="1174.710938"/>
     <use xlink:href="#DejaVuSans-64" x="1235.892578"/>
     <use xlink:href="#DejaVuSans-65" x="1299.369141"/>
     <use xlink:href="#DejaVuSans-6c" x="1360.892578"/>
     <use xlink:href="#DejaVuSans-5f" x="1388.675781"/>
     <use xlink:href="#DejaVuSans-32" x="1438.675781"/>
     <use xlink:href="#DejaVuSans-30" x="1502.298828"/>
     <use xlink:href="#DejaVuSans-32" x="1565.921875"/>
     <use xlink:href="#DejaVuSans-33" x="1629.544922"/>
     <use xlink:href="#DejaVuSans-31" x="1693.167969"/>
     <use xlink:href="#DejaVuSans-31" x="1756.791016"/>
     <use xlink:href="#DejaVuSans-32" x="1820.414062"/>
     <use xlink:href="#DejaVuSans-36" x="1884.037109"/>
     <use xlink:href="#DejaVuSans-31" x="1947.660156"/>
     <use xlink:href="#DejaVuSans-39" x="2011.283203"/>
     <use xlink:href="#DejaVuSans-30" x="2074.90625"/>
     <use xlink:href="#DejaVuSans-35" x="2138.529297"/>
     <use xlink:href="#DejaVuSans-34" x="2202.152344"/>
     <use xlink:href="#DejaVuSans-39" x="2265.775391"/>
    </g>
   </g>
   <g id="legend_1">
    <g id="patch_7">
     <path d="M 79 95.234375 
L 161.517188 95.234375 
Q 163.517188 95.234375 163.517188 93.234375 
L 163.517188 50.2 
Q 163.517188 48.2 161.517188 48.2 
L 79 48.2 
Q 77 48.2 77 50.2 
L 77 93.234375 
Q 77 95.234375 79 95.234375 
z
" style="fill: #ffffff; opacity: 0.8; stroke: #cccccc; stroke-linejoin: miter"/>
    </g>
    <g id="line2d_16">
     <path d="M 81 56.298437 
L 91 56.298437 
L 101 56.298437 
" style="fill: none; stroke: #1f77b4; stroke-width: 1.5; stroke-linecap: square"/>
    </g>
    <g id="text_14">
     <!-- Measured -->
     <g transform="translate(109 59.798437) scale(0.1 -0.1)">
      <defs>
       <path id="DejaVuSans-4d" d="M 628 4666 
L 1569 4666 
L 2759 1491 
L 3956 4666 
L 4897 4666 
L 4897 0 
L 4281 0 
L 4281 4097 
L 3078 897 
L 2444 897 
L 1241 4097 
L 1241 0 
L 628 0 
L 628 4666 
z
" transform="scale(0.015625)"/>
       <path id="DejaVuSans-75" d="M 544 1381 
L 544 3500 
L 1119 3500 
L 1119 1403 
Q 1119 906 1312 657 
Q 1506 409 1894 409 
Q 2359 409 2629 706 
Q 2900 1003 2900 1516 
L 2900 3500 
L 3475 3500 
L 3475 0 
L 2900 0 
L 2900 538 
Q 2691 219 2414 64 
Q 2138 -91 1772 -91 
Q 1169 -91 856 284 
Q 544 659 544 1381 
z
M 1991 3584 
L 1991 3584 
z
" transform="scale(0.015625)"/>
      </defs>
      <use xlink:href="#DejaVuSans-4d"/>
      <use xlink:href="#DejaVuSans-65" x="86.279297"/>
      <use xlink:href="#DejaVuSans-61" x="147.802734"/>
      <use xlink:href="#DejaVuSans-73" x="209.082031"/>
      <use xlink:href="#DejaVuSans-75" x="261.181641"/>
      <use xlink:href="#DejaVuSans-72" x="324.560547"/>
      <use xlink:href="#DejaVuSans-65" x="363.423828"/>
      <use xlink:href="#DejaVuSans-64" x="424.947266"/>
     </g>
    </g>
    <g id="line2d_17">
     <path d="M 81 70.976562 
L 91 70.976562 
L 101 70.976562 
" style="fill: none; stroke: #ff7f0e; stroke-width: 1.5; stroke-linecap: square"/>
    </g>
    <g id="text_15">
     <!-- Fitted -->
     <g transform="translate(109 74.476562) scale(0.1 -0.1)">
      <defs>
       <path id="DejaVuSans-46" d="M 628 4666 
L 3309 4666 
L 3309 4134 
L 1259 4134 
L 1259 2759 
L 3109 2759 
L 3109 2228 
L 1259 2228 
L 1259 0 
L 628 0 
L 628 4666 
z
" transform="scale(0.015625)"/>
       <path id="DejaVuSans-74" d="M 1172 4494 
L 1172 3500 
L 2356 3500 
L 2356 3053 
L 1172 3053 
L 1172 1153 
Q 1172 725 1289 603 
Q 1406 481 1766 481 
L 2356 481 
L 2356 0 
L 1766 0 
Q 1100 0 847 248 
Q 594 497 594 1153 
L 594 3053 
L 172 3053 
L 172 3500 
L 594 3500 
L 594 4494 
L 1172 4494 
z
" transform="scale(0.015625)"/>
      </defs>
      <use xlink:href="#DejaVuSans-46"/>
      <use xlink:href="#DejaVuSans-69" x="50.269531"/>
      <use xlink:href="#DejaVuSans-74" x="78.052734"/>
      <use xlink:href="#DejaVuSans-74" x="117.261719"/>
      <use xlink:href="#DejaVuSans-65" x="156.470703"/>
      <use xlink:href="#DejaVuSans-64" x="217.994141"/>
     </g>
    </g>
    <g id="line2d_18">
     <path d="M 81 85.654687 
L 91 85.654687 
L 101 85.654687 
" style="fill: none; stroke: #2ca02c; stroke-width: 1.5; stroke-linecap: square"/>
    </g>
    <g id="text_16">
     <!-- Estimated -->
     <g transform="translate(109 89.154687) scale(0.1 -0.1)">
      <defs>
       <path id="DejaVuSans-45" d="M 628 4666 
L 3578 4666 
L 3578 4134 
L 1259 4134 
L 1259 2753 
L 3481 2753 
L 3481 2222 
L 1259 2222 
L 1259 531 
L 3634 531 
L 3634 0 
L 628 0 
L 628 4666 
z
" transform="scale(0.015625)"/>
      </defs>
      <use xlink:href="#DejaVuSans-45"/>
      <use xlink:href="#DejaVuSans-73" x="63.183594"/>
      <use xlink:href="#DejaVuSans-74" x="115.283203"/>
      <use xlink:href="#DejaVuSans-69" x="154.492188"/>
      <use xlink:href="#DejaVuSans-6d" x="182.275391"/>
      <use xlink:href="#DejaVuSans-61" x="279.6875"/>
      <use xlink:href="#DejaVuSans-74" x="340.966797"/>
      <use xlink:href="#DejaVuSans-65" x="380.175781"/>
      <use xlink:href="#DejaVuSans-64" x="441.699219"/>
     </g>
    </g>
   </g>
  </g>
 </g>
 <defs>
  <clipPath id="p60b279b323">
   <rect x="72" y="43.2" width="446.4" height="277.2"/>
  </clipPath>
 </defs>
</svg>
