<?xml version="1.0" encoding="utf-8" standalone="no"?>
<!DOCTYPE svg PUBLIC "-//W3C//DTD SVG 1.1//EN"
  "http://www.w3.org/Graphics/SVG/1.1/DTD/svg11.dtd">
<svg xmlns:xlink="http://www.w3.org/1999/xlink" width="576pt" height="360pt" viewBox="0 0 576 360" xmlns="http://www.w3.org/2000/svg" version="1.1">
 <metadata>
  <rdf:RDF xmlns:dc="http://purl.org/dc/elements/1.1/" xmlns:cc="http://creativecommons.org/ns#" xmlns:rdf="http://www.w3.org/1999/02/22-rdf-syntax-ns#">
   <cc:Work>
    <dc:type rdf:resource="http://purl.org/dc/dcmitype/StillImage"/>
    <dc:date>2023-11-26T19:16:11.601246</dc:date>
    <dc:format>image/svg+xml</dc:format>
    <dc:creator>
     <cc:Agent>
      <dc:title>Matplotlib v3.8.1, https://matplotlib.org/</dc:title>
     </cc:Agent>
    </dc:creator>
   </cc:Work>
  </rdf:RDF>
 </metadata>
 <defs>
  <style type="text/css">*{stroke-linejoin: round; stroke-linecap: butt}</style>
 </defs>
 <g id="figure_1">
  <g id="patch_1">
   <path d="M 0 360 
L 576 360 
L 576 0 
L 0 0 
z
" style="fill: #ffffff"/>
  </g>
  <g id="axes_1">
   <g id="patch_2">
    <path d="M 72 320.4 
L 518.4 320.4 
L 518.4 43.2 
L 72 43.2 
z
" style="fill: #ffffff"/>
   </g>
   <g id="matplotlib.axis_1">
    <g id="xtick_1">
     <g id="line2d_1">
      <defs>
       <path id="m80a73b5694" d="M 0 0 
L 0 3.5 
" style="stroke: #000000; stroke-width: 0.8"/>
      </defs>
      <g>
       <use xlink:href="#m80a73b5694" x="129.874161" y="320.4" style="stroke: #000000; stroke-width: 0.8"/>
      </g>
     </g>
     <g id="text_1">
      <!-- 2020-05-15 -->
      <g transform="translate(100.816349 334.998438) scale(0.1 -0.1)">
       <defs>
        <path id="DejaVuSans-32" d="M 1228 531 
L 3431 531 
L 3431 0 
L 469 0 
L 469 531 
Q 828 903 1448 1529 
Q 2069 2156 2228 2338 
Q 2531 2678 2651 2914 
Q 2772 3150 2772 3378 
Q 2772 3750 2511 3984 
Q 2250 4219 1831 4219 
Q 1534 4219 1204 4116 
Q 875 4013 500 3803 
L 500 4441 
Q 881 4594 1212 4672 
Q 1544 4750 1819 4750 
Q 2544 4750 2975 4387 
Q 3406 4025 3406 3419 
Q 3406 3131 3298 2873 
Q 3191 2616 2906 2266 
Q 2828 2175 2409 1742 
Q 1991 1309 1228 531 
z
" transform="scale(0.015625)"/>
        <path id="DejaVuSans-30" d="M 2034 4250 
Q 1547 4250 1301 3770 
Q 1056 3291 1056 2328 
Q 1056 1369 1301 889 
Q 1547 409 2034 409 
Q 2525 409 2770 889 
Q 3016 1369 3016 2328 
Q 3016 3291 2770 3770 
Q 2525 4250 2034 4250 
z
M 2034 4750 
Q 2819 4750 3233 4129 
Q 3647 3509 3647 2328 
Q 3647 1150 3233 529 
Q 2819 -91 2034 -91 
Q 1250 -91 836 529 
Q 422 1150 422 2328 
Q 422 3509 836 4129 
Q 1250 4750 2034 4750 
z
" transform="scale(0.015625)"/>
        <path id="DejaVuSans-2d" d="M 313 2009 
L 1997 2009 
L 1997 1497 
L 313 1497 
L 313 2009 
z
" transform="scale(0.015625)"/>
        <path id="DejaVuSans-35" d="M 691 4666 
L 3169 4666 
L 3169 4134 
L 1269 4134 
L 1269 2991 
Q 1406 3038 1543 3061 
Q 1681 3084 1819 3084 
Q 2600 3084 3056 2656 
Q 3513 2228 3513 1497 
Q 3513 744 3044 326 
Q 2575 -91 1722 -91 
Q 1428 -91 1123 -41 
Q 819 9 494 109 
L 494 744 
Q 775 591 1075 516 
Q 1375 441 1709 441 
Q 2250 441 2565 725 
Q 2881 1009 2881 1497 
Q 2881 1984 2565 2268 
Q 2250 2553 1709 2553 
Q 1456 2553 1204 2497 
Q 953 2441 691 2322 
L 691 4666 
z
" transform="scale(0.015625)"/>
        <path id="DejaVuSans-31" d="M 794 531 
L 1825 531 
L 1825 4091 
L 703 3866 
L 703 4441 
L 1819 4666 
L 2450 4666 
L 2450 531 
L 3481 531 
L 3481 0 
L 794 0 
L 794 531 
z
" transform="scale(0.015625)"/>
       </defs>
       <use xlink:href="#DejaVuSans-32"/>
       <use xlink:href="#DejaVuSans-30" x="63.623047"/>
       <use xlink:href="#DejaVuSans-32" x="127.246094"/>
       <use xlink:href="#DejaVuSans-30" x="190.869141"/>
       <use xlink:href="#DejaVuSans-2d" x="254.492188"/>
       <use xlink:href="#DejaVuSans-30" x="290.576172"/>
       <use xlink:href="#DejaVuSans-35" x="354.199219"/>
       <use xlink:href="#DejaVuSans-2d" x="417.822266"/>
       <use xlink:href="#DejaVuSans-31" x="453.90625"/>
       <use xlink:href="#DejaVuSans-35" x="517.529297"/>
      </g>
     </g>
    </g>
    <g id="xtick_2">
     <g id="line2d_2">
      <g>
       <use xlink:href="#m80a73b5694" x="212.435902" y="320.4" style="stroke: #000000; stroke-width: 0.8"/>
      </g>
     </g>
     <g id="text_2">
      <!-- 2020-06-01 -->
      <g transform="translate(183.37809 334.998438) scale(0.1 -0.1)">
       <defs>
        <path id="DejaVuSans-36" d="M 2113 2584 
Q 1688 2584 1439 2293 
Q 1191 2003 1191 1497 
Q 1191 994 1439 701 
Q 1688 409 2113 409 
Q 2538 409 2786 701 
Q 3034 994 3034 1497 
Q 3034 2003 2786 2293 
Q 2538 2584 2113 2584 
z
M 3366 4563 
L 3366 3988 
Q 3128 4100 2886 4159 
Q 2644 4219 2406 4219 
Q 1781 4219 1451 3797 
Q 1122 3375 1075 2522 
Q 1259 2794 1537 2939 
Q 1816 3084 2150 3084 
Q 2853 3084 3261 2657 
Q 3669 2231 3669 1497 
Q 3669 778 3244 343 
Q 2819 -91 2113 -91 
Q 1303 -91 875 529 
Q 447 1150 447 2328 
Q 447 3434 972 4092 
Q 1497 4750 2381 4750 
Q 2619 4750 2861 4703 
Q 3103 4656 3366 4563 
z
" transform="scale(0.015625)"/>
       </defs>
       <use xlink:href="#DejaVuSans-32"/>
       <use xlink:href="#DejaVuSans-30" x="63.623047"/>
       <use xlink:href="#DejaVuSans-32" x="127.246094"/>
       <use xlink:href="#DejaVuSans-30" x="190.869141"/>
       <use xlink:href="#DejaVuSans-2d" x="254.492188"/>
       <use xlink:href="#DejaVuSans-30" x="290.576172"/>
       <use xlink:href="#DejaVuSans-36" x="354.199219"/>
       <use xlink:href="#DejaVuSans-2d" x="417.822266"/>
       <use xlink:href="#DejaVuSans-30" x="453.90625"/>
       <use xlink:href="#DejaVuSans-31" x="517.529297"/>
      </g>
     </g>
    </g>
    <g id="xtick_3">
     <g id="line2d_3">
      <g>
       <use xlink:href="#m80a73b5694" x="280.427924" y="320.4" style="stroke: #000000; stroke-width: 0.8"/>
      </g>
     </g>
     <g id="text_3">
      <!-- 2020-06-15 -->
      <g transform="translate(251.370111 334.998438) scale(0.1 -0.1)">
       <use xlink:href="#DejaVuSans-32"/>
       <use xlink:href="#DejaVuSans-30" x="63.623047"/>
       <use xlink:href="#DejaVuSans-32" x="127.246094"/>
       <use xlink:href="#DejaVuSans-30" x="190.869141"/>
       <use xlink:href="#DejaVuSans-2d" x="254.492188"/>
       <use xlink:href="#DejaVuSans-30" x="290.576172"/>
       <use xlink:href="#DejaVuSans-36" x="354.199219"/>
       <use xlink:href="#DejaVuSans-2d" x="417.822266"/>
       <use xlink:href="#DejaVuSans-31" x="453.90625"/>
       <use xlink:href="#DejaVuSans-35" x="517.529297"/>
      </g>
     </g>
    </g>
    <g id="xtick_4">
     <g id="line2d_4">
      <g>
       <use xlink:href="#m80a73b5694" x="358.133092" y="320.4" style="stroke: #000000; stroke-width: 0.8"/>
      </g>
     </g>
     <g id="text_4">
      <!-- 2020-07-01 -->
      <g transform="translate(329.075279 334.998438) scale(0.1 -0.1)">
       <defs>
        <path id="DejaVuSans-37" d="M 525 4666 
L 3525 4666 
L 3525 4397 
L 1831 0 
L 1172 0 
L 2766 4134 
L 525 4134 
L 525 4666 
z
" transform="scale(0.015625)"/>
       </defs>
       <use xlink:href="#DejaVuSans-32"/>
       <use xlink:href="#DejaVuSans-30" x="63.623047"/>
       <use xlink:href="#DejaVuSans-32" x="127.246094"/>
       <use xlink:href="#DejaVuSans-30" x="190.869141"/>
       <use xlink:href="#DejaVuSans-2d" x="254.492188"/>
       <use xlink:href="#DejaVuSans-30" x="290.576172"/>
       <use xlink:href="#DejaVuSans-37" x="354.199219"/>
       <use xlink:href="#DejaVuSans-2d" x="417.822266"/>
       <use xlink:href="#DejaVuSans-30" x="453.90625"/>
       <use xlink:href="#DejaVuSans-31" x="517.529297"/>
      </g>
     </g>
    </g>
    <g id="xtick_5">
     <g id="line2d_5">
      <g>
       <use xlink:href="#m80a73b5694" x="426.125113" y="320.4" style="stroke: #000000; stroke-width: 0.8"/>
      </g>
     </g>
     <g id="text_5">
      <!-- 2020-07-15 -->
      <g transform="translate(397.067301 334.998438) scale(0.1 -0.1)">
       <use xlink:href="#DejaVuSans-32"/>
       <use xlink:href="#DejaVuSans-30" x="63.623047"/>
       <use xlink:href="#DejaVuSans-32" x="127.246094"/>
       <use xlink:href="#DejaVuSans-30" x="190.869141"/>
       <use xlink:href="#DejaVuSans-2d" x="254.492188"/>
       <use xlink:href="#DejaVuSans-30" x="290.576172"/>
       <use xlink:href="#DejaVuSans-37" x="354.199219"/>
       <use xlink:href="#DejaVuSans-2d" x="417.822266"/>
       <use xlink:href="#DejaVuSans-31" x="453.90625"/>
       <use xlink:href="#DejaVuSans-35" x="517.529297"/>
      </g>
     </g>
    </g>
    <g id="xtick_6">
     <g id="line2d_6">
      <g>
       <use xlink:href="#m80a73b5694" x="508.686854" y="320.4" style="stroke: #000000; stroke-width: 0.8"/>
      </g>
     </g>
     <g id="text_6">
      <!-- 2020-08-01 -->
      <g transform="translate(479.629042 334.998438) scale(0.1 -0.1)">
       <defs>
        <path id="DejaVuSans-38" d="M 2034 2216 
Q 1584 2216 1326 1975 
Q 1069 1734 1069 1313 
Q 1069 891 1326 650 
Q 1584 409 2034 409 
Q 2484 409 2743 651 
Q 3003 894 3003 1313 
Q 3003 1734 2745 1975 
Q 2488 2216 2034 2216 
z
M 1403 2484 
Q 997 2584 770 2862 
Q 544 3141 544 3541 
Q 544 4100 942 4425 
Q 1341 4750 2034 4750 
Q 2731 4750 3128 4425 
Q 3525 4100 3525 3541 
Q 3525 3141 3298 2862 
Q 3072 2584 2669 2484 
Q 3125 2378 3379 2068 
Q 3634 1759 3634 1313 
Q 3634 634 3220 271 
Q 2806 -91 2034 -91 
Q 1263 -91 848 271 
Q 434 634 434 1313 
Q 434 1759 690 2068 
Q 947 2378 1403 2484 
z
M 1172 3481 
Q 1172 3119 1398 2916 
Q 1625 2713 2034 2713 
Q 2441 2713 2670 2916 
Q 2900 3119 2900 3481 
Q 2900 3844 2670 4047 
Q 2441 4250 2034 4250 
Q 1625 4250 1398 4047 
Q 1172 3844 1172 3481 
z
" transform="scale(0.015625)"/>
       </defs>
       <use xlink:href="#DejaVuSans-32"/>
       <use xlink:href="#DejaVuSans-30" x="63.623047"/>
       <use xlink:href="#DejaVuSans-32" x="127.246094"/>
       <use xlink:href="#DejaVuSans-30" x="190.869141"/>
       <use xlink:href="#DejaVuSans-2d" x="254.492188"/>
       <use xlink:href="#DejaVuSans-30" x="290.576172"/>
       <use xlink:href="#DejaVuSans-38" x="354.199219"/>
       <use xlink:href="#DejaVuSans-2d" x="417.822266"/>
       <use xlink:href="#DejaVuSans-30" x="453.90625"/>
       <use xlink:href="#DejaVuSans-31" x="517.529297"/>
      </g>
     </g>
    </g>
   </g>
   <g id="matplotlib.axis_2">
    <g id="ytick_1">
     <g id="line2d_7">
      <defs>
       <path id="mabdf8b7035" d="M 0 0 
L -3.5 0 
" style="stroke: #000000; stroke-width: 0.8"/>
      </defs>
      <g>
       <use xlink:href="#mabdf8b7035" x="72" y="316.02311" style="stroke: #000000; stroke-width: 0.8"/>
      </g>
     </g>
     <g id="text_7">
      <!-- −2 -->
      <g transform="translate(50.257812 319.822329) scale(0.1 -0.1)">
       <defs>
        <path id="DejaVuSans-2212" d="M 678 2272 
L 4684 2272 
L 4684 1741 
L 678 1741 
L 678 2272 
z
" transform="scale(0.015625)"/>
       </defs>
       <use xlink:href="#DejaVuSans-2212"/>
       <use xlink:href="#DejaVuSans-32" x="83.789062"/>
      </g>
     </g>
    </g>
    <g id="ytick_2">
     <g id="line2d_8">
      <g>
       <use xlink:href="#mabdf8b7035" x="72" y="262.270962" style="stroke: #000000; stroke-width: 0.8"/>
      </g>
     </g>
     <g id="text_8">
      <!-- −1 -->
      <g transform="translate(50.257812 266.070181) scale(0.1 -0.1)">
       <use xlink:href="#DejaVuSans-2212"/>
       <use xlink:href="#DejaVuSans-31" x="83.789062"/>
      </g>
     </g>
    </g>
    <g id="ytick_3">
     <g id="line2d_9">
      <g>
       <use xlink:href="#mabdf8b7035" x="72" y="208.518814" style="stroke: #000000; stroke-width: 0.8"/>
      </g>
     </g>
     <g id="text_9">
      <!-- 0 -->
      <g transform="translate(58.6375 212.318032) scale(0.1 -0.1)">
       <use xlink:href="#DejaVuSans-30"/>
      </g>
     </g>
    </g>
    <g id="ytick_4">
     <g id="line2d_10">
      <g>
       <use xlink:href="#mabdf8b7035" x="72" y="154.766666" style="stroke: #000000; stroke-width: 0.8"/>
      </g>
     </g>
     <g id="text_10">
      <!-- 1 -->
      <g transform="translate(58.6375 158.565884) scale(0.1 -0.1)">
       <use xlink:href="#DejaVuSans-31"/>
      </g>
     </g>
    </g>
    <g id="ytick_5">
     <g id="line2d_11">
      <g>
       <use xlink:href="#mabdf8b7035" x="72" y="101.014518" style="stroke: #000000; stroke-width: 0.8"/>
      </g>
     </g>
     <g id="text_11">
      <!-- 2 -->
      <g transform="translate(58.6375 104.813736) scale(0.1 -0.1)">
       <use xlink:href="#DejaVuSans-32"/>
      </g>
     </g>
    </g>
    <g id="ytick_6">
     <g id="line2d_12">
      <g>
       <use xlink:href="#mabdf8b7035" x="72" y="47.262369" style="stroke: #000000; stroke-width: 0.8"/>
      </g>
     </g>
     <g id="text_12">
      <!-- 3 -->
      <g transform="translate(58.6375 51.061588) scale(0.1 -0.1)">
       <defs>
        <path id="DejaVuSans-33" d="M 2597 2516 
Q 3050 2419 3304 2112 
Q 3559 1806 3559 1356 
Q 3559 666 3084 287 
Q 2609 -91 1734 -91 
Q 1441 -91 1130 -33 
Q 819 25 488 141 
L 488 750 
Q 750 597 1062 519 
Q 1375 441 1716 441 
Q 2309 441 2620 675 
Q 2931 909 2931 1356 
Q 2931 1769 2642 2001 
Q 2353 2234 1838 2234 
L 1294 2234 
L 1294 2753 
L 1863 2753 
Q 2328 2753 2575 2939 
Q 2822 3125 2822 3475 
Q 2822 3834 2567 4026 
Q 2313 4219 1838 4219 
Q 1578 4219 1281 4162 
Q 984 4106 628 3988 
L 628 4550 
Q 988 4650 1302 4700 
Q 1616 4750 1894 4750 
Q 2613 4750 3031 4423 
Q 3450 4097 3450 3541 
Q 3450 3153 3228 2886 
Q 3006 2619 2597 2516 
z
" transform="scale(0.015625)"/>
       </defs>
       <use xlink:href="#DejaVuSans-33"/>
      </g>
     </g>
    </g>
   </g>
   <g id="line2d_13">
    <path d="M 72 287.021497 
L 72.404714 298.412757 
L 72.607072 296.682973 
L 72.809429 285.96675 
L 73.214143 254.915018 
L 73.618858 242.426821 
L 75.035358 159.101858 
L 75.237715 156.127474 
L 75.440073 161.211351 
L 75.64243 169.459468 
L 75.844787 172.771371 
L 76.047144 188.086288 
L 76.654216 258.669915 
L 77.05893 282.844701 
L 77.261287 287.232446 
L 77.463645 286.852737 
L 77.666002 276.094324 
L 78.070716 247.468508 
L 78.475431 234.938122 
L 78.677788 225.761828 
L 79.487217 168.510196 
L 79.891931 152.161627 
L 80.094288 154.123456 
L 80.903717 196.735208 
L 81.713146 272.423807 
L 82.11786 287.148066 
L 82.320218 289.194274 
L 82.522575 288.898945 
L 82.724932 286.367554 
L 82.927289 279.511703 
L 83.332004 256.412757 
L 83.736718 242.026017 
L 83.939075 238.967253 
L 84.141432 239.241487 
L 84.546147 245.675439 
L 84.748504 247.784932 
L 84.950861 247.806027 
L 85.355576 252.025013 
L 85.557933 248.670919 
L 85.76029 254.830638 
L 86.569719 300.015972 
L 86.772076 306.133501 
L 86.974433 307.736715 
L 87.176791 307.8 
L 87.379148 306.449925 
L 87.581505 302.695028 
L 87.783862 295.902461 
L 88.188577 273.731693 
L 88.390934 268.521246 
L 89.200363 260.399699 
L 89.40272 256.243998 
L 89.807434 241.372074 
L 90.212149 238.903968 
L 90.414506 236.182722 
L 90.616863 244.1777 
L 91.223935 295.037569 
L 91.628649 306.133501 
L 91.831006 306.196786 
L 92.033364 303.686489 
L 92.842792 257.277649 
L 93.04515 255.125967 
L 93.449864 246.477047 
L 93.652221 245.949674 
L 93.854578 242.996384 
L 94.056936 242.363536 
L 94.259293 239.72667 
L 94.46165 233.292717 
L 94.664007 230.423807 
L 94.866364 231.351984 
L 95.068722 234.516223 
L 95.271079 230.655851 
L 95.473436 240.823606 
L 96.080508 295.417278 
L 96.485222 304.677951 
L 96.687579 306.597589 
L 96.889937 302.230939 
L 97.699365 256.539327 
L 98.306437 245.970768 
L 98.508794 245.59106 
L 99.52058 224.242993 
L 99.722937 225.508689 
L 99.925295 229.896434 
L 100.127652 228.061175 
L 100.330009 238.27112 
L 100.937081 292.928076 
L 101.341795 305.268609 
L 101.544152 306.26007 
L 101.74651 302.526268 
L 101.948867 290.50216 
L 102.353581 260.294224 
L 102.555938 258.733199 
L 103.567724 240.844701 
L 104.377153 218.610648 
L 104.57951 219.897438 
L 104.781868 225.318835 
L 104.984225 225.29774 
L 105.186582 234.241989 
L 105.793654 289.763837 
L 106.198368 302.589553 
L 106.400725 304.361527 
L 106.603083 300.311301 
L 107.412511 254.11341 
L 107.614869 252.383626 
L 107.817226 248.692014 
L 108.22194 234.07323 
L 108.626655 212.23998 
L 108.829012 206.270116 
L 109.031369 204.371572 
L 109.638441 213.104872 
L 109.840798 218.568458 
L 110.043155 229.031542 
L 110.650227 284.405726 
L 111.054941 298.750276 
L 111.257298 300.669915 
L 111.459655 298.919036 
L 111.662013 287.443395 
L 112.066727 258.015972 
L 112.471442 242.933099 
L 113.887942 174.121447 
L 114.090299 171.73772 
L 114.292656 178.593571 
L 114.495014 190.090306 
L 114.697371 194.710095 
L 115.102085 228.926067 
L 115.709157 278.583526 
L 116.113871 292.611652 
L 116.316228 292.780412 
L 116.518586 291.113913 
L 116.720943 287.46449 
L 117.125657 260.06218 
L 118.542158 154.777398 
L 118.744515 144.609643 
L 118.946872 140.707082 
L 119.149229 144.398694 
L 119.756301 182.496133 
L 120.56573 262.319337 
L 120.970444 282.254043 
L 121.172801 286.367554 
L 121.375159 288.012958 
L 121.577516 286.557408 
L 121.779873 278.583526 
L 122.589302 227.280663 
L 123.196374 201.671421 
L 123.398731 197.072727 
L 123.601088 197.283677 
L 123.803445 196.714114 
L 124.410517 210.193772 
L 124.612874 221.226419 
L 125.219946 277.845203 
L 125.62466 292.463988 
L 125.827017 294.468006 
L 126.029374 291.91552 
L 127.04116 235.191261 
L 127.648232 197.557911 
L 128.255304 154.925063 
L 128.457661 147.330889 
L 128.660018 146.99337 
L 129.26709 191.588046 
L 130.278876 282.971271 
L 130.481233 290.839679 
L 130.68359 292.231944 
L 130.885947 289.637268 
L 132.504805 180.070216 
L 133.111877 137.142039 
L 133.314234 127.670417 
L 133.516591 129.379106 
L 133.921306 144.841688 
L 134.123663 152.309292 
L 135.135449 262.84671 
L 135.540163 275.545856 
L 135.74252 274.596585 
L 135.944878 263.943646 
L 136.349592 232.343446 
L 136.551949 225.529784 
L 136.754306 213.590055 
L 136.956664 218.188749 
L 137.159021 206.818584 
L 137.766092 197.937619 
L 137.96845 198.338423 
L 138.373164 192.895932 
L 138.777879 200.490105 
L 138.980236 201.333903 
L 139.182593 213.210347 
L 139.789665 270.187745 
L 140.194379 285.650326 
L 140.396736 287.738724 
L 140.599093 284.701055 
L 141.003808 254.303265 
L 141.408522 232.997388 
L 142.015594 219.51773 
L 142.622665 210.320342 
L 142.825023 210.046107 
L 143.02738 208.822602 
L 143.229737 209.518734 
L 143.634451 214.834656 
L 143.836809 213.590055 
L 144.039166 223.84219 
L 144.646238 273.499648 
L 145.050952 285.671421 
L 145.253309 286.979307 
L 145.455666 283.815068 
L 145.860381 253.965746 
L 146.062738 237.406228 
L 146.66981 220.825615 
L 146.872167 218.125465 
L 147.074524 217.028528 
L 147.479238 205.848217 
L 147.681596 214.370568 
L 147.883953 215.362029 
L 148.08631 217.998895 
L 148.491024 227.386138 
L 148.693382 226.014967 
L 149.098096 249.83114 
L 149.502811 278.203817 
L 149.907525 291.430337 
L 150.109882 293.518734 
L 150.312239 292.928076 
L 150.514597 290.059166 
L 150.716954 284.258061 
L 151.121668 263.036565 
L 151.526383 242.194776 
L 151.931097 236.288197 
L 152.133454 235.845203 
L 152.335811 237.849221 
L 152.538169 238.376595 
L 152.740526 236.288197 
L 152.942883 236.583526 
L 153.14524 235.592064 
L 153.347597 235.634254 
L 153.549955 232.659869 
L 153.752312 234.895932 
L 154.764098 287.253541 
L 154.966455 291.282672 
L 155.168812 292.696032 
L 155.573527 288.687996 
L 155.775884 277.423305 
L 156.78767 198.127474 
L 157.799456 154.756303 
L 158.001813 156.802511 
L 158.406528 170.23998 
L 158.608885 184.036062 
L 159.215956 253.881366 
L 159.620671 275.86228 
L 159.823028 279.131994 
L 160.025385 278.203817 
L 160.227743 268.225917 
L 160.632457 235.191261 
L 161.8466 183.993872 
L 162.251315 173.762833 
L 162.453672 173.910497 
L 162.656029 176.821597 
L 163.465458 209.20231 
L 164.072529 270.12446 
L 164.477244 289.067705 
L 164.679601 289.405224 
L 164.881958 286.114415 
L 165.084316 275.777901 
L 165.48903 243.439377 
L 166.500816 207.725665 
L 167.310245 164.038071 
L 167.512602 167.45545 
L 167.917316 188.402712 
L 168.119674 192.938122 
L 168.322031 204.498142 
L 168.929102 264.977298 
L 169.333817 280.439879 
L 169.536174 284.026017 
L 169.738531 280.292215 
L 170.143246 252.510196 
L 170.54796 221.648317 
L 171.357389 176.273129 
L 171.559746 170.134505 
L 172.166818 145.49563 
L 172.369175 147.141035 
L 172.571532 155.199297 
L 173.178604 194.878855 
L 173.785675 267.25555 
L 174.19039 287.000402 
L 174.392747 290.038071 
L 174.595104 288.181718 
L 174.999819 263.542843 
L 175.404533 238.081266 
L 177.023391 158.405726 
L 177.225748 158.933099 
L 177.428105 162.92004 
L 177.630462 179.817077 
L 177.83282 182.306278 
L 178.237534 227.238473 
L 178.642248 270.947162 
L 179.046963 290.50216 
L 179.24932 294.299247 
L 179.451677 291.725665 
L 179.654034 282.865796 
L 180.261106 242.258061 
L 181.879964 143.449422 
L 182.082321 140.116424 
L 182.284678 145.896434 
L 183.094107 203.316826 
L 183.498821 243.080763 
L 183.903536 264.956203 
L 184.30825 272.95118 
L 184.510607 274.343446 
L 184.712965 270.630738 
L 184.915322 256.98232 
L 185.724751 173.340934 
L 186.129465 151.52878 
L 186.331822 145.347966 
L 186.53418 144.567454 
L 186.736537 147.16213 
L 187.748323 188.423807 
L 188.557752 253.923556 
L 188.962466 268.394676 
L 189.164823 270.483074 
L 189.36718 270.567454 
L 189.569538 269.808036 
L 189.771895 258.796484 
L 190.986038 160.810547 
L 191.188395 155.389151 
L 191.390752 155.346961 
L 191.795467 164.692014 
L 192.604896 196.671924 
L 193.414325 261.370065 
L 193.819039 275.377097 
L 194.021396 276.474033 
L 194.426111 272.423807 
L 194.628468 263.268609 
L 195.437897 201.017479 
L 195.640254 195.891411 
L 195.842611 197.136012 
L 196.247325 203.337921 
L 196.449683 203.928579 
L 196.65204 203.527775 
L 197.056754 211.923556 
L 197.259112 212.788448 
L 197.461469 221.395178 
L 198.06854 270.841688 
L 198.473255 285.354997 
L 198.675612 285.460472 
L 198.877969 281.72667 
L 199.282684 250.231944 
L 199.687398 226.879859 
L 201.306256 158.933099 
L 201.508613 157.751783 
L 202.115684 177.39116 
L 202.318042 188.803516 
L 202.925113 254.366549 
L 203.329828 272.423807 
L 203.532185 274.57549 
L 203.734542 271.516725 
L 203.936899 259.724661 
L 204.341614 224.939126 
L 205.758114 168.995379 
L 205.960471 166.442893 
L 206.162829 166.590558 
L 206.365186 168.046107 
L 206.7699 180.175691 
L 206.972257 183.445404 
L 207.174615 194.541336 
L 207.781686 254.978302 
L 208.186401 271.516725 
L 208.388758 274.638774 
L 208.591115 271.221396 
L 208.793472 259.070718 
L 209.198187 224.475038 
L 209.805258 201.671421 
L 210.209973 181.314817 
L 210.817044 138.639779 
L 211.019402 129.948669 
L 211.221759 132.986339 
L 211.626473 158.047112 
L 211.82883 163.384129 
L 212.031188 178.467002 
L 212.638259 245.063687 
L 213.042974 264.091311 
L 213.245331 268.183727 
L 213.447688 266.432848 
L 213.650045 255.463486 
L 214.257117 211.164139 
L 214.661831 184.183727 
L 215.47126 123.409242 
L 215.875975 106.280161 
L 216.078332 105.794977 
L 216.280689 111.469513 
L 217.090118 176.779407 
L 217.697189 240.190758 
L 218.101904 259.091813 
L 218.304261 262.530286 
L 218.506618 263.922551 
L 218.708976 262.635761 
L 218.911333 249.599096 
L 219.518404 193.48659 
L 220.125476 157.435359 
L 220.327833 155.220392 
L 220.53019 157.498644 
L 221.541976 200.827624 
L 221.744334 206.101356 
L 222.553762 264.365545 
L 222.958477 275.503666 
L 223.160834 277.254545 
L 223.363191 277.613159 
L 223.565549 276.009945 
L 223.767906 267.086791 
L 224.374977 227.955701 
L 224.779692 220.192767 
L 225.386763 222.30226 
L 225.589121 225.909493 
L 225.791478 226.816575 
L 226.196192 235.40221 
L 226.398549 235.043596 
L 226.600907 241.625213 
L 227.410335 296.535309 
L 227.612693 300.669915 
L 227.81505 302.399699 
L 228.017407 299.129985 
L 228.826836 255.505676 
L 229.029193 253.121949 
L 229.23155 247.236464 
L 230.648051 182.285183 
L 230.850408 182.875841 
L 231.255122 197.64229 
L 231.45748 208.801507 
L 232.064551 274.027022 
L 232.469266 291.620191 
L 232.671623 294.404721 
L 232.87398 293.160121 
L 233.278694 267.25555 
L 233.683409 244.1777 
L 235.302267 178.024008 
L 235.504624 177.412255 
L 236.111695 196.988348 
L 236.314053 207.599096 
L 236.921124 271.242491 
L 237.325839 287.50668 
L 237.528196 290.713109 
L 237.730553 288.540331 
L 238.135267 264.006931 
L 238.539982 241.688498 
L 239.349411 210.003918 
L 239.754125 199.751783 
L 240.15884 189.288699 
L 240.361197 189.03556 
L 240.563554 194.625716 
L 240.968268 212.661878 
L 241.170626 220.424812 
L 241.777697 277.31783 
L 242.182412 293.560924 
L 242.384769 296.11341 
L 242.587126 293.054646 
L 242.99184 267.740733 
L 243.396555 249.345957 
L 245.21777 172.876846 
L 245.420127 177.222401 
L 246.027199 204.666901 
L 246.836627 279.933601 
L 247.038985 288.498142 
L 247.241342 291.74676 
L 247.443699 289.152084 
L 247.848413 265.019488 
L 249.467271 150.305274 
L 249.669628 142.036062 
L 249.871985 140.053139 
L 250.074343 140.221899 
L 250.2767 147.330889 
L 250.883772 180.21788 
L 251.6932 257.003415 
L 252.097915 271.875339 
L 252.300272 275.018483 
L 252.502629 275.292717 
L 252.704986 271.326871 
L 253.109701 237.785937 
L 253.91913 162.814566 
L 254.323844 146.634756 
L 254.728558 137.606128 
L 254.930916 136.319337 
L 255.133273 143.997891 
L 255.740345 182.369563 
L 256.549773 259.387142 
L 256.954488 275.229432 
L 257.156845 279.131994 
L 257.359202 280.840683 
L 257.561559 279.849221 
L 257.966274 250.274134 
L 258.573345 198.675942 
L 258.97806 176.484078 
L 259.382774 165.198292 
L 259.585131 161.675439 
L 259.787489 161.232446 
L 259.989846 163.911502 
L 260.39456 180.281165 
L 260.596917 193.950678 
L 261.203989 257.425314 
L 261.608704 276.579508 
L 261.811061 279.574987 
L 262.013418 278.77338 
L 262.418132 254.23998 
L 262.62049 241.941637 
L 263.025204 232.048117 
L 263.227561 229.179206 
L 263.429918 228.145555 
L 263.834633 229.45344 
L 264.03699 229.137017 
L 264.239347 230.107383 
L 264.441704 230.191763 
L 264.644062 229.917529 
L 264.846419 232.005927 
L 265.048776 236.140532 
L 265.251133 236.140532 
L 265.45349 240.254043 
L 266.060562 283.730688 
L 266.465277 296.872828 
L 266.667634 298.454947 
L 266.869991 294.172677 
L 267.072348 286.030035 
L 267.477063 258.901959 
L 268.084134 236.203817 
L 268.488849 225.677449 
L 269.09592 214.159618 
L 269.500635 210.109392 
L 269.702992 212.345455 
L 269.905349 216.037067 
L 270.107706 216.733199 
L 270.310063 223.188247 
L 270.917135 273.204319 
L 271.32185 285.460472 
L 271.524207 287.654345 
L 271.726564 285.903466 
L 274.15485 140.960221 
L 274.357208 133.619186 
L 274.559565 137.036565 
L 275.166636 162.793471 
L 275.976065 246.308287 
L 276.38078 259.176193 
L 276.583137 258.458965 
L 276.987851 236.098343 
L 277.392566 206.50216 
L 278.404352 148.195781 
L 278.606709 145.073732 
L 279.011423 131.530789 
L 279.213781 129.885384 
L 279.416138 134.252034 
L 280.023209 176.969262 
L 280.630281 250.020994 
L 281.034995 273.351984 
L 281.237353 278.351482 
L 281.43971 276.769362 
L 281.642067 270.736213 
L 282.249139 227.976796 
L 282.85621 193.52878 
L 283.867996 149.714616 
L 284.070354 148.49111 
L 284.272711 156.844701 
L 285.284497 241.920542 
L 285.689211 274.870819 
L 286.093926 289.974787 
L 286.296283 292.316323 
L 286.49864 290.45997 
L 286.700997 287.443395 
L 287.105712 255.674435 
L 287.712783 202.873832 
L 288.522212 158.384631 
L 288.724569 151.085786 
L 288.926927 149.102863 
L 289.129284 152.77338 
L 289.736355 187.411251 
L 290.545784 259.197288 
L 290.950499 274.849724 
L 291.152856 277.697539 
L 291.355213 277.781919 
L 291.55757 276.263084 
L 291.759927 263.479558 
L 292.771714 162.392667 
L 293.176428 139.863285 
L 293.581142 128.345455 
L 293.7835 126.573481 
L 293.985857 130.180713 
L 294.592928 156.338423 
L 295.402357 241.667403 
L 295.807072 256.729181 
L 296.009429 256.560422 
L 296.414143 235.760824 
L 297.830644 97.293722 
L 298.235358 83.645304 
L 298.437715 80.987343 
L 298.640073 81.261577 
L 298.84243 83.37107 
L 299.044787 91.619186 
L 299.449501 119.295731 
L 300.056573 200.363536 
L 300.461287 226.268106 
L 300.663645 232.44892 
L 300.866002 233.187243 
L 301.068359 226.183727 
L 301.473073 195.342943 
L 302.484859 87.273631 
L 302.687217 75.650326 
L 302.889574 75.755801 
L 303.091931 84.067202 
L 303.496646 92.948167 
L 303.90136 115.793973 
L 304.306074 144.483074 
L 304.913146 215.551883 
L 305.31786 241.583024 
L 305.520218 247.299749 
L 305.722575 245.46449 
L 305.924932 238.14455 
L 306.532004 197.114917 
L 307.54379 125.223405 
L 307.746147 114.739227 
L 307.948504 113.832145 
L 308.757933 146.972275 
L 309.162647 173.741738 
L 309.769719 238.439879 
L 310.174433 258.859769 
L 310.376791 263.374083 
L 310.579148 262.783425 
L 310.983862 238.735208 
L 312.198005 131.889402 
L 312.60272 119.949674 
L 312.805077 115.456454 
L 313.007434 116.026017 
L 313.209791 119.823104 
L 313.816863 148.153591 
L 314.01922 162.202813 
L 314.626292 226.479056 
L 315.031006 247.531793 
L 315.233364 252.235962 
L 315.435721 251.560924 
L 315.840435 232.280161 
L 316.24515 213.062682 
L 316.649864 200.72215 
L 317.054578 185.006429 
L 317.66165 177.285686 
L 317.864007 176.821597 
L 318.066364 175.89342 
L 318.268722 180.703064 
L 318.875793 203.443395 
L 319.685222 263.627223 
L 320.089937 276.748267 
L 320.292294 278.435861 
L 320.697008 270.293219 
L 321.101723 243.354997 
L 322.315866 163.320844 
L 322.72058 152.794475 
L 322.922937 150.410748 
L 323.125295 154.650829 
L 323.732366 183.023506 
L 324.541795 253.417278 
L 324.94651 268.099347 
L 325.148867 271.073732 
L 325.351224 271.137017 
L 325.553581 268.816575 
L 325.755938 256.159618 
L 326.970082 140.707082 
L 327.172439 134.209844 
L 327.374796 132.585535 
L 327.77951 126.86881 
L 327.981868 131.994877 
L 328.184225 141.023506 
L 328.791296 194.077248 
L 329.196011 238.988348 
L 329.398368 254.640784 
L 329.803083 265.019488 
L 330.00544 264.049121 
L 330.207797 258.290206 
L 330.814869 208.463988 
L 331.42194 169.206328 
L 331.826655 145.917529 
L 332.029012 142.943144 
L 332.231369 142.964239 
L 332.433726 143.154093 
L 332.636083 145.305776 
L 332.838441 149.967755 
L 333.243155 173.509694 
L 333.445512 182.770367 
L 334.052584 250.274134 
L 334.457298 272.655851 
L 334.659655 278.224912 
L 334.862013 275.756806 
L 335.266727 255.379106 
L 335.671442 230.360522 
L 336.48087 189.16213 
L 336.683228 183.951683 
L 336.885585 182.812557 
L 337.087942 176.462983 
L 337.290299 174.56444 
L 337.695014 181.209342 
L 338.099728 196.060171 
L 338.302085 202.09332 
L 339.111514 269.702562 
L 339.313871 276.07323 
L 339.516228 278.372577 
L 339.718586 274.195781 
L 340.1233 250.210849 
L 340.932729 204.540331 
L 342.349229 141.107885 
L 342.551587 141.023506 
L 343.158658 166.379608 
L 343.76573 230.845706 
L 344.170444 249.345957 
L 344.372801 254.23998 
L 344.575159 252.046107 
L 344.777516 244.937117 
L 345.18223 213.210347 
L 346.194016 128.32436 
L 346.598731 113.157107 
L 347.003445 106.36454 
L 347.205802 105.499648 
L 347.40816 108.769362 
L 347.610517 116.827624 
L 348.015231 143.639277 
L 348.82466 237.237469 
L 349.229374 254.809543 
L 349.431732 254.029031 
L 349.634089 248.080261 
L 349.836446 236.646811 
L 351.050589 129.379106 
L 351.455304 110.520241 
L 351.860018 101.428327 
L 352.062375 100.500151 
L 352.264733 104.233953 
L 352.46709 115.625213 
L 353.276519 200.975289 
L 353.681233 239.937619 
L 354.085947 260.673933 
L 354.288305 266.095329 
L 354.490662 266.685987 
L 354.693019 264.38664 
L 355.097733 221.205324 
L 355.704805 145.369061 
L 356.109519 119.991863 
L 356.716591 101.301758 
L 356.918948 100.183727 
L 357.121306 105.11994 
L 357.52602 131.446409 
L 357.728377 144.483074 
L 358.740163 242.574485 
L 359.144878 255.906479 
L 359.347235 257.826118 
L 359.549592 257.488599 
L 359.751949 243.101858 
L 360.763735 119.169161 
L 361.16845 99.571974 
L 361.573164 88.159618 
L 361.775521 85.796986 
L 361.977879 89.172175 
L 362.180236 96.365545 
L 362.58495 122.860773 
L 363.394379 214.054144 
L 363.799093 232.195781 
L 364.001451 233.039578 
L 364.203808 226.985334 
L 364.406165 216.64882 
L 365.013237 145.137017 
L 365.620308 78.772376 
L 366.025023 62.149573 
L 366.429737 55.8 
L 366.632094 56.306278 
L 366.834451 59.027524 
L 367.036809 67.992868 
L 367.441523 98.010949 
L 368.048595 179.901457 
L 368.453309 211.290708 
L 368.655666 220.066198 
L 368.858024 222.513209 
L 369.060381 218.505173 
L 369.262738 208.358513 
L 369.86981 143.006429 
L 370.476881 83.160121 
L 370.881596 66.052135 
L 371.083953 65.588046 
L 371.28631 66.326369 
L 371.488667 70.376595 
L 371.691024 76.789453 
L 372.298096 116.912004 
L 373.107525 204.413762 
L 373.512239 227.301758 
L 373.714597 231.794977 
L 374.119311 231.07775 
L 374.321668 217.956705 
L 375.333454 111.047614 
L 375.738169 97.399196 
L 375.940526 94.614666 
L 376.142883 93.47554 
L 376.34524 98.812557 
L 376.749955 125.835158 
L 377.559383 186.504169 
L 377.964098 222.196786 
L 378.368812 236.414766 
L 378.57117 236.646811 
L 378.773527 230.529282 
L 378.975884 218.969262 
L 380.392384 98.791462 
L 380.797099 88.560422 
L 381.201813 80.734204 
L 381.40417 84.615671 
L 382.011242 122.776394 
L 382.820671 208.189754 
L 383.225385 224.791462 
L 383.427743 225.466499 
L 383.6301 219.960723 
L 384.034814 197.030537 
L 385.0466 121.320844 
L 385.451315 104.107383 
L 385.653672 103.6222 
L 385.856029 107.524761 
L 386.058386 115.393169 
L 387.070172 187.558915 
L 387.474887 228.926067 
L 387.879601 251.497639 
L 388.284316 260.927072 
L 388.68903 263.521748 
L 388.891387 257.594073 
L 389.700816 212.682973 
L 390.307888 201.122953 
L 390.914959 187.980814 
L 391.117316 192.917027 
L 391.926745 233.735711 
L 392.533817 279.321848 
L 392.938531 292.084279 
L 393.140888 294.003918 
L 393.343246 293.539829 
L 393.545603 294.025013 
L 393.74796 284.785434 
L 394.355032 242.321346 
L 395.569175 184.057157 
L 395.771532 177.855249 
L 395.973889 179.099849 
L 396.176247 187.685485 
L 396.783318 231.056655 
L 397.188033 270.799498 
L 397.592747 289.194274 
L 397.795104 292.063184 
L 397.997461 289.447413 
L 398.402176 270.736213 
L 400.628105 139.061678 
L 400.830462 141.993872 
L 401.03282 152.267102 
L 401.639891 211.121949 
L 402.044606 256.876846 
L 402.44932 277.845203 
L 402.651677 281.979809 
L 402.854034 280.27112 
L 403.258749 261.496635 
L 403.663463 232.174686 
L 404.877607 122.755299 
L 405.282321 101.575992 
L 405.484678 97.230437 
L 405.687035 98.348468 
L 405.889393 109.191261 
L 406.294107 147.752788 
L 406.901179 227.639277 
L 407.305893 252.468006 
L 407.50825 258.248016 
L 407.710607 257.699548 
L 408.115322 235.781919 
L 409.73418 99.276645 
L 409.936537 94.192767 
L 410.138894 94.045103 
L 410.341251 98.791462 
L 410.948323 136.045103 
L 411.15068 152.456956 
L 411.757752 225.29774 
L 412.162466 250.126469 
L 412.364823 256.813561 
L 412.56718 258.64882 
L 412.971895 240.021999 
L 414.388395 138.808538 
L 414.79311 124.843697 
L 415.197824 117.96675 
L 415.400181 124.949171 
L 416.20961 189.478553 
L 416.614325 236.140532 
L 417.019039 259.93561 
L 417.221396 264.323355 
L 417.423753 263.753792 
L 417.828468 247.0888 
L 419.244968 146.276143 
L 419.649683 132.248016 
L 419.85204 128.303265 
L 420.054397 129.77991 
L 420.256754 138.703064 
L 421.066183 205.974787 
L 421.673255 262.720141 
L 422.077969 279.279658 
L 422.280326 281.832145 
L 422.482684 281.157107 
L 422.685041 280.988348 
L 423.089755 249.324862 
L 423.899184 178.234957 
L 424.708613 137.774887 
L 424.91097 134.505173 
L 425.113327 138.618684 
L 425.518042 165.493621 
L 425.720399 177.623204 
L 426.529828 254.345455 
L 426.934542 273.436364 
L 427.136899 278.035058 
L 427.339257 278.85776 
L 427.541614 279.089804 
L 427.743971 270.25103 
L 428.148685 228.778403 
L 428.755757 165.177197 
L 429.160471 138.829633 
L 429.565186 130.349473 
L 429.9699 134.378604 
L 430.374615 151.043596 
L 430.576972 163.00442 
L 431.386401 241.076745 
L 431.791115 253.649322 
L 431.993472 251.560924 
L 432.398187 230.698041 
L 433.207616 163.827122 
L 434.017044 91.534807 
L 434.219402 86.514214 
L 435.02883 114.675942 
L 435.433545 140.348468 
L 436.040617 213.484581 
L 436.445331 236.625716 
L 436.647688 241.899448 
L 436.850045 241.203315 
L 437.25476 220.045103 
L 437.659474 184.183727 
L 438.468903 108.727172 
L 438.67126 98.728177 
L 438.873617 99.719638 
L 439.075975 107.018483 
L 439.278332 106.554395 
L 439.480689 108.853742 
L 439.885403 127.902461 
L 440.290118 153.321848 
L 440.897189 228.715118 
L 441.301904 251.624209 
L 441.504261 257.19327 
L 441.706618 257.741738 
L 442.111333 242.616675 
L 442.920762 189.204319 
L 443.527833 153.406228 
L 444.134905 130.054144 
L 444.337262 127.396183 
L 444.539619 133.9778 
L 445.146691 180.238975 
L 445.753762 251.265595 
L 446.158477 273.03556 
L 446.360834 278.119437 
L 446.563191 276.07323 
L 446.967906 256.665897 
L 448.586763 143.955701 
L 448.991478 130.412757 
L 449.193835 128.029031 
L 449.396192 134.863787 
L 450.003264 176.315319 
L 450.812693 258.48006 
L 451.217407 272.128478 
L 451.419764 272.255048 
L 451.824479 254.619689 
L 452.43155 202.873832 
L 453.038622 159.861276 
L 453.443336 142.373581 
L 453.848051 134.294224 
L 454.050408 137.753792 
L 454.252765 148.005927 
L 454.65748 177.159116 
L 454.859837 185.829131 
L 455.669266 252.257057 
L 456.07398 266.158614 
L 456.276337 267.719638 
L 456.478694 265.67343 
L 456.681052 262.488096 
L 456.883409 254.28217 
L 457.288123 226.563435 
L 457.692838 215.319839 
L 457.895195 216.037067 
L 458.299909 221.943646 
L 458.502267 221.795982 
L 458.906981 217.872325 
L 459.109338 218.420794 
L 459.514053 222.681969 
L 459.71641 227.090809 
L 460.728196 286.304269 
L 461.13291 290.839679 
L 461.537625 287.443395 
L 461.739982 278.288197 
L 462.144696 242.890909 
L 463.561197 171.927574 
L 463.763554 164.481065 
L 463.965911 165.683476 
L 464.572983 185.660372 
L 465.382412 254.366549 
L 465.584769 261.454445 
L 465.787126 264.238975 
L 465.989483 261.749774 
L 467.608341 166.822602 
L 468.620127 145.094827 
L 468.822484 148.301256 
L 469.429556 175.218383 
L 470.036627 233.398192 
L 470.441342 251.645304 
L 470.643699 254.345455 
L 470.846056 251.708589 
L 471.857842 199.477549 
L 472.869628 168.446911 
L 473.071985 168.953189 
L 473.274343 167.117931 
L 473.4767 168.404721 
L 473.679057 172.286188 
L 473.881414 179.036565 
L 474.083772 180.21788 
L 474.286129 188.086288 
L 474.8932 241.540834 
L 475.297915 258.205826 
L 475.500272 259.914515 
L 475.702629 257.826118 
L 476.107344 232.828629 
L 476.512058 210.257057 
L 477.321487 177.960723 
L 477.726201 157.287695 
L 477.928558 153.638272 
L 478.333273 158.447916 
L 478.53563 163.025515 
L 479.142702 188.592567 
L 479.952131 258.100352 
L 480.356845 268.204822 
L 480.559202 267.782923 
L 480.963917 245.126971 
L 482.785131 113.452436 
L 482.987489 107.398192 
L 483.189846 104.698041 
L 483.392203 110.478051 
L 483.999275 151.36002 
L 484.606346 224.285183 
L 485.011061 248.101356 
L 485.213418 252.615671 
L 485.415775 253.586037 
L 485.82049 233.313812 
L 486.225204 201.312808 
L 487.23699 109.043596 
L 487.439347 105.879357 
L 487.844062 112.608639 
L 488.248776 131.699548 
L 489.260562 211.206328 
L 489.665277 244.1777 
L 490.069991 259.661376 
L 490.272348 262.066198 
L 490.474705 260.905977 
L 490.677063 259.091813 
L 490.87942 249.113913 
L 491.891206 167.37107 
L 492.29592 149.208338 
L 492.498277 141.635259 
L 492.700635 139.567956 
L 492.902992 141.234455 
L 493.105349 146.170668 
L 493.712421 180.534304 
L 494.52185 254.345455 
L 495.128921 273.07775 
L 495.331278 273.225414 
L 495.533636 272.592567 
L 495.735993 264.850728 
L 496.950136 171.041587 
L 497.557208 146.065193 
L 497.759565 142.62672 
L 497.961922 145.917529 
L 498.568994 178.213862 
L 499.378422 253.881366 
L 499.58078 260.884882 
L 499.783137 263.437368 
L 499.985494 260.041085 
L 500.187851 251.307785 
L 500.794923 213.463486 
L 500.99728 208.231944 
L 501.401995 194.81557 
L 501.806709 183.276645 
L 502.009066 182.812557 
L 502.211423 184.922049 
L 502.413781 185.575992 
L 502.616138 183.867303 
L 503.020852 193.824108 
L 503.223209 194.393672 
L 503.425567 202.09332 
L 504.032638 254.050126 
L 504.437353 267.445404 
L 504.63971 269.111904 
L 504.842067 266.685987 
L 505.246782 241.709593 
L 505.651496 217.302762 
L 507.270354 142.331391 
L 507.472711 139.146057 
L 507.675068 142.62672 
L 508.28214 171.358011 
L 508.889211 230.824611 
L 509.293926 248.37559 
L 509.496283 251.982823 
L 509.69864 250.105374 
L 510.103354 225.972777 
L 511.722212 116.954194 
L 512.126927 98.749272 
L 512.329284 100.373581 
L 512.936355 135.602109 
L 513.34107 175.513712 
L 513.745784 220.066198 
L 514.150499 243.354997 
L 514.352856 249.071723 
L 514.555213 249.578001 
L 514.75757 240.464992 
L 516.174071 141.29774 
L 516.376428 140.179709 
L 516.781142 149.735711 
L 516.9835 146.930085 
L 517.185857 147.478553 
L 517.590571 165.620191 
L 517.792928 169.965746 
L 517.995286 180.935108 
L 518.4 221.585033 
L 518.4 221.585033 
" clip-path="url(#p81acb9663f)" style="fill: none; stroke: #1f77b4; stroke-width: 1.5; stroke-linecap: square"/>
   </g>
   <g id="line2d_14">
    <path d="M 72 261.944109 
L 72.202357 261.944109 
L 72.809429 266.665567 
L 73.011786 262.940675 
L 74.023572 224.557486 
L 74.833001 169.919668 
L 75.237715 157.972792 
L 75.440073 158.092323 
L 75.64243 165.32954 
L 76.249501 203.462363 
L 76.856573 265.611619 
L 77.261287 277.713518 
L 77.463645 278.328047 
L 77.666002 273.296998 
L 78.070716 246.035273 
L 78.475431 224.241965 
L 78.677788 224.136952 
L 78.880145 216.08751 
L 79.689574 163.364441 
L 80.094288 152.900221 
L 80.296646 154.993737 
L 80.499003 163.704914 
L 81.713146 265.415311 
L 82.11786 275.940876 
L 82.320218 276.033481 
L 82.522575 274.465574 
L 82.927289 264.523346 
L 83.534361 236.546925 
L 84.141432 224.378691 
L 84.34379 222.447996 
L 84.748504 228.551125 
L 85.76029 245.834284 
L 86.367362 273.499419 
L 86.772076 289.872612 
L 86.974433 294.334223 
L 87.176791 292.995937 
L 87.581505 279.056417 
L 88.390934 247.577069 
L 88.795648 243.53804 
L 88.998005 243.459086 
L 89.200363 241.76287 
L 89.40272 242.472657 
L 89.605077 241.391989 
L 89.807434 238.57918 
L 90.009791 232.636426 
L 90.212149 230.622132 
L 90.616863 234.204855 
L 90.81922 240.884739 
L 91.426292 279.983965 
L 91.831006 289.993456 
L 92.033364 288.832191 
L 92.235721 281.843214 
L 92.842792 243.038523 
L 93.04515 240.380708 
L 93.247507 243.468858 
L 93.652221 238.702783 
L 93.854578 240.314509 
L 94.056936 239.140996 
L 94.46165 233.032121 
L 94.664007 227.571762 
L 94.866364 225.670276 
L 95.068722 227.374685 
L 95.473436 242.232495 
L 95.675793 246.131575 
L 96.282865 291.474326 
L 96.687579 294.147353 
L 96.889937 291.298401 
L 97.294651 271.200278 
L 97.699365 242.008755 
L 97.901723 239.005959 
L 98.10408 239.94021 
L 98.306437 239.428701 
L 98.508794 235.172922 
L 98.711151 237.819893 
L 98.913509 235.871984 
L 99.52058 222.758506 
L 99.722937 221.536382 
L 99.925295 222.10265 
L 100.330009 239.829679 
L 100.532366 246.085638 
L 101.139438 291.450669 
L 101.544152 294.32035 
L 101.74651 292.148576 
L 102.353581 255.261454 
L 102.555938 242.853015 
L 102.758296 240.468465 
L 102.960653 242.225818 
L 103.16301 241.0695 
L 103.365367 235.409043 
L 103.567724 237.96493 
L 103.770082 235.186455 
L 104.174796 221.52529 
L 104.377153 217.543495 
L 104.57951 216.542501 
L 104.781868 217.381763 
L 105.591296 260.649127 
L 105.996011 289.835709 
L 106.400725 292.536527 
L 106.603083 291.081614 
L 107.007797 271.90565 
L 107.412511 243.19831 
L 107.614869 239.013712 
L 107.817226 240.190907 
L 108.019583 239.502297 
L 108.424297 227.858509 
L 109.031369 198.294016 
L 109.233726 200.611567 
L 109.436083 205.487039 
L 109.638441 207.327988 
L 110.043155 232.655774 
L 110.852584 285.245495 
L 111.054941 288.837971 
L 111.257298 289.627406 
L 111.459655 288.767908 
L 111.662013 283.006503 
L 112.876156 220.619977 
L 114.090299 173.572675 
L 114.292656 170.908282 
L 114.495014 178.621047 
L 115.102085 223.115881 
L 115.5068 263.595906 
L 115.709157 274.265857 
L 115.911514 276.896439 
L 116.113871 281.414624 
L 116.316228 280.377177 
L 116.518586 277.655656 
L 116.9233 264.955286 
L 117.530372 232.591216 
L 118.339801 168.715414 
L 118.744515 152.017309 
L 118.946872 145.696597 
L 119.149229 145.243735 
L 119.351587 150.987878 
L 119.958658 196.32524 
L 120.363373 240.945225 
L 120.768087 263.537237 
L 121.172801 272.805818 
L 121.375159 271.511349 
L 121.779873 261.49299 
L 121.98223 254.296581 
L 122.589302 224.231819 
L 122.994016 207.299324 
L 123.398731 194.984193 
L 123.601088 195.003031 
L 123.803445 195.383431 
L 124.005802 197.396474 
L 124.612874 216.89242 
L 125.017588 251.305812 
L 125.422303 284.431537 
L 125.827017 293.496281 
L 126.029374 292.034044 
L 126.231732 283.807011 
L 126.838803 234.704191 
L 127.445875 214.111286 
L 128.660018 148.35511 
L 128.862375 146.9851 
L 129.064733 159.739872 
L 130.076519 268.191439 
L 130.278876 276.042631 
L 130.481233 276.138011 
L 130.68359 275.528242 
L 130.885947 272.356199 
L 131.290662 257.000939 
L 131.897733 218.924739 
L 132.504805 186.153415 
L 133.111877 149.970326 
L 133.516591 138.695573 
L 133.718948 140.023638 
L 133.921306 146.335245 
L 134.528377 193.831921 
L 134.933092 245.152547 
L 135.135449 257.579844 
L 135.540163 266.144277 
L 135.74252 264.573332 
L 136.147235 247.457724 
L 136.754306 206.293553 
L 136.956664 199.093066 
L 137.159021 205.776685 
L 137.361378 200.406445 
L 137.563735 199.862539 
L 137.96845 194.788968 
L 138.170807 204.262217 
L 138.373164 198.835101 
L 138.575521 203.54862 
L 138.777879 202.262816 
L 139.38495 229.071309 
L 139.789665 278.469825 
L 140.194379 299.873638 
L 140.599093 292.9213 
L 141.610879 222.785136 
L 142.622665 211.343657 
L 142.825023 208.500439 
L 143.634451 216.762939 
L 144.241523 242.875487 
L 144.848595 289.649064 
L 145.253309 295.50647 
L 145.455666 291.485879 
L 145.860381 266.116057 
L 146.265095 230.04901 
L 146.467452 222.244168 
L 146.66981 221.78071 
L 146.872167 217.935774 
L 147.074524 216.311827 
L 147.276881 215.654008 
L 147.681596 206.478519 
L 148.08631 221.571757 
L 148.288667 222.542691 
L 148.491024 225.624535 
L 148.895739 251.318144 
L 149.098096 254.88067 
L 149.300453 264.867756 
L 149.705168 289.820702 
L 149.907525 291.19491 
L 150.109882 295.678237 
L 150.312239 293.77498 
L 151.324025 245.074036 
L 151.931097 228.247506 
L 152.133454 228.783355 
L 152.335811 225.286332 
L 152.538169 227.156235 
L 152.740526 233.067311 
L 152.942883 235.310007 
L 153.14524 235.180481 
L 153.347597 235.570691 
L 153.549955 239.1862 
L 153.752312 240.764875 
L 153.954669 243.333318 
L 155.168812 293.103895 
L 155.37117 288.867177 
L 155.978241 261.876597 
L 156.585313 222.043074 
L 157.192384 174.306632 
L 157.597099 160.382262 
L 158.001813 153.422729 
L 158.20417 158.659704 
L 158.608885 178.408931 
L 159.013599 222.564517 
L 159.418314 261.92552 
L 159.823028 275.674173 
L 160.025385 276.913875 
L 160.227743 270.688555 
L 161.239529 200.467857 
L 162.048957 175.6126 
L 162.251315 171.451813 
L 162.453672 172.153674 
L 162.858386 181.862314 
L 163.263101 201.514006 
L 163.667815 224.774546 
L 164.274887 282.485034 
L 164.679601 288.740586 
L 164.881958 285.67755 
L 165.286673 261.00354 
L 165.691387 228.661167 
L 165.893744 221.304041 
L 166.096102 220.671948 
L 166.298459 217.434977 
L 166.703173 204.809638 
L 167.310245 167.580895 
L 167.512602 164.634301 
L 167.714959 166.788595 
L 168.322031 207.056001 
L 169.13146 272.560183 
L 169.536174 276.662255 
L 169.738531 278.007422 
L 169.940888 272.72121 
L 170.345603 243.642473 
L 170.952675 191.675595 
L 171.559746 164.474793 
L 171.964461 155.906528 
L 172.166818 154.164266 
L 172.369175 150.931047 
L 172.571532 151.437689 
L 172.773889 160.943172 
L 173.380961 211.764609 
L 173.785675 260.844621 
L 173.988033 274.753237 
L 174.19039 278.890789 
L 174.595104 275.820859 
L 174.797461 268.59962 
L 175.60689 222.286884 
L 176.011605 208.013185 
L 176.821034 174.816577 
L 177.428105 165.779582 
L 177.630462 169.141074 
L 178.439891 241.928491 
L 178.844606 279.864499 
L 179.046963 280.330573 
L 179.24932 283.689281 
L 179.451677 281.028256 
L 179.856392 261.473562 
L 180.261106 235.165727 
L 180.868178 206.220639 
L 181.272892 179.736916 
L 181.677607 158.631913 
L 182.284678 148.647765 
L 182.487035 153.507138 
L 183.903536 260.641178 
L 184.30825 263.685801 
L 184.510607 262.61964 
L 184.915322 254.136483 
L 185.117679 243.476676 
L 186.331822 138.937658 
L 186.53418 135.213752 
L 186.736537 139.096692 
L 187.141251 160.723353 
L 187.748323 192.347135 
L 188.355394 234.866778 
L 188.760109 256.95578 
L 189.164823 268.152974 
L 189.36718 265.732995 
L 190.176609 228.510309 
L 191.390752 145.275325 
L 191.59311 147.047249 
L 191.795467 154.425844 
L 193.211967 241.37754 
L 193.616682 265.154202 
L 194.021396 277.425669 
L 194.223753 274.406142 
L 195.842611 187.578596 
L 196.044968 188.66077 
L 197.056754 215.911254 
L 197.259112 221.584278 
L 197.461469 223.45406 
L 197.663826 231.145 
L 198.473255 292.865719 
L 198.675612 296.890449 
L 198.877969 293.972973 
L 199.080326 283.10647 
L 199.889755 211.108564 
L 200.092112 210.486074 
L 200.699184 186.92315 
L 201.306256 161.172409 
L 201.508613 157.97779 
L 201.71097 158.475571 
L 201.913327 165.321783 
L 202.722756 229.17479 
L 203.127471 266.958184 
L 203.532185 273.950666 
L 203.734542 273.141187 
L 203.936899 266.492904 
L 204.948685 192.672531 
L 205.151043 189.425503 
L 205.555757 174.722152 
L 205.960471 162.571606 
L 206.162829 164.382002 
L 206.7699 180.279448 
L 207.376972 210.744919 
L 207.984044 267.605418 
L 208.388758 277.131482 
L 208.591115 276.478231 
L 208.793472 267.287638 
L 209.805258 195.52222 
L 210.007616 192.543221 
L 210.209973 185.8808 
L 210.614687 160.028118 
L 211.019402 135.48835 
L 211.221759 127.10955 
L 211.424116 128.560247 
L 211.626473 140.791845 
L 212.638259 244.348473 
L 212.840617 253.500305 
L 213.042974 255.301394 
L 213.245331 258.942697 
L 213.447688 260.493098 
L 213.650045 254.753133 
L 214.05476 225.906261 
L 214.661831 181.068018 
L 214.864189 171.663971 
L 215.673617 116.038621 
L 216.078332 111.206712 
L 216.280689 112.615528 
L 216.483046 120.072009 
L 217.697189 234.951965 
L 218.101904 245.599978 
L 218.304261 248.79189 
L 218.708976 242.20052 
L 219.11369 228.722157 
L 219.316047 217.671743 
L 219.720762 185.713814 
L 220.327833 153.138628 
L 220.53019 150.131424 
L 220.732548 153.78699 
L 221.541976 200.226256 
L 222.351405 243.256941 
L 222.75612 266.811696 
L 223.160834 280.071655 
L 223.363191 275.825524 
L 223.970263 246.668712 
L 224.374977 225.014422 
L 224.577335 219.25941 
L 224.982049 216.551337 
L 225.386763 215.584726 
L 226.196192 235.091301 
L 226.600907 244.590321 
L 227.005621 266.055997 
L 227.410335 294.579851 
L 227.81505 301.051806 
L 228.017407 297.975071 
L 228.219764 289.49449 
L 228.826836 241.627519 
L 229.029193 235.972547 
L 229.23155 237.084196 
L 229.433908 235.706042 
L 229.838622 224.22782 
L 230.243336 200.99312 
L 230.648051 186.121799 
L 230.850408 181.157641 
L 231.052765 181.282669 
L 231.45748 203.197102 
L 232.469266 285.137838 
L 232.671623 284.77414 
L 232.87398 284.09149 
L 233.076337 278.127382 
L 234.088123 224.819748 
L 234.492838 208.024346 
L 235.099909 182.383412 
L 235.302267 178.10043 
L 235.504624 178.485017 
L 235.706981 179.491858 
L 235.909338 185.022594 
L 236.51641 224.736439 
L 237.123481 279.457055 
L 237.325839 283.785033 
L 237.528196 285.07947 
L 237.730553 283.500451 
L 237.93291 277.15817 
L 238.742339 228.267905 
L 239.551768 202.528024 
L 239.956482 192.152932 
L 240.15884 192.554623 
L 240.361197 192.3235 
L 240.563554 192.69359 
L 240.765911 198.901261 
L 241.372983 237.816904 
L 241.980054 288.419038 
L 242.182412 290.535276 
L 242.384769 290.061781 
L 242.587126 288.080747 
L 242.99184 267.918783 
L 243.396555 240.810998 
L 244.610698 191.911677 
L 244.813055 183.602167 
L 245.420127 174.894322 
L 245.622484 178.379642 
L 246.229556 218.05362 
L 246.63427 263.100894 
L 246.836627 276.713754 
L 247.038985 281.461901 
L 247.443699 284.144162 
L 247.646056 277.375643 
L 248.455485 224.46723 
L 249.062557 181.294209 
L 249.467271 151.296744 
L 249.669628 142.340919 
L 249.871985 139.156278 
L 250.2767 145.8582 
L 250.681414 172.052598 
L 251.288486 220.217992 
L 251.6932 251.646211 
L 252.097915 262.769005 
L 252.300272 265.146532 
L 252.502629 265.073432 
L 252.907344 252.681237 
L 253.312058 226.299811 
L 253.91913 169.179031 
L 254.323844 144.457369 
L 254.526201 138.74538 
L 254.728558 137.125699 
L 255.133273 144.10591 
L 255.537987 167.41156 
L 255.942702 199.027824 
L 256.549773 252.804327 
L 256.954488 266.156176 
L 257.156845 268.160823 
L 257.359202 265.839396 
L 257.966274 244.296208 
L 259.382774 164.038044 
L 259.585131 162.905399 
L 259.787489 164.313423 
L 260.192203 172.052714 
L 260.39456 178.100154 
L 260.596917 187.860319 
L 261.608704 274.852801 
L 261.811061 278.969701 
L 262.013418 279.680084 
L 262.215775 272.232433 
L 262.822847 227.596233 
L 263.025204 221.717299 
L 263.227561 222.086973 
L 263.429918 221.699639 
L 263.632276 222.782871 
L 263.834633 223.187167 
L 264.239347 225.51988 
L 264.441704 225.273939 
L 264.644062 223.701894 
L 264.846419 225.746503 
L 265.048776 229.164781 
L 265.858205 269.764005 
L 266.262919 297.995403 
L 266.465277 298.077428 
L 266.667634 297.094222 
L 266.869991 294.481345 
L 267.274705 272.025392 
L 267.67942 245.07798 
L 267.881777 237.716129 
L 268.286491 232.035862 
L 268.488849 224.148002 
L 268.893563 217.365985 
L 269.09592 214.407779 
L 269.298277 213.433875 
L 269.500635 213.621866 
L 269.905349 217.96026 
L 270.512421 239.469237 
L 271.32185 287.11991 
L 271.726564 290.097139 
L 271.928921 283.506545 
L 273.547779 179.715924 
L 273.952493 148.836115 
L 274.15485 145.311875 
L 274.357208 139.422475 
L 274.559565 136.8922 
L 274.761922 140.912246 
L 275.571351 201.808058 
L 275.976065 246.811134 
L 276.38078 257.975757 
L 276.583137 258.984165 
L 276.785494 252.778401 
L 276.987851 242.912486 
L 277.79728 171.556532 
L 278.809066 125.348667 
L 279.011423 125.838194 
L 279.213781 124.900329 
L 279.618495 130.685264 
L 280.427924 211.533391 
L 280.832638 254.800704 
L 281.034995 262.897217 
L 281.237353 263.958752 
L 281.43971 263.999986 
L 282.046782 236.852508 
L 283.058568 186.956999 
L 283.665639 162.994967 
L 283.867996 158.394756 
L 284.070354 156.513131 
L 284.272711 156.617828 
L 284.475068 163.837125 
L 284.879782 195.634522 
L 285.891568 276.837142 
L 286.093926 275.860299 
L 286.296283 276.823737 
L 286.49864 273.921504 
L 287.105712 250.057101 
L 288.522212 163.528457 
L 288.926927 155.94122 
L 289.129284 156.605211 
L 289.331641 161.396238 
L 289.736355 185.535188 
L 290.748141 264.63773 
L 291.152856 270.505921 
L 291.355213 269.523836 
L 291.759927 256.624467 
L 292.164642 232.133295 
L 292.569356 186.733073 
L 293.176428 138.21899 
L 293.378785 130.618046 
L 293.581142 128.632821 
L 293.7835 131.013277 
L 293.985857 135.380482 
L 294.390571 153.851407 
L 294.795286 178.723767 
L 295.402357 239.463505 
L 295.807072 253.601291 
L 296.009429 256.395758 
L 296.211786 252.24829 
L 296.6165 218.992869 
L 298.033001 84.864975 
L 298.235358 79.915599 
L 298.437715 84.963167 
L 299.044787 111.532393 
L 299.449501 140.291412 
L 299.854216 180.570341 
L 300.25893 223.1727 
L 300.461287 231.743134 
L 300.663645 235.396583 
L 300.866002 236.074706 
L 301.270716 218.276537 
L 301.675431 192.861998 
L 302.080145 154.025846 
L 302.687217 90.579719 
L 302.889574 81.938989 
L 303.091931 81.630032 
L 303.699003 115.328911 
L 304.710789 199.89781 
L 305.115503 229.225527 
L 305.520218 240.78513 
L 305.722575 239.591211 
L 306.127289 221.551791 
L 307.139075 169.063681 
L 307.746147 127.085297 
L 307.948504 114.141298 
L 308.150861 111.906093 
L 308.555576 127.134028 
L 309.162647 167.095821 
L 310.174433 245.01775 
L 310.376791 249.561487 
L 310.579148 251.025588 
L 310.781505 245.72484 
L 311.590934 189.560149 
L 312.60272 116.761467 
L 312.805077 113.833341 
L 313.007434 115.264488 
L 313.412149 127.736889 
L 314.423935 201.131059 
L 314.828649 234.069133 
L 315.233364 244.9445 
L 315.435721 244.573808 
L 315.638078 238.013007 
L 316.447507 195.731414 
L 316.649864 196.531701 
L 316.852221 196.455737 
L 317.054578 192.022443 
L 317.459293 178.139716 
L 317.66165 174.533172 
L 318.066364 178.876371 
L 318.268722 179.139441 
L 318.471079 183.522307 
L 318.875793 200.144802 
L 319.280508 227.927219 
L 319.685222 270.285013 
L 319.887579 279.098362 
L 320.089937 282.881065 
L 320.292294 282.091899 
L 320.494651 277.692891 
L 321.506437 222.605075 
L 322.518223 154.395855 
L 322.72058 150.070723 
L 322.922937 148.529824 
L 323.125295 149.585656 
L 323.530009 169.463615 
L 323.934723 197.402476 
L 324.339438 237.354194 
L 324.744152 261.585262 
L 324.94651 264.045346 
L 325.148867 268.115943 
L 325.351224 267.88372 
L 325.958296 242.970111 
L 326.160653 227.652387 
L 326.970082 141.875947 
L 327.374796 120.179518 
L 327.577153 122.211891 
L 327.981868 132.855199 
L 328.386582 153.457657 
L 328.993654 211.647295 
L 329.600725 256.808024 
L 329.803083 259.377024 
L 330.00544 259.932022 
L 330.207797 253.561179 
L 330.612511 229.750216 
L 331.219583 179.917714 
L 332.029012 138.657447 
L 332.231369 133.764408 
L 332.433726 136.968222 
L 333.243155 170.662035 
L 333.850227 217.902875 
L 334.254941 253.148651 
L 334.457298 263.047287 
L 334.862013 269.466589 
L 335.266727 248.665968 
L 335.873799 216.320023 
L 337.087942 178.467915 
L 337.290299 178.631172 
L 337.492656 180.222541 
L 337.695014 183.053045 
L 337.897371 188.846146 
L 338.7068 236.644753 
L 339.111514 275.276072 
L 339.313871 281.28918 
L 339.516228 282.581169 
L 339.718586 281.603608 
L 339.920943 274.792248 
L 340.932729 204.872176 
L 341.135086 198.360634 
L 342.146872 147.762009 
L 342.551587 140.65022 
L 342.753944 142.161829 
L 343.361015 180.067483 
L 343.968087 246.771056 
L 344.372801 253.425828 
L 344.575159 255.421324 
L 344.777516 248.092188 
L 344.979873 235.720966 
L 346.396374 95.996066 
L 346.598731 90.425215 
L 346.801088 89.161657 
L 347.610517 120.517463 
L 348.015231 148.540218 
L 348.419946 187.440108 
L 348.82466 232.231864 
L 349.229374 244.783672 
L 349.431732 245.855568 
L 349.634089 239.584451 
L 350.24116 204.551615 
L 351.455304 112.519143 
L 351.657661 105.894081 
L 351.860018 105.051794 
L 352.264733 112.170952 
L 352.669447 130.730861 
L 353.88359 242.396104 
L 354.288305 247.334638 
L 354.490662 245.159423 
L 354.895376 233.845214 
L 355.300091 213.797914 
L 356.109519 128.009564 
L 356.514234 114.039517 
L 356.716591 113.623647 
L 357.121306 121.495299 
L 357.52602 140.126995 
L 358.133092 190.991783 
L 358.537806 229.725527 
L 358.94252 243.096776 
L 359.144878 244.130228 
L 359.347235 243.406828 
L 359.954306 223.056072 
L 360.359021 183.850468 
L 360.966092 115.318274 
L 361.16845 103.934999 
L 361.370807 99.06069 
L 361.573164 98.133591 
L 362.180236 117.390991 
L 362.58495 139.268042 
L 362.989665 178.244233 
L 363.394379 222.348765 
L 363.799093 234.844945 
L 364.001451 236.29908 
L 364.203808 231.199669 
L 364.608522 208.090305 
L 365.013237 174.392403 
L 365.822665 81.005199 
L 366.025023 72.892238 
L 366.22738 71.486094 
L 366.632094 86.822903 
L 367.036809 107.181707 
L 367.441523 138.739697 
L 367.846238 179.008037 
L 368.250952 219.959552 
L 368.655666 231.902269 
L 368.858024 233.929745 
L 369.262738 220.028148 
L 369.667452 199.478458 
L 370.274524 145.947185 
L 370.679238 104.455002 
L 371.083953 88.072031 
L 371.28631 90.540144 
L 371.691024 105.988723 
L 372.095739 131.572725 
L 373.107525 221.266165 
L 373.512239 232.308881 
L 373.714597 234.058134 
L 374.119311 224.604008 
L 374.524025 212.672291 
L 374.92874 182.973743 
L 375.535811 117.96371 
L 375.940526 100.727937 
L 376.142883 99.837259 
L 376.34524 102.910694 
L 376.547597 110.665257 
L 376.952312 140.828388 
L 377.964098 222.610328 
L 378.368812 232.686346 
L 378.57117 231.551186 
L 378.773527 229.298995 
L 379.178241 208.423191 
L 379.785313 155.114286 
L 380.392384 99.846153 
L 380.797099 84.269848 
L 380.999456 86.35588 
L 381.40417 95.356085 
L 381.808885 118.48764 
L 382.820671 218.75436 
L 383.023028 226.159505 
L 383.427743 230.782682 
L 384.034814 207.610387 
L 384.237171 195.635086 
L 384.237171 195.635086 
" clip-path="url(#p81acb9663f)" style="fill: none; stroke: #ff7f0e; stroke-width: 1.5; stroke-linecap: square"/>
   </g>
   <g id="line2d_15">
    <path d="M 384.439529 182.629214 
L 385.0466 162.809152 
L 386.058386 102.505199 
L 386.260743 94.885935 
L 386.463101 92.393421 
L 386.665458 93.009616 
L 386.867815 99.496264 
L 387.272529 124.355837 
L 387.677244 161.163553 
L 388.284316 223.178249 
L 388.486673 231.715817 
L 388.68903 234.829621 
L 388.891387 234.672476 
L 389.093744 230.116901 
L 389.700816 199.388214 
L 390.307888 160.682113 
L 391.117316 92.439224 
L 391.319674 81.741091 
L 391.522031 78.092336 
L 391.724388 78.757948 
L 391.926745 86.131275 
L 392.33146 114.599888 
L 393.545603 229.238243 
L 393.74796 232.54929 
L 393.950317 233.808964 
L 394.152675 228.458031 
L 395.164461 178.684289 
L 395.569175 153.053994 
L 396.176247 110.203412 
L 396.580961 91.748262 
L 396.783318 88.412846 
L 396.985675 88.802002 
L 397.39039 105.743652 
L 397.795104 138.16232 
L 398.604533 220.25531 
L 399.009248 233.001447 
L 399.211605 234.137949 
L 399.616319 218.913327 
L 400.021034 198.614369 
L 400.628105 163.579072 
L 401.437534 98.949811 
L 401.842248 82.031132 
L 402.044606 80.859846 
L 402.246963 85.61399 
L 402.651677 110.047851 
L 403.258749 171.497578 
L 403.663463 214.188579 
L 403.86582 226.951875 
L 404.270535 234.546088 
L 404.472892 231.547393 
L 405.079964 203.494783 
L 405.889393 156.751212 
L 406.496464 111.206463 
L 406.901179 90.524919 
L 407.103536 86.860811 
L 407.305893 86.399068 
L 407.50825 92.666776 
L 407.912965 116.712602 
L 408.520036 177.185287 
L 408.924751 217.782144 
L 409.329465 232.332048 
L 409.531822 234.181784 
L 409.73418 228.746572 
L 410.341251 200.467309 
L 411.15068 150.7674 
L 411.757752 103.505513 
L 412.162466 84.375755 
L 412.364823 82.097952 
L 412.56718 84.918467 
L 412.971895 106.378405 
L 413.376609 143.517922 
L 414.186038 224.301397 
L 414.590752 233.995782 
L 414.79311 233.10532 
L 415.400181 206.67218 
L 416.411967 143.022666 
L 417.019039 100.5548 
L 417.423753 86.295621 
L 417.626111 85.110904 
L 417.828468 90.14394 
L 418.233182 113.471687 
L 418.840254 173.270334 
L 419.244968 214.990152 
L 419.447325 226.675523 
L 419.85204 234.461339 
L 420.054397 230.356412 
L 420.661469 202.538087 
L 421.470898 154.352411 
L 422.077969 106.741635 
L 422.482684 86.040567 
L 422.685041 83.108788 
L 422.887398 84.39339 
L 423.292112 103.649278 
L 423.696827 138.861028 
L 424.506256 221.907578 
L 424.708613 229.939129 
L 424.91097 233.384485 
L 425.113327 233.828081 
L 425.518042 218.091968 
L 426.125113 186.790951 
L 426.529828 163.158442 
L 427.339257 102.743349 
L 427.743971 86.334478 
L 427.946328 84.522878 
L 428.148685 88.178861 
L 428.5534 110.148651 
L 429.160471 168.854266 
L 429.565186 211.689069 
L 429.767543 225.312965 
L 430.172257 234.176903 
L 430.374615 232.030316 
L 430.981686 204.89116 
L 431.791115 157.17042 
L 432.398187 109.245491 
L 432.802901 87.488617 
L 433.005258 84.002875 
L 433.207616 84.026123 
L 433.409973 90.861711 
L 433.814687 116.578411 
L 435.02883 228.802836 
L 435.231188 232.761895 
L 435.433545 234.21556 
L 435.838259 219.585022 
L 436.242974 199.742175 
L 437.052403 150.609807 
L 437.659474 105.073504 
L 438.064189 86.627441 
L 438.266546 84.177089 
L 438.468903 86.5283 
L 438.873617 106.990743 
L 439.278332 143.020693 
L 440.087761 223.592248 
L 440.492475 233.762945 
L 440.694832 233.211557 
L 441.301904 207.166141 
L 442.111333 159.98534 
L 442.920762 99.035572 
L 443.325476 84.690453 
L 443.527833 83.774452 
L 443.73019 89.173088 
L 444.134905 113.517106 
L 444.741976 174.314382 
L 445.146691 215.899545 
L 445.349048 227.313097 
L 445.753762 234.493996 
L 445.95612 230.139087 
L 446.563191 202.04304 
L 447.37262 154.113273 
L 447.979692 107.50394 
L 448.384406 87.250018 
L 448.586763 84.201388 
L 448.789121 85.312774 
L 449.193835 104.066153 
L 449.598549 138.714098 
L 450.407978 221.531317 
L 450.812693 233.27703 
L 451.01505 233.881219 
L 451.419764 218.252306 
L 452.026836 186.921904 
L 452.43155 163.222545 
L 453.240979 101.949556 
L 453.645694 85.435778 
L 453.848051 83.74536 
L 454.050408 87.619669 
L 454.455122 110.100529 
L 455.062194 169.419309 
L 455.466908 212.262441 
L 455.669266 225.70183 
L 456.07398 234.286042 
L 456.276337 231.940271 
L 456.883409 204.580778 
L 457.692838 157.045731 
L 458.299909 109.621235 
L 458.704624 88.118269 
L 458.906981 84.610023 
L 459.109338 84.547406 
L 459.311695 91.28106 
L 459.71641 116.664313 
L 460.930553 228.576578 
L 461.13291 232.664495 
L 461.335267 234.188093 
L 461.537625 228.497138 
L 462.347053 188.643904 
L 462.751768 166.255377 
L 463.763554 93.217689 
L 463.965911 86.123919 
L 464.168268 83.722677 
L 464.370626 86.198685 
L 464.77534 106.897369 
L 465.180054 143.193183 
L 465.989483 223.785368 
L 466.394198 233.828506 
L 466.596555 233.184222 
L 467.203626 207.024477 
L 468.013055 159.922448 
L 468.822484 99.328406 
L 469.227199 85.036318 
L 469.429556 84.073258 
L 469.631913 89.415865 
L 470.036627 113.561985 
L 470.643699 174.162743 
L 471.048413 215.762651 
L 471.250771 227.206308 
L 471.655485 234.48366 
L 471.857842 230.154625 
L 472.464914 202.106781 
L 473.274343 154.109397 
L 473.881414 107.293458 
L 474.286129 86.967564 
L 474.488486 83.952459 
L 474.690843 85.128282 
L 475.095558 104.020428 
L 475.500272 138.811598 
L 476.309701 221.657788 
L 476.512058 229.699185 
L 476.714415 233.311726 
L 476.916772 233.861445 
L 477.321487 218.191716 
L 477.928558 186.862866 
L 478.333273 163.153001 
L 479.142702 102.076686 
L 479.547416 85.622269 
L 479.749773 83.916268 
L 479.952131 87.768969 
L 480.356845 110.16781 
L 480.963917 169.379869 
L 481.368631 212.202153 
L 481.570988 225.647231 
L 481.975703 234.269731 
L 482.17806 231.937343 
L 482.785131 204.604523 
L 483.59456 157.027546 
L 484.201632 109.501314 
L 484.606346 87.960997 
L 484.808704 84.467643 
L 485.011061 84.441063 
L 485.213418 91.215291 
L 485.618132 116.69054 
L 486.832276 228.649935 
L 487.034633 232.694293 
L 487.23699 234.189965 
L 487.641704 219.617143 
L 488.046419 199.793516 
L 488.855848 150.52932 
L 489.462919 104.733982 
L 489.867634 86.223752 
L 490.069991 83.824099 
L 490.272348 86.294596 
L 490.677063 106.969841 
L 491.081777 143.232789 
L 491.891206 223.772485 
L 492.29592 233.820467 
L 492.498277 233.177516 
L 493.105349 207.019927 
L 493.914778 159.887289 
L 494.724207 99.222268 
L 495.128921 84.951198 
L 495.331278 84.010001 
L 495.533636 89.387338 
L 495.93835 113.599727 
L 496.545422 174.269826 
L 496.950136 215.846063 
L 497.152493 227.255931 
L 497.557208 234.483888 
L 497.759565 230.124922 
L 498.366636 202.060171 
L 499.176065 154.058167 
L 499.783137 107.302826 
L 500.187851 87.017852 
L 500.390209 84.001927 
L 500.592566 85.182825 
L 500.99728 104.071049 
L 501.401995 138.847309 
L 502.211423 221.666506 
L 502.616138 233.312535 
L 502.818495 233.859136 
L 503.223209 218.181916 
L 503.830281 186.849464 
L 504.234995 163.12127 
L 505.044424 102.006509 
L 505.449139 85.570699 
L 505.651496 83.878667 
L 505.853853 87.757 
L 506.258568 110.202181 
L 506.865639 169.458764 
L 507.270354 212.271523 
L 507.472711 225.684732 
L 507.877425 234.278111 
L 508.079782 231.917586 
L 508.686854 204.563021 
L 509.496283 156.993892 
L 510.103354 109.498443 
L 510.508069 87.981476 
L 510.710426 84.492684 
L 510.912783 84.472666 
L 511.115141 91.251687 
L 511.519855 116.72147 
L 512.733998 228.651286 
L 512.936355 232.693333 
L 513.138713 234.185421 
L 513.543427 219.604585 
L 513.948141 199.776402 
L 514.75757 150.493833 
L 515.364642 104.689269 
L 515.769356 86.193866 
L 515.971714 83.802466 
L 516.174071 86.292981 
L 516.578785 106.994805 
L 516.9835 143.286685 
L 517.792928 223.799273 
L 518.197643 233.827695 
L 518.4 233.1693 
L 518.4 233.1693 
" clip-path="url(#p81acb9663f)" style="fill: none; stroke: #2ca02c; stroke-width: 1.5; stroke-linecap: square"/>
   </g>
   <g id="patch_3">
    <path d="M 72 320.4 
L 72 43.2 
" style="fill: none; stroke: #000000; stroke-width: 0.8; stroke-linejoin: miter; stroke-linecap: square"/>
   </g>
   <g id="patch_4">
    <path d="M 518.4 320.4 
L 518.4 43.2 
" style="fill: none; stroke: #000000; stroke-width: 0.8; stroke-linejoin: miter; stroke-linecap: square"/>
   </g>
   <g id="patch_5">
    <path d="M 72 320.4 
L 518.4 320.4 
" style="fill: none; stroke: #000000; stroke-width: 0.8; stroke-linejoin: miter; stroke-linecap: square"/>
   </g>
   <g id="patch_6">
    <path d="M 72 43.2 
L 518.4 43.2 
" style="fill: none; stroke: #000000; stroke-width: 0.8; stroke-linejoin: miter; stroke-linecap: square"/>
   </g>
   <g id="text_13">
    <!-- Classic Transformer - model_20231126191518 -->
    <g transform="translate(155.436563 37.2) scale(0.12 -0.12)">
     <defs>
      <path id="DejaVuSans-43" d="M 4122 4306 
L 4122 3641 
Q 3803 3938 3442 4084 
Q 3081 4231 2675 4231 
Q 1875 4231 1450 3742 
Q 1025 3253 1025 2328 
Q 1025 1406 1450 917 
Q 1875 428 2675 428 
Q 3081 428 3442 575 
Q 3803 722 4122 1019 
L 4122 359 
Q 3791 134 3420 21 
Q 3050 -91 2638 -91 
Q 1578 -91 968 557 
Q 359 1206 359 2328 
Q 359 3453 968 4101 
Q 1578 4750 2638 4750 
Q 3056 4750 3426 4639 
Q 3797 4528 4122 4306 
z
" transform="scale(0.015625)"/>
      <path id="DejaVuSans-6c" d="M 603 4863 
L 1178 4863 
L 1178 0 
L 603 0 
L 603 4863 
z
" transform="scale(0.015625)"/>
      <path id="DejaVuSans-61" d="M 2194 1759 
Q 1497 1759 1228 1600 
Q 959 1441 959 1056 
Q 959 750 1161 570 
Q 1363 391 1709 391 
Q 2188 391 2477 730 
Q 2766 1069 2766 1631 
L 2766 1759 
L 2194 1759 
z
M 3341 1997 
L 3341 0 
L 2766 0 
L 2766 531 
Q 2569 213 2275 61 
Q 1981 -91 1556 -91 
Q 1019 -91 701 211 
Q 384 513 384 1019 
Q 384 1609 779 1909 
Q 1175 2209 1959 2209 
L 2766 2209 
L 2766 2266 
Q 2766 2663 2505 2880 
Q 2244 3097 1772 3097 
Q 1472 3097 1187 3025 
Q 903 2953 641 2809 
L 641 3341 
Q 956 3463 1253 3523 
Q 1550 3584 1831 3584 
Q 2591 3584 2966 3190 
Q 3341 2797 3341 1997 
z
" transform="scale(0.015625)"/>
      <path id="DejaVuSans-73" d="M 2834 3397 
L 2834 2853 
Q 2591 2978 2328 3040 
Q 2066 3103 1784 3103 
Q 1356 3103 1142 2972 
Q 928 2841 928 2578 
Q 928 2378 1081 2264 
Q 1234 2150 1697 2047 
L 1894 2003 
Q 2506 1872 2764 1633 
Q 3022 1394 3022 966 
Q 3022 478 2636 193 
Q 2250 -91 1575 -91 
Q 1294 -91 989 -36 
Q 684 19 347 128 
L 347 722 
Q 666 556 975 473 
Q 1284 391 1588 391 
Q 1994 391 2212 530 
Q 2431 669 2431 922 
Q 2431 1156 2273 1281 
Q 2116 1406 1581 1522 
L 1381 1569 
Q 847 1681 609 1914 
Q 372 2147 372 2553 
Q 372 3047 722 3315 
Q 1072 3584 1716 3584 
Q 2034 3584 2315 3537 
Q 2597 3491 2834 3397 
z
" transform="scale(0.015625)"/>
      <path id="DejaVuSans-69" d="M 603 3500 
L 1178 3500 
L 1178 0 
L 603 0 
L 603 3500 
z
M 603 4863 
L 1178 4863 
L 1178 4134 
L 603 4134 
L 603 4863 
z
" transform="scale(0.015625)"/>
      <path id="DejaVuSans-63" d="M 3122 3366 
L 3122 2828 
Q 2878 2963 2633 3030 
Q 2388 3097 2138 3097 
Q 1578 3097 1268 2742 
Q 959 2388 959 1747 
Q 959 1106 1268 751 
Q 1578 397 2138 397 
Q 2388 397 2633 464 
Q 2878 531 3122 666 
L 3122 134 
Q 2881 22 2623 -34 
Q 2366 -91 2075 -91 
Q 1284 -91 818 406 
Q 353 903 353 1747 
Q 353 2603 823 3093 
Q 1294 3584 2113 3584 
Q 2378 3584 2631 3529 
Q 2884 3475 3122 3366 
z
" transform="scale(0.015625)"/>
      <path id="DejaVuSans-20" transform="scale(0.015625)"/>
      <path id="DejaVuSans-54" d="M -19 4666 
L 3928 4666 
L 3928 4134 
L 2272 4134 
L 2272 0 
L 1638 0 
L 1638 4134 
L -19 4134 
L -19 4666 
z
" transform="scale(0.015625)"/>
      <path id="DejaVuSans-72" d="M 2631 2963 
Q 2534 3019 2420 3045 
Q 2306 3072 2169 3072 
Q 1681 3072 1420 2755 
Q 1159 2438 1159 1844 
L 1159 0 
L 581 0 
L 581 3500 
L 1159 3500 
L 1159 2956 
Q 1341 3275 1631 3429 
Q 1922 3584 2338 3584 
Q 2397 3584 2469 3576 
Q 2541 3569 2628 3553 
L 2631 2963 
z
" transform="scale(0.015625)"/>
      <path id="DejaVuSans-6e" d="M 3513 2113 
L 3513 0 
L 2938 0 
L 2938 2094 
Q 2938 2591 2744 2837 
Q 2550 3084 2163 3084 
Q 1697 3084 1428 2787 
Q 1159 2491 1159 1978 
L 1159 0 
L 581 0 
L 581 3500 
L 1159 3500 
L 1159 2956 
Q 1366 3272 1645 3428 
Q 1925 3584 2291 3584 
Q 2894 3584 3203 3211 
Q 3513 2838 3513 2113 
z
" transform="scale(0.015625)"/>
      <path id="DejaVuSans-66" d="M 2375 4863 
L 2375 4384 
L 1825 4384 
Q 1516 4384 1395 4259 
Q 1275 4134 1275 3809 
L 1275 3500 
L 2222 3500 
L 2222 3053 
L 1275 3053 
L 1275 0 
L 697 0 
L 697 3053 
L 147 3053 
L 147 3500 
L 697 3500 
L 697 3744 
Q 697 4328 969 4595 
Q 1241 4863 1831 4863 
L 2375 4863 
z
" transform="scale(0.015625)"/>
      <path id="DejaVuSans-6f" d="M 1959 3097 
Q 1497 3097 1228 2736 
Q 959 2375 959 1747 
Q 959 1119 1226 758 
Q 1494 397 1959 397 
Q 2419 397 2687 759 
Q 2956 1122 2956 1747 
Q 2956 2369 2687 2733 
Q 2419 3097 1959 3097 
z
M 1959 3584 
Q 2709 3584 3137 3096 
Q 3566 2609 3566 1747 
Q 3566 888 3137 398 
Q 2709 -91 1959 -91 
Q 1206 -91 779 398 
Q 353 888 353 1747 
Q 353 2609 779 3096 
Q 1206 3584 1959 3584 
z
" transform="scale(0.015625)"/>
      <path id="DejaVuSans-6d" d="M 3328 2828 
Q 3544 3216 3844 3400 
Q 4144 3584 4550 3584 
Q 5097 3584 5394 3201 
Q 5691 2819 5691 2113 
L 5691 0 
L 5113 0 
L 5113 2094 
Q 5113 2597 4934 2840 
Q 4756 3084 4391 3084 
Q 3944 3084 3684 2787 
Q 3425 2491 3425 1978 
L 3425 0 
L 2847 0 
L 2847 2094 
Q 2847 2600 2669 2842 
Q 2491 3084 2119 3084 
Q 1678 3084 1418 2786 
Q 1159 2488 1159 1978 
L 1159 0 
L 581 0 
L 581 3500 
L 1159 3500 
L 1159 2956 
Q 1356 3278 1631 3431 
Q 1906 3584 2284 3584 
Q 2666 3584 2933 3390 
Q 3200 3197 3328 2828 
z
" transform="scale(0.015625)"/>
      <path id="DejaVuSans-65" d="M 3597 1894 
L 3597 1613 
L 953 1613 
Q 991 1019 1311 708 
Q 1631 397 2203 397 
Q 2534 397 2845 478 
Q 3156 559 3463 722 
L 3463 178 
Q 3153 47 2828 -22 
Q 2503 -91 2169 -91 
Q 1331 -91 842 396 
Q 353 884 353 1716 
Q 353 2575 817 3079 
Q 1281 3584 2069 3584 
Q 2775 3584 3186 3129 
Q 3597 2675 3597 1894 
z
M 3022 2063 
Q 3016 2534 2758 2815 
Q 2500 3097 2075 3097 
Q 1594 3097 1305 2825 
Q 1016 2553 972 2059 
L 3022 2063 
z
" transform="scale(0.015625)"/>
      <path id="DejaVuSans-64" d="M 2906 2969 
L 2906 4863 
L 3481 4863 
L 3481 0 
L 2906 0 
L 2906 525 
Q 2725 213 2448 61 
Q 2172 -91 1784 -91 
Q 1150 -91 751 415 
Q 353 922 353 1747 
Q 353 2572 751 3078 
Q 1150 3584 1784 3584 
Q 2172 3584 2448 3432 
Q 2725 3281 2906 2969 
z
M 947 1747 
Q 947 1113 1208 752 
Q 1469 391 1925 391 
Q 2381 391 2643 752 
Q 2906 1113 2906 1747 
Q 2906 2381 2643 2742 
Q 2381 3103 1925 3103 
Q 1469 3103 1208 2742 
Q 947 2381 947 1747 
z
" transform="scale(0.015625)"/>
      <path id="DejaVuSans-5f" d="M 3263 -1063 
L 3263 -1509 
L -63 -1509 
L -63 -1063 
L 3263 -1063 
z
" transform="scale(0.015625)"/>
      <path id="DejaVuSans-39" d="M 703 97 
L 703 672 
Q 941 559 1184 500 
Q 1428 441 1663 441 
Q 2288 441 2617 861 
Q 2947 1281 2994 2138 
Q 2813 1869 2534 1725 
Q 2256 1581 1919 1581 
Q 1219 1581 811 2004 
Q 403 2428 403 3163 
Q 403 3881 828 4315 
Q 1253 4750 1959 4750 
Q 2769 4750 3195 4129 
Q 3622 3509 3622 2328 
Q 3622 1225 3098 567 
Q 2575 -91 1691 -91 
Q 1453 -91 1209 -44 
Q 966 3 703 97 
z
M 1959 2075 
Q 2384 2075 2632 2365 
Q 2881 2656 2881 3163 
Q 2881 3666 2632 3958 
Q 2384 4250 1959 4250 
Q 1534 4250 1286 3958 
Q 1038 3666 1038 3163 
Q 1038 2656 1286 2365 
Q 1534 2075 1959 2075 
z
" transform="scale(0.015625)"/>
     </defs>
     <use xlink:href="#DejaVuSans-43"/>
     <use xlink:href="#DejaVuSans-6c" x="69.824219"/>
     <use xlink:href="#DejaVuSans-61" x="97.607422"/>
     <use xlink:href="#DejaVuSans-73" x="158.886719"/>
     <use xlink:href="#DejaVuSans-73" x="210.986328"/>
     <use xlink:href="#DejaVuSans-69" x="263.085938"/>
     <use xlink:href="#DejaVuSans-63" x="290.869141"/>
     <use xlink:href="#DejaVuSans-20" x="345.849609"/>
     <use xlink:href="#DejaVuSans-54" x="377.636719"/>
     <use xlink:href="#DejaVuSans-72" x="423.970703"/>
     <use xlink:href="#DejaVuSans-61" x="465.083984"/>
     <use xlink:href="#DejaVuSans-6e" x="526.363281"/>
     <use xlink:href="#DejaVuSans-73" x="589.742188"/>
     <use xlink:href="#DejaVuSans-66" x="641.841797"/>
     <use xlink:href="#DejaVuSans-6f" x="677.046875"/>
     <use xlink:href="#DejaVuSans-72" x="738.228516"/>
     <use xlink:href="#DejaVuSans-6d" x="777.591797"/>
     <use xlink:href="#DejaVuSans-65" x="875.003906"/>
     <use xlink:href="#DejaVuSans-72" x="936.527344"/>
     <use xlink:href="#DejaVuSans-20" x="977.640625"/>
     <use xlink:href="#DejaVuSans-2d" x="1009.427734"/>
     <use xlink:href="#DejaVuSans-20" x="1045.511719"/>
     <use xlink:href="#DejaVuSans-6d" x="1077.298828"/>
     <use xlink:href="#DejaVuSans-6f" x="1174.710938"/>
     <use xlink:href="#DejaVuSans-64" x="1235.892578"/>
     <use xlink:href="#DejaVuSans-65" x="1299.369141"/>
     <use xlink:href="#DejaVuSans-6c" x="1360.892578"/>
     <use xlink:href="#DejaVuSans-5f" x="1388.675781"/>
     <use xlink:href="#DejaVuSans-32" x="1438.675781"/>
     <use xlink:href="#DejaVuSans-30" x="1502.298828"/>
     <use xlink:href="#DejaVuSans-32" x="1565.921875"/>
     <use xlink:href="#DejaVuSans-33" x="1629.544922"/>
     <use xlink:href="#DejaVuSans-31" x="1693.167969"/>
     <use xlink:href="#DejaVuSans-31" x="1756.791016"/>
     <use xlink:href="#DejaVuSans-32" x="1820.414062"/>
     <use xlink:href="#DejaVuSans-36" x="1884.037109"/>
     <use xlink:href="#DejaVuSans-31" x="1947.660156"/>
     <use xlink:href="#DejaVuSans-39" x="2011.283203"/>
     <use xlink:href="#DejaVuSans-31" x="2074.90625"/>
     <use xlink:href="#DejaVuSans-35" x="2138.529297"/>
     <use xlink:href="#DejaVuSans-31" x="2202.152344"/>
     <use xlink:href="#DejaVuSans-38" x="2265.775391"/>
    </g>
   </g>
   <g id="legend_1">
    <g id="patch_7">
     <path d="M 79 95.234375 
L 161.517188 95.234375 
Q 163.517188 95.234375 163.517188 93.234375 
L 163.517188 50.2 
Q 163.517188 48.2 161.517188 48.2 
L 79 48.2 
Q 77 48.2 77 50.2 
L 77 93.234375 
Q 77 95.234375 79 95.234375 
z
" style="fill: #ffffff; opacity: 0.8; stroke: #cccccc; stroke-linejoin: miter"/>
    </g>
    <g id="line2d_16">
     <path d="M 81 56.298437 
L 91 56.298437 
L 101 56.298437 
" style="fill: none; stroke: #1f77b4; stroke-width: 1.5; stroke-linecap: square"/>
    </g>
    <g id="text_14">
     <!-- Measured -->
     <g transform="translate(109 59.798437) scale(0.1 -0.1)">
      <defs>
       <path id="DejaVuSans-4d" d="M 628 4666 
L 1569 4666 
L 2759 1491 
L 3956 4666 
L 4897 4666 
L 4897 0 
L 4281 0 
L 4281 4097 
L 3078 897 
L 2444 897 
L 1241 4097 
L 1241 0 
L 628 0 
L 628 4666 
z
" transform="scale(0.015625)"/>
       <path id="DejaVuSans-75" d="M 544 1381 
L 544 3500 
L 1119 3500 
L 1119 1403 
Q 1119 906 1312 657 
Q 1506 409 1894 409 
Q 2359 409 2629 706 
Q 2900 1003 2900 1516 
L 2900 3500 
L 3475 3500 
L 3475 0 
L 2900 0 
L 2900 538 
Q 2691 219 2414 64 
Q 2138 -91 1772 -91 
Q 1169 -91 856 284 
Q 544 659 544 1381 
z
M 1991 3584 
L 1991 3584 
z
" transform="scale(0.015625)"/>
      </defs>
      <use xlink:href="#DejaVuSans-4d"/>
      <use xlink:href="#DejaVuSans-65" x="86.279297"/>
      <use xlink:href="#DejaVuSans-61" x="147.802734"/>
      <use xlink:href="#DejaVuSans-73" x="209.082031"/>
      <use xlink:href="#DejaVuSans-75" x="261.181641"/>
      <use xlink:href="#DejaVuSans-72" x="324.560547"/>
      <use xlink:href="#DejaVuSans-65" x="363.423828"/>
      <use xlink:href="#DejaVuSans-64" x="424.947266"/>
     </g>
    </g>
    <g id="line2d_17">
     <path d="M 81 70.976562 
L 91 70.976562 
L 101 70.976562 
" style="fill: none; stroke: #ff7f0e; stroke-width: 1.5; stroke-linecap: square"/>
    </g>
    <g id="text_15">
     <!-- Fitted -->
     <g transform="translate(109 74.476562) scale(0.1 -0.1)">
      <defs>
       <path id="DejaVuSans-46" d="M 628 4666 
L 3309 4666 
L 3309 4134 
L 1259 4134 
L 1259 2759 
L 3109 2759 
L 3109 2228 
L 1259 2228 
L 1259 0 
L 628 0 
L 628 4666 
z
" transform="scale(0.015625)"/>
       <path id="DejaVuSans-74" d="M 1172 4494 
L 1172 3500 
L 2356 3500 
L 2356 3053 
L 1172 3053 
L 1172 1153 
Q 1172 725 1289 603 
Q 1406 481 1766 481 
L 2356 481 
L 2356 0 
L 1766 0 
Q 1100 0 847 248 
Q 594 497 594 1153 
L 594 3053 
L 172 3053 
L 172 3500 
L 594 3500 
L 594 4494 
L 1172 4494 
z
" transform="scale(0.015625)"/>
      </defs>
      <use xlink:href="#DejaVuSans-46"/>
      <use xlink:href="#DejaVuSans-69" x="50.269531"/>
      <use xlink:href="#DejaVuSans-74" x="78.052734"/>
      <use xlink:href="#DejaVuSans-74" x="117.261719"/>
      <use xlink:href="#DejaVuSans-65" x="156.470703"/>
      <use xlink:href="#DejaVuSans-64" x="217.994141"/>
     </g>
    </g>
    <g id="line2d_18">
     <path d="M 81 85.654687 
L 91 85.654687 
L 101 85.654687 
" style="fill: none; stroke: #2ca02c; stroke-width: 1.5; stroke-linecap: square"/>
    </g>
    <g id="text_16">
     <!-- Estimated -->
     <g transform="translate(109 89.154687) scale(0.1 -0.1)">
      <defs>
       <path id="DejaVuSans-45" d="M 628 4666 
L 3578 4666 
L 3578 4134 
L 1259 4134 
L 1259 2753 
L 3481 2753 
L 3481 2222 
L 1259 2222 
L 1259 531 
L 3634 531 
L 3634 0 
L 628 0 
L 628 4666 
z
" transform="scale(0.015625)"/>
      </defs>
      <use xlink:href="#DejaVuSans-45"/>
      <use xlink:href="#DejaVuSans-73" x="63.183594"/>
      <use xlink:href="#DejaVuSans-74" x="115.283203"/>
      <use xlink:href="#DejaVuSans-69" x="154.492188"/>
      <use xlink:href="#DejaVuSans-6d" x="182.275391"/>
      <use xlink:href="#DejaVuSans-61" x="279.6875"/>
      <use xlink:href="#DejaVuSans-74" x="340.966797"/>
      <use xlink:href="#DejaVuSans-65" x="380.175781"/>
      <use xlink:href="#DejaVuSans-64" x="441.699219"/>
     </g>
    </g>
   </g>
  </g>
 </g>
 <defs>
  <clipPath id="p81acb9663f">
   <rect x="72" y="43.2" width="446.4" height="277.2"/>
  </clipPath>
 </defs>
</svg>
