<?xml version="1.0" encoding="utf-8" standalone="no"?>
<!DOCTYPE svg PUBLIC "-//W3C//DTD SVG 1.1//EN"
  "http://www.w3.org/Graphics/SVG/1.1/DTD/svg11.dtd">
<svg xmlns:xlink="http://www.w3.org/1999/xlink" width="576pt" height="360pt" viewBox="0 0 576 360" xmlns="http://www.w3.org/2000/svg" version="1.1">
 <metadata>
  <rdf:RDF xmlns:dc="http://purl.org/dc/elements/1.1/" xmlns:cc="http://creativecommons.org/ns#" xmlns:rdf="http://www.w3.org/1999/02/22-rdf-syntax-ns#">
   <cc:Work>
    <dc:type rdf:resource="http://purl.org/dc/dcmitype/StillImage"/>
    <dc:date>2023-11-26T17:52:59.595390</dc:date>
    <dc:format>image/svg+xml</dc:format>
    <dc:creator>
     <cc:Agent>
      <dc:title>Matplotlib v3.8.1, https://matplotlib.org/</dc:title>
     </cc:Agent>
    </dc:creator>
   </cc:Work>
  </rdf:RDF>
 </metadata>
 <defs>
  <style type="text/css">*{stroke-linejoin: round; stroke-linecap: butt}</style>
 </defs>
 <g id="figure_1">
  <g id="patch_1">
   <path d="M 0 360 
L 576 360 
L 576 0 
L 0 0 
z
" style="fill: #ffffff"/>
  </g>
  <g id="axes_1">
   <g id="patch_2">
    <path d="M 72 320.4 
L 518.4 320.4 
L 518.4 43.2 
L 72 43.2 
z
" style="fill: #ffffff"/>
   </g>
   <g id="matplotlib.axis_1">
    <g id="xtick_1">
     <g id="line2d_1">
      <defs>
       <path id="mbe67efbc22" d="M 0 0 
L 0 3.5 
" style="stroke: #000000; stroke-width: 0.8"/>
      </defs>
      <g>
       <use xlink:href="#mbe67efbc22" x="129.874161" y="320.4" style="stroke: #000000; stroke-width: 0.8"/>
      </g>
     </g>
     <g id="text_1">
      <!-- 2020-05-15 -->
      <g transform="translate(100.816349 334.998438) scale(0.1 -0.1)">
       <defs>
        <path id="DejaVuSans-32" d="M 1228 531 
L 3431 531 
L 3431 0 
L 469 0 
L 469 531 
Q 828 903 1448 1529 
Q 2069 2156 2228 2338 
Q 2531 2678 2651 2914 
Q 2772 3150 2772 3378 
Q 2772 3750 2511 3984 
Q 2250 4219 1831 4219 
Q 1534 4219 1204 4116 
Q 875 4013 500 3803 
L 500 4441 
Q 881 4594 1212 4672 
Q 1544 4750 1819 4750 
Q 2544 4750 2975 4387 
Q 3406 4025 3406 3419 
Q 3406 3131 3298 2873 
Q 3191 2616 2906 2266 
Q 2828 2175 2409 1742 
Q 1991 1309 1228 531 
z
" transform="scale(0.015625)"/>
        <path id="DejaVuSans-30" d="M 2034 4250 
Q 1547 4250 1301 3770 
Q 1056 3291 1056 2328 
Q 1056 1369 1301 889 
Q 1547 409 2034 409 
Q 2525 409 2770 889 
Q 3016 1369 3016 2328 
Q 3016 3291 2770 3770 
Q 2525 4250 2034 4250 
z
M 2034 4750 
Q 2819 4750 3233 4129 
Q 3647 3509 3647 2328 
Q 3647 1150 3233 529 
Q 2819 -91 2034 -91 
Q 1250 -91 836 529 
Q 422 1150 422 2328 
Q 422 3509 836 4129 
Q 1250 4750 2034 4750 
z
" transform="scale(0.015625)"/>
        <path id="DejaVuSans-2d" d="M 313 2009 
L 1997 2009 
L 1997 1497 
L 313 1497 
L 313 2009 
z
" transform="scale(0.015625)"/>
        <path id="DejaVuSans-35" d="M 691 4666 
L 3169 4666 
L 3169 4134 
L 1269 4134 
L 1269 2991 
Q 1406 3038 1543 3061 
Q 1681 3084 1819 3084 
Q 2600 3084 3056 2656 
Q 3513 2228 3513 1497 
Q 3513 744 3044 326 
Q 2575 -91 1722 -91 
Q 1428 -91 1123 -41 
Q 819 9 494 109 
L 494 744 
Q 775 591 1075 516 
Q 1375 441 1709 441 
Q 2250 441 2565 725 
Q 2881 1009 2881 1497 
Q 2881 1984 2565 2268 
Q 2250 2553 1709 2553 
Q 1456 2553 1204 2497 
Q 953 2441 691 2322 
L 691 4666 
z
" transform="scale(0.015625)"/>
        <path id="DejaVuSans-31" d="M 794 531 
L 1825 531 
L 1825 4091 
L 703 3866 
L 703 4441 
L 1819 4666 
L 2450 4666 
L 2450 531 
L 3481 531 
L 3481 0 
L 794 0 
L 794 531 
z
" transform="scale(0.015625)"/>
       </defs>
       <use xlink:href="#DejaVuSans-32"/>
       <use xlink:href="#DejaVuSans-30" x="63.623047"/>
       <use xlink:href="#DejaVuSans-32" x="127.246094"/>
       <use xlink:href="#DejaVuSans-30" x="190.869141"/>
       <use xlink:href="#DejaVuSans-2d" x="254.492188"/>
       <use xlink:href="#DejaVuSans-30" x="290.576172"/>
       <use xlink:href="#DejaVuSans-35" x="354.199219"/>
       <use xlink:href="#DejaVuSans-2d" x="417.822266"/>
       <use xlink:href="#DejaVuSans-31" x="453.90625"/>
       <use xlink:href="#DejaVuSans-35" x="517.529297"/>
      </g>
     </g>
    </g>
    <g id="xtick_2">
     <g id="line2d_2">
      <g>
       <use xlink:href="#mbe67efbc22" x="212.435902" y="320.4" style="stroke: #000000; stroke-width: 0.8"/>
      </g>
     </g>
     <g id="text_2">
      <!-- 2020-06-01 -->
      <g transform="translate(183.37809 334.998438) scale(0.1 -0.1)">
       <defs>
        <path id="DejaVuSans-36" d="M 2113 2584 
Q 1688 2584 1439 2293 
Q 1191 2003 1191 1497 
Q 1191 994 1439 701 
Q 1688 409 2113 409 
Q 2538 409 2786 701 
Q 3034 994 3034 1497 
Q 3034 2003 2786 2293 
Q 2538 2584 2113 2584 
z
M 3366 4563 
L 3366 3988 
Q 3128 4100 2886 4159 
Q 2644 4219 2406 4219 
Q 1781 4219 1451 3797 
Q 1122 3375 1075 2522 
Q 1259 2794 1537 2939 
Q 1816 3084 2150 3084 
Q 2853 3084 3261 2657 
Q 3669 2231 3669 1497 
Q 3669 778 3244 343 
Q 2819 -91 2113 -91 
Q 1303 -91 875 529 
Q 447 1150 447 2328 
Q 447 3434 972 4092 
Q 1497 4750 2381 4750 
Q 2619 4750 2861 4703 
Q 3103 4656 3366 4563 
z
" transform="scale(0.015625)"/>
       </defs>
       <use xlink:href="#DejaVuSans-32"/>
       <use xlink:href="#DejaVuSans-30" x="63.623047"/>
       <use xlink:href="#DejaVuSans-32" x="127.246094"/>
       <use xlink:href="#DejaVuSans-30" x="190.869141"/>
       <use xlink:href="#DejaVuSans-2d" x="254.492188"/>
       <use xlink:href="#DejaVuSans-30" x="290.576172"/>
       <use xlink:href="#DejaVuSans-36" x="354.199219"/>
       <use xlink:href="#DejaVuSans-2d" x="417.822266"/>
       <use xlink:href="#DejaVuSans-30" x="453.90625"/>
       <use xlink:href="#DejaVuSans-31" x="517.529297"/>
      </g>
     </g>
    </g>
    <g id="xtick_3">
     <g id="line2d_3">
      <g>
       <use xlink:href="#mbe67efbc22" x="280.427924" y="320.4" style="stroke: #000000; stroke-width: 0.8"/>
      </g>
     </g>
     <g id="text_3">
      <!-- 2020-06-15 -->
      <g transform="translate(251.370111 334.998438) scale(0.1 -0.1)">
       <use xlink:href="#DejaVuSans-32"/>
       <use xlink:href="#DejaVuSans-30" x="63.623047"/>
       <use xlink:href="#DejaVuSans-32" x="127.246094"/>
       <use xlink:href="#DejaVuSans-30" x="190.869141"/>
       <use xlink:href="#DejaVuSans-2d" x="254.492188"/>
       <use xlink:href="#DejaVuSans-30" x="290.576172"/>
       <use xlink:href="#DejaVuSans-36" x="354.199219"/>
       <use xlink:href="#DejaVuSans-2d" x="417.822266"/>
       <use xlink:href="#DejaVuSans-31" x="453.90625"/>
       <use xlink:href="#DejaVuSans-35" x="517.529297"/>
      </g>
     </g>
    </g>
    <g id="xtick_4">
     <g id="line2d_4">
      <g>
       <use xlink:href="#mbe67efbc22" x="358.133092" y="320.4" style="stroke: #000000; stroke-width: 0.8"/>
      </g>
     </g>
     <g id="text_4">
      <!-- 2020-07-01 -->
      <g transform="translate(329.075279 334.998438) scale(0.1 -0.1)">
       <defs>
        <path id="DejaVuSans-37" d="M 525 4666 
L 3525 4666 
L 3525 4397 
L 1831 0 
L 1172 0 
L 2766 4134 
L 525 4134 
L 525 4666 
z
" transform="scale(0.015625)"/>
       </defs>
       <use xlink:href="#DejaVuSans-32"/>
       <use xlink:href="#DejaVuSans-30" x="63.623047"/>
       <use xlink:href="#DejaVuSans-32" x="127.246094"/>
       <use xlink:href="#DejaVuSans-30" x="190.869141"/>
       <use xlink:href="#DejaVuSans-2d" x="254.492188"/>
       <use xlink:href="#DejaVuSans-30" x="290.576172"/>
       <use xlink:href="#DejaVuSans-37" x="354.199219"/>
       <use xlink:href="#DejaVuSans-2d" x="417.822266"/>
       <use xlink:href="#DejaVuSans-30" x="453.90625"/>
       <use xlink:href="#DejaVuSans-31" x="517.529297"/>
      </g>
     </g>
    </g>
    <g id="xtick_5">
     <g id="line2d_5">
      <g>
       <use xlink:href="#mbe67efbc22" x="426.125113" y="320.4" style="stroke: #000000; stroke-width: 0.8"/>
      </g>
     </g>
     <g id="text_5">
      <!-- 2020-07-15 -->
      <g transform="translate(397.067301 334.998438) scale(0.1 -0.1)">
       <use xlink:href="#DejaVuSans-32"/>
       <use xlink:href="#DejaVuSans-30" x="63.623047"/>
       <use xlink:href="#DejaVuSans-32" x="127.246094"/>
       <use xlink:href="#DejaVuSans-30" x="190.869141"/>
       <use xlink:href="#DejaVuSans-2d" x="254.492188"/>
       <use xlink:href="#DejaVuSans-30" x="290.576172"/>
       <use xlink:href="#DejaVuSans-37" x="354.199219"/>
       <use xlink:href="#DejaVuSans-2d" x="417.822266"/>
       <use xlink:href="#DejaVuSans-31" x="453.90625"/>
       <use xlink:href="#DejaVuSans-35" x="517.529297"/>
      </g>
     </g>
    </g>
    <g id="xtick_6">
     <g id="line2d_6">
      <g>
       <use xlink:href="#mbe67efbc22" x="508.686854" y="320.4" style="stroke: #000000; stroke-width: 0.8"/>
      </g>
     </g>
     <g id="text_6">
      <!-- 2020-08-01 -->
      <g transform="translate(479.629042 334.998438) scale(0.1 -0.1)">
       <defs>
        <path id="DejaVuSans-38" d="M 2034 2216 
Q 1584 2216 1326 1975 
Q 1069 1734 1069 1313 
Q 1069 891 1326 650 
Q 1584 409 2034 409 
Q 2484 409 2743 651 
Q 3003 894 3003 1313 
Q 3003 1734 2745 1975 
Q 2488 2216 2034 2216 
z
M 1403 2484 
Q 997 2584 770 2862 
Q 544 3141 544 3541 
Q 544 4100 942 4425 
Q 1341 4750 2034 4750 
Q 2731 4750 3128 4425 
Q 3525 4100 3525 3541 
Q 3525 3141 3298 2862 
Q 3072 2584 2669 2484 
Q 3125 2378 3379 2068 
Q 3634 1759 3634 1313 
Q 3634 634 3220 271 
Q 2806 -91 2034 -91 
Q 1263 -91 848 271 
Q 434 634 434 1313 
Q 434 1759 690 2068 
Q 947 2378 1403 2484 
z
M 1172 3481 
Q 1172 3119 1398 2916 
Q 1625 2713 2034 2713 
Q 2441 2713 2670 2916 
Q 2900 3119 2900 3481 
Q 2900 3844 2670 4047 
Q 2441 4250 2034 4250 
Q 1625 4250 1398 4047 
Q 1172 3844 1172 3481 
z
" transform="scale(0.015625)"/>
       </defs>
       <use xlink:href="#DejaVuSans-32"/>
       <use xlink:href="#DejaVuSans-30" x="63.623047"/>
       <use xlink:href="#DejaVuSans-32" x="127.246094"/>
       <use xlink:href="#DejaVuSans-30" x="190.869141"/>
       <use xlink:href="#DejaVuSans-2d" x="254.492188"/>
       <use xlink:href="#DejaVuSans-30" x="290.576172"/>
       <use xlink:href="#DejaVuSans-38" x="354.199219"/>
       <use xlink:href="#DejaVuSans-2d" x="417.822266"/>
       <use xlink:href="#DejaVuSans-30" x="453.90625"/>
       <use xlink:href="#DejaVuSans-31" x="517.529297"/>
      </g>
     </g>
    </g>
   </g>
   <g id="matplotlib.axis_2">
    <g id="ytick_1">
     <g id="line2d_7">
      <defs>
       <path id="mbe40ce267e" d="M 0 0 
L -3.5 0 
" style="stroke: #000000; stroke-width: 0.8"/>
      </defs>
      <g>
       <use xlink:href="#mbe40ce267e" x="72" y="313.206166" style="stroke: #000000; stroke-width: 0.8"/>
      </g>
     </g>
     <g id="text_7">
      <!-- −2 -->
      <g transform="translate(50.257812 317.005384) scale(0.1 -0.1)">
       <defs>
        <path id="DejaVuSans-2212" d="M 678 2272 
L 4684 2272 
L 4684 1741 
L 678 1741 
L 678 2272 
z
" transform="scale(0.015625)"/>
       </defs>
       <use xlink:href="#DejaVuSans-2212"/>
       <use xlink:href="#DejaVuSans-32" x="83.789062"/>
      </g>
     </g>
    </g>
    <g id="ytick_2">
     <g id="line2d_8">
      <g>
       <use xlink:href="#mbe40ce267e" x="72" y="260.035891" style="stroke: #000000; stroke-width: 0.8"/>
      </g>
     </g>
     <g id="text_8">
      <!-- −1 -->
      <g transform="translate(50.257812 263.835109) scale(0.1 -0.1)">
       <use xlink:href="#DejaVuSans-2212"/>
       <use xlink:href="#DejaVuSans-31" x="83.789062"/>
      </g>
     </g>
    </g>
    <g id="ytick_3">
     <g id="line2d_9">
      <g>
       <use xlink:href="#mbe40ce267e" x="72" y="206.865615" style="stroke: #000000; stroke-width: 0.8"/>
      </g>
     </g>
     <g id="text_9">
      <!-- 0 -->
      <g transform="translate(58.6375 210.664834) scale(0.1 -0.1)">
       <use xlink:href="#DejaVuSans-30"/>
      </g>
     </g>
    </g>
    <g id="ytick_4">
     <g id="line2d_10">
      <g>
       <use xlink:href="#mbe40ce267e" x="72" y="153.69534" style="stroke: #000000; stroke-width: 0.8"/>
      </g>
     </g>
     <g id="text_10">
      <!-- 1 -->
      <g transform="translate(58.6375 157.494559) scale(0.1 -0.1)">
       <use xlink:href="#DejaVuSans-31"/>
      </g>
     </g>
    </g>
    <g id="ytick_5">
     <g id="line2d_11">
      <g>
       <use xlink:href="#mbe40ce267e" x="72" y="100.525065" style="stroke: #000000; stroke-width: 0.8"/>
      </g>
     </g>
     <g id="text_11">
      <!-- 2 -->
      <g transform="translate(58.6375 104.324284) scale(0.1 -0.1)">
       <use xlink:href="#DejaVuSans-32"/>
      </g>
     </g>
    </g>
    <g id="ytick_6">
     <g id="line2d_12">
      <g>
       <use xlink:href="#mbe40ce267e" x="72" y="47.35479" style="stroke: #000000; stroke-width: 0.8"/>
      </g>
     </g>
     <g id="text_12">
      <!-- 3 -->
      <g transform="translate(58.6375 51.154009) scale(0.1 -0.1)">
       <defs>
        <path id="DejaVuSans-33" d="M 2597 2516 
Q 3050 2419 3304 2112 
Q 3559 1806 3559 1356 
Q 3559 666 3084 287 
Q 2609 -91 1734 -91 
Q 1441 -91 1130 -33 
Q 819 25 488 141 
L 488 750 
Q 750 597 1062 519 
Q 1375 441 1716 441 
Q 2309 441 2620 675 
Q 2931 909 2931 1356 
Q 2931 1769 2642 2001 
Q 2353 2234 1838 2234 
L 1294 2234 
L 1294 2753 
L 1863 2753 
Q 2328 2753 2575 2939 
Q 2822 3125 2822 3475 
Q 2822 3834 2567 4026 
Q 2313 4219 1838 4219 
Q 1578 4219 1281 4162 
Q 984 4106 628 3988 
L 628 4550 
Q 988 4650 1302 4700 
Q 1616 4750 1894 4750 
Q 2613 4750 3031 4423 
Q 3450 4097 3450 3541 
Q 3450 3153 3228 2886 
Q 3006 2619 2597 2516 
z
" transform="scale(0.015625)"/>
       </defs>
       <use xlink:href="#DejaVuSans-33"/>
      </g>
     </g>
    </g>
   </g>
   <g id="line2d_13">
    <path d="M 72 284.518498 
L 72.404714 295.786447 
L 72.607072 294.075388 
L 72.809429 283.475169 
L 73.214143 252.759575 
L 73.618858 240.406564 
L 75.035358 157.983604 
L 75.237715 155.041417 
L 75.440073 160.070261 
L 75.64243 168.229091 
L 75.844787 171.505143 
L 76.047144 186.654274 
L 76.654216 256.473825 
L 77.05893 280.386917 
L 77.261287 284.727164 
L 77.463645 284.351566 
L 77.666002 273.709614 
L 78.070716 245.393675 
L 78.475431 232.998931 
L 78.677788 223.921972 
L 79.487217 167.290095 
L 79.891931 151.118502 
L 80.094288 153.059093 
L 80.903717 195.209569 
L 81.713146 270.07883 
L 82.11786 284.643698 
L 82.320218 286.667755 
L 82.522575 286.375623 
L 82.724932 283.871634 
L 82.927289 277.089998 
L 83.332004 254.241102 
L 83.736718 240.0101 
L 83.939075 236.984447 
L 84.141432 237.255712 
L 84.546147 243.620017 
L 84.748504 245.706674 
L 84.950861 245.72754 
L 85.355576 249.900855 
L 85.557933 246.58307 
L 85.76029 252.676109 
L 86.569719 297.372307 
L 86.772076 303.423613 
L 86.974433 305.009472 
L 87.176791 305.072072 
L 87.379148 303.736611 
L 87.581505 300.022361 
L 87.783862 293.303325 
L 88.188577 271.372558 
L 88.390934 266.218514 
L 89.200363 258.184884 
L 89.40272 254.074169 
L 89.807434 239.363236 
L 90.212149 236.921847 
L 90.414506 234.230059 
L 90.616863 242.13849 
L 91.223935 292.447796 
L 91.628649 303.423613 
L 91.831006 303.486212 
L 92.033364 301.00309 
L 92.842792 255.096631 
L 93.04515 252.968241 
L 93.449864 244.412946 
L 93.652221 243.891282 
L 93.854578 240.969962 
L 94.056936 240.343965 
L 94.259293 237.735643 
L 94.46165 231.371339 
L 94.664007 228.533485 
L 94.866364 229.451614 
L 95.068722 232.5816 
L 95.271079 228.763017 
L 95.473436 238.820705 
L 96.080508 292.823394 
L 96.485222 301.983819 
L 96.687579 303.882677 
L 96.889937 299.563297 
L 97.699365 254.366301 
L 98.306437 243.912149 
L 98.508794 243.53655 
L 99.52058 222.419579 
L 99.722937 223.671574 
L 99.925295 228.011821 
L 100.127652 226.196429 
L 100.330009 236.29585 
L 100.937081 290.361138 
L 101.341795 302.568083 
L 101.544152 303.548812 
L 101.74651 299.855429 
L 101.948867 287.961483 
L 102.353581 258.080551 
L 102.555938 256.536425 
L 103.567724 238.841572 
L 104.377153 216.848204 
L 104.57951 218.121065 
L 104.781868 223.483774 
L 104.984225 223.462908 
L 105.186582 232.310334 
L 105.793654 287.231152 
L 106.198368 299.918028 
L 106.400725 301.67082 
L 106.603083 297.664439 
L 107.412511 251.966645 
L 107.614869 250.255587 
L 107.817226 246.603936 
L 108.22194 232.143402 
L 108.626655 210.5465 
L 108.829012 204.64126 
L 109.031369 202.763268 
L 109.638441 211.402029 
L 109.840798 216.806471 
L 110.043155 227.156291 
L 110.650227 281.931043 
L 111.054941 296.120312 
L 111.257298 298.01917 
L 111.459655 296.287245 
L 111.662013 284.93583 
L 112.066727 255.826961 
L 112.471442 240.907362 
L 113.887942 172.840604 
L 114.090299 170.482681 
L 114.292656 177.264317 
L 114.495014 188.636599 
L 114.697371 193.206378 
L 115.102085 227.051958 
L 115.709157 276.171869 
L 116.113871 290.04814 
L 116.316228 290.215072 
L 116.518586 288.566613 
L 116.720943 284.956696 
L 117.125657 257.851019 
L 118.542158 153.705957 
L 118.744515 143.648269 
L 118.946872 139.787953 
L 119.149229 143.439603 
L 119.756301 181.124633 
L 120.56573 260.083742 
L 120.970444 279.802653 
L 121.172801 283.871634 
L 121.375159 285.499227 
L 121.577516 284.059434 
L 121.779873 276.171869 
L 122.589302 225.424366 
L 123.196374 200.092347 
L 123.398731 195.543434 
L 123.601088 195.7521 
L 123.803445 195.188702 
L 124.410517 208.522442 
L 124.612874 219.435659 
L 125.219946 275.441539 
L 125.62466 289.902074 
L 125.827017 291.884398 
L 126.029374 289.359543 
L 127.04116 233.24933 
L 127.648232 196.023365 
L 128.255304 153.852023 
L 128.457661 146.340057 
L 128.660018 146.006192 
L 129.26709 190.118125 
L 130.278876 280.512116 
L 130.481233 288.295348 
L 130.68359 289.672541 
L 130.885947 287.105953 
L 132.504805 178.724977 
L 133.111877 136.261502 
L 133.314234 126.892412 
L 133.516591 128.582604 
L 133.921306 143.877801 
L 134.123663 151.264568 
L 135.135449 260.605406 
L 135.540163 273.167083 
L 135.74252 272.228087 
L 135.944878 261.690468 
L 136.349592 230.432343 
L 136.551949 223.69244 
L 136.754306 211.88196 
L 136.956664 216.430873 
L 137.159021 205.183791 
L 137.766092 196.398964 
L 137.96845 196.795428 
L 138.373164 191.411853 
L 138.777879 198.923819 
L 138.980236 199.758482 
L 139.182593 211.506362 
L 139.789665 267.866973 
L 140.194379 283.162171 
L 140.396736 285.227962 
L 140.599093 282.223175 
L 141.003808 252.154445 
L 141.408522 231.079207 
L 142.015594 217.745467 
L 142.622665 208.647642 
L 142.825023 208.376376 
L 143.02738 207.166115 
L 143.229737 207.854712 
L 143.634451 213.113088 
L 143.836809 211.88196 
L 144.039166 222.023114 
L 144.646238 271.143025 
L 145.050952 283.183037 
L 145.253309 284.476765 
L 145.455666 281.346779 
L 145.860381 251.820579 
L 146.062738 235.44032 
L 146.66981 219.039194 
L 146.872167 216.368273 
L 147.074524 215.283211 
L 147.479238 204.223928 
L 147.681596 212.654023 
L 147.883953 213.634752 
L 148.08631 216.243074 
L 148.491024 225.528698 
L 148.693382 224.172371 
L 149.098096 247.730731 
L 149.502811 275.796271 
L 149.907525 288.879612 
L 150.109882 290.945402 
L 150.312239 290.361138 
L 150.514597 287.523284 
L 150.716954 281.784977 
L 151.121668 260.793205 
L 151.526383 240.177032 
L 151.931097 234.334392 
L 152.133454 233.896194 
L 152.335811 235.878518 
L 152.538169 236.400183 
L 152.740526 234.334392 
L 152.942883 234.626524 
L 153.14524 233.645795 
L 153.347597 233.687528 
L 153.549955 230.745341 
L 153.752312 232.957198 
L 154.764098 284.74803 
L 154.966455 288.733546 
L 155.168812 290.131606 
L 155.573527 286.166957 
L 155.775884 275.024208 
L 156.78767 196.586763 
L 157.799456 153.68509 
L 158.001813 155.709148 
L 158.406528 169.001154 
L 158.608885 182.647893 
L 159.215956 251.737113 
L 159.620671 273.480081 
L 159.823028 276.7144 
L 160.025385 275.796271 
L 160.227743 265.926382 
L 160.632457 233.24933 
L 161.8466 182.606159 
L 162.251315 172.485872 
L 162.453672 172.631938 
L 162.656029 175.511525 
L 163.465458 207.541713 
L 164.072529 267.804374 
L 164.477244 286.542556 
L 164.679601 286.876421 
L 164.881958 283.621235 
L 165.084316 273.396615 
L 165.48903 241.40816 
L 166.500816 206.081053 
L 167.310245 162.866382 
L 167.512602 166.246767 
L 167.917316 186.967273 
L 168.119674 191.453586 
L 168.322031 202.888468 
L 168.929102 262.71293 
L 169.333817 278.008128 
L 169.536174 281.555445 
L 169.738531 277.862062 
L 170.143246 250.380786 
L 170.54796 219.852991 
L 171.357389 174.968994 
L 171.559746 168.896821 
L 172.166818 144.524665 
L 172.369175 146.152258 
L 172.571532 154.123288 
L 173.178604 193.373311 
L 173.785675 264.96652 
L 174.19039 284.497632 
L 174.392747 287.502418 
L 174.595104 285.66616 
L 174.999819 261.294003 
L 175.404533 236.108051 
L 177.023391 157.295007 
L 177.225748 157.816672 
L 177.428105 161.760454 
L 177.630462 178.474578 
L 177.83282 180.936834 
L 178.237534 225.382632 
L 178.642248 268.61817 
L 179.046963 287.961483 
L 179.24932 291.717466 
L 179.451677 289.171744 
L 179.654034 280.407783 
L 180.261106 240.239632 
L 181.879964 142.500608 
L 182.082321 139.203689 
L 182.284678 144.92113 
L 183.094107 201.71994 
L 183.498821 241.053428 
L 183.903536 262.692064 
L 184.30825 270.600494 
L 184.510607 271.977688 
L 184.712965 268.305171 
L 184.915322 254.804499 
L 185.724751 172.06854 
L 186.129465 150.492505 
L 186.331822 144.378599 
L 186.53418 143.606536 
L 186.736537 146.173124 
L 187.748323 186.98814 
L 188.557752 251.778846 
L 188.962466 266.093315 
L 189.164823 268.159105 
L 189.36718 268.242572 
L 189.569538 267.491375 
L 189.771895 256.599024 
L 190.986038 159.673797 
L 191.188395 154.311087 
L 191.390752 154.269354 
L 191.795467 163.513246 
L 192.604896 195.146969 
L 193.414325 259.144746 
L 193.819039 273.00015 
L 194.021396 274.085212 
L 194.426111 270.07883 
L 194.628468 261.022738 
L 195.437897 199.445483 
L 195.640254 194.374906 
L 195.842611 195.606034 
L 196.247325 201.740806 
L 196.449683 202.32507 
L 196.65204 201.928605 
L 197.056754 210.233501 
L 197.259112 211.08903 
L 197.461469 219.602592 
L 198.06854 268.513837 
L 198.473255 282.870039 
L 198.675612 282.974372 
L 198.877969 279.280988 
L 199.282684 248.127196 
L 199.687398 225.027901 
L 201.306256 157.816672 
L 201.508613 156.648144 
L 202.115684 176.074922 
L 202.318042 187.363738 
L 202.925113 252.217044 
L 203.329828 270.07883 
L 203.532185 272.20722 
L 203.734542 269.181568 
L 203.936899 257.517154 
L 204.341614 223.108176 
L 205.758114 167.770027 
L 205.960471 165.245171 
L 206.162829 165.391237 
L 206.365186 166.831031 
L 206.7699 178.82931 
L 206.972257 182.063628 
L 207.174615 193.039445 
L 207.781686 252.822175 
L 208.186401 269.181568 
L 208.388758 272.26982 
L 208.591115 268.889436 
L 208.793472 256.87029 
L 209.198187 222.649111 
L 209.805258 200.092347 
L 210.209973 179.956105 
L 210.817044 137.743029 
L 211.019402 129.146001 
L 211.221759 132.150788 
L 211.626473 156.940276 
L 211.82883 162.219518 
L 212.031188 177.139117 
L 212.638259 243.014886 
L 213.042974 261.836534 
L 213.245331 265.884649 
L 213.447688 264.152724 
L 213.650045 253.302106 
L 214.257117 209.482304 
L 214.661831 182.793959 
L 215.47126 122.677364 
L 215.875975 105.733707 
L 216.078332 105.253776 
L 216.280689 110.866884 
L 217.090118 175.469792 
L 217.697189 238.194708 
L 218.101904 256.891156 
L 218.304261 260.292408 
L 218.506618 261.669602 
L 218.708976 260.396741 
L 218.911333 247.501199 
L 219.518404 191.996117 
L 220.125476 156.335145 
L 220.327833 154.144155 
L 220.53019 156.397745 
L 221.541976 199.257684 
L 221.744334 204.474327 
L 222.553762 262.1078 
L 222.958477 273.12535 
L 223.160834 274.857275 
L 223.363191 275.212007 
L 223.565549 273.626147 
L 223.767906 264.799587 
L 224.374977 226.092096 
L 224.779692 218.413197 
L 225.386763 220.499855 
L 225.589121 224.068038 
L 225.791478 224.965301 
L 226.196192 233.457996 
L 226.398549 233.103264 
L 226.600907 239.613635 
L 227.410335 293.929322 
L 227.612693 298.01917 
L 227.81505 299.730229 
L 228.017407 296.495911 
L 228.826836 253.343839 
L 229.029193 250.985917 
L 229.23155 245.164143 
L 230.648051 180.915967 
L 230.850408 181.500231 
L 231.255122 196.106832 
L 231.45748 207.145248 
L 232.064551 271.66469 
L 232.469266 289.067411 
L 232.671623 291.821798 
L 232.87398 290.590671 
L 233.278694 264.96652 
L 233.683409 242.13849 
L 235.302267 176.700919 
L 235.504624 176.095789 
L 236.111695 195.459968 
L 236.314053 205.955854 
L 236.921124 268.910302 
L 237.325839 284.998429 
L 237.528196 288.170148 
L 237.730553 286.020891 
L 238.135267 261.753068 
L 238.539982 239.676234 
L 239.349411 208.334643 
L 239.754125 198.193489 
L 240.15884 187.843669 
L 240.361197 187.59327 
L 240.563554 193.122912 
L 240.968268 210.963831 
L 241.170626 218.64273 
L 241.777697 274.919875 
L 242.182412 290.987135 
L 242.384769 293.511991 
L 242.587126 290.486338 
L 242.99184 265.446451 
L 243.396555 247.2508 
L 245.21777 171.609476 
L 245.420127 175.90799 
L 246.027199 203.0554 
L 246.836627 277.50733 
L 247.038985 285.979158 
L 247.241342 289.19261 
L 247.443699 286.626022 
L 247.848413 262.754663 
L 249.467271 149.282244 
L 249.669628 141.102547 
L 249.871985 139.141089 
L 250.074343 139.308022 
L 250.2767 146.340057 
L 250.883772 178.871043 
L 251.6932 254.825366 
L 252.097915 269.536299 
L 252.300272 272.645419 
L 252.502629 272.916684 
L 252.704986 268.993768 
L 253.109701 235.815919 
L 253.91913 161.656121 
L 254.323844 145.65146 
L 254.728558 136.720567 
L 254.930916 135.447706 
L 255.133273 143.043138 
L 255.740345 180.999433 
L 256.549773 257.183288 
L 256.954488 272.854084 
L 257.156845 276.7144 
L 257.359202 278.404592 
L 257.561559 277.423864 
L 257.966274 248.168929 
L 258.573345 197.129294 
L 258.97806 175.17766 
L 259.382774 164.014044 
L 259.585131 160.529326 
L 259.787489 160.091128 
L 259.989846 162.741183 
L 260.39456 178.933643 
L 260.596917 192.455181 
L 261.203989 255.242697 
L 261.608704 274.189545 
L 261.811061 277.152598 
L 262.013418 276.359668 
L 262.418132 252.091845 
L 262.62049 239.926633 
L 263.025204 230.140211 
L 263.227561 227.302357 
L 263.429918 226.279895 
L 263.834633 227.573623 
L 264.03699 227.260624 
L 264.239347 228.220486 
L 264.441704 228.303953 
L 264.644062 228.032687 
L 264.846419 230.098478 
L 265.048776 234.188326 
L 265.251133 234.188326 
L 265.45349 238.257307 
L 266.060562 281.263313 
L 266.465277 294.263187 
L 266.667634 295.82818 
L 266.869991 291.592266 
L 267.072348 283.537769 
L 267.477063 256.703357 
L 268.084134 234.250926 
L 268.488849 223.838506 
L 269.09592 212.445358 
L 269.500635 208.438976 
L 269.702992 210.650832 
L 269.905349 214.302483 
L 270.107706 214.991079 
L 270.310063 221.376251 
L 270.917135 270.850893 
L 271.32185 282.974372 
L 271.524207 285.144495 
L 271.726564 283.41257 
L 274.15485 140.038352 
L 274.357208 132.776785 
L 274.559565 136.15717 
L 275.166636 161.635254 
L 275.976065 244.246014 
L 276.38078 256.974623 
L 276.583137 256.265159 
L 276.987851 234.146593 
L 277.392566 204.870792 
L 278.404352 147.195586 
L 278.606709 144.107334 
L 279.011423 130.710994 
L 279.213781 129.083402 
L 279.416138 133.402782 
L 280.023209 175.657591 
L 280.630281 247.91853 
L 281.034995 270.996959 
L 281.237353 275.942337 
L 281.43971 274.377344 
L 281.642067 268.409504 
L 282.249139 226.112962 
L 282.85621 192.03785 
L 283.867996 148.69798 
L 284.070354 147.487718 
L 284.272711 155.750881 
L 285.284497 239.905767 
L 285.689211 272.499352 
L 286.093926 287.439818 
L 286.296283 289.756008 
L 286.49864 287.919749 
L 286.700997 284.93583 
L 287.105712 253.510772 
L 287.712783 201.281742 
L 288.522212 157.274141 
L 288.724569 150.054307 
L 288.926927 148.092849 
L 289.129284 151.723632 
L 289.736355 185.986544 
L 290.545784 256.995489 
L 290.950499 272.478486 
L 291.152856 275.295473 
L 291.355213 275.378939 
L 291.55757 273.876546 
L 291.759927 261.231403 
L 292.771714 161.238789 
L 293.176428 138.95329 
L 293.581142 127.560142 
L 293.7835 125.80735 
L 293.985857 129.375534 
L 294.592928 155.250083 
L 295.402357 239.655368 
L 295.807072 254.5541 
L 296.009429 254.387168 
L 296.414143 233.812728 
L 297.830644 96.844548 
L 298.235358 83.343875 
L 298.437715 80.714687 
L 298.640073 80.985953 
L 298.84243 83.07261 
L 299.044787 91.23144 
L 299.449501 118.608382 
L 300.056573 198.798619 
L 300.461287 224.42277 
L 300.663645 230.536676 
L 300.866002 231.267006 
L 301.068359 224.339304 
L 301.473073 193.832375 
L 302.484859 86.932926 
L 302.687217 75.435444 
L 302.889574 75.539777 
L 303.091931 83.761207 
L 303.496646 92.546034 
L 303.90136 115.144531 
L 304.306074 143.52307 
L 304.913146 213.822551 
L 305.31786 239.571902 
L 305.520218 245.226743 
L 305.722575 243.411351 
L 305.924932 236.17065 
L 306.532004 195.585167 
L 307.54379 124.471889 
L 307.746147 114.101203 
L 307.948504 113.20394 
L 308.757933 145.985325 
L 309.162647 172.465005 
L 309.769719 236.462782 
L 310.174433 256.661624 
L 310.376791 261.127071 
L 310.579148 260.542807 
L 310.983862 236.754914 
L 312.198005 131.065726 
L 312.60272 119.255246 
L 312.805077 114.810666 
L 313.007434 115.374064 
L 313.209791 119.130047 
L 313.816863 147.153853 
L 314.01922 161.05099 
L 314.626292 224.631436 
L 315.031006 245.456275 
L 315.233364 250.109521 
L 315.435721 249.44179 
L 315.840435 230.369743 
L 316.24515 211.360296 
L 316.649864 199.153351 
L 317.054578 183.607755 
L 317.66165 175.970589 
L 317.864007 175.511525 
L 318.066364 174.593396 
L 318.268722 179.350974 
L 318.875793 201.845139 
L 319.685222 261.37747 
L 320.089937 274.356477 
L 320.292294 276.025803 
L 320.697008 267.971306 
L 321.101723 241.324694 
L 322.315866 162.156919 
L 322.72058 151.744499 
L 322.922937 149.386576 
L 323.125295 153.580757 
L 323.732366 181.646297 
L 324.541795 251.278049 
L 324.94651 265.801183 
L 325.148867 268.743369 
L 325.351224 268.805969 
L 325.553581 266.510646 
L 325.755938 253.990703 
L 326.970082 139.787953 
L 327.172439 133.361049 
L 327.374796 131.754323 
L 327.77951 126.099482 
L 327.981868 131.170059 
L 328.184225 140.100952 
L 328.791296 192.580381 
L 329.196011 237.005313 
L 329.398368 252.48831 
L 329.803083 262.754663 
L 330.00544 261.794801 
L 330.207797 256.098227 
L 330.814869 206.811383 
L 331.42194 167.978692 
L 331.826655 144.941997 
L 332.029012 141.99981 
L 332.231369 142.020676 
L 332.433726 142.208476 
L 332.636083 144.336866 
L 332.838441 148.948378 
L 333.243155 172.235473 
L 333.445512 181.395898 
L 334.052584 248.168929 
L 334.457298 270.308362 
L 334.659655 275.817137 
L 334.862013 273.375749 
L 335.266727 253.21864 
L 335.671442 228.470885 
L 336.48087 187.71847 
L 336.683228 182.564426 
L 336.885585 181.437631 
L 337.087942 175.156793 
L 337.290299 173.278802 
L 337.695014 179.851772 
L 338.099728 194.541839 
L 338.302085 200.509678 
L 339.111514 267.387042 
L 339.313871 273.688747 
L 339.516228 275.963203 
L 339.718586 271.831622 
L 340.1233 248.10633 
L 340.932729 202.930201 
L 342.349229 140.184418 
L 342.551587 140.100952 
L 343.158658 165.182572 
L 343.76573 228.950816 
L 344.170444 247.2508 
L 344.372801 252.091845 
L 344.575159 249.921721 
L 344.777516 242.889687 
L 345.18223 211.506362 
L 346.194016 127.539275 
L 346.598731 112.53621 
L 347.003445 105.817174 
L 347.205802 104.961644 
L 347.40816 108.195963 
L 347.610517 116.166993 
L 348.015231 142.688407 
L 348.82466 235.273388 
L 349.229374 252.655242 
L 349.431732 251.883179 
L 349.634089 245.998806 
L 349.836446 234.689124 
L 351.050589 128.582604 
L 351.455304 109.927888 
L 351.860018 100.934396 
L 352.062375 100.016267 
L 352.264733 103.70965 
L 352.46709 114.977599 
L 353.276519 199.40375 
L 353.681233 237.944309 
L 354.085947 258.456149 
L 354.288305 263.818858 
L 354.490662 264.403122 
L 354.693019 262.128666 
L 355.097733 219.414793 
L 355.704805 144.399466 
L 356.109519 119.296979 
L 356.716591 100.809196 
L 356.918948 99.703268 
L 357.121306 104.586046 
L 357.52602 130.627528 
L 357.728377 143.52307 
L 358.740163 240.55263 
L 359.144878 253.740304 
L 359.347235 255.639162 
L 359.549592 255.305297 
L 359.751949 241.074295 
L 360.763735 118.483183 
L 361.16845 99.098137 
L 361.573164 87.809322 
L 361.775521 85.472266 
L 361.977879 88.810917 
L 362.180236 95.926418 
L 362.58495 122.134833 
L 363.394379 212.341025 
L 363.799093 230.286277 
L 364.001451 231.12094 
L 364.203808 225.132234 
L 364.406165 214.907613 
L 365.013237 144.169933 
L 365.620308 78.523697 
L 366.025023 62.080838 
L 366.429737 55.8 
L 366.632094 56.300798 
L 366.834451 58.992586 
L 367.036809 67.860879 
L 367.441523 97.554011 
L 368.048595 178.558044 
L 368.453309 209.607504 
L 368.655666 218.287998 
L 368.858024 220.70852 
L 369.060381 216.743872 
L 369.262738 206.70705 
L 369.86981 142.06241 
L 370.476881 82.863944 
L 370.881596 65.941154 
L 371.083953 65.48209 
L 371.28631 66.21242 
L 371.488667 70.218801 
L 371.691024 76.562239 
L 372.298096 116.25046 
L 373.107525 202.805001 
L 373.512239 225.445232 
L 373.714597 229.889812 
L 374.119311 229.180349 
L 374.321668 216.201341 
L 375.333454 110.449553 
L 375.738169 96.94888 
L 375.940526 94.194493 
L 376.142883 93.067698 
L 376.34524 98.346941 
L 376.749955 125.07702 
L 377.559383 185.089281 
L 377.964098 220.395522 
L 378.368812 234.459591 
L 378.57117 234.689124 
L 378.773527 228.637818 
L 378.975884 217.202936 
L 380.392384 98.326074 
L 380.797099 88.205787 
L 381.201813 80.464288 
L 381.40417 84.303738 
L 382.011242 122.051367 
L 382.820671 206.540118 
L 383.225385 222.96211 
L 383.427743 223.62984 
L 383.6301 218.183665 
L 384.034814 195.501701 
L 385.0466 120.611573 
L 385.451315 103.58445 
L 385.653672 103.104519 
L 385.856029 106.964835 
L 386.058386 114.748067 
L 387.070172 186.13261 
L 387.474887 227.051958 
L 387.879601 249.37919 
L 388.284316 258.706548 
L 388.68903 261.273137 
L 388.891387 255.40963 
L 389.700816 210.984698 
L 390.307888 199.549816 
L 390.914959 186.549942 
L 391.117316 191.432719 
L 391.926745 231.809537 
L 392.533817 276.902199 
L 392.938531 289.526475 
L 393.140888 291.425334 
L 393.343246 290.966269 
L 393.545603 291.4462 
L 393.74796 282.306641 
L 394.355032 240.302232 
L 395.569175 182.668759 
L 395.771532 176.533987 
L 395.973889 177.765115 
L 396.176247 186.25781 
L 396.783318 229.159482 
L 397.188033 268.472104 
L 397.592747 286.667755 
L 397.795104 289.505609 
L 397.997461 286.918154 
L 398.402176 268.409504 
L 400.628105 138.160361 
L 400.830462 141.060814 
L 401.03282 151.222835 
L 401.639891 209.440571 
L 402.044606 254.700166 
L 402.44932 275.441539 
L 402.651677 279.531387 
L 402.854034 277.841195 
L 403.258749 259.269946 
L 403.663463 230.26541 
L 404.877607 122.0305 
L 405.282321 101.080462 
L 405.484678 96.781948 
L 405.687035 97.887876 
L 405.889393 108.613294 
L 406.294107 146.757388 
L 406.901179 225.779097 
L 407.305893 250.339053 
L 407.50825 256.056494 
L 407.710607 255.513963 
L 408.115322 233.833594 
L 409.73418 98.806005 
L 409.936537 93.777161 
L 410.138894 93.631095 
L 410.341251 98.326074 
L 410.948323 135.176441 
L 411.15068 151.410634 
L 411.757752 223.462908 
L 412.162466 248.022863 
L 412.364823 254.637567 
L 412.56718 256.452958 
L 412.971895 238.027775 
L 414.388395 137.909962 
L 414.79311 124.096291 
L 415.197824 117.293788 
L 415.400181 124.200624 
L 416.20961 188.031468 
L 416.614325 234.188326 
L 417.019039 257.725819 
L 417.221396 262.066066 
L 417.423753 261.502669 
L 417.828468 245.018077 
L 419.244968 145.296728 
L 419.649683 131.420458 
L 419.85204 127.518409 
L 420.054397 128.979069 
L 420.256754 137.805629 
L 421.066183 204.349128 
L 421.673255 260.480207 
L 422.077969 276.860466 
L 422.280326 279.385321 
L 422.482684 278.717591 
L 422.685041 278.550658 
L 423.089755 247.229934 
L 423.899184 176.909585 
L 424.708613 136.8875 
L 424.91097 133.653181 
L 425.113327 137.722163 
L 425.518042 164.306176 
L 425.720399 176.304455 
L 426.529828 252.196178 
L 426.934542 271.080426 
L 427.136899 275.629338 
L 427.339257 276.443135 
L 427.541614 276.672667 
L 427.743971 267.929573 
L 428.148685 226.905892 
L 428.755757 163.993177 
L 429.160471 137.930828 
L 429.565186 129.542466 
L 429.9699 133.527982 
L 430.374615 150.012574 
L 430.576972 161.84392 
L 431.386401 239.071104 
L 431.791115 251.507581 
L 431.993472 249.44179 
L 432.398187 228.80475 
L 433.207616 162.657716 
L 434.017044 91.147973 
L 434.219402 86.181729 
L 435.02883 114.038603 
L 435.433545 139.433221 
L 436.040617 211.777627 
L 436.445331 234.668257 
L 436.647688 239.8849 
L 436.850045 239.196303 
L 437.25476 218.267131 
L 437.659474 182.793959 
L 438.468903 108.15423 
L 438.67126 98.263474 
L 438.873617 99.244203 
L 439.075975 106.464037 
L 439.278332 106.004973 
L 439.480689 108.279429 
L 439.885403 127.121944 
L 440.290118 152.266163 
L 440.897189 226.843292 
L 441.301904 249.50439 
L 441.504261 255.013165 
L 441.706618 255.555696 
L 442.111333 240.594364 
L 442.920762 187.760203 
L 443.527833 152.34963 
L 444.134905 129.250334 
L 444.337262 126.621146 
L 444.539619 133.131517 
L 445.146691 178.89191 
L 445.753762 249.149658 
L 446.158477 270.683961 
L 446.360834 275.712805 
L 446.563191 273.688747 
L 446.967906 254.491501 
L 448.586763 143.001405 
L 448.991478 129.605066 
L 449.193835 127.247143 
L 449.396192 134.007913 
L 450.003264 175.010727 
L 450.812693 256.286026 
L 451.217407 269.786698 
L 451.419764 269.911898 
L 451.824479 252.467443 
L 452.43155 201.281742 
L 453.038622 158.734801 
L 453.443336 141.436412 
L 453.848051 133.444515 
L 454.050408 136.866633 
L 454.252765 147.007787 
L 454.65748 175.84539 
L 454.859837 184.421551 
L 455.669266 250.130387 
L 456.07398 263.881458 
L 456.276337 265.425585 
L 456.478694 263.401527 
L 456.681052 260.250675 
L 456.883409 252.133578 
L 457.288123 224.714902 
L 457.692838 213.593019 
L 457.895195 214.302483 
L 458.299909 220.145123 
L 458.502267 219.999057 
L 458.906981 216.117874 
L 459.109338 216.660405 
L 459.514053 220.875453 
L 459.71641 225.236566 
L 460.728196 283.809035 
L 461.13291 288.295348 
L 461.537625 284.93583 
L 461.739982 275.879737 
L 462.144696 240.865629 
L 463.561197 170.67048 
L 463.763554 163.30458 
L 463.965911 164.493975 
L 464.572983 184.254619 
L 465.382412 252.217044 
L 465.584769 259.228213 
L 465.787126 261.9826 
L 465.989483 259.520345 
L 467.608341 165.62077 
L 468.620127 144.1282 
L 468.822484 147.299919 
L 469.429556 173.925665 
L 470.036627 231.475672 
L 470.441342 249.525256 
L 470.643699 252.196178 
L 470.846056 249.587856 
L 471.857842 197.922223 
L 472.869628 167.227496 
L 473.071985 167.728293 
L 473.274343 165.912902 
L 473.4767 167.185763 
L 473.679057 171.025212 
L 473.881414 177.702515 
L 474.083772 178.871043 
L 474.286129 186.654274 
L 474.8932 239.530168 
L 475.297915 256.01476 
L 475.500272 257.704953 
L 475.702629 255.639162 
L 476.107344 230.912274 
L 476.512058 208.585042 
L 477.321487 176.63832 
L 477.726201 156.189079 
L 477.928558 152.579162 
L 478.333273 157.33674 
L 478.53563 161.864787 
L 479.142702 187.155072 
L 479.952131 255.910428 
L 480.356845 265.905516 
L 480.559202 265.488184 
L 480.963917 243.077486 
L 482.785131 112.828342 
L 482.987489 106.839636 
L 483.189846 104.168714 
L 483.392203 109.886155 
L 483.999275 150.325572 
L 484.606346 222.461312 
L 485.011061 246.019672 
L 485.213418 250.485119 
L 485.415775 251.444981 
L 485.82049 231.392205 
L 486.225204 199.737615 
L 487.23699 108.467228 
L 487.439347 105.337242 
L 487.844062 111.993679 
L 488.248776 130.877927 
L 489.260562 209.524038 
L 489.665277 242.13849 
L 490.069991 257.454554 
L 490.272348 259.833343 
L 490.474705 258.685682 
L 490.677063 256.891156 
L 490.87942 247.021268 
L 491.891206 166.1633 
L 492.29592 148.197182 
L 492.498277 140.706082 
L 492.700635 138.661158 
L 492.902992 140.309617 
L 493.105349 145.192395 
L 493.712421 179.184042 
L 494.52185 252.196178 
L 495.128921 270.725694 
L 495.331278 270.87176 
L 495.533636 270.245763 
L 495.735993 262.587731 
L 496.950136 169.794084 
L 497.557208 145.088063 
L 497.759565 141.686811 
L 497.961922 144.941997 
L 498.568994 176.888719 
L 499.378422 251.737113 
L 499.58078 258.664815 
L 499.783137 261.18967 
L 499.985494 257.830152 
L 500.187851 249.191391 
L 500.794923 211.756761 
L 500.99728 206.581851 
L 501.401995 193.310711 
L 501.806709 181.896696 
L 502.009066 181.437631 
L 502.211423 183.524289 
L 502.413781 184.171152 
L 502.616138 182.48096 
L 503.020852 192.329982 
L 503.223209 192.893379 
L 503.425567 200.509678 
L 504.032638 251.904046 
L 504.437353 265.154319 
L 504.63971 266.802778 
L 504.842067 264.403122 
L 505.246782 239.697101 
L 505.651496 215.554477 
L 507.270354 141.394679 
L 507.472711 138.243827 
L 507.675068 141.686811 
L 508.28214 170.107083 
L 508.889211 228.92995 
L 509.293926 246.290938 
L 509.496283 249.859122 
L 509.69864 248.001997 
L 510.103354 224.130638 
L 511.722212 116.292193 
L 512.126927 98.284341 
L 512.329284 99.891067 
L 512.936355 134.738243 
L 513.34107 174.217797 
L 513.745784 218.287998 
L 514.150499 241.324694 
L 514.352856 246.979535 
L 514.555213 247.480332 
L 514.75757 238.465973 
L 516.174071 140.372217 
L 516.376428 139.266289 
L 516.781142 148.718846 
L 516.9835 145.943592 
L 517.185857 146.486123 
L 517.590571 164.431375 
L 517.792928 168.729889 
L 517.995286 179.580506 
L 518.4 219.790391 
L 518.4 219.790391 
" clip-path="url(#pcdd423488a)" style="fill: none; stroke: #1f77b4; stroke-width: 1.5; stroke-linecap: square"/>
   </g>
   <g id="line2d_14">
    <path d="M 72 224.18755 
L 72.202357 224.18755 
L 72.809429 230.550831 
L 73.011786 227.923374 
L 73.214143 220.153153 
L 73.618858 199.322404 
L 73.821215 195.009619 
L 74.428286 166.380628 
L 74.630644 163.112585 
L 74.833001 164.451418 
L 75.035358 164.806786 
L 75.440073 154.711264 
L 75.64243 155.400627 
L 75.844787 162.755392 
L 76.451859 206.517779 
L 76.654216 221.259844 
L 77.261287 238.041402 
L 77.463645 240.319173 
L 77.666002 237.486036 
L 78.070716 225.524182 
L 78.273073 214.897829 
L 78.677788 209.694472 
L 79.082502 190.061405 
L 79.284859 189.897609 
L 79.891931 151.339208 
L 80.094288 151.536941 
L 81.308432 228.432418 
L 81.915503 258.926336 
L 82.11786 261.725319 
L 82.320218 261.335229 
L 82.927289 248.74053 
L 83.129646 244.875544 
L 83.534361 230.278674 
L 84.141432 222.110182 
L 84.34379 222.834986 
L 84.546147 220.346474 
L 84.748504 223.501017 
L 84.950861 229.356275 
L 85.153218 228.38932 
L 85.557933 233.941928 
L 85.962647 243.733911 
L 86.569719 263.00286 
L 86.772076 266.106275 
L 86.974433 265.795263 
L 87.379148 264.59822 
L 88.593291 232.13368 
L 88.998005 228.406934 
L 89.200363 228.038352 
L 89.605077 224.927612 
L 89.807434 225.008441 
L 90.212149 221.264595 
L 90.414506 224.691078 
L 90.616863 225.383595 
L 90.81922 230.710876 
L 91.426292 261.793742 
L 91.628649 267.385831 
L 91.831006 267.18692 
L 92.033364 264.698518 
L 92.235721 260.712615 
L 93.247507 217.05832 
L 93.449864 215.666816 
L 93.652221 216.375162 
L 93.854578 217.940415 
L 94.056936 217.82849 
L 94.259293 213.022832 
L 94.664007 217.899586 
L 95.068722 214.858862 
L 95.271079 217.865467 
L 95.473436 217.574311 
L 95.675793 224.947846 
L 96.080508 247.271468 
L 96.485222 263.064488 
L 96.687579 264.183385 
L 96.889937 261.927989 
L 97.294651 244.336514 
L 97.699365 224.652053 
L 97.901723 220.16698 
L 98.306437 218.785181 
L 98.508794 215.897122 
L 98.711151 220.390074 
L 99.115866 216.823738 
L 99.318223 213.224457 
L 99.52058 216.912151 
L 99.722937 215.317668 
L 100.330009 222.591462 
L 101.341795 268.306971 
L 101.544152 266.900057 
L 101.74651 264.034553 
L 102.151224 249.421159 
L 102.555938 230.101826 
L 102.960653 223.029388 
L 103.16301 223.752486 
L 103.365367 223.429624 
L 103.567724 221.459282 
L 103.770082 220.914847 
L 104.174796 212.975999 
L 104.377153 215.427707 
L 104.57951 214.707095 
L 104.781868 215.259632 
L 104.984225 219.515064 
L 105.186582 221.021164 
L 106.198368 267.526094 
L 106.400725 267.092161 
L 106.603083 263.755024 
L 107.007797 249.867641 
L 107.614869 226.375339 
L 107.817226 222.792782 
L 108.019583 221.892141 
L 108.22194 218.632618 
L 108.626655 209.063288 
L 108.829012 203.547794 
L 109.031369 206.751585 
L 109.233726 207.562902 
L 109.436083 207.509017 
L 109.638441 208.98629 
L 110.245512 230.625333 
L 110.852584 258.227459 
L 111.054941 264.08957 
L 111.257298 265.347798 
L 111.459655 262.604726 
L 111.86437 250.492993 
L 112.471442 226.52384 
L 112.876156 212.747049 
L 113.078513 200.417119 
L 113.483228 193.097343 
L 113.685585 191.744774 
L 113.887942 194.3892 
L 114.090299 187.282671 
L 114.292656 184.867471 
L 114.495014 189.793628 
L 115.102085 223.741387 
L 115.911514 260.347137 
L 116.113871 261.3457 
L 116.316228 260.312003 
L 116.9233 248.450181 
L 117.530372 224.659186 
L 118.137443 187.633938 
L 118.744515 152.673522 
L 118.946872 154.79971 
L 119.351587 172.910844 
L 120.768087 252.782876 
L 120.970444 256.533264 
L 121.172801 257.329417 
L 121.375159 256.815633 
L 121.779873 250.370054 
L 123.196374 200.956865 
L 123.398731 187.189481 
L 123.601088 186.903632 
L 124.410517 217.949171 
L 124.612874 220.48447 
L 124.815231 227.226756 
L 125.219946 249.943474 
L 125.62466 264.046919 
L 125.827017 264.871094 
L 126.029374 264.668886 
L 126.231732 262.514214 
L 126.434089 256.004275 
L 127.243518 217.629166 
L 127.445875 213.386654 
L 128.052947 186.492964 
L 128.255304 174.116513 
L 128.660018 172.632164 
L 128.862375 166.048858 
L 129.064733 170.576161 
L 130.076519 253.22335 
L 130.481233 263.774875 
L 130.68359 264.887891 
L 131.290662 245.584952 
L 131.897733 217.262844 
L 132.100091 212.840775 
L 132.504805 185.605463 
L 132.909519 156.566391 
L 133.111877 147.486323 
L 133.314234 145.277368 
L 133.516591 154.113681 
L 133.718948 156.019292 
L 133.921306 164.686909 
L 135.135449 247.721836 
L 135.337806 255.452328 
L 135.540163 255.662902 
L 135.74252 255.004444 
L 136.147235 245.171439 
L 137.159021 194.103638 
L 137.361378 195.016509 
L 137.563735 197.088098 
L 137.766092 184.869547 
L 138.170807 193.566383 
L 138.575521 206.357665 
L 138.777879 205.773103 
L 138.980236 215.21781 
L 139.182593 217.725212 
L 140.194379 264.417576 
L 140.396736 263.689016 
L 140.599093 263.672276 
L 141.003808 251.189563 
L 141.408522 229.608696 
L 142.217951 207.029967 
L 142.420308 204.9204 
L 142.622665 204.442008 
L 142.825023 206.619204 
L 143.02738 214.956241 
L 143.432094 216.594223 
L 143.634451 218.395071 
L 144.039166 229.865577 
L 145.050952 271.557779 
L 145.253309 270.914718 
L 145.658024 260.410996 
L 146.467452 220.998449 
L 147.074524 207.837964 
L 147.276881 211.057406 
L 147.479238 208.853839 
L 147.681596 208.533397 
L 148.08631 221.015646 
L 148.288667 220.19002 
L 148.693382 227.496435 
L 148.895739 233.18893 
L 149.300453 251.872278 
L 149.907525 268.389661 
L 150.312239 266.022 
L 151.526383 230.233506 
L 151.931097 222.942555 
L 152.335811 220.708892 
L 152.538169 224.727722 
L 152.942883 224.879033 
L 153.14524 226.343002 
L 153.752312 235.653005 
L 153.954669 238.288118 
L 154.966455 264.570971 
L 155.37117 261.875589 
L 155.775884 251.493597 
L 155.978241 245.147778 
L 157.394742 172.759534 
L 157.597099 172.864307 
L 157.799456 172.399228 
L 158.001813 170.668029 
L 158.406528 180.213228 
L 158.811242 204.69794 
L 159.620671 251.679046 
L 159.823028 254.117589 
L 160.025385 254.142797 
L 160.227743 251.979631 
L 160.4301 245.641503 
L 161.441886 197.099418 
L 161.644243 194.895328 
L 161.8466 195.44155 
L 162.048957 187.047108 
L 162.251315 172.357179 
L 162.453672 171.392457 
L 163.465458 218.216051 
L 163.667815 223.30822 
L 164.072529 249.273842 
L 164.477244 263.958391 
L 164.679601 265.863084 
L 164.881958 263.132429 
L 165.084316 258.491618 
L 165.48903 239.229984 
L 165.893744 220.260323 
L 166.500816 209.765156 
L 166.703173 203.255092 
L 167.107888 176.463746 
L 167.310245 174.940707 
L 167.512602 176.946522 
L 167.714959 181.193972 
L 167.917316 188.487951 
L 168.322031 214.680907 
L 169.13146 261.505377 
L 169.333817 265.601955 
L 169.536174 265.586882 
L 169.738531 262.299843 
L 170.143246 249.086777 
L 170.750317 218.275044 
L 171.155032 186.065174 
L 171.357389 175.670009 
L 171.559746 174.436038 
L 171.964461 167.942433 
L 172.166818 168.411264 
L 172.369175 170.0958 
L 172.571532 170.704526 
L 172.773889 174.860932 
L 173.988033 255.894918 
L 174.19039 262.400649 
L 174.392747 264.288285 
L 174.797461 256.338618 
L 175.202176 239.476832 
L 175.60689 220.01101 
L 175.809248 216.104515 
L 176.011605 208.126675 
L 176.821034 162.02943 
L 177.023391 160.212949 
L 177.225748 163.982542 
L 178.035177 212.148468 
L 178.237534 222.420186 
L 178.642248 252.717984 
L 179.046963 267.312883 
L 179.24932 266.158282 
L 179.451677 263.67104 
L 179.654034 258.739785 
L 180.66582 216.615821 
L 181.070535 192.351387 
L 181.272892 186.395008 
L 181.677607 161.467 
L 181.879964 159.123595 
L 182.082321 164.538045 
L 182.284678 163.596179 
L 182.487035 170.459205 
L 183.498821 237.550608 
L 183.903536 254.354087 
L 184.105893 257.487579 
L 184.712965 249.404337 
L 185.117679 236.362065 
L 185.320036 225.896187 
L 185.927108 170.899026 
L 186.331822 158.666432 
L 186.736537 145.188681 
L 186.938894 155.626832 
L 187.343608 189.809391 
L 187.748323 204.281694 
L 187.95068 206.299274 
L 188.355394 236.225948 
L 188.760109 250.877715 
L 188.962466 253.943296 
L 189.164823 254.475037 
L 189.36718 254.295375 
L 189.569538 251.859861 
L 189.771895 246.697013 
L 190.783681 188.734898 
L 191.390752 157.761507 
L 191.59311 158.325465 
L 192.402539 196.253123 
L 193.211967 242.149101 
L 193.616682 257.022347 
L 193.819039 260.715328 
L 194.021396 260.477163 
L 194.223753 258.23639 
L 194.830825 236.832576 
L 195.640254 197.607008 
L 195.842611 194.371736 
L 196.044968 194.483396 
L 196.247325 191.198513 
L 196.449683 196.397438 
L 196.854397 215.813106 
L 197.056754 219.149954 
L 197.259112 220.19002 
L 197.461469 224.91502 
L 197.866183 242.86744 
L 198.473255 266.65002 
L 198.675612 267.563395 
L 198.877969 266.116778 
L 199.080326 261.220891 
L 199.485041 240.663021 
L 200.092112 203.393104 
L 200.29447 200.484084 
L 200.496827 199.216455 
L 200.699184 199.59796 
L 200.901541 191.009109 
L 201.103898 177.517516 
L 201.306256 176.93415 
L 201.508613 178.47152 
L 201.71097 176.022797 
L 201.913327 178.792705 
L 202.115684 187.211209 
L 202.925113 244.06956 
L 203.329828 260.928957 
L 203.532185 262.140401 
L 203.734542 259.086241 
L 204.139257 244.468632 
L 204.746328 206.066381 
L 204.948685 201.212872 
L 205.3534 183.063515 
L 205.555757 185.031496 
L 206.162829 159.868229 
L 206.7699 190.795784 
L 208.186401 259.409233 
L 208.388758 262.384347 
L 208.591115 259.3625 
L 208.793472 254.503616 
L 209.198187 234.173881 
L 209.602901 206.374016 
L 210.007616 187.734978 
L 210.209973 177.778316 
L 210.41233 177.87632 
L 211.019402 141.441589 
L 211.221759 139.297914 
L 211.424116 143.634039 
L 211.626473 152.297903 
L 212.435902 227.429464 
L 212.840617 250.507996 
L 213.042974 257.915762 
L 213.245331 258.130139 
L 213.447688 255.651011 
L 213.852403 242.567552 
L 214.459474 205.271157 
L 215.875975 113.765742 
L 216.483046 138.654751 
L 217.090118 184.490312 
L 217.494832 228.413618 
L 218.101904 251.695323 
L 218.506618 248.507822 
L 219.11369 232.599146 
L 219.518404 205.089196 
L 219.923119 171.696522 
L 220.327833 149.315386 
L 220.732548 136.068048 
L 220.934905 150.05706 
L 221.541976 216.19244 
L 221.744334 218.541507 
L 222.553762 251.466114 
L 222.75612 256.74849 
L 222.958477 257.813581 
L 223.160834 257.981688 
L 223.363191 257.99638 
L 223.565549 254.801616 
L 223.970263 240.807349 
L 224.577335 215.535122 
L 224.779692 212.448323 
L 224.982049 214.201614 
L 225.386763 207.034988 
L 225.791478 222.830621 
L 225.993835 225.373184 
L 226.196192 225.220201 
L 226.600907 236.089102 
L 227.612693 272.494682 
L 227.81505 271.679907 
L 228.017407 269.889058 
L 228.219764 265.156841 
L 229.23155 225.921604 
L 229.433908 223.747436 
L 229.636265 223.584238 
L 229.838622 221.549331 
L 230.040979 214.127925 
L 230.243336 200.902678 
L 230.445694 199.480758 
L 230.648051 205.062958 
L 231.052765 195.565352 
L 231.255122 200.117665 
L 232.266908 259.491169 
L 232.671623 269.259453 
L 233.076337 258.678746 
L 234.088123 217.61741 
L 234.290481 211.474697 
L 234.492838 199.416103 
L 234.897552 196.030325 
L 235.302267 183.114117 
L 235.909338 198.456953 
L 236.314053 217.745566 
L 236.51641 222.997021 
L 237.325839 262.392878 
L 237.528196 263.716619 
L 237.730553 261.763001 
L 238.135267 251.723915 
L 239.349411 204.520382 
L 239.754125 197.247583 
L 239.956482 190.657265 
L 240.15884 194.181437 
L 240.361197 204.587717 
L 240.765911 208.110166 
L 240.968268 218.576345 
L 241.170626 222.567101 
L 241.980054 262.093186 
L 242.182412 267.562596 
L 242.384769 268.750652 
L 242.789483 260.729627 
L 244.813055 189.742065 
L 245.21777 192.55399 
L 245.420127 191.479386 
L 245.622484 195.590913 
L 246.027199 216.44815 
L 246.229556 224.618529 
L 246.836627 257.399437 
L 247.038985 264.186693 
L 247.241342 266.822482 
L 247.646056 258.748601 
L 247.848413 252.973979 
L 248.657842 213.160035 
L 249.062557 184.640285 
L 249.264914 179.342757 
L 249.871985 148.592968 
L 250.479057 170.21453 
L 251.288486 223.320109 
L 251.895558 251.674431 
L 252.097915 254.83147 
L 252.300272 253.742604 
L 252.704986 249.241053 
L 252.907344 244.222417 
L 253.312058 225.823321 
L 254.121487 165.565606 
L 254.526201 148.570295 
L 254.728558 139.635839 
L 254.930916 144.826493 
L 255.537987 185.544221 
L 255.942702 205.948217 
L 256.347416 236.957018 
L 256.752131 253.937091 
L 256.954488 257.970824 
L 257.359202 256.074105 
L 257.561559 252.808648 
L 257.763917 247.719694 
L 258.168631 229.245834 
L 258.573345 207.077836 
L 258.97806 187.61851 
L 259.180417 179.337737 
L 259.382774 162.945607 
L 259.585131 161.140142 
L 259.989846 174.4813 
L 261.001632 232.152147 
L 261.406346 254.413871 
L 261.811061 263.17129 
L 262.013418 262.073924 
L 262.215775 259.188568 
L 262.418132 252.358179 
L 263.227561 213.767189 
L 263.429918 215.134556 
L 264.03699 224.494249 
L 264.239347 222.35148 
L 264.441704 225.856263 
L 264.644062 226.196476 
L 264.846419 226.262401 
L 265.048776 225.058562 
L 265.251133 224.673394 
L 265.45349 231.417053 
L 266.060562 260.388514 
L 266.465277 269.592726 
L 266.667634 270.073074 
L 266.869991 267.815625 
L 267.274705 253.268727 
L 267.67942 236.649454 
L 268.084134 227.295198 
L 268.286491 225.117604 
L 268.488849 219.67718 
L 268.691206 218.05196 
L 268.893563 215.074194 
L 269.09592 214.04161 
L 269.298277 214.799487 
L 269.905349 219.781939 
L 270.512421 233.971002 
L 271.119492 260.575199 
L 271.32185 265.673946 
L 271.524207 265.858133 
L 271.726564 262.893212 
L 271.928921 257.978487 
L 272.940707 214.583652 
L 273.345422 190.434746 
L 273.547779 189.301052 
L 273.952493 172.207777 
L 274.15485 160.190384 
L 274.559565 151.95684 
L 274.761922 154.105783 
L 276.178422 244.92009 
L 276.38078 247.74267 
L 276.583137 247.188568 
L 276.785494 244.316859 
L 276.987851 239.120108 
L 277.190209 230.616057 
L 277.79728 189.28641 
L 278.201995 162.698936 
L 278.404352 166.744433 
L 278.809066 138.472738 
L 279.011423 130.117288 
L 279.213781 135.258489 
L 280.225567 203.914858 
L 280.630281 237.326596 
L 281.034995 256.680017 
L 281.237353 259.254266 
L 281.43971 258.055524 
L 281.844424 248.473233 
L 282.249139 228.588367 
L 282.85621 189.750726 
L 283.058568 180.526105 
L 283.665639 145.225311 
L 283.867996 140.67872 
L 284.070354 140.680171 
L 285.284497 239.457183 
L 285.689211 259.575178 
L 285.891568 265.164954 
L 286.093926 266.250955 
L 286.700997 253.618409 
L 286.903354 249.138733 
L 287.712783 211.344298 
L 288.117498 185.078486 
L 288.522212 160.195829 
L 288.724569 158.399643 
L 288.926927 164.423174 
L 289.129284 175.515827 
L 289.331641 179.846957 
L 290.14107 226.639228 
L 290.545784 249.050559 
L 290.950499 260.199725 
L 291.152856 259.060482 
L 291.355213 257.016078 
L 291.55757 253.754647 
L 291.962285 239.60656 
L 292.164642 228.834804 
L 292.771714 181.056644 
L 293.581142 147.51984 
L 293.7835 150.134547 
L 294.188214 162.842037 
L 294.390571 168.504825 
L 294.997643 200.622858 
L 295.2 227.290997 
L 295.807072 251.499739 
L 296.211786 250.927059 
L 296.6165 235.628757 
L 297.425929 155.13245 
L 297.830644 143.128007 
L 298.033001 131.85954 
L 298.235358 113.913813 
L 298.437715 108.244509 
L 299.044787 126.67994 
L 299.247144 133.013444 
L 299.854216 185.260816 
L 300.25893 229.238571 
L 300.663645 242.823997 
L 300.866002 242.490211 
L 301.068359 239.656836 
L 301.270716 232.86993 
L 301.675431 198.341191 
L 302.687217 112.78144 
L 303.091931 91.484086 
L 303.294288 94.049626 
L 303.699003 124.526757 
L 304.103717 159.630381 
L 305.115503 240.586583 
L 305.31786 248.738463 
L 305.520218 251.70246 
L 305.722575 250.954821 
L 305.924932 247.546827 
L 306.329646 231.562125 
L 306.734361 199.545448 
L 307.54379 158.047894 
L 308.150861 130.76542 
L 308.353218 129.939692 
L 308.555576 139.032126 
L 309.769719 245.96221 
L 310.174433 259.475095 
L 310.376791 259.307014 
L 310.579148 257.087569 
L 310.983862 243.718959 
L 311.186219 233.833338 
L 311.995648 168.228655 
L 312.198005 158.304612 
L 312.400363 155.495342 
L 312.60272 149.829423 
L 312.805077 137.648519 
L 313.007434 133.534016 
L 313.209791 137.430288 
L 314.01922 174.746277 
L 314.221578 193.140944 
L 314.423935 224.270269 
L 315.031006 251.881823 
L 315.233364 253.536188 
L 315.435721 251.902689 
L 315.638078 247.704311 
L 316.042792 227.795042 
L 316.447507 202.702787 
L 317.256936 184.869256 
L 317.459293 182.329966 
L 317.864007 168.967661 
L 318.066364 166.908572 
L 318.268722 170.04122 
L 319.685222 254.953636 
L 319.887579 260.352563 
L 320.089937 261.886992 
L 320.292294 260.022415 
L 320.494651 255.805376 
L 321.506437 219.677569 
L 322.518223 160.738662 
L 322.72058 159.623327 
L 323.125295 161.113317 
L 323.530009 184.622705 
L 323.934723 210.718611 
L 324.744152 256.604165 
L 324.94651 260.737424 
L 325.148867 258.352382 
L 325.351224 257.470623 
L 325.755938 247.403059 
L 326.160653 228.244488 
L 326.767724 171.488991 
L 327.172439 158.004438 
L 327.577153 134.526101 
L 327.981868 152.134588 
L 328.386582 169.790143 
L 329.600725 251.534695 
L 329.803083 256.455017 
L 330.00544 255.249074 
L 330.207797 252.518039 
L 330.410154 247.551574 
L 330.612511 237.105773 
L 330.814869 219.644803 
L 331.017226 192.310235 
L 331.42194 174.7623 
L 331.624297 168.263548 
L 331.826655 167.377017 
L 332.231369 149.967042 
L 332.433726 147.353305 
L 332.636083 152.004835 
L 332.838441 164.9494 
L 333.040798 166.879054 
L 333.647869 207.870824 
L 334.052584 242.110142 
L 334.457298 259.350527 
L 334.659655 261.5743 
L 335.06437 256.096403 
L 335.469084 237.650406 
L 335.873799 213.241274 
L 337.087942 171.118803 
L 337.290299 172.01618 
L 337.492656 174.668144 
L 337.897371 190.091018 
L 338.7068 238.698002 
L 339.111514 256.86101 
L 339.313871 264.145868 
L 339.516228 266.409827 
L 339.920943 256.179969 
L 340.730372 217.786659 
L 341.135086 192.457653 
L 341.337443 186.030943 
L 341.539801 185.808548 
L 341.742158 184.201227 
L 342.349229 158.689289 
L 342.551587 157.480646 
L 342.753944 160.295095 
L 343.158658 181.489749 
L 344.170444 250.843817 
L 344.372801 254.277095 
L 344.777516 247.418386 
L 345.18223 231.205226 
L 346.194016 141.93895 
L 346.396374 140.365198 
L 346.801088 109.400746 
L 347.003445 106.113694 
L 347.610517 138.272648 
L 348.015231 160.704453 
L 348.419946 194.855859 
L 348.622303 221.830847 
L 349.027017 243.297345 
L 349.229374 248.094217 
L 349.431732 248.611429 
L 349.634089 245.381303 
L 349.836446 240.100954 
L 350.038803 231.369986 
L 350.645875 175.95909 
L 351.860018 97.121806 
L 352.062375 101.076676 
L 352.264733 114.989482 
L 352.669447 149.90921 
L 353.074161 188.20226 
L 353.478876 234.219077 
L 353.88359 252.503841 
L 354.085947 256.230821 
L 354.288305 255.175967 
L 354.490662 252.942832 
L 354.895376 241.756764 
L 355.097733 231.993741 
L 356.109519 145.100223 
L 356.716591 112.230026 
L 356.918948 114.949683 
L 357.121306 127.687427 
L 357.52602 160.509408 
L 358.133092 200.031406 
L 358.335449 228.396064 
L 358.740163 247.795342 
L 358.94252 251.708538 
L 359.144878 252.345046 
L 359.347235 251.217934 
L 359.549592 248.143384 
L 359.954306 232.482513 
L 360.561378 176.696219 
L 361.573164 117.199622 
L 361.977879 123.897171 
L 362.989665 184.000227 
L 363.192022 220.917077 
L 363.596736 241.003833 
L 363.799093 245.927875 
L 364.001451 246.586256 
L 364.203808 245.400356 
L 364.406165 239.922687 
L 364.608522 227.591413 
L 365.215594 159.468017 
L 365.822665 130.571617 
L 366.22738 102.111203 
L 366.429737 99.515017 
L 367.036809 118.656279 
L 367.239166 127.975919 
L 367.64388 161.635373 
L 367.846238 181.533972 
L 368.250952 229.759404 
L 368.655666 242.268361 
L 368.858024 242.85527 
L 369.060381 241.293282 
L 369.262738 234.824653 
L 369.667452 204.088724 
L 371.083953 97.176557 
L 371.28631 93.369212 
L 371.488667 99.087151 
L 371.893382 126.470342 
L 372.298096 168.865011 
L 372.500453 184.913403 
L 372.905168 231.525559 
L 373.512239 249.578281 
L 373.714597 250.132035 
L 373.916954 247.882071 
L 374.119311 244.154615 
L 374.524025 227.910751 
L 375.535811 155.470191 
L 376.142883 123.515245 
L 376.34524 120.88037 
L 376.547597 127.518737 
L 377.761741 236.522584 
L 378.166455 251.637085 
L 378.368812 252.378962 
L 378.57117 252.676309 
L 378.975884 244.217986 
L 379.178241 234.423414 
L 380.190027 157.508453 
L 380.999456 128.011782 
L 381.40417 124.288275 
L 381.808885 131.690032 
L 382.213599 161.837542 
L 382.618314 227.581378 
L 383.023028 242.531769 
L 383.225385 246.749451 
L 383.6301 244.080938 
L 384.034814 221.415117 
L 384.237171 203.264324 
L 384.237171 203.264324 
" clip-path="url(#pcdd423488a)" style="fill: none; stroke: #ff7f0e; stroke-width: 1.5; stroke-linecap: square"/>
   </g>
   <g id="line2d_15">
    <path d="M 384.439529 186.320744 
L 384.641886 183.136419 
L 385.0466 188.793559 
L 385.451315 195.286635 
L 385.653672 187.99901 
L 386.058386 184.888062 
L 386.260743 176.119679 
L 386.463101 177.805267 
L 386.665458 185.507852 
L 387.677244 252.356886 
L 387.879601 257.035956 
L 388.081958 258.900127 
L 388.486673 250.878989 
L 388.891387 234.858383 
L 389.296102 223.232713 
L 389.700816 222.228152 
L 389.903173 217.6638 
L 390.307888 203.424308 
L 390.510245 200.228818 
L 390.712602 189.748346 
L 390.914959 197.293969 
L 391.117316 194.377235 
L 391.522031 203.319609 
L 391.724388 210.166138 
L 391.926745 226.832815 
L 392.129102 233.8951 
L 392.533817 267.658065 
L 392.736174 275.637928 
L 392.938531 276.553648 
L 393.343246 266.109324 
L 394.355032 228.123396 
L 394.962103 208.348788 
L 395.164461 195.077234 
L 395.366818 193.575238 
L 395.771532 198.693327 
L 396.783318 250.911061 
L 397.188033 276.114645 
L 397.592747 289.077719 
L 397.795104 282.645253 
L 397.997461 282.362181 
L 398.402176 264.404658 
L 399.413962 222.282743 
L 399.616319 220.972512 
L 399.818676 212.318947 
L 400.021034 214.091009 
L 400.223391 211.031426 
L 400.425748 213.640151 
L 400.628105 220.240864 
L 400.830462 219.975082 
L 401.235177 230.318029 
L 402.044606 278.008106 
L 402.246963 278.736628 
L 402.44932 280.200092 
L 402.651677 278.630707 
L 403.258749 258.216386 
L 404.270535 213.911211 
L 404.472892 215.85031 
L 404.675249 215.932289 
L 404.877607 214.384816 
L 405.484678 221.83507 
L 405.687035 225.291824 
L 405.889393 226.547127 
L 406.698821 266.048184 
L 406.901179 268.558896 
L 407.103536 276.096377 
L 407.50825 273.439476 
L 407.710607 273.832222 
L 407.912965 263.577054 
L 408.115322 262.176752 
L 408.317679 249.546139 
L 408.520036 244.889678 
L 408.924751 224.923117 
L 409.127108 224.133547 
L 409.329465 220.790293 
L 409.531822 220.504243 
L 409.73418 224.809313 
L 409.936537 222.867548 
L 410.138894 228.019104 
L 410.341251 226.853604 
L 410.543608 231.01544 
L 410.948323 243.446294 
L 411.353037 264.715024 
L 411.757752 281.306661 
L 411.960109 280.301177 
L 412.162466 285.092772 
L 412.769538 271.869279 
L 413.376609 245.455475 
L 413.983681 222.235487 
L 414.186038 223.910711 
L 414.388395 221.034641 
L 414.590752 222.297556 
L 414.79311 226.834132 
L 414.995467 225.376653 
L 415.197824 229.429494 
L 415.400181 229.469607 
L 416.007253 254.501461 
L 416.20961 271.059315 
L 416.816682 286.774227 
L 417.019039 283.014021 
L 417.221396 284.989361 
L 417.626111 269.433956 
L 417.828468 261.521856 
L 418.030825 247.138115 
L 418.233182 242.464344 
L 418.637897 217.743535 
L 418.840254 215.548477 
L 419.042611 208.656764 
L 419.244968 212.653015 
L 419.447325 209.407455 
L 419.649683 211.892723 
L 419.85204 220.692265 
L 420.054397 220.074431 
L 420.256754 227.861757 
L 420.459112 230.11848 
L 420.863826 250.11153 
L 421.066183 253.101241 
L 421.26854 266.45566 
L 421.673255 270.891031 
L 421.875612 273.391615 
L 422.077969 267.629194 
L 422.280326 269.758481 
L 422.482684 258.577478 
L 422.887398 248.81119 
L 423.089755 232.814017 
L 423.292112 227.791467 
L 423.49447 217.977545 
L 423.696827 216.147821 
L 423.899184 220.087329 
L 424.101541 216.025758 
L 424.303898 224.499405 
L 424.506256 225.380782 
L 424.708613 225.303346 
L 424.91097 230.75262 
L 425.113327 229.367709 
L 425.315684 242.653519 
L 425.518042 245.137649 
L 425.922756 265.333359 
L 426.125113 264.478957 
L 426.327471 276.203883 
L 426.529828 274.032762 
L 426.732185 276.034413 
L 426.934542 276.744877 
L 427.136899 267.626405 
L 427.339257 270.112563 
L 427.743971 252.193533 
L 427.946328 246.545304 
L 428.148685 233.07489 
L 428.351043 231.95201 
L 428.755757 221.181478 
L 428.958114 226.923681 
L 429.160471 222.907284 
L 429.362829 229.452043 
L 429.565186 229.76463 
L 429.767543 234.240304 
L 429.9699 245.405915 
L 430.172257 246.581065 
L 430.374615 265.487496 
L 430.779329 279.934767 
L 430.981686 291.193397 
L 431.184044 286.472057 
L 431.386401 293.92371 
L 431.588758 285.022036 
L 431.993472 276.893525 
L 432.19583 261.875596 
L 432.398187 260.636434 
L 432.802901 236.191473 
L 433.005258 231.233437 
L 433.207616 215.650684 
L 433.409973 217.723999 
L 433.814687 211.407855 
L 434.017044 220.326384 
L 434.219402 213.884741 
L 434.421759 224.086215 
L 434.624116 224.573409 
L 434.826473 230.961458 
L 435.02883 243.724552 
L 435.231188 243.808514 
L 435.433545 262.255646 
L 435.635902 265.495913 
L 436.040617 279.603257 
L 436.242974 272.343873 
L 436.445331 277.972319 
L 436.647688 266.88321 
L 437.052403 257.956898 
L 437.25476 239.650016 
L 437.457117 237.078379 
L 437.659474 219.954703 
L 437.861831 214.068146 
L 438.064189 214.079945 
L 438.266546 206.039195 
L 438.468903 215.403678 
L 438.67126 213.058332 
L 438.873617 215.757491 
L 439.075975 226.463313 
L 439.278332 221.807719 
L 439.480689 231.131813 
L 439.683046 231.182534 
L 439.885403 237.617117 
L 440.087761 249.244799 
L 440.290118 246.205002 
L 440.492475 261.716642 
L 440.694832 261.661795 
L 440.897189 263.493996 
L 441.099547 270.736032 
L 441.301904 261.376086 
L 441.504261 271.30733 
L 441.706618 259.555675 
L 442.111333 255.926351 
L 442.31369 236.289848 
L 442.516047 238.403768 
L 442.920762 221.091187 
L 443.123119 227.855108 
L 443.325476 218.362379 
L 443.527833 226.745016 
L 443.73019 228.252035 
L 443.932548 228.39975 
L 444.134905 239.270511 
L 444.337262 233.368796 
L 444.539619 255.010719 
L 444.741976 256.657813 
L 444.944334 266.214782 
L 445.146691 281.868427 
L 445.349048 275.240942 
L 445.551405 290.506189 
L 445.753762 282.740069 
L 446.158477 284.094552 
L 446.360834 268.006937 
L 446.563191 274.02316 
L 446.765549 258.127395 
L 446.967906 251.058986 
L 447.170263 249.041533 
L 447.37262 232.351871 
L 447.574977 235.086559 
L 447.979692 221.741616 
L 448.182049 230.290084 
L 448.384406 221.0857 
L 448.586763 232.076309 
L 448.789121 231.824404 
L 448.991478 234.021779 
L 449.193835 247.93087 
L 449.396192 243.203242 
L 449.598549 267.081234 
L 449.800907 271.100173 
L 450.003264 277.719867 
L 450.205621 295.015561 
L 450.407978 283.765329 
L 450.610335 296.181711 
L 450.812693 282.765759 
L 451.217407 276.791762 
L 451.419764 253.37672 
L 451.622121 256.724988 
L 452.026836 226.848975 
L 452.229193 220.792486 
L 452.43155 204.004783 
L 452.633908 212.183936 
L 452.836265 200.82684 
L 453.038622 201.465251 
L 453.240979 209.843033 
L 453.443336 201.839917 
L 453.645694 220.19002 
L 453.848051 221.598274 
L 454.050408 228.814886 
L 454.252765 240.14694 
L 454.455122 236.661382 
L 454.65748 254.987521 
L 454.859837 254.767471 
L 455.062194 258.329234 
L 455.264551 268.291385 
L 455.466908 256.691464 
L 455.669266 266.33774 
L 455.871623 254.822152 
L 456.07398 251.750847 
L 456.276337 252.818568 
L 456.478694 229.905403 
L 456.681052 234.544049 
L 456.883409 219.554938 
L 457.085766 217.503474 
L 457.288123 226.086865 
L 457.490481 213.024536 
L 457.692838 225.049625 
L 458.097552 220.19002 
L 458.299909 232.863168 
L 458.502267 222.128414 
L 458.704624 238.237049 
L 458.906981 235.400518 
L 459.109338 240.440008 
L 459.311695 257.291653 
L 459.514053 248.150166 
L 459.71641 270.058705 
L 459.918767 263.479342 
L 460.121124 266.516071 
L 460.323481 275.699505 
L 460.525839 258.927236 
L 460.728196 276.70736 
L 460.930553 260.536402 
L 461.13291 258.200242 
L 461.335267 258.993206 
L 461.537625 237.620013 
L 461.739982 247.243117 
L 461.942339 235.440703 
L 462.144696 231.051175 
L 462.347053 237.77757 
L 462.549411 223.472838 
L 462.751768 238.954191 
L 462.954125 235.220381 
L 463.156482 242.192795 
L 463.35884 256.358058 
L 463.561197 249.556065 
L 463.763554 277.827253 
L 463.965911 276.536927 
L 464.370626 301.714543 
L 464.572983 289.851928 
L 464.77534 304.313841 
L 464.977697 289.150851 
L 465.180054 284.083739 
L 465.382412 286.390963 
L 465.584769 261.812224 
L 465.787126 270.166762 
L 465.989483 250.522765 
L 466.19184 243.259571 
L 466.394198 244.644579 
L 466.596555 217.383661 
L 466.798912 231.421821 
L 467.001269 218.565384 
L 467.203626 218.747263 
L 467.405984 231.065965 
L 467.608341 213.483364 
L 467.810698 233.151521 
L 468.013055 227.408692 
L 468.41777 248.751413 
L 468.620127 240.06049 
L 468.822484 267.513208 
L 469.024841 263.276684 
L 469.227199 271.295503 
L 469.429556 284.661654 
L 469.631913 268.232476 
L 469.83427 284.288881 
L 470.036627 265.046407 
L 470.238985 264.586354 
L 470.441342 261.666619 
L 470.643699 232.064709 
L 470.846056 239.880081 
L 471.048413 214.010953 
L 471.453128 208.188213 
L 471.655485 188.257522 
L 471.857842 208.651018 
L 472.060199 188.120441 
L 472.464914 210.468945 
L 472.667271 200.226333 
L 472.869628 222.423119 
L 473.071985 220.19685 
L 473.4767 239.378711 
L 473.679057 231.805578 
L 473.881414 253.360855 
L 474.083772 245.6742 
L 474.286129 248.568797 
L 474.488486 259.212147 
L 474.690843 241.199727 
L 474.8932 258.743645 
L 475.095558 242.686631 
L 475.297915 243.623236 
L 475.500272 249.136838 
L 475.702629 220.489297 
L 475.904986 237.408305 
L 476.107344 221.067281 
L 476.309701 221.412089 
L 476.512058 239.145696 
L 476.714415 217.34284 
L 476.916772 237.250992 
L 477.11913 230.143951 
L 477.321487 230.337705 
L 477.523844 244.982197 
L 477.726201 227.401971 
L 477.928558 262.41119 
L 478.130916 246.068841 
L 478.53563 276.379868 
L 478.737987 258.859846 
L 478.940345 288.703963 
L 479.142702 265.989807 
L 479.345059 275.886108 
L 479.547416 279.390243 
L 479.749773 255.576459 
L 479.952131 276.625538 
L 480.154488 252.991302 
L 480.356845 253.415834 
L 480.559202 252.981864 
L 480.761559 227.618882 
L 480.963917 245.404546 
L 481.166274 231.04122 
L 481.368631 233.681854 
L 481.570988 242.758851 
L 481.773345 225.464596 
L 481.975703 251.125615 
L 482.17806 240.583826 
L 482.582774 270.531365 
L 482.785131 259.838722 
L 482.987489 292.690183 
L 483.189846 283.703936 
L 483.392203 292.515041 
L 483.59456 307.8 
L 483.796917 282.122736 
L 483.999275 303.868461 
L 484.201632 278.290209 
L 484.403989 275.433432 
L 484.606346 277.524949 
L 484.808704 244.264872 
L 485.011061 263.6368 
L 485.213418 227.628127 
L 485.415775 236.249064 
L 485.618132 235.789803 
L 485.82049 208.338011 
L 486.022847 231.787873 
L 486.225204 212.442796 
L 486.427561 218.466016 
L 486.629918 228.909672 
L 486.832276 202.710346 
L 487.034633 235.187485 
L 487.23699 217.092316 
L 487.439347 241.394867 
L 487.641704 250.296275 
L 487.844062 239.681803 
L 488.046419 271.848775 
L 488.248776 254.881898 
L 488.451133 268.013452 
L 488.65349 273.128115 
L 488.855848 252.185268 
L 489.058205 273.360703 
L 489.260562 242.122866 
L 489.462919 247.532584 
L 489.665277 240.782937 
L 489.867634 210.998932 
L 490.069991 224.949146 
L 490.272348 187.343507 
L 490.474705 206.992539 
L 490.677063 204.848228 
L 490.87942 184.765921 
L 491.081777 216.027092 
L 491.284134 186.192407 
L 491.486491 216.194315 
L 491.688849 224.394934 
L 491.891206 211.450289 
L 492.093563 236.212041 
L 492.29592 223.439943 
L 492.498277 240.188133 
L 492.700635 247.578709 
L 492.902992 236.620383 
L 493.105349 264.989793 
L 493.307706 241.245655 
L 493.712421 259.480337 
L 493.914778 237.475504 
L 494.117135 264.322912 
L 494.319492 228.987417 
L 494.52185 245.596016 
L 494.724207 249.075419 
L 494.926564 222.14291 
L 495.128921 248.38364 
L 495.331278 220.176702 
L 495.533636 229.916739 
L 495.735993 245.863192 
L 495.93835 220.19002 
L 496.140707 250.912183 
L 496.343064 224.097944 
L 496.747779 255.592996 
L 496.950136 236.48155 
L 497.152493 284.936081 
L 497.35485 251.307869 
L 497.557208 282.272696 
L 497.759565 282.248299 
L 497.961922 263.382935 
L 498.164279 296.536534 
L 498.366636 257.557047 
L 498.568994 280.115038 
L 498.771351 271.598294 
L 498.973708 245.791099 
L 499.176065 267.060856 
L 499.378422 228.884538 
L 499.58078 249.533323 
L 499.783137 244.558539 
L 499.985494 221.197268 
L 500.187851 246.550749 
L 500.390209 213.886556 
L 500.592566 240.448799 
L 500.794923 243.6856 
L 500.99728 231.989369 
L 501.199637 262.85449 
L 501.401995 238.479461 
L 501.604352 266.568705 
L 501.806709 273.253869 
L 502.009066 261.865182 
L 502.211423 300.46112 
L 502.413781 274.910598 
L 502.616138 292.307053 
L 502.818495 295.663002 
L 503.020852 264.165694 
L 503.223209 299.03386 
L 503.425567 252.589467 
L 503.627924 269.124331 
L 503.830281 258.812385 
L 504.032638 236.219432 
L 504.234995 260.174834 
L 504.437353 211.934098 
L 504.63971 236.593378 
L 504.842067 228.621354 
L 505.044424 200.457919 
L 505.246782 236.84228 
L 505.449139 200.762677 
L 505.651496 231.935859 
L 505.853853 231.760301 
L 506.05621 215.001725 
L 506.258568 253.349021 
L 506.460925 214.102811 
L 506.663282 255.72491 
L 506.865639 254.298043 
L 507.067996 247.477738 
L 507.270354 280.531362 
L 507.472711 241.282342 
L 507.675068 273.166583 
L 508.079782 248.252264 
L 508.28214 267.946747 
L 508.484497 217.618965 
L 508.686854 247.047229 
L 509.091568 210.463944 
L 509.293926 235.359924 
L 509.496283 179.546708 
L 509.69864 223.295684 
L 509.900997 209.078531 
L 510.103354 176.299943 
L 510.305712 228.1098 
L 510.508069 181.071248 
L 510.710426 227.966505 
L 511.115141 224.338957 
L 511.317498 253.838954 
L 511.519855 216.969093 
L 511.722212 260.004408 
L 512.126927 244.433485 
L 512.329284 275.380716 
L 512.531641 227.120954 
L 512.733998 262.396447 
L 513.138713 236.77882 
L 513.34107 267.395935 
L 513.543427 209.55649 
L 513.745784 248.566446 
L 513.948141 241.99427 
L 514.150499 208.697034 
L 514.352856 253.252234 
L 514.555213 196.601061 
L 514.75757 235.106686 
L 514.959927 242.412391 
L 515.162285 206.921232 
L 515.364642 255.495074 
L 515.566999 204.533896 
L 515.769356 257.273709 
L 516.174071 245.317063 
L 516.376428 296.329623 
L 516.578785 228.224595 
L 516.781142 290.059643 
L 516.9835 265.281017 
L 517.185857 254.206625 
L 517.388214 288.363775 
L 517.590571 223.737546 
L 517.792928 271.681308 
L 517.995286 238.782702 
L 518.197643 231.614946 
L 518.4 260.909124 
L 518.4 260.909124 
" clip-path="url(#pcdd423488a)" style="fill: none; stroke: #2ca02c; stroke-width: 1.5; stroke-linecap: square"/>
   </g>
   <g id="patch_3">
    <path d="M 72 320.4 
L 72 43.2 
" style="fill: none; stroke: #000000; stroke-width: 0.8; stroke-linejoin: miter; stroke-linecap: square"/>
   </g>
   <g id="patch_4">
    <path d="M 518.4 320.4 
L 518.4 43.2 
" style="fill: none; stroke: #000000; stroke-width: 0.8; stroke-linejoin: miter; stroke-linecap: square"/>
   </g>
   <g id="patch_5">
    <path d="M 72 320.4 
L 518.4 320.4 
" style="fill: none; stroke: #000000; stroke-width: 0.8; stroke-linejoin: miter; stroke-linecap: square"/>
   </g>
   <g id="patch_6">
    <path d="M 72 43.2 
L 518.4 43.2 
" style="fill: none; stroke: #000000; stroke-width: 0.8; stroke-linejoin: miter; stroke-linecap: square"/>
   </g>
   <g id="text_13">
    <!-- Classic Transformer - model_20231126175208 -->
    <g transform="translate(155.436563 37.2) scale(0.12 -0.12)">
     <defs>
      <path id="DejaVuSans-43" d="M 4122 4306 
L 4122 3641 
Q 3803 3938 3442 4084 
Q 3081 4231 2675 4231 
Q 1875 4231 1450 3742 
Q 1025 3253 1025 2328 
Q 1025 1406 1450 917 
Q 1875 428 2675 428 
Q 3081 428 3442 575 
Q 3803 722 4122 1019 
L 4122 359 
Q 3791 134 3420 21 
Q 3050 -91 2638 -91 
Q 1578 -91 968 557 
Q 359 1206 359 2328 
Q 359 3453 968 4101 
Q 1578 4750 2638 4750 
Q 3056 4750 3426 4639 
Q 3797 4528 4122 4306 
z
" transform="scale(0.015625)"/>
      <path id="DejaVuSans-6c" d="M 603 4863 
L 1178 4863 
L 1178 0 
L 603 0 
L 603 4863 
z
" transform="scale(0.015625)"/>
      <path id="DejaVuSans-61" d="M 2194 1759 
Q 1497 1759 1228 1600 
Q 959 1441 959 1056 
Q 959 750 1161 570 
Q 1363 391 1709 391 
Q 2188 391 2477 730 
Q 2766 1069 2766 1631 
L 2766 1759 
L 2194 1759 
z
M 3341 1997 
L 3341 0 
L 2766 0 
L 2766 531 
Q 2569 213 2275 61 
Q 1981 -91 1556 -91 
Q 1019 -91 701 211 
Q 384 513 384 1019 
Q 384 1609 779 1909 
Q 1175 2209 1959 2209 
L 2766 2209 
L 2766 2266 
Q 2766 2663 2505 2880 
Q 2244 3097 1772 3097 
Q 1472 3097 1187 3025 
Q 903 2953 641 2809 
L 641 3341 
Q 956 3463 1253 3523 
Q 1550 3584 1831 3584 
Q 2591 3584 2966 3190 
Q 3341 2797 3341 1997 
z
" transform="scale(0.015625)"/>
      <path id="DejaVuSans-73" d="M 2834 3397 
L 2834 2853 
Q 2591 2978 2328 3040 
Q 2066 3103 1784 3103 
Q 1356 3103 1142 2972 
Q 928 2841 928 2578 
Q 928 2378 1081 2264 
Q 1234 2150 1697 2047 
L 1894 2003 
Q 2506 1872 2764 1633 
Q 3022 1394 3022 966 
Q 3022 478 2636 193 
Q 2250 -91 1575 -91 
Q 1294 -91 989 -36 
Q 684 19 347 128 
L 347 722 
Q 666 556 975 473 
Q 1284 391 1588 391 
Q 1994 391 2212 530 
Q 2431 669 2431 922 
Q 2431 1156 2273 1281 
Q 2116 1406 1581 1522 
L 1381 1569 
Q 847 1681 609 1914 
Q 372 2147 372 2553 
Q 372 3047 722 3315 
Q 1072 3584 1716 3584 
Q 2034 3584 2315 3537 
Q 2597 3491 2834 3397 
z
" transform="scale(0.015625)"/>
      <path id="DejaVuSans-69" d="M 603 3500 
L 1178 3500 
L 1178 0 
L 603 0 
L 603 3500 
z
M 603 4863 
L 1178 4863 
L 1178 4134 
L 603 4134 
L 603 4863 
z
" transform="scale(0.015625)"/>
      <path id="DejaVuSans-63" d="M 3122 3366 
L 3122 2828 
Q 2878 2963 2633 3030 
Q 2388 3097 2138 3097 
Q 1578 3097 1268 2742 
Q 959 2388 959 1747 
Q 959 1106 1268 751 
Q 1578 397 2138 397 
Q 2388 397 2633 464 
Q 2878 531 3122 666 
L 3122 134 
Q 2881 22 2623 -34 
Q 2366 -91 2075 -91 
Q 1284 -91 818 406 
Q 353 903 353 1747 
Q 353 2603 823 3093 
Q 1294 3584 2113 3584 
Q 2378 3584 2631 3529 
Q 2884 3475 3122 3366 
z
" transform="scale(0.015625)"/>
      <path id="DejaVuSans-20" transform="scale(0.015625)"/>
      <path id="DejaVuSans-54" d="M -19 4666 
L 3928 4666 
L 3928 4134 
L 2272 4134 
L 2272 0 
L 1638 0 
L 1638 4134 
L -19 4134 
L -19 4666 
z
" transform="scale(0.015625)"/>
      <path id="DejaVuSans-72" d="M 2631 2963 
Q 2534 3019 2420 3045 
Q 2306 3072 2169 3072 
Q 1681 3072 1420 2755 
Q 1159 2438 1159 1844 
L 1159 0 
L 581 0 
L 581 3500 
L 1159 3500 
L 1159 2956 
Q 1341 3275 1631 3429 
Q 1922 3584 2338 3584 
Q 2397 3584 2469 3576 
Q 2541 3569 2628 3553 
L 2631 2963 
z
" transform="scale(0.015625)"/>
      <path id="DejaVuSans-6e" d="M 3513 2113 
L 3513 0 
L 2938 0 
L 2938 2094 
Q 2938 2591 2744 2837 
Q 2550 3084 2163 3084 
Q 1697 3084 1428 2787 
Q 1159 2491 1159 1978 
L 1159 0 
L 581 0 
L 581 3500 
L 1159 3500 
L 1159 2956 
Q 1366 3272 1645 3428 
Q 1925 3584 2291 3584 
Q 2894 3584 3203 3211 
Q 3513 2838 3513 2113 
z
" transform="scale(0.015625)"/>
      <path id="DejaVuSans-66" d="M 2375 4863 
L 2375 4384 
L 1825 4384 
Q 1516 4384 1395 4259 
Q 1275 4134 1275 3809 
L 1275 3500 
L 2222 3500 
L 2222 3053 
L 1275 3053 
L 1275 0 
L 697 0 
L 697 3053 
L 147 3053 
L 147 3500 
L 697 3500 
L 697 3744 
Q 697 4328 969 4595 
Q 1241 4863 1831 4863 
L 2375 4863 
z
" transform="scale(0.015625)"/>
      <path id="DejaVuSans-6f" d="M 1959 3097 
Q 1497 3097 1228 2736 
Q 959 2375 959 1747 
Q 959 1119 1226 758 
Q 1494 397 1959 397 
Q 2419 397 2687 759 
Q 2956 1122 2956 1747 
Q 2956 2369 2687 2733 
Q 2419 3097 1959 3097 
z
M 1959 3584 
Q 2709 3584 3137 3096 
Q 3566 2609 3566 1747 
Q 3566 888 3137 398 
Q 2709 -91 1959 -91 
Q 1206 -91 779 398 
Q 353 888 353 1747 
Q 353 2609 779 3096 
Q 1206 3584 1959 3584 
z
" transform="scale(0.015625)"/>
      <path id="DejaVuSans-6d" d="M 3328 2828 
Q 3544 3216 3844 3400 
Q 4144 3584 4550 3584 
Q 5097 3584 5394 3201 
Q 5691 2819 5691 2113 
L 5691 0 
L 5113 0 
L 5113 2094 
Q 5113 2597 4934 2840 
Q 4756 3084 4391 3084 
Q 3944 3084 3684 2787 
Q 3425 2491 3425 1978 
L 3425 0 
L 2847 0 
L 2847 2094 
Q 2847 2600 2669 2842 
Q 2491 3084 2119 3084 
Q 1678 3084 1418 2786 
Q 1159 2488 1159 1978 
L 1159 0 
L 581 0 
L 581 3500 
L 1159 3500 
L 1159 2956 
Q 1356 3278 1631 3431 
Q 1906 3584 2284 3584 
Q 2666 3584 2933 3390 
Q 3200 3197 3328 2828 
z
" transform="scale(0.015625)"/>
      <path id="DejaVuSans-65" d="M 3597 1894 
L 3597 1613 
L 953 1613 
Q 991 1019 1311 708 
Q 1631 397 2203 397 
Q 2534 397 2845 478 
Q 3156 559 3463 722 
L 3463 178 
Q 3153 47 2828 -22 
Q 2503 -91 2169 -91 
Q 1331 -91 842 396 
Q 353 884 353 1716 
Q 353 2575 817 3079 
Q 1281 3584 2069 3584 
Q 2775 3584 3186 3129 
Q 3597 2675 3597 1894 
z
M 3022 2063 
Q 3016 2534 2758 2815 
Q 2500 3097 2075 3097 
Q 1594 3097 1305 2825 
Q 1016 2553 972 2059 
L 3022 2063 
z
" transform="scale(0.015625)"/>
      <path id="DejaVuSans-64" d="M 2906 2969 
L 2906 4863 
L 3481 4863 
L 3481 0 
L 2906 0 
L 2906 525 
Q 2725 213 2448 61 
Q 2172 -91 1784 -91 
Q 1150 -91 751 415 
Q 353 922 353 1747 
Q 353 2572 751 3078 
Q 1150 3584 1784 3584 
Q 2172 3584 2448 3432 
Q 2725 3281 2906 2969 
z
M 947 1747 
Q 947 1113 1208 752 
Q 1469 391 1925 391 
Q 2381 391 2643 752 
Q 2906 1113 2906 1747 
Q 2906 2381 2643 2742 
Q 2381 3103 1925 3103 
Q 1469 3103 1208 2742 
Q 947 2381 947 1747 
z
" transform="scale(0.015625)"/>
      <path id="DejaVuSans-5f" d="M 3263 -1063 
L 3263 -1509 
L -63 -1509 
L -63 -1063 
L 3263 -1063 
z
" transform="scale(0.015625)"/>
     </defs>
     <use xlink:href="#DejaVuSans-43"/>
     <use xlink:href="#DejaVuSans-6c" x="69.824219"/>
     <use xlink:href="#DejaVuSans-61" x="97.607422"/>
     <use xlink:href="#DejaVuSans-73" x="158.886719"/>
     <use xlink:href="#DejaVuSans-73" x="210.986328"/>
     <use xlink:href="#DejaVuSans-69" x="263.085938"/>
     <use xlink:href="#DejaVuSans-63" x="290.869141"/>
     <use xlink:href="#DejaVuSans-20" x="345.849609"/>
     <use xlink:href="#DejaVuSans-54" x="377.636719"/>
     <use xlink:href="#DejaVuSans-72" x="423.970703"/>
     <use xlink:href="#DejaVuSans-61" x="465.083984"/>
     <use xlink:href="#DejaVuSans-6e" x="526.363281"/>
     <use xlink:href="#DejaVuSans-73" x="589.742188"/>
     <use xlink:href="#DejaVuSans-66" x="641.841797"/>
     <use xlink:href="#DejaVuSans-6f" x="677.046875"/>
     <use xlink:href="#DejaVuSans-72" x="738.228516"/>
     <use xlink:href="#DejaVuSans-6d" x="777.591797"/>
     <use xlink:href="#DejaVuSans-65" x="875.003906"/>
     <use xlink:href="#DejaVuSans-72" x="936.527344"/>
     <use xlink:href="#DejaVuSans-20" x="977.640625"/>
     <use xlink:href="#DejaVuSans-2d" x="1009.427734"/>
     <use xlink:href="#DejaVuSans-20" x="1045.511719"/>
     <use xlink:href="#DejaVuSans-6d" x="1077.298828"/>
     <use xlink:href="#DejaVuSans-6f" x="1174.710938"/>
     <use xlink:href="#DejaVuSans-64" x="1235.892578"/>
     <use xlink:href="#DejaVuSans-65" x="1299.369141"/>
     <use xlink:href="#DejaVuSans-6c" x="1360.892578"/>
     <use xlink:href="#DejaVuSans-5f" x="1388.675781"/>
     <use xlink:href="#DejaVuSans-32" x="1438.675781"/>
     <use xlink:href="#DejaVuSans-30" x="1502.298828"/>
     <use xlink:href="#DejaVuSans-32" x="1565.921875"/>
     <use xlink:href="#DejaVuSans-33" x="1629.544922"/>
     <use xlink:href="#DejaVuSans-31" x="1693.167969"/>
     <use xlink:href="#DejaVuSans-31" x="1756.791016"/>
     <use xlink:href="#DejaVuSans-32" x="1820.414062"/>
     <use xlink:href="#DejaVuSans-36" x="1884.037109"/>
     <use xlink:href="#DejaVuSans-31" x="1947.660156"/>
     <use xlink:href="#DejaVuSans-37" x="2011.283203"/>
     <use xlink:href="#DejaVuSans-35" x="2074.90625"/>
     <use xlink:href="#DejaVuSans-32" x="2138.529297"/>
     <use xlink:href="#DejaVuSans-30" x="2202.152344"/>
     <use xlink:href="#DejaVuSans-38" x="2265.775391"/>
    </g>
   </g>
   <g id="legend_1">
    <g id="patch_7">
     <path d="M 79 95.234375 
L 161.517188 95.234375 
Q 163.517188 95.234375 163.517188 93.234375 
L 163.517188 50.2 
Q 163.517188 48.2 161.517188 48.2 
L 79 48.2 
Q 77 48.2 77 50.2 
L 77 93.234375 
Q 77 95.234375 79 95.234375 
z
" style="fill: #ffffff; opacity: 0.8; stroke: #cccccc; stroke-linejoin: miter"/>
    </g>
    <g id="line2d_16">
     <path d="M 81 56.298437 
L 91 56.298437 
L 101 56.298437 
" style="fill: none; stroke: #1f77b4; stroke-width: 1.5; stroke-linecap: square"/>
    </g>
    <g id="text_14">
     <!-- Measured -->
     <g transform="translate(109 59.798437) scale(0.1 -0.1)">
      <defs>
       <path id="DejaVuSans-4d" d="M 628 4666 
L 1569 4666 
L 2759 1491 
L 3956 4666 
L 4897 4666 
L 4897 0 
L 4281 0 
L 4281 4097 
L 3078 897 
L 2444 897 
L 1241 4097 
L 1241 0 
L 628 0 
L 628 4666 
z
" transform="scale(0.015625)"/>
       <path id="DejaVuSans-75" d="M 544 1381 
L 544 3500 
L 1119 3500 
L 1119 1403 
Q 1119 906 1312 657 
Q 1506 409 1894 409 
Q 2359 409 2629 706 
Q 2900 1003 2900 1516 
L 2900 3500 
L 3475 3500 
L 3475 0 
L 2900 0 
L 2900 538 
Q 2691 219 2414 64 
Q 2138 -91 1772 -91 
Q 1169 -91 856 284 
Q 544 659 544 1381 
z
M 1991 3584 
L 1991 3584 
z
" transform="scale(0.015625)"/>
      </defs>
      <use xlink:href="#DejaVuSans-4d"/>
      <use xlink:href="#DejaVuSans-65" x="86.279297"/>
      <use xlink:href="#DejaVuSans-61" x="147.802734"/>
      <use xlink:href="#DejaVuSans-73" x="209.082031"/>
      <use xlink:href="#DejaVuSans-75" x="261.181641"/>
      <use xlink:href="#DejaVuSans-72" x="324.560547"/>
      <use xlink:href="#DejaVuSans-65" x="363.423828"/>
      <use xlink:href="#DejaVuSans-64" x="424.947266"/>
     </g>
    </g>
    <g id="line2d_17">
     <path d="M 81 70.976562 
L 91 70.976562 
L 101 70.976562 
" style="fill: none; stroke: #ff7f0e; stroke-width: 1.5; stroke-linecap: square"/>
    </g>
    <g id="text_15">
     <!-- Fitted -->
     <g transform="translate(109 74.476562) scale(0.1 -0.1)">
      <defs>
       <path id="DejaVuSans-46" d="M 628 4666 
L 3309 4666 
L 3309 4134 
L 1259 4134 
L 1259 2759 
L 3109 2759 
L 3109 2228 
L 1259 2228 
L 1259 0 
L 628 0 
L 628 4666 
z
" transform="scale(0.015625)"/>
       <path id="DejaVuSans-74" d="M 1172 4494 
L 1172 3500 
L 2356 3500 
L 2356 3053 
L 1172 3053 
L 1172 1153 
Q 1172 725 1289 603 
Q 1406 481 1766 481 
L 2356 481 
L 2356 0 
L 1766 0 
Q 1100 0 847 248 
Q 594 497 594 1153 
L 594 3053 
L 172 3053 
L 172 3500 
L 594 3500 
L 594 4494 
L 1172 4494 
z
" transform="scale(0.015625)"/>
      </defs>
      <use xlink:href="#DejaVuSans-46"/>
      <use xlink:href="#DejaVuSans-69" x="50.269531"/>
      <use xlink:href="#DejaVuSans-74" x="78.052734"/>
      <use xlink:href="#DejaVuSans-74" x="117.261719"/>
      <use xlink:href="#DejaVuSans-65" x="156.470703"/>
      <use xlink:href="#DejaVuSans-64" x="217.994141"/>
     </g>
    </g>
    <g id="line2d_18">
     <path d="M 81 85.654687 
L 91 85.654687 
L 101 85.654687 
" style="fill: none; stroke: #2ca02c; stroke-width: 1.5; stroke-linecap: square"/>
    </g>
    <g id="text_16">
     <!-- Estimated -->
     <g transform="translate(109 89.154687) scale(0.1 -0.1)">
      <defs>
       <path id="DejaVuSans-45" d="M 628 4666 
L 3578 4666 
L 3578 4134 
L 1259 4134 
L 1259 2753 
L 3481 2753 
L 3481 2222 
L 1259 2222 
L 1259 531 
L 3634 531 
L 3634 0 
L 628 0 
L 628 4666 
z
" transform="scale(0.015625)"/>
      </defs>
      <use xlink:href="#DejaVuSans-45"/>
      <use xlink:href="#DejaVuSans-73" x="63.183594"/>
      <use xlink:href="#DejaVuSans-74" x="115.283203"/>
      <use xlink:href="#DejaVuSans-69" x="154.492188"/>
      <use xlink:href="#DejaVuSans-6d" x="182.275391"/>
      <use xlink:href="#DejaVuSans-61" x="279.6875"/>
      <use xlink:href="#DejaVuSans-74" x="340.966797"/>
      <use xlink:href="#DejaVuSans-65" x="380.175781"/>
      <use xlink:href="#DejaVuSans-64" x="441.699219"/>
     </g>
    </g>
   </g>
  </g>
 </g>
 <defs>
  <clipPath id="pcdd423488a">
   <rect x="72" y="43.2" width="446.4" height="277.2"/>
  </clipPath>
 </defs>
</svg>
