<?xml version="1.0" encoding="utf-8" standalone="no"?>
<!DOCTYPE svg PUBLIC "-//W3C//DTD SVG 1.1//EN"
  "http://www.w3.org/Graphics/SVG/1.1/DTD/svg11.dtd">
<svg xmlns:xlink="http://www.w3.org/1999/xlink" width="576pt" height="360pt" viewBox="0 0 576 360" xmlns="http://www.w3.org/2000/svg" version="1.1">
 <metadata>
  <rdf:RDF xmlns:dc="http://purl.org/dc/elements/1.1/" xmlns:cc="http://creativecommons.org/ns#" xmlns:rdf="http://www.w3.org/1999/02/22-rdf-syntax-ns#">
   <cc:Work>
    <dc:type rdf:resource="http://purl.org/dc/dcmitype/StillImage"/>
    <dc:date>2023-11-23T16:45:59.333399</dc:date>
    <dc:format>image/svg+xml</dc:format>
    <dc:creator>
     <cc:Agent>
      <dc:title>Matplotlib v3.8.1, https://matplotlib.org/</dc:title>
     </cc:Agent>
    </dc:creator>
   </cc:Work>
  </rdf:RDF>
 </metadata>
 <defs>
  <style type="text/css">*{stroke-linejoin: round; stroke-linecap: butt}</style>
 </defs>
 <g id="figure_1">
  <g id="patch_1">
   <path d="M 0 360 
L 576 360 
L 576 0 
L 0 0 
z
" style="fill: #ffffff"/>
  </g>
  <g id="axes_1">
   <g id="patch_2">
    <path d="M 72 320.4 
L 518.4 320.4 
L 518.4 43.2 
L 72 43.2 
z
" style="fill: #ffffff"/>
   </g>
   <g id="matplotlib.axis_1">
    <g id="xtick_1">
     <g id="line2d_1">
      <defs>
       <path id="ma2077e6e2d" d="M 0 0 
L 0 3.5 
" style="stroke: #000000; stroke-width: 0.8"/>
      </defs>
      <g>
       <use xlink:href="#ma2077e6e2d" x="129.874161" y="320.4" style="stroke: #000000; stroke-width: 0.8"/>
      </g>
     </g>
     <g id="text_1">
      <!-- 2020-05-15 -->
      <g transform="translate(100.816349 334.998438) scale(0.1 -0.1)">
       <defs>
        <path id="DejaVuSans-32" d="M 1228 531 
L 3431 531 
L 3431 0 
L 469 0 
L 469 531 
Q 828 903 1448 1529 
Q 2069 2156 2228 2338 
Q 2531 2678 2651 2914 
Q 2772 3150 2772 3378 
Q 2772 3750 2511 3984 
Q 2250 4219 1831 4219 
Q 1534 4219 1204 4116 
Q 875 4013 500 3803 
L 500 4441 
Q 881 4594 1212 4672 
Q 1544 4750 1819 4750 
Q 2544 4750 2975 4387 
Q 3406 4025 3406 3419 
Q 3406 3131 3298 2873 
Q 3191 2616 2906 2266 
Q 2828 2175 2409 1742 
Q 1991 1309 1228 531 
z
" transform="scale(0.015625)"/>
        <path id="DejaVuSans-30" d="M 2034 4250 
Q 1547 4250 1301 3770 
Q 1056 3291 1056 2328 
Q 1056 1369 1301 889 
Q 1547 409 2034 409 
Q 2525 409 2770 889 
Q 3016 1369 3016 2328 
Q 3016 3291 2770 3770 
Q 2525 4250 2034 4250 
z
M 2034 4750 
Q 2819 4750 3233 4129 
Q 3647 3509 3647 2328 
Q 3647 1150 3233 529 
Q 2819 -91 2034 -91 
Q 1250 -91 836 529 
Q 422 1150 422 2328 
Q 422 3509 836 4129 
Q 1250 4750 2034 4750 
z
" transform="scale(0.015625)"/>
        <path id="DejaVuSans-2d" d="M 313 2009 
L 1997 2009 
L 1997 1497 
L 313 1497 
L 313 2009 
z
" transform="scale(0.015625)"/>
        <path id="DejaVuSans-35" d="M 691 4666 
L 3169 4666 
L 3169 4134 
L 1269 4134 
L 1269 2991 
Q 1406 3038 1543 3061 
Q 1681 3084 1819 3084 
Q 2600 3084 3056 2656 
Q 3513 2228 3513 1497 
Q 3513 744 3044 326 
Q 2575 -91 1722 -91 
Q 1428 -91 1123 -41 
Q 819 9 494 109 
L 494 744 
Q 775 591 1075 516 
Q 1375 441 1709 441 
Q 2250 441 2565 725 
Q 2881 1009 2881 1497 
Q 2881 1984 2565 2268 
Q 2250 2553 1709 2553 
Q 1456 2553 1204 2497 
Q 953 2441 691 2322 
L 691 4666 
z
" transform="scale(0.015625)"/>
        <path id="DejaVuSans-31" d="M 794 531 
L 1825 531 
L 1825 4091 
L 703 3866 
L 703 4441 
L 1819 4666 
L 2450 4666 
L 2450 531 
L 3481 531 
L 3481 0 
L 794 0 
L 794 531 
z
" transform="scale(0.015625)"/>
       </defs>
       <use xlink:href="#DejaVuSans-32"/>
       <use xlink:href="#DejaVuSans-30" x="63.623047"/>
       <use xlink:href="#DejaVuSans-32" x="127.246094"/>
       <use xlink:href="#DejaVuSans-30" x="190.869141"/>
       <use xlink:href="#DejaVuSans-2d" x="254.492188"/>
       <use xlink:href="#DejaVuSans-30" x="290.576172"/>
       <use xlink:href="#DejaVuSans-35" x="354.199219"/>
       <use xlink:href="#DejaVuSans-2d" x="417.822266"/>
       <use xlink:href="#DejaVuSans-31" x="453.90625"/>
       <use xlink:href="#DejaVuSans-35" x="517.529297"/>
      </g>
     </g>
    </g>
    <g id="xtick_2">
     <g id="line2d_2">
      <g>
       <use xlink:href="#ma2077e6e2d" x="212.435902" y="320.4" style="stroke: #000000; stroke-width: 0.8"/>
      </g>
     </g>
     <g id="text_2">
      <!-- 2020-06-01 -->
      <g transform="translate(183.37809 334.998438) scale(0.1 -0.1)">
       <defs>
        <path id="DejaVuSans-36" d="M 2113 2584 
Q 1688 2584 1439 2293 
Q 1191 2003 1191 1497 
Q 1191 994 1439 701 
Q 1688 409 2113 409 
Q 2538 409 2786 701 
Q 3034 994 3034 1497 
Q 3034 2003 2786 2293 
Q 2538 2584 2113 2584 
z
M 3366 4563 
L 3366 3988 
Q 3128 4100 2886 4159 
Q 2644 4219 2406 4219 
Q 1781 4219 1451 3797 
Q 1122 3375 1075 2522 
Q 1259 2794 1537 2939 
Q 1816 3084 2150 3084 
Q 2853 3084 3261 2657 
Q 3669 2231 3669 1497 
Q 3669 778 3244 343 
Q 2819 -91 2113 -91 
Q 1303 -91 875 529 
Q 447 1150 447 2328 
Q 447 3434 972 4092 
Q 1497 4750 2381 4750 
Q 2619 4750 2861 4703 
Q 3103 4656 3366 4563 
z
" transform="scale(0.015625)"/>
       </defs>
       <use xlink:href="#DejaVuSans-32"/>
       <use xlink:href="#DejaVuSans-30" x="63.623047"/>
       <use xlink:href="#DejaVuSans-32" x="127.246094"/>
       <use xlink:href="#DejaVuSans-30" x="190.869141"/>
       <use xlink:href="#DejaVuSans-2d" x="254.492188"/>
       <use xlink:href="#DejaVuSans-30" x="290.576172"/>
       <use xlink:href="#DejaVuSans-36" x="354.199219"/>
       <use xlink:href="#DejaVuSans-2d" x="417.822266"/>
       <use xlink:href="#DejaVuSans-30" x="453.90625"/>
       <use xlink:href="#DejaVuSans-31" x="517.529297"/>
      </g>
     </g>
    </g>
    <g id="xtick_3">
     <g id="line2d_3">
      <g>
       <use xlink:href="#ma2077e6e2d" x="280.427924" y="320.4" style="stroke: #000000; stroke-width: 0.8"/>
      </g>
     </g>
     <g id="text_3">
      <!-- 2020-06-15 -->
      <g transform="translate(251.370111 334.998438) scale(0.1 -0.1)">
       <use xlink:href="#DejaVuSans-32"/>
       <use xlink:href="#DejaVuSans-30" x="63.623047"/>
       <use xlink:href="#DejaVuSans-32" x="127.246094"/>
       <use xlink:href="#DejaVuSans-30" x="190.869141"/>
       <use xlink:href="#DejaVuSans-2d" x="254.492188"/>
       <use xlink:href="#DejaVuSans-30" x="290.576172"/>
       <use xlink:href="#DejaVuSans-36" x="354.199219"/>
       <use xlink:href="#DejaVuSans-2d" x="417.822266"/>
       <use xlink:href="#DejaVuSans-31" x="453.90625"/>
       <use xlink:href="#DejaVuSans-35" x="517.529297"/>
      </g>
     </g>
    </g>
    <g id="xtick_4">
     <g id="line2d_4">
      <g>
       <use xlink:href="#ma2077e6e2d" x="358.133092" y="320.4" style="stroke: #000000; stroke-width: 0.8"/>
      </g>
     </g>
     <g id="text_4">
      <!-- 2020-07-01 -->
      <g transform="translate(329.075279 334.998438) scale(0.1 -0.1)">
       <defs>
        <path id="DejaVuSans-37" d="M 525 4666 
L 3525 4666 
L 3525 4397 
L 1831 0 
L 1172 0 
L 2766 4134 
L 525 4134 
L 525 4666 
z
" transform="scale(0.015625)"/>
       </defs>
       <use xlink:href="#DejaVuSans-32"/>
       <use xlink:href="#DejaVuSans-30" x="63.623047"/>
       <use xlink:href="#DejaVuSans-32" x="127.246094"/>
       <use xlink:href="#DejaVuSans-30" x="190.869141"/>
       <use xlink:href="#DejaVuSans-2d" x="254.492188"/>
       <use xlink:href="#DejaVuSans-30" x="290.576172"/>
       <use xlink:href="#DejaVuSans-37" x="354.199219"/>
       <use xlink:href="#DejaVuSans-2d" x="417.822266"/>
       <use xlink:href="#DejaVuSans-30" x="453.90625"/>
       <use xlink:href="#DejaVuSans-31" x="517.529297"/>
      </g>
     </g>
    </g>
    <g id="xtick_5">
     <g id="line2d_5">
      <g>
       <use xlink:href="#ma2077e6e2d" x="426.125113" y="320.4" style="stroke: #000000; stroke-width: 0.8"/>
      </g>
     </g>
     <g id="text_5">
      <!-- 2020-07-15 -->
      <g transform="translate(397.067301 334.998438) scale(0.1 -0.1)">
       <use xlink:href="#DejaVuSans-32"/>
       <use xlink:href="#DejaVuSans-30" x="63.623047"/>
       <use xlink:href="#DejaVuSans-32" x="127.246094"/>
       <use xlink:href="#DejaVuSans-30" x="190.869141"/>
       <use xlink:href="#DejaVuSans-2d" x="254.492188"/>
       <use xlink:href="#DejaVuSans-30" x="290.576172"/>
       <use xlink:href="#DejaVuSans-37" x="354.199219"/>
       <use xlink:href="#DejaVuSans-2d" x="417.822266"/>
       <use xlink:href="#DejaVuSans-31" x="453.90625"/>
       <use xlink:href="#DejaVuSans-35" x="517.529297"/>
      </g>
     </g>
    </g>
    <g id="xtick_6">
     <g id="line2d_6">
      <g>
       <use xlink:href="#ma2077e6e2d" x="508.686854" y="320.4" style="stroke: #000000; stroke-width: 0.8"/>
      </g>
     </g>
     <g id="text_6">
      <!-- 2020-08-01 -->
      <g transform="translate(479.629042 334.998438) scale(0.1 -0.1)">
       <defs>
        <path id="DejaVuSans-38" d="M 2034 2216 
Q 1584 2216 1326 1975 
Q 1069 1734 1069 1313 
Q 1069 891 1326 650 
Q 1584 409 2034 409 
Q 2484 409 2743 651 
Q 3003 894 3003 1313 
Q 3003 1734 2745 1975 
Q 2488 2216 2034 2216 
z
M 1403 2484 
Q 997 2584 770 2862 
Q 544 3141 544 3541 
Q 544 4100 942 4425 
Q 1341 4750 2034 4750 
Q 2731 4750 3128 4425 
Q 3525 4100 3525 3541 
Q 3525 3141 3298 2862 
Q 3072 2584 2669 2484 
Q 3125 2378 3379 2068 
Q 3634 1759 3634 1313 
Q 3634 634 3220 271 
Q 2806 -91 2034 -91 
Q 1263 -91 848 271 
Q 434 634 434 1313 
Q 434 1759 690 2068 
Q 947 2378 1403 2484 
z
M 1172 3481 
Q 1172 3119 1398 2916 
Q 1625 2713 2034 2713 
Q 2441 2713 2670 2916 
Q 2900 3119 2900 3481 
Q 2900 3844 2670 4047 
Q 2441 4250 2034 4250 
Q 1625 4250 1398 4047 
Q 1172 3844 1172 3481 
z
" transform="scale(0.015625)"/>
       </defs>
       <use xlink:href="#DejaVuSans-32"/>
       <use xlink:href="#DejaVuSans-30" x="63.623047"/>
       <use xlink:href="#DejaVuSans-32" x="127.246094"/>
       <use xlink:href="#DejaVuSans-30" x="190.869141"/>
       <use xlink:href="#DejaVuSans-2d" x="254.492188"/>
       <use xlink:href="#DejaVuSans-30" x="290.576172"/>
       <use xlink:href="#DejaVuSans-38" x="354.199219"/>
       <use xlink:href="#DejaVuSans-2d" x="417.822266"/>
       <use xlink:href="#DejaVuSans-30" x="453.90625"/>
       <use xlink:href="#DejaVuSans-31" x="517.529297"/>
      </g>
     </g>
    </g>
   </g>
   <g id="matplotlib.axis_2">
    <g id="ytick_1">
     <g id="line2d_7">
      <defs>
       <path id="maa4673b673" d="M 0 0 
L -3.5 0 
" style="stroke: #000000; stroke-width: 0.8"/>
      </defs>
      <g>
       <use xlink:href="#maa4673b673" x="72" y="314.799593" style="stroke: #000000; stroke-width: 0.8"/>
      </g>
     </g>
     <g id="text_7">
      <!-- −2 -->
      <g transform="translate(50.257812 318.598812) scale(0.1 -0.1)">
       <defs>
        <path id="DejaVuSans-2212" d="M 678 2272 
L 4684 2272 
L 4684 1741 
L 678 1741 
L 678 2272 
z
" transform="scale(0.015625)"/>
       </defs>
       <use xlink:href="#DejaVuSans-2212"/>
       <use xlink:href="#DejaVuSans-32" x="83.789062"/>
      </g>
     </g>
    </g>
    <g id="ytick_2">
     <g id="line2d_8">
      <g>
       <use xlink:href="#maa4673b673" x="72" y="261.300177" style="stroke: #000000; stroke-width: 0.8"/>
      </g>
     </g>
     <g id="text_8">
      <!-- −1 -->
      <g transform="translate(50.257812 265.099395) scale(0.1 -0.1)">
       <use xlink:href="#DejaVuSans-2212"/>
       <use xlink:href="#DejaVuSans-31" x="83.789062"/>
      </g>
     </g>
    </g>
    <g id="ytick_3">
     <g id="line2d_9">
      <g>
       <use xlink:href="#maa4673b673" x="72" y="207.80076" style="stroke: #000000; stroke-width: 0.8"/>
      </g>
     </g>
     <g id="text_9">
      <!-- 0 -->
      <g transform="translate(58.6375 211.599979) scale(0.1 -0.1)">
       <use xlink:href="#DejaVuSans-30"/>
      </g>
     </g>
    </g>
    <g id="ytick_4">
     <g id="line2d_10">
      <g>
       <use xlink:href="#maa4673b673" x="72" y="154.301344" style="stroke: #000000; stroke-width: 0.8"/>
      </g>
     </g>
     <g id="text_10">
      <!-- 1 -->
      <g transform="translate(58.6375 158.100563) scale(0.1 -0.1)">
       <use xlink:href="#DejaVuSans-31"/>
      </g>
     </g>
    </g>
    <g id="ytick_5">
     <g id="line2d_11">
      <g>
       <use xlink:href="#maa4673b673" x="72" y="100.801928" style="stroke: #000000; stroke-width: 0.8"/>
      </g>
     </g>
     <g id="text_11">
      <!-- 2 -->
      <g transform="translate(58.6375 104.601147) scale(0.1 -0.1)">
       <use xlink:href="#DejaVuSans-32"/>
      </g>
     </g>
    </g>
    <g id="ytick_6">
     <g id="line2d_12">
      <g>
       <use xlink:href="#maa4673b673" x="72" y="47.302512" style="stroke: #000000; stroke-width: 0.8"/>
      </g>
     </g>
     <g id="text_12">
      <!-- 3 -->
      <g transform="translate(58.6375 51.10173) scale(0.1 -0.1)">
       <defs>
        <path id="DejaVuSans-33" d="M 2597 2516 
Q 3050 2419 3304 2112 
Q 3559 1806 3559 1356 
Q 3559 666 3084 287 
Q 2609 -91 1734 -91 
Q 1441 -91 1130 -33 
Q 819 25 488 141 
L 488 750 
Q 750 597 1062 519 
Q 1375 441 1716 441 
Q 2309 441 2620 675 
Q 2931 909 2931 1356 
Q 2931 1769 2642 2001 
Q 2353 2234 1838 2234 
L 1294 2234 
L 1294 2753 
L 1863 2753 
Q 2328 2753 2575 2939 
Q 2822 3125 2822 3475 
Q 2822 3834 2567 4026 
Q 2313 4219 1838 4219 
Q 1578 4219 1281 4162 
Q 984 4106 628 3988 
L 628 4550 
Q 988 4650 1302 4700 
Q 1616 4750 1894 4750 
Q 2613 4750 3031 4423 
Q 3450 4097 3450 3541 
Q 3450 3153 3228 2886 
Q 3006 2619 2597 2516 
z
" transform="scale(0.015625)"/>
       </defs>
       <use xlink:href="#DejaVuSans-33"/>
      </g>
     </g>
    </g>
   </g>
   <g id="line2d_13">
    <path d="M 72 285.934339 
L 72.404714 297.272041 
L 72.607072 295.55039 
L 72.809429 284.884552 
L 73.214143 253.978818 
L 73.618858 241.549339 
L 75.035358 158.616154 
L 75.237715 155.655754 
L 75.440073 160.715728 
L 75.64243 168.925063 
L 75.844787 172.221395 
L 76.047144 187.464305 
L 76.654216 257.716061 
L 77.05893 281.777182 
L 77.261287 286.144297 
L 77.463645 285.766373 
L 77.666002 275.058544 
L 78.070716 246.567321 
L 78.475431 234.09585 
L 78.677788 224.962702 
L 79.487217 167.980255 
L 79.891931 151.708554 
L 80.094288 153.661158 
L 80.903717 196.072559 
L 81.713146 271.405285 
L 82.11786 286.060314 
L 82.320218 288.096901 
L 82.522575 287.802961 
L 82.724932 285.283471 
L 82.927289 278.459855 
L 83.332004 255.469516 
L 83.736718 241.150419 
L 83.939075 238.106037 
L 84.141432 238.378981 
L 84.546147 244.782683 
L 84.748504 246.882257 
L 84.950861 246.903253 
L 85.355576 251.102402 
L 85.557933 247.764079 
L 85.76029 253.894836 
L 86.569719 298.867717 
L 86.772076 304.956483 
L 86.974433 306.552159 
L 87.176791 306.615146 
L 87.379148 305.271419 
L 87.581505 301.534176 
L 87.783862 294.773547 
L 88.188577 272.707021 
L 88.390934 267.521073 
L 89.200363 259.437712 
L 89.40272 255.30155 
L 89.807434 240.499551 
L 90.212149 238.04305 
L 90.414506 235.334599 
L 90.616863 243.291985 
L 91.223935 293.912722 
L 91.628649 304.956483 
L 91.831006 305.01947 
L 92.033364 302.520976 
L 92.842792 256.330342 
L 93.04515 254.188776 
L 93.449864 245.580521 
L 93.652221 245.055628 
L 93.854578 242.116224 
L 94.056936 241.486351 
L 94.259293 238.861883 
L 94.46165 232.458182 
L 94.664007 229.602761 
L 94.866364 230.526574 
L 95.068722 233.675935 
L 95.271079 229.833714 
L 95.473436 239.953662 
L 96.080508 294.290645 
L 96.485222 303.507776 
L 96.687579 305.418389 
L 96.889937 301.07227 
L 97.699365 255.595491 
L 98.306437 245.076623 
L 98.508794 244.6987 
L 99.52058 223.451008 
L 99.722937 224.710753 
L 99.925295 229.077867 
L 100.127652 227.251238 
L 100.330009 237.413177 
L 100.937081 291.813147 
L 101.341795 304.095657 
L 101.544152 305.082457 
L 101.74651 301.366211 
L 101.948867 289.398637 
L 102.353581 259.332733 
L 102.555938 257.779048 
L 103.567724 239.974658 
L 104.377153 217.845145 
L 104.57951 219.125885 
L 104.781868 224.521791 
L 104.984225 224.500795 
L 105.186582 233.40299 
L 105.793654 288.663786 
L 106.198368 301.429198 
L 106.400725 303.19284 
L 106.603083 299.161657 
L 107.412511 253.18098 
L 107.614869 251.459329 
L 107.817226 247.785074 
L 108.22194 233.235024 
L 108.626655 211.50443 
L 108.829012 205.562635 
L 109.031369 203.673018 
L 109.638441 212.365256 
L 109.840798 217.803153 
L 110.043155 228.217042 
L 110.650227 283.330867 
L 111.054941 297.607972 
L 111.257298 299.518585 
L 111.459655 297.775938 
L 111.662013 286.354254 
L 112.066727 257.065193 
L 112.471442 242.053236 
L 113.887942 173.565123 
L 114.090299 171.192604 
L 114.292656 178.01622 
L 114.495014 189.4589 
L 114.697371 194.056968 
L 115.102085 228.112063 
L 115.709157 277.536042 
L 116.113871 291.498211 
L 116.316228 291.666177 
L 116.518586 290.007514 
L 116.720943 286.37525 
L 117.125657 259.10178 
L 118.542158 154.312026 
L 118.744515 144.192078 
L 118.946872 140.307866 
L 119.149229 143.982121 
L 119.756301 181.900433 
L 120.56573 261.348324 
L 120.970444 281.189301 
L 121.172801 285.283471 
L 121.375159 286.921139 
L 121.577516 285.472433 
L 121.779873 277.536042 
L 122.589302 226.474395 
L 123.196374 200.985563 
L 123.398731 196.408491 
L 123.601088 196.618449 
L 123.803445 196.051563 
L 124.410517 209.467843 
L 124.612874 220.448617 
L 125.219946 276.801191 
L 125.62466 291.351241 
L 125.827017 293.345837 
L 126.029374 290.805352 
L 127.04116 234.347799 
L 127.648232 196.891393 
L 128.255304 154.458997 
L 128.457661 146.900529 
L 128.660018 146.564597 
L 129.26709 190.949598 
L 130.278876 281.903157 
L 130.481233 289.734569 
L 130.68359 291.120288 
L 130.885947 288.537812 
L 132.504805 179.485922 
L 133.111877 136.759585 
L 133.314234 127.332497 
L 133.516591 129.033152 
L 133.921306 144.423031 
L 134.123663 151.855524 
L 135.135449 261.873218 
L 135.540163 274.512655 
L 135.74252 273.567847 
L 135.944878 262.964996 
L 136.349592 231.513373 
L 136.551949 224.731748 
L 136.754306 212.848158 
L 136.956664 217.42523 
L 137.159021 206.108524 
L 137.766092 197.269317 
L 137.96845 197.668236 
L 138.373164 192.251334 
L 138.777879 199.809801 
L 138.980236 200.649631 
L 139.182593 212.470235 
L 139.789665 269.179736 
L 140.194379 284.569616 
L 140.396736 286.648195 
L 140.599093 283.624808 
L 141.003808 253.369942 
L 141.408522 232.164241 
L 142.015594 218.747962 
L 142.622665 209.593818 
L 142.825023 209.320873 
L 143.02738 208.10312 
L 143.229737 208.795979 
L 143.634451 214.086907 
L 143.836809 212.848158 
L 144.039166 223.052089 
L 144.646238 272.476068 
L 145.050952 284.590612 
L 145.253309 285.892348 
L 145.455666 282.742986 
L 145.860381 253.03401 
L 146.062738 236.552352 
L 146.66981 220.049698 
L 146.872167 217.362243 
L 147.074524 216.270464 
L 147.479238 205.14272 
L 147.681596 213.625 
L 147.883953 214.6118 
L 148.08631 217.236268 
L 148.491024 226.579374 
L 148.693382 225.214651 
L 149.098096 248.918844 
L 149.502811 277.158119 
L 149.907525 290.32245 
L 150.109882 292.401028 
L 150.312239 291.813147 
L 150.514597 288.957726 
L 150.716954 283.183897 
L 151.121668 262.06218 
L 151.526383 241.318385 
L 151.931097 235.439577 
L 152.133454 234.998667 
L 152.335811 236.993262 
L 152.538169 237.518156 
L 152.740526 235.439577 
L 152.942883 235.733518 
L 153.14524 234.746718 
L 153.347597 234.788709 
L 153.549955 231.82831 
L 153.752312 234.053858 
L 154.764098 286.165293 
L 154.966455 290.175479 
L 155.168812 291.582194 
L 155.573527 287.593003 
L 155.775884 276.381276 
L 156.78767 197.458278 
L 157.799456 154.291031 
L 158.001813 156.327618 
L 158.406528 169.701906 
L 158.608885 183.433122 
L 159.215956 252.950027 
L 159.620671 274.827591 
L 159.823028 278.081931 
L 160.025385 277.158119 
L 160.227743 267.227132 
L 160.632457 234.347799 
L 161.8466 183.39113 
L 162.251315 173.208195 
L 162.453672 173.355165 
L 162.656029 176.252578 
L 163.465458 208.481043 
L 164.072529 269.116749 
L 164.477244 287.970926 
L 164.679601 288.306858 
L 164.881958 285.031522 
L 165.084316 274.743608 
L 165.48903 242.557134 
L 166.500816 207.011341 
L 167.310245 163.529157 
L 167.512602 166.930468 
L 167.917316 187.779241 
L 168.119674 192.293325 
L 168.322031 203.798993 
L 168.929102 263.993788 
L 169.333817 279.383668 
L 169.536174 282.952944 
L 169.738531 279.236697 
L 170.143246 251.585304 
L 170.54796 220.868532 
L 171.357389 175.706688 
L 171.559746 169.596927 
L 172.166818 145.073899 
L 172.369175 146.711567 
L 172.571532 154.731941 
L 173.178604 194.224934 
L 173.785675 266.261328 
L 174.19039 285.913344 
L 174.392747 288.936731 
L 174.595104 287.089105 
L 174.999819 262.566077 
L 175.404533 237.224216 
L 177.023391 157.923294 
L 177.225748 158.448188 
L 177.428105 162.416383 
L 177.630462 179.233973 
L 177.83282 181.711471 
L 178.237534 226.432404 
L 178.642248 269.935583 
L 179.046963 289.398637 
L 179.24932 293.177871 
L 179.451677 290.61639 
L 179.654034 281.798178 
L 180.261106 241.381373 
L 181.879964 143.037312 
L 182.082321 139.719985 
L 182.284678 145.472818 
L 183.094107 202.623231 
L 183.498821 242.200207 
L 183.903536 263.972792 
L 184.30825 271.930179 
L 184.510607 273.315898 
L 184.712965 269.620647 
L 184.915322 256.036401 
L 185.724751 172.78828 
L 186.129465 151.078682 
L 186.331822 144.926929 
L 186.53418 144.150087 
L 186.736537 146.732563 
L 187.748323 187.800236 
L 188.557752 252.992019 
L 188.962466 267.395098 
L 189.164823 269.473677 
L 189.36718 269.55766 
L 189.569538 268.801813 
L 189.771895 257.842035 
L 190.986038 160.316809 
L 191.188395 154.920903 
L 191.390752 154.878911 
L 191.795467 164.180026 
L 192.604896 196.009572 
L 193.414325 260.403516 
L 193.819039 274.344689 
L 194.021396 275.436468 
L 194.426111 271.405285 
L 194.628468 262.293133 
L 195.437897 200.334695 
L 195.640254 195.232729 
L 195.842611 196.471478 
L 196.247325 202.644227 
L 196.449683 203.232108 
L 196.65204 202.833188 
L 197.056754 211.189494 
L 197.259112 212.05032 
L 197.461469 220.616583 
L 198.06854 269.830604 
L 198.473255 284.275676 
L 198.675612 284.380654 
L 198.877969 280.664408 
L 199.282684 249.317764 
L 199.687398 226.075476 
L 201.306256 158.448188 
L 201.508613 157.272426 
L 202.115684 176.819463 
L 202.318042 188.17816 
L 202.925113 253.432929 
L 203.329828 271.405285 
L 203.532185 273.546851 
L 203.734542 270.502468 
L 203.936899 258.765848 
L 204.341614 224.143868 
L 205.758114 168.463157 
L 205.960471 165.922672 
L 206.162829 166.069642 
L 206.365186 167.518349 
L 206.7699 179.590901 
L 206.972257 182.845241 
L 207.174615 193.889002 
L 207.781686 254.041806 
L 208.186401 270.502468 
L 208.388758 273.609838 
L 208.591115 270.208528 
L 208.793472 258.11498 
L 209.198187 223.681961 
L 209.805258 200.985563 
L 210.209973 180.724671 
L 210.817044 138.250283 
L 211.019402 129.600037 
L 211.221759 132.623424 
L 211.626473 157.566366 
L 211.82883 162.878289 
L 212.031188 177.890246 
L 212.638259 244.173806 
L 213.042974 263.111967 
L 213.245331 267.185141 
L 213.447688 265.442494 
L 213.650045 254.524708 
L 214.257117 210.433647 
L 214.661831 183.580092 
L 215.47126 123.091356 
L 215.875975 106.042813 
L 216.078332 105.559911 
L 216.280689 111.207766 
L 217.090118 176.210586 
L 217.697189 239.32379 
L 218.101904 258.135976 
L 218.304261 261.558282 
L 218.506618 262.944001 
L 218.708976 261.66326 
L 218.911333 248.687891 
L 219.518404 192.839215 
L 220.125476 156.95749 
L 220.327833 154.752937 
L 220.53019 157.020477 
L 221.541976 200.145733 
L 221.744334 205.394669 
L 222.553762 263.384911 
L 222.958477 274.470664 
L 223.160834 276.21331 
L 223.363191 276.570238 
L 223.565549 274.974562 
L 223.767906 266.093362 
L 224.374977 227.146259 
L 224.779692 219.419825 
L 225.386763 221.5194 
L 225.589121 225.109672 
L 225.791478 226.012489 
L 226.196192 234.557756 
L 226.398549 234.200829 
L 226.600907 240.7515 
L 227.410335 295.403419 
L 227.612693 299.518585 
L 227.81505 301.240236 
L 228.017407 297.985896 
L 228.826836 254.566699 
L 229.029193 252.19418 
L 229.23155 246.336368 
L 230.648051 181.690475 
L 230.850408 182.278356 
L 231.255122 196.975376 
L 231.45748 208.082124 
L 232.064551 273.000962 
L 232.469266 290.511411 
L 232.671623 293.282849 
L 232.87398 292.044101 
L 233.278694 266.261328 
L 233.683409 243.291985 
L 235.302267 177.449335 
L 235.504624 176.840459 
L 236.111695 196.324508 
L 236.314053 206.885367 
L 236.921124 270.229524 
L 237.325839 286.417241 
L 237.528196 289.608594 
L 237.730553 287.446033 
L 238.135267 263.027984 
L 238.539982 240.814488 
L 239.349411 209.278882 
L 239.754125 199.07495 
L 240.15884 188.661062 
L 240.361197 188.409113 
L 240.563554 193.972985 
L 240.968268 211.924345 
L 241.170626 219.650779 
L 241.777697 276.276298 
L 242.182412 292.44302 
L 242.384769 294.983505 
L 242.587126 291.939122 
L 242.99184 266.74423 
L 243.396555 248.435942 
L 245.21777 172.326374 
L 245.420127 176.651497 
L 246.027199 203.966959 
L 246.836627 278.87977 
L 247.038985 287.404041 
L 247.241342 290.637386 
L 247.443699 288.054909 
L 247.848413 264.035779 
L 249.467271 149.860929 
L 249.669628 141.630598 
L 249.871985 139.656998 
L 250.074343 139.824964 
L 250.2767 146.900529 
L 250.883772 179.632892 
L 251.6932 256.057397 
L 252.097915 270.859396 
L 252.300272 273.987762 
L 252.502629 274.260706 
L 252.704986 270.313507 
L 253.109701 236.930275 
L 253.91913 162.311404 
L 254.323844 146.207669 
L 254.728558 137.221491 
L 254.930916 135.940751 
L 255.133273 143.583202 
L 255.740345 181.774458 
L 256.549773 258.429916 
L 256.954488 274.197719 
L 257.156845 278.081931 
L 257.359202 279.782587 
L 257.561559 278.795787 
L 257.966274 249.359755 
L 258.573345 198.004168 
L 258.97806 175.916646 
L 259.382774 164.683923 
L 259.585131 161.177634 
L 259.787489 160.736724 
L 259.989846 163.403183 
L 260.39456 179.69588 
L 260.596917 193.301121 
L 261.203989 256.477312 
L 261.608704 275.541447 
L 261.811061 278.522842 
L 262.013418 277.725004 
L 262.418132 253.306955 
L 262.62049 241.066437 
L 263.025204 231.219433 
L 263.227561 228.364012 
L 263.429918 227.335221 
L 263.834633 228.636957 
L 264.03699 228.32202 
L 264.239347 229.287825 
L 264.441704 229.371808 
L 264.644062 229.098863 
L 264.846419 231.177442 
L 265.048776 235.292607 
L 265.251133 235.292607 
L 265.45349 239.386777 
L 266.060562 282.659003 
L 266.465277 295.739351 
L 266.667634 297.314032 
L 266.869991 293.051896 
L 267.072348 284.947539 
L 267.477063 257.947014 
L 268.084134 235.355594 
L 268.488849 224.878719 
L 269.09592 213.415043 
L 269.500635 209.38386 
L 269.702992 211.609409 
L 269.905349 215.283664 
L 270.107706 215.976524 
L 270.310063 222.401221 
L 270.917135 272.182128 
L 271.32185 284.380654 
L 271.524207 286.564212 
L 271.726564 284.821565 
L 274.15485 140.559815 
L 274.357208 133.253296 
L 274.559565 136.654606 
L 275.166636 162.290409 
L 275.976065 245.412555 
L 276.38078 258.219959 
L 276.583137 257.506103 
L 276.987851 235.250616 
L 277.392566 205.793588 
L 278.404352 147.761354 
L 278.606709 144.653985 
L 279.011423 131.174717 
L 279.213781 129.53705 
L 279.416138 133.883168 
L 280.023209 176.399548 
L 280.630281 249.107806 
L 281.034995 272.329098 
L 281.237353 277.305089 
L 281.43971 275.730408 
L 281.642067 269.725626 
L 282.249139 227.167255 
L 282.85621 192.881206 
L 283.867996 149.273048 
L 284.070354 148.055295 
L 284.272711 156.369609 
L 285.284497 241.045441 
L 285.689211 273.840791 
L 286.093926 288.873743 
L 286.296283 291.204271 
L 286.49864 289.356645 
L 286.700997 286.354254 
L 287.105712 254.734665 
L 287.712783 202.18232 
L 288.522212 157.902298 
L 288.724569 150.637771 
L 288.926927 148.664171 
L 289.129284 152.317431 
L 289.736355 186.792441 
L 290.545784 258.240954 
L 290.950499 273.819796 
L 291.152856 276.654221 
L 291.355213 276.738204 
L 291.55757 275.22651 
L 291.759927 262.50309 
L 292.771714 161.89149 
L 293.176428 139.468036 
L 293.581142 128.00436 
L 293.7835 126.240718 
L 293.985857 129.83099 
L 294.592928 155.865711 
L 295.402357 240.793492 
L 295.807072 255.784452 
L 296.009429 255.616486 
L 296.414143 234.914684 
L 297.830644 97.098627 
L 298.235358 83.514381 
L 298.437715 80.868917 
L 298.640073 81.141862 
L 298.84243 83.241436 
L 299.044787 91.450772 
L 299.449501 118.997187 
L 300.056573 199.683827 
L 300.461287 225.466599 
L 300.663645 231.618352 
L 300.866002 232.353203 
L 301.068359 225.382616 
L 301.473073 194.68684 
L 302.484859 87.125649 
L 302.687217 75.556994 
L 302.889574 75.661973 
L 303.091931 83.934296 
L 303.496646 92.773503 
L 303.90136 115.511893 
L 304.306074 144.066104 
L 304.913146 214.800762 
L 305.31786 240.709509 
L 305.520218 246.399355 
L 305.722575 244.572726 
L 305.924932 237.287203 
L 306.532004 196.450483 
L 307.54379 124.89699 
L 307.746147 114.462106 
L 307.948504 113.559289 
L 308.757933 146.543601 
L 309.162647 173.187199 
L 309.769719 237.581143 
L 310.174433 257.905022 
L 310.376791 262.398111 
L 310.579148 261.810231 
L 310.983862 237.875084 
L 312.198005 131.531645 
L 312.60272 119.648055 
L 312.805077 115.175961 
L 313.007434 115.742846 
L 313.209791 119.52208 
L 313.816863 147.719363 
L 314.01922 161.702528 
L 314.626292 225.676557 
L 315.031006 246.630308 
L 315.233364 251.312359 
L 315.435721 250.640495 
L 315.840435 231.450386 
L 316.24515 212.323264 
L 316.649864 200.040755 
L 317.054578 184.398926 
L 317.66165 176.714484 
L 317.864007 176.252578 
L 318.066364 175.328765 
L 318.268722 180.115794 
L 318.875793 202.749205 
L 319.685222 262.65006 
L 320.089937 275.709413 
L 320.292294 277.389072 
L 320.697008 269.284715 
L 321.101723 242.473151 
L 322.315866 162.815302 
L 322.72058 152.338426 
L 322.922937 149.965907 
L 323.125295 154.186052 
L 323.732366 182.425326 
L 324.541795 252.488121 
L 324.94651 267.101158 
L 325.148867 270.061558 
L 325.351224 270.124545 
L 325.553581 267.815013 
L 325.755938 255.217567 
L 326.970082 140.307866 
L 327.172439 133.841177 
L 327.374796 132.224505 
L 327.77951 126.534658 
L 327.981868 131.636624 
L 328.184225 140.622802 
L 328.791296 193.427096 
L 329.196011 238.127032 
L 329.398368 253.705874 
L 329.803083 264.035779 
L 330.00544 263.069975 
L 330.207797 257.338137 
L 330.814869 207.746192 
L 331.42194 168.673115 
L 331.826655 145.493814 
L 332.029012 142.533414 
L 332.231369 142.55441 
L 332.433726 142.743372 
L 332.636083 144.884938 
L 332.838441 149.524997 
L 333.243155 172.956246 
L 333.445512 182.173377 
L 334.052584 249.359755 
L 334.457298 271.636238 
L 334.659655 277.179115 
L 334.862013 274.722613 
L 335.266727 254.440725 
L 335.671442 229.539774 
L 336.48087 188.535087 
L 336.683228 183.349139 
L 336.885585 182.215369 
L 337.087942 175.89565 
L 337.290299 174.006033 
L 337.695014 180.619692 
L 338.099728 195.400695 
L 338.302085 201.405478 
L 339.111514 268.696834 
L 339.313871 275.037549 
L 339.516228 277.326085 
L 339.718586 273.168928 
L 340.1233 249.296768 
L 340.932729 203.840984 
L 342.349229 140.706785 
L 342.551587 140.622802 
L 343.158658 165.859685 
L 343.76573 230.022676 
L 344.170444 248.435942 
L 344.372801 253.306955 
L 344.575159 251.123397 
L 344.777516 244.047832 
L 345.18223 212.470235 
L 346.194016 127.983365 
L 346.598731 112.887425 
L 347.003445 106.126796 
L 347.205802 105.265971 
L 347.40816 108.520311 
L 347.610517 116.540685 
L 348.015231 143.226274 
L 348.82466 236.384386 
L 349.229374 253.87384 
L 349.431732 253.096997 
L 349.634089 247.176198 
L 349.836446 235.796505 
L 351.050589 129.033152 
L 351.455304 110.262957 
L 351.860018 101.213792 
L 352.062375 100.289979 
L 352.264733 104.006226 
L 352.46709 115.343927 
L 353.276519 200.292704 
L 353.681233 239.071841 
L 354.085947 259.710656 
L 354.288305 265.106562 
L 354.490662 265.694443 
L 354.693019 263.405907 
L 355.097733 220.427621 
L 355.704805 144.947925 
L 356.109519 119.690046 
L 356.716591 101.087818 
L 356.918948 99.975043 
L 357.121306 104.888047 
L 357.52602 131.090735 
L 357.728377 144.066104 
L 358.740163 241.696309 
L 359.144878 254.965618 
L 359.347235 256.876231 
L 359.549592 256.540299 
L 359.751949 242.221202 
L 360.763735 118.871212 
L 361.16845 99.366167 
L 361.573164 88.00747 
L 361.775521 85.655947 
L 361.977879 89.015265 
L 362.180236 96.174814 
L 362.58495 122.545467 
L 363.394379 213.310064 
L 363.799093 231.366403 
L 364.001451 232.206233 
L 364.203808 226.180455 
L 364.406165 215.892541 
L 365.013237 144.716972 
L 365.620308 78.664364 
L 366.025023 62.119719 
L 366.429737 55.8 
L 366.632094 56.303898 
L 366.834451 59.012349 
L 367.036809 67.935539 
L 367.441523 97.812482 
L 368.048595 179.317956 
L 368.453309 210.559622 
L 368.655666 219.293851 
L 368.858024 221.729357 
L 369.060381 217.740166 
L 369.262738 207.641214 
L 369.86981 142.596402 
L 370.476881 83.031479 
L 370.881596 66.003931 
L 371.083953 65.542025 
L 371.28631 66.276876 
L 371.488667 70.308058 
L 371.691024 76.690764 
L 372.298096 116.624668 
L 373.107525 203.71501 
L 373.512239 226.495391 
L 373.714597 230.967484 
L 374.119311 230.253629 
L 374.321668 217.194277 
L 375.333454 110.787851 
L 375.738169 97.203605 
L 375.940526 94.432167 
L 376.142883 93.298397 
L 376.34524 98.61032 
L 376.749955 125.505867 
L 377.559383 185.889624 
L 377.964098 221.414421 
L 378.368812 235.565552 
L 378.57117 235.796505 
L 378.773527 229.70774 
L 378.975884 218.202072 
L 380.392384 98.589324 
L 380.797099 88.406389 
L 381.201813 80.616968 
L 381.40417 84.480185 
L 382.011242 122.461484 
L 382.820671 207.473248 
L 383.225385 223.996897 
L 383.427743 224.668761 
L 383.6301 219.188872 
L 384.034814 196.3665 
L 385.0466 121.012778 
L 385.451315 103.880252 
L 385.653672 103.397349 
L 385.856029 107.281562 
L 386.058386 115.112974 
L 387.070172 186.939411 
L 387.474887 228.112063 
L 387.879601 250.577508 
L 388.284316 259.962605 
L 388.68903 262.545082 
L 388.891387 256.645278 
L 389.700816 211.945341 
L 390.307888 200.439674 
L 390.914959 187.359326 
L 391.117316 192.27233 
L 391.926745 232.899092 
L 392.533817 278.270893 
L 392.938531 290.973318 
L 393.140888 292.88393 
L 393.343246 292.422024 
L 393.545603 292.904926 
L 393.74796 283.708791 
L 394.355032 241.44436 
L 395.569175 183.454118 
L 395.771532 177.281369 
L 395.973889 178.520118 
L 396.176247 187.065385 
L 396.783318 230.232633 
L 397.188033 269.788613 
L 397.592747 288.096901 
L 397.795104 290.952322 
L 397.997461 288.34885 
L 398.402176 269.725626 
L 400.628105 138.670198 
L 400.830462 141.588606 
L 401.03282 151.813533 
L 401.639891 210.391656 
L 402.044606 255.931423 
L 402.44932 276.801191 
L 402.651677 280.916357 
L 402.854034 279.215702 
L 403.258749 260.52949 
L 403.663463 231.345407 
L 404.877607 122.440488 
L 405.282321 101.360762 
L 405.484678 97.035639 
L 405.687035 98.148414 
L 405.889393 108.940226 
L 406.294107 147.320444 
L 406.901179 226.831323 
L 407.305893 251.543312 
L 407.50825 257.296146 
L 407.710607 256.750257 
L 408.115322 234.93568 
L 409.73418 99.072226 
L 409.936537 94.012252 
L 410.138894 93.865282 
L 410.341251 98.589324 
L 410.948323 135.667806 
L 411.15068 152.002495 
L 411.757752 224.500795 
L 412.162466 249.212785 
L 412.364823 255.868435 
L 412.56718 257.695065 
L 412.971895 239.155824 
L 414.388395 138.418249 
L 414.79311 124.519067 
L 415.197824 117.674455 
L 415.400181 124.624046 
L 416.20961 188.850024 
L 416.614325 235.292607 
L 417.019039 258.975805 
L 417.221396 263.34292 
L 417.423753 262.776035 
L 417.828468 246.189398 
L 419.244968 145.850742 
L 419.649683 131.888573 
L 419.85204 127.962369 
L 420.054397 129.432071 
L 420.256754 138.31327 
L 421.066183 205.268695 
L 421.673255 261.747243 
L 422.077969 278.228902 
L 422.280326 280.769387 
L 422.482684 280.097523 
L 422.685041 279.929557 
L 423.089755 248.414947 
L 423.899184 177.659293 
L 424.708613 137.389457 
L 424.91097 134.135117 
L 425.113327 138.229287 
L 425.518042 164.977864 
L 425.720399 177.050416 
L 426.529828 253.411933 
L 426.934542 272.413081 
L 427.136899 276.990153 
L 427.339257 277.808987 
L 427.541614 278.03994 
L 427.743971 269.242724 
L 428.148685 227.965093 
L 428.755757 164.662928 
L 429.160471 138.439245 
L 429.565186 129.998956 
L 429.9699 134.009143 
L 430.374615 150.59578 
L 430.576972 162.500366 
L 431.386401 240.205611 
L 431.791115 252.719074 
L 431.993472 250.640495 
L 432.398187 229.875705 
L 433.207616 163.3192 
L 434.017044 91.366789 
L 434.219402 86.369802 
L 435.02883 114.399119 
L 435.433545 139.950938 
L 436.040617 212.743179 
L 436.445331 235.775509 
L 436.647688 241.024445 
L 436.850045 240.331586 
L 437.25476 219.272855 
L 437.659474 183.580092 
L 438.468903 108.478319 
L 438.67126 98.526337 
L 438.873617 99.513137 
L 439.075975 106.777664 
L 439.278332 106.315758 
L 439.480689 108.604294 
L 439.885403 127.56345 
L 440.290118 152.86332 
L 440.897189 227.902106 
L 441.301904 250.703483 
L 441.504261 256.246359 
L 441.706618 256.792248 
L 442.111333 241.7383 
L 442.920762 188.577079 
L 443.527833 152.947303 
L 444.134905 129.705015 
L 444.337262 127.059552 
L 444.539619 133.610224 
L 445.146691 179.653888 
L 445.753762 250.346555 
L 446.158477 272.014162 
L 446.360834 277.074136 
L 446.563191 275.037549 
L 446.967906 255.721465 
L 448.586763 143.54121 
L 448.991478 130.061943 
L 449.193835 127.689424 
L 449.396192 134.492045 
L 450.003264 175.74868 
L 450.812693 257.527099 
L 451.217407 271.111345 
L 451.419764 271.237319 
L 451.824479 253.684878 
L 452.43155 202.18232 
L 453.038622 159.372 
L 453.443336 141.966529 
L 453.848051 133.92516 
L 454.050408 137.368462 
L 454.252765 147.572393 
L 454.65748 176.58851 
L 454.859837 185.21776 
L 455.669266 251.333355 
L 456.07398 265.16955 
L 456.276337 266.723234 
L 456.478694 264.686647 
L 456.681052 261.51629 
L 456.883409 253.348946 
L 457.288123 225.76054 
L 457.692838 214.569809 
L 457.895195 215.283664 
L 458.299909 221.162472 
L 458.502267 221.015502 
L 458.906981 217.110294 
L 459.109338 217.656183 
L 459.514053 221.897323 
L 459.71641 226.285433 
L 460.728196 285.220484 
L 461.13291 289.734569 
L 461.537625 286.354254 
L 461.739982 277.242102 
L 462.144696 242.011245 
L 463.561197 171.381565 
L 463.763554 163.970068 
L 463.965911 165.166825 
L 464.572983 185.049794 
L 465.382412 253.432929 
L 465.584769 260.487499 
L 465.787126 263.258937 
L 465.989483 260.781439 
L 467.608341 166.300596 
L 468.620127 144.67498 
L 468.822484 147.866333 
L 469.429556 174.656901 
L 470.036627 232.563161 
L 470.441342 250.724478 
L 470.643699 253.411933 
L 470.846056 250.787466 
L 471.857842 198.802006 
L 472.869628 167.917268 
L 473.071985 168.421166 
L 473.274343 166.594536 
L 473.4767 167.875276 
L 473.679057 171.738493 
L 473.881414 178.457131 
L 474.083772 179.632892 
L 474.286129 187.464305 
L 474.8932 240.667517 
L 475.297915 257.254154 
L 475.500272 258.95481 
L 475.702629 256.876231 
L 476.107344 231.996276 
L 476.512058 209.53083 
L 477.321487 177.386348 
L 477.726201 156.81052 
L 477.928558 153.178256 
L 478.333273 157.965286 
L 478.53563 162.521362 
L 479.142702 187.968202 
L 479.952131 257.149176 
L 480.356845 267.206137 
L 480.559202 266.786222 
L 480.963917 244.236794 
L 482.785131 113.181366 
L 482.987489 107.155587 
L 483.189846 104.468132 
L 483.392203 110.220966 
L 483.999275 150.910716 
L 484.606346 223.493 
L 485.011061 247.197193 
L 485.213418 251.690282 
L 485.415775 252.656087 
L 485.82049 232.479178 
L 486.225204 200.628635 
L 487.23699 108.793255 
L 487.439347 105.643894 
L 487.844062 112.341536 
L 488.248776 131.342683 
L 489.260562 210.475639 
L 489.665277 243.291985 
L 490.069991 258.702861 
L 490.272348 261.096375 
L 490.474705 259.941609 
L 490.677063 258.135976 
L 490.87942 248.204989 
L 491.891206 166.846485 
L 492.29592 148.76915 
L 492.498277 141.231678 
L 492.700635 139.174096 
L 492.902992 140.832759 
L 493.105349 145.745763 
L 493.712421 179.947829 
L 494.52185 253.411933 
L 495.128921 272.056153 
L 495.331278 272.203123 
L 495.533636 271.573251 
L 495.735993 263.867813 
L 496.950136 170.499744 
L 497.557208 145.640784 
L 497.759565 142.218478 
L 497.961922 145.493814 
L 498.568994 177.638297 
L 499.378422 252.950027 
L 499.58078 259.920614 
L 499.783137 262.461099 
L 499.985494 259.080784 
L 500.187851 250.388546 
L 500.794923 212.722183 
L 500.99728 207.515239 
L 501.401995 194.161947 
L 501.806709 182.677275 
L 502.009066 182.215369 
L 502.211423 184.314943 
L 502.413781 184.965811 
L 502.616138 183.265156 
L 503.020852 193.175147 
L 503.223209 193.742032 
L 503.425567 201.405478 
L 504.032638 253.117993 
L 504.437353 266.45029 
L 504.63971 268.108954 
L 504.842067 265.694443 
L 505.246782 240.835483 
L 505.651496 216.543409 
L 507.270354 141.924538 
L 507.472711 138.754181 
L 507.675068 142.218478 
L 508.28214 170.81468 
L 508.889211 230.00168 
L 509.293926 247.470138 
L 509.496283 251.06041 
L 509.69864 249.191789 
L 510.103354 225.172659 
L 511.722212 116.666659 
L 512.126927 98.547333 
L 512.329284 100.164005 
L 512.936355 135.226896 
L 513.34107 174.950842 
L 513.745784 219.293851 
L 514.150499 242.473151 
L 514.352856 248.162998 
L 514.555213 248.666895 
L 514.75757 239.596735 
L 516.174071 140.895747 
L 516.376428 139.782972 
L 516.781142 149.294044 
L 516.9835 146.50161 
L 517.185857 147.047499 
L 517.590571 165.103838 
L 517.792928 169.428961 
L 517.995286 180.346748 
L 518.4 220.805544 
L 518.4 220.805544 
" clip-path="url(#p6d12414c0d)" style="fill: none; stroke: #1f77b4; stroke-width: 1.5; stroke-linecap: square"/>
   </g>
   <g id="line2d_14">
    <path d="M 72 276.994319 
L 72.202357 276.994319 
L 72.607072 283.91025 
L 72.809429 284.854585 
L 73.011786 279.77594 
L 73.618858 250.757754 
L 74.225929 225.949476 
L 74.630644 197.080372 
L 75.035358 171.935261 
L 75.440073 162.091227 
L 75.64243 164.639771 
L 76.047144 178.461241 
L 76.451859 214.893457 
L 76.856573 253.40954 
L 77.261287 273.226601 
L 77.463645 278.699307 
L 77.666002 275.789004 
L 78.070716 248.084712 
L 78.475431 223.681435 
L 78.880145 210.556209 
L 79.284859 184.328622 
L 79.689574 158.334167 
L 79.891931 152.110648 
L 80.094288 151.66364 
L 80.296646 155.800106 
L 80.70136 181.636762 
L 80.903717 191.553935 
L 81.713146 266.063614 
L 82.11786 283.503625 
L 82.320218 283.807225 
L 83.129646 254.694173 
L 83.534361 232.385632 
L 84.34379 223.018505 
L 84.546147 223.30357 
L 85.355576 237.277915 
L 85.962647 265.273668 
L 86.569719 302.236713 
L 86.772076 306.627499 
L 86.974433 307.8 
L 87.581505 292.277831 
L 87.986219 278.229136 
L 88.390934 258.073167 
L 88.795648 252.14412 
L 89.200363 250.169734 
L 89.40272 250.302589 
L 89.605077 249.418048 
L 90.009791 237.434148 
L 90.212149 236.558474 
L 90.414506 239.59315 
L 90.616863 240.611552 
L 90.81922 247.818733 
L 91.628649 299.374912 
L 91.831006 303.924998 
L 92.033364 303.690569 
L 92.235721 298.223061 
L 93.04515 248.509771 
L 93.449864 236.442232 
L 94.259293 222.16345 
L 94.664007 226.637816 
L 94.866364 225.274024 
L 95.068722 226.804891 
L 95.473436 237.171032 
L 95.675793 246.974584 
L 96.282865 291.314854 
L 96.687579 298.039194 
L 96.889937 296.556753 
L 97.092294 287.108005 
L 97.497008 257.398787 
L 97.901723 245.508533 
L 98.306437 234.814253 
L 98.711151 237.110474 
L 99.318223 222.874748 
L 99.722937 221.968703 
L 100.127652 229.937 
L 100.330009 237.022389 
L 101.341795 295.788058 
L 101.544152 298.361099 
L 101.74651 294.567259 
L 101.948867 285.942691 
L 102.555938 249.268792 
L 103.16301 236.295368 
L 103.365367 237.960548 
L 103.567724 235.524922 
L 104.174796 219.164415 
L 104.377153 217.092666 
L 104.57951 216.797435 
L 104.984225 226.415875 
L 105.388939 248.416425 
L 105.996011 289.566414 
L 106.400725 296.687093 
L 106.603083 293.750355 
L 107.007797 271.688362 
L 107.412511 248.805652 
L 108.019583 234.373741 
L 108.22194 233.302641 
L 108.424297 226.390529 
L 108.829012 206.187516 
L 109.031369 199.345597 
L 109.233726 201.521416 
L 109.638441 209.899515 
L 110.043155 228.352746 
L 110.852584 285.858761 
L 111.054941 292.602197 
L 111.257298 294.492991 
L 111.459655 289.730804 
L 111.86437 272.620861 
L 112.269084 246.118024 
L 112.673799 232.048584 
L 114.090299 173.479517 
L 114.292656 177.799183 
L 114.697371 197.787558 
L 115.709157 270.303027 
L 116.113871 282.168137 
L 116.316228 283.572019 
L 116.9233 263.330909 
L 117.125657 255.273746 
L 118.744515 150.621868 
L 118.946872 144.841052 
L 119.149229 143.181594 
L 119.351587 148.637718 
L 119.958658 197.859651 
L 120.363373 242.659941 
L 120.970444 278.029439 
L 121.172801 280.467307 
L 121.375159 279.501804 
L 121.577516 275.343667 
L 121.98223 258.070288 
L 122.589302 217.687495 
L 123.398731 186.705981 
L 123.601088 183.57361 
L 124.20816 199.537943 
L 124.612874 216.297732 
L 125.017588 251.772103 
L 125.422303 287.596346 
L 125.62466 297.436719 
L 125.827017 301.672911 
L 126.029374 300.554518 
L 126.231732 292.209698 
L 127.850589 181.203463 
L 128.457661 159.192799 
L 128.660018 155.173574 
L 128.862375 156.341579 
L 129.26709 182.716622 
L 130.278876 273.61417 
L 130.68359 289.769299 
L 130.885947 288.690396 
L 131.088305 279.698962 
L 131.695376 231.463372 
L 132.504805 185.483058 
L 133.111877 142.21465 
L 133.314234 134.779567 
L 133.516591 132.501115 
L 133.718948 138.707809 
L 134.528377 200.599244 
L 134.933092 247.594591 
L 135.337806 265.802705 
L 135.540163 269.89035 
L 135.74252 268.807824 
L 135.944878 260.682108 
L 137.159021 191.491385 
L 137.361378 187.221515 
L 137.563735 179.47412 
L 137.766092 178.144787 
L 137.96845 182.929845 
L 138.170807 181.968367 
L 138.373164 191.217521 
L 138.777879 199.420762 
L 139.182593 212.657143 
L 139.992022 281.453855 
L 140.194379 285.559319 
L 140.396736 287.018405 
L 140.801451 272.176002 
L 141.408522 231.491977 
L 141.610879 226.976601 
L 142.015594 211.233601 
L 142.217951 211.916552 
L 142.420308 204.789926 
L 142.622665 203.914074 
L 142.825023 204.069687 
L 143.432094 209.198147 
L 144.039166 224.967721 
L 144.241523 235.276338 
L 144.646238 268.708288 
L 145.050952 282.008173 
L 145.253309 283.26352 
L 145.658024 268.681419 
L 146.265095 225.900988 
L 146.66981 212.642356 
L 146.872167 211.537238 
L 147.074524 211.534881 
L 147.681596 200.42292 
L 148.895739 232.167535 
L 149.907525 285.351153 
L 150.312239 279.240417 
L 150.919311 257.74817 
L 151.72874 230.609629 
L 151.931097 231.872458 
L 152.133454 232.03029 
L 152.538169 228.235943 
L 152.740526 229.74466 
L 152.942883 228.782721 
L 153.14524 228.946973 
L 153.347597 231.372967 
L 153.549955 238.09464 
L 153.752312 240.280512 
L 153.954669 244.833953 
L 154.561741 277.467366 
L 154.966455 284.843328 
L 155.168812 283.387845 
L 155.775884 271.082838 
L 156.180598 247.092637 
L 156.78767 213.198562 
L 157.799456 161.894751 
L 158.001813 157.317088 
L 158.20417 157.215148 
L 158.608885 173.804505 
L 158.811242 188.781714 
L 159.418314 256.21207 
L 159.823028 278.594612 
L 160.025385 279.873703 
L 160.227743 274.397368 
L 160.632457 243.814068 
L 161.441886 190.527114 
L 161.8466 169.024384 
L 162.048957 164.619998 
L 162.251315 162.724181 
L 162.453672 162.771238 
L 162.858386 175.365346 
L 163.667815 221.687406 
L 164.274887 275.535073 
L 164.679601 288.15958 
L 164.881958 285.467991 
L 165.084316 275.937278 
L 165.691387 232.244851 
L 165.893744 226.187148 
L 166.298459 208.235995 
L 166.500816 208.328933 
L 167.310245 174.644432 
L 167.512602 173.16606 
L 167.714959 176.629631 
L 168.524388 222.020186 
L 168.929102 256.982029 
L 169.333817 278.104836 
L 169.536174 282.186154 
L 169.738531 278.487959 
L 170.143246 255.163639 
L 170.952675 201.098703 
L 171.559746 166.56086 
L 172.166818 143.423236 
L 172.369175 143.451807 
L 172.571532 151.957725 
L 173.380961 212.014603 
L 173.988033 266.26111 
L 174.392747 282.154234 
L 174.595104 278.85017 
L 174.999819 256.896367 
L 175.60689 221.274908 
L 177.023391 166.683202 
L 177.225748 163.351535 
L 177.428105 167.484276 
L 178.035177 202.190702 
L 179.046963 287.565166 
L 179.24932 290.519614 
L 179.451677 290.535074 
L 179.856392 265.558448 
L 180.463463 227.310602 
L 181.070535 190.670227 
L 181.475249 166.633545 
L 182.082321 144.766313 
L 182.284678 145.866026 
L 182.689393 172.618713 
L 183.094107 205.320146 
L 183.498821 246.734989 
L 183.701179 258.534974 
L 184.105893 270.323888 
L 184.30825 268.710246 
L 184.712965 254.3409 
L 185.117679 235.871317 
L 185.724751 189.672633 
L 186.53418 135.031923 
L 186.736537 130.946619 
L 186.938894 134.983759 
L 187.343608 157.817694 
L 188.355394 241.293279 
L 188.760109 264.157628 
L 188.962466 268.713684 
L 189.164823 266.832118 
L 189.569538 253.440889 
L 189.974252 234.945607 
L 191.188395 158.549482 
L 191.59311 153.951257 
L 191.997824 167.409983 
L 192.402539 191.042797 
L 193.819039 276.120718 
L 194.021396 276.537094 
L 194.223753 270.846847 
L 195.033182 225.815287 
L 195.640254 191.081372 
L 195.842611 181.268582 
L 196.044968 178.817457 
L 196.247325 182.744652 
L 197.663826 233.570041 
L 198.473255 282.123149 
L 198.675612 287.332134 
L 198.877969 286.175749 
L 199.080326 277.070372 
L 200.29447 193.156161 
L 200.901541 174.434328 
L 201.103898 173.860312 
L 201.306256 172.147119 
L 201.508613 171.969949 
L 201.71097 170.540142 
L 201.913327 175.657901 
L 202.520399 205.631249 
L 202.925113 244.22943 
L 203.329828 263.67289 
L 203.532185 269.138727 
L 203.734542 268.015123 
L 204.139257 245.191208 
L 204.543971 215.029003 
L 205.758114 166.164477 
L 205.960471 160.98762 
L 206.162829 159.665241 
L 206.365186 162.387114 
L 206.7699 184.149599 
L 207.579329 233.232906 
L 207.984044 260.877359 
L 208.388758 269.84857 
L 208.591115 266.304031 
L 208.99583 242.502649 
L 209.400544 214.91963 
L 209.602901 209.769174 
L 210.614687 166.12896 
L 211.221759 141.346973 
L 211.424116 143.67167 
L 212.233545 190.912326 
L 212.638259 237.800351 
L 213.042974 258.192126 
L 213.245331 262.888276 
L 213.447688 262.515759 
L 213.852403 239.903332 
L 214.459474 203.035413 
L 215.066546 166.44671 
L 215.673617 120.928068 
L 215.875975 111.482413 
L 216.078332 108.089407 
L 216.280689 113.481965 
L 217.090118 172.437834 
L 217.697189 236.300697 
L 218.101904 251.972185 
L 218.304261 250.998988 
L 218.506618 247.352991 
L 218.911333 236.085557 
L 219.720762 190.4435 
L 220.327833 148.264518 
L 220.53019 143.358617 
L 220.732548 141.558456 
L 220.934905 149.743311 
L 221.744334 206.681491 
L 221.946691 217.065304 
L 222.553762 271.134975 
L 222.75612 279.409252 
L 222.958477 281.305984 
L 223.363191 270.674026 
L 223.767906 256.250875 
L 224.577335 212.271803 
L 224.982049 209.464256 
L 225.184406 209.859703 
L 226.196192 230.492992 
L 226.600907 243.40685 
L 226.803264 247.75946 
L 227.005621 257.881261 
L 227.410335 287.32031 
L 227.612693 296.617085 
L 227.81505 300.122115 
L 228.017407 299.798348 
L 228.219764 291.534652 
L 229.23155 230.950795 
L 229.636265 223.06067 
L 229.838622 219.66658 
L 230.243336 206.376536 
L 230.648051 193.853921 
L 230.850408 192.087159 
L 231.052765 193.624985 
L 231.45748 207.045426 
L 231.862194 239.098941 
L 232.266908 270.19932 
L 232.671623 287.161347 
L 232.87398 288.091652 
L 233.076337 282.71433 
L 234.088123 224.199879 
L 234.695195 196.302534 
L 235.099909 178.843704 
L 235.302267 173.048074 
L 235.504624 172.014091 
L 235.706981 177.602707 
L 236.51641 227.391476 
L 237.123481 276.269176 
L 237.325839 283.92731 
L 237.528196 286.514796 
L 237.730553 284.659991 
L 237.93291 276.092707 
L 238.539982 237.48198 
L 239.754125 192.130828 
L 240.15884 188.185871 
L 240.361197 188.707219 
L 240.968268 209.166924 
L 241.372983 233.144267 
L 241.980054 281.902942 
L 242.384769 291.186274 
L 242.587126 288.743764 
L 242.789483 280.549699 
L 243.396555 240.826465 
L 244.610698 193.958673 
L 244.813055 190.205008 
L 245.21777 180.296521 
L 245.420127 181.104836 
L 245.824841 195.909333 
L 247.038985 277.977857 
L 247.241342 284.80498 
L 247.443699 286.076832 
L 247.848413 264.861826 
L 248.455485 227.111873 
L 249.062557 188.019584 
L 249.669628 146.380981 
L 249.871985 137.19635 
L 250.074343 134.264567 
L 250.2767 139.572277 
L 250.681414 166.409078 
L 251.086129 202.185367 
L 251.490843 243.693422 
L 251.895558 263.335813 
L 252.097915 268.44671 
L 252.300272 268.397041 
L 252.502629 262.902785 
L 253.109701 233.71819 
L 254.323844 145.766567 
L 254.728558 134.267271 
L 254.930916 134.11366 
L 255.133273 140.295928 
L 255.537987 166.186579 
L 256.752131 265.497 
L 256.954488 273.441578 
L 257.156845 275.56455 
L 257.359202 272.522728 
L 257.763917 255.630836 
L 258.97806 174.904222 
L 259.180417 166.144311 
L 259.585131 160.961956 
L 259.787489 162.1614 
L 259.989846 166.063114 
L 260.192203 172.630741 
L 261.001632 229.636122 
L 261.406346 265.58598 
L 261.811061 284.319706 
L 262.013418 284.539275 
L 262.215775 278.792803 
L 263.227561 208.475256 
L 263.632276 196.692459 
L 263.834633 198.520694 
L 264.644062 222.006779 
L 265.048776 228.298235 
L 265.45349 241.414568 
L 265.858205 265.663807 
L 266.262919 288.918422 
L 266.465277 292.438687 
L 266.667634 293.048497 
L 266.869991 289.695778 
L 267.274705 268.439446 
L 267.67942 247.852158 
L 268.286491 229.587148 
L 268.488849 229.537436 
L 268.691206 225.938522 
L 269.09592 214.808277 
L 269.500635 207.342668 
L 269.702992 208.776303 
L 270.310063 228.973895 
L 270.512421 237.271088 
L 271.119492 274.146485 
L 271.524207 281.594865 
L 271.726564 279.28448 
L 271.928921 271.779645 
L 272.73835 226.902153 
L 274.357208 147.618777 
L 274.559565 142.672047 
L 274.964279 156.061907 
L 275.368994 174.727941 
L 275.976065 242.204993 
L 276.38078 254.90142 
L 276.583137 256.022741 
L 276.785494 251.760024 
L 278.606709 138.215163 
L 279.011423 127.778928 
L 279.213781 129.180386 
L 279.416138 134.463817 
L 279.820852 159.102747 
L 280.427924 211.678312 
L 280.832638 254.209492 
L 281.237353 271.234792 
L 281.43971 271.259218 
L 281.642067 266.259796 
L 282.451496 216.297346 
L 282.653853 209.186416 
L 283.058568 182.353595 
L 283.665639 158.566032 
L 283.867996 154.147401 
L 284.070354 152.450168 
L 284.272711 156.683892 
L 284.475068 165.956401 
L 285.891568 281.966017 
L 286.093926 285.890873 
L 286.296283 286.320304 
L 286.49864 280.978327 
L 288.724569 155.468616 
L 288.926927 150.228253 
L 289.129284 151.838062 
L 289.331641 158.268005 
L 290.14107 228.194275 
L 290.545784 260.155794 
L 290.950499 277.335273 
L 291.152856 278.555339 
L 291.355213 274.384587 
L 291.759927 257.166122 
L 291.962285 245.300776 
L 292.974071 157.415814 
L 293.378785 134.37879 
L 293.7835 124.907459 
L 293.985857 128.301549 
L 294.188214 135.829873 
L 294.997643 201.126168 
L 295.402357 242.419526 
L 295.807072 258.939246 
L 296.009429 260.862365 
L 296.211786 255.626355 
L 297.223572 176.222375 
L 297.830644 108.768554 
L 298.033001 92.644853 
L 298.437715 82.316681 
L 298.640073 82.219665 
L 299.044787 99.572053 
L 299.651859 142.086128 
L 300.461287 233.931544 
L 300.663645 238.586355 
L 300.866002 235.349391 
L 301.270716 213.771225 
L 301.877788 170.897978 
L 302.282502 123.99991 
L 302.889574 69.296117 
L 303.091931 66.743637 
L 303.496646 79.60772 
L 303.90136 111.703072 
L 305.31786 243.365714 
L 305.520218 245.861238 
L 305.722575 245.141514 
L 306.127289 230.193508 
L 307.341432 135.586145 
L 307.746147 118.157142 
L 307.948504 117.674356 
L 308.150861 121.653268 
L 308.757933 152.656229 
L 309.567362 212.898533 
L 309.972076 251.308462 
L 310.174433 262.379826 
L 310.376791 265.169515 
L 310.579148 262.794263 
L 310.983862 242.358569 
L 311.995648 159.432094 
L 312.400363 127.166038 
L 312.60272 117.097684 
L 312.805077 113.731094 
L 313.007434 113.541143 
L 313.209791 118.150637 
L 314.221578 184.602834 
L 314.828649 244.401639 
L 315.031006 249.81252 
L 315.233364 251.718754 
L 315.435721 248.886731 
L 315.638078 241.507618 
L 316.447507 193.837749 
L 317.256936 167.419269 
L 317.459293 167.99603 
L 317.864007 177.477926 
L 318.066364 182.976479 
L 318.268722 185.083998 
L 318.875793 206.387317 
L 319.280508 233.96112 
L 319.685222 259.124656 
L 320.089937 271.527812 
L 320.292294 271.369111 
L 320.494651 267.775669 
L 321.911151 203.508629 
L 322.518223 163.346867 
L 322.72058 155.250386 
L 322.922937 153.809584 
L 323.125295 153.622847 
L 323.327652 157.354512 
L 323.934723 196.477956 
L 324.541795 248.411964 
L 324.94651 265.221091 
L 325.148867 266.283151 
L 325.351224 265.587026 
L 325.755938 249.910263 
L 325.958296 237.976418 
L 326.36301 205.716364 
L 326.565367 195.438858 
L 327.172439 139.226661 
L 327.577153 124.402128 
L 327.77951 125.074228 
L 327.981868 128.250605 
L 328.184225 136.779942 
L 328.791296 185.344865 
L 329.398368 247.309598 
L 329.600725 260.081565 
L 330.00544 267.794827 
L 330.207797 263.085651 
L 330.612511 234.570982 
L 331.826655 138.213945 
L 332.029012 129.489689 
L 332.231369 129.344878 
L 332.636083 142.056599 
L 333.040798 164.087463 
L 334.457298 267.711765 
L 334.862013 271.497588 
L 335.06437 265.226002 
L 335.873799 213.401606 
L 336.076156 206.571697 
L 336.48087 185.777839 
L 336.885585 171.875649 
L 337.087942 176.107613 
L 337.290299 175.746186 
L 337.492656 178.191952 
L 338.504442 218.497044 
L 339.111514 267.563836 
L 339.516228 279.662782 
L 339.718586 277.34623 
L 340.325657 236.18552 
L 340.730372 212.205322 
L 340.932729 204.826217 
L 341.135086 191.843556 
L 341.337443 187.510146 
L 341.742158 167.329874 
L 341.944515 164.146889 
L 342.349229 153.166956 
L 342.551587 152.801581 
L 342.753944 156.689638 
L 343.361015 184.465195 
L 343.968087 240.446212 
L 344.372801 250.26037 
L 344.575159 249.960714 
L 344.777516 243.642937 
L 345.789302 183.718901 
L 346.396374 130.055359 
L 346.598731 113.509574 
L 347.003445 99.761966 
L 347.205802 100.531057 
L 347.40816 107.31008 
L 347.812874 132.323887 
L 348.419946 185.06628 
L 348.82466 228.261791 
L 349.229374 245.385292 
L 349.431732 245.438233 
L 349.836446 229.855114 
L 350.645875 180.009369 
L 351.252947 126.389116 
L 351.455304 113.840515 
L 351.860018 105.253416 
L 352.062375 105.521761 
L 352.46709 119.721549 
L 353.276519 188.205511 
L 353.681233 240.730252 
L 354.085947 256.515298 
L 354.288305 257.679001 
L 354.490662 254.010568 
L 354.895376 236.270499 
L 355.704805 171.302358 
L 356.109519 130.138025 
L 356.311877 113.557929 
L 356.716591 101.837087 
L 356.918948 100.576976 
L 357.121306 105.466544 
L 357.323663 114.272376 
L 358.133092 189.765316 
L 358.537806 240.470555 
L 358.94252 256.459471 
L 359.144878 257.947356 
L 359.347235 252.900596 
L 359.751949 235.987613 
L 360.561378 159.66431 
L 360.966092 116.133961 
L 361.370807 95.518701 
L 361.573164 93.918427 
L 361.775521 91.333996 
L 361.977879 94.585361 
L 362.180236 101.417375 
L 362.58495 132.883639 
L 363.192022 191.547037 
L 363.596736 237.801282 
L 363.799093 247.443974 
L 364.001451 246.021945 
L 364.406165 225.98633 
L 365.215594 149.6828 
L 365.822665 73.353436 
L 366.025023 59.910826 
L 366.22738 55.893635 
L 366.632094 58.712687 
L 367.036809 77.481725 
L 367.64388 126.703533 
L 368.655666 226.567543 
L 369.060381 215.610793 
L 369.667452 181.261229 
L 370.072167 144.212161 
L 370.476881 93.261225 
L 370.881596 65.979598 
L 371.083953 62.91914 
L 371.28631 65.121194 
L 371.488667 69.611325 
L 371.893382 91.679791 
L 372.905168 184.089981 
L 373.309882 226.417189 
L 373.512239 234.328353 
L 373.714597 232.739335 
L 373.916954 228.76593 
L 374.524025 197.420006 
L 374.92874 165.781424 
L 375.535811 109.159407 
L 375.738169 96.521315 
L 375.940526 93.733348 
L 376.142883 95.652823 
L 376.34524 98.729747 
L 376.749955 119.61619 
L 378.368812 249.339488 
L 378.57117 248.964257 
L 378.975884 225.914172 
L 380.392384 101.577569 
L 380.594742 93.156122 
L 380.797099 90.944616 
L 381.40417 99.421414 
L 381.808885 123.488507 
L 382.618314 183.001772 
L 383.023028 220.347403 
L 383.225385 229.155968 
L 383.427743 228.80535 
L 383.6301 221.458365 
L 384.034814 199.176092 
L 384.237171 189.274475 
L 384.237171 189.274475 
" clip-path="url(#p6d12414c0d)" style="fill: none; stroke: #ff7f0e; stroke-width: 1.5; stroke-linecap: square"/>
   </g>
   <g id="line2d_15">
    <path d="M 384.439529 174.159248 
L 384.844243 148.775053 
L 385.248957 124.123145 
L 385.451315 118.380423 
L 385.653672 115.97945 
L 385.856029 117.078711 
L 386.058386 120.305318 
L 386.463101 139.719715 
L 387.879601 243.656923 
L 388.081958 248.874875 
L 388.284316 249.663213 
L 388.486673 245.322549 
L 388.891387 225.911935 
L 389.498459 192.997233 
L 390.307888 161.987351 
L 390.510245 157.424258 
L 390.712602 158.29173 
L 391.319674 178.903195 
L 391.724388 199.533367 
L 392.129102 221.602168 
L 392.533817 246.316601 
L 392.736174 255.332312 
L 392.938531 258.671019 
L 393.140888 258.611956 
L 393.343246 253.488559 
L 393.74796 234.535824 
L 394.355032 198.111666 
L 394.962103 175.014749 
L 395.569175 168.272701 
L 395.771532 170.723684 
L 395.973889 175.554666 
L 397.39039 243.205457 
L 397.592747 248.351527 
L 397.795104 249.667968 
L 397.997461 247.760649 
L 398.402176 232.522686 
L 399.009248 202.030857 
L 400.021034 171.905145 
L 400.223391 171.202838 
L 400.425748 172.154214 
L 400.628105 176.034646 
L 401.235177 198.259146 
L 402.246963 237.269618 
L 402.44932 238.717097 
L 402.651677 238.422361 
L 402.854034 235.267419 
L 403.258749 221.87175 
L 403.86582 199.596053 
L 404.472892 183.013565 
L 404.877607 178.306399 
L 405.079964 178.794361 
L 405.282321 181.648217 
L 405.889393 198.228393 
L 406.901179 228.310588 
L 407.103536 231.336627 
L 407.305893 232.041894 
L 407.50825 230.088173 
L 407.912965 221.556061 
L 408.722393 199.382742 
L 409.127108 191.390991 
L 409.329465 188.521751 
L 409.531822 187.541245 
L 409.73418 187.78418 
L 409.936537 189.534874 
L 410.341251 196.68277 
L 411.15068 213.819731 
L 411.757752 223.849929 
L 411.960109 225.173629 
L 412.162466 224.815366 
L 412.364823 222.823705 
L 412.769538 215.447866 
L 413.376609 202.977869 
L 413.781324 197.849959 
L 414.186038 195.88659 
L 414.388395 196.209423 
L 414.590752 197.215697 
L 414.79311 199.012616 
L 415.602539 211.477478 
L 416.411967 218.453857 
L 416.614325 219.624877 
L 416.816682 219.878084 
L 417.019039 218.881689 
L 417.423753 214.673173 
L 418.030825 205.996608 
L 418.435539 202.751866 
L 418.637897 201.948649 
L 418.840254 201.987025 
L 419.244968 203.446011 
L 420.661469 213.980364 
L 421.066183 215.399644 
L 421.26854 215.82678 
L 421.470898 215.952039 
L 421.875612 214.455685 
L 423.089755 205.798905 
L 423.292112 205.627924 
L 423.49447 205.824649 
L 423.899184 207.572057 
L 424.506256 210.459493 
L 425.113327 212.782054 
L 425.518042 213.288479 
L 425.922756 213.23431 
L 426.327471 212.941624 
L 426.732185 211.741454 
L 427.339257 209.329877 
L 427.743971 208.321532 
L 427.946328 208.299383 
L 428.351043 209.102875 
L 429.767543 212.291939 
L 430.172257 212.437986 
L 430.576972 212.277323 
L 430.779329 212.193247 
L 431.588758 211.137195 
L 432.19583 210.423165 
L 432.600544 210.268794 
L 433.005258 210.524505 
L 434.624116 212.026907 
L 435.02883 211.976203 
L 435.635902 211.596745 
L 436.445331 211.081705 
L 437.25476 210.832252 
L 437.861831 211.055277 
L 438.873617 211.58313 
L 439.480689 211.702043 
L 440.087761 211.553647 
L 441.301904 211.199561 
L 442.111333 211.242931 
L 444.134905 211.638384 
L 445.349048 211.411346 
L 446.360834 211.347726 
L 450.407978 211.358511 
L 451.824479 211.425769 
L 453.645694 211.476019 
L 456.681052 211.478784 
L 459.109338 211.442272 
L 464.370626 211.437303 
L 473.881414 211.442331 
L 508.889211 211.45015 
L 518.4 211.451183 
L 518.4 211.451183 
" clip-path="url(#p6d12414c0d)" style="fill: none; stroke: #2ca02c; stroke-width: 1.5; stroke-linecap: square"/>
   </g>
   <g id="patch_3">
    <path d="M 72 320.4 
L 72 43.2 
" style="fill: none; stroke: #000000; stroke-width: 0.8; stroke-linejoin: miter; stroke-linecap: square"/>
   </g>
   <g id="patch_4">
    <path d="M 518.4 320.4 
L 518.4 43.2 
" style="fill: none; stroke: #000000; stroke-width: 0.8; stroke-linejoin: miter; stroke-linecap: square"/>
   </g>
   <g id="patch_5">
    <path d="M 72 320.4 
L 518.4 320.4 
" style="fill: none; stroke: #000000; stroke-width: 0.8; stroke-linejoin: miter; stroke-linecap: square"/>
   </g>
   <g id="patch_6">
    <path d="M 72 43.2 
L 518.4 43.2 
" style="fill: none; stroke: #000000; stroke-width: 0.8; stroke-linejoin: miter; stroke-linecap: square"/>
   </g>
   <g id="text_13">
    <!-- Classic Transformer - model_20231123164527 -->
    <g transform="translate(155.436563 37.2) scale(0.12 -0.12)">
     <defs>
      <path id="DejaVuSans-43" d="M 4122 4306 
L 4122 3641 
Q 3803 3938 3442 4084 
Q 3081 4231 2675 4231 
Q 1875 4231 1450 3742 
Q 1025 3253 1025 2328 
Q 1025 1406 1450 917 
Q 1875 428 2675 428 
Q 3081 428 3442 575 
Q 3803 722 4122 1019 
L 4122 359 
Q 3791 134 3420 21 
Q 3050 -91 2638 -91 
Q 1578 -91 968 557 
Q 359 1206 359 2328 
Q 359 3453 968 4101 
Q 1578 4750 2638 4750 
Q 3056 4750 3426 4639 
Q 3797 4528 4122 4306 
z
" transform="scale(0.015625)"/>
      <path id="DejaVuSans-6c" d="M 603 4863 
L 1178 4863 
L 1178 0 
L 603 0 
L 603 4863 
z
" transform="scale(0.015625)"/>
      <path id="DejaVuSans-61" d="M 2194 1759 
Q 1497 1759 1228 1600 
Q 959 1441 959 1056 
Q 959 750 1161 570 
Q 1363 391 1709 391 
Q 2188 391 2477 730 
Q 2766 1069 2766 1631 
L 2766 1759 
L 2194 1759 
z
M 3341 1997 
L 3341 0 
L 2766 0 
L 2766 531 
Q 2569 213 2275 61 
Q 1981 -91 1556 -91 
Q 1019 -91 701 211 
Q 384 513 384 1019 
Q 384 1609 779 1909 
Q 1175 2209 1959 2209 
L 2766 2209 
L 2766 2266 
Q 2766 2663 2505 2880 
Q 2244 3097 1772 3097 
Q 1472 3097 1187 3025 
Q 903 2953 641 2809 
L 641 3341 
Q 956 3463 1253 3523 
Q 1550 3584 1831 3584 
Q 2591 3584 2966 3190 
Q 3341 2797 3341 1997 
z
" transform="scale(0.015625)"/>
      <path id="DejaVuSans-73" d="M 2834 3397 
L 2834 2853 
Q 2591 2978 2328 3040 
Q 2066 3103 1784 3103 
Q 1356 3103 1142 2972 
Q 928 2841 928 2578 
Q 928 2378 1081 2264 
Q 1234 2150 1697 2047 
L 1894 2003 
Q 2506 1872 2764 1633 
Q 3022 1394 3022 966 
Q 3022 478 2636 193 
Q 2250 -91 1575 -91 
Q 1294 -91 989 -36 
Q 684 19 347 128 
L 347 722 
Q 666 556 975 473 
Q 1284 391 1588 391 
Q 1994 391 2212 530 
Q 2431 669 2431 922 
Q 2431 1156 2273 1281 
Q 2116 1406 1581 1522 
L 1381 1569 
Q 847 1681 609 1914 
Q 372 2147 372 2553 
Q 372 3047 722 3315 
Q 1072 3584 1716 3584 
Q 2034 3584 2315 3537 
Q 2597 3491 2834 3397 
z
" transform="scale(0.015625)"/>
      <path id="DejaVuSans-69" d="M 603 3500 
L 1178 3500 
L 1178 0 
L 603 0 
L 603 3500 
z
M 603 4863 
L 1178 4863 
L 1178 4134 
L 603 4134 
L 603 4863 
z
" transform="scale(0.015625)"/>
      <path id="DejaVuSans-63" d="M 3122 3366 
L 3122 2828 
Q 2878 2963 2633 3030 
Q 2388 3097 2138 3097 
Q 1578 3097 1268 2742 
Q 959 2388 959 1747 
Q 959 1106 1268 751 
Q 1578 397 2138 397 
Q 2388 397 2633 464 
Q 2878 531 3122 666 
L 3122 134 
Q 2881 22 2623 -34 
Q 2366 -91 2075 -91 
Q 1284 -91 818 406 
Q 353 903 353 1747 
Q 353 2603 823 3093 
Q 1294 3584 2113 3584 
Q 2378 3584 2631 3529 
Q 2884 3475 3122 3366 
z
" transform="scale(0.015625)"/>
      <path id="DejaVuSans-20" transform="scale(0.015625)"/>
      <path id="DejaVuSans-54" d="M -19 4666 
L 3928 4666 
L 3928 4134 
L 2272 4134 
L 2272 0 
L 1638 0 
L 1638 4134 
L -19 4134 
L -19 4666 
z
" transform="scale(0.015625)"/>
      <path id="DejaVuSans-72" d="M 2631 2963 
Q 2534 3019 2420 3045 
Q 2306 3072 2169 3072 
Q 1681 3072 1420 2755 
Q 1159 2438 1159 1844 
L 1159 0 
L 581 0 
L 581 3500 
L 1159 3500 
L 1159 2956 
Q 1341 3275 1631 3429 
Q 1922 3584 2338 3584 
Q 2397 3584 2469 3576 
Q 2541 3569 2628 3553 
L 2631 2963 
z
" transform="scale(0.015625)"/>
      <path id="DejaVuSans-6e" d="M 3513 2113 
L 3513 0 
L 2938 0 
L 2938 2094 
Q 2938 2591 2744 2837 
Q 2550 3084 2163 3084 
Q 1697 3084 1428 2787 
Q 1159 2491 1159 1978 
L 1159 0 
L 581 0 
L 581 3500 
L 1159 3500 
L 1159 2956 
Q 1366 3272 1645 3428 
Q 1925 3584 2291 3584 
Q 2894 3584 3203 3211 
Q 3513 2838 3513 2113 
z
" transform="scale(0.015625)"/>
      <path id="DejaVuSans-66" d="M 2375 4863 
L 2375 4384 
L 1825 4384 
Q 1516 4384 1395 4259 
Q 1275 4134 1275 3809 
L 1275 3500 
L 2222 3500 
L 2222 3053 
L 1275 3053 
L 1275 0 
L 697 0 
L 697 3053 
L 147 3053 
L 147 3500 
L 697 3500 
L 697 3744 
Q 697 4328 969 4595 
Q 1241 4863 1831 4863 
L 2375 4863 
z
" transform="scale(0.015625)"/>
      <path id="DejaVuSans-6f" d="M 1959 3097 
Q 1497 3097 1228 2736 
Q 959 2375 959 1747 
Q 959 1119 1226 758 
Q 1494 397 1959 397 
Q 2419 397 2687 759 
Q 2956 1122 2956 1747 
Q 2956 2369 2687 2733 
Q 2419 3097 1959 3097 
z
M 1959 3584 
Q 2709 3584 3137 3096 
Q 3566 2609 3566 1747 
Q 3566 888 3137 398 
Q 2709 -91 1959 -91 
Q 1206 -91 779 398 
Q 353 888 353 1747 
Q 353 2609 779 3096 
Q 1206 3584 1959 3584 
z
" transform="scale(0.015625)"/>
      <path id="DejaVuSans-6d" d="M 3328 2828 
Q 3544 3216 3844 3400 
Q 4144 3584 4550 3584 
Q 5097 3584 5394 3201 
Q 5691 2819 5691 2113 
L 5691 0 
L 5113 0 
L 5113 2094 
Q 5113 2597 4934 2840 
Q 4756 3084 4391 3084 
Q 3944 3084 3684 2787 
Q 3425 2491 3425 1978 
L 3425 0 
L 2847 0 
L 2847 2094 
Q 2847 2600 2669 2842 
Q 2491 3084 2119 3084 
Q 1678 3084 1418 2786 
Q 1159 2488 1159 1978 
L 1159 0 
L 581 0 
L 581 3500 
L 1159 3500 
L 1159 2956 
Q 1356 3278 1631 3431 
Q 1906 3584 2284 3584 
Q 2666 3584 2933 3390 
Q 3200 3197 3328 2828 
z
" transform="scale(0.015625)"/>
      <path id="DejaVuSans-65" d="M 3597 1894 
L 3597 1613 
L 953 1613 
Q 991 1019 1311 708 
Q 1631 397 2203 397 
Q 2534 397 2845 478 
Q 3156 559 3463 722 
L 3463 178 
Q 3153 47 2828 -22 
Q 2503 -91 2169 -91 
Q 1331 -91 842 396 
Q 353 884 353 1716 
Q 353 2575 817 3079 
Q 1281 3584 2069 3584 
Q 2775 3584 3186 3129 
Q 3597 2675 3597 1894 
z
M 3022 2063 
Q 3016 2534 2758 2815 
Q 2500 3097 2075 3097 
Q 1594 3097 1305 2825 
Q 1016 2553 972 2059 
L 3022 2063 
z
" transform="scale(0.015625)"/>
      <path id="DejaVuSans-64" d="M 2906 2969 
L 2906 4863 
L 3481 4863 
L 3481 0 
L 2906 0 
L 2906 525 
Q 2725 213 2448 61 
Q 2172 -91 1784 -91 
Q 1150 -91 751 415 
Q 353 922 353 1747 
Q 353 2572 751 3078 
Q 1150 3584 1784 3584 
Q 2172 3584 2448 3432 
Q 2725 3281 2906 2969 
z
M 947 1747 
Q 947 1113 1208 752 
Q 1469 391 1925 391 
Q 2381 391 2643 752 
Q 2906 1113 2906 1747 
Q 2906 2381 2643 2742 
Q 2381 3103 1925 3103 
Q 1469 3103 1208 2742 
Q 947 2381 947 1747 
z
" transform="scale(0.015625)"/>
      <path id="DejaVuSans-5f" d="M 3263 -1063 
L 3263 -1509 
L -63 -1509 
L -63 -1063 
L 3263 -1063 
z
" transform="scale(0.015625)"/>
      <path id="DejaVuSans-34" d="M 2419 4116 
L 825 1625 
L 2419 1625 
L 2419 4116 
z
M 2253 4666 
L 3047 4666 
L 3047 1625 
L 3713 1625 
L 3713 1100 
L 3047 1100 
L 3047 0 
L 2419 0 
L 2419 1100 
L 313 1100 
L 313 1709 
L 2253 4666 
z
" transform="scale(0.015625)"/>
     </defs>
     <use xlink:href="#DejaVuSans-43"/>
     <use xlink:href="#DejaVuSans-6c" x="69.824219"/>
     <use xlink:href="#DejaVuSans-61" x="97.607422"/>
     <use xlink:href="#DejaVuSans-73" x="158.886719"/>
     <use xlink:href="#DejaVuSans-73" x="210.986328"/>
     <use xlink:href="#DejaVuSans-69" x="263.085938"/>
     <use xlink:href="#DejaVuSans-63" x="290.869141"/>
     <use xlink:href="#DejaVuSans-20" x="345.849609"/>
     <use xlink:href="#DejaVuSans-54" x="377.636719"/>
     <use xlink:href="#DejaVuSans-72" x="423.970703"/>
     <use xlink:href="#DejaVuSans-61" x="465.083984"/>
     <use xlink:href="#DejaVuSans-6e" x="526.363281"/>
     <use xlink:href="#DejaVuSans-73" x="589.742188"/>
     <use xlink:href="#DejaVuSans-66" x="641.841797"/>
     <use xlink:href="#DejaVuSans-6f" x="677.046875"/>
     <use xlink:href="#DejaVuSans-72" x="738.228516"/>
     <use xlink:href="#DejaVuSans-6d" x="777.591797"/>
     <use xlink:href="#DejaVuSans-65" x="875.003906"/>
     <use xlink:href="#DejaVuSans-72" x="936.527344"/>
     <use xlink:href="#DejaVuSans-20" x="977.640625"/>
     <use xlink:href="#DejaVuSans-2d" x="1009.427734"/>
     <use xlink:href="#DejaVuSans-20" x="1045.511719"/>
     <use xlink:href="#DejaVuSans-6d" x="1077.298828"/>
     <use xlink:href="#DejaVuSans-6f" x="1174.710938"/>
     <use xlink:href="#DejaVuSans-64" x="1235.892578"/>
     <use xlink:href="#DejaVuSans-65" x="1299.369141"/>
     <use xlink:href="#DejaVuSans-6c" x="1360.892578"/>
     <use xlink:href="#DejaVuSans-5f" x="1388.675781"/>
     <use xlink:href="#DejaVuSans-32" x="1438.675781"/>
     <use xlink:href="#DejaVuSans-30" x="1502.298828"/>
     <use xlink:href="#DejaVuSans-32" x="1565.921875"/>
     <use xlink:href="#DejaVuSans-33" x="1629.544922"/>
     <use xlink:href="#DejaVuSans-31" x="1693.167969"/>
     <use xlink:href="#DejaVuSans-31" x="1756.791016"/>
     <use xlink:href="#DejaVuSans-32" x="1820.414062"/>
     <use xlink:href="#DejaVuSans-33" x="1884.037109"/>
     <use xlink:href="#DejaVuSans-31" x="1947.660156"/>
     <use xlink:href="#DejaVuSans-36" x="2011.283203"/>
     <use xlink:href="#DejaVuSans-34" x="2074.90625"/>
     <use xlink:href="#DejaVuSans-35" x="2138.529297"/>
     <use xlink:href="#DejaVuSans-32" x="2202.152344"/>
     <use xlink:href="#DejaVuSans-37" x="2265.775391"/>
    </g>
   </g>
   <g id="legend_1">
    <g id="patch_7">
     <path d="M 79 95.234375 
L 161.517188 95.234375 
Q 163.517188 95.234375 163.517188 93.234375 
L 163.517188 50.2 
Q 163.517188 48.2 161.517188 48.2 
L 79 48.2 
Q 77 48.2 77 50.2 
L 77 93.234375 
Q 77 95.234375 79 95.234375 
z
" style="fill: #ffffff; opacity: 0.8; stroke: #cccccc; stroke-linejoin: miter"/>
    </g>
    <g id="line2d_16">
     <path d="M 81 56.298437 
L 91 56.298437 
L 101 56.298437 
" style="fill: none; stroke: #1f77b4; stroke-width: 1.5; stroke-linecap: square"/>
    </g>
    <g id="text_14">
     <!-- Measured -->
     <g transform="translate(109 59.798437) scale(0.1 -0.1)">
      <defs>
       <path id="DejaVuSans-4d" d="M 628 4666 
L 1569 4666 
L 2759 1491 
L 3956 4666 
L 4897 4666 
L 4897 0 
L 4281 0 
L 4281 4097 
L 3078 897 
L 2444 897 
L 1241 4097 
L 1241 0 
L 628 0 
L 628 4666 
z
" transform="scale(0.015625)"/>
       <path id="DejaVuSans-75" d="M 544 1381 
L 544 3500 
L 1119 3500 
L 1119 1403 
Q 1119 906 1312 657 
Q 1506 409 1894 409 
Q 2359 409 2629 706 
Q 2900 1003 2900 1516 
L 2900 3500 
L 3475 3500 
L 3475 0 
L 2900 0 
L 2900 538 
Q 2691 219 2414 64 
Q 2138 -91 1772 -91 
Q 1169 -91 856 284 
Q 544 659 544 1381 
z
M 1991 3584 
L 1991 3584 
z
" transform="scale(0.015625)"/>
      </defs>
      <use xlink:href="#DejaVuSans-4d"/>
      <use xlink:href="#DejaVuSans-65" x="86.279297"/>
      <use xlink:href="#DejaVuSans-61" x="147.802734"/>
      <use xlink:href="#DejaVuSans-73" x="209.082031"/>
      <use xlink:href="#DejaVuSans-75" x="261.181641"/>
      <use xlink:href="#DejaVuSans-72" x="324.560547"/>
      <use xlink:href="#DejaVuSans-65" x="363.423828"/>
      <use xlink:href="#DejaVuSans-64" x="424.947266"/>
     </g>
    </g>
    <g id="line2d_17">
     <path d="M 81 70.976562 
L 91 70.976562 
L 101 70.976562 
" style="fill: none; stroke: #ff7f0e; stroke-width: 1.5; stroke-linecap: square"/>
    </g>
    <g id="text_15">
     <!-- Fitted -->
     <g transform="translate(109 74.476562) scale(0.1 -0.1)">
      <defs>
       <path id="DejaVuSans-46" d="M 628 4666 
L 3309 4666 
L 3309 4134 
L 1259 4134 
L 1259 2759 
L 3109 2759 
L 3109 2228 
L 1259 2228 
L 1259 0 
L 628 0 
L 628 4666 
z
" transform="scale(0.015625)"/>
       <path id="DejaVuSans-74" d="M 1172 4494 
L 1172 3500 
L 2356 3500 
L 2356 3053 
L 1172 3053 
L 1172 1153 
Q 1172 725 1289 603 
Q 1406 481 1766 481 
L 2356 481 
L 2356 0 
L 1766 0 
Q 1100 0 847 248 
Q 594 497 594 1153 
L 594 3053 
L 172 3053 
L 172 3500 
L 594 3500 
L 594 4494 
L 1172 4494 
z
" transform="scale(0.015625)"/>
      </defs>
      <use xlink:href="#DejaVuSans-46"/>
      <use xlink:href="#DejaVuSans-69" x="50.269531"/>
      <use xlink:href="#DejaVuSans-74" x="78.052734"/>
      <use xlink:href="#DejaVuSans-74" x="117.261719"/>
      <use xlink:href="#DejaVuSans-65" x="156.470703"/>
      <use xlink:href="#DejaVuSans-64" x="217.994141"/>
     </g>
    </g>
    <g id="line2d_18">
     <path d="M 81 85.654687 
L 91 85.654687 
L 101 85.654687 
" style="fill: none; stroke: #2ca02c; stroke-width: 1.5; stroke-linecap: square"/>
    </g>
    <g id="text_16">
     <!-- Estimated -->
     <g transform="translate(109 89.154687) scale(0.1 -0.1)">
      <defs>
       <path id="DejaVuSans-45" d="M 628 4666 
L 3578 4666 
L 3578 4134 
L 1259 4134 
L 1259 2753 
L 3481 2753 
L 3481 2222 
L 1259 2222 
L 1259 531 
L 3634 531 
L 3634 0 
L 628 0 
L 628 4666 
z
" transform="scale(0.015625)"/>
      </defs>
      <use xlink:href="#DejaVuSans-45"/>
      <use xlink:href="#DejaVuSans-73" x="63.183594"/>
      <use xlink:href="#DejaVuSans-74" x="115.283203"/>
      <use xlink:href="#DejaVuSans-69" x="154.492188"/>
      <use xlink:href="#DejaVuSans-6d" x="182.275391"/>
      <use xlink:href="#DejaVuSans-61" x="279.6875"/>
      <use xlink:href="#DejaVuSans-74" x="340.966797"/>
      <use xlink:href="#DejaVuSans-65" x="380.175781"/>
      <use xlink:href="#DejaVuSans-64" x="441.699219"/>
     </g>
    </g>
   </g>
  </g>
 </g>
 <defs>
  <clipPath id="p6d12414c0d">
   <rect x="72" y="43.2" width="446.4" height="277.2"/>
  </clipPath>
 </defs>
</svg>
