<?xml version="1.0" encoding="utf-8" standalone="no"?>
<!DOCTYPE svg PUBLIC "-//W3C//DTD SVG 1.1//EN"
  "http://www.w3.org/Graphics/SVG/1.1/DTD/svg11.dtd">
<svg xmlns:xlink="http://www.w3.org/1999/xlink" width="576pt" height="360pt" viewBox="0 0 576 360" xmlns="http://www.w3.org/2000/svg" version="1.1">
 <metadata>
  <rdf:RDF xmlns:dc="http://purl.org/dc/elements/1.1/" xmlns:cc="http://creativecommons.org/ns#" xmlns:rdf="http://www.w3.org/1999/02/22-rdf-syntax-ns#">
   <cc:Work>
    <dc:type rdf:resource="http://purl.org/dc/dcmitype/StillImage"/>
    <dc:date>2023-11-26T16:27:30.086577</dc:date>
    <dc:format>image/svg+xml</dc:format>
    <dc:creator>
     <cc:Agent>
      <dc:title>Matplotlib v3.8.1, https://matplotlib.org/</dc:title>
     </cc:Agent>
    </dc:creator>
   </cc:Work>
  </rdf:RDF>
 </metadata>
 <defs>
  <style type="text/css">*{stroke-linejoin: round; stroke-linecap: butt}</style>
 </defs>
 <g id="figure_1">
  <g id="patch_1">
   <path d="M 0 360 
L 576 360 
L 576 0 
L 0 0 
z
" style="fill: #ffffff"/>
  </g>
  <g id="axes_1">
   <g id="patch_2">
    <path d="M 72 320.4 
L 518.4 320.4 
L 518.4 43.2 
L 72 43.2 
z
" style="fill: #ffffff"/>
   </g>
   <g id="matplotlib.axis_1">
    <g id="xtick_1">
     <g id="line2d_1">
      <defs>
       <path id="m782ff7f6cb" d="M 0 0 
L 0 3.5 
" style="stroke: #000000; stroke-width: 0.8"/>
      </defs>
      <g>
       <use xlink:href="#m782ff7f6cb" x="129.874161" y="320.4" style="stroke: #000000; stroke-width: 0.8"/>
      </g>
     </g>
     <g id="text_1">
      <!-- 2020-05-15 -->
      <g transform="translate(100.816349 334.998438) scale(0.1 -0.1)">
       <defs>
        <path id="DejaVuSans-32" d="M 1228 531 
L 3431 531 
L 3431 0 
L 469 0 
L 469 531 
Q 828 903 1448 1529 
Q 2069 2156 2228 2338 
Q 2531 2678 2651 2914 
Q 2772 3150 2772 3378 
Q 2772 3750 2511 3984 
Q 2250 4219 1831 4219 
Q 1534 4219 1204 4116 
Q 875 4013 500 3803 
L 500 4441 
Q 881 4594 1212 4672 
Q 1544 4750 1819 4750 
Q 2544 4750 2975 4387 
Q 3406 4025 3406 3419 
Q 3406 3131 3298 2873 
Q 3191 2616 2906 2266 
Q 2828 2175 2409 1742 
Q 1991 1309 1228 531 
z
" transform="scale(0.015625)"/>
        <path id="DejaVuSans-30" d="M 2034 4250 
Q 1547 4250 1301 3770 
Q 1056 3291 1056 2328 
Q 1056 1369 1301 889 
Q 1547 409 2034 409 
Q 2525 409 2770 889 
Q 3016 1369 3016 2328 
Q 3016 3291 2770 3770 
Q 2525 4250 2034 4250 
z
M 2034 4750 
Q 2819 4750 3233 4129 
Q 3647 3509 3647 2328 
Q 3647 1150 3233 529 
Q 2819 -91 2034 -91 
Q 1250 -91 836 529 
Q 422 1150 422 2328 
Q 422 3509 836 4129 
Q 1250 4750 2034 4750 
z
" transform="scale(0.015625)"/>
        <path id="DejaVuSans-2d" d="M 313 2009 
L 1997 2009 
L 1997 1497 
L 313 1497 
L 313 2009 
z
" transform="scale(0.015625)"/>
        <path id="DejaVuSans-35" d="M 691 4666 
L 3169 4666 
L 3169 4134 
L 1269 4134 
L 1269 2991 
Q 1406 3038 1543 3061 
Q 1681 3084 1819 3084 
Q 2600 3084 3056 2656 
Q 3513 2228 3513 1497 
Q 3513 744 3044 326 
Q 2575 -91 1722 -91 
Q 1428 -91 1123 -41 
Q 819 9 494 109 
L 494 744 
Q 775 591 1075 516 
Q 1375 441 1709 441 
Q 2250 441 2565 725 
Q 2881 1009 2881 1497 
Q 2881 1984 2565 2268 
Q 2250 2553 1709 2553 
Q 1456 2553 1204 2497 
Q 953 2441 691 2322 
L 691 4666 
z
" transform="scale(0.015625)"/>
        <path id="DejaVuSans-31" d="M 794 531 
L 1825 531 
L 1825 4091 
L 703 3866 
L 703 4441 
L 1819 4666 
L 2450 4666 
L 2450 531 
L 3481 531 
L 3481 0 
L 794 0 
L 794 531 
z
" transform="scale(0.015625)"/>
       </defs>
       <use xlink:href="#DejaVuSans-32"/>
       <use xlink:href="#DejaVuSans-30" x="63.623047"/>
       <use xlink:href="#DejaVuSans-32" x="127.246094"/>
       <use xlink:href="#DejaVuSans-30" x="190.869141"/>
       <use xlink:href="#DejaVuSans-2d" x="254.492188"/>
       <use xlink:href="#DejaVuSans-30" x="290.576172"/>
       <use xlink:href="#DejaVuSans-35" x="354.199219"/>
       <use xlink:href="#DejaVuSans-2d" x="417.822266"/>
       <use xlink:href="#DejaVuSans-31" x="453.90625"/>
       <use xlink:href="#DejaVuSans-35" x="517.529297"/>
      </g>
     </g>
    </g>
    <g id="xtick_2">
     <g id="line2d_2">
      <g>
       <use xlink:href="#m782ff7f6cb" x="212.435902" y="320.4" style="stroke: #000000; stroke-width: 0.8"/>
      </g>
     </g>
     <g id="text_2">
      <!-- 2020-06-01 -->
      <g transform="translate(183.37809 334.998438) scale(0.1 -0.1)">
       <defs>
        <path id="DejaVuSans-36" d="M 2113 2584 
Q 1688 2584 1439 2293 
Q 1191 2003 1191 1497 
Q 1191 994 1439 701 
Q 1688 409 2113 409 
Q 2538 409 2786 701 
Q 3034 994 3034 1497 
Q 3034 2003 2786 2293 
Q 2538 2584 2113 2584 
z
M 3366 4563 
L 3366 3988 
Q 3128 4100 2886 4159 
Q 2644 4219 2406 4219 
Q 1781 4219 1451 3797 
Q 1122 3375 1075 2522 
Q 1259 2794 1537 2939 
Q 1816 3084 2150 3084 
Q 2853 3084 3261 2657 
Q 3669 2231 3669 1497 
Q 3669 778 3244 343 
Q 2819 -91 2113 -91 
Q 1303 -91 875 529 
Q 447 1150 447 2328 
Q 447 3434 972 4092 
Q 1497 4750 2381 4750 
Q 2619 4750 2861 4703 
Q 3103 4656 3366 4563 
z
" transform="scale(0.015625)"/>
       </defs>
       <use xlink:href="#DejaVuSans-32"/>
       <use xlink:href="#DejaVuSans-30" x="63.623047"/>
       <use xlink:href="#DejaVuSans-32" x="127.246094"/>
       <use xlink:href="#DejaVuSans-30" x="190.869141"/>
       <use xlink:href="#DejaVuSans-2d" x="254.492188"/>
       <use xlink:href="#DejaVuSans-30" x="290.576172"/>
       <use xlink:href="#DejaVuSans-36" x="354.199219"/>
       <use xlink:href="#DejaVuSans-2d" x="417.822266"/>
       <use xlink:href="#DejaVuSans-30" x="453.90625"/>
       <use xlink:href="#DejaVuSans-31" x="517.529297"/>
      </g>
     </g>
    </g>
    <g id="xtick_3">
     <g id="line2d_3">
      <g>
       <use xlink:href="#m782ff7f6cb" x="280.427924" y="320.4" style="stroke: #000000; stroke-width: 0.8"/>
      </g>
     </g>
     <g id="text_3">
      <!-- 2020-06-15 -->
      <g transform="translate(251.370111 334.998438) scale(0.1 -0.1)">
       <use xlink:href="#DejaVuSans-32"/>
       <use xlink:href="#DejaVuSans-30" x="63.623047"/>
       <use xlink:href="#DejaVuSans-32" x="127.246094"/>
       <use xlink:href="#DejaVuSans-30" x="190.869141"/>
       <use xlink:href="#DejaVuSans-2d" x="254.492188"/>
       <use xlink:href="#DejaVuSans-30" x="290.576172"/>
       <use xlink:href="#DejaVuSans-36" x="354.199219"/>
       <use xlink:href="#DejaVuSans-2d" x="417.822266"/>
       <use xlink:href="#DejaVuSans-31" x="453.90625"/>
       <use xlink:href="#DejaVuSans-35" x="517.529297"/>
      </g>
     </g>
    </g>
    <g id="xtick_4">
     <g id="line2d_4">
      <g>
       <use xlink:href="#m782ff7f6cb" x="358.133092" y="320.4" style="stroke: #000000; stroke-width: 0.8"/>
      </g>
     </g>
     <g id="text_4">
      <!-- 2020-07-01 -->
      <g transform="translate(329.075279 334.998438) scale(0.1 -0.1)">
       <defs>
        <path id="DejaVuSans-37" d="M 525 4666 
L 3525 4666 
L 3525 4397 
L 1831 0 
L 1172 0 
L 2766 4134 
L 525 4134 
L 525 4666 
z
" transform="scale(0.015625)"/>
       </defs>
       <use xlink:href="#DejaVuSans-32"/>
       <use xlink:href="#DejaVuSans-30" x="63.623047"/>
       <use xlink:href="#DejaVuSans-32" x="127.246094"/>
       <use xlink:href="#DejaVuSans-30" x="190.869141"/>
       <use xlink:href="#DejaVuSans-2d" x="254.492188"/>
       <use xlink:href="#DejaVuSans-30" x="290.576172"/>
       <use xlink:href="#DejaVuSans-37" x="354.199219"/>
       <use xlink:href="#DejaVuSans-2d" x="417.822266"/>
       <use xlink:href="#DejaVuSans-30" x="453.90625"/>
       <use xlink:href="#DejaVuSans-31" x="517.529297"/>
      </g>
     </g>
    </g>
    <g id="xtick_5">
     <g id="line2d_5">
      <g>
       <use xlink:href="#m782ff7f6cb" x="426.125113" y="320.4" style="stroke: #000000; stroke-width: 0.8"/>
      </g>
     </g>
     <g id="text_5">
      <!-- 2020-07-15 -->
      <g transform="translate(397.067301 334.998438) scale(0.1 -0.1)">
       <use xlink:href="#DejaVuSans-32"/>
       <use xlink:href="#DejaVuSans-30" x="63.623047"/>
       <use xlink:href="#DejaVuSans-32" x="127.246094"/>
       <use xlink:href="#DejaVuSans-30" x="190.869141"/>
       <use xlink:href="#DejaVuSans-2d" x="254.492188"/>
       <use xlink:href="#DejaVuSans-30" x="290.576172"/>
       <use xlink:href="#DejaVuSans-37" x="354.199219"/>
       <use xlink:href="#DejaVuSans-2d" x="417.822266"/>
       <use xlink:href="#DejaVuSans-31" x="453.90625"/>
       <use xlink:href="#DejaVuSans-35" x="517.529297"/>
      </g>
     </g>
    </g>
    <g id="xtick_6">
     <g id="line2d_6">
      <g>
       <use xlink:href="#m782ff7f6cb" x="508.686854" y="320.4" style="stroke: #000000; stroke-width: 0.8"/>
      </g>
     </g>
     <g id="text_6">
      <!-- 2020-08-01 -->
      <g transform="translate(479.629042 334.998438) scale(0.1 -0.1)">
       <defs>
        <path id="DejaVuSans-38" d="M 2034 2216 
Q 1584 2216 1326 1975 
Q 1069 1734 1069 1313 
Q 1069 891 1326 650 
Q 1584 409 2034 409 
Q 2484 409 2743 651 
Q 3003 894 3003 1313 
Q 3003 1734 2745 1975 
Q 2488 2216 2034 2216 
z
M 1403 2484 
Q 997 2584 770 2862 
Q 544 3141 544 3541 
Q 544 4100 942 4425 
Q 1341 4750 2034 4750 
Q 2731 4750 3128 4425 
Q 3525 4100 3525 3541 
Q 3525 3141 3298 2862 
Q 3072 2584 2669 2484 
Q 3125 2378 3379 2068 
Q 3634 1759 3634 1313 
Q 3634 634 3220 271 
Q 2806 -91 2034 -91 
Q 1263 -91 848 271 
Q 434 634 434 1313 
Q 434 1759 690 2068 
Q 947 2378 1403 2484 
z
M 1172 3481 
Q 1172 3119 1398 2916 
Q 1625 2713 2034 2713 
Q 2441 2713 2670 2916 
Q 2900 3119 2900 3481 
Q 2900 3844 2670 4047 
Q 2441 4250 2034 4250 
Q 1625 4250 1398 4047 
Q 1172 3844 1172 3481 
z
" transform="scale(0.015625)"/>
       </defs>
       <use xlink:href="#DejaVuSans-32"/>
       <use xlink:href="#DejaVuSans-30" x="63.623047"/>
       <use xlink:href="#DejaVuSans-32" x="127.246094"/>
       <use xlink:href="#DejaVuSans-30" x="190.869141"/>
       <use xlink:href="#DejaVuSans-2d" x="254.492188"/>
       <use xlink:href="#DejaVuSans-30" x="290.576172"/>
       <use xlink:href="#DejaVuSans-38" x="354.199219"/>
       <use xlink:href="#DejaVuSans-2d" x="417.822266"/>
       <use xlink:href="#DejaVuSans-30" x="453.90625"/>
       <use xlink:href="#DejaVuSans-31" x="517.529297"/>
      </g>
     </g>
    </g>
   </g>
   <g id="matplotlib.axis_2">
    <g id="ytick_1">
     <g id="line2d_7">
      <defs>
       <path id="m479ce4a0d9" d="M 0 0 
L -3.5 0 
" style="stroke: #000000; stroke-width: 0.8"/>
      </defs>
      <g>
       <use xlink:href="#m479ce4a0d9" x="72" y="314.825921" style="stroke: #000000; stroke-width: 0.8"/>
      </g>
     </g>
     <g id="text_7">
      <!-- −2 -->
      <g transform="translate(50.257812 318.62514) scale(0.1 -0.1)">
       <defs>
        <path id="DejaVuSans-2212" d="M 678 2272 
L 4684 2272 
L 4684 1741 
L 678 1741 
L 678 2272 
z
" transform="scale(0.015625)"/>
       </defs>
       <use xlink:href="#DejaVuSans-2212"/>
       <use xlink:href="#DejaVuSans-32" x="83.789062"/>
      </g>
     </g>
    </g>
    <g id="ytick_2">
     <g id="line2d_8">
      <g>
       <use xlink:href="#m479ce4a0d9" x="72" y="268.899457" style="stroke: #000000; stroke-width: 0.8"/>
      </g>
     </g>
     <g id="text_8">
      <!-- −1 -->
      <g transform="translate(50.257812 272.698676) scale(0.1 -0.1)">
       <use xlink:href="#DejaVuSans-2212"/>
       <use xlink:href="#DejaVuSans-31" x="83.789062"/>
      </g>
     </g>
    </g>
    <g id="ytick_3">
     <g id="line2d_9">
      <g>
       <use xlink:href="#m479ce4a0d9" x="72" y="222.972992" style="stroke: #000000; stroke-width: 0.8"/>
      </g>
     </g>
     <g id="text_9">
      <!-- 0 -->
      <g transform="translate(58.6375 226.772211) scale(0.1 -0.1)">
       <use xlink:href="#DejaVuSans-30"/>
      </g>
     </g>
    </g>
    <g id="ytick_4">
     <g id="line2d_10">
      <g>
       <use xlink:href="#m479ce4a0d9" x="72" y="177.046528" style="stroke: #000000; stroke-width: 0.8"/>
      </g>
     </g>
     <g id="text_10">
      <!-- 1 -->
      <g transform="translate(58.6375 180.845747) scale(0.1 -0.1)">
       <use xlink:href="#DejaVuSans-31"/>
      </g>
     </g>
    </g>
    <g id="ytick_5">
     <g id="line2d_11">
      <g>
       <use xlink:href="#m479ce4a0d9" x="72" y="131.120064" style="stroke: #000000; stroke-width: 0.8"/>
      </g>
     </g>
     <g id="text_11">
      <!-- 2 -->
      <g transform="translate(58.6375 134.919282) scale(0.1 -0.1)">
       <use xlink:href="#DejaVuSans-32"/>
      </g>
     </g>
    </g>
    <g id="ytick_6">
     <g id="line2d_12">
      <g>
       <use xlink:href="#m479ce4a0d9" x="72" y="85.193599" style="stroke: #000000; stroke-width: 0.8"/>
      </g>
     </g>
     <g id="text_12">
      <!-- 3 -->
      <g transform="translate(58.6375 88.992818) scale(0.1 -0.1)">
       <defs>
        <path id="DejaVuSans-33" d="M 2597 2516 
Q 3050 2419 3304 2112 
Q 3559 1806 3559 1356 
Q 3559 666 3084 287 
Q 2609 -91 1734 -91 
Q 1441 -91 1130 -33 
Q 819 25 488 141 
L 488 750 
Q 750 597 1062 519 
Q 1375 441 1716 441 
Q 2309 441 2620 675 
Q 2931 909 2931 1356 
Q 2931 1769 2642 2001 
Q 2353 2234 1838 2234 
L 1294 2234 
L 1294 2753 
L 1863 2753 
Q 2328 2753 2575 2939 
Q 2822 3125 2822 3475 
Q 2822 3834 2567 4026 
Q 2313 4219 1838 4219 
Q 1578 4219 1281 4162 
Q 984 4106 628 3988 
L 628 4550 
Q 988 4650 1302 4700 
Q 1616 4750 1894 4750 
Q 2613 4750 3031 4423 
Q 3450 4097 3450 3541 
Q 3450 3153 3228 2886 
Q 3006 2619 2597 2516 
z
" transform="scale(0.015625)"/>
       </defs>
       <use xlink:href="#DejaVuSans-33"/>
      </g>
     </g>
    </g>
   </g>
   <g id="line2d_13">
    <path d="M 72 290.046604 
L 72.404714 299.77943 
L 72.607072 298.301482 
L 72.809429 289.145416 
L 73.214143 262.614452 
L 73.618858 251.94439 
L 75.035358 180.750567 
L 75.237715 178.209218 
L 75.440073 182.552943 
L 75.64243 189.60023 
L 75.844787 192.429959 
L 76.047144 205.515204 
L 76.654216 265.82268 
L 77.05893 286.477901 
L 77.261287 290.226841 
L 77.463645 289.902414 
L 77.666002 280.7103 
L 78.070716 256.252067 
L 78.475431 245.545958 
L 78.677788 237.705626 
L 79.487217 188.789161 
L 79.891931 174.820753 
L 80.094288 176.496962 
L 80.903717 212.904942 
L 81.713146 277.574167 
L 82.11786 290.154746 
L 82.320218 291.90305 
L 82.522575 291.650718 
L 82.724932 289.487867 
L 82.927289 283.630148 
L 83.332004 263.894138 
L 83.736718 251.601939 
L 83.939075 248.988495 
L 84.141432 249.222804 
L 84.546147 254.720048 
L 84.748504 256.522424 
L 84.950861 256.540447 
L 85.355576 260.145198 
L 85.557933 257.279421 
L 85.76029 262.542357 
L 86.569719 301.149235 
L 86.772076 306.376124 
L 86.974433 307.745929 
L 87.176791 307.8 
L 87.379148 306.64648 
L 87.581505 303.438252 
L 87.783862 297.634603 
L 88.188577 278.691639 
L 88.390934 274.239773 
L 89.200363 267.300628 
L 89.40272 263.749948 
L 89.807434 251.043203 
L 90.212149 248.934424 
L 90.414506 246.60936 
L 90.616863 253.440362 
L 91.223935 296.89563 
L 91.628649 306.376124 
L 91.831006 306.430195 
L 92.033364 304.285368 
L 92.842792 264.633112 
L 93.04515 262.79469 
L 93.449864 255.404951 
L 93.652221 254.954357 
L 93.854578 252.431032 
L 94.056936 251.890319 
L 94.259293 249.63735 
L 94.46165 244.140106 
L 94.664007 241.688875 
L 94.866364 242.48192 
L 95.068722 245.185483 
L 95.271079 241.887136 
L 95.473436 250.574585 
L 96.080508 297.220057 
L 96.485222 305.132485 
L 96.687579 306.772646 
L 96.889937 303.041729 
L 97.699365 264.002281 
L 98.306437 254.972381 
L 98.508794 254.647953 
L 99.52058 236.407916 
L 99.722937 237.489341 
L 99.925295 241.238281 
L 100.127652 239.670215 
L 100.330009 248.393711 
L 100.937081 295.093254 
L 101.341795 305.63715 
L 101.544152 306.484266 
L 101.74651 303.294062 
L 101.948867 293.020523 
L 102.353581 267.210509 
L 102.555938 265.876751 
L 103.567724 250.592609 
L 104.377153 231.595574 
L 104.57951 232.695023 
L 104.781868 237.327127 
L 104.984225 237.309103 
L 105.186582 244.951174 
L 105.793654 292.389691 
L 106.198368 303.348133 
L 106.400725 304.862128 
L 106.603083 301.401568 
L 107.412511 261.929549 
L 107.614869 260.451602 
L 107.817226 257.297445 
L 108.22194 244.806984 
L 108.626655 226.1524 
L 108.829012 221.051678 
L 109.031369 219.429541 
L 109.638441 226.891374 
L 109.840798 231.559526 
L 110.043155 240.499308 
L 110.650227 287.811658 
L 111.054941 300.06781 
L 111.257298 301.707972 
L 111.459655 300.212 
L 111.662013 290.407079 
L 112.066727 265.263944 
L 112.471442 252.376961 
L 113.887942 193.583479 
L 114.090299 191.546795 
L 114.292656 197.404515 
L 114.495014 207.22746 
L 114.697371 211.174662 
L 115.102085 240.409189 
L 115.709157 282.837103 
L 116.113871 294.822898 
L 116.316228 294.967088 
L 116.518586 293.543212 
L 116.720943 290.425102 
L 117.125657 267.012248 
L 118.542158 177.055698 
L 118.744515 168.368249 
L 118.946872 165.033855 
L 119.149229 168.188012 
L 119.756301 200.738909 
L 120.56573 268.940789 
L 120.970444 285.973236 
L 121.172801 289.487867 
L 121.375159 290.89372 
L 121.577516 289.650081 
L 121.779873 282.837103 
L 122.589302 239.003336 
L 123.196374 217.1225 
L 123.398731 213.193322 
L 123.601088 213.37356 
L 123.803445 212.886918 
L 124.410517 224.404096 
L 124.612874 233.830519 
L 125.219946 282.206271 
L 125.62466 294.696732 
L 125.827017 296.408988 
L 126.029374 294.228114 
L 127.04116 245.762243 
L 127.648232 213.607869 
L 128.255304 177.181864 
L 128.457661 170.693313 
L 128.660018 170.404933 
L 129.26709 208.507147 
L 130.278876 286.586043 
L 130.481233 293.308903 
L 130.68359 294.498471 
L 130.885947 292.281549 
L 132.504805 198.666178 
L 133.111877 161.987841 
L 133.314234 153.895176 
L 133.516591 155.3551 
L 133.921306 168.566511 
L 134.123663 174.946919 
L 135.135449 269.391383 
L 135.540163 280.241682 
L 135.74252 279.430613 
L 135.944878 270.328618 
L 136.349592 243.329037 
L 136.551949 237.507365 
L 136.754306 227.305921 
L 136.956664 231.235099 
L 137.159021 221.520296 
L 137.766092 213.932296 
L 137.96845 214.274747 
L 138.373164 209.624619 
L 138.777879 216.11317 
L 138.980236 216.83412 
L 139.182593 226.981493 
L 139.789665 275.663649 
L 140.194379 288.87506 
L 140.396736 290.659411 
L 140.599093 288.063991 
L 141.003808 262.091763 
L 141.408522 243.887773 
L 142.015594 232.370595 
L 142.622665 224.512239 
L 142.825023 224.27793 
L 143.02738 223.232552 
L 143.229737 223.827336 
L 143.634451 228.369322 
L 143.836809 227.305921 
L 144.039166 236.065464 
L 144.646238 278.493378 
L 145.050952 288.893083 
L 145.253309 290.010556 
L 145.455666 287.306993 
L 145.860381 261.803383 
L 146.062738 247.654737 
L 146.66981 233.488068 
L 146.872167 231.181027 
L 147.074524 230.243792 
L 147.479238 220.691203 
L 147.681596 227.972799 
L 147.883953 228.819916 
L 148.08631 231.072885 
L 148.491024 239.093455 
L 148.693382 237.921911 
L 149.098096 258.270728 
L 149.502811 282.512675 
L 149.907525 293.813568 
L 150.109882 295.597919 
L 150.312239 295.093254 
L 150.514597 292.642024 
L 150.716954 287.685492 
L 151.121668 269.553597 
L 151.526383 251.746129 
L 151.931097 246.699478 
L 152.133454 246.32098 
L 152.335811 248.033236 
L 152.538169 248.48383 
L 152.740526 246.699478 
L 152.942883 246.951811 
L 153.14524 246.104695 
L 153.347597 246.140742 
L 153.549955 243.599393 
L 153.752312 245.509911 
L 154.764098 290.244865 
L 154.966455 293.687402 
L 155.168812 294.894993 
L 155.573527 291.47048 
L 155.775884 281.845796 
L 156.78767 214.09451 
L 157.799456 177.037674 
L 158.001813 178.785978 
L 158.406528 190.267109 
L 158.608885 202.054643 
L 159.215956 261.731288 
L 159.620671 280.512038 
L 159.823028 283.30572 
L 160.025385 282.512675 
L 160.227743 273.98744 
L 160.632457 245.762243 
L 161.8466 202.018596 
L 162.251315 193.277075 
L 162.453672 193.403242 
L 162.656029 195.89052 
L 163.465458 223.55698 
L 164.072529 275.609578 
L 164.477244 291.794908 
L 164.679601 292.083288 
L 164.881958 289.271582 
L 165.084316 280.439943 
L 165.48903 252.809531 
L 166.500816 222.295317 
L 167.310245 184.968126 
L 167.512602 187.887973 
L 167.917316 205.78556 
L 168.119674 209.660667 
L 168.322031 219.537683 
L 168.929102 271.211782 
L 169.333817 284.423193 
L 169.536174 287.487231 
L 169.738531 284.297027 
L 170.143246 260.559744 
L 170.54796 234.190994 
L 171.357389 195.421902 
L 171.559746 190.17699 
L 172.166818 169.125247 
L 172.369175 170.5311 
L 172.571532 177.416173 
L 173.178604 211.318852 
L 173.785675 273.158347 
L 174.19039 290.02858 
L 174.392747 292.624 
L 174.595104 291.03791 
L 174.999819 269.986167 
L 175.404533 248.231497 
L 177.023391 180.155784 
L 177.225748 180.606377 
L 177.428105 184.012867 
L 177.630462 198.449893 
L 177.83282 200.576695 
L 178.237534 238.967289 
L 178.642248 276.312504 
L 179.046963 293.020523 
L 179.24932 296.264798 
L 179.451677 294.0659 
L 179.654034 286.495924 
L 180.261106 251.8002 
L 181.879964 167.376943 
L 182.082321 164.52919 
L 182.284678 169.467698 
L 183.094107 218.528353 
L 183.498821 252.503127 
L 183.903536 271.193758 
L 184.30825 278.024761 
L 184.510607 279.214328 
L 184.712965 276.042148 
L 184.915322 264.38078 
L 185.724751 192.9166 
L 186.129465 174.28004 
L 186.331822 168.999081 
L 186.53418 168.332202 
L 186.736537 170.549123 
L 187.748323 205.803584 
L 188.557752 261.767336 
L 188.962466 274.13163 
L 189.164823 275.915982 
L 189.36718 275.988077 
L 189.569538 275.339221 
L 189.771895 265.930823 
L 190.986038 182.210491 
L 191.188395 177.578387 
L 191.390752 177.542339 
L 191.795467 185.526862 
L 192.604896 212.850871 
L 193.414325 268.12972 
L 193.819039 280.097492 
L 194.021396 281.034727 
L 194.426111 277.574167 
L 194.628468 269.751858 
L 195.437897 216.563764 
L 195.640254 212.183992 
L 195.842611 213.247393 
L 196.247325 218.546377 
L 196.449683 219.051042 
L 196.65204 218.708591 
L 197.056754 225.882044 
L 197.259112 226.621018 
L 197.461469 233.974709 
L 198.06854 276.222385 
L 198.473255 288.622727 
L 198.675612 288.712846 
L 198.877969 285.522642 
L 199.282684 258.613179 
L 199.687398 238.660885 
L 201.306256 180.606377 
L 201.508613 179.597047 
L 202.115684 196.377161 
L 202.318042 206.128011 
L 202.925113 262.145834 
L 203.329828 277.574167 
L 203.532185 279.41259 
L 203.734542 276.799145 
L 203.936899 266.723868 
L 204.341614 237.002699 
L 205.758114 189.203707 
L 205.960471 187.022833 
L 206.162829 187.149 
L 206.365186 188.392639 
L 206.7699 198.756296 
L 206.972257 201.549978 
L 207.174615 211.030472 
L 207.781686 262.668523 
L 208.186401 276.799145 
L 208.388758 279.466661 
L 208.591115 276.546813 
L 208.793472 266.165131 
L 209.198187 236.606177 
L 209.805258 217.1225 
L 210.209973 199.729579 
L 210.817044 163.267527 
L 211.019402 155.841741 
L 211.221759 158.437162 
L 211.626473 179.84938 
L 211.82883 184.409389 
L 212.031188 197.296372 
L 212.638259 254.19736 
L 213.042974 270.454784 
L 213.245331 273.951392 
L 213.447688 272.455421 
L 213.650045 263.08307 
L 214.257117 225.233189 
L 214.661831 202.180809 
L 215.47126 150.254378 
L 215.875975 135.619091 
L 216.078332 135.204544 
L 216.280689 140.052934 
L 217.090118 195.854472 
L 217.697189 250.033873 
L 218.101904 266.183155 
L 218.304261 269.121027 
L 218.506618 270.310594 
L 218.708976 269.211146 
L 218.911333 258.072466 
L 219.518404 210.129284 
L 220.125476 179.326691 
L 220.327833 177.434197 
L 220.53019 179.380762 
L 221.541976 216.40155 
L 221.744334 220.907488 
L 222.553762 270.689093 
L 222.958477 280.205635 
L 223.160834 281.701606 
L 223.363191 282.00801 
L 223.565549 280.638205 
L 223.767906 273.014157 
L 224.374977 239.580096 
L 224.779692 232.947355 
L 225.386763 234.74973 
L 225.589121 237.831792 
L 225.791478 238.606813 
L 226.196192 245.942481 
L 226.398549 245.636077 
L 226.600907 251.259488 
L 227.410335 298.175316 
L 227.612693 301.707972 
L 227.81505 303.185919 
L 228.017407 300.392238 
L 228.826836 263.119117 
L 229.029193 261.082433 
L 229.23155 256.053806 
L 230.648051 200.558672 
L 230.850408 201.063337 
L 231.255122 213.679964 
L 231.45748 223.214529 
L 232.064551 278.943972 
L 232.469266 293.975782 
L 232.671623 296.354917 
L 232.87398 295.291516 
L 233.278694 273.158347 
L 233.683409 253.440362 
L 235.302267 196.917874 
L 235.504624 196.395185 
L 236.111695 213.121227 
L 236.314053 222.187175 
L 236.921124 276.564837 
L 237.325839 290.46115 
L 237.528196 293.20076 
L 237.730553 291.344314 
L 238.135267 270.382689 
L 238.539982 251.313559 
L 239.349411 224.241883 
L 239.754125 215.482339 
L 240.15884 206.542557 
L 240.361197 206.326272 
L 240.563554 211.102567 
L 240.968268 226.512875 
L 241.170626 233.145616 
L 241.777697 281.755677 
L 242.182412 295.633967 
L 242.384769 297.814841 
L 242.587126 295.201397 
L 242.99184 273.572894 
L 243.396555 257.856181 
L 245.21777 192.520078 
L 245.420127 196.232971 
L 246.027199 219.681873 
L 246.836627 283.990623 
L 247.038985 291.308266 
L 247.241342 294.083924 
L 247.443699 291.867003 
L 247.848413 271.24783 
L 249.467271 173.234663 
L 249.669628 166.169351 
L 249.871985 164.475119 
L 250.074343 164.619309 
L 250.2767 170.693313 
L 250.883772 198.792344 
L 251.6932 264.398804 
L 252.097915 277.105549 
L 252.300272 279.791088 
L 252.502629 280.025397 
L 252.704986 276.636932 
L 253.109701 247.979165 
L 253.91913 183.922748 
L 254.323844 170.09853 
L 254.728558 162.384363 
L 254.930916 161.284914 
L 255.133273 167.84556 
L 255.740345 200.630767 
L 256.549773 266.435488 
L 256.954488 279.971326 
L 257.156845 283.30572 
L 257.359202 284.765644 
L 257.561559 283.918528 
L 257.966274 258.649226 
L 258.573345 214.563127 
L 258.97806 195.60214 
L 259.382774 185.959432 
L 259.585131 182.949465 
L 259.787489 182.570966 
L 259.989846 184.859983 
L 260.39456 198.846415 
L 260.596917 210.525807 
L 261.203989 264.759279 
L 261.608704 281.124846 
L 261.811061 283.684219 
L 262.013418 282.999316 
L 262.418132 262.037692 
L 262.62049 251.529844 
L 263.025204 243.076704 
L 263.227561 240.625474 
L 263.429918 239.74231 
L 263.834633 240.859783 
L 264.03699 240.589426 
L 264.239347 241.418519 
L 264.441704 241.490614 
L 264.644062 241.256305 
L 264.846419 243.040657 
L 265.048776 246.573312 
L 265.251133 246.573312 
L 265.45349 250.087944 
L 266.060562 287.234898 
L 266.465277 298.463696 
L 266.667634 299.815478 
L 266.869991 296.156656 
L 267.072348 289.199487 
L 267.477063 266.020941 
L 268.084134 246.627383 
L 268.488849 237.633531 
L 269.09592 227.792562 
L 269.500635 224.332001 
L 269.702992 226.242519 
L 269.905349 229.396676 
L 270.107706 229.99146 
L 270.310063 235.506728 
L 270.917135 278.241046 
L 271.32185 288.712846 
L 271.524207 290.587316 
L 271.726564 289.091345 
L 274.15485 165.25014 
L 274.357208 158.977874 
L 274.559565 161.897722 
L 275.166636 183.904724 
L 275.976065 255.260761 
L 276.38078 266.25525 
L 276.583137 265.642442 
L 276.987851 246.537265 
L 277.392566 221.24994 
L 278.404352 171.432287 
L 278.606709 168.764772 
L 279.011423 157.193523 
L 279.213781 155.78767 
L 279.416138 159.518587 
L 280.023209 196.016686 
L 280.630281 258.432941 
L 281.034995 278.367212 
L 281.237353 282.638841 
L 281.43971 281.28706 
L 281.642067 276.132267 
L 282.249139 239.59812 
L 282.85621 210.165332 
L 283.867996 172.729997 
L 284.070354 171.68462 
L 284.272711 178.822026 
L 285.284497 251.51182 
L 285.689211 279.664922 
L 286.093926 292.569929 
L 286.296283 294.570566 
L 286.49864 292.984475 
L 286.700997 290.407079 
L 287.105712 263.263307 
L 287.712783 218.149854 
L 288.522212 180.13776 
L 288.724569 173.901541 
L 288.926927 172.207309 
L 289.129284 175.343442 
L 289.736355 204.938443 
L 290.545784 266.273274 
L 290.950499 279.646898 
L 291.152856 282.080105 
L 291.355213 282.1522 
L 291.55757 280.85449 
L 291.759927 269.932096 
L 292.771714 183.562273 
L 293.176428 164.312905 
L 293.581142 154.471936 
L 293.7835 152.957941 
L 293.985857 156.040002 
L 294.592928 178.389456 
L 295.402357 251.295535 
L 295.807072 264.164495 
L 296.009429 264.020305 
L 296.414143 246.248885 
L 297.830644 127.940972 
L 298.235358 116.279604 
L 298.437715 114.008611 
L 298.640073 114.24292 
L 298.84243 116.045295 
L 299.044787 123.092583 
L 299.449501 146.739746 
L 300.056573 216.005028 
L 300.461287 238.138196 
L 300.663645 243.419155 
L 300.866002 244.049987 
L 301.068359 238.066101 
L 301.473073 211.715374 
L 302.484859 119.37969 
L 302.687217 109.448602 
L 302.889574 109.538721 
L 303.091931 116.640079 
L 303.496646 124.228079 
L 303.90136 143.747803 
L 304.306074 168.260107 
L 304.913146 228.98213 
L 305.31786 251.22344 
L 305.520218 256.107877 
L 305.722575 254.539811 
L 305.924932 248.285569 
L 306.532004 213.22937 
L 307.54379 151.804421 
L 307.746147 142.846616 
L 307.948504 142.071594 
L 308.757933 170.38691 
L 309.162647 193.259052 
L 309.769719 248.537901 
L 310.174433 265.984894 
L 310.376791 269.841977 
L 310.579148 269.337312 
L 310.983862 248.790234 
L 312.198005 157.499926 
L 312.60272 147.298482 
L 312.805077 143.459423 
L 313.007434 143.946064 
L 313.209791 147.19034 
L 313.816863 171.39624 
L 314.01922 183.400059 
L 314.626292 238.318433 
L 315.031006 256.306139 
L 315.233364 260.325435 
L 315.435721 259.748675 
L 315.840435 243.274965 
L 316.24515 226.855327 
L 316.649864 216.311431 
L 317.054578 202.883736 
L 317.66165 196.287042 
L 317.864007 195.89052 
L 318.066364 195.097475 
L 318.268722 199.20689 
L 318.875793 218.636496 
L 319.685222 270.058262 
L 320.089937 281.269036 
L 320.292294 282.710936 
L 320.697008 275.753768 
L 321.101723 252.737436 
L 322.315866 184.355318 
L 322.72058 175.361465 
L 322.922937 173.324781 
L 323.125295 176.947556 
L 323.732366 201.189503 
L 324.541795 261.334766 
L 324.94651 273.879297 
L 325.148867 276.420647 
L 325.351224 276.474718 
L 325.553581 274.492105 
L 325.755938 263.677853 
L 326.970082 165.033855 
L 327.172439 159.482539 
L 327.374796 158.09471 
L 327.77951 153.210273 
L 327.981868 157.590045 
L 328.184225 165.304211 
L 328.791296 210.633949 
L 329.196011 249.006519 
L 329.398368 262.380143 
L 329.803083 271.24783 
L 330.00544 270.418737 
L 330.207797 265.498252 
L 330.814869 222.926149 
L 331.42194 189.383945 
L 331.826655 169.485722 
L 332.029012 166.944373 
L 332.231369 166.962397 
L 332.433726 167.12461 
L 332.636083 168.963033 
L 332.838441 172.946282 
L 333.243155 193.06079 
L 333.445512 200.973218 
L 334.052584 258.649226 
L 334.457298 277.772428 
L 334.659655 282.530699 
L 334.862013 280.42192 
L 335.266727 263.010975 
L 335.671442 241.634804 
L 336.48087 206.434415 
L 336.683228 201.982548 
L 336.885585 201.009265 
L 337.087942 195.584116 
L 337.290299 193.961978 
L 337.695014 199.63946 
L 338.099728 212.328182 
L 338.302085 217.482975 
L 339.111514 275.249103 
L 339.313871 280.692276 
L 339.516228 282.656865 
L 339.718586 279.088162 
L 340.1233 258.595155 
L 340.932729 219.573731 
L 342.349229 165.376306 
L 342.551587 165.304211 
L 343.158658 186.968762 
L 343.76573 242.04935 
L 344.170444 257.856181 
L 344.372801 262.037692 
L 344.575159 260.163222 
L 344.777516 254.089217 
L 345.18223 226.981493 
L 346.194016 154.453912 
L 346.598731 141.494834 
L 347.003445 135.691186 
L 347.205802 134.952212 
L 347.40816 137.745893 
L 347.610517 144.630967 
L 348.015231 167.539157 
L 348.82466 247.510547 
L 349.229374 262.524333 
L 349.431732 261.857454 
L 349.634089 256.774756 
L 349.836446 247.005882 
L 351.050589 155.3551 
L 351.455304 139.241865 
L 351.860018 131.473628 
L 352.062375 130.680582 
L 352.264733 133.870787 
L 352.46709 143.603613 
L 353.276519 216.527716 
L 353.681233 249.817588 
L 354.085947 267.534937 
L 354.288305 272.167041 
L 354.490662 272.671706 
L 354.693019 270.707117 
L 355.097733 233.812495 
L 355.704805 169.017104 
L 356.109519 147.33453 
L 356.716591 131.365485 
L 356.918948 130.410226 
L 357.121306 134.627784 
L 357.52602 157.121428 
L 357.728377 168.260107 
L 358.740163 252.070557 
L 359.144878 263.461568 
L 359.347235 265.10173 
L 359.549592 264.81335 
L 359.751949 252.521151 
L 360.763735 146.631604 
L 361.16845 129.887537 
L 361.573164 120.136687 
L 361.775521 118.118027 
L 361.977879 121.001827 
L 362.180236 127.147927 
L 362.58495 149.78576 
L 363.394379 227.702443 
L 363.799093 243.20287 
L 364.001451 243.923821 
L 364.203808 238.751003 
L 364.406165 229.919365 
L 365.013237 168.818843 
L 365.620308 112.116117 
L 366.025023 97.9134 
L 366.429737 92.488251 
L 366.632094 92.920821 
L 366.834451 95.245885 
L 367.036809 102.90598 
L 367.441523 128.55378 
L 368.048595 198.521988 
L 368.453309 225.341332 
L 368.655666 232.839213 
L 368.858024 234.929968 
L 369.060381 231.505455 
L 369.262738 222.83603 
L 369.86981 166.998444 
L 370.476881 115.865058 
L 370.881596 101.247794 
L 371.083953 100.851272 
L 371.28631 101.482103 
L 371.488667 104.942664 
L 371.691024 110.421884 
L 372.298096 144.703062 
L 373.107525 219.465588 
L 373.512239 239.02136 
L 373.714597 242.860419 
L 374.119311 242.247612 
L 374.321668 231.036837 
L 375.333454 139.692459 
L 375.738169 128.031091 
L 375.940526 125.651955 
L 376.142883 124.678673 
L 376.34524 129.238682 
L 376.749955 152.327109 
L 377.559383 204.163422 
L 377.964098 234.659612 
L 378.368812 246.807621 
L 378.57117 247.005882 
L 378.773527 241.778994 
L 378.975884 231.901977 
L 380.392384 129.220658 
L 380.797099 120.479138 
L 381.201813 113.792326 
L 381.40417 117.108697 
L 382.011242 149.713665 
L 382.820671 222.69184 
L 383.225385 236.876533 
L 383.427743 237.453293 
L 383.6301 232.749094 
L 384.034814 213.157275 
L 385.0466 148.470026 
L 385.451315 133.762644 
L 385.653672 133.348098 
L 385.856029 136.682492 
L 386.058386 143.405352 
L 387.070172 205.06461 
L 387.474887 240.409189 
L 387.879601 259.694604 
L 388.284316 267.751222 
L 388.68903 269.968143 
L 388.891387 264.903469 
L 389.700816 226.530899 
L 390.307888 216.653883 
L 390.914959 205.425085 
L 391.117316 209.642643 
L 391.926745 244.518604 
L 392.533817 283.467934 
L 392.938531 294.372304 
L 393.140888 296.012466 
L 393.343246 295.615943 
L 393.545603 296.03049 
L 393.74796 288.136086 
L 394.355032 251.854272 
L 395.569175 202.072667 
L 395.771532 196.773684 
L 395.973889 197.837085 
L 396.176247 205.172752 
L 396.783318 242.229588 
L 397.188033 276.186338 
L 397.592747 291.90305 
L 397.795104 294.354281 
L 397.997461 292.119335 
L 398.402176 276.132267 
L 400.628105 163.628002 
L 400.830462 166.133304 
L 401.03282 174.910872 
L 401.639891 225.197141 
L 402.044606 264.290661 
L 402.44932 282.206271 
L 402.651677 285.738927 
L 402.854034 284.279003 
L 403.258749 268.237863 
L 403.663463 243.184847 
L 404.877607 149.695642 
L 405.282321 131.599794 
L 405.484678 127.886901 
L 405.687035 128.84216 
L 405.889393 138.106369 
L 406.294107 171.053788 
L 406.901179 239.30974 
L 407.305893 260.523697 
L 407.50825 265.462205 
L 407.710607 264.993587 
L 408.115322 246.266908 
L 409.73418 129.635205 
L 409.936537 125.29148 
L 410.138894 125.165314 
L 410.341251 129.220658 
L 410.948323 161.050606 
L 411.15068 175.073085 
L 411.757752 237.309103 
L 412.162466 258.52306 
L 412.364823 264.23659 
L 412.56718 265.804656 
L 412.971895 249.889683 
L 414.388395 163.411717 
L 414.79311 151.479993 
L 415.197824 145.60425 
L 415.400181 151.570112 
L 416.20961 206.704771 
L 416.614325 246.573312 
L 417.019039 266.904105 
L 417.221396 270.653046 
L 417.423753 270.166404 
L 417.828468 255.92764 
L 419.244968 169.792126 
L 419.649683 157.80633 
L 419.85204 154.435888 
L 420.054397 155.697551 
L 420.256754 163.321599 
L 421.066183 220.799346 
L 421.673255 269.283241 
L 422.077969 283.431886 
L 422.280326 285.61276 
L 422.482684 285.036 
L 422.685041 284.89181 
L 423.089755 257.838158 
L 423.899184 197.098111 
L 424.708613 162.528553 
L 424.91097 159.734872 
L 425.113327 163.249504 
L 425.518042 186.211764 
L 425.720399 196.575422 
L 426.529828 262.127811 
L 426.934542 278.439307 
L 427.136899 282.368485 
L 427.339257 283.071411 
L 427.541614 283.269673 
L 427.743971 275.71772 
L 428.148685 240.283022 
L 428.755757 185.941408 
L 429.160471 163.429741 
L 429.565186 156.184192 
L 429.9699 159.626729 
L 430.374615 173.865494 
L 430.576972 184.084962 
L 431.386401 250.79087 
L 431.791115 261.533027 
L 431.993472 259.748675 
L 432.398187 241.923184 
L 433.207616 184.787888 
L 434.017044 123.020488 
L 434.219402 118.730834 
L 435.02883 142.792544 
L 435.433545 164.727451 
L 436.040617 227.215802 
L 436.445331 246.987858 
L 436.647688 251.493797 
L 436.850045 250.899013 
L 437.25476 232.821189 
L 437.659474 202.180809 
L 438.468903 137.709846 
L 438.67126 129.166587 
L 438.873617 130.013704 
L 439.075975 136.249922 
L 439.278332 135.853399 
L 439.480689 137.817989 
L 439.885403 154.093437 
L 440.290118 175.812059 
L 440.897189 240.228951 
L 441.301904 259.802747 
L 441.504261 264.561017 
L 441.706618 265.029635 
L 442.111333 252.106604 
L 442.920762 206.470462 
L 443.527833 175.884154 
L 444.134905 155.93186 
L 444.337262 153.660867 
L 444.539619 159.284278 
L 445.146691 198.810368 
L 445.753762 259.496343 
L 446.158477 278.096856 
L 446.360834 282.44058 
L 446.563191 280.692276 
L 446.967906 264.110424 
L 448.586763 167.809513 
L 448.991478 156.238264 
L 449.193835 154.20158 
L 449.396192 160.041276 
L 450.003264 195.45795 
L 450.812693 265.660466 
L 451.217407 277.321834 
L 451.419764 277.429977 
L 451.824479 262.36212 
L 452.43155 218.149854 
L 453.038622 181.399422 
L 453.443336 166.457732 
L 453.848051 159.554634 
L 454.050408 162.51053 
L 454.252765 171.270073 
L 454.65748 196.1789 
L 454.859837 203.586662 
L 455.669266 260.343459 
L 456.07398 272.221112 
L 456.276337 273.55487 
L 456.478694 271.806566 
L 456.681052 269.084979 
L 456.883409 262.073739 
L 457.288123 238.390528 
L 457.692838 228.783868 
L 457.895195 229.396676 
L 458.299909 234.443327 
L 458.502267 234.31716 
L 458.906981 230.964742 
L 459.109338 231.43336 
L 459.514053 235.074158 
L 459.71641 238.841122 
L 460.728196 289.433796 
L 461.13291 293.308903 
L 461.537625 290.407079 
L 461.739982 282.58477 
L 462.144696 252.340913 
L 463.561197 191.709009 
L 463.763554 185.346624 
L 463.965911 186.373978 
L 464.572983 203.442472 
L 465.382412 262.145834 
L 465.584769 268.201815 
L 465.787126 270.580951 
L 465.989483 268.454148 
L 467.608341 187.347261 
L 468.620127 168.782796 
L 468.822484 171.522406 
L 469.429556 194.520714 
L 470.036627 244.230224 
L 470.441342 259.82077 
L 470.643699 262.127811 
L 470.846056 259.874842 
L 471.857842 215.24803 
L 472.869628 188.73509 
L 473.071985 189.16766 
L 473.274343 187.599593 
L 473.4767 188.699042 
L 473.679057 192.015413 
L 473.881414 197.783014 
L 474.083772 198.792344 
L 474.286129 205.515204 
L 474.8932 251.187393 
L 475.297915 265.426157 
L 475.500272 266.886081 
L 475.702629 265.10173 
L 476.107344 243.743583 
L 476.512058 224.458168 
L 477.321487 196.863802 
L 477.726201 179.200525 
L 477.928558 176.082415 
L 478.333273 180.191831 
L 478.53563 184.102985 
L 479.142702 205.947774 
L 479.952131 265.336039 
L 480.356845 273.969416 
L 480.559202 273.608941 
L 480.963917 254.251431 
L 482.785131 141.747167 
L 482.987489 136.57435 
L 483.189846 134.267309 
L 483.392203 139.205817 
L 483.999275 174.13585 
L 484.606346 236.443963 
L 485.011061 256.79278 
L 485.213418 260.649863 
L 485.415775 261.478956 
L 485.82049 244.158129 
L 486.225204 216.816096 
L 487.23699 137.980202 
L 487.439347 135.276639 
L 487.844062 141.026216 
L 488.248776 157.337713 
L 489.260562 225.269236 
L 489.665277 253.440362 
L 490.069991 266.669796 
L 490.272348 268.724504 
L 490.474705 267.733198 
L 490.677063 266.183155 
L 490.87942 257.65792 
L 491.891206 187.815878 
L 492.29592 172.297427 
L 492.498277 165.8269 
L 492.700635 164.060572 
L 492.902992 165.484449 
L 493.105349 169.702007 
L 493.712421 199.0627 
L 494.52185 262.127811 
L 495.128921 278.132903 
L 495.331278 278.259069 
L 495.533636 277.718357 
L 495.735993 271.10364 
L 496.950136 190.952011 
L 497.557208 169.611888 
L 497.759565 166.674017 
L 497.961922 169.485722 
L 498.568994 197.080087 
L 499.378422 261.731288 
L 499.58078 267.715174 
L 499.783137 269.896048 
L 499.985494 266.994224 
L 500.187851 259.53239 
L 500.794923 227.197778 
L 500.99728 222.727887 
L 501.401995 211.264781 
L 501.806709 201.405788 
L 502.009066 201.009265 
L 502.211423 202.811641 
L 502.413781 203.370377 
L 502.616138 201.910453 
L 503.020852 210.417664 
L 503.223209 210.904306 
L 503.425567 217.482975 
L 504.032638 261.875478 
L 504.437353 273.320561 
L 504.63971 274.744438 
L 504.842067 272.671706 
L 505.246782 251.331583 
L 505.651496 230.478101 
L 507.270354 166.421684 
L 507.472711 163.700097 
L 507.675068 166.674017 
L 508.28214 191.222368 
L 508.889211 242.031326 
L 509.293926 257.027089 
L 509.496283 260.10915 
L 509.69864 258.505036 
L 510.103354 237.885863 
L 511.722212 144.73911 
L 512.126927 129.184611 
L 512.329284 130.57244 
L 512.936355 160.672107 
L 513.34107 194.773047 
L 513.745784 232.839213 
L 514.150499 252.737436 
L 514.352856 257.621873 
L 514.555213 258.054443 
L 514.75757 250.268181 
L 516.174071 165.53852 
L 516.376428 164.583261 
L 516.781142 172.748021 
L 516.9835 170.350862 
L 517.185857 170.81948 
L 517.590571 186.319907 
L 517.792928 190.0328 
L 517.995286 199.405151 
L 518.4 234.136923 
L 518.4 234.136923 
" clip-path="url(#p54c7e8bebf)" style="fill: none; stroke: #1f77b4; stroke-width: 1.5; stroke-linecap: square"/>
   </g>
   <g id="line2d_14">
    <path d="M 72 271.88635 
L 72.202357 271.88635 
L 72.607072 276.399174 
L 72.809429 275.853582 
L 73.011786 272.259385 
L 73.4165 259.882878 
L 73.618858 257.397348 
L 73.821215 253.44604 
L 74.225929 238.990898 
L 75.035358 193.880404 
L 75.237715 189.532006 
L 75.440073 190.337671 
L 75.64243 193.51874 
L 76.249501 211.827405 
L 76.654216 249.116114 
L 76.856573 259.351241 
L 77.261287 265.097949 
L 77.463645 265.706198 
L 77.868359 260.41351 
L 78.677788 229.146462 
L 78.880145 229.187167 
L 79.082502 225.198244 
L 80.094288 186.215242 
L 80.296646 186.248883 
L 80.499003 189.921351 
L 80.70136 196.460295 
L 80.903717 209.4097 
L 81.308432 254.567516 
L 81.713146 280.039573 
L 81.915503 287.095552 
L 82.11786 289.396877 
L 82.320218 288.230809 
L 82.724932 277.114316 
L 83.534361 247.563394 
L 83.736718 246.851747 
L 83.939075 246.965488 
L 84.141432 245.775086 
L 84.546147 240.276877 
L 84.748504 240.180125 
L 85.153218 242.273126 
L 86.569719 287.955056 
L 86.772076 290.645715 
L 86.974433 297.998054 
L 87.176791 298.587888 
L 87.581505 290.628393 
L 87.783862 286.81386 
L 87.986219 280.338829 
L 88.390934 263.547799 
L 88.795648 255.499091 
L 88.998005 255.341081 
L 89.200363 254.80101 
L 89.40272 252.212012 
L 89.605077 253.407579 
L 89.807434 250.724536 
L 90.009791 246.561344 
L 90.414506 251.494542 
L 90.616863 250.605337 
L 90.81922 254.501429 
L 91.628649 300.019499 
L 91.831006 302.451246 
L 92.033364 301.710596 
L 92.235721 294.012465 
L 92.640435 267.14757 
L 93.04515 256.461873 
L 93.449864 250.613686 
L 93.854578 248.693545 
L 94.46165 239.991924 
L 94.664007 237.170575 
L 94.866364 236.615035 
L 95.473436 244.795324 
L 95.675793 254.000906 
L 96.080508 278.287464 
L 96.282865 288.507694 
L 96.485222 291.454045 
L 96.687579 290.272373 
L 96.889937 288.242163 
L 98.10408 249.237582 
L 98.306437 245.936419 
L 98.711151 248.17034 
L 99.115866 240.671456 
L 99.52058 235.285227 
L 99.722937 236.432791 
L 100.127652 242.090608 
L 100.330009 248.936947 
L 101.139438 289.717573 
L 101.341795 296.857985 
L 101.544152 296.597617 
L 101.74651 293.428379 
L 102.960653 247.709937 
L 103.16301 244.582552 
L 103.365367 248.662938 
L 103.770082 244.96148 
L 104.174796 236.461164 
L 104.377153 236.108342 
L 104.57951 233.363717 
L 104.781868 235.820855 
L 105.186582 246.328898 
L 106.198368 297.764398 
L 106.400725 297.337715 
L 106.603083 293.495638 
L 107.007797 278.779638 
L 107.412511 261.187012 
L 108.019583 242.894441 
L 108.22194 244.534967 
L 109.031369 220.066887 
L 109.233726 219.554383 
L 109.436083 221.274701 
L 109.638441 224.546767 
L 109.840798 230.013968 
L 110.245512 251.91335 
L 110.852584 287.691595 
L 111.054941 293.844014 
L 111.257298 294.005375 
L 111.86437 278.096435 
L 112.876156 233.988432 
L 113.078513 232.099888 
L 113.685585 206.433171 
L 114.090299 198.732801 
L 114.292656 198.733868 
L 114.899728 225.767053 
L 115.911514 283.184043 
L 116.113871 286.733106 
L 116.316228 284.938643 
L 116.9233 268.324246 
L 117.935086 221.623894 
L 118.542158 183.325206 
L 118.744515 177.832896 
L 118.946872 177.596672 
L 119.351587 183.707603 
L 119.756301 205.670356 
L 120.56573 264.249559 
L 120.970444 277.726576 
L 121.172801 279.721511 
L 121.375159 277.484231 
L 121.577516 273.726292 
L 121.98223 256.26593 
L 122.386945 236.147113 
L 122.791659 220.873397 
L 123.196374 209.565665 
L 123.398731 209.113228 
L 123.803445 209.625166 
L 124.005802 209.809165 
L 124.410517 221.069391 
L 124.612874 228.632742 
L 125.422303 275.44288 
L 125.827017 289.49468 
L 126.029374 293.057829 
L 126.231732 289.249927 
L 127.243518 236.074383 
L 127.850589 199.221312 
L 128.255304 179.528444 
L 128.457661 177.502849 
L 128.660018 176.655021 
L 128.862375 180.849293 
L 129.671804 227.463149 
L 130.278876 274.593455 
L 130.481233 280.582712 
L 130.68359 282.743859 
L 130.885947 280.772307 
L 131.088305 274.010908 
L 132.100091 224.675634 
L 132.909519 186.829713 
L 133.314234 168.358558 
L 133.516591 166.430252 
L 133.718948 168.594377 
L 133.921306 175.391472 
L 134.32602 201.555366 
L 134.730734 245.957448 
L 135.135449 261.353516 
L 135.337806 267.541114 
L 135.540163 269.941454 
L 135.74252 268.309948 
L 136.147235 257.544351 
L 136.551949 237.47092 
L 136.956664 211.44599 
L 137.159021 210.847793 
L 137.766092 199.00442 
L 138.170807 206.237357 
L 138.373164 207.702896 
L 138.575521 208.34669 
L 138.777879 212.526806 
L 139.587307 256.071953 
L 139.992022 276.762354 
L 140.194379 282.243741 
L 140.396736 280.643138 
L 140.599093 280.251483 
L 141.408522 250.091625 
L 142.015594 220.972123 
L 142.217951 220.629109 
L 142.420308 220.940205 
L 142.622665 220.265796 
L 142.825023 217.91433 
L 143.229737 225.964591 
L 143.432094 227.330525 
L 143.634451 233.056903 
L 143.836809 234.772588 
L 144.039166 237.820379 
L 144.241523 245.626441 
L 144.848595 283.936366 
L 145.050952 287.13271 
L 145.253309 286.524546 
L 145.860381 262.333004 
L 146.265095 240.18407 
L 146.66981 229.772123 
L 146.872167 228.03084 
L 147.074524 224.667257 
L 147.276881 228.312734 
L 147.479238 220.49074 
L 147.681596 217.157366 
L 148.08631 229.211031 
L 148.288667 229.683764 
L 149.098096 255.867418 
L 149.705168 283.144652 
L 149.907525 286.883182 
L 150.109882 287.17156 
L 150.514597 277.734766 
L 150.919311 268.776325 
L 151.72874 238.202373 
L 152.133454 244.125425 
L 152.335811 242.978472 
L 152.538169 242.518688 
L 152.942883 239.91915 
L 153.14524 242.957402 
L 153.549955 253.017071 
L 153.954669 261.250189 
L 154.359383 272.794881 
L 154.764098 290.989164 
L 154.966455 294.178019 
L 155.168812 295.520838 
L 155.573527 284.252391 
L 155.978241 268.681615 
L 157.192384 198.820221 
L 157.394742 191.967887 
L 157.799456 187.045349 
L 158.001813 192.020889 
L 158.20417 199.862905 
L 158.608885 206.900987 
L 158.811242 216.643461 
L 159.418314 264.404637 
L 159.823028 279.493072 
L 160.025385 280.753134 
L 160.4301 264.558048 
L 160.834814 242.725834 
L 161.239529 222.757666 
L 161.8466 190.520419 
L 162.453672 198.207674 
L 162.656029 199.521936 
L 162.858386 201.983568 
L 163.060743 206.056679 
L 163.465458 221.509058 
L 164.274887 272.944821 
L 164.477244 281.463606 
L 164.679601 281.999541 
L 164.881958 279.375768 
L 165.084316 274.004283 
L 166.096102 230.876621 
L 166.500816 223.376199 
L 167.107888 192.922654 
L 167.310245 190.292971 
L 167.714959 197.874312 
L 168.726745 249.659382 
L 169.13146 274.659849 
L 169.333817 281.153028 
L 169.536174 281.224273 
L 169.738531 278.003374 
L 170.345603 255.530284 
L 171.559746 189.081601 
L 171.964461 181.066218 
L 172.166818 181.120676 
L 172.369175 181.556108 
L 172.571532 183.760813 
L 172.773889 190.22004 
L 173.178604 214.67505 
L 173.785675 254.160843 
L 174.19039 271.100247 
L 174.392747 275.544537 
L 174.595104 273.993837 
L 174.797461 269.975585 
L 176.213962 212.40249 
L 176.618676 200.544772 
L 177.225748 193.14608 
L 177.428105 194.194658 
L 177.630462 200.087503 
L 178.844606 277.004825 
L 179.046963 283.985984 
L 179.24932 286.024522 
L 179.451677 282.334191 
L 180.261106 246.758379 
L 180.868178 220.20106 
L 181.070535 213.523184 
L 181.475249 190.760407 
L 181.677607 183.967861 
L 181.879964 181.656315 
L 182.284678 183.880523 
L 182.487035 186.654148 
L 182.89175 207.522871 
L 183.701179 264.663644 
L 183.903536 271.222545 
L 184.105893 271.855548 
L 184.30825 271.313493 
L 184.915322 256.790252 
L 185.117679 249.05608 
L 185.927108 192.334864 
L 186.331822 169.932734 
L 186.53418 168.339385 
L 186.736537 171.085116 
L 187.545966 198.606863 
L 188.557752 258.188323 
L 188.962466 268.671519 
L 189.164823 269.285407 
L 189.569538 263.211558 
L 189.974252 247.64929 
L 190.581324 212.918966 
L 190.986038 185.818181 
L 191.390752 175.908359 
L 191.59311 179.904381 
L 193.414325 260.041222 
L 193.819039 277.782419 
L 194.021396 280.101762 
L 194.223753 275.109187 
L 195.640254 213.011491 
L 195.842611 209.604786 
L 196.044968 210.200982 
L 196.247325 212.714587 
L 196.449683 218.239822 
L 196.854397 222.709989 
L 197.056754 228.196962 
L 197.259112 237.510884 
L 197.663826 245.295537 
L 197.866183 250.78754 
L 198.675612 282.065983 
L 198.877969 284.512009 
L 199.080326 279.623741 
L 200.699184 197.87627 
L 201.103898 187.36072 
L 201.306256 186.189385 
L 201.71097 193.382799 
L 202.722756 239.697858 
L 203.127471 267.113155 
L 203.329828 271.360079 
L 203.532185 270.711543 
L 203.734542 268.432796 
L 204.139257 252.764179 
L 204.543971 236.253068 
L 205.758114 193.672978 
L 205.960471 190.768485 
L 206.162829 192.335768 
L 206.365186 198.051394 
L 206.567543 199.770793 
L 206.972257 213.331634 
L 207.376972 237.449378 
L 207.579329 248.900857 
L 207.984044 260.421328 
L 208.388758 269.546126 
L 208.591115 267.478005 
L 208.99583 257.23832 
L 210.817044 177.289281 
L 211.019402 177.385069 
L 211.424116 188.792287 
L 212.233545 224.735169 
L 213.042974 269.606486 
L 213.245331 271.456447 
L 213.447688 268.415304 
L 214.05476 244.529919 
L 215.875975 157.997022 
L 216.078332 161.128358 
L 216.685403 183.743009 
L 217.090118 209.264542 
L 217.494832 241.274159 
L 217.899547 262.113013 
L 218.101904 264.865018 
L 218.304261 265.705809 
L 218.506618 263.802794 
L 218.911333 254.798933 
L 219.316047 229.546376 
L 220.327833 170.841112 
L 220.53019 172.980704 
L 220.934905 191.851054 
L 221.339619 208.453067 
L 222.75612 278.946134 
L 222.958477 282.941923 
L 223.160834 283.212726 
L 223.363191 280.392751 
L 223.767906 268.048053 
L 223.970263 260.550439 
L 224.577335 228.216963 
L 224.779692 224.606897 
L 225.184406 231.412923 
L 225.386763 229.888986 
L 225.589121 232.522186 
L 225.791478 238.519707 
L 226.196192 242.553946 
L 226.398549 248.647841 
L 226.600907 248.625476 
L 226.803264 250.161966 
L 227.207978 270.905233 
L 227.612693 291.081569 
L 227.81505 295.129336 
L 228.017407 295.518648 
L 228.219764 290.243806 
L 228.826836 257.355726 
L 229.23155 244.366672 
L 229.636265 238.471139 
L 230.850408 208.26964 
L 231.052765 213.4979 
L 231.659837 236.698259 
L 232.266908 278.406488 
L 232.469266 284.171736 
L 232.671623 284.925372 
L 232.87398 282.052521 
L 233.076337 276.703423 
L 234.088123 236.305619 
L 235.504624 197.478236 
L 235.706981 197.369172 
L 235.909338 201.903725 
L 236.314053 224.199757 
L 236.921124 270.288807 
L 237.325839 283.362737 
L 237.528196 285.64916 
L 237.730553 283.364615 
L 238.135267 272.844182 
L 238.742339 247.262513 
L 239.147053 227.043002 
L 239.956482 203.455605 
L 240.15884 205.490578 
L 240.361197 205.528853 
L 240.563554 208.342124 
L 240.968268 225.813773 
L 241.777697 269.170473 
L 242.182412 288.268038 
L 242.384769 290.722911 
L 242.587126 289.126244 
L 242.789483 282.175973 
L 243.396555 252.685242 
L 244.205984 223.727771 
L 244.610698 209.719613 
L 245.015413 201.771382 
L 245.21777 199.987579 
L 245.420127 200.228095 
L 245.622484 205.610705 
L 246.229556 235.909594 
L 246.836627 275.528233 
L 247.038985 284.547661 
L 247.241342 286.502285 
L 247.443699 285.421701 
L 247.646056 279.512629 
L 248.455485 238.861354 
L 249.467271 174.239676 
L 249.669628 170.48996 
L 249.871985 170.054594 
L 250.2767 180.638398 
L 250.479057 184.185525 
L 250.883772 202.559866 
L 251.6932 257.288872 
L 251.895558 266.3947 
L 252.097915 269.406829 
L 252.300272 267.941564 
L 252.704986 261.587657 
L 253.109701 246.610574 
L 254.323844 168.427646 
L 254.526201 166.8744 
L 254.728558 168.3791 
L 255.133273 177.616688 
L 255.33563 183.410236 
L 255.740345 208.769503 
L 256.145059 237.07883 
L 256.954488 272.944843 
L 257.156845 275.357724 
L 257.359202 272.065958 
L 257.763917 257.499101 
L 259.180417 190.554702 
L 259.382774 190.558272 
L 259.585131 189.333362 
L 259.787489 190.385967 
L 260.39456 208.249829 
L 261.001632 241.76628 
L 261.608704 275.228167 
L 261.811061 280.648564 
L 262.013418 282.226233 
L 262.215775 277.00523 
L 262.822847 245.577599 
L 263.429918 223.250546 
L 263.632276 221.606218 
L 263.834633 224.98531 
L 264.441704 229.355582 
L 265.45349 248.400419 
L 265.655848 253.411001 
L 266.465277 287.6943 
L 266.667634 288.162241 
L 266.869991 287.404367 
L 267.274705 272.10824 
L 267.67942 257.906907 
L 267.881777 255.539566 
L 269.09592 224.279064 
L 270.107706 235.249096 
L 270.512421 252.248217 
L 271.32185 289.141721 
L 271.524207 288.17179 
L 271.928921 277.981206 
L 272.940707 231.047495 
L 273.143064 226.031856 
L 273.952493 180.03921 
L 274.15485 178.414715 
L 274.357208 178.419046 
L 274.559565 178.141782 
L 274.761922 179.35707 
L 274.964279 185.418272 
L 275.368994 207.114433 
L 276.178422 262.299435 
L 276.38078 264.850291 
L 276.583137 265.907886 
L 276.987851 254.221839 
L 277.392566 235.165645 
L 277.79728 205.054637 
L 278.606709 164.888761 
L 278.809066 169.229308 
L 279.011423 170.091565 
L 279.416138 177.197686 
L 280.023209 203.944102 
L 280.630281 247.861922 
L 281.034995 266.902778 
L 281.43971 270.308965 
L 281.642067 266.369901 
L 282.653853 222.418354 
L 283.058568 203.190389 
L 283.463282 190.963825 
L 283.665639 190.398546 
L 283.867996 189.34908 
L 284.070354 190.23975 
L 284.272711 192.75368 
L 285.08214 234.912378 
L 285.891568 283.16758 
L 286.093926 287.188198 
L 286.296283 284.028962 
L 286.903354 264.409195 
L 288.724569 183.923537 
L 288.926927 183.849319 
L 289.129284 186.005826 
L 289.533998 197.373875 
L 290.748141 274.268057 
L 290.950499 278.114721 
L 291.152856 278.266988 
L 291.355213 274.638781 
L 291.962285 252.719241 
L 293.176428 170.938143 
L 293.378785 166.358712 
L 293.581142 164.315888 
L 293.7835 164.195266 
L 293.985857 166.420189 
L 294.390571 179.471648 
L 294.795286 202.479235 
L 295.2 237.637093 
L 295.604714 261.355183 
L 295.807072 264.512604 
L 296.009429 265.803803 
L 296.211786 262.911166 
L 296.6165 245.666347 
L 297.021215 218.619334 
L 297.425929 178.314919 
L 298.033001 127.756101 
L 298.437715 120.027776 
L 298.640073 122.88665 
L 299.044787 140.30814 
L 299.449501 166.535862 
L 300.25893 235.824375 
L 300.461287 248.362119 
L 300.663645 251.757614 
L 300.866002 253.008503 
L 301.068359 250.220695 
L 301.877788 201.156719 
L 302.687217 107.840341 
L 302.889574 99.407007 
L 303.091931 104.339857 
L 303.294288 113.151142 
L 304.103717 173.910002 
L 304.710789 226.23074 
L 305.31786 258.576439 
L 305.722575 262.893802 
L 306.127289 243.206571 
L 307.139075 187.981099 
L 307.746147 149.05964 
L 307.948504 148.858428 
L 308.150861 152.987114 
L 310.174433 278.62748 
L 310.376791 279.650568 
L 310.579148 277.770232 
L 310.781505 272.271314 
L 311.388577 233.201234 
L 311.793291 214.091348 
L 312.60272 144.453135 
L 313.007434 152.188528 
L 313.412149 167.322441 
L 314.221578 214.626422 
L 314.828649 259.366719 
L 315.031006 268.394625 
L 315.233364 271.041223 
L 315.435721 269.041404 
L 315.638078 262.483689 
L 316.447507 221.068218 
L 316.852221 213.796291 
L 317.66165 192.277077 
L 317.864007 193.739426 
L 318.673436 220.438531 
L 319.887579 284.974503 
L 320.089937 287.281479 
L 320.292294 287.956638 
L 320.494651 282.310545 
L 320.899365 267.988645 
L 321.101723 261.366089 
L 322.518223 185.352979 
L 322.72058 185.440845 
L 322.922937 187.77214 
L 323.125295 191.773467 
L 324.94651 274.84762 
L 325.148867 275.782874 
L 325.351224 271.725717 
L 325.755938 257.361431 
L 326.767724 205.953855 
L 327.374796 162.378094 
L 327.577153 163.238446 
L 327.77951 165.165729 
L 327.981868 168.343908 
L 328.588939 193.253746 
L 329.196011 247.061829 
L 329.600725 267.509376 
L 330.00544 274.069401 
L 330.207797 271.026846 
L 330.612511 252.387645 
L 331.826655 174.734428 
L 332.029012 169.020086 
L 332.231369 168.20749 
L 332.838441 181.116581 
L 333.243155 201.863688 
L 334.457298 271.22791 
L 334.862013 274.441391 
L 335.06437 269.84467 
L 335.469084 246.890304 
L 335.873799 232.361298 
L 336.48087 209.046906 
L 337.087942 197.314237 
L 337.290299 194.880968 
L 338.504442 241.338267 
L 339.111514 274.784046 
L 339.313871 280.706871 
L 339.516228 281.584458 
L 339.718586 279.167313 
L 340.1233 263.749061 
L 340.730372 235.017969 
L 341.135086 217.479678 
L 341.944515 184.345747 
L 342.146872 182.84154 
L 342.349229 184.56593 
L 342.753944 191.907787 
L 343.361015 218.707484 
L 343.76573 245.310095 
L 344.170444 265.309035 
L 344.372801 265.664485 
L 344.575159 265.237782 
L 345.18223 244.235642 
L 346.194016 175.464605 
L 346.396374 155.285449 
L 346.598731 146.567089 
L 346.801088 144.689135 
L 347.003445 144.429117 
L 347.812874 175.104014 
L 348.217588 201.13759 
L 348.622303 232.938034 
L 349.027017 256.884669 
L 349.431732 261.860513 
L 349.634089 259.591333 
L 350.038803 240.601868 
L 350.848232 179.093871 
L 351.455304 135.707264 
L 351.657661 135.633079 
L 352.264733 156.120289 
L 352.669447 175.84888 
L 353.681233 257.689643 
L 354.085947 274.741101 
L 354.288305 273.844143 
L 354.895376 250.243958 
L 355.502448 214.935197 
L 355.907162 166.165154 
L 356.311877 135.045254 
L 356.514234 134.507229 
L 356.716591 136.915938 
L 357.121306 151.477098 
L 357.728377 185.547843 
L 358.740163 267.744924 
L 358.94252 273.264684 
L 359.144878 273.757334 
L 359.549592 260.629175 
L 360.156664 226.444115 
L 360.359021 211.789645 
L 361.16845 124.674871 
L 361.370807 122.316169 
L 361.573164 123.441921 
L 361.775521 126.208642 
L 362.382593 158.229397 
L 362.787307 185.355191 
L 363.394379 246.055475 
L 363.596736 259.881662 
L 363.799093 264.951718 
L 364.001451 266.997263 
L 364.203808 261.863962 
L 364.810879 224.008987 
L 365.215594 189.270741 
L 365.822665 105.836793 
L 366.025023 98.536788 
L 366.22738 103.915752 
L 366.429737 105.500987 
L 366.632094 110.121124 
L 367.036809 130.202904 
L 367.64388 184.388949 
L 368.048595 223.926418 
L 368.655666 252.837785 
L 368.858024 253.388737 
L 369.060381 248.886882 
L 370.072167 191.80544 
L 370.476881 142.86565 
L 370.881596 117.752084 
L 371.28631 126.861837 
L 371.691024 147.532635 
L 372.298096 195.207094 
L 372.905168 235.986102 
L 373.309882 256.743434 
L 373.512239 259.810487 
L 373.714597 259.223699 
L 373.916954 254.341634 
L 374.92874 211.65565 
L 375.738169 146.572925 
L 375.940526 148.904898 
L 376.142883 152.921388 
L 376.547597 172.53994 
L 377.761741 246.087514 
L 378.368812 272.51707 
L 378.57117 272.145617 
L 378.773527 266.871355 
L 379.98767 195.837678 
L 380.594742 142.930314 
L 380.797099 141.256134 
L 381.201813 144.244335 
L 381.40417 149.676722 
L 381.606528 159.027928 
L 383.023028 256.537568 
L 383.225385 259.470262 
L 383.427743 260.509881 
L 383.6301 256.110772 
L 384.237171 225.036563 
L 384.237171 225.036563 
" clip-path="url(#p54c7e8bebf)" style="fill: none; stroke: #ff7f0e; stroke-width: 1.5; stroke-linecap: square"/>
   </g>
   <g id="line2d_15">
    <path d="M 384.439529 214.639666 
L 384.641886 210.674103 
L 385.0466 209.373848 
L 385.451315 211.107739 
L 385.653672 215.172939 
L 385.856029 215.947183 
L 386.665458 230.655917 
L 387.677244 282.182948 
L 387.879601 282.404604 
L 388.081958 279.623637 
L 388.68903 254.054286 
L 388.891387 252.242463 
L 389.093744 253.561532 
L 389.296102 256.423653 
L 389.903173 241.418862 
L 390.10553 240.74368 
L 390.510245 224.904067 
L 390.712602 219.23704 
L 390.914959 216.889299 
L 391.117316 219.773067 
L 391.319674 227.837776 
L 391.522031 230.785036 
L 391.724388 231.266547 
L 392.736174 256.7808 
L 392.938531 255.634407 
L 393.140888 251.645519 
L 393.343246 244.818962 
L 393.74796 225.607236 
L 393.950317 219.000007 
L 394.962103 158.269555 
L 395.771532 102.19543 
L 395.973889 100.706848 
L 396.176247 101.829655 
L 396.378604 106.948913 
L 396.580961 108.478315 
L 396.985675 118.442749 
L 397.188033 119.956822 
L 397.39039 129.407636 
L 398.199819 192.99876 
L 398.402176 191.442008 
L 398.604533 188.420029 
L 399.009248 178.757874 
L 399.413962 169.396937 
L 400.223391 138.661636 
L 400.628105 145.779563 
L 400.830462 150.248829 
L 401.235177 167.087575 
L 402.044606 211.863553 
L 402.44932 235.658421 
L 402.651677 248.252261 
L 403.461106 258.487021 
L 403.663463 256.454887 
L 404.270535 232.863207 
L 404.472892 232.482054 
L 404.675249 231.39209 
L 404.877607 232.008246 
L 405.079964 235.01954 
L 405.687035 253.97714 
L 405.889393 254.516977 
L 406.09175 255.516925 
L 406.294107 257.101336 
L 406.496464 257.050916 
L 407.710607 272.543935 
L 408.115322 278.995117 
L 408.317679 277.265373 
L 408.722393 263.02198 
L 409.531822 225.904222 
L 410.138894 204.372535 
L 410.543608 190.926459 
L 410.745966 188.960436 
L 411.15068 199.051022 
L 411.757752 214.033072 
L 411.960109 216.655447 
L 412.364823 214.616585 
L 412.971895 204.548562 
L 413.376609 183.344806 
L 413.781324 156.157031 
L 414.388395 105.42988 
L 414.79311 80.516184 
L 415.197824 71.009537 
L 415.400181 69.494741 
L 415.804896 81.750886 
L 416.20961 112.214568 
L 417.221396 196.660886 
L 417.423753 200.924943 
L 417.626111 201.047673 
L 417.828468 197.243765 
L 418.030825 195.634539 
L 418.233182 195.631905 
L 418.637897 190.729079 
L 419.447325 174.427398 
L 419.649683 172.818555 
L 419.85204 174.963102 
L 420.459112 196.452811 
L 421.066183 226.762384 
L 421.470898 250.116399 
L 421.875612 257.521121 
L 422.280326 260.020352 
L 422.482684 261.063808 
L 423.49447 250.082843 
L 424.101541 253.249681 
L 424.303898 254.179129 
L 424.506256 254.052884 
L 424.91097 248.435611 
L 425.113327 247.462597 
L 425.315684 247.830981 
L 425.518042 248.678826 
L 426.125113 253.208064 
L 426.934542 272.413097 
L 427.136899 271.849487 
L 427.339257 266.77955 
L 428.148685 235.441751 
L 428.5534 227.569959 
L 429.565186 217.093374 
L 430.172257 220.685199 
L 430.374615 218.84105 
L 430.576972 215.454059 
L 430.981686 199.109548 
L 431.386401 175.850101 
L 432.19583 122.763564 
L 432.802901 76.998411 
L 433.005258 70.973446 
L 433.207616 68.877713 
L 433.409973 69.818732 
L 433.814687 82.357522 
L 434.219402 102.195091 
L 435.433545 180.536681 
L 435.838259 190.279681 
L 436.040617 190.357736 
L 436.647688 182.646008 
L 436.850045 182.779603 
L 437.052403 183.265672 
L 437.25476 183.055708 
L 437.457117 182.605697 
L 437.861831 178.161913 
L 438.064189 177.892884 
L 438.468903 186.27644 
L 438.873617 202.591995 
L 440.087761 269.005056 
L 440.290118 271.754619 
L 440.492475 270.688598 
L 441.301904 251.338826 
L 441.504261 251.137439 
L 441.706618 251.921806 
L 441.908976 253.203101 
L 442.111333 252.874415 
L 442.31369 251.151646 
L 442.920762 249.842845 
L 443.123119 250.997227 
L 443.932548 261.580348 
L 444.337262 263.138433 
L 444.741976 262.700608 
L 444.944334 261.837784 
L 445.349048 257.977831 
L 445.95612 245.523606 
L 446.563191 231.767452 
L 446.765549 229.781088 
L 447.170263 221.39186 
L 447.777335 209.650233 
L 448.384406 200.120216 
L 449.193835 194.338056 
L 449.396192 192.126858 
L 449.800907 173.21303 
L 450.610335 125.431015 
L 451.419764 61.131091 
L 451.622121 55.8 
L 451.824479 57.766275 
L 452.229193 77.476837 
L 453.038622 148.027519 
L 453.443336 176.29126 
L 453.848051 188.008446 
L 454.050408 190.982385 
L 454.252765 191.687068 
L 454.65748 189.20767 
L 454.859837 187.883868 
L 455.062194 187.907968 
L 455.669266 184.34763 
L 455.871623 184.198309 
L 456.07398 184.75115 
L 456.276337 186.214892 
L 456.681052 192.383829 
L 457.085766 208.304774 
L 458.097552 256.139639 
L 458.502267 265.391459 
L 458.704624 267.398015 
L 458.906981 266.929052 
L 459.514053 257.628916 
L 459.71641 257.753896 
L 460.121124 261.811685 
L 460.323481 261.617746 
L 460.525839 260.424295 
L 460.930553 253.609404 
L 461.13291 249.80904 
L 461.335267 248.46405 
L 461.537625 248.844613 
L 462.144696 251.078491 
L 462.347053 251.642467 
L 462.751768 258.483991 
L 463.156482 264.921365 
L 463.35884 265.32071 
L 463.561197 261.803771 
L 464.77534 227.913739 
L 464.977697 226.015169 
L 465.382412 224.39382 
L 466.394198 215.025808 
L 466.798912 204.600524 
L 467.203626 189.551858 
L 467.608341 169.882398 
L 468.620127 100.949439 
L 469.024841 87.853122 
L 469.227199 85.372594 
L 469.429556 84.461512 
L 469.631913 84.103697 
L 469.83427 85.935716 
L 470.238985 99.164689 
L 470.643699 121.359382 
L 471.453128 169.380896 
L 471.857842 182.795157 
L 472.060199 186.810724 
L 472.262557 186.452534 
L 472.667271 182.980848 
L 472.869628 182.42337 
L 473.071985 183.092226 
L 473.274343 184.196475 
L 473.679057 183.283794 
L 473.881414 183.787185 
L 474.083772 184.839618 
L 474.286129 186.535442 
L 474.690843 195.472622 
L 475.095558 209.751865 
L 476.309701 266.082299 
L 476.512058 268.738981 
L 476.714415 267.295057 
L 477.11913 257.909962 
L 477.321487 252.636015 
L 477.523844 251.517268 
L 477.928558 254.056186 
L 478.130916 255.753442 
L 478.333273 256.291648 
L 478.737987 254.692688 
L 478.940345 254.449407 
L 479.142702 253.897721 
L 479.345059 254.459297 
L 479.952131 261.223967 
L 480.154488 261.777749 
L 480.356845 261.645457 
L 480.559202 261.295042 
L 481.166274 258.626556 
L 481.570988 253.696936 
L 482.17806 241.843273 
L 482.785131 229.851505 
L 483.189846 223.439095 
L 483.999275 208.639225 
L 484.403989 202.15348 
L 485.415775 188.479245 
L 485.618132 182.120498 
L 486.022847 156.825807 
L 487.439347 65.059786 
L 487.641704 62.565527 
L 487.844062 64.346784 
L 488.248776 83.164966 
L 488.855848 130.146316 
L 489.462919 174.391582 
L 489.867634 186.486511 
L 490.069991 189.401332 
L 490.272348 189.29621 
L 490.677063 186.783525 
L 490.87942 185.554668 
L 491.081777 185.368303 
L 491.284134 185.430763 
L 491.688849 183.074041 
L 491.891206 183.241394 
L 492.29592 187.830466 
L 492.700635 195.015644 
L 493.105349 210.281394 
L 494.117135 255.210982 
L 494.52185 265.669357 
L 494.724207 267.291884 
L 494.926564 267.220492 
L 495.533636 255.867319 
L 495.735993 256.461166 
L 496.140707 260.718128 
L 496.343064 261.6437 
L 496.545422 260.496654 
L 496.950136 254.548053 
L 497.35485 248.794699 
L 497.557208 249.489007 
L 498.366636 254.518376 
L 499.176065 265.166795 
L 499.378422 263.825085 
L 499.783137 253.323135 
L 500.390209 236.383033 
L 500.99728 225.897953 
L 501.401995 222.905369 
L 501.806709 219.287484 
L 502.413781 212.41172 
L 502.818495 202.23444 
L 503.425567 178.975735 
L 503.830281 154.775034 
L 504.437353 113.150923 
L 505.044424 86.259127 
L 505.246782 82.971889 
L 505.449139 81.728395 
L 505.651496 82.148996 
L 505.853853 84.220366 
L 506.258568 97.657394 
L 506.663282 120.572689 
L 507.472711 170.804677 
L 507.877425 183.409346 
L 508.079782 187.184471 
L 508.28214 186.769381 
L 508.686854 182.895818 
L 508.889211 182.110367 
L 509.293926 184.34688 
L 509.69864 183.351759 
L 509.900997 183.804026 
L 510.305712 187.41718 
L 510.710426 196.251128 
L 510.912783 201.817781 
L 512.329284 265.404987 
L 512.531641 267.619073 
L 512.733998 266.595756 
L 513.138713 258.160303 
L 513.34107 252.911658 
L 513.543427 252.047681 
L 513.745784 253.232235 
L 514.150499 256.661308 
L 514.352856 257.239746 
L 514.555213 256.22846 
L 514.959927 255.395983 
L 515.162285 254.409457 
L 515.364642 254.338434 
L 515.971714 260.052752 
L 516.174071 260.561391 
L 516.376428 260.660998 
L 516.781142 260.185194 
L 516.9835 260.217063 
L 517.185857 259.211627 
L 517.590571 253.996148 
L 518.4 236.100323 
L 518.4 236.100323 
" clip-path="url(#p54c7e8bebf)" style="fill: none; stroke: #2ca02c; stroke-width: 1.5; stroke-linecap: square"/>
   </g>
   <g id="patch_3">
    <path d="M 72 320.4 
L 72 43.2 
" style="fill: none; stroke: #000000; stroke-width: 0.8; stroke-linejoin: miter; stroke-linecap: square"/>
   </g>
   <g id="patch_4">
    <path d="M 518.4 320.4 
L 518.4 43.2 
" style="fill: none; stroke: #000000; stroke-width: 0.8; stroke-linejoin: miter; stroke-linecap: square"/>
   </g>
   <g id="patch_5">
    <path d="M 72 320.4 
L 518.4 320.4 
" style="fill: none; stroke: #000000; stroke-width: 0.8; stroke-linejoin: miter; stroke-linecap: square"/>
   </g>
   <g id="patch_6">
    <path d="M 72 43.2 
L 518.4 43.2 
" style="fill: none; stroke: #000000; stroke-width: 0.8; stroke-linejoin: miter; stroke-linecap: square"/>
   </g>
   <g id="text_13">
    <!-- Classic Transformer - model_20231126162646 -->
    <g transform="translate(155.436563 37.2) scale(0.12 -0.12)">
     <defs>
      <path id="DejaVuSans-43" d="M 4122 4306 
L 4122 3641 
Q 3803 3938 3442 4084 
Q 3081 4231 2675 4231 
Q 1875 4231 1450 3742 
Q 1025 3253 1025 2328 
Q 1025 1406 1450 917 
Q 1875 428 2675 428 
Q 3081 428 3442 575 
Q 3803 722 4122 1019 
L 4122 359 
Q 3791 134 3420 21 
Q 3050 -91 2638 -91 
Q 1578 -91 968 557 
Q 359 1206 359 2328 
Q 359 3453 968 4101 
Q 1578 4750 2638 4750 
Q 3056 4750 3426 4639 
Q 3797 4528 4122 4306 
z
" transform="scale(0.015625)"/>
      <path id="DejaVuSans-6c" d="M 603 4863 
L 1178 4863 
L 1178 0 
L 603 0 
L 603 4863 
z
" transform="scale(0.015625)"/>
      <path id="DejaVuSans-61" d="M 2194 1759 
Q 1497 1759 1228 1600 
Q 959 1441 959 1056 
Q 959 750 1161 570 
Q 1363 391 1709 391 
Q 2188 391 2477 730 
Q 2766 1069 2766 1631 
L 2766 1759 
L 2194 1759 
z
M 3341 1997 
L 3341 0 
L 2766 0 
L 2766 531 
Q 2569 213 2275 61 
Q 1981 -91 1556 -91 
Q 1019 -91 701 211 
Q 384 513 384 1019 
Q 384 1609 779 1909 
Q 1175 2209 1959 2209 
L 2766 2209 
L 2766 2266 
Q 2766 2663 2505 2880 
Q 2244 3097 1772 3097 
Q 1472 3097 1187 3025 
Q 903 2953 641 2809 
L 641 3341 
Q 956 3463 1253 3523 
Q 1550 3584 1831 3584 
Q 2591 3584 2966 3190 
Q 3341 2797 3341 1997 
z
" transform="scale(0.015625)"/>
      <path id="DejaVuSans-73" d="M 2834 3397 
L 2834 2853 
Q 2591 2978 2328 3040 
Q 2066 3103 1784 3103 
Q 1356 3103 1142 2972 
Q 928 2841 928 2578 
Q 928 2378 1081 2264 
Q 1234 2150 1697 2047 
L 1894 2003 
Q 2506 1872 2764 1633 
Q 3022 1394 3022 966 
Q 3022 478 2636 193 
Q 2250 -91 1575 -91 
Q 1294 -91 989 -36 
Q 684 19 347 128 
L 347 722 
Q 666 556 975 473 
Q 1284 391 1588 391 
Q 1994 391 2212 530 
Q 2431 669 2431 922 
Q 2431 1156 2273 1281 
Q 2116 1406 1581 1522 
L 1381 1569 
Q 847 1681 609 1914 
Q 372 2147 372 2553 
Q 372 3047 722 3315 
Q 1072 3584 1716 3584 
Q 2034 3584 2315 3537 
Q 2597 3491 2834 3397 
z
" transform="scale(0.015625)"/>
      <path id="DejaVuSans-69" d="M 603 3500 
L 1178 3500 
L 1178 0 
L 603 0 
L 603 3500 
z
M 603 4863 
L 1178 4863 
L 1178 4134 
L 603 4134 
L 603 4863 
z
" transform="scale(0.015625)"/>
      <path id="DejaVuSans-63" d="M 3122 3366 
L 3122 2828 
Q 2878 2963 2633 3030 
Q 2388 3097 2138 3097 
Q 1578 3097 1268 2742 
Q 959 2388 959 1747 
Q 959 1106 1268 751 
Q 1578 397 2138 397 
Q 2388 397 2633 464 
Q 2878 531 3122 666 
L 3122 134 
Q 2881 22 2623 -34 
Q 2366 -91 2075 -91 
Q 1284 -91 818 406 
Q 353 903 353 1747 
Q 353 2603 823 3093 
Q 1294 3584 2113 3584 
Q 2378 3584 2631 3529 
Q 2884 3475 3122 3366 
z
" transform="scale(0.015625)"/>
      <path id="DejaVuSans-20" transform="scale(0.015625)"/>
      <path id="DejaVuSans-54" d="M -19 4666 
L 3928 4666 
L 3928 4134 
L 2272 4134 
L 2272 0 
L 1638 0 
L 1638 4134 
L -19 4134 
L -19 4666 
z
" transform="scale(0.015625)"/>
      <path id="DejaVuSans-72" d="M 2631 2963 
Q 2534 3019 2420 3045 
Q 2306 3072 2169 3072 
Q 1681 3072 1420 2755 
Q 1159 2438 1159 1844 
L 1159 0 
L 581 0 
L 581 3500 
L 1159 3500 
L 1159 2956 
Q 1341 3275 1631 3429 
Q 1922 3584 2338 3584 
Q 2397 3584 2469 3576 
Q 2541 3569 2628 3553 
L 2631 2963 
z
" transform="scale(0.015625)"/>
      <path id="DejaVuSans-6e" d="M 3513 2113 
L 3513 0 
L 2938 0 
L 2938 2094 
Q 2938 2591 2744 2837 
Q 2550 3084 2163 3084 
Q 1697 3084 1428 2787 
Q 1159 2491 1159 1978 
L 1159 0 
L 581 0 
L 581 3500 
L 1159 3500 
L 1159 2956 
Q 1366 3272 1645 3428 
Q 1925 3584 2291 3584 
Q 2894 3584 3203 3211 
Q 3513 2838 3513 2113 
z
" transform="scale(0.015625)"/>
      <path id="DejaVuSans-66" d="M 2375 4863 
L 2375 4384 
L 1825 4384 
Q 1516 4384 1395 4259 
Q 1275 4134 1275 3809 
L 1275 3500 
L 2222 3500 
L 2222 3053 
L 1275 3053 
L 1275 0 
L 697 0 
L 697 3053 
L 147 3053 
L 147 3500 
L 697 3500 
L 697 3744 
Q 697 4328 969 4595 
Q 1241 4863 1831 4863 
L 2375 4863 
z
" transform="scale(0.015625)"/>
      <path id="DejaVuSans-6f" d="M 1959 3097 
Q 1497 3097 1228 2736 
Q 959 2375 959 1747 
Q 959 1119 1226 758 
Q 1494 397 1959 397 
Q 2419 397 2687 759 
Q 2956 1122 2956 1747 
Q 2956 2369 2687 2733 
Q 2419 3097 1959 3097 
z
M 1959 3584 
Q 2709 3584 3137 3096 
Q 3566 2609 3566 1747 
Q 3566 888 3137 398 
Q 2709 -91 1959 -91 
Q 1206 -91 779 398 
Q 353 888 353 1747 
Q 353 2609 779 3096 
Q 1206 3584 1959 3584 
z
" transform="scale(0.015625)"/>
      <path id="DejaVuSans-6d" d="M 3328 2828 
Q 3544 3216 3844 3400 
Q 4144 3584 4550 3584 
Q 5097 3584 5394 3201 
Q 5691 2819 5691 2113 
L 5691 0 
L 5113 0 
L 5113 2094 
Q 5113 2597 4934 2840 
Q 4756 3084 4391 3084 
Q 3944 3084 3684 2787 
Q 3425 2491 3425 1978 
L 3425 0 
L 2847 0 
L 2847 2094 
Q 2847 2600 2669 2842 
Q 2491 3084 2119 3084 
Q 1678 3084 1418 2786 
Q 1159 2488 1159 1978 
L 1159 0 
L 581 0 
L 581 3500 
L 1159 3500 
L 1159 2956 
Q 1356 3278 1631 3431 
Q 1906 3584 2284 3584 
Q 2666 3584 2933 3390 
Q 3200 3197 3328 2828 
z
" transform="scale(0.015625)"/>
      <path id="DejaVuSans-65" d="M 3597 1894 
L 3597 1613 
L 953 1613 
Q 991 1019 1311 708 
Q 1631 397 2203 397 
Q 2534 397 2845 478 
Q 3156 559 3463 722 
L 3463 178 
Q 3153 47 2828 -22 
Q 2503 -91 2169 -91 
Q 1331 -91 842 396 
Q 353 884 353 1716 
Q 353 2575 817 3079 
Q 1281 3584 2069 3584 
Q 2775 3584 3186 3129 
Q 3597 2675 3597 1894 
z
M 3022 2063 
Q 3016 2534 2758 2815 
Q 2500 3097 2075 3097 
Q 1594 3097 1305 2825 
Q 1016 2553 972 2059 
L 3022 2063 
z
" transform="scale(0.015625)"/>
      <path id="DejaVuSans-64" d="M 2906 2969 
L 2906 4863 
L 3481 4863 
L 3481 0 
L 2906 0 
L 2906 525 
Q 2725 213 2448 61 
Q 2172 -91 1784 -91 
Q 1150 -91 751 415 
Q 353 922 353 1747 
Q 353 2572 751 3078 
Q 1150 3584 1784 3584 
Q 2172 3584 2448 3432 
Q 2725 3281 2906 2969 
z
M 947 1747 
Q 947 1113 1208 752 
Q 1469 391 1925 391 
Q 2381 391 2643 752 
Q 2906 1113 2906 1747 
Q 2906 2381 2643 2742 
Q 2381 3103 1925 3103 
Q 1469 3103 1208 2742 
Q 947 2381 947 1747 
z
" transform="scale(0.015625)"/>
      <path id="DejaVuSans-5f" d="M 3263 -1063 
L 3263 -1509 
L -63 -1509 
L -63 -1063 
L 3263 -1063 
z
" transform="scale(0.015625)"/>
      <path id="DejaVuSans-34" d="M 2419 4116 
L 825 1625 
L 2419 1625 
L 2419 4116 
z
M 2253 4666 
L 3047 4666 
L 3047 1625 
L 3713 1625 
L 3713 1100 
L 3047 1100 
L 3047 0 
L 2419 0 
L 2419 1100 
L 313 1100 
L 313 1709 
L 2253 4666 
z
" transform="scale(0.015625)"/>
     </defs>
     <use xlink:href="#DejaVuSans-43"/>
     <use xlink:href="#DejaVuSans-6c" x="69.824219"/>
     <use xlink:href="#DejaVuSans-61" x="97.607422"/>
     <use xlink:href="#DejaVuSans-73" x="158.886719"/>
     <use xlink:href="#DejaVuSans-73" x="210.986328"/>
     <use xlink:href="#DejaVuSans-69" x="263.085938"/>
     <use xlink:href="#DejaVuSans-63" x="290.869141"/>
     <use xlink:href="#DejaVuSans-20" x="345.849609"/>
     <use xlink:href="#DejaVuSans-54" x="377.636719"/>
     <use xlink:href="#DejaVuSans-72" x="423.970703"/>
     <use xlink:href="#DejaVuSans-61" x="465.083984"/>
     <use xlink:href="#DejaVuSans-6e" x="526.363281"/>
     <use xlink:href="#DejaVuSans-73" x="589.742188"/>
     <use xlink:href="#DejaVuSans-66" x="641.841797"/>
     <use xlink:href="#DejaVuSans-6f" x="677.046875"/>
     <use xlink:href="#DejaVuSans-72" x="738.228516"/>
     <use xlink:href="#DejaVuSans-6d" x="777.591797"/>
     <use xlink:href="#DejaVuSans-65" x="875.003906"/>
     <use xlink:href="#DejaVuSans-72" x="936.527344"/>
     <use xlink:href="#DejaVuSans-20" x="977.640625"/>
     <use xlink:href="#DejaVuSans-2d" x="1009.427734"/>
     <use xlink:href="#DejaVuSans-20" x="1045.511719"/>
     <use xlink:href="#DejaVuSans-6d" x="1077.298828"/>
     <use xlink:href="#DejaVuSans-6f" x="1174.710938"/>
     <use xlink:href="#DejaVuSans-64" x="1235.892578"/>
     <use xlink:href="#DejaVuSans-65" x="1299.369141"/>
     <use xlink:href="#DejaVuSans-6c" x="1360.892578"/>
     <use xlink:href="#DejaVuSans-5f" x="1388.675781"/>
     <use xlink:href="#DejaVuSans-32" x="1438.675781"/>
     <use xlink:href="#DejaVuSans-30" x="1502.298828"/>
     <use xlink:href="#DejaVuSans-32" x="1565.921875"/>
     <use xlink:href="#DejaVuSans-33" x="1629.544922"/>
     <use xlink:href="#DejaVuSans-31" x="1693.167969"/>
     <use xlink:href="#DejaVuSans-31" x="1756.791016"/>
     <use xlink:href="#DejaVuSans-32" x="1820.414062"/>
     <use xlink:href="#DejaVuSans-36" x="1884.037109"/>
     <use xlink:href="#DejaVuSans-31" x="1947.660156"/>
     <use xlink:href="#DejaVuSans-36" x="2011.283203"/>
     <use xlink:href="#DejaVuSans-32" x="2074.90625"/>
     <use xlink:href="#DejaVuSans-36" x="2138.529297"/>
     <use xlink:href="#DejaVuSans-34" x="2202.152344"/>
     <use xlink:href="#DejaVuSans-36" x="2265.775391"/>
    </g>
   </g>
   <g id="legend_1">
    <g id="patch_7">
     <path d="M 79 95.234375 
L 161.517188 95.234375 
Q 163.517188 95.234375 163.517188 93.234375 
L 163.517188 50.2 
Q 163.517188 48.2 161.517188 48.2 
L 79 48.2 
Q 77 48.2 77 50.2 
L 77 93.234375 
Q 77 95.234375 79 95.234375 
z
" style="fill: #ffffff; opacity: 0.8; stroke: #cccccc; stroke-linejoin: miter"/>
    </g>
    <g id="line2d_16">
     <path d="M 81 56.298437 
L 91 56.298437 
L 101 56.298437 
" style="fill: none; stroke: #1f77b4; stroke-width: 1.5; stroke-linecap: square"/>
    </g>
    <g id="text_14">
     <!-- Measured -->
     <g transform="translate(109 59.798437) scale(0.1 -0.1)">
      <defs>
       <path id="DejaVuSans-4d" d="M 628 4666 
L 1569 4666 
L 2759 1491 
L 3956 4666 
L 4897 4666 
L 4897 0 
L 4281 0 
L 4281 4097 
L 3078 897 
L 2444 897 
L 1241 4097 
L 1241 0 
L 628 0 
L 628 4666 
z
" transform="scale(0.015625)"/>
       <path id="DejaVuSans-75" d="M 544 1381 
L 544 3500 
L 1119 3500 
L 1119 1403 
Q 1119 906 1312 657 
Q 1506 409 1894 409 
Q 2359 409 2629 706 
Q 2900 1003 2900 1516 
L 2900 3500 
L 3475 3500 
L 3475 0 
L 2900 0 
L 2900 538 
Q 2691 219 2414 64 
Q 2138 -91 1772 -91 
Q 1169 -91 856 284 
Q 544 659 544 1381 
z
M 1991 3584 
L 1991 3584 
z
" transform="scale(0.015625)"/>
      </defs>
      <use xlink:href="#DejaVuSans-4d"/>
      <use xlink:href="#DejaVuSans-65" x="86.279297"/>
      <use xlink:href="#DejaVuSans-61" x="147.802734"/>
      <use xlink:href="#DejaVuSans-73" x="209.082031"/>
      <use xlink:href="#DejaVuSans-75" x="261.181641"/>
      <use xlink:href="#DejaVuSans-72" x="324.560547"/>
      <use xlink:href="#DejaVuSans-65" x="363.423828"/>
      <use xlink:href="#DejaVuSans-64" x="424.947266"/>
     </g>
    </g>
    <g id="line2d_17">
     <path d="M 81 70.976562 
L 91 70.976562 
L 101 70.976562 
" style="fill: none; stroke: #ff7f0e; stroke-width: 1.5; stroke-linecap: square"/>
    </g>
    <g id="text_15">
     <!-- Fitted -->
     <g transform="translate(109 74.476562) scale(0.1 -0.1)">
      <defs>
       <path id="DejaVuSans-46" d="M 628 4666 
L 3309 4666 
L 3309 4134 
L 1259 4134 
L 1259 2759 
L 3109 2759 
L 3109 2228 
L 1259 2228 
L 1259 0 
L 628 0 
L 628 4666 
z
" transform="scale(0.015625)"/>
       <path id="DejaVuSans-74" d="M 1172 4494 
L 1172 3500 
L 2356 3500 
L 2356 3053 
L 1172 3053 
L 1172 1153 
Q 1172 725 1289 603 
Q 1406 481 1766 481 
L 2356 481 
L 2356 0 
L 1766 0 
Q 1100 0 847 248 
Q 594 497 594 1153 
L 594 3053 
L 172 3053 
L 172 3500 
L 594 3500 
L 594 4494 
L 1172 4494 
z
" transform="scale(0.015625)"/>
      </defs>
      <use xlink:href="#DejaVuSans-46"/>
      <use xlink:href="#DejaVuSans-69" x="50.269531"/>
      <use xlink:href="#DejaVuSans-74" x="78.052734"/>
      <use xlink:href="#DejaVuSans-74" x="117.261719"/>
      <use xlink:href="#DejaVuSans-65" x="156.470703"/>
      <use xlink:href="#DejaVuSans-64" x="217.994141"/>
     </g>
    </g>
    <g id="line2d_18">
     <path d="M 81 85.654687 
L 91 85.654687 
L 101 85.654687 
" style="fill: none; stroke: #2ca02c; stroke-width: 1.5; stroke-linecap: square"/>
    </g>
    <g id="text_16">
     <!-- Estimated -->
     <g transform="translate(109 89.154687) scale(0.1 -0.1)">
      <defs>
       <path id="DejaVuSans-45" d="M 628 4666 
L 3578 4666 
L 3578 4134 
L 1259 4134 
L 1259 2753 
L 3481 2753 
L 3481 2222 
L 1259 2222 
L 1259 531 
L 3634 531 
L 3634 0 
L 628 0 
L 628 4666 
z
" transform="scale(0.015625)"/>
      </defs>
      <use xlink:href="#DejaVuSans-45"/>
      <use xlink:href="#DejaVuSans-73" x="63.183594"/>
      <use xlink:href="#DejaVuSans-74" x="115.283203"/>
      <use xlink:href="#DejaVuSans-69" x="154.492188"/>
      <use xlink:href="#DejaVuSans-6d" x="182.275391"/>
      <use xlink:href="#DejaVuSans-61" x="279.6875"/>
      <use xlink:href="#DejaVuSans-74" x="340.966797"/>
      <use xlink:href="#DejaVuSans-65" x="380.175781"/>
      <use xlink:href="#DejaVuSans-64" x="441.699219"/>
     </g>
    </g>
   </g>
  </g>
 </g>
 <defs>
  <clipPath id="p54c7e8bebf">
   <rect x="72" y="43.2" width="446.4" height="277.2"/>
  </clipPath>
 </defs>
</svg>
