<?xml version="1.0" encoding="utf-8" standalone="no"?>
<!DOCTYPE svg PUBLIC "-//W3C//DTD SVG 1.1//EN"
  "http://www.w3.org/Graphics/SVG/1.1/DTD/svg11.dtd">
<svg xmlns:xlink="http://www.w3.org/1999/xlink" width="576pt" height="360pt" viewBox="0 0 576 360" xmlns="http://www.w3.org/2000/svg" version="1.1">
 <metadata>
  <rdf:RDF xmlns:dc="http://purl.org/dc/elements/1.1/" xmlns:cc="http://creativecommons.org/ns#" xmlns:rdf="http://www.w3.org/1999/02/22-rdf-syntax-ns#">
   <cc:Work>
    <dc:type rdf:resource="http://purl.org/dc/dcmitype/StillImage"/>
    <dc:date>2023-11-23T16:57:29.779198</dc:date>
    <dc:format>image/svg+xml</dc:format>
    <dc:creator>
     <cc:Agent>
      <dc:title>Matplotlib v3.8.1, https://matplotlib.org/</dc:title>
     </cc:Agent>
    </dc:creator>
   </cc:Work>
  </rdf:RDF>
 </metadata>
 <defs>
  <style type="text/css">*{stroke-linejoin: round; stroke-linecap: butt}</style>
 </defs>
 <g id="figure_1">
  <g id="patch_1">
   <path d="M 0 360 
L 576 360 
L 576 0 
L 0 0 
z
" style="fill: #ffffff"/>
  </g>
  <g id="axes_1">
   <g id="patch_2">
    <path d="M 72 320.4 
L 518.4 320.4 
L 518.4 43.2 
L 72 43.2 
z
" style="fill: #ffffff"/>
   </g>
   <g id="matplotlib.axis_1">
    <g id="xtick_1">
     <g id="line2d_1">
      <defs>
       <path id="m1da158cb8f" d="M 0 0 
L 0 3.5 
" style="stroke: #000000; stroke-width: 0.8"/>
      </defs>
      <g>
       <use xlink:href="#m1da158cb8f" x="129.874161" y="320.4" style="stroke: #000000; stroke-width: 0.8"/>
      </g>
     </g>
     <g id="text_1">
      <!-- 2020-05-15 -->
      <g transform="translate(100.816349 334.998438) scale(0.1 -0.1)">
       <defs>
        <path id="DejaVuSans-32" d="M 1228 531 
L 3431 531 
L 3431 0 
L 469 0 
L 469 531 
Q 828 903 1448 1529 
Q 2069 2156 2228 2338 
Q 2531 2678 2651 2914 
Q 2772 3150 2772 3378 
Q 2772 3750 2511 3984 
Q 2250 4219 1831 4219 
Q 1534 4219 1204 4116 
Q 875 4013 500 3803 
L 500 4441 
Q 881 4594 1212 4672 
Q 1544 4750 1819 4750 
Q 2544 4750 2975 4387 
Q 3406 4025 3406 3419 
Q 3406 3131 3298 2873 
Q 3191 2616 2906 2266 
Q 2828 2175 2409 1742 
Q 1991 1309 1228 531 
z
" transform="scale(0.015625)"/>
        <path id="DejaVuSans-30" d="M 2034 4250 
Q 1547 4250 1301 3770 
Q 1056 3291 1056 2328 
Q 1056 1369 1301 889 
Q 1547 409 2034 409 
Q 2525 409 2770 889 
Q 3016 1369 3016 2328 
Q 3016 3291 2770 3770 
Q 2525 4250 2034 4250 
z
M 2034 4750 
Q 2819 4750 3233 4129 
Q 3647 3509 3647 2328 
Q 3647 1150 3233 529 
Q 2819 -91 2034 -91 
Q 1250 -91 836 529 
Q 422 1150 422 2328 
Q 422 3509 836 4129 
Q 1250 4750 2034 4750 
z
" transform="scale(0.015625)"/>
        <path id="DejaVuSans-2d" d="M 313 2009 
L 1997 2009 
L 1997 1497 
L 313 1497 
L 313 2009 
z
" transform="scale(0.015625)"/>
        <path id="DejaVuSans-35" d="M 691 4666 
L 3169 4666 
L 3169 4134 
L 1269 4134 
L 1269 2991 
Q 1406 3038 1543 3061 
Q 1681 3084 1819 3084 
Q 2600 3084 3056 2656 
Q 3513 2228 3513 1497 
Q 3513 744 3044 326 
Q 2575 -91 1722 -91 
Q 1428 -91 1123 -41 
Q 819 9 494 109 
L 494 744 
Q 775 591 1075 516 
Q 1375 441 1709 441 
Q 2250 441 2565 725 
Q 2881 1009 2881 1497 
Q 2881 1984 2565 2268 
Q 2250 2553 1709 2553 
Q 1456 2553 1204 2497 
Q 953 2441 691 2322 
L 691 4666 
z
" transform="scale(0.015625)"/>
        <path id="DejaVuSans-31" d="M 794 531 
L 1825 531 
L 1825 4091 
L 703 3866 
L 703 4441 
L 1819 4666 
L 2450 4666 
L 2450 531 
L 3481 531 
L 3481 0 
L 794 0 
L 794 531 
z
" transform="scale(0.015625)"/>
       </defs>
       <use xlink:href="#DejaVuSans-32"/>
       <use xlink:href="#DejaVuSans-30" x="63.623047"/>
       <use xlink:href="#DejaVuSans-32" x="127.246094"/>
       <use xlink:href="#DejaVuSans-30" x="190.869141"/>
       <use xlink:href="#DejaVuSans-2d" x="254.492188"/>
       <use xlink:href="#DejaVuSans-30" x="290.576172"/>
       <use xlink:href="#DejaVuSans-35" x="354.199219"/>
       <use xlink:href="#DejaVuSans-2d" x="417.822266"/>
       <use xlink:href="#DejaVuSans-31" x="453.90625"/>
       <use xlink:href="#DejaVuSans-35" x="517.529297"/>
      </g>
     </g>
    </g>
    <g id="xtick_2">
     <g id="line2d_2">
      <g>
       <use xlink:href="#m1da158cb8f" x="212.435902" y="320.4" style="stroke: #000000; stroke-width: 0.8"/>
      </g>
     </g>
     <g id="text_2">
      <!-- 2020-06-01 -->
      <g transform="translate(183.37809 334.998438) scale(0.1 -0.1)">
       <defs>
        <path id="DejaVuSans-36" d="M 2113 2584 
Q 1688 2584 1439 2293 
Q 1191 2003 1191 1497 
Q 1191 994 1439 701 
Q 1688 409 2113 409 
Q 2538 409 2786 701 
Q 3034 994 3034 1497 
Q 3034 2003 2786 2293 
Q 2538 2584 2113 2584 
z
M 3366 4563 
L 3366 3988 
Q 3128 4100 2886 4159 
Q 2644 4219 2406 4219 
Q 1781 4219 1451 3797 
Q 1122 3375 1075 2522 
Q 1259 2794 1537 2939 
Q 1816 3084 2150 3084 
Q 2853 3084 3261 2657 
Q 3669 2231 3669 1497 
Q 3669 778 3244 343 
Q 2819 -91 2113 -91 
Q 1303 -91 875 529 
Q 447 1150 447 2328 
Q 447 3434 972 4092 
Q 1497 4750 2381 4750 
Q 2619 4750 2861 4703 
Q 3103 4656 3366 4563 
z
" transform="scale(0.015625)"/>
       </defs>
       <use xlink:href="#DejaVuSans-32"/>
       <use xlink:href="#DejaVuSans-30" x="63.623047"/>
       <use xlink:href="#DejaVuSans-32" x="127.246094"/>
       <use xlink:href="#DejaVuSans-30" x="190.869141"/>
       <use xlink:href="#DejaVuSans-2d" x="254.492188"/>
       <use xlink:href="#DejaVuSans-30" x="290.576172"/>
       <use xlink:href="#DejaVuSans-36" x="354.199219"/>
       <use xlink:href="#DejaVuSans-2d" x="417.822266"/>
       <use xlink:href="#DejaVuSans-30" x="453.90625"/>
       <use xlink:href="#DejaVuSans-31" x="517.529297"/>
      </g>
     </g>
    </g>
    <g id="xtick_3">
     <g id="line2d_3">
      <g>
       <use xlink:href="#m1da158cb8f" x="280.427924" y="320.4" style="stroke: #000000; stroke-width: 0.8"/>
      </g>
     </g>
     <g id="text_3">
      <!-- 2020-06-15 -->
      <g transform="translate(251.370111 334.998438) scale(0.1 -0.1)">
       <use xlink:href="#DejaVuSans-32"/>
       <use xlink:href="#DejaVuSans-30" x="63.623047"/>
       <use xlink:href="#DejaVuSans-32" x="127.246094"/>
       <use xlink:href="#DejaVuSans-30" x="190.869141"/>
       <use xlink:href="#DejaVuSans-2d" x="254.492188"/>
       <use xlink:href="#DejaVuSans-30" x="290.576172"/>
       <use xlink:href="#DejaVuSans-36" x="354.199219"/>
       <use xlink:href="#DejaVuSans-2d" x="417.822266"/>
       <use xlink:href="#DejaVuSans-31" x="453.90625"/>
       <use xlink:href="#DejaVuSans-35" x="517.529297"/>
      </g>
     </g>
    </g>
    <g id="xtick_4">
     <g id="line2d_4">
      <g>
       <use xlink:href="#m1da158cb8f" x="358.133092" y="320.4" style="stroke: #000000; stroke-width: 0.8"/>
      </g>
     </g>
     <g id="text_4">
      <!-- 2020-07-01 -->
      <g transform="translate(329.075279 334.998438) scale(0.1 -0.1)">
       <defs>
        <path id="DejaVuSans-37" d="M 525 4666 
L 3525 4666 
L 3525 4397 
L 1831 0 
L 1172 0 
L 2766 4134 
L 525 4134 
L 525 4666 
z
" transform="scale(0.015625)"/>
       </defs>
       <use xlink:href="#DejaVuSans-32"/>
       <use xlink:href="#DejaVuSans-30" x="63.623047"/>
       <use xlink:href="#DejaVuSans-32" x="127.246094"/>
       <use xlink:href="#DejaVuSans-30" x="190.869141"/>
       <use xlink:href="#DejaVuSans-2d" x="254.492188"/>
       <use xlink:href="#DejaVuSans-30" x="290.576172"/>
       <use xlink:href="#DejaVuSans-37" x="354.199219"/>
       <use xlink:href="#DejaVuSans-2d" x="417.822266"/>
       <use xlink:href="#DejaVuSans-30" x="453.90625"/>
       <use xlink:href="#DejaVuSans-31" x="517.529297"/>
      </g>
     </g>
    </g>
    <g id="xtick_5">
     <g id="line2d_5">
      <g>
       <use xlink:href="#m1da158cb8f" x="426.125113" y="320.4" style="stroke: #000000; stroke-width: 0.8"/>
      </g>
     </g>
     <g id="text_5">
      <!-- 2020-07-15 -->
      <g transform="translate(397.067301 334.998438) scale(0.1 -0.1)">
       <use xlink:href="#DejaVuSans-32"/>
       <use xlink:href="#DejaVuSans-30" x="63.623047"/>
       <use xlink:href="#DejaVuSans-32" x="127.246094"/>
       <use xlink:href="#DejaVuSans-30" x="190.869141"/>
       <use xlink:href="#DejaVuSans-2d" x="254.492188"/>
       <use xlink:href="#DejaVuSans-30" x="290.576172"/>
       <use xlink:href="#DejaVuSans-37" x="354.199219"/>
       <use xlink:href="#DejaVuSans-2d" x="417.822266"/>
       <use xlink:href="#DejaVuSans-31" x="453.90625"/>
       <use xlink:href="#DejaVuSans-35" x="517.529297"/>
      </g>
     </g>
    </g>
    <g id="xtick_6">
     <g id="line2d_6">
      <g>
       <use xlink:href="#m1da158cb8f" x="508.686854" y="320.4" style="stroke: #000000; stroke-width: 0.8"/>
      </g>
     </g>
     <g id="text_6">
      <!-- 2020-08-01 -->
      <g transform="translate(479.629042 334.998438) scale(0.1 -0.1)">
       <defs>
        <path id="DejaVuSans-38" d="M 2034 2216 
Q 1584 2216 1326 1975 
Q 1069 1734 1069 1313 
Q 1069 891 1326 650 
Q 1584 409 2034 409 
Q 2484 409 2743 651 
Q 3003 894 3003 1313 
Q 3003 1734 2745 1975 
Q 2488 2216 2034 2216 
z
M 1403 2484 
Q 997 2584 770 2862 
Q 544 3141 544 3541 
Q 544 4100 942 4425 
Q 1341 4750 2034 4750 
Q 2731 4750 3128 4425 
Q 3525 4100 3525 3541 
Q 3525 3141 3298 2862 
Q 3072 2584 2669 2484 
Q 3125 2378 3379 2068 
Q 3634 1759 3634 1313 
Q 3634 634 3220 271 
Q 2806 -91 2034 -91 
Q 1263 -91 848 271 
Q 434 634 434 1313 
Q 434 1759 690 2068 
Q 947 2378 1403 2484 
z
M 1172 3481 
Q 1172 3119 1398 2916 
Q 1625 2713 2034 2713 
Q 2441 2713 2670 2916 
Q 2900 3119 2900 3481 
Q 2900 3844 2670 4047 
Q 2441 4250 2034 4250 
Q 1625 4250 1398 4047 
Q 1172 3844 1172 3481 
z
" transform="scale(0.015625)"/>
       </defs>
       <use xlink:href="#DejaVuSans-32"/>
       <use xlink:href="#DejaVuSans-30" x="63.623047"/>
       <use xlink:href="#DejaVuSans-32" x="127.246094"/>
       <use xlink:href="#DejaVuSans-30" x="190.869141"/>
       <use xlink:href="#DejaVuSans-2d" x="254.492188"/>
       <use xlink:href="#DejaVuSans-30" x="290.576172"/>
       <use xlink:href="#DejaVuSans-38" x="354.199219"/>
       <use xlink:href="#DejaVuSans-2d" x="417.822266"/>
       <use xlink:href="#DejaVuSans-30" x="453.90625"/>
       <use xlink:href="#DejaVuSans-31" x="517.529297"/>
      </g>
     </g>
    </g>
   </g>
   <g id="matplotlib.axis_2">
    <g id="ytick_1">
     <g id="line2d_7">
      <defs>
       <path id="m3622632b01" d="M 0 0 
L -3.5 0 
" style="stroke: #000000; stroke-width: 0.8"/>
      </defs>
      <g>
       <use xlink:href="#m3622632b01" x="72" y="315.865903" style="stroke: #000000; stroke-width: 0.8"/>
      </g>
     </g>
     <g id="text_7">
      <!-- −2 -->
      <g transform="translate(50.257812 319.665121) scale(0.1 -0.1)">
       <defs>
        <path id="DejaVuSans-2212" d="M 678 2272 
L 4684 2272 
L 4684 1741 
L 678 1741 
L 678 2272 
z
" transform="scale(0.015625)"/>
       </defs>
       <use xlink:href="#DejaVuSans-2212"/>
       <use xlink:href="#DejaVuSans-32" x="83.789062"/>
      </g>
     </g>
    </g>
    <g id="ytick_2">
     <g id="line2d_8">
      <g>
       <use xlink:href="#m3622632b01" x="72" y="263.141375" style="stroke: #000000; stroke-width: 0.8"/>
      </g>
     </g>
     <g id="text_8">
      <!-- −1 -->
      <g transform="translate(50.257812 266.940593) scale(0.1 -0.1)">
       <use xlink:href="#DejaVuSans-2212"/>
       <use xlink:href="#DejaVuSans-31" x="83.789062"/>
      </g>
     </g>
    </g>
    <g id="ytick_3">
     <g id="line2d_9">
      <g>
       <use xlink:href="#m3622632b01" x="72" y="210.416847" style="stroke: #000000; stroke-width: 0.8"/>
      </g>
     </g>
     <g id="text_9">
      <!-- 0 -->
      <g transform="translate(58.6375 214.216065) scale(0.1 -0.1)">
       <use xlink:href="#DejaVuSans-30"/>
      </g>
     </g>
    </g>
    <g id="ytick_4">
     <g id="line2d_10">
      <g>
       <use xlink:href="#m3622632b01" x="72" y="157.692319" style="stroke: #000000; stroke-width: 0.8"/>
      </g>
     </g>
     <g id="text_10">
      <!-- 1 -->
      <g transform="translate(58.6375 161.491538) scale(0.1 -0.1)">
       <use xlink:href="#DejaVuSans-31"/>
      </g>
     </g>
    </g>
    <g id="ytick_5">
     <g id="line2d_11">
      <g>
       <use xlink:href="#m3622632b01" x="72" y="104.967791" style="stroke: #000000; stroke-width: 0.8"/>
      </g>
     </g>
     <g id="text_11">
      <!-- 2 -->
      <g transform="translate(58.6375 108.76701) scale(0.1 -0.1)">
       <use xlink:href="#DejaVuSans-32"/>
      </g>
     </g>
    </g>
    <g id="ytick_6">
     <g id="line2d_12">
      <g>
       <use xlink:href="#m3622632b01" x="72" y="52.243263" style="stroke: #000000; stroke-width: 0.8"/>
      </g>
     </g>
     <g id="text_12">
      <!-- 3 -->
      <g transform="translate(58.6375 56.042482) scale(0.1 -0.1)">
       <defs>
        <path id="DejaVuSans-33" d="M 2597 2516 
Q 3050 2419 3304 2112 
Q 3559 1806 3559 1356 
Q 3559 666 3084 287 
Q 2609 -91 1734 -91 
Q 1441 -91 1130 -33 
Q 819 25 488 141 
L 488 750 
Q 750 597 1062 519 
Q 1375 441 1716 441 
Q 2309 441 2620 675 
Q 2931 909 2931 1356 
Q 2931 1769 2642 2001 
Q 2353 2234 1838 2234 
L 1294 2234 
L 1294 2753 
L 1863 2753 
Q 2328 2753 2575 2939 
Q 2822 3125 2822 3475 
Q 2822 3834 2567 4026 
Q 2313 4219 1838 4219 
Q 1578 4219 1281 4162 
Q 984 4106 628 3988 
L 628 4550 
Q 988 4650 1302 4700 
Q 1616 4750 1894 4750 
Q 2613 4750 3031 4423 
Q 3450 4097 3450 3541 
Q 3450 3153 3228 2886 
Q 3006 2619 2597 2516 
z
" transform="scale(0.015625)"/>
       </defs>
       <use xlink:href="#DejaVuSans-33"/>
      </g>
     </g>
    </g>
   </g>
   <g id="line2d_13">
    <path d="M 72 287.418735 
L 72.404714 298.59222 
L 72.607072 296.895506 
L 72.809429 286.384153 
L 73.214143 255.92606 
L 73.618858 243.676609 
L 75.035358 161.944632 
L 75.237715 159.027111 
L 75.440073 164.013796 
L 75.64243 172.104227 
L 75.844787 175.352815 
L 76.047144 190.374945 
L 76.654216 259.609171 
L 77.05893 283.32179 
L 77.261287 287.625651 
L 77.463645 287.253202 
L 77.666002 276.700466 
L 78.070716 248.621911 
L 78.475431 236.331077 
L 78.677788 227.330214 
L 79.487217 171.173104 
L 79.891931 155.137083 
L 80.094288 157.061405 
L 80.903717 198.858517 
L 81.713146 273.10012 
L 82.11786 287.542885 
L 82.320218 289.549974 
L 82.522575 289.260291 
L 82.724932 286.777294 
L 82.927289 280.052511 
L 83.332004 257.395166 
L 83.736718 243.283468 
L 83.939075 240.28318 
L 84.141432 240.552171 
L 84.546147 246.863121 
L 84.748504 248.932285 
L 84.950861 248.952977 
L 85.355576 253.091305 
L 85.557933 249.801334 
L 85.76029 255.843293 
L 86.569719 300.164785 
L 86.772076 306.16536 
L 86.974433 307.737925 
L 87.176791 307.8 
L 87.379148 306.475735 
L 87.581505 302.792623 
L 87.783862 296.129915 
L 88.188577 274.383002 
L 88.390934 269.272167 
L 89.200363 261.305886 
L 89.40272 257.229633 
L 89.807434 242.642027 
L 90.212149 240.221105 
L 90.414506 237.551884 
L 90.616863 245.394015 
L 91.223935 295.281558 
L 91.628649 306.16536 
L 91.831006 306.227435 
L 92.033364 303.76513 
L 92.842792 258.243523 
L 93.04515 256.132976 
L 93.449864 247.649404 
L 93.652221 247.132113 
L 93.854578 244.235283 
L 94.056936 243.614534 
L 94.259293 241.028079 
L 94.46165 234.717129 
L 94.664007 231.903066 
L 94.866364 232.813498 
L 95.068722 235.917244 
L 95.271079 232.130674 
L 95.473436 242.104044 
L 96.080508 295.654008 
L 96.485222 304.737637 
L 96.687579 306.620577 
L 96.889937 302.337407 
L 97.699365 257.519316 
L 98.306437 247.152804 
L 98.508794 246.780355 
L 99.52058 225.840416 
L 99.722937 227.081914 
L 99.925295 231.385775 
L 100.127652 229.585602 
L 100.330009 239.600356 
L 100.937081 293.212394 
L 101.341795 305.317003 
L 101.544152 306.28951 
L 101.74651 302.62709 
L 101.948867 290.832856 
L 102.353581 261.202428 
L 102.555938 259.671246 
L 103.567724 242.124736 
L 104.377153 220.315748 
L 104.57951 221.577938 
L 104.781868 226.895689 
L 104.984225 226.874998 
L 105.186582 235.648253 
L 105.793654 290.108648 
L 106.198368 302.689165 
L 106.400725 304.427263 
L 106.603083 300.454468 
L 107.412511 255.139777 
L 107.614869 253.443063 
L 107.817226 249.822026 
L 108.22194 235.48272 
L 108.626655 214.066873 
L 108.829012 208.211139 
L 109.031369 206.348891 
L 109.638441 214.91523 
L 109.840798 220.274364 
L 110.043155 230.537418 
L 110.650227 284.852972 
L 111.054941 298.923287 
L 111.257298 300.806226 
L 111.459655 299.08882 
L 111.662013 287.832568 
L 112.066727 258.967731 
L 112.471442 244.173208 
L 113.887942 176.67708 
L 114.090299 174.338925 
L 114.292656 181.063707 
L 114.495014 192.340651 
L 114.697371 196.87212 
L 115.102085 230.43396 
L 115.709157 279.142079 
L 116.113871 292.902019 
L 116.316228 293.067553 
L 116.518586 291.432913 
L 116.720943 287.853259 
L 117.125657 260.97482 
L 118.542158 157.702846 
L 118.744515 147.729476 
L 118.946872 143.901523 
L 119.149229 147.52256 
L 119.756301 184.891661 
L 120.56573 263.188825 
L 120.970444 282.742424 
L 121.172801 286.777294 
L 121.375159 288.391242 
L 121.577516 286.963519 
L 121.779873 279.142079 
L 122.589302 228.820012 
L 123.196374 203.700361 
L 123.398731 199.189584 
L 123.601088 199.3965 
L 123.803445 198.837826 
L 124.410517 212.059784 
L 124.612874 222.881511 
L 125.219946 278.417872 
L 125.62466 292.757178 
L 125.827017 294.722884 
L 126.029374 292.219195 
L 127.04116 236.579376 
L 127.648232 199.665491 
L 128.255304 157.847688 
L 128.457661 150.398698 
L 128.660018 150.067631 
L 129.26709 193.809757 
L 130.278876 283.44594 
L 130.481233 291.163922 
L 130.68359 292.52957 
L 130.885947 289.984498 
L 132.504805 182.512122 
L 133.111877 140.404636 
L 133.314234 131.114089 
L 133.516591 132.790112 
L 133.921306 147.957084 
L 134.123663 155.281924 
L 135.135449 263.706116 
L 135.540163 276.162483 
L 135.74252 275.231359 
L 135.944878 264.782081 
L 136.349592 233.786005 
L 136.551949 227.102606 
L 136.754306 215.391138 
L 136.956664 219.901915 
L 137.159021 208.749121 
L 137.766092 200.037941 
L 137.96845 200.431082 
L 138.373164 195.092639 
L 138.777879 202.541629 
L 138.980236 203.369295 
L 139.182593 215.018688 
L 139.789665 270.906807 
L 140.194379 286.073778 
L 140.396736 288.122251 
L 140.599093 285.142655 
L 141.003808 255.326002 
L 141.408522 234.427446 
L 142.015594 221.205488 
L 142.622665 212.183933 
L 142.825023 211.914942 
L 143.02738 210.714827 
L 143.229737 211.397651 
L 143.634451 216.611944 
L 143.836809 215.391138 
L 144.039166 225.447274 
L 144.646238 274.155394 
L 145.050952 286.09447 
L 145.253309 287.377352 
L 145.455666 284.273606 
L 145.860381 254.994936 
L 146.062738 238.751999 
L 146.66981 222.48837 
L 146.872167 219.83984 
L 147.074524 218.763875 
L 147.479238 207.797306 
L 147.681596 216.156728 
L 147.883953 217.129235 
L 148.08631 219.71569 
L 148.491024 228.92347 
L 148.693382 227.578513 
L 149.098096 250.939374 
L 149.502811 278.76963 
L 149.907525 291.743288 
L 150.109882 293.79176 
L 150.312239 293.212394 
L 150.514597 290.398331 
L 150.716954 284.70813 
L 151.121668 263.892341 
L 151.526383 243.449001 
L 151.931097 237.655342 
L 152.133454 237.220817 
L 152.335811 239.186523 
L 152.538169 239.703814 
L 152.740526 237.655342 
L 152.942883 237.945025 
L 153.14524 236.972518 
L 153.347597 237.013901 
L 153.549955 234.09638 
L 153.752312 236.289694 
L 154.764098 287.646343 
L 154.966455 291.598446 
L 155.168812 292.984786 
L 155.573527 289.053375 
L 155.775884 278.004039 
L 156.78767 200.224166 
L 157.799456 157.682155 
L 158.001813 159.689244 
L 158.406528 172.869818 
L 158.608885 186.40215 
L 159.215956 254.912169 
L 159.620671 276.472858 
L 159.823028 279.680062 
L 160.025385 278.76963 
L 160.227743 268.982484 
L 160.632457 236.579376 
L 161.8466 186.360767 
L 162.251315 176.325322 
L 162.453672 176.470163 
L 162.656029 179.32561 
L 163.465458 211.087276 
L 164.072529 270.844732 
L 164.477244 289.425824 
L 164.679601 289.75689 
L 164.881958 286.528994 
L 165.084316 276.390091 
L 165.48903 244.669808 
L 166.500816 209.638862 
L 167.310245 166.786476 
L 167.512602 170.138522 
L 167.917316 190.68532 
L 168.119674 195.134022 
L 168.322031 206.473041 
L 168.929102 265.795972 
L 169.333817 280.962943 
L 169.536174 284.480522 
L 169.738531 280.818102 
L 170.143246 253.567213 
L 170.54796 223.295344 
L 171.357389 178.787627 
L 171.559746 172.76636 
L 172.166818 148.598525 
L 172.369175 150.212473 
L 172.571532 158.116679 
L 173.178604 197.037653 
L 173.785675 268.030669 
L 174.19039 287.398043 
L 174.392747 290.377639 
L 174.595104 288.556775 
L 174.999819 264.38894 
L 175.404533 239.414131 
L 177.023391 161.261808 
L 177.225748 161.779099 
L 177.428105 165.689819 
L 177.630462 182.263823 
L 177.83282 184.705436 
L 178.237534 228.778628 
L 178.642248 271.651706 
L 179.046963 290.832856 
L 179.24932 294.557351 
L 179.451677 292.032971 
L 179.654034 283.342482 
L 180.261106 243.511076 
L 181.879964 146.591436 
L 182.082321 143.322157 
L 182.284678 148.991666 
L 183.094107 205.314309 
L 183.498821 244.31805 
L 183.903536 265.77528 
L 184.30825 273.617411 
L 184.510607 274.98306 
L 184.712965 271.341331 
L 184.915322 257.95384 
L 185.724751 175.911489 
L 186.129465 154.516334 
L 186.331822 148.453683 
L 186.53418 147.688093 
L 186.736537 150.233164 
L 187.748323 190.706011 
L 188.557752 254.953552 
L 188.962466 269.148017 
L 189.164823 271.19649 
L 189.36718 271.279256 
L 189.569538 270.534357 
L 189.771895 259.733321 
L 190.986038 163.620655 
L 191.188395 158.302904 
L 191.390752 158.261521 
L 191.795467 167.427917 
L 192.604896 198.796443 
L 193.414325 262.257701 
L 193.819039 275.99695 
L 194.021396 277.072915 
L 194.426111 273.10012 
L 194.628468 264.119949 
L 195.437897 203.05892 
L 195.640254 198.030852 
L 195.842611 199.251659 
L 196.247325 205.335001 
L 196.449683 205.914367 
L 196.65204 205.521225 
L 197.056754 213.756498 
L 197.259112 214.604855 
L 197.461469 223.047044 
L 198.06854 271.548247 
L 198.473255 285.784095 
L 198.675612 285.887554 
L 198.877969 282.225133 
L 199.282684 251.332516 
L 199.687398 228.42687 
L 201.306256 161.779099 
L 201.508613 160.620367 
L 202.115684 179.884284 
L 202.318042 191.078461 
L 202.925113 255.388077 
L 203.329828 273.10012 
L 203.532185 275.210668 
L 203.734542 272.21038 
L 203.936899 260.643753 
L 204.341614 226.52324 
L 205.758114 171.649011 
L 205.960471 169.145323 
L 206.162829 169.290164 
L 206.365186 170.717888 
L 206.7699 182.61558 
L 206.972257 185.822785 
L 207.174615 196.706587 
L 207.781686 255.988134 
L 208.186401 272.21038 
L 208.388758 275.272743 
L 208.591115 271.920697 
L 208.793472 260.002313 
L 209.198187 226.068024 
L 209.805258 203.700361 
L 210.209973 183.732929 
L 210.817044 141.873742 
L 211.019402 133.348786 
L 211.221759 136.328383 
L 211.626473 160.91005 
L 211.82883 166.145035 
L 212.031188 180.939558 
L 212.638259 246.263064 
L 213.042974 264.926923 
L 213.245331 268.941101 
L 213.447688 267.223695 
L 213.650045 256.464042 
L 214.257117 213.011599 
L 214.661831 186.546992 
L 215.47126 126.934378 
L 215.875975 110.132767 
L 216.078332 109.656859 
L 216.280689 115.22291 
L 217.090118 179.284226 
L 217.697189 241.483295 
L 218.101904 260.023004 
L 218.304261 263.395741 
L 218.506618 264.76139 
L 218.708976 263.4992 
L 218.911333 250.711766 
L 219.518404 195.672005 
L 220.125476 160.309993 
L 220.327833 158.137371 
L 220.53019 160.372068 
L 221.541976 202.872696 
L 221.744334 208.045605 
L 222.553762 265.195914 
L 222.958477 276.1211 
L 223.160834 277.838506 
L 223.363191 278.190264 
L 223.565549 276.617699 
L 223.767906 267.865136 
L 224.374977 229.482144 
L 224.779692 221.867621 
L 225.386763 223.936785 
L 225.589121 227.475055 
L 225.791478 228.364796 
L 226.196192 236.786293 
L 226.398549 236.434535 
L 226.600907 242.890327 
L 227.410335 296.750664 
L 227.612693 300.806226 
L 227.81505 302.50294 
L 228.017407 299.295736 
L 228.826836 256.505425 
L 229.029193 254.16727 
L 229.23155 248.394303 
L 230.648051 184.684744 
L 230.850408 185.26411 
L 231.255122 199.748258 
L 231.45748 210.694135 
L 232.064551 274.672685 
L 232.469266 291.929512 
L 232.671623 294.660809 
L 232.87398 293.440002 
L 233.278694 268.030669 
L 233.683409 245.394015 
L 235.302267 180.505033 
L 235.504624 179.904976 
L 236.111695 199.106817 
L 236.314053 209.514712 
L 236.921124 271.941389 
L 237.325839 287.894643 
L 237.528196 291.039772 
L 237.730553 288.908533 
L 238.135267 264.844156 
L 238.539982 242.952401 
L 239.349411 211.873559 
L 239.754125 201.817422 
L 240.15884 191.554369 
L 240.361197 191.306069 
L 240.563554 196.789354 
L 240.968268 214.480705 
L 241.170626 222.095229 
L 241.777697 277.900581 
L 242.182412 293.833143 
L 242.384769 296.336832 
L 242.587126 293.336544 
L 242.99184 268.506576 
L 243.396555 250.463467 
L 245.21777 175.456273 
L 245.420127 179.718751 
L 246.027199 206.638574 
L 246.836627 280.466344 
L 247.038985 288.86715 
L 247.241342 292.053662 
L 247.443699 289.508591 
L 247.848413 265.837355 
L 249.467271 153.316219 
L 249.669628 145.205096 
L 249.871985 143.260082 
L 250.074343 143.425615 
L 250.2767 150.398698 
L 250.883772 182.656964 
L 251.6932 257.974532 
L 252.097915 272.562138 
L 252.300272 275.645192 
L 252.502629 275.914183 
L 252.704986 272.024155 
L 253.109701 239.124448 
L 253.91913 165.586361 
L 254.323844 149.715873 
L 254.728558 140.859852 
L 254.930916 139.597662 
L 255.133273 147.129418 
L 255.740345 184.767511 
L 256.549773 260.312687 
L 256.954488 275.852108 
L 257.156845 279.680062 
L 257.359202 281.356085 
L 257.561559 280.383578 
L 257.966274 251.373899 
L 258.573345 200.762148 
L 258.97806 178.994543 
L 259.382774 167.924516 
L 259.585131 164.469012 
L 259.787489 164.034488 
L 259.989846 166.662326 
L 260.39456 182.719039 
L 260.596917 196.127221 
L 261.203989 258.388365 
L 261.608704 277.176373 
L 261.811061 280.114586 
L 262.013418 279.328304 
L 262.418132 255.263927 
L 262.62049 243.200701 
L 263.025204 233.496322 
L 263.227561 230.682259 
L 263.429918 229.668369 
L 263.834633 230.951251 
L 264.03699 230.640876 
L 264.239347 231.592691 
L 264.441704 231.675458 
L 264.644062 231.406467 
L 264.846419 233.454939 
L 265.048776 237.5105 
L 265.251133 237.5105 
L 265.45349 241.54537 
L 266.060562 284.190839 
L 266.465277 297.081731 
L 266.667634 298.633604 
L 266.869991 294.433201 
L 267.072348 286.446228 
L 267.477063 259.836779 
L 268.084134 237.572575 
L 268.488849 227.247447 
L 269.09592 215.949812 
L 269.500635 211.977017 
L 269.702992 214.170331 
L 269.905349 217.791368 
L 270.107706 218.474192 
L 270.310063 224.805834 
L 270.917135 273.865711 
L 271.32185 285.887554 
L 271.524207 288.039484 
L 271.726564 286.322078 
L 274.15485 144.149822 
L 274.357208 136.949132 
L 274.559565 140.301177 
L 275.166636 165.565669 
L 275.976065 247.483871 
L 276.38078 260.105771 
L 276.583137 259.402255 
L 276.987851 237.469117 
L 277.392566 208.438747 
L 278.404352 151.247055 
L 278.606709 148.184692 
L 279.011423 134.900659 
L 279.213781 133.286712 
L 279.416138 137.569881 
L 280.023209 179.470451 
L 280.630281 251.125599 
L 281.034995 274.010553 
L 281.237353 278.914471 
L 281.43971 277.362598 
L 281.642067 271.444789 
L 282.249139 229.502836 
L 282.85621 195.713388 
L 283.867996 152.736853 
L 284.070354 151.536738 
L 284.272711 159.730627 
L 285.284497 243.18001 
L 285.689211 275.500351 
L 286.093926 290.315565 
L 286.296283 292.612337 
L 286.49864 290.791472 
L 286.700997 287.832568 
L 287.105712 256.670959 
L 287.712783 204.879785 
L 288.522212 161.241117 
L 288.724569 154.081809 
L 288.926927 152.136795 
L 289.129284 155.737141 
L 289.736355 189.712813 
L 290.545784 260.126462 
L 290.950499 275.479659 
L 291.152856 278.27303 
L 291.355213 278.355797 
L 291.55757 276.865999 
L 291.759927 264.326865 
L 292.771714 165.172528 
L 293.176428 143.073857 
L 293.581142 131.776222 
L 293.7835 130.038124 
L 293.985857 133.576395 
L 294.592928 159.234028 
L 295.402357 242.93171 
L 295.807072 257.705541 
L 296.009429 257.540007 
L 296.414143 237.138051 
L 297.830644 101.318128 
L 298.235358 87.930638 
L 298.437715 85.323491 
L 298.640073 85.592482 
L 298.84243 87.661646 
L 299.044787 95.752077 
L 299.449501 122.899508 
L 300.056573 202.417479 
L 300.461287 227.826813 
L 300.663645 233.889463 
L 300.866002 234.613671 
L 301.068359 227.744046 
L 301.473073 197.492869 
L 302.484859 91.4896 
L 302.687217 80.088506 
L 302.889574 80.191964 
L 303.091931 88.34447 
L 303.496646 97.055651 
L 303.90136 119.464696 
L 304.306074 147.605326 
L 304.913146 217.31546 
L 305.31786 242.848943 
L 305.520218 248.456378 
L 305.722575 246.656205 
L 305.924932 239.476206 
L 306.532004 199.230967 
L 307.54379 128.713859 
L 307.746147 118.430114 
L 307.948504 117.540374 
L 308.757933 150.04694 
L 309.162647 176.30463 
L 309.769719 239.765889 
L 310.174433 259.795396 
L 310.376791 264.223407 
L 310.579148 263.644041 
L 310.983862 240.055572 
L 312.198005 135.252417 
L 312.60272 123.540949 
L 312.805077 119.13363 
L 313.007434 119.692304 
L 313.209791 123.416799 
L 313.816863 151.205671 
L 314.01922 164.986303 
L 314.626292 228.033729 
L 315.031006 248.683986 
L 315.233364 253.298221 
L 315.435721 252.636089 
L 315.840435 233.72393 
L 316.24515 214.873847 
L 316.649864 202.769237 
L 317.054578 187.353966 
L 317.66165 179.780826 
L 317.864007 179.32561 
L 318.066364 178.415178 
L 318.268722 183.132871 
L 318.875793 205.438459 
L 319.685222 264.471707 
L 320.089937 277.341907 
L 320.292294 278.997238 
L 320.697008 271.010265 
L 321.101723 244.587041 
L 322.315866 166.08296 
L 322.72058 155.757832 
L 322.922937 153.419677 
L 323.125295 157.578696 
L 323.732366 185.408952 
L 324.541795 254.456953 
L 324.94651 268.858334 
L 325.148867 271.775855 
L 325.351224 271.83793 
L 325.553581 269.56185 
L 325.755938 257.146866 
L 326.970082 143.901523 
L 327.172439 137.528498 
L 327.374796 135.935241 
L 327.77951 130.327807 
L 327.981868 135.355876 
L 328.184225 144.211897 
L 328.791296 196.251371 
L 329.196011 240.303872 
L 329.398368 255.657068 
L 329.803083 265.837355 
L 330.00544 264.885539 
L 330.207797 259.236722 
L 330.814869 210.363069 
L 331.42194 171.855928 
L 331.826655 149.012358 
L 332.029012 146.094836 
L 332.231369 146.115528 
L 332.433726 146.301753 
L 332.636083 148.4123 
L 332.838441 152.985152 
L 333.243155 176.077022 
L 333.445512 185.160652 
L 334.052584 251.373899 
L 334.457298 273.327728 
L 334.659655 278.790321 
L 334.862013 276.369399 
L 335.266727 256.381276 
L 335.671442 231.840991 
L 336.48087 191.430219 
L 336.683228 186.319384 
L 336.885585 185.202035 
L 337.087942 178.973852 
L 337.290299 177.111604 
L 337.695014 183.629471 
L 338.099728 198.196385 
L 338.302085 204.114194 
L 339.111514 270.430899 
L 339.313871 276.679774 
L 339.516228 278.935163 
L 339.718586 274.838218 
L 340.1233 251.311824 
L 340.932729 206.514424 
L 342.349229 144.294664 
L 342.551587 144.211897 
L 343.158658 169.083248 
L 343.76573 232.316899 
L 344.170444 250.463467 
L 344.372801 255.263927 
L 344.575159 253.111997 
L 344.777516 246.138914 
L 345.18223 215.018688 
L 346.194016 131.75553 
L 346.598731 116.878241 
L 347.003445 110.215533 
L 347.205802 109.367176 
L 347.40816 112.57438 
L 347.610517 120.478587 
L 348.015231 146.777661 
L 348.82466 238.586466 
L 349.229374 255.822601 
L 349.431732 255.057011 
L 349.634089 249.221968 
L 349.836446 238.0071 
L 351.050589 132.790112 
L 351.455304 114.291786 
L 351.860018 105.37369 
L 352.062375 104.463258 
L 352.264733 108.125678 
L 352.46709 119.299163 
L 353.276519 203.017537 
L 353.681233 241.234995 
L 354.085947 261.574877 
L 354.288305 266.892629 
L 354.490662 267.471994 
L 354.693019 265.216606 
L 355.097733 222.860819 
L 355.704805 148.474375 
L 356.109519 123.582333 
L 356.716591 105.24954 
L 356.918948 104.152883 
L 357.121306 108.994727 
L 357.52602 134.817893 
L 357.728377 147.605326 
L 358.740163 243.82145 
L 359.144878 256.898567 
L 359.347235 258.781506 
L 359.549592 258.45044 
L 359.751949 244.338741 
L 360.763735 122.775359 
L 361.16845 103.552825 
L 361.573164 92.358648 
L 361.775521 90.041185 
L 361.977879 93.351847 
L 362.180236 100.407696 
L 362.58495 126.396396 
L 363.394379 215.846354 
L 363.799093 233.641164 
L 364.001451 234.468829 
L 364.203808 228.530329 
L 364.406165 218.391425 
L 365.013237 148.246767 
L 365.620308 83.150869 
L 366.025023 66.845857 
L 366.429737 60.617673 
L 366.632094 61.114273 
L 366.834451 63.783494 
L 367.036809 72.577441 
L 367.441523 102.021644 
L 368.048595 182.346589 
L 368.453309 213.135749 
L 368.655666 221.743471 
L 368.858024 224.143701 
L 369.060381 220.21229 
L 369.262738 210.259611 
L 369.86981 146.156911 
L 370.476881 87.45473 
L 370.881596 70.67381 
L 371.083953 70.218594 
L 371.28631 70.942801 
L 371.488667 74.915596 
L 371.691024 81.205855 
L 372.298096 120.561353 
L 373.107525 206.390274 
L 373.512239 228.840703 
L 373.714597 233.248023 
L 374.119311 232.544507 
L 374.321668 219.674307 
L 375.333454 114.809077 
L 375.738169 101.421587 
L 375.940526 98.69029 
L 376.142883 97.572942 
L 376.34524 102.807926 
L 376.749955 129.313917 
L 377.559383 188.823072 
L 377.964098 223.833326 
L 378.368812 237.779492 
L 378.57117 238.0071 
L 378.773527 232.006524 
L 378.975884 220.667506 
L 380.392384 102.787235 
L 380.797099 92.75179 
L 381.201813 85.075191 
L 381.40417 88.882453 
L 382.011242 126.313629 
L 382.820671 210.094078 
L 383.225385 226.378398 
L 383.427743 227.040531 
L 383.6301 221.640013 
L 384.034814 199.1482 
L 385.0466 124.885906 
L 385.451315 108.001528 
L 385.653672 107.52562 
L 385.856029 111.353574 
L 386.058386 119.071555 
L 387.070172 189.857654 
L 387.474887 230.43396 
L 387.879601 252.574014 
L 388.284316 261.823177 
L 388.68903 264.368248 
L 388.891387 258.553898 
L 389.700816 214.501397 
L 390.307888 203.162379 
L 390.914959 190.271487 
L 391.117316 195.113331 
L 391.926745 235.151653 
L 392.533817 279.866287 
L 392.938531 292.384728 
L 393.140888 294.267668 
L 393.343246 293.812452 
L 393.545603 294.288359 
L 393.74796 285.225421 
L 394.355032 243.573151 
L 395.569175 186.422842 
L 395.771532 180.3395 
L 395.973889 181.560307 
L 396.176247 189.981804 
L 396.783318 232.523815 
L 397.188033 271.506864 
L 397.592747 289.549974 
L 397.795104 292.364037 
L 397.997461 289.798274 
L 398.402176 271.444789 
L 400.628105 142.287575 
L 400.830462 145.163713 
L 401.03282 155.240541 
L 401.639891 212.970216 
L 402.044606 257.850382 
L 402.44932 278.417872 
L 402.651677 282.473433 
L 402.854034 280.79741 
L 403.258749 262.381851 
L 403.663463 233.620472 
L 404.877607 126.292937 
L 405.282321 105.518531 
L 405.484678 101.256053 
L 405.687035 102.35271 
L 405.889393 112.988213 
L 406.294107 150.81253 
L 406.901179 229.17177 
L 407.305893 253.525829 
L 407.50825 259.195339 
L 407.710607 258.657356 
L 408.115322 237.158742 
L 409.73418 103.263143 
L 409.936537 98.276457 
L 410.138894 98.131616 
L 410.341251 102.787235 
L 410.948323 139.32867 
L 411.15068 155.426766 
L 411.757752 226.874998 
L 412.162466 251.229057 
L 412.364823 257.788307 
L 412.56718 259.58848 
L 412.971895 241.317762 
L 414.388395 142.039275 
L 414.79311 128.34141 
L 415.197824 121.595935 
L 415.400181 128.444868 
L 416.20961 191.740593 
L 416.614325 237.5105 
L 417.019039 260.85067 
L 417.221396 265.154531 
L 417.423753 264.595857 
L 417.828468 248.249461 
L 419.244968 149.364116 
L 419.649683 135.604175 
L 419.85204 131.734839 
L 420.054397 133.183253 
L 420.256754 141.935817 
L 421.066183 207.921456 
L 421.673255 263.581966 
L 422.077969 279.824903 
L 422.280326 282.328592 
L 422.482684 281.666459 
L 422.685041 281.500926 
L 423.089755 250.442775 
L 423.899184 180.71195 
L 424.708613 141.025385 
L 424.91097 137.818181 
L 425.113327 141.85305 
L 425.518042 168.214199 
L 425.720399 180.111892 
L 426.529828 255.367385 
L 426.934542 274.093319 
L 427.136899 278.604097 
L 427.339257 279.41107 
L 427.541614 279.638678 
L 427.743971 270.968882 
L 428.148685 230.289118 
L 428.755757 167.903825 
L 429.160471 142.059967 
L 429.565186 133.741928 
L 429.9699 137.694031 
L 430.374615 154.040426 
L 430.576972 165.772586 
L 431.386401 242.352344 
L 431.791115 254.684561 
L 431.993472 252.636089 
L 432.398187 232.172057 
L 433.207616 166.57956 
L 434.017044 95.669311 
L 434.219402 90.744701 
L 435.02883 118.368039 
L 435.433545 143.549765 
L 436.040617 215.287679 
L 436.445331 237.986408 
L 436.647688 243.159318 
L 436.850045 242.476494 
L 437.25476 221.722779 
L 437.659474 186.546992 
L 438.468903 112.532997 
L 438.67126 102.72516 
L 438.873617 103.697667 
L 439.075975 110.856974 
L 439.278332 110.401758 
L 439.480689 112.657147 
L 439.885403 131.341697 
L 440.290118 156.275123 
L 440.897189 230.227043 
L 441.301904 252.698164 
L 441.504261 258.160757 
L 441.706618 258.698739 
L 442.111333 243.862834 
L 442.920762 191.471602 
L 443.527833 156.35789 
L 444.134905 133.452245 
L 444.337262 130.845098 
L 444.539619 137.30089 
L 445.146691 182.677655 
L 445.753762 252.346406 
L 446.158477 273.700178 
L 446.360834 278.686863 
L 446.563191 276.679774 
L 446.967906 257.643466 
L 448.586763 147.088035 
L 448.991478 133.804003 
L 449.193835 131.465847 
L 449.396192 138.169939 
L 450.003264 178.82901 
L 450.812693 259.422947 
L 451.217407 272.810437 
L 451.419764 272.934587 
L 451.824479 255.636377 
L 452.43155 204.879785 
L 453.038622 162.689531 
L 453.443336 145.536162 
L 453.848051 137.611264 
L 454.050408 141.004693 
L 454.252765 151.06083 
L 454.65748 179.656676 
L 454.859837 188.16094 
L 455.669266 253.318913 
L 456.07398 266.954703 
L 456.276337 268.485885 
L 456.478694 266.478796 
L 456.681052 263.354358 
L 456.883409 255.30531 
L 457.288123 228.116496 
L 457.692838 217.087852 
L 457.895195 217.791368 
L 458.299909 223.585027 
L 458.502267 223.440185 
L 458.906981 219.59154 
L 459.109338 220.129523 
L 459.514053 224.309234 
L 459.71641 228.633787 
L 460.728196 286.715219 
L 461.13291 291.163922 
L 461.537625 287.832568 
L 461.739982 278.852396 
L 462.144696 244.131825 
L 463.561197 174.525149 
L 463.763554 167.221001 
L 463.965911 168.400424 
L 464.572983 187.995407 
L 465.382412 255.388077 
L 465.584769 262.340468 
L 465.787126 265.071764 
L 465.989483 262.630151 
L 467.608341 169.517773 
L 468.620127 148.205384 
L 468.822484 151.350513 
L 469.429556 177.753045 
L 470.036627 234.820587 
L 470.441342 252.718855 
L 470.643699 255.367385 
L 470.846056 252.78093 
L 471.857842 201.548431 
L 472.869628 171.111029 
L 473.071985 171.607628 
L 473.274343 169.807455 
L 473.4767 171.069645 
L 473.679057 174.876907 
L 473.881414 181.498232 
L 474.083772 182.656964 
L 474.286129 190.374945 
L 474.8932 242.80756 
L 475.297915 259.153955 
L 475.500272 260.829978 
L 475.702629 258.781506 
L 476.107344 234.261913 
L 476.512058 212.121858 
L 477.321487 180.442958 
L 477.726201 160.165151 
L 477.928558 156.585498 
L 478.333273 161.303192 
L 478.53563 165.793277 
L 479.142702 190.871545 
L 479.952131 259.050497 
L 480.356845 268.961792 
L 480.559202 268.54796 
L 480.963917 246.325139 
L 482.785131 117.167924 
L 482.987489 111.229424 
L 483.189846 108.580894 
L 483.392203 114.250403 
L 483.999275 154.350801 
L 484.606346 225.881799 
L 485.011061 249.24266 
L 485.213418 253.670671 
L 485.415775 254.622486 
L 485.82049 234.737821 
L 486.225204 203.348603 
L 487.23699 112.843372 
L 487.439347 109.739626 
L 487.844062 116.340259 
L 488.248776 135.066193 
L 489.260562 213.052982 
L 489.665277 245.394015 
L 490.069991 260.581678 
L 490.272348 262.940525 
L 490.474705 261.802485 
L 490.677063 260.023004 
L 490.87942 250.235859 
L 491.891206 170.055755 
L 492.29592 152.240253 
L 492.498277 144.811955 
L 492.700635 142.784174 
L 492.902992 144.418814 
L 493.105349 149.260657 
L 493.712421 182.967338 
L 494.52185 255.367385 
L 495.128921 273.741561 
L 495.331278 273.886403 
L 495.533636 273.265654 
L 495.735993 265.671822 
L 496.950136 173.6561 
L 497.557208 149.157199 
L 497.759565 145.784462 
L 497.961922 149.012358 
L 498.568994 180.691258 
L 499.378422 254.912169 
L 499.58078 261.781794 
L 499.783137 264.285482 
L 499.985494 260.954128 
L 500.187851 252.387789 
L 500.794923 215.266988 
L 500.99728 210.135461 
L 501.401995 196.975578 
L 501.806709 185.657251 
L 502.009066 185.202035 
L 502.211423 187.271199 
L 502.413781 187.91264 
L 502.616138 186.236617 
L 503.020852 196.003071 
L 503.223209 196.561745 
L 503.425567 204.114194 
L 504.032638 255.077702 
L 504.437353 268.216893 
L 504.63971 269.851533 
L 504.842067 267.471994 
L 505.246782 242.973093 
L 505.651496 219.032866 
L 507.270354 145.494779 
L 507.472711 142.370341 
L 507.675068 145.784462 
L 508.28214 173.966475 
L 508.889211 232.296207 
L 509.293926 249.511651 
L 509.496283 253.049922 
L 509.69864 251.208366 
L 510.103354 227.53713 
L 511.722212 120.602737 
L 512.126927 102.745852 
L 512.329284 104.339108 
L 512.936355 138.894146 
L 513.34107 178.042728 
L 513.745784 221.743471 
L 514.150499 244.587041 
L 514.352856 250.194475 
L 514.555213 250.691075 
L 514.75757 241.752286 
L 516.174071 144.480889 
L 516.376428 143.384232 
L 516.781142 152.757544 
L 516.9835 150.005556 
L 517.185857 150.543539 
L 517.590571 168.338349 
L 517.792928 172.600827 
L 517.995286 183.360479 
L 518.4 223.233269 
L 518.4 223.233269 
" clip-path="url(#p588efbf640)" style="fill: none; stroke: #1f77b4; stroke-width: 1.5; stroke-linecap: square"/>
   </g>
   <g id="line2d_14">
    <path d="M 72 272.374066 
L 72.202357 272.374066 
L 72.607072 278.507814 
L 72.809429 278.888116 
L 73.011786 274.408006 
L 75.237715 181.536251 
L 75.440073 176.627371 
L 75.64243 175.97301 
L 75.844787 178.470383 
L 76.047144 183.915672 
L 77.261287 280.375766 
L 77.463645 283.124578 
L 77.666002 277.864223 
L 79.689574 175.988924 
L 79.891931 170.171847 
L 80.094288 169.987843 
L 80.70136 191.677203 
L 81.106074 216.465861 
L 81.510789 253.221661 
L 81.915503 267.533359 
L 82.320218 283.263664 
L 82.522575 280.287659 
L 83.939075 223.887254 
L 84.141432 222.203902 
L 84.34379 223.670537 
L 84.950861 231.529136 
L 85.355576 247.412512 
L 85.557933 250.507368 
L 85.76029 248.063922 
L 86.165005 269.965739 
L 86.367362 283.357805 
L 87.176791 305.129181 
L 87.379148 303.471181 
L 87.581505 295.446044 
L 87.986219 271.880485 
L 88.390934 255.7542 
L 88.593291 251.19005 
L 89.200363 254.669692 
L 89.40272 253.536806 
L 89.807434 248.222307 
L 90.616863 240.608599 
L 90.81922 243.110558 
L 91.021578 255.750011 
L 91.426292 290.370576 
L 91.831006 301.324265 
L 92.033364 298.844229 
L 92.235721 292.609585 
L 92.640435 263.576484 
L 92.842792 248.72585 
L 93.04515 243.265332 
L 93.449864 242.712839 
L 93.652221 243.471102 
L 93.854578 241.139197 
L 94.259293 233.155334 
L 94.46165 227.245604 
L 94.866364 225.078203 
L 95.068722 226.407525 
L 95.473436 232.904626 
L 95.675793 243.488669 
L 96.282865 291.20549 
L 96.687579 297.986613 
L 96.889937 293.430992 
L 97.901723 240.272392 
L 98.10408 242.080606 
L 98.508794 237.278122 
L 98.711151 237.106632 
L 98.913509 235.544786 
L 99.318223 222.431634 
L 99.52058 221.920147 
L 99.925295 224.381767 
L 100.330009 232.002849 
L 100.532366 244.98252 
L 100.937081 282.304761 
L 101.139438 288.181347 
L 101.341795 287.195285 
L 101.544152 293.921707 
L 101.74651 294.26551 
L 101.948867 284.87839 
L 102.555938 243.450615 
L 102.758296 242.219997 
L 102.960653 243.463795 
L 103.365367 237.687578 
L 103.567724 238.011366 
L 103.770082 236.561204 
L 104.174796 220.521624 
L 104.57951 219.195387 
L 104.781868 220.499381 
L 104.984225 224.19509 
L 105.186582 229.937807 
L 105.591296 264.278063 
L 105.793654 280.275604 
L 105.996011 286.036039 
L 106.198368 286.106472 
L 106.603083 293.170493 
L 107.614869 239.782821 
L 107.817226 241.083117 
L 108.019583 238.404003 
L 108.626655 224.154832 
L 109.031369 203.078929 
L 109.233726 202.62461 
L 110.043155 224.951568 
L 110.650227 275.326219 
L 110.852584 281.231063 
L 111.054941 280.731788 
L 111.459655 290.130115 
L 111.662013 283.823982 
L 112.269084 244.650772 
L 112.876156 225.448596 
L 113.685585 190.16405 
L 113.887942 185.896292 
L 114.090299 184.46207 
L 114.495014 190.66801 
L 114.899728 209.841726 
L 115.5068 261.257835 
L 116.316228 282.702158 
L 116.9233 265.509746 
L 117.328015 242.396232 
L 117.732729 218.020378 
L 118.137443 189.71366 
L 118.744515 160.99147 
L 118.946872 156.292165 
L 119.149229 155.752903 
L 119.756301 187.318691 
L 120.768087 265.373633 
L 121.172801 282.105826 
L 121.375159 281.764908 
L 121.577516 277.535762 
L 121.98223 259.308948 
L 122.791659 211.962547 
L 122.994016 203.895637 
L 123.398731 198.608384 
L 123.601088 196.422406 
L 123.803445 197.500824 
L 124.005802 200.359146 
L 124.410517 212.633719 
L 124.815231 227.626883 
L 125.62466 290.276172 
L 125.827017 294.773057 
L 126.029374 296.168163 
L 126.231732 292.361499 
L 126.636446 264.081837 
L 127.04116 233.456891 
L 128.660018 158.425572 
L 128.862375 159.04264 
L 129.26709 178.742437 
L 129.469447 195.898158 
L 130.076519 265.435555 
L 130.481233 281.910474 
L 130.68359 286.359459 
L 130.885947 282.776959 
L 131.290662 261.331297 
L 131.695376 231.199998 
L 132.100091 214.970565 
L 132.504805 184.770816 
L 132.909519 154.34297 
L 133.111877 148.593283 
L 133.516591 148.31342 
L 133.921306 165.686671 
L 134.32602 186.18365 
L 135.135449 258.983717 
L 135.74252 270.820421 
L 135.944878 267.042443 
L 136.147235 256.027489 
L 136.551949 220.787192 
L 136.956664 202.114731 
L 137.159021 201.935588 
L 137.563735 190.121931 
L 137.96845 187.178437 
L 138.170807 190.1862 
L 138.777879 210.439143 
L 138.980236 217.289969 
L 139.182593 219.939808 
L 139.38495 230.176785 
L 139.789665 265.535 
L 139.992022 275.086801 
L 140.194379 275.15135 
L 140.396736 285.909995 
L 140.599093 283.984155 
L 141.813237 222.549664 
L 142.217951 212.704956 
L 142.420308 209.808892 
L 142.622665 208.803675 
L 142.825023 208.521609 
L 143.02738 208.497182 
L 143.229737 208.786223 
L 143.432094 212.379721 
L 143.634451 220.480722 
L 143.836809 220.496815 
L 144.039166 223.484446 
L 144.44388 250.434751 
L 144.848595 275.492118 
L 145.050952 274.66467 
L 145.253309 278.743171 
L 145.455666 279.603095 
L 146.467452 220.772922 
L 146.872167 214.999278 
L 147.074524 211.566205 
L 147.276881 212.454341 
L 147.681596 205.640166 
L 147.883953 208.26974 
L 148.08631 209.333714 
L 148.693382 226.229137 
L 148.895739 230.106959 
L 149.098096 240.071656 
L 149.502811 270.197031 
L 149.705168 273.625454 
L 149.907525 274.218619 
L 150.109882 280.272971 
L 150.312239 282.799322 
L 151.72874 228.904031 
L 151.931097 226.906216 
L 152.133454 228.345536 
L 152.335811 228.845191 
L 152.538169 228.208479 
L 152.740526 226.586474 
L 153.347597 233.812293 
L 153.752312 237.311205 
L 153.954669 241.797901 
L 154.764098 275.454073 
L 154.966455 281.55982 
L 155.168812 284.093091 
L 155.37117 282.299984 
L 155.573527 277.419912 
L 156.382956 233.047367 
L 156.990027 198.273368 
L 158.001813 162.860928 
L 158.20417 163.503721 
L 158.608885 179.919958 
L 159.013599 217.08258 
L 159.620671 274.701647 
L 159.823028 281.021274 
L 160.025385 281.841361 
L 160.227743 275.848643 
L 160.4301 264.600119 
L 161.037171 214.430179 
L 161.644243 181.460197 
L 162.048957 174.589591 
L 162.453672 173.959633 
L 162.858386 184.236253 
L 163.667815 223.125031 
L 164.477244 282.510892 
L 164.679601 287.814118 
L 164.881958 284.635553 
L 165.286673 258.595992 
L 165.691387 232.249988 
L 166.90553 197.083869 
L 167.310245 180.122003 
L 167.512602 179.511693 
L 167.714959 180.497302 
L 168.322031 211.088503 
L 168.726745 244.841133 
L 169.13146 268.993536 
L 169.333817 269.521234 
L 169.738531 276.084559 
L 170.143246 256.136148 
L 170.952675 207.248072 
L 171.155032 198.900043 
L 171.559746 165.446816 
L 171.964461 152.949303 
L 172.166818 151.695433 
L 172.369175 155.265375 
L 172.571532 163.738626 
L 172.976247 188.188985 
L 173.178604 196.736383 
L 173.988033 268.017638 
L 174.595104 282.376972 
L 174.797461 274.236972 
L 175.60689 224.396916 
L 176.213962 197.003432 
L 176.618676 182.662053 
L 176.821034 180.448786 
L 177.023391 174.488713 
L 177.225748 173.014843 
L 177.630462 186.246204 
L 178.237534 221.332127 
L 178.642248 266.379852 
L 178.844606 277.279512 
L 179.451677 287.8542 
L 179.654034 279.367486 
L 180.463463 228.602191 
L 180.868178 210.505294 
L 181.677607 161.464907 
L 181.879964 153.203127 
L 182.082321 152.745981 
L 182.284678 153.717782 
L 183.094107 209.623415 
L 183.498821 248.067913 
L 183.701179 259.732712 
L 184.105893 267.19454 
L 184.30825 270.695753 
L 184.510607 265.177866 
L 185.320036 226.004957 
L 186.129465 152.989717 
L 186.331822 141.387466 
L 186.736537 136.197814 
L 186.938894 141.328831 
L 187.141251 151.748619 
L 187.748323 200.929726 
L 187.95068 208.891377 
L 188.760109 260.296713 
L 189.164823 272.48622 
L 189.36718 271.973627 
L 189.569538 265.375355 
L 190.783681 184.591507 
L 191.188395 168.234854 
L 191.59311 160.120479 
L 191.795467 162.265542 
L 191.997824 167.987772 
L 192.807253 215.199802 
L 193.819039 273.349538 
L 194.021396 276.946381 
L 194.223753 274.758717 
L 194.628468 256.649732 
L 195.235539 215.757387 
L 195.842611 186.987852 
L 196.044968 188.427504 
L 197.056754 214.330535 
L 197.461469 225.99027 
L 197.663826 231.002872 
L 198.06854 254.908748 
L 198.473255 282.352887 
L 198.675612 288.816673 
L 198.877969 287.525148 
L 199.080326 279.541461 
L 200.092112 206.129322 
L 200.496827 193.624849 
L 201.306256 178.455619 
L 201.508613 172.936274 
L 201.71097 171.792795 
L 201.913327 176.321411 
L 202.318042 192.948462 
L 203.127471 261.800774 
L 203.532185 273.575838 
L 203.734542 269.519034 
L 204.139257 245.581907 
L 204.746328 205.542434 
L 204.948685 202.056621 
L 205.758114 171.939829 
L 205.960471 167.872572 
L 206.162829 167.222196 
L 206.365186 172.503157 
L 207.376972 216.704516 
L 207.781686 251.263616 
L 207.984044 258.216385 
L 208.186401 260.508429 
L 208.591115 270.370271 
L 208.793472 261.192811 
L 209.198187 228.169497 
L 209.400544 218.477654 
L 209.602901 214.24581 
L 211.019402 154.477437 
L 211.221759 149.809014 
L 211.424116 150.744713 
L 212.031188 180.278013 
L 212.840617 251.538473 
L 213.042974 254.279635 
L 213.245331 259.742272 
L 213.447688 261.810318 
L 213.650045 255.604818 
L 214.459474 205.516888 
L 214.661831 199.146527 
L 215.066546 163.823156 
L 215.47126 130.708519 
L 215.875975 120.014908 
L 216.078332 120.2342 
L 216.280689 126.085589 
L 217.090118 179.147167 
L 217.494832 225.733166 
L 217.697189 237.977489 
L 217.899547 242.587643 
L 218.304261 258.15335 
L 218.506618 254.525244 
L 219.11369 228.369099 
L 219.923119 174.298773 
L 220.327833 145.090222 
L 220.53019 144.927321 
L 220.732548 147.397042 
L 220.934905 155.676311 
L 221.744334 212.165343 
L 221.946691 218.268898 
L 222.553762 263.81912 
L 222.958477 274.402179 
L 223.160834 281.296191 
L 223.363191 280.851685 
L 223.767906 258.94138 
L 224.17262 231.656791 
L 224.577335 209.729934 
L 224.779692 209.075327 
L 224.982049 209.421012 
L 225.184406 208.157071 
L 225.386763 210.49427 
L 225.791478 220.379516 
L 226.196192 238.672383 
L 226.398549 242.907299 
L 226.600907 243.574868 
L 226.803264 245.388931 
L 227.207978 268.150772 
L 227.612693 292.828726 
L 227.81505 295.685663 
L 228.017407 295.609329 
L 228.219764 290.982898 
L 228.624479 261.810497 
L 229.029193 235.445352 
L 229.433908 227.815607 
L 229.636265 229.269967 
L 229.838622 226.190432 
L 230.648051 199.512249 
L 230.850408 197.842166 
L 231.052765 197.487926 
L 231.45748 208.519823 
L 232.469266 285.507386 
L 232.671623 287.950659 
L 232.87398 286.134259 
L 233.278694 267.19755 
L 233.885766 232.468729 
L 234.290481 219.45455 
L 234.897552 190.68089 
L 235.302267 182.615844 
L 235.504624 182.03893 
L 235.909338 193.527264 
L 236.314053 209.733284 
L 236.718767 244.520695 
L 237.123481 274.126452 
L 237.730553 283.537035 
L 237.93291 279.147364 
L 238.539982 236.007162 
L 239.754125 198.379451 
L 240.15884 193.958365 
L 240.361197 194.27323 
L 240.765911 203.078003 
L 241.372983 229.560741 
L 241.777697 269.251955 
L 242.182412 281.508067 
L 242.587126 288.421368 
L 242.789483 280.338067 
L 243.396555 239.351087 
L 244.205984 214.036753 
L 244.610698 198.742946 
L 245.015413 189.356834 
L 245.21777 186.095068 
L 245.420127 186.407937 
L 245.622484 191.427658 
L 246.027199 210.166043 
L 246.229556 222.863011 
L 246.63427 259.824781 
L 246.836627 271.06943 
L 247.241342 279.604672 
L 247.443699 282.896656 
L 247.646056 277.00232 
L 249.062557 190.668841 
L 249.467271 158.753414 
L 249.871985 145.770475 
L 250.074343 145.18721 
L 250.2767 149.671914 
L 250.883772 189.168916 
L 251.6932 253.870616 
L 252.300272 271.790066 
L 252.502629 269.130234 
L 253.109701 238.344497 
L 253.91913 177.611557 
L 254.323844 148.991793 
L 254.526201 144.2171 
L 254.728558 143.151863 
L 254.930916 144.63358 
L 255.133273 150.011884 
L 255.942702 204.988443 
L 256.752131 263.225622 
L 257.156845 278.88244 
L 257.359202 278.892132 
L 257.763917 260.451201 
L 258.370988 218.845974 
L 259.180417 172.287605 
L 259.585131 166.566993 
L 259.787489 166.115706 
L 259.989846 169.557586 
L 260.39456 188.412518 
L 261.001632 226.337395 
L 261.406346 265.819069 
L 261.811061 282.077473 
L 262.013418 284.143254 
L 262.215775 280.165537 
L 262.62049 250.541792 
L 263.025204 221.242353 
L 263.429918 209.574999 
L 263.834633 209.385387 
L 264.239347 214.275203 
L 264.441704 217.855057 
L 265.655848 250.636979 
L 266.262919 285.63905 
L 266.465277 291.654591 
L 266.667634 293.464467 
L 266.869991 289.007512 
L 267.67942 245.673954 
L 268.084134 233.715529 
L 268.286491 230.505645 
L 268.488849 225.324807 
L 268.691206 224.354959 
L 269.500635 214.462462 
L 269.702992 215.433419 
L 270.107706 222.552511 
L 270.310063 225.13286 
L 270.714778 250.577741 
L 271.119492 274.027182 
L 271.726564 280.131408 
L 271.928921 272.716701 
L 272.940707 216.495301 
L 273.345422 197.332697 
L 273.952493 170.131342 
L 274.559565 153.371584 
L 274.964279 163.919365 
L 275.166636 170.322985 
L 275.368994 186.269121 
L 275.773708 228.649879 
L 276.178422 250.005251 
L 276.38078 259.425794 
L 276.583137 261.266392 
L 276.785494 256.974941 
L 277.594923 195.870608 
L 277.79728 188.889929 
L 278.606709 138.844094 
L 278.809066 138.802367 
L 279.011423 139.753828 
L 279.213781 139.537439 
L 279.416138 145.746673 
L 279.820852 171.974398 
L 281.237353 270.760931 
L 281.43971 272.466749 
L 281.642067 267.968852 
L 282.451496 217.422204 
L 282.653853 212.006912 
L 283.260925 172.819554 
L 283.665639 162.611469 
L 283.867996 158.182685 
L 284.070354 158.471253 
L 284.272711 164.079701 
L 284.475068 173.403071 
L 284.879782 199.673898 
L 285.08214 211.738493 
L 285.689211 271.959686 
L 285.891568 278.857048 
L 286.093926 279.315243 
L 286.296283 281.909393 
L 286.49864 279.837415 
L 287.105712 251.313367 
L 288.117498 186.14288 
L 288.522212 165.565073 
L 288.926927 156.087103 
L 289.129284 158.98896 
L 289.736355 193.062011 
L 289.938713 206.413294 
L 290.545784 261.072235 
L 290.748141 269.036817 
L 291.152856 275.626842 
L 291.355213 275.957516 
L 291.759927 262.445327 
L 292.164642 231.631829 
L 292.974071 161.189318 
L 293.378785 137.825462 
L 293.581142 131.41121 
L 293.7835 128.58849 
L 293.985857 133.253141 
L 294.188214 142.528566 
L 295.604714 255.959017 
L 295.807072 261.574744 
L 296.009429 263.962474 
L 296.211786 262.176076 
L 296.6165 235.315698 
L 297.628286 131.602106 
L 298.033001 100.835928 
L 298.437715 87.35641 
L 298.640073 85.426548 
L 299.044787 99.302351 
L 299.651859 151.577402 
L 300.25893 225.925732 
L 300.461287 237.878951 
L 300.663645 240.88126 
L 300.866002 240.3101 
L 301.068359 232.495888 
L 301.675431 190.8019 
L 302.889574 70.753473 
L 303.091931 70.152326 
L 303.294288 74.809611 
L 303.496646 82.71015 
L 304.103717 138.967166 
L 305.115503 230.739307 
L 305.31786 244.887952 
L 305.520218 250.682069 
L 305.722575 251.261582 
L 306.127289 227.324353 
L 306.532004 199.510387 
L 307.139075 149.3218 
L 307.54379 129.440959 
L 307.746147 124.701413 
L 307.948504 125.314583 
L 308.353218 132.061614 
L 308.555576 137.9114 
L 308.757933 148.045573 
L 310.174433 258.967715 
L 310.376791 261.894409 
L 310.579148 262.338899 
L 310.781505 257.307305 
L 311.793291 175.432544 
L 312.198005 136.009791 
L 312.60272 114.224021 
L 312.805077 113.401859 
L 313.007434 115.765102 
L 313.412149 133.115299 
L 314.01922 172.096288 
L 314.828649 240.655638 
L 315.233364 258.576206 
L 315.435721 257.807906 
L 315.638078 248.785849 
L 316.24515 203.457538 
L 316.852221 184.366253 
L 317.054578 177.803009 
L 317.256936 175.745484 
L 317.459293 177.346489 
L 318.066364 183.578462 
L 318.268722 189.137533 
L 318.875793 214.688995 
L 319.07815 222.322997 
L 319.482865 248.920351 
L 319.887579 262.368128 
L 320.292294 270.534184 
L 320.494651 264.75182 
L 321.101723 238.646218 
L 321.911151 199.702278 
L 322.518223 165.114201 
L 322.922937 156.73339 
L 323.125295 156.555687 
L 323.327652 163.317828 
L 323.934723 199.639691 
L 324.541795 249.044591 
L 324.94651 263.041467 
L 325.148867 269.848394 
L 325.351224 269.06258 
L 325.755938 252.975628 
L 326.160653 226.191824 
L 327.172439 142.267163 
L 327.374796 134.875202 
L 327.77951 131.554834 
L 327.981868 136.103617 
L 328.386582 160.566132 
L 329.803083 267.53258 
L 330.00544 271.709797 
L 330.207797 269.575463 
L 330.612511 237.152074 
L 331.219583 180.949903 
L 331.624297 155.765876 
L 332.029012 136.969995 
L 332.231369 138.148361 
L 332.636083 147.52154 
L 333.040798 166.931374 
L 334.457298 269.723732 
L 334.659655 275.41435 
L 334.862013 274.499871 
L 335.06437 268.098089 
L 335.873799 216.784687 
L 336.885585 181.893549 
L 337.087942 183.717313 
L 337.290299 180.862161 
L 337.492656 182.143014 
L 337.695014 186.692609 
L 337.897371 193.877256 
L 339.313871 273.90374 
L 339.516228 274.031903 
L 339.718586 275.432207 
L 339.920943 269.072498 
L 340.528015 226.032448 
L 342.146872 161.312307 
L 342.349229 156.745068 
L 342.551587 156.544958 
L 342.753944 159.450483 
L 343.361015 188.604384 
L 343.76573 233.395768 
L 344.170444 250.021712 
L 344.575159 255.410931 
L 344.777516 249.651382 
L 345.384587 207.118422 
L 345.991659 166.11195 
L 346.598731 111.860426 
L 346.801088 106.725135 
L 347.003445 104.994176 
L 347.205802 107.740851 
L 347.610517 127.790162 
L 349.229374 249.647796 
L 349.431732 253.02525 
L 349.634089 250.858333 
L 351.455304 119.528052 
L 351.860018 112.08344 
L 352.062375 110.352405 
L 352.46709 123.746167 
L 353.074161 179.550646 
L 353.681233 241.959709 
L 353.88359 254.274592 
L 354.288305 262.44242 
L 354.490662 259.298058 
L 355.300091 208.531168 
L 355.704805 169.68709 
L 356.311877 112.974085 
L 356.716591 105.062384 
L 356.918948 103.382927 
L 357.323663 119.841454 
L 358.740163 254.599794 
L 358.94252 259.577447 
L 359.144878 261.312451 
L 359.347235 260.900613 
L 359.751949 238.758042 
L 360.763735 133.317754 
L 361.16845 105.989773 
L 361.775521 88.833721 
L 361.977879 92.606533 
L 362.180236 99.612365 
L 362.989665 179.970692 
L 363.394379 231.34522 
L 363.596736 246.227641 
L 363.799093 249.962615 
L 364.001451 250.622881 
L 364.203808 246.944518 
L 364.406165 237.05608 
L 364.810879 193.495662 
L 365.417951 111.1247 
L 365.822665 76.307827 
L 366.025023 65.223983 
L 366.429737 57.675796 
L 366.632094 55.8 
L 367.036809 72.660193 
L 367.64388 135.384967 
L 368.250952 210.559255 
L 368.453309 223.35818 
L 368.655666 225.921569 
L 369.060381 218.664571 
L 369.465095 200.383869 
L 369.86981 160.29815 
L 370.679238 79.674938 
L 370.881596 69.962449 
L 371.083953 66.140889 
L 371.28631 66.24848 
L 371.488667 68.477218 
L 371.893382 89.672777 
L 373.309882 231.499776 
L 373.512239 234.396893 
L 373.714597 233.575127 
L 373.916954 228.103836 
L 374.524025 197.394446 
L 375.131097 138.318961 
L 375.535811 104.44932 
L 375.738169 96.972018 
L 375.940526 96.273362 
L 376.142883 96.347553 
L 376.34524 95.217754 
L 376.547597 103.015553 
L 376.749955 115.272615 
L 377.761741 213.083801 
L 378.166455 244.362432 
L 378.368812 247.534314 
L 378.57117 246.914013 
L 378.773527 243.060813 
L 379.178241 212.860603 
L 379.582956 172.857008 
L 380.190027 108.959757 
L 380.594742 92.326223 
L 380.999456 95.781315 
L 381.201813 94.356083 
L 381.40417 96.706856 
L 381.606528 103.843874 
L 382.213599 149.55032 
L 383.023028 226.753773 
L 383.225385 230.792982 
L 383.427743 227.638795 
L 384.034814 202.095554 
L 384.237171 187.533423 
L 384.237171 187.533423 
" clip-path="url(#p588efbf640)" style="fill: none; stroke: #ff7f0e; stroke-width: 1.5; stroke-linecap: square"/>
   </g>
   <g id="line2d_15">
    <path d="M 384.439529 169.104067 
L 385.248957 119.731575 
L 385.653672 103.795717 
L 385.856029 100.466179 
L 386.058386 102.355024 
L 386.463101 121.791875 
L 387.677244 229.810933 
L 387.879601 239.739792 
L 388.081958 241.409771 
L 388.284316 240.566011 
L 388.486673 237.36594 
L 389.093744 207.349632 
L 390.510245 127.201926 
L 390.914959 131.411461 
L 391.117316 137.521878 
L 391.522031 164.678683 
L 392.533817 235.732893 
L 392.938531 243.881419 
L 393.140888 244.462739 
L 393.343246 241.18497 
L 394.152675 207.761269 
L 394.962103 161.241202 
L 395.366818 145.755032 
L 395.569175 145.11322 
L 395.771532 147.496255 
L 396.176247 164.361966 
L 397.592747 239.438977 
L 397.795104 243.322308 
L 397.997461 243.269549 
L 398.199819 239.694186 
L 399.009248 212.960085 
L 399.413962 194.073239 
L 400.021034 169.286465 
L 400.223391 163.07803 
L 400.425748 163.264579 
L 400.830462 174.624575 
L 401.235177 190.51983 
L 402.044606 226.195878 
L 402.44932 237.192614 
L 402.651677 239.478222 
L 402.854034 239.852355 
L 403.056392 237.961794 
L 403.86582 215.100263 
L 404.270535 201.499696 
L 404.675249 189.740371 
L 405.079964 181.870639 
L 405.282321 181.66624 
L 405.484678 184.179614 
L 405.889393 194.650175 
L 406.901179 225.973955 
L 407.103536 229.112354 
L 407.305893 230.223517 
L 407.50825 232.85254 
L 407.710607 233.783782 
L 407.912965 231.313038 
L 408.520036 217.493389 
L 409.73418 196.568908 
L 409.936537 195.628931 
L 410.138894 195.690019 
L 410.341251 197.844816 
L 411.555394 219.166852 
L 411.960109 223.2551 
L 412.162466 223.557242 
L 412.56718 223.236447 
L 412.769538 221.392417 
L 413.578966 210.581129 
L 413.781324 209.190184 
L 414.186038 205.139007 
L 414.590752 203.120807 
L 414.79311 203.240295 
L 414.995467 204.202652 
L 415.804896 212.450996 
L 416.20961 213.54466 
L 416.614325 215.640396 
L 416.816682 215.440206 
L 417.221396 215.257522 
L 417.423753 215.03833 
L 418.435539 209.261119 
L 418.840254 208.520313 
L 419.244968 208.085188 
L 419.447325 208.237407 
L 420.054397 211.35348 
L 420.256754 211.691401 
L 420.459112 211.81266 
L 420.863826 211.608778 
L 421.26854 210.631359 
L 422.077969 211.617761 
L 422.280326 211.387246 
L 422.887398 210.089278 
L 423.089755 210.099746 
L 423.49447 209.645775 
L 423.696827 209.756 
L 424.506256 211.044613 
L 424.708613 210.997325 
L 425.113327 210.298346 
L 425.518042 210.269197 
L 425.720399 209.87571 
L 425.922756 209.862623 
L 426.732185 210.392743 
L 427.136899 210.184682 
L 427.541614 209.666736 
L 428.148685 209.920546 
L 428.958114 210.337813 
L 429.767543 209.861605 
L 431.993472 209.913396 
L 432.19583 209.839716 
L 433.409973 210.100835 
L 433.814687 209.980449 
L 434.826473 209.954861 
L 435.433545 210.052273 
L 439.278332 209.990681 
L 440.694832 209.994936 
L 441.504261 210.005916 
L 444.337262 210.0122 
L 446.158477 210.006825 
L 472.060199 210.006221 
L 518.4 210.006386 
L 518.4 210.006386 
" clip-path="url(#p588efbf640)" style="fill: none; stroke: #2ca02c; stroke-width: 1.5; stroke-linecap: square"/>
   </g>
   <g id="patch_3">
    <path d="M 72 320.4 
L 72 43.2 
" style="fill: none; stroke: #000000; stroke-width: 0.8; stroke-linejoin: miter; stroke-linecap: square"/>
   </g>
   <g id="patch_4">
    <path d="M 518.4 320.4 
L 518.4 43.2 
" style="fill: none; stroke: #000000; stroke-width: 0.8; stroke-linejoin: miter; stroke-linecap: square"/>
   </g>
   <g id="patch_5">
    <path d="M 72 320.4 
L 518.4 320.4 
" style="fill: none; stroke: #000000; stroke-width: 0.8; stroke-linejoin: miter; stroke-linecap: square"/>
   </g>
   <g id="patch_6">
    <path d="M 72 43.2 
L 518.4 43.2 
" style="fill: none; stroke: #000000; stroke-width: 0.8; stroke-linejoin: miter; stroke-linecap: square"/>
   </g>
   <g id="text_13">
    <!-- Classic Transformer - model_20231123165652 -->
    <g transform="translate(155.436563 37.2) scale(0.12 -0.12)">
     <defs>
      <path id="DejaVuSans-43" d="M 4122 4306 
L 4122 3641 
Q 3803 3938 3442 4084 
Q 3081 4231 2675 4231 
Q 1875 4231 1450 3742 
Q 1025 3253 1025 2328 
Q 1025 1406 1450 917 
Q 1875 428 2675 428 
Q 3081 428 3442 575 
Q 3803 722 4122 1019 
L 4122 359 
Q 3791 134 3420 21 
Q 3050 -91 2638 -91 
Q 1578 -91 968 557 
Q 359 1206 359 2328 
Q 359 3453 968 4101 
Q 1578 4750 2638 4750 
Q 3056 4750 3426 4639 
Q 3797 4528 4122 4306 
z
" transform="scale(0.015625)"/>
      <path id="DejaVuSans-6c" d="M 603 4863 
L 1178 4863 
L 1178 0 
L 603 0 
L 603 4863 
z
" transform="scale(0.015625)"/>
      <path id="DejaVuSans-61" d="M 2194 1759 
Q 1497 1759 1228 1600 
Q 959 1441 959 1056 
Q 959 750 1161 570 
Q 1363 391 1709 391 
Q 2188 391 2477 730 
Q 2766 1069 2766 1631 
L 2766 1759 
L 2194 1759 
z
M 3341 1997 
L 3341 0 
L 2766 0 
L 2766 531 
Q 2569 213 2275 61 
Q 1981 -91 1556 -91 
Q 1019 -91 701 211 
Q 384 513 384 1019 
Q 384 1609 779 1909 
Q 1175 2209 1959 2209 
L 2766 2209 
L 2766 2266 
Q 2766 2663 2505 2880 
Q 2244 3097 1772 3097 
Q 1472 3097 1187 3025 
Q 903 2953 641 2809 
L 641 3341 
Q 956 3463 1253 3523 
Q 1550 3584 1831 3584 
Q 2591 3584 2966 3190 
Q 3341 2797 3341 1997 
z
" transform="scale(0.015625)"/>
      <path id="DejaVuSans-73" d="M 2834 3397 
L 2834 2853 
Q 2591 2978 2328 3040 
Q 2066 3103 1784 3103 
Q 1356 3103 1142 2972 
Q 928 2841 928 2578 
Q 928 2378 1081 2264 
Q 1234 2150 1697 2047 
L 1894 2003 
Q 2506 1872 2764 1633 
Q 3022 1394 3022 966 
Q 3022 478 2636 193 
Q 2250 -91 1575 -91 
Q 1294 -91 989 -36 
Q 684 19 347 128 
L 347 722 
Q 666 556 975 473 
Q 1284 391 1588 391 
Q 1994 391 2212 530 
Q 2431 669 2431 922 
Q 2431 1156 2273 1281 
Q 2116 1406 1581 1522 
L 1381 1569 
Q 847 1681 609 1914 
Q 372 2147 372 2553 
Q 372 3047 722 3315 
Q 1072 3584 1716 3584 
Q 2034 3584 2315 3537 
Q 2597 3491 2834 3397 
z
" transform="scale(0.015625)"/>
      <path id="DejaVuSans-69" d="M 603 3500 
L 1178 3500 
L 1178 0 
L 603 0 
L 603 3500 
z
M 603 4863 
L 1178 4863 
L 1178 4134 
L 603 4134 
L 603 4863 
z
" transform="scale(0.015625)"/>
      <path id="DejaVuSans-63" d="M 3122 3366 
L 3122 2828 
Q 2878 2963 2633 3030 
Q 2388 3097 2138 3097 
Q 1578 3097 1268 2742 
Q 959 2388 959 1747 
Q 959 1106 1268 751 
Q 1578 397 2138 397 
Q 2388 397 2633 464 
Q 2878 531 3122 666 
L 3122 134 
Q 2881 22 2623 -34 
Q 2366 -91 2075 -91 
Q 1284 -91 818 406 
Q 353 903 353 1747 
Q 353 2603 823 3093 
Q 1294 3584 2113 3584 
Q 2378 3584 2631 3529 
Q 2884 3475 3122 3366 
z
" transform="scale(0.015625)"/>
      <path id="DejaVuSans-20" transform="scale(0.015625)"/>
      <path id="DejaVuSans-54" d="M -19 4666 
L 3928 4666 
L 3928 4134 
L 2272 4134 
L 2272 0 
L 1638 0 
L 1638 4134 
L -19 4134 
L -19 4666 
z
" transform="scale(0.015625)"/>
      <path id="DejaVuSans-72" d="M 2631 2963 
Q 2534 3019 2420 3045 
Q 2306 3072 2169 3072 
Q 1681 3072 1420 2755 
Q 1159 2438 1159 1844 
L 1159 0 
L 581 0 
L 581 3500 
L 1159 3500 
L 1159 2956 
Q 1341 3275 1631 3429 
Q 1922 3584 2338 3584 
Q 2397 3584 2469 3576 
Q 2541 3569 2628 3553 
L 2631 2963 
z
" transform="scale(0.015625)"/>
      <path id="DejaVuSans-6e" d="M 3513 2113 
L 3513 0 
L 2938 0 
L 2938 2094 
Q 2938 2591 2744 2837 
Q 2550 3084 2163 3084 
Q 1697 3084 1428 2787 
Q 1159 2491 1159 1978 
L 1159 0 
L 581 0 
L 581 3500 
L 1159 3500 
L 1159 2956 
Q 1366 3272 1645 3428 
Q 1925 3584 2291 3584 
Q 2894 3584 3203 3211 
Q 3513 2838 3513 2113 
z
" transform="scale(0.015625)"/>
      <path id="DejaVuSans-66" d="M 2375 4863 
L 2375 4384 
L 1825 4384 
Q 1516 4384 1395 4259 
Q 1275 4134 1275 3809 
L 1275 3500 
L 2222 3500 
L 2222 3053 
L 1275 3053 
L 1275 0 
L 697 0 
L 697 3053 
L 147 3053 
L 147 3500 
L 697 3500 
L 697 3744 
Q 697 4328 969 4595 
Q 1241 4863 1831 4863 
L 2375 4863 
z
" transform="scale(0.015625)"/>
      <path id="DejaVuSans-6f" d="M 1959 3097 
Q 1497 3097 1228 2736 
Q 959 2375 959 1747 
Q 959 1119 1226 758 
Q 1494 397 1959 397 
Q 2419 397 2687 759 
Q 2956 1122 2956 1747 
Q 2956 2369 2687 2733 
Q 2419 3097 1959 3097 
z
M 1959 3584 
Q 2709 3584 3137 3096 
Q 3566 2609 3566 1747 
Q 3566 888 3137 398 
Q 2709 -91 1959 -91 
Q 1206 -91 779 398 
Q 353 888 353 1747 
Q 353 2609 779 3096 
Q 1206 3584 1959 3584 
z
" transform="scale(0.015625)"/>
      <path id="DejaVuSans-6d" d="M 3328 2828 
Q 3544 3216 3844 3400 
Q 4144 3584 4550 3584 
Q 5097 3584 5394 3201 
Q 5691 2819 5691 2113 
L 5691 0 
L 5113 0 
L 5113 2094 
Q 5113 2597 4934 2840 
Q 4756 3084 4391 3084 
Q 3944 3084 3684 2787 
Q 3425 2491 3425 1978 
L 3425 0 
L 2847 0 
L 2847 2094 
Q 2847 2600 2669 2842 
Q 2491 3084 2119 3084 
Q 1678 3084 1418 2786 
Q 1159 2488 1159 1978 
L 1159 0 
L 581 0 
L 581 3500 
L 1159 3500 
L 1159 2956 
Q 1356 3278 1631 3431 
Q 1906 3584 2284 3584 
Q 2666 3584 2933 3390 
Q 3200 3197 3328 2828 
z
" transform="scale(0.015625)"/>
      <path id="DejaVuSans-65" d="M 3597 1894 
L 3597 1613 
L 953 1613 
Q 991 1019 1311 708 
Q 1631 397 2203 397 
Q 2534 397 2845 478 
Q 3156 559 3463 722 
L 3463 178 
Q 3153 47 2828 -22 
Q 2503 -91 2169 -91 
Q 1331 -91 842 396 
Q 353 884 353 1716 
Q 353 2575 817 3079 
Q 1281 3584 2069 3584 
Q 2775 3584 3186 3129 
Q 3597 2675 3597 1894 
z
M 3022 2063 
Q 3016 2534 2758 2815 
Q 2500 3097 2075 3097 
Q 1594 3097 1305 2825 
Q 1016 2553 972 2059 
L 3022 2063 
z
" transform="scale(0.015625)"/>
      <path id="DejaVuSans-64" d="M 2906 2969 
L 2906 4863 
L 3481 4863 
L 3481 0 
L 2906 0 
L 2906 525 
Q 2725 213 2448 61 
Q 2172 -91 1784 -91 
Q 1150 -91 751 415 
Q 353 922 353 1747 
Q 353 2572 751 3078 
Q 1150 3584 1784 3584 
Q 2172 3584 2448 3432 
Q 2725 3281 2906 2969 
z
M 947 1747 
Q 947 1113 1208 752 
Q 1469 391 1925 391 
Q 2381 391 2643 752 
Q 2906 1113 2906 1747 
Q 2906 2381 2643 2742 
Q 2381 3103 1925 3103 
Q 1469 3103 1208 2742 
Q 947 2381 947 1747 
z
" transform="scale(0.015625)"/>
      <path id="DejaVuSans-5f" d="M 3263 -1063 
L 3263 -1509 
L -63 -1509 
L -63 -1063 
L 3263 -1063 
z
" transform="scale(0.015625)"/>
     </defs>
     <use xlink:href="#DejaVuSans-43"/>
     <use xlink:href="#DejaVuSans-6c" x="69.824219"/>
     <use xlink:href="#DejaVuSans-61" x="97.607422"/>
     <use xlink:href="#DejaVuSans-73" x="158.886719"/>
     <use xlink:href="#DejaVuSans-73" x="210.986328"/>
     <use xlink:href="#DejaVuSans-69" x="263.085938"/>
     <use xlink:href="#DejaVuSans-63" x="290.869141"/>
     <use xlink:href="#DejaVuSans-20" x="345.849609"/>
     <use xlink:href="#DejaVuSans-54" x="377.636719"/>
     <use xlink:href="#DejaVuSans-72" x="423.970703"/>
     <use xlink:href="#DejaVuSans-61" x="465.083984"/>
     <use xlink:href="#DejaVuSans-6e" x="526.363281"/>
     <use xlink:href="#DejaVuSans-73" x="589.742188"/>
     <use xlink:href="#DejaVuSans-66" x="641.841797"/>
     <use xlink:href="#DejaVuSans-6f" x="677.046875"/>
     <use xlink:href="#DejaVuSans-72" x="738.228516"/>
     <use xlink:href="#DejaVuSans-6d" x="777.591797"/>
     <use xlink:href="#DejaVuSans-65" x="875.003906"/>
     <use xlink:href="#DejaVuSans-72" x="936.527344"/>
     <use xlink:href="#DejaVuSans-20" x="977.640625"/>
     <use xlink:href="#DejaVuSans-2d" x="1009.427734"/>
     <use xlink:href="#DejaVuSans-20" x="1045.511719"/>
     <use xlink:href="#DejaVuSans-6d" x="1077.298828"/>
     <use xlink:href="#DejaVuSans-6f" x="1174.710938"/>
     <use xlink:href="#DejaVuSans-64" x="1235.892578"/>
     <use xlink:href="#DejaVuSans-65" x="1299.369141"/>
     <use xlink:href="#DejaVuSans-6c" x="1360.892578"/>
     <use xlink:href="#DejaVuSans-5f" x="1388.675781"/>
     <use xlink:href="#DejaVuSans-32" x="1438.675781"/>
     <use xlink:href="#DejaVuSans-30" x="1502.298828"/>
     <use xlink:href="#DejaVuSans-32" x="1565.921875"/>
     <use xlink:href="#DejaVuSans-33" x="1629.544922"/>
     <use xlink:href="#DejaVuSans-31" x="1693.167969"/>
     <use xlink:href="#DejaVuSans-31" x="1756.791016"/>
     <use xlink:href="#DejaVuSans-32" x="1820.414062"/>
     <use xlink:href="#DejaVuSans-33" x="1884.037109"/>
     <use xlink:href="#DejaVuSans-31" x="1947.660156"/>
     <use xlink:href="#DejaVuSans-36" x="2011.283203"/>
     <use xlink:href="#DejaVuSans-35" x="2074.90625"/>
     <use xlink:href="#DejaVuSans-36" x="2138.529297"/>
     <use xlink:href="#DejaVuSans-35" x="2202.152344"/>
     <use xlink:href="#DejaVuSans-32" x="2265.775391"/>
    </g>
   </g>
   <g id="legend_1">
    <g id="patch_7">
     <path d="M 79 95.234375 
L 161.517188 95.234375 
Q 163.517188 95.234375 163.517188 93.234375 
L 163.517188 50.2 
Q 163.517188 48.2 161.517188 48.2 
L 79 48.2 
Q 77 48.2 77 50.2 
L 77 93.234375 
Q 77 95.234375 79 95.234375 
z
" style="fill: #ffffff; opacity: 0.8; stroke: #cccccc; stroke-linejoin: miter"/>
    </g>
    <g id="line2d_16">
     <path d="M 81 56.298437 
L 91 56.298437 
L 101 56.298437 
" style="fill: none; stroke: #1f77b4; stroke-width: 1.5; stroke-linecap: square"/>
    </g>
    <g id="text_14">
     <!-- Measured -->
     <g transform="translate(109 59.798437) scale(0.1 -0.1)">
      <defs>
       <path id="DejaVuSans-4d" d="M 628 4666 
L 1569 4666 
L 2759 1491 
L 3956 4666 
L 4897 4666 
L 4897 0 
L 4281 0 
L 4281 4097 
L 3078 897 
L 2444 897 
L 1241 4097 
L 1241 0 
L 628 0 
L 628 4666 
z
" transform="scale(0.015625)"/>
       <path id="DejaVuSans-75" d="M 544 1381 
L 544 3500 
L 1119 3500 
L 1119 1403 
Q 1119 906 1312 657 
Q 1506 409 1894 409 
Q 2359 409 2629 706 
Q 2900 1003 2900 1516 
L 2900 3500 
L 3475 3500 
L 3475 0 
L 2900 0 
L 2900 538 
Q 2691 219 2414 64 
Q 2138 -91 1772 -91 
Q 1169 -91 856 284 
Q 544 659 544 1381 
z
M 1991 3584 
L 1991 3584 
z
" transform="scale(0.015625)"/>
      </defs>
      <use xlink:href="#DejaVuSans-4d"/>
      <use xlink:href="#DejaVuSans-65" x="86.279297"/>
      <use xlink:href="#DejaVuSans-61" x="147.802734"/>
      <use xlink:href="#DejaVuSans-73" x="209.082031"/>
      <use xlink:href="#DejaVuSans-75" x="261.181641"/>
      <use xlink:href="#DejaVuSans-72" x="324.560547"/>
      <use xlink:href="#DejaVuSans-65" x="363.423828"/>
      <use xlink:href="#DejaVuSans-64" x="424.947266"/>
     </g>
    </g>
    <g id="line2d_17">
     <path d="M 81 70.976562 
L 91 70.976562 
L 101 70.976562 
" style="fill: none; stroke: #ff7f0e; stroke-width: 1.5; stroke-linecap: square"/>
    </g>
    <g id="text_15">
     <!-- Fitted -->
     <g transform="translate(109 74.476562) scale(0.1 -0.1)">
      <defs>
       <path id="DejaVuSans-46" d="M 628 4666 
L 3309 4666 
L 3309 4134 
L 1259 4134 
L 1259 2759 
L 3109 2759 
L 3109 2228 
L 1259 2228 
L 1259 0 
L 628 0 
L 628 4666 
z
" transform="scale(0.015625)"/>
       <path id="DejaVuSans-74" d="M 1172 4494 
L 1172 3500 
L 2356 3500 
L 2356 3053 
L 1172 3053 
L 1172 1153 
Q 1172 725 1289 603 
Q 1406 481 1766 481 
L 2356 481 
L 2356 0 
L 1766 0 
Q 1100 0 847 248 
Q 594 497 594 1153 
L 594 3053 
L 172 3053 
L 172 3500 
L 594 3500 
L 594 4494 
L 1172 4494 
z
" transform="scale(0.015625)"/>
      </defs>
      <use xlink:href="#DejaVuSans-46"/>
      <use xlink:href="#DejaVuSans-69" x="50.269531"/>
      <use xlink:href="#DejaVuSans-74" x="78.052734"/>
      <use xlink:href="#DejaVuSans-74" x="117.261719"/>
      <use xlink:href="#DejaVuSans-65" x="156.470703"/>
      <use xlink:href="#DejaVuSans-64" x="217.994141"/>
     </g>
    </g>
    <g id="line2d_18">
     <path d="M 81 85.654687 
L 91 85.654687 
L 101 85.654687 
" style="fill: none; stroke: #2ca02c; stroke-width: 1.5; stroke-linecap: square"/>
    </g>
    <g id="text_16">
     <!-- Estimated -->
     <g transform="translate(109 89.154687) scale(0.1 -0.1)">
      <defs>
       <path id="DejaVuSans-45" d="M 628 4666 
L 3578 4666 
L 3578 4134 
L 1259 4134 
L 1259 2753 
L 3481 2753 
L 3481 2222 
L 1259 2222 
L 1259 531 
L 3634 531 
L 3634 0 
L 628 0 
L 628 4666 
z
" transform="scale(0.015625)"/>
      </defs>
      <use xlink:href="#DejaVuSans-45"/>
      <use xlink:href="#DejaVuSans-73" x="63.183594"/>
      <use xlink:href="#DejaVuSans-74" x="115.283203"/>
      <use xlink:href="#DejaVuSans-69" x="154.492188"/>
      <use xlink:href="#DejaVuSans-6d" x="182.275391"/>
      <use xlink:href="#DejaVuSans-61" x="279.6875"/>
      <use xlink:href="#DejaVuSans-74" x="340.966797"/>
      <use xlink:href="#DejaVuSans-65" x="380.175781"/>
      <use xlink:href="#DejaVuSans-64" x="441.699219"/>
     </g>
    </g>
   </g>
  </g>
 </g>
 <defs>
  <clipPath id="p588efbf640">
   <rect x="72" y="43.2" width="446.4" height="277.2"/>
  </clipPath>
 </defs>
</svg>
