<?xml version="1.0" encoding="utf-8" standalone="no"?>
<!DOCTYPE svg PUBLIC "-//W3C//DTD SVG 1.1//EN"
  "http://www.w3.org/Graphics/SVG/1.1/DTD/svg11.dtd">
<svg xmlns:xlink="http://www.w3.org/1999/xlink" width="576pt" height="360pt" viewBox="0 0 576 360" xmlns="http://www.w3.org/2000/svg" version="1.1">
 <metadata>
  <rdf:RDF xmlns:dc="http://purl.org/dc/elements/1.1/" xmlns:cc="http://creativecommons.org/ns#" xmlns:rdf="http://www.w3.org/1999/02/22-rdf-syntax-ns#">
   <cc:Work>
    <dc:type rdf:resource="http://purl.org/dc/dcmitype/StillImage"/>
    <dc:date>2023-11-23T16:35:02.895700</dc:date>
    <dc:format>image/svg+xml</dc:format>
    <dc:creator>
     <cc:Agent>
      <dc:title>Matplotlib v3.8.1, https://matplotlib.org/</dc:title>
     </cc:Agent>
    </dc:creator>
   </cc:Work>
  </rdf:RDF>
 </metadata>
 <defs>
  <style type="text/css">*{stroke-linejoin: round; stroke-linecap: butt}</style>
 </defs>
 <g id="figure_1">
  <g id="patch_1">
   <path d="M 0 360 
L 576 360 
L 576 0 
L 0 0 
z
" style="fill: #ffffff"/>
  </g>
  <g id="axes_1">
   <g id="patch_2">
    <path d="M 72 320.4 
L 518.4 320.4 
L 518.4 43.2 
L 72 43.2 
z
" style="fill: #ffffff"/>
   </g>
   <g id="matplotlib.axis_1">
    <g id="xtick_1">
     <g id="line2d_1">
      <defs>
       <path id="me031490777" d="M 0 0 
L 0 3.5 
" style="stroke: #000000; stroke-width: 0.8"/>
      </defs>
      <g>
       <use xlink:href="#me031490777" x="129.874161" y="320.4" style="stroke: #000000; stroke-width: 0.8"/>
      </g>
     </g>
     <g id="text_1">
      <!-- 2020-05-15 -->
      <g transform="translate(100.816349 334.998438) scale(0.1 -0.1)">
       <defs>
        <path id="DejaVuSans-32" d="M 1228 531 
L 3431 531 
L 3431 0 
L 469 0 
L 469 531 
Q 828 903 1448 1529 
Q 2069 2156 2228 2338 
Q 2531 2678 2651 2914 
Q 2772 3150 2772 3378 
Q 2772 3750 2511 3984 
Q 2250 4219 1831 4219 
Q 1534 4219 1204 4116 
Q 875 4013 500 3803 
L 500 4441 
Q 881 4594 1212 4672 
Q 1544 4750 1819 4750 
Q 2544 4750 2975 4387 
Q 3406 4025 3406 3419 
Q 3406 3131 3298 2873 
Q 3191 2616 2906 2266 
Q 2828 2175 2409 1742 
Q 1991 1309 1228 531 
z
" transform="scale(0.015625)"/>
        <path id="DejaVuSans-30" d="M 2034 4250 
Q 1547 4250 1301 3770 
Q 1056 3291 1056 2328 
Q 1056 1369 1301 889 
Q 1547 409 2034 409 
Q 2525 409 2770 889 
Q 3016 1369 3016 2328 
Q 3016 3291 2770 3770 
Q 2525 4250 2034 4250 
z
M 2034 4750 
Q 2819 4750 3233 4129 
Q 3647 3509 3647 2328 
Q 3647 1150 3233 529 
Q 2819 -91 2034 -91 
Q 1250 -91 836 529 
Q 422 1150 422 2328 
Q 422 3509 836 4129 
Q 1250 4750 2034 4750 
z
" transform="scale(0.015625)"/>
        <path id="DejaVuSans-2d" d="M 313 2009 
L 1997 2009 
L 1997 1497 
L 313 1497 
L 313 2009 
z
" transform="scale(0.015625)"/>
        <path id="DejaVuSans-35" d="M 691 4666 
L 3169 4666 
L 3169 4134 
L 1269 4134 
L 1269 2991 
Q 1406 3038 1543 3061 
Q 1681 3084 1819 3084 
Q 2600 3084 3056 2656 
Q 3513 2228 3513 1497 
Q 3513 744 3044 326 
Q 2575 -91 1722 -91 
Q 1428 -91 1123 -41 
Q 819 9 494 109 
L 494 744 
Q 775 591 1075 516 
Q 1375 441 1709 441 
Q 2250 441 2565 725 
Q 2881 1009 2881 1497 
Q 2881 1984 2565 2268 
Q 2250 2553 1709 2553 
Q 1456 2553 1204 2497 
Q 953 2441 691 2322 
L 691 4666 
z
" transform="scale(0.015625)"/>
        <path id="DejaVuSans-31" d="M 794 531 
L 1825 531 
L 1825 4091 
L 703 3866 
L 703 4441 
L 1819 4666 
L 2450 4666 
L 2450 531 
L 3481 531 
L 3481 0 
L 794 0 
L 794 531 
z
" transform="scale(0.015625)"/>
       </defs>
       <use xlink:href="#DejaVuSans-32"/>
       <use xlink:href="#DejaVuSans-30" x="63.623047"/>
       <use xlink:href="#DejaVuSans-32" x="127.246094"/>
       <use xlink:href="#DejaVuSans-30" x="190.869141"/>
       <use xlink:href="#DejaVuSans-2d" x="254.492188"/>
       <use xlink:href="#DejaVuSans-30" x="290.576172"/>
       <use xlink:href="#DejaVuSans-35" x="354.199219"/>
       <use xlink:href="#DejaVuSans-2d" x="417.822266"/>
       <use xlink:href="#DejaVuSans-31" x="453.90625"/>
       <use xlink:href="#DejaVuSans-35" x="517.529297"/>
      </g>
     </g>
    </g>
    <g id="xtick_2">
     <g id="line2d_2">
      <g>
       <use xlink:href="#me031490777" x="212.435902" y="320.4" style="stroke: #000000; stroke-width: 0.8"/>
      </g>
     </g>
     <g id="text_2">
      <!-- 2020-06-01 -->
      <g transform="translate(183.37809 334.998438) scale(0.1 -0.1)">
       <defs>
        <path id="DejaVuSans-36" d="M 2113 2584 
Q 1688 2584 1439 2293 
Q 1191 2003 1191 1497 
Q 1191 994 1439 701 
Q 1688 409 2113 409 
Q 2538 409 2786 701 
Q 3034 994 3034 1497 
Q 3034 2003 2786 2293 
Q 2538 2584 2113 2584 
z
M 3366 4563 
L 3366 3988 
Q 3128 4100 2886 4159 
Q 2644 4219 2406 4219 
Q 1781 4219 1451 3797 
Q 1122 3375 1075 2522 
Q 1259 2794 1537 2939 
Q 1816 3084 2150 3084 
Q 2853 3084 3261 2657 
Q 3669 2231 3669 1497 
Q 3669 778 3244 343 
Q 2819 -91 2113 -91 
Q 1303 -91 875 529 
Q 447 1150 447 2328 
Q 447 3434 972 4092 
Q 1497 4750 2381 4750 
Q 2619 4750 2861 4703 
Q 3103 4656 3366 4563 
z
" transform="scale(0.015625)"/>
       </defs>
       <use xlink:href="#DejaVuSans-32"/>
       <use xlink:href="#DejaVuSans-30" x="63.623047"/>
       <use xlink:href="#DejaVuSans-32" x="127.246094"/>
       <use xlink:href="#DejaVuSans-30" x="190.869141"/>
       <use xlink:href="#DejaVuSans-2d" x="254.492188"/>
       <use xlink:href="#DejaVuSans-30" x="290.576172"/>
       <use xlink:href="#DejaVuSans-36" x="354.199219"/>
       <use xlink:href="#DejaVuSans-2d" x="417.822266"/>
       <use xlink:href="#DejaVuSans-30" x="453.90625"/>
       <use xlink:href="#DejaVuSans-31" x="517.529297"/>
      </g>
     </g>
    </g>
    <g id="xtick_3">
     <g id="line2d_3">
      <g>
       <use xlink:href="#me031490777" x="280.427924" y="320.4" style="stroke: #000000; stroke-width: 0.8"/>
      </g>
     </g>
     <g id="text_3">
      <!-- 2020-06-15 -->
      <g transform="translate(251.370111 334.998438) scale(0.1 -0.1)">
       <use xlink:href="#DejaVuSans-32"/>
       <use xlink:href="#DejaVuSans-30" x="63.623047"/>
       <use xlink:href="#DejaVuSans-32" x="127.246094"/>
       <use xlink:href="#DejaVuSans-30" x="190.869141"/>
       <use xlink:href="#DejaVuSans-2d" x="254.492188"/>
       <use xlink:href="#DejaVuSans-30" x="290.576172"/>
       <use xlink:href="#DejaVuSans-36" x="354.199219"/>
       <use xlink:href="#DejaVuSans-2d" x="417.822266"/>
       <use xlink:href="#DejaVuSans-31" x="453.90625"/>
       <use xlink:href="#DejaVuSans-35" x="517.529297"/>
      </g>
     </g>
    </g>
    <g id="xtick_4">
     <g id="line2d_4">
      <g>
       <use xlink:href="#me031490777" x="358.133092" y="320.4" style="stroke: #000000; stroke-width: 0.8"/>
      </g>
     </g>
     <g id="text_4">
      <!-- 2020-07-01 -->
      <g transform="translate(329.075279 334.998438) scale(0.1 -0.1)">
       <defs>
        <path id="DejaVuSans-37" d="M 525 4666 
L 3525 4666 
L 3525 4397 
L 1831 0 
L 1172 0 
L 2766 4134 
L 525 4134 
L 525 4666 
z
" transform="scale(0.015625)"/>
       </defs>
       <use xlink:href="#DejaVuSans-32"/>
       <use xlink:href="#DejaVuSans-30" x="63.623047"/>
       <use xlink:href="#DejaVuSans-32" x="127.246094"/>
       <use xlink:href="#DejaVuSans-30" x="190.869141"/>
       <use xlink:href="#DejaVuSans-2d" x="254.492188"/>
       <use xlink:href="#DejaVuSans-30" x="290.576172"/>
       <use xlink:href="#DejaVuSans-37" x="354.199219"/>
       <use xlink:href="#DejaVuSans-2d" x="417.822266"/>
       <use xlink:href="#DejaVuSans-30" x="453.90625"/>
       <use xlink:href="#DejaVuSans-31" x="517.529297"/>
      </g>
     </g>
    </g>
    <g id="xtick_5">
     <g id="line2d_5">
      <g>
       <use xlink:href="#me031490777" x="426.125113" y="320.4" style="stroke: #000000; stroke-width: 0.8"/>
      </g>
     </g>
     <g id="text_5">
      <!-- 2020-07-15 -->
      <g transform="translate(397.067301 334.998438) scale(0.1 -0.1)">
       <use xlink:href="#DejaVuSans-32"/>
       <use xlink:href="#DejaVuSans-30" x="63.623047"/>
       <use xlink:href="#DejaVuSans-32" x="127.246094"/>
       <use xlink:href="#DejaVuSans-30" x="190.869141"/>
       <use xlink:href="#DejaVuSans-2d" x="254.492188"/>
       <use xlink:href="#DejaVuSans-30" x="290.576172"/>
       <use xlink:href="#DejaVuSans-37" x="354.199219"/>
       <use xlink:href="#DejaVuSans-2d" x="417.822266"/>
       <use xlink:href="#DejaVuSans-31" x="453.90625"/>
       <use xlink:href="#DejaVuSans-35" x="517.529297"/>
      </g>
     </g>
    </g>
    <g id="xtick_6">
     <g id="line2d_6">
      <g>
       <use xlink:href="#me031490777" x="508.686854" y="320.4" style="stroke: #000000; stroke-width: 0.8"/>
      </g>
     </g>
     <g id="text_6">
      <!-- 2020-08-01 -->
      <g transform="translate(479.629042 334.998438) scale(0.1 -0.1)">
       <defs>
        <path id="DejaVuSans-38" d="M 2034 2216 
Q 1584 2216 1326 1975 
Q 1069 1734 1069 1313 
Q 1069 891 1326 650 
Q 1584 409 2034 409 
Q 2484 409 2743 651 
Q 3003 894 3003 1313 
Q 3003 1734 2745 1975 
Q 2488 2216 2034 2216 
z
M 1403 2484 
Q 997 2584 770 2862 
Q 544 3141 544 3541 
Q 544 4100 942 4425 
Q 1341 4750 2034 4750 
Q 2731 4750 3128 4425 
Q 3525 4100 3525 3541 
Q 3525 3141 3298 2862 
Q 3072 2584 2669 2484 
Q 3125 2378 3379 2068 
Q 3634 1759 3634 1313 
Q 3634 634 3220 271 
Q 2806 -91 2034 -91 
Q 1263 -91 848 271 
Q 434 634 434 1313 
Q 434 1759 690 2068 
Q 947 2378 1403 2484 
z
M 1172 3481 
Q 1172 3119 1398 2916 
Q 1625 2713 2034 2713 
Q 2441 2713 2670 2916 
Q 2900 3119 2900 3481 
Q 2900 3844 2670 4047 
Q 2441 4250 2034 4250 
Q 1625 4250 1398 4047 
Q 1172 3844 1172 3481 
z
" transform="scale(0.015625)"/>
       </defs>
       <use xlink:href="#DejaVuSans-32"/>
       <use xlink:href="#DejaVuSans-30" x="63.623047"/>
       <use xlink:href="#DejaVuSans-32" x="127.246094"/>
       <use xlink:href="#DejaVuSans-30" x="190.869141"/>
       <use xlink:href="#DejaVuSans-2d" x="254.492188"/>
       <use xlink:href="#DejaVuSans-30" x="290.576172"/>
       <use xlink:href="#DejaVuSans-38" x="354.199219"/>
       <use xlink:href="#DejaVuSans-2d" x="417.822266"/>
       <use xlink:href="#DejaVuSans-30" x="453.90625"/>
       <use xlink:href="#DejaVuSans-31" x="517.529297"/>
      </g>
     </g>
    </g>
   </g>
   <g id="matplotlib.axis_2">
    <g id="ytick_1">
     <g id="line2d_7">
      <defs>
       <path id="m90fbc22864" d="M 0 0 
L -3.5 0 
" style="stroke: #000000; stroke-width: 0.8"/>
      </defs>
      <g>
       <use xlink:href="#m90fbc22864" x="72" y="305.500609" style="stroke: #000000; stroke-width: 0.8"/>
      </g>
     </g>
     <g id="text_7">
      <!-- −2 -->
      <g transform="translate(50.257812 309.299828) scale(0.1 -0.1)">
       <defs>
        <path id="DejaVuSans-2212" d="M 678 2272 
L 4684 2272 
L 4684 1741 
L 678 1741 
L 678 2272 
z
" transform="scale(0.015625)"/>
       </defs>
       <use xlink:href="#DejaVuSans-2212"/>
       <use xlink:href="#DejaVuSans-32" x="83.789062"/>
      </g>
     </g>
    </g>
    <g id="ytick_2">
     <g id="line2d_8">
      <g>
       <use xlink:href="#m90fbc22864" x="72" y="254.594348" style="stroke: #000000; stroke-width: 0.8"/>
      </g>
     </g>
     <g id="text_8">
      <!-- −1 -->
      <g transform="translate(50.257812 258.393567) scale(0.1 -0.1)">
       <use xlink:href="#DejaVuSans-2212"/>
       <use xlink:href="#DejaVuSans-31" x="83.789062"/>
      </g>
     </g>
    </g>
    <g id="ytick_3">
     <g id="line2d_9">
      <g>
       <use xlink:href="#m90fbc22864" x="72" y="203.688087" style="stroke: #000000; stroke-width: 0.8"/>
      </g>
     </g>
     <g id="text_9">
      <!-- 0 -->
      <g transform="translate(58.6375 207.487306) scale(0.1 -0.1)">
       <use xlink:href="#DejaVuSans-30"/>
      </g>
     </g>
    </g>
    <g id="ytick_4">
     <g id="line2d_10">
      <g>
       <use xlink:href="#m90fbc22864" x="72" y="152.781827" style="stroke: #000000; stroke-width: 0.8"/>
      </g>
     </g>
     <g id="text_10">
      <!-- 1 -->
      <g transform="translate(58.6375 156.581045) scale(0.1 -0.1)">
       <use xlink:href="#DejaVuSans-31"/>
      </g>
     </g>
    </g>
    <g id="ytick_5">
     <g id="line2d_11">
      <g>
       <use xlink:href="#m90fbc22864" x="72" y="101.875566" style="stroke: #000000; stroke-width: 0.8"/>
      </g>
     </g>
     <g id="text_11">
      <!-- 2 -->
      <g transform="translate(58.6375 105.674784) scale(0.1 -0.1)">
       <use xlink:href="#DejaVuSans-32"/>
      </g>
     </g>
    </g>
    <g id="ytick_6">
     <g id="line2d_12">
      <g>
       <use xlink:href="#m90fbc22864" x="72" y="50.969305" style="stroke: #000000; stroke-width: 0.8"/>
      </g>
     </g>
     <g id="text_12">
      <!-- 3 -->
      <g transform="translate(58.6375 54.768523) scale(0.1 -0.1)">
       <defs>
        <path id="DejaVuSans-33" d="M 2597 2516 
Q 3050 2419 3304 2112 
Q 3559 1806 3559 1356 
Q 3559 666 3084 287 
Q 2609 -91 1734 -91 
Q 1441 -91 1130 -33 
Q 819 25 488 141 
L 488 750 
Q 750 597 1062 519 
Q 1375 441 1716 441 
Q 2309 441 2620 675 
Q 2931 909 2931 1356 
Q 2931 1769 2642 2001 
Q 2353 2234 1838 2234 
L 1294 2234 
L 1294 2753 
L 1863 2753 
Q 2328 2753 2575 2939 
Q 2822 3125 2822 3475 
Q 2822 3834 2567 4026 
Q 2313 4219 1838 4219 
Q 1578 4219 1281 4162 
Q 984 4106 628 3988 
L 628 4550 
Q 988 4650 1302 4700 
Q 1616 4750 1894 4750 
Q 2613 4750 3031 4423 
Q 3450 4097 3450 3541 
Q 3450 3153 3228 2886 
Q 3006 2619 2597 2516 
z
" transform="scale(0.015625)"/>
       </defs>
       <use xlink:href="#DejaVuSans-33"/>
      </g>
     </g>
    </g>
   </g>
   <g id="line2d_13">
    <path d="M 72 278.034476 
L 72.404714 288.82263 
L 72.607072 287.184429 
L 72.809429 277.035572 
L 73.214143 247.627862 
L 73.618858 235.800848 
L 75.035358 156.887494 
L 75.237715 154.070587 
L 75.440073 158.885301 
L 75.64243 166.696724 
L 75.844787 169.83328 
L 76.047144 184.337354 
L 76.654216 251.183957 
L 77.05893 274.078819 
L 77.261287 278.234256 
L 77.463645 277.874651 
L 77.666002 267.685838 
L 78.070716 240.575605 
L 78.475431 228.708635 
L 78.677788 220.018177 
L 79.487217 165.797711 
L 79.891931 150.314711 
L 80.094288 152.172671 
L 80.903717 192.528361 
L 81.713146 264.209655 
L 82.11786 278.154344 
L 82.320218 280.092216 
L 82.522575 279.812523 
L 82.724932 277.415156 
L 82.927289 270.922285 
L 83.332004 249.046304 
L 83.736718 235.421265 
L 83.939075 232.524445 
L 84.141432 232.78416 
L 84.546147 238.87747 
L 84.748504 240.875276 
L 84.950861 240.895254 
L 85.355576 244.890867 
L 85.557933 241.714355 
L 85.76029 247.54795 
L 86.569719 290.340963 
L 86.772076 296.134602 
L 86.974433 297.652935 
L 87.176791 297.712869 
L 87.379148 296.434273 
L 87.581505 292.878177 
L 87.783862 286.445241 
L 88.188577 265.448295 
L 88.390934 260.513713 
L 89.200363 252.822158 
L 89.40272 248.88648 
L 89.807434 234.801945 
L 90.212149 232.464511 
L 90.414506 229.887341 
L 90.616863 237.459027 
L 91.223935 285.62614 
L 91.628649 296.134602 
L 91.831006 296.194536 
L 92.033364 293.817146 
L 92.842792 249.865405 
L 93.04515 247.827642 
L 93.449864 239.636636 
L 93.652221 239.137184 
L 93.854578 236.340256 
L 94.056936 235.740914 
L 94.259293 233.243656 
L 94.46165 227.150346 
L 94.664007 224.433329 
L 94.866364 225.312364 
L 95.068722 228.309074 
L 95.271079 224.653088 
L 95.473436 234.282515 
L 96.080508 285.985745 
L 96.485222 294.756115 
L 96.687579 296.574119 
L 96.889937 292.43866 
L 97.699365 249.166173 
L 98.306437 239.157163 
L 98.508794 238.797557 
L 99.52058 218.579756 
L 99.722937 219.77844 
L 99.925295 223.933878 
L 100.127652 222.195786 
L 100.330009 231.865169 
L 100.937081 283.628334 
L 101.341795 295.315501 
L 101.544152 296.25447 
L 101.74651 292.718353 
L 101.948867 281.330856 
L 102.353581 252.722268 
L 102.555938 251.243891 
L 103.567724 234.302493 
L 104.377153 213.245613 
L 104.57951 214.464275 
L 104.781868 219.598638 
L 104.984225 219.57866 
L 105.186582 228.049359 
L 105.793654 280.631624 
L 106.198368 292.778287 
L 106.400725 294.456444 
L 106.603083 290.620656 
L 107.412511 246.868695 
L 107.614869 245.230494 
L 107.817226 241.734333 
L 108.22194 227.889534 
L 108.626655 207.212238 
L 108.829012 201.558446 
L 109.031369 199.76042 
L 109.638441 208.031339 
L 109.840798 213.205657 
L 110.043155 223.114777 
L 110.650227 275.557196 
L 111.054941 289.142279 
L 111.257298 290.960283 
L 111.459655 289.302104 
L 111.662013 278.434037 
L 112.066727 250.564637 
L 112.471442 236.280321 
L 113.887942 171.111876 
L 114.090299 168.854355 
L 114.292656 175.347225 
L 114.495014 186.23527 
L 114.697371 190.610467 
L 115.102085 223.014887 
L 115.709157 270.04325 
L 116.113871 283.328663 
L 116.316228 283.488487 
L 116.518586 281.91022 
L 116.720943 278.454015 
L 117.125657 252.502509 
L 118.542158 152.791991 
L 118.744515 143.162564 
L 118.946872 139.466622 
L 119.149229 142.962783 
L 119.756301 179.043167 
L 120.56573 254.640162 
L 120.970444 273.519433 
L 121.172801 277.415156 
L 121.375159 278.973445 
L 121.577516 277.594958 
L 121.779873 270.04325 
L 122.589302 221.456598 
L 123.196374 197.203228 
L 123.398731 192.84801 
L 123.601088 193.04779 
L 123.803445 192.508383 
L 124.410517 205.274366 
L 124.612874 215.722893 
L 125.219946 269.344018 
L 125.62466 283.188816 
L 125.827017 285.086732 
L 126.029374 282.669386 
L 127.04116 228.948372 
L 127.648232 193.307505 
L 128.255304 152.931837 
L 128.457661 145.739734 
L 128.660018 145.420085 
L 129.26709 187.653713 
L 130.278876 274.198687 
L 130.481233 281.650505 
L 130.68359 282.969057 
L 130.885947 280.511755 
L 132.504805 176.74569 
L 133.111877 136.090329 
L 133.314234 127.120178 
L 133.516591 128.738402 
L 133.921306 143.382323 
L 134.123663 150.454557 
L 135.135449 255.139614 
L 135.540163 267.166409 
L 135.74252 266.267396 
L 135.944878 256.178473 
L 136.349592 226.251333 
L 136.551949 219.798418 
L 136.754306 208.490834 
L 136.956664 212.846052 
L 137.159021 202.077875 
L 137.766092 193.66711 
L 137.96845 194.046694 
L 138.373164 188.892353 
L 138.777879 196.084456 
L 138.980236 196.883579 
L 139.182593 208.131229 
L 139.789665 262.09198 
L 140.194379 276.735901 
L 140.396736 278.71373 
L 140.599093 275.836888 
L 141.003808 247.048498 
L 141.408522 226.870653 
L 142.015594 214.10467 
L 142.622665 205.394234 
L 142.825023 205.134519 
L 143.02738 203.975791 
L 143.229737 204.635068 
L 143.634451 209.66954 
L 143.836809 208.490834 
L 144.039166 218.200173 
L 144.646238 265.228536 
L 145.050952 276.755879 
L 145.253309 277.994519 
L 145.455666 274.99781 
L 145.860381 246.728849 
L 146.062738 231.046068 
L 146.66981 215.34331 
L 146.872167 212.786118 
L 147.074524 211.747258 
L 147.479238 201.158884 
L 147.681596 209.230022 
L 147.883953 210.168991 
L 148.08631 212.666249 
L 148.491024 221.556488 
L 148.693382 220.257914 
L 149.098096 242.813148 
L 149.502811 269.683645 
L 149.907525 282.209891 
L 150.109882 284.187719 
L 150.312239 283.628334 
L 150.514597 280.911317 
L 150.716954 275.417349 
L 151.121668 255.319417 
L 151.526383 235.581089 
L 151.931097 229.987231 
L 152.133454 229.567692 
L 152.335811 231.465608 
L 152.538169 231.965059 
L 152.740526 229.987231 
L 152.942883 230.266924 
L 153.14524 229.327955 
L 153.347597 229.367911 
L 153.549955 226.551004 
L 153.752312 228.668679 
L 154.764098 278.254234 
L 154.966455 282.070044 
L 155.168812 283.408575 
L 155.573527 279.612743 
L 155.775884 268.944456 
L 156.78767 193.846913 
L 157.799456 152.772013 
L 158.001813 154.709885 
L 158.406528 167.435912 
L 158.608885 180.501566 
L 159.215956 246.648937 
L 159.620671 267.46608 
L 159.823028 270.56268 
L 160.025385 269.683645 
L 160.227743 260.23402 
L 160.632457 228.948372 
L 161.8466 180.46161 
L 162.251315 170.772249 
L 162.453672 170.912095 
L 162.656029 173.669068 
L 163.465458 204.335397 
L 164.072529 262.032046 
L 164.477244 279.972348 
L 164.679601 280.291997 
L 164.881958 277.175419 
L 165.084316 267.386167 
L 165.48903 236.759795 
L 166.500816 202.936932 
L 167.310245 161.562361 
L 167.512602 164.798808 
L 167.917316 184.637025 
L 168.119674 188.932309 
L 168.322031 199.880288 
L 168.929102 257.157398 
L 169.333817 271.801319 
L 169.536174 275.19759 
L 169.738531 271.661473 
L 170.143246 245.350362 
L 170.54796 216.122455 
L 171.357389 173.149638 
L 171.559746 167.336022 
L 172.166818 144.001643 
L 172.369175 145.559932 
L 172.571532 153.191552 
L 173.178604 190.770291 
L 173.785675 259.315029 
L 174.19039 278.014497 
L 174.392747 280.891339 
L 174.595104 279.133269 
L 174.999819 255.79889 
L 175.404533 231.685367 
L 177.023391 156.228218 
L 177.225748 156.72767 
L 177.428105 160.503524 
L 177.630462 176.505953 
L 177.83282 178.863365 
L 178.237534 221.416642 
L 178.642248 262.811191 
L 179.046963 281.330856 
L 179.24932 284.926908 
L 179.451677 282.489584 
L 179.654034 274.098797 
L 180.261106 235.641023 
L 181.879964 142.06377 
L 182.082321 138.907236 
L 182.284678 144.381226 
L 183.094107 198.761517 
L 183.498821 236.420168 
L 183.903536 257.13742 
L 184.30825 264.709107 
L 184.510607 266.027659 
L 184.712965 262.51152 
L 184.915322 249.585712 
L 185.724751 170.372687 
L 186.129465 149.715369 
L 186.331822 143.861796 
L 186.53418 143.122608 
L 186.736537 145.57991 
L 187.748323 184.657003 
L 188.557752 246.688893 
L 188.962466 260.393845 
L 189.164823 262.371673 
L 189.36718 262.451585 
L 189.569538 261.732375 
L 189.771895 251.303826 
L 190.986038 158.505717 
L 191.188395 153.371355 
L 191.390752 153.331399 
L 191.795467 162.181681 
L 192.604896 192.468426 
L 193.414325 253.741149 
L 193.819039 267.006584 
L 194.021396 268.045443 
L 194.426111 264.209655 
L 194.628468 255.539175 
L 195.437897 196.583908 
L 195.640254 191.729238 
L 195.842611 192.907944 
L 196.247325 198.781495 
L 196.449683 199.340881 
L 196.65204 198.961297 
L 197.056754 206.912567 
L 197.259112 207.731668 
L 197.461469 215.882718 
L 198.06854 262.7113 
L 198.473255 276.456208 
L 198.675612 276.556099 
L 198.877969 273.019981 
L 199.282684 243.192732 
L 199.687398 221.077014 
L 201.306256 156.72767 
L 201.508613 155.608898 
L 202.115684 174.208476 
L 202.318042 185.016609 
L 202.925113 247.108432 
L 203.329828 264.209655 
L 203.532185 266.247418 
L 203.734542 263.350598 
L 203.936899 252.18286 
L 204.341614 219.239033 
L 205.758114 166.257206 
L 205.960471 163.83986 
L 206.162829 163.979707 
L 206.365186 165.358193 
L 206.7699 176.84558 
L 206.972257 179.94218 
L 207.174615 190.450642 
L 207.781686 247.687796 
L 208.186401 263.350598 
L 208.388758 266.307352 
L 208.591115 263.070905 
L 208.793472 251.56354 
L 209.198187 218.799515 
L 209.805258 197.203228 
L 210.209973 177.924396 
L 210.817044 137.508772 
L 211.019402 129.277809 
L 211.221759 132.154651 
L 211.626473 155.888591 
L 211.82883 160.943041 
L 212.031188 175.227357 
L 212.638259 238.298106 
L 213.042974 256.31832 
L 213.245331 260.194064 
L 213.447688 258.535885 
L 213.650045 248.147291 
L 214.257117 206.193357 
L 214.661831 180.641412 
L 215.47126 123.084609 
L 215.875975 106.862421 
L 216.078332 106.402926 
L 216.280689 111.777025 
L 217.090118 173.629112 
L 217.697189 233.683173 
L 218.101904 251.583519 
L 218.304261 254.839943 
L 218.506618 256.158495 
L 218.708976 254.939833 
L 218.911333 242.59339 
L 219.518404 189.451739 
L 220.125476 155.309227 
L 220.327833 153.21153 
L 220.53019 155.369161 
L 221.541976 196.404105 
L 221.744334 201.398621 
L 222.553762 256.578035 
L 222.958477 267.126452 
L 223.160834 268.784632 
L 223.363191 269.124259 
L 223.565549 267.605926 
L 223.767906 259.155205 
L 224.374977 222.095896 
L 224.779692 214.743968 
L 225.386763 216.741775 
L 225.589121 220.158023 
L 225.791478 221.01708 
L 226.196192 229.148152 
L 226.398549 228.808525 
L 226.600907 235.041681 
L 227.410335 287.044582 
L 227.612693 290.960283 
L 227.81505 292.598484 
L 228.017407 289.501884 
L 228.826836 248.187248 
L 229.029193 245.929726 
L 229.23155 240.355846 
L 230.648051 178.843387 
L 230.850408 179.402772 
L 231.255122 193.387417 
L 231.45748 203.955813 
L 232.064551 265.727988 
L 232.469266 282.389694 
L 232.671623 285.026798 
L 232.87398 283.848092 
L 233.278694 259.315029 
L 233.683409 237.459027 
L 235.302267 174.807818 
L 235.504624 174.228454 
L 236.111695 192.768097 
L 236.314053 202.817064 
L 236.921124 263.090883 
L 237.325839 278.493971 
L 237.528196 281.530637 
L 237.730553 279.472896 
L 238.135267 256.238407 
L 238.539982 235.101616 
L 239.349411 205.094563 
L 239.754125 195.385224 
L 240.15884 185.476104 
L 240.361197 185.236367 
L 240.563554 190.530554 
L 240.968268 207.611799 
L 241.170626 214.963727 
L 241.777697 268.844566 
L 242.182412 284.227675 
L 242.384769 286.645021 
L 242.587126 283.748202 
L 242.99184 259.774525 
L 243.396555 242.353653 
L 245.21777 169.93317 
L 245.420127 174.048651 
L 246.027199 200.040113 
L 246.836627 271.321846 
L 247.038985 279.43294 
L 247.241342 282.509562 
L 247.443699 280.05226 
L 247.848413 257.197355 
L 249.467271 148.556641 
L 249.669628 140.72524 
L 249.871985 138.847302 
L 250.074343 139.007127 
L 250.2767 145.739734 
L 250.883772 176.885536 
L 251.6932 249.60569 
L 252.097915 263.690225 
L 252.300272 266.666957 
L 252.502629 266.926672 
L 252.704986 263.170796 
L 253.109701 231.405674 
L 253.91913 160.403633 
L 254.323844 145.080458 
L 254.728558 136.529847 
L 254.930916 135.311185 
L 255.133273 142.5832 
L 255.740345 178.923299 
L 256.549773 251.863211 
L 256.954488 266.866738 
L 257.156845 270.56268 
L 257.359202 272.180903 
L 257.561559 271.241934 
L 257.966274 243.232688 
L 258.573345 194.366343 
L 258.97806 173.349419 
L 259.382774 162.661155 
L 259.585131 159.324818 
L 259.787489 158.905279 
L 259.989846 161.442493 
L 260.39456 176.945471 
L 260.596917 189.891256 
L 261.203989 250.005251 
L 261.608704 268.145334 
L 261.811061 270.982219 
L 262.013418 270.223052 
L 262.418132 246.988564 
L 262.62049 235.341352 
L 263.025204 225.97164 
L 263.227561 223.254623 
L 263.429918 222.275698 
L 263.834633 223.514338 
L 264.03699 223.214667 
L 264.239347 224.133658 
L 264.441704 224.213571 
L 264.644062 223.953856 
L 264.846419 225.931684 
L 265.048776 229.847385 
L 265.251133 229.847385 
L 265.45349 233.743107 
L 266.060562 274.917898 
L 266.465277 287.364232 
L 266.667634 288.862586 
L 266.869991 284.807039 
L 267.072348 277.095507 
L 267.477063 251.403716 
L 268.084134 229.907319 
L 268.488849 219.938265 
L 269.09592 209.030242 
L 269.500635 205.194453 
L 269.702992 207.312128 
L 269.905349 210.808289 
L 270.107706 211.467566 
L 270.310063 217.580853 
L 270.917135 264.948843 
L 271.32185 276.556099 
L 271.524207 278.633817 
L 271.726564 276.975638 
L 274.15485 139.706359 
L 274.357208 132.753993 
L 274.559565 135.990439 
L 275.166636 160.383655 
L 275.976065 239.476812 
L 276.38078 251.663431 
L 276.583137 250.984177 
L 276.987851 229.807429 
L 277.392566 201.778204 
L 278.404352 146.558835 
L 278.606709 143.602081 
L 279.011423 130.776164 
L 279.213781 129.217875 
L 279.416138 133.353334 
L 280.023209 173.808915 
L 280.630281 242.992951 
L 281.034995 265.08869 
L 281.237353 269.823491 
L 281.43971 268.325136 
L 281.642067 262.61141 
L 282.249139 222.115874 
L 282.85621 189.491695 
L 283.867996 147.997256 
L 284.070354 146.838528 
L 284.272711 154.749841 
L 285.284497 235.321374 
L 285.689211 266.527111 
L 286.093926 280.831405 
L 286.296283 283.04897 
L 286.49864 281.2909 
L 286.700997 278.434037 
L 287.105712 248.347072 
L 287.712783 198.341977 
L 288.522212 156.20824 
L 288.724569 149.29583 
L 288.926927 147.417892 
L 289.129284 150.894075 
L 289.736355 183.698056 
L 290.545784 251.683409 
L 290.950499 266.507132 
L 291.152856 269.204171 
L 291.355213 269.284083 
L 291.55757 267.845663 
L 291.759927 255.738956 
L 292.771714 160.004072 
L 293.176428 138.6675 
L 293.581142 127.759476 
L 293.7835 126.081319 
L 293.985857 129.497568 
L 294.592928 154.270368 
L 295.402357 235.081637 
L 295.807072 249.345975 
L 296.009429 249.186151 
L 296.414143 229.487779 
L 297.830644 98.351766 
L 298.235358 85.425958 
L 298.437715 82.908722 
L 298.640073 83.168437 
L 298.84243 85.166244 
L 299.044787 92.977667 
L 299.449501 119.188887 
L 300.056573 195.964588 
L 300.461287 220.497651 
L 300.663645 226.351223 
L 300.866002 227.050456 
L 301.068359 220.417738 
L 301.473073 191.209808 
L 302.484859 88.862185 
L 302.687217 77.854272 
L 302.889574 77.954162 
L 303.091931 85.82552 
L 303.496646 94.236285 
L 303.90136 115.872528 
L 304.306074 143.042696 
L 304.913146 210.348794 
L 305.31786 235.001725 
L 305.520218 240.415781 
L 305.722575 238.677689 
L 305.924932 231.745301 
L 306.532004 192.887966 
L 307.54379 124.802723 
L 307.746147 114.873625 
L 307.948504 114.014568 
L 308.757933 145.400107 
L 309.162647 170.752271 
L 309.769719 232.024994 
L 310.174433 251.36376 
L 310.376791 255.639066 
L 310.579148 255.07968 
L 310.983862 232.304687 
L 312.198005 131.115791 
L 312.60272 119.808207 
L 312.805077 115.552879 
L 313.007434 116.092287 
L 313.209791 119.688339 
L 313.816863 146.518879 
L 314.01922 159.82427 
L 314.626292 220.697431 
L 315.031006 240.635539 
L 315.233364 245.090648 
L 315.435721 244.45135 
L 315.840435 226.191399 
L 316.24515 207.991382 
L 316.649864 196.304215 
L 317.054578 181.420557 
L 317.66165 174.108585 
L 317.864007 173.669068 
L 318.066364 172.790033 
L 318.268722 177.345032 
L 318.875793 198.881385 
L 319.685222 255.878802 
L 320.089937 268.305158 
L 320.292294 269.903403 
L 320.697008 262.191871 
L 321.101723 236.679883 
L 322.315866 160.883107 
L 322.72058 150.914053 
L 322.922937 148.656532 
L 323.125295 152.672123 
L 323.732366 179.542619 
L 324.541795 246.209419 
L 324.94651 260.114152 
L 325.148867 262.931059 
L 325.351224 262.990993 
L 325.553581 260.793406 
L 325.755938 248.806568 
L 326.970082 139.466622 
L 327.172439 133.313378 
L 327.374796 131.775067 
L 327.77951 126.361012 
L 327.981868 131.215682 
L 328.184225 139.766293 
L 328.791296 190.011125 
L 329.196011 232.544423 
L 329.398368 247.368147 
L 329.803083 257.197355 
L 330.00544 256.278364 
L 330.207797 250.824352 
L 330.814869 203.636164 
L 331.42194 166.456987 
L 331.826655 144.401204 
L 332.029012 141.584297 
L 332.231369 141.604275 
L 332.433726 141.784078 
L 332.636083 143.82184 
L 332.838441 148.236992 
L 333.243155 170.532512 
L 333.445512 179.302882 
L 334.052584 243.232688 
L 334.457298 264.429414 
L 334.659655 269.703623 
L 334.862013 267.366189 
L 335.266727 248.067379 
L 335.671442 224.373395 
L 336.48087 185.356236 
L 336.683228 180.421654 
L 336.885585 179.342838 
L 337.087942 173.329441 
L 337.290299 171.531415 
L 337.695014 177.824505 
L 338.099728 191.889063 
L 338.302085 197.602789 
L 339.111514 261.632485 
L 339.313871 267.66586 
L 339.516228 269.843469 
L 339.718586 265.887812 
L 340.1233 243.172753 
L 340.932729 199.920244 
L 342.349229 139.846205 
L 342.551587 139.766293 
L 343.158658 163.779926 
L 343.76573 224.832891 
L 344.170444 242.353653 
L 344.372801 246.988564 
L 344.575159 244.910845 
L 344.777516 238.178237 
L 345.18223 208.131229 
L 346.194016 127.739498 
L 346.598731 113.37527 
L 347.003445 106.942334 
L 347.205802 106.123233 
L 347.40816 109.219833 
L 347.610517 116.851453 
L 348.015231 142.243573 
L 348.82466 230.886244 
L 349.229374 247.527971 
L 349.431732 246.788783 
L 349.634089 241.154969 
L 349.836446 230.326858 
L 351.050589 128.738402 
L 351.455304 110.878012 
L 351.860018 102.267467 
L 352.062375 101.388432 
L 352.264733 104.924549 
L 352.46709 115.712704 
L 353.276519 196.543952 
L 353.681233 233.443436 
L 354.085947 253.081873 
L 354.288305 258.216236 
L 354.490662 258.775622 
L 354.693019 256.598013 
L 355.097733 215.702915 
L 355.704805 143.881774 
L 356.109519 119.848163 
L 356.716591 102.147598 
L 356.918948 101.088761 
L 357.121306 105.763628 
L 357.52602 130.696252 
L 357.728377 143.042696 
L 358.740163 235.940694 
L 359.144878 248.566831 
L 359.347235 250.384835 
L 359.549592 250.065186 
L 359.751949 236.440146 
L 360.763735 119.069019 
L 361.16845 100.509397 
L 361.573164 89.701264 
L 361.775521 87.463721 
L 361.977879 90.660211 
L 362.180236 97.472731 
L 362.58495 122.56518 
L 363.394379 208.930351 
L 363.799093 226.111487 
L 364.001451 226.910609 
L 364.203808 221.176905 
L 364.406165 211.387653 
L 365.013237 143.662016 
L 365.620308 80.811026 
L 366.025023 65.068311 
L 366.429737 59.054914 
L 366.632094 59.534387 
L 366.834451 62.111557 
L 367.036809 70.602235 
L 367.441523 99.03102 
L 368.048595 176.585865 
L 368.453309 206.313225 
L 368.655666 214.6241 
L 368.858024 216.941555 
L 369.060381 213.145723 
L 369.262738 203.536274 
L 369.86981 141.644231 
L 370.476881 84.966463 
L 370.881596 68.764253 
L 371.083953 68.324735 
L 371.28631 69.023968 
L 371.488667 72.859756 
L 371.691024 78.933088 
L 372.298096 116.931366 
L 373.107525 199.800376 
L 373.512239 221.476576 
L 373.714597 225.731903 
L 374.119311 225.052649 
L 374.321668 212.626293 
L 375.333454 111.377464 
L 375.738169 98.451656 
L 375.940526 95.814552 
L 376.142883 94.735736 
L 376.34524 99.790187 
L 376.749955 125.382087 
L 377.559383 182.839 
L 377.964098 216.641884 
L 378.368812 230.107099 
L 378.57117 230.326858 
L 378.773527 224.53322 
L 378.975884 213.58524 
L 380.392384 99.770209 
L 380.797099 90.080847 
L 381.201813 82.668986 
L 381.40417 86.344949 
L 382.011242 122.485268 
L 382.820671 203.37645 
L 383.225385 219.099186 
L 383.427743 219.738484 
L 383.6301 214.524209 
L 384.034814 192.808054 
L 385.0466 121.106781 
L 385.451315 104.804681 
L 385.653672 104.345185 
L 385.856029 108.041127 
L 386.058386 115.492945 
L 387.070172 183.837903 
L 387.474887 223.014887 
L 387.879601 244.391415 
L 388.284316 253.32161 
L 388.68903 255.778912 
L 388.891387 250.165076 
L 389.700816 207.631777 
L 390.307888 196.683798 
L 390.914959 184.237464 
L 391.117316 188.912331 
L 391.926745 227.569885 
L 392.533817 270.742482 
L 392.938531 282.829211 
L 393.140888 284.647215 
L 393.343246 284.207697 
L 393.545603 284.667193 
L 393.74796 275.916801 
L 394.355032 235.700957 
L 395.569175 180.521544 
L 395.771532 174.647993 
L 395.973889 175.826699 
L 396.176247 183.957771 
L 396.783318 225.032671 
L 397.188033 262.671344 
L 397.592747 280.092216 
L 397.795104 282.809233 
L 397.997461 280.331953 
L 398.402176 262.61141 
L 400.628105 137.908333 
L 400.830462 140.685284 
L 401.03282 150.414601 
L 401.639891 206.1534 
L 402.044606 249.485822 
L 402.44932 269.344018 
L 402.651677 273.259718 
L 402.854034 271.641495 
L 403.258749 253.861018 
L 403.663463 226.091509 
L 404.877607 122.465289 
L 405.282321 102.407313 
L 405.484678 98.291832 
L 405.687035 99.350669 
L 405.889393 109.619394 
L 406.294107 146.139296 
L 406.901179 221.796225 
L 407.305893 245.310406 
L 407.50825 250.784396 
L 407.710607 250.264966 
L 408.115322 229.507758 
L 409.73418 100.229704 
L 409.936537 95.414991 
L 410.138894 95.275144 
L 410.341251 99.770209 
L 410.948323 135.05147 
L 411.15068 150.594404 
L 411.757752 219.57866 
L 412.162466 243.092841 
L 412.364823 249.425888 
L 412.56718 251.163979 
L 412.971895 233.523348 
L 414.388395 137.668596 
L 414.79311 124.443118 
L 415.197824 117.930269 
L 415.400181 124.543008 
L 416.20961 185.655907 
L 416.614325 229.847385 
L 417.019039 252.382641 
L 417.221396 256.538078 
L 417.423753 255.998671 
L 417.828468 240.216 
L 419.244968 144.740831 
L 419.649683 131.455418 
L 419.85204 127.71952 
L 420.054397 129.117985 
L 420.256754 137.568706 
L 421.066183 201.278753 
L 421.673255 255.019746 
L 422.077969 270.702526 
L 422.280326 273.119872 
L 422.482684 272.480574 
L 422.685041 272.320749 
L 423.089755 242.333675 
L 423.899184 175.007598 
L 424.708613 136.689671 
L 424.91097 133.593071 
L 425.113327 137.488794 
L 425.518042 162.940848 
L 425.720399 174.428234 
L 426.529828 247.088454 
L 426.934542 265.168602 
L 427.136899 269.52382 
L 427.339257 270.302965 
L 427.541614 270.522723 
L 427.743971 262.151914 
L 428.148685 222.87504 
L 428.755757 162.641177 
L 429.160471 137.688574 
L 429.565186 129.657393 
L 429.9699 133.473203 
L 430.374615 149.255874 
L 430.576972 160.583436 
L 431.386401 234.522252 
L 431.791115 246.429178 
L 431.993472 244.45135 
L 432.398187 224.693044 
L 433.207616 161.362581 
L 434.017044 92.897754 
L 434.219402 88.142975 
L 435.02883 114.813691 
L 435.433545 139.126995 
L 436.040617 208.390944 
L 436.445331 230.30688 
L 436.647688 235.301396 
L 436.850045 234.64212 
L 437.25476 214.604122 
L 437.659474 180.641412 
L 438.468903 109.179877 
L 438.67126 99.710274 
L 438.873617 100.649243 
L 439.075975 107.561654 
L 439.278332 107.122136 
L 439.480689 109.299745 
L 439.885403 127.339937 
L 440.290118 151.413505 
L 440.897189 222.815106 
L 441.301904 244.511284 
L 441.504261 249.785493 
L 441.706618 250.304922 
L 442.111333 235.98065 
L 442.920762 185.396192 
L 443.527833 151.493417 
L 444.134905 129.3777 
L 444.337262 126.860464 
L 444.539619 133.09362 
L 445.146691 176.905514 
L 445.753762 244.171657 
L 446.158477 264.789019 
L 446.360834 269.603732 
L 446.563191 267.66586 
L 446.967906 249.286041 
L 448.586763 142.543244 
L 448.991478 129.717327 
L 449.193835 127.459806 
L 449.396192 133.932698 
L 450.003264 173.189595 
L 450.812693 251.004155 
L 451.217407 263.929962 
L 451.419764 264.049831 
L 451.824479 247.348169 
L 452.43155 198.341977 
L 453.038622 157.606704 
L 453.443336 141.044889 
L 453.848051 133.393291 
L 454.050408 136.669693 
L 454.252765 146.379032 
L 454.65748 173.988717 
L 454.859837 182.199701 
L 455.669266 245.110626 
L 456.07398 258.27617 
L 456.276337 259.754547 
L 456.478694 257.816675 
L 456.681052 254.799987 
L 456.883409 247.02852 
L 457.288123 220.777343 
L 457.692838 210.129035 
L 457.895195 210.808289 
L 458.299909 216.402147 
L 458.502267 216.262301 
L 458.906981 212.546381 
L 459.109338 213.065811 
L 459.514053 217.10138 
L 459.71641 221.276795 
L 460.728196 277.355221 
L 461.13291 281.650505 
L 461.537625 278.434037 
L 461.739982 269.763557 
L 462.144696 236.240365 
L 463.561197 169.034157 
L 463.763554 161.9819 
L 463.965911 163.12065 
L 464.572983 182.039877 
L 465.382412 247.108432 
L 465.584769 253.821062 
L 465.787126 256.458166 
L 465.989483 254.100755 
L 467.608341 164.199466 
L 468.620127 143.622059 
L 468.822484 146.658725 
L 469.429556 172.150735 
L 470.036627 227.250236 
L 470.441342 244.531262 
L 470.643699 247.088454 
L 470.846056 244.591196 
L 471.857842 195.125509 
L 472.869628 165.737777 
L 473.071985 166.21725 
L 473.274343 164.479159 
L 473.4767 165.69782 
L 473.679057 169.373784 
L 473.881414 175.766765 
L 474.083772 176.885536 
L 474.286129 184.337354 
L 474.8932 234.961769 
L 475.297915 250.74444 
L 475.500272 252.362663 
L 475.702629 250.384835 
L 476.107344 226.710829 
L 476.512058 205.3343 
L 477.321487 174.747884 
L 477.726201 155.169381 
L 477.928558 151.713175 
L 478.333273 156.268174 
L 478.53563 160.603414 
L 479.142702 184.816828 
L 479.952131 250.644549 
L 480.356845 260.214042 
L 480.559202 259.814481 
L 480.963917 238.35804 
L 482.785131 113.654963 
L 482.987489 107.921259 
L 483.189846 105.364067 
L 483.392203 110.838056 
L 483.999275 149.555545 
L 484.606346 218.619713 
L 485.011061 241.174947 
L 485.213418 245.450253 
L 485.415775 246.369244 
L 485.82049 227.170324 
L 486.225204 196.863601 
L 487.23699 109.479548 
L 487.439347 106.482838 
L 487.844062 112.855841 
L 488.248776 130.935989 
L 489.260562 206.233313 
L 489.665277 237.459027 
L 490.069991 252.122926 
L 490.272348 254.400426 
L 490.474705 253.301632 
L 490.677063 251.583519 
L 490.87942 242.133894 
L 491.891206 164.718895 
L 492.29592 147.517782 
L 492.498277 140.345657 
L 492.700635 138.387807 
L 492.902992 139.966074 
L 493.105349 144.640941 
L 493.712421 177.185207 
L 494.52185 247.088454 
L 495.128921 264.828975 
L 495.331278 264.968822 
L 495.533636 264.36948 
L 495.735993 257.03753 
L 496.950136 168.195078 
L 497.557208 144.54105 
L 497.759565 141.284626 
L 497.961922 144.401204 
L 498.568994 174.98762 
L 499.378422 246.648937 
L 499.58078 253.281654 
L 499.783137 255.699 
L 499.985494 252.482531 
L 500.187851 244.211613 
L 500.794923 208.370966 
L 500.99728 203.416406 
L 501.401995 190.710357 
L 501.806709 179.782356 
L 502.009066 179.342838 
L 502.211423 181.340645 
L 502.413781 181.959965 
L 502.616138 180.341742 
L 503.020852 189.771388 
L 503.223209 190.310796 
L 503.425567 197.602789 
L 504.032638 246.808761 
L 504.437353 259.494832 
L 504.63971 261.073099 
L 504.842067 258.775622 
L 505.246782 235.121594 
L 505.651496 212.006973 
L 507.270354 141.004933 
L 507.472711 137.988245 
L 507.675068 141.284626 
L 508.28214 168.494749 
L 508.889211 224.812912 
L 509.293926 241.434662 
L 509.496283 244.850911 
L 509.69864 243.072863 
L 510.103354 220.217958 
L 511.722212 116.971322 
L 512.126927 99.730252 
L 512.329284 101.268563 
L 512.936355 134.631931 
L 513.34107 172.430428 
L 513.745784 214.6241 
L 514.150499 236.679883 
L 514.352856 242.093938 
L 514.555213 242.573412 
L 514.75757 233.942888 
L 516.174071 140.026008 
L 516.376428 138.967171 
L 516.781142 148.017234 
L 516.9835 145.360151 
L 517.185857 145.879581 
L 517.590571 163.060716 
L 517.792928 167.176197 
L 517.995286 177.564791 
L 518.4 216.06252 
L 518.4 216.06252 
" clip-path="url(#p880c832e18)" style="fill: none; stroke: #1f77b4; stroke-width: 1.5; stroke-linecap: square"/>
   </g>
   <g id="line2d_14">
    <path d="M 72 281.53735 
L 72.202357 281.53735 
L 72.809429 289.52869 
L 73.011786 284.261087 
L 73.821215 241.889005 
L 74.225929 217.879088 
L 74.833001 175.49354 
L 75.237715 159.684711 
L 75.440073 158.014475 
L 75.64243 162.938134 
L 76.249501 204.356089 
L 76.856573 264.21792 
L 77.261287 277.965547 
L 77.463645 276.262756 
L 77.666002 269.802202 
L 79.487217 169.395253 
L 79.689574 156.663138 
L 79.891931 152.464802 
L 80.094288 154.59578 
L 80.296646 159.192155 
L 80.70136 177.240151 
L 80.903717 189.630163 
L 81.510789 250.071496 
L 81.915503 274.492241 
L 82.11786 281.574635 
L 82.320218 282.35525 
L 82.927289 264.801509 
L 83.332004 245.170958 
L 83.736718 226.121599 
L 83.939075 222.163163 
L 84.141432 221.350737 
L 84.546147 221.812445 
L 84.748504 224.658587 
L 85.153218 239.175375 
L 85.355576 241.446802 
L 85.76029 251.846538 
L 86.974433 307.8 
L 87.176791 306.649898 
L 87.986219 278.194007 
L 88.593291 252.27843 
L 88.795648 254.299704 
L 88.998005 254.62412 
L 89.200363 253.437832 
L 89.807434 242.368622 
L 90.009791 236.472293 
L 90.212149 235.430595 
L 90.616863 240.411926 
L 90.81922 249.335323 
L 91.628649 304.80363 
L 91.831006 305.56604 
L 92.033364 303.741952 
L 92.235721 296.573052 
L 92.842792 253.243048 
L 93.04515 247.950373 
L 93.247507 246.253958 
L 93.652221 237.038065 
L 93.854578 236.172293 
L 94.46165 227.363331 
L 94.664007 226.72459 
L 94.866364 227.788897 
L 95.068722 226.71809 
L 95.473436 236.144102 
L 96.485222 300.317085 
L 96.687579 299.182846 
L 96.889937 295.657947 
L 97.294651 273.661081 
L 97.699365 250.820376 
L 97.901723 246.501647 
L 98.10408 245.700857 
L 98.508794 237.804923 
L 98.711151 236.404159 
L 98.913509 232.888337 
L 99.318223 219.355403 
L 99.52058 219.231814 
L 99.722937 223.018086 
L 99.925295 224.210849 
L 100.127652 227.864868 
L 100.330009 236.671673 
L 101.139438 293.335593 
L 101.544152 301.289065 
L 101.74651 297.303372 
L 102.555938 251.116953 
L 102.758296 246.309005 
L 102.960653 246.792625 
L 103.365367 239.16667 
L 103.567724 236.70999 
L 103.770082 231.656489 
L 104.174796 214.757936 
L 104.377153 214.170239 
L 104.57951 217.749543 
L 104.781868 218.342745 
L 104.984225 223.213773 
L 105.388939 249.169231 
L 105.793654 280.192728 
L 106.198368 297.179865 
L 106.400725 298.87152 
L 106.603083 295.65297 
L 107.007797 272.631439 
L 107.412511 249.818491 
L 107.614869 242.893202 
L 107.817226 242.520732 
L 108.019583 239.37931 
L 108.424297 225.014341 
L 108.829012 198.065677 
L 109.031369 194.66343 
L 109.233726 196.548207 
L 109.638441 207.336116 
L 109.840798 212.119342 
L 111.054941 292.986909 
L 111.257298 294.949607 
L 111.459655 291.563026 
L 111.86437 273.44815 
L 112.269084 247.055221 
L 113.078513 210.984793 
L 113.685585 178.143851 
L 113.887942 172.123915 
L 114.090299 171.999923 
L 114.292656 173.996875 
L 114.495014 179.829681 
L 114.899728 206.288796 
L 115.5068 258.953873 
L 115.911514 279.733294 
L 116.113871 285.059009 
L 116.316228 285.179081 
L 116.9233 265.992452 
L 117.328015 243.299175 
L 118.542158 154.994347 
L 118.946872 143.9151 
L 119.149229 143.646435 
L 119.351587 150.078498 
L 119.756301 177.353204 
L 120.56573 257.072857 
L 120.970444 278.143275 
L 121.172801 282.211245 
L 121.577516 274.825638 
L 121.98223 255.532599 
L 122.589302 210.431891 
L 122.994016 199.571468 
L 123.601088 185.802547 
L 123.803445 187.976644 
L 124.005802 191.843184 
L 124.612874 216.358153 
L 125.219946 267.232672 
L 125.62466 294.574289 
L 125.827017 297.11208 
L 126.029374 296.536416 
L 126.231732 288.24542 
L 127.243518 215.272274 
L 127.648232 194.448359 
L 128.457661 147.82808 
L 128.660018 145.059947 
L 128.862375 149.693962 
L 129.26709 179.72665 
L 130.278876 277.477676 
L 130.481233 282.837235 
L 130.68359 284.037001 
L 130.885947 281.262253 
L 131.088305 273.82663 
L 132.707162 161.924451 
L 133.314234 132.44685 
L 133.516591 130.818016 
L 133.921306 144.350939 
L 134.32602 172.8419 
L 134.933092 246.811007 
L 135.337806 268.080902 
L 135.540163 272.506646 
L 135.74252 269.7937 
L 135.944878 262.541521 
L 136.349592 230.330401 
L 136.754306 198.527524 
L 136.956664 190.630797 
L 137.159021 193.139341 
L 137.361378 190.699953 
L 137.563735 190.192743 
L 137.96845 185.125211 
L 138.170807 186.045384 
L 138.575521 190.225814 
L 138.980236 201.637862 
L 139.38495 232.49258 
L 139.992022 278.298367 
L 140.194379 281.405494 
L 140.396736 282.451879 
L 140.599093 279.447116 
L 141.003808 254.78482 
L 141.610879 216.432094 
L 141.813237 210.876073 
L 142.622665 202.590571 
L 142.825023 197.08575 
L 143.229737 202.88356 
L 143.836809 211.91739 
L 144.039166 220.264463 
L 145.050952 281.878533 
L 145.253309 281.813576 
L 145.455666 277.982921 
L 145.860381 253.502122 
L 146.265095 227.891564 
L 146.467452 216.975922 
L 146.66981 212.51592 
L 147.074524 209.669009 
L 147.276881 206.546891 
L 147.681596 195.321523 
L 148.693382 224.253075 
L 148.895739 231.884899 
L 149.705168 277.018005 
L 149.907525 282.360153 
L 150.109882 284.655964 
L 150.312239 281.830046 
L 150.919311 259.965577 
L 151.931097 227.48443 
L 152.133454 227.396732 
L 152.538169 225.495757 
L 152.740526 225.379545 
L 153.14524 230.11016 
L 153.347597 234.723773 
L 153.549955 235.797117 
L 153.752312 239.276537 
L 153.954669 245.165991 
L 154.966455 287.667408 
L 155.168812 288.380165 
L 155.775884 268.844768 
L 156.180598 247.825875 
L 157.192384 178.191719 
L 157.597099 158.474631 
L 157.799456 154.073039 
L 158.001813 152.3347 
L 158.20417 157.530397 
L 158.608885 180.509062 
L 159.013599 224.459149 
L 159.418314 261.741123 
L 159.620671 272.859748 
L 159.823028 277.626487 
L 160.025385 276.366697 
L 160.227743 269.595332 
L 161.441886 186.479819 
L 161.8466 175.765688 
L 162.251315 166.175736 
L 162.453672 164.285911 
L 162.858386 174.345474 
L 163.465458 202.526984 
L 164.477244 284.270032 
L 164.679601 285.306598 
L 164.881958 281.390941 
L 165.286673 255.733758 
L 165.691387 227.101489 
L 166.096102 210.93699 
L 166.298459 210.68182 
L 166.500816 206.36543 
L 167.107888 173.3451 
L 167.310245 162.894304 
L 167.512602 163.464254 
L 167.714959 168.309711 
L 168.322031 203.081373 
L 169.13146 268.052987 
L 169.333817 275.303654 
L 169.536174 277.883045 
L 169.738531 275.908368 
L 170.143246 252.78812 
L 171.155032 180.193609 
L 171.762103 156.896287 
L 172.166818 147.921268 
L 172.369175 148.091939 
L 172.773889 163.39761 
L 172.976247 173.536558 
L 173.380961 212.886168 
L 173.785675 253.328429 
L 174.19039 277.84638 
L 174.392747 282.177322 
L 174.595104 280.454669 
L 174.797461 271.462161 
L 175.60689 217.004617 
L 176.213962 191.691585 
L 177.225748 160.414539 
L 177.630462 170.140071 
L 178.035177 196.188075 
L 178.844606 278.155266 
L 179.24932 289.021217 
L 179.451677 287.445598 
L 179.856392 265.094946 
L 180.463463 222.803195 
L 181.677607 153.088504 
L 181.879964 146.206644 
L 182.082321 145.476258 
L 182.284678 147.432384 
L 182.487035 154.580803 
L 182.689393 165.656967 
L 183.903536 263.465456 
L 184.105893 267.633811 
L 184.30825 268.368816 
L 184.915322 250.010507 
L 185.117679 237.904556 
L 185.927108 154.098952 
L 186.331822 137.035655 
L 186.53418 136.340053 
L 186.736537 136.695686 
L 187.141251 155.592434 
L 187.95068 203.267229 
L 188.557752 252.335462 
L 188.962466 266.622126 
L 189.164823 267.952578 
L 189.36718 263.259965 
L 189.771895 246.278745 
L 190.378966 200.36819 
L 190.986038 160.669553 
L 191.188395 152.308975 
L 191.390752 150.15552 
L 191.59311 150.998495 
L 191.997824 165.709095 
L 192.402539 187.34042 
L 192.604896 194.202172 
L 193.00961 222.64303 
L 193.616682 266.311073 
L 194.021396 274.340887 
L 194.223753 268.986067 
L 194.830825 238.396413 
L 195.437897 196.629352 
L 195.640254 187.373 
L 195.842611 183.9097 
L 196.044968 184.205706 
L 196.65204 199.643207 
L 196.854397 202.512034 
L 197.461469 219.189023 
L 197.866183 243.811979 
L 198.270898 274.824813 
L 198.675612 286.881829 
L 198.877969 285.398232 
L 199.080326 273.895058 
L 199.687398 219.115337 
L 200.092112 201.254185 
L 200.901541 174.325618 
L 201.306256 161.232515 
L 201.508613 159.733729 
L 201.71097 162.429335 
L 202.115684 179.360629 
L 202.520399 208.134264 
L 203.127471 261.036528 
L 203.329828 268.278098 
L 203.532185 268.172536 
L 203.734542 264.1446 
L 204.139257 238.701122 
L 204.543971 208.658555 
L 204.948685 192.451119 
L 205.3534 181.246075 
L 205.758114 166.500604 
L 205.960471 160.627304 
L 206.162829 159.470936 
L 206.365186 164.678646 
L 206.567543 174.288982 
L 206.972257 182.84696 
L 207.174615 192.494226 
L 207.984044 259.073429 
L 208.186401 266.058915 
L 208.388758 268.763335 
L 208.591115 266.50217 
L 208.793472 257.526775 
L 209.602901 199.303725 
L 209.805258 190.362909 
L 210.007616 188.790743 
L 210.209973 182.887002 
L 211.019402 137.22228 
L 211.221759 135.482344 
L 211.424116 142.064651 
L 212.031188 177.188083 
L 212.840617 249.227792 
L 213.245331 261.225519 
L 213.447688 259.075984 
L 213.852403 234.886934 
L 214.661831 180.872131 
L 215.47126 129.726063 
L 215.875975 110.043541 
L 216.078332 110.421693 
L 216.483046 125.398816 
L 216.887761 155.813042 
L 217.697189 235.698747 
L 218.101904 250.009009 
L 218.304261 252.027664 
L 218.708976 241.318256 
L 219.11369 219.512364 
L 220.125476 155.440594 
L 220.327833 145.438487 
L 220.53019 143.679454 
L 220.732548 147.755586 
L 221.946691 216.598627 
L 222.75612 271.084748 
L 222.958477 276.18866 
L 223.160834 277.138938 
L 223.363191 272.122037 
L 223.970263 243.417526 
L 224.577335 204.831617 
L 224.779692 203.78683 
L 224.982049 203.814971 
L 225.184406 205.381169 
L 226.196192 228.062742 
L 226.600907 238.85288 
L 226.803264 245.474316 
L 227.612693 296.220509 
L 227.81505 298.940404 
L 228.017407 297.550833 
L 228.219764 288.996312 
L 228.826836 245.958483 
L 229.029193 238.889115 
L 229.23155 237.022047 
L 229.433908 233.305653 
L 229.838622 218.253904 
L 230.445694 189.347949 
L 230.648051 184.131683 
L 230.850408 182.034916 
L 231.052765 183.829468 
L 231.255122 192.222552 
L 231.659837 222.136295 
L 232.266908 279.085488 
L 232.469266 286.382858 
L 232.671623 286.821666 
L 232.87398 284.426393 
L 233.076337 277.867492 
L 233.885766 229.72508 
L 234.290481 212.835135 
L 234.695195 190.639167 
L 235.099909 177.646218 
L 235.302267 174.555283 
L 235.504624 174.979186 
L 235.909338 182.770749 
L 236.111695 190.572369 
L 236.314053 203.654627 
L 237.123481 276.247633 
L 237.325839 284.504931 
L 237.528196 287.321655 
L 237.730553 285.224825 
L 238.135267 264.045811 
L 238.539982 236.32413 
L 238.944696 216.577961 
L 239.349411 200.209949 
L 239.754125 190.296061 
L 240.15884 184.666099 
L 240.361197 185.498503 
L 240.968268 200.924555 
L 241.980054 279.528604 
L 242.182412 287.235477 
L 242.384769 290.089109 
L 242.587126 288.562815 
L 242.789483 280.157543 
L 243.396555 239.590245 
L 243.801269 225.83163 
L 244.813055 181.301681 
L 245.21777 173.612247 
L 245.420127 174.514372 
L 245.824841 187.85058 
L 247.038985 280.144945 
L 247.241342 285.008459 
L 247.443699 284.397749 
L 247.646056 276.993992 
L 248.657842 208.575258 
L 249.467271 147.770381 
L 249.871985 135.35939 
L 250.074343 137.530068 
L 250.479057 154.771378 
L 250.681414 165.347388 
L 251.895558 262.984583 
L 252.097915 268.178386 
L 252.300272 268.388393 
L 252.704986 257.673013 
L 253.109701 235.017109 
L 254.323844 140.475723 
L 254.526201 137.157243 
L 254.728558 136.864123 
L 254.930916 138.354898 
L 255.133273 143.890298 
L 255.537987 165.185763 
L 255.942702 198.51769 
L 256.549773 251.463382 
L 256.954488 272.733171 
L 257.156845 275.383485 
L 257.359202 271.555361 
L 257.966274 240.470472 
L 258.775703 181.191298 
L 259.180417 166.706089 
L 259.382774 162.380878 
L 259.787489 159.357561 
L 260.192203 170.610962 
L 260.596917 187.017876 
L 261.608704 274.725241 
L 261.811061 279.894425 
L 262.013418 280.205387 
L 262.215775 273.328977 
L 263.025204 213.623754 
L 263.227561 208.790818 
L 263.429918 208.613042 
L 264.03699 216.453239 
L 264.239347 216.825973 
L 264.441704 216.833869 
L 265.048776 223.923512 
L 265.251133 229.918659 
L 266.465277 293.343591 
L 266.667634 290.885946 
L 266.869991 286.48362 
L 267.274705 266.847577 
L 267.67942 245.167144 
L 268.286491 226.253033 
L 268.691206 217.752062 
L 269.09592 204.235951 
L 269.298277 203.009994 
L 269.500635 204.038359 
L 269.702992 206.879485 
L 270.107706 217.461211 
L 270.310063 224.119357 
L 270.714778 250.265327 
L 271.119492 274.441005 
L 271.32185 280.608469 
L 271.524207 283.098769 
L 271.726564 280.687991 
L 271.928921 272.465478 
L 272.73835 225.617611 
L 274.15485 143.692277 
L 274.357208 140.874454 
L 274.559565 140.642892 
L 274.761922 142.554051 
L 275.166636 166.716369 
L 276.178422 253.798304 
L 276.38078 257.003027 
L 276.583137 255.410822 
L 276.987851 233.754455 
L 277.999637 166.604909 
L 278.809066 136.172435 
L 279.011423 132.465978 
L 279.213781 130.895972 
L 279.820852 155.036444 
L 280.225567 192.331151 
L 280.832638 253.216289 
L 281.237353 269.400776 
L 281.43971 268.430836 
L 281.844424 251.022278 
L 282.653853 198.296449 
L 283.058568 177.569334 
L 283.665639 155.353881 
L 284.070354 148.405304 
L 284.475068 160.336016 
L 284.879782 188.489075 
L 285.486854 253.111887 
L 285.891568 277.839759 
L 286.093926 281.632977 
L 286.296283 281.189916 
L 286.49864 277.614126 
L 286.903354 262.920323 
L 287.308069 236.495896 
L 288.117498 173.402032 
L 288.724569 153.273284 
L 288.926927 148.748599 
L 289.129284 151.627731 
L 289.533998 169.420289 
L 289.938713 202.693816 
L 290.545784 258.731736 
L 290.950499 273.645431 
L 291.152856 276.053332 
L 291.355213 272.758926 
L 291.759927 257.257024 
L 292.164642 221.805267 
L 292.771714 162.458352 
L 293.176428 137.957144 
L 293.378785 131.644795 
L 293.7835 128.200661 
L 293.985857 133.285863 
L 294.795286 177.001747 
L 295.402357 240.29637 
L 295.807072 258.096619 
L 296.009429 259.594695 
L 296.211786 253.598065 
L 297.223572 157.965508 
L 297.628286 119.196513 
L 298.033001 89.538974 
L 298.235358 82.069841 
L 298.437715 80.083682 
L 298.640073 82.500535 
L 299.247144 113.429096 
L 299.651859 145.403557 
L 300.25893 217.272679 
L 300.461287 230.332228 
L 300.663645 232.261628 
L 300.866002 228.301814 
L 301.270716 207.549955 
L 302.080145 135.479637 
L 302.484859 91.326766 
L 302.889574 66.252978 
L 303.091931 68.224706 
L 303.699003 104.344468 
L 304.508432 161.835675 
L 305.31786 236.187055 
L 305.520218 240.579592 
L 305.722575 238.798163 
L 305.924932 230.907442 
L 306.936718 161.720171 
L 307.54379 126.610495 
L 307.948504 114.380297 
L 308.150861 114.389679 
L 308.353218 122.282514 
L 309.567362 208.835765 
L 309.972076 244.059179 
L 310.174433 255.314424 
L 310.376791 258.015204 
L 310.579148 254.714984 
L 310.781505 247.228896 
L 311.186219 218.127726 
L 311.995648 147.744226 
L 312.400363 121.184547 
L 312.60272 116.118109 
L 312.805077 114.791747 
L 313.007434 116.811908 
L 313.209791 121.427718 
L 313.614506 140.362977 
L 314.221578 182.202668 
L 314.626292 222.656564 
L 315.031006 245.351539 
L 315.233364 247.641393 
L 315.435721 246.410158 
L 315.638078 237.273395 
L 316.24515 195.569123 
L 316.447507 188.803025 
L 317.054578 182.10228 
L 317.459293 172.164388 
L 317.66165 172.111095 
L 318.066364 176.21124 
L 318.268722 179.237192 
L 318.471079 184.332547 
L 318.875793 202.29471 
L 319.887579 266.362333 
L 320.089937 268.378981 
L 320.292294 268.057296 
L 320.494651 263.847468 
L 321.30408 228.079906 
L 322.315866 160.201568 
L 322.518223 153.428079 
L 322.72058 150.81309 
L 322.922937 151.402614 
L 323.125295 153.399982 
L 323.530009 166.644166 
L 323.934723 196.963221 
L 324.541795 246.152404 
L 324.94651 262.484441 
L 325.148867 265.676575 
L 325.351224 262.046338 
L 325.755938 247.812764 
L 326.160653 217.330611 
L 326.565367 181.115575 
L 326.970082 146.153223 
L 327.172439 131.566687 
L 327.374796 126.531344 
L 327.577153 126.109444 
L 327.77951 128.619569 
L 327.981868 133.871594 
L 328.386582 152.533619 
L 328.791296 185.527092 
L 329.398368 244.342135 
L 329.600725 257.910971 
L 329.803083 263.549821 
L 330.00544 264.334611 
L 330.207797 258.988834 
L 330.612511 223.498139 
L 331.219583 172.786707 
L 331.826655 142.55433 
L 332.029012 136.40725 
L 332.231369 134.126799 
L 332.636083 141.682232 
L 333.647869 198.08128 
L 334.254941 258.524254 
L 334.457298 268.065391 
L 334.659655 270.027264 
L 334.862013 269.356701 
L 335.06437 261.896422 
L 335.873799 206.226148 
L 336.683228 179.222382 
L 336.885585 174.826478 
L 337.087942 174.770384 
L 337.290299 172.365329 
L 337.492656 172.823682 
L 338.099728 192.313983 
L 338.504442 217.880562 
L 339.111514 265.153076 
L 339.313871 274.3676 
L 339.516228 276.014203 
L 339.718586 273.511808 
L 340.1233 250.192302 
L 340.730372 210.080273 
L 341.742158 164.990421 
L 342.146872 150.756313 
L 342.349229 148.260546 
L 342.551587 149.71474 
L 342.753944 152.577676 
L 342.956301 160.154713 
L 343.361015 188.439835 
L 343.968087 241.812402 
L 344.170444 250.356345 
L 344.372801 251.726118 
L 344.575159 249.319463 
L 344.979873 228.892152 
L 345.586945 183.698192 
L 346.396374 120.575907 
L 346.598731 108.984964 
L 346.801088 107.18938 
L 347.003445 106.549991 
L 347.205802 108.925505 
L 347.812874 132.552393 
L 348.217588 166.259038 
L 348.82466 226.365498 
L 349.027017 240.22802 
L 349.229374 244.317946 
L 349.431732 245.282667 
L 349.634089 238.319325 
L 350.038803 211.39689 
L 351.252947 120.29178 
L 351.455304 109.397276 
L 351.657661 104.65134 
L 351.860018 103.519528 
L 352.062375 104.186153 
L 352.46709 119.180977 
L 352.871804 149.929802 
L 353.88359 248.177851 
L 354.085947 252.178181 
L 354.288305 252.148467 
L 354.490662 248.264625 
L 354.895376 232.131926 
L 355.300091 200.885431 
L 356.109519 116.522046 
L 356.311877 107.495888 
L 356.514234 104.923257 
L 356.918948 104.128733 
L 357.121306 109.839075 
L 357.52602 131.016578 
L 357.930734 163.166825 
L 358.537806 230.284842 
L 358.740163 244.559299 
L 358.94252 250.577973 
L 359.144878 250.509378 
L 359.347235 246.751232 
L 359.751949 231.481125 
L 360.156664 196.271486 
L 360.966092 105.339034 
L 361.16845 95.621443 
L 361.370807 92.538391 
L 361.573164 92.217974 
L 361.775521 90.832281 
L 361.977879 95.96702 
L 362.58495 130.325206 
L 362.989665 169.202029 
L 363.394379 216.105605 
L 363.799093 240.08031 
L 364.001451 237.234174 
L 364.203808 227.035529 
L 365.013237 156.564553 
L 365.822665 67.423336 
L 366.025023 57.916753 
L 366.22738 55.8 
L 366.429737 57.159914 
L 366.632094 59.297543 
L 367.239166 92.002397 
L 367.64388 126.59624 
L 368.250952 195.86931 
L 368.453309 211.668259 
L 368.655666 217.260812 
L 368.858024 215.952694 
L 369.060381 208.065324 
L 369.86981 151.623556 
L 370.679238 72.604852 
L 370.881596 63.474964 
L 371.083953 61.410121 
L 371.488667 70.703202 
L 372.095739 108.800336 
L 372.702811 163.160056 
L 373.309882 217.16453 
L 373.512239 222.91195 
L 373.714597 221.9247 
L 374.321668 202.239693 
L 374.524025 193.108075 
L 374.92874 155.365696 
L 375.333454 111.324213 
L 375.738169 92.45467 
L 375.940526 91.415548 
L 376.34524 96.607708 
L 376.749955 120.446526 
L 377.559383 182.492557 
L 378.166455 231.27966 
L 378.368812 237.16188 
L 378.57117 236.129416 
L 378.773527 227.972137 
L 379.380598 185.429198 
L 380.190027 108.841396 
L 380.594742 93.6824 
L 380.999456 89.457171 
L 381.201813 88.10892 
L 381.40417 92.802577 
L 381.808885 116.211206 
L 382.415956 167.120039 
L 382.820671 207.89685 
L 383.023028 219.017919 
L 383.225385 222.761731 
L 383.427743 220.381914 
L 383.832457 198.965866 
L 384.237171 176.855769 
L 384.237171 176.855769 
" clip-path="url(#p880c832e18)" style="fill: none; stroke: #ff7f0e; stroke-width: 1.5; stroke-linecap: square"/>
   </g>
   <g id="line2d_15">
    <path d="M 384.439529 166.478126 
L 385.0466 133.0115 
L 385.451315 121.649297 
L 385.653672 120.204806 
L 385.856029 121.033672 
L 386.058386 124.828584 
L 386.260743 131.939426 
L 387.070172 180.478774 
L 387.677244 225.421442 
L 387.879601 236.42335 
L 388.081958 240.240442 
L 388.284316 238.259423 
L 388.68903 222.455903 
L 389.296102 190.712615 
L 389.903173 157.481124 
L 390.307888 145.512456 
L 390.510245 143.651672 
L 390.712602 142.950864 
L 390.914959 143.448056 
L 391.117316 147.864321 
L 391.724388 176.392051 
L 392.736174 239.687444 
L 392.938531 243.21262 
L 393.140888 243.153279 
L 393.343246 238.30494 
L 394.962103 169.154625 
L 395.164461 165.181354 
L 395.366818 164.507745 
L 395.569175 165.271332 
L 395.771532 167.595986 
L 396.176247 178.200315 
L 396.580961 192.793051 
L 397.592747 246.284088 
L 397.795104 250.158169 
L 397.997461 249.899597 
L 398.199819 245.393344 
L 398.80689 216.50201 
L 399.413962 191.634102 
L 400.021034 178.846381 
L 400.223391 177.325556 
L 400.425748 177.053132 
L 400.628105 179.285607 
L 401.235177 194.959052 
L 401.639891 212.703244 
L 402.246963 241.483744 
L 402.651677 251.193385 
L 402.854034 250.802155 
L 403.056392 246.49958 
L 403.461106 228.895897 
L 404.068178 202.194194 
L 404.472892 193.360623 
L 404.877607 187.542989 
L 405.079964 186.861367 
L 405.282321 186.71318 
L 405.484678 188.720121 
L 406.09175 201.376215 
L 406.496464 217.853717 
L 407.103536 242.654376 
L 407.50825 250.635314 
L 407.710607 249.810854 
L 407.912965 245.054689 
L 408.520036 218.670104 
L 408.924751 203.221705 
L 409.329465 196.202216 
L 409.936537 191.371936 
L 410.138894 191.481858 
L 410.341251 193.344683 
L 410.948323 204.68668 
L 411.353037 220.095965 
L 411.960109 242.248363 
L 412.162466 246.496422 
L 412.364823 248.255595 
L 412.56718 246.954417 
L 412.971895 234.013091 
L 413.578966 209.512858 
L 413.983681 199.602851 
L 414.590752 195.049652 
L 414.79311 194.513263 
L 414.995467 195.142941 
L 415.400181 200.861398 
L 415.804896 207.820574 
L 417.019039 244.54093 
L 417.221396 245.341046 
L 417.423753 243.031427 
L 417.828468 229.260931 
L 418.435539 208.021775 
L 418.840254 200.150795 
L 419.447325 197.390537 
L 419.649683 197.060001 
L 419.85204 198.375621 
L 420.459112 206.874518 
L 420.661469 210.613919 
L 421.673255 239.214374 
L 421.875612 241.286351 
L 422.077969 241.015559 
L 422.280326 237.473364 
L 423.292112 205.903557 
L 423.49447 202.19021 
L 423.696827 200.788837 
L 424.101541 200.30494 
L 424.303898 199.644934 
L 424.506256 200.04043 
L 424.91097 204.613979 
L 425.518042 213.286428 
L 426.327471 233.6616 
L 426.529828 235.959286 
L 426.732185 236.641055 
L 426.934542 234.707209 
L 427.339257 223.528408 
L 427.743971 211.649201 
L 428.148685 204.143558 
L 428.351043 202.235067 
L 428.5534 202.087729 
L 428.755757 202.43309 
L 428.958114 202.487473 
L 429.160471 202.397149 
L 429.565186 205.544333 
L 430.374615 215.484063 
L 430.981686 228.186651 
L 431.184044 230.25527 
L 431.386401 231.110704 
L 431.588758 229.930056 
L 431.993472 221.690777 
L 432.600544 208.231739 
L 433.005258 204.382971 
L 433.207616 204.001105 
L 433.61233 205.310305 
L 433.814687 205.465592 
L 434.017044 206.03031 
L 434.421759 208.43069 
L 435.02883 213.580956 
L 435.838259 224.944021 
L 436.040617 225.518677 
L 436.242974 224.746176 
L 436.647688 218.818183 
L 437.25476 208.546048 
L 437.659474 206.433205 
L 437.861831 206.117714 
L 439.075975 209.0281 
L 439.683046 212.126507 
L 440.087761 215.939691 
L 440.492475 220.065706 
L 440.694832 220.616289 
L 440.897189 220.030657 
L 441.301904 215.569814 
L 441.908976 208.739836 
L 442.111333 208.031734 
L 442.516047 207.737754 
L 443.123119 208.75419 
L 443.73019 209.029113 
L 443.932548 209.463398 
L 444.539619 211.639995 
L 445.146691 215.724077 
L 445.349048 216.188842 
L 445.551405 215.70771 
L 446.563191 208.814825 
L 446.765549 208.420713 
L 446.967906 208.39472 
L 447.777335 208.79038 
L 448.182049 208.634526 
L 448.586763 208.992726 
L 449.193835 210.172066 
L 449.800907 212.334335 
L 450.003264 212.502631 
L 450.205621 212.180036 
L 451.01505 209.247002 
L 451.419764 208.595321 
L 451.824479 208.587288 
L 452.43155 208.600259 
L 452.836265 208.448106 
L 453.240979 208.654207 
L 453.645694 209.098048 
L 454.455122 210.25109 
L 454.65748 210.271339 
L 455.062194 209.889288 
L 455.871623 208.742179 
L 456.276337 208.489611 
L 457.895195 208.427337 
L 459.311695 209.24168 
L 459.71641 209.132734 
L 461.13291 208.391267 
L 462.144696 208.316686 
L 462.751768 208.423362 
L 463.763554 208.769994 
L 464.370626 208.730227 
L 466.394198 208.334133 
L 467.608341 208.436364 
L 468.822484 208.567683 
L 472.464914 208.429997 
L 473.881414 208.471183 
L 477.11913 208.414573 
L 479.547416 208.410597 
L 482.987489 208.423446 
L 512.531641 208.407487 
L 518.4 208.407412 
L 518.4 208.407412 
" clip-path="url(#p880c832e18)" style="fill: none; stroke: #2ca02c; stroke-width: 1.5; stroke-linecap: square"/>
   </g>
   <g id="patch_3">
    <path d="M 72 320.4 
L 72 43.2 
" style="fill: none; stroke: #000000; stroke-width: 0.8; stroke-linejoin: miter; stroke-linecap: square"/>
   </g>
   <g id="patch_4">
    <path d="M 518.4 320.4 
L 518.4 43.2 
" style="fill: none; stroke: #000000; stroke-width: 0.8; stroke-linejoin: miter; stroke-linecap: square"/>
   </g>
   <g id="patch_5">
    <path d="M 72 320.4 
L 518.4 320.4 
" style="fill: none; stroke: #000000; stroke-width: 0.8; stroke-linejoin: miter; stroke-linecap: square"/>
   </g>
   <g id="patch_6">
    <path d="M 72 43.2 
L 518.4 43.2 
" style="fill: none; stroke: #000000; stroke-width: 0.8; stroke-linejoin: miter; stroke-linecap: square"/>
   </g>
   <g id="text_13">
    <!-- Classic Transformer - model_20231123163423 -->
    <g transform="translate(155.436563 37.2) scale(0.12 -0.12)">
     <defs>
      <path id="DejaVuSans-43" d="M 4122 4306 
L 4122 3641 
Q 3803 3938 3442 4084 
Q 3081 4231 2675 4231 
Q 1875 4231 1450 3742 
Q 1025 3253 1025 2328 
Q 1025 1406 1450 917 
Q 1875 428 2675 428 
Q 3081 428 3442 575 
Q 3803 722 4122 1019 
L 4122 359 
Q 3791 134 3420 21 
Q 3050 -91 2638 -91 
Q 1578 -91 968 557 
Q 359 1206 359 2328 
Q 359 3453 968 4101 
Q 1578 4750 2638 4750 
Q 3056 4750 3426 4639 
Q 3797 4528 4122 4306 
z
" transform="scale(0.015625)"/>
      <path id="DejaVuSans-6c" d="M 603 4863 
L 1178 4863 
L 1178 0 
L 603 0 
L 603 4863 
z
" transform="scale(0.015625)"/>
      <path id="DejaVuSans-61" d="M 2194 1759 
Q 1497 1759 1228 1600 
Q 959 1441 959 1056 
Q 959 750 1161 570 
Q 1363 391 1709 391 
Q 2188 391 2477 730 
Q 2766 1069 2766 1631 
L 2766 1759 
L 2194 1759 
z
M 3341 1997 
L 3341 0 
L 2766 0 
L 2766 531 
Q 2569 213 2275 61 
Q 1981 -91 1556 -91 
Q 1019 -91 701 211 
Q 384 513 384 1019 
Q 384 1609 779 1909 
Q 1175 2209 1959 2209 
L 2766 2209 
L 2766 2266 
Q 2766 2663 2505 2880 
Q 2244 3097 1772 3097 
Q 1472 3097 1187 3025 
Q 903 2953 641 2809 
L 641 3341 
Q 956 3463 1253 3523 
Q 1550 3584 1831 3584 
Q 2591 3584 2966 3190 
Q 3341 2797 3341 1997 
z
" transform="scale(0.015625)"/>
      <path id="DejaVuSans-73" d="M 2834 3397 
L 2834 2853 
Q 2591 2978 2328 3040 
Q 2066 3103 1784 3103 
Q 1356 3103 1142 2972 
Q 928 2841 928 2578 
Q 928 2378 1081 2264 
Q 1234 2150 1697 2047 
L 1894 2003 
Q 2506 1872 2764 1633 
Q 3022 1394 3022 966 
Q 3022 478 2636 193 
Q 2250 -91 1575 -91 
Q 1294 -91 989 -36 
Q 684 19 347 128 
L 347 722 
Q 666 556 975 473 
Q 1284 391 1588 391 
Q 1994 391 2212 530 
Q 2431 669 2431 922 
Q 2431 1156 2273 1281 
Q 2116 1406 1581 1522 
L 1381 1569 
Q 847 1681 609 1914 
Q 372 2147 372 2553 
Q 372 3047 722 3315 
Q 1072 3584 1716 3584 
Q 2034 3584 2315 3537 
Q 2597 3491 2834 3397 
z
" transform="scale(0.015625)"/>
      <path id="DejaVuSans-69" d="M 603 3500 
L 1178 3500 
L 1178 0 
L 603 0 
L 603 3500 
z
M 603 4863 
L 1178 4863 
L 1178 4134 
L 603 4134 
L 603 4863 
z
" transform="scale(0.015625)"/>
      <path id="DejaVuSans-63" d="M 3122 3366 
L 3122 2828 
Q 2878 2963 2633 3030 
Q 2388 3097 2138 3097 
Q 1578 3097 1268 2742 
Q 959 2388 959 1747 
Q 959 1106 1268 751 
Q 1578 397 2138 397 
Q 2388 397 2633 464 
Q 2878 531 3122 666 
L 3122 134 
Q 2881 22 2623 -34 
Q 2366 -91 2075 -91 
Q 1284 -91 818 406 
Q 353 903 353 1747 
Q 353 2603 823 3093 
Q 1294 3584 2113 3584 
Q 2378 3584 2631 3529 
Q 2884 3475 3122 3366 
z
" transform="scale(0.015625)"/>
      <path id="DejaVuSans-20" transform="scale(0.015625)"/>
      <path id="DejaVuSans-54" d="M -19 4666 
L 3928 4666 
L 3928 4134 
L 2272 4134 
L 2272 0 
L 1638 0 
L 1638 4134 
L -19 4134 
L -19 4666 
z
" transform="scale(0.015625)"/>
      <path id="DejaVuSans-72" d="M 2631 2963 
Q 2534 3019 2420 3045 
Q 2306 3072 2169 3072 
Q 1681 3072 1420 2755 
Q 1159 2438 1159 1844 
L 1159 0 
L 581 0 
L 581 3500 
L 1159 3500 
L 1159 2956 
Q 1341 3275 1631 3429 
Q 1922 3584 2338 3584 
Q 2397 3584 2469 3576 
Q 2541 3569 2628 3553 
L 2631 2963 
z
" transform="scale(0.015625)"/>
      <path id="DejaVuSans-6e" d="M 3513 2113 
L 3513 0 
L 2938 0 
L 2938 2094 
Q 2938 2591 2744 2837 
Q 2550 3084 2163 3084 
Q 1697 3084 1428 2787 
Q 1159 2491 1159 1978 
L 1159 0 
L 581 0 
L 581 3500 
L 1159 3500 
L 1159 2956 
Q 1366 3272 1645 3428 
Q 1925 3584 2291 3584 
Q 2894 3584 3203 3211 
Q 3513 2838 3513 2113 
z
" transform="scale(0.015625)"/>
      <path id="DejaVuSans-66" d="M 2375 4863 
L 2375 4384 
L 1825 4384 
Q 1516 4384 1395 4259 
Q 1275 4134 1275 3809 
L 1275 3500 
L 2222 3500 
L 2222 3053 
L 1275 3053 
L 1275 0 
L 697 0 
L 697 3053 
L 147 3053 
L 147 3500 
L 697 3500 
L 697 3744 
Q 697 4328 969 4595 
Q 1241 4863 1831 4863 
L 2375 4863 
z
" transform="scale(0.015625)"/>
      <path id="DejaVuSans-6f" d="M 1959 3097 
Q 1497 3097 1228 2736 
Q 959 2375 959 1747 
Q 959 1119 1226 758 
Q 1494 397 1959 397 
Q 2419 397 2687 759 
Q 2956 1122 2956 1747 
Q 2956 2369 2687 2733 
Q 2419 3097 1959 3097 
z
M 1959 3584 
Q 2709 3584 3137 3096 
Q 3566 2609 3566 1747 
Q 3566 888 3137 398 
Q 2709 -91 1959 -91 
Q 1206 -91 779 398 
Q 353 888 353 1747 
Q 353 2609 779 3096 
Q 1206 3584 1959 3584 
z
" transform="scale(0.015625)"/>
      <path id="DejaVuSans-6d" d="M 3328 2828 
Q 3544 3216 3844 3400 
Q 4144 3584 4550 3584 
Q 5097 3584 5394 3201 
Q 5691 2819 5691 2113 
L 5691 0 
L 5113 0 
L 5113 2094 
Q 5113 2597 4934 2840 
Q 4756 3084 4391 3084 
Q 3944 3084 3684 2787 
Q 3425 2491 3425 1978 
L 3425 0 
L 2847 0 
L 2847 2094 
Q 2847 2600 2669 2842 
Q 2491 3084 2119 3084 
Q 1678 3084 1418 2786 
Q 1159 2488 1159 1978 
L 1159 0 
L 581 0 
L 581 3500 
L 1159 3500 
L 1159 2956 
Q 1356 3278 1631 3431 
Q 1906 3584 2284 3584 
Q 2666 3584 2933 3390 
Q 3200 3197 3328 2828 
z
" transform="scale(0.015625)"/>
      <path id="DejaVuSans-65" d="M 3597 1894 
L 3597 1613 
L 953 1613 
Q 991 1019 1311 708 
Q 1631 397 2203 397 
Q 2534 397 2845 478 
Q 3156 559 3463 722 
L 3463 178 
Q 3153 47 2828 -22 
Q 2503 -91 2169 -91 
Q 1331 -91 842 396 
Q 353 884 353 1716 
Q 353 2575 817 3079 
Q 1281 3584 2069 3584 
Q 2775 3584 3186 3129 
Q 3597 2675 3597 1894 
z
M 3022 2063 
Q 3016 2534 2758 2815 
Q 2500 3097 2075 3097 
Q 1594 3097 1305 2825 
Q 1016 2553 972 2059 
L 3022 2063 
z
" transform="scale(0.015625)"/>
      <path id="DejaVuSans-64" d="M 2906 2969 
L 2906 4863 
L 3481 4863 
L 3481 0 
L 2906 0 
L 2906 525 
Q 2725 213 2448 61 
Q 2172 -91 1784 -91 
Q 1150 -91 751 415 
Q 353 922 353 1747 
Q 353 2572 751 3078 
Q 1150 3584 1784 3584 
Q 2172 3584 2448 3432 
Q 2725 3281 2906 2969 
z
M 947 1747 
Q 947 1113 1208 752 
Q 1469 391 1925 391 
Q 2381 391 2643 752 
Q 2906 1113 2906 1747 
Q 2906 2381 2643 2742 
Q 2381 3103 1925 3103 
Q 1469 3103 1208 2742 
Q 947 2381 947 1747 
z
" transform="scale(0.015625)"/>
      <path id="DejaVuSans-5f" d="M 3263 -1063 
L 3263 -1509 
L -63 -1509 
L -63 -1063 
L 3263 -1063 
z
" transform="scale(0.015625)"/>
      <path id="DejaVuSans-34" d="M 2419 4116 
L 825 1625 
L 2419 1625 
L 2419 4116 
z
M 2253 4666 
L 3047 4666 
L 3047 1625 
L 3713 1625 
L 3713 1100 
L 3047 1100 
L 3047 0 
L 2419 0 
L 2419 1100 
L 313 1100 
L 313 1709 
L 2253 4666 
z
" transform="scale(0.015625)"/>
     </defs>
     <use xlink:href="#DejaVuSans-43"/>
     <use xlink:href="#DejaVuSans-6c" x="69.824219"/>
     <use xlink:href="#DejaVuSans-61" x="97.607422"/>
     <use xlink:href="#DejaVuSans-73" x="158.886719"/>
     <use xlink:href="#DejaVuSans-73" x="210.986328"/>
     <use xlink:href="#DejaVuSans-69" x="263.085938"/>
     <use xlink:href="#DejaVuSans-63" x="290.869141"/>
     <use xlink:href="#DejaVuSans-20" x="345.849609"/>
     <use xlink:href="#DejaVuSans-54" x="377.636719"/>
     <use xlink:href="#DejaVuSans-72" x="423.970703"/>
     <use xlink:href="#DejaVuSans-61" x="465.083984"/>
     <use xlink:href="#DejaVuSans-6e" x="526.363281"/>
     <use xlink:href="#DejaVuSans-73" x="589.742188"/>
     <use xlink:href="#DejaVuSans-66" x="641.841797"/>
     <use xlink:href="#DejaVuSans-6f" x="677.046875"/>
     <use xlink:href="#DejaVuSans-72" x="738.228516"/>
     <use xlink:href="#DejaVuSans-6d" x="777.591797"/>
     <use xlink:href="#DejaVuSans-65" x="875.003906"/>
     <use xlink:href="#DejaVuSans-72" x="936.527344"/>
     <use xlink:href="#DejaVuSans-20" x="977.640625"/>
     <use xlink:href="#DejaVuSans-2d" x="1009.427734"/>
     <use xlink:href="#DejaVuSans-20" x="1045.511719"/>
     <use xlink:href="#DejaVuSans-6d" x="1077.298828"/>
     <use xlink:href="#DejaVuSans-6f" x="1174.710938"/>
     <use xlink:href="#DejaVuSans-64" x="1235.892578"/>
     <use xlink:href="#DejaVuSans-65" x="1299.369141"/>
     <use xlink:href="#DejaVuSans-6c" x="1360.892578"/>
     <use xlink:href="#DejaVuSans-5f" x="1388.675781"/>
     <use xlink:href="#DejaVuSans-32" x="1438.675781"/>
     <use xlink:href="#DejaVuSans-30" x="1502.298828"/>
     <use xlink:href="#DejaVuSans-32" x="1565.921875"/>
     <use xlink:href="#DejaVuSans-33" x="1629.544922"/>
     <use xlink:href="#DejaVuSans-31" x="1693.167969"/>
     <use xlink:href="#DejaVuSans-31" x="1756.791016"/>
     <use xlink:href="#DejaVuSans-32" x="1820.414062"/>
     <use xlink:href="#DejaVuSans-33" x="1884.037109"/>
     <use xlink:href="#DejaVuSans-31" x="1947.660156"/>
     <use xlink:href="#DejaVuSans-36" x="2011.283203"/>
     <use xlink:href="#DejaVuSans-33" x="2074.90625"/>
     <use xlink:href="#DejaVuSans-34" x="2138.529297"/>
     <use xlink:href="#DejaVuSans-32" x="2202.152344"/>
     <use xlink:href="#DejaVuSans-33" x="2265.775391"/>
    </g>
   </g>
   <g id="legend_1">
    <g id="patch_7">
     <path d="M 79 95.234375 
L 161.517188 95.234375 
Q 163.517188 95.234375 163.517188 93.234375 
L 163.517188 50.2 
Q 163.517188 48.2 161.517188 48.2 
L 79 48.2 
Q 77 48.2 77 50.2 
L 77 93.234375 
Q 77 95.234375 79 95.234375 
z
" style="fill: #ffffff; opacity: 0.8; stroke: #cccccc; stroke-linejoin: miter"/>
    </g>
    <g id="line2d_16">
     <path d="M 81 56.298437 
L 91 56.298437 
L 101 56.298437 
" style="fill: none; stroke: #1f77b4; stroke-width: 1.5; stroke-linecap: square"/>
    </g>
    <g id="text_14">
     <!-- Measured -->
     <g transform="translate(109 59.798437) scale(0.1 -0.1)">
      <defs>
       <path id="DejaVuSans-4d" d="M 628 4666 
L 1569 4666 
L 2759 1491 
L 3956 4666 
L 4897 4666 
L 4897 0 
L 4281 0 
L 4281 4097 
L 3078 897 
L 2444 897 
L 1241 4097 
L 1241 0 
L 628 0 
L 628 4666 
z
" transform="scale(0.015625)"/>
       <path id="DejaVuSans-75" d="M 544 1381 
L 544 3500 
L 1119 3500 
L 1119 1403 
Q 1119 906 1312 657 
Q 1506 409 1894 409 
Q 2359 409 2629 706 
Q 2900 1003 2900 1516 
L 2900 3500 
L 3475 3500 
L 3475 0 
L 2900 0 
L 2900 538 
Q 2691 219 2414 64 
Q 2138 -91 1772 -91 
Q 1169 -91 856 284 
Q 544 659 544 1381 
z
M 1991 3584 
L 1991 3584 
z
" transform="scale(0.015625)"/>
      </defs>
      <use xlink:href="#DejaVuSans-4d"/>
      <use xlink:href="#DejaVuSans-65" x="86.279297"/>
      <use xlink:href="#DejaVuSans-61" x="147.802734"/>
      <use xlink:href="#DejaVuSans-73" x="209.082031"/>
      <use xlink:href="#DejaVuSans-75" x="261.181641"/>
      <use xlink:href="#DejaVuSans-72" x="324.560547"/>
      <use xlink:href="#DejaVuSans-65" x="363.423828"/>
      <use xlink:href="#DejaVuSans-64" x="424.947266"/>
     </g>
    </g>
    <g id="line2d_17">
     <path d="M 81 70.976562 
L 91 70.976562 
L 101 70.976562 
" style="fill: none; stroke: #ff7f0e; stroke-width: 1.5; stroke-linecap: square"/>
    </g>
    <g id="text_15">
     <!-- Fitted -->
     <g transform="translate(109 74.476562) scale(0.1 -0.1)">
      <defs>
       <path id="DejaVuSans-46" d="M 628 4666 
L 3309 4666 
L 3309 4134 
L 1259 4134 
L 1259 2759 
L 3109 2759 
L 3109 2228 
L 1259 2228 
L 1259 0 
L 628 0 
L 628 4666 
z
" transform="scale(0.015625)"/>
       <path id="DejaVuSans-74" d="M 1172 4494 
L 1172 3500 
L 2356 3500 
L 2356 3053 
L 1172 3053 
L 1172 1153 
Q 1172 725 1289 603 
Q 1406 481 1766 481 
L 2356 481 
L 2356 0 
L 1766 0 
Q 1100 0 847 248 
Q 594 497 594 1153 
L 594 3053 
L 172 3053 
L 172 3500 
L 594 3500 
L 594 4494 
L 1172 4494 
z
" transform="scale(0.015625)"/>
      </defs>
      <use xlink:href="#DejaVuSans-46"/>
      <use xlink:href="#DejaVuSans-69" x="50.269531"/>
      <use xlink:href="#DejaVuSans-74" x="78.052734"/>
      <use xlink:href="#DejaVuSans-74" x="117.261719"/>
      <use xlink:href="#DejaVuSans-65" x="156.470703"/>
      <use xlink:href="#DejaVuSans-64" x="217.994141"/>
     </g>
    </g>
    <g id="line2d_18">
     <path d="M 81 85.654687 
L 91 85.654687 
L 101 85.654687 
" style="fill: none; stroke: #2ca02c; stroke-width: 1.5; stroke-linecap: square"/>
    </g>
    <g id="text_16">
     <!-- Estimated -->
     <g transform="translate(109 89.154687) scale(0.1 -0.1)">
      <defs>
       <path id="DejaVuSans-45" d="M 628 4666 
L 3578 4666 
L 3578 4134 
L 1259 4134 
L 1259 2753 
L 3481 2753 
L 3481 2222 
L 1259 2222 
L 1259 531 
L 3634 531 
L 3634 0 
L 628 0 
L 628 4666 
z
" transform="scale(0.015625)"/>
      </defs>
      <use xlink:href="#DejaVuSans-45"/>
      <use xlink:href="#DejaVuSans-73" x="63.183594"/>
      <use xlink:href="#DejaVuSans-74" x="115.283203"/>
      <use xlink:href="#DejaVuSans-69" x="154.492188"/>
      <use xlink:href="#DejaVuSans-6d" x="182.275391"/>
      <use xlink:href="#DejaVuSans-61" x="279.6875"/>
      <use xlink:href="#DejaVuSans-74" x="340.966797"/>
      <use xlink:href="#DejaVuSans-65" x="380.175781"/>
      <use xlink:href="#DejaVuSans-64" x="441.699219"/>
     </g>
    </g>
   </g>
  </g>
 </g>
 <defs>
  <clipPath id="p880c832e18">
   <rect x="72" y="43.2" width="446.4" height="277.2"/>
  </clipPath>
 </defs>
</svg>
