<?xml version="1.0" encoding="utf-8" standalone="no"?>
<!DOCTYPE svg PUBLIC "-//W3C//DTD SVG 1.1//EN"
  "http://www.w3.org/Graphics/SVG/1.1/DTD/svg11.dtd">
<svg xmlns:xlink="http://www.w3.org/1999/xlink" width="576pt" height="360pt" viewBox="0 0 576 360" xmlns="http://www.w3.org/2000/svg" version="1.1">
 <metadata>
  <rdf:RDF xmlns:dc="http://purl.org/dc/elements/1.1/" xmlns:cc="http://creativecommons.org/ns#" xmlns:rdf="http://www.w3.org/1999/02/22-rdf-syntax-ns#">
   <cc:Work>
    <dc:type rdf:resource="http://purl.org/dc/dcmitype/StillImage"/>
    <dc:date>2023-11-23T16:17:19.363309</dc:date>
    <dc:format>image/svg+xml</dc:format>
    <dc:creator>
     <cc:Agent>
      <dc:title>Matplotlib v3.8.1, https://matplotlib.org/</dc:title>
     </cc:Agent>
    </dc:creator>
   </cc:Work>
  </rdf:RDF>
 </metadata>
 <defs>
  <style type="text/css">*{stroke-linejoin: round; stroke-linecap: butt}</style>
 </defs>
 <g id="figure_1">
  <g id="patch_1">
   <path d="M 0 360 
L 576 360 
L 576 0 
L 0 0 
z
" style="fill: #ffffff"/>
  </g>
  <g id="axes_1">
   <g id="patch_2">
    <path d="M 72 320.4 
L 518.4 320.4 
L 518.4 43.2 
L 72 43.2 
z
" style="fill: #ffffff"/>
   </g>
   <g id="matplotlib.axis_1">
    <g id="xtick_1">
     <g id="line2d_1">
      <defs>
       <path id="m162ca7ccdf" d="M 0 0 
L 0 3.5 
" style="stroke: #000000; stroke-width: 0.8"/>
      </defs>
      <g>
       <use xlink:href="#m162ca7ccdf" x="129.874161" y="320.4" style="stroke: #000000; stroke-width: 0.8"/>
      </g>
     </g>
     <g id="text_1">
      <!-- 2020-05-15 -->
      <g transform="translate(100.816349 334.998438) scale(0.1 -0.1)">
       <defs>
        <path id="DejaVuSans-32" d="M 1228 531 
L 3431 531 
L 3431 0 
L 469 0 
L 469 531 
Q 828 903 1448 1529 
Q 2069 2156 2228 2338 
Q 2531 2678 2651 2914 
Q 2772 3150 2772 3378 
Q 2772 3750 2511 3984 
Q 2250 4219 1831 4219 
Q 1534 4219 1204 4116 
Q 875 4013 500 3803 
L 500 4441 
Q 881 4594 1212 4672 
Q 1544 4750 1819 4750 
Q 2544 4750 2975 4387 
Q 3406 4025 3406 3419 
Q 3406 3131 3298 2873 
Q 3191 2616 2906 2266 
Q 2828 2175 2409 1742 
Q 1991 1309 1228 531 
z
" transform="scale(0.015625)"/>
        <path id="DejaVuSans-30" d="M 2034 4250 
Q 1547 4250 1301 3770 
Q 1056 3291 1056 2328 
Q 1056 1369 1301 889 
Q 1547 409 2034 409 
Q 2525 409 2770 889 
Q 3016 1369 3016 2328 
Q 3016 3291 2770 3770 
Q 2525 4250 2034 4250 
z
M 2034 4750 
Q 2819 4750 3233 4129 
Q 3647 3509 3647 2328 
Q 3647 1150 3233 529 
Q 2819 -91 2034 -91 
Q 1250 -91 836 529 
Q 422 1150 422 2328 
Q 422 3509 836 4129 
Q 1250 4750 2034 4750 
z
" transform="scale(0.015625)"/>
        <path id="DejaVuSans-2d" d="M 313 2009 
L 1997 2009 
L 1997 1497 
L 313 1497 
L 313 2009 
z
" transform="scale(0.015625)"/>
        <path id="DejaVuSans-35" d="M 691 4666 
L 3169 4666 
L 3169 4134 
L 1269 4134 
L 1269 2991 
Q 1406 3038 1543 3061 
Q 1681 3084 1819 3084 
Q 2600 3084 3056 2656 
Q 3513 2228 3513 1497 
Q 3513 744 3044 326 
Q 2575 -91 1722 -91 
Q 1428 -91 1123 -41 
Q 819 9 494 109 
L 494 744 
Q 775 591 1075 516 
Q 1375 441 1709 441 
Q 2250 441 2565 725 
Q 2881 1009 2881 1497 
Q 2881 1984 2565 2268 
Q 2250 2553 1709 2553 
Q 1456 2553 1204 2497 
Q 953 2441 691 2322 
L 691 4666 
z
" transform="scale(0.015625)"/>
        <path id="DejaVuSans-31" d="M 794 531 
L 1825 531 
L 1825 4091 
L 703 3866 
L 703 4441 
L 1819 4666 
L 2450 4666 
L 2450 531 
L 3481 531 
L 3481 0 
L 794 0 
L 794 531 
z
" transform="scale(0.015625)"/>
       </defs>
       <use xlink:href="#DejaVuSans-32"/>
       <use xlink:href="#DejaVuSans-30" x="63.623047"/>
       <use xlink:href="#DejaVuSans-32" x="127.246094"/>
       <use xlink:href="#DejaVuSans-30" x="190.869141"/>
       <use xlink:href="#DejaVuSans-2d" x="254.492188"/>
       <use xlink:href="#DejaVuSans-30" x="290.576172"/>
       <use xlink:href="#DejaVuSans-35" x="354.199219"/>
       <use xlink:href="#DejaVuSans-2d" x="417.822266"/>
       <use xlink:href="#DejaVuSans-31" x="453.90625"/>
       <use xlink:href="#DejaVuSans-35" x="517.529297"/>
      </g>
     </g>
    </g>
    <g id="xtick_2">
     <g id="line2d_2">
      <g>
       <use xlink:href="#m162ca7ccdf" x="212.435902" y="320.4" style="stroke: #000000; stroke-width: 0.8"/>
      </g>
     </g>
     <g id="text_2">
      <!-- 2020-06-01 -->
      <g transform="translate(183.37809 334.998438) scale(0.1 -0.1)">
       <defs>
        <path id="DejaVuSans-36" d="M 2113 2584 
Q 1688 2584 1439 2293 
Q 1191 2003 1191 1497 
Q 1191 994 1439 701 
Q 1688 409 2113 409 
Q 2538 409 2786 701 
Q 3034 994 3034 1497 
Q 3034 2003 2786 2293 
Q 2538 2584 2113 2584 
z
M 3366 4563 
L 3366 3988 
Q 3128 4100 2886 4159 
Q 2644 4219 2406 4219 
Q 1781 4219 1451 3797 
Q 1122 3375 1075 2522 
Q 1259 2794 1537 2939 
Q 1816 3084 2150 3084 
Q 2853 3084 3261 2657 
Q 3669 2231 3669 1497 
Q 3669 778 3244 343 
Q 2819 -91 2113 -91 
Q 1303 -91 875 529 
Q 447 1150 447 2328 
Q 447 3434 972 4092 
Q 1497 4750 2381 4750 
Q 2619 4750 2861 4703 
Q 3103 4656 3366 4563 
z
" transform="scale(0.015625)"/>
       </defs>
       <use xlink:href="#DejaVuSans-32"/>
       <use xlink:href="#DejaVuSans-30" x="63.623047"/>
       <use xlink:href="#DejaVuSans-32" x="127.246094"/>
       <use xlink:href="#DejaVuSans-30" x="190.869141"/>
       <use xlink:href="#DejaVuSans-2d" x="254.492188"/>
       <use xlink:href="#DejaVuSans-30" x="290.576172"/>
       <use xlink:href="#DejaVuSans-36" x="354.199219"/>
       <use xlink:href="#DejaVuSans-2d" x="417.822266"/>
       <use xlink:href="#DejaVuSans-30" x="453.90625"/>
       <use xlink:href="#DejaVuSans-31" x="517.529297"/>
      </g>
     </g>
    </g>
    <g id="xtick_3">
     <g id="line2d_3">
      <g>
       <use xlink:href="#m162ca7ccdf" x="280.427924" y="320.4" style="stroke: #000000; stroke-width: 0.8"/>
      </g>
     </g>
     <g id="text_3">
      <!-- 2020-06-15 -->
      <g transform="translate(251.370111 334.998438) scale(0.1 -0.1)">
       <use xlink:href="#DejaVuSans-32"/>
       <use xlink:href="#DejaVuSans-30" x="63.623047"/>
       <use xlink:href="#DejaVuSans-32" x="127.246094"/>
       <use xlink:href="#DejaVuSans-30" x="190.869141"/>
       <use xlink:href="#DejaVuSans-2d" x="254.492188"/>
       <use xlink:href="#DejaVuSans-30" x="290.576172"/>
       <use xlink:href="#DejaVuSans-36" x="354.199219"/>
       <use xlink:href="#DejaVuSans-2d" x="417.822266"/>
       <use xlink:href="#DejaVuSans-31" x="453.90625"/>
       <use xlink:href="#DejaVuSans-35" x="517.529297"/>
      </g>
     </g>
    </g>
    <g id="xtick_4">
     <g id="line2d_4">
      <g>
       <use xlink:href="#m162ca7ccdf" x="358.133092" y="320.4" style="stroke: #000000; stroke-width: 0.8"/>
      </g>
     </g>
     <g id="text_4">
      <!-- 2020-07-01 -->
      <g transform="translate(329.075279 334.998438) scale(0.1 -0.1)">
       <defs>
        <path id="DejaVuSans-37" d="M 525 4666 
L 3525 4666 
L 3525 4397 
L 1831 0 
L 1172 0 
L 2766 4134 
L 525 4134 
L 525 4666 
z
" transform="scale(0.015625)"/>
       </defs>
       <use xlink:href="#DejaVuSans-32"/>
       <use xlink:href="#DejaVuSans-30" x="63.623047"/>
       <use xlink:href="#DejaVuSans-32" x="127.246094"/>
       <use xlink:href="#DejaVuSans-30" x="190.869141"/>
       <use xlink:href="#DejaVuSans-2d" x="254.492188"/>
       <use xlink:href="#DejaVuSans-30" x="290.576172"/>
       <use xlink:href="#DejaVuSans-37" x="354.199219"/>
       <use xlink:href="#DejaVuSans-2d" x="417.822266"/>
       <use xlink:href="#DejaVuSans-30" x="453.90625"/>
       <use xlink:href="#DejaVuSans-31" x="517.529297"/>
      </g>
     </g>
    </g>
    <g id="xtick_5">
     <g id="line2d_5">
      <g>
       <use xlink:href="#m162ca7ccdf" x="426.125113" y="320.4" style="stroke: #000000; stroke-width: 0.8"/>
      </g>
     </g>
     <g id="text_5">
      <!-- 2020-07-15 -->
      <g transform="translate(397.067301 334.998438) scale(0.1 -0.1)">
       <use xlink:href="#DejaVuSans-32"/>
       <use xlink:href="#DejaVuSans-30" x="63.623047"/>
       <use xlink:href="#DejaVuSans-32" x="127.246094"/>
       <use xlink:href="#DejaVuSans-30" x="190.869141"/>
       <use xlink:href="#DejaVuSans-2d" x="254.492188"/>
       <use xlink:href="#DejaVuSans-30" x="290.576172"/>
       <use xlink:href="#DejaVuSans-37" x="354.199219"/>
       <use xlink:href="#DejaVuSans-2d" x="417.822266"/>
       <use xlink:href="#DejaVuSans-31" x="453.90625"/>
       <use xlink:href="#DejaVuSans-35" x="517.529297"/>
      </g>
     </g>
    </g>
    <g id="xtick_6">
     <g id="line2d_6">
      <g>
       <use xlink:href="#m162ca7ccdf" x="508.686854" y="320.4" style="stroke: #000000; stroke-width: 0.8"/>
      </g>
     </g>
     <g id="text_6">
      <!-- 2020-08-01 -->
      <g transform="translate(479.629042 334.998438) scale(0.1 -0.1)">
       <defs>
        <path id="DejaVuSans-38" d="M 2034 2216 
Q 1584 2216 1326 1975 
Q 1069 1734 1069 1313 
Q 1069 891 1326 650 
Q 1584 409 2034 409 
Q 2484 409 2743 651 
Q 3003 894 3003 1313 
Q 3003 1734 2745 1975 
Q 2488 2216 2034 2216 
z
M 1403 2484 
Q 997 2584 770 2862 
Q 544 3141 544 3541 
Q 544 4100 942 4425 
Q 1341 4750 2034 4750 
Q 2731 4750 3128 4425 
Q 3525 4100 3525 3541 
Q 3525 3141 3298 2862 
Q 3072 2584 2669 2484 
Q 3125 2378 3379 2068 
Q 3634 1759 3634 1313 
Q 3634 634 3220 271 
Q 2806 -91 2034 -91 
Q 1263 -91 848 271 
Q 434 634 434 1313 
Q 434 1759 690 2068 
Q 947 2378 1403 2484 
z
M 1172 3481 
Q 1172 3119 1398 2916 
Q 1625 2713 2034 2713 
Q 2441 2713 2670 2916 
Q 2900 3119 2900 3481 
Q 2900 3844 2670 4047 
Q 2441 4250 2034 4250 
Q 1625 4250 1398 4047 
Q 1172 3844 1172 3481 
z
" transform="scale(0.015625)"/>
       </defs>
       <use xlink:href="#DejaVuSans-32"/>
       <use xlink:href="#DejaVuSans-30" x="63.623047"/>
       <use xlink:href="#DejaVuSans-32" x="127.246094"/>
       <use xlink:href="#DejaVuSans-30" x="190.869141"/>
       <use xlink:href="#DejaVuSans-2d" x="254.492188"/>
       <use xlink:href="#DejaVuSans-30" x="290.576172"/>
       <use xlink:href="#DejaVuSans-38" x="354.199219"/>
       <use xlink:href="#DejaVuSans-2d" x="417.822266"/>
       <use xlink:href="#DejaVuSans-30" x="453.90625"/>
       <use xlink:href="#DejaVuSans-31" x="517.529297"/>
      </g>
     </g>
    </g>
   </g>
   <g id="matplotlib.axis_2">
    <g id="ytick_1">
     <g id="line2d_7">
      <defs>
       <path id="m9eb75b2d8c" d="M 0 0 
L -3.5 0 
" style="stroke: #000000; stroke-width: 0.8"/>
      </defs>
      <g>
       <use xlink:href="#m9eb75b2d8c" x="72" y="312.513647" style="stroke: #000000; stroke-width: 0.8"/>
      </g>
     </g>
     <g id="text_7">
      <!-- −2 -->
      <g transform="translate(50.257812 316.312866) scale(0.1 -0.1)">
       <defs>
        <path id="DejaVuSans-2212" d="M 678 2272 
L 4684 2272 
L 4684 1741 
L 678 1741 
L 678 2272 
z
" transform="scale(0.015625)"/>
       </defs>
       <use xlink:href="#DejaVuSans-2212"/>
       <use xlink:href="#DejaVuSans-32" x="83.789062"/>
      </g>
     </g>
    </g>
    <g id="ytick_2">
     <g id="line2d_8">
      <g>
       <use xlink:href="#m9eb75b2d8c" x="72" y="260.453765" style="stroke: #000000; stroke-width: 0.8"/>
      </g>
     </g>
     <g id="text_8">
      <!-- −1 -->
      <g transform="translate(50.257812 264.252984) scale(0.1 -0.1)">
       <use xlink:href="#DejaVuSans-2212"/>
       <use xlink:href="#DejaVuSans-31" x="83.789062"/>
      </g>
     </g>
    </g>
    <g id="ytick_3">
     <g id="line2d_9">
      <g>
       <use xlink:href="#m9eb75b2d8c" x="72" y="208.393882" style="stroke: #000000; stroke-width: 0.8"/>
      </g>
     </g>
     <g id="text_9">
      <!-- 0 -->
      <g transform="translate(58.6375 212.193101) scale(0.1 -0.1)">
       <use xlink:href="#DejaVuSans-30"/>
      </g>
     </g>
    </g>
    <g id="ytick_4">
     <g id="line2d_10">
      <g>
       <use xlink:href="#m9eb75b2d8c" x="72" y="156.334" style="stroke: #000000; stroke-width: 0.8"/>
      </g>
     </g>
     <g id="text_10">
      <!-- 1 -->
      <g transform="translate(58.6375 160.133219) scale(0.1 -0.1)">
       <use xlink:href="#DejaVuSans-31"/>
      </g>
     </g>
    </g>
    <g id="ytick_5">
     <g id="line2d_11">
      <g>
       <use xlink:href="#m9eb75b2d8c" x="72" y="104.274118" style="stroke: #000000; stroke-width: 0.8"/>
      </g>
     </g>
     <g id="text_11">
      <!-- 2 -->
      <g transform="translate(58.6375 108.073336) scale(0.1 -0.1)">
       <use xlink:href="#DejaVuSans-32"/>
      </g>
     </g>
    </g>
    <g id="ytick_6">
     <g id="line2d_12">
      <g>
       <use xlink:href="#m9eb75b2d8c" x="72" y="52.214235" style="stroke: #000000; stroke-width: 0.8"/>
      </g>
     </g>
     <g id="text_12">
      <!-- 3 -->
      <g transform="translate(58.6375 56.013454) scale(0.1 -0.1)">
       <defs>
        <path id="DejaVuSans-33" d="M 2597 2516 
Q 3050 2419 3304 2112 
Q 3559 1806 3559 1356 
Q 3559 666 3084 287 
Q 2609 -91 1734 -91 
Q 1441 -91 1130 -33 
Q 819 25 488 141 
L 488 750 
Q 750 597 1062 519 
Q 1375 441 1716 441 
Q 2309 441 2620 675 
Q 2931 909 2931 1356 
Q 2931 1769 2642 2001 
Q 2353 2234 1838 2234 
L 1294 2234 
L 1294 2753 
L 1863 2753 
Q 2328 2753 2575 2939 
Q 2822 3125 2822 3475 
Q 2822 3834 2567 4026 
Q 2313 4219 1838 4219 
Q 1578 4219 1281 4162 
Q 984 4106 628 3988 
L 628 4550 
Q 988 4650 1302 4700 
Q 1616 4750 1894 4750 
Q 2613 4750 3031 4423 
Q 3450 4097 3450 3541 
Q 3450 3153 3228 2886 
Q 3006 2619 2597 2516 
z
" transform="scale(0.015625)"/>
       </defs>
       <use xlink:href="#DejaVuSans-33"/>
      </g>
     </g>
    </g>
   </g>
   <g id="line2d_13">
    <path d="M 72 284.425085 
L 72.404714 295.457717 
L 72.607072 293.782391 
L 72.809429 283.403545 
L 73.214143 253.329406 
L 73.618858 241.234372 
L 75.035358 160.532709 
L 75.237715 157.651966 
L 75.440073 162.575789 
L 75.64243 170.564232 
L 75.844787 173.771868 
L 76.047144 188.604629 
L 76.654216 256.966088 
L 77.05893 280.379786 
L 77.261287 284.629393 
L 77.463645 284.261638 
L 77.666002 273.84193 
L 78.070716 246.117333 
L 78.475431 233.981438 
L 78.677788 225.094039 
L 79.487217 169.644846 
L 79.891931 153.810975 
L 80.094288 155.71104 
L 80.903717 196.981257 
L 81.713146 270.286971 
L 82.11786 284.547669 
L 82.320218 286.529457 
L 82.522575 286.243426 
L 82.724932 283.79173 
L 82.927289 277.15172 
L 83.332004 254.779993 
L 83.736718 240.846187 
L 83.939075 237.883721 
L 84.141432 238.149321 
L 84.546147 244.380715 
L 84.748504 246.423795 
L 84.950861 246.444226 
L 85.355576 250.530386 
L 85.557933 247.281889 
L 85.76029 253.247683 
L 86.569719 297.010458 
L 86.772076 302.93539 
L 86.974433 304.488131 
L 87.176791 304.549423 
L 87.379148 303.241852 
L 87.581505 299.60517 
L 87.783862 293.026452 
L 88.188577 271.55368 
L 88.390934 266.507272 
L 89.200363 258.641414 
L 89.40272 254.616546 
L 89.807434 240.212832 
L 90.212149 237.822428 
L 90.414506 235.186855 
L 90.616863 242.930128 
L 91.223935 292.188789 
L 91.628649 302.93539 
L 91.831006 302.996683 
L 92.033364 300.565417 
L 92.842792 255.617656 
L 93.04515 253.533714 
L 93.449864 245.157086 
L 93.652221 244.646316 
L 93.854578 241.786003 
L 94.056936 241.173079 
L 94.259293 238.619229 
L 94.46165 232.387835 
L 94.664007 229.609246 
L 94.866364 230.508201 
L 95.068722 233.572822 
L 95.271079 229.833985 
L 95.473436 239.681631 
L 96.080508 292.556543 
L 96.485222 301.525665 
L 96.687579 303.384868 
L 96.889937 299.155692 
L 97.699365 254.902578 
L 98.306437 244.666746 
L 98.508794 244.298992 
L 99.52058 223.623022 
L 99.722937 224.84887 
L 99.925295 229.098476 
L 100.127652 227.320997 
L 100.330009 237.209504 
L 100.937081 290.145709 
L 101.341795 302.097727 
L 101.544152 303.057975 
L 101.74651 299.441723 
L 101.948867 287.796167 
L 102.353581 258.53926 
L 102.555938 257.027381 
L 103.567724 239.702062 
L 104.377153 218.167998 
L 104.57951 219.414277 
L 104.781868 224.664992 
L 104.984225 224.644562 
L 105.186582 233.307221 
L 105.793654 287.081089 
L 106.198368 299.503016 
L 106.400725 301.219203 
L 106.603083 297.296489 
L 107.412511 252.553035 
L 107.614869 250.87771 
L 107.817226 247.30232 
L 108.22194 233.143775 
L 108.626655 211.997896 
L 108.829012 206.215979 
L 109.031369 204.377207 
L 109.638441 212.835559 
L 109.840798 218.127136 
L 110.043155 228.260813 
L 110.650227 281.891665 
L 111.054941 295.78461 
L 111.257298 297.643813 
L 111.459655 295.948056 
L 111.662013 284.833701 
L 112.066727 256.332734 
L 112.471442 241.724711 
L 113.887942 175.079439 
L 114.090299 172.770759 
L 114.292656 179.410769 
L 114.495014 190.545555 
L 114.697371 195.019901 
L 115.102085 228.158659 
L 115.709157 276.252764 
L 116.113871 289.839247 
L 116.316228 290.002693 
L 116.518586 288.38866 
L 116.720943 284.854131 
L 117.125657 258.314521 
L 118.542158 156.344395 
L 118.744515 146.496749 
L 118.946872 142.717051 
L 119.149229 146.292441 
L 119.756301 183.190467 
L 120.56573 260.500617 
L 120.970444 279.807724 
L 121.172801 283.79173 
L 121.375159 285.385332 
L 121.577516 283.975607 
L 121.779873 276.252764 
L 122.589302 226.565057 
L 123.196374 201.762065 
L 123.398731 197.30815 
L 123.601088 197.512458 
L 123.803445 196.960827 
L 124.410517 210.016108 
L 124.612874 220.701417 
L 125.219946 275.537686 
L 125.62466 289.696231 
L 125.827017 291.637157 
L 126.029374 289.16503 
L 127.04116 234.226607 
L 127.648232 197.778059 
L 128.255304 156.48741 
L 128.457661 149.132322 
L 128.660018 148.805429 
L 129.26709 191.996142 
L 130.278876 280.502371 
L 130.481233 288.12306 
L 130.68359 289.471492 
L 130.885947 286.958504 
L 132.504805 180.840925 
L 133.111877 139.264245 
L 133.314234 130.090816 
L 133.516591 131.745711 
L 133.921306 146.721488 
L 134.123663 153.953991 
L 135.135449 261.011387 
L 135.540163 273.310729 
L 135.74252 272.391343 
L 135.944878 262.073789 
L 136.349592 231.468449 
L 136.551949 224.8693 
L 136.754306 213.305467 
L 136.956664 217.759382 
L 137.159021 206.74718 
L 137.766092 198.145813 
L 137.96845 198.533998 
L 138.373164 193.262852 
L 138.777879 200.61794 
L 138.980236 201.435172 
L 139.182593 212.937713 
L 139.789665 268.121306 
L 140.194379 283.097083 
L 140.396736 285.119732 
L 140.599093 282.177697 
L 141.003808 252.736913 
L 141.408522 232.101804 
L 142.015594 219.046522 
L 142.622665 210.138693 
L 142.825023 209.873093 
L 143.02738 208.688106 
L 143.229737 209.362323 
L 143.634451 214.510884 
L 143.836809 213.305467 
L 144.039166 223.234836 
L 144.646238 271.328941 
L 145.050952 283.117513 
L 145.253309 284.384223 
L 145.455666 281.319603 
L 145.860381 252.41002 
L 146.062738 236.371841 
L 146.66981 220.313232 
L 146.872167 217.698089 
L 147.074524 216.635688 
L 147.479238 205.807363 
L 147.681596 214.061407 
L 147.883953 215.021655 
L 148.08631 217.575505 
L 148.491024 226.667211 
L 148.693382 225.339209 
L 149.098096 248.405583 
L 149.502811 275.88501 
L 149.907525 288.695122 
L 150.109882 290.717771 
L 150.312239 290.145709 
L 150.514597 287.36712 
L 150.716954 281.74865 
L 151.121668 261.195264 
L 151.526383 241.009633 
L 151.931097 235.289009 
L 152.133454 234.859962 
L 152.335811 236.800888 
L 152.538169 237.311658 
L 152.740526 235.289009 
L 152.942883 235.57504 
L 153.14524 234.614792 
L 153.347597 234.655654 
L 153.549955 231.774911 
L 153.752312 233.940576 
L 154.764098 284.649823 
L 154.966455 288.552106 
L 155.168812 289.92097 
L 155.573527 286.039118 
L 155.775884 275.12907 
L 156.78767 198.32969 
L 157.799456 156.323964 
L 158.001813 158.305752 
L 158.406528 171.320172 
L 158.608885 184.681915 
L 159.215956 252.328297 
L 159.620671 273.617191 
L 159.823028 276.783965 
L 160.025385 275.88501 
L 160.227743 266.221241 
L 160.632457 234.226607 
L 161.8466 184.641054 
L 162.251315 174.732115 
L 162.453672 174.875131 
L 162.656029 177.694582 
L 163.465458 209.055861 
L 164.072529 268.060013 
L 164.477244 286.406872 
L 164.679601 286.733765 
L 164.881958 283.54656 
L 165.084316 273.535468 
L 165.48903 242.21505 
L 166.500816 207.625705 
L 167.310245 165.313516 
L 167.512602 168.623306 
L 167.917316 188.911091 
L 168.119674 193.303713 
L 168.322031 204.499792 
L 168.929102 263.074898 
L 169.333817 278.050675 
L 169.536174 281.523911 
L 169.738531 277.907659 
L 170.143246 251.000295 
L 170.54796 221.110033 
L 171.357389 177.163381 
L 171.559746 171.218018 
L 172.166818 147.354842 
L 172.369175 148.948445 
L 172.571532 156.753011 
L 173.178604 195.183347 
L 173.785675 265.281424 
L 174.19039 284.404654 
L 174.392747 287.346689 
L 174.595104 285.548779 
L 174.999819 261.685603 
L 175.404533 237.025627 
L 177.023391 159.858492 
L 177.225748 160.369262 
L 177.428105 164.230684 
L 177.630462 180.595755 
L 177.83282 183.00659 
L 178.237534 226.524195 
L 178.642248 268.856814 
L 179.046963 287.796167 
L 179.24932 291.473711 
L 179.451677 288.981153 
L 179.654034 280.400217 
L 180.261106 241.070925 
L 181.879964 145.373055 
L 182.082321 142.144988 
L 182.284678 147.743028 
L 183.094107 203.355667 
L 183.498821 241.867727 
L 183.903536 263.054467 
L 184.30825 270.797741 
L 184.510607 272.146173 
L 184.712965 268.550352 
L 184.915322 255.331624 
L 185.724751 174.323499 
L 186.129465 153.198051 
L 186.331822 147.211827 
L 186.53418 146.455887 
L 186.736537 148.968876 
L 187.748323 188.931522 
L 188.557752 252.369158 
L 188.962466 266.384688 
L 189.164823 268.407337 
L 189.36718 268.48906 
L 189.569538 267.753551 
L 189.771895 257.088673 
L 190.986038 162.187604 
L 191.188395 156.936888 
L 191.390752 156.896026 
L 191.795467 165.946871 
L 192.604896 196.919965 
L 193.414325 259.581231 
L 193.819039 273.147283 
L 194.021396 274.209684 
L 194.426111 270.286971 
L 194.628468 261.420003 
L 195.437897 201.12871 
L 195.640254 196.164025 
L 195.842611 197.369443 
L 196.247325 203.376098 
L 196.449683 203.948161 
L 196.65204 203.559975 
L 197.056754 211.691434 
L 197.259112 212.529097 
L 197.461469 220.864864 
L 198.06854 268.75466 
L 198.473255 282.811051 
L 198.675612 282.913205 
L 198.877969 279.296954 
L 199.282684 248.793768 
L 199.687398 226.176872 
L 201.306256 160.369262 
L 201.508613 159.225138 
L 202.115684 178.246213 
L 202.318042 189.299276 
L 202.925113 252.798205 
L 203.329828 270.286971 
L 203.532185 272.370912 
L 203.734542 269.408446 
L 203.936899 257.987628 
L 204.341614 224.297238 
L 205.758114 170.114754 
L 205.960471 167.642628 
L 206.162829 167.785643 
L 206.365186 169.195368 
L 206.7699 180.943079 
L 206.972257 184.109853 
L 207.174615 194.856454 
L 207.781686 253.390698 
L 208.186401 269.408446 
L 208.388758 272.432205 
L 208.591115 269.122415 
L 208.793472 257.354274 
L 209.198187 223.84776 
L 209.805258 201.762065 
L 210.209973 182.046342 
L 210.817044 140.714832 
L 211.019402 132.297342 
L 211.221759 135.239378 
L 211.626473 159.511169 
L 211.82883 164.680161 
L 212.031188 179.288184 
L 212.638259 243.788222 
L 213.042974 262.216804 
L 213.245331 266.18038 
L 213.447688 264.484623 
L 213.650045 253.860607 
L 214.257117 210.955925 
L 214.661831 184.824931 
L 215.47126 125.963794 
L 215.875975 109.373984 
L 216.078332 108.904075 
L 216.280689 114.399961 
L 217.090118 177.65372 
L 217.697189 239.068707 
L 218.101904 257.374704 
L 218.304261 260.704925 
L 218.506618 262.053358 
L 218.708976 260.807079 
L 218.911333 248.180844 
L 219.518404 193.834914 
L 220.125476 158.918676 
L 220.327833 156.773442 
L 220.53019 158.979968 
L 221.541976 200.944833 
L 221.744334 206.052533 
L 222.553762 262.482405 
L 222.958477 273.269867 
L 223.160834 274.965624 
L 223.363191 275.312948 
L 223.565549 273.760207 
L 223.767906 265.117978 
L 224.374977 227.218843 
L 224.779692 219.700308 
L 225.386763 221.743388 
L 225.589121 225.237055 
L 225.791478 226.115579 
L 226.196192 234.430915 
L 226.398549 234.083592 
L 226.600907 240.458001 
L 227.410335 293.639376 
L 227.612693 297.643813 
L 227.81505 299.319138 
L 228.017407 296.152364 
L 228.826836 253.901468 
L 229.029193 251.592788 
L 229.23155 245.892594 
L 230.648051 182.986159 
L 230.850408 183.558221 
L 231.255122 197.859782 
L 231.45748 208.667675 
L 232.064551 271.839711 
L 232.469266 288.878999 
L 232.671623 291.575865 
L 232.87398 290.370448 
L 233.278694 265.281424 
L 233.683409 242.930128 
L 235.302267 178.859137 
L 235.504624 178.266644 
L 236.111695 197.226427 
L 236.314053 207.50312 
L 236.921124 269.142846 
L 237.325839 284.894993 
L 237.528196 288.000475 
L 237.730553 285.896102 
L 238.135267 262.135081 
L 238.539982 240.519294 
L 239.349411 209.832231 
L 239.754125 199.902862 
L 240.15884 189.769185 
L 240.361197 189.524015 
L 240.563554 194.938177 
L 240.968268 212.406512 
L 241.170626 219.925047 
L 241.777697 275.026916 
L 242.182412 290.758633 
L 242.384769 293.23076 
L 242.587126 290.268294 
L 242.99184 265.751333 
L 243.396555 247.935675 
L 245.21777 173.874022 
L 245.420127 178.082767 
L 246.027199 204.663239 
L 246.836627 277.560336 
L 247.038985 285.855241 
L 247.241342 289.001584 
L 247.443699 286.488596 
L 247.848413 263.115759 
L 249.467271 152.013065 
L 249.669628 144.004191 
L 249.871985 142.083696 
L 250.074343 142.247142 
L 250.2767 149.132322 
L 250.883772 180.98394 
L 251.6932 255.352055 
L 252.097915 269.75577 
L 252.300272 272.799959 
L 252.502629 273.065559 
L 252.704986 269.224569 
L 253.109701 236.739596 
L 253.91913 164.12853 
L 254.323844 148.458106 
L 254.728558 139.713723 
L 254.930916 138.467444 
L 255.133273 145.904256 
L 255.740345 183.067882 
L 256.549773 257.660736 
L 256.954488 273.004267 
L 257.156845 276.783965 
L 257.359202 278.43886 
L 257.561559 277.478612 
L 257.966274 248.83463 
L 258.573345 198.860891 
L 258.97806 177.367689 
L 259.382774 166.43721 
L 259.585131 163.025267 
L 259.787489 162.59622 
L 259.989846 165.190931 
L 260.39456 181.045233 
L 260.596917 194.284392 
L 261.203989 255.760671 
L 261.608704 274.311838 
L 261.811061 277.213012 
L 262.013418 276.436642 
L 262.418132 252.67562 
L 262.62049 240.764463 
L 263.025204 231.182418 
L 263.227561 228.403829 
L 263.429918 227.40272 
L 263.834633 228.669429 
L 264.03699 228.362967 
L 264.239347 229.302784 
L 264.441704 229.384507 
L 264.644062 229.118907 
L 264.846419 231.141556 
L 265.048776 235.145993 
L 265.251133 235.145993 
L 265.45349 239.129999 
L 266.060562 281.23788 
L 266.465277 293.966269 
L 266.667634 295.498579 
L 266.869991 291.351126 
L 267.072348 283.464837 
L 267.477063 257.190827 
L 268.084134 235.207286 
L 268.488849 225.012316 
L 269.09592 213.857099 
L 269.500635 209.934385 
L 269.702992 212.10005 
L 269.905349 215.67544 
L 270.107706 216.349657 
L 270.310063 222.601482 
L 270.917135 271.04291 
L 271.32185 282.913205 
L 271.524207 285.038009 
L 271.726564 283.342252 
L 274.15485 142.96222 
L 274.357208 135.852302 
L 274.559565 139.162091 
L 275.166636 164.108099 
L 275.976065 244.993639 
L 276.38078 257.456428 
L 276.583137 256.76178 
L 276.987851 235.105132 
L 277.392566 206.440718 
L 278.404352 149.969985 
L 278.606709 146.946226 
L 279.011423 133.829652 
L 279.213781 132.23605 
L 279.416138 136.465226 
L 280.023209 177.837597 
L 280.630281 248.58946 
L 281.034995 271.185926 
L 281.237353 276.028026 
L 281.43971 274.495715 
L 281.642067 268.652506 
L 282.249139 227.239273 
L 282.85621 193.875776 
L 283.867996 151.441003 
L 284.070354 150.256016 
L 284.272711 158.346613 
L 285.284497 240.744033 
L 285.689211 272.656943 
L 286.093926 287.285397 
L 286.296283 289.553216 
L 286.49864 287.755305 
L 286.700997 284.833701 
L 287.105712 254.064915 
L 287.712783 202.92662 
L 288.522212 159.838062 
L 288.724569 152.769005 
L 288.926927 150.848509 
L 289.129284 154.403469 
L 289.736355 187.950844 
L 290.545784 257.476858 
L 290.950499 272.636513 
L 291.152856 275.394671 
L 291.355213 275.476394 
L 291.55757 274.005376 
L 291.759927 261.624311 
L 292.771714 163.719914 
L 293.176428 141.899819 
L 293.581142 130.744601 
L 293.7835 129.028414 
L 293.985857 132.522081 
L 294.592928 157.856274 
L 295.402357 240.498863 
L 295.807072 255.086455 
L 296.009429 254.923008 
L 296.414143 234.778239 
L 297.830644 100.670463 
L 298.235358 87.451735 
L 298.437715 84.877454 
L 298.640073 85.143054 
L 298.84243 87.186134 
L 299.044787 95.174577 
L 299.449501 121.979788 
L 300.056573 200.495355 
L 300.461287 225.584378 
L 300.663645 231.570603 
L 300.866002 232.285681 
L 301.068359 225.502655 
L 301.473073 195.632825 
L 302.484859 90.965832 
L 302.687217 79.708461 
L 302.889574 79.810615 
L 303.091931 87.860351 
L 303.496646 96.461718 
L 303.90136 118.588275 
L 304.306074 146.374164 
L 304.913146 215.205532 
L 305.31786 240.41714 
L 305.520218 245.953887 
L 305.722575 244.176407 
L 305.924932 237.086919 
L 306.532004 197.349012 
L 307.54379 127.720843 
L 307.746147 117.566735 
L 307.948504 116.68821 
L 308.757933 148.784998 
L 309.162647 174.711685 
L 309.769719 237.372951 
L 310.174433 257.149966 
L 310.376791 261.522157 
L 310.579148 260.950095 
L 310.983862 237.658982 
L 312.198005 134.176976 
L 312.60272 122.613143 
L 312.805077 118.261382 
L 313.007434 118.813014 
L 313.209791 122.490558 
L 313.816863 149.929123 
L 314.01922 163.536037 
L 314.626292 225.788687 
L 315.031006 246.178626 
L 315.233364 250.734694 
L 315.435721 250.080909 
L 315.840435 231.407157 
L 316.24515 212.794697 
L 316.649864 200.842679 
L 317.054578 185.621732 
L 317.66165 178.144059 
L 317.864007 177.694582 
L 318.066364 176.795626 
L 318.268722 181.453849 
L 318.875793 203.478252 
L 319.685222 261.767327 
L 320.089937 274.475285 
L 320.292294 276.109749 
L 320.697008 268.22346 
L 321.101723 242.133327 
L 322.315866 164.618869 
L 322.72058 154.423899 
L 322.922937 152.115219 
L 323.125295 156.22181 
L 323.732366 183.701237 
L 324.541795 251.878819 
L 324.94651 266.098656 
L 325.148867 268.979399 
L 325.351224 269.040692 
L 325.553581 266.793304 
L 325.755938 254.534823 
L 326.970082 142.717051 
L 327.172439 136.424364 
L 327.374796 134.851192 
L 327.77951 129.314445 
L 327.981868 134.27913 
L 328.184225 143.023513 
L 328.791296 194.406977 
L 329.196011 237.904151 
L 329.398368 253.063806 
L 329.803083 263.115759 
L 330.00544 262.175943 
L 330.207797 256.598334 
L 330.814869 208.340783 
L 331.42194 170.319062 
L 331.826655 147.763458 
L 332.029012 144.882716 
L 332.231369 144.903146 
L 332.433726 145.087024 
L 332.636083 147.170965 
L 332.838441 151.686172 
L 333.243155 174.486946 
L 333.445512 183.456067 
L 334.052584 248.83463 
L 334.457298 270.511709 
L 334.659655 275.905441 
L 334.862013 273.515037 
L 335.266727 253.778884 
L 335.671442 229.547954 
L 336.48087 189.6466 
L 336.683228 184.600192 
L 336.885585 183.496929 
L 337.087942 177.347258 
L 337.290299 175.508486 
L 337.695014 181.944188 
L 338.099728 196.327472 
L 338.302085 202.170681 
L 339.111514 267.651397 
L 339.313871 273.821499 
L 339.516228 276.048456 
L 339.718586 272.003158 
L 340.1233 248.773337 
L 340.932729 204.540654 
L 342.349229 143.105236 
L 342.551587 143.023513 
L 343.158658 167.581335 
L 343.76573 230.017862 
L 344.170444 247.935675 
L 344.372801 252.67562 
L 344.575159 250.550817 
L 344.777516 243.665637 
L 345.18223 212.937713 
L 346.194016 130.724171 
L 346.598731 116.034425 
L 347.003445 109.455707 
L 347.205802 108.618044 
L 347.40816 111.784818 
L 347.610517 119.589384 
L 348.015231 145.556932 
L 348.82466 236.208395 
L 349.229374 253.227252 
L 349.431732 252.471312 
L 349.634089 246.709826 
L 349.836446 235.636332 
L 351.050589 131.745711 
L 351.455304 113.480575 
L 351.860018 104.6749 
L 352.062375 103.775944 
L 352.264733 107.392196 
L 352.46709 118.424829 
L 353.276519 201.087848 
L 353.681233 238.823537 
L 354.085947 258.907015 
L 354.288305 264.15773 
L 354.490662 264.729793 
L 354.693019 262.502835 
L 355.097733 220.680986 
L 355.704805 147.232258 
L 356.109519 122.654004 
L 356.716591 104.552315 
L 356.918948 103.469482 
L 357.121306 108.25029 
L 357.52602 133.747929 
L 357.728377 146.374164 
L 358.740163 241.377387 
L 359.144878 254.289654 
L 359.347235 256.148856 
L 359.549592 255.821964 
L 359.751949 241.888157 
L 360.763735 121.857203 
L 361.16845 102.876989 
L 361.573164 91.823926 
L 361.775521 89.535676 
L 361.977879 92.804604 
L 362.180236 99.771507 
L 362.58495 125.432593 
L 363.394379 213.754945 
L 363.799093 231.325434 
L 364.001451 232.142666 
L 364.203808 226.279026 
L 364.406165 216.267933 
L 365.013237 147.007519 
L 365.620308 82.73222 
L 366.025023 66.632749 
L 366.429737 60.483078 
L 366.632094 60.973417 
L 366.834451 63.60899 
L 367.036809 72.29208 
L 367.441523 101.36511 
L 368.048595 180.677478 
L 368.453309 211.07851 
L 368.655666 219.577723 
L 368.858024 221.947696 
L 369.060381 218.065844 
L 369.262738 208.238629 
L 369.86981 144.944008 
L 370.476881 86.981826 
L 370.881596 70.412447 
L 371.083953 69.962969 
L 371.28631 70.678047 
L 371.488667 74.600761 
L 371.691024 80.811724 
L 372.298096 119.671107 
L 373.107525 204.418069 
L 373.512239 226.585488 
L 373.714597 230.937248 
L 374.119311 230.242601 
L 374.321668 217.534643 
L 375.333454 113.991345 
L 375.738169 100.772617 
L 375.940526 98.075751 
L 376.142883 96.972488 
L 376.34524 102.14148 
L 376.749955 128.313336 
L 377.559383 187.072319 
L 377.964098 221.641234 
L 378.368812 235.411594 
L 378.57117 235.636332 
L 378.773527 229.7114 
L 378.975884 218.515321 
L 380.392384 102.12105 
L 380.797099 92.212111 
L 381.201813 84.632284 
L 381.40417 88.391551 
L 382.011242 125.35087 
L 382.820671 208.075182 
L 383.225385 224.154222 
L 383.427743 224.808008 
L 383.6301 219.475569 
L 384.034814 197.267289 
L 385.0466 123.941145 
L 385.451315 107.269611 
L 385.653672 106.799703 
L 385.856029 110.579401 
L 386.058386 118.20009 
L 387.070172 188.093859 
L 387.474887 228.158659 
L 387.879601 250.019616 
L 388.284316 259.152184 
L 388.68903 261.665173 
L 388.891387 255.924118 
L 389.700816 212.426943 
L 390.307888 201.230864 
L 390.914959 188.502475 
L 391.117316 193.283283 
L 391.926745 232.816882 
L 392.533817 276.967842 
L 392.938531 289.328477 
L 393.140888 291.18768 
L 393.343246 290.738202 
L 393.545603 291.208111 
L 393.74796 282.25942 
L 394.355032 241.132218 
L 395.569175 184.702346 
L 395.771532 178.695691 
L 395.973889 179.901108 
L 396.176247 188.216444 
L 396.783318 230.22217 
L 397.188033 268.713799 
L 397.592747 286.529457 
L 397.795104 289.308046 
L 397.997461 286.774627 
L 398.402176 268.652506 
L 400.628105 141.123448 
L 400.830462 143.963329 
L 401.03282 153.913129 
L 401.639891 210.915064 
L 402.044606 255.22947 
L 402.44932 275.537686 
L 402.651677 279.542123 
L 402.854034 277.887228 
L 403.258749 259.703816 
L 403.663463 231.305003 
L 404.877607 125.330439 
L 405.282321 104.817915 
L 405.484678 100.60917 
L 405.687035 101.692003 
L 405.889393 112.193434 
L 406.294107 149.540938 
L 406.901179 226.912381 
L 407.305893 250.959433 
L 407.50825 256.557472 
L 407.710607 256.026272 
L 408.115322 234.79867 
L 409.73418 102.590958 
L 409.936537 97.667135 
L 410.138894 97.524119 
L 410.341251 102.12105 
L 410.948323 138.201844 
L 411.15068 154.097007 
L 411.757752 224.644562 
L 412.162466 248.691614 
L 412.364823 255.168178 
L 412.56718 256.945658 
L 412.971895 238.905261 
L 414.388395 140.878279 
L 414.79311 127.353088 
L 415.197824 120.692647 
L 415.400181 127.455242 
L 416.20961 189.953062 
L 416.614325 235.145993 
L 417.019039 258.191936 
L 417.221396 262.441543 
L 417.423753 261.889911 
L 417.828468 245.749579 
L 419.244968 148.110782 
L 419.649683 134.5243 
L 419.85204 130.70374 
L 420.054397 132.133896 
L 420.256754 140.776125 
L 421.066183 205.929948 
L 421.673255 260.888802 
L 422.077969 276.926981 
L 422.280326 279.399108 
L 422.482684 278.745322 
L 422.685041 278.581876 
L 423.089755 247.915244 
L 423.899184 179.063445 
L 424.708613 139.877169 
L 424.91097 136.710395 
L 425.113327 140.694401 
L 425.518042 166.723242 
L 425.720399 178.470952 
L 426.529828 252.777774 
L 426.934542 271.267649 
L 427.136899 275.721564 
L 427.339257 276.518365 
L 427.541614 276.743104 
L 427.743971 268.182598 
L 428.148685 228.015644 
L 428.755757 166.41678 
L 429.160471 140.898709 
L 429.565186 132.685527 
L 429.9699 136.58781 
L 430.374615 152.728143 
L 430.576972 164.312407 
L 431.386401 239.926801 
L 431.791115 252.103558 
L 431.993472 250.080909 
L 432.398187 229.874847 
L 433.207616 165.109208 
L 434.017044 95.092854 
L 434.219402 90.230324 
L 435.02883 117.505443 
L 435.433545 142.369727 
L 436.040617 213.203313 
L 436.445331 235.615902 
L 436.647688 240.723602 
L 436.850045 240.049385 
L 437.25476 219.557292 
L 437.659474 184.824931 
L 438.468903 111.743957 
L 438.67126 102.059757 
L 438.873617 103.020005 
L 439.075975 110.089062 
L 439.278332 109.639584 
L 439.480689 111.866542 
L 439.885403 130.315555 
L 440.290118 154.934669 
L 440.897189 227.954351 
L 441.301904 250.142201 
L 441.504261 255.535932 
L 441.706618 256.067133 
L 442.111333 241.418249 
L 442.920762 189.687462 
L 443.527833 155.016393 
L 444.134905 132.399496 
L 444.337262 129.825215 
L 444.539619 136.199625 
L 445.146691 181.004371 
L 445.753762 249.794877 
L 446.158477 270.879464 
L 446.360834 275.803287 
L 446.563191 273.821499 
L 446.967906 255.025162 
L 448.586763 145.863394 
L 448.991478 132.74682 
L 449.193835 130.438139 
L 449.396192 137.057719 
L 450.003264 177.204242 
L 450.812693 256.782211 
L 451.217407 270.000939 
L 451.419764 270.123524 
L 451.824479 253.043375 
L 452.43155 202.92662 
L 453.038622 161.268218 
L 453.443336 144.331084 
L 453.848051 136.506087 
L 454.050408 139.856739 
L 454.252765 149.786108 
L 454.65748 178.021474 
L 454.859837 186.418533 
L 455.669266 250.755125 
L 456.07398 264.219023 
L 456.276337 265.730902 
L 456.478694 263.749114 
L 456.681052 260.664063 
L 456.883409 252.716482 
L 457.288123 225.87041 
L 457.692838 214.980793 
L 457.895195 215.67544 
L 458.299909 221.396064 
L 458.502267 221.253049 
L 458.906981 217.45292 
L 459.109338 217.984121 
L 459.514053 222.111142 
L 459.71641 226.38118 
L 460.728196 283.730437 
L 461.13291 288.12306 
L 461.537625 284.833701 
L 461.739982 275.966733 
L 462.144696 241.683849 
L 463.561197 172.954636 
L 463.763554 165.742563 
L 463.965911 166.907119 
L 464.572983 186.255087 
L 465.382412 252.798205 
L 465.584769 259.662954 
L 465.787126 262.35982 
L 465.989483 259.948985 
L 467.608341 168.010382 
L 468.620127 146.966657 
L 468.822484 150.072139 
L 469.429556 176.141841 
L 470.036627 232.489989 
L 470.441342 250.162632 
L 470.643699 252.777774 
L 470.846056 250.223924 
L 471.857842 199.637262 
L 472.869628 169.583554 
L 473.071985 170.073893 
L 473.274343 168.296413 
L 473.4767 169.542692 
L 473.679057 173.301959 
L 473.881414 179.839816 
L 474.083772 180.98394 
L 474.286129 188.604629 
L 474.8932 240.376278 
L 475.297915 256.516611 
L 475.500272 258.171506 
L 475.702629 256.148856 
L 476.107344 231.938358 
L 476.512058 210.077401 
L 477.321487 178.797845 
L 477.726201 158.77566 
L 477.928558 155.241132 
L 478.333273 159.899354 
L 478.53563 164.332838 
L 479.142702 189.094968 
L 479.952131 256.414457 
L 480.356845 266.20081 
L 480.559202 265.792194 
L 480.963917 243.849514 
L 482.785131 116.320456 
L 482.987489 110.456816 
L 483.189846 107.841674 
L 483.392203 113.439713 
L 483.999275 153.034605 
L 484.606346 223.663883 
L 485.011061 246.730257 
L 485.213418 251.102449 
L 485.415775 252.042265 
L 485.82049 232.408266 
L 486.225204 201.414741 
L 487.23699 112.050419 
L 487.439347 108.985799 
L 487.844062 115.503224 
L 488.248776 133.993099 
L 489.260562 210.996787 
L 489.665277 242.930128 
L 490.069991 257.926336 
L 490.272348 260.255447 
L 490.474705 259.131753 
L 490.677063 257.374704 
L 490.87942 247.710936 
L 491.891206 168.541583 
L 492.29592 150.950663 
L 492.498277 143.616006 
L 492.700635 141.613787 
L 492.902992 143.227821 
L 493.105349 148.008628 
L 493.712421 181.290402 
L 494.52185 252.777774 
L 495.128921 270.920325 
L 495.331278 271.063341 
L 495.533636 270.450417 
L 495.735993 262.952313 
L 496.950136 172.096542 
L 497.557208 147.906474 
L 497.759565 144.576254 
L 497.961922 147.763458 
L 498.568994 179.043014 
L 499.378422 252.328297 
L 499.58078 259.111323 
L 499.783137 261.583449 
L 499.985494 258.294091 
L 500.187851 249.835739 
L 500.794923 213.182882 
L 500.99728 208.116044 
L 501.401995 195.122055 
L 501.806709 183.946407 
L 502.009066 183.496929 
L 502.211423 185.540009 
L 502.413781 186.173364 
L 502.616138 184.518469 
L 503.020852 194.161807 
L 503.223209 194.713439 
L 503.425567 202.170681 
L 504.032638 252.491743 
L 504.437353 265.465302 
L 504.63971 267.079335 
L 504.842067 264.729793 
L 505.246782 240.539725 
L 505.651496 216.901288 
L 507.270354 144.290222 
L 507.472711 141.205171 
L 507.675068 144.576254 
L 508.28214 172.403004 
L 508.889211 229.997431 
L 509.293926 246.995858 
L 509.496283 250.489525 
L 509.69864 248.671183 
L 510.103354 225.298347 
L 511.722212 119.711969 
L 512.126927 102.080188 
L 512.329284 103.65336 
L 512.936355 137.772797 
L 513.34107 176.427872 
L 513.745784 219.577723 
L 514.150499 242.133327 
L 514.352856 247.670074 
L 514.555213 248.160413 
L 514.75757 239.334307 
L 516.174071 143.289113 
L 516.376428 142.206281 
L 516.781142 151.461433 
L 516.9835 148.744137 
L 517.185857 149.275338 
L 517.590571 166.845826 
L 517.792928 171.054571 
L 517.995286 181.678588 
L 518.4 221.048741 
L 518.4 221.048741 
" clip-path="url(#p0ddba8e205)" style="fill: none; stroke: #1f77b4; stroke-width: 1.5; stroke-linecap: square"/>
   </g>
   <g id="line2d_14">
    <path d="M 72 279.5329 
L 72.202357 279.5329 
L 72.809429 287.582557 
L 73.011786 283.752858 
L 75.237715 166.048655 
L 75.440073 164.262633 
L 75.64243 167.944653 
L 76.047144 183.945173 
L 76.451859 228.386115 
L 76.856573 268.872283 
L 77.261287 283.095888 
L 77.463645 283.125541 
L 77.666002 277.099866 
L 78.273073 234.223036 
L 78.677788 222.893619 
L 79.082502 201.388457 
L 79.689574 163.404337 
L 79.891931 154.915651 
L 80.094288 154.275227 
L 80.296646 160.285104 
L 80.70136 181.466631 
L 81.308432 236.841292 
L 81.713146 268.221172 
L 81.915503 277.820863 
L 82.320218 283.404731 
L 82.522575 280.42571 
L 83.939075 226.747226 
L 84.141432 225.208738 
L 84.546147 230.003293 
L 84.950861 240.214923 
L 85.355576 248.040778 
L 85.557933 254.744669 
L 85.76029 256.678307 
L 85.962647 262.140983 
L 86.772076 305.563598 
L 86.974433 307.8 
L 87.176791 306.519797 
L 87.783862 287.465641 
L 88.188577 271.758157 
L 88.593291 256.888356 
L 88.795648 254.628259 
L 89.200363 253.899784 
L 89.40272 253.763692 
L 89.605077 253.212169 
L 90.212149 238.237877 
L 90.616863 241.992402 
L 90.81922 249.771141 
L 91.628649 303.6997 
L 91.831006 304.746737 
L 92.033364 303.080308 
L 92.235721 296.211192 
L 93.04515 247.682076 
L 93.652221 240.497142 
L 93.854578 241.463478 
L 94.259293 234.655708 
L 94.664007 228.893483 
L 94.866364 229.075272 
L 95.068722 229.010404 
L 95.473436 240.155699 
L 95.87815 268.205135 
L 96.282865 297.39414 
L 96.485222 301.864226 
L 96.889937 295.543343 
L 97.092294 287.929746 
L 97.699365 249.326272 
L 97.901723 246.067499 
L 98.10408 244.944368 
L 98.913509 236.176007 
L 99.318223 226.594682 
L 99.52058 224.749845 
L 99.722937 225.212671 
L 99.925295 227.139413 
L 100.127652 232.243495 
L 100.532366 252.795537 
L 101.139438 295.676264 
L 101.341795 300.500515 
L 101.74651 296.148964 
L 101.948867 289.351893 
L 102.555938 249.420839 
L 102.758296 248.201427 
L 103.567724 239.715217 
L 103.770082 236.159834 
L 104.174796 222.01947 
L 104.377153 219.223067 
L 104.781868 222.327918 
L 104.984225 228.341333 
L 105.388939 251.281904 
L 105.996011 292.901477 
L 106.198368 298.313525 
L 106.603083 295.435284 
L 106.80544 288.787629 
L 107.412511 248.789609 
L 107.817226 243.332093 
L 108.019583 240.807074 
L 108.22194 236.454747 
L 108.424297 229.621616 
L 109.031369 200.436112 
L 109.233726 200.665486 
L 109.840798 218.451868 
L 111.054941 294.309176 
L 111.257298 294.137468 
L 111.459655 291.501076 
L 111.662013 286.080253 
L 112.269084 248.008681 
L 112.876156 224.926822 
L 113.483228 195.189988 
L 113.887942 179.686617 
L 114.090299 178.474016 
L 114.292656 181.870814 
L 114.495014 187.174979 
L 114.899728 207.576646 
L 115.5068 262.595903 
L 115.911514 283.035628 
L 116.316228 286.462506 
L 116.518586 281.13316 
L 117.530372 234.773552 
L 118.339801 172.849421 
L 118.744515 153.933548 
L 118.946872 149.363508 
L 119.149229 150.008575 
L 119.351587 155.966641 
L 119.756301 182.942913 
L 120.768087 273.128242 
L 120.970444 280.15133 
L 121.172801 282.994135 
L 121.375159 282.944039 
L 121.577516 277.841095 
L 121.98223 258.94474 
L 122.791659 208.479458 
L 123.398731 194.21321 
L 123.601088 193.537747 
L 123.803445 195.140718 
L 124.005802 198.021295 
L 124.410517 211.647523 
L 124.815231 232.856673 
L 125.422303 284.669438 
L 125.62466 294.079684 
L 125.827017 297.62107 
L 126.029374 296.313728 
L 126.231732 290.407054 
L 127.648232 195.35736 
L 128.052947 173.390481 
L 128.457661 156.660759 
L 128.660018 152.430102 
L 128.862375 155.248312 
L 129.26709 186.209136 
L 130.278876 283.392319 
L 130.481233 286.407446 
L 130.68359 286.186245 
L 130.885947 283.178999 
L 131.088305 276.139782 
L 131.897733 221.111349 
L 132.504805 183.390113 
L 133.111877 145.609796 
L 133.314234 138.012732 
L 133.516591 136.447244 
L 133.718948 142.642908 
L 134.123663 165.940878 
L 134.32602 179.130542 
L 135.337806 275.549472 
L 135.540163 277.4205 
L 135.74252 276.618763 
L 135.944878 267.732503 
L 136.349592 232.7496 
L 136.754306 205.831102 
L 136.956664 196.56966 
L 137.159021 196.089113 
L 137.361378 192.895228 
L 137.563735 193.321842 
L 137.766092 192.502101 
L 137.96845 190.490137 
L 138.170807 191.258917 
L 138.373164 196.950821 
L 138.575521 198.90996 
L 138.980236 210.578815 
L 139.182593 217.415716 
L 139.992022 282.09433 
L 140.194379 285.735483 
L 140.396736 285.566195 
L 140.599093 284.738945 
L 140.801451 278.073361 
L 141.408522 230.879425 
L 142.015594 208.528286 
L 142.217951 207.908532 
L 142.420308 208.56512 
L 142.622665 208.843357 
L 142.825023 206.909055 
L 143.02738 207.416735 
L 143.229737 209.119329 
L 143.836809 222.045935 
L 144.241523 240.140386 
L 144.848595 278.18839 
L 145.050952 284.389149 
L 145.455666 280.401035 
L 145.658024 274.052399 
L 146.265095 229.06488 
L 146.66981 217.90003 
L 147.074524 210.685352 
L 147.276881 210.780265 
L 147.681596 203.861875 
L 148.491024 223.553215 
L 148.895739 237.442966 
L 149.705168 279.729569 
L 149.907525 284.395268 
L 150.312239 283.26535 
L 150.514597 278.289356 
L 150.919311 259.733562 
L 151.324025 249.900202 
L 151.931097 231.291697 
L 152.133454 227.504989 
L 152.335811 228.249518 
L 153.14524 236.87545 
L 153.347597 236.901621 
L 153.549955 237.661881 
L 153.752312 241.15449 
L 154.157026 255.084116 
L 154.764098 283.941229 
L 155.168812 288.810641 
L 155.37117 284.88627 
L 156.180598 249.817789 
L 156.585313 221.527546 
L 156.990027 191.530778 
L 157.799456 161.699062 
L 158.001813 159.61944 
L 158.20417 162.21778 
L 158.608885 183.823287 
L 159.013599 225.006279 
L 159.418314 264.361126 
L 159.823028 284.015819 
L 160.025385 283.48899 
L 160.227743 277.029142 
L 161.441886 192.789632 
L 161.8466 180.68808 
L 162.251315 171.63296 
L 162.453672 170.355848 
L 162.656029 173.111632 
L 163.060743 190.153715 
L 163.465458 210.071148 
L 164.477244 285.132494 
L 164.679601 284.973409 
L 164.881958 282.494401 
L 165.084316 276.157116 
L 165.893744 223.083101 
L 166.703173 203.903428 
L 167.512602 168.29323 
L 167.714959 174.860507 
L 168.524388 227.278027 
L 168.929102 259.834578 
L 169.333817 279.276051 
L 169.536174 280.731568 
L 169.738531 280.465274 
L 169.940888 273.908277 
L 171.357389 174.574739 
L 171.762103 162.724781 
L 172.166818 154.089896 
L 172.369175 153.956225 
L 172.571532 160.802537 
L 173.178604 198.661793 
L 173.380961 213.561097 
L 173.988033 273.367825 
L 174.19039 283.619031 
L 174.392747 286.057874 
L 174.595104 283.560111 
L 174.797461 276.346027 
L 175.404533 229.699375 
L 177.023391 169.459155 
L 177.225748 166.372681 
L 177.630462 178.051923 
L 178.237534 223.808334 
L 178.844606 280.172145 
L 179.046963 289.603274 
L 179.24932 291.154755 
L 179.451677 291.370967 
L 179.654034 284.575801 
L 181.272892 176.417704 
L 181.879964 152.646177 
L 182.082321 150.991534 
L 182.284678 153.35519 
L 182.487035 161.30839 
L 183.094107 208.688658 
L 183.701179 261.041028 
L 183.903536 268.548688 
L 184.105893 270.967367 
L 184.510607 268.413422 
L 184.712965 261.8229 
L 185.117679 239.79987 
L 186.129465 150.647007 
L 186.53418 141.682365 
L 186.736537 144.212299 
L 186.938894 150.560246 
L 188.760109 263.45841 
L 188.962466 268.984885 
L 189.164823 270.007916 
L 189.36718 267.116847 
L 189.771895 252.227395 
L 190.176609 223.965999 
L 191.188395 158.134143 
L 191.390752 155.977005 
L 191.59311 159.259996 
L 191.997824 172.084604 
L 192.807253 211.871188 
L 193.616682 266.962727 
L 193.819039 273.653451 
L 194.021396 275.280447 
L 194.223753 273.101873 
L 194.628468 256.108861 
L 195.033182 229.854713 
L 195.640254 193.366541 
L 195.842611 190.071879 
L 196.044968 191.986402 
L 196.65204 209.194821 
L 196.854397 209.668279 
L 197.056754 212.224299 
L 197.461469 221.220339 
L 197.663826 230.630582 
L 198.270898 276.476658 
L 198.473255 285.143311 
L 198.675612 288.505305 
L 198.877969 285.689143 
L 199.080326 278.172167 
L 200.092112 204.47756 
L 200.496827 192.232774 
L 200.699184 187.660275 
L 201.103898 172.319489 
L 201.306256 168.279884 
L 201.508613 167.144083 
L 201.71097 168.144419 
L 201.913327 174.754012 
L 202.318042 199.300808 
L 203.329828 273.320182 
L 203.532185 273.555092 
L 203.734542 270.442357 
L 203.936899 264.684993 
L 204.543971 213.096422 
L 204.948685 198.722116 
L 206.162829 165.360714 
L 206.567543 177.422943 
L 207.174615 202.274058 
L 208.186401 271.038954 
L 208.388758 272.273412 
L 208.591115 270.470191 
L 208.793472 264.329165 
L 209.602901 205.646747 
L 210.007616 192.620332 
L 210.817044 156.189425 
L 211.221759 140.417379 
L 211.424116 144.830258 
L 212.031188 183.881748 
L 212.840617 256.26933 
L 213.042974 265.593741 
L 213.245331 268.435788 
L 213.447688 265.861754 
L 213.650045 258.151846 
L 214.459474 200.147243 
L 214.864189 177.389871 
L 215.47126 136.760258 
L 215.875975 117.133267 
L 216.078332 115.579689 
L 216.280689 120.695636 
L 216.483046 129.800707 
L 217.292475 200.68888 
L 217.697189 241.562647 
L 218.101904 256.967942 
L 218.304261 257.183995 
L 218.506618 254.592357 
L 218.911333 237.147274 
L 219.518404 198.921875 
L 219.923119 169.337129 
L 220.327833 152.304815 
L 220.53019 149.922944 
L 220.732548 154.890963 
L 222.958477 279.224163 
L 223.160834 279.062719 
L 223.363191 275.932451 
L 223.767906 261.991617 
L 224.17262 237.741674 
L 224.577335 213.550395 
L 224.779692 208.074605 
L 224.982049 208.659294 
L 225.791478 226.165682 
L 226.196192 231.082801 
L 226.600907 239.383279 
L 226.803264 246.971881 
L 227.612693 297.423377 
L 227.81505 300.682419 
L 228.017407 299.835093 
L 228.219764 293.545383 
L 229.029193 242.035481 
L 229.433908 236.103036 
L 229.838622 226.459293 
L 230.648051 188.672415 
L 230.850408 188.315125 
L 231.052765 191.487171 
L 231.255122 197.661878 
L 231.659837 225.63834 
L 232.266908 281.410358 
L 232.469266 289.910373 
L 232.671623 291.552766 
L 232.87398 289.9321 
L 233.076337 284.905769 
L 233.683409 241.191729 
L 235.302267 178.985259 
L 235.504624 177.688765 
L 235.909338 188.754773 
L 236.314053 210.98061 
L 237.325839 286.747946 
L 237.528196 287.464642 
L 237.730553 285.203782 
L 237.93291 278.796723 
L 238.742339 230.436628 
L 239.551768 199.801055 
L 239.956482 193.524652 
L 240.15884 191.914729 
L 240.361197 192.151483 
L 240.765911 200.506212 
L 241.170626 222.596 
L 241.980054 282.285667 
L 242.182412 287.482795 
L 242.384769 288.897761 
L 242.587126 288.091767 
L 242.789483 283.043373 
L 243.396555 242.483565 
L 244.003626 222.279212 
L 244.408341 202.254233 
L 244.813055 186.732686 
L 245.015413 181.792838 
L 245.21777 180.389725 
L 245.420127 182.702082 
L 245.622484 187.612293 
L 246.027199 209.695167 
L 247.038985 284.052212 
L 247.241342 286.95442 
L 247.443699 286.639068 
L 247.646056 281.597612 
L 248.860199 199.45387 
L 249.467271 155.6337 
L 249.871985 140.875595 
L 250.074343 143.357507 
L 250.479057 159.364555 
L 250.883772 189.651545 
L 251.895558 268.132103 
L 252.097915 271.268589 
L 252.300272 270.375021 
L 252.502629 268.11315 
L 252.907344 250.468599 
L 253.312058 222.990648 
L 254.121487 154.371296 
L 254.526201 143.430254 
L 254.728558 143.265744 
L 254.930916 145.403731 
L 255.133273 150.216141 
L 255.537987 172.410696 
L 256.347416 239.717982 
L 256.752131 268.240199 
L 256.954488 274.769741 
L 257.156845 276.061053 
L 257.359202 274.856613 
L 257.763917 259.057543 
L 258.370988 215.31909 
L 258.97806 179.229444 
L 259.382774 167.988545 
L 259.585131 168.161827 
L 259.787489 168.161529 
L 259.989846 169.810233 
L 260.39456 183.08172 
L 260.799275 209.212522 
L 261.608704 276.589142 
L 261.811061 282.648521 
L 262.013418 282.95979 
L 262.215775 278.430363 
L 262.62049 248.181872 
L 263.025204 217.631539 
L 263.227561 211.439311 
L 263.429918 210.64279 
L 263.632276 212.947794 
L 264.03699 223.156846 
L 264.441704 227.118529 
L 264.644062 227.505236 
L 264.846419 226.657965 
L 265.251133 236.136298 
L 265.655848 254.896784 
L 266.262919 290.431878 
L 266.465277 294.459263 
L 266.667634 293.731297 
L 267.072348 285.341475 
L 267.881777 243.752008 
L 268.286491 230.415256 
L 268.691206 219.708883 
L 269.09592 212.593605 
L 269.298277 210.098723 
L 269.500635 210.71029 
L 269.702992 214.176239 
L 270.512421 237.892177 
L 271.32185 283.85005 
L 271.524207 284.620007 
L 271.726564 282.667623 
L 271.928921 276.887564 
L 272.535993 235.357848 
L 272.940707 217.871878 
L 274.357208 145.419861 
L 274.559565 144.841404 
L 274.761922 146.938207 
L 274.964279 155.794039 
L 275.368994 184.976406 
L 275.976065 249.755459 
L 276.178422 260.484323 
L 276.38078 263.164431 
L 276.583137 261.816508 
L 276.785494 255.808433 
L 277.79728 185.866347 
L 278.606709 144.530445 
L 279.011423 136.59609 
L 279.213781 138.291066 
L 279.416138 142.104722 
L 279.618495 148.299877 
L 280.225567 197.258539 
L 280.832638 259.243575 
L 281.034995 270.278555 
L 281.237353 274.694269 
L 281.43971 272.537801 
L 281.642067 266.691065 
L 282.046782 242.865217 
L 282.451496 218.801863 
L 283.058568 182.260567 
L 283.867996 156.280039 
L 284.070354 155.910818 
L 284.272711 160.210694 
L 284.677425 183.946179 
L 285.891568 280.961737 
L 286.093926 284.661854 
L 286.296283 285.219583 
L 286.49864 283.053011 
L 286.903354 267.181086 
L 287.712783 211.269847 
L 288.117498 179.229559 
L 288.522212 163.366602 
L 288.926927 156.36616 
L 289.129284 159.390869 
L 289.533998 178.735876 
L 289.938713 206.951143 
L 290.545784 260.432391 
L 290.950499 278.164652 
L 291.152856 278.806063 
L 291.355213 277.668499 
L 291.55757 271.99249 
L 291.759927 261.892501 
L 292.366999 206.390993 
L 292.771714 169.834406 
L 293.176428 144.249473 
L 293.378785 138.112705 
L 293.581142 136.101153 
L 293.7835 135.839458 
L 293.985857 138.456326 
L 294.188214 145.573795 
L 294.795286 184.700428 
L 295.604714 254.820413 
L 295.807072 263.366015 
L 296.009429 265.485644 
L 296.211786 261.336249 
L 296.6165 228.856391 
L 297.223572 164.68648 
L 297.830644 106.331563 
L 298.235358 87.38376 
L 298.437715 85.740393 
L 298.640073 86.858221 
L 298.84243 90.024347 
L 299.247144 109.250944 
L 299.854216 173.568823 
L 300.25893 218.932768 
L 300.663645 233.954759 
L 300.866002 232.286118 
L 301.068359 227.206751 
L 301.473073 196.077542 
L 302.889574 70.436095 
L 303.091931 69.294497 
L 303.496646 89.715933 
L 304.103717 137.733387 
L 305.31786 239.709604 
L 305.520218 245.452321 
L 305.722575 245.109823 
L 305.924932 240.260376 
L 306.127289 228.912909 
L 306.936718 165.226013 
L 307.54379 127.961751 
L 307.746147 124.843449 
L 307.948504 119.639662 
L 308.150861 119.739201 
L 308.555576 140.260503 
L 309.162647 177.869919 
L 309.972076 248.927693 
L 310.174433 259.945852 
L 310.376791 264.53904 
L 310.579148 262.466756 
L 310.781505 256.151949 
L 311.388577 207.840108 
L 312.400363 123.84472 
L 312.60272 119.214804 
L 312.805077 118.416046 
L 313.007434 119.836524 
L 313.209791 124.558996 
L 313.614506 146.535275 
L 314.221578 186.669114 
L 314.828649 239.549954 
L 315.233364 255.053235 
L 315.435721 253.345065 
L 315.638078 245.766147 
L 316.24515 199.677256 
L 316.649864 190.962918 
L 317.054578 182.312949 
L 317.256936 180.703837 
L 317.459293 180.493142 
L 317.66165 178.728212 
L 318.471079 190.576818 
L 319.07815 222.831562 
L 319.685222 263.660267 
L 320.089937 273.338006 
L 320.292294 274.89123 
L 320.494651 273.448392 
L 320.899365 256.31815 
L 321.506437 223.122413 
L 322.315866 168.656546 
L 322.518223 161.095648 
L 322.72058 158.593271 
L 322.922937 157.777173 
L 323.125295 160.059965 
L 323.530009 174.632616 
L 324.744152 263.167168 
L 324.94651 268.483227 
L 325.148867 269.067077 
L 325.351224 268.614745 
L 325.553581 263.322995 
L 325.958296 242.793025 
L 327.172439 138.690212 
L 327.374796 133.504392 
L 327.577153 133.333125 
L 327.77951 135.429823 
L 327.981868 138.961316 
L 328.184225 145.857311 
L 328.588939 174.150442 
L 329.600725 263.306903 
L 329.803083 269.857935 
L 330.00544 268.878147 
L 330.207797 264.040572 
L 330.410154 252.909917 
L 331.42194 165.78165 
L 331.826655 147.2612 
L 332.029012 141.623538 
L 332.231369 140.120105 
L 332.636083 150.433793 
L 333.040798 165.173652 
L 333.850227 225.184565 
L 334.254941 260.020293 
L 334.457298 270.271865 
L 334.659655 273.473489 
L 334.862013 273.067007 
L 335.06437 268.299616 
L 335.469084 241.145646 
L 335.873799 213.528113 
L 336.683228 183.897747 
L 336.885585 181.178141 
L 337.087942 180.787146 
L 337.290299 178.960692 
L 337.492656 179.256232 
L 337.897371 190.596654 
L 338.302085 211.819342 
L 339.516228 280.558792 
L 339.718586 278.253932 
L 339.920943 271.453535 
L 340.325657 239.728706 
L 340.730372 214.381104 
L 342.146872 157.841095 
L 342.349229 153.812891 
L 342.551587 153.964553 
L 342.753944 157.137369 
L 342.956301 165.527315 
L 343.563373 211.881384 
L 343.968087 246.896462 
L 344.170444 256.602981 
L 344.372801 259.150758 
L 344.575159 257.009292 
L 344.777516 250.805787 
L 345.18223 219.862883 
L 346.194016 137.155953 
L 346.598731 116.998727 
L 346.801088 112.674222 
L 347.003445 110.770258 
L 347.205802 112.161226 
L 347.610517 125.203081 
L 348.015231 151.685131 
L 348.622303 213.0699 
L 349.027017 243.095858 
L 349.229374 250.433286 
L 349.431732 248.847406 
L 349.634089 243.360768 
L 349.836446 234.398062 
L 351.050589 136.095562 
L 351.455304 117.421363 
L 351.657661 112.005126 
L 352.062375 109.314878 
L 352.264733 114.487752 
L 352.46709 122.714355 
L 352.669447 136.040036 
L 353.88359 253.131063 
L 354.085947 260.13188 
L 354.288305 260.43375 
L 354.490662 256.156591 
L 354.693019 249.524079 
L 355.097733 223.29492 
L 355.502448 185.17804 
L 356.109519 121.679457 
L 356.311877 113.126343 
L 356.716591 107.704397 
L 356.918948 107.748733 
L 357.121306 112.366863 
L 357.52602 135.152315 
L 358.740163 247.460509 
L 358.94252 255.358354 
L 359.144878 257.900207 
L 359.347235 255.462491 
L 359.549592 249.074869 
L 359.954306 219.103677 
L 361.16845 99.811318 
L 361.370807 95.4869 
L 361.573164 94.036838 
L 361.775521 94.803741 
L 361.977879 96.269603 
L 362.382593 116.611285 
L 363.596736 231.50129 
L 363.799093 241.54259 
L 364.001451 244.787923 
L 364.203808 239.986845 
L 364.406165 226.492424 
L 365.215594 133.613885 
L 365.822665 68.40191 
L 366.025023 59.132323 
L 366.22738 55.8 
L 366.429737 56.031323 
L 366.632094 58.60753 
L 366.834451 63.711076 
L 367.036809 73.354787 
L 367.441523 110.53307 
L 368.453309 207.148167 
L 368.655666 216.441242 
L 368.858024 219.245313 
L 369.060381 214.694734 
L 369.465095 187.706112 
L 370.072167 129.106843 
L 370.679238 72.875558 
L 371.083953 61.627268 
L 371.28631 63.014736 
L 371.488667 69.460235 
L 371.893382 93.811547 
L 373.512239 224.362013 
L 373.714597 227.043717 
L 373.916954 224.011092 
L 374.524025 194.87641 
L 374.92874 158.282579 
L 375.535811 99.275651 
L 375.738169 94.687924 
L 375.940526 92.629883 
L 376.142883 93.350241 
L 376.34524 98.733096 
L 376.547597 108.197025 
L 378.368812 238.205941 
L 378.57117 240.224446 
L 378.773527 236.78389 
L 378.975884 226.080585 
L 380.392384 97.950864 
L 380.594742 91.271919 
L 380.797099 89.137097 
L 381.40417 94.69485 
L 381.606528 102.061472 
L 381.808885 114.976079 
L 382.820671 210.04079 
L 383.225385 226.216025 
L 383.427743 226.747986 
L 383.6301 221.591878 
L 384.034814 193.481711 
L 384.237171 176.49019 
L 384.237171 176.49019 
" clip-path="url(#p0ddba8e205)" style="fill: none; stroke: #ff7f0e; stroke-width: 1.5; stroke-linecap: square"/>
   </g>
   <g id="line2d_15">
    <path d="M 384.439529 162.607233 
L 385.248957 117.684226 
L 385.653672 108.631496 
L 385.856029 107.92077 
L 386.058386 111.533984 
L 386.463101 133.786655 
L 387.879601 241.245116 
L 388.081958 245.358362 
L 388.284316 244.768132 
L 388.486673 240.928367 
L 388.891387 222.727203 
L 390.10553 155.112537 
L 390.510245 145.576457 
L 390.712602 147.551251 
L 391.117316 159.59268 
L 391.724388 194.65728 
L 392.533817 246.03848 
L 392.938531 259.898208 
L 393.140888 260.766579 
L 393.343246 258.220187 
L 393.74796 242.306799 
L 394.759746 187.955016 
L 395.164461 177.026536 
L 395.366818 175.673744 
L 395.569175 176.930364 
L 395.771532 180.059676 
L 396.378604 200.931319 
L 396.985675 232.801791 
L 397.592747 257.879569 
L 397.795104 262.147984 
L 397.997461 263.387047 
L 398.199819 261.44378 
L 398.604533 247.433351 
L 399.616319 200.466283 
L 400.021034 192.365719 
L 400.223391 190.818196 
L 400.425748 191.790146 
L 400.830462 199.119311 
L 401.235177 210.664632 
L 402.44932 256.548377 
L 402.651677 258.995393 
L 402.854034 258.455929 
L 403.056392 255.430754 
L 403.461106 241.905397 
L 404.270535 205.56002 
L 404.675249 196.036043 
L 404.877607 193.438425 
L 405.079964 193.178446 
L 405.282321 194.797093 
L 405.687035 202.488 
L 406.09175 213.75385 
L 407.103536 248.893945 
L 407.305893 252.435163 
L 407.50825 253.760477 
L 407.710607 252.430707 
L 407.912965 248.428515 
L 408.317679 234.300234 
L 408.924751 209.128082 
L 409.329465 199.647766 
L 409.531822 197.049812 
L 409.73418 196.187187 
L 409.936537 197.244163 
L 410.341251 203.444231 
L 410.745966 212.462406 
L 412.162466 249.715144 
L 412.364823 249.850107 
L 412.56718 247.661246 
L 412.971895 236.736575 
L 413.781324 208.537454 
L 414.186038 201.900434 
L 414.388395 200.51244 
L 414.590752 200.873553 
L 414.79311 202.33951 
L 415.197824 207.970553 
L 415.804896 222.006229 
L 416.614325 242.677935 
L 416.816682 245.576445 
L 417.019039 246.736701 
L 417.221396 245.869353 
L 417.423753 242.885998 
L 417.828468 231.900454 
L 418.435539 212.336436 
L 418.840254 205.515782 
L 419.042611 203.708093 
L 419.244968 203.473894 
L 419.447325 204.301542 
L 419.85204 208.124193 
L 420.459112 219.66023 
L 421.470898 241.496767 
L 421.673255 243.311566 
L 421.875612 243.361844 
L 422.077969 241.63025 
L 422.482684 232.987806 
L 423.292112 211.448026 
L 423.696827 206.601423 
L 423.899184 205.841346 
L 424.101541 206.181632 
L 424.303898 207.175893 
L 424.708613 211.21838 
L 425.720399 230.515318 
L 426.125113 237.83088 
L 426.327471 240.008346 
L 426.529828 240.756094 
L 426.732185 239.88902 
L 426.934542 237.403729 
L 427.339257 228.664532 
L 427.946328 214.241528 
L 428.351043 209.383939 
L 428.5534 208.229595 
L 428.755757 208.134783 
L 428.958114 208.732964 
L 429.362829 211.697781 
L 429.9699 220.616198 
L 430.779329 234.648658 
L 431.184044 238.147039 
L 431.386401 237.947472 
L 431.588758 236.356388 
L 431.993472 229.480757 
L 432.802901 213.684971 
L 433.207616 210.589627 
L 433.409973 210.109568 
L 433.61233 210.433773 
L 433.814687 211.294126 
L 434.219402 214.554049 
L 435.02883 225.928565 
L 435.635902 234.198062 
L 435.838259 235.62072 
L 436.040617 235.918985 
L 436.242974 234.978024 
L 436.647688 229.69569 
L 437.457117 215.655204 
L 437.861831 212.604729 
L 438.064189 211.932211 
L 438.266546 212.055668 
L 438.468903 212.717379 
L 438.873617 215.260215 
L 439.480689 221.818983 
L 440.290118 231.776478 
L 440.492475 233.295138 
L 440.694832 233.901382 
L 440.897189 233.470119 
L 441.099547 231.973835 
L 441.504261 226.44095 
L 442.111333 217.207092 
L 442.516047 214.094427 
L 442.718404 213.56979 
L 442.920762 213.53534 
L 443.123119 214.07883 
L 443.527833 216.192452 
L 443.932548 219.314629 
L 445.146691 231.13563 
L 445.349048 231.953571 
L 445.551405 231.904961 
L 445.753762 230.912273 
L 446.158477 226.502394 
L 446.967906 216.477378 
L 447.170263 215.296496 
L 447.37262 214.774417 
L 447.574977 214.757327 
L 447.777335 215.197461 
L 448.182049 216.975318 
L 448.789121 220.897736 
L 449.800907 229.159364 
L 450.003264 230.062582 
L 450.205621 230.299222 
L 450.407978 229.706748 
L 450.812693 226.262167 
L 451.622121 217.3332 
L 451.824479 216.209143 
L 452.026836 215.714787 
L 452.229193 215.69067 
L 452.43155 216.046511 
L 452.836265 217.621037 
L 453.645694 221.9762 
L 454.65748 228.324235 
L 454.859837 228.733411 
L 455.062194 228.475268 
L 455.264551 227.483341 
L 455.669266 223.807651 
L 456.276337 217.984483 
L 456.681052 216.463907 
L 456.883409 216.426274 
L 457.085766 216.681264 
L 457.490481 218.094014 
L 458.704624 223.700962 
L 459.311695 226.752534 
L 459.514053 227.241795 
L 459.71641 227.213553 
L 459.918767 226.539757 
L 460.323481 223.602928 
L 460.930553 218.475318 
L 461.335267 217.007371 
L 461.537625 216.949826 
L 461.739982 217.156745 
L 462.144696 218.337889 
L 464.168268 225.841642 
L 464.370626 225.947186 
L 464.572983 225.523731 
L 464.977697 223.240762 
L 465.787126 217.92034 
L 465.989483 217.43829 
L 466.19184 217.329094 
L 466.394198 217.499363 
L 466.798912 218.470941 
L 467.608341 220.754291 
L 468.41777 223.455628 
L 468.822484 224.579435 
L 469.024841 224.73214 
L 469.227199 224.48996 
L 469.631913 222.784458 
L 470.441342 218.269953 
L 470.643699 217.804519 
L 470.846056 217.657415 
L 471.048413 217.770329 
L 471.453128 218.573874 
L 472.060199 220.062121 
L 472.667271 221.419634 
L 473.4767 223.487676 
L 473.679057 223.652331 
L 473.881414 223.522245 
L 474.083772 223.066559 
L 474.488486 221.321205 
L 475.095558 218.581359 
L 475.297915 218.114594 
L 475.500272 217.943823 
L 475.702629 218.002394 
L 476.107344 218.656017 
L 476.916772 220.199248 
L 477.523844 221.376548 
L 478.130916 222.597993 
L 478.333273 222.759438 
L 478.53563 222.717185 
L 478.737987 222.420448 
L 479.142702 221.095323 
L 479.749773 218.835167 
L 480.154488 218.210361 
L 480.356845 218.232739 
L 480.761559 218.740847 
L 481.570988 219.993701 
L 482.17806 220.894575 
L 482.785131 221.874444 
L 482.987489 222.048714 
L 483.189846 222.057142 
L 483.392203 221.871898 
L 483.796917 220.888729 
L 484.403989 219.046601 
L 484.808704 218.468257 
L 485.011061 218.458994 
L 485.415775 218.84775 
L 486.225204 219.859826 
L 486.832276 220.539031 
L 487.641704 221.493975 
L 487.844062 221.538321 
L 488.046419 221.430867 
L 488.451133 220.711043 
L 489.260562 218.895642 
L 489.462919 218.706425 
L 489.665277 218.67739 
L 490.069991 218.97083 
L 490.87942 219.783918 
L 491.486491 220.286138 
L 492.29592 221.064754 
L 492.498277 221.131809 
L 492.700635 221.075644 
L 493.105349 220.557243 
L 493.914778 219.09186 
L 494.319492 218.878125 
L 494.724207 219.091826 
L 495.533636 219.74188 
L 496.343064 220.263113 
L 497.152493 220.809865 
L 497.557208 220.659063 
L 498.164279 219.790053 
L 498.568994 219.248874 
L 498.973708 219.050417 
L 499.378422 219.205064 
L 500.390209 219.804914 
L 501.199637 220.239095 
L 501.806709 220.563241 
L 502.211423 220.48073 
L 502.616138 220.078249 
L 503.223209 219.375165 
L 503.627924 219.19506 
L 504.032638 219.303612 
L 505.044424 219.781726 
L 505.853853 220.105507 
L 506.460925 220.374094 
L 506.865639 220.335968 
L 507.270354 220.034682 
L 508.079782 219.362661 
L 508.484497 219.328984 
L 511.519855 220.219335 
L 512.126927 219.838431 
L 512.733998 219.456256 
L 513.138713 219.41968 
L 515.364642 220.015937 
L 515.971714 220.14479 
L 516.376428 220.059371 
L 517.590571 219.492631 
L 518.197643 219.58308 
L 518.4 219.642999 
L 518.4 219.642999 
" clip-path="url(#p0ddba8e205)" style="fill: none; stroke: #2ca02c; stroke-width: 1.5; stroke-linecap: square"/>
   </g>
   <g id="patch_3">
    <path d="M 72 320.4 
L 72 43.2 
" style="fill: none; stroke: #000000; stroke-width: 0.8; stroke-linejoin: miter; stroke-linecap: square"/>
   </g>
   <g id="patch_4">
    <path d="M 518.4 320.4 
L 518.4 43.2 
" style="fill: none; stroke: #000000; stroke-width: 0.8; stroke-linejoin: miter; stroke-linecap: square"/>
   </g>
   <g id="patch_5">
    <path d="M 72 320.4 
L 518.4 320.4 
" style="fill: none; stroke: #000000; stroke-width: 0.8; stroke-linejoin: miter; stroke-linecap: square"/>
   </g>
   <g id="patch_6">
    <path d="M 72 43.2 
L 518.4 43.2 
" style="fill: none; stroke: #000000; stroke-width: 0.8; stroke-linejoin: miter; stroke-linecap: square"/>
   </g>
   <g id="text_13">
    <!-- Classic Transformer - model_20231123161643 -->
    <g transform="translate(155.436563 37.2) scale(0.12 -0.12)">
     <defs>
      <path id="DejaVuSans-43" d="M 4122 4306 
L 4122 3641 
Q 3803 3938 3442 4084 
Q 3081 4231 2675 4231 
Q 1875 4231 1450 3742 
Q 1025 3253 1025 2328 
Q 1025 1406 1450 917 
Q 1875 428 2675 428 
Q 3081 428 3442 575 
Q 3803 722 4122 1019 
L 4122 359 
Q 3791 134 3420 21 
Q 3050 -91 2638 -91 
Q 1578 -91 968 557 
Q 359 1206 359 2328 
Q 359 3453 968 4101 
Q 1578 4750 2638 4750 
Q 3056 4750 3426 4639 
Q 3797 4528 4122 4306 
z
" transform="scale(0.015625)"/>
      <path id="DejaVuSans-6c" d="M 603 4863 
L 1178 4863 
L 1178 0 
L 603 0 
L 603 4863 
z
" transform="scale(0.015625)"/>
      <path id="DejaVuSans-61" d="M 2194 1759 
Q 1497 1759 1228 1600 
Q 959 1441 959 1056 
Q 959 750 1161 570 
Q 1363 391 1709 391 
Q 2188 391 2477 730 
Q 2766 1069 2766 1631 
L 2766 1759 
L 2194 1759 
z
M 3341 1997 
L 3341 0 
L 2766 0 
L 2766 531 
Q 2569 213 2275 61 
Q 1981 -91 1556 -91 
Q 1019 -91 701 211 
Q 384 513 384 1019 
Q 384 1609 779 1909 
Q 1175 2209 1959 2209 
L 2766 2209 
L 2766 2266 
Q 2766 2663 2505 2880 
Q 2244 3097 1772 3097 
Q 1472 3097 1187 3025 
Q 903 2953 641 2809 
L 641 3341 
Q 956 3463 1253 3523 
Q 1550 3584 1831 3584 
Q 2591 3584 2966 3190 
Q 3341 2797 3341 1997 
z
" transform="scale(0.015625)"/>
      <path id="DejaVuSans-73" d="M 2834 3397 
L 2834 2853 
Q 2591 2978 2328 3040 
Q 2066 3103 1784 3103 
Q 1356 3103 1142 2972 
Q 928 2841 928 2578 
Q 928 2378 1081 2264 
Q 1234 2150 1697 2047 
L 1894 2003 
Q 2506 1872 2764 1633 
Q 3022 1394 3022 966 
Q 3022 478 2636 193 
Q 2250 -91 1575 -91 
Q 1294 -91 989 -36 
Q 684 19 347 128 
L 347 722 
Q 666 556 975 473 
Q 1284 391 1588 391 
Q 1994 391 2212 530 
Q 2431 669 2431 922 
Q 2431 1156 2273 1281 
Q 2116 1406 1581 1522 
L 1381 1569 
Q 847 1681 609 1914 
Q 372 2147 372 2553 
Q 372 3047 722 3315 
Q 1072 3584 1716 3584 
Q 2034 3584 2315 3537 
Q 2597 3491 2834 3397 
z
" transform="scale(0.015625)"/>
      <path id="DejaVuSans-69" d="M 603 3500 
L 1178 3500 
L 1178 0 
L 603 0 
L 603 3500 
z
M 603 4863 
L 1178 4863 
L 1178 4134 
L 603 4134 
L 603 4863 
z
" transform="scale(0.015625)"/>
      <path id="DejaVuSans-63" d="M 3122 3366 
L 3122 2828 
Q 2878 2963 2633 3030 
Q 2388 3097 2138 3097 
Q 1578 3097 1268 2742 
Q 959 2388 959 1747 
Q 959 1106 1268 751 
Q 1578 397 2138 397 
Q 2388 397 2633 464 
Q 2878 531 3122 666 
L 3122 134 
Q 2881 22 2623 -34 
Q 2366 -91 2075 -91 
Q 1284 -91 818 406 
Q 353 903 353 1747 
Q 353 2603 823 3093 
Q 1294 3584 2113 3584 
Q 2378 3584 2631 3529 
Q 2884 3475 3122 3366 
z
" transform="scale(0.015625)"/>
      <path id="DejaVuSans-20" transform="scale(0.015625)"/>
      <path id="DejaVuSans-54" d="M -19 4666 
L 3928 4666 
L 3928 4134 
L 2272 4134 
L 2272 0 
L 1638 0 
L 1638 4134 
L -19 4134 
L -19 4666 
z
" transform="scale(0.015625)"/>
      <path id="DejaVuSans-72" d="M 2631 2963 
Q 2534 3019 2420 3045 
Q 2306 3072 2169 3072 
Q 1681 3072 1420 2755 
Q 1159 2438 1159 1844 
L 1159 0 
L 581 0 
L 581 3500 
L 1159 3500 
L 1159 2956 
Q 1341 3275 1631 3429 
Q 1922 3584 2338 3584 
Q 2397 3584 2469 3576 
Q 2541 3569 2628 3553 
L 2631 2963 
z
" transform="scale(0.015625)"/>
      <path id="DejaVuSans-6e" d="M 3513 2113 
L 3513 0 
L 2938 0 
L 2938 2094 
Q 2938 2591 2744 2837 
Q 2550 3084 2163 3084 
Q 1697 3084 1428 2787 
Q 1159 2491 1159 1978 
L 1159 0 
L 581 0 
L 581 3500 
L 1159 3500 
L 1159 2956 
Q 1366 3272 1645 3428 
Q 1925 3584 2291 3584 
Q 2894 3584 3203 3211 
Q 3513 2838 3513 2113 
z
" transform="scale(0.015625)"/>
      <path id="DejaVuSans-66" d="M 2375 4863 
L 2375 4384 
L 1825 4384 
Q 1516 4384 1395 4259 
Q 1275 4134 1275 3809 
L 1275 3500 
L 2222 3500 
L 2222 3053 
L 1275 3053 
L 1275 0 
L 697 0 
L 697 3053 
L 147 3053 
L 147 3500 
L 697 3500 
L 697 3744 
Q 697 4328 969 4595 
Q 1241 4863 1831 4863 
L 2375 4863 
z
" transform="scale(0.015625)"/>
      <path id="DejaVuSans-6f" d="M 1959 3097 
Q 1497 3097 1228 2736 
Q 959 2375 959 1747 
Q 959 1119 1226 758 
Q 1494 397 1959 397 
Q 2419 397 2687 759 
Q 2956 1122 2956 1747 
Q 2956 2369 2687 2733 
Q 2419 3097 1959 3097 
z
M 1959 3584 
Q 2709 3584 3137 3096 
Q 3566 2609 3566 1747 
Q 3566 888 3137 398 
Q 2709 -91 1959 -91 
Q 1206 -91 779 398 
Q 353 888 353 1747 
Q 353 2609 779 3096 
Q 1206 3584 1959 3584 
z
" transform="scale(0.015625)"/>
      <path id="DejaVuSans-6d" d="M 3328 2828 
Q 3544 3216 3844 3400 
Q 4144 3584 4550 3584 
Q 5097 3584 5394 3201 
Q 5691 2819 5691 2113 
L 5691 0 
L 5113 0 
L 5113 2094 
Q 5113 2597 4934 2840 
Q 4756 3084 4391 3084 
Q 3944 3084 3684 2787 
Q 3425 2491 3425 1978 
L 3425 0 
L 2847 0 
L 2847 2094 
Q 2847 2600 2669 2842 
Q 2491 3084 2119 3084 
Q 1678 3084 1418 2786 
Q 1159 2488 1159 1978 
L 1159 0 
L 581 0 
L 581 3500 
L 1159 3500 
L 1159 2956 
Q 1356 3278 1631 3431 
Q 1906 3584 2284 3584 
Q 2666 3584 2933 3390 
Q 3200 3197 3328 2828 
z
" transform="scale(0.015625)"/>
      <path id="DejaVuSans-65" d="M 3597 1894 
L 3597 1613 
L 953 1613 
Q 991 1019 1311 708 
Q 1631 397 2203 397 
Q 2534 397 2845 478 
Q 3156 559 3463 722 
L 3463 178 
Q 3153 47 2828 -22 
Q 2503 -91 2169 -91 
Q 1331 -91 842 396 
Q 353 884 353 1716 
Q 353 2575 817 3079 
Q 1281 3584 2069 3584 
Q 2775 3584 3186 3129 
Q 3597 2675 3597 1894 
z
M 3022 2063 
Q 3016 2534 2758 2815 
Q 2500 3097 2075 3097 
Q 1594 3097 1305 2825 
Q 1016 2553 972 2059 
L 3022 2063 
z
" transform="scale(0.015625)"/>
      <path id="DejaVuSans-64" d="M 2906 2969 
L 2906 4863 
L 3481 4863 
L 3481 0 
L 2906 0 
L 2906 525 
Q 2725 213 2448 61 
Q 2172 -91 1784 -91 
Q 1150 -91 751 415 
Q 353 922 353 1747 
Q 353 2572 751 3078 
Q 1150 3584 1784 3584 
Q 2172 3584 2448 3432 
Q 2725 3281 2906 2969 
z
M 947 1747 
Q 947 1113 1208 752 
Q 1469 391 1925 391 
Q 2381 391 2643 752 
Q 2906 1113 2906 1747 
Q 2906 2381 2643 2742 
Q 2381 3103 1925 3103 
Q 1469 3103 1208 2742 
Q 947 2381 947 1747 
z
" transform="scale(0.015625)"/>
      <path id="DejaVuSans-5f" d="M 3263 -1063 
L 3263 -1509 
L -63 -1509 
L -63 -1063 
L 3263 -1063 
z
" transform="scale(0.015625)"/>
      <path id="DejaVuSans-34" d="M 2419 4116 
L 825 1625 
L 2419 1625 
L 2419 4116 
z
M 2253 4666 
L 3047 4666 
L 3047 1625 
L 3713 1625 
L 3713 1100 
L 3047 1100 
L 3047 0 
L 2419 0 
L 2419 1100 
L 313 1100 
L 313 1709 
L 2253 4666 
z
" transform="scale(0.015625)"/>
     </defs>
     <use xlink:href="#DejaVuSans-43"/>
     <use xlink:href="#DejaVuSans-6c" x="69.824219"/>
     <use xlink:href="#DejaVuSans-61" x="97.607422"/>
     <use xlink:href="#DejaVuSans-73" x="158.886719"/>
     <use xlink:href="#DejaVuSans-73" x="210.986328"/>
     <use xlink:href="#DejaVuSans-69" x="263.085938"/>
     <use xlink:href="#DejaVuSans-63" x="290.869141"/>
     <use xlink:href="#DejaVuSans-20" x="345.849609"/>
     <use xlink:href="#DejaVuSans-54" x="377.636719"/>
     <use xlink:href="#DejaVuSans-72" x="423.970703"/>
     <use xlink:href="#DejaVuSans-61" x="465.083984"/>
     <use xlink:href="#DejaVuSans-6e" x="526.363281"/>
     <use xlink:href="#DejaVuSans-73" x="589.742188"/>
     <use xlink:href="#DejaVuSans-66" x="641.841797"/>
     <use xlink:href="#DejaVuSans-6f" x="677.046875"/>
     <use xlink:href="#DejaVuSans-72" x="738.228516"/>
     <use xlink:href="#DejaVuSans-6d" x="777.591797"/>
     <use xlink:href="#DejaVuSans-65" x="875.003906"/>
     <use xlink:href="#DejaVuSans-72" x="936.527344"/>
     <use xlink:href="#DejaVuSans-20" x="977.640625"/>
     <use xlink:href="#DejaVuSans-2d" x="1009.427734"/>
     <use xlink:href="#DejaVuSans-20" x="1045.511719"/>
     <use xlink:href="#DejaVuSans-6d" x="1077.298828"/>
     <use xlink:href="#DejaVuSans-6f" x="1174.710938"/>
     <use xlink:href="#DejaVuSans-64" x="1235.892578"/>
     <use xlink:href="#DejaVuSans-65" x="1299.369141"/>
     <use xlink:href="#DejaVuSans-6c" x="1360.892578"/>
     <use xlink:href="#DejaVuSans-5f" x="1388.675781"/>
     <use xlink:href="#DejaVuSans-32" x="1438.675781"/>
     <use xlink:href="#DejaVuSans-30" x="1502.298828"/>
     <use xlink:href="#DejaVuSans-32" x="1565.921875"/>
     <use xlink:href="#DejaVuSans-33" x="1629.544922"/>
     <use xlink:href="#DejaVuSans-31" x="1693.167969"/>
     <use xlink:href="#DejaVuSans-31" x="1756.791016"/>
     <use xlink:href="#DejaVuSans-32" x="1820.414062"/>
     <use xlink:href="#DejaVuSans-33" x="1884.037109"/>
     <use xlink:href="#DejaVuSans-31" x="1947.660156"/>
     <use xlink:href="#DejaVuSans-36" x="2011.283203"/>
     <use xlink:href="#DejaVuSans-31" x="2074.90625"/>
     <use xlink:href="#DejaVuSans-36" x="2138.529297"/>
     <use xlink:href="#DejaVuSans-34" x="2202.152344"/>
     <use xlink:href="#DejaVuSans-33" x="2265.775391"/>
    </g>
   </g>
   <g id="legend_1">
    <g id="patch_7">
     <path d="M 79 95.234375 
L 161.517188 95.234375 
Q 163.517188 95.234375 163.517188 93.234375 
L 163.517188 50.2 
Q 163.517188 48.2 161.517188 48.2 
L 79 48.2 
Q 77 48.2 77 50.2 
L 77 93.234375 
Q 77 95.234375 79 95.234375 
z
" style="fill: #ffffff; opacity: 0.8; stroke: #cccccc; stroke-linejoin: miter"/>
    </g>
    <g id="line2d_16">
     <path d="M 81 56.298437 
L 91 56.298437 
L 101 56.298437 
" style="fill: none; stroke: #1f77b4; stroke-width: 1.5; stroke-linecap: square"/>
    </g>
    <g id="text_14">
     <!-- Measured -->
     <g transform="translate(109 59.798437) scale(0.1 -0.1)">
      <defs>
       <path id="DejaVuSans-4d" d="M 628 4666 
L 1569 4666 
L 2759 1491 
L 3956 4666 
L 4897 4666 
L 4897 0 
L 4281 0 
L 4281 4097 
L 3078 897 
L 2444 897 
L 1241 4097 
L 1241 0 
L 628 0 
L 628 4666 
z
" transform="scale(0.015625)"/>
       <path id="DejaVuSans-75" d="M 544 1381 
L 544 3500 
L 1119 3500 
L 1119 1403 
Q 1119 906 1312 657 
Q 1506 409 1894 409 
Q 2359 409 2629 706 
Q 2900 1003 2900 1516 
L 2900 3500 
L 3475 3500 
L 3475 0 
L 2900 0 
L 2900 538 
Q 2691 219 2414 64 
Q 2138 -91 1772 -91 
Q 1169 -91 856 284 
Q 544 659 544 1381 
z
M 1991 3584 
L 1991 3584 
z
" transform="scale(0.015625)"/>
      </defs>
      <use xlink:href="#DejaVuSans-4d"/>
      <use xlink:href="#DejaVuSans-65" x="86.279297"/>
      <use xlink:href="#DejaVuSans-61" x="147.802734"/>
      <use xlink:href="#DejaVuSans-73" x="209.082031"/>
      <use xlink:href="#DejaVuSans-75" x="261.181641"/>
      <use xlink:href="#DejaVuSans-72" x="324.560547"/>
      <use xlink:href="#DejaVuSans-65" x="363.423828"/>
      <use xlink:href="#DejaVuSans-64" x="424.947266"/>
     </g>
    </g>
    <g id="line2d_17">
     <path d="M 81 70.976562 
L 91 70.976562 
L 101 70.976562 
" style="fill: none; stroke: #ff7f0e; stroke-width: 1.5; stroke-linecap: square"/>
    </g>
    <g id="text_15">
     <!-- Fitted -->
     <g transform="translate(109 74.476562) scale(0.1 -0.1)">
      <defs>
       <path id="DejaVuSans-46" d="M 628 4666 
L 3309 4666 
L 3309 4134 
L 1259 4134 
L 1259 2759 
L 3109 2759 
L 3109 2228 
L 1259 2228 
L 1259 0 
L 628 0 
L 628 4666 
z
" transform="scale(0.015625)"/>
       <path id="DejaVuSans-74" d="M 1172 4494 
L 1172 3500 
L 2356 3500 
L 2356 3053 
L 1172 3053 
L 1172 1153 
Q 1172 725 1289 603 
Q 1406 481 1766 481 
L 2356 481 
L 2356 0 
L 1766 0 
Q 1100 0 847 248 
Q 594 497 594 1153 
L 594 3053 
L 172 3053 
L 172 3500 
L 594 3500 
L 594 4494 
L 1172 4494 
z
" transform="scale(0.015625)"/>
      </defs>
      <use xlink:href="#DejaVuSans-46"/>
      <use xlink:href="#DejaVuSans-69" x="50.269531"/>
      <use xlink:href="#DejaVuSans-74" x="78.052734"/>
      <use xlink:href="#DejaVuSans-74" x="117.261719"/>
      <use xlink:href="#DejaVuSans-65" x="156.470703"/>
      <use xlink:href="#DejaVuSans-64" x="217.994141"/>
     </g>
    </g>
    <g id="line2d_18">
     <path d="M 81 85.654687 
L 91 85.654687 
L 101 85.654687 
" style="fill: none; stroke: #2ca02c; stroke-width: 1.5; stroke-linecap: square"/>
    </g>
    <g id="text_16">
     <!-- Estimated -->
     <g transform="translate(109 89.154687) scale(0.1 -0.1)">
      <defs>
       <path id="DejaVuSans-45" d="M 628 4666 
L 3578 4666 
L 3578 4134 
L 1259 4134 
L 1259 2753 
L 3481 2753 
L 3481 2222 
L 1259 2222 
L 1259 531 
L 3634 531 
L 3634 0 
L 628 0 
L 628 4666 
z
" transform="scale(0.015625)"/>
      </defs>
      <use xlink:href="#DejaVuSans-45"/>
      <use xlink:href="#DejaVuSans-73" x="63.183594"/>
      <use xlink:href="#DejaVuSans-74" x="115.283203"/>
      <use xlink:href="#DejaVuSans-69" x="154.492188"/>
      <use xlink:href="#DejaVuSans-6d" x="182.275391"/>
      <use xlink:href="#DejaVuSans-61" x="279.6875"/>
      <use xlink:href="#DejaVuSans-74" x="340.966797"/>
      <use xlink:href="#DejaVuSans-65" x="380.175781"/>
      <use xlink:href="#DejaVuSans-64" x="441.699219"/>
     </g>
    </g>
   </g>
  </g>
 </g>
 <defs>
  <clipPath id="p0ddba8e205">
   <rect x="72" y="43.2" width="446.4" height="277.2"/>
  </clipPath>
 </defs>
</svg>
