<?xml version="1.0" encoding="utf-8" standalone="no"?>
<!DOCTYPE svg PUBLIC "-//W3C//DTD SVG 1.1//EN"
  "http://www.w3.org/Graphics/SVG/1.1/DTD/svg11.dtd">
<svg xmlns:xlink="http://www.w3.org/1999/xlink" width="576pt" height="360pt" viewBox="0 0 576 360" xmlns="http://www.w3.org/2000/svg" version="1.1">
 <metadata>
  <rdf:RDF xmlns:dc="http://purl.org/dc/elements/1.1/" xmlns:cc="http://creativecommons.org/ns#" xmlns:rdf="http://www.w3.org/1999/02/22-rdf-syntax-ns#">
   <cc:Work>
    <dc:type rdf:resource="http://purl.org/dc/dcmitype/StillImage"/>
    <dc:date>2023-11-23T16:44:04.795878</dc:date>
    <dc:format>image/svg+xml</dc:format>
    <dc:creator>
     <cc:Agent>
      <dc:title>Matplotlib v3.8.1, https://matplotlib.org/</dc:title>
     </cc:Agent>
    </dc:creator>
   </cc:Work>
  </rdf:RDF>
 </metadata>
 <defs>
  <style type="text/css">*{stroke-linejoin: round; stroke-linecap: butt}</style>
 </defs>
 <g id="figure_1">
  <g id="patch_1">
   <path d="M 0 360 
L 576 360 
L 576 0 
L 0 0 
z
" style="fill: #ffffff"/>
  </g>
  <g id="axes_1">
   <g id="patch_2">
    <path d="M 72 320.4 
L 518.4 320.4 
L 518.4 43.2 
L 72 43.2 
z
" style="fill: #ffffff"/>
   </g>
   <g id="matplotlib.axis_1">
    <g id="xtick_1">
     <g id="line2d_1">
      <defs>
       <path id="m3e298ab55a" d="M 0 0 
L 0 3.5 
" style="stroke: #000000; stroke-width: 0.8"/>
      </defs>
      <g>
       <use xlink:href="#m3e298ab55a" x="129.874161" y="320.4" style="stroke: #000000; stroke-width: 0.8"/>
      </g>
     </g>
     <g id="text_1">
      <!-- 2020-05-15 -->
      <g transform="translate(100.816349 334.998438) scale(0.1 -0.1)">
       <defs>
        <path id="DejaVuSans-32" d="M 1228 531 
L 3431 531 
L 3431 0 
L 469 0 
L 469 531 
Q 828 903 1448 1529 
Q 2069 2156 2228 2338 
Q 2531 2678 2651 2914 
Q 2772 3150 2772 3378 
Q 2772 3750 2511 3984 
Q 2250 4219 1831 4219 
Q 1534 4219 1204 4116 
Q 875 4013 500 3803 
L 500 4441 
Q 881 4594 1212 4672 
Q 1544 4750 1819 4750 
Q 2544 4750 2975 4387 
Q 3406 4025 3406 3419 
Q 3406 3131 3298 2873 
Q 3191 2616 2906 2266 
Q 2828 2175 2409 1742 
Q 1991 1309 1228 531 
z
" transform="scale(0.015625)"/>
        <path id="DejaVuSans-30" d="M 2034 4250 
Q 1547 4250 1301 3770 
Q 1056 3291 1056 2328 
Q 1056 1369 1301 889 
Q 1547 409 2034 409 
Q 2525 409 2770 889 
Q 3016 1369 3016 2328 
Q 3016 3291 2770 3770 
Q 2525 4250 2034 4250 
z
M 2034 4750 
Q 2819 4750 3233 4129 
Q 3647 3509 3647 2328 
Q 3647 1150 3233 529 
Q 2819 -91 2034 -91 
Q 1250 -91 836 529 
Q 422 1150 422 2328 
Q 422 3509 836 4129 
Q 1250 4750 2034 4750 
z
" transform="scale(0.015625)"/>
        <path id="DejaVuSans-2d" d="M 313 2009 
L 1997 2009 
L 1997 1497 
L 313 1497 
L 313 2009 
z
" transform="scale(0.015625)"/>
        <path id="DejaVuSans-35" d="M 691 4666 
L 3169 4666 
L 3169 4134 
L 1269 4134 
L 1269 2991 
Q 1406 3038 1543 3061 
Q 1681 3084 1819 3084 
Q 2600 3084 3056 2656 
Q 3513 2228 3513 1497 
Q 3513 744 3044 326 
Q 2575 -91 1722 -91 
Q 1428 -91 1123 -41 
Q 819 9 494 109 
L 494 744 
Q 775 591 1075 516 
Q 1375 441 1709 441 
Q 2250 441 2565 725 
Q 2881 1009 2881 1497 
Q 2881 1984 2565 2268 
Q 2250 2553 1709 2553 
Q 1456 2553 1204 2497 
Q 953 2441 691 2322 
L 691 4666 
z
" transform="scale(0.015625)"/>
        <path id="DejaVuSans-31" d="M 794 531 
L 1825 531 
L 1825 4091 
L 703 3866 
L 703 4441 
L 1819 4666 
L 2450 4666 
L 2450 531 
L 3481 531 
L 3481 0 
L 794 0 
L 794 531 
z
" transform="scale(0.015625)"/>
       </defs>
       <use xlink:href="#DejaVuSans-32"/>
       <use xlink:href="#DejaVuSans-30" x="63.623047"/>
       <use xlink:href="#DejaVuSans-32" x="127.246094"/>
       <use xlink:href="#DejaVuSans-30" x="190.869141"/>
       <use xlink:href="#DejaVuSans-2d" x="254.492188"/>
       <use xlink:href="#DejaVuSans-30" x="290.576172"/>
       <use xlink:href="#DejaVuSans-35" x="354.199219"/>
       <use xlink:href="#DejaVuSans-2d" x="417.822266"/>
       <use xlink:href="#DejaVuSans-31" x="453.90625"/>
       <use xlink:href="#DejaVuSans-35" x="517.529297"/>
      </g>
     </g>
    </g>
    <g id="xtick_2">
     <g id="line2d_2">
      <g>
       <use xlink:href="#m3e298ab55a" x="212.435902" y="320.4" style="stroke: #000000; stroke-width: 0.8"/>
      </g>
     </g>
     <g id="text_2">
      <!-- 2020-06-01 -->
      <g transform="translate(183.37809 334.998438) scale(0.1 -0.1)">
       <defs>
        <path id="DejaVuSans-36" d="M 2113 2584 
Q 1688 2584 1439 2293 
Q 1191 2003 1191 1497 
Q 1191 994 1439 701 
Q 1688 409 2113 409 
Q 2538 409 2786 701 
Q 3034 994 3034 1497 
Q 3034 2003 2786 2293 
Q 2538 2584 2113 2584 
z
M 3366 4563 
L 3366 3988 
Q 3128 4100 2886 4159 
Q 2644 4219 2406 4219 
Q 1781 4219 1451 3797 
Q 1122 3375 1075 2522 
Q 1259 2794 1537 2939 
Q 1816 3084 2150 3084 
Q 2853 3084 3261 2657 
Q 3669 2231 3669 1497 
Q 3669 778 3244 343 
Q 2819 -91 2113 -91 
Q 1303 -91 875 529 
Q 447 1150 447 2328 
Q 447 3434 972 4092 
Q 1497 4750 2381 4750 
Q 2619 4750 2861 4703 
Q 3103 4656 3366 4563 
z
" transform="scale(0.015625)"/>
       </defs>
       <use xlink:href="#DejaVuSans-32"/>
       <use xlink:href="#DejaVuSans-30" x="63.623047"/>
       <use xlink:href="#DejaVuSans-32" x="127.246094"/>
       <use xlink:href="#DejaVuSans-30" x="190.869141"/>
       <use xlink:href="#DejaVuSans-2d" x="254.492188"/>
       <use xlink:href="#DejaVuSans-30" x="290.576172"/>
       <use xlink:href="#DejaVuSans-36" x="354.199219"/>
       <use xlink:href="#DejaVuSans-2d" x="417.822266"/>
       <use xlink:href="#DejaVuSans-30" x="453.90625"/>
       <use xlink:href="#DejaVuSans-31" x="517.529297"/>
      </g>
     </g>
    </g>
    <g id="xtick_3">
     <g id="line2d_3">
      <g>
       <use xlink:href="#m3e298ab55a" x="280.427924" y="320.4" style="stroke: #000000; stroke-width: 0.8"/>
      </g>
     </g>
     <g id="text_3">
      <!-- 2020-06-15 -->
      <g transform="translate(251.370111 334.998438) scale(0.1 -0.1)">
       <use xlink:href="#DejaVuSans-32"/>
       <use xlink:href="#DejaVuSans-30" x="63.623047"/>
       <use xlink:href="#DejaVuSans-32" x="127.246094"/>
       <use xlink:href="#DejaVuSans-30" x="190.869141"/>
       <use xlink:href="#DejaVuSans-2d" x="254.492188"/>
       <use xlink:href="#DejaVuSans-30" x="290.576172"/>
       <use xlink:href="#DejaVuSans-36" x="354.199219"/>
       <use xlink:href="#DejaVuSans-2d" x="417.822266"/>
       <use xlink:href="#DejaVuSans-31" x="453.90625"/>
       <use xlink:href="#DejaVuSans-35" x="517.529297"/>
      </g>
     </g>
    </g>
    <g id="xtick_4">
     <g id="line2d_4">
      <g>
       <use xlink:href="#m3e298ab55a" x="358.133092" y="320.4" style="stroke: #000000; stroke-width: 0.8"/>
      </g>
     </g>
     <g id="text_4">
      <!-- 2020-07-01 -->
      <g transform="translate(329.075279 334.998438) scale(0.1 -0.1)">
       <defs>
        <path id="DejaVuSans-37" d="M 525 4666 
L 3525 4666 
L 3525 4397 
L 1831 0 
L 1172 0 
L 2766 4134 
L 525 4134 
L 525 4666 
z
" transform="scale(0.015625)"/>
       </defs>
       <use xlink:href="#DejaVuSans-32"/>
       <use xlink:href="#DejaVuSans-30" x="63.623047"/>
       <use xlink:href="#DejaVuSans-32" x="127.246094"/>
       <use xlink:href="#DejaVuSans-30" x="190.869141"/>
       <use xlink:href="#DejaVuSans-2d" x="254.492188"/>
       <use xlink:href="#DejaVuSans-30" x="290.576172"/>
       <use xlink:href="#DejaVuSans-37" x="354.199219"/>
       <use xlink:href="#DejaVuSans-2d" x="417.822266"/>
       <use xlink:href="#DejaVuSans-30" x="453.90625"/>
       <use xlink:href="#DejaVuSans-31" x="517.529297"/>
      </g>
     </g>
    </g>
    <g id="xtick_5">
     <g id="line2d_5">
      <g>
       <use xlink:href="#m3e298ab55a" x="426.125113" y="320.4" style="stroke: #000000; stroke-width: 0.8"/>
      </g>
     </g>
     <g id="text_5">
      <!-- 2020-07-15 -->
      <g transform="translate(397.067301 334.998438) scale(0.1 -0.1)">
       <use xlink:href="#DejaVuSans-32"/>
       <use xlink:href="#DejaVuSans-30" x="63.623047"/>
       <use xlink:href="#DejaVuSans-32" x="127.246094"/>
       <use xlink:href="#DejaVuSans-30" x="190.869141"/>
       <use xlink:href="#DejaVuSans-2d" x="254.492188"/>
       <use xlink:href="#DejaVuSans-30" x="290.576172"/>
       <use xlink:href="#DejaVuSans-37" x="354.199219"/>
       <use xlink:href="#DejaVuSans-2d" x="417.822266"/>
       <use xlink:href="#DejaVuSans-31" x="453.90625"/>
       <use xlink:href="#DejaVuSans-35" x="517.529297"/>
      </g>
     </g>
    </g>
    <g id="xtick_6">
     <g id="line2d_6">
      <g>
       <use xlink:href="#m3e298ab55a" x="508.686854" y="320.4" style="stroke: #000000; stroke-width: 0.8"/>
      </g>
     </g>
     <g id="text_6">
      <!-- 2020-08-01 -->
      <g transform="translate(479.629042 334.998438) scale(0.1 -0.1)">
       <defs>
        <path id="DejaVuSans-38" d="M 2034 2216 
Q 1584 2216 1326 1975 
Q 1069 1734 1069 1313 
Q 1069 891 1326 650 
Q 1584 409 2034 409 
Q 2484 409 2743 651 
Q 3003 894 3003 1313 
Q 3003 1734 2745 1975 
Q 2488 2216 2034 2216 
z
M 1403 2484 
Q 997 2584 770 2862 
Q 544 3141 544 3541 
Q 544 4100 942 4425 
Q 1341 4750 2034 4750 
Q 2731 4750 3128 4425 
Q 3525 4100 3525 3541 
Q 3525 3141 3298 2862 
Q 3072 2584 2669 2484 
Q 3125 2378 3379 2068 
Q 3634 1759 3634 1313 
Q 3634 634 3220 271 
Q 2806 -91 2034 -91 
Q 1263 -91 848 271 
Q 434 634 434 1313 
Q 434 1759 690 2068 
Q 947 2378 1403 2484 
z
M 1172 3481 
Q 1172 3119 1398 2916 
Q 1625 2713 2034 2713 
Q 2441 2713 2670 2916 
Q 2900 3119 2900 3481 
Q 2900 3844 2670 4047 
Q 2441 4250 2034 4250 
Q 1625 4250 1398 4047 
Q 1172 3844 1172 3481 
z
" transform="scale(0.015625)"/>
       </defs>
       <use xlink:href="#DejaVuSans-32"/>
       <use xlink:href="#DejaVuSans-30" x="63.623047"/>
       <use xlink:href="#DejaVuSans-32" x="127.246094"/>
       <use xlink:href="#DejaVuSans-30" x="190.869141"/>
       <use xlink:href="#DejaVuSans-2d" x="254.492188"/>
       <use xlink:href="#DejaVuSans-30" x="290.576172"/>
       <use xlink:href="#DejaVuSans-38" x="354.199219"/>
       <use xlink:href="#DejaVuSans-2d" x="417.822266"/>
       <use xlink:href="#DejaVuSans-30" x="453.90625"/>
       <use xlink:href="#DejaVuSans-31" x="517.529297"/>
      </g>
     </g>
    </g>
   </g>
   <g id="matplotlib.axis_2">
    <g id="ytick_1">
     <g id="line2d_7">
      <defs>
       <path id="mbd83109ffe" d="M 0 0 
L -3.5 0 
" style="stroke: #000000; stroke-width: 0.8"/>
      </defs>
      <g>
       <use xlink:href="#mbd83109ffe" x="72" y="315.884122" style="stroke: #000000; stroke-width: 0.8"/>
      </g>
     </g>
     <g id="text_7">
      <!-- −2 -->
      <g transform="translate(50.257812 319.683341) scale(0.1 -0.1)">
       <defs>
        <path id="DejaVuSans-2212" d="M 678 2272 
L 4684 2272 
L 4684 1741 
L 678 1741 
L 678 2272 
z
" transform="scale(0.015625)"/>
       </defs>
       <use xlink:href="#DejaVuSans-2212"/>
       <use xlink:href="#DejaVuSans-32" x="83.789062"/>
      </g>
     </g>
    </g>
    <g id="ytick_2">
     <g id="line2d_8">
      <g>
       <use xlink:href="#mbd83109ffe" x="72" y="263.0405" style="stroke: #000000; stroke-width: 0.8"/>
      </g>
     </g>
     <g id="text_8">
      <!-- −1 -->
      <g transform="translate(50.257812 266.839718) scale(0.1 -0.1)">
       <use xlink:href="#DejaVuSans-2212"/>
       <use xlink:href="#DejaVuSans-31" x="83.789062"/>
      </g>
     </g>
    </g>
    <g id="ytick_3">
     <g id="line2d_9">
      <g>
       <use xlink:href="#mbd83109ffe" x="72" y="210.196877" style="stroke: #000000; stroke-width: 0.8"/>
      </g>
     </g>
     <g id="text_9">
      <!-- 0 -->
      <g transform="translate(58.6375 213.996096) scale(0.1 -0.1)">
       <use xlink:href="#DejaVuSans-30"/>
      </g>
     </g>
    </g>
    <g id="ytick_4">
     <g id="line2d_10">
      <g>
       <use xlink:href="#mbd83109ffe" x="72" y="157.353255" style="stroke: #000000; stroke-width: 0.8"/>
      </g>
     </g>
     <g id="text_10">
      <!-- 1 -->
      <g transform="translate(58.6375 161.152474) scale(0.1 -0.1)">
       <use xlink:href="#DejaVuSans-31"/>
      </g>
     </g>
    </g>
    <g id="ytick_5">
     <g id="line2d_11">
      <g>
       <use xlink:href="#mbd83109ffe" x="72" y="104.509633" style="stroke: #000000; stroke-width: 0.8"/>
      </g>
     </g>
     <g id="text_11">
      <!-- 2 -->
      <g transform="translate(58.6375 108.308852) scale(0.1 -0.1)">
       <use xlink:href="#DejaVuSans-32"/>
      </g>
     </g>
    </g>
    <g id="ytick_6">
     <g id="line2d_12">
      <g>
       <use xlink:href="#mbd83109ffe" x="72" y="51.666011" style="stroke: #000000; stroke-width: 0.8"/>
      </g>
     </g>
     <g id="text_12">
      <!-- 3 -->
      <g transform="translate(58.6375 55.465229) scale(0.1 -0.1)">
       <defs>
        <path id="DejaVuSans-33" d="M 2597 2516 
Q 3050 2419 3304 2112 
Q 3559 1806 3559 1356 
Q 3559 666 3084 287 
Q 2609 -91 1734 -91 
Q 1441 -91 1130 -33 
Q 819 25 488 141 
L 488 750 
Q 750 597 1062 519 
Q 1375 441 1716 441 
Q 2309 441 2620 675 
Q 2931 909 2931 1356 
Q 2931 1769 2642 2001 
Q 2353 2234 1838 2234 
L 1294 2234 
L 1294 2753 
L 1863 2753 
Q 2328 2753 2575 2939 
Q 2822 3125 2822 3475 
Q 2822 3834 2567 4026 
Q 2313 4219 1838 4219 
Q 1578 4219 1281 4162 
Q 984 4106 628 3988 
L 628 4550 
Q 988 4650 1302 4700 
Q 1616 4750 1894 4750 
Q 2613 4750 3031 4423 
Q 3450 4097 3450 3541 
Q 3450 3153 3228 2886 
Q 3006 2619 2597 2516 
z
" transform="scale(0.015625)"/>
       </defs>
       <use xlink:href="#DejaVuSans-33"/>
      </g>
     </g>
    </g>
   </g>
   <g id="line2d_13">
    <path d="M 72 287.372698 
L 72.404714 298.571422 
L 72.607072 296.870875 
L 72.809429 286.335779 
L 73.214143 255.808886 
L 73.618858 243.531767 
L 75.035358 161.615174 
L 75.237715 158.691063 
L 75.440073 163.689012 
L 75.64243 171.797717 
L 75.844787 175.053643 
L 76.047144 190.109705 
L 76.654216 259.500318 
L 77.05893 283.266499 
L 77.261287 287.580082 
L 77.463645 287.206791 
L 77.666002 276.630218 
L 78.070716 248.488239 
L 78.475431 236.169643 
L 78.677788 227.148448 
L 79.487217 170.86449 
L 79.891931 154.792248 
L 80.094288 156.720917 
L 80.903717 198.61244 
L 81.713146 273.02174 
L 82.11786 287.497128 
L 82.320218 289.508751 
L 82.522575 289.218413 
L 82.724932 286.729808 
L 82.927289 279.989835 
L 83.332004 257.281311 
L 83.736718 243.137738 
L 83.939075 240.130673 
L 84.141432 240.400272 
L 84.546147 246.725477 
L 84.748504 248.799315 
L 84.950861 248.820053 
L 85.355576 252.967729 
L 85.557933 249.670327 
L 85.76029 255.725933 
L 86.569719 300.147539 
L 86.772076 306.161668 
L 86.974433 307.737785 
L 87.176791 307.8 
L 87.379148 306.472744 
L 87.581505 302.781313 
L 87.783862 296.103555 
L 88.188577 274.30752 
L 88.390934 269.18514 
L 89.200363 261.200865 
L 89.40272 257.115404 
L 89.807434 242.494848 
L 90.212149 240.068458 
L 90.414506 237.393207 
L 90.616863 245.253052 
L 91.223935 295.253281 
L 91.628649 306.161668 
L 91.831006 306.223883 
L 92.033364 303.756016 
L 92.842792 258.131585 
L 93.04515 256.01627 
L 93.449864 247.513535 
L 93.652221 246.995076 
L 93.854578 244.091703 
L 94.056936 243.469552 
L 94.259293 240.877254 
L 94.46165 234.552049 
L 94.664007 231.73163 
L 94.866364 232.644118 
L 95.068722 235.754875 
L 95.271079 231.959752 
L 95.473436 241.95565 
L 96.080508 295.626572 
L 96.485222 304.73072 
L 96.687579 306.617912 
L 96.889937 302.325068 
L 97.699365 257.405742 
L 98.306437 247.015814 
L 98.508794 246.642523 
L 99.52058 225.655285 
L 99.722937 226.899588 
L 99.925295 231.21317 
L 100.127652 229.408931 
L 100.330009 239.446306 
L 100.937081 293.179444 
L 101.341795 305.311395 
L 101.544152 306.286098 
L 101.74651 302.615406 
L 101.948867 290.79453 
L 102.353581 261.097173 
L 102.555938 259.562533 
L 103.567724 241.976388 
L 104.377153 220.118138 
L 104.57951 221.383179 
L 104.781868 226.712942 
L 104.984225 226.692204 
L 105.186582 235.485276 
L 105.793654 290.068687 
L 106.198368 302.677621 
L 106.400725 304.419644 
L 106.603083 300.437876 
L 107.412511 255.020828 
L 107.614869 253.320281 
L 107.817226 249.691065 
L 108.22194 235.319369 
L 108.626655 213.855148 
L 108.829012 207.986187 
L 109.031369 206.119733 
L 109.638441 214.705421 
L 109.840798 220.076661 
L 110.043155 230.362897 
L 110.650227 284.801139 
L 111.054941 298.903236 
L 111.257298 300.790428 
L 111.459655 299.069143 
L 111.662013 287.787465 
L 112.066727 258.857428 
L 112.471442 244.029488 
L 113.887942 176.380899 
L 114.090299 174.037462 
L 114.292656 180.777435 
L 114.495014 192.079851 
L 114.697371 196.621556 
L 115.102085 230.259205 
L 115.709157 279.077347 
L 116.113871 292.868368 
L 116.316228 293.034275 
L 116.518586 291.395943 
L 116.720943 287.808204 
L 117.125657 260.869051 
L 118.542158 157.363806 
L 118.744515 147.367908 
L 118.946872 143.531308 
L 119.149229 147.160524 
L 119.756301 184.614035 
L 120.56573 263.088057 
L 120.970444 282.685824 
L 121.172801 286.729808 
L 121.375159 288.347401 
L 121.577516 286.916453 
L 121.779873 279.077347 
L 122.589302 228.641611 
L 123.196374 203.465221 
L 123.398731 198.944254 
L 123.601088 199.151638 
L 123.803445 198.591702 
L 124.410517 211.843525 
L 124.612874 222.689697 
L 125.219946 278.351503 
L 125.62466 292.723199 
L 125.827017 294.693345 
L 126.029374 292.184001 
L 127.04116 236.418503 
L 127.648232 199.421237 
L 128.255304 157.508975 
L 128.457661 150.043159 
L 128.660018 149.711345 
L 129.26709 193.552276 
L 130.278876 283.390929 
L 130.481233 291.126344 
L 130.68359 292.495077 
L 130.885947 289.944257 
L 132.504805 182.229122 
L 133.111877 140.026522 
L 133.314234 130.714991 
L 133.516591 132.394799 
L 133.921306 147.59603 
L 134.123663 154.937416 
L 135.135449 263.606517 
L 135.540163 276.09102 
L 135.74252 275.157793 
L 135.944878 264.684912 
L 136.349592 233.618822 
L 136.551949 226.920326 
L 136.754306 215.182404 
L 136.956664 219.703371 
L 137.159021 208.525385 
L 137.766092 199.794528 
L 137.96845 200.188557 
L 138.373164 194.838055 
L 138.777879 202.303871 
L 138.980236 203.133407 
L 139.182593 214.809113 
L 139.789665 270.823472 
L 140.194379 286.024703 
L 140.396736 288.077803 
L 140.599093 285.091476 
L 141.003808 255.207474 
L 141.408522 234.261712 
L 142.015594 221.009888 
L 142.622665 211.967956 
L 142.825023 211.698357 
L 143.02738 210.495531 
L 143.229737 211.179897 
L 143.634451 216.405968 
L 143.836809 215.182404 
L 144.039166 225.261256 
L 144.646238 274.079397 
L 145.050952 286.045442 
L 145.253309 287.331221 
L 145.455666 284.220464 
L 145.860381 254.875659 
L 146.062738 238.596033 
L 146.66981 222.295668 
L 146.872167 219.641155 
L 147.074524 218.56276 
L 147.479238 207.571419 
L 147.681596 215.949724 
L 147.883953 216.924428 
L 148.08631 219.516725 
L 148.491024 228.745303 
L 148.693382 227.397309 
L 149.098096 250.810937 
L 149.502811 278.704056 
L 149.907525 291.707019 
L 150.109882 293.760118 
L 150.312239 293.179444 
L 150.514597 290.359024 
L 150.716954 284.65597 
L 151.121668 263.793162 
L 151.526383 243.303645 
L 151.931097 237.496899 
L 152.133454 237.061393 
L 152.335811 239.031539 
L 152.538169 239.549998 
L 152.740526 237.496899 
L 152.942883 237.787236 
L 153.14524 236.812532 
L 153.347597 236.854009 
L 153.549955 233.929898 
L 153.752312 236.128166 
L 154.764098 287.60082 
L 154.966455 291.56185 
L 155.168812 292.951321 
L 155.573527 289.01103 
L 155.775884 277.936736 
L 156.78767 199.981173 
L 157.799456 157.343068 
L 158.001813 159.354691 
L 158.406528 172.565037 
L 158.608885 186.127937 
L 159.215956 254.792706 
L 159.620671 276.402096 
L 159.823028 279.616544 
L 160.025385 278.704056 
L 160.227743 268.894803 
L 160.632457 236.418503 
L 161.8466 186.08646 
L 162.251315 176.028347 
L 162.453672 176.173515 
L 162.656029 179.035411 
L 163.465458 210.868821 
L 164.072529 270.761257 
L 164.477244 289.38432 
L 164.679601 289.716134 
L 164.881958 286.480947 
L 165.084316 276.319142 
L 165.48903 244.527209 
L 166.500816 209.417135 
L 167.310245 166.467954 
L 167.512602 169.827572 
L 167.917316 190.420781 
L 168.119674 194.879532 
L 168.322031 206.244163 
L 168.929102 265.701093 
L 169.333817 280.902324 
L 169.536174 284.427848 
L 169.738531 280.757155 
L 170.143246 253.444711 
L 170.54796 223.104464 
L 171.357389 178.496214 
L 171.559746 172.461346 
L 172.166818 148.23892 
L 172.369175 149.856514 
L 172.571532 157.778574 
L 173.178604 196.787463 
L 173.785675 267.940838 
L 174.19039 287.351959 
L 174.392747 290.338286 
L 174.595104 288.513309 
L 174.999819 264.290883 
L 175.404533 239.259661 
L 177.023391 160.930807 
L 177.225748 161.449267 
L 177.428105 165.36882 
L 177.630462 181.980261 
L 177.83282 184.42739 
L 178.237534 228.600135 
L 178.642248 271.570054 
L 179.046963 290.79453 
L 179.24932 294.527438 
L 179.451677 291.997356 
L 179.654034 283.287237 
L 180.261106 243.36586 
L 181.879964 146.227297 
L 182.082321 142.950634 
L 182.284678 148.632949 
L 183.094107 205.082814 
L 183.498821 244.174656 
L 183.903536 265.680354 
L 184.30825 273.5402 
L 184.510607 274.908933 
L 184.712965 271.258978 
L 184.915322 257.841248 
L 185.724751 175.613579 
L 186.129465 154.170096 
L 186.331822 148.093751 
L 186.53418 147.326431 
L 186.736537 149.877252 
L 187.748323 190.441519 
L 188.557752 254.834183 
L 188.962466 269.06071 
L 189.164823 271.113809 
L 189.36718 271.196763 
L 189.569538 270.450181 
L 189.771895 259.624748 
L 190.986038 163.294982 
L 191.188395 157.965219 
L 191.390752 157.923743 
L 191.795467 167.110844 
L 192.604896 198.550225 
L 193.414325 262.15483 
L 193.819039 275.925113 
L 194.021396 277.003509 
L 194.426111 273.02174 
L 194.628468 264.021284 
L 195.437897 202.822331 
L 195.640254 197.782905 
L 195.842611 199.006469 
L 196.247325 205.103552 
L 196.449683 205.684227 
L 196.65204 205.290198 
L 197.056754 213.544072 
L 197.259112 214.394346 
L 197.461469 222.855604 
L 198.06854 271.466362 
L 198.473255 285.734366 
L 198.675612 285.838058 
L 198.877969 282.167365 
L 199.282684 251.204967 
L 199.687398 228.247582 
L 201.306256 161.449267 
L 201.508613 160.287918 
L 202.115684 179.595348 
L 202.318042 190.81481 
L 202.925113 255.269689 
L 203.329828 273.02174 
L 203.532185 275.137055 
L 203.734542 272.12999 
L 203.936899 260.537237 
L 204.341614 226.339651 
L 205.758114 171.341473 
L 205.960471 168.832129 
L 206.162829 168.977298 
L 206.365186 170.408246 
L 206.7699 182.332813 
L 206.972257 185.547262 
L 207.174615 196.455649 
L 207.781686 255.871102 
L 208.186401 272.12999 
L 208.388758 275.19927 
L 208.591115 271.839653 
L 208.793472 259.894347 
L 209.198187 225.883407 
L 209.805258 203.465221 
L 210.209973 183.452686 
L 210.817044 141.498947 
L 211.019402 132.954736 
L 211.221759 135.941062 
L 211.626473 160.578255 
L 211.82883 165.825065 
L 212.031188 180.653005 
L 212.638259 246.124064 
L 213.042974 264.830081 
L 213.245331 268.853326 
L 213.447688 267.132041 
L 213.650045 256.348084 
L 214.257117 212.797491 
L 214.661831 186.273105 
L 215.47126 126.525838 
L 215.875975 109.686276 
L 216.078332 109.209293 
L 216.280689 114.787916 
L 217.090118 178.993935 
L 217.697189 241.333499 
L 218.101904 259.915085 
L 218.304261 263.295441 
L 218.506618 264.664174 
L 218.708976 263.399133 
L 218.911333 250.582815 
L 219.518404 195.41873 
L 220.125476 159.976842 
L 220.327833 157.799312 
L 220.53019 160.039057 
L 221.541976 202.635685 
L 221.744334 207.82028 
L 222.553762 265.09968 
L 222.958477 276.049543 
L 223.160834 277.770829 
L 223.363191 278.123381 
L 223.565549 276.547264 
L 223.767906 267.774931 
L 224.374977 229.305239 
L 224.779692 221.673516 
L 225.386763 223.747354 
L 225.589121 227.293617 
L 225.791478 228.185367 
L 226.196192 236.625887 
L 226.398549 236.273334 
L 226.600907 242.743708 
L 227.410335 296.725706 
L 227.612693 300.790428 
L 227.81505 302.490975 
L 228.017407 299.276527 
L 228.826836 256.389561 
L 229.029193 254.046124 
L 229.23155 248.260117 
L 230.648051 184.406651 
L 230.850408 184.987326 
L 231.255122 199.50419 
L 231.45748 210.474792 
L 232.064551 274.597857 
L 232.469266 291.893664 
L 232.671623 294.63113 
L 232.87398 293.407566 
L 233.278694 267.940838 
L 233.683409 245.253052 
L 235.302267 180.217499 
L 235.504624 179.616086 
L 236.111695 198.861301 
L 236.314053 209.292705 
L 236.921124 271.860391 
L 237.325839 287.84968 
L 237.528196 291.001914 
L 237.730553 288.865861 
L 238.135267 264.747127 
L 238.539982 242.805924 
L 239.349411 211.65688 
L 239.754125 201.578028 
L 240.15884 191.291793 
L 240.361197 191.042932 
L 240.563554 196.538602 
L 240.968268 214.269915 
L 241.170626 221.901639 
L 241.777697 277.833044 
L 242.182412 293.801595 
L 242.384769 296.310939 
L 242.587126 293.303874 
L 242.99184 268.41782 
L 243.396555 250.333955 
L 245.21777 175.157335 
L 245.420127 179.429441 
L 246.027199 206.41007 
L 246.836627 280.404603 
L 247.038985 288.824384 
L 247.241342 292.018094 
L 247.443699 289.467274 
L 247.848413 265.74257 
L 249.467271 152.96727 
L 249.669628 144.837826 
L 249.871985 142.888419 
L 250.074343 143.054326 
L 250.2767 150.043159 
L 250.883772 182.37429 
L 251.6932 257.861986 
L 252.097915 272.482542 
L 252.300272 275.572561 
L 252.502629 275.84216 
L 252.704986 271.943345 
L 253.109701 238.969324 
L 253.91913 165.265128 
L 254.323844 149.358793 
L 254.728558 140.482767 
L 254.930916 139.217726 
L 255.133273 146.766495 
L 255.740345 184.489605 
L 256.549773 260.205423 
L 256.954488 275.779944 
L 257.156845 279.616544 
L 257.359202 281.296353 
L 257.561559 280.321649 
L 257.966274 251.246443 
L 258.573345 200.520371 
L 258.97806 178.703597 
L 259.382774 167.608565 
L 259.585131 164.145256 
L 259.787489 163.70975 
L 259.989846 166.343524 
L 260.39456 182.436505 
L 260.596917 195.874974 
L 261.203989 258.276753 
L 261.608704 277.107201 
L 261.811061 280.05205 
L 262.013418 279.263992 
L 262.418132 255.145258 
L 262.62049 243.054784 
L 263.025204 233.328485 
L 263.227561 230.508065 
L 263.429918 229.491885 
L 263.834633 230.777664 
L 264.03699 230.466589 
L 264.239347 231.420554 
L 264.441704 231.503508 
L 264.644062 231.233909 
L 264.846419 233.287008 
L 265.048776 237.35173 
L 265.251133 237.35173 
L 265.45349 241.395714 
L 266.060562 284.137511 
L 266.465277 297.05752 
L 266.667634 298.612899 
L 266.869991 294.403008 
L 267.072348 286.397994 
L 267.477063 259.72844 
L 268.084134 237.413945 
L 268.488849 227.065495 
L 269.09592 215.74234 
L 269.500635 211.760572 
L 269.702992 213.95884 
L 269.905349 217.588056 
L 270.107706 218.272422 
L 270.310063 224.618366 
L 270.917135 273.78906 
L 271.32185 285.838058 
L 271.524207 287.994849 
L 271.726564 286.273564 
L 274.15485 143.780169 
L 274.357208 136.563213 
L 274.559565 139.922831 
L 275.166636 165.24439 
L 275.976065 247.347628 
L 276.38078 259.998039 
L 276.583137 259.292934 
L 276.987851 237.310253 
L 277.392566 208.214309 
L 278.404352 150.893432 
L 278.606709 147.824153 
L 279.011423 134.510114 
L 279.213781 132.89252 
L 279.416138 137.185365 
L 280.023209 179.18058 
L 280.630281 250.997583 
L 281.034995 273.934229 
L 281.237353 278.849224 
L 281.43971 277.293846 
L 281.642067 271.36267 
L 282.249139 229.325978 
L 282.85621 195.460207 
L 283.867996 152.386596 
L 284.070354 151.18377 
L 284.272711 159.396167 
L 285.284497 243.034046 
L 285.689211 275.427392 
L 286.093926 290.276071 
L 286.296283 292.578031 
L 286.49864 290.753053 
L 286.700997 287.787465 
L 287.105712 256.555468 
L 287.712783 204.647308 
L 288.522212 160.910069 
L 288.724569 153.73459 
L 288.926927 151.785183 
L 289.129284 155.393661 
L 289.736355 189.446077 
L 290.545784 260.018777 
L 290.950499 275.406654 
L 291.152856 278.206335 
L 291.355213 278.289288 
L 291.55757 276.796125 
L 291.759927 264.228668 
L 292.771714 164.850361 
L 293.176428 142.701773 
L 293.581142 131.378619 
L 293.7835 129.636595 
L 293.985857 133.182858 
L 294.592928 158.898446 
L 295.402357 242.785185 
L 295.807072 257.592387 
L 296.009429 257.42648 
L 296.414143 236.978439 
L 297.830644 100.851727 
L 298.235358 87.433996 
L 298.437715 84.82096 
L 298.640073 85.090559 
L 298.84243 87.164397 
L 299.044787 95.273103 
L 299.449501 122.481855 
L 300.056573 202.179441 
L 300.461287 227.646169 
L 300.663645 233.722514 
L 300.866002 234.448357 
L 301.068359 227.563216 
L 301.473073 197.243707 
L 302.484859 91.000997 
L 302.687217 79.574151 
L 302.889574 79.677843 
L 303.091931 87.848764 
L 303.496646 96.579621 
L 303.90136 119.039284 
L 304.306074 147.243478 
L 304.913146 217.111073 
L 305.31786 242.702232 
L 305.520218 248.322332 
L 305.722575 246.518093 
L 305.924932 239.321876 
L 306.532004 198.985731 
L 307.54379 128.309339 
L 307.746147 118.002365 
L 307.948504 117.110615 
L 308.757933 149.690607 
L 309.162647 176.007608 
L 309.769719 239.612213 
L 310.174433 259.686963 
L 310.376791 264.124976 
L 310.579148 263.544301 
L 310.983862 239.902551 
L 312.198005 134.862666 
L 312.60272 123.124744 
L 312.805077 118.70747 
L 313.007434 119.267406 
L 313.209791 123.000314 
L 313.816863 150.851956 
L 314.01922 164.663715 
L 314.626292 227.853553 
L 315.031006 248.550454 
L 315.233364 253.175113 
L 315.435721 252.511484 
L 315.840435 233.556607 
L 316.24515 214.663945 
L 316.649864 202.531994 
L 317.054578 187.081902 
L 317.66165 179.491656 
L 317.864007 179.035411 
L 318.066364 178.122923 
L 318.268722 182.851273 
L 318.875793 205.207244 
L 319.685222 264.373837 
L 320.089937 277.273108 
L 320.292294 278.932178 
L 320.697008 270.927164 
L 321.101723 244.444255 
L 322.315866 165.762849 
L 322.72058 155.414399 
L 322.922937 153.070962 
L 323.125295 157.239376 
L 323.732366 185.132494 
L 324.541795 254.336462 
L 324.94651 268.770373 
L 325.148867 271.694484 
L 325.351224 271.756699 
L 325.553581 269.475478 
L 325.755938 257.032451 
L 326.970082 143.531308 
L 327.172439 137.143888 
L 327.374796 135.547033 
L 327.77951 129.926932 
L 327.981868 134.966358 
L 328.184225 143.842384 
L 328.791296 195.999405 
L 329.196011 240.151411 
L 329.398368 255.539288 
L 329.803083 265.74257 
L 330.00544 264.788604 
L 330.207797 259.127027 
L 330.814869 210.142978 
L 331.42194 171.548857 
L 331.826655 148.653688 
L 332.029012 145.729576 
L 332.231369 145.750315 
L 332.433726 145.93696 
L 332.636083 148.052275 
L 332.838441 152.635456 
L 333.243155 175.779486 
L 333.445512 184.883634 
L 334.052584 251.246443 
L 334.457298 273.249862 
L 334.659655 278.724794 
L 334.862013 276.298404 
L 335.266727 256.265131 
L 335.671442 231.669415 
L 336.48087 191.167362 
L 336.683228 186.044983 
L 336.885585 184.925111 
L 337.087942 178.682859 
L 337.290299 176.816405 
L 337.695014 183.348994 
L 338.099728 197.948812 
L 338.302085 203.879988 
L 339.111514 270.346489 
L 339.313871 276.60948 
L 339.516228 278.869963 
L 339.718586 274.763764 
L 340.1233 251.184228 
L 340.932729 206.28564 
L 342.349229 143.925338 
L 342.551587 143.842384 
L 343.158658 168.769914 
L 343.76573 232.146397 
L 344.170444 250.333955 
L 344.372801 255.145258 
L 344.575159 252.988467 
L 344.777516 245.999634 
L 345.18223 214.809113 
L 346.194016 131.35788 
L 346.598731 116.446987 
L 347.003445 109.769229 
L 347.205802 108.918956 
L 347.40816 112.133404 
L 347.610517 120.055464 
L 348.015231 146.413943 
L 348.82466 238.430126 
L 349.229374 255.705195 
L 349.431732 254.937875 
L 349.634089 249.089652 
L 349.836446 237.849451 
L 351.050589 132.394799 
L 351.455304 113.854689 
L 351.860018 104.916449 
L 352.062375 104.00396 
L 352.264733 107.674653 
L 352.46709 118.873377 
L 353.276519 202.780854 
L 353.681233 241.084638 
L 354.085947 261.470464 
L 354.288305 266.800227 
L 354.490662 267.380901 
L 354.693019 265.120418 
L 355.097733 222.668959 
L 355.704805 148.11449 
L 356.109519 123.166221 
L 356.716591 104.792018 
L 356.918948 103.692884 
L 357.121306 108.545665 
L 357.52602 134.42716 
L 357.728377 147.243478 
L 358.740163 243.676935 
L 359.144878 256.78359 
L 359.347235 258.670783 
L 359.549592 258.338969 
L 359.751949 244.195395 
L 360.763735 122.357424 
L 361.16845 103.091471 
L 361.573164 91.872009 
L 361.775521 89.549311 
L 361.977879 92.867451 
L 362.180236 99.939238 
L 362.58495 125.986641 
L 363.394379 215.638648 
L 363.799093 233.473653 
L 364.001451 234.303189 
L 364.203808 228.351274 
L 364.406165 218.189469 
L 365.013237 147.886368 
L 365.620308 82.643431 
L 366.025023 66.301589 
L 366.429737 60.059337 
L 366.632094 60.557058 
L 366.834451 63.232309 
L 367.036809 72.04612 
L 367.441523 101.556831 
L 368.048595 182.063215 
L 368.453309 212.921921 
L 368.655666 221.549086 
L 368.858024 223.954738 
L 369.060381 220.014446 
L 369.262738 210.039286 
L 369.86981 145.791792 
L 370.476881 86.957013 
L 370.881596 70.138189 
L 371.083953 69.681944 
L 371.28631 70.407788 
L 371.488667 74.389556 
L 371.691024 80.694023 
L 372.298096 120.138418 
L 373.107525 206.16121 
L 373.512239 228.66235 
L 373.714597 233.079624 
L 374.119311 232.374519 
L 374.321668 219.475248 
L 375.333454 114.373149 
L 375.738169 100.955418 
L 375.940526 98.217953 
L 376.142883 97.09808 
L 376.34524 102.34489 
L 376.749955 128.910752 
L 377.559383 188.554327 
L 377.964098 223.643662 
L 378.368812 237.621329 
L 378.57117 237.849451 
L 378.773527 231.835322 
L 378.975884 220.47069 
L 380.392384 102.324151 
L 380.797099 92.266038 
L 381.201813 84.5721 
L 381.40417 88.387961 
L 382.011242 125.903687 
L 382.820671 209.873379 
L 383.225385 226.194483 
L 383.427743 226.858111 
L 383.6301 221.445394 
L 384.034814 198.902777 
L 385.0466 124.472739 
L 385.451315 107.550223 
L 385.653672 107.07324 
L 385.856029 110.90984 
L 386.058386 118.645255 
L 387.070172 189.591246 
L 387.474887 230.259205 
L 387.879601 252.449269 
L 388.284316 261.719324 
L 388.68903 264.270145 
L 388.891387 258.44266 
L 389.700816 214.290654 
L 390.307888 202.926023 
L 390.914959 190.006013 
L 391.117316 194.858794 
L 391.926745 234.987555 
L 392.533817 279.80319 
L 392.938531 292.349908 
L 393.140888 294.237101 
L 393.343246 293.780857 
L 393.545603 294.257839 
L 393.74796 285.17443 
L 394.355032 243.428075 
L 395.569175 186.148675 
L 395.771532 180.051592 
L 395.973889 181.275156 
L 396.176247 189.715676 
L 396.783318 232.353781 
L 397.188033 271.424885 
L 397.592747 289.508751 
L 397.795104 292.32917 
L 397.997461 289.757611 
L 398.402176 271.36267 
L 400.628105 141.913715 
L 400.830462 144.796349 
L 401.03282 154.895939 
L 401.639891 212.756014 
L 402.044606 257.737556 
L 402.44932 278.351503 
L 402.651677 282.416225 
L 402.854034 280.736417 
L 403.258749 262.27926 
L 403.663463 233.452915 
L 404.877607 125.882949 
L 405.282321 105.061617 
L 405.484678 100.789511 
L 405.687035 101.888645 
L 405.889393 112.548172 
L 406.294107 150.457927 
L 406.901179 228.994164 
L 407.305893 253.403235 
L 407.50825 259.08555 
L 407.710607 258.546352 
L 408.115322 236.999178 
L 409.73418 102.801134 
L 409.936537 97.803185 
L 410.138894 97.658016 
L 410.341251 102.324151 
L 410.948323 138.948127 
L 411.15068 155.082585 
L 411.757752 226.692204 
L 412.162466 251.101275 
L 412.364823 257.675341 
L 412.56718 259.479579 
L 412.971895 241.167592 
L 414.388395 141.664854 
L 414.79311 127.936048 
L 415.197824 121.175337 
L 415.400181 128.03974 
L 416.20961 191.478438 
L 416.614325 237.35173 
L 417.019039 260.74462 
L 417.221396 265.058203 
L 417.423753 264.498267 
L 417.828468 248.114948 
L 419.244968 149.00624 
L 419.649683 135.215219 
L 419.85204 131.337142 
L 420.054397 132.788829 
L 420.256754 141.561162 
L 421.066183 207.69585 
L 421.673255 263.482086 
L 422.077969 279.761713 
L 422.280326 282.271057 
L 422.482684 281.607429 
L 422.685041 281.441522 
L 423.089755 250.313216 
L 423.899184 180.424883 
L 424.708613 140.648674 
L 424.91097 137.434225 
L 425.113327 141.478209 
L 425.518042 167.898902 
L 425.720399 179.82347 
L 426.529828 255.24895 
L 426.934542 274.017182 
L 427.136899 278.538149 
L 427.339257 279.346945 
L 427.541614 279.575068 
L 427.743971 270.885687 
L 428.148685 230.114036 
L 428.755757 167.587827 
L 429.160471 141.685593 
L 429.565186 133.348765 
L 429.9699 137.309795 
L 430.374615 153.693114 
L 430.576972 165.451774 
L 431.386401 242.204511 
L 431.791115 254.564584 
L 431.993472 252.511484 
L 432.398187 232.001229 
L 433.207616 166.260571 
L 434.017044 95.190149 
L 434.219402 90.254415 
L 435.02883 117.94015 
L 435.433545 143.178756 
L 436.040617 215.078712 
L 436.445331 237.828713 
L 436.647688 243.013307 
L 436.850045 242.328941 
L 437.25476 221.528348 
L 437.659474 186.273105 
L 438.468903 112.091927 
L 438.67126 102.261936 
L 438.873617 103.23664 
L 439.075975 110.412119 
L 439.278332 109.955874 
L 439.480689 112.216358 
L 439.885403 130.943113 
L 440.290118 155.932858 
L 440.897189 230.051821 
L 441.301904 252.5737 
L 441.504261 258.048631 
L 441.706618 258.587829 
L 442.111333 243.718412 
L 442.920762 191.208839 
L 443.527833 156.015812 
L 444.134905 133.058427 
L 444.337262 130.445392 
L 444.539619 136.915766 
L 445.146691 182.395029 
L 445.753762 252.221147 
L 446.158477 273.623153 
L 446.360834 278.621102 
L 446.563191 276.60948 
L 446.967906 257.530172 
L 448.586763 146.725019 
L 448.991478 133.41098 
L 449.193835 131.067543 
L 449.396192 137.786778 
L 450.003264 178.53769 
L 450.812693 259.313672 
L 451.217407 272.731403 
L 451.419764 272.855833 
L 451.824479 255.518549 
L 452.43155 204.647308 
L 453.038622 162.361755 
L 453.443336 145.16964 
L 453.848051 137.226841 
L 454.050408 140.627935 
L 454.252765 150.706787 
L 454.65748 179.367225 
L 454.859837 187.890699 
L 455.669266 253.195851 
L 456.07398 266.862442 
L 456.276337 268.397082 
L 456.478694 266.385459 
L 456.681052 263.253964 
L 456.883409 255.186735 
L 457.288123 227.936507 
L 457.692838 216.882951 
L 457.895195 217.588056 
L 458.299909 223.394802 
L 458.502267 223.249633 
L 458.906981 219.392295 
L 459.109338 219.931493 
L 459.514053 224.120645 
L 459.71641 228.454966 
L 460.728196 286.667593 
L 461.13291 291.126344 
L 461.537625 287.787465 
L 461.739982 278.787009 
L 462.144696 243.988011 
L 463.561197 174.224108 
L 463.763554 166.90346 
L 463.965911 168.085548 
L 464.572983 187.724792 
L 465.382412 255.269689 
L 465.584769 262.237784 
L 465.787126 264.97525 
L 465.989483 262.528121 
L 467.608341 169.20542 
L 468.620127 147.844891 
L 468.822484 150.997124 
L 469.429556 177.459295 
L 470.036627 234.655741 
L 470.441342 252.594438 
L 470.643699 255.24895 
L 470.846056 252.656653 
L 471.857842 201.308429 
L 472.869628 170.802275 
L 473.071985 171.299996 
L 473.274343 169.495758 
L 473.4767 170.760799 
L 473.679057 174.57666 
L 473.881414 181.212941 
L 474.083772 182.37429 
L 474.286129 190.109705 
L 474.8932 242.660755 
L 475.297915 259.044073 
L 475.500272 260.723882 
L 475.702629 258.670783 
L 476.107344 234.095805 
L 476.512058 211.90574 
L 477.321487 180.155284 
L 477.726201 159.831673 
L 477.928558 156.243934 
L 478.333273 160.972284 
L 478.53563 165.472512 
L 479.142702 190.607426 
L 479.952131 258.940382 
L 480.356845 268.874065 
L 480.559202 268.459297 
L 480.963917 246.186279 
L 482.785131 116.737324 
L 482.987489 110.78541 
L 483.189846 108.130897 
L 483.392203 113.813213 
L 483.999275 154.004189 
L 484.606346 225.696762 
L 485.011061 249.11039 
L 485.213418 253.548403 
L 485.415775 254.502369 
L 485.82049 234.572787 
L 486.225204 203.112668 
L 487.23699 112.403003 
L 487.439347 109.292246 
L 487.844062 115.907789 
L 488.248776 134.676021 
L 489.260562 212.838967 
L 489.665277 245.253052 
L 490.069991 260.475022 
L 490.272348 262.839197 
L 490.474705 261.698586 
L 490.677063 259.915085 
L 490.87942 250.105833 
L 491.891206 169.744618 
L 492.29592 151.888875 
L 492.498277 144.443797 
L 492.700635 142.411436 
L 492.902992 144.049768 
L 493.105349 148.902548 
L 493.712421 182.685366 
L 494.52185 255.24895 
L 495.128921 273.66463 
L 495.331278 273.809799 
L 495.533636 273.187647 
L 495.735993 265.576663 
L 496.950136 173.353096 
L 497.557208 148.798856 
L 497.759565 145.418501 
L 497.961922 148.653688 
L 498.568994 180.404144 
L 499.378422 254.792706 
L 499.58078 261.677847 
L 499.783137 264.187191 
L 499.985494 260.848312 
L 500.187851 252.262624 
L 500.794923 215.057974 
L 500.99728 209.914856 
L 501.401995 196.725248 
L 501.806709 185.381355 
L 502.009066 184.925111 
L 502.211423 186.998948 
L 502.413781 187.641838 
L 502.616138 185.96203 
L 503.020852 195.750544 
L 503.223209 196.31048 
L 503.425567 203.879988 
L 504.032638 254.958613 
L 504.437353 268.127483 
L 504.63971 269.765815 
L 504.842067 267.380901 
L 505.246782 242.826662 
L 505.651496 218.832359 
L 507.270354 145.128163 
L 507.472711 141.996668 
L 507.675068 145.418501 
L 508.28214 173.664171 
L 508.889211 232.125659 
L 509.293926 249.379989 
L 509.496283 252.926252 
L 509.69864 251.080536 
L 510.103354 227.355832 
L 511.722212 120.179895 
L 512.126927 102.282675 
L 512.329284 103.87953 
L 512.936355 138.512621 
L 513.34107 177.749632 
L 513.745784 221.549086 
L 514.150499 244.444255 
L 514.352856 250.064356 
L 514.555213 250.562077 
L 514.75757 241.603098 
L 516.174071 144.111983 
L 516.376428 143.012849 
L 516.781142 152.407334 
L 516.9835 149.64913 
L 517.185857 150.188328 
L 517.590571 168.023333 
L 517.792928 172.295439 
L 517.995286 183.079395 
L 518.4 223.042249 
L 518.4 223.042249 
" clip-path="url(#pa087f5cf32)" style="fill: none; stroke: #1f77b4; stroke-width: 1.5; stroke-linecap: square"/>
   </g>
   <g id="line2d_14">
    <path d="M 72 280.160126 
L 72.202357 280.160126 
L 72.809429 287.173878 
L 73.011786 282.398875 
L 73.821215 247.521712 
L 74.428286 218.192227 
L 75.035358 178.859186 
L 75.440073 171.536648 
L 75.64243 176.448931 
L 76.047144 192.479235 
L 77.05893 268.205003 
L 77.261287 274.542251 
L 77.463645 275.170356 
L 77.666002 272.554434 
L 77.868359 266.736324 
L 79.689574 169.854008 
L 80.094288 160.52398 
L 80.296646 163.092253 
L 80.70136 185.00968 
L 81.915503 279.158513 
L 82.11786 282.796131 
L 82.320218 282.847321 
L 82.724932 273.90578 
L 83.129646 258.220374 
L 83.534361 237.458733 
L 83.939075 230.829553 
L 84.141432 228.77209 
L 84.34379 228.41344 
L 84.950861 235.245572 
L 85.153218 236.444518 
L 85.355576 239.152507 
L 86.569719 296.83915 
L 86.974433 304.81176 
L 87.176791 304.626166 
L 87.581505 296.327471 
L 88.593291 253.109138 
L 89.200363 245.718116 
L 89.605077 251.565927 
L 89.807434 249.600691 
L 90.212149 242.060683 
L 90.414506 241.30571 
L 90.616863 246.264499 
L 90.81922 254.159018 
L 91.426292 295.606266 
L 91.831006 306.004479 
L 92.033364 304.428571 
L 92.235721 298.382018 
L 93.04515 249.076605 
L 93.247507 247.964752 
L 93.449864 245.66333 
L 93.652221 241.600826 
L 93.854578 241.011462 
L 94.259293 234.024959 
L 94.46165 232.890047 
L 94.866364 228.087664 
L 95.068722 229.712021 
L 95.675793 247.794588 
L 96.282865 297.772092 
L 96.485222 302.545489 
L 96.687579 302.073968 
L 96.889937 297.058062 
L 97.294651 273.7237 
L 97.699365 249.604168 
L 98.10408 245.658498 
L 98.306437 243.873139 
L 98.508794 239.190871 
L 98.711151 238.260631 
L 99.722937 223.155251 
L 99.925295 226.139206 
L 100.532366 252.601752 
L 101.139438 294.900186 
L 101.341795 299.475117 
L 101.544152 299.754101 
L 101.74651 294.800881 
L 102.151224 273.674533 
L 102.555938 250.312787 
L 102.758296 247.139133 
L 103.16301 244.770285 
L 103.365367 239.70786 
L 103.567724 238.095673 
L 103.770082 234.471814 
L 103.972439 227.49081 
L 104.174796 225.174555 
L 104.377153 220.612783 
L 104.57951 219.069332 
L 104.781868 223.032464 
L 105.388939 249.969634 
L 105.996011 292.981404 
L 106.198368 297.447879 
L 106.400725 297.524675 
L 106.603083 293.227505 
L 107.007797 273.044418 
L 107.412511 249.853145 
L 107.614869 244.256505 
L 107.817226 243.81599 
L 108.019583 240.927179 
L 108.626655 218.691186 
L 108.829012 206.039263 
L 109.031369 203.480877 
L 109.233726 203.436358 
L 109.436083 207.477411 
L 110.043155 233.930385 
L 111.054941 293.564778 
L 111.257298 294.203334 
L 111.459655 290.919903 
L 111.86437 272.108716 
L 112.269084 249.689671 
L 114.090299 179.050913 
L 114.292656 177.901877 
L 114.697371 202.296699 
L 115.709157 273.842004 
L 116.113871 284.092016 
L 116.316228 284.108269 
L 116.720943 275.980718 
L 117.328015 245.176325 
L 118.137443 191.661966 
L 118.744515 155.212462 
L 118.946872 147.203687 
L 119.149229 147.10078 
L 119.351587 153.960869 
L 119.958658 207.161775 
L 120.363373 247.584555 
L 120.768087 270.248192 
L 121.172801 280.381527 
L 121.375159 280.691812 
L 121.577516 278.564374 
L 121.779873 271.509519 
L 122.994016 206.935105 
L 123.398731 196.4888 
L 123.601088 195.251541 
L 124.005802 203.192323 
L 124.815231 236.459322 
L 125.422303 286.149587 
L 125.827017 298.839226 
L 126.029374 298.568929 
L 126.231732 292.925087 
L 128.052947 178.073449 
L 128.457661 161.22788 
L 128.660018 158.695967 
L 128.862375 159.570646 
L 129.064733 167.965133 
L 129.469447 204.569781 
L 130.278876 281.314412 
L 130.68359 289.63256 
L 130.885947 287.215536 
L 131.088305 279.861709 
L 131.493019 249.973448 
L 131.897733 217.792093 
L 132.302448 200.858927 
L 133.314234 144.623262 
L 133.516591 139.268112 
L 133.718948 141.963181 
L 133.921306 150.794588 
L 134.528377 200.854357 
L 134.933092 251.785753 
L 135.337806 272.48948 
L 135.540163 273.767651 
L 135.74252 270.538408 
L 135.944878 264.30834 
L 136.349592 239.521094 
L 136.956664 201.739521 
L 137.159021 200.597528 
L 137.563735 191.513828 
L 137.766092 188.698355 
L 137.96845 191.205262 
L 138.170807 199.633836 
L 138.373164 200.941769 
L 138.575521 203.019385 
L 138.980236 211.762619 
L 139.38495 235.530732 
L 139.789665 268.485669 
L 140.194379 286.935626 
L 140.396736 286.931355 
L 140.599093 282.815143 
L 140.801451 273.435311 
L 141.408522 234.253865 
L 142.015594 210.289964 
L 142.217951 210.661363 
L 142.420308 208.5175 
L 142.622665 207.997653 
L 142.825023 208.58344 
L 143.02738 210.373768 
L 143.229737 210.898707 
L 143.432094 210.415221 
L 143.634451 210.938651 
L 144.039166 228.102335 
L 144.44388 254.696663 
L 144.848595 279.618965 
L 145.050952 285.136831 
L 145.253309 285.716683 
L 145.455666 281.08549 
L 145.860381 256.41137 
L 146.265095 228.773945 
L 146.872167 214.779823 
L 147.074524 212.063022 
L 147.276881 212.01622 
L 147.479238 209.538801 
L 147.681596 205.27838 
L 148.08631 215.110833 
L 148.491024 219.820926 
L 149.907525 285.353973 
L 150.109882 287.748589 
L 150.312239 283.580312 
L 151.121668 252.063899 
L 151.72874 233.639726 
L 151.931097 230.198005 
L 152.133454 230.007273 
L 152.335811 231.75298 
L 152.538169 232.478992 
L 152.740526 233.798853 
L 152.942883 234.043883 
L 153.14524 232.144466 
L 153.347597 231.949309 
L 154.157026 260.643351 
L 154.764098 282.333506 
L 154.966455 286.23039 
L 155.168812 287.535095 
L 155.37117 284.267689 
L 155.775884 268.860083 
L 156.585313 223.251507 
L 156.990027 195.122031 
L 157.799456 161.903622 
L 158.001813 158.795392 
L 158.20417 163.403462 
L 158.608885 187.087774 
L 159.418314 262.664879 
L 159.823028 277.913906 
L 160.025385 280.314362 
L 160.227743 276.088218 
L 160.4301 264.475514 
L 160.834814 226.854754 
L 161.441886 193.99247 
L 161.644243 190.892636 
L 162.251315 175.183809 
L 162.453672 176.433283 
L 162.858386 188.234098 
L 163.465458 214.490179 
L 163.667815 225.104461 
L 164.477244 287.833059 
L 164.679601 291.043246 
L 164.881958 286.976188 
L 165.286673 262.703501 
L 165.691387 229.685516 
L 166.096102 219.143628 
L 166.298459 216.360005 
L 166.703173 206.596307 
L 167.310245 176.502398 
L 167.512602 171.43049 
L 167.714959 174.210831 
L 168.322031 209.497927 
L 169.13146 273.398705 
L 169.333817 279.119413 
L 169.536174 280.860486 
L 169.738531 279.126752 
L 169.940888 271.571002 
L 171.559746 170.793993 
L 171.964461 160.58002 
L 172.369175 155.871738 
L 172.571532 159.145093 
L 172.773889 168.284371 
L 173.583318 240.610861 
L 173.988033 273.105289 
L 174.19039 277.910945 
L 174.392747 279.985575 
L 174.595104 279.664939 
L 174.797461 275.146129 
L 175.202176 248.570302 
L 175.60689 222.166364 
L 177.023391 174.279706 
L 177.225748 170.948733 
L 177.428105 172.602638 
L 177.630462 177.909761 
L 178.237534 221.876402 
L 178.642248 269.049067 
L 178.844606 283.326331 
L 179.046963 288.7181 
L 179.24932 289.662646 
L 179.451677 286.747077 
L 179.856392 268.909421 
L 180.463463 228.476557 
L 181.879964 155.606405 
L 182.082321 152.04147 
L 182.284678 153.035486 
L 182.487035 160.638945 
L 183.296464 231.739014 
L 183.701179 263.521563 
L 183.903536 269.244476 
L 184.105893 271.09814 
L 184.30825 270.150627 
L 184.712965 261.606364 
L 184.915322 253.580026 
L 185.320036 222.451326 
L 186.331822 141.001217 
L 186.53418 137.622998 
L 186.736537 138.95222 
L 186.938894 145.597315 
L 187.95068 213.378367 
L 188.355394 245.853403 
L 188.760109 264.880361 
L 189.164823 271.482809 
L 189.36718 268.82594 
L 189.771895 252.124708 
L 190.581324 198.737644 
L 191.390752 154.439331 
L 191.59311 155.969272 
L 191.997824 172.819493 
L 193.819039 276.967779 
L 194.021396 280.068444 
L 194.223753 276.380557 
L 194.628468 253.744208 
L 195.437897 204.779859 
L 195.842611 190.994271 
L 196.044968 192.523435 
L 196.65204 209.216772 
L 196.854397 209.743678 
L 197.663826 234.909619 
L 198.473255 284.47588 
L 198.675612 289.139691 
L 198.877969 288.928004 
L 199.080326 282.514558 
L 199.485041 245.995059 
L 199.889755 214.27932 
L 200.092112 203.336983 
L 200.496827 197.364294 
L 201.103898 176.389946 
L 201.508613 171.375565 
L 201.71097 171.45839 
L 201.913327 175.801363 
L 202.520399 211.041968 
L 203.127471 264.051328 
L 203.329828 273.574825 
L 203.532185 276.051687 
L 203.734542 271.956868 
L 204.139257 247.563578 
L 204.543971 212.534946 
L 204.746328 203.716288 
L 204.948685 201.213329 
L 205.960471 169.799978 
L 206.162829 169.77684 
L 206.567543 177.718985 
L 207.376972 218.21202 
L 207.984044 264.757749 
L 208.186401 270.699643 
L 208.388758 272.139136 
L 208.591115 268.778405 
L 208.793472 260.443138 
L 209.400544 219.239006 
L 211.221759 140.51597 
L 211.424116 140.905704 
L 211.626473 151.138816 
L 212.840617 254.924127 
L 213.245331 264.894535 
L 213.447688 263.738321 
L 213.650045 257.419308 
L 215.875975 118.754146 
L 216.078332 115.799181 
L 216.280689 117.36021 
L 216.483046 124.332524 
L 217.697189 242.074429 
L 218.101904 251.151701 
L 218.304261 253.319905 
L 218.708976 248.660684 
L 218.911333 242.930873 
L 219.518404 207.491118 
L 220.327833 148.501796 
L 220.53019 149.154419 
L 220.732548 152.992523 
L 221.137262 178.050815 
L 221.541976 202.439428 
L 221.744334 211.720134 
L 222.351405 254.953249 
L 222.75612 272.373186 
L 222.958477 277.492743 
L 223.160834 279.415115 
L 223.363191 275.411903 
L 223.767906 257.763655 
L 224.374977 219.103631 
L 224.577335 214.828465 
L 224.779692 213.852939 
L 225.386763 217.458053 
L 226.600907 241.600511 
L 227.81505 299.28609 
L 228.017407 300.713659 
L 228.219764 295.824132 
L 229.029193 238.026332 
L 229.433908 233.956881 
L 229.636265 232.932918 
L 229.838622 229.934578 
L 230.648051 198.518823 
L 231.052765 193.859375 
L 231.255122 199.571198 
L 231.862194 246.397682 
L 232.266908 280.810229 
L 232.469266 288.217703 
L 232.671623 290.249818 
L 232.87398 288.426807 
L 233.076337 281.482872 
L 234.290481 216.276155 
L 234.492838 211.27172 
L 235.099909 189.379095 
L 235.302267 184.17516 
L 235.504624 182.130585 
L 235.706981 184.742426 
L 236.51641 229.721814 
L 237.123481 279.515529 
L 237.325839 286.505197 
L 237.528196 287.791621 
L 237.730553 284.847314 
L 237.93291 278.212349 
L 238.944696 224.002161 
L 239.349411 209.011822 
L 239.956482 192.982183 
L 240.15884 195.416313 
L 240.361197 195.344946 
L 240.765911 205.060328 
L 240.968268 210.601869 
L 241.57534 256.413282 
L 241.980054 284.523554 
L 242.182412 289.649921 
L 242.384769 290.648277 
L 242.587126 287.94883 
L 242.99184 270.838042 
L 243.396555 243.310459 
L 244.003626 221.98971 
L 244.610698 198.607317 
L 244.813055 191.088036 
L 245.015413 188.966362 
L 245.21777 183.983411 
L 245.420127 183.013107 
L 245.622484 188.604865 
L 246.229556 226.275274 
L 246.836627 276.959482 
L 247.038985 284.126172 
L 247.241342 285.268023 
L 247.443699 283.851176 
L 247.848413 268.333764 
L 249.871985 143.155163 
L 250.074343 143.745472 
L 250.2767 147.214327 
L 250.681414 175.756335 
L 251.6932 259.100344 
L 251.895558 267.651263 
L 252.097915 270.918719 
L 252.300272 270.457593 
L 252.704986 261.930558 
L 252.907344 253.99171 
L 253.716772 194.577043 
L 254.323844 146.444887 
L 254.526201 141.550907 
L 254.728558 139.95668 
L 254.930916 139.986117 
L 255.133273 145.546938 
L 255.537987 174.256234 
L 255.942702 205.47312 
L 256.347416 243.680943 
L 256.752131 267.532411 
L 257.156845 277.090303 
L 257.359202 276.001519 
L 257.561559 270.751367 
L 257.763917 261.497884 
L 258.370988 214.175636 
L 258.573345 206.745365 
L 259.180417 171.850751 
L 259.382774 166.971423 
L 259.585131 165.822908 
L 259.787489 166.529633 
L 260.192203 179.657619 
L 260.799275 210.60255 
L 261.406346 270.862685 
L 261.811061 285.225584 
L 262.013418 285.439337 
L 262.215775 279.4506 
L 263.227561 214.489121 
L 263.429918 215.341754 
L 263.632276 220.12336 
L 264.441704 226.021951 
L 265.048776 232.933866 
L 265.655848 250.752927 
L 266.465277 296.874106 
L 266.667634 297.957435 
L 266.869991 294.402497 
L 268.084134 235.615784 
L 268.893563 218.015798 
L 269.09592 216.707494 
L 269.298277 213.990618 
L 269.500635 213.746885 
L 269.702992 212.618989 
L 269.905349 215.677542 
L 270.512421 239.835408 
L 271.119492 278.496819 
L 271.32185 283.303426 
L 271.524207 283.434203 
L 271.726564 281.093264 
L 271.928921 274.338293 
L 272.940707 218.619322 
L 274.357208 147.675459 
L 274.559565 142.209735 
L 274.761922 144.416476 
L 275.368994 191.670977 
L 275.976065 247.033599 
L 276.178422 256.257317 
L 276.38078 259.47468 
L 276.583137 258.244769 
L 276.785494 252.429069 
L 277.594923 203.387748 
L 278.404352 155.832662 
L 278.809066 141.589781 
L 279.011423 137.286172 
L 279.213781 138.736237 
L 279.416138 141.789278 
L 279.618495 149.530169 
L 281.034995 268.153707 
L 281.237353 271.297473 
L 281.43971 270.562856 
L 281.844424 255.962853 
L 283.260925 177.292132 
L 283.665639 160.660111 
L 283.867996 158.203527 
L 284.070354 157.193085 
L 284.272711 159.336187 
L 284.879782 197.365118 
L 285.891568 282.200002 
L 286.093926 284.423317 
L 286.296283 283.765157 
L 286.49864 278.960471 
L 286.903354 262.507765 
L 288.522212 163.540267 
L 288.926927 155.742038 
L 289.129284 159.814139 
L 289.331641 166.413034 
L 289.938713 206.702348 
L 290.343427 252.085182 
L 290.748141 272.085352 
L 291.152856 277.288836 
L 291.355213 276.066901 
L 291.759927 262.818932 
L 292.164642 228.198125 
L 293.176428 141.370201 
L 293.378785 134.936799 
L 293.581142 132.461883 
L 293.7835 132.756899 
L 293.985857 137.662634 
L 294.390571 158.728876 
L 294.795286 184.813858 
L 295.604714 258.427453 
L 295.807072 264.028266 
L 296.009429 266.030446 
L 296.211786 261.79661 
L 296.414143 249.852464 
L 298.235358 84.942556 
L 298.437715 84.576999 
L 298.640073 88.70799 
L 299.044787 104.575349 
L 299.449501 132.447186 
L 299.854216 172.587525 
L 300.25893 222.273568 
L 300.663645 242.199822 
L 300.866002 243.266896 
L 301.068359 234.19123 
L 301.877788 170.504363 
L 302.687217 84.55795 
L 302.889574 71.609883 
L 303.091931 69.134198 
L 303.699003 102.69524 
L 305.31786 244.004924 
L 305.520218 250.865485 
L 305.722575 249.441129 
L 306.127289 221.628684 
L 306.532004 193.203167 
L 307.948504 119.800101 
L 308.150861 119.134324 
L 308.555576 138.087255 
L 308.96029 164.576568 
L 309.769719 231.021633 
L 310.174433 262.355551 
L 310.376791 267.559455 
L 310.579148 265.548764 
L 310.781505 256.035636 
L 312.400363 132.309965 
L 312.60272 123.60667 
L 312.805077 120.703165 
L 313.007434 120.77712 
L 313.209791 124.428269 
L 313.614506 146.563291 
L 314.423935 209.651712 
L 314.828649 243.22422 
L 315.233364 256.738737 
L 315.435721 255.8694 
L 315.638078 248.950433 
L 316.24515 208.883106 
L 316.447507 203.909012 
L 316.852221 191.960144 
L 317.256936 184.711458 
L 317.459293 184.860389 
L 317.66165 182.852726 
L 318.268722 188.515261 
L 318.471079 191.979339 
L 318.875793 206.856472 
L 319.887579 269.880128 
L 320.089937 272.83001 
L 320.292294 270.879927 
L 320.697008 257.333941 
L 321.506437 221.189299 
L 321.911151 201.394637 
L 322.315866 173.506993 
L 322.72058 157.580864 
L 322.922937 153.915368 
L 323.125295 156.030333 
L 323.327652 163.219067 
L 323.934723 203.657236 
L 324.541795 251.529939 
L 324.94651 266.264495 
L 325.148867 268.631111 
L 325.351224 266.974154 
L 325.755938 254.11929 
L 326.36301 209.907758 
L 326.767724 175.501516 
L 327.172439 138.393591 
L 327.577153 127.753724 
L 327.77951 130.505412 
L 327.981868 136.450116 
L 328.386582 158.354405 
L 329.398368 251.743915 
L 329.600725 264.571984 
L 329.803083 269.24714 
L 330.00544 270.197803 
L 330.207797 265.59201 
L 330.410154 255.355545 
L 331.017226 200.882098 
L 331.42194 170.06183 
L 331.826655 148.937517 
L 332.029012 142.713577 
L 332.231369 141.225729 
L 332.433726 144.727984 
L 333.040798 169.54514 
L 333.445512 195.838823 
L 333.647869 205.237957 
L 334.457298 275.009399 
L 334.659655 280.536455 
L 334.862013 278.022899 
L 335.266727 253.067855 
L 335.873799 212.924993 
L 336.076156 209.074301 
L 336.885585 182.671888 
L 337.087942 179.168143 
L 337.290299 180.425973 
L 337.492656 182.797266 
L 338.099728 200.106306 
L 338.504442 223.431746 
L 339.111514 271.554258 
L 339.313871 278.052021 
L 339.516228 280.134475 
L 339.718586 278.028266 
L 340.1233 255.433601 
L 340.528015 225.20769 
L 341.944515 165.572548 
L 342.551587 152.194496 
L 342.753944 154.582908 
L 343.361015 192.411749 
L 343.968087 248.732047 
L 344.170444 254.486403 
L 344.372801 255.967486 
L 344.575159 255.68762 
L 344.979873 236.794213 
L 345.789302 178.579868 
L 346.396374 125.305411 
L 346.801088 108.800012 
L 347.003445 107.492473 
L 347.40816 115.565723 
L 347.812874 140.285599 
L 349.027017 245.494681 
L 349.229374 249.17785 
L 349.431732 250.348388 
L 349.634089 244.051294 
L 350.645875 179.250092 
L 351.252947 126.183145 
L 351.657661 107.678055 
L 351.860018 105.259016 
L 352.062375 107.532613 
L 352.264733 112.666036 
L 352.46709 122.432087 
L 353.276519 195.787801 
L 353.88359 254.6365 
L 354.085947 260.083956 
L 354.288305 261.268625 
L 354.490662 256.094766 
L 355.300091 213.274844 
L 355.704805 170.493516 
L 356.109519 126.511094 
L 356.514234 105.759381 
L 356.716591 102.302167 
L 356.918948 103.780774 
L 357.121306 109.656133 
L 357.52602 138.995415 
L 358.94252 257.837749 
L 359.144878 259.991241 
L 359.347235 257.406819 
L 359.751949 237.523447 
L 360.561378 163.664155 
L 360.966092 115.642406 
L 361.370807 92.545578 
L 361.573164 90.673847 
L 361.775521 93.237912 
L 361.977879 99.138041 
L 362.382593 120.859133 
L 362.989665 170.867523 
L 363.596736 238.687315 
L 363.799093 246.38965 
L 364.001451 248.543697 
L 364.203808 242.585273 
L 365.215594 143.188002 
L 365.822665 74.586512 
L 366.22738 55.8 
L 366.429737 58.068029 
L 366.834451 73.516235 
L 367.239166 96.889943 
L 367.846238 152.019321 
L 368.453309 219.493652 
L 368.655666 228.185592 
L 368.858024 230.765305 
L 369.060381 222.471697 
L 369.86981 163.365101 
L 370.679238 81.546951 
L 371.083953 61.91848 
L 371.28631 64.302419 
L 371.488667 71.028015 
L 371.893382 97.084697 
L 373.512239 230.780021 
L 373.714597 233.207026 
L 374.726383 186.51562 
L 375.738169 99.65578 
L 375.940526 93.907708 
L 376.142883 94.056728 
L 376.34524 97.803767 
L 376.547597 107.889112 
L 378.166455 238.341314 
L 378.368812 243.821002 
L 378.57117 245.919437 
L 378.773527 241.616062 
L 379.380598 190.081024 
L 380.190027 121.40835 
L 380.594742 100.482999 
L 380.797099 94.713294 
L 380.999456 94.633329 
L 381.40417 101.152958 
L 381.606528 108.068898 
L 382.213599 146.575292 
L 383.225385 232.660728 
L 383.427743 232.034115 
L 383.6301 224.866685 
L 384.237171 193.232413 
L 384.237171 193.232413 
" clip-path="url(#pa087f5cf32)" style="fill: none; stroke: #ff7f0e; stroke-width: 1.5; stroke-linecap: square"/>
   </g>
   <g id="line2d_15">
    <path d="M 384.439529 178.634926 
L 385.0466 148.725049 
L 385.451315 137.56081 
L 385.653672 138.121939 
L 385.856029 139.944295 
L 386.260743 154.944118 
L 388.081958 248.815908 
L 388.284316 247.45547 
L 388.68903 227.364572 
L 389.093744 200.79451 
L 389.498459 186.493358 
L 390.10553 171.195432 
L 390.307888 170.110773 
L 390.510245 170.14646 
L 390.712602 171.897169 
L 391.926745 212.730943 
L 392.736174 249.75052 
L 392.938531 251.695447 
L 393.140888 248.415685 
L 393.545603 231.599913 
L 393.950317 211.076357 
L 394.355032 202.513474 
L 394.759746 191.608635 
L 394.962103 190.315134 
L 395.164461 190.694572 
L 395.366818 193.81366 
L 395.973889 210.034805 
L 396.378604 214.076188 
L 396.580961 219.193147 
L 397.188033 245.22085 
L 397.592747 252.627183 
L 397.795104 252.280666 
L 397.997461 248.744722 
L 398.402176 231.490419 
L 398.80689 214.211424 
L 399.413962 201.435059 
L 399.616319 198.631594 
L 399.818676 199.265385 
L 400.223391 206.389105 
L 400.628105 214.593468 
L 400.830462 216.452511 
L 401.03282 217.204741 
L 401.235177 220.970088 
L 401.842248 240.76431 
L 402.246963 247.318044 
L 402.44932 248.813855 
L 402.651677 248.505661 
L 402.854034 244.732208 
L 403.258749 227.114421 
L 403.663463 213.004664 
L 403.86582 208.391412 
L 404.068178 206.327714 
L 404.270535 205.771531 
L 404.472892 205.768361 
L 405.079964 215.699162 
L 405.282321 219.308834 
L 405.484678 220.332153 
L 405.687035 219.578182 
L 405.889393 221.457207 
L 406.698821 240.135688 
L 407.103536 244.647537 
L 407.305893 245.779684 
L 407.50825 244.290975 
L 407.912965 230.898853 
L 408.317679 214.35599 
L 408.722393 209.53624 
L 408.924751 209.560817 
L 409.127108 209.800158 
L 409.329465 210.900817 
L 410.138894 221.239055 
L 410.341251 221.025546 
L 410.543608 221.096417 
L 411.960109 241.10362 
L 412.162466 241.250158 
L 412.364823 238.031595 
L 413.174252 212.728671 
L 413.578966 211.4713 
L 413.983681 212.816278 
L 414.186038 214.030465 
L 414.79311 221.036706 
L 414.995467 221.620144 
L 415.197824 221.217931 
L 415.400181 221.862095 
L 416.411967 234.711127 
L 416.614325 236.245134 
L 416.816682 236.668791 
L 417.019039 235.20495 
L 417.423753 225.382339 
L 417.828468 213.807968 
L 418.030825 213.132257 
L 418.233182 212.987761 
L 418.435539 213.085284 
L 418.840254 214.269823 
L 419.649683 221.491999 
L 419.85204 221.355708 
L 420.054397 220.973111 
L 420.256754 222.027801 
L 421.066183 230.463042 
L 421.26854 231.654098 
L 421.470898 232.08567 
L 421.673255 231.529551 
L 421.875612 229.023475 
L 422.685041 213.636761 
L 422.887398 214.207373 
L 423.089755 214.211289 
L 423.292112 214.464725 
L 423.49447 215.122606 
L 423.696827 216.38586 
L 424.101541 220.521078 
L 424.303898 221.396934 
L 424.506256 221.40663 
L 424.708613 220.8253 
L 424.91097 220.662371 
L 426.125113 228.30148 
L 426.327471 228.201507 
L 426.529828 227.008272 
L 426.934542 220.972162 
L 427.339257 214.625523 
L 427.743971 215.254876 
L 427.946328 215.32631 
L 428.351043 216.99052 
L 428.958114 220.993547 
L 429.160471 221.13771 
L 429.565186 220.066772 
L 429.767543 220.432423 
L 430.576972 225.136828 
L 430.779329 225.542599 
L 430.981686 225.479121 
L 431.184044 225.009253 
L 431.386401 223.601415 
L 431.993472 215.996725 
L 432.19583 215.502535 
L 432.398187 215.882858 
L 432.600544 215.935151 
L 432.802901 216.296698 
L 433.814687 220.589658 
L 434.017044 220.421539 
L 434.421759 219.571356 
L 434.624116 220.135931 
L 435.231188 222.985619 
L 435.433545 223.41619 
L 435.635902 223.444783 
L 435.838259 223.25239 
L 436.040617 222.536456 
L 436.445331 219.087324 
L 436.850045 216.307006 
L 437.25476 216.179566 
L 437.457117 216.395881 
L 438.064189 218.417658 
L 438.468903 219.912479 
L 438.67126 219.934686 
L 439.075975 219.126612 
L 439.278332 219.196896 
L 440.290118 221.917315 
L 440.492475 221.834058 
L 440.694832 221.515899 
L 441.099547 219.410564 
L 441.504261 216.995836 
L 441.706618 216.545458 
L 441.908976 216.398294 
L 442.111333 216.513766 
L 442.516047 217.404944 
L 443.325476 219.451065 
L 443.527833 219.295234 
L 443.932548 218.765564 
L 444.134905 218.992145 
L 444.741976 220.591606 
L 444.944334 220.77512 
L 445.349048 220.637491 
L 445.551405 220.193769 
L 446.563191 216.577297 
L 446.765549 216.610807 
L 447.170263 217.269923 
L 447.979692 218.989504 
L 448.182049 219.02031 
L 448.789121 218.580015 
L 449.193835 219.29828 
L 449.598549 219.90612 
L 450.003264 219.917694 
L 450.205621 219.707058 
L 450.610335 218.6403 
L 451.217407 216.8379 
L 451.419764 216.741831 
L 451.622121 216.879791 
L 452.836265 218.756647 
L 453.038622 218.711957 
L 453.443336 218.406667 
L 453.645694 218.491003 
L 454.455122 219.379097 
L 454.859837 219.280569 
L 455.264551 218.675072 
L 455.871623 217.151612 
L 456.07398 216.940805 
L 456.276337 216.953917 
L 456.681052 217.450949 
L 457.490481 218.500155 
L 457.692838 218.556003 
L 458.299909 218.305462 
L 458.704624 218.595429 
L 459.109338 218.930403 
L 459.514053 218.934296 
L 459.918767 218.596115 
L 460.930553 217.097054 
L 461.335267 217.39163 
L 462.347053 218.394921 
L 462.751768 218.334613 
L 463.156482 218.234512 
L 464.168268 218.658473 
L 464.572983 218.480578 
L 464.977697 218.015233 
L 465.584769 217.282433 
L 465.787126 217.280066 
L 466.394198 217.749539 
L 467.001269 218.243861 
L 467.405984 218.29429 
L 468.013055 218.174888 
L 469.024841 218.414265 
L 469.429556 218.247681 
L 470.441342 217.40364 
L 470.846056 217.551491 
L 471.857842 218.204186 
L 472.262557 218.206806 
L 472.869628 218.120351 
L 473.679057 218.266971 
L 474.286129 218.091247 
L 475.297915 217.524004 
L 475.904986 217.789602 
L 476.714415 218.164022 
L 477.321487 218.094275 
L 477.928558 218.106702 
L 478.53563 218.139815 
L 479.142702 217.992347 
L 479.952131 217.621774 
L 480.356845 217.685992 
L 481.570988 218.125731 
L 483.796917 217.995013 
L 485.011061 217.719194 
L 486.629918 218.076744 
L 487.641704 218.009589 
L 488.65349 217.952848 
L 489.665277 217.763398 
L 490.677063 217.992027 
L 491.284134 218.058131 
L 494.724207 217.840697 
L 496.140707 218.029687 
L 499.378422 217.855512 
L 501.401995 217.972489 
L 504.234995 217.884621 
L 506.05621 217.972644 
L 508.686854 217.891342 
L 517.185857 217.932204 
L 518.4 217.91691 
L 518.4 217.91691 
" clip-path="url(#pa087f5cf32)" style="fill: none; stroke: #2ca02c; stroke-width: 1.5; stroke-linecap: square"/>
   </g>
   <g id="patch_3">
    <path d="M 72 320.4 
L 72 43.2 
" style="fill: none; stroke: #000000; stroke-width: 0.8; stroke-linejoin: miter; stroke-linecap: square"/>
   </g>
   <g id="patch_4">
    <path d="M 518.4 320.4 
L 518.4 43.2 
" style="fill: none; stroke: #000000; stroke-width: 0.8; stroke-linejoin: miter; stroke-linecap: square"/>
   </g>
   <g id="patch_5">
    <path d="M 72 320.4 
L 518.4 320.4 
" style="fill: none; stroke: #000000; stroke-width: 0.8; stroke-linejoin: miter; stroke-linecap: square"/>
   </g>
   <g id="patch_6">
    <path d="M 72 43.2 
L 518.4 43.2 
" style="fill: none; stroke: #000000; stroke-width: 0.8; stroke-linejoin: miter; stroke-linecap: square"/>
   </g>
   <g id="text_13">
    <!-- Classic Transformer - model_20231123164318 -->
    <g transform="translate(155.436563 37.2) scale(0.12 -0.12)">
     <defs>
      <path id="DejaVuSans-43" d="M 4122 4306 
L 4122 3641 
Q 3803 3938 3442 4084 
Q 3081 4231 2675 4231 
Q 1875 4231 1450 3742 
Q 1025 3253 1025 2328 
Q 1025 1406 1450 917 
Q 1875 428 2675 428 
Q 3081 428 3442 575 
Q 3803 722 4122 1019 
L 4122 359 
Q 3791 134 3420 21 
Q 3050 -91 2638 -91 
Q 1578 -91 968 557 
Q 359 1206 359 2328 
Q 359 3453 968 4101 
Q 1578 4750 2638 4750 
Q 3056 4750 3426 4639 
Q 3797 4528 4122 4306 
z
" transform="scale(0.015625)"/>
      <path id="DejaVuSans-6c" d="M 603 4863 
L 1178 4863 
L 1178 0 
L 603 0 
L 603 4863 
z
" transform="scale(0.015625)"/>
      <path id="DejaVuSans-61" d="M 2194 1759 
Q 1497 1759 1228 1600 
Q 959 1441 959 1056 
Q 959 750 1161 570 
Q 1363 391 1709 391 
Q 2188 391 2477 730 
Q 2766 1069 2766 1631 
L 2766 1759 
L 2194 1759 
z
M 3341 1997 
L 3341 0 
L 2766 0 
L 2766 531 
Q 2569 213 2275 61 
Q 1981 -91 1556 -91 
Q 1019 -91 701 211 
Q 384 513 384 1019 
Q 384 1609 779 1909 
Q 1175 2209 1959 2209 
L 2766 2209 
L 2766 2266 
Q 2766 2663 2505 2880 
Q 2244 3097 1772 3097 
Q 1472 3097 1187 3025 
Q 903 2953 641 2809 
L 641 3341 
Q 956 3463 1253 3523 
Q 1550 3584 1831 3584 
Q 2591 3584 2966 3190 
Q 3341 2797 3341 1997 
z
" transform="scale(0.015625)"/>
      <path id="DejaVuSans-73" d="M 2834 3397 
L 2834 2853 
Q 2591 2978 2328 3040 
Q 2066 3103 1784 3103 
Q 1356 3103 1142 2972 
Q 928 2841 928 2578 
Q 928 2378 1081 2264 
Q 1234 2150 1697 2047 
L 1894 2003 
Q 2506 1872 2764 1633 
Q 3022 1394 3022 966 
Q 3022 478 2636 193 
Q 2250 -91 1575 -91 
Q 1294 -91 989 -36 
Q 684 19 347 128 
L 347 722 
Q 666 556 975 473 
Q 1284 391 1588 391 
Q 1994 391 2212 530 
Q 2431 669 2431 922 
Q 2431 1156 2273 1281 
Q 2116 1406 1581 1522 
L 1381 1569 
Q 847 1681 609 1914 
Q 372 2147 372 2553 
Q 372 3047 722 3315 
Q 1072 3584 1716 3584 
Q 2034 3584 2315 3537 
Q 2597 3491 2834 3397 
z
" transform="scale(0.015625)"/>
      <path id="DejaVuSans-69" d="M 603 3500 
L 1178 3500 
L 1178 0 
L 603 0 
L 603 3500 
z
M 603 4863 
L 1178 4863 
L 1178 4134 
L 603 4134 
L 603 4863 
z
" transform="scale(0.015625)"/>
      <path id="DejaVuSans-63" d="M 3122 3366 
L 3122 2828 
Q 2878 2963 2633 3030 
Q 2388 3097 2138 3097 
Q 1578 3097 1268 2742 
Q 959 2388 959 1747 
Q 959 1106 1268 751 
Q 1578 397 2138 397 
Q 2388 397 2633 464 
Q 2878 531 3122 666 
L 3122 134 
Q 2881 22 2623 -34 
Q 2366 -91 2075 -91 
Q 1284 -91 818 406 
Q 353 903 353 1747 
Q 353 2603 823 3093 
Q 1294 3584 2113 3584 
Q 2378 3584 2631 3529 
Q 2884 3475 3122 3366 
z
" transform="scale(0.015625)"/>
      <path id="DejaVuSans-20" transform="scale(0.015625)"/>
      <path id="DejaVuSans-54" d="M -19 4666 
L 3928 4666 
L 3928 4134 
L 2272 4134 
L 2272 0 
L 1638 0 
L 1638 4134 
L -19 4134 
L -19 4666 
z
" transform="scale(0.015625)"/>
      <path id="DejaVuSans-72" d="M 2631 2963 
Q 2534 3019 2420 3045 
Q 2306 3072 2169 3072 
Q 1681 3072 1420 2755 
Q 1159 2438 1159 1844 
L 1159 0 
L 581 0 
L 581 3500 
L 1159 3500 
L 1159 2956 
Q 1341 3275 1631 3429 
Q 1922 3584 2338 3584 
Q 2397 3584 2469 3576 
Q 2541 3569 2628 3553 
L 2631 2963 
z
" transform="scale(0.015625)"/>
      <path id="DejaVuSans-6e" d="M 3513 2113 
L 3513 0 
L 2938 0 
L 2938 2094 
Q 2938 2591 2744 2837 
Q 2550 3084 2163 3084 
Q 1697 3084 1428 2787 
Q 1159 2491 1159 1978 
L 1159 0 
L 581 0 
L 581 3500 
L 1159 3500 
L 1159 2956 
Q 1366 3272 1645 3428 
Q 1925 3584 2291 3584 
Q 2894 3584 3203 3211 
Q 3513 2838 3513 2113 
z
" transform="scale(0.015625)"/>
      <path id="DejaVuSans-66" d="M 2375 4863 
L 2375 4384 
L 1825 4384 
Q 1516 4384 1395 4259 
Q 1275 4134 1275 3809 
L 1275 3500 
L 2222 3500 
L 2222 3053 
L 1275 3053 
L 1275 0 
L 697 0 
L 697 3053 
L 147 3053 
L 147 3500 
L 697 3500 
L 697 3744 
Q 697 4328 969 4595 
Q 1241 4863 1831 4863 
L 2375 4863 
z
" transform="scale(0.015625)"/>
      <path id="DejaVuSans-6f" d="M 1959 3097 
Q 1497 3097 1228 2736 
Q 959 2375 959 1747 
Q 959 1119 1226 758 
Q 1494 397 1959 397 
Q 2419 397 2687 759 
Q 2956 1122 2956 1747 
Q 2956 2369 2687 2733 
Q 2419 3097 1959 3097 
z
M 1959 3584 
Q 2709 3584 3137 3096 
Q 3566 2609 3566 1747 
Q 3566 888 3137 398 
Q 2709 -91 1959 -91 
Q 1206 -91 779 398 
Q 353 888 353 1747 
Q 353 2609 779 3096 
Q 1206 3584 1959 3584 
z
" transform="scale(0.015625)"/>
      <path id="DejaVuSans-6d" d="M 3328 2828 
Q 3544 3216 3844 3400 
Q 4144 3584 4550 3584 
Q 5097 3584 5394 3201 
Q 5691 2819 5691 2113 
L 5691 0 
L 5113 0 
L 5113 2094 
Q 5113 2597 4934 2840 
Q 4756 3084 4391 3084 
Q 3944 3084 3684 2787 
Q 3425 2491 3425 1978 
L 3425 0 
L 2847 0 
L 2847 2094 
Q 2847 2600 2669 2842 
Q 2491 3084 2119 3084 
Q 1678 3084 1418 2786 
Q 1159 2488 1159 1978 
L 1159 0 
L 581 0 
L 581 3500 
L 1159 3500 
L 1159 2956 
Q 1356 3278 1631 3431 
Q 1906 3584 2284 3584 
Q 2666 3584 2933 3390 
Q 3200 3197 3328 2828 
z
" transform="scale(0.015625)"/>
      <path id="DejaVuSans-65" d="M 3597 1894 
L 3597 1613 
L 953 1613 
Q 991 1019 1311 708 
Q 1631 397 2203 397 
Q 2534 397 2845 478 
Q 3156 559 3463 722 
L 3463 178 
Q 3153 47 2828 -22 
Q 2503 -91 2169 -91 
Q 1331 -91 842 396 
Q 353 884 353 1716 
Q 353 2575 817 3079 
Q 1281 3584 2069 3584 
Q 2775 3584 3186 3129 
Q 3597 2675 3597 1894 
z
M 3022 2063 
Q 3016 2534 2758 2815 
Q 2500 3097 2075 3097 
Q 1594 3097 1305 2825 
Q 1016 2553 972 2059 
L 3022 2063 
z
" transform="scale(0.015625)"/>
      <path id="DejaVuSans-64" d="M 2906 2969 
L 2906 4863 
L 3481 4863 
L 3481 0 
L 2906 0 
L 2906 525 
Q 2725 213 2448 61 
Q 2172 -91 1784 -91 
Q 1150 -91 751 415 
Q 353 922 353 1747 
Q 353 2572 751 3078 
Q 1150 3584 1784 3584 
Q 2172 3584 2448 3432 
Q 2725 3281 2906 2969 
z
M 947 1747 
Q 947 1113 1208 752 
Q 1469 391 1925 391 
Q 2381 391 2643 752 
Q 2906 1113 2906 1747 
Q 2906 2381 2643 2742 
Q 2381 3103 1925 3103 
Q 1469 3103 1208 2742 
Q 947 2381 947 1747 
z
" transform="scale(0.015625)"/>
      <path id="DejaVuSans-5f" d="M 3263 -1063 
L 3263 -1509 
L -63 -1509 
L -63 -1063 
L 3263 -1063 
z
" transform="scale(0.015625)"/>
      <path id="DejaVuSans-34" d="M 2419 4116 
L 825 1625 
L 2419 1625 
L 2419 4116 
z
M 2253 4666 
L 3047 4666 
L 3047 1625 
L 3713 1625 
L 3713 1100 
L 3047 1100 
L 3047 0 
L 2419 0 
L 2419 1100 
L 313 1100 
L 313 1709 
L 2253 4666 
z
" transform="scale(0.015625)"/>
     </defs>
     <use xlink:href="#DejaVuSans-43"/>
     <use xlink:href="#DejaVuSans-6c" x="69.824219"/>
     <use xlink:href="#DejaVuSans-61" x="97.607422"/>
     <use xlink:href="#DejaVuSans-73" x="158.886719"/>
     <use xlink:href="#DejaVuSans-73" x="210.986328"/>
     <use xlink:href="#DejaVuSans-69" x="263.085938"/>
     <use xlink:href="#DejaVuSans-63" x="290.869141"/>
     <use xlink:href="#DejaVuSans-20" x="345.849609"/>
     <use xlink:href="#DejaVuSans-54" x="377.636719"/>
     <use xlink:href="#DejaVuSans-72" x="423.970703"/>
     <use xlink:href="#DejaVuSans-61" x="465.083984"/>
     <use xlink:href="#DejaVuSans-6e" x="526.363281"/>
     <use xlink:href="#DejaVuSans-73" x="589.742188"/>
     <use xlink:href="#DejaVuSans-66" x="641.841797"/>
     <use xlink:href="#DejaVuSans-6f" x="677.046875"/>
     <use xlink:href="#DejaVuSans-72" x="738.228516"/>
     <use xlink:href="#DejaVuSans-6d" x="777.591797"/>
     <use xlink:href="#DejaVuSans-65" x="875.003906"/>
     <use xlink:href="#DejaVuSans-72" x="936.527344"/>
     <use xlink:href="#DejaVuSans-20" x="977.640625"/>
     <use xlink:href="#DejaVuSans-2d" x="1009.427734"/>
     <use xlink:href="#DejaVuSans-20" x="1045.511719"/>
     <use xlink:href="#DejaVuSans-6d" x="1077.298828"/>
     <use xlink:href="#DejaVuSans-6f" x="1174.710938"/>
     <use xlink:href="#DejaVuSans-64" x="1235.892578"/>
     <use xlink:href="#DejaVuSans-65" x="1299.369141"/>
     <use xlink:href="#DejaVuSans-6c" x="1360.892578"/>
     <use xlink:href="#DejaVuSans-5f" x="1388.675781"/>
     <use xlink:href="#DejaVuSans-32" x="1438.675781"/>
     <use xlink:href="#DejaVuSans-30" x="1502.298828"/>
     <use xlink:href="#DejaVuSans-32" x="1565.921875"/>
     <use xlink:href="#DejaVuSans-33" x="1629.544922"/>
     <use xlink:href="#DejaVuSans-31" x="1693.167969"/>
     <use xlink:href="#DejaVuSans-31" x="1756.791016"/>
     <use xlink:href="#DejaVuSans-32" x="1820.414062"/>
     <use xlink:href="#DejaVuSans-33" x="1884.037109"/>
     <use xlink:href="#DejaVuSans-31" x="1947.660156"/>
     <use xlink:href="#DejaVuSans-36" x="2011.283203"/>
     <use xlink:href="#DejaVuSans-34" x="2074.90625"/>
     <use xlink:href="#DejaVuSans-33" x="2138.529297"/>
     <use xlink:href="#DejaVuSans-31" x="2202.152344"/>
     <use xlink:href="#DejaVuSans-38" x="2265.775391"/>
    </g>
   </g>
   <g id="legend_1">
    <g id="patch_7">
     <path d="M 79 95.234375 
L 161.517188 95.234375 
Q 163.517188 95.234375 163.517188 93.234375 
L 163.517188 50.2 
Q 163.517188 48.2 161.517188 48.2 
L 79 48.2 
Q 77 48.2 77 50.2 
L 77 93.234375 
Q 77 95.234375 79 95.234375 
z
" style="fill: #ffffff; opacity: 0.8; stroke: #cccccc; stroke-linejoin: miter"/>
    </g>
    <g id="line2d_16">
     <path d="M 81 56.298437 
L 91 56.298437 
L 101 56.298437 
" style="fill: none; stroke: #1f77b4; stroke-width: 1.5; stroke-linecap: square"/>
    </g>
    <g id="text_14">
     <!-- Measured -->
     <g transform="translate(109 59.798437) scale(0.1 -0.1)">
      <defs>
       <path id="DejaVuSans-4d" d="M 628 4666 
L 1569 4666 
L 2759 1491 
L 3956 4666 
L 4897 4666 
L 4897 0 
L 4281 0 
L 4281 4097 
L 3078 897 
L 2444 897 
L 1241 4097 
L 1241 0 
L 628 0 
L 628 4666 
z
" transform="scale(0.015625)"/>
       <path id="DejaVuSans-75" d="M 544 1381 
L 544 3500 
L 1119 3500 
L 1119 1403 
Q 1119 906 1312 657 
Q 1506 409 1894 409 
Q 2359 409 2629 706 
Q 2900 1003 2900 1516 
L 2900 3500 
L 3475 3500 
L 3475 0 
L 2900 0 
L 2900 538 
Q 2691 219 2414 64 
Q 2138 -91 1772 -91 
Q 1169 -91 856 284 
Q 544 659 544 1381 
z
M 1991 3584 
L 1991 3584 
z
" transform="scale(0.015625)"/>
      </defs>
      <use xlink:href="#DejaVuSans-4d"/>
      <use xlink:href="#DejaVuSans-65" x="86.279297"/>
      <use xlink:href="#DejaVuSans-61" x="147.802734"/>
      <use xlink:href="#DejaVuSans-73" x="209.082031"/>
      <use xlink:href="#DejaVuSans-75" x="261.181641"/>
      <use xlink:href="#DejaVuSans-72" x="324.560547"/>
      <use xlink:href="#DejaVuSans-65" x="363.423828"/>
      <use xlink:href="#DejaVuSans-64" x="424.947266"/>
     </g>
    </g>
    <g id="line2d_17">
     <path d="M 81 70.976562 
L 91 70.976562 
L 101 70.976562 
" style="fill: none; stroke: #ff7f0e; stroke-width: 1.5; stroke-linecap: square"/>
    </g>
    <g id="text_15">
     <!-- Fitted -->
     <g transform="translate(109 74.476562) scale(0.1 -0.1)">
      <defs>
       <path id="DejaVuSans-46" d="M 628 4666 
L 3309 4666 
L 3309 4134 
L 1259 4134 
L 1259 2759 
L 3109 2759 
L 3109 2228 
L 1259 2228 
L 1259 0 
L 628 0 
L 628 4666 
z
" transform="scale(0.015625)"/>
       <path id="DejaVuSans-74" d="M 1172 4494 
L 1172 3500 
L 2356 3500 
L 2356 3053 
L 1172 3053 
L 1172 1153 
Q 1172 725 1289 603 
Q 1406 481 1766 481 
L 2356 481 
L 2356 0 
L 1766 0 
Q 1100 0 847 248 
Q 594 497 594 1153 
L 594 3053 
L 172 3053 
L 172 3500 
L 594 3500 
L 594 4494 
L 1172 4494 
z
" transform="scale(0.015625)"/>
      </defs>
      <use xlink:href="#DejaVuSans-46"/>
      <use xlink:href="#DejaVuSans-69" x="50.269531"/>
      <use xlink:href="#DejaVuSans-74" x="78.052734"/>
      <use xlink:href="#DejaVuSans-74" x="117.261719"/>
      <use xlink:href="#DejaVuSans-65" x="156.470703"/>
      <use xlink:href="#DejaVuSans-64" x="217.994141"/>
     </g>
    </g>
    <g id="line2d_18">
     <path d="M 81 85.654687 
L 91 85.654687 
L 101 85.654687 
" style="fill: none; stroke: #2ca02c; stroke-width: 1.5; stroke-linecap: square"/>
    </g>
    <g id="text_16">
     <!-- Estimated -->
     <g transform="translate(109 89.154687) scale(0.1 -0.1)">
      <defs>
       <path id="DejaVuSans-45" d="M 628 4666 
L 3578 4666 
L 3578 4134 
L 1259 4134 
L 1259 2753 
L 3481 2753 
L 3481 2222 
L 1259 2222 
L 1259 531 
L 3634 531 
L 3634 0 
L 628 0 
L 628 4666 
z
" transform="scale(0.015625)"/>
      </defs>
      <use xlink:href="#DejaVuSans-45"/>
      <use xlink:href="#DejaVuSans-73" x="63.183594"/>
      <use xlink:href="#DejaVuSans-74" x="115.283203"/>
      <use xlink:href="#DejaVuSans-69" x="154.492188"/>
      <use xlink:href="#DejaVuSans-6d" x="182.275391"/>
      <use xlink:href="#DejaVuSans-61" x="279.6875"/>
      <use xlink:href="#DejaVuSans-74" x="340.966797"/>
      <use xlink:href="#DejaVuSans-65" x="380.175781"/>
      <use xlink:href="#DejaVuSans-64" x="441.699219"/>
     </g>
    </g>
   </g>
  </g>
 </g>
 <defs>
  <clipPath id="pa087f5cf32">
   <rect x="72" y="43.2" width="446.4" height="277.2"/>
  </clipPath>
 </defs>
</svg>
