<?xml version="1.0" encoding="utf-8" standalone="no"?>
<!DOCTYPE svg PUBLIC "-//W3C//DTD SVG 1.1//EN"
  "http://www.w3.org/Graphics/SVG/1.1/DTD/svg11.dtd">
<svg xmlns:xlink="http://www.w3.org/1999/xlink" width="576pt" height="360pt" viewBox="0 0 576 360" xmlns="http://www.w3.org/2000/svg" version="1.1">
 <metadata>
  <rdf:RDF xmlns:dc="http://purl.org/dc/elements/1.1/" xmlns:cc="http://creativecommons.org/ns#" xmlns:rdf="http://www.w3.org/1999/02/22-rdf-syntax-ns#">
   <cc:Work>
    <dc:type rdf:resource="http://purl.org/dc/dcmitype/StillImage"/>
    <dc:date>2023-11-26T19:35:09.171614</dc:date>
    <dc:format>image/svg+xml</dc:format>
    <dc:creator>
     <cc:Agent>
      <dc:title>Matplotlib v3.8.1, https://matplotlib.org/</dc:title>
     </cc:Agent>
    </dc:creator>
   </cc:Work>
  </rdf:RDF>
 </metadata>
 <defs>
  <style type="text/css">*{stroke-linejoin: round; stroke-linecap: butt}</style>
 </defs>
 <g id="figure_1">
  <g id="patch_1">
   <path d="M 0 360 
L 576 360 
L 576 0 
L 0 0 
z
" style="fill: #ffffff"/>
  </g>
  <g id="axes_1">
   <g id="patch_2">
    <path d="M 72 320.4 
L 518.4 320.4 
L 518.4 43.2 
L 72 43.2 
z
" style="fill: #ffffff"/>
   </g>
   <g id="matplotlib.axis_1">
    <g id="xtick_1">
     <g id="line2d_1">
      <defs>
       <path id="ma87afff832" d="M 0 0 
L 0 3.5 
" style="stroke: #000000; stroke-width: 0.8"/>
      </defs>
      <g>
       <use xlink:href="#ma87afff832" x="129.874161" y="320.4" style="stroke: #000000; stroke-width: 0.8"/>
      </g>
     </g>
     <g id="text_1">
      <!-- 2020-05-15 -->
      <g transform="translate(100.816349 334.998438) scale(0.1 -0.1)">
       <defs>
        <path id="DejaVuSans-32" d="M 1228 531 
L 3431 531 
L 3431 0 
L 469 0 
L 469 531 
Q 828 903 1448 1529 
Q 2069 2156 2228 2338 
Q 2531 2678 2651 2914 
Q 2772 3150 2772 3378 
Q 2772 3750 2511 3984 
Q 2250 4219 1831 4219 
Q 1534 4219 1204 4116 
Q 875 4013 500 3803 
L 500 4441 
Q 881 4594 1212 4672 
Q 1544 4750 1819 4750 
Q 2544 4750 2975 4387 
Q 3406 4025 3406 3419 
Q 3406 3131 3298 2873 
Q 3191 2616 2906 2266 
Q 2828 2175 2409 1742 
Q 1991 1309 1228 531 
z
" transform="scale(0.015625)"/>
        <path id="DejaVuSans-30" d="M 2034 4250 
Q 1547 4250 1301 3770 
Q 1056 3291 1056 2328 
Q 1056 1369 1301 889 
Q 1547 409 2034 409 
Q 2525 409 2770 889 
Q 3016 1369 3016 2328 
Q 3016 3291 2770 3770 
Q 2525 4250 2034 4250 
z
M 2034 4750 
Q 2819 4750 3233 4129 
Q 3647 3509 3647 2328 
Q 3647 1150 3233 529 
Q 2819 -91 2034 -91 
Q 1250 -91 836 529 
Q 422 1150 422 2328 
Q 422 3509 836 4129 
Q 1250 4750 2034 4750 
z
" transform="scale(0.015625)"/>
        <path id="DejaVuSans-2d" d="M 313 2009 
L 1997 2009 
L 1997 1497 
L 313 1497 
L 313 2009 
z
" transform="scale(0.015625)"/>
        <path id="DejaVuSans-35" d="M 691 4666 
L 3169 4666 
L 3169 4134 
L 1269 4134 
L 1269 2991 
Q 1406 3038 1543 3061 
Q 1681 3084 1819 3084 
Q 2600 3084 3056 2656 
Q 3513 2228 3513 1497 
Q 3513 744 3044 326 
Q 2575 -91 1722 -91 
Q 1428 -91 1123 -41 
Q 819 9 494 109 
L 494 744 
Q 775 591 1075 516 
Q 1375 441 1709 441 
Q 2250 441 2565 725 
Q 2881 1009 2881 1497 
Q 2881 1984 2565 2268 
Q 2250 2553 1709 2553 
Q 1456 2553 1204 2497 
Q 953 2441 691 2322 
L 691 4666 
z
" transform="scale(0.015625)"/>
        <path id="DejaVuSans-31" d="M 794 531 
L 1825 531 
L 1825 4091 
L 703 3866 
L 703 4441 
L 1819 4666 
L 2450 4666 
L 2450 531 
L 3481 531 
L 3481 0 
L 794 0 
L 794 531 
z
" transform="scale(0.015625)"/>
       </defs>
       <use xlink:href="#DejaVuSans-32"/>
       <use xlink:href="#DejaVuSans-30" x="63.623047"/>
       <use xlink:href="#DejaVuSans-32" x="127.246094"/>
       <use xlink:href="#DejaVuSans-30" x="190.869141"/>
       <use xlink:href="#DejaVuSans-2d" x="254.492188"/>
       <use xlink:href="#DejaVuSans-30" x="290.576172"/>
       <use xlink:href="#DejaVuSans-35" x="354.199219"/>
       <use xlink:href="#DejaVuSans-2d" x="417.822266"/>
       <use xlink:href="#DejaVuSans-31" x="453.90625"/>
       <use xlink:href="#DejaVuSans-35" x="517.529297"/>
      </g>
     </g>
    </g>
    <g id="xtick_2">
     <g id="line2d_2">
      <g>
       <use xlink:href="#ma87afff832" x="212.435902" y="320.4" style="stroke: #000000; stroke-width: 0.8"/>
      </g>
     </g>
     <g id="text_2">
      <!-- 2020-06-01 -->
      <g transform="translate(183.37809 334.998438) scale(0.1 -0.1)">
       <defs>
        <path id="DejaVuSans-36" d="M 2113 2584 
Q 1688 2584 1439 2293 
Q 1191 2003 1191 1497 
Q 1191 994 1439 701 
Q 1688 409 2113 409 
Q 2538 409 2786 701 
Q 3034 994 3034 1497 
Q 3034 2003 2786 2293 
Q 2538 2584 2113 2584 
z
M 3366 4563 
L 3366 3988 
Q 3128 4100 2886 4159 
Q 2644 4219 2406 4219 
Q 1781 4219 1451 3797 
Q 1122 3375 1075 2522 
Q 1259 2794 1537 2939 
Q 1816 3084 2150 3084 
Q 2853 3084 3261 2657 
Q 3669 2231 3669 1497 
Q 3669 778 3244 343 
Q 2819 -91 2113 -91 
Q 1303 -91 875 529 
Q 447 1150 447 2328 
Q 447 3434 972 4092 
Q 1497 4750 2381 4750 
Q 2619 4750 2861 4703 
Q 3103 4656 3366 4563 
z
" transform="scale(0.015625)"/>
       </defs>
       <use xlink:href="#DejaVuSans-32"/>
       <use xlink:href="#DejaVuSans-30" x="63.623047"/>
       <use xlink:href="#DejaVuSans-32" x="127.246094"/>
       <use xlink:href="#DejaVuSans-30" x="190.869141"/>
       <use xlink:href="#DejaVuSans-2d" x="254.492188"/>
       <use xlink:href="#DejaVuSans-30" x="290.576172"/>
       <use xlink:href="#DejaVuSans-36" x="354.199219"/>
       <use xlink:href="#DejaVuSans-2d" x="417.822266"/>
       <use xlink:href="#DejaVuSans-30" x="453.90625"/>
       <use xlink:href="#DejaVuSans-31" x="517.529297"/>
      </g>
     </g>
    </g>
    <g id="xtick_3">
     <g id="line2d_3">
      <g>
       <use xlink:href="#ma87afff832" x="280.427924" y="320.4" style="stroke: #000000; stroke-width: 0.8"/>
      </g>
     </g>
     <g id="text_3">
      <!-- 2020-06-15 -->
      <g transform="translate(251.370111 334.998438) scale(0.1 -0.1)">
       <use xlink:href="#DejaVuSans-32"/>
       <use xlink:href="#DejaVuSans-30" x="63.623047"/>
       <use xlink:href="#DejaVuSans-32" x="127.246094"/>
       <use xlink:href="#DejaVuSans-30" x="190.869141"/>
       <use xlink:href="#DejaVuSans-2d" x="254.492188"/>
       <use xlink:href="#DejaVuSans-30" x="290.576172"/>
       <use xlink:href="#DejaVuSans-36" x="354.199219"/>
       <use xlink:href="#DejaVuSans-2d" x="417.822266"/>
       <use xlink:href="#DejaVuSans-31" x="453.90625"/>
       <use xlink:href="#DejaVuSans-35" x="517.529297"/>
      </g>
     </g>
    </g>
    <g id="xtick_4">
     <g id="line2d_4">
      <g>
       <use xlink:href="#ma87afff832" x="358.133092" y="320.4" style="stroke: #000000; stroke-width: 0.8"/>
      </g>
     </g>
     <g id="text_4">
      <!-- 2020-07-01 -->
      <g transform="translate(329.075279 334.998438) scale(0.1 -0.1)">
       <defs>
        <path id="DejaVuSans-37" d="M 525 4666 
L 3525 4666 
L 3525 4397 
L 1831 0 
L 1172 0 
L 2766 4134 
L 525 4134 
L 525 4666 
z
" transform="scale(0.015625)"/>
       </defs>
       <use xlink:href="#DejaVuSans-32"/>
       <use xlink:href="#DejaVuSans-30" x="63.623047"/>
       <use xlink:href="#DejaVuSans-32" x="127.246094"/>
       <use xlink:href="#DejaVuSans-30" x="190.869141"/>
       <use xlink:href="#DejaVuSans-2d" x="254.492188"/>
       <use xlink:href="#DejaVuSans-30" x="290.576172"/>
       <use xlink:href="#DejaVuSans-37" x="354.199219"/>
       <use xlink:href="#DejaVuSans-2d" x="417.822266"/>
       <use xlink:href="#DejaVuSans-30" x="453.90625"/>
       <use xlink:href="#DejaVuSans-31" x="517.529297"/>
      </g>
     </g>
    </g>
    <g id="xtick_5">
     <g id="line2d_5">
      <g>
       <use xlink:href="#ma87afff832" x="426.125113" y="320.4" style="stroke: #000000; stroke-width: 0.8"/>
      </g>
     </g>
     <g id="text_5">
      <!-- 2020-07-15 -->
      <g transform="translate(397.067301 334.998438) scale(0.1 -0.1)">
       <use xlink:href="#DejaVuSans-32"/>
       <use xlink:href="#DejaVuSans-30" x="63.623047"/>
       <use xlink:href="#DejaVuSans-32" x="127.246094"/>
       <use xlink:href="#DejaVuSans-30" x="190.869141"/>
       <use xlink:href="#DejaVuSans-2d" x="254.492188"/>
       <use xlink:href="#DejaVuSans-30" x="290.576172"/>
       <use xlink:href="#DejaVuSans-37" x="354.199219"/>
       <use xlink:href="#DejaVuSans-2d" x="417.822266"/>
       <use xlink:href="#DejaVuSans-31" x="453.90625"/>
       <use xlink:href="#DejaVuSans-35" x="517.529297"/>
      </g>
     </g>
    </g>
    <g id="xtick_6">
     <g id="line2d_6">
      <g>
       <use xlink:href="#ma87afff832" x="508.686854" y="320.4" style="stroke: #000000; stroke-width: 0.8"/>
      </g>
     </g>
     <g id="text_6">
      <!-- 2020-08-01 -->
      <g transform="translate(479.629042 334.998438) scale(0.1 -0.1)">
       <defs>
        <path id="DejaVuSans-38" d="M 2034 2216 
Q 1584 2216 1326 1975 
Q 1069 1734 1069 1313 
Q 1069 891 1326 650 
Q 1584 409 2034 409 
Q 2484 409 2743 651 
Q 3003 894 3003 1313 
Q 3003 1734 2745 1975 
Q 2488 2216 2034 2216 
z
M 1403 2484 
Q 997 2584 770 2862 
Q 544 3141 544 3541 
Q 544 4100 942 4425 
Q 1341 4750 2034 4750 
Q 2731 4750 3128 4425 
Q 3525 4100 3525 3541 
Q 3525 3141 3298 2862 
Q 3072 2584 2669 2484 
Q 3125 2378 3379 2068 
Q 3634 1759 3634 1313 
Q 3634 634 3220 271 
Q 2806 -91 2034 -91 
Q 1263 -91 848 271 
Q 434 634 434 1313 
Q 434 1759 690 2068 
Q 947 2378 1403 2484 
z
M 1172 3481 
Q 1172 3119 1398 2916 
Q 1625 2713 2034 2713 
Q 2441 2713 2670 2916 
Q 2900 3119 2900 3481 
Q 2900 3844 2670 4047 
Q 2441 4250 2034 4250 
Q 1625 4250 1398 4047 
Q 1172 3844 1172 3481 
z
" transform="scale(0.015625)"/>
       </defs>
       <use xlink:href="#DejaVuSans-32"/>
       <use xlink:href="#DejaVuSans-30" x="63.623047"/>
       <use xlink:href="#DejaVuSans-32" x="127.246094"/>
       <use xlink:href="#DejaVuSans-30" x="190.869141"/>
       <use xlink:href="#DejaVuSans-2d" x="254.492188"/>
       <use xlink:href="#DejaVuSans-30" x="290.576172"/>
       <use xlink:href="#DejaVuSans-38" x="354.199219"/>
       <use xlink:href="#DejaVuSans-2d" x="417.822266"/>
       <use xlink:href="#DejaVuSans-30" x="453.90625"/>
       <use xlink:href="#DejaVuSans-31" x="517.529297"/>
      </g>
     </g>
    </g>
   </g>
   <g id="matplotlib.axis_2">
    <g id="ytick_1">
     <g id="line2d_7">
      <defs>
       <path id="meea6ac97a9" d="M 0 0 
L -3.5 0 
" style="stroke: #000000; stroke-width: 0.8"/>
      </defs>
      <g>
       <use xlink:href="#meea6ac97a9" x="72" y="316.02311" style="stroke: #000000; stroke-width: 0.8"/>
      </g>
     </g>
     <g id="text_7">
      <!-- −2 -->
      <g transform="translate(50.257812 319.822329) scale(0.1 -0.1)">
       <defs>
        <path id="DejaVuSans-2212" d="M 678 2272 
L 4684 2272 
L 4684 1741 
L 678 1741 
L 678 2272 
z
" transform="scale(0.015625)"/>
       </defs>
       <use xlink:href="#DejaVuSans-2212"/>
       <use xlink:href="#DejaVuSans-32" x="83.789062"/>
      </g>
     </g>
    </g>
    <g id="ytick_2">
     <g id="line2d_8">
      <g>
       <use xlink:href="#meea6ac97a9" x="72" y="262.270962" style="stroke: #000000; stroke-width: 0.8"/>
      </g>
     </g>
     <g id="text_8">
      <!-- −1 -->
      <g transform="translate(50.257812 266.070181) scale(0.1 -0.1)">
       <use xlink:href="#DejaVuSans-2212"/>
       <use xlink:href="#DejaVuSans-31" x="83.789062"/>
      </g>
     </g>
    </g>
    <g id="ytick_3">
     <g id="line2d_9">
      <g>
       <use xlink:href="#meea6ac97a9" x="72" y="208.518814" style="stroke: #000000; stroke-width: 0.8"/>
      </g>
     </g>
     <g id="text_9">
      <!-- 0 -->
      <g transform="translate(58.6375 212.318032) scale(0.1 -0.1)">
       <use xlink:href="#DejaVuSans-30"/>
      </g>
     </g>
    </g>
    <g id="ytick_4">
     <g id="line2d_10">
      <g>
       <use xlink:href="#meea6ac97a9" x="72" y="154.766666" style="stroke: #000000; stroke-width: 0.8"/>
      </g>
     </g>
     <g id="text_10">
      <!-- 1 -->
      <g transform="translate(58.6375 158.565884) scale(0.1 -0.1)">
       <use xlink:href="#DejaVuSans-31"/>
      </g>
     </g>
    </g>
    <g id="ytick_5">
     <g id="line2d_11">
      <g>
       <use xlink:href="#meea6ac97a9" x="72" y="101.014518" style="stroke: #000000; stroke-width: 0.8"/>
      </g>
     </g>
     <g id="text_11">
      <!-- 2 -->
      <g transform="translate(58.6375 104.813736) scale(0.1 -0.1)">
       <use xlink:href="#DejaVuSans-32"/>
      </g>
     </g>
    </g>
    <g id="ytick_6">
     <g id="line2d_12">
      <g>
       <use xlink:href="#meea6ac97a9" x="72" y="47.262369" style="stroke: #000000; stroke-width: 0.8"/>
      </g>
     </g>
     <g id="text_12">
      <!-- 3 -->
      <g transform="translate(58.6375 51.061588) scale(0.1 -0.1)">
       <defs>
        <path id="DejaVuSans-33" d="M 2597 2516 
Q 3050 2419 3304 2112 
Q 3559 1806 3559 1356 
Q 3559 666 3084 287 
Q 2609 -91 1734 -91 
Q 1441 -91 1130 -33 
Q 819 25 488 141 
L 488 750 
Q 750 597 1062 519 
Q 1375 441 1716 441 
Q 2309 441 2620 675 
Q 2931 909 2931 1356 
Q 2931 1769 2642 2001 
Q 2353 2234 1838 2234 
L 1294 2234 
L 1294 2753 
L 1863 2753 
Q 2328 2753 2575 2939 
Q 2822 3125 2822 3475 
Q 2822 3834 2567 4026 
Q 2313 4219 1838 4219 
Q 1578 4219 1281 4162 
Q 984 4106 628 3988 
L 628 4550 
Q 988 4650 1302 4700 
Q 1616 4750 1894 4750 
Q 2613 4750 3031 4423 
Q 3450 4097 3450 3541 
Q 3450 3153 3228 2886 
Q 3006 2619 2597 2516 
z
" transform="scale(0.015625)"/>
       </defs>
       <use xlink:href="#DejaVuSans-33"/>
      </g>
     </g>
    </g>
   </g>
   <g id="line2d_13">
    <path d="M 72 287.021497 
L 72.404714 298.412757 
L 72.607072 296.682973 
L 72.809429 285.96675 
L 73.214143 254.915018 
L 73.618858 242.426821 
L 75.035358 159.101858 
L 75.237715 156.127474 
L 75.440073 161.211351 
L 75.64243 169.459468 
L 75.844787 172.771371 
L 76.047144 188.086288 
L 76.654216 258.669915 
L 77.05893 282.844701 
L 77.261287 287.232446 
L 77.463645 286.852737 
L 77.666002 276.094324 
L 78.070716 247.468508 
L 78.475431 234.938122 
L 78.677788 225.761828 
L 79.487217 168.510196 
L 79.891931 152.161627 
L 80.094288 154.123456 
L 80.903717 196.735208 
L 81.713146 272.423807 
L 82.11786 287.148066 
L 82.320218 289.194274 
L 82.522575 288.898945 
L 82.724932 286.367554 
L 82.927289 279.511703 
L 83.332004 256.412757 
L 83.736718 242.026017 
L 83.939075 238.967253 
L 84.141432 239.241487 
L 84.546147 245.675439 
L 84.748504 247.784932 
L 84.950861 247.806027 
L 85.355576 252.025013 
L 85.557933 248.670919 
L 85.76029 254.830638 
L 86.569719 300.015972 
L 86.772076 306.133501 
L 86.974433 307.736715 
L 87.176791 307.8 
L 87.379148 306.449925 
L 87.581505 302.695028 
L 87.783862 295.902461 
L 88.188577 273.731693 
L 88.390934 268.521246 
L 89.200363 260.399699 
L 89.40272 256.243998 
L 89.807434 241.372074 
L 90.212149 238.903968 
L 90.414506 236.182722 
L 90.616863 244.1777 
L 91.223935 295.037569 
L 91.628649 306.133501 
L 91.831006 306.196786 
L 92.033364 303.686489 
L 92.842792 257.277649 
L 93.04515 255.125967 
L 93.449864 246.477047 
L 93.652221 245.949674 
L 93.854578 242.996384 
L 94.056936 242.363536 
L 94.259293 239.72667 
L 94.46165 233.292717 
L 94.664007 230.423807 
L 94.866364 231.351984 
L 95.068722 234.516223 
L 95.271079 230.655851 
L 95.473436 240.823606 
L 96.080508 295.417278 
L 96.485222 304.677951 
L 96.687579 306.597589 
L 96.889937 302.230939 
L 97.699365 256.539327 
L 98.306437 245.970768 
L 98.508794 245.59106 
L 99.52058 224.242993 
L 99.722937 225.508689 
L 99.925295 229.896434 
L 100.127652 228.061175 
L 100.330009 238.27112 
L 100.937081 292.928076 
L 101.341795 305.268609 
L 101.544152 306.26007 
L 101.74651 302.526268 
L 101.948867 290.50216 
L 102.353581 260.294224 
L 102.555938 258.733199 
L 103.567724 240.844701 
L 104.377153 218.610648 
L 104.57951 219.897438 
L 104.781868 225.318835 
L 104.984225 225.29774 
L 105.186582 234.241989 
L 105.793654 289.763837 
L 106.198368 302.589553 
L 106.400725 304.361527 
L 106.603083 300.311301 
L 107.412511 254.11341 
L 107.614869 252.383626 
L 107.817226 248.692014 
L 108.22194 234.07323 
L 108.626655 212.23998 
L 108.829012 206.270116 
L 109.031369 204.371572 
L 109.638441 213.104872 
L 109.840798 218.568458 
L 110.043155 229.031542 
L 110.650227 284.405726 
L 111.054941 298.750276 
L 111.257298 300.669915 
L 111.459655 298.919036 
L 111.662013 287.443395 
L 112.066727 258.015972 
L 112.471442 242.933099 
L 113.887942 174.121447 
L 114.090299 171.73772 
L 114.292656 178.593571 
L 114.495014 190.090306 
L 114.697371 194.710095 
L 115.102085 228.926067 
L 115.709157 278.583526 
L 116.113871 292.611652 
L 116.316228 292.780412 
L 116.518586 291.113913 
L 116.720943 287.46449 
L 117.125657 260.06218 
L 118.542158 154.777398 
L 118.744515 144.609643 
L 118.946872 140.707082 
L 119.149229 144.398694 
L 119.756301 182.496133 
L 120.56573 262.319337 
L 120.970444 282.254043 
L 121.172801 286.367554 
L 121.375159 288.012958 
L 121.577516 286.557408 
L 121.779873 278.583526 
L 122.589302 227.280663 
L 123.196374 201.671421 
L 123.398731 197.072727 
L 123.601088 197.283677 
L 123.803445 196.714114 
L 124.410517 210.193772 
L 124.612874 221.226419 
L 125.219946 277.845203 
L 125.62466 292.463988 
L 125.827017 294.468006 
L 126.029374 291.91552 
L 127.04116 235.191261 
L 127.648232 197.557911 
L 128.255304 154.925063 
L 128.457661 147.330889 
L 128.660018 146.99337 
L 129.26709 191.588046 
L 130.278876 282.971271 
L 130.481233 290.839679 
L 130.68359 292.231944 
L 130.885947 289.637268 
L 132.504805 180.070216 
L 133.111877 137.142039 
L 133.314234 127.670417 
L 133.516591 129.379106 
L 133.921306 144.841688 
L 134.123663 152.309292 
L 135.135449 262.84671 
L 135.540163 275.545856 
L 135.74252 274.596585 
L 135.944878 263.943646 
L 136.349592 232.343446 
L 136.551949 225.529784 
L 136.754306 213.590055 
L 136.956664 218.188749 
L 137.159021 206.818584 
L 137.766092 197.937619 
L 137.96845 198.338423 
L 138.373164 192.895932 
L 138.777879 200.490105 
L 138.980236 201.333903 
L 139.182593 213.210347 
L 139.789665 270.187745 
L 140.194379 285.650326 
L 140.396736 287.738724 
L 140.599093 284.701055 
L 141.003808 254.303265 
L 141.408522 232.997388 
L 142.015594 219.51773 
L 142.622665 210.320342 
L 142.825023 210.046107 
L 143.02738 208.822602 
L 143.229737 209.518734 
L 143.634451 214.834656 
L 143.836809 213.590055 
L 144.039166 223.84219 
L 144.646238 273.499648 
L 145.050952 285.671421 
L 145.253309 286.979307 
L 145.455666 283.815068 
L 145.860381 253.965746 
L 146.062738 237.406228 
L 146.66981 220.825615 
L 146.872167 218.125465 
L 147.074524 217.028528 
L 147.479238 205.848217 
L 147.681596 214.370568 
L 147.883953 215.362029 
L 148.08631 217.998895 
L 148.491024 227.386138 
L 148.693382 226.014967 
L 149.098096 249.83114 
L 149.502811 278.203817 
L 149.907525 291.430337 
L 150.109882 293.518734 
L 150.312239 292.928076 
L 150.514597 290.059166 
L 150.716954 284.258061 
L 151.121668 263.036565 
L 151.526383 242.194776 
L 151.931097 236.288197 
L 152.133454 235.845203 
L 152.335811 237.849221 
L 152.538169 238.376595 
L 152.740526 236.288197 
L 152.942883 236.583526 
L 153.14524 235.592064 
L 153.347597 235.634254 
L 153.549955 232.659869 
L 153.752312 234.895932 
L 154.764098 287.253541 
L 154.966455 291.282672 
L 155.168812 292.696032 
L 155.573527 288.687996 
L 155.775884 277.423305 
L 156.78767 198.127474 
L 157.799456 154.756303 
L 158.001813 156.802511 
L 158.406528 170.23998 
L 158.608885 184.036062 
L 159.215956 253.881366 
L 159.620671 275.86228 
L 159.823028 279.131994 
L 160.025385 278.203817 
L 160.227743 268.225917 
L 160.632457 235.191261 
L 161.8466 183.993872 
L 162.251315 173.762833 
L 162.453672 173.910497 
L 162.656029 176.821597 
L 163.465458 209.20231 
L 164.072529 270.12446 
L 164.477244 289.067705 
L 164.679601 289.405224 
L 164.881958 286.114415 
L 165.084316 275.777901 
L 165.48903 243.439377 
L 166.500816 207.725665 
L 167.310245 164.038071 
L 167.512602 167.45545 
L 167.917316 188.402712 
L 168.119674 192.938122 
L 168.322031 204.498142 
L 168.929102 264.977298 
L 169.333817 280.439879 
L 169.536174 284.026017 
L 169.738531 280.292215 
L 170.143246 252.510196 
L 170.54796 221.648317 
L 171.357389 176.273129 
L 171.559746 170.134505 
L 172.166818 145.49563 
L 172.369175 147.141035 
L 172.571532 155.199297 
L 173.178604 194.878855 
L 173.785675 267.25555 
L 174.19039 287.000402 
L 174.392747 290.038071 
L 174.595104 288.181718 
L 174.999819 263.542843 
L 175.404533 238.081266 
L 177.023391 158.405726 
L 177.225748 158.933099 
L 177.428105 162.92004 
L 177.630462 179.817077 
L 177.83282 182.306278 
L 178.237534 227.238473 
L 178.642248 270.947162 
L 179.046963 290.50216 
L 179.24932 294.299247 
L 179.451677 291.725665 
L 179.654034 282.865796 
L 180.261106 242.258061 
L 181.879964 143.449422 
L 182.082321 140.116424 
L 182.284678 145.896434 
L 183.094107 203.316826 
L 183.498821 243.080763 
L 183.903536 264.956203 
L 184.30825 272.95118 
L 184.510607 274.343446 
L 184.712965 270.630738 
L 184.915322 256.98232 
L 185.724751 173.340934 
L 186.129465 151.52878 
L 186.331822 145.347966 
L 186.53418 144.567454 
L 186.736537 147.16213 
L 187.748323 188.423807 
L 188.557752 253.923556 
L 188.962466 268.394676 
L 189.164823 270.483074 
L 189.36718 270.567454 
L 189.569538 269.808036 
L 189.771895 258.796484 
L 190.986038 160.810547 
L 191.188395 155.389151 
L 191.390752 155.346961 
L 191.795467 164.692014 
L 192.604896 196.671924 
L 193.414325 261.370065 
L 193.819039 275.377097 
L 194.021396 276.474033 
L 194.426111 272.423807 
L 194.628468 263.268609 
L 195.437897 201.017479 
L 195.640254 195.891411 
L 195.842611 197.136012 
L 196.247325 203.337921 
L 196.449683 203.928579 
L 196.65204 203.527775 
L 197.056754 211.923556 
L 197.259112 212.788448 
L 197.461469 221.395178 
L 198.06854 270.841688 
L 198.473255 285.354997 
L 198.675612 285.460472 
L 198.877969 281.72667 
L 199.282684 250.231944 
L 199.687398 226.879859 
L 201.306256 158.933099 
L 201.508613 157.751783 
L 202.115684 177.39116 
L 202.318042 188.803516 
L 202.925113 254.366549 
L 203.329828 272.423807 
L 203.532185 274.57549 
L 203.734542 271.516725 
L 203.936899 259.724661 
L 204.341614 224.939126 
L 205.758114 168.995379 
L 205.960471 166.442893 
L 206.162829 166.590558 
L 206.365186 168.046107 
L 206.7699 180.175691 
L 206.972257 183.445404 
L 207.174615 194.541336 
L 207.781686 254.978302 
L 208.186401 271.516725 
L 208.388758 274.638774 
L 208.591115 271.221396 
L 208.793472 259.070718 
L 209.198187 224.475038 
L 209.805258 201.671421 
L 210.209973 181.314817 
L 210.817044 138.639779 
L 211.019402 129.948669 
L 211.221759 132.986339 
L 211.626473 158.047112 
L 211.82883 163.384129 
L 212.031188 178.467002 
L 212.638259 245.063687 
L 213.042974 264.091311 
L 213.245331 268.183727 
L 213.447688 266.432848 
L 213.650045 255.463486 
L 214.257117 211.164139 
L 214.661831 184.183727 
L 215.47126 123.409242 
L 215.875975 106.280161 
L 216.078332 105.794977 
L 216.280689 111.469513 
L 217.090118 176.779407 
L 217.697189 240.190758 
L 218.101904 259.091813 
L 218.304261 262.530286 
L 218.506618 263.922551 
L 218.708976 262.635761 
L 218.911333 249.599096 
L 219.518404 193.48659 
L 220.125476 157.435359 
L 220.327833 155.220392 
L 220.53019 157.498644 
L 221.541976 200.827624 
L 221.744334 206.101356 
L 222.553762 264.365545 
L 222.958477 275.503666 
L 223.160834 277.254545 
L 223.363191 277.613159 
L 223.565549 276.009945 
L 223.767906 267.086791 
L 224.374977 227.955701 
L 224.779692 220.192767 
L 225.386763 222.30226 
L 225.589121 225.909493 
L 225.791478 226.816575 
L 226.196192 235.40221 
L 226.398549 235.043596 
L 226.600907 241.625213 
L 227.410335 296.535309 
L 227.612693 300.669915 
L 227.81505 302.399699 
L 228.017407 299.129985 
L 228.826836 255.505676 
L 229.029193 253.121949 
L 229.23155 247.236464 
L 230.648051 182.285183 
L 230.850408 182.875841 
L 231.255122 197.64229 
L 231.45748 208.801507 
L 232.064551 274.027022 
L 232.469266 291.620191 
L 232.671623 294.404721 
L 232.87398 293.160121 
L 233.278694 267.25555 
L 233.683409 244.1777 
L 235.302267 178.024008 
L 235.504624 177.412255 
L 236.111695 196.988348 
L 236.314053 207.599096 
L 236.921124 271.242491 
L 237.325839 287.50668 
L 237.528196 290.713109 
L 237.730553 288.540331 
L 238.135267 264.006931 
L 238.539982 241.688498 
L 239.349411 210.003918 
L 239.754125 199.751783 
L 240.15884 189.288699 
L 240.361197 189.03556 
L 240.563554 194.625716 
L 240.968268 212.661878 
L 241.170626 220.424812 
L 241.777697 277.31783 
L 242.182412 293.560924 
L 242.384769 296.11341 
L 242.587126 293.054646 
L 242.99184 267.740733 
L 243.396555 249.345957 
L 245.21777 172.876846 
L 245.420127 177.222401 
L 246.027199 204.666901 
L 246.836627 279.933601 
L 247.038985 288.498142 
L 247.241342 291.74676 
L 247.443699 289.152084 
L 247.848413 265.019488 
L 249.467271 150.305274 
L 249.669628 142.036062 
L 249.871985 140.053139 
L 250.074343 140.221899 
L 250.2767 147.330889 
L 250.883772 180.21788 
L 251.6932 257.003415 
L 252.097915 271.875339 
L 252.300272 275.018483 
L 252.502629 275.292717 
L 252.704986 271.326871 
L 253.109701 237.785937 
L 253.91913 162.814566 
L 254.323844 146.634756 
L 254.728558 137.606128 
L 254.930916 136.319337 
L 255.133273 143.997891 
L 255.740345 182.369563 
L 256.549773 259.387142 
L 256.954488 275.229432 
L 257.156845 279.131994 
L 257.359202 280.840683 
L 257.561559 279.849221 
L 257.966274 250.274134 
L 258.573345 198.675942 
L 258.97806 176.484078 
L 259.382774 165.198292 
L 259.585131 161.675439 
L 259.787489 161.232446 
L 259.989846 163.911502 
L 260.39456 180.281165 
L 260.596917 193.950678 
L 261.203989 257.425314 
L 261.608704 276.579508 
L 261.811061 279.574987 
L 262.013418 278.77338 
L 262.418132 254.23998 
L 262.62049 241.941637 
L 263.025204 232.048117 
L 263.227561 229.179206 
L 263.429918 228.145555 
L 263.834633 229.45344 
L 264.03699 229.137017 
L 264.239347 230.107383 
L 264.441704 230.191763 
L 264.644062 229.917529 
L 264.846419 232.005927 
L 265.048776 236.140532 
L 265.251133 236.140532 
L 265.45349 240.254043 
L 266.060562 283.730688 
L 266.465277 296.872828 
L 266.667634 298.454947 
L 266.869991 294.172677 
L 267.072348 286.030035 
L 267.477063 258.901959 
L 268.084134 236.203817 
L 268.488849 225.677449 
L 269.09592 214.159618 
L 269.500635 210.109392 
L 269.702992 212.345455 
L 269.905349 216.037067 
L 270.107706 216.733199 
L 270.310063 223.188247 
L 270.917135 273.204319 
L 271.32185 285.460472 
L 271.524207 287.654345 
L 271.726564 285.903466 
L 274.15485 140.960221 
L 274.357208 133.619186 
L 274.559565 137.036565 
L 275.166636 162.793471 
L 275.976065 246.308287 
L 276.38078 259.176193 
L 276.583137 258.458965 
L 276.987851 236.098343 
L 277.392566 206.50216 
L 278.404352 148.195781 
L 278.606709 145.073732 
L 279.011423 131.530789 
L 279.213781 129.885384 
L 279.416138 134.252034 
L 280.023209 176.969262 
L 280.630281 250.020994 
L 281.034995 273.351984 
L 281.237353 278.351482 
L 281.43971 276.769362 
L 281.642067 270.736213 
L 282.249139 227.976796 
L 282.85621 193.52878 
L 283.867996 149.714616 
L 284.070354 148.49111 
L 284.272711 156.844701 
L 285.284497 241.920542 
L 285.689211 274.870819 
L 286.093926 289.974787 
L 286.296283 292.316323 
L 286.49864 290.45997 
L 286.700997 287.443395 
L 287.105712 255.674435 
L 287.712783 202.873832 
L 288.522212 158.384631 
L 288.724569 151.085786 
L 288.926927 149.102863 
L 289.129284 152.77338 
L 289.736355 187.411251 
L 290.545784 259.197288 
L 290.950499 274.849724 
L 291.152856 277.697539 
L 291.355213 277.781919 
L 291.55757 276.263084 
L 291.759927 263.479558 
L 292.771714 162.392667 
L 293.176428 139.863285 
L 293.581142 128.345455 
L 293.7835 126.573481 
L 293.985857 130.180713 
L 294.592928 156.338423 
L 295.402357 241.667403 
L 295.807072 256.729181 
L 296.009429 256.560422 
L 296.414143 235.760824 
L 297.830644 97.293722 
L 298.235358 83.645304 
L 298.437715 80.987343 
L 298.640073 81.261577 
L 298.84243 83.37107 
L 299.044787 91.619186 
L 299.449501 119.295731 
L 300.056573 200.363536 
L 300.461287 226.268106 
L 300.663645 232.44892 
L 300.866002 233.187243 
L 301.068359 226.183727 
L 301.473073 195.342943 
L 302.484859 87.273631 
L 302.687217 75.650326 
L 302.889574 75.755801 
L 303.091931 84.067202 
L 303.496646 92.948167 
L 303.90136 115.793973 
L 304.306074 144.483074 
L 304.913146 215.551883 
L 305.31786 241.583024 
L 305.520218 247.299749 
L 305.722575 245.46449 
L 305.924932 238.14455 
L 306.532004 197.114917 
L 307.54379 125.223405 
L 307.746147 114.739227 
L 307.948504 113.832145 
L 308.757933 146.972275 
L 309.162647 173.741738 
L 309.769719 238.439879 
L 310.174433 258.859769 
L 310.376791 263.374083 
L 310.579148 262.783425 
L 310.983862 238.735208 
L 312.198005 131.889402 
L 312.60272 119.949674 
L 312.805077 115.456454 
L 313.007434 116.026017 
L 313.209791 119.823104 
L 313.816863 148.153591 
L 314.01922 162.202813 
L 314.626292 226.479056 
L 315.031006 247.531793 
L 315.233364 252.235962 
L 315.435721 251.560924 
L 315.840435 232.280161 
L 316.24515 213.062682 
L 316.649864 200.72215 
L 317.054578 185.006429 
L 317.66165 177.285686 
L 317.864007 176.821597 
L 318.066364 175.89342 
L 318.268722 180.703064 
L 318.875793 203.443395 
L 319.685222 263.627223 
L 320.089937 276.748267 
L 320.292294 278.435861 
L 320.697008 270.293219 
L 321.101723 243.354997 
L 322.315866 163.320844 
L 322.72058 152.794475 
L 322.922937 150.410748 
L 323.125295 154.650829 
L 323.732366 183.023506 
L 324.541795 253.417278 
L 324.94651 268.099347 
L 325.148867 271.073732 
L 325.351224 271.137017 
L 325.553581 268.816575 
L 325.755938 256.159618 
L 326.970082 140.707082 
L 327.172439 134.209844 
L 327.374796 132.585535 
L 327.77951 126.86881 
L 327.981868 131.994877 
L 328.184225 141.023506 
L 328.791296 194.077248 
L 329.196011 238.988348 
L 329.398368 254.640784 
L 329.803083 265.019488 
L 330.00544 264.049121 
L 330.207797 258.290206 
L 330.814869 208.463988 
L 331.42194 169.206328 
L 331.826655 145.917529 
L 332.029012 142.943144 
L 332.231369 142.964239 
L 332.433726 143.154093 
L 332.636083 145.305776 
L 332.838441 149.967755 
L 333.243155 173.509694 
L 333.445512 182.770367 
L 334.052584 250.274134 
L 334.457298 272.655851 
L 334.659655 278.224912 
L 334.862013 275.756806 
L 335.266727 255.379106 
L 335.671442 230.360522 
L 336.48087 189.16213 
L 336.683228 183.951683 
L 336.885585 182.812557 
L 337.087942 176.462983 
L 337.290299 174.56444 
L 337.695014 181.209342 
L 338.099728 196.060171 
L 338.302085 202.09332 
L 339.111514 269.702562 
L 339.313871 276.07323 
L 339.516228 278.372577 
L 339.718586 274.195781 
L 340.1233 250.210849 
L 340.932729 204.540331 
L 342.349229 141.107885 
L 342.551587 141.023506 
L 343.158658 166.379608 
L 343.76573 230.845706 
L 344.170444 249.345957 
L 344.372801 254.23998 
L 344.575159 252.046107 
L 344.777516 244.937117 
L 345.18223 213.210347 
L 346.194016 128.32436 
L 346.598731 113.157107 
L 347.003445 106.36454 
L 347.205802 105.499648 
L 347.40816 108.769362 
L 347.610517 116.827624 
L 348.015231 143.639277 
L 348.82466 237.237469 
L 349.229374 254.809543 
L 349.431732 254.029031 
L 349.634089 248.080261 
L 349.836446 236.646811 
L 351.050589 129.379106 
L 351.455304 110.520241 
L 351.860018 101.428327 
L 352.062375 100.500151 
L 352.264733 104.233953 
L 352.46709 115.625213 
L 353.276519 200.975289 
L 353.681233 239.937619 
L 354.085947 260.673933 
L 354.288305 266.095329 
L 354.490662 266.685987 
L 354.693019 264.38664 
L 355.097733 221.205324 
L 355.704805 145.369061 
L 356.109519 119.991863 
L 356.716591 101.301758 
L 356.918948 100.183727 
L 357.121306 105.11994 
L 357.52602 131.446409 
L 357.728377 144.483074 
L 358.740163 242.574485 
L 359.144878 255.906479 
L 359.347235 257.826118 
L 359.549592 257.488599 
L 359.751949 243.101858 
L 360.763735 119.169161 
L 361.16845 99.571974 
L 361.573164 88.159618 
L 361.775521 85.796986 
L 361.977879 89.172175 
L 362.180236 96.365545 
L 362.58495 122.860773 
L 363.394379 214.054144 
L 363.799093 232.195781 
L 364.001451 233.039578 
L 364.203808 226.985334 
L 364.406165 216.64882 
L 365.013237 145.137017 
L 365.620308 78.772376 
L 366.025023 62.149573 
L 366.429737 55.8 
L 366.632094 56.306278 
L 366.834451 59.027524 
L 367.036809 67.992868 
L 367.441523 98.010949 
L 368.048595 179.901457 
L 368.453309 211.290708 
L 368.655666 220.066198 
L 368.858024 222.513209 
L 369.060381 218.505173 
L 369.262738 208.358513 
L 369.86981 143.006429 
L 370.476881 83.160121 
L 370.881596 66.052135 
L 371.083953 65.588046 
L 371.28631 66.326369 
L 371.488667 70.376595 
L 371.691024 76.789453 
L 372.298096 116.912004 
L 373.107525 204.413762 
L 373.512239 227.301758 
L 373.714597 231.794977 
L 374.119311 231.07775 
L 374.321668 217.956705 
L 375.333454 111.047614 
L 375.738169 97.399196 
L 375.940526 94.614666 
L 376.142883 93.47554 
L 376.34524 98.812557 
L 376.749955 125.835158 
L 377.559383 186.504169 
L 377.964098 222.196786 
L 378.368812 236.414766 
L 378.57117 236.646811 
L 378.773527 230.529282 
L 378.975884 218.969262 
L 380.392384 98.791462 
L 380.797099 88.560422 
L 381.201813 80.734204 
L 381.40417 84.615671 
L 382.011242 122.776394 
L 382.820671 208.189754 
L 383.225385 224.791462 
L 383.427743 225.466499 
L 383.6301 219.960723 
L 384.034814 197.030537 
L 385.0466 121.320844 
L 385.451315 104.107383 
L 385.653672 103.6222 
L 385.856029 107.524761 
L 386.058386 115.393169 
L 387.070172 187.558915 
L 387.474887 228.926067 
L 387.879601 251.497639 
L 388.284316 260.927072 
L 388.68903 263.521748 
L 388.891387 257.594073 
L 389.700816 212.682973 
L 390.307888 201.122953 
L 390.914959 187.980814 
L 391.117316 192.917027 
L 391.926745 233.735711 
L 392.533817 279.321848 
L 392.938531 292.084279 
L 393.140888 294.003918 
L 393.343246 293.539829 
L 393.545603 294.025013 
L 393.74796 284.785434 
L 394.355032 242.321346 
L 395.569175 184.057157 
L 395.771532 177.855249 
L 395.973889 179.099849 
L 396.176247 187.685485 
L 396.783318 231.056655 
L 397.188033 270.799498 
L 397.592747 289.194274 
L 397.795104 292.063184 
L 397.997461 289.447413 
L 398.402176 270.736213 
L 400.628105 139.061678 
L 400.830462 141.993872 
L 401.03282 152.267102 
L 401.639891 211.121949 
L 402.044606 256.876846 
L 402.44932 277.845203 
L 402.651677 281.979809 
L 402.854034 280.27112 
L 403.258749 261.496635 
L 403.663463 232.174686 
L 404.877607 122.755299 
L 405.282321 101.575992 
L 405.484678 97.230437 
L 405.687035 98.348468 
L 405.889393 109.191261 
L 406.294107 147.752788 
L 406.901179 227.639277 
L 407.305893 252.468006 
L 407.50825 258.248016 
L 407.710607 257.699548 
L 408.115322 235.781919 
L 409.73418 99.276645 
L 409.936537 94.192767 
L 410.138894 94.045103 
L 410.341251 98.791462 
L 410.948323 136.045103 
L 411.15068 152.456956 
L 411.757752 225.29774 
L 412.162466 250.126469 
L 412.364823 256.813561 
L 412.56718 258.64882 
L 412.971895 240.021999 
L 414.388395 138.808538 
L 414.79311 124.843697 
L 415.197824 117.96675 
L 415.400181 124.949171 
L 416.20961 189.478553 
L 416.614325 236.140532 
L 417.019039 259.93561 
L 417.221396 264.323355 
L 417.423753 263.753792 
L 417.828468 247.0888 
L 419.244968 146.276143 
L 419.649683 132.248016 
L 419.85204 128.303265 
L 420.054397 129.77991 
L 420.256754 138.703064 
L 421.066183 205.974787 
L 421.673255 262.720141 
L 422.077969 279.279658 
L 422.280326 281.832145 
L 422.482684 281.157107 
L 422.685041 280.988348 
L 423.089755 249.324862 
L 423.899184 178.234957 
L 424.708613 137.774887 
L 424.91097 134.505173 
L 425.113327 138.618684 
L 425.518042 165.493621 
L 425.720399 177.623204 
L 426.529828 254.345455 
L 426.934542 273.436364 
L 427.136899 278.035058 
L 427.339257 278.85776 
L 427.541614 279.089804 
L 427.743971 270.25103 
L 428.148685 228.778403 
L 428.755757 165.177197 
L 429.160471 138.829633 
L 429.565186 130.349473 
L 429.9699 134.378604 
L 430.374615 151.043596 
L 430.576972 163.00442 
L 431.386401 241.076745 
L 431.791115 253.649322 
L 431.993472 251.560924 
L 432.398187 230.698041 
L 433.207616 163.827122 
L 434.017044 91.534807 
L 434.219402 86.514214 
L 435.02883 114.675942 
L 435.433545 140.348468 
L 436.040617 213.484581 
L 436.445331 236.625716 
L 436.647688 241.899448 
L 436.850045 241.203315 
L 437.25476 220.045103 
L 437.659474 184.183727 
L 438.468903 108.727172 
L 438.67126 98.728177 
L 438.873617 99.719638 
L 439.075975 107.018483 
L 439.278332 106.554395 
L 439.480689 108.853742 
L 439.885403 127.902461 
L 440.290118 153.321848 
L 440.897189 228.715118 
L 441.301904 251.624209 
L 441.504261 257.19327 
L 441.706618 257.741738 
L 442.111333 242.616675 
L 442.920762 189.204319 
L 443.527833 153.406228 
L 444.134905 130.054144 
L 444.337262 127.396183 
L 444.539619 133.9778 
L 445.146691 180.238975 
L 445.753762 251.265595 
L 446.158477 273.03556 
L 446.360834 278.119437 
L 446.563191 276.07323 
L 446.967906 256.665897 
L 448.586763 143.955701 
L 448.991478 130.412757 
L 449.193835 128.029031 
L 449.396192 134.863787 
L 450.003264 176.315319 
L 450.812693 258.48006 
L 451.217407 272.128478 
L 451.419764 272.255048 
L 451.824479 254.619689 
L 452.43155 202.873832 
L 453.038622 159.861276 
L 453.443336 142.373581 
L 453.848051 134.294224 
L 454.050408 137.753792 
L 454.252765 148.005927 
L 454.65748 177.159116 
L 454.859837 185.829131 
L 455.669266 252.257057 
L 456.07398 266.158614 
L 456.276337 267.719638 
L 456.478694 265.67343 
L 456.681052 262.488096 
L 456.883409 254.28217 
L 457.288123 226.563435 
L 457.692838 215.319839 
L 457.895195 216.037067 
L 458.299909 221.943646 
L 458.502267 221.795982 
L 458.906981 217.872325 
L 459.109338 218.420794 
L 459.514053 222.681969 
L 459.71641 227.090809 
L 460.728196 286.304269 
L 461.13291 290.839679 
L 461.537625 287.443395 
L 461.739982 278.288197 
L 462.144696 242.890909 
L 463.561197 171.927574 
L 463.763554 164.481065 
L 463.965911 165.683476 
L 464.572983 185.660372 
L 465.382412 254.366549 
L 465.584769 261.454445 
L 465.787126 264.238975 
L 465.989483 261.749774 
L 467.608341 166.822602 
L 468.620127 145.094827 
L 468.822484 148.301256 
L 469.429556 175.218383 
L 470.036627 233.398192 
L 470.441342 251.645304 
L 470.643699 254.345455 
L 470.846056 251.708589 
L 471.857842 199.477549 
L 472.869628 168.446911 
L 473.071985 168.953189 
L 473.274343 167.117931 
L 473.4767 168.404721 
L 473.679057 172.286188 
L 473.881414 179.036565 
L 474.083772 180.21788 
L 474.286129 188.086288 
L 474.8932 241.540834 
L 475.297915 258.205826 
L 475.500272 259.914515 
L 475.702629 257.826118 
L 476.107344 232.828629 
L 476.512058 210.257057 
L 477.321487 177.960723 
L 477.726201 157.287695 
L 477.928558 153.638272 
L 478.333273 158.447916 
L 478.53563 163.025515 
L 479.142702 188.592567 
L 479.952131 258.100352 
L 480.356845 268.204822 
L 480.559202 267.782923 
L 480.963917 245.126971 
L 482.785131 113.452436 
L 482.987489 107.398192 
L 483.189846 104.698041 
L 483.392203 110.478051 
L 483.999275 151.36002 
L 484.606346 224.285183 
L 485.011061 248.101356 
L 485.213418 252.615671 
L 485.415775 253.586037 
L 485.82049 233.313812 
L 486.225204 201.312808 
L 487.23699 109.043596 
L 487.439347 105.879357 
L 487.844062 112.608639 
L 488.248776 131.699548 
L 489.260562 211.206328 
L 489.665277 244.1777 
L 490.069991 259.661376 
L 490.272348 262.066198 
L 490.474705 260.905977 
L 490.677063 259.091813 
L 490.87942 249.113913 
L 491.891206 167.37107 
L 492.29592 149.208338 
L 492.498277 141.635259 
L 492.700635 139.567956 
L 492.902992 141.234455 
L 493.105349 146.170668 
L 493.712421 180.534304 
L 494.52185 254.345455 
L 495.128921 273.07775 
L 495.331278 273.225414 
L 495.533636 272.592567 
L 495.735993 264.850728 
L 496.950136 171.041587 
L 497.557208 146.065193 
L 497.759565 142.62672 
L 497.961922 145.917529 
L 498.568994 178.213862 
L 499.378422 253.881366 
L 499.58078 260.884882 
L 499.783137 263.437368 
L 499.985494 260.041085 
L 500.187851 251.307785 
L 500.794923 213.463486 
L 500.99728 208.231944 
L 501.401995 194.81557 
L 501.806709 183.276645 
L 502.009066 182.812557 
L 502.211423 184.922049 
L 502.413781 185.575992 
L 502.616138 183.867303 
L 503.020852 193.824108 
L 503.223209 194.393672 
L 503.425567 202.09332 
L 504.032638 254.050126 
L 504.437353 267.445404 
L 504.63971 269.111904 
L 504.842067 266.685987 
L 505.246782 241.709593 
L 505.651496 217.302762 
L 507.270354 142.331391 
L 507.472711 139.146057 
L 507.675068 142.62672 
L 508.28214 171.358011 
L 508.889211 230.824611 
L 509.293926 248.37559 
L 509.496283 251.982823 
L 509.69864 250.105374 
L 510.103354 225.972777 
L 511.722212 116.954194 
L 512.126927 98.749272 
L 512.329284 100.373581 
L 512.936355 135.602109 
L 513.34107 175.513712 
L 513.745784 220.066198 
L 514.150499 243.354997 
L 514.352856 249.071723 
L 514.555213 249.578001 
L 514.75757 240.464992 
L 516.174071 141.29774 
L 516.376428 140.179709 
L 516.781142 149.735711 
L 516.9835 146.930085 
L 517.185857 147.478553 
L 517.590571 165.620191 
L 517.792928 169.965746 
L 517.995286 180.935108 
L 518.4 221.585033 
L 518.4 221.585033 
" clip-path="url(#p6188bc908b)" style="fill: none; stroke: #1f77b4; stroke-width: 1.5; stroke-linecap: square"/>
   </g>
   <g id="line2d_14">
    <path d="M 72 267.604502 
L 72.202357 267.604502 
L 72.607072 278.16283 
L 72.809429 276.555918 
L 73.011786 265.184933 
L 73.4165 234.727185 
L 73.821215 227.465675 
L 75.035358 162.293222 
L 75.237715 159.736956 
L 75.440073 160.435229 
L 75.64243 168.175586 
L 76.249501 208.631625 
L 76.856573 268.792006 
L 77.261287 283.59025 
L 77.463645 285.38535 
L 77.666002 277.613217 
L 78.273073 236.969863 
L 78.475431 234.184468 
L 79.082502 199.849952 
L 79.689574 164.134388 
L 80.094288 155.257122 
L 80.296646 161.070385 
L 81.106074 218.307779 
L 81.713146 268.459668 
L 81.915503 280.846923 
L 82.11786 284.764407 
L 82.320218 285.082943 
L 83.129646 264.991528 
L 83.534361 238.472795 
L 84.141432 223.753819 
L 84.34379 225.825844 
L 84.748504 240.376059 
L 85.153218 243.995781 
L 85.355576 246.320546 
L 85.962647 259.717177 
L 86.367362 287.418967 
L 86.569719 294.400735 
L 86.772076 296.605753 
L 86.974433 300.206873 
L 87.176791 299.828899 
L 87.581505 286.302652 
L 87.986219 273.370585 
L 88.390934 252.195247 
L 88.593291 249.663601 
L 88.795648 250.748472 
L 88.998005 249.743845 
L 89.200363 249.594897 
L 89.40272 248.505392 
L 89.605077 246.076763 
L 90.009791 230.070735 
L 90.212149 228.313773 
L 90.616863 235.986958 
L 90.81922 244.246824 
L 91.223935 279.853919 
L 91.426292 288.292632 
L 91.628649 288.5612 
L 91.831006 290.756811 
L 92.033364 290.839574 
L 92.235721 283.356456 
L 92.842792 248.622949 
L 93.04515 251.888822 
L 93.247507 253.175441 
L 93.652221 244.659131 
L 93.854578 246.64954 
L 94.056936 242.402819 
L 94.46165 238.093367 
L 94.664007 232.119924 
L 94.866364 232.197535 
L 95.473436 242.962895 
L 95.675793 251.14574 
L 96.080508 287.690848 
L 96.282865 296.000021 
L 96.485222 298.194639 
L 96.687579 296.234917 
L 96.889937 295.443732 
L 97.294651 270.627514 
L 97.699365 250.203608 
L 97.901723 253.817639 
L 98.508794 244.688363 
L 98.711151 243.196288 
L 99.318223 232.407873 
L 99.52058 227.583499 
L 99.722937 226.616852 
L 100.330009 242.998439 
L 100.532366 251.803624 
L 100.937081 286.81403 
L 101.341795 297.768357 
L 101.544152 298.183868 
L 101.74651 296.298917 
L 102.151224 271.9196 
L 102.555938 249.884047 
L 102.758296 254.836524 
L 102.960653 252.684249 
L 103.16301 246.879239 
L 103.365367 247.901532 
L 103.567724 244.243492 
L 104.174796 226.520489 
L 104.377153 220.815973 
L 104.57951 220.540179 
L 105.388939 250.750606 
L 105.996011 293.218716 
L 106.198368 297.128209 
L 106.603083 295.792 
L 106.80544 287.372741 
L 107.210154 256.638167 
L 107.412511 249.705174 
L 107.614869 252.380092 
L 107.817226 252.170801 
L 108.424297 234.138104 
L 108.829012 206.304395 
L 109.031369 204.421415 
L 109.233726 205.182192 
L 110.043155 236.530195 
L 110.447869 261.46732 
L 110.852584 289.634205 
L 111.054941 297.075595 
L 111.257298 296.459855 
L 111.459655 293.131083 
L 111.662013 286.45039 
L 112.269084 247.905665 
L 112.471442 247.55616 
L 112.673799 242.170009 
L 113.078513 217.880671 
L 113.887942 180.842148 
L 114.090299 177.642263 
L 114.292656 178.775525 
L 114.697371 202.698281 
L 115.102085 232.668607 
L 115.709157 275.843414 
L 116.113871 286.587676 
L 116.316228 290.717801 
L 116.9233 272.209141 
L 117.125657 262.931038 
L 118.542158 160.65786 
L 118.946872 147.29414 
L 119.149229 148.151498 
L 119.351587 156.499669 
L 119.958658 202.131876 
L 120.363373 243.991917 
L 120.970444 274.731041 
L 121.172801 279.853522 
L 121.375159 279.119149 
L 121.577516 276.913542 
L 121.779873 271.39954 
L 121.98223 261.529098 
L 122.589302 220.020454 
L 123.398731 192.664572 
L 123.601088 190.473775 
L 124.005802 195.812661 
L 124.815231 237.752987 
L 125.422303 287.156793 
L 125.827017 293.496627 
L 126.029374 292.14773 
L 126.231732 284.213224 
L 126.838803 240.512198 
L 127.04116 237.590339 
L 127.243518 232.521315 
L 128.457661 158.181813 
L 128.660018 152.902912 
L 128.862375 157.149735 
L 129.26709 188.45804 
L 130.076519 266.7936 
L 130.278876 277.907109 
L 130.68359 285.165846 
L 130.885947 284.838013 
L 131.088305 276.75147 
L 131.695376 231.148361 
L 132.100091 211.32692 
L 133.111877 147.976284 
L 133.516591 139.688852 
L 133.718948 144.774687 
L 134.32602 177.92669 
L 134.933092 249.166096 
L 135.337806 269.859429 
L 135.540163 272.488121 
L 135.74252 272.723735 
L 135.944878 264.084613 
L 136.956664 197.056097 
L 137.159021 202.356868 
L 137.766092 191.503111 
L 137.96845 193.647303 
L 138.170807 199.476902 
L 138.373164 199.798794 
L 138.575521 198.900552 
L 138.980236 210.352671 
L 139.587307 255.91823 
L 139.789665 277.947555 
L 140.194379 291.58536 
L 140.396736 292.277487 
L 140.599093 290.720287 
L 140.801451 280.638639 
L 141.408522 234.25701 
L 141.610879 230.085425 
L 141.813237 228.501396 
L 142.015594 216.365332 
L 142.217951 218.885401 
L 142.420308 219.163202 
L 142.825023 211.778038 
L 143.02738 215.934157 
L 143.229737 217.088655 
L 143.432094 220.265472 
L 143.836809 231.893743 
L 144.039166 236.14522 
L 144.44388 263.427376 
L 144.848595 287.543271 
L 145.050952 292.913367 
L 145.253309 293.037248 
L 145.455666 289.179914 
L 145.658024 279.327516 
L 146.265095 235.779821 
L 146.467452 233.2027 
L 146.872167 222.555319 
L 147.074524 220.854267 
L 147.276881 222.147219 
L 147.681596 209.977705 
L 148.08631 228.929552 
L 148.491024 237.458454 
L 149.098096 255.438584 
L 149.907525 296.553901 
L 150.109882 296.275901 
L 150.312239 292.5923 
L 151.324025 254.741035 
L 151.72874 233.264436 
L 151.931097 232.712219 
L 152.133454 228.957154 
L 152.335811 230.628026 
L 152.538169 238.807639 
L 152.740526 242.304543 
L 152.942883 241.015716 
L 153.347597 240.225848 
L 153.752312 242.932702 
L 153.954669 247.340565 
L 154.561741 281.300784 
L 154.966455 289.521531 
L 155.168812 293.16928 
L 155.37117 290.565412 
L 155.978241 270.156871 
L 156.990027 193.364522 
L 157.799456 159.420048 
L 158.001813 156.177186 
L 158.20417 161.866247 
L 158.811242 203.033203 
L 159.215956 252.613327 
L 159.418314 264.824164 
L 160.025385 277.871546 
L 160.227743 273.035363 
L 160.4301 262.275197 
L 161.239529 201.076967 
L 161.644243 186.476845 
L 161.8466 184.155222 
L 162.048957 175.380049 
L 162.251315 172.239115 
L 162.453672 172.526144 
L 162.656029 175.467522 
L 163.060743 196.558006 
L 163.465458 217.637863 
L 164.477244 290.011154 
L 164.679601 292.1861 
L 164.881958 289.214593 
L 165.286673 262.54383 
L 165.691387 232.45367 
L 166.298459 222.556867 
L 166.703173 204.53163 
L 167.107888 177.277642 
L 167.512602 168.494128 
L 167.714959 176.095206 
L 168.119674 202.10273 
L 168.524388 228.638007 
L 169.13146 275.310469 
L 169.333817 283.172804 
L 169.536174 285.960382 
L 169.738531 285.052089 
L 169.940888 275.267357 
L 170.54796 224.723016 
L 170.952675 199.095197 
L 171.357389 176.689654 
L 171.964461 158.680209 
L 172.369175 153.132086 
L 172.571532 159.060881 
L 173.178604 201.173218 
L 173.988033 276.551055 
L 174.19039 283.287483 
L 174.392747 286.083289 
L 174.595104 284.729651 
L 174.797461 278.367782 
L 175.404533 233.50564 
L 176.011605 206.825694 
L 176.618676 179.911191 
L 177.023391 168.81672 
L 177.225748 165.253278 
L 177.428105 167.917238 
L 177.630462 178.046047 
L 177.83282 195.014756 
L 178.035177 202.371357 
L 178.642248 269.346905 
L 179.046963 286.256529 
L 179.24932 287.439286 
L 179.451677 290.575818 
L 179.856392 268.940769 
L 180.261106 239.164404 
L 180.463463 233.472752 
L 181.070535 191.282037 
L 181.677607 159.601823 
L 182.082321 150.19008 
L 182.284678 151.922442 
L 182.689393 175.928963 
L 183.701179 256.676107 
L 184.105893 268.969456 
L 184.30825 272.122315 
L 184.510607 271.456575 
L 184.915322 258.296404 
L 185.117679 243.422155 
L 185.724751 173.547419 
L 186.129465 150.376501 
L 186.53418 139.077046 
L 186.736537 142.753201 
L 186.938894 148.726145 
L 187.748323 198.622201 
L 188.760109 262.620812 
L 189.164823 271.312785 
L 189.36718 268.222242 
L 189.771895 257.049045 
L 190.176609 225.702264 
L 190.986038 162.659713 
L 191.390752 150.953276 
L 191.59311 153.274665 
L 191.997824 167.330531 
L 193.616682 268.151282 
L 193.819039 274.450253 
L 194.021396 276.454548 
L 194.223753 272.489422 
L 194.830825 250.43009 
L 195.640254 189.458444 
L 195.842611 186.724992 
L 196.044968 189.622563 
L 196.449683 205.325507 
L 196.854397 208.865977 
L 197.259112 225.710219 
L 197.461469 230.061099 
L 197.663826 239.879862 
L 198.06854 276.486247 
L 198.270898 284.794478 
L 198.473255 285.144976 
L 198.675612 288.820516 
L 198.877969 287.393752 
L 199.080326 278.588471 
L 200.092112 210.4574 
L 200.496827 196.504308 
L 200.699184 191.70921 
L 201.103898 174.778893 
L 201.508613 166.480299 
L 201.71097 169.521618 
L 202.318042 200.502934 
L 202.722756 237.035799 
L 203.127471 269.923251 
L 203.329828 276.668695 
L 203.532185 278.702632 
L 203.734542 277.081303 
L 203.936899 267.958659 
L 204.746328 204.17734 
L 205.960471 163.547834 
L 206.162829 165.541018 
L 206.365186 169.220402 
L 206.567543 175.534771 
L 206.972257 195.312164 
L 207.174615 202.583741 
L 208.186401 278.44438 
L 208.388758 279.881031 
L 208.591115 277.096541 
L 208.793472 267.932752 
L 209.400544 215.021855 
L 210.41233 175.648784 
L 210.817044 147.559139 
L 211.221759 133.963907 
L 211.424116 140.034506 
L 212.435902 222.230769 
L 212.840617 255.564253 
L 213.042974 265.449939 
L 213.245331 269.382391 
L 213.447688 269.543809 
L 213.650045 260.006448 
L 214.459474 195.553353 
L 215.268903 139.126379 
L 215.673617 117.681102 
L 216.078332 110.122213 
L 216.280689 115.622899 
L 216.483046 125.281693 
L 217.090118 179.158652 
L 217.697189 239.213846 
L 217.899547 250.291099 
L 218.304261 256.444768 
L 218.506618 253.936388 
L 218.911333 245.095467 
L 219.11369 233.301727 
L 219.720762 178.456406 
L 220.327833 149.847022 
L 220.53019 148.02422 
L 220.732548 154.644938 
L 221.339619 194.882404 
L 221.744334 215.608196 
L 221.946691 222.506396 
L 222.75612 270.010313 
L 222.958477 275.302651 
L 223.160834 276.976293 
L 223.363191 273.022438 
L 223.970263 252.685043 
L 224.577335 212.669382 
L 224.779692 210.560001 
L 224.982049 210.797662 
L 225.184406 213.071309 
L 225.791478 233.809284 
L 225.993835 235.756436 
L 226.196192 240.279936 
L 226.600907 251.672611 
L 226.803264 258.646543 
L 227.410335 298.87447 
L 227.612693 300.237432 
L 227.81505 300.663086 
L 228.017407 299.068388 
L 228.219764 289.657003 
L 228.826836 246.922331 
L 229.029193 244.578989 
L 229.23155 245.492254 
L 229.433908 241.800573 
L 230.850408 187.925382 
L 231.052765 191.667027 
L 231.255122 200.263477 
L 231.659837 230.038299 
L 232.266908 283.369643 
L 232.469266 287.706323 
L 232.671623 289.31563 
L 232.87398 288.957488 
L 233.076337 283.898789 
L 233.683409 244.785062 
L 233.885766 241.216651 
L 234.088123 234.480397 
L 234.492838 211.196572 
L 235.302267 181.598981 
L 235.504624 181.235444 
L 235.706981 184.233547 
L 236.51641 232.717127 
L 237.123481 281.770409 
L 237.325839 287.642482 
L 237.528196 289.411362 
L 237.730553 288.594002 
L 237.93291 281.339167 
L 238.539982 240.170482 
L 238.944696 228.219791 
L 239.349411 210.16924 
L 239.956482 193.67211 
L 240.15884 194.359376 
L 240.361197 193.562874 
L 240.563554 197.11151 
L 240.968268 220.704716 
L 242.182412 292.127328 
L 242.384769 293.544153 
L 242.587126 293.52186 
L 242.789483 286.698344 
L 243.396555 244.557017 
L 243.598912 241.185173 
L 243.801269 235.702213 
L 244.813055 186.980267 
L 245.21777 179.260157 
L 245.420127 179.566377 
L 246.027199 213.331032 
L 246.836627 277.857263 
L 247.241342 288.904977 
L 247.443699 289.377081 
L 247.646056 283.176597 
L 248.455485 230.890728 
L 248.860199 197.78216 
L 249.669628 148.648951 
L 249.871985 144.883017 
L 250.074343 147.049428 
L 250.2767 150.601567 
L 250.883772 191.160395 
L 251.895558 266.778279 
L 252.097915 271.16533 
L 252.300272 272.311466 
L 252.502629 270.866318 
L 252.907344 257.057811 
L 253.109701 244.78439 
L 253.91913 164.016555 
L 254.323844 147.28283 
L 254.526201 142.604624 
L 254.930916 140.667086 
L 255.133273 143.179323 
L 255.740345 188.247846 
L 256.549773 256.216312 
L 256.954488 270.403384 
L 257.156845 274.354021 
L 257.359202 274.388636 
L 257.561559 271.365342 
L 257.763917 265.47682 
L 258.168631 232.55329 
L 258.573345 199.306643 
L 259.180417 170.478789 
L 259.382774 165.025251 
L 259.787489 162.607214 
L 259.989846 165.918851 
L 260.39456 185.36343 
L 260.799275 215.56831 
L 261.406346 269.560931 
L 261.608704 272.240026 
L 261.811061 277.073716 
L 262.013418 278.642565 
L 262.215775 275.109906 
L 263.025204 223.346119 
L 263.227561 220.158346 
L 263.429918 219.704384 
L 263.632276 221.69792 
L 263.834633 226.573014 
L 264.03699 227.54859 
L 264.239347 227.689852 
L 264.644062 233.42595 
L 264.846419 233.469761 
L 265.048776 238.56622 
L 265.45349 252.610848 
L 265.655848 260.058447 
L 266.262919 297.541817 
L 266.465277 301.782969 
L 266.667634 300.822421 
L 266.869991 297.181624 
L 267.881777 246.03221 
L 268.084134 241.82845 
L 268.286491 233.638303 
L 269.09592 219.131353 
L 269.298277 219.929485 
L 269.500635 218.806971 
L 269.702992 220.361469 
L 270.512421 243.229138 
L 271.119492 283.835064 
L 271.32185 288.048176 
L 271.524207 288.897627 
L 271.726564 288.439408 
L 271.928921 283.532907 
L 272.535993 243.498289 
L 272.73835 241.239168 
L 273.547779 187.464117 
L 273.952493 156.892137 
L 274.559565 143.313533 
L 274.761922 148.58479 
L 275.368994 189.452667 
L 275.976065 251.707963 
L 276.178422 259.374285 
L 276.583137 262.034631 
L 276.785494 258.225618 
L 277.594923 192.357827 
L 277.999637 160.244579 
L 278.606709 130.691761 
L 278.809066 129.140482 
L 279.011423 124.895254 
L 279.213781 123.816643 
L 279.416138 126.358299 
L 279.820852 152.332385 
L 280.630281 240.750374 
L 281.034995 269.693821 
L 281.43971 274.758107 
L 281.642067 270.912044 
L 282.249139 229.720032 
L 282.85621 190.051166 
L 283.463282 170.797928 
L 283.665639 159.182878 
L 283.867996 154.753959 
L 284.070354 154.782691 
L 284.272711 155.566033 
L 284.677425 188.322996 
L 285.891568 279.569063 
L 286.296283 286.576968 
L 286.49864 286.610725 
L 287.105712 257.733291 
L 287.915141 190.832643 
L 288.522212 163.547559 
L 288.926927 155.583161 
L 289.129284 157.063622 
L 289.533998 180.214733 
L 290.545784 257.757557 
L 291.152856 275.638462 
L 291.355213 276.515005 
L 291.759927 265.642357 
L 292.164642 226.593833 
L 292.771714 168.709448 
L 293.378785 135.505395 
L 293.581142 133.846056 
L 293.985857 134.910384 
L 294.188214 144.167296 
L 294.997643 206.290669 
L 295.402357 246.931693 
L 296.009429 260.692225 
L 296.211786 256.96006 
L 296.6165 227.065684 
L 297.830644 94.104458 
L 298.033001 82.315047 
L 298.235358 78.335716 
L 298.437715 80.030977 
L 298.84243 88.345475 
L 299.247144 112.511171 
L 299.651859 151.084917 
L 300.056573 206.921723 
L 300.25893 223.28383 
L 300.663645 232.057927 
L 300.866002 231.838753 
L 301.068359 229.071042 
L 301.473073 203.99623 
L 301.675431 189.076647 
L 302.687217 78.626064 
L 302.889574 70.761851 
L 303.091931 72.836913 
L 303.496646 96.903225 
L 303.699003 104.033512 
L 304.306074 157.364286 
L 305.115503 234.134013 
L 305.31786 238.862262 
L 305.520218 239.506331 
L 305.722575 239.011902 
L 305.924932 233.760907 
L 306.734361 188.112082 
L 307.341432 144.050919 
L 307.948504 109.437762 
L 308.150861 106.711172 
L 308.555576 124.590931 
L 309.162647 165.750436 
L 309.972076 247.080205 
L 310.174433 255.110609 
L 310.376791 258.25847 
L 310.781505 250.260239 
L 311.186219 225.022483 
L 312.198005 134.644872 
L 312.60272 115.782946 
L 312.805077 114.973024 
L 313.007434 115.113861 
L 313.209791 118.705875 
L 313.412149 126.054488 
L 314.221578 188.300803 
L 314.626292 227.838699 
L 314.828649 241.860044 
L 315.233364 249.906365 
L 315.435721 250.358836 
L 315.840435 231.276929 
L 316.447507 196.787506 
L 317.459293 175.08701 
L 317.66165 172.669063 
L 317.864007 174.717372 
L 318.268722 176.666599 
L 318.673436 192.436924 
L 319.07815 216.029653 
L 319.685222 265.990151 
L 320.089937 280.053348 
L 320.292294 281.696002 
L 320.494651 278.259535 
L 320.899365 264.873882 
L 321.30408 237.658152 
L 321.911151 191.267031 
L 322.518223 160.732914 
L 322.922937 154.003137 
L 323.125295 155.789773 
L 323.530009 176.43624 
L 324.744152 262.523229 
L 324.94651 268.257574 
L 325.148867 270.809514 
L 325.351224 271.475247 
L 325.755938 259.799702 
L 326.160653 222.641257 
L 326.970082 145.235495 
L 327.172439 133.406484 
L 327.374796 129.292807 
L 327.981868 132.964899 
L 328.386582 156.830405 
L 329.600725 259.907019 
L 329.803083 263.290974 
L 330.207797 259.084077 
L 330.410154 250.280776 
L 331.624297 155.703627 
L 332.029012 137.468552 
L 332.231369 136.003752 
L 332.433726 138.643497 
L 332.838441 148.888389 
L 333.040798 158.330537 
L 333.647869 206.250143 
L 334.457298 271.891553 
L 334.862013 277.485933 
L 335.06437 271.543336 
L 335.671442 227.558389 
L 336.683228 184.369645 
L 336.885585 179.895934 
L 337.290299 177.323156 
L 337.492656 178.241817 
L 337.695014 182.066002 
L 338.504442 226.74642 
L 339.111514 274.788409 
L 339.313871 281.169739 
L 339.516228 282.663663 
L 339.718586 281.902613 
L 339.920943 273.139771 
L 340.528015 228.195137 
L 340.932729 207.219729 
L 341.337443 186.152731 
L 341.539801 181.907301 
L 342.146872 152.99544 
L 342.551587 148.946642 
L 342.753944 153.640028 
L 343.361015 191.968192 
L 343.968087 249.037383 
L 344.170444 256.971069 
L 344.372801 256.37318 
L 344.575159 257.353452 
L 344.777516 251.931094 
L 345.18223 223.046342 
L 346.194016 115.263937 
L 346.598731 97.417319 
L 346.801088 95.445883 
L 347.205802 101.227825 
L 347.40816 103.975945 
L 347.812874 128.250246 
L 348.217588 167.488476 
L 348.82466 236.737415 
L 349.027017 244.013806 
L 349.229374 247.123169 
L 349.431732 247.978367 
L 349.634089 245.678983 
L 350.038803 224.377774 
L 351.252947 115.674892 
L 351.657661 98.344829 
L 351.860018 96.604341 
L 352.264733 99.88096 
L 352.46709 109.247721 
L 352.871804 149.852898 
L 353.681233 237.141065 
L 354.085947 250.872174 
L 354.288305 252.931043 
L 354.490662 256.136126 
L 354.895376 246.792298 
L 355.300091 207.595969 
L 355.907162 134.924218 
L 356.311877 114.759947 
L 356.716591 105.742166 
L 357.121306 108.465564 
L 357.323663 118.903324 
L 358.133092 196.678526 
L 358.537806 232.660807 
L 359.144878 248.961022 
L 359.347235 251.44825 
L 359.549592 247.856722 
L 359.751949 241.641629 
L 359.954306 225.649448 
L 360.966092 107.401493 
L 361.16845 95.78716 
L 361.370807 91.375318 
L 361.573164 89.949054 
L 361.775521 90.864877 
L 361.977879 92.485231 
L 362.180236 101.892553 
L 362.787307 148.959285 
L 363.394379 222.348341 
L 363.799093 232.050474 
L 364.001451 232.914816 
L 364.203808 230.74622 
L 364.608522 203.780766 
L 364.810879 186.224584 
L 365.620308 79.131994 
L 365.822665 66.105169 
L 366.025023 60.480415 
L 366.22738 60.962496 
L 366.429737 64.741175 
L 367.036809 88.992402 
L 367.64388 145.242671 
L 368.048595 202.802558 
L 368.250952 218.265729 
L 368.655666 228.44829 
L 368.858024 230.407515 
L 369.060381 229.19124 
L 369.262738 221.68464 
L 369.86981 175.824555 
L 370.476881 106.140549 
L 370.881596 82.900267 
L 371.083953 78.377046 
L 371.28631 81.284206 
L 371.691024 93.024649 
L 372.095739 121.889697 
L 372.500453 159.531107 
L 372.905168 205.646815 
L 373.107525 221.448572 
L 373.512239 232.260526 
L 373.714597 233.027507 
L 373.916954 232.650992 
L 374.321668 223.722086 
L 374.726383 196.842328 
L 375.333454 122.746042 
L 375.738169 102.624024 
L 375.940526 97.185961 
L 376.142883 95.396749 
L 376.34524 96.976004 
L 376.547597 101.240192 
L 377.154669 156.121771 
L 377.964098 220.53045 
L 378.166455 231.437956 
L 378.368812 233.720466 
L 378.57117 231.970357 
L 378.773527 227.308672 
L 378.975884 218.476588 
L 379.582956 163.413816 
L 380.190027 103.426365 
L 380.594742 82.717979 
L 380.797099 79.323458 
L 380.999456 79.192279 
L 381.201813 79.910114 
L 381.40417 81.874988 
L 381.606528 90.268122 
L 382.213599 146.795937 
L 382.618314 201.446992 
L 383.023028 223.745621 
L 383.225385 227.618804 
L 383.427743 229.281872 
L 383.6301 225.5148 
L 384.237171 191.62166 
L 384.237171 191.62166 
" clip-path="url(#p6188bc908b)" style="fill: none; stroke: #ff7f0e; stroke-width: 1.5; stroke-linecap: square"/>
   </g>
   <g id="line2d_15">
    <path d="M 384.439529 174.79538 
L 385.248957 121.169298 
L 385.856029 73.141448 
L 386.058386 64.523927 
L 386.260743 61.117769 
L 386.463101 65.096524 
L 386.867815 90.67349 
L 387.272529 141.5684 
L 387.879601 231.014686 
L 388.081958 247.9736 
L 388.284316 254.827841 
L 388.486673 252.825924 
L 388.891387 236.606851 
L 391.117316 101.399438 
L 391.522031 86.349203 
L 391.724388 83.870811 
L 391.926745 86.124496 
L 392.129102 94.586821 
L 392.533817 126.196798 
L 393.545603 222.513175 
L 393.74796 230.626616 
L 393.950317 234.206299 
L 394.152675 234.037869 
L 394.355032 229.898214 
L 394.962103 198.880282 
L 395.366818 170.602011 
L 396.580961 61.126074 
L 396.783318 57.523185 
L 396.985675 60.924229 
L 397.188033 71.079625 
L 397.592747 106.288568 
L 398.80689 245.916435 
L 399.009248 246.135702 
L 399.211605 241.114601 
L 399.616319 219.673915 
L 401.639891 106.937533 
L 402.044606 89.633216 
L 402.246963 84.304155 
L 402.44932 82.525132 
L 402.651677 87.136819 
L 403.056392 114.569426 
L 403.461106 155.911956 
L 403.86582 201.977369 
L 404.270535 231.338107 
L 404.472892 238.615701 
L 404.675249 241.035558 
L 404.877607 239.115612 
L 405.079964 233.139965 
L 405.889393 185.155393 
L 406.698821 108.360336 
L 407.103536 72.419409 
L 407.305893 63.079311 
L 407.50825 60.461641 
L 407.710607 64.833293 
L 408.115322 90.835811 
L 408.520036 136.788375 
L 409.127108 219.252357 
L 409.531822 242.472978 
L 409.73418 242.124755 
L 409.936537 237.567386 
L 410.341251 216.150324 
L 411.353037 160.336235 
L 412.364823 100.660233 
L 412.769538 84.134606 
L 412.971895 79.885957 
L 413.174252 80.628718 
L 413.376609 87.981143 
L 413.781324 119.556101 
L 414.186038 164.680046 
L 414.590752 210.0639 
L 414.995467 237.088727 
L 415.197824 241.430894 
L 415.400181 241.50096 
L 415.602539 237.174453 
L 416.007253 216.321694 
L 416.614325 179.364693 
L 418.030825 65.941399 
L 418.233182 63.911243 
L 418.435539 68.724723 
L 418.840254 94.735802 
L 419.244968 142.058337 
L 419.85204 220.436886 
L 420.256754 241.317925 
L 420.459112 241.165366 
L 420.661469 236.706664 
L 421.066183 215.742453 
L 422.077969 157.890056 
L 423.089755 94.059604 
L 423.49447 79.470952 
L 423.696827 77.283844 
L 423.899184 81.020616 
L 424.101541 91.09066 
L 424.506256 127.000868 
L 425.518042 232.468304 
L 425.720399 239.916834 
L 425.922756 241.666382 
L 426.125113 239.250771 
L 426.327471 233.030099 
L 427.136899 186.622705 
L 427.946328 118.680154 
L 428.5534 73.153341 
L 428.755757 67.068344 
L 428.958114 66.716686 
L 429.160471 73.068464 
L 429.565186 101.202566 
L 430.172257 178.6623 
L 430.576972 224.639645 
L 430.779329 236.677746 
L 430.981686 241.499646 
L 431.184044 240.492424 
L 431.386401 235.237255 
L 432.19583 193.597285 
L 432.802901 153.831358 
L 433.814687 88.036404 
L 434.219402 76.316478 
L 434.421759 76.940862 
L 434.624116 83.688626 
L 435.02883 114.75097 
L 436.242974 236.698943 
L 436.445331 240.82596 
L 436.647688 240.070793 
L 436.850045 235.608811 
L 437.25476 214.721375 
L 437.861831 179.280809 
L 439.278332 71.583607 
L 439.480689 67.454347 
L 439.683046 69.390643 
L 440.087761 90.796301 
L 440.492475 133.984309 
L 441.301904 229.953673 
L 441.504261 239.088344 
L 441.706618 241.596108 
L 441.908976 239.218274 
L 442.111333 232.696439 
L 443.123119 177.150499 
L 444.337262 92.830673 
L 444.741976 77.098032 
L 444.944334 74.932249 
L 445.146691 78.709365 
L 445.349048 87.934764 
L 445.753762 124.24117 
L 446.765549 232.501813 
L 446.967906 239.930291 
L 447.170263 241.34568 
L 447.37262 238.365171 
L 447.574977 232.03431 
L 448.586763 171.681371 
L 449.800907 77.354586 
L 450.003264 70.469273 
L 450.205621 68.452073 
L 450.407978 73.125365 
L 450.812693 98.447122 
L 451.419764 172.492202 
L 451.824479 220.687348 
L 452.229193 241.10273 
L 452.43155 241.366999 
L 452.633908 237.152881 
L 453.038622 217.586539 
L 454.050408 156.370283 
L 455.062194 86.883507 
L 455.466908 74.727842 
L 455.669266 75.480407 
L 455.871623 82.428836 
L 456.276337 112.975573 
L 457.490481 236.540197 
L 457.692838 240.652598 
L 457.895195 239.647324 
L 458.097552 234.851345 
L 458.502267 213.852238 
L 459.109338 178.932765 
L 460.525839 73.714481 
L 460.728196 69.196808 
L 460.930553 70.160611 
L 461.13291 77.751687 
L 461.537625 108.004321 
L 462.751768 237.773171 
L 462.954125 241.342457 
L 463.156482 239.783995 
L 463.35884 234.016001 
L 464.168268 191.473925 
L 464.77534 149.949232 
L 465.584769 91.968471 
L 465.989483 75.741318 
L 466.19184 73.681673 
L 466.394198 77.550624 
L 466.596555 86.920749 
L 467.001269 123.267146 
L 468.013055 233.223799 
L 468.215413 240.327328 
L 468.41777 241.437401 
L 468.620127 238.109008 
L 468.822484 231.441155 
L 469.83427 171.362944 
L 471.048413 79.393059 
L 471.250771 72.212836 
L 471.453128 69.724884 
L 471.655485 73.657926 
L 472.060199 97.793134 
L 472.667271 170.31295 
L 473.071985 218.616001 
L 473.4767 240.476718 
L 473.679057 241.414814 
L 473.881414 237.757389 
L 474.286129 219.305217 
L 475.500272 142.497519 
L 476.309701 85.738467 
L 476.714415 73.553351 
L 476.916772 74.656318 
L 477.11913 81.910974 
L 477.523844 112.726735 
L 478.53563 227.238506 
L 478.737987 237.006054 
L 478.940345 240.790987 
L 479.142702 239.45852 
L 479.345059 234.275876 
L 479.952131 202.291552 
L 480.356845 178.328213 
L 481.773345 75.055086 
L 481.975703 70.340913 
L 482.17806 70.869617 
L 482.380417 78.051134 
L 482.785131 107.653433 
L 483.999275 237.127282 
L 484.201632 241.221825 
L 484.403989 240.031482 
L 484.606346 234.653329 
L 485.213418 202.78563 
L 485.618132 179.965606 
L 487.034633 80.939468 
L 487.23699 74.755574 
L 487.439347 72.863262 
L 487.641704 76.978015 
L 487.844062 86.671603 
L 488.248776 123.269261 
L 489.260562 233.748202 
L 489.462919 240.553355 
L 489.665277 241.377316 
L 489.867634 237.775625 
L 490.069991 230.849481 
L 491.081777 170.868996 
L 492.29592 80.396424 
L 492.498277 73.142576 
L 492.700635 70.505977 
L 492.902992 74.08458 
L 493.307706 97.710717 
L 493.914778 169.484062 
L 494.319492 217.882661 
L 494.724207 240.274746 
L 494.926564 241.464557 
L 495.128921 238.028257 
L 495.533636 220.028112 
L 496.950136 126.2487 
L 497.557208 84.962206 
L 497.961922 72.923443 
L 498.164279 74.32282 
L 498.366636 81.896902 
L 498.771351 113.016641 
L 499.783137 227.917236 
L 499.985494 237.363241 
L 500.187851 240.847888 
L 500.390209 239.258534 
L 500.592566 233.799422 
L 501.199637 201.741252 
L 501.604352 177.652464 
L 503.020852 75.569667 
L 503.223209 70.884957 
L 503.425567 71.338395 
L 503.627924 78.434882 
L 504.032638 107.971949 
L 505.246782 236.984892 
L 505.449139 241.184955 
L 505.651496 240.061105 
L 505.853853 234.770335 
L 506.460925 202.937627 
L 506.865639 180.048554 
L 508.28214 80.215213 
L 508.484497 74.162293 
L 508.686854 72.480091 
L 508.889211 76.910964 
L 509.091568 86.862426 
L 509.496283 123.886661 
L 510.508069 234.126673 
L 510.710426 240.679338 
L 510.912783 241.281629 
L 511.115141 237.473624 
L 511.317498 230.339999 
L 512.329284 170.283936 
L 513.543427 80.619593 
L 513.745784 73.451173 
L 513.948141 70.854289 
L 514.150499 74.40821 
L 514.555213 98.049918 
L 515.162285 169.746703 
L 515.566999 217.867355 
L 515.971714 240.247974 
L 516.174071 241.463574 
L 516.376428 238.061475 
L 516.781142 220.155753 
L 518.197643 125.999144 
L 518.4 110.355352 
L 518.4 110.355352 
" clip-path="url(#p6188bc908b)" style="fill: none; stroke: #2ca02c; stroke-width: 1.5; stroke-linecap: square"/>
   </g>
   <g id="patch_3">
    <path d="M 72 320.4 
L 72 43.2 
" style="fill: none; stroke: #000000; stroke-width: 0.8; stroke-linejoin: miter; stroke-linecap: square"/>
   </g>
   <g id="patch_4">
    <path d="M 518.4 320.4 
L 518.4 43.2 
" style="fill: none; stroke: #000000; stroke-width: 0.8; stroke-linejoin: miter; stroke-linecap: square"/>
   </g>
   <g id="patch_5">
    <path d="M 72 320.4 
L 518.4 320.4 
" style="fill: none; stroke: #000000; stroke-width: 0.8; stroke-linejoin: miter; stroke-linecap: square"/>
   </g>
   <g id="patch_6">
    <path d="M 72 43.2 
L 518.4 43.2 
" style="fill: none; stroke: #000000; stroke-width: 0.8; stroke-linejoin: miter; stroke-linecap: square"/>
   </g>
   <g id="text_13">
    <!-- Classic Transformer - model_20231126193409 -->
    <g transform="translate(155.436563 37.2) scale(0.12 -0.12)">
     <defs>
      <path id="DejaVuSans-43" d="M 4122 4306 
L 4122 3641 
Q 3803 3938 3442 4084 
Q 3081 4231 2675 4231 
Q 1875 4231 1450 3742 
Q 1025 3253 1025 2328 
Q 1025 1406 1450 917 
Q 1875 428 2675 428 
Q 3081 428 3442 575 
Q 3803 722 4122 1019 
L 4122 359 
Q 3791 134 3420 21 
Q 3050 -91 2638 -91 
Q 1578 -91 968 557 
Q 359 1206 359 2328 
Q 359 3453 968 4101 
Q 1578 4750 2638 4750 
Q 3056 4750 3426 4639 
Q 3797 4528 4122 4306 
z
" transform="scale(0.015625)"/>
      <path id="DejaVuSans-6c" d="M 603 4863 
L 1178 4863 
L 1178 0 
L 603 0 
L 603 4863 
z
" transform="scale(0.015625)"/>
      <path id="DejaVuSans-61" d="M 2194 1759 
Q 1497 1759 1228 1600 
Q 959 1441 959 1056 
Q 959 750 1161 570 
Q 1363 391 1709 391 
Q 2188 391 2477 730 
Q 2766 1069 2766 1631 
L 2766 1759 
L 2194 1759 
z
M 3341 1997 
L 3341 0 
L 2766 0 
L 2766 531 
Q 2569 213 2275 61 
Q 1981 -91 1556 -91 
Q 1019 -91 701 211 
Q 384 513 384 1019 
Q 384 1609 779 1909 
Q 1175 2209 1959 2209 
L 2766 2209 
L 2766 2266 
Q 2766 2663 2505 2880 
Q 2244 3097 1772 3097 
Q 1472 3097 1187 3025 
Q 903 2953 641 2809 
L 641 3341 
Q 956 3463 1253 3523 
Q 1550 3584 1831 3584 
Q 2591 3584 2966 3190 
Q 3341 2797 3341 1997 
z
" transform="scale(0.015625)"/>
      <path id="DejaVuSans-73" d="M 2834 3397 
L 2834 2853 
Q 2591 2978 2328 3040 
Q 2066 3103 1784 3103 
Q 1356 3103 1142 2972 
Q 928 2841 928 2578 
Q 928 2378 1081 2264 
Q 1234 2150 1697 2047 
L 1894 2003 
Q 2506 1872 2764 1633 
Q 3022 1394 3022 966 
Q 3022 478 2636 193 
Q 2250 -91 1575 -91 
Q 1294 -91 989 -36 
Q 684 19 347 128 
L 347 722 
Q 666 556 975 473 
Q 1284 391 1588 391 
Q 1994 391 2212 530 
Q 2431 669 2431 922 
Q 2431 1156 2273 1281 
Q 2116 1406 1581 1522 
L 1381 1569 
Q 847 1681 609 1914 
Q 372 2147 372 2553 
Q 372 3047 722 3315 
Q 1072 3584 1716 3584 
Q 2034 3584 2315 3537 
Q 2597 3491 2834 3397 
z
" transform="scale(0.015625)"/>
      <path id="DejaVuSans-69" d="M 603 3500 
L 1178 3500 
L 1178 0 
L 603 0 
L 603 3500 
z
M 603 4863 
L 1178 4863 
L 1178 4134 
L 603 4134 
L 603 4863 
z
" transform="scale(0.015625)"/>
      <path id="DejaVuSans-63" d="M 3122 3366 
L 3122 2828 
Q 2878 2963 2633 3030 
Q 2388 3097 2138 3097 
Q 1578 3097 1268 2742 
Q 959 2388 959 1747 
Q 959 1106 1268 751 
Q 1578 397 2138 397 
Q 2388 397 2633 464 
Q 2878 531 3122 666 
L 3122 134 
Q 2881 22 2623 -34 
Q 2366 -91 2075 -91 
Q 1284 -91 818 406 
Q 353 903 353 1747 
Q 353 2603 823 3093 
Q 1294 3584 2113 3584 
Q 2378 3584 2631 3529 
Q 2884 3475 3122 3366 
z
" transform="scale(0.015625)"/>
      <path id="DejaVuSans-20" transform="scale(0.015625)"/>
      <path id="DejaVuSans-54" d="M -19 4666 
L 3928 4666 
L 3928 4134 
L 2272 4134 
L 2272 0 
L 1638 0 
L 1638 4134 
L -19 4134 
L -19 4666 
z
" transform="scale(0.015625)"/>
      <path id="DejaVuSans-72" d="M 2631 2963 
Q 2534 3019 2420 3045 
Q 2306 3072 2169 3072 
Q 1681 3072 1420 2755 
Q 1159 2438 1159 1844 
L 1159 0 
L 581 0 
L 581 3500 
L 1159 3500 
L 1159 2956 
Q 1341 3275 1631 3429 
Q 1922 3584 2338 3584 
Q 2397 3584 2469 3576 
Q 2541 3569 2628 3553 
L 2631 2963 
z
" transform="scale(0.015625)"/>
      <path id="DejaVuSans-6e" d="M 3513 2113 
L 3513 0 
L 2938 0 
L 2938 2094 
Q 2938 2591 2744 2837 
Q 2550 3084 2163 3084 
Q 1697 3084 1428 2787 
Q 1159 2491 1159 1978 
L 1159 0 
L 581 0 
L 581 3500 
L 1159 3500 
L 1159 2956 
Q 1366 3272 1645 3428 
Q 1925 3584 2291 3584 
Q 2894 3584 3203 3211 
Q 3513 2838 3513 2113 
z
" transform="scale(0.015625)"/>
      <path id="DejaVuSans-66" d="M 2375 4863 
L 2375 4384 
L 1825 4384 
Q 1516 4384 1395 4259 
Q 1275 4134 1275 3809 
L 1275 3500 
L 2222 3500 
L 2222 3053 
L 1275 3053 
L 1275 0 
L 697 0 
L 697 3053 
L 147 3053 
L 147 3500 
L 697 3500 
L 697 3744 
Q 697 4328 969 4595 
Q 1241 4863 1831 4863 
L 2375 4863 
z
" transform="scale(0.015625)"/>
      <path id="DejaVuSans-6f" d="M 1959 3097 
Q 1497 3097 1228 2736 
Q 959 2375 959 1747 
Q 959 1119 1226 758 
Q 1494 397 1959 397 
Q 2419 397 2687 759 
Q 2956 1122 2956 1747 
Q 2956 2369 2687 2733 
Q 2419 3097 1959 3097 
z
M 1959 3584 
Q 2709 3584 3137 3096 
Q 3566 2609 3566 1747 
Q 3566 888 3137 398 
Q 2709 -91 1959 -91 
Q 1206 -91 779 398 
Q 353 888 353 1747 
Q 353 2609 779 3096 
Q 1206 3584 1959 3584 
z
" transform="scale(0.015625)"/>
      <path id="DejaVuSans-6d" d="M 3328 2828 
Q 3544 3216 3844 3400 
Q 4144 3584 4550 3584 
Q 5097 3584 5394 3201 
Q 5691 2819 5691 2113 
L 5691 0 
L 5113 0 
L 5113 2094 
Q 5113 2597 4934 2840 
Q 4756 3084 4391 3084 
Q 3944 3084 3684 2787 
Q 3425 2491 3425 1978 
L 3425 0 
L 2847 0 
L 2847 2094 
Q 2847 2600 2669 2842 
Q 2491 3084 2119 3084 
Q 1678 3084 1418 2786 
Q 1159 2488 1159 1978 
L 1159 0 
L 581 0 
L 581 3500 
L 1159 3500 
L 1159 2956 
Q 1356 3278 1631 3431 
Q 1906 3584 2284 3584 
Q 2666 3584 2933 3390 
Q 3200 3197 3328 2828 
z
" transform="scale(0.015625)"/>
      <path id="DejaVuSans-65" d="M 3597 1894 
L 3597 1613 
L 953 1613 
Q 991 1019 1311 708 
Q 1631 397 2203 397 
Q 2534 397 2845 478 
Q 3156 559 3463 722 
L 3463 178 
Q 3153 47 2828 -22 
Q 2503 -91 2169 -91 
Q 1331 -91 842 396 
Q 353 884 353 1716 
Q 353 2575 817 3079 
Q 1281 3584 2069 3584 
Q 2775 3584 3186 3129 
Q 3597 2675 3597 1894 
z
M 3022 2063 
Q 3016 2534 2758 2815 
Q 2500 3097 2075 3097 
Q 1594 3097 1305 2825 
Q 1016 2553 972 2059 
L 3022 2063 
z
" transform="scale(0.015625)"/>
      <path id="DejaVuSans-64" d="M 2906 2969 
L 2906 4863 
L 3481 4863 
L 3481 0 
L 2906 0 
L 2906 525 
Q 2725 213 2448 61 
Q 2172 -91 1784 -91 
Q 1150 -91 751 415 
Q 353 922 353 1747 
Q 353 2572 751 3078 
Q 1150 3584 1784 3584 
Q 2172 3584 2448 3432 
Q 2725 3281 2906 2969 
z
M 947 1747 
Q 947 1113 1208 752 
Q 1469 391 1925 391 
Q 2381 391 2643 752 
Q 2906 1113 2906 1747 
Q 2906 2381 2643 2742 
Q 2381 3103 1925 3103 
Q 1469 3103 1208 2742 
Q 947 2381 947 1747 
z
" transform="scale(0.015625)"/>
      <path id="DejaVuSans-5f" d="M 3263 -1063 
L 3263 -1509 
L -63 -1509 
L -63 -1063 
L 3263 -1063 
z
" transform="scale(0.015625)"/>
      <path id="DejaVuSans-39" d="M 703 97 
L 703 672 
Q 941 559 1184 500 
Q 1428 441 1663 441 
Q 2288 441 2617 861 
Q 2947 1281 2994 2138 
Q 2813 1869 2534 1725 
Q 2256 1581 1919 1581 
Q 1219 1581 811 2004 
Q 403 2428 403 3163 
Q 403 3881 828 4315 
Q 1253 4750 1959 4750 
Q 2769 4750 3195 4129 
Q 3622 3509 3622 2328 
Q 3622 1225 3098 567 
Q 2575 -91 1691 -91 
Q 1453 -91 1209 -44 
Q 966 3 703 97 
z
M 1959 2075 
Q 2384 2075 2632 2365 
Q 2881 2656 2881 3163 
Q 2881 3666 2632 3958 
Q 2384 4250 1959 4250 
Q 1534 4250 1286 3958 
Q 1038 3666 1038 3163 
Q 1038 2656 1286 2365 
Q 1534 2075 1959 2075 
z
" transform="scale(0.015625)"/>
      <path id="DejaVuSans-34" d="M 2419 4116 
L 825 1625 
L 2419 1625 
L 2419 4116 
z
M 2253 4666 
L 3047 4666 
L 3047 1625 
L 3713 1625 
L 3713 1100 
L 3047 1100 
L 3047 0 
L 2419 0 
L 2419 1100 
L 313 1100 
L 313 1709 
L 2253 4666 
z
" transform="scale(0.015625)"/>
     </defs>
     <use xlink:href="#DejaVuSans-43"/>
     <use xlink:href="#DejaVuSans-6c" x="69.824219"/>
     <use xlink:href="#DejaVuSans-61" x="97.607422"/>
     <use xlink:href="#DejaVuSans-73" x="158.886719"/>
     <use xlink:href="#DejaVuSans-73" x="210.986328"/>
     <use xlink:href="#DejaVuSans-69" x="263.085938"/>
     <use xlink:href="#DejaVuSans-63" x="290.869141"/>
     <use xlink:href="#DejaVuSans-20" x="345.849609"/>
     <use xlink:href="#DejaVuSans-54" x="377.636719"/>
     <use xlink:href="#DejaVuSans-72" x="423.970703"/>
     <use xlink:href="#DejaVuSans-61" x="465.083984"/>
     <use xlink:href="#DejaVuSans-6e" x="526.363281"/>
     <use xlink:href="#DejaVuSans-73" x="589.742188"/>
     <use xlink:href="#DejaVuSans-66" x="641.841797"/>
     <use xlink:href="#DejaVuSans-6f" x="677.046875"/>
     <use xlink:href="#DejaVuSans-72" x="738.228516"/>
     <use xlink:href="#DejaVuSans-6d" x="777.591797"/>
     <use xlink:href="#DejaVuSans-65" x="875.003906"/>
     <use xlink:href="#DejaVuSans-72" x="936.527344"/>
     <use xlink:href="#DejaVuSans-20" x="977.640625"/>
     <use xlink:href="#DejaVuSans-2d" x="1009.427734"/>
     <use xlink:href="#DejaVuSans-20" x="1045.511719"/>
     <use xlink:href="#DejaVuSans-6d" x="1077.298828"/>
     <use xlink:href="#DejaVuSans-6f" x="1174.710938"/>
     <use xlink:href="#DejaVuSans-64" x="1235.892578"/>
     <use xlink:href="#DejaVuSans-65" x="1299.369141"/>
     <use xlink:href="#DejaVuSans-6c" x="1360.892578"/>
     <use xlink:href="#DejaVuSans-5f" x="1388.675781"/>
     <use xlink:href="#DejaVuSans-32" x="1438.675781"/>
     <use xlink:href="#DejaVuSans-30" x="1502.298828"/>
     <use xlink:href="#DejaVuSans-32" x="1565.921875"/>
     <use xlink:href="#DejaVuSans-33" x="1629.544922"/>
     <use xlink:href="#DejaVuSans-31" x="1693.167969"/>
     <use xlink:href="#DejaVuSans-31" x="1756.791016"/>
     <use xlink:href="#DejaVuSans-32" x="1820.414062"/>
     <use xlink:href="#DejaVuSans-36" x="1884.037109"/>
     <use xlink:href="#DejaVuSans-31" x="1947.660156"/>
     <use xlink:href="#DejaVuSans-39" x="2011.283203"/>
     <use xlink:href="#DejaVuSans-33" x="2074.90625"/>
     <use xlink:href="#DejaVuSans-34" x="2138.529297"/>
     <use xlink:href="#DejaVuSans-30" x="2202.152344"/>
     <use xlink:href="#DejaVuSans-39" x="2265.775391"/>
    </g>
   </g>
   <g id="legend_1">
    <g id="patch_7">
     <path d="M 79 95.234375 
L 161.517188 95.234375 
Q 163.517188 95.234375 163.517188 93.234375 
L 163.517188 50.2 
Q 163.517188 48.2 161.517188 48.2 
L 79 48.2 
Q 77 48.2 77 50.2 
L 77 93.234375 
Q 77 95.234375 79 95.234375 
z
" style="fill: #ffffff; opacity: 0.8; stroke: #cccccc; stroke-linejoin: miter"/>
    </g>
    <g id="line2d_16">
     <path d="M 81 56.298437 
L 91 56.298437 
L 101 56.298437 
" style="fill: none; stroke: #1f77b4; stroke-width: 1.5; stroke-linecap: square"/>
    </g>
    <g id="text_14">
     <!-- Measured -->
     <g transform="translate(109 59.798437) scale(0.1 -0.1)">
      <defs>
       <path id="DejaVuSans-4d" d="M 628 4666 
L 1569 4666 
L 2759 1491 
L 3956 4666 
L 4897 4666 
L 4897 0 
L 4281 0 
L 4281 4097 
L 3078 897 
L 2444 897 
L 1241 4097 
L 1241 0 
L 628 0 
L 628 4666 
z
" transform="scale(0.015625)"/>
       <path id="DejaVuSans-75" d="M 544 1381 
L 544 3500 
L 1119 3500 
L 1119 1403 
Q 1119 906 1312 657 
Q 1506 409 1894 409 
Q 2359 409 2629 706 
Q 2900 1003 2900 1516 
L 2900 3500 
L 3475 3500 
L 3475 0 
L 2900 0 
L 2900 538 
Q 2691 219 2414 64 
Q 2138 -91 1772 -91 
Q 1169 -91 856 284 
Q 544 659 544 1381 
z
M 1991 3584 
L 1991 3584 
z
" transform="scale(0.015625)"/>
      </defs>
      <use xlink:href="#DejaVuSans-4d"/>
      <use xlink:href="#DejaVuSans-65" x="86.279297"/>
      <use xlink:href="#DejaVuSans-61" x="147.802734"/>
      <use xlink:href="#DejaVuSans-73" x="209.082031"/>
      <use xlink:href="#DejaVuSans-75" x="261.181641"/>
      <use xlink:href="#DejaVuSans-72" x="324.560547"/>
      <use xlink:href="#DejaVuSans-65" x="363.423828"/>
      <use xlink:href="#DejaVuSans-64" x="424.947266"/>
     </g>
    </g>
    <g id="line2d_17">
     <path d="M 81 70.976562 
L 91 70.976562 
L 101 70.976562 
" style="fill: none; stroke: #ff7f0e; stroke-width: 1.5; stroke-linecap: square"/>
    </g>
    <g id="text_15">
     <!-- Fitted -->
     <g transform="translate(109 74.476562) scale(0.1 -0.1)">
      <defs>
       <path id="DejaVuSans-46" d="M 628 4666 
L 3309 4666 
L 3309 4134 
L 1259 4134 
L 1259 2759 
L 3109 2759 
L 3109 2228 
L 1259 2228 
L 1259 0 
L 628 0 
L 628 4666 
z
" transform="scale(0.015625)"/>
       <path id="DejaVuSans-74" d="M 1172 4494 
L 1172 3500 
L 2356 3500 
L 2356 3053 
L 1172 3053 
L 1172 1153 
Q 1172 725 1289 603 
Q 1406 481 1766 481 
L 2356 481 
L 2356 0 
L 1766 0 
Q 1100 0 847 248 
Q 594 497 594 1153 
L 594 3053 
L 172 3053 
L 172 3500 
L 594 3500 
L 594 4494 
L 1172 4494 
z
" transform="scale(0.015625)"/>
      </defs>
      <use xlink:href="#DejaVuSans-46"/>
      <use xlink:href="#DejaVuSans-69" x="50.269531"/>
      <use xlink:href="#DejaVuSans-74" x="78.052734"/>
      <use xlink:href="#DejaVuSans-74" x="117.261719"/>
      <use xlink:href="#DejaVuSans-65" x="156.470703"/>
      <use xlink:href="#DejaVuSans-64" x="217.994141"/>
     </g>
    </g>
    <g id="line2d_18">
     <path d="M 81 85.654687 
L 91 85.654687 
L 101 85.654687 
" style="fill: none; stroke: #2ca02c; stroke-width: 1.5; stroke-linecap: square"/>
    </g>
    <g id="text_16">
     <!-- Estimated -->
     <g transform="translate(109 89.154687) scale(0.1 -0.1)">
      <defs>
       <path id="DejaVuSans-45" d="M 628 4666 
L 3578 4666 
L 3578 4134 
L 1259 4134 
L 1259 2753 
L 3481 2753 
L 3481 2222 
L 1259 2222 
L 1259 531 
L 3634 531 
L 3634 0 
L 628 0 
L 628 4666 
z
" transform="scale(0.015625)"/>
      </defs>
      <use xlink:href="#DejaVuSans-45"/>
      <use xlink:href="#DejaVuSans-73" x="63.183594"/>
      <use xlink:href="#DejaVuSans-74" x="115.283203"/>
      <use xlink:href="#DejaVuSans-69" x="154.492188"/>
      <use xlink:href="#DejaVuSans-6d" x="182.275391"/>
      <use xlink:href="#DejaVuSans-61" x="279.6875"/>
      <use xlink:href="#DejaVuSans-74" x="340.966797"/>
      <use xlink:href="#DejaVuSans-65" x="380.175781"/>
      <use xlink:href="#DejaVuSans-64" x="441.699219"/>
     </g>
    </g>
   </g>
  </g>
 </g>
 <defs>
  <clipPath id="p6188bc908b">
   <rect x="72" y="43.2" width="446.4" height="277.2"/>
  </clipPath>
 </defs>
</svg>
