<?xml version="1.0" encoding="utf-8" standalone="no"?>
<!DOCTYPE svg PUBLIC "-//W3C//DTD SVG 1.1//EN"
  "http://www.w3.org/Graphics/SVG/1.1/DTD/svg11.dtd">
<svg xmlns:xlink="http://www.w3.org/1999/xlink" width="576pt" height="360pt" viewBox="0 0 576 360" xmlns="http://www.w3.org/2000/svg" version="1.1">
 <metadata>
  <rdf:RDF xmlns:dc="http://purl.org/dc/elements/1.1/" xmlns:cc="http://creativecommons.org/ns#" xmlns:rdf="http://www.w3.org/1999/02/22-rdf-syntax-ns#">
   <cc:Work>
    <dc:type rdf:resource="http://purl.org/dc/dcmitype/StillImage"/>
    <dc:date>2023-11-26T19:00:22.006909</dc:date>
    <dc:format>image/svg+xml</dc:format>
    <dc:creator>
     <cc:Agent>
      <dc:title>Matplotlib v3.8.1, https://matplotlib.org/</dc:title>
     </cc:Agent>
    </dc:creator>
   </cc:Work>
  </rdf:RDF>
 </metadata>
 <defs>
  <style type="text/css">*{stroke-linejoin: round; stroke-linecap: butt}</style>
 </defs>
 <g id="figure_1">
  <g id="patch_1">
   <path d="M 0 360 
L 576 360 
L 576 0 
L 0 0 
z
" style="fill: #ffffff"/>
  </g>
  <g id="axes_1">
   <g id="patch_2">
    <path d="M 72 320.4 
L 518.4 320.4 
L 518.4 43.2 
L 72 43.2 
z
" style="fill: #ffffff"/>
   </g>
   <g id="matplotlib.axis_1">
    <g id="xtick_1">
     <g id="line2d_1">
      <defs>
       <path id="ma0d3b91f2c" d="M 0 0 
L 0 3.5 
" style="stroke: #000000; stroke-width: 0.8"/>
      </defs>
      <g>
       <use xlink:href="#ma0d3b91f2c" x="129.874161" y="320.4" style="stroke: #000000; stroke-width: 0.8"/>
      </g>
     </g>
     <g id="text_1">
      <!-- 2020-05-15 -->
      <g transform="translate(100.816349 334.998438) scale(0.1 -0.1)">
       <defs>
        <path id="DejaVuSans-32" d="M 1228 531 
L 3431 531 
L 3431 0 
L 469 0 
L 469 531 
Q 828 903 1448 1529 
Q 2069 2156 2228 2338 
Q 2531 2678 2651 2914 
Q 2772 3150 2772 3378 
Q 2772 3750 2511 3984 
Q 2250 4219 1831 4219 
Q 1534 4219 1204 4116 
Q 875 4013 500 3803 
L 500 4441 
Q 881 4594 1212 4672 
Q 1544 4750 1819 4750 
Q 2544 4750 2975 4387 
Q 3406 4025 3406 3419 
Q 3406 3131 3298 2873 
Q 3191 2616 2906 2266 
Q 2828 2175 2409 1742 
Q 1991 1309 1228 531 
z
" transform="scale(0.015625)"/>
        <path id="DejaVuSans-30" d="M 2034 4250 
Q 1547 4250 1301 3770 
Q 1056 3291 1056 2328 
Q 1056 1369 1301 889 
Q 1547 409 2034 409 
Q 2525 409 2770 889 
Q 3016 1369 3016 2328 
Q 3016 3291 2770 3770 
Q 2525 4250 2034 4250 
z
M 2034 4750 
Q 2819 4750 3233 4129 
Q 3647 3509 3647 2328 
Q 3647 1150 3233 529 
Q 2819 -91 2034 -91 
Q 1250 -91 836 529 
Q 422 1150 422 2328 
Q 422 3509 836 4129 
Q 1250 4750 2034 4750 
z
" transform="scale(0.015625)"/>
        <path id="DejaVuSans-2d" d="M 313 2009 
L 1997 2009 
L 1997 1497 
L 313 1497 
L 313 2009 
z
" transform="scale(0.015625)"/>
        <path id="DejaVuSans-35" d="M 691 4666 
L 3169 4666 
L 3169 4134 
L 1269 4134 
L 1269 2991 
Q 1406 3038 1543 3061 
Q 1681 3084 1819 3084 
Q 2600 3084 3056 2656 
Q 3513 2228 3513 1497 
Q 3513 744 3044 326 
Q 2575 -91 1722 -91 
Q 1428 -91 1123 -41 
Q 819 9 494 109 
L 494 744 
Q 775 591 1075 516 
Q 1375 441 1709 441 
Q 2250 441 2565 725 
Q 2881 1009 2881 1497 
Q 2881 1984 2565 2268 
Q 2250 2553 1709 2553 
Q 1456 2553 1204 2497 
Q 953 2441 691 2322 
L 691 4666 
z
" transform="scale(0.015625)"/>
        <path id="DejaVuSans-31" d="M 794 531 
L 1825 531 
L 1825 4091 
L 703 3866 
L 703 4441 
L 1819 4666 
L 2450 4666 
L 2450 531 
L 3481 531 
L 3481 0 
L 794 0 
L 794 531 
z
" transform="scale(0.015625)"/>
       </defs>
       <use xlink:href="#DejaVuSans-32"/>
       <use xlink:href="#DejaVuSans-30" x="63.623047"/>
       <use xlink:href="#DejaVuSans-32" x="127.246094"/>
       <use xlink:href="#DejaVuSans-30" x="190.869141"/>
       <use xlink:href="#DejaVuSans-2d" x="254.492188"/>
       <use xlink:href="#DejaVuSans-30" x="290.576172"/>
       <use xlink:href="#DejaVuSans-35" x="354.199219"/>
       <use xlink:href="#DejaVuSans-2d" x="417.822266"/>
       <use xlink:href="#DejaVuSans-31" x="453.90625"/>
       <use xlink:href="#DejaVuSans-35" x="517.529297"/>
      </g>
     </g>
    </g>
    <g id="xtick_2">
     <g id="line2d_2">
      <g>
       <use xlink:href="#ma0d3b91f2c" x="212.435902" y="320.4" style="stroke: #000000; stroke-width: 0.8"/>
      </g>
     </g>
     <g id="text_2">
      <!-- 2020-06-01 -->
      <g transform="translate(183.37809 334.998438) scale(0.1 -0.1)">
       <defs>
        <path id="DejaVuSans-36" d="M 2113 2584 
Q 1688 2584 1439 2293 
Q 1191 2003 1191 1497 
Q 1191 994 1439 701 
Q 1688 409 2113 409 
Q 2538 409 2786 701 
Q 3034 994 3034 1497 
Q 3034 2003 2786 2293 
Q 2538 2584 2113 2584 
z
M 3366 4563 
L 3366 3988 
Q 3128 4100 2886 4159 
Q 2644 4219 2406 4219 
Q 1781 4219 1451 3797 
Q 1122 3375 1075 2522 
Q 1259 2794 1537 2939 
Q 1816 3084 2150 3084 
Q 2853 3084 3261 2657 
Q 3669 2231 3669 1497 
Q 3669 778 3244 343 
Q 2819 -91 2113 -91 
Q 1303 -91 875 529 
Q 447 1150 447 2328 
Q 447 3434 972 4092 
Q 1497 4750 2381 4750 
Q 2619 4750 2861 4703 
Q 3103 4656 3366 4563 
z
" transform="scale(0.015625)"/>
       </defs>
       <use xlink:href="#DejaVuSans-32"/>
       <use xlink:href="#DejaVuSans-30" x="63.623047"/>
       <use xlink:href="#DejaVuSans-32" x="127.246094"/>
       <use xlink:href="#DejaVuSans-30" x="190.869141"/>
       <use xlink:href="#DejaVuSans-2d" x="254.492188"/>
       <use xlink:href="#DejaVuSans-30" x="290.576172"/>
       <use xlink:href="#DejaVuSans-36" x="354.199219"/>
       <use xlink:href="#DejaVuSans-2d" x="417.822266"/>
       <use xlink:href="#DejaVuSans-30" x="453.90625"/>
       <use xlink:href="#DejaVuSans-31" x="517.529297"/>
      </g>
     </g>
    </g>
    <g id="xtick_3">
     <g id="line2d_3">
      <g>
       <use xlink:href="#ma0d3b91f2c" x="280.427924" y="320.4" style="stroke: #000000; stroke-width: 0.8"/>
      </g>
     </g>
     <g id="text_3">
      <!-- 2020-06-15 -->
      <g transform="translate(251.370111 334.998438) scale(0.1 -0.1)">
       <use xlink:href="#DejaVuSans-32"/>
       <use xlink:href="#DejaVuSans-30" x="63.623047"/>
       <use xlink:href="#DejaVuSans-32" x="127.246094"/>
       <use xlink:href="#DejaVuSans-30" x="190.869141"/>
       <use xlink:href="#DejaVuSans-2d" x="254.492188"/>
       <use xlink:href="#DejaVuSans-30" x="290.576172"/>
       <use xlink:href="#DejaVuSans-36" x="354.199219"/>
       <use xlink:href="#DejaVuSans-2d" x="417.822266"/>
       <use xlink:href="#DejaVuSans-31" x="453.90625"/>
       <use xlink:href="#DejaVuSans-35" x="517.529297"/>
      </g>
     </g>
    </g>
    <g id="xtick_4">
     <g id="line2d_4">
      <g>
       <use xlink:href="#ma0d3b91f2c" x="358.133092" y="320.4" style="stroke: #000000; stroke-width: 0.8"/>
      </g>
     </g>
     <g id="text_4">
      <!-- 2020-07-01 -->
      <g transform="translate(329.075279 334.998438) scale(0.1 -0.1)">
       <defs>
        <path id="DejaVuSans-37" d="M 525 4666 
L 3525 4666 
L 3525 4397 
L 1831 0 
L 1172 0 
L 2766 4134 
L 525 4134 
L 525 4666 
z
" transform="scale(0.015625)"/>
       </defs>
       <use xlink:href="#DejaVuSans-32"/>
       <use xlink:href="#DejaVuSans-30" x="63.623047"/>
       <use xlink:href="#DejaVuSans-32" x="127.246094"/>
       <use xlink:href="#DejaVuSans-30" x="190.869141"/>
       <use xlink:href="#DejaVuSans-2d" x="254.492188"/>
       <use xlink:href="#DejaVuSans-30" x="290.576172"/>
       <use xlink:href="#DejaVuSans-37" x="354.199219"/>
       <use xlink:href="#DejaVuSans-2d" x="417.822266"/>
       <use xlink:href="#DejaVuSans-30" x="453.90625"/>
       <use xlink:href="#DejaVuSans-31" x="517.529297"/>
      </g>
     </g>
    </g>
    <g id="xtick_5">
     <g id="line2d_5">
      <g>
       <use xlink:href="#ma0d3b91f2c" x="426.125113" y="320.4" style="stroke: #000000; stroke-width: 0.8"/>
      </g>
     </g>
     <g id="text_5">
      <!-- 2020-07-15 -->
      <g transform="translate(397.067301 334.998438) scale(0.1 -0.1)">
       <use xlink:href="#DejaVuSans-32"/>
       <use xlink:href="#DejaVuSans-30" x="63.623047"/>
       <use xlink:href="#DejaVuSans-32" x="127.246094"/>
       <use xlink:href="#DejaVuSans-30" x="190.869141"/>
       <use xlink:href="#DejaVuSans-2d" x="254.492188"/>
       <use xlink:href="#DejaVuSans-30" x="290.576172"/>
       <use xlink:href="#DejaVuSans-37" x="354.199219"/>
       <use xlink:href="#DejaVuSans-2d" x="417.822266"/>
       <use xlink:href="#DejaVuSans-31" x="453.90625"/>
       <use xlink:href="#DejaVuSans-35" x="517.529297"/>
      </g>
     </g>
    </g>
    <g id="xtick_6">
     <g id="line2d_6">
      <g>
       <use xlink:href="#ma0d3b91f2c" x="508.686854" y="320.4" style="stroke: #000000; stroke-width: 0.8"/>
      </g>
     </g>
     <g id="text_6">
      <!-- 2020-08-01 -->
      <g transform="translate(479.629042 334.998438) scale(0.1 -0.1)">
       <defs>
        <path id="DejaVuSans-38" d="M 2034 2216 
Q 1584 2216 1326 1975 
Q 1069 1734 1069 1313 
Q 1069 891 1326 650 
Q 1584 409 2034 409 
Q 2484 409 2743 651 
Q 3003 894 3003 1313 
Q 3003 1734 2745 1975 
Q 2488 2216 2034 2216 
z
M 1403 2484 
Q 997 2584 770 2862 
Q 544 3141 544 3541 
Q 544 4100 942 4425 
Q 1341 4750 2034 4750 
Q 2731 4750 3128 4425 
Q 3525 4100 3525 3541 
Q 3525 3141 3298 2862 
Q 3072 2584 2669 2484 
Q 3125 2378 3379 2068 
Q 3634 1759 3634 1313 
Q 3634 634 3220 271 
Q 2806 -91 2034 -91 
Q 1263 -91 848 271 
Q 434 634 434 1313 
Q 434 1759 690 2068 
Q 947 2378 1403 2484 
z
M 1172 3481 
Q 1172 3119 1398 2916 
Q 1625 2713 2034 2713 
Q 2441 2713 2670 2916 
Q 2900 3119 2900 3481 
Q 2900 3844 2670 4047 
Q 2441 4250 2034 4250 
Q 1625 4250 1398 4047 
Q 1172 3844 1172 3481 
z
" transform="scale(0.015625)"/>
       </defs>
       <use xlink:href="#DejaVuSans-32"/>
       <use xlink:href="#DejaVuSans-30" x="63.623047"/>
       <use xlink:href="#DejaVuSans-32" x="127.246094"/>
       <use xlink:href="#DejaVuSans-30" x="190.869141"/>
       <use xlink:href="#DejaVuSans-2d" x="254.492188"/>
       <use xlink:href="#DejaVuSans-30" x="290.576172"/>
       <use xlink:href="#DejaVuSans-38" x="354.199219"/>
       <use xlink:href="#DejaVuSans-2d" x="417.822266"/>
       <use xlink:href="#DejaVuSans-30" x="453.90625"/>
       <use xlink:href="#DejaVuSans-31" x="517.529297"/>
      </g>
     </g>
    </g>
   </g>
   <g id="matplotlib.axis_2">
    <g id="ytick_1">
     <g id="line2d_7">
      <defs>
       <path id="m65f628b50f" d="M 0 0 
L -3.5 0 
" style="stroke: #000000; stroke-width: 0.8"/>
      </defs>
      <g>
       <use xlink:href="#m65f628b50f" x="72" y="316.02311" style="stroke: #000000; stroke-width: 0.8"/>
      </g>
     </g>
     <g id="text_7">
      <!-- −2 -->
      <g transform="translate(50.257812 319.822329) scale(0.1 -0.1)">
       <defs>
        <path id="DejaVuSans-2212" d="M 678 2272 
L 4684 2272 
L 4684 1741 
L 678 1741 
L 678 2272 
z
" transform="scale(0.015625)"/>
       </defs>
       <use xlink:href="#DejaVuSans-2212"/>
       <use xlink:href="#DejaVuSans-32" x="83.789062"/>
      </g>
     </g>
    </g>
    <g id="ytick_2">
     <g id="line2d_8">
      <g>
       <use xlink:href="#m65f628b50f" x="72" y="262.270962" style="stroke: #000000; stroke-width: 0.8"/>
      </g>
     </g>
     <g id="text_8">
      <!-- −1 -->
      <g transform="translate(50.257812 266.070181) scale(0.1 -0.1)">
       <use xlink:href="#DejaVuSans-2212"/>
       <use xlink:href="#DejaVuSans-31" x="83.789062"/>
      </g>
     </g>
    </g>
    <g id="ytick_3">
     <g id="line2d_9">
      <g>
       <use xlink:href="#m65f628b50f" x="72" y="208.518814" style="stroke: #000000; stroke-width: 0.8"/>
      </g>
     </g>
     <g id="text_9">
      <!-- 0 -->
      <g transform="translate(58.6375 212.318032) scale(0.1 -0.1)">
       <use xlink:href="#DejaVuSans-30"/>
      </g>
     </g>
    </g>
    <g id="ytick_4">
     <g id="line2d_10">
      <g>
       <use xlink:href="#m65f628b50f" x="72" y="154.766666" style="stroke: #000000; stroke-width: 0.8"/>
      </g>
     </g>
     <g id="text_10">
      <!-- 1 -->
      <g transform="translate(58.6375 158.565884) scale(0.1 -0.1)">
       <use xlink:href="#DejaVuSans-31"/>
      </g>
     </g>
    </g>
    <g id="ytick_5">
     <g id="line2d_11">
      <g>
       <use xlink:href="#m65f628b50f" x="72" y="101.014518" style="stroke: #000000; stroke-width: 0.8"/>
      </g>
     </g>
     <g id="text_11">
      <!-- 2 -->
      <g transform="translate(58.6375 104.813736) scale(0.1 -0.1)">
       <use xlink:href="#DejaVuSans-32"/>
      </g>
     </g>
    </g>
    <g id="ytick_6">
     <g id="line2d_12">
      <g>
       <use xlink:href="#m65f628b50f" x="72" y="47.262369" style="stroke: #000000; stroke-width: 0.8"/>
      </g>
     </g>
     <g id="text_12">
      <!-- 3 -->
      <g transform="translate(58.6375 51.061588) scale(0.1 -0.1)">
       <defs>
        <path id="DejaVuSans-33" d="M 2597 2516 
Q 3050 2419 3304 2112 
Q 3559 1806 3559 1356 
Q 3559 666 3084 287 
Q 2609 -91 1734 -91 
Q 1441 -91 1130 -33 
Q 819 25 488 141 
L 488 750 
Q 750 597 1062 519 
Q 1375 441 1716 441 
Q 2309 441 2620 675 
Q 2931 909 2931 1356 
Q 2931 1769 2642 2001 
Q 2353 2234 1838 2234 
L 1294 2234 
L 1294 2753 
L 1863 2753 
Q 2328 2753 2575 2939 
Q 2822 3125 2822 3475 
Q 2822 3834 2567 4026 
Q 2313 4219 1838 4219 
Q 1578 4219 1281 4162 
Q 984 4106 628 3988 
L 628 4550 
Q 988 4650 1302 4700 
Q 1616 4750 1894 4750 
Q 2613 4750 3031 4423 
Q 3450 4097 3450 3541 
Q 3450 3153 3228 2886 
Q 3006 2619 2597 2516 
z
" transform="scale(0.015625)"/>
       </defs>
       <use xlink:href="#DejaVuSans-33"/>
      </g>
     </g>
    </g>
   </g>
   <g id="line2d_13">
    <path d="M 72 287.021497 
L 72.404714 298.412757 
L 72.607072 296.682973 
L 72.809429 285.96675 
L 73.214143 254.915018 
L 73.618858 242.426821 
L 75.035358 159.101858 
L 75.237715 156.127474 
L 75.440073 161.211351 
L 75.64243 169.459468 
L 75.844787 172.771371 
L 76.047144 188.086288 
L 76.654216 258.669915 
L 77.05893 282.844701 
L 77.261287 287.232446 
L 77.463645 286.852737 
L 77.666002 276.094324 
L 78.070716 247.468508 
L 78.475431 234.938122 
L 78.677788 225.761828 
L 79.487217 168.510196 
L 79.891931 152.161627 
L 80.094288 154.123456 
L 80.903717 196.735208 
L 81.713146 272.423807 
L 82.11786 287.148066 
L 82.320218 289.194274 
L 82.522575 288.898945 
L 82.724932 286.367554 
L 82.927289 279.511703 
L 83.332004 256.412757 
L 83.736718 242.026017 
L 83.939075 238.967253 
L 84.141432 239.241487 
L 84.546147 245.675439 
L 84.748504 247.784932 
L 84.950861 247.806027 
L 85.355576 252.025013 
L 85.557933 248.670919 
L 85.76029 254.830638 
L 86.569719 300.015972 
L 86.772076 306.133501 
L 86.974433 307.736715 
L 87.176791 307.8 
L 87.379148 306.449925 
L 87.581505 302.695028 
L 87.783862 295.902461 
L 88.188577 273.731693 
L 88.390934 268.521246 
L 89.200363 260.399699 
L 89.40272 256.243998 
L 89.807434 241.372074 
L 90.212149 238.903968 
L 90.414506 236.182722 
L 90.616863 244.1777 
L 91.223935 295.037569 
L 91.628649 306.133501 
L 91.831006 306.196786 
L 92.033364 303.686489 
L 92.842792 257.277649 
L 93.04515 255.125967 
L 93.449864 246.477047 
L 93.652221 245.949674 
L 93.854578 242.996384 
L 94.056936 242.363536 
L 94.259293 239.72667 
L 94.46165 233.292717 
L 94.664007 230.423807 
L 94.866364 231.351984 
L 95.068722 234.516223 
L 95.271079 230.655851 
L 95.473436 240.823606 
L 96.080508 295.417278 
L 96.485222 304.677951 
L 96.687579 306.597589 
L 96.889937 302.230939 
L 97.699365 256.539327 
L 98.306437 245.970768 
L 98.508794 245.59106 
L 99.52058 224.242993 
L 99.722937 225.508689 
L 99.925295 229.896434 
L 100.127652 228.061175 
L 100.330009 238.27112 
L 100.937081 292.928076 
L 101.341795 305.268609 
L 101.544152 306.26007 
L 101.74651 302.526268 
L 101.948867 290.50216 
L 102.353581 260.294224 
L 102.555938 258.733199 
L 103.567724 240.844701 
L 104.377153 218.610648 
L 104.57951 219.897438 
L 104.781868 225.318835 
L 104.984225 225.29774 
L 105.186582 234.241989 
L 105.793654 289.763837 
L 106.198368 302.589553 
L 106.400725 304.361527 
L 106.603083 300.311301 
L 107.412511 254.11341 
L 107.614869 252.383626 
L 107.817226 248.692014 
L 108.22194 234.07323 
L 108.626655 212.23998 
L 108.829012 206.270116 
L 109.031369 204.371572 
L 109.638441 213.104872 
L 109.840798 218.568458 
L 110.043155 229.031542 
L 110.650227 284.405726 
L 111.054941 298.750276 
L 111.257298 300.669915 
L 111.459655 298.919036 
L 111.662013 287.443395 
L 112.066727 258.015972 
L 112.471442 242.933099 
L 113.887942 174.121447 
L 114.090299 171.73772 
L 114.292656 178.593571 
L 114.495014 190.090306 
L 114.697371 194.710095 
L 115.102085 228.926067 
L 115.709157 278.583526 
L 116.113871 292.611652 
L 116.316228 292.780412 
L 116.518586 291.113913 
L 116.720943 287.46449 
L 117.125657 260.06218 
L 118.542158 154.777398 
L 118.744515 144.609643 
L 118.946872 140.707082 
L 119.149229 144.398694 
L 119.756301 182.496133 
L 120.56573 262.319337 
L 120.970444 282.254043 
L 121.172801 286.367554 
L 121.375159 288.012958 
L 121.577516 286.557408 
L 121.779873 278.583526 
L 122.589302 227.280663 
L 123.196374 201.671421 
L 123.398731 197.072727 
L 123.601088 197.283677 
L 123.803445 196.714114 
L 124.410517 210.193772 
L 124.612874 221.226419 
L 125.219946 277.845203 
L 125.62466 292.463988 
L 125.827017 294.468006 
L 126.029374 291.91552 
L 127.04116 235.191261 
L 127.648232 197.557911 
L 128.255304 154.925063 
L 128.457661 147.330889 
L 128.660018 146.99337 
L 129.26709 191.588046 
L 130.278876 282.971271 
L 130.481233 290.839679 
L 130.68359 292.231944 
L 130.885947 289.637268 
L 132.504805 180.070216 
L 133.111877 137.142039 
L 133.314234 127.670417 
L 133.516591 129.379106 
L 133.921306 144.841688 
L 134.123663 152.309292 
L 135.135449 262.84671 
L 135.540163 275.545856 
L 135.74252 274.596585 
L 135.944878 263.943646 
L 136.349592 232.343446 
L 136.551949 225.529784 
L 136.754306 213.590055 
L 136.956664 218.188749 
L 137.159021 206.818584 
L 137.766092 197.937619 
L 137.96845 198.338423 
L 138.373164 192.895932 
L 138.777879 200.490105 
L 138.980236 201.333903 
L 139.182593 213.210347 
L 139.789665 270.187745 
L 140.194379 285.650326 
L 140.396736 287.738724 
L 140.599093 284.701055 
L 141.003808 254.303265 
L 141.408522 232.997388 
L 142.015594 219.51773 
L 142.622665 210.320342 
L 142.825023 210.046107 
L 143.02738 208.822602 
L 143.229737 209.518734 
L 143.634451 214.834656 
L 143.836809 213.590055 
L 144.039166 223.84219 
L 144.646238 273.499648 
L 145.050952 285.671421 
L 145.253309 286.979307 
L 145.455666 283.815068 
L 145.860381 253.965746 
L 146.062738 237.406228 
L 146.66981 220.825615 
L 146.872167 218.125465 
L 147.074524 217.028528 
L 147.479238 205.848217 
L 147.681596 214.370568 
L 147.883953 215.362029 
L 148.08631 217.998895 
L 148.491024 227.386138 
L 148.693382 226.014967 
L 149.098096 249.83114 
L 149.502811 278.203817 
L 149.907525 291.430337 
L 150.109882 293.518734 
L 150.312239 292.928076 
L 150.514597 290.059166 
L 150.716954 284.258061 
L 151.121668 263.036565 
L 151.526383 242.194776 
L 151.931097 236.288197 
L 152.133454 235.845203 
L 152.335811 237.849221 
L 152.538169 238.376595 
L 152.740526 236.288197 
L 152.942883 236.583526 
L 153.14524 235.592064 
L 153.347597 235.634254 
L 153.549955 232.659869 
L 153.752312 234.895932 
L 154.764098 287.253541 
L 154.966455 291.282672 
L 155.168812 292.696032 
L 155.573527 288.687996 
L 155.775884 277.423305 
L 156.78767 198.127474 
L 157.799456 154.756303 
L 158.001813 156.802511 
L 158.406528 170.23998 
L 158.608885 184.036062 
L 159.215956 253.881366 
L 159.620671 275.86228 
L 159.823028 279.131994 
L 160.025385 278.203817 
L 160.227743 268.225917 
L 160.632457 235.191261 
L 161.8466 183.993872 
L 162.251315 173.762833 
L 162.453672 173.910497 
L 162.656029 176.821597 
L 163.465458 209.20231 
L 164.072529 270.12446 
L 164.477244 289.067705 
L 164.679601 289.405224 
L 164.881958 286.114415 
L 165.084316 275.777901 
L 165.48903 243.439377 
L 166.500816 207.725665 
L 167.310245 164.038071 
L 167.512602 167.45545 
L 167.917316 188.402712 
L 168.119674 192.938122 
L 168.322031 204.498142 
L 168.929102 264.977298 
L 169.333817 280.439879 
L 169.536174 284.026017 
L 169.738531 280.292215 
L 170.143246 252.510196 
L 170.54796 221.648317 
L 171.357389 176.273129 
L 171.559746 170.134505 
L 172.166818 145.49563 
L 172.369175 147.141035 
L 172.571532 155.199297 
L 173.178604 194.878855 
L 173.785675 267.25555 
L 174.19039 287.000402 
L 174.392747 290.038071 
L 174.595104 288.181718 
L 174.999819 263.542843 
L 175.404533 238.081266 
L 177.023391 158.405726 
L 177.225748 158.933099 
L 177.428105 162.92004 
L 177.630462 179.817077 
L 177.83282 182.306278 
L 178.237534 227.238473 
L 178.642248 270.947162 
L 179.046963 290.50216 
L 179.24932 294.299247 
L 179.451677 291.725665 
L 179.654034 282.865796 
L 180.261106 242.258061 
L 181.879964 143.449422 
L 182.082321 140.116424 
L 182.284678 145.896434 
L 183.094107 203.316826 
L 183.498821 243.080763 
L 183.903536 264.956203 
L 184.30825 272.95118 
L 184.510607 274.343446 
L 184.712965 270.630738 
L 184.915322 256.98232 
L 185.724751 173.340934 
L 186.129465 151.52878 
L 186.331822 145.347966 
L 186.53418 144.567454 
L 186.736537 147.16213 
L 187.748323 188.423807 
L 188.557752 253.923556 
L 188.962466 268.394676 
L 189.164823 270.483074 
L 189.36718 270.567454 
L 189.569538 269.808036 
L 189.771895 258.796484 
L 190.986038 160.810547 
L 191.188395 155.389151 
L 191.390752 155.346961 
L 191.795467 164.692014 
L 192.604896 196.671924 
L 193.414325 261.370065 
L 193.819039 275.377097 
L 194.021396 276.474033 
L 194.426111 272.423807 
L 194.628468 263.268609 
L 195.437897 201.017479 
L 195.640254 195.891411 
L 195.842611 197.136012 
L 196.247325 203.337921 
L 196.449683 203.928579 
L 196.65204 203.527775 
L 197.056754 211.923556 
L 197.259112 212.788448 
L 197.461469 221.395178 
L 198.06854 270.841688 
L 198.473255 285.354997 
L 198.675612 285.460472 
L 198.877969 281.72667 
L 199.282684 250.231944 
L 199.687398 226.879859 
L 201.306256 158.933099 
L 201.508613 157.751783 
L 202.115684 177.39116 
L 202.318042 188.803516 
L 202.925113 254.366549 
L 203.329828 272.423807 
L 203.532185 274.57549 
L 203.734542 271.516725 
L 203.936899 259.724661 
L 204.341614 224.939126 
L 205.758114 168.995379 
L 205.960471 166.442893 
L 206.162829 166.590558 
L 206.365186 168.046107 
L 206.7699 180.175691 
L 206.972257 183.445404 
L 207.174615 194.541336 
L 207.781686 254.978302 
L 208.186401 271.516725 
L 208.388758 274.638774 
L 208.591115 271.221396 
L 208.793472 259.070718 
L 209.198187 224.475038 
L 209.805258 201.671421 
L 210.209973 181.314817 
L 210.817044 138.639779 
L 211.019402 129.948669 
L 211.221759 132.986339 
L 211.626473 158.047112 
L 211.82883 163.384129 
L 212.031188 178.467002 
L 212.638259 245.063687 
L 213.042974 264.091311 
L 213.245331 268.183727 
L 213.447688 266.432848 
L 213.650045 255.463486 
L 214.257117 211.164139 
L 214.661831 184.183727 
L 215.47126 123.409242 
L 215.875975 106.280161 
L 216.078332 105.794977 
L 216.280689 111.469513 
L 217.090118 176.779407 
L 217.697189 240.190758 
L 218.101904 259.091813 
L 218.304261 262.530286 
L 218.506618 263.922551 
L 218.708976 262.635761 
L 218.911333 249.599096 
L 219.518404 193.48659 
L 220.125476 157.435359 
L 220.327833 155.220392 
L 220.53019 157.498644 
L 221.541976 200.827624 
L 221.744334 206.101356 
L 222.553762 264.365545 
L 222.958477 275.503666 
L 223.160834 277.254545 
L 223.363191 277.613159 
L 223.565549 276.009945 
L 223.767906 267.086791 
L 224.374977 227.955701 
L 224.779692 220.192767 
L 225.386763 222.30226 
L 225.589121 225.909493 
L 225.791478 226.816575 
L 226.196192 235.40221 
L 226.398549 235.043596 
L 226.600907 241.625213 
L 227.410335 296.535309 
L 227.612693 300.669915 
L 227.81505 302.399699 
L 228.017407 299.129985 
L 228.826836 255.505676 
L 229.029193 253.121949 
L 229.23155 247.236464 
L 230.648051 182.285183 
L 230.850408 182.875841 
L 231.255122 197.64229 
L 231.45748 208.801507 
L 232.064551 274.027022 
L 232.469266 291.620191 
L 232.671623 294.404721 
L 232.87398 293.160121 
L 233.278694 267.25555 
L 233.683409 244.1777 
L 235.302267 178.024008 
L 235.504624 177.412255 
L 236.111695 196.988348 
L 236.314053 207.599096 
L 236.921124 271.242491 
L 237.325839 287.50668 
L 237.528196 290.713109 
L 237.730553 288.540331 
L 238.135267 264.006931 
L 238.539982 241.688498 
L 239.349411 210.003918 
L 239.754125 199.751783 
L 240.15884 189.288699 
L 240.361197 189.03556 
L 240.563554 194.625716 
L 240.968268 212.661878 
L 241.170626 220.424812 
L 241.777697 277.31783 
L 242.182412 293.560924 
L 242.384769 296.11341 
L 242.587126 293.054646 
L 242.99184 267.740733 
L 243.396555 249.345957 
L 245.21777 172.876846 
L 245.420127 177.222401 
L 246.027199 204.666901 
L 246.836627 279.933601 
L 247.038985 288.498142 
L 247.241342 291.74676 
L 247.443699 289.152084 
L 247.848413 265.019488 
L 249.467271 150.305274 
L 249.669628 142.036062 
L 249.871985 140.053139 
L 250.074343 140.221899 
L 250.2767 147.330889 
L 250.883772 180.21788 
L 251.6932 257.003415 
L 252.097915 271.875339 
L 252.300272 275.018483 
L 252.502629 275.292717 
L 252.704986 271.326871 
L 253.109701 237.785937 
L 253.91913 162.814566 
L 254.323844 146.634756 
L 254.728558 137.606128 
L 254.930916 136.319337 
L 255.133273 143.997891 
L 255.740345 182.369563 
L 256.549773 259.387142 
L 256.954488 275.229432 
L 257.156845 279.131994 
L 257.359202 280.840683 
L 257.561559 279.849221 
L 257.966274 250.274134 
L 258.573345 198.675942 
L 258.97806 176.484078 
L 259.382774 165.198292 
L 259.585131 161.675439 
L 259.787489 161.232446 
L 259.989846 163.911502 
L 260.39456 180.281165 
L 260.596917 193.950678 
L 261.203989 257.425314 
L 261.608704 276.579508 
L 261.811061 279.574987 
L 262.013418 278.77338 
L 262.418132 254.23998 
L 262.62049 241.941637 
L 263.025204 232.048117 
L 263.227561 229.179206 
L 263.429918 228.145555 
L 263.834633 229.45344 
L 264.03699 229.137017 
L 264.239347 230.107383 
L 264.441704 230.191763 
L 264.644062 229.917529 
L 264.846419 232.005927 
L 265.048776 236.140532 
L 265.251133 236.140532 
L 265.45349 240.254043 
L 266.060562 283.730688 
L 266.465277 296.872828 
L 266.667634 298.454947 
L 266.869991 294.172677 
L 267.072348 286.030035 
L 267.477063 258.901959 
L 268.084134 236.203817 
L 268.488849 225.677449 
L 269.09592 214.159618 
L 269.500635 210.109392 
L 269.702992 212.345455 
L 269.905349 216.037067 
L 270.107706 216.733199 
L 270.310063 223.188247 
L 270.917135 273.204319 
L 271.32185 285.460472 
L 271.524207 287.654345 
L 271.726564 285.903466 
L 274.15485 140.960221 
L 274.357208 133.619186 
L 274.559565 137.036565 
L 275.166636 162.793471 
L 275.976065 246.308287 
L 276.38078 259.176193 
L 276.583137 258.458965 
L 276.987851 236.098343 
L 277.392566 206.50216 
L 278.404352 148.195781 
L 278.606709 145.073732 
L 279.011423 131.530789 
L 279.213781 129.885384 
L 279.416138 134.252034 
L 280.023209 176.969262 
L 280.630281 250.020994 
L 281.034995 273.351984 
L 281.237353 278.351482 
L 281.43971 276.769362 
L 281.642067 270.736213 
L 282.249139 227.976796 
L 282.85621 193.52878 
L 283.867996 149.714616 
L 284.070354 148.49111 
L 284.272711 156.844701 
L 285.284497 241.920542 
L 285.689211 274.870819 
L 286.093926 289.974787 
L 286.296283 292.316323 
L 286.49864 290.45997 
L 286.700997 287.443395 
L 287.105712 255.674435 
L 287.712783 202.873832 
L 288.522212 158.384631 
L 288.724569 151.085786 
L 288.926927 149.102863 
L 289.129284 152.77338 
L 289.736355 187.411251 
L 290.545784 259.197288 
L 290.950499 274.849724 
L 291.152856 277.697539 
L 291.355213 277.781919 
L 291.55757 276.263084 
L 291.759927 263.479558 
L 292.771714 162.392667 
L 293.176428 139.863285 
L 293.581142 128.345455 
L 293.7835 126.573481 
L 293.985857 130.180713 
L 294.592928 156.338423 
L 295.402357 241.667403 
L 295.807072 256.729181 
L 296.009429 256.560422 
L 296.414143 235.760824 
L 297.830644 97.293722 
L 298.235358 83.645304 
L 298.437715 80.987343 
L 298.640073 81.261577 
L 298.84243 83.37107 
L 299.044787 91.619186 
L 299.449501 119.295731 
L 300.056573 200.363536 
L 300.461287 226.268106 
L 300.663645 232.44892 
L 300.866002 233.187243 
L 301.068359 226.183727 
L 301.473073 195.342943 
L 302.484859 87.273631 
L 302.687217 75.650326 
L 302.889574 75.755801 
L 303.091931 84.067202 
L 303.496646 92.948167 
L 303.90136 115.793973 
L 304.306074 144.483074 
L 304.913146 215.551883 
L 305.31786 241.583024 
L 305.520218 247.299749 
L 305.722575 245.46449 
L 305.924932 238.14455 
L 306.532004 197.114917 
L 307.54379 125.223405 
L 307.746147 114.739227 
L 307.948504 113.832145 
L 308.757933 146.972275 
L 309.162647 173.741738 
L 309.769719 238.439879 
L 310.174433 258.859769 
L 310.376791 263.374083 
L 310.579148 262.783425 
L 310.983862 238.735208 
L 312.198005 131.889402 
L 312.60272 119.949674 
L 312.805077 115.456454 
L 313.007434 116.026017 
L 313.209791 119.823104 
L 313.816863 148.153591 
L 314.01922 162.202813 
L 314.626292 226.479056 
L 315.031006 247.531793 
L 315.233364 252.235962 
L 315.435721 251.560924 
L 315.840435 232.280161 
L 316.24515 213.062682 
L 316.649864 200.72215 
L 317.054578 185.006429 
L 317.66165 177.285686 
L 317.864007 176.821597 
L 318.066364 175.89342 
L 318.268722 180.703064 
L 318.875793 203.443395 
L 319.685222 263.627223 
L 320.089937 276.748267 
L 320.292294 278.435861 
L 320.697008 270.293219 
L 321.101723 243.354997 
L 322.315866 163.320844 
L 322.72058 152.794475 
L 322.922937 150.410748 
L 323.125295 154.650829 
L 323.732366 183.023506 
L 324.541795 253.417278 
L 324.94651 268.099347 
L 325.148867 271.073732 
L 325.351224 271.137017 
L 325.553581 268.816575 
L 325.755938 256.159618 
L 326.970082 140.707082 
L 327.172439 134.209844 
L 327.374796 132.585535 
L 327.77951 126.86881 
L 327.981868 131.994877 
L 328.184225 141.023506 
L 328.791296 194.077248 
L 329.196011 238.988348 
L 329.398368 254.640784 
L 329.803083 265.019488 
L 330.00544 264.049121 
L 330.207797 258.290206 
L 330.814869 208.463988 
L 331.42194 169.206328 
L 331.826655 145.917529 
L 332.029012 142.943144 
L 332.231369 142.964239 
L 332.433726 143.154093 
L 332.636083 145.305776 
L 332.838441 149.967755 
L 333.243155 173.509694 
L 333.445512 182.770367 
L 334.052584 250.274134 
L 334.457298 272.655851 
L 334.659655 278.224912 
L 334.862013 275.756806 
L 335.266727 255.379106 
L 335.671442 230.360522 
L 336.48087 189.16213 
L 336.683228 183.951683 
L 336.885585 182.812557 
L 337.087942 176.462983 
L 337.290299 174.56444 
L 337.695014 181.209342 
L 338.099728 196.060171 
L 338.302085 202.09332 
L 339.111514 269.702562 
L 339.313871 276.07323 
L 339.516228 278.372577 
L 339.718586 274.195781 
L 340.1233 250.210849 
L 340.932729 204.540331 
L 342.349229 141.107885 
L 342.551587 141.023506 
L 343.158658 166.379608 
L 343.76573 230.845706 
L 344.170444 249.345957 
L 344.372801 254.23998 
L 344.575159 252.046107 
L 344.777516 244.937117 
L 345.18223 213.210347 
L 346.194016 128.32436 
L 346.598731 113.157107 
L 347.003445 106.36454 
L 347.205802 105.499648 
L 347.40816 108.769362 
L 347.610517 116.827624 
L 348.015231 143.639277 
L 348.82466 237.237469 
L 349.229374 254.809543 
L 349.431732 254.029031 
L 349.634089 248.080261 
L 349.836446 236.646811 
L 351.050589 129.379106 
L 351.455304 110.520241 
L 351.860018 101.428327 
L 352.062375 100.500151 
L 352.264733 104.233953 
L 352.46709 115.625213 
L 353.276519 200.975289 
L 353.681233 239.937619 
L 354.085947 260.673933 
L 354.288305 266.095329 
L 354.490662 266.685987 
L 354.693019 264.38664 
L 355.097733 221.205324 
L 355.704805 145.369061 
L 356.109519 119.991863 
L 356.716591 101.301758 
L 356.918948 100.183727 
L 357.121306 105.11994 
L 357.52602 131.446409 
L 357.728377 144.483074 
L 358.740163 242.574485 
L 359.144878 255.906479 
L 359.347235 257.826118 
L 359.549592 257.488599 
L 359.751949 243.101858 
L 360.763735 119.169161 
L 361.16845 99.571974 
L 361.573164 88.159618 
L 361.775521 85.796986 
L 361.977879 89.172175 
L 362.180236 96.365545 
L 362.58495 122.860773 
L 363.394379 214.054144 
L 363.799093 232.195781 
L 364.001451 233.039578 
L 364.203808 226.985334 
L 364.406165 216.64882 
L 365.013237 145.137017 
L 365.620308 78.772376 
L 366.025023 62.149573 
L 366.429737 55.8 
L 366.632094 56.306278 
L 366.834451 59.027524 
L 367.036809 67.992868 
L 367.441523 98.010949 
L 368.048595 179.901457 
L 368.453309 211.290708 
L 368.655666 220.066198 
L 368.858024 222.513209 
L 369.060381 218.505173 
L 369.262738 208.358513 
L 369.86981 143.006429 
L 370.476881 83.160121 
L 370.881596 66.052135 
L 371.083953 65.588046 
L 371.28631 66.326369 
L 371.488667 70.376595 
L 371.691024 76.789453 
L 372.298096 116.912004 
L 373.107525 204.413762 
L 373.512239 227.301758 
L 373.714597 231.794977 
L 374.119311 231.07775 
L 374.321668 217.956705 
L 375.333454 111.047614 
L 375.738169 97.399196 
L 375.940526 94.614666 
L 376.142883 93.47554 
L 376.34524 98.812557 
L 376.749955 125.835158 
L 377.559383 186.504169 
L 377.964098 222.196786 
L 378.368812 236.414766 
L 378.57117 236.646811 
L 378.773527 230.529282 
L 378.975884 218.969262 
L 380.392384 98.791462 
L 380.797099 88.560422 
L 381.201813 80.734204 
L 381.40417 84.615671 
L 382.011242 122.776394 
L 382.820671 208.189754 
L 383.225385 224.791462 
L 383.427743 225.466499 
L 383.6301 219.960723 
L 384.034814 197.030537 
L 385.0466 121.320844 
L 385.451315 104.107383 
L 385.653672 103.6222 
L 385.856029 107.524761 
L 386.058386 115.393169 
L 387.070172 187.558915 
L 387.474887 228.926067 
L 387.879601 251.497639 
L 388.284316 260.927072 
L 388.68903 263.521748 
L 388.891387 257.594073 
L 389.700816 212.682973 
L 390.307888 201.122953 
L 390.914959 187.980814 
L 391.117316 192.917027 
L 391.926745 233.735711 
L 392.533817 279.321848 
L 392.938531 292.084279 
L 393.140888 294.003918 
L 393.343246 293.539829 
L 393.545603 294.025013 
L 393.74796 284.785434 
L 394.355032 242.321346 
L 395.569175 184.057157 
L 395.771532 177.855249 
L 395.973889 179.099849 
L 396.176247 187.685485 
L 396.783318 231.056655 
L 397.188033 270.799498 
L 397.592747 289.194274 
L 397.795104 292.063184 
L 397.997461 289.447413 
L 398.402176 270.736213 
L 400.628105 139.061678 
L 400.830462 141.993872 
L 401.03282 152.267102 
L 401.639891 211.121949 
L 402.044606 256.876846 
L 402.44932 277.845203 
L 402.651677 281.979809 
L 402.854034 280.27112 
L 403.258749 261.496635 
L 403.663463 232.174686 
L 404.877607 122.755299 
L 405.282321 101.575992 
L 405.484678 97.230437 
L 405.687035 98.348468 
L 405.889393 109.191261 
L 406.294107 147.752788 
L 406.901179 227.639277 
L 407.305893 252.468006 
L 407.50825 258.248016 
L 407.710607 257.699548 
L 408.115322 235.781919 
L 409.73418 99.276645 
L 409.936537 94.192767 
L 410.138894 94.045103 
L 410.341251 98.791462 
L 410.948323 136.045103 
L 411.15068 152.456956 
L 411.757752 225.29774 
L 412.162466 250.126469 
L 412.364823 256.813561 
L 412.56718 258.64882 
L 412.971895 240.021999 
L 414.388395 138.808538 
L 414.79311 124.843697 
L 415.197824 117.96675 
L 415.400181 124.949171 
L 416.20961 189.478553 
L 416.614325 236.140532 
L 417.019039 259.93561 
L 417.221396 264.323355 
L 417.423753 263.753792 
L 417.828468 247.0888 
L 419.244968 146.276143 
L 419.649683 132.248016 
L 419.85204 128.303265 
L 420.054397 129.77991 
L 420.256754 138.703064 
L 421.066183 205.974787 
L 421.673255 262.720141 
L 422.077969 279.279658 
L 422.280326 281.832145 
L 422.482684 281.157107 
L 422.685041 280.988348 
L 423.089755 249.324862 
L 423.899184 178.234957 
L 424.708613 137.774887 
L 424.91097 134.505173 
L 425.113327 138.618684 
L 425.518042 165.493621 
L 425.720399 177.623204 
L 426.529828 254.345455 
L 426.934542 273.436364 
L 427.136899 278.035058 
L 427.339257 278.85776 
L 427.541614 279.089804 
L 427.743971 270.25103 
L 428.148685 228.778403 
L 428.755757 165.177197 
L 429.160471 138.829633 
L 429.565186 130.349473 
L 429.9699 134.378604 
L 430.374615 151.043596 
L 430.576972 163.00442 
L 431.386401 241.076745 
L 431.791115 253.649322 
L 431.993472 251.560924 
L 432.398187 230.698041 
L 433.207616 163.827122 
L 434.017044 91.534807 
L 434.219402 86.514214 
L 435.02883 114.675942 
L 435.433545 140.348468 
L 436.040617 213.484581 
L 436.445331 236.625716 
L 436.647688 241.899448 
L 436.850045 241.203315 
L 437.25476 220.045103 
L 437.659474 184.183727 
L 438.468903 108.727172 
L 438.67126 98.728177 
L 438.873617 99.719638 
L 439.075975 107.018483 
L 439.278332 106.554395 
L 439.480689 108.853742 
L 439.885403 127.902461 
L 440.290118 153.321848 
L 440.897189 228.715118 
L 441.301904 251.624209 
L 441.504261 257.19327 
L 441.706618 257.741738 
L 442.111333 242.616675 
L 442.920762 189.204319 
L 443.527833 153.406228 
L 444.134905 130.054144 
L 444.337262 127.396183 
L 444.539619 133.9778 
L 445.146691 180.238975 
L 445.753762 251.265595 
L 446.158477 273.03556 
L 446.360834 278.119437 
L 446.563191 276.07323 
L 446.967906 256.665897 
L 448.586763 143.955701 
L 448.991478 130.412757 
L 449.193835 128.029031 
L 449.396192 134.863787 
L 450.003264 176.315319 
L 450.812693 258.48006 
L 451.217407 272.128478 
L 451.419764 272.255048 
L 451.824479 254.619689 
L 452.43155 202.873832 
L 453.038622 159.861276 
L 453.443336 142.373581 
L 453.848051 134.294224 
L 454.050408 137.753792 
L 454.252765 148.005927 
L 454.65748 177.159116 
L 454.859837 185.829131 
L 455.669266 252.257057 
L 456.07398 266.158614 
L 456.276337 267.719638 
L 456.478694 265.67343 
L 456.681052 262.488096 
L 456.883409 254.28217 
L 457.288123 226.563435 
L 457.692838 215.319839 
L 457.895195 216.037067 
L 458.299909 221.943646 
L 458.502267 221.795982 
L 458.906981 217.872325 
L 459.109338 218.420794 
L 459.514053 222.681969 
L 459.71641 227.090809 
L 460.728196 286.304269 
L 461.13291 290.839679 
L 461.537625 287.443395 
L 461.739982 278.288197 
L 462.144696 242.890909 
L 463.561197 171.927574 
L 463.763554 164.481065 
L 463.965911 165.683476 
L 464.572983 185.660372 
L 465.382412 254.366549 
L 465.584769 261.454445 
L 465.787126 264.238975 
L 465.989483 261.749774 
L 467.608341 166.822602 
L 468.620127 145.094827 
L 468.822484 148.301256 
L 469.429556 175.218383 
L 470.036627 233.398192 
L 470.441342 251.645304 
L 470.643699 254.345455 
L 470.846056 251.708589 
L 471.857842 199.477549 
L 472.869628 168.446911 
L 473.071985 168.953189 
L 473.274343 167.117931 
L 473.4767 168.404721 
L 473.679057 172.286188 
L 473.881414 179.036565 
L 474.083772 180.21788 
L 474.286129 188.086288 
L 474.8932 241.540834 
L 475.297915 258.205826 
L 475.500272 259.914515 
L 475.702629 257.826118 
L 476.107344 232.828629 
L 476.512058 210.257057 
L 477.321487 177.960723 
L 477.726201 157.287695 
L 477.928558 153.638272 
L 478.333273 158.447916 
L 478.53563 163.025515 
L 479.142702 188.592567 
L 479.952131 258.100352 
L 480.356845 268.204822 
L 480.559202 267.782923 
L 480.963917 245.126971 
L 482.785131 113.452436 
L 482.987489 107.398192 
L 483.189846 104.698041 
L 483.392203 110.478051 
L 483.999275 151.36002 
L 484.606346 224.285183 
L 485.011061 248.101356 
L 485.213418 252.615671 
L 485.415775 253.586037 
L 485.82049 233.313812 
L 486.225204 201.312808 
L 487.23699 109.043596 
L 487.439347 105.879357 
L 487.844062 112.608639 
L 488.248776 131.699548 
L 489.260562 211.206328 
L 489.665277 244.1777 
L 490.069991 259.661376 
L 490.272348 262.066198 
L 490.474705 260.905977 
L 490.677063 259.091813 
L 490.87942 249.113913 
L 491.891206 167.37107 
L 492.29592 149.208338 
L 492.498277 141.635259 
L 492.700635 139.567956 
L 492.902992 141.234455 
L 493.105349 146.170668 
L 493.712421 180.534304 
L 494.52185 254.345455 
L 495.128921 273.07775 
L 495.331278 273.225414 
L 495.533636 272.592567 
L 495.735993 264.850728 
L 496.950136 171.041587 
L 497.557208 146.065193 
L 497.759565 142.62672 
L 497.961922 145.917529 
L 498.568994 178.213862 
L 499.378422 253.881366 
L 499.58078 260.884882 
L 499.783137 263.437368 
L 499.985494 260.041085 
L 500.187851 251.307785 
L 500.794923 213.463486 
L 500.99728 208.231944 
L 501.401995 194.81557 
L 501.806709 183.276645 
L 502.009066 182.812557 
L 502.211423 184.922049 
L 502.413781 185.575992 
L 502.616138 183.867303 
L 503.020852 193.824108 
L 503.223209 194.393672 
L 503.425567 202.09332 
L 504.032638 254.050126 
L 504.437353 267.445404 
L 504.63971 269.111904 
L 504.842067 266.685987 
L 505.246782 241.709593 
L 505.651496 217.302762 
L 507.270354 142.331391 
L 507.472711 139.146057 
L 507.675068 142.62672 
L 508.28214 171.358011 
L 508.889211 230.824611 
L 509.293926 248.37559 
L 509.496283 251.982823 
L 509.69864 250.105374 
L 510.103354 225.972777 
L 511.722212 116.954194 
L 512.126927 98.749272 
L 512.329284 100.373581 
L 512.936355 135.602109 
L 513.34107 175.513712 
L 513.745784 220.066198 
L 514.150499 243.354997 
L 514.352856 249.071723 
L 514.555213 249.578001 
L 514.75757 240.464992 
L 516.174071 141.29774 
L 516.376428 140.179709 
L 516.781142 149.735711 
L 516.9835 146.930085 
L 517.185857 147.478553 
L 517.590571 165.620191 
L 517.792928 169.965746 
L 517.995286 180.935108 
L 518.4 221.585033 
L 518.4 221.585033 
" clip-path="url(#p8e614e7491)" style="fill: none; stroke: #1f77b4; stroke-width: 1.5; stroke-linecap: square"/>
   </g>
   <g id="line2d_14">
    <path d="M 72 250.057713 
L 72.202357 250.057713 
L 72.607072 254.447701 
L 72.809429 253.626195 
L 73.618858 235.450952 
L 74.428286 204.015607 
L 74.833001 191.608645 
L 75.035358 188.628962 
L 75.440073 191.021925 
L 75.64243 195.043609 
L 76.047144 210.849946 
L 76.451859 248.471361 
L 76.856573 267.087601 
L 77.261287 275.707634 
L 77.463645 276.447807 
L 77.666002 275.045514 
L 80.094288 198.501826 
L 80.296646 200.401588 
L 80.499003 205.829193 
L 80.903717 229.758122 
L 81.308432 255.212694 
L 81.713146 270.254814 
L 82.11786 275.144162 
L 82.320218 276.506944 
L 82.927289 268.654156 
L 83.736718 241.682354 
L 84.34379 234.217999 
L 84.748504 238.219993 
L 84.950861 240.874002 
L 85.153218 241.263165 
L 85.557933 244.295529 
L 85.76029 244.571761 
L 86.165005 254.121957 
L 86.569719 267.429577 
L 86.772076 268.779293 
L 86.974433 272.044468 
L 87.176791 272.565514 
L 87.379148 270.855618 
L 87.986219 254.984857 
L 88.188577 247.507141 
L 88.593291 241.26864 
L 88.795648 241.215504 
L 88.998005 239.465382 
L 89.200363 235.783842 
L 89.40272 234.74991 
L 89.605077 235.705113 
L 89.807434 237.695173 
L 90.009791 236.443504 
L 90.414506 232.413894 
L 90.616863 231.535737 
L 90.81922 237.261275 
L 91.426292 266.065224 
L 92.033364 270.964793 
L 92.235721 268.816317 
L 92.842792 242.088448 
L 93.04515 240.805612 
L 93.247507 241.252563 
L 93.652221 236.445228 
L 94.056936 233.672006 
L 94.259293 241.780908 
L 94.664007 236.632501 
L 94.866364 236.09919 
L 95.068722 232.172605 
L 95.271079 236.684916 
L 95.473436 238.45347 
L 96.282865 269.0786 
L 96.485222 270.879243 
L 96.687579 273.895976 
L 96.889937 273.35914 
L 97.294651 261.814441 
L 97.699365 244.068086 
L 97.901723 241.177919 
L 98.10408 240.659503 
L 98.306437 238.512341 
L 98.508794 235.155882 
L 98.711151 235.642753 
L 98.913509 232.483367 
L 99.115866 239.447139 
L 99.52058 234.922764 
L 99.722937 234.859783 
L 99.925295 229.702022 
L 100.532366 246.497913 
L 100.937081 264.059507 
L 101.341795 272.204975 
L 101.544152 273.889004 
L 101.74651 273.666328 
L 102.151224 263.016068 
L 102.555938 245.887132 
L 102.758296 242.674719 
L 102.960653 242.019136 
L 103.365367 235.382529 
L 103.567724 235.241401 
L 103.770082 233.428139 
L 103.972439 237.704307 
L 104.377153 232.133664 
L 104.57951 231.33502 
L 104.781868 227.027971 
L 105.388939 245.008036 
L 105.793654 263.349643 
L 105.996011 269.304838 
L 106.400725 273.273033 
L 106.603083 273.140482 
L 106.80544 269.712384 
L 107.210154 254.329318 
L 107.412511 246.060975 
L 107.614869 242.358772 
L 107.817226 241.818076 
L 108.019583 238.731986 
L 108.626655 226.326004 
L 108.829012 226.600511 
L 109.233726 221.648859 
L 109.436083 223.114287 
L 109.638441 223.289273 
L 110.043155 238.836506 
L 110.650227 265.042354 
L 111.054941 271.449097 
L 111.257298 273.23162 
L 111.459655 274.026566 
L 111.662013 272.630861 
L 112.066727 256.468576 
L 112.471442 243.154869 
L 112.876156 234.192296 
L 113.685585 211.808052 
L 114.090299 205.486126 
L 114.292656 203.367089 
L 114.495014 207.070647 
L 115.709157 269.488049 
L 115.911514 272.694406 
L 116.113871 274.023964 
L 116.316228 273.834686 
L 116.518586 272.741779 
L 116.9233 267.720143 
L 118.137443 215.128182 
L 118.542158 195.144806 
L 118.946872 184.004821 
L 119.149229 185.916844 
L 119.351587 189.660335 
L 119.553944 196.548643 
L 119.958658 227.003617 
L 120.56573 266.173112 
L 120.970444 274.490071 
L 121.172801 275.835507 
L 121.375159 275.353913 
L 121.779873 268.525585 
L 122.589302 238.660286 
L 122.791659 231.448077 
L 123.398731 222.516477 
L 123.601088 220.84094 
L 123.803445 222.736644 
L 124.20816 230.013953 
L 124.612874 235.177133 
L 125.017588 254.095749 
L 125.422303 270.923367 
L 125.62466 273.684052 
L 125.827017 274.309782 
L 126.029374 275.976779 
L 126.231732 273.557563 
L 127.04116 241.473342 
L 127.243518 238.713419 
L 127.850589 217.36471 
L 128.457661 192.178913 
L 128.660018 190.085915 
L 128.862375 191.631794 
L 129.064733 196.645221 
L 129.26709 210.216867 
L 129.671804 247.517464 
L 130.076519 269.823847 
L 130.278876 274.381043 
L 130.481233 275.740871 
L 130.68359 276.292316 
L 131.088305 270.521075 
L 131.695376 249.968309 
L 133.111877 188.951739 
L 133.314234 185.244994 
L 133.516591 184.845025 
L 133.718948 186.503721 
L 134.123663 194.17711 
L 134.32602 203.831182 
L 134.730734 249.933742 
L 135.135449 268.364609 
L 135.540163 276.507527 
L 135.74252 276.767727 
L 135.944878 273.906959 
L 136.147235 267.277424 
L 136.754306 241.176125 
L 136.956664 234.470915 
L 137.159021 232.536186 
L 137.361378 222.164659 
L 137.563735 225.941288 
L 137.766092 223.540351 
L 138.170807 237.752099 
L 138.575521 232.768102 
L 138.777879 230.282189 
L 140.194379 275.358642 
L 140.396736 275.106901 
L 140.599093 279.134643 
L 141.408522 244.722375 
L 141.610879 243.5104 
L 142.217951 232.641917 
L 142.420308 229.118563 
L 142.622665 228.15159 
L 143.02738 237.216148 
L 143.229737 238.540192 
L 143.432094 237.085084 
L 143.634451 234.117697 
L 144.039166 241.670483 
L 144.646238 265.503303 
L 145.050952 271.258518 
L 145.253309 273.342455 
L 145.455666 273.143731 
L 145.658024 269.938764 
L 146.062738 252.879281 
L 146.265095 242.171108 
L 146.467452 238.323674 
L 146.66981 236.791099 
L 147.479238 225.643622 
L 148.08631 241.153159 
L 148.288667 240.254754 
L 148.491024 237.285089 
L 148.895739 247.752978 
L 149.300453 261.15525 
L 149.502811 267.076945 
L 149.907525 269.955462 
L 150.109882 273.498125 
L 150.312239 273.055451 
L 150.716954 267.515697 
L 151.72874 238.156771 
L 152.133454 233.400762 
L 152.335811 231.035581 
L 152.538169 232.044623 
L 153.14524 241.350275 
L 153.347597 239.306739 
L 153.549955 240.623072 
L 153.752312 239.460134 
L 153.954669 242.089195 
L 154.764098 266.229135 
L 155.168812 270.223492 
L 155.37117 270.403634 
L 155.775884 262.206923 
L 156.585313 233.832706 
L 156.78767 227.786317 
L 157.394742 193.492698 
L 157.597099 188.695557 
L 157.799456 188.055964 
L 158.20417 196.116382 
L 158.608885 214.332071 
L 159.620671 272.198119 
L 159.823028 275.242533 
L 160.025385 275.909856 
L 160.227743 273.982641 
L 161.239529 238.758658 
L 162.048957 218.940217 
L 162.251315 218.603265 
L 163.060743 230.62581 
L 163.465458 240.774016 
L 164.072529 269.838649 
L 164.274887 274.588859 
L 164.679601 277.225221 
L 164.881958 276.484356 
L 165.084316 272.956509 
L 165.48903 257.645389 
L 165.893744 242.453293 
L 166.298459 235.866633 
L 166.90553 219.868568 
L 167.107888 216.150826 
L 167.512602 205.422971 
L 167.714959 207.165931 
L 168.119674 224.492417 
L 168.524388 246.615749 
L 168.929102 267.179687 
L 169.13146 271.449828 
L 169.333817 271.189019 
L 169.536174 271.388461 
L 169.738531 273.69465 
L 169.940888 271.439832 
L 170.143246 266.993465 
L 170.345603 259.305139 
L 170.750317 239.948966 
L 170.952675 233.152177 
L 171.357389 213.256877 
L 171.964461 201.660745 
L 172.166818 199.011324 
L 172.369175 198.560111 
L 172.571532 202.648693 
L 172.773889 209.046625 
L 172.976247 219.169282 
L 173.583318 260.225574 
L 173.988033 277.111586 
L 174.19039 279.591048 
L 174.595104 277.21766 
L 174.797461 273.312236 
L 176.213962 221.992571 
L 176.416319 219.997126 
L 177.023391 208.289559 
L 177.225748 204.980849 
L 177.428105 204.899927 
L 177.630462 208.630064 
L 178.642248 269.326387 
L 179.046963 277.366717 
L 179.24932 277.781844 
L 179.451677 276.52832 
L 179.654034 273.422135 
L 180.261106 251.952137 
L 181.879964 192.517857 
L 182.082321 189.967689 
L 182.284678 191.417585 
L 182.487035 195.148568 
L 182.689393 201.851056 
L 183.296464 248.099737 
L 183.701179 266.89508 
L 183.903536 271.198529 
L 184.105893 272.848955 
L 184.30825 273.363498 
L 184.510607 272.353949 
L 184.712965 270.681295 
L 184.915322 267.243854 
L 185.117679 259.567812 
L 186.331822 189.314934 
L 186.53418 185.25607 
L 186.736537 186.962279 
L 186.938894 191.347272 
L 187.748323 236.198295 
L 187.95068 242.537071 
L 188.557752 269.670817 
L 188.962466 274.660549 
L 189.164823 275.597062 
L 189.36718 274.813861 
L 189.771895 264.575703 
L 191.188395 205.166666 
L 191.390752 199.456293 
L 191.59311 199.109779 
L 191.795467 203.376874 
L 192.604896 240.123773 
L 193.00961 254.311331 
L 193.414325 268.578346 
L 193.819039 275.071453 
L 194.021396 276.850534 
L 194.223753 275.743075 
L 194.830825 257.094277 
L 195.437897 234.710165 
L 195.842611 224.897637 
L 196.044968 222.884168 
L 196.247325 224.504826 
L 196.65204 232.972314 
L 197.056754 241.514506 
L 197.259112 242.45436 
L 197.461469 242.515906 
L 197.663826 246.191139 
L 198.473255 274.145071 
L 198.675612 275.876824 
L 198.877969 275.157849 
L 199.080326 271.562809 
L 199.889755 237.462638 
L 200.29447 230.449669 
L 200.496827 226.740535 
L 200.901541 212.675692 
L 201.306256 205.215158 
L 201.508613 205.595434 
L 201.71097 206.514178 
L 201.913327 211.035233 
L 202.115684 218.554458 
L 202.925113 264.899808 
L 203.329828 273.608248 
L 203.532185 274.739768 
L 203.734542 275.091733 
L 203.936899 272.624581 
L 204.341614 257.581734 
L 204.746328 241.775711 
L 205.151043 232.501347 
L 205.555757 219.964559 
L 205.758114 216.585213 
L 205.960471 217.364701 
L 206.162829 218.745391 
L 206.567543 224.067836 
L 206.972257 232.296195 
L 207.984044 270.985612 
L 208.388758 275.768155 
L 208.591115 276.749426 
L 208.793472 273.585898 
L 209.198187 256.578024 
L 209.602901 241.339106 
L 210.41233 219.790105 
L 211.221759 191.92026 
L 211.424116 192.570008 
L 211.626473 197.921384 
L 211.82883 207.632254 
L 212.638259 267.778389 
L 212.840617 272.266125 
L 213.042974 274.249049 
L 213.245331 274.213781 
L 213.447688 275.282031 
L 213.650045 272.818537 
L 213.852403 267.917707 
L 214.864189 217.109114 
L 215.875975 165.231395 
L 216.078332 159.775243 
L 216.483046 167.436977 
L 216.685403 172.938567 
L 217.090118 200.902665 
L 217.494832 247.06589 
L 217.899547 269.855232 
L 218.101904 275.001884 
L 218.304261 275.337247 
L 218.708976 268.129207 
L 218.911333 260.294291 
L 219.720762 212.481349 
L 219.923119 204.540152 
L 220.327833 182.026651 
L 220.53019 181.131103 
L 220.732548 186.070374 
L 221.541976 239.838842 
L 222.351405 266.557917 
L 222.75612 271.914365 
L 223.363191 275.504316 
L 223.565549 271.278677 
L 224.374977 242.798991 
L 224.779692 236.198747 
L 225.386763 228.801421 
L 225.589121 231.727364 
L 225.993835 241.953559 
L 226.196192 243.673419 
L 226.398549 243.820439 
L 226.600907 244.996041 
L 226.803264 249.268281 
L 227.410335 271.911705 
L 227.612693 274.312454 
L 227.81505 273.523948 
L 228.017407 274.743485 
L 228.219764 272.247113 
L 229.029193 240.753674 
L 229.23155 240.184775 
L 230.040979 223.098881 
L 230.243336 222.722898 
L 230.648051 209.585725 
L 231.052765 205.828561 
L 231.255122 210.169437 
L 231.862194 251.151305 
L 232.266908 269.107793 
L 232.671623 274.949808 
L 232.87398 274.865443 
L 233.076337 272.395055 
L 234.897552 220.43823 
L 235.504624 214.022118 
L 235.706981 213.750991 
L 236.111695 225.393788 
L 237.325839 274.480786 
L 237.528196 274.725056 
L 237.730553 275.201159 
L 237.93291 273.039374 
L 238.337625 259.50062 
L 238.742339 244.730036 
L 239.551768 225.326933 
L 239.754125 223.293813 
L 240.15884 226.310006 
L 240.361197 225.418272 
L 240.563554 225.75523 
L 240.765911 228.447417 
L 241.170626 241.086452 
L 241.372983 247.90446 
L 241.777697 267.780183 
L 242.182412 275.867418 
L 242.384769 275.810722 
L 242.587126 274.549535 
L 242.789483 272.342178 
L 244.205984 227.696466 
L 245.21777 208.677954 
L 245.420127 207.936911 
L 245.622484 210.376818 
L 245.824841 219.102005 
L 246.431913 253.137821 
L 246.836627 270.379605 
L 247.038985 274.274373 
L 247.241342 275.632215 
L 247.443699 275.143168 
L 247.646056 272.528638 
L 247.848413 267.923922 
L 248.860199 230.173001 
L 249.467271 194.991866 
L 249.669628 186.609269 
L 249.871985 184.235128 
L 250.2767 189.779336 
L 250.681414 204.504413 
L 251.288486 249.165308 
L 251.6932 265.808652 
L 251.895558 271.424363 
L 252.300272 275.391161 
L 252.502629 274.900814 
L 252.907344 266.541763 
L 253.91913 215.412003 
L 254.526201 186.83348 
L 254.728558 184.918826 
L 254.930916 184.519998 
L 255.133273 188.354344 
L 255.33563 197.834476 
L 255.942702 237.051808 
L 256.549773 271.114715 
L 256.752131 276.254107 
L 256.954488 278.094113 
L 257.156845 277.838085 
L 257.561559 270.174198 
L 257.966274 256.996719 
L 259.180417 208.158422 
L 259.382774 203.309639 
L 259.585131 202.546635 
L 259.787489 203.113164 
L 259.989846 207.441305 
L 261.608704 274.175988 
L 261.811061 277.198796 
L 262.013418 277.163547 
L 262.215775 274.525204 
L 262.822847 250.661519 
L 263.834633 235.932447 
L 264.03699 237.382381 
L 264.441704 244.342226 
L 264.644062 243.985458 
L 265.048776 239.026842 
L 265.655848 252.361801 
L 266.060562 265.4895 
L 266.262919 270.114465 
L 266.667634 272.518808 
L 266.869991 271.977987 
L 267.274705 262.608369 
L 267.881777 240.20181 
L 268.893563 225.325419 
L 269.298277 230.119168 
L 269.500635 229.780513 
L 269.702992 231.464162 
L 269.905349 231.602195 
L 270.107706 233.869616 
L 270.512421 244.198503 
L 270.917135 260.938706 
L 271.119492 267.506649 
L 271.726564 272.504878 
L 271.928921 269.90372 
L 273.547779 213.476108 
L 273.952493 190.762456 
L 274.15485 188.517858 
L 274.357208 189.294631 
L 274.559565 187.850733 
L 274.761922 187.644887 
L 274.964279 193.903664 
L 275.368994 219.195758 
L 275.773708 252.371137 
L 276.178422 269.008646 
L 276.38078 272.80073 
L 276.583137 274.341193 
L 276.785494 273.038958 
L 276.987851 269.686542 
L 277.79728 233.307888 
L 277.999637 225.88422 
L 278.606709 190.607314 
L 279.011423 180.581032 
L 279.213781 182.796004 
L 279.618495 189.598449 
L 279.820852 199.589059 
L 280.427924 256.836858 
L 280.832638 276.964566 
L 281.034995 282.382554 
L 281.237353 282.480939 
L 281.43971 281.041898 
L 281.844424 268.452306 
L 282.249139 249.960824 
L 282.653853 232.351987 
L 283.463282 209.972146 
L 283.665639 200.362952 
L 283.867996 199.418284 
L 284.272711 200.969815 
L 284.677425 221.90629 
L 285.284497 258.83802 
L 285.689211 276.520214 
L 285.891568 278.714877 
L 286.093926 276.822814 
L 286.296283 276.122722 
L 286.49864 274.423718 
L 286.903354 266.681093 
L 287.510426 238.967445 
L 288.522212 197.448494 
L 288.926927 190.390675 
L 289.129284 191.893827 
L 289.331641 197.472636 
L 289.736355 222.509943 
L 290.545784 266.711895 
L 290.748141 271.543112 
L 291.152856 273.949404 
L 291.355213 273.270002 
L 291.759927 266.667028 
L 291.962285 260.431193 
L 293.378785 181.789836 
L 293.7835 178.652054 
L 293.985857 178.765856 
L 294.390571 196.385301 
L 294.795286 216.259568 
L 295.2 251.325817 
L 295.604714 269.575098 
L 296.009429 275.440373 
L 296.211786 274.823832 
L 296.6165 254.367098 
L 297.223572 213.543291 
L 297.628286 163.636518 
L 298.033001 109.77736 
L 298.235358 103.822223 
L 298.437715 104.856819 
L 298.640073 109.884549 
L 298.84243 118.160338 
L 299.854216 192.4518 
L 300.056573 220.576091 
L 300.461287 242.106784 
L 300.663645 246.07667 
L 300.866002 246.441275 
L 301.068359 244.217723 
L 301.675431 211.582943 
L 301.877788 202.247819 
L 302.687217 119.950941 
L 302.889574 113.512774 
L 303.091931 112.436643 
L 303.294288 118.689612 
L 304.913146 226.354735 
L 305.31786 246.64632 
L 305.520218 251.448705 
L 305.722575 248.936718 
L 305.924932 243.270307 
L 306.936718 191.891348 
L 307.54379 145.035522 
L 308.150861 126.291491 
L 308.353218 132.370593 
L 308.757933 160.61298 
L 308.96029 172.023485 
L 309.365005 211.461492 
L 309.769719 259.052993 
L 310.174433 275.912958 
L 310.376791 277.886412 
L 310.579148 278.241209 
L 310.781505 272.472852 
L 311.186219 246.586555 
L 311.590934 216.882427 
L 311.793291 208.293233 
L 312.60272 152.796037 
L 312.805077 148.548689 
L 313.007434 148.02201 
L 313.209791 153.015868 
L 313.412149 161.327137 
L 314.221578 217.049857 
L 314.626292 252.471232 
L 315.031006 271.308614 
L 315.233364 272.736146 
L 315.435721 271.115849 
L 315.638078 266.1056 
L 316.24515 225.360785 
L 316.447507 217.660747 
L 316.649864 216.601788 
L 317.054578 213.397513 
L 317.459293 210.474148 
L 317.66165 215.260477 
L 317.864007 225.183069 
L 318.066364 229.523936 
L 318.471079 232.190195 
L 319.685222 271.604133 
L 320.089937 276.913606 
L 320.292294 276.711986 
L 320.494651 274.534662 
L 321.101723 257.346679 
L 322.72058 196.063255 
L 322.922937 194.575785 
L 323.125295 196.981115 
L 323.327652 203.355336 
L 324.541795 267.300307 
L 324.94651 273.097582 
L 325.148867 274.631073 
L 325.351224 274.781041 
L 325.755938 267.827761 
L 326.36301 240.726291 
L 326.565367 231.338197 
L 327.172439 186.608907 
L 327.374796 181.018576 
L 327.77951 177.406082 
L 327.981868 180.596171 
L 328.386582 197.719981 
L 329.196011 257.599442 
L 329.600725 275.408802 
L 329.803083 278.279329 
L 330.00544 278.381161 
L 330.410154 264.238957 
L 331.219583 224.316334 
L 331.624297 205.00257 
L 332.029012 183.243467 
L 332.231369 179.233235 
L 332.433726 183.077 
L 333.040798 208.395237 
L 333.445512 236.704428 
L 333.647869 245.449768 
L 334.052584 268.791084 
L 334.457298 278.889636 
L 334.659655 278.889642 
L 334.862013 279.617903 
L 335.06437 275.566695 
L 335.873799 241.676122 
L 336.683228 221.233514 
L 336.885585 218.050487 
L 337.087942 218.224776 
L 337.290299 222.273599 
L 337.492656 223.456153 
L 338.504442 246.0775 
L 338.909157 265.811119 
L 339.313871 275.004351 
L 339.718586 274.659684 
L 339.920943 273.295588 
L 340.932729 237.048502 
L 341.337443 226.725044 
L 341.742158 213.914711 
L 341.944515 204.644112 
L 342.349229 198.268177 
L 342.551587 197.943787 
L 342.753944 196.418886 
L 342.956301 202.295333 
L 343.968087 266.449639 
L 344.372801 272.637512 
L 344.575159 273.17707 
L 344.777516 271.839368 
L 344.979873 267.762511 
L 345.789302 230.76817 
L 346.194016 189.816607 
L 346.801088 132.869687 
L 347.003445 127.659573 
L 347.205802 126.810071 
L 347.40816 133.467018 
L 348.217588 179.617629 
L 348.82466 251.120269 
L 349.229374 264.508787 
L 349.431732 263.797565 
L 349.634089 256.830707 
L 350.645875 198.860542 
L 351.050589 150.631299 
L 351.455304 124.397538 
L 351.657661 119.239308 
L 351.860018 117.858405 
L 352.062375 120.249132 
L 352.264733 127.603736 
L 352.871804 168.840009 
L 353.074161 184.164762 
L 353.681233 254.508005 
L 354.085947 269.513443 
L 354.490662 264.767673 
L 355.097733 234.454968 
L 355.704805 193.032826 
L 356.109519 151.388926 
L 356.514234 132.314788 
L 356.716591 130.692453 
L 357.121306 133.713812 
L 358.133092 206.230044 
L 358.537806 250.916592 
L 358.94252 267.991614 
L 359.347235 262.582789 
L 359.954306 232.458902 
L 360.359021 206.746712 
L 361.16845 118.524215 
L 361.370807 114.446204 
L 361.573164 113.80944 
L 361.775521 114.273067 
L 361.977879 117.096939 
L 362.989665 187.411062 
L 363.394379 234.143589 
L 363.799093 250.359259 
L 364.001451 248.338313 
L 364.203808 244.512182 
L 365.013237 202.184398 
L 365.822665 111.18094 
L 366.025023 106.434844 
L 366.22738 106.011535 
L 366.429737 107.635632 
L 367.036809 141.927376 
L 367.64388 180.464539 
L 368.250952 227.684532 
L 368.655666 241.161999 
L 368.858024 242.260311 
L 369.060381 238.775318 
L 369.667452 214.702297 
L 369.86981 207.646897 
L 370.274524 168.683529 
L 370.679238 132.369433 
L 371.083953 121.138189 
L 371.28631 121.297684 
L 371.691024 137.882339 
L 373.107525 227.783935 
L 373.512239 240.961603 
L 373.714597 242.063272 
L 373.916954 239.421502 
L 374.321668 229.485579 
L 374.92874 201.467141 
L 375.535811 140.922697 
L 375.738169 131.204933 
L 376.142883 127.012082 
L 376.34524 128.764001 
L 376.547597 135.712814 
L 378.166455 244.904618 
L 378.368812 245.724853 
L 378.773527 238.194612 
L 379.178241 221.759154 
L 379.582956 199.647517 
L 380.392384 119.60546 
L 380.594742 114.661063 
L 380.999456 113.65741 
L 381.40417 126.410817 
L 382.011242 164.70817 
L 382.415956 196.877327 
L 382.618314 221.344063 
L 383.225385 239.933197 
L 383.427743 240.155088 
L 383.6301 235.589427 
L 384.034814 219.249981 
L 384.237171 213.31917 
L 384.237171 213.31917 
" clip-path="url(#p8e614e7491)" style="fill: none; stroke: #ff7f0e; stroke-width: 1.5; stroke-linecap: square"/>
   </g>
   <g id="line2d_15">
    <path d="M 384.439529 207.051708 
L 384.641886 210.403758 
L 384.844243 209.517349 
L 385.451315 191.430791 
L 385.653672 193.259151 
L 385.856029 189.661245 
L 386.058386 188.912402 
L 386.260743 196.884022 
L 386.665458 204.795386 
L 386.867815 203.707435 
L 387.070172 206.640332 
L 387.272529 201.913635 
L 387.474887 201.432615 
L 388.486673 109.532853 
L 388.68903 112.05105 
L 388.891387 103.008412 
L 389.093744 105.042413 
L 389.296102 114.768374 
L 389.498459 115.973544 
L 390.10553 165.189283 
L 390.712602 241.862383 
L 390.914959 241.560074 
L 391.117316 249.330038 
L 391.319674 247.002908 
L 391.724388 240.70215 
L 392.129102 215.611107 
L 392.33146 212.908332 
L 393.343246 149.371726 
L 393.545603 147.174866 
L 393.74796 134.116386 
L 393.950317 136.40243 
L 394.152675 141.412282 
L 394.355032 139.754506 
L 394.759746 165.027872 
L 394.962103 166.489257 
L 395.366818 203.215634 
L 395.569175 207.639674 
L 395.771532 219.456497 
L 395.973889 224.621724 
L 396.176247 220.10232 
L 396.378604 227.034774 
L 396.580961 225.568773 
L 396.783318 214.57943 
L 396.985675 212.824059 
L 397.188033 212.16108 
L 397.39039 201.755106 
L 397.592747 200.707029 
L 397.997461 160.526168 
L 398.199819 157.904954 
L 398.604533 123.829401 
L 398.80689 125.210093 
L 399.009248 113.666227 
L 399.211605 110.680725 
L 399.413962 131.724807 
L 399.616319 129.021881 
L 399.818676 138.991804 
L 400.021034 165.513144 
L 400.223391 173.4564 
L 400.830462 233.416356 
L 401.03282 234.15718 
L 401.235177 244.366508 
L 401.437534 237.669939 
L 401.639891 226.218668 
L 401.842248 230.944582 
L 402.044606 224.216283 
L 402.246963 213.209776 
L 402.44932 215.486834 
L 402.854034 178.12824 
L 403.056392 175.690146 
L 403.258749 148.535707 
L 403.461106 141.173119 
L 403.663463 144.70781 
L 403.86582 123.898861 
L 404.270535 140.126502 
L 404.472892 125.735952 
L 404.877607 163.897864 
L 405.079964 159.937564 
L 405.484678 204.839878 
L 405.687035 202.111512 
L 405.889393 227.158074 
L 406.09175 238.152427 
L 406.294107 224.307328 
L 406.698821 234.146695 
L 406.901179 218.850117 
L 407.305893 221.901884 
L 407.50825 197.7572 
L 407.710607 200.199043 
L 407.912965 189.354553 
L 408.115322 155.574427 
L 408.317679 160.914625 
L 408.722393 118.273839 
L 408.924751 134.931331 
L 409.329465 107.529417 
L 409.531822 140.988345 
L 409.73418 133.49022 
L 409.936537 136.878526 
L 410.138894 178.576334 
L 410.341251 173.878177 
L 410.543608 187.054015 
L 410.745966 228.650539 
L 410.948323 226.229902 
L 411.15068 225.794848 
L 411.353037 246.337863 
L 411.555394 241.358422 
L 411.757752 220.460649 
L 411.960109 235.622488 
L 412.162466 229.196118 
L 412.364823 209.911767 
L 412.56718 218.474707 
L 412.971895 172.935875 
L 413.174252 188.002998 
L 413.376609 149.168742 
L 413.578966 136.905579 
L 413.781324 153.352378 
L 413.983681 117.257537 
L 414.186038 125.72923 
L 414.388395 148.032941 
L 414.590752 114.036223 
L 414.995467 171.750652 
L 415.197824 146.721453 
L 415.602539 207.765739 
L 415.804896 192.229862 
L 416.20961 246.114793 
L 416.411967 224.457226 
L 416.614325 230.105318 
L 416.816682 246.693446 
L 417.019039 226.012704 
L 417.221396 222.333579 
L 417.423753 233.305218 
L 417.626111 192.074205 
L 418.030825 200.346379 
L 418.233182 147.492447 
L 418.435539 162.566429 
L 418.637897 153.558003 
L 418.840254 107.834016 
L 419.042611 141.355086 
L 419.244968 132.879305 
L 419.447325 97.111477 
L 419.649683 152.126139 
L 419.85204 143.282718 
L 420.054397 128.839625 
L 420.256754 191.759124 
L 420.661469 176.087062 
L 420.863826 229.301689 
L 421.066183 227.616227 
L 421.26854 213.42287 
L 421.470898 247.920486 
L 421.673255 251.096387 
L 421.875612 217.982101 
L 422.077969 243.243193 
L 422.280326 236.118583 
L 422.482684 205.654819 
L 422.685041 226.119141 
L 423.089755 166.066617 
L 423.292112 196.423123 
L 423.696827 128.006348 
L 423.899184 166.958391 
L 424.101541 116.135481 
L 424.303898 115.262245 
L 424.506256 161.668581 
L 424.708613 112.159123 
L 424.91097 127.19683 
L 425.113327 185.003486 
L 425.315684 145.334366 
L 425.720399 226.499853 
L 425.922756 193.852378 
L 426.125113 215.253511 
L 426.327471 251.856745 
L 426.529828 220.046508 
L 426.732185 224.578331 
L 426.934542 254.760691 
L 427.136899 217.891511 
L 427.339257 217.793185 
L 427.541614 245.074876 
L 427.743971 192.974051 
L 427.946328 190.188536 
L 428.148685 211.183279 
L 428.351043 138.039034 
L 428.755757 171.011671 
L 428.958114 100.61857 
L 429.160471 141.672462 
L 429.362829 153.416097 
L 429.565186 92.565995 
L 429.767543 158.434458 
L 429.9699 161.334615 
L 430.172257 116.850478 
L 430.374615 186.392463 
L 430.576972 188.515506 
L 430.779329 154.221449 
L 430.981686 221.437813 
L 431.184044 233.074447 
L 431.386401 200.172248 
L 431.588758 243.741816 
L 431.791115 256.461069 
L 431.993472 213.190979 
L 432.19583 246.325019 
L 432.398187 245.660836 
L 432.600544 198.363787 
L 432.802901 226.728267 
L 433.005258 209.819067 
L 433.207616 158.123394 
L 433.409973 196.605489 
L 433.61233 165.574341 
L 433.814687 116.14763 
L 434.017044 171.256678 
L 434.421759 98.350352 
L 434.624116 168.423284 
L 434.826473 123.441898 
L 435.02883 113.674954 
L 435.231188 194.830003 
L 435.433545 155.35682 
L 435.635902 167.36198 
L 435.838259 228.545936 
L 436.040617 193.182063 
L 436.242974 200.984953 
L 436.445331 253.481729 
L 436.647688 222.807397 
L 436.850045 212.531725 
L 437.052403 256.834561 
L 437.25476 220.086773 
L 437.457117 215.254109 
L 437.659474 250.782183 
L 437.861831 197.008338 
L 438.064189 183.078308 
L 438.266546 216.567097 
L 438.468903 147.536552 
L 438.67126 154.702607 
L 438.873617 190.623491 
L 439.075975 108.09676 
L 439.480689 172.312074 
L 439.683046 96.238254 
L 440.087761 175.072817 
L 440.290118 107.847562 
L 440.492475 175.377422 
L 440.694832 195.334553 
L 440.897189 141.859928 
L 441.301904 230.593654 
L 441.504261 185.527877 
L 441.908976 259.835781 
L 442.111333 205.091606 
L 442.516047 258.5765 
L 442.718404 194.602026 
L 442.920762 224.327054 
L 443.123119 231.087508 
L 443.325476 155.356506 
L 443.527833 196.757798 
L 443.73019 189.41107 
L 443.932548 112.952275 
L 444.134905 166.308834 
L 444.337262 142.325047 
L 444.539619 82.772945 
L 444.741976 161.868323 
L 445.146691 92.930135 
L 445.349048 181.140298 
L 445.753762 137.927495 
L 445.95612 216.979563 
L 446.360834 182.08515 
L 446.563191 248.431575 
L 446.967906 206.9724 
L 447.170263 260.197803 
L 447.574977 212.433581 
L 447.777335 250.454981 
L 448.182049 183.419934 
L 448.384406 222.063453 
L 448.586763 170.522692 
L 448.789121 147.896648 
L 448.991478 197.774443 
L 449.193835 130.717706 
L 449.396192 128.799583 
L 449.598549 182.764635 
L 449.800907 111.176788 
L 450.003264 129.556563 
L 450.205621 188.199424 
L 450.407978 122.797695 
L 450.812693 214.181911 
L 451.01505 154.924482 
L 451.419764 240.584522 
L 451.622121 188.327467 
L 452.026836 260.946319 
L 452.229193 203.91521 
L 452.43155 225.817043 
L 452.633908 259.858769 
L 452.836265 193.850504 
L 453.038622 214.374948 
L 453.240979 246.361204 
L 453.443336 163.395074 
L 453.848051 199.634004 
L 454.050408 107.806296 
L 454.252765 152.87302 
L 454.455122 160.88572 
L 454.65748 76.847796 
L 454.859837 147.103522 
L 455.062194 147.986286 
L 455.264551 85.593255 
L 455.466908 168.982066 
L 455.669266 168.177268 
L 455.871623 121.584796 
L 456.07398 209.943589 
L 456.276337 206.817509 
L 456.478694 165.799513 
L 456.681052 239.018765 
L 456.883409 243.741258 
L 457.085766 203.008727 
L 457.288123 253.698333 
L 457.490481 250.733529 
L 457.692838 204.505747 
L 457.895195 245.809573 
L 458.097552 230.286305 
L 458.299909 180.42574 
L 458.502267 221.375307 
L 458.906981 140.27479 
L 459.109338 194.633211 
L 459.514053 113.453893 
L 459.71641 178.645422 
L 459.918767 127.096805 
L 460.121124 108.006795 
L 460.323481 189.140794 
L 460.525839 136.59959 
L 460.728196 135.617069 
L 460.930553 210.898063 
L 461.13291 159.086121 
L 461.335267 177.810556 
L 461.537625 237.716587 
L 461.739982 192.172843 
L 461.942339 197.890095 
L 462.144696 253.10635 
L 462.347053 207.34998 
L 462.549411 214.714661 
L 462.751768 256.806265 
L 462.954125 200.375583 
L 463.156482 200.720511 
L 463.35884 242.065749 
L 463.561197 176.765791 
L 463.763554 174.510652 
L 463.965911 215.331258 
L 464.168268 128.121694 
L 464.370626 150.699176 
L 464.572983 187.695403 
L 464.77534 95.019242 
L 465.180054 170.797396 
L 465.382412 86.314281 
L 465.584769 154.557254 
L 465.787126 179.81042 
L 465.989483 107.743795 
L 466.19184 183.935614 
L 466.394198 205.327354 
L 466.596555 149.786065 
L 466.798912 220.13011 
L 467.001269 245.664181 
L 467.203626 191.244732 
L 467.608341 262.968094 
L 467.810698 202.330319 
L 468.013055 237.918537 
L 468.215413 253.622937 
L 468.41777 182.962971 
L 468.620127 219.914173 
L 468.822484 222.082827 
L 469.024841 141.766836 
L 469.227199 189.519531 
L 469.429556 175.534236 
L 469.631913 102.573249 
L 469.83427 167.683992 
L 470.036627 142.073069 
L 470.238985 84.002337 
L 470.441342 169.570711 
L 470.846056 103.969858 
L 471.048413 194.002717 
L 471.453128 145.643662 
L 471.655485 222.883755 
L 472.060199 186.641856 
L 472.262557 252.298261 
L 472.667271 207.916605 
L 472.869628 260.322216 
L 473.274343 207.730379 
L 473.4767 248.096661 
L 473.881414 176.069953 
L 474.083772 217.518482 
L 474.286129 159.615222 
L 474.488486 143.028202 
L 474.690843 196.019654 
L 474.8932 123.378769 
L 475.095558 128.008795 
L 475.297915 184.020087 
L 475.500272 109.248772 
L 475.702629 132.846805 
L 475.904986 192.233255 
L 476.107344 123.387836 
L 476.512058 216.849689 
L 476.714415 157.923523 
L 477.11913 243.463719 
L 477.321487 190.023421 
L 477.726201 263.038784 
L 477.928558 202.875387 
L 478.333273 260.026434 
L 478.53563 190.362682 
L 478.940345 241.132613 
L 479.142702 152.038551 
L 479.345059 181.280561 
L 479.547416 193.951351 
L 479.749773 101.411113 
L 479.952131 150.942626 
L 480.154488 156.753493 
L 480.356845 74.467161 
L 480.559202 150.998002 
L 480.761559 148.036959 
L 480.963917 88.320934 
L 481.166274 173.730392 
L 481.368631 170.110398 
L 481.570988 126.647763 
L 481.773345 213.70152 
L 481.975703 209.961071 
L 482.17806 170.207088 
L 482.380417 241.106517 
L 482.582774 243.489754 
L 482.785131 204.06782 
L 482.987489 254.969978 
L 483.189846 249.455579 
L 483.392203 204.513127 
L 483.59456 244.68851 
L 483.796917 224.94454 
L 483.999275 177.290717 
L 484.201632 219.002414 
L 484.606346 137.973675 
L 484.808704 193.301087 
L 485.213418 113.790262 
L 485.415775 180.062417 
L 485.618132 126.260939 
L 485.82049 110.637851 
L 486.022847 191.647219 
L 486.225204 137.272103 
L 486.427561 141.310001 
L 486.629918 213.474895 
L 486.832276 160.932701 
L 487.034633 180.447831 
L 487.23699 239.518727 
L 487.439347 193.349826 
L 487.641704 200.061772 
L 487.844062 253.921605 
L 488.046419 205.463871 
L 488.248776 216.507068 
L 488.451133 256.280524 
L 488.65349 198.062598 
L 488.855848 198.567369 
L 489.058205 240.129639 
L 489.260562 171.43341 
L 489.462919 173.40541 
L 489.665277 214.014097 
L 489.867634 123.701143 
L 490.272348 184.400586 
L 490.474705 91.640305 
L 490.87942 169.762473 
L 491.081777 85.828214 
L 491.284134 157.486393 
L 491.486491 178.688085 
L 491.688849 109.208851 
L 491.891206 187.421632 
L 492.093563 207.365647 
L 492.29592 152.701247 
L 492.498277 223.767822 
L 492.700635 247.027261 
L 492.902992 193.585979 
L 493.307706 263.446785 
L 493.510063 202.339971 
L 493.712421 238.675389 
L 493.914778 249.818982 
L 494.117135 181.219261 
L 494.319492 219.601966 
L 494.52185 218.599792 
L 494.724207 140.308668 
L 494.926564 189.233742 
L 495.128921 171.242081 
L 495.331278 101.814391 
L 495.533636 168.449501 
L 495.735993 139.664028 
L 495.93835 86.322919 
L 496.140707 172.165131 
L 496.545422 107.803361 
L 496.747779 196.84507 
L 496.950136 164.501924 
L 497.152493 150.431896 
L 497.35485 225.231976 
L 497.557208 200.586552 
L 497.759565 189.823332 
L 497.961922 253.615635 
L 498.366636 208.902042 
L 498.568994 260.201997 
L 498.973708 207.280305 
L 499.176065 246.739184 
L 499.58078 174.2745 
L 499.783137 216.079344 
L 499.985494 155.3418 
L 500.187851 142.975543 
L 500.390209 195.78241 
L 500.592566 119.924784 
L 500.794923 129.684436 
L 500.99728 183.204835 
L 501.199637 106.9565 
L 501.401995 135.927128 
L 501.604352 192.433191 
L 501.806709 122.513428 
L 502.211423 215.800782 
L 502.413781 157.357302 
L 502.818495 244.739997 
L 503.020852 191.181198 
L 503.425567 263.134573 
L 503.627924 202.343192 
L 504.032638 260.604305 
L 504.234995 189.459637 
L 504.63971 238.013218 
L 504.842067 147.270585 
L 505.044424 180.624304 
L 505.246782 190.594781 
L 505.449139 98.990513 
L 505.651496 151.445174 
L 505.853853 153.429649 
L 506.05621 74.147645 
L 506.258568 153.785427 
L 506.460925 147.505519 
L 506.663282 90.020398 
L 506.865639 177.401229 
L 507.067996 170.451396 
L 507.270354 129.932468 
L 507.472711 215.52901 
L 507.675068 210.298513 
L 507.877425 173.035439 
L 508.079782 243.596328 
L 508.28214 242.705932 
L 508.484497 205.712931 
L 508.686854 256.5555 
L 508.889211 248.166329 
L 509.091568 205.226836 
L 509.293926 244.724061 
L 509.496283 219.835112 
L 509.69864 176.64255 
L 509.900997 218.004894 
L 510.305712 137.772574 
L 510.508069 192.884565 
L 510.912783 115.569715 
L 511.115141 181.697122 
L 511.317498 124.673892 
L 511.519855 114.24691 
L 511.722212 193.336126 
L 511.924569 136.870375 
L 512.126927 146.478452 
L 512.329284 215.309356 
L 512.531641 161.569369 
L 512.733998 183.235644 
L 512.936355 240.441694 
L 513.138713 192.814581 
L 513.34107 202.683192 
L 513.543427 254.01808 
L 513.745784 203.416203 
L 513.948141 218.245411 
L 514.150499 257.383706 
L 514.352856 196.769356 
L 514.555213 199.099825 
L 514.75757 240.338535 
L 514.959927 168.256836 
L 515.162285 174.419921 
L 515.364642 210.973852 
L 515.566999 117.737926 
L 515.971714 180.031394 
L 516.174071 87.684438 
L 516.578785 165.952518 
L 516.781142 85.030833 
L 516.9835 160.829946 
L 517.185857 177.397243 
L 517.388214 111.291731 
L 517.590571 191.981603 
L 517.792928 208.619471 
L 517.995286 156.356494 
L 518.197643 228.324881 
L 518.4 248.453682 
L 518.4 248.453682 
" clip-path="url(#p8e614e7491)" style="fill: none; stroke: #2ca02c; stroke-width: 1.5; stroke-linecap: square"/>
   </g>
   <g id="patch_3">
    <path d="M 72 320.4 
L 72 43.2 
" style="fill: none; stroke: #000000; stroke-width: 0.8; stroke-linejoin: miter; stroke-linecap: square"/>
   </g>
   <g id="patch_4">
    <path d="M 518.4 320.4 
L 518.4 43.2 
" style="fill: none; stroke: #000000; stroke-width: 0.8; stroke-linejoin: miter; stroke-linecap: square"/>
   </g>
   <g id="patch_5">
    <path d="M 72 320.4 
L 518.4 320.4 
" style="fill: none; stroke: #000000; stroke-width: 0.8; stroke-linejoin: miter; stroke-linecap: square"/>
   </g>
   <g id="patch_6">
    <path d="M 72 43.2 
L 518.4 43.2 
" style="fill: none; stroke: #000000; stroke-width: 0.8; stroke-linejoin: miter; stroke-linecap: square"/>
   </g>
   <g id="text_13">
    <!-- Classic Transformer - model_20231126185933 -->
    <g transform="translate(155.436563 37.2) scale(0.12 -0.12)">
     <defs>
      <path id="DejaVuSans-43" d="M 4122 4306 
L 4122 3641 
Q 3803 3938 3442 4084 
Q 3081 4231 2675 4231 
Q 1875 4231 1450 3742 
Q 1025 3253 1025 2328 
Q 1025 1406 1450 917 
Q 1875 428 2675 428 
Q 3081 428 3442 575 
Q 3803 722 4122 1019 
L 4122 359 
Q 3791 134 3420 21 
Q 3050 -91 2638 -91 
Q 1578 -91 968 557 
Q 359 1206 359 2328 
Q 359 3453 968 4101 
Q 1578 4750 2638 4750 
Q 3056 4750 3426 4639 
Q 3797 4528 4122 4306 
z
" transform="scale(0.015625)"/>
      <path id="DejaVuSans-6c" d="M 603 4863 
L 1178 4863 
L 1178 0 
L 603 0 
L 603 4863 
z
" transform="scale(0.015625)"/>
      <path id="DejaVuSans-61" d="M 2194 1759 
Q 1497 1759 1228 1600 
Q 959 1441 959 1056 
Q 959 750 1161 570 
Q 1363 391 1709 391 
Q 2188 391 2477 730 
Q 2766 1069 2766 1631 
L 2766 1759 
L 2194 1759 
z
M 3341 1997 
L 3341 0 
L 2766 0 
L 2766 531 
Q 2569 213 2275 61 
Q 1981 -91 1556 -91 
Q 1019 -91 701 211 
Q 384 513 384 1019 
Q 384 1609 779 1909 
Q 1175 2209 1959 2209 
L 2766 2209 
L 2766 2266 
Q 2766 2663 2505 2880 
Q 2244 3097 1772 3097 
Q 1472 3097 1187 3025 
Q 903 2953 641 2809 
L 641 3341 
Q 956 3463 1253 3523 
Q 1550 3584 1831 3584 
Q 2591 3584 2966 3190 
Q 3341 2797 3341 1997 
z
" transform="scale(0.015625)"/>
      <path id="DejaVuSans-73" d="M 2834 3397 
L 2834 2853 
Q 2591 2978 2328 3040 
Q 2066 3103 1784 3103 
Q 1356 3103 1142 2972 
Q 928 2841 928 2578 
Q 928 2378 1081 2264 
Q 1234 2150 1697 2047 
L 1894 2003 
Q 2506 1872 2764 1633 
Q 3022 1394 3022 966 
Q 3022 478 2636 193 
Q 2250 -91 1575 -91 
Q 1294 -91 989 -36 
Q 684 19 347 128 
L 347 722 
Q 666 556 975 473 
Q 1284 391 1588 391 
Q 1994 391 2212 530 
Q 2431 669 2431 922 
Q 2431 1156 2273 1281 
Q 2116 1406 1581 1522 
L 1381 1569 
Q 847 1681 609 1914 
Q 372 2147 372 2553 
Q 372 3047 722 3315 
Q 1072 3584 1716 3584 
Q 2034 3584 2315 3537 
Q 2597 3491 2834 3397 
z
" transform="scale(0.015625)"/>
      <path id="DejaVuSans-69" d="M 603 3500 
L 1178 3500 
L 1178 0 
L 603 0 
L 603 3500 
z
M 603 4863 
L 1178 4863 
L 1178 4134 
L 603 4134 
L 603 4863 
z
" transform="scale(0.015625)"/>
      <path id="DejaVuSans-63" d="M 3122 3366 
L 3122 2828 
Q 2878 2963 2633 3030 
Q 2388 3097 2138 3097 
Q 1578 3097 1268 2742 
Q 959 2388 959 1747 
Q 959 1106 1268 751 
Q 1578 397 2138 397 
Q 2388 397 2633 464 
Q 2878 531 3122 666 
L 3122 134 
Q 2881 22 2623 -34 
Q 2366 -91 2075 -91 
Q 1284 -91 818 406 
Q 353 903 353 1747 
Q 353 2603 823 3093 
Q 1294 3584 2113 3584 
Q 2378 3584 2631 3529 
Q 2884 3475 3122 3366 
z
" transform="scale(0.015625)"/>
      <path id="DejaVuSans-20" transform="scale(0.015625)"/>
      <path id="DejaVuSans-54" d="M -19 4666 
L 3928 4666 
L 3928 4134 
L 2272 4134 
L 2272 0 
L 1638 0 
L 1638 4134 
L -19 4134 
L -19 4666 
z
" transform="scale(0.015625)"/>
      <path id="DejaVuSans-72" d="M 2631 2963 
Q 2534 3019 2420 3045 
Q 2306 3072 2169 3072 
Q 1681 3072 1420 2755 
Q 1159 2438 1159 1844 
L 1159 0 
L 581 0 
L 581 3500 
L 1159 3500 
L 1159 2956 
Q 1341 3275 1631 3429 
Q 1922 3584 2338 3584 
Q 2397 3584 2469 3576 
Q 2541 3569 2628 3553 
L 2631 2963 
z
" transform="scale(0.015625)"/>
      <path id="DejaVuSans-6e" d="M 3513 2113 
L 3513 0 
L 2938 0 
L 2938 2094 
Q 2938 2591 2744 2837 
Q 2550 3084 2163 3084 
Q 1697 3084 1428 2787 
Q 1159 2491 1159 1978 
L 1159 0 
L 581 0 
L 581 3500 
L 1159 3500 
L 1159 2956 
Q 1366 3272 1645 3428 
Q 1925 3584 2291 3584 
Q 2894 3584 3203 3211 
Q 3513 2838 3513 2113 
z
" transform="scale(0.015625)"/>
      <path id="DejaVuSans-66" d="M 2375 4863 
L 2375 4384 
L 1825 4384 
Q 1516 4384 1395 4259 
Q 1275 4134 1275 3809 
L 1275 3500 
L 2222 3500 
L 2222 3053 
L 1275 3053 
L 1275 0 
L 697 0 
L 697 3053 
L 147 3053 
L 147 3500 
L 697 3500 
L 697 3744 
Q 697 4328 969 4595 
Q 1241 4863 1831 4863 
L 2375 4863 
z
" transform="scale(0.015625)"/>
      <path id="DejaVuSans-6f" d="M 1959 3097 
Q 1497 3097 1228 2736 
Q 959 2375 959 1747 
Q 959 1119 1226 758 
Q 1494 397 1959 397 
Q 2419 397 2687 759 
Q 2956 1122 2956 1747 
Q 2956 2369 2687 2733 
Q 2419 3097 1959 3097 
z
M 1959 3584 
Q 2709 3584 3137 3096 
Q 3566 2609 3566 1747 
Q 3566 888 3137 398 
Q 2709 -91 1959 -91 
Q 1206 -91 779 398 
Q 353 888 353 1747 
Q 353 2609 779 3096 
Q 1206 3584 1959 3584 
z
" transform="scale(0.015625)"/>
      <path id="DejaVuSans-6d" d="M 3328 2828 
Q 3544 3216 3844 3400 
Q 4144 3584 4550 3584 
Q 5097 3584 5394 3201 
Q 5691 2819 5691 2113 
L 5691 0 
L 5113 0 
L 5113 2094 
Q 5113 2597 4934 2840 
Q 4756 3084 4391 3084 
Q 3944 3084 3684 2787 
Q 3425 2491 3425 1978 
L 3425 0 
L 2847 0 
L 2847 2094 
Q 2847 2600 2669 2842 
Q 2491 3084 2119 3084 
Q 1678 3084 1418 2786 
Q 1159 2488 1159 1978 
L 1159 0 
L 581 0 
L 581 3500 
L 1159 3500 
L 1159 2956 
Q 1356 3278 1631 3431 
Q 1906 3584 2284 3584 
Q 2666 3584 2933 3390 
Q 3200 3197 3328 2828 
z
" transform="scale(0.015625)"/>
      <path id="DejaVuSans-65" d="M 3597 1894 
L 3597 1613 
L 953 1613 
Q 991 1019 1311 708 
Q 1631 397 2203 397 
Q 2534 397 2845 478 
Q 3156 559 3463 722 
L 3463 178 
Q 3153 47 2828 -22 
Q 2503 -91 2169 -91 
Q 1331 -91 842 396 
Q 353 884 353 1716 
Q 353 2575 817 3079 
Q 1281 3584 2069 3584 
Q 2775 3584 3186 3129 
Q 3597 2675 3597 1894 
z
M 3022 2063 
Q 3016 2534 2758 2815 
Q 2500 3097 2075 3097 
Q 1594 3097 1305 2825 
Q 1016 2553 972 2059 
L 3022 2063 
z
" transform="scale(0.015625)"/>
      <path id="DejaVuSans-64" d="M 2906 2969 
L 2906 4863 
L 3481 4863 
L 3481 0 
L 2906 0 
L 2906 525 
Q 2725 213 2448 61 
Q 2172 -91 1784 -91 
Q 1150 -91 751 415 
Q 353 922 353 1747 
Q 353 2572 751 3078 
Q 1150 3584 1784 3584 
Q 2172 3584 2448 3432 
Q 2725 3281 2906 2969 
z
M 947 1747 
Q 947 1113 1208 752 
Q 1469 391 1925 391 
Q 2381 391 2643 752 
Q 2906 1113 2906 1747 
Q 2906 2381 2643 2742 
Q 2381 3103 1925 3103 
Q 1469 3103 1208 2742 
Q 947 2381 947 1747 
z
" transform="scale(0.015625)"/>
      <path id="DejaVuSans-5f" d="M 3263 -1063 
L 3263 -1509 
L -63 -1509 
L -63 -1063 
L 3263 -1063 
z
" transform="scale(0.015625)"/>
      <path id="DejaVuSans-39" d="M 703 97 
L 703 672 
Q 941 559 1184 500 
Q 1428 441 1663 441 
Q 2288 441 2617 861 
Q 2947 1281 2994 2138 
Q 2813 1869 2534 1725 
Q 2256 1581 1919 1581 
Q 1219 1581 811 2004 
Q 403 2428 403 3163 
Q 403 3881 828 4315 
Q 1253 4750 1959 4750 
Q 2769 4750 3195 4129 
Q 3622 3509 3622 2328 
Q 3622 1225 3098 567 
Q 2575 -91 1691 -91 
Q 1453 -91 1209 -44 
Q 966 3 703 97 
z
M 1959 2075 
Q 2384 2075 2632 2365 
Q 2881 2656 2881 3163 
Q 2881 3666 2632 3958 
Q 2384 4250 1959 4250 
Q 1534 4250 1286 3958 
Q 1038 3666 1038 3163 
Q 1038 2656 1286 2365 
Q 1534 2075 1959 2075 
z
" transform="scale(0.015625)"/>
     </defs>
     <use xlink:href="#DejaVuSans-43"/>
     <use xlink:href="#DejaVuSans-6c" x="69.824219"/>
     <use xlink:href="#DejaVuSans-61" x="97.607422"/>
     <use xlink:href="#DejaVuSans-73" x="158.886719"/>
     <use xlink:href="#DejaVuSans-73" x="210.986328"/>
     <use xlink:href="#DejaVuSans-69" x="263.085938"/>
     <use xlink:href="#DejaVuSans-63" x="290.869141"/>
     <use xlink:href="#DejaVuSans-20" x="345.849609"/>
     <use xlink:href="#DejaVuSans-54" x="377.636719"/>
     <use xlink:href="#DejaVuSans-72" x="423.970703"/>
     <use xlink:href="#DejaVuSans-61" x="465.083984"/>
     <use xlink:href="#DejaVuSans-6e" x="526.363281"/>
     <use xlink:href="#DejaVuSans-73" x="589.742188"/>
     <use xlink:href="#DejaVuSans-66" x="641.841797"/>
     <use xlink:href="#DejaVuSans-6f" x="677.046875"/>
     <use xlink:href="#DejaVuSans-72" x="738.228516"/>
     <use xlink:href="#DejaVuSans-6d" x="777.591797"/>
     <use xlink:href="#DejaVuSans-65" x="875.003906"/>
     <use xlink:href="#DejaVuSans-72" x="936.527344"/>
     <use xlink:href="#DejaVuSans-20" x="977.640625"/>
     <use xlink:href="#DejaVuSans-2d" x="1009.427734"/>
     <use xlink:href="#DejaVuSans-20" x="1045.511719"/>
     <use xlink:href="#DejaVuSans-6d" x="1077.298828"/>
     <use xlink:href="#DejaVuSans-6f" x="1174.710938"/>
     <use xlink:href="#DejaVuSans-64" x="1235.892578"/>
     <use xlink:href="#DejaVuSans-65" x="1299.369141"/>
     <use xlink:href="#DejaVuSans-6c" x="1360.892578"/>
     <use xlink:href="#DejaVuSans-5f" x="1388.675781"/>
     <use xlink:href="#DejaVuSans-32" x="1438.675781"/>
     <use xlink:href="#DejaVuSans-30" x="1502.298828"/>
     <use xlink:href="#DejaVuSans-32" x="1565.921875"/>
     <use xlink:href="#DejaVuSans-33" x="1629.544922"/>
     <use xlink:href="#DejaVuSans-31" x="1693.167969"/>
     <use xlink:href="#DejaVuSans-31" x="1756.791016"/>
     <use xlink:href="#DejaVuSans-32" x="1820.414062"/>
     <use xlink:href="#DejaVuSans-36" x="1884.037109"/>
     <use xlink:href="#DejaVuSans-31" x="1947.660156"/>
     <use xlink:href="#DejaVuSans-38" x="2011.283203"/>
     <use xlink:href="#DejaVuSans-35" x="2074.90625"/>
     <use xlink:href="#DejaVuSans-39" x="2138.529297"/>
     <use xlink:href="#DejaVuSans-33" x="2202.152344"/>
     <use xlink:href="#DejaVuSans-33" x="2265.775391"/>
    </g>
   </g>
   <g id="legend_1">
    <g id="patch_7">
     <path d="M 79 95.234375 
L 161.517188 95.234375 
Q 163.517188 95.234375 163.517188 93.234375 
L 163.517188 50.2 
Q 163.517188 48.2 161.517188 48.2 
L 79 48.2 
Q 77 48.2 77 50.2 
L 77 93.234375 
Q 77 95.234375 79 95.234375 
z
" style="fill: #ffffff; opacity: 0.8; stroke: #cccccc; stroke-linejoin: miter"/>
    </g>
    <g id="line2d_16">
     <path d="M 81 56.298437 
L 91 56.298437 
L 101 56.298437 
" style="fill: none; stroke: #1f77b4; stroke-width: 1.5; stroke-linecap: square"/>
    </g>
    <g id="text_14">
     <!-- Measured -->
     <g transform="translate(109 59.798437) scale(0.1 -0.1)">
      <defs>
       <path id="DejaVuSans-4d" d="M 628 4666 
L 1569 4666 
L 2759 1491 
L 3956 4666 
L 4897 4666 
L 4897 0 
L 4281 0 
L 4281 4097 
L 3078 897 
L 2444 897 
L 1241 4097 
L 1241 0 
L 628 0 
L 628 4666 
z
" transform="scale(0.015625)"/>
       <path id="DejaVuSans-75" d="M 544 1381 
L 544 3500 
L 1119 3500 
L 1119 1403 
Q 1119 906 1312 657 
Q 1506 409 1894 409 
Q 2359 409 2629 706 
Q 2900 1003 2900 1516 
L 2900 3500 
L 3475 3500 
L 3475 0 
L 2900 0 
L 2900 538 
Q 2691 219 2414 64 
Q 2138 -91 1772 -91 
Q 1169 -91 856 284 
Q 544 659 544 1381 
z
M 1991 3584 
L 1991 3584 
z
" transform="scale(0.015625)"/>
      </defs>
      <use xlink:href="#DejaVuSans-4d"/>
      <use xlink:href="#DejaVuSans-65" x="86.279297"/>
      <use xlink:href="#DejaVuSans-61" x="147.802734"/>
      <use xlink:href="#DejaVuSans-73" x="209.082031"/>
      <use xlink:href="#DejaVuSans-75" x="261.181641"/>
      <use xlink:href="#DejaVuSans-72" x="324.560547"/>
      <use xlink:href="#DejaVuSans-65" x="363.423828"/>
      <use xlink:href="#DejaVuSans-64" x="424.947266"/>
     </g>
    </g>
    <g id="line2d_17">
     <path d="M 81 70.976562 
L 91 70.976562 
L 101 70.976562 
" style="fill: none; stroke: #ff7f0e; stroke-width: 1.5; stroke-linecap: square"/>
    </g>
    <g id="text_15">
     <!-- Fitted -->
     <g transform="translate(109 74.476562) scale(0.1 -0.1)">
      <defs>
       <path id="DejaVuSans-46" d="M 628 4666 
L 3309 4666 
L 3309 4134 
L 1259 4134 
L 1259 2759 
L 3109 2759 
L 3109 2228 
L 1259 2228 
L 1259 0 
L 628 0 
L 628 4666 
z
" transform="scale(0.015625)"/>
       <path id="DejaVuSans-74" d="M 1172 4494 
L 1172 3500 
L 2356 3500 
L 2356 3053 
L 1172 3053 
L 1172 1153 
Q 1172 725 1289 603 
Q 1406 481 1766 481 
L 2356 481 
L 2356 0 
L 1766 0 
Q 1100 0 847 248 
Q 594 497 594 1153 
L 594 3053 
L 172 3053 
L 172 3500 
L 594 3500 
L 594 4494 
L 1172 4494 
z
" transform="scale(0.015625)"/>
      </defs>
      <use xlink:href="#DejaVuSans-46"/>
      <use xlink:href="#DejaVuSans-69" x="50.269531"/>
      <use xlink:href="#DejaVuSans-74" x="78.052734"/>
      <use xlink:href="#DejaVuSans-74" x="117.261719"/>
      <use xlink:href="#DejaVuSans-65" x="156.470703"/>
      <use xlink:href="#DejaVuSans-64" x="217.994141"/>
     </g>
    </g>
    <g id="line2d_18">
     <path d="M 81 85.654687 
L 91 85.654687 
L 101 85.654687 
" style="fill: none; stroke: #2ca02c; stroke-width: 1.5; stroke-linecap: square"/>
    </g>
    <g id="text_16">
     <!-- Estimated -->
     <g transform="translate(109 89.154687) scale(0.1 -0.1)">
      <defs>
       <path id="DejaVuSans-45" d="M 628 4666 
L 3578 4666 
L 3578 4134 
L 1259 4134 
L 1259 2753 
L 3481 2753 
L 3481 2222 
L 1259 2222 
L 1259 531 
L 3634 531 
L 3634 0 
L 628 0 
L 628 4666 
z
" transform="scale(0.015625)"/>
      </defs>
      <use xlink:href="#DejaVuSans-45"/>
      <use xlink:href="#DejaVuSans-73" x="63.183594"/>
      <use xlink:href="#DejaVuSans-74" x="115.283203"/>
      <use xlink:href="#DejaVuSans-69" x="154.492188"/>
      <use xlink:href="#DejaVuSans-6d" x="182.275391"/>
      <use xlink:href="#DejaVuSans-61" x="279.6875"/>
      <use xlink:href="#DejaVuSans-74" x="340.966797"/>
      <use xlink:href="#DejaVuSans-65" x="380.175781"/>
      <use xlink:href="#DejaVuSans-64" x="441.699219"/>
     </g>
    </g>
   </g>
  </g>
 </g>
 <defs>
  <clipPath id="p8e614e7491">
   <rect x="72" y="43.2" width="446.4" height="277.2"/>
  </clipPath>
 </defs>
</svg>
