<?xml version="1.0" encoding="utf-8" standalone="no"?>
<!DOCTYPE svg PUBLIC "-//W3C//DTD SVG 1.1//EN"
  "http://www.w3.org/Graphics/SVG/1.1/DTD/svg11.dtd">
<svg xmlns:xlink="http://www.w3.org/1999/xlink" width="576pt" height="360pt" viewBox="0 0 576 360" xmlns="http://www.w3.org/2000/svg" version="1.1">
 <metadata>
  <rdf:RDF xmlns:dc="http://purl.org/dc/elements/1.1/" xmlns:cc="http://creativecommons.org/ns#" xmlns:rdf="http://www.w3.org/1999/02/22-rdf-syntax-ns#">
   <cc:Work>
    <dc:type rdf:resource="http://purl.org/dc/dcmitype/StillImage"/>
    <dc:date>2023-11-26T15:58:57.983872</dc:date>
    <dc:format>image/svg+xml</dc:format>
    <dc:creator>
     <cc:Agent>
      <dc:title>Matplotlib v3.8.1, https://matplotlib.org/</dc:title>
     </cc:Agent>
    </dc:creator>
   </cc:Work>
  </rdf:RDF>
 </metadata>
 <defs>
  <style type="text/css">*{stroke-linejoin: round; stroke-linecap: butt}</style>
 </defs>
 <g id="figure_1">
  <g id="patch_1">
   <path d="M 0 360 
L 576 360 
L 576 0 
L 0 0 
z
" style="fill: #ffffff"/>
  </g>
  <g id="axes_1">
   <g id="patch_2">
    <path d="M 72 320.4 
L 518.4 320.4 
L 518.4 43.2 
L 72 43.2 
z
" style="fill: #ffffff"/>
   </g>
   <g id="matplotlib.axis_1">
    <g id="xtick_1">
     <g id="line2d_1">
      <defs>
       <path id="mb0112f10e6" d="M 0 0 
L 0 3.5 
" style="stroke: #000000; stroke-width: 0.8"/>
      </defs>
      <g>
       <use xlink:href="#mb0112f10e6" x="129.874161" y="320.4" style="stroke: #000000; stroke-width: 0.8"/>
      </g>
     </g>
     <g id="text_1">
      <!-- 2020-05-15 -->
      <g transform="translate(100.816349 334.998438) scale(0.1 -0.1)">
       <defs>
        <path id="DejaVuSans-32" d="M 1228 531 
L 3431 531 
L 3431 0 
L 469 0 
L 469 531 
Q 828 903 1448 1529 
Q 2069 2156 2228 2338 
Q 2531 2678 2651 2914 
Q 2772 3150 2772 3378 
Q 2772 3750 2511 3984 
Q 2250 4219 1831 4219 
Q 1534 4219 1204 4116 
Q 875 4013 500 3803 
L 500 4441 
Q 881 4594 1212 4672 
Q 1544 4750 1819 4750 
Q 2544 4750 2975 4387 
Q 3406 4025 3406 3419 
Q 3406 3131 3298 2873 
Q 3191 2616 2906 2266 
Q 2828 2175 2409 1742 
Q 1991 1309 1228 531 
z
" transform="scale(0.015625)"/>
        <path id="DejaVuSans-30" d="M 2034 4250 
Q 1547 4250 1301 3770 
Q 1056 3291 1056 2328 
Q 1056 1369 1301 889 
Q 1547 409 2034 409 
Q 2525 409 2770 889 
Q 3016 1369 3016 2328 
Q 3016 3291 2770 3770 
Q 2525 4250 2034 4250 
z
M 2034 4750 
Q 2819 4750 3233 4129 
Q 3647 3509 3647 2328 
Q 3647 1150 3233 529 
Q 2819 -91 2034 -91 
Q 1250 -91 836 529 
Q 422 1150 422 2328 
Q 422 3509 836 4129 
Q 1250 4750 2034 4750 
z
" transform="scale(0.015625)"/>
        <path id="DejaVuSans-2d" d="M 313 2009 
L 1997 2009 
L 1997 1497 
L 313 1497 
L 313 2009 
z
" transform="scale(0.015625)"/>
        <path id="DejaVuSans-35" d="M 691 4666 
L 3169 4666 
L 3169 4134 
L 1269 4134 
L 1269 2991 
Q 1406 3038 1543 3061 
Q 1681 3084 1819 3084 
Q 2600 3084 3056 2656 
Q 3513 2228 3513 1497 
Q 3513 744 3044 326 
Q 2575 -91 1722 -91 
Q 1428 -91 1123 -41 
Q 819 9 494 109 
L 494 744 
Q 775 591 1075 516 
Q 1375 441 1709 441 
Q 2250 441 2565 725 
Q 2881 1009 2881 1497 
Q 2881 1984 2565 2268 
Q 2250 2553 1709 2553 
Q 1456 2553 1204 2497 
Q 953 2441 691 2322 
L 691 4666 
z
" transform="scale(0.015625)"/>
        <path id="DejaVuSans-31" d="M 794 531 
L 1825 531 
L 1825 4091 
L 703 3866 
L 703 4441 
L 1819 4666 
L 2450 4666 
L 2450 531 
L 3481 531 
L 3481 0 
L 794 0 
L 794 531 
z
" transform="scale(0.015625)"/>
       </defs>
       <use xlink:href="#DejaVuSans-32"/>
       <use xlink:href="#DejaVuSans-30" x="63.623047"/>
       <use xlink:href="#DejaVuSans-32" x="127.246094"/>
       <use xlink:href="#DejaVuSans-30" x="190.869141"/>
       <use xlink:href="#DejaVuSans-2d" x="254.492188"/>
       <use xlink:href="#DejaVuSans-30" x="290.576172"/>
       <use xlink:href="#DejaVuSans-35" x="354.199219"/>
       <use xlink:href="#DejaVuSans-2d" x="417.822266"/>
       <use xlink:href="#DejaVuSans-31" x="453.90625"/>
       <use xlink:href="#DejaVuSans-35" x="517.529297"/>
      </g>
     </g>
    </g>
    <g id="xtick_2">
     <g id="line2d_2">
      <g>
       <use xlink:href="#mb0112f10e6" x="212.435902" y="320.4" style="stroke: #000000; stroke-width: 0.8"/>
      </g>
     </g>
     <g id="text_2">
      <!-- 2020-06-01 -->
      <g transform="translate(183.37809 334.998438) scale(0.1 -0.1)">
       <defs>
        <path id="DejaVuSans-36" d="M 2113 2584 
Q 1688 2584 1439 2293 
Q 1191 2003 1191 1497 
Q 1191 994 1439 701 
Q 1688 409 2113 409 
Q 2538 409 2786 701 
Q 3034 994 3034 1497 
Q 3034 2003 2786 2293 
Q 2538 2584 2113 2584 
z
M 3366 4563 
L 3366 3988 
Q 3128 4100 2886 4159 
Q 2644 4219 2406 4219 
Q 1781 4219 1451 3797 
Q 1122 3375 1075 2522 
Q 1259 2794 1537 2939 
Q 1816 3084 2150 3084 
Q 2853 3084 3261 2657 
Q 3669 2231 3669 1497 
Q 3669 778 3244 343 
Q 2819 -91 2113 -91 
Q 1303 -91 875 529 
Q 447 1150 447 2328 
Q 447 3434 972 4092 
Q 1497 4750 2381 4750 
Q 2619 4750 2861 4703 
Q 3103 4656 3366 4563 
z
" transform="scale(0.015625)"/>
       </defs>
       <use xlink:href="#DejaVuSans-32"/>
       <use xlink:href="#DejaVuSans-30" x="63.623047"/>
       <use xlink:href="#DejaVuSans-32" x="127.246094"/>
       <use xlink:href="#DejaVuSans-30" x="190.869141"/>
       <use xlink:href="#DejaVuSans-2d" x="254.492188"/>
       <use xlink:href="#DejaVuSans-30" x="290.576172"/>
       <use xlink:href="#DejaVuSans-36" x="354.199219"/>
       <use xlink:href="#DejaVuSans-2d" x="417.822266"/>
       <use xlink:href="#DejaVuSans-30" x="453.90625"/>
       <use xlink:href="#DejaVuSans-31" x="517.529297"/>
      </g>
     </g>
    </g>
    <g id="xtick_3">
     <g id="line2d_3">
      <g>
       <use xlink:href="#mb0112f10e6" x="280.427924" y="320.4" style="stroke: #000000; stroke-width: 0.8"/>
      </g>
     </g>
     <g id="text_3">
      <!-- 2020-06-15 -->
      <g transform="translate(251.370111 334.998438) scale(0.1 -0.1)">
       <use xlink:href="#DejaVuSans-32"/>
       <use xlink:href="#DejaVuSans-30" x="63.623047"/>
       <use xlink:href="#DejaVuSans-32" x="127.246094"/>
       <use xlink:href="#DejaVuSans-30" x="190.869141"/>
       <use xlink:href="#DejaVuSans-2d" x="254.492188"/>
       <use xlink:href="#DejaVuSans-30" x="290.576172"/>
       <use xlink:href="#DejaVuSans-36" x="354.199219"/>
       <use xlink:href="#DejaVuSans-2d" x="417.822266"/>
       <use xlink:href="#DejaVuSans-31" x="453.90625"/>
       <use xlink:href="#DejaVuSans-35" x="517.529297"/>
      </g>
     </g>
    </g>
    <g id="xtick_4">
     <g id="line2d_4">
      <g>
       <use xlink:href="#mb0112f10e6" x="358.133092" y="320.4" style="stroke: #000000; stroke-width: 0.8"/>
      </g>
     </g>
     <g id="text_4">
      <!-- 2020-07-01 -->
      <g transform="translate(329.075279 334.998438) scale(0.1 -0.1)">
       <defs>
        <path id="DejaVuSans-37" d="M 525 4666 
L 3525 4666 
L 3525 4397 
L 1831 0 
L 1172 0 
L 2766 4134 
L 525 4134 
L 525 4666 
z
" transform="scale(0.015625)"/>
       </defs>
       <use xlink:href="#DejaVuSans-32"/>
       <use xlink:href="#DejaVuSans-30" x="63.623047"/>
       <use xlink:href="#DejaVuSans-32" x="127.246094"/>
       <use xlink:href="#DejaVuSans-30" x="190.869141"/>
       <use xlink:href="#DejaVuSans-2d" x="254.492188"/>
       <use xlink:href="#DejaVuSans-30" x="290.576172"/>
       <use xlink:href="#DejaVuSans-37" x="354.199219"/>
       <use xlink:href="#DejaVuSans-2d" x="417.822266"/>
       <use xlink:href="#DejaVuSans-30" x="453.90625"/>
       <use xlink:href="#DejaVuSans-31" x="517.529297"/>
      </g>
     </g>
    </g>
    <g id="xtick_5">
     <g id="line2d_5">
      <g>
       <use xlink:href="#mb0112f10e6" x="426.125113" y="320.4" style="stroke: #000000; stroke-width: 0.8"/>
      </g>
     </g>
     <g id="text_5">
      <!-- 2020-07-15 -->
      <g transform="translate(397.067301 334.998438) scale(0.1 -0.1)">
       <use xlink:href="#DejaVuSans-32"/>
       <use xlink:href="#DejaVuSans-30" x="63.623047"/>
       <use xlink:href="#DejaVuSans-32" x="127.246094"/>
       <use xlink:href="#DejaVuSans-30" x="190.869141"/>
       <use xlink:href="#DejaVuSans-2d" x="254.492188"/>
       <use xlink:href="#DejaVuSans-30" x="290.576172"/>
       <use xlink:href="#DejaVuSans-37" x="354.199219"/>
       <use xlink:href="#DejaVuSans-2d" x="417.822266"/>
       <use xlink:href="#DejaVuSans-31" x="453.90625"/>
       <use xlink:href="#DejaVuSans-35" x="517.529297"/>
      </g>
     </g>
    </g>
    <g id="xtick_6">
     <g id="line2d_6">
      <g>
       <use xlink:href="#mb0112f10e6" x="508.686854" y="320.4" style="stroke: #000000; stroke-width: 0.8"/>
      </g>
     </g>
     <g id="text_6">
      <!-- 2020-08-01 -->
      <g transform="translate(479.629042 334.998438) scale(0.1 -0.1)">
       <defs>
        <path id="DejaVuSans-38" d="M 2034 2216 
Q 1584 2216 1326 1975 
Q 1069 1734 1069 1313 
Q 1069 891 1326 650 
Q 1584 409 2034 409 
Q 2484 409 2743 651 
Q 3003 894 3003 1313 
Q 3003 1734 2745 1975 
Q 2488 2216 2034 2216 
z
M 1403 2484 
Q 997 2584 770 2862 
Q 544 3141 544 3541 
Q 544 4100 942 4425 
Q 1341 4750 2034 4750 
Q 2731 4750 3128 4425 
Q 3525 4100 3525 3541 
Q 3525 3141 3298 2862 
Q 3072 2584 2669 2484 
Q 3125 2378 3379 2068 
Q 3634 1759 3634 1313 
Q 3634 634 3220 271 
Q 2806 -91 2034 -91 
Q 1263 -91 848 271 
Q 434 634 434 1313 
Q 434 1759 690 2068 
Q 947 2378 1403 2484 
z
M 1172 3481 
Q 1172 3119 1398 2916 
Q 1625 2713 2034 2713 
Q 2441 2713 2670 2916 
Q 2900 3119 2900 3481 
Q 2900 3844 2670 4047 
Q 2441 4250 2034 4250 
Q 1625 4250 1398 4047 
Q 1172 3844 1172 3481 
z
" transform="scale(0.015625)"/>
       </defs>
       <use xlink:href="#DejaVuSans-32"/>
       <use xlink:href="#DejaVuSans-30" x="63.623047"/>
       <use xlink:href="#DejaVuSans-32" x="127.246094"/>
       <use xlink:href="#DejaVuSans-30" x="190.869141"/>
       <use xlink:href="#DejaVuSans-2d" x="254.492188"/>
       <use xlink:href="#DejaVuSans-30" x="290.576172"/>
       <use xlink:href="#DejaVuSans-38" x="354.199219"/>
       <use xlink:href="#DejaVuSans-2d" x="417.822266"/>
       <use xlink:href="#DejaVuSans-30" x="453.90625"/>
       <use xlink:href="#DejaVuSans-31" x="517.529297"/>
      </g>
     </g>
    </g>
   </g>
   <g id="matplotlib.axis_2">
    <g id="ytick_1">
     <g id="line2d_7">
      <defs>
       <path id="m26fc67ba1c" d="M 0 0 
L -3.5 0 
" style="stroke: #000000; stroke-width: 0.8"/>
      </defs>
      <g>
       <use xlink:href="#m26fc67ba1c" x="72" y="315.425929" style="stroke: #000000; stroke-width: 0.8"/>
      </g>
     </g>
     <g id="text_7">
      <!-- −2 -->
      <g transform="translate(50.257812 319.225148) scale(0.1 -0.1)">
       <defs>
        <path id="DejaVuSans-2212" d="M 678 2272 
L 4684 2272 
L 4684 1741 
L 678 1741 
L 678 2272 
z
" transform="scale(0.015625)"/>
       </defs>
       <use xlink:href="#DejaVuSans-2212"/>
       <use xlink:href="#DejaVuSans-32" x="83.789062"/>
      </g>
     </g>
    </g>
    <g id="ytick_2">
     <g id="line2d_8">
      <g>
       <use xlink:href="#m26fc67ba1c" x="72" y="265.577385" style="stroke: #000000; stroke-width: 0.8"/>
      </g>
     </g>
     <g id="text_8">
      <!-- −1 -->
      <g transform="translate(50.257812 269.376603) scale(0.1 -0.1)">
       <use xlink:href="#DejaVuSans-2212"/>
       <use xlink:href="#DejaVuSans-31" x="83.789062"/>
      </g>
     </g>
    </g>
    <g id="ytick_3">
     <g id="line2d_9">
      <g>
       <use xlink:href="#m26fc67ba1c" x="72" y="215.72884" style="stroke: #000000; stroke-width: 0.8"/>
      </g>
     </g>
     <g id="text_9">
      <!-- 0 -->
      <g transform="translate(58.6375 219.528059) scale(0.1 -0.1)">
       <use xlink:href="#DejaVuSans-30"/>
      </g>
     </g>
    </g>
    <g id="ytick_4">
     <g id="line2d_10">
      <g>
       <use xlink:href="#m26fc67ba1c" x="72" y="165.880296" style="stroke: #000000; stroke-width: 0.8"/>
      </g>
     </g>
     <g id="text_10">
      <!-- 1 -->
      <g transform="translate(58.6375 169.679515) scale(0.1 -0.1)">
       <use xlink:href="#DejaVuSans-31"/>
      </g>
     </g>
    </g>
    <g id="ytick_5">
     <g id="line2d_11">
      <g>
       <use xlink:href="#m26fc67ba1c" x="72" y="116.031752" style="stroke: #000000; stroke-width: 0.8"/>
      </g>
     </g>
     <g id="text_11">
      <!-- 2 -->
      <g transform="translate(58.6375 119.830971) scale(0.1 -0.1)">
       <use xlink:href="#DejaVuSans-32"/>
      </g>
     </g>
    </g>
    <g id="ytick_6">
     <g id="line2d_12">
      <g>
       <use xlink:href="#m26fc67ba1c" x="72" y="66.183208" style="stroke: #000000; stroke-width: 0.8"/>
      </g>
     </g>
     <g id="text_12">
      <!-- 3 -->
      <g transform="translate(58.6375 69.982427) scale(0.1 -0.1)">
       <defs>
        <path id="DejaVuSans-33" d="M 2597 2516 
Q 3050 2419 3304 2112 
Q 3559 1806 3559 1356 
Q 3559 666 3084 287 
Q 2609 -91 1734 -91 
Q 1441 -91 1130 -33 
Q 819 25 488 141 
L 488 750 
Q 750 597 1062 519 
Q 1375 441 1716 441 
Q 2309 441 2620 675 
Q 2931 909 2931 1356 
Q 2931 1769 2642 2001 
Q 2353 2234 1838 2234 
L 1294 2234 
L 1294 2753 
L 1863 2753 
Q 2328 2753 2575 2939 
Q 2822 3125 2822 3475 
Q 2822 3834 2567 4026 
Q 2313 4219 1838 4219 
Q 1578 4219 1281 4162 
Q 984 4106 628 3988 
L 628 4550 
Q 988 4650 1302 4700 
Q 1616 4750 1894 4750 
Q 2613 4750 3031 4423 
Q 3450 4097 3450 3541 
Q 3450 3153 3228 2886 
Q 3006 2619 2597 2516 
z
" transform="scale(0.015625)"/>
       </defs>
       <use xlink:href="#DejaVuSans-33"/>
      </g>
     </g>
    </g>
   </g>
   <g id="line2d_13">
    <path d="M 72 288.530479 
L 72.404714 299.09448 
L 72.607072 297.490317 
L 72.809429 287.552331 
L 73.214143 258.755646 
L 73.618858 247.17437 
L 75.035358 169.900657 
L 75.237715 167.142279 
L 75.440073 171.856954 
L 75.64243 179.506073 
L 75.844787 182.577459 
L 76.047144 196.780172 
L 76.654216 262.237854 
L 77.05893 284.657012 
L 77.261287 288.726109 
L 77.463645 288.373975 
L 77.666002 278.396863 
L 78.070716 251.849919 
L 78.475431 240.229518 
L 78.677788 231.719628 
L 79.487217 178.62574 
L 79.891931 163.464442 
L 80.094288 165.283798 
L 80.903717 204.800988 
L 81.713146 274.992907 
L 82.11786 288.647857 
L 82.320218 290.545465 
L 82.522575 290.271583 
L 82.724932 287.924027 
L 82.927289 281.566063 
L 83.332004 260.144616 
L 83.736718 246.802674 
L 83.939075 243.966044 
L 84.141432 244.220363 
L 84.546147 250.187067 
L 84.748504 252.143364 
L 84.950861 252.162927 
L 85.355576 256.07552 
L 85.557933 252.965008 
L 85.76029 258.677394 
L 86.569719 300.581266 
L 86.772076 306.254526 
L 86.974433 307.741311 
L 87.176791 307.8 
L 87.379148 306.54797 
L 87.581505 303.065762 
L 87.783862 296.766488 
L 88.188577 276.205811 
L 88.390934 271.373759 
L 89.200363 263.842017 
L 89.40272 259.988113 
L 89.807434 246.196222 
L 90.212149 243.907355 
L 90.414506 241.383733 
L 90.616863 248.798097 
L 91.223935 295.964406 
L 91.628649 306.254526 
L 91.831006 306.313215 
L 92.033364 303.985222 
L 92.842792 260.946698 
L 93.04515 258.951276 
L 93.449864 250.93046 
L 93.652221 250.441386 
L 93.854578 247.702571 
L 94.056936 247.115682 
L 94.259293 244.670311 
L 94.46165 238.703606 
L 94.664007 236.043043 
L 94.866364 236.903814 
L 95.068722 239.838258 
L 95.271079 236.258236 
L 95.473436 245.687585 
L 96.080508 296.316539 
L 96.485222 304.904681 
L 96.687579 306.684911 
L 96.889937 302.635377 
L 97.699365 260.261994 
L 98.306437 250.460949 
L 98.508794 250.108815 
L 99.52058 230.311094 
L 99.722937 231.484872 
L 99.925295 235.553969 
L 100.127652 233.851991 
L 100.330009 243.320466 
L 100.937081 294.008109 
L 101.341795 305.452444 
L 101.544152 306.371904 
L 101.74651 302.909259 
L 101.948867 291.758368 
L 102.353581 263.744202 
L 102.555938 262.296543 
L 103.567724 245.707148 
L 104.377153 225.087783 
L 104.57951 226.281123 
L 104.781868 231.308806 
L 104.984225 231.289243 
L 105.186582 239.58394 
L 105.793654 291.073665 
L 106.198368 302.967948 
L 106.400725 304.611237 
L 106.603083 300.855147 
L 107.412511 258.012253 
L 107.614869 256.40809 
L 107.817226 252.984571 
L 108.22194 239.427436 
L 108.626655 219.179767 
L 108.829012 213.643448 
L 109.031369 211.882781 
L 109.638441 219.981849 
L 109.840798 225.048657 
L 110.043155 234.751887 
L 110.650227 286.104671 
L 111.054941 299.407488 
L 111.257298 301.187718 
L 111.459655 299.563992 
L 111.662013 288.921738 
L 112.066727 261.631402 
L 112.471442 247.643882 
L 113.887942 183.829489 
L 114.090299 181.618874 
L 114.292656 187.976837 
L 114.495014 198.638653 
L 114.697371 202.922943 
L 115.102085 234.654073 
L 115.709157 280.705293 
L 116.113871 293.714665 
L 116.316228 293.871169 
L 116.518586 292.325694 
L 116.720943 288.941301 
L 117.125657 263.529009 
L 118.542158 165.890249 
L 118.744515 156.4609 
L 118.946872 152.841752 
L 119.149229 156.265271 
L 119.756301 191.595986 
L 120.56573 265.622247 
L 120.970444 284.109249 
L 121.172801 287.924027 
L 121.375159 289.449939 
L 121.577516 288.100094 
L 121.779873 280.705293 
L 122.589302 233.128161 
L 123.196374 209.378721 
L 123.398731 205.113995 
L 123.601088 205.309625 
L 123.803445 204.781425 
L 124.410517 217.282159 
L 124.612874 227.51359 
L 125.219946 280.020589 
L 125.62466 293.577724 
L 125.827017 295.436206 
L 126.029374 293.069087 
L 127.04116 240.464273 
L 127.648232 205.563943 
L 128.255304 166.02719 
L 128.457661 158.984523 
L 128.660018 158.671515 
L 129.26709 200.027624 
L 130.278876 284.77439 
L 130.481233 292.071376 
L 130.68359 293.362532 
L 130.885947 290.956287 
L 132.504805 189.346245 
L 133.111877 149.53561 
L 133.314234 140.751839 
L 133.516591 142.336439 
L 133.921306 156.676093 
L 134.123663 163.601383 
L 135.135449 266.111321 
L 135.540163 277.888226 
L 135.74252 277.007893 
L 135.944878 267.128595 
L 136.349592 237.823273 
L 136.551949 231.504435 
L 136.754306 220.431797 
L 136.956664 224.696523 
L 137.159021 214.152085 
L 137.766092 205.916077 
L 137.96845 206.287773 
L 138.373164 201.240528 
L 138.777879 208.283195 
L 138.980236 209.065714 
L 139.182593 220.079663 
L 139.789665 272.919233 
L 140.194379 287.258886 
L 140.396736 289.19562 
L 140.599093 286.378553 
L 141.003808 258.18832 
L 141.408522 238.429725 
L 142.015594 225.92899 
L 142.622665 217.399537 
L 142.825023 217.145219 
L 143.02738 216.010567 
L 143.229737 216.656145 
L 143.634451 221.586012 
L 143.836809 220.431797 
L 144.039166 229.939398 
L 144.646238 275.990618 
L 145.050952 287.278449 
L 145.253309 288.491353 
L 145.455666 285.556908 
L 145.860381 257.875312 
L 146.062738 242.518385 
L 146.66981 227.141894 
L 146.872167 224.637834 
L 147.074524 223.62056 
L 147.479238 213.252189 
L 147.681596 221.155627 
L 147.883953 222.075086 
L 148.08631 224.520457 
L 148.491024 233.225976 
L 148.693382 231.954383 
L 149.098096 254.040971 
L 149.502811 280.35316 
L 149.907525 292.619139 
L 150.109882 294.555872 
L 150.312239 294.008109 
L 150.514597 291.347546 
L 150.716954 285.967731 
L 151.121668 266.287388 
L 151.526383 246.959178 
L 151.931097 241.481548 
L 152.133454 241.070725 
L 152.335811 242.929207 
L 152.538169 243.418281 
L 152.740526 241.481548 
L 152.942883 241.755429 
L 153.14524 240.83597 
L 153.347597 240.875096 
L 153.549955 238.116717 
L 153.752312 240.190392 
L 154.764098 288.745672 
L 154.966455 292.482198 
L 155.168812 293.792917 
L 155.573527 290.075953 
L 155.775884 279.62933 
L 156.78767 206.092143 
L 157.799456 165.870687 
L 158.001813 167.768294 
L 158.406528 180.229903 
L 158.608885 193.024082 
L 159.215956 257.797061 
L 159.620671 278.18167 
L 159.823028 281.21393 
L 160.025385 280.35316 
L 160.227743 271.099877 
L 160.632457 240.464273 
L 161.8466 192.984956 
L 162.251315 183.496918 
L 162.453672 183.633859 
L 162.656029 186.333548 
L 163.465458 216.3627 
L 164.072529 272.860544 
L 164.477244 290.428087 
L 164.679601 290.741094 
L 164.881958 287.689272 
L 165.084316 278.103419 
L 165.48903 248.113393 
L 166.500816 214.993292 
L 167.310245 174.478391 
L 167.512602 177.647592 
L 167.917316 197.073616 
L 168.119674 201.279654 
L 168.322031 212.000159 
L 168.929102 268.08718 
L 169.333817 282.426834 
L 169.536174 285.752538 
L 169.738531 282.289893 
L 170.143246 256.525468 
L 170.54796 227.90485 
L 171.357389 185.824911 
L 171.559746 180.132088 
L 172.166818 157.282545 
L 172.369175 158.808456 
L 172.571532 166.281509 
L 173.178604 203.079447 
L 173.785675 270.199981 
L 174.19039 288.510916 
L 174.392747 291.327983 
L 174.595104 289.606442 
L 174.999819 266.756899 
L 175.404533 243.1444 
L 177.023391 169.25508 
L 177.225748 169.744154 
L 177.428105 173.441554 
L 177.630462 189.111489 
L 177.83282 191.419919 
L 178.237534 233.089035 
L 178.642248 273.6235 
L 179.046963 291.758368 
L 179.24932 295.279702 
L 179.451677 292.89302 
L 179.654034 284.676575 
L 180.261106 247.017867 
L 181.879964 155.384937 
L 182.082321 152.293989 
L 182.284678 157.654241 
L 183.094107 210.904633 
L 183.498821 247.780822 
L 183.903536 268.067617 
L 184.30825 275.481981 
L 184.510607 276.773137 
L 184.712965 273.330055 
L 184.915322 260.672817 
L 185.724751 183.105659 
L 186.129465 162.877553 
L 186.331822 157.145604 
L 186.53418 156.421774 
L 186.736537 158.828019 
L 187.748323 197.093179 
L 188.557752 257.836187 
L 188.962466 271.256381 
L 189.164823 273.193114 
L 189.36718 273.271366 
L 189.569538 272.567099 
L 189.771895 262.355232 
L 190.986038 171.485258 
L 191.188395 166.457575 
L 191.390752 166.41845 
L 191.795467 175.084843 
L 192.604896 204.742299 
L 193.414325 264.741913 
L 193.819039 277.731722 
L 194.021396 278.748996 
L 194.426111 274.992907 
L 194.628468 266.50258 
L 195.437897 208.772269 
L 195.640254 204.018469 
L 195.842611 205.172684 
L 196.247325 210.924196 
L 196.449683 211.471959 
L 196.65204 211.100262 
L 197.056754 218.886323 
L 197.259112 219.688404 
L 197.461469 227.670094 
L 198.06854 273.525685 
L 198.473255 286.985005 
L 198.675612 287.08282 
L 198.877969 283.620175 
L 199.282684 254.412668 
L 199.687398 232.756465 
L 201.306256 169.744154 
L 201.508613 168.648628 
L 202.115684 186.861748 
L 202.318042 197.445313 
L 202.925113 258.247009 
L 203.329828 274.992907 
L 203.532185 276.98833 
L 203.734542 274.1517 
L 203.936899 263.216002 
L 204.341614 230.956672 
L 205.758114 179.075688 
L 205.960471 176.708569 
L 206.162829 176.84551 
L 206.365186 178.195355 
L 206.7699 189.44406 
L 206.972257 192.476319 
L 207.174615 202.766439 
L 207.781686 258.814335 
L 208.186401 274.1517 
L 208.388758 277.047018 
L 208.591115 273.877818 
L 208.793472 262.60955 
L 209.198187 230.526287 
L 209.805258 209.378721 
L 210.209973 190.50046 
L 210.817044 150.924581 
L 211.019402 142.864639 
L 211.221759 145.681706 
L 211.626473 168.922509 
L 211.82883 173.871939 
L 212.031188 187.85946 
L 212.638259 249.619741 
L 213.042974 267.265536 
L 213.245331 271.060751 
L 213.447688 269.437025 
L 213.650045 259.264283 
L 214.257117 218.182056 
L 214.661831 193.161023 
L 215.47126 136.80012 
L 215.875975 120.914992 
L 216.078332 120.465044 
L 216.280689 125.727482 
L 217.090118 186.294422 
L 217.697189 245.100696 
L 218.101904 262.629113 
L 218.304261 265.817876 
L 218.506618 267.109032 
L 218.708976 265.915691 
L 218.911333 253.825779 
L 219.518404 201.788291 
L 220.125476 168.355183 
L 220.327833 166.301072 
L 220.53019 168.413872 
L 221.541976 208.596203 
L 221.744334 213.486944 
L 222.553762 267.519854 
L 222.958477 277.8491 
L 223.160834 279.472826 
L 223.363191 279.805397 
L 223.565549 278.318611 
L 223.767906 270.043477 
L 224.374977 233.754176 
L 224.779692 226.555005 
L 225.386763 228.511302 
L 225.589121 231.856569 
L 225.791478 232.697776 
L 226.196192 240.659903 
L 226.398549 240.327333 
L 226.600907 246.430978 
L 227.410335 297.353377 
L 227.612693 301.187718 
L 227.81505 302.791881 
L 228.017407 299.759621 
L 228.826836 259.303409 
L 229.029193 257.092794 
L 229.23155 251.634727 
L 230.648051 191.400356 
L 230.850408 191.948119 
L 231.255122 205.642195 
L 231.45748 215.991004 
L 232.064551 276.479693 
L 232.469266 292.795206 
L 232.671623 295.377517 
L 232.87398 294.223302 
L 233.278694 270.199981 
L 233.683409 248.798097 
L 235.302267 187.448637 
L 235.504624 186.881311 
L 236.111695 205.035743 
L 236.314053 214.875915 
L 236.921124 273.897381 
L 237.325839 288.980427 
L 237.528196 291.953998 
L 237.730553 289.939013 
L 238.135267 267.187284 
L 238.539982 246.489667 
L 239.349411 217.106093 
L 239.754125 207.598492 
L 240.15884 197.895261 
L 240.361197 197.660505 
L 240.563554 202.844691 
L 240.968268 219.571026 
L 241.170626 226.770198 
L 241.777697 279.531515 
L 242.182412 294.594998 
L 242.384769 296.962117 
L 242.587126 294.125487 
L 242.99184 270.649929 
L 243.396555 253.591023 
L 245.21777 182.675274 
L 245.420127 186.705245 
L 246.027199 212.156662 
L 246.836627 281.957323 
L 247.038985 289.899887 
L 247.241342 292.912583 
L 247.443699 290.506339 
L 247.848413 268.126306 
L 249.467271 161.742901 
L 249.669628 154.074218 
L 249.871985 152.2353 
L 250.074343 152.391803 
L 250.2767 158.984523 
L 250.883772 189.483186 
L 251.6932 260.692379 
L 252.097915 274.48427 
L 252.300272 277.399152 
L 252.502629 277.65347 
L 252.704986 273.975633 
L 253.109701 242.870518 
L 253.91913 173.343739 
L 254.323844 158.338945 
L 254.728558 149.965996 
L 254.930916 148.772655 
L 255.133273 155.893574 
L 255.740345 191.478608 
L 256.549773 262.902995 
L 256.954488 277.594782 
L 257.156845 281.21393 
L 257.359202 282.79853 
L 257.561559 281.879071 
L 257.966274 254.451794 
L 258.573345 206.60078 
L 258.97806 186.020541 
L 259.382774 175.554354 
L 259.585131 172.287339 
L 259.787489 171.876517 
L 259.989846 174.361013 
L 260.39456 189.541875 
L 260.596917 202.218676 
L 261.203989 261.083639 
L 261.608704 278.846811 
L 261.811061 281.624752 
L 262.013418 280.88136 
L 262.418132 258.129631 
L 262.62049 246.724422 
L 263.025204 237.549391 
L 263.227561 234.888828 
L 263.429918 233.930243 
L 263.834633 235.143147 
L 264.03699 234.849702 
L 264.239347 235.749599 
L 264.441704 235.827851 
L 264.644062 235.573532 
L 264.846419 237.510266 
L 265.048776 241.344607 
L 265.251133 241.344607 
L 265.45349 245.159385 
L 266.060562 285.478657 
L 266.465277 297.666384 
L 266.667634 299.133606 
L 266.869991 295.162324 
L 267.072348 287.61102 
L 267.477063 262.453046 
L 268.084134 241.403296 
L 268.488849 231.641376 
L 269.09592 220.959997 
L 269.500635 217.203908 
L 269.702992 219.277582 
L 269.905349 222.701101 
L 270.107706 223.346679 
L 270.310063 229.332946 
L 270.917135 275.716737 
L 271.32185 287.08282 
L 271.524207 289.117368 
L 271.726564 287.493642 
L 274.15485 153.076507 
L 274.357208 146.268595 
L 274.559565 149.437796 
L 275.166636 173.324176 
L 275.976065 250.773956 
L 276.38078 262.707365 
L 276.583137 262.042224 
L 276.987851 241.305481 
L 277.392566 213.85864 
L 278.404352 159.786604 
L 278.606709 156.891285 
L 279.011423 144.331862 
L 279.213781 142.80595 
L 279.416138 146.855484 
L 280.023209 186.470489 
L 280.630281 254.217038 
L 281.034995 275.853678 
L 281.237353 280.4901 
L 281.43971 279.022878 
L 281.642067 273.42787 
L 282.249139 233.773739 
L 282.85621 201.827417 
L 283.867996 161.195138 
L 284.070354 160.060486 
L 284.272711 167.80742 
L 285.284497 246.704859 
L 285.689211 277.262211 
L 286.093926 291.269294 
L 286.296283 293.440783 
L 286.49864 291.719242 
L 286.700997 288.921738 
L 287.105712 259.459913 
L 287.712783 210.49381 
L 288.522212 169.235517 
L 288.724569 162.466731 
L 288.926927 160.627812 
L 289.129284 164.031768 
L 289.736355 196.154157 
L 290.545784 262.726928 
L 290.950499 277.242648 
L 291.152856 279.883648 
L 291.355213 279.9619 
L 291.55757 278.553367 
L 291.759927 266.69821 
L 292.771714 172.95248 
L 293.176428 152.059233 
L 293.581142 141.377854 
L 293.7835 139.734565 
L 293.985857 143.079832 
L 294.592928 167.337909 
L 295.402357 246.470104 
L 295.807072 260.438061 
L 296.009429 260.281557 
L 296.414143 240.992473 
L 297.830644 112.581169 
L 298.235358 99.92393 
L 298.437715 97.458997 
L 298.640073 97.713315 
L 298.84243 99.669612 
L 299.044787 107.318731 
L 299.449501 132.985342 
L 300.056573 208.165818 
L 300.461287 232.189139 
L 300.663645 237.921088 
L 300.866002 238.605792 
L 301.068359 232.110887 
L 301.473073 203.509832 
L 302.484859 103.28876 
L 302.687217 92.509567 
L 302.889574 92.607381 
L 303.091931 100.31519 
L 303.496646 108.551198 
L 303.90136 129.73789 
L 304.306074 156.343522 
L 304.913146 222.251153 
L 305.31786 246.391852 
L 305.520218 251.693415 
L 305.722575 249.991437 
L 305.924932 243.203088 
L 306.532004 205.153121 
L 307.54379 138.482535 
L 307.746147 128.759741 
L 307.948504 127.918534 
L 308.757933 158.651952 
L 309.162647 183.477355 
L 309.769719 243.47697 
L 310.174433 262.41392 
L 310.376791 266.600395 
L 310.579148 266.052632 
L 310.983862 243.750852 
L 312.198005 144.664432 
L 312.60272 133.591794 
L 312.805077 129.424882 
L 313.007434 129.953082 
L 313.209791 133.474416 
L 313.816863 159.747478 
L 314.01922 172.776413 
L 314.626292 232.384769 
L 315.031006 251.908608 
L 315.233364 256.271149 
L 315.435721 255.645134 
L 315.840435 237.764584 
L 316.24515 219.942723 
L 316.649864 208.498388 
L 317.054578 193.923979 
L 317.66165 186.763933 
L 317.864007 186.333548 
L 318.066364 185.472778 
L 318.268722 189.933134 
L 318.875793 211.022011 
L 319.685222 266.835151 
L 320.089937 279.003315 
L 320.292294 280.568352 
L 320.697008 273.017048 
L 321.101723 248.035141 
L 322.315866 173.81325 
L 322.72058 164.051331 
L 322.922937 161.840716 
L 323.125295 165.772872 
L 323.732366 192.08506 
L 324.541795 257.366675 
L 324.94651 270.982499 
L 325.148867 273.740877 
L 325.351224 273.799566 
L 325.553581 271.64764 
L 325.755938 259.909861 
L 326.970082 152.841752 
L 327.172439 146.816358 
L 327.374796 145.31001 
L 327.77951 140.008446 
L 327.981868 144.762247 
L 328.184225 153.135196 
L 328.791296 202.336054 
L 329.196011 243.985607 
L 329.398368 258.501327 
L 329.803083 268.126306 
L 330.00544 267.22641 
L 330.207797 261.88572 
L 330.814869 215.677996 
L 331.42194 179.271318 
L 331.826655 157.673804 
L 332.029012 154.915426 
L 332.231369 154.934989 
L 332.433726 155.111056 
L 332.636083 157.106478 
L 332.838441 161.429893 
L 333.243155 183.262163 
L 333.445512 191.850304 
L 334.052584 254.451794 
L 334.457298 275.2081 
L 334.659655 280.372723 
L 334.862013 278.083856 
L 335.266727 259.186031 
L 335.671442 235.984354 
L 336.48087 197.777883 
L 336.683228 192.945831 
L 336.885585 191.88943 
L 337.087942 186.000978 
L 337.290299 184.240311 
L 337.695014 190.402645 
L 338.099728 204.174973 
L 338.302085 209.769981 
L 339.111514 272.469285 
L 339.313871 278.3773 
L 339.516228 280.509663 
L 339.718586 276.636196 
L 340.1233 254.393105 
L 340.932729 212.039285 
L 342.349229 153.213448 
L 342.551587 153.135196 
L 343.158658 176.64988 
L 343.76573 236.434302 
L 344.170444 253.591023 
L 344.372801 258.129631 
L 344.575159 256.095083 
L 344.777516 249.502363 
L 345.18223 220.079663 
L 346.194016 141.358291 
L 346.598731 127.292519 
L 347.003445 120.993244 
L 347.205802 120.191162 
L 347.40816 123.223422 
L 347.610517 130.696475 
L 348.015231 155.561004 
L 348.82466 242.361881 
L 349.229374 258.657831 
L 349.431732 257.934001 
L 349.634089 252.417245 
L 349.836446 241.814118 
L 351.050589 142.336439 
L 351.455304 124.847148 
L 351.860018 116.41551 
L 352.062375 115.55474 
L 352.264733 119.017385 
L 352.46709 129.581386 
L 353.276519 208.733144 
L 353.681233 244.865941 
L 354.085947 264.096335 
L 354.288305 269.124018 
L 354.490662 269.671781 
L 354.693019 267.539417 
L 355.097733 227.494027 
L 355.704805 157.165167 
L 356.109519 133.63092 
L 356.716591 116.298132 
L 356.918948 115.261295 
L 357.121306 119.839029 
L 357.52602 144.25361 
L 357.728377 156.343522 
L 358.740163 247.311311 
L 359.144878 259.675105 
L 359.347235 261.455335 
L 359.549592 261.142328 
L 359.751949 247.800385 
L 360.763735 132.867964 
L 361.16845 114.693969 
L 361.573164 104.110405 
L 361.775521 101.919353 
L 361.977879 105.049427 
L 362.180236 111.720398 
L 362.58495 136.291483 
L 363.394379 220.862182 
L 363.799093 237.686332 
L 364.001451 238.468851 
L 364.203808 232.85428 
L 364.406165 223.268427 
L 365.013237 156.949974 
L 365.620308 95.404885 
L 366.025023 79.989269 
L 366.429737 74.100816 
L 366.632094 74.570327 
L 366.834451 77.09395 
L 367.036809 85.40821 
L 367.441523 113.24631 
L 368.048595 189.189741 
L 368.453309 218.299434 
L 368.655666 226.437627 
L 368.858024 228.706931 
L 369.060381 224.989968 
L 369.262738 215.580181 
L 369.86981 154.974115 
L 370.476881 99.473982 
L 370.881596 83.608417 
L 371.083953 83.178032 
L 371.28631 83.862736 
L 371.488667 87.618825 
L 371.691024 93.565967 
L 372.298096 130.774727 
L 373.107525 211.921907 
L 373.512239 233.147724 
L 373.714597 237.314636 
L 374.119311 236.649495 
L 374.321668 224.481331 
L 375.333454 125.336222 
L 375.738169 112.678984 
L 375.940526 110.096672 
L 376.142883 109.040272 
L 376.34524 113.989702 
L 376.749955 139.049861 
L 377.559383 195.312949 
L 377.964098 228.413487 
L 378.368812 241.598925 
L 378.57117 241.814118 
L 378.773527 236.140858 
L 378.975884 225.420353 
L 380.392384 113.970139 
L 380.797099 104.482101 
L 381.201813 97.224241 
L 381.40417 100.823827 
L 382.011242 136.213231 
L 382.820671 215.423678 
L 383.225385 230.819731 
L 383.427743 231.445746 
L 383.6301 226.339812 
L 384.034814 205.074869 
L 385.0466 134.863386 
L 385.451315 118.900007 
L 385.653672 118.450059 
L 385.856029 122.069207 
L 386.058386 129.366193 
L 387.070172 196.291098 
L 387.474887 234.654073 
L 387.879601 255.586446 
L 388.284316 264.331091 
L 388.68903 266.737336 
L 388.891387 261.240143 
L 389.700816 219.590589 
L 390.307888 208.870084 
L 390.914959 196.682357 
L 391.117316 201.260091 
L 391.926745 239.114429 
L 392.533817 281.389997 
L 392.938531 293.225591 
L 393.140888 295.005821 
L 393.343246 294.575435 
L 393.545603 295.025384 
L 393.74796 286.456805 
L 394.355032 247.076556 
L 395.569175 193.043645 
L 395.771532 187.292134 
L 395.973889 188.446349 
L 396.176247 196.408475 
L 396.783318 236.629932 
L 397.188033 273.486559 
L 397.592747 290.545465 
L 397.795104 293.206028 
L 397.997461 290.78022 
L 398.402176 273.42787 
L 400.628105 151.31584 
L 400.830462 154.035092 
L 401.03282 163.562257 
L 401.639891 218.14293 
L 402.044606 260.575002 
L 402.44932 280.020589 
L 402.651677 283.85493 
L 402.854034 282.27033 
L 403.258749 264.859291 
L 403.663463 237.666769 
L 404.877607 136.193668 
L 405.282321 116.552451 
L 405.484678 112.52248 
L 405.687035 113.559317 
L 405.889393 123.614681 
L 406.294107 159.375782 
L 406.901179 233.460732 
L 407.305893 256.486342 
L 407.50825 261.846594 
L 407.710607 261.337957 
L 408.115322 241.012036 
L 409.73418 114.420088 
L 409.936537 109.705413 
L 410.138894 109.568472 
L 410.341251 113.970139 
L 410.948323 148.518336 
L 411.15068 163.738323 
L 411.757752 231.289243 
L 412.162466 254.314853 
L 412.364823 260.516313 
L 412.56718 262.218291 
L 412.971895 244.944192 
L 414.388395 151.081085 
L 414.79311 138.130402 
L 415.197824 131.752875 
L 415.400181 138.228217 
L 416.20961 198.071327 
L 416.614325 241.344607 
L 417.019039 263.411632 
L 417.221396 267.480728 
L 417.423753 266.952528 
L 417.828468 251.497786 
L 419.244968 158.006374 
L 419.649683 144.997003 
L 419.85204 141.338728 
L 420.054397 142.708136 
L 420.256754 150.98327 
L 421.066183 213.369566 
L 421.673255 265.993943 
L 422.077969 281.350871 
L 422.280326 283.71799 
L 422.482684 283.091975 
L 422.685041 282.935471 
L 423.089755 253.57146 
L 423.899184 187.644267 
L 424.708613 150.122499 
L 424.91097 147.09024 
L 425.113327 150.905018 
L 425.518042 175.828236 
L 425.720399 187.076941 
L 426.529828 258.227446 
L 426.934542 275.931929 
L 427.136899 280.196656 
L 427.339257 280.959612 
L 427.541614 281.174804 
L 427.743971 272.977922 
L 428.148685 234.517132 
L 428.755757 175.534791 
L 429.160471 151.100648 
L 429.565186 143.236336 
L 429.9699 146.972862 
L 430.374615 162.427605 
L 430.576972 173.519806 
L 431.386401 245.922341 
L 431.791115 257.581868 
L 431.993472 255.645134 
L 432.398187 236.297362 
L 433.207616 174.282762 
L 434.017044 107.240479 
L 434.219402 102.584494 
L 435.02883 128.701052 
L 435.433545 152.509181 
L 436.040617 220.333982 
L 436.445331 241.794555 
L 436.647688 246.685296 
L 436.850045 246.039718 
L 437.25476 226.418064 
L 437.659474 193.161023 
L 438.468903 123.184296 
L 438.67126 113.911451 
L 438.873617 114.83091 
L 439.075975 121.599696 
L 439.278332 121.169311 
L 439.480689 123.301674 
L 439.885403 140.967032 
L 440.290118 164.540405 
L 440.897189 234.458443 
L 441.301904 255.703823 
L 441.504261 260.868446 
L 441.706618 261.377083 
L 442.111333 247.350437 
L 442.920762 197.817009 
L 443.527833 164.618657 
L 444.134905 142.962454 
L 444.337262 140.49752 
L 444.539619 146.601166 
L 445.146691 189.502749 
L 445.753762 255.371253 
L 446.158477 275.560233 
L 446.360834 280.274908 
L 446.563191 278.3773 
L 446.967906 260.379372 
L 448.586763 155.854448 
L 448.991478 143.295025 
L 449.193835 141.084409 
L 449.396192 147.42281 
L 450.003264 185.864037 
L 450.812693 262.061787 
L 451.217407 274.719026 
L 451.419764 274.836403 
L 451.824479 258.481764 
L 452.43155 210.49381 
L 453.038622 170.604924 
L 453.443336 154.387226 
L 453.848051 146.89461 
L 454.050408 150.102936 
L 454.252765 159.610538 
L 454.65748 186.646556 
L 454.859837 194.686934 
L 455.669266 256.290712 
L 456.07398 269.182706 
L 456.276337 270.630366 
L 456.478694 268.732758 
L 456.681052 265.77875 
L 456.883409 258.168757 
L 457.288123 232.463021 
L 457.692838 222.03596 
L 457.895195 222.701101 
L 458.299909 228.178731 
L 458.502267 228.04179 
L 458.906981 224.403079 
L 459.109338 224.911716 
L 459.514053 228.863435 
L 459.71641 232.952095 
L 460.728196 287.865338 
L 461.13291 292.071376 
L 461.537625 288.921738 
L 461.739982 280.431412 
L 462.144696 247.604756 
L 463.561197 181.79494 
L 463.763554 174.889214 
L 463.965911 176.004303 
L 464.572983 194.530431 
L 465.382412 258.247009 
L 465.584769 264.820165 
L 465.787126 267.402477 
L 465.989483 265.094047 
L 467.608341 177.060703 
L 468.620127 156.910848 
L 468.822484 159.884419 
L 469.429556 184.846763 
L 470.036627 238.801421 
L 470.441342 255.723386 
L 470.643699 258.227446 
L 470.846056 255.782075 
L 471.857842 207.344173 
L 472.869628 178.567051 
L 473.071985 179.036562 
L 473.274343 177.334584 
L 473.4767 178.527925 
L 473.679057 182.127511 
L 473.881414 188.38766 
L 474.083772 189.483186 
L 474.286129 196.780172 
L 474.8932 246.352726 
L 475.297915 261.807469 
L 475.500272 263.392069 
L 475.702629 261.455335 
L 476.107344 238.273221 
L 476.512058 217.340848 
L 477.321487 187.389948 
L 477.726201 168.218242 
L 477.928558 164.833849 
L 478.333273 169.294205 
L 478.53563 173.539369 
L 479.142702 197.249683 
L 479.952131 261.709654 
L 480.356845 271.080314 
L 480.559202 270.689055 
L 480.963917 249.67843 
L 482.785131 127.5664 
L 482.987489 121.951829 
L 483.189846 119.44777 
L 483.392203 124.808022 
L 483.999275 162.721049 
L 484.606346 230.35022 
L 485.011061 252.436808 
L 485.213418 256.623283 
L 485.415775 257.523179 
L 485.82049 238.723169 
L 486.225204 209.046151 
L 487.23699 123.477741 
L 487.439347 120.543296 
L 487.844062 126.783882 
L 488.248776 144.488365 
L 489.260562 218.221182 
L 489.665277 248.798097 
L 490.069991 263.157313 
L 490.272348 265.387491 
L 490.474705 264.311528 
L 490.677063 262.629113 
L 490.87942 253.37583 
L 491.891206 177.56934 
L 492.29592 160.725627 
L 492.498277 153.702522 
L 492.700635 151.785351 
L 492.902992 153.330826 
L 493.105349 157.90856 
L 493.712421 189.77663 
L 494.52185 258.227446 
L 495.128921 275.599359 
L 495.331278 275.7363 
L 495.533636 275.149411 
L 495.735993 267.969803 
L 496.950136 180.973296 
L 497.557208 157.810745 
L 497.759565 154.621981 
L 497.961922 157.673804 
L 498.568994 187.624704 
L 499.378422 257.797061 
L 499.58078 264.291965 
L 499.783137 266.659084 
L 499.985494 263.509446 
L 500.187851 255.410379 
L 500.794923 220.314419 
L 500.99728 215.462804 
L 501.401995 203.020758 
L 501.806709 192.319816 
L 502.009066 191.88943 
L 502.211423 193.845727 
L 502.413781 194.452179 
L 502.616138 192.867579 
L 503.020852 202.101298 
L 503.223209 202.629498 
L 503.425567 209.769981 
L 504.032638 257.953564 
L 504.437353 270.376047 
L 504.63971 271.921522 
L 504.842067 269.671781 
L 505.246782 246.50923 
L 505.651496 223.874879 
L 507.270354 154.3481 
L 507.472711 151.394092 
L 507.675068 154.621981 
L 508.28214 181.26674 
L 508.889211 236.41474 
L 509.293926 252.691127 
L 509.496283 256.036394 
L 509.69864 254.29529 
L 510.103354 231.915257 
L 511.722212 130.813853 
L 512.126927 113.931014 
L 512.329284 115.437362 
L 512.936355 148.107514 
L 513.34107 185.120644 
L 513.745784 226.437627 
L 514.150499 248.035141 
L 514.352856 253.336705 
L 514.555213 253.806216 
L 514.75757 245.355015 
L 516.174071 153.389515 
L 516.376428 152.352677 
L 516.781142 161.214701 
L 516.9835 158.612826 
L 517.185857 159.121463 
L 517.590571 175.945614 
L 517.792928 179.975585 
L 517.995286 190.148326 
L 518.4 227.846161 
L 518.4 227.846161 
" clip-path="url(#p10fc409e40)" style="fill: none; stroke: #1f77b4; stroke-width: 1.5; stroke-linecap: square"/>
   </g>
   <g id="line2d_14">
    <path d="M 72 268.462323 
L 72.202357 268.462323 
L 72.809429 275.855816 
L 73.011786 272.088328 
L 73.618858 243.756815 
L 74.225929 224.854078 
L 74.833001 180.806539 
L 75.035358 175.097782 
L 75.237715 175.640968 
L 75.64243 182.338373 
L 76.047144 194.10451 
L 77.261287 276.220567 
L 77.463645 276.471236 
L 77.666002 274.030361 
L 77.868359 267.482301 
L 78.677788 226.622299 
L 79.082502 209.538632 
L 79.689574 179.506179 
L 79.891931 174.238334 
L 80.094288 173.273316 
L 80.296646 174.930749 
L 80.499003 181.392835 
L 80.903717 207.189825 
L 81.510789 255.282377 
L 81.915503 280.126055 
L 82.11786 283.435864 
L 82.320218 284.18601 
L 82.724932 278.846126 
L 82.927289 273.88167 
L 83.534361 248.563645 
L 84.141432 235.973828 
L 85.153218 247.664954 
L 85.962647 265.397612 
L 86.367362 286.204647 
L 86.772076 303.259784 
L 86.974433 305.96222 
L 87.176791 302.555074 
L 87.581505 293.181951 
L 87.783862 289.588207 
L 87.986219 283.963182 
L 88.593291 255.080377 
L 88.998005 252.849501 
L 89.200363 254.198565 
L 89.605077 253.439799 
L 90.212149 244.050287 
L 90.414506 244.49439 
L 90.616863 248.940346 
L 91.021578 267.458674 
L 91.628649 301.051781 
L 91.831006 302.790482 
L 92.033364 299.030708 
L 92.438078 281.718805 
L 92.842792 256.235955 
L 93.247507 245.283322 
L 93.449864 244.527439 
L 93.652221 244.485417 
L 94.259293 237.558356 
L 94.46165 236.77742 
L 94.664007 234.885021 
L 94.866364 234.422306 
L 95.068722 235.905644 
L 95.271079 238.52327 
L 95.473436 242.827428 
L 95.87815 267.656016 
L 96.282865 298.258135 
L 96.485222 304.899681 
L 96.687579 302.830974 
L 97.294651 274.84582 
L 97.901723 242.041961 
L 98.10408 240.430032 
L 98.306437 241.786654 
L 98.508794 243.951426 
L 98.711151 242.748593 
L 99.115866 235.02172 
L 99.318223 232.027473 
L 99.52058 230.788936 
L 99.722937 228.457112 
L 99.925295 227.466573 
L 100.127652 232.493967 
L 100.734723 271.770124 
L 101.139438 299.287604 
L 101.341795 305.897638 
L 101.544152 303.737358 
L 101.948867 291.086776 
L 102.758296 247.677688 
L 102.960653 245.802555 
L 103.16301 245.052023 
L 103.365367 245.964316 
L 103.972439 234.939649 
L 104.377153 227.010141 
L 104.57951 224.082929 
L 104.781868 226.019905 
L 105.186582 243.351409 
L 105.996011 297.95947 
L 106.198368 305.53004 
L 106.400725 303.800627 
L 106.80544 288.200952 
L 107.614869 247.48256 
L 108.22194 242.357761 
L 108.626655 227.196203 
L 109.031369 209.817906 
L 109.233726 210.425209 
L 109.436083 213.027131 
L 109.638441 217.260819 
L 110.043155 238.801437 
L 111.054941 301.747566 
L 111.257298 300.269397 
L 112.066727 266.493532 
L 112.471442 245.157492 
L 112.673799 239.694112 
L 113.887942 189.49389 
L 114.090299 189.084624 
L 114.292656 190.220522 
L 114.495014 195.785793 
L 114.899728 222.948352 
L 115.304442 254.757122 
L 115.911514 285.925211 
L 116.113871 288.713069 
L 116.316228 287.263905 
L 116.9233 273.39781 
L 117.732729 228.397927 
L 118.339801 187.748895 
L 118.744515 170.523282 
L 118.946872 164.924727 
L 119.149229 163.37995 
L 119.351587 168.486129 
L 119.756301 196.072125 
L 120.363373 249.751182 
L 120.768087 274.067008 
L 120.970444 281.21414 
L 121.172801 283.015225 
L 121.577516 278.372741 
L 121.779873 272.48133 
L 122.184587 251.021681 
L 122.589302 228.07551 
L 123.196374 207.184967 
L 123.601088 199.751365 
L 124.005802 207.21305 
L 124.612874 228.207918 
L 125.62466 294.336698 
L 125.827017 297.788305 
L 126.029374 295.009693 
L 126.434089 276.288406 
L 128.457661 167.331584 
L 128.660018 166.003337 
L 128.862375 169.448455 
L 129.26709 190.567083 
L 130.278876 282.257271 
L 130.481233 289.135027 
L 130.68359 289.631825 
L 130.885947 284.503014 
L 131.290662 263.911154 
L 131.897733 228.725385 
L 132.302448 204.481045 
L 132.909519 161.879005 
L 133.111877 152.908028 
L 133.314234 149.430013 
L 133.516591 149.018525 
L 133.921306 163.053688 
L 134.32602 185.964051 
L 135.135449 270.516252 
L 135.337806 279.580417 
L 135.540163 279.947866 
L 135.74252 275.877809 
L 135.944878 268.913721 
L 136.349592 242.225762 
L 136.754306 219.332468 
L 136.956664 209.240149 
L 137.159021 208.335686 
L 137.361378 200.575851 
L 137.563735 199.059333 
L 137.766092 194.414003 
L 137.96845 194.311478 
L 138.170807 198.531492 
L 138.373164 205.651629 
L 138.777879 212.352042 
L 138.980236 216.647572 
L 139.182593 224.842157 
L 139.992022 279.284925 
L 140.194379 283.788344 
L 140.396736 283.407371 
L 140.801451 272.895842 
L 142.015594 221.719056 
L 142.217951 220.580171 
L 142.420308 220.086922 
L 142.825023 217.93329 
L 143.02738 217.91517 
L 143.432094 221.999763 
L 143.836809 227.884212 
L 144.039166 234.807615 
L 144.848595 280.819208 
L 145.050952 287.067746 
L 145.253309 286.297871 
L 146.66981 225.07232 
L 146.872167 221.272013 
L 147.276881 219.674092 
L 147.479238 215.295326 
L 147.681596 214.584247 
L 147.883953 220.306794 
L 148.08631 221.437493 
L 148.491024 228.862674 
L 149.300453 266.202538 
L 149.705168 290.492642 
L 149.907525 295.068951 
L 150.109882 293.39031 
L 151.72874 239.970062 
L 152.133454 238.645948 
L 152.335811 238.449709 
L 152.740526 241.769926 
L 152.942883 241.758704 
L 153.347597 240.376149 
L 153.752312 252.690625 
L 154.764098 293.702649 
L 154.966455 296.894697 
L 155.168812 295.292386 
L 155.573527 285.57714 
L 155.775884 281.085546 
L 156.180598 258.294525 
L 156.990027 204.450888 
L 157.799456 177.123867 
L 158.001813 174.666618 
L 158.20417 176.97014 
L 158.608885 200.057774 
L 159.620671 277.119939 
L 159.823028 283.388539 
L 160.025385 282.356188 
L 160.227743 278.330372 
L 160.4301 268.944223 
L 161.239529 212.680403 
L 161.644243 197.496224 
L 162.251315 183.307307 
L 162.453672 183.296396 
L 162.858386 193.635933 
L 163.667815 234.274818 
L 164.477244 288.188116 
L 164.679601 290.356097 
L 164.881958 284.988206 
L 165.286673 264.594573 
L 165.691387 238.498365 
L 166.096102 229.161957 
L 166.500816 224.213989 
L 167.107888 189.976155 
L 167.310245 184.342254 
L 167.512602 183.587574 
L 167.714959 187.87403 
L 168.322031 215.486928 
L 169.333817 287.292494 
L 169.536174 285.960984 
L 169.738531 280.668972 
L 170.143246 259.791561 
L 171.559746 170.962248 
L 171.964461 158.991873 
L 172.166818 159.21488 
L 172.369175 161.219338 
L 172.571532 166.481303 
L 172.773889 174.996371 
L 173.178604 202.011198 
L 173.785675 259.472346 
L 174.19039 283.281903 
L 174.392747 285.426179 
L 174.595104 279.796156 
L 175.202176 249.983768 
L 175.60689 226.694685 
L 176.821034 179.799223 
L 177.023391 177.613753 
L 177.225748 177.544604 
L 177.630462 188.525966 
L 178.035177 210.855031 
L 178.439891 252.183797 
L 179.046963 291.860924 
L 179.24932 294.171635 
L 179.451677 288.726903 
L 180.058749 256.880802 
L 180.868178 209.90239 
L 181.879964 160.565993 
L 182.082321 160.036519 
L 182.284678 162.75507 
L 182.689393 180.851113 
L 183.094107 216.223916 
L 183.498821 251.313504 
L 183.903536 269.272209 
L 184.105893 270.938526 
L 184.30825 269.095553 
L 184.712965 259.164535 
L 184.915322 254.24182 
L 185.320036 230.18984 
L 186.129465 157.773833 
L 186.53418 148.24231 
L 186.736537 149.281049 
L 187.141251 166.668382 
L 188.153037 232.938647 
L 188.557752 256.824617 
L 188.962466 269.554063 
L 189.164823 268.033769 
L 189.974252 246.039384 
L 190.378966 216.960877 
L 190.783681 181.024266 
L 191.188395 165.599868 
L 191.390752 161.591249 
L 191.59311 163.107473 
L 191.997824 180.113737 
L 193.819039 274.599288 
L 194.021396 274.554601 
L 194.223753 271.416872 
L 194.628468 259.36647 
L 195.235539 221.87382 
L 195.640254 191.697653 
L 195.842611 187.676041 
L 196.044968 189.221023 
L 196.854397 217.453093 
L 197.461469 230.12748 
L 197.866183 251.094969 
L 198.270898 276.692798 
L 198.675612 288.609813 
L 198.877969 286.602337 
L 199.080326 279.273319 
L 199.485041 248.518851 
L 199.889755 222.707097 
L 200.901541 185.406338 
L 201.103898 179.024273 
L 201.306256 176.550588 
L 201.508613 175.715605 
L 201.71097 177.625799 
L 202.115684 190.548638 
L 202.520399 216.303769 
L 202.925113 249.110656 
L 203.329828 274.683004 
L 203.532185 277.187326 
L 203.734542 272.964935 
L 204.139257 250.573344 
L 204.543971 226.443574 
L 205.555757 181.65581 
L 205.960471 170.88401 
L 206.162829 173.260665 
L 207.174615 206.922961 
L 207.579329 241.229485 
L 207.984044 268.633281 
L 208.186401 275.704118 
L 208.388758 274.964995 
L 208.591115 270.80636 
L 208.99583 250.477594 
L 209.400544 223.030949 
L 210.209973 193.551985 
L 210.614687 172.980272 
L 211.019402 153.83713 
L 211.221759 151.828583 
L 211.424116 157.097801 
L 212.031188 191.462188 
L 212.840617 260.18225 
L 213.042974 267.653556 
L 213.245331 269.180285 
L 213.447688 264.84052 
L 214.05476 235.618876 
L 215.673617 131.178544 
L 215.875975 127.638211 
L 216.078332 129.268481 
L 216.483046 141.805189 
L 216.887761 170.018379 
L 217.292475 209.795977 
L 217.697189 250.114177 
L 217.899547 259.541875 
L 218.101904 262.21598 
L 218.911333 249.487244 
L 219.316047 224.933333 
L 220.125476 166.84792 
L 220.327833 159.186511 
L 220.53019 156.570638 
L 220.732548 159.518632 
L 222.75612 278.542302 
L 222.958477 283.271485 
L 223.160834 280.67407 
L 223.970263 260.387525 
L 224.779692 215.011237 
L 224.982049 218.323525 
L 225.386763 228.099015 
L 226.600907 247.932674 
L 226.803264 253.557073 
L 227.612693 296.867101 
L 227.81505 299.051441 
L 228.017407 296.15564 
L 228.422121 279.354023 
L 229.029193 246.306665 
L 229.838622 232.434837 
L 230.445694 205.723961 
L 230.850408 202.366111 
L 231.052765 203.285679 
L 231.255122 206.387887 
L 231.45748 216.663164 
L 232.266908 281.260752 
L 232.469266 290.92021 
L 232.671623 292.631832 
L 232.87398 289.630601 
L 233.278694 272.419053 
L 233.885766 235.513959 
L 234.492838 217.973221 
L 235.302267 189.507296 
L 235.504624 189.10692 
L 235.706981 192.08629 
L 236.111695 205.804227 
L 236.51641 237.020672 
L 237.325839 290.881549 
L 237.528196 292.736353 
L 237.730553 289.761666 
L 238.135267 269.740708 
L 238.742339 235.208935 
L 239.551768 212.454874 
L 239.956482 202.093506 
L 240.15884 200.65186 
L 240.563554 206.501242 
L 240.765911 209.984492 
L 240.968268 217.524159 
L 241.980054 288.280164 
L 242.182412 295.350265 
L 242.384769 296.237906 
L 242.587126 291.489826 
L 242.99184 272.483766 
L 243.598912 241.751924 
L 244.205984 220.841443 
L 245.015413 191.615473 
L 245.21777 190.903263 
L 245.420127 192.74976 
L 245.622484 195.678827 
L 245.824841 202.959883 
L 247.038985 288.772939 
L 247.241342 292.551746 
L 247.443699 288.612951 
L 247.848413 270.518284 
L 249.871985 149.659135 
L 250.074343 153.334984 
L 250.479057 169.853032 
L 251.086129 213.986807 
L 251.490843 250.194358 
L 251.895558 269.358338 
L 252.097915 272.957079 
L 252.300272 271.405991 
L 252.704986 260.833509 
L 252.907344 254.769042 
L 253.312058 230.75846 
L 254.323844 160.810749 
L 254.728558 153.742146 
L 254.930916 155.327742 
L 255.133273 158.198442 
L 255.33563 166.180391 
L 255.942702 212.617017 
L 256.347416 248.828088 
L 256.752131 269.327164 
L 256.954488 274.954364 
L 257.156845 276.663074 
L 257.359202 273.931396 
L 257.763917 262.576376 
L 258.168631 238.259611 
L 258.775703 192.427895 
L 259.180417 176.385588 
L 259.382774 170.851458 
L 259.585131 170.425708 
L 259.787489 172.336816 
L 260.192203 187.127581 
L 260.799275 221.309985 
L 261.406346 269.965616 
L 261.811061 285.110014 
L 262.013418 282.975161 
L 262.215775 276.569422 
L 263.227561 220.660273 
L 263.429918 216.705131 
L 264.239347 226.525584 
L 264.644062 233.262663 
L 265.048776 236.148561 
L 265.45349 244.591008 
L 265.655848 252.726048 
L 266.262919 288.901574 
L 266.465277 294.639553 
L 266.667634 295.347995 
L 267.072348 281.382619 
L 267.881777 246.104611 
L 268.286491 238.663754 
L 268.488849 237.125143 
L 269.09592 223.842982 
L 269.298277 223.623181 
L 269.500635 224.13606 
L 269.702992 223.896416 
L 270.107706 229.570159 
L 270.310063 235.391552 
L 270.714778 259.137509 
L 271.119492 284.469249 
L 271.32185 290.461623 
L 271.524207 290.457784 
L 271.928921 278.307731 
L 272.73835 233.69508 
L 273.143064 217.824951 
L 274.15485 166.763835 
L 274.357208 163.518171 
L 274.559565 162.753371 
L 274.761922 167.107003 
L 275.166636 185.675957 
L 275.976065 252.704373 
L 276.178422 260.946016 
L 276.38078 264.580667 
L 276.583137 262.968141 
L 276.785494 258.454346 
L 277.190209 238.061096 
L 277.79728 200.913053 
L 278.606709 160.649865 
L 279.011423 153.651845 
L 279.416138 156.815988 
L 279.618495 162.020731 
L 279.820852 170.940606 
L 281.034995 270.163796 
L 281.237353 275.629428 
L 281.43971 273.130253 
L 281.642067 266.879884 
L 283.463282 176.580701 
L 283.867996 165.074381 
L 284.070354 166.970618 
L 284.272711 172.308114 
L 284.677425 195.131064 
L 285.891568 286.550721 
L 286.093926 289.97223 
L 286.296283 287.608405 
L 286.700997 271.676662 
L 286.903354 264.761923 
L 287.712783 217.971226 
L 288.117498 188.165262 
L 288.724569 167.074795 
L 288.926927 166.150673 
L 289.129284 169.282341 
L 289.331641 176.424832 
L 289.938713 216.474046 
L 290.343427 250.186187 
L 290.748141 271.610719 
L 290.950499 277.583007 
L 291.152856 276.910552 
L 291.55757 266.977719 
L 291.962285 252.863617 
L 292.366999 219.774534 
L 292.771714 176.343712 
L 293.176428 151.23155 
L 293.581142 138.649127 
L 293.7835 139.369995 
L 293.985857 144.740561 
L 294.390571 165.867443 
L 294.997643 209.644668 
L 295.402357 248.282355 
L 295.807072 263.873434 
L 296.009429 263.813481 
L 296.211786 258.705853 
L 296.818858 218.81236 
L 297.830644 117.950194 
L 298.235358 99.449518 
L 298.437715 97.239084 
L 298.640073 101.444373 
L 299.247144 128.308752 
L 299.651859 159.945136 
L 300.25893 229.13568 
L 300.461287 239.850843 
L 300.663645 243.2521 
L 300.866002 241.0488 
L 301.068359 233.109247 
L 301.877788 169.920644 
L 302.484859 99.386813 
L 302.889574 81.556923 
L 303.091931 81.834552 
L 303.294288 88.654703 
L 303.90136 124.34655 
L 304.508432 176.83476 
L 305.115503 233.156475 
L 305.31786 241.489801 
L 305.520218 244.062864 
L 305.722575 244.108288 
L 305.924932 237.899872 
L 306.734361 183.184251 
L 307.341432 138.995689 
L 307.746147 126.767547 
L 307.948504 123.134316 
L 308.150861 126.015731 
L 308.555576 147.65782 
L 309.365005 201.118645 
L 309.972076 247.512801 
L 310.174433 254.975832 
L 310.376791 257.423926 
L 310.579148 254.521398 
L 310.983862 237.19843 
L 311.590934 197.838287 
L 312.198005 141.126357 
L 312.400363 130.358242 
L 312.60272 125.602644 
L 312.805077 123.573448 
L 313.007434 125.802755 
L 313.412149 140.222939 
L 314.01922 173.026819 
L 314.423935 206.154863 
L 314.828649 241.665185 
L 315.031006 247.384826 
L 315.233364 248.114655 
L 315.435721 245.404256 
L 316.042792 218.895673 
L 316.649864 190.817208 
L 317.256936 172.001549 
L 317.66165 169.546766 
L 318.268722 188.718153 
L 318.875793 211.483564 
L 319.887579 269.904772 
L 320.089937 272.420967 
L 320.292294 270.803443 
L 320.697008 264.028861 
L 320.899365 258.586175 
L 321.911151 202.874351 
L 322.315866 182.339683 
L 322.518223 173.931943 
L 322.72058 172.34595 
L 322.922937 171.640871 
L 323.125295 172.183068 
L 323.327652 176.697172 
L 323.530009 184.308092 
L 324.137081 225.952365 
L 324.744152 264.793631 
L 324.94651 270.88792 
L 325.148867 271.860847 
L 325.958296 245.151754 
L 326.36301 220.06953 
L 326.970082 158.816524 
L 327.374796 139.23802 
L 327.577153 138.087974 
L 327.981868 143.884164 
L 328.386582 163.554895 
L 328.791296 198.296972 
L 329.196011 241.516087 
L 329.600725 263.926046 
L 329.803083 270.240061 
L 330.00544 269.972545 
L 330.207797 264.381573 
L 330.612511 242.432537 
L 331.624297 162.341746 
L 332.029012 146.848821 
L 332.231369 144.219798 
L 332.433726 146.245809 
L 332.636083 152.347112 
L 333.647869 215.453066 
L 334.052584 248.897133 
L 334.457298 272.659976 
L 334.659655 277.885559 
L 334.862013 276.031979 
L 335.266727 254.661354 
L 335.873799 219.529197 
L 336.885585 181.980999 
L 337.290299 183.888492 
L 337.897371 201.553953 
L 338.504442 230.357023 
L 339.111514 273.534182 
L 339.313871 282.870052 
L 339.516228 283.95983 
L 339.718586 278.86551 
L 340.1233 256.73816 
L 340.528015 231.414689 
L 340.932729 215.829022 
L 341.337443 191.199843 
L 342.146872 165.551093 
L 342.349229 165.431341 
L 342.551587 165.980476 
L 342.753944 167.910743 
L 343.158658 183.056715 
L 343.361015 195.575262 
L 343.968087 249.213831 
L 344.170444 256.836008 
L 344.372801 257.676199 
L 344.575159 255.265186 
L 345.18223 231.226952 
L 345.586945 200.719336 
L 346.194016 143.214621 
L 346.598731 122.073774 
L 346.801088 116.877708 
L 347.003445 117.249702 
L 347.610517 136.542151 
L 348.015231 160.310892 
L 348.419946 200.566993 
L 348.82466 243.250219 
L 349.027017 253.058493 
L 349.229374 257.231939 
L 349.431732 256.155873 
L 349.836446 237.151827 
L 350.038803 227.147096 
L 351.050589 145.044348 
L 351.455304 125.091746 
L 351.860018 114.781243 
L 352.062375 117.040755 
L 352.46709 129.162831 
L 352.871804 159.587189 
L 353.88359 250.261457 
L 354.085947 256.435953 
L 354.288305 256.451736 
L 354.490662 254.358974 
L 354.895376 241.770957 
L 355.300091 209.45434 
L 356.109519 125.853812 
L 356.514234 114.8695 
L 356.716591 112.434063 
L 356.918948 112.873575 
L 357.121306 117.081461 
L 357.323663 125.348315 
L 357.930734 173.465684 
L 358.740163 246.377997 
L 358.94252 252.540537 
L 359.144878 252.781597 
L 359.549592 242.112072 
L 359.751949 236.05153 
L 360.156664 204.749064 
L 360.966092 117.34244 
L 361.370807 104.272532 
L 361.573164 101.317978 
L 361.775521 101.790328 
L 361.977879 105.910343 
L 362.382593 126.957633 
L 363.192022 198.658844 
L 363.596736 235.260762 
L 363.799093 241.219701 
L 364.001451 241.518812 
L 364.203808 236.704283 
L 364.406165 227.83198 
L 364.810879 194.044465 
L 365.822665 85.51433 
L 366.22738 75.573439 
L 366.429737 76.247962 
L 366.632094 80.398462 
L 367.036809 96.397116 
L 367.441523 126.124281 
L 368.048595 190.104339 
L 368.453309 222.244257 
L 368.655666 227.207517 
L 368.858024 228.573053 
L 369.060381 223.187533 
L 369.667452 188.415669 
L 370.679238 96.853196 
L 370.881596 91.546493 
L 371.083953 89.788764 
L 371.28631 91.88546 
L 371.691024 107.547477 
L 372.095739 132.903453 
L 373.309882 234.609602 
L 373.512239 239.951822 
L 373.714597 240.988214 
L 373.916954 236.498275 
L 374.726383 197.158519 
L 375.333454 134.343412 
L 375.535811 124.829804 
L 375.738169 121.271905 
L 375.940526 121.117379 
L 376.142883 123.539446 
L 376.34524 127.296968 
L 376.547597 134.166601 
L 376.952312 161.169427 
L 377.964098 233.584726 
L 378.368812 249.023953 
L 378.57117 247.644004 
L 378.975884 231.947197 
L 379.380598 206.79107 
L 380.190027 132.529777 
L 380.594742 115.375936 
L 380.797099 112.695933 
L 380.999456 114.008552 
L 381.201813 117.154671 
L 381.606528 128.591736 
L 382.213599 165.36897 
L 383.023028 228.750408 
L 383.225385 231.929519 
L 383.427743 230.15335 
L 383.832457 217.210553 
L 384.237171 194.964525 
L 384.237171 194.964525 
" clip-path="url(#p10fc409e40)" style="fill: none; stroke: #ff7f0e; stroke-width: 1.5; stroke-linecap: square"/>
   </g>
   <g id="line2d_15">
    <path d="M 384.439529 180.227091 
L 385.248957 128.989289 
L 385.653672 116.052949 
L 385.856029 113.497695 
L 386.058386 117.207654 
L 386.463101 135.594919 
L 387.272529 193.791556 
L 387.677244 224.612406 
L 388.081958 236.892759 
L 388.284316 237.047847 
L 388.486673 231.499036 
L 389.093744 194.766967 
L 390.307888 115.435443 
L 390.510245 109.710193 
L 390.712602 108.480043 
L 390.914959 111.692391 
L 391.319674 127.469351 
L 391.926745 164.517244 
L 392.533817 204.191371 
L 392.736174 211.94475 
L 392.938531 215.319057 
L 393.140888 215.396806 
L 393.343246 211.312295 
L 393.74796 192.078639 
L 394.355032 151.914202 
L 394.962103 111.110795 
L 395.366818 97.143982 
L 395.569175 97.134783 
L 395.771532 102.019039 
L 396.176247 120.839013 
L 397.592747 208.823754 
L 397.795104 213.512443 
L 397.997461 214.64863 
L 398.199819 211.262003 
L 398.604533 196.576086 
L 399.009248 173.419256 
L 399.818676 121.413174 
L 400.223391 109.497657 
L 400.425748 110.004164 
L 400.628105 114.366713 
L 401.03282 133.734339 
L 402.44932 219.782751 
L 402.651677 223.199081 
L 402.854034 222.468942 
L 403.258749 214.250246 
L 403.663463 199.11192 
L 404.877607 132.333808 
L 405.079964 128.079999 
L 405.282321 127.503152 
L 405.484678 130.543823 
L 405.889393 146.468958 
L 406.698821 194.047855 
L 407.103536 214.697312 
L 407.50825 223.320674 
L 407.710607 223.082072 
L 407.912965 220.374845 
L 408.317679 208.419609 
L 408.924751 171.374672 
L 409.531822 130.986295 
L 409.936537 116.091551 
L 410.138894 112.762797 
L 410.341251 113.066929 
L 410.543608 116.301116 
L 410.948323 129.78077 
L 412.364823 191.8475 
L 412.56718 192.823047 
L 412.769538 190.559595 
L 412.971895 184.49988 
L 413.578966 151.144042 
L 414.388395 100.406103 
L 414.79311 87.31318 
L 414.995467 85.929205 
L 415.197824 88.054424 
L 415.602539 101.606993 
L 416.20961 136.525072 
L 417.221396 197.790322 
L 417.423753 202.377803 
L 417.626111 203.872058 
L 417.828468 201.998746 
L 418.233182 192.154048 
L 418.840254 165.207069 
L 419.447325 141.909145 
L 419.649683 138.327619 
L 419.85204 138.545818 
L 420.054397 142.146509 
L 420.459112 157.897543 
L 421.875612 229.871496 
L 422.280326 236.585079 
L 422.482684 236.265552 
L 422.685041 233.052162 
L 423.292112 213.181514 
L 424.506256 163.848105 
L 424.708613 160.336557 
L 424.91097 159.273472 
L 425.113327 160.954645 
L 425.518042 170.64241 
L 426.529828 202.243903 
L 426.934542 207.810803 
L 427.136899 207.023452 
L 427.339257 203.691458 
L 427.541614 198.31285 
L 427.946328 177.346844 
L 429.362829 95.481438 
L 429.767543 85.433299 
L 429.9699 84.744692 
L 430.172257 86.526274 
L 430.576972 95.78973 
L 431.588758 125.683812 
L 431.993472 130.530447 
L 432.19583 130.069203 
L 432.398187 127.376127 
L 432.802901 116.222046 
L 433.61233 90.743389 
L 433.814687 87.264488 
L 434.017044 85.941648 
L 434.219402 86.849625 
L 434.421759 90.239021 
L 434.826473 105.00655 
L 435.433545 141.73306 
L 436.242974 195.996089 
L 436.647688 208.821298 
L 436.850045 212.696923 
L 437.052403 214.026617 
L 437.25476 213.900992 
L 438.266546 209.289767 
L 438.468903 209.033314 
L 438.67126 209.759009 
L 438.873617 211.918923 
L 439.278332 220.266796 
L 440.492475 250.924576 
L 440.897189 256.60527 
L 441.099547 257.984287 
L 441.301904 258.062679 
L 441.504261 256.564413 
L 441.908976 249.466288 
L 442.31369 237.833439 
L 443.123119 209.869764 
L 443.73019 193.587506 
L 444.337262 185.404023 
L 445.551405 172.560281 
L 445.95612 166.791306 
L 446.360834 153.856668 
L 446.967906 123.151995 
L 447.777335 82.880119 
L 448.182049 69.531078 
L 448.586763 63.009771 
L 448.789121 62.436412 
L 448.991478 63.713317 
L 449.396192 70.304198 
L 451.01505 105.364426 
L 451.419764 108.432468 
L 451.622121 109.07527 
L 452.026836 109.552279 
L 452.229193 110.28795 
L 452.633908 113.970116 
L 453.038622 121.51927 
L 453.443336 134.072058 
L 454.050408 161.941424 
L 454.859837 200.564224 
L 455.264551 212.971055 
L 455.669266 218.908446 
L 456.478694 226.290869 
L 457.288123 233.218772 
L 458.097552 244.963603 
L 459.109338 260.248954 
L 459.311695 261.425646 
L 459.514053 261.608922 
L 459.71641 260.703489 
L 460.121124 256.337529 
L 460.525839 248.032578 
L 461.739982 219.625853 
L 462.751768 198.75444 
L 463.156482 190.96512 
L 463.965911 169.760526 
L 464.572983 149.919644 
L 465.180054 120.55121 
L 465.989483 79.113451 
L 466.394198 65.269871 
L 466.798912 57.451182 
L 467.001269 55.937793 
L 467.203626 56.013142 
L 467.405984 57.668721 
L 467.810698 64.478913 
L 469.631913 102.804816 
L 471.048413 121.029313 
L 471.655485 137.279372 
L 472.262557 161.423115 
L 473.071985 196.818076 
L 473.679057 213.856121 
L 474.488486 225.741613 
L 477.321487 260.809555 
L 477.523844 261.75107 
L 477.726201 261.736012 
L 477.928558 260.943217 
L 478.333273 257.139921 
L 478.737987 250.131193 
L 480.154488 222.558578 
L 481.570988 194.24583 
L 482.380417 168.067195 
L 482.987489 144.023621 
L 484.606346 66.981285 
L 485.011061 58.3359 
L 485.213418 56.403689 
L 485.415775 55.8 
L 485.618132 56.651286 
L 486.022847 61.950061 
L 487.034633 82.284535 
L 488.046419 100.208625 
L 489.058205 114.799593 
L 489.665277 129.525686 
L 490.272348 150.553152 
L 491.688849 205.428322 
L 492.093563 214.564094 
L 494.926564 254.614337 
L 495.331278 259.240824 
L 495.735993 261.853104 
L 495.93835 261.991993 
L 496.140707 261.33394 
L 496.545422 258.027536 
L 496.950136 251.873775 
L 498.366636 225.865011 
L 499.378422 207.993125 
L 499.783137 199.375442 
L 500.390209 180.850382 
L 501.199637 149.007466 
L 502.009066 107.105801 
L 502.616138 77.953445 
L 503.020852 65.029299 
L 503.425567 57.976277 
L 503.627924 56.632389 
L 503.830281 56.574165 
L 504.032638 57.885263 
L 504.437353 63.436971 
L 507.877425 126.249184 
L 508.484497 146.613608 
L 510.103354 207.192135 
L 510.508069 215.333624 
L 512.126927 238.829414 
L 513.34107 256.350653 
L 513.745784 260.293751 
L 513.948141 261.555829 
L 514.150499 262.091229 
L 514.352856 261.797706 
L 514.555213 260.777186 
L 514.959927 257.1137 
L 515.566999 246.353396 
L 516.578785 228.25302 
L 517.388214 214.806836 
L 518.197643 197.994587 
L 518.4 192.125765 
L 518.4 192.125765 
" clip-path="url(#p10fc409e40)" style="fill: none; stroke: #2ca02c; stroke-width: 1.5; stroke-linecap: square"/>
   </g>
   <g id="patch_3">
    <path d="M 72 320.4 
L 72 43.2 
" style="fill: none; stroke: #000000; stroke-width: 0.8; stroke-linejoin: miter; stroke-linecap: square"/>
   </g>
   <g id="patch_4">
    <path d="M 518.4 320.4 
L 518.4 43.2 
" style="fill: none; stroke: #000000; stroke-width: 0.8; stroke-linejoin: miter; stroke-linecap: square"/>
   </g>
   <g id="patch_5">
    <path d="M 72 320.4 
L 518.4 320.4 
" style="fill: none; stroke: #000000; stroke-width: 0.8; stroke-linejoin: miter; stroke-linecap: square"/>
   </g>
   <g id="patch_6">
    <path d="M 72 43.2 
L 518.4 43.2 
" style="fill: none; stroke: #000000; stroke-width: 0.8; stroke-linejoin: miter; stroke-linecap: square"/>
   </g>
   <g id="text_13">
    <!-- Classic Transformer - model_20231126155759 -->
    <g transform="translate(155.436563 37.2) scale(0.12 -0.12)">
     <defs>
      <path id="DejaVuSans-43" d="M 4122 4306 
L 4122 3641 
Q 3803 3938 3442 4084 
Q 3081 4231 2675 4231 
Q 1875 4231 1450 3742 
Q 1025 3253 1025 2328 
Q 1025 1406 1450 917 
Q 1875 428 2675 428 
Q 3081 428 3442 575 
Q 3803 722 4122 1019 
L 4122 359 
Q 3791 134 3420 21 
Q 3050 -91 2638 -91 
Q 1578 -91 968 557 
Q 359 1206 359 2328 
Q 359 3453 968 4101 
Q 1578 4750 2638 4750 
Q 3056 4750 3426 4639 
Q 3797 4528 4122 4306 
z
" transform="scale(0.015625)"/>
      <path id="DejaVuSans-6c" d="M 603 4863 
L 1178 4863 
L 1178 0 
L 603 0 
L 603 4863 
z
" transform="scale(0.015625)"/>
      <path id="DejaVuSans-61" d="M 2194 1759 
Q 1497 1759 1228 1600 
Q 959 1441 959 1056 
Q 959 750 1161 570 
Q 1363 391 1709 391 
Q 2188 391 2477 730 
Q 2766 1069 2766 1631 
L 2766 1759 
L 2194 1759 
z
M 3341 1997 
L 3341 0 
L 2766 0 
L 2766 531 
Q 2569 213 2275 61 
Q 1981 -91 1556 -91 
Q 1019 -91 701 211 
Q 384 513 384 1019 
Q 384 1609 779 1909 
Q 1175 2209 1959 2209 
L 2766 2209 
L 2766 2266 
Q 2766 2663 2505 2880 
Q 2244 3097 1772 3097 
Q 1472 3097 1187 3025 
Q 903 2953 641 2809 
L 641 3341 
Q 956 3463 1253 3523 
Q 1550 3584 1831 3584 
Q 2591 3584 2966 3190 
Q 3341 2797 3341 1997 
z
" transform="scale(0.015625)"/>
      <path id="DejaVuSans-73" d="M 2834 3397 
L 2834 2853 
Q 2591 2978 2328 3040 
Q 2066 3103 1784 3103 
Q 1356 3103 1142 2972 
Q 928 2841 928 2578 
Q 928 2378 1081 2264 
Q 1234 2150 1697 2047 
L 1894 2003 
Q 2506 1872 2764 1633 
Q 3022 1394 3022 966 
Q 3022 478 2636 193 
Q 2250 -91 1575 -91 
Q 1294 -91 989 -36 
Q 684 19 347 128 
L 347 722 
Q 666 556 975 473 
Q 1284 391 1588 391 
Q 1994 391 2212 530 
Q 2431 669 2431 922 
Q 2431 1156 2273 1281 
Q 2116 1406 1581 1522 
L 1381 1569 
Q 847 1681 609 1914 
Q 372 2147 372 2553 
Q 372 3047 722 3315 
Q 1072 3584 1716 3584 
Q 2034 3584 2315 3537 
Q 2597 3491 2834 3397 
z
" transform="scale(0.015625)"/>
      <path id="DejaVuSans-69" d="M 603 3500 
L 1178 3500 
L 1178 0 
L 603 0 
L 603 3500 
z
M 603 4863 
L 1178 4863 
L 1178 4134 
L 603 4134 
L 603 4863 
z
" transform="scale(0.015625)"/>
      <path id="DejaVuSans-63" d="M 3122 3366 
L 3122 2828 
Q 2878 2963 2633 3030 
Q 2388 3097 2138 3097 
Q 1578 3097 1268 2742 
Q 959 2388 959 1747 
Q 959 1106 1268 751 
Q 1578 397 2138 397 
Q 2388 397 2633 464 
Q 2878 531 3122 666 
L 3122 134 
Q 2881 22 2623 -34 
Q 2366 -91 2075 -91 
Q 1284 -91 818 406 
Q 353 903 353 1747 
Q 353 2603 823 3093 
Q 1294 3584 2113 3584 
Q 2378 3584 2631 3529 
Q 2884 3475 3122 3366 
z
" transform="scale(0.015625)"/>
      <path id="DejaVuSans-20" transform="scale(0.015625)"/>
      <path id="DejaVuSans-54" d="M -19 4666 
L 3928 4666 
L 3928 4134 
L 2272 4134 
L 2272 0 
L 1638 0 
L 1638 4134 
L -19 4134 
L -19 4666 
z
" transform="scale(0.015625)"/>
      <path id="DejaVuSans-72" d="M 2631 2963 
Q 2534 3019 2420 3045 
Q 2306 3072 2169 3072 
Q 1681 3072 1420 2755 
Q 1159 2438 1159 1844 
L 1159 0 
L 581 0 
L 581 3500 
L 1159 3500 
L 1159 2956 
Q 1341 3275 1631 3429 
Q 1922 3584 2338 3584 
Q 2397 3584 2469 3576 
Q 2541 3569 2628 3553 
L 2631 2963 
z
" transform="scale(0.015625)"/>
      <path id="DejaVuSans-6e" d="M 3513 2113 
L 3513 0 
L 2938 0 
L 2938 2094 
Q 2938 2591 2744 2837 
Q 2550 3084 2163 3084 
Q 1697 3084 1428 2787 
Q 1159 2491 1159 1978 
L 1159 0 
L 581 0 
L 581 3500 
L 1159 3500 
L 1159 2956 
Q 1366 3272 1645 3428 
Q 1925 3584 2291 3584 
Q 2894 3584 3203 3211 
Q 3513 2838 3513 2113 
z
" transform="scale(0.015625)"/>
      <path id="DejaVuSans-66" d="M 2375 4863 
L 2375 4384 
L 1825 4384 
Q 1516 4384 1395 4259 
Q 1275 4134 1275 3809 
L 1275 3500 
L 2222 3500 
L 2222 3053 
L 1275 3053 
L 1275 0 
L 697 0 
L 697 3053 
L 147 3053 
L 147 3500 
L 697 3500 
L 697 3744 
Q 697 4328 969 4595 
Q 1241 4863 1831 4863 
L 2375 4863 
z
" transform="scale(0.015625)"/>
      <path id="DejaVuSans-6f" d="M 1959 3097 
Q 1497 3097 1228 2736 
Q 959 2375 959 1747 
Q 959 1119 1226 758 
Q 1494 397 1959 397 
Q 2419 397 2687 759 
Q 2956 1122 2956 1747 
Q 2956 2369 2687 2733 
Q 2419 3097 1959 3097 
z
M 1959 3584 
Q 2709 3584 3137 3096 
Q 3566 2609 3566 1747 
Q 3566 888 3137 398 
Q 2709 -91 1959 -91 
Q 1206 -91 779 398 
Q 353 888 353 1747 
Q 353 2609 779 3096 
Q 1206 3584 1959 3584 
z
" transform="scale(0.015625)"/>
      <path id="DejaVuSans-6d" d="M 3328 2828 
Q 3544 3216 3844 3400 
Q 4144 3584 4550 3584 
Q 5097 3584 5394 3201 
Q 5691 2819 5691 2113 
L 5691 0 
L 5113 0 
L 5113 2094 
Q 5113 2597 4934 2840 
Q 4756 3084 4391 3084 
Q 3944 3084 3684 2787 
Q 3425 2491 3425 1978 
L 3425 0 
L 2847 0 
L 2847 2094 
Q 2847 2600 2669 2842 
Q 2491 3084 2119 3084 
Q 1678 3084 1418 2786 
Q 1159 2488 1159 1978 
L 1159 0 
L 581 0 
L 581 3500 
L 1159 3500 
L 1159 2956 
Q 1356 3278 1631 3431 
Q 1906 3584 2284 3584 
Q 2666 3584 2933 3390 
Q 3200 3197 3328 2828 
z
" transform="scale(0.015625)"/>
      <path id="DejaVuSans-65" d="M 3597 1894 
L 3597 1613 
L 953 1613 
Q 991 1019 1311 708 
Q 1631 397 2203 397 
Q 2534 397 2845 478 
Q 3156 559 3463 722 
L 3463 178 
Q 3153 47 2828 -22 
Q 2503 -91 2169 -91 
Q 1331 -91 842 396 
Q 353 884 353 1716 
Q 353 2575 817 3079 
Q 1281 3584 2069 3584 
Q 2775 3584 3186 3129 
Q 3597 2675 3597 1894 
z
M 3022 2063 
Q 3016 2534 2758 2815 
Q 2500 3097 2075 3097 
Q 1594 3097 1305 2825 
Q 1016 2553 972 2059 
L 3022 2063 
z
" transform="scale(0.015625)"/>
      <path id="DejaVuSans-64" d="M 2906 2969 
L 2906 4863 
L 3481 4863 
L 3481 0 
L 2906 0 
L 2906 525 
Q 2725 213 2448 61 
Q 2172 -91 1784 -91 
Q 1150 -91 751 415 
Q 353 922 353 1747 
Q 353 2572 751 3078 
Q 1150 3584 1784 3584 
Q 2172 3584 2448 3432 
Q 2725 3281 2906 2969 
z
M 947 1747 
Q 947 1113 1208 752 
Q 1469 391 1925 391 
Q 2381 391 2643 752 
Q 2906 1113 2906 1747 
Q 2906 2381 2643 2742 
Q 2381 3103 1925 3103 
Q 1469 3103 1208 2742 
Q 947 2381 947 1747 
z
" transform="scale(0.015625)"/>
      <path id="DejaVuSans-5f" d="M 3263 -1063 
L 3263 -1509 
L -63 -1509 
L -63 -1063 
L 3263 -1063 
z
" transform="scale(0.015625)"/>
      <path id="DejaVuSans-39" d="M 703 97 
L 703 672 
Q 941 559 1184 500 
Q 1428 441 1663 441 
Q 2288 441 2617 861 
Q 2947 1281 2994 2138 
Q 2813 1869 2534 1725 
Q 2256 1581 1919 1581 
Q 1219 1581 811 2004 
Q 403 2428 403 3163 
Q 403 3881 828 4315 
Q 1253 4750 1959 4750 
Q 2769 4750 3195 4129 
Q 3622 3509 3622 2328 
Q 3622 1225 3098 567 
Q 2575 -91 1691 -91 
Q 1453 -91 1209 -44 
Q 966 3 703 97 
z
M 1959 2075 
Q 2384 2075 2632 2365 
Q 2881 2656 2881 3163 
Q 2881 3666 2632 3958 
Q 2384 4250 1959 4250 
Q 1534 4250 1286 3958 
Q 1038 3666 1038 3163 
Q 1038 2656 1286 2365 
Q 1534 2075 1959 2075 
z
" transform="scale(0.015625)"/>
     </defs>
     <use xlink:href="#DejaVuSans-43"/>
     <use xlink:href="#DejaVuSans-6c" x="69.824219"/>
     <use xlink:href="#DejaVuSans-61" x="97.607422"/>
     <use xlink:href="#DejaVuSans-73" x="158.886719"/>
     <use xlink:href="#DejaVuSans-73" x="210.986328"/>
     <use xlink:href="#DejaVuSans-69" x="263.085938"/>
     <use xlink:href="#DejaVuSans-63" x="290.869141"/>
     <use xlink:href="#DejaVuSans-20" x="345.849609"/>
     <use xlink:href="#DejaVuSans-54" x="377.636719"/>
     <use xlink:href="#DejaVuSans-72" x="423.970703"/>
     <use xlink:href="#DejaVuSans-61" x="465.083984"/>
     <use xlink:href="#DejaVuSans-6e" x="526.363281"/>
     <use xlink:href="#DejaVuSans-73" x="589.742188"/>
     <use xlink:href="#DejaVuSans-66" x="641.841797"/>
     <use xlink:href="#DejaVuSans-6f" x="677.046875"/>
     <use xlink:href="#DejaVuSans-72" x="738.228516"/>
     <use xlink:href="#DejaVuSans-6d" x="777.591797"/>
     <use xlink:href="#DejaVuSans-65" x="875.003906"/>
     <use xlink:href="#DejaVuSans-72" x="936.527344"/>
     <use xlink:href="#DejaVuSans-20" x="977.640625"/>
     <use xlink:href="#DejaVuSans-2d" x="1009.427734"/>
     <use xlink:href="#DejaVuSans-20" x="1045.511719"/>
     <use xlink:href="#DejaVuSans-6d" x="1077.298828"/>
     <use xlink:href="#DejaVuSans-6f" x="1174.710938"/>
     <use xlink:href="#DejaVuSans-64" x="1235.892578"/>
     <use xlink:href="#DejaVuSans-65" x="1299.369141"/>
     <use xlink:href="#DejaVuSans-6c" x="1360.892578"/>
     <use xlink:href="#DejaVuSans-5f" x="1388.675781"/>
     <use xlink:href="#DejaVuSans-32" x="1438.675781"/>
     <use xlink:href="#DejaVuSans-30" x="1502.298828"/>
     <use xlink:href="#DejaVuSans-32" x="1565.921875"/>
     <use xlink:href="#DejaVuSans-33" x="1629.544922"/>
     <use xlink:href="#DejaVuSans-31" x="1693.167969"/>
     <use xlink:href="#DejaVuSans-31" x="1756.791016"/>
     <use xlink:href="#DejaVuSans-32" x="1820.414062"/>
     <use xlink:href="#DejaVuSans-36" x="1884.037109"/>
     <use xlink:href="#DejaVuSans-31" x="1947.660156"/>
     <use xlink:href="#DejaVuSans-35" x="2011.283203"/>
     <use xlink:href="#DejaVuSans-35" x="2074.90625"/>
     <use xlink:href="#DejaVuSans-37" x="2138.529297"/>
     <use xlink:href="#DejaVuSans-35" x="2202.152344"/>
     <use xlink:href="#DejaVuSans-39" x="2265.775391"/>
    </g>
   </g>
   <g id="legend_1">
    <g id="patch_7">
     <path d="M 79 95.234375 
L 161.517188 95.234375 
Q 163.517188 95.234375 163.517188 93.234375 
L 163.517188 50.2 
Q 163.517188 48.2 161.517188 48.2 
L 79 48.2 
Q 77 48.2 77 50.2 
L 77 93.234375 
Q 77 95.234375 79 95.234375 
z
" style="fill: #ffffff; opacity: 0.8; stroke: #cccccc; stroke-linejoin: miter"/>
    </g>
    <g id="line2d_16">
     <path d="M 81 56.298437 
L 91 56.298437 
L 101 56.298437 
" style="fill: none; stroke: #1f77b4; stroke-width: 1.5; stroke-linecap: square"/>
    </g>
    <g id="text_14">
     <!-- Measured -->
     <g transform="translate(109 59.798437) scale(0.1 -0.1)">
      <defs>
       <path id="DejaVuSans-4d" d="M 628 4666 
L 1569 4666 
L 2759 1491 
L 3956 4666 
L 4897 4666 
L 4897 0 
L 4281 0 
L 4281 4097 
L 3078 897 
L 2444 897 
L 1241 4097 
L 1241 0 
L 628 0 
L 628 4666 
z
" transform="scale(0.015625)"/>
       <path id="DejaVuSans-75" d="M 544 1381 
L 544 3500 
L 1119 3500 
L 1119 1403 
Q 1119 906 1312 657 
Q 1506 409 1894 409 
Q 2359 409 2629 706 
Q 2900 1003 2900 1516 
L 2900 3500 
L 3475 3500 
L 3475 0 
L 2900 0 
L 2900 538 
Q 2691 219 2414 64 
Q 2138 -91 1772 -91 
Q 1169 -91 856 284 
Q 544 659 544 1381 
z
M 1991 3584 
L 1991 3584 
z
" transform="scale(0.015625)"/>
      </defs>
      <use xlink:href="#DejaVuSans-4d"/>
      <use xlink:href="#DejaVuSans-65" x="86.279297"/>
      <use xlink:href="#DejaVuSans-61" x="147.802734"/>
      <use xlink:href="#DejaVuSans-73" x="209.082031"/>
      <use xlink:href="#DejaVuSans-75" x="261.181641"/>
      <use xlink:href="#DejaVuSans-72" x="324.560547"/>
      <use xlink:href="#DejaVuSans-65" x="363.423828"/>
      <use xlink:href="#DejaVuSans-64" x="424.947266"/>
     </g>
    </g>
    <g id="line2d_17">
     <path d="M 81 70.976562 
L 91 70.976562 
L 101 70.976562 
" style="fill: none; stroke: #ff7f0e; stroke-width: 1.5; stroke-linecap: square"/>
    </g>
    <g id="text_15">
     <!-- Fitted -->
     <g transform="translate(109 74.476562) scale(0.1 -0.1)">
      <defs>
       <path id="DejaVuSans-46" d="M 628 4666 
L 3309 4666 
L 3309 4134 
L 1259 4134 
L 1259 2759 
L 3109 2759 
L 3109 2228 
L 1259 2228 
L 1259 0 
L 628 0 
L 628 4666 
z
" transform="scale(0.015625)"/>
       <path id="DejaVuSans-74" d="M 1172 4494 
L 1172 3500 
L 2356 3500 
L 2356 3053 
L 1172 3053 
L 1172 1153 
Q 1172 725 1289 603 
Q 1406 481 1766 481 
L 2356 481 
L 2356 0 
L 1766 0 
Q 1100 0 847 248 
Q 594 497 594 1153 
L 594 3053 
L 172 3053 
L 172 3500 
L 594 3500 
L 594 4494 
L 1172 4494 
z
" transform="scale(0.015625)"/>
      </defs>
      <use xlink:href="#DejaVuSans-46"/>
      <use xlink:href="#DejaVuSans-69" x="50.269531"/>
      <use xlink:href="#DejaVuSans-74" x="78.052734"/>
      <use xlink:href="#DejaVuSans-74" x="117.261719"/>
      <use xlink:href="#DejaVuSans-65" x="156.470703"/>
      <use xlink:href="#DejaVuSans-64" x="217.994141"/>
     </g>
    </g>
    <g id="line2d_18">
     <path d="M 81 85.654687 
L 91 85.654687 
L 101 85.654687 
" style="fill: none; stroke: #2ca02c; stroke-width: 1.5; stroke-linecap: square"/>
    </g>
    <g id="text_16">
     <!-- Estimated -->
     <g transform="translate(109 89.154687) scale(0.1 -0.1)">
      <defs>
       <path id="DejaVuSans-45" d="M 628 4666 
L 3578 4666 
L 3578 4134 
L 1259 4134 
L 1259 2753 
L 3481 2753 
L 3481 2222 
L 1259 2222 
L 1259 531 
L 3634 531 
L 3634 0 
L 628 0 
L 628 4666 
z
" transform="scale(0.015625)"/>
      </defs>
      <use xlink:href="#DejaVuSans-45"/>
      <use xlink:href="#DejaVuSans-73" x="63.183594"/>
      <use xlink:href="#DejaVuSans-74" x="115.283203"/>
      <use xlink:href="#DejaVuSans-69" x="154.492188"/>
      <use xlink:href="#DejaVuSans-6d" x="182.275391"/>
      <use xlink:href="#DejaVuSans-61" x="279.6875"/>
      <use xlink:href="#DejaVuSans-74" x="340.966797"/>
      <use xlink:href="#DejaVuSans-65" x="380.175781"/>
      <use xlink:href="#DejaVuSans-64" x="441.699219"/>
     </g>
    </g>
   </g>
  </g>
 </g>
 <defs>
  <clipPath id="p10fc409e40">
   <rect x="72" y="43.2" width="446.4" height="277.2"/>
  </clipPath>
 </defs>
</svg>
