<?xml version="1.0" encoding="utf-8" standalone="no"?>
<!DOCTYPE svg PUBLIC "-//W3C//DTD SVG 1.1//EN"
  "http://www.w3.org/Graphics/SVG/1.1/DTD/svg11.dtd">
<svg xmlns:xlink="http://www.w3.org/1999/xlink" width="576pt" height="360pt" viewBox="0 0 576 360" xmlns="http://www.w3.org/2000/svg" version="1.1">
 <metadata>
  <rdf:RDF xmlns:dc="http://purl.org/dc/elements/1.1/" xmlns:cc="http://creativecommons.org/ns#" xmlns:rdf="http://www.w3.org/1999/02/22-rdf-syntax-ns#">
   <cc:Work>
    <dc:type rdf:resource="http://purl.org/dc/dcmitype/StillImage"/>
    <dc:date>2023-11-26T19:29:13.729728</dc:date>
    <dc:format>image/svg+xml</dc:format>
    <dc:creator>
     <cc:Agent>
      <dc:title>Matplotlib v3.8.1, https://matplotlib.org/</dc:title>
     </cc:Agent>
    </dc:creator>
   </cc:Work>
  </rdf:RDF>
 </metadata>
 <defs>
  <style type="text/css">*{stroke-linejoin: round; stroke-linecap: butt}</style>
 </defs>
 <g id="figure_1">
  <g id="patch_1">
   <path d="M 0 360 
L 576 360 
L 576 0 
L 0 0 
z
" style="fill: #ffffff"/>
  </g>
  <g id="axes_1">
   <g id="patch_2">
    <path d="M 72 320.4 
L 518.4 320.4 
L 518.4 43.2 
L 72 43.2 
z
" style="fill: #ffffff"/>
   </g>
   <g id="matplotlib.axis_1">
    <g id="xtick_1">
     <g id="line2d_1">
      <defs>
       <path id="m6c175350d6" d="M 0 0 
L 0 3.5 
" style="stroke: #000000; stroke-width: 0.8"/>
      </defs>
      <g>
       <use xlink:href="#m6c175350d6" x="129.874161" y="320.4" style="stroke: #000000; stroke-width: 0.8"/>
      </g>
     </g>
     <g id="text_1">
      <!-- 2020-05-15 -->
      <g transform="translate(100.816349 334.998438) scale(0.1 -0.1)">
       <defs>
        <path id="DejaVuSans-32" d="M 1228 531 
L 3431 531 
L 3431 0 
L 469 0 
L 469 531 
Q 828 903 1448 1529 
Q 2069 2156 2228 2338 
Q 2531 2678 2651 2914 
Q 2772 3150 2772 3378 
Q 2772 3750 2511 3984 
Q 2250 4219 1831 4219 
Q 1534 4219 1204 4116 
Q 875 4013 500 3803 
L 500 4441 
Q 881 4594 1212 4672 
Q 1544 4750 1819 4750 
Q 2544 4750 2975 4387 
Q 3406 4025 3406 3419 
Q 3406 3131 3298 2873 
Q 3191 2616 2906 2266 
Q 2828 2175 2409 1742 
Q 1991 1309 1228 531 
z
" transform="scale(0.015625)"/>
        <path id="DejaVuSans-30" d="M 2034 4250 
Q 1547 4250 1301 3770 
Q 1056 3291 1056 2328 
Q 1056 1369 1301 889 
Q 1547 409 2034 409 
Q 2525 409 2770 889 
Q 3016 1369 3016 2328 
Q 3016 3291 2770 3770 
Q 2525 4250 2034 4250 
z
M 2034 4750 
Q 2819 4750 3233 4129 
Q 3647 3509 3647 2328 
Q 3647 1150 3233 529 
Q 2819 -91 2034 -91 
Q 1250 -91 836 529 
Q 422 1150 422 2328 
Q 422 3509 836 4129 
Q 1250 4750 2034 4750 
z
" transform="scale(0.015625)"/>
        <path id="DejaVuSans-2d" d="M 313 2009 
L 1997 2009 
L 1997 1497 
L 313 1497 
L 313 2009 
z
" transform="scale(0.015625)"/>
        <path id="DejaVuSans-35" d="M 691 4666 
L 3169 4666 
L 3169 4134 
L 1269 4134 
L 1269 2991 
Q 1406 3038 1543 3061 
Q 1681 3084 1819 3084 
Q 2600 3084 3056 2656 
Q 3513 2228 3513 1497 
Q 3513 744 3044 326 
Q 2575 -91 1722 -91 
Q 1428 -91 1123 -41 
Q 819 9 494 109 
L 494 744 
Q 775 591 1075 516 
Q 1375 441 1709 441 
Q 2250 441 2565 725 
Q 2881 1009 2881 1497 
Q 2881 1984 2565 2268 
Q 2250 2553 1709 2553 
Q 1456 2553 1204 2497 
Q 953 2441 691 2322 
L 691 4666 
z
" transform="scale(0.015625)"/>
        <path id="DejaVuSans-31" d="M 794 531 
L 1825 531 
L 1825 4091 
L 703 3866 
L 703 4441 
L 1819 4666 
L 2450 4666 
L 2450 531 
L 3481 531 
L 3481 0 
L 794 0 
L 794 531 
z
" transform="scale(0.015625)"/>
       </defs>
       <use xlink:href="#DejaVuSans-32"/>
       <use xlink:href="#DejaVuSans-30" x="63.623047"/>
       <use xlink:href="#DejaVuSans-32" x="127.246094"/>
       <use xlink:href="#DejaVuSans-30" x="190.869141"/>
       <use xlink:href="#DejaVuSans-2d" x="254.492188"/>
       <use xlink:href="#DejaVuSans-30" x="290.576172"/>
       <use xlink:href="#DejaVuSans-35" x="354.199219"/>
       <use xlink:href="#DejaVuSans-2d" x="417.822266"/>
       <use xlink:href="#DejaVuSans-31" x="453.90625"/>
       <use xlink:href="#DejaVuSans-35" x="517.529297"/>
      </g>
     </g>
    </g>
    <g id="xtick_2">
     <g id="line2d_2">
      <g>
       <use xlink:href="#m6c175350d6" x="212.435902" y="320.4" style="stroke: #000000; stroke-width: 0.8"/>
      </g>
     </g>
     <g id="text_2">
      <!-- 2020-06-01 -->
      <g transform="translate(183.37809 334.998438) scale(0.1 -0.1)">
       <defs>
        <path id="DejaVuSans-36" d="M 2113 2584 
Q 1688 2584 1439 2293 
Q 1191 2003 1191 1497 
Q 1191 994 1439 701 
Q 1688 409 2113 409 
Q 2538 409 2786 701 
Q 3034 994 3034 1497 
Q 3034 2003 2786 2293 
Q 2538 2584 2113 2584 
z
M 3366 4563 
L 3366 3988 
Q 3128 4100 2886 4159 
Q 2644 4219 2406 4219 
Q 1781 4219 1451 3797 
Q 1122 3375 1075 2522 
Q 1259 2794 1537 2939 
Q 1816 3084 2150 3084 
Q 2853 3084 3261 2657 
Q 3669 2231 3669 1497 
Q 3669 778 3244 343 
Q 2819 -91 2113 -91 
Q 1303 -91 875 529 
Q 447 1150 447 2328 
Q 447 3434 972 4092 
Q 1497 4750 2381 4750 
Q 2619 4750 2861 4703 
Q 3103 4656 3366 4563 
z
" transform="scale(0.015625)"/>
       </defs>
       <use xlink:href="#DejaVuSans-32"/>
       <use xlink:href="#DejaVuSans-30" x="63.623047"/>
       <use xlink:href="#DejaVuSans-32" x="127.246094"/>
       <use xlink:href="#DejaVuSans-30" x="190.869141"/>
       <use xlink:href="#DejaVuSans-2d" x="254.492188"/>
       <use xlink:href="#DejaVuSans-30" x="290.576172"/>
       <use xlink:href="#DejaVuSans-36" x="354.199219"/>
       <use xlink:href="#DejaVuSans-2d" x="417.822266"/>
       <use xlink:href="#DejaVuSans-30" x="453.90625"/>
       <use xlink:href="#DejaVuSans-31" x="517.529297"/>
      </g>
     </g>
    </g>
    <g id="xtick_3">
     <g id="line2d_3">
      <g>
       <use xlink:href="#m6c175350d6" x="280.427924" y="320.4" style="stroke: #000000; stroke-width: 0.8"/>
      </g>
     </g>
     <g id="text_3">
      <!-- 2020-06-15 -->
      <g transform="translate(251.370111 334.998438) scale(0.1 -0.1)">
       <use xlink:href="#DejaVuSans-32"/>
       <use xlink:href="#DejaVuSans-30" x="63.623047"/>
       <use xlink:href="#DejaVuSans-32" x="127.246094"/>
       <use xlink:href="#DejaVuSans-30" x="190.869141"/>
       <use xlink:href="#DejaVuSans-2d" x="254.492188"/>
       <use xlink:href="#DejaVuSans-30" x="290.576172"/>
       <use xlink:href="#DejaVuSans-36" x="354.199219"/>
       <use xlink:href="#DejaVuSans-2d" x="417.822266"/>
       <use xlink:href="#DejaVuSans-31" x="453.90625"/>
       <use xlink:href="#DejaVuSans-35" x="517.529297"/>
      </g>
     </g>
    </g>
    <g id="xtick_4">
     <g id="line2d_4">
      <g>
       <use xlink:href="#m6c175350d6" x="358.133092" y="320.4" style="stroke: #000000; stroke-width: 0.8"/>
      </g>
     </g>
     <g id="text_4">
      <!-- 2020-07-01 -->
      <g transform="translate(329.075279 334.998438) scale(0.1 -0.1)">
       <defs>
        <path id="DejaVuSans-37" d="M 525 4666 
L 3525 4666 
L 3525 4397 
L 1831 0 
L 1172 0 
L 2766 4134 
L 525 4134 
L 525 4666 
z
" transform="scale(0.015625)"/>
       </defs>
       <use xlink:href="#DejaVuSans-32"/>
       <use xlink:href="#DejaVuSans-30" x="63.623047"/>
       <use xlink:href="#DejaVuSans-32" x="127.246094"/>
       <use xlink:href="#DejaVuSans-30" x="190.869141"/>
       <use xlink:href="#DejaVuSans-2d" x="254.492188"/>
       <use xlink:href="#DejaVuSans-30" x="290.576172"/>
       <use xlink:href="#DejaVuSans-37" x="354.199219"/>
       <use xlink:href="#DejaVuSans-2d" x="417.822266"/>
       <use xlink:href="#DejaVuSans-30" x="453.90625"/>
       <use xlink:href="#DejaVuSans-31" x="517.529297"/>
      </g>
     </g>
    </g>
    <g id="xtick_5">
     <g id="line2d_5">
      <g>
       <use xlink:href="#m6c175350d6" x="426.125113" y="320.4" style="stroke: #000000; stroke-width: 0.8"/>
      </g>
     </g>
     <g id="text_5">
      <!-- 2020-07-15 -->
      <g transform="translate(397.067301 334.998438) scale(0.1 -0.1)">
       <use xlink:href="#DejaVuSans-32"/>
       <use xlink:href="#DejaVuSans-30" x="63.623047"/>
       <use xlink:href="#DejaVuSans-32" x="127.246094"/>
       <use xlink:href="#DejaVuSans-30" x="190.869141"/>
       <use xlink:href="#DejaVuSans-2d" x="254.492188"/>
       <use xlink:href="#DejaVuSans-30" x="290.576172"/>
       <use xlink:href="#DejaVuSans-37" x="354.199219"/>
       <use xlink:href="#DejaVuSans-2d" x="417.822266"/>
       <use xlink:href="#DejaVuSans-31" x="453.90625"/>
       <use xlink:href="#DejaVuSans-35" x="517.529297"/>
      </g>
     </g>
    </g>
    <g id="xtick_6">
     <g id="line2d_6">
      <g>
       <use xlink:href="#m6c175350d6" x="508.686854" y="320.4" style="stroke: #000000; stroke-width: 0.8"/>
      </g>
     </g>
     <g id="text_6">
      <!-- 2020-08-01 -->
      <g transform="translate(479.629042 334.998438) scale(0.1 -0.1)">
       <defs>
        <path id="DejaVuSans-38" d="M 2034 2216 
Q 1584 2216 1326 1975 
Q 1069 1734 1069 1313 
Q 1069 891 1326 650 
Q 1584 409 2034 409 
Q 2484 409 2743 651 
Q 3003 894 3003 1313 
Q 3003 1734 2745 1975 
Q 2488 2216 2034 2216 
z
M 1403 2484 
Q 997 2584 770 2862 
Q 544 3141 544 3541 
Q 544 4100 942 4425 
Q 1341 4750 2034 4750 
Q 2731 4750 3128 4425 
Q 3525 4100 3525 3541 
Q 3525 3141 3298 2862 
Q 3072 2584 2669 2484 
Q 3125 2378 3379 2068 
Q 3634 1759 3634 1313 
Q 3634 634 3220 271 
Q 2806 -91 2034 -91 
Q 1263 -91 848 271 
Q 434 634 434 1313 
Q 434 1759 690 2068 
Q 947 2378 1403 2484 
z
M 1172 3481 
Q 1172 3119 1398 2916 
Q 1625 2713 2034 2713 
Q 2441 2713 2670 2916 
Q 2900 3119 2900 3481 
Q 2900 3844 2670 4047 
Q 2441 4250 2034 4250 
Q 1625 4250 1398 4047 
Q 1172 3844 1172 3481 
z
" transform="scale(0.015625)"/>
       </defs>
       <use xlink:href="#DejaVuSans-32"/>
       <use xlink:href="#DejaVuSans-30" x="63.623047"/>
       <use xlink:href="#DejaVuSans-32" x="127.246094"/>
       <use xlink:href="#DejaVuSans-30" x="190.869141"/>
       <use xlink:href="#DejaVuSans-2d" x="254.492188"/>
       <use xlink:href="#DejaVuSans-30" x="290.576172"/>
       <use xlink:href="#DejaVuSans-38" x="354.199219"/>
       <use xlink:href="#DejaVuSans-2d" x="417.822266"/>
       <use xlink:href="#DejaVuSans-30" x="453.90625"/>
       <use xlink:href="#DejaVuSans-31" x="517.529297"/>
      </g>
     </g>
    </g>
   </g>
   <g id="matplotlib.axis_2">
    <g id="ytick_1">
     <g id="line2d_7">
      <defs>
       <path id="m74d3a5027a" d="M 0 0 
L -3.5 0 
" style="stroke: #000000; stroke-width: 0.8"/>
      </defs>
      <g>
       <use xlink:href="#m74d3a5027a" x="72" y="316.02311" style="stroke: #000000; stroke-width: 0.8"/>
      </g>
     </g>
     <g id="text_7">
      <!-- −2 -->
      <g transform="translate(50.257812 319.822329) scale(0.1 -0.1)">
       <defs>
        <path id="DejaVuSans-2212" d="M 678 2272 
L 4684 2272 
L 4684 1741 
L 678 1741 
L 678 2272 
z
" transform="scale(0.015625)"/>
       </defs>
       <use xlink:href="#DejaVuSans-2212"/>
       <use xlink:href="#DejaVuSans-32" x="83.789062"/>
      </g>
     </g>
    </g>
    <g id="ytick_2">
     <g id="line2d_8">
      <g>
       <use xlink:href="#m74d3a5027a" x="72" y="262.270962" style="stroke: #000000; stroke-width: 0.8"/>
      </g>
     </g>
     <g id="text_8">
      <!-- −1 -->
      <g transform="translate(50.257812 266.070181) scale(0.1 -0.1)">
       <use xlink:href="#DejaVuSans-2212"/>
       <use xlink:href="#DejaVuSans-31" x="83.789062"/>
      </g>
     </g>
    </g>
    <g id="ytick_3">
     <g id="line2d_9">
      <g>
       <use xlink:href="#m74d3a5027a" x="72" y="208.518814" style="stroke: #000000; stroke-width: 0.8"/>
      </g>
     </g>
     <g id="text_9">
      <!-- 0 -->
      <g transform="translate(58.6375 212.318032) scale(0.1 -0.1)">
       <use xlink:href="#DejaVuSans-30"/>
      </g>
     </g>
    </g>
    <g id="ytick_4">
     <g id="line2d_10">
      <g>
       <use xlink:href="#m74d3a5027a" x="72" y="154.766666" style="stroke: #000000; stroke-width: 0.8"/>
      </g>
     </g>
     <g id="text_10">
      <!-- 1 -->
      <g transform="translate(58.6375 158.565884) scale(0.1 -0.1)">
       <use xlink:href="#DejaVuSans-31"/>
      </g>
     </g>
    </g>
    <g id="ytick_5">
     <g id="line2d_11">
      <g>
       <use xlink:href="#m74d3a5027a" x="72" y="101.014518" style="stroke: #000000; stroke-width: 0.8"/>
      </g>
     </g>
     <g id="text_11">
      <!-- 2 -->
      <g transform="translate(58.6375 104.813736) scale(0.1 -0.1)">
       <use xlink:href="#DejaVuSans-32"/>
      </g>
     </g>
    </g>
    <g id="ytick_6">
     <g id="line2d_12">
      <g>
       <use xlink:href="#m74d3a5027a" x="72" y="47.262369" style="stroke: #000000; stroke-width: 0.8"/>
      </g>
     </g>
     <g id="text_12">
      <!-- 3 -->
      <g transform="translate(58.6375 51.061588) scale(0.1 -0.1)">
       <defs>
        <path id="DejaVuSans-33" d="M 2597 2516 
Q 3050 2419 3304 2112 
Q 3559 1806 3559 1356 
Q 3559 666 3084 287 
Q 2609 -91 1734 -91 
Q 1441 -91 1130 -33 
Q 819 25 488 141 
L 488 750 
Q 750 597 1062 519 
Q 1375 441 1716 441 
Q 2309 441 2620 675 
Q 2931 909 2931 1356 
Q 2931 1769 2642 2001 
Q 2353 2234 1838 2234 
L 1294 2234 
L 1294 2753 
L 1863 2753 
Q 2328 2753 2575 2939 
Q 2822 3125 2822 3475 
Q 2822 3834 2567 4026 
Q 2313 4219 1838 4219 
Q 1578 4219 1281 4162 
Q 984 4106 628 3988 
L 628 4550 
Q 988 4650 1302 4700 
Q 1616 4750 1894 4750 
Q 2613 4750 3031 4423 
Q 3450 4097 3450 3541 
Q 3450 3153 3228 2886 
Q 3006 2619 2597 2516 
z
" transform="scale(0.015625)"/>
       </defs>
       <use xlink:href="#DejaVuSans-33"/>
      </g>
     </g>
    </g>
   </g>
   <g id="line2d_13">
    <path d="M 72 287.021497 
L 72.404714 298.412757 
L 72.607072 296.682973 
L 72.809429 285.96675 
L 73.214143 254.915018 
L 73.618858 242.426821 
L 75.035358 159.101858 
L 75.237715 156.127474 
L 75.440073 161.211351 
L 75.64243 169.459468 
L 75.844787 172.771371 
L 76.047144 188.086288 
L 76.654216 258.669915 
L 77.05893 282.844701 
L 77.261287 287.232446 
L 77.463645 286.852737 
L 77.666002 276.094324 
L 78.070716 247.468508 
L 78.475431 234.938122 
L 78.677788 225.761828 
L 79.487217 168.510196 
L 79.891931 152.161627 
L 80.094288 154.123456 
L 80.903717 196.735208 
L 81.713146 272.423807 
L 82.11786 287.148066 
L 82.320218 289.194274 
L 82.522575 288.898945 
L 82.724932 286.367554 
L 82.927289 279.511703 
L 83.332004 256.412757 
L 83.736718 242.026017 
L 83.939075 238.967253 
L 84.141432 239.241487 
L 84.546147 245.675439 
L 84.748504 247.784932 
L 84.950861 247.806027 
L 85.355576 252.025013 
L 85.557933 248.670919 
L 85.76029 254.830638 
L 86.569719 300.015972 
L 86.772076 306.133501 
L 86.974433 307.736715 
L 87.176791 307.8 
L 87.379148 306.449925 
L 87.581505 302.695028 
L 87.783862 295.902461 
L 88.188577 273.731693 
L 88.390934 268.521246 
L 89.200363 260.399699 
L 89.40272 256.243998 
L 89.807434 241.372074 
L 90.212149 238.903968 
L 90.414506 236.182722 
L 90.616863 244.1777 
L 91.223935 295.037569 
L 91.628649 306.133501 
L 91.831006 306.196786 
L 92.033364 303.686489 
L 92.842792 257.277649 
L 93.04515 255.125967 
L 93.449864 246.477047 
L 93.652221 245.949674 
L 93.854578 242.996384 
L 94.056936 242.363536 
L 94.259293 239.72667 
L 94.46165 233.292717 
L 94.664007 230.423807 
L 94.866364 231.351984 
L 95.068722 234.516223 
L 95.271079 230.655851 
L 95.473436 240.823606 
L 96.080508 295.417278 
L 96.485222 304.677951 
L 96.687579 306.597589 
L 96.889937 302.230939 
L 97.699365 256.539327 
L 98.306437 245.970768 
L 98.508794 245.59106 
L 99.52058 224.242993 
L 99.722937 225.508689 
L 99.925295 229.896434 
L 100.127652 228.061175 
L 100.330009 238.27112 
L 100.937081 292.928076 
L 101.341795 305.268609 
L 101.544152 306.26007 
L 101.74651 302.526268 
L 101.948867 290.50216 
L 102.353581 260.294224 
L 102.555938 258.733199 
L 103.567724 240.844701 
L 104.377153 218.610648 
L 104.57951 219.897438 
L 104.781868 225.318835 
L 104.984225 225.29774 
L 105.186582 234.241989 
L 105.793654 289.763837 
L 106.198368 302.589553 
L 106.400725 304.361527 
L 106.603083 300.311301 
L 107.412511 254.11341 
L 107.614869 252.383626 
L 107.817226 248.692014 
L 108.22194 234.07323 
L 108.626655 212.23998 
L 108.829012 206.270116 
L 109.031369 204.371572 
L 109.638441 213.104872 
L 109.840798 218.568458 
L 110.043155 229.031542 
L 110.650227 284.405726 
L 111.054941 298.750276 
L 111.257298 300.669915 
L 111.459655 298.919036 
L 111.662013 287.443395 
L 112.066727 258.015972 
L 112.471442 242.933099 
L 113.887942 174.121447 
L 114.090299 171.73772 
L 114.292656 178.593571 
L 114.495014 190.090306 
L 114.697371 194.710095 
L 115.102085 228.926067 
L 115.709157 278.583526 
L 116.113871 292.611652 
L 116.316228 292.780412 
L 116.518586 291.113913 
L 116.720943 287.46449 
L 117.125657 260.06218 
L 118.542158 154.777398 
L 118.744515 144.609643 
L 118.946872 140.707082 
L 119.149229 144.398694 
L 119.756301 182.496133 
L 120.56573 262.319337 
L 120.970444 282.254043 
L 121.172801 286.367554 
L 121.375159 288.012958 
L 121.577516 286.557408 
L 121.779873 278.583526 
L 122.589302 227.280663 
L 123.196374 201.671421 
L 123.398731 197.072727 
L 123.601088 197.283677 
L 123.803445 196.714114 
L 124.410517 210.193772 
L 124.612874 221.226419 
L 125.219946 277.845203 
L 125.62466 292.463988 
L 125.827017 294.468006 
L 126.029374 291.91552 
L 127.04116 235.191261 
L 127.648232 197.557911 
L 128.255304 154.925063 
L 128.457661 147.330889 
L 128.660018 146.99337 
L 129.26709 191.588046 
L 130.278876 282.971271 
L 130.481233 290.839679 
L 130.68359 292.231944 
L 130.885947 289.637268 
L 132.504805 180.070216 
L 133.111877 137.142039 
L 133.314234 127.670417 
L 133.516591 129.379106 
L 133.921306 144.841688 
L 134.123663 152.309292 
L 135.135449 262.84671 
L 135.540163 275.545856 
L 135.74252 274.596585 
L 135.944878 263.943646 
L 136.349592 232.343446 
L 136.551949 225.529784 
L 136.754306 213.590055 
L 136.956664 218.188749 
L 137.159021 206.818584 
L 137.766092 197.937619 
L 137.96845 198.338423 
L 138.373164 192.895932 
L 138.777879 200.490105 
L 138.980236 201.333903 
L 139.182593 213.210347 
L 139.789665 270.187745 
L 140.194379 285.650326 
L 140.396736 287.738724 
L 140.599093 284.701055 
L 141.003808 254.303265 
L 141.408522 232.997388 
L 142.015594 219.51773 
L 142.622665 210.320342 
L 142.825023 210.046107 
L 143.02738 208.822602 
L 143.229737 209.518734 
L 143.634451 214.834656 
L 143.836809 213.590055 
L 144.039166 223.84219 
L 144.646238 273.499648 
L 145.050952 285.671421 
L 145.253309 286.979307 
L 145.455666 283.815068 
L 145.860381 253.965746 
L 146.062738 237.406228 
L 146.66981 220.825615 
L 146.872167 218.125465 
L 147.074524 217.028528 
L 147.479238 205.848217 
L 147.681596 214.370568 
L 147.883953 215.362029 
L 148.08631 217.998895 
L 148.491024 227.386138 
L 148.693382 226.014967 
L 149.098096 249.83114 
L 149.502811 278.203817 
L 149.907525 291.430337 
L 150.109882 293.518734 
L 150.312239 292.928076 
L 150.514597 290.059166 
L 150.716954 284.258061 
L 151.121668 263.036565 
L 151.526383 242.194776 
L 151.931097 236.288197 
L 152.133454 235.845203 
L 152.335811 237.849221 
L 152.538169 238.376595 
L 152.740526 236.288197 
L 152.942883 236.583526 
L 153.14524 235.592064 
L 153.347597 235.634254 
L 153.549955 232.659869 
L 153.752312 234.895932 
L 154.764098 287.253541 
L 154.966455 291.282672 
L 155.168812 292.696032 
L 155.573527 288.687996 
L 155.775884 277.423305 
L 156.78767 198.127474 
L 157.799456 154.756303 
L 158.001813 156.802511 
L 158.406528 170.23998 
L 158.608885 184.036062 
L 159.215956 253.881366 
L 159.620671 275.86228 
L 159.823028 279.131994 
L 160.025385 278.203817 
L 160.227743 268.225917 
L 160.632457 235.191261 
L 161.8466 183.993872 
L 162.251315 173.762833 
L 162.453672 173.910497 
L 162.656029 176.821597 
L 163.465458 209.20231 
L 164.072529 270.12446 
L 164.477244 289.067705 
L 164.679601 289.405224 
L 164.881958 286.114415 
L 165.084316 275.777901 
L 165.48903 243.439377 
L 166.500816 207.725665 
L 167.310245 164.038071 
L 167.512602 167.45545 
L 167.917316 188.402712 
L 168.119674 192.938122 
L 168.322031 204.498142 
L 168.929102 264.977298 
L 169.333817 280.439879 
L 169.536174 284.026017 
L 169.738531 280.292215 
L 170.143246 252.510196 
L 170.54796 221.648317 
L 171.357389 176.273129 
L 171.559746 170.134505 
L 172.166818 145.49563 
L 172.369175 147.141035 
L 172.571532 155.199297 
L 173.178604 194.878855 
L 173.785675 267.25555 
L 174.19039 287.000402 
L 174.392747 290.038071 
L 174.595104 288.181718 
L 174.999819 263.542843 
L 175.404533 238.081266 
L 177.023391 158.405726 
L 177.225748 158.933099 
L 177.428105 162.92004 
L 177.630462 179.817077 
L 177.83282 182.306278 
L 178.237534 227.238473 
L 178.642248 270.947162 
L 179.046963 290.50216 
L 179.24932 294.299247 
L 179.451677 291.725665 
L 179.654034 282.865796 
L 180.261106 242.258061 
L 181.879964 143.449422 
L 182.082321 140.116424 
L 182.284678 145.896434 
L 183.094107 203.316826 
L 183.498821 243.080763 
L 183.903536 264.956203 
L 184.30825 272.95118 
L 184.510607 274.343446 
L 184.712965 270.630738 
L 184.915322 256.98232 
L 185.724751 173.340934 
L 186.129465 151.52878 
L 186.331822 145.347966 
L 186.53418 144.567454 
L 186.736537 147.16213 
L 187.748323 188.423807 
L 188.557752 253.923556 
L 188.962466 268.394676 
L 189.164823 270.483074 
L 189.36718 270.567454 
L 189.569538 269.808036 
L 189.771895 258.796484 
L 190.986038 160.810547 
L 191.188395 155.389151 
L 191.390752 155.346961 
L 191.795467 164.692014 
L 192.604896 196.671924 
L 193.414325 261.370065 
L 193.819039 275.377097 
L 194.021396 276.474033 
L 194.426111 272.423807 
L 194.628468 263.268609 
L 195.437897 201.017479 
L 195.640254 195.891411 
L 195.842611 197.136012 
L 196.247325 203.337921 
L 196.449683 203.928579 
L 196.65204 203.527775 
L 197.056754 211.923556 
L 197.259112 212.788448 
L 197.461469 221.395178 
L 198.06854 270.841688 
L 198.473255 285.354997 
L 198.675612 285.460472 
L 198.877969 281.72667 
L 199.282684 250.231944 
L 199.687398 226.879859 
L 201.306256 158.933099 
L 201.508613 157.751783 
L 202.115684 177.39116 
L 202.318042 188.803516 
L 202.925113 254.366549 
L 203.329828 272.423807 
L 203.532185 274.57549 
L 203.734542 271.516725 
L 203.936899 259.724661 
L 204.341614 224.939126 
L 205.758114 168.995379 
L 205.960471 166.442893 
L 206.162829 166.590558 
L 206.365186 168.046107 
L 206.7699 180.175691 
L 206.972257 183.445404 
L 207.174615 194.541336 
L 207.781686 254.978302 
L 208.186401 271.516725 
L 208.388758 274.638774 
L 208.591115 271.221396 
L 208.793472 259.070718 
L 209.198187 224.475038 
L 209.805258 201.671421 
L 210.209973 181.314817 
L 210.817044 138.639779 
L 211.019402 129.948669 
L 211.221759 132.986339 
L 211.626473 158.047112 
L 211.82883 163.384129 
L 212.031188 178.467002 
L 212.638259 245.063687 
L 213.042974 264.091311 
L 213.245331 268.183727 
L 213.447688 266.432848 
L 213.650045 255.463486 
L 214.257117 211.164139 
L 214.661831 184.183727 
L 215.47126 123.409242 
L 215.875975 106.280161 
L 216.078332 105.794977 
L 216.280689 111.469513 
L 217.090118 176.779407 
L 217.697189 240.190758 
L 218.101904 259.091813 
L 218.304261 262.530286 
L 218.506618 263.922551 
L 218.708976 262.635761 
L 218.911333 249.599096 
L 219.518404 193.48659 
L 220.125476 157.435359 
L 220.327833 155.220392 
L 220.53019 157.498644 
L 221.541976 200.827624 
L 221.744334 206.101356 
L 222.553762 264.365545 
L 222.958477 275.503666 
L 223.160834 277.254545 
L 223.363191 277.613159 
L 223.565549 276.009945 
L 223.767906 267.086791 
L 224.374977 227.955701 
L 224.779692 220.192767 
L 225.386763 222.30226 
L 225.589121 225.909493 
L 225.791478 226.816575 
L 226.196192 235.40221 
L 226.398549 235.043596 
L 226.600907 241.625213 
L 227.410335 296.535309 
L 227.612693 300.669915 
L 227.81505 302.399699 
L 228.017407 299.129985 
L 228.826836 255.505676 
L 229.029193 253.121949 
L 229.23155 247.236464 
L 230.648051 182.285183 
L 230.850408 182.875841 
L 231.255122 197.64229 
L 231.45748 208.801507 
L 232.064551 274.027022 
L 232.469266 291.620191 
L 232.671623 294.404721 
L 232.87398 293.160121 
L 233.278694 267.25555 
L 233.683409 244.1777 
L 235.302267 178.024008 
L 235.504624 177.412255 
L 236.111695 196.988348 
L 236.314053 207.599096 
L 236.921124 271.242491 
L 237.325839 287.50668 
L 237.528196 290.713109 
L 237.730553 288.540331 
L 238.135267 264.006931 
L 238.539982 241.688498 
L 239.349411 210.003918 
L 239.754125 199.751783 
L 240.15884 189.288699 
L 240.361197 189.03556 
L 240.563554 194.625716 
L 240.968268 212.661878 
L 241.170626 220.424812 
L 241.777697 277.31783 
L 242.182412 293.560924 
L 242.384769 296.11341 
L 242.587126 293.054646 
L 242.99184 267.740733 
L 243.396555 249.345957 
L 245.21777 172.876846 
L 245.420127 177.222401 
L 246.027199 204.666901 
L 246.836627 279.933601 
L 247.038985 288.498142 
L 247.241342 291.74676 
L 247.443699 289.152084 
L 247.848413 265.019488 
L 249.467271 150.305274 
L 249.669628 142.036062 
L 249.871985 140.053139 
L 250.074343 140.221899 
L 250.2767 147.330889 
L 250.883772 180.21788 
L 251.6932 257.003415 
L 252.097915 271.875339 
L 252.300272 275.018483 
L 252.502629 275.292717 
L 252.704986 271.326871 
L 253.109701 237.785937 
L 253.91913 162.814566 
L 254.323844 146.634756 
L 254.728558 137.606128 
L 254.930916 136.319337 
L 255.133273 143.997891 
L 255.740345 182.369563 
L 256.549773 259.387142 
L 256.954488 275.229432 
L 257.156845 279.131994 
L 257.359202 280.840683 
L 257.561559 279.849221 
L 257.966274 250.274134 
L 258.573345 198.675942 
L 258.97806 176.484078 
L 259.382774 165.198292 
L 259.585131 161.675439 
L 259.787489 161.232446 
L 259.989846 163.911502 
L 260.39456 180.281165 
L 260.596917 193.950678 
L 261.203989 257.425314 
L 261.608704 276.579508 
L 261.811061 279.574987 
L 262.013418 278.77338 
L 262.418132 254.23998 
L 262.62049 241.941637 
L 263.025204 232.048117 
L 263.227561 229.179206 
L 263.429918 228.145555 
L 263.834633 229.45344 
L 264.03699 229.137017 
L 264.239347 230.107383 
L 264.441704 230.191763 
L 264.644062 229.917529 
L 264.846419 232.005927 
L 265.048776 236.140532 
L 265.251133 236.140532 
L 265.45349 240.254043 
L 266.060562 283.730688 
L 266.465277 296.872828 
L 266.667634 298.454947 
L 266.869991 294.172677 
L 267.072348 286.030035 
L 267.477063 258.901959 
L 268.084134 236.203817 
L 268.488849 225.677449 
L 269.09592 214.159618 
L 269.500635 210.109392 
L 269.702992 212.345455 
L 269.905349 216.037067 
L 270.107706 216.733199 
L 270.310063 223.188247 
L 270.917135 273.204319 
L 271.32185 285.460472 
L 271.524207 287.654345 
L 271.726564 285.903466 
L 274.15485 140.960221 
L 274.357208 133.619186 
L 274.559565 137.036565 
L 275.166636 162.793471 
L 275.976065 246.308287 
L 276.38078 259.176193 
L 276.583137 258.458965 
L 276.987851 236.098343 
L 277.392566 206.50216 
L 278.404352 148.195781 
L 278.606709 145.073732 
L 279.011423 131.530789 
L 279.213781 129.885384 
L 279.416138 134.252034 
L 280.023209 176.969262 
L 280.630281 250.020994 
L 281.034995 273.351984 
L 281.237353 278.351482 
L 281.43971 276.769362 
L 281.642067 270.736213 
L 282.249139 227.976796 
L 282.85621 193.52878 
L 283.867996 149.714616 
L 284.070354 148.49111 
L 284.272711 156.844701 
L 285.284497 241.920542 
L 285.689211 274.870819 
L 286.093926 289.974787 
L 286.296283 292.316323 
L 286.49864 290.45997 
L 286.700997 287.443395 
L 287.105712 255.674435 
L 287.712783 202.873832 
L 288.522212 158.384631 
L 288.724569 151.085786 
L 288.926927 149.102863 
L 289.129284 152.77338 
L 289.736355 187.411251 
L 290.545784 259.197288 
L 290.950499 274.849724 
L 291.152856 277.697539 
L 291.355213 277.781919 
L 291.55757 276.263084 
L 291.759927 263.479558 
L 292.771714 162.392667 
L 293.176428 139.863285 
L 293.581142 128.345455 
L 293.7835 126.573481 
L 293.985857 130.180713 
L 294.592928 156.338423 
L 295.402357 241.667403 
L 295.807072 256.729181 
L 296.009429 256.560422 
L 296.414143 235.760824 
L 297.830644 97.293722 
L 298.235358 83.645304 
L 298.437715 80.987343 
L 298.640073 81.261577 
L 298.84243 83.37107 
L 299.044787 91.619186 
L 299.449501 119.295731 
L 300.056573 200.363536 
L 300.461287 226.268106 
L 300.663645 232.44892 
L 300.866002 233.187243 
L 301.068359 226.183727 
L 301.473073 195.342943 
L 302.484859 87.273631 
L 302.687217 75.650326 
L 302.889574 75.755801 
L 303.091931 84.067202 
L 303.496646 92.948167 
L 303.90136 115.793973 
L 304.306074 144.483074 
L 304.913146 215.551883 
L 305.31786 241.583024 
L 305.520218 247.299749 
L 305.722575 245.46449 
L 305.924932 238.14455 
L 306.532004 197.114917 
L 307.54379 125.223405 
L 307.746147 114.739227 
L 307.948504 113.832145 
L 308.757933 146.972275 
L 309.162647 173.741738 
L 309.769719 238.439879 
L 310.174433 258.859769 
L 310.376791 263.374083 
L 310.579148 262.783425 
L 310.983862 238.735208 
L 312.198005 131.889402 
L 312.60272 119.949674 
L 312.805077 115.456454 
L 313.007434 116.026017 
L 313.209791 119.823104 
L 313.816863 148.153591 
L 314.01922 162.202813 
L 314.626292 226.479056 
L 315.031006 247.531793 
L 315.233364 252.235962 
L 315.435721 251.560924 
L 315.840435 232.280161 
L 316.24515 213.062682 
L 316.649864 200.72215 
L 317.054578 185.006429 
L 317.66165 177.285686 
L 317.864007 176.821597 
L 318.066364 175.89342 
L 318.268722 180.703064 
L 318.875793 203.443395 
L 319.685222 263.627223 
L 320.089937 276.748267 
L 320.292294 278.435861 
L 320.697008 270.293219 
L 321.101723 243.354997 
L 322.315866 163.320844 
L 322.72058 152.794475 
L 322.922937 150.410748 
L 323.125295 154.650829 
L 323.732366 183.023506 
L 324.541795 253.417278 
L 324.94651 268.099347 
L 325.148867 271.073732 
L 325.351224 271.137017 
L 325.553581 268.816575 
L 325.755938 256.159618 
L 326.970082 140.707082 
L 327.172439 134.209844 
L 327.374796 132.585535 
L 327.77951 126.86881 
L 327.981868 131.994877 
L 328.184225 141.023506 
L 328.791296 194.077248 
L 329.196011 238.988348 
L 329.398368 254.640784 
L 329.803083 265.019488 
L 330.00544 264.049121 
L 330.207797 258.290206 
L 330.814869 208.463988 
L 331.42194 169.206328 
L 331.826655 145.917529 
L 332.029012 142.943144 
L 332.231369 142.964239 
L 332.433726 143.154093 
L 332.636083 145.305776 
L 332.838441 149.967755 
L 333.243155 173.509694 
L 333.445512 182.770367 
L 334.052584 250.274134 
L 334.457298 272.655851 
L 334.659655 278.224912 
L 334.862013 275.756806 
L 335.266727 255.379106 
L 335.671442 230.360522 
L 336.48087 189.16213 
L 336.683228 183.951683 
L 336.885585 182.812557 
L 337.087942 176.462983 
L 337.290299 174.56444 
L 337.695014 181.209342 
L 338.099728 196.060171 
L 338.302085 202.09332 
L 339.111514 269.702562 
L 339.313871 276.07323 
L 339.516228 278.372577 
L 339.718586 274.195781 
L 340.1233 250.210849 
L 340.932729 204.540331 
L 342.349229 141.107885 
L 342.551587 141.023506 
L 343.158658 166.379608 
L 343.76573 230.845706 
L 344.170444 249.345957 
L 344.372801 254.23998 
L 344.575159 252.046107 
L 344.777516 244.937117 
L 345.18223 213.210347 
L 346.194016 128.32436 
L 346.598731 113.157107 
L 347.003445 106.36454 
L 347.205802 105.499648 
L 347.40816 108.769362 
L 347.610517 116.827624 
L 348.015231 143.639277 
L 348.82466 237.237469 
L 349.229374 254.809543 
L 349.431732 254.029031 
L 349.634089 248.080261 
L 349.836446 236.646811 
L 351.050589 129.379106 
L 351.455304 110.520241 
L 351.860018 101.428327 
L 352.062375 100.500151 
L 352.264733 104.233953 
L 352.46709 115.625213 
L 353.276519 200.975289 
L 353.681233 239.937619 
L 354.085947 260.673933 
L 354.288305 266.095329 
L 354.490662 266.685987 
L 354.693019 264.38664 
L 355.097733 221.205324 
L 355.704805 145.369061 
L 356.109519 119.991863 
L 356.716591 101.301758 
L 356.918948 100.183727 
L 357.121306 105.11994 
L 357.52602 131.446409 
L 357.728377 144.483074 
L 358.740163 242.574485 
L 359.144878 255.906479 
L 359.347235 257.826118 
L 359.549592 257.488599 
L 359.751949 243.101858 
L 360.763735 119.169161 
L 361.16845 99.571974 
L 361.573164 88.159618 
L 361.775521 85.796986 
L 361.977879 89.172175 
L 362.180236 96.365545 
L 362.58495 122.860773 
L 363.394379 214.054144 
L 363.799093 232.195781 
L 364.001451 233.039578 
L 364.203808 226.985334 
L 364.406165 216.64882 
L 365.013237 145.137017 
L 365.620308 78.772376 
L 366.025023 62.149573 
L 366.429737 55.8 
L 366.632094 56.306278 
L 366.834451 59.027524 
L 367.036809 67.992868 
L 367.441523 98.010949 
L 368.048595 179.901457 
L 368.453309 211.290708 
L 368.655666 220.066198 
L 368.858024 222.513209 
L 369.060381 218.505173 
L 369.262738 208.358513 
L 369.86981 143.006429 
L 370.476881 83.160121 
L 370.881596 66.052135 
L 371.083953 65.588046 
L 371.28631 66.326369 
L 371.488667 70.376595 
L 371.691024 76.789453 
L 372.298096 116.912004 
L 373.107525 204.413762 
L 373.512239 227.301758 
L 373.714597 231.794977 
L 374.119311 231.07775 
L 374.321668 217.956705 
L 375.333454 111.047614 
L 375.738169 97.399196 
L 375.940526 94.614666 
L 376.142883 93.47554 
L 376.34524 98.812557 
L 376.749955 125.835158 
L 377.559383 186.504169 
L 377.964098 222.196786 
L 378.368812 236.414766 
L 378.57117 236.646811 
L 378.773527 230.529282 
L 378.975884 218.969262 
L 380.392384 98.791462 
L 380.797099 88.560422 
L 381.201813 80.734204 
L 381.40417 84.615671 
L 382.011242 122.776394 
L 382.820671 208.189754 
L 383.225385 224.791462 
L 383.427743 225.466499 
L 383.6301 219.960723 
L 384.034814 197.030537 
L 385.0466 121.320844 
L 385.451315 104.107383 
L 385.653672 103.6222 
L 385.856029 107.524761 
L 386.058386 115.393169 
L 387.070172 187.558915 
L 387.474887 228.926067 
L 387.879601 251.497639 
L 388.284316 260.927072 
L 388.68903 263.521748 
L 388.891387 257.594073 
L 389.700816 212.682973 
L 390.307888 201.122953 
L 390.914959 187.980814 
L 391.117316 192.917027 
L 391.926745 233.735711 
L 392.533817 279.321848 
L 392.938531 292.084279 
L 393.140888 294.003918 
L 393.343246 293.539829 
L 393.545603 294.025013 
L 393.74796 284.785434 
L 394.355032 242.321346 
L 395.569175 184.057157 
L 395.771532 177.855249 
L 395.973889 179.099849 
L 396.176247 187.685485 
L 396.783318 231.056655 
L 397.188033 270.799498 
L 397.592747 289.194274 
L 397.795104 292.063184 
L 397.997461 289.447413 
L 398.402176 270.736213 
L 400.628105 139.061678 
L 400.830462 141.993872 
L 401.03282 152.267102 
L 401.639891 211.121949 
L 402.044606 256.876846 
L 402.44932 277.845203 
L 402.651677 281.979809 
L 402.854034 280.27112 
L 403.258749 261.496635 
L 403.663463 232.174686 
L 404.877607 122.755299 
L 405.282321 101.575992 
L 405.484678 97.230437 
L 405.687035 98.348468 
L 405.889393 109.191261 
L 406.294107 147.752788 
L 406.901179 227.639277 
L 407.305893 252.468006 
L 407.50825 258.248016 
L 407.710607 257.699548 
L 408.115322 235.781919 
L 409.73418 99.276645 
L 409.936537 94.192767 
L 410.138894 94.045103 
L 410.341251 98.791462 
L 410.948323 136.045103 
L 411.15068 152.456956 
L 411.757752 225.29774 
L 412.162466 250.126469 
L 412.364823 256.813561 
L 412.56718 258.64882 
L 412.971895 240.021999 
L 414.388395 138.808538 
L 414.79311 124.843697 
L 415.197824 117.96675 
L 415.400181 124.949171 
L 416.20961 189.478553 
L 416.614325 236.140532 
L 417.019039 259.93561 
L 417.221396 264.323355 
L 417.423753 263.753792 
L 417.828468 247.0888 
L 419.244968 146.276143 
L 419.649683 132.248016 
L 419.85204 128.303265 
L 420.054397 129.77991 
L 420.256754 138.703064 
L 421.066183 205.974787 
L 421.673255 262.720141 
L 422.077969 279.279658 
L 422.280326 281.832145 
L 422.482684 281.157107 
L 422.685041 280.988348 
L 423.089755 249.324862 
L 423.899184 178.234957 
L 424.708613 137.774887 
L 424.91097 134.505173 
L 425.113327 138.618684 
L 425.518042 165.493621 
L 425.720399 177.623204 
L 426.529828 254.345455 
L 426.934542 273.436364 
L 427.136899 278.035058 
L 427.339257 278.85776 
L 427.541614 279.089804 
L 427.743971 270.25103 
L 428.148685 228.778403 
L 428.755757 165.177197 
L 429.160471 138.829633 
L 429.565186 130.349473 
L 429.9699 134.378604 
L 430.374615 151.043596 
L 430.576972 163.00442 
L 431.386401 241.076745 
L 431.791115 253.649322 
L 431.993472 251.560924 
L 432.398187 230.698041 
L 433.207616 163.827122 
L 434.017044 91.534807 
L 434.219402 86.514214 
L 435.02883 114.675942 
L 435.433545 140.348468 
L 436.040617 213.484581 
L 436.445331 236.625716 
L 436.647688 241.899448 
L 436.850045 241.203315 
L 437.25476 220.045103 
L 437.659474 184.183727 
L 438.468903 108.727172 
L 438.67126 98.728177 
L 438.873617 99.719638 
L 439.075975 107.018483 
L 439.278332 106.554395 
L 439.480689 108.853742 
L 439.885403 127.902461 
L 440.290118 153.321848 
L 440.897189 228.715118 
L 441.301904 251.624209 
L 441.504261 257.19327 
L 441.706618 257.741738 
L 442.111333 242.616675 
L 442.920762 189.204319 
L 443.527833 153.406228 
L 444.134905 130.054144 
L 444.337262 127.396183 
L 444.539619 133.9778 
L 445.146691 180.238975 
L 445.753762 251.265595 
L 446.158477 273.03556 
L 446.360834 278.119437 
L 446.563191 276.07323 
L 446.967906 256.665897 
L 448.586763 143.955701 
L 448.991478 130.412757 
L 449.193835 128.029031 
L 449.396192 134.863787 
L 450.003264 176.315319 
L 450.812693 258.48006 
L 451.217407 272.128478 
L 451.419764 272.255048 
L 451.824479 254.619689 
L 452.43155 202.873832 
L 453.038622 159.861276 
L 453.443336 142.373581 
L 453.848051 134.294224 
L 454.050408 137.753792 
L 454.252765 148.005927 
L 454.65748 177.159116 
L 454.859837 185.829131 
L 455.669266 252.257057 
L 456.07398 266.158614 
L 456.276337 267.719638 
L 456.478694 265.67343 
L 456.681052 262.488096 
L 456.883409 254.28217 
L 457.288123 226.563435 
L 457.692838 215.319839 
L 457.895195 216.037067 
L 458.299909 221.943646 
L 458.502267 221.795982 
L 458.906981 217.872325 
L 459.109338 218.420794 
L 459.514053 222.681969 
L 459.71641 227.090809 
L 460.728196 286.304269 
L 461.13291 290.839679 
L 461.537625 287.443395 
L 461.739982 278.288197 
L 462.144696 242.890909 
L 463.561197 171.927574 
L 463.763554 164.481065 
L 463.965911 165.683476 
L 464.572983 185.660372 
L 465.382412 254.366549 
L 465.584769 261.454445 
L 465.787126 264.238975 
L 465.989483 261.749774 
L 467.608341 166.822602 
L 468.620127 145.094827 
L 468.822484 148.301256 
L 469.429556 175.218383 
L 470.036627 233.398192 
L 470.441342 251.645304 
L 470.643699 254.345455 
L 470.846056 251.708589 
L 471.857842 199.477549 
L 472.869628 168.446911 
L 473.071985 168.953189 
L 473.274343 167.117931 
L 473.4767 168.404721 
L 473.679057 172.286188 
L 473.881414 179.036565 
L 474.083772 180.21788 
L 474.286129 188.086288 
L 474.8932 241.540834 
L 475.297915 258.205826 
L 475.500272 259.914515 
L 475.702629 257.826118 
L 476.107344 232.828629 
L 476.512058 210.257057 
L 477.321487 177.960723 
L 477.726201 157.287695 
L 477.928558 153.638272 
L 478.333273 158.447916 
L 478.53563 163.025515 
L 479.142702 188.592567 
L 479.952131 258.100352 
L 480.356845 268.204822 
L 480.559202 267.782923 
L 480.963917 245.126971 
L 482.785131 113.452436 
L 482.987489 107.398192 
L 483.189846 104.698041 
L 483.392203 110.478051 
L 483.999275 151.36002 
L 484.606346 224.285183 
L 485.011061 248.101356 
L 485.213418 252.615671 
L 485.415775 253.586037 
L 485.82049 233.313812 
L 486.225204 201.312808 
L 487.23699 109.043596 
L 487.439347 105.879357 
L 487.844062 112.608639 
L 488.248776 131.699548 
L 489.260562 211.206328 
L 489.665277 244.1777 
L 490.069991 259.661376 
L 490.272348 262.066198 
L 490.474705 260.905977 
L 490.677063 259.091813 
L 490.87942 249.113913 
L 491.891206 167.37107 
L 492.29592 149.208338 
L 492.498277 141.635259 
L 492.700635 139.567956 
L 492.902992 141.234455 
L 493.105349 146.170668 
L 493.712421 180.534304 
L 494.52185 254.345455 
L 495.128921 273.07775 
L 495.331278 273.225414 
L 495.533636 272.592567 
L 495.735993 264.850728 
L 496.950136 171.041587 
L 497.557208 146.065193 
L 497.759565 142.62672 
L 497.961922 145.917529 
L 498.568994 178.213862 
L 499.378422 253.881366 
L 499.58078 260.884882 
L 499.783137 263.437368 
L 499.985494 260.041085 
L 500.187851 251.307785 
L 500.794923 213.463486 
L 500.99728 208.231944 
L 501.401995 194.81557 
L 501.806709 183.276645 
L 502.009066 182.812557 
L 502.211423 184.922049 
L 502.413781 185.575992 
L 502.616138 183.867303 
L 503.020852 193.824108 
L 503.223209 194.393672 
L 503.425567 202.09332 
L 504.032638 254.050126 
L 504.437353 267.445404 
L 504.63971 269.111904 
L 504.842067 266.685987 
L 505.246782 241.709593 
L 505.651496 217.302762 
L 507.270354 142.331391 
L 507.472711 139.146057 
L 507.675068 142.62672 
L 508.28214 171.358011 
L 508.889211 230.824611 
L 509.293926 248.37559 
L 509.496283 251.982823 
L 509.69864 250.105374 
L 510.103354 225.972777 
L 511.722212 116.954194 
L 512.126927 98.749272 
L 512.329284 100.373581 
L 512.936355 135.602109 
L 513.34107 175.513712 
L 513.745784 220.066198 
L 514.150499 243.354997 
L 514.352856 249.071723 
L 514.555213 249.578001 
L 514.75757 240.464992 
L 516.174071 141.29774 
L 516.376428 140.179709 
L 516.781142 149.735711 
L 516.9835 146.930085 
L 517.185857 147.478553 
L 517.590571 165.620191 
L 517.792928 169.965746 
L 517.995286 180.935108 
L 518.4 221.585033 
L 518.4 221.585033 
" clip-path="url(#pa6b41c889b)" style="fill: none; stroke: #1f77b4; stroke-width: 1.5; stroke-linecap: square"/>
   </g>
   <g id="line2d_14">
    <path d="M 72 253.651682 
L 72.202357 253.651682 
L 72.607072 256.463325 
L 72.809429 256.507705 
L 73.011786 254.572713 
L 73.618858 238.957856 
L 74.023572 230.160935 
L 74.225929 221.873604 
L 74.833001 174.663678 
L 75.035358 163.067807 
L 75.237715 161.683309 
L 75.440073 165.596192 
L 75.64243 173.463958 
L 76.249501 211.077291 
L 76.654216 246.929293 
L 77.05893 263.051734 
L 77.463645 273.172079 
L 77.666002 269.666864 
L 78.070716 242.40981 
L 78.475431 231.954987 
L 78.677788 220.573975 
L 78.880145 216.734578 
L 79.082502 208.0406 
L 79.689574 166.340478 
L 79.891931 160.681617 
L 80.094288 161.843708 
L 80.903717 198.320211 
L 81.510789 249.063226 
L 81.915503 262.607612 
L 82.320218 274.247134 
L 82.522575 270.260734 
L 82.724932 259.960591 
L 82.927289 256.696618 
L 83.332004 242.545129 
L 83.534361 233.012177 
L 83.939075 225.000458 
L 84.141432 225.34419 
L 84.34379 224.596546 
L 84.748504 228.533838 
L 85.557933 237.918185 
L 85.76029 238.752174 
L 86.772076 275.215038 
L 86.974433 275.737411 
L 87.176791 274.954678 
L 87.581505 265.663067 
L 87.986219 254.952613 
L 88.795648 238.526403 
L 89.200363 240.463928 
L 89.807434 235.835889 
L 90.009791 233.526489 
L 90.212149 233.052398 
L 90.414506 231.736188 
L 90.616863 233.66566 
L 90.81922 238.661856 
L 91.628649 274.369836 
L 92.033364 272.035753 
L 92.438078 259.214693 
L 92.640435 249.673885 
L 93.04515 242.45815 
L 93.449864 239.5915 
L 93.652221 240.096822 
L 93.854578 241.239821 
L 94.056936 240.204113 
L 94.259293 236.499908 
L 94.46165 230.708403 
L 94.664007 228.893289 
L 94.866364 234.42542 
L 95.068722 234.716313 
L 95.271079 231.3092 
L 95.473436 233.293594 
L 96.282865 276.242483 
L 96.485222 275.669066 
L 96.687579 277.9141 
L 96.889937 278.712698 
L 97.092294 271.493273 
L 97.497008 248.042451 
L 97.699365 243.574192 
L 97.901723 242.163518 
L 98.10408 236.896212 
L 98.306437 235.896737 
L 98.711151 238.819176 
L 98.913509 238.65359 
L 99.318223 227.49578 
L 99.52058 226.387725 
L 99.722937 231.562771 
L 99.925295 230.063014 
L 100.127652 227.103602 
L 100.330009 231.561842 
L 100.937081 266.87091 
L 101.139438 275.294456 
L 101.341795 277.509245 
L 101.544152 278.500602 
L 101.74651 278.679788 
L 101.948867 272.29578 
L 102.353581 248.589863 
L 102.960653 236.54187 
L 103.16301 237.040649 
L 103.365367 238.220637 
L 103.567724 238.004497 
L 103.770082 237.259192 
L 104.174796 223.977452 
L 104.781868 225.45289 
L 104.984225 221.853268 
L 105.186582 228.583167 
L 105.793654 264.529132 
L 105.996011 273.281305 
L 106.198368 277.059151 
L 106.400725 277.794403 
L 106.603083 279.213246 
L 106.80544 272.222103 
L 107.210154 249.568115 
L 107.817226 237.242718 
L 108.019583 235.414207 
L 108.22194 236.124161 
L 108.424297 233.66914 
L 108.626655 224.962173 
L 108.829012 209.416244 
L 109.031369 203.666434 
L 109.233726 205.405684 
L 109.436083 214.50551 
L 109.638441 218.593754 
L 109.840798 217.274389 
L 110.043155 224.268154 
L 110.650227 263.298817 
L 111.054941 276.124734 
L 111.257298 278.136205 
L 111.459655 277.540777 
L 111.662013 273.423295 
L 112.269084 244.015549 
L 112.876156 222.883801 
L 113.078513 218.679533 
L 113.887942 181.86852 
L 114.090299 181.130606 
L 114.292656 182.62263 
L 114.495014 188.360935 
L 115.102085 225.999069 
L 115.5068 254.028881 
L 115.709157 264.286906 
L 116.113871 271.82092 
L 116.316228 276.609455 
L 116.9233 257.64579 
L 117.328015 242.88069 
L 117.732729 215.025098 
L 118.339801 176.93477 
L 118.744515 160.021707 
L 118.946872 154.974633 
L 119.149229 156.759026 
L 119.351587 162.367766 
L 119.756301 184.613007 
L 120.363373 238.394531 
L 120.768087 257.578649 
L 120.970444 262.925905 
L 121.375159 265.116563 
L 121.577516 261.932677 
L 122.386945 232.017136 
L 123.196374 203.815952 
L 123.601088 196.233484 
L 123.803445 196.838684 
L 124.005802 199.006254 
L 125.017588 244.197625 
L 125.62466 280.393273 
L 126.029374 275.405842 
L 126.231732 269.666434 
L 126.838803 240.10075 
L 127.850589 197.241068 
L 128.255304 166.836349 
L 128.457661 157.745942 
L 128.660018 156.684234 
L 129.064733 177.046607 
L 129.469447 208.91678 
L 129.874161 248.556696 
L 130.076519 259.297751 
L 130.481233 265.976823 
L 130.68359 266.840473 
L 130.885947 268.926992 
L 131.088305 263.273212 
L 132.302448 202.93953 
L 133.314234 149.835462 
L 133.516591 146.081966 
L 133.921306 161.075655 
L 134.32602 182.205892 
L 135.135449 252.930386 
L 135.337806 255.148123 
L 135.540163 259.954231 
L 135.74252 261.276411 
L 135.944878 255.729637 
L 136.349592 234.69444 
L 136.956664 209.191197 
L 137.159021 211.738547 
L 137.563735 202.981539 
L 137.766092 205.846331 
L 137.96845 197.023515 
L 138.373164 207.896247 
L 138.575521 206.488606 
L 138.777879 214.1275 
L 138.980236 212.103208 
L 139.182593 214.920849 
L 139.992022 283.884398 
L 140.194379 282.756812 
L 140.396736 282.520046 
L 140.801451 275.21655 
L 141.003808 253.390511 
L 141.206165 245.799343 
L 141.408522 229.763179 
L 141.610879 228.975925 
L 142.015594 214.516811 
L 142.217951 217.743385 
L 142.420308 218.270503 
L 142.825023 216.389255 
L 143.02738 216.734956 
L 143.432094 224.142701 
L 143.634451 227.329842 
L 143.836809 225.112715 
L 144.039166 228.356449 
L 144.646238 266.519509 
L 144.848595 277.082501 
L 145.253309 281.223782 
L 145.455666 280.849774 
L 145.658024 272.21426 
L 146.062738 245.891108 
L 146.872167 215.42896 
L 147.276881 222.692435 
L 147.479238 215.240085 
L 147.681596 212.528467 
L 147.883953 221.268659 
L 148.08631 224.375772 
L 148.491024 237.348792 
L 148.693382 234.611631 
L 148.895739 240.051711 
L 149.300453 259.609545 
L 149.705168 280.122469 
L 149.907525 278.679826 
L 150.109882 280.898384 
L 150.312239 278.524131 
L 150.514597 274.785834 
L 150.919311 256.786644 
L 151.72874 231.371713 
L 152.133454 224.851766 
L 152.942883 233.049361 
L 153.14524 237.748639 
L 153.347597 235.490357 
L 153.954669 240.546345 
L 154.359383 256.637077 
L 154.764098 273.682328 
L 154.966455 276.283108 
L 155.168812 275.600894 
L 155.37117 272.995276 
L 156.382956 240.160733 
L 157.192384 184.023874 
L 157.394742 175.789246 
L 158.001813 166.376708 
L 158.406528 177.299624 
L 158.608885 185.276658 
L 159.418314 257.0678 
L 159.620671 265.192309 
L 159.823028 268.137659 
L 160.227743 263.183093 
L 160.4301 254.204665 
L 160.632457 239.819757 
L 160.834814 233.891356 
L 161.644243 193.79829 
L 161.8466 187.31979 
L 162.453672 179.38704 
L 162.858386 192.837332 
L 163.263101 209.449793 
L 163.465458 215.088267 
L 164.274887 273.430837 
L 164.477244 277.955327 
L 164.679601 278.944108 
L 164.881958 277.038781 
L 165.084316 269.107499 
L 165.48903 240.576753 
L 165.893744 226.538907 
L 166.096102 218.230986 
L 166.500816 215.43067 
L 166.90553 195.883566 
L 167.310245 168.138469 
L 167.512602 169.720486 
L 167.714959 177.611944 
L 168.119674 203.28032 
L 168.322031 210.516643 
L 168.929102 254.991489 
L 169.333817 268.946433 
L 169.738531 274.188438 
L 169.940888 267.646325 
L 171.155032 191.347131 
L 171.357389 186.898397 
L 172.166818 158.160979 
L 172.369175 159.124506 
L 172.773889 175.161045 
L 173.178604 201.460194 
L 173.785675 254.478599 
L 174.19039 269.507778 
L 174.392747 269.629513 
L 174.595104 269.007397 
L 174.797461 262.915826 
L 175.202176 238.37335 
L 175.809248 218.301736 
L 176.213962 199.917688 
L 177.225748 169.327223 
L 177.630462 179.172217 
L 178.237534 220.967754 
L 178.439891 245.388609 
L 179.046963 270.27139 
L 179.24932 274.722576 
L 179.654034 269.67381 
L 180.058749 244.475888 
L 180.463463 231.203147 
L 181.272892 183.350788 
L 182.082321 157.883356 
L 182.487035 167.475202 
L 182.89175 190.445243 
L 183.498821 241.327575 
L 184.105893 259.718336 
L 184.30825 262.096911 
L 184.510607 262.976725 
L 185.117679 242.488408 
L 185.320036 231.264329 
L 186.129465 155.835034 
L 186.331822 155.303825 
L 186.53418 155.660762 
L 186.736537 157.756502 
L 186.938894 161.937024 
L 187.748323 200.231888 
L 188.557752 248.969 
L 188.760109 257.897147 
L 188.962466 260.618712 
L 189.164823 259.595138 
L 189.36718 257.86391 
L 189.569538 254.560196 
L 189.974252 239.55561 
L 190.378966 222.635137 
L 190.986038 166.079933 
L 191.188395 156.481429 
L 191.390752 153.816703 
L 191.59311 159.081222 
L 192.604896 204.378782 
L 193.616682 264.819736 
L 193.819039 267.801085 
L 194.021396 267.477058 
L 194.223753 265.751693 
L 194.830825 243.936733 
L 195.842611 188.627594 
L 196.044968 189.336727 
L 197.056754 225.076226 
L 197.259112 226.267562 
L 197.461469 224.270573 
L 198.06854 261.18865 
L 198.270898 276.525462 
L 198.473255 282.159609 
L 198.675612 283.728548 
L 199.080326 269.490298 
L 199.687398 231.985635 
L 200.092112 214.972311 
L 201.306256 167.177242 
L 201.508613 168.27564 
L 201.913327 182.573309 
L 202.520399 211.40034 
L 202.722756 237.533691 
L 203.329828 266.61219 
L 203.734542 270.798396 
L 203.936899 265.062244 
L 204.341614 233.606599 
L 205.758114 175.55931 
L 205.960471 169.643394 
L 206.162829 168.262895 
L 206.567543 185.789416 
L 206.7699 195.395535 
L 206.972257 198.585547 
L 207.174615 199.939412 
L 207.376972 213.695787 
L 207.781686 251.390776 
L 208.186401 269.548493 
L 208.591115 273.670955 
L 208.793472 265.308763 
L 209.400544 223.693407 
L 210.209973 192.842362 
L 211.019402 139.750719 
L 211.221759 139.67876 
L 211.626473 165.649312 
L 212.233545 206.143142 
L 212.638259 239.431706 
L 212.840617 250.378052 
L 213.447688 260.286079 
L 213.650045 256.036533 
L 213.852403 238.748544 
L 214.05476 232.045737 
L 214.864189 180.222374 
L 215.673617 130.426192 
L 215.875975 125.509611 
L 216.078332 126.951151 
L 216.887761 171.566938 
L 217.899547 241.417438 
L 218.304261 248.942693 
L 218.506618 247.085389 
L 219.316047 222.274927 
L 220.125476 169.312959 
L 220.327833 163.156125 
L 220.53019 163.905121 
L 220.732548 168.661829 
L 220.934905 176.465937 
L 221.541976 215.852232 
L 222.149048 231.663005 
L 222.75612 269.818042 
L 223.160834 268.320601 
L 223.363191 266.859466 
L 223.767906 253.455009 
L 224.577335 221.644353 
L 224.779692 214.93414 
L 224.982049 212.669591 
L 225.589121 222.833044 
L 225.993835 232.178823 
L 226.600907 241.866817 
L 227.005621 257.437012 
L 227.612693 285.696421 
L 227.81505 283.116287 
L 228.219764 271.050548 
L 228.826836 242.820381 
L 229.23155 234.340934 
L 229.838622 227.520307 
L 230.445694 196.662342 
L 230.648051 190.864467 
L 230.850408 191.186918 
L 231.255122 196.381561 
L 231.45748 204.140753 
L 231.659837 218.9552 
L 232.064551 257.410305 
L 232.469266 272.55564 
L 232.87398 274.977329 
L 233.076337 271.343241 
L 233.683409 240.966809 
L 233.885766 235.751069 
L 234.290481 216.040168 
L 234.492838 212.825461 
L 234.897552 198.941087 
L 235.302267 186.559375 
L 235.504624 186.306618 
L 235.706981 189.502617 
L 236.314053 209.353015 
L 237.123481 268.125228 
L 237.325839 273.661042 
L 237.528196 275.382857 
L 237.730553 275.843562 
L 237.93291 270.746173 
L 238.337625 246.635186 
L 239.349411 212.776915 
L 239.754125 202.464334 
L 240.15884 196.107418 
L 240.361197 197.47218 
L 241.170626 222.821935 
L 241.980054 274.430523 
L 242.182412 278.20851 
L 242.384769 278.502216 
L 242.587126 278.120461 
L 242.789483 272.964762 
L 243.194198 246.314148 
L 243.801269 228.11831 
L 244.408341 206.502625 
L 245.21777 180.552066 
L 245.420127 183.210102 
L 246.027199 206.877397 
L 246.229556 220.886044 
L 246.63427 255.411966 
L 247.038985 271.986087 
L 247.241342 274.875645 
L 247.443699 275.701181 
L 247.646056 271.734281 
L 248.253128 239.290364 
L 248.455485 232.215124 
L 249.669628 154.168027 
L 249.871985 149.829439 
L 250.2767 162.458289 
L 251.086129 205.95352 
L 251.490843 238.193821 
L 252.097915 259.540467 
L 252.300272 262.268822 
L 252.502629 262.619967 
L 253.312058 230.327032 
L 253.514415 217.073308 
L 253.91913 172.726008 
L 254.323844 153.907168 
L 254.526201 152.834625 
L 254.728558 154.018022 
L 254.930916 153.86958 
L 255.133273 157.020975 
L 255.537987 175.023749 
L 255.942702 209.631354 
L 256.347416 237.76338 
L 256.752131 257.739263 
L 257.156845 260.782796 
L 257.359202 259.728031 
L 257.966274 241.382147 
L 258.370988 225.485807 
L 258.97806 180.920621 
L 259.382774 173.124359 
L 259.585131 171.68174 
L 259.787489 171.426391 
L 259.989846 173.078547 
L 260.39456 183.241443 
L 260.596917 193.973347 
L 261.406346 261.849251 
L 261.608704 268.785188 
L 261.811061 271.103912 
L 262.013418 266.039145 
L 262.215775 264.108424 
L 262.418132 255.85932 
L 262.822847 234.591085 
L 263.227561 220.560129 
L 263.429918 220.334078 
L 263.834633 226.622925 
L 264.03699 228.26713 
L 264.239347 228.411008 
L 264.441704 230.054431 
L 264.644062 229.853032 
L 264.846419 228.995254 
L 265.45349 239.636127 
L 266.262919 277.626725 
L 266.465277 280.198426 
L 266.667634 280.032068 
L 266.869991 277.931439 
L 267.072348 271.521902 
L 267.67942 243.693194 
L 268.286491 228.920695 
L 268.488849 225.920675 
L 268.691206 225.77001 
L 268.893563 224.608106 
L 269.09592 218.425276 
L 269.298277 216.428141 
L 269.500635 218.116415 
L 269.905349 226.051115 
L 270.107706 224.185337 
L 270.310063 227.881077 
L 271.32185 276.468164 
L 271.524207 277.063111 
L 271.726564 279.396085 
L 271.928921 273.237906 
L 272.333636 250.37622 
L 272.940707 226.634972 
L 273.952493 158.972175 
L 274.357208 151.067135 
L 274.964279 166.772111 
L 275.368994 190.055181 
L 275.976065 245.295825 
L 276.38078 255.591393 
L 276.583137 258.047255 
L 276.785494 254.122088 
L 277.79728 187.485818 
L 278.404352 152.292055 
L 278.606709 143.097182 
L 278.809066 143.529641 
L 279.011423 139.298395 
L 279.213781 137.894572 
L 279.820852 161.728227 
L 280.630281 241.296171 
L 281.034995 258.489739 
L 281.237353 259.333057 
L 281.642067 255.790212 
L 282.249139 227.589638 
L 282.451496 224.620873 
L 283.058568 188.499365 
L 283.463282 177.728674 
L 284.070354 163.186338 
L 284.272711 163.5519 
L 284.677425 187.814975 
L 285.689211 262.006741 
L 285.891568 269.762173 
L 286.093926 268.47308 
L 286.296283 269.299014 
L 286.49864 267.167999 
L 287.105712 244.887945 
L 287.510426 227.393439 
L 287.915141 193.100402 
L 288.522212 171.839524 
L 288.926927 161.822947 
L 289.129284 161.889203 
L 289.533998 178.206251 
L 290.545784 249.918847 
L 290.950499 263.647642 
L 291.152856 262.153492 
L 291.355213 263.62897 
L 291.55757 261.131269 
L 292.164642 235.618518 
L 292.366999 218.941979 
L 292.771714 172.938112 
L 293.176428 150.936135 
L 293.581142 147.27969 
L 293.7835 147.100542 
L 293.985857 149.914162 
L 294.390571 164.736681 
L 294.795286 187.833096 
L 295.2 226.998958 
L 295.604714 249.318806 
L 295.807072 251.294249 
L 296.009429 250.647034 
L 296.211786 248.670117 
L 296.414143 240.743864 
L 297.021215 194.796442 
L 297.628286 124.778204 
L 298.033001 104.698836 
L 298.437715 110.875156 
L 299.044787 138.042334 
L 299.651859 167.937509 
L 300.056573 209.109908 
L 300.461287 231.761767 
L 300.663645 234.488934 
L 301.068359 227.023835 
L 301.675431 201.448019 
L 302.080145 160.222924 
L 302.484859 117.02432 
L 302.687217 105.892665 
L 302.889574 103.124643 
L 303.294288 120.214921 
L 304.306074 166.869829 
L 305.31786 233.708705 
L 305.520218 234.668216 
L 305.722575 234.403554 
L 306.532004 209.598806 
L 306.734361 201.624524 
L 307.746147 134.098463 
L 307.948504 129.533156 
L 308.150861 128.253091 
L 309.162647 174.142132 
L 309.972076 236.049901 
L 310.174433 247.235071 
L 310.376791 249.515537 
L 310.781505 243.219548 
L 311.590934 197.792132 
L 312.198005 149.715009 
L 312.60272 129.518302 
L 313.007434 132.014777 
L 313.614506 157.465673 
L 314.828649 235.065635 
L 315.233364 243.954233 
L 315.435721 244.20039 
L 315.638078 240.128623 
L 316.042792 221.765116 
L 316.447507 207.628333 
L 316.649864 203.772182 
L 317.054578 189.901122 
L 317.66165 177.032555 
L 317.864007 177.769268 
L 318.673436 197.398667 
L 318.875793 197.77849 
L 319.685222 270.069495 
L 320.089937 277.706424 
L 320.292294 278.650338 
L 320.494651 273.017575 
L 321.30408 233.235867 
L 321.506437 227.359479 
L 322.315866 169.629349 
L 322.518223 162.471719 
L 322.72058 160.385501 
L 322.922937 160.315862 
L 323.125295 162.72489 
L 323.732366 191.473637 
L 324.744152 258.572883 
L 325.148867 263.647066 
L 325.351224 263.017158 
L 325.553581 260.734459 
L 326.36301 220.010392 
L 326.767724 165.929831 
L 327.172439 139.124284 
L 327.374796 138.863219 
L 327.577153 144.407414 
L 327.77951 146.16938 
L 327.981868 150.611877 
L 328.588939 180.093043 
L 329.196011 234.663085 
L 329.600725 253.543099 
L 329.803083 253.950837 
L 330.00544 252.826283 
L 330.207797 250.120425 
L 330.410154 243.356819 
L 331.826655 152.427361 
L 332.029012 148.922806 
L 332.231369 151.431224 
L 332.433726 151.198469 
L 333.040798 169.598771 
L 334.457298 261.201966 
L 334.659655 259.389724 
L 334.862013 260.531644 
L 335.06437 259.03467 
L 335.671442 228.058355 
L 336.076156 218.637587 
L 336.683228 185.249137 
L 336.885585 181.105017 
L 337.087942 182.882919 
L 337.290299 179.409079 
L 337.492656 184.124793 
L 337.695014 193.108716 
L 337.897371 197.022791 
L 338.302085 213.322605 
L 338.504442 219.178403 
L 338.909157 255.945485 
L 339.313871 274.898226 
L 339.516228 277.753227 
L 339.718586 275.592634 
L 339.920943 270.504274 
L 340.325657 239.49671 
L 340.932729 215.645864 
L 341.742158 172.502906 
L 342.146872 155.441431 
L 342.349229 151.156562 
L 343.158658 179.093168 
L 343.361015 188.615803 
L 343.76573 229.3906 
L 344.170444 253.581488 
L 344.372801 254.089777 
L 344.575159 255.241382 
L 344.777516 249.44936 
L 345.18223 228.262028 
L 345.586945 187.762076 
L 345.991659 134.861204 
L 346.396374 113.515689 
L 346.598731 111.658107 
L 347.40816 135.359074 
L 348.015231 161.608832 
L 348.217588 174.836729 
L 348.622303 217.50487 
L 349.027017 240.608686 
L 349.229374 242.399292 
L 349.431732 242.58462 
L 349.836446 229.445569 
L 350.038803 223.966795 
L 350.443518 200.029682 
L 351.050589 141.37274 
L 351.455304 125.791654 
L 351.657661 125.403114 
L 351.860018 125.999227 
L 352.264733 133.389881 
L 352.669447 149.550343 
L 353.074161 179.60606 
L 353.478876 221.948195 
L 353.88359 241.945953 
L 354.085947 243.784216 
L 354.288305 243.308305 
L 354.693019 240.805529 
L 354.895376 231.820307 
L 355.097733 228.290944 
L 355.300091 218.451592 
L 356.109519 137.267432 
L 356.311877 134.061542 
L 356.514234 137.696175 
L 356.716591 138.337347 
L 356.918948 137.774977 
L 357.121306 138.069708 
L 357.323663 141.761139 
L 357.728377 167.819356 
L 358.740163 238.910477 
L 358.94252 243.318744 
L 359.144878 240.033971 
L 359.347235 241.015848 
L 359.549592 238.855268 
L 360.156664 216.102017 
L 360.966092 125.331962 
L 361.16845 120.461004 
L 361.573164 126.314527 
L 361.775521 126.695045 
L 361.977879 129.207898 
L 362.180236 133.372965 
L 362.58495 155.428122 
L 362.787307 169.356833 
L 363.192022 212.190832 
L 363.596736 231.3071 
L 363.799093 233.317782 
L 364.406165 219.529805 
L 364.608522 216.707605 
L 365.013237 184.738163 
L 365.620308 107.645711 
L 365.822665 98.117546 
L 366.025023 96.911632 
L 367.239166 135.937771 
L 367.64388 162.438053 
L 368.048595 204.900569 
L 368.453309 225.057413 
L 368.655666 226.174064 
L 368.858024 224.071481 
L 369.060381 223.550009 
L 369.465095 216.262621 
L 369.86981 192.886662 
L 370.476881 126.011838 
L 370.679238 115.083155 
L 370.881596 110.533584 
L 371.083953 111.99741 
L 371.893382 136.027108 
L 372.095739 142.777384 
L 372.500453 168.872605 
L 372.905168 205.757888 
L 373.309882 224.502444 
L 373.512239 227.309564 
L 373.714597 226.195876 
L 373.916954 227.059921 
L 374.119311 225.212493 
L 374.321668 224.415064 
L 374.524025 218.206421 
L 374.726383 206.972964 
L 375.535811 126.498571 
L 375.738169 121.016288 
L 376.34524 126.637914 
L 376.547597 130.938351 
L 376.749955 138.185368 
L 377.154669 164.677525 
L 377.761741 212.221112 
L 377.964098 221.25903 
L 378.368812 229.078661 
L 378.773527 226.371487 
L 379.178241 215.841084 
L 379.582956 182.865913 
L 379.98767 137.503493 
L 380.392384 115.325316 
L 380.594742 110.904901 
L 380.797099 109.544175 
L 380.999456 109.098003 
L 381.201813 110.442351 
L 381.606528 125.060837 
L 382.213599 165.721098 
L 382.618314 204.040623 
L 383.023028 223.306181 
L 383.225385 225.145465 
L 383.6301 222.479195 
L 384.034814 211.769556 
L 384.237171 202.579424 
L 384.237171 202.579424 
" clip-path="url(#pa6b41c889b)" style="fill: none; stroke: #ff7f0e; stroke-width: 1.5; stroke-linecap: square"/>
   </g>
   <g id="line2d_15">
    <path d="M 384.439529 189.038863 
L 384.641886 186.740458 
L 386.058386 120.582034 
L 386.260743 116.088711 
L 386.463101 117.881421 
L 386.665458 117.87964 
L 386.867815 115.754816 
L 387.070172 118.942802 
L 387.677244 138.728784 
L 388.081958 170.804678 
L 388.68903 232.402734 
L 388.891387 230.071147 
L 389.093744 231.053198 
L 389.296102 228.505433 
L 389.498459 220.87664 
L 389.903173 199.670091 
L 390.10553 191.655863 
L 390.712602 146.637441 
L 391.319674 95.117076 
L 391.522031 88.518241 
L 391.724388 90.664903 
L 392.33146 137.695483 
L 392.736174 169.065658 
L 393.545603 206.425727 
L 394.152675 218.860287 
L 394.557389 208.033221 
L 394.962103 187.36731 
L 395.771532 133.560994 
L 396.378604 112.474429 
L 396.783318 104.104209 
L 396.985675 103.028462 
L 397.188033 106.857327 
L 397.592747 130.751923 
L 397.997461 171.276693 
L 398.402176 210.46005 
L 398.80689 225.425476 
L 399.009248 224.262885 
L 400.223391 190.044874 
L 400.628105 157.853035 
L 401.235177 105.603188 
L 401.437534 99.061587 
L 401.639891 99.900363 
L 401.842248 106.31732 
L 402.651677 144.455908 
L 403.056392 164.767977 
L 403.86582 218.137661 
L 404.068178 223.792553 
L 404.270535 225.049054 
L 404.472892 220.205441 
L 405.484678 166.394105 
L 406.09175 129.750238 
L 406.698821 90.046234 
L 406.901179 87.131077 
L 407.103536 93.554391 
L 407.50825 123.676442 
L 408.317679 199.583234 
L 408.520036 210.769983 
L 408.722393 214.749173 
L 409.127108 218.433762 
L 409.329465 218.375736 
L 409.73418 211.566922 
L 410.138894 196.43371 
L 411.353037 117.418423 
L 411.555394 114.26919 
L 411.757752 113.348703 
L 412.162466 116.405318 
L 412.364823 118.371743 
L 412.56718 121.660459 
L 412.769538 128.463406 
L 413.174252 156.613108 
L 413.781324 211.037584 
L 413.983681 222.091891 
L 414.186038 226.897168 
L 414.388395 224.404485 
L 415.602539 181.35607 
L 416.007253 149.410115 
L 416.614325 93.6426 
L 416.816682 87.436868 
L 417.019039 90.567826 
L 417.423753 116.97325 
L 418.233182 173.720585 
L 418.637897 196.937959 
L 419.244968 222.808932 
L 419.447325 223.374765 
L 419.649683 220.378589 
L 419.85204 213.799636 
L 420.459112 176.405736 
L 421.066183 140.416395 
L 421.875612 107.962421 
L 422.077969 102.354943 
L 422.280326 101.218822 
L 422.482684 105.477417 
L 422.887398 129.379703 
L 423.899184 214.69968 
L 424.101541 219.313322 
L 424.303898 220.084344 
L 424.506256 218.205842 
L 425.113327 208.063415 
L 425.518042 194.049131 
L 425.922756 162.488661 
L 426.529828 109.478945 
L 426.732185 101.209365 
L 426.934542 99.960096 
L 427.136899 104.07986 
L 428.148685 146.976783 
L 428.5534 175.597743 
L 429.160471 219.125227 
L 429.362829 224.930093 
L 429.565186 225.638609 
L 429.767543 220.849619 
L 430.981686 161.94966 
L 431.588758 119.551885 
L 431.993472 93.424044 
L 432.19583 89.244214 
L 432.398187 94.248863 
L 432.802901 121.53356 
L 433.814687 201.471875 
L 434.219402 214.678914 
L 434.624116 221.310717 
L 434.826473 220.007078 
L 435.02883 216.01339 
L 435.433545 199.597144 
L 436.040617 154.895779 
L 436.445331 128.714424 
L 436.850045 113.795016 
L 437.052403 110.004099 
L 437.25476 108.808129 
L 437.457117 109.555825 
L 437.659474 112.52623 
L 437.861831 117.92807 
L 438.266546 139.907235 
L 439.278332 219.465398 
L 439.480689 223.97188 
L 439.683046 222.744979 
L 440.694832 192.545577 
L 441.099547 168.638383 
L 441.908976 99.330239 
L 442.111333 92.715026 
L 442.31369 94.147326 
L 442.718404 114.782118 
L 444.337262 214.802542 
L 444.539619 223.121127 
L 444.741976 224.335957 
L 444.944334 221.819161 
L 445.146691 215.635896 
L 445.753762 182.841358 
L 446.765549 123.739455 
L 447.170263 104.109399 
L 447.37262 97.91556 
L 447.574977 97.475501 
L 447.777335 103.540685 
L 448.182049 128.853472 
L 449.193835 211.415383 
L 449.396192 216.380571 
L 449.598549 218.330715 
L 449.800907 218.611285 
L 450.003264 217.084751 
L 450.407978 209.206443 
L 450.812693 194.655007 
L 451.217407 164.86244 
L 451.824479 116.371293 
L 452.026836 107.332641 
L 452.229193 103.406097 
L 452.43155 104.172593 
L 452.836265 115.591097 
L 453.240979 130.429408 
L 453.645694 153.324536 
L 454.455122 217.160647 
L 454.65748 225.188706 
L 454.859837 227.057602 
L 455.062194 222.553711 
L 456.07398 179.239969 
L 456.681052 138.709292 
L 457.288123 95.512345 
L 457.490481 91.677828 
L 457.692838 95.818597 
L 458.097552 120.815943 
L 459.311695 204.243489 
L 459.71641 218.890153 
L 459.918767 221.770092 
L 460.121124 220.929847 
L 460.323481 217.368872 
L 460.728196 200.099384 
L 461.13291 174.736515 
L 461.739982 133.452805 
L 462.144696 114.134115 
L 462.549411 104.206707 
L 462.751768 103.744619 
L 462.954125 107.278252 
L 463.35884 124.490073 
L 463.965911 175.359263 
L 464.370626 209.017018 
L 464.77534 222.060898 
L 464.977697 222.182212 
L 465.584769 207.739874 
L 465.989483 194.350847 
L 466.394198 170.316497 
L 467.203626 104.98161 
L 467.405984 97.961299 
L 467.608341 97.8405 
L 467.810698 103.768763 
L 468.620127 145.645764 
L 469.227199 187.631047 
L 469.83427 222.435774 
L 470.036627 225.44213 
L 470.238985 223.132474 
L 470.643699 208.711772 
L 472.667271 95.172311 
L 472.869628 95.108784 
L 473.071985 102.179576 
L 473.4767 128.747193 
L 474.488486 207.95916 
L 474.8932 217.940572 
L 475.095558 219.481377 
L 475.297915 218.591933 
L 475.500272 215.529904 
L 475.904986 202.903954 
L 476.309701 181.09051 
L 477.11913 120.889273 
L 477.523844 106.487484 
L 477.726201 104.821634 
L 477.928558 107.131502 
L 478.333273 118.200976 
L 478.737987 136.984427 
L 479.142702 168.063921 
L 479.547416 203.345303 
L 479.952131 223.621991 
L 480.154488 226.135886 
L 480.356845 222.343101 
L 481.368631 183.016989 
L 481.773345 156.306459 
L 482.582774 96.720642 
L 482.785131 93.280472 
L 482.987489 97.458559 
L 483.392203 120.537487 
L 484.808704 211.022801 
L 485.011061 219.282279 
L 485.213418 222.747289 
L 485.415775 221.538365 
L 485.618132 217.658015 
L 485.82049 210.926571 
L 486.629918 162.067236 
L 487.439347 114.61494 
L 487.844062 101.496676 
L 488.046419 100.144729 
L 488.248776 104.173259 
L 488.65349 123.769867 
L 489.260562 174.855203 
L 489.665277 207.661269 
L 490.069991 220.459741 
L 490.272348 221.126748 
L 490.474705 218.492241 
L 490.87942 209.306385 
L 491.284134 195.501955 
L 491.688849 170.743689 
L 492.498277 108.44085 
L 492.700635 101.475338 
L 492.902992 100.298758 
L 493.105349 104.654635 
L 493.712421 130.908452 
L 494.117135 153.107672 
L 495.128921 222.054394 
L 495.331278 226.180127 
L 495.533636 223.845072 
L 495.93835 209.717891 
L 496.950136 154.343075 
L 497.961922 94.201446 
L 498.164279 94.728612 
L 498.366636 102.20604 
L 498.973708 144.903067 
L 499.783137 204.89096 
L 500.187851 217.84035 
L 500.390209 220.30833 
L 500.592566 219.679481 
L 500.794923 216.732454 
L 501.199637 202.769247 
L 501.604352 180.648093 
L 502.413781 123.264538 
L 502.818495 107.705893 
L 503.020852 104.532401 
L 503.223209 105.289426 
L 503.425567 109.294235 
L 503.830281 124.074235 
L 504.234995 150.648222 
L 505.044424 215.720178 
L 505.246782 222.504824 
L 505.449139 224.812185 
L 505.651496 221.663802 
L 506.663282 184.635075 
L 507.067996 157.136917 
L 507.877425 98.098938 
L 508.079782 95.007183 
L 508.28214 99.090858 
L 508.686854 120.294415 
L 510.305712 219.743848 
L 510.508069 223.59095 
L 510.710426 222.078584 
L 511.115141 211.140143 
L 512.329284 138.775087 
L 512.936355 105.60998 
L 513.138713 99.555036 
L 513.34107 98.052943 
L 513.543427 102.686211 
L 513.948141 124.318909 
L 514.555213 174.996891 
L 514.959927 206.513439 
L 515.364642 219.347792 
L 515.566999 220.255582 
L 515.769356 218.505612 
L 516.174071 210.032489 
L 516.578785 195.685784 
L 516.9835 170.160654 
L 517.792928 110.487371 
L 517.995286 103.686154 
L 518.197643 101.718128 
L 518.4 104.959055 
L 518.4 104.959055 
" clip-path="url(#pa6b41c889b)" style="fill: none; stroke: #2ca02c; stroke-width: 1.5; stroke-linecap: square"/>
   </g>
   <g id="patch_3">
    <path d="M 72 320.4 
L 72 43.2 
" style="fill: none; stroke: #000000; stroke-width: 0.8; stroke-linejoin: miter; stroke-linecap: square"/>
   </g>
   <g id="patch_4">
    <path d="M 518.4 320.4 
L 518.4 43.2 
" style="fill: none; stroke: #000000; stroke-width: 0.8; stroke-linejoin: miter; stroke-linecap: square"/>
   </g>
   <g id="patch_5">
    <path d="M 72 320.4 
L 518.4 320.4 
" style="fill: none; stroke: #000000; stroke-width: 0.8; stroke-linejoin: miter; stroke-linecap: square"/>
   </g>
   <g id="patch_6">
    <path d="M 72 43.2 
L 518.4 43.2 
" style="fill: none; stroke: #000000; stroke-width: 0.8; stroke-linejoin: miter; stroke-linecap: square"/>
   </g>
   <g id="text_13">
    <!-- Classic Transformer - model_20231126192819 -->
    <g transform="translate(155.436563 37.2) scale(0.12 -0.12)">
     <defs>
      <path id="DejaVuSans-43" d="M 4122 4306 
L 4122 3641 
Q 3803 3938 3442 4084 
Q 3081 4231 2675 4231 
Q 1875 4231 1450 3742 
Q 1025 3253 1025 2328 
Q 1025 1406 1450 917 
Q 1875 428 2675 428 
Q 3081 428 3442 575 
Q 3803 722 4122 1019 
L 4122 359 
Q 3791 134 3420 21 
Q 3050 -91 2638 -91 
Q 1578 -91 968 557 
Q 359 1206 359 2328 
Q 359 3453 968 4101 
Q 1578 4750 2638 4750 
Q 3056 4750 3426 4639 
Q 3797 4528 4122 4306 
z
" transform="scale(0.015625)"/>
      <path id="DejaVuSans-6c" d="M 603 4863 
L 1178 4863 
L 1178 0 
L 603 0 
L 603 4863 
z
" transform="scale(0.015625)"/>
      <path id="DejaVuSans-61" d="M 2194 1759 
Q 1497 1759 1228 1600 
Q 959 1441 959 1056 
Q 959 750 1161 570 
Q 1363 391 1709 391 
Q 2188 391 2477 730 
Q 2766 1069 2766 1631 
L 2766 1759 
L 2194 1759 
z
M 3341 1997 
L 3341 0 
L 2766 0 
L 2766 531 
Q 2569 213 2275 61 
Q 1981 -91 1556 -91 
Q 1019 -91 701 211 
Q 384 513 384 1019 
Q 384 1609 779 1909 
Q 1175 2209 1959 2209 
L 2766 2209 
L 2766 2266 
Q 2766 2663 2505 2880 
Q 2244 3097 1772 3097 
Q 1472 3097 1187 3025 
Q 903 2953 641 2809 
L 641 3341 
Q 956 3463 1253 3523 
Q 1550 3584 1831 3584 
Q 2591 3584 2966 3190 
Q 3341 2797 3341 1997 
z
" transform="scale(0.015625)"/>
      <path id="DejaVuSans-73" d="M 2834 3397 
L 2834 2853 
Q 2591 2978 2328 3040 
Q 2066 3103 1784 3103 
Q 1356 3103 1142 2972 
Q 928 2841 928 2578 
Q 928 2378 1081 2264 
Q 1234 2150 1697 2047 
L 1894 2003 
Q 2506 1872 2764 1633 
Q 3022 1394 3022 966 
Q 3022 478 2636 193 
Q 2250 -91 1575 -91 
Q 1294 -91 989 -36 
Q 684 19 347 128 
L 347 722 
Q 666 556 975 473 
Q 1284 391 1588 391 
Q 1994 391 2212 530 
Q 2431 669 2431 922 
Q 2431 1156 2273 1281 
Q 2116 1406 1581 1522 
L 1381 1569 
Q 847 1681 609 1914 
Q 372 2147 372 2553 
Q 372 3047 722 3315 
Q 1072 3584 1716 3584 
Q 2034 3584 2315 3537 
Q 2597 3491 2834 3397 
z
" transform="scale(0.015625)"/>
      <path id="DejaVuSans-69" d="M 603 3500 
L 1178 3500 
L 1178 0 
L 603 0 
L 603 3500 
z
M 603 4863 
L 1178 4863 
L 1178 4134 
L 603 4134 
L 603 4863 
z
" transform="scale(0.015625)"/>
      <path id="DejaVuSans-63" d="M 3122 3366 
L 3122 2828 
Q 2878 2963 2633 3030 
Q 2388 3097 2138 3097 
Q 1578 3097 1268 2742 
Q 959 2388 959 1747 
Q 959 1106 1268 751 
Q 1578 397 2138 397 
Q 2388 397 2633 464 
Q 2878 531 3122 666 
L 3122 134 
Q 2881 22 2623 -34 
Q 2366 -91 2075 -91 
Q 1284 -91 818 406 
Q 353 903 353 1747 
Q 353 2603 823 3093 
Q 1294 3584 2113 3584 
Q 2378 3584 2631 3529 
Q 2884 3475 3122 3366 
z
" transform="scale(0.015625)"/>
      <path id="DejaVuSans-20" transform="scale(0.015625)"/>
      <path id="DejaVuSans-54" d="M -19 4666 
L 3928 4666 
L 3928 4134 
L 2272 4134 
L 2272 0 
L 1638 0 
L 1638 4134 
L -19 4134 
L -19 4666 
z
" transform="scale(0.015625)"/>
      <path id="DejaVuSans-72" d="M 2631 2963 
Q 2534 3019 2420 3045 
Q 2306 3072 2169 3072 
Q 1681 3072 1420 2755 
Q 1159 2438 1159 1844 
L 1159 0 
L 581 0 
L 581 3500 
L 1159 3500 
L 1159 2956 
Q 1341 3275 1631 3429 
Q 1922 3584 2338 3584 
Q 2397 3584 2469 3576 
Q 2541 3569 2628 3553 
L 2631 2963 
z
" transform="scale(0.015625)"/>
      <path id="DejaVuSans-6e" d="M 3513 2113 
L 3513 0 
L 2938 0 
L 2938 2094 
Q 2938 2591 2744 2837 
Q 2550 3084 2163 3084 
Q 1697 3084 1428 2787 
Q 1159 2491 1159 1978 
L 1159 0 
L 581 0 
L 581 3500 
L 1159 3500 
L 1159 2956 
Q 1366 3272 1645 3428 
Q 1925 3584 2291 3584 
Q 2894 3584 3203 3211 
Q 3513 2838 3513 2113 
z
" transform="scale(0.015625)"/>
      <path id="DejaVuSans-66" d="M 2375 4863 
L 2375 4384 
L 1825 4384 
Q 1516 4384 1395 4259 
Q 1275 4134 1275 3809 
L 1275 3500 
L 2222 3500 
L 2222 3053 
L 1275 3053 
L 1275 0 
L 697 0 
L 697 3053 
L 147 3053 
L 147 3500 
L 697 3500 
L 697 3744 
Q 697 4328 969 4595 
Q 1241 4863 1831 4863 
L 2375 4863 
z
" transform="scale(0.015625)"/>
      <path id="DejaVuSans-6f" d="M 1959 3097 
Q 1497 3097 1228 2736 
Q 959 2375 959 1747 
Q 959 1119 1226 758 
Q 1494 397 1959 397 
Q 2419 397 2687 759 
Q 2956 1122 2956 1747 
Q 2956 2369 2687 2733 
Q 2419 3097 1959 3097 
z
M 1959 3584 
Q 2709 3584 3137 3096 
Q 3566 2609 3566 1747 
Q 3566 888 3137 398 
Q 2709 -91 1959 -91 
Q 1206 -91 779 398 
Q 353 888 353 1747 
Q 353 2609 779 3096 
Q 1206 3584 1959 3584 
z
" transform="scale(0.015625)"/>
      <path id="DejaVuSans-6d" d="M 3328 2828 
Q 3544 3216 3844 3400 
Q 4144 3584 4550 3584 
Q 5097 3584 5394 3201 
Q 5691 2819 5691 2113 
L 5691 0 
L 5113 0 
L 5113 2094 
Q 5113 2597 4934 2840 
Q 4756 3084 4391 3084 
Q 3944 3084 3684 2787 
Q 3425 2491 3425 1978 
L 3425 0 
L 2847 0 
L 2847 2094 
Q 2847 2600 2669 2842 
Q 2491 3084 2119 3084 
Q 1678 3084 1418 2786 
Q 1159 2488 1159 1978 
L 1159 0 
L 581 0 
L 581 3500 
L 1159 3500 
L 1159 2956 
Q 1356 3278 1631 3431 
Q 1906 3584 2284 3584 
Q 2666 3584 2933 3390 
Q 3200 3197 3328 2828 
z
" transform="scale(0.015625)"/>
      <path id="DejaVuSans-65" d="M 3597 1894 
L 3597 1613 
L 953 1613 
Q 991 1019 1311 708 
Q 1631 397 2203 397 
Q 2534 397 2845 478 
Q 3156 559 3463 722 
L 3463 178 
Q 3153 47 2828 -22 
Q 2503 -91 2169 -91 
Q 1331 -91 842 396 
Q 353 884 353 1716 
Q 353 2575 817 3079 
Q 1281 3584 2069 3584 
Q 2775 3584 3186 3129 
Q 3597 2675 3597 1894 
z
M 3022 2063 
Q 3016 2534 2758 2815 
Q 2500 3097 2075 3097 
Q 1594 3097 1305 2825 
Q 1016 2553 972 2059 
L 3022 2063 
z
" transform="scale(0.015625)"/>
      <path id="DejaVuSans-64" d="M 2906 2969 
L 2906 4863 
L 3481 4863 
L 3481 0 
L 2906 0 
L 2906 525 
Q 2725 213 2448 61 
Q 2172 -91 1784 -91 
Q 1150 -91 751 415 
Q 353 922 353 1747 
Q 353 2572 751 3078 
Q 1150 3584 1784 3584 
Q 2172 3584 2448 3432 
Q 2725 3281 2906 2969 
z
M 947 1747 
Q 947 1113 1208 752 
Q 1469 391 1925 391 
Q 2381 391 2643 752 
Q 2906 1113 2906 1747 
Q 2906 2381 2643 2742 
Q 2381 3103 1925 3103 
Q 1469 3103 1208 2742 
Q 947 2381 947 1747 
z
" transform="scale(0.015625)"/>
      <path id="DejaVuSans-5f" d="M 3263 -1063 
L 3263 -1509 
L -63 -1509 
L -63 -1063 
L 3263 -1063 
z
" transform="scale(0.015625)"/>
      <path id="DejaVuSans-39" d="M 703 97 
L 703 672 
Q 941 559 1184 500 
Q 1428 441 1663 441 
Q 2288 441 2617 861 
Q 2947 1281 2994 2138 
Q 2813 1869 2534 1725 
Q 2256 1581 1919 1581 
Q 1219 1581 811 2004 
Q 403 2428 403 3163 
Q 403 3881 828 4315 
Q 1253 4750 1959 4750 
Q 2769 4750 3195 4129 
Q 3622 3509 3622 2328 
Q 3622 1225 3098 567 
Q 2575 -91 1691 -91 
Q 1453 -91 1209 -44 
Q 966 3 703 97 
z
M 1959 2075 
Q 2384 2075 2632 2365 
Q 2881 2656 2881 3163 
Q 2881 3666 2632 3958 
Q 2384 4250 1959 4250 
Q 1534 4250 1286 3958 
Q 1038 3666 1038 3163 
Q 1038 2656 1286 2365 
Q 1534 2075 1959 2075 
z
" transform="scale(0.015625)"/>
     </defs>
     <use xlink:href="#DejaVuSans-43"/>
     <use xlink:href="#DejaVuSans-6c" x="69.824219"/>
     <use xlink:href="#DejaVuSans-61" x="97.607422"/>
     <use xlink:href="#DejaVuSans-73" x="158.886719"/>
     <use xlink:href="#DejaVuSans-73" x="210.986328"/>
     <use xlink:href="#DejaVuSans-69" x="263.085938"/>
     <use xlink:href="#DejaVuSans-63" x="290.869141"/>
     <use xlink:href="#DejaVuSans-20" x="345.849609"/>
     <use xlink:href="#DejaVuSans-54" x="377.636719"/>
     <use xlink:href="#DejaVuSans-72" x="423.970703"/>
     <use xlink:href="#DejaVuSans-61" x="465.083984"/>
     <use xlink:href="#DejaVuSans-6e" x="526.363281"/>
     <use xlink:href="#DejaVuSans-73" x="589.742188"/>
     <use xlink:href="#DejaVuSans-66" x="641.841797"/>
     <use xlink:href="#DejaVuSans-6f" x="677.046875"/>
     <use xlink:href="#DejaVuSans-72" x="738.228516"/>
     <use xlink:href="#DejaVuSans-6d" x="777.591797"/>
     <use xlink:href="#DejaVuSans-65" x="875.003906"/>
     <use xlink:href="#DejaVuSans-72" x="936.527344"/>
     <use xlink:href="#DejaVuSans-20" x="977.640625"/>
     <use xlink:href="#DejaVuSans-2d" x="1009.427734"/>
     <use xlink:href="#DejaVuSans-20" x="1045.511719"/>
     <use xlink:href="#DejaVuSans-6d" x="1077.298828"/>
     <use xlink:href="#DejaVuSans-6f" x="1174.710938"/>
     <use xlink:href="#DejaVuSans-64" x="1235.892578"/>
     <use xlink:href="#DejaVuSans-65" x="1299.369141"/>
     <use xlink:href="#DejaVuSans-6c" x="1360.892578"/>
     <use xlink:href="#DejaVuSans-5f" x="1388.675781"/>
     <use xlink:href="#DejaVuSans-32" x="1438.675781"/>
     <use xlink:href="#DejaVuSans-30" x="1502.298828"/>
     <use xlink:href="#DejaVuSans-32" x="1565.921875"/>
     <use xlink:href="#DejaVuSans-33" x="1629.544922"/>
     <use xlink:href="#DejaVuSans-31" x="1693.167969"/>
     <use xlink:href="#DejaVuSans-31" x="1756.791016"/>
     <use xlink:href="#DejaVuSans-32" x="1820.414062"/>
     <use xlink:href="#DejaVuSans-36" x="1884.037109"/>
     <use xlink:href="#DejaVuSans-31" x="1947.660156"/>
     <use xlink:href="#DejaVuSans-39" x="2011.283203"/>
     <use xlink:href="#DejaVuSans-32" x="2074.90625"/>
     <use xlink:href="#DejaVuSans-38" x="2138.529297"/>
     <use xlink:href="#DejaVuSans-31" x="2202.152344"/>
     <use xlink:href="#DejaVuSans-39" x="2265.775391"/>
    </g>
   </g>
   <g id="legend_1">
    <g id="patch_7">
     <path d="M 79 95.234375 
L 161.517188 95.234375 
Q 163.517188 95.234375 163.517188 93.234375 
L 163.517188 50.2 
Q 163.517188 48.2 161.517188 48.2 
L 79 48.2 
Q 77 48.2 77 50.2 
L 77 93.234375 
Q 77 95.234375 79 95.234375 
z
" style="fill: #ffffff; opacity: 0.8; stroke: #cccccc; stroke-linejoin: miter"/>
    </g>
    <g id="line2d_16">
     <path d="M 81 56.298437 
L 91 56.298437 
L 101 56.298437 
" style="fill: none; stroke: #1f77b4; stroke-width: 1.5; stroke-linecap: square"/>
    </g>
    <g id="text_14">
     <!-- Measured -->
     <g transform="translate(109 59.798437) scale(0.1 -0.1)">
      <defs>
       <path id="DejaVuSans-4d" d="M 628 4666 
L 1569 4666 
L 2759 1491 
L 3956 4666 
L 4897 4666 
L 4897 0 
L 4281 0 
L 4281 4097 
L 3078 897 
L 2444 897 
L 1241 4097 
L 1241 0 
L 628 0 
L 628 4666 
z
" transform="scale(0.015625)"/>
       <path id="DejaVuSans-75" d="M 544 1381 
L 544 3500 
L 1119 3500 
L 1119 1403 
Q 1119 906 1312 657 
Q 1506 409 1894 409 
Q 2359 409 2629 706 
Q 2900 1003 2900 1516 
L 2900 3500 
L 3475 3500 
L 3475 0 
L 2900 0 
L 2900 538 
Q 2691 219 2414 64 
Q 2138 -91 1772 -91 
Q 1169 -91 856 284 
Q 544 659 544 1381 
z
M 1991 3584 
L 1991 3584 
z
" transform="scale(0.015625)"/>
      </defs>
      <use xlink:href="#DejaVuSans-4d"/>
      <use xlink:href="#DejaVuSans-65" x="86.279297"/>
      <use xlink:href="#DejaVuSans-61" x="147.802734"/>
      <use xlink:href="#DejaVuSans-73" x="209.082031"/>
      <use xlink:href="#DejaVuSans-75" x="261.181641"/>
      <use xlink:href="#DejaVuSans-72" x="324.560547"/>
      <use xlink:href="#DejaVuSans-65" x="363.423828"/>
      <use xlink:href="#DejaVuSans-64" x="424.947266"/>
     </g>
    </g>
    <g id="line2d_17">
     <path d="M 81 70.976562 
L 91 70.976562 
L 101 70.976562 
" style="fill: none; stroke: #ff7f0e; stroke-width: 1.5; stroke-linecap: square"/>
    </g>
    <g id="text_15">
     <!-- Fitted -->
     <g transform="translate(109 74.476562) scale(0.1 -0.1)">
      <defs>
       <path id="DejaVuSans-46" d="M 628 4666 
L 3309 4666 
L 3309 4134 
L 1259 4134 
L 1259 2759 
L 3109 2759 
L 3109 2228 
L 1259 2228 
L 1259 0 
L 628 0 
L 628 4666 
z
" transform="scale(0.015625)"/>
       <path id="DejaVuSans-74" d="M 1172 4494 
L 1172 3500 
L 2356 3500 
L 2356 3053 
L 1172 3053 
L 1172 1153 
Q 1172 725 1289 603 
Q 1406 481 1766 481 
L 2356 481 
L 2356 0 
L 1766 0 
Q 1100 0 847 248 
Q 594 497 594 1153 
L 594 3053 
L 172 3053 
L 172 3500 
L 594 3500 
L 594 4494 
L 1172 4494 
z
" transform="scale(0.015625)"/>
      </defs>
      <use xlink:href="#DejaVuSans-46"/>
      <use xlink:href="#DejaVuSans-69" x="50.269531"/>
      <use xlink:href="#DejaVuSans-74" x="78.052734"/>
      <use xlink:href="#DejaVuSans-74" x="117.261719"/>
      <use xlink:href="#DejaVuSans-65" x="156.470703"/>
      <use xlink:href="#DejaVuSans-64" x="217.994141"/>
     </g>
    </g>
    <g id="line2d_18">
     <path d="M 81 85.654687 
L 91 85.654687 
L 101 85.654687 
" style="fill: none; stroke: #2ca02c; stroke-width: 1.5; stroke-linecap: square"/>
    </g>
    <g id="text_16">
     <!-- Estimated -->
     <g transform="translate(109 89.154687) scale(0.1 -0.1)">
      <defs>
       <path id="DejaVuSans-45" d="M 628 4666 
L 3578 4666 
L 3578 4134 
L 1259 4134 
L 1259 2753 
L 3481 2753 
L 3481 2222 
L 1259 2222 
L 1259 531 
L 3634 531 
L 3634 0 
L 628 0 
L 628 4666 
z
" transform="scale(0.015625)"/>
      </defs>
      <use xlink:href="#DejaVuSans-45"/>
      <use xlink:href="#DejaVuSans-73" x="63.183594"/>
      <use xlink:href="#DejaVuSans-74" x="115.283203"/>
      <use xlink:href="#DejaVuSans-69" x="154.492188"/>
      <use xlink:href="#DejaVuSans-6d" x="182.275391"/>
      <use xlink:href="#DejaVuSans-61" x="279.6875"/>
      <use xlink:href="#DejaVuSans-74" x="340.966797"/>
      <use xlink:href="#DejaVuSans-65" x="380.175781"/>
      <use xlink:href="#DejaVuSans-64" x="441.699219"/>
     </g>
    </g>
   </g>
  </g>
 </g>
 <defs>
  <clipPath id="pa6b41c889b">
   <rect x="72" y="43.2" width="446.4" height="277.2"/>
  </clipPath>
 </defs>
</svg>
