<?xml version="1.0" encoding="utf-8" standalone="no"?>
<!DOCTYPE svg PUBLIC "-//W3C//DTD SVG 1.1//EN"
  "http://www.w3.org/Graphics/SVG/1.1/DTD/svg11.dtd">
<svg xmlns:xlink="http://www.w3.org/1999/xlink" width="576pt" height="360pt" viewBox="0 0 576 360" xmlns="http://www.w3.org/2000/svg" version="1.1">
 <metadata>
  <rdf:RDF xmlns:dc="http://purl.org/dc/elements/1.1/" xmlns:cc="http://creativecommons.org/ns#" xmlns:rdf="http://www.w3.org/1999/02/22-rdf-syntax-ns#">
   <cc:Work>
    <dc:type rdf:resource="http://purl.org/dc/dcmitype/StillImage"/>
    <dc:date>2023-11-26T18:21:24.098380</dc:date>
    <dc:format>image/svg+xml</dc:format>
    <dc:creator>
     <cc:Agent>
      <dc:title>Matplotlib v3.8.1, https://matplotlib.org/</dc:title>
     </cc:Agent>
    </dc:creator>
   </cc:Work>
  </rdf:RDF>
 </metadata>
 <defs>
  <style type="text/css">*{stroke-linejoin: round; stroke-linecap: butt}</style>
 </defs>
 <g id="figure_1">
  <g id="patch_1">
   <path d="M 0 360 
L 576 360 
L 576 0 
L 0 0 
z
" style="fill: #ffffff"/>
  </g>
  <g id="axes_1">
   <g id="patch_2">
    <path d="M 72 320.4 
L 518.4 320.4 
L 518.4 43.2 
L 72 43.2 
z
" style="fill: #ffffff"/>
   </g>
   <g id="matplotlib.axis_1">
    <g id="xtick_1">
     <g id="line2d_1">
      <defs>
       <path id="m2d326b94b7" d="M 0 0 
L 0 3.5 
" style="stroke: #000000; stroke-width: 0.8"/>
      </defs>
      <g>
       <use xlink:href="#m2d326b94b7" x="129.874161" y="320.4" style="stroke: #000000; stroke-width: 0.8"/>
      </g>
     </g>
     <g id="text_1">
      <!-- 2020-05-15 -->
      <g transform="translate(100.816349 334.998438) scale(0.1 -0.1)">
       <defs>
        <path id="DejaVuSans-32" d="M 1228 531 
L 3431 531 
L 3431 0 
L 469 0 
L 469 531 
Q 828 903 1448 1529 
Q 2069 2156 2228 2338 
Q 2531 2678 2651 2914 
Q 2772 3150 2772 3378 
Q 2772 3750 2511 3984 
Q 2250 4219 1831 4219 
Q 1534 4219 1204 4116 
Q 875 4013 500 3803 
L 500 4441 
Q 881 4594 1212 4672 
Q 1544 4750 1819 4750 
Q 2544 4750 2975 4387 
Q 3406 4025 3406 3419 
Q 3406 3131 3298 2873 
Q 3191 2616 2906 2266 
Q 2828 2175 2409 1742 
Q 1991 1309 1228 531 
z
" transform="scale(0.015625)"/>
        <path id="DejaVuSans-30" d="M 2034 4250 
Q 1547 4250 1301 3770 
Q 1056 3291 1056 2328 
Q 1056 1369 1301 889 
Q 1547 409 2034 409 
Q 2525 409 2770 889 
Q 3016 1369 3016 2328 
Q 3016 3291 2770 3770 
Q 2525 4250 2034 4250 
z
M 2034 4750 
Q 2819 4750 3233 4129 
Q 3647 3509 3647 2328 
Q 3647 1150 3233 529 
Q 2819 -91 2034 -91 
Q 1250 -91 836 529 
Q 422 1150 422 2328 
Q 422 3509 836 4129 
Q 1250 4750 2034 4750 
z
" transform="scale(0.015625)"/>
        <path id="DejaVuSans-2d" d="M 313 2009 
L 1997 2009 
L 1997 1497 
L 313 1497 
L 313 2009 
z
" transform="scale(0.015625)"/>
        <path id="DejaVuSans-35" d="M 691 4666 
L 3169 4666 
L 3169 4134 
L 1269 4134 
L 1269 2991 
Q 1406 3038 1543 3061 
Q 1681 3084 1819 3084 
Q 2600 3084 3056 2656 
Q 3513 2228 3513 1497 
Q 3513 744 3044 326 
Q 2575 -91 1722 -91 
Q 1428 -91 1123 -41 
Q 819 9 494 109 
L 494 744 
Q 775 591 1075 516 
Q 1375 441 1709 441 
Q 2250 441 2565 725 
Q 2881 1009 2881 1497 
Q 2881 1984 2565 2268 
Q 2250 2553 1709 2553 
Q 1456 2553 1204 2497 
Q 953 2441 691 2322 
L 691 4666 
z
" transform="scale(0.015625)"/>
        <path id="DejaVuSans-31" d="M 794 531 
L 1825 531 
L 1825 4091 
L 703 3866 
L 703 4441 
L 1819 4666 
L 2450 4666 
L 2450 531 
L 3481 531 
L 3481 0 
L 794 0 
L 794 531 
z
" transform="scale(0.015625)"/>
       </defs>
       <use xlink:href="#DejaVuSans-32"/>
       <use xlink:href="#DejaVuSans-30" x="63.623047"/>
       <use xlink:href="#DejaVuSans-32" x="127.246094"/>
       <use xlink:href="#DejaVuSans-30" x="190.869141"/>
       <use xlink:href="#DejaVuSans-2d" x="254.492188"/>
       <use xlink:href="#DejaVuSans-30" x="290.576172"/>
       <use xlink:href="#DejaVuSans-35" x="354.199219"/>
       <use xlink:href="#DejaVuSans-2d" x="417.822266"/>
       <use xlink:href="#DejaVuSans-31" x="453.90625"/>
       <use xlink:href="#DejaVuSans-35" x="517.529297"/>
      </g>
     </g>
    </g>
    <g id="xtick_2">
     <g id="line2d_2">
      <g>
       <use xlink:href="#m2d326b94b7" x="212.435902" y="320.4" style="stroke: #000000; stroke-width: 0.8"/>
      </g>
     </g>
     <g id="text_2">
      <!-- 2020-06-01 -->
      <g transform="translate(183.37809 334.998438) scale(0.1 -0.1)">
       <defs>
        <path id="DejaVuSans-36" d="M 2113 2584 
Q 1688 2584 1439 2293 
Q 1191 2003 1191 1497 
Q 1191 994 1439 701 
Q 1688 409 2113 409 
Q 2538 409 2786 701 
Q 3034 994 3034 1497 
Q 3034 2003 2786 2293 
Q 2538 2584 2113 2584 
z
M 3366 4563 
L 3366 3988 
Q 3128 4100 2886 4159 
Q 2644 4219 2406 4219 
Q 1781 4219 1451 3797 
Q 1122 3375 1075 2522 
Q 1259 2794 1537 2939 
Q 1816 3084 2150 3084 
Q 2853 3084 3261 2657 
Q 3669 2231 3669 1497 
Q 3669 778 3244 343 
Q 2819 -91 2113 -91 
Q 1303 -91 875 529 
Q 447 1150 447 2328 
Q 447 3434 972 4092 
Q 1497 4750 2381 4750 
Q 2619 4750 2861 4703 
Q 3103 4656 3366 4563 
z
" transform="scale(0.015625)"/>
       </defs>
       <use xlink:href="#DejaVuSans-32"/>
       <use xlink:href="#DejaVuSans-30" x="63.623047"/>
       <use xlink:href="#DejaVuSans-32" x="127.246094"/>
       <use xlink:href="#DejaVuSans-30" x="190.869141"/>
       <use xlink:href="#DejaVuSans-2d" x="254.492188"/>
       <use xlink:href="#DejaVuSans-30" x="290.576172"/>
       <use xlink:href="#DejaVuSans-36" x="354.199219"/>
       <use xlink:href="#DejaVuSans-2d" x="417.822266"/>
       <use xlink:href="#DejaVuSans-30" x="453.90625"/>
       <use xlink:href="#DejaVuSans-31" x="517.529297"/>
      </g>
     </g>
    </g>
    <g id="xtick_3">
     <g id="line2d_3">
      <g>
       <use xlink:href="#m2d326b94b7" x="280.427924" y="320.4" style="stroke: #000000; stroke-width: 0.8"/>
      </g>
     </g>
     <g id="text_3">
      <!-- 2020-06-15 -->
      <g transform="translate(251.370111 334.998438) scale(0.1 -0.1)">
       <use xlink:href="#DejaVuSans-32"/>
       <use xlink:href="#DejaVuSans-30" x="63.623047"/>
       <use xlink:href="#DejaVuSans-32" x="127.246094"/>
       <use xlink:href="#DejaVuSans-30" x="190.869141"/>
       <use xlink:href="#DejaVuSans-2d" x="254.492188"/>
       <use xlink:href="#DejaVuSans-30" x="290.576172"/>
       <use xlink:href="#DejaVuSans-36" x="354.199219"/>
       <use xlink:href="#DejaVuSans-2d" x="417.822266"/>
       <use xlink:href="#DejaVuSans-31" x="453.90625"/>
       <use xlink:href="#DejaVuSans-35" x="517.529297"/>
      </g>
     </g>
    </g>
    <g id="xtick_4">
     <g id="line2d_4">
      <g>
       <use xlink:href="#m2d326b94b7" x="358.133092" y="320.4" style="stroke: #000000; stroke-width: 0.8"/>
      </g>
     </g>
     <g id="text_4">
      <!-- 2020-07-01 -->
      <g transform="translate(329.075279 334.998438) scale(0.1 -0.1)">
       <defs>
        <path id="DejaVuSans-37" d="M 525 4666 
L 3525 4666 
L 3525 4397 
L 1831 0 
L 1172 0 
L 2766 4134 
L 525 4134 
L 525 4666 
z
" transform="scale(0.015625)"/>
       </defs>
       <use xlink:href="#DejaVuSans-32"/>
       <use xlink:href="#DejaVuSans-30" x="63.623047"/>
       <use xlink:href="#DejaVuSans-32" x="127.246094"/>
       <use xlink:href="#DejaVuSans-30" x="190.869141"/>
       <use xlink:href="#DejaVuSans-2d" x="254.492188"/>
       <use xlink:href="#DejaVuSans-30" x="290.576172"/>
       <use xlink:href="#DejaVuSans-37" x="354.199219"/>
       <use xlink:href="#DejaVuSans-2d" x="417.822266"/>
       <use xlink:href="#DejaVuSans-30" x="453.90625"/>
       <use xlink:href="#DejaVuSans-31" x="517.529297"/>
      </g>
     </g>
    </g>
    <g id="xtick_5">
     <g id="line2d_5">
      <g>
       <use xlink:href="#m2d326b94b7" x="426.125113" y="320.4" style="stroke: #000000; stroke-width: 0.8"/>
      </g>
     </g>
     <g id="text_5">
      <!-- 2020-07-15 -->
      <g transform="translate(397.067301 334.998438) scale(0.1 -0.1)">
       <use xlink:href="#DejaVuSans-32"/>
       <use xlink:href="#DejaVuSans-30" x="63.623047"/>
       <use xlink:href="#DejaVuSans-32" x="127.246094"/>
       <use xlink:href="#DejaVuSans-30" x="190.869141"/>
       <use xlink:href="#DejaVuSans-2d" x="254.492188"/>
       <use xlink:href="#DejaVuSans-30" x="290.576172"/>
       <use xlink:href="#DejaVuSans-37" x="354.199219"/>
       <use xlink:href="#DejaVuSans-2d" x="417.822266"/>
       <use xlink:href="#DejaVuSans-31" x="453.90625"/>
       <use xlink:href="#DejaVuSans-35" x="517.529297"/>
      </g>
     </g>
    </g>
    <g id="xtick_6">
     <g id="line2d_6">
      <g>
       <use xlink:href="#m2d326b94b7" x="508.686854" y="320.4" style="stroke: #000000; stroke-width: 0.8"/>
      </g>
     </g>
     <g id="text_6">
      <!-- 2020-08-01 -->
      <g transform="translate(479.629042 334.998438) scale(0.1 -0.1)">
       <defs>
        <path id="DejaVuSans-38" d="M 2034 2216 
Q 1584 2216 1326 1975 
Q 1069 1734 1069 1313 
Q 1069 891 1326 650 
Q 1584 409 2034 409 
Q 2484 409 2743 651 
Q 3003 894 3003 1313 
Q 3003 1734 2745 1975 
Q 2488 2216 2034 2216 
z
M 1403 2484 
Q 997 2584 770 2862 
Q 544 3141 544 3541 
Q 544 4100 942 4425 
Q 1341 4750 2034 4750 
Q 2731 4750 3128 4425 
Q 3525 4100 3525 3541 
Q 3525 3141 3298 2862 
Q 3072 2584 2669 2484 
Q 3125 2378 3379 2068 
Q 3634 1759 3634 1313 
Q 3634 634 3220 271 
Q 2806 -91 2034 -91 
Q 1263 -91 848 271 
Q 434 634 434 1313 
Q 434 1759 690 2068 
Q 947 2378 1403 2484 
z
M 1172 3481 
Q 1172 3119 1398 2916 
Q 1625 2713 2034 2713 
Q 2441 2713 2670 2916 
Q 2900 3119 2900 3481 
Q 2900 3844 2670 4047 
Q 2441 4250 2034 4250 
Q 1625 4250 1398 4047 
Q 1172 3844 1172 3481 
z
" transform="scale(0.015625)"/>
       </defs>
       <use xlink:href="#DejaVuSans-32"/>
       <use xlink:href="#DejaVuSans-30" x="63.623047"/>
       <use xlink:href="#DejaVuSans-32" x="127.246094"/>
       <use xlink:href="#DejaVuSans-30" x="190.869141"/>
       <use xlink:href="#DejaVuSans-2d" x="254.492188"/>
       <use xlink:href="#DejaVuSans-30" x="290.576172"/>
       <use xlink:href="#DejaVuSans-38" x="354.199219"/>
       <use xlink:href="#DejaVuSans-2d" x="417.822266"/>
       <use xlink:href="#DejaVuSans-30" x="453.90625"/>
       <use xlink:href="#DejaVuSans-31" x="517.529297"/>
      </g>
     </g>
    </g>
   </g>
   <g id="matplotlib.axis_2">
    <g id="ytick_1">
     <g id="line2d_7">
      <defs>
       <path id="m68799f1590" d="M 0 0 
L -3.5 0 
" style="stroke: #000000; stroke-width: 0.8"/>
      </defs>
      <g>
       <use xlink:href="#m68799f1590" x="72" y="277.816922" style="stroke: #000000; stroke-width: 0.8"/>
      </g>
     </g>
     <g id="text_7">
      <!-- −2 -->
      <g transform="translate(50.257812 281.616141) scale(0.1 -0.1)">
       <defs>
        <path id="DejaVuSans-2212" d="M 678 2272 
L 4684 2272 
L 4684 1741 
L 678 1741 
L 678 2272 
z
" transform="scale(0.015625)"/>
       </defs>
       <use xlink:href="#DejaVuSans-2212"/>
       <use xlink:href="#DejaVuSans-32" x="83.789062"/>
      </g>
     </g>
    </g>
    <g id="ytick_2">
     <g id="line2d_8">
      <g>
       <use xlink:href="#m68799f1590" x="72" y="231.956712" style="stroke: #000000; stroke-width: 0.8"/>
      </g>
     </g>
     <g id="text_8">
      <!-- −1 -->
      <g transform="translate(50.257812 235.755931) scale(0.1 -0.1)">
       <use xlink:href="#DejaVuSans-2212"/>
       <use xlink:href="#DejaVuSans-31" x="83.789062"/>
      </g>
     </g>
    </g>
    <g id="ytick_3">
     <g id="line2d_9">
      <g>
       <use xlink:href="#m68799f1590" x="72" y="186.096502" style="stroke: #000000; stroke-width: 0.8"/>
      </g>
     </g>
     <g id="text_9">
      <!-- 0 -->
      <g transform="translate(58.6375 189.895721) scale(0.1 -0.1)">
       <use xlink:href="#DejaVuSans-30"/>
      </g>
     </g>
    </g>
    <g id="ytick_4">
     <g id="line2d_10">
      <g>
       <use xlink:href="#m68799f1590" x="72" y="140.236292" style="stroke: #000000; stroke-width: 0.8"/>
      </g>
     </g>
     <g id="text_10">
      <!-- 1 -->
      <g transform="translate(58.6375 144.035511) scale(0.1 -0.1)">
       <use xlink:href="#DejaVuSans-31"/>
      </g>
     </g>
    </g>
    <g id="ytick_5">
     <g id="line2d_11">
      <g>
       <use xlink:href="#m68799f1590" x="72" y="94.376082" style="stroke: #000000; stroke-width: 0.8"/>
      </g>
     </g>
     <g id="text_11">
      <!-- 2 -->
      <g transform="translate(58.6375 98.175301) scale(0.1 -0.1)">
       <use xlink:href="#DejaVuSans-32"/>
      </g>
     </g>
    </g>
    <g id="ytick_6">
     <g id="line2d_12">
      <g>
       <use xlink:href="#m68799f1590" x="72" y="48.515872" style="stroke: #000000; stroke-width: 0.8"/>
      </g>
     </g>
     <g id="text_12">
      <!-- 3 -->
      <g transform="translate(58.6375 52.315091) scale(0.1 -0.1)">
       <defs>
        <path id="DejaVuSans-33" d="M 2597 2516 
Q 3050 2419 3304 2112 
Q 3559 1806 3559 1356 
Q 3559 666 3084 287 
Q 2609 -91 1734 -91 
Q 1441 -91 1130 -33 
Q 819 25 488 141 
L 488 750 
Q 750 597 1062 519 
Q 1375 441 1716 441 
Q 2309 441 2620 675 
Q 2931 909 2931 1356 
Q 2931 1769 2642 2001 
Q 2353 2234 1838 2234 
L 1294 2234 
L 1294 2753 
L 1863 2753 
Q 2328 2753 2575 2939 
Q 2822 3125 2822 3475 
Q 2822 3834 2567 4026 
Q 2313 4219 1838 4219 
Q 1578 4219 1281 4162 
Q 984 4106 628 3988 
L 628 4550 
Q 988 4650 1302 4700 
Q 1616 4750 1894 4750 
Q 2613 4750 3031 4423 
Q 3450 4097 3450 3541 
Q 3450 3153 3228 2886 
Q 3006 2619 2597 2516 
z
" transform="scale(0.015625)"/>
       </defs>
       <use xlink:href="#DejaVuSans-33"/>
      </g>
     </g>
    </g>
   </g>
   <g id="line2d_13">
    <path d="M 72 253.073352 
L 72.404714 262.792137 
L 72.607072 261.316322 
L 72.809429 252.173464 
L 73.214143 225.680774 
L 73.618858 215.026105 
L 75.035358 143.934988 
L 75.237715 141.397305 
L 75.440073 145.734763 
L 75.64243 152.771884 
L 75.844787 155.597531 
L 76.047144 168.663898 
L 76.654216 228.884374 
L 77.05893 249.509797 
L 77.261287 253.253329 
L 77.463645 252.92937 
L 77.666002 243.750516 
L 78.070716 219.327568 
L 78.475431 208.636904 
L 78.677788 200.807882 
L 79.487217 151.961985 
L 79.891931 138.013728 
L 80.094288 139.687519 
L 80.903717 176.042976 
L 81.713146 240.618908 
L 82.11786 253.181338 
L 82.320218 254.92712 
L 82.522575 254.675151 
L 82.724932 252.515421 
L 82.927289 246.666152 
L 83.332004 226.958614 
L 83.736718 214.684148 
L 83.939075 212.074474 
L 84.141432 212.308445 
L 84.546147 217.797759 
L 84.748504 219.597534 
L 84.950861 219.615532 
L 85.355576 223.215082 
L 85.557933 220.35344 
L 85.76029 225.608783 
L 86.569719 264.159966 
L 86.772076 269.379314 
L 86.974433 270.747143 
L 87.176791 270.801137 
L 87.379148 269.64928 
L 87.581505 266.445681 
L 87.783862 260.650405 
L 88.188577 241.734768 
L 88.390934 237.289324 
L 89.200363 230.360189 
L 89.40272 226.814632 
L 89.807434 214.126218 
L 90.212149 212.020481 
L 90.414506 209.698771 
L 90.616863 216.519919 
L 91.223935 259.912497 
L 91.628649 269.379314 
L 91.831006 269.433307 
L 92.033364 267.291575 
L 92.842792 227.696522 
L 93.04515 225.860752 
L 93.449864 218.481674 
L 93.652221 218.03173 
L 93.854578 215.512045 
L 94.056936 214.972112 
L 94.259293 212.722393 
L 94.46165 207.233079 
L 94.664007 204.785385 
L 94.866364 205.577286 
L 95.068722 208.276949 
L 95.271079 204.98336 
L 95.473436 213.658276 
L 96.080508 260.236457 
L 96.485222 268.137469 
L 96.687579 269.775265 
L 96.889937 266.04973 
L 97.699365 227.066601 
L 98.306437 218.049728 
L 98.508794 217.725768 
L 99.52058 199.512044 
L 99.722937 200.591909 
L 99.925295 204.335441 
L 100.127652 202.769637 
L 100.330009 211.480548 
L 100.937081 258.112722 
L 101.341795 268.641406 
L 101.544152 269.487301 
L 101.74651 266.301699 
L 101.948867 256.042981 
L 102.353581 230.270201 
L 102.555938 228.938367 
L 103.567724 213.676274 
L 104.377153 194.706644 
L 104.57951 195.804507 
L 104.781868 200.429929 
L 104.984225 200.411931 
L 105.186582 208.042978 
L 105.793654 255.413059 
L 106.198368 266.355692 
L 106.400725 267.867503 
L 106.603083 264.411935 
L 107.412511 224.99686 
L 107.614869 223.521044 
L 107.817226 220.371438 
L 108.22194 207.898996 
L 108.626655 189.271323 
L 108.829012 184.17796 
L 109.031369 182.558162 
L 109.638441 190.009231 
L 109.840798 194.670649 
L 110.043155 203.597533 
L 110.650227 250.84163 
L 111.054941 263.080101 
L 111.257298 264.717897 
L 111.459655 263.224083 
L 111.662013 253.433307 
L 112.066727 228.326444 
L 112.471442 215.458051 
L 113.887942 156.749387 
L 114.090299 154.715641 
L 114.292656 160.56491 
L 114.495014 170.373685 
L 114.697371 174.315192 
L 115.102085 203.507545 
L 115.709157 245.874251 
L 116.113871 257.842756 
L 116.316228 257.986738 
L 116.518586 256.564915 
L 116.720943 253.451304 
L 117.125657 230.072225 
L 118.542158 140.245449 
L 118.744515 131.570533 
L 118.946872 128.240949 
L 119.149229 131.390555 
L 119.756301 163.894494 
L 120.56573 231.997985 
L 120.970444 249.00586 
L 121.172801 252.515421 
L 121.375159 253.919246 
L 121.577516 252.677401 
L 121.779873 245.874251 
L 122.589302 202.10372 
L 123.196374 180.25445 
L 123.398731 176.33094 
L 123.601088 176.510918 
L 123.803445 176.024978 
L 124.410517 187.525541 
L 124.612874 196.938365 
L 125.219946 245.24433 
L 125.62466 257.716771 
L 125.827017 259.426558 
L 126.029374 257.24883 
L 127.04116 208.852877 
L 127.648232 176.744888 
L 128.255304 140.371433 
L 128.457661 133.892243 
L 128.660018 133.604279 
L 129.26709 171.651525 
L 130.278876 249.617783 
L 130.481233 256.330945 
L 130.68359 257.518796 
L 130.885947 255.305073 
L 132.504805 161.824753 
L 133.111877 125.199329 
L 133.314234 117.118339 
L 133.516591 118.576156 
L 133.921306 131.768508 
L 134.123663 138.139712 
L 135.135449 232.447929 
L 135.540163 243.282575 
L 135.74252 242.472676 
L 135.944878 233.383812 
L 136.349592 206.42318 
L 136.551949 200.609907 
L 136.754306 190.423179 
L 136.956664 194.346689 
L 137.159021 184.645901 
L 137.766092 177.068848 
L 137.96845 177.410805 
L 138.373164 172.767385 
L 138.777879 179.246576 
L 138.980236 179.966486 
L 139.182593 190.09922 
L 139.789665 238.711146 
L 140.194379 251.903498 
L 140.396736 253.685275 
L 140.599093 251.093599 
L 141.003808 225.158839 
L 141.408522 206.981111 
L 142.015594 195.480548 
L 142.622665 187.633528 
L 142.825023 187.399557 
L 143.02738 186.355688 
L 143.229737 186.949613 
L 143.634451 191.485047 
L 143.836809 190.423179 
L 144.039166 199.170087 
L 144.646238 241.536793 
L 145.050952 251.921495 
L 145.253309 253.037356 
L 145.455666 250.337693 
L 145.860381 224.870875 
L 146.062738 210.742641 
L 146.66981 196.596408 
L 146.872167 194.292696 
L 147.074524 193.356813 
L 147.479238 183.818005 
L 147.681596 191.089096 
L 147.883953 191.934991 
L 148.08631 194.184709 
L 148.491024 202.193709 
L 148.693382 201.023855 
L 149.098096 221.343316 
L 149.502811 245.550292 
L 149.907525 256.834882 
L 150.109882 258.616659 
L 150.312239 258.112722 
L 150.514597 255.665028 
L 150.716954 250.715646 
L 151.121668 232.609908 
L 151.526383 214.82813 
L 151.931097 209.78876 
L 152.133454 209.410807 
L 152.335811 211.120593 
L 152.538169 211.570537 
L 152.740526 209.78876 
L 152.942883 210.040728 
L 153.14524 209.194834 
L 153.347597 209.23083 
L 153.549955 206.693147 
L 153.752312 208.600908 
L 154.764098 253.271327 
L 154.966455 256.708897 
L 155.168812 257.914747 
L 155.573527 254.495174 
L 155.775884 244.884375 
L 156.78767 177.230828 
L 157.799456 140.227451 
L 158.001813 141.973233 
L 158.406528 153.437801 
L 158.608885 165.20833 
L 159.215956 224.798884 
L 159.620671 243.552541 
L 159.823028 246.342193 
L 160.025385 245.550292 
L 160.227743 237.037355 
L 160.632457 208.852877 
L 161.8466 165.172334 
L 162.251315 156.443425 
L 162.453672 156.569409 
L 162.656029 159.053099 
L 163.465458 186.679647 
L 164.072529 238.657153 
L 164.477244 254.819133 
L 164.679601 255.107097 
L 164.881958 252.299448 
L 165.084316 243.48055 
L 165.48903 215.889997 
L 166.500816 185.419805 
L 167.310245 148.146462 
L 167.512602 151.062097 
L 167.917316 168.933864 
L 168.119674 172.803381 
L 168.322031 182.666149 
L 168.929102 234.265702 
L 169.333817 247.458053 
L 169.536174 250.517671 
L 169.738531 247.332069 
L 170.143246 223.629031 
L 170.54796 197.29832 
L 171.357389 158.585157 
L 171.559746 153.347812 
L 172.166818 132.326438 
L 172.369175 133.730263 
L 172.571532 140.605404 
L 173.178604 174.459174 
L 173.785675 236.209459 
L 174.19039 253.055354 
L 174.392747 255.64703 
L 174.595104 254.063228 
L 174.999819 233.041854 
L 175.404533 211.318569 
L 177.023391 143.341062 
L 177.225748 143.791006 
L 177.428105 147.192581 
L 177.630462 161.60878 
L 177.83282 163.732514 
L 178.237534 202.067725 
L 178.642248 239.359065 
L 179.046963 256.042981 
L 179.24932 259.282576 
L 179.451677 257.08685 
L 179.654034 249.527795 
L 180.261106 214.882123 
L 181.879964 130.580656 
L 182.082321 127.737012 
L 182.284678 132.668396 
L 183.094107 181.658275 
L 183.498821 215.584036 
L 183.903536 234.247704 
L 184.30825 241.068851 
L 184.510607 242.256703 
L 184.712965 239.089099 
L 184.915322 227.444554 
L 185.724751 156.08347 
L 186.129465 137.473795 
L 186.331822 132.200454 
L 186.53418 131.534537 
L 186.736537 133.748261 
L 187.748323 168.951862 
L 188.557752 224.83488 
L 188.962466 237.181337 
L 189.164823 238.963115 
L 189.36718 239.035106 
L 189.569538 238.387187 
L 189.771895 228.99236 
L 190.986038 145.392806 
L 191.188395 140.767384 
L 191.390752 140.731388 
L 191.795467 148.704392 
L 192.604896 175.988983 
L 193.414325 231.188086 
L 193.819039 243.138593 
L 194.021396 244.074476 
L 194.426111 240.618908 
L 194.628468 232.807884 
L 195.437897 179.69652 
L 195.640254 175.323066 
L 195.842611 176.384933 
L 196.247325 181.676272 
L 196.449683 182.180209 
L 196.65204 181.838252 
L 197.056754 189.001357 
L 197.259112 189.739265 
L 197.461469 197.082347 
L 198.06854 239.269076 
L 198.473255 251.651529 
L 198.675612 251.741518 
L 198.877969 248.555916 
L 199.282684 221.685273 
L 199.687398 201.761763 
L 201.306256 143.791006 
L 201.508613 142.783132 
L 202.115684 159.539038 
L 202.318042 169.275822 
L 202.925113 225.212833 
L 203.329828 240.618908 
L 203.532185 242.454678 
L 203.734542 239.845004 
L 203.936899 229.784261 
L 204.341614 200.10597 
L 205.758114 152.375933 
L 205.960471 150.198205 
L 206.162829 150.32419 
L 206.365186 151.566034 
L 206.7699 161.914741 
L 206.972257 164.704393 
L 207.174615 174.17121 
L 207.781686 225.734767 
L 208.186401 239.845004 
L 208.388758 242.508672 
L 208.591115 239.593036 
L 208.793472 229.226331 
L 209.198187 199.710019 
L 209.805258 180.25445 
L 210.209973 162.88662 
L 210.817044 126.477169 
L 211.019402 119.062096 
L 211.221759 121.653772 
L 211.626473 143.0351 
L 211.82883 147.588531 
L 212.031188 160.456924 
L 212.638259 217.275824 
L 213.042974 233.509796 
L 213.245331 237.00136 
L 213.447688 235.507546 
L 213.650045 226.148716 
L 214.257117 188.353438 
L 214.661831 165.334314 
L 215.47126 113.482793 
L 215.875975 98.868619 
L 216.078332 98.45467 
L 216.280689 103.296066 
L 217.090118 159.017103 
L 217.697189 213.118344 
L 218.101904 229.244329 
L 218.304261 232.177962 
L 218.506618 233.365814 
L 218.708976 232.267951 
L 218.911333 221.145341 
L 219.518404 173.271322 
L 220.125476 142.513166 
L 220.327833 140.623402 
L 220.53019 142.567159 
L 221.541976 179.53454 
L 221.744334 184.033978 
L 222.553762 233.743767 
L 222.958477 243.246579 
L 223.160834 244.740393 
L 223.363191 245.046355 
L 223.565549 243.678525 
L 223.767906 236.065477 
L 224.374977 202.679648 
L 224.779692 196.056476 
L 225.386763 197.856251 
L 225.589121 200.933866 
L 225.791478 201.707769 
L 226.196192 209.032854 
L 226.398549 208.726892 
L 226.600907 214.342191 
L 227.410335 261.190337 
L 227.612693 264.717897 
L 227.81505 266.193712 
L 228.017407 263.404061 
L 228.826836 226.184711 
L 229.029193 224.150965 
L 229.23155 219.129593 
L 230.648051 163.714517 
L 230.850408 164.218454 
L 231.255122 176.816879 
L 231.45748 186.33769 
L 232.064551 241.986737 
L 232.469266 256.996861 
L 232.671623 259.372565 
L 232.87398 258.310697 
L 233.278694 236.209459 
L 233.683409 216.519919 
L 235.302267 160.078971 
L 235.504624 159.557036 
L 236.111695 176.258949 
L 236.314053 185.311818 
L 236.921124 239.611034 
L 237.325839 253.4873 
L 237.528196 256.222958 
L 237.730553 254.36919 
L 238.135267 233.437805 
L 238.539982 214.396184 
L 239.349411 187.363562 
L 239.754125 178.616655 
L 240.15884 169.68977 
L 240.361197 169.473797 
L 240.563554 174.243201 
L 240.968268 189.631278 
L 241.170626 196.254451 
L 241.777697 244.794386 
L 242.182412 258.652654 
L 242.384769 260.830382 
L 242.587126 258.220708 
L 242.99184 236.623407 
L 243.396555 220.929368 
L 245.21777 155.687519 
L 245.420127 159.395056 
L 246.027199 182.810131 
L 246.836627 247.026107 
L 247.038985 254.333194 
L 247.241342 257.104848 
L 247.443699 254.891124 
L 247.848413 234.301697 
L 249.467271 136.429926 
L 249.669628 129.374807 
L 249.871985 127.683019 
L 250.074343 127.827001 
L 250.2767 133.892243 
L 250.883772 161.950737 
L 251.6932 227.462552 
L 252.097915 240.150966 
L 252.300272 242.832631 
L 252.502629 243.066602 
L 252.704986 239.683025 
L 253.109701 211.0666 
L 253.91913 147.102592 
L 254.323844 133.298317 
L 254.728558 125.595279 
L 254.930916 124.497417 
L 255.133273 131.048598 
L 255.740345 163.786508 
L 256.549773 229.496297 
L 256.954488 243.012609 
L 257.156845 246.342193 
L 257.359202 247.80001 
L 257.561559 246.954116 
L 257.966274 221.721269 
L 258.573345 177.698769 
L 258.97806 158.765135 
L 259.382774 149.136338 
L 259.585131 146.130714 
L 259.787489 145.752761 
L 259.989846 148.038475 
L 260.39456 162.00473 
L 260.596917 173.667273 
L 261.203989 227.822507 
L 261.608704 244.164465 
L 261.811061 246.720145 
L 262.013418 246.036231 
L 262.418132 225.104846 
L 262.62049 214.612157 
L 263.025204 206.171212 
L 263.227561 203.723518 
L 263.429918 202.841628 
L 263.834633 203.957488 
L 264.03699 203.687522 
L 264.239347 204.515419 
L 264.441704 204.58741 
L 264.644062 204.353439 
L 264.846419 206.135216 
L 265.048776 209.662776 
L 265.251133 209.662776 
L 265.45349 213.172337 
L 266.060562 250.265702 
L 266.465277 261.478301 
L 266.667634 262.828133 
L 266.869991 259.174589 
L 267.072348 252.227457 
L 267.477063 229.082349 
L 268.084134 209.716769 
L 268.488849 200.735891 
L 269.09592 190.909119 
L 269.500635 187.45355 
L 269.702992 189.361312 
L 269.905349 192.510919 
L 270.107706 193.104844 
L 270.310063 198.612156 
L 270.917135 241.284824 
L 271.32185 251.741518 
L 271.524207 253.613284 
L 271.726564 252.119471 
L 274.15485 128.456922 
L 274.357208 122.193704 
L 274.559565 125.10934 
L 275.166636 147.084594 
L 275.976065 218.337692 
L 276.38078 229.31632 
L 276.583137 228.704396 
L 276.987851 209.62678 
L 277.392566 184.375935 
L 278.404352 134.630151 
L 278.606709 131.966483 
L 279.011423 120.411927 
L 279.213781 119.008102 
L 279.416138 122.733637 
L 280.023209 159.179083 
L 280.630281 221.505296 
L 281.034995 241.410809 
L 281.237353 245.676276 
L 281.43971 244.326444 
L 281.642067 239.179088 
L 282.249139 202.697646 
L 282.85621 173.307318 
L 283.867996 135.925989 
L 284.070354 134.882119 
L 284.272711 142.009229 
L 285.284497 214.594159 
L 285.689211 242.706647 
L 286.093926 255.593037 
L 286.296283 257.590787 
L 286.49864 256.006985 
L 286.700997 253.433307 
L 287.105712 226.328693 
L 287.712783 181.280322 
L 288.522212 143.323064 
L 288.724569 137.095842 
L 288.926927 135.404054 
L 289.129284 138.535663 
L 289.736355 168.08797 
L 290.545784 229.334318 
L 290.950499 242.688649 
L 291.152856 245.118346 
L 291.355213 245.190337 
L 291.55757 243.894498 
L 291.759927 232.987861 
L 292.771714 146.742637 
L 293.176428 127.521039 
L 293.581142 117.694267 
L 293.7835 116.182455 
L 293.985857 119.260071 
L 294.592928 141.577283 
L 295.402357 214.378186 
L 295.807072 227.228581 
L 296.009429 227.084599 
L 296.414143 209.338816 
L 297.830644 91.201577 
L 298.235358 79.557032 
L 298.437715 77.289315 
L 298.640073 77.523286 
L 298.84243 79.323061 
L 299.044787 86.360182 
L 299.449501 109.973231 
L 300.056573 179.138589 
L 300.461287 201.239828 
L 300.663645 206.513169 
L 300.866002 207.14309 
L 301.068359 201.167837 
L 301.473073 174.855125 
L 302.484859 82.652645 
L 302.687217 72.735884 
L 302.889574 72.825873 
L 303.091931 79.916987 
L 303.496646 87.49404 
L 303.90136 106.985605 
L 304.306074 131.462546 
L 304.913146 192.09697 
L 305.31786 214.306195 
L 305.520218 219.183586 
L 305.722575 217.617782 
L 305.924932 211.372562 
L 306.532004 176.366936 
L 307.54379 115.030599 
L 307.746147 106.085717 
L 307.948504 105.311814 
L 308.757933 133.586281 
L 309.162647 156.425427 
L 309.769719 211.62453 
L 310.174433 229.046354 
L 310.376791 232.897872 
L 310.579148 232.393935 
L 310.983862 211.876499 
L 312.198005 120.717889 
L 312.60272 110.531162 
L 312.805077 106.697641 
L 313.007434 107.18358 
L 313.209791 110.423175 
L 313.816863 134.594155 
L 314.01922 146.580657 
L 314.626292 201.419805 
L 315.031006 219.381561 
L 315.233364 223.39506 
L 315.435721 222.819132 
L 315.840435 206.369187 
L 316.24515 189.973236 
L 316.649864 179.444551 
L 317.054578 166.036226 
L 317.66165 159.44905 
L 317.864007 159.053099 
L 318.066364 158.261198 
L 318.268722 162.364685 
L 318.875793 181.766261 
L 319.685222 233.113845 
L 320.089937 244.308447 
L 320.292294 245.748267 
L 320.697008 238.801135 
L 321.101723 215.818006 
L 322.315866 147.534538 
L 322.72058 138.55366 
L 322.922937 136.519914 
L 323.125295 140.137462 
L 323.732366 164.344438 
L 324.541795 224.402934 
L 324.94651 236.929369 
L 325.148867 239.467052 
L 325.351224 239.521045 
L 325.553581 237.541292 
L 325.755938 226.742641 
L 326.970082 128.240949 
L 327.172439 122.697641 
L 327.374796 121.311815 
L 327.77951 116.434424 
L 327.981868 120.807878 
L 328.184225 128.510915 
L 328.791296 173.77526 
L 329.196011 212.092472 
L 329.398368 225.446803 
L 329.803083 234.301697 
L 330.00544 233.4738 
L 330.207797 228.560414 
L 330.814869 186.049726 
L 331.42194 152.555911 
L 331.826655 132.686393 
L 332.029012 130.14871 
L 332.231369 130.166708 
L 332.433726 130.328688 
L 332.636083 132.164459 
L 332.838441 136.141962 
L 333.243155 156.227452 
L 333.445512 164.128465 
L 334.052584 221.721269 
L 334.457298 240.816883 
L 334.659655 245.568289 
L 334.862013 243.462552 
L 335.266727 226.076725 
L 335.671442 204.731392 
L 336.48087 169.581783 
L 336.683228 165.136339 
L 336.885585 164.16446 
L 337.087942 158.747137 
L 337.290299 157.12734 
L 337.695014 162.796631 
L 338.099728 175.467048 
L 338.302085 180.614405 
L 339.111514 238.297198 
L 339.313871 243.732519 
L 339.516228 245.694274 
L 339.718586 242.130719 
L 340.1233 221.667276 
L 340.932729 182.702144 
L 342.349229 128.582906 
L 342.551587 128.510915 
L 343.158658 150.144212 
L 343.76573 205.14534 
L 344.170444 220.929368 
L 344.372801 225.104846 
L 344.575159 223.23308 
L 344.777516 217.167838 
L 345.18223 190.09922 
L 346.194016 117.676269 
L 346.598731 104.735886 
L 347.003445 98.94061 
L 347.205802 98.202702 
L 347.40816 100.992353 
L 347.610517 107.867494 
L 348.015231 130.742636 
L 348.82466 210.598659 
L 349.229374 225.590785 
L 349.431732 224.924869 
L 349.634089 219.849503 
L 349.836446 210.094722 
L 351.050589 118.576156 
L 351.455304 102.486167 
L 351.860018 94.729136 
L 352.062375 93.937235 
L 352.264733 97.122837 
L 352.46709 106.841623 
L 353.276519 179.660524 
L 353.681233 212.902371 
L 354.085947 230.59416 
L 354.288305 235.219582 
L 354.490662 235.723519 
L 354.693019 233.761764 
L 355.097733 196.920368 
L 355.704805 132.218452 
L 356.109519 110.567157 
L 356.716591 94.621149 
L 356.918948 93.667269 
L 357.121306 97.878742 
L 357.52602 120.339936 
L 357.728377 131.462546 
L 358.740163 215.15209 
L 359.144878 226.526668 
L 359.347235 228.164464 
L 359.549592 227.8765 
L 359.751949 215.602033 
L 360.763735 109.865245 
L 361.16845 93.145334 
L 361.573164 83.40855 
L 361.775521 81.392802 
L 361.977879 84.272442 
L 362.180236 90.409676 
L 362.58495 113.014851 
L 363.394379 190.81913 
L 363.799093 206.297196 
L 364.001451 207.017106 
L 364.203808 201.851751 
L 364.406165 193.032853 
L 365.013237 132.020477 
L 365.620308 75.399551 
L 366.025023 61.217323 
L 366.429737 55.8 
L 366.632094 56.231946 
L 366.834451 58.553656 
L 367.036809 66.2027 
L 367.441523 91.8135 
L 368.048595 161.680771 
L 368.453309 188.461425 
L 368.655666 195.948489 
L 368.858024 198.036228 
L 369.060381 194.616655 
L 369.262738 185.959737 
L 369.86981 130.202704 
L 370.476881 79.143083 
L 370.881596 64.546907 
L 371.083953 64.150957 
L 371.28631 64.780878 
L 371.488667 68.236446 
L 371.691024 73.707763 
L 372.298096 107.939485 
L 373.107525 182.594158 
L 373.512239 202.121718 
L 373.714597 205.955239 
L 374.119311 205.343315 
L 374.321668 194.148714 
L 375.333454 102.936111 
L 375.738169 91.291565 
L 375.940526 88.915862 
L 376.142883 87.943984 
L 376.34524 92.497415 
L 376.749955 115.552534 
L 377.559383 167.314067 
L 377.964098 197.766262 
L 378.368812 209.896746 
L 378.57117 210.094722 
L 378.773527 204.875374 
L 378.975884 195.012606 
L 380.392384 92.479417 
L 380.797099 83.750508 
L 381.201813 77.073342 
L 381.40417 80.384928 
L 382.011242 112.94286 
L 382.820671 185.815755 
L 383.225385 199.979985 
L 383.427743 200.555913 
L 383.6301 195.8585 
L 384.034814 176.294945 
L 385.0466 111.701015 
L 385.451315 97.01485 
L 385.653672 96.600902 
L 385.856029 99.930486 
L 386.058386 106.643647 
L 387.070172 168.213954 
L 387.474887 203.507545 
L 387.879601 222.765138 
L 388.284316 230.810133 
L 388.68903 233.023857 
L 388.891387 227.966489 
L 389.700816 189.649276 
L 390.307888 179.786508 
L 390.914959 168.573909 
L 391.117316 172.785383 
L 391.926745 207.611032 
L 392.533817 246.504172 
L 392.938531 257.392812 
L 393.140888 259.030607 
L 393.343246 258.634657 
L 393.545603 259.048605 
L 393.74796 251.16559 
L 394.355032 214.936117 
L 395.569175 165.226328 
L 395.771532 159.934989 
L 395.973889 160.996856 
L 396.176247 168.321941 
L 396.783318 205.325317 
L 397.188033 239.233081 
L 397.592747 254.92712 
L 397.795104 257.374814 
L 397.997461 255.143093 
L 398.402176 239.179088 
L 400.628105 126.837124 
L 400.830462 129.338812 
L 401.03282 138.103717 
L 401.639891 188.317443 
L 402.044606 227.354565 
L 402.44932 245.24433 
L 402.651677 248.771889 
L 402.854034 247.314071 
L 403.258749 231.296073 
L 403.663463 206.279198 
L 404.877607 112.924863 
L 405.282321 94.85512 
L 405.484678 91.147583 
L 405.687035 92.101464 
L 405.889393 101.352308 
L 406.294107 134.252198 
L 406.901179 202.409682 
L 407.305893 223.593035 
L 407.50825 228.524419 
L 407.710607 228.056477 
L 408.115322 209.356814 
L 409.73418 92.893365 
L 409.936537 88.555907 
L 410.138894 88.429923 
L 410.341251 92.479417 
L 410.948323 124.263446 
L 411.15068 138.265696 
L 411.757752 200.411931 
L 412.162466 221.595285 
L 412.364823 227.300572 
L 412.56718 228.866376 
L 412.971895 212.974362 
L 414.388395 126.621151 
L 414.79311 114.70664 
L 415.197824 108.839373 
L 415.400181 114.796629 
L 416.20961 169.85175 
L 416.614325 209.662776 
L 417.019039 229.964239 
L 417.221396 233.707771 
L 417.423753 233.221832 
L 417.828468 219.003608 
L 419.244968 132.992355 
L 419.649683 121.023851 
L 419.85204 117.658271 
L 420.054397 118.918114 
L 420.256754 126.531162 
L 421.066183 183.925991 
L 421.673255 232.339942 
L 422.077969 246.468177 
L 422.280326 248.645905 
L 422.482684 248.069977 
L 422.685041 247.925995 
L 423.089755 220.91137 
L 423.899184 160.258948 
L 424.708613 125.739261 
L 424.91097 122.94961 
L 425.113327 126.459171 
L 425.518042 149.388307 
L 425.720399 159.737014 
L 426.529828 225.194835 
L 426.934542 241.4828 
L 427.136899 245.40631 
L 427.339257 246.108222 
L 427.541614 246.306197 
L 427.743971 238.765139 
L 428.148685 203.38156 
L 428.755757 149.11834 
L 429.160471 126.639149 
L 429.565186 119.404053 
L 429.9699 122.841623 
L 430.374615 137.059847 
L 430.576972 147.264572 
L 431.386401 213.874249 
L 431.791115 224.600909 
L 431.993472 222.819132 
L 432.398187 205.019356 
L 433.207616 147.966484 
L 434.017044 86.288191 
L 434.219402 82.004726 
L 435.02883 106.031724 
L 435.433545 127.934987 
L 436.040617 190.333191 
L 436.445331 210.076724 
L 436.647688 214.576162 
L 436.850045 213.982236 
L 437.25476 195.930491 
L 437.659474 165.334314 
L 438.468903 100.956358 
L 438.67126 92.425424 
L 438.873617 93.271318 
L 439.075975 99.49854 
L 439.278332 99.10259 
L 439.480689 101.064344 
L 439.885403 117.316314 
L 440.290118 139.003604 
L 440.897189 203.327567 
L 441.301904 222.873125 
L 441.504261 227.624531 
L 441.706618 228.092473 
L 442.111333 215.188085 
L 442.920762 169.617779 
L 443.527833 139.075595 
L 444.134905 119.152084 
L 444.337262 116.884368 
L 444.539619 122.499666 
L 445.146691 161.968735 
L 445.753762 222.567163 
L 446.158477 241.140842 
L 446.360834 245.478301 
L 446.563191 243.732519 
L 446.967906 227.174588 
L 448.586763 131.012603 
L 448.991478 119.458046 
L 449.193835 117.4243 
L 449.396192 123.255572 
L 450.003264 158.621153 
L 450.812693 228.722394 
L 451.217407 240.366939 
L 451.419764 240.474926 
L 451.824479 225.428806 
L 452.43155 181.280322 
L 453.038622 144.582907 
L 453.443336 129.662771 
L 453.848051 122.769632 
L 454.050408 125.721264 
L 454.252765 134.468171 
L 454.65748 159.341063 
L 454.859837 166.738139 
L 455.669266 223.413057 
L 456.07398 235.273576 
L 456.276337 236.605409 
L 456.478694 234.859627 
L 456.681052 232.141967 
L 456.883409 225.140842 
L 457.288123 201.491796 
L 457.692838 191.898995 
L 457.895195 192.510919 
L 458.299909 197.550289 
L 458.502267 197.424305 
L 458.906981 194.076723 
L 459.109338 194.544664 
L 459.514053 198.18021 
L 459.71641 201.94174 
L 460.728196 252.461428 
L 461.13291 256.330945 
L 461.537625 253.433307 
L 461.739982 245.622283 
L 462.144696 215.422056 
L 463.561197 154.877621 
L 463.763554 148.524414 
L 463.965911 149.550286 
L 464.572983 166.594157 
L 465.382412 225.212833 
L 465.584769 231.260077 
L 465.787126 233.63578 
L 465.989483 231.512046 
L 467.608341 150.522165 
L 468.620127 131.984481 
L 468.822484 134.720139 
L 469.429556 157.68527 
L 470.036627 207.323068 
L 470.441342 222.891123 
L 470.643699 225.194835 
L 470.846056 222.945116 
L 471.857842 178.382684 
L 472.869628 151.907992 
L 473.071985 152.339938 
L 473.274343 150.774133 
L 473.4767 151.871996 
L 473.679057 155.183582 
L 473.881414 160.942863 
L 474.083772 161.950737 
L 474.286129 168.663898 
L 474.8932 214.2702 
L 475.297915 228.488423 
L 475.500272 229.946241 
L 475.702629 228.164464 
L 476.107344 206.837129 
L 476.512058 187.579535 
L 477.321487 160.024978 
L 477.726201 142.387181 
L 477.928558 139.27357 
L 478.333273 143.377058 
L 478.53563 147.28257 
L 479.142702 169.095844 
L 479.952131 228.398435 
L 480.356845 237.019357 
L 480.559202 236.659402 
L 480.963917 217.329818 
L 482.785131 104.987854 
L 482.987489 99.8225 
L 483.189846 97.518787 
L 483.392203 102.450171 
L 483.999275 137.329813 
L 484.606346 199.548039 
L 485.011061 219.8675 
L 485.213418 223.719019 
L 485.415775 224.546916 
L 485.82049 207.251077 
L 486.225204 179.948488 
L 487.23699 101.226324 
L 487.439347 98.526661 
L 487.844062 104.267944 
L 488.248776 120.555909 
L 489.260562 188.389434 
L 489.665277 216.519919 
L 490.069991 229.730268 
L 490.272348 231.782012 
L 490.474705 230.792136 
L 490.677063 229.244329 
L 490.87942 220.731393 
L 491.891206 150.990106 
L 492.29592 135.494043 
L 492.498277 129.03285 
L 492.700635 127.26907 
L 492.902992 128.690893 
L 493.105349 132.902366 
L 493.712421 162.220703 
L 494.52185 225.194835 
L 495.128921 241.176838 
L 495.331278 241.302822 
L 495.533636 240.76289 
L 495.735993 234.157715 
L 496.950136 154.121715 
L 497.557208 132.812378 
L 497.759565 129.878744 
L 497.961922 132.686393 
L 498.568994 160.240951 
L 499.378422 224.798884 
L 499.58078 230.774138 
L 499.783137 232.951866 
L 499.985494 230.054228 
L 500.187851 222.603159 
L 500.794923 190.315193 
L 500.99728 185.851751 
L 501.401995 174.405181 
L 501.806709 164.560411 
L 502.009066 164.16446 
L 502.211423 165.964235 
L 502.413781 166.522166 
L 502.616138 165.064348 
L 503.020852 173.559287 
L 503.223209 174.045226 
L 503.425567 180.614405 
L 504.032638 224.942866 
L 504.437353 236.371438 
L 504.63971 237.793261 
L 504.842067 235.723519 
L 505.246782 214.414182 
L 505.651496 193.590784 
L 507.270354 129.626776 
L 507.472711 126.909115 
L 507.675068 129.878744 
L 508.28214 154.391681 
L 508.889211 205.127342 
L 509.293926 220.101471 
L 509.496283 223.179087 
L 509.69864 221.577287 
L 510.103354 200.987859 
L 511.722212 107.975481 
L 512.126927 92.443422 
L 512.329284 93.829248 
L 512.936355 123.885493 
L 513.34107 157.937238 
L 513.745784 195.948489 
L 514.150499 215.818006 
L 514.352856 220.695397 
L 514.555213 221.127343 
L 514.75757 213.352315 
L 516.174071 128.744886 
L 516.376428 127.791005 
L 516.781142 135.943986 
L 516.9835 133.550285 
L 517.185857 134.018227 
L 517.590571 149.496293 
L 517.792928 153.20383 
L 517.995286 162.56266 
L 518.4 197.244327 
L 518.4 197.244327 
" clip-path="url(#p6817f3b16f)" style="fill: none; stroke: #1f77b4; stroke-width: 1.5; stroke-linecap: square"/>
   </g>
   <g id="line2d_14">
    <path d="M 72 194.429542 
L 72.202357 194.429542 
L 72.404714 257.919713 
L 72.607072 281.874808 
L 72.809429 287.529441 
L 73.011786 279.339296 
L 73.618858 201.525144 
L 74.225929 166.15146 
L 74.833001 135.799715 
L 75.035358 132.599437 
L 75.237715 132.532466 
L 75.440073 135.085199 
L 76.047144 156.301556 
L 76.249501 168.412385 
L 76.856573 225.362926 
L 77.261287 243.076378 
L 77.463645 245.207778 
L 77.666002 239.655104 
L 78.070716 214.848327 
L 78.475431 193.966989 
L 78.880145 181.245144 
L 79.689574 147.783014 
L 79.891931 143.826337 
L 80.094288 143.312312 
L 80.296646 147.554932 
L 80.903717 178.157547 
L 81.713146 234.907566 
L 82.11786 247.874366 
L 82.320218 248.295409 
L 82.522575 246.600858 
L 82.927289 236.556221 
L 83.129646 229.682625 
L 83.534361 210.247426 
L 83.939075 203.310709 
L 84.141432 203.048037 
L 84.34379 204.150612 
L 84.546147 206.143793 
L 84.950861 212.425741 
L 85.153218 212.359 
L 85.355576 214.122473 
L 85.962647 226.760418 
L 86.569719 256.10174 
L 86.772076 260.454383 
L 86.974433 261.242851 
L 87.176791 261.497447 
L 87.379148 259.393557 
L 87.986219 243.977039 
L 88.390934 227.036101 
L 88.593291 222.658633 
L 88.795648 220.787854 
L 88.998005 220.681683 
L 89.200363 221.418026 
L 89.40272 219.848283 
L 89.807434 213.399502 
L 90.009791 207.271463 
L 90.212149 204.778121 
L 90.414506 206.930743 
L 90.616863 211.596708 
L 90.81922 221.674177 
L 91.426292 266.099974 
L 91.628649 271.341862 
L 91.831006 269.871047 
L 92.235721 255.808132 
L 92.842792 223.006096 
L 93.854578 209.165733 
L 94.866364 201.276856 
L 95.068722 204.185989 
L 95.675793 221.561244 
L 96.282865 259.158265 
L 96.485222 262.928545 
L 96.687579 261.309837 
L 97.092294 243.302585 
L 97.497008 222.440386 
L 97.699365 216.943923 
L 98.10408 214.953806 
L 98.508794 213.643343 
L 98.711151 214.445283 
L 99.52058 201.710366 
L 99.722937 200.388398 
L 99.925295 202.837242 
L 100.532366 225.394216 
L 100.937081 250.890205 
L 101.139438 258.192859 
L 101.341795 261.267539 
L 101.544152 261.421128 
L 101.948867 249.707302 
L 102.758296 217.332192 
L 103.567724 213.938389 
L 104.377153 195.712465 
L 104.57951 194.425771 
L 104.781868 197.213066 
L 105.591296 236.595742 
L 105.996011 255.803004 
L 106.198368 259.04465 
L 106.400725 259.585404 
L 106.603083 255.505218 
L 107.007797 239.66314 
L 107.412511 218.434627 
L 107.614869 214.681716 
L 107.817226 214.231424 
L 108.019583 213.509435 
L 108.22194 211.054561 
L 108.424297 205.435518 
L 109.031369 181.263332 
L 109.233726 180.695571 
L 109.436083 182.716371 
L 109.638441 186.900368 
L 111.054941 255.158394 
L 111.257298 256.578465 
L 111.459655 253.282231 
L 111.662013 247.51599 
L 112.471442 210.34804 
L 112.876156 199.860771 
L 113.28087 184.095131 
L 113.685585 168.276381 
L 114.090299 159.898832 
L 114.292656 160.483217 
L 114.495014 167.602952 
L 115.102085 206.826507 
L 115.5068 232.595024 
L 115.911514 245.359234 
L 116.113871 247.836124 
L 116.316228 247.862141 
L 116.720943 239.659827 
L 117.125657 225.391267 
L 118.137443 169.919523 
L 118.744515 140.649666 
L 118.946872 135.672056 
L 119.149229 135.680541 
L 119.351587 141.738395 
L 120.161015 201.607826 
L 120.768087 240.016907 
L 120.970444 245.484986 
L 121.172801 247.40477 
L 121.375159 245.935502 
L 121.779873 237.531582 
L 122.184587 216.736097 
L 122.589302 194.549288 
L 123.398731 170.774474 
L 123.601088 167.955566 
L 123.803445 168.752349 
L 124.005802 170.706416 
L 124.612874 193.958751 
L 125.62466 256.395245 
L 125.827017 256.917706 
L 126.231732 248.613401 
L 127.243518 201.803054 
L 127.648232 180.373434 
L 128.457661 138.128843 
L 128.660018 134.240521 
L 128.862375 134.635634 
L 129.064733 144.89474 
L 129.469447 179.632076 
L 129.874161 226.58043 
L 130.278876 248.139043 
L 130.481233 250.772758 
L 130.68359 248.737736 
L 131.088305 237.026156 
L 132.707162 157.34983 
L 133.111877 133.43 
L 133.314234 127.892217 
L 133.516591 126.010319 
L 133.718948 128.214637 
L 133.921306 135.840006 
L 134.528377 181.648531 
L 134.933092 221.067391 
L 135.337806 236.72561 
L 135.540163 239.786562 
L 135.74252 238.256851 
L 135.944878 233.693588 
L 136.956664 180.556481 
L 137.159021 179.335393 
L 137.361378 174.811963 
L 137.563735 175.242143 
L 137.766092 171.752675 
L 137.96845 172.772324 
L 138.170807 174.482642 
L 138.373164 174.981545 
L 138.575521 173.807398 
L 138.777879 177.145808 
L 139.587307 220.305838 
L 139.992022 243.815342 
L 140.194379 247.532265 
L 140.396736 249.029425 
L 140.801451 242.225189 
L 141.408522 202.087785 
L 142.217951 187.225661 
L 142.420308 187.846905 
L 142.622665 186.632033 
L 142.825023 184.228551 
L 143.02738 185.471926 
L 143.229737 185.204525 
L 143.432094 186.023315 
L 143.634451 189.598998 
L 144.241523 210.887042 
L 144.646238 239.242834 
L 144.848595 246.586617 
L 145.050952 249.569075 
L 145.253309 248.882627 
L 145.455666 245.267346 
L 145.860381 226.698647 
L 146.265095 201.620777 
L 146.467452 195.998987 
L 146.872167 191.39692 
L 147.074524 187.521545 
L 147.276881 186.703788 
L 147.479238 181.895027 
L 147.681596 179.746469 
L 148.08631 191.329242 
L 148.491024 200.316681 
L 149.705168 245.092157 
L 149.907525 247.600831 
L 150.109882 247.723641 
L 150.312239 246.20405 
L 150.716954 237.311362 
L 151.121668 222.893619 
L 151.526383 209.217538 
L 151.931097 201.176368 
L 152.133454 201.646901 
L 152.538169 202.073584 
L 152.942883 205.423632 
L 153.14524 206.463736 
L 153.347597 208.21809 
L 153.954669 218.678968 
L 154.764098 250.170905 
L 154.966455 251.778652 
L 155.168812 251.047145 
L 155.37117 248.576072 
L 155.775884 237.509441 
L 156.180598 217.218887 
L 157.192384 164.629734 
L 157.597099 149.710263 
L 157.799456 144.421055 
L 158.001813 142.493962 
L 158.20417 146.214042 
L 158.811242 180.631029 
L 159.418314 233.022994 
L 159.620671 243.41469 
L 159.823028 246.617494 
L 160.025385 243.930515 
L 160.227743 236.511245 
L 161.037171 188.597817 
L 161.441886 173.210668 
L 161.644243 166.598928 
L 161.8466 163.784331 
L 162.251315 155.787257 
L 162.453672 154.432284 
L 162.656029 156.638821 
L 162.858386 161.872307 
L 163.263101 181.351195 
L 163.667815 205.801154 
L 164.274887 244.645725 
L 164.477244 250.248137 
L 164.679601 251.060763 
L 164.881958 245.451293 
L 165.48903 214.322427 
L 165.893744 198.295319 
L 166.298459 192.495335 
L 166.500816 186.799782 
L 167.310245 151.242535 
L 167.512602 148.864767 
L 167.714959 153.239792 
L 168.524388 203.492671 
L 168.929102 234.769394 
L 169.13146 242.053756 
L 169.536174 247.560638 
L 169.738531 247.180684 
L 169.940888 242.558291 
L 170.345603 215.790498 
L 170.750317 192.885694 
L 171.155032 173.596731 
L 171.559746 152.210275 
L 171.964461 140.412848 
L 172.166818 137.671297 
L 172.369175 136.558633 
L 172.571532 139.84377 
L 172.773889 147.899616 
L 173.988033 244.731578 
L 174.19039 248.709193 
L 174.392747 248.856669 
L 174.595104 246.647043 
L 174.797461 241.640956 
L 175.202176 217.590047 
L 175.60689 196.443508 
L 176.011605 185.088232 
L 176.821034 153.679896 
L 177.225748 146.366961 
L 177.428105 147.860218 
L 177.630462 154.596148 
L 178.844606 250.458785 
L 179.046963 254.400017 
L 179.24932 254.264371 
L 179.451677 252.81164 
L 179.654034 247.509424 
L 179.856392 238.806533 
L 180.463463 204.525413 
L 180.868178 184.954924 
L 181.677607 143.580548 
L 182.082321 133.71374 
L 182.284678 134.337439 
L 182.487035 139.41809 
L 183.701179 230.014735 
L 184.105893 238.531457 
L 184.30825 237.805061 
L 184.712965 232.661486 
L 184.915322 227.058212 
L 185.320036 198.892957 
L 186.129465 139.847689 
L 186.53418 126.681394 
L 186.736537 127.30992 
L 186.938894 131.432109 
L 187.748323 173.225437 
L 188.557752 227.177135 
L 188.760109 235.414605 
L 188.962466 238.739475 
L 189.164823 238.697795 
L 189.36718 234.746656 
L 189.771895 219.420766 
L 190.581324 172.026155 
L 191.188395 136.701944 
L 191.390752 132.408027 
L 191.59311 132.672825 
L 191.795467 137.600724 
L 192.604896 177.916558 
L 193.414325 232.218694 
L 193.616682 241.18886 
L 193.819039 245.034579 
L 194.021396 244.799871 
L 194.223753 241.057576 
L 194.830825 217.084911 
L 195.640254 169.409054 
L 195.842611 164.540617 
L 196.044968 164.07578 
L 197.056754 186.438935 
L 197.663826 204.956505 
L 198.473255 254.401362 
L 198.675612 254.918996 
L 198.877969 250.407171 
L 199.080326 241.85138 
L 199.687398 199.936215 
L 200.29447 179.530269 
L 201.103898 150.200335 
L 201.306256 145.720175 
L 201.508613 144.038898 
L 201.71097 145.301319 
L 201.913327 152.479395 
L 202.722756 207.663723 
L 203.127471 234.049149 
L 203.329828 239.852931 
L 203.532185 241.240452 
L 203.734542 236.708952 
L 204.139257 217.085928 
L 204.746328 187.11011 
L 205.960471 148.518129 
L 206.162829 149.508327 
L 206.567543 157.660468 
L 207.174615 183.965143 
L 207.984044 234.577038 
L 208.186401 239.746828 
L 208.388758 241.25266 
L 208.591115 238.822616 
L 208.793472 230.753231 
L 209.400544 191.904274 
L 209.805258 178.654217 
L 211.221759 123.156324 
L 211.424116 123.70401 
L 211.626473 133.792115 
L 212.840617 227.607442 
L 213.245331 236.655611 
L 213.447688 237.329053 
L 213.650045 232.289574 
L 215.47126 116.369991 
L 215.875975 103.930999 
L 216.280689 99.858899 
L 216.483046 106.427029 
L 217.090118 159.434749 
L 217.697189 215.081567 
L 218.101904 229.160762 
L 218.304261 231.385822 
L 218.506618 229.584263 
L 218.911333 217.674862 
L 220.327833 131.871953 
L 220.53019 129.991548 
L 220.732548 133.138228 
L 221.946691 193.664043 
L 222.75612 243.531388 
L 222.958477 245.458427 
L 223.160834 245.189649 
L 223.363191 241.460552 
L 224.577335 190.131691 
L 224.779692 187.823608 
L 224.982049 189.740398 
L 225.386763 199.580955 
L 226.196192 208.773856 
L 226.398549 213.531204 
L 226.600907 213.087916 
L 226.803264 215.617742 
L 227.612693 264.479566 
L 227.81505 264.470485 
L 228.017407 262.019695 
L 228.219764 257.712833 
L 229.029193 212.739924 
L 229.433908 208.747882 
L 229.838622 194.401166 
L 230.445694 170.874872 
L 230.850408 166.590189 
L 231.052765 169.104208 
L 231.45748 188.382954 
L 232.469266 254.099154 
L 232.671623 254.501003 
L 232.87398 250.963861 
L 233.076337 245.004363 
L 234.492838 183.289477 
L 235.099909 165.402691 
L 235.302267 161.377235 
L 235.504624 160.58396 
L 235.706981 162.531223 
L 236.111695 178.931209 
L 236.718767 221.415915 
L 237.123481 245.450407 
L 237.325839 250.530746 
L 237.528196 251.442516 
L 237.730553 248.210463 
L 238.135267 230.473525 
L 238.539982 209.012232 
L 239.147053 192.242396 
L 239.754125 174.70749 
L 239.956482 172.509907 
L 240.361197 170.802181 
L 240.563554 172.978273 
L 240.765911 177.768887 
L 241.372983 214.251129 
L 241.980054 249.838213 
L 242.182412 253.303508 
L 242.384769 253.24283 
L 242.587126 251.007684 
L 242.789483 245.436958 
L 243.194198 224.189699 
L 243.598912 207.337611 
L 244.003626 197.496843 
L 244.813055 167.865588 
L 245.21777 160.313946 
L 245.420127 160.254466 
L 245.622484 166.023943 
L 246.229556 204.315058 
L 246.836627 243.969975 
L 247.038985 249.738627 
L 247.241342 252.325873 
L 247.443699 250.4167 
L 247.646056 245.010081 
L 248.050771 224.084657 
L 248.657842 192.914156 
L 249.264914 156.782542 
L 249.669628 134.986116 
L 249.871985 130.605963 
L 250.074343 131.045589 
L 250.2767 134.448003 
L 250.479057 142.120147 
L 251.895558 234.399898 
L 252.097915 239.309072 
L 252.300272 239.198536 
L 252.704986 230.731139 
L 253.109701 212.099366 
L 254.121487 142.035289 
L 254.526201 128.56227 
L 254.728558 125.778394 
L 254.930916 126.494829 
L 255.133273 128.820344 
L 255.33563 136.331208 
L 256.752131 238.835972 
L 256.954488 242.824193 
L 257.156845 244.183231 
L 257.359202 242.71768 
L 257.763917 230.741516 
L 258.370988 191.459861 
L 258.97806 158.583898 
L 259.382774 144.15711 
L 259.585131 140.524718 
L 259.787489 140.513412 
L 259.989846 143.569636 
L 260.192203 149.135207 
L 260.799275 185.349461 
L 261.406346 242.924446 
L 261.608704 249.376397 
L 261.811061 250.691388 
L 262.013418 247.900273 
L 262.215775 241.576216 
L 263.025204 198.589186 
L 263.429918 191.963119 
L 263.632276 192.974607 
L 263.834633 197.681773 
L 264.644062 203.640276 
L 264.846419 204.806177 
L 265.048776 206.895749 
L 265.655848 222.277503 
L 266.262919 252.203435 
L 266.465277 254.966001 
L 266.667634 254.5334 
L 267.072348 245.177912 
L 267.477063 227.782508 
L 267.881777 210.739918 
L 268.488849 198.787438 
L 268.893563 190.085293 
L 269.298277 185.22257 
L 269.500635 185.391676 
L 269.702992 187.314859 
L 270.107706 198.856361 
L 270.512421 213.609092 
L 271.119492 247.316741 
L 271.32185 249.505117 
L 271.524207 249.523568 
L 271.726564 246.871834 
L 271.928921 241.481665 
L 272.73835 199.591679 
L 273.143064 184.705247 
L 274.15485 140.30364 
L 274.559565 135.494631 
L 274.761922 140.083261 
L 275.368994 172.237584 
L 275.976065 217.15597 
L 276.178422 224.735228 
L 276.38078 227.539477 
L 276.583137 226.379188 
L 276.785494 221.726201 
L 277.190209 200.853188 
L 277.999637 160.58408 
L 278.606709 133.077468 
L 279.011423 127.224532 
L 279.213781 127.909078 
L 279.416138 126.471037 
L 279.618495 133.437642 
L 280.023209 162.417634 
L 280.427924 201.03429 
L 280.832638 234.093442 
L 281.034995 241.566868 
L 281.237353 242.692997 
L 281.43971 241.213554 
L 281.642067 235.375368 
L 283.260925 152.718413 
L 284.070354 135.11735 
L 284.272711 136.861421 
L 284.475068 144.734583 
L 284.879782 171.5057 
L 285.689211 249.052977 
L 285.891568 253.877528 
L 286.093926 253.296346 
L 286.296283 251.59073 
L 286.700997 242.259281 
L 287.105712 226.345678 
L 288.522212 145.099924 
L 288.724569 137.555736 
L 288.926927 134.991856 
L 289.129284 136.768909 
L 289.331641 142.795377 
L 289.938713 185.850358 
L 290.343427 222.524566 
L 290.748141 243.457497 
L 290.950499 245.916329 
L 291.152856 246.200704 
L 291.355213 244.023382 
L 291.759927 233.655117 
L 291.962285 222.157689 
L 292.771714 158.921191 
L 293.176428 131.147296 
L 293.581142 118.781977 
L 293.7835 117.708036 
L 293.985857 119.523992 
L 294.188214 124.094548 
L 294.592928 150.943681 
L 295.807072 231.318461 
L 296.009429 230.993485 
L 296.211786 225.877102 
L 297.021215 173.19059 
L 297.830644 95.686305 
L 298.235358 76.569156 
L 298.437715 76.109428 
L 298.640073 76.738981 
L 298.84243 78.990014 
L 299.044787 82.601906 
L 299.247144 93.545683 
L 300.461287 208.226044 
L 300.663645 212.977516 
L 300.866002 210.503406 
L 301.270716 195.788444 
L 301.877788 155.181665 
L 302.484859 90.514176 
L 302.889574 68.59828 
L 303.091931 69.825318 
L 303.496646 86.694201 
L 303.699003 93.749131 
L 304.103717 122.820078 
L 304.913146 195.425713 
L 305.31786 231.910661 
L 305.520218 232.945352 
L 305.722575 227.208245 
L 307.746147 125.142023 
L 307.948504 121.129972 
L 308.150861 120.16115 
L 308.96029 154.125915 
L 310.174433 236.098664 
L 310.376791 240.509617 
L 310.579148 237.451393 
L 310.983862 217.007627 
L 312.60272 111.476792 
L 312.805077 109.516486 
L 313.007434 109.100691 
L 313.412149 117.471765 
L 314.01922 155.54152 
L 315.031006 229.516916 
L 315.233364 231.041348 
L 315.435721 229.265427 
L 315.638078 221.406515 
L 316.24515 185.421407 
L 316.649864 172.395262 
L 317.054578 165.662796 
L 317.256936 163.230074 
L 317.459293 163.669505 
L 317.66165 160.506211 
L 317.864007 161.030794 
L 318.066364 163.836762 
L 318.268722 163.135913 
L 318.471079 164.818926 
L 319.07815 193.621236 
L 319.887579 235.163704 
L 320.089937 238.084467 
L 320.292294 238.961598 
L 320.494651 236.408001 
L 321.708794 188.187204 
L 322.72058 134.359848 
L 322.922937 132.2102 
L 323.125295 133.834205 
L 323.327652 140.50314 
L 324.339438 213.379343 
L 324.744152 238.876674 
L 324.94651 241.600949 
L 325.148867 242.362967 
L 325.351224 240.457692 
L 325.755938 225.042991 
L 326.160653 198.655726 
L 326.767724 151.97472 
L 327.172439 121.615603 
L 327.374796 114.180112 
L 327.577153 113.467963 
L 327.981868 116.639546 
L 328.184225 122.544336 
L 328.386582 134.717141 
L 329.398368 228.947075 
L 329.600725 240.053208 
L 329.803083 241.449109 
L 330.00544 238.768723 
L 330.207797 232.627722 
L 330.814869 191.164653 
L 331.826655 128.003765 
L 332.029012 120.852322 
L 332.231369 118.811603 
L 332.433726 121.539442 
L 333.040798 137.214078 
L 333.647869 180.84584 
L 334.052584 224.30646 
L 334.457298 243.420518 
L 334.659655 243.410207 
L 334.862013 239.905283 
L 335.266727 220.564018 
L 335.671442 196.119284 
L 336.885585 157.379606 
L 337.290299 155.364811 
L 337.492656 157.873721 
L 338.099728 172.459898 
L 339.313871 245.645375 
L 339.516228 247.608321 
L 339.718586 245.841978 
L 340.1233 223.686225 
L 340.528015 200.000922 
L 340.932729 186.848625 
L 341.539801 157.940002 
L 342.146872 134.761697 
L 342.551587 132.184467 
L 342.753944 133.888645 
L 343.361015 173.300608 
L 343.968087 220.168371 
L 344.170444 226.126284 
L 344.372801 227.253724 
L 344.575159 226.267747 
L 344.979873 210.181358 
L 345.586945 174.617804 
L 346.396374 107.858586 
L 346.598731 100.638608 
L 346.801088 97.778097 
L 347.003445 98.205996 
L 347.40816 100.633983 
L 347.610517 106.313857 
L 348.015231 135.266637 
L 349.027017 226.702201 
L 349.229374 230.147563 
L 349.431732 229.010478 
L 349.634089 221.475519 
L 350.443518 171.51636 
L 351.252947 107.715685 
L 351.657661 97.697514 
L 351.860018 98.556111 
L 352.062375 98.092469 
L 352.264733 98.695453 
L 352.46709 103.871071 
L 353.074161 156.734479 
L 353.88359 237.350708 
L 354.085947 238.843763 
L 354.288305 237.164169 
L 354.693019 224.77745 
L 355.097733 206.397159 
L 355.502448 168.841034 
L 356.109519 113.520807 
L 356.514234 99.095657 
L 356.716591 98.196614 
L 356.918948 99.029249 
L 357.121306 101.213454 
L 357.323663 107.325049 
L 357.930734 151.480695 
L 358.740163 229.673954 
L 358.94252 232.605695 
L 359.144878 230.566649 
L 359.347235 227.161314 
L 359.751949 213.276999 
L 360.156664 184.752915 
L 360.966092 103.767144 
L 361.16845 91.581764 
L 361.370807 86.523981 
L 361.573164 85.841344 
L 361.775521 87.955549 
L 361.977879 88.45324 
L 362.180236 92.471961 
L 362.382593 102.504007 
L 363.596736 213.612689 
L 363.799093 218.532445 
L 364.203808 211.415427 
L 364.406165 203.778328 
L 365.013237 158.815662 
L 365.822665 73.813467 
L 366.025023 64.06749 
L 366.22738 62.185794 
L 366.834451 68.163951 
L 367.036809 72.897521 
L 367.239166 85.601366 
L 368.453309 201.654366 
L 368.655666 210.549441 
L 368.858024 208.216701 
L 369.262738 194.872305 
L 369.86981 160.056193 
L 370.476881 104.14279 
L 370.881596 83.022905 
L 371.083953 81.583782 
L 371.691024 95.368467 
L 372.095739 119.217055 
L 373.512239 225.502027 
L 373.714597 224.009172 
L 374.524025 197.253063 
L 374.92874 169.656122 
L 375.535811 120.620654 
L 375.738169 114.041601 
L 375.940526 111.576449 
L 376.142883 112.98698 
L 376.34524 115.788711 
L 376.749955 133.932359 
L 377.559383 186.058776 
L 378.166455 227.299472 
L 378.368812 229.104434 
L 378.57117 227.8778 
L 378.773527 222.959797 
L 378.975884 215.04502 
L 379.785313 157.740015 
L 380.392384 111.043551 
L 380.594742 102.018164 
L 380.797099 98.867192 
L 381.40417 102.292972 
L 381.606528 105.907941 
L 382.213599 151.286085 
L 382.618314 190.884932 
L 383.023028 213.103906 
L 383.225385 214.141039 
L 383.427743 212.039035 
L 383.6301 208.238438 
L 384.237171 179.955352 
L 384.237171 179.955352 
" clip-path="url(#p6817f3b16f)" style="fill: none; stroke: #ff7f0e; stroke-width: 1.5; stroke-linecap: square"/>
   </g>
   <g id="line2d_15">
    <path d="M 384.439529 170.137286 
L 384.641886 169.503903 
L 384.844243 171.744685 
L 385.0466 182.141299 
L 386.058386 269.753819 
L 386.260743 274.443456 
L 386.463101 272.113852 
L 386.867815 257.675406 
L 387.272529 240.770648 
L 388.284316 215.369227 
L 388.68903 209.584634 
L 388.891387 208.326158 
L 389.093744 208.520779 
L 389.296102 210.615512 
L 389.700816 226.658602 
L 390.712602 307.652173 
L 390.914959 307.8 
L 391.117316 299.879814 
L 391.522031 266.025366 
L 392.129102 200.127824 
L 392.938531 150.422882 
L 393.343246 139.615081 
L 393.545603 137.278982 
L 393.74796 139.329695 
L 394.152675 151.366225 
L 394.557389 176.068996 
L 394.962103 207.987406 
L 395.164461 217.15023 
L 395.366818 219.843581 
L 395.569175 218.476141 
L 395.973889 204.788975 
L 396.783318 166.154669 
L 397.188033 147.376706 
L 397.592747 137.438136 
L 397.795104 135.899099 
L 397.997461 136.160862 
L 398.402176 146.569539 
L 399.616319 202.501707 
L 399.818676 201.060105 
L 400.223391 196.478193 
L 400.830462 193.672588 
L 401.03282 193.906392 
L 401.235177 191.904154 
L 401.437534 187.027435 
L 402.044606 159.964848 
L 402.651677 128.038502 
L 403.056392 116.595449 
L 403.258749 116.243377 
L 403.461106 121.21676 
L 403.86582 147.788874 
L 404.675249 216.411531 
L 405.079964 231.193497 
L 405.282321 233.49212 
L 405.484678 233.776631 
L 405.687035 233.102183 
L 405.889393 233.411296 
L 406.09175 232.876294 
L 406.294107 231.369208 
L 406.698821 225.403455 
L 408.115322 188.084951 
L 408.317679 184.599231 
L 408.520036 184.053082 
L 408.722393 187.207722 
L 408.924751 194.726982 
L 409.329465 222.517126 
L 409.73418 251.223219 
L 409.936537 257.97248 
L 410.138894 257.358234 
L 410.341251 250.397752 
L 411.15068 209.465312 
L 411.353037 208.341586 
L 411.555394 208.232471 
L 411.757752 209.912638 
L 412.56718 226.686593 
L 412.769538 225.433688 
L 413.578966 213.676341 
L 413.781324 213.889422 
L 413.983681 216.72285 
L 414.590752 229.966265 
L 414.79311 231.013358 
L 414.995467 229.096014 
L 415.400181 217.003819 
L 415.804896 200.445405 
L 416.007253 196.946183 
L 416.20961 195.828631 
L 416.411967 197.252156 
L 416.614325 200.901415 
L 417.423753 223.029041 
L 417.626111 223.474413 
L 417.828468 221.778976 
L 418.840254 203.301467 
L 419.042611 202.509498 
L 419.244968 202.572915 
L 419.649683 203.933579 
L 420.054397 205.405108 
L 420.256754 205.629576 
L 420.459112 204.895592 
L 420.863826 201.192616 
L 421.066183 200.768862 
L 421.26854 202.688798 
L 421.673255 212.330594 
L 422.280326 227.68632 
L 422.482684 230.402884 
L 422.685041 230.951994 
L 422.887398 229.158688 
L 423.292112 220.52131 
L 423.899184 207.727258 
L 424.101541 206.315417 
L 424.303898 206.830547 
L 424.91097 211.7532 
L 425.113327 210.969817 
L 425.922756 196.861466 
L 426.125113 197.861747 
L 426.327471 201.421993 
L 426.732185 215.561869 
L 427.339257 237.146112 
L 427.541614 241.158442 
L 427.743971 242.418227 
L 427.946328 240.32877 
L 428.351043 227.857971 
L 429.160471 199.122441 
L 429.565186 193.881077 
L 429.9699 190.71235 
L 430.172257 189.681517 
L 430.374615 189.443467 
L 430.779329 190.700036 
L 430.981686 193.037929 
L 431.386401 202.848206 
L 432.398187 237.185332 
L 432.600544 239.362709 
L 432.802901 238.419975 
L 433.005258 234.108667 
L 433.409973 216.832884 
L 433.814687 196.733355 
L 434.219402 187.997034 
L 434.624116 183.292432 
L 435.02883 180.711199 
L 435.231188 180.973363 
L 435.433545 182.722583 
L 435.838259 189.706313 
L 436.242974 200.370926 
L 437.052403 225.227187 
L 437.25476 228.365983 
L 437.457117 229.746053 
L 437.659474 229.464717 
L 437.861831 227.606685 
L 438.064189 223.346497 
L 438.468903 206.256983 
L 438.873617 190.648988 
L 439.683046 176.405647 
L 439.885403 174.330392 
L 440.087761 173.854764 
L 440.290118 175.314007 
L 440.694832 184.737548 
L 442.111333 227.012754 
L 442.31369 228.934118 
L 442.516047 229.552418 
L 442.718404 229.265813 
L 442.920762 226.874282 
L 443.123119 220.794702 
L 443.932548 186.103404 
L 444.741976 164.384024 
L 444.944334 160.811268 
L 445.146691 159.277713 
L 445.349048 160.844332 
L 445.551405 166.12643 
L 447.170263 234.618489 
L 447.37262 235.383672 
L 447.574977 234.360831 
L 447.777335 231.724366 
L 447.979692 225.886114 
L 449.396192 164.883997 
L 449.800907 151.110913 
L 450.003264 147.130838 
L 450.205621 146.699445 
L 450.407978 150.370822 
L 450.610335 158.306324 
L 452.026836 239.623406 
L 452.229193 240.456303 
L 452.43155 237.616878 
L 452.836265 225.544836 
L 454.455122 150.274079 
L 454.859837 137.503357 
L 455.062194 136.19596 
L 455.264551 139.146579 
L 455.466908 145.493283 
L 455.871623 172.198594 
L 456.681052 233.590197 
L 456.883409 239.538575 
L 457.085766 240.794222 
L 457.288123 237.647722 
L 457.692838 221.902978 
L 459.514053 134.722532 
L 459.71641 129.94527 
L 459.918767 129.30557 
L 460.121124 131.969675 
L 460.323481 137.932853 
L 460.728196 164.327438 
L 461.537625 230.734698 
L 461.739982 238.30659 
L 461.942339 240.768992 
L 462.144696 238.517325 
L 462.549411 221.065365 
L 464.370626 127.139799 
L 464.572983 122.849764 
L 464.77534 122.898103 
L 464.977697 125.851017 
L 465.180054 132.31838 
L 465.584769 158.92062 
L 466.596555 238.172102 
L 466.798912 242.008883 
L 467.001269 240.510683 
L 467.203626 233.862982 
L 469.227199 123.992037 
L 469.429556 120.308189 
L 469.631913 120.95826 
L 469.83427 124.527214 
L 470.036627 131.476965 
L 470.441342 157.204688 
L 471.453128 237.275668 
L 471.655485 241.588205 
L 471.857842 240.507906 
L 472.060199 234.316499 
L 474.083772 124.859573 
L 474.286129 121.738659 
L 474.488486 122.822517 
L 474.690843 126.990475 
L 474.8932 134.145745 
L 475.500272 174.300687 
L 476.107344 226.823201 
L 476.512058 239.59746 
L 476.714415 238.72999 
L 476.916772 233.045272 
L 477.928558 173.154908 
L 478.53563 139.340022 
L 478.940345 125.776186 
L 479.142702 122.624886 
L 479.345059 123.727354 
L 479.547416 127.965344 
L 479.749773 134.990391 
L 480.356845 175.173255 
L 480.963917 226.409992 
L 481.368631 238.776224 
L 481.570988 238.152061 
L 481.773345 232.775062 
L 482.582774 184.965581 
L 483.59456 131.5533 
L 483.999275 122.261311 
L 484.201632 122.900951 
L 484.403989 126.719237 
L 484.606346 133.285005 
L 485.011061 158.26392 
L 486.022847 235.720027 
L 486.225204 239.979847 
L 486.427561 239.354864 
L 486.629918 233.89451 
L 487.23699 197.873221 
L 488.451133 132.300088 
L 488.855848 122.5284 
L 489.058205 122.729064 
L 489.260562 126.219529 
L 489.462919 132.429387 
L 489.867634 157.129763 
L 490.87942 236.540263 
L 491.081777 241.098814 
L 491.284134 240.513778 
L 491.486491 234.967019 
L 492.093563 198.42042 
L 493.307706 132.868204 
L 493.712421 123.187535 
L 493.914778 123.337898 
L 494.117135 126.949352 
L 494.319492 133.133165 
L 494.724207 157.047745 
L 495.735993 235.915143 
L 495.93835 240.613167 
L 496.140707 240.330487 
L 496.343064 235.09078 
L 496.950136 198.396516 
L 498.164279 132.930002 
L 498.568994 123.217652 
L 498.771351 123.401878 
L 498.973708 127.194753 
L 499.176065 133.464294 
L 499.58078 157.186037 
L 500.592566 234.739161 
L 500.794923 239.47359 
L 500.99728 239.497436 
L 501.199637 234.678281 
L 501.604352 212.065675 
L 502.413781 163.111039 
L 503.020852 132.913776 
L 503.425567 122.749609 
L 503.627924 122.734127 
L 503.830281 126.38889 
L 504.032638 132.558861 
L 504.437353 156.586041 
L 505.449139 234.317166 
L 505.651496 239.126426 
L 505.853853 239.26145 
L 506.05621 234.609376 
L 506.460925 212.581199 
L 507.472711 152.839066 
L 507.877425 133.212382 
L 508.28214 122.617484 
L 508.484497 122.282271 
L 508.686854 125.663807 
L 508.889211 131.564256 
L 509.293926 155.560583 
L 510.305712 234.57548 
L 510.508069 239.614774 
L 510.710426 239.834508 
L 510.912783 235.171336 
L 511.317498 213.188327 
L 512.329284 153.315987 
L 512.733998 133.77895 
L 513.138713 123.047302 
L 513.34107 122.527924 
L 513.543427 125.820643 
L 513.745784 131.510341 
L 514.150499 154.949918 
L 515.364642 239.948909 
L 515.566999 240.408593 
L 515.769356 235.894866 
L 516.174071 213.7178 
L 516.9835 164.556449 
L 517.590571 134.057317 
L 517.995286 123.346547 
L 518.197643 122.749762 
L 518.4 126.160655 
L 518.4 126.160655 
" clip-path="url(#p6817f3b16f)" style="fill: none; stroke: #2ca02c; stroke-width: 1.5; stroke-linecap: square"/>
   </g>
   <g id="patch_3">
    <path d="M 72 320.4 
L 72 43.2 
" style="fill: none; stroke: #000000; stroke-width: 0.8; stroke-linejoin: miter; stroke-linecap: square"/>
   </g>
   <g id="patch_4">
    <path d="M 518.4 320.4 
L 518.4 43.2 
" style="fill: none; stroke: #000000; stroke-width: 0.8; stroke-linejoin: miter; stroke-linecap: square"/>
   </g>
   <g id="patch_5">
    <path d="M 72 320.4 
L 518.4 320.4 
" style="fill: none; stroke: #000000; stroke-width: 0.8; stroke-linejoin: miter; stroke-linecap: square"/>
   </g>
   <g id="patch_6">
    <path d="M 72 43.2 
L 518.4 43.2 
" style="fill: none; stroke: #000000; stroke-width: 0.8; stroke-linejoin: miter; stroke-linecap: square"/>
   </g>
   <g id="text_13">
    <!-- Classic Transformer - model_20231126182025 -->
    <g transform="translate(155.436563 37.2) scale(0.12 -0.12)">
     <defs>
      <path id="DejaVuSans-43" d="M 4122 4306 
L 4122 3641 
Q 3803 3938 3442 4084 
Q 3081 4231 2675 4231 
Q 1875 4231 1450 3742 
Q 1025 3253 1025 2328 
Q 1025 1406 1450 917 
Q 1875 428 2675 428 
Q 3081 428 3442 575 
Q 3803 722 4122 1019 
L 4122 359 
Q 3791 134 3420 21 
Q 3050 -91 2638 -91 
Q 1578 -91 968 557 
Q 359 1206 359 2328 
Q 359 3453 968 4101 
Q 1578 4750 2638 4750 
Q 3056 4750 3426 4639 
Q 3797 4528 4122 4306 
z
" transform="scale(0.015625)"/>
      <path id="DejaVuSans-6c" d="M 603 4863 
L 1178 4863 
L 1178 0 
L 603 0 
L 603 4863 
z
" transform="scale(0.015625)"/>
      <path id="DejaVuSans-61" d="M 2194 1759 
Q 1497 1759 1228 1600 
Q 959 1441 959 1056 
Q 959 750 1161 570 
Q 1363 391 1709 391 
Q 2188 391 2477 730 
Q 2766 1069 2766 1631 
L 2766 1759 
L 2194 1759 
z
M 3341 1997 
L 3341 0 
L 2766 0 
L 2766 531 
Q 2569 213 2275 61 
Q 1981 -91 1556 -91 
Q 1019 -91 701 211 
Q 384 513 384 1019 
Q 384 1609 779 1909 
Q 1175 2209 1959 2209 
L 2766 2209 
L 2766 2266 
Q 2766 2663 2505 2880 
Q 2244 3097 1772 3097 
Q 1472 3097 1187 3025 
Q 903 2953 641 2809 
L 641 3341 
Q 956 3463 1253 3523 
Q 1550 3584 1831 3584 
Q 2591 3584 2966 3190 
Q 3341 2797 3341 1997 
z
" transform="scale(0.015625)"/>
      <path id="DejaVuSans-73" d="M 2834 3397 
L 2834 2853 
Q 2591 2978 2328 3040 
Q 2066 3103 1784 3103 
Q 1356 3103 1142 2972 
Q 928 2841 928 2578 
Q 928 2378 1081 2264 
Q 1234 2150 1697 2047 
L 1894 2003 
Q 2506 1872 2764 1633 
Q 3022 1394 3022 966 
Q 3022 478 2636 193 
Q 2250 -91 1575 -91 
Q 1294 -91 989 -36 
Q 684 19 347 128 
L 347 722 
Q 666 556 975 473 
Q 1284 391 1588 391 
Q 1994 391 2212 530 
Q 2431 669 2431 922 
Q 2431 1156 2273 1281 
Q 2116 1406 1581 1522 
L 1381 1569 
Q 847 1681 609 1914 
Q 372 2147 372 2553 
Q 372 3047 722 3315 
Q 1072 3584 1716 3584 
Q 2034 3584 2315 3537 
Q 2597 3491 2834 3397 
z
" transform="scale(0.015625)"/>
      <path id="DejaVuSans-69" d="M 603 3500 
L 1178 3500 
L 1178 0 
L 603 0 
L 603 3500 
z
M 603 4863 
L 1178 4863 
L 1178 4134 
L 603 4134 
L 603 4863 
z
" transform="scale(0.015625)"/>
      <path id="DejaVuSans-63" d="M 3122 3366 
L 3122 2828 
Q 2878 2963 2633 3030 
Q 2388 3097 2138 3097 
Q 1578 3097 1268 2742 
Q 959 2388 959 1747 
Q 959 1106 1268 751 
Q 1578 397 2138 397 
Q 2388 397 2633 464 
Q 2878 531 3122 666 
L 3122 134 
Q 2881 22 2623 -34 
Q 2366 -91 2075 -91 
Q 1284 -91 818 406 
Q 353 903 353 1747 
Q 353 2603 823 3093 
Q 1294 3584 2113 3584 
Q 2378 3584 2631 3529 
Q 2884 3475 3122 3366 
z
" transform="scale(0.015625)"/>
      <path id="DejaVuSans-20" transform="scale(0.015625)"/>
      <path id="DejaVuSans-54" d="M -19 4666 
L 3928 4666 
L 3928 4134 
L 2272 4134 
L 2272 0 
L 1638 0 
L 1638 4134 
L -19 4134 
L -19 4666 
z
" transform="scale(0.015625)"/>
      <path id="DejaVuSans-72" d="M 2631 2963 
Q 2534 3019 2420 3045 
Q 2306 3072 2169 3072 
Q 1681 3072 1420 2755 
Q 1159 2438 1159 1844 
L 1159 0 
L 581 0 
L 581 3500 
L 1159 3500 
L 1159 2956 
Q 1341 3275 1631 3429 
Q 1922 3584 2338 3584 
Q 2397 3584 2469 3576 
Q 2541 3569 2628 3553 
L 2631 2963 
z
" transform="scale(0.015625)"/>
      <path id="DejaVuSans-6e" d="M 3513 2113 
L 3513 0 
L 2938 0 
L 2938 2094 
Q 2938 2591 2744 2837 
Q 2550 3084 2163 3084 
Q 1697 3084 1428 2787 
Q 1159 2491 1159 1978 
L 1159 0 
L 581 0 
L 581 3500 
L 1159 3500 
L 1159 2956 
Q 1366 3272 1645 3428 
Q 1925 3584 2291 3584 
Q 2894 3584 3203 3211 
Q 3513 2838 3513 2113 
z
" transform="scale(0.015625)"/>
      <path id="DejaVuSans-66" d="M 2375 4863 
L 2375 4384 
L 1825 4384 
Q 1516 4384 1395 4259 
Q 1275 4134 1275 3809 
L 1275 3500 
L 2222 3500 
L 2222 3053 
L 1275 3053 
L 1275 0 
L 697 0 
L 697 3053 
L 147 3053 
L 147 3500 
L 697 3500 
L 697 3744 
Q 697 4328 969 4595 
Q 1241 4863 1831 4863 
L 2375 4863 
z
" transform="scale(0.015625)"/>
      <path id="DejaVuSans-6f" d="M 1959 3097 
Q 1497 3097 1228 2736 
Q 959 2375 959 1747 
Q 959 1119 1226 758 
Q 1494 397 1959 397 
Q 2419 397 2687 759 
Q 2956 1122 2956 1747 
Q 2956 2369 2687 2733 
Q 2419 3097 1959 3097 
z
M 1959 3584 
Q 2709 3584 3137 3096 
Q 3566 2609 3566 1747 
Q 3566 888 3137 398 
Q 2709 -91 1959 -91 
Q 1206 -91 779 398 
Q 353 888 353 1747 
Q 353 2609 779 3096 
Q 1206 3584 1959 3584 
z
" transform="scale(0.015625)"/>
      <path id="DejaVuSans-6d" d="M 3328 2828 
Q 3544 3216 3844 3400 
Q 4144 3584 4550 3584 
Q 5097 3584 5394 3201 
Q 5691 2819 5691 2113 
L 5691 0 
L 5113 0 
L 5113 2094 
Q 5113 2597 4934 2840 
Q 4756 3084 4391 3084 
Q 3944 3084 3684 2787 
Q 3425 2491 3425 1978 
L 3425 0 
L 2847 0 
L 2847 2094 
Q 2847 2600 2669 2842 
Q 2491 3084 2119 3084 
Q 1678 3084 1418 2786 
Q 1159 2488 1159 1978 
L 1159 0 
L 581 0 
L 581 3500 
L 1159 3500 
L 1159 2956 
Q 1356 3278 1631 3431 
Q 1906 3584 2284 3584 
Q 2666 3584 2933 3390 
Q 3200 3197 3328 2828 
z
" transform="scale(0.015625)"/>
      <path id="DejaVuSans-65" d="M 3597 1894 
L 3597 1613 
L 953 1613 
Q 991 1019 1311 708 
Q 1631 397 2203 397 
Q 2534 397 2845 478 
Q 3156 559 3463 722 
L 3463 178 
Q 3153 47 2828 -22 
Q 2503 -91 2169 -91 
Q 1331 -91 842 396 
Q 353 884 353 1716 
Q 353 2575 817 3079 
Q 1281 3584 2069 3584 
Q 2775 3584 3186 3129 
Q 3597 2675 3597 1894 
z
M 3022 2063 
Q 3016 2534 2758 2815 
Q 2500 3097 2075 3097 
Q 1594 3097 1305 2825 
Q 1016 2553 972 2059 
L 3022 2063 
z
" transform="scale(0.015625)"/>
      <path id="DejaVuSans-64" d="M 2906 2969 
L 2906 4863 
L 3481 4863 
L 3481 0 
L 2906 0 
L 2906 525 
Q 2725 213 2448 61 
Q 2172 -91 1784 -91 
Q 1150 -91 751 415 
Q 353 922 353 1747 
Q 353 2572 751 3078 
Q 1150 3584 1784 3584 
Q 2172 3584 2448 3432 
Q 2725 3281 2906 2969 
z
M 947 1747 
Q 947 1113 1208 752 
Q 1469 391 1925 391 
Q 2381 391 2643 752 
Q 2906 1113 2906 1747 
Q 2906 2381 2643 2742 
Q 2381 3103 1925 3103 
Q 1469 3103 1208 2742 
Q 947 2381 947 1747 
z
" transform="scale(0.015625)"/>
      <path id="DejaVuSans-5f" d="M 3263 -1063 
L 3263 -1509 
L -63 -1509 
L -63 -1063 
L 3263 -1063 
z
" transform="scale(0.015625)"/>
     </defs>
     <use xlink:href="#DejaVuSans-43"/>
     <use xlink:href="#DejaVuSans-6c" x="69.824219"/>
     <use xlink:href="#DejaVuSans-61" x="97.607422"/>
     <use xlink:href="#DejaVuSans-73" x="158.886719"/>
     <use xlink:href="#DejaVuSans-73" x="210.986328"/>
     <use xlink:href="#DejaVuSans-69" x="263.085938"/>
     <use xlink:href="#DejaVuSans-63" x="290.869141"/>
     <use xlink:href="#DejaVuSans-20" x="345.849609"/>
     <use xlink:href="#DejaVuSans-54" x="377.636719"/>
     <use xlink:href="#DejaVuSans-72" x="423.970703"/>
     <use xlink:href="#DejaVuSans-61" x="465.083984"/>
     <use xlink:href="#DejaVuSans-6e" x="526.363281"/>
     <use xlink:href="#DejaVuSans-73" x="589.742188"/>
     <use xlink:href="#DejaVuSans-66" x="641.841797"/>
     <use xlink:href="#DejaVuSans-6f" x="677.046875"/>
     <use xlink:href="#DejaVuSans-72" x="738.228516"/>
     <use xlink:href="#DejaVuSans-6d" x="777.591797"/>
     <use xlink:href="#DejaVuSans-65" x="875.003906"/>
     <use xlink:href="#DejaVuSans-72" x="936.527344"/>
     <use xlink:href="#DejaVuSans-20" x="977.640625"/>
     <use xlink:href="#DejaVuSans-2d" x="1009.427734"/>
     <use xlink:href="#DejaVuSans-20" x="1045.511719"/>
     <use xlink:href="#DejaVuSans-6d" x="1077.298828"/>
     <use xlink:href="#DejaVuSans-6f" x="1174.710938"/>
     <use xlink:href="#DejaVuSans-64" x="1235.892578"/>
     <use xlink:href="#DejaVuSans-65" x="1299.369141"/>
     <use xlink:href="#DejaVuSans-6c" x="1360.892578"/>
     <use xlink:href="#DejaVuSans-5f" x="1388.675781"/>
     <use xlink:href="#DejaVuSans-32" x="1438.675781"/>
     <use xlink:href="#DejaVuSans-30" x="1502.298828"/>
     <use xlink:href="#DejaVuSans-32" x="1565.921875"/>
     <use xlink:href="#DejaVuSans-33" x="1629.544922"/>
     <use xlink:href="#DejaVuSans-31" x="1693.167969"/>
     <use xlink:href="#DejaVuSans-31" x="1756.791016"/>
     <use xlink:href="#DejaVuSans-32" x="1820.414062"/>
     <use xlink:href="#DejaVuSans-36" x="1884.037109"/>
     <use xlink:href="#DejaVuSans-31" x="1947.660156"/>
     <use xlink:href="#DejaVuSans-38" x="2011.283203"/>
     <use xlink:href="#DejaVuSans-32" x="2074.90625"/>
     <use xlink:href="#DejaVuSans-30" x="2138.529297"/>
     <use xlink:href="#DejaVuSans-32" x="2202.152344"/>
     <use xlink:href="#DejaVuSans-35" x="2265.775391"/>
    </g>
   </g>
   <g id="legend_1">
    <g id="patch_7">
     <path d="M 79 95.234375 
L 161.517188 95.234375 
Q 163.517188 95.234375 163.517188 93.234375 
L 163.517188 50.2 
Q 163.517188 48.2 161.517188 48.2 
L 79 48.2 
Q 77 48.2 77 50.2 
L 77 93.234375 
Q 77 95.234375 79 95.234375 
z
" style="fill: #ffffff; opacity: 0.8; stroke: #cccccc; stroke-linejoin: miter"/>
    </g>
    <g id="line2d_16">
     <path d="M 81 56.298437 
L 91 56.298437 
L 101 56.298437 
" style="fill: none; stroke: #1f77b4; stroke-width: 1.5; stroke-linecap: square"/>
    </g>
    <g id="text_14">
     <!-- Measured -->
     <g transform="translate(109 59.798437) scale(0.1 -0.1)">
      <defs>
       <path id="DejaVuSans-4d" d="M 628 4666 
L 1569 4666 
L 2759 1491 
L 3956 4666 
L 4897 4666 
L 4897 0 
L 4281 0 
L 4281 4097 
L 3078 897 
L 2444 897 
L 1241 4097 
L 1241 0 
L 628 0 
L 628 4666 
z
" transform="scale(0.015625)"/>
       <path id="DejaVuSans-75" d="M 544 1381 
L 544 3500 
L 1119 3500 
L 1119 1403 
Q 1119 906 1312 657 
Q 1506 409 1894 409 
Q 2359 409 2629 706 
Q 2900 1003 2900 1516 
L 2900 3500 
L 3475 3500 
L 3475 0 
L 2900 0 
L 2900 538 
Q 2691 219 2414 64 
Q 2138 -91 1772 -91 
Q 1169 -91 856 284 
Q 544 659 544 1381 
z
M 1991 3584 
L 1991 3584 
z
" transform="scale(0.015625)"/>
      </defs>
      <use xlink:href="#DejaVuSans-4d"/>
      <use xlink:href="#DejaVuSans-65" x="86.279297"/>
      <use xlink:href="#DejaVuSans-61" x="147.802734"/>
      <use xlink:href="#DejaVuSans-73" x="209.082031"/>
      <use xlink:href="#DejaVuSans-75" x="261.181641"/>
      <use xlink:href="#DejaVuSans-72" x="324.560547"/>
      <use xlink:href="#DejaVuSans-65" x="363.423828"/>
      <use xlink:href="#DejaVuSans-64" x="424.947266"/>
     </g>
    </g>
    <g id="line2d_17">
     <path d="M 81 70.976562 
L 91 70.976562 
L 101 70.976562 
" style="fill: none; stroke: #ff7f0e; stroke-width: 1.5; stroke-linecap: square"/>
    </g>
    <g id="text_15">
     <!-- Fitted -->
     <g transform="translate(109 74.476562) scale(0.1 -0.1)">
      <defs>
       <path id="DejaVuSans-46" d="M 628 4666 
L 3309 4666 
L 3309 4134 
L 1259 4134 
L 1259 2759 
L 3109 2759 
L 3109 2228 
L 1259 2228 
L 1259 0 
L 628 0 
L 628 4666 
z
" transform="scale(0.015625)"/>
       <path id="DejaVuSans-74" d="M 1172 4494 
L 1172 3500 
L 2356 3500 
L 2356 3053 
L 1172 3053 
L 1172 1153 
Q 1172 725 1289 603 
Q 1406 481 1766 481 
L 2356 481 
L 2356 0 
L 1766 0 
Q 1100 0 847 248 
Q 594 497 594 1153 
L 594 3053 
L 172 3053 
L 172 3500 
L 594 3500 
L 594 4494 
L 1172 4494 
z
" transform="scale(0.015625)"/>
      </defs>
      <use xlink:href="#DejaVuSans-46"/>
      <use xlink:href="#DejaVuSans-69" x="50.269531"/>
      <use xlink:href="#DejaVuSans-74" x="78.052734"/>
      <use xlink:href="#DejaVuSans-74" x="117.261719"/>
      <use xlink:href="#DejaVuSans-65" x="156.470703"/>
      <use xlink:href="#DejaVuSans-64" x="217.994141"/>
     </g>
    </g>
    <g id="line2d_18">
     <path d="M 81 85.654687 
L 91 85.654687 
L 101 85.654687 
" style="fill: none; stroke: #2ca02c; stroke-width: 1.5; stroke-linecap: square"/>
    </g>
    <g id="text_16">
     <!-- Estimated -->
     <g transform="translate(109 89.154687) scale(0.1 -0.1)">
      <defs>
       <path id="DejaVuSans-45" d="M 628 4666 
L 3578 4666 
L 3578 4134 
L 1259 4134 
L 1259 2753 
L 3481 2753 
L 3481 2222 
L 1259 2222 
L 1259 531 
L 3634 531 
L 3634 0 
L 628 0 
L 628 4666 
z
" transform="scale(0.015625)"/>
      </defs>
      <use xlink:href="#DejaVuSans-45"/>
      <use xlink:href="#DejaVuSans-73" x="63.183594"/>
      <use xlink:href="#DejaVuSans-74" x="115.283203"/>
      <use xlink:href="#DejaVuSans-69" x="154.492188"/>
      <use xlink:href="#DejaVuSans-6d" x="182.275391"/>
      <use xlink:href="#DejaVuSans-61" x="279.6875"/>
      <use xlink:href="#DejaVuSans-74" x="340.966797"/>
      <use xlink:href="#DejaVuSans-65" x="380.175781"/>
      <use xlink:href="#DejaVuSans-64" x="441.699219"/>
     </g>
    </g>
   </g>
  </g>
 </g>
 <defs>
  <clipPath id="p6817f3b16f">
   <rect x="72" y="43.2" width="446.4" height="277.2"/>
  </clipPath>
 </defs>
</svg>
